<?xml version="1.0" standalone="no"?>
<!DOCTYPE svg PUBLIC "-//W3C//DTD SVG 20010904//EN"
 "http://www.w3.org/TR/2001/REC-SVG-20010904/DTD/svg10.dtd">
<svg version="1.0" xmlns="http://www.w3.org/2000/svg"
 width="500.000000pt" height="878.000000pt" viewBox="0 0 500.000000 878.000000"
 preserveAspectRatio="xMidYMid meet">
<metadata>
Created by potrace 1.15, written by Peter Selinger 2001-2017
</metadata>
<g transform="translate(0.000000,878.000000) scale(0.100000,-0.100000)"
fill="#000000" stroke="none">
<path d="M0 8232 l0 -548 38 -37 c21 -20 44 -37 52 -37 8 0 49 -22 91 -50 59
-38 81 -60 103 -100 34 -62 21 -65 -27 -7 -23 29 -58 55 -100 75 -35 17 -84
49 -107 71 -24 23 -45 41 -47 41 -1 0 -3 -24 -2 -52 l0 -53 80 -39 c80 -40
139 -92 139 -124 0 -11 -12 -3 -36 25 -21 26 -64 58 -110 81 l-74 39 0 -146 0
-146 37 -73 c27 -52 45 -75 62 -79 l24 -6 -6 -471 c-4 -259 -9 -572 -12 -696
-3 -124 -10 -463 -15 -755 -11 -574 -9 -558 -65 -547 -21 4 -25 1 -25 -21 0
-23 5 -26 37 -29 30 -2 38 -7 38 -23 0 -17 -6 -20 -38 -17 -32 2 -37 0 -37
-18 0 -17 6 -20 41 -20 33 0 40 -3 37 -17 -2 -13 -14 -19 -41 -21 -38 -3 -47
-20 -28 -51 7 -10 13 -11 31 -1 14 8 26 8 32 2 6 -6 6 -222 -1 -623 -20 -1137
-26 -1563 -26 -1806 0 -137 -4 -243 -9 -243 -5 0 -15 8 -22 18 -11 14 -13 -47
-14 -375 l0 -391 43 -16 c82 -29 191 -40 422 -40 307 -1 374 6 415 46 43 41
60 24 26 -27 -14 -21 -26 -47 -26 -59 0 -28 -10 -42 -37 -50 -38 -12 -74 -47
-68 -66 3 -11 -4 -29 -20 -48 -14 -16 -25 -37 -25 -45 0 -9 -8 -18 -18 -21 -9
-3 -173 -4 -365 -1 -300 4 -347 2 -347 -10 0 -13 77 -15 573 -15 1415 -1 3856
-15 4235 -25 150 -4 193 -3 190 7 -2 6 -23 18 -45 25 -24 8 -68 39 -104 73
-61 58 -91 72 -104 50 -3 -6 -15 -10 -26 -10 -16 0 -19 7 -19 40 0 32 -7 48
-36 80 -36 39 -38 60 -6 60 34 1 -11 18 -92 34 -95 20 -107 28 -158 103 -45
67 -53 73 -92 73 -44 0 -109 21 -134 44 -13 12 -35 40 -49 64 -18 31 -31 42
-49 42 -14 0 -27 7 -31 18 -3 9 -14 24 -25 32 -16 13 -17 20 -7 48 6 17 12 32
14 32 1 0 18 -7 38 -15 44 -18 169 -25 174 -9 2 7 -18 14 -54 18 -32 4 -78 14
-101 23 -47 18 -49 27 -23 95 9 24 14 27 39 22 43 -9 49 13 9 32 l-34 16 5
103 c7 165 -23 320 -89 461 -33 69 -36 134 -18 324 6 58 12 121 14 140 2 26
15 498 17 660 0 8 4 110 8 225 5 116 11 307 15 425 7 282 13 411 30 665 8 116
17 315 20 444 3 129 8 237 10 242 3 4 7 164 10 355 3 192 8 378 10 414 16 276
27 431 35 497 6 42 10 119 10 172 -1 86 7 168 26 298 l7 43 41 -6 c22 -3 57
-10 76 -14 19 -5 54 -9 78 -9 47 0 127 -33 136 -56 8 -22 136 -21 136 0 0 10
-10 15 -31 15 -17 0 -28 4 -24 10 8 13 83 1 112 -18 24 -15 22 -35 -2 -26 -25
10 -40 -7 -20 -23 26 -19 92 -17 103 3 14 25 20 -3 13 -56 -6 -44 -7 -45 -43
-48 -50 -4 -49 -22 1 -22 57 0 66 -44 11 -51 -32 -5 -27 -25 6 -22 23 2 25 -1
22 -30 -3 -28 -7 -33 -36 -37 -43 -7 -42 -24 3 -28 l35 -3 0 -66 0 -66 -49 7
c-53 7 -75 -6 -42 -23 11 -6 36 -11 55 -11 32 0 36 -3 36 -26 0 -27 0 -27
-125 -10 -5 0 -10 -6 -10 -14 0 -16 37 -27 98 -29 31 -1 37 -5 37 -22 0 -21
-3 -22 -85 -16 -82 6 -105 -1 -67 -22 9 -5 47 -12 85 -16 56 -6 67 -10 67 -26
0 -25 -15 -31 -79 -33 -43 -1 -56 -5 -56 -16 0 -12 16 -16 69 -18 65 -3 68 -4
62 -25 -3 -12 -6 -26 -6 -30 0 -7 -50 -2 -93 10 -15 4 -18 0 -15 -19 2 -19 10
-23 46 -26 41 -3 61 -22 23 -22 -11 0 -32 -5 -46 -10 -40 -15 -16 -41 30 -33
30 5 33 3 28 -15 -4 -15 -15 -22 -39 -24 -50 -4 -42 -22 13 -28 40 -4 49 -9
51 -27 2 -16 -1 -21 -15 -18 -10 2 -37 6 -61 9 -36 3 -43 2 -40 -12 2 -13 17
-18 57 -22 76 -7 81 -30 6 -30 -69 0 -73 -23 -4 -28 84 -6 95 -48 11 -43 -29
1 -52 -2 -52 -7 0 -14 25 -22 65 -22 37 0 48 -10 39 -35 -5 -13 -15 -15 -52
-9 -35 5 -44 4 -40 -7 3 -8 22 -16 44 -19 31 -4 39 -9 39 -25 0 -14 -8 -21
-28 -23 -31 -4 -32 -27 -1 -27 10 0 20 -8 22 -17 3 -14 -6 -17 -44 -20 -30 -2
-49 -8 -52 -17 -4 -11 5 -13 47 -8 47 6 51 4 57 -17 3 -13 4 -38 2 -57 l-3
-34 -65 3 c-61 2 -64 2 -45 -13 13 -10 35 -15 60 -13 37 2 40 1 43 -25 4 -30
-15 -35 -62 -17 -17 6 -27 6 -32 -2 -11 -18 35 -48 73 -48 33 0 34 -2 31 -32
-3 -31 -5 -33 -45 -33 -23 0 -45 -4 -49 -8 -12 -12 17 -27 52 -27 38 0 66 -26
43 -41 -8 -5 -32 -8 -54 -7 -39 3 -41 1 -36 -33 0 -6 19 -9 43 -7 34 2 44 -1
46 -14 3 -13 -6 -17 -40 -20 -55 -4 -56 -22 -1 -26 66 -5 68 -62 2 -62 -43 0
-35 -18 9 -22 29 -2 37 -7 37 -23 0 -16 -8 -21 -43 -23 -57 -4 -51 -28 7 -26
41 2 42 1 39 -30 -3 -30 -5 -31 -45 -28 -48 4 -65 -13 -30 -29 18 -8 30 -8 46
0 25 14 35 -1 29 -41 -3 -20 -9 -23 -50 -26 -62 -4 -62 -20 0 -24 43 -3 47 -5
47 -28 0 -22 -5 -25 -43 -28 -53 -4 -52 -26 1 -30 54 -5 50 -32 -4 -32 -28 0
-39 -4 -36 -12 2 -8 21 -13 43 -13 35 0 39 -3 39 -25 0 -23 -3 -25 -36 -22
-55 5 -58 -15 -4 -23 40 -7 45 -10 45 -34 0 -25 -2 -26 -40 -23 -33 3 -40 1
-40 -13 0 -15 7 -17 45 -12 39 6 45 4 45 -12 0 -24 -18 -38 -53 -43 -33 -4
-36 -23 -4 -24 44 -2 48 -4 45 -21 -2 -12 -15 -20 -37 -23 -19 -3 -36 -11 -39
-18 -3 -11 6 -13 38 -10 48 3 61 -10 34 -36 -11 -12 -29 -16 -53 -14 -27 2
-36 -1 -36 -12 0 -12 10 -14 47 -12 37 3 49 0 54 -13 9 -23 -2 -30 -53 -30
-68 0 -68 -23 -1 -27 39 -2 53 -7 53 -18 0 -11 -15 -16 -55 -20 -69 -6 -67
-25 3 -25 40 0 52 -4 52 -15 0 -11 -14 -16 -48 -20 -26 -3 -49 -9 -50 -14 -3
-13 52 -27 80 -20 13 4 23 2 23 -4 0 -6 -25 -14 -55 -17 -68 -9 -69 -29 -2
-33 31 -2 47 -8 47 -16 0 -17 -44 -29 -72 -20 -16 5 -19 2 -16 -13 3 -14 13
-18 46 -18 59 0 53 -19 -8 -23 -36 -2 -50 -7 -50 -18 0 -8 11 -14 28 -15 73
-3 77 -4 80 -27 3 -22 1 -23 -52 -20 -70 4 -74 -14 -7 -27 27 -5 53 -14 57
-18 14 -13 -18 -27 -63 -27 -43 0 -57 -13 -27 -24 9 -3 31 -6 50 -6 19 0 34
-4 34 -10 0 -5 -21 -10 -46 -10 -38 0 -45 -3 -42 -17 2 -14 15 -19 51 -21 60
-4 59 -26 -2 -30 -55 -4 -49 -26 8 -30 58 -4 48 -26 -13 -30 -62 -4 -56 -25
10 -32 64 -7 67 -31 5 -46 -64 -15 -67 -36 -5 -33 44 3 49 1 52 -18 3 -20 -3
-23 -47 -29 -28 -4 -51 -10 -51 -15 0 -9 59 -22 80 -17 9 2 16 -6 18 -20 3
-19 -1 -22 -27 -22 -43 0 -42 -28 2 -32 20 -2 32 -8 32 -18 0 -11 -15 -16 -63
-18 -80 -4 -79 -25 1 -32 30 -3 58 -8 62 -12 16 -16 -10 -29 -56 -27 -85 4
-80 -25 6 -36 66 -8 70 -28 7 -33 -29 -2 -42 -8 -42 -18 0 -10 13 -14 46 -14
38 0 45 -3 42 -17 -3 -14 -14 -18 -53 -18 -38 0 -50 -4 -50 -15 0 -16 67 -32
98 -23 14 4 18 0 15 -14 -3 -15 -13 -18 -58 -19 -41 -1 -56 -5 -58 -16 -2 -11
9 -17 41 -22 24 -4 51 -4 59 -1 19 7 24 -25 24 -130 l-1 -70 -52 -3 c-29 -2
-53 -8 -53 -14 0 -7 20 -9 55 -6 55 5 55 5 59 -26 12 -80 27 -277 21 -286 -3
-5 -38 -10 -76 -10 -52 0 -70 -3 -66 -12 2 -8 24 -13 58 -14 30 0 61 -1 69 -2
16 -2 22 -58 47 -396 l5 -68 -97 3 c-72 3 -99 1 -102 -8 -3 -9 9 -13 41 -13
25 0 46 -4 46 -10 0 -5 -4 -10 -10 -10 -12 0 -14 -27 -2 -33 16 -11 60 6 65
25 4 14 12 19 29 16 21 -3 23 -8 22 -58 -1 -30 -5 -76 -9 -102 -7 -43 -11 -49
-49 -67 -110 -51 -141 -61 -202 -62 -68 -2 -83 -9 -60 -28 15 -13 135 -10 171
4 16 6 16 4 -4 -10 -21 -16 -97 -29 -226 -38 -32 -2 -40 -6 -40 -22 0 -19 -7
-20 -128 -20 -85 1 -131 5 -139 13 -7 7 -22 12 -35 12 -31 0 -31 -35 1 -55 20
-13 60 -16 248 -15 307 1 332 5 396 60 46 40 59 61 93 148 5 13 23 29 39 35
35 13 40 28 8 24 -18 -1 -22 3 -21 18 8 62 -1 396 -10 425 -9 26 -16 119 -23
290 -3 91 -9 201 -14 245 -5 44 -6 83 -4 87 3 5 17 5 31 2 21 -6 24 -3 21 12
-2 12 -13 20 -31 22 -22 3 -27 8 -27 32 0 16 5 27 13 26 6 0 13 4 14 9 2 6 -5
10 -15 10 -15 0 -18 18 -23 181 -4 99 -9 223 -13 275 -14 217 -24 978 -12 997
7 11 107 3 124 -10 9 -8 12 -2 12 23 l0 34 -72 0 c-67 0 -73 2 -70 20 5 28 6
29 78 33 l65 4 -3 42 -3 41 -70 0 -70 0 1 145 c1 80 2 253 3 385 1 132 -1 305
-4 385 -8 186 -10 548 -4 1113 l5 448 46 40 c66 56 98 128 98 219 l0 70 -40
-26 c-28 -19 -57 -56 -101 -130 -34 -58 -59 -108 -55 -112 9 -8 37 9 47 29 26
49 103 169 115 180 27 23 26 1 -5 -64 -17 -36 -31 -70 -31 -76 0 -21 -62 -80
-96 -91 -76 -25 -82 9 -24 133 22 47 40 89 40 94 0 20 133 127 144 116 3 -4 6
4 6 16 l0 21 -37 -19 c-61 -31 -163 -148 -163 -186 0 -10 -10 -33 -21 -52 -19
-30 -23 -33 -31 -18 -13 23 -2 61 33 113 16 23 29 47 29 51 0 18 133 132 161
138 22 4 29 11 29 30 0 23 0 23 -31 7 -20 -10 -35 -12 -41 -6 -5 5 -38 58 -73
118 -86 148 -89 152 -108 136 -8 -7 -25 -45 -37 -85 -13 -39 -35 -94 -48 -122
l-25 -50 -20 65 c-27 91 -48 140 -60 140 -24 0 -47 -37 -68 -106 -12 -41 -26
-74 -30 -74 -10 0 -78 118 -104 180 -10 25 -22 49 -27 54 -10 12 -45 -20 -54
-48 -3 -11 -16 -43 -29 -71 -13 -27 -36 -79 -51 -115 -15 -36 -31 -69 -36 -75
-5 -5 -25 7 -51 31 -53 50 -144 119 -178 134 -26 12 -41 44 -60 130 -14 68
-79 222 -145 348 -78 147 -157 250 -246 318 -78 61 -175 111 -189 97 -15 -15
26 -51 97 -83 71 -32 80 -53 25 -58 -50 -5 -130 28 -159 66 -19 25 -25 45 -26
85 -1 68 35 130 118 209 l61 58 -35 0 c-29 0 -44 -8 -82 -47 -62 -65 -108
-153 -108 -210 0 -73 55 -156 111 -168 16 -4 31 -10 34 -15 8 -14 -69 -24
-270 -35 -55 -3 -138 -8 -185 -11 -173 -11 -395 -22 -400 -19 -3 1 -104 6
-225 9 -236 8 -434 26 -555 51 -112 22 -110 19 -55 75 27 27 52 47 57 44 5 -3
6 -9 3 -14 -23 -37 129 -27 198 13 55 32 67 47 78 94 13 56 -12 130 -62 186
l-41 47 -934 0 -934 0 0 -548z m1851 348 c10 -6 19 -17 19 -25 0 -19 -5 -19
-35 1 -28 18 -47 14 -117 -27 -56 -33 -59 -34 -52 -14 11 28 96 70 152 74 7 1
22 -4 33 -9z m1684 -277 c31 -36 31 -51 -1 -63 -21 -8 -28 -6 -47 15 -14 16
-38 28 -67 34 l-45 8 40 11 c42 11 75 19 88 21 4 0 19 -11 32 -26z m-1905 0
c-21 -8 -30 -24 -30 -53 0 -32 17 -50 46 -50 29 0 47 24 47 61 0 30 1 30 41
23 68 -11 75 -26 22 -48 -44 -18 -76 -50 -76 -76 0 -26 33 -26 83 -1 l37 19
15 -31 c19 -39 20 -37 -19 -37 -28 0 -38 -6 -56 -35 -17 -27 -19 -38 -10 -55
20 -38 68 -17 85 38 9 31 39 25 43 -10 2 -20 -4 -31 -25 -45 -52 -33 -70 -82
-43 -115 l18 -22 36 27 c26 20 36 36 36 55 0 16 8 32 20 40 18 11 20 10 20
-11 0 -30 18 -47 48 -47 18 0 23 4 18 16 -4 10 1 22 11 29 15 11 15 17 5 40
-21 46 4 59 48 25 23 -19 24 -21 8 -31 -10 -5 -18 -17 -18 -26 0 -9 -7 -24
-15 -33 -10 -11 -12 -24 -6 -45 9 -35 35 -44 60 -21 17 16 21 14 54 -19 39
-39 51 -39 61 0 5 20 0 32 -24 56 -16 17 -30 38 -30 48 0 24 -11 33 -26 20 -8
-7 -14 -7 -19 1 -4 6 -5 12 -4 13 2 2 21 10 41 19 l37 17 -6 -33 c-4 -25 1
-39 22 -64 32 -39 65 -43 65 -9 0 13 -11 46 -25 72 -13 27 -23 50 -22 51 28
24 100 74 107 74 15 0 13 -3 -25 -60 -40 -59 -41 -63 -20 -80 12 -10 21 -10
45 0 38 16 54 44 46 81 -6 34 -8 33 32 13 37 -18 39 -25 12 -42 -23 -14 -27
-57 -6 -65 9 -4 27 11 48 38 25 34 38 43 53 38 33 -9 39 -20 26 -51 -14 -34
-11 -74 6 -79 6 -2 15 6 18 18 7 22 8 22 21 4 8 -10 14 -36 14 -57 0 -36 -3
-40 -46 -58 -30 -13 -51 -17 -62 -11 -9 5 -45 12 -79 16 -68 7 -118 -4 -166
-37 -24 -18 -30 -18 -40 -6 -7 8 -29 25 -49 37 -48 28 -83 21 -74 -15 9 -35
-18 -31 -46 6 -12 16 -39 39 -60 50 -37 19 -37 19 -52 -1 -11 -17 -20 -19 -51
-13 -30 5 -37 4 -33 -7 3 -8 31 -18 69 -25 66 -11 171 -53 183 -73 10 -16 -6
-14 -45 6 -19 10 -65 20 -104 24 -60 6 -76 4 -113 -14 -43 -21 -68 -49 -58
-65 6 -10 74 -3 82 9 8 13 73 10 115 -5 46 -16 125 -79 107 -85 -7 -2 -21 -11
-31 -19 -16 -14 -20 -14 -40 6 l-22 23 23 6 c18 4 20 8 11 19 -17 20 -141 19
-182 -2 -38 -19 -67 -44 -67 -56 0 -5 45 -8 99 -6 l99 3 48 -41 c26 -22 49
-46 50 -52 1 -7 0 -8 -3 -2 -5 11 -141 14 -191 4 -18 -4 -57 -30 -91 -60 -32
-30 -61 -54 -64 -54 -11 0 -14 100 -5 173 14 112 -14 251 -56 279 -22 15 -52
7 -86 -21 -32 -26 -34 -33 -38 -97 -3 -54 2 -86 22 -146 14 -43 29 -86 35 -95
5 -10 14 -53 20 -96 13 -95 34 -141 62 -134 25 7 35 -11 16 -30 -12 -12 -18
-13 -35 -2 -12 7 -22 22 -24 34 -4 26 -18 26 -32 0 -6 -11 -12 -22 -13 -24 -2
-2 -8 1 -15 7 -16 13 -12 133 5 129 6 -1 13 6 15 16 3 14 -1 18 -16 15 -12 -2
-36 13 -64 38 -33 31 -56 43 -89 47 -63 9 -155 -17 -216 -61 -39 -27 -42 -21
-9 16 106 119 97 113 166 122 81 10 102 18 98 38 -3 16 -18 26 -87 55 -40 18
-28 28 38 32 25 2 49 4 54 4 4 1 7 7 7 14 0 20 -61 49 -117 54 -55 6 -66 19
-37 43 12 11 30 11 94 1 104 -17 122 -12 138 40 12 39 11 43 -13 74 l-25 34
33 -6 c40 -6 58 11 66 65 4 23 12 37 21 37 19 0 15 -46 -7 -88 -21 -42 -3 -54
35 -23 33 28 40 30 62 16 12 -7 10 -13 -13 -34 -18 -17 -27 -35 -27 -57 l0
-32 48 7 c26 4 57 8 70 8 13 0 22 6 22 15 0 13 -9 15 -50 10 -60 -7 -64 3 -17
51 l32 34 -30 24 c-20 16 -38 23 -52 19 -18 -4 -23 -1 -23 15 0 16 4 20 19 15
15 -5 22 2 31 31 14 42 9 49 -47 58 -37 5 -44 3 -58 -18 -16 -25 -44 -41 -53
-31 -3 3 3 14 13 25 21 24 14 65 -15 80 -31 17 -42 3 -35 -41 l7 -40 -37 26
c-21 14 -42 25 -46 25 -12 0 -11 21 1 40 8 13 11 12 24 -5 12 -16 16 -17 30
-6 20 17 21 37 1 49 -23 12 -8 41 24 47 14 3 42 14 61 25 19 10 42 19 50 19
13 -1 13 -1 0 -6z m1712 -20 c-16 -6 -42 -32 -42 -42 0 -4 10 -13 23 -18 19
-10 20 -12 5 -18 -11 -4 -27 1 -44 14 -15 12 -33 21 -40 21 -21 0 -54 -37 -54
-60 0 -32 28 -36 51 -6 11 14 25 23 31 20 5 -4 1 -15 -11 -28 -12 -12 -21 -28
-21 -36 0 -18 30 -50 47 -50 10 0 13 -10 11 -37 -4 -49 -29 -51 -39 -4 -9 45
-42 87 -67 84 -28 -3 -39 55 -17 96 8 17 15 39 15 50 0 18 8 20 78 23 75 3
100 0 74 -9z m-221 -37 c4 -15 9 -46 11 -69 2 -38 0 -42 -22 -45 -14 -2 -29
-8 -35 -13 -19 -18 -27 -8 -22 29 3 20 8 47 12 58 8 25 -20 41 -41 23 -18 -15
-30 -117 -15 -132 6 -6 11 -16 11 -22 0 -13 -80 -68 -87 -61 -3 2 5 18 17 34
48 65 -16 83 -73 21 -23 -25 -26 -35 -21 -69 4 -22 4 -40 1 -40 -3 0 -19 14
-36 31 -35 35 -60 35 -78 0 -6 -14 -23 -31 -37 -38 -24 -13 -27 -12 -38 12 -6
14 -8 28 -3 33 4 4 10 1 12 -5 7 -21 23 -15 54 19 29 30 27 47 -6 48 -5 0 -3
5 5 10 8 5 36 9 62 8 56 -3 92 23 84 58 -8 28 7 38 33 23 15 -10 24 -9 46 5
24 16 25 19 12 34 -12 13 -28 16 -66 14 -45 -4 -50 -6 -53 -30 -2 -18 -13 -31
-31 -40 -37 -18 -43 -11 -23 29 19 39 20 53 3 67 -28 23 -57 -25 -57 -96 0
-45 -3 -50 -33 -67 -37 -20 -72 -17 -72 5 0 10 12 16 38 18 42 4 58 25 35 48
-11 11 -24 12 -59 6 l-45 -9 9 44 c6 23 8 46 4 49 -7 7 -68 -33 -80 -53 -12
-19 -27 -16 -27 6 0 32 -16 33 -50 5 -24 -21 -30 -32 -26 -50 5 -17 2 -24 -8
-24 -22 0 -24 20 -4 59 10 19 18 43 18 52 0 15 16 18 113 23 154 8 540 23 551
21 6 -1 13 -14 17 -29z m-1295 -14 c-14 -14 -16 -14 -16 -1 0 20 23 44 29 28
2 -6 -4 -18 -13 -27z m117 28 l31 0 -31 -32 c-17 -18 -33 -42 -35 -53 -2 -11
-12 -21 -22 -23 -14 -3 -17 0 -12 13 3 9 6 37 6 62 0 37 3 44 16 39 9 -3 30
-6 47 -6z m413 -40 c17 -20 24 -39 22 -57 -3 -27 -4 -27 -26 15 -27 51 -42 59
-83 42 -39 -16 -62 -49 -48 -66 9 -11 17 -9 39 8 26 19 57 18 45 -2 -6 -10
-93 -70 -102 -70 -3 0 -11 8 -18 17 -11 15 -15 15 -29 4 -9 -7 -13 -17 -10
-23 7 -10 -14 -38 -28 -38 -6 0 -8 14 -4 35 9 48 -3 135 -20 135 -21 0 -54
-50 -60 -92 -4 -22 -12 -38 -20 -38 -17 0 -19 17 -2 22 6 2 8 10 4 17 -6 9
-11 9 -21 1 -8 -7 -18 -9 -23 -6 -5 3 -18 -1 -28 -9 -27 -20 -51 -20 -34 0 7
8 19 15 28 15 31 0 62 41 62 81 0 36 1 38 38 41 20 2 95 2 165 1 l128 -3 25
-30z m1257 -38 c-23 -6 -42 17 -23 28 9 6 18 3 26 -8 10 -14 10 -18 -3 -20z
m-114 -16 c30 1 32 -1 15 -13 -22 -16 -39 -16 -65 -3 -24 13 -26 35 -1 24 9
-4 32 -8 51 -8z m-135 -46 c12 0 33 -11 46 -25 27 -29 87 -35 96 -10 8 21 36
19 32 -2 -2 -10 -20 -20 -48 -27 -38 -9 -45 -15 -48 -38 -5 -38 -32 -37 -32 1
0 33 -39 86 -70 96 -11 4 -20 14 -20 23 1 16 2 15 11 0 5 -10 20 -18 33 -18z
m-844 11 c0 -12 -20 -25 -27 -18 -7 7 6 27 18 27 5 0 9 -4 9 -9z m73 -21 c-5
-20 -23 -26 -36 -13 -9 8 12 33 28 33 8 0 11 -8 8 -20z m-1202 -33 c-8 -8 -11
-7 -11 4 0 20 13 34 18 19 3 -7 -1 -17 -7 -23z m1739 13 c0 -5 -5 -10 -11 -10
-5 0 -7 5 -4 10 3 6 8 10 11 10 2 0 4 -4 4 -10z m47 -27 c3 -10 13 -26 20 -35
14 -15 11 -17 -23 -24 -30 -5 -40 -3 -51 11 -19 27 -16 40 10 53 31 15 37 14
44 -5z m-1230 -31 l-27 -27 0 27 c0 20 6 28 23 30 33 6 34 0 4 -30z m-466 10
c21 3 35 -2 51 -19 34 -36 11 -48 -43 -24 -24 12 -52 21 -61 21 -20 0 -32 16
-23 30 4 7 13 6 27 -1 11 -6 33 -9 49 -7z m1889 -34 c0 -16 -7 -40 -16 -53
-14 -22 -14 -25 -1 -31 8 -3 33 4 56 15 62 32 111 23 63 -11 -27 -19 -54 -64
-51 -85 1 -10 -1 -30 -5 -45 -11 -39 0 -51 31 -31 39 26 181 30 241 8 45 -17
82 -41 82 -54 0 -3 -24 -7 -53 -8 -76 -2 -159 -23 -184 -46 -12 -11 -30 -40
-40 -65 -14 -37 -18 -41 -24 -26 -4 11 -8 34 -8 53 -1 41 -48 117 -78 125 -33
9 -52 -3 -73 -44 -19 -37 -20 -73 -5 -170 3 -19 9 -76 14 -127 10 -96 38 -193
56 -193 18 0 35 23 26 34 -19 24 -34 96 -51 240 -17 151 -17 211 2 222 13 8
55 -33 67 -66 13 -38 6 -190 -13 -269 -11 -45 -12 -70 -5 -83 6 -10 11 -36 13
-56 2 -31 6 -37 24 -36 21 1 22 -4 22 -74 0 -56 -4 -80 -17 -94 -20 -23 -9
-36 17 -20 11 7 26 12 34 12 21 0 30 19 16 35 -6 8 -9 19 -5 26 5 7 15 2 30
-17 l23 -28 25 30 c36 43 90 58 172 49 39 -4 68 -12 71 -20 9 -22 -11 -208
-22 -212 -6 -2 -15 7 -21 19 -6 13 -36 36 -66 52 -51 26 -59 27 -94 16 -53
-17 -69 -34 -82 -85 -28 -111 5 -256 64 -283 37 -17 130 -15 165 3 29 15 30
15 31 -7 0 -13 3 -48 5 -79 3 -41 0 -60 -11 -69 -19 -16 -40 -8 -40 16 0 17
-6 19 -53 16 -46 -3 -56 -1 -69 18 -13 18 -23 21 -84 19 -42 -1 -75 3 -81 9
-7 7 -20 12 -30 12 -10 0 -21 8 -24 18 -3 9 -17 39 -31 66 -34 64 -44 196 -19
244 21 41 49 56 77 41 17 -9 23 -8 30 2 13 21 -39 69 -88 82 -24 6 -43 14 -44
17 -2 15 -7 75 -13 159 -11 138 -33 172 -132 198 -59 15 -130 11 -167 -9 -24
-12 -31 -5 -22 21 12 38 154 95 220 89 49 -5 36 24 -24 55 -30 15 -66 27 -80
27 -23 1 -24 2 -8 11 13 8 37 7 83 -2 42 -8 68 -9 74 -3 17 17 -18 53 -83 85
-54 28 -68 31 -119 26 -58 -5 -68 1 -50 30 4 7 38 26 74 42 59 27 75 30 142
27 82 -5 103 6 91 45 -11 35 -87 110 -130 130 l-40 18 50 -6 c46 -6 59 -13 68
-37 2 -5 11 -7 20 -3 15 5 27 38 42 110 5 24 8 27 20 17 8 -7 15 -26 15 -42z
m319 28 c10 -12 7 -18 -18 -31 -17 -8 -31 -23 -31 -31 0 -14 -3 -14 -15 -4
-14 11 -14 15 0 37 9 13 13 28 10 33 -10 16 41 11 54 -4z m-1087 -13 c16 -20
48 -115 48 -145 0 -10 -7 -30 -16 -43 -24 -36 -15 -68 21 -76 90 -20 191 -86
244 -160 24 -32 27 -46 29 -141 3 -96 1 -110 -21 -154 -14 -27 -33 -56 -43
-65 -33 -28 -172 -80 -197 -74 -17 5 -33 -1 -55 -20 -17 -15 -36 -23 -42 -20
-6 4 -17 2 -25 -5 -10 -8 -15 -8 -20 0 -4 7 -19 9 -35 5 -24 -5 -37 -2 -79 22
-2 2 2 9 9 18 10 12 9 16 -4 21 -9 3 -22 2 -29 -4 -6 -5 -37 -13 -67 -17 -31
-4 -64 -15 -75 -25 -11 -10 -32 -23 -47 -29 -18 -7 -30 -20 -34 -38 -3 -15 -7
-34 -10 -40 -4 -15 -42 -17 -63 -4 -11 7 -7 13 17 25 39 20 65 67 56 101 -10
39 -23 40 -60 4 -25 -24 -34 -42 -34 -65 0 -45 -22 -65 -63 -57 -42 8 -46 12
-22 26 11 6 33 23 48 38 27 27 27 29 13 64 -8 19 -15 39 -15 42 1 21 -22 9
-55 -27 -31 -35 -36 -46 -31 -74 5 -23 2 -36 -9 -45 -14 -12 -16 -9 -16 23 0
20 -2 36 -4 36 -2 0 -20 -7 -39 -15 -56 -23 -67 -20 -67 21 0 34 1 35 22 20
32 -22 55 -20 83 9 41 40 34 77 -26 137 -45 45 -50 54 -40 71 16 25 5 35 -20
19 -23 -15 -47 -6 -30 11 7 7 7 14 0 23 -14 17 -5 30 33 50 35 18 44 14 29
-14 -16 -29 -14 -40 8 -52 21 -11 61 1 94 29 26 21 34 5 10 -22 -27 -29 -36
-60 -28 -97 8 -35 25 -38 50 -10 24 26 32 25 39 -6 7 -25 67 -61 85 -49 5 2
27 -15 50 -40 45 -49 56 -54 65 -29 5 12 15 14 49 9 32 -5 46 -3 56 8 14 17
-1 32 -23 24 -7 -3 -37 1 -66 9 -75 19 -123 68 -145 146 -21 74 -13 167 15
193 11 10 26 39 35 65 9 27 23 54 31 60 7 7 14 18 14 24 0 19 64 76 96 85 18
5 61 3 114 -5 54 -9 92 -11 105 -5 11 5 34 14 52 21 21 8 35 22 42 42 17 48
13 72 -19 119 -16 24 -30 50 -30 57 0 18 25 15 42 -5z m-1242 -12 c0 -6 -4
-13 -10 -16 -5 -3 -10 1 -10 9 0 9 5 16 10 16 6 0 10 -4 10 -9z m1720 -7 c0
-8 -4 -12 -10 -9 -5 3 -10 10 -10 16 0 5 5 9 10 9 6 0 10 -7 10 -16z m-60 -24
c24 -24 34 -61 27 -104 -3 -19 -1 -38 5 -44 8 -8 7 -16 -2 -27 -18 -21 -27
-19 -34 10 -6 25 -20 30 -50 19 -24 -9 -20 -59 7 -77 21 -14 21 -16 5 -33 -9
-11 -18 -30 -20 -44 -4 -31 -21 -33 -23 -2 -3 35 -18 45 -49 31 -25 -12 -30
-10 -56 17 -22 21 -28 35 -24 52 8 29 18 28 38 -3 22 -34 63 -34 76 0 12 32
-5 82 -32 90 -12 4 -17 12 -14 22 3 8 6 22 6 31 0 11 9 5 29 -18 17 -21 38
-35 53 -35 13 -1 29 -5 36 -9 21 -13 34 5 28 37 -9 45 -23 56 -60 50 -45 -7
-57 20 -18 41 36 20 48 20 72 -4z m745 -41 c32 -61 2 -71 -62 -20 -39 31 -42
44 -9 35 13 -3 27 -1 30 5 12 19 25 12 41 -20z m-990 -9 c10 -11 31 -20 47
-20 32 0 34 -16 4 -34 -13 -9 -19 -7 -27 7 -6 10 -22 22 -35 27 -13 5 -24 16
-24 25 0 21 13 19 35 -5z m369 -26 c-4 -21 -2 -40 6 -49 10 -12 9 -16 -3 -21
-26 -10 -33 2 -30 58 1 29 2 54 3 55 0 1 7 0 15 -3 12 -5 14 -15 9 -40z
m-1748 25 c3 -6 17 -8 29 -5 18 5 30 -2 50 -26 l27 -32 -27 -23 c-28 -25 -45
-23 -45 5 0 10 -7 28 -16 41 l-17 23 -24 -31 c-25 -32 -53 -41 -53 -17 0 7 11
21 25 30 14 9 25 23 25 31 0 17 16 20 26 4z m2132 -40 c2 -13 9 -30 14 -37 14
-16 11 -18 -34 -26 -37 -7 -38 -6 -38 21 0 33 27 76 43 70 7 -2 14 -14 15 -28z
m-3226 4 c28 -32 109 -208 98 -211 -21 -7 -59 53 -86 136 -14 46 -30 80 -34
75 -4 -4 -17 -35 -28 -69 -12 -34 -32 -87 -46 -119 -15 -32 -26 -66 -26 -76 0
-11 -4 -19 -10 -19 -19 0 -3 64 39 155 10 22 25 60 32 85 18 61 35 73 61 43z
m3347 -4 c33 -16 42 -25 39 -42 -3 -20 -8 -22 -48 -18 -25 1 -46 4 -48 6 -3 3
9 75 12 75 1 0 21 -9 45 -21z m-2949 -4 c0 -9 -8 -41 -19 -73 -10 -31 -26 -82
-35 -112 -9 -30 -25 -70 -34 -88 -16 -31 -16 -34 5 -75 12 -23 24 -54 27 -69
7 -32 45 -98 55 -98 4 0 13 18 20 40 15 50 91 125 186 184 155 95 247 147 253
142 7 -8 -19 -37 -28 -31 -5 3 -35 -12 -67 -33 -32 -21 -91 -58 -132 -82 -106
-61 -149 -104 -187 -184 -31 -68 -34 -96 -10 -96 6 1 31 31 56 68 42 61 150
162 175 162 5 0 -20 -27 -57 -60 -84 -76 -139 -152 -146 -202 -4 -37 -6 -38
-23 -22 -23 21 -130 231 -153 300 -9 29 -26 60 -37 70 -12 11 -28 31 -35 47
-16 30 -34 28 -34 -5 0 -11 -7 -32 -15 -46 -23 -43 -102 -235 -116 -283 -13
-45 -29 -73 -29 -51 0 20 106 324 135 385 14 31 30 57 35 57 7 0 37 -42 68
-97 20 -35 40 -29 47 15 8 55 20 99 51 180 25 67 44 92 44 57z m85 -77 c26
-51 51 -97 55 -103 9 -12 22 -65 16 -65 -6 0 -90 159 -103 195 -6 17 -14 38
-18 48 -4 9 -5 17 -2 17 3 0 26 -42 52 -92z m2471 33 c-12 -18 -36 0 -36 27
l0 26 21 -21 c12 -11 18 -26 15 -32z m-558 -3 c21 -21 15 -40 -10 -32 -30 9
-32 10 -25 29 8 18 19 19 35 3z m1100 -22 c-1 -13 6 -33 16 -45 15 -17 16 -21
4 -21 -25 0 -47 33 -41 63 7 33 26 36 21 3z m-2163 -54 c21 -48 27 -155 18
-282 -8 -111 -24 -135 -33 -53 -3 26 -11 57 -17 69 -14 24 -43 207 -43 265 0
31 4 38 23 41 30 5 35 2 52 -40z m1153 37 c-2 -6 -8 -10 -13 -10 -5 0 -11 4
-13 10 -2 6 4 11 13 11 9 0 15 -5 13 -11z m-780 -77 c2 -7 -3 -12 -12 -12 -9
0 -16 7 -16 16 0 17 22 14 28 -4z m-1718 -5 c0 -14 32 -81 49 -100 5 -7 13
-33 17 -57 10 -63 -10 -44 -36 35 -25 76 -44 83 -61 23 -14 -49 -29 -71 -29
-43 0 28 43 155 52 155 4 0 8 -6 8 -13z m1049 4 c10 -7 1 -14 -34 -30 -26 -12
-51 -21 -56 -21 -4 0 -21 -12 -38 -26 -24 -20 -31 -22 -31 -10 0 26 33 87 45
82 7 -2 18 0 26 5 18 11 70 11 88 0z m-634 -76 c-7 -37 -21 -75 -29 -84 -14
-13 -16 -13 -16 -1 0 17 37 136 46 152 13 21 13 -2 -1 -67z m1435 65 c0 -5 -2
-10 -4 -10 -3 0 -8 5 -11 10 -3 6 -1 10 4 10 6 0 11 -4 11 -10z m-1350 -71 c0
-10 -2 -19 -5 -19 -9 0 -45 64 -45 80 1 23 50 -37 50 -61z m3530 58 c0 -7 25
-56 55 -109 54 -95 87 -189 50 -143 -9 11 -36 53 -61 93 -25 39 -52 72 -60 72
-8 0 -22 -19 -33 -42 -10 -24 -30 -69 -44 -100 -14 -32 -31 -58 -36 -58 -6 0
-11 1 -11 3 0 6 70 169 96 224 13 28 24 57 24 62 0 6 5 11 10 11 6 0 10 -6 10
-13z m514 -105 c71 -118 74 -131 41 -162 l-27 -25 -20 25 c-11 14 -27 34 -35
45 -14 20 -14 20 -34 -4 -10 -13 -19 -35 -19 -50 l1 -26 15 28 15 27 28 -27
28 -28 -26 -3 c-36 -5 -49 -18 -61 -63 -6 -22 -15 -39 -21 -39 -5 0 -7 11 -3
25 5 19 2 25 -9 25 -9 0 -19 4 -22 10 -7 12 74 240 86 240 5 0 22 -27 39 -59
16 -33 34 -62 40 -66 20 -12 22 25 2 52 -11 15 -29 47 -41 71 -12 23 -25 42
-29 42 -24 0 -45 -34 -72 -114 -37 -107 -40 -113 -52 -92 -9 15 1 45 84 259
14 36 20 30 92 -91z m-1090 79 c4 -5 -3 -7 -14 -4 -23 6 -26 13 -6 13 8 0 17
-4 20 -9z m-119 -33 c-10 -47 -12 -48 -56 -48 -28 0 -39 4 -36 13 2 6 11 11
20 9 26 -4 57 17 57 38 0 11 5 20 11 20 7 0 8 -12 4 -32z m-1768 -4 c-3 -3
-12 -4 -19 -1 -8 3 -5 6 6 6 11 1 17 -2 13 -5z m1178 -34 c6 -20 5 -23 -6 -12
-18 17 -48 15 -56 -4 -5 -15 -7 -15 -15 1 -11 19 -12 18 27 38 33 17 39 14 50
-23z m136 20 c27 -22 13 -26 -25 -9 -20 9 -29 9 -41 -1 -19 -15 -28 -9 -19 14
9 22 56 20 85 -4z m1404 -52 c23 -96 41 -148 78 -233 26 -61 76 -238 77 -272
0 -31 -19 -9 -31 35 -7 26 -30 85 -51 130 -21 46 -38 92 -38 102 0 10 -7 34
-15 53 -8 20 -15 47 -15 60 0 13 -6 32 -14 43 -19 25 -46 10 -58 -32 -5 -16
-18 -58 -29 -94 -10 -36 -25 -92 -33 -125 -25 -104 -56 -177 -74 -173 -22 4
-18 34 14 115 13 34 30 83 37 110 18 71 121 353 128 353 4 0 15 -33 24 -72z
m-3265 48 c0 -15 -18 -31 -26 -23 -7 7 7 37 17 37 5 0 9 -6 9 -14z m2390 -15
c-6 -12 -16 -19 -21 -15 -6 4 -4 13 7 25 21 24 29 18 14 -10z m130 -26 c0 -19
-4 -35 -9 -35 -11 0 -24 48 -16 60 13 21 25 8 25 -25z m-2766 -10 c-17 -8 -44
-16 -60 -20 -24 -4 -22 -2 11 14 22 11 49 19 60 19 15 0 12 -3 -11 -13z m146
-9 c0 -13 -7 -29 -15 -36 -12 -10 -15 -9 -15 8 0 27 10 52 21 52 5 0 9 -11 9
-24z m-907 -13 c21 -41 30 -73 20 -73 -14 0 -55 78 -48 90 9 15 13 13 28 -17z
m451 12 c4 -11 0 -15 -12 -13 -12 2 -18 -5 -20 -24 -4 -31 -22 -39 -22 -10 0
20 27 62 39 62 5 0 12 -7 15 -15z m3246 -34 c25 -20 52 -43 60 -52 8 -9 43
-39 77 -68 50 -42 70 -68 99 -129 20 -42 50 -91 66 -108 19 -21 29 -40 26 -55
-4 -27 -28 -38 -28 -13 0 42 -103 186 -162 225 -13 9 -34 37 -47 62 -15 29
-31 47 -45 49 -11 2 -32 20 -45 41 -13 20 -32 37 -41 37 -17 0 -43 43 -33 54
7 7 18 1 73 -43z m-238 17 c-6 -6 -15 -8 -19 -4 -4 4 -1 11 7 16 19 12 27 3
12 -12z m-167 -8 c-31 -34 -7 -46 58 -30 57 13 104 5 155 -28 38 -25 27 -39
-30 -39 -29 0 -70 -3 -90 -6 -59 -8 -158 -74 -158 -104 0 -7 -11 -18 -24 -23
-18 -7 -27 -20 -32 -47 -7 -36 -7 -36 -17 -13 -20 51 -19 66 9 267 5 34 15 39
103 42 44 1 44 1 26 -19z m763 -54 c24 -41 47 -76 53 -78 14 -5 0 -58 -16 -58
-6 0 -27 32 -44 70 -18 39 -36 70 -40 70 -15 0 -39 -36 -52 -77 -7 -24 -16
-43 -21 -43 -21 0 -16 31 17 98 19 40 35 77 35 82 0 6 6 10 13 10 7 0 32 -33
55 -74z m-450 -3 c11 -38 25 -90 33 -118 20 -81 59 -153 113 -213 l51 -56 -3
-120 c-2 -106 -11 -297 -27 -556 -14 -235 -25 -458 -30 -630 -3 -107 -8 -240
-10 -295 -3 -55 -7 -237 -10 -405 -6 -335 -12 -451 -23 -461 -4 -4 -42 -9 -85
-13 l-78 -6 7 118 c4 64 7 178 7 252 0 74 -1 239 -2 365 -1 127 -2 392 -2 590
-1 198 -2 410 -3 470 -1 61 1 164 6 230 5 66 5 147 0 180 -4 33 -4 85 0 115 8
54 16 305 17 513 1 61 5 107 11 107 5 0 18 -30 28 -67z m-828 38 c0 -11 -4
-23 -10 -26 -6 -4 -10 5 -10 19 0 14 5 26 10 26 6 0 10 -9 10 -19z m-1095 -31
c3 -5 -1 -10 -10 -10 -9 0 -13 5 -10 10 3 6 8 10 10 10 2 0 7 -4 10 -10z
m1025 -25 c0 -6 -9 -16 -20 -23 -19 -11 -20 -10 -20 23 0 33 1 34 20 23 11 -7
20 -17 20 -23z m-2013 -16 c-21 -17 -63 -69 -94 -115 -31 -47 -59 -87 -63 -89
-4 -2 -15 2 -25 9 -22 16 -11 39 15 31 13 -4 26 7 52 47 20 29 41 63 47 76 13
25 91 85 100 77 2 -3 -12 -19 -32 -36z m1061 -30 l-4 -34 -13 27 c-8 15 -11
35 -7 44 11 28 28 1 24 -37z m-630 19 c14 -12 15 -18 3 -37 -8 -13 -12 -13
-26 -1 -15 12 -19 12 -30 -3 -19 -26 -25 -21 -25 24 0 41 0 41 33 34 17 -4 38
-12 45 -17z m2552 12 c0 -5 -4 -10 -10 -10 -5 0 -10 5 -10 10 0 6 5 10 10 10
6 0 10 -4 10 -10z m164 -176 c65 -79 100 -130 111 -164 6 -19 3 -21 -27 -18
-28 2 -33 7 -34 28 0 28 -56 112 -119 180 -54 58 -75 90 -75 114 0 23 43 -19
144 -140z m420 99 c10 -32 35 -103 57 -158 45 -117 51 -148 28 -153 -12 -2
-21 15 -38 70 -35 116 -63 180 -73 170 -5 -5 -25 -56 -44 -113 -19 -57 -39
-108 -44 -113 -21 -21 -22 6 -2 61 11 32 28 90 37 128 20 92 45 165 54 165 5
0 16 -26 25 -57z m-4451 -5 c38 -42 91 -138 81 -147 -8 -8 -63 63 -64 82 0 9
-27 38 -60 64 -33 25 -60 48 -60 51 0 2 15 2 33 -2 20 -4 46 -21 70 -48z
m4238 -20 c24 -41 34 -67 28 -73 -6 -6 -18 1 -33 20 -24 30 -24 30 -46 10 -30
-27 -41 -5 -24 51 15 52 24 68 31 60 3 -3 23 -34 44 -68z m-3136 42 c-4 -11 1
-34 9 -52 11 -21 13 -35 7 -41 -16 -16 -41 12 -41 45 0 24 -3 29 -17 24 -13
-5 -11 0 6 18 29 31 45 33 36 6z m2475 10 c0 -5 -7 -10 -15 -10 -8 0 -15 5
-15 10 0 6 7 10 15 10 8 0 15 -4 15 -10z m117 2 c8 -5 6 -14 -8 -31 -22 -27
-25 -26 -34 12 -6 22 -4 27 11 27 11 0 24 -4 31 -8z m-2497 -37 c0 -7 -7 -16
-16 -19 -12 -5 -15 -2 -10 10 3 8 6 20 6 25 0 6 5 7 10 4 6 -3 10 -12 10 -20z
m2320 13 c-1 -17 -35 -58 -49 -58 -23 0 -21 21 5 45 30 27 44 32 44 13z
m-2141 -50 c-1 -29 -3 -45 -6 -35 -3 13 -11 17 -24 14 -23 -6 -26 18 -3 27 10
4 13 13 9 26 -5 14 -2 20 9 20 13 0 16 -11 15 -52z m-382 -30 c2 -35 6 -256 8
-493 2 -236 8 -545 14 -685 12 -277 13 -428 4 -443 -7 -12 -6 -395 1 -502 3
-44 2 -170 -3 -280 -6 -110 -10 -207 -10 -215 1 -8 1 -32 2 -52 1 -21 -1 -39
-3 -41 -8 -7 -173 12 -181 20 -4 5 -10 372 -13 817 -4 445 -9 812 -11 816 -2
3 -7 187 -11 407 l-7 401 25 13 c57 32 132 154 159 262 6 26 14 46 16 43 3 -3
7 -33 10 -68z m2105 41 c22 -12 15 -29 -12 -29 -25 0 -35 -17 -20 -35 9 -11 7
-16 -9 -24 -29 -16 -31 -14 -31 23 0 26 -5 36 -21 41 -12 4 -26 2 -31 -3 -11
-11 -14 -52 -7 -82 2 -8 0 -16 -6 -18 -5 -1 -11 6 -13 18 -4 26 -30 26 -59 -2
l-23 -21 0 21 c0 30 -17 36 -46 17 -37 -24 -48 -14 -20 17 23 24 29 25 67 17
62 -14 83 -4 76 36 -3 18 -2 36 1 40 9 9 130 -3 154 -16z m-1521 -22 c-8 -8
-11 -7 -11 4 0 20 13 34 18 19 3 -7 -1 -17 -7 -23z m2033 18 c18 -14 18 -16
-14 -45 -42 -39 -60 -27 -36 24 19 40 23 42 50 21z m-1920 -46 c6 -31 -2 -62
-14 -54 -4 2 -15 -4 -25 -15 -26 -29 -35 -25 -35 18 0 62 8 77 40 78 23 1 29
-4 34 -27z m2300 -84 c63 -88 63 -89 27 -70 -40 20 -131 146 -131 181 0 15 62
-52 104 -111z m-277 83 c-3 -8 -6 -5 -6 6 -1 11 2 17 5 13 3 -3 4 -12 1 -19z
m-2391 -27 c-4 -6 -17 -11 -28 -11 -21 0 -21 1 -3 20 19 21 44 13 31 -9z
m2119 -8 c19 -21 25 -39 25 -70 0 -52 -17 -57 -26 -8 -6 35 -17 44 -29 25 -20
-32 -32 7 -19 58 8 29 18 28 49 -5z m789 -16 c16 -22 17 -30 7 -40 -10 -9 -16
-7 -31 13 -22 28 -27 64 -8 58 6 -2 21 -16 32 -31z m-3094 9 c0 -8 10 -22 21
-30 24 -17 20 -46 -7 -46 -10 0 -14 3 -11 6 12 12 -14 44 -35 44 -20 0 -21 1
-3 20 21 24 35 26 35 6z m2540 4 c0 -5 -5 -10 -12 -10 -6 0 -20 -7 -30 -16
-14 -14 -20 -14 -33 -4 -24 20 -18 29 28 33 23 2 43 4 45 5 1 1 2 -2 2 -8z
m-519 -44 c-8 -9 -7 -18 4 -32 19 -25 20 -65 1 -58 -15 6 -46 -21 -46 -40 0
-23 29 -41 42 -28 16 16 28 15 28 -3 0 -10 -11 -15 -35 -15 -19 0 -35 5 -35
10 0 16 -37 12 -44 -5 -3 -9 -18 -15 -36 -15 -17 0 -47 -7 -67 -15 -47 -20
-51 -19 -25 5 28 27 28 46 -3 86 -25 32 -31 55 -18 67 9 9 46 -34 58 -67 21
-61 80 -59 123 4 20 29 23 43 18 83 -5 43 -3 49 17 56 25 10 36 -11 18 -33z
m-2998 -48 c-16 -30 -18 -31 -21 -11 -2 12 5 37 15 55 16 30 18 31 21 11 2
-12 -5 -37 -15 -55z m4307 -36 c7 -29 10 -55 7 -58 -12 -12 -85 -16 -91 -5 -7
11 19 120 37 155 9 18 10 17 22 -10 6 -16 18 -53 25 -82z m-3010 62 c53 -21
95 -44 101 -56 6 -11 27 -38 46 -59 21 -23 32 -43 27 -48 -5 -5 -38 -11 -74
-14 -36 -3 -77 -9 -92 -13 -21 -5 -28 -3 -28 8 0 20 -55 59 -103 73 -51 15
-155 1 -181 -25 -30 -29 -66 -130 -66 -185 0 -63 33 -132 78 -162 18 -11 57
-29 88 -39 46 -14 62 -15 88 -6 18 7 41 12 52 13 10 0 43 12 73 27 45 22 57
34 68 67 11 29 12 49 4 73 -7 25 -6 34 3 38 13 5 126 -42 126 -53 0 -3 -8 -15
-17 -25 -13 -14 -14 -21 -5 -30 7 -7 12 -26 12 -43 0 -26 -4 -31 -22 -31 -18
1 -22 -4 -21 -21 3 -26 0 -28 -27 -11 -17 11 -24 8 -52 -19 -18 -17 -56 -42
-84 -57 -48 -23 -60 -25 -149 -21 -85 3 -101 7 -130 29 -38 29 -65 64 -88 116
-18 38 -37 173 -37 259 0 54 0 54 73 123 89 86 103 96 164 112 71 20 75 19
173 -20z m1330 -32 c0 -8 8 -21 17 -28 10 -7 14 -16 10 -20 -4 -4 -15 2 -23
15 -15 21 -17 21 -40 7 -30 -21 -34 -20 -34 4 0 11 9 29 21 41 16 16 23 18 35
8 8 -6 14 -18 14 -27z m-545 -34 c-3 -13 -1 -30 5 -38 8 -13 13 -13 30 -2 17
10 25 11 36 1 11 -9 21 -9 38 -1 23 10 36 7 36 -9 0 -3 -29 -12 -66 -19 -62
-12 -66 -11 -88 9 -25 23 -56 27 -74 9 -18 -18 -22 -5 -11 35 10 36 12 37 55
37 41 0 44 -2 39 -22z m301 7 c-21 -16 -32 -13 -21 4 3 6 14 11 23 11 15 -1
15 -2 -2 -15z m54 -70 c-24 -25 -49 -41 -56 -38 -22 8 -16 18 21 36 19 9 42
31 52 49 14 27 18 29 21 14 2 -12 -11 -34 -38 -61z m286 50 c7 -28 0 -55 -15
-55 -13 0 -25 45 -17 65 8 23 25 18 32 -10z m184 -10 c-7 -9 -15 -13 -19 -10
-3 3 1 10 9 15 21 14 24 12 10 -5z m-2530 -13 c0 -15 -24 -32 -47 -32 -27 0
-30 15 -5 29 21 12 52 14 52 3z m1960 -12 c0 -16 -7 -20 -36 -20 -43 0 -42 22
2 31 16 4 30 7 32 8 1 0 2 -8 2 -19z m-2315 -1 c13 -1 10 -4 -10 -8 -34 -8
-55 -4 -55 11 0 6 10 8 23 4 12 -3 31 -6 42 -7z m223 -6 c2 -7 -4 -16 -13 -19
-19 -8 -95 15 -95 28 0 14 103 5 108 -9z m262 1 c0 -2 -7 -4 -15 -4 -8 0 -15
4 -15 10 0 5 7 7 15 4 8 -4 15 -8 15 -10z m1020 -5 c0 -6 -4 -7 -10 -4 -5 3
-10 11 -10 16 0 6 5 7 10 4 6 -3 10 -11 10 -16z m7 -41 c-3 -8 -6 -5 -6 6 -1
11 2 17 5 13 3 -3 4 -12 1 -19z m103 -2 c0 -29 -12 -39 -34 -30 -21 8 -20 30
2 43 26 16 32 13 32 -13z m304 -11 c9 -14 23 -25 31 -25 21 0 18 -24 -5 -45
-20 -18 -21 -18 -35 1 -9 11 -12 30 -9 47 4 21 2 27 -11 27 -9 0 -13 5 -10 10
10 16 22 12 39 -15z m2526 15 c0 -5 -7 -10 -16 -10 -8 0 -12 5 -9 10 3 6 10
10 16 10 5 0 9 -4 9 -10z m-2103 -37 c117 -54 189 -206 156 -332 -59 -233
-319 -317 -497 -161 -64 57 -89 111 -94 206 -4 71 -1 89 20 135 74 161 254
227 415 152z m-613 -19 c22 -53 17 -62 -18 -39 -27 18 -30 26 -20 63 9 32 17
27 38 -24z m898 19 c15 -15 28 -31 28 -36 0 -12 -107 -128 -117 -127 -4 0 -8
21 -8 45 0 34 4 45 15 44 45 -4 60 2 66 27 5 18 0 32 -17 50 -32 34 -3 32 33
-3z m-789 -13 c16 -26 17 -35 6 -68 -6 -20 -14 -43 -16 -51 -2 -8 -7 -11 -11
-7 -8 9 -10 156 -2 156 3 0 14 -14 23 -30z m1229 14 c16 -10 -17 -22 -65 -23
-97 -2 -301 -169 -361 -296 -41 -86 -74 -192 -79 -256 -2 -25 -7 -51 -10 -56
-17 -27 -226 -45 -473 -41 -202 3 -224 5 -243 22 -12 11 -21 27 -21 36 0 30
-59 212 -88 270 -29 59 -69 115 -117 162 -28 28 -137 89 -180 101 -11 3 -46
13 -77 22 -76 22 -75 39 5 52 189 31 358 -35 468 -183 28 -38 39 -63 39 -88 0
-138 102 -279 228 -316 80 -24 136 -23 213 0 136 43 224 160 238 318 6 70 10
84 34 106 15 14 27 30 27 36 0 22 89 92 148 115 71 29 278 41 314 19z m-72
-83 c0 -11 5 -23 10 -26 13 -8 13 -35 0 -35 -10 0 -40 52 -40 70 0 5 7 10 15
10 8 0 15 -9 15 -19z m-60 -92 c0 -18 -34 -18 -51 0 -10 10 -24 21 -31 24 -10
4 -8 10 6 21 18 15 22 14 48 -11 15 -15 28 -30 28 -34z m-1352 -54 c55 -60
132 -170 132 -189 0 -16 -48 -61 -56 -53 -4 4 -9 34 -11 68 -5 72 -25 108 -64
116 -19 3 -26 10 -22 20 3 9 -7 25 -27 42 -20 16 -30 32 -26 39 12 20 22 14
74 -43z m1432 36 c5 -11 10 -27 10 -37 0 -13 -5 -12 -26 9 -14 14 -23 31 -19
37 10 16 23 12 35 -9z m-230 -29 c0 -13 -12 -22 -22 -16 -10 6 -1 24 13 24 5
0 9 -4 9 -8z m150 -21 c0 -10 9 -29 19 -42 18 -21 22 -23 42 -11 18 12 23 12
30 0 13 -20 11 -40 -7 -60 -16 -17 -18 -16 -55 21 -46 48 -61 75 -53 95 8 22
24 20 24 -3z m-2056 -62 c13 -26 14 -40 6 -70 -17 -60 -30 -46 -30 31 0 39 2
70 4 70 3 0 12 -14 20 -31z m2004 -1 c17 -11 32 -26 32 -33 0 -7 14 -27 30
-45 43 -46 39 -62 -22 -85 -29 -11 -57 -22 -63 -24 -5 -2 -2 5 8 17 15 16 16
25 8 41 -6 11 -11 29 -11 40 0 28 -16 34 -42 17 -13 -8 -37 -17 -53 -20 -17
-4 -57 -24 -90 -46 -32 -22 -60 -38 -62 -36 -3 3 35 113 49 141 29 55 46 64
117 58 39 -3 79 -14 99 -25z m632 12 c0 -13 -7 -20 -20 -20 -23 0 -26 10 -8
28 18 18 28 15 28 -8z m-1931 -94 c11 -11 21 -23 21 -28 0 -13 -27 -9 -40 7
-23 28 -110 13 -110 -19 0 -23 84 -66 129 -66 34 0 41 -3 41 -19 0 -26 -17
-35 -28 -16 -9 18 -7 17 -134 36 -87 13 -88 13 -88 41 0 16 -6 37 -12 48 -10
16 -10 23 4 37 17 16 19 16 40 -3 31 -28 84 -19 81 14 -2 16 3 22 17 22 10 0
22 5 26 11 4 7 12 0 19 -17 7 -16 22 -38 34 -48z m1511 -69 c0 -18 7 -43 16
-56 l16 -23 30 29 c26 25 36 28 95 28 39 0 68 -4 70 -11 2 -6 -26 -26 -61 -44
-45 -23 -69 -42 -77 -62 -18 -43 -7 -54 61 -61 72 -8 132 -38 205 -103 49 -44
49 -44 56 -122 4 -42 4 -80 0 -84 -3 -4 -21 11 -40 33 -18 22 -30 43 -27 47 4
3 11 0 15 -7 11 -18 31 -5 31 20 0 26 -43 69 -70 69 -11 0 -28 4 -38 10 -9 5
-37 14 -62 19 -25 5 -54 12 -65 15 -35 11 -49 -7 -36 -46 9 -28 23 -40 66 -62
29 -14 57 -30 60 -36 3 -5 23 -17 43 -26 37 -17 63 -42 84 -79 7 -13 -1 -9
-23 11 -41 38 -96 57 -162 55 -56 -1 -117 -32 -117 -60 0 -9 -6 -23 -12 -30
-11 -11 -9 -12 12 -6 90 27 152 13 191 -43 35 -49 46 -84 25 -76 -24 9 -19 -7
11 -38 l27 -28 -25 0 c-14 0 -31 -6 -38 -12 -11 -11 -12 -6 -6 28 7 44 -11 72
-39 61 -8 -3 -16 2 -19 14 -4 14 -14 19 -42 19 -29 0 -36 3 -33 18 5 27 46 26
88 -2 22 -14 42 -22 45 -17 8 14 -46 49 -98 63 -44 11 -48 11 -72 -12 -14 -13
-25 -34 -25 -47 0 -24 -15 -32 -23 -10 -3 9 -7 9 -20 -2 -14 -11 -18 -11 -23
3 -8 20 -18 20 -38 0 -20 -19 -36 -11 -29 15 8 31 -76 111 -115 111 -46 0
-143 -27 -164 -46 -17 -16 -18 -16 -18 4 0 53 136 152 207 152 39 0 46 10 33
45 -19 51 -124 77 -210 51 -29 -9 -58 -16 -64 -16 -18 0 67 80 111 105 56 31
164 66 194 63 65 -8 8 92 -62 106 -18 3 -29 11 -27 18 10 28 103 32 135 6 20
-16 36 2 29 33 -6 33 2 62 15 53 5 -3 9 -20 9 -37z m-2112 20 c8 -10 6 -16 -9
-25 -12 -8 -19 -21 -17 -34 2 -12 -3 -23 -9 -25 -8 -3 -13 4 -13 19 0 26 21
78 31 78 4 0 11 -6 17 -13z m349 -69 c6 -79 32 -98 54 -41 7 20 14 24 32 19
12 -3 31 -6 42 -6 11 -1 1 -8 -25 -18 -48 -19 -93 -72 -88 -106 3 -17 12 -20
88 -21 75 -1 92 -5 148 -34 34 -18 62 -36 62 -40 0 -8 -83 1 -169 18 -59 12
-71 9 -71 -19 0 -26 35 -47 90 -56 68 -10 170 -66 170 -93 0 -4 -33 3 -72 17
-60 20 -85 23 -140 18 l-67 -6 -6 47 c-14 106 -23 122 -73 138 -24 7 -54 -12
-73 -47 -45 -84 -17 -306 45 -357 9 -8 16 -20 16 -28 0 -23 34 -11 47 17 7 14
18 61 25 105 l14 80 69 0 c93 0 173 -39 227 -110 20 -27 35 -51 33 -53 -2 -2
-24 12 -48 32 -34 27 -58 38 -95 43 -88 10 -165 -33 -140 -80 6 -12 7 -22 0
-26 -28 -18 -62 -160 -54 -226 2 -11 0 -31 -3 -43 -5 -20 -8 -22 -21 -11 -20
17 -28 5 -26 -37 2 -25 -3 -40 -15 -49 -14 -11 -15 -16 -6 -26 10 -10 14 -9
19 4 3 9 13 17 21 17 12 0 14 -15 11 -87 -4 -77 -7 -87 -26 -94 -12 -5 -22
-17 -22 -27 0 -21 -43 -66 -53 -55 -18 17 -6 49 23 60 39 15 60 58 38 80 -15
14 -18 13 -33 -11 -10 -14 -21 -26 -26 -26 -10 0 -11 164 -2 188 4 10 9 10 20
1 10 -9 17 -9 25 -1 16 16 1 45 -21 39 -21 -5 -31 16 -31 67 0 20 4 27 14 23
19 -7 40 18 32 38 -3 9 -14 15 -23 13 -11 -2 -19 5 -21 17 -3 16 -1 18 9 8 21
-21 39 -15 39 11 0 32 -20 44 -35 22 -11 -15 -13 -14 -19 9 -8 33 -30 27 -34
-8 -4 -36 -18 -34 -37 4 -16 31 -14 44 8 44 18 0 21 60 4 73 -8 7 -47 14 -87
17 l-73 5 -55 -55 c-55 -54 -63 -60 -74 -49 -11 10 41 101 71 127 35 29 133
61 161 52 10 -3 25 1 35 11 16 16 15 18 -12 40 -15 13 -35 24 -43 25 -43 5
-122 -2 -140 -11 -11 -6 -20 -8 -20 -6 0 12 89 55 127 61 42 7 69 27 59 43 -3
5 -26 15 -51 22 -41 12 -51 10 -119 -14 -41 -14 -76 -26 -78 -26 -2 0 -2 19 0
43 5 51 42 104 87 123 62 25 161 36 198 20 44 -18 67 -5 67 37 -1 40 -46 97
-89 112 -17 5 -31 15 -30 20 0 19 64 4 89 -20 15 -14 32 -25 40 -25 25 0 50
32 50 65 0 72 31 49 37 -27z m-242 43 c3 -5 1 -13 -5 -16 -15 -9 -43 3 -35 15
8 13 32 13 40 1z m155 -1 c0 -5 -4 -10 -10 -10 -5 0 -10 5 -10 10 0 6 5 10 10
10 6 0 10 -4 10 -10z m-358 -17 c24 -22 24 -63 -1 -63 -18 0 -31 25 -31 63 0
21 8 22 32 0z m1872 11 c9 -3 16 -15 16 -25 0 -23 -8 -24 -32 -2 -30 27 -21
41 16 27z m-59 -44 c13 -14 15 -24 8 -31 -13 -13 -59 23 -49 39 10 17 20 15
41 -8z m-921 -85 c14 -52 26 -99 26 -105 0 -8 -58 -3 -69 6 -3 2 6 15 18 28
22 23 22 25 6 49 -22 34 -41 40 -75 22 -40 -21 -52 -19 -48 8 2 16 11 23 30
25 16 2 37 16 50 32 13 16 26 29 29 29 4 1 18 -42 33 -94z m1021 30 c-31 -41
-45 -44 -45 -11 0 16 11 31 33 45 41 26 47 10 12 -34z m-1735 30 c0 -2 -13
-17 -29 -34 -30 -32 -45 -38 -56 -21 -8 13 56 69 72 63 7 -3 13 -6 13 -8z
m2252 -7 c-7 -7 -12 -21 -13 -32 0 -19 -1 -18 -10 4 -8 19 -6 27 7 37 21 15
33 8 16 -9z m83 12 c-3 -5 -10 -10 -16 -10 -5 0 -9 5 -9 10 0 6 7 10 16 10 8
0 12 -4 9 -10z m-465 -26 c22 -15 40 -30 40 -35 0 -8 -101 -42 -107 -35 -2 2
1 15 7 30 5 15 8 32 4 37 -5 9 3 29 12 29 2 0 22 -12 44 -26z m570 -4 c0 -9
-31 -30 -44 -30 -12 0 -6 28 7 33 20 9 37 8 37 -3z m-2339 -22 c26 -32 24 -38
-17 -38 -29 0 -35 3 -30 16 3 9 6 22 6 30 0 21 19 17 41 -8z m1494 1 c0 -7 -8
-15 -17 -17 -18 -3 -25 18 -11 32 10 10 28 1 28 -15z m-1137 -10 c9 -14 10
-25 4 -31 -15 -15 -32 0 -32 28 0 30 11 31 28 3z m-88 -6 c0 -5 -4 -15 -10
-23 -11 -18 -25 -7 -17 15 6 15 27 21 27 8z m-472 -25 c20 -20 14 -28 -20 -27
-18 1 -43 -2 -55 -6 -33 -11 -29 11 5 29 33 19 54 20 70 4z m1650 0 c7 -7 12
-19 12 -27 0 -11 -4 -10 -20 4 -21 19 -26 35 -12 35 4 0 13 -5 20 -12z m107
-13 c0 -22 -14 -28 -34 -16 -12 8 -13 12 -1 26 16 20 35 14 35 -10z m-1122
-10 c4 -8 25 -24 49 -36 49 -25 58 -35 58 -67 0 -21 -3 -20 -32 13 -17 20 -48
45 -70 56 -37 19 -45 29 -31 42 10 11 20 8 26 -8z m1209 -7 c-7 -7 -12 -8 -12
-2 0 14 12 26 19 19 2 -3 -1 -11 -7 -17z m598 12 c12 -8 12 -10 -4 -16 -11 -4
-24 0 -34 10 -15 15 -15 16 3 16 11 0 27 -4 35 -10z m97 -71 c1 -19 -1 -25 -4
-14 -3 11 -9 24 -14 30 -13 13 -11 27 4 23 6 -3 13 -20 14 -39z m-957 -11 c6
-24 27 -88 46 -142 19 -55 33 -101 31 -103 -2 -1 -14 20 -27 47 -13 28 -29 50
-36 50 -7 0 -16 17 -20 38 -4 20 -15 59 -26 85 -19 50 -17 67 7 67 8 0 19 -18
25 -42z m-597 17 c31 -5 37 -9 32 -23 -29 -71 -70 -214 -86 -302 -11 -58 -24
-107 -30 -109 -6 -2 -25 -16 -42 -31 -30 -27 -31 -29 -17 -55 14 -26 13 -28
-15 -51 -16 -13 -31 -22 -32 -20 -2 2 4 19 12 39 19 45 19 47 0 47 -9 0 -20
-10 -25 -22 -9 -24 -51 -117 -58 -130 -8 -16 21 -7 35 10 13 15 14 13 8 -23
-4 -22 -8 -50 -10 -62 -1 -12 -16 -38 -34 -58 -18 -21 -31 -47 -31 -63 0 -33
-40 -121 -66 -144 -10 -9 -39 -26 -64 -37 -65 -29 -87 -52 -110 -113 -20 -54
-110 -173 -110 -145 0 43 85 266 124 326 57 87 146 191 163 191 17 0 124 222
142 295 28 111 81 350 81 366 0 9 7 22 15 29 8 7 15 29 15 50 0 45 5 50 39 45
14 -2 43 -7 64 -10z m540 -95 c14 -47 31 -103 36 -125 22 -92 43 -161 51 -169
6 -5 15 -4 23 2 12 10 17 2 32 -45 10 -32 29 -82 42 -111 28 -64 28 -64 1 -60
-20 3 -23 10 -26 51 -3 43 -6 49 -41 67 -32 16 -39 25 -45 60 -3 22 -10 49
-15 58 -5 9 -13 40 -19 67 -5 28 -18 75 -27 105 -9 30 -21 75 -27 100 -5 25
-14 49 -19 55 -5 5 -9 18 -9 29 0 35 16 4 43 -84z m227 92 c0 -14 -23 -32 -42
-32 -23 0 -23 16 0 29 21 13 42 14 42 3z m-415 -16 c11 -2 22 -4 24 -5 2 0
-14 -18 -37 -39 l-42 -39 6 -69 c7 -85 21 -126 43 -122 13 3 15 13 13 51 l-4
47 31 -6 c24 -5 39 -1 65 20 42 32 49 21 40 -67 -13 -133 -43 -208 -108 -273
-50 -49 -88 -61 -123 -39 -14 9 -27 14 -30 11 -6 -5 -75 43 -81 57 -2 4 -19
25 -38 48 -18 22 -38 59 -44 82 -6 23 -16 53 -22 67 -10 22 -12 129 -2 139 2
2 19 -8 38 -23 19 -14 43 -26 54 -26 34 0 72 61 52 85 -8 9 -8 15 0 20 19 12
10 33 -20 45 -52 22 -36 35 55 44 38 3 87 1 130 -8z m-975 -105 c5 -30 10 -73
10 -97 0 -54 -19 -144 -30 -144 -9 0 -28 52 -29 80 0 8 -5 44 -10 80 -9 59 -7
121 5 159 9 28 43 -22 54 -78z m741 49 c6 0 8 -4 5 -9 -7 -10 -66 -21 -66 -11
0 13 25 30 38 25 8 -3 18 -5 23 -5z m333 1 c5 -8 -74 -22 -83 -15 -6 5 41 23
61 23 9 1 19 -3 22 -8z m236 -32 c0 -5 -4 -9 -10 -9 -5 0 -10 7 -10 16 0 8 5
12 10 9 6 -3 10 -10 10 -16z m-945 -12 c29 -22 2 -28 -31 -6 -25 16 -26 19 -8
19 11 0 28 -6 39 -13z m1190 -1 l30 -14 -40 -16 c-22 -10 -59 -26 -82 -37 -54
-24 -104 -24 -134 -1 -33 28 -19 49 38 58 26 3 55 10 63 15 23 13 91 10 125
-5z m471 -8 c3 -5 4 -11 1 -14 -6 -6 -57 17 -57 26 0 10 49 0 56 -12z m-1231
-18 c3 -5 -1 -10 -10 -10 -9 0 -13 5 -10 10 3 6 8 10 10 10 2 0 7 -4 10 -10z
m-1185 -50 c-28 -27 -54 -50 -56 -50 -3 0 -4 15 -2 32 3 28 9 35 48 50 66 25
66 23 10 -32z m60 -81 c-19 -11 -52 -39 -72 -62 -37 -42 -37 -42 -38 -15 0 22
11 36 48 63 26 19 58 35 72 35 23 0 23 -1 -10 -21z m740 -14 c0 -30 -15 -33
-30 -6 -14 27 -13 31 10 31 15 0 20 -7 20 -25z m1590 9 c0 -2 -7 -4 -15 -4 -8
0 -15 4 -15 10 0 5 7 7 15 4 8 -4 15 -8 15 -10z m-609 -137 c18 -5 20 -9 10
-21 -10 -12 -6 -29 22 -93 18 -43 50 -104 71 -135 30 -48 42 -58 64 -58 20 0
40 -13 73 -47 82 -86 101 -114 94 -140 -4 -18 2 -31 28 -56 54 -51 80 -102 82
-163 1 -45 -1 -54 -14 -52 -10 2 -21 24 -30 61 -12 51 -19 63 -55 87 -76 53
-96 71 -96 88 0 11 9 6 28 -17 25 -30 29 -32 41 -17 12 14 10 22 -13 54 -14
21 -26 43 -26 49 0 17 -50 73 -65 73 -25 0 -27 -21 -4 -46 l23 -24 -32 16
c-18 8 -32 20 -32 26 0 20 -55 98 -73 104 -31 10 -31 -3 2 -55 16 -28 27 -52
23 -55 -4 -2 -29 15 -55 39 -48 45 -65 95 -32 95 22 0 19 32 -10 100 -14 33
-25 64 -25 70 0 6 -9 29 -19 53 -23 50 -71 190 -70 203 0 5 16 -23 34 -62 23
-50 40 -73 56 -77z m708 51 c-7 -14 -3 -21 20 -33 21 -10 28 -20 24 -31 -13
-34 -83 65 -83 118 0 22 1 22 24 -7 18 -22 22 -35 15 -47z m-529 18 c0 -7 -9
-21 -21 -32 -20 -18 -20 -18 -13 11 4 17 9 33 11 38 6 11 23 -2 23 -17z
m-1301 -37 c-5 -11 -7 -28 -4 -38 6 -21 -13 -71 -28 -71 -5 0 -6 12 -3 28 4
15 7 35 7 45 0 30 18 69 29 62 7 -4 7 -13 -1 -26z m1181 11 c-11 -21 -22 -25
-33 -13 -9 9 12 33 30 33 11 0 11 -4 3 -20z m-1075 -49 c3 -5 0 -13 -5 -16
-13 -8 -52 24 -44 36 6 10 39 -5 49 -20z m-591 -7 c11 -28 7 -35 -15 -24 -27
15 -49 6 -49 -20 0 -25 -8 -25 -40 0 l-25 20 24 20 c29 25 96 27 105 4z m1896
12 c0 -3 -4 -8 -10 -11 -5 -3 -10 -1 -10 4 0 6 5 11 10 11 6 0 10 -2 10 -4z
m124 -37 c17 14 29 0 20 -22 -8 -21 -34 -30 -49 -17 -7 6 -23 9 -36 8 -16 -2
-24 3 -27 15 -3 15 0 18 16 13 11 -4 23 -2 27 4 5 8 11 8 21 -1 11 -9 17 -9
28 0z m-134 -27 c0 -19 -18 -42 -32 -42 -12 0 -9 35 4 48 17 17 28 15 28 -6z
m210 -11 c0 -6 -4 -13 -10 -16 -5 -3 -10 1 -10 9 0 9 5 16 10 16 6 0 10 -4 10
-9z m-2239 -40 c10 -16 14 -40 12 -55 -6 -29 -23 -36 -23 -8 0 9 -7 30 -15 46
-25 48 -1 64 26 17z m489 5 c0 -8 -9 -24 -20 -37 l-19 -24 -1 31 c0 17 3 34 7
37 11 12 33 7 33 -7z m1368 -8 c-5 -15 -23 -11 -26 6 -2 11 2 14 13 10 9 -4
14 -11 13 -16z m115 -8 c-5 -20 -21 -36 -27 -29 -2 2 0 14 5 27 10 27 29 29
22 2z m-1793 -26 c0 -24 -14 -32 -25 -14 -9 14 4 52 16 45 5 -4 9 -17 9 -31z
m1977 21 c29 -14 30 -16 22 -62 -4 -27 -8 -67 -8 -89 -1 -34 -5 -43 -23 -47
-12 -3 -26 -3 -32 1 -6 4 -15 7 -21 7 -15 0 -18 44 -5 60 8 9 8 20 2 32 -19
36 -18 81 3 97 25 19 26 19 62 1z m93 -11 c0 -8 -4 -14 -10 -14 -5 0 -10 9
-10 21 0 11 5 17 10 14 6 -3 10 -13 10 -21z m290 16 c0 -5 -9 -10 -20 -10 -11
0 -20 5 -20 10 0 6 9 10 20 10 11 0 20 -4 20 -10z m-1872 -32 c3 -17 -44 -78
-60 -78 -5 0 0 12 11 26 12 15 21 38 21 51 0 27 23 27 28 1z m1742 -10 c0 -5
-7 -8 -15 -8 -17 0 -18 2 -9 25 5 13 8 14 15 3 5 -7 9 -16 9 -20z m-1179 -10
c50 -17 60 -17 97 -5 23 8 46 11 55 6 8 -5 21 -38 28 -74 14 -73 35 -85 65
-40 9 14 23 25 31 25 13 0 15 -9 10 -45 -6 -58 -27 -81 -107 -118 -79 -36
-137 -39 -202 -8 -27 12 -59 26 -73 31 -29 11 -65 77 -49 88 6 4 11 22 12 41
0 18 7 40 15 50 8 9 18 31 22 49 5 26 11 32 23 27 10 -4 42 -16 73 -27z m289
22 c13 -8 13 -10 -2 -10 -9 0 -20 5 -23 10 -8 13 5 13 25 0z m-630 -5 c0 -18
-42 -85 -50 -80 -18 11 -10 52 13 68 23 17 37 21 37 12z m740 -5 c0 -5 -2 -10
-4 -10 -3 0 -8 5 -11 10 -3 6 -1 10 4 10 6 0 11 -4 11 -10z m-694 -26 c-4 -9
-9 -15 -11 -12 -3 3 -3 13 1 22 4 9 9 15 11 12 3 -3 3 -13 -1 -22z m94 -2
c-52 -34 -128 -124 -145 -170 -31 -87 -38 -103 -41 -99 -8 7 35 127 60 170 39
65 94 117 125 116 l26 0 -25 -17z m878 -10 c4 -27 -14 -29 -28 -3 -14 27 -13
33 8 29 9 -2 18 -13 20 -26z m132 18 c0 -13 -38 -32 -50 -25 -15 10 -12 23 8
28 30 8 42 7 42 -3z m-1930 -18 c0 -10 -22 -32 -32 -32 -5 0 -3 9 4 20 13 20
28 27 28 12z m84 -1 c4 -5 2 -19 -2 -31 -7 -19 -9 -20 -21 -6 -7 9 -11 23 -7
31 6 17 22 20 30 6z m2274 0 c9 -5 29 -14 45 -20 28 -11 38 -41 12 -41 -8 0
-32 16 -52 35 -37 35 -39 43 -5 26z m-1925 -37 c-6 -90 -11 -118 -22 -122 -9
-3 -11 7 -6 41 4 24 7 61 8 81 1 21 6 35 11 33 6 -2 10 -17 9 -33z m1689 -6
c-6 -6 -14 -9 -17 -6 -3 3 -3 13 1 22 5 12 10 14 17 7 8 -8 8 -14 -1 -23z
m-2297 3 c3 -5 1 -12 -5 -16 -5 -3 -10 1 -10 9 0 18 6 21 15 7z m545 2 c-1
-12 -40 -59 -40 -48 0 26 14 55 26 55 8 0 14 -3 14 -7z m1239 -7 c8 -9 9 -25
4 -46 l-8 -32 -22 40 c-12 22 -19 43 -15 46 10 10 29 6 41 -8z m-1690 -17 c16
-12 34 -19 39 -15 5 3 15 0 21 -8 12 -15 5 -23 -36 -45 -20 -10 -24 -8 -43 31
-31 64 -27 71 19 37z m1601 -9 c6 -11 8 -20 6 -20 -3 0 -10 9 -16 20 -6 11 -8
20 -6 20 3 0 10 -9 16 -20z m-1443 -12 c-3 -8 -6 -5 -6 6 -1 11 2 17 5 13 3
-3 4 -12 1 -19z m810 0 c-3 -8 -6 -5 -6 6 -1 11 2 17 5 13 3 -3 4 -12 1 -19z
m1283 13 c0 -12 -39 -25 -48 -16 -7 7 17 25 36 25 6 0 12 -4 12 -9z m-236 -70
c-8 -8 -34 22 -34 39 0 32 25 29 32 -4 3 -17 5 -33 2 -35z m-1193 32 c-21 -36
-73 -200 -87 -273 -8 -41 -19 -88 -23 -105 -5 -16 -12 -52 -16 -80 -3 -27 -18
-99 -32 -160 -56 -245 -73 -340 -73 -404 -1 -36 -5 -86 -11 -111 -14 -67 -22
-336 -10 -358 6 -10 6 -23 2 -28 -17 -19 22 -476 51 -589 33 -134 78 -259 104
-286 13 -14 24 -28 24 -31 0 -4 -16 -12 -35 -18 -72 -24 -228 42 -288 122 -45
59 -97 169 -97 203 0 50 -39 268 -50 279 -7 7 -14 6 -21 -1 -8 -8 -8 -24 0
-60 6 -26 16 -99 21 -161 12 -134 34 -194 98 -274 49 -61 146 -132 203 -149
67 -19 142 -15 195 11 49 25 50 25 114 9 110 -27 153 -59 222 -169 40 -64 63
-86 73 -70 33 54 -171 278 -268 293 -21 3 -58 15 -81 27 -38 18 -42 23 -38 50
4 27 8 30 41 29 56 -2 98 -13 84 -22 -25 -16 -12 -24 58 -36 111 -18 271 -106
358 -196 57 -59 71 -81 90 -140 13 -38 34 -88 47 -110 13 -23 24 -47 24 -54 0
-7 9 -25 20 -40 10 -16 42 -73 71 -127 58 -112 63 -119 78 -109 8 4 -9 46 -50
123 -105 199 -155 305 -169 357 -11 40 -29 66 -91 130 -67 70 -92 87 -191 138
-63 31 -126 57 -140 57 -37 0 -58 10 -58 27 0 27 -69 46 -145 40 -60 -5 -67
-4 -52 7 10 8 35 14 57 14 22 0 45 4 51 8 21 13 -7 23 -78 30 -40 4 -70 11
-67 15 3 5 39 9 80 9 61 0 83 -5 117 -24 52 -29 127 -53 187 -60 25 -2 53 -7
62 -11 28 -11 58 12 58 45 0 25 4 30 25 30 13 0 46 8 72 19 27 10 89 21 141
25 52 3 108 13 126 21 39 19 116 7 149 -23 12 -10 29 -19 37 -19 31 1 70 -37
100 -96 16 -33 30 -69 30 -80 0 -10 10 -51 22 -90 19 -66 31 -86 50 -87 10 0
0 80 -17 145 -24 91 -26 115 -10 109 38 -15 91 -206 106 -383 5 -64 15 -159
23 -211 8 -52 17 -117 21 -145 3 -27 15 -106 26 -175 10 -69 24 -156 31 -195
24 -153 73 -305 98 -305 5 0 22 -19 36 -42 15 -24 46 -63 69 -88 35 -38 43
-55 49 -100 4 -30 14 -63 23 -72 16 -18 13 -51 -9 -81 -18 -25 -99 -9 -137 27
-57 54 -106 256 -131 527 -11 127 -24 179 -46 179 -16 0 -18 -28 -4 -64 5 -14
14 -80 20 -148 10 -123 25 -213 60 -363 24 -102 42 -144 75 -178 27 -26 34
-29 88 -41 34 -8 34 -14 -2 -56 l-29 -35 -30 28 c-25 24 -35 27 -66 22 -87
-17 -147 89 -171 300 -6 53 -19 140 -35 245 -5 36 -12 97 -15 135 -5 68 -20
185 -50 388 -8 54 -26 130 -41 170 -27 76 -32 95 -59 222 -21 97 -97 250 -162
324 -45 52 -162 119 -183 106 -22 -14 -7 -31 46 -55 64 -28 122 -88 161 -165
14 -27 36 -65 49 -85 24 -37 60 -156 74 -246 4 -28 12 -60 18 -70 17 -33 51
-186 62 -288 7 -55 16 -110 21 -123 5 -13 13 -83 19 -155 6 -73 15 -149 20
-168 5 -20 14 -83 19 -140 15 -172 46 -304 87 -367 19 -30 40 -53 47 -50 7 2
17 -2 22 -9 6 -7 30 -15 54 -18 25 -3 52 -12 60 -21 15 -15 13 -19 -19 -45
-19 -16 -42 -30 -50 -30 -8 -1 -31 -7 -51 -14 -49 -17 -72 -5 -59 30 17 44 11
65 -28 103 -22 20 -61 73 -87 119 -46 79 -49 82 -67 66 -27 -26 -23 -40 32
-98 28 -29 50 -56 50 -59 0 -15 -25 -6 -50 18 -23 22 -29 23 -44 12 -17 -12
-15 -15 18 -41 20 -15 36 -35 36 -46 0 -26 -47 -61 -74 -54 -14 3 -28 -2 -40
-15 -16 -17 -19 -36 -18 -101 1 -44 0 -80 -2 -80 -3 0 -17 5 -31 10 -15 6 -33
6 -41 2 -14 -8 -14 -10 0 -21 8 -7 27 -16 43 -20 22 -6 30 -16 40 -50 17 -58
32 -76 49 -59 9 10 10 25 1 65 -6 29 -8 56 -4 60 12 11 65 -59 71 -93 9 -47
41 -81 107 -114 74 -38 152 -42 170 -9 13 26 44 23 143 -15 77 -30 144 -39
164 -24 18 16 15 53 -8 73 -11 10 -20 30 -20 45 0 30 -16 50 -42 50 -25 0 -23
22 5 48 21 20 25 20 45 6 12 -8 30 -14 39 -12 14 2 18 -4 18 -27 0 -16 4 -36
8 -43 12 -19 47 4 47 31 0 48 -13 68 -51 84 -22 8 -39 18 -39 22 0 4 15 22 33
39 l34 33 50 -26 c28 -14 58 -22 67 -19 27 10 73 -15 87 -48 17 -42 64 -68
122 -68 26 0 47 5 47 10 0 6 -6 10 -12 10 -7 0 -35 11 -63 25 -37 19 -54 35
-66 63 -12 29 -29 45 -76 70 -34 17 -70 32 -81 32 -29 0 -37 17 -21 46 14 28
53 32 86 9 11 -8 33 -35 47 -60 15 -24 35 -49 45 -55 11 -5 58 -13 106 -16 89
-7 142 -31 131 -59 -2 -7 11 -28 30 -46 23 -22 31 -36 24 -43 -16 -16 -12 -36
8 -36 10 0 27 -6 38 -14 16 -13 17 -18 7 -35 -18 -30 0 -35 44 -11 52 28 63
26 107 -19 30 -31 39 -49 44 -86 6 -56 21 -64 70 -40 36 17 37 17 52 -5 8 -13
27 -34 43 -49 36 -34 34 -41 -9 -41 -24 0 -46 8 -66 25 -32 27 -58 31 -89 14
-16 -8 -26 -7 -44 5 -14 9 -44 16 -69 16 -51 0 -65 13 -42 39 9 10 16 23 16
30 0 15 -60 71 -77 71 -20 0 -25 -18 -11 -40 11 -17 11 -22 -2 -30 -20 -13
-47 -12 -71 0 -17 10 -18 13 -4 33 11 18 12 27 2 47 -19 38 -98 81 -164 90
-92 13 -116 24 -148 67 -27 36 -128 103 -155 103 -5 0 -10 -9 -10 -20 0 -14
15 -30 47 -48 25 -15 67 -48 92 -73 56 -56 114 -81 173 -73 37 5 49 2 86 -26
55 -40 54 -66 -3 -64 -29 1 -43 8 -57 27 -12 17 -25 23 -38 20 -22 -6 -26 -18
-10 -28 22 -13 8 -25 -29 -25 -35 0 -39 3 -44 29 -5 21 -18 37 -47 53 -22 13
-40 29 -40 36 0 7 -14 12 -39 12 -72 0 -55 -46 24 -65 32 -7 55 -22 55 -36 0
-5 -31 -9 -69 -9 -76 0 -93 -11 -66 -40 16 -18 16 -20 1 -26 -9 -3 -16 -12
-16 -20 0 -8 -4 -14 -10 -14 -5 0 -10 6 -10 14 0 10 -26 15 -107 19 -98 5
-138 -1 -120 -19 3 -3 26 -9 51 -11 26 -3 43 -10 40 -15 -4 -6 -42 -7 -98 -3
-121 9 -127 11 -120 40 7 28 -18 45 -68 45 -18 0 -64 12 -103 25 -38 14 -78
25 -88 25 -26 0 -79 29 -99 53 -14 18 -19 19 -32 8 -9 -7 -16 -21 -16 -30 0
-14 -7 -17 -29 -13 -40 6 -52 37 -42 104 10 57 7 68 -14 68 -20 0 -24 -10 -34
-81 -8 -59 -7 -66 17 -96 13 -18 33 -33 44 -33 25 0 58 -18 78 -43 19 -23 40
-15 40 15 0 15 4 18 18 13 9 -4 36 -11 60 -16 73 -14 79 -23 37 -47 -31 -19
-41 -21 -78 -11 -23 6 -71 17 -107 23 -82 17 -148 51 -156 81 -10 39 2 136 23
195 29 79 11 98 -60 60 -75 -41 -79 -16 -4 34 57 39 97 90 97 125 0 12 -8 36
-17 54 -9 18 -19 46 -23 62 -3 17 -12 30 -20 30 -24 0 -23 -51 1 -110 21 -51
21 -55 6 -79 -16 -24 -110 -92 -149 -108 -20 -8 -88 17 -88 33 0 6 12 25 26
42 17 20 24 37 19 51 -3 12 -8 45 -12 74 -6 55 -12 62 -33 37 -12 -14 -11 -32
5 -97 5 -19 1 -35 -16 -57 -43 -58 -74 -35 -137 100 -22 48 -55 106 -74 130
-18 24 -42 63 -52 87 -20 44 -33 52 -42 27 -4 -9 15 -48 43 -93 95 -148 137
-257 70 -180 -47 53 -101 128 -122 168 -10 19 -22 42 -27 50 -5 8 -20 40 -35
70 -14 30 -36 69 -48 85 -19 27 -60 102 -131 245 -39 78 -72 153 -93 210 -69
189 -134 328 -162 345 -25 16 -18 -31 13 -83 19 -32 39 -71 45 -87 69 -188
125 -320 183 -433 38 -75 67 -138 65 -140 -3 -3 -12 1 -21 9 -14 12 -19 10
-35 -10 -23 -28 -24 -52 -3 -144 20 -85 56 -184 91 -249 25 -46 25 -47 8 -92
-17 -45 -17 -47 5 -106 25 -67 18 -90 -27 -90 -13 0 -22 -4 -19 -8 6 -11 67
-3 84 10 17 14 15 39 -8 108 -13 40 -17 66 -11 82 8 21 9 20 36 -22 24 -38 27
-50 22 -98 -6 -60 12 -112 38 -112 12 0 12 5 1 30 -13 31 -10 90 4 90 8 0 80
-69 80 -76 0 -3 -24 -28 -52 -58 l-53 -53 -106 5 c-154 6 -168 -4 -194 -131
-5 -25 -9 -27 -53 -27 -26 0 -96 11 -155 24 -78 18 -125 23 -173 20 -59 -5
-69 -3 -100 21 -27 20 -34 33 -34 59 0 19 -6 38 -12 43 -20 15 -97 37 -104 30
-13 -13 6 -37 29 -37 32 0 47 -18 41 -49 -2 -14 -1 -31 3 -36 17 -21 100 -69
133 -77 26 -5 20 -6 -26 -4 -44 3 -71 10 -92 26 -36 27 -63 23 -80 -12 -13
-29 -52 -45 -116 -50 -50 -4 -58 16 -12 32 56 18 86 53 86 100 0 43 -26 80
-58 80 -17 0 -124 -82 -130 -100 -2 -6 4 -13 12 -16 11 -4 32 8 62 36 37 34
48 39 60 30 32 -27 9 -100 -32 -100 -13 0 -52 -14 -85 -30 -52 -27 -66 -30
-110 -24 -50 7 -51 8 -74 60 -29 66 -47 69 -104 14 -24 -24 -51 -40 -65 -40
-13 0 -36 -10 -51 -22 l-28 -22 7 27 c15 62 24 74 60 81 37 7 38 8 60 109 4
18 16 32 34 38 15 6 35 15 44 20 10 5 29 9 42 9 14 0 27 4 31 10 3 5 13 6 21
3 10 -4 37 16 81 61 52 54 63 70 53 81 -9 11 -9 23 0 52 29 90 90 163 134 163
33 0 41 13 76 123 17 56 43 136 57 177 37 109 38 120 19 120 -22 0 -47 -60
-87 -203 -38 -138 -47 -163 -65 -178 -23 -19 -28 -4 -27 74 1 80 -13 119 -58
155 l-28 23 3 192 c2 106 9 300 15 432 6 132 12 311 14 398 l3 159 129 1 130
2 2 -93 c1 -51 6 -124 12 -161 24 -151 24 -260 1 -446 -35 -277 -35 -288 -14
-283 15 3 23 25 41 123 12 66 22 147 23 181 0 87 13 88 26 2 10 -60 9 -86 -3
-148 -9 -41 -18 -94 -20 -118 -3 -24 -16 -63 -29 -88 -34 -63 -47 -126 -45
-214 2 -70 0 -79 -30 -119 -42 -58 -59 -102 -59 -150 0 -36 -7 -47 -53 -94
-54 -53 -85 -111 -66 -122 17 -11 10 -20 -51 -65 -32 -25 -64 -57 -71 -72 -6
-16 -16 -28 -21 -28 -19 0 -108 -98 -108 -119 0 -31 37 -66 55 -51 11 9 12 17
4 32 -13 25 10 61 62 96 19 13 39 37 44 53 13 37 89 99 121 99 29 0 31 -21 4
-45 -21 -19 -18 -35 6 -35 25 0 54 38 54 73 0 39 -15 57 -48 57 -18 0 -23 4
-18 16 3 9 6 20 6 24 0 5 27 38 60 74 56 59 62 70 71 128 6 40 20 77 37 101
50 70 53 79 48 141 -6 63 13 165 40 219 10 17 28 90 41 162 21 111 23 139 14
190 -9 52 -9 255 1 324 5 39 -20 35 -38 -6 l-17 -38 -13 75 c-7 41 -16 131
-20 200 -6 124 -6 126 24 191 28 62 33 67 68 74 22 4 59 17 84 30 25 13 53 26
63 29 21 6 23 36 2 36 -8 0 -40 -12 -72 -26 -74 -34 -97 -36 -156 -19 -78 23
-117 52 -143 108 -30 65 -51 181 -36 199 10 13 -6 101 -25 130 -22 36 -9 534
18 658 5 25 11 73 13 107 3 34 13 94 24 135 28 108 39 160 58 293 14 97 24
132 52 185 19 36 40 70 47 75 7 6 24 33 38 60 14 28 37 61 51 74 14 13 33 45
41 72 22 66 49 97 96 109 21 6 55 24 74 41 36 32 85 123 85 160 0 12 15 37 34
55 19 19 36 46 38 61 2 19 10 29 28 33 31 8 34 6 21 -17z m1662 12 c27 -7 27
-8 27 -84 0 -43 -3 -80 -6 -84 -4 -3 -16 1 -28 9 -28 17 -181 64 -212 64 -27
0 -43 -25 -42 -66 0 -16 -5 -42 -11 -57 -6 -16 -11 -39 -11 -53 0 -28 -15 -32
-25 -6 -13 31 -5 172 12 207 13 26 24 35 52 40 20 4 52 15 71 26 35 19 105 21
173 4z m-2573 -22 c0 -15 10 -37 22 -50 32 -35 9 -53 -26 -20 -26 24 -32 50
-20 81 10 25 24 19 24 -11z m296 -64 c-2 -39 -7 -73 -11 -77 -4 -4 -25 -16
-48 -27 -60 -29 -116 -120 -116 -191 -1 -41 5 -59 29 -92 37 -51 93 -71 124
-44 11 9 16 12 13 6 -4 -7 0 -17 8 -24 25 -20 12 -68 -25 -95 -33 -25 -33 -25
-48 -4 -13 19 -15 19 -33 3 -18 -16 -19 -16 -19 4 0 31 -19 37 -45 12 -26 -25
-38 -11 -23 29 13 35 4 49 -34 53 -25 2 -38 12 -60 44 -25 37 -27 49 -29 145
-2 120 9 150 80 230 45 51 99 79 176 89 28 4 53 8 57 9 4 0 6 -31 4 -70z m739
4 c31 -93 103 -161 215 -205 93 -37 91 -14 -3 33 -67 33 -120 78 -143 121 -21
41 -17 43 21 9 20 -17 48 -33 63 -37 15 -3 34 -8 42 -11 106 -39 270 -3 347
77 18 19 35 31 39 28 11 -12 -39 -109 -70 -136 -30 -26 -100 -65 -140 -77 -14
-4 -16 -9 -9 -16 15 -15 62 1 136 46 31 19 57 32 57 29 0 -31 -87 -121 -149
-153 -17 -9 -20 -16 -12 -24 23 -23 117 42 183 126 18 23 42 69 53 103 11 34
25 62 30 63 15 1 26 -51 15 -74 -5 -11 -20 -47 -33 -80 -25 -64 -85 -154 -127
-193 -14 -12 -51 -36 -84 -53 -67 -35 -76 -30 -69 35 6 50 -8 65 -68 73 -64 9
-78 -16 -79 -134 0 -51 -3 -93 -7 -93 -5 0 -48 5 -97 10 -77 9 -91 8 -106 -5
-17 -15 -20 -9 -54 100 -28 86 -36 130 -34 168 4 55 5 54 33 -33 33 -102 56
-147 88 -170 27 -21 32 -21 41 -8 8 14 13 13 43 -5 24 -14 37 -17 45 -9 7 7
-10 29 -57 74 -37 35 -73 64 -81 66 -10 3 -11 7 -2 21 14 23 3 55 -16 48 -8
-3 -19 0 -24 6 -11 14 -46 186 -39 193 3 3 23 -33 46 -79 41 -85 142 -217 166
-217 37 0 10 61 -60 137 -67 72 -164 303 -127 303 4 0 17 -26 27 -57z m1154
-4 c26 14 31 14 31 -3 0 -7 -10 -20 -22 -28 -22 -14 -24 -13 -47 21 -20 31
-21 33 -3 18 16 -15 25 -16 41 -8z m-1653 -3 c19 -15 19 -16 -5 -60 -13 -25
-28 -46 -32 -46 -10 0 -12 44 -3 89 7 35 12 37 40 17z m1397 -72 c34 -5 47
-11 43 -20 -3 -8 4 -19 15 -25 16 -8 20 -19 17 -52 -3 -42 -3 -42 42 -55 25
-8 55 -18 67 -24 20 -10 46 -58 57 -108 3 -14 28 -43 55 -65 46 -38 50 -46 75
-135 15 -52 31 -108 36 -125 13 -41 18 -80 41 -290 19 -180 34 -261 50 -271 5
-3 9 -40 9 -82 1 -42 5 -108 10 -147 20 -150 31 -395 20 -453 -6 -35 -10 -236
-10 -519 l0 -461 -69 34 c-38 19 -76 34 -85 34 -23 0 -20 -28 7 -64 13 -17 41
-60 62 -96 21 -36 54 -83 72 -106 32 -40 33 -43 33 -141 0 -113 15 -283 31
-358 13 -59 45 -138 72 -178 20 -29 17 -89 -4 -103 -15 -9 -18 -3 -36 67 -12
50 -26 75 -63 116 -42 46 -110 177 -110 212 0 6 -9 15 -19 21 -13 7 -23 29
-31 67 -6 32 -17 87 -25 123 -13 58 -35 198 -65 410 -6 41 -17 120 -25 175 -8
55 -15 125 -15 156 0 61 -29 206 -54 280 -16 45 -66 109 -85 109 -5 0 -11 -6
-14 -12 -2 -7 -14 4 -27 25 -16 27 -40 47 -82 68 -59 30 -60 31 -53 62 4 18 6
77 5 131 -1 75 -6 109 -20 136 -19 38 -82 100 -101 100 -6 0 -7 5 -4 10 10 15
58 12 84 -6 33 -24 50 -3 19 26 -16 15 -32 20 -55 18 -18 -2 -33 -2 -33 0 0 2
17 25 39 51 48 57 69 96 105 191 40 106 65 158 65 137 1 -31 -55 -181 -88
-234 -35 -57 -39 -113 -7 -113 14 0 17 -5 12 -24 -4 -16 -1 -26 9 -30 8 -3 20
-17 27 -31 12 -27 33 -33 41 -12 4 9 7 9 15 -1 5 -8 18 -12 28 -10 17 3 20 -7
27 -97 4 -55 5 -157 2 -227 -6 -131 2 -163 32 -123 16 22 18 300 3 435 -55
510 -60 549 -85 711 -56 361 -71 440 -104 550 -30 104 -39 147 -21 102 6 -14
18 -23 31 -23 19 0 20 4 14 41 -8 45 -39 139 -60 180 -8 14 -23 50 -34 79
l-20 54 42 -42 c34 -33 52 -43 90 -48z m287 -19 c0 -30 -15 -33 -30 -6 -14 27
-13 31 10 31 15 0 20 -7 20 -25z m-2855 -45 c27 -14 30 -20 33 -72 2 -43 -2
-67 -18 -99 l-22 -42 24 -21 c14 -12 37 -40 53 -64 26 -39 28 -51 29 -130 0
-97 -23 -168 -66 -196 -22 -15 -87 -28 -218 -46 -104 -14 -103 -15 -96 153 19
419 18 448 -4 469 -11 10 -20 27 -20 38 0 15 9 19 48 22 119 8 228 3 257 -12z
m1522 -2 c-3 -8 -6 -5 -6 6 -1 11 2 17 5 13 3 -3 4 -12 1 -19z m928 -8 c17
-33 19 -44 6 -36 -10 6 -33 66 -26 66 3 0 11 -13 20 -30z m-55 -25 c0 -16 -6
-25 -15 -25 -16 0 -19 9 -9 34 9 25 24 19 24 -9z m-896 -49 c-3 -15 -8 -25
-11 -23 -2 3 -1 17 3 31 3 15 8 25 11 23 2 -3 1 -17 -3 -31z m929 -146 c-4
-47 -13 -107 -22 -133 -15 -43 -18 -46 -35 -34 -17 13 -17 17 -2 88 9 41 22
108 28 149 11 72 12 74 24 45 8 -20 10 -58 7 -115z m-849 -75 c29 -93 80 -210
97 -221 5 -3 26 -8 47 -10 20 -2 60 -11 89 -20 46 -15 52 -19 58 -51 3 -19 4
-37 1 -40 -2 -3 -20 7 -39 21 -31 24 -36 25 -48 10 -12 -14 -14 -14 -26 2 -7
10 -13 26 -13 36 0 10 -3 18 -7 18 -5 0 -18 3 -30 6 -29 8 -31 -16 -3 -41 11
-10 20 -23 20 -30 0 -7 9 -20 20 -30 11 -10 20 -23 20 -30 0 -15 35 -47 43
-39 3 4 4 19 1 34 -6 25 -4 27 25 26 17 0 31 -3 32 -6 1 -3 3 -34 5 -69 1 -35
5 -69 8 -76 6 -17 133 -32 148 -17 7 7 10 58 10 134 -1 68 2 129 7 136 10 17
29 20 118 21 84 1 103 14 103 71 0 30 -6 43 -27 58 -16 12 -23 24 -18 32 6 10
9 9 16 -1 8 -11 15 -7 34 16 14 17 30 45 36 63 6 17 15 32 20 32 12 0 13 6
-17 -112 -37 -148 -60 -199 -135 -293 -26 -33 -56 -69 -68 -79 -39 -35 -18
-51 24 -18 36 28 138 170 169 235 15 31 32 55 37 51 6 -3 17 0 26 7 14 12 15
10 10 -16 -4 -17 -9 -47 -13 -69 -5 -30 -9 -35 -16 -22 -16 28 -34 18 -48 -26
-21 -68 -44 -109 -96 -171 -67 -82 -120 -111 -200 -109 -85 1 -214 48 -214 78
0 19 -27 37 -35 24 -14 -22 6 -58 42 -81 93 -57 159 -69 270 -48 46 9 61 19
132 88 63 60 88 93 116 151 26 56 34 66 29 40 -3 -19 -15 -55 -25 -79 -10 -24
-19 -50 -19 -57 0 -8 -27 -69 -59 -136 -52 -106 -68 -130 -118 -174 -32 -28
-77 -61 -99 -72 -39 -20 -62 -20 -143 0 -8 2 -15 -2 -18 -9 -14 -39 143 -44
194 -7 16 12 39 24 53 27 41 10 160 132 160 164 0 3 11 21 24 38 14 18 34 63
46 101 11 38 41 133 66 210 26 78 49 163 51 188 10 82 21 49 16 -46 -4 -90
-17 -149 -69 -308 -14 -41 -31 -95 -39 -120 -7 -25 -23 -70 -35 -100 -13 -30
-30 -73 -39 -95 -9 -22 -33 -66 -55 -98 -21 -32 -36 -61 -33 -64 10 -9 80 55
98 89 10 18 29 56 43 83 14 28 30 57 35 65 10 17 53 119 72 168 18 50 21 32 4
-32 -8 -31 -15 -72 -15 -90 0 -41 -17 -93 -42 -127 -10 -14 -20 -36 -21 -50
-6 -61 -125 -219 -165 -219 -7 0 -12 -4 -12 -10 0 -5 23 -10 50 -10 43 0 55 5
77 28 35 36 90 157 113 246 10 40 25 89 34 110 9 21 15 47 14 59 -1 25 25 133
48 192 14 39 15 37 9 -61 -3 -56 -14 -144 -24 -195 -63 -304 -75 -335 -148
-394 -68 -56 -90 -63 -109 -37 -11 16 -30 22 -91 27 -157 14 -234 31 -260 59
-13 14 -31 26 -39 26 -21 0 -94 38 -94 50 0 5 -17 29 -39 53 -52 61 -141 245
-162 337 -14 58 -34 191 -54 350 -8 69 -19 154 -24 190 -8 63 0 123 13 90 3
-8 8 -44 10 -79 6 -66 18 -93 35 -75 12 11 -10 200 -27 230 -8 16 -8 30 1 60
l12 39 6 -55 c3 -30 18 -95 33 -145z m-539 163 c-12 -42 -40 -93 -50 -93 -5 0
-11 15 -13 33 -3 27 1 35 17 39 11 3 23 14 26 24 9 27 28 24 20 -3z m1452 0
c-3 -8 -6 -5 -6 6 -1 11 2 17 5 13 3 -3 4 -12 1 -19z m-208 -95 c-34 -68 -53
-93 -95 -125 -48 -36 -57 -39 -106 -36 -46 3 -53 6 -56 25 -3 18 7 27 55 49
86 41 168 101 204 152 49 68 48 32 -2 -65z m951 77 c0 -5 -4 -10 -10 -10 -5 0
-10 5 -10 10 0 6 5 10 10 10 6 0 10 -4 10 -10z m-1266 -40 c25 -9 25 -12 28
-112 l3 -103 97 -6 c54 -4 104 -9 113 -13 16 -6 21 -51 6 -60 -4 -3 -52 -8
-106 -10 -64 -4 -101 -10 -107 -18 -4 -7 -8 -75 -8 -152 0 -128 -1 -138 -17
-131 -10 4 -25 9 -35 12 -23 7 -28 33 -28 154 0 104 -1 106 -25 117 -14 7 -56
12 -93 12 -37 0 -72 4 -78 8 -18 11 -23 71 -7 84 13 10 92 6 139 -7 12 -4 29
1 43 12 21 17 24 30 28 109 4 87 8 114 17 114 3 0 16 -4 30 -10z m1032 -20
c62 -54 162 -62 211 -17 13 11 25 19 27 16 4 -4 9 -89 7 -116 -1 -17 -67 -52
-89 -46 -14 3 -25 -4 -38 -26 -10 -17 -21 -31 -25 -31 -13 0 -16 24 -8 52 9
33 1 40 -50 43 -45 4 -111 30 -111 44 0 6 5 11 11 11 6 0 10 12 9 28 -6 81 4
88 56 42z m204 16 c0 -11 -19 -15 -25 -6 -3 5 1 10 9 10 9 0 16 -2 16 -4z
m-1460 -99 c0 -6 -9 -2 -20 8 -11 10 -20 23 -20 28 0 6 9 2 20 -8 11 -10 20
-23 20 -28z m-299 -10 c-10 -9 -11 -8 -5 6 3 10 9 15 12 12 3 -3 0 -11 -7 -18z
m-753 -103 c12 -8 22 -21 22 -29 0 -19 -43 -32 -49 -14 -2 8 -18 27 -35 43
l-31 29 35 -8 c19 -4 45 -13 58 -21z m729 -16 c-3 -8 -6 -5 -6 6 -1 11 2 17 5
13 3 -3 4 -12 1 -19z m1636 -29 c33 -50 35 -70 4 -41 -13 12 -28 22 -35 22
-14 0 -31 31 -25 48 9 23 29 12 56 -29z m-673 16 c0 -8 -4 -15 -10 -15 -5 0
-7 7 -4 15 4 8 8 15 10 15 2 0 4 -7 4 -15z m-1456 -50 c-4 -32 -15 -54 -31
-69 -14 -11 -29 -31 -34 -43 -5 -13 -15 -23 -24 -23 -21 0 -19 13 5 35 14 13
20 31 20 61 0 24 -4 45 -8 48 -13 8 -70 -46 -74 -68 -2 -10 -11 -24 -20 -30
-13 -8 -22 -5 -43 14 -32 30 -32 40 4 40 35 0 55 22 49 53 -4 23 -3 23 46 15
40 -7 58 -6 81 6 16 8 31 14 33 12 2 -2 0 -25 -4 -51z m546 -21 c5 -33 12 -88
15 -123 3 -35 12 -94 20 -130 7 -36 20 -97 28 -136 20 -93 60 -203 110 -299
31 -61 53 -89 94 -120 63 -49 52 -55 -49 -28 -40 11 -113 27 -163 37 -49 10
-94 22 -99 27 -6 4 -22 8 -36 8 -52 0 -62 17 -51 94 5 37 12 70 15 73 2 3 10
-22 17 -56 12 -64 29 -87 54 -77 11 4 13 11 6 28 -36 97 -57 238 -39 271 10
19 15 7 39 -91 30 -120 38 -139 76 -189 46 -62 73 -30 32 37 -65 106 -108 339
-104 565 3 182 17 224 35 109z m1724 31 c-7 -17 -20 -20 -28 -6 -7 10 3 21 20
21 8 0 11 -6 8 -15z m41 -55 c3 -6 3 -20 0 -31 -6 -19 -9 -20 -22 -6 -9 9 -13
23 -10 31 7 18 23 21 32 6z m-121 -42 c-3 -5 -12 -4 -20 3 -7 6 -11 15 -8 21
3 5 12 4 20 -3 7 -6 11 -15 8 -21z m-2450 14 c6 -10 -53 -57 -60 -49 -3 3 -2
16 2 31 4 19 13 26 29 26 13 0 26 -4 29 -8z m2482 -59 c-11 -11 -19 6 -11 24
8 17 8 17 12 0 3 -10 2 -21 -1 -24z m-2443 -31 c-16 -29 -17 -34 -3 -59 30
-55 90 -35 90 29 0 15 5 28 10 28 6 0 10 -9 10 -21 0 -12 14 -34 31 -50 20
-19 29 -36 27 -51 -4 -29 -34 -35 -59 -12 -26 24 -69 5 -69 -30 0 -28 -27 -56
-34 -35 -3 8 -6 25 -8 39 -4 34 -51 41 -70 11 -21 -34 -29 -24 -26 31 3 50 5
53 33 58 23 4 33 13 42 40 7 19 12 46 12 60 1 22 3 23 16 9 14 -14 14 -19 -2
-47z m2357 8 c0 -5 -5 -10 -11 -10 -5 0 -7 5 -4 10 3 6 8 10 11 10 2 0 4 -4 4
-10z m138 -35 c15 0 27 -5 26 -12 -1 -7 -2 -22 -2 -33 -2 -14 -9 -20 -25 -20
-12 0 -34 -8 -47 -17 -25 -17 -67 -19 -83 -3 -5 4 -6 17 -3 28 5 14 13 18 30
15 20 -4 26 1 37 31 10 29 15 33 27 24 8 -7 26 -12 40 -13z m-141 -7 c-3 -8
-6 -5 -6 6 -1 11 2 17 5 13 3 -3 4 -12 1 -19z m373 -79 c-8 -5 -37 -8 -64 -5
-27 3 -57 1 -67 -4 -12 -7 -20 -7 -24 1 -11 16 -4 19 76 27 75 8 107 0 79 -19z
m-2873 -55 c3 -9 2 -24 -4 -33 -8 -13 -28 -16 -99 -16 -77 1 -89 3 -92 18 -8
41 3 47 98 47 75 0 92 -3 97 -16z m2678 -13 c-9 -16 -25 -3 -18 15 4 10 9 12
15 6 6 -6 7 -15 3 -21z m1107 16 c-24 -7 -36 -7 -44 1 -9 9 -1 12 33 11 l44
-1 -33 -11z m-904 -40 l-3 -41 -57 1 c-116 2 -108 -1 -108 37 0 40 5 43 103
43 l68 0 -3 -40z m-272 -3 c25 -20 54 -67 54 -90 0 -10 -72 1 -81 13 -6 7 -18
13 -25 13 -17 0 -47 68 -39 88 7 19 48 8 91 -24z m-2315 -54 l-15 -79 -45 -6
c-79 -10 -120 -25 -157 -57 -19 -17 -37 -29 -39 -26 -7 6 45 77 109 152 47 54
107 94 146 95 14 1 14 -7 1 -79z m-231 8 c0 -5 -7 -8 -15 -8 -19 0 -29 24 -20
48 6 15 8 14 20 -8 8 -14 14 -28 15 -32z m-117 -8 l42 0 -2 -192 c-3 -320 -4
-330 -25 -336 -24 -6 -23 -18 3 -25 36 -10 10 -29 -35 -25 -31 2 -41 -1 -41
-12 0 -11 13 -16 48 -18 l47 -3 0 -75 0 -74 -39 0 c-63 0 -67 -35 -6 -46 35
-6 45 -12 45 -25 0 -6 -12 -8 -29 -4 -16 3 -32 2 -35 -4 -9 -13 21 -41 45 -41
18 0 19 -8 19 -116 l0 -116 -42 3 c-24 2 -43 -1 -45 -8 -6 -16 17 -27 53 -25
29 2 32 0 38 -35 3 -21 6 -87 6 -146 0 -86 -3 -109 -15 -113 -22 -9 -18 -31 5
-37 15 -4 20 -14 20 -42 l0 -37 -67 3 c-120 6 -124 -32 -5 -41 52 -4 68 -9 70
-22 3 -13 -6 -17 -40 -20 -58 -4 -60 -32 -3 -36 39 -3 76 -22 43 -22 -8 0 -21
-6 -27 -14 -9 -10 -6 -17 14 -30 24 -16 24 -19 20 -102 -2 -48 -8 -91 -14 -97
-16 -16 -13 -34 5 -41 13 -5 14 -9 4 -21 -7 -8 -19 -15 -27 -15 -24 0 -10 -34
17 -40 43 -10 2 -24 -72 -25 l-67 0 -6 90 c-3 50 -7 213 -8 364 l-2 275 57 1
c63 1 88 14 65 34 -11 8 -27 9 -57 2 -54 -12 -66 -7 -74 31 -12 59 -9 63 34
64 47 2 55 7 46 29 -4 12 -14 14 -46 9 l-40 -7 -1 114 c-1 63 -3 166 -4 229
-2 63 -5 277 -7 475 l-3 360 35 6 c19 4 41 5 48 3 8 -2 32 -4 55 -4z m147 -14
c0 -3 -4 -8 -10 -11 -5 -3 -10 -1 -10 4 0 6 5 11 10 11 6 0 10 -2 10 -4z
m2760 -15 l24 -7 -2 -149 c-2 -83 -7 -251 -12 -375 -15 -347 -19 -479 -31
-830 -6 -179 -12 -338 -15 -355 -2 -16 -7 -95 -10 -175 -4 -80 -10 -154 -14
-165 -7 -18 -9 -18 -19 9 -6 16 -23 37 -36 48 -33 26 -31 38 6 38 24 0 30 4
27 18 -2 10 -14 18 -31 20 l-27 3 -1 177 c0 97 0 207 -1 244 0 39 -5 74 -13
85 -13 17 -15 16 -35 -10 -24 -30 -45 -35 -54 -11 -7 19 44 43 129 59 41 7 60
16 60 26 0 10 -12 14 -39 15 -49 0 -60 21 -14 26 22 2 34 9 36 21 3 13 -4 17
-31 17 l-34 0 -7 61 c-7 69 1 86 42 91 36 4 36 33 0 33 -14 0 -30 3 -34 8 -4
4 4 7 19 7 37 0 82 19 71 30 -5 5 -29 10 -53 12 l-44 3 3 105 c2 58 3 120 2
139 -1 33 0 33 34 28 41 -7 64 0 64 18 0 7 -20 15 -50 19 -27 4 -52 10 -55 15
-7 12 -8 381 -1 561 3 80 6 146 6 148 0 5 116 0 140 -7z m-850 -99 c-13 -74
-38 -142 -39 -107 -2 26 43 199 47 185 2 -6 -1 -41 -8 -78z m642 5 c-21 -20
-42 -16 -42 9 0 8 -9 14 -20 14 -23 0 -24 4 -10 31 10 18 12 18 51 -8 40 -26
40 -27 21 -46z m-64 -45 c6 -18 -15 -14 -22 4 -4 10 -1 14 6 12 6 -2 14 -10
16 -16z m-2474 -8 c10 -26 7 -51 -8 -63 -11 -9 -15 -5 -20 24 -7 35 -2 55 14
55 4 0 11 -7 14 -16z m149 -32 c-6 -41 -28 -65 -53 -57 -9 3 -33 -1 -53 -10
-39 -16 -67 -19 -67 -7 0 11 114 100 141 111 33 12 39 6 32 -37z m2408 -25
c-1 -4 -1 -11 -1 -16 0 -5 -9 -7 -20 -4 -11 3 -20 14 -20 24 0 14 4 17 21 11
11 -5 20 -11 20 -15z m-73 -14 c-5 -25 -28 -28 -28 -4 0 12 6 21 16 21 9 0 14
-7 12 -17z m-518 -55 c0 -12 -7 -29 -16 -39 -19 -21 -12 -51 9 -43 11 4 17
-18 26 -97 7 -55 10 -104 7 -107 -3 -3 -6 4 -6 14 0 11 -7 29 -15 40 -14 18
-16 18 -28 2 -16 -21 -27 -14 -27 17 0 28 -34 59 -56 51 -13 -5 -14 -4 -6 7 7
8 27 12 51 10 43 -3 60 10 41 32 -10 13 -16 12 -41 -1 -38 -19 -37 -10 6 50
19 27 35 58 35 68 0 10 5 18 10 18 6 0 10 -10 10 -22z m-1859 -1 c-1 -4 -1
-14 -1 -22 0 -8 -4 -15 -9 -15 -12 0 -23 29 -15 41 6 11 26 8 25 -4z m-131
-51 c0 -14 5 -28 10 -31 6 -3 10 -13 10 -22 0 -20 -39 -63 -57 -63 -18 0 -16
30 4 52 15 17 15 19 -1 37 -16 17 -16 20 -1 35 23 23 35 20 35 -8z m2573 -13
c-5 -29 -7 -31 -25 -22 -20 11 -20 11 3 35 12 13 23 23 25 21 1 -1 -1 -17 -3
-34z m-2423 -30 c0 -29 -12 -63 -21 -63 -5 0 -41 -20 -81 -45 -40 -25 -76 -45
-81 -45 -14 0 49 84 97 128 48 44 86 55 86 25z m631 -6 c-1 -4 -1 -11 -1 -17
0 -12 -20 -13 -39 -1 -22 14 -6 42 19 33 12 -4 21 -11 21 -15z m1739 -23 c0
-8 -4 -14 -10 -14 -5 0 -10 9 -10 21 0 11 5 17 10 14 6 -3 10 -13 10 -21z
m-1638 -1 c25 -22 23 -43 -5 -43 -33 0 -62 -23 -54 -44 7 -18 29 -28 102 -45
50 -12 50 -12 77 20 15 18 28 41 30 53 3 22 28 32 55 22 13 -5 14 -9 5 -18 -7
-7 -12 -28 -12 -48 0 -50 29 -75 87 -75 37 0 49 5 69 28 13 15 24 37 24 48 0
22 37 26 70 9 17 -9 18 -14 8 -38 -18 -41 -25 -47 -42 -32 -19 15 -46 7 -46
-14 0 -17 90 -46 144 -46 39 0 58 22 38 42 -8 8 -16 7 -27 -2 -29 -24 -37 3
-12 41 21 31 26 34 68 30 24 -1 46 -5 48 -7 3 -2 -5 -14 -17 -27 -29 -30 -55
-120 -47 -158 4 -16 2 -29 -3 -29 -5 0 -64 11 -130 25 -137 28 -135 28 -128
16 3 -5 59 -21 123 -36 65 -15 134 -31 153 -36 29 -7 40 -5 71 16 21 13 40 34
44 45 4 12 9 19 12 17 2 -3 -2 -19 -11 -35 -10 -19 -44 -46 -93 -76 -85 -49
-163 -118 -163 -142 0 -9 -9 -27 -20 -41 -11 -14 -22 -40 -26 -59 -4 -21 -12
-34 -21 -34 -24 0 -136 31 -163 45 -14 7 -63 28 -110 46 -150 59 -255 121
-264 157 -15 53 -26 226 -16 236 7 7 26 5 58 -6 67 -23 112 -31 112 -20 0 11
-28 23 -110 48 -70 22 -82 31 -78 63 3 23 7 26 40 23 33 -2 40 2 79 48 46 55
54 58 81 33z m98 -18 c0 -3 -7 -22 -15 -41 -11 -28 -19 -35 -37 -32 -12 2 -24
9 -26 17 -3 10 0 12 11 8 20 -7 39 15 31 37 -4 12 0 16 15 16 12 0 21 -2 21
-5z m-250 -15 c0 -5 -2 -10 -4 -10 -3 0 -8 5 -11 10 -3 6 -1 10 4 10 6 0 11
-4 11 -10z m471 -40 c21 -12 25 -50 7 -68 -17 -17 -48 -15 -70 5 -47 42 4 94
63 63z m1379 -31 c0 -16 -52 -69 -62 -63 -18 11 -7 44 20 57 34 19 42 20 42 6z
m-986 -41 c18 -25 20 -82 5 -113 -7 -15 -8 -9 -4 21 4 32 0 48 -15 67 -11 14
-20 30 -20 36 0 18 18 12 34 -11z m-1556 -10 c16 -16 15 -30 -1 -53 -13 -17
-15 -16 -29 11 -22 45 -2 74 30 42z m1638 -13 c-10 -8 -23 -12 -28 -9 -14 9 2
24 25 24 21 -1 21 -1 3 -15z m-156 -25 c-13 -23 -30 -35 -30 -20 0 20 21 51
31 45 6 -4 5 -13 -1 -25z m37 -56 c-8 -50 -33 -77 -59 -63 -20 11 -20 11 0 25
11 7 22 27 25 44 4 19 13 30 23 30 14 0 16 -7 11 -36z m128 16 c3 -5 18 -7 33
-5 29 6 45 -4 79 -48 22 -28 22 -29 3 -64 -10 -19 -16 -41 -14 -48 3 -7 1 -16
-5 -20 -6 -3 -11 -18 -11 -31 0 -38 -54 -88 -85 -80 -16 4 -38 -1 -62 -14 -21
-11 -51 -20 -68 -19 l-30 1 35 16 c20 9 49 26 65 38 17 11 38 24 48 27 9 4 17
11 17 16 0 20 -18 20 -43 1 -14 -12 -61 -36 -104 -56 -43 -19 -100 -46 -128
-59 l-50 -25 39 35 c22 19 45 35 51 35 7 0 18 7 25 15 7 9 27 22 44 30 45 22
91 61 80 68 -6 3 -21 -1 -35 -8 -13 -8 -40 -22 -59 -32 -19 -10 -49 -28 -67
-40 -31 -23 -69 -32 -59 -14 4 5 51 42 107 81 79 57 105 81 120 114 10 22 19
48 19 57 0 30 41 52 55 29z m908 -12 c7 -25 1 -38 -18 -38 -17 0 -8 -40 12
-57 9 -7 13 -26 11 -55 -3 -36 -7 -44 -26 -46 -37 -6 -60 22 -57 70 1 25 8 44
19 50 23 13 20 26 -6 30 -34 4 -28 25 12 47 46 25 47 24 53 -1z m-2561 -33 c0
-14 1 -30 2 -37 2 -23 -23 -19 -40 8 -17 25 -17 27 1 40 27 20 35 17 37 -11z
m48 -115 c43 -31 52 -52 72 -185 16 -106 16 -121 3 -134 -13 -14 -15 -12 -15
18 0 23 -5 34 -17 38 -10 2 -29 27 -43 55 -24 49 -60 93 -108 130 -17 14 -22
28 -22 64 l0 47 50 -6 c28 -3 64 -16 80 -27z m44 -365 c-6 -16 -24 -21 -24 -7
0 11 11 22 21 22 5 0 6 -7 3 -15z m47 -119 c-28 -44 -73 -72 -132 -79 -66 -9
-89 10 -89 73 l0 49 55 -6 c31 -3 60 -1 67 4 7 6 25 13 39 17 15 3 35 18 45
33 l18 28 9 -42 c8 -35 6 -47 -12 -77z m2394 28 c42 11 49 -61 11 -108 -22
-27 -25 -27 -52 -15 -25 12 -29 20 -32 63 -4 66 2 80 29 66 11 -7 31 -9 44 -6z
m-2377 -101 c-3 -19 -48 -32 -48 -14 0 10 28 30 43 31 5 0 7 -8 5 -17z m-218
-43 c0 -5 -4 -10 -10 -10 -5 0 -10 5 -10 10 0 6 5 10 10 10 6 0 10 -4 10 -10z
m110 -32 c0 -40 0 -41 -20 -23 -30 27 -26 65 7 65 9 0 13 -14 13 -42z m255 22
c26 -11 45 -24 43 -28 -2 -4 -11 -30 -22 -57 l-18 -50 -129 -2 c-76 -1 -131 2
-134 8 -4 5 19 37 50 71 51 55 61 61 103 65 25 2 48 6 51 8 6 7 4 7 56 -15z
m2250 -100 c-6 -9 -9 -9 -16 1 -10 17 0 34 13 21 6 -6 7 -16 3 -22z m-2550 8
c6 -15 -20 -94 -29 -90 -3 1 -13 2 -23 2 -15 0 -15 1 1 18 15 18 15 20 -4 37
-27 24 -25 33 8 38 15 2 31 5 35 6 4 0 10 -5 12 -11z m2495 -38 c7 -30 4 -330
-4 -337 -3 -3 -12 0 -21 7 -12 10 -15 43 -15 187 0 159 2 174 17 171 9 -2 20
-14 23 -28z m58 -139 c3 -16 -1 -22 -10 -19 -7 3 -15 15 -16 27 -3 16 1 22 10
19 7 -3 15 -15 16 -27z m-2587 -1 c18 -10 26 -40 13 -52 -3 -3 -14 -4 -25 -1
-13 4 -19 14 -19 34 0 32 3 34 31 19z m2350 -126 c7 -8 30 -24 51 -35 85 -43
264 -255 312 -369 10 -25 34 -78 53 -117 51 -110 69 -266 48 -413 -20 -134
-36 -201 -54 -235 -12 -22 -21 -43 -21 -47 0 -4 -16 -42 -35 -84 -19 -41 -35
-78 -35 -81 0 -10 -170 -174 -247 -238 -40 -33 -73 -65 -73 -70 0 -12 -69 -35
-106 -35 -39 0 -151 68 -163 99 -28 71 -26 76 29 90 28 7 72 27 98 45 26 17
63 39 82 49 19 9 82 65 140 124 109 112 153 182 195 313 10 30 26 75 36 100
30 76 42 200 28 288 -18 120 -45 180 -145 332 -59 88 -90 128 -186 235 -37 41
-47 65 -29 65 5 0 14 -7 22 -16z m-2350 -24 c23 -13 25 -40 4 -40 -29 0 -30
-32 -1 -55 22 -17 26 -27 21 -48 -17 -65 -55 -5 -55 85 0 38 3 68 6 68 3 0 14
-5 25 -10z m2589 -20 c0 -16 -4 -30 -10 -30 -5 0 -10 14 -10 30 0 17 5 30 10
30 6 0 10 -13 10 -30z m-2795 -240 c4 -7 28 -8 66 -4 49 6 60 4 65 -10 8 -22
2 -27 -38 -35 -44 -9 -44 -35 -1 -39 l33 -3 -1 -201 c-1 -189 -2 -200 -20
-195 -26 7 -44 -17 -24 -33 8 -7 22 -10 30 -6 12 4 15 -4 15 -40 l0 -46 -32 6
c-18 3 -50 9 -72 12 -37 7 -38 8 -32 43 3 20 6 112 6 205 l0 169 45 -6 c49 -7
64 3 39 27 -18 19 -55 21 -72 4 -15 -15 -19 -2 -26 90 -4 66 3 89 19 62z m213
-8 c3 -9 -2 -13 -14 -10 -9 1 -19 9 -22 16 -3 9 2 13 14 10 9 -1 19 -9 22 -16z
m2513 -102 l-9 -45 -1 55 c-1 35 2 51 9 44 6 -6 6 -26 1 -54z m-2526 0 c3 -5
-1 -10 -9 -10 -9 0 -16 5 -16 10 0 6 4 10 9 10 6 0 13 -4 16 -10z m2572 -62
c-3 -8 -6 -5 -6 6 -1 11 2 17 5 13 3 -3 4 -12 1 -19z m-2557 -88 c0 -52 -15
-65 -40 -35 -19 23 -4 85 20 85 17 0 20 -7 20 -50z m2619 -92 c1 -16 -3 -28
-8 -28 -11 0 -22 70 -14 83 8 14 21 -20 22 -55z m-69 -18 c0 -27 -4 -50 -10
-50 -11 0 -14 59 -4 84 10 27 14 18 14 -34z m-2563 -36 c8 -21 -13 -42 -28
-27 -13 13 -5 43 11 43 6 0 13 -7 17 -16z m2637 -22 c8 -13 -9 -65 -22 -70
-13 -4 -18 59 -5 71 9 9 21 9 27 -1z m-2634 -153 c0 -44 -3 -60 -12 -57 -14 5
-23 90 -14 115 12 31 26 -1 26 -58z m2630 34 c0 -5 -5 -15 -10 -23 -9 -13 -11
-13 -19 0 -5 8 -7 18 -5 22 6 10 34 11 34 1z m-3740 -103 c0 -5 -4 -10 -10
-10 -5 0 -10 5 -10 10 0 6 5 10 10 10 6 0 10 -4 10 -10z m2214 -153 c31 -59
54 -107 52 -107 -15 0 -84 106 -112 173 -61 146 -40 123 60 -66z m2552 115
c-24 -44 -83 -84 -134 -90 -32 -4 -43 -2 -38 7 4 6 18 11 32 11 14 0 43 10 65
23 32 18 39 26 34 45 -4 17 0 25 17 31 33 12 40 4 24 -27z m-2672 6 c2 -7 9
-31 15 -54 24 -90 200 -311 291 -366 19 -12 58 -40 85 -63 82 -68 203 -123
240 -108 8 3 26 -5 41 -16 15 -12 35 -21 46 -21 17 0 19 -4 12 -32 -4 -18 -7
-52 -6 -75 0 -24 -3 -45 -7 -47 -17 -11 -191 50 -242 86 -15 9 -37 22 -50 27
-32 12 -187 148 -232 203 -114 141 -217 358 -217 459 0 21 19 26 24 7z m-1279
-18 c-10 -11 -23 -20 -29 -20 -6 0 0 9 14 20 32 25 38 25 15 0z m-695 -10 c19
-7 43 -17 52 -21 10 -5 26 -9 36 -9 10 0 27 -7 38 -15 18 -14 17 -14 -13 -15
-18 0 -52 9 -75 19 -24 11 -58 25 -75 31 -18 7 -33 17 -33 22 0 11 8 9 70 -12z
m481 -12 c-39 -11 -79 -1 -47 11 10 4 33 5 50 2 l31 -4 -34 -9z m149 -18 c0
-14 -59 -42 -76 -36 -23 9 -16 21 19 33 43 14 57 15 57 3z m-372 -37 c57 -6
72 -23 20 -23 -45 1 -130 24 -121 34 4 4 17 4 28 1 11 -4 44 -9 73 -12z m4172
-3 c-8 -5 -33 -10 -55 -10 -29 0 -36 3 -25 10 8 5 33 10 55 10 29 0 36 -3 25
-10z m-4025 -10 c-3 -5 -22 -10 -41 -10 -21 0 -33 4 -29 10 3 6 22 10 41 10
21 0 33 -4 29 -10z m629 -41 c-43 -46 -184 -106 -184 -79 0 5 8 10 19 10 33 0
150 59 167 85 9 14 19 23 22 20 3 -3 -8 -19 -24 -36z m-1157 -71 c24 -19 151
-49 223 -53 41 -2 111 -7 155 -11 64 -5 83 -4 93 8 9 11 23 13 54 8 53 -8 322
14 365 30 17 6 42 10 55 8 26 -5 26 -5 -78 -37 -47 -15 -83 -20 -105 -16 -19
3 -56 1 -82 -5 -26 -5 -83 -11 -125 -11 -42 -1 -84 -4 -92 -8 -20 -11 -283 5
-340 20 -57 14 -188 57 -201 65 -5 3 -7 9 -4 14 7 11 64 2 82 -12z m3242 -84
c21 -15 23 -21 17 -75 -6 -49 -4 -60 8 -64 51 -16 51 -17 -16 -49 -37 -18 -77
-41 -89 -52 -21 -19 -21 -19 -55 20 -34 40 -44 85 -25 115 8 12 12 12 26 -3
20 -19 76 -18 82 1 3 7 -7 15 -21 19 -29 7 -34 22 -11 30 8 3 17 16 21 27 7
25 23 47 33 47 4 0 17 -7 30 -16z m-787 -384 c29 -22 86 -56 126 -76 39 -19
72 -36 72 -38 0 -3 -24 -4 -52 -3 -29 0 -77 -6 -105 -15 -50 -15 -54 -15 -77
3 -13 10 -40 21 -60 24 -20 2 -41 7 -46 10 -23 14 -8 50 37 92 26 23 49 43 50
43 1 0 26 -18 55 -40z m1186 -2 c7 -7 12 -18 12 -26 0 -8 9 -25 20 -39 28 -36
25 -43 -12 -37 -46 9 -138 51 -138 64 0 14 60 50 86 50 11 0 25 -5 32 -12z
m-1351 -117 c13 -6 37 -11 52 -11 16 0 40 -9 54 -21 21 -16 37 -19 79 -16 29
2 64 9 77 16 19 11 28 11 47 1 18 -10 32 -10 68 0 50 14 120 6 113 -13 -8 -26
-62 -38 -203 -48 -81 -5 -150 -12 -154 -14 -20 -12 -217 -6 -250 7 -19 8 -44
18 -55 22 -20 7 -20 8 -1 22 16 11 17 17 8 26 -20 20 -14 26 28 33 22 4 50 17
62 30 l23 24 14 -24 c8 -13 25 -28 38 -34z m-102 40 c-3 -6 -27 -13 -53 -17
-72 -10 -80 -17 -78 -68 0 -25 6 -49 11 -54 38 -35 309 -44 550 -19 135 14
182 26 216 54 13 11 22 9 55 -13 30 -21 53 -28 99 -30 33 -1 92 -10 132 -18
66 -14 74 -14 101 1 26 15 36 15 83 4 30 -7 63 -11 74 -10 20 3 126 -9 158
-18 9 -2 14 -9 11 -15 -5 -7 -135 -8 -418 -3 -226 4 -415 8 -421 7 -5 0 -321
-4 -701 -7 -547 -5 -694 -4 -700 6 -5 8 7 24 32 45 36 31 40 32 62 18 40 -26
120 -36 202 -23 41 6 82 17 90 24 12 11 31 11 105 -1 170 -25 198 -18 210 54
11 62 16 73 38 82 30 12 150 12 142 1z m1777 -79 c37 -15 -31 -62 -90 -62
l-26 0 22 16 c12 8 22 24 22 35 0 14 7 19 28 18 15 0 35 -3 44 -7z m244 -27
c36 -14 79 -25 95 -25 18 0 29 -5 29 -14 0 -19 61 -46 107 -46 34 0 83 -18 58
-21 -29 -3 -870 3 -874 7 -9 9 6 13 64 18 298 28 290 27 318 70 28 42 109 46
203 11z m-3303 -25 c5 -20 15 -34 32 -40 45 -17 27 -28 -57 -35 -115 -9 -153
-5 -153 19 0 14 12 22 46 31 26 6 61 23 79 38 37 31 45 29 53 -13z m2412 10
c8 -13 -15 -13 -35 0 -12 8 -11 10 7 10 12 0 25 -4 28 -10z m-2210 -70 c3 -5
1 -10 -4 -10 -6 0 -11 5 -11 10 0 6 2 10 4 10 3 0 8 -4 11 -10z"/>
<path d="M1538 8239 c-25 -14 -23 -22 13 -48 38 -28 53 -17 37 27 -13 34 -22
38 -50 21z"/>
<path d="M1626 8173 c-13 -14 -5 -33 14 -33 11 0 20 6 20 14 0 15 -24 28 -34
19z"/>
<path d="M2451 7993 c-34 -42 -50 -98 -32 -116 8 -8 19 -3 43 20 24 24 32 42
36 82 6 62 -5 65 -47 14z"/>
<path d="M2279 7944 c-17 -21 5 -64 44 -82 37 -18 57 -9 57 26 0 54 -70 93
-101 56z"/>
<path d="M1557 7323 c-13 -12 -7 -41 8 -47 18 -6 30 16 21 39 -6 16 -18 19
-29 8z"/>
<path d="M3400 7175 c-7 -9 -20 -13 -28 -10 -18 7 -32 -11 -32 -42 0 -29 30
-31 37 -3 4 16 8 18 19 9 21 -17 17 -38 -10 -48 -27 -11 -40 -37 -24 -47 6 -4
18 2 27 13 9 11 21 18 27 16 20 -7 36 24 25 46 -6 11 -9 26 -6 33 3 7 -1 22
-8 32 -12 16 -14 17 -27 1z"/>
<path d="M2538 7762 c-7 -10 -41 -37 -75 -60 -71 -48 -156 -162 -180 -240 -20
-69 -17 -154 7 -185 51 -65 109 -78 230 -54 64 13 115 58 155 137 41 81 42
131 5 225 -18 44 -37 94 -44 110 -19 51 -26 58 -42 44 -18 -15 -31 -4 -16 14
7 8 9 17 5 20 -12 12 -32 7 -45 -11z m99 -394 c-3 -8 -6 -5 -6 6 -1 11 2 17 5
13 3 -3 4 -12 1 -19z"/>
<path d="M2484 7191 c-3 -3 -13 -6 -22 -6 -23 0 -22 -39 1 -43 10 -2 27 4 38
14 18 17 20 17 32 -1 11 -14 17 -16 35 -6 21 11 25 21 20 38 -3 9 -95 12 -104
4z"/>
<path d="M3366 6366 c-20 -19 -35 -56 -62 -154 -3 -8 -11 -11 -24 -7 -27 9
-27 -20 0 -37 16 -10 20 -24 20 -69 0 -31 4 -69 10 -85 5 -16 14 -49 20 -72 9
-36 15 -43 31 -39 10 3 22 1 25 -4 17 -28 40 6 55 83 20 108 10 342 -17 386
-18 28 -29 28 -58 -2z m38 -224 c1 -108 -4 -187 -10 -202 -11 -24 -12 -23 -28
30 -24 82 -30 178 -16 256 18 96 28 120 42 106 8 -8 12 -68 12 -190z"/>
<path d="M1641 5857 c-14 -14 -14 -40 0 -54 8 -8 7 -16 -2 -30 -7 -11 -9 -28
-5 -38 11 -29 38 2 31 36 -3 15 -1 30 4 34 16 9 13 52 -3 58 -7 3 -19 0 -25
-6z"/>
<path d="M1603 5694 c-9 -23 11 -38 26 -20 13 16 7 36 -10 36 -5 0 -12 -7 -16
-16z"/>
<path d="M1586 5631 c-9 -14 4 -41 19 -41 21 0 28 19 15 35 -14 17 -26 19 -34
6z"/>
<path d="M1554 5429 c-8 -14 11 -33 25 -25 16 10 13 36 -3 36 -8 0 -18 -5 -22
-11z"/>
<path d="M1605 5431 c-7 -12 12 -24 25 -16 11 7 4 25 -10 25 -5 0 -11 -4 -15
-9z"/>
<path d="M2196 6198 c-3 -7 -14 -47 -26 -88 -12 -41 -30 -97 -40 -125 -43
-124 -50 -160 -28 -153 10 4 114 306 120 352 3 22 -20 34 -26 14z"/>
<path d="M2471 5927 c-17 -17 -13 -27 8 -27 38 0 30 -18 -17 -41 -56 -29 -53
-45 7 -41 45 3 45 3 23 -15 -20 -15 -21 -21 -10 -35 11 -15 21 -17 57 -10 48
8 66 30 32 39 -35 9 -24 22 22 25 54 4 57 29 5 41 -40 9 -48 21 -24 34 8 4 16
14 18 22 2 11 -11 15 -54 17 -31 1 -61 -3 -67 -9z"/>
<path d="M3367 5675 c-18 -17 -13 -40 8 -49 17 -6 38 18 33 40 -4 24 -23 28
-41 9z"/>
<path d="M3380 5595 c-10 -12 -10 -19 -2 -27 15 -15 43 8 35 28 -7 18 -17 18
-33 -1z"/>
<path d="M1484 3447 c-2 -7 2 -35 11 -62 8 -28 15 -63 15 -78 0 -20 15 -44 51
-83 49 -51 79 -68 79 -43 0 6 -15 28 -34 49 -31 35 -86 171 -86 215 0 18 -29
20 -36 2z"/>
<path d="M2620 3256 c-51 -12 -70 -23 -70 -37 0 -6 9 -7 23 -3 12 4 57 7 100
6 58 -1 77 2 75 10 -8 22 -79 35 -128 24z"/>
<path d="M2717 3023 c-4 -3 35 -47 86 -97 119 -117 180 -211 229 -351 21 -60
38 -120 38 -133 0 -13 8 -37 17 -55 9 -18 29 -66 44 -107 15 -41 34 -95 44
-120 12 -32 17 -76 17 -150 -1 -82 5 -125 24 -195 28 -100 50 -143 66 -127 7
7 3 26 -11 57 -12 26 -21 60 -21 76 0 15 -4 30 -8 33 -5 3 -12 56 -15 118 -8
146 -19 197 -77 343 -27 66 -51 136 -55 155 -10 47 -59 189 -79 229 -10 17
-14 41 -11 51 5 15 3 18 -9 14 -9 -3 -19 4 -28 20 -26 49 -124 159 -181 202
-62 48 -61 47 -70 37z"/>
<path d="M2364 2845 c-4 -9 5 -32 18 -53 14 -20 28 -47 32 -60 8 -25 31 -29
40 -7 5 15 -53 117 -74 130 -6 3 -13 -1 -16 -10z"/>
<path d="M2477 2793 c-13 -12 -7 -29 29 -83 32 -51 144 -273 144 -289 0 -3 16
-46 35 -95 19 -49 35 -98 35 -109 0 -10 15 -34 34 -53 39 -39 84 -45 156 -19
23 8 44 15 45 15 1 0 5 -32 9 -70 3 -39 10 -78 16 -88 5 -9 12 -38 15 -64 6
-47 29 -76 94 -118 16 -11 23 -26 25 -55 1 -22 5 -45 9 -51 3 -6 9 -38 13 -70
4 -33 11 -68 17 -78 9 -18 10 -18 19 -1 8 14 12 15 19 4 17 -28 32 9 33 84 1
69 -1 77 -37 130 -20 32 -56 69 -80 84 -52 33 -64 48 -72 96 -5 29 -2 46 18
80 59 102 56 161 -9 173 -28 5 -50 1 -88 -16 -28 -12 -72 -27 -98 -33 -44 -10
-49 -9 -70 14 -13 14 -43 83 -67 155 -45 132 -111 274 -183 396 -39 67 -48 75
-61 61z m567 -660 c-1 -40 -24 -83 -46 -83 -10 0 -11 54 -2 99 5 25 11 31 28
29 18 -3 21 -10 20 -45z m141 -478 c8 -84 -7 -78 -24 9 -15 82 -15 94 3 76 8
-8 17 -46 21 -85z"/>
<path d="M2424 2636 c-3 -8 -1 -31 5 -53 6 -21 11 -56 11 -78 0 -22 6 -60 14
-85 8 -25 21 -79 30 -120 8 -41 21 -99 27 -127 6 -30 8 -75 4 -102 -8 -58 -1
-78 21 -60 24 20 15 154 -17 234 -4 11 -10 54 -13 95 -4 47 -14 87 -27 108
-15 26 -17 38 -9 47 10 13 7 78 -6 127 -6 22 -33 31 -40 14z"/>
<path d="M1751 2616 c-16 -19 15 -146 35 -146 17 0 18 26 2 102 -13 61 -18 67
-37 44z"/>
<path d="M2524 2556 c-4 -11 2 -37 15 -62 11 -25 21 -56 21 -70 0 -14 11 -40
24 -57 32 -42 72 -124 79 -163 3 -18 18 -49 32 -69 14 -21 25 -46 25 -56 0
-28 36 -118 56 -140 22 -24 79 -25 135 -3 39 16 40 18 34 53 -4 20 -11 42 -17
49 -13 14 -44 16 -53 2 -3 -6 -17 -7 -30 -4 -30 7 -38 -7 -18 -36 l16 -23 17
23 c22 29 53 21 48 -12 -2 -16 -14 -26 -38 -34 -44 -15 -78 0 -86 35 -18 79
-28 106 -54 147 -16 25 -38 78 -50 117 -12 40 -33 91 -46 114 -13 23 -24 49
-24 57 0 17 -54 124 -70 140 -6 6 -12 2 -16 -8z"/>
<path d="M1797 2293 c-4 -3 -7 -54 -7 -111 0 -108 16 -182 60 -277 10 -22 23
-55 29 -74 6 -18 35 -72 65 -120 50 -79 55 -93 61 -161 3 -41 16 -96 27 -123
l21 -47 -24 -26 c-13 -14 -42 -35 -64 -46 -59 -30 -77 -48 -64 -64 9 -11 17
-7 43 19 18 18 53 45 79 60 58 35 66 61 38 121 -14 27 -23 69 -25 112 -5 85
-7 90 -73 190 -29 45 -53 88 -53 95 0 8 -9 33 -20 54 -37 73 -60 176 -60 271
0 115 -10 151 -33 127z"/>
<path d="M2595 2248 c-4 -9 -2 -25 4 -36 6 -11 8 -41 5 -69 -5 -39 -2 -58 15
-91 11 -23 21 -54 21 -69 1 -15 10 -53 21 -83 11 -30 22 -67 24 -82 2 -15 12
-42 24 -60 11 -18 27 -47 35 -65 18 -40 62 -71 78 -55 8 8 3 19 -19 39 -53 50
-56 65 -18 96 25 20 45 27 78 27 37 0 48 5 61 25 9 14 23 25 31 25 20 0 19 19
0 27 -17 6 -55 -23 -55 -42 0 -20 -26 -25 -59 -12 -27 10 -32 8 -55 -16 -14
-15 -29 -27 -34 -27 -15 0 -32 23 -32 44 0 24 -46 176 -69 226 -9 21 -16 64
-16 107 0 55 -4 76 -17 89 -16 16 -18 16 -23 2z"/>
<path d="M1732 1838 c-21 -21 -13 -98 24 -212 32 -102 35 -116 24 -155 -6 -23
-23 -52 -37 -64 -207 -173 -234 -210 -236 -317 -1 -60 2 -73 23 -95 13 -14 32
-25 42 -25 11 0 31 -13 46 -29 44 -48 143 -83 248 -89 71 -4 97 -1 122 12 18
9 32 21 32 25 0 5 3 16 6 24 4 11 -8 21 -42 36 -58 26 -85 26 -113 2 -12 -10
-30 -17 -40 -14 -27 7 -64 -15 -57 -34 5 -12 1 -14 -21 -10 -56 11 -83 27
-105 62 -14 21 -35 38 -53 43 -58 16 -77 112 -37 193 15 31 54 71 128 134 149
125 155 143 103 316 -25 81 -30 115 -26 156 6 54 -4 68 -31 41z m222 -904 c37
-21 44 -29 35 -40 -25 -30 -129 -38 -129 -10 0 12 37 76 44 76 2 0 24 -12 50
-26z"/>
<path d="M2986 1697 c-72 -39 -86 -66 -77 -155 4 -34 4 -67 0 -73 -3 -6 -20
-8 -42 -4 -56 11 -65 -5 -16 -27 76 -34 112 8 99 114 -4 29 -2 59 6 76 12 29
38 47 55 36 19 -11 49 7 49 31 0 13 -4 26 -8 29 -4 2 -34 -10 -66 -27z"/>
<path d="M3032 1611 c-29 -36 -30 -41 -28 -124 1 -48 8 -92 14 -100 7 -8 30
-17 52 -21 31 -5 43 -13 55 -36 16 -31 45 -41 45 -15 0 44 -56 99 -100 100
-11 0 -15 12 -16 40 0 22 -4 53 -9 68 -6 22 -3 35 14 57 43 59 19 88 -27 31z"/>
<path d="M2670 1461 c-23 -18 -25 -27 -25 -100 0 -69 2 -81 16 -81 23 0 31 25
24 74 -4 23 -2 54 4 70 11 27 14 28 55 22 26 -4 47 -3 50 3 9 13 -2 18 -54 25
-36 5 -50 3 -70 -13z"/>
<path d="M1886 1388 c-26 -60 -45 -73 -128 -87 -68 -12 -111 -41 -144 -97 -34
-57 -31 -89 11 -131 30 -30 38 -33 51 -22 13 11 12 15 -15 36 -36 29 -39 57
-12 111 19 37 87 82 125 82 28 0 90 30 119 58 34 32 60 79 52 92 -14 23 -37 6
-59 -42z"/>
<path d="M2780 1276 c0 -11 9 -16 28 -16 15 0 37 -3 48 -6 20 -5 21 -7 7 -35
-10 -19 -22 -29 -38 -29 -27 0 -52 -25 -35 -35 13 -8 70 3 88 17 6 6 12 17 12
26 0 9 9 26 21 38 20 21 20 23 2 32 -10 6 -44 13 -75 17 -50 6 -58 5 -58 -9z"/>
<path d="M1740 1035 c-10 -12 -10 -19 -2 -27 20 -20 13 -38 -12 -38 -14 0 -28
-5 -31 -11 -9 -13 -6 -16 27 -24 31 -8 71 25 62 50 -4 8 -1 22 6 30 6 8 9 19
5 25 -9 15 -41 12 -55 -5z"/>
<path d="M1840 1036 c0 -2 9 -6 20 -9 11 -3 20 -1 20 4 0 5 -9 9 -20 9 -11 0
-20 -2 -20 -4z"/>
<path d="M1908 1023 c6 -2 18 -2 25 0 6 3 1 5 -13 5 -14 0 -19 -2 -12 -5z"/>
<path d="M2030 1020 c0 -5 9 -10 21 -10 11 0 17 5 14 10 -3 6 -13 10 -21 10
-8 0 -14 -4 -14 -10z"/>
<path d="M2100 1011 c0 -15 42 -41 65 -41 15 0 12 5 -17 25 -40 27 -48 30 -48
16z"/>
<path d="M3071 3787 c-8 -11 -7 -22 6 -48 9 -18 22 -58 28 -89 8 -41 16 -58
32 -65 20 -8 23 -18 25 -95 2 -69 6 -85 19 -88 14 -2 17 9 20 65 5 88 -4 279
-13 289 -12 11 -37 -15 -40 -44 -4 -25 -5 -23 -16 14 -15 52 -44 81 -61 61z"/>
<path d="M399 5278 c-1 -2 -2 -33 -4 -70 l-2 -68 48 0 c40 0 51 4 73 31 51 60
22 109 -66 109 -27 0 -49 -1 -49 -2z"/>
<path d="M381 5067 c-6 -8 -9 -37 -5 -74 3 -33 6 -102 7 -153 2 -105 5 -108
84 -109 36 -1 48 5 81 37 39 36 62 90 62 142 -1 40 -34 103 -74 138 -32 27
-44 32 -90 32 -32 0 -58 -5 -65 -13z"/>
<path d="M2127 4874 c-12 -12 -8 -106 8 -179 43 -205 154 -365 252 -365 22 0
58 -7 79 -16 42 -18 115 -15 169 6 28 11 29 12 11 25 -13 10 -25 11 -43 4 -32
-12 -89 -12 -113 1 -10 5 -37 12 -60 15 -57 7 -112 39 -152 88 -49 62 -106
215 -120 321 -11 91 -18 113 -31 100z"/>
<path d="M2639 4711 c-13 -11 -21 -23 -16 -27 10 -11 79 24 72 36 -9 15 -30
12 -56 -9z"/>
<path d="M2166 4411 c-9 -15 49 -163 87 -223 20 -30 50 -68 69 -84 42 -37 105
-70 114 -61 14 13 -14 54 -48 70 -46 22 -99 96 -152 210 -43 91 -57 109 -70
88z"/>
<path d="M2447 4023 c-16 -15 -4 -31 46 -56 60 -30 121 -35 151 -12 11 8 27
15 37 15 19 0 69 37 69 51 0 16 -20 10 -57 -18 -47 -36 -110 -35 -182 2 -56
28 -55 28 -64 18z"/>
<path d="M1052 3678 c3 -7 13 -15 22 -16 12 -3 17 1 14 10 -3 7 -13 15 -22 16
-12 3 -17 -1 -14 -10z"/>
<path d="M3895 3560 c-8 -13 3 -30 20 -30 14 0 27 24 18 34 -10 9 -31 7 -38
-4z"/>
<path d="M3857 2833 c-12 -11 -8 -22 14 -34 28 -14 48 3 29 26 -13 16 -32 20
-43 8z"/>
<path d="M2112 3749 c4 -12 36 -22 182 -54 65 -14 88 -13 74 1 -4 3 -55 17
-115 30 -59 14 -116 27 -127 30 -12 4 -17 2 -14 -7z"/>
<path d="M1033 2065 c-13 -10 -15 -17 -7 -25 16 -16 48 -9 52 11 4 23 -22 31
-45 14z"/>
<path d="M4180 708 c-14 -6 -42 -14 -63 -17 -21 -3 -39 -10 -40 -16 -4 -18 65
-17 105 1 32 14 45 15 75 6 39 -12 67 -2 48 17 -16 15 -98 21 -125 9z"/>
<path d="M2295 8731 c-6 -11 33 -41 53 -41 10 0 12 -15 6 -72 -8 -86 -9 -90
-37 -86 -14 2 -23 -3 -25 -14 -4 -22 51 -38 133 -39 33 0 98 -4 145 -8 91 -9
123 -2 118 27 -2 12 -17 18 -48 22 l-45 5 0 84 0 84 45 1 c59 1 63 27 5 38
-60 10 -343 9 -350 -1z m223 -118 l-3 -78 -45 0 -45 0 -3 78 -3 77 51 0 51 0
-3 -77z"/>
<path d="M4300 7000 c0 -16 116 -34 125 -19 8 12 -6 16 -72 23 -30 3 -53 1
-53 -4z"/>
<path d="M4470 6930 c0 -5 11 -10 25 -10 14 0 25 5 25 10 0 6 -11 10 -25 10
-14 0 -25 -4 -25 -10z"/>
<path d="M4625 6910 c-3 -5 -1 -10 4 -10 6 0 11 5 11 10 0 6 -2 10 -4 10 -3 0
-8 -4 -11 -10z"/>
<path d="M4737 6882 c-15 -2 -25 -8 -22 -13 8 -12 75 -12 75 0 0 12 -20 17
-53 13z"/>
<path d="M4722 6578 c5 -15 67 -18 71 -3 1 6 -15 11 -37 13 -28 3 -37 0 -34
-10z"/>
<path d="M4680 5541 c0 -15 31 -22 69 -14 34 6 35 7 11 14 -36 10 -80 10 -80
0z"/>
<path d="M4247 5324 c-11 -11 -8 -53 4 -75 10 -19 12 -20 36 -3 16 10 52 18
94 20 91 5 93 1 92 -181 -2 -223 -16 -300 -60 -334 -69 -55 -110 -4 -78 97 7
22 6 22 -51 16 -33 -4 -60 -7 -61 -8 -6 -5 19 -149 29 -165 11 -19 88 -51 121
-51 7 0 37 7 65 15 69 21 95 60 117 179 13 70 15 120 9 245 -6 139 -5 158 10
170 14 12 21 12 41 1 37 -20 57 -7 53 37 l-3 38 -206 3 c-113 1 -208 -1 -212
-4z"/>
<path d="M4935 3649 c-10 -15 3 -25 16 -12 7 7 7 13 1 17 -6 3 -14 1 -17 -5z"/>
<path d="M4908 3593 c-29 -7 -20 -23 12 -23 20 0 30 5 30 15 0 15 -9 17 -42 8z"/>
<path d="M4920 3355 c0 -9 5 -15 11 -13 6 2 11 8 11 13 0 5 -5 11 -11 13 -6 2
-11 -4 -11 -13z"/>
<path d="M4905 3230 c-11 -18 5 -28 32 -21 38 10 41 31 4 31 -16 0 -33 -4 -36
-10z"/>
<path d="M4951 3126 c-9 -10 -9 -16 -1 -21 17 -10 37 12 24 25 -8 8 -15 6 -23
-4z"/>
<path d="M4947 2973 c-12 -11 -8 -23 8 -23 8 0 15 7 15 15 0 16 -12 20 -23 8z"/>
<path d="M4775 2930 c-3 -5 3 -10 15 -10 12 0 18 5 15 10 -3 6 -10 10 -15 10
-5 0 -12 -4 -15 -10z"/>
<path d="M4790 2840 c0 -5 11 -10 25 -10 14 0 25 5 25 10 0 6 -11 10 -25 10
-14 0 -25 -4 -25 -10z"/>
<path d="M4937 2744 c-9 -10 2 -24 19 -24 8 0 14 7 14 15 0 15 -21 21 -33 9z"/>
<path d="M4805 2703 c-47 -6 -60 -12 -48 -24 14 -14 93 0 93 17 0 8 -3 13 -7
13 -5 -1 -21 -4 -38 -6z"/>
<path d="M4810 2620 c0 -5 4 -10 9 -10 6 0 13 5 16 10 3 6 -1 10 -9 10 -9 0
-16 -4 -16 -10z"/>
<path d="M4780 2572 c0 -12 24 -22 52 -22 11 0 18 5 16 13 -5 14 -68 23 -68 9z"/>
<path d="M4755 2501 c-12 -12 12 -21 56 -21 67 0 62 23 -5 25 -26 0 -49 -1
-51 -4z"/>
<path d="M4950 2400 c0 -5 5 -10 10 -10 6 0 10 5 10 10 0 6 -4 10 -10 10 -5 0
-10 -4 -10 -10z"/>
<path d="M4703 2367 c2 -8 32 -12 85 -12 113 0 112 20 -1 22 -63 1 -87 -2 -84
-10z"/>
<path d="M4720 2294 c0 -22 120 -33 150 -14 25 16 2 23 -75 25 -52 1 -75 -2
-75 -11z"/>
<path d="M4695 2221 c-3 -5 -2 -12 3 -15 13 -8 168 -10 181 -2 26 17 -6 26
-89 26 -49 0 -91 -4 -95 -9z"/>
<path d="M4715 2159 c-12 -19 16 -28 85 -26 50 2 65 5 65 17 0 12 -16 16 -72
18 -46 2 -74 -1 -78 -9z"/>
<path d="M4713 2094 c-29 -13 -8 -23 72 -35 65 -9 88 -10 97 -1 8 8 8 15 3 21
-12 11 -154 23 -172 15z"/>
<path d="M4790 2021 c-41 -3 -75 -10 -75 -16 0 -12 121 -28 153 -20 15 4 22
12 20 22 -4 20 -6 20 -98 14z"/>
<path d="M4750 1821 c-83 -7 -96 -23 -26 -31 73 -9 150 2 154 23 4 19 10 18
-128 8z"/>
<path d="M4808 1744 c-3 -3 -43 -8 -89 -12 -65 -5 -84 -10 -84 -22 0 -15 14
-16 142 -10 52 3 81 19 68 40 -7 11 -28 14 -37 4z"/>
<path d="M4856 1431 c-3 -5 1 -14 9 -21 21 -18 19 -30 -6 -30 -16 0 -19 -4
-13 -17 4 -10 9 -39 12 -65 2 -32 9 -48 17 -48 19 0 26 15 27 53 0 17 5 46 11
64 9 27 8 35 -8 53 -19 21 -40 26 -49 11z"/>
<path d="M4786 1371 c-4 -5 -3 -16 0 -25 5 -12 0 -16 -17 -16 -50 0 -96 -20
-108 -46 -6 -14 -9 -29 -6 -34 7 -12 -13 -23 -55 -30 -57 -9 -46 -36 24 -56
41 -12 38 -28 -6 -32 -37 -3 -64 -24 -54 -40 3 -5 24 -12 46 -16 46 -7 54 -26
11 -26 -34 0 -60 -25 -43 -42 9 -9 16 -7 30 5 35 32 62 17 62 -34 0 -30 28
-23 32 9 2 21 8 27 28 27 20 0 25 -5 25 -25 0 -32 26 -33 40 -2 7 15 18 22 38
22 43 0 115 20 128 37 24 28 -6 37 -109 35 -53 -1 -109 1 -124 4 -54 11 -27
23 57 26 47 2 84 7 83 12 -2 5 -35 8 -75 7 -110 -3 -98 16 14 24 110 7 127 11
118 25 -3 5 -26 7 -50 5 -40 -4 -45 -2 -45 15 0 17 -7 20 -44 20 -47 0 -96 14
-96 27 0 5 27 6 60 5 56 -4 60 -2 65 21 4 14 4 35 0 45 -3 11 -1 23 5 27 8 5
8 11 -1 21 -13 16 -25 18 -33 5z m-21 -81 c4 -6 -9 -10 -32 -9 -34 1 -35 2
-13 9 35 11 38 11 45 0z m145 -240 c0 -5 -3 -10 -7 -10 -5 -1 -28 -5 -53 -10
-44 -8 -130 4 -130 19 0 4 43 8 95 9 60 2 95 -1 95 -8z"/>
<path d="M4360 1356 c0 -16 10 -17 90 -15 49 2 92 0 96 -4 9 -9 130 -9 162 -1
43 12 21 24 -40 22 -35 -1 -118 2 -185 7 -113 7 -123 7 -123 -9z"/>
<path d="M4930 961 c-115 -31 -126 -42 -40 -37 90 5 110 12 110 37 0 10 -1 19
-2 18 -2 0 -32 -9 -68 -18z"/>
<path d="M4685 920 c-7 -11 11 -14 70 -10 67 3 65 20 -2 20 -34 0 -65 -4 -68
-10z"/>
<path d="M3903 505 c-26 -18 -30 -47 -10 -64 11 -8 18 -6 31 8 19 21 64 33 72
19 3 -5 3 -65 -1 -133 -7 -111 -9 -125 -27 -131 -41 -12 -10 -28 60 -29 88 -2
107 8 71 35 -26 19 -26 21 -21 122 2 57 9 111 14 121 12 24 53 21 70 -5 9 -14
20 -19 31 -15 21 8 22 36 3 62 -11 16 -31 19 -142 22 -107 4 -133 2 -151 -12z"/>
<path d="M4640 515 c-8 -2 -31 -6 -51 -10 -41 -6 -59 -34 -59 -90 0 -48 29
-75 79 -75 45 0 71 -26 71 -70 0 -36 -11 -48 -45 -51 -37 -4 -55 6 -55 31 0
24 -15 33 -39 25 -12 -4 -21 -19 -25 -47 -4 -22 -4 -43 -1 -46 2 -3 39 -4 82
-4 111 3 153 38 139 117 -9 47 -35 71 -85 80 -48 8 -75 38 -60 67 14 25 46 23
81 -7 39 -33 68 -20 68 30 0 18 -3 36 -8 39 -11 7 -75 15 -92 11z"/>
<path d="M332 503 c-17 -3 -22 -9 -17 -21 18 -42 25 -95 25 -190 0 -96 -2
-104 -20 -109 -11 -3 -20 -12 -20 -20 0 -11 12 -13 63 -7 71 8 74 9 59 26 -5
7 -12 42 -14 78 l-3 65 54 3 c30 2 58 -1 63 -6 5 -5 10 -42 12 -83 l2 -74 47
-3 c47 -3 61 10 37 34 -6 6 -12 75 -14 155 l-3 144 -38 3 c-38 3 -73 -16 -47
-25 7 -3 12 -22 12 -48 0 -51 -11 -61 -70 -59 l-45 2 1 71 0 71 -30 -1 c-17
-1 -41 -4 -54 -6z"/>
<path d="M1435 500 c-4 -6 -1 -18 6 -26 9 -11 13 -58 15 -146 2 -138 6 -148
51 -148 18 0 24 8 29 37 10 52 -3 262 -17 279 -13 16 -75 19 -84 4z"/>
<path d="M1940 501 c-13 -9 -13 -12 3 -23 16 -12 18 -29 18 -125 1 -62 -2
-125 -6 -141 -6 -29 -5 -30 41 -37 51 -7 78 5 56 27 -13 13 -16 78 -6 116 5
18 13 22 50 22 l44 0 0 -80 0 -80 43 0 c50 0 62 7 45 27 -7 9 -12 65 -13 148
-2 73 -6 138 -9 144 -8 13 -45 14 -64 3 -9 -6 -10 -16 -2 -38 6 -17 6 -41 2
-59 -8 -27 -13 -30 -48 -30 l-39 1 -5 64 -5 65 -45 3 c-25 1 -52 -2 -60 -7z"/>
<path d="M2404 495 c-4 -9 -2 -20 3 -24 11 -7 28 -61 24 -76 -2 -5 -4 -50 -6
-98 -2 -49 -9 -95 -15 -102 -16 -19 4 -27 56 -23 l39 3 3 66 3 67 51 6 c65 9
84 19 104 57 19 38 11 79 -22 110 -23 22 -36 24 -130 27 -90 3 -105 2 -110
-13z m179 -36 c28 -15 37 -28 37 -56 0 -32 -38 -54 -75 -45 -26 7 -30 14 -33
47 -3 29 1 43 14 52 22 16 29 16 57 2z"/>
<path d="M2724 496 c-3 -8 -1 -22 4 -32 14 -26 2 -257 -14 -267 -29 -17 -12
-27 45 -27 l58 0 -1 77 c-1 65 2 78 16 81 11 2 22 -10 36 -41 22 -49 84 -117
108 -117 25 0 29 30 5 46 -23 16 -61 84 -61 108 0 7 14 28 30 46 17 18 30 39
30 47 0 27 -28 69 -55 81 -39 18 -194 16 -201 -2z m184 -44 c29 -37 -4 -86
-55 -80 -25 3 -28 8 -31 41 -2 21 2 45 8 53 15 17 59 9 78 -14z"/>
<path d="M3224 500 c-9 -9 -8 -19 2 -39 18 -37 14 -242 -5 -265 -8 -9 -11 -20
-7 -24 10 -9 239 -3 249 7 4 4 10 24 14 44 7 43 -12 50 -42 17 -15 -17 -29
-20 -69 -18 l-50 3 -3 42 c-3 49 10 62 37 38 23 -21 50 -13 50 13 0 73 -31
107 -50 56 -17 -43 -35 -23 -35 37 l0 54 40 0 c32 0 42 -5 50 -23 6 -15 17
-22 30 -20 16 2 19 9 17 37 -1 19 -4 36 -5 37 -1 1 -49 5 -107 9 -74 4 -108 3
-116 -5z"/>
<path d="M3615 501 c-43 -19 -66 -56 -63 -102 3 -36 8 -45 36 -61 19 -10 43
-18 55 -17 12 1 34 1 48 1 59 -4 96 -85 45 -98 -29 -7 -89 11 -106 32 -22 25
-50 17 -65 -19 -26 -63 -30 -60 92 -64 104 -3 113 -2 138 19 39 34 45 95 12
134 -23 26 -32 29 -103 34 -75 5 -79 6 -88 33 -7 19 -7 34 0 45 13 20 60 28
77 14 23 -19 84 -31 96 -19 13 13 15 54 3 61 -16 10 -158 16 -177 7z"/>
<path d="M4234 496 c-4 -9 1 -25 10 -35 13 -14 16 -40 16 -130 l0 -112 -30
-11 c-62 -21 -27 -33 96 -32 115 1 119 2 132 25 17 34 11 64 -13 64 -12 0 -21
-9 -25 -25 -5 -23 -11 -25 -55 -25 l-50 0 1 37 c1 20 4 43 7 52 8 20 33 10 40
-16 4 -12 12 -18 24 -16 15 3 18 13 18 58 0 49 -2 55 -23 58 -13 2 -25 -3 -28
-12 -12 -33 -25 -14 -22 32 3 46 3 47 40 50 34 3 37 1 40 -25 2 -20 9 -28 23
-28 14 0 21 10 27 39 6 26 5 43 -2 50 -6 6 -58 13 -115 14 -90 3 -106 1 -111
-12z"/>
<path d="M4835 496 c-49 -22 -73 -98 -39 -127 9 -8 39 -25 68 -39 62 -30 81
-67 51 -100 -10 -11 -28 -20 -41 -20 -23 0 -32 7 -57 43 -8 11 -19 16 -29 12
-18 -7 -31 -65 -17 -79 5 -6 43 -6 99 1 114 13 130 25 130 99 0 50 -1 53 -32
63 -18 5 -47 12 -65 16 -17 3 -37 12 -43 20 -15 19 -9 55 12 69 13 8 22 5 42
-17 44 -47 90 -28 84 35 l-3 33 -65 2 c-38 2 -78 -3 -95 -11z"/>
<path d="M0 460 c0 -22 5 -40 10 -40 6 0 10 7 10 15 0 8 8 15 18 15 39 0 43
-13 44 -136 1 -65 0 -126 -3 -134 -3 -12 6 -15 44 -16 51 -2 69 10 43 29 -14
10 -16 30 -14 127 l3 115 31 3 c25 2 33 -1 37 -18 4 -14 12 -21 24 -18 14 3
18 13 18 48 l0 45 -132 3 -133 3 0 -41z"/>
<path d="M667 487 c-9 -5 -7 -11 6 -21 15 -12 17 -31 16 -157 l-2 -144 104 4
c57 2 107 5 112 8 4 2 7 18 7 34 0 39 -27 50 -49 20 -14 -18 -25 -22 -57 -19
l-39 3 -3 53 c-2 40 0 52 11 52 8 0 17 -7 21 -15 8 -23 35 -18 41 8 6 21 -9
77 -19 77 -3 0 -14 -10 -26 -22 -11 -12 -22 -19 -25 -16 -3 3 -8 28 -12 57 -5
45 -4 51 13 51 10 0 29 3 41 6 17 5 25 0 34 -20 17 -37 49 -35 49 4 0 17 -6
32 -12 35 -25 8 -200 10 -211 2z"/>
<path d="M1074 485 c-4 -9 3 -23 15 -33 18 -15 21 -29 22 -137 1 -103 -1 -120
-15 -123 -24 -5 -19 -32 7 -34 39 -2 82 3 91 13 6 5 3 16 -8 28 -12 13 -16 31
-14 58 l3 38 55 0 55 0 3 -49 c2 -33 -2 -53 -12 -65 -22 -24 -11 -31 45 -31
51 0 68 12 49 35 -8 10 -11 59 -8 165 l3 150 -35 0 c-46 0 -70 -14 -52 -32 6
-6 12 -36 12 -65 0 -47 -3 -53 -24 -59 -13 -3 -38 -4 -57 -2 -32 3 -34 5 -37
45 -2 26 3 51 12 64 24 35 10 49 -50 49 -39 0 -56 -4 -60 -15z"/>
<path d="M1670 493 c-43 -18 -81 -58 -91 -96 -32 -118 44 -228 156 -226 27 0
68 3 90 7 l39 7 1 55 0 55 -74 0 c-51 0 -76 -4 -78 -12 -3 -8 4 -13 15 -13 11
0 26 -7 33 -16 11 -14 10 -18 -5 -29 -43 -32 -97 25 -104 109 -4 53 -3 57 31
91 40 40 74 45 100 14 34 -39 73 -6 42 36 -12 15 -30 20 -78 22 -34 1 -69 0
-77 -4z"/>
<path d="M3020 485 c0 -8 11 -20 24 -25 23 -9 24 -10 21 -132 -1 -68 -4 -130
-6 -138 -3 -12 6 -15 41 -15 l45 0 5 65 c3 36 3 108 0 160 l-5 95 -62 3 c-52
2 -63 0 -63 -13z"/>
</g>
</svg>
