<?xml version="1.0" standalone="no"?>
<!DOCTYPE svg PUBLIC "-//W3C//DTD SVG 20010904//EN"
 "http://www.w3.org/TR/2001/REC-SVG-20010904/DTD/svg10.dtd">
<svg version="1.0" xmlns="http://www.w3.org/2000/svg"
 width="500.000000pt" height="878.000000pt" viewBox="0 0 500.000000 878.000000"
 preserveAspectRatio="xMidYMid meet">
<metadata>
Created by potrace 1.15, written by Peter Selinger 2001-2017
</metadata>
<g transform="translate(0.000000,878.000000) scale(0.100000,-0.100000)"
fill="#000000" stroke="none">
<path d="M2380 8640 c-129 -4 -155 -8 -155 -20 0 -11 14 -16 52 -18 28 -2 56
-8 61 -15 6 -7 12 -60 14 -119 3 -118 0 -124 -61 -112 -32 7 -79 -26 -67 -45
6 -10 37 -11 130 -5 165 10 448 6 480 -6 16 -6 26 -6 26 0 0 5 16 12 35 16 20
4 35 12 35 20 0 19 -13 23 -91 32 -35 4 -64 12 -63 17 0 6 -10 18 -23 28 -13
10 -28 27 -34 38 -11 22 -3 62 12 54 5 -4 9 2 9 11 0 9 11 32 26 51 23 30 30
33 78 33 39 0 57 5 70 19 10 10 14 21 9 24 -10 6 -317 4 -543 -3z m305 -46
c14 -6 14 -8 -1 -25 -16 -18 -18 -18 -36 -3 -10 10 -18 21 -18 26 0 9 31 11
55 2z m-110 -59 c34 -49 36 -58 26 -83 -21 -49 -69 -92 -104 -92 -18 0 -37 4
-43 8 -11 7 -26 207 -16 217 3 3 26 5 52 5 45 0 48 -2 85 -55z m95 -151 c0 -8
-9 -14 -20 -14 -22 0 -26 10 -8 28 13 13 28 7 28 -14z"/>
<path d="M2485 8216 c-50 -20 -64 -22 -85 -12 -44 21 -100 12 -149 -26 -13
-10 -48 -25 -77 -34 -29 -8 -72 -30 -96 -49 -24 -19 -48 -35 -55 -35 -6 0 -21
-12 -33 -27 -16 -21 -29 -27 -52 -24 -18 1 -37 -4 -49 -15 -23 -21 -32 -14
-47 42 -15 51 -40 74 -89 81 -61 8 -78 -18 -80 -125 -1 -47 -5 -92 -8 -100 -5
-15 30 -257 61 -411 23 -119 17 -152 -18 -91 -9 17 -24 30 -33 30 -8 0 -20 11
-24 24 -7 16 -23 27 -53 36 -37 12 -51 25 -107 102 -36 48 -75 95 -88 103 -13
9 -35 34 -49 56 -14 23 -34 44 -45 46 -14 4 -18 11 -14 24 4 13 -8 32 -43 66
-28 26 -59 67 -71 91 -12 23 -26 42 -31 42 -6 0 -28 12 -49 26 -33 21 -49 25
-98 23 -32 -2 -67 2 -78 8 -47 25 -100 44 -182 64 -80 19 -95 20 -163 8 -89
-15 -122 -28 -172 -66 -21 -15 -49 -36 -63 -46 -31 -22 -31 -41 -1 -101 13
-27 27 -59 30 -72 4 -13 11 -24 17 -24 5 0 25 -16 42 -35 18 -19 48 -43 67
-53 18 -9 35 -22 37 -29 2 -6 -12 -27 -32 -46 -31 -30 -36 -40 -30 -65 5 -26
3 -30 -27 -41 -77 -27 -184 -88 -193 -109 -5 -12 -13 -22 -16 -22 -17 0 -109
-139 -109 -164 0 -49 26 -93 58 -101 17 -3 36 -13 43 -21 8 -10 12 -88 14
-267 1 -138 6 -260 10 -270 9 -21 -10 -63 -32 -72 -27 -10 -33 6 -13 34 10 16
17 31 14 34 -11 11 -44 -6 -44 -24 0 -10 -16 -30 -35 -45 -20 -15 -33 -29 -30
-32 3 -3 15 4 28 16 31 29 37 28 37 -8 0 -37 8 -38 35 -3 35 43 64 2 30 -43
-36 -48 -1 -117 70 -135 129 -32 159 -33 310 -15 161 20 198 29 242 65 39 31
50 67 28 91 -10 11 -19 44 -22 78 -5 54 -3 61 16 71 24 13 28 31 6 31 -16 0
-21 18 -29 103 -4 45 -1 59 10 64 13 5 13 8 1 22 -10 11 -15 44 -16 101 0 47
-4 109 -7 138 -5 43 -4 52 9 52 9 0 32 14 50 30 19 17 40 30 46 30 14 0 14 34
1 82 -7 24 -25 49 -49 69 -21 17 -46 47 -55 68 -29 62 -163 161 -221 161 -10
0 -10 7 -1 33 6 17 17 42 24 54 7 12 12 36 12 53 0 24 6 33 27 41 16 6 38 8
50 6 13 -2 31 2 40 9 36 27 71 12 38 -16 -19 -16 -19 -74 0 -90 8 -7 15 -18
15 -25 0 -18 34 -45 57 -45 17 0 22 -11 33 -72 7 -40 19 -83 26 -95 8 -12 14
-33 14 -47 0 -14 9 -31 20 -39 10 -7 23 -31 28 -53 5 -22 16 -53 25 -69 42
-79 48 -99 37 -120 -11 -20 -9 -154 5 -325 3 -36 5 -153 5 -260 1 -202 12
-283 45 -310 14 -11 17 -10 22 8 8 31 19 27 27 -8 4 -22 11 -30 23 -28 16 3
18 -4 15 -52 -4 -73 4 -100 29 -100 29 0 32 -19 14 -86 -10 -35 -18 -121 -21
-217 -7 -188 -3 -198 78 -217 62 -15 122 -36 160 -56 14 -8 38 -14 52 -14 31
0 66 32 66 59 0 11 5 23 10 26 15 9 12 -101 -5 -230 -11 -75 -15 -188 -14
-355 0 -135 1 -249 0 -255 0 -5 -3 -111 -7 -235 -11 -381 -13 -345 19 -348 32
-4 51 -35 61 -101 9 -56 22 -81 45 -81 15 0 18 -11 19 -87 3 -131 22 -384 32
-416 5 -15 10 -132 11 -260 1 -231 13 -345 37 -369 6 -6 12 -17 12 -23 0 -17
32 -43 68 -56 29 -10 37 -8 79 20 49 33 84 39 101 19 5 -7 15 -116 21 -243 6
-126 16 -309 21 -405 6 -96 15 -281 20 -410 5 -129 15 -310 21 -401 16 -236 8
-264 -69 -226 -15 8 -54 19 -87 27 -33 7 -68 17 -78 22 -21 11 -78 62 -147
132 -42 42 -52 48 -77 41 -34 -8 -63 -33 -63 -53 0 -26 -42 -86 -96 -136 -41
-37 -63 -49 -91 -52 -72 -5 -100 -14 -123 -39 -13 -14 -28 -25 -34 -25 -5 0
-19 -8 -30 -18 -54 -48 -222 -81 -284 -56 -52 21 -174 44 -210 39 -18 -2 -47
-11 -64 -20 -43 -21 -49 -20 -136 21 -178 84 -238 95 -293 53 -19 -14 -56 -31
-84 -39 -61 -16 -185 -77 -185 -90 0 -15 16 -12 72 15 88 42 116 30 52 -23
-50 -41 -26 -51 39 -15 29 16 60 27 70 25 27 -6 67 25 83 65 12 26 19 33 32
28 9 -4 28 -11 42 -15 14 -4 58 -21 97 -39 39 -17 98 -37 131 -45 59 -14 61
-13 96 12 l36 25 93 -23 c127 -32 193 -34 296 -10 111 27 183 56 211 85 19 21
28 23 76 18 l55 -6 82 84 c46 46 96 101 113 122 l29 39 67 -61 c68 -63 118
-87 231 -112 31 -7 57 -16 57 -20 0 -7 -53 -39 -141 -85 -36 -19 -57 -44 -61
-74 -2 -17 -12 -27 -33 -33 -64 -19 -137 -59 -178 -97 -24 -21 -54 -43 -68
-48 -24 -9 -157 -10 -1086 -11 l-493 -1 0 -22 0 -21 838 6 c460 4 1472 9 2247
12 776 3 1464 8 1530 10 66 3 180 5 253 5 113 0 132 2 132 16 0 14 -35 15
-312 13 l-313 -2 -105 42 c-75 31 -119 43 -152 42 -56 -1 -150 45 -237 116
-55 45 -55 45 -57 104 -1 50 2 59 18 65 11 3 44 26 74 50 60 50 79 51 124 8
35 -32 230 -80 260 -64 17 9 29 9 51 0 32 -14 117 -7 153 12 12 6 40 29 64 50
37 34 47 38 75 33 18 -4 43 -15 57 -24 14 -10 36 -22 49 -26 13 -4 39 -18 58
-31 20 -13 45 -24 57 -25 12 0 47 -4 79 -8 54 -7 58 -6 55 13 -2 13 -13 22
-33 26 -17 4 -89 37 -160 74 -108 56 -135 66 -162 61 -52 -10 -103 -34 -110
-53 -8 -22 -64 -82 -77 -82 -5 0 -30 10 -54 21 -40 20 -48 21 -97 9 -51 -12
-55 -12 -100 14 -45 27 -219 96 -242 96 -6 0 -38 -22 -70 -49 -52 -43 -64 -49
-119 -53 -60 -6 -124 10 -124 30 0 5 5 23 11 41 11 32 3 238 -22 575 -6 77
-12 169 -14 205 -4 66 -14 991 -20 1731 -1 217 -8 555 -14 750 -7 195 -12 375
-13 400 -1 25 2 72 5 105 3 33 9 89 12 125 4 36 2 139 -3 230 -6 101 -7 214
-1 293 5 70 11 361 13 645 2 284 5 522 7 527 1 6 -1 40 -5 77 -7 56 -5 77 14
134 19 55 21 79 16 137 -12 133 -55 268 -92 289 -7 5 -22 29 -34 54 -14 28
-37 54 -62 70 -21 14 -41 31 -44 38 -6 16 -88 71 -130 86 -16 6 -67 12 -114
13 -93 1 -143 22 -154 64 -3 12 -31 43 -61 70 -30 26 -55 56 -55 65 0 10 -13
33 -30 51 -16 19 -30 43 -30 54 0 10 -5 24 -12 31 -8 8 -9 21 -1 49 17 59 26
180 15 187 -6 3 -73 8 -149 11 -127 4 -143 2 -198 -19z m183 -42 c89 -6 102
-9 102 -24 0 -39 -10 -49 -46 -43 -45 7 -44 -9 2 -26 25 -9 33 -16 26 -23 -8
-8 -21 -7 -44 3 -34 14 -166 20 -174 7 -5 -8 58 -42 99 -52 32 -8 35 -21 6
-37 -23 -12 -76 -5 -124 16 -62 27 -156 43 -186 31 -16 -6 -29 -14 -29 -19 0
-13 67 -37 106 -37 46 0 175 -52 234 -94 46 -33 47 -33 69 -15 21 17 25 17 53
3 30 -15 30 -17 25 -71 -3 -30 -9 -58 -12 -61 -3 -4 -17 8 -31 25 -28 36 -50
35 -65 -4 -6 -18 -15 -23 -31 -21 -32 4 -35 37 -7 59 20 15 22 20 11 43 -7 17
-20 26 -34 26 -13 0 -56 14 -97 30 -75 31 -220 72 -256 73 -84 3 -128 -14 -67
-26 73 -15 200 -50 230 -64 17 -9 32 -22 32 -30 0 -18 -84 -7 -119 15 -22 15
-25 14 -38 -4 -8 -10 -19 -18 -25 -16 -5 1 -19 0 -29 -3 -42 -14 -14 -22 78
-24 106 -2 146 -15 151 -49 4 -28 18 -28 33 -1 8 16 8 28 0 45 -12 28 -4 30
25 6 16 -12 23 -32 26 -70 3 -29 2 -55 -3 -57 -4 -3 -29 5 -56 16 -97 44 -300
65 -278 29 4 -6 15 -5 31 2 20 9 31 8 62 -9 20 -12 62 -26 94 -32 35 -8 72
-24 100 -45 23 -18 77 -51 119 -73 l75 -40 24 19 c18 15 34 18 58 14 35 -5
102 -50 102 -67 0 -5 -13 0 -29 12 -15 11 -39 19 -52 17 -28 -4 -40 -38 -13
-38 10 0 28 -10 41 -22 21 -19 27 -21 44 -9 17 10 24 10 37 -1 10 -8 47 -27
84 -42 89 -37 100 -50 58 -73 -56 -31 -70 -48 -64 -85 5 -25 1 -38 -14 -51
-19 -18 -20 -18 -18 0 1 19 -1 19 -46 8 -24 -6 -30 -2 -58 47 -17 29 -35 60
-40 68 -5 8 -11 23 -14 33 -3 9 -14 20 -23 24 -10 3 -41 25 -68 49 -28 23 -68
49 -89 58 -21 9 -51 27 -68 41 -16 14 -38 25 -47 25 -10 0 -29 8 -42 18 -13
11 -37 22 -52 26 -16 4 -49 22 -75 40 -58 40 -153 78 -207 82 -22 1 -65 -2
-95 -8 -30 -6 -62 -10 -70 -10 -8 0 -28 -4 -43 -10 -42 -16 -50 -1 -48 89 3
185 5 190 77 175 60 -13 72 -8 76 31 2 18 8 31 13 30 6 -1 24 11 40 26 17 15
46 34 65 41 19 7 62 27 94 43 54 26 66 29 125 23 51 -4 77 -1 116 13 28 11 57
17 65 16 8 -2 61 -7 118 -11z m-1933 -87 c82 -14 232 -78 242 -104 3 -7 14
-13 25 -13 18 0 20 -5 16 -47 -6 -61 -37 -127 -62 -131 -13 -3 -30 9 -52 34
l-33 39 -49 -27 c-51 -29 -96 -36 -107 -18 -3 6 -16 10 -28 10 -23 0 -47 28
-58 67 -9 30 28 38 81 17 34 -14 48 -14 88 -5 107 26 120 41 66 72 -37 22 -48
23 -40 4 4 -10 -6 -17 -37 -25 -23 -6 -47 -13 -53 -15 -6 -1 -32 8 -58 21 -36
18 -57 23 -85 18 -53 -9 -114 18 -109 48 2 15 14 26 38 34 19 6 49 16 65 22
41 14 58 14 150 -1z m1038 -7 c33 -26 58 -138 63 -275 2 -55 8 -116 14 -135 5
-19 10 -64 10 -99 0 -35 7 -122 16 -193 9 -71 14 -131 11 -134 -9 -9 -87 7
-87 18 0 5 10 12 21 15 22 6 21 6 -2 24 -23 17 -23 18 -4 39 19 21 19 21 -3
27 -25 6 -29 21 -7 29 21 8 19 21 -5 29 -25 8 -27 45 -2 46 14 0 13 2 -4 9
-23 9 -38 36 -28 51 3 5 10 7 15 3 13 -7 41 15 33 27 -3 5 -15 9 -28 9 -23 0
-23 0 -61 139 -12 41 -13 57 -4 68 9 10 9 16 -3 26 -25 20 -28 44 -8 62 15 14
17 21 8 41 -8 17 -8 27 2 39 10 12 10 18 0 30 -10 12 -10 19 -2 27 17 17 15
29 -5 26 -19 -3 -30 30 -19 58 8 20 49 17 79 -6z m-743 -60 c8 -5 11 -12 8
-16 -10 -9 -38 3 -38 16 0 12 10 13 30 0z m-580 -15 c0 -8 -4 -15 -10 -15 -15
0 -12 -21 5 -40 14 -16 12 -18 -27 -23 -34 -5 -47 -2 -63 14 -19 19 -19 19 2
19 13 0 31 13 43 30 23 32 50 40 50 15z m2290 -73 c0 -13 -12 -22 -22 -16 -10
6 -1 24 13 24 5 0 9 -4 9 -8z m-2221 -66 c2 -35 -11 -8 -15 31 -3 31 -2 34 5
13 5 -14 9 -34 10 -44z m545 -15 c-39 -69 -48 -64 -16 9 15 34 30 56 35 51 5
-5 -3 -31 -19 -60z m1768 32 c18 -16 25 -43 11 -43 -12 0 -43 33 -43 47 0 17
10 17 32 -4z m-2362 -13 c0 -5 -7 -10 -15 -10 -8 0 -15 5 -15 10 0 6 7 10 15
10 8 0 15 -4 15 -10z m670 -4 c0 -7 -7 -19 -15 -26 -8 -7 -15 -21 -15 -32 0
-10 7 -21 15 -24 21 -8 19 -41 -5 -71 -19 -25 -19 -27 -3 -45 16 -18 16 -21 0
-47 -9 -16 -17 -38 -17 -49 0 -11 -7 -25 -15 -32 -8 -7 -15 -19 -15 -28 0 -11
8 -13 35 -9 39 6 45 -5 18 -36 -17 -18 -17 -20 2 -33 11 -8 21 -27 21 -42 1
-15 2 -31 3 -35 1 -4 13 -6 28 -5 27 3 28 2 30 -62 1 -36 4 -98 7 -137 3 -40
2 -73 -2 -73 -19 0 -92 82 -92 104 0 13 -10 36 -21 51 -16 19 -24 48 -29 101
-8 79 -30 127 -55 118 -18 -7 -31 24 -36 81 -3 31 0 40 11 40 9 0 14 -8 13
-22 -3 -24 21 -48 37 -38 7 4 7 12 -1 26 -8 16 -7 25 6 39 12 13 15 28 11 45
-7 29 -17 31 -49 11 -12 -8 -35 -16 -52 -18 -24 -2 -30 1 -30 17 0 17 9 21 59
27 32 4 70 15 84 24 22 14 24 21 18 60 -4 34 -1 55 16 89 22 45 38 58 38 31z
m-557 -13 c-7 -2 -19 -2 -25 0 -7 3 -2 5 12 5 14 0 19 -2 13 -5z m-33 -54 c10
-18 9 -20 -7 -17 -10 2 -19 11 -21 21 -5 24 15 21 28 -4z m667 -11 c-3 -8 -6
-5 -6 6 -1 11 2 17 5 13 3 -3 4 -12 1 -19z m67 -33 c-4 -8 -8 -15 -10 -15 -2
0 -4 7 -4 15 0 8 4 15 10 15 5 0 7 -7 4 -15z m-690 -43 c4 -24 2 -34 -10 -39
-22 -8 -42 13 -26 29 7 7 12 23 12 37 0 33 16 15 24 -27z m2322 10 c33 -26 44
-55 25 -66 -5 -4 -32 5 -60 19 -45 23 -51 30 -51 57 0 28 2 30 26 24 14 -4 41
-19 60 -34z m-1896 18 c0 -11 -48 -25 -56 -17 -4 3 -3 10 1 16 8 14 55 14 55
1z m-384 -66 c-6 -16 -26 -19 -26 -5 0 5 5 22 12 38 11 27 12 27 16 5 2 -13 1
-30 -2 -38z m251 20 c-9 -9 -28 6 -21 18 4 6 10 6 17 -1 6 -6 8 -13 4 -17z
m1290 -28 c15 -9 64 -27 108 -42 44 -14 98 -37 120 -52 22 -15 60 -34 85 -43
111 -39 149 -70 135 -106 -5 -14 -10 -12 -33 10 -27 26 -52 35 -52 20 0 -13
78 -73 94 -73 22 0 20 -23 -2 -44 -18 -15 -20 -15 -37 4 -10 12 -25 18 -33 15
-8 -3 -24 3 -35 12 -19 18 -20 17 -8 -5 13 -25 7 -42 -16 -42 -11 0 -14 -6 -9
-22 3 -13 6 -26 6 -30 0 -6 63 -38 74 -38 0 0 1 17 1 37 0 48 19 55 23 9 2
-20 -7 -61 -22 -99 -29 -71 -30 -77 -16 -77 6 0 10 6 10 14 0 7 9 35 21 60 11
26 21 67 22 92 1 24 7 44 13 44 17 0 34 -23 34 -48 0 -13 9 -35 20 -49 25 -32
25 -58 1 -84 -16 -17 -20 -18 -31 -4 -10 12 -9 16 9 23 20 7 20 8 2 36 l-19
28 -26 -38 c-35 -52 -34 -88 2 -102 15 -6 36 -12 46 -14 25 -4 41 -31 32 -53
-6 -17 -8 -17 -27 1 -21 19 -21 19 -15 -13 6 -26 1 -40 -28 -83 -20 -29 -36
-61 -36 -71 0 -19 -25 -37 -37 -26 -3 3 2 27 11 53 22 65 21 78 -4 64 -14 -8
-20 -8 -20 0 0 6 -16 24 -35 41 -21 19 -37 43 -41 65 -7 36 -18 44 -28 18 -10
-26 -7 -33 24 -66 33 -34 34 -54 4 -51 -16 2 -15 1 4 -9 12 -6 22 -15 22 -20
0 -5 -10 -8 -22 -6 -29 4 -56 79 -57 161 -1 31 -5 57 -11 57 -5 0 -10 -9 -10
-20 0 -10 -7 -23 -16 -28 -15 -8 -14 -12 5 -39 26 -34 26 -108 1 -108 -11 0
-14 10 -12 38 3 31 -1 42 -27 66 -37 34 -39 51 -9 51 20 0 21 1 6 16 -20 20
-58 10 -58 -15 0 -9 14 -30 30 -46 37 -36 42 -63 7 -40 -22 14 -26 14 -50 -5
-17 -14 -28 -17 -32 -9 -4 6 -18 8 -32 4 -37 -9 -60 2 -78 38 -14 29 -14 33 0
43 14 10 12 13 -10 18 -42 11 -30 29 15 21 36 -6 40 -5 45 18 4 14 1 35 -5 47
-7 14 -10 39 -6 62 l7 40 -30 -7 c-29 -6 -32 -4 -62 58 -26 52 -31 71 -25 101
7 36 8 37 25 22 20 -18 57 -21 66 -5 11 16 17 69 9 69 -4 0 -15 -7 -25 -16
-14 -13 -21 -13 -40 -3 l-23 12 23 18 c13 11 33 19 44 19 20 0 20 1 4 17 -17
17 -20 17 -65 -9 -45 -26 -47 -29 -47 -70 0 -24 -5 -43 -11 -43 -20 0 -104
105 -104 130 0 14 -6 34 -12 45 -18 29 0 52 53 67 57 16 189 10 226 -11z
m-847 -69 c0 -13 -38 12 -54 35 -31 43 -16 53 19 13 19 -22 34 -44 35 -48z
m1455 38 c28 -13 25 -13 -52 -13 -108 0 -110 22 -3 26 14 1 39 -5 55 -13z
m-1609 -72 c-11 -11 -17 4 -9 23 7 18 8 18 11 1 2 -10 1 -21 -2 -24z m1744 17
c23 -12 43 -47 32 -54 -10 -6 -62 40 -62 54 0 13 7 12 30 0z m-2332 -31 c2
-12 -7 -18 -35 -22 -44 -7 -62 5 -43 28 17 21 74 16 78 -6z m785 -39 c14 0 16
-4 7 -19 -8 -16 -13 -18 -35 -8 -33 16 -43 42 -13 33 13 -3 31 -6 41 -6z
m1932 -54 c45 -16 56 -43 15 -38 -26 4 -60 29 -60 44 0 10 -3 10 45 -6z
m-1817 -24 c3 -9 -2 -13 -14 -10 -9 1 -19 9 -22 16 -3 9 2 13 14 10 9 -1 19
-9 22 -16z m1741 -18 c12 -11 -14 -19 -53 -16 -46 4 -61 17 -28 25 16 5 73 -2
81 -9z m-2729 -8 c0 -14 -59 -26 -134 -26 -23 -1 -65 -9 -94 -19 -29 -10 -55
-14 -58 -10 -10 16 47 41 123 54 108 18 163 18 163 1z m198 -2 c17 -3 32 -9
32 -14 0 -13 -177 -13 -185 0 -19 30 24 34 153 14z m141 -30 c23 -21 7 -26
-38 -14 -39 10 -48 19 -35 33 10 9 56 -3 73 -19z m2640 -21 c19 -30 21 -40 12
-56 -9 -14 -9 -22 0 -33 8 -10 9 -18 2 -25 -7 -7 -19 4 -38 36 -21 37 -25 54
-20 81 3 19 9 34 13 34 4 0 18 -17 31 -37z m-264 5 c37 -17 31 -25 -17 -24
-32 0 -56 -8 -93 -31 -46 -30 -65 -33 -65 -13 0 10 119 80 137 80 7 0 24 -5
38 -12z m-1916 -205 l-2 -198 -13 90 c-8 51 -11 111 -7 140 3 28 5 62 4 78 -3
28 7 87 15 87 2 0 3 -89 3 -197z m2058 170 c18 -30 85 -110 131 -159 22 -22
31 -44 37 -85 4 -31 15 -63 26 -75 19 -20 19 -21 -1 -79 -17 -50 -19 -69 -11
-132 5 -44 6 -157 1 -276 -5 -111 -9 -359 -8 -552 0 -192 -3 -393 -7 -445 -5
-52 -9 -198 -9 -325 -1 -147 -6 -260 -15 -312 -12 -67 -12 -108 -3 -225 24
-290 35 -1277 15 -1313 -9 -15 -11 -14 -21 14 -12 35 -47 45 -38 11 3 -11 9
-29 12 -41 3 -12 11 -18 20 -15 9 3 14 -1 14 -14 0 -13 -7 -20 -19 -20 -10 0
-24 -7 -31 -15 -12 -14 -15 -14 -31 1 -11 10 -19 23 -19 31 0 24 -67 44 -159
46 -99 2 -129 -10 -110 -45 8 -16 19 -19 52 -17 23 2 73 -1 110 -5 65 -8 68
-10 82 -42 15 -37 24 -41 44 -21 10 10 12 6 9 -18 -2 -24 -9 -31 -33 -35 -28
-5 -30 -9 -38 -60 -10 -73 -5 -82 40 -78 30 2 38 -1 41 -15 3 -14 -4 -17 -42
-17 -53 0 -62 -10 -44 -47 14 -29 23 -31 70 -18 25 6 27 5 25 -22 -2 -27 -4
-28 -47 -24 -28 2 -52 10 -63 22 -22 23 -95 27 -103 5 -11 -29 15 -56 54 -57
l37 -1 -44 -9 c-53 -10 -64 -19 -59 -50 3 -21 8 -24 46 -23 27 0 50 8 65 21
18 16 87 43 111 43 4 0 6 -12 4 -27 -3 -24 -9 -29 -47 -35 -52 -9 -72 -24 -64
-46 5 -13 4 -15 -8 -6 -8 6 -38 8 -67 6 -42 -3 -52 -7 -48 -19 3 -8 6 -23 6
-34 0 -28 72 -27 101 2 13 13 36 22 58 23 20 1 44 6 54 10 14 7 17 3 17 -23 0
-30 -1 -31 -45 -31 -45 0 -45 0 -45 -35 0 -35 -16 -47 -26 -20 -6 16 -59 20
-101 9 -18 -5 -22 -12 -19 -38 3 -28 7 -31 39 -34 20 -2 45 2 56 7 25 14 38
-3 21 -24 -8 -10 -31 -15 -62 -15 -47 0 -50 -1 -44 -22 3 -13 6 -29 6 -35 0
-16 53 -17 97 -1 35 13 59 3 30 -13 -23 -13 -22 -35 3 -52 20 -14 19 -14 -5
-25 -20 -9 -23 -15 -16 -34 7 -19 17 -23 60 -26 36 -2 51 -7 51 -18 0 -11 -14
-14 -58 -14 -53 0 -60 2 -70 25 -9 19 -19 25 -44 25 -50 0 -62 -12 -51 -46 9
-27 14 -29 52 -26 24 2 41 -1 41 -7 0 -6 -19 -11 -43 -11 -53 0 -59 -5 -46
-37 6 -17 6 -30 -1 -38 -7 -9 -7 -21 2 -40 11 -25 15 -26 56 -20 34 5 43 4 40
-7 -3 -7 -16 -14 -29 -15 -13 0 -30 -1 -37 -2 -8 -1 -12 -11 -10 -28 2 -23 8
-28 30 -28 15 -1 30 -4 34 -8 4 -4 -5 -7 -20 -7 -15 0 -29 -7 -32 -15 -8 -19
15 -48 33 -41 7 3 13 3 13 1 0 -10 -26 -61 -38 -74 -11 -11 -10 -18 3 -38 20
-30 14 -50 -17 -55 -33 -4 -29 -32 5 -36 15 -2 27 -7 27 -12 0 -5 -12 -10 -27
-12 -17 -2 -28 -9 -28 -18 0 -9 11 -16 28 -18 37 -5 34 -20 -5 -24 -22 -2 -34
-9 -36 -20 -3 -15 4 -18 32 -18 29 0 36 -4 36 -20 0 -16 -7 -20 -34 -20 -19 0
-41 -2 -48 -5 -12 -5 -16 56 -25 387 -11 394 -18 458 -49 458 -7 0 -21 -11
-30 -25 -10 -15 -26 -25 -40 -25 -17 0 -24 -6 -24 -20 0 -15 7 -20 29 -20 29
0 51 -27 28 -35 -66 -23 -69 -25 -58 -39 9 -11 7 -15 -10 -19 -38 -10 -20 -42
26 -45 22 -2 44 -7 49 -12 13 -13 -14 -42 -32 -35 -26 10 -53 -5 -47 -25 4
-13 -1 -22 -15 -30 -26 -14 -21 -35 9 -36 26 -2 71 -24 71 -35 0 -4 -24 -9
-52 -11 -39 -2 -53 -7 -53 -18 0 -11 15 -16 55 -20 30 -3 53 -9 52 -15 -2 -5
-9 -8 -15 -6 -11 4 -49 5 -89 2 -11 -1 -18 -9 -18 -21 0 -15 7 -20 29 -20 44
0 47 -18 4 -22 -25 -2 -39 -8 -41 -19 -2 -13 10 -18 63 -24 55 -5 65 -10 65
-26 0 -16 -5 -18 -45 -12 -52 7 -83 -10 -64 -33 6 -8 22 -14 35 -14 12 0 26
-5 29 -10 4 -6 -10 -10 -34 -10 -70 0 -67 -35 4 -44 53 -6 75 -15 75 -32 0
-11 -7 -11 -41 1 -50 18 -101 19 -117 3 -17 -17 4 -38 37 -38 14 0 33 -5 41
-11 11 -7 2 -8 -31 -4 -34 5 -48 3 -58 -8 -10 -13 -9 -17 8 -26 11 -6 28 -11
39 -11 11 0 36 -7 57 -15 27 -12 40 -13 50 -5 16 14 25 -7 25 -61 0 -42 0 -42
-24 -33 -14 5 -14 8 0 29 13 20 13 24 -1 35 -18 15 -115 26 -139 17 -23 -9 -8
-37 19 -37 12 0 37 -6 56 -12 l34 -13 -50 -5 c-37 -4 -51 -9 -53 -22 -3 -14 4
-18 30 -18 40 0 71 -16 48 -24 -8 -2 -26 -4 -40 -3 -15 1 -26 -4 -28 -14 -2
-13 8 -18 42 -23 55 -9 60 -24 9 -28 -20 -2 -38 -9 -41 -15 -4 -13 3 -17 51
-27 15 -4 27 -11 27 -17 0 -7 -11 -8 -30 -4 -38 8 -66 -10 -49 -31 6 -8 15
-14 19 -14 20 0 90 -55 90 -71 0 -30 -17 -30 -30 0 -16 39 -57 54 -130 49 -33
-2 -60 -1 -60 4 0 4 5 8 10 8 24 0 8 29 -17 32 -21 2 -29 9 -31 27 -3 18 0 22
12 18 24 -9 56 27 57 66 5 110 -16 177 -55 177 -24 0 -26 3 -26 45 0 39 3 47
25 55 22 8 25 15 25 60 0 45 -2 50 -26 56 -23 6 -25 10 -19 41 6 34 -9 68 -25
58 -4 -2 -15 4 -25 15 -19 22 -9 31 30 27 28 -3 51 48 37 85 -5 15 -8 46 -5
68 5 33 2 41 -13 46 -11 3 -35 14 -55 25 -20 10 -51 19 -68 19 -17 0 -31 5
-31 11 0 12 46 8 81 -6 9 -3 23 0 30 7 8 7 23 13 34 13 24 0 32 45 16 88 -12
30 -46 36 -80 15 -24 -15 -86 1 -86 22 0 15 29 18 85 9 17 -3 25 1 25 11 0 10
-20 20 -57 30 -37 9 -58 19 -58 28 0 11 8 13 28 9 36 -7 59 5 40 21 -8 6 -26
16 -42 21 -33 13 -33 48 1 43 44 -6 33 31 -12 40 -12 2 -20 11 -20 23 0 16 7
20 34 20 49 0 50 22 2 35 -23 6 -41 14 -41 19 0 16 13 19 35 9 13 -6 31 -8 40
-4 26 10 -1 36 -36 36 -19 0 -29 5 -29 15 0 9 9 15 25 15 19 0 25 5 25 23 0
13 -5 28 -12 35 -9 9 -8 12 5 12 11 0 17 8 17 23 0 29 -18 47 -47 47 -20 0
-23 5 -24 43 0 23 -2 67 -5 97 l-6 56 29 -1 c21 0 29 5 31 21 4 28 -28 41 -44
19 -10 -14 -13 -9 -19 27 -4 24 -10 99 -14 168 -5 104 -9 125 -22 128 -11 2
-20 -7 -27 -27 -8 -23 -15 -28 -31 -24 -14 3 -23 0 -27 -12 -8 -21 8 -50 27
-50 17 0 25 -61 10 -78 -12 -16 -8 -96 8 -124 6 -12 11 -63 11 -113 0 -90 1
-93 31 -121 26 -24 29 -32 19 -44 -7 -8 -19 -15 -26 -15 -11 0 -14 -20 -14
-90 0 -83 -1 -90 -20 -90 -26 0 -25 -8 3 -30 l22 -18 -34 1 c-43 2 -52 -19
-12 -28 27 -6 31 -11 30 -38 -1 -24 -3 -26 -6 -9 -3 14 -12 22 -24 22 -10 0
-22 1 -26 3 -4 1 -10 -11 -13 -27 -3 -17 -9 -30 -15 -30 -6 -1 -11 52 -12 134
-2 74 -9 263 -18 420 -8 157 -15 359 -15 450 0 177 -15 329 -35 357 -11 15
-14 14 -29 -9 -9 -14 -17 -42 -18 -64 -3 -86 14 -587 23 -699 6 -66 12 -247
14 -403 2 -255 4 -285 20 -302 10 -11 23 -20 30 -20 6 0 20 -7 31 -15 17 -14
14 -15 -41 -13 -58 3 -60 2 -60 -22 0 -32 45 -55 143 -71 39 -7 72 -16 72 -21
0 -5 -8 -7 -17 -5 -10 3 -39 8 -64 12 -55 7 -79 -10 -79 -55 0 -20 -6 -29 -21
-33 -29 -8 -21 -37 19 -63 18 -13 28 -25 22 -29 -5 -3 -15 -3 -22 1 -7 4 -28
10 -48 14 -34 5 -35 6 -38 55 -1 28 -10 113 -18 190 -8 77 -19 273 -24 435 -5
162 -14 329 -20 370 -13 93 -15 119 -29 410 -6 129 -16 298 -22 375 -10 142
-11 159 -28 415 -5 80 -15 159 -21 175 -7 17 -14 118 -16 235 -4 130 -11 231
-21 275 -8 39 -17 112 -18 163 -2 51 -6 105 -9 120 -5 22 -2 29 16 37 20 9 22
16 19 72 -3 67 11 106 34 97 16 -7 20 -36 35 -304 14 -237 37 -524 51 -605 5
-33 16 -123 24 -200 28 -254 32 -269 92 -281 40 -8 55 16 28 46 -22 24 -41
114 -55 264 -6 65 -18 163 -26 218 -15 92 -15 101 1 118 14 15 15 25 6 57 -16
55 -13 125 4 150 13 19 14 36 5 115 -6 51 -10 143 -8 203 3 107 4 110 26 113
14 2 31 16 40 33 11 20 24 29 37 27 18 -3 20 -9 17 -83 -2 -44 3 -123 12 -175
16 -99 22 -162 31 -345 4 -60 8 -112 10 -115 2 -4 9 -65 15 -136 12 -150 27
-214 72 -320 23 -52 40 -79 56 -85 13 -5 22 -17 22 -30 0 -12 4 -38 9 -58 5
-20 15 -63 21 -96 18 -95 40 -164 57 -181 10 -10 29 -14 52 -12 l36 3 7 -51
c14 -95 112 -333 179 -434 38 -58 102 -110 134 -110 27 0 29 30 3 58 -40 43
-156 298 -254 560 -27 72 -41 85 -64 57 -7 -8 -16 -15 -20 -15 -11 0 -47 123
-66 225 -18 102 -80 361 -100 417 -7 20 -20 99 -29 175 -27 224 -56 447 -61
466 -3 9 -12 17 -20 17 -17 0 -18 23 -2 50 10 15 9 29 -5 72 -9 29 -19 73 -22
98 -4 25 -8 56 -11 68 -3 17 -1 23 8 20 7 -3 15 -18 18 -34 5 -28 7 -29 60
-29 61 0 74 16 30 38 -28 14 -38 54 -39 148 -1 73 -21 94 -47 50 -21 -35 -34
-40 -34 -12 0 29 -22 41 -63 34 -56 -9 -78 -53 -26 -53 23 0 24 -21 4 -60 -21
-40 -47 -38 -76 7 -13 20 -32 40 -41 45 -10 4 -26 12 -35 17 -28 13 -28 39 -1
43 40 5 28 33 -17 36 -66 6 -92 42 -30 42 49 0 44 20 -13 50 -58 31 -62 54 -9
58 33 3 38 6 35 25 -2 17 -11 23 -43 27 l-40 5 -13 89 c-9 65 -18 95 -32 108
-11 10 -20 26 -21 36 0 9 -3 31 -5 47 -3 17 -7 118 -10 225 -3 120 -10 217
-19 253 -26 102 -17 125 31 77 26 -24 32 -41 42 -117 7 -48 17 -151 22 -228 5
-77 18 -179 30 -228 11 -48 18 -92 15 -97 -16 -26 90 -160 114 -146 16 10 14
52 -4 85 -20 40 -36 112 -46 206 -19 199 -30 396 -25 461 6 66 5 71 -16 81
-13 6 -49 14 -82 17 -32 4 -67 13 -78 20 -26 19 -58 71 -58 96 0 13 -7 20 -19
20 -11 0 -23 5 -27 11 -4 7 -24 9 -51 6 -47 -5 -93 19 -79 41 10 17 46 15 46
-3 0 -8 5 -15 10 -15 6 0 10 9 10 21 0 18 5 20 38 17 28 -2 37 1 37 12 0 12
-17 16 -82 18 -79 3 -83 4 -83 25 0 13 5 28 12 35 8 8 5 14 -14 21 -42 16 -42
39 0 51 49 13 72 13 72 -2 0 -9 4 -8 10 2 5 8 24 15 42 15 23 0 33 5 33 15 0
12 -15 15 -85 13 -47 -1 -94 -5 -103 -9 -11 -4 -17 -1 -17 8 0 27 25 46 65 51
22 3 58 10 79 15 67 18 134 -32 196 -147 23 -45 59 -99 78 -122 l35 -40 21 20
c12 12 32 21 44 21 15 0 22 6 22 18 0 10 3 22 7 25 10 11 52 -33 46 -49 -3 -8
5 -15 24 -19 15 -4 41 -11 57 -16 16 -5 43 -9 60 -9 17 0 37 -4 45 -9 16 -10
6 -31 -15 -31 -24 0 -16 -47 11 -68 33 -26 32 -32 -5 -32 -31 0 -39 -13 -17
-27 7 -5 -5 -10 -33 -13 -61 -7 -100 -1 -100 16 0 10 11 12 45 7 57 -7 61 12
5 27 -22 6 -40 13 -40 16 0 12 29 34 44 34 27 0 18 17 -14 29 -42 14 -37 23 8
15 48 -9 34 7 -21 23 -50 15 -66 4 -43 -28 13 -19 13 -25 2 -38 -7 -9 -16 -50
-19 -92 -7 -84 -14 -109 -30 -109 -7 0 -8 41 -3 125 7 129 0 165 -29 165 -18
0 -19 -12 -4 -27 7 -7 7 -28 -2 -72 -9 -45 -9 -72 -1 -99 8 -30 16 -279 12
-392 -1 -14 2 -58 6 -99 6 -64 9 -72 20 -57 13 19 27 18 149 -1 22 -4 57 -6
77 -6 29 1 39 -4 44 -19 3 -11 3 -22 0 -25 -9 -10 -127 -8 -208 3 l-78 10 0
-32 c0 -42 13 -46 143 -46 82 0 111 4 150 20 26 12 47 25 47 29 0 4 -6 28 -14
53 -13 44 -14 45 -62 51 -27 4 -67 11 -89 18 -22 6 -66 11 -97 11 l-58 0 0 41
c0 35 3 40 18 34 50 -19 133 -35 184 -35 50 0 58 3 58 19 0 21 -19 31 -55 31
-13 0 -27 5 -30 10 -8 13 36 30 72 26 24 -3 29 -9 36 -47 5 -24 13 -48 18 -53
12 -13 49 22 49 46 0 10 4 18 9 18 16 0 19 -65 8 -192 -8 -99 -7 -149 3 -227
12 -95 23 -132 34 -120 3 2 1 22 -4 44 -14 66 -17 208 -4 212 8 3 14 -18 19
-57 4 -33 12 -63 17 -66 7 -5 8 12 3 52 -8 62 -7 292 1 306 8 12 -16 91 -34
111 -14 16 -14 18 1 30 26 19 33 114 12 176 -21 63 -31 70 -60 40 -21 -22 -22
-29 -14 -90 8 -64 -2 -141 -14 -109 -10 26 -27 239 -21 255 6 15 17 15 69 -5
11 -4 40 -26 64 -49 34 -32 49 -39 68 -35 31 8 49 37 58 92 7 42 21 52 43 30
10 -10 18 -6 37 17 19 24 24 42 24 85 0 30 -6 66 -14 80 -22 38 -18 62 15 106
35 46 38 64 10 64 -28 0 -25 9 20 64 22 26 40 54 40 62 0 52 63 101 161 127
31 8 66 24 78 36 29 29 57 26 78 -6z m-1372 -43 c4 -6 17 -10 30 -10 15 0 31
-11 44 -29 l21 -29 -27 9 c-16 4 -40 11 -56 14 -39 8 -92 57 -84 79 6 16 9 16
37 -4 16 -11 32 -25 35 -30z m715 25 c0 -8 -9 -15 -20 -15 -13 0 -18 5 -14 15
4 8 12 15 20 15 8 0 14 -7 14 -15z m-1320 -5 c0 -5 -4 -10 -10 -10 -5 0 -10 5
-10 10 0 6 5 10 10 10 6 0 10 -4 10 -10z m-1115 -10 c-3 -5 -10 -10 -16 -10
-5 0 -9 5 -9 10 0 6 7 10 16 10 8 0 12 -4 9 -10z m2479 -26 c10 -27 7 -31 -19
-26 -14 2 -25 6 -25 7 0 15 15 35 25 35 7 0 16 -7 19 -16z m-2193 -48 c5 -43
-9 -77 -19 -47 -2 7 -17 28 -33 46 -16 18 -29 35 -29 38 0 6 48 15 65 12 6 -1
12 -23 16 -49z m-114 20 c-3 -8 3 -26 15 -41 11 -14 18 -29 15 -32 -8 -8 -27
6 -27 21 0 20 -37 49 -55 43 -8 -4 -15 -2 -15 2 0 12 18 19 49 20 16 1 21 -3
18 -13z m263 0 c0 -7 -6 -19 -14 -25 -11 -9 -15 -7 -19 8 -3 11 -2 22 1 25 11
11 32 6 32 -8z m1039 -4 c15 -27 -31 -75 -64 -66 -37 9 -41 24 -5 24 18 0 33
6 37 15 7 21 2 25 -36 28 -48 3 -37 17 14 17 32 0 47 -5 54 -18z m-999 -25 c0
-25 -25 -66 -34 -56 -7 6 21 79 29 79 3 0 5 -10 5 -23z m657 -5 c-34 -4 -48 5
-27 18 8 5 22 4 34 -3 20 -11 20 -12 -7 -15z m-517 4 c0 -8 -4 -18 -10 -21 -5
-3 -10 3 -10 14 0 12 5 21 10 21 6 0 10 -6 10 -14z m687 -28 c-3 -7 -5 -2 -5
12 0 14 2 19 5 13 2 -7 2 -19 0 -25z m-1182 2 c3 -5 1 -10 -4 -10 -6 0 -11 5
-11 10 0 6 2 10 4 10 3 0 8 -4 11 -10z m2403 -17 c2 -14 -4 -22 -17 -26 -27
-7 -35 7 -21 33 14 25 34 21 38 -7z m133 -19 c10 -13 10 -17 -1 -24 -18 -11
-30 -3 -30 21 0 23 13 25 31 3z m-1531 -26 c-25 -9 -36 -5 -26 10 3 6 16 8 28
4 l22 -5 -24 -9z m289 3 c8 -5 9 -11 3 -15 -14 -8 -43 4 -36 15 7 11 15 11 33
0z m-1184 -32 c16 -30 15 -32 -9 -70 -28 -41 -46 -47 -89 -26 -22 10 -27 19
-27 50 l0 38 31 -36 c38 -42 58 -36 29 9 -30 50 -27 66 15 66 28 0 37 -5 50
-31z m45 21 c0 -5 -5 -10 -11 -10 -5 0 -7 5 -4 10 3 6 8 10 11 10 2 0 4 -4 4
-10z m160 -3 c0 -14 -20 -37 -32 -37 -10 0 -11 34 -1 43 11 12 33 8 33 -6z
m1937 -13 c-9 -9 -28 6 -21 18 4 6 10 6 17 -1 6 -6 8 -13 4 -17z m116 -32 c-3
-7 0 -25 8 -39 12 -23 11 -27 -10 -44 -24 -20 -52 -16 -32 4 17 17 13 42 -10
71 -20 26 -20 28 -4 46 17 19 18 19 35 -3 10 -12 15 -27 13 -35z m-1193 -9 c0
-29 -6 -53 -17 -65 -15 -17 -15 -20 5 -39 22 -20 30 -49 13 -49 -6 0 -13 5
-16 10 -3 6 -16 10 -27 10 -25 0 -47 27 -48 58 0 15 -11 29 -30 40 -16 9 -30
20 -30 25 0 15 38 6 55 -13 26 -29 55 -26 55 4 0 35 18 78 30 71 5 -3 10 -27
10 -52z m-810 34 c0 -8 -9 -22 -20 -32 -26 -24 -26 -38 1 -30 17 6 20 3 17
-12 -3 -14 -11 -17 -38 -15 -54 5 -57 17 -14 61 41 43 54 49 54 28z m-185
-243 c2 -121 0 -237 -4 -258 l-6 -39 -43 56 c-39 52 -46 57 -80 57 -21 0 -43
5 -50 12 -18 18 -15 98 5 120 15 17 15 19 -2 38 -13 14 -18 34 -16 67 1 26 4
49 7 52 3 3 21 4 40 2 38 -3 84 21 84 43 0 16 50 79 57 72 2 -2 6 -102 8 -222z
m595 31 c0 -125 5 -205 15 -243 18 -72 14 -127 -14 -172 l-21 -35 0 80 c-1
104 -8 221 -20 313 -15 115 -13 190 8 217 9 14 20 25 24 25 3 0 7 -83 8 -185z
m542 158 c-2 -14 4 -26 18 -33 17 -9 20 -17 15 -37 -4 -17 0 -32 12 -45 13
-15 15 -23 6 -36 -14 -24 -36 -21 -48 6 -12 27 -49 39 -70 22 -18 -15 -11 -28
21 -40 22 -9 23 -12 12 -30 -11 -17 -10 -22 2 -30 27 -18 71 -12 77 10 3 11 9
20 14 20 5 0 9 9 9 21 0 11 5 17 10 14 6 -3 10 -13 10 -22 0 -9 6 -24 13 -32
9 -11 12 -36 9 -73 l-4 -57 -46 -6 c-64 -9 -74 -13 -70 -28 3 -6 28 -16 56
-22 28 -5 56 -15 63 -22 18 -18 -35 -36 -81 -28 -26 4 -40 2 -48 -8 -18 -21 3
-34 73 -44 71 -10 74 -27 6 -31 -54 -3 -86 -26 -60 -43 8 -5 37 -9 66 -9 28 0
55 -5 59 -12 12 -19 -27 -38 -77 -38 -26 0 -50 -4 -53 -9 -16 -26 76 -51 113
-31 21 11 22 10 19 -22 -3 -32 -5 -33 -53 -38 -36 -4 -51 -10 -53 -22 -2 -13
6 -18 35 -23 97 -16 107 -45 15 -45 -63 0 -88 -10 -79 -33 7 -18 66 -30 111
-22 26 5 35 3 40 -10 11 -29 -4 -37 -50 -30 -45 6 -88 -8 -82 -27 2 -6 33 -18
69 -27 63 -17 64 -17 64 -51 0 -32 -3 -35 -38 -41 -48 -8 -65 -23 -48 -43 9
-10 22 -13 42 -9 35 7 59 -11 59 -42 0 -25 -22 -35 -76 -35 -28 0 -31 -3 -26
-26 2 -14 13 -31 23 -37 27 -17 23 -27 -11 -27 -33 0 -40 -14 -13 -24 14 -6
15 -9 4 -15 -11 -7 -9 -11 7 -20 27 -14 75 -14 90 1 9 9 13 7 18 -5 13 -35 -3
-47 -61 -47 -48 0 -55 -2 -55 -20 0 -25 29 -40 74 -40 20 0 36 -4 36 -10 0
-13 -31 -13 -64 -1 -17 7 -27 6 -35 -3 -16 -19 26 -54 76 -62 23 -3 44 -13 47
-20 8 -20 -31 -37 -70 -31 -19 3 -37 1 -40 -5 -12 -19 33 -51 72 -52 21 -1 39
-7 42 -14 3 -9 -15 -12 -61 -12 -71 0 -81 -4 -67 -30 12 -22 61 -40 107 -40
23 0 33 -4 30 -12 -2 -8 -24 -13 -58 -14 -67 -1 -75 -20 -24 -58 28 -22 42
-26 65 -21 26 6 30 4 30 -14 0 -22 -27 -28 -107 -23 -27 1 -33 -2 -33 -18 0
-13 15 -27 48 -42 l47 -23 -47 -3 c-39 -2 -48 -7 -48 -21 0 -23 17 -37 53 -46
42 -11 32 -25 -18 -25 -65 0 -58 -35 14 -67 l26 -11 -32 -7 c-44 -10 -58 -28
-38 -49 12 -12 36 -16 88 -16 97 0 75 -18 -27 -22 -50 -2 -81 -7 -83 -15 -8
-22 44 -44 116 -50 98 -8 88 -27 -17 -31 -73 -3 -82 -5 -82 -22 0 -32 43 -52
115 -53 90 -1 68 -15 -29 -19 -84 -3 -108 -18 -62 -39 23 -11 24 -13 10 -35
-14 -21 -14 -24 11 -40 16 -10 47 -17 80 -18 73 -1 66 -20 -10 -26 -33 -3 -60
-10 -62 -17 -7 -19 58 -53 100 -53 26 0 37 -4 37 -15 0 -11 -11 -15 -40 -15
-70 0 -62 -58 8 -63 18 -1 32 -5 32 -9 0 -9 -50 -23 -68 -20 -7 2 -15 -5 -19
-14 -10 -27 33 -56 71 -48 51 10 15 -17 -41 -31 -28 -7 -48 -18 -48 -26 0 -21
47 -40 88 -35 31 3 36 2 27 -9 -6 -8 -26 -17 -43 -21 -35 -7 -57 -21 -57 -36
0 -16 69 -39 97 -32 18 5 24 4 19 -5 -4 -6 -27 -11 -50 -11 -25 0 -48 -6 -55
-14 -18 -21 32 -56 80 -56 35 0 39 -3 39 -25 0 -25 -11 -30 -53 -27 -10 1 -20
-5 -24 -14 -8 -20 36 -65 61 -62 10 2 21 -2 23 -9 6 -17 -65 -35 -89 -22 -20
11 -38 5 -38 -13 0 -6 11 -26 25 -44 l25 -32 -25 -16 c-32 -21 -32 -44 2 -57
l26 -10 -21 -20 c-12 -11 -22 -24 -22 -29 0 -16 63 -43 98 -42 56 2 31 -22
-34 -33 -48 -9 -60 -14 -62 -31 -6 -39 50 -60 106 -40 21 7 23 5 20 -21 -3
-26 -6 -28 -41 -26 -48 3 -77 -11 -77 -37 0 -29 35 -43 87 -35 39 6 44 4 41
-11 -3 -17 -33 -29 -93 -37 -21 -2 -31 -10 -33 -25 -5 -31 37 -54 90 -50 33 2
43 0 43 -12 0 -11 -15 -17 -52 -21 -67 -9 -83 -15 -83 -33 0 -21 36 -39 90
-46 31 -3 45 -10 45 -20 0 -12 -15 -16 -67 -18 -78 -3 -98 -18 -70 -52 14 -18
32 -24 75 -28 65 -5 74 -18 21 -28 -35 -6 -36 -8 -31 -41 l6 -35 -37 7 c-90
16 -112 69 -112 262 0 72 -9 236 -19 365 -11 128 -22 298 -25 378 -3 80 -10
172 -16 205 -13 78 -40 457 -40 562 0 45 -5 85 -10 88 -13 8 -41 -58 -46 -105
-2 -19 1 -66 6 -105 5 -38 12 -130 15 -204 5 -108 4 -132 -7 -129 -7 3 -21 18
-30 34 -15 26 -16 39 -8 90 6 33 9 243 8 484 -1 285 3 473 12 570 11 116 11
210 2 465 -10 293 -12 323 -31 360 -18 34 -27 41 -59 45 -25 3 -38 11 -40 23
-3 13 4 17 30 17 43 0 71 20 63 42 -6 14 -15 16 -51 11 -39 -5 -44 -4 -44 14
0 22 34 40 85 45 28 3 30 6 26 38 -4 44 -18 70 -36 70 -8 0 -15 5 -15 10 0 6
11 10 25 10 22 0 25 4 25 39 0 22 -6 44 -15 51 -9 8 -13 21 -9 36 4 13 2 30
-4 37 -5 6 -10 67 -10 134 0 68 -3 141 -7 164 -7 40 -7 41 21 38 39 -4 59 8
43 27 -14 17 -41 18 -57 2 -9 -9 -12 -6 -12 13 0 36 8 40 60 37 40 -3 45 -5
42 -25z m1216 -40 c-10 -12 -13 -12 -21 2 -5 9 -6 24 -2 33 6 16 8 15 21 -2
10 -15 11 -23 2 -33z m-2160 -86 c2 -25 -2 -56 -8 -67 -8 -16 -8 -25 0 -35 6
-7 10 -37 8 -66 -4 -61 -21 -79 -65 -63 l-28 9 -3 135 c-1 74 0 140 2 147 4
10 14 10 48 0 42 -13 43 -14 46 -60z m1465 38 c1 -5 -6 -11 -15 -13 -11 -2
-18 3 -18 13 0 17 30 18 33 0z m-765 -11 c37 -10 25 -24 -23 -24 -33 0 -45 4
-45 15 0 16 28 19 68 9z m1351 -65 c1 -40 -13 -57 -50 -61 -21 -3 -24 1 -21
26 2 15 15 47 29 69 23 37 27 39 34 22 4 -11 8 -36 8 -56z m-115 22 c3 -4 -3
-19 -14 -31 -11 -13 -20 -31 -20 -40 0 -30 -37 -103 -45 -90 -4 6 -2 17 4 23
6 6 11 17 11 24 0 7 9 37 21 68 20 53 31 65 43 46z m186 -38 c0 -23 -4 -33 -9
-27 -9 8 -4 64 5 64 2 0 4 -17 4 -37z m-1348 2 c0 -5 -5 -11 -11 -13 -6 -2
-11 4 -11 13 0 9 5 15 11 13 6 -2 11 -8 11 -13z m-42 -32 c8 -4 -5 -10 -30
-14 -91 -15 -128 -7 -77 17 21 10 76 8 107 -3z m428 -24 c2 -5 12 -9 22 -9 38
0 44 -20 56 -183 4 -54 10 -100 14 -102 4 -2 4 -24 1 -47 -6 -40 4 -357 13
-438 2 -19 7 -80 10 -135 4 -55 9 -118 12 -140 3 -22 9 -150 14 -285 8 -215 7
-253 -8 -307 -13 -51 -14 -69 -4 -95 6 -18 9 -43 6 -56 -4 -12 -1 -29 6 -37
10 -12 10 -19 2 -27 -18 -18 -15 -28 14 -38 26 -10 25 -30 -2 -30 -21 0 -17
-31 6 -37 11 -3 20 -9 20 -13 0 -4 -9 -10 -20 -13 -11 -3 -20 -10 -20 -17 0
-7 9 -14 20 -17 24 -6 26 -19 5 -27 -20 -7 -19 -32 1 -40 15 -6 15 -8 -1 -26
-17 -19 -17 -21 -1 -39 11 -12 14 -21 7 -26 -18 -11 -13 -86 7 -101 15 -12 15
-15 2 -24 -13 -9 -13 -12 2 -24 13 -10 15 -15 6 -24 -9 -9 -9 -15 0 -24 8 -8
8 -15 1 -24 -7 -8 -7 -19 -1 -31 5 -10 12 -44 15 -76 3 -32 11 -65 18 -73 9
-11 9 -18 -2 -30 -9 -12 -10 -20 -2 -33 7 -11 8 -23 3 -32 -6 -8 -4 -20 6 -30
13 -14 13 -18 -1 -29 -21 -18 -19 -47 6 -60 19 -11 19 -13 5 -35 -14 -21 -15
-36 -5 -107 6 -46 11 -99 10 -120 0 -21 6 -41 15 -48 13 -11 12 -15 -3 -32
-17 -19 -17 -20 1 -34 16 -11 17 -16 6 -29 -11 -13 -11 -21 -2 -36 9 -14 9
-25 0 -44 -9 -20 -8 -28 6 -44 17 -18 17 -20 0 -29 -15 -8 -16 -13 -5 -26 7
-8 10 -20 6 -26 -4 -6 -1 -18 6 -27 11 -13 10 -17 -4 -28 -21 -15 -22 -64 -1
-72 13 -5 12 -8 -5 -25 -26 -24 -27 -38 -1 -45 24 -6 26 -21 5 -29 -20 -8 -19
-30 1 -38 15 -6 15 -8 -1 -26 -17 -19 -17 -21 0 -40 15 -16 16 -22 5 -35 -11
-13 -10 -18 5 -29 13 -9 15 -15 7 -20 -18 -11 -14 -43 4 -50 15 -6 15 -8 0
-25 -13 -14 -14 -24 -7 -44 5 -13 7 -33 5 -44 -3 -10 -1 -29 4 -43 6 -15 5
-34 -2 -52 -8 -21 -7 -34 2 -48 7 -11 10 -31 6 -44 -3 -13 -1 -27 6 -31 8 -5
8 -10 0 -20 -6 -8 -10 -22 -9 -32 2 -10 -1 -28 -5 -41 -5 -14 -2 -33 8 -53 12
-24 13 -35 4 -49 -9 -14 -9 -22 1 -34 10 -12 11 -19 2 -30 -9 -10 -8 -16 4
-26 9 -7 13 -20 10 -28 -3 -8 -1 -20 5 -27 8 -9 8 -15 0 -20 -19 -12 -12 -56
11 -62 21 -6 21 -7 4 -19 -15 -11 -16 -16 -5 -29 10 -12 10 -18 0 -30 -10 -12
-10 -18 0 -30 10 -12 10 -18 0 -30 -10 -13 -10 -19 4 -33 9 -10 13 -22 9 -26
-4 -4 0 -12 10 -17 18 -11 24 -49 6 -49 -6 0 -19 5 -29 10 -15 8 -21 6 -30
-10 -9 -16 -8 -21 5 -25 8 -3 22 -7 30 -10 20 -6 19 -25 -1 -25 -13 0 -11 -4
6 -18 25 -20 20 -42 -8 -42 -14 -1 -12 -5 8 -21 22 -19 23 -22 7 -30 -9 -6
-17 -19 -17 -29 0 -11 -6 -20 -14 -20 -9 0 -3 -11 15 -30 33 -33 30 -53 -6
-48 -32 4 -34 -14 -3 -29 14 -7 31 -19 37 -27 15 -18 3 -46 -19 -46 -23 0 -36
-18 -18 -25 62 -22 67 -25 62 -40 -4 -9 -18 -15 -35 -15 -27 0 -29 -2 -23 -27
3 -16 19 -39 35 -53 33 -29 35 -61 7 -102 -21 -31 -16 -70 12 -103 32 -38 31
-44 -12 -87 l-43 -43 33 -3 c39 -4 33 -22 -8 -22 -83 0 -90 16 -96 240 -2 80
-8 330 -14 555 -6 226 -13 428 -15 450 -3 22 -7 119 -11 215 -3 96 -12 213
-19 260 -8 47 -16 177 -20 290 -9 320 -15 458 -25 555 -5 50 -12 144 -15 210
-3 66 -10 188 -15 270 -5 83 -12 209 -15 280 -9 186 -43 515 -55 530 -5 6 -8
14 -6 16 3 2 0 45 -5 94 -5 50 -9 131 -9 180 1 50 -4 131 -9 180 -6 50 -13
124 -16 165 -3 41 -10 116 -15 165 -5 50 -15 185 -20 300 -6 116 -17 302 -25
415 -22 317 -27 430 -21 446 5 12 14 14 38 9 18 -4 35 -11 36 -16z m-615 -93
c2 -72 -4 -94 -17 -61 -6 16 4 148 11 141 2 -2 5 -38 6 -80z m1604 62 c-3 -8
-6 -5 -6 6 -1 11 2 17 5 13 3 -3 4 -12 1 -19z m-1409 -58 c1 -27 -3 -50 -9
-50 -5 0 -9 5 -9 10 0 6 -12 15 -26 20 -22 9 -24 13 -14 25 25 30 0 27 -30 -3
-34 -34 -39 -62 -12 -62 29 0 34 -12 12 -27 -33 -23 -25 -43 18 -44 20 -1 43
-1 50 0 15 2 19 -10 25 -71 5 -55 -4 -78 -26 -60 -11 10 -17 9 -27 -3 -7 -8
-18 -15 -24 -15 -7 0 -21 -6 -31 -14 -16 -12 -17 -16 -6 -30 7 -9 24 -16 37
-16 15 0 24 -6 24 -16 0 -10 -6 -13 -18 -10 -10 4 -26 0 -36 -7 -17 -13 -17
-14 -1 -30 9 -9 23 -17 32 -17 26 0 8 -24 -25 -32 -22 -6 -32 -15 -32 -28 0
-11 -5 -29 -12 -39 -19 -30 -3 -51 39 -51 29 0 34 -3 25 -12 -7 -7 -27 -13
-45 -14 -18 0 -44 -4 -59 -8 -27 -8 -28 -7 -28 32 0 22 -6 45 -14 51 -8 7 -12
20 -9 30 7 26 -22 47 -42 31 -12 -10 -19 -10 -28 -1 -16 16 -10 166 9 202 7
15 14 39 14 53 l0 25 23 -22 c13 -12 32 -27 43 -34 17 -11 15 -12 -18 -12 -52
-1 -56 -25 -23 -117 27 -73 28 -75 47 -57 12 10 17 25 14 37 -3 11 1 27 8 36
8 8 16 33 19 55 3 22 10 58 16 80 6 22 11 77 11 122 0 45 4 84 10 88 5 3 7 11
4 19 -7 17 33 35 83 35 l41 1 0 -50z m1316 -63 c6 -9 7 -19 3 -23 -9 -9 -37
15 -37 33 0 18 20 12 34 -10z m-324 3 c11 -7 0 -10 -37 -10 -29 0 -53 5 -53
10 0 13 70 13 90 0z m-1789 -17 c-5 -10 -13 -27 -16 -38 l-7 -20 -8 20 c-16
38 -11 55 15 55 21 0 24 -3 16 -17z m59 -3 c0 -23 -10 -26 -28 -8 -18 18 -15
28 8 28 13 0 20 -7 20 -20z m-319 0 c11 0 24 -11 30 -24 9 -20 8 -27 -10 -45
-12 -12 -21 -28 -21 -36 0 -8 -4 -15 -10 -15 -15 0 -12 12 10 40 11 14 20 31
20 37 0 15 -54 45 -64 36 -3 -4 -6 -1 -6 6 0 8 6 11 16 7 9 -3 24 -6 35 -6z
m2059 -26 c12 -12 12 -14 -4 -14 -12 0 -16 -5 -12 -15 3 -8 -2 -18 -10 -23
-12 -6 -6 -11 24 -20 45 -14 55 -30 46 -78 -7 -38 -25 -47 -21 -11 2 21 -2 22
-53 20 -147 -4 -177 -25 -48 -33 45 -3 83 -10 85 -16 5 -14 -69 -43 -87 -33
-8 4 -36 15 -62 24 l-47 16 3 68 c2 55 7 74 29 103 26 34 28 35 84 30 32 -2
65 -10 73 -18z m-1740 -54 c0 -19 -5 -30 -14 -30 -18 0 -29 42 -13 52 21 13
27 9 27 -22z m-360 10 c0 -5 -5 -10 -11 -10 -5 0 -7 5 -4 10 3 6 8 10 11 10 2
0 4 -4 4 -10z m120 -31 c0 -5 -4 -9 -10 -9 -5 0 -10 7 -10 16 0 8 5 12 10 9 6
-3 10 -10 10 -16z m78 -61 c-6 -16 -36 -34 -44 -26 -3 4 -4 14 -1 23 7 17 51
21 45 3z m842 -277 c0 -6 -4 -13 -10 -16 -5 -3 -10 1 -10 9 0 9 5 16 10 16 6
0 10 -4 10 -9z m155 -91 c27 0 7 -16 -32 -25 -18 -3 -34 -2 -38 4 -10 18 6 33
29 27 11 -3 30 -6 41 -6z m-205 -80 c7 -13 21 -20 40 -20 47 0 36 -25 -12 -27
-23 -2 -46 -7 -51 -12 -16 -16 1 -41 25 -41 13 0 34 -7 46 -16 17 -12 35 -14
72 -9 34 5 50 3 50 -4 0 -7 -27 -11 -75 -11 -59 0 -77 -3 -82 -15 -7 -20 -1
-26 39 -35 l33 -8 -37 -1 c-20 -1 -40 4 -43 9 -8 13 -25 13 -25 1 0 -5 18 -15
40 -23 41 -13 51 -35 14 -30 -11 2 -29 -7 -39 -18 -16 -18 -17 -23 -5 -30 12
-7 11 -12 -4 -29 -20 -22 -18 -66 4 -66 37 -1 81 -18 90 -35 19 -36 11 -40
-42 -20 -29 11 -63 20 -75 20 -40 0 -40 6 -29 285 2 55 7 112 11 128 9 32 39
37 55 7z m218 -69 c4 -11 -3 -12 -34 -7 -56 11 -64 25 -13 23 26 -1 44 -7 47
-16z m-23 -131 c-28 -12 -45 -12 -45 0 0 6 15 10 33 9 27 0 29 -2 12 -9z m275
-60 c0 -5 -7 -10 -15 -10 -8 0 -15 5 -15 10 0 6 7 10 15 10 8 0 15 -4 15 -10z
m-273 -6 c-3 -3 -12 -4 -19 -1 -8 3 -5 6 6 6 11 1 17 -2 13 -5z m-144 -201
c14 -8 -14 -33 -37 -33 -29 0 -61 24 -52 39 7 11 67 7 89 -6z m392 -313 c3 -5
2 -10 -4 -10 -5 0 -13 5 -16 10 -3 6 -2 10 4 10 5 0 13 -4 16 -10z m85 -330
c0 -5 -5 -10 -11 -10 -5 0 -7 5 -4 10 3 6 8 10 11 10 2 0 4 -4 4 -10z m-200
-856 c0 -14 -4 -23 -10 -19 -5 3 -10 15 -10 26 0 10 5 19 10 19 6 0 10 -12 10
-26z m295 -454 c3 -5 -1 -10 -9 -10 -9 0 -16 5 -16 10 0 6 4 10 9 10 6 0 13
-4 16 -10z m1500 -425 c0 -10 -6 -20 -12 -22 -8 -3 -13 5 -13 22 0 17 5 25 13
23 6 -3 12 -13 12 -23z m-1632 -349 c12 -3 44 -7 72 -10 88 -11 82 -38 -9 -39
-82 -1 -137 51 -136 130 1 24 4 21 26 -25 17 -34 33 -53 47 -56z m777 -90 c0
-3 -4 -8 -10 -11 -5 -3 -10 -1 -10 4 0 6 5 11 10 11 6 0 10 -2 10 -4z m880
-37 c0 -10 -7 -19 -15 -19 -15 0 -21 31 -9 43 11 10 24 -3 24 -24z m3 -103 c7
-16 -1 -26 -20 -26 -7 0 -13 9 -13 20 0 23 25 27 33 6z m-101 -18 c-6 -6 -15
-8 -19 -4 -4 4 -1 11 7 16 19 12 27 3 12 -12z m98 -93 c0 -8 -7 -15 -15 -15
-8 0 -15 7 -15 15 0 8 7 15 15 15 8 0 15 -7 15 -15z m-92 -60 c-3 -3 -13 -2
-22 1 -14 5 -15 9 -4 15 13 8 36 -6 26 -16z m-909 -41 c29 26 28 0 -1 -31 -27
-28 -32 -29 -58 -1 -31 34 -26 51 9 30 28 -16 31 -15 50 2z m998 -10 c-9 -9
-28 6 -21 18 4 6 10 6 17 -1 6 -6 8 -13 4 -17z m-82 -14 c12 -19 -5 -30 -25
-17 -11 6 -20 15 -20 19 0 12 38 10 45 -2z m88 -75 c1 -5 -6 -11 -15 -13 -11
-2 -18 3 -18 13 0 17 30 18 33 0z m-983 -25 c0 -13 -7 -20 -18 -20 -30 0 -34
13 -10 27 30 16 28 16 28 -7z m188 -64 c9 -9 13 -18 10 -21 -10 -10 -102 21
-106 35 -6 18 76 7 96 -14z m700 2 c-5 -15 -118 -23 -118 -9 0 5 19 12 43 14
23 2 50 4 60 5 11 1 17 -3 15 -10z m-7 -81 c-1 -4 -3 -7 -6 -7 -3 0 -17 0 -32
1 l-28 1 25 8 c28 9 42 8 41 -3z m109 -1 c0 -8 -5 -18 -11 -22 -14 -8 -33 11
-25 25 10 16 36 13 36 -3z m-832 -31 c12 -3 22 -11 22 -16 0 -6 -9 -7 -22 -3
-13 4 -32 8 -43 9 -27 3 -27 3 -20 15 4 6 14 9 23 6 10 -2 27 -7 40 -11z m3
-45 c16 11 29 4 29 -16 0 -11 -9 -13 -40 -8 -44 7 -73 -8 -63 -32 3 -8 18 -14
34 -14 16 0 29 -4 29 -10 0 -5 -18 -10 -40 -10 -40 0 -40 0 -40 38 0 48 14 62
50 52 15 -4 33 -4 41 0z m736 -7 c5 -14 -54 -18 -97 -6 -25 7 -25 7 5 13 49 9
88 6 92 -7z m82 -12 c9 -6 10 -11 2 -15 -13 -8 -31 1 -31 15 0 11 11 11 29 0z
m-79 -78 c0 -15 -8 -18 -52 -15 -65 4 -81 9 -73 22 3 5 33 10 66 10 50 0 59
-3 59 -17z m-986 -54 c-7 -11 -44 -12 -44 -1 0 15 11 20 30 15 11 -3 17 -9 14
-14z m232 6 c18 -13 17 -14 -18 -15 -37 0 -51 13 -25 23 19 8 22 8 43 -8z
m-359 -43 c9 -99 11 -354 3 -312 -12 65 -24 366 -14 357 4 -4 10 -25 11 -45z
m213 23 c7 -8 8 -15 2 -15 -5 0 -15 7 -22 15 -7 8 -8 15 -2 15 5 0 15 -7 22
-15z m880 -14 c0 -11 -61 -21 -75 -12 -5 3 8 9 30 12 22 3 41 7 43 8 1 0 2 -3
2 -8z m-749 -26 c24 -9 49 -13 57 -10 8 3 12 0 9 -7 -2 -9 -20 -12 -53 -9 -56
4 -64 7 -64 27 0 17 -2 17 51 -1z m769 -55 c0 -5 -5 -10 -11 -10 -5 0 -7 5 -4
10 3 6 8 10 11 10 2 0 4 -4 4 -10z m-740 -35 c13 -14 21 -27 19 -30 -3 -2 -25
-1 -50 3 -35 6 -45 12 -47 30 -3 18 1 22 26 22 18 0 37 -9 52 -25z m-274 -22
c-10 -10 -19 5 -10 18 6 11 8 11 12 0 2 -7 1 -15 -2 -18z m1114 17 c0 -5 -4
-10 -10 -10 -5 0 -10 5 -10 10 0 6 5 10 10 10 6 0 10 -4 10 -10z m-100 -40 c0
-5 -21 -9 -47 -9 -47 2 -47 2 -13 9 52 11 60 11 60 0z m-314 -46 c-3 -8 -10
-12 -16 -9 -7 4 -6 14 2 28 12 24 24 8 14 -19z m-453 14 c28 -14 38 -34 11
-24 -9 3 -27 6 -40 6 -15 0 -24 6 -24 15 0 18 17 19 53 3z m-233 -12 c0 -8 -4
-17 -9 -20 -10 -7 -23 19 -14 28 11 11 23 6 23 -8z m1110 -6 c0 -13 -7 -20
-20 -20 -19 0 -27 20 -13 33 13 14 33 6 33 -13z m-860 -58 c30 -25 18 -43 -23
-35 -40 7 -51 17 -44 37 8 21 40 20 67 -2z m380 -4 c0 -16 -3 -19 -11 -11 -6
6 -8 16 -5 22 11 17 16 13 16 -11z m374 3 c3 -5 -14 -11 -39 -13 -46 -3 -63 7
-22 15 40 8 56 7 61 -2z m112 -49 c-7 -11 -46 -4 -46 8 0 12 33 18 44 9 4 -4
5 -12 2 -17z m-313 -17 c42 -9 32 -23 -19 -27 -48 -3 -62 7 -50 37 4 11 10 13
23 6 10 -5 30 -12 46 -16z m-562 -26 l24 -21 -25 6 c-14 3 -33 6 -42 6 -10 0
-18 7 -18 15 0 22 34 18 61 -6z m764 -9 c-3 -5 -13 -6 -21 -3 -12 4 -13 8 -3
14 15 9 32 2 24 -11z m-1095 -88 c0 -94 -14 -80 -18 19 -2 48 0 69 7 64 6 -3
11 -39 11 -83z m1220 46 c0 -10 -4 -18 -10 -18 -5 0 -10 15 -10 33 0 24 3 28
10 17 5 -8 10 -23 10 -32z m-304 1 c3 -5 -11 -9 -31 -9 -29 0 -36 -3 -33 -17
2 -10 14 -19 28 -21 47 -7 48 -23 1 -20 -38 3 -46 7 -54 31 -14 43 -5 53 42
49 23 -2 44 -8 47 -13z m-599 -11 c42 -15 43 -29 1 -22 -50 9 -60 13 -53 24 8
13 11 13 52 -2z m410 -50 c-3 -8 -6 -5 -6 6 -1 11 2 17 5 13 3 -3 4 -12 1 -19z
m373 12 c0 -5 -7 -10 -15 -10 -8 0 -15 5 -15 10 0 6 7 10 15 10 8 0 15 -4 15
-10z m-810 -20 c0 -5 -4 -10 -10 -10 -5 0 -10 5 -10 10 0 6 5 10 10 10 6 0 10
-4 10 -10z m-190 -10 c0 -5 -2 -10 -4 -10 -3 0 -8 5 -11 10 -3 6 -1 10 4 10 6
0 11 -4 11 -10z m260 -51 l0 -35 -45 10 c-55 13 -63 38 -9 29 35 -6 37 -5 31
19 -4 14 -4 28 0 32 11 11 23 -17 23 -55z m860 36 c0 -16 -35 -21 -44 -6 -8
12 4 21 26 21 10 0 18 -7 18 -15z m-277 -34 c15 -15 10 -17 -65 -25 -56 -5
-68 -4 -68 8 0 8 8 20 18 26 20 13 99 7 115 -9z m167 -8 c0 -15 -75 -19 -84
-4 -8 13 -1 16 43 16 27 1 41 -3 41 -12z m-1039 -83 c21 -6 59 -11 84 -12 42
0 45 -2 45 -28 0 -23 5 -30 30 -35 16 -4 39 -4 50 0 12 4 39 4 62 0 l41 -7
-29 -25 c-16 -13 -41 -29 -56 -34 -16 -6 -28 -15 -28 -20 0 -5 -10 -9 -22 -9
-52 -1 -198 -123 -198 -166 0 -7 14 -29 31 -49 22 -25 39 -35 60 -35 44 0 244
38 399 77 30 7 66 13 80 13 14 0 45 9 69 20 24 11 54 20 67 20 13 0 32 4 42 9
9 5 30 13 47 18 17 4 39 23 50 40 19 30 23 32 65 27 37 -5 48 -2 64 15 11 12
26 21 35 21 9 1 32 7 52 14 32 11 41 11 72 -4 19 -9 51 -20 72 -23 43 -7 115
-69 115 -99 0 -11 -16 -24 -45 -37 -25 -11 -45 -22 -45 -25 0 -3 11 -22 25
-42 33 -49 20 -64 -34 -39 -35 15 -46 16 -85 5 -32 -9 -49 -9 -64 -1 -51 27
-228 -1 -271 -43 -12 -13 -11 -16 10 -25 13 -5 68 -17 122 -27 53 -9 97 -20
97 -25 0 -5 -1 -9 -2 -10 -2 0 -294 -3 -650 -6 -475 -4 -648 -3 -648 5 0 15
43 26 73 19 16 -4 27 1 40 19 l18 24 -36 0 c-20 0 -53 -9 -75 -20 -51 -26 -59
-25 -102 10 -21 18 -43 28 -52 24 -22 -9 -82 55 -78 84 4 27 92 95 170 131 47
22 53 23 69 9 28 -25 80 -31 132 -17 54 14 70 25 82 56 6 16 17 23 36 24 117
6 144 14 129 38 -6 10 -112 7 -148 -5 -23 -7 -26 1 -33 91 -3 44 -8 89 -11
100 -4 16 -1 14 16 -7 12 -16 39 -32 61 -38z m295 15 c-3 -9 -11 -13 -16 -10
-8 5 -7 11 1 21 14 18 24 11 15 -11z m580 -6 c23 -19 8 -24 -92 -26 -100 -2
-118 7 -61 33 37 17 130 13 153 -7z m154 -9 c0 -5 -11 -10 -25 -10 -14 0 -28
0 -32 -1 -4 0 -9 4 -11 10 -2 7 11 11 32 11 20 0 36 -4 36 -10z m120 -25 c0
-20 -5 -25 -25 -25 -24 0 -51 31 -38 44 3 3 19 6 35 6 23 0 28 -4 28 -25z
m-242 -69 c4 -32 -18 -35 -37 -5 -12 20 -19 21 -97 16 -46 -2 -84 -1 -84 3 0
14 39 18 130 14 83 -3 85 -3 88 -28z m122 15 c0 -5 -7 -11 -15 -15 -9 -3 -15
0 -15 9 0 8 7 15 15 15 8 0 15 -4 15 -9z m-274 -55 c-21 -7 -44 -20 -52 -31
-13 -17 -14 -17 -20 -1 -11 28 18 43 86 44 19 0 15 -3 -14 -12z m-323 -18 c-3
-13 -10 -28 -15 -35 -5 -7 -5 -14 2 -18 16 -10 12 -21 -15 -33 -14 -6 -25 -17
-25 -24 0 -7 -17 -27 -38 -44 -33 -28 -48 -32 -122 -39 -47 -4 -96 -12 -109
-17 -18 -6 -28 -5 -40 6 -36 37 35 112 166 177 48 24 70 30 96 25 25 -5 38 -2
47 9 7 8 23 15 35 15 19 0 22 -4 18 -22z m197 -14 c0 -14 -4 -23 -10 -19 -5 3
-10 15 -10 26 0 10 5 19 10 19 6 0 10 -12 10 -26z m-729 -47 c-8 -8 -11 -7
-11 4 0 20 13 34 18 19 3 -7 -1 -17 -7 -23z m1470 -188 c70 -58 175 -109 225
-109 38 0 114 -24 114 -35 0 -3 -125 -5 -279 -5 -266 1 -279 2 -274 20 3 12
-4 24 -21 35 -14 10 -24 21 -21 25 8 13 58 18 84 8 68 -25 147 24 123 77 -16
34 -8 32 49 -16z m-345 -51 c24 -12 42 -23 40 -25 -4 -4 -143 15 -170 23 -15
5 -16 8 -5 15 25 16 91 9 135 -13z m-1632 -67 c14 -16 29 -18 96 -16 44 2 82
-1 85 -6 4 -5 -29 -9 -78 -9 -46 0 -118 -3 -160 -6 -67 -6 -77 -5 -77 9 0 39
104 61 134 28z"/>
<path d="M2883 7369 c-24 -9 -31 -43 -13 -54 6 -3 10 -17 10 -30 0 -33 14 -38
40 -17 21 17 22 21 10 58 -16 50 -20 54 -47 43z"/>
<path d="M578 8058 c-16 -5 -28 -13 -28 -18 0 -16 32 -20 53 -5 12 8 32 15 44
15 13 0 23 5 23 10 0 13 -56 12 -92 -2z"/>
<path d="M765 7990 c3 -5 8 -10 11 -10 2 0 4 5 4 10 0 6 -5 10 -11 10 -5 0 -7
-4 -4 -10z"/>
<path d="M1772 7729 c7 -20 14 -27 20 -21 6 6 6 17 -1 31 -18 32 -31 25 -19
-10z"/>
<path d="M1940 7644 c-29 -25 -30 -27 -14 -45 20 -22 36 -15 32 14 -2 14 5 25
19 32 13 7 20 15 16 18 -11 12 -20 8 -53 -19z"/>
<path d="M2019 7659 c-10 -6 -7 -9 14 -9 29 0 35 5 14 13 -8 3 -20 1 -28 -4z"/>
<path d="M2191 7610 c19 -10 41 -26 48 -34 7 -9 17 -13 22 -10 14 8 -60 64
-85 64 -17 -1 -13 -5 15 -20z"/>
<path d="M1985 7590 c4 -6 11 -8 16 -5 14 9 11 15 -7 15 -8 0 -12 -5 -9 -10z"/>
<path d="M2070 7590 c19 -13 30 -13 30 0 0 6 -10 10 -22 10 -19 0 -20 -2 -8
-10z"/>
<path d="M2166 7568 c22 -19 53 -38 69 -42 17 -4 38 -14 47 -23 9 -8 22 -12
27 -8 14 8 14 -20 0 -43 -9 -15 -8 -25 7 -47 l19 -29 5 44 c3 25 8 50 12 55
12 20 -10 39 -62 52 -28 7 -66 24 -83 37 -18 13 -43 27 -56 31 -19 6 -16 1 15
-27z"/>
<path d="M2325 7557 c11 -7 34 -28 52 -46 21 -22 33 -29 33 -20 0 17 -33 50
-67 68 -29 15 -44 13 -18 -2z"/>
<path d="M2461 7481 c-11 -7 -9 -11 8 -21 13 -6 30 -9 39 -5 15 6 15 8 -2 21
-23 16 -26 17 -45 5z"/>
<path d="M2370 7360 c-25 -26 -31 -28 -61 -20 -25 7 -38 6 -56 -5 -13 -9 -23
-17 -23 -20 0 -2 24 -3 53 -3 28 0 64 -3 79 -7 24 -6 27 -4 30 21 2 18 9 29
18 29 10 0 14 -8 12 -27 -1 -16 2 -37 8 -48 11 -21 40 -28 40 -9 0 5 -4 8 -9
4 -5 -3 -12 -1 -15 4 -4 5 -2 12 4 16 17 10 11 61 -8 78 -26 24 -40 21 -72
-13z"/>
<path d="M2160 7320 c-8 -5 -11 -12 -8 -16 10 -9 38 3 38 16 0 12 -10 13 -30
0z"/>
<path d="M2253 7268 c-44 -21 -26 -36 21 -18 16 6 27 6 31 0 4 -6 -1 -10 -9
-10 -9 0 -16 -4 -16 -10 0 -16 40 -11 47 5 3 9 -2 22 -13 30 -22 17 -31 17
-61 3z"/>
<path d="M2373 7215 c-7 -20 27 -59 40 -46 14 14 -1 61 -19 61 -8 0 -17 -7
-21 -15z"/>
<path d="M2467 7204 c-13 -13 -7 -44 7 -44 8 0 17 4 20 9 7 11 -18 44 -27 35z"/>
<path d="M2258 7186 c-25 -19 -22 -36 6 -36 25 0 37 15 28 38 -5 15 -12 15
-34 -2z"/>
<path d="M2523 7173 c-38 -55 -44 -82 -29 -111 26 -49 72 -97 80 -83 5 8 1 14
-13 18 -13 3 -21 13 -21 26 0 11 -7 28 -16 38 -13 14 -13 24 -5 57 6 22 18 45
26 52 8 7 15 16 15 21 0 18 -19 8 -37 -18z"/>
<path d="M2200 7074 c0 -20 17 -44 32 -44 15 0 8 27 -12 45 -19 18 -20 17 -20
-1z"/>
<path d="M2600 7029 c9 -16 9 -28 1 -47 -14 -29 -6 -42 13 -21 26 26 24 64 -5
79 -19 11 -20 10 -9 -11z"/>
<path d="M1810 7064 c0 -8 5 -12 10 -9 6 4 8 11 5 16 -9 14 -15 11 -15 -7z"/>
<path d="M1855 7024 l-30 -24 65 2 c59 3 65 5 66 25 1 18 -1 20 -17 10 -14 -9
-24 -9 -37 -1 -14 9 -24 7 -47 -12z"/>
<path d="M2070 6811 c0 -12 5 -21 10 -21 6 0 10 6 10 14 0 8 -4 18 -10 21 -5
3 -10 -3 -10 -14z"/>
<path d="M2780 6525 c-13 -15 -10 -30 29 -181 12 -44 23 -116 24 -159 2 -61 6
-80 19 -89 32 -20 41 6 41 118 0 102 -16 177 -64 304 -10 25 -31 29 -49 7z"/>
<path d="M2334 5965 c-10 -25 2 -40 32 -41 16 -1 46 -5 66 -9 50 -10 90 1 86
23 -2 10 -13 17 -28 18 -14 1 -43 6 -65 13 -54 15 -85 14 -91 -4z"/>
<path d="M2546 5954 c-11 -28 -6 -54 9 -54 16 0 31 43 20 59 -9 16 -22 13 -29
-5z"/>
<path d="M2372 5872 c-6 -2 -12 -14 -12 -26 0 -20 7 -24 46 -30 72 -9 100 -7
114 9 14 17 20 14 -75 37 -33 8 -66 13 -73 10z"/>
<path d="M2297 5813 c-12 -11 -7 -40 8 -53 12 -10 14 -24 9 -63 l-7 -50 27 5
c16 3 29 1 32 -6 3 -8 35 -12 92 -13 48 0 95 -4 106 -8 12 -5 21 -3 27 6 15
24 4 34 -37 35 -21 0 -49 6 -61 12 -28 16 -106 15 -121 0 -9 -9 -12 -7 -12 9
0 36 24 46 95 40 36 -4 74 -11 86 -17 33 -18 49 -5 49 39 0 47 -18 63 -37 34
-13 -20 -16 -20 -60 -7 -29 9 -65 12 -94 8 -41 -6 -49 -4 -61 15 -13 21 -29
27 -41 14z"/>
<path d="M2566 5257 c-18 -13 -18 -18 -6 -48 19 -48 24 -52 60 -44 36 8 49 31
27 48 -8 7 -17 21 -19 32 -4 25 -36 31 -62 12z"/>
<path d="M2602 5118 c-5 -5 -7 -19 -5 -29 8 -28 68 -23 68 5 0 22 -47 40 -63
24z"/>
<path d="M2620 5006 c0 -29 16 -37 48 -23 33 15 24 41 -16 45 -28 3 -32 0 -32
-22z"/>
<path d="M2670 4868 c0 -32 17 -46 26 -23 4 9 0 24 -10 33 -15 15 -16 14 -16
-10z"/>
<path d="M2650 4780 c0 -25 4 -30 25 -30 25 0 46 26 38 48 -3 6 -18 12 -34 12
-26 0 -29 -4 -29 -30z"/>
<path d="M2662 4708 c-7 -7 -8 -17 -1 -30 8 -14 21 -18 64 -18 49 0 55 2 55
20 0 34 -91 55 -118 28z"/>
<path d="M2685 4616 c-11 -8 -16 -19 -12 -30 10 -25 80 -18 85 8 7 33 -39 47
-73 22z"/>
<path d="M2665 4530 c-3 -5 1 -23 10 -39 8 -17 15 -37 15 -45 0 -8 10 -22 22
-30 18 -13 19 -16 6 -16 -22 0 -31 -15 -23 -40 7 -23 49 -27 90 -8 24 11 26
15 19 52 -3 23 -13 48 -20 57 -13 14 -12 18 8 31 20 13 21 17 9 32 -15 18
-125 23 -136 6z"/>
<path d="M2741 4309 c-15 -6 -21 -14 -17 -25 3 -9 6 -20 6 -25 0 -5 9 -9 19
-9 27 0 34 -15 33 -69 0 -25 5 -81 12 -123 11 -60 20 -84 42 -107 31 -33 88
-49 110 -30 19 16 9 27 -41 49 -41 17 -43 21 -54 77 -6 32 -17 81 -25 110 -8
28 -12 69 -9 92 9 63 -18 84 -76 60z"/>
<path d="M2910 4080 c-6 -12 -9 -24 -6 -27 3 -3 31 -6 63 -7 53 -1 58 1 61 22
3 19 -1 22 -30 22 -18 0 -43 3 -55 6 -15 4 -25 0 -33 -16z"/>
<path d="M2544 3974 c-7 -28 7 -44 38 -44 24 0 30 14 18 44 -13 35 -47 35 -56
0z"/>
<path d="M2396 3944 c-29 -43 -33 -71 -12 -99 12 -16 16 -17 30 -6 10 9 14 22
10 37 -4 14 -1 38 6 55 21 50 -3 59 -34 13z"/>
<path d="M2994 3956 c-13 -34 3 -44 81 -51 54 -5 80 -4 88 4 18 19 -15 38 -80
46 -31 4 -62 9 -69 12 -8 3 -17 -2 -20 -11z"/>
<path d="M2529 3899 c-13 -24 -5 -35 33 -44 36 -9 48 17 23 45 -23 26 -41 25
-56 -1z"/>
<path d="M2887 3883 c-3 -5 -3 -19 0 -31 5 -21 24 -28 63 -24 31 3 90 -10 90
-20 0 -6 -11 -8 -25 -4 -41 10 -75 -3 -75 -29 0 -12 6 -26 13 -31 18 -13 224
-10 287 4 119 27 106 48 -35 58 -80 6 -94 9 -69 16 17 4 37 14 44 23 22 27 1
36 -78 35 -43 -1 -107 1 -143 5 -40 5 -69 4 -72 -2z"/>
<path d="M2534 3805 c-10 -25 4 -45 31 -45 30 0 43 24 25 45 -16 19 -49 19
-56 0z"/>
<path d="M3447 3730 c-5 -20 -10 -20 -181 -17 -106 2 -179 0 -183 -6 -3 -5
-23 -7 -44 -4 -48 6 -71 -9 -58 -40 8 -23 42 -30 104 -25 11 1 98 3 192 5 192
3 203 7 206 68 2 39 -27 54 -36 19z"/>
<path d="M2531 3718 c-11 -29 1 -42 28 -33 29 9 29 55 1 55 -12 0 -24 -9 -29
-22z"/>
<path d="M2556 3645 c-4 -16 -13 -25 -27 -25 -25 0 -35 -25 -18 -46 18 -22 64
-14 65 11 0 11 4 28 8 38 9 19 2 47 -13 47 -5 0 -12 -11 -15 -25z"/>
<path d="M3004 3608 c-4 -5 1 -17 10 -26 11 -12 39 -17 106 -19 50 -2 100 -8
111 -14 20 -10 250 -41 257 -34 2 2 -2 16 -10 31 -15 32 -26 35 -183 55 -132
17 -283 20 -291 7z"/>
<path d="M2492 3531 c-8 -4 -12 -17 -10 -27 5 -26 85 -33 94 -9 4 9 3 20 -2
25 -15 13 -68 21 -82 11z"/>
<path d="M3068 3528 c-39 -10 -48 -27 -25 -46 6 -5 77 -12 157 -14 124 -2 145
-1 145 12 0 34 -201 69 -277 48z"/>
<path d="M2726 3478 c-20 -29 -4 -48 40 -48 29 0 34 3 34 25 0 23 -24 45 -49
45 -5 0 -17 -10 -25 -22z"/>
<path d="M3424 3455 c3 -43 17 -59 45 -50 24 7 26 20 9 58 -9 17 -21 27 -35
27 -19 0 -22 -5 -19 -35z"/>
<path d="M2498 3440 c-10 -6 -14 -18 -11 -30 4 -16 14 -20 49 -20 48 0 59 9
41 33 -16 21 -57 30 -79 17z"/>
<path d="M3088 3430 c-22 -13 -12 -49 16 -54 11 -3 90 -7 174 -11 l153 -6 -3
23 c-2 19 -14 26 -68 39 -73 18 -246 24 -272 9z"/>
<path d="M2733 3375 c-9 -22 -8 -27 7 -35 27 -14 56 -12 70 5 10 13 10 19 -5
35 -25 28 -57 25 -72 -5z"/>
<path d="M2780 3295 c-7 -8 -9 -22 -6 -31 5 -13 9 -14 21 -4 17 14 20 36 6 44
-5 3 -14 -1 -21 -9z"/>
<path d="M3223 3243 c-26 -5 -27 -11 -13 -47 8 -22 16 -26 48 -26 41 0 82 23
82 46 0 9 -11 14 -34 14 -19 0 -38 5 -41 10 -3 6 -9 9 -13 9 -4 -1 -17 -4 -29
-6z"/>
<path d="M3185 3136 c-16 -12 -18 -18 -9 -33 6 -10 21 -23 34 -30 31 -15 40
-33 29 -55 -18 -34 -7 -72 24 -82 35 -13 62 2 62 35 0 16 -7 25 -25 29 -17 4
-21 8 -12 14 7 4 12 15 10 24 -1 10 6 29 16 44 23 35 16 44 -37 51 -23 3 -50
9 -58 12 -8 3 -23 -1 -34 -9z"/>
<path d="M2641 3112 c-14 -27 -14 -32 3 -32 18 0 30 30 17 43 -6 6 -13 1 -20
-11z"/>
<path d="M2653 2954 c-8 -21 23 -52 38 -37 14 14 2 53 -17 53 -8 0 -17 -7 -21
-16z"/>
<path d="M2657 2873 c-13 -13 -7 -51 9 -57 16 -6 44 9 44 25 0 10 -29 39 -39
39 -4 0 -11 -3 -14 -7z"/>
<path d="M3083 2679 c3 -12 1 -29 -4 -38 -7 -11 -7 -25 0 -44 9 -23 14 -26 30
-18 14 8 18 21 17 53 -1 49 -11 68 -33 68 -11 0 -14 -6 -10 -21z"/>
<path d="M3073 2534 c-3 -9 -6 -32 -7 -52 -1 -51 31 -51 59 0 16 30 17 39 6
52 -17 21 -50 21 -58 0z"/>
<path d="M3231 2401 c-20 -13 0 -65 25 -69 54 -8 93 35 62 66 -14 14 -67 16
-87 3z"/>
<path d="M440 7081 c0 -13 29 -35 37 -28 7 8 -15 37 -28 37 -5 0 -9 -4 -9 -9z"/>
<path d="M1710 6773 c-66 -12 -37 -53 37 -53 50 0 69 23 38 46 -19 14 -29 15
-75 7z"/>
<path d="M1922 6695 c8 -71 30 -84 26 -16 -2 36 -8 56 -17 59 -11 4 -13 -5 -9
-43z"/>
<path d="M1947 6594 c-8 -8 1 -24 14 -24 5 0 9 7 9 15 0 15 -12 20 -23 9z"/>
<path d="M1942 6528 c7 -19 38 -22 38 -4 0 10 -9 16 -21 16 -12 0 -19 -5 -17
-12z"/>
<path d="M1946 6483 c-13 -13 -5 -43 13 -52 18 -10 31 2 31 29 0 12 -36 31
-44 23z"/>
<path d="M1965 6400 c3 -5 8 -10 11 -10 2 0 4 5 4 10 0 6 -5 10 -11 10 -5 0
-7 -4 -4 -10z"/>
<path d="M1966 6371 c-3 -5 1 -14 9 -21 12 -10 15 -10 15 3 0 19 -16 31 -24
18z"/>
<path d="M1960 6282 c0 -10 4 -22 10 -28 5 -5 11 -22 12 -37 1 -15 6 -27 10
-27 9 0 10 55 2 88 -7 26 -34 30 -34 4z"/>
<path d="M1983 6146 c4 -9 2 -25 -5 -35 -9 -14 -8 -27 5 -57 l16 -39 0 67 c1
41 -4 70 -11 74 -8 5 -9 2 -5 -10z"/>
<path d="M1990 5881 c0 -17 5 -31 10 -31 6 0 10 9 10 20 0 11 0 23 1 27 0 4
-4 9 -10 11 -6 2 -11 -10 -11 -27z"/>
<path d="M1990 5811 c0 -6 5 -13 10 -16 6 -3 10 1 10 9 0 9 -4 16 -10 16 -5 0
-10 -4 -10 -9z"/>
<path d="M1992 5759 c2 -7 10 -15 17 -17 8 -3 12 1 9 9 -2 7 -10 15 -17 17 -8
3 -12 -1 -9 -9z"/>
<path d="M1997 5716 c-3 -7 -1 -18 5 -24 8 -8 8 -15 0 -25 -14 -16 -2 -99 15
-104 12 -4 14 21 6 110 -5 55 -15 72 -26 43z"/>
<path d="M2016 5533 c-11 -11 -6 -23 9 -23 8 0 15 4 15 9 0 13 -16 22 -24 14z"/>
<path d="M2020 5465 c0 -8 5 -15 10 -15 6 0 10 7 10 15 0 8 -4 15 -10 15 -5 0
-10 -7 -10 -15z"/>
<path d="M2025 5390 c3 -5 8 -10 11 -10 2 0 4 5 4 10 0 6 -5 10 -11 10 -5 0
-7 -4 -4 -10z"/>
<path d="M2030 5324 c0 -8 5 -12 10 -9 6 4 8 11 5 16 -9 14 -15 11 -15 -7z"/>
<path d="M2270 1300 c0 -5 5 -10 10 -10 6 0 10 5 10 10 0 6 -4 10 -10 10 -5 0
-10 -4 -10 -10z"/>
<path d="M2195 1178 c-8 -24 1 -82 13 -86 8 -2 12 12 12 47 0 47 -15 69 -25
39z"/>
<path d="M1417 6543 c-15 -14 -6 -41 16 -47 40 -11 57 -7 57 14 0 28 -54 53
-73 33z"/>
<path d="M2365 6578 c-3 -13 -1 -36 3 -53 8 -29 10 -30 75 -30 75 0 88 18 16
23 -24 1 -51 5 -59 8 -13 4 -13 6 0 15 13 8 12 11 -4 24 -19 14 -18 15 5 24
l24 10 -27 0 c-21 1 -29 -5 -33 -21z"/>
<path d="M165 7140 c-7 -11 31 -60 47 -60 16 0 7 27 -16 49 -16 16 -26 19 -31
11z"/>
<path d="M972 7120 c-38 -27 -55 -51 -34 -49 16 1 96 55 100 67 7 21 -24 13
-66 -18z"/>
<path d="M80 7100 c0 -5 7 -10 16 -10 8 0 12 5 9 10 -3 6 -10 10 -16 10 -5 0
-9 -4 -9 -10z"/>
<path d="M180 7045 c7 -9 15 -13 17 -11 7 7 -7 26 -19 26 -6 0 -6 -6 2 -15z"/>
<path d="M62 7028 c5 -15 28 -23 28 -10 0 5 -7 13 -16 16 -10 4 -14 1 -12 -6z"/>
<path d="M970 7030 c0 -5 4 -10 9 -10 6 0 13 5 16 10 3 6 -1 10 -9 10 -9 0
-16 -4 -16 -10z"/>
<path d="M30 6900 c0 -5 18 -10 39 -10 22 0 43 5 46 10 4 6 -12 10 -39 10 -25
0 -46 -4 -46 -10z"/>
<path d="M176 6901 c-4 -5 -2 -12 3 -15 5 -4 12 -2 15 3 4 5 2 12 -3 15 -5 4
-12 2 -15 -3z"/>
<path d="M940 6890 c0 -5 4 -10 9 -10 6 0 13 5 16 10 3 6 -1 10 -9 10 -9 0
-16 -4 -16 -10z"/>
<path d="M968 6833 c-21 -2 -38 -8 -38 -13 0 -15 103 -7 108 8 2 7 -4 11 -15
10 -10 -1 -35 -3 -55 -5z"/>
<path d="M180 6810 c0 -5 4 -10 9 -10 6 0 13 5 16 10 3 6 -1 10 -9 10 -9 0
-16 -4 -16 -10z"/>
<path d="M30 6802 c0 -4 16 -6 35 -4 19 2 35 6 35 8 0 2 -16 4 -35 4 -19 0
-35 -4 -35 -8z"/>
<path d="M180 6740 c0 -5 4 -10 9 -10 6 0 13 5 16 10 3 6 -1 10 -9 10 -9 0
-16 -4 -16 -10z"/>
<path d="M935 6730 c-8 -12 20 -24 35 -15 6 3 8 11 5 16 -8 12 -32 12 -40 -1z"/>
<path d="M75 6710 l-30 -8 30 -1 c17 0 37 4 45 9 13 9 13 10 0 9 -8 -1 -28 -5
-45 -9z"/>
<path d="M83 6573 c-37 -21 -56 -43 -38 -43 11 0 105 56 105 63 0 13 -24 6
-67 -20z"/>
<path d="M935 6591 c-9 -15 83 -74 103 -66 15 6 15 8 -3 21 -38 29 -94 54
-100 45z"/>
<path d="M890 6560 c0 -5 7 -10 16 -10 8 0 12 5 9 10 -3 6 -10 10 -16 10 -5 0
-9 -4 -9 -10z"/>
<path d="M944 6539 c-9 -15 68 -89 91 -89 23 0 17 9 -37 58 -32 30 -49 39 -54
31z"/>
<path d="M934 6466 c-3 -8 5 -34 18 -57 41 -76 67 -56 28 21 -23 46 -38 57
-46 36z"/>
<path d="M117 6433 c-4 -3 -7 -11 -7 -17 0 -6 5 -5 12 2 6 6 9 14 7 17 -3 3
-9 2 -12 -2z"/>
<path d="M180 6410 c0 -11 5 -20 10 -20 6 0 10 9 10 20 0 11 -4 20 -10 20 -5
0 -10 -9 -10 -20z"/>
<path d="M4631 2228 c-26 -9 -41 -39 -41 -81 0 -30 -4 -35 -28 -40 -16 -3 -39
-15 -53 -26 -34 -28 -16 -55 40 -59 49 -4 55 -22 7 -22 -19 0 -44 -9 -57 -19
-20 -16 -22 -23 -14 -47 9 -26 15 -29 63 -32 28 -2 52 -7 52 -13 0 -5 -9 -9
-20 -9 -11 0 -34 -12 -50 -27 -38 -34 -52 -101 -26 -122 24 -20 36 -4 36 49 0
48 15 70 49 70 13 0 20 -72 26 -274 4 -120 9 -172 17 -178 18 -11 24 -10 38 7
10 11 10 40 0 132 -12 128 -13 145 -11 244 l1 65 108 11 c145 14 198 47 138
86 -13 9 -23 24 -22 34 1 16 -9 18 -111 17 -105 -2 -113 0 -113 17 0 17 8 19
73 19 39 0 78 4 86 9 21 13 5 41 -23 41 -18 0 -24 4 -20 15 5 12 -5 15 -56 15
-45 0 -61 3 -58 13 3 6 17 13 31 15 16 2 35 14 44 28 14 23 14 26 -1 43 -19
21 -74 31 -105 19z m49 -48 c0 -5 -8 -10 -17 -10 -15 0 -16 2 -3 10 19 12 20
12 20 0z m-90 -232 c0 -5 -11 -8 -25 -8 -14 0 -25 4 -25 9 0 5 11 8 25 7 14 0
25 -4 25 -8z m275 -28 c17 -6 15 -9 -15 -14 -58 -12 -189 -12 -190 -1 0 6 35
13 77 16 43 3 85 6 93 6 8 1 24 -2 35 -7z"/>
<path d="M4706 1804 c-20 -19 -20 -29 0 -48 11 -12 20 -13 34 -6 21 11 35 44
25 60 -9 15 -42 12 -59 -6z"/>
<path d="M2393 535 c-3 -9 2 -24 11 -34 15 -16 17 -39 15 -158 l-2 -138 34 -3
c19 -2 42 3 53 11 16 11 17 17 7 36 -7 12 -11 41 -9 64 l3 42 48 5 c26 4 50 4
52 1 3 -2 5 -35 5 -71 0 -79 10 -92 63 -83 42 6 54 18 39 36 -10 11 -18 238
-10 282 2 16 -3 21 -30 23 -55 5 -74 -20 -66 -85 l6 -53 -52 0 -53 0 6 59 c3
37 1 63 -6 70 -17 17 -106 14 -114 -4z"/>
<path d="M2762 541 c-11 -6 -11 -16 -3 -47 14 -51 14 -251 0 -259 -30 -19 5
-27 111 -27 98 0 116 3 127 18 14 19 18 70 6 77 -15 9 -53 -12 -53 -28 0 -13
-9 -15 -37 -13 -32 3 -38 7 -41 28 -3 36 12 57 31 42 36 -30 59 15 37 72 -11
31 -24 33 -47 7 -9 -11 -20 -18 -25 -15 -12 7 -10 102 2 109 17 11 50 -5 50
-24 0 -10 9 -26 20 -36 16 -15 22 -15 35 -5 23 19 20 87 -4 100 -23 12 -190
13 -209 1z"/>
<path d="M3093 542 c-24 -4 -31 -28 -11 -34 9 -3 13 -46 15 -149 l2 -144 54
-2 c69 -2 88 8 63 36 -14 15 -16 28 -11 65 4 25 12 46 19 46 12 0 69 -66 79
-92 3 -9 24 -26 46 -38 73 -37 116 -18 63 28 -31 29 -92 105 -92 117 0 4 9 18
20 32 35 44 25 108 -19 125 -26 10 -186 17 -228 10z m167 -47 c7 -9 13 -32 14
-53 1 -36 0 -37 -34 -37 l-35 0 -3 53 c-3 49 -2 52 21 52 14 0 30 -7 37 -15z"/>
<path d="M832 528 c-26 -7 -32 -13 -32 -36 0 -34 26 -73 44 -66 8 3 17 17 20
30 5 19 12 25 29 22 22 -3 22 -5 18 -123 -2 -88 -7 -125 -18 -137 -26 -29 -6
-38 82 -38 91 0 113 11 77 41 -20 16 -22 26 -22 137 l0 120 30 4 c24 4 35 -1
49 -20 24 -33 51 -24 51 16 0 16 -6 35 -14 41 -17 14 -266 21 -314 9z"/>
<path d="M1490 532 c-73 -3 -86 -8 -70 -26 6 -8 10 -32 8 -53 l-3 -38 -67 -3
-67 -3 -3 58 -3 58 -44 3 c-59 4 -78 -3 -60 -24 8 -10 14 -57 17 -135 4 -98 2
-123 -12 -144 -9 -13 -16 -28 -16 -33 0 -11 141 -5 153 7 6 6 1 14 -12 21 -20
10 -22 18 -19 78 l3 67 65 0 65 0 3 -68 c3 -62 1 -69 -18 -74 -25 -7 -26 -30
-2 -37 24 -7 129 -2 138 7 4 3 1 13 -6 22 -8 10 -13 55 -14 141 -1 109 2 128
17 139 18 13 23 32 10 37 -5 2 -33 2 -63 0z"/>
<path d="M1621 532 c-11 -8 -11 -16 -1 -48 9 -27 11 -72 6 -160 -5 -93 -4
-124 6 -130 6 -4 61 -10 120 -12 l108 -5 19 44 c12 27 16 48 11 53 -14 14 -57
-9 -65 -33 -5 -17 -15 -21 -51 -21 l-44 0 0 60 c0 47 3 60 15 60 8 0 15 -8 15
-19 0 -25 27 -48 41 -34 5 5 9 39 7 74 -3 56 -6 64 -24 67 -15 2 -23 -3 -27
-17 -10 -38 -27 -22 -27 24 l0 45 42 0 c29 0 49 -7 65 -21 18 -18 25 -20 38
-9 20 17 19 57 -2 69 -26 13 -235 24 -252 13z"/>
<path d="M3437 533 c-9 -8 12 -33 29 -33 10 0 14 -30 16 -127 2 -71 -1 -134
-6 -141 -15 -21 8 -34 54 -30 47 3 66 26 31 35 -19 5 -21 13 -21 79 0 41 3 74
8 74 4 0 19 -21 34 -48 65 -115 101 -120 166 -22 l43 65 -2 -85 -2 -85 56 -3
c32 -2 57 -1 57 3 0 3 -8 13 -18 23 -17 17 -18 32 -15 133 3 63 9 118 14 124
24 24 8 35 -51 35 -56 0 -60 -1 -58 -23 2 -21 -69 -158 -82 -157 -3 1 -25 33
-49 73 -24 40 -50 82 -58 95 -12 19 -22 22 -77 22 -34 0 -66 -3 -69 -7z"/>
<path d="M3965 529 c-4 -6 1 -16 11 -24 22 -15 21 -6 22 -162 l2 -123 61 0
c55 0 60 2 53 18 -5 9 -9 76 -9 147 -1 72 -5 136 -9 143 -9 15 -122 16 -131 1z"/>
<path d="M4174 526 c-3 -8 -4 -29 -2 -48 4 -40 34 -49 63 -18 10 11 27 20 38
20 19 0 19 -5 12 -117 -5 -86 -11 -121 -21 -130 -14 -10 -13 -12 2 -21 20 -11
144 -4 159 9 5 6 3 9 -7 9 -24 0 -29 27 -27 127 2 128 10 145 46 103 33 -38
73 -19 73 36 0 20 -6 34 -16 38 -9 3 -83 6 -165 6 -119 0 -151 -3 -155 -14z"/>
<path d="M4558 276 c-40 -30 -9 -69 38 -47 18 8 24 18 22 34 -4 26 -35 33 -60
13z"/>
</g>
</svg>
