<?xml version="1.0" standalone="no"?>
<!DOCTYPE svg PUBLIC "-//W3C//DTD SVG 20010904//EN"
 "http://www.w3.org/TR/2001/REC-SVG-20010904/DTD/svg10.dtd">
<svg version="1.0" xmlns="http://www.w3.org/2000/svg"
 width="500.000000pt" height="878.000000pt" viewBox="0 0 500.000000 878.000000"
 preserveAspectRatio="xMidYMid meet">
<metadata>
Created by potrace 1.15, written by Peter Selinger 2001-2017
</metadata>
<g transform="translate(0.000000,878.000000) scale(0.100000,-0.100000)"
fill="#000000" stroke="none">
<path d="M684 8755 c-73 -36 -102 -71 -114 -137 -8 -44 -8 -65 4 -99 15 -42
15 -44 -14 -88 -31 -46 -36 -66 -21 -90 14 -21 28 -5 35 39 4 25 16 51 32 65
24 23 25 25 10 47 -11 15 -16 44 -16 85 0 60 2 66 41 108 25 28 57 49 80 57
22 6 44 17 50 25 19 22 -32 16 -87 -12z"/>
<path d="M1267 8773 c-4 -3 -7 -13 -7 -22 0 -16 -128 -111 -150 -111 -6 0 -33
-11 -60 -25 -27 -14 -64 -25 -82 -25 -49 0 -171 -39 -203 -64 -23 -18 -27 -28
-21 -49 8 -35 24 -35 28 1 2 22 13 32 60 54 32 15 88 32 125 38 69 11 158 49
267 115 66 39 88 38 39 -3 -61 -51 -333 -172 -387 -172 -8 0 -33 -17 -56 -38
-30 -29 -40 -47 -40 -70 0 -17 -3 -37 -6 -46 -8 -22 -27 -20 -20 2 7 22 -7 75
-21 79 -18 6 -22 -128 -4 -150 13 -15 12 -21 -6 -46 -12 -15 -26 -57 -31 -92
-11 -64 -11 -64 19 -91 16 -16 34 -28 39 -28 19 0 70 115 70 158 0 18 4 22 19
17 23 -7 38 12 22 28 -20 20 -12 64 18 96 31 33 38 36 61 21 22 -14 1 -42 -41
-57 -53 -18 -38 -46 31 -57 30 -5 39 -11 44 -32 5 -19 2 -30 -10 -39 -15 -11
-16 -16 -5 -43 15 -35 3 -67 -25 -67 -9 0 -19 -6 -21 -12 -3 -7 2 -13 10 -13
12 0 27 -19 27 -36 0 -2 -18 -4 -40 -4 -37 0 -40 -2 -40 -28 0 -32 16 -52 41
-52 9 0 28 -10 43 -21 26 -21 28 -21 41 -3 13 17 16 17 25 4 5 -8 10 -27 10
-42 0 -28 4 -27 -155 -40 -16 -2 -30 -7 -30 -13 0 -5 20 -8 44 -6 l44 3 -7
-34 c-4 -18 -13 -66 -21 -106 -15 -82 -25 -103 -25 -50 0 35 -23 68 -34 50 -8
-14 5 -112 17 -119 5 -3 13 1 19 8 7 11 8 9 6 -6 -2 -14 -11 -20 -28 -20 -22
0 -26 6 -36 50 -5 28 -8 64 -4 80 5 27 9 30 38 27 33 -4 45 14 17 24 -8 4 -13
10 -10 14 10 16 -10 18 -71 8 -54 -8 -67 -6 -107 12 -52 24 -68 49 -37 57 22
6 26 18 9 28 -14 9 -69 9 -109 0 -32 -7 -33 -7 -26 21 10 38 24 50 67 58 32 6
43 2 89 -35 50 -39 52 -40 71 -23 18 16 18 18 2 37 -10 10 -30 26 -46 33 -15
8 -25 19 -22 24 10 15 58 -8 86 -42 25 -30 31 -32 104 -36 60 -2 76 0 73 10
-3 8 -24 13 -57 15 -72 2 -111 37 -111 100 0 24 -2 43 -5 43 -3 0 -23 -11 -44
-24 -21 -14 -47 -23 -58 -20 -11 3 -26 -3 -37 -15 -11 -12 -26 -21 -34 -21
-22 0 -117 -46 -132 -65 -7 -8 -18 -15 -24 -15 -15 0 -69 -56 -85 -88 -15 -28
-35 -18 -27 14 7 27 -4 30 -34 12 -28 -18 -36 -2 -18 36 10 20 35 44 63 60 53
32 69 27 35 -9 -13 -14 -21 -27 -18 -30 11 -11 59 16 70 39 6 14 29 37 52 52
49 33 34 42 -31 20 -58 -20 -73 -20 -73 -2 0 22 50 52 98 60 41 6 43 5 63 -29
23 -38 57 -47 79 -20 10 13 9 15 -12 15 -19 0 -35 19 -88 107 -36 59 -70 127
-77 151 -7 24 -19 52 -27 61 -10 11 -13 30 -9 63 l5 46 -48 8 c-29 4 -103 34
-177 71 -71 36 -131 62 -134 59 -3 -3 11 -15 31 -27 24 -14 35 -27 32 -36 -3
-8 -6 -23 -6 -34 0 -27 -11 -24 -64 16 l-46 36 0 -62 c0 -34 3 -59 7 -56 3 4
27 -13 53 -37 27 -25 65 -49 86 -55 52 -14 82 -36 86 -64 2 -13 16 -29 37 -39
48 -24 58 -36 37 -44 -9 -4 -24 0 -34 8 -9 9 -28 18 -42 22 -47 11 -148 84
-189 136 l-41 52 0 -122 c0 -95 3 -125 15 -136 19 -20 19 -48 0 -64 -8 -7 -15
-27 -15 -44 l1 -31 15 27 c25 47 47 51 83 16 18 -17 35 -45 38 -61 8 -40 67
-97 99 -97 21 0 25 -3 19 -17 -4 -10 -10 -30 -13 -45 -3 -21 0 -28 12 -28 24
0 86 -52 86 -72 0 -9 10 -29 23 -44 20 -23 26 -25 45 -15 26 14 29 8 26 -54
-1 -27 3 -66 9 -85 10 -34 60 -108 83 -122 7 -5 10 -17 7 -28 -4 -13 0 -20 10
-20 16 0 30 -47 16 -56 -11 -7 -11 -68 0 -117 5 -20 25 -55 45 -77 20 -22 36
-44 36 -50 0 -5 14 -17 32 -26 26 -14 54 -16 167 -12 126 5 140 3 189 -18 110
-48 189 -142 163 -193 -5 -9 -4 -41 2 -72 7 -43 7 -66 -4 -100 -15 -46 -27
-51 -75 -36 -11 4 -28 1 -39 -6 -15 -12 -16 -19 -7 -46 10 -27 8 -34 -10 -51
-24 -22 -21 -24 17 -10 25 9 26 13 19 57 -7 45 -6 46 17 38 13 -4 39 -9 57
-12 36 -6 36 -13 6 -81 -16 -35 -94 -82 -137 -82 -13 0 -28 -5 -34 -11 -7 -7
-40 -10 -87 -7 -58 2 -82 8 -105 26 -17 12 -43 22 -59 22 -28 0 -30 -3 -34
-50 -7 -74 -43 -120 -118 -148 -64 -25 -81 -52 -32 -52 63 0 114 -76 113 -169
0 -49 -4 -59 -31 -83 -17 -16 -37 -28 -45 -28 -35 0 -10 -20 48 -39 124 -42
166 -89 188 -216 17 -99 7 -177 -33 -265 -49 -105 -148 -193 -249 -220 -66
-18 -195 -15 -226 5 -22 15 -27 15 -40 2 -13 -13 -13 -18 2 -47 30 -58 -1
-105 -75 -113 -33 -3 -45 -7 -98 -28 -24 -9 -30 -29 -9 -29 32 0 94 -59 120
-114 31 -65 35 -129 12 -197 -31 -90 -79 -128 -202 -159 l-43 -11 0 -112 c0
-121 -3 -119 43 -33 11 21 14 43 10 73 -5 36 -3 43 13 48 46 14 123 58 155 89
44 43 84 150 82 221 -2 62 -25 127 -59 168 l-27 32 38 8 c21 4 45 13 52 19 22
18 53 84 53 113 0 25 0 25 93 25 l92 0 -32 -20 c-41 -24 -50 -58 -28 -103 13
-27 30 -41 78 -62 69 -31 82 -44 63 -63 -10 -10 -28 -11 -77 -5 -112 15 -179
-19 -179 -92 0 -41 41 -79 103 -96 63 -16 72 -23 75 -57 5 -48 -25 -62 -136
-62 -108 0 -140 -13 -166 -67 -30 -63 -15 -118 42 -147 15 -7 59 -19 99 -26
63 -10 76 -16 103 -46 37 -43 40 -87 7 -109 -13 -8 -73 -22 -133 -30 -165 -23
-202 -32 -250 -66 l-44 -30 0 -70 c0 -74 12 -109 52 -146 44 -41 74 -46 268
-47 168 -1 188 -3 220 -21 26 -16 36 -29 38 -51 4 -45 -31 -72 -119 -89 -95
-20 -197 -70 -225 -113 -30 -44 -40 -119 -21 -164 21 -50 43 -62 31 -17 -14
58 -10 141 10 171 25 39 129 87 211 99 81 11 125 34 144 74 46 96 -88 153
-333 139 -62 -4 -125 -4 -139 0 -38 9 -95 63 -112 104 -30 70 -13 117 53 151
41 21 176 51 227 51 57 0 135 23 161 46 28 26 30 50 10 99 -18 43 -91 82 -171
91 -97 12 -136 63 -101 133 25 48 42 54 155 62 60 4 118 12 129 18 13 7 24 26
28 48 6 33 4 40 -27 65 -21 18 -45 28 -65 28 -45 0 -94 42 -94 81 0 22 8 34
33 50 28 17 42 19 110 13 66 -5 81 -4 98 11 37 35 17 72 -52 94 -50 16 -81 52
-77 87 5 44 38 56 136 49 l82 -6 0 40 c0 22 7 46 15 55 19 19 19 26 0 26 -23
0 -55 -37 -55 -65 0 -21 -5 -25 -27 -24 -16 0 -37 4 -47 8 -17 6 -14 10 20 31
21 13 69 50 107 83 68 60 83 61 46 1 l-21 -34 21 0 c13 0 26 10 33 25 13 28
28 33 28 10 0 -25 -31 -65 -49 -65 -10 0 -26 -6 -36 -14 -17 -12 -17 -17 -5
-45 12 -30 11 -34 -8 -54 -20 -20 -25 -20 -67 -9 -61 16 -110 15 -125 -3 -19
-23 12 -62 57 -74 55 -15 83 -38 83 -67 0 -40 -16 -60 -61 -78 -34 -14 -51
-15 -101 -6 -65 12 -88 4 -88 -31 0 -20 22 -32 111 -63 26 -9 54 -25 64 -36
25 -28 32 -103 11 -135 -31 -47 -60 -58 -159 -60 -106 -3 -147 -15 -147 -45 0
-25 33 -46 85 -56 57 -10 145 -51 178 -82 36 -34 52 -92 37 -137 -19 -59 -137
-115 -241 -115 -57 0 -152 -23 -186 -46 -22 -14 -24 -20 -18 -57 16 -94 82
-121 272 -111 175 9 234 -11 290 -99 21 -33 24 -49 20 -86 -7 -61 -28 -75
-139 -96 -159 -29 -230 -67 -248 -134 -8 -30 -7 -46 5 -73 22 -54 59 -66 276
-93 76 -9 164 -57 201 -110 18 -26 36 -57 40 -70 5 -21 3 -24 -15 -22 -21 2
-22 -2 -18 -61 3 -70 -2 -74 -54 -42 -29 18 -32 24 -33 79 -1 32 -6 70 -11 84
-19 50 -83 78 -206 92 -33 4 -93 15 -134 26 -41 10 -76 17 -78 15 -17 -16 102
-53 215 -67 89 -10 155 -36 172 -68 5 -11 10 -47 10 -81 0 -52 4 -65 25 -86
14 -14 39 -31 57 -38 28 -12 35 -12 56 2 19 12 28 13 43 4 10 -7 27 -12 37
-12 26 0 42 -20 42 -51 0 -33 19 -48 32 -25 5 9 16 16 23 16 8 0 15 7 15 15 0
8 -4 15 -9 15 -4 0 -22 13 -39 30 -21 20 -42 30 -62 30 -36 0 -50 24 -28 47
32 32 -32 169 -109 232 -53 43 -133 68 -265 82 -134 14 -158 27 -158 84 0 85
48 119 218 155 115 24 169 50 178 86 6 22 14 12 61 -73 144 -257 375 -502 616
-656 16 -10 45 -33 65 -51 20 -18 55 -37 77 -44 22 -6 49 -18 60 -26 19 -14
19 -15 -17 -30 -21 -9 -45 -28 -55 -44 -10 -15 -38 -48 -64 -73 -38 -38 -61
-50 -135 -74 -147 -46 -171 -74 -82 -95 38 -10 86 -11 182 -4 206 14 408 10
536 -9 130 -20 136 -21 205 -52 28 -13 75 -33 105 -46 30 -12 80 -36 110 -52
73 -39 176 -82 280 -116 47 -15 141 -56 210 -89 132 -66 172 -74 211 -43 13
10 44 28 68 40 24 13 57 35 75 51 17 15 59 48 93 71 201 143 256 185 325 256
234 236 316 321 319 330 7 21 129 143 142 143 21 0 148 130 219 225 77 101
111 181 134 305 9 47 21 94 27 105 6 11 12 54 13 95 4 102 20 220 32 232 18
18 76 -10 123 -58 52 -53 87 -74 127 -74 80 0 85 55 23 275 -30 105 -44 177
-48 240 -4 77 -10 100 -40 159 -43 84 -115 341 -125 446 -5 49 -32 27 -55 -44
-23 -69 -23 -71 -7 -184 19 -130 20 -126 -58 -137 -47 -7 -78 -27 -59 -39 5
-4 30 -1 55 6 50 13 60 10 50 -16 -5 -12 -14 -16 -29 -12 -12 3 -31 -1 -42 -9
-41 -29 -56 -10 -66 82 -3 22 -26 88 -52 145 -26 56 -51 114 -55 128 -10 39
-34 36 -49 -6 -15 -40 -17 -283 -7 -554 7 -159 -4 -237 -34 -265 -11 -10 -20
-24 -20 -31 0 -7 -9 -16 -20 -19 -11 -3 -20 -10 -20 -14 0 -3 -13 -15 -30 -24
-16 -10 -30 -17 -30 -15 0 2 11 37 24 78 15 48 26 111 30 175 3 55 10 152 15
215 9 120 0 218 -35 380 -40 181 -139 416 -251 592 -25 39 -12 43 45 13 126
-66 367 -32 450 63 l32 37 38 -45 c63 -76 80 -87 160 -107 l77 -19 -3 -38 c-5
-53 35 -108 98 -135 47 -20 49 -22 47 -60 -2 -55 30 -89 96 -105 24 -6 27 -4
27 19 0 14 -6 25 -13 25 -40 0 -60 67 -32 104 23 30 18 36 -24 36 -48 0 -100
29 -123 67 -28 49 -3 130 45 146 16 5 -2 27 -21 27 -9 0 -33 -10 -52 -21 -28
-18 -44 -20 -88 -15 -109 13 -157 58 -167 160 -6 55 -2 71 53 179 8 15 -35 6
-51 -10 -8 -10 -31 -55 -50 -99 -67 -160 -132 -206 -292 -208 -121 -1 -180 19
-248 88 -34 34 -57 68 -68 101 -26 75 -77 73 -64 -2 3 -18 3 -33 -1 -33 -3 0
-27 21 -53 47 -76 78 -200 180 -305 251 l-100 67 47 7 c142 20 189 63 195 178
5 81 -13 125 -73 185 -34 34 -57 45 -150 74 -60 18 -117 37 -125 41 -8 4 -18
25 -22 48 -7 43 -18 62 -110 188 -63 88 -95 120 -151 152 -38 22 -87 29 -87
14 0 -11 44 -52 56 -52 31 0 263 -273 265 -311 4 -104 2 -112 -24 -125 -35
-19 -43 -73 -23 -152 12 -45 13 -67 6 -88 -13 -34 0 -50 28 -33 16 10 27 9 59
-4 22 -8 67 -15 101 -16 51 0 67 4 91 24 50 42 47 106 -9 183 -25 35 -40 44
-114 68 -48 16 -86 31 -86 34 0 3 6 15 14 26 14 19 16 19 63 1 26 -10 68 -25
93 -33 101 -32 164 -117 162 -217 -3 -102 -40 -141 -144 -153 -48 -5 -60 -2
-121 30 -56 29 -72 33 -91 25 -18 -8 -35 -5 -82 14 -32 13 -77 30 -99 37 -22
7 -45 17 -51 22 -7 5 -35 11 -63 15 -44 5 -49 8 -41 24 18 33 10 55 -35 99
-25 24 -45 50 -45 57 0 26 -48 62 -115 87 -89 33 -106 45 -144 103 -55 83 -39
188 39 265 38 36 60 49 103 59 49 10 59 10 81 -5 33 -21 38 -20 34 7 -2 13
-17 29 -39 41 -35 19 -38 19 -80 3 -24 -9 -68 -35 -97 -57 -57 -43 -73 -48
-92 -25 -12 15 -5 24 108 137 50 51 91 51 158 3 69 -50 106 -65 160 -65 53 0
115 30 134 65 34 64 -16 220 -94 297 -53 52 -58 40 -8 -18 68 -76 108 -226 72
-269 -49 -58 -138 -62 -207 -8 -34 27 -99 61 -145 76 -18 6 -91 -49 -135 -101
-21 -25 -22 -25 -16 -4 8 33 -12 27 -43 -13 -32 -42 -42 -40 -19 5 9 17 15 39
13 48 -3 12 -12 5 -31 -25 -43 -67 -65 -51 -30 22 9 19 13 38 9 42 -8 8 -40
-26 -49 -50 -2 -6 -8 -9 -12 -5 -22 21 52 146 102 170 14 7 30 21 35 31 14 29
22 42 71 118 26 41 90 142 141 224 51 83 120 193 154 245 34 52 84 132 113
178 29 45 54 80 56 78 3 -2 -2 -15 -10 -28 -8 -12 -24 -39 -34 -58 -10 -19
-40 -69 -66 -110 -26 -41 -84 -133 -129 -205 -45 -71 -119 -190 -164 -263 -46
-73 -88 -140 -93 -150 -9 -16 0 -17 136 -16 130 1 147 3 160 20 17 24 12 38
-15 42 -16 3 -22 -2 -22 -16 0 -15 -8 -21 -34 -24 -19 -2 -45 0 -56 4 -21 8
-21 10 20 86 23 42 46 81 51 86 4 5 26 -7 50 -28 23 -20 49 -36 56 -36 26 0
12 29 -32 68 -25 22 -45 44 -45 49 0 12 120 227 261 471 52 89 111 194 131
233 20 39 46 81 57 93 12 13 22 40 25 71 3 35 8 49 18 47 7 -2 30 -7 51 -10
21 -4 39 -11 39 -17 0 -5 14 -26 32 -46 17 -20 42 -55 56 -78 24 -40 40 -52
40 -29 0 22 -40 95 -65 118 -39 37 -32 47 40 55 44 4 76 15 101 31 43 30 64
25 64 -13 0 -40 -37 -135 -59 -153 -11 -8 -37 -43 -59 -78 -47 -73 -61 -152
-42 -237 18 -81 18 -90 -5 -87 -32 6 -55 33 -55 66 0 43 -9 52 -54 59 -42 7
-53 13 -42 24 3 4 27 2 51 -5 50 -13 77 -7 73 17 -2 10 -14 16 -33 16 -31 0
-33 4 -20 43 5 14 15 22 31 22 13 0 24 4 24 8 0 15 -24 32 -46 32 -12 0 -32 9
-45 19 -22 18 -22 20 -6 26 25 10 21 22 -12 40 -16 8 -31 25 -33 37 -4 28 -28
36 -28 9 0 -11 5 -23 10 -26 25 -15 8 -26 -30 -20 -32 5 -40 4 -40 -9 0 -9 16
-20 40 -27 23 -7 47 -23 57 -38 9 -14 24 -31 32 -38 10 -8 11 -12 4 -13 -6 0
-15 5 -18 10 -3 6 -19 10 -34 10 -15 0 -49 6 -74 14 -49 14 -66 3 -22 -14 14
-5 25 -16 25 -24 0 -18 22 -26 71 -26 33 0 39 -3 39 -21 0 -18 -4 -20 -32 -14
-18 3 -55 17 -81 31 -51 25 -67 29 -67 17 0 -10 84 -63 99 -63 7 0 22 -12 35
-26 12 -15 38 -32 57 -38 26 -9 35 -17 37 -38 4 -34 -10 -36 -31 -5 -12 16
-16 18 -16 6 -1 -25 36 -57 79 -69 21 -6 42 -15 46 -21 3 -6 16 -8 29 -5 18 5
28 -2 50 -32 15 -20 51 -59 81 -87 29 -27 56 -60 59 -73 7 -23 5 -23 -37 -18
-124 16 -215 17 -224 4 -7 -8 -8 -46 -3 -103 14 -178 22 -156 -96 -279 -95
-98 -105 -112 -105 -146 0 -21 6 -42 13 -48 6 -5 71 -17 142 -26 176 -23 217
-31 230 -49 6 -8 22 -14 36 -14 13 0 45 -10 69 -21 35 -16 48 -18 56 -9 7 7
31 55 54 107 43 96 48 104 116 173 47 46 91 50 136 12 35 -30 68 -33 68 -6 0
39 -22 81 -46 87 -27 7 -30 16 -10 33 20 16 -12 83 -36 77 -10 -2 -21 0 -24 5
-11 19 -32 8 -37 -21 -7 -30 -27 -42 -27 -15 0 18 -22 71 -60 145 -17 33 -31
81 -36 118 -10 94 -38 94 -36 1 1 -54 -12 -57 -39 -10 -9 15 -28 31 -43 35
-35 9 -114 69 -152 116 -17 21 -44 67 -59 102 -25 53 -29 75 -28 140 2 88 24
140 98 227 51 59 85 164 66 199 -19 35 -56 38 -99 9 -43 -30 -87 -43 -96 -29
-3 5 5 17 19 26 55 36 11 48 -71 20 -25 -8 -48 -14 -50 -11 -12 12 11 34 48
47 34 12 44 21 50 47 10 40 51 73 92 73 17 1 47 10 66 21 l35 20 -63 -5 c-35
-3 -73 -11 -85 -17 -36 -19 -77 -61 -77 -81 0 -11 -13 -23 -33 -32 -43 -18
-89 -72 -82 -97 5 -16 2 -17 -26 -9 -47 14 -79 38 -97 73 -26 49 -106 127
-131 127 -27 0 -28 26 -1 40 14 8 29 7 56 -5 20 -8 44 -15 53 -15 19 0 37 41
47 110 4 25 15 59 25 75 19 33 71 75 91 75 7 0 29 8 48 18 26 14 51 18 94 15
73 -5 113 -23 173 -79 25 -24 56 -44 67 -43 13 0 35 19 58 49 21 27 50 57 65
67 33 22 103 23 128 3 10 -8 36 -16 59 -16 32 -1 47 5 72 28 l30 28 65 -16
c71 -18 88 -30 131 -91 26 -39 28 -47 19 -80 -6 -20 -9 -39 -7 -41 2 -2 44 11
93 28 48 18 96 34 106 37 31 9 18 -13 -20 -35 -21 -12 -51 -33 -68 -47 l-30
-26 40 6 c22 3 52 8 68 11 16 4 27 1 27 -6 0 -16 -63 -40 -88 -33 -13 3 -22 1
-22 -6 0 -26 123 1 162 36 29 26 6 43 -44 31 -54 -12 -72 4 -29 27 17 9 37 12
44 8 7 -4 32 -8 56 -8 40 0 45 -3 52 -28 6 -23 3 -31 -24 -51 -63 -47 -93 -57
-152 -50 -38 5 -55 3 -55 -5 0 -6 9 -11 19 -11 33 0 36 -22 8 -46 -26 -22
-173 -84 -201 -84 -7 0 -21 11 -29 24 -9 13 -24 23 -34 22 -13 -1 -20 10 -27
44 -5 25 -10 46 -11 48 -1 1 -18 -4 -37 -12 -22 -10 -52 -39 -85 -83 l-50 -68
-6 -110 c-7 -126 -19 -175 -53 -225 -13 -20 -26 -50 -30 -68 -6 -28 -3 -34 25
-49 17 -10 31 -23 31 -29 0 -6 9 -19 20 -29 15 -13 20 -31 20 -65 0 -51 13
-70 47 -70 18 0 23 -6 23 -25 0 -19 -4 -23 -17 -18 -14 5 -15 2 -8 -28 7 -32
12 -107 18 -288 3 -81 21 -107 33 -47 3 20 9 38 13 40 4 3 26 -9 50 -25 26
-17 57 -29 76 -29 17 0 60 -12 95 -26 43 -17 74 -24 93 -20 17 3 67 -1 113
-10 113 -21 176 -16 189 14 5 12 18 25 28 28 9 3 25 17 34 31 10 14 38 36 63
47 72 35 90 49 90 74 0 21 -3 22 -35 16 -20 -3 -113 -7 -208 -7 -137 0 -181 3
-217 16 -25 9 -53 17 -62 17 -10 0 -18 5 -18 10 0 6 23 10 50 10 55 0 62 12
35 60 -8 14 -14 52 -15 87 0 61 0 62 55 117 44 46 61 56 88 56 18 0 43 7 55
16 12 8 51 18 86 20 77 6 134 -16 185 -70 41 -43 51 -45 51 -11 0 30 -47 81
-102 109 -33 18 -44 19 -125 9 -180 -22 -268 -59 -321 -138 -32 -45 -44 -105
-33 -155 8 -38 8 -40 -27 -61 -32 -18 -41 -19 -74 -10 -33 10 -38 16 -38 41 0
42 -31 57 -70 33 -30 -17 -30 -17 -64 16 -34 33 -56 89 -48 124 4 18 4 18 18
0 7 -10 14 -28 14 -39 0 -22 35 -74 50 -74 5 0 3 15 -5 33 -16 38 -10 77 11
77 18 0 32 -32 16 -38 -17 -5 -15 -37 3 -52 9 -7 15 -8 15 -2 0 5 14 15 30 21
17 5 30 14 30 19 0 4 -16 23 -35 42 -19 19 -35 38 -35 42 0 4 20 17 45 29 51
24 58 31 59 68 1 19 10 31 36 43 68 34 150 133 150 181 0 7 16 29 36 48 44 42
64 79 64 118 0 23 13 41 64 88 67 61 136 162 136 201 0 13 16 36 38 57 20 19
62 57 92 85 45 42 51 50 30 46 -144 -29 -241 -46 -256 -46 -18 1 -18 2 1 16
19 15 17 16 -25 9 -143 -22 -157 -6 -35 40 l40 15 -35 -6 c-19 -3 -71 -21
-115 -39 -44 -19 -93 -37 -109 -41 -25 -6 -28 -5 -23 11 14 35 -12 91 -63 139
l-49 46 -215 0 c-127 0 -226 -4 -243 -11 -15 -5 -46 -26 -69 -45 -23 -19 -45
-34 -49 -34 -4 0 -20 14 -37 30 -52 52 -81 62 -166 57 -117 -7 -161 -20 -228
-65 -70 -46 -85 -67 -113 -148 l-20 -59 -51 -6 c-28 -4 -68 -18 -89 -32 l-38
-25 -54 18 c-30 10 -76 27 -101 39 -55 25 -108 27 -148 6 -42 -22 -37 -27 19
-19 58 8 112 -10 212 -68 37 -21 84 -41 105 -44 73 -10 82 -14 102 -46 12 -18
35 -53 52 -77 l32 -44 -24 -18 c-14 -12 -32 -16 -48 -12 -44 10 -149 73 -155
93 -8 26 -25 26 -32 0 -6 -23 -23 -26 -41 -8 -7 7 -12 8 -12 2 0 -16 103 -88
130 -91 34 -3 120 -34 120 -42 0 -4 -6 -15 -13 -25 -13 -17 -15 -17 -45 -2
-38 20 -42 20 -42 2 0 -8 9 -17 19 -21 25 -8 34 -31 21 -56 -13 -23 -33 -25
-50 -4 -13 15 -5 39 11 30 5 -4 9 -2 9 4 0 5 -20 19 -44 31 -34 16 -46 28 -51
51 -5 20 -24 44 -57 69 -57 45 -69 49 -65 19 3 -34 -40 -59 -88 -50 -63 11
-119 -13 -186 -80 -38 -38 -62 -71 -68 -96 -21 -75 -30 -81 -139 -86 -53 -3
-111 -8 -129 -12 -22 -5 -38 -2 -55 9 -48 34 -121 8 -154 -56 l-16 -30 -34 33
c-30 29 -39 32 -90 31 -31 -1 -62 -6 -69 -12 -16 -13 -27 1 -46 60 -17 55 -84
125 -128 135 -65 14 -29 41 64 47 82 6 136 30 213 95 119 101 165 297 102 428
-35 72 -167 145 -241 133 -23 -4 -23 -5 6 -17 102 -43 161 -78 173 -103 21
-45 34 -140 28 -203 -8 -84 -55 -172 -114 -217 -84 -64 -105 -70 -206 -67 -88
4 -91 3 -92 -18 -2 -33 -23 -54 -53 -51 -31 4 -43 -29 -14 -38 10 -3 26 -10
35 -15 10 -5 27 -9 39 -9 89 0 180 -181 134 -269 -9 -18 -14 -36 -10 -39 12
-12 40 14 60 55 20 42 66 73 107 73 11 0 36 -13 55 -30 18 -16 40 -30 48 -30
8 0 15 -5 15 -11 0 -14 -45 -182 -64 -240 -8 -24 -17 -63 -21 -85 -6 -38 -4
-43 24 -63 22 -16 35 -38 47 -78 18 -60 46 -115 78 -151 18 -20 20 -36 20
-120 0 -53 -4 -118 -8 -144 -12 -70 0 -114 45 -163 21 -23 52 -72 69 -108 29
-64 29 -68 14 -99 -9 -18 -30 -42 -47 -53 -81 -52 -14 -151 81 -120 23 8 23 7
20 -75 -3 -75 -5 -84 -28 -102 -14 -10 -56 -43 -94 -73 -71 -57 -114 -75 -178
-75 -35 0 -47 -8 -33 -22 9 -8 118 12 155 29 19 9 60 37 90 63 71 60 114 86
186 110 68 24 144 26 184 5 35 -18 36 -22 14 -46 -13 -14 -26 -17 -63 -12 -73
8 -149 -12 -206 -55 -76 -58 -103 -70 -194 -88 -47 -9 -119 -28 -160 -42 -62
-20 -100 -26 -206 -29 -71 -1 -146 -2 -165 -1 -19 1 -50 1 -68 0 -50 -1 -34
22 19 28 83 10 88 26 20 58 -61 27 -84 28 -127 1 -45 -27 -43 -9 2 31 46 40
63 46 152 55 39 4 72 10 72 14 0 4 -16 15 -35 24 -46 22 -44 34 8 39 35 4 50
-1 89 -29 26 -18 58 -33 71 -33 21 0 87 -55 87 -73 0 -4 -11 -7 -25 -7 -14 0
-25 -4 -25 -10 0 -5 4 -10 9 -10 4 0 25 -11 46 -25 42 -29 40 -29 48 6 9 38
-76 139 -117 139 -16 0 -45 12 -64 27 -19 14 -48 29 -65 32 -43 9 -71 52 -72
109 0 45 -1 47 -32 50 -23 2 -37 -3 -56 -24 -19 -20 -37 -28 -74 -31 -58 -6
-90 8 -146 62 l-38 37 20 49 c12 26 21 63 21 81 0 47 12 60 44 52 17 -4 35 -1
51 10 32 21 54 20 85 -4 23 -18 24 -20 5 -21 -11 -1 -42 -1 -69 1 -70 3 -49
-16 25 -23 63 -5 109 4 109 23 0 6 -16 20 -35 31 -36 21 -45 49 -22 66 22 18
56 21 68 7 7 -8 29 -13 58 -12 49 1 185 -22 197 -35 4 -4 17 -7 30 -7 32 0 81
-44 94 -86 18 -54 5 -109 -32 -145 -34 -32 -44 -33 -120 -14 -21 6 -28 4 -28
-8 0 -28 112 -37 158 -13 15 8 41 28 57 46 26 27 30 38 30 90 0 44 -5 66 -21
87 -30 40 -82 73 -116 73 -22 0 -28 4 -26 18 2 12 -18 27 -77 57 l-80 40 3 38
c2 32 -5 50 -51 115 -30 42 -89 129 -132 192 -43 63 -88 127 -102 141 -23 25
-23 27 -8 63 19 46 12 93 -22 143 -20 30 -23 41 -14 55 13 21 51 119 51 132 0
4 -7 6 -15 2 -9 -3 -15 0 -15 7 0 31 -56 66 -140 87 -47 12 -91 23 -98 26 -10
3 -7 12 12 35 30 36 32 56 10 88 -16 22 -16 25 3 40 10 9 27 28 36 43 10 16
33 34 52 42 35 15 54 40 40 54 -3 4 -12 -1 -19 -11 -17 -22 -32 -22 -59 4
l-22 20 26 -6 c33 -8 85 17 94 45 3 11 26 36 50 56 45 36 77 86 89 139 6 28 5
29 -9 11 -8 -11 -15 -24 -15 -30 0 -6 -7 0 -16 12 -15 22 -17 22 -35 6 -15
-13 -16 -20 -7 -31 18 -22 -43 -79 -94 -87 -22 -4 -42 -5 -44 -3 -2 2 27 35
65 73 48 49 79 93 105 146 41 85 66 115 66 79 0 -19 -14 -51 -57 -125 -16 -27
-8 -34 15 -13 10 10 24 17 30 17 7 0 12 11 12 23 0 15 9 28 24 35 17 8 39 41
71 108 58 122 53 149 -6 32 -24 -49 -46 -88 -49 -88 -12 0 3 65 19 85 19 23
59 110 63 139 5 32 28 31 28 -1 1 -26 1 -26 12 -8 6 11 20 30 31 43 l20 22
-180 0 c-99 0 -183 -3 -186 -7z m183 -45 c0 -35 -58 -111 -117 -154 -56 -40
-58 -57 -3 -29 18 9 34 15 36 13 10 -11 -51 -78 -104 -116 -50 -35 -65 -41
-91 -36 -17 4 -31 10 -31 15 0 5 23 25 51 45 34 25 52 46 56 66 4 21 18 36 52
56 60 35 95 78 115 145 8 25 36 21 36 -5z m-70 2 c0 -41 -58 -102 -136 -143
-76 -40 -89 -33 -16 9 36 21 62 42 62 51 0 9 17 34 38 54 38 39 52 46 52 29z
m135 -1 c14 -22 -73 -164 -90 -148 -6 7 67 159 76 159 4 0 11 -5 14 -11z
m3380 -156 c-32 -25 -118 -63 -142 -63 -19 0 -23 6 -23 29 0 38 10 44 95 57
76 11 103 3 70 -23z m-3800 -32 c-16 -14 -55 -23 -55 -13 0 12 17 20 45 21 11
1 15 -3 10 -8z m115 -31 c-25 -47 -191 -119 -202 -88 -12 33 8 60 52 75 25 7
54 18 65 23 22 10 76 18 88 12 4 -2 3 -12 -3 -22z m-220 -10 c0 -5 -4 -10 -10
-10 -5 0 -10 5 -10 10 0 6 5 10 10 10 6 0 10 -4 10 -10z m3782 -21 c-2 -8 -13
-22 -25 -31 -25 -19 -201 -118 -211 -118 -3 0 -6 16 -6 35 0 33 3 37 48 55 26
11 54 25 62 30 61 42 139 59 132 29z m-4577 -9 c25 -10 50 -54 40 -71 -7 -10
-45 8 -84 39 -40 32 -11 53 44 32z m-146 -31 c17 -16 20 -24 11 -33 -9 -8 -16
-5 -31 13 -34 42 -20 57 20 20z m921 2 c0 -15 -64 -60 -90 -63 -31 -4 -37 18
-8 28 13 4 34 15 47 25 25 20 51 25 51 10z m323 -56 c-3 -35 -81 -118 -165
-176 -63 -43 -71 -55 -34 -45 14 3 27 2 30 -3 12 -19 -7 -41 -50 -57 -49 -19
-54 -28 -23 -45 20 -10 20 -11 2 -24 -10 -7 -27 -15 -38 -17 -17 -3 -19 3 -16
47 1 28 9 57 17 66 8 8 14 23 14 33 0 9 14 25 32 34 46 25 105 79 111 102 3
12 -1 23 -10 28 -12 7 -2 18 44 50 67 47 89 49 86 7z m-925 15 c6 0 12 -7 12
-15 0 -15 -26 -20 -54 -9 -26 10 -20 37 7 30 12 -3 28 -6 35 -6z m690 -12 c8
-8 15 -8 27 2 8 7 15 8 15 2 0 -17 -69 -72 -90 -72 -21 0 -55 54 -45 70 9 14
79 12 93 -2z m86 -19 c-25 -27 -37 -23 -18 6 9 14 20 22 26 19 5 -3 2 -14 -8
-25z m-1020 12 c3 -4 19 -11 36 -14 21 -5 34 -15 40 -33 13 -34 10 -37 -31
-22 -44 15 -89 48 -89 65 0 14 36 18 44 4z m4033 -7 c4 -12 -24 -63 -64 -113
-2 -3 -10 4 -17 15 -13 17 -12 23 6 54 34 57 63 74 75 44z m523 -2 c0 -11
-131 -89 -164 -98 -22 -5 -28 -4 -24 7 2 7 19 17 36 21 18 5 58 24 89 43 64
39 63 38 63 27z m61 -10 c-22 -41 -195 -194 -251 -222 -72 -36 -181 -64 -215
-56 -37 9 -23 22 32 30 27 3 71 17 100 30 86 41 124 96 50 75 -49 -14 -62 -12
-47 6 7 8 25 15 40 15 49 0 137 37 211 89 77 54 96 62 80 33z m-3904 -18 c7
-18 -23 -47 -38 -38 -10 6 11 54 23 54 5 0 11 -7 15 -16z m-558 -11 c6 -12 30
-22 68 -28 49 -9 58 -13 61 -33 3 -22 1 -23 -35 -16 -21 3 -49 17 -63 29 -14
13 -35 26 -47 30 -13 3 -23 13 -23 21 0 20 27 18 39 -3z m4221 10 c-1 -19 -91
-103 -110 -103 -4 0 -12 11 -18 25 -11 24 -9 26 46 54 58 30 82 37 82 24z
m-3391 -39 c-11 -13 -9 -14 14 -9 41 11 25 -18 -30 -55 l-46 -30 -41 37 c-50
45 -53 51 -24 52 47 1 121 11 126 16 12 12 13 4 1 -11z m-931 -114 c59 -32 66
-39 78 -80 8 -25 14 -45 14 -46 0 0 -28 13 -62 30 -62 31 -145 105 -179 161
-33 53 -21 57 32 13 28 -24 81 -59 117 -78z m4037 110 c8 -13 -43 -60 -66 -60
-24 0 -24 6 4 40 22 29 51 38 62 20z m129 -35 c11 -29 -22 -45 -92 -45 l-66 0
21 22 c19 18 57 30 119 37 7 0 14 -6 18 -14z m-3980 -30 c46 -20 48 -45 4 -44
-47 1 -102 23 -106 42 -4 22 51 23 102 2z m958 -7 c-7 -7 -12 -8 -12 -2 0 14
12 26 19 19 2 -3 -1 -11 -7 -17z m2098 4 c0 -15 -24 -32 -47 -32 -29 0 -30 14
0 28 27 13 47 15 47 4z m638 -13 c-2 -6 -8 -10 -13 -10 -5 0 -11 4 -13 10 -2
6 4 11 13 11 9 0 15 -5 13 -11z m300 -21 c-3 -7 -17 -15 -33 -16 -16 -2 -40
-12 -53 -23 -28 -22 -72 -25 -72 -6 0 23 23 37 60 38 19 0 44 4 55 9 30 13 47
12 43 -2z m-3108 -8 c0 -5 -13 -16 -30 -25 -34 -17 -41 -40 -10 -32 11 3 20 1
20 -4 0 -5 -11 -9 -25 -9 -49 0 -44 57 6 71 35 10 39 10 39 -1z m3200 1 c0
-13 -65 -42 -108 -48 l-37 -5 25 18 c39 30 120 53 120 35z m-291 -17 c-18 -21
-44 -25 -72 -11 -35 18 -28 23 33 24 41 1 48 -2 39 -13z m-1264 0 c9 -4 25
-24 36 -46 11 -21 26 -41 34 -45 8 -3 15 -17 15 -31 0 -14 12 -38 27 -54 33
-35 44 -9 -122 -272 -44 -70 -90 -145 -103 -166 -13 -22 -27 -40 -30 -40 -4 0
-23 42 -42 93 -19 50 -49 120 -67 154 -18 34 -33 71 -33 83 0 11 -18 40 -40
64 -46 49 -49 72 -18 127 31 56 52 65 141 67 77 1 79 1 95 -28 9 -16 28 -32
41 -35 30 -8 49 8 33 28 -17 21 -19 87 -2 97 18 12 15 11 35 4z m330 -5 c4 -5
4 -21 1 -35 -5 -19 -11 -24 -26 -19 -13 4 -23 -1 -33 -17 -76 -123 -95 -153
-116 -181 -18 -26 -22 -27 -16 -9 4 13 16 38 27 55 11 18 41 67 67 109 68 110
81 123 96 97z m-3129 -44 c33 -19 78 -44 102 -55 23 -12 42 -23 42 -24 0 -2
-16 -13 -35 -25 -33 -19 -38 -20 -60 -5 -41 27 -132 144 -111 144 2 0 30 -16
62 -35z m343 19 c32 -7 39 -32 7 -26 -10 2 -33 -6 -52 -17 -45 -27 -90 -27
-104 -2 -12 23 -4 30 44 42 42 9 67 10 105 3z m3640 -17 c13 -16 5 -27 -21
-27 -11 0 -18 7 -18 20 0 23 22 27 39 7z m481 -17 c0 -18 -85 -96 -136 -125
-27 -16 -58 -36 -69 -45 -11 -10 -27 -20 -35 -23 -10 -3 -7 -6 8 -6 12 -1 40
8 62 19 45 23 60 25 60 8 0 -21 -100 -109 -147 -130 l-45 -20 -19 21 c-21 22
-39 27 -39 12 0 -6 5 -13 10 -16 15 -9 12 -45 -4 -45 -16 0 -26 21 -26 54 0
16 9 24 33 31 25 8 32 16 32 34 0 19 -8 27 -34 36 -54 18 -47 30 19 31 44 1
66 6 81 20 20 18 20 18 -13 30 -29 10 -31 13 -13 19 11 5 29 16 40 25 11 10
40 21 65 24 25 4 68 17 95 30 56 27 75 31 75 16z m-288 -50 c11 0 18 -5 16
-12 -6 -17 -64 -22 -108 -9 -19 5 -48 13 -65 16 l-30 7 22 18 c22 17 25 17 84
-1 33 -10 70 -19 81 -19z m-3784 13 c2 -9 -8 -13 -32 -13 -34 0 -52 11 -39 24
11 11 66 2 71 -11z m660 -22 c5 -30 -10 -45 -36 -37 -27 9 -34 32 -15 51 21
22 47 15 51 -14z m2892 3 c0 -8 -4 -12 -10 -9 -5 3 -10 10 -10 16 0 5 5 9 10
9 6 0 10 -7 10 -16z m-3651 -13 c19 -12 5 -31 -24 -31 -13 0 -45 -11 -71 -25
-35 -19 -51 -22 -65 -14 -26 13 -24 24 9 47 37 27 124 40 151 23z m3705 -27
c17 -16 22 -44 8 -44 -13 0 -39 24 -45 43 -8 22 16 23 37 1z m-64 -25 c0 -5
-4 -9 -10 -9 -5 0 -10 7 -10 16 0 8 5 12 10 9 6 -3 10 -10 10 -16z m203 0 c48
-12 48 -29 -1 -29 -36 0 -82 22 -82 40 0 8 9 7 83 -11z m-3134 2 c25 -16 1
-34 -39 -28 -32 4 -39 2 -43 -14 -7 -25 -24 -24 -37 1 -9 17 -7 22 12 29 13 4
30 11 38 14 23 8 54 8 69 -2z m-751 -48 c2 -16 -5 -26 -27 -37 -62 -33 -88
-11 -42 35 35 34 64 35 69 2z m-128 -17 c0 -7 -3 -16 -7 -19 -10 -11 -33 13
-33 35 0 16 3 17 20 8 11 -6 20 -17 20 -24z m3930 -12 c14 -7 33 -15 43 -18
10 -3 17 -12 15 -19 -8 -22 -37 -19 -73 10 -19 15 -40 28 -47 28 -6 0 -13 6
-16 13 -5 15 37 8 78 -14z m-3072 0 c17 -12 22 -24 20 -47 -2 -20 -8 -32 -18
-32 -11 0 -14 8 -12 29 2 16 -4 36 -14 47 -21 23 -7 25 24 3z m2895 -38 c-9
-40 -30 -46 -25 -7 4 31 24 69 29 55 2 -6 0 -27 -4 -48z m67 -26 c0 -59 -11
-87 -29 -76 -14 9 -14 68 1 118 15 50 28 31 28 -42z m-960 31 c-11 -22 -34
-64 -51 -93 -63 -106 -176 -304 -191 -333 -8 -16 -63 -113 -121 -215 -70 -121
-114 -187 -128 -192 -48 -18 -38 11 54 149 41 59 93 142 117 183 24 41 49 82
56 90 6 8 24 40 40 70 15 30 55 97 88 147 34 51 74 114 90 140 16 27 35 58 43
71 22 37 25 25 3 -17z m-550 23 c0 -3 -9 -17 -20 -31 -22 -29 -44 -98 -35
-113 12 -19 -7 -80 -24 -80 -13 0 -13 2 -2 9 9 6 11 18 6 42 -13 57 -7 140 11
160 16 17 64 27 64 13z m-393 -16 c6 -7 13 -52 17 -100 7 -84 6 -88 -13 -88
-19 0 -21 6 -21 80 0 69 -3 81 -20 90 -11 6 -18 15 -15 21 9 13 41 11 52 -3z
m244 -88 c3 -75 -5 -110 -22 -93 -14 14 -19 156 -6 171 17 22 25 0 28 -78z
m-110 45 c4 -17 7 -55 8 -86 1 -50 -1 -57 -21 -62 -37 -10 -48 9 -48 87 0 74
11 99 40 94 8 -2 18 -17 21 -33z m304 -7 c-4 -12 0 -27 10 -38 17 -19 16 -20
-9 -30 -34 -13 -66 -13 -66 -1 0 18 21 66 37 83 19 22 36 13 28 -14z m-2091
-25 c-3 -27 -11 -56 -16 -66 -11 -22 -41 -18 -46 5 -5 27 35 108 53 108 14 0
15 -8 9 -47z m3665 -80 c1 -90 -18 -85 -35 10 -8 46 -24 58 -25 20 l-1 -28 -7
25 c-5 18 0 35 18 61 l26 37 12 -32 c6 -17 12 -59 12 -93z m-3126 52 c13 -8
65 -26 117 -39 124 -32 147 -41 154 -64 6 -18 -57 -225 -76 -249 -7 -9 -22 -7
-61 6 -79 27 -107 33 -107 21 0 -5 18 -13 39 -16 47 -8 105 -40 96 -54 -17
-27 -205 -150 -229 -150 -8 0 -42 12 -75 26 -54 24 -60 29 -55 50 6 25 4 27
-48 38 -16 4 -28 2 -28 -4 0 -5 11 -10 25 -10 14 0 25 -4 25 -10 0 -5 -7 -10
-15 -10 -20 0 -19 -18 5 -65 24 -47 20 -54 -17 -29 -15 10 -35 18 -43 16 -10
-1 -11 1 -2 4 16 8 15 29 -3 44 -19 16 -19 49 0 56 11 5 13 10 5 19 -7 9 -7
20 1 38 13 30 4 96 -15 103 -7 3 -13 24 -14 52 -2 73 -7 110 -15 118 -14 14
-7 25 16 22 23 -3 25 -10 42 -150 8 -64 35 -67 36 -5 l0 42 15 -45 c18 -59 19
-57 -17 -75 -61 -32 -18 -28 52 5 64 29 75 31 107 22 45 -14 53 -8 15 10 -26
13 -28 17 -25 63 3 64 22 184 33 213 10 26 30 28 62 7z m1061 -11 c4 -15 2
-32 -3 -37 -14 -14 -17 -9 -26 31 -5 25 -3 32 8 32 8 0 18 -12 21 -26z m-54
-30 c0 -16 -16 -19 -25 -4 -8 13 4 32 16 25 5 -4 9 -13 9 -21z m-1440 8 c0 -4
11 -19 25 -34 14 -15 21 -30 15 -33 -26 -16 0 -149 32 -166 10 -5 25 -23 33
-39 14 -27 13 -35 -11 -111 -14 -46 -28 -88 -30 -94 -6 -14 72 -69 100 -72 57
-4 108 -18 174 -50 81 -38 98 -37 136 8 14 16 29 29 34 29 14 0 102 80 102 93
0 7 7 21 16 32 14 19 15 19 41 -13 14 -18 31 -31 38 -28 12 4 105 -92 105
-108 0 -3 14 -25 30 -48 17 -24 60 -87 96 -140 36 -54 70 -100 75 -104 29 -17
-28 -104 -69 -104 -11 0 -27 -11 -36 -25 -11 -16 -26 -25 -43 -25 -15 0 -34
-7 -44 -16 -16 -14 -17 -11 -24 45 -4 33 -4 77 -1 98 15 86 -32 332 -69 363
-24 20 -27 -8 -7 -63 11 -28 23 -81 26 -117 4 -36 9 -85 12 -110 9 -79 13
-224 7 -247 -12 -53 -33 -11 -52 109 -6 36 -20 94 -31 128 -11 35 -20 68 -20
74 0 18 -27 52 -35 44 -4 -4 4 -53 18 -110 26 -107 47 -221 42 -226 -4 -4 -31
85 -40 133 -7 33 -72 100 -134 139 -59 37 -128 54 -200 49 -89 -7 -191 5 -191
22 0 8 -15 21 -34 30 -54 26 -89 69 -88 110 1 79 1 78 22 72 32 -8 25 27 -13
60 -18 15 -45 54 -60 86 -15 31 -31 57 -37 57 -5 0 -17 12 -27 26 -13 21 -17
45 -15 111 3 100 22 142 73 160 40 14 59 16 59 5z m3680 -8 c0 -12 -34 -33
-52 -34 -25 0 -22 15 5 28 25 12 47 15 47 6z m-3834 -58 c-1 -5 -12 -13 -24
-17 -26 -10 -47 20 -37 52 6 19 7 19 35 -3 16 -13 28 -27 26 -32z m3624 14 c0
-22 -4 -40 -10 -40 -5 0 -10 18 -10 40 0 22 5 40 10 40 6 0 10 -18 10 -40z
m-1420 1 c17 -32 12 -37 -47 -54 -65 -18 -73 -16 -73 17 0 48 98 78 120 37z
m-243 -31 c-50 -15 -59 -29 -56 -89 3 -49 0 -56 -17 -59 -29 -6 -40 -20 -21
-28 23 -9 11 -24 -19 -24 -36 0 -29 -23 14 -41 35 -15 39 -15 74 5 43 24 46
31 17 39 -17 5 -19 9 -10 25 6 10 9 32 8 48 -2 23 3 30 20 32 12 2 33 14 46
28 14 14 28 21 30 17 8 -13 -21 -134 -40 -168 -26 -49 -65 -85 -91 -85 -13 0
-42 10 -63 22 -21 12 -42 18 -46 15 -7 -8 33 -54 59 -68 16 -9 69 -1 111 16
14 6 17 2 17 -26 0 -88 -49 -299 -70 -299 -11 0 -83 99 -103 142 -24 54 -48
154 -49 202 0 23 -12 68 -28 101 -30 65 -48 179 -30 190 6 4 10 -4 10 -20 0
-36 43 -77 77 -73 34 4 43 28 11 28 -20 1 -21 2 -5 11 9 5 21 8 26 4 15 -8 25
15 12 28 -24 24 -6 29 119 34 24 1 24 1 -3 -7z m-1620 -47 c-3 -10 -5 -2 -5
17 0 19 2 27 5 18 2 -10 2 -26 0 -35z m1314 37 c25 -14 23 -55 -3 -54 -10 0
-38 1 -63 2 -48 2 -67 21 -47 45 14 17 86 21 113 7z m593 -72 c26 -37 20 -48
-26 -48 -24 -1 -61 -7 -83 -15 -39 -14 -75 -19 -75 -10 0 24 30 56 68 73 63
27 97 27 116 0z m-2005 -30 c1 -5 -6 -8 -14 -8 -16 0 -19 9 -8 36 6 16 7 16
14 -2 4 -10 8 -22 8 -26z m1411 -8 c14 -8 50 -62 50 -76 0 -3 -161 6 -187 12
-27 5 -30 35 -7 58 18 18 114 22 144 6z m2099 -91 c47 -10 141 -74 141 -95 0
-9 -10 -14 -27 -14 -26 0 -26 -1 -7 -15 27 -20 52 -19 66 4 12 19 13 19 60 -7
27 -15 46 -32 44 -39 -9 -23 18 -27 178 -25 178 3 191 -8 43 -34 -123 -22
-240 -2 -257 42 -6 14 -18 24 -30 24 -24 0 -26 -17 -5 -40 14 -15 12 -16 -18
-13 l-32 4 32 -29 c38 -37 33 -45 -17 -27 -73 26 -119 68 -68 62 37 -4 33 27
-7 46 -23 11 -35 24 -35 37 0 24 -26 38 -42 22 -7 -7 1 -20 26 -42 40 -37 38
-55 -7 -46 -16 3 -36 1 -43 -5 -14 -12 -69 14 -78 37 -4 10 -9 165 -7 198 1 5
12 -1 25 -13 13 -13 43 -27 65 -32z m-1499 28 c-1 -21 -85 -77 -116 -77 -16 0
-46 -4 -67 -9 -43 -10 -55 0 -37 34 9 17 24 24 59 29 25 3 57 12 71 19 32 16
90 19 90 4z m-1368 -69 c6 -17 4 -37 -6 -59 l-14 -34 5 38 c6 37 5 38 -21 31
-30 -7 -32 -2 -10 32 20 30 35 27 46 -8z m1351 -31 c-32 -53 -43 -58 -43 -21
0 16 12 37 32 56 42 39 46 23 11 -35z m-578 34 c3 -6 21 -7 40 -4 34 5 35 4
35 -25 l0 -31 -92 -3 -91 -3 -18 29 c-10 16 -16 33 -14 37 7 10 133 10 140 0z
m1720 -75 c22 -7 65 -67 65 -91 0 -8 9 -32 20 -52 11 -21 20 -47 20 -58 0 -12
5 -26 12 -33 8 -8 9 -15 2 -22 -8 -8 -15 -6 -24 5 -7 8 -18 15 -24 15 -20 0
-59 47 -47 55 18 10 13 21 -29 65 -44 46 -72 94 -88 152 -14 52 -4 55 37 10
20 -22 45 -42 56 -46z m-158 37 c28 -4 37 -14 68 -77 20 -39 46 -81 57 -93 19
-20 19 -26 8 -53 -9 -22 -16 -28 -23 -21 -6 6 -21 11 -33 11 -13 0 -26 5 -30
11 -4 7 -27 10 -60 7 -30 -3 -54 -2 -54 2 0 30 76 40 120 15 29 -16 50 -19 50
-6 0 14 -59 31 -108 31 -56 0 -152 -51 -152 -81 0 -14 -7 -19 -27 -20 l-28 -1
32 -14 c17 -7 36 -21 41 -30 12 -22 32 -9 32 21 0 45 89 44 131 -1 21 -22 21
-25 6 -42 -19 -21 -23 -67 -6 -78 7 -4 19 2 28 13 26 31 101 57 101 34 0 -5
-16 -18 -35 -30 -32 -19 -35 -24 -35 -69 0 -32 -5 -54 -15 -62 -8 -7 -19 -27
-23 -44 -10 -35 -14 -35 -117 -17 -33 6 -117 19 -188 30 -70 11 -132 23 -137
26 -6 3 -10 15 -10 26 0 17 5 19 58 14 31 -3 75 -8 97 -11 22 -3 79 -9 126
-14 48 -4 96 -14 107 -21 22 -14 43 -5 26 10 -5 5 -88 19 -184 31 -165 22
-220 37 -220 61 0 5 7 12 15 16 16 5 98 89 149 149 26 31 26 32 18 150 -5 66
-6 125 -4 133 4 11 24 12 96 7 50 -4 105 -9 123 -13z m821 -32 c49 -20 118
-28 247 -31 106 -3 36 -19 -90 -22 -90 -1 -106 1 -157 26 -32 14 -58 31 -58
36 0 13 2 13 58 -9z m-1883 -25 c0 -26 -4 -30 -54 -43 -67 -17 -81 -12 -81 27
0 24 4 30 23 29 12 0 36 4 52 9 46 16 60 11 60 -22z m-1397 1 c3 -15 -73 -93
-107 -110 -9 -5 5 12 32 37 26 25 43 47 37 51 -5 3 -14 3 -20 0 -20 -13 -9 14
12 29 26 19 42 16 46 -7z m989 -61 c8 -24 10 -43 4 -49 -5 -5 -38 -6 -75 -2
-60 7 -69 11 -91 40 -14 17 -25 35 -25 38 0 6 108 14 154 13 13 -1 23 -14 33
-40z m-1098 -3 c-44 -55 -90 -73 -73 -29 7 18 50 45 73 46 11 0 11 -3 0 -17z
m-196 -29 c63 -32 78 -44 71 -55 -6 -10 -102 26 -126 48 -15 14 -16 33 -2 33
3 0 28 -12 57 -26z m1671 -12 c6 -10 -39 -81 -62 -99 -9 -7 -26 -13 -39 -13
-19 0 -23 5 -22 28 1 49 14 65 60 78 59 15 57 15 63 6z m1976 -29 c91 -18 105
-27 30 -20 -84 8 -133 21 -138 36 -3 10 0 12 14 6 11 -4 53 -14 94 -22z
m-2300 -84 c0 -31 -65 -26 -96 8 -28 31 -23 40 26 45 39 4 70 -20 70 -53z
m1774 -4 c3 -9 22 -23 41 -31 56 -23 45 -42 -15 -25 -35 11 -106 -12 -151 -48
-21 -17 -46 -31 -56 -31 -15 0 -14 4 7 20 25 20 25 20 5 36 -15 11 -33 14 -67
10 -49 -5 -65 7 -25 20 12 4 63 8 113 9 100 3 114 7 114 36 0 23 25 26 34 4z
m-1904 -14 c0 -15 139 -112 186 -129 39 -14 46 -15 54 -2 5 8 12 11 16 7 4 -4
-6 -22 -23 -40 -19 -20 -35 -51 -43 -84 -12 -55 -16 -59 -39 -44 -20 13 -56
-6 -70 -36 -16 -36 -49 -26 -88 25 -26 34 -33 53 -33 88 0 25 5 54 11 66 6 11
11 51 12 89 1 38 5 69 10 69 4 0 7 -4 7 -9z m337 -47 c1 -5 -6 -20 -17 -34
-15 -19 -22 -22 -31 -13 -9 9 -8 18 5 38 17 25 36 29 43 9z m-153 -4 c26 -10
38 -50 15 -50 -17 0 -79 40 -79 51 0 12 32 12 64 -1z m1526 -118 c0 -4 -6 -16
-13 -27 -8 -11 -24 -48 -36 -82 -13 -35 -27 -63 -32 -63 -16 0 -10 44 11 80
11 19 27 50 35 68 14 29 35 44 35 24z m-2185 -165 c11 -7 41 -21 66 -31 26 -9
55 -26 65 -37 18 -20 18 -20 -11 -13 -17 4 -40 11 -53 15 -13 5 -52 9 -88 9
-57 0 -64 2 -64 20 0 11 12 26 28 34 34 19 33 19 57 3z m679 -16 c43 -9 46
-31 4 -31 -35 1 -68 19 -68 40 0 8 6 10 18 5 9 -4 30 -10 46 -14z m-76 -54 c2
-9 -3 -26 -11 -38 -15 -21 -15 -21 -31 9 -15 29 -15 32 2 41 22 13 36 9 40
-12z m206 -18 c31 -24 33 -39 7 -39 -26 0 -66 34 -57 48 10 17 19 15 50 -9z
m-140 -36 c-9 -21 -20 -46 -25 -55 -5 -10 -6 -24 -3 -31 7 -20 -55 -72 -69
-58 -7 7 -6 16 5 28 9 10 25 40 37 68 22 50 48 85 62 85 5 0 1 -17 -7 -37z
m166 -40 c11 -3 5 -13 -24 -37 -46 -39 -58 -87 -49 -192 7 -87 -2 -106 -59
-121 -23 -6 -51 -15 -60 -18 -16 -7 -18 2 -18 99 0 118 1 121 100 234 46 51
54 54 110 35z m-266 -159 c8 -25 -16 -54 -43 -54 -47 0 -56 79 -11 91 28 7 45
-5 54 -37z m276 -55 c0 -25 46 -72 106 -110 35 -23 64 -44 64 -49 0 -4 -12
-10 -27 -13 -20 -4 -37 2 -61 19 -17 14 -51 28 -75 33 -42 7 -42 7 -39 46 3
57 11 85 22 85 6 0 10 -5 10 -11z m-1266 -30 c32 -53 110 -72 201 -48 72 19
75 18 92 -30 15 -43 14 -45 -8 -62 -22 -17 -23 -18 -6 -37 21 -23 13 -32 -25
-32 -40 0 -85 -25 -135 -73 -49 -47 -58 -87 -20 -87 12 0 31 6 42 13 11 8 33
22 49 32 l29 19 -8 -24 c-4 -14 -14 -33 -23 -43 -14 -16 -14 -19 -1 -33 12
-11 45 -16 140 -18 68 -1 139 1 159 5 19 4 36 7 37 5 2 -2 -41 -25 -95 -53
-288 -147 -544 -368 -719 -621 l-33 -47 0 31 c0 34 -15 54 -42 54 -20 0 -23
11 -8 26 24 24 57 142 59 213 4 140 -34 242 -107 291 -25 16 -53 30 -61 30 -9
0 -22 4 -30 9 -12 8 -10 16 14 50 25 37 27 47 22 99 -5 56 -23 108 -52 147
-14 20 -12 24 29 67 27 29 46 60 50 82 l7 36 30 -16 c19 -9 68 -17 132 -20
101 -5 103 -4 167 30 36 18 72 34 80 35 9 1 24 -13 34 -30z m2089 -164 c68
-28 96 -55 116 -117 10 -31 10 -42 -4 -67 -14 -29 -19 -31 -69 -31 -32 0 -73
8 -100 19 -39 17 -46 24 -51 58 -3 21 -10 48 -16 61 -11 29 -11 44 1 76 12 34
41 34 123 1z m-515 -63 c21 -23 32 -46 32 -65 0 -25 -2 -28 -15 -17 -8 7 -15
19 -15 26 0 19 -29 18 -36 -1 -4 -8 -13 -15 -20 -15 -12 0 -12 4 -4 21 15 27
-5 56 -26 38 -7 -6 -12 -16 -11 -22 1 -6 -8 -13 -20 -15 -12 -2 -25 -12 -28
-23 -8 -25 -35 -25 -35 1 0 10 -6 23 -14 27 -8 4 -14 17 -13 28 3 34 -25 22
-38 -15 -14 -42 -30 -38 -29 8 2 47 25 65 97 78 77 13 127 -2 175 -54z m-334
15 c29 -21 16 -51 -22 -55 -34 -3 -37 2 -22 42 11 29 19 32 44 13z m-94 -26
c0 -27 -4 -30 -50 -40 -61 -13 -60 -13 -60 -2 0 9 87 69 103 70 4 1 7 -12 7
-28z m98 -142 c17 -10 27 -10 60 0 29 10 44 10 59 2 14 -7 31 -7 54 0 19 5 52
6 74 3 22 -4 49 -8 60 -9 49 -6 203 -47 263 -70 254 -97 455 -226 632 -404
175 -177 288 -357 370 -586 68 -194 90 -333 90 -584 1 -147 -1 -167 -20 -198
-15 -25 -18 -39 -10 -48 18 -22 -22 -188 -86 -347 -79 -198 -188 -365 -360
-547 -98 -105 -120 -117 -229 -131 -50 -7 -113 -21 -142 -32 -58 -21 -119 -81
-129 -125 -14 -65 -26 -83 -73 -104 -93 -41 -193 -69 -282 -79 -51 -6 -95 -12
-99 -15 -4 -2 -90 -7 -191 -9 -415 -12 -734 81 -1051 306 -245 173 -476 453
-563 681 -13 34 -32 82 -43 107 -33 72 -71 233 -87 367 -18 147 -13 324 15
490 18 105 54 246 69 268 4 6 13 28 20 50 21 63 105 227 145 286 72 104 88
125 151 196 72 79 222 206 323 271 131 84 405 207 503 226 13 2 53 12 89 21
36 10 92 21 125 25 85 11 238 5 263 -11z m-1618 -860 c-22 -42 -43 -47 -48
-11 -2 14 3 24 15 28 10 3 25 9 33 14 8 5 16 9 18 9 1 1 -7 -17 -18 -40z
m-136 -109 c35 -7 53 -7 63 1 26 22 24 1 -5 -83 -17 -46 -40 -131 -52 -188
-21 -102 -29 -125 -36 -105 -22 58 -67 94 -139 110 -36 8 -55 22 -55 41 0 17
39 18 89 3 29 -9 45 -7 86 8 54 20 75 47 75 100 0 37 -31 63 -97 83 -41 12
-52 27 -36 44 4 4 19 5 33 2 14 -3 47 -10 74 -16z m-35 -627 l0 -157 -20 35
c-46 75 -99 115 -188 139 -83 22 -95 29 -81 45 9 11 35 15 104 15 97 0 143 16
166 59 6 12 13 21 15 21 3 0 5 -71 4 -157z m4122 -115 c-10 -28 -22 -32 -46
-13 -20 14 -20 14 2 15 12 0 25 5 28 10 12 19 24 10 16 -12z m-260 2 c19 -11
26 -30 10 -30 -5 0 -19 9 -32 20 -26 21 -11 27 22 10z m-36 -50 c17 -11 38
-17 48 -14 27 9 20 -3 -13 -20 -16 -8 -30 -10 -30 -5 0 5 -6 9 -14 9 -16 0
-46 26 -46 41 0 15 23 10 55 -11z m-3776 -297 c27 -97 33 -125 24 -121 -5 1
-35 17 -68 33 -53 26 -70 30 -145 30 -47 0 -112 -2 -145 -5 -78 -5 -155 28
-166 73 -16 59 5 70 171 92 144 19 219 49 259 105 l26 37 12 -88 c7 -49 21
-119 32 -156z m3491 -97 c0 -3 -4 -8 -10 -11 -5 -3 -10 -1 -10 4 0 6 5 11 10
11 6 0 10 -2 10 -4z m331 -69 c-8 -8 -11 -7 -11 4 0 20 13 34 18 19 3 -7 -1
-17 -7 -23z m-391 3 c0 -5 -4 -10 -10 -10 -5 0 -10 5 -10 10 0 6 5 10 10 10 6
0 10 -4 10 -10z m60 -260 c0 -5 -5 -10 -11 -10 -5 0 -7 5 -4 10 3 6 8 10 11
10 2 0 4 -4 4 -10z m40 -4 c0 -3 -4 -8 -10 -11 -5 -3 -10 -1 -10 4 0 6 5 11
10 11 6 0 10 -2 10 -4z m-103 -58 c-3 -8 -6 -5 -6 6 -1 11 2 17 5 13 3 -3 4
-12 1 -19z m80 -10 c-3 -8 -6 -5 -6 6 -1 11 2 17 5 13 3 -3 4 -12 1 -19z
m-236 -75 c-8 -15 -10 -15 -11 -2 0 17 10 32 18 25 2 -3 -1 -13 -7 -23z m362
-106 c-3 -20 -10 -37 -15 -37 -5 0 -6 10 -3 23 4 12 9 30 12 40 8 31 13 13 6
-26z m-253 23 c0 -5 -4 -10 -10 -10 -5 0 -10 5 -10 10 0 6 5 10 10 10 6 0 10
-4 10 -10z m127 -52 c-3 -8 -6 -5 -6 6 -1 11 2 17 5 13 3 -3 4 -12 1 -19z
m-453 -33 c-4 -8 -11 -15 -16 -15 -6 0 -5 6 2 15 7 8 14 15 16 15 2 0 1 -7 -2
-15z m502 -52 c-11 -11 -17 4 -9 23 7 18 8 18 11 1 2 -10 1 -21 -2 -24z m-339
-5 c-3 -8 -6 -5 -6 6 -1 11 2 17 5 13 3 -3 4 -12 1 -19z m-87 -38 c0 -5 -5
-10 -11 -10 -5 0 -7 5 -4 10 3 6 8 10 11 10 2 0 4 -4 4 -10z m257 -12 c-3 -8
-6 -5 -6 6 -1 11 2 17 5 13 3 -3 4 -12 1 -19z m83 7 c0 -8 -4 -15 -10 -15 -5
0 -10 7 -10 15 0 8 5 15 10 15 6 0 10 -7 10 -15z m70 0 c0 -8 -4 -15 -10 -15
-5 0 -7 7 -4 15 4 8 8 15 10 15 2 0 4 -7 4 -15z m-204 -82 c-10 -10 -19 5 -10
18 6 11 8 11 12 0 2 -7 1 -15 -2 -18z m31 5 c-3 -8 -6 -5 -6 6 -1 11 2 17 5
13 3 -3 4 -12 1 -19z m79 6 c-3 -9 -6 -18 -6 -20 0 -3 -4 -3 -10 1 -11 7 -2
35 12 35 6 0 7 -7 4 -16z m-846 -24 c0 -5 -2 -10 -4 -10 -3 0 -8 5 -11 10 -3
6 -1 10 4 10 6 0 11 -4 11 -10z m507 -12 c-3 -8 -6 -5 -6 6 -1 11 2 17 5 13 3
-3 4 -12 1 -19z m-227 -18 c0 -5 -5 -10 -11 -10 -5 0 -7 5 -4 10 3 6 8 10 11
10 2 0 4 -4 4 -10z m57 -12 c-3 -8 -6 -5 -6 6 -1 11 2 17 5 13 3 -3 4 -12 1
-19z m323 7 c0 -8 -4 -15 -10 -15 -5 0 -10 7 -10 15 0 8 5 15 10 15 6 0 10 -7
10 -15z m96 -12 c-10 -10 -19 5 -10 18 6 11 8 11 12 0 2 -7 1 -15 -2 -18z
m-106 -38 c0 -8 -4 -15 -10 -15 -5 0 -7 7 -4 15 4 8 8 15 10 15 2 0 4 -7 4
-15z m100 6 c0 -6 -4 -13 -10 -16 -5 -3 -10 1 -10 9 0 9 5 16 10 16 6 0 10 -4
10 -9z m-30 -5 c0 -3 -4 -8 -10 -11 -5 -3 -10 -1 -10 4 0 6 5 11 10 11 6 0 10
-2 10 -4z m-585 -25 c3 -5 1 -12 -5 -16 -5 -3 -10 1 -10 9 0 18 6 21 15 7z
m465 -21 c0 -5 -5 -10 -11 -10 -5 0 -7 5 -4 10 3 6 8 10 11 10 2 0 4 -4 4 -10z
m32 -62 c-9 -9 -12 -7 -12 12 0 19 3 21 12 12 9 -9 9 -15 0 -24z m-372 -18 c0
-5 -5 -10 -11 -10 -5 0 -7 5 -4 10 3 6 8 10 11 10 2 0 4 -4 4 -10z m97 -12
c-3 -8 -6 -5 -6 6 -1 11 2 17 5 13 3 -3 4 -12 1 -19z m168 -47 c3 -5 1 -12 -5
-16 -5 -3 -10 1 -10 9 0 18 6 21 15 7z m-2100 -21 c17 -18 17 -20 2 -14 -13 5
-17 0 -18 -17 -1 -20 -2 -19 -8 6 -4 17 -13 29 -20 27 -7 -1 -10 2 -6 8 10 16
30 12 50 -10z m2065 10 c0 -5 -2 -10 -4 -10 -3 0 -8 5 -11 10 -3 6 -1 10 4 10
6 0 11 -4 11 -10z m-1923 -21 c25 -9 78 -25 168 -49 22 -6 8 -8 -53 -9 -87 -1
-121 9 -156 48 -16 18 -17 21 -3 21 9 0 28 -5 44 -11z m-200 -31 c-3 -8 -6 -5
-6 6 -1 11 2 17 5 13 3 -3 4 -12 1 -19z m2050 0 c-3 -8 -6 -5 -6 6 -1 11 2 17
5 13 3 -3 4 -12 1 -19z m-32 2 c3 -5 1 -10 -4 -10 -6 0 -11 5 -11 10 0 6 2 10
4 10 3 0 8 -4 11 -10z m-1230 -20 c3 -6 17 -7 30 -4 17 4 34 -2 58 -20 19 -14
37 -26 40 -26 3 0 18 -5 34 -12 l28 -11 -30 -7 c-16 -3 -35 -2 -42 2 -6 5 -22
10 -36 12 -13 1 -34 12 -47 24 -13 12 -27 19 -31 16 -4 -2 -10 0 -14 6 -7 12
-48 14 -59 3 -4 -4 -22 -8 -39 -9 -60 -2 -67 -4 -67 -17 0 -9 -12 -14 -30 -14
-38 0 -34 18 6 30 16 5 49 14 74 22 55 16 117 19 125 5z m-675 -21 c0 -11 -4
-17 -10 -14 -5 3 -10 13 -10 21 0 8 5 14 10 14 6 0 10 -9 10 -21z m965 1 c-3
-5 -13 -10 -21 -10 -8 0 -12 5 -9 10 3 6 13 10 21 10 8 0 12 -4 9 -10z m330 0
c3 -5 1 -10 -4 -10 -6 0 -11 5 -11 10 0 6 2 10 4 10 3 0 8 -4 11 -10z m175 0
c0 -5 -5 -10 -11 -10 -5 0 -7 5 -4 10 3 6 8 10 11 10 2 0 4 -4 4 -10z m-1440
-10 c0 -5 -2 -10 -4 -10 -3 0 -8 5 -11 10 -3 6 -1 10 4 10 6 0 11 -4 11 -10z
m190 -34 c0 -8 -4 -18 -10 -21 -5 -3 -10 3 -10 14 0 12 5 21 10 21 6 0 10 -6
10 -14z m175 4 c9 -15 -6 -81 -17 -74 -5 3 -6 19 -3 35 6 28 5 29 -32 30 -30
0 -34 2 -18 9 28 12 63 12 70 0z m-137 -11 c-2 -6 -8 -10 -13 -10 -5 0 -11 4
-13 10 -2 6 4 11 13 11 9 0 15 -5 13 -11z m32 -5 c0 -8 -5 -12 -10 -9 -6 4 -8
11 -5 16 9 14 15 11 15 -7z m-110 2 c0 -3 -4 -8 -10 -11 -5 -3 -10 -1 -10 4 0
6 5 11 10 11 6 0 10 -2 10 -4z m670 -42 c0 -8 -5 -12 -10 -9 -6 4 -8 11 -5 16
9 14 15 11 15 -7z m110 6 c0 -5 -5 -10 -11 -10 -5 0 -7 5 -4 10 3 6 8 10 11
10 2 0 4 -4 4 -10z m-360 -30 c0 -5 -2 -10 -4 -10 -3 0 -8 5 -11 10 -3 6 -1
10 4 10 6 0 11 -4 11 -10z m75 1 c3 -5 1 -12 -5 -16 -5 -3 -10 1 -10 9 0 18 6
21 15 7z m285 -22 c0 -5 -4 -9 -10 -9 -5 0 -10 7 -10 16 0 8 5 12 10 9 6 -3
10 -10 10 -16z m40 7 c0 -3 -4 -8 -10 -11 -5 -3 -10 -1 -10 4 0 6 5 11 10 11
6 0 10 -2 10 -4z m-320 -36 c0 -5 -4 -10 -10 -10 -5 0 -10 5 -10 10 0 6 5 10
10 10 6 0 10 -4 10 -10z m200 -10 c0 -5 -5 -10 -11 -10 -5 0 -7 5 -4 10 3 6 8
10 11 10 2 0 4 -4 4 -10z m390 -84 c0 -11 -19 -15 -25 -6 -3 5 1 10 9 10 9 0
16 -2 16 -4z m-290 -66 c0 -5 -4 -10 -10 -10 -5 0 -10 5 -10 10 0 6 5 10 10
10 6 0 10 -4 10 -10z m470 -40 c0 -5 -4 -10 -10 -10 -5 0 -10 5 -10 10 0 6 5
10 10 10 6 0 10 -4 10 -10z m-35 -29 c3 -5 1 -12 -5 -16 -5 -3 -10 1 -10 9 0
18 6 21 15 7z m125 -1 c0 -5 -4 -10 -9 -10 -6 0 -13 5 -16 10 -3 6 1 10 9 10
9 0 16 -4 16 -10z m-400 -16 c0 -8 -5 -12 -10 -9 -6 4 -8 11 -5 16 9 14 15 11
15 -7z m100 6 c0 -5 -4 -10 -10 -10 -5 0 -10 5 -10 10 0 6 5 10 10 10 6 0 10
-4 10 -10z m240 -20 c0 -5 -5 -10 -11 -10 -5 0 -7 5 -4 10 3 6 8 10 11 10 2 0
4 -4 4 -10z m-40 -43 c0 -4 -3 -6 -7 -4 -5 2 -16 7 -26 10 -10 4 -16 11 -12
17 7 11 45 -9 45 -23z"/>
<path d="M1050 8275 c-21 -25 -1 -31 23 -7 17 18 18 22 5 22 -8 0 -21 -7 -28
-15z"/>
<path d="M1220 7257 c0 -14 35 -39 44 -30 7 7 -23 43 -36 43 -4 0 -8 -6 -8
-13z"/>
<path d="M3592 7091 c-10 -6 -4 -10 18 -15 45 -8 56 -8 45 3 -16 15 -49 21
-63 12z"/>
<path d="M2133 6874 c-8 -20 17 -36 34 -22 10 8 10 14 2 24 -15 18 -28 18 -36
-2z"/>
<path d="M2627 6133 c-4 -3 -7 -19 -7 -35 0 -33 24 -38 40 -9 17 32 -10 68
-33 44z"/>
<path d="M2350 5913 c-77 -6 -90 -11 -90 -37 0 -12 9 -31 20 -41 17 -15 24
-16 49 -5 26 10 33 10 46 -4 9 -9 21 -16 26 -16 5 0 9 -21 9 -47 1 -96 4 -107
30 -120 32 -16 42 -16 64 0 16 11 18 27 17 101 l-2 88 73 -3 c71 -4 72 -4 82
24 19 54 5 59 -144 62 -74 1 -155 0 -180 -2z"/>
<path d="M1485 5571 c-16 -10 -39 -28 -50 -41 -25 -28 -90 -70 -109 -70 -25 0
-70 -45 -63 -63 13 -34 88 -9 189 62 58 40 58 40 69 18 7 -12 30 -46 51 -74
32 -44 44 -53 69 -53 41 0 45 21 16 72 -14 24 -27 55 -31 70 -8 34 -68 98 -92
98 -11 0 -32 -8 -49 -19z"/>
<path d="M3468 5528 c-32 -11 -35 -25 -12 -43 16 -11 15 -17 -6 -77 l-24 -65
20 -34 c26 -44 117 -93 145 -78 23 12 23 18 4 43 -18 24 -19 49 -3 92 14 40 0
95 -34 136 -28 32 -54 40 -90 26z"/>
<path d="M2345 5504 c-88 -9 -234 -38 -305 -61 -339 -109 -612 -367 -730 -691
-90 -246 -106 -447 -53 -672 22 -93 39 -138 91 -235 83 -157 138 -232 242
-333 138 -135 307 -236 500 -296 46 -15 99 -36 118 -48 25 -15 41 -19 70 -13
20 3 82 6 137 5 219 -3 484 72 665 188 64 40 206 160 266 224 107 112 215 320
255 488 40 167 35 427 -11 553 -10 29 -28 83 -40 121 -63 202 -198 381 -404
538 -79 59 -257 152 -351 182 -113 36 -339 61 -450 50z m245 -75 c119 -14 208
-40 325 -95 117 -54 193 -106 288 -194 185 -173 302 -402 337 -658 17 -120 7
-322 -19 -417 -91 -334 -285 -575 -582 -721 -168 -83 -393 -126 -564 -107 -67
8 -69 9 -76 39 -8 40 -17 54 -35 54 -12 0 -15 -9 -13 -34 2 -19 1 -38 -3 -41
-12 -12 -204 43 -293 85 -232 107 -437 306 -538 521 -59 127 -109 326 -108
429 5 275 47 429 178 652 60 101 213 248 353 340 64 41 209 105 259 113 19 3
39 9 45 13 16 10 190 29 281 31 44 0 119 -4 165 -10z"/>
<path d="M2406 5407 c-13 -9 -16 -24 -14 -62 4 -82 -1 -155 -12 -155 -5 0 -13
18 -16 40 -8 50 -26 75 -48 67 -33 -13 -13 -137 25 -158 25 -13 24 -31 -2 -47
-11 -7 -27 -29 -35 -48 -12 -29 -12 -39 0 -67 14 -35 59 -77 82 -77 8 0 14
-11 14 -25 0 -23 -3 -25 -41 -23 -30 2 -44 -2 -52 -14 -15 -23 0 -38 45 -47
29 -6 33 -11 36 -40 4 -37 -9 -51 -48 -51 -14 0 -57 -16 -97 -36 l-72 -37 -49
54 c-27 30 -68 77 -90 104 -22 28 -85 100 -140 160 -80 87 -101 116 -102 140
-1 81 -28 96 -80 44 -42 -43 -39 -83 7 -87 25 -3 46 -19 100 -79 37 -41 103
-114 145 -160 77 -84 168 -204 168 -220 0 -5 -16 -32 -36 -62 -20 -29 -41 -74
-48 -100 l-11 -46 -102 -3 -103 -3 -21 46 c-24 52 -38 62 -108 75 -75 14 -141
-14 -162 -67 -6 -16 -17 -23 -36 -23 -16 0 -38 -3 -50 -6 -18 -5 -25 -1 -33
20 -17 47 -51 30 -57 -29 -1 -16 -5 -44 -8 -62 -5 -25 -1 -34 14 -43 17 -9 24
-6 42 20 19 25 30 30 66 30 37 0 44 -4 57 -29 9 -16 30 -41 48 -56 29 -24 38
-27 95 -23 59 4 66 7 107 47 l43 42 104 -3 103 -3 8 -45 c4 -25 23 -76 42
-114 20 -38 32 -74 28 -81 -4 -7 -90 -99 -192 -204 -149 -153 -191 -191 -212
-191 -37 0 -47 -34 -21 -69 28 -36 69 -40 77 -7 3 14 32 53 64 86 90 96 321
323 337 333 10 5 30 -1 59 -18 24 -14 73 -32 107 -39 53 -11 65 -17 70 -37 11
-38 10 -227 -1 -234 -5 -3 -22 0 -37 8 -30 15 -53 12 -66 -10 -5 -8 -16 -11
-26 -8 -10 3 -24 -1 -30 -9 -11 -13 -7 -19 21 -36 22 -14 42 -19 58 -15 51 13
74 10 78 -8 2 -10 -4 -20 -15 -24 -10 -3 -25 -12 -34 -20 -13 -11 -18 -10 -34
7 -21 23 -38 25 -54 7 -12 -16 10 -41 68 -75 26 -16 39 -18 53 -11 21 11 20
13 18 -66 -1 -36 -7 -66 -16 -76 -17 -19 -18 -43 -1 -57 21 -17 75 -24 96 -12
25 13 27 45 5 58 -12 7 -17 28 -19 86 -1 42 1 79 6 82 5 3 18 0 30 -6 15 -9
24 -9 32 -1 6 6 18 11 26 11 8 0 32 12 53 26 57 40 48 73 -11 40 -18 -10 -32
-11 -53 -4 -16 6 -39 7 -52 4 -21 -5 -25 -2 -31 25 -10 43 6 55 35 24 29 -31
54 -32 91 -1 15 13 34 26 40 28 7 2 10 12 6 21 -6 16 -9 16 -47 1 -37 -15 -42
-15 -58 -1 -9 9 -30 20 -45 26 l-28 11 3 117 3 116 55 12 c30 6 70 19 88 28
18 10 37 15 43 12 5 -4 28 -30 51 -58 22 -29 95 -108 162 -177 134 -138 176
-190 191 -235 12 -36 45 -44 81 -20 20 13 25 23 22 48 -3 30 -6 32 -43 35 -34
3 -45 9 -69 44 -40 56 -96 118 -196 218 -80 79 -160 171 -160 182 0 3 11 17
25 32 39 42 95 145 95 174 0 37 10 50 40 52 44 4 52 1 46 -18 -4 -10 0 -26 6
-35 11 -14 17 -15 38 -4 14 7 26 23 28 35 3 17 10 22 32 22 27 0 29 -3 35 -47
11 -89 16 -98 59 -97 36 1 212 81 278 126 35 24 75 24 83 -1 3 -11 13 -25 21
-32 33 -27 67 57 45 114 -15 39 -40 46 -63 17 -17 -22 -21 -22 -60 -10 -23 6
-66 27 -95 46 -75 48 -189 104 -212 104 -29 0 -38 -19 -46 -93 -7 -66 -7 -68
-33 -65 -24 3 -27 8 -32 53 -6 56 -24 68 -65 41 -17 -11 -25 -27 -27 -53 -3
-35 -6 -38 -33 -38 -27 0 -31 5 -50 60 -11 33 -31 77 -43 98 -27 42 -25 48 38
102 25 22 116 109 202 193 86 85 162 159 170 163 7 5 26 9 41 9 33 0 43 20 27
52 -36 68 -90 92 -90 39 0 -24 -15 -44 -76 -103 -41 -40 -141 -137 -221 -215
-80 -79 -152 -143 -160 -143 -19 0 -53 18 -80 42 -12 11 -52 28 -90 38 -70 18
-81 29 -69 73 3 12 15 27 28 32 33 14 35 43 4 55 -36 13 -33 45 9 84 50 48 47
94 -12 157 l-24 26 24 16 c34 22 50 67 39 108 -8 30 -12 34 -40 33 -27 -2 -32
2 -32 20 0 13 11 33 25 46 27 26 32 49 13 68 -16 16 -60 15 -82 -1z m-16 -388
c0 -20 -4 -29 -12 -27 -15 5 -22 33 -14 54 9 24 26 6 26 -27z m77 -41 c-3 -7
-5 -2 -5 12 0 14 2 19 5 13 2 -7 2 -19 0 -25z m-74 -382 c6 -35 4 -52 -7 -67
-12 -18 -12 -24 0 -47 16 -32 18 -71 3 -92 -9 -12 -11 -13 -16 -1 -3 7 -40 52
-81 99 l-76 85 27 21 c30 22 115 56 132 52 5 -1 13 -24 18 -50z m132 33 c67
-23 115 -54 115 -74 0 -13 -105 -116 -157 -153 l-30 -21 -7 52 c-8 67 -8 181
0 201 8 20 8 20 79 -5z m-288 -146 c54 -64 83 -103 83 -115 0 -11 -207 -10
-214 0 -15 24 49 172 74 172 4 0 29 -26 57 -57z m477 -12 c19 -35 32 -111 20
-112 -5 0 -50 -2 -100 -3 l-91 -3 71 73 c39 40 74 73 78 74 4 0 14 -13 22 -29z
m-982 -58 c26 -23 13 -33 -40 -33 -62 0 -92 9 -92 26 0 32 98 37 132 7z m1469
-25 c46 -29 50 -33 29 -36 -13 -2 -43 -1 -67 3 -36 5 -43 10 -43 29 0 45 13
46 81 4z m-1491 -79 c0 -11 -47 -20 -64 -13 -9 3 -14 9 -12 13 6 8 76 8 76 0z
m632 -18 c9 -8 -147 -171 -163 -171 -29 0 -92 151 -74 179 6 11 224 3 237 -8z
m379 -1 c12 0 19 -7 19 -17 -2 -54 -70 -173 -99 -173 -17 1 -154 152 -160 177
-2 12 3 15 25 11 16 -3 54 -2 84 2 30 4 68 6 84 4 16 -2 37 -4 47 -4z m564 -3
c13 -1 -5 -16 -56 -45 -100 -55 -109 -55 -109 6 l0 48 73 -4 c39 -1 81 -4 92
-5z m-885 -167 l0 -110 -27 0 c-30 0 -126 41 -137 58 -3 5 9 25 27 43 37 38
128 119 133 119 2 0 4 -49 4 -110z m178 -59 c-3 -16 -106 -57 -116 -46 -4 3
-8 49 -9 103 l-4 97 66 -69 c36 -38 65 -76 63 -85z"/>
<path d="M1515 4850 c3 -5 8 -10 11 -10 2 0 4 5 4 10 0 6 -5 10 -11 10 -5 0
-7 -4 -4 -10z"/>
<path d="M1367 5372 c-23 -26 -21 -45 9 -81 23 -27 30 -44 33 -73 1 -5 12 -8
26 -8 23 0 30 10 26 34 -1 4 4 14 10 22 9 11 3 25 -30 69 -23 30 -45 55 -50
55 -4 0 -15 -8 -24 -18z"/>
<path d="M937 4550 c-82 -20 -114 -42 -138 -93 -37 -83 -17 -155 62 -216 42
-32 47 -33 111 -29 125 9 190 70 184 174 -4 79 -68 168 -126 176 -16 3 -58 -3
-93 -12z m68 -84 c50 -15 74 -123 33 -150 -26 -17 -91 -8 -115 17 -27 27 -14
116 21 139 11 7 17 7 61 -6z"/>
<path d="M3720 4451 c-14 -27 -13 -71 3 -75 6 -1 46 -14 87 -28 l75 -25 3 -44
c1 -24 -2 -50 -7 -58 -5 -7 -43 -21 -86 -32 -82 -19 -125 -41 -125 -63 0 -15
54 -41 68 -32 5 3 37 8 73 11 35 3 75 8 89 11 14 3 45 8 70 10 58 6 107 22
113 37 3 7 5 54 6 104 2 97 -2 106 -49 109 -14 1 -83 23 -155 48 -71 25 -135
46 -142 46 -7 0 -17 -9 -23 -19z m270 -191 c0 -20 -5 -30 -15 -30 -10 0 -15
10 -15 30 0 20 5 30 15 30 10 0 15 -10 15 -30z"/>
<path d="M3351 3451 c-20 -37 -13 -89 13 -107 14 -8 34 -31 45 -50 23 -39 43
-37 61 6 13 33 4 58 -33 87 -13 10 -28 32 -34 48 -12 36 -38 44 -52 16z"/>
<path d="M1481 3413 c-79 -75 -161 -174 -161 -194 0 -12 16 -36 35 -53 26 -24
35 -41 35 -64 0 -30 2 -32 35 -32 68 0 85 86 30 146 -14 15 -25 28 -25 30 0 1
25 28 55 59 68 69 89 100 81 120 -9 24 -53 17 -85 -12z"/>
<path d="M3185 3319 c-15 -24 6 -79 40 -105 19 -14 44 -42 56 -61 31 -50 62
-68 91 -52 13 6 33 20 45 31 12 11 49 36 84 56 43 26 65 46 72 65 5 16 7 31 4
34 -15 14 -82 -12 -143 -58 -63 -46 -69 -49 -81 -33 -7 10 -13 23 -13 30 0 6
-24 32 -54 58 -53 45 -88 57 -101 35z"/>
<path d="M2264 3103 c-12 -2 -29 -12 -39 -23 -16 -17 -13 -22 39 -84 60 -70
68 -94 36 -114 -12 -7 -25 -24 -31 -38 -13 -36 20 -89 64 -103 51 -16 152 -23
208 -16 l52 7 -6 169 c-4 103 -2 169 4 169 5 0 9 6 9 14 0 17 -38 26 -95 23
l-40 -2 4 -87 c2 -73 1 -88 -12 -88 -19 0 -62 50 -89 104 -20 42 -55 76 -73
74 -5 0 -20 -3 -31 -5z m204 -296 c4 -20 -19 -31 -51 -23 -63 17 -59 49 6 44
30 -2 43 -8 45 -21z"/>
<path d="M4939 8696 c-2 -2 -53 -7 -114 -11 -119 -7 -152 -15 -62 -15 63 0 76
-15 22 -26 -19 -3 -38 -10 -41 -15 -7 -12 50 0 127 27 37 13 81 24 98 24 17 0
31 5 31 10 0 9 -52 15 -61 6z"/>
<path d="M0 8649 c0 -11 4 -18 8 -15 5 3 39 -10 77 -29 74 -37 85 -41 85 -25
0 8 -152 90 -167 90 -1 0 -3 -9 -3 -21z"/>
<path d="M2288 8655 c-4 -4 -22 -10 -40 -14 -19 -4 -33 -13 -33 -21 0 -11 16
-16 63 -18 34 -2 62 -7 62 -12 0 -4 23 -33 50 -63 30 -33 50 -64 50 -78 0 -15
-18 -44 -46 -74 -42 -44 -52 -50 -98 -55 -39 -4 -52 -9 -54 -24 -4 -18 2 -18
110 -12 62 4 162 9 222 12 109 5 150 15 143 37 -2 7 -22 13 -44 15 -45 3 -91
43 -113 99 -17 44 -8 71 41 126 38 44 44 47 90 47 46 0 62 11 39 25 -6 4 -81
6 -168 4 -198 -3 -212 -3 -242 6 -14 3 -28 3 -32 0z m266 -43 c7 -12 -39 -78
-60 -86 -19 -7 -87 50 -81 69 2 5 23 13 48 16 70 9 87 10 93 1z m-43 -224 c34
-42 20 -58 -53 -58 l-40 0 32 40 c17 22 34 40 37 40 3 0 13 -10 24 -22z"/>
<path d="M185 8560 c3 -5 13 -10 21 -10 8 0 22 -4 32 -10 9 -5 58 -23 107 -40
122 -41 134 -57 150 -199 2 -19 10 -51 18 -70 9 -20 21 -57 27 -83 7 -27 27
-64 46 -85 39 -45 44 -29 10 30 -35 61 -76 183 -76 226 0 46 -27 130 -49 152
-16 16 -249 99 -278 99 -8 0 -11 -4 -8 -10z"/>
<path d="M4250 8516 c-25 -13 -62 -26 -84 -30 -21 -4 -55 -16 -74 -26 -32 -18
-38 -18 -53 -5 -12 12 -23 13 -41 6 -50 -19 -111 -149 -102 -217 8 -61 5 -145
-7 -199 -10 -47 -16 -55 -35 -55 -31 0 -34 17 -18 101 21 109 18 156 -14 218
-15 30 -36 59 -47 65 -11 6 -37 21 -57 34 -21 14 -44 22 -53 18 -22 -8 -18
-26 6 -26 51 0 112 -55 146 -130 23 -52 23 -59 12 -120 -6 -36 -19 -86 -29
-112 -20 -50 -16 -59 28 -73 40 -12 69 2 82 39 20 62 27 134 19 195 -10 73 9
161 43 200 13 14 26 30 29 34 4 5 16 3 28 -4 18 -12 28 -10 73 12 29 15 68 30
87 34 34 7 131 52 131 61 0 10 -27 2 -70 -20z"/>
<path d="M4280 8465 c-62 -23 -81 -37 -62 -48 4 -3 41 3 81 13 113 30 122 8
17 -41 -68 -31 -65 -37 10 -14 64 19 110 56 101 79 -6 15 -14 17 -43 11 -31
-5 -36 -4 -31 9 8 20 7 20 -73 -9z"/>
<path d="M2650 8415 c0 -10 10 -15 30 -15 23 0 33 -6 42 -24 15 -34 41 -44 28
-12 -6 16 -5 27 3 35 17 17 -9 31 -60 31 -32 0 -43 -4 -43 -15z"/>
<path d="M2840 8360 c36 -30 50 -36 50 -22 0 12 -57 52 -72 52 -7 0 3 -14 22
-30z"/>
<path d="M4215 8360 c-3 -5 -1 -10 4 -10 6 0 11 5 11 10 0 6 -2 10 -4 10 -3 0
-8 -4 -11 -10z"/>
<path d="M3494 8349 c-3 -6 -2 -14 2 -19 11 -10 54 6 54 20 0 13 -47 13 -56
-1z"/>
<path d="M2800 8320 c0 -5 5 -10 10 -10 6 0 10 5 10 10 0 6 -4 10 -10 10 -5 0
-10 -4 -10 -10z"/>
<path d="M2952 8308 c2 -6 35 -22 74 -36 38 -13 77 -31 87 -40 12 -11 21 -12
28 -5 13 13 -42 61 -79 69 -15 3 -37 10 -50 15 -32 13 -64 11 -60 -3z"/>
<path d="M858 8173 c-22 -6 -23 -29 -2 -37 31 -12 45 -7 42 16 -3 23 -13 28
-40 21z"/>
<path d="M3318 8085 c-5 -5 115 -135 125 -135 18 0 4 34 -30 71 -35 39 -86 73
-95 64z"/>
<path d="M1 7879 c-2 -64 73 -157 143 -175 18 -4 26 -12 24 -23 -2 -12 -19
-17 -69 -21 -62 -5 -99 -20 -99 -42 0 -5 9 -4 19 2 11 5 47 10 80 10 60 0 61
0 114 -55 53 -55 77 -67 77 -42 0 21 -53 90 -84 111 -26 17 -27 19 -11 36 23
25 11 40 -31 40 -59 0 -144 92 -157 170 -3 19 -5 16 -6 -11z"/>
<path d="M305 7231 c-65 -11 -126 -42 -184 -95 -67 -61 -102 -86 -112 -80 -5
3 -9 -9 -9 -26 l0 -31 40 24 c22 13 62 43 88 66 78 71 122 92 205 98 62 5 79
2 115 -16 62 -32 86 -7 38 38 -27 26 -100 34 -181 22z"/>
<path d="M1513 6103 c-37 -19 -43 -33 -13 -33 11 0 43 -16 70 -35 49 -34 70
-43 70 -27 0 13 -15 29 -37 41 -13 6 -23 16 -23 21 0 15 82 11 110 -5 29 -17
50 -19 50 -5 0 18 -64 43 -117 44 -29 0 -53 4 -53 9 0 11 -22 7 -57 -10z"/>
<path d="M2880 6100 c0 -5 20 -21 44 -35 24 -14 50 -32 56 -40 17 -20 30 -19
30 3 0 22 -22 43 -67 66 -36 18 -63 21 -63 6z"/>
<path d="M3045 6029 c-10 -15 3 -25 16 -12 7 7 7 13 1 17 -6 3 -14 1 -17 -5z"/>
<path d="M825 3009 c-10 -15 3 -25 16 -12 7 7 7 13 1 17 -6 3 -14 1 -17 -5z"/>
<path d="M75 2929 c-27 -11 -56 -21 -62 -22 -7 0 -13 -13 -13 -29 l0 -29 39
32 c32 25 53 33 109 39 124 13 176 -3 254 -81 52 -52 68 -94 68 -183 0 -108 0
-107 79 -100 63 6 69 5 100 -21 31 -27 32 -31 29 -86 -3 -56 -2 -58 22 -61 28
-3 40 -39 20 -64 -10 -11 -9 -14 9 -14 12 0 38 7 58 15 59 25 135 19 202 -15
97 -49 146 -126 140 -224 -5 -93 8 -108 55 -61 27 27 35 26 80 -10 16 -12 19
-26 17 -68 -1 -39 2 -57 14 -67 22 -18 35 1 35 53 0 87 68 150 185 175 75 16
107 5 175 -61 57 -55 60 -61 60 -106 0 -31 -5 -53 -15 -61 -39 -32 9 -57 51
-25 23 17 117 20 162 4 71 -25 117 -160 73 -219 -11 -16 -21 -34 -21 -40 0 -6
-25 -22 -56 -37 -37 -17 -52 -29 -45 -36 7 -7 30 -2 73 16 62 27 64 27 121 12
126 -33 190 -79 233 -170 27 -57 29 -76 12 -157 -15 -72 -66 -136 -117 -147
-19 -3 -36 -12 -38 -18 -6 -18 44 -27 73 -14 21 9 26 8 34 -12 6 -12 14 -29
18 -37 5 -8 18 -33 29 -55 25 -49 89 -87 130 -76 33 9 43 31 13 31 -34 0 -75
26 -89 57 -8 15 -21 42 -29 59 -22 46 -9 96 38 145 39 41 39 41 101 37 64 -5
63 -4 110 -70 14 -19 19 -21 33 -9 12 10 14 23 10 52 -11 65 38 123 128 152 9
3 28 -3 43 -15 21 -16 28 -18 40 -8 23 19 18 58 -12 97 -26 34 -28 43 -27 127
1 80 4 97 28 138 26 46 75 91 124 117 40 21 176 16 225 -8 24 -12 50 -21 57
-21 8 0 32 19 52 41 33 36 42 40 65 34 16 -4 48 -8 73 -9 41 -1 45 1 53 29 16
52 23 60 65 67 23 4 50 12 61 18 28 14 49 0 84 -57 24 -40 31 -44 55 -39 15 4
35 16 45 28 18 22 23 73 8 83 -5 3 -7 31 -4 63 11 118 57 252 87 252 8 0 36
15 62 33 95 65 224 92 304 62 25 -9 59 -20 75 -26 49 -14 133 -111 164 -187
27 -66 61 -96 61 -54 0 11 7 25 15 32 8 7 15 21 15 30 0 10 12 32 26 49 22 26
33 31 70 31 38 0 45 -4 59 -30 18 -34 74 -66 99 -57 24 10 19 23 -18 52 -19
15 -38 39 -41 55 -10 46 11 105 52 140 34 31 40 32 95 27 57 -5 58 -5 58 21 0
14 -2 23 -5 20 -4 -3 -24 -2 -46 3 -33 8 -47 5 -88 -16 -55 -27 -108 -85 -119
-130 -7 -27 -12 -30 -54 -33 -37 -2 -55 -11 -91 -43 -25 -21 -47 -39 -49 -39
-2 0 -30 32 -63 71 -50 61 -70 77 -132 106 -150 69 -280 51 -461 -65 -45 -28
-59 -45 -84 -98 -38 -81 -57 -187 -40 -215 7 -11 10 -24 7 -30 -4 -5 0 -22 8
-39 8 -16 12 -31 9 -34 -14 -15 -49 -3 -78 25 -30 29 -39 32 -103 33 -62 1
-73 -2 -98 -25 -46 -42 -78 -58 -94 -48 -28 18 -65 8 -117 -31 -47 -36 -55
-39 -75 -28 -13 7 -64 12 -127 13 -102 0 -107 -1 -180 -37 -60 -30 -82 -47
-107 -85 -45 -67 -52 -92 -54 -181 -1 -53 3 -89 15 -116 9 -22 13 -43 9 -46
-5 -4 -29 -15 -55 -24 -31 -11 -62 -34 -88 -63 -38 -44 -43 -46 -98 -48 -31
-1 -75 -5 -97 -9 l-41 -7 0 73 c0 56 -5 83 -22 115 -47 89 -137 150 -256 174
-81 16 -79 15 -55 48 18 24 21 39 17 89 -3 48 -11 69 -39 107 -43 60 -85 82
-174 92 l-70 8 -6 36 c-10 67 -109 163 -189 184 -82 22 -207 -12 -272 -73 -26
-24 -28 -24 -52 -8 -14 9 -41 16 -61 16 -31 0 -35 3 -35 25 0 88 -81 197 -177
236 -44 18 -67 21 -130 17 l-76 -5 -38 38 c-30 30 -39 47 -39 73 0 70 -78 130
-162 124 l-51 -3 -1 75 c-1 89 -20 134 -80 192 -90 88 -97 91 -209 94 -85 3
-111 0 -152 -17z"/>
<path d="M194 2635 c-4 -9 -3 -41 1 -73 3 -31 8 -73 9 -92 2 -19 8 -48 15 -64
7 -19 8 -33 2 -39 -14 -14 -131 54 -159 92 -30 41 -62 42 -62 2 0 -16 6 -31
15 -35 8 -3 15 -11 15 -18 0 -7 9 -24 20 -38 31 -39 26 -53 -15 -46 l-35 7 0
-58 c0 -57 1 -58 45 -88 29 -19 45 -37 45 -51 0 -11 5 -25 12 -32 15 -15 42
-16 32 -1 -12 20 18 27 59 13 22 -8 53 -14 69 -14 32 0 92 -36 83 -50 -4 -7
-57 1 -107 16 -10 3 -18 1 -18 -4 0 -5 31 -15 70 -22 57 -11 76 -20 110 -52
23 -21 46 -38 51 -38 5 0 9 -5 9 -11 0 -29 -173 27 -225 72 -18 16 -35 29 -39
29 -13 0 -5 -21 14 -37 15 -13 19 -25 14 -48 -4 -24 1 -39 26 -70 36 -45 139
-119 188 -136 17 -6 32 -15 32 -20 0 -13 -32 -11 -78 5 -22 8 -43 12 -46 9
-14 -14 -4 -23 37 -33 23 -6 53 -16 67 -21 l25 -11 -22 -9 c-13 -5 -23 -14
-23 -20 0 -11 -16 -9 -52 6 -13 5 -18 2 -18 -8 0 -9 9 -19 20 -22 19 -6 24
-16 21 -42 -2 -17 38 -41 80 -49 18 -4 45 -15 58 -26 13 -10 31 -18 40 -18 12
0 10 5 -8 19 -15 11 -21 23 -16 31 12 19 136 6 152 -16 16 -22 8 -34 -23 -34
-22 0 -24 -3 -18 -27 4 -16 7 -32 8 -38 1 -13 -131 -16 -215 -4 -87 12 -150
-11 -216 -76 -25 -26 -57 -54 -70 -62 -26 -17 -67 -82 -78 -123 -3 -14 15 7
42 47 26 40 67 86 90 102 23 17 50 42 59 56 9 14 24 25 33 25 9 0 29 7 44 15
23 12 33 12 50 3 14 -8 59 -12 127 -10 118 2 264 -14 296 -33 11 -7 31 -15 44
-17 16 -2 26 -11 30 -28 4 -18 16 -27 47 -35 23 -5 50 -17 60 -26 23 -19 70
-49 79 -49 3 0 4 7 1 15 -4 8 -2 17 4 21 6 3 13 -3 16 -15 7 -27 10 -26 57 9
22 17 47 30 57 30 42 0 20 84 -35 129 -33 28 -19 39 55 40 74 1 99 10 138 47
33 34 4 32 -46 -2 -29 -20 -46 -24 -72 -20 -53 8 -58 22 -14 36 36 12 83 46
83 61 0 3 -15 12 -32 19 -43 17 -88 59 -88 82 0 25 9 23 45 -11 16 -16 47 -39
69 -51 l39 -21 21 20 c12 12 28 21 34 21 7 0 30 11 52 25 32 21 44 23 66 15
25 -10 26 -25 1 -25 -7 0 -11 -12 -9 -28 3 -26 1 -27 -18 -17 -16 9 -22 8 -26
-5 -17 -43 48 -32 91 15 35 38 148 18 132 -24 -4 -11 -18 -16 -46 -16 -74 0
-83 -35 -29 -120 22 -35 28 -52 23 -77 -3 -18 -1 -34 5 -38 16 -10 -15 -42
-47 -50 -16 -4 -39 1 -64 15 -53 27 -63 26 -84 -14 -18 -32 -18 -36 -2 -60 16
-24 36 -31 79 -27 28 3 86 -26 103 -53 21 -32 8 -80 -35 -121 -27 -25 -34 -27
-81 -22 -28 4 -57 11 -65 18 -7 6 -18 8 -24 4 -8 -5 -10 5 -8 31 2 28 8 40 21
42 28 6 49 -16 36 -39 -11 -22 1 -25 32 -9 44 24 5 84 -52 78 -31 -3 -32 -2
-49 60 -10 34 -20 66 -24 69 -16 16 -16 -12 -1 -74 11 -44 15 -88 12 -125 -6
-67 -9 -65 129 -75 75 -5 101 -2 145 13 30 10 60 22 67 27 8 7 12 3 12 -12 0
-13 6 -21 16 -21 13 0 15 -6 10 -27 -8 -32 -40 -63 -66 -63 -16 0 -18 6 -13
36 5 29 3 36 -8 32 -8 -3 -13 -14 -12 -26 3 -26 -9 -35 -87 -61 -53 -18 -97
-23 -238 -28 -199 -6 -212 -2 -212 68 0 37 -17 63 -24 37 -18 -67 -22 -73 -49
-73 -15 1 -27 -3 -27 -7 0 -4 14 -8 31 -8 18 0 48 -10 68 -22 34 -22 46 -23
189 -21 136 1 152 0 152 -15 0 -9 -4 -23 -9 -31 -6 -9 -5 -23 2 -38 10 -23 13
-23 146 -22 75 1 125 4 111 6 -14 2 -29 10 -35 17 -6 7 -45 15 -94 19 -92 7
-112 17 -95 45 20 32 137 73 189 65 40 -5 90 27 99 64 10 36 34 63 58 63 11 0
17 4 13 9 -3 5 -21 7 -40 4 -30 -5 -36 -2 -45 21 -5 14 -12 26 -14 26 -3 0
-26 -13 -50 -29 -30 -19 -54 -27 -71 -23 -31 5 -31 6 -1 45 48 65 40 110 -23
137 -17 7 -31 18 -31 25 0 16 29 41 58 50 12 3 20 10 17 15 -3 5 2 21 11 35
18 27 13 78 -11 125 -7 14 -14 43 -16 65 -4 37 -2 40 25 45 16 3 39 19 53 37
l25 32 -39 17 c-21 9 -54 17 -73 18 -48 1 -63 12 -50 36 30 56 -7 162 -66 186
-61 26 -112 -5 -63 -38 16 -10 23 -27 26 -63 7 -73 -6 -97 -63 -118 -81 -29
-109 -24 -156 28 -23 25 -49 45 -59 45 -25 0 -42 -36 -34 -68 7 -30 52 -82 71
-82 6 0 17 -6 23 -14 10 -12 8 -18 -11 -29 -13 -8 -35 -18 -51 -21 -15 -4 -36
-15 -47 -26 -19 -19 -22 -19 -43 -5 -52 34 -109 154 -121 255 -7 53 -58 207
-81 242 -6 9 -40 38 -75 64 -36 26 -82 63 -102 81 -21 18 -66 47 -100 64 -188
95 -329 200 -365 271 -31 61 -73 164 -73 176 0 19 -20 24 -26 7z m36 -67 c0
-7 12 -44 27 -83 31 -78 95 -148 193 -212 30 -20 67 -44 82 -54 15 -11 30 -19
33 -19 12 0 136 -72 132 -76 -12 -12 -407 184 -414 205 -2 9 -14 34 -26 56
-11 21 -24 60 -28 85 -4 25 -11 60 -15 78 -4 21 -3 32 5 32 6 0 11 -6 11 -12z
m-15 -242 c28 -18 64 -40 80 -49 91 -46 284 -137 291 -137 12 0 265 -129 294
-150 36 -26 88 -161 106 -275 15 -102 45 -168 105 -235 135 -152 166 -201 117
-185 -13 4 -44 6 -70 6 -58 -2 -70 14 -32 44 29 23 29 23 10 44 -11 12 -33 30
-50 41 -44 27 -145 239 -161 336 -3 21 -13 66 -20 99 -8 33 -16 71 -17 84 -2
19 -13 28 -48 41 -25 9 -56 21 -70 27 -38 16 -134 43 -154 43 -16 0 -100 39
-186 85 -14 7 -68 36 -120 65 -87 47 -146 96 -172 144 -9 17 -7 18 18 12 16
-4 52 -22 79 -40z m-77 -52 c-10 -10 -28 6 -28 24 0 15 1 15 17 -1 9 -9 14
-19 11 -23z m-75 0 c37 -31 147 -85 159 -78 13 8 107 -18 120 -33 8 -10 6 -13
-10 -13 -12 0 -24 5 -27 10 -3 6 -17 10 -31 10 -17 0 -24 -5 -24 -20 0 -26
-24 -26 -97 2 -73 27 -108 53 -128 94 -28 60 -13 71 38 28z m325 -149 c61 -3
73 -19 40 -52 l-26 -26 -48 34 c-54 39 -71 66 -33 53 13 -4 43 -8 67 -9z m167
-73 c22 -4 39 -11 38 -17 -1 -5 8 -20 19 -32 28 -30 9 -30 -51 1 -25 13 -58
30 -73 37 -16 7 -28 17 -28 22 0 5 12 6 28 3 15 -4 45 -10 67 -14z m190 -56
c49 -5 83 -17 89 -32 6 -17 -9 -17 -85 -1 -30 7 -66 20 -80 29 l-24 17 35 -5
c19 -3 49 -7 65 -8z m-200 -55 c22 -21 60 -43 85 -50 25 -7 54 -19 65 -27 19
-14 19 -14 -2 -35 -19 -19 -24 -20 -59 -9 -99 31 -161 80 -91 72 37 -5 34 15
-5 33 -18 9 -51 27 -73 41 l-40 25 40 -6 c26 -4 54 -20 80 -44z m152 5 c49 -1
61 -10 43 -31 -15 -19 -1 -39 43 -62 20 -10 26 -18 18 -22 -7 -5 -2 -12 16
-20 15 -7 25 -9 21 -5 -4 4 -3 13 3 20 8 10 1 18 -29 33 -65 33 -62 67 5 59
24 -3 29 -9 36 -43 13 -60 20 -135 13 -135 -14 0 -146 71 -146 78 0 4 4 12 10
18 18 18 -17 50 -80 73 -33 12 -60 26 -60 31 0 13 23 20 45 13 11 -3 39 -6 62
-7z m-387 -25 c0 -26 -17 -36 -35 -21 -23 19 -18 40 10 40 18 0 25 -5 25 -19z
m113 -17 c18 -10 46 -27 62 -40 17 -12 46 -29 65 -37 l35 -15 -37 -1 c-46 -1
-166 44 -190 71 -34 38 7 51 65 22z m1157 -114 c15 -37 10 -95 -10 -95 -10 0
-18 18 -26 60 -6 33 -12 65 -14 70 -10 40 30 12 50 -35z m-1139 25 c6 -4 43
-15 82 -24 101 -25 103 -46 4 -38 -57 4 -87 12 -121 32 -45 26 -52 35 -40 47
6 6 55 -5 75 -17z m349 -65 c37 -19 53 -40 30 -40 -18 0 -10 -23 17 -52 25
-27 26 -28 9 -47 -18 -20 -26 -21 -118 -5 -40 7 -84 46 -73 64 4 7 28 11 59
10 67 -3 76 -2 76 10 0 5 -19 14 -42 20 -91 23 -115 45 -55 53 17 2 38 5 45 5
7 1 31 -7 52 -18z m-125 -35 c24 -10 26 -14 10 -14 -11 -1 -33 -8 -49 -16 -36
-19 -57 -19 -102 0 -41 17 -37 40 5 32 15 -3 33 -2 41 4 21 13 60 10 95 -6z
m249 -64 c25 -79 20 -96 -19 -67 -17 12 -18 16 -5 31 13 15 11 20 -13 39 -33
27 -35 46 -3 46 20 0 26 -9 40 -49z m-268 -32 c17 -10 39 -19 48 -19 9 0 16
-4 16 -9 0 -5 -25 -13 -55 -16 -48 -6 -62 -4 -120 23 -36 17 -65 36 -65 43 0
18 138 1 176 -22z m-151 -26 c60 -29 34 -55 -29 -29 -45 19 -47 31 -9 45 1 1
18 -7 38 -16z m333 -72 c4 -22 1 -24 -34 -18 -20 4 -42 11 -48 17 -16 16 12
31 49 28 23 -2 31 -9 33 -27z m152 -24 c11 -20 20 -39 20 -42 0 -9 -52 6 -92
26 -66 33 -63 54 6 54 43 -1 48 -3 66 -38z m-206 -45 c-14 -21 -58 -23 -62 -2
-1 10 8 20 25 26 34 13 52 1 37 -24z m126 7 c22 -12 40 -28 40 -36 0 -12 -10
-14 -52 -8 -63 8 -88 26 -68 49 17 21 32 20 80 -5z m161 -50 c16 -11 29 -25
29 -30 0 -15 -64 -10 -89 8 -23 15 -23 17 -6 30 25 17 32 17 66 -8z m-301 1
c0 -5 -2 -10 -4 -10 -3 0 -8 5 -11 10 -3 6 -1 10 4 10 6 0 11 -4 11 -10z m140
-20 c0 -5 -7 -10 -16 -10 -8 0 -12 5 -9 10 3 6 10 10 16 10 5 0 9 -4 9 -10z
m110 -46 c0 -5 -61 5 -69 12 -1 1 0 7 4 13 6 11 65 -12 65 -25z m-36 -20 c22
-9 20 -24 -3 -24 -21 0 -34 13 -24 24 8 7 8 7 27 0z m96 -50 c0 -8 -4 -14 -10
-14 -12 0 -31 35 -23 44 9 8 33 -14 33 -30z m100 -4 c0 -5 -9 -10 -19 -10 -11
0 -23 5 -26 10 -4 6 5 10 19 10 14 0 26 -4 26 -10z m374 -35 c20 -9 34 -20 31
-25 -10 -17 -30 -11 -55 15 -27 29 -25 30 24 10z m26 -505 c13 -8 13 -10 -2
-10 -9 0 -20 5 -23 10 -8 13 5 13 25 0z"/>
<path d="M166 2081 c-3 -5 1 -11 9 -15 15 -6 29 7 18 18 -9 9 -21 8 -27 -3z"/>
<path d="M137 2004 c-4 -4 -7 -15 -7 -24 0 -20 -69 -60 -104 -60 -14 0 -26 -4
-26 -10 0 -19 66 -9 115 18 39 21 50 33 50 51 0 24 -15 37 -28 25z"/>
<path d="M4590 1938 c-41 -16 -100 -41 -130 -55 -30 -14 -77 -33 -105 -43 -27
-10 -111 -48 -185 -84 -128 -63 -233 -136 -315 -218 -16 -17 -40 -38 -53 -46
-22 -14 -25 -13 -50 11 -15 15 -31 46 -37 69 l-10 43 -50 0 c-59 0 -118 19
-161 52 -43 32 -69 29 -112 -14 -20 -21 -58 -56 -83 -78 -34 -29 -59 -67 -94
-137 -48 -96 -48 -98 -30 -118 33 -36 6 -44 -66 -20 -35 12 -71 26 -80 30 -19
11 -34 -4 -104 -103 -44 -64 -54 -72 -136 -110 -49 -23 -91 -49 -94 -59 -3 -9
-19 -33 -35 -53 -17 -21 -30 -44 -30 -51 0 -15 6 -15 125 -19 92 -3 271 -32
316 -52 42 -17 67 -12 121 24 36 24 43 25 110 18 94 -11 265 -12 300 -2 15 4
44 22 64 39 29 25 45 32 82 33 36 0 48 5 50 18 2 11 -1 15 -11 11 -8 -3 -17 1
-20 9 -3 9 -20 15 -46 15 -37 1 -42 -3 -57 -34 -21 -43 -45 -60 -104 -70 -68
-11 -100 -11 -160 -2 -72 10 -176 12 -221 3 -41 -8 -50 3 -42 47 l5 25 136 -2
c119 -2 141 0 173 17 42 22 113 94 104 107 -2 5 1 14 9 20 9 8 12 26 8 61 -3
36 0 57 13 76 24 37 29 23 14 -35 -10 -41 -10 -53 1 -66 20 -24 32 -13 35 30
1 22 6 57 10 78 7 34 5 40 -28 72 -52 50 -107 44 -107 -11 0 -33 16 -38 34
-12 17 24 21 12 10 -29 -6 -20 -33 -26 -59 -12 -23 12 -63 8 -69 -7 -3 -8 -10
-13 -16 -9 -5 3 -23 -1 -39 -10 -36 -18 -41 -19 -41 -3 0 7 12 22 27 33 38 31
22 49 -25 28 -113 -49 -106 -49 -116 -2 -4 21 -1 40 8 53 7 12 17 37 21 55 5
23 27 53 69 93 117 114 108 108 134 91 12 -9 22 -20 22 -26 0 -6 12 -28 26
-48 26 -38 26 -63 0 -53 -7 3 -26 -6 -42 -19 -28 -25 -29 -25 -10 -46 22 -24
42 -26 83 -10 15 6 39 16 53 21 48 19 55 25 58 47 2 13 -2 21 -12 21 -26 0
-29 21 -5 46 23 24 23 24 43 5 18 -19 18 -21 2 -46 -21 -31 -12 -49 20 -41 30
8 31 -6 3 -45 -13 -18 -18 -37 -14 -47 6 -15 9 -14 28 9 12 14 27 33 32 43 7
11 14 13 25 6 11 -7 12 -13 5 -23 -56 -78 -67 -99 -58 -108 7 -7 20 2 41 29
25 32 37 38 57 34 26 -5 33 6 14 25 -6 6 -8 21 -4 33 10 31 85 111 97 104 5
-3 14 -1 21 4 11 10 133 50 222 73 22 6 50 15 63 20 12 5 22 5 22 0 0 -14 -47
-41 -83 -47 -71 -13 -177 -52 -177 -65 0 -14 33 -11 101 11 35 10 65 17 67 15
8 -8 -64 -46 -118 -61 -80 -24 -100 -32 -100 -44 0 -7 19 -9 53 -5 l52 5 -50
-24 c-44 -22 -81 -32 -122 -35 -16 -1 -17 -31 -2 -31 5 0 7 -4 4 -10 -3 -5
-17 -10 -31 -10 -21 0 -24 -4 -19 -20 4 -13 2 -20 -6 -20 -19 0 -108 -63 -109
-77 0 -18 14 -16 43 7 31 25 57 26 57 3 1 -22 48 -92 73 -107 13 -8 24 -7 47
6 25 14 31 14 41 2 18 -21 48 -17 60 9 10 22 14 23 49 14 65 -18 91 23 49 77
-23 30 -24 29 53 26 70 -2 97 6 107 33 4 11 23 26 42 32 34 12 31 12 153 -35
28 -10 28 -11 10 -24 -10 -7 -35 -18 -55 -25 -20 -6 -45 -22 -57 -34 -27 -30
-52 -92 -52 -131 0 -47 -12 -54 -95 -48 -40 2 -86 1 -101 -2 -53 -14 -8 -26
104 -28 103 -3 115 -5 134 -25 l21 -23 -37 0 c-43 0 -91 -22 -100 -46 -4 -9 1
-28 10 -41 12 -19 21 -23 37 -18 23 6 159 21 287 31 131 10 132 11 149 137 8
53 6 77 -5 109 -8 22 -14 49 -14 59 0 10 -18 37 -40 61 l-41 42 59 60 c33 34
76 90 97 126 20 35 61 88 91 116 51 49 67 85 44 99 -6 4 0 26 15 56 14 27 23
54 20 59 -7 12 -62 -15 -123 -60 -51 -37 -76 -87 -68 -139 3 -20 0 -50 -7 -68
-13 -35 -85 -114 -165 -181 -54 -45 -79 -48 -127 -16 -11 8 -27 14 -37 14 -10
0 -33 14 -50 31 -26 25 -30 32 -18 39 8 6 25 10 36 10 12 0 34 10 50 22 50 39
55 54 22 67 l-23 8 24 8 c13 4 79 64 147 132 118 119 127 133 123 181 -1 15
-48 3 -141 -37 -52 -23 -101 -41 -109 -41 -24 0 55 71 122 111 69 40 86 61 66
77 -8 7 -37 0 -87 -20z m46 -16 c-3 -5 -46 -26 -96 -47 -50 -21 -99 -49 -110
-62 -10 -13 -38 -30 -61 -38 -24 -9 -75 -38 -114 -64 -48 -33 -104 -60 -179
-85 -60 -20 -111 -34 -113 -32 -19 19 392 237 577 306 19 7 39 17 45 22 12 11
58 11 51 0z m-161 -122 c-10 -11 -23 -20 -28 -20 -6 0 -2 9 8 20 10 11 23 20
28 20 6 0 2 -9 -8 -20z m179 -5 c-46 -34 -320 -165 -346 -165 -16 0 -7 38 10
45 9 3 70 27 134 51 64 25 139 56 165 69 51 24 70 25 37 0z m16 -33 c0 -11
-111 -118 -135 -130 -11 -5 -38 -13 -60 -16 l-40 -8 45 46 c24 26 74 62 110
81 68 36 80 40 80 27z m224 -39 c-4 -10 -8 -34 -9 -53 -3 -57 -3 -59 -45 -85
-55 -35 -56 -32 -10 17 44 44 48 71 12 76 -29 4 -28 16 4 41 33 26 59 28 48 4z
m-564 -8 c-7 -8 -17 -15 -22 -15 -6 0 -5 7 2 15 7 8 17 15 22 15 6 0 5 -7 -2
-15z m476 -92 c-10 -10 -19 5 -10 18 6 11 8 11 12 0 2 -7 1 -15 -2 -18z m-506
-31 c0 -9 -58 -32 -80 -32 -25 0 5 21 42 30 18 4 34 8 36 9 1 1 2 -3 2 -7z
m185 -25 c-11 -7 -38 -19 -60 -27 -46 -18 -53 -44 -12 -48 29 -4 34 -14 15
-29 -20 -16 -58 -22 -156 -28 -50 -3 -105 -10 -124 -15 -42 -13 -88 -13 -88
-1 0 15 12 20 107 47 85 25 173 64 203 89 19 16 44 22 95 24 36 0 38 -1 20
-12z m-260 -57 c-28 -12 -57 -12 -50 0 3 6 21 10 38 9 27 0 29 -2 12 -9z m513
-69 c-1 -5 -24 -33 -50 -63 -25 -29 -57 -66 -71 -83 -24 -28 -27 -29 -42 -14
-16 16 -14 19 27 47 23 17 63 51 88 76 44 46 55 54 48 37z m-414 -52 c25 -29
7 -44 -52 -43 -63 1 -265 26 -274 33 -4 3 39 7 95 8 56 1 122 6 147 11 65 14
64 14 84 -9z m-180 -63 c36 -3 70 -7 76 -11 23 -14 7 -25 -36 -25 -56 0 -151
29 -133 41 7 4 16 6 20 3 4 -2 37 -6 73 -8z m-210 -25 c29 -30 25 -44 -9 -31
-27 10 -48 36 -40 50 10 16 19 12 49 -19z m-844 -21 c30 -11 62 -19 71 -20 26
0 42 -25 25 -39 -7 -6 -13 -26 -12 -43 1 -27 7 -33 41 -45 35 -13 44 -12 71 2
18 9 39 15 48 13 14 -2 11 -9 -13 -35 -35 -38 -64 -41 -176 -19 -160 32 -225
52 -225 73 0 30 77 133 99 133 9 -1 41 -9 71 -20z m345 -21 c-10 -15 -25 -10
-19 6 4 8 10 12 15 9 5 -3 7 -10 4 -15z m64 9 c0 -7 -4 -22 -9 -33 -7 -17 -9
-15 -9 13 -1 17 4 32 9 32 6 0 10 -6 9 -12z m356 2 c3 -5 1 -10 -4 -10 -6 0
-11 5 -11 10 0 6 2 10 4 10 3 0 8 -4 11 -10z m-575 -10 c0 -5 -5 -10 -11 -10
-5 0 -7 5 -4 10 3 6 8 10 11 10 2 0 4 -4 4 -10z m801 -24 c24 -30 19 -59 -8
-49 -20 6 -83 63 -83 73 0 4 16 6 35 5 24 -2 41 -10 56 -29z m473 -20 c-5 -13
-9 -14 -20 -5 -11 9 -12 15 -3 26 15 17 32 2 23 -21z m95 0 c31 -32 33 -38 38
-127 5 -97 -4 -160 -25 -167 -7 -2 -12 3 -12 12 0 18 -25 22 -35 6 -13 -21
-100 -11 -146 18 -25 15 -54 32 -65 38 -33 19 -58 75 -50 117 13 71 87 126
125 94 22 -18 90 -57 101 -57 11 0 40 29 40 40 0 5 -8 10 -19 12 -15 2 -17 8
-10 26 11 30 19 28 58 -12z m-1289 -1 c25 -27 23 -29 -42 -38 -21 -3 -40 -1
-44 4 -3 6 -12 8 -20 5 -8 -3 -14 1 -14 8 0 8 -6 17 -12 19 -7 3 3 6 22 7 19
1 44 5 55 10 29 12 29 12 55 -15z m539 -17 c18 -52 -19 -66 -39 -14 -7 20 4
46 20 46 5 0 13 -14 19 -32z m81 13 c13 -25 13 -51 0 -51 -14 0 -43 48 -35 60
10 16 23 12 35 -9z m-560 -68 c-1 -14 -77 -93 -84 -86 -12 12 -6 28 25 61 27
29 60 43 59 25z m-499 -13 c10 -6 38 -14 61 -19 24 -5 70 -16 103 -24 33 -9
86 -18 118 -22 31 -4 57 -10 57 -13 0 -4 -31 -7 -69 -7 -50 0 -74 -5 -87 -17
-16 -14 -31 -15 -99 -8 -44 4 -96 11 -115 14 -19 3 -60 8 -89 11 -30 3 -57 8
-60 11 -9 9 38 43 68 51 14 3 35 12 46 19 23 17 40 17 66 4z m532 -27 c-8 -24
-53 -67 -60 -59 -5 5 54 76 64 76 1 0 0 -8 -4 -17z m-553 -93 c109 -16 147
-25 155 -37 6 -9 21 -27 34 -40 24 -23 23 -45 -1 -26 -21 17 -183 45 -301 52
-65 3 -112 10 -114 17 -2 6 6 23 17 37 15 19 28 26 43 22 12 -3 87 -14 167
-25z m1561 -85 c49 -26 24 -36 -82 -34 -81 2 -97 5 -88 16 7 7 32 13 60 13 26
0 51 5 54 10 9 14 21 13 56 -5z"/>
<path d="M4350 1500 c0 -5 5 -10 10 -10 6 0 10 5 10 10 0 6 -4 10 -10 10 -5 0
-10 -4 -10 -10z"/>
<path d="M237 1821 c-6 -25 28 -70 43 -55 8 8 7 14 -5 24 -8 7 -15 21 -15 31
0 24 -16 25 -23 0z"/>
<path d="M1426 1561 c-10 -11 -13 -21 -7 -25 5 -4 13 -1 17 5 4 8 9 7 15 -2
11 -19 34 4 26 25 -8 22 -30 20 -51 -3z"/>
<path d="M3882 1489 c2 -6 8 -10 13 -10 5 0 11 4 13 10 2 6 -4 11 -13 11 -9 0
-15 -5 -13 -11z"/>
<path d="M3284 1465 c-4 -9 -2 -21 4 -27 16 -16 47 -5 47 17 0 26 -42 34 -51
10z"/>
<path d="M3852 1461 c2 -7 7 -12 11 -12 12 1 9 15 -3 20 -7 2 -11 -2 -8 -8z"/>
<path d="M1427 1453 c-11 -10 24 -43 45 -43 13 0 18 7 18 25 0 21 -5 25 -28
25 -16 0 -32 -3 -35 -7z"/>
<path d="M3890 1429 c0 -5 5 -7 10 -4 6 3 10 8 10 11 0 2 -4 4 -10 4 -5 0 -10
-5 -10 -11z"/>
<path d="M4826 1421 c-26 -5 -31 -12 -40 -56 -9 -40 -16 -50 -36 -55 -17 -4
-27 -16 -34 -38 -8 -29 -6 -36 17 -60 16 -17 27 -39 27 -56 0 -22 3 -26 13
-18 7 7 18 7 27 2 11 -7 11 -11 1 -24 -10 -12 -17 -14 -27 -5 -11 9 -15 7 -21
-6 -4 -12 1 -24 15 -36 28 -22 28 -33 -3 -53 -30 -20 -24 -36 12 -36 l26 0 -6
-84 c-5 -70 -3 -85 9 -90 29 -11 35 5 33 96 -2 103 5 116 51 99 25 -8 38 -7
61 4 57 30 23 84 -56 90 -26 1 -52 8 -58 14 -20 20 13 32 72 25 42 -4 52 -3
49 8 -3 8 -25 14 -59 16 -56 4 -79 15 -79 38 0 11 16 14 65 14 82 0 85 16 5
25 -41 5 -60 11 -60 21 0 11 16 14 65 14 37 0 65 4 65 10 0 6 -19 10 -42 10
-57 0 -88 9 -88 26 0 14 15 18 57 14 52 -4 96 58 56 78 -26 13 -83 19 -117 13z
m92 -26 c3 -2 2 -11 -1 -20 -5 -11 -17 -14 -49 -11 -35 3 -44 8 -46 26 -3 21
-1 22 44 15 27 -3 50 -8 52 -10z m-118 -145 c0 -5 -9 -14 -20 -20 -16 -9 -22
-8 -26 5 -3 8 -3 22 0 30 4 13 10 14 26 5 11 -6 20 -15 20 -20z m134 -190 c19
-19 -3 -40 -42 -40 -51 0 -76 25 -47 46 20 15 71 11 89 -6z"/>
<path d="M3247 1353 c-12 -12 -7 -22 8 -17 8 4 15 10 15 15 0 11 -14 12 -23 2z"/>
<path d="M1564 1329 c-10 -17 13 -36 27 -22 12 12 4 33 -11 33 -5 0 -12 -5
-16 -11z"/>
<path d="M3760 1330 c0 -5 7 -10 15 -10 8 0 15 5 15 10 0 6 -7 10 -15 10 -8 0
-15 -4 -15 -10z"/>
<path d="M1996 1240 c-3 -17 -9 -67 -12 -113 -7 -89 -17 -117 -39 -117 -8 0
-15 -4 -15 -10 0 -5 7 -10 16 -10 9 0 14 -6 11 -13 -3 -7 -19 -57 -37 -110
l-31 -96 -80 -7 c-72 -6 -93 -14 -71 -28 4 -3 24 -2 43 2 39 9 79 5 79 -8 0
-5 -12 -11 -27 -13 -17 -2 -9 -5 20 -6 94 -2 114 23 138 172 6 33 14 67 18 76
5 9 11 30 14 47 3 18 27 62 53 98 44 64 45 68 25 73 -17 4 -21 12 -19 36 2 17
-2 32 -9 34 -8 3 -13 -4 -13 -17 0 -21 -26 -80 -36 -80 -7 0 7 73 17 86 9 12
-8 34 -27 34 -6 0 -14 -14 -18 -30z m94 -75 c0 -10 -53 -85 -57 -81 -9 8 30
86 43 86 8 0 14 -2 14 -5z m-154 -372 c-18 -34 -20 -13 -4 42 11 37 12 38 16
13 2 -15 -4 -40 -12 -55z"/>
<path d="M410 1136 c0 -3 32 -27 70 -56 83 -59 101 -89 80 -127 -14 -25 -93
-58 -111 -47 -10 6 -79 -76 -79 -93 0 -11 10 -13 48 -7 26 4 57 11 70 15 33
13 40 11 52 -11 9 -16 6 -22 -17 -34 -26 -14 -26 -15 -6 -16 25 0 28 -4 37
-46 l7 -31 -270 -1 c-148 0 -274 -3 -280 -7 -6 -3 -11 -12 -11 -20 0 -19 59
-29 120 -21 42 6 765 7 1705 2 160 0 828 3 1485 7 657 5 1306 9 1442 10 191 2
248 5 248 15 0 9 -42 12 -177 12 -406 1 -1090 -1 -1748 -6 -875 -6 -1669 -8
-2018 -6 l-268 2 -9 26 c-6 14 -10 40 -10 58 0 25 -9 39 -44 69 -25 20 -52 37
-61 37 -19 0 -77 58 -70 69 2 5 30 -5 62 -20 63 -30 133 -46 133 -30 0 5 -17
12 -38 16 -57 9 -146 57 -150 80 -8 52 -28 78 -91 120 -57 38 -101 56 -101 41z
m178 -261 c11 -14 23 -45 27 -68 11 -70 28 -87 85 -87 39 0 52 -4 60 -20 12
-22 2 -25 -75 -20 -68 4 -94 30 -102 99 -8 69 -43 96 -112 86 l-36 -5 40 20
c55 27 89 25 113 -5z m119 -71 c43 -33 43 -54 0 -54 -40 0 -57 15 -57 52 0 35
14 35 57 2z"/>
<path d="M61 1056 c-15 -60 -14 -100 3 -140 19 -45 52 -66 102 -66 46 0 68
-17 54 -40 -13 -20 -13 -57 0 -65 16 -10 194 -7 221 4 18 8 -2 10 -78 8 -82
-2 -105 1 -118 14 -15 15 -14 20 10 60 15 24 49 61 76 82 56 44 57 64 2 36
-21 -10 -43 -19 -50 -19 -7 0 -13 -4 -13 -10 0 -5 8 -10 17 -10 13 0 12 -5 -8
-26 -20 -21 -30 -25 -59 -20 -19 4 -46 6 -60 6 -14 0 -38 11 -55 24 -30 24
-30 25 -27 115 1 50 0 91 -2 91 -2 0 -9 -20 -15 -44z"/>
<path d="M90 1028 c1 -50 74 -118 127 -118 35 0 28 12 -27 43 -28 16 -57 41
-65 58 -16 30 -35 39 -35 17z"/>
<path d="M4026 1033 c-11 -11 -6 -23 9 -23 8 0 15 4 15 9 0 13 -16 22 -24 14z"/>
<path d="M3950 1020 c0 -5 5 -10 10 -10 6 0 10 5 10 10 0 6 -4 10 -10 10 -5 0
-10 -4 -10 -10z"/>
<path d="M3820 1005 c0 -8 5 -15 10 -15 6 0 10 7 10 15 0 8 -4 15 -10 15 -5 0
-10 -7 -10 -15z"/>
<path d="M3885 1011 c-6 -11 9 -23 19 -14 9 9 7 23 -3 23 -6 0 -12 -4 -16 -9z"/>
<path d="M2527 894 c-8 -8 1 -24 14 -24 5 0 9 7 9 15 0 15 -12 20 -23 9z"/>
<path d="M823 873 c9 -2 25 -2 35 0 9 3 1 5 -18 5 -19 0 -27 -2 -17 -5z"/>
<path d="M900 871 c0 -7 24 -11 62 -11 74 0 73 5 -4 14 -39 5 -58 4 -58 -3z"/>
<path d="M800 541 l-35 -6 0 -70 0 -70 -49 -3 c-60 -4 -67 5 -64 78 l3 55 -98
-2 c-98 -1 -131 -9 -89 -20 12 -3 22 -10 22 -17 0 -15 -60 -169 -69 -179 -10
-10 -81 123 -81 150 0 10 5 24 11 30 7 7 9 19 6 27 -5 12 -22 16 -72 16 -67 0
-81 -8 -43 -25 37 -17 45 -41 26 -77 -9 -18 -24 -50 -32 -71 -9 -21 -20 -36
-25 -33 -13 9 -52 114 -57 156 -3 19 -12 41 -21 48 -22 16 -78 15 -92 -1 -13
-16 -5 -27 19 -27 9 0 24 -15 32 -32 17 -35 73 -171 93 -227 22 -60 55 -61 60
-2 4 38 54 143 67 139 6 -2 29 -38 52 -80 47 -87 66 -112 76 -101 4 4 20 51
35 103 33 112 73 202 89 197 7 -2 12 -50 14 -137 2 -112 0 -136 -14 -151 -19
-21 -16 -23 43 -33 40 -7 55 10 45 50 -4 16 -5 52 -2 79 l5 50 53 5 c29 3 55
4 58 1 2 -2 4 -44 4 -93 0 -87 1 -89 27 -99 41 -15 56 -5 47 33 -8 37 -8 211
1 287 3 27 2 51 -2 53 -5 2 -24 2 -43 -1z"/>
<path d="M912 532 c-4 -1 -7 -84 -7 -185 l0 -182 35 1 c140 5 163 9 177 31 16
24 12 53 -7 53 -6 0 -16 -11 -22 -25 -10 -22 -18 -25 -59 -25 -47 0 -71 17
-63 45 1 6 5 27 9 48 6 40 19 46 46 21 26 -24 41 -9 33 34 -9 49 -19 59 -42
39 -30 -27 -41 -21 -38 21 2 20 4 47 5 59 0 12 10 24 21 27 11 3 29 9 40 12
15 4 22 -1 30 -21 8 -22 13 -25 24 -16 15 13 11 47 -7 58 -10 6 -159 11 -175
5z"/>
<path d="M2474 507 c4 -18 1 -95 -5 -171 -11 -132 -11 -140 7 -153 13 -10 32
-12 64 -8 56 8 69 19 41 37 -17 10 -21 23 -21 65 0 40 4 53 14 53 8 0 18 -4
21 -10 21 -34 55 24 40 70 -8 26 -35 26 -42 0 -10 -40 -28 -14 -28 41 l0 54
60 0 c59 0 59 0 66 -33 8 -40 14 -46 34 -39 19 8 22 105 3 112 -7 2 -69 6
-137 9 l-123 5 6 -32z"/>
<path d="M1175 523 c-19 -4 -20 -12 -20 -181 0 -97 4 -180 9 -183 5 -4 23 -3
40 2 17 5 50 9 73 9 23 0 48 3 57 6 19 7 21 53 3 78 -13 17 -14 17 -30 1 -9
-9 -17 -22 -17 -30 0 -14 -21 -25 -51 -25 -15 0 -19 7 -19 33 0 17 -3 49 -6
70 -5 30 -4 37 9 37 9 0 21 -9 27 -20 6 -11 15 -20 20 -20 14 0 22 38 15 70
-7 33 -22 38 -40 13 -19 -25 -35 -6 -35 41 0 54 17 71 65 62 29 -6 35 -11 35
-32 0 -19 5 -25 18 -22 12 2 18 14 20 40 4 42 -11 50 -78 46 -19 -2 -44 0 -55
3 -11 3 -29 4 -40 2z"/>
<path d="M2885 523 c-65 -16 -128 -148 -105 -218 14 -41 101 -125 132 -126 88
-4 149 26 189 95 86 146 -41 292 -216 249z m134 -42 c26 -26 35 -78 28 -155
-7 -79 -14 -95 -43 -102 -31 -8 -85 2 -109 20 -16 12 -19 28 -19 116 -1 95 1
103 23 121 31 25 95 25 120 0z"/>
<path d="M4443 520 c-31 -13 -29 -28 5 -32 l27 -3 3 -92 c2 -54 -1 -93 -7 -93
-5 0 -36 45 -68 99 -32 55 -68 104 -81 110 -30 14 -109 14 -118 -1 -4 -6 0
-16 9 -23 14 -10 17 -33 17 -138 0 -117 -1 -127 -21 -137 -16 -9 -18 -14 -9
-25 8 -10 30 -13 73 -11 59 3 86 19 53 32 -13 5 -16 23 -16 97 l0 92 39 -60
c49 -73 145 -170 160 -160 6 3 11 16 10 28 -1 12 -1 79 -1 148 2 118 3 127 22
132 30 8 24 25 -12 32 -18 4 -40 8 -48 10 -8 2 -25 0 -37 -5z"/>
<path d="M4647 513 c-16 -8 -27 -23 -28 -36 -1 -12 -3 -35 -4 -52 -6 -58 -12
-230 -8 -241 2 -8 35 -10 101 -7 110 6 122 13 122 76 0 31 -3 38 -17 35 -9 -2
-21 -18 -25 -36 -8 -31 -11 -32 -58 -32 l-50 0 0 55 c0 41 4 55 15 55 7 0 18
-7 23 -17 14 -25 46 -9 38 20 -3 12 -6 34 -6 50 0 32 -25 37 -35 7 -7 -21 -20
-26 -30 -10 -3 5 -3 32 1 60 7 50 7 50 43 50 32 0 38 -4 48 -31 11 -27 15 -30
28 -19 16 13 20 47 7 66 -12 18 -134 24 -165 7z"/>
<path d="M1394 348 l2 -173 80 3 c120 4 132 8 149 50 23 54 3 64 -39 19 -29
-31 -42 -37 -75 -37 -22 0 -43 5 -46 11 -8 13 -7 243 2 264 3 8 11 15 19 15 8
0 14 5 14 10 0 6 -24 10 -54 10 l-54 0 2 -172z"/>
<path d="M3174 509 c-4 -7 1 -16 11 -21 15 -9 16 -24 10 -160 -8 -165 -7 -171
50 -161 58 9 60 12 36 36 -23 25 -29 95 -10 114 17 17 46 3 52 -25 13 -59 197
-170 197 -119 0 9 -17 25 -38 36 -33 17 -112 98 -112 115 0 3 13 12 30 21 34
18 54 73 40 111 -18 46 -65 64 -167 64 -58 0 -94 -4 -99 -11z m158 -28 c21 -8
23 -14 20 -65 l-4 -57 -36 3 -37 3 -3 54 c-4 67 10 81 60 62z"/>
<path d="M3492 508 c-17 -17 -15 -67 2 -74 8 -3 24 4 35 15 20 20 60 29 61 14
1 -5 1 -63 2 -131 0 -100 -3 -126 -16 -141 -22 -24 -11 -31 44 -31 50 0 76 15
59 36 -5 7 -11 64 -12 128 -2 98 1 118 16 133 14 15 20 15 35 5 33 -24 45 -25
58 -8 8 11 10 26 5 39 -8 21 -15 22 -142 25 -96 2 -138 -1 -147 -10z"/>
<path d="M4015 510 c-9 -14 3 -30 22 -30 14 0 15 -12 9 -97 -9 -130 -37 -174
-90 -140 -41 27 -54 117 -34 242 3 18 -3 20 -52 20 -44 0 -55 -3 -58 -17 -2
-11 3 -18 11 -18 13 0 16 -21 19 -114 3 -127 13 -147 84 -181 32 -15 37 -15
78 4 41 18 48 18 86 5 47 -16 70 -7 70 28 0 16 -5 19 -25 14 -38 -10 -46 18
-39 131 5 66 12 104 22 116 9 10 12 21 6 26 -15 14 -101 23 -109 11z"/>
<path d="M2091 441 c-37 -37 -28 -68 45 -158 33 -40 44 -63 44 -88 0 -47 -9
-65 -37 -76 -21 -8 -23 -12 -13 -24 18 -22 33 -18 68 18 34 35 38 55 26 124
-5 35 -4 43 9 43 35 0 32 51 -4 70 -16 9 -21 7 -29 -15 -12 -33 -20 -32 -59 9
-36 38 -36 70 0 79 12 3 19 12 17 19 -7 21 -45 21 -67 -1z"/>
<path d="M1962 292 c-33 -28 -36 -57 -10 -86 32 -37 89 -45 117 -17 28 28 27
45 -6 80 -36 37 -74 47 -101 23z m75 -48 c8 -22 -11 -37 -36 -29 -31 10 -28
45 4 45 14 0 28 -7 32 -16z"/>
<path d="M4901 226 c-26 -31 14 -71 45 -45 21 17 14 53 -12 57 -11 2 -26 -4
-33 -12z"/>
</g>
</svg>
