<?xml version="1.0" standalone="no"?>
<!DOCTYPE svg PUBLIC "-//W3C//DTD SVG 20010904//EN"
 "http://www.w3.org/TR/2001/REC-SVG-20010904/DTD/svg10.dtd">
<svg version="1.0" xmlns="http://www.w3.org/2000/svg"
 width="500.000000pt" height="878.000000pt" viewBox="0 0 500.000000 878.000000"
 preserveAspectRatio="xMidYMid meet">
<metadata>
Created by potrace 1.15, written by Peter Selinger 2001-2017
</metadata>
<g transform="translate(0.000000,878.000000) scale(0.100000,-0.100000)"
fill="#000000" stroke="none">
<path d="M67 8393 c-3 -214 -6 -1605 -6 -3093 0 -1689 -3 -2734 -9 -2783 -6
-43 -7 -87 -4 -99 3 -14 -2 -26 -16 -37 -18 -14 -21 -30 -25 -154 -3 -75 -2
-139 3 -142 4 -2 18 7 30 20 14 14 34 25 49 25 24 -1 25 -1 6 -12 -11 -6 -37
-27 -58 -46 -28 -28 -37 -44 -37 -69 0 -34 -1 -34 65 -37 16 -1 19 -7 17 -31
-1 -16 2 -37 8 -45 14 -22 44 -1 50 35 6 32 27 44 36 21 11 -29 -4 -61 -36
-73 -30 -11 -30 -12 -30 -83 0 -61 -2 -71 -16 -68 -10 2 -18 15 -20 33 -12
128 -23 165 -50 165 -12 0 -14 -15 -10 -95 3 -56 2 -97 -4 -100 -6 -3 -10 -19
-10 -36 l0 -29 354 0 c195 1 366 -2 380 -6 20 -5 26 -12 26 -35 0 -37 67 -89
115 -89 18 0 47 -3 65 -6 29 -6 31 -10 26 -35 -11 -58 53 -192 102 -210 34
-14 109 -4 175 22 44 18 65 20 132 15 75 -6 82 -5 120 20 22 15 43 33 48 40 4
7 37 22 75 34 37 13 71 26 77 31 16 15 82 10 122 -10 21 -11 50 -22 65 -25 18
-4 37 -20 52 -44 13 -20 31 -43 40 -51 12 -10 14 -23 10 -52 -6 -37 -5 -40 29
-54 75 -31 245 23 350 111 24 20 37 24 61 19 49 -10 136 -6 205 12 36 8 108
17 160 18 53 2 160 7 239 13 79 5 161 8 182 5 21 -3 51 -1 67 4 18 6 77 7 163
1 117 -8 140 -7 179 8 33 13 70 16 145 15 172 -5 199 -3 238 15 36 16 45 16
131 2 70 -11 109 -13 160 -5 80 11 89 23 75 87 -12 55 -18 169 -9 175 4 2 126
5 271 6 306 3 370 7 370 24 0 10 -83 13 -360 14 -300 1 -366 3 -390 16 -16 8
-45 15 -65 15 -36 0 -176 44 -233 74 -66 34 -88 80 -57 120 17 22 35 13 35
-19 0 -60 27 -74 33 -17 l4 37 1 -36 c2 -38 26 -69 42 -53 5 5 10 27 12 49 2
27 8 40 18 40 11 0 16 -15 20 -56 5 -56 24 -93 44 -86 7 2 10 32 7 83 -2 58 0
76 9 68 6 -6 12 -42 14 -80 2 -38 4 -72 5 -76 1 -5 8 -8 16 -8 24 0 36 37 33
97 -2 39 1 57 10 60 10 4 13 -9 11 -54 -2 -63 4 -83 26 -83 19 0 25 23 25 91
l0 60 97 -3 98 -3 5 -30 c7 -41 44 -43 48 -2 5 39 22 33 22 -8 0 -24 5 -35 15
-35 17 0 35 30 35 59 0 12 6 21 13 21 10 0 12 -16 9 -65 -5 -71 9 -105 34 -84
22 18 19 125 -4 138 -14 8 -10 10 20 11 34 0 37 -3 42 -32 3 -18 4 -61 3 -95
-1 -39 3 -67 11 -75 22 -22 33 6 36 103 2 74 6 95 18 97 18 3 30 -76 22 -142
-6 -47 6 -72 30 -63 16 6 20 45 16 160 -1 44 0 47 23 47 24 0 26 -4 31 -62 3
-35 7 -81 9 -103 2 -33 6 -40 22 -40 19 0 20 7 20 105 l0 105 33 3 c20 2 32 9
32 18 0 11 -12 13 -62 10 -89 -7 -989 -9 -995 -2 -3 3 7 11 23 18 16 7 55 29
87 50 60 39 75 38 32 -2 -31 -29 -32 -40 -1 -40 23 0 65 39 92 85 6 12 13 15
17 8 4 -6 -3 -22 -14 -37 -17 -22 -18 -27 -5 -32 20 -8 34 2 57 40 17 28 19
29 19 9 0 -13 4 -23 9 -23 23 0 41 14 41 30 0 11 4 21 8 24 4 3 102 8 218 12
l209 7 19 -42 c10 -23 15 -45 12 -48 -8 -9 14 -33 30 -33 14 0 14 57 -1 92 -6
15 -2 18 27 18 28 0 41 -7 65 -37 17 -21 49 -48 72 -61 39 -22 41 -22 41 -3 0
11 -14 27 -35 40 -40 23 -53 47 -36 64 7 7 11 54 11 129 l0 118 -34 14 -33 14
-3 198 c-1 110 -3 308 -3 442 l0 243 51 52 c70 71 70 127 1 127 -15 0 -30 3
-33 8 -5 8 -15 2468 -16 4057 -1 611 -4 1138 -7 1173 -4 44 -10 62 -20 62 -8
0 -13 -8 -12 -17 3 -39 0 -46 -16 -33 -8 7 -15 19 -15 26 0 8 -5 14 -11 14 -5
0 -9 -8 -8 -17 5 -57 -2 -313 -10 -309 -4 3 -12 69 -16 146 -4 87 -11 140 -17
140 -8 0 -8 -53 -3 -172 4 -95 8 -182 7 -193 0 -11 4 -121 10 -245 12 -281 10
-460 -3 -477 -8 -9 -9 -144 -4 -440 4 -236 9 -516 10 -623 3 -164 6 -195 18
-198 29 -6 33 205 10 543 -7 117 -7 552 1 905 2 96 0 231 -4 300 -6 103 -4
128 8 142 11 13 15 57 17 200 4 215 19 290 27 133 9 -169 8 -3708 -1 -3745 -6
-29 -9 -19 -15 62 -13 163 -26 124 -26 -79 0 -103 -3 -259 -7 -347 -5 -134 -4
-158 8 -154 10 3 17 40 25 144 6 76 12 137 13 134 2 -3 5 -83 8 -177 4 -149 3
-173 -10 -173 -11 0 -16 -23 -22 -110 -3 -60 -4 -114 0 -120 3 -5 1 -10 -4
-10 -6 0 -11 11 -11 25 0 52 -32 155 -48 155 -10 0 -6 8 13 26 20 18 25 28 17
36 -8 8 -16 7 -27 -2 -14 -12 -18 -11 -26 1 -14 22 -6 44 19 44 34 1 31 20 -4
23 -21 2 -40 -4 -60 -21 -35 -29 -90 -39 -162 -30 -47 5 -56 10 -78 42 -20 29
-24 48 -24 104 0 39 6 80 14 95 14 28 11 78 -5 88 -19 11 -9 54 18 71 25 17
27 17 37 -1 26 -43 49 -66 66 -66 31 0 39 27 24 78 -8 25 -14 67 -14 94 0 37
-4 51 -20 60 -11 7 -20 18 -20 25 0 7 -4 13 -9 13 -5 0 -13 10 -18 23 -18 50
-121 205 -165 250 -30 30 -48 57 -48 72 0 13 -21 50 -50 86 l-50 62 -1 361 c0
199 -3 444 -6 546 -8 263 -7 2198 1 2358 l7 133 -23 -3 c-22 -3 -23 -7 -23
-88 0 -81 -2 -87 -37 -140 -20 -30 -60 -75 -89 -100 -76 -65 -313 -228 -414
-285 -27 -15 -64 -40 -80 -54 -47 -41 -292 -156 -380 -180 -244 -64 -654 -105
-905 -91 -80 5 -163 12 -185 15 -125 22 -426 120 -550 179 -141 68 -305 142
-358 161 -26 9 -60 27 -75 39 -15 12 -54 39 -87 59 -66 40 -140 105 -167 146
-15 22 -18 50 -18 184 0 119 -3 157 -13 157 -9 0 -13 -170 -15 -817 -3 -827
-6 -1040 -16 -1051 -3 -3 -6 60 -6 139 0 79 -5 482 -11 894 -10 713 -12 751
-30 777 -10 15 -19 33 -18 40 0 7 5 3 11 -10 13 -27 32 -24 36 6 3 19 -1 22
-32 22 -20 0 -46 -6 -57 -12 -17 -10 -23 -10 -26 0 -7 19 -33 14 -33 -6 0 -11
-9 -27 -19 -36 -17 -16 -19 -31 -18 -154 1 -85 6 -136 12 -135 13 3 25 143 18
204 -5 41 -2 48 22 67 34 27 57 28 78 4 14 -16 17 -87 22 -637 5 -569 8 -754
20 -1165 2 -80 7 -287 10 -460 3 -173 8 -339 11 -367 3 -29 3 -57 0 -61 -3 -5
-22 -6 -43 -3 l-38 6 -2 360 c-3 371 -3 1912 0 2160 1 145 -5 187 -25 167 -12
-12 -19 -2419 -7 -2465 6 -21 4 -30 -7 -34 -10 -4 -12 -9 -4 -18 7 -9 6 -16
-5 -25 -19 -16 -19 -50 0 -50 8 0 15 -4 15 -10 0 -5 -6 -10 -14 -10 -8 0 -17
-7 -20 -16 -8 -22 -8 -22 11 -26 13 -2 11 -6 -9 -15 l-26 -12 -7 217 c-4 119
-5 363 -1 542 4 179 7 521 7 760 0 239 5 489 10 555 11 138 3 288 -14 282 -7
-2 -13 -21 -14 -43 -5 -133 -14 -883 -19 -1574 -3 -443 -7 -810 -9 -816 -2 -6
-29 -14 -61 -16 -44 -4 -65 -1 -88 13 -53 30 -109 28 -150 -4 -26 -21 -29 -31
-32 -84 -2 -55 0 -64 25 -87 35 -34 88 -43 127 -23 16 8 67 18 114 22 l85 6
-32 -20 c-37 -23 -42 -37 -41 -118 0 -44 5 -70 18 -85 23 -31 34 -65 34 -113
1 -32 6 -42 23 -50 16 -7 28 -26 38 -61 20 -69 19 -91 -5 -121 -41 -52 -19
-102 55 -127 49 -17 55 -17 85 -2 58 29 60 27 61 -91 3 -237 -1 -1292 -6
-1513 -7 -327 -9 -342 -15 -120 -4 162 -7 195 -20 195 -15 0 -16 -66 -8 -535
2 -102 1 -201 -3 -220 -3 -19 -7 -29 -8 -22 -2 24 -19 12 -25 -19 -7 -39 3
-58 19 -36 10 14 13 7 19 -44 3 -34 6 -93 6 -130 0 -59 3 -70 21 -79 16 -9 19
-19 17 -48 l-3 -37 -260 0 -260 0 0 687 c0 450 -3 689 -10 690 -19 5 -23 -134
-21 -738 1 -335 -1 -617 -6 -626 -13 -27 -84 -25 -98 2 -10 19 -7 416 6 760 5
147 5 1554 -1 1805 -2 105 -7 334 -10 510 -3 176 -8 419 -11 540 -7 310 -7
1101 0 1550 18 1109 18 1215 3 1215 -12 0 -15 -63 -20 -387z m4710 5 c-3 -8
-6 -5 -6 6 -1 11 2 17 5 13 3 -3 4 -12 1 -19z m-3912 -58 c3 -5 1 -10 -4 -10
-6 0 -11 5 -11 10 0 6 2 10 4 10 3 0 8 -4 11 -10z m-1 -245 c3 -8 12 -15 20
-15 8 0 18 -5 22 -11 4 -8 -4 -9 -27 -4 -45 10 -49 13 -42 30 7 19 19 19 27 0z
m21 -55 c-3 -5 -11 -10 -16 -10 -6 0 -7 5 -4 10 3 6 11 10 16 10 6 0 7 -4 4
-10z m155 -64 c0 -32 -64 -46 -66 -15 -1 23 4 26 36 27 18 0 30 -4 30 -12z
m2337 -138 c-3 -8 -6 -5 -6 6 -1 11 2 17 5 13 3 -3 4 -12 1 -19z m-445 -20
c-7 -7 -12 -8 -12 -2 0 14 12 26 19 19 2 -3 -1 -11 -7 -17z m-102 2 c0 -5 -5
-10 -11 -10 -5 0 -7 5 -4 10 3 6 8 10 11 10 2 0 4 -4 4 -10z m-1522 -40 c7 0
12 5 12 10 0 6 7 10 15 10 21 0 19 -26 -2 -34 -10 -3 -24 -9 -30 -12 -8 -3
-13 1 -13 10 0 9 -7 16 -15 16 -8 0 -15 7 -15 17 0 15 1 15 18 0 10 -10 24
-17 30 -17z m2799 -52 c-2 -18 -4 -6 -4 27 0 33 2 48 4 33 2 -15 2 -42 0 -60z
m-570 -4 c-43 -42 -81 -73 -85 -69 -4 4 3 14 16 22 23 16 29 39 11 45 -12 4
53 38 82 42 3 1 13 9 23 19 10 9 20 17 24 17 4 0 -28 -35 -71 -76z m-2152 25
c4 -6 5 -12 2 -15 -7 -7 -37 7 -37 17 0 13 27 11 35 -2z m-111 -8 c3 -5 -1
-11 -9 -15 -9 -3 -15 0 -15 9 0 16 16 20 24 6z m156 -31 c0 -5 -7 -10 -16 -10
-8 0 -12 5 -9 10 3 6 10 10 16 10 5 0 9 -4 9 -10z m1911 -52 c-35 -38 -40 -53
-11 -38 28 15 24 1 -11 -40 -25 -28 -30 -30 -24 -12 6 21 -10 33 -17 12 -2 -6
-17 -13 -33 -15 -17 -2 -32 -4 -34 -4 -2 -1 2 -8 9 -17 11 -12 10 -18 -3 -32
-16 -15 -17 -15 -17 1 0 12 -8 17 -30 17 -22 0 -28 4 -24 15 3 8 15 17 26 21
11 3 24 19 30 35 5 16 13 29 17 29 4 0 16 8 27 18 10 9 27 23 37 31 15 12 17
12 11 -3 -3 -9 -19 -30 -35 -47 -29 -31 -36 -49 -21 -49 5 0 35 29 68 65 32
36 60 61 62 55 2 -5 -10 -24 -27 -42z m75 26 c1 -14 -1 -23 -4 -20 -3 3 -11 1
-19 -6 -24 -20 -27 1 -3 27 13 14 24 25 24 25 1 0 2 -12 2 -26z m-1840 4 l33
-12 -22 -18 c-13 -11 -23 -15 -25 -9 -2 6 -10 11 -18 11 -8 0 -14 9 -14 20 0
23 3 24 46 8z m-196 -12 c0 -3 -4 -8 -10 -11 -5 -3 -10 -1 -10 4 0 6 5 11 10
11 6 0 10 -2 10 -4z m2727 -18 c-3 -8 -6 -5 -6 6 -1 11 2 17 5 13 3 -3 4 -12
1 -19z m-2607 8 c0 -3 -4 -8 -10 -11 -5 -3 -10 -1 -10 4 0 6 5 11 10 11 6 0
10 -2 10 -4z m143 -16 c-4 -13 0 -20 10 -20 8 0 17 9 20 20 3 12 14 20 26 20
30 0 26 -10 -15 -47 -39 -34 -54 -35 -54 -2 0 10 -5 19 -12 19 -9 0 18 27 29
30 0 0 -1 -9 -4 -20z m157 -6 c0 -11 -42 -44 -55 -44 -3 0 -5 13 -5 30 0 26 3
29 30 27 16 -1 30 -7 30 -13z m60 -3 c0 -5 -16 -18 -35 -30 -44 -26 -46 -10
-2 18 37 24 37 24 37 12z m-1010 -11 c0 -5 -4 -10 -10 -10 -5 0 -10 5 -10 10
0 6 5 10 10 10 6 0 10 -4 10 -10z m1120 -21 c-8 -13 -7 -19 0 -19 6 0 8 -5 4
-11 -5 -8 -9 -8 -14 1 -4 7 -16 9 -29 5 -29 -9 -26 5 6 31 32 25 48 22 33 -7z
m-80 6 c-7 -8 -17 -15 -22 -15 -6 0 -5 7 2 15 7 8 17 15 22 15 6 0 5 -7 -2
-15z m-1023 -27 c-16 -10 -21 -2 -13 19 6 15 9 15 16 3 6 -9 5 -17 -3 -22z
m963 -23 c-13 -14 -26 -23 -28 -20 -3 2 6 15 19 29 13 14 26 23 28 20 2 -2 -6
-15 -19 -29z m1306 19 c-3 -9 -6 -20 -6 -25 0 -5 -9 -9 -20 -9 -11 0 -20 -7
-20 -15 0 -9 -8 -19 -17 -22 -10 -4 -21 -11 -25 -17 -4 -6 -10 -8 -13 -4 -4 4
8 23 27 43 18 20 37 43 41 51 11 20 41 18 33 -2z m977 -36 c3 -21 2 -38 -4
-38 -5 0 -9 19 -9 42 0 49 5 47 13 -4z m-3224 6 c-14 -18 -24 -11 -15 11 3 9
11 13 16 10 8 -5 7 -11 -1 -21z m1719 -49 c-1 -53 -5 -68 -23 -85 l-23 -21 -6
36 c-8 39 -1 59 19 51 9 -3 15 9 20 40 3 24 8 44 10 44 2 0 4 -29 3 -65z m410
24 c-39 -39 -78 -63 -78 -47 0 7 -6 6 -15 -2 -12 -10 -15 -10 -15 1 0 24 13
36 60 56 88 39 94 38 48 -8z m-735 16 c1 -6 -19 -21 -43 -34 l-45 -24 35 37
c33 35 50 42 53 21z m39 -17 c-6 -6 -15 -8 -19 -4 -4 4 -1 11 7 16 19 12 27 3
12 -12z m452 -20 c-8 -13 -21 -9 -28 8 -9 25 4 37 19 17 7 -10 11 -21 9 -25z
m-364 18 c0 -13 -58 -66 -72 -66 -3 0 1 16 10 34 9 19 19 33 23 30 4 -2 10 0
14 6 9 15 25 12 25 -4z m42 -8 c-7 -7 -12 -8 -12 -2 0 14 12 26 19 19 2 -3 -1
-11 -7 -17z m54 -17 c-1 -31 -16 -33 -16 -2 0 15 8 31 15 31 1 0 2 -13 1 -29z
m164 9 c0 -5 -4 -10 -10 -10 -5 0 -10 5 -10 10 0 6 5 10 10 10 6 0 10 -4 10
-10z m145 -27 c-26 -18 -32 -7 -9 18 12 14 20 17 23 8 2 -7 -4 -18 -14 -26z
m757 15 c-7 -7 -12 -8 -12 -2 0 14 12 26 19 19 2 -3 -1 -11 -7 -17z m-862 -7
c0 -8 -43 -41 -55 -41 -15 0 -2 28 18 38 28 13 37 14 37 3z m417 -23 c-3 -8
-6 -5 -6 6 -1 11 2 17 5 13 3 -3 4 -12 1 -19z m-1719 -33 c-3 -3 -9 2 -12 12
-6 14 -5 15 5 6 7 -7 10 -15 7 -18z m144 -17 c-7 -7 -12 -8 -12 -2 0 14 12 26
19 19 2 -3 -1 -11 -7 -17z m1069 -47 c-12 -16 -21 -39 -21 -50 0 -13 -9 -25
-24 -31 -13 -5 -27 -14 -31 -20 -5 -8 -11 -5 -20 7 -13 17 -14 17 -20 1 -7
-18 -35 -25 -35 -9 0 5 16 23 35 40 34 30 45 51 26 51 -6 0 -13 -5 -17 -11 -5
-8 -8 -8 -13 0 -5 8 -14 4 -26 -11 -11 -13 -13 -17 -5 -10 8 6 18 12 22 12 16
0 7 -25 -15 -41 -16 -12 -29 -14 -46 -8 -22 9 -22 11 -9 31 23 34 70 66 75 51
6 -18 18 -16 39 5 16 15 17 15 12 0 -4 -9 -4 -19 -1 -22 9 -8 53 34 53 50 0 7
8 17 18 23 26 15 28 -22 3 -58z m-985 27 c4 -13 1 -24 -7 -29 -8 -5 -9 -9 -3
-9 6 0 17 7 25 16 12 14 14 14 21 -5 4 -12 15 -21 24 -21 8 0 14 -6 11 -12 -2
-8 -19 -12 -43 -11 -21 0 -45 -4 -51 -9 -10 -8 -13 -6 -13 7 0 9 -8 30 -17 47
-17 28 -17 30 0 43 23 17 44 10 53 -17z m776 -39 c9 -6 7 -14 -10 -32 -12 -13
-22 -30 -22 -38 -1 -16 -24 -49 -35 -49 -4 0 -5 7 -1 15 6 18 1 19 -25 5 -22
-12 -27 8 -7 28 6 6 8 15 4 19 -8 8 -45 -35 -46 -54 0 -11 -116 -30 -126 -20
-13 12 11 37 36 37 34 0 61 27 40 40 -9 5 2 11 34 15 30 5 50 14 57 26 5 11
16 19 24 19 19 0 19 -8 0 -27 -22 -22 -9 -30 14 -9 10 10 22 34 26 54 l8 37 8
-29 c4 -16 14 -33 21 -37z m-848 5 c8 -22 -4 -40 -15 -23 -11 18 -11 39 0 39
5 0 12 -7 15 -16z m1406 8 c0 -5 -7 -17 -15 -28 -15 -19 -20 -8 -9 20 6 17 24
22 24 8z m-1462 -27 c-3 -3 -9 2 -12 12 -6 14 -5 15 5 6 7 -7 10 -15 7 -18z
m2307 15 c-3 -5 -13 -10 -21 -10 -8 0 -12 5 -9 10 3 6 13 10 21 10 8 0 12 -4
9 -10z m-1605 -4 c0 -3 -4 -8 -10 -11 -5 -3 -10 -1 -10 4 0 6 5 11 10 11 6 0
10 -2 10 -4z m-64 -48 c-1 -38 -5 -45 -33 -58 -18 -8 -33 -22 -33 -30 0 -8
-11 -20 -25 -27 -23 -10 -25 -9 -25 13 0 24 -14 32 -25 14 -9 -14 -25 -12 -22
2 1 7 -9 14 -23 16 -31 5 -54 22 -42 34 4 4 22 12 40 17 26 8 30 7 25 -6 -5
-13 -1 -15 16 -10 17 4 21 2 16 -12 -4 -14 1 -18 29 -19 22 -1 36 4 40 13 3 8
12 15 21 15 17 0 20 25 4 35 -7 5 -4 14 7 26 26 28 32 23 30 -23z m-226 24 c0
-13 -12 -22 -22 -16 -10 6 -1 24 13 24 5 0 9 -4 9 -8z m847 -11 c-3 -15 -1
-18 12 -14 9 3 22 13 29 21 11 14 12 14 12 0 0 -24 -27 -41 -55 -34 -22 6 -24
9 -15 26 14 25 24 26 17 1z m993 9 c0 -5 -5 -10 -11 -10 -5 0 -7 5 -4 10 3 6
8 10 11 10 2 0 4 -4 4 -10z m350 -11 c0 -11 -4 -17 -10 -14 -5 3 -10 13 -10
21 0 8 5 14 10 14 6 0 10 -9 10 -21z m-2045 -9 c-3 -5 -11 -10 -16 -10 -6 0
-7 5 -4 10 3 6 11 10 16 10 6 0 7 -4 4 -10z m602 -24 c-4 -9 -13 -16 -22 -16
-18 0 -19 4 -3 30 14 22 34 10 25 -14z m58 14 c3 -5 -1 -10 -9 -10 -9 0 -16 5
-16 10 0 6 4 10 9 10 6 0 13 -4 16 -10z m796 -31 c-6 -16 -10 -18 -10 -7 -1
22 12 55 16 42 2 -6 -1 -22 -6 -35z m-1706 1 c-5 -8 -11 -8 -17 -2 -6 6 -7 16
-3 22 5 8 11 8 17 2 6 -6 7 -16 3 -22z m68 5 c-22 -16 -38 -8 -23 10 6 8 18
11 26 8 12 -4 12 -8 -3 -18z m2227 -95 c0 -91 -3 -110 -15 -110 -8 0 -15 7
-15 15 0 8 -7 15 -15 15 -15 0 -21 21 -8 33 3 4 8 24 10 45 2 20 8 39 13 40 6
2 10 19 10 38 0 19 5 34 10 34 6 0 10 -43 10 -110z m-110 80 c0 -5 -5 -10 -11
-10 -5 0 -7 5 -4 10 3 6 8 10 11 10 2 0 4 -4 4 -10z m-224 -46 c34 -9 30 -29
-11 -48 -62 -30 -56 -47 8 -21 43 18 -6 -42 -61 -75 -15 -8 -15 -11 -2 -20 8
-5 11 -10 5 -10 -5 0 -3 -4 5 -10 12 -8 12 -11 -3 -28 -19 -20 -23 -37 -7 -27
22 14 8 -14 -15 -29 -23 -15 -25 -15 -25 -1 0 21 -19 9 -30 -19 -7 -19 -9 -18
-17 14 l-10 35 -11 -64 c-13 -71 -11 -78 15 -76 30 2 43 15 43 41 0 13 4 24 9
24 5 0 8 -8 6 -17 -13 -64 -17 -73 -31 -73 -9 0 -18 -9 -21 -19 -3 -12 -11
-17 -19 -14 -8 3 -14 0 -14 -6 0 -6 5 -11 10 -11 6 0 10 -9 10 -20 0 -11 7
-20 16 -20 36 0 -23 -93 -66 -104 -28 -7 -99 -108 -81 -114 16 -5 14 -22 -2
-22 -8 0 -24 -11 -37 -25 -13 -14 -29 -25 -37 -25 -7 0 -13 -7 -13 -15 0 -8
-4 -15 -10 -15 -5 0 -10 -8 -10 -17 0 -10 -7 -27 -15 -37 -13 -17 -14 -16 -11
19 1 22 10 43 21 51 9 7 15 20 12 28 -3 8 1 20 9 26 8 7 14 23 14 36 0 12 5
26 10 29 15 10 12 35 -5 35 -8 0 -15 6 -15 14 0 27 19 66 33 66 13 0 35 66 40
115 1 12 16 27 38 37 41 20 55 44 38 64 -9 11 -8 14 1 14 8 0 9 10 5 30 -5 23
-3 32 10 36 12 5 13 9 5 14 -9 6 -7 13 9 29 11 11 18 27 15 36 -4 10 5 21 25
32 17 10 31 21 31 26 0 4 10 5 23 2 27 -7 51 15 52 48 0 12 3 22 6 22 11 0 39
27 39 37 0 6 -7 7 -16 4 -22 -9 -50 14 -32 26 7 4 19 6 26 3 8 -3 25 -8 38
-11z m204 -14 c0 -5 -5 -10 -11 -10 -5 0 -7 5 -4 10 3 6 8 10 11 10 2 0 4 -4
4 -10z m-500 -103 c0 -16 -54 -67 -71 -67 -6 0 -8 7 -5 16 3 9 6 20 6 25 0 5
6 9 14 9 7 0 19 7 26 15 15 19 30 19 30 2z m-2490 -37 c0 -5 -4 -10 -10 -10
-5 0 -10 5 -10 10 0 6 5 10 10 10 6 0 10 -4 10 -10z m1463 -26 c3 -4 24 -7 47
-8 22 -1 46 -8 53 -15 10 -11 0 -13 -52 -8 -35 3 -91 1 -124 -4 -66 -11 -70
-10 -61 15 5 12 14 15 33 11 14 -3 40 -1 56 4 39 12 41 12 48 5z m1652 -23
c-3 -6 -11 -11 -17 -11 -6 0 -6 6 2 15 14 17 26 13 15 -4z m-1329 -9 c69 -3
167 -53 145 -75 -6 -6 -21 -3 -43 10 -45 27 -151 47 -177 33 -13 -7 -22 -7
-26 0 -9 15 4 30 25 30 10 0 22 5 25 10 4 7 12 7 18 2 7 -5 22 -9 33 -10z
m594 4 c0 -3 -4 -8 -10 -11 -5 -3 -10 -1 -10 4 0 6 5 11 10 11 6 0 10 -2 10
-4z m-1245 -25 c58 -6 58 -31 1 -31 -25 0 -57 -5 -73 -11 -87 -35 -140 -24
-59 12 25 11 46 24 46 29 0 5 6 7 14 4 8 -3 17 -1 21 5 4 7 12 8 23 2 9 -5 22
-10 27 -10z m1275 -7 c0 -14 -3 -14 -15 -4 -8 7 -15 14 -15 16 0 2 7 4 15 4 8
0 15 -7 15 -16z m-1860 -24 c0 -5 -4 -10 -10 -10 -5 0 -10 5 -10 10 0 6 5 10
10 10 6 0 10 -4 10 -10z m995 -6 c24 -25 13 -39 -33 -42 -23 -2 -42 -7 -42
-13 0 -5 5 -9 11 -9 6 0 8 -9 4 -20 -6 -18 -2 -20 31 -20 20 0 42 -6 48 -14 6
-8 38 -17 71 -21 72 -7 96 5 97 53 1 22 6 32 17 33 10 0 12 2 4 6 -25 10 -12
23 21 23 45 0 89 -17 81 -31 -4 -6 1 -16 11 -23 22 -17 10 -36 -22 -36 -16 0
-23 4 -18 11 4 7 -2 6 -17 -2 -25 -13 -24 -15 34 -33 9 -3 17 -11 17 -17 0 -8
-15 -10 -46 -6 -38 4 -45 2 -42 -12 2 -9 18 -20 36 -26 42 -12 41 -25 -2 -25
-30 0 -66 -23 -54 -35 2 -2 22 -8 44 -13 24 -5 39 -14 39 -22 0 -16 -2 -16
-50 -6 -20 4 -37 1 -50 -8 -18 -13 -18 -16 -5 -30 9 -9 35 -17 58 -18 47 -1
55 -7 43 -27 -7 -11 -27 -11 -107 -2 -189 21 -416 15 -538 -16 -32 -8 -65 -12
-72 -9 -24 9 -15 27 22 42 42 18 40 40 -5 38 -38 -2 -40 8 -3 26 25 13 26 14
5 17 -23 4 -38 29 -23 38 19 12 10 26 -12 20 -22 -6 -22 -6 2 15 l25 21 -30
-7 c-28 -7 -29 -6 -15 11 14 17 13 18 -7 13 -27 -7 -30 7 -5 21 14 9 12 10
-13 11 -25 1 -27 2 -12 11 24 14 22 32 -3 24 -23 -7 -28 10 -5 19 8 3 15 12
15 19 0 8 14 20 31 27 39 17 61 5 70 -38 10 -50 36 -82 66 -82 37 0 173 33
173 43 0 4 -7 7 -15 7 -8 0 -15 5 -15 10 0 6 9 10 20 10 11 0 20 5 20 10 0 6
-12 10 -26 10 -14 0 -23 4 -19 10 3 6 15 10 26 10 10 0 19 5 19 10 0 6 -11 10
-25 10 -23 0 -24 2 -13 20 15 24 27 27 105 29 45 1 66 -3 78 -15z m1369 -19
c-22 -16 -34 -19 -34 -7 0 10 43 32 49 26 3 -2 -4 -11 -15 -19z m-1238 -25 c8
0 14 -10 14 -25 0 -22 -4 -25 -39 -25 -45 0 -52 6 -40 35 7 19 8 19 8 -3 1
-17 6 -22 19 -20 12 3 17 12 15 33 0 17 1 24 4 18 2 -7 11 -13 19 -13z m1278
11 c3 -5 -1 -12 -10 -15 -20 -8 -29 -1 -19 13 8 13 22 14 29 2z m-1649 -42 c0
-32 -3 -34 -42 -43 -23 -5 -49 -6 -57 -3 -20 8 -21 37 -1 37 8 0 15 4 15 9 0
4 12 6 26 3 20 -4 26 0 31 17 8 33 28 19 28 -20z m235 1 c0 -5 -4 -10 -9 -10
-6 0 -13 5 -16 10 -3 6 1 10 9 10 9 0 16 -4 16 -10z m982 -22 c-6 -6 -15 -8
-19 -4 -4 4 -1 11 7 16 19 12 27 3 12 -12z m448 -31 c0 -29 -5 -58 -10 -63 -8
-8 -8 -19 0 -38 6 -18 7 -34 1 -44 -8 -15 -11 -13 -20 11 -6 16 -20 31 -31 34
-20 5 -19 6 2 28 24 25 31 54 18 70 -10 12 14 55 31 55 5 0 9 -24 9 -53z
m-3210 18 c0 -8 -4 -15 -10 -15 -5 0 -10 7 -10 15 0 8 5 15 10 15 6 0 10 -7
10 -15z m3340 11 c0 -2 -8 -10 -17 -17 -16 -13 -17 -12 -4 4 13 16 21 21 21
13z m-3040 -10 c0 -3 -4 -8 -10 -11 -5 -3 -10 -1 -10 4 0 6 5 11 10 11 6 0 10
-2 10 -4z m2270 -25 c0 -5 -7 -12 -16 -15 -24 -9 -28 -7 -14 9 14 17 30 20 30
6z m-1830 -11 c0 -5 -5 -10 -11 -10 -5 0 -7 5 -4 10 3 6 8 10 11 10 2 0 4 -4
4 -10z m2350 0 c0 -5 -4 -10 -10 -10 -5 0 -10 5 -10 10 0 6 5 10 10 10 6 0 10
-4 10 -10z m270 1 c0 -5 -7 -14 -15 -21 -16 -14 -18 -10 -9 14 6 17 24 22 24
7z m-2940 -25 c0 -3 -4 -8 -10 -11 -5 -3 -10 -1 -10 4 0 6 5 11 10 11 6 0 10
-2 10 -4z m2700 -25 c0 -6 -4 -13 -10 -16 -5 -3 -10 1 -10 9 0 9 5 16 10 16 6
0 10 -4 10 -9z m237 -13 c-3 -8 -6 -5 -6 6 -1 11 2 17 5 13 3 -3 4 -12 1 -19z
m-72 -35 c-10 -15 -27 -37 -38 -48 -19 -20 -19 -20 -2 15 20 40 46 72 53 65 3
-2 -3 -17 -13 -32z m-1163 -45 c-7 -7 -12 -8 -12 -2 0 14 12 26 19 19 2 -3 -1
-11 -7 -17z m-852 -14 c0 -16 -16 -19 -25 -4 -8 13 4 32 16 25 5 -4 9 -13 9
-21z m2020 -3 c-6 -12 -15 -21 -21 -21 -5 0 -2 11 7 25 20 30 31 26 14 -4z
m-200 -1 c0 -5 -4 -10 -10 -10 -5 0 -10 5 -10 10 0 6 5 10 10 10 6 0 10 -4 10
-10z m-2175 -10 c-3 -5 -11 -10 -16 -10 -6 0 -7 5 -4 10 3 6 11 10 16 10 6 0
7 -4 4 -10z m2295 -15 c5 -14 8 -36 6 -48 -3 -12 -5 -30 -5 -39 -1 -25 -21
-23 -21 2 0 11 -4 20 -9 20 -8 0 -9 33 -2 83 2 17 22 5 31 -18z m-95 -4 c-3
-6 -11 -11 -17 -11 -6 0 -6 6 2 15 14 17 26 13 15 -4z m-63 -53 c-7 -7 -12 -8
-12 -2 0 14 12 26 19 19 2 -3 -1 -11 -7 -17z m-652 8 c0 -3 -4 -8 -10 -11 -5
-3 -10 -1 -10 4 0 6 5 11 10 11 6 0 10 -2 10 -4z m-1990 -41 c-7 -9 -15 -13
-18 -10 -3 2 1 11 8 20 7 9 15 13 18 10 3 -2 -1 -11 -8 -20z m1435 10 c11 -2
27 -4 35 -4 13 -1 13 -3 1 -10 -8 -5 -28 -7 -45 -4 -22 3 -39 -1 -55 -14 -27
-22 -29 -51 -11 -157 13 -80 8 -87 -51 -79 -45 6 -51 -7 -14 -31 23 -15 27
-44 4 -30 -5 3 -15 1 -22 -4 -7 -6 -23 -12 -37 -14 -14 -1 -25 -10 -25 -18 0
-12 17 -14 90 -13 60 2 85 -1 75 -7 -8 -5 -34 -10 -57 -10 -24 0 -43 -4 -43
-8 0 -19 27 -32 67 -32 32 0 45 5 53 20 6 11 7 20 3 20 -4 0 0 5 10 11 24 14
21 28 -9 39 -27 11 -27 25 2 81 10 20 11 36 4 60 -13 45 -13 60 3 58 22 -4 92
14 116 29 21 14 23 21 17 67 l-6 51 34 -4 c41 -5 45 -12 50 -105 3 -40 2 -60
0 -44 -8 44 -24 31 -25 -20 -1 -27 -3 -40 -6 -30 -8 32 -23 17 -23 -23 0 -45
6 -50 21 -17 11 25 4 -148 -8 -193 -6 -22 -5 -23 10 -12 17 14 23 46 33 177 3
44 8 82 10 84 12 12 -1 -223 -13 -246 -11 -21 -11 -29 -1 -41 11 -13 10 -14
-9 -3 -18 9 -27 9 -42 -1 -29 -18 -36 -4 -18 39 20 52 33 138 19 129 -6 -3
-14 -27 -18 -52 -4 -29 -10 -42 -16 -36 -6 6 -5 24 2 48 6 22 14 76 16 122 5
77 4 82 -15 82 -17 0 -19 -4 -10 -32 12 -42 12 -41 -8 -34 -15 6 -15 5 1 -13
21 -23 13 -49 -10 -30 -8 7 -14 7 -14 1 0 -5 8 -13 18 -17 16 -6 16 -7 -2 -20
-10 -8 -19 -27 -21 -42 -4 -49 -33 -100 -82 -142 -41 -35 -55 -41 -94 -41 -49
0 -119 24 -119 40 0 6 -7 10 -15 10 -8 0 -15 9 -15 20 0 11 -7 20 -16 20 -11
0 -14 6 -9 20 5 14 2 20 -9 20 -10 0 -16 9 -16 21 0 16 -5 20 -27 17 -30 -3
-31 1 -48 135 -5 48 -4 57 9 57 9 0 16 7 16 15 0 18 2 18 69 0 47 -12 58 -12
82 1 16 8 29 18 29 23 0 5 9 11 20 14 26 7 26 39 -1 63 -18 16 -34 19 -98 17
-104 -3 -72 13 49 25 84 8 151 7 215 -3z m1275 -5 c0 -5 -5 -10 -11 -10 -5 0
-7 5 -4 10 3 6 8 10 11 10 2 0 4 -4 4 -10z m-2545 -19 c-3 -6 -11 -11 -17 -11
-6 0 -6 6 2 15 14 17 26 13 15 -4z m490 9 c-3 -5 -11 -10 -16 -10 -6 0 -7 5
-4 10 3 6 11 10 16 10 6 0 7 -4 4 -10z m2303 -95 c1 -70 -2 -105 -9 -105 -6 0
-9 9 -6 20 3 10 0 21 -6 23 -9 3 -9 11 0 30 7 15 8 29 3 32 -5 3 -5 16 2 31 9
20 9 27 0 33 -7 4 -10 15 -6 24 14 38 21 11 22 -88z m-2072 59 c-3 -9 -6 -20
-6 -25 0 -4 -7 -6 -15 -3 -11 5 -12 11 -4 25 12 23 34 26 25 3z m771 -16 c-3
-7 -5 -2 -5 12 0 14 2 19 5 13 2 -7 2 -19 0 -25z m1143 12 c0 -19 -36 -47 -47
-36 -6 6 29 55 40 56 4 0 7 -9 7 -20z m-1848 -31 c-14 -39 -12 -135 3 -176
l15 -38 -4 55 c-4 48 -4 51 5 20 5 -19 23 -79 40 -132 l32 -97 -21 -33 -21
-33 1 46 c1 55 -21 119 -40 119 -10 0 -12 -6 -7 -17 15 -36 23 -83 15 -88 -10
-6 -25 14 -17 22 3 2 -1 22 -8 43 -8 22 -17 82 -21 135 -4 52 -11 98 -16 101
-12 8 2 76 20 97 20 23 35 8 24 -24z m35 19 c-3 -8 -6 -5 -6 6 -1 11 2 17 5
13 3 -3 4 -12 1 -19z m1073 2 c0 -5 -5 -10 -11 -10 -5 0 -7 5 -4 10 3 6 8 10
11 10 2 0 4 -4 4 -10z m-1530 -10 c0 -5 -4 -10 -10 -10 -5 0 -10 5 -10 10 0 6
5 10 10 10 6 0 10 -4 10 -10z m598 -15 c10 -21 9 -25 -3 -25 -8 0 -15 9 -15
20 0 17 -4 18 -25 10 -20 -7 -25 -6 -25 5 0 10 10 15 28 15 21 0 32 -7 40 -25z
m-1396 -7 c-7 -7 -12 -8 -12 -2 0 14 12 26 19 19 2 -3 -1 -11 -7 -17z m2012
-20 c3 -15 2 -29 -3 -32 -9 -6 -21 26 -21 59 0 25 16 8 24 -27z m-730 -29 c-1
-96 14 -170 46 -221 30 -50 47 -109 35 -128 -12 -19 -37 10 -31 36 4 13 -6 50
-24 93 -23 53 -32 93 -37 160 -5 76 -2 121 9 121 2 0 3 -27 2 -61z m200 40
c-3 -5 -10 -7 -15 -3 -5 3 -7 10 -3 15 3 5 10 7 15 3 5 -3 7 -10 3 -15z m1458
-1 c-7 -7 -12 -8 -12 -2 0 14 12 26 19 19 2 -3 -1 -11 -7 -17z m-1802 -28 c-8
-15 -15 -19 -22 -12 -7 7 -6 17 2 32 8 15 15 19 22 12 7 -7 6 -17 -2 -32z
m566 25 c18 -15 18 -15 -5 -13 -14 2 -26 9 -29 16 -5 17 10 15 34 -3z m59 5
c-3 -5 -11 -10 -16 -10 -6 0 -7 5 -4 10 3 6 11 10 16 10 6 0 7 -4 4 -10z m186
-162 c2 -79 -1 -149 -5 -156 -14 -23 -25 -12 -15 16 7 17 9 78 5 172 -4 97 -3
140 3 129 6 -9 11 -81 12 -161z m249 138 c0 -3 -4 -8 -10 -11 -5 -3 -10 -1
-10 4 0 6 5 11 10 11 6 0 10 -2 10 -4z m330 -16 c0 -5 -4 -10 -10 -10 -5 0
-10 5 -10 10 0 6 5 10 10 10 6 0 10 -4 10 -10z m30 -26 c0 -8 -5 -12 -10 -9
-6 4 -8 11 -5 16 9 14 15 11 15 -7z m500 3 c0 -17 -20 -37 -37 -37 -10 0 -10
5 -1 25 12 26 38 34 38 12z m-2550 -17 c0 -5 -5 -10 -11 -10 -5 0 -7 5 -4 10
3 6 8 10 11 10 2 0 4 -4 4 -10z m80 2 c0 -5 -11 -19 -25 -32 -29 -27 -32 -21
-9 15 16 24 34 33 34 17z m1450 -34 c0 -10 -4 -18 -9 -18 -11 0 -19 30 -13 49
4 11 6 11 13 0 5 -8 9 -22 9 -31z m560 0 c0 -12 -1 -19 -3 -17 -1 2 -9 12 -16
22 -12 14 -11 17 3 17 10 0 16 -8 16 -22z m-1476 -45 c-3 -27 -11 -52 -16 -58
-7 -7 -9 1 -4 24 3 18 6 44 6 57 0 13 5 24 11 24 7 0 8 -16 3 -47z m1086 43
c0 -3 -4 -8 -10 -11 -5 -3 -10 -1 -10 4 0 6 5 11 10 11 6 0 10 -2 10 -4z m330
0 c0 -3 -4 -8 -10 -11 -5 -3 -10 -1 -10 4 0 6 5 11 10 11 6 0 10 -2 10 -4z
m440 -10 c0 -8 -7 -16 -15 -20 -13 -4 -14 -2 -5 14 13 23 20 26 20 6z m60 -9
c0 -12 -39 -42 -46 -35 -6 6 26 48 37 48 5 0 9 -6 9 -13z m-460 -6 c0 -6 -4
-13 -10 -16 -5 -3 -10 1 -10 9 0 9 5 16 10 16 6 0 10 -4 10 -9z m-2300 -5 c0
-2 -7 -7 -16 -10 -8 -3 -12 -2 -9 4 6 10 25 14 25 6z m2060 0 c0 -2 -7 -6 -15
-10 -8 -3 -15 -1 -15 4 0 6 7 10 15 10 8 0 15 -2 15 -4z m885 -6 c-3 -5 -11
-10 -16 -10 -6 0 -7 5 -4 10 3 6 11 10 16 10 6 0 7 -4 4 -10z m-2050 -86 c3
-43 10 -95 15 -114 12 -42 12 -50 3 -50 -24 1 -34 23 -38 86 -4 64 3 169 11
161 2 -2 6 -39 9 -83z m824 49 c0 -34 -1 -36 -11 -16 -6 12 -8 29 -5 37 11 27
17 18 16 -21z m-1529 -6 c0 -2 -10 -12 -21 -23 -22 -19 -22 -19 -10 4 10 18
31 31 31 19z m2090 -1 c0 -3 -4 -8 -10 -11 -5 -3 -10 -1 -10 4 0 6 5 11 10 11
6 0 10 -2 10 -4z m670 -15 c0 -12 -20 -25 -27 -18 -7 7 6 27 18 27 5 0 9 -4 9
-9z m-795 -20 c-3 -6 -11 -11 -17 -11 -6 0 -6 6 2 15 14 17 26 13 15 -4z m225
10 c0 -11 -29 -35 -35 -29 -10 9 7 38 21 38 8 0 14 -4 14 -9z m322 -13 c-7 -7
-12 -20 -12 -30 0 -10 -4 -18 -10 -18 -17 0 -11 48 7 59 22 12 31 5 15 -11z
m-1892 8 c0 -3 -4 -8 -10 -11 -5 -3 -10 -1 -10 4 0 6 5 11 10 11 6 0 10 -2 10
-4z m1250 -11 c-7 -8 -17 -15 -22 -15 -6 0 -5 7 2 15 7 8 17 15 22 15 6 0 5
-7 -2 -15z m250 1 c0 -3 -4 -8 -10 -11 -5 -3 -10 -1 -10 4 0 6 5 11 10 11 6 0
10 -2 10 -4z m-1483 -63 c-4 -17 -4 -17 -12 0 -4 9 -4 25 0 35 8 16 8 16 12 0
3 -10 3 -26 0 -35z m2123 27 c0 -5 -5 -10 -11 -10 -5 0 -7 5 -4 10 3 6 8 10
11 10 2 0 4 -4 4 -10z m-340 -34 c0 -11 -19 -15 -25 -6 -3 5 1 10 9 10 9 0 16
-2 16 -4z m-919 -59 c-11 -12 -24 -18 -28 -14 -4 4 3 14 15 23 12 8 23 23 23
32 1 14 2 14 6 -2 3 -11 -4 -27 -16 -39z m769 33 c0 -5 -2 -10 -4 -10 -3 0 -8
5 -11 10 -3 6 -1 10 4 10 6 0 11 -4 11 -10z m482 -12 c-7 -7 -12 -8 -12 -2 0
14 12 26 19 19 2 -3 -1 -11 -7 -17z m-732 -23 c-7 -9 -15 -13 -17 -11 -7 7 7
26 19 26 6 0 6 -6 -2 -15z m-1370 -12 c0 -10 12 -27 27 -38 l26 -22 -34 1
c-19 0 -43 -4 -54 -9 -19 -9 -20 -8 -2 18 9 14 17 35 17 47 0 11 5 20 10 20 6
0 10 -8 10 -17z m1874 -18 c-6 -16 -24 -21 -24 -7 0 11 11 22 21 22 5 0 6 -7
3 -15z m-2824 -20 c0 -9 -9 -15 -22 -15 -22 1 -23 1 -4 15 25 19 26 19 26 0z
m1587 -20 c-3 -19 -1 -37 4 -40 5 -4 9 -17 9 -31 0 -13 1 -24 3 -24 2 0 30 -5
63 -11 92 -17 93 -38 5 -98 -31 -21 -69 -50 -84 -65 -27 -25 -39 -30 -64 -27
-7 1 -22 -3 -32 -9 -16 -8 -35 -4 -85 16 -66 26 -107 58 -139 107 -9 15 -22
27 -28 27 -11 0 -39 25 -39 34 0 3 7 6 16 6 14 0 14 3 4 15 -17 21 -4 32 20
17 11 -7 28 -12 37 -12 14 1 12 5 -9 23 -37 30 -36 40 1 19 34 -19 56 -8 27
14 -11 7 -17 17 -13 20 4 4 13 1 21 -6 24 -19 78 -19 105 2 13 10 31 18 40 19
9 0 34 9 56 19 22 10 51 19 64 19 22 1 23 -2 18 -34z m159 19 c18 -15 18 -15
-11 -9 -37 8 -57 25 -29 25 11 0 29 -7 40 -16z m-2229 0 c-3 -3 -12 -4 -19 -1
-8 3 -5 6 6 6 11 1 17 -2 13 -5z m413 -14 c-24 -15 -37 -11 -16 5 11 8 22 12
25 9 3 -3 -1 -9 -9 -14z m2360 1 c0 -12 -20 -25 -27 -18 -7 7 6 27 18 27 5 0
9 -4 9 -9z m-1185 -11 c4 -6 13 -5 25 2 23 14 38 4 22 -15 -6 -7 -9 -23 -5
-35 7 -28 -8 -29 -25 -2 -7 11 -27 29 -45 40 l-32 20 27 0 c15 0 30 -4 33 -10z
m815 0 c0 -5 -5 -10 -11 -10 -5 0 -7 5 -4 10 3 6 8 10 11 10 2 0 4 -4 4 -10z
m1140 0 c0 -5 -5 -10 -11 -10 -5 0 -7 5 -4 10 3 6 8 10 11 10 2 0 4 -4 4 -10z
m-3413 -15 c50 -21 31 -39 -22 -21 -41 14 -100 11 -123 -7 -7 -5 -15 -7 -18
-4 -11 11 61 47 94 47 18 0 49 -7 69 -15z m493 0 c0 -3 -12 -17 -27 -30 -25
-21 -26 -26 -15 -44 7 -12 8 -21 2 -21 -5 0 -14 9 -20 20 -9 17 -6 25 17 49
27 28 43 37 43 26z m1546 -20 c-21 -16 -32 -13 -21 4 3 6 14 11 23 11 15 -1
15 -2 -2 -15z m-596 -48 c15 -15 30 -37 33 -49 5 -18 0 -16 -28 13 -19 19 -36
48 -39 64 -4 17 -3 23 0 15 4 -8 19 -27 34 -43z m668 41 c-3 -7 -12 -14 -21
-16 -12 -2 -15 1 -11 12 7 19 38 22 32 4z m-2515 -19 c12 -6 30 -19 40 -27 12
-11 43 -16 98 -18 45 -2 84 -6 87 -9 9 -9 -31 -33 -45 -28 -7 3 -13 -1 -13 -8
0 -12 -2 -12 -9 0 -7 10 -13 11 -30 1 -12 -6 -32 -11 -44 -10 -46 4 -58 -1
-67 -26 -9 -23 -14 -26 -43 -20 -46 9 -70 41 -62 86 6 33 36 70 57 70 5 0 19
-5 31 -11z m788 -10 c14 -23 10 -86 -7 -103 -24 -25 -59 -29 -93 -12 -17 9
-34 17 -38 17 -5 1 -17 6 -28 12 -23 12 -75 17 -75 7 0 -4 -19 -6 -42 -5 -35
2 -43 6 -43 21 0 17 8 19 99 19 88 0 100 2 110 20 6 11 18 25 26 31 19 16 80
11 91 -7z m783 -4 c-10 -8 -23 -14 -29 -14 -5 -1 1 8 15 19 14 10 27 17 29 14
3 -2 -4 -11 -15 -19z m206 21 c0 -3 -4 -8 -10 -11 -5 -3 -10 -1 -10 4 0 6 5
11 10 11 6 0 10 -2 10 -4z m160 -6 c0 -5 -5 -10 -11 -10 -5 0 -7 5 -4 10 3 6
8 10 11 10 2 0 4 -4 4 -10z m658 -1 c-10 -5 -18 -15 -18 -21 0 -6 8 -17 18
-24 16 -12 15 -13 -6 -14 -20 0 -22 4 -20 35 2 28 6 35 23 35 18 -1 18 -1 3
-11z m1212 -14 c-7 -9 -15 -13 -18 -10 -3 2 1 11 8 20 7 9 15 13 18 10 3 -2
-1 -11 -8 -20z m-3490 -9 c0 -3 -4 -8 -10 -11 -5 -3 -10 -1 -10 4 0 6 5 11 10
11 6 0 10 -2 10 -4z m81 -9 c-1 -12 -15 -9 -19 4 -3 6 1 10 8 8 6 -3 11 -8 11
-12z m1246 -24 c-3 -10 -5 -4 -5 12 0 17 2 24 5 18 2 -7 2 -21 0 -30z m2173
-15 c0 -30 -1 -31 -17 -16 -13 14 -14 20 -3 32 18 22 20 20 20 -16z m-3435 2
c14 -6 1 -9 -43 -9 -40 -1 -61 3 -57 9 7 12 72 12 100 0z m1068 -14 c6 -14
-19 -26 -56 -26 -26 0 -16 23 14 31 36 10 36 10 42 -5z m47 4 c0 -5 -4 -10
-10 -10 -5 0 -10 5 -10 10 0 6 5 10 10 10 6 0 10 -4 10 -10z m132 -24 c7 -11
-15 -25 -42 -25 -10 1 -11 2 -2 6 6 2 12 11 12 18 0 7 -6 16 -12 19 -7 3 -2 3
12 0 14 -4 28 -12 32 -18z m78 20 c0 -2 -8 -10 -17 -17 -16 -13 -17 -12 -4 4
13 16 21 21 21 13z m866 -27 c19 -22 19 -22 -6 -14 -32 9 -33 11 -25 24 8 15
9 14 31 -10z m149 12 c3 -6 -4 -15 -15 -21 -11 -6 -20 -17 -20 -25 0 -8 -7
-15 -15 -15 -31 0 -28 -30 6 -60 18 -17 30 -30 27 -30 -4 0 -13 -3 -22 -6 -10
-4 -16 -1 -16 8 0 22 -49 42 -66 27 -21 -18 -17 -36 11 -43 29 -7 32 -18 10
-36 -10 -8 -15 -9 -15 -1 0 6 -12 18 -26 27 -23 16 -27 16 -41 1 -13 -13 -14
-19 -3 -31 10 -13 10 -16 -4 -16 -9 0 -16 5 -16 10 0 16 -36 12 -50 -5 -8 -9
-21 -13 -32 -10 -22 8 -91 -32 -85 -49 4 -12 40 -13 175 -1 76 7 96 12 105 27
7 11 38 32 70 48 31 15 63 32 70 38 6 5 30 15 52 22 22 7 51 19 63 27 20 12
29 12 53 3 l29 -13 -27 -14 c-14 -7 -32 -12 -39 -9 -23 9 -35 -19 -18 -43 19
-26 8 -44 -10 -18 -8 10 -25 16 -42 16 -36 -2 -114 -35 -114 -49 0 -6 -7 -10
-15 -10 -9 0 -19 -10 -24 -23 -8 -20 -15 -23 -53 -20 -23 1 -53 5 -64 8 -27 6
-40 -9 -49 -57 -8 -41 8 -57 43 -43 9 4 26 8 37 9 12 1 21 11 25 26 l6 25 6
-23 c9 -34 42 -25 46 11 l3 28 24 -25 c38 -41 135 -27 167 23 18 29 50 26 86
-9 18 -16 40 -31 49 -31 10 -1 -4 -5 -32 -10 -40 -6 -53 -5 -68 9 -18 16 -20
16 -37 -6 -10 -12 -28 -22 -40 -22 -12 0 -19 -4 -16 -9 4 -5 -12 -12 -35 -16
-31 -5 -45 -3 -59 10 -16 15 -23 15 -55 4 -20 -8 -41 -19 -46 -25 -7 -9 -20
-10 -42 -3 -18 5 -46 9 -63 9 -40 0 -45 6 -28 38 8 15 14 39 14 55 0 34 -30
37 -61 6 -16 -16 -27 -19 -47 -13 -30 9 -41 11 -59 13 -7 0 -13 11 -13 23 0
12 -14 36 -31 54 -30 31 -32 61 -4 50 7 -2 16 2 19 10 10 25 23 7 18 -24 -2
-16 1 -33 7 -37 7 -3 42 5 79 20 78 30 209 133 225 175 14 37 76 65 92 41z
m-2325 -22 c0 -5 -27 -9 -60 -9 -41 0 -60 4 -60 13 0 8 17 11 60 9 33 -2 60
-8 60 -13z m1420 12 c0 -5 -7 -14 -15 -21 -16 -14 -18 -10 -9 14 6 17 24 22
24 7z m1480 -1 c0 -5 -5 -10 -11 -10 -5 0 -7 5 -4 10 3 6 8 10 11 10 2 0 4 -4
4 -10z m-1380 -10 c0 -5 -2 -10 -4 -10 -3 0 -8 5 -11 10 -3 6 -1 10 4 10 6 0
11 -4 11 -10z m1896 -57 c-11 -11 -19 6 -11 24 8 17 8 17 12 0 3 -10 2 -21 -1
-24z m-3424 5 c-5 -5 -20 -8 -33 -6 l-24 5 25 10 c28 12 47 6 32 -9z m954 -15
c-11 -11 -19 6 -11 24 8 17 8 17 12 0 3 -10 2 -21 -1 -24z m152 20 c27 -16 28
-19 19 -55 -11 -44 -29 -52 -21 -9 6 27 3 31 -32 46 -25 10 -40 12 -42 5 -2
-5 -8 -10 -13 -10 -16 0 1 21 25 30 29 12 31 12 64 -7z m361 -4 c-16 -10 -23
-4 -14 10 3 6 11 8 17 5 6 -4 5 -9 -3 -15z m667 6 c14 -13 12 -15 -15 -15 -21
0 -32 -6 -36 -20 -7 -21 -16 -25 -29 -13 -6 6 48 63 60 63 3 0 12 -7 20 -15z
m-2210 -6 c3 -6 1 -16 -5 -22 -9 -9 -14 -8 -21 3 -9 15 -4 30 10 30 5 0 12 -5
16 -11z m188 -55 c4 -32 15 -67 26 -82 20 -25 26 -78 12 -97 -8 -12 -58 -45
-67 -45 -3 0 -19 14 -35 30 -33 34 -39 73 -15 107 8 12 12 28 9 36 -3 8 -1 18
5 22 21 12 11 25 -15 19 -23 -6 -25 -5 -16 12 5 11 8 27 6 38 -2 14 0 16 9 7
16 -16 44 -14 51 5 11 27 23 6 30 -52z m1091 24 c-11 -54 -16 -68 -25 -68 -17
0 -21 20 -10 60 14 51 45 58 35 8z m1225 22 c18 -12 2 -12 -25 0 -13 6 -15 9
-5 9 8 0 22 -4 30 -9z m-974 -87 c8 -3 14 -11 14 -19 0 -8 7 -14 15 -14 9 0
18 -7 21 -15 4 -8 13 -15 22 -15 8 0 13 -3 9 -6 -3 -3 -22 0 -41 7 -24 9 -36
19 -36 32 0 10 -9 21 -19 24 -23 6 -33 50 -17 75 9 16 11 13 14 -22 2 -24 9
-43 18 -47z m-1076 60 c0 -5 -4 -15 -10 -23 -11 -18 -25 -7 -17 15 6 15 27 21
27 8z m-573 -25 c-3 -8 -6 -5 -6 6 -1 11 2 17 5 13 3 -3 4 -12 1 -19z m67 -3
c27 -14 60 -25 73 -25 14 0 23 -6 23 -16 0 -12 -10 -15 -47 -13 -27 2 -57 8
-68 13 -11 6 -21 11 -22 11 -1 0 -4 12 -8 28 -4 15 -6 27 -4 27 2 0 26 -11 53
-25z m1662 0 c8 -13 30 -34 47 -45 29 -19 29 -21 7 -15 -14 4 -34 9 -45 12
-18 4 -45 43 -45 65 0 16 20 7 36 -17z m1116 3 c-7 -7 -12 -8 -12 -2 0 14 12
26 19 19 2 -3 -1 -11 -7 -17z m766 -19 c-18 -12 -23 8 -6 28 12 15 13 15 16
-2 2 -10 -2 -21 -10 -26z m-2472 -17 c-11 -10 -15 4 -8 28 l7 25 3 -23 c2 -13
1 -26 -2 -30z m1068 6 c-9 -14 -23 2 -17 18 4 12 8 13 14 3 4 -7 5 -17 3 -21z
m-1685 -9 c-19 -12 -24 -2 -8 17 9 11 14 13 17 4 3 -7 -2 -16 -9 -21z m2536
21 c3 -5 -1 -10 -9 -10 -9 0 -16 5 -16 10 0 6 4 10 9 10 6 0 13 -4 16 -10z
m-2645 -36 c0 -15 -25 -36 -33 -27 -4 3 -7 19 -7 35 0 26 2 27 20 16 11 -7 20
-18 20 -24z m1437 5 c6 -6 38 -17 70 -23 59 -12 79 -34 26 -28 -16 2 -42 -2
-58 -8 -25 -10 -32 -8 -53 14 -15 15 -22 31 -19 40 7 19 19 20 34 5z m967 -4
c-18 -14 -18 -15 11 -38 25 -21 27 -27 17 -40 -22 -27 -46 -14 -53 29 -8 49
-2 64 24 64 20 0 20 0 1 -15z m-2324 -15 c0 -5 -5 -10 -11 -10 -5 0 -7 5 -4
10 3 6 8 10 11 10 2 0 4 -4 4 -10z m1007 4 c-3 -3 -12 -4 -19 -1 -8 3 -5 6 6
6 11 1 17 -2 13 -5z m1448 -20 c11 -6 53 -14 93 -17 51 -3 82 -10 100 -24 15
-11 35 -22 45 -26 33 -12 16 -25 -40 -30 -32 -3 -70 -8 -86 -12 -22 -6 -26 -4
-21 8 3 9 13 13 25 10 21 -6 59 26 59 48 0 16 -121 4 -132 -14 -4 -6 -5 -25
-2 -41 5 -21 3 -27 -7 -24 -8 3 -16 18 -17 34 -5 37 -19 54 -45 54 -18 0 -19
-5 -14 -55 3 -30 3 -55 -1 -55 -4 0 -8 19 -10 43 -1 23 -9 47 -18 53 -12 10
-11 12 7 17 17 5 20 11 15 31 -5 21 -3 24 11 19 10 -4 27 -12 38 -19z m-2807
-16 c27 -14 31 -44 5 -33 -10 4 -37 11 -61 15 -24 4 -51 14 -60 23 -15 15 -12
16 39 11 30 -3 64 -10 77 -16z m1228 -5 c-8 -26 3 -37 64 -61 l55 -21 -65 2
c-57 2 -65 4 -65 21 0 26 -51 43 -78 27 -15 -10 -22 -9 -38 5 -25 23 -97 13
-121 -16 -10 -12 -22 -18 -29 -14 -7 4 -18 -1 -25 -11 -8 -10 -17 -16 -20 -12
-11 10 15 35 39 39 14 2 23 11 25 25 4 24 21 27 190 31 66 2 73 0 68 -15z
m-446 -20 c0 -28 -8 -29 -26 -5 -18 23 -17 28 6 28 14 0 20 -7 20 -23z m70 12
c0 -16 -27 -32 -37 -21 -7 7 16 36 28 36 5 0 9 -7 9 -15z m490 5 c0 -5 -7 -10
-16 -10 -8 0 -12 5 -9 10 3 6 10 10 16 10 5 0 9 -4 9 -10z m2140 -4 c0 -16
-18 -31 -27 -22 -8 8 5 36 17 36 5 0 10 -6 10 -14z m-253 -18 c-3 -8 -6 -5 -6
6 -1 11 2 17 5 13 3 -3 4 -12 1 -19z m-2555 -13 c-5 -27 -18 -40 -26 -27 -4 8
20 52 28 52 2 0 1 -11 -2 -25z m718 15 c0 -5 -4 -10 -10 -10 -5 0 -10 5 -10
10 0 6 5 10 10 10 6 0 10 -4 10 -10z m541 -31 c4 -19 9 -56 11 -84 l3 -50 -83
-3 c-60 -2 -84 1 -87 10 -3 7 -6 45 -8 83 l-2 70 70 6 c91 7 88 8 96 -32z
m-221 21 c0 -5 -5 -10 -11 -10 -5 0 -7 5 -4 10 3 6 8 10 11 10 2 0 4 -4 4 -10z
m-980 -10 c0 -5 -7 -10 -15 -10 -8 0 -15 5 -15 10 0 6 7 10 15 10 8 0 15 -4
15 -10z m1723 -5 c4 -8 2 -17 -3 -20 -6 -4 -10 3 -10 14 0 25 6 27 13 6z m756
-12 c17 -15 31 -31 31 -35 0 -12 -52 11 -66 30 -31 40 -9 43 35 5z m-3229 -3
c8 -5 12 -12 9 -15 -9 -8 -89 6 -89 16 0 12 61 11 80 -1z m3500 -46 c0 -60
-14 -65 -24 -8 -6 31 4 64 20 64 2 0 4 -25 4 -56z m-1882 8 c2 -14 -2 -22 -11
-22 -20 0 -26 9 -20 31 7 25 27 19 31 -9z m1684 -2 c5 -32 1 -35 -20 -21 -12
7 -12 12 -1 30 8 11 14 21 15 21 1 0 4 -13 6 -30z m-2425 14 c-3 -3 -12 -4
-19 -1 -8 3 -5 6 6 6 11 1 17 -2 13 -5z m290 -18 c9 -8 9 -17 -2 -36 l-14 -25
-1 33 c0 33 -16 42 -38 20 -15 -15 -26 -4 -18 17 6 17 51 12 73 -9z m-389 -6
c9 -15 19 -19 36 -14 13 3 27 1 30 -5 4 -6 15 -11 24 -11 11 0 23 -13 30 -32
15 -40 11 -43 -21 -18 -30 24 -67 26 -67 4 0 -38 -47 16 -65 74 -8 28 15 30
33 2z m694 -5 c-2 -14 -8 -25 -13 -25 -5 0 -9 11 -9 25 0 14 6 25 14 25 9 0
12 -8 8 -25z m608 -13 l45 -9 -53 -4 c-57 -4 -79 8 -68 37 6 16 7 16 19 0 6
-9 32 -20 57 -24z m1050 30 c0 -5 -6 -16 -13 -26 -13 -18 -14 -18 -20 -2 -4
10 -5 22 -1 27 7 11 34 12 34 1z m-3070 -12 c0 -5 -5 -10 -11 -10 -5 0 -7 5
-4 10 3 6 8 10 11 10 2 0 4 -4 4 -10z m970 -37 c0 -33 -3 -44 -11 -36 -9 9 -3
83 7 83 2 0 4 -21 4 -47z m2030 11 c0 -8 -4 -12 -10 -9 -5 3 -10 13 -10 21 0
8 5 12 10 9 6 -3 10 -13 10 -21z m-3035 -3 c8 -14 -6 -20 -63 -27 -49 -6 -71
4 -57 26 8 13 112 13 120 1z m174 -38 c-9 -10 -9 -17 -1 -25 6 -6 8 -17 5 -24
-3 -8 0 -14 5 -14 6 0 14 17 18 37 11 57 52 88 80 60 8 -8 -16 -116 -27 -123
-15 -9 -18 12 -8 55 9 42 6 62 -8 48 -11 -11 -21 -97 -11 -103 17 -10 7 -43
-18 -63 -31 -24 -36 -21 -86 42 l-32 40 23 18 c23 19 23 20 6 46 -17 25 -17
27 0 39 14 11 22 10 41 -3 19 -12 22 -18 13 -30z m1136 37 c3 -6 -1 -7 -9 -4
-11 4 -16 0 -16 -15 0 -14 6 -21 20 -21 11 0 20 -5 20 -11 0 -7 10 -9 28 -5
15 4 41 9 57 12 17 3 46 9 65 15 34 9 218 13 209 5 -2 -3 -45 -7 -94 -11 -50
-3 -124 -15 -165 -26 -153 -41 -171 -44 -179 -30 -7 11 -25 11 -97 1 -49 -6
-107 -16 -130 -22 -44 -12 -79 -7 -109 17 -19 14 -19 15 8 5 29 -10 141 -4
167 10 21 11 171 15 193 5 11 -4 23 -3 30 4 9 9 7 13 -9 17 -23 6 -48 40 -39
54 8 13 42 13 50 0z m1664 -6 c2 -2 -10 -4 -27 -4 -17 0 -34 -4 -37 -10 -9
-14 -83 -32 -105 -25 -30 9 -13 30 33 42 37 9 125 7 136 -3z m-2615 -133 l5
-86 -41 -18 -42 -17 29 30 c23 24 26 33 17 42 -10 10 -19 9 -43 -5 l-31 -17
23 37 c12 21 29 47 36 58 7 10 16 42 20 70 6 47 7 48 14 21 5 -16 10 -68 13
-115z m2966 109 c0 -5 -2 -10 -4 -10 -3 0 -8 5 -11 10 -3 6 -1 10 4 10 6 0 11
-4 11 -10z m64 -8 c3 -5 24 -7 46 -6 51 3 41 -11 -19 -25 -48 -10 -71 -6 -71
14 0 19 34 32 44 17z m-1195 -56 c11 -13 27 -105 36 -206 3 -36 8 -82 11 -102
4 -30 2 -39 -11 -44 -28 -11 -39 11 -19 40 13 20 14 30 5 39 -8 8 -14 8 -23
-1 -20 -20 -27 -14 -15 13 7 14 15 25 20 25 4 0 7 9 7 19 0 16 -8 20 -37 23
-20 2 -38 8 -40 15 -4 12 41 12 54 0 12 -13 23 -7 23 13 0 11 -7 20 -15 20
-20 0 -19 9 2 32 17 19 16 20 -7 38 -24 18 -24 19 -6 39 20 22 13 46 -11 36
-19 -7 -84 4 -79 14 7 11 94 0 105 -13z m-2149 -11 c14 -36 -14 -95 -45 -95
-19 0 -25 38 -8 44 12 5 13 9 3 21 -10 12 -9 15 5 15 11 0 15 5 12 14 -3 8 -3
17 0 20 12 12 24 5 33 -19z m1568 -95 c-32 -27 -48 -30 -48 -9 0 6 4 8 9 5 12
-8 33 19 29 36 -1 7 6 25 17 39 l20 27 3 -35 c3 -30 -2 -40 -30 -63z m1892 83
c3 -3 -4 -11 -14 -19 -17 -12 -21 -11 -33 4 -12 16 -14 16 -26 0 -8 -10 -21
-15 -34 -12 -28 8 -39 -13 -19 -35 13 -15 14 -20 4 -29 -10 -8 -16 -4 -25 15
-11 23 -9 29 22 60 31 31 37 33 77 27 24 -4 45 -9 48 -11z m-2620 -36 c0 -11
-39 16 -45 31 -3 8 4 6 20 -5 13 -10 25 -21 25 -26z m291 9 c-35 -37 -107 -57
-170 -47 -68 11 -72 17 -14 25 26 3 75 15 108 26 33 10 69 19 79 19 18 1 18
-1 -3 -23z m382 -36 c-8 -29 -33 -12 -33 23 0 29 1 29 19 13 11 -10 17 -25 14
-36z m567 17 c0 -16 -35 -1 -38 16 -3 16 -1 17 17 5 12 -7 21 -17 21 -21z
m1163 -2 c-3 -9 -8 -14 -10 -11 -3 3 -2 9 2 15 9 16 15 13 8 -4z m271 -15 l18
-31 -29 7 c-36 9 -36 9 -28 33 9 29 18 26 39 -9z m-1434 -41 c0 -18 -2 -20
-15 -9 -13 11 -13 15 -3 21 18 12 18 12 18 -12z m1335 1 c4 -6 10 -8 15 -5 5
3 35 -2 67 -11 44 -13 69 -28 111 -70 33 -34 51 -59 46 -66 -4 -7 -4 -10 1 -6
14 13 96 -109 100 -149 1 -21 8 -51 14 -66 15 -39 14 -90 -4 -113 -14 -18 -14
-17 -15 16 -1 63 -25 120 -84 195 -63 81 -108 107 -135 81 -16 -17 -14 -20 51
-99 28 -32 40 -57 45 -92 5 -38 3 -47 -8 -43 -8 3 -15 12 -17 21 -2 9 -34 49
-72 89 -70 74 -90 116 -90 187 0 34 -2 36 -32 20 -18 -10 -19 -9 -13 19 5 25
2 33 -14 42 -26 13 -27 36 -3 49 22 13 29 13 37 1z m-3411 -19 c13 -14 16 -28
11 -50 -6 -29 -9 -31 -44 -27 -21 1 -43 6 -50 10 -15 9 -14 59 1 74 18 18 63
14 82 -7z m161 -11 c-3 -5 -13 -10 -21 -10 -8 0 -12 5 -9 10 3 6 13 10 21 10
8 0 12 -4 9 -10z m1439 1 c3 -5 -5 -11 -19 -13 -20 -4 -23 -3 -14 8 13 16 25
18 33 5z m1743 -23 c-3 -7 -5 -2 -5 12 0 14 2 19 5 13 2 -7 2 -19 0 -25z
m-1849 -26 c2 -18 -1 -32 -7 -32 -6 0 -11 6 -11 13 0 6 -3 23 -7 36 -4 18 -2
23 8 19 8 -2 15 -19 17 -36z m-1193 18 c-3 -5 -16 -15 -28 -21 -19 -9 -19 -8
3 10 28 23 34 26 25 11z m2935 -8 c0 -5 -7 -17 -16 -28 -8 -10 -14 -14 -11 -9
2 6 7 18 10 28 7 17 17 23 17 9z m40 -57 c-7 -13 -11 -43 -9 -69 3 -36 2 -43
-9 -33 -9 10 -10 26 -1 72 5 33 13 69 17 80 6 18 7 18 10 -4 2 -13 -2 -34 -8
-46z m-1677 -44 c-3 -47 -6 -97 -8 -111 -1 -14 -3 -44 -4 -67 -1 -41 -3 -43
-31 -43 -36 0 -37 2 -5 34 30 30 32 62 6 71 -22 7 -18 32 7 51 19 14 7 35 -14
27 -13 -5 -15 -1 -9 18 4 13 16 30 26 37 23 16 25 40 4 48 -25 10 -18 32 9 27
24 -5 24 -6 19 -92z m487 38 c0 -5 -4 -9 -10 -9 -5 0 -10 7 -10 16 0 8 5 12
10 9 6 -3 10 -10 10 -16z m-592 -41 c11 -15 -2 -58 -18 -58 -5 0 -10 16 -10
35 0 36 10 44 28 23z m1712 -3 c0 -9 -6 -12 -15 -9 -8 4 -15 10 -15 15 0 5 7
9 15 9 8 0 15 -7 15 -15z m-1115 -26 c11 -17 -1 -21 -15 -4 -8 9 -8 15 -2 15
6 0 14 -5 17 -11z m5 -75 c0 -22 -2 -25 -15 -14 -12 10 -13 16 -4 26 16 20 19
18 19 -12z m112 -211 l4 -183 -23 0 c-26 0 -31 21 -8 40 19 16 19 29 0 50 -13
14 -12 19 1 45 18 35 4 56 -25 38 -17 -10 -17 -8 -8 32 7 30 16 45 30 49 23 6
17 32 -7 30 -18 -2 -22 26 -5 43 15 15 3 47 -13 37 -8 -5 -9 -2 -5 10 4 10 7
21 7 26 0 5 8 10 18 12 25 5 30 -24 34 -229z m-717 205 c26 -12 36 -42 10 -32
-8 4 -22 1 -30 -6 -13 -11 -15 -8 -15 19 0 35 0 35 35 19z m1890 -7 c-3 -6
-11 -11 -17 -11 -6 0 -6 6 2 15 14 17 26 13 15 -4z m-1878 -111 c-3 -19 -57
-27 -57 -8 0 7 3 23 6 35 6 22 7 22 30 5 13 -9 23 -24 21 -32z m593 12 l0 -26
-16 22 c-8 12 -12 27 -9 32 10 17 25 1 25 -28z m1430 3 c0 -8 -4 -15 -10 -15
-5 0 -10 7 -10 15 0 8 5 15 10 15 6 0 10 -7 10 -15z m170 -34 c17 -32 12 -86
-10 -106 -28 -26 -97 -15 -127 20 -24 27 -30 69 -13 80 16 10 42 -16 35 -33
-7 -20 12 -32 53 -32 39 0 52 22 28 49 -12 13 -13 20 -4 29 17 17 26 15 38 -7z
m-2110 -67 c0 -57 -2 -65 -14 -54 -8 6 -12 18 -9 26 3 8 2 22 -2 32 -6 15 -10
13 -31 -13 -19 -23 -26 -27 -33 -16 -5 8 -16 11 -30 6 -17 -5 -21 -2 -21 14 0
12 7 20 18 20 41 0 70 9 90 29 12 12 24 22 27 22 3 0 5 -30 5 -66z m522 36 c5
-35 -1 -47 -24 -47 -21 0 -24 28 -6 57 18 28 25 25 30 -10z m2038 -14 c0 -14
-4 -28 -10 -31 -6 -4 -10 7 -10 24 0 17 5 31 10 31 6 0 10 -11 10 -24z m-597
-113 c-3 -6 -16 -19 -29 -28 -29 -19 -31 -55 -4 -80 17 -15 20 -31 20 -91 0
-61 -3 -76 -21 -92 -11 -11 -23 -32 -28 -48 -7 -26 -12 -30 -59 -34 -29 -3
-56 -2 -62 4 -5 5 0 29 14 60 12 28 26 65 30 81 4 17 15 53 25 80 41 109 63
186 58 199 -3 8 -3 17 0 20 9 9 61 -57 56 -71z m297 32 c0 -19 -4 -35 -10 -35
-5 0 -10 16 -10 35 0 19 5 35 10 35 6 0 10 -16 10 -35z m-2382 -7 c7 -7 12
-20 12 -29 0 -9 7 -22 15 -29 8 -7 15 -20 15 -28 0 -12 -3 -13 -12 -4 -15 15
-48 16 -48 0 0 -6 7 -20 17 -30 9 -10 11 -18 5 -18 -6 0 -17 -3 -26 -6 -13 -5
-16 2 -16 45 0 38 4 51 14 51 23 0 31 22 13 35 -10 7 -17 15 -17 19 0 10 15 7
28 -6z m656 -80 l7 -47 -33 17 c-30 15 -31 17 -10 20 29 4 29 35 0 54 -14 9
-19 19 -13 27 13 22 42 -19 49 -71z m-543 -172 c-6 -44 -11 -110 -11 -148 0
-60 -2 -68 -19 -68 -23 0 -45 -25 -36 -40 4 -7 16 -10 26 -7 16 4 19 -1 19
-33 0 -20 -3 -58 -6 -84 -7 -45 -9 -48 -65 -77 -65 -32 -110 -40 -89 -14 17
21 5 45 -22 45 -13 0 -32 7 -42 15 -19 15 -19 16 7 43 15 15 27 33 27 40 0 16
15 15 29 -2 9 -11 7 -15 -9 -19 -14 -3 -20 -13 -20 -31 0 -35 31 -35 62 2 12
15 36 33 51 40 40 17 33 48 -10 45 -21 -2 -33 2 -37 13 -4 9 -13 14 -21 10
-10 -4 -15 1 -15 14 0 24 6 24 42 6 26 -14 29 -13 43 7 19 27 19 41 0 57 -8 7
-13 16 -10 20 3 4 -4 18 -14 31 -16 20 -21 21 -35 10 -14 -12 -16 -8 -16 38 0
52 12 65 38 39 9 -9 7 -14 -5 -23 -37 -28 10 -40 67 -18 19 8 27 10 40 12 19
2 10 31 -10 31 -20 0 -20 1 -4 26 13 20 14 28 5 37 -10 9 -17 6 -35 -16 -20
-25 -24 -26 -36 -13 -7 9 -21 16 -32 16 -16 0 -19 6 -16 33 2 26 7 31 23 29
11 -2 25 -12 33 -23 18 -26 28 -24 40 10 7 19 17 29 29 28 10 -1 18 5 18 13 0
8 -8 14 -17 14 -16 -2 -16 1 -2 28 10 19 12 34 6 41 -5 7 -12 22 -16 33 -6 19
-3 21 19 16 16 -3 26 0 27 9 1 8 4 -24 6 -71 2 -47 -2 -121 -7 -164z m2569
229 c0 -8 -4 -15 -10 -15 -5 0 -10 7 -10 15 0 8 5 15 10 15 6 0 10 -7 10 -15z
m-530 -5 c0 -5 -7 -10 -15 -10 -8 0 -15 5 -15 10 0 6 7 10 15 10 8 0 15 -4 15
-10z m50 -5 c0 -8 -4 -15 -9 -15 -13 0 -22 16 -14 24 11 11 23 6 23 -9z m13
-44 c23 -9 28 -16 25 -39 -2 -20 -9 -28 -26 -30 -20 -3 -23 0 -17 17 5 18 3
19 -22 12 -52 -14 -107 -8 -111 12 -7 33 16 46 71 42 29 -1 65 -8 80 -14z
m-1513 -65 c0 -3 -4 -8 -10 -11 -5 -3 -10 -1 -10 4 0 6 5 11 10 11 6 0 10 -2
10 -4z m36 -48 c-22 -12 -20 -49 3 -55 12 -3 21 -17 24 -36 4 -26 0 -36 -21
-54 -22 -18 -24 -24 -13 -37 8 -9 19 -16 26 -16 14 0 25 -31 25 -72 0 -18 -5
-28 -15 -28 -7 0 -19 -8 -24 -17 -10 -17 -10 -16 -10 2 0 11 4 29 8 40 6 15 2
26 -15 42 -29 27 -30 49 -4 88 24 36 25 58 5 75 -20 16 -19 41 3 86 15 33 17
35 20 14 2 -14 -3 -27 -12 -32z m1432 -63 c3 -108 6 -122 27 -105 8 6 19 9 25
5 13 -8 13 -48 -1 -62 -6 -6 -13 -26 -15 -45 -8 -76 -10 -78 -64 -78 -39 0
-52 4 -60 19 -14 26 -13 64 2 79 9 10 9 16 -3 28 -15 14 -13 18 12 44 29 28
29 29 22 120 l-6 92 29 -4 29 -3 3 -90z m-1504 64 c14 -13 4 -18 -26 -12 -16
3 -28 12 -28 20 0 15 35 10 54 -8z m1556 -61 c0 -77 -10 -70 -16 12 -3 42 -2
60 6 55 5 -3 10 -34 10 -67z m-1550 -7 c0 -16 6 -31 13 -34 8 -3 9 -8 1 -16
-7 -8 -19 -2 -44 24 -31 32 -32 35 -12 35 12 0 22 5 22 10 0 6 5 10 10 10 6 0
10 -13 10 -29z m-15 -105 c2 -11 6 -34 9 -51 2 -16 7 -41 12 -55 7 -24 6 -24
-17 4 -16 20 -22 40 -20 62 1 17 -2 35 -8 39 -6 3 -11 13 -11 20 0 22 30 6 35
-19z m995 -15 c15 -30 12 -53 -6 -49 -23 4 -39 32 -31 52 9 22 24 20 37 -3z
m-1684 -46 c19 -10 23 -16 13 -19 -8 -2 -22 -7 -31 -10 -14 -4 -18 0 -18 19 0
29 0 29 36 10z m2533 -19 c9 -10 9 -20 2 -33 -5 -11 -17 -86 -26 -168 -9 -83
-18 -161 -21 -175 -2 -14 -11 -70 -19 -125 -8 -55 -19 -120 -24 -145 -6 -25
-10 -48 -11 -52 0 -4 -13 -14 -29 -22 -16 -9 -31 -24 -34 -36 -3 -12 -13 -20
-26 -20 -31 0 -26 -29 16 -94 48 -73 93 -92 213 -90 47 1 96 3 110 5 31 5 41
-26 10 -34 -23 -6 -28 -27 -6 -27 14 0 26 -21 26 -46 0 -9 -7 -14 -17 -12 -16
3 -18 -9 -21 -119 -2 -80 1 -123 8 -123 5 0 10 8 11 18 0 14 2 14 9 -3 15 -34
12 -56 -7 -53 -17 3 -18 -15 -23 -222 -3 -124 -8 -230 -12 -235 -10 -15 -167
-18 -185 -4 -10 9 -16 10 -21 2 -5 -7 -71 -12 -187 -14 l-180 -3 0 164 c0 116
-3 164 -12 167 -14 5 -25 -80 -20 -162 3 -51 -17 -190 -23 -160 -1 6 -3 416
-3 912 -1 597 1 903 8 903 22 0 31 -17 31 -58 0 -34 5 -47 26 -65 24 -20 27
-30 30 -109 4 -90 16 -118 49 -118 29 0 42 37 46 129 3 74 6 88 28 111 17 18
25 37 25 62 0 20 6 40 13 45 6 4 59 11 117 14 58 3 108 6 111 7 4 1 12 -4 18
-12z m51 -3 c0 -10 -4 -24 -9 -31 -5 -9 -8 -3 -7 17 1 32 16 45 16 14z m-899
-42 c7 -18 6 -22 -5 -18 -16 6 -19 -3 -37 -118 -6 -44 -15 -87 -20 -95 -7 -13
-3 119 5 177 2 13 -3 25 -13 28 -14 6 -14 7 2 16 9 6 17 17 17 25 0 24 42 12
51 -15z m-858 -63 c5 -39 4 -48 -8 -48 -8 0 -15 9 -15 19 0 10 -8 22 -17 26
-16 6 -15 8 5 16 12 4 22 16 22 25 0 31 7 10 13 -38z m-972 2 c-19 -43 -31
-60 -31 -43 0 20 30 83 40 83 5 0 1 -18 -9 -40z m2706 8 c-3 -7 -5 -2 -5 12 0
14 2 19 5 13 2 -7 2 -19 0 -25z m60 10 c-3 -8 -6 -5 -6 6 -1 11 2 17 5 13 3
-3 4 -12 1 -19z m-1905 -10 c20 -16 35 -62 19 -57 -16 6 -56 69 -44 69 5 0 16
-6 25 -12z m1918 -48 c0 -13 -1 -13 -10 0 -5 8 -10 22 -10 30 0 13 1 13 10 0
5 -8 10 -22 10 -30z m-1920 -54 c0 -4 -11 1 -25 10 -14 9 -25 25 -25 36 0 17
4 15 25 -10 14 -17 25 -33 25 -36z m1470 -36 c0 -40 -4 -70 -10 -70 -6 0 -10
30 -10 70 0 40 4 70 10 70 6 0 10 -30 10 -70z m464 55 c3 -8 1 -15 -4 -15 -6
0 -10 7 -10 15 0 8 2 15 4 15 2 0 6 -7 10 -15z m-1781 -13 c16 -18 14 -20 -32
-40 -46 -21 -81 -21 -81 0 0 6 8 7 18 3 35 -13 42 -9 56 38 7 22 19 22 39 -1z
m1674 -39 c-3 -10 -5 -4 -5 12 0 17 2 24 5 18 2 -7 2 -21 0 -30z m171 -130
l-3 -58 -17 82 c-16 78 -16 84 0 113 l17 30 3 -55 c2 -30 2 -81 0 -112z
m-2923 97 c-10 -11 -14 -20 -10 -20 5 0 6 -3 3 -6 -3 -3 -15 0 -27 7 -20 13
-20 14 7 25 40 18 47 16 27 -6z m1138 5 c-4 -15 -36 -12 -41 3 -3 9 3 13 19
10 13 -1 23 -7 22 -13z m1652 -253 c-3 -118 -9 -220 -12 -228 -6 -16 -68 -35
-89 -27 -9 3 -13 12 -9 22 6 14 20 85 60 291 8 42 15 86 15 99 0 13 5 42 12
63 11 38 12 39 21 17 5 -14 6 -118 2 -237z m61 176 c9 -40 18 -84 20 -98 7
-65 26 -181 39 -236 23 -95 23 -94 -41 -94 l-56 0 6 48 c4 26 8 138 9 249 1
112 3 203 4 203 1 0 9 -33 19 -72z m-2750 37 l29 -15 -30 0 c-47 0 -79 11 -63
21 19 12 32 11 64 -6z m969 5 c3 -5 2 -10 -4 -10 -5 0 -13 5 -16 10 -3 6 -2
10 4 10 5 0 13 -4 16 -10z m-1335 -10 c-8 -6 -24 -15 -35 -21 -16 -8 -15 -6 4
10 13 12 28 21 35 21 6 0 4 -5 -4 -10z m1435 -20 c-3 -5 -12 -7 -20 -3 -21 7
-19 13 6 13 11 0 18 -4 14 -10z m-1307 -12 c20 -20 14 -37 -18 -53 -18 -9 -30
-11 -30 -5 0 6 11 16 25 22 27 12 31 23 14 33 -5 4 -18 0 -27 -8 -17 -15 -72
-34 -72 -24 0 9 65 47 81 47 8 0 20 -5 27 -12z m1362 -10 c0 -17 -18 -44 -24
-37 -8 7 5 49 15 49 5 0 9 -6 9 -12z m-1570 -17 c-12 -24 -29 -35 -38 -26 -4
4 4 15 17 26 29 24 34 24 21 0z m1700 -88 c0 -7 -4 -13 -10 -13 -5 0 -10 6
-10 14 0 8 -13 26 -30 39 -16 14 -30 29 -30 32 0 3 18 -9 40 -27 22 -18 40
-39 40 -45z m-1550 41 c0 -15 -45 -131 -62 -159 -10 -16 -18 -43 -18 -59 0
-21 -4 -27 -15 -22 -8 3 -21 -1 -29 -9 -12 -13 -16 -13 -26 0 -12 15 -11 16
38 31 17 5 15 41 -3 48 -8 3 -12 12 -9 21 5 12 10 13 20 4 18 -14 44 -4 44 17
0 12 -7 15 -24 12 -15 -3 -27 0 -30 8 -3 8 6 14 27 16 28 3 32 8 39 43 8 36
21 54 41 55 4 0 7 -3 7 -6z m1483 -38 c17 -13 16 -14 -3 -19 -11 -3 -20 -4
-20 -2 0 2 -3 10 -6 19 -7 19 5 20 29 2z m-1596 -13 c-16 -16 -18 -16 -34 0
-16 16 -15 17 17 17 32 0 33 -1 17 -17z m-202 -3 c-4 -6 -30 -25 -58 -43 -29
-19 -58 -41 -66 -50 -7 -10 -19 -17 -25 -17 -19 1 117 120 137 120 10 0 15 -5
12 -10z m2265 -35 c0 -15 -38 -40 -47 -31 -7 7 26 46 39 46 4 0 8 -7 8 -15z
m-465 -5 c3 -5 1 -10 -4 -10 -6 0 -11 5 -11 10 0 6 2 10 4 10 3 0 8 -4 11 -10z
m69 -19 c3 -5 14 -7 24 -4 14 3 21 -4 30 -35 18 -60 15 -71 -20 -80 -25 -6
-33 -14 -32 -30 0 -14 -5 -22 -16 -22 -26 0 -31 -12 -14 -31 13 -14 13 -21 3
-37 -10 -17 -10 -23 1 -37 7 -9 19 -14 25 -11 12 4 26 -17 39 -58 5 -15 9 -16
21 -6 31 25 5 97 -33 92 -15 -2 -22 2 -22 13 0 11 6 14 23 10 29 -8 50 15 45
47 -2 15 -9 22 -20 20 -11 -2 -18 3 -18 12 0 12 5 13 23 7 30 -11 55 -76 39
-102 -17 -27 -15 -34 14 -48 25 -11 26 -12 9 -31 -16 -18 -16 -20 -2 -26 14
-5 14 -8 4 -19 -8 -7 -22 -15 -33 -17 -10 -2 -18 -11 -18 -21 2 -24 -13 -21
-27 4 -8 15 -14 18 -22 10 -30 -30 -77 3 -60 42 8 17 6 35 -8 72 -24 62 -26
150 -4 141 8 -3 20 0 27 7 7 7 26 20 41 30 21 14 27 25 25 45 -2 19 -8 26 -21
24 -9 -2 -20 4 -23 13 -3 8 -12 15 -20 15 -8 0 -14 5 -14 10 0 12 27 13 34 1z
m-1864 -11 c0 -6 -9 -28 -20 -49 -10 -21 -27 -72 -36 -112 -9 -41 -20 -78 -24
-84 -5 -6 -50 -9 -109 -7 -79 3 -101 6 -101 17 0 8 36 44 80 81 44 36 87 75
95 87 14 20 92 75 108 76 4 1 7 -4 7 -9z m1830 -25 c0 -8 -9 -15 -20 -15 -22
0 -27 15 -7 23 21 9 27 7 27 -8z m-1679 -38 c-5 -5 -18 -6 -28 -2 -10 5 -24 7
-30 6 -7 -1 -13 3 -13 9 0 5 9 10 19 10 11 0 23 5 27 12 5 7 11 5 21 -7 8 -12
10 -22 4 -28z m1910 30 c-1 -12 -15 -9 -19 4 -3 6 1 10 8 8 6 -3 11 -8 11 -12z
m149 -7 c0 -5 -2 -10 -4 -10 -3 0 -8 5 -11 10 -3 6 -1 10 4 10 6 0 11 -4 11
-10z m-2382 -28 c-7 -11 -35 -38 -63 -61 -27 -24 -69 -60 -92 -82 -24 -21 -48
-39 -55 -39 -17 1 193 199 210 200 11 0 11 -3 0 -18z m1994 -17 c0 -5 -5 -11
-11 -13 -6 -2 -11 4 -11 13 0 9 5 15 11 13 6 -2 11 -8 11 -13z m413 5 c3 -5 2
-10 -4 -10 -5 0 -13 5 -16 10 -3 6 -2 10 4 10 5 0 13 -4 16 -10z m-2145 -55
c0 -5 -5 -3 -10 5 -5 8 -10 20 -10 25 0 6 5 3 10 -5 5 -8 10 -19 10 -25z m143
-84 c6 -56 4 -65 -15 -80 -25 -21 -16 -45 13 -38 14 4 24 -3 34 -24 9 -16 12
-29 8 -29 -4 0 -2 -5 5 -12 7 -7 12 -18 12 -25 0 -11 -5 -11 -21 -3 -11 7 -27
9 -36 6 -24 -10 5 -39 33 -33 20 3 22 1 14 -14 -6 -10 -15 -21 -20 -24 -7 -4
-7 -13 0 -25 15 -27 12 -32 -9 -19 -24 16 -48 6 -54 -23 l-4 -23 -8 23 c-6 18
-13 22 -30 18 -40 -10 -58 15 -63 88 -4 59 -3 66 13 60 20 -8 36 12 28 33 -3
8 -14 13 -23 10 -24 -6 -39 45 -32 112 5 54 14 61 43 35 23 -21 39 -10 39 25
0 25 3 27 34 27 l34 -1 5 -64z m1977 19 c0 -5 -2 -10 -4 -10 -3 0 -8 5 -11 10
-3 6 -1 10 4 10 6 0 11 -4 11 -10z m255 0 c8 -13 -35 -13 -55 0 -11 7 -7 10
17 10 17 0 35 -4 38 -10z m165 0 c0 -5 -2 -10 -4 -10 -3 0 -8 5 -11 10 -3 6
-1 10 4 10 6 0 11 -4 11 -10z m-10 -60 c0 -17 -71 -81 -88 -79 -9 1 -29 -4
-45 -11 -21 -10 -30 -11 -39 -2 -7 7 -23 12 -36 12 -48 0 -15 25 42 31 32 4
63 12 69 18 14 14 26 12 -128 16 -71 1 -141 7 -155 13 -19 8 27 11 178 11 124
1 202 -3 202 -9z m730 0 c0 -5 -5 -10 -11 -10 -5 0 -7 5 -4 10 3 6 8 10 11 10
2 0 4 -4 4 -10z m-59 -14 c-17 -20 -6 -36 25 -36 34 0 22 -16 -18 -25 -68 -16
-81 -16 -99 1 -17 15 -23 15 -44 4 -22 -12 -27 -11 -45 5 -25 22 -26 52 -2 57
9 2 57 5 106 7 80 2 88 1 77 -13z m-3384 -22 c8 -23 -9 -69 -27 -69 -9 0 -14
11 -15 30 0 26 -4 30 -25 28 -34 -2 -53 5 -45 17 3 5 29 10 56 10 36 0 51 -4
56 -16z m-147 -59 c0 -8 -6 -15 -14 -15 -20 0 -29 17 -14 23 22 9 28 7 28 -8z
m62 0 c0 -5 -5 -11 -11 -13 -6 -2 -11 4 -11 13 0 9 5 15 11 13 6 -2 11 -8 11
-13z m-225 -87 c-3 -7 -5 -2 -5 12 0 14 2 19 5 13 2 -7 2 -19 0 -25z m303 16
c0 -14 -3 -14 -15 -4 -8 7 -15 14 -15 16 0 2 7 4 15 4 8 0 15 -7 15 -16z m-2
-236 c-2 -104 3 -223 14 -328 10 -91 18 -168 18 -172 0 -4 -7 -5 -15 -2 -11 5
-15 -1 -15 -25 0 -36 17 -41 30 -8 8 20 9 19 9 -9 1 -32 -20 -60 -34 -46 -4 4
-5 -2 -3 -13 2 -11 -11 -51 -29 -90 -19 -40 -33 -85 -33 -107 0 -21 -10 -59
-22 -85 -29 -61 -27 -58 -39 -46 -13 13 -21 940 -9 948 13 8 18 -23 19 -133 1
-113 5 -130 27 -111 12 9 13 30 8 100 -5 64 -4 89 5 90 6 1 16 2 21 3 13 1 30
26 30 44 0 7 -12 24 -26 37 l-27 25 27 0 c39 0 28 24 -15 31 l-34 6 37 2 c43
1 58 19 33 38 -18 12 -18 13 3 13 22 0 22 -1 20 -162z m-561 90 c-3 -8 -6 -5
-6 6 -1 11 2 17 5 13 3 -3 4 -12 1 -19z m373 -5 c0 -19 -3 -24 -10 -17 -6 6
-8 18 -4 27 9 24 14 21 14 -10z m2 -87 c3 -14 1 -31 -3 -38 -6 -8 -9 1 -9 25
0 42 6 48 12 13z m128 14 c0 -5 -4 -10 -10 -10 -5 0 -10 5 -10 10 0 6 5 10 10
10 6 0 10 -4 10 -10z m-496 -73 c4 -19 3 -26 -4 -22 -5 3 -10 18 -10 32 0 32
5 28 14 -10z m4083 -489 c-3 -7 -5 -2 -5 12 0 14 2 19 5 13 2 -7 2 -19 0 -25z
m3 -48 c0 -5 -5 -10 -11 -10 -5 0 -7 5 -4 10 3 6 8 10 11 10 2 0 4 -4 4 -10z
m-740 -30 c0 -5 -10 -10 -22 -10 -19 0 -20 2 -8 10 19 13 30 13 30 0z m517
-49 c3 -9 7 -22 9 -30 3 -11 7 -11 19 -1 10 8 13 21 9 33 -4 14 -2 18 7 15 8
-3 23 -35 33 -71 11 -37 25 -66 30 -64 15 5 20 77 7 90 -18 18 -13 49 6 45 20
-4 41 -64 42 -120 1 -40 16 -57 34 -39 17 17 27 13 27 -9 0 -11 -1 -20 -2 -21
-2 -1 -121 -3 -266 -5 l-262 -5 -10 26 c-6 15 -10 47 -10 71 0 38 -3 45 -17
42 -14 -3 -17 -12 -15 -45 5 -67 -18 -113 -31 -63 -5 21 -26 28 -28 10 -1 -5
-2 -16 -3 -22 -2 -17 -86 -13 -97 4 -5 7 -10 39 -11 71 -1 31 -2 65 -2 74 -1
26 30 30 287 30 213 1 239 -1 244 -16z m217 3 c9 -24 7 -109 -2 -98 -9 10 -32
84 -32 103 0 17 27 13 34 -5z m66 -36 c0 -19 -2 -20 -10 -8 -13 19 -13 30 0
30 6 0 10 -10 10 -22z m-4686 6 c18 -7 22 -49 5 -60 -6 -3 -16 -1 -22 5 -6 6
-19 11 -28 11 -16 0 -32 33 -21 44 7 8 46 8 66 0z m444 -21 c2 -13 8 -23 14
-23 5 0 24 -11 40 -25 36 -31 48 -25 48 22 0 50 12 34 16 -23 2 -28 -2 -57
-12 -76 l-16 -30 -81 6 c-45 3 -116 5 -158 6 l-77 0 2 33 c1 26 -3 32 -19 32
-15 0 -21 -8 -23 -32 -2 -25 -8 -33 -23 -33 -17 0 -19 7 -19 63 0 115 -10 108
159 105 143 -3 146 -3 149 -25z m172 -18 c0 -17 -2 -17 -10 -5 -5 8 -10 24
-10 35 0 17 2 17 10 5 5 -8 10 -24 10 -35z m-530 -46 c0 -67 -3 -80 -16 -77
-18 4 -18 1 -9 88 4 39 11 70 16 70 5 0 9 -36 9 -81z m-253 24 c-3 -10 -5 -2
-5 17 0 19 2 27 5 18 2 -10 2 -26 0 -35z m50 -20 c-3 -10 -5 -4 -5 12 0 17 2
24 5 18 2 -7 2 -21 0 -30z m4797 -27 c-3 -21 -8 -35 -11 -32 -2 2 -1 20 3 40
3 21 8 35 11 32 2 -2 1 -20 -3 -40z m-4847 -28 c-3 -7 -5 -2 -5 12 0 14 2 19
5 13 2 -7 2 -19 0 -25z m40 0 c-3 -7 -5 -2 -5 12 0 14 2 19 5 13 2 -7 2 -19 0
-25z m735 -20 c-7 -7 -12 -8 -12 -2 0 14 12 26 19 19 2 -3 -1 -11 -7 -17z
m-658 -79 c-21 -24 -29 -18 -14 10 6 12 16 19 21 15 6 -4 4 -13 -7 -25z m96
22 c0 -5 -8 -23 -17 -40 -16 -27 -16 -33 -3 -41 19 -12 46 12 62 56 l12 34
158 0 157 0 16 -31 c13 -25 21 -30 40 -25 24 6 32 1 59 -38 18 -27 50 -14 41
16 -6 20 -3 19 19 -7 14 -16 25 -33 26 -38 0 -11 -747 -8 -777 4 -33 12 -28
17 26 22 26 2 47 11 53 20 5 9 14 14 22 11 7 -3 25 0 39 5 20 8 27 18 27 36 0
18 5 25 20 25 11 0 20 -4 20 -9z m648 -112 c-15 -9 -28 -2 -28 15 0 7 -13 25
-30 39 -16 15 -30 33 -30 39 0 7 22 -10 50 -37 33 -33 46 -51 38 -56z m-360
-56 c19 -3 36 -12 39 -20 3 -8 0 -61 -8 -119 l-13 -104 -143 0 -142 0 -3 88
c-2 68 -6 87 -18 87 -8 0 -17 -14 -21 -33 -11 -53 -22 -52 -15 2 3 27 6 62 6
78 l0 29 143 -1 c78 -1 157 -4 175 -7z m112 -48 c0 -19 5 -37 10 -40 17 -11
40 15 40 46 0 15 4 30 9 33 5 4 9 -24 9 -61 -1 -109 0 -113 22 -113 16 0 20 7
22 33 0 17 2 37 3 42 2 6 3 16 4 24 2 20 31 -6 31 -28 0 -32 -31 -109 -51
-127 -25 -22 -40 -9 -48 43 -5 29 -11 38 -26 38 -16 0 -21 -8 -23 -42 -4 -51
-17 -56 -28 -10 -8 32 -6 185 3 200 10 16 23 -6 23 -38z m135 36 c3 -5 1 -12
-5 -16 -5 -3 -10 1 -10 9 0 18 6 21 15 7z m95 0 c0 -9 -24 -21 -41 -21 -5 0
-9 7 -9 15 0 9 9 15 25 15 14 0 25 -4 25 -9z m54 -88 c-17 -41 -34 -64 -34
-46 0 20 30 83 40 83 5 0 2 -17 -6 -37z m-66 -47 c-7 -25 -16 -46 -20 -46 -11
0 -10 14 1 42 5 13 12 32 15 42 13 39 16 7 4 -38z m-651 -48 c-2 -25 -9 -43
-15 -42 -7 1 -21 2 -32 3 -27 2 -25 29 3 33 12 2 26 13 32 26 14 32 17 28 12
-20z m4040 -284 c-3 -3 -12 -4 -19 -1 -8 3 -5 6 6 6 11 1 17 -2 13 -5z m-2098
-28 c-8 -7 -103 -46 -96 -40 18 18 64 43 81 43 11 1 17 -1 15 -3z m-639 -25
c0 -23 -14 -41 -31 -41 -23 0 -24 8 -2 32 17 19 33 24 33 9z m2025 -1 c-3 -5
-12 -10 -20 -10 -8 0 -17 5 -20 10 -4 6 5 10 20 10 15 0 24 -4 20 -10z m-1275
-14 c0 -8 9 -17 19 -21 11 -3 25 -13 32 -21 11 -13 9 -19 -11 -34 -21 -16 -27
-16 -44 -4 -28 19 -59 19 -33 0 25 -19 21 -29 -10 -22 -16 3 -22 3 -15 0 18
-8 15 -27 -4 -20 -9 4 -28 -4 -46 -19 -16 -14 -39 -25 -51 -26 -12 0 -42 -1
-67 -2 -67 -3 -65 22 7 92 45 44 73 61 114 73 70 21 109 22 109 4z m-823 -42
c-3 -3 -12 -4 -19 -1 -8 3 -5 6 6 6 11 1 17 -2 13 -5z"/>
<path d="M3641 7016 c-8 -10 -9 -16 -1 -21 6 -3 8 -11 5 -16 -3 -5 1 -6 9 -3
18 7 22 24 6 24 -5 0 -7 7 -4 15 8 19 0 19 -15 1z"/>
<path d="M3685 7010 c-3 -5 -1 -10 4 -10 6 0 11 5 11 10 0 6 -2 10 -4 10 -3 0
-8 -4 -11 -10z"/>
<path d="M3565 6870 c4 -6 11 -8 16 -5 14 9 11 15 -7 15 -8 0 -12 -5 -9 -10z"/>
<path d="M3510 6769 c0 -5 5 -7 10 -4 6 3 10 8 10 11 0 2 -4 4 -10 4 -5 0 -10
-5 -10 -11z"/>
<path d="M3473 6643 c-7 -2 -13 -12 -13 -21 0 -10 3 -13 8 -7 4 6 13 10 20 10
13 0 18 18 5 21 -4 1 -14 0 -20 -3z"/>
<path d="M3420 6480 c-14 -10 -22 -22 -18 -25 3 -4 16 3 28 15 28 28 22 34
-10 10z"/>
<path d="M2450 6930 c0 -5 13 -10 29 -10 17 0 33 5 36 10 4 6 -8 10 -29 10
-20 0 -36 -4 -36 -10z"/>
<path d="M2495 6810 c3 -5 15 -10 26 -10 10 0 19 5 19 10 0 6 -12 10 -26 10
-14 0 -23 -4 -19 -10z"/>
<path d="M2570 6770 c0 -5 14 -10 30 -10 17 0 30 5 30 10 0 6 -13 10 -30 10
-16 0 -30 -4 -30 -10z"/>
<path d="M2390 6761 c-8 -6 -25 -8 -37 -4 -14 3 -23 1 -23 -6 0 -7 7 -11 16
-9 28 5 27 -19 -1 -26 -30 -8 -23 -28 8 -24 16 2 22 -4 29 -29 6 -23 16 -35
34 -39 24 -6 111 -1 119 8 2 2 1 33 -3 68 l-7 65 -60 3 c-33 1 -67 -2 -75 -7z
m105 -66 c0 -27 -3 -30 -36 -33 -32 -3 -37 0 -41 22 -6 33 10 48 47 44 26 -3
30 -7 30 -33z"/>
<path d="M2175 6740 c-3 -5 1 -10 9 -10 9 0 16 5 16 10 0 6 -4 10 -9 10 -6 0
-13 -4 -16 -10z"/>
<path d="M2240 6740 c0 -5 11 -10 25 -10 14 0 25 5 25 10 0 6 -11 10 -25 10
-14 0 -25 -4 -25 -10z"/>
<path d="M2690 6709 c0 -5 5 -7 10 -4 6 3 10 8 10 11 0 2 -4 4 -10 4 -5 0 -10
-5 -10 -11z"/>
<path d="M2225 6701 c-3 -5 -2 -12 2 -14 12 -8 63 4 63 14 0 12 -57 12 -65 0z"/>
<path d="M2670 6670 c0 -5 5 -10 10 -10 6 0 10 5 10 10 0 6 -4 10 -10 10 -5 0
-10 -4 -10 -10z"/>
<path d="M2243 6663 c-46 -6 -41 -23 6 -23 44 0 71 8 71 21 0 9 -16 9 -77 2z"/>
<path d="M2270 6625 c-8 -2 -32 -6 -52 -10 -58 -9 -48 -29 10 -20 70 10 92 16
92 26 0 9 -19 10 -50 4z"/>
<path d="M2645 6620 c3 -5 10 -10 16 -10 5 0 9 5 9 10 0 6 -7 10 -16 10 -8 0
-12 -4 -9 -10z"/>
<path d="M2750 6475 c0 -8 5 -15 10 -15 6 0 10 7 10 15 0 8 -4 15 -10 15 -5 0
-10 -7 -10 -15z"/>
<path d="M2225 6291 c-6 -11 9 -23 19 -14 9 9 7 23 -3 23 -6 0 -12 -4 -16 -9z"/>
<path d="M2233 6244 c-8 -20 13 -42 27 -28 12 12 3 44 -11 44 -5 0 -12 -7 -16
-16z"/>
<path d="M261 5882 l-23 -17 21 -19 c24 -22 51 -15 51 12 0 33 -24 45 -49 24z"/>
<path d="M1026 5881 c-9 -14 4 -41 19 -41 15 0 28 27 19 41 -3 5 -11 9 -19 9
-8 0 -16 -4 -19 -9z"/>
<path d="M2459 5530 c-9 -5 -20 -22 -23 -36 -14 -53 60 -87 97 -46 24 26 21
47 -9 71 -29 23 -41 25 -65 11z"/>
<path d="M620 5195 c-18 -21 -5 -45 25 -45 14 0 28 7 31 15 7 17 -12 45 -31
45 -7 0 -18 -7 -25 -15z"/>
<path d="M2192 4308 c-16 -16 -15 -58 2 -58 19 0 38 26 34 46 -4 22 -20 28
-36 12z"/>
<path d="M2160 4045 c-13 -15 -7 -45 9 -45 18 0 54 37 47 48 -10 17 -41 15
-56 -3z"/>
<path d="M4280 4220 c-20 -12 -1 -45 26 -45 22 0 32 34 12 46 -17 11 -20 11
-38 -1z"/>
<path d="M4575 4091 c-7 -12 12 -24 25 -16 11 7 4 25 -10 25 -5 0 -11 -4 -15
-9z"/>
<path d="M4534 3946 c-9 -23 7 -38 26 -26 13 8 13 11 -2 26 -16 17 -18 17 -24
0z"/>
<path d="M4220 3770 c0 -11 6 -20 13 -20 19 0 27 10 20 26 -8 21 -33 17 -33
-6z"/>
<path d="M4384 3779 c-3 -6 -2 -15 4 -21 13 -13 32 -2 32 18 0 16 -26 19 -36
3z"/>
<path d="M4404 3657 c-6 -17 2 -37 16 -37 15 0 19 29 5 40 -12 10 -16 9 -21
-3z"/>
<path d="M4305 3641 c-8 -15 3 -31 21 -31 9 0 14 7 12 17 -4 20 -24 28 -33 14z"/>
<path d="M4186 3591 c-11 -16 -4 -761 6 -767 5 -3 12 -3 15 0 3 3 6 177 7 387
1 282 -2 383 -11 386 -6 2 -14 0 -17 -6z"/>
<path d="M4307 3414 c-13 -13 -7 -24 14 -24 11 0 19 5 17 12 -5 14 -22 21 -31
12z"/>
<path d="M4436 3323 c-12 -12 -6 -33 9 -33 8 0 15 6 15 14 0 17 -14 28 -24 19z"/>
<path d="M4247 3213 c-3 -21 -3 -123 -1 -228 2 -104 6 -269 7 -365 2 -102 7
-175 13 -174 14 2 24 73 18 139 -2 33 -6 195 -8 360 -3 174 -8 301 -14 303 -5
1 -12 -14 -15 -35z"/>
<path d="M4676 3004 c2 -218 6 -269 18 -233 7 21 16 439 9 455 -3 8 -10 14
-17 14 -8 0 -11 -62 -10 -236z"/>
<path d="M4746 3182 c-10 -17 -12 -742 -1 -742 20 1 23 55 27 397 2 256 0 347
-9 350 -6 2 -14 0 -17 -5z"/>
<path d="M4562 3108 c6 -18 28 -21 28 -4 0 9 -7 16 -16 16 -9 0 -14 -5 -12
-12z"/>
<path d="M4532 3019 c2 -6 8 -10 13 -10 5 0 11 4 13 10 2 6 -4 11 -13 11 -9 0
-15 -5 -13 -11z"/>
<path d="M4392 2998 c6 -18 28 -21 28 -4 0 9 -7 16 -16 16 -9 0 -14 -5 -12
-12z"/>
<path d="M4400 2896 c0 -9 7 -16 16 -16 9 0 14 5 12 12 -6 18 -28 21 -28 4z"/>
<path d="M4610 2841 c0 -6 5 -13 10 -16 6 -3 10 1 10 9 0 9 -4 16 -10 16 -5 0
-10 -4 -10 -9z"/>
<path d="M4442 2716 c1 -10 8 -17 13 -17 15 1 12 24 -3 29 -9 3 -13 -2 -10
-12z"/>
<path d="M4610 2700 c0 -5 5 -10 10 -10 6 0 10 5 10 10 0 6 -4 10 -10 10 -5 0
-10 -4 -10 -10z"/>
<path d="M4665 2681 c-3 -5 -7 -36 -10 -68 -2 -32 -7 -84 -11 -115 -5 -41 -3
-58 5 -58 6 0 12 12 13 28 2 46 6 75 17 122 13 57 14 100 2 100 -6 0 -12 -4
-16 -9z"/>
<path d="M4337 2674 c-9 -10 4 -34 19 -34 8 0 14 9 14 20 0 19 -19 27 -33 14z"/>
<path d="M4555 2580 c-3 -6 1 -13 10 -16 19 -8 30 0 20 15 -8 14 -22 14 -30 1z"/>
<path d="M4502 2558 c6 -18 28 -21 28 -4 0 9 -7 16 -16 16 -9 0 -14 -5 -12
-12z"/>
<path d="M4375 2550 c-10 -16 16 -43 28 -31 11 11 2 41 -12 41 -5 0 -13 -5
-16 -10z"/>
<path d="M4690 2474 c0 -14 4 -23 10 -19 6 3 10 15 10 26 0 10 -4 19 -10 19
-5 0 -10 -12 -10 -26z"/>
<path d="M4336 2473 c-12 -12 -6 -33 9 -33 8 0 15 6 15 14 0 17 -14 28 -24 19z"/>
<path d="M4500 2470 c0 -5 5 -10 10 -10 6 0 10 5 10 10 0 6 -4 10 -10 10 -5 0
-10 -4 -10 -10z"/>
<path d="M4765 3530 c-9 -28 11 -52 25 -30 6 8 9 21 7 29 -4 23 -25 24 -32 1z"/>
<path d="M3251 3356 c-14 -17 11 -41 34 -32 20 7 19 32 -1 40 -21 8 -20 8 -33
-8z"/>
<path d="M1574 3465 c-9 -14 -20 -22 -25 -19 -5 3 -18 0 -29 -6 -29 -15 -23
-52 10 -60 15 -4 26 -15 30 -30 4 -16 13 -25 25 -25 28 0 31 33 5 60 l-22 23
31 16 c33 17 39 34 19 54 -17 17 -26 15 -44 -13z"/>
<path d="M1545 3216 c-10 -7 -15 -18 -11 -24 9 -15 18 -15 40 1 15 11 16 15 4
25 -11 9 -19 9 -33 -2z"/>
<path d="M1250 2930 c0 -22 4 -40 10 -40 12 0 24 45 16 65 -11 29 -26 15 -26
-25z"/>
<path d="M1248 2758 c-3 -146 1 -329 8 -339 18 -29 23 24 22 216 -1 173 -4
215 -15 215 -10 0 -13 -23 -15 -92z"/>
<path d="M1242 2369 c2 -6 8 -10 13 -10 5 0 11 4 13 10 2 6 -4 11 -13 11 -9 0
-15 -5 -13 -11z"/>
<path d="M4315 2318 c-12 -30 -1 -103 15 -103 12 0 14 11 12 50 -4 53 -17 79
-27 53z"/>
<path d="M4378 2305 c-3 -14 -1 -28 3 -31 15 -9 29 6 29 32 0 32 -26 31 -32
-1z"/>
<path d="M4190 2290 c0 -11 7 -20 15 -20 17 0 18 2 9 24 -9 23 -24 20 -24 -4z"/>
<path d="M4124 2245 c-7 -29 -1 -41 15 -30 14 8 14 55 1 55 -5 0 -12 -11 -16
-25z"/>
<path d="M4600 2225 c0 -10 7 -15 18 -13 21 4 19 22 -2 26 -10 2 -16 -3 -16
-13z"/>
<path d="M512 1838 c-15 -19 -18 -86 -5 -99 20 -20 43 8 43 51 0 42 -21 68
-38 48z"/>
<path d="M2270 1361 c0 -5 9 -11 20 -14 24 -6 27 8 4 17 -21 8 -24 8 -24 -3z"/>
<path d="M145 8771 c-3 -5 -5 -103 -4 -218 2 -323 2 -425 0 -607 -1 -105 2
-173 8 -179 6 -6 12 -9 15 -6 6 7 21 345 19 444 -1 50 -2 199 -2 333 -1 202
-4 242 -16 242 -7 0 -16 -4 -20 -9z"/>
<path d="M340 8771 c0 -18 18 -21 30 -6 10 13 9 15 -9 15 -11 0 -21 -4 -21 -9z"/>
<path d="M408 8738 c-5 -45 5 -70 21 -52 5 5 11 28 14 52 4 36 2 42 -13 42
-14 0 -19 -10 -22 -42z"/>
<path d="M4183 8738 c3 -24 9 -67 12 -95 11 -85 25 -61 25 42 0 90 -1 95 -21
95 -19 0 -21 -4 -16 -42z"/>
<path d="M4311 8748 c-14 -44 -23 -276 -10 -283 5 -4 9 0 10 7 1 7 4 72 8 143
4 72 11 138 15 148 5 10 4 17 -2 17 -6 0 -15 -15 -21 -32z"/>
<path d="M215 8759 c-11 -16 -3 -382 13 -654 8 -130 27 -146 26 -22 -3 478 -8
668 -20 678 -8 7 -14 6 -19 -2z"/>
<path d="M294 8739 c-9 -15 12 -33 30 -26 9 4 16 13 16 22 0 17 -35 21 -46 4z"/>
<path d="M4248 8744 c-11 -10 -10 -134 1 -134 5 0 11 12 14 28 6 34 -6 116
-15 106z"/>
<path d="M4655 8698 c2 -24 7 -125 11 -224 l7 -182 -23 -12 -23 -12 27 -22 27
-21 2 -223 c1 -171 5 -222 14 -222 20 0 21 206 4 405 -6 61 -13 207 -17 325
-3 118 -8 218 -11 223 -12 19 -20 3 -18 -35z"/>
<path d="M4380 8680 c0 -5 5 -10 10 -10 6 0 10 5 10 10 0 6 -4 10 -10 10 -5 0
-10 -4 -10 -10z"/>
<path d="M281 8656 c-8 -10 -8 -16 3 -25 10 -9 16 -8 26 3 12 15 6 36 -9 36
-5 0 -14 -6 -20 -14z"/>
<path d="M2116 8661 c-12 -19 4 -31 44 -31 31 0 43 -6 57 -26 10 -14 28 -38
41 -54 29 -37 28 -53 -8 -104 -33 -49 -46 -56 -100 -56 -21 0 -43 -6 -50 -15
-10 -12 -10 -15 1 -16 73 -5 601 1 610 7 18 11 -19 34 -55 34 -73 0 -76 4 -76
94 0 122 2 126 64 126 47 0 99 20 86 33 -3 3 -141 8 -306 12 -219 5 -303 4
-308 -4z m234 -41 c13 -8 12 -12 -6 -30 -20 -21 -20 -21 -38 -1 -29 32 5 56
44 31z m153 -80 c-1 -47 -2 -95 -2 -106 -1 -16 -9 -23 -32 -26 -24 -4 -37 1
-60 24 -41 41 -46 70 -18 110 40 59 73 89 94 86 18 -3 20 -10 18 -88z m-163
-104 c0 -2 3 -11 6 -20 5 -13 -1 -16 -25 -16 -33 0 -39 8 -19 28 11 11 38 17
38 8z"/>
<path d="M347 8654 c-14 -14 -7 -35 11 -32 9 2 17 10 17 17 0 16 -18 25 -28
15z"/>
<path d="M4475 8610 c-3 -5 -1 -10 4 -10 6 0 11 5 11 10 0 6 -2 10 -4 10 -3 0
-8 -4 -11 -10z"/>
<path d="M286 8501 c-3 -5 1 -14 8 -20 16 -13 32 2 21 19 -8 12 -22 13 -29 1z"/>
<path d="M4380 8500 c0 -5 7 -10 15 -10 8 0 15 5 15 10 0 6 -7 10 -15 10 -8 0
-15 -4 -15 -10z"/>
<path d="M4570 8485 c0 -9 5 -15 11 -13 6 2 11 8 11 13 0 5 -5 11 -11 13 -6 2
-11 -4 -11 -13z"/>
<path d="M4240 8429 c0 -28 4 -39 13 -37 17 6 18 78 1 78 -10 0 -14 -13 -14
-41z"/>
<path d="M4290 8369 c0 -31 4 -48 10 -44 6 3 10 26 10 51 0 24 -4 44 -10 44
-5 0 -10 -23 -10 -51z"/>
<path d="M4485 8411 c-6 -11 9 -23 19 -14 9 9 7 23 -3 23 -6 0 -12 -4 -16 -9z"/>
<path d="M4355 8391 c-6 -11 9 -23 19 -14 9 9 7 23 -3 23 -6 0 -12 -4 -16 -9z"/>
<path d="M325 8320 c-7 -12 2 -30 16 -30 5 0 9 9 9 20 0 21 -15 27 -25 10z"/>
<path d="M4217 8302 c-8 -12 -17 -920 -10 -979 15 -129 23 -27 23 295 0 191 3
422 5 514 4 148 -1 199 -18 170z"/>
<path d="M4270 8160 c0 -47 -3 -120 -5 -162 -3 -46 -1 -79 5 -83 5 -3 10 -3
10 2 7 129 7 290 0 306 -6 15 -9 -4 -10 -63z"/>
<path d="M4380 8180 c0 -5 7 -10 15 -10 8 0 15 5 15 10 0 6 -7 10 -15 10 -8 0
-15 -4 -15 -10z"/>
<path d="M372 8046 c1 -10 8 -17 13 -17 15 1 12 24 -3 29 -9 3 -13 -2 -10 -12z"/>
<path d="M320 8020 c0 -13 5 -20 13 -17 6 2 12 10 12 17 0 7 -6 15 -12 18 -8
2 -13 -5 -13 -18z"/>
<path d="M4595 7970 c-4 -6 -3 -16 3 -22 6 -6 12 -6 17 2 4 6 3 16 -3 22 -6 6
-12 6 -17 -2z"/>
<path d="M4547 7956 c-6 -15 1 -26 15 -26 11 0 10 27 -1 34 -5 3 -11 0 -14 -8z"/>
<path d="M4380 7940 c0 -5 5 -10 10 -10 6 0 10 5 10 10 0 6 -4 10 -10 10 -5 0
-10 -4 -10 -10z"/>
<path d="M197 7818 c-9 -32 5 -428 15 -434 4 -3 8 30 9 73 2 166 8 334 14 342
8 14 -5 41 -20 41 -7 0 -15 -10 -18 -22z"/>
<path d="M372 7784 c4 -21 22 -23 26 -1 2 10 -3 17 -13 17 -10 0 -15 -6 -13
-16z"/>
<path d="M4416 7783 c-11 -11 -6 -23 9 -23 8 0 15 4 15 9 0 13 -16 22 -24 14z"/>
<path d="M4290 7715 c0 -8 5 -15 10 -15 6 0 10 7 10 15 0 8 -4 15 -10 15 -5 0
-10 -7 -10 -15z"/>
<path d="M125 7653 c-7 -71 -20 -1032 -16 -1238 2 -110 10 -151 24 -128 3 5 8
293 11 639 3 346 8 666 12 712 6 69 5 82 -8 82 -11 0 -17 -17 -23 -67z"/>
<path d="M4375 7700 c-4 -6 -3 -16 3 -22 6 -6 12 -6 17 2 4 6 3 16 -3 22 -6 6
-12 6 -17 -2z"/>
<path d="M4540 7670 c0 -5 5 -10 10 -10 6 0 10 5 10 10 0 6 -4 10 -10 10 -5 0
-10 -4 -10 -10z"/>
<path d="M4674 7639 c22 -134 28 -777 11 -1105 -5 -107 -5 -153 3 -158 17 -10
20 18 28 234 8 219 8 332 -1 733 -7 285 -11 327 -35 335 -10 4 -11 -5 -6 -39z"/>
<path d="M342 7643 c4 -21 33 -25 33 -3 0 8 -8 16 -18 18 -14 3 -18 -1 -15
-15z"/>
<path d="M4527 7564 c-8 -8 1 -24 14 -24 5 0 9 7 9 15 0 15 -12 20 -23 9z"/>
<path d="M4615 7519 c-10 -15 3 -25 16 -12 7 7 7 13 1 17 -6 3 -14 1 -17 -5z"/>
<path d="M4286 7503 c-11 -11 -6 -23 9 -23 8 0 15 4 15 9 0 13 -16 22 -24 14z"/>
<path d="M393 7444 c-8 -21 13 -42 28 -27 13 13 5 43 -11 43 -6 0 -13 -7 -17
-16z"/>
<path d="M307 7413 c-12 -11 -8 -23 8 -23 8 0 15 7 15 15 0 16 -12 20 -23 8z"/>
<path d="M185 7321 c-8 -14 -8 -271 0 -304 16 -62 23 -17 24 143 0 153 -5 191
-24 161z"/>
<path d="M4220 7105 c0 -55 4 -84 10 -80 6 3 10 39 10 80 0 41 -4 77 -10 80
-6 4 -10 -25 -10 -80z"/>
<path d="M4382 7024 c4 -21 22 -23 26 -1 2 10 -3 17 -13 17 -10 0 -15 -6 -13
-16z"/>
<path d="M4492 6958 c6 -18 28 -21 28 -4 0 9 -7 16 -16 16 -9 0 -14 -5 -12
-12z"/>
<path d="M4320 6936 c0 -8 4 -17 9 -20 11 -7 33 18 24 27 -12 12 -33 7 -33 -7z"/>
<path d="M176 6873 c-9 -30 -5 -849 4 -864 5 -7 11 -11 14 -9 4 5 9 549 7 793
-1 89 -12 123 -25 80z"/>
<path d="M4585 6811 c-6 -11 9 -23 19 -14 9 9 7 23 -3 23 -6 0 -12 -4 -16 -9z"/>
<path d="M4207 6793 c-11 -10 -8 -63 3 -63 14 0 24 50 13 61 -5 5 -12 6 -16 2z"/>
<path d="M4375 6750 c-4 -6 -3 -16 3 -22 6 -6 12 -6 17 2 4 6 3 16 -3 22 -6 6
-12 6 -17 -2z"/>
<path d="M320 6700 c0 -5 5 -10 10 -10 6 0 10 5 10 10 0 6 -4 10 -10 10 -5 0
-10 -4 -10 -10z"/>
<path d="M4490 6635 c0 -8 5 -15 10 -15 6 0 10 7 10 15 0 8 -4 15 -10 15 -5 0
-10 -7 -10 -15z"/>
<path d="M4245 6540 c-10 -16 16 -43 28 -31 11 11 2 41 -12 41 -5 0 -13 -5
-16 -10z"/>
<path d="M4545 6480 c-7 -12 2 -30 16 -30 12 0 12 27 0 35 -5 3 -12 1 -16 -5z"/>
<path d="M4216 6402 c-2 -4 -1 -14 4 -22 7 -11 12 -12 21 -3 6 6 8 16 5 22 -8
13 -23 14 -30 3z"/>
<path d="M4682 6220 c2 -64 7 -104 13 -102 13 3 7 183 -6 197 -6 6 -9 -30 -7
-95z"/>
<path d="M4758 6218 c-3 -86 0 -235 17 -848 3 -124 10 -229 16 -235 11 -11 10
-26 15 175 2 91 -2 210 -8 265 -6 55 -12 188 -13 295 -3 377 -5 440 -14 440
-5 0 -11 -42 -13 -92z"/>
<path d="M4250 6240 c0 -13 5 -20 13 -17 6 2 12 10 12 17 0 7 -6 15 -12 18 -8
2 -13 -5 -13 -18z"/>
<path d="M116 6242 c-7 -13 1 -624 9 -644 4 -10 11 -18 16 -18 14 0 6 663 -8
667 -6 2 -14 0 -17 -5z"/>
<path d="M4630 6210 c0 -5 5 -10 10 -10 6 0 10 5 10 10 0 6 -4 10 -10 10 -5 0
-10 -4 -10 -10z"/>
<path d="M4645 6115 c4 -38 8 -171 11 -295 2 -129 7 -226 13 -228 19 -6 17
179 -4 477 -3 46 -10 91 -16 100 -7 11 -8 -4 -4 -54z"/>
<path d="M4205 6141 c-7 -12 12 -24 25 -16 11 7 4 25 -10 25 -5 0 -11 -4 -15
-9z"/>
<path d="M4208 6010 c-7 -20 4 -150 13 -150 5 0 9 36 9 80 0 44 -4 80 -9 80
-5 0 -11 -4 -13 -10z"/>
<path d="M4708 5875 c-3 -38 -4 -97 -2 -130 8 -115 12 -262 13 -477 1 -120 5
-218 10 -218 4 0 11 18 14 41 6 46 -10 642 -21 769 l-7 85 -7 -70z"/>
<path d="M4210 5698 c-1 -29 -3 -105 -6 -168 -5 -108 2 -150 22 -137 8 4 10
165 5 315 -2 61 -21 52 -21 -10z"/>
<path d="M194 5676 c-9 -23 0 -69 14 -74 8 -2 12 10 12 42 0 44 -15 62 -26 32z"/>
<path d="M4290 5565 c0 -8 5 -15 10 -15 6 0 10 7 10 15 0 8 -4 15 -10 15 -5 0
-10 -7 -10 -15z"/>
<path d="M201 5510 c1 -30 5 -68 9 -85 7 -28 8 -29 10 -5 4 51 -2 125 -11 135
-5 5 -9 -12 -8 -45z"/>
<path d="M4474 5549 c-8 -14 11 -33 25 -25 11 7 4 36 -9 36 -5 0 -12 -5 -16
-11z"/>
<path d="M130 5455 c-10 -12 -11 -56 -4 -213 4 -108 8 -450 9 -759 0 -559 2
-598 33 -579 5 3 8 71 6 163 -2 87 -5 248 -7 358 -3 110 -2 250 2 310 8 124
-8 716 -19 728 -4 4 -13 1 -20 -8z"/>
<path d="M4356 5463 c-11 -11 -6 -23 9 -23 8 0 15 4 15 9 0 13 -16 22 -24 14z"/>
<path d="M4287 5424 c-8 -8 1 -24 14 -24 5 0 9 7 9 15 0 15 -12 20 -23 9z"/>
<path d="M335 5410 c-8 -13 4 -32 16 -25 12 8 12 35 0 35 -6 0 -13 -4 -16 -10z"/>
<path d="M4542 5334 c4 -21 22 -23 26 -1 2 10 -3 17 -13 17 -10 0 -15 -6 -13
-16z"/>
<path d="M4660 5263 c0 -51 5 -95 10 -98 16 -10 15 163 -1 180 -5 5 -9 -26 -9
-82z"/>
<path d="M207 5193 c4 -92 16 -135 27 -102 9 25 -8 192 -20 196 -9 3 -10 -24
-7 -94z"/>
<path d="M4382 5264 c2 -11 11 -20 22 -22 13 -3 17 1 14 14 -2 11 -11 20 -22
22 -13 3 -17 -1 -14 -14z"/>
<path d="M4604 5265 c-9 -23 10 -40 25 -22 9 11 8 17 -4 27 -12 10 -16 9 -21
-5z"/>
<path d="M4325 5250 c-11 -17 5 -32 21 -19 7 6 11 15 8 20 -7 12 -21 11 -29
-1z"/>
<path d="M426 5241 c-3 -5 1 -14 9 -21 12 -10 15 -10 15 3 0 19 -16 31 -24 18z"/>
<path d="M346 5231 c-3 -5 1 -14 8 -20 16 -13 32 2 21 19 -8 12 -22 13 -29 1z"/>
<path d="M4505 5191 c-8 -15 3 -31 21 -31 9 0 14 7 12 17 -4 20 -24 28 -33 14z"/>
<path d="M706 5071 c-3 -5 -6 -74 -6 -153 1 -1023 4 -1198 20 -1198 6 0 10 56
10 148 0 96 4 152 11 159 8 8 9 21 3 40 -5 15 -9 248 -9 517 0 362 -3 490 -12
493 -6 2 -14 0 -17 -6z"/>
<path d="M400 5061 c0 -6 5 -13 10 -16 6 -3 10 1 10 9 0 9 -4 16 -10 16 -5 0
-10 -4 -10 -9z"/>
<path d="M630 4915 c0 -83 3 -105 14 -105 21 0 24 18 18 118 -3 68 -8 92 -18
92 -11 0 -14 -23 -14 -105z"/>
<path d="M4620 4945 c0 -10 7 -15 18 -13 21 4 19 22 -2 26 -10 2 -16 -3 -16
-13z"/>
<path d="M325 4910 c-7 -12 2 -30 16 -30 12 0 12 27 0 35 -5 3 -12 1 -16 -5z"/>
<path d="M4747 4853 c-3 -5 -5 -78 -6 -163 0 -85 -4 -168 -7 -185 -7 -39 5
-120 16 -109 5 5 12 59 15 119 3 61 8 139 11 175 8 103 -9 197 -29 163z"/>
<path d="M432 4811 c2 -7 7 -12 11 -12 12 1 9 15 -3 20 -7 2 -11 -2 -8 -8z"/>
<path d="M260 4790 c0 -11 5 -20 10 -20 6 0 10 9 10 20 0 11 -4 20 -10 20 -5
0 -10 -9 -10 -20z"/>
<path d="M285 4750 c-7 -12 2 -30 16 -30 12 0 12 27 0 35 -5 3 -12 1 -16 -5z"/>
<path d="M565 4740 c-7 -12 2 -30 16 -30 5 0 9 9 9 20 0 21 -15 27 -25 10z"/>
<path d="M654 4726 c-4 -10 -2 -22 4 -28 8 -8 13 -7 18 6 4 10 2 22 -4 28 -8
8 -13 7 -18 -6z"/>
<path d="M4636 4731 c-4 -5 -2 -12 3 -15 5 -4 12 -2 15 3 4 5 2 12 -3 15 -5 4
-12 2 -15 -3z"/>
<path d="M445 4690 c-7 -12 2 -30 16 -30 12 0 12 27 0 35 -5 3 -12 1 -16 -5z"/>
<path d="M235 4640 c-4 -6 -3 -16 3 -22 6 -6 12 -6 17 2 4 6 3 16 -3 22 -6 6
-12 6 -17 -2z"/>
<path d="M332 4606 c1 -10 8 -17 13 -17 15 1 12 24 -3 29 -9 3 -13 -2 -10 -12z"/>
<path d="M615 4560 c-4 -6 -3 -16 3 -22 6 -6 12 -6 17 2 4 6 3 16 -3 22 -6 6
-12 6 -17 -2z"/>
<path d="M4625 4550 c-3 -6 1 -13 10 -16 19 -8 30 0 20 15 -8 14 -22 14 -30 1z"/>
<path d="M205 4483 c-8 -67 -9 -443 0 -451 3 -3 7 -3 10 -1 9 10 16 509 7 509
-6 0 -13 -26 -17 -57z"/>
<path d="M4465 4531 c-8 -15 3 -31 21 -31 9 0 14 7 12 17 -4 20 -24 28 -33 14z"/>
<path d="M635 4469 c-11 -16 -13 -779 -2 -808 7 -21 10 -22 22 -10 17 17 18
59 13 488 -4 321 -9 369 -33 330z"/>
<path d="M4505 4440 c-11 -17 5 -32 21 -19 7 6 11 15 8 20 -7 12 -21 11 -29
-1z"/>
<path d="M4680 4420 c0 -5 5 -10 10 -10 6 0 10 5 10 10 0 6 -4 10 -10 10 -5 0
-10 -4 -10 -10z"/>
<path d="M4590 4385 c0 -10 7 -15 18 -13 21 4 19 22 -2 26 -10 2 -16 -3 -16
-13z"/>
<path d="M395 4130 c-7 -12 2 -30 16 -30 5 0 9 9 9 20 0 21 -15 27 -25 10z"/>
<path d="M437 3973 c-12 -11 -8 -23 8 -23 8 0 15 7 15 15 0 16 -12 20 -23 8z"/>
<path d="M515 3911 c-7 -12 12 -24 25 -16 11 7 4 25 -10 25 -5 0 -11 -4 -15
-9z"/>
<path d="M149 3783 c-10 -131 -4 -1383 6 -1380 6 1 10 75 11 192 1 105 5 258
9 340 5 83 8 265 7 405 -1 140 -2 310 -2 378 0 97 -3 122 -14 122 -9 0 -15
-17 -17 -57z"/>
<path d="M276 3712 c-3 -6 -7 -75 -8 -155 -2 -106 0 -149 10 -158 10 -11 12
-8 14 11 0 14 2 36 3 50 9 108 7 254 -2 257 -6 2 -14 0 -17 -5z"/>
<path d="M648 3404 c-7 -6 1 -276 9 -284 14 -15 20 38 16 149 -4 117 -10 150
-25 135z"/>
<path d="M360 3234 c0 -17 22 -14 28 4 2 7 -3 12 -12 12 -9 0 -16 -7 -16 -16z"/>
<path d="M260 3190 c0 -16 5 -30 10 -30 6 0 10 14 10 30 0 17 -4 30 -10 30 -5
0 -10 -13 -10 -30z"/>
<path d="M492 3131 c2 -7 7 -12 11 -12 12 1 9 15 -3 20 -7 2 -11 -2 -8 -8z"/>
<path d="M420 3100 c0 -5 5 -10 10 -10 6 0 10 5 10 10 0 6 -4 10 -10 10 -5 0
-10 -4 -10 -10z"/>
<path d="M655 3060 c-8 -13 -8 -145 0 -171 4 -11 11 -19 17 -17 15 5 16 190 1
195 -6 2 -14 -1 -18 -7z"/>
<path d="M256 2783 c-7 -154 -3 -199 15 -187 12 7 12 344 0 344 -4 0 -11 -71
-15 -157z"/>
<path d="M535 2870 c-8 -13 4 -32 16 -25 12 8 12 35 0 35 -6 0 -13 -4 -16 -10z"/>
<path d="M382 2841 c4 -13 18 -16 19 -4 0 4 -5 9 -11 12 -7 2 -11 -2 -8 -8z"/>
<path d="M605 2800 c-8 -13 4 -32 16 -25 12 8 12 35 0 35 -6 0 -13 -4 -16 -10z"/>
<path d="M510 2710 c0 -5 5 -10 10 -10 6 0 10 5 10 10 0 6 -4 10 -10 10 -5 0
-10 -4 -10 -10z"/>
<path d="M420 2699 c0 -5 5 -7 10 -4 6 3 10 8 10 11 0 2 -4 4 -10 4 -5 0 -10
-5 -10 -11z"/>
<path d="M665 2621 c-4 -7 -4 -30 0 -52 4 -22 2 -62 -5 -88 -9 -38 -9 -54 0
-71 23 -44 35 -6 32 103 -4 98 -12 132 -27 108z"/>
<path d="M405 2610 c-3 -5 -1 -10 4 -10 6 0 11 5 11 10 0 6 -2 10 -4 10 -3 0
-8 -4 -11 -10z"/>
<path d="M540 2610 c0 -5 5 -10 11 -10 5 0 7 5 4 10 -3 6 -8 10 -11 10 -2 0
-4 -4 -4 -10z"/>
<path d="M617 2553 c-8 -30 -3 -83 8 -83 6 0 11 22 13 50 3 48 -12 70 -21 33z"/>
<path d="M446 2531 c-4 -5 -2 -12 3 -15 5 -4 12 -2 15 3 4 5 2 12 -3 15 -5 4
-12 2 -15 -3z"/>
<path d="M540 2520 c0 -5 5 -10 10 -10 6 0 10 5 10 10 0 6 -4 10 -10 10 -5 0
-10 -4 -10 -10z"/>
<path d="M320 2500 c0 -5 5 -10 10 -10 6 0 10 5 10 10 0 6 -4 10 -10 10 -5 0
-10 -4 -10 -10z"/>
<path d="M717 2444 c-14 -14 -7 -35 11 -32 9 2 17 10 17 17 0 16 -18 25 -28
15z"/>
<path d="M607 2433 c-12 -11 -8 -23 8 -23 8 0 15 7 15 15 0 16 -12 20 -23 8z"/>
<path d="M4655 2128 c-8 -20 21 -68 41 -68 21 0 17 26 -10 57 -21 24 -25 26
-31 11z"/>
<path d="M4555 2121 c-7 -12 12 -24 25 -16 11 7 4 25 -10 25 -5 0 -11 -4 -15
-9z"/>
<path d="M4820 2092 c0 -20 49 -72 67 -72 27 0 21 21 -14 54 -43 40 -53 44
-53 18z"/>
<path d="M4788 1673 c-22 -6 -31 -35 -23 -73 6 -29 6 -29 -44 -36 -94 -12
-103 -50 -15 -62 40 -6 50 -11 52 -28 3 -19 -3 -22 -51 -28 -69 -9 -97 -27
-78 -50 7 -9 25 -16 40 -16 53 0 101 -13 101 -26 0 -10 -13 -14 -39 -14 -53 0
-101 -18 -101 -39 0 -23 19 -41 43 -41 15 0 18 5 14 21 -4 15 1 23 21 30 14 6
37 8 49 4 21 -5 23 -11 23 -64 0 -73 6 -91 32 -91 15 0 19 6 18 28 -1 15 -2
48 -1 75 l1 47 59 0 c75 0 111 13 111 40 0 31 -40 50 -111 53 -87 4 -81 21 9
25 93 4 94 22 2 22 -54 0 -72 4 -77 15 -8 24 -2 26 81 26 58 0 76 4 76 14 0
11 -19 15 -75 17 -44 2 -74 7 -73 13 3 10 15 12 86 14 29 1 42 5 40 13 -3 8
-28 12 -71 13 -81 0 -93 18 -17 26 30 3 65 9 78 13 27 9 29 41 3 56 -19 10
-129 12 -163 3z m102 -33 c0 -5 -16 -10 -35 -10 -19 0 -35 5 -35 10 0 6 16 10
35 10 19 0 35 -4 35 -10z m-124 -229 c-3 -4 -20 -5 -38 -2 l-33 5 30 6 c32 7
48 3 41 -9z m172 -53 c3 -15 -5 -18 -52 -18 -30 0 -58 5 -61 10 -13 21 8 31
58 28 40 -2 53 -7 55 -20z"/>
<path d="M4872 1268 c-8 -8 -9 -15 -1 -25 15 -17 34 -17 48 1 10 12 8 17 -8
25 -24 14 -24 14 -39 -1z"/>
<path d="M2 1092 c-2 -8 -2 -48 2 -90 4 -42 7 -93 6 -113 -1 -35 22 -70 34
-51 8 14 9 82 1 129 -11 61 0 93 31 93 22 0 24 -3 18 -22 -11 -36 -6 -141 8
-149 22 -14 28 1 28 71 0 37 3 75 6 84 10 27 32 18 31 -11 -3 -79 4 -124 18
-130 25 -9 28 2 26 77 -1 38 2 70 7 70 15 0 33 -138 32 -250 -1 -109 7 -137
34 -127 13 5 15 25 11 139 -2 73 -7 159 -11 191 -4 38 -3 57 4 57 17 0 20 -10
26 -113 7 -111 11 -124 33 -105 13 10 15 29 11 98 -5 86 4 136 22 125 5 -3 10
-44 10 -89 0 -61 4 -87 15 -96 27 -22 35 -1 30 78 -6 75 3 111 23 98 5 -3 11
-44 14 -91 5 -88 18 -119 40 -97 8 8 13 46 13 105 0 77 3 92 17 95 25 5 31
-29 29 -170 -1 -132 6 -156 37 -124 14 14 17 39 16 161 -1 142 -1 143 20 136
20 -8 21 -17 24 -129 2 -92 6 -123 18 -133 25 -21 32 1 36 124 4 113 15 155
34 125 5 -7 9 -64 9 -127 0 -67 4 -116 10 -117 25 -9 39 17 43 80 6 88 22 74
22 -19 0 -82 6 -105 25 -105 24 0 29 22 30 147 0 83 4 126 13 135 12 12 15
-10 17 -152 0 -54 9 -70 37 -70 20 0 21 3 15 100 -7 111 -3 130 23 130 20 0
30 -47 35 -162 4 -86 11 -108 37 -108 20 0 20 3 13 134 -5 90 -3 136 4 140 22
14 31 -39 32 -208 2 -183 11 -227 41 -198 10 10 13 61 13 212 0 125 4 201 10
202 15 4 23 -78 24 -237 1 -77 4 -150 7 -162 7 -25 32 -31 39 -10 10 30 12
239 3 305 -8 53 -8 76 1 85 6 6 13 8 17 5 3 -4 8 -80 10 -170 3 -90 7 -169 9
-175 6 -18 42 -16 49 2 3 8 1 87 -4 176 -9 160 -8 179 11 179 15 0 12 -403 -3
-423 -11 -13 -32 -16 -133 -14 l-120 2 -5 50 c-4 42 -8 50 -25 50 -18 0 -20
-6 -19 -52 l2 -53 -58 0 c-53 0 -58 2 -64 25 -9 35 -46 35 -46 -1 0 -21 -4
-25 -22 -22 -18 2 -25 12 -32 46 -11 50 -39 58 -54 15 -10 -28 -10 -28 -11 9
-1 42 -15 56 -38 37 -11 -10 -14 -24 -9 -56 l6 -43 -90 0 -90 0 -2 48 c-1 26
-2 65 -3 86 0 39 -20 61 -30 34 -6 -14 -12 -83 -14 -141 -2 -45 -21 -20 -21
27 0 23 -5 47 -12 54 -8 8 -8 15 0 25 16 19 4 28 -19 14 -15 -10 -19 -24 -19
-74 0 -35 -4 -63 -10 -63 -5 0 -10 14 -10 30 0 57 -52 50 -54 -7 l-1 -28 -75
0 c-114 0 -107 -6 -115 96 -4 49 -11 92 -16 94 -4 3 -15 -5 -24 -19 -13 -20
-15 -36 -7 -90 9 -70 8 -76 -18 -76 -17 0 -40 73 -40 129 0 35 -8 43 -31 30
-15 -8 -19 -21 -19 -62 0 -29 5 -58 12 -65 9 -9 9 -15 0 -24 -21 -21 -14 -46
15 -51 16 -3 1139 -5 2498 -4 l2470 2 3 249 2 249 -71 -7 c-79 -7 -1408 -7
-1509 1 -36 3 -818 6 -1739 6 -1385 2 -1674 0 -1679 -11z m1523 -227 c2 -180
5 -210 18 -213 8 -2 18 2 22 8 4 7 7 102 7 211 -1 115 3 199 8 199 10 0 16
-32 25 -135 6 -68 20 -94 40 -74 6 6 8 51 6 109 -2 58 1 100 6 100 6 0 15 -33
22 -72 20 -121 25 -133 46 -133 14 0 19 6 17 20 -1 11 -5 56 -9 101 l-6 81 29
6 c16 3 32 3 36 1 4 -3 7 -69 8 -147 0 -78 4 -159 9 -180 7 -30 6 -39 -5 -44
-8 -3 -14 -18 -14 -34 0 -26 -3 -29 -35 -29 -32 0 -35 2 -35 30 0 23 -4 30
-20 30 -14 0 -20 -7 -20 -22 0 -43 -12 -49 -99 -47 -77 2 -82 4 -94 28 -7 14
-20 27 -30 29 -13 3 -17 -3 -17 -27 0 -20 -5 -31 -14 -31 -11 0 -14 39 -15
214 -1 200 4 244 26 222 3 -3 7 -66 9 -141 2 -75 6 -140 9 -145 3 -6 15 -10
26 -10 19 0 20 6 18 118 -2 174 0 194 12 190 8 -3 12 -68 14 -213z m435 142
c0 -69 10 -93 34 -84 11 4 16 24 18 73 4 94 26 99 30 7 2 -53 7 -68 19 -71 13
-2 17 10 23 64 8 77 11 85 31 77 11 -4 15 -22 15 -68 0 -71 14 -119 33 -112 8
3 11 25 9 75 -3 71 11 123 29 105 4 -4 13 -48 18 -97 6 -49 15 -94 21 -100 15
-15 34 8 25 31 -4 10 -9 51 -11 90 -3 71 -3 73 22 79 14 4 39 3 56 -2 31 -9
38 -20 52 -86 4 -19 13 -28 25 -28 24 0 32 21 24 62 -6 30 -5 31 21 24 19 -5
28 -2 32 9 8 21 34 19 34 -3 0 -27 21 -44 37 -31 7 7 13 18 13 25 0 8 9 14 20
14 18 0 20 -7 20 -68 0 -74 16 -110 44 -99 14 5 16 19 14 84 l-3 78 28 3 c30
4 31 -1 27 -108 -1 -51 21 -92 40 -74 16 16 24 117 12 153 -11 30 -10 31 17
31 l28 0 5 -135 c3 -75 8 -138 11 -142 4 -3 13 -3 22 0 12 5 15 28 15 137 0
109 3 132 15 137 9 3 19 2 23 -2 4 -3 8 -81 8 -172 2 -167 9 -202 37 -174 8 9
12 59 12 179 0 151 2 167 18 170 16 3 17 -9 16 -161 -1 -137 2 -171 16 -201
18 -38 42 -44 37 -10 -5 32 -2 338 4 357 3 9 15 17 26 17 20 0 20 -5 18 -132
-5 -202 -2 -238 15 -245 9 -3 18 -3 21 0 3 3 7 85 10 182 2 97 6 181 9 186 4
5 17 9 30 9 16 0 25 -7 29 -25 4 -14 4 -30 1 -35 -3 -5 -5 -64 -5 -132 0 -68
-3 -147 -7 -176 l-6 -54 -171 6 c-94 3 -173 5 -174 6 -2 0 -1 17 3 38 4 27 2
42 -7 50 -22 18 -36 0 -40 -47 l-3 -44 -115 -2 c-63 -1 -120 0 -127 2 -6 3
-15 30 -19 60 -4 33 -14 63 -25 74 -11 11 -19 33 -19 54 0 37 8 43 28 23 10
-10 15 -10 21 1 13 21 0 102 -20 122 -11 11 -19 24 -19 30 0 6 -10 9 -22 7
-29 -4 -34 -33 -39 -190 l-4 -123 28 -13 c25 -12 35 -44 15 -43 -5 1 -19 1
-33 1 l-25 0 0 124 c0 129 -7 153 -38 122 -12 -12 -16 -40 -16 -133 l-1 -118
-70 -2 c-38 -1 -73 1 -77 3 -3 2 -3 17 2 33 9 31 -2 57 -18 47 -6 -4 -21 -1
-32 6 -27 17 -42 -3 -37 -48 3 -30 1 -32 -38 -36 -22 -3 -58 -3 -81 0 -54 5
-77 41 -73 115 3 42 0 53 -14 55 -15 3 -16 -5 -10 -87 l6 -91 -50 0 -50 0 1
34 c1 18 7 40 14 48 9 11 9 35 2 99 -11 95 -1 240 17 246 8 3 10 -18 7 -80 -4
-64 -2 -86 9 -95 24 -20 36 7 38 83 3 117 39 146 39 32z m-1118 2 l-9 -44 -8
37 c-8 44 0 77 16 61 7 -7 8 -25 1 -54z m4115 -44 c4 -49 8 -146 8 -215 l0
-125 -105 -1 c-58 0 -152 2 -209 5 l-104 6 3 100 c1 55 3 149 5 208 2 111 7
129 27 109 8 -8 13 -72 16 -193 4 -147 7 -182 19 -186 28 -11 33 22 30 202
l-2 180 25 0 c14 0 24 -4 24 -10 -15 -111 -15 -125 1 -131 27 -11 38 11 39 78
2 55 4 63 21 63 13 0 19 -6 16 -15 -2 -8 -5 -100 -7 -203 -4 -188 -4 -188 17
-185 21 3 22 8 25 163 2 88 7 179 10 202 l5 42 57 3 c31 2 60 1 64 -2 4 -3 10
-45 15 -95z m-1252 24 c0 -50 3 -64 15 -64 10 0 14 9 13 29 -3 46 32 96 68 96
l29 0 0 -89 c0 -88 10 -115 33 -92 5 5 13 41 16 78 7 77 17 73 27 -11 6 -48 4
-59 -11 -70 -15 -11 -19 -32 -23 -120 -5 -113 -1 -106 -54 -110 -8 -1 -12 7
-10 18 6 32 -8 86 -22 86 -21 0 -27 -41 -11 -74 18 -34 14 -42 -13 -27 -20 11
-22 22 -34 166 -2 19 -9 30 -18 30 -12 0 -15 -17 -14 -97 0 -70 -3 -98 -12
-98 -17 0 -24 34 -24 122 0 79 -12 106 -35 75 -11 -15 -13 -124 -3 -182 2 -11
-2 -20 -9 -19 -7 1 -52 2 -99 3 l-86 1 6 34 c4 21 2 37 -5 41 -15 10 -30 -7
-33 -41 -3 -29 -3 -29 -80 -32 -69 -3 -76 -1 -76 16 0 10 3 22 8 26 6 6 11
153 11 329 l0 37 47 0 47 0 -7 -142 c-6 -115 -4 -147 7 -162 23 -31 35 -11 35
61 1 90 11 224 18 234 3 5 16 9 29 9 l24 0 3 -157 c3 -133 5 -158 18 -158 12
0 15 15 17 65 3 94 14 234 20 243 12 20 28 -2 25 -36 -3 -36 23 -107 39 -107
5 0 9 30 9 66 0 68 13 79 24 19 8 -42 19 -50 40 -29 12 12 15 25 10 51 -5 25
-3 38 7 44 26 16 33 3 34 -62z m434 52 c7 -12 6 -67 -4 -171 -18 -184 -15
-220 20 -207 12 5 15 28 15 134 0 135 7 203 21 203 4 0 9 -21 11 -47 2 -39 6
-48 22 -48 16 0 19 9 21 68 1 37 5 71 9 74 4 4 16 -3 27 -14 20 -20 21 -32 21
-187 0 -126 3 -168 14 -177 7 -6 18 -8 24 -4 13 8 13 52 0 60 -6 3 -8 23 -5
43 7 49 14 152 15 227 1 47 3 55 10 37 5 -12 10 -99 11 -192 2 -175 7 -196 39
-147 8 12 18 29 22 37 4 8 7 -3 7 -27 1 -23 4 -49 7 -58 6 -14 -4 -15 -87 -13
-75 2 -94 6 -95 18 -1 8 -2 57 -2 108 -2 83 -4 92 -21 92 -21 0 -33 -22 -25
-43 3 -8 -2 -20 -11 -27 -19 -16 -19 -60 0 -86 38 -51 1 -68 -135 -62 -79 3
-99 18 -62 47 18 13 21 23 16 53 -8 49 -23 60 -54 45 -22 -11 -25 -20 -28 -75
-4 -88 -22 -68 -22 25 0 63 4 81 20 98 20 21 20 24 4 100 -18 86 -9 129 24
123 15 -3 17 -14 14 -84 -2 -59 2 -85 13 -99 13 -17 16 -18 25 -5 5 8 7 23 4
34 -10 31 -5 127 7 142 21 25 27 4 25 -81 -2 -57 1 -89 10 -95 18 -16 26 16
25 102 -2 64 1 78 16 87 23 13 21 14 32 -8z m311 -91 c22 -14 30 -2 30 45 0
24 4 46 9 49 14 9 20 -72 17 -224 -3 -174 -5 -190 -13 -190 -5 0 -7 61 -5 136
4 141 -3 169 -33 144 -11 -9 -15 -32 -15 -88 0 -41 -3 -72 -6 -69 -12 12 -23
181 -16 242 l6 60 6 -48 c3 -27 12 -52 20 -57z"/>
<path d="M1616 802 c-10 -16 6 -101 20 -113 19 -16 26 6 22 67 -2 36 -7 50
-20 52 -9 2 -19 -1 -22 -6z"/>
<path d="M2295 985 c-4 -41 -4 -87 0 -102 4 -16 10 -64 12 -108 2 -44 8 -84
13 -89 14 -14 43 41 36 69 -4 14 -9 85 -12 157 -6 140 -7 148 -29 148 -9 0
-15 -22 -20 -75z"/>
<path d="M2612 818 c-26 -26 -10 -118 20 -118 17 0 19 6 16 62 -3 62 -14 78
-36 56z"/>
<path d="M2701 792 c-10 -19 -4 -70 11 -89 15 -19 38 -3 38 27 0 36 -16 80
-29 80 -6 0 -15 -8 -20 -18z"/>
<path d="M2016 778 c-9 -34 -7 -63 4 -94 10 -25 12 -26 27 -12 12 13 14 28 9
72 -8 58 -28 76 -40 34z"/>
<path d="M4863 853 c2 -190 7 -223 32 -203 9 8 13 53 14 168 1 167 -6 215 -32
220 -14 3 -16 -16 -14 -185z"/>
<path d="M3297 1008 c-13 -10 -17 -33 -19 -110 -3 -95 6 -129 30 -114 14 8 27
215 15 227 -6 6 -16 4 -26 -3z"/>
<path d="M3783 903 c-16 -6 -18 -139 -2 -148 16 -11 19 -3 24 73 4 71 1 83
-22 75z"/>
<path d="M3544 845 c-4 -9 -3 -53 2 -98 7 -66 12 -82 27 -85 16 -3 17 5 15 95
-3 84 -5 98 -21 101 -9 2 -20 -4 -23 -13z"/>
<path d="M3285 708 c4 -24 11 -47 15 -52 14 -14 30 4 30 34 0 42 -10 60 -32
60 -18 0 -19 -4 -13 -42z"/>
<path d="M3467 684 c-14 -14 -7 -35 11 -32 9 2 17 10 17 17 0 16 -18 25 -28
15z"/>
<path d="M804 477 c-19 -11 -18 -51 1 -67 12 -10 21 -10 41 -1 32 14 111 14
120 0 4 -7 9 -42 12 -79 3 -53 0 -76 -17 -115 -21 -47 -21 -48 -61 -42 -63 8
-96 48 -50 60 11 3 20 13 20 22 0 15 -7 17 -46 11 -58 -8 -64 -12 -64 -44 1
-62 67 -98 161 -88 110 11 126 32 135 180 4 58 11 107 15 107 5 1 18 1 29 1
35 0 40 -2 40 -17 0 -20 46 -20 54 1 10 25 7 52 -6 61 -17 11 -366 20 -384 10z"/>
<path d="M1860 479 c-89 -18 -119 -65 -80 -126 20 -33 20 -33 100 -33 73 0 83
-3 105 -25 19 -18 25 -35 25 -68 0 -57 -18 -72 -84 -72 -59 0 -104 27 -136 83
-30 50 -44 36 -47 -45 l-3 -71 108 0 c134 -1 172 9 222 57 35 34 40 43 40 84
0 54 -27 87 -71 87 -14 0 -46 7 -69 15 -23 8 -58 15 -77 15 -37 0 -53 21 -33
45 18 22 114 18 144 -6 32 -25 43 -24 50 7 9 34 -6 49 -47 50 -18 1 -48 4 -67
7 -19 3 -55 2 -80 -4z"/>
<path d="M1225 472 c-11 -12 -4 -30 15 -35 18 -5 20 -14 20 -104 1 -144 29
-199 109 -210 29 -4 49 0 79 17 l40 23 28 -22 c14 -11 33 -21 41 -21 20 0 87
36 102 54 20 24 -10 31 -49 11 -70 -36 -106 21 -97 154 5 73 10 88 29 103 34
25 12 40 -56 36 -57 -3 -74 -16 -40 -32 17 -8 19 -20 18 -119 l-2 -111 -31
-28 c-34 -30 -39 -32 -60 -19 -30 19 -58 259 -31 276 6 3 10 13 10 21 0 11
-14 14 -60 13 -32 -1 -62 -4 -65 -7z"/>
<path d="M2298 473 c-126 -3 -139 -5 -148 -24 -12 -21 -4 -59 14 -71 12 -8 36
9 36 27 0 16 23 25 66 25 l34 0 0 -135 c0 -135 0 -136 -25 -145 -23 -9 -35
-30 -17 -30 4 0 36 -3 72 -5 77 -5 101 4 79 31 -10 12 -15 52 -18 136 -3 103
-1 122 14 139 10 10 28 19 41 19 17 0 24 -8 31 -37 12 -52 36 -49 47 5 6 27 5
47 0 52 -14 14 -67 17 -226 13z"/>
<path d="M2642 461 c-10 -6 -9 -11 4 -21 26 -23 33 -52 35 -170 2 -96 0 -115
-14 -125 -36 -26 -19 -35 57 -31 41 2 79 7 85 10 6 4 3 19 -9 39 -17 29 -20
51 -18 166 l2 132 -65 4 c-35 3 -70 1 -77 -4z"/>
<path d="M3010 448 c-100 -52 -119 -138 -51 -239 40 -58 85 -82 166 -86 77 -4
166 14 173 36 4 11 -4 12 -44 5 -27 -5 -71 -8 -98 -7 -43 2 -55 7 -90 43 -39
38 -41 43 -41 100 1 48 5 64 24 84 50 53 131 55 131 3 0 -13 6 -32 14 -42 21
-30 41 -5 44 54 3 63 -10 71 -110 71 -57 0 -84 -5 -118 -22z"/>
<path d="M3380 440 c0 -12 9 -24 21 -29 20 -7 22 -16 26 -120 4 -107 4 -112
-19 -131 -38 -31 -12 -40 137 -47 l137 -6 39 44 c21 24 39 47 39 52 0 16 -35
6 -59 -17 -23 -22 -36 -25 -104 -27 -43 -1 -83 3 -88 8 -17 17 -7 104 13 117
14 9 21 6 34 -13 15 -20 19 -22 28 -9 6 8 9 38 8 67 -4 47 -6 52 -26 49 -15
-2 -21 -10 -21 -28 0 -15 -6 -26 -17 -28 -15 -3 -18 4 -18 37 0 47 3 49 68 57
44 4 52 2 66 -17 13 -19 17 -20 31 -9 9 8 15 25 13 39 l-3 26 -152 3 c-149 2
-153 2 -153 -18z"/>
<path d="M4080 185 c-10 -12 -9 -20 4 -40 18 -28 43 -32 71 -11 17 12 18 18 7
40 -13 30 -61 36 -82 11z"/>
</g>
</svg>
