<?xml version="1.0" standalone="no"?>
<!DOCTYPE svg PUBLIC "-//W3C//DTD SVG 20010904//EN"
 "http://www.w3.org/TR/2001/REC-SVG-20010904/DTD/svg10.dtd">
<svg version="1.0" xmlns="http://www.w3.org/2000/svg"
 width="500.000000pt" height="878.000000pt" viewBox="0 0 500.000000 878.000000"
 preserveAspectRatio="xMidYMid meet">
<metadata>
Created by potrace 1.15, written by Peter Selinger 2001-2017
</metadata>
<g transform="translate(0.000000,878.000000) scale(0.100000,-0.100000)"
fill="#000000" stroke="none">
<path d="M2795 8722 c-2 -2 -149 -6 -327 -8 -178 -3 -329 -7 -335 -9 -17 -6
-17 -41 0 -48 7 -3 32 -3 55 0 36 4 48 0 82 -27 22 -17 40 -40 40 -49 0 -30
-59 -71 -101 -71 -37 0 -57 -20 -43 -42 9 -14 730 -1 756 13 44 24 7 47 -76
48 -37 0 -62 5 -68 13 -4 7 -8 36 -8 65 0 60 4 62 90 61 52 -1 55 0 55 23 0
22 -5 24 -58 29 -32 3 -60 4 -62 2z m-405 -72 c-6 -11 -14 -20 -19 -20 -4 0
-16 9 -26 20 -18 20 -17 20 19 20 34 0 36 -2 26 -20z m171 -34 c3 -26 3 -61 1
-77 -4 -27 -8 -29 -46 -29 -34 0 -48 6 -74 33 l-31 32 45 48 c35 38 50 48 72
45 24 -3 28 -8 33 -52z m127 37 c8 -15 9 -67 3 -121 0 -9 -12 -12 -33 -10 -33
3 -33 4 -36 61 -2 35 2 64 9 73 16 19 46 18 57 -3z m-300 -130 c2 -9 -8 -13
-35 -13 -36 1 -37 1 -18 16 22 17 46 15 53 -3z"/>
<path d="M160 8601 c-5 -11 -10 -29 -10 -40 0 -34 -21 -35 -47 -2 -13 17 -31
31 -39 31 -7 0 -25 -18 -39 -40 l-25 -40 0 -549 0 -548 41 -7 c39 -6 41 -8 34
-34 -3 -15 -22 -43 -40 -62 l-34 -35 0 -515 c1 -283 3 -507 6 -497 2 9 10 17
17 17 7 0 22 9 34 20 18 17 21 28 16 63 -3 23 -15 54 -25 70 -28 39 -14 53 23
22 24 -20 40 -25 71 -23 34 3 42 7 50 31 13 40 2 72 -43 121 -22 24 -40 51
-40 60 0 9 -7 19 -15 21 -50 16 -48 14 -33 37 8 12 21 24 29 26 8 3 11 1 7 -3
-11 -12 19 -63 42 -70 87 -28 103 104 19 156 -41 26 -51 57 -24 79 8 7 18 30
21 51 4 21 10 36 14 34 5 -3 6 -13 3 -24 -2 -10 9 -47 25 -82 25 -53 36 -67
64 -77 80 -28 115 -3 84 60 -20 38 -20 65 -1 98 8 14 14 28 15 32 0 4 -25 31
-55 62 -50 49 -58 54 -89 49 -28 -4 -34 -2 -39 16 -3 14 -16 23 -36 27 -17 4
-31 10 -31 14 0 10 37 22 70 24 21 1 25 6 25 31 0 20 5 30 15 30 11 0 16 -14
18 -51 4 -61 36 -99 93 -109 32 -6 39 -3 58 20 30 39 26 62 -14 99 -26 25 -35
40 -35 65 0 35 -4 36 -54 15 -16 -6 -18 -4 -13 10 4 10 7 24 7 32 0 10 8 12
29 8 22 -5 32 -1 49 21 18 22 24 25 42 15 11 -6 25 -22 30 -36 5 -13 16 -24
24 -24 8 0 23 -11 34 -25 25 -31 42 -32 42 -2 0 13 11 34 25 47 13 12 29 38
35 57 10 28 9 38 -8 66 -11 17 -23 49 -27 69 -6 33 -3 42 24 73 17 20 31 42
31 50 0 11 5 11 31 -2 35 -17 100 -11 137 13 29 19 28 26 -9 77 -38 53 -66 68
-140 74 -52 5 -63 3 -97 -21 -32 -21 -43 -25 -63 -17 -17 7 -19 10 -6 10 10 1
17 9 17 21 0 16 6 20 32 18 23 -2 35 2 42 17 6 11 31 40 55 64 46 46 74 57
171 66 42 4 60 11 75 30 18 22 29 25 91 27 86 2 101 -5 74 -34 -38 -41 -20
-88 33 -88 22 0 28 -4 23 -16 -13 -33 16 -103 58 -144 40 -39 66 -51 66 -30 0
6 25 36 56 66 l56 56 -5 57 c-2 31 -7 65 -11 76 -7 19 -3 20 141 19 81 -1 173
-4 203 -9 30 -4 62 -7 70 -8 8 0 26 -11 40 -24 14 -13 34 -26 45 -30 87 -27
226 -159 229 -216 2 -37 33 -125 53 -148 21 -25 -84 -23 -116 2 -29 23 -94 25
-115 3 -21 -20 -20 -31 2 -38 10 -4 29 -28 41 -56 12 -27 31 -52 42 -55 10 -4
19 -14 19 -23 0 -10 7 -28 16 -40 15 -22 15 -25 -3 -45 -31 -34 -33 -52 -12
-86 10 -17 19 -38 19 -47 0 -11 8 -15 28 -13 15 2 32 0 38 -4 8 -5 11 -73 8
-239 -3 -231 -4 -232 -26 -241 -13 -5 -40 -6 -60 -3 -42 7 -68 0 -68 -19 0 -7
-7 -18 -15 -25 -8 -7 -15 -21 -15 -32 0 -16 5 -19 23 -14 27 6 67 -17 67 -40
0 -8 10 -14 25 -14 30 0 43 -24 25 -45 -10 -12 -10 -18 0 -30 7 -9 23 -43 35
-78 25 -72 25 -151 1 -427 -8 -91 -12 -180 -9 -199 5 -29 3 -32 -13 -28 -51
15 -316 29 -454 24 -175 -6 -227 -19 -299 -77 -56 -45 -81 -95 -81 -160 0 -60
14 -96 67 -176 22 -32 45 -74 51 -92 6 -18 21 -47 34 -65 12 -17 35 -57 50
-89 15 -31 47 -88 71 -125 24 -37 57 -93 72 -123 15 -30 32 -58 37 -61 5 -3 7
-32 3 -65 -5 -51 -3 -66 19 -110 13 -28 37 -59 53 -69 48 -31 71 -61 61 -79
-11 -20 30 -96 63 -120 11 -8 36 -37 54 -65 33 -50 34 -53 30 -143 -2 -54 -10
-108 -19 -129 -11 -28 -13 -45 -6 -70 17 -60 13 -75 -32 -108 -24 -16 -56 -40
-71 -53 -15 -13 -49 -35 -75 -49 -26 -14 -72 -49 -102 -77 -30 -29 -62 -52
-72 -52 -17 0 -169 -65 -271 -116 -27 -13 -57 -24 -67 -24 -11 0 -34 -12 -52
-28 -57 -47 -117 -92 -123 -92 -4 0 -21 -11 -39 -25 -18 -14 -40 -25 -49 -25
-9 0 -30 -19 -47 -42 -34 -46 -41 -118 -15 -152 8 -11 15 -26 15 -34 0 -8 11
-39 26 -69 28 -60 60 -84 132 -103 56 -14 115 -36 162 -60 19 -10 62 -28 95
-41 33 -12 65 -25 70 -29 6 -4 35 -13 65 -19 30 -7 78 -19 105 -26 82 -22 119
-27 145 -17 16 6 44 4 85 -5 33 -8 83 -16 110 -19 151 -14 159 -16 208 -50 56
-39 71 -39 75 -2 3 25 5 25 39 15 20 -6 38 -20 43 -32 4 -11 15 -27 23 -34 33
-26 5 -203 -42 -268 -37 -51 -64 -158 -58 -229 4 -60 18 -94 38 -94 5 0 4 12
-2 27 -5 14 -7 39 -4 55 4 18 3 28 -5 28 -8 0 -9 11 -5 33 16 77 27 107 39
107 8 0 19 7 26 15 7 8 16 15 21 15 5 0 -7 -21 -27 -46 -32 -43 -35 -51 -32
-107 2 -37 8 -62 16 -65 6 -2 12 5 13 15 0 15 2 14 12 -5 8 -18 8 -25 -1 -31
-8 -5 -9 -21 -4 -51 10 -58 30 -64 34 -9 3 42 28 69 28 31 0 -11 -6 -22 -13
-25 -8 -3 -5 -12 10 -29 13 -13 23 -29 23 -36 0 -20 19 -23 40 -5 24 21 25 34
4 75 -9 16 -11 27 -5 23 6 -3 20 -24 32 -46 21 -42 43 -44 33 -4 -4 16 0 30
10 41 16 15 17 13 10 -35 -4 -31 -2 -61 5 -79 8 -19 9 -40 2 -67 l-9 -40 -1
51 c-1 27 -7 59 -15 69 -13 18 -14 17 -29 -6 -9 -13 -19 -37 -23 -53 -6 -25
-4 -28 10 -23 23 9 30 -13 17 -59 -8 -29 -7 -43 3 -59 7 -11 17 -35 20 -53 4
-17 12 -34 17 -37 5 -4 9 -13 9 -21 0 -10 -7 -13 -25 -8 -20 5 -27 1 -36 -20
-7 -14 -19 -26 -28 -26 -14 1 -14 2 1 14 23 17 24 78 2 110 -10 16 -12 26 -5
31 26 15 -2 147 -33 153 -18 4 -32 -39 -21 -65 4 -10 9 -46 11 -79 3 -54 1
-63 -16 -67 -11 -3 -23 -1 -26 4 -10 17 -41 9 -57 -13 -14 -20 -18 -21 -26 -8
-6 8 -11 27 -11 43 0 27 -13 36 -25 16 -8 -13 -45 18 -45 38 0 7 -6 13 -13 13
-22 0 -72 -62 -110 -137 -34 -68 -35 -73 -16 -73 11 0 33 14 49 32 24 26 28
28 23 10 -3 -12 -19 -35 -36 -52 -22 -22 -28 -33 -20 -41 8 -8 24 -4 57 15 26
14 48 26 49 26 6 0 1 -57 -7 -83 -5 -16 -4 -32 2 -40 26 -32 17 -490 -11 -546
-8 -16 -15 -63 -16 -107 -1 -43 -4 -80 -6 -83 -9 -8 -1156 -7 -1395 2 -129 4
-319 10 -422 11 l-188 4 0 -23 0 -22 288 -8 c423 -12 4135 -23 4547 -13 135 3
140 4 143 25 3 19 -2 21 -55 25 -32 2 -155 2 -273 0 -264 -6 -1979 -10 -2000
-5 -12 3 -14 14 -12 44 3 29 8 39 18 35 8 -3 14 1 14 9 0 8 -5 15 -11 15 -8 0
-7 5 2 16 12 14 14 14 20 -3 3 -10 4 -33 1 -52 -4 -28 -2 -33 14 -29 27 5 46
47 38 83 -4 17 -7 62 -6 102 1 57 -2 72 -15 77 -22 9 -32 -3 -37 -44 -2 -19
-4 -39 -5 -43 0 -5 -5 -5 -11 -2 -5 3 -9 48 -9 100 0 52 -3 99 -6 105 -4 6 -2
16 3 23 11 14 12 47 2 47 -4 0 -8 23 -9 51 -2 60 -6 69 -31 69 -19 0 -30 -19
-30 -52 0 -13 -5 -18 -14 -15 -10 4 -15 -4 -18 -24 -5 -32 6 -38 21 -12 10 17
10 17 11 1 0 -10 -4 -18 -9 -18 -5 0 -11 -10 -14 -22 -4 -13 -16 -27 -29 -33
-22 -10 -23 -14 -20 -97 4 -96 -2 -120 -23 -91 -18 23 -48 7 -53 -28 -2 -13
-12 -33 -21 -45 -14 -18 -18 -19 -30 -7 -11 12 -10 17 3 32 15 16 15 19 2 24
-18 7 -10 37 10 37 8 0 11 6 8 15 -4 8 -2 21 4 28 14 17 11 47 -5 47 -7 0 -18
-9 -25 -20 -7 -11 -18 -20 -25 -20 -7 0 -13 -6 -13 -12 0 -9 -3 -8 -9 2 -6 8
-8 17 -5 21 2 4 -4 10 -13 13 -10 3 -27 19 -38 36 -11 16 -27 30 -35 31 -13 0
-13 1 0 6 8 3 19 11 23 17 5 7 6 3 3 -9 -6 -20 -6 -20 9 0 17 21 14 42 -4 37
-17 -3 -13 5 11 28 16 15 24 17 29 8 5 -7 11 -10 14 -6 3 3 -10 22 -30 42 -19
20 -35 45 -35 56 0 11 -4 20 -10 20 -5 0 -10 -9 -10 -20 0 -11 -7 -20 -16 -20
-8 0 -13 4 -10 9 3 5 -1 11 -8 14 -10 4 -16 -2 -19 -16 -4 -20 -4 -20 -5 -2
-1 11 3 27 8 35 9 13 11 13 19 1 8 -12 12 -13 25 -1 17 14 13 49 -8 62 -6 4
-7 10 -3 15 5 4 12 1 16 -6 5 -7 13 -11 19 -7 5 3 10 -6 10 -20 0 -34 9 -41
27 -18 8 10 15 14 15 7 0 -6 -5 -15 -10 -18 -14 -9 -12 -22 3 -28 14 -5 15 -1
18 48 2 33 -27 75 -51 75 -12 0 -17 5 -14 14 3 8 13 12 23 9 11 -3 22 5 31 21
17 33 29 33 22 0 -6 -33 40 -84 70 -76 15 4 18 10 13 26 -10 28 -7 88 4 99 6
6 9 -13 9 -44 -1 -63 9 -107 29 -130 7 -9 13 -20 12 -25 -4 -22 3 -23 22 -5
15 13 22 35 25 65 1 25 6 55 9 67 6 19 9 20 16 6 6 -9 16 -14 25 -10 9 3 24
-4 35 -16 11 -12 34 -24 50 -28 16 -3 29 -12 29 -20 0 -8 -4 -12 -9 -9 -5 3
-11 -1 -15 -9 -3 -8 0 -14 7 -12 8 1 11 -10 10 -33 -7 -140 -2 -255 11 -268
36 -36 48 19 51 228 2 225 4 250 15 250 6 0 10 -4 10 -9 0 -5 4 -21 10 -35 12
-34 40 -24 40 14 0 20 6 31 20 35 14 4 20 15 20 35 0 16 4 30 9 32 16 5 -28
123 -54 148 -24 23 -45 20 -45 -6 0 -8 -4 -12 -10 -9 -5 3 -10 19 -10 35 0 25
4 29 33 32 l32 3 1 70 c0 39 6 97 12 129 6 33 9 77 6 98 -5 25 -2 45 8 60 21
32 36 108 30 149 -7 49 -28 75 -73 93 -25 10 -39 22 -39 34 0 10 -7 27 -15 38
-8 10 -15 29 -15 41 0 12 -12 35 -26 52 -16 19 -26 42 -25 59 1 15 2 47 2 71
l0 43 52 -6 c38 -5 57 -3 72 8 11 8 30 12 42 9 15 -3 25 0 29 11 10 27 24 18
18 -13 -4 -17 -1 -32 6 -36 14 -9 70 13 90 35 8 10 48 27 88 39 47 14 86 34
110 55 44 39 68 48 187 76 50 12 100 28 112 36 12 8 29 14 38 14 8 0 23 4 33
10 9 5 53 26 96 46 44 21 99 50 122 66 23 15 46 28 50 28 14 0 130 113 137
132 3 10 -1 37 -9 60 -8 24 -19 62 -24 85 -14 62 -46 108 -88 128 -20 10 -44
22 -52 27 -8 4 -30 16 -47 25 -25 13 -33 23 -33 44 0 43 -46 74 -137 93 -43 9
-99 21 -126 27 -27 6 -72 8 -107 4 -38 -4 -60 -3 -60 3 0 26 -190 109 -248
109 -30 0 -52 7 -70 22 -15 12 -37 26 -49 32 -16 9 -24 26 -32 73 -23 140 -24
132 5 161 24 24 26 32 21 77 l-6 51 89 86 c96 91 105 110 76 168 -50 100 -80
200 -87 293 -9 106 -18 136 -52 184 -25 36 -23 23 -37 231 -7 114 -7 182 1
237 l11 77 60 -2 c56 -2 63 -5 92 -38 17 -20 41 -39 53 -42 35 -8 122 21 135
46 6 12 14 24 18 27 4 3 22 34 40 68 21 40 43 67 58 73 14 5 45 30 69 54 24
25 48 45 52 45 13 0 88 106 110 156 25 56 26 71 5 135 -19 58 -33 61 -90 22
-21 -14 -73 -43 -114 -64 -41 -21 -106 -64 -144 -96 -37 -32 -78 -66 -90 -76
-30 -24 -119 -47 -188 -47 -53 0 -58 2 -58 23 -1 45 -11 174 -21 262 -6 58 -6
116 0 165 17 133 24 458 12 565 -15 136 -21 177 -27 200 -15 62 -16 115 0 130
15 15 23 90 17 166 -1 14 5 32 14 39 19 16 19 41 0 66 -19 25 -19 31 5 37 15
4 20 14 20 40 0 19 9 45 20 60 11 14 20 36 20 50 0 13 9 32 20 42 11 10 22 34
26 54 3 20 11 41 18 46 11 9 48 131 61 202 4 18 3 52 0 76 -6 38 -12 46 -51
67 -27 15 -39 27 -32 32 7 4 17 3 23 -1 11 -9 193 -23 312 -25 39 -1 74 -4 78
-8 4 -4 -3 -17 -15 -30 -54 -57 -61 -95 -24 -132 21 -22 70 -20 83 2 9 16 11
15 26 -6 19 -27 61 -49 101 -55 27 -3 29 -6 26 -41 -6 -63 53 -104 78 -55 11
20 13 19 57 -17 56 -46 67 -38 83 60 14 89 7 119 -38 157 -21 18 -29 29 -17
25 10 -4 38 -10 61 -13 37 -5 44 -2 54 17 7 13 10 40 7 61 l-5 38 46 7 c31 5
62 2 96 -9 69 -22 114 -26 154 -15 19 5 36 8 38 5 2 -2 -1 -18 -7 -36 -9 -27
-8 -35 6 -51 10 -11 26 -20 37 -20 15 0 16 -3 6 -19 -6 -10 -18 -17 -25 -14
-7 3 -13 0 -13 -6 0 -6 7 -11 15 -11 8 0 15 -9 15 -20 0 -10 4 -29 9 -42 5
-13 12 -34 15 -48 3 -14 15 -40 26 -58 18 -29 23 -32 36 -21 9 7 25 32 36 56
11 24 24 40 30 37 5 -3 27 -28 49 -56 40 -51 40 -51 21 -72 -40 -43 -56 -89
-56 -156 0 -78 16 -114 46 -104 14 4 18 2 14 -5 -8 -13 27 -168 51 -224 12
-29 21 -37 37 -35 17 3 22 14 31 80 11 79 38 129 59 108 6 -6 2 -18 -14 -35
l-24 -26 23 -43 c22 -42 22 -45 6 -76 -14 -27 -15 -39 -4 -82 8 -35 18 -52 30
-55 24 -7 24 -13 -2 -62 -18 -36 -19 -42 -6 -68 29 -55 107 -109 136 -94 24
13 63 -5 59 -26 -3 -15 -13 -17 -61 -15 -54 4 -59 2 -87 -28 -35 -38 -37 -57
-10 -109 11 -22 22 -57 26 -79 9 -59 16 -65 62 -57 30 5 47 16 72 46 l32 40
-16 43 c-21 54 -20 66 2 66 25 0 66 122 76 227 10 106 19 153 27 153 5 0 9
338 9 768 l0 767 -68 -1 c-38 0 -74 -4 -81 -8 -6 -4 -17 -3 -24 2 -23 18 -62
21 -81 6 -26 -18 -46 -18 -46 1 0 23 -26 29 -59 15 -33 -13 -85 -85 -77 -105
3 -8 -9 -26 -25 -40 -24 -19 -42 -25 -82 -26 -29 0 -126 -2 -217 -3 -91 -1
-173 -6 -182 -10 -13 -6 -25 0 -44 23 -14 17 -34 31 -45 31 -17 0 -19 8 -19
59 0 33 -4 62 -9 65 -12 8 -94 -29 -114 -52 -23 -25 -49 -91 -41 -104 4 -6 1
-9 -7 -6 -9 3 -14 20 -14 49 l0 44 -37 -1 c-47 -2 -59 -12 -98 -81 -27 -47
-35 -54 -54 -49 -12 3 -38 1 -56 -4 -24 -7 -36 -6 -41 1 -4 8 -13 8 -25 1 -12
-6 -39 -6 -74 0 -30 5 -134 11 -230 14 -96 2 -205 8 -242 14 -36 5 -92 7 -123
4 -53 -6 -60 -5 -75 17 -17 22 -36 25 -110 19 -8 0 -27 2 -42 6 -18 4 -41 0
-62 -10 -24 -11 -47 -14 -74 -10 -29 4 -49 1 -81 -16 -40 -20 -53 -21 -185
-16 -77 4 -231 9 -341 11 -795 18 -744 15 -834 63 -61 32 -68 33 -104 22 -62
-18 -115 -5 -139 35 -21 36 -94 72 -123 62 -8 -4 -29 -28 -45 -54 -28 -44 -30
-55 -14 -98 3 -6 -11 -15 -30 -21 -39 -12 -56 -3 -56 29 0 10 -13 32 -29 48
-24 23 -38 29 -74 29 -41 0 -47 3 -71 40 -14 22 -26 48 -26 59 0 50 -88 83
-110 42z m84 -101 c25 -38 26 -42 11 -76 l-15 -36 -31 22 c-28 20 -30 26 -24
59 15 85 21 88 59 31z m-150 -21 c-3 -5 2 -6 10 -3 17 6 22 -11 7 -20 -12 -8
-38 25 -38 48 0 18 1 18 13 1 8 -10 11 -22 8 -26z m4581 -10 c0 -15 -7 -25
-18 -27 -22 -4 -33 24 -17 43 18 21 35 13 35 -16z m85 -19 c0 -11 -7 -20 -15
-20 -8 0 -15 9 -15 20 0 11 7 20 15 20 8 0 15 -9 15 -20z m220 -5 c0 -12 -4
-14 -17 -6 -13 7 -32 1 -75 -21 -71 -37 -89 -33 -47 10 28 28 38 32 85 32 42
0 54 -3 54 -15z m-4330 -9 c-7 -7 -14 -6 -21 1 -9 9 -7 12 9 10 14 -1 18 -5
12 -11z m3230 -25 c-5 -11 -15 -23 -22 -27 -6 -4 -9 -3 -6 2 3 5 8 17 11 27 4
9 11 17 17 17 8 0 8 -6 0 -19z m-3579 -39 c-6 -12 -11 -30 -11 -42 0 -29 31
-66 51 -62 13 2 15 -3 12 -22 -4 -17 -10 -23 -22 -19 -14 4 -14 3 -1 -6 13
-10 13 -12 0 -22 -13 -8 -12 -10 3 -7 10 2 18 8 19 13 1 13 31 34 40 29 4 -3
5 -11 1 -19 -3 -9 0 -22 7 -30 13 -16 6 -35 -13 -35 -8 0 -8 3 2 9 21 13 -4
23 -32 12 -13 -5 -27 -19 -30 -31 l-6 -22 -22 21 c-25 23 -39 19 -39 -12 0
-16 -3 -18 -12 -9 -7 7 -20 12 -29 12 -32 0 -107 -38 -112 -57 -3 -12 -5 -8
-6 10 -1 28 -2 28 -46 21 -41 -6 -45 -4 -45 14 0 34 29 43 61 20 34 -26 65
-20 62 10 -2 13 1 21 5 18 5 -3 6 8 4 24 -3 24 0 32 19 39 13 5 18 10 12 10
-7 1 -13 10 -13 21 0 12 -11 31 -25 44 -21 19 -23 25 -10 30 8 3 15 12 15 20
0 10 7 12 23 9 37 -10 47 -23 48 -67 1 -54 12 -87 24 -78 18 13 35 51 41 94 6
43 24 91 31 84 3 -2 0 -13 -6 -24z m349 14 c0 -3 -4 -8 -10 -11 -5 -3 -10 -1
-10 4 0 6 5 11 10 11 6 0 10 -2 10 -4z m4058 -21 c20 -25 42 -33 42 -15 0 6
-5 10 -11 10 -5 0 -7 5 -4 10 9 15 25 2 25 -21 0 -16 -7 -19 -47 -19 -37 0
-44 3 -35 12 20 20 14 38 -12 38 -31 0 -42 -16 -25 -36 10 -13 7 -15 -22 -13
-19 2 -41 -1 -49 -6 -9 -6 -8 -1 3 15 37 54 103 66 135 25z m258 0 c4 -8 3
-22 0 -30 -5 -14 -9 -14 -36 0 -17 9 -35 13 -40 10 -6 -3 -10 -3 -10 0 0 6 58
34 73 35 4 0 10 -7 13 -15z m-4056 -14 c-13 -11 -28 -17 -32 -15 -13 8 15 33
37 33 18 1 18 -1 -5 -18z m2796 -18 c-11 -11 -17 4 -9 23 7 18 8 18 11 1 2
-10 1 -21 -2 -24z m-3612 8 c7 -10 -61 -48 -70 -39 -3 4 -3 16 1 27 4 15 15
21 35 21 16 0 31 -4 34 -9z m642 -18 c-3 -10 -7 -32 -8 -50 -1 -17 -6 -31 -11
-30 -5 1 -12 -4 -15 -12 -3 -10 0 -12 11 -8 9 3 19 2 22 -3 4 -6 2 -10 -3 -10
-12 0 -13 -48 -1 -56 5 -3 6 3 2 12 -5 15 -1 16 31 10 28 -5 38 -3 42 9 7 17
58 47 67 39 8 -8 21 36 21 75 1 19 6 36 12 38 7 2 8 -13 4 -46 -3 -27 -3 -58
1 -69 11 -28 41 -37 56 -16 9 12 25 18 48 17 19 -1 38 3 41 8 3 5 1 9 -3 9 -5
0 -7 16 -5 35 4 34 6 35 36 30 28 -6 177 -15 234 -15 13 0 22 -6 22 -15 0 -8
5 -15 10 -15 6 0 10 9 10 19 0 18 7 20 100 17 55 -2 103 1 106 5 3 5 12 9 21
9 13 0 14 -2 2 -17 -12 -16 -12 -17 1 -7 20 15 100 25 125 15 11 -4 34 -3 51
2 36 11 88 2 79 -13 -4 -6 -11 -7 -17 -4 -7 4 -8 2 -4 -4 4 -7 2 -12 -4 -12
-6 0 -8 -5 -4 -12 5 -8 1 -7 -10 2 -21 16 -96 23 -96 8 0 -6 7 -7 16 -4 12 4
15 2 11 -9 -4 -8 -2 -17 4 -21 6 -3 8 -12 5 -20 -3 -8 -1 -14 4 -14 6 0 10 11
10 24 0 29 16 42 33 28 7 -5 27 -10 46 -10 30 -1 32 0 15 13 -11 8 -14 15 -8
15 6 0 17 -7 24 -15 7 -8 19 -15 26 -15 8 0 14 -7 14 -15 0 -8 3 -15 8 -16 4
0 24 -2 44 -4 21 -2 40 1 44 6 4 6 13 4 25 -7 28 -25 23 -36 -13 -29 -22 4
-29 3 -19 -3 11 -8 11 -14 -3 -33 -9 -13 -16 -19 -16 -14 0 6 -5 3 -10 -5 -9
-13 -12 -13 -20 2 -6 10 -17 15 -26 11 -13 -5 -15 -2 -9 17 6 20 5 22 -11 15
-11 -4 -27 -8 -36 -9 -9 0 -15 -4 -12 -7 2 -4 0 -10 -6 -14 -5 -3 -10 -2 -10
3 0 6 -14 7 -34 2 -30 -6 -36 -4 -47 16 -9 18 -16 21 -25 13 -9 -7 -19 -7 -34
1 -16 9 -25 9 -33 1 -8 -8 -4 -11 16 -11 15 0 27 -6 27 -12 0 -13 -104 -18
-116 -5 -7 7 -29 -12 -35 -32 -4 -10 -8 -9 -19 5 -8 10 -10 15 -3 11 14 -9 27
9 17 24 -4 7 -10 7 -16 1 -7 -7 -15 -6 -25 4 -11 11 -19 11 -35 3 -15 -8 -19
-8 -14 0 5 7 -2 11 -18 11 -14 0 -26 5 -26 10 0 6 5 10 10 10 6 0 10 5 10 10
0 13 -77 13 -85 -1 -4 -6 -1 -10 6 -8 33 4 47 -2 44 -18 -2 -10 -4 -31 -4 -47
-1 -28 -2 -29 -15 -11 -8 11 -12 24 -9 31 5 15 -24 44 -44 44 -8 0 -17 -9 -20
-20 -8 -29 -21 -25 -25 7 -2 18 -10 29 -22 31 -25 5 -38 -10 -46 -55 l-8 -38
-1 43 c-1 35 -5 45 -21 49 -11 3 -20 9 -20 14 0 5 -5 9 -10 9 -6 0 -9 -3 -8
-7 1 -5 -4 -20 -10 -35 -8 -19 -8 -36 -2 -53 7 -20 6 -23 -6 -18 -10 4 -15 18
-14 42 3 53 3 53 -29 37 -32 -17 -58 -71 -38 -80 14 -5 -202 4 -220 10 -7 2
-13 -1 -13 -6 0 -4 -15 -11 -32 -15 -18 -4 -52 -16 -76 -27 -55 -26 -76 -19
-67 22 4 19 2 36 -5 45 -16 19 -25 19 -45 -1 -12 -12 -14 -27 -9 -60 7 -48 -5
-58 -24 -21 -12 23 -12 97 0 97 3 0 4 9 1 20 -4 13 0 20 10 20 8 0 20 6 26 14
9 11 20 12 44 5 18 -5 33 -9 34 -9 2 0 3 9 3 19 0 11 9 22 19 26 14 4 19 15
19 34 -1 27 8 51 18 51 3 0 3 -8 0 -17z m3234 -19 c0 -18 -24 -18 -39 -1 -15
19 7 41 26 26 7 -7 13 -18 13 -25z m-1378 9 c8 -10 18 -26 21 -35 4 -10 13
-18 21 -18 13 0 14 5 5 26 -13 35 -2 45 21 17 9 -12 29 -25 43 -28 20 -5 30
-19 43 -53 10 -26 23 -54 30 -62 7 -8 15 -42 18 -75 4 -42 3 -50 -3 -28 -11
41 -38 83 -54 83 -7 0 -21 16 -31 35 -22 40 -71 74 -116 82 -40 6 -81 44 -66
60 16 18 51 15 68 -4z m-159 0 c-7 -2 -19 -2 -25 0 -7 3 -2 5 12 5 14 0 19 -2
13 -5z m1837 -13 c-8 -5 -28 -10 -45 -10 -39 0 -17 15 27 18 25 2 29 0 18 -8z
m-3920 -10 c0 -5 -8 -10 -17 -10 -15 0 -16 2 -3 10 19 12 20 12 20 0z m1530
-6 c0 -8 -5 -12 -10 -9 -6 4 -8 11 -5 16 9 14 15 11 15 -7z m1863 1 c4 -8 2
-17 -3 -20 -6 -4 -10 -12 -10 -18 0 -7 4 -6 10 3 6 9 10 10 10 3 0 -6 -4 -14
-9 -18 -11 -6 -41 32 -41 52 0 18 37 16 43 -2z m-3123 -28 c0 -7 -4 -7 -12 1
-8 8 -15 9 -25 0 -7 -6 -17 -8 -21 -4 -4 4 2 14 12 22 20 14 46 4 46 -19z
m-131 -17 c-19 -16 -20 -19 -5 -13 13 4 17 3 12 -5 -4 -7 -15 -12 -24 -12 -12
0 -13 -3 -4 -12 13 -13 42 5 42 27 0 7 7 15 15 19 8 3 15 1 15 -5 0 -7 10 -9
25 -5 19 5 23 3 19 -9 -4 -8 -12 -15 -20 -15 -7 0 -17 -8 -23 -17 -6 -12 -21
-17 -46 -16 -33 1 -38 -3 -51 -34 -9 -19 -17 -34 -18 -32 -2 2 -6 25 -9 52 -5
31 -3 47 4 47 6 0 8 -7 5 -16 -3 -8 -2 -12 4 -9 6 3 10 12 10 20 0 7 14 23 30
35 17 12 27 27 24 33 -5 9 -3 9 6 0 11 -10 9 -16 -11 -33z m321 30 c0 -5 -2
-10 -4 -10 -3 0 -8 5 -11 10 -3 6 -1 10 4 10 6 0 11 -4 11 -10z m2104 -21
c-11 -13 -14 -23 -8 -29 14 -14 104 -21 104 -9 0 6 4 8 9 4 5 -3 13 0 17 6 4
8 15 -1 28 -22 23 -38 35 -43 77 -34 19 4 31 16 38 36 10 28 31 41 31 18 0 -5
4 -8 9 -4 10 5 20 -4 45 -39 9 -13 17 -16 27 -10 19 12 32 12 42 -1 5 -6 6 1
3 14 -5 25 8 51 26 51 7 0 7 -4 0 -12 -5 -7 -6 -22 -2 -32 4 -14 9 -16 14 -8
4 7 13 9 19 6 7 -4 9 -4 5 1 -6 7 14 35 25 35 3 0 9 -15 12 -32 4 -18 11 -35
15 -38 5 -3 -85 -5 -198 -5 -114 0 -213 -4 -219 -8 -7 -5 -13 -7 -13 -5 0 3
-19 2 -42 -2 -25 -5 -51 -4 -64 2 -17 8 -27 8 -38 -1 -12 -10 -14 -9 -9 8 3
12 1 21 -6 21 -5 0 -8 7 -5 15 4 8 15 15 25 15 10 0 19 5 19 11 0 11 -25 8
-64 -7 -9 -3 -16 -1 -16 5 0 6 11 11 24 11 13 0 29 6 35 13 8 11 5 16 -15 25
-14 7 -36 12 -49 12 -14 0 -25 3 -25 8 0 4 32 5 71 4 69 -4 70 -4 53 -23z
m2056 22 c0 -5 -6 -14 -14 -21 -12 -9 -15 -8 -13 9 1 20 27 31 27 12z m-2464
-33 c4 -6 3 -8 -3 -5 -6 4 -15 1 -20 -6 -13 -17 -15 -67 -3 -67 6 0 10 4 10 9
0 5 9 7 20 4 17 -5 18 -7 4 -20 -8 -8 -21 -12 -29 -9 -9 3 -15 0 -15 -8 0 -15
-55 -15 -71 1 -14 14 -41 5 -32 -10 4 -6 0 -8 -9 -4 -9 3 -26 -2 -38 -10 -21
-15 -24 -15 -36 2 -24 33 -18 48 17 41 25 -5 30 -3 28 12 -4 46 2 72 17 72 11
0 13 -6 9 -19 -5 -16 -1 -19 15 -18 22 1 27 22 8 30 -8 3 -5 6 5 6 10 1 26 -3
35 -8 12 -6 26 -5 42 5 31 17 37 17 46 2z m1922 2 c7 0 10 -4 7 -10 -4 -6 8
-10 29 -10 21 0 36 -5 36 -12 0 -6 6 -4 13 5 7 11 28 18 55 19 24 1 44 4 46 7
2 3 30 6 63 6 54 0 58 -2 61 -25 5 -49 13 -70 24 -70 6 0 22 10 36 23 13 12
23 18 22 12 -5 -24 1 -35 20 -35 13 0 22 9 26 28 9 43 12 49 13 23 1 -13 13
-34 29 -47 15 -13 21 -24 15 -24 -19 0 -16 -25 6 -44 15 -13 20 -14 24 -4 4 8
6 9 6 1 1 -18 -56 -44 -62 -28 -7 17 -96 28 -113 14 -11 -9 -18 -8 -29 1 -8 7
-13 16 -10 20 3 4 -7 11 -22 15 -17 4 -29 2 -31 -4 -2 -6 -8 -9 -13 -5 -5 3
-9 1 -9 -4 0 -5 -11 -14 -25 -20 -26 -12 -59 -67 -50 -82 9 -14 -18 -13 -32 1
-6 6 -9 17 -7 24 3 6 -2 17 -10 24 -21 17 -86 -6 -86 -30 0 -15 -5 -16 -32 -8
-18 5 -105 9 -192 10 -124 0 -166 4 -189 16 -27 14 -43 14 -136 3 -58 -7 -116
-13 -128 -12 -15 1 -23 -4 -24 -16 -1 -11 -3 -8 -8 7 -9 35 -56 46 -98 24 -30
-16 -33 -16 -51 0 -33 30 -82 16 -82 -25 0 -14 -6 -16 -32 -11 -18 3 -40 9
-49 14 -8 4 -42 9 -75 10 -59 2 -262 34 -271 42 -7 8 155 18 217 15 49 -3 55
-5 52 -23 -4 -17 -1 -17 17 5 l21 25 -7 -30 -6 -30 26 30 c15 17 27 24 27 16
0 -11 3 -11 15 -1 12 10 15 9 15 -6 0 -14 4 -11 16 11 8 16 13 39 10 51 -4 13
0 27 9 34 12 10 16 8 25 -14 11 -30 34 -34 50 -8 10 15 10 14 5 -5 -6 -21 -3
-22 31 -17 40 5 74 28 74 50 0 8 -6 11 -15 8 -9 -4 -15 0 -15 10 0 23 17 20
35 -8 18 -26 55 -41 55 -22 0 7 6 21 14 31 13 18 14 18 31 1 22 -22 59 -17 63
9 2 11 9 25 14 30 8 7 9 5 5 -7 -4 -12 -1 -18 8 -18 8 0 15 7 15 15 0 18 13
19 57 3 18 -7 33 -19 33 -28 0 -28 28 -59 49 -53 11 3 17 11 15 18 -7 18 48
14 62 -5 17 -21 42 2 50 47 5 27 10 33 23 27 17 -8 65 -9 138 -3 28 3 43 9 43
18 0 9 7 11 23 7 12 -3 28 -6 35 -6z m556 -33 c-3 -18 -11 -38 -18 -46 -9 -12
-8 -14 6 -8 13 5 16 0 15 -21 -2 -21 -8 -27 -30 -29 -22 -1 -26 2 -25 20 0 12
-1 29 -4 37 -3 8 -3 12 -1 8 4 -7 43 27 43 37 0 3 -7 5 -16 5 -8 0 -12 5 -9
11 4 6 13 8 21 5 9 -3 11 0 7 11 -4 11 -3 14 6 9 8 -5 10 -19 5 -39z m-4164
23 c0 -5 -2 -10 -4 -10 -3 0 -8 5 -11 10 -3 6 -1 10 4 10 6 0 11 -4 11 -10z
m1500 1 c3 -1 -2 -6 -10 -11 -13 -9 -13 -11 0 -20 11 -7 11 -10 2 -10 -7 0
-10 -5 -6 -12 5 -8 0 -9 -14 -6 -12 4 -22 2 -22 -3 0 -5 -4 -9 -9 -9 -15 0
-21 29 -11 54 9 24 16 26 70 17z m1080 -11 c0 -5 -4 -10 -10 -10 -5 0 -10 5
-10 10 0 6 5 10 10 10 6 0 10 -4 10 -10z m-1250 -35 c0 -18 -4 -23 -15 -19 -8
4 -15 1 -15 -6 0 -6 5 -8 10 -5 6 3 10 2 10 -2 0 -12 38 -14 45 -2 4 5 11 7
16 4 5 -4 9 -2 9 4 0 5 -12 11 -27 13 l-27 3 26 17 c24 16 26 16 24 0 0 -9 4
-16 11 -15 7 2 10 -3 7 -11 -3 -9 3 -17 15 -21 12 -3 21 -11 21 -18 0 -8 -3
-8 -11 0 -9 9 -17 8 -33 -2 -24 -16 -47 -15 -69 3 -17 14 -71 6 -61 -9 3 -5
-2 -9 -10 -9 -9 0 -16 -4 -16 -10 0 -6 -32 -10 -76 -10 -46 0 -73 4 -69 10 3
5 19 7 35 3 19 -3 36 0 47 8 11 10 14 10 9 2 -5 -9 1 -13 19 -13 33 0 29 22
-6 30 -16 4 -20 8 -11 14 7 4 22 4 34 0 17 -5 20 -3 15 10 -5 12 1 19 21 26
15 6 34 14 42 19 24 15 30 13 30 -14z m542 -58 c27 -44 50 -112 40 -121 -13
-14 -32 -4 -32 17 0 29 -27 116 -41 133 -6 8 -8 14 -3 14 5 0 21 -19 36 -43z
m-118 23 c36 -13 32 -28 -6 -24 -36 5 -42 9 -33 23 8 13 8 13 39 1z m-678 -26
c10 -8 14 -13 7 -10 -6 4 -14 2 -18 -4 -3 -5 -16 -10 -28 -10 -20 1 -20 2 -4
11 9 6 15 14 12 20 -10 14 9 11 31 -7z m-186 -15 c0 -11 -38 -18 -62 -11 l-23
6 25 6 c32 8 60 7 60 -1z m607 -91 c9 -10 12 -18 7 -18 -5 0 -15 9 -22 20 -7
12 -18 17 -28 13 -14 -5 -14 -2 2 28 l19 34 3 -30 c2 -16 11 -38 19 -47z m293
42 c0 -14 5 -18 17 -13 11 4 14 3 9 -5 -16 -27 -70 -4 -59 24 8 21 33 17 33
-6z m-2410 0 c0 -5 -4 -10 -10 -10 -5 0 -10 5 -10 10 0 6 5 10 10 10 6 0 10
-4 10 -10z m2321 -15 c5 4 9 2 9 -4 0 -20 -19 -21 -29 -2 -14 25 -14 42 0 18
6 -9 14 -15 20 -12z m-1484 9 c-3 -3 -12 -4 -19 -1 -8 3 -5 6 6 6 11 1 17 -2
13 -5z m2010 0 c-3 -3 -12 -4 -19 -1 -8 3 -5 6 6 6 11 1 17 -2 13 -5z m-1916
-14 c-19 -5 -44 -4 -55 0 -15 6 -5 9 34 8 50 0 52 -1 21 -8z m1759 6 c0 -2 -7
-9 -15 -16 -13 -11 -14 -10 -9 4 5 14 24 23 24 12z m-1385 -26 c-3 -5 -12 -10
-20 -10 -8 0 -17 5 -20 10 -4 6 5 10 20 10 15 0 24 -4 20 -10z m407 -17 c-3
-16 -7 -22 -10 -15 -4 13 4 42 11 42 2 0 2 -12 -1 -27z m333 17 c3 -5 2 -10
-4 -10 -5 0 -13 5 -16 10 -3 6 -2 10 4 10 5 0 13 -4 16 -10z m-1435 -10 c0 -5
-4 -10 -10 -10 -5 0 -10 5 -10 10 0 6 5 10 10 10 6 0 10 -4 10 -10z m1073 -9
c3 -14 1 -18 -9 -14 -8 3 -12 9 -9 13 3 5 -1 11 -7 13 -8 4 -7 6 3 6 9 1 19
-8 22 -18z m-1598 -7 c8 3 15 1 15 -3 0 -5 -8 -12 -17 -15 -18 -7 -7 -26 18
-30 8 -1 24 -8 37 -14 19 -11 21 -16 11 -34 -8 -15 -8 -27 0 -45 15 -34 14
-73 -3 -73 -7 0 -16 9 -19 21 -3 11 -15 23 -26 26 -25 6 -26 24 -6 64 17 31
12 54 -10 45 -7 -2 -17 6 -24 20 -6 13 -18 24 -26 24 -13 0 -14 2 -3 14 9 10
17 11 25 4 7 -6 20 -8 28 -4z m1712 -11 c2 -6 -5 -13 -17 -16 -11 -3 -20 -1
-20 3 0 5 -3 16 -6 24 -5 13 -2 15 17 8 13 -5 25 -14 26 -19z m451 -14 c-17
-10 -28 -1 -28 21 0 19 1 19 20 3 14 -12 16 -19 8 -24z m-2374 20 c-5 -8 1
-10 20 -7 22 4 24 3 14 -9 -7 -9 -21 -12 -39 -8 -15 3 -30 2 -33 -4 -4 -6 2
-8 14 -6 11 2 22 0 25 -6 6 -8 -9 -13 -29 -10 -5 1 -13 -4 -18 -11 -5 -8 -7
-2 -6 19 1 17 6 29 10 27 4 -3 8 -1 8 5 0 5 8 12 18 14 9 3 18 5 20 6 2 0 0
-4 -4 -10z m383 -4 c0 -8 -4 -12 -9 -9 -5 3 -6 10 -3 15 9 13 12 11 12 -6z
m1616 -2 c-7 -2 -19 -2 -25 0 -7 3 -2 5 12 5 14 0 19 -2 13 -5z m894 1 c-3 -3
-12 -4 -19 -1 -8 3 -5 6 6 6 11 1 17 -2 13 -5z m-447 -28 c0 -14 -5 -28 -10
-31 -6 -4 -10 5 -8 24 3 37 18 42 18 7z m287 -8 c-3 -7 -5 -2 -5 12 0 14 2 19
5 13 2 -7 2 -19 0 -25z m-434 -76 c5 -83 5 -84 -17 -78 -13 3 -38 -3 -59 -14
-51 -28 -62 -25 -75 17 -9 30 -9 40 3 53 8 9 15 21 15 27 0 16 -32 25 -43 14
-10 -10 -36 13 -37 32 0 4 35 5 79 1 78 -7 79 -6 96 20 10 15 21 23 25 19 4
-4 10 -46 13 -91z m527 83 c-7 -9 -15 -13 -17 -11 -7 7 7 26 19 26 6 0 6 -6
-2 -15z m-2332 -33 c3 -17 -2 -22 -17 -22 -16 0 -21 6 -21 26 0 33 33 30 38
-4z m2029 -4 c-3 -8 -6 -5 -6 6 -1 11 2 17 5 13 3 -3 4 -12 1 -19z m33 12 c0
-5 -4 -10 -10 -10 -5 0 -10 5 -10 10 0 6 5 10 10 10 6 0 10 -4 10 -10z m932
-4 c7 4 8 2 4 -5 -9 -13 -26 -5 -25 12 0 9 2 8 6 -1 2 -6 10 -9 15 -6z m1053
4 c13 -5 14 -9 5 -9 -8 0 -24 4 -35 9 -13 5 -14 9 -5 9 8 0 24 -4 35 -9z
m-3386 -24 c9 -11 9 -15 -1 -19 -8 -4 -9 -8 -3 -14 19 -16 15 -40 -12 -64 -14
-13 -23 -19 -20 -13 4 7 -3 14 -18 18 -32 8 -33 39 -1 54 18 8 23 16 19 31 -6
25 18 29 36 7z m1782 -17 c4 -13 7 -68 8 -121 1 -87 -1 -99 -22 -125 -13 -15
-37 -61 -53 -102 -26 -65 -46 -92 -59 -79 -8 7 35 133 55 160 11 15 20 34 20
41 0 22 -27 39 -48 33 -19 -6 -72 -73 -72 -92 -1 -5 -11 -31 -24 -58 -16 -35
-34 -55 -62 -71 -47 -26 -55 -52 -23 -76 l24 -19 -24 0 c-14 0 -34 -9 -46 -20
l-22 -21 -13 33 c-7 18 -18 39 -24 47 -6 8 -11 33 -11 56 0 35 2 41 17 37 26
-6 113 88 133 145 67 188 87 225 119 221 11 -1 27 1 34 5 34 22 68 37 77 34 5
-2 12 -14 16 -28z m1749 24 c-1 -16 -79 -98 -86 -90 -12 12 24 77 48 87 29 11
38 12 38 3z m-2653 -38 c31 -26 43 -45 48 -74 4 -22 15 -50 26 -62 20 -24 25
-34 10 -25 -5 3 -12 -2 -16 -12 -6 -15 -8 -15 -18 -1 -7 8 -20 18 -29 22 -20
7 -24 37 -6 55 8 8 8 15 0 25 -7 8 -9 17 -6 20 4 3 -5 12 -20 18 -14 7 -26 17
-26 22 0 6 -7 19 -17 29 -30 33 10 21 54 -17z m517 -55 c-1 -99 -13 -136 -15
-49 -1 30 -3 70 -5 89 -2 28 3 39 21 50 0 0 0 -41 -1 -90z m985 59 c19 -14 28
-30 29 -50 1 -33 -7 -35 -53 -13 -32 15 -55 44 -34 44 5 0 12 -6 15 -14 3 -8
12 -17 20 -20 13 -5 13 -3 0 16 -12 16 -13 25 -4 35 9 12 6 13 -18 8 -22 -5
-25 -4 -14 4 21 15 27 14 59 -10z m975 -39 l29 -28 -55 -7 c-46 -6 -58 -11
-67 -32 -19 -41 -31 -17 -16 33 24 82 51 90 109 34z m271 30 c-3 -5 -14 -10
-23 -10 -15 0 -15 2 -2 10 20 13 33 13 25 0z m-4317 -23 c2 -10 -3 -17 -12
-17 -10 0 -16 9 -16 21 0 24 23 21 28 -4z m3868 14 c12 10 13 9 8 -5 -7 -18
-26 -17 -30 2 -1 7 0 8 3 2 3 -8 9 -7 19 1z m-3976 -5 c0 -3 -4 -8 -10 -11 -5
-3 -10 -1 -10 4 0 6 5 11 10 11 6 0 10 -2 10 -4z m-374 -21 c-1 -9 -11 -22
-22 -29 -17 -13 -20 -12 -20 4 0 10 3 17 7 14 4 -2 9 3 13 11 7 20 25 19 22 0z
m4902 -22 c14 -12 14 -13 -4 -13 -29 0 -60 -38 -70 -85 l-8 -40 -4 33 c-2 17
-7 32 -13 32 -5 0 -9 15 -9 34 0 30 4 35 29 41 16 3 35 13 42 22 11 12 14 13
17 2 2 -8 11 -20 20 -26z m-4708 -23 c25 -13 17 -30 -13 -30 -15 0 -26 -10
-35 -30 -21 -46 -29 -36 -24 28 5 63 30 100 44 63 4 -11 16 -25 28 -31z m4530
10 c0 -5 -14 -17 -30 -25 -17 -9 -36 -27 -42 -41 -12 -26 -31 -27 -36 -2 -2 9
6 19 17 23 11 3 33 19 48 35 25 27 43 31 43 10z m-4652 -18 c2 -7 -3 -12 -12
-12 -8 0 -24 -10 -36 -22 -27 -29 -26 -13 3 22 22 29 38 33 45 12z m3647 -27
c-1 -11 -3 -27 -4 -35 -3 -29 -21 12 -21 48 0 27 2 31 14 20 7 -7 12 -22 11
-33z m-3335 21 c0 -8 -4 -18 -10 -21 -5 -3 -10 -13 -10 -22 0 -19 35 -64 44
-56 3 3 6 1 6 -5 0 -15 -5 -15 -30 1 -17 10 -22 9 -30 -3 -5 -8 -8 -20 -6 -27
4 -8 -4 -9 -27 -2 -18 5 -33 9 -34 9 -2 0 -3 7 -3 15 0 9 -6 18 -14 21 -26 10
-6 44 25 44 20 0 35 9 51 30 24 33 38 38 38 16z m3910 -16 c0 -5 -5 -10 -11
-10 -5 0 -7 5 -4 10 3 6 8 10 11 10 2 0 4 -4 4 -10z m250 -26 c0 -8 -7 -14
-15 -14 -15 0 -21 21 -9 33 10 9 24 -2 24 -19z m-3957 4 c3 -10 7 -10 18 -1
12 10 20 6 41 -21 l27 -34 -35 -4 c-29 -3 -39 0 -51 19 -9 13 -25 23 -39 23
-26 0 -41 16 -22 23 24 10 56 7 61 -5z m2058 -71 c-8 -8 -11 2 -10 34 l1 44
10 -34 c6 -23 6 -37 -1 -44z m2089 38 c0 -14 -4 -25 -9 -25 -12 0 -19 21 -13
38 8 21 22 13 22 -13z m-2434 -22 c-11 -11 -17 4 -9 23 7 18 8 18 11 1 2 -10
1 -21 -2 -24z m2564 27 c0 -5 -2 -10 -4 -10 -3 0 -8 5 -11 10 -3 6 -1 10 4 10
6 0 11 -4 11 -10z m-2712 -22 c9 -9 15 -9 20 -2 9 13 62 17 62 4 0 -6 8 -10
19 -10 17 0 17 -3 -5 -47 -27 -52 -29 -75 -13 -122 11 -30 45 -49 78 -42 7 1
11 -3 8 -11 -4 -14 -15 -14 -57 -2 -14 4 -22 3 -18 -1 4 -4 1 -16 -6 -27 -11
-15 -12 -28 -4 -51 5 -18 10 -37 11 -43 0 -6 9 -9 19 -6 10 2 18 0 18 -5 0
-15 -44 -50 -62 -50 -20 0 -32 23 -18 32 15 9 12 32 -4 38 -11 4 -13 1 -9 -10
4 -11 -2 -8 -17 7 -17 17 -23 35 -24 67 0 24 -3 43 -7 43 -4 0 -9 14 -11 30
-4 29 -3 30 36 31 23 0 36 3 29 5 -8 4 -9 13 -3 30 5 13 6 23 2 23 -23 -4 -34
3 -28 17 4 10 2 13 -6 8 -7 -5 -9 0 -6 14 4 14 2 22 -6 22 -16 0 -40 45 -32
59 9 14 19 14 34 -1z m331 -30 c-1 -56 11 -137 22 -144 5 -3 2 -19 -6 -35 -14
-27 -14 -32 2 -59 9 -17 21 -30 25 -30 10 0 7 -100 -4 -106 -15 -9 -9 -34 7
-28 17 7 20 -7 4 -23 -8 -8 -8 -17 1 -33 9 -16 9 -29 1 -49 -7 -15 -11 -51
-10 -81 3 -95 -10 -150 -38 -163 -23 -10 -27 -35 -4 -29 21 5 -8 -145 -51
-260 -6 -15 -8 -35 -4 -43 3 -9 -1 -55 -9 -103 -9 -48 -20 -139 -25 -202 -9
-119 -21 -211 -41 -315 -15 -79 -57 -254 -64 -266 -7 -11 -52 -12 -58 -1 -11
16 6 61 33 90 23 25 25 33 15 42 -14 12 -31 -3 -21 -19 3 -5 -1 -14 -9 -21
-12 -10 -22 -8 -51 10 -30 19 -38 20 -45 9 -7 -11 -9 -9 -9 6 0 27 15 49 29
41 6 -4 11 -2 11 4 0 6 -7 13 -15 16 -9 4 -15 19 -15 38 0 23 3 27 10 16 8
-13 11 -13 24 0 17 17 20 58 16 255 -1 94 2 141 9 143 6 2 11 14 11 28 0 17 4
22 16 17 8 -3 13 -12 10 -20 -8 -19 4 -64 14 -58 4 2 5 16 2 30 -3 16 0 25 8
25 10 0 10 3 0 15 -9 11 -9 15 -1 15 17 0 31 -42 19 -57 -5 -7 -7 -17 -3 -24
4 -6 1 -16 -6 -21 -12 -8 -11 -9 1 -5 8 2 16 10 16 18 1 8 3 16 4 19 1 3 4 27
6 54 2 27 10 56 19 66 19 21 20 36 0 20 -16 -13 -18 -8 -9 28 4 12 11 22 16
22 6 0 7 -8 4 -17 -5 -14 -1 -12 13 4 13 16 21 19 29 11 8 -8 9 -5 5 11 -4 17
-8 19 -19 10 -24 -20 -44 -3 -44 37 0 25 4 35 13 31 8 -3 12 8 12 34 1 22 -3
39 -8 39 -5 0 6 12 24 27 18 16 41 27 51 25 10 -2 18 2 18 8 0 6 -5 8 -11 4
-21 -13 -28 19 -11 50 9 17 16 40 15 51 -1 67 -4 88 -10 82 -3 -4 -7 -17 -8
-30 -2 -12 -7 -21 -13 -20 -5 1 -13 -4 -16 -12 -3 -9 0 -12 8 -9 8 3 16 -4 19
-18 4 -13 2 -24 -3 -26 -6 -2 -10 -12 -10 -22 0 -11 -6 -23 -14 -27 -8 -4 -15
-12 -15 -16 0 -4 -7 -15 -16 -23 -13 -14 -15 -13 -15 7 0 12 -6 30 -14 38 -19
21 -31 71 -18 71 5 0 12 -7 16 -15 9 -24 31 -17 32 10 2 26 -11 34 -19 13 -3
-10 -9 -8 -24 5 -11 9 -23 14 -26 10 -4 -3 -7 -1 -7 6 0 7 -4 9 -10 6 -17 -10
-11 11 10 37 18 24 18 38 -2 38 -5 0 -6 -4 -3 -10 3 -5 -3 -10 -13 -10 -15 0
-19 -5 -15 -19 3 -10 0 -22 -6 -25 -12 -8 -15 -27 -3 -25 22 4 23 -3 4 -23
-11 -13 -23 -36 -26 -53 -2 -16 -5 -31 -6 -32 -5 -6 -8 -24 -9 -58 0 -19 -5
-35 -10 -35 -12 0 -1 114 11 118 4 2 6 8 2 13 -3 5 -2 15 3 22 13 21 11 61 -6
82 -10 13 -11 16 -1 8 19 -17 35 -16 21 1 -6 7 -9 21 -5 30 3 9 2 16 -2 16 -5
0 -9 13 -10 30 -1 16 3 27 7 24 5 -3 9 -12 9 -20 0 -8 5 -14 11 -14 5 0 7 5 3
12 -5 8 -2 9 9 5 11 -4 17 -1 17 8 0 9 -6 12 -15 9 -8 -4 -15 -1 -15 5 0 6 7
11 15 11 17 0 20 16 6 25 -5 3 -17 -2 -26 -11 -15 -15 -15 -14 -9 12 4 16 11
39 15 51 5 13 6 30 3 38 -5 11 -2 13 10 9 18 -7 21 -25 6 -40 -15 -15 0 -53
23 -60 13 -4 25 -1 32 10 7 8 15 13 18 9 4 -3 7 3 7 15 0 20 -4 22 -42 16
l-43 -5 24 20 c13 12 18 21 11 21 -9 0 -8 6 3 18 10 10 17 25 17 33 0 8 5 20
12 27 8 8 8 15 -2 27 -10 12 -10 15 3 15 8 0 17 7 21 15 7 20 36 19 36 -1 0
-9 9 -18 20 -21 22 -6 28 -33 8 -34 -10 0 -10 -2 -1 -6 10 -3 10 -10 2 -25 -6
-11 -9 -28 -6 -38 3 -13 1 -17 -11 -13 -18 7 -43 -23 -35 -43 8 -21 25 -5 18
17 -7 22 10 26 18 5 3 -8 -3 -26 -14 -39 -22 -29 -25 -57 -5 -57 12 0 12 -5 3
-30 -6 -16 -15 -30 -20 -30 -4 0 -5 5 -1 12 4 7 3 8 -5 4 -7 -4 -11 -17 -9
-29 2 -13 -2 -21 -9 -20 -7 2 -13 -2 -13 -7 0 -6 5 -10 12 -10 9 0 9 -3 0 -12
-26 -26 -10 -27 23 -1 20 16 31 31 26 36 -6 6 -2 23 9 42 19 35 20 72 1 68 -6
-2 -11 1 -11 7 0 6 10 10 23 11 12 0 17 3 11 5 -18 7 -4 46 13 40 10 -4 13 1
11 17 -2 12 -7 25 -13 29 -6 5 -3 8 7 8 9 0 20 5 23 10 4 7 -3 8 -22 4 -23 -6
-26 -5 -16 7 16 20 20 74 5 92 -8 9 -10 23 -4 38 13 35 9 84 -5 82 -7 -2 -13
6 -13 17 0 25 8 25 33 3 11 -10 17 -13 14 -7 -4 7 0 31 8 54 19 54 19 95 0
124 -14 20 -14 27 0 59 8 20 15 47 15 60 0 13 3 27 7 30 16 16 23 4 22 -35z
m90 -28 c0 -38 -4 -72 -9 -75 -6 -4 -10 24 -10 69 0 42 4 76 9 76 5 0 10 -31
10 -70z m1919 32 c2 -12 -1 -22 -6 -22 -15 0 -34 28 -27 40 10 17 30 6 33 -18z
m99 6 c-3 -8 -6 -5 -6 6 -1 11 2 17 5 13 3 -3 4 -12 1 -19z m-4469 -16 c23
-15 29 -32 11 -32 -13 0 -39 -25 -39 -39 0 -5 -4 -13 -10 -16 -14 -8 -42 66
-35 93 6 25 28 24 73 -6z m367 8 c4 -6 4 -18 1 -27 -5 -12 -9 -13 -20 -4 -8 7
-19 10 -26 9 -7 -2 -15 4 -17 12 -4 13 -3 13 6 0 9 -12 11 -12 17 3 7 19 29
23 39 7z m-277 -48 c6 -18 -15 -14 -22 4 -4 10 -1 14 6 12 6 -2 14 -10 16 -16z
m172 -13 c0 -12 -7 -19 -20 -19 -22 0 -26 20 -8 38 15 15 28 6 28 -19z m4309
21 c13 -6 17 -17 14 -35 -3 -14 -8 -25 -12 -25 -17 1 -41 30 -41 49 0 23 11
26 39 11z m133 -19 c-30 -6 -41 -22 -36 -49 3 -17 -3 -38 -16 -57 l-20 -30 6
35 c11 72 15 82 41 106 20 19 28 21 34 12 6 -8 2 -14 -9 -17z m-2512 -26 c0
-19 -4 -35 -10 -35 -5 0 -10 16 -10 35 0 19 5 35 10 35 6 0 10 -16 10 -35z
m2216 -20 c-6 -24 -44 -68 -90 -104 -17 -14 -17 -12 -10 25 8 44 46 96 78 105
27 8 30 5 22 -26z m-4481 -76 c-8 -36 -25 -38 -26 -4 -1 14 -3 30 -4 35 -1 6
-3 15 -4 20 0 6 -9 10 -18 10 -15 0 -16 2 -4 9 25 16 64 -34 56 -70z m-67 50
c9 -13 9 -16 -3 -16 -8 0 -15 9 -15 20 0 11 1 18 3 16 1 -2 8 -11 15 -20z
m441 -20 c12 -11 21 -26 21 -34 0 -7 3 -20 6 -28 3 -10 -2 -18 -16 -22 -14 -5
-20 -12 -16 -23 4 -11 -2 -8 -14 7 -11 13 -20 18 -20 12 0 -6 -5 -11 -11 -11
-5 0 -7 4 -4 10 3 6 -1 7 -10 4 -15 -6 -16 -1 -10 42 4 27 8 54 10 61 5 15 38
6 64 -18z m-269 -20 c0 -27 -2 -28 -20 -17 -23 14 -25 29 -8 46 16 16 28 5 28
-29z m145 9 c9 -9 -31 -38 -61 -44 -28 -5 -30 -4 -28 23 1 15 3 28 3 28 41 0
83 -3 86 -7z m4565 -13 c0 -14 -4 -25 -9 -25 -4 0 -6 11 -3 25 2 14 6 25 8 25
2 0 4 -11 4 -25z m-203 -57 c-1 -29 2 -63 6 -75 14 -39 -10 -26 -37 20 -25 43
-26 83 -2 99 26 18 34 7 33 -44z m-114 2 c-4 -30 -1 -45 12 -60 27 -30 3 -24
-38 8 l-36 29 32 31 c17 18 32 32 33 32 1 0 0 -18 -3 -40z m-2619 16 c10 4 27
-19 42 -58 3 -10 10 -18 15 -18 5 0 9 -5 9 -12 0 -6 -8 -3 -20 7 -11 10 -17
22 -14 26 3 5 1 9 -5 9 -5 0 -13 9 -16 20 -4 11 -10 18 -15 15 -4 -3 -14 3
-21 13 -11 14 -11 15 0 5 7 -6 19 -9 25 -7z m2990 -48 c-9 -14 -24 2 -24 25 1
21 1 21 15 3 8 -10 12 -23 9 -28z m-2128 14 c15 -12 20 -23 15 -36 -7 -17 -9
-17 -29 9 -35 44 -26 60 14 27z m-2322 2 c25 -10 19 -31 -9 -31 -24 0 -33 16
-18 30 8 8 8 8 27 1z m4402 -143 c6 -67 6 -71 -13 -71 -12 0 -28 12 -38 26
-14 22 -15 30 -5 49 16 30 6 45 -29 45 -15 0 -32 5 -39 12 -14 14 -16 32 -3
24 17 -11 39 5 51 35 l13 29 28 -38 c23 -31 30 -54 35 -111z m-4596 119 c0 -5
-5 -10 -11 -10 -5 0 -7 5 -4 10 3 6 8 10 11 10 2 0 4 -4 4 -10z m-174 -32
c-18 -26 -22 -17 -5 14 6 11 13 17 16 15 3 -3 -2 -16 -11 -29z m2022 -63 c-3
-3 -9 2 -12 12 -6 14 -5 15 5 6 7 -7 10 -15 7 -18z m272 4 c0 -6 -4 -7 -10 -4
-5 3 -10 11 -10 16 0 6 5 7 10 4 6 -3 10 -11 10 -16z m2158 -9 c15 8 31 16 36
19 5 2 6 -1 2 -7 -4 -7 -13 -12 -20 -12 -7 0 -23 -11 -36 -25 -26 -28 -34 -24
-44 20 -7 29 -7 29 13 11 19 -17 24 -18 49 -6z m212 -102 c0 -10 -7 -18 -15
-18 -9 0 -27 -12 -39 -27 l-24 -28 -21 25 c-27 33 -26 48 5 77 18 17 25 31 22
48 -4 21 0 19 33 -18 22 -23 39 -50 39 -59z m-2165 64 c-8 -8 -25 10 -19 20 4
6 9 5 15 -3 4 -7 6 -15 4 -17z m-2569 -9 c-10 -10 -19 5 -10 18 6 11 8 11 12
0 2 -7 1 -15 -2 -18z m-40 -32 c0 -11 -5 -17 -13 -14 -10 4 -11 9 -2 19 15 18
15 18 15 -5z m1984 15 c0 -11 -19 -15 -25 -6 -3 5 1 10 9 10 9 0 16 -2 16 -4z
m790 -6 c0 -3 -7 -16 -16 -28 -15 -21 -54 -31 -54 -13 0 5 -16 12 -35 15 -63
12 -41 31 35 31 39 0 70 -2 70 -5z m-476 -26 c3 -8 2 -12 -4 -9 -6 3 -10 10
-10 16 0 14 7 11 14 -7z m-211 -54 c4 -14 2 -32 -3 -40 -7 -12 -9 -11 -8 5 1
11 -2 34 -6 50 -5 19 -4 26 2 20 5 -5 12 -21 15 -35z m2777 -26 c0 -19 -4 -34
-8 -34 -4 0 -27 -18 -49 -41 -23 -22 -46 -38 -52 -35 -20 13 2 71 40 109 22
21 39 43 39 49 0 7 5 6 15 -2 8 -7 15 -28 15 -46z m-2653 -26 c-2 -13 -4 -5
-4 17 -1 22 1 32 4 23 2 -10 2 -28 0 -40z m-2150 -40 c2 -21 1 -21 -22 6 -14
16 -22 33 -19 38 9 14 39 -18 41 -44z m4648 -77 c-10 -9 -17 8 -21 51 l-4 43
14 -45 c8 -24 13 -46 11 -49z m-4546 50 c-14 -11 -26 -15 -28 -9 -4 12 17 28
38 28 8 0 3 -8 -10 -19z m4715 -23 c9 -34 7 -76 -3 -82 -5 -4 -12 0 -14 6 -3
7 -6 3 -6 -9 -1 -12 4 -25 10 -29 6 -4 9 -25 6 -53 -3 -25 0 -54 5 -65 7 -13
6 -21 -2 -26 -7 -4 -9 -16 -5 -29 3 -11 2 -21 -3 -21 -5 0 -12 17 -15 38 -4
20 -11 57 -17 82 -6 25 -14 71 -17 103 -5 51 -3 61 18 83 28 30 35 30 43 2z
m46 2 c0 -5 -5 -10 -11 -10 -5 0 -7 5 -4 10 3 6 8 10 11 10 2 0 4 -4 4 -10z
m-4899 -21 c34 -24 37 -49 9 -74 -19 -17 -21 -17 -40 0 -26 23 -27 95 -2 95 2
0 17 -9 33 -21z m208 -29 c-5 -4 -11 -23 -12 -42 -3 -46 -13 -40 -22 12 -9 51
11 83 32 54 9 -12 10 -20 2 -24z m1838 3 c-3 -10 -5 -4 -5 12 0 17 2 24 5 18
2 -7 2 -21 0 -30z m80 -15 c-3 -8 -6 -5 -6 6 -1 11 2 17 5 13 3 -3 4 -12 1
-19z m-92 -75 c-2 -21 1 -63 5 -93 15 -103 21 -232 10 -225 -5 3 -10 28 -10
55 0 27 -5 95 -11 150 -9 87 -7 150 5 150 2 0 2 -17 1 -37z m91 -25 c-2 -35
-5 -74 -5 -87 -2 -45 -13 -13 -16 43 -1 31 2 56 7 56 5 0 6 5 3 10 -4 6 -4 17
-1 25 12 31 17 12 12 -47z m2618 26 c10 -27 6 -48 -15 -73 l-20 -24 -24 23
c-42 40 -31 90 20 90 21 0 35 -6 39 -16z m-4754 -66 c0 -12 -38 -10 -45 2 -12
19 5 30 25 17 11 -6 20 -15 20 -19z m108 -83 c3 -11 0 -15 -7 -10 -6 3 -9 10
-6 15 3 4 0 11 -5 13 -6 3 -5 4 2 3 7 -1 15 -11 16 -21z m4646 -100 c-4 -8
-10 -15 -15 -15 -4 0 -17 -10 -29 -22 l-20 -22 0 33 c0 30 2 33 25 29 13 -3
22 -1 19 3 -3 5 2 9 10 9 10 0 13 -6 10 -15z m-4701 -64 c44 -27 47 -38 9 -36
-30 2 -82 41 -82 61 0 15 17 9 73 -25z m2115 7 c0 -13 1 -29 3 -37 2 -8 -4
-17 -14 -19 -15 -3 -18 1 -15 25 2 22 15 50 24 53 1 0 2 -10 2 -22z m31 -49
c-2 -69 -3 -71 -16 -45 -10 20 -11 31 -4 40 6 7 8 16 5 19 -7 7 3 57 12 57 2
0 4 -32 3 -71z m2578 -31 c-3 -7 -5 -2 -5 12 0 14 2 19 5 13 2 -7 2 -19 0 -25z
m-2703 -50 c-5 -17 -12 -97 -14 -148 -1 -21 -2 -23 -11 -8 -12 21 -14 116 -3
183 l7 50 13 -30 c7 -16 11 -38 8 -47z m-2103 -45 c7 -18 6 -30 -1 -37 -7 -7
-10 -6 -10 5 0 7 -3 24 -6 37 -9 31 4 28 17 -5z m2176 -5 c-3 -8 -6 -5 -6 6
-1 11 2 17 5 13 3 -3 4 -12 1 -19z m8 -48 c3 -5 1 -10 -4 -10 -6 0 -11 5 -11
10 0 6 2 10 4 10 3 0 8 -4 11 -10z m-5 -50 c0 -11 -4 -20 -9 -20 -5 0 -7 9 -4
20 3 11 7 20 9 20 2 0 4 -9 4 -20z m-80 -72 c0 -10 -4 -18 -10 -18 -5 0 -10
15 -10 33 0 24 3 28 10 17 5 -8 10 -23 10 -32z m95 -110 c3 -39 2 -68 -3 -68
-12 0 -22 77 -21 154 1 59 2 60 10 21 4 -22 11 -70 14 -107z m-92 15 l7 -63
-21 21 c-16 16 -18 24 -9 34 6 7 10 19 9 27 -2 20 1 52 5 47 2 -2 6 -32 9 -66z
m4 -150 c-3 -10 -5 -2 -5 17 0 19 2 27 5 18 2 -10 2 -26 0 -35z m1413 -81 c0
-83 -67 -168 -192 -246 -75 -45 -118 -89 -118 -118 0 -35 -91 -128 -125 -128
-15 0 -1 33 34 75 21 25 43 56 49 68 24 51 42 96 42 103 0 14 45 74 55 74 6 0
31 20 58 44 32 30 45 49 41 60 -3 9 -11 16 -17 16 -15 0 -85 -47 -124 -84 -18
-16 -35 -27 -38 -24 -8 8 102 106 144 128 20 10 63 34 95 54 56 34 61 35 78
19 10 -9 18 -27 18 -41z m-1430 -137 c0 -7 3 -20 6 -29 5 -12 -1 -15 -25 -13
-21 1 -30 6 -26 15 3 8 5 25 5 38 0 22 3 23 20 14 11 -6 20 -17 20 -25z m140
23 c0 -4 -9 -12 -21 -18 -11 -7 -18 -14 -16 -17 3 -2 15 0 26 7 18 9 21 8 21
-10 0 -12 -4 -18 -10 -15 -6 3 -7 -1 -4 -9 4 -12 0 -16 -16 -16 -16 0 -20 4
-16 15 3 9 0 15 -9 15 -18 0 -20 46 -2 53 18 7 47 4 47 -5z m25 -437 c-4 -60
-12 -75 -64 -126 -39 -37 -41 -38 -37 -15 2 14 9 24 14 23 7 -2 9 9 7 27 -2
20 0 27 9 24 19 -7 39 23 34 51 -4 21 21 65 37 65 2 0 2 -22 0 -49z m-505 15
c0 -3 -4 -8 -10 -11 -5 -3 -10 -1 -10 4 0 6 5 11 10 11 6 0 10 -2 10 -4z m337
-115 c-3 -36 -4 -60 -1 -53 3 6 10 12 15 12 6 0 7 -4 4 -10 -3 -5 -1 -10 4
-10 6 0 11 5 11 11 0 5 4 8 10 4 5 -3 8 -18 7 -34 -2 -23 -6 -27 -25 -25 -30
3 -42 14 -16 14 18 0 17 2 -3 18 -26 20 -46 91 -22 77 12 -8 12 -6 0 8 -15 19
-7 72 11 61 7 -4 8 -30 5 -73z m-246 49 c10 -6 28 -27 38 -48 10 -20 31 -48
45 -61 24 -23 24 -24 8 -47 -9 -13 -23 -24 -30 -24 -7 0 -17 -12 -23 -26 -13
-36 -20 -26 -13 18 4 24 13 38 25 41 11 3 19 12 19 21 0 18 -36 40 -50 31 -9
-5 -28 30 -44 83 -8 25 -3 27 25 12z m122 -37 c8 -10 19 -31 23 -48 4 -16 12
-33 17 -36 12 -9 1 -42 -12 -35 -13 8 -61 103 -61 121 0 20 13 19 33 -2z
m-163 -118 c0 -90 -15 -89 -17 1 -1 44 2 72 8 69 5 -4 9 -35 9 -70z m686 21
c46 -13 103 -36 125 -52 37 -25 129 -134 129 -151 0 -4 26 -31 57 -60 31 -29
54 -55 51 -58 -10 -10 -58 7 -58 20 0 7 -11 20 -25 29 -14 10 -31 28 -37 42
-8 17 -17 23 -30 18 -20 -6 -23 7 -8 35 7 13 3 27 -16 54 -14 21 -26 37 -29
37 -17 0 -38 -17 -46 -36 -4 -13 -14 -24 -20 -24 -8 0 -8 4 1 15 7 8 10 21 7
29 -9 23 -66 48 -93 42 -31 -8 -33 -52 -3 -90 28 -35 95 -70 105 -54 5 7 10 3
16 -12 5 -12 7 -25 4 -27 -4 -4 -98 39 -138 64 -21 14 -30 15 -39 6 -19 -19
11 -46 97 -90 80 -41 104 -74 37 -49 -53 19 -147 46 -161 46 -20 0 -13 -28 10
-44 12 -9 33 -16 46 -16 29 0 132 -48 132 -62 0 -16 -71 0 -103 23 -31 23 -72
22 -72 -1 0 -8 23 -26 52 -40 29 -14 58 -31 65 -37 21 -22 -30 -16 -68 8 -32
19 -34 19 -41 3 -4 -12 2 -25 22 -41 l28 -24 -22 -15 c-29 -21 -30 -112 -1
-139 16 -15 22 -16 35 -5 11 9 14 22 10 37 -6 26 -2 28 26 13 26 -15 26 -60
-1 -60 -13 0 -20 -7 -20 -20 0 -11 4 -20 9 -20 4 0 25 -13 46 -30 28 -23 41
-27 55 -20 29 15 34 42 11 60 -17 12 -20 24 -16 66 5 70 14 117 35 194 10 36
21 87 25 114 5 37 9 46 18 37 8 -8 12 -50 13 -111 1 -92 -1 -99 -22 -110 -22
-12 -54 -100 -54 -147 0 -25 25 -53 45 -53 23 0 51 48 36 63 -6 6 -11 24 -11
39 0 35 50 91 74 82 21 -8 20 -1 -4 45 -17 33 -18 47 -10 96 5 32 11 60 13 62
10 10 16 -61 6 -79 -14 -26 -5 -59 27 -97 26 -31 48 -34 37 -5 -4 12 -1 15 13
12 29 -5 27 -70 -3 -83 -17 -7 -21 -16 -19 -37 2 -19 -6 -40 -25 -65 -16 -21
-29 -42 -29 -47 0 -6 -10 -20 -22 -33 -18 -19 -20 -28 -12 -41 19 -29 41 -19
88 41 l44 57 22 -30 c12 -16 26 -30 32 -30 13 0 37 -30 38 -47 0 -26 -35 -12
-49 17 -7 17 -18 29 -25 27 -18 -6 -19 -44 0 -74 l16 -28 -25 28 c-14 15 -31
27 -37 27 -18 0 -11 -59 11 -81 13 -13 18 -24 11 -31 -6 -6 -18 2 -35 21 -31
37 -43 39 -50 9 -5 -16 1 -30 18 -48 25 -26 38 -67 13 -42 -17 17 -28 15 -28
-5 0 -15 -2 -16 -10 -3 -5 8 -10 24 -10 34 0 25 -40 84 -61 91 -9 3 -33 21
-54 39 -25 22 -52 36 -79 40 -23 4 -56 16 -74 26 -65 40 -309 42 -417 4 -23
-8 -48 -14 -56 -14 -9 0 -44 -14 -79 -31 -50 -24 -65 -28 -71 -17 -15 24 -9
29 25 23 24 -5 36 -3 42 7 12 19 64 39 106 41 26 2 34 7 36 24 2 14 -3 23 -15
26 -31 9 -105 0 -115 -14 -13 -19 -7 -3 22 59 19 40 30 52 48 52 30 0 41 29
17 46 -16 12 -16 14 -3 14 25 0 30 29 9 47 -18 15 -18 19 -5 62 7 25 14 58 14
73 0 15 5 30 10 33 6 4 10 -8 10 -30 0 -22 6 -38 15 -41 20 -8 19 -40 -5 -134
-11 -43 -17 -85 -14 -94 5 -13 1 -14 -24 -7 -39 12 -63 -2 -42 -23 20 -19 70
-32 70 -17 0 5 11 20 24 33 35 33 62 148 71 303 10 174 23 135 24 -71 1 -134
4 -163 16 -168 22 -8 34 23 36 95 2 73 9 122 17 114 8 -8 42 26 36 36 -3 5
-14 9 -25 9 -10 0 -19 1 -19 3 0 1 -3 48 -7 103 -5 95 -4 104 21 154 14 28 26
57 26 64 0 21 96 17 186 -8z m-376 -46 c13 -8 13 -10 -2 -10 -9 0 -20 5 -23
10 -8 13 5 13 25 0z m87 -16 c-3 -3 -12 -4 -19 -1 -8 3 -5 6 6 6 11 1 17 -2
13 -5z m-247 -44 c11 -21 4 -25 -19 -11 -7 5 -10 14 -7 20 10 15 14 14 26 -9z
m127 -33 c-3 -9 -16 -17 -29 -19 -17 -2 -23 -10 -24 -31 -1 -15 -4 -30 -7 -33
-4 -4 -2 -15 4 -26 12 -22 3 -58 -14 -58 -7 0 -17 11 -23 25 -13 28 7 137 27
144 6 2 18 12 27 22 14 16 18 17 31 5 7 -8 11 -21 8 -29z m-192 -7 c10 -11 26
-20 37 -20 11 0 18 -7 18 -20 0 -23 -1 -24 -37 -8 -37 16 -63 38 -63 55 0 19
24 16 45 -7z m-2 -86 c31 -19 57 -37 57 -38 0 -2 -15 -2 -32 -1 -43 3 -98 35
-98 58 0 24 8 22 73 -19z m232 -17 c-10 -46 -25 -57 -25 -20 0 40 9 65 22 57
5 -3 6 -20 3 -37z m-45 -18 c0 -5 -4 -9 -10 -9 -5 0 -10 7 -10 16 0 8 5 12 10
9 6 -3 10 -10 10 -16z m-252 -31 c21 -21 13 -27 -18 -15 -16 6 -30 15 -30 19
0 12 35 9 48 -4z m47 -58 c3 -5 -3 -10 -14 -10 -11 0 -29 -9 -39 -20 l-19 -21
-6 22 c-4 15 -11 20 -22 15 -10 -3 -14 -2 -9 5 3 6 19 9 35 5 15 -3 31 -1 34
4 8 13 32 13 40 0z m125 -5 c14 8 13 -28 -2 -60 -13 -29 -16 -30 -43 -9 -20
16 -20 16 1 10 13 -4 26 -1 34 9 11 13 9 20 -11 42 -13 15 -16 22 -7 14 9 -7
22 -10 28 -6z m880 -15 c0 -5 -2 -10 -4 -10 -3 0 -8 5 -11 10 -3 6 -1 10 4 10
6 0 11 -4 11 -10z m-1104 -61 c12 -13 10 -20 -11 -50 -37 -49 -67 -70 -82 -57
-19 15 -17 20 30 94 30 48 43 61 46 48 1 -11 9 -26 17 -35z m1114 11 c0 -5 -8
-10 -17 -10 -15 0 -16 2 -3 10 19 12 20 12 20 0z m-960 -65 c11 -3 28 -1 39 4
16 9 18 8 14 -9 -8 -31 -19 -32 -68 -10 -49 22 -61 39 -51 67 6 15 10 12 27
-14 11 -18 29 -35 39 -38z m624 -11 c10 -4 16 -18 16 -36 0 -23 -4 -29 -16
-24 -9 3 -19 6 -24 6 -4 0 -10 14 -12 30 -5 31 4 36 36 24z m-706 -35 c-16
-10 -33 5 -23 21 5 8 11 8 21 -1 12 -10 12 -14 2 -20z m78 -31 c27 -11 31 -16
23 -35 l-8 -23 -24 23 c-28 26 -60 80 -36 60 8 -6 28 -17 45 -25z m-178 -63
l3 -40 -30 29 c-39 38 -40 58 -3 54 24 -3 27 -8 30 -43z m1173 -12 c-10 -17
-10 -16 -11 3 0 23 13 41 18 25 2 -6 -1 -18 -7 -28z m-1039 0 c15 -15 28 -33
28 -41 0 -7 10 -23 23 -33 l22 -20 -25 3 c-13 2 -29 12 -35 24 -6 11 -23 32
-39 46 -17 14 -26 30 -22 36 10 17 17 15 48 -15z m1066 -59 c0 -17 -3 -22 -8
-13 -5 6 -6 18 -3 26 8 19 11 16 11 -13z m-1129 -30 c22 -27 28 -78 12 -88
-11 -7 -81 72 -81 90 0 11 13 18 42 23 4 0 16 -11 27 -25z m643 -148 c56 -30
63 -37 63 -64 1 -18 10 -41 23 -54 30 -33 33 -68 6 -78 -20 -8 -23 -3 -45 81
-25 99 -46 124 -78 95 -10 -9 -25 -16 -35 -16 -27 0 -37 -44 -25 -113 25 -144
28 -160 31 -162 2 -1 14 -6 27 -10 22 -7 23 -6 17 31 -11 72 -17 220 -7 199
37 -84 51 -157 51 -270 0 -130 16 -185 52 -185 18 0 20 4 13 38 -4 20 -9 84
-11 142 -2 58 -6 111 -9 118 -3 7 0 10 5 7 6 -3 10 -13 10 -21 0 -8 7 -17 16
-21 8 -3 13 -12 10 -19 -3 -8 4 -51 15 -95 11 -45 21 -104 21 -131 1 -27 5
-51 10 -54 5 -3 6 -13 3 -23 -3 -9 1 -82 8 -162 8 -79 14 -157 14 -172 1 -35
31 -71 48 -57 6 5 10 22 9 37 -2 15 -8 84 -13 153 -23 265 -32 329 -62 455
-31 128 -31 123 -8 93 16 -22 26 -27 45 -22 20 5 24 2 25 -17 2 -29 4 -44 22
-134 14 -69 26 -140 47 -280 22 -142 20 -137 46 -132 13 2 24 4 25 3 1 -2 21
-302 24 -351 3 -70 25 -135 44 -135 30 0 44 17 37 41 -8 24 -11 54 -36 293
-15 148 -2 172 28 49 12 -48 24 -106 27 -128 15 -109 38 -212 51 -226 8 -8 14
-23 14 -31 0 -23 26 -42 36 -26 4 7 14 23 22 35 13 21 12 24 -9 32 l-24 10 23
7 c13 4 22 14 22 26 0 16 -5 19 -24 14 -21 -5 -25 -1 -36 42 -16 62 -22 125
-10 97 5 -11 9 -30 9 -42 1 -33 19 -38 41 -11 l19 23 1 -42 c0 -31 4 -43 15
-43 8 0 15 6 15 14 0 8 16 24 35 36 32 19 35 26 36 68 1 26 3 38 6 27 12 -55
26 -85 39 -85 16 0 18 31 5 78 -5 17 -6 32 -2 32 13 0 29 -23 36 -53 9 -36 23
-43 40 -21 12 17 16 17 36 5 20 -12 24 -11 34 3 7 9 19 16 28 16 9 0 18 4 21
9 4 5 23 5 48 -1 23 -5 53 -6 65 -3 14 3 39 -3 62 -15 28 -14 42 -16 47 -9 4
7 -1 16 -10 21 -10 6 -16 22 -16 48 0 30 -4 40 -16 40 -11 0 -14 6 -8 23 9 31
11 32 38 19 19 -8 24 -18 23 -39 -2 -25 1 -28 28 -28 27 0 30 4 33 32 3 28 -2
36 -32 54 -36 21 -36 22 -8 68 1 3 13 -6 26 -18 13 -12 27 -21 32 -20 41 7 90
-47 96 -106 3 -25 0 -30 -18 -27 -12 1 -27 -5 -35 -14 -12 -15 -11 -19 9 -32
12 -8 22 -21 22 -28 0 -12 -4 -12 -23 0 -31 21 -57 5 -39 -24 20 -32 14 -45
-11 -22 -45 43 -72 11 -32 -37 36 -42 31 -45 -9 -5 -19 19 -41 34 -50 34 -24
0 -19 -34 9 -60 14 -13 23 -25 21 -27 -2 -2 -18 10 -36 27 -56 52 -93 30 -40
-25 l31 -32 -26 -5 c-22 -5 -26 -2 -22 12 5 20 -54 85 -66 74 -13 -14 -7 -36
18 -66 14 -16 23 -34 19 -39 -10 -17 -30 -9 -47 21 -29 48 -77 64 -77 25 0 -8
-7 -11 -19 -8 -31 8 -34 -15 -6 -48 14 -18 23 -34 20 -38 -4 -3 -11 2 -16 12
-14 24 -58 67 -70 67 -5 0 -12 -6 -15 -14 -3 -8 -12 -12 -20 -9 -22 8 -27 -23
-9 -51 9 -14 15 -31 12 -38 -4 -9 -6 -8 -6 3 -1 9 -10 24 -21 34 -18 16 -23
17 -48 4 -15 -8 -32 -20 -38 -28 -8 -10 -13 -11 -18 -3 -4 7 -14 12 -22 12
-16 0 -20 -45 -4 -55 15 -9 12 -25 -4 -25 -8 0 -17 9 -21 19 -3 11 -13 22 -21
25 -16 6 -29 -16 -21 -38 5 -13 -10 -36 -24 -36 -4 0 -10 11 -13 25 -7 28 -31
34 -40 10 -3 -8 -3 -29 1 -45 3 -18 1 -30 -5 -30 -6 0 -12 15 -14 33 -2 24 -8
32 -23 32 -17 0 -20 -6 -17 -36 2 -22 -2 -40 -9 -45 -9 -5 -10 -2 -6 9 4 10 2
28 -3 41 -7 19 -15 23 -42 22 -29 -1 -33 -5 -36 -34 -2 -19 -9 -32 -17 -32
-10 0 -12 9 -8 35 3 20 0 49 -8 67 -8 18 -14 47 -14 63 0 24 -5 31 -24 33 -13
2 -27 -1 -30 -7 -5 -7 -20 -7 -49 1 -44 11 -47 14 -33 37 13 20 2 41 -20 41
-18 0 -23 -10 -20 -37 1 -7 -5 -13 -14 -13 -11 0 -14 6 -9 25 3 14 3 37 0 51
-7 25 -8 26 -26 9 -20 -18 -20 -17 -20 19 0 32 -3 36 -19 31 -13 -4 -20 0 -24
16 -7 24 -26 21 -41 -7 -15 -26 -26 -33 -43 -27 -9 4 -18 -6 -26 -26 -18 -48
-31 -37 -24 20 6 49 5 51 -29 71 -37 22 -60 53 -45 62 5 3 8 47 7 98 -1 80 -4
97 -24 124 -23 30 -23 32 -27 415 -3 211 -6 393 -7 404 -3 17 4 20 44 23 25 2
52 10 58 18 17 19 21 19 92 -20z m-318 -2 c3 -9 4 -19 1 -23 -2 -5 -5 -116 -6
-247 -1 -174 -5 -246 -14 -264 -7 -14 -16 -42 -19 -62 -3 -21 -15 -79 -25
-130 -11 -52 -22 -149 -24 -219 -2 -70 -7 -131 -11 -137 -9 -16 16 -52 36 -52
22 0 28 23 25 90 -4 79 9 229 28 314 9 40 15 80 14 87 -1 8 3 28 10 44 7 17
15 39 17 50 2 11 6 32 10 47 3 15 6 108 7 207 2 162 7 204 22 190 2 -3 5 -104
5 -225 0 -120 0 -261 0 -311 1 -51 -4 -109 -9 -130 -8 -29 -7 -44 7 -72 11
-24 16 -62 17 -114 0 -47 4 -81 11 -85 15 -9 12 -58 -6 -94 -11 -23 -10 -31 4
-52 20 -32 20 -44 0 -42 -25 2 -26 -15 -4 -51 24 -40 40 -42 40 -6 0 16 4 23
9 18 12 -14 23 -66 14 -63 -5 0 -21 -4 -36 -10 -16 -7 -40 -12 -55 -12 -15 -1
-38 -7 -51 -14 -13 -7 -32 -11 -43 -8 -27 7 -50 -17 -43 -45 6 -26 0 -28 -35
-8 -14 8 -31 14 -38 15 -16 0 -32 -41 -41 -105 l-7 -50 -8 58 c-5 42 -12 57
-23 57 -13 0 -15 -9 -11 -50 3 -27 2 -50 -2 -50 -10 0 -20 37 -20 73 0 17 -5
27 -14 27 -19 0 -30 -34 -22 -67 5 -16 3 -22 -4 -18 -5 3 -10 22 -10 41 0 24
-5 34 -15 34 -8 0 -15 -4 -15 -10 0 -5 -4 -10 -10 -10 -5 0 -10 11 -10 23 0
30 -10 40 -26 26 -8 -7 -14 -7 -19 1 -12 20 -35 -10 -35 -47 0 -20 -4 -32 -10
-28 -5 3 -10 26 -10 51 0 32 -4 44 -15 44 -11 0 -15 -11 -15 -37 0 -53 -11
-34 -12 21 0 25 -4 46 -8 46 -13 0 -32 -47 -30 -76 3 -44 1 -48 -16 -33 -11 9
-15 27 -13 63 2 39 0 51 -11 51 -15 0 -34 -79 -25 -103 3 -8 0 -12 -7 -10 -8
3 -14 26 -16 56 -4 72 -32 65 -32 -8 0 -16 -5 -32 -10 -35 -16 -10 -32 46 -25
87 5 25 3 38 -4 38 -15 0 -31 -43 -31 -81 0 -16 -4 -29 -10 -29 -13 0 -13 63
0 76 8 8 6 15 -5 24 -21 17 -35 -1 -35 -45 0 -30 -15 -55 -32 -55 -13 0 -9 39
8 64 11 18 12 26 3 32 -14 8 -37 -19 -46 -53 -3 -13 -10 -23 -15 -23 -6 0 -8
10 -4 23 18 62 19 80 5 75 -14 -4 -33 -36 -43 -70 -3 -11 -11 -15 -21 -12 -13
5 -12 10 5 34 24 34 25 50 5 50 -9 0 -23 -16 -32 -35 -16 -34 -36 -45 -47 -26
-3 4 3 16 14 26 20 18 28 55 11 55 -5 0 -16 -11 -25 -25 -13 -20 -22 -24 -39
-19 -42 12 -50 28 -27 56 24 31 25 38 6 38 -8 0 -23 -11 -34 -25 -34 -43 -60
-23 -27 21 8 10 15 24 15 31 0 21 -30 2 -46 -29 -12 -22 -19 -27 -27 -19 -8 8
-5 19 11 41 12 16 22 34 22 40 0 20 -31 9 -42 -15 -14 -32 -19 -31 -46 5 -22
30 -30 90 -12 90 17 0 11 28 -7 32 -15 3 -12 10 17 39 19 20 47 50 62 68 19
22 35 31 57 31 17 0 31 -5 31 -11 0 -23 25 -1 30 26 6 35 27 44 32 14 6 -42
28 -34 28 10 0 48 13 54 26 10 12 -41 29 -33 29 15 0 50 17 56 34 11 18 -50
35 -45 29 10 -4 35 -2 45 9 45 8 0 12 -4 9 -9 -3 -4 1 -17 9 -27 13 -18 14
-18 20 -1 4 9 5 26 2 37 -3 11 -1 20 4 20 5 0 9 -5 9 -12 0 -14 30 -48 42 -48
5 0 8 17 6 37 -3 36 -2 37 59 62 59 25 113 62 113 79 0 4 9 13 20 20 18 11 19
10 14 -17 -7 -34 7 -46 36 -31 22 12 27 49 8 68 -15 15 -3 27 32 35 24 6 25 4
27 -40 2 -44 -26 -121 -34 -95 -8 21 -33 13 -34 -10 -1 -17 -2 -19 -6 -5 -2 9
-8 17 -13 17 -13 0 -19 -25 -14 -71 l4 -44 -13 49 c-7 30 -21 54 -34 63 -21
14 -23 14 -33 -11 -5 -15 -11 -48 -12 -73 -1 -41 -3 -44 -15 -27 -7 10 -13 26
-13 35 0 26 -19 33 -40 14 -25 -23 -40 -89 -29 -128 8 -29 6 -34 -31 -67 -22
-19 -42 -46 -44 -60 -3 -24 -6 -25 -80 -28 -76 -3 -77 -2 -74 20 2 18 -1 22
-17 20 -36 -5 -45 -11 -45 -28 0 -31 31 -54 74 -55 l41 -1 -33 -14 c-18 -8
-32 -20 -29 -27 9 -28 141 -17 227 20 30 14 40 23 38 38 -3 25 10 47 24 39 6
-4 14 0 19 7 6 10 9 11 9 2 0 -16 27 -17 32 -2 6 17 38 -2 38 -22 0 -11 7 -22
15 -25 11 -5 13 -16 8 -50 -4 -30 -2 -44 6 -44 6 0 14 7 17 15 10 25 25 17 22
-11 -2 -15 3 -29 10 -31 12 -5 18 32 13 85 -1 12 3 22 8 22 15 0 26 -46 25
-102 -1 -72 22 -61 31 15 5 34 7 68 6 75 -1 6 5 12 14 12 13 0 15 -7 9 -37 -4
-21 -11 -46 -16 -56 -5 -10 -6 -28 -2 -40 4 -12 7 -30 5 -39 -1 -10 4 -18 12
-18 16 0 30 58 29 113 0 15 4 25 9 22 5 -4 9 -16 9 -29 0 -12 5 -27 12 -34 13
-13 54 -16 62 -4 2 4 1 49 -3 99 -4 51 -4 119 0 153 5 33 13 118 19 188 8 108
41 293 80 447 5 22 10 54 10 71 0 19 6 34 15 38 8 3 15 12 15 21 0 9 -7 18
-15 21 -8 4 -15 9 -15 13 0 6 52 33 55 28 6 -7 -19 -173 -35 -232 -10 -38 -21
-95 -25 -125 -4 -30 -18 -91 -31 -135 -25 -83 -59 -347 -49 -374 3 -8 6 -53 6
-99 0 -94 4 -112 27 -112 9 0 25 -9 37 -20 19 -18 24 -19 34 -6 15 18 5 56
-14 56 -31 0 -34 92 -3 112 21 14 23 25 29 169 7 144 15 216 54 494 27 202 34
279 24 292 -6 7 -6 13 -1 17 5 3 7 38 4 77 -4 54 -2 73 9 80 22 14 46 11 53
-7z m-119 -130 c-9 -7 -14 -17 -11 -22 3 -6 -2 -8 -14 -5 -26 7 -26 23 0 30
16 4 20 13 19 47 -2 62 2 66 14 12 8 -43 7 -51 -8 -62z m710 41 c36 -66 43
-81 49 -107 4 -17 2 -28 -4 -28 -6 0 -15 12 -20 28 -20 53 -34 73 -50 70 -22
-4 -50 20 -50 42 0 10 -7 24 -16 31 -15 12 -14 14 7 20 29 7 62 -15 84 -56z
m-75 -97 c21 -23 26 -38 11 -38 -13 0 -61 59 -61 74 0 23 14 27 22 6 4 -11 17
-30 28 -42z m190 -2 c0 -7 -7 -21 -15 -32 -13 -18 -14 -16 -15 25 0 37 2 42
15 31 8 -7 15 -18 15 -24z m-982 -368 c-6 -18 -28 -21 -28 -4 0 9 7 16 16 16
9 0 14 -5 12 -12z m1196 -69 c7 -16 29 -29 63 -39 29 -9 54 -18 56 -20 2 -3
-10 -18 -26 -34 -22 -21 -28 -24 -25 -10 2 11 -9 26 -32 40 -19 12 -49 34 -66
48 -18 14 -39 26 -47 26 -9 0 -19 4 -22 10 -4 6 12 8 41 6 36 -3 49 -9 58 -27z
m-244 1 c0 -5 -2 -10 -4 -10 -3 0 -8 5 -11 10 -3 6 -1 10 4 10 6 0 11 -4 11
-10z m136 -61 c3 -6 2 -15 -4 -21 -7 -7 -14 -3 -21 11 -10 17 -9 21 3 21 8 0
18 -5 22 -11z m448 -74 c8 -19 19 -35 23 -35 44 -1 145 -23 188 -41 53 -22 53
-22 37 -45 -24 -33 -42 -30 -42 6 0 36 -12 38 -33 8 -16 -23 -16 -23 -16 10
-1 35 -11 41 -31 17 -9 -11 -16 -13 -24 -5 -15 15 -24 12 -31 -10 -8 -24 -25
-27 -25 -4 0 26 -35 11 -38 -16 -5 -38 -22 -49 -22 -14 0 16 -5 36 -10 44 -17
25 -43 -17 -35 -57 5 -29 3 -33 -17 -33 -17 0 -19 3 -10 12 15 15 16 55 0 64
-14 9 -40 -26 -35 -46 3 -8 6 -21 8 -29 2 -8 -4 -17 -14 -19 -15 -3 -17 1 -11
22 3 15 1 32 -6 41 -9 11 -3 18 39 39 28 15 57 26 64 26 25 0 39 26 22 40 -8
7 -15 18 -15 25 0 32 -70 22 -147 -21 -24 -13 -43 -20 -43 -16 0 12 80 56 115
63 17 4 45 7 62 8 28 1 35 -4 47 -34z m-1444 -96 c-7 -54 -15 -99 -17 -99 -6
0 3 124 14 185 13 76 15 13 3 -86z m1647 98 c4 -7 0 -8 -11 -4 -10 4 -22 7
-27 7 -5 0 -9 4 -9 9 0 12 38 2 47 -12z m-1970 -84 c-3 -10 -5 -2 -5 17 0 19
2 27 5 18 2 -10 2 -26 0 -35z m1391 -16 c17 2 22 -3 22 -20 0 -20 -6 -23 -39
-25 -39 -3 -40 -1 -47 34 -8 44 13 66 31 31 7 -14 19 -21 33 -20z m-1332 -3
c-4 -9 -9 -15 -11 -12 -3 3 -3 13 1 22 4 9 9 15 11 12 3 -3 3 -13 -1 -22z
m1444 6 c0 -4 -7 -13 -15 -20 -13 -11 -15 -8 -15 13 0 19 4 25 15 21 8 -4 15
-10 15 -14z m100 -30 c0 -5 -4 -11 -9 -14 -5 -3 -7 -15 -4 -26 6 -22 -4 -25
-41 -11 l-25 10 27 29 c24 27 52 33 52 12z m-120 -20 c0 -5 -5 -10 -11 -10 -5
0 -7 5 -4 10 3 6 8 10 11 10 2 0 4 -4 4 -10z m-1380 -19 c0 -24 -18 -37 -32
-23 -8 8 -7 16 2 27 17 21 30 19 30 -4z m1765 -1 c3 -6 -1 -7 -10 -4 -8 4 -23
0 -33 -7 -15 -13 -16 -12 -3 4 15 19 36 22 46 7z m68 -6 c9 -9 -12 -46 -23
-39 -12 8 -8 45 5 45 7 0 15 -3 18 -6z m-2088 -14 c3 -5 1 -10 -4 -10 -6 0
-11 5 -11 10 0 6 2 10 4 10 3 0 8 -4 11 -10z m1930 -91 c14 -5 3 -8 -36 -8
-35 -1 -62 4 -75 14 -17 15 -15 15 36 9 30 -4 64 -10 75 -15z m-1912 -9 c-3
-11 -9 -17 -14 -15 -10 7 -1 35 11 35 5 0 6 -9 3 -20z m34 -12 c-3 -8 -6 -5
-6 6 -1 11 2 17 5 13 3 -3 4 -12 1 -19z m53 3 c0 -6 -4 -13 -10 -16 -5 -3 -10
1 -10 9 0 9 5 16 10 16 6 0 10 -4 10 -9z m55 -11 c-3 -5 -13 -10 -21 -10 -8 0
-12 5 -9 10 3 6 13 10 21 10 8 0 12 -4 9 -10z m84 -21 c-19 -12 -69 -11 -69 0
0 10 58 20 74 12 4 -2 2 -7 -5 -12z m601 -107 c0 -13 -3 -12 -15 4 -19 25 -19
40 0 24 8 -7 15 -20 15 -28z m188 -84 c7 1 12 -3 12 -9 0 -6 -7 -8 -16 -5 -9
3 -18 6 -20 6 -2 0 -4 12 -3 28 l1 27 7 -25 c4 -14 13 -24 19 -22z m970 -59
c-3 -8 -7 -3 -11 10 -4 17 -3 21 5 13 5 -5 8 -16 6 -23z m-1038 6 c0 -8 -4
-15 -10 -15 -5 0 -10 7 -10 15 0 8 5 15 10 15 6 0 10 -7 10 -15z m930 -35 c0
-5 -4 -10 -10 -10 -5 0 -10 5 -10 10 0 6 5 10 10 10 6 0 10 -4 10 -10z m-921
-25 c16 -8 31 -23 34 -35 5 -18 13 -20 74 -19 116 2 170 -32 110 -70 -36 -23
-60 -12 -33 14 16 16 14 35 -4 35 -5 0 -7 -7 -4 -15 4 -9 0 -15 -10 -15 -10 0
-13 6 -10 15 4 8 1 15 -5 15 -6 0 -11 -4 -11 -10 0 -18 -20 -11 -21 8 0 12 -3
11 -10 -6 -5 -13 -7 -28 -3 -33 3 -5 0 -9 -5 -9 -6 0 -11 -8 -11 -18 0 -10 -9
-25 -20 -35 -22 -19 -24 -26 -10 -47 8 -12 10 -11 10 7 0 30 20 40 36 18 10
-14 11 -22 2 -32 -6 -8 -14 -30 -17 -51 -5 -28 -12 -38 -31 -42 -14 -4 -30 -3
-37 2 -16 13 -83 -1 -83 -17 0 -16 22 -25 61 -25 19 0 29 -5 29 -15 0 -9 9
-15 23 -15 18 0 19 2 7 11 -12 8 -11 9 5 6 11 -2 19 -8 18 -15 -2 -6 4 -9 11
-6 18 7 49 -38 44 -63 -2 -10 -10 -17 -16 -15 -7 1 -12 -5 -12 -13 0 -12 4
-14 20 -5 10 6 23 18 29 28 5 9 12 14 16 11 3 -4 -10 -24 -30 -44 -19 -21 -38
-50 -41 -64 -5 -23 -3 -22 12 7 17 33 29 38 52 23 15 -9 18 -35 9 -73 -5 -17
-3 -28 3 -28 5 0 10 6 10 13 1 32 18 -24 23 -75 5 -53 4 -56 -13 -46 -10 7
-16 17 -13 24 6 17 -34 43 -59 36 -11 -2 -24 1 -28 8 -6 9 -10 6 -15 -10 -4
-14 -3 -25 5 -30 8 -5 4 -9 -10 -13 -12 -3 -19 -10 -15 -16 3 -6 -1 -11 -9
-11 -10 0 -13 6 -10 15 4 8 2 15 -4 15 -16 0 -20 -23 -6 -37 15 -16 7 -50 -18
-75 -10 -10 -23 -31 -29 -46 -9 -24 -11 -25 -20 -9 -13 22 -33 22 -27 -1 5
-17 3 -17 -35 2 -22 11 -35 22 -29 24 7 2 12 13 12 25 -1 21 -1 21 -14 4 -8
-10 -22 -17 -33 -15 -22 4 -52 60 -59 108 -2 19 -9 39 -14 44 -15 15 -12 23
10 29 17 4 18 9 9 36 -12 33 -4 86 10 76 5 -2 12 2 15 11 8 22 7 36 -2 30 -5
-3 -6 8 -4 25 2 16 7 29 11 29 3 0 7 11 7 23 1 13 14 44 29 68 15 24 21 38 14
32 -21 -20 -26 -15 -21 20 3 17 1 29 -4 24 -4 -4 -9 -17 -11 -30 -2 -12 -9
-26 -15 -32 -7 -7 -9 -7 -5 1 3 5 7 34 8 63 2 28 6 54 11 57 4 3 8 15 7 27 0
21 -1 21 -9 2 -7 -16 -9 -13 -9 18 -1 44 -17 48 -33 10 -10 -24 -12 -25 -16
-9 -8 38 -68 81 -96 70 -11 -4 -14 0 -11 15 6 30 14 41 32 41 10 0 14 -6 10
-20 -5 -20 18 -48 30 -36 3 3 1 6 -6 6 -21 0 -7 55 15 57 53 4 157 33 186 51
40 26 33 25 67 7z m759 -30 c-3 -3 -9 2 -12 12 -6 14 -5 15 5 6 7 -7 10 -15 7
-18z m-1459 -77 c-1 -39 -2 -41 -8 -13 -4 17 -5 36 -3 43 8 23 12 12 11 -30z
m253 0 c-9 -9 -12 -7 -12 12 0 19 3 21 12 12 9 -9 9 -15 0 -24z m203 -438 c-4
-12 -9 -19 -12 -17 -3 3 -2 15 2 27 4 12 9 19 12 17 3 -3 2 -15 -2 -27z m-18
-52 c-3 -8 -6 -5 -6 6 -1 11 2 17 5 13 3 -3 4 -12 1 -19z m510 -40 c-3 -8 -6
-5 -6 6 -1 11 2 17 5 13 3 -3 4 -12 1 -19z m86 -30 c28 -38 25 -110 -9 -181
-24 -49 -26 -62 -17 -86 8 -21 7 -36 -3 -61 -8 -17 -15 -62 -16 -100 -2 -49
-6 -66 -15 -63 -7 3 -13 -1 -13 -9 0 -8 -9 -23 -20 -33 -11 -10 -20 -13 -20
-7 0 18 33 82 42 82 4 0 8 7 8 15 0 25 -22 17 -56 -22 -38 -43 -49 -75 -34
-103 13 -25 26 -25 40 -2 9 14 10 13 4 -8 -4 -14 -8 -44 -9 -67 -2 -56 -8 -60
-36 -22 -19 26 -21 36 -12 59 6 16 7 34 2 41 -15 24 -10 65 11 92 11 14 20 37
20 52 0 24 2 26 16 14 21 -17 31 0 26 46 -3 26 -8 35 -18 31 -8 -3 -14 1 -14
9 0 30 -20 14 -31 -26 -7 -22 -23 -48 -35 -58 -19 -15 -22 -26 -19 -69 3 -52
-8 -82 -48 -143 -16 -25 -16 -27 3 -49 27 -31 25 -56 -5 -84 -16 -15 -25 -35
-27 -63 -2 -25 -7 -39 -14 -36 -17 6 -24 -10 -26 -61 -1 -24 -6 -43 -10 -40
-13 8 -20 93 -10 122 7 21 6 35 -5 55 -7 15 -11 32 -7 38 3 6 -4 13 -15 16
l-22 6 20 18 c11 11 25 19 31 19 7 0 8 25 4 78 -5 61 -2 87 11 122 10 25 21
77 25 115 4 39 7 64 8 58 3 -18 22 -16 22 2 0 8 4 15 8 15 5 0 14 11 20 25 6
14 18 25 27 25 8 0 15 7 15 15 0 19 -19 19 -26 0 -4 -8 -10 -12 -15 -9 -6 3
-16 0 -24 -6 -17 -14 -20 1 -4 17 8 8 8 13 0 18 -6 3 -14 -1 -17 -9 -3 -9 -12
-16 -19 -16 -9 0 -8 10 6 37 10 21 19 45 19 55 0 15 4 17 19 9 10 -6 20 -9 22
-7 2 2 21 6 43 9 34 5 38 4 33 -13 -3 -11 -2 -20 3 -20 4 0 5 -12 3 -27 -4
-27 -4 -27 11 -9 9 11 12 24 8 30 -4 6 -7 18 -6 26 1 8 2 21 3 28 2 20 21 3
21 -19 0 -21 19 -27 21 -6 0 9 2 9 6 0 2 -7 -9 -32 -25 -55 -16 -24 -33 -54
-37 -68 -4 -14 -13 -28 -19 -32 -8 -5 -8 -10 0 -18 10 -10 45 27 85 90 24 38
41 128 33 179 -8 55 4 49 17 -8 6 -29 5 -59 -7 -107 -23 -101 -2 -103 35 -4
31 80 24 144 -17 177 -12 10 -13 13 -3 10 8 -2 23 -15 34 -29z m-579 -130 c3
-27 2 -48 -3 -48 -4 0 -8 6 -9 13 -12 79 -13 101 -4 92 5 -5 12 -31 16 -57z
m221 -318 c-6 -42 -9 -50 -15 -34 -5 11 -4 42 1 68 5 26 8 50 8 54 -1 4 0 25
2 47 2 32 4 28 7 -20 2 -33 0 -85 -3 -115z m226 73 c-12 -20 -14 -14 -5 12 4
9 9 14 11 11 3 -2 0 -13 -6 -23z m-271 -138 c0 -14 -4 -25 -10 -25 -5 0 -10
11 -10 25 0 14 5 25 10 25 6 0 10 -11 10 -25z m30 -90 c-16 -20 -41 -19 -34 0
4 8 12 15 20 15 8 0 15 8 15 18 1 16 2 16 6 -1 3 -10 -1 -24 -7 -32z m-419
-48 c-13 -12 -20 -15 -16 -7 14 26 28 41 33 35 3 -3 -5 -16 -17 -28z m809 -70
c0 -2 -6 -4 -12 -4 -7 0 -19 -2 -27 -4 -16 -5 -29 29 -30 81 l-1 35 35 -52
c19 -29 35 -54 35 -56z m-627 11 c-24 -69 -67 -144 -72 -123 -3 19 35 105 48
105 3 0 12 14 18 30 17 46 23 36 6 -12z m397 -43 c-6 -15 -13 -26 -16 -23 -2
3 0 18 6 33 6 15 13 26 16 23 2 -3 0 -18 -6 -33z m105 25 c-3 -5 -11 -10 -16
-10 -6 0 -7 5 -4 10 3 6 11 10 16 10 6 0 7 -4 4 -10z m-20 -64 c0 -25 -3 -40
-7 -33 -13 20 -8 78 6 77 1 0 1 -20 1 -44z m-440 17 c-16 -39 -35 -107 -30
-111 2 -2 -2 -11 -10 -19 -16 -15 -35 -10 -35 10 -1 18 64 137 74 137 4 0 5
-8 1 -17z m342 -50 c-3 -10 -5 -4 -5 12 0 17 2 24 5 18 2 -7 2 -21 0 -30z
m-292 -114 c11 -16 1 -19 -13 -3 -7 8 -8 14 -3 14 5 0 13 -5 16 -11z m-118
-348 c-13 -28 -48 -35 -54 -11 -3 10 -2 11 4 3 13 -18 45 11 43 39 -3 37 1 45
11 19 6 -16 5 -31 -4 -50z m60 53 c-3 -3 -12 -4 -19 -1 -8 3 -5 6 6 6 11 1 17
-2 13 -5z m131 -119 c-8 -17 -15 -22 -21 -16 -7 7 -6 15 3 26 20 24 31 18 18
-10z m-178 -5 c0 -11 -7 -20 -15 -20 -13 0 -14 4 -5 20 6 11 13 20 15 20 3 0
5 -9 5 -20z m88 -28 c3 -34 0 -41 -12 -36 -11 4 -16 19 -16 46 0 54 24 45 28
-10z m-107 -22 c-12 -7 -11 -11 2 -25 21 -20 22 -51 2 -59 -8 -3 -15 -10 -15
-15 0 -7 9 -7 26 -1 33 13 32 13 45 -12 9 -19 9 -21 -2 -10 -23 21 -57 14 -72
-15 -8 -16 -12 -33 -10 -40 2 -6 -1 -14 -6 -18 -7 -4 -11 4 -11 19 0 16 -6 26
-15 26 -12 0 -15 13 -15 56 l0 55 25 -27 25 -26 10 26 c13 34 13 37 -2 34 -18
-4 -16 36 2 43 20 9 28 0 11 -11z m496 -42 c-3 -7 -5 -2 -5 12 0 14 2 19 5 13
2 -7 2 -19 0 -25z m-297 -8 c0 -4 -6 -10 -14 -13 -10 -4 -12 0 -9 14 5 18 23
18 23 -1z m104 -106 c6 -21 11 -25 32 -21 16 3 23 0 21 -7 -5 -15 -52 -20 -75
-7 -13 7 -22 7 -30 -1 -9 -9 -12 -9 -12 -1 0 14 28 43 41 43 6 0 7 5 4 10 -3
6 -2 10 3 10 6 0 13 -12 16 -26z"/>
<path d="M270 8205 c0 -8 2 -15 4 -15 2 0 6 7 10 15 3 8 1 15 -4 15 -6 0 -10
-7 -10 -15z"/>
<path d="M240 8190 c0 -5 5 -10 11 -10 5 0 7 5 4 10 -3 6 -8 10 -11 10 -2 0
-4 -4 -4 -10z"/>
<path d="M168 8157 c5 -20 6 -20 13 -1 4 10 8 13 8 7 1 -7 6 -13 13 -13 9 0 9
3 0 12 -21 21 -40 18 -34 -5z"/>
<path d="M1378 8279 c-16 -10 -10 -15 29 -22 30 -6 32 -5 22 12 -12 19 -30 23
-51 10z"/>
<path d="M1485 8280 c-8 -13 -1 -24 14 -19 6 3 7 10 2 18 -6 10 -10 10 -16 1z"/>
<path d="M1185 8270 c3 -5 8 -10 11 -10 2 0 4 5 4 10 0 6 -5 10 -11 10 -5 0
-7 -4 -4 -10z"/>
<path d="M1445 8270 c3 -5 11 -10 16 -10 6 0 7 5 4 10 -3 6 -11 10 -16 10 -6
0 -7 -4 -4 -10z"/>
<path d="M1355 8251 c-3 -5 2 -11 10 -15 8 -3 17 -1 20 3 3 5 -2 11 -10 15 -8
3 -17 1 -20 -3z"/>
<path d="M1256 8235 c-6 -17 9 -21 19 -5 3 6 11 10 16 10 6 0 7 -5 3 -11 -4
-7 -1 -10 6 -7 8 2 16 10 18 16 6 18 -55 15 -62 -3z"/>
<path d="M1458 8223 c6 -2 18 -2 25 0 6 3 1 5 -13 5 -14 0 -19 -2 -12 -5z"/>
<path d="M1550 8209 c0 -5 5 -7 10 -4 6 3 10 8 10 11 0 2 -4 4 -10 4 -5 0 -10
-5 -10 -11z"/>
<path d="M1655 8210 c-3 -5 -2 -10 4 -10 5 0 13 5 16 10 3 6 2 10 -4 10 -5 0
-13 -4 -16 -10z"/>
<path d="M869 8208 c-8 -25 -2 -47 13 -51 27 -7 32 10 7 24 -17 9 -19 13 -8
20 10 6 11 9 2 9 -7 0 -13 -1 -14 -2z"/>
<path d="M1510 8200 c0 -5 5 -10 10 -10 6 0 10 5 10 10 0 6 -4 10 -10 10 -5 0
-10 -4 -10 -10z"/>
<path d="M827 8183 c-12 -12 -7 -22 8 -17 8 4 15 10 15 15 0 11 -14 12 -23 2z"/>
<path d="M870 8139 c0 -11 21 -11 39 0 9 6 5 9 -13 9 -14 0 -26 -4 -26 -9z"/>
<path d="M2560 8290 c0 -5 5 -10 10 -10 6 0 10 5 10 10 0 6 -4 10 -10 10 -5 0
-10 -4 -10 -10z"/>
<path d="M2910 8149 c0 -14 26 -16 37 -4 9 10 7 13 -13 11 -13 0 -24 -4 -24
-7z"/>
<path d="M2390 8180 c0 -5 5 -10 11 -10 5 0 7 5 4 10 -3 6 -8 10 -11 10 -2 0
-4 -4 -4 -10z"/>
<path d="M2350 8176 c0 -2 7 -7 16 -10 8 -3 12 -2 9 4 -6 10 -25 14 -25 6z"/>
<path d="M2440 8169 c0 -5 5 -7 10 -4 6 3 10 8 10 11 0 2 -4 4 -10 4 -5 0 -10
-5 -10 -11z"/>
<path d="M4390 8230 c0 -6 7 -10 15 -10 8 0 15 2 15 4 0 2 -7 6 -15 10 -8 3
-15 1 -15 -4z"/>
<path d="M4300 8194 c0 -8 5 -12 10 -9 6 4 8 11 5 16 -9 14 -15 11 -15 -7z"/>
<path d="M4615 8170 l-20 -9 20 0 c11 0 29 4 40 9 l20 9 -20 0 c-11 0 -29 -4
-40 -9z"/>
<path d="M4568 8133 c7 -3 16 -2 19 1 4 3 -2 6 -13 5 -11 0 -14 -3 -6 -6z"/>
<path d="M3716 8114 c-2 -6 0 -17 5 -25 7 -12 9 -11 9 2 0 9 10 21 23 26 21
10 21 11 -5 9 -15 0 -30 -6 -32 -12z"/>
<path d="M4505 8110 c-19 -7 -19 -7 3 -14 27 -9 34 -5 24 10 -4 7 -16 8 -27 4z"/>
<path d="M4816 8105 c4 -8 7 -15 9 -15 1 0 8 7 15 15 10 13 9 15 -8 15 -15 0
-20 -5 -16 -15z"/>
<path d="M4775 8100 c4 -6 11 -8 16 -5 14 9 11 15 -7 15 -8 0 -12 -5 -9 -10z"/>
<path d="M4895 8090 c10 -11 20 -18 23 -15 7 6 -18 35 -31 35 -5 0 -2 -9 8
-20z"/>
<path d="M3621 8090 c-9 -5 -7 -9 8 -13 12 -3 23 -2 26 3 7 11 -19 20 -34 10z"/>
<path d="M3560 8080 c20 -13 40 -13 40 0 0 6 -12 10 -27 10 -22 0 -25 -2 -13
-10z"/>
<path d="M4505 8070 c3 -5 8 -10 11 -10 2 0 4 5 4 10 0 6 -5 10 -11 10 -5 0
-7 -4 -4 -10z"/>
<path d="M2217 7663 c-4 -3 -7 -11 -7 -17 0 -6 5 -5 12 2 6 6 9 14 7 17 -3 3
-9 2 -12 -2z"/>
<path d="M2512 7590 c-7 -11 -8 -20 -3 -20 9 0 24 30 18 36 -1 2 -8 -6 -15
-16z"/>
<path d="M2490 7278 c-24 -20 -24 -20 -2 -14 20 7 21 5 12 -18 -11 -31 -2 -66
11 -44 7 10 9 9 9 -4 0 -10 5 -18 11 -18 7 0 5 10 -5 25 -15 23 -14 29 5 27
11 -2 4 61 -6 64 -6 2 -21 -6 -35 -18z"/>
<path d="M2385 7208 c-4 -9 -4 -22 0 -28 9 -15 42 -12 48 5 8 18 -9 30 -19 13
-5 -8 -10 -6 -15 8 -6 17 -8 17 -14 2z"/>
<path d="M2377 7130 c-6 -24 8 -36 17 -14 8 22 7 34 -3 34 -5 0 -11 -9 -14
-20z"/>
<path d="M2550 7125 c0 -5 5 -17 10 -25 5 -8 10 -10 10 -5 0 6 -5 17 -10 25
-5 8 -10 11 -10 5z"/>
<path d="M2547 7061 c-4 -17 -3 -21 5 -13 5 5 8 16 6 23 -3 8 -7 3 -11 -10z"/>
<path d="M2503 7039 c6 -19 -10 -39 -27 -35 -6 2 -8 1 -5 -1 4 -2 5 -12 2 -22
-3 -10 1 -22 7 -26 9 -5 10 -1 6 13 -5 15 -2 22 14 27 22 7 25 22 9 45 -9 13
-10 13 -6 -1z"/>
<path d="M2357 7003 c-12 -12 -7 -22 8 -17 8 4 15 10 15 15 0 11 -14 12 -23 2z"/>
<path d="M2546 6978 c-13 -40 -16 -72 -8 -63 16 17 32 75 21 75 -5 0 -11 -6
-13 -12z"/>
<path d="M2350 6943 c0 -29 12 -24 17 7 2 11 -2 20 -7 20 -6 0 -10 -12 -10
-27z"/>
<path d="M2290 6920 c0 -5 5 -10 10 -10 6 0 10 5 10 10 0 6 -4 10 -10 10 -5 0
-10 -4 -10 -10z"/>
<path d="M2514 6844 c4 -14 3 -31 -3 -37 -9 -12 -15 -51 -11 -72 2 -15 29 86
30 113 0 12 -5 22 -11 22 -7 0 -9 -10 -5 -26z"/>
<path d="M2400 6850 c0 -5 5 -10 10 -10 6 0 10 5 10 10 0 6 -4 10 -10 10 -5 0
-10 -4 -10 -10z"/>
<path d="M2380 6749 c0 -5 5 -7 10 -4 6 3 10 8 10 11 0 2 -4 4 -10 4 -5 0 -10
-5 -10 -11z"/>
<path d="M2460 6683 c0 -5 5 -15 10 -23 8 -12 10 -11 10 8 0 12 -4 22 -10 22
-5 0 -10 -3 -10 -7z"/>
<path d="M2440 6671 c0 -6 4 -13 10 -16 6 -3 7 1 4 9 -7 18 -14 21 -14 7z"/>
<path d="M2432 6599 c-12 -18 -11 -20 5 -17 10 2 19 11 21 21 5 23 -10 21 -26
-4z"/>
<path d="M2276 6291 c-4 -7 -5 -15 -2 -18 9 -9 19 4 14 18 -4 11 -6 11 -12 0z"/>
<path d="M2284 6231 c3 -18 6 -40 6 -47 0 -17 26 -19 36 -3 4 7 -1 16 -10 21
-22 12 -20 27 3 21 27 -7 33 11 9 26 -11 7 -17 8 -13 2 9 -15 -8 -14 -24 2
-11 10 -13 6 -7 -22z"/>
<path d="M2410 6210 c0 -5 5 -10 10 -10 6 0 10 5 10 10 0 6 -4 10 -10 10 -5 0
-10 -4 -10 -10z"/>
<path d="M2286 6144 c-3 -9 -6 -37 -6 -62 0 -34 3 -43 10 -32 5 8 10 27 10 42
0 15 7 33 15 42 20 19 19 26 -4 26 -10 0 -22 -7 -25 -16z"/>
<path d="M2310 6109 c0 -5 5 -7 10 -4 6 3 10 8 10 11 0 2 -4 4 -10 4 -5 0 -10
-5 -10 -11z"/>
<path d="M2381 6064 c0 -11 3 -14 6 -6 3 7 2 16 -1 19 -3 4 -6 -2 -5 -13z"/>
<path d="M2284 5989 c0 -23 5 -35 13 -32 18 7 24 33 8 33 -7 0 -16 8 -18 18
-3 9 -4 1 -3 -19z"/>
<path d="M2270 5900 c0 -5 5 -10 10 -10 6 0 10 5 10 10 0 6 -4 10 -10 10 -5 0
-10 -4 -10 -10z"/>
<path d="M2318 5870 c-3 -16 -1 -30 4 -30 4 0 8 3 9 8 0 4 2 17 3 30 4 33 -11
27 -16 -8z"/>
<path d="M2260 5809 c0 -5 5 -7 10 -4 6 3 10 8 10 11 0 2 -4 4 -10 4 -5 0 -10
-5 -10 -11z"/>
<path d="M455 7489 c-10 -14 -1 -21 19 -13 9 3 13 10 10 15 -7 12 -21 11 -29
-2z"/>
<path d="M255 6949 c-4 -6 -5 -12 -2 -15 2 -3 7 2 10 11 7 17 1 20 -8 4z"/>
<path d="M2310 4745 c-14 -17 -5 -34 24 -45 23 -8 46 4 46 25 0 21 -56 36 -70
20z"/>
<path d="M2317 4673 c-12 -11 -8 -43 6 -44 6 0 2 -4 -10 -9 -13 -5 -23 -16
-23 -25 0 -22 46 -38 72 -24 19 10 20 8 14 -33 -4 -34 -1 -48 15 -67 16 -20
24 -23 37 -14 14 8 17 25 16 93 -2 97 -12 113 -48 77 -27 -28 -41 -25 -23 4 7
12 8 22 2 28 -15 13 -50 22 -58 14z"/>
<path d="M2310 4486 c0 -7 7 -19 15 -26 19 -16 41 1 32 24 -8 20 -47 21 -47 2z"/>
<path d="M2426 3932 c-7 -13 14 -54 26 -50 23 8 21 45 -1 51 -12 3 -23 2 -25
-1z"/>
<path d="M2427 3804 c-10 -10 -9 -63 3 -104 9 -34 23 -306 21 -406 -1 -55 16
-81 45 -70 14 5 15 18 11 84 -3 42 -11 151 -17 242 -13 209 -21 254 -40 258
-9 1 -19 0 -23 -4z"/>
<path d="M3072 3088 c-18 -18 -15 -28 8 -28 13 0 20 7 20 20 0 23 -10 26 -28
8z"/>
<path d="M2749 2954 c-11 -14 -10 -15 11 -12 13 1 25 9 28 16 5 17 -23 15 -39
-4z"/>
<path d="M1025 3261 c-7 -12 12 -24 25 -16 11 7 4 25 -10 25 -5 0 -11 -4 -15
-9z"/>
<path d="M959 3079 c-16 -32 4 -47 25 -18 20 29 20 39 1 39 -8 0 -19 -9 -26
-21z"/>
<path d="M2190 3005 c-6 -8 -8 -20 -4 -27 6 -10 4 -10 -9 1 -19 15 -47 8 -47
-12 0 -8 9 -22 19 -31 19 -17 20 -17 31 4 11 20 12 21 24 4 13 -17 14 -16 25
4 7 14 8 29 1 46 -11 29 -22 33 -40 11z"/>
<path d="M2110 2925 c-7 -9 -10 -18 -7 -22 8 -7 37 15 37 28 0 14 -16 11 -30
-6z"/>
<path d="M2247 2796 c-4 -10 -1 -13 8 -9 8 3 12 9 9 14 -7 12 -11 11 -17 -5z"/>
<path d="M2366 2778 l-19 -33 26 24 c27 24 34 41 19 41 -4 0 -16 -15 -26 -32z"/>
<path d="M2427 2739 c-4 -16 -3 -18 9 -8 16 13 19 29 5 29 -5 0 -11 -9 -14
-21z"/>
<path d="M2347 2723 c-11 -11 -8 -20 7 -20 8 0 12 6 9 14 -6 15 -7 15 -16 6z"/>
<path d="M2390 2680 c11 -7 11 -10 2 -10 -7 0 -10 -5 -6 -11 4 -8 9 -7 15 2 9
15 3 29 -14 29 -7 0 -6 -4 3 -10z"/>
<path d="M2350 2650 c-9 -16 -8 -20 5 -20 8 0 15 9 15 20 0 11 -2 20 -5 20 -2
0 -9 -9 -15 -20z"/>
<path d="M2420 2659 c0 -5 5 -7 10 -4 6 3 10 8 10 11 0 2 -4 4 -10 4 -5 0 -10
-5 -10 -11z"/>
<path d="M2388 2618 c3 -14 7 -16 18 -7 20 16 17 28 -5 26 -12 -1 -17 -7 -13
-19z"/>
<path d="M2435 2630 c3 -5 8 -10 11 -10 2 0 4 5 4 10 0 6 -5 10 -11 10 -5 0
-7 -4 -4 -10z"/>
<path d="M2345 2590 c3 -5 8 -10 11 -10 2 0 4 5 4 10 0 6 -5 10 -11 10 -5 0
-7 -4 -4 -10z"/>
<path d="M2471 2584 c0 -11 3 -14 6 -6 3 7 2 16 -1 19 -3 4 -6 -2 -5 -13z"/>
<path d="M2351 2464 c0 -11 3 -14 6 -6 3 7 2 16 -1 19 -3 4 -6 -2 -5 -13z"/>
<path d="M2500 2450 c0 -17 -6 -20 -42 -19 -35 1 -38 2 -18 8 23 6 24 7 5 15
-15 5 -26 0 -47 -26 -32 -38 -32 -62 0 -66 12 -2 20 -8 17 -13 -8 -11 -11 -12
55 6 68 18 71 18 64 0 -4 -8 -2 -15 4 -15 5 0 10 16 10 35 0 27 -4 35 -18 35
-22 0 -35 16 -20 25 13 8 13 35 0 35 -5 0 -10 -9 -10 -20z"/>
<path d="M2588 2435 c2 -14 8 -25 12 -25 4 0 5 11 2 25 -2 14 -8 25 -12 25 -4
0 -5 -11 -2 -25z"/>
<path d="M2334 2405 c4 -24 13 -27 19 -5 3 13 0 20 -8 20 -7 0 -12 -7 -11 -15z"/>
<path d="M2423 2322 c-18 -9 -33 -20 -33 -24 0 -5 4 -7 9 -3 5 3 13 -4 16 -15
6 -17 12 -20 36 -15 25 6 28 4 23 -12 -6 -16 -5 -16 9 -3 13 13 41 90 32 90
-2 0 -15 -4 -29 -9 -13 -6 -26 -6 -28 -2 -2 5 -18 1 -35 -7z"/>
<path d="M2303 2293 c23 -6 22 -23 -3 -23 -11 0 -20 -7 -20 -15 0 -14 3 -13
25 1 31 20 33 44 3 43 -17 -1 -19 -2 -5 -6z"/>
<path d="M2337 2229 c-6 -22 2 -24 28 -6 17 13 17 14 -3 19 -14 4 -22 0 -25
-13z"/>
<path d="M2416 2241 c-3 -4 -5 -24 -4 -43 1 -19 -2 -40 -6 -46 -10 -16 -27
-15 -23 1 3 18 -54 21 -78 4 -16 -13 -17 -17 -6 -31 12 -14 12 -16 -3 -10 -19
7 -19 4 -6 -32 10 -25 12 -26 23 -10 12 16 14 16 26 2 9 -11 23 -14 49 -10 31
5 34 4 24 -8 -15 -19 -3 -31 16 -16 11 10 17 9 27 -5 8 -11 16 -14 19 -8 4 5
-3 16 -14 24 -17 12 -19 19 -10 41 25 67 -4 195 -34 147z"/>
<path d="M2650 2215 c0 -8 2 -15 4 -15 2 0 6 7 10 15 3 8 1 15 -4 15 -6 0 -10
-7 -10 -15z"/>
<path d="M2482 2195 c-15 -32 -16 -99 -2 -90 5 3 14 20 18 38 6 19 15 31 23
29 9 -2 7 5 -6 20 -11 13 -20 24 -21 26 0 1 -6 -9 -12 -23z"/>
<path d="M2620 2000 c0 -5 5 -10 10 -10 6 0 10 5 10 10 0 6 -4 10 -10 10 -5 0
-10 -4 -10 -10z"/>
<path d="M2730 1970 c0 -5 5 -10 11 -10 5 0 7 5 4 10 -3 6 -8 10 -11 10 -2 0
-4 -4 -4 -10z"/>
<path d="M2732 1925 l-22 -22 20 -24 c17 -20 21 -22 30 -9 11 17 14 81 3 79
-5 -1 -18 -11 -31 -24z"/>
<path d="M2602 1898 c-13 -13 -15 -41 -6 -76 10 -37 28 -19 31 31 3 48 -6 64
-25 45z"/>
<path d="M2556 1863 c-4 -4 -13 -8 -19 -8 -7 0 -15 -22 -19 -50 -3 -27 -13
-67 -22 -87 -21 -49 -21 -117 0 -125 25 -9 34 10 39 83 7 100 16 158 28 165 5
4 8 12 6 18 -3 7 -8 9 -13 4z"/>
<path d="M2557 1764 c-9 -10 -8 -74 3 -99 7 -18 9 -18 19 9 20 50 4 115 -22
90z"/>
<path d="M2506 1558 c-3 -7 -9 -28 -15 -47 -14 -42 -14 -71 -1 -71 5 0 12 11
16 25 5 19 11 24 24 20 28 -9 34 13 14 51 -19 36 -32 43 -38 22z"/>
<path d="M2130 685 c0 -16 16 -20 24 -6 3 5 -1 11 -9 15 -9 3 -15 0 -15 -9z"/>
<path d="M635 7889 c-8 -12 23 -49 41 -49 23 0 25 19 4 40 -22 22 -36 25 -45
9z"/>
<path d="M3011 2600 c-79 -48 -109 -76 -95 -90 6 -6 43 7 109 40 98 49 152 66
111 35 -11 -8 -28 -15 -38 -15 -12 0 -18 -8 -18 -24 0 -20 -8 -27 -42 -40 -24
-8 -54 -17 -68 -18 -17 -2 -26 -10 -28 -25 -3 -21 1 -23 35 -23 50 1 165 52
178 79 6 12 20 24 33 28 28 7 29 39 2 48 -12 4 -19 14 -18 23 2 14 -7 17 -47
19 -43 2 -59 -3 -114 -37z"/>
<path d="M1903 2613 c-16 -6 -17 -33 -1 -33 6 0 9 -2 6 -5 -3 -3 -17 -1 -31 6
-30 13 -77 5 -77 -15 0 -7 19 -21 43 -32 23 -10 54 -27 69 -37 14 -11 31 -16
37 -13 14 9 14 39 0 53 -8 8 0 10 31 6 40 -6 42 -5 38 18 -4 31 -80 66 -115
52z"/>
<path d="M3187 2502 c-10 -10 -17 -26 -17 -35 0 -11 -21 -22 -72 -37 -79 -23
-103 -42 -88 -70 8 -15 15 -15 88 9 85 28 112 44 112 69 0 8 7 24 16 34 14 14
14 20 4 33 -16 19 -23 19 -43 -3z"/>
<path d="M1714 2478 c-7 -12 21 -38 42 -38 6 0 40 -9 74 -20 34 -11 69 -20 76
-20 20 0 17 34 -3 52 -39 32 -173 51 -189 26z"/>
<path d="M1666 2405 c-22 -23 -16 -37 20 -47 185 -52 199 -53 188 -11 -7 25
-18 30 -94 48 -30 8 -64 16 -76 20 -14 4 -27 0 -38 -10z"/>
<path d="M3160 2355 c-108 -22 -120 -27 -131 -46 -14 -27 14 -36 60 -19 20 8
68 19 106 25 59 9 70 14 70 30 0 25 -21 27 -105 10z"/>
<path d="M1613 2293 c-7 -2 -13 -13 -13 -22 0 -14 17 -21 88 -34 176 -33 162
-32 162 -4 0 29 -24 40 -130 57 -70 11 -88 11 -107 3z"/>
<path d="M3205 2254 c-27 -7 -76 -18 -107 -24 -46 -9 -58 -15 -58 -30 0 -10 3
-21 8 -23 10 -6 106 11 164 30 26 8 55 12 66 9 12 -4 25 1 37 14 17 19 17 20
-9 30 -32 12 -36 12 -101 -6z"/>
<path d="M1551 2187 c-26 -33 8 -44 149 -51 41 -2 87 -7 101 -11 35 -9 46 18
19 45 -15 15 -34 20 -72 20 -29 0 -82 3 -118 6 -53 5 -68 3 -79 -9z"/>
<path d="M3110 2140 c-57 -4 -65 -8 -65 -25 0 -19 7 -20 134 -21 107 0 137 3
149 15 13 14 12 16 -14 22 -44 11 -132 15 -204 9z"/>
<path d="M3037 2066 c-11 -27 18 -43 108 -60 108 -19 123 -20 158 -3 49 22 31
34 -57 39 -47 2 -90 9 -98 15 -7 6 -20 10 -28 10 -8 0 -29 3 -46 7 -23 5 -33
3 -37 -8z"/>
<path d="M1578 2062 c-20 -4 -32 -32 -20 -44 13 -13 206 -20 236 -8 24 9 38
48 19 51 -18 3 -220 4 -235 1z"/>
<path d="M3025 2000 c-7 -11 12 -50 25 -50 5 0 21 -11 36 -25 15 -14 33 -25
41 -25 8 0 35 -11 61 -25 54 -29 69 -30 96 -10 18 14 17 15 -20 30 -68 28 -98
43 -154 80 -56 36 -75 42 -85 25z"/>
<path d="M1745 1976 c-80 -19 -164 -58 -171 -78 -10 -31 4 -38 49 -21 23 8 80
25 127 37 77 20 85 24 85 47 0 29 -20 33 -90 15z"/>
<path d="M1760 1884 c-36 -19 -77 -34 -91 -34 -31 0 -79 -39 -79 -64 0 -15 5
-17 28 -11 15 3 41 9 59 12 17 3 39 14 49 24 9 10 27 19 38 19 34 1 101 45
101 66 0 30 -33 26 -105 -12z"/>
<path d="M3021 1896 c-6 -7 -9 -20 -6 -27 9 -23 136 -79 178 -79 44 0 48 13
10 29 -16 6 -57 29 -93 51 -75 45 -74 45 -89 26z"/>
<path d="M2140 1873 c0 -10 5 -36 12 -58 6 -22 11 -45 10 -51 -1 -6 5 -17 13
-24 8 -7 15 -21 15 -31 0 -10 5 -21 11 -25 9 -5 10 1 5 20 -4 17 -3 25 3 22
21 -14 19 14 -4 47 -13 20 -25 53 -27 74 -2 27 -8 39 -20 41 -12 2 -18 -3 -18
-15z"/>
<path d="M1830 1828 c-71 -39 -130 -86 -130 -103 0 -28 21 -25 66 9 26 20 54
36 63 36 9 0 32 13 51 29 31 26 33 31 20 44 -13 13 -22 11 -70 -15z"/>
<path d="M2975 1830 c-9 -28 4 -41 71 -75 31 -16 58 -34 61 -42 3 -7 11 -13
18 -13 8 0 30 -9 50 -21 19 -12 42 -18 51 -15 15 6 15 8 -1 26 -10 11 -23 20
-30 20 -7 0 -20 9 -31 21 -25 28 -134 105 -161 113 -16 5 -23 2 -28 -14z"/>
<path d="M2197 1826 c-6 -15 1 -26 15 -26 4 0 8 9 8 20 0 23 -15 27 -23 6z"/>
<path d="M1894 1777 c-45 -26 -134 -112 -134 -129 0 -24 21 -23 42 1 9 11 24
17 35 15 23 -6 117 90 109 112 -7 17 -24 17 -52 1z"/>
<path d="M2932 1768 c-16 -16 -15 -21 6 -44 29 -33 162 -144 172 -144 18 0 22
23 6 32 -9 5 -16 18 -16 28 0 11 -10 25 -22 31 -12 7 -44 34 -71 60 -54 53
-57 55 -75 37z"/>
<path d="M1897 1659 c-61 -56 -85 -85 -78 -92 7 -7 18 -7 36 1 14 7 34 12 45
12 25 0 134 125 126 145 -11 30 -42 14 -129 -66z"/>
<path d="M2870 1719 c-10 -18 -2 -30 71 -107 97 -101 115 -116 124 -102 8 12
7 13 -73 120 -86 115 -102 127 -122 89z"/>
<path d="M2816 1674 c-10 -25 -9 -27 44 -95 83 -107 102 -129 121 -140 39 -21
31 19 -15 76 -25 30 -46 61 -46 67 0 17 -71 108 -85 108 -7 0 -16 -7 -19 -16z"/>
<path d="M2327 1634 c-7 -7 14 -44 25 -44 5 0 8 6 8 14 0 16 -24 38 -33 30z"/>
<path d="M2350 1564 c0 -8 5 -12 10 -9 6 3 10 10 10 16 0 5 -4 9 -10 9 -5 0
-10 -7 -10 -16z"/>
<path d="M2324 1278 c-4 -7 -3 -8 4 -4 7 4 12 1 12 -8 0 -9 5 -16 10 -16 12 0
12 3 4 24 -7 19 -20 21 -30 4z"/>
<path d="M2520 1249 c0 -5 5 -7 10 -4 6 3 10 8 10 11 0 2 -4 4 -10 4 -5 0 -10
-5 -10 -11z"/>
<path d="M2355 1230 c-3 -6 1 -7 9 -4 18 7 21 14 7 14 -6 0 -13 -4 -16 -10z"/>
<path d="M2427 1213 c-4 -3 -7 -11 -7 -17 0 -6 5 -5 12 2 6 6 9 14 7 17 -3 3
-9 2 -12 -2z"/>
<path d="M2360 1200 c0 -5 5 -10 11 -10 5 0 7 5 4 10 -3 6 -8 10 -11 10 -2 0
-4 -4 -4 -10z"/>
<path d="M4627 1192 c-38 -41 -12 -69 71 -78 59 -6 97 12 97 46 0 32 -36 50
-101 50 -37 0 -55 -5 -67 -18z m99 -22 c37 -15 17 -34 -25 -25 -30 6 -38 15
-24 28 9 9 17 9 49 -3z"/>
<path d="M2386 1158 c-19 -21 -46 -68 -46 -80 0 -5 5 -8 10 -8 6 0 10 9 10 19
0 21 25 51 42 51 5 0 7 -7 4 -16 -4 -10 -1 -14 6 -12 15 5 17 60 3 64 -5 1
-18 -7 -29 -18z"/>
<path d="M2323 1143 c-16 -6 -17 -33 -3 -33 11 0 26 28 19 34 -2 2 -10 1 -16
-1z"/>
<path d="M2446 1083 c-4 -9 -4 -18 -2 -21 8 -7 36 6 36 17 0 16 -28 20 -34 4z"/>
<path d="M2397 1084 c-8 -8 1 -24 14 -24 5 0 9 7 9 15 0 15 -12 20 -23 9z"/>
<path d="M4470 1081 c-107 -5 -125 -8 -128 -23 -6 -31 54 -51 161 -56 53 -2
97 -8 97 -12 0 -4 -30 -10 -67 -13 -138 -12 -192 -50 -116 -82 30 -13 55 -15
117 -10 l78 7 -7 -23 c-4 -13 -9 -26 -11 -28 -2 -2 -57 -7 -122 -12 -160 -11
-172 -14 -172 -49 0 -45 54 -57 70 -16 10 27 25 31 142 40 75 6 82 1 92 -60 7
-37 5 -41 -20 -53 -16 -7 -23 -16 -18 -21 10 -10 80 -17 88 -9 3 3 1 34 -5 69
-5 35 -6 67 -2 71 4 4 49 3 98 -3 155 -17 162 -16 190 15 13 16 22 34 19 40
-2 7 -26 23 -52 36 -37 19 -68 25 -144 29 -77 3 -98 7 -98 19 0 12 16 13 103
7 113 -8 136 -8 145 1 12 12 -23 25 -68 25 -25 0 -70 4 -100 8 l-55 7 83 5
c45 3 83 10 85 15 1 6 -37 12 -92 15 -57 3 -96 9 -98 16 -5 15 40 23 61 12 9
-5 33 -8 54 -6 29 2 37 7 37 23 0 19 -7 20 -110 21 -60 0 -166 -2 -235 -5z
m119 -37 c13 -12 -16 -16 -75 -9 -46 5 -63 10 -53 16 12 8 118 2 128 -7z m5
-100 c36 -14 12 -24 -54 -24 -64 0 -89 10 -57 23 18 8 93 8 111 1z m274 -73
c30 -15 42 -27 40 -39 -4 -19 -47 -21 -180 -8 -82 8 -90 15 -67 58 10 19 18
20 88 16 52 -3 90 -12 119 -27z"/>
<path d="M2367 1060 c-3 -11 -1 -20 4 -20 5 0 9 9 9 20 0 11 -2 20 -4 20 -2 0
-6 -9 -9 -20z"/>
<path d="M2312 1048 c-9 -9 -8 -16 5 -30 16 -18 39 -25 29 -9 -4 5 0 12 6 14
8 3 5 6 -6 6 -12 1 -16 6 -12 16 7 18 -5 20 -22 3z"/>
<path d="M2495 1050 c-25 -10 -50 -38 -41 -47 3 -3 14 4 25 16 10 12 24 20 31
19 7 -2 15 3 17 10 5 14 -3 14 -32 2z"/>
<path d="M2417 1043 c-11 -11 -8 -31 6 -36 9 -3 13 2 12 14 -2 22 -9 32 -18
22z"/>
<path d="M2370 983 c0 -4 5 -15 10 -23 8 -13 10 -13 10 2 0 9 -4 20 -10 23 -5
3 -10 3 -10 -2z"/>
<path d="M2450 959 c0 -5 5 -7 10 -4 6 3 10 8 10 11 0 2 -4 4 -10 4 -5 0 -10
-5 -10 -11z"/>
<path d="M2445 890 c3 -5 8 -10 11 -10 2 0 4 5 4 10 0 6 -5 10 -11 10 -5 0 -7
-4 -4 -10z"/>
<path d="M2480 880 c-13 -8 -12 -10 3 -10 9 0 17 5 17 10 0 12 -1 12 -20 0z"/>
<path d="M4753 734 c-6 -17 14 -36 32 -31 6 2 11 13 13 25 3 17 -2 22 -18 22
-11 0 -23 -7 -27 -16z"/>
<path d="M4992 570 c0 -19 2 -27 5 -17 2 9 2 25 0 35 -3 9 -5 1 -5 -18z"/>
<path d="M87 463 c-15 -4 -18 -11 -13 -31 4 -15 8 -34 10 -42 7 -32 36 -14 49
31 4 11 14 15 37 11 l31 -4 -2 -140 c-2 -95 -7 -145 -16 -156 -21 -29 -15 -32
55 -32 73 0 91 6 67 24 -11 8 -16 46 -21 154 l-6 143 38 -3 c31 -2 39 -8 44
-27 12 -51 43 -33 54 32 l7 37 -43 0 c-24 0 -95 2 -158 5 -63 2 -123 1 -133
-2z"/>
<path d="M465 450 c-3 -6 -3 -15 1 -22 9 -14 7 -269 -2 -311 -5 -26 -4 -27 40
-27 l45 0 3 92 3 93 65 0 65 0 -1 -81 c-1 -45 -5 -87 -8 -93 -10 -15 14 -23
55 -19 l33 3 -4 125 c-2 69 -4 152 -4 185 l-1 60 -43 -1 c-53 -2 -60 -8 -38
-33 12 -13 16 -32 14 -58 l-3 -38 -67 -3 -67 -3 2 67 2 66 -42 4 c-23 2 -45
-1 -48 -6z"/>
<path d="M799 449 c-11 -6 -9 -12 5 -28 17 -19 18 -35 14 -165 -3 -95 -1 -149
5 -155 14 -14 192 -14 217 -1 10 5 25 24 34 40 14 28 13 32 -1 37 -10 4 -25
-5 -42 -24 -20 -23 -38 -33 -73 -37 -55 -8 -59 -4 -64 75 -4 50 -2 59 13 59 9
0 25 -8 36 -17 18 -17 19 -17 33 2 25 34 15 85 -17 85 -12 0 -24 -11 -30 -27
-9 -23 -12 -25 -24 -12 -12 11 -13 28 -7 74 l7 60 42 6 c47 6 63 -4 63 -38 0
-26 3 -27 31 -13 21 12 26 52 7 67 -16 13 -231 23 -249 12z"/>
<path d="M1412 442 c-10 -7 -11 -18 -1 -55 16 -67 9 -79 -48 -75 -48 3 -48 3
-51 41 -2 21 2 45 9 53 20 25 -3 35 -71 32 -64 -3 -94 -24 -51 -35 22 -6 26
-31 24 -138 -1 -22 -2 -66 -2 -97 -1 -50 -4 -58 -20 -58 -11 0 -23 -5 -26 -10
-5 -7 17 -10 67 -8 l73 3 0 90 0 90 54 3 54 3 -7 -95 -6 -96 37 -1 c81 -2 123
8 86 22 -18 7 -21 19 -27 149 -5 104 -4 146 5 156 6 8 10 16 8 18 -10 10 -95
16 -107 8z"/>
<path d="M1908 443 c-19 -5 -24 -24 -10 -37 4 -4 8 -69 8 -144 1 -105 -2 -139
-13 -150 -10 -11 -11 -18 -2 -28 12 -15 135 -9 156 9 21 15 5 27 -38 27 l-39
0 0 105 c0 58 3 105 8 105 4 0 24 -32 45 -71 41 -78 101 -160 130 -179 15 -9
24 -8 42 4 23 15 24 19 23 148 -1 142 5 178 29 178 8 0 13 6 11 13 -7 19 -118
22 -118 4 0 -8 7 -17 15 -21 16 -6 20 -96 7 -171 l-7 -40 -18 25 c-48 67 -116
192 -111 204 8 20 -68 32 -118 19z"/>
<path d="M2395 441 c-67 -24 -86 -36 -111 -72 -25 -36 -26 -44 -21 -110 12
-141 55 -172 217 -156 79 7 87 12 88 55 0 20 2 46 4 57 3 17 -4 21 -47 25 -27
3 -60 3 -72 1 -28 -4 -31 -31 -4 -31 21 0 45 -25 37 -38 -9 -15 -64 -22 -91
-12 -31 12 -55 64 -55 117 0 80 79 148 141 123 15 -7 33 -9 38 -5 22 13 10 32
-28 43 -42 13 -66 14 -96 3z"/>
<path d="M2623 442 c-37 -4 -40 -9 -15 -28 15 -11 17 -31 17 -161 l0 -148 45
-5 c63 -7 180 12 189 30 15 27 21 79 10 85 -16 10 -59 -23 -59 -45 0 -14 -7
-20 -22 -22 -13 0 -30 -2 -38 -3 -29 -3 -40 17 -40 74 1 50 2 54 15 38 21 -29
49 -18 53 21 3 33 -14 50 -40 39 -29 -10 -33 -5 -34 43 0 54 2 56 61 55 35 0
40 -3 43 -25 5 -35 16 -44 41 -31 22 13 27 41 11 71 -8 16 -22 18 -107 16 -54
0 -113 -2 -130 -4z"/>
<path d="M2968 442 c-49 -3 -57 -9 -36 -30 17 -17 17 -274 0 -280 -7 -2 -12
-10 -12 -18 0 -12 16 -14 93 -9 111 6 148 16 193 50 48 36 67 79 61 132 -5 45
-41 102 -80 127 -25 17 -150 32 -219 28z m184 -79 c34 -36 45 -91 25 -129 -27
-51 -72 -86 -116 -90 l-41 -3 0 78 c0 43 3 99 6 125 l7 46 46 0 c39 0 52 -5
73 -27z"/>
<path d="M4307 444 c-12 -12 -8 -22 13 -27 20 -5 20 -12 18 -149 l-3 -143 -27
-3 c-30 -4 -29 -6 -111 165 -78 162 -66 148 -121 151 -27 2 -56 0 -65 -3 -14
-6 -14 -8 3 -20 17 -13 18 -19 7 -57 -6 -24 -16 -77 -21 -117 -6 -41 -17 -88
-25 -104 -8 -17 -15 -32 -15 -34 0 -1 17 -3 38 -3 l37 0 2 65 c1 36 5 70 8 75
3 6 30 10 58 10 l52 0 28 -58 c16 -31 25 -65 22 -73 -8 -23 59 -32 159 -23 77
7 103 17 66 27 -18 5 -20 14 -20 93 0 49 4 84 8 79 5 -6 33 -45 62 -88 64 -94
93 -119 134 -115 l31 3 -1 153 c-1 119 2 152 12 152 7 0 18 9 24 20 10 19 8
20 -48 20 -63 0 -80 -7 -58 -24 9 -7 15 -42 19 -104 2 -50 2 -92 -1 -92 -10 0
-131 177 -144 211 -5 12 -22 16 -70 18 -35 1 -67 -2 -71 -5z m-198 -94 c12
-30 21 -58 21 -62 0 -11 -68 -10 -74 0 -7 12 20 129 28 121 2 -2 14 -29 25
-59z"/>
<path d="M1626 431 c-4 -5 -1 -13 5 -16 12 -8 9 -45 -22 -209 -23 -122 -20
-132 35 -122 38 7 48 29 19 44 -14 8 -15 17 -7 53 l9 44 55 -4 c30 -2 58 -8
62 -15 4 -6 11 -33 14 -59 5 -33 13 -51 26 -58 29 -15 51 -3 45 24 -17 68 -86
310 -91 314 -10 11 -144 14 -150 4z m125 -100 c15 -43 16 -57 6 -63 -16 -10
-31 -10 -60 1 -23 9 -25 14 -20 53 11 86 45 90 74 9z"/>
<path d="M3475 429 c-4 -6 0 -16 9 -22 14 -11 11 -27 -27 -144 -32 -102 -46
-133 -59 -133 -23 0 -34 -20 -17 -31 16 -10 70 -12 93 -3 11 4 13 14 10 34 -6
27 24 150 44 187 10 17 11 16 20 -7 32 -81 84 -183 106 -205 31 -31 66 -34 66
-5 0 21 77 238 89 252 4 5 6 -22 4 -60 -2 -37 -5 -95 -6 -129 l-3 -63 52 0
c29 0 59 3 68 6 24 9 19 24 -8 24 -23 0 -24 1 -25 124 -1 68 3 135 8 149 9 23
7 25 -21 31 -74 15 -151 0 -112 -22 17 -9 17 -12 2 -48 -10 -22 -27 -67 -39
-102 -12 -34 -25 -62 -29 -62 -4 0 -18 24 -30 53 -12 28 -33 76 -46 105 -13
29 -24 56 -24 61 0 21 -113 31 -125 10z"/>
<path d="M4722 151 c-23 -14 -10 -56 19 -59 34 -4 67 31 49 53 -14 16 -47 20
-68 6z"/>
</g>
</svg>
