<?xml version="1.0" standalone="no"?>
<!DOCTYPE svg PUBLIC "-//W3C//DTD SVG 20010904//EN"
 "http://www.w3.org/TR/2001/REC-SVG-20010904/DTD/svg10.dtd">
<svg version="1.0" xmlns="http://www.w3.org/2000/svg"
 width="500.000000pt" height="878.000000pt" viewBox="0 0 500.000000 878.000000"
 preserveAspectRatio="xMidYMid meet">
<metadata>
Created by potrace 1.15, written by Peter Selinger 2001-2017
</metadata>
<g transform="translate(0.000000,878.000000) scale(0.100000,-0.100000)"
fill="#000000" stroke="none">
<path d="M0 8610 l0 -169 35 -7 c55 -10 194 11 257 40 45 20 61 33 72 60 20
48 55 69 100 60 39 -7 68 -37 59 -60 -7 -20 -23 -17 -50 8 l-24 22 -26 -27
c-24 -24 -27 -35 -31 -117 -5 -105 5 -154 54 -254 75 -153 196 -260 349 -307
51 -16 61 -16 75 -4 61 55 180 31 155 -33 -5 -13 -10 -11 -29 13 -21 26 -26
28 -49 18 -66 -30 -51 -173 40 -381 29 -68 51 -128 48 -133 -4 -5 -16 -9 -29
-9 -26 0 -99 -46 -135 -84 -32 -34 -41 -33 -77 7 -35 36 -46 62 -70 160 -14
60 -14 70 -1 85 19 22 52 90 61 125 3 15 11 27 16 27 17 0 11 -78 -9 -112 -11
-18 -23 -50 -26 -70 -6 -34 -5 -38 13 -38 14 0 26 14 41 45 24 51 36 52 44 2
3 -19 14 -54 25 -78 10 -24 22 -52 25 -61 10 -28 23 -21 36 20 12 36 11 42
-11 78 -60 94 -106 254 -91 312 4 16 -9 23 -98 51 -166 53 -225 103 -316 271
-44 83 -103 229 -103 258 0 10 -6 27 -14 38 -14 19 -15 18 -60 -4 -58 -28
-198 -32 -234 -6 -21 14 -22 14 -22 -5 0 -38 144 -62 225 -37 63 20 66 17 110
-107 95 -266 180 -360 398 -442 26 -10 50 -22 53 -26 7 -12 -94 -199 -108
-199 -4 0 -14 15 -22 33 -7 17 -37 54 -65 82 -43 41 -54 48 -69 39 -10 -6 -18
-26 -20 -48 -4 -42 -15 -46 -37 -13 -21 32 -60 50 -74 34 -30 -37 -32 -69 -8
-141 82 -241 87 -293 15 -143 -48 98 -72 123 -122 129 -25 3 -30 -1 -38 -27
-4 -16 -6 -36 -3 -43 2 -7 -4 -21 -15 -32 -11 -11 -20 -27 -20 -35 0 -8 20
-54 45 -102 25 -47 45 -89 45 -93 0 -13 124 -236 157 -282 19 -26 42 -49 51
-53 23 -7 94 -91 91 -107 -3 -14 8 -77 21 -123 5 -16 11 -110 14 -209 4 -98 9
-182 11 -186 7 -11 -15 -26 -60 -40 -112 -35 -315 -164 -361 -229 -30 -42 -74
-166 -74 -208 0 -67 14 -86 56 -78 26 4 34 3 34 -9 0 -53 -82 -52 -113 2 -16
27 -19 51 -18 129 1 79 -3 110 -25 177 -14 45 -37 92 -50 106 l-24 25 0 -2698
0 -2697 123 0 c84 0 127 4 135 12 10 10 17 10 33 0 17 -11 24 -11 37 1 12 11
37 15 84 14 79 -2 96 -21 23 -25 -27 -2 -57 -9 -65 -17 -11 -10 -50 -14 -135
-16 -66 -1 -146 -4 -177 -7 l-58 -5 0 -43 0 -44 2500 0 2500 0 0 2985 c0 1721
-4 2985 -9 2985 -13 0 -77 -74 -96 -110 -25 -49 -55 -180 -55 -244 0 -37 10
-93 26 -145 29 -94 35 -176 16 -232 -10 -27 -24 -43 -61 -63 -27 -14 -59 -26
-72 -26 -23 1 -23 1 -4 12 115 63 138 187 56 298 -29 40 -45 52 -116 95 -112
67 -201 94 -331 102 -86 5 -115 2 -185 -17 -109 -29 -154 -53 -221 -116 -21
-20 -31 -14 -53 33 -39 83 -183 281 -226 311 -34 23 -139 199 -139 232 0 4 12
11 28 14 31 8 109 37 197 74 58 24 142 84 177 126 10 12 25 42 34 69 10 32 29
58 55 80 43 34 79 93 79 127 0 31 -24 19 -28 -13 -3 -20 -17 -36 -57 -62 -54
-34 -85 -76 -85 -115 0 -32 -81 -105 -162 -146 -40 -20 -86 -46 -103 -59 -51
-38 -92 -55 -132 -55 -37 0 -103 31 -103 49 0 8 38 27 115 55 26 10 68 34 209
121 60 36 187 158 231 220 54 77 128 216 150 279 22 69 45 192 45 248 0 61
-20 148 -38 171 -33 38 -99 7 -73 -35 7 -11 10 -22 8 -24 -7 -7 -24 19 -30 47
-15 62 69 76 132 24 16 -14 34 -25 40 -25 26 0 189 63 247 95 101 57 198 180
266 338 47 107 50 166 14 202 -29 29 -53 24 -63 -13 l-6 -25 -19 22 c-25 32
-23 57 7 77 32 21 78 6 129 -42 35 -33 42 -36 85 -32 25 3 63 16 83 29 l37 24
1 133 0 132 -2500 0 -2500 0 0 -170z m2745 75 c0 -16 -8 -21 -36 -23 -34 -3
-37 -6 -77 -94 -23 -50 -41 -93 -39 -94 2 -2 31 -4 65 -5 38 -1 66 -7 73 -16
7 -7 10 -15 8 -17 -2 -3 -134 -7 -293 -10 -283 -6 -316 -3 -316 25 0 5 8 9 18
9 9 0 37 23 61 51 41 47 43 52 30 76 -20 37 -65 71 -105 79 -19 3 -33 11 -31
18 4 12 220 21 492 21 143 0 150 -1 150 -20z m-622 -267 c34 -23 73 -52 87
-64 14 -13 73 -48 132 -78 l108 -56 142 77 c212 114 278 146 285 139 4 -4 1
-21 -5 -39 -16 -44 -15 -57 4 -57 12 0 15 -8 12 -32 -5 -53 25 -43 38 12 9 40
15 47 52 60 47 16 59 11 42 -20 -9 -17 -9 -25 0 -34 9 -8 17 -4 36 17 13 15
24 35 24 43 0 8 10 14 24 14 23 0 24 -3 19 -35 -4 -28 -2 -35 11 -35 9 0 16 5
16 10 0 6 11 22 25 35 19 20 35 25 71 25 46 0 47 0 29 -20 -9 -10 -15 -26 -12
-35 8 -19 23 -19 30 -1 15 38 117 55 117 20 0 -8 -4 -14 -9 -14 -12 0 -23 -29
-15 -41 3 -5 21 4 40 21 19 16 45 30 59 30 54 0 72 -25 35 -48 -11 -7 -20 -23
-20 -37 0 -27 17 -34 26 -10 5 12 57 45 71 45 2 0 26 -21 53 -46 52 -49 63
-74 32 -74 -21 0 -42 -18 -42 -37 0 -16 32 -17 47 -2 6 6 23 9 39 7 23 -2 30
-9 35 -35 6 -32 5 -33 -25 -33 -18 0 -50 -13 -76 -30 l-45 -30 -17 23 c-21 26
-23 48 -6 65 9 9 9 15 0 24 -9 9 -17 6 -37 -12 -22 -20 -25 -21 -31 -6 -4 9
-4 35 0 56 4 23 2 40 -3 40 -10 0 -47 -43 -54 -63 -2 -8 -10 -7 -28 4 -20 14
-24 25 -24 64 0 55 -18 70 -37 31 -9 -20 -9 -29 0 -38 13 -13 16 -58 5 -58 -5
1 -24 9 -43 18 -32 16 -35 21 -38 67 -4 56 -7 64 -24 47 -6 -6 -11 -31 -9 -56
2 -42 1 -43 -25 -38 -59 11 -258 -61 -308 -111 -17 -17 -21 -18 -30 -5 -18 24
-77 51 -88 40 -20 -20 10 -52 47 -52 19 0 35 -2 35 -5 0 -3 -9 -24 -20 -46
-12 -22 -18 -44 -15 -49 3 -5 30 -23 61 -41 83 -47 64 -58 -109 -61 -75 -2
-137 -5 -137 -8 0 -15 73 -31 114 -25 67 10 76 -33 16 -75 -29 -21 -31 -21
-90 -4 -33 9 -65 23 -71 30 -15 19 -35 18 -43 -2 -8 -22 11 -44 52 -61 28 -11
32 -17 22 -28 -21 -25 11 -61 62 -70 86 -17 144 1 213 65 55 53 170 115 231
125 43 8 122 49 141 74 11 14 12 14 13 -1 0 -27 25 -21 54 13 14 17 26 25 26
18 0 -7 -7 -21 -17 -31 -9 -10 -11 -18 -6 -18 6 0 16 7 23 15 7 8 16 12 21 9
19 -11 7 -26 -38 -46 -27 -12 -71 -38 -100 -60 -29 -21 -60 -38 -69 -38 -19 0
-54 -27 -54 -42 0 -17 30 -7 97 31 37 21 71 37 76 34 12 -7 8 -23 -5 -23 -7 0
-46 -17 -87 -38 -71 -35 -100 -62 -67 -62 35 0 23 -20 -18 -31 -25 -6 -60 -22
-77 -35 -40 -29 -53 -30 -46 -4 8 32 -42 22 -73 -15 -55 -63 -73 -100 -45 -89
19 8 19 -13 0 -46 l-14 -25 -1 30 c-1 28 -1 29 -15 11 -10 -13 -13 -35 -9 -76
4 -51 2 -60 -25 -94 -32 -40 -32 -56 0 -56 27 0 24 -5 -21 -47 -26 -22 -37
-40 -31 -46 14 -14 51 2 83 36 15 17 28 26 28 20 0 -7 -19 -27 -42 -45 -23
-18 -62 -54 -87 -79 -25 -25 -61 -56 -79 -69 -36 -24 -31 -47 7 -35 32 10 175
134 185 161 6 13 16 24 23 24 19 0 4 -25 -51 -87 -29 -32 -44 -57 -40 -66 4
-11 -9 -24 -40 -42 -49 -29 -58 -45 -26 -45 27 0 25 -14 -5 -34 -27 -18 -35
-42 -10 -33 27 11 26 -13 -1 -64 l-28 -51 21 -16 c18 -15 20 -26 18 -80 -3
-71 -20 -102 -31 -58 -3 15 -1 39 5 52 6 14 11 29 11 34 0 20 -29 9 -54 -21
-29 -34 -28 -64 3 -108 33 -47 50 -50 82 -12 16 19 32 32 35 28 12 -11 -40
-76 -73 -92 -27 -13 -31 -19 -24 -38 5 -12 12 -45 16 -73 9 -68 -10 -106 -64
-127 -62 -25 -86 -73 -59 -116 6 -10 8 -26 4 -36 -12 -33 -24 -2 -28 78 l-5
78 40 27 c77 52 90 71 82 122 -4 25 -7 62 -6 82 1 26 -7 50 -25 78 -33 50 -29
108 10 149 30 32 32 43 10 76 -24 37 -83 67 -143 74 -80 9 -104 58 -26 53 49
-4 64 26 30 58 -33 31 -31 40 9 40 47 0 66 9 66 31 0 15 -7 19 -39 19 -23 0
-44 6 -51 15 -7 9 -23 15 -34 13 -21 -3 -24 -18 -12 -49 5 -11 -5 -29 -28 -53
l-35 -37 -20 20 c-37 37 -111 19 -111 -27 0 -33 16 -44 56 -40 33 2 39 0 42
-18 2 -16 -5 -23 -36 -32 -22 -7 -51 -12 -64 -12 -32 0 -98 -70 -98 -104 0
-72 87 -45 155 49 17 23 31 29 80 36 74 10 103 -5 152 -74 31 -44 33 -51 27
-102 -6 -46 -9 -53 -21 -43 -10 8 -13 22 -9 44 13 66 -43 125 -123 128 -25 1
-53 4 -61 7 -10 3 -15 -3 -15 -19 0 -12 -5 -26 -11 -30 -30 -19 -46 -76 -41
-139 5 -62 4 -64 -14 -47 -21 19 -25 55 -7 83 12 20 5 51 -12 51 -6 0 -13 -14
-17 -30 -5 -28 -8 -30 -38 -24 -28 5 -33 2 -39 -18 -7 -22 -7 -22 -16 -3 -5
11 -9 48 -9 83 -1 67 9 92 62 149 29 31 29 53 1 53 -8 0 -28 -15 -45 -32 -34
-37 -38 -30 -9 17 18 29 18 34 5 45 -8 7 -22 10 -30 6 -8 -3 -15 -1 -15 4 0
17 -32 40 -55 40 -29 0 -41 16 -26 34 14 17 4 26 -28 26 -14 0 -39 10 -56 21
-29 20 -29 21 -5 16 94 -20 110 -28 161 -82 41 -44 57 -54 73 -49 46 14 39 42
-18 69 -21 10 -35 26 -41 48 -8 26 -15 32 -35 30 -40 -3 -104 17 -136 42 -40
32 -21 45 26 17 40 -22 104 -30 115 -13 6 11 -12 24 -35 27 -32 3 -120 37
-131 50 -10 12 -8 13 15 4 15 -5 51 -11 79 -12 35 -1 63 -9 87 -25 19 -13 44
-24 55 -24 11 -1 5 -4 -14 -8 -19 -3 -36 -12 -39 -19 -5 -15 56 -42 95 -42 21
0 24 -3 15 -12 -7 -7 -12 -18 -12 -25 0 -22 37 -15 70 14 28 23 30 28 16 38
-14 11 -14 14 5 31 19 17 19 19 3 24 -10 4 -35 0 -57 -7 -22 -8 -45 -12 -51
-10 -6 3 11 10 37 17 35 9 51 19 57 35 5 13 14 26 19 30 20 12 12 62 -15 88
-20 20 -40 27 -89 32 -51 6 -71 13 -97 36 -35 32 -63 43 -99 37 -35 -5 -34
-26 3 -37 23 -6 26 -9 12 -10 -12 -1 -27 -8 -34 -16 -11 -13 -15 -13 -40 0
-29 15 -60 51 -60 69 0 5 9 1 19 -8 33 -30 30 -4 -10 84 -21 47 -38 94 -38
105 -1 24 -65 112 -122 169 -35 35 -39 37 -39 18 0 -32 -13 -27 -49 18 -17 22
-25 37 -16 34 9 -4 15 -1 15 9 0 8 -8 18 -17 22 -17 6 -17 7 0 17 15 8 24 5
45 -14 15 -14 59 -39 97 -58 149 -70 171 -82 205 -116 l36 -34 95 30 c98 30
149 60 149 86 0 16 -26 19 -35 4 -10 -16 -77 -48 -105 -50 -54 -5 -71 0 -82
25 -13 28 -5 43 14 28 7 -6 27 -14 43 -17 44 -9 139 48 143 87 4 33 -12 35
-33 3 -22 -33 -71 -55 -104 -47 -34 10 -38 37 -10 67 l22 24 -99 0 c-148 0
-156 16 -47 86 46 29 53 37 47 58 -4 18 3 33 30 62 39 42 42 49 26 59 -6 4
-29 -9 -50 -29 -47 -42 -69 -45 -106 -12 l-28 23 32 41 c18 22 32 45 32 51 0
22 -29 10 -51 -21 -12 -18 -24 -35 -25 -36 -1 -2 -14 4 -28 15 -21 16 -24 24
-19 59 3 27 1 44 -7 49 -16 10 -30 -12 -30 -47 l0 -28 -90 0 -90 0 0 28 c0 27
-15 52 -32 52 -4 0 -8 -20 -8 -44 0 -40 -3 -45 -29 -54 -34 -12 -41 -8 -41 24
0 29 -33 49 -49 30 -8 -9 -7 -18 4 -32 22 -29 18 -50 -12 -74 l-28 -22 -12 30
c-16 40 -59 72 -97 72 l-31 0 32 32 c25 25 35 29 46 20 7 -6 28 -13 47 -14 44
-4 52 19 11 35 -37 13 -35 27 4 46 22 10 33 11 47 2 10 -6 28 -11 40 -11 12 0
30 -8 40 -17 12 -11 22 -13 29 -6 13 13 -6 63 -25 63 -26 0 -28 20 -4 29 59
22 65 22 71 2 3 -15 10 -18 27 -14 16 4 28 -2 45 -23 21 -26 24 -27 31 -11 3
10 2 29 -5 43 -15 35 -16 34 33 34 42 0 46 -2 77 -50 18 -27 36 -50 41 -50 15
0 19 26 8 54 -15 42 -5 47 50 24 34 -14 47 -24 41 -32 -12 -16 -1 -88 13 -83
6 2 12 14 14 28 6 48 11 53 32 34 30 -27 31 -16 4 39 -25 52 -31 86 -14 86 6
0 38 -19 73 -42z m-818 -258 c3 -6 17 -7 29 -4 17 4 33 -3 60 -26 20 -18 36
-36 36 -40 0 -5 -14 -18 -31 -30 l-30 -22 -24 22 c-15 14 -41 24 -69 27 -25 3
-46 10 -46 15 0 5 10 22 22 38 22 31 42 38 53 20z m2496 -127 c13 -36 5 -53
-26 -53 -14 0 -43 -9 -65 -20 -51 -26 -57 -25 -65 7 -8 35 19 62 82 79 65 17
62 18 74 -13z m-2488 -6 c30 -20 32 -25 15 -62 -12 -26 -23 -32 -32 -16 -9 15
-104 23 -127 10 -12 -6 -20 -7 -17 -2 16 35 27 60 31 73 7 22 95 20 130 -3z
m2522 -132 c0 -39 0 -40 -50 -51 -27 -6 -60 -14 -71 -18 -18 -5 -24 -1 -33 25
-20 59 15 90 99 86 l55 -2 0 -40z m-2555 10 c14 -9 12 -51 -2 -62 -7 -6 -35
-13 -61 -16 -26 -2 -56 -12 -66 -21 -24 -22 -31 -20 -31 8 0 50 13 88 34 97
21 9 108 5 126 -6z m329 -75 c5 0 13 -4 16 -10 11 -17 -32 -11 -55 8 -15 12
-20 23 -15 32 6 10 12 8 26 -8 9 -12 22 -22 28 -22z m2229 -68 l3 -52 -41 0
c-23 0 -50 -5 -61 -10 -22 -13 -30 0 -33 52 -1 31 2 34 49 50 73 24 80 21 83
-40z m-2571 -24 l-2 -53 -39 -6 c-25 -4 -48 -16 -62 -33 -26 -30 -29 -27 -39
32 -5 30 -3 48 7 59 23 28 72 53 105 53 l33 0 -3 -52z m428 -14 c17 -12 40
-25 53 -28 23 -8 71 -91 59 -103 -4 -3 -18 8 -32 25 -27 32 -85 55 -111 45 -8
-3 -14 1 -14 10 0 10 8 13 25 9 14 -2 25 0 25 5 0 20 -68 63 -100 63 -19 0
-26 11 -14 22 7 8 69 -20 109 -48z m1142 -28 c-6 -14 -75 -35 -95 -28 -24 8
-13 32 16 32 15 0 38 6 52 13 26 13 36 7 27 -17z m83 -1 c-22 -23 -50 -34 -50
-18 0 15 35 43 53 43 20 0 20 -1 -3 -25z m901 -25 c19 -11 26 -54 11 -76 -4
-7 -34 -13 -67 -15 -58 -4 -60 -3 -63 22 -2 19 5 33 28 53 34 28 59 32 91 16z
m-546 -20 c3 -5 1 -10 -4 -10 -6 0 -11 5 -11 10 0 6 2 10 4 10 3 0 8 -4 11
-10z m-2680 -67 c59 -125 98 -230 100 -272 2 -28 9 -47 19 -53 22 -12 20 -28
-2 -28 -10 0 -29 -11 -42 -25 -13 -14 -32 -25 -42 -25 -19 0 -24 -15 -8 -25
17 -10 11 -25 -10 -25 -10 0 -24 -9 -30 -20 -14 -26 -31 -25 -53 1 -20 22 -35
21 -51 -4 -8 -12 -6 -21 7 -35 15 -17 16 -22 3 -46 -13 -27 -14 -27 -21 -7 -3
12 -10 21 -15 21 -4 0 -11 11 -14 25 -4 14 -13 25 -21 25 -9 0 -12 6 -9 15 4
10 0 15 -14 15 -24 0 -36 14 -51 60 -6 20 -31 68 -56 108 -25 40 -45 79 -45
88 0 32 24 -2 72 -102 48 -100 76 -130 99 -107 10 10 -58 153 -79 166 -7 5
-10 12 -7 16 2 5 -1 14 -9 20 -8 7 -12 20 -9 30 3 11 -1 29 -7 41 -9 18 -9 21
1 18 7 -2 40 -58 74 -124 38 -74 69 -120 79 -122 11 -2 34 13 57 37 l40 41
-32 40 c-18 22 -34 48 -35 58 -9 55 -15 72 -38 122 -24 52 -34 100 -20 100 11
0 33 -34 34 -51 0 -9 9 -23 20 -30 10 -8 32 -50 48 -93 29 -83 71 -131 92
-110 8 8 6 15 -5 24 -8 7 -15 28 -15 46 0 19 -5 34 -11 34 -7 0 -9 10 -7 25 3
14 1 28 -3 31 -5 3 -9 20 -9 38 0 18 -3 36 -7 40 -4 3 -8 12 -9 19 -2 7 -6 22
-10 35 -4 16 -2 22 9 22 8 0 27 -25 42 -57z m673 5 c5 -29 8 -56 6 -59 -2 -4
-19 -9 -39 -12 -19 -3 -48 -15 -63 -26 l-29 -20 3 54 c2 46 7 59 33 84 18 17
42 31 55 31 20 0 25 -7 34 -52z m462 22 c8 -5 11 -10 5 -10 -5 0 -17 5 -25 10
-8 5 -10 10 -5 10 6 0 17 -5 25 -10z m51 -23 c9 -7 18 -23 21 -37 3 -14 6 -29
8 -35 1 -5 2 -20 1 -32 -1 -19 -4 -20 -31 -10 -22 8 -27 14 -18 24 13 16 3 43
-17 43 -8 0 -15 5 -15 10 0 6 9 10 20 10 23 0 26 10 8 28 -16 16 2 15 23 -1z
m1374 -27 c-27 -12 -43 -12 -25 0 8 5 22 9 30 9 10 0 8 -3 -5 -9z m-53 -22
c-17 -17 -15 -28 6 -28 9 0 -2 -11 -26 -25 -24 -14 -48 -23 -52 -20 -17 11 4
47 39 65 43 23 49 24 33 8z m710 -28 c-7 -65 -17 -73 -80 -66 -31 4 -60 10
-64 14 -4 4 -3 24 3 44 10 39 29 47 109 44 34 -1 35 -2 32 -36z m-1952 2 c0
-9 11 -34 25 -54 28 -41 30 -48 15 -48 -6 0 -13 8 -17 18 -3 9 -12 24 -19 32
-7 8 -17 27 -23 43 -9 22 -8 27 4 27 8 0 15 -8 15 -18z m-576 -44 c18 -58 16
-62 -42 -96 -52 -30 -57 -31 -66 -15 -41 69 -10 110 92 122 7 0 14 -5 16 -11z
m1864 -21 c3 -14 -2 -16 -26 -11 -20 4 -44 -2 -80 -20 -80 -40 -80 -58 0 -34
29 9 41 9 50 0 9 -9 7 -12 -10 -12 -13 0 -40 -9 -62 -20 -50 -25 -56 -25 -64
3 -8 32 30 65 105 92 72 25 83 25 87 2z m-1313 -24 c25 -12 35 -23 35 -40 0
-13 -4 -23 -10 -23 -22 0 -60 25 -60 40 0 9 -5 21 -12 28 -18 18 4 15 47 -5z
m-47 -27 c-1 -2 -17 -6 -35 -9 -31 -6 -32 -6 -16 13 13 15 21 17 36 9 10 -6
17 -12 15 -13z m1980 8 c20 -4 23 -9 17 -31 -3 -15 -14 -32 -22 -38 -9 -7 -14
-19 -10 -27 13 -36 -82 -234 -127 -264 -39 -25 -60 -15 -70 34 -9 45 -9 49 38
177 l25 70 46 5 c53 6 64 24 18 28 -23 2 -33 8 -33 21 0 39 25 44 118 25z
m-2424 -131 c18 -58 34 -95 64 -145 12 -21 14 -37 6 -75 -8 -42 -12 -48 -34
-48 -19 0 -34 14 -68 65 -60 92 -104 186 -100 217 2 20 14 33 48 50 53 28 57
25 84 -64z m1759 62 c-2 -9 -114 -37 -121 -30 -2 1 12 12 30 24 33 21 95 25
91 6z m-1188 -25 c10 -11 15 -20 12 -20 -14 0 -57 24 -57 32 0 15 27 8 45 -12z
m250 -46 c31 -13 36 -19 31 -39 -5 -18 0 -28 16 -39 21 -15 24 -14 43 4 17 17
18 23 7 40 -10 16 -10 20 2 20 23 0 47 -30 44 -53 -2 -12 -17 -29 -35 -39 -29
-18 -34 -18 -69 -3 -21 9 -51 30 -66 48 -27 31 -28 32 -34 10 -7 -27 -22 -28
-71 -8 -19 8 -43 15 -53 15 -13 0 -17 6 -13 20 6 23 23 25 61 7 43 -20 86 -16
90 9 2 11 -4 27 -13 34 -8 7 -15 18 -15 24 1 6 9 1 20 -12 10 -12 35 -29 55
-38z m-1168 -23 c-41 -42 -85 -129 -91 -180 -7 -58 -34 -101 -62 -101 -22 0
-24 -4 -24 -44 0 -25 5 -48 12 -52 7 -5 4 -10 -11 -16 -18 -6 -22 -13 -17 -32
3 -14 2 -28 -4 -31 -17 -11 -11 -33 11 -40 17 -6 19 -9 8 -16 -12 -7 -12 -13
2 -36 12 -22 22 -28 45 -26 26 2 27 1 12 -11 -19 -14 -24 -41 -9 -50 5 -3 18
-26 30 -52 17 -35 26 -44 39 -39 14 5 15 4 5 -6 -20 -20 -16 -42 6 -36 15 4
18 -1 16 -36 -2 -39 19 -82 36 -71 4 2 7 -9 7 -24 -1 -35 8 -52 28 -52 9 0 14
-11 14 -31 0 -23 4 -30 14 -26 11 4 16 -3 18 -26 2 -18 8 -31 14 -30 13 2 28
-116 17 -142 -5 -15 -2 -17 15 -13 25 7 29 -10 12 -43 -17 -31 0 -45 22 -18
l19 24 -7 -25 c-3 -14 -10 -30 -15 -36 -9 -11 -1 -54 10 -54 4 0 12 5 19 12
19 19 15 -23 -4 -50 -19 -27 -12 -41 11 -22 13 10 15 9 15 -7 0 -10 -6 -25
-12 -32 -11 -10 -9 -16 10 -28 12 -9 22 -25 22 -36 0 -32 29 -58 51 -46 26 14
24 44 -6 67 l-25 20 20 51 c11 29 20 68 20 89 0 45 -25 160 -50 224 -19 51
-17 88 6 88 8 0 14 6 14 14 0 8 7 17 16 20 14 5 14 10 -4 40 l-20 34 25 18
c20 15 26 29 27 62 0 28 5 42 14 42 7 0 12 8 10 18 -1 9 0 22 4 27 23 38 55
104 48 102 -20 -5 -12 13 17 37 19 16 30 33 26 41 -3 10 2 15 13 16 11 1 26 2
34 3 8 0 15 10 14 22 0 13 6 21 15 20 11 -1 15 7 14 24 -3 24 -2 24 12 6 10
-13 21 -17 40 -12 24 6 26 10 20 39 l-6 32 21 -34 c15 -23 25 -30 32 -23 7 7
6 17 -2 31 -6 12 -9 27 -7 34 2 7 11 -3 21 -20 9 -18 20 -33 25 -33 16 0 20
13 10 32 -13 23 -5 35 13 21 7 -6 28 -11 46 -11 28 -1 32 2 27 19 -4 10 -2 19
4 19 5 0 13 -9 16 -20 9 -30 37 -26 29 4 -5 21 -2 23 24 22 25 -1 31 -6 36
-29 7 -32 29 -32 34 0 3 21 34 36 57 27 7 -3 11 -14 8 -25 -4 -16 0 -19 26
-19 17 0 31 -4 31 -10 0 -5 9 -10 20 -10 25 0 27 -41 4 -96 -30 -71 -4 -158
69 -237 16 -16 35 -47 44 -69 19 -47 38 -58 98 -58 41 0 46 -2 39 -17 -4 -10
-9 -39 -12 -64 -5 -65 43 -166 113 -235 29 -28 60 -65 69 -83 16 -31 48 -42
61 -20 5 6 13 2 22 -11 12 -17 23 -21 46 -17 16 2 43 -3 60 -11 24 -12 38 -13
81 -3 41 10 76 9 181 -3 72 -9 146 -16 166 -16 44 0 67 -21 44 -40 -14 -12
-14 -15 2 -33 13 -15 15 -21 6 -24 -20 -7 -15 -22 15 -48 l27 -24 -27 -1 c-38
0 -36 -24 2 -40 33 -14 42 -35 11 -25 -21 6 -38 -10 -21 -20 6 -4 8 -16 4 -28
-5 -16 1 -27 27 -48 26 -22 29 -27 13 -23 -35 9 -37 -13 -4 -36 32 -23 42 -57
14 -46 -31 12 -36 -7 -8 -29 24 -19 26 -25 16 -38 -9 -10 -10 -22 -3 -40 11
-29 -5 -50 -41 -52 -27 -2 -38 -23 -27 -52 5 -14 9 -31 9 -40 0 -13 -3 -13
-15 -3 -13 11 -18 10 -29 -6 -8 -10 -12 -23 -9 -30 2 -6 -3 -14 -11 -17 -9 -4
-13 -13 -10 -22 7 -17 -4 -19 -25 -6 -9 6 -22 6 -33 0 -15 -8 -17 -17 -12 -45
6 -34 6 -35 -14 -23 -19 12 -23 11 -35 -5 -10 -13 -16 -15 -21 -8 -12 19 -26
14 -26 -10 0 -17 -3 -19 -12 -10 -19 19 -28 14 -28 -12 0 -34 -18 -42 -22 -10
-4 37 -39 49 -69 25 l-23 -18 25 -13 c27 -15 39 -29 39 -48 0 -10 -5 -10 -20
-2 -11 6 -20 7 -20 3 0 -4 -7 0 -15 11 -17 22 -38 12 -30 -15 5 -15 1 -19 -14
-19 -16 0 -21 6 -21 25 0 16 -6 25 -16 25 -11 0 -13 6 -9 19 8 27 -21 54 -45
41 -29 -15 -35 -32 -17 -45 21 -15 22 -68 3 -84 -11 -9 -15 -7 -19 9 -5 21
-27 28 -27 9 0 -5 -16 -17 -36 -25 -30 -12 -35 -19 -32 -42 4 -37 37 -40 68
-7 27 29 40 32 40 10 0 -9 7 -18 15 -21 11 -5 12 -10 2 -24 -8 -14 -15 -16
-24 -8 -23 19 -61 1 -68 -32 -7 -32 -19 -39 -29 -15 -9 24 -25 17 -41 -17
l-15 -33 5 35 c2 19 7 44 10 55 3 11 1 27 -4 35 -8 12 -16 13 -40 3 -24 -9
-31 -8 -35 3 -3 8 -12 11 -21 8 -18 -7 -47 24 -40 44 9 25 -7 42 -41 42 -26 0
-37 -6 -48 -27 -15 -28 -15 -28 -14 20 1 58 -6 66 -32 42 -11 -10 -20 -14 -20
-9 0 14 13 28 35 40 22 12 27 45 8 51 -6 2 -22 -6 -34 -18 -13 -13 -36 -23
-55 -24 -27 -1 -33 3 -31 20 2 15 -4 20 -23 20 -21 0 -25 -5 -25 -27 1 -16 -2
-28 -5 -28 -3 0 -28 23 -55 50 -41 41 -47 52 -35 60 9 6 19 5 24 0 13 -13 53
-13 62 1 3 6 0 18 -9 26 -11 11 -19 12 -35 4 -16 -8 -21 -7 -26 4 -7 18 -37
20 -54 3 -9 -9 -20 -4 -47 22 -33 32 -34 35 -15 42 12 4 20 16 20 31 0 32 -8
38 -37 24 -18 -8 -23 -17 -20 -34 5 -28 -1 -28 -30 -4 -28 24 -29 41 -3 41 12
0 22 9 26 24 8 32 -2 48 -29 45 -47 -3 -50 -1 -33 26 14 22 14 25 0 33 -14 8
-14 10 0 21 22 19 20 31 -6 31 l-23 0 25 20 25 20 -22 6 c-26 7 -30 22 -8 30
8 4 15 10 15 15 0 5 -7 9 -15 9 -20 0 -19 10 2 25 14 10 15 16 5 28 -10 11 -9
17 3 27 14 11 13 14 -2 26 -17 12 -16 13 10 23 32 12 36 31 7 31 -30 0 -26 36
6 44 19 5 24 11 19 26 -4 12 -2 20 5 20 7 0 10 7 6 15 -7 19 28 55 53 55 11 0
21 6 23 12 4 10 58 13 222 14 227 2 252 6 230 42 -6 9 -20 17 -30 17 -11 0
-24 3 -30 7 -12 8 -61 4 -71 -5 -12 -13 -23 -7 -23 13 0 23 -29 27 -48 8 -9
-9 -12 -9 -12 0 0 17 -29 15 -36 -2 -4 -10 -18 -13 -47 -11 -23 1 -47 -1 -54
-7 -7 -6 -25 -6 -49 1 -27 8 -41 7 -52 -1 -10 -9 -16 -8 -22 3 -5 8 -15 14
-22 15 -7 0 -26 6 -41 13 -16 6 -32 9 -36 6 -5 -2 -14 14 -21 36 -11 31 -18
39 -32 36 -14 -4 -18 1 -18 23 0 16 5 41 12 55 13 30 5 43 -17 25 -13 -10 -15
-9 -15 8 0 11 7 25 15 32 8 7 15 19 15 26 0 8 -7 14 -15 14 -10 0 -16 12 -17
38 -2 54 -2 65 7 85 5 12 3 17 -9 17 -20 0 -20 9 0 32 13 14 14 21 5 32 -15
17 -7 36 15 36 8 0 14 9 14 20 0 13 7 20 20 20 11 0 20 5 20 10 0 6 -6 10 -13
10 -7 0 -23 14 -35 30 -13 17 -27 30 -33 30 -17 0 -39 -28 -34 -43 5 -10 -1
-13 -24 -9 -27 4 -32 0 -46 -34 -9 -22 -19 -60 -22 -86 -5 -42 -3 -51 19 -73
29 -29 45 -91 58 -228 9 -95 8 -107 -7 -144 -4 -10 -7 -27 -7 -38 -1 -11 -11
-24 -23 -30 -28 -12 -29 -26 -3 -50 11 -10 20 -23 20 -29 -1 -6 -9 -1 -19 12
-11 12 -24 22 -30 22 -19 0 -11 -24 19 -60 39 -45 40 -74 2 -37 -15 15 -31 27
-35 27 -13 0 -7 -25 13 -50 26 -33 26 -50 0 -22 -39 41 -55 20 -20 -25 32 -41
25 -62 -9 -29 -40 39 -58 29 -26 -14 32 -43 32 -60 1 -31 -23 21 -46 15 -31
-9 3 -5 1 -10 -4 -10 -20 0 -11 -28 14 -48 24 -19 33 -42 17 -42 -5 0 -17 9
-27 20 -13 14 -22 17 -29 10 -7 -7 -1 -20 19 -40 16 -16 26 -32 23 -35 -3 -3
-11 1 -18 10 -18 22 -43 19 -37 -4 3 -12 -1 -22 -10 -25 -18 -7 -8 -24 21 -37
18 -8 16 -9 -10 -5 -37 6 -48 -2 -33 -20 9 -11 2 -12 -38 -8 -29 4 -75 0 -116
-10 -81 -19 -138 -21 -155 -4 -8 8 -15 8 -25 0 -10 -9 -19 -8 -36 5 -22 15
-24 14 -46 -13 -13 -16 -27 -26 -31 -21 -4 4 3 18 16 32 20 22 22 28 11 51
l-12 26 -26 -26 c-24 -24 -53 -35 -53 -19 0 4 11 19 26 34 19 20 24 32 18 53
-7 31 -11 32 -44 6 -29 -23 -40 -25 -40 -7 0 6 14 20 30 29 30 17 44 55 16 45
-10 -4 -12 0 -9 14 7 25 -5 24 -33 -2 -15 -14 -29 -19 -41 -14 -15 5 -12 10
20 26 20 11 37 26 37 34 0 19 -10 19 -38 -1 -13 -9 -30 -13 -38 -10 -19 7 -9
26 15 26 9 0 25 6 35 13 15 11 15 17 5 42 -7 17 -13 35 -13 40 -1 6 -19 9 -41
7 -41 -4 -42 3 -4 22 12 6 20 15 18 21 -2 5 -6 9 -9 8 -28 -8 -45 -6 -45 7 0
8 9 16 20 18 26 5 46 22 40 33 -3 5 -19 6 -35 2 -18 -3 -30 -1 -30 5 0 6 12
12 27 14 40 5 41 28 1 29 -21 1 -26 3 -13 6 30 7 39 20 42 58 1 25 -2 35 -12
35 -9 0 -12 6 -8 16 5 13 0 15 -22 12 -16 -2 -30 2 -32 10 -3 7 5 12 19 12 32
0 51 19 37 37 -8 9 -8 17 -1 26 12 14 5 64 -10 73 -5 4 -15 1 -21 -5 -14 -14
-27 -14 -27 -1 0 6 6 10 14 10 18 0 39 27 31 40 -4 7 -12 7 -26 0 -13 -8 -19
-7 -19 0 0 6 11 16 25 22 18 8 23 17 20 32 -3 12 -6 38 -8 58 -2 21 -7 41 -10
45 -4 3 -7 15 -7 25 0 12 -7 18 -22 18 -26 0 -16 13 15 17 33 5 45 22 25 37
-10 7 -14 17 -9 22 14 15 22 62 11 69 -5 3 -10 15 -10 26 0 10 -4 19 -9 19 -5
0 -6 15 -1 33 9 41 -5 81 -25 73 -8 -3 -22 -9 -30 -12 -8 -3 -15 -2 -15 4 0 5
14 12 30 16 24 4 30 11 31 33 1 16 1 32 0 37 -1 4 3 14 10 22 9 11 8 15 -5 20
-14 5 -13 10 9 36 14 16 25 40 25 54 0 20 -5 24 -29 24 -17 0 -32 -4 -36 -10
-3 -5 -12 -7 -19 -4 -8 3 -17 1 -21 -5 -9 -16 -25 -13 -25 5 0 11 -6 13 -20 9
-14 -4 -32 5 -65 36 -25 23 -45 45 -45 49 0 4 10 10 22 13 26 7 68 -16 68 -37
0 -21 27 -38 50 -31 27 9 25 36 -5 69 -31 34 -32 51 -1 71 18 12 30 13 50 6
23 -9 26 -16 26 -59 0 -26 6 -56 13 -66 12 -17 14 -17 37 2 23 19 24 23 12 54
-6 19 -12 45 -12 59 0 32 28 71 48 67 10 -1 33 10 53 25 20 15 42 27 50 27 8
0 34 22 59 49 25 27 50 46 58 43 9 -3 3 -15 -21 -41z m117 -38 c57 -112 271
-308 370 -340 17 -5 31 -14 33 -19 5 -14 -76 -41 -85 -28 -4 5 -37 25 -74 43
-84 42 -174 122 -235 210 -56 80 -71 93 -96 85 -16 -5 -19 -3 -14 11 4 9 7 20
7 24 0 16 42 61 56 61 7 0 25 -21 38 -47z m826 37 c8 -5 11 -10 5 -10 -5 0
-17 5 -25 10 -8 5 -10 10 -5 10 6 0 17 -5 25 -10z m1054 -48 c-39 -34 -45 -9
-8 30 25 25 30 27 33 12 2 -11 -9 -28 -25 -42z m-2290 -83 c-3 -5 -10 -7 -15
-3 -5 3 -7 10 -3 15 3 5 10 7 15 3 5 -3 7 -10 3 -15z m401 -113 c99 -114 159
-160 255 -196 19 -8 36 -14 38 -16 2 -1 -24 -40 -58 -87 -63 -89 -80 -127 -80
-187 -1 -19 -7 -46 -15 -60 -8 -14 -14 -35 -15 -46 0 -12 -7 -27 -16 -35 -9
-7 -23 -30 -31 -51 -8 -21 -19 -38 -23 -38 -4 0 -32 51 -62 113 -50 102 -74
158 -108 257 -6 19 -21 58 -32 85 -49 125 -49 181 0 261 18 29 32 65 32 83 0
17 4 31 8 31 5 0 53 -51 107 -114z m1848 60 c-10 -14 -22 -26 -26 -26 -5 0 2
13 15 29 28 35 37 32 11 -3z m-38 -46 c-3 -5 -11 -10 -16 -10 -6 0 -7 5 -4 10
3 6 11 10 16 10 6 0 7 -4 4 -10z m29 -76 c3 -8 -1 -14 -8 -14 -16 0 -38 24
-30 33 9 9 32 -3 38 -19z m-824 -50 c0 -8 -5 -12 -10 -9 -6 4 -8 11 -5 16 9
14 15 11 15 -7z m794 0 c14 -38 7 -45 -24 -23 -16 12 -27 26 -24 31 9 14 42 9
48 -8z m-814 -59 c0 -8 -4 -15 -10 -15 -5 0 -10 7 -10 15 0 8 5 15 10 15 6 0
10 -7 10 -15z m771 -34 c5 -39 -6 -69 -15 -39 -13 40 -14 89 -3 85 7 -2 15
-23 18 -46z m184 -11 c-8 -37 8 -40 31 -5 9 14 21 25 27 25 5 0 3 -8 -6 -18
-10 -10 -17 -22 -17 -25 0 -12 35 -8 49 6 11 10 13 9 7 -1 -12 -20 23 -27 38
-7 9 13 15 15 20 6 5 -8 15 -5 34 9 l26 21 8 -21 c6 -17 11 -19 28 -10 17 9
20 8 20 -10 0 -11 6 -20 13 -20 7 0 27 -13 44 -29 17 -15 38 -31 46 -34 8 -3
40 -39 71 -80 40 -53 59 -90 68 -128 7 -30 17 -57 24 -61 7 -5 10 -18 6 -30
-4 -17 -2 -20 11 -15 11 4 17 1 17 -8 0 -9 10 -15 25 -15 19 0 25 -5 23 -17
-2 -13 4 -18 18 -18 25 0 55 -34 129 -146 35 -53 55 -94 55 -112 0 -21 11 -39
40 -66 41 -37 70 -82 70 -106 0 -7 7 -15 15 -19 8 -3 15 -13 15 -23 1 -29 34
-90 46 -86 13 4 86 -119 82 -136 -2 -6 8 -17 22 -24 20 -10 26 -21 28 -56 2
-31 7 -41 17 -38 7 3 21 -3 31 -14 15 -17 16 -23 6 -40 -10 -16 -10 -20 3 -25
8 -4 15 -13 15 -21 0 -8 14 -36 31 -61 35 -52 79 -147 79 -170 0 -8 7 -23 16
-33 12 -14 13 -22 4 -38 -9 -17 -8 -22 5 -28 11 -4 15 -13 11 -28 -4 -14 0
-28 9 -35 14 -12 14 -15 0 -30 -14 -16 -14 -18 6 -23 19 -5 20 -8 9 -22 -11
-13 -11 -18 -1 -25 11 -6 11 -9 1 -15 -10 -6 -9 -11 5 -21 16 -12 17 -14 2
-20 -23 -9 -21 -21 5 -27 21 -6 21 -7 5 -25 -21 -23 -22 -42 -2 -42 8 0 15 -4
15 -9 0 -5 -7 -11 -15 -15 -23 -8 -18 -28 5 -21 12 4 20 2 20 -5 0 -7 -9 -14
-20 -17 -11 -3 -20 -12 -20 -20 0 -10 6 -12 19 -8 28 8 34 -9 11 -30 -26 -23
-26 -38 0 -30 16 5 20 2 20 -14 0 -12 -4 -21 -10 -21 -5 0 -10 -4 -10 -10 0
-5 7 -10 15 -10 20 0 19 -16 -1 -24 -23 -9 -6 -28 18 -20 14 4 18 2 14 -5 -4
-6 -15 -11 -25 -11 -27 0 -35 -51 -9 -58 18 -4 18 -6 2 -23 -16 -18 -16 -19 6
-19 17 0 20 -3 12 -13 -16 -19 11 -50 37 -42 35 11 81 -4 81 -26 0 -22 11 -24
28 -7 21 21 13 -5 -9 -28 -21 -22 -21 -23 -3 -48 11 -14 27 -26 37 -26 21 0
22 -13 2 -30 -13 -11 -22 -10 -52 4 -27 13 -38 14 -49 5 -21 -17 -17 -38 10
-51 16 -6 26 -21 28 -37 2 -20 9 -27 31 -29 23 -3 28 1 33 27 4 17 10 28 14
26 11 -7 1 -42 -16 -56 -18 -15 -18 -49 2 -88 9 -18 14 -34 13 -36 -6 -6 -53
38 -72 68 -9 15 -23 27 -30 27 -7 0 -28 11 -48 24 -37 25 -136 49 -144 36 -3
-5 -2 -15 1 -24 5 -12 0 -16 -18 -16 -21 0 -24 -5 -25 -42 -3 -64 -19 -69 -43
-13 -16 38 -19 54 -11 79 29 88 31 178 7 237 -4 10 0 23 9 33 9 9 15 23 12 30
-3 7 0 19 6 25 9 9 6 13 -12 18 -23 6 -23 7 -5 20 17 13 17 16 4 26 -9 7 -14
20 -12 31 3 16 0 18 -22 12 -19 -5 -26 -3 -26 8 0 8 5 18 10 21 6 3 10 13 10
21 0 11 -7 13 -27 8 l-28 -7 23 25 c30 33 28 42 -8 35 -32 -7 -39 3 -15 23 25
20 17 33 -15 27 -31 -7 -38 1 -19 20 18 18 1 35 -21 23 -22 -12 -33 0 -19 20
15 25 10 32 -18 25 -27 -6 -27 -6 -9 14 20 22 13 46 -13 36 -13 -5 -14 -4 -3
6 19 21 14 32 -13 27 -22 -5 -25 -2 -23 21 3 22 -1 26 -25 27 -37 1 -43 10
-23 33 20 22 4 40 -19 21 -10 -8 -15 -9 -15 -2 0 6 5 14 10 17 17 10 11 23
-12 27 -16 2 -31 22 -54 68 -18 36 -33 73 -33 83 -1 10 -13 59 -27 110 -18 63
-26 115 -25 165 0 55 -3 74 -14 79 -8 3 -15 11 -15 18 0 18 -25 26 -39 12 -15
-15 -14 -1 4 33 14 26 14 30 1 30 -8 0 -22 -10 -30 -22 l-16 -22 0 21 c0 12 5
25 10 28 14 9 12 35 -3 35 -7 0 -20 -12 -29 -27 -22 -36 -23 -15 -2 37 21 53
9 64 -26 22 -27 -32 -27 -32 -23 -7 3 14 9 28 14 31 5 3 9 12 9 20 0 26 -30
15 -50 -18 -19 -31 -20 -31 -20 -9 0 13 9 38 19 55 13 20 17 37 11 45 -14 24
-37 4 -56 -51 l-19 -53 -3 35 c-2 19 2 52 9 72 7 21 9 41 6 44 -15 15 -36 -9
-48 -55 -7 -28 -16 -51 -21 -51 -16 0 -7 63 14 101 24 43 19 57 -14 42 -14 -6
-27 -26 -35 -54 l-13 -44 5 50 c3 27 10 54 15 59 12 12 14 56 3 56 -20 -1 -35
-21 -48 -61 -12 -39 -14 -41 -14 -14 0 17 6 48 14 69 8 22 12 43 9 48 -13 20
-41 -16 -61 -79 l-21 -68 -1 55 c0 30 6 71 13 91 7 19 11 40 8 47 -6 18 -32
14 -40 -5 -5 -12 -9 -1 -12 32 -3 35 -10 50 -20 51 -38 4 -58 17 -53 32 12 38
39 89 60 113 24 27 63 125 63 158 0 53 -65 15 -76 -45 -4 -21 -19 -43 -45 -64
-52 -42 -79 -96 -80 -164 -1 -31 -7 -67 -15 -81 -11 -21 -10 -27 2 -39 19 -20
18 -26 -5 -26 -11 0 -22 -4 -26 -10 -3 -5 -12 -7 -20 -3 -8 3 -15 0 -15 -6 0
-7 -9 -9 -25 -5 -14 3 -25 2 -25 -3 0 -16 -205 -10 -224 6 -13 11 -22 11 -39
3 -42 -20 -63 -20 -76 0 -9 15 -15 17 -26 8 -7 -6 -19 -9 -26 -8 -8 2 -15 -7
-17 -21 l-4 -23 -14 21 c-9 12 -26 21 -40 21 -23 0 -24 3 -24 58 1 55 1 56 15
31 14 -26 56 -59 74 -59 16 0 24 86 12 121 -9 27 -8 37 6 58 22 35 44 50 69
51 12 0 39 22 68 55 l48 56 -7 74 c-6 56 -3 86 9 122 24 75 44 145 51 183 12
66 15 71 43 69 60 -5 73 0 83 31 6 17 15 30 21 30 5 0 7 -13 3 -30z m-907
-247 c6 -12 12 -26 12 -32 0 -21 -16 -11 -35 21 -21 36 -27 148 -10 183 7 15
11 -1 15 -65 3 -47 11 -95 18 -107z m701 113 c-1 -49 -14 -89 -22 -66 -3 8 -8
44 -12 80 l-6 64 20 -18 c15 -14 21 -31 20 -60z m-412 -24 c8 -5 3 -11 -13
-19 -21 -10 -24 -9 -24 8 0 20 16 24 37 11z m90 -38 c2 -5 -3 -19 -11 -29 -14
-19 -15 -19 -21 -2 -4 9 -4 24 -1 33 6 16 27 15 33 -2z m-1837 -29 c-7 -9 -15
-13 -19 -10 -3 3 1 10 9 15 21 14 24 12 10 -5z m1897 -52 c6 -2 14 5 18 16 9
29 18 26 39 -9 28 -49 25 -210 -5 -210 -5 0 -9 12 -9 26 0 39 -21 25 -50 -32
-31 -62 -83 -130 -88 -115 -2 6 11 31 29 56 32 45 33 46 22 108 -9 56 -8 65
10 90 16 24 18 33 8 53 -13 29 -14 67 -3 78 4 4 9 -7 12 -25 3 -18 10 -34 17
-36z m-347 0 c0 -9 -5 -31 -12 -49 -10 -27 -9 -37 6 -59 23 -34 10 -48 -15
-16 -19 23 -26 91 -13 125 8 21 34 20 34 -1z m210 -44 c0 -22 7 -50 14 -62 8
-12 18 -42 22 -67 l6 -45 -32 50 c-32 49 -36 65 -32 138 3 50 22 38 22 -14z
m-1740 -23 c0 -2 -7 -6 -15 -10 -8 -3 -15 -1 -15 4 0 6 7 10 15 10 8 0 15 -2
15 -4z m1613 -26 c-3 -11 0 -27 7 -35 17 -20 -4 -20 -24 1 -9 8 -15 19 -13 22
2 4 7 15 10 25 9 24 27 12 20 -13z m483 -96 c-4 -18 -10 -34 -15 -34 -9 0 -13
99 -4 114 11 18 25 -44 19 -80z m-406 14 c11 -13 22 -36 26 -53 10 -46 14 -48
40 -24 14 13 24 17 24 10 0 -24 -20 -50 -50 -64 -25 -13 -31 -13 -41 -1 -6 8
-9 28 -7 44 7 49 -9 45 -37 -10 -14 -27 -30 -50 -35 -50 -15 0 -13 7 21 76 26
52 29 66 19 79 -10 12 -9 15 5 15 9 0 25 -10 35 -22z m147 -197 c0 -22 -5 -37
-9 -35 -11 7 -10 74 1 74 6 0 9 -18 8 -39z m-84 -47 c56 -54 75 -90 64 -118
-4 -10 -24 3 -66 44 -59 56 -87 102 -75 121 10 16 20 10 77 -47z m-1718 -184
c-3 -5 -12 -10 -18 -10 -7 0 -6 4 3 10 19 12 23 12 15 0z m20 -250 c-3 -5 -12
-10 -18 -10 -7 0 -6 4 3 10 19 12 23 12 15 0z m3724 -302 c4 -13 10 -46 13
-75 5 -50 4 -51 -24 -57 -36 -7 -37 -28 -1 -24 27 3 28 2 39 -70 9 -60 9 -75
-3 -79 -18 -7 -17 -23 2 -23 8 0 15 -5 15 -11 0 -6 -10 -9 -22 -7 -19 2 -28
19 -55 103 -18 55 -33 103 -33 107 0 3 14 9 30 13 32 7 41 25 13 25 -16 0 -16
1 0 13 14 10 15 18 6 50 -9 35 -13 38 -40 33 -16 -3 -44 -9 -61 -12 l-33 -5
27 15 c28 15 56 22 96 25 15 1 25 -6 31 -21z m-3139 -84 c12 -12 5 -14 -50
-13 -36 0 -87 7 -115 14 l-50 14 60 -3 c33 -2 71 -7 84 -11 21 -7 23 -6 18 9
-6 14 -3 16 16 11 12 -4 29 -13 37 -21z m3067 -3 c7 -10 9 -21 6 -24 -8 -9
-43 16 -43 30 0 20 24 15 37 -6z m-2987 -29 c-20 -7 -40 7 -34 23 6 14 9 14
26 -2 12 -10 15 -19 8 -21z m2241 8 c12 0 23 -10 29 -25 5 -14 22 -30 37 -36
34 -13 67 -50 93 -108 23 -50 23 -51 11 -51 -5 0 -11 9 -14 20 -3 11 -10 20
-16 20 -8 0 -10 -20 -5 -67 8 -81 -6 -76 -26 10 -11 47 -11 63 -1 78 15 25 5
45 -15 28 -8 -7 -13 -18 -10 -25 3 -7 -6 -15 -20 -18 -27 -7 -32 -35 -14 -82
15 -38 -9 -54 -28 -19 -7 14 -22 25 -33 25 -27 0 -72 -49 -59 -65 7 -8 3 -15
-16 -23 -36 -17 -38 -15 -20 13 16 24 15 25 -9 31 -45 11 -31 22 83 64 22 9
40 26 52 50 12 24 26 37 37 36 10 0 18 5 17 12 -1 6 -2 20 -2 30 -1 10 -16 28
-33 41 -30 22 -31 22 -36 3 -3 -11 -14 -23 -25 -25 -17 -5 -19 -11 -14 -40 8
-45 -1 -67 -27 -67 -30 0 -125 -68 -143 -101 -18 -36 -18 -53 2 -90 14 -28 14
-33 -5 -65 -26 -43 -27 -80 -4 -93 29 -16 53 5 53 44 0 42 55 109 98 118 15 4
43 21 61 39 22 20 32 26 28 15 -4 -10 -7 -23 -7 -28 0 -5 -5 -9 -12 -9 -19 0
-48 -32 -48 -52 0 -15 -3 -17 -19 -8 -25 13 -31 13 -31 -1 0 -7 -8 -17 -17
-24 -13 -9 -18 -32 -21 -83 -3 -55 -7 -69 -18 -65 -8 3 -17 -2 -20 -11 -3 -9
-15 -16 -27 -16 -19 0 -19 1 -3 19 19 21 14 41 -9 41 -8 0 -30 -16 -50 -35
-28 -28 -34 -41 -29 -60 4 -15 2 -25 -5 -25 -6 0 -11 11 -11 25 0 40 -25 40
-82 3 -68 -44 -85 -50 -92 -32 -3 8 1 14 9 14 13 0 35 29 35 47 0 4 -15 16
-33 27 l-32 18 24 9 c21 8 23 14 17 47 -3 20 -9 47 -12 60 -4 12 -2 22 2 22
13 0 34 -73 34 -114 0 -40 22 -62 59 -58 30 4 61 36 61 63 0 11 10 23 23 28
21 8 24 16 24 70 1 65 -9 70 -31 18 l-14 -32 -1 34 c-1 22 10 51 30 83 33 52
33 73 -1 43 -18 -16 -17 -12 5 28 15 26 24 51 20 56 -7 13 30 37 70 47 17 4
38 14 48 22 18 16 23 47 9 56 -14 9 -123 -52 -178 -100 -47 -39 -52 -42 -57
-24 -7 28 -18 25 -56 -14 -33 -34 -41 -69 -26 -115 6 -21 5 -22 -17 -16 -12 4
-27 11 -32 15 -13 13 14 110 35 123 11 7 19 21 19 32 0 11 7 29 15 39 12 16
17 17 30 6 16 -14 18 -10 15 34 -2 26 0 28 24 22 22 -5 26 -3 26 14 0 23 15
27 24 5 10 -26 29 -17 22 10 -8 31 19 36 29 5 3 -11 13 -20 21 -20 12 0 13 8
8 35 -5 30 -4 34 10 29 9 -3 16 -12 16 -19 0 -6 9 -20 20 -30 17 -15 20 -16
25 -2 4 9 14 13 26 10 13 -4 19 0 19 11 0 10 4 15 9 12 4 -3 19 6 32 20 12 13
29 22 37 19 7 -3 22 -5 33 -5z m-2450 -34 c17 -14 41 -26 54 -26 18 0 23 -4
19 -15 -4 -8 -1 -21 5 -29 9 -11 7 -15 -11 -20 -13 -3 -33 -6 -46 -6 -52 0
-35 -30 78 -138 109 -103 113 -108 99 -130 -12 -21 -19 -23 -58 -18 -32 4 -47
2 -55 -9 -7 -10 -16 -12 -25 -6 -12 8 -12 13 3 36 13 20 21 24 29 16 15 -15
42 -14 57 3 28 34 -109 167 -154 150 -8 -3 -28 3 -43 13 -15 11 -46 28 -68 38
-22 10 -35 20 -28 22 6 2 33 -10 61 -26 56 -35 78 -40 67 -13 -4 9 -11 34 -15
55 -6 32 -4 40 16 56 32 25 30 29 -12 47 -32 14 -38 14 -53 0 -10 -9 -23 -16
-29 -16 -7 0 -12 -7 -12 -15 0 -10 11 -15 33 -16 18 -1 6 -5 -28 -9 -33 -4
-75 -10 -92 -14 -26 -6 -33 -4 -33 7 0 18 32 40 82 56 20 7 42 19 49 27 18 22
72 12 110 -20z m305 -1 c26 -28 40 -35 69 -35 44 0 43 -20 0 -32 -26 -6 -35
-3 -68 30 -45 43 -63 72 -46 72 6 0 26 -16 45 -35z m-105 -49 c29 -12 101 -75
74 -65 -28 11 -115 65 -115 72 0 10 2 9 41 -7z m42 -170 c-3 -20 -1 -36 6 -40
6 -4 11 -12 11 -19 0 -6 -20 8 -44 32 -24 24 -42 49 -40 55 3 7 -7 23 -21 36
-42 39 -28 41 34 4 57 -34 59 -37 54 -68z m357 72 c0 -6 -7 -5 -15 2 -8 7 -15
17 -15 22 0 6 7 5 15 -2 8 -7 15 -17 15 -22z m-970 -49 c-7 -11 -14 -18 -17
-15 -3 3 0 12 7 21 18 21 23 19 10 -6z m223 -2 c42 -18 151 -107 142 -115 -3
-3 -20 8 -38 25 -17 17 -42 36 -55 42 -34 18 -114 41 -123 35 -4 -2 -22 4 -39
15 l-32 19 54 -2 c29 -2 70 -10 91 -19z m-125 -29 c17 -17 -5 -53 -24 -37 -18
14 -18 49 -1 49 7 0 18 -5 25 -12z m711 -20 c-2 -18 5 -48 15 -67 12 -22 13
-32 5 -29 -7 2 -24 25 -38 51 -24 46 -25 47 -5 62 25 19 25 20 23 -17z m1457
7 c-3 -9 -11 -13 -16 -10 -8 5 -7 11 1 21 14 18 24 11 15 -11z m1441 -96 c12
-106 27 -223 37 -276 4 -23 -19 -51 -32 -38 -4 4 -1 10 6 12 19 7 14 23 -8 23
-24 0 -26 13 -5 30 8 7 15 17 15 22 0 6 -7 8 -15 4 -18 -6 -20 5 -3 22 9 9 7
13 -5 18 -21 8 -22 40 -2 48 22 8 18 26 -5 26 -23 0 -26 10 -8 28 9 9 8 15 -8
27 -19 15 -19 15 0 26 19 12 19 12 1 25 -18 14 -18 14 1 29 19 14 19 14 -3 15
-27 0 -40 18 -19 26 20 8 21 24 1 24 -8 0 -15 4 -15 9 0 10 28 20 45 16 5 -1
15 -53 22 -116z m-1208 67 c-12 -20 -24 -35 -26 -32 -3 3 5 21 17 41 29 47 37
39 9 -9z m541 13 c0 -5 -4 -9 -10 -9 -5 0 -10 7 -10 16 0 8 5 12 10 9 6 -3 10
-10 10 -16z m-2116 -20 c30 -36 60 -89 53 -95 -7 -7 -97 97 -97 112 0 23 16
16 44 -17z m-687 -11 l28 -12 -40 -6 c-29 -4 -43 -2 -52 9 -29 34 -4 38 64 9z
m2023 -44 c0 -15 -6 -24 -15 -24 -16 0 -19 17 -9 44 9 22 24 10 24 -20z
m-2160 6 c8 -14 8 -26 0 -41 -14 -25 -16 -24 -23 24 -6 40 6 49 23 17z m226
-48 c-9 -8 -46 20 -46 35 0 13 5 12 25 -7 14 -13 23 -25 21 -28z m849 34 c13
-9 20 -28 22 -63 1 -27 12 -70 23 -94 14 -32 20 -66 20 -126 0 -91 -15 -111
-25 -35 -14 95 -53 279 -64 300 -19 36 -10 43 24 18z m1788 -38 c-3 -15 -9
-25 -14 -23 -4 3 -3 17 3 30 14 31 18 28 11 -7z m-796 -77 c-14 -6 -21 9 -20
44 2 58 17 65 23 10 3 -27 1 -52 -3 -54z m303 68 c0 -11 5 -29 10 -39 7 -13 7
-21 0 -25 -6 -3 -15 6 -20 20 -13 34 -13 78 0 70 6 -3 10 -15 10 -26z m-2266
-8 c21 -24 98 -61 125 -61 28 0 47 28 34 49 -9 15 -7 17 18 13 16 -2 29 -10
29 -17 0 -7 7 -18 15 -25 20 -17 10 -30 -24 -30 -16 0 -40 -9 -54 -20 -33 -26
-41 -25 -55 5 -6 14 -20 25 -30 25 -26 0 -114 58 -107 70 10 16 30 12 49 -9z
m1177 -14 c-10 -9 -11 -8 -5 6 3 10 9 15 12 12 3 -3 0 -11 -7 -18z m469 -13
c0 -23 -1 -24 -16 -9 -9 8 -13 22 -10 31 8 22 26 7 26 -22z m70 22 c0 -8 -7
-16 -15 -20 -15 -5 -21 14 -8 27 11 12 23 8 23 -7z m-1843 -28 c-3 -7 -5 -2
-5 12 0 14 2 19 5 13 2 -7 2 -19 0 -25z m415 -20 c-15 -15 -26 -4 -18 18 5 13
9 15 18 6 9 -9 9 -15 0 -24z m428 12 c6 -11 8 -20 6 -20 -3 0 -10 9 -16 20 -6
11 -8 20 -6 20 3 0 10 -9 16 -20z m534 -24 c-3 -9 -10 -13 -16 -10 -5 3 -4 12
3 20 15 18 22 13 13 -10z m-359 -58 c-7 -39 -9 -41 -18 -20 -7 16 -7 29 3 47
18 34 23 25 15 -27z m995 -70 c0 -21 -33 17 -51 60 -30 68 -22 72 16 9 19 -32
35 -63 35 -69z m-1404 50 c-12 -7 -15 -16 -10 -31 6 -19 5 -20 -10 -8 -18 15
-22 41 -5 41 6 0 9 6 6 14 -8 20 16 27 27 8 6 -10 3 -18 -8 -24z m1094 32 c0
-5 -2 -10 -4 -10 -3 0 -8 5 -11 10 -3 6 -1 10 4 10 6 0 11 -4 11 -10z m533
-14 c4 -10 1 -13 -9 -9 -15 6 -19 23 -5 23 5 0 11 -7 14 -14z m-1790 -40 c9
-7 17 -20 17 -28 0 -7 23 -38 51 -68 28 -31 53 -68 56 -85 6 -29 5 -29 -25 12
-17 22 -36 44 -42 48 -7 4 -18 21 -25 39 -11 26 -19 31 -46 31 -19 0 -34 6
-37 14 -3 10 1 12 17 8 28 -7 39 13 16 30 -11 7 -15 13 -9 13 5 0 17 -7 27
-14z m876 -48 c-27 -10 -30 -8 -22 20 5 22 6 22 25 5 19 -17 19 -17 -3 -25z
m256 33 c3 -5 1 -12 -5 -16 -5 -3 -10 1 -10 9 0 18 6 21 15 7z m-1635 -15 c6
-8 21 -16 33 -18 l22 -3 -22 -7 c-15 -4 -28 1 -44 18 -12 13 -18 24 -12 24 6
0 16 -6 23 -14z m1740 -5 c0 -22 -63 -77 -69 -60 -2 6 6 21 18 33 12 12 21 28
21 34 0 7 7 12 15 12 8 0 15 -9 15 -19z m1095 9 c-3 -5 -13 -10 -21 -10 -8 0
-14 5 -14 10 0 6 9 10 21 10 11 0 17 -4 14 -10z m-1002 -20 c-7 -28 -23 -36
-23 -11 0 10 6 22 13 24 6 3 13 6 14 6 0 1 -1 -8 -4 -19z m-275 -4 c29 -1 28
-20 -3 -40 -19 -13 -25 -13 -25 -3 0 7 -5 18 -11 24 -15 15 -56 -3 -64 -29 -4
-10 -11 -18 -16 -18 -13 0 -12 4 12 45 20 33 24 35 53 29 17 -5 41 -8 54 -8z
m1589 -8 c-3 -8 -6 -5 -6 6 -1 11 2 17 5 13 3 -3 4 -12 1 -19z m-918 -72 c6
-27 9 -51 7 -54 -3 -3 -7 1 -9 9 -2 8 -9 30 -16 50 -6 19 -11 46 -10 60 0 22
1 22 8 4 5 -11 14 -42 20 -69z m-1484 64 c3 -5 1 -10 -4 -10 -6 0 -11 5 -11
10 0 6 2 10 4 10 3 0 8 -4 11 -10z m2195 -61 c6 -21 9 -41 8 -46 -1 -4 1 -18
6 -31 5 -15 2 -27 -8 -37 -18 -18 -26 -19 -26 -2 0 7 -6 19 -12 26 -8 7 -13
40 -13 86 0 69 1 73 18 58 9 -9 22 -33 27 -54z m-1943 39 c-3 -8 -6 -5 -6 6
-1 11 2 17 5 13 3 -3 4 -12 1 -19z m132 -33 l0 -20 -9 20 c-5 11 -9 29 -9 40
l0 20 9 -20 c5 -11 9 -29 9 -40z m1611 35 c0 -5 -9 -10 -20 -10 -12 0 -20 -7
-20 -17 0 -10 -4 -24 -9 -32 -8 -12 -12 -12 -26 2 -9 10 -24 17 -33 17 -10 0
-13 3 -6 8 6 4 13 14 16 23 7 18 98 26 98 9z m-2360 -15 c27 -10 48 -12 59 -6
13 7 26 -2 64 -44 38 -43 43 -54 29 -58 -9 -3 -25 -8 -35 -12 -13 -6 -16 -3
-11 9 6 15 -47 76 -71 80 -31 6 -85 29 -85 37 0 12 0 12 50 -6z m1644 -17 c3
-13 6 -34 6 -47 0 -24 0 -24 -15 -5 -16 21 -20 74 -6 74 5 0 11 -10 15 -22z
m397 -23 c-21 -25 -31 -46 -31 -69 0 -28 -5 -36 -30 -46 -44 -18 -57 -38 -36
-53 15 -11 14 -15 -14 -42 -16 -16 -30 -32 -30 -36 0 -4 -14 -22 -31 -40 -27
-29 -28 -34 -15 -48 14 -13 18 -12 41 9 14 13 25 31 25 39 0 9 16 27 36 40 30
21 35 29 30 52 -3 19 0 29 10 33 26 10 34 7 34 -13 0 -29 38 -140 60 -176 23
-37 28 -70 6 -40 -13 18 -15 18 -40 2 -34 -23 -67 -87 -59 -118 4 -13 16 -37
28 -54 40 -55 38 -60 -6 -17 -44 41 -69 53 -69 31 0 -6 14 -24 31 -40 18 -16
29 -33 25 -36 -3 -4 -19 6 -34 20 -38 37 -55 35 -47 -3 4 -17 2 -30 -3 -30
-21 0 -20 -31 0 -50 12 -11 17 -20 10 -20 -6 0 -14 5 -17 10 -3 6 -16 10 -28
10 -18 0 -15 -6 23 -45 47 -48 47 -58 -2 -24 -36 26 -49 17 -20 -14 26 -28 28
-47 6 -47 -10 0 -14 6 -11 15 8 19 -8 28 -33 20 -30 -10 -28 -87 3 -112 49
-40 51 -54 3 -27 -25 14 -48 30 -51 35 -4 5 -10 9 -16 9 -17 0 -9 -22 16 -42
34 -26 22 -43 -15 -21 -36 21 -50 11 -24 -18 l19 -22 -33 17 c-45 23 -55 10
-17 -20 39 -31 24 -31 -23 1 -25 17 -39 22 -47 14 -7 -7 -4 -15 9 -24 21 -16
13 -37 -11 -28 -11 4 -14 3 -9 -6 5 -7 1 -20 -7 -29 -9 -9 -16 -21 -17 -27 -1
-5 -10 -9 -21 -8 -20 3 -26 -11 -9 -22 5 -3 15 -15 20 -25 8 -16 8 -18 -5 -14
-26 10 -17 -23 12 -44 34 -25 23 -41 -11 -18 -40 25 -52 19 -23 -12 15 -15 27
-30 27 -33 0 -3 -16 -3 -35 -1 -28 3 -35 1 -35 -14 0 -9 -8 -26 -17 -36 -14
-15 -15 -23 -5 -38 11 -18 10 -18 -18 -2 -41 24 -51 6 -14 -26 55 -49 60 -66
8 -29 -56 40 -64 43 -64 24 0 -7 20 -30 45 -51 25 -20 43 -42 39 -47 -4 -7
-17 -1 -33 13 -42 39 -82 61 -92 51 -6 -6 10 -25 40 -49 61 -47 68 -66 9 -24
-45 33 -58 37 -58 17 0 -7 18 -26 40 -43 22 -16 40 -32 40 -36 0 -12 -3 -10
-40 17 -19 14 -38 25 -42 25 -17 0 -7 -25 20 -46 38 -31 22 -40 -22 -13 -26
15 -40 19 -48 11 -7 -7 -4 -13 10 -21 31 -16 53 -41 46 -52 -3 -6 -20 1 -39
15 -46 35 -77 33 -42 -3 10 -11 6 -12 -21 -6 -26 5 -33 3 -39 -12 -10 -29 -41
-64 -47 -55 -3 5 3 17 14 27 10 9 16 23 13 31 -3 8 3 21 13 29 14 10 16 17 8
25 -8 8 4 27 47 70 33 32 59 64 59 70 0 7 13 29 29 49 15 20 36 51 45 69 24
46 105 280 99 286 -2 2 8 30 23 61 22 44 32 55 47 51 47 -12 73 74 46 153 -9
25 -8 35 3 49 30 37 39 72 26 103 -7 16 -19 29 -26 29 -10 0 -12 11 -6 48 7
49 20 92 28 92 3 0 3 -11 0 -24 -4 -26 16 -49 37 -41 8 3 24 23 37 45 21 37
22 42 7 62 -23 34 -19 46 30 90 44 40 75 107 75 163 0 14 10 24 28 31 21 8 31
20 35 42 7 35 45 75 65 67 7 -2 15 2 19 11 5 14 35 32 57 33 4 1 -6 -15 -23
-34z m1309 11 c0 -15 -37 -32 -47 -22 -9 8 17 36 33 36 8 0 14 -6 14 -14z
m-3915 -83 c10 -15 27 -35 38 -44 18 -14 24 -14 48 -2 16 8 31 18 34 23 9 14
97 -1 122 -20 17 -13 19 -20 10 -29 -16 -16 -24 -14 -30 8 -6 25 -85 40 -101
19 -6 -8 -19 -17 -28 -21 -10 -3 -18 -13 -18 -22 0 -10 -10 -15 -30 -15 -16 0
-30 -4 -30 -10 0 -20 -15 -9 -42 29 -31 43 -37 98 -17 148 l12 28 7 -32 c4
-18 15 -45 25 -60z m267 65 c-6 -6 -15 -8 -19 -4 -4 4 -1 11 7 16 19 12 27 3
12 -12z m1410 -25 c-26 -19 -42 -15 -42 11 0 23 2 24 29 13 27 -10 28 -12 13
-24z m972 9 c-4 -21 1 -36 20 -59 29 -34 33 -53 13 -53 -35 0 -61 64 -45 111
13 37 19 38 12 1z m-1364 -44 c5 -29 12 -65 16 -80 6 -26 4 -28 -22 -28 -44 0
-96 36 -92 63 2 14 10 22 22 22 11 0 21 5 23 12 3 7 11 9 19 6 11 -4 14 4 14
33 0 51 10 38 20 -28z m481 48 c-7 -8 -16 -43 -20 -78 l-8 -63 -2 52 c-1 53
14 103 32 103 5 0 4 -6 -2 -14z m956 -16 c14 0 14 -2 -3 -15 -28 -21 -34 -18
-34 18 1 26 2 29 11 15 5 -10 17 -18 26 -18z m-408 -23 c1 -5 -3 -5 -9 -2 -5
3 -10 16 -9 28 0 21 1 21 9 2 5 -11 9 -24 9 -28z m516 33 c-3 -5 -14 -10 -23
-10 -15 0 -15 2 -2 10 20 13 33 13 25 0z m120 -1 c4 -5 0 -18 -9 -28 -9 -10
-16 -23 -16 -29 0 -11 -40 -8 -63 5 -14 8 4 23 27 23 15 0 26 7 29 20 6 22 22
26 32 9z m295 -3 c0 -8 -4 -18 -10 -21 -5 -3 -10 3 -10 14 0 12 5 21 10 21 6
0 10 -6 10 -14z m-2795 -26 c8 -16 15 -38 15 -50 0 -32 -29 -80 -48 -80 -9 0
-23 9 -30 21 -11 17 -9 24 13 51 20 24 25 37 20 59 -9 38 10 38 30 -1z m2328
23 c-7 -2 -19 -2 -25 0 -7 3 -2 5 12 5 14 0 19 -2 13 -5z m1151 -2 c3 -5 -1
-14 -9 -21 -13 -10 -15 -9 -15 9 0 21 14 28 24 12z m-2804 -35 c0 -18 -56 -87
-64 -79 -10 10 -7 45 4 38 17 -11 31 5 21 23 -6 11 -4 20 7 28 19 14 32 9 32
-10z m1890 15 c0 -5 -11 -11 -25 -13 -20 -4 -23 -3 -14 8 13 16 39 19 39 5z
m-1188 -26 c-2 -14 -6 -25 -8 -25 -2 0 -4 11 -4 25 0 14 4 25 9 25 4 0 6 -11
3 -25z m98 5 c0 -22 52 -128 108 -222 20 -33 32 -66 30 -80 -3 -19 -6 -14 -20
23 -8 25 -37 75 -63 110 -58 77 -88 143 -80 169 8 26 25 26 25 0z m868 1 c11
-7 10 -10 -3 -15 -19 -7 -35 0 -35 15 0 11 20 12 38 0z m512 -1 c0 -5 -5 -10
-11 -10 -5 0 -7 5 -4 10 3 6 8 10 11 10 2 0 4 -4 4 -10z m630 -35 c-10 -12
-16 -13 -27 -3 -13 10 -12 14 3 25 24 17 42 0 24 -22z m-2268 -25 c1 -28 2
-50 0 -50 -2 0 -14 12 -27 28 -37 42 -32 62 17 71 3 0 8 -22 10 -49z m2168 40
c0 -5 -4 -10 -10 -10 -5 0 -10 5 -10 10 0 6 5 10 10 10 6 0 10 -4 10 -10z
m-1670 -21 c0 -6 -4 -7 -10 -4 -5 3 -10 11 -10 16 0 6 5 7 10 4 6 -3 10 -11
10 -16z m-1530 6 c0 -9 -82 -46 -93 -42 -15 5 52 47 76 47 9 0 17 -2 17 -5z
m324 -40 c50 -35 166 -166 191 -214 63 -124 135 -372 128 -446 -4 -42 2 -64
33 -135 20 -47 38 -103 40 -125 3 -41 36 -129 58 -155 20 -23 25 -55 11 -80
-10 -19 -13 -20 -18 -6 -4 9 -13 13 -22 10 -10 -4 -15 -2 -13 7 2 9 -5 13 -19
12 -27 -3 -30 9 -8 27 26 22 1 34 -33 16 -36 -19 -42 -19 -42 -6 0 5 13 16 29
25 24 12 29 20 27 42 -4 30 -17 33 -66 19 l-25 -7 28 24 c30 25 27 40 -8 31
-20 -5 -22 -2 -18 20 6 30 -8 33 -51 11 -45 -24 -42 -10 3 16 43 24 50 39 27
58 -11 9 -20 9 -35 2 -30 -16 -36 -13 -17 8 17 18 17 20 -1 30 -17 10 -17 10
3 11 36 0 47 23 34 70 -12 45 -32 59 -56 39 -12 -10 -14 -24 -10 -54 2 -22 3
-34 0 -27 -3 6 -16 12 -28 12 -12 0 -33 14 -48 30 -14 17 -23 30 -20 30 3 0
-9 16 -28 35 -32 33 -35 34 -57 20 -23 -15 -32 -8 -14 11 6 5 5 25 -2 52 -8
30 -19 45 -38 54 -16 7 -30 21 -33 31 -4 15 -10 18 -30 13 -32 -8 -32 -4 -1
30 30 32 30 36 6 58 -15 13 -24 14 -46 6 -23 -9 -26 -8 -21 5 8 23 -22 30 -43
11 -30 -27 -37 1 -10 32 42 48 59 54 59 22 0 -24 13 -26 31 -4 7 9 34 26 61
39 41 20 49 21 59 8 16 -19 53 -13 57 10 4 20 -49 77 -73 77 -9 0 -32 -12 -51
-27 -29 -22 -37 -24 -45 -12 -5 8 -6 21 -3 29 10 28 9 35 -6 31 -8 -3 -32 -4
-52 -3 -21 1 -38 -2 -38 -7 0 -4 11 -25 25 -44 23 -35 24 -37 5 -47 -40 -22
-70 -4 -32 20 12 8 13 13 5 16 -7 3 -13 14 -13 24 0 10 -9 21 -19 25 -21 6
-36 38 -27 54 3 5 18 12 32 15 20 5 33 1 50 -15 32 -30 56 -19 53 25 -2 19 0
38 4 42 16 17 5 25 -25 19 l-33 -6 29 17 c24 13 33 14 52 4 32 -18 52 -7 60
34 3 20 11 36 18 36 6 0 33 -16 60 -35z m1336 23 c-1 -15 -66 -59 -74 -50 -3
3 8 13 24 23 17 11 30 23 30 29 0 5 5 10 10 10 6 0 10 -6 10 -12z m650 -2 c0
-8 -7 -17 -16 -20 -30 -11 -37 -6 -19 14 21 23 35 26 35 6z m1038 -4 c5 -15
-23 -26 -45 -18 -14 6 -14 8 3 21 21 16 36 15 42 -3z m-3658 -2 c0 -5 -4 -10
-9 -10 -6 0 -13 5 -16 10 -3 6 1 10 9 10 9 0 16 -4 16 -10z m455 0 c9 -15 -57
-52 -70 -39 -7 8 -7 13 1 16 6 2 20 10 30 18 23 17 31 18 39 5z m1410 -19 c3
-5 1 -12 -5 -16 -5 -3 -10 1 -10 9 0 18 6 21 15 7z m1091 -28 c-7 -17 -8 -17
-17 0 -12 21 -2 44 13 29 6 -6 8 -19 4 -29z m-2156 12 c7 -8 9 -23 5 -32 -6
-16 -8 -16 -26 6 -10 13 -19 27 -19 32 0 14 26 10 40 -6z m627 -27 c-3 -7 -5
-2 -5 12 0 14 2 19 5 13 2 -7 2 -19 0 -25z m-1417 1 c0 -5 -4 -9 -10 -9 -5 0
-10 7 -10 16 0 8 5 12 10 9 6 -3 10 -10 10 -16z m255 11 c-3 -5 -14 -10 -23
-10 -15 0 -15 2 -2 10 20 13 33 13 25 0z m55 -30 c0 -5 -9 -11 -20 -15 -11 -3
-43 -22 -71 -42 -35 -24 -50 -30 -46 -18 4 9 7 23 7 30 0 9 7 11 21 8 13 -4
26 0 33 8 28 38 76 56 76 29z m987 5 c9 -25 -4 -29 -17 -6 -7 15 -7 21 0 21 6
0 13 -7 17 -15z m1252 -10 c16 -18 19 -25 9 -25 -8 0 -23 -9 -33 -20 -17 -19
-17 -21 0 -40 24 -26 90 -25 90 2 0 9 4 20 8 24 4 5 -2 16 -15 26 l-23 18 28
0 c15 0 30 1 34 3 4 1 9 -7 12 -18 2 -11 12 -31 22 -44 11 -13 19 -32 19 -42
0 -26 15 -24 33 5 9 13 29 26 46 29 18 4 36 17 46 34 15 27 15 27 9 3 -10 -36
-41 -78 -64 -85 -26 -8 -26 -31 1 -38 17 -5 19 -9 10 -26 -8 -14 -8 -35 0 -73
6 -29 9 -84 6 -123 -3 -44 0 -84 8 -107 11 -32 10 -39 -2 -50 -9 -7 -27 -11
-42 -10 -19 2 -35 -6 -56 -27 -16 -17 -35 -31 -42 -31 -8 0 -19 -13 -24 -29
-6 -16 -18 -32 -27 -35 -9 -3 -23 -9 -29 -12 -9 -4 -13 5 -13 29 0 21 -7 41
-20 52 -26 23 -25 46 1 68 16 14 19 25 14 47 -8 37 7 39 37 5 12 -14 25 -25
29 -25 17 0 20 41 5 62 -27 38 -20 80 19 118 33 32 45 60 26 60 -5 0 -14 -7
-21 -16 -13 -14 -73 -44 -91 -44 -14 0 -39 31 -39 48 1 15 2 15 15 -1 18 -25
59 -14 52 13 -3 13 1 20 14 22 33 5 26 23 -11 26 -19 2 -39 10 -43 18 -4 8
-14 14 -21 14 -7 0 -18 23 -25 54 -13 61 -29 79 -62 74 -40 -6 -31 20 15 47
25 15 46 31 46 36 0 17 25 9 49 -16z m221 -30 c-42 -43 -60 -45 -60 -5 0 22 5
30 18 30 10 0 27 6 38 14 36 28 40 -2 4 -39z m-3088 23 c-7 -7 -12 -8 -12 -2
0 14 12 26 19 19 2 -3 -1 -11 -7 -17z m1352 -2 c3 -13 9 -31 12 -40 4 -12 0
-16 -15 -16 -26 0 -36 21 -27 55 8 32 22 32 30 1z m166 -12 c0 -8 -4 -12 -10
-9 -5 3 -10 13 -10 21 0 8 5 12 10 9 6 -3 10 -13 10 -21z m286 -42 c-8 -7 -24
7 -47 41 l-22 32 36 -34 c20 -19 35 -37 33 -39z m524 52 c0 -17 -22 -14 -28 4
-2 7 3 12 12 12 9 0 16 -7 16 -16z m-1640 1 c0 -3 -27 -18 -60 -35 -33 -17
-60 -25 -60 -20 0 6 24 22 53 35 54 25 67 29 67 20z m3344 -45 c44 -49 47 -61
6 -27 -16 14 -39 28 -50 32 -20 6 -25 16 -13 28 12 12 20 7 57 -33z m-653 -2
c11 -21 11 -22 -4 -9 -10 7 -17 17 -17 22 0 15 9 10 21 -13z m-1658 -51 c-3
-4 3 -24 12 -43 9 -20 14 -38 11 -41 -3 -4 -6 -1 -6 5 0 6 -16 31 -35 57 -26
33 -34 52 -29 67 6 20 7 19 29 -8 13 -16 21 -33 18 -37z m202 8 c23 -41 26
-65 7 -65 -14 0 -52 70 -52 95 0 34 12 26 45 -30z m-385 15 c-18 -11 -22 -7
-14 14 5 13 10 14 18 6 8 -8 7 -13 -4 -20z m-1275 3 c-3 -8 -5 -37 -5 -64 0
-45 -2 -50 -19 -44 -23 7 -37 -11 -22 -29 9 -11 5 -15 -20 -20 -33 -6 -35 -27
-3 -36 10 -3 19 -12 19 -20 0 -8 10 -16 23 -18 12 -2 22 2 22 9 0 6 8 18 18
25 16 13 16 15 -2 29 -16 12 -17 15 -4 20 9 4 18 23 22 45 5 30 11 39 32 44
15 4 27 6 28 4 0 -2 7 -13 14 -25 18 -33 15 -50 -10 -49 -17 1 -28 -12 -51
-57 -36 -73 -63 -87 -114 -63 -19 9 -38 15 -40 12 -14 -14 11 -36 58 -54 43
-16 53 -24 53 -44 1 -14 17 -41 36 -61 34 -36 63 -47 75 -27 10 16 35 12 35
-6 0 -11 -6 -14 -21 -9 -23 8 -23 1 -4 -62 6 -17 3 -23 -9 -23 -9 0 -25 -5
-35 -11 -15 -10 -30 -6 -87 24 -38 19 -83 41 -100 49 -17 7 -49 35 -72 61 -41
47 -42 49 -27 77 10 19 11 31 4 35 -7 5 -6 11 2 21 16 20 2 31 -21 16 -28 -17
-46 -16 -30 3 7 8 21 15 31 15 10 0 24 10 30 22 9 17 9 24 -5 33 -23 17 -20
42 9 77 17 20 23 37 19 53 -6 26 11 43 20 20 7 -18 67 -20 84 -3 7 7 12 20 12
29 0 13 8 17 30 17 23 -1 29 -5 25 -15z m1080 -93 c7 -14 15 -38 19 -55 l6
-30 -18 25 c-9 14 -31 41 -48 60 -30 33 -54 72 -54 85 0 13 83 -61 95 -85z
m-794 60 c-25 -21 -41 -26 -41 -12 0 9 38 30 55 31 6 0 -1 -9 -14 -19z m2889
5 c6 -8 10 -22 8 -32 -3 -14 -8 -12 -26 15 -18 24 -20 32 -9 32 8 0 20 -7 27
-15z m-715 -43 c-8 -8 -35 20 -35 37 1 12 5 11 21 -8 11 -13 17 -26 14 -29z
m-1291 23 c4 -11 -3 -19 -21 -26 -35 -13 -55 5 -27 26 25 19 40 19 48 0z m446
-25 c6 -11 8 -20 6 -20 -3 0 -10 9 -16 20 -6 11 -8 20 -6 20 3 0 10 -9 16 -20z
m-256 2 c3 -5 -8 -22 -24 -37 -34 -32 -43 -15 -12 23 18 23 28 27 36 14z
m-954 -12 c-8 -5 -19 -10 -25 -10 -5 0 -3 5 5 10 8 5 20 10 25 10 6 0 3 -5 -5
-10z m2133 -29 c24 -53 21 -61 -8 -21 -24 33 -32 60 -17 60 4 0 15 -18 25 -39z
m1182 29 c-3 -5 -10 -10 -16 -10 -5 0 -9 5 -9 10 0 6 7 10 16 10 8 0 12 -4 9
-10z m-3971 -24 c9 -14 12 -27 7 -30 -8 -5 -41 35 -41 49 0 13 19 3 34 -19z
m521 4 c-10 -11 -23 -20 -29 -20 -6 1 0 10 13 20 30 26 39 26 16 0z m2693 -2
c-6 -18 -28 -21 -28 -4 0 9 7 16 16 16 9 0 14 -5 12 -12z m-969 -24 c-6 -7
-15 -11 -21 -8 -5 3 -4 12 3 20 6 7 15 11 21 8 5 -3 4 -12 -3 -20z m-840 -24
c0 -10 -3 -8 -9 5 -12 27 -12 43 0 25 5 -8 9 -22 9 -30z m551 2 c0 -37 -26
-122 -45 -146 -12 -16 -18 -17 -27 -8 -21 21 -48 13 -98 -29 -27 -23 -54 -39
-61 -37 -7 2 11 19 39 37 59 38 99 81 108 117 5 18 12 24 28 22 16 -2 22 3 24
22 4 37 10 50 22 50 5 0 10 -13 10 -28z m686 -9 c-4 -4 -11 -1 -16 7 -16 25
-11 35 7 17 9 -9 13 -20 9 -24z m828 -43 c5 -23 4 -30 -2 -20 -5 8 -12 33 -16
55 -7 48 8 19 18 -35z m-2929 50 c-3 -5 -12 -10 -18 -10 -7 0 -6 4 3 10 19 12
23 12 15 0z m1255 -5 c29 -35 -19 -122 -78 -140 -25 -7 -82 11 -82 26 0 12 14
11 26 -1 14 -14 80 14 94 39 14 28 12 41 -6 41 -11 0 -14 5 -10 16 3 9 6 20 6
25 0 15 36 10 50 -6z m2260 11 c0 -2 -7 -7 -16 -10 -8 -3 -12 -2 -9 4 6 10 25
14 25 6z m55 -36 c-5 -8 -11 -8 -17 -2 -6 6 -7 16 -3 22 5 8 11 8 17 2 6 -6 7
-16 3 -22z m-2455 11 c0 -5 -6 -14 -14 -20 -16 -13 -32 2 -21 19 8 12 35 13
35 1z m2090 -31 c0 -5 -7 -10 -16 -10 -8 0 -12 5 -9 10 3 6 10 10 16 10 5 0 9
-4 9 -10z m-1149 -22 c21 -25 42 -58 36 -58 -1 0 -21 18 -42 40 -21 22 -33 40
-26 40 7 0 21 -10 32 -22z m-2017 -13 c-22 -17 -48 -20 -39 -4 8 12 48 29 54
23 3 -2 -4 -11 -15 -19z m3255 -24 c19 -24 27 -42 21 -46 -21 -13 -10 -27 18
-21 25 6 25 5 9 -8 -20 -15 -8 -30 16 -20 8 3 18 1 21 -5 4 -6 -5 -13 -19 -17
-13 -3 -23 -10 -20 -14 3 -5 14 -6 25 -3 30 8 24 -6 -7 -19 l-28 -12 33 -4
c61 -6 35 -25 -73 -52 -27 -7 -58 -14 -67 -17 -10 -3 -18 -1 -18 5 0 5 27 18
60 28 33 11 60 22 60 27 0 12 -38 8 -77 -8 -41 -17 -57 -19 -48 -6 3 5 28 17
55 26 28 9 50 20 50 25 0 5 3 15 6 24 4 11 1 16 -11 16 -9 0 -14 4 -10 10 3 5
2 17 -3 27 -14 27 -42 93 -42 98 0 15 22 0 49 -34z m-3504 10 c10 -17 -12 -21
-25 -6 -10 12 -10 15 3 15 9 0 18 -4 22 -9z m3165 5 c0 -11 -19 -15 -25 -6 -3
5 1 10 9 10 9 0 16 -2 16 -4z m-2872 -28 c-17 -25 -48 -36 -48 -17 0 14 30 38
49 39 11 0 11 -4 -1 -22z m-598 -18 c0 -5 -4 -10 -10 -10 -5 0 -10 5 -10 10 0
6 5 10 10 10 6 0 10 -4 10 -10z m294 -11 c-3 -5 -10 -7 -15 -3 -5 3 -7 10 -3
15 3 5 10 7 15 3 5 -3 7 -10 3 -15z m425 -15 c-32 -34 -44 -30 -18 6 12 16 26
27 31 24 5 -4 -1 -17 -13 -30z m562 -27 c-8 -8 -11 -2 -11 19 0 40 14 54 18
19 2 -15 -1 -32 -7 -38z m2176 21 c-3 -7 -5 -2 -5 12 0 14 2 19 5 13 2 -7 2
-19 0 -25z m171 8 c3 -12 -1 -17 -10 -14 -7 3 -15 13 -16 22 -3 12 1 17 10 14
7 -3 15 -13 16 -22z m-3670 -19 c2 -11 -3 -17 -14 -17 -10 0 -26 -7 -36 -17
-27 -24 -24 5 4 34 24 26 41 25 46 0z m669 17 c-3 -3 -12 -4 -19 -1 -8 3 -5 6
6 6 11 1 17 -2 13 -5z m1023 -47 c8 -3 -4 -6 -27 -6 -30 -1 -49 5 -63 19 -34
34 -22 41 28 17 26 -14 54 -27 62 -30z m1180 14 l0 -26 -15 29 c-19 35 -19 37
0 30 8 -4 15 -18 15 -33z m-69 2 c-8 -15 -10 -15 -11 -2 0 17 10 32 18 25 2
-3 -1 -13 -7 -23z m606 -11 c77 -51 157 -148 227 -275 30 -54 76 -123 102
-154 27 -31 48 -64 46 -73 -1 -10 4 -23 13 -30 9 -7 15 -29 15 -52 0 -30 -7
-45 -27 -65 -44 -40 -176 -139 -252 -188 -77 -50 -90 -72 -66 -108 11 -18 15
-45 14 -98 -2 -67 0 -74 25 -95 33 -29 33 -34 -4 -34 -39 0 -53 24 -75 125
-20 95 -31 125 -45 125 -13 0 -3 -130 15 -190 8 -25 24 -89 36 -142 20 -91 21
-106 11 -255 -6 -87 -18 -183 -27 -213 -8 -30 -27 -109 -40 -175 -14 -66 -30
-131 -35 -145 -5 -14 -11 -54 -12 -89 -2 -39 -9 -66 -16 -69 -7 -2 -12 6 -12
19 0 20 -2 21 -14 9 -19 -20 -47 -118 -36 -125 12 -7 33 33 24 47 -4 6 -1 9 7
6 24 -8 17 -218 -10 -293 -41 -114 -92 -328 -88 -370 3 -35 14 -50 73 -105
138 -130 129 -120 111 -137 -14 -14 -18 -14 -43 6 -29 23 -49 27 -59 11 -3 -6
7 -18 24 -28 38 -21 39 -32 5 -32 -32 0 -64 16 -86 44 -9 11 -45 32 -80 46
-62 25 -63 26 -60 60 1 19 4 58 6 85 2 28 11 91 19 140 8 50 13 93 11 96 -2 4
-4 72 -5 153 0 104 5 168 17 223 14 65 15 91 6 168 -6 49 -11 157 -11 238 -1
82 -4 160 -7 173 -12 48 -22 22 -29 -73 -3 -54 -10 -145 -15 -202 -9 -93 -8
-113 10 -176 17 -62 18 -78 8 -121 -7 -28 -13 -146 -14 -276 -2 -128 -7 -236
-13 -246 -6 -11 -13 -50 -17 -88 l-7 -69 -74 -72 c-40 -40 -78 -73 -83 -73
-20 0 -20 22 0 54 27 44 9 58 -29 22 -31 -30 -51 -20 -51 25 0 21 14 37 66 78
37 28 72 51 78 51 7 0 23 14 36 32 22 30 23 34 11 111 -7 44 -22 103 -33 131
-11 28 -27 80 -35 116 -7 36 -18 83 -24 105 -23 92 -30 153 -23 205 10 72 7
99 -16 146 -11 21 -20 50 -20 64 0 14 -16 106 -36 205 -20 99 -40 201 -46 228
-5 26 -7 120 -4 210 8 233 8 266 3 422 -2 77 -7 148 -12 158 -13 30 -35 20
-35 -17 0 -22 -6 -36 -16 -40 -13 -5 -14 -2 -9 11 14 32 18 83 6 83 -6 0 -18
-15 -27 -32 -19 -39 -53 -78 -67 -78 -6 0 -18 -6 -26 -14 -9 -8 -47 -26 -86
-41 -38 -15 -77 -34 -86 -41 -8 -8 -30 -14 -48 -14 -17 0 -49 -9 -71 -20 -21
-11 -45 -17 -53 -15 -16 7 -37 -34 -37 -73 0 -47 -33 -88 -75 -95 -21 -3 -46
-2 -55 3 -10 5 -20 7 -23 3 -4 -3 -13 0 -21 6 -8 7 -20 10 -25 7 -9 -6 -41 30
-41 46 0 15 28 8 34 -8 5 -13 9 -14 20 -4 12 9 17 7 26 -9 14 -28 32 -27 28 1
-2 13 -16 29 -33 38 -16 8 -32 16 -34 17 -2 1 11 16 28 34 28 28 36 31 70 25
27 -4 42 -2 50 8 18 22 -74 28 -116 8 -48 -23 -54 -6 -11 34 28 25 47 34 72
34 48 0 95 22 152 72 100 89 150 125 196 142 26 10 50 22 54 27 3 6 7 36 9 67
8 129 16 209 25 242 6 19 10 82 10 138 0 113 11 151 56 193 22 20 38 24 105
28 78 3 79 3 79 -22 0 -13 6 -30 14 -36 10 -8 13 -39 11 -129 l-3 -117 -31 -3
c-35 -4 -41 -21 -11 -29 24 -6 24 -5 1 -49 l-20 -37 -7 27 c-10 42 -29 25 -27
-25 6 -119 4 -146 -16 -192 -30 -70 -28 -81 20 -100 36 -14 45 -15 69 -2 36
19 58 91 40 134 -12 31 -3 62 23 78 15 9 35 52 63 131 13 37 28 59 54 77 40
28 56 31 62 13 6 -16 28 0 28 21 0 10 20 27 55 45 32 16 55 34 56 44 2 46 7
63 22 80 9 10 17 24 17 30 0 7 11 12 25 12 19 0 26 7 31 28 4 15 16 39 26 55
27 38 87 38 145 -1z m-197 6 c0 -24 -18 -41 -34 -35 -14 5 -15 11 -6 27 12 22
40 27 40 8z m620 -6 c0 -7 -63 -42 -75 -42 -26 0 35 42 73 49 1 1 2 -3 2 -7z
m-1904 -47 c-9 -14 -21 -25 -27 -25 -11 0 -4 15 19 43 22 25 28 12 8 -18z
m-1881 -23 c-6 -7 -35 18 -35 31 0 5 9 2 20 -8 11 -10 18 -20 15 -23z m1526 8
c14 -11 18 -19 11 -20 -19 0 -52 19 -52 30 0 16 16 12 41 -10z m-1562 -36 c23
-25 50 -44 59 -43 33 3 44 -1 39 -15 -7 -18 47 -67 103 -96 37 -19 44 -20 83
-6 36 12 44 12 58 0 8 -8 34 -14 57 -14 34 0 48 6 77 35 19 20 35 42 35 50 0
21 -72 77 -84 65 -14 -14 -26 -12 -26 4 0 43 63 17 108 -45 34 -45 33 -61 -4
-77 l-24 -12 20 -35 c29 -52 26 -98 -9 -137 -26 -29 -35 -33 -77 -31 -56 2
-91 24 -119 76 -34 63 -69 43 -36 -21 27 -53 73 -95 118 -108 34 -9 39 -16 49
-55 7 -24 12 -90 13 -146 0 -88 4 -110 25 -155 14 -29 28 -73 31 -98 4 -25 13
-81 22 -125 21 -110 5 -375 -37 -600 -10 -55 -23 -125 -29 -155 -6 -30 -21
-125 -35 -210 -39 -241 -57 -334 -69 -348 -6 -8 -12 -47 -12 -88 -1 -42 -7
-80 -13 -86 -7 -7 -12 -27 -12 -44 0 -18 -5 -45 -10 -60 -6 -14 -12 -55 -15
-91 -2 -35 -10 -72 -17 -80 -11 -13 -10 -18 6 -27 10 -6 37 -25 60 -41 51 -38
68 -46 131 -59 64 -14 67 -37 7 -50 -32 -7 -61 -5 -111 7 -47 12 -88 15 -128
11 -56 -6 -61 -5 -80 20 -12 14 -24 26 -27 26 -3 0 -13 -15 -22 -33 -54 -112
-101 -177 -127 -177 -22 0 -30 31 -12 50 8 9 15 20 15 23 0 14 -34 6 -54 -12
-12 -11 -30 -21 -41 -23 -17 -2 -19 2 -17 27 4 36 41 105 57 105 6 0 27 21 46
48 49 65 64 138 53 244 -5 46 -9 146 -9 223 1 131 2 144 29 209 25 61 29 82
27 159 -1 59 -7 101 -18 125 l-17 37 -7 -130 c-7 -149 -38 -281 -92 -398 -42
-91 -73 -117 -137 -117 -43 0 -51 4 -82 38 -32 36 -51 75 -76 157 -7 25 -14
30 -40 31 -42 0 -51 11 -24 30 12 8 22 19 22 24 0 16 -32 41 -46 36 -19 -7
-44 4 -44 20 0 7 -9 19 -21 27 -13 10 -23 30 -26 57 l-6 42 25 -16 c24 -16 25
-15 36 9 7 14 12 32 12 40 0 8 4 15 9 15 18 0 36 -34 36 -69 0 -25 4 -35 14
-33 7 1 18 -4 25 -12 9 -13 15 -14 36 -3 21 11 24 19 22 47 l-4 35 22 -20 c16
-14 24 -16 27 -7 3 6 15 12 28 12 16 0 33 12 51 35 33 43 54 33 54 -26 0 -35
3 -39 25 -39 14 0 25 -2 25 -3 0 -12 -89 -101 -107 -108 -12 -4 -23 -18 -25
-31 -2 -15 -11 -24 -26 -26 -35 -5 -43 -32 -27 -91 16 -63 28 -78 73 -97 33
-14 37 -13 59 8 47 44 102 178 123 300 12 65 9 220 -5 283 -4 17 -1 44 5 60
10 27 13 28 24 13 23 -31 25 -8 5 55 -28 92 -70 211 -79 222 -11 15 -41 158
-54 260 -16 125 7 263 58 354 33 58 36 70 36 144 0 121 -74 367 -102 339 -12
-12 -3 -66 28 -160 18 -54 18 -134 0 -198 -7 -27 -19 -83 -25 -124 -7 -41 -16
-91 -21 -110 -5 -19 -14 -78 -20 -130 -6 -52 -20 -122 -31 -155 -10 -33 -19
-69 -19 -80 0 -11 -10 -40 -23 -65 -19 -38 -29 -47 -69 -60 -52 -17 -111 -67
-104 -87 8 -19 -5 -73 -17 -73 -16 0 -1 103 21 146 11 22 30 48 42 59 37 34
63 100 64 168 0 34 -3 121 -7 192 -7 104 -5 144 7 196 18 81 21 134 12 275 -4
68 -2 146 5 200 6 49 12 109 14 134 7 108 34 178 89 230 26 23 120 75 142 79
6 0 30 -19 53 -45z m1674 22 c19 -14 23 -36 7 -36 -6 0 -13 7 -16 15 -4 8 -17
15 -30 15 -13 0 -24 5 -24 10 0 14 42 12 63 -4z m122 -43 c-8 -34 -11 -37 -24
-29 -7 5 -7 15 1 31 15 34 32 32 23 -2z m2166 -8 c-1 -15 -24 -12 -29 3 -3 9
2 13 12 10 10 -1 17 -7 17 -13z m-3771 -40 c13 -14 29 -25 37 -25 7 0 13 -4
13 -8 0 -9 -86 1 -96 11 -8 7 5 47 15 47 4 0 18 -11 31 -25z m3734 9 c9 -3 16
-14 16 -24 0 -10 4 -20 10 -22 5 -1 12 -17 16 -34 5 -27 2 -32 -24 -43 -21 -9
-35 -25 -47 -57 -17 -46 -43 -75 -30 -34 7 21 5 22 -27 15 -37 -8 -62 -25 -35
-25 9 0 17 -4 17 -10 0 -5 -7 -10 -16 -10 -8 0 -12 -5 -9 -10 4 -6 16 -8 28
-4 21 6 21 5 5 -12 -17 -17 -18 -17 -38 1 -11 10 -20 28 -20 41 0 18 10 26 48
40 26 9 51 21 57 26 14 12 -15 9 -60 -7 -48 -17 -45 -17 -45 -6 0 5 16 12 36
16 43 8 84 25 84 36 0 4 -17 2 -37 -3 -69 -18 -96 -21 -90 -11 4 5 37 18 74
27 102 26 97 24 83 41 -7 8 -10 15 -6 15 4 0 -1 11 -10 25 -9 14 -20 22 -25
19 -13 -8 -113 -33 -117 -29 -6 5 102 44 125 44 12 1 28 -2 37 -5z m338 -34
c-2 -16 -8 -30 -13 -30 -10 0 -12 31 -3 54 10 26 21 9 16 -24z m-2708 6 c-3
-9 -10 -16 -15 -16 -14 0 -11 28 4 33 16 6 19 3 11 -17z m420 -20 c4 -18 3
-42 -1 -52 -6 -16 -8 -14 -14 11 -10 45 -10 75 0 75 5 0 12 -15 15 -34z m1092
23 c10 -17 -23 -46 -38 -31 -8 8 -8 15 2 27 15 18 26 19 36 4z m1078 -10 c-7
-11 -44 -12 -44 -1 0 15 11 20 30 15 11 -3 17 -9 14 -14z m-3234 3 c0 -5 -12
-14 -27 -21 -28 -13 -28 -13 -9 8 20 22 36 27 36 13z m-480 -12 c0 -5 -10 -10
-22 -9 -22 0 -22 1 -3 9 11 5 21 9 23 9 1 1 2 -3 2 -9z m3595 0 c-3 -5 -13
-10 -21 -10 -8 0 -12 5 -9 10 3 6 13 10 21 10 8 0 12 -4 9 -10z m-180 -40
c-22 -10 -49 -19 -60 -18 -11 0 3 8 30 18 64 24 81 24 30 0z m-2055 -12 c0
-16 -3 -19 -11 -11 -6 6 -8 16 -5 22 11 17 16 13 16 -11z m87 0 c-3 -8 -6 -5
-6 6 -1 11 2 17 5 13 3 -3 4 -12 1 -19z m-1310 -55 c17 -27 33 -60 37 -75 3
-16 13 -28 21 -28 8 0 15 -4 15 -8 0 -15 -38 -44 -49 -38 -17 11 -22 -11 -15
-70 6 -49 9 -55 20 -40 8 11 14 13 19 7 7 -13 25 -14 43 -3 10 7 9 17 -3 52
-16 44 -13 76 4 66 21 -13 31 -150 12 -169 -6 -6 -11 -7 -11 -2 -1 27 -17 36
-43 24 -20 -9 -27 -20 -27 -40 0 -38 15 -44 50 -19 35 25 60 20 60 -11 0 -18
-2 -19 -15 -9 -21 17 -55 -13 -56 -49 l-1 -26 -7 24 c-4 14 -13 27 -20 29 -11
4 -12 -8 -6 -59 4 -35 11 -74 16 -87 5 -13 9 -33 9 -45 0 -39 14 -51 39 -35
17 10 21 21 19 53 -2 32 -7 40 -27 45 -14 3 -27 12 -29 19 -3 10 1 12 13 7 13
-5 25 1 41 21 26 32 43 25 26 -12 -14 -31 -5 -83 18 -110 10 -11 20 -33 22
-50 3 -16 9 -38 13 -47 4 -10 3 -18 -3 -18 -5 0 -17 18 -26 40 -9 22 -19 40
-24 40 -18 0 -31 -25 -26 -54 4 -30 3 -29 -15 9 l-20 40 0 -35 c0 -19 4 -103
8 -186 11 -174 21 -207 89 -279 52 -54 84 -99 96 -130 6 -19 5 -18 -16 2 -51
50 -120 103 -134 103 -27 0 -27 -30 0 -70 42 -64 35 -76 -20 -34 -23 18 -37
39 -44 68 -6 22 -19 68 -29 101 -14 43 -21 106 -26 220 -8 184 -14 227 -45
310 -20 53 -22 78 -21 209 1 141 3 152 27 193 19 34 30 43 44 38 22 -7 37 12
21 28 -6 6 -11 18 -11 27 0 9 -13 34 -30 56 -31 41 -36 54 -21 54 5 0 22 -21
38 -47z m996 27 c3 -11 3 -20 1 -20 -2 0 -8 9 -14 20 -6 11 -7 20 -2 20 6 0
12 -9 15 -20z m1377 -5 c0 -8 -9 -15 -20 -15 -20 0 -26 11 -13 23 12 13 33 7
33 -8z m1114 -4 c3 -5 -10 -11 -30 -13 -42 -5 -57 9 -17 15 16 2 31 5 35 6 4
0 9 -3 12 -8z m147 -37 c-5 -16 -10 -21 -10 -12 -1 18 10 51 15 45 2 -1 -1
-16 -5 -33z m-101 -26 c0 -27 -17 -57 -55 -98 -35 -37 -51 -96 -29 -104 18 -7
29 -75 15 -89 -8 -8 -11 -6 -11 9 0 11 -11 35 -24 53 -24 32 -24 51 -3 79 6 8
5 17 -3 27 -15 18 -5 35 23 35 22 0 51 32 40 44 -4 3 -16 7 -27 7 -12 1 -7 4
12 8 39 7 43 22 12 38 -20 10 -21 11 -4 15 32 7 54 -3 54 -24z m-2451 -59 c15
-33 19 -55 13 -65 -7 -12 -12 -5 -21 32 -7 27 -22 65 -34 84 l-21 35 21 -18
c12 -10 31 -41 42 -68z m-89 -21 c11 -24 19 -59 19 -78 0 -34 -1 -34 -13 12
-7 26 -17 53 -23 60 -6 7 -13 22 -15 33 -3 11 -9 29 -13 40 -13 35 23 -18 45
-67z m192 40 c-9 -9 -12 -7 -12 12 0 19 3 21 12 12 9 -9 9 -15 0 -24z m558 -3
c13 -14 19 -25 14 -25 -11 1 -54 36 -54 44 0 13 18 5 40 -19z m520 16 c0 -27
-23 -67 -40 -68 -17 -1 -18 2 -9 25 6 14 15 32 21 39 12 15 28 17 28 4z m1080
-73 c-1 -36 -3 -40 -13 -28 -7 9 -20 14 -31 12 -20 -4 -16 6 13 40 24 28 31
22 31 -24z m-1170 -98 c-16 -10 -32 -9 -31 3 1 4 1 26 2 50 l0 42 22 -43 c18
-37 19 -44 7 -52z m1371 -63 c-1 -38 4 -53 24 -73 21 -21 25 -34 25 -84 0 -32
-4 -62 -10 -65 -19 -12 -10 -24 17 -22 25 2 27 -1 39 -68 18 -102 18 -155 -2
-155 -8 0 -12 5 -9 10 4 6 4 18 1 27 -6 14 -8 14 -26 -2 -18 -16 -20 -16 -26
-1 -9 24 -22 20 -43 -14 l-18 -30 -1 32 c-1 23 7 42 26 61 l27 29 -30 -16
c-16 -8 -37 -17 -46 -20 -9 -2 -28 -29 -44 -60 -16 -31 -32 -56 -37 -56 -14 0
-9 57 7 70 21 17 19 29 -4 23 -17 -4 -18 -1 -7 54 10 51 15 60 43 73 20 9 33
23 33 34 0 15 -3 16 -15 6 -9 -7 -18 -10 -21 -7 -4 3 -22 -6 -41 -20 -22 -17
-30 -29 -22 -33 8 -6 8 -9 0 -14 -6 -4 -11 -3 -11 2 0 12 -49 12 -56 1 -3 -5
-15 -9 -26 -9 -21 0 -21 0 1 24 19 20 22 31 16 58 -12 57 -9 98 8 115 15 16
18 15 40 -5 25 -23 57 -28 86 -13 9 6 33 40 51 76 l34 67 -15 59 c-14 54 -14
61 0 82 15 21 16 21 24 -33 5 -30 8 -77 8 -103z m-1836 125 c0 -18 -20 -15
-23 4 -3 10 1 15 10 12 7 -3 13 -10 13 -16z m1663 -168 c4 -28 -73 -93 -91
-75 -13 13 13 37 51 47 22 6 31 24 12 24 -5 0 -10 7 -10 16 0 23 34 13 38 -12z
m-1192 -32 c-15 -15 -16 -15 -16 4 0 28 24 52 28 28 2 -9 -3 -24 -12 -32z
m-1336 -52 c0 -5 -2 -10 -4 -10 -3 0 -8 5 -11 10 -3 6 -1 10 4 10 6 0 11 -4
11 -10z m2378 -19 c-5 -24 -41 -20 -43 5 -1 17 3 20 22 16 16 -3 23 -10 21
-21z m-2178 -111 c12 0 18 -4 15 -10 -3 -5 -14 -10 -24 -10 -9 0 -25 -6 -35
-13 -17 -12 -17 -15 3 -51 l22 -38 -23 7 c-37 12 -43 11 -43 -6 0 -9 -6 -23
-13 -32 -11 -13 -9 -18 8 -30 19 -13 20 -18 8 -36 -10 -16 -10 -23 0 -33 15
-15 16 -31 0 -22 -8 5 -9 2 -3 -12 20 -50 35 -109 30 -124 -3 -9 -16 -27 -29
-39 l-23 -22 -6 63 c-3 34 -11 67 -19 73 -7 5 -13 18 -13 29 0 10 -15 27 -36
39 -31 18 -39 19 -53 8 -9 -7 -16 -26 -16 -42 0 -32 -35 -57 -64 -46 -23 9
-20 25 10 52 l26 25 -26 10 c-40 15 -60 12 -89 -10 -30 -24 -77 -27 -77 -5 0
16 -42 30 -65 21 -18 -7 -20 -33 -2 -39 6 -2 3 -3 -8 -1 -22 4 -55 -22 -55
-43 0 -7 6 -13 14 -13 23 0 30 -20 11 -34 -15 -11 -15 -13 -1 -25 26 -22 20
-43 -11 -39 -23 2 -28 8 -28 31 0 16 -8 34 -17 41 -11 8 -18 26 -18 47 0 43
51 99 91 99 14 0 43 7 63 15 29 12 45 13 74 5 46 -12 52 -12 52 0 0 5 -12 16
-27 24 l-28 15 35 -6 c19 -4 50 -15 69 -26 31 -19 35 -19 46 -4 7 10 23 16 36
15 37 -4 29 24 -10 34 -18 5 -31 11 -28 14 3 3 29 -2 58 -10 66 -20 79 -20 79
-1 0 8 -1 15 -2 15 -2 0 -28 9 -58 20 l-55 20 50 -5 c52 -5 82 5 71 24 -4 6
-22 11 -41 11 -18 0 -40 3 -49 6 -28 11 -6 24 40 24 32 0 44 4 44 15 0 9 -10
15 -26 15 -14 0 -23 4 -19 10 3 6 15 10 26 10 11 0 19 7 19 16 0 13 -8 15 -52
9 -68 -9 -55 5 14 16 29 5 57 15 63 23 8 12 17 7 52 -29 24 -25 52 -45 63 -45z
m2140 25 c0 -8 -4 -15 -9 -15 -13 0 -22 16 -14 24 11 11 23 6 23 -9z m-50 -21
c0 -8 -4 -12 -10 -9 -5 3 -10 10 -10 16 0 5 5 9 10 9 6 0 10 -7 10 -16z m112
4 c-9 -9 -15 -9 -24 0 -9 9 -7 12 12 12 19 0 21 -3 12 -12z m-1112 -63 c0 -6
-7 -35 -15 -63 -12 -40 -20 -52 -36 -52 -11 0 -22 -8 -26 -17 -3 -10 -12 -25
-19 -34 -11 -12 -11 -22 -2 -46 16 -42 -8 -126 -37 -131 -11 -2 -27 -13 -36
-24 -15 -20 -16 -18 -15 26 1 44 3 47 24 43 25 -5 30 0 42 43 6 21 4 32 -5 40
-11 9 -17 5 -29 -17 l-16 -28 6 30 c4 17 18 39 32 51 20 17 25 30 25 67 0 43
2 47 24 47 29 0 58 56 41 78 -8 9 -14 10 -22 2 -16 -16 -25 -12 -19 9 3 11 12
22 22 24 18 4 61 -30 61 -48z m956 -12 c-10 -10 -19 5 -10 18 6 11 8 11 12 0
2 -7 1 -15 -2 -18z m-1997 -10 c0 -25 -1 -26 -9 -8 -12 27 -12 35 0 35 6 0 10
-12 9 -27z m2136 -33 c14 -15 16 -23 7 -32 -8 -8 -16 -5 -31 13 -31 38 -9 55
24 19z m80 0 c-20 -22 -40 -26 -50 -10 -11 17 5 30 37 30 30 0 31 0 13 -20z
m-200 -20 c-5 -8 -11 -8 -17 -2 -6 6 -7 16 -3 22 5 8 11 8 17 2 6 -6 7 -16 3
-22z m-1771 4 c9 -22 -3 -32 -14 -14 -12 19 -12 30 -1 30 5 0 12 -7 15 -16z
m1836 -9 c0 -8 -4 -15 -10 -15 -5 0 -10 7 -10 15 0 8 5 15 10 15 6 0 10 -7 10
-15z m-2065 -15 c3 -5 1 -10 -4 -10 -6 0 -11 5 -11 10 0 6 2 10 4 10 3 0 8 -4
11 -10z m2242 -25 c-15 -14 -33 -25 -40 -25 -7 0 1 12 16 25 15 14 33 25 40
25 7 0 -1 -12 -16 -25z m-71 4 c10 -17 -13 -36 -27 -22 -12 12 -4 33 11 33 5
0 12 -5 16 -11z m-3107 -45 c8 -32 18 -48 32 -51 20 -5 23 -15 34 -91 4 -35 2
-44 -12 -49 -10 -4 -22 -12 -26 -20 -4 -7 -12 -13 -17 -13 -16 0 -42 49 -51
93 -7 38 -5 44 18 63 23 18 24 23 13 45 -6 13 -24 34 -38 46 l-27 23 31 0 c29
0 33 -4 43 -46z m3331 41 c0 -3 -4 -13 -9 -23 -5 -9 -14 -30 -21 -47 -7 -16
-15 -24 -17 -18 -5 15 27 93 39 93 4 0 8 -2 8 -5z m-480 -60 c0 -5 -5 -3 -10
5 -5 8 -10 20 -10 25 0 6 5 3 10 -5 5 -8 10 -19 10 -25z m140 15 c0 -5 -4 -10
-10 -10 -5 0 -10 5 -10 10 0 6 5 10 10 10 6 0 10 -4 10 -10z m163 -16 c9 -10
-4 -34 -19 -34 -8 0 -14 6 -14 13 0 22 19 35 33 21z m294 -16 c-3 -8 -6 -5 -6
6 -1 11 2 17 5 13 3 -3 4 -12 1 -19z m-1914 -12 c34 -6 41 -13 58 -51 11 -24
22 -77 24 -118 5 -68 3 -75 -20 -97 -28 -26 -39 -22 -42 18 -1 15 -4 36 -5 47
-2 14 2 19 15 17 22 -4 22 3 -3 28 -26 26 -25 40 1 40 29 0 22 44 -8 48 -13 2
-20 8 -17 17 10 26 -17 25 -42 -2 -26 -28 -26 -28 -5 -41 18 -13 19 -16 6 -35
-11 -17 -12 -32 -4 -66 9 -39 7 -48 -15 -81 -17 -26 -21 -41 -14 -48 7 -7 7
-16 0 -29 -10 -16 -12 -16 -21 10 -15 39 -14 57 4 63 8 4 15 10 15 15 0 5 -7
9 -15 9 -22 0 -18 17 5 23 23 6 27 27 5 27 -18 0 -20 26 -2 33 9 4 9 7 -1 15
-7 5 -10 16 -7 24 4 9 -1 18 -11 22 -13 5 -14 9 -5 20 10 11 8 16 -5 24 -17 9
-16 13 9 51 22 33 31 40 45 33 9 -5 34 -12 55 -16z m1487 14 c0 -5 -4 -10 -10
-10 -5 0 -10 5 -10 10 0 6 5 10 10 10 6 0 10 -4 10 -10z m90 -3 c0 -8 -9 -22
-20 -32 -23 -20 -24 -17 -10 19 10 27 30 35 30 13z m-1940 -16 c0 -5 3 -16 6
-25 3 -9 1 -16 -5 -16 -6 0 -11 7 -11 15 0 7 -8 19 -17 24 -16 9 -16 10 5 11
12 0 22 -4 22 -9z m2226 -28 c-10 -10 -19 5 -10 18 6 11 8 11 12 0 2 -7 1 -15
-2 -18z m-266 4 c0 -19 -27 -53 -36 -45 -9 10 12 58 26 58 5 0 10 -6 10 -13z
m-140 -12 c0 -8 -4 -15 -10 -15 -5 0 -10 7 -10 15 0 8 5 15 10 15 6 0 10 -7
10 -15z m180 -7 c-1 -18 -37 -64 -45 -57 -7 7 27 69 38 69 4 0 7 -6 7 -12z
m-310 -19 c0 -5 -4 -9 -10 -9 -5 0 -10 7 -10 16 0 8 5 12 10 9 6 -3 10 -10 10
-16z m186 -26 c-10 -10 -19 5 -10 18 6 11 8 11 12 0 2 -7 1 -15 -2 -18z
m-1766 3 c0 -7 7 -19 16 -27 14 -11 14 -13 0 -21 -9 -5 -16 -22 -16 -38 0 -37
-37 -110 -56 -110 -17 0 -19 55 -3 66 7 4 8 9 0 17 -7 7 -6 14 3 21 27 21 29
54 4 67 -19 10 -24 9 -35 -8 -12 -18 -19 -20 -56 -11 -23 6 -95 11 -159 12
-73 0 -117 5 -115 11 1 6 70 10 180 11 123 0 181 4 189 12 16 16 48 15 48 -2z
m-757 -16 c3 -10 -1 -24 -9 -31 -21 -17 -17 -28 14 -40 25 -10 26 -12 10 -23
-21 -15 -23 -33 -5 -39 9 -3 9 -7 1 -18 -16 -19 -12 -58 6 -69 12 -7 12 -14 4
-27 -7 -11 -10 -70 -8 -158 1 -77 3 -166 3 -197 1 -49 4 -58 22 -63 15 -5 25
-2 31 9 12 22 20 20 70 -13 24 -16 59 -31 78 -33 33 -3 35 -5 40 -48 3 -25 13
-56 22 -68 33 -48 104 -82 171 -82 48 0 142 42 157 70 18 34 98 113 108 106
15 -9 -2 -79 -31 -128 -55 -94 -116 -128 -229 -128 -93 0 -155 28 -220 98 -46
49 -58 75 -40 86 13 8 1 66 -13 66 -7 0 -20 -11 -29 -25 l-16 -24 -38 21 c-20
12 -47 30 -59 41 -13 11 -39 21 -59 22 -26 2 -46 13 -75 41 -35 34 -39 43 -34
72 4 24 2 32 -9 32 -8 0 -27 11 -43 24 -20 17 -33 22 -45 15 -43 -24 -132 76
-108 122 9 16 7 27 -7 51 -10 17 -26 35 -35 39 -10 5 -26 13 -35 17 -9 5 -26
20 -36 34 -42 56 19 139 64 86 10 -13 18 -29 19 -37 0 -8 9 -25 21 -37 16 -17
19 -27 11 -40 -7 -13 -5 -25 11 -46 11 -15 26 -28 33 -28 15 0 94 -86 94 -103
0 -8 16 -28 35 -46 19 -17 35 -36 35 -41 0 -15 26 -12 41 6 11 13 15 12 36
-15 14 -17 28 -31 31 -31 7 0 8 304 0 350 -2 14 -11 40 -21 59 -16 32 -16 36
-1 60 10 14 13 26 7 28 -6 2 -18 9 -27 16 -15 11 -15 17 -5 42 7 17 12 33 11
38 -1 4 9 7 22 7 15 0 26 -7 29 -20z m2667 5 c0 -8 -4 -15 -10 -15 -5 0 -10 7
-10 15 0 8 5 15 10 15 6 0 10 -7 10 -15z m60 11 c0 -3 -4 -8 -10 -11 -5 -3
-10 -1 -10 4 0 6 5 11 10 11 6 0 10 -2 10 -4z m86 -33 c-10 -10 -19 5 -10 18
6 11 8 11 12 0 2 -7 1 -15 -2 -18z m-270 -10 c-10 -10 -19 5 -10 18 6 11 8 11
12 0 2 -7 1 -15 -2 -18z m-2436 7 c0 -5 -7 -10 -15 -10 -8 0 -15 5 -15 10 0 6
7 10 15 10 8 0 15 -4 15 -10z m2650 -5 c0 -8 -4 -15 -10 -15 -5 0 -10 7 -10
15 0 8 5 15 10 15 6 0 10 -7 10 -15z m-1887 -6 c-8 -8 -19 -8 -40 -1 -28 10
-28 10 12 11 28 1 36 -2 28 -10z m1822 2 c3 -5 1 -12 -5 -16 -5 -3 -10 1 -10
9 0 18 6 21 15 7z m-113 -26 c0 -5 -5 -11 -11 -13 -6 -2 -11 4 -11 13 0 9 5
15 11 13 6 -2 11 -8 11 -13z m156 -12 c-2 -10 -14 -20 -28 -22 -25 -3 -25 -3
-6 18 23 26 39 27 34 4z m-72 -20 c-10 -10 -19 5 -10 18 6 11 8 11 12 0 2 -7
1 -15 -2 -18z m-3125 -35 c11 -21 11 -22 -4 -9 -10 7 -17 17 -17 22 0 15 9 10
21 -13z m659 0 c38 -41 21 -42 -39 -2 -4 3 8 24 14 24 2 0 13 -10 25 -22z
m-405 -9 c10 -30 0 -33 -13 -4 -6 14 -7 25 -2 25 5 0 12 -9 15 -21z m1469 -11
c15 -25 -28 -145 -66 -180 -22 -20 -28 -35 -28 -67 0 -41 -36 -131 -53 -131
-5 0 -6 6 -3 13 18 44 28 88 23 101 -10 26 -34 18 -47 -14 -7 -17 -17 -33 -22
-36 -4 -3 2 15 14 40 14 30 28 46 40 46 21 0 40 40 37 79 -3 43 0 61 12 61 6
0 9 -9 6 -20 -6 -24 16 -46 30 -28 5 7 15 35 21 62 14 55 4 79 -23 56 -13 -10
-15 -9 -15 7 0 11 3 23 7 27 13 12 56 2 67 -16z m-1061 -38 c10 0 15 -4 12
-10 -3 -5 -17 -10 -31 -10 -18 0 -24 5 -24 22 0 17 3 19 12 10 7 -7 20 -12 31
-12z m2407 -7 c0 -40 -13 -58 -29 -40 -9 12 -9 21 0 41 16 34 29 33 29 -1z
m-2758 -10 c23 -21 23 -40 0 -52 -23 -12 -42 3 -42 34 0 37 14 43 42 18z
m1178 -28 c0 -23 -16 -42 -27 -32 -3 3 -2 19 2 36 8 35 25 32 25 -4z m-820
-11 c0 -9 -7 -14 -17 -12 -25 5 -28 28 -4 28 12 0 21 -6 21 -16z m739 -219
c-4 -66 -5 -123 -2 -127 2 -5 19 3 37 17 18 14 41 25 51 25 14 0 16 5 10 27
-5 23 -4 25 9 14 12 -10 16 -9 25 6 7 13 9 2 6 -42 -4 -56 -7 -63 -51 -102
-37 -35 -53 -43 -84 -43 -74 0 -100 -10 -115 -46 -8 -19 -21 -34 -29 -34 -9 0
-19 0 -23 -1 -18 -2 -12 20 6 26 25 8 28 35 5 35 -9 0 -22 7 -28 15 -10 14
-16 13 -56 -7 -26 -13 -51 -35 -58 -50 -16 -33 -32 -36 -32 -7 0 33 36 75 84
98 37 17 50 19 77 9 29 -10 34 -8 68 26 20 20 46 44 59 54 21 15 23 27 27 117
7 178 6 164 14 135 4 -14 4 -79 0 -145z m1501 128 c0 -22 -8 -32 -36 -46 -20
-10 -39 -16 -41 -13 -4 4 65 86 73 86 2 0 4 -12 4 -27z m-2910 -38 c19 -23 1
-39 -21 -19 -10 9 -19 21 -19 26 0 13 27 9 40 -7z m-1110 -22 c-1 -15 -30 -46
-37 -40 -3 4 2 16 12 27 19 21 25 24 25 13z m2118 -32 c36 -25 40 -36 16 -45
-10 -4 -25 3 -41 20 -19 21 -30 25 -55 20 -17 -3 -41 -6 -55 -6 -13 0 -26 -7
-30 -17 -8 -22 -24 -34 -36 -26 -9 6 17 51 42 71 25 21 121 11 159 -17z m1892
-30 c0 -6 -4 -13 -10 -16 -5 -3 -10 1 -10 9 0 9 5 16 10 16 6 0 10 -4 10 -9z
m-66 -18 c9 -34 18 -103 13 -103 -19 0 -37 37 -37 76 0 44 14 60 24 27z
m-1873 -10 c18 -21 17 -106 -1 -128 -7 -9 -24 -15 -37 -13 -23 3 -24 7 -27 81
l-3 77 27 0 c15 0 34 -7 41 -17z m2026 -25 c-3 -8 -6 -5 -6 6 -1 11 2 17 5 13
3 -3 4 -12 1 -19z m-47 -18 c0 -5 -5 -10 -11 -10 -5 0 -7 5 -4 10 3 6 8 10 11
10 2 0 4 -4 4 -10z m-2080 -14 c0 -8 -29 -34 -64 -58 -36 -24 -67 -51 -70 -62
-2 -10 -11 -16 -18 -14 -41 14 12 112 72 134 48 17 80 17 80 0z m203 2 c12 -6
27 -17 32 -25 6 -8 21 -19 34 -26 28 -14 32 -26 10 -40 -23 -14 -118 50 -118
81 -1 25 10 28 42 10z m1708 -88 c-8 -24 -7 -30 5 -30 7 0 14 -5 14 -11 0 -6
7 -3 16 5 26 27 32 18 14 -21 -24 -49 -36 -108 -21 -99 13 9 14 -4 2 -23 -8
-12 -12 -12 -25 -2 -9 8 -16 21 -16 31 0 9 -3 19 -6 23 -13 12 -10 114 4 147
17 41 29 23 13 -20z m-1748 -31 c-16 -59 -86 -77 -148 -36 -56 36 -62 87 -6
54 16 -9 50 -17 75 -17 40 0 48 4 58 25 16 36 31 16 21 -26z m2014 -31 c-2 -7
-10 -12 -17 -10 -19 4 -40 -18 -40 -44 0 -13 -4 -24 -10 -24 -21 0 -9 39 21
64 33 28 54 34 46 14z m-167 -17 c0 -17 34 -22 46 -7 18 25 23 7 7 -25 -12
-24 -14 -55 -10 -145 3 -63 2 -114 -3 -114 -9 0 -15 24 -25 100 -3 25 -11 62
-19 83 -12 36 -13 36 -23 15 -5 -12 -12 -18 -15 -12 -7 12 22 114 33 114 5 0
9 -4 9 -9z m-1470 -856 c-11 -25 -10 -37 -14 390 -2 187 0 360 3 385 3 25 9
-135 12 -355 4 -219 3 -408 -1 -420z m-930 784 c0 -11 -4 -17 -10 -14 -5 3
-10 13 -10 21 0 8 5 14 10 14 6 0 10 -9 10 -21z m-1476 -20 c-8 -13 -24 -1
-24 18 0 13 3 13 15 3 8 -7 12 -16 9 -21z m3958 -41 c-7 -7 -12 -8 -12 -2 0
14 12 26 19 19 2 -3 -1 -11 -7 -17z m-4257 2 c3 -5 1 -10 -4 -10 -6 0 -11 5
-11 10 0 6 2 10 4 10 3 0 8 -4 11 -10z m3904 -168 c7 -41 20 -91 30 -112 10
-22 15 -44 10 -51 -5 -8 0 -17 14 -24 18 -9 26 -9 40 4 18 15 18 14 6 -12 -15
-32 -15 -32 -57 -7 -25 15 -32 25 -27 38 8 22 8 23 0 50 -5 16 -13 21 -25 17
-13 -4 -21 2 -29 26 -6 18 -7 38 -2 47 5 9 3 25 -5 41 -18 34 -18 60 1 67 11
5 12 10 6 18 -6 7 -7 23 -4 36 6 21 8 18 19 -21 7 -24 17 -77 23 -117z m-2119
83 c0 -24 -4 -47 -10 -50 -6 -4 -10 15 -10 50 0 35 4 54 10 50 6 -3 10 -26 10
-50z m2448 -97 c8 -8 15 -8 25 0 14 12 27 6 27 -12 0 -6 -10 -27 -22 -46 -12
-19 -23 -37 -23 -40 -1 -3 -5 -13 -8 -22 -4 -10 -9 -25 -12 -33 -2 -8 -13 -15
-23 -15 -10 0 -27 -9 -37 -20 -26 -28 -30 -18 -9 22 10 18 18 38 19 43 0 6 8
27 18 49 9 21 17 49 17 62 0 26 10 30 28 12z m-2451 -120 c-3 -7 -5 -2 -5 12
0 14 2 19 5 13 2 -7 2 -19 0 -25z m-11 -260 c0 -123 1 -249 2 -281 3 -56 -1
-77 -14 -65 -14 15 -5 568 10 568 1 0 2 -100 2 -222z m2324 217 c0 -14 -25
-55 -34 -56 -17 -2 -50 2 -55 7 -10 9 44 54 66 54 13 0 23 -2 23 -5z m508
-207 c28 -23 13 -38 -35 -36 -45 1 -46 2 -10 5 48 5 44 27 -4 29 -47 2 -51 3
-45 12 6 11 77 3 94 -10z m-20 -89 c-12 -7 -24 -7 -35 0 -15 9 -12 10 17 10
29 0 32 -1 18 -10z m-52 -44 c11 -8 14 -15 7 -15 -29 0 -10 -20 20 -21 l32 -1
-33 -9 c-37 -11 -38 -30 -1 -39 24 -6 24 -6 2 -12 -27 -7 -39 -71 -29 -159 3
-36 2 -59 -4 -59 -6 0 -10 34 -10 79 0 105 -25 124 -87 68 -19 -17 -23 -18
-23 -5 0 21 18 34 58 45 38 9 43 26 10 33 -30 7 -39 50 -10 50 24 0 48 25 32
35 -11 7 -5 25 9 25 4 0 16 -7 27 -15z m132 -2 c-16 -2 -40 -2 -55 0 -16 2 -3
4 27 4 30 0 43 -2 28 -4z m-1949 -198 c0 -38 -3 -75 -7 -81 -4 -7 -8 36 -9 95
-1 65 2 96 7 81 4 -14 8 -56 9 -95z m-332 -79 c7 -7 -41 -10 -164 -11 -46 0
-83 3 -83 7 0 14 234 17 247 4z m203 4 c0 -5 -4 -10 -10 -10 -5 0 -10 5 -10
10 0 6 5 10 10 10 6 0 10 -4 10 -10z m547 4 c-3 -3 -12 -4 -19 -1 -8 3 -5 6 6
6 11 1 17 -2 13 -5z m-2858 -15 c27 -6 55 -17 62 -25 14 -17 8 -17 -64 -3 -47
10 -63 9 -97 -5 -80 -32 -114 -10 -37 24 49 23 68 24 136 9z m1096 -1 c44 1
110 4 147 7 69 7 174 -2 163 -14 -4 -3 -46 -7 -93 -8 -119 -4 -171 -9 -213
-20 -25 -7 -63 -6 -130 3 -145 21 -159 24 -159 36 0 7 31 8 103 3 56 -4 138
-7 182 -7z m1145 8 c0 -8 -51 -13 -56 -5 -3 5 9 9 25 9 17 0 31 -2 31 -4z
m714 -6 c-7 -7 -24 -7 -50 -1 l-39 9 50 1 c33 1 46 -2 39 -9z m986 -11 c0 -12
-265 -7 -277 5 -3 3 57 6 135 6 96 0 142 -4 142 -11z m120 1 c0 -5 -4 -10 -10
-10 -5 0 -10 5 -10 10 0 6 5 10 10 10 6 0 10 -4 10 -10z m-3482 -12 c60 -15
52 -29 -15 -27 -73 3 -143 18 -143 30 0 12 102 10 158 -3z m-788 -18 c0 -5 -3
-10 -7 -10 -5 0 -51 -5 -103 -10 -52 -6 -108 -7 -125 -3 -26 6 -22 8 35 17 93
16 200 19 200 6z m1965 -5 c-29 -13 -29 -14 -8 -22 12 -4 73 -5 135 -2 112 7
128 6 114 -8 -16 -16 -447 -24 -566 -10 -25 3 -57 5 -72 6 -16 1 -28 6 -28 12
0 9 22 10 74 6 50 -3 78 -1 85 6 9 9 16 6 30 -12 17 -22 22 -23 82 -17 90 10
119 16 119 27 0 5 -21 9 -47 10 -103 2 -96 17 7 17 96 0 102 -1 75 -13z m548
-2 c-7 -2 -19 -2 -25 0 -7 3 -2 5 12 5 14 0 19 -2 13 -5z m494 1 c-3 -3 -12
-4 -19 -1 -8 3 -5 6 6 6 11 1 17 -2 13 -5z m109 -5 c56 -11 96 -29 63 -29 -22
0 -150 28 -157 34 -9 9 30 7 94 -5z m1169 -9 c4 -6 -9 -10 -32 -9 -38 1 -38 1
-8 9 17 4 31 8 32 9 1 0 5 -3 8 -9z m-3325 -10 c0 -14 -16 -19 -70 -24 -25 -2
-63 -9 -85 -15 -47 -12 -231 -13 -260 -1 l-20 9 20 1 c11 0 63 3 115 6 52 2
104 9 115 14 11 5 54 11 95 13 41 2 78 4 83 5 4 1 7 -3 7 -8z m473 3 c-13 -2
-35 -2 -50 0 -16 2 -5 4 22 4 28 0 40 -2 28 -4z m2760 0 c-13 -2 -35 -2 -50 0
-16 2 -5 4 22 4 28 0 40 -2 28 -4z m395 0 c-10 -2 -28 -2 -40 0 -13 2 -5 4 17
4 22 1 32 -1 23 -4z m-1639 -17 c6 -4 9 -11 6 -15 -5 -9 -154 14 -164 25 -8 9
143 -1 158 -10z m-1719 -21 c0 -5 -13 -9 -28 -9 -15 1 -63 3 -107 4 -58 1 -73
4 -55 10 35 12 190 7 190 -5z m1152 -15 c39 0 69 -3 65 -6 -18 -19 -435 -27
-439 -9 -3 9 256 25 290 18 8 -2 46 -3 84 -3z m1571 3 c-7 -2 -21 -2 -30 0
-10 3 -4 5 12 5 17 0 24 -2 18 -5z m225 -4 c-12 -6 -51 -7 -115 -1 l-98 9 115
1 c82 1 110 -2 98 -9z m-3873 -9 c13 -6 -9 -9 -67 -9 -53 -1 -88 3 -88 9 0 12
127 12 155 0z m2335 6 c0 -8 -60 -12 -72 -4 -8 4 4 8 30 8 23 0 42 -2 42 -4z
m435 -6 c4 -6 -14 -10 -47 -9 -45 1 -49 3 -23 9 44 11 63 11 70 0z m170 0 c22
0 26 -3 15 -9 -20 -12 -131 -1 -124 11 4 6 23 8 43 4 20 -3 50 -6 66 -6z m280
-1 c111 -2 17 -16 -117 -18 -90 -1 -128 2 -128 10 0 7 9 9 23 6 12 -3 38 -2
57 3 19 5 51 7 70 5 19 -3 62 -5 95 -6z"/>
<path d="M2244 8659 c-4 -7 4 -20 17 -30 23 -17 25 -17 46 3 12 12 20 25 17
29 -8 13 -72 11 -80 -2z"/>
<path d="M2368 8615 c-21 -24 -38 -47 -38 -51 0 -4 15 -26 34 -48 32 -40 37
-42 95 -44 40 -2 61 1 61 9 0 19 -94 179 -105 179 -5 -1 -27 -20 -47 -45z"/>
<path d="M2487 8654 c-10 -11 60 -134 76 -134 5 0 47 117 47 132 0 9 -114 11
-123 2z"/>
<path d="M2272 8508 c-21 -21 -13 -38 17 -38 35 0 48 15 31 35 -15 18 -32 19
-48 3z"/>
<path d="M2750 8339 c-196 -110 -250 -141 -250 -144 0 -6 90 -65 99 -65 5 0
14 -6 21 -14 17 -21 36 -10 60 36 11 22 34 51 50 65 17 14 30 29 30 34 0 4 14
30 30 56 47 74 42 78 -40 32z"/>
<path d="M2120 8354 c0 -4 17 -37 39 -74 21 -37 41 -83 45 -102 3 -19 15 -43
27 -54 19 -17 21 -17 87 18 37 20 68 41 70 47 2 5 -14 19 -35 30 -21 12 -80
48 -132 81 -96 62 -101 65 -101 54z"/>
<path d="M3147 8303 c-13 -13 -7 -50 11 -66 41 -37 55 -11 25 42 -18 32 -25
36 -36 24z"/>
<path d="M1732 8253 c2 -27 8 -39 21 -41 16 -3 18 2 15 35 -2 27 -8 39 -21 41
-16 3 -18 -2 -15 -35z"/>
<path d="M2087 8253 c-6 -33 -1 -43 19 -43 11 0 14 9 12 32 -4 40 -24 47 -31
11z"/>
<path d="M3031 8261 c-8 -14 -4 -24 17 -45 16 -14 31 -26 35 -26 13 0 7 45 -9
68 -19 27 -30 28 -43 3z"/>
<path d="M2922 8208 c-18 -18 -15 -26 18 -43 60 -31 84 -6 30 33 -34 26 -33
25 -48 10z"/>
<path d="M2784 8196 c-8 -22 3 -33 18 -18 9 9 9 15 0 24 -9 9 -13 7 -18 -6z"/>
<path d="M2346 8110 c-99 -62 -100 -63 -92 -94 7 -28 26 -36 26 -11 0 26 17
17 31 -16 11 -28 10 -33 -4 -44 -9 -7 -17 -15 -17 -19 0 -4 64 -5 142 -4 l141
3 14 47 c7 26 18 50 23 53 19 12 10 24 -42 63 -60 44 -111 72 -130 72 -7 -1
-49 -23 -92 -50z"/>
<path d="M2676 8121 c-4 -7 -5 -15 -2 -18 9 -9 19 4 14 18 -4 11 -6 11 -12 0z"/>
<path d="M2166 8071 c-4 -7 -5 -15 -2 -18 9 -9 19 4 14 18 -4 11 -6 11 -12 0z"/>
<path d="M2610 7970 c0 -5 5 -10 10 -10 6 0 10 5 10 10 0 6 -4 10 -10 10 -5 0
-10 -4 -10 -10z"/>
<path d="M2202 7948 c-17 -17 -15 -28 6 -28 24 0 32 8 25 26 -6 17 -15 18 -31
2z"/>
<path d="M2045 7924 c-19 -15 -19 -15 10 -12 17 2 29 7 28 13 -3 16 -17 15
-38 -1z"/>
<path d="M2830 7920 c0 -5 7 -10 16 -10 8 0 12 5 9 10 -3 6 -10 10 -16 10 -5
0 -9 -4 -9 -10z"/>
<path d="M2457 7863 c-62 -3 -83 -8 -102 -25 -29 -25 -31 -40 -10 -58 12 -10
27 -11 62 -3 35 8 57 8 91 -2 l44 -14 -6 25 c-5 20 -2 26 19 34 17 7 25 16 23
28 -4 19 -10 20 -121 15z"/>
<path d="M3330 7839 c0 -5 5 -7 10 -4 6 3 10 8 10 11 0 2 -4 4 -10 4 -5 0 -10
-5 -10 -11z"/>
<path d="M3260 7800 c-8 -5 -11 -12 -7 -16 4 -4 15 0 24 9 18 18 8 23 -17 7z"/>
<path d="M2403 7745 c-47 -21 -42 -36 10 -30 l42 5 -37 -16 c-57 -25 -49 -41
19 -39 42 2 59 7 70 20 17 24 17 65 -1 65 -7 0 -26 2 -42 5 -16 2 -44 -2 -61
-10z"/>
<path d="M2553 7674 c-6 -17 33 -64 53 -64 26 0 25 23 -2 51 -31 33 -42 36
-51 13z"/>
<path d="M2284 7635 c-14 -27 -16 -39 -8 -53 17 -27 35 -20 48 18 23 70 -7 97
-40 35z"/>
<path d="M3085 7640 c-8 -13 4 -32 16 -25 12 8 12 35 0 35 -6 0 -13 -4 -16
-10z"/>
<path d="M2541 7482 c-14 -15 -38 -41 -53 -59 -34 -37 -40 -93 -14 -122 13
-14 15 -28 10 -59 -5 -32 -2 -47 15 -70 18 -25 19 -31 6 -36 -8 -3 -15 -14
-15 -24 0 -39 87 -86 115 -62 25 21 17 37 -21 44 -19 4 -38 14 -41 22 -8 22 2
27 28 14 60 -33 179 53 179 130 0 35 -42 22 -52 -16 -16 -63 -96 -100 -139
-65 -21 17 -22 21 -11 60 15 49 28 56 110 65 91 9 152 46 152 93 0 23 -1 23
-27 8 -16 -8 -39 -24 -53 -35 -16 -13 -48 -22 -90 -26 -36 -4 -75 -12 -87 -20
-17 -11 -23 -11 -32 -1 -16 20 -2 57 41 111 21 27 37 54 35 60 -7 21 -32 16
-56 -12z"/>
<path d="M2231 7486 c-9 -11 -4 -21 25 -47 70 -64 82 -80 89 -120 11 -63 55
-45 55 23 0 34 -6 42 -72 98 -40 33 -76 60 -79 60 -4 0 -12 -6 -18 -14z"/>
<path d="M2587 7263 c-13 -12 -7 -51 9 -57 17 -7 54 9 54 24 0 33 -42 55 -63
33z"/>
<path d="M2307 6989 c-20 -12 -23 -29 -3 -29 17 0 40 26 29 33 -5 3 -16 1 -26
-4z"/>
<path d="M2610 6870 c-13 -9 -11 -13 10 -30 42 -32 79 -45 93 -31 9 10 4 19
-23 42 -36 31 -55 35 -80 19z"/>
<path d="M1778 6019 c-35 -20 -15 -49 33 -49 24 0 27 45 3 54 -19 7 -15 8 -36
-5z"/>
<path d="M2975 5126 c-16 -12 -17 -16 -6 -30 18 -21 28 -20 40 3 15 27 -9 46
-34 27z"/>
<path d="M2771 5116 c-9 -11 -10 -20 -1 -36 13 -24 38 -23 53 1 23 37 -25 68
-52 35z"/>
<path d="M2412 5080 c-18 -11 -31 -24 -28 -29 3 -5 26 -14 51 -20 48 -12 59
-28 23 -33 -40 -6 -33 -28 9 -28 96 0 116 94 25 120 -47 13 -41 13 -80 -10z"/>
<path d="M2120 5042 c-13 -11 -19 -23 -15 -34 15 -40 65 -27 65 17 0 30 -24
38 -50 17z"/>
<path d="M2863 5044 c-9 -23 25 -48 44 -33 7 6 13 20 13 30 0 24 -48 26 -57 3z"/>
<path d="M2695 5030 c-15 -16 -15 -22 -5 -35 28 -34 81 -5 60 34 -14 26 -32
27 -55 1z"/>
<path d="M2275 5006 c-16 -12 -18 -19 -9 -32 16 -27 31 -28 44 -3 10 17 9 24
-2 35 -12 12 -17 12 -33 0z"/>
<path d="M2525 4916 c-19 -14 -19 -16 -2 -33 16 -16 18 -16 34 0 15 15 16 19
2 32 -13 13 -17 13 -34 1z"/>
<path d="M2402 4853 c-12 -24 -4 -43 18 -43 23 0 44 26 36 45 -7 21 -43 19
-54 -2z"/>
<path d="M3016 6027 c-25 -18 -15 -44 19 -53 39 -10 57 2 53 33 -2 21 -9 29
-28 31 -14 2 -34 -3 -44 -11z"/>
<path d="M2610 6406 c0 -8 5 -18 10 -21 6 -3 10 3 10 14 0 12 -4 21 -10 21 -5
0 -10 -6 -10 -14z"/>
<path d="M4463 5148 c2 -7 10 -13 17 -13 7 0 15 6 18 13 2 7 -5 12 -18 12 -13
0 -20 -5 -17 -12z"/>
<path d="M3210 4177 c0 -19 50 -41 63 -28 6 6 -2 15 -21 25 -38 19 -42 20 -42
3z"/>
<path d="M3170 4156 c0 -15 57 -43 67 -33 7 8 -37 46 -54 47 -7 0 -13 -6 -13
-14z"/>
<path d="M3130 4125 c0 -19 61 -46 75 -33 6 6 1 16 -15 28 -30 23 -60 26 -60
5z"/>
<path d="M3100 4092 c0 -7 63 -42 75 -42 16 0 1 29 -20 38 -30 14 -55 15 -55
4z"/>
<path d="M3025 4050 c-18 -19 -25 -34 -19 -39 13 -13 103 -18 105 -6 1 6 9 15
18 22 14 10 14 12 -4 18 -11 4 -32 13 -46 20 -24 13 -28 12 -54 -15z"/>
<path d="M2995 3960 c-6 -10 1 -14 46 -24 31 -7 43 2 28 21 -13 15 -65 18 -74
3z"/>
<path d="M2963 3901 c-8 -12 -9 -22 -3 -26 6 -4 5 -13 -2 -25 -10 -15 -10 -22
-1 -31 9 -9 22 -3 54 29 22 23 39 47 37 54 -3 7 -20 14 -39 16 -25 2 -37 -2
-46 -17z"/>
<path d="M1573 4283 c-31 -16 -45 -43 -23 -43 6 0 27 -16 46 -35 25 -25 41
-34 54 -30 10 3 28 0 39 -7 17 -11 23 -10 37 4 21 20 9 44 -48 92 -46 40 -58
42 -105 19z"/>
<path d="M1365 4199 c-4 -6 -4 -13 -1 -16 8 -8 36 5 36 17 0 13 -27 13 -35 -1z"/>
<path d="M1743 4113 c-22 -8 -15 -58 12 -83 24 -22 27 -23 42 -7 16 15 15 19
-3 53 -20 39 -30 46 -51 37z"/>
<path d="M1576 3951 c-9 -14 32 -108 49 -115 7 -2 21 1 31 8 17 13 17 16 -2
62 -16 39 -26 50 -46 52 -14 2 -29 -1 -32 -7z"/>
<path d="M3362 3668 c-14 -14 -16 -38 -3 -38 15 0 42 31 36 41 -8 12 -19 11
-33 -3z"/>
<path d="M4086 3628 c-17 -83 -11 -107 17 -65 23 36 26 81 5 85 -11 2 -19 -5
-22 -20z"/>
<path d="M3356 3602 c-9 -15 27 -102 42 -102 10 0 12 7 7 23 -3 12 -10 35 -14
51 -7 30 -25 44 -35 28z"/>
<path d="M3905 3510 c-3 -6 0 -13 8 -16 25 -9 100 0 105 14 5 15 -104 17 -113
2z"/>
<path d="M4094 3489 c-5 -8 -9 -41 -10 -74 -1 -33 -11 -116 -24 -184 -21 -112
-22 -129 -10 -195 7 -39 16 -75 20 -79 4 -5 19 14 33 42 33 61 117 191 151
232 35 41 33 57 -11 100 -21 20 -54 57 -73 84 -68 91 -66 90 -76 74z"/>
<path d="M4313 3333 c-7 -2 -13 -11 -13 -19 0 -10 13 -14 45 -14 32 0 45 4 45
14 0 22 -44 33 -77 19z"/>
<path d="M3729 2971 c-28 -23 -20 -35 28 -44 40 -8 50 6 29 38 -20 30 -27 31
-57 6z"/>
<path d="M3590 2744 c0 -24 96 -107 151 -131 50 -22 171 21 130 47 -9 5 -22 5
-31 0 -42 -23 -156 15 -204 69 -18 20 -46 29 -46 15z"/>
<path d="M2765 2710 c18 -34 35 -39 35 -10 0 13 5 18 15 14 8 -4 15 -2 15 4 0
12 -24 22 -56 22 -24 0 -24 -1 -9 -30z"/>
<path d="M3644 2625 c-4 -9 6 -35 22 -58 21 -33 28 -55 30 -102 1 -33 3 -65 3
-72 1 -6 12 -25 26 -41 20 -24 25 -41 25 -85 0 -31 4 -66 9 -79 5 -13 12 -35
15 -50 4 -16 11 -28 16 -28 7 0 8 37 4 100 -7 100 -7 101 20 129 18 19 32 50
42 92 8 35 21 81 29 102 20 50 19 69 -2 65 -12 -2 -26 -26 -40 -68 -13 -36
-20 -51 -17 -33 5 31 -9 53 -21 33 -5 -7 -12 -5 -20 7 -17 23 -25 14 -32 -36
-7 -47 16 -91 47 -91 23 0 26 -10 8 -28 -15 -15 -55 -16 -64 -1 -4 7 -8 45
-10 86 -2 63 -7 81 -34 124 -34 51 -47 59 -56 34z"/>
<path d="M3870 1692 c0 -30 8 -45 20 -37 9 6 0 65 -11 65 -5 0 -9 -13 -9 -28z"/>
<path d="M3960 1705 c0 -8 5 -15 10 -15 6 0 10 7 10 15 0 8 -4 15 -10 15 -5 0
-10 -7 -10 -15z"/>
<path d="M3594 1673 c4 -16 10 -46 14 -68 8 -43 39 -59 35 -17 -2 16 3 22 16
22 19 0 31 25 24 48 -8 21 -22 13 -26 -15 -3 -27 -4 -27 -23 14 -22 49 -51 60
-40 16z"/>
<path d="M3910 1620 c0 -5 5 -10 10 -10 6 0 10 5 10 10 0 6 -4 10 -10 10 -5 0
-10 -4 -10 -10z"/>
<path d="M1152 3488 c-8 -8 -9 -15 -1 -25 18 -21 41 -16 37 9 -4 26 -19 33
-36 16z"/>
<path d="M681 3481 c-12 -8 -12 -12 -2 -25 20 -24 43 -20 39 6 -3 25 -17 32
-37 19z"/>
<path d="M836 3483 c-3 -3 -6 -14 -6 -24 0 -41 -109 -97 -164 -83 -32 8 -47
26 -55 67 -8 37 -41 52 -41 17 0 -35 37 -94 74 -119 31 -20 43 -23 87 -17 28
4 62 14 74 22 28 18 55 72 55 107 0 26 -12 42 -24 30z"/>
<path d="M975 2916 c-22 -16 -16 -25 27 -44 21 -9 29 -8 39 4 29 35 -28 68
-66 40z"/>
<path d="M900 2565 c0 -2 18 -23 40 -47 22 -24 44 -54 48 -68 12 -42 8 -409
-6 -487 -7 -40 -17 -103 -24 -140 -6 -38 -19 -90 -29 -116 -22 -56 -24 -93 -5
-104 22 -14 24 -59 4 -135 -11 -40 -23 -94 -28 -120 -5 -27 -12 -53 -15 -58
-4 -6 -11 -39 -16 -73 -33 -219 -34 -267 -5 -267 11 0 14 22 13 97 0 80 6 119
32 213 61 220 76 331 49 358 -8 8 -6 25 9 69 42 119 62 261 72 525 7 184 9
199 29 221 12 13 22 28 22 33 0 5 14 27 31 47 46 56 23 62 -43 11 l-58 -44
-16 25 c-23 35 -104 82 -104 60z"/>
<path d="M835 920 c-4 -6 -3 -16 3 -22 6 -6 12 -6 17 2 4 6 3 16 -3 22 -6 6
-12 6 -17 -2z"/>
<path d="M1445 2667 c-14 -11 -16 -22 -10 -65 7 -56 21 -65 49 -33 13 14 16
28 11 55 -9 45 -26 60 -50 43z"/>
<path d="M1555 2400 c-9 -14 13 -50 30 -50 18 0 20 31 3 48 -15 15 -25 15 -33
2z"/>
<path d="M1680 2200 c0 -21 31 -70 44 -70 20 0 26 11 16 31 -21 38 -60 64 -60
39z"/>
<path d="M1887 2014 c-8 -8 2 -35 21 -56 11 -14 18 -15 29 -7 19 17 16 36 -9
53 -24 17 -32 19 -41 10z"/>
<path d="M2060 1890 c0 -11 40 -34 47 -26 3 3 3 12 0 21 -7 16 -47 21 -47 5z"/>
<path d="M2957 2012 c-20 -22 -22 -62 -4 -62 21 0 60 47 54 64 -8 21 -30 20
-50 -2z"/>
<path d="M4662 1018 c5 -15 37 -18 41 -3 1 6 -9 12 -22 13 -16 3 -22 -1 -19
-10z"/>
<path d="M4843 8342 c-30 -25 -33 -33 -36 -92 -2 -52 -11 -81 -41 -140 -20
-41 -50 -88 -65 -105 -15 -16 -38 -44 -50 -62 -12 -17 -30 -35 -41 -38 -22 -7
-27 -31 -7 -38 17 -6 65 20 77 43 6 10 32 47 58 82 72 93 132 208 132 251 0
24 9 46 26 66 48 57 6 83 -53 33z"/>
<path d="M4532 7831 c-18 -25 -27 -29 -62 -27 -41 2 -67 -14 -55 -34 10 -16
94 -12 125 7 32 19 56 56 46 72 -12 19 -31 12 -54 -18z"/>
<path d="M4228 7764 c-18 -17 -6 -46 27 -65 28 -17 35 -27 35 -52 0 -16 20
-80 44 -141 62 -156 81 -215 115 -346 33 -124 43 -155 91 -270 17 -41 49 -145
71 -230 22 -85 48 -180 58 -210 40 -118 51 -158 70 -244 22 -100 35 -121 57
-92 24 34 13 115 -40 276 -13 41 -45 161 -71 265 -26 105 -65 237 -87 295 -22
58 -53 154 -69 215 l-29 110 26 20 25 20 -15 75 c-9 41 -25 104 -36 140 -11
36 -25 87 -32 114 -14 53 -39 79 -59 59 -12 -12 6 -111 37 -201 8 -23 14 -48
14 -54 0 -47 -81 154 -89 221 -5 42 -12 58 -31 72 -27 20 -101 35 -112 23z"/>
<path d="M4232 7608 c-6 -13 -13 -56 -16 -96 -4 -49 -15 -90 -31 -122 -26 -50
-57 -178 -47 -194 14 -24 79 158 102 289 7 39 19 85 26 104 17 42 18 41 -4 41
-10 0 -24 -10 -30 -22z"/>
<path d="M1009 450 c-25 -4 -108 -8 -186 -8 -77 1 -146 -2 -152 -6 -12 -8 -14
-36 -3 -52 4 -6 19 -14 35 -18 23 -5 29 -3 37 19 8 21 16 25 49 25 21 0 43 -6
49 -13 6 -7 11 -64 11 -130 0 -91 -3 -124 -15 -142 -25 -38 -10 -46 78 -43 86
3 113 19 64 38 -26 9 -27 12 -25 87 1 43 3 104 6 136 l5 57 48 0 c39 0 49 -4
53 -20 7 -28 35 -25 43 6 8 33 -10 74 -33 73 -10 -1 -38 -5 -64 -9z"/>
<path d="M2824 451 c-11 -11 -2 -29 16 -34 19 -5 20 -14 20 -140 0 -122 -2
-136 -20 -152 -11 -10 -17 -22 -13 -26 7 -6 196 -14 241 -10 16 1 72 55 72 70
0 18 -40 13 -67 -9 -19 -15 -41 -20 -85 -20 l-59 0 3 67 c2 42 8 68 16 71 6 2
12 -3 12 -12 0 -8 9 -20 19 -26 16 -8 23 -6 35 12 20 29 20 82 0 99 -13 10
-19 8 -41 -15 -32 -35 -45 -23 -41 35 l3 44 45 0 c38 0 45 -3 50 -24 3 -14 11
-26 17 -28 14 -5 43 35 43 58 0 35 -29 44 -147 44 -63 0 -116 -2 -119 -4z"/>
<path d="M1157 444 c-3 -4 -2 -14 3 -24 5 -9 10 -79 11 -155 2 -121 0 -140
-16 -151 -31 -23 -7 -35 60 -31 67 3 89 12 65 27 -13 8 -33 127 -24 142 6 10
74 10 127 1 l39 -6 -5 -61 c-3 -34 -6 -70 -8 -81 -4 -18 2 -20 69 -23 39 -2
72 1 72 5 0 5 -9 16 -20 26 -18 15 -20 29 -20 155 0 82 4 142 10 148 18 18
-15 35 -62 32 -36 -3 -43 -6 -40 -23 18 -136 15 -140 -85 -128 l-68 8 0 70 0
70 -50 3 c-28 2 -54 0 -58 -4z"/>
<path d="M1645 442 l-51 -3 -2 -157 c-2 -95 -7 -162 -14 -170 -21 -25 7 -30
134 -23 123 6 128 7 157 35 24 23 28 33 20 43 -16 18 -24 17 -55 -12 -24 -22
-36 -25 -83 -23 l-56 3 -3 58 c-2 44 0 57 11 57 8 0 17 -9 20 -21 10 -39 32
-15 31 35 0 52 -16 78 -36 58 -22 -22 -29 -13 -26 31 l3 42 52 3 c44 3 53 0
67 -20 23 -32 40 -12 28 33 l-8 34 -70 0 c-38 0 -92 -1 -119 -3z"/>
<path d="M2363 436 c-3 -5 5 -17 18 -27 23 -17 24 -21 21 -151 -2 -111 -5
-135 -19 -145 -19 -15 -18 -15 57 -13 106 3 240 26 268 47 53 39 67 70 66 139
-1 74 -19 100 -89 137 -34 17 -60 20 -178 21 -77 1 -141 -3 -144 -8z m275 -79
c43 -40 23 -164 -32 -201 -30 -19 -82 -24 -97 -9 -11 11 -22 176 -14 214 6 27
8 27 63 22 38 -4 65 -13 80 -26z"/>
<path d="M3154 439 c-4 -7 2 -19 13 -28 26 -20 41 -51 88 -179 31 -84 35 -105
25 -118 -20 -23 -2 -32 70 -36 55 -2 65 0 68 15 2 10 -3 17 -12 17 -29 0 -26
20 25 137 28 65 57 133 65 151 12 26 12 33 2 36 -65 20 -89 13 -67 -21 8 -14
4 -34 -24 -98 -19 -44 -37 -88 -40 -97 -10 -28 -24 -21 -35 15 -36 116 -45
167 -33 181 7 8 10 20 6 26 -9 14 -142 13 -151 -1z"/>
<path d="M3605 440 c-3 -5 1 -20 9 -32 12 -18 14 -45 10 -118 -6 -120 -10
-161 -19 -183 -6 -13 -2 -17 18 -17 13 0 37 -2 53 -5 16 -3 36 -1 43 4 13 8
12 14 -3 43 -16 29 -18 51 -14 148 3 63 8 123 13 132 5 13 0 20 -20 28 -33 13
-82 13 -90 0z"/>
<path d="M3815 440 c-3 -5 4 -23 15 -38 20 -27 21 -39 18 -150 -3 -107 -5
-123 -23 -136 -16 -12 -17 -16 -6 -30 11 -13 33 -15 129 -13 l115 3 34 39 c18
22 32 46 31 54 -5 27 -35 23 -64 -8 -33 -34 -94 -50 -112 -29 -23 29 -16 253
10 285 5 7 7 17 3 23 -8 13 -142 13 -150 0z"/>
<path d="M4407 164 c-12 -12 -8 -51 7 -64 35 -28 93 11 70 48 -11 17 -64 29
-77 16z"/>
</g>
</svg>
