<?xml version="1.0" standalone="no"?>
<!DOCTYPE svg PUBLIC "-//W3C//DTD SVG 20010904//EN"
 "http://www.w3.org/TR/2001/REC-SVG-20010904/DTD/svg10.dtd">
<svg version="1.0" xmlns="http://www.w3.org/2000/svg"
 width="500.000000pt" height="878.000000pt" viewBox="0 0 500.000000 878.000000"
 preserveAspectRatio="xMidYMid meet">
<metadata>
Created by potrace 1.15, written by Peter Selinger 2001-2017
</metadata>
<g transform="translate(0.000000,878.000000) scale(0.100000,-0.100000)"
fill="#000000" stroke="none">
<path d="M0 7551 l0 -1229 41 -7 c51 -9 68 4 50 39 -17 31 -9 44 36 52 32 6
40 3 60 -20 13 -15 23 -33 23 -40 0 -26 26 -38 53 -25 21 9 29 8 54 -10 27
-20 63 -21 63 -1 0 5 12 22 26 39 32 39 48 94 35 120 -6 11 -26 22 -48 25 -63
11 -73 16 -73 36 0 25 -54 80 -78 80 -11 0 -27 11 -36 25 -9 14 -23 25 -30 25
-27 0 -40 84 -27 178 18 132 26 152 81 210 58 61 137 102 195 102 37 0 41 -3
57 -41 17 -39 18 -40 55 -34 58 10 63 13 63 35 0 25 8 25 36 -1 23 -22 50 -26
95 -14 35 9 58 -27 69 -108 9 -60 8 -63 -21 -93 -27 -28 -29 -35 -19 -54 11
-20 9 -25 -11 -41 -20 -15 -21 -19 -10 -33 7 -9 18 -16 24 -16 6 0 23 -14 37
-32 l27 -32 42 19 c23 10 51 32 63 47 18 27 24 29 60 23 30 -5 44 -3 58 10 18
16 21 15 60 -16 37 -31 41 -38 37 -70 -6 -48 7 -69 43 -69 19 0 33 -7 40 -21
9 -16 17 -19 41 -14 16 4 29 2 29 -3 0 -16 32 -23 47 -10 8 6 12 21 9 32 -13
49 39 147 85 161 23 8 95 -29 109 -55 6 -10 8 -37 4 -58 -4 -26 -1 -49 9 -69
21 -40 2 -160 -31 -195 -31 -33 -28 -45 15 -63 44 -19 60 -14 73 20 12 32 30
39 74 31 26 -5 36 -12 38 -29 2 -18 9 -22 34 -20 32 3 32 2 43 -61 6 -35 9
-70 6 -77 -6 -16 -12 -188 -14 -366 l-1 -122 -42 -3 c-34 -2 -44 -8 -58 -33
-30 -54 -111 -57 -94 -3 6 22 -54 68 -90 68 -18 0 -29 -7 -35 -22 -19 -50
-117 -91 -143 -61 -8 10 -8 17 0 25 17 17 15 48 -3 54 -20 8 -63 -10 -99 -41
-61 -52 -133 -26 -171 63 -16 36 -17 49 -7 76 16 44 15 60 -6 79 -41 37 -109
3 -96 -48 7 -29 -53 -58 -102 -49 -24 4 -42 1 -60 -10 -24 -17 -27 -16 -69 9
-25 14 -49 34 -55 44 -5 10 -9 52 -8 93 1 41 -1 79 -5 85 -5 7 -21 7 -56 -1
-51 -11 -91 -39 -91 -63 0 -7 -7 -13 -15 -13 -19 0 -20 -26 0 -33 17 -7 13
-101 -8 -162 -18 -51 -87 -95 -146 -92 -32 1 -47 -5 -69 -26 -36 -35 -57 -34
-116 3 -52 33 -86 33 -86 -1 0 -24 -27 -25 -52 -2 -17 16 -18 11 -18 -119 l0
-135 37 -6 c86 -12 121 -49 128 -137 2 -19 5 -42 7 -50 7 -30 -39 -22 -74 13
-19 18 -48 41 -66 49 l-32 16 0 -209 0 -209 44 0 c38 0 48 -5 76 -36 28 -33
31 -41 25 -78 -3 -23 -6 -54 -7 -69 -1 -24 -4 -28 -27 -25 -20 2 -33 17 -61
65 -19 35 -38 63 -42 63 -5 0 -8 -72 -8 -160 0 -121 3 -160 13 -160 6 0 25
-11 42 -24 27 -22 28 -26 17 -50 -18 -40 -15 -77 9 -103 18 -18 20 -25 10 -37
-21 -25 -51 -29 -72 -10 -19 17 -19 15 -19 -72 l0 -89 61 0 c52 0 63 -3 80
-25 32 -40 40 -67 27 -95 -9 -20 -8 -28 6 -44 18 -20 14 -41 -7 -41 -39 0 -90
26 -126 63 l-41 42 0 -1338 c0 -1157 2 -1337 14 -1337 22 0 27 15 16 47 -17
47 17 115 76 152 63 38 113 34 166 -17 40 -38 68 -38 68 -1 0 12 8 27 17 34
15 11 15 15 4 29 -7 9 -20 16 -28 16 -11 0 -14 7 -10 22 7 26 -8 48 -34 48
-34 0 -106 121 -129 218 -10 45 -10 56 4 77 9 13 16 33 16 43 0 27 47 83 116
139 l59 48 90 0 c82 0 94 -2 132 -28 24 -16 43 -32 43 -37 0 -12 85 -70 102
-70 7 1 26 12 43 25 27 22 29 27 17 46 -12 19 -11 25 15 51 78 83 218 76 316
-17 28 -27 67 -95 67 -118 0 -7 11 -24 24 -36 22 -20 29 -22 55 -13 31 11 31
10 56 -42 15 -32 35 -57 50 -64 25 -12 35 -54 16 -66 -13 -9 -61 33 -61 53 0
10 -8 25 -18 34 -17 16 -21 15 -54 -16 -31 -28 -36 -39 -37 -82 -5 -132 -3
-167 12 -183 20 -19 37 -7 68 48 12 21 41 50 65 65 25 16 47 38 49 49 20 87
25 115 25 142 0 24 4 31 17 30 13 -1 21 11 29 44 12 45 18 42 27 -15 4 -23 -1
-36 -20 -56 -19 -21 -26 -40 -30 -90 -5 -70 -26 -170 -47 -221 -7 -18 -16 -63
-20 -100 -5 -56 -37 -158 -48 -158 -2 0 -2 30 0 68 4 96 -8 156 -34 160 -26 4
-47 -21 -69 -83 -10 -27 -25 -59 -32 -70 -7 -11 -13 -29 -13 -41 0 -25 -30
-88 -38 -79 -3 3 -7 81 -7 173 -2 146 1 179 22 262 13 52 32 107 43 122 24 32
25 38 6 38 -21 0 -64 -59 -80 -111 -16 -47 -31 -152 -27 -182 1 -11 -3 -41 -9
-68 -9 -35 -17 -49 -29 -49 -19 0 -62 -41 -80 -77 -6 -12 -11 -55 -12 -95 0
-40 -6 -110 -12 -155 -11 -76 -14 -83 -47 -107 -19 -14 -50 -33 -68 -41 -30
-14 -36 -14 -67 1 -20 9 -37 26 -39 38 -15 74 -17 78 -52 92 -76 32 -114 3
-114 -88 0 -41 -5 -53 -38 -88 l-39 -40 -87 0 c-103 0 -159 22 -172 67 -15 53
-12 156 6 198 22 52 35 62 95 72 41 7 51 12 53 31 8 54 -48 68 -121 31 -42
-22 -49 -29 -99 -101 -34 -50 -48 -140 -25 -166 9 -9 18 -29 22 -44 6 -23 2
-29 -26 -43 -36 -19 -92 -24 -127 -12 l-22 8 0 -184 0 -185 413 3 c633 5 1220
15 1797 30 102 3 460 8 795 11 608 5 780 7 1246 19 196 5 595 13 727 15 l22 0
0 1630 0 1630 -23 -5 c-27 -7 -53 18 -59 55 -5 36 -54 41 -67 7 -11 -29 -42
-39 -82 -25 -16 5 -36 7 -45 4 -35 -13 -104 64 -117 133 -10 47 22 116 57 125
33 8 32 15 -5 44 -20 17 -33 21 -42 14 -7 -5 -39 -12 -72 -16 l-60 -6 -46 47
c-57 58 -68 79 -79 146 -13 79 5 144 50 190 31 30 45 37 77 37 21 0 47 -6 58
-13 38 -26 66 -27 89 -3 16 18 29 22 53 19 25 -4 32 -1 38 16 4 12 1 28 -5 36
-6 8 -9 22 -6 32 8 23 86 93 151 135 63 42 118 139 113 202 -1 24 2 41 10 44
20 6 13 31 -11 37 -26 7 -77 -9 -77 -24 0 -5 5 -13 11 -17 20 -12 3 -112 -28
-163 -36 -58 -81 -81 -165 -84 -92 -2 -176 43 -205 111 -8 19 -20 32 -31 32
-10 0 -22 12 -29 30 -14 38 -39 47 -71 27 -35 -21 -37 -31 -11 -56 31 -29 31
-69 -1 -111 -14 -19 -32 -53 -38 -76 -6 -22 -23 -51 -37 -64 -24 -23 -25 -23
-45 -5 -17 16 -24 17 -38 7 -9 -7 -27 -17 -40 -22 -16 -7 -22 -17 -20 -32 4
-31 -20 -34 -73 -10 -66 30 -77 32 -88 18 -8 -9 -7 -22 5 -45 8 -17 14 -39 12
-48 -6 -32 -26 -23 -48 22 -47 97 -124 132 -251 115 -44 -6 -86 -13 -93 -16
-9 -4 -16 7 -20 31 -8 39 -50 130 -74 158 -8 9 -23 17 -33 17 -21 0 -60 -64
-79 -130 -7 -25 -14 -51 -16 -59 -3 -10 -14 -5 -39 19 -30 29 -35 41 -35 79 0
43 -12 184 -29 334 -6 58 -5 70 11 84 11 10 16 24 12 35 -7 24 34 106 59 114
10 3 24 1 30 -5 18 -18 72 -13 101 10 45 35 49 54 21 87 -45 54 -27 139 37
173 16 9 23 7 35 -10 19 -28 37 -26 67 4 14 14 35 25 48 25 24 0 82 -57 119
-116 38 -62 76 -41 80 44 3 47 0 56 -23 75 -14 12 -31 32 -38 45 -6 12 -15 20
-20 17 -14 -9 -18 8 -9 33 7 17 14 22 28 17 26 -8 43 23 35 64 -6 28 -4 31 20
31 17 0 29 7 32 18 3 9 9 24 14 32 5 8 18 33 28 56 21 43 87 92 154 114 45 14
83 4 168 -43 79 -43 99 -64 132 -137 30 -66 36 -99 23 -137 -6 -18 -1 -23 29
-34 30 -11 36 -18 36 -41 0 -32 28 -39 50 -13 7 8 21 15 32 15 32 0 58 19 58
44 0 24 22 48 53 59 19 7 24 61 7 72 -8 5 -7 11 1 21 6 7 15 11 20 8 5 -3 17
8 27 25 9 17 23 33 30 36 20 7 111 -35 123 -57 12 -21 47 -38 67 -31 9 4 12
297 12 1419 l0 1414 -1655 0 c-1653 0 -1656 0 -1645 -20 6 -11 17 -20 25 -20
9 0 14 -8 12 -22 -1 -14 6 -26 20 -33 16 -8 19 -15 12 -22 -16 -16 -1 -35 23
-27 16 5 19 2 16 -18 -2 -19 1 -23 20 -21 17 2 22 -2 22 -22 0 -20 5 -25 27
-25 14 0 23 -3 20 -7 -9 -8 13 -34 23 -28 5 3 23 -8 42 -25 33 -30 33 -32 33
-118 0 -88 -9 -126 -62 -261 -25 -63 -25 -65 -6 -80 43 -36 55 -69 48 -135 -7
-58 -5 -65 24 -108 17 -25 31 -52 31 -60 0 -23 30 -59 47 -56 11 2 22 -12 34
-47 11 -31 33 -64 59 -88 36 -34 46 -38 73 -33 17 3 41 15 52 26 12 11 24 20
28 20 11 0 27 -74 27 -130 0 -49 -3 -56 -25 -67 -21 -9 -27 -8 -35 5 -8 13 -9
6 -5 -25 4 -24 4 -43 0 -43 -13 0 -82 39 -94 54 -7 8 -10 24 -6 36 8 27 -25
79 -107 167 -33 35 -67 81 -75 101 -16 35 -17 36 -22 13 l-7 -25 -21 30 c-14
18 -22 23 -23 14 0 -36 23 -89 60 -137 46 -61 30 -74 -21 -18 -42 45 -57 45
-29 -1 12 -19 19 -38 15 -42 -3 -4 -11 1 -16 11 -6 9 -15 17 -21 17 -7 0 1
-13 16 -29 37 -38 16 -46 -45 -15 -61 30 -99 76 -99 119 0 37 24 66 34 40 7
-20 50 -19 67 1 11 13 9 29 -14 97 -32 96 -32 92 -8 143 22 48 34 114 20 114
-6 0 -16 -15 -22 -32 -39 -107 -195 -383 -229 -404 -27 -17 -16 12 24 63 54
70 136 213 179 314 29 68 31 78 20 117 -6 23 -11 53 -11 67 0 36 -15 31 -33
-12 -9 -21 -14 -27 -11 -13 4 14 19 55 36 93 16 37 27 71 24 76 -3 5 2 15 11
22 15 13 16 11 8 -11 -4 -14 -8 -56 -9 -95 -1 -56 2 -70 14 -70 19 0 75 165
84 248 8 68 -7 107 -46 121 -34 12 -46 2 -30 -24 19 -31 14 -46 -8 -22 -12 12
-27 22 -34 22 -22 0 -126 -86 -177 -146 -82 -97 -249 -384 -249 -427 0 -7 -4
-17 -9 -22 -18 -20 -81 -227 -87 -289 -6 -58 -5 -65 14 -75 29 -16 47 -14 95
9 l42 20 -34 -31 c-30 -28 -37 -30 -82 -24 -34 5 -49 3 -49 -5 0 -23 20 -48
48 -59 24 -10 36 -9 67 3 48 20 54 15 18 -14 -23 -18 -36 -21 -72 -16 -25 3
-55 13 -67 21 -31 20 -51 19 -63 -2 -9 -16 -10 -16 -11 5 0 25 -25 30 -34 7
-8 -22 -24 -18 -28 7 -4 30 -34 35 -43 8 -7 -22 -30 -22 -30 0 0 22 -23 23
-35 1 -19 -37 -79 -17 -80 26 0 15 46 40 111 59 27 8 49 18 49 23 0 17 -39 42
-73 48 -29 4 -34 9 -29 26 4 17 1 19 -16 15 -26 -7 -38 7 -23 26 9 11 8 18 -4
30 -9 9 -21 14 -26 11 -17 -11 -31 6 -18 21 19 23 -4 64 -36 64 -28 0 -30 3
-13 29 18 29 -5 75 -32 66 -25 -8 -27 10 -3 24 14 8 16 14 7 38 -6 17 -17 28
-28 28 -28 0 -31 22 -6 35 28 15 25 75 -4 75 -30 0 -31 24 -1 35 23 9 26 15
23 47 -2 21 -8 38 -15 38 -24 0 -26 16 -3 40 20 21 21 27 9 41 -11 14 -10 18
11 34 27 20 22 32 -12 35 -26 2 -47 30 -33 44 7 7 22 4 43 -6 41 -20 66 -5 39
25 -22 24 -4 46 25 31 19 -10 20 -9 22 31 1 19 7 25 23 25 27 0 38 11 38 38 0
17 6 21 35 21 29 1 35 5 35 23 1 30 10 37 33 24 22 -12 62 10 62 35 0 12 8 13
35 8 31 -5 36 -3 45 20 11 30 22 33 41 10 15 -18 57 -11 75 14 10 14 14 14 28
3 10 -9 30 -12 56 -8 25 3 45 0 57 -9 24 -18 72 -18 79 1 9 23 21 18 36 -12 7
-16 23 -29 36 -31 20 -3 22 0 22 52 0 46 -4 57 -21 67 -14 7 -19 17 -16 30 5
19 -12 19 -824 19 l-829 0 0 -1229z m2985 1183 c42 -11 81 -28 97 -42 23 -21
30 -23 43 -12 13 10 15 9 15 -8 0 -11 7 -28 16 -37 9 -9 17 -29 19 -46 1 -21
14 -40 44 -65 46 -40 67 -74 85 -143 13 -47 14 -106 3 -118 -4 -3 -7 -17 -7
-30 0 -27 20 -30 53 -8 18 11 35 13 77 6 92 -15 136 -90 110 -189 -17 -63 -30
-82 -77 -115 -35 -24 -44 -26 -66 -16 -22 10 -31 8 -64 -11 -21 -13 -61 -44
-88 -69 -28 -25 -84 -68 -124 -96 -40 -27 -105 -76 -146 -107 -40 -32 -76 -58
-80 -58 -9 0 0 42 53 228 l46 163 -21 20 c-17 17 -25 19 -41 10 -27 -15 -121
-160 -220 -341 -53 -97 -106 -185 -114 -188 -4 -2 -23 -25 -40 -50 -23 -34
-34 -42 -36 -30 -2 9 3 27 11 40 22 35 40 153 33 213 -4 38 -1 64 10 91 11 26
15 56 12 92 -5 56 -18 74 -53 70 -28 -4 -31 -34 -4 -41 20 -5 21 -10 14 -54
-3 -26 -17 -68 -31 -92 -13 -24 -24 -49 -24 -56 0 -7 -12 -29 -26 -50 -14 -21
-30 -62 -36 -91 -6 -30 -15 -54 -19 -54 -15 0 -10 78 7 131 9 27 14 52 11 55
-3 3 -12 -20 -21 -50 -9 -31 -21 -56 -26 -56 -15 0 -50 51 -50 74 -1 32 -42
125 -83 187 -55 84 -49 172 9 118 14 -13 24 -34 24 -50 0 -14 7 -32 15 -39 8
-7 20 -31 26 -54 6 -22 16 -53 21 -68 17 -46 56 -47 77 -2 9 20 16 23 36 18
21 -5 25 -3 25 18 0 13 9 41 20 63 19 38 18 67 -1 32 -14 -24 -29 -21 -29 6 0
44 -12 67 -39 73 -62 15 -116 94 -106 154 6 36 5 38 -39 64 -29 17 -46 34 -46
46 0 10 -20 36 -45 57 -57 47 -85 105 -95 194 -20 182 36 284 174 320 90 23
609 18 711 -7z m1831 -224 c6 -399 14 -642 23 -712 9 -66 4 -188 -8 -188 -3 0
-60 50 -126 111 -66 60 -158 136 -205 168 -47 32 -124 98 -171 147 -160 165
-278 264 -314 264 -48 0 -50 -22 -17 -133 17 -56 39 -133 47 -172 9 -38 24
-99 35 -135 10 -36 24 -92 31 -125 7 -33 22 -92 35 -131 40 -126 67 -245 58
-254 -9 -8 -132 48 -164 74 -8 7 -43 30 -77 50 -35 21 -63 41 -63 46 0 4 -18
15 -39 23 -22 9 -42 21 -45 26 -4 5 -32 19 -64 31 -31 12 -64 28 -73 36 -25
23 -269 144 -289 144 -31 0 -32 -17 -5 -64 24 -41 25 -47 12 -78 -25 -58 -57
-79 -125 -81 -100 -3 -101 12 -9 96 42 40 77 75 77 80 0 21 -34 0 -101 -63
-40 -38 -103 -90 -139 -115 -151 -104 -150 -107 43 -124 80 -7 150 -11 155 -7
16 10 42 -5 42 -24 0 -22 -6 -24 -100 -39 -41 -7 -97 -19 -125 -27 -81 -25
-258 -52 -277 -42 -12 6 -20 3 -28 -11 -15 -29 -12 -56 11 -100 27 -53 22 -79
-19 -97 -32 -13 -33 -13 -26 9 3 12 13 30 22 40 14 15 14 17 -1 17 -9 0 -19
-4 -22 -10 -3 -5 -12 -10 -20 -10 -15 0 -10 70 7 103 15 29 1 33 -32 8 -17
-12 -30 -18 -30 -13 0 17 81 111 100 117 22 7 27 25 8 25 -20 0 -98 -50 -98
-64 0 -7 -18 -34 -40 -59 -22 -25 -40 -50 -40 -57 0 -6 -4 -9 -9 -5 -6 3 -9
24 -8 46 1 34 -3 45 -27 64 l-28 22 21 40 c11 22 35 60 53 84 19 24 49 71 68
104 18 33 60 99 92 147 32 48 58 93 58 101 0 7 7 22 15 33 8 10 15 25 15 32 0
20 44 82 58 82 17 0 15 -10 -12 -71 -13 -30 -26 -76 -30 -103 -4 -26 -18 -82
-32 -124 -30 -95 -30 -110 -1 -123 21 -10 33 -4 106 53 45 34 104 79 130 98
27 19 73 54 102 77 30 23 80 63 112 88 31 25 62 45 68 45 6 0 33 -11 61 -25
27 -14 55 -25 61 -25 7 0 40 -15 74 -33 34 -17 128 -65 210 -106 81 -41 165
-85 185 -98 44 -27 61 -29 78 -8 10 12 6 34 -18 112 -48 159 -109 372 -131
458 -11 44 -34 130 -51 190 -43 157 -45 165 -30 165 27 0 123 -53 208 -114 48
-35 102 -71 120 -80 18 -9 50 -32 70 -50 20 -18 57 -46 82 -61 25 -15 74 -53
109 -84 35 -31 81 -67 102 -81 20 -14 57 -41 81 -61 49 -41 90 -55 106 -36 21
25 25 141 9 218 -8 41 -15 121 -15 179 0 58 -5 143 -11 190 -6 46 -11 115 -11
153 l0 68 71 -3 71 -3 4 -235z m-2915 -171 c-9 -22 -10 -22 -10 -3 -1 11 2 24
6 27 12 12 14 0 4 -24z m-116 -325 c-8 -20 -15 -39 -15 -42 0 -3 -2 -3 -5 0
-6 5 22 78 30 78 3 0 -2 -16 -10 -36z m-59 -150 c-20 -41 -36 -79 -36 -83 0
-4 -9 -16 -20 -26 -11 -10 -20 -23 -20 -28 0 -11 -46 -76 -101 -142 -21 -24
-39 -50 -42 -57 -2 -7 -8 -10 -12 -6 -4 4 6 24 22 45 73 95 132 187 183 285
62 121 80 129 26 12z m469 56 c0 -22 -29 -18 -33 3 -3 14 1 18 15 15 10 -2 18
-10 18 -18z m55 -159 c17 -33 12 -46 -10 -26 -21 19 -27 45 -10 45 5 0 14 -9
20 -19z m263 -228 c-13 -72 -36 -110 -53 -83 -17 27 -10 81 16 126 37 63 52
46 37 -43z m-942 -25 c21 14 46 5 69 -23 10 -12 23 -15 50 -10 34 6 40 3 61
-25 66 -88 111 -105 188 -75 25 10 72 22 104 28 56 10 60 9 83 -16 13 -15 20
-29 14 -32 -6 -3 -10 -33 -10 -65 0 -55 2 -60 37 -89 21 -17 55 -37 78 -44 34
-12 40 -18 40 -42 0 -26 -6 -31 -57 -52 -65 -26 -93 -21 -140 24 l-28 27 -23
-22 c-26 -24 -87 -31 -87 -9 0 6 9 27 20 45 11 18 20 39 20 47 0 17 -31 35
-61 35 l-23 0 24 22 23 22 -28 8 c-16 4 -39 5 -52 2 -17 -5 -23 -2 -23 10 0
11 -9 16 -31 16 -18 0 -28 -4 -24 -10 4 -6 3 -19 -1 -28 -4 -9 -7 -26 -8 -37
-2 -42 -119 -72 -160 -42 -29 21 -15 41 30 41 49 1 53 26 6 40 -20 5 -54 32
-87 67 -47 52 -54 65 -60 114 -9 68 -2 93 21 74 12 -10 20 -10 35 -1z m3032
-61 c29 -22 37 -73 15 -95 -9 -9 -9 -15 0 -24 19 -19 14 -28 -16 -28 -21 0
-40 12 -73 48 -25 26 -55 55 -68 65 -28 22 -15 43 33 55 40 11 74 4 109 -21z
m-3636 -33 c9 -23 -11 -38 -26 -20 -13 16 -7 36 10 36 5 0 12 -7 16 -16z
m1507 -78 c14 -27 26 -64 26 -81 0 -27 -4 -34 -25 -37 -19 -4 -25 -1 -25 13 0
29 -21 68 -47 84 -29 20 -29 30 3 62 29 29 32 27 68 -41z m1118 2 c3 -17 2
-46 -2 -65 -6 -23 -4 -36 6 -44 8 -6 14 -16 14 -21 0 -19 -68 -78 -89 -78 -12
0 -21 -5 -21 -11 0 -5 -5 -7 -11 -3 -8 4 -7 0 1 -15 8 -15 17 -20 30 -16 13 4
26 -4 45 -29 15 -19 36 -36 48 -38 38 -6 91 13 130 48 21 20 48 34 62 34 29 0
32 -8 8 -26 -16 -12 -15 -13 13 -14 17 0 37 7 44 15 15 18 91 17 97 0 2 -6
-15 -22 -37 -35 -44 -28 -47 -35 -22 -49 31 -19 -6 -30 -83 -24 l-72 6 -37
-38 c-50 -50 -45 -70 19 -71 27 0 50 -5 52 -11 2 -5 -15 -18 -37 -28 -61 -27
-67 -41 -29 -60 29 -16 30 -18 15 -33 -14 -14 -22 -15 -63 -4 -31 9 -50 9 -56
3 -13 -13 9 -41 33 -41 28 0 50 -11 50 -25 0 -17 -23 -25 -72 -25 -31 0 -46 7
-69 30 -30 29 -31 50 -4 50 8 0 11 7 8 19 -3 14 2 21 18 26 21 7 19 9 -21 24
-24 9 -45 22 -48 30 -4 11 0 12 14 6 11 -4 35 -10 54 -13 l35 -5 -25 21 -25
20 32 19 c46 25 41 35 -8 18 -23 -8 -46 -12 -51 -8 -12 7 57 43 81 43 9 0 22
9 29 20 10 16 10 20 -1 20 -7 0 -18 -5 -24 -11 -5 -5 -22 -7 -37 -3 -26 6 -27
7 -9 28 18 21 17 21 -7 -1 -14 -12 -38 -25 -54 -29 l-28 -7 17 27 c20 30 15
33 -21 10 -37 -25 -42 -8 -8 27 22 24 24 29 8 21 -11 -6 -26 -18 -34 -26 -7
-9 -19 -16 -27 -16 -11 0 -10 8 7 35 12 19 17 35 11 35 -6 0 -17 -13 -26 -30
-9 -16 -20 -30 -26 -30 -6 0 2 21 17 48 15 26 35 64 45 84 20 39 35 52 58 53
8 0 16 5 18 12 3 8 -5 11 -22 9 -18 -2 -34 -14 -48 -37 -12 -19 -27 -40 -34
-47 -7 -7 -13 -17 -13 -21 0 -5 -23 -37 -51 -72 -28 -35 -55 -74 -60 -86 -5
-13 -13 -23 -19 -23 -21 0 -9 37 28 85 29 38 36 55 29 66 -7 11 -2 27 18 59
23 37 29 41 37 26 12 -22 26 -12 44 35 11 27 29 46 56 61 41 23 68 62 68 96 0
42 26 43 32 0z m-450 -93 c44 -41 50 -76 39 -250 -8 -133 -8 -161 5 -180 18
-27 61 -49 92 -46 22 2 30 -13 12 -24 -5 -3 -10 -16 -10 -27 0 -24 -26 -47
-53 -48 -25 0 -84 46 -90 70 -7 26 1 25 22 -2 13 -15 23 -19 37 -14 18 7 18 8
1 18 -42 23 -74 165 -48 208 13 20 2 34 -15 19 -12 -10 -14 -3 -14 40 0 32 -4
50 -10 46 -15 -9 -12 13 7 64 16 41 16 47 0 91 -25 71 -20 77 25 35z m-412
-76 c-12 -41 -17 -45 -25 -20 -7 23 11 65 25 56 5 -3 5 -19 0 -36z m316 0 c14
-16 19 -36 19 -80 0 -38 4 -60 12 -64 10 -3 10 -10 1 -30 -12 -27 -27 -32 -46
-13 -10 10 -14 8 -18 -10 -7 -26 -24 -30 -24 -4 0 9 7 39 15 66 23 74 21 88
-12 80 -41 -10 -44 -14 -30 -34 11 -15 11 -32 4 -74 -7 -40 -7 -67 3 -101 14
-50 37 -69 73 -60 23 6 25 4 31 -57 8 -69 40 -148 61 -148 18 0 25 -23 25 -79
0 -27 8 -63 19 -85 16 -31 18 -42 8 -57 -9 -15 -8 -24 4 -46 20 -33 28 -241
30 -688 1 -159 5 -339 11 -400 5 -60 11 -135 13 -165 1 -30 6 -97 10 -147 8
-96 5 -104 -29 -78 -11 8 -30 15 -42 15 -35 0 -55 26 -44 56 13 33 0 80 -43
159 -47 88 -73 85 -139 -18 -24 -38 -32 -60 -30 -91 1 -23 -3 -51 -10 -63 -14
-27 6 -54 53 -74 41 -16 18 -30 -36 -22 -53 7 -88 42 -110 107 -16 47 -17 59
-5 100 16 59 41 91 91 116 21 11 46 34 55 52 l16 32 14 -32 c13 -33 38 -42 47
-19 9 25 -32 151 -55 171 -21 17 -23 27 -24 125 -1 346 -7 620 -15 716 -4 61
-11 155 -13 210 -3 55 -9 159 -13 230 -4 72 -7 166 -8 210 0 44 -4 121 -9 170
l-8 90 59 27 c71 33 66 33 89 7z m1374 2 c27 -7 79 -97 80 -138 0 -26 -21 -29
-80 -13 -28 8 -39 18 -48 43 -15 41 -39 64 -71 69 -14 1 -26 8 -28 13 -8 25
86 42 147 26z m-2486 -20 c3 -4 -10 -26 -29 -48 l-34 -40 20 -19 c16 -14 39
-19 93 -21 39 -1 84 -7 99 -12 16 -6 41 -11 57 -11 32 0 133 35 170 60 20 13
31 14 53 6 23 -8 36 -5 80 17 28 15 60 32 69 39 15 11 24 6 63 -32 25 -24 45
-48 45 -52 0 -20 -31 -4 -64 32 -20 23 -41 38 -46 35 -15 -10 -12 -51 6 -65 8
-8 21 -29 29 -47 17 -40 67 -64 135 -67 57 -1 93 23 129 89 15 27 32 50 39 53
14 4 16 -34 2 -43 -14 -9 -12 -32 6 -71 11 -23 14 -47 10 -72 -3 -20 -2 -104
4 -187 29 -459 40 -701 44 -972 l3 -303 -26 6 c-50 11 -51 12 -51 63 0 45 -3
51 -27 63 -20 9 -29 22 -31 43 -2 17 -8 34 -13 40 -18 18 -9 41 20 52 36 13
41 9 41 -31 l1 -31 20 24 c13 16 19 36 17 55 -3 28 -6 31 -35 30 -38 -2 -38
-1 -17 57 22 61 12 118 -28 172 -47 63 -72 109 -69 129 3 20 -16 58 -29 58 -5
0 -11 -9 -15 -19 -3 -11 -13 -22 -21 -25 -13 -5 -14 -2 -8 11 4 10 9 53 9 96
2 57 -1 77 -11 77 -21 0 -23 -13 -12 -63 8 -42 7 -53 -16 -101 -14 -30 -26
-58 -26 -61 0 -3 14 -33 30 -67 17 -33 30 -62 30 -64 0 -2 -11 -4 -24 -4 -34
0 -56 -35 -56 -87 0 -29 -4 -43 -13 -43 -29 0 -48 -26 -52 -73 -3 -41 -1 -48
13 -45 11 2 19 16 22 37 4 30 29 57 31 34 0 -4 2 -25 4 -46 4 -33 1 -39 -20
-47 -14 -5 -32 -7 -40 -4 -20 8 -19 -5 5 -77 12 -34 21 -87 22 -118 0 -31 2
-112 3 -181 l3 -125 42 -3 c51 -4 74 12 59 39 -12 24 -8 134 6 134 6 0 11 -12
13 -27 2 -19 16 -37 42 -55 22 -16 40 -33 40 -40 0 -7 -22 -22 -48 -33 -35
-15 -53 -30 -63 -53 -8 -18 -20 -31 -27 -30 -6 2 -19 -9 -29 -23 -14 -22 -15
-31 -4 -62 14 -40 72 -133 104 -169 17 -19 18 -23 4 -23 -19 0 -55 44 -63 77
-7 28 -12 28 -43 4 l-24 -19 31 -40 c18 -22 32 -42 32 -46 0 -3 -20 -15 -44
-26 -25 -11 -48 -25 -51 -31 -4 -6 -4 -40 0 -75 6 -59 10 -67 38 -85 18 -10
48 -19 67 -18 19 0 62 -5 94 -12 47 -9 64 -9 79 1 16 10 27 9 58 -5 46 -21 53
-36 32 -73 -15 -25 -15 -34 -3 -77 8 -27 29 -66 47 -86 19 -21 30 -40 25 -43
-5 -3 2 -38 15 -78 20 -60 24 -94 24 -188 0 -63 1 -241 3 -395 3 -264 4 -284
27 -355 23 -71 24 -88 24 -330 0 -230 2 -259 18 -284 11 -16 25 -26 35 -24 14
3 17 18 19 96 0 52 3 96 6 98 2 3 13 -18 23 -46 21 -58 36 -75 60 -66 11 4 14
13 10 29 -30 102 -34 126 -26 163 14 66 -5 310 -29 352 -14 26 -47 26 -45 -1
1 -9 -1 -17 -5 -17 -4 0 -15 33 -24 73 -12 52 -18 145 -23 342 -4 149 -8 317
-9 375 -2 58 -9 129 -16 158 -7 28 -10 55 -7 58 4 3 23 1 44 -5 25 -7 56 -30
98 -74 34 -36 70 -69 81 -75 17 -9 18 -13 6 -35 -11 -21 -10 -29 3 -55 27 -53
47 -187 51 -346 2 -83 8 -187 14 -231 9 -72 16 -158 41 -490 4 -55 12 -110 18
-121 6 -11 9 -38 7 -58 -2 -21 3 -56 11 -78 8 -23 14 -60 14 -84 0 -67 19
-142 45 -172 12 -15 24 -36 26 -47 2 -10 13 -22 24 -25 41 -11 85 -41 85 -58
0 -10 6 -27 14 -37 9 -14 13 -44 12 -94 -2 -71 -3 -74 -32 -86 -16 -6 -56 -15
-88 -19 -66 -7 -89 -20 -81 -45 4 -14 -8 -16 -108 -14 -61 1 -121 2 -132 3
-11 0 -41 -3 -67 -6 -28 -4 -48 -2 -48 4 0 5 27 12 61 16 72 7 149 38 149 60
0 23 -50 44 -124 52 -37 4 -69 11 -72 15 -7 13 -116 11 -189 -3 -50 -9 -79 -8
-139 2 -42 8 -76 18 -76 22 0 4 7 8 15 8 9 0 43 9 76 20 53 18 66 19 118 9 58
-12 59 -12 137 25 43 20 82 43 86 49 4 7 10 38 14 70 6 48 9 57 23 51 28 -12
53 -6 78 18 l25 23 26 -32 c19 -22 40 -34 67 -39 22 -4 49 -13 60 -20 27 -19
62 -17 70 3 9 24 -24 49 -75 58 -27 5 -46 15 -57 31 -9 14 -25 30 -37 36 -24
13 -98 29 -139 30 -32 1 -73 47 -79 88 -4 31 -47 39 -80 16 -12 -9 -32 -16
-45 -16 -25 0 -53 -34 -53 -64 0 -11 -12 -33 -27 -48 -17 -18 -29 -43 -32 -70
-5 -34 -10 -44 -28 -46 -38 -6 -120 37 -142 73 -11 20 -29 35 -43 37 -25 3
-25 8 -12 85 6 40 5 43 -20 53 -30 11 -86 13 -110 4 -10 -4 -16 -18 -16 -37 0
-44 -13 -25 -45 63 -37 106 -45 141 -35 161 19 34 -25 40 -75 9 -31 -19 -32
-21 -38 -113 -3 -51 -13 -110 -22 -130 -10 -23 -13 -51 -10 -70 5 -26 1 -37
-20 -57 -24 -22 -34 -25 -100 -23 l-73 2 -11 -31 c-13 -37 -109 -130 -130
-126 -11 2 -19 27 -28 88 -14 91 -28 135 -50 162 -8 9 -18 47 -21 85 -6 61 -9
68 -30 71 -40 6 -50 -12 -46 -82 5 -88 -13 -139 -54 -147 -46 -9 -81 -36 -88
-67 -12 -56 -13 -57 -42 -29 -36 34 -44 34 -41 -1 2 -15 0 -32 -4 -38 -7 -11
32 -44 52 -44 5 0 17 -7 26 -16 18 -18 12 -52 -13 -71 -24 -19 -31 -16 -40 19
-10 40 -29 47 -42 16 -11 -26 -8 19 8 131 8 59 13 68 54 106 25 23 56 61 68
86 12 24 32 54 44 67 23 25 26 55 40 402 3 80 11 215 16 300 6 85 15 290 20
455 18 501 21 569 30 595 13 36 24 380 20 640 0 64 6 161 15 220 24 155 26
197 24 395 -2 226 -1 250 8 472 4 99 5 198 1 220 -8 39 -8 72 -5 595 l2 298
37 0 c20 0 39 -4 42 -9z m714 -33 c-3 -7 -11 -13 -18 -13 -7 0 -15 6 -17 13
-3 7 4 12 17 12 13 0 20 -5 18 -12z m2118 -13 c48 -24 57 -34 83 -98 14 -35 4
-80 -16 -73 -8 3 -18 6 -23 6 -35 0 -107 102 -115 163 -5 34 6 34 71 2z
m-2002 -112 c-35 -25 -43 -15 -21 27 l22 39 9 -26 c7 -21 5 -29 -10 -40z m496
-12 c-49 -42 -55 -44 -45 -12 10 32 34 51 63 51 26 0 26 -1 -18 -39z m-150
-42 c0 -6 -4 -7 -10 -4 -5 3 -10 11 -10 16 0 6 5 7 10 4 6 -3 10 -11 10 -16z
m145 -35 c2 -31 -12 -57 -26 -48 -11 6 -12 68 -2 78 13 13 26 -1 28 -30z m862
-29 c35 -35 35 -36 28 -97 -4 -35 -9 -65 -11 -67 -8 -9 -86 21 -106 41 -16 16
-19 27 -14 56 4 21 7 52 6 70 0 29 3 32 31 32 22 0 41 -10 66 -35z m-713 -34
c3 -4 3 -11 0 -14 -8 -8 -34 3 -34 14 0 11 27 12 34 0z m83 -25 c-5 -14 -26
-15 -52 -2 -19 9 -19 10 5 16 30 8 52 2 47 -14z m-64 -16 c22 0 27 -4 27 -25
0 -30 -2 -30 -57 -4 -45 22 -59 46 -20 35 12 -3 34 -6 50 -6z m1180 -78 c14
-26 28 -62 32 -79 6 -31 5 -33 -22 -33 -44 1 -96 32 -103 60 -3 14 -16 30 -28
36 -12 6 -25 13 -28 16 -8 9 96 57 110 52 8 -3 25 -26 39 -52z m-526 -184 c11
-11 24 -35 27 -53 4 -18 13 -38 21 -45 8 -7 15 -23 15 -36 0 -19 -5 -24 -25
-24 -38 0 -93 40 -106 78 -6 18 -22 40 -35 49 -33 21 -30 38 9 50 39 13 65 7
94 -19z m823 -58 c33 -18 54 -132 28 -158 -8 -8 -23 0 -61 33 -27 25 -54 45
-59 45 -14 0 0 73 15 82 17 11 55 10 77 -2z m-1231 -73 c47 -24 77 -68 83
-122 2 -24 -2 -31 -23 -38 -14 -6 -38 -7 -51 -4 -39 10 -88 61 -88 90 0 30
-33 57 -68 57 -31 0 -24 24 9 28 13 2 28 8 34 13 13 13 48 4 104 -24z m908
-41 c14 -13 25 -39 29 -68 11 -80 5 -83 -77 -40 -40 21 -82 50 -93 65 -19 25
-19 27 -2 46 32 35 105 34 143 -3z m-1882 -322 c8 -45 1 -53 -25 -29 -19 17
-27 64 -13 78 11 12 31 -13 38 -49z m965 23 c28 -14 80 -108 80 -145 0 -23 -3
-24 -36 -19 -41 7 -69 29 -90 69 -10 18 -23 28 -37 28 -13 0 -32 7 -43 15 -18
15 -18 16 11 40 33 27 76 32 115 12z m-913 -116 c19 19 36 -22 40 -99 2 -43 0
-90 -6 -105 -13 -33 -41 -37 -34 -4 2 12 -5 3 -16 -21 -11 -24 -25 -41 -31
-37 -6 4 -2 21 10 45 16 32 19 51 14 107 -3 37 -12 81 -20 97 -18 37 -7 56 16
28 11 -14 21 -17 27 -11z m-105 -82 c-5 -42 -5 -54 -1 -68 2 -8 -3 -16 -12
-18 -13 -3 -18 5 -21 36 -4 48 7 84 24 78 7 -2 12 -15 10 -28z m44 -44 c-1
-46 -7 -70 -21 -85 -10 -11 -22 -20 -27 -20 -12 0 2 51 18 71 8 8 14 34 14 57
0 23 4 42 9 42 5 0 8 -29 7 -65z m-1371 -152 c-4 -16 -7 -50 -6 -78 1 -27 -4
-78 -10 -112 l-13 -62 38 -71 37 -71 -21 -26 c-11 -14 -20 -36 -20 -48 0 -12
-9 -33 -19 -47 -26 -32 -38 -78 -21 -78 8 0 11 -9 7 -29 -4 -17 0 -36 8 -48
19 -26 7 -38 -17 -16 -10 9 -18 29 -18 45 0 16 -6 44 -14 62 -8 19 -17 64 -21
100 -6 54 -14 75 -42 112 -19 25 -46 49 -59 54 -40 16 -32 53 20 90 48 35 96
125 96 181 0 34 31 69 61 69 18 0 20 -4 14 -27z m-568 -12 c34 -4 64 -9 67
-12 6 -5 10 -46 8 -82 -2 -27 -2 -27 -59 -21 -32 4 -65 10 -74 15 -20 10 -49
69 -49 99 0 18 4 20 23 14 12 -4 50 -10 84 -13z m1831 -33 c-3 -7 -13 -15 -24
-17 -16 -3 -17 -1 -5 13 16 19 34 21 29 4z m36 -17 c3 -4 -3 -16 -14 -26 -19
-17 -20 -17 -26 0 -9 23 27 47 40 26z m116 -11 c0 -15 -39 -32 -60 -25 -21 7
-25 17 -13 28 10 11 73 8 73 -3z m-2123 -46 c33 -25 52 -79 35 -96 -15 -15
-95 4 -132 31 -25 18 -62 79 -55 91 8 14 125 -6 152 -26z m-205 -160 c15 -10
48 -85 48 -113 0 -21 -3 -23 -27 -16 -21 5 -119 25 -170 35 -13 2 -53 60 -53
76 0 21 24 39 39 29 4 -2 21 -1 37 4 28 7 104 -2 126 -15z m2477 -23 c28 -26
31 -35 31 -85 0 -60 -22 -96 -58 -96 -41 0 -102 -97 -102 -162 0 -41 39 -125
71 -155 31 -29 90 -53 129 -53 16 0 30 -5 30 -10 0 -6 11 -16 25 -22 20 -9 28
-8 42 4 10 8 30 18 45 22 27 6 53 27 60 46 2 7 19 2 44 -11 34 -19 40 -27 40
-54 0 -31 -1 -32 -28 -23 -90 32 -208 -80 -177 -167 9 -24 9 -44 1 -76 -13
-55 0 -133 30 -173 12 -16 24 -43 28 -60 4 -21 15 -36 35 -46 23 -11 26 -15
13 -18 -10 -2 -30 4 -45 12 -15 8 -42 22 -58 30 -44 21 -62 45 -77 99 -11 42
-10 51 6 82 l19 35 -24 26 c-26 28 -128 79 -176 89 -25 5 -34 2 -46 -16 -14
-19 -19 -20 -44 -11 -15 6 -44 13 -63 14 l-35 3 -3 57 c-3 54 -2 58 27 72 18
10 56 16 95 16 36 0 68 5 71 10 4 6 34 8 72 6 48 -3 71 -9 85 -24 21 -21 17
-42 -8 -42 -32 0 -3 -121 32 -134 10 -4 22 -2 27 3 13 13 18 182 6 197 -10 13
-165 66 -227 79 -23 5 -41 19 -62 50 -17 25 -44 59 -60 77 -43 46 -41 110 2
87 28 -15 46 5 50 54 3 44 8 47 80 62 15 3 35 16 43 29 19 29 7 67 -36 111
l-29 31 30 32 c36 39 49 40 89 3z m-106 -97 c35 -42 31 -75 -6 -52 -37 25 -58
88 -29 88 4 0 20 -16 35 -36z m-1973 -10 c6 -14 10 -38 10 -53 0 -15 9 -36 19
-45 22 -20 37 -55 46 -108 3 -21 14 -42 23 -47 32 -16 106 -20 122 -7 8 8 36
17 63 20 39 6 48 4 54 -10 4 -11 -1 -22 -12 -30 -21 -15 -25 -43 -28 -164 l-2
-85 -30 0 c-25 0 -32 5 -41 33 -8 25 -26 43 -75 72 -54 34 -73 40 -118 40 -35
0 -61 6 -71 15 -16 15 -16 18 2 55 19 38 19 42 4 103 -16 63 -22 191 -10 221
9 24 33 19 44 -10z m620 -9 c10 -12 8 -16 -12 -24 -28 -11 -54 -39 -44 -49 4
-3 21 1 37 11 34 19 75 22 84 6 11 -17 -5 -79 -19 -79 -18 0 -28 27 -15 36 7
4 7 10 1 16 -6 6 -23 0 -47 -16 -64 -44 -78 -32 -51 41 8 21 17 46 20 56 7 21
29 22 46 2z m1611 -208 c-8 -8 -11 -4 -12 14 -3 63 14 100 19 40 2 -24 -2 -49
-7 -54z m-1571 40 c8 -12 31 -40 51 -62 20 -22 66 -83 102 -137 63 -92 65 -97
48 -112 -15 -14 -23 -15 -44 -5 -36 16 -67 6 -129 -45 -49 -40 -73 -51 -103
-47 -5 0 8 19 29 40 25 25 37 45 33 55 -9 23 -23 20 -44 -12 -10 -16 -37 -45
-59 -65 -38 -34 -45 -36 -70 -27 -23 9 -25 13 -14 20 8 6 23 10 33 10 37 0 6
17 -42 23 -49 6 -94 27 -118 57 -9 10 -11 35 -7 80 7 74 22 94 61 79 13 -5 41
-9 62 -9 35 0 43 -5 81 -56 42 -53 67 -74 89 -74 19 0 12 17 -29 76 -33 47
-90 191 -78 198 87 48 121 51 148 13z m-1224 -69 c28 -13 44 -49 44 -99 0 -22
5 -50 11 -61 9 -17 7 -24 -9 -40 -16 -16 -24 -18 -40 -9 -33 18 -71 70 -82
114 -6 23 -15 55 -20 70 -7 24 -5 29 13 37 23 9 48 6 83 -12z m2844 -157 c0
-5 -16 -11 -35 -13 -34 -4 -43 1 -28 15 10 10 63 8 63 -2z m802 -168 c15 -19
34 -54 41 -77 14 -38 57 -249 57 -275 0 -6 -17 0 -37 14 -21 14 -44 25 -51 25
-7 0 -26 9 -41 21 -25 18 -28 26 -24 59 8 61 -34 65 -64 7 -16 -31 -16 -31
-24 -8 -14 37 1 129 28 168 40 59 6 86 -48 40 -30 -25 -49 -58 -60 -102 -7
-29 -7 -28 -8 10 -1 24 7 53 19 73 11 18 20 39 20 46 0 23 30 40 79 46 57 7
79 -2 113 -47z m-2312 43 c0 -7 -82 -57 -87 -53 -2 3 13 17 34 31 35 24 53 32
53 22z m1783 -27 c4 -16 3 -18 -9 -8 -16 13 -19 29 -5 29 5 0 11 -9 14 -21z
m-206 -9 c-14 -11 -29 -20 -34 -20 -11 1 37 40 49 40 6 0 -1 -9 -15 -20z m450
-7 c-9 -9 -19 -14 -23 -11 -10 10 6 28 24 28 15 0 15 -1 -1 -17z m-2392 -24
c28 -8 28 -8 -7 -4 -32 3 -41 -1 -64 -28 -15 -17 -31 -44 -36 -59 -6 -16 -15
-25 -23 -22 -8 3 -20 -6 -29 -23 l-16 -28 4 42 c3 24 10 51 16 60 10 15 11 15
6 1 -2 -9 -2 -19 1 -22 10 -10 43 25 43 45 0 42 40 56 105 38z m478 0 c-6 -6
-8 -29 -6 -53 4 -31 -1 -57 -17 -92 -12 -27 -24 -64 -26 -82 -7 -50 -24 -86
-102 -212 -47 -74 -70 -121 -66 -132 6 -20 -12 -153 -28 -205 -11 -38 -14 -39
-68 -17 -38 15 -40 18 -25 33 23 26 47 113 34 126 -7 7 -13 4 -20 -7 -6 -10
-17 -18 -24 -18 -16 0 -19 -14 -15 -73 l2 -38 -30 15 -30 15 23 58 c36 89 42
133 19 150 -16 11 -16 17 -6 46 41 117 68 344 40 335 -7 -3 -14 -18 -16 -34
-2 -16 -7 -33 -12 -38 -5 -5 -6 -31 -3 -57 4 -31 1 -54 -6 -63 -6 -8 -10 -18
-9 -22 2 -5 -1 -11 -7 -12 -5 -2 -14 13 -19 33 -23 97 93 335 164 335 9 0 4
-9 -15 -24 -25 -20 -28 -26 -16 -40 17 -21 28 -20 73 3 19 11 38 17 41 14 3
-3 12 4 19 16 16 27 28 27 28 1 0 -11 -8 -23 -17 -26 -44 -14 -176 -87 -180
-99 -2 -6 4 -20 12 -30 15 -20 16 -20 31 3 9 12 24 22 33 22 10 0 32 11 51 25
18 13 48 29 66 35 27 9 33 17 39 48 3 21 11 44 16 52 10 15 9 6 -7 -52 -3 -10
0 -18 6 -18 6 0 13 8 17 18 6 18 53 72 62 72 3 0 0 -5 -6 -11z m1812 -17 c6
-4 8 -25 5 -47 l-5 -40 -13 34 c-19 53 -14 73 13 53z m-317 -21 c-9 -15 -8
-24 5 -45 17 -26 37 -35 37 -16 0 16 73 60 101 60 29 0 65 -33 54 -49 -9 -16
72 -88 138 -122 31 -16 57 -33 57 -38 0 -10 -70 2 -115 19 -16 6 -44 24 -60
40 -31 30 -61 28 -50 -2 20 -51 157 -99 293 -102 92 -3 101 -5 178 -45 44 -23
93 -55 109 -71 33 -35 45 -38 45 -11 0 11 4 22 10 26 14 9 39 -47 33 -77 -4
-22 2 -30 40 -57 46 -31 101 -90 93 -98 -2 -3 -17 5 -33 16 -51 38 -200 91
-234 84 -23 -4 -38 0 -62 18 -23 17 -57 27 -119 35 -48 7 -102 19 -119 28 -18
9 -38 16 -45 16 -7 0 -28 15 -47 34 -19 18 -51 39 -73 46 -22 7 -59 32 -85 59
-72 72 -108 96 -128 84 -9 -6 -18 -18 -19 -27 -4 -20 25 -56 44 -56 7 0 28
-19 46 -41 29 -37 126 -109 146 -109 4 0 18 -7 30 -16 22 -15 22 -17 7 -34
-15 -17 -18 -17 -72 4 -32 12 -75 39 -101 65 -38 37 -48 42 -64 32 -24 -15
-25 -15 -33 16 -4 19 -2 29 10 36 13 7 14 12 4 23 -6 8 -16 14 -22 14 -15 0
-57 41 -57 56 0 6 -7 24 -15 40 -17 32 -11 66 18 109 35 52 83 101 55 56z
m436 -133 c5 -10 4 -18 0 -18 -36 1 -59 59 -43 109 19 60 24 59 30 -9 3 -36 9
-73 13 -82z m-2404 82 c5 0 13 8 19 17 5 10 13 15 17 10 4 -4 1 -15 -7 -24 -8
-10 -25 -38 -38 -62 -22 -40 -23 -52 -18 -138 6 -104 -4 -117 -15 -20 -4 34
-11 89 -17 122 -10 57 -9 62 17 100 24 36 27 38 30 18 2 -13 7 -23 12 -23z
m120 35 c0 -3 -13 -23 -29 -45 -16 -22 -32 -56 -35 -75 -4 -19 -11 -37 -16
-40 -13 -8 -13 37 0 71 16 42 80 113 80 89z m-243 -137 c-2 -13 -4 -5 -4 17
-1 22 1 32 4 23 2 -10 2 -28 0 -40z m2838 -162 c16 -12 17 -15 4 -16 -8 0 -26
12 -40 26 -20 22 -21 25 -4 16 11 -6 29 -17 40 -26z m-2765 -61 c11 -13 10
-14 -3 -10 -10 4 -17 -1 -22 -14 -7 -24 -25 -28 -25 -7 0 43 27 59 50 31z m73
-57 c-28 -57 -42 -120 -32 -139 11 -22 20 -24 38 -6 11 10 12 7 6 -13 -11 -37
-20 -43 -43 -29 -12 7 -25 10 -29 6 -13 -13 13 -42 41 -45 14 -2 26 -7 26 -11
0 -18 -14 -18 -45 0 -26 15 -34 28 -39 60 -5 33 -3 44 11 54 17 13 17 14 -2
35 -13 14 -16 25 -10 34 6 7 23 32 38 56 21 31 32 39 40 31 8 -8 8 -17 0 -33z
m-82 -11 c-10 -9 -11 -8 -5 6 3 10 9 15 12 12 3 -3 0 -11 -7 -18z m2167 -51
c9 -20 9 -26 -1 -26 -27 0 -86 52 -87 77 0 20 75 -24 88 -51z m352 -2 c0 -2
-9 -4 -20 -4 -11 0 -20 4 -20 9 0 5 9 7 20 4 11 -3 20 -7 20 -9z m-300 -44 c0
-5 -2 -10 -4 -10 -3 0 -8 5 -11 10 -3 6 -1 10 4 10 6 0 11 -4 11 -10z m562 -9
c29 -11 71 -23 93 -27 22 -3 51 -13 65 -21 37 -22 108 -120 121 -167 13 -49
81 -143 114 -158 29 -13 85 -89 85 -116 0 -77 114 -195 171 -177 37 12 91 8
107 -9 15 -15 14 -16 -9 -16 -14 0 -30 5 -36 11 -17 17 -77 2 -103 -26 -28
-30 -16 -54 18 -36 10 6 22 8 25 4 4 -3 23 2 43 12 24 11 39 14 46 7 7 -7 3
-14 -11 -21 -11 -7 -28 -26 -37 -43 -13 -25 -14 -38 -5 -74 6 -23 11 -54 11
-68 0 -34 44 -85 60 -70 8 8 9 18 2 30 -5 11 -15 52 -21 93 -10 64 -10 77 3
90 14 13 18 13 35 -3 22 -20 51 -15 51 7 0 8 -7 20 -15 27 -19 16 -19 40 0 40
18 0 27 -18 29 -58 1 -15 18 -51 38 -80 40 -54 43 -89 13 -137 -13 -22 -15
-28 -50 -162 -13 -50 -28 -100 -34 -112 -16 -30 -14 -106 4 -121 10 -8 13 -21
9 -33 -4 -13 -2 -17 5 -13 15 10 71 -31 71 -51 0 -14 -3 -14 -22 1 -58 42 -68
33 -39 -35 12 -28 20 -53 17 -57 -3 -3 -15 16 -26 41 -34 77 -54 58 -25 -23
15 -44 12 -67 -6 -40 -5 8 -12 26 -15 40 -7 35 -18 53 -34 58 -10 4 -12 -5 -7
-34 3 -22 8 -47 12 -56 4 -10 3 -18 -3 -18 -5 0 -15 20 -22 45 -7 25 -17 48
-21 51 -19 11 -8 47 22 75 24 23 28 30 16 35 -20 7 -57 -13 -57 -30 0 -14 -42
-46 -60 -46 -6 0 2 19 18 43 17 23 35 58 41 77 22 72 50 207 54 257 4 48 2 54
-29 84 -22 22 -35 45 -39 73 -8 52 -25 96 -36 96 -5 0 -14 11 -19 25 -5 14
-16 25 -23 25 -8 0 -22 9 -32 20 -22 24 -38 25 -55 5 -7 -8 -16 -13 -20 -10
-11 7 0 53 16 66 19 15 18 73 -1 89 -19 16 -44 6 -47 -17 -1 -10 -4 7 -7 37
-5 41 -2 58 8 66 12 10 13 16 1 43 -7 18 -24 40 -37 48 -13 9 -31 29 -39 45
-8 16 -31 39 -50 50 -19 11 -34 25 -34 31 0 22 -56 95 -144 184 -70 72 -102
97 -145 114 -92 37 -100 53 -9 20z m-450 -42 c27 -14 69 -23 122 -27 123 -8
219 -58 196 -102 -16 -30 -7 -36 55 -44 79 -9 124 -41 159 -112 16 -33 39 -72
51 -89 57 -78 78 -125 72 -163 -5 -26 -2 -41 10 -54 9 -10 13 -21 9 -25 -4 -4
-11 -1 -15 6 -12 19 -31 4 -31 -24 0 -32 -17 -41 -39 -21 -30 27 -41 19 -42
-31 0 -36 -3 -43 -9 -28 -5 11 -9 32 -9 48 -1 15 -10 35 -21 44 -11 10 -25 32
-31 51 -10 30 -9 35 9 48 21 15 23 63 4 100 -6 11 -18 38 -28 62 -21 53 -65
87 -92 73 -13 -7 -24 -5 -40 8 -22 16 -22 17 18 13 47 -5 77 13 59 34 -6 8
-28 14 -48 14 -35 0 -71 14 -202 80 -61 31 -86 27 -76 -10 4 -17 -6 -11 -42
26 -83 86 -120 144 -91 144 6 0 29 -9 52 -21z m-2842 -29 c10 -19 10 -20 -9
-8 -22 13 -28 28 -11 28 5 0 14 -9 20 -20z m3310 -55 c29 -30 51 -57 47 -61
-5 -6 -19 3 -84 54 -22 18 -41 62 -26 62 5 0 33 -25 63 -55z m-3390 -10 c0 -8
-6 -15 -14 -15 -7 0 -16 -9 -19 -21 -3 -12 -10 -18 -16 -14 -19 11 -12 34 17
49 34 19 32 19 32 1z m139 -11 c-14 -18 -24 -11 -15 11 3 9 11 13 16 10 8 -5
7 -11 -1 -21z m-55 -49 c7 -28 6 -29 -7 -10 -8 11 -17 34 -21 50 -7 28 -6 29
7 10 8 -11 17 -33 21 -50z m53 3 c-3 -8 -6 -5 -6 6 -1 11 2 17 5 13 3 -3 4
-12 1 -19z m-109 -6 c6 -18 -15 -14 -22 4 -4 10 -1 14 6 12 6 -2 14 -10 16
-16z m-217 -27 c3 2 11 -6 18 -18 13 -20 13 -21 -3 -8 -13 11 -20 11 -28 3
-21 -21 -48 -14 -48 11 0 33 9 38 34 21 13 -8 25 -12 27 -9z m93 1 c22 4 27 3
17 -4 -7 -5 -16 -15 -20 -21 -5 -7 -16 -2 -32 16 -13 16 -17 23 -10 16 8 -7
28 -10 45 -7z m295 -36 c1 -13 0 -13 -9 0 -5 8 -9 24 -9 35 l0 20 9 -20 c5
-11 9 -27 9 -35z m3398 -58 c34 -44 94 -186 81 -191 -13 -4 -38 26 -38 46 0 7
-13 34 -29 60 -16 27 -32 59 -36 71 -5 16 -13 22 -23 19 -43 -12 -47 -12 -43
3 2 8 6 30 9 49 l5 35 26 -32 c14 -17 36 -44 48 -60z m-467 58 l25 -20 -32 9
c-17 5 -40 14 -50 20 -16 9 -15 10 7 10 14 1 36 -8 50 -19z m-3013 -37 c-3
-10 -5 -4 -5 12 0 17 2 24 5 18 2 -7 2 -21 0 -30z m-286 -101 c1 -84 -1 -94
-14 -89 -6 2 -10 11 -8 18 13 41 11 93 -3 129 -22 56 -19 73 5 27 12 -22 20
-58 20 -85z m396 86 c-3 -8 -6 -5 -6 6 -1 11 2 17 5 13 3 -3 4 -12 1 -19z
m-584 -36 c25 -24 27 -31 25 -93 l-1 -67 -41 18 c-23 11 -53 21 -68 24 -15 4
-29 14 -33 25 -3 10 -17 23 -30 29 -14 6 -25 16 -25 21 0 5 18 25 41 45 35 32
45 36 72 31 18 -4 44 -19 60 -33z m593 -57 c-1 -65 -9 -83 -21 -46 -5 17 -2
43 12 94 8 29 9 20 9 -48z m-65 24 c-9 -22 -10 -22 -10 -3 -1 11 2 24 6 27 12
12 14 0 4 -24z m-166 -27 c-15 -16 -16 -15 -4 12 7 15 15 23 17 16 3 -7 -3
-19 -13 -28z m3565 -2 c0 -5 -4 -10 -10 -10 -5 0 -10 5 -10 10 0 6 5 10 10 10
6 0 10 -4 10 -10z m-3485 -60 c3 -5 18 -10 31 -10 15 0 38 -12 54 -29 16 -16
36 -31 44 -34 11 -4 13 -15 10 -39 -3 -18 0 -53 6 -78 6 -25 11 -54 11 -64 0
-30 -21 -74 -38 -81 -21 -7 -101 32 -113 56 -6 10 -25 26 -43 35 -18 9 -35 22
-39 28 -9 14 12 27 34 20 33 -10 29 18 -8 52 -30 29 -43 35 -65 30 -22 -4 -26
-2 -22 12 2 10 18 25 34 35 17 9 27 22 23 28 -4 8 0 7 15 -1 20 -10 23 -8 34
19 12 32 21 38 32 21z m3658 -96 c3 -3 1 -19 -5 -36 -13 -36 -32 -23 -22 16 6
25 15 32 27 20z m-3863 -25 c0 -6 -4 -7 -10 -4 -5 3 -10 11 -10 16 0 6 5 7 10
4 6 -3 10 -11 10 -16z m3798 -41 c-6 -18 -28 -21 -28 -4 0 9 7 16 16 16 9 0
14 -5 12 -12z m-294 -62 c4 -24 16 -52 27 -62 13 -12 19 -29 18 -49 -4 -65 1
-95 16 -95 8 0 15 -8 15 -18 0 -10 5 -23 12 -30 6 -6 9 -15 5 -19 -4 -4 -13
-1 -19 5 -18 18 -28 15 -28 -8 0 -13 -7 -20 -19 -20 -11 0 -22 -4 -26 -9 -8
-13 -45 -9 -45 4 0 18 -74 55 -109 55 -53 0 -126 -39 -107 -57 3 -3 24 2 47
11 25 10 53 14 70 11 44 -10 44 -24 0 -18 -23 3 -41 1 -45 -6 -5 -7 2 -11 18
-11 14 0 28 -5 31 -11 4 -5 17 -9 28 -8 53 4 67 -1 73 -26 4 -17 1 -32 -10
-44 -12 -14 -16 -34 -14 -80 1 -37 -2 -65 -10 -73 -7 -7 -12 -8 -12 -2 0 5 -7
-4 -15 -19 -11 -22 -12 -47 -6 -126 5 -53 7 -109 4 -124 -9 -44 20 -77 67 -77
40 0 60 -18 60 -55 0 -16 -2 -16 -25 -1 -13 9 -40 16 -59 16 -19 0 -38 5 -41
10 -10 16 -35 12 -29 -5 3 -8 25 -18 47 -22 34 -7 45 -15 59 -43 10 -20 19
-44 20 -55 4 -26 -16 -36 -20 -10 -4 27 -35 85 -44 85 -11 0 2 -79 18 -112 10
-18 11 -29 3 -33 -15 -10 -18 -5 -37 66 -23 85 -46 88 -50 7 -4 -80 -22 -73
-22 7 0 80 -19 96 -57 49 -28 -36 -31 -12 -3 31 23 35 18 94 -15 170 -12 28
-20 55 -18 62 2 6 -3 26 -12 43 -22 42 -36 202 -20 219 3 3 15 0 25 -7 11 -7
32 -12 48 -12 21 0 32 -8 46 -35 19 -35 46 -47 46 -21 0 8 7 17 16 20 14 5 16
16 11 55 -5 41 -2 52 14 67 12 11 16 21 10 27 -9 9 -73 -32 -97 -63 -10 -12
-14 -12 -28 -1 -23 19 -20 27 12 26 24 0 27 3 27 35 0 29 -4 36 -23 38 -13 2
-28 0 -35 -5 -7 -5 -28 -9 -47 -9 -33 1 -35 3 -38 36 -3 44 26 100 64 121 18
9 40 38 59 76 17 33 42 74 58 92 15 18 27 37 27 42 0 5 10 8 22 6 14 -1 23 4
24 13 3 42 4 43 18 31 8 -6 17 -31 20 -55z m366 -1 c0 -35 -5 -49 -26 -68 -25
-24 -26 -25 -9 -51 9 -14 15 -33 11 -41 -7 -19 -45 -19 -52 0 -9 22 -35 18
-41 -5 -3 -12 -21 -27 -39 -35 -33 -14 -50 -43 -18 -31 36 14 65 18 81 11 17
-6 17 -7 1 -16 -10 -6 -18 -16 -18 -23 0 -17 -27 -29 -35 -16 -9 15 -25 12
-25 -5 0 -20 37 -38 66 -31 16 4 26 17 31 37 l9 31 42 -41 c36 -35 45 -39 66
-31 25 9 36 5 36 -16 0 -7 -12 -14 -27 -16 -24 -3 -28 -7 -28 -35 0 -38 1 -37
-25 -21 -31 20 -70 -7 -70 -48 0 -20 6 -34 16 -38 27 -11 61 -6 74 9 14 17 30
20 30 5 0 -25 -161 -79 -196 -66 -15 6 -14 9 14 26 41 25 45 36 33 88 -8 38
-7 44 12 57 30 21 10 40 -26 26 -19 -8 -27 -18 -27 -35 0 -17 -8 -29 -27 -38
-20 -9 -31 -25 -37 -51 -9 -36 -36 -53 -36 -22 0 19 -13 19 -50 0 -17 -9 -30
-23 -30 -31 0 -9 -9 -18 -20 -21 -15 -4 -19 -13 -17 -36 3 -42 -16 -44 -29 -2
-10 33 -9 39 18 73 16 20 41 39 55 42 15 3 28 11 31 18 6 18 -39 15 -66 -4
-13 -9 -26 -13 -29 -10 -9 8 17 36 33 36 8 0 23 5 33 12 15 9 24 8 45 -5 31
-21 37 -21 29 -2 -3 9 1 35 10 58 21 59 28 105 17 112 -17 10 -11 36 15 67 16
18 25 42 25 62 0 70 41 126 92 126 8 0 21 9 31 20 29 35 47 26 47 -25z m-3840
-5 c0 -5 -5 -10 -11 -10 -5 0 -7 5 -4 10 3 6 8 10 11 10 2 0 4 -4 4 -10z m920
-44 c6 -41 5 -43 -12 -33 -18 12 -26 66 -11 80 10 11 16 0 23 -47z m-1127 4
c45 -53 60 -151 25 -158 -9 -2 -43 17 -76 42 -33 25 -67 46 -76 46 -18 0 -52
47 -42 58 14 14 91 41 118 41 17 1 35 -9 51 -29z m1040 -67 c-3 -21 -12 -48
-19 -60 -21 -33 -17 -46 11 -41 14 3 25 4 25 3 0 -1 -6 -18 -14 -37 -8 -19
-11 -40 -7 -46 10 -16 41 -5 63 22 25 30 23 1 -2 -34 -26 -36 -80 -70 -112
-70 -29 0 -61 32 -76 77 -10 29 -8 34 9 43 24 13 25 42 2 38 -21 -3 -43 9 -43
24 0 7 5 6 14 -1 23 -19 28 4 6 24 -29 27 -25 32 30 39 31 4 60 16 77 31 38
33 43 31 36 -12z m3052 16 c-4 -5 -13 -9 -22 -9 -13 0 -13 3 -3 15 13 15 35
11 25 -6z m-255 7 c0 -3 -4 -8 -10 -11 -5 -3 -10 -1 -10 4 0 6 5 11 10 11 6 0
10 -2 10 -4z m-6 -57 c-8 -13 -24 -1 -24 18 0 13 3 13 15 3 8 -7 12 -16 9 -21z
m411 12 c-3 -10 1 -24 10 -31 8 -7 15 -18 15 -26 0 -10 -5 -10 -27 1 -40 21
-46 37 -20 57 28 22 30 22 22 -1z m-3139 -37 c-3 -8 -13 -14 -21 -14 -14 0
-14 4 2 31 13 22 19 26 21 14 2 -9 1 -23 -2 -31z m3052 40 c41 -11 24 -27 -23
-21 -25 4 -47 2 -50 -3 -4 -6 -11 -8 -16 -4 -6 4 -6 11 2 20 12 15 48 18 87 8z
m-2990 -185 c0 -68 -1 -73 -34 -106 -19 -18 -34 -38 -34 -44 0 -5 -19 -31 -43
-57 -53 -57 -107 -150 -107 -185 0 -18 15 -38 55 -72 30 -25 55 -53 55 -61 0
-20 -14 -17 -35 6 -10 11 -27 20 -38 20 -15 0 -18 -5 -13 -22 4 -13 9 -36 11
-53 5 -27 4 -28 -3 -5 -15 43 -42 90 -52 90 -13 0 -13 -22 0 -55 6 -15 12 -50
15 -78 l5 -52 -15 53 c-16 57 -53 114 -70 109 -5 -2 -12 -35 -15 -73 -7 -93
-20 -67 -21 43 -1 48 -6 94 -12 101 -15 19 -46 14 -73 -13 -30 -30 -34 -31
-34 -5 0 22 80 80 110 80 30 0 58 30 65 67 12 66 47 128 75 131 46 6 93 34
148 89 29 30 51 57 49 60 -3 2 -20 -3 -39 -13 l-33 -17 21 24 c45 52 57 80 45
106 -15 32 -13 42 3 20 8 -10 13 -45 14 -88z m2922 41 c0 -5 -2 -10 -4 -10 -3
0 -8 5 -11 10 -3 6 -1 10 4 10 6 0 11 -4 11 -10z m77 -12 c-3 -8 -6 -5 -6 6
-1 11 2 17 5 13 3 -3 4 -12 1 -19z m-4300 -8 c41 -24 60 -63 64 -125 4 -56
-10 -68 -44 -37 -12 11 -39 25 -60 32 -21 7 -41 19 -43 29 -3 9 -10 24 -15 33
-5 10 -9 31 -9 47 0 26 4 30 33 34 17 2 34 5 37 5 3 1 19 -7 37 -18z m4371 8
c-3 -7 -13 -15 -24 -17 -16 -3 -17 -1 -5 13 16 19 34 21 29 4z m62 3 c0 -6 -4
-13 -10 -16 -17 -10 -11 -25 10 -25 24 0 26 -22 5 -40 -12 -10 -18 -10 -30 0
-8 6 -19 9 -24 6 -22 -14 -18 13 6 47 25 36 43 47 43 28z m-3400 -55 c0 -26
-6 -18 -14 19 -5 22 -4 26 4 15 5 -8 10 -24 10 -34z m-455 -21 c-35 -34 -58
-65 -60 -81 -4 -41 -48 -78 -87 -76 -97 8 -93 9 -96 -18 -2 -17 6 -34 22 -49
21 -20 28 -22 41 -11 11 9 13 16 5 24 -14 14 -13 23 5 30 12 4 15 -2 15 -28 0
-28 -6 -38 -35 -55 -19 -11 -43 -34 -54 -51 -20 -34 -59 -66 -68 -56 -3 3 0
12 7 21 10 12 9 16 -4 21 -27 10 -43 -2 -86 -67 -61 -91 -70 -113 -71 -166 -1
-40 -2 -43 -8 -18 -9 43 -34 38 -42 -8 -3 -21 -11 -43 -17 -49 -9 -9 -9 -3 -2
23 16 55 13 71 -12 67 -12 -2 -25 -12 -28 -23 -7 -28 -53 -105 -62 -105 -15 0
-8 25 24 87 33 64 31 98 -2 53 -53 -71 -63 -81 -71 -73 -12 12 17 70 42 83 10
6 19 16 19 22 0 6 7 19 16 29 13 14 21 16 42 8 27 -11 57 -5 48 10 -3 4 -24
11 -46 15 -22 3 -40 11 -40 16 0 6 -9 10 -21 10 -14 0 -19 5 -17 18 5 28 58
27 102 -3 26 -18 42 -23 49 -16 7 7 6 15 -2 25 -11 12 -6 22 27 58 38 40 42
42 65 29 35 -19 59 -9 27 11 -40 25 -77 30 -94 12 -22 -22 -20 -1 3 27 15 19
21 21 33 11 12 -10 21 -6 46 18 18 17 36 30 42 30 5 0 10 13 10 29 0 33 36 68
79 77 160 32 215 65 136 80 -31 5 -41 2 -64 -20 -43 -41 -71 -27 -37 20 12 16
27 19 90 20 43 1 89 8 108 16 85 39 87 36 23 -27z m3351 18 c-2 -15 -9 -29
-16 -31 -9 -3 -11 1 -7 12 4 10 7 24 7 32 0 8 4 14 9 14 5 0 8 -12 7 -27z
m-78 -40 c-12 -13 -25 -23 -30 -23 -15 0 -8 24 14 47 16 17 24 20 29 11 5 -8
-1 -22 -13 -35z m-828 8 c0 -17 -4 -33 -10 -36 -6 -4 -10 8 -10 29 0 20 5 36
10 36 6 0 10 -13 10 -29z m1250 -5 c0 -16 -18 -31 -27 -22 -8 8 5 36 17 36 5
0 10 -6 10 -14z m-3229 -23 c-5 -10 -16 -27 -25 -38 -15 -19 -15 -19 -16 7 0
15 8 31 18 37 26 15 34 13 23 -6z m160 -2 c-10 -18 -50 -31 -103 -34 -25 -2
-25 -1 -11 16 10 10 31 17 52 17 20 0 43 5 51 10 21 14 22 13 11 -9z m2347
-33 c-29 -22 -33 -16 -17 22 13 28 15 29 27 13 11 -15 9 -20 -10 -35z m-3293
-1 c-9 -14 -23 -28 -32 -31 -8 -4 -2 9 13 27 33 39 43 41 19 4z m3915 13 c0
-5 -2 -10 -4 -10 -3 0 -8 5 -11 10 -3 6 -1 10 4 10 6 0 11 -4 11 -10z m-1156
-48 c-9 -43 -21 -32 -16 13 3 22 8 33 13 28 5 -5 6 -24 3 -41z m1275 39 c8 -5
11 -16 6 -31 -7 -22 -7 -22 -21 5 -20 38 -16 45 15 26z m-4097 -73 c-7 -7 -12
-8 -12 -2 0 14 12 26 19 19 2 -3 -1 -11 -7 -17z m3808 -18 c0 -5 -4 -10 -10
-10 -5 0 -10 5 -10 10 0 6 5 10 10 10 6 0 10 -4 10 -10z m370 -57 c57 7 55
-22 -3 -45 -49 -21 -70 -22 -98 -8 -28 16 -40 4 -27 -25 15 -34 7 -39 -30 -18
-25 14 -32 15 -46 4 -17 -15 -21 -42 -7 -56 11 -13 -26 -95 -43 -95 -25 0 -65
59 -72 105 -7 52 -16 61 -37 40 -20 -19 -37 -19 -37 0 0 23 -11 18 -45 -19
-36 -39 -76 -53 -108 -38 -12 6 -30 13 -39 16 -26 8 -22 26 6 26 35 0 78 40
106 99 13 28 27 51 32 51 5 0 25 -7 45 -15 39 -17 109 -20 145 -6 44 16 100
23 93 11 -4 -6 -1 -17 5 -25 29 -34 85 -1 62 36 -21 34 -13 31 23 -7 32 -33
39 -36 75 -31z m-110 22 c0 -8 -4 -15 -9 -15 -5 0 -11 7 -15 15 -3 9 0 15 9
15 8 0 15 -7 15 -15z m-490 -51 c0 -8 -5 -12 -10 -9 -6 4 -8 11 -5 16 9 14 15
11 15 -7z m-3172 -131 c52 -31 61 -59 38 -124 -10 -27 -15 -52 -13 -57 3 -4 2
-14 -2 -21 -6 -10 -19 -5 -54 21 -51 37 -72 75 -63 113 4 15 0 37 -9 55 -9 17
-13 35 -10 40 9 14 64 0 113 -27z m3382 18 c0 -12 -20 -25 -27 -18 -7 7 6 27
18 27 5 0 9 -4 9 -9z m-1712 -186 c-2 -11 -10 -20 -18 -20 -17 0 -25 37 -15
63 6 15 8 15 21 -3 8 -11 13 -29 12 -40z m691 -48 c17 -33 17 -37 2 -36 -28 1
-49 13 -71 42 l-22 27 24 9 c30 11 44 3 67 -42z m-597 -50 c-24 -69 -76 -177
-67 -137 3 14 13 52 22 85 9 33 16 68 15 77 -1 17 37 52 46 43 3 -2 -5 -33
-16 -68z m-279 -76 c-73 -71 -85 -97 -53 -123 12 -10 30 -18 41 -18 26 0 31
-14 14 -46 -13 -24 -15 -68 -13 -249 3 -199 1 -225 -16 -263 -18 -40 -18 -51
-6 -195 7 -83 16 -240 20 -347 4 -107 11 -238 15 -291 8 -93 7 -97 -14 -104
-42 -13 -41 -15 -70 250 -38 342 -44 418 -37 487 l6 68 -29 0 c-44 0 -61 -31
-61 -110 1 -71 13 -201 30 -325 15 -104 38 -358 33 -367 -2 -4 -14 -6 -26 -4
-21 3 -22 7 -29 187 -3 101 -11 209 -18 239 -6 30 -13 107 -16 170 -2 63 -6
143 -9 178 -4 54 -2 62 13 62 10 0 27 7 39 15 18 13 20 22 16 82 -2 38 -11
100 -19 138 -8 39 -15 129 -17 200 -2 128 -2 131 26 172 36 52 33 77 -11 81
-17 2 -32 5 -32 8 0 3 27 30 61 61 60 56 142 95 214 102 6 0 -18 -26 -52 -58z
m144 -34 c-14 -22 -14 -40 -8 -652 0 -33 -4 -127 -10 -210 -6 -82 -8 -190 -5
-240 4 -49 9 -144 11 -210 5 -130 13 -242 20 -263 9 -25 -27 -26 -45 -1 -23
29 -28 74 -40 339 -5 118 -14 289 -20 378 -9 154 -8 166 10 202 18 36 20 57
17 256 -2 193 -1 221 15 251 31 58 19 93 -33 93 -49 0 -42 19 28 86 l68 66 3
-37 c2 -20 -3 -46 -11 -58z m-633 51 c6 -32 3 -91 -10 -275 -5 -63 -3 -106 6
-140 14 -48 17 -135 25 -608 3 -143 6 -324 8 -402 3 -124 1 -143 -12 -143 -28
0 -115 -46 -140 -74 -19 -20 -34 -26 -68 -26 -46 0 -53 11 -29 45 8 13 16 68
21 150 5 72 9 135 10 140 1 6 3 14 3 19 1 6 8 1 16 -10 12 -15 17 -16 27 -7 9
9 12 67 10 215 -1 145 2 198 9 186 6 -10 13 -59 16 -110 18 -324 20 -334 60
-326 27 5 35 52 28 165 -5 76 -11 103 -21 108 -12 4 -14 28 -12 137 3 112 2
133 -11 136 -13 2 -15 40 -14 275 0 266 6 351 25 363 5 3 9 28 9 57 0 55 20
157 31 157 4 0 9 -15 13 -32z m101 -21 c11 -124 45 -230 79 -243 14 -5 25 -82
32 -228 2 -43 11 -100 19 -127 9 -26 15 -69 13 -96 -3 -44 -6 -49 -39 -65
l-37 -17 4 -138 c3 -76 11 -183 19 -238 20 -144 26 -216 29 -340 1 -60 6 -118
10 -127 7 -16 2 -18 -53 -18 -77 0 -76 0 -74 30 2 14 2 97 1 185 -1 88 -1 180
-1 205 3 162 2 346 -3 410 -3 41 -7 134 -8 205 -1 72 -8 165 -15 208 -9 57 -9
97 -2 153 6 41 11 121 11 176 0 56 3 98 7 95 3 -4 7 -17 8 -30z m706 -24 c-8
-15 -10 -15 -11 -2 0 17 10 32 18 25 2 -3 -1 -13 -7 -23z m198 20 c0 -5 -4
-17 -9 -28 -8 -18 -9 -17 -9 8 -1 15 4 27 9 27 6 0 10 -3 9 -7z m151 -38 c0
-14 -2 -25 -4 -25 -2 0 -6 11 -8 25 -3 14 -1 25 3 25 5 0 9 -11 9 -25z m-447
-75 c3 -11 1 -18 -4 -14 -5 3 -9 12 -9 20 0 20 7 17 13 -6z m-913 -60 c0 -20
-11 -40 -35 -64 -19 -20 -35 -43 -35 -52 0 -10 -3 -15 -6 -11 -12 11 18 78 42
94 14 9 24 25 24 39 0 13 2 24 5 24 3 0 5 -13 5 -30z m2157 -12 c-3 -8 -6 -5
-6 6 -1 11 2 17 5 13 3 -3 4 -12 1 -19z m-2092 -44 c2 -16 1 -45 -2 -64 -5
-29 -7 -32 -14 -15 -12 32 -11 131 2 118 6 -6 12 -23 14 -39z m851 4 c-2 -24
-5 -58 -5 -76 -1 -19 -5 -31 -11 -27 -9 5 -6 64 6 123 8 38 15 24 10 -20z
m369 -5 c45 -4 64 -10 77 -27 23 -28 23 -43 0 -23 -31 28 -142 18 -142 -12 0
-23 20 -41 45 -41 29 0 51 -53 60 -140 4 -36 9 -245 11 -464 3 -386 4 -401 24
-420 l20 -20 22 22 c17 16 22 33 21 65 0 23 -3 200 -6 392 -2 193 -8 365 -12
383 -4 17 -4 32 1 32 5 0 19 3 31 6 21 6 21 3 24 -98 4 -129 3 -359 -2 -593
-2 -99 0 -197 4 -217 7 -36 6 -38 -27 -52 -38 -16 -47 -41 -43 -126 2 -42 0
-45 -26 -48 -18 -2 -29 2 -33 12 -8 21 -22 20 -67 -4 -20 -11 -41 -20 -45 -20
-4 0 -18 21 -30 46 -21 43 -22 58 -23 307 0 144 4 282 9 307 4 25 5 83 1 130
-5 53 -4 106 3 143 6 33 8 88 4 130 -4 39 -9 112 -11 160 -2 64 -9 98 -24 128
-31 58 -28 63 27 55 26 -4 74 -10 107 -13z m846 -52 c-22 -16 -138 -38 -148
-27 -3 2 27 9 66 16 39 6 73 16 77 21 3 5 11 9 17 9 7 0 1 -9 -12 -19z m-1099
-226 c1 -38 1 -117 0 -175 -3 -99 4 -183 28 -323 11 -65 13 -89 25 -415 l8
-204 -29 4 c-28 3 -29 5 -30 53 0 28 -4 111 -8 185 -4 74 -9 230 -11 345 -1
116 -7 257 -14 315 -14 132 -23 388 -14 403 11 18 42 -113 45 -188z m1119 166
c-12 -16 -26 -29 -33 -28 -35 1 -47 -5 -55 -30 -15 -45 -5 -470 12 -521 8 -23
15 -50 15 -59 0 -9 4 -30 10 -47 5 -17 16 -76 25 -131 8 -55 22 -136 30 -180
18 -102 20 -254 3 -260 -38 -13 -52 -9 -58 15 -3 15 -15 26 -30 30 -19 4 -26
13 -28 38 -2 24 -10 36 -28 42 -23 9 -24 12 -17 67 8 55 9 595 2 733 -2 36 5
103 14 150 9 47 18 101 20 120 2 31 7 36 41 48 21 6 47 19 59 27 33 23 40 18
18 -14z m-756 -11 c3 -5 1 -10 -4 -10 -6 0 -11 5 -11 10 0 6 2 10 4 10 3 0 8
-4 11 -10z m425 -72 c0 -214 7 -387 18 -418 18 -52 23 -125 12 -176 -19 -83
-32 -521 -17 -561 8 -21 6 -23 -30 -23 l-39 0 -1 213 c-2 623 -8 844 -22 861
-17 20 -41 4 -34 -23 3 -10 -1 -22 -7 -26 -9 -6 -11 18 -6 96 3 57 6 105 6
106 0 2 57 9 93 11 27 2 28 2 27 -60z m380 -88 c0 -41 7 -93 14 -115 12 -34
20 -41 54 -50 49 -12 72 -31 72 -59 0 -12 7 -31 15 -43 11 -16 15 -44 14 -101
-3 -91 3 -105 34 -93 31 12 58 -1 95 -43 30 -35 36 -47 33 -72 -1 -6 8 -19 19
-29 25 -22 26 -48 3 -43 -16 3 -21 14 -42 88 -10 39 -36 32 -36 -11 0 -20 -6
-43 -13 -51 -11 -14 -10 -17 10 -24 51 -16 96 -53 103 -84 8 -37 27 -47 61
-31 22 10 26 8 35 -16 5 -14 8 -63 7 -107 -3 -80 -3 -81 -18 -50 -8 16 -31 49
-52 73 -29 34 -42 42 -65 39 -24 -3 -28 -7 -26 -32 1 -16 11 -39 23 -51 11
-12 20 -26 20 -32 0 -6 8 -21 18 -34 11 -13 22 -35 25 -49 5 -22 1 -20 -30 15
-73 82 -87 112 -88 184 -1 49 -7 75 -23 101 -12 19 -22 43 -22 53 0 11 -9 32
-21 48 -18 26 -25 28 -58 23 -36 -6 -38 -4 -55 34 -11 24 -15 48 -11 62 l7 22
15 -21 c17 -25 36 -27 53 -6 9 11 8 19 -4 37 -12 16 -16 46 -16 109 0 65 -4
90 -15 99 -8 7 -15 23 -15 37 0 13 -6 25 -12 27 -7 2 -31 8 -52 12 -36 8 -41
14 -57 59 -13 37 -17 80 -17 165 0 87 2 105 9 75 4 -22 8 -74 9 -115z m-557
68 c2 -40 2 -208 -1 -373 -2 -165 -5 -345 -6 -401 0 -56 -6 -107 -12 -115 -24
-31 -34 -81 -24 -123 5 -22 9 -50 7 -61 -2 -16 3 -20 26 -18 47 3 60 21 52 68
-4 22 -7 51 -8 65 -1 50 13 333 17 337 19 20 23 -511 4 -535 -8 -9 -32 -12
-76 -10 l-64 3 -5 50 c-2 28 -6 259 -8 515 -4 660 -4 653 1 662 3 4 25 8 49 8
l43 0 5 -72z m-733 -25 c0 -41 -3 -54 -11 -46 -10 10 -3 103 7 103 2 0 4 -26
4 -57z m1026 -33 c-6 -36 -10 -135 -9 -220 2 -149 2 -153 -13 -115 -11 29 -15
72 -13 155 3 202 5 230 23 259 18 28 24 -13 12 -79z m-1871 -121 c2 -112 1
-171 -5 -150 -9 38 -14 348 -5 339 4 -3 8 -89 10 -189z m-304 104 c-15 -28
-40 -59 -41 -50 0 16 31 67 41 67 6 0 6 -6 0 -17z m1165 -119 c12 -17 13 -28
5 -42 -7 -14 -7 -46 -1 -103 9 -72 22 -613 20 -778 -1 -53 -5 -70 -15 -60 -15
16 -41 442 -38 624 1 66 4 199 5 295 2 96 4 155 6 131 2 -24 10 -54 18 -67z
m-1175 35 c-12 -19 -21 -30 -21 -26 0 14 31 69 36 64 3 -3 -4 -20 -15 -38z
m249 -164 l3 -100 -35 -1 c-19 -1 -41 -5 -48 -9 -10 -6 -12 -3 -6 10 4 11 9
40 12 65 3 25 17 85 32 133 l27 89 6 -44 c4 -23 8 -88 9 -143z m2160 19 c0
-63 23 -122 58 -150 l26 -21 -17 -44 c-21 -55 -21 -82 -2 -119 18 -36 61 -216
69 -295 6 -56 5 -61 -18 -71 -23 -11 -24 -9 -30 40 -3 28 -13 87 -21 131 -8
44 -20 112 -26 150 -6 39 -18 103 -26 143 -9 40 -13 75 -10 79 4 3 -1 15 -10
25 -13 14 -18 41 -20 101 -2 45 -4 89 -4 97 -1 8 -1 33 0 55 l3 40 13 -55 c8
-30 14 -78 15 -106z m-453 -87 c-2 -23 -3 -1 -3 48 0 50 1 68 3 42 2 -26 2
-67 0 -90z m576 68 c11 -53 18 -124 11 -105 -4 8 -13 21 -22 28 -17 13 -41 91
-34 111 9 26 37 5 45 -34z m-2719 -111 c3 -9 3 -20 0 -25 -3 -6 -2 -18 2 -27
4 -9 6 -27 5 -39 -1 -11 3 -24 8 -28 6 -3 11 -13 11 -21 0 -8 -5 -12 -10 -9
-6 4 -18 4 -26 1 -13 -5 -14 -9 -1 -33 9 -16 20 -76 26 -134 13 -119 5 -155
-36 -165 -16 -4 -26 -17 -33 -45 -12 -45 -48 -122 -75 -163 -20 -30 -105 -76
-142 -76 -44 0 -37 26 30 111 16 20 32 54 37 75 5 22 13 65 20 97 10 50 15 59
43 71 18 7 37 19 43 27 12 16 37 241 35 311 -1 26 3 57 9 68 13 24 45 26 54 4z
m194 -68 c-6 -70 16 -121 52 -121 27 0 34 12 72 113 21 57 23 61 28 35 3 -15
14 -44 24 -63 17 -32 18 -53 13 -304 -5 -261 -5 -270 -26 -286 -12 -9 -28 -27
-34 -40 -9 -19 -22 -26 -50 -28 -20 -2 -37 -1 -37 1 0 2 8 19 17 38 13 25 17
54 15 110 -2 63 0 79 18 101 13 17 20 41 20 70 0 64 18 158 37 196 29 57 -16
70 -49 14 -19 -32 -53 -196 -44 -211 4 -6 -5 -35 -19 -64 -15 -33 -25 -72 -25
-99 0 -55 -26 -134 -47 -142 -26 -10 -121 -19 -138 -12 -15 5 -14 9 6 37 12
17 27 49 34 72 12 42 19 48 70 64 l30 9 0 84 c0 47 4 90 8 96 4 7 0 17 -8 24
-11 10 -19 7 -38 -14 -21 -22 -26 -24 -31 -10 -10 26 -7 44 9 44 26 0 39 43
40 133 1 52 6 92 13 99 7 7 12 22 12 34 0 27 17 74 26 74 4 0 4 -24 2 -54z
m1947 -26 c-4 -39 -9 -69 -12 -67 -2 3 -1 37 3 76 3 40 9 70 11 67 3 -3 2 -37
-2 -76z m-1686 -17 c1 -7 -3 -13 -9 -13 -5 0 -10 17 -9 38 1 33 2 34 9 12 4
-14 8 -31 9 -37z m3266 -24 c5 -6 5 -13 -2 -20 -8 -8 -13 -8 -17 0 -4 6 -20
11 -36 11 -29 0 -45 12 -33 24 8 8 75 -3 88 -15z m-3638 -66 c-3 -10 -5 -4 -5
12 0 17 2 24 5 18 2 -7 2 -21 0 -30z m370 15 c-3 -8 -6 -5 -6 6 -1 11 2 17 5
13 3 -3 4 -12 1 -19z m3210 12 c35 0 26 -6 -19 -13 -30 -5 -38 -3 -38 10 0 10
6 13 16 9 9 -3 27 -6 41 -6z m-1298 -132 c0 -62 -4 -142 -8 -178 -5 -45 -7
-10 -5 110 3 192 2 180 8 180 2 0 4 -51 5 -112z m1331 83 c82 -9 51 -20 -64
-24 -53 -1 -81 -6 -84 -14 -5 -17 27 -28 47 -17 9 5 61 7 116 3 55 -3 98 -6
95 -8 -3 -1 -34 -4 -70 -6 -88 -6 -110 -13 -110 -31 0 -13 15 -15 100 -13 55
2 103 0 106 -4 4 -4 -17 -7 -47 -8 -155 -2 -217 -34 -79 -41 90 -4 116 -20
101 -61 -7 -19 -17 -22 -67 -25 -32 -1 -70 -5 -83 -8 l-24 -5 7 -113 c6 -98 5
-114 -9 -120 -23 -8 -26 9 -23 125 l3 104 -49 -3 c-72 -5 -87 -15 -79 -55 l5
-32 -22 22 c-48 45 -5 90 98 100 64 7 64 25 -1 35 -56 8 -67 14 -67 37 0 26
23 42 70 48 41 6 50 25 14 31 -56 8 -64 13 -64 36 0 13 6 28 13 33 20 17 71
32 87 26 8 -3 44 -9 80 -12z m-3249 -61 c-9 -24 -10 -24 -10 7 -1 17 2 40 7
50 6 15 7 14 10 -7 2 -14 -2 -37 -7 -50z m2750 -10 c1 -36 0 -71 -2 -78 -2 -6
7 -18 21 -25 21 -11 26 -22 33 -77 9 -71 30 -103 83 -126 44 -18 116 -104 89
-104 -3 0 -23 18 -44 40 -21 22 -46 40 -57 40 -31 0 -74 64 -86 128 -15 80
-16 82 -33 82 -10 0 -15 -10 -15 -32 -1 -30 -3 -27 -20 22 -11 30 -19 56 -20
58 0 1 7 2 15 2 21 0 19 24 -5 45 -19 17 -53 17 -92 0 -14 -5 -18 -2 -18 13 0
15 9 21 38 26 24 3 49 17 67 36 16 17 32 27 37 22 4 -4 8 -36 9 -72z m-356
-100 c4 -12 4 -39 0 -61 -6 -33 -2 -48 26 -97 17 -31 51 -79 75 -106 24 -26
44 -52 44 -57 0 -6 -42 -8 -97 -7 l-98 3 -3 28 c-2 19 1 27 12 27 22 0 46 29
46 56 0 13 -11 41 -23 62 -24 37 -26 63 -12 135 8 41 20 48 30 17z m-2733 -82
c5 -48 -5 -68 -33 -68 -23 0 -54 -47 -73 -112 -21 -68 -53 -108 -88 -108 l-29
0 46 66 c25 37 53 89 63 116 9 28 28 58 43 69 15 10 32 32 39 49 17 41 27 38
32 -12z m3142 -143 c29 -28 49 -40 70 -40 16 0 31 -6 34 -14 4 -11 -4 -13 -42
-8 -59 8 -86 23 -86 46 0 10 -7 24 -15 31 -8 7 -15 22 -14 34 0 14 2 16 6 6 3
-8 24 -33 47 -55z m-893 -100 c-8 -16 -22 78 -14 95 4 9 9 -5 13 -35 3 -27 3
-54 1 -60z m779 64 c0 -6 -4 -7 -10 -4 -5 3 -10 11 -10 16 0 6 5 7 10 4 6 -3
10 -11 10 -16z m-430 -40 c0 -18 -4 -28 -10 -24 -5 3 -10 20 -10 36 0 18 4 28
10 24 6 -3 10 -20 10 -36z m370 -4 c7 -8 8 -15 2 -15 -5 0 -15 7 -22 15 -7 8
-8 15 -2 15 5 0 15 -7 22 -15z"/>
<path d="M2173 8589 c-24 -25 -15 -39 26 -39 32 0 44 -6 75 -40 20 -22 36 -43
36 -46 0 -3 -18 -27 -41 -52 -30 -35 -50 -48 -77 -52 -40 -6 -48 -18 -30 -42
12 -15 54 -17 408 -20 l395 -3 3 23 c3 19 -1 22 -32 22 l-36 0 0 100 0 100 29
0 c36 0 46 13 24 31 -13 11 -78 14 -302 16 -157 1 -326 5 -376 8 -66 5 -93 3
-102 -6z m211 -48 c3 -5 -1 -15 -10 -22 -17 -14 -44 -4 -52 19 -4 14 54 17 62
3z m190 -91 c24 -52 42 -98 39 -102 -2 -5 -35 -8 -73 -8 -62 0 -71 2 -81 23
-7 12 -25 38 -41 57 -15 19 -28 39 -28 44 0 6 17 27 37 49 31 31 44 37 71 35
31 -3 35 -8 76 -98z m151 85 c-1 -19 -60 -115 -71 -115 -9 0 -54 102 -54 121
0 2 28 4 63 4 34 0 62 -5 62 -10z m103 -8 c7 -8 9 -42 4 -97 l-7 -85 -67 -3
c-41 -2 -68 1 -68 7 0 10 56 119 87 169 15 25 35 28 51 9z m-461 -139 c33 -31
29 -38 -22 -38 -49 0 -56 11 -28 42 20 23 22 23 50 -4z"/>
<path d="M2350 8036 c0 -15 41 -76 51 -76 18 0 8 27 -21 55 -16 16 -30 25 -30
21z"/>
<path d="M2860 7350 c0 -5 5 -10 11 -10 5 0 7 5 4 10 -3 6 -8 10 -11 10 -2 0
-4 -4 -4 -10z"/>
<path d="M1567 7473 c-12 -11 -8 -23 8 -23 8 0 15 7 15 15 0 16 -12 20 -23 8z"/>
<path d="M1803 7313 c9 -2 25 -2 35 0 9 3 1 5 -18 5 -19 0 -27 -2 -17 -5z"/>
<path d="M2041 7150 c-34 -55 -27 -67 12 -20 28 33 42 37 50 16 10 -24 76 -69
93 -62 12 5 6 15 -30 51 -25 24 -46 49 -46 55 0 5 -11 10 -24 10 -18 0 -32
-12 -55 -50z"/>
<path d="M3535 7010 c-3 -5 -1 -10 4 -10 6 0 11 5 11 10 0 6 -2 10 -4 10 -3 0
-8 -4 -11 -10z"/>
<path d="M2367 7012 c-10 -10 -17 -29 -17 -42 0 -28 -99 -127 -141 -142 -47
-16 -59 -69 -65 -293 -5 -192 -5 -201 15 -219 15 -14 19 -26 14 -48 -7 -36 11
-52 41 -36 12 6 57 12 101 14 44 1 94 4 110 8 17 3 42 1 56 -5 17 -7 34 -7 54
1 28 11 28 11 22 79 -8 97 -4 108 43 108 50 0 81 25 137 110 53 81 76 133 71
165 -5 35 -35 33 -78 -6 -44 -40 -84 -54 -104 -37 -18 15 -27 49 -15 57 14 8
11 40 -8 79 -20 42 -44 45 -104 14 -23 -11 -44 -18 -47 -14 -3 3 -5 27 -3 54
1 27 -2 52 -8 56 -6 3 -11 19 -11 35 0 40 -17 80 -33 80 -8 0 -21 -8 -30 -18z
m43 -53 c0 -20 -56 -86 -66 -76 -6 6 48 96 59 97 4 0 7 -9 7 -21z m5 -134 c0
-49 4 -70 14 -73 7 -2 40 8 72 23 48 24 61 26 74 15 23 -19 19 -26 -26 -39
-29 -9 -39 -17 -37 -29 2 -11 11 -16 25 -14 27 4 37 -12 18 -28 -30 -25 -18
-40 33 -38 26 0 65 0 86 -2 33 -3 43 1 68 29 16 17 33 29 38 26 11 -7 -37 -79
-79 -119 -17 -17 -31 -35 -31 -40 0 -20 -16 -35 -52 -50 -34 -15 -38 -14 -60
4 l-23 19 28 1 c32 0 84 27 91 46 3 8 -1 11 -10 7 -9 -3 -14 1 -14 15 0 16 -5
18 -27 14 -16 -2 -33 -9 -40 -14 -13 -10 -65 0 -75 15 -3 6 -4 24 -2 41 6 39
-10 66 -28 48 -17 -17 -28 -15 -28 7 0 10 -7 22 -16 25 -9 3 -14 13 -10 21 3
8 1 17 -4 20 -16 10 -13 148 3 142 8 -2 12 -26 12 -72z m79 -304 c-7 -7 -44
31 -44 46 0 8 10 2 24 -14 13 -15 22 -30 20 -32z"/>
<path d="M2013 6158 c-13 -17 -82 -174 -95 -217 -7 -26 -6 -44 7 -78 17 -43
17 -45 -3 -59 -48 -33 -31 -129 26 -153 16 -7 33 -22 36 -34 9 -35 7 -158 -5
-246 -8 -61 -8 -86 0 -94 6 -6 11 -27 11 -47 0 -53 13 -60 111 -60 48 0 91 -4
94 -10 10 -17 21 -12 68 33 l45 43 -4 70 c-1 38 -6 83 -10 99 -4 17 -7 99 -8
183 -1 173 -3 177 -68 155 -54 -18 -70 -5 -61 50 5 36 6 37 20 17 18 -25 33
-17 33 17 0 15 14 41 34 64 36 39 53 91 42 132 -6 24 -52 77 -67 77 -5 0 -17
-17 -28 -37 -10 -21 -28 -46 -39 -56 -11 -10 -26 -32 -33 -48 -13 -34 -29 -23
-29 21 0 13 -6 42 -14 65 -8 22 -18 58 -22 79 -10 42 -25 55 -41 34z m31 -177
c1 -66 5 -104 14 -113 17 -17 15 -28 -6 -28 -35 0 -42 21 -42 126 0 110 6 142
23 125 6 -6 11 -55 11 -110z m206 0 c0 -28 -9 -45 -36 -74 -41 -43 -53 -43
-30 2 19 36 21 50 4 33 -7 -7 -16 -12 -20 -12 -14 0 -9 28 9 46 16 15 17 15
24 -2 5 -12 8 -2 8 30 1 48 1 49 21 31 13 -12 20 -31 20 -54z m-275 -211 c3
-5 -3 -10 -14 -10 -12 0 -21 5 -21 10 0 6 6 10 14 10 8 0 18 -4 21 -10z"/>
<path d="M3106 3594 c-8 -22 -6 -95 3 -119 5 -11 4 -33 -2 -48 -11 -33 4 -77
27 -77 8 0 19 15 25 33 11 36 10 195 -2 215 -11 17 -44 15 -51 -4z"/>
<path d="M1042 4964 c2 -11 11 -20 22 -22 13 -3 17 1 14 14 -2 11 -11 20 -22
22 -13 3 -17 -1 -14 -14z"/>
<path d="M1010 4896 c0 -9 7 -16 16 -16 9 0 14 5 12 12 -6 18 -28 21 -28 4z"/>
<path d="M1520 4520 c0 -5 5 -10 10 -10 6 0 10 5 10 10 0 6 -4 10 -10 10 -5 0
-10 -4 -10 -10z"/>
<path d="M1462 4253 c-19 -43 -43 -70 -49 -55 -8 22 -24 13 -17 -12 4 -17 -1
-28 -20 -44 -33 -26 -33 -36 3 -61 35 -25 45 -16 55 46 3 24 20 63 37 87 17
24 28 49 25 55 -11 17 -20 13 -34 -16z"/>
<path d="M3568 4356 c-10 -7 -18 -20 -18 -29 0 -20 49 -47 85 -47 15 0 60 -15
99 -34 70 -34 238 -72 258 -60 15 9 -13 35 -31 29 -10 -3 -26 2 -37 10 -10 8
-29 15 -42 15 -12 0 -25 8 -29 18 -14 39 -35 52 -87 52 -56 0 -107 15 -146 43
-29 20 -30 20 -52 3z"/>
<path d="M4511 3401 c-7 -5 -10 -14 -6 -20 5 -9 10 -9 21 0 26 22 14 38 -15
20z"/>
<path d="M625 3550 c-22 -24 -13 -65 18 -84 15 -9 23 -6 43 17 29 34 31 63 5
77 -29 15 -46 12 -66 -10z"/>
<path d="M688 3379 c-24 -13 -23 -42 2 -64 36 -33 83 13 54 53 -17 24 -30 27
-56 11z"/>
<path d="M3830 3305 c-15 -18 -14 -20 22 -29 31 -7 45 8 28 29 -16 19 -34 19
-50 0z"/>
<path d="M3782 3228 c-21 -21 -13 -28 32 -28 41 0 67 12 49 23 -23 13 -70 16
-81 5z"/>
<path d="M552 2898 c6 -18 28 -21 28 -4 0 9 -7 16 -16 16 -9 0 -14 -5 -12 -12z"/>
<path d="M395 2766 c-19 -14 -19 -16 -2 -33 16 -17 19 -17 52 1 39 21 45 36
16 36 -11 0 -25 2 -33 5 -7 3 -22 -1 -33 -9z"/>
<path d="M4040 2795 c-10 -12 -10 -18 0 -30 15 -18 33 -19 77 -3 33 12 40 33
10 33 -8 0 -19 4 -23 8 -13 12 -51 8 -64 -8z"/>
<path d="M4209 2782 c-19 -16 -19 -19 -6 -31 21 -17 57 -5 57 19 0 26 -25 32
-51 12z"/>
<path d="M4276 2791 c-8 -12 21 -34 33 -27 6 4 8 13 4 21 -6 17 -29 20 -37 6z"/>
<path d="M4430 2780 c0 -5 5 -10 10 -10 6 0 10 5 10 10 0 6 -4 10 -10 10 -5 0
-10 -4 -10 -10z"/>
<path d="M4013 2728 c2 -7 10 -13 17 -13 7 0 15 6 18 13 2 7 -5 12 -18 12 -13
0 -20 -5 -17 -12z"/>
<path d="M4230 2704 c0 -8 5 -12 10 -9 6 3 10 10 10 16 0 5 -4 9 -10 9 -5 0
-10 -7 -10 -16z"/>
<path d="M3980 2690 c0 -5 5 -10 10 -10 6 0 10 5 10 10 0 6 -4 10 -10 10 -5 0
-10 -4 -10 -10z"/>
<path d="M4235 2659 c-10 -15 3 -25 16 -12 7 7 7 13 1 17 -6 3 -14 1 -17 -5z"/>
<path d="M4225 2601 c-3 -5 -1 -12 5 -16 12 -7 30 2 30 16 0 12 -27 12 -35 0z"/>
<path d="M3930 1292 c0 -13 50 -45 58 -37 11 10 -14 40 -37 43 -11 2 -21 -1
-21 -6z"/>
<path d="M4632 1048 c-19 -19 -14 -28 16 -28 34 0 57 14 48 29 -9 15 -49 14
-64 -1z"/>
<path d="M4727 994 c-4 -4 -7 -14 -7 -21 0 -11 17 -13 78 -11 60 2 77 6 77 18
0 12 -16 16 -70 18 -39 1 -74 0 -78 -4z"/>
<path d="M1238 8561 c-62 -32 -108 -62 -108 -72 0 -23 33 -21 51 2 16 21 18
22 24 6 10 -24 52 -22 66 5 11 20 12 20 21 4 7 -13 17 -16 35 -11 14 3 31 1
40 -7 12 -10 18 -9 29 7 13 17 15 17 49 -18 38 -39 73 -51 57 -19 -5 9 -7 22
-5 29 2 6 -1 14 -6 18 -18 11 -12 23 12 27 14 2 22 10 22 22 0 18 -9 20 -125
23 -107 2 -130 0 -162 -16z"/>
<path d="M1070 8468 c-50 -34 -50 -53 -1 -27 23 11 41 27 41 35 0 18 -1 18
-40 -8z"/>
<path d="M1224 8380 c-100 -9 -193 -44 -219 -83 -24 -39 -29 -93 -10 -139 48
-123 150 -258 194 -258 10 0 24 -7 31 -15 9 -11 16 -13 23 -6 7 7 -2 23 -26
48 -43 44 -46 66 -12 89 30 19 32 34 6 34 -10 0 -21 7 -25 15 -3 8 -17 15 -31
15 -14 0 -24 5 -22 12 1 6 -10 18 -25 25 -16 8 -28 22 -28 31 -1 24 -22 49
-45 53 -23 5 -34 39 -12 39 8 0 20 -7 27 -15 7 -8 17 -12 22 -9 16 10 60 12
89 4 17 -5 31 -4 38 3 8 8 15 6 25 -8 7 -11 20 -16 29 -12 9 3 18 -1 21 -9 3
-9 10 -12 16 -9 15 10 12 36 -7 50 -9 7 -13 17 -9 23 12 20 42 13 56 -14 12
-21 19 -24 40 -18 14 4 33 6 43 6 21 -1 20 -2 2 34 -8 17 -12 47 -10 70 3 41
3 42 -33 48 -20 3 -41 5 -47 4 -5 0 -51 -4 -101 -8z m-64 -395 c0 -8 -4 -15
-10 -15 -5 0 -10 7 -10 15 0 8 5 15 10 15 6 0 10 -7 10 -15z"/>
<path d="M920 8032 c0 -5 7 -16 16 -23 14 -12 16 -11 13 5 -4 20 -29 35 -29
18z"/>
<path d="M940 7978 c1 -7 7 -38 14 -69 23 -97 120 -259 133 -223 2 7 24 9 58
6 37 -3 55 -1 55 7 0 6 -11 11 -25 11 -16 0 -25 6 -25 15 0 8 -4 15 -10 15 -5
0 -7 13 -3 30 5 26 2 30 -15 30 -14 0 -22 8 -24 23 -2 16 -11 23 -30 25 -24 3
-28 8 -28 33 0 16 -6 30 -12 31 -7 0 -20 2 -28 2 -10 1 -14 10 -12 28 2 18 -3
30 -17 37 -25 14 -31 14 -31 -1z"/>
<path d="M4154 506 c-8 -20 -9 -96 -5 -229 3 -83 1 -100 -14 -117 -21 -23 -19
-23 55 -20 61 2 85 15 58 31 -14 8 -18 23 -18 70 0 89 15 87 110 -14 72 -76
84 -85 122 -90 42 -4 88 13 88 32 0 5 -16 11 -36 14 -39 7 -110 60 -145 108
l-21 30 24 27 c66 72 76 120 31 149 -39 26 -240 33 -249 9z m174 -38 c17 -17
15 -45 -5 -79 -20 -34 -28 -38 -70 -32 -32 5 -33 7 -33 52 0 56 12 71 60 71
20 0 41 -5 48 -12z"/>
<path d="M3573 495 c-3 -9 2 -21 10 -28 15 -11 14 -17 -6 -67 -12 -30 -27 -55
-32 -54 -6 0 -25 29 -43 63 -38 71 -68 95 -106 85 -21 -5 -35 -24 -67 -91 -22
-47 -44 -81 -49 -77 -5 5 -18 34 -29 63 -19 51 -19 56 -4 73 9 10 13 21 10 24
-9 9 -161 9 -175 0 -18 -11 -2 -38 19 -33 22 6 31 -4 54 -68 10 -27 38 -89 62
-137 37 -76 41 -91 31 -108 -20 -31 -1 -40 69 -31 35 4 65 10 69 13 3 4 -13
25 -35 47 -23 23 -41 50 -41 61 0 21 80 169 92 170 7 0 37 -48 83 -132 24 -45
24 -50 11 -82 -8 -19 -24 -37 -35 -41 -12 -3 -21 -13 -21 -21 0 -11 15 -14 59
-14 64 0 86 14 56 36 -17 13 -17 16 -2 61 36 107 102 246 119 251 10 2 18 11
18 18 0 31 -106 47 -117 19z"/>
<path d="M3795 502 c-42 -5 -52 -18 -32 -40 13 -15 18 -48 24 -156 l6 -137
-31 -11 c-74 -28 -20 -37 153 -24 66 4 125 13 132 18 7 5 11 27 10 49 -1 30
-5 39 -19 39 -10 0 -23 -11 -29 -24 -12 -25 -35 -36 -82 -36 -31 0 -47 28 -47
85 0 43 18 55 41 27 22 -27 36 -28 44 -2 9 27 -4 80 -19 80 -6 0 -20 -9 -29
-21 -15 -16 -21 -18 -33 -9 -16 14 -19 86 -5 109 11 17 114 19 134 3 18 -15
27 -5 27 30 l0 28 -107 -2 c-60 -1 -121 -4 -138 -6z"/>
<path d="M2300 472 c-68 -1 -129 -7 -134 -12 -13 -13 -9 -80 6 -97 18 -22 36
-15 43 16 5 25 12 30 47 36 64 11 70 -4 64 -153 -3 -68 -10 -129 -15 -136 -17
-20 -2 -26 65 -26 68 0 89 14 58 37 -17 12 -19 27 -17 145 1 72 5 134 10 139
4 4 29 5 56 2 35 -4 47 -10 47 -22 0 -10 6 -25 13 -36 13 -17 15 -17 30 6 10
13 17 40 17 61 l0 37 -52 4 c-29 3 -66 4 -83 3 -16 0 -86 -2 -155 -4z"/>
<path d="M2780 469 c-80 -22 -133 -132 -110 -228 13 -57 35 -83 92 -112 34
-17 54 -20 105 -16 82 6 122 30 153 92 37 75 34 146 -7 206 -23 33 -42 49 -71
57 -46 14 -112 14 -162 1z m126 -50 c16 -17 20 -40 22 -128 3 -92 1 -109 -14
-122 -18 -15 -107 -20 -121 -6 -4 5 -7 63 -7 130 2 104 4 122 20 134 27 20 78
16 100 -8z"/>
<path d="M1257 453 c-9 -8 12 -33 28 -33 14 0 25 -30 25 -68 0 -32 -41 -45
-115 -37 -33 3 -66 9 -72 13 -7 4 -13 30 -15 57 l-3 50 -55 7 c-65 8 -74 4
-56 -25 20 -32 28 -279 10 -305 -7 -11 -10 -22 -7 -26 3 -3 42 -6 85 -6 63 0
78 3 78 15 0 8 -9 15 -19 15 -16 0 -21 9 -26 43 -4 24 -5 56 -3 73 l3 29 80 3
c55 2 86 -1 98 -10 26 -19 33 -87 13 -125 -8 -17 -12 -33 -9 -37 10 -9 101 -7
107 3 3 4 1 23 -4 42 -12 40 -15 239 -5 293 l7 36 -69 0 c-38 0 -73 -3 -76 -7z"/>
<path d="M1447 441 c-9 -10 -5 -18 17 -36 27 -22 28 -25 28 -126 1 -78 -3
-112 -15 -136 -28 -52 -15 -64 62 -59 36 3 98 5 138 5 83 1 103 14 103 66 0
53 -36 59 -58 9 -10 -21 -18 -24 -71 -24 -63 0 -71 6 -71 58 0 36 10 49 43 57
23 6 27 4 27 -13 0 -12 4 -23 8 -26 17 -10 29 11 34 61 5 58 -11 77 -35 43 -8
-11 -28 -23 -45 -26 -31 -6 -32 -6 -32 30 0 54 29 78 88 74 38 -2 47 0 50 15
8 40 -13 47 -140 44 -87 -1 -123 -6 -131 -16z"/>
<path d="M643 440 c-83 -3 -154 -8 -158 -12 -3 -3 -1 -24 6 -47 13 -44 43 -56
54 -22 4 13 19 21 51 26 25 3 49 4 52 0 4 -4 8 -67 10 -140 4 -127 3 -134 -17
-147 -12 -7 -21 -16 -21 -20 0 -12 89 -10 133 3 37 10 38 11 22 29 -13 14 -18
46 -22 139 -6 141 -2 151 63 151 39 0 45 -3 60 -32 22 -43 21 -43 39 -28 18
15 20 89 3 95 -23 8 -121 10 -275 5z"/>
<path d="M4648 219 c-22 -12 -23 -42 -3 -59 18 -15 62 0 71 25 13 34 -31 56
-68 34z"/>
</g>
</svg>
