<?xml version="1.0" standalone="no"?>
<!DOCTYPE svg PUBLIC "-//W3C//DTD SVG 20010904//EN"
 "http://www.w3.org/TR/2001/REC-SVG-20010904/DTD/svg10.dtd">
<svg version="1.0" xmlns="http://www.w3.org/2000/svg"
 width="500.000000pt" height="878.000000pt" viewBox="0 0 500.000000 878.000000"
 preserveAspectRatio="xMidYMid meet">
<metadata>
Created by potrace 1.15, written by Peter Selinger 2001-2017
</metadata>
<g transform="translate(0.000000,878.000000) scale(0.100000,-0.100000)"
fill="#000000" stroke="none">
<path d="M3071 8696 c-7 -8 -16 -43 -22 -78 -5 -34 -15 -84 -20 -111 -6 -26
-13 -66 -15 -89 -2 -23 -13 -51 -24 -63 -11 -12 -20 -35 -20 -53 0 -34 -37
-82 -62 -82 -9 0 -23 -11 -31 -24 -22 -34 -106 -86 -138 -86 -18 0 -37 11 -58
35 -35 40 -39 75 -14 120 44 82 52 99 47 107 -7 12 -34 -10 -34 -28 0 -7 -15
-34 -32 -59 -45 -64 -45 -112 2 -160 19 -19 42 -35 51 -35 19 0 34 -33 24 -50
-4 -6 -1 -18 6 -26 10 -13 14 -13 29 1 17 15 19 14 34 -7 9 -12 16 -36 16 -52
l0 -29 24 22 c35 33 50 19 43 -40 -3 -27 -2 -49 2 -49 13 0 31 58 31 101 0 21
5 41 10 44 6 3 10 28 10 55 0 49 12 71 27 48 12 -20 6 -127 -8 -145 -17 -20
-39 -102 -29 -108 4 -3 15 4 25 15 9 10 23 16 30 14 8 -3 24 14 41 45 30 57
50 64 64 25 10 -24 12 -25 32 -12 28 19 34 38 13 38 -13 0 -16 5 -10 23 22 73
13 200 -20 267 -15 30 -45 144 -45 171 0 37 18 10 25 -38 7 -47 48 -189 66
-228 6 -11 11 -38 13 -60 2 -22 4 -42 5 -44 1 -2 8 2 15 9 8 6 16 30 18 53 l3
42 18 -34 c17 -30 17 -40 7 -95 -19 -102 -87 -187 -231 -289 -24 -16 -24 -16
9 -6 17 6 32 14 32 19 0 4 26 26 58 48 133 93 198 235 154 335 -21 48 -49 136
-64 202 -5 22 -12 101 -17 176 -5 74 -14 145 -20 157 -13 25 -52 29 -70 8z
m52 -137 c4 -63 14 -145 23 -184 26 -112 14 -135 -18 -35 -58 188 -71 352 -25
338 8 -3 14 -42 20 -119z m-74 -278 c12 -38 21 -78 21 -89 0 -42 -17 -29 -44
33 -20 47 -26 72 -21 95 4 16 10 30 15 30 4 0 17 -31 29 -69z m-54 -72 c10
-18 15 -48 13 -77 l-3 -47 -13 45 c-7 25 -17 57 -21 72 -8 23 -5 38 5 38 2 0
11 -14 19 -31z m-91 -53 c13 -53 -31 -96 -111 -110 -28 -5 -33 -2 -33 14 0 22
16 35 25 20 10 -17 25 -11 25 10 0 25 8 25 33 3 19 -18 20 -17 13 11 -5 19 -2
36 9 52 20 30 31 30 39 0z m172 -100 c7 -29 -1 -46 -22 -46 -9 0 -14 10 -14
28 0 47 25 59 36 18z m-191 -35 c0 -24 -28 -51 -40 -39 -4 4 -4 21 0 38 8 38
40 39 40 1z m125 -39 c0 -35 -28 -78 -42 -64 -7 7 -5 25 8 55 20 49 34 52 34
9z"/>
<path d="M1806 8641 c-4 -5 -4 -16 -1 -23 3 -8 -1 -48 -9 -89 -35 -175 -58
-341 -59 -434 -2 -98 -1 -102 33 -159 19 -33 57 -81 83 -108 66 -66 177 -121
177 -87 0 5 -19 19 -43 29 -64 29 -94 55 -158 143 -69 95 -74 118 -59 277 22
239 31 282 58 278 11 -2 19 9 25 32 15 57 29 90 38 90 15 0 10 -30 -16 -113
-14 -43 -25 -89 -25 -103 0 -14 -6 -37 -14 -52 -18 -36 -42 -185 -30 -189 32
-11 37 -23 35 -93 -1 -54 2 -71 11 -67 7 2 13 19 13 38 1 64 28 104 41 62 3
-10 10 -26 15 -35 14 -26 11 -55 -6 -62 -15 -5 -15 -18 2 -78 6 -24 23 -23 23
1 0 11 5 23 10 26 6 3 10 40 10 80 0 73 22 155 41 155 14 0 11 -52 -7 -103
-18 -53 -16 -92 6 -92 8 0 19 14 23 30 5 17 14 41 20 55 l11 25 4 -27 c4 -34
10 -35 56 -3 45 31 48 31 44 3 -2 -16 -11 -24 -28 -26 -31 -5 -70 -40 -70 -64
0 -13 -7 -18 -26 -18 -47 0 -95 -44 -78 -72 4 -7 13 2 23 23 18 39 44 45 49
12 4 -27 10 -28 40 -7 13 9 22 26 22 40 0 14 5 34 10 45 15 26 44 10 59 -32
14 -42 31 -28 31 27 0 44 12 58 24 27 11 -27 28 0 24 38 -2 28 -7 35 -29 37
-15 2 -35 12 -45 23 -9 10 -23 19 -29 19 -7 0 -20 11 -29 25 -9 14 -25 25 -35
25 -34 0 -52 32 -45 83 6 40 3 48 -20 72 -14 14 -26 34 -26 45 0 10 -4 22 -10
25 -5 3 -10 28 -10 54 0 26 -5 52 -11 58 -5 5 -11 33 -11 62 -2 57 -9 66 -50
63 -14 -1 -29 2 -33 8 -8 12 -42 13 -49 1z m124 -210 c0 -10 -16 -53 -36 -96
-19 -42 -38 -93 -41 -111 -3 -19 -8 -32 -12 -29 -12 13 2 83 29 141 16 33 32
72 35 87 8 31 25 36 25 8z m15 -108 c-4 -21 -15 -47 -26 -59 -10 -11 -19 -34
-19 -50 0 -17 -7 -39 -15 -50 -13 -17 -14 -16 -9 21 3 22 17 70 31 108 27 73
50 91 38 30z m15 -85 c-1 -13 -6 -47 -13 -77 -10 -43 -15 -50 -25 -39 -10 13
-9 51 4 116 2 12 11 22 19 22 9 0 15 -9 15 -22z m107 -124 c-9 -9 -28 6 -21
18 4 6 10 6 17 -1 6 -6 8 -13 4 -17z m48 -44 c-5 -8 -11 -8 -17 -2 -6 6 -7 16
-3 22 5 8 11 8 17 2 6 -6 7 -16 3 -22z"/>
<path d="M2650 8427 c-45 -25 -69 -31 -150 -37 -85 -6 -102 -4 -159 17 -99 37
-122 12 -52 -56 40 -40 61 -90 61 -149 0 -23 4 -32 13 -30 22 8 19 65 -7 130
-14 34 -24 63 -22 65 2 2 16 -1 31 -7 17 -6 25 -15 22 -24 -8 -20 15 -76 31
-76 9 0 11 12 6 48 l-6 49 85 6 c59 4 100 13 134 30 38 18 54 21 71 14 18 -8
25 -6 37 9 35 46 -19 53 -95 11z"/>
<path d="M2616 8340 c-29 -35 -42 -73 -30 -91 10 -17 34 18 34 50 0 13 7 33
17 43 9 10 14 21 11 23 -3 3 -17 -8 -32 -25z"/>
<path d="M2534 8325 c-8 -20 3 -48 16 -40 13 8 13 55 0 55 -6 0 -13 -7 -16
-15z"/>
<path d="M2460 8321 c0 -20 13 -41 21 -35 15 9 10 44 -6 44 -8 0 -15 -4 -15
-9z"/>
<path d="M2570 8146 c0 -9 7 -16 16 -16 17 0 14 22 -4 28 -7 2 -12 -3 -12 -12z"/>
<path d="M2386 8111 c-11 -12 -13 -21 -7 -25 5 -4 15 3 21 15 15 28 7 34 -14
10z"/>
<path d="M2306 8061 c-8 -12 3 -41 15 -41 12 0 12 37 0 45 -5 3 -12 1 -15 -4z"/>
<path d="M2293 7947 c-13 -5 -25 -19 -29 -31 -4 -12 -20 -33 -37 -47 -21 -18
-28 -31 -24 -43 4 -9 11 -14 17 -11 6 4 8 11 4 16 -12 19 17 38 48 32 27 -5
29 -4 20 13 -11 23 -6 44 16 61 21 17 12 23 -15 10z"/>
<path d="M2730 7906 c0 -7 6 -19 14 -25 19 -16 32 5 16 24 -16 19 -30 19 -30
1z"/>
<path d="M2095 7840 c-3 -6 1 -13 10 -16 19 -8 30 0 20 15 -8 14 -22 14 -30 1z"/>
<path d="M2841 7841 c-16 -10 -6 -31 15 -31 16 0 18 9 6 27 -4 7 -13 9 -21 4z"/>
<path d="M2066 7821 c-4 -7 -5 -15 -2 -18 9 -9 19 4 14 18 -4 11 -6 11 -12 0z"/>
<path d="M2700 7821 c0 -6 5 -13 10 -16 6 -3 10 1 10 9 0 9 -4 16 -10 16 -5 0
-10 -4 -10 -9z"/>
<path d="M2680 7740 c0 -5 12 -10 28 -9 24 0 25 1 7 9 -27 12 -35 12 -35 0z"/>
<path d="M2070 7721 c0 -14 96 -29 137 -21 37 6 37 7 -22 14 -33 4 -72 9 -87
11 -16 3 -28 1 -28 -4z"/>
<path d="M2292 7723 c-18 -2 -30 -8 -27 -12 2 -5 25 -6 50 -4 41 5 45 3 54
-20 5 -14 14 -28 20 -31 6 -4 6 -18 0 -41 -11 -39 -2 -63 39 -107 31 -34 25
-51 -26 -66 -49 -15 -118 -81 -149 -143 -34 -68 -39 -133 -15 -201 22 -61 20
-68 -14 -68 -25 0 -28 8 -39 130 -11 117 -42 207 -86 256 -11 11 -28 52 -39
89 -43 152 -144 207 -283 155 -61 -23 -86 -47 -110 -105 -38 -93 -40 -119 -37
-600 4 -546 4 -750 2 -895 -1 -58 -2 -211 -2 -340 0 -129 0 -246 -1 -260 -1
-14 2 -137 6 -275 7 -269 7 -301 -1 -327 -2 -9 0 -19 6 -23 12 -7 14 -141 2
-149 -4 -2 -63 40 -131 95 -145 115 -340 249 -391 266 -19 7 -60 13 -91 13
-53 0 -59 -3 -103 -43 -39 -37 -46 -49 -46 -81 0 -50 33 -96 109 -152 66 -49
74 -67 39 -85 -13 -6 -32 -20 -43 -30 -12 -10 -38 -22 -60 -27 -32 -6 -43 -15
-62 -51 -50 -95 -17 -152 109 -191 184 -56 289 -96 368 -138 106 -56 223 -124
275 -160 l40 -28 0 -324 c-1 -179 -3 -480 -5 -670 -3 -190 -4 -379 -3 -420 3
-75 4 -177 4 -215 0 -11 0 -51 1 -90 0 -38 0 -160 -2 -270 -1 -110 -3 -258 -4
-329 l-1 -130 -45 -2 c-52 -3 -671 15 -715 20 -64 7 -202 36 -240 49 -22 8
-98 18 -170 22 -85 4 -149 14 -185 26 -57 20 -111 23 -222 12 -50 -4 -68 -10
-68 -20 0 -12 10 -13 53 -8 128 18 221 3 297 -50 47 -32 235 -70 258 -52 20
16 -13 37 -57 37 -20 0 -43 5 -51 10 -18 12 96 2 120 -10 9 -5 51 -16 95 -25
162 -33 125 -38 -320 -38 l-395 0 0 -39 0 -38 61 0 c81 0 77 -24 -4 -28 l-57
-3 0 -95 c0 -94 0 -95 28 -105 15 -6 42 -12 60 -14 64 -5 46 -17 -20 -13 l-68
4 0 -62 c0 -66 6 -72 75 -87 11 -3 -1 -5 -26 -6 l-47 -1 0 -40 -1 -40 112 -1
c87 -1 105 -3 80 -10 -18 -5 -33 -16 -33 -24 0 -20 -36 -19 -44 0 -4 11 -21
15 -61 15 -42 0 -55 -3 -55 -15 0 -10 10 -15 28 -15 20 0 23 -3 13 -9 -8 -5
-20 -7 -28 -4 -9 4 -13 -6 -13 -36 l0 -42 31 23 c26 19 45 23 134 26 94 4 107
2 145 -19 45 -26 50 -52 10 -57 -40 -5 -90 -23 -90 -32 0 -21 40 -31 67 -17
36 17 97 7 125 -21 27 -27 13 -70 -30 -95 -32 -19 -35 -19 -359 -26 -21 -1
-33 -6 -33 -15 0 -9 19 -15 57 -19 60 -7 1315 0 1548 8 72 2 519 7 995 10 476
3 966 7 1090 10 124 3 469 5 768 5 531 1 542 1 542 20 0 19 -8 20 -127 21 -71
1 -155 1 -187 0 -76 -2 -120 13 -134 44 -10 21 -9 28 8 45 22 22 26 23 126 24
56 1 77 5 93 20 12 11 21 22 21 26 0 10 -47 30 -70 30 -26 0 -26 16 0 23 13 3
20 14 20 31 0 19 6 27 24 32 58 14 60 9 68 -125 4 -67 9 -126 13 -129 3 -4 14
-1 23 4 13 8 18 28 20 77 3 62 4 66 29 69 37 4 53 33 31 54 -14 15 -19 15 -33
4 -14 -12 -18 -11 -26 1 -28 44 22 54 70 13 l31 -26 0 169 0 170 -29 -5 c-38
-5 -49 14 -13 24 15 4 30 7 35 6 4 -1 7 14 7 34 0 28 -3 35 -15 30 -8 -3 -25
-1 -37 4 -22 8 -21 9 7 11 17 1 33 1 38 0 4 0 7 17 7 38 l0 39 -182 4 c-101 2
-187 0 -192 -4 -17 -13 3 -21 48 -20 24 1 55 -2 68 -7 17 -7 3 -10 -59 -10
-69 -1 -81 1 -77 14 4 8 5 15 3 16 -2 1 -79 4 -171 8 -156 7 -190 12 -176 27
5 5 305 6 588 2 41 0 92 0 113 1 l37 1 0 74 0 74 -42 6 c-62 8 -759 8 -993 0
-456 -16 -455 -16 -456 -2 0 7 -3 53 -5 103 -3 49 -9 94 -14 99 -9 9 -15 -15
-12 -54 6 -92 -1 -223 -18 -310 -6 -36 -12 -72 -12 -80 10 -307 10 -310 -8
-300 -16 8 -17 24 -12 177 3 92 4 180 3 196 -2 30 -4 135 -4 182 2 146 3 525
1 605 0 19 1 177 2 350 1 173 2 482 2 685 -1 311 2 554 7 588 0 5 5 6 10 3 5
-3 9 -153 9 -336 1 -194 5 -344 11 -363 5 -18 10 -43 10 -57 2 -160 2 -345 2
-720 0 -19 0 -64 1 -100 2 -74 2 -90 -4 -217 -4 -91 4 -121 19 -66 7 27 7 390
0 548 -2 44 0 90 4 102 9 24 10 70 5 176 -1 37 0 67 4 67 4 0 15 -9 26 -21 40
-45 102 -64 205 -64 67 0 101 4 113 14 9 8 18 12 19 10 2 -2 16 -23 32 -47 47
-70 153 -155 240 -191 170 -71 385 -62 553 23 60 30 99 62 89 72 -4 4 -24 -2
-45 -15 -100 -60 -256 -102 -352 -95 -179 13 -293 57 -380 148 -73 76 -95 114
-126 215 -19 61 -24 95 -20 124 8 48 14 59 27 51 6 -4 6 -11 -2 -20 -16 -19
-5 -133 16 -174 11 -21 23 -30 39 -30 19 0 31 -12 54 -52 32 -57 82 -102 151
-137 42 -22 71 -22 71 -1 0 6 -13 16 -28 23 -16 7 -52 28 -80 47 -50 34 -85
89 -131 203 -6 16 -18 27 -30 27 -14 0 -20 9 -24 38 -6 54 6 72 51 72 44 0
125 21 167 42 45 24 87 66 83 85 -5 28 -26 26 -42 -6 -10 -19 -36 -39 -72 -57
-47 -23 -70 -28 -138 -28 -94 -1 -145 19 -221 86 -109 96 -155 225 -121 339
21 73 75 159 116 187 43 29 64 29 23 0 -27 -19 -53 -56 -53 -73 0 -16 42 -1
55 19 19 28 88 76 110 76 17 0 20 16 4 26 -8 4 -7 9 2 15 24 16 101 -3 146
-35 38 -26 43 -34 38 -56 -4 -14 -9 -55 -12 -91 -12 -149 76 -299 203 -348 31
-11 73 -21 94 -21 30 0 40 -4 45 -21 21 -64 -42 -156 -125 -184 -56 -19 -91
-13 -138 22 -24 18 -37 22 -45 14 -16 -16 15 -45 64 -61 33 -11 51 -11 102 -1
114 24 161 65 178 157 16 83 16 84 35 84 17 0 125 50 156 72 13 9 21 8 40 -5
96 -70 101 -72 162 -73 56 -1 61 -3 64 -25 2 -13 14 -35 26 -50 24 -29 38
-127 15 -114 -17 11 -29 -14 -29 -62 0 -45 13 -55 39 -31 11 11 12 7 6 -22
-11 -53 -52 -128 -107 -197 -43 -55 -47 -64 -32 -70 24 -9 109 84 152 168 31
62 32 68 32 188 0 123 0 124 -30 158 -38 43 -38 60 0 81 27 16 30 22 30 71 0
51 -1 53 -22 47 -13 -4 -36 -9 -53 -12 -67 -12 -76 -15 -70 -24 3 -6 18 -10
33 -10 24 -1 25 -2 9 -11 -27 -16 -112 -1 -153 28 -29 19 -39 21 -45 11 -18
-28 -20 21 -2 54 13 23 18 54 18 108 -1 66 -4 82 -32 130 -34 59 -77 90 -124
90 -29 0 -38 13 -19 25 17 10 0 26 -21 20 -11 -4 -19 -2 -19 4 0 6 18 11 41
11 22 0 38 -4 34 -9 -3 -5 0 -13 6 -17 6 -4 16 1 21 10 5 8 33 27 62 41 67 32
138 83 131 95 -3 4 -31 -9 -63 -29 -61 -41 -111 -61 -148 -61 -39 0 -27 13 39
44 78 38 203 159 242 235 58 116 75 217 51 312 -29 111 -85 245 -123 289 -34
39 -104 79 -164 93 -24 6 -101 80 -125 123 -9 14 -15 16 -24 8 -9 -9 -8 -18 3
-41 20 -37 97 -109 128 -118 98 -28 153 -78 198 -178 112 -250 91 -429 -70
-601 -67 -72 -158 -124 -235 -136 l-44 -7 49 52 c60 63 115 170 130 251 31
162 24 339 -16 403 -26 41 -36 10 -18 -58 42 -161 0 -408 -92 -544 -33 -48
-136 -117 -175 -117 -45 0 -30 19 39 48 95 41 150 126 190 291 39 166 -7 383
-106 501 -26 30 -30 33 -36 17 -5 -11 2 -31 19 -56 48 -68 94 -199 101 -286
10 -118 -26 -261 -93 -368 -35 -57 -136 -102 -207 -92 -78 11 -84 11 -86 0 0
-5 20 -17 45 -25 41 -14 46 -18 46 -46 0 -69 -93 -98 -167 -53 -56 35 -63 89
-17 130 25 22 144 81 169 84 11 1 25 3 32 4 28 3 87 69 121 135 35 68 37 76
37 171 0 146 -41 257 -141 380 -72 90 -106 161 -98 204 6 27 16 37 63 59 73
35 116 91 125 164 8 63 -1 93 -40 129 -57 53 -142 39 -170 -27 -23 -54 9 -94
75 -94 41 0 41 26 1 35 -21 5 -30 13 -30 26 0 59 48 77 97 35 26 -22 28 -30
26 -86 -2 -75 -30 -123 -85 -145 -34 -13 -42 -13 -94 5 -31 11 -64 26 -72 32
-25 21 -52 90 -52 136 0 38 2 43 19 37 14 -4 24 3 40 31 12 20 21 46 19 58 -2
17 6 24 42 36 57 19 65 34 20 38 -79 6 -179 -94 -188 -188 -6 -61 1 -86 33
-134 l25 -38 -30 -28 c-16 -15 -30 -33 -30 -38 0 -6 -2 -17 -6 -25 -3 -8 6
-28 21 -45 l25 -30 -50 -45 c-28 -25 -71 -57 -96 -71 l-45 -25 -53 43 c-65 53
-121 79 -221 101 -42 10 -79 23 -81 30 -3 7 -5 28 -5 46 0 240 -1 314 -5 369
-3 36 -5 175 -4 310 0 135 1 412 1 615 0 204 1 379 2 390 0 11 0 106 0 210 -1
161 -4 204 -23 280 -29 118 -52 162 -96 182 -35 17 -44 34 -42 88 1 52 -21
174 -36 204 -34 65 -128 91 -181 49 -32 -25 -78 -123 -95 -202 -7 -32 -16 -54
-21 -50 -6 3 -8 13 -4 22 3 9 3 52 -1 95 -6 69 -11 84 -36 113 -20 23 -39 34
-57 34 -62 0 -85 -46 -96 -195 -9 -121 -9 -121 -56 -81 -22 18 -61 41 -87 50
-89 32 -92 39 -41 109 16 22 29 52 29 66 0 46 -20 101 -37 101 -11 0 -14 -6
-9 -22 4 -13 9 -43 12 -68 5 -41 2 -50 -30 -91 -19 -26 -38 -59 -42 -74 l-7
-27 -11 33 c-7 19 -27 49 -45 67 -32 31 -33 36 -28 87 4 38 2 57 -7 62 -7 5
-15 16 -19 26 -6 17 -28 19 -105 10z m-363 -95 c48 -28 81 -75 88 -127 5 -37
3 -41 -16 -41 -17 0 -21 6 -21 30 0 122 -147 150 -233 45 -51 -63 -51 -59 -50
-405 1 -179 4 -342 8 -363 4 -20 8 -114 9 -209 1 -123 4 -172 13 -175 8 -3 13
12 15 44 3 45 4 46 14 23 13 -28 41 -139 54 -215 9 -53 15 -227 25 -700 3
-159 9 -371 13 -470 7 -178 7 -180 -16 -199 -22 -20 -42 -72 -42 -113 0 -12
16 -38 35 -58 34 -33 36 -39 33 -92 -2 -31 -8 -58 -14 -60 -5 -2 -27 11 -48
29 -37 33 -38 35 -42 113 -2 44 -4 87 -4 95 0 86 -2 139 -9 215 -4 50 -6 185
-3 300 3 116 4 239 4 275 -7 390 -7 522 -2 620 7 110 -1 170 -21 170 -5 0 -10
-28 -10 -62 -1 -35 -3 -110 -5 -168 -6 -191 1 -1126 10 -1290 6 -109 7 -125 6
-142 -1 -7 1 -42 3 -78 2 -36 0 -71 -6 -77 -5 -7 -6 -27 -3 -45 10 -53 13
-162 4 -180 -4 -9 -3 -29 2 -44 12 -32 14 -193 5 -569 -4 -148 -6 -380 -5
-515 4 -905 3 -1215 -4 -1435 -2 -71 1 -145 6 -163 6 -21 6 -43 0 -60 -6 -17
-6 -70 0 -143 7 -85 6 -128 -2 -160 -17 -61 -21 -138 -9 -161 6 -10 7 -27 4
-38 -5 -17 -7 -17 -31 7 -29 29 -59 27 -58 -5 1 -23 -10 -29 -21 -12 -10 17
-106 12 -127 -7 -21 -19 -23 -18 -32 19 l-6 28 74 0 c73 0 104 13 75 31 -21
13 -143 11 -157 -3 -8 -8 -25 -7 -66 6 -74 24 -242 25 -315 3 -30 -10 -55 -16
-56 -14 -32 62 -24 92 19 63 35 -23 192 -23 224 0 21 15 25 15 42 -1 15 -14
44 -17 182 -17 121 -1 168 -4 184 -15 33 -21 41 0 43 111 1 55 4 103 7 107 2
4 0 29 -6 55 -12 52 -18 373 -7 390 3 6 2 26 -3 43 -7 24 -5 41 7 66 12 26 13
39 5 64 -8 23 -8 38 0 56 8 18 8 32 -1 54 -10 22 -10 34 -1 51 8 16 8 30 0 55
-8 25 -8 40 0 55 6 11 8 25 5 30 -10 16 -13 154 -4 165 4 6 4 39 -1 74 -6 42
-5 71 2 87 8 17 8 31 1 47 -7 14 -10 304 -10 829 -1 443 -4 811 -7 816 -3 6
-5 80 -4 164 2 174 1 434 -6 1058 -3 239 -6 453 -6 475 0 22 1 364 3 760 3
757 2 739 46 835 17 35 72 71 116 74 19 2 38 6 42 10 10 10 22 7 62 -16z
m1285 -19 c14 -17 26 -38 27 -47 4 -63 8 -105 18 -157 11 -63 6 -75 -32 -75
-15 0 -18 8 -17 48 3 110 -20 182 -58 182 -24 0 -33 -9 -65 -58 -36 -55 -54
-170 -70 -451 -9 -168 -15 -215 -26 -219 -11 -4 -12 0 -6 14 5 11 10 78 11
149 7 347 35 522 100 623 23 35 85 31 118 -9z m-314 -4 c22 -23 24 -36 27
-123 1 -76 0 -88 -7 -57 -5 22 -9 55 -9 74 -1 59 -53 95 -70 49 -8 -24 -4
-476 6 -557 8 -68 -5 -161 -23 -168 -27 -10 -31 10 -23 102 4 57 3 94 -3 102
-7 9 -4 27 7 58 14 35 16 60 11 113 -14 129 -15 168 -7 274 11 148 39 189 91
133z m-1025 -47 c15 -7 33 -24 41 -39 24 -48 18 -72 -31 -112 -76 -64 -79 -76
-80 -283 0 -158 -2 -183 -18 -198 -9 -10 -22 -27 -28 -38 -6 -11 -13 -17 -16
-14 -3 2 -5 123 -4 267 0 239 2 267 21 325 13 39 32 72 47 84 30 23 34 24 68
8z m1007 -193 c-5 -23 -8 -11 -13 50 -4 44 -4 85 -1 90 10 15 22 -105 14 -140z
m286 21 c2 -91 -1 -122 -11 -135 -22 -25 -40 -89 -46 -166 -6 -70 -18 -87 -47
-67 -16 10 1 320 20 376 26 76 49 117 66 114 12 -3 15 -24 18 -122z m-1115 12
c60 -42 90 -157 104 -399 9 -137 7 -159 -10 -159 -8 0 -12 26 -12 82 -1 162
-17 321 -37 368 -22 54 -38 65 -104 74 -44 7 -52 5 -72 -17 -32 -33 -41 -147
-35 -407 3 -113 6 -396 7 -630 1 -234 5 -490 9 -570 15 -300 24 -805 18 -955
-4 -97 8 -1661 15 -2040 4 -170 6 -362 5 -425 -1 -63 -1 -158 0 -210 4 -249 3
-380 -5 -690 -11 -453 -9 -426 -37 -422 -21 3 -57 6 -121 11 -11 1 -15 7 -12
15 4 11 17 13 54 9 27 -3 56 -3 66 1 16 6 15 8 -2 27 -14 16 -28 19 -73 17
l-56 -3 0 57 0 57 43 -6 c35 -5 42 -3 42 11 0 12 -9 16 -34 16 -19 0 -36 6
-39 13 -8 24 5 37 39 37 32 0 33 1 30 38 -3 33 -7 37 -35 40 -23 2 -35 10 -41
28 -11 28 -2 114 12 114 5 0 6 -9 3 -20 -7 -23 15 -36 42 -25 17 6 17 7 0 20
-18 13 -17 14 5 17 42 6 27 33 -20 36 -34 3 -43 7 -40 20 2 11 15 18 38 20 19
2 42 10 51 18 21 19 29 9 22 -32 -4 -27 -2 -34 10 -34 9 0 19 5 22 10 6 10 6
1235 0 1965 -2 176 -4 563 -5 860 -1 297 -5 621 -10 720 -5 99 -12 529 -15
955 -3 426 -10 829 -15 895 -22 277 -23 348 -6 394 22 61 62 111 89 111 12 0
28 4 36 9 17 11 35 5 74 -21z m583 6 c65 -34 89 -57 115 -113 29 -61 29 -162
1 -218 -80 -156 -272 -190 -406 -71 -122 107 -92 323 56 399 47 24 65 24 78
-1 9 -16 15 -18 30 -10 11 6 20 17 20 25 0 23 51 18 106 -11z m246 -120 c2
-19 0 -37 -4 -40 -4 -3 -8 13 -8 35 0 51 6 53 12 5z m-919 -11 c40 -248 39
-277 -11 -271 l-27 3 0 135 c0 74 3 143 7 153 12 28 25 20 31 -20z m92 1 c21
-44 40 -286 25 -314 -5 -10 -10 -32 -10 -47 0 -16 -6 -37 -13 -47 -12 -16 -14
-16 -26 -2 -9 10 -11 26 -6 43 10 41 11 247 2 331 -9 80 1 93 28 36z m1275 1
c30 -16 54 -67 86 -186 15 -58 20 -227 12 -429 -1 -19 0 -62 3 -95 2 -33 2
-89 1 -125 -1 -36 -3 -216 -4 -400 -2 -349 -4 -515 -7 -540 -1 -12 -3 -12 -12
2 -9 16 -14 570 -6 698 2 30 0 132 -6 225 -5 94 -11 233 -12 310 -5 201 -23
391 -39 423 -47 91 -136 89 -164 -5 -14 -49 -34 -214 -30 -250 2 -15 -1 -28
-7 -28 -14 0 -16 57 -5 169 13 133 26 170 72 211 42 38 73 44 118 20z m-413
-137 c-2 -13 -4 -3 -4 22 0 25 2 35 4 23 2 -13 2 -33 0 -45z m336 -55 c-1 -43
-2 -82 -3 -87 0 -5 -6 -4 -13 3 -9 7 -13 30 -11 73 2 35 3 69 4 76 0 6 6 12
13 12 9 0 11 -21 10 -77z m61 40 c12 -30 20 -173 9 -173 -24 0 -33 28 -33 107
0 78 10 104 24 66z m-364 -123 c11 -7 7 -10 -17 -10 -18 0 -33 5 -33 10 0 13
30 13 50 0z m-683 -16 c-3 -3 -12 -4 -19 -1 -8 3 -5 6 6 6 11 1 17 -2 13 -5z
m115 -56 c55 -29 71 -33 142 -33 68 0 90 5 137 28 37 18 63 25 75 20 15 -6 13
-9 -14 -13 -18 -3 -33 -9 -33 -15 0 -5 15 -13 33 -16 30 -6 28 -7 -17 -9 -75
-4 -75 -4 -75 -15 0 -6 28 -13 62 -16 l63 -6 -65 -2 c-36 -2 -92 -2 -124 -1
-50 2 -62 -1 -75 -19 -15 -19 -21 -20 -56 -12 -24 5 -31 9 -17 10 12 1 22 5
22 9 0 8 -156 25 -213 24 -9 -1 -15 3 -12 9 4 5 31 9 61 9 34 0 53 4 49 10 -3
6 -28 10 -56 10 -27 0 -49 5 -49 10 0 6 23 10 50 10 28 0 50 5 50 10 0 10 -13
13 -67 13 -18 -1 -30 3 -27 8 13 21 94 9 156 -23z m558 -8 c-20 -13 -50 -13
-50 0 0 6 15 10 33 10 24 0 28 -3 17 -10z m-1125 -108 c-3 -3 -13 1 -21 10
-13 13 -14 19 -3 39 l13 24 8 -34 c5 -18 7 -36 3 -39z m1495 23 c0 -49 -125
-98 -340 -131 -225 -34 -464 -32 -840 7 -129 14 -200 46 -200 90 0 26 9 28 70
17 197 -36 533 -45 910 -23 47 3 131 7 186 9 87 3 108 7 145 29 56 32 69 33
69 2z m-970 -11 c0 -2 -9 -4 -21 -4 -11 0 -18 4 -14 10 5 8 35 3 35 -6z m-587
-37 c-3 -5 -9 -3 -14 4 -4 7 -5 17 -2 22 3 5 9 3 14 -4 4 -7 5 -17 2 -22z
m233 -95 c-10 -2 -22 0 -28 6 -6 6 0 7 19 4 21 -5 23 -7 9 -10z m1190 7 c3 -6
17 -9 30 -6 33 6 19 -11 -17 -20 -16 -5 -30 -12 -32 -18 -4 -20 40 -15 97 10
32 14 61 24 64 21 8 -8 -19 -36 -51 -53 -37 -18 -23 -39 16 -24 40 16 41 -3 1
-23 -30 -14 -34 -19 -24 -31 10 -12 7 -17 -14 -26 -39 -18 -32 -32 15 -26 48
6 48 -7 1 -39 -24 -17 -28 -24 -19 -34 8 -8 8 -14 2 -16 -5 -3 -17 -9 -25 -14
-13 -8 -13 -11 -1 -19 11 -7 8 -12 -13 -26 -33 -22 -34 -39 -1 -33 17 4 25 1
25 -8 0 -15 -24 -30 -85 -55 -53 -22 -60 -44 -11 -36 61 10 40 -11 -26 -26
-54 -12 -63 -17 -61 -34 2 -15 -5 -23 -22 -27 -16 -4 -25 -13 -25 -26 0 -16
-9 -21 -50 -26 -55 -7 -61 -14 -28 -36 l22 -15 -24 -13 c-44 -23 -111 -83
-126 -111 -8 -16 -14 -41 -14 -58 0 -34 -15 -49 -24 -25 -5 13 -14 15 -41 10
l-35 -7 4 65 c4 64 3 66 -29 91 -24 18 -46 25 -78 25 -53 0 -99 -31 -96 -64 2
-11 -1 -31 -5 -43 -5 -16 -1 -31 15 -53 27 -35 18 -53 -9 -20 l-19 24 -12 -22
c-17 -31 -34 -16 -28 24 4 22 1 37 -9 45 -8 6 -14 20 -14 29 0 32 -46 57 -147
79 -127 29 -133 31 -133 41 0 13 33 21 90 22 55 2 61 11 34 53 -15 23 -15 25
0 25 9 0 16 4 16 9 0 17 -20 23 -35 11 -26 -22 -175 -12 -243 17 -49 20 -37
23 38 7 75 -16 140 -18 140 -5 0 5 -24 12 -52 15 -83 10 -168 29 -168 38 0 4
1 8 3 8 1 0 38 -7 82 -15 48 -8 84 -10 89 -5 11 11 -3 16 -67 24 -26 3 -60 13
-75 21 -26 16 -26 16 28 10 30 -3 74 -8 98 -11 23 -4 42 -2 42 2 0 12 -49 34
-74 34 -12 1 -43 8 -71 16 l-50 14 45 -5 c118 -13 174 -16 160 -7 -8 5 -35 12
-60 16 -85 12 -150 29 -150 39 0 6 20 7 50 4 55 -7 69 8 18 18 -59 12 -68 16
-68 32 0 12 7 14 28 9 15 -3 58 -9 96 -13 51 -4 67 -3 62 5 -4 7 -20 12 -36
12 -41 0 -133 20 -148 33 -7 6 -12 20 -10 31 3 22 5 23 91 11 38 -6 47 -4 47
8 0 15 -9 18 -93 32 -23 4 -37 11 -34 18 5 13 13 13 70 2 47 -9 50 10 5 31
l-33 15 53 -6 c64 -7 77 0 52 25 -37 37 -26 43 68 36 137 -11 389 -26 482 -30
93 -4 312 16 412 38 79 18 115 19 124 5z m-1129 -15 c-3 -3 -12 -4 -19 -1 -8
3 -5 6 6 6 11 1 17 -2 13 -5z m-230 -80 c-3 -3 -12 -4 -19 -1 -8 3 -5 6 6 6
11 1 17 -2 13 -5z m1545 -221 c1 -65 0 -143 -4 -173 -4 -30 -4 -201 -1 -380 5
-304 7 -596 4 -700 -1 -25 -1 -52 -1 -60 1 -8 -1 -44 -2 -80 -3 -53 -7 -66
-22 -68 -40 -8 -42 7 -51 383 -3 138 -8 342 -12 455 -3 113 -6 261 -7 330 0
69 -4 130 -8 136 -4 7 3 27 15 45 26 38 67 146 65 169 -3 32 2 60 11 60 5 0
11 -53 13 -117z m-127 -588 c4 -170 9 -313 11 -316 9 -16 7 -543 -2 -546 -7
-2 -11 22 -11 64 0 38 -3 160 -7 273 -22 631 -28 889 -19 902 14 24 21 -65 28
-377z m-1257 303 c7 -10 19 -18 26 -18 7 0 32 -14 55 -30 23 -17 58 -38 77
-47 25 -12 33 -21 27 -32 -3 -9 -8 -39 -11 -67 -4 -50 -2 -53 37 -84 47 -38
56 -57 37 -79 -7 -9 -20 -33 -27 -54 -13 -37 -12 -40 9 -57 12 -10 22 -25 22
-34 0 -22 26 -20 42 2 7 10 26 22 41 26 15 3 30 13 34 22 7 20 -25 82 -61 117
l-29 29 27 22 c37 29 33 70 -6 74 -21 2 -30 -3 -41 -24 l-14 -27 -16 24 c-21
29 -22 82 -2 99 11 9 30 10 71 4 45 -7 61 -15 78 -37 19 -26 21 -42 22 -197 1
-119 5 -174 13 -184 10 -12 11 -60 7 -198 -3 -101 -9 -213 -12 -250 l-6 -67
-66 -34 c-83 -43 -219 -84 -292 -89 l-54 -3 -7 40 c-4 22 -9 177 -13 345 -3
168 -9 418 -12 556 -4 138 -4 259 -1 268 8 19 24 13 45 -16z m105 25 c-7 -2
-19 -2 -25 0 -7 3 -2 5 12 5 14 0 19 -2 13 -5z m122 -2 c10 -18 -17 -23 -33
-7 -15 15 -15 16 5 16 12 0 24 -4 28 -9z m959 -78 c3 -43 8 -172 11 -288 3
-115 10 -345 16 -509 8 -240 7 -302 -3 -312 -10 -10 -41 -11 -135 -4 -66 4
-130 13 -140 18 -18 10 -18 26 -16 319 1 169 2 318 3 331 0 25 25 30 34 6 5
-13 11 -12 37 10 17 14 34 26 39 26 5 0 11 9 15 19 6 20 -48 111 -66 111 -5 0
-9 6 -9 14 0 25 -79 38 -81 14 0 -7 -3 -35 -6 -63 -3 -27 -5 -59 -4 -70 5 -87
8 -636 4 -658 -4 -18 -11 -27 -21 -25 -14 3 -16 24 -15 148 4 492 3 622 -7
640 -7 14 -8 26 0 39 5 11 10 37 10 58 0 59 23 85 73 81 41 -3 42 -4 45 -43 3
-39 3 -39 -16 -21 -40 35 -112 1 -86 -41 14 -23 42 -27 94 -13 33 9 44 18 56
46 18 43 9 82 -22 96 -23 11 -33 28 -16 28 4 0 36 19 71 43 107 71 116 77 122
77 3 0 9 -35 13 -77z m-557 -78 c3 -9 2 -19 -1 -23 -8 -8 -38 10 -44 26 -6 18
38 14 45 -3z m-44 -79 l17 -21 19 23 c25 29 41 28 41 -4 0 -38 -37 -95 -57
-87 -8 3 -19 0 -24 -8 -7 -11 -9 -11 -9 3 0 9 12 26 28 37 l27 20 -30 1 c-23
0 -35 7 -48 29 -10 17 -14 37 -10 47 6 17 7 17 17 0 6 -10 19 -28 29 -40z
m-63 -127 c15 -27 7 -47 -21 -51 -19 -3 -23 -10 -25 -52 -3 -46 -9 -65 -18
-55 -2 2 -7 38 -11 80 l-7 77 28 10 c41 15 42 14 54 -9z m224 5 c10 -25 7
-104 -4 -104 -5 0 -17 17 -25 37 -12 28 -13 44 -6 60 12 27 26 30 35 7z m69
-49 c-7 -21 -13 -19 -13 6 0 11 4 18 10 14 5 -3 7 -12 3 -20z m-176 -27 c14
-31 9 -38 -27 -38 -45 0 -54 20 -23 52 28 30 33 29 50 -14z m-321 -6 c11 -28
11 -34 -1 -38 -18 -7 -68 9 -72 24 -5 14 35 54 49 50 5 -2 16 -18 24 -36z
m667 8 c18 -35 14 -39 -30 -33 -37 6 -41 18 -16 45 22 25 29 23 46 -12z m-168
-230 c-5 -289 -5 -286 -14 -271 -5 8 -11 71 -12 140 -3 180 -3 199 6 270 14
110 23 44 20 -139z m-96 114 c21 -49 25 -76 32 -262 10 -239 19 -326 48 -437
13 -53 17 -83 10 -91 -6 -8 -5 -14 6 -18 22 -8 18 -25 -7 -36 -22 -8 -22 -9
-2 -9 32 -1 37 -14 12 -33 l-23 -18 30 0 c23 0 34 -7 48 -31 17 -30 17 -32 0
-45 -17 -12 -16 -13 10 -14 15 0 27 -4 27 -10 0 -5 -5 -10 -11 -10 -5 0 -7 -4
-4 -10 3 -5 15 -10 26 -10 22 0 24 -11 7 -28 -9 -9 -6 -12 16 -12 23 0 26 -3
21 -20 -5 -16 -2 -20 14 -20 12 0 20 -6 18 -12 -1 -9 9 -12 31 -10 27 3 32 0
32 -17 0 -23 20 -27 51 -11 30 16 23 27 -36 65 -30 20 -55 40 -55 45 0 16 60
11 140 -11 111 -30 153 -82 93 -112 -39 -20 -64 -24 -168 -33 -49 -3 -107 -13
-129 -20 -50 -18 -81 -18 -96 1 -17 21 -28 19 -32 -7 -3 -19 -12 -24 -73 -33
-38 -6 -88 -19 -110 -29 -49 -21 -255 -22 -255 -1 0 7 9 15 20 18 26 7 26 23
0 30 -18 5 -14 12 33 61 30 30 73 91 98 135 24 44 46 80 49 81 3 0 12 -5 20
-10 13 -9 13 -12 -2 -24 -26 -19 -22 -26 15 -27 21 -1 25 -3 12 -6 -32 -8 -39
-20 -16 -28 12 -4 28 -2 35 4 11 9 19 3 37 -26 13 -21 25 -41 27 -45 2 -5 -28
-8 -67 -8 -74 0 -98 -16 -33 -23 34 -3 33 -4 -10 -5 -45 -2 -61 -13 -38 -27
14 -9 170 6 170 16 0 4 -8 10 -17 12 -14 4 -14 5 3 6 12 0 28 -9 37 -21 11
-17 18 -20 27 -12 8 9 4 22 -20 55 -67 94 -129 191 -135 210 -7 21 -29 21 -31
1 -4 -33 -6 -35 -15 -13 -8 21 -12 23 -23 10 -7 -8 -18 -29 -25 -48 -21 -65
-80 -157 -133 -209 -29 -28 -57 -52 -63 -52 -5 0 -33 6 -62 14 -34 9 -55 10
-61 4 -13 -13 -74 1 -69 15 3 8 34 11 102 9 75 -2 103 1 121 13 48 31 30 40
-84 42 -59 1 -121 5 -138 8 -25 4 -33 1 -44 -20 -16 -30 -22 -30 -80 -2 -57
28 -61 48 -14 77 30 19 38 20 45 9 15 -24 11 -41 -10 -34 -24 7 -47 -18 -29
-32 30 -24 56 -24 84 0 16 13 38 28 48 34 30 17 134 123 168 174 31 45 33 46
78 42 29 -3 52 0 64 10 29 22 12 35 -39 29 -38 -4 -45 -2 -45 13 0 14 6 16 30
12 39 -8 60 0 60 24 0 15 -7 19 -36 19 -45 0 -42 24 4 28 35 4 63 29 41 36 -8
3 -23 6 -34 8 -28 5 -26 34 2 30 23 -3 32 7 49 55 11 32 11 32 -25 35 -43 4
-51 31 -9 36 14 2 32 10 38 17 13 16 7 20 -35 27 -31 5 -24 32 10 38 40 7 46
37 8 42 -35 4 -33 23 3 23 25 1 47 22 38 37 -8 12 -38 10 -52 -4 -9 -9 -12 -6
-12 16 0 22 4 26 18 22 23 -8 58 17 47 33 -4 8 -18 11 -36 7 -26 -5 -29 -3
-29 19 0 22 4 25 34 25 36 0 55 15 39 31 -6 6 -19 6 -36 0 -33 -13 -38 -4 -31
53 7 45 8 46 41 46 28 0 34 3 31 18 -2 9 -8 16 -14 15 -5 0 -18 -3 -29 -5 -16
-2 -21 3 -23 30 -7 70 89 154 105 92 6 -22 28 -27 39 -9 6 10 60 38 74 38 3 1
16 -24 29 -55z m737 -334 c7 -296 12 -424 19 -478 5 -34 3 -57 -4 -66 -7 -9
-11 -64 -10 -157 1 -191 1 -191 -13 -186 -10 3 -13 60 -15 233 -1 126 -4 243
-7 259 -12 78 -16 167 -6 185 6 11 7 28 2 42 -5 13 -4 85 3 165 6 78 10 159 8
180 -3 35 -2 36 8 13 6 -14 12 -99 15 -190z m-2284 -224 c71 -34 468 -346 468
-368 0 -6 -14 -8 -37 -3 -21 4 -63 9 -93 10 -34 2 -77 13 -113 30 -66 31 -149
55 -189 55 -16 0 -31 8 -37 19 -16 29 -174 139 -207 143 -42 4 -43 37 -3 83
18 20 42 41 53 46 29 12 118 4 158 -15z m2998 -40 c0 -29 -15 -50 -29 -41 -7
4 -26 1 -42 -6 -26 -10 -33 -10 -47 4 -22 23 -6 69 28 77 39 10 90 -10 90 -34z
m-1783 -12 c9 -24 -21 -162 -48 -219 -20 -42 -31 -52 -70 -67 -57 -21 -200
-33 -254 -21 l-40 9 -2 89 c-1 48 2 96 7 105 7 13 28 19 77 24 71 7 158 32
253 71 68 29 69 29 77 9z m588 -39 c50 -9 158 -18 240 -21 83 -4 156 -11 163
-17 7 -6 11 -20 8 -31 -3 -11 0 -40 5 -66 6 -25 11 -76 10 -115 0 -38 0 -89
-1 -112 0 -48 -4 -50 -58 -27 -39 17 -328 74 -374 74 -22 0 -34 9 -54 42 -15
24 -31 56 -35 73 -5 16 -15 53 -23 82 -8 29 -18 73 -22 99 l-7 47 29 -7 c16
-4 70 -13 119 -21z m1185 -30 c0 -26 72 -149 116 -200 76 -87 124 -213 124
-326 0 -87 -5 -101 -36 -93 -24 6 -24 5 -21 -44 2 -44 0 -49 -14 -42 -21 12
-29 4 -30 -29 l0 -26 -10 24 c-8 19 -12 21 -24 11 -8 -7 -15 -23 -15 -36 0
-30 -16 -39 -23 -13 -8 28 -23 17 -31 -23 -6 -31 -8 -32 -21 -14 -17 23 -35
13 -35 -20 0 -30 -16 -31 -24 -1 -6 22 -6 22 -22 2 -8 -11 -21 -19 -29 -17 -8
1 -18 -12 -25 -33 -9 -28 -16 -35 -30 -30 -13 4 -22 -1 -30 -15 -6 -11 -19
-20 -29 -20 -10 0 -36 -7 -57 -16 -30 -13 -74 -16 -201 -16 -152 1 -192 -5
-161 -24 30 -19 363 -4 425 18 23 9 36 9 44 1 19 -19 -18 -43 -69 -43 -48 0
-143 -38 -204 -82 -38 -26 -102 -124 -122 -186 -16 -46 -11 -134 9 -199 6 -19
2 -25 -21 -33 -16 -6 -39 -21 -51 -32 -13 -12 -26 -19 -29 -16 -3 4 -6 199 -6
434 1 235 -4 462 -9 503 -5 42 -9 81 -9 86 0 6 2 123 3 262 2 139 6 255 10
259 4 4 33 1 64 -6 138 -33 222 -92 274 -193 25 -49 92 -125 120 -135 16 -6
10 20 -13 57 -13 20 -23 48 -24 64 -2 27 9 36 21 17 3 -5 13 -10 20 -10 11 0
9 8 -7 35 -20 36 -18 59 4 37 20 -20 28 -14 26 20 -3 28 1 34 20 36 12 2 22 9
22 17 0 16 111 115 122 109 4 -3 8 -12 8 -19z m-3092 -76 c73 -62 81 -73 61
-84 -16 -10 -159 103 -159 126 0 32 23 22 98 -42z m812 -55 c0 -34 -13 -46
-23 -21 -7 19 4 68 14 61 5 -3 9 -21 9 -40z m-545 -82 c57 -23 67 -38 32 -51
-59 -23 -84 -99 -52 -162 17 -31 87 -68 209 -109 44 -14 81 -35 107 -59 38
-37 39 -39 39 -109 0 -45 -4 -72 -11 -72 -6 0 -29 13 -52 28 -23 16 -71 43
-107 62 -36 18 -76 40 -90 50 -14 10 -36 21 -50 25 -53 16 -101 47 -110 70
-10 27 -26 33 -32 13 -3 -9 -30 -5 -99 15 -52 14 -105 28 -118 29 -14 2 -26 9
-29 16 -6 19 47 15 144 -14 67 -19 93 -23 106 -15 14 9 37 0 115 -41 54 -28
144 -81 201 -116 73 -46 107 -61 114 -54 12 12 -75 72 -196 136 -38 20 -80 45
-95 54 -14 10 -39 23 -54 30 -15 7 -25 17 -22 22 10 16 -10 36 -73 71 -31 17
-67 40 -79 51 -28 26 -69 26 -94 2 -22 -23 -17 -33 41 -69 52 -33 41 -42 -31
-25 -28 7 -69 9 -94 6 -42 -7 -45 -6 -51 19 -8 31 2 85 20 110 16 22 46 14 46
-13 0 -18 18 -42 32 -42 4 0 8 18 8 39 0 50 35 94 93 115 54 20 164 14 232
-12z m925 -40 c0 -13 -86 -30 -118 -24 -25 6 2 13 111 31 4 0 7 -3 7 -7z
m-671 -13 c27 -6 55 -16 61 -24 6 -7 10 -51 10 -101 0 -49 0 -104 0 -122 0
-51 -7 -54 -58 -28 -26 13 -64 29 -84 35 -69 23 -157 70 -173 94 -19 30 -11
78 20 107 24 22 99 48 147 49 15 1 49 -4 77 -10z m517 -6 c-4 -4 -34 -15 -67
-24 l-59 -16 0 23 c0 23 3 24 67 24 36 0 63 -3 59 -7z m79 -43 c4 -6 -6 -10
-23 -10 -30 0 -123 -25 -154 -41 -22 -11 -28 -11 -28 1 0 16 42 33 110 46 86
16 88 16 95 4z m-1002 -78 c64 -42 82 -62 55 -62 -19 1 -87 33 -138 65 -41 26
-42 29 -25 41 10 7 23 10 29 6 6 -4 42 -27 79 -50z m651 6 c39 -30 45 -38 50
-83 6 -61 2 -222 -6 -231 -8 -8 -95 43 -101 59 -2 7 -2 52 -1 102 2 49 0 104
-5 121 -8 28 1 64 15 64 3 0 24 -15 48 -32z m321 12 c-3 -5 -15 -10 -26 -10
-11 0 -17 5 -14 10 3 6 15 10 26 10 11 0 17 -4 14 -10z m1212 -48 c18 -20 32
-42 33 -48 0 -23 -42 -65 -64 -62 -21 3 -24 13 -12 58 5 19 0 36 -19 64 l-26
38 28 -6 c15 -4 42 -24 60 -44z m-1298 -107 c25 -12 71 -30 101 -40 30 -10 60
-21 65 -25 6 -4 26 -13 46 -19 25 -8 40 -22 52 -46 18 -38 28 -43 47 -20 14
17 71 20 87 4 7 -7 28 -4 71 10 34 12 72 21 85 21 13 0 59 9 102 20 43 11 94
20 114 20 20 0 68 7 106 15 125 28 218 36 327 29 58 -4 112 -10 118 -14 9 -5
13 -63 14 -199 l1 -192 -70 -5 c-38 -2 -135 -13 -215 -24 -235 -32 -451 -52
-512 -47 -31 3 -60 1 -65 -3 -4 -5 -25 -12 -45 -15 -34 -7 -39 -5 -48 20 -14
36 -9 41 47 48 110 14 235 36 240 41 4 3 3 9 0 12 -8 9 -177 -14 -240 -32 -59
-16 -158 -8 -202 17 -16 9 -57 25 -89 35 -41 13 -75 33 -110 65 -28 25 -66 54
-83 63 l-33 17 0 133 c0 73 3 135 6 139 7 6 19 2 83 -28z m1396 -64 c3 -11 8
-72 10 -135 2 -64 5 -120 7 -124 2 -4 1 -38 -2 -77 l-5 -70 -16 30 c-12 22
-17 65 -19 160 -1 72 -4 148 -5 170 -2 45 3 65 15 65 5 0 11 -9 15 -19z
m-1105 -1 c0 -5 -7 -10 -15 -10 -8 0 -15 5 -15 10 0 6 7 10 15 10 8 0 15 -4
15 -10z m-517 -135 l37 -34 0 -85 c0 -48 -3 -86 -8 -86 -4 0 -24 11 -45 25
-32 22 -37 31 -37 65 0 46 5 48 37 18 13 -12 26 -18 30 -14 4 4 -7 21 -26 38
-32 30 -51 65 -51 94 0 23 23 16 63 -21z m215 -138 c45 -41 73 -58 129 -75
124 -39 158 -89 41 -59 -35 9 -83 18 -107 22 -23 3 -65 20 -92 38 -45 29 -49
35 -49 73 0 36 6 54 17 54 2 0 29 -24 61 -53z m-216 -82 c30 -20 38 -32 42
-67 14 -115 25 -2215 12 -2237 -3 -4 -33 -6 -67 -5 l-63 3 3 118 c3 135 4 147
2 303 -3 197 5 535 12 547 4 6 2 25 -4 43 -8 23 -9 38 0 56 6 13 7 34 3 46 -4
13 -6 212 -5 443 2 231 3 431 2 445 0 14 -1 32 -1 40 -2 51 5 276 9 283 7 11
16 9 55 -18z m179 -12 c22 -26 75 -44 204 -70 81 -16 135 -22 165 -18 37 6 43
4 32 -7 -10 -10 -49 -13 -155 -12 -139 0 -143 1 -208 32 -74 36 -94 54 -85 77
7 20 30 19 47 -2z m1396 -666 c1 -353 2 -716 1 -807 -1 -231 -1 -249 1 -390 1
-69 0 -195 -2 -280 l-3 -155 -46 -3 -47 -3 0 183 c0 101 0 192 0 203 0 11 -1
207 -2 435 -1 228 -1 426 0 440 1 51 11 296 12 310 1 8 -2 148 -5 310 -4 162
-3 315 1 340 8 41 11 46 43 51 19 4 37 7 40 8 3 0 6 -288 7 -642z m-1050 617
c-3 -3 -12 -4 -19 -1 -8 3 -5 6 6 6 11 1 17 -2 13 -5z m919 -137 c1 -73 2
-267 2 -432 1 -165 2 -311 3 -325 1 -14 1 -32 1 -40 -1 -8 -1 -26 -1 -40 -1
-14 0 -361 2 -772 2 -412 -1 -744 -5 -740 -5 5 -12 78 -18 163 -9 148 -10 279
-11 1009 0 184 0 369 -1 410 -3 369 -1 879 5 894 15 39 22 0 23 -127z m1194
118 c0 -25 -23 -35 -35 -14 -16 25 -119 -19 -109 -46 8 -21 -14 -45 -41 -45
-14 0 -26 -9 -34 -26 -6 -15 -15 -24 -18 -20 -7 7 22 67 55 112 12 17 22 37
22 44 0 9 10 11 33 7 17 -2 50 -1 72 3 22 4 43 8 48 9 4 0 7 -10 7 -24z
m-1261 -397 c0 -227 3 -579 5 -783 3 -203 5 -444 5 -535 0 -91 0 -178 0 -195
0 -16 0 -82 -1 -145 -1 -63 -1 -129 0 -147 0 -31 -1 -32 -51 -38 -55 -6 -105
-5 -176 2 l-43 5 5 42 c4 25 2 47 -5 54 -6 6 -8 21 -3 39 5 15 7 33 4 38 -2 6
-4 114 -6 240 -1 127 -4 466 -7 755 -3 289 -5 532 -5 540 0 8 0 114 0 235 0
137 4 224 10 232 6 7 8 17 5 22 -4 5 -1 13 6 18 17 11 140 30 205 32 l52 1 0
-412z m-1028 331 c94 -15 344 -1 547 31 45 7 85 10 89 7 3 -4 8 -247 9 -539 2
-293 6 -758 10 -1033 3 -275 7 -530 7 -567 1 -72 -5 -86 -25 -72 -7 5 -198 9
-425 9 l-412 0 2 180 c0 99 0 252 -1 340 0 88 -1 189 0 225 3 154 -13 1437
-18 1452 -10 34 7 36 74 7 38 -15 102 -34 143 -40z m721 16 c-3 -21 -4 -390
-3 -740 0 -115 1 -219 1 -230 -1 -11 2 -150 5 -310 3 -159 8 -389 10 -510 2
-121 6 -264 8 -318 2 -72 0 -101 -10 -109 -7 -6 -13 -27 -13 -47 0 -30 -17
-78 -21 -61 -1 3 -3 284 -4 625 -2 359 -7 637 -13 660 -5 22 -8 58 -6 80 3 22
6 240 8 485 3 540 2 502 24 498 10 -2 16 -11 14 -23z m1568 -14 c0 -5 -13 -14
-29 -21 -41 -16 -61 -41 -68 -83 -5 -31 -1 -40 25 -67 24 -24 39 -30 71 -30
44 0 51 -12 24 -42 -10 -12 -30 -18 -55 -18 -46 0 -48 -20 -3 -31 56 -16 125
42 125 103 0 31 -41 88 -63 88 -15 0 -17 -5 -12 -29 7 -33 -5 -45 -35 -36 -44
14 -37 85 13 115 126 77 261 -70 213 -232 -17 -57 -65 -127 -66 -95 0 25 -25
21 -45 -9 -22 -34 -77 -56 -134 -54 -61 3 -71 2 -71 -10 0 -5 12 -10 28 -10
15 0 34 -5 42 -10 33 -21 -78 -10 -131 14 -50 22 -149 111 -149 135 0 5 -2 15
-5 23 -11 28 53 14 87 -19 60 -59 79 -38 26 28 -29 36 -33 48 -34 112 -2 40 0
61 3 48 11 -51 51 -89 67 -63 3 4 0 28 -5 51 -11 50 -8 57 19 42 23 -12 42 3
42 33 0 33 49 76 87 76 18 0 33 -4 33 -9z m-290 -168 l0 -48 -21 33 c-12 17
-25 32 -30 32 -5 0 -9 7 -9 15 0 10 10 15 30 15 29 0 30 -1 30 -47z m-526
-322 c15 -22 63 -67 105 -100 l78 -61 -8 -51 c-7 -47 0 -91 36 -215 5 -17 0
-22 -33 -32 -70 -21 -120 -15 -198 24 -42 20 -76 44 -79 55 -4 10 -13 19 -21
19 -9 0 -14 11 -14 33 l1 32 16 -30 c24 -46 44 -65 96 -91 68 -35 196 -36 184
-1 -2 6 -25 10 -58 8 -73 -3 -158 39 -174 86 -5 17 -22 43 -37 57 -25 22 -28
32 -28 85 0 33 -4 63 -10 66 -16 10 -11 52 7 59 24 10 48 -19 48 -57 0 -34 22
-45 35 -17 4 8 12 25 18 37 16 30 15 33 -8 33 -25 0 -26 17 -3 42 15 16 15 21
3 28 -8 5 -18 6 -22 4 -4 -3 -8 -1 -8 5 0 10 16 19 36 20 6 1 23 -17 38 -38z
m831 19 c-3 -5 -13 -10 -21 -10 -8 0 -14 5 -14 10 0 6 9 10 21 10 11 0 17 -4
14 -10z m-3571 -1726 c8 -3 13 -11 10 -19 -7 -17 27 -25 121 -25 50 0 74 -4
65 -9 -16 -9 -299 -20 -550 -22 -182 -1 -172 -2 -168 18 3 14 29 16 243 18
132 1 243 3 248 4 15 2 6 22 -15 31 -22 8 -22 9 4 9 14 1 33 -2 42 -5z m737
-49 c1 -11 -1 -31 -5 -45 -4 -14 -1 -57 7 -95 10 -49 12 -78 5 -95 -5 -14 -10
-53 -10 -87 0 -61 0 -62 -29 -68 -36 -8 -50 0 -19 10 41 13 15 30 -46 30 -50
0 -59 -3 -58 -17 1 -13 -6 -18 -25 -19 -79 -4 -91 -4 -91 1 0 3 9 11 21 18 27
17 22 59 -11 83 -14 11 -49 25 -77 31 -29 7 -53 16 -53 20 0 17 53 20 79 5 32
-18 278 -34 300 -19 31 21 -2 32 -98 32 -54 0 -112 3 -130 6 l-31 6 20 26 c18
22 19 28 7 46 -28 41 -61 56 -142 65 -48 5 -64 9 -39 10 42 1 85 24 71 38 -5
4 -35 6 -68 5 -38 -3 -59 0 -59 7 0 13 161 15 420 7 24 -1 35 4 36 14 1 8 2
20 3 25 2 14 19 -16 22 -40z m1871 23 c-7 -7 -12 -8 -12 -2 0 14 12 26 19 19
2 -3 -1 -11 -7 -17z m-319 5 c-7 -2 -21 -2 -30 0 -10 3 -4 5 12 5 17 0 24 -2
18 -5z m995 0 c-16 -2 -40 -2 -55 0 -16 2 -3 4 27 4 30 0 43 -2 28 -4z m-824
-29 c9 -3 16 -14 16 -24 0 -14 -6 -16 -32 -11 -37 8 -53 41 -20 41 11 0 27 -3
36 -6z m171 -19 c0 -10 -6 -20 -12 -22 -8 -3 -13 5 -13 22 0 17 5 25 13 23 6
-3 12 -13 12 -23z m-1133 4 l405 -2 2 -51 c1 -28 6 -55 11 -60 11 -11 40 10
40 30 0 20 18 17 23 -3 17 -63 17 -75 1 -88 -15 -10 -21 -9 -38 11 -24 25 -66
41 -66 25 0 -6 -8 -11 -17 -10 -11 0 -13 3 -5 6 6 2 12 13 12 24 0 18 -9 19
-131 19 -77 0 -128 4 -124 9 3 5 53 8 113 6 111 -5 148 3 124 27 -9 9 -75 13
-255 14 -133 1 -291 6 -351 12 -107 10 -136 8 -136 -8 0 -15 13 -18 153 -31
75 -7 132 -16 126 -19 -10 -7 -130 -5 -249 4 l-55 4 -3 47 c-2 26 1 44 6 41 5
-3 191 -6 414 -7z m626 1 c-10 -6 -25 -7 -40 -1 -20 9 -18 10 17 10 31 0 36
-2 23 -9z m785 -9 c4 -15 -2 -20 -35 -24 -22 -3 -64 -3 -93 0 -49 5 -53 7 -42
24 10 16 24 19 88 19 67 0 77 -2 82 -19z m272 10 c9 -15 -30 -31 -72 -30 -22
1 -29 3 -18 6 11 3 24 11 28 19 9 16 53 19 62 5z m155 -11 c-6 -11 -14 -20
-19 -20 -5 0 -22 -3 -38 -6 -25 -5 -31 -2 -35 14 -8 29 -2 32 54 32 46 0 48
-1 38 -20z m740 -10 c-18 -12 -173 -14 -166 -2 3 5 45 9 93 10 62 2 83 -1 73
-8z m-633 -6 c-3 -3 -12 -4 -19 -1 -8 3 -5 6 6 6 11 1 17 -2 13 -5z m176 -1
c-7 -2 -21 -2 -30 0 -10 3 -4 5 12 5 17 0 24 -2 18 -5z m244 0 c-20 -2 -52 -2
-70 0 -17 2 0 4 38 4 39 0 53 -2 32 -4z m-3627 -14 c14 0 -6 -10 -45 -20 -87
-25 -80 -24 -197 -15 -100 7 -122 1 -98 -29 18 -22 0 -18 -24 4 -12 11 -33 22
-47 26 -26 7 -37 -2 -76 -61 -12 -18 -13 -18 -23 -1 -6 9 -19 18 -28 18 -9 1
-1 4 18 8 22 4 35 12 35 21 0 13 -33 14 -252 11 -167 -2 -253 0 -253 6 0 15
133 22 545 29 204 3 372 8 375 10 2 3 14 3 25 0 11 -3 31 -6 45 -7z m2066 -14
c-4 -13 -257 -7 -271 6 -6 6 44 8 133 7 89 -2 141 -7 138 -13z m177 -15 c9
-36 -7 -75 -31 -75 -21 0 -32 19 -12 21 6 1 15 2 20 3 20 2 9 32 -15 41 -34
13 -32 30 4 30 20 0 30 -6 34 -20z m722 0 c-16 -17 -30 -20 -104 -19 -47 1
-124 4 -171 8 l-85 8 85 3 c47 2 111 2 142 1 32 -1 64 2 72 6 8 4 29 9 47 10
31 2 31 2 14 -17z m-376 -8 c-7 -3 -19 -12 -25 -20 -9 -13 -14 -12 -40 4 l-28
19 39 5 c44 6 81 0 54 -8z m-2411 -36 c22 -21 25 -30 16 -44 -16 -25 -41 -26
-70 -3 -29 23 -77 27 -118 11 -42 -16 -31 -30 19 -23 36 5 46 3 51 -11 4 -9 4
-20 0 -23 -12 -12 -119 -4 -168 13 -63 21 -63 42 0 84 46 31 48 32 145 27 90
-4 101 -6 125 -31z m1117 24 c-3 -5 -23 -10 -43 -10 -28 0 -33 3 -22 10 20 13
73 13 65 0z m1729 -24 c-6 -16 -8 -17 -16 -2 -11 19 0 42 13 29 6 -6 7 -18 3
-27z m-939 -6 c0 -14 -113 -16 -203 -4 -38 6 -44 4 -49 -15 -4 -17 -8 -19 -19
-10 -8 6 -14 20 -14 31 0 19 7 19 143 15 109 -3 142 -7 142 -17z m-2697 3
c-10 -2 -28 -2 -40 0 -13 2 -5 4 17 4 22 1 32 -1 23 -4z m452 1 c0 -3 -9 -17
-20 -31 -11 -15 -18 -34 -15 -43 5 -14 -4 -18 -52 -23 -32 -3 -75 -9 -96 -13
-29 -5 -37 -4 -35 7 2 7 -9 16 -27 19 -24 5 -15 8 42 15 46 5 74 12 77 21 3 8
20 14 42 14 27 0 37 5 41 20 5 17 43 30 43 14z m1095 -8 c39 -3 172 -8 298
-12 125 -4 225 -10 221 -13 -3 -3 -100 -7 -215 -7 -116 -1 -213 -5 -217 -9 -4
-4 1 -12 10 -19 19 -14 14 -26 -9 -26 -7 0 -18 11 -23 24 -7 20 -18 26 -65 31
-38 5 -60 4 -68 -4 -15 -15 7 -31 46 -31 15 0 27 -4 27 -10 0 -10 -13 -13 -41
-11 -9 1 -24 -11 -35 -26 -18 -28 -18 -28 -23 -5 -10 39 -1 131 12 127 7 -2
44 -6 82 -9z m1890 1 c99 -2 110 -4 113 -21 4 -18 0 -18 -49 -11 -30 4 -98 8
-151 9 -54 1 -100 5 -104 8 -13 14 6 24 43 21 21 -2 87 -4 148 -6z m543 -6
c30 -1 42 -5 42 -16 0 -16 7 -17 200 -20 117 -2 123 -3 115 -15 -8 -13 -385
-14 -385 -1 0 5 5 11 12 13 6 2 8 10 4 16 -9 15 -52 16 -61 2 -3 -5 -42 -10
-86 -10 -70 0 -79 2 -79 18 0 10 2 21 4 23 2 2 46 1 98 -3 51 -3 112 -7 136
-7z m-3768 -12 c0 -5 -4 -9 -10 -9 -5 0 -10 7 -10 16 0 8 5 12 10 9 6 -3 10
-10 10 -16z m-380 -9 c7 -11 4 -20 -11 -32 -27 -23 -69 -23 -107 -1 -33 19
-62 12 -62 -15 0 -26 -65 -37 -117 -19 -108 35 9 87 190 84 75 -2 100 -6 107
-17z m3290 -25 c0 -28 -4 -35 -20 -35 -20 0 -26 22 -14 54 12 30 34 18 34 -19z
m-3075 13 c-11 -6 -22 -15 -25 -19 -3 -4 -31 -9 -63 -11 -58 -3 -79 -20 -32
-26 45 -6 26 -22 -25 -22 -54 0 -62 8 -30 28 11 7 20 23 20 37 0 25 1 25 88
25 70 -1 83 -3 67 -12z m3012 1 c13 -13 5 -51 -11 -46 -13 4 -21 57 -9 57 5 0
14 -5 20 -11z m-373 -31 c12 -45 7 -98 -9 -98 -9 0 -15 9 -15 21 0 21 -3 21
-95 15 l-95 -7 0 26 c0 15 -5 35 -10 46 -10 18 -6 19 103 19 110 0 115 -1 121
-22z m486 2 c0 -11 -6 -20 -14 -20 -18 0 -29 16 -21 30 11 18 35 11 35 -10z
m525 -6 c132 -2 247 -7 255 -11 8 -4 35 -8 60 -9 61 -3 251 -12 273 -13 10 -1
17 -9 17 -21 0 -23 -25 -27 -33 -6 -5 12 -54 15 -284 18 -153 2 -335 3 -405 3
-97 0 -128 3 -128 12 0 8 -15 14 -42 14 -24 1 -50 3 -58 4 -8 1 -34 3 -57 4
-24 0 -43 5 -43 10 0 15 26 17 119 8 47 -5 194 -10 326 -13z m-3565 6 c11 -7
2 -10 -32 -10 -27 0 -48 5 -48 10 0 13 60 13 80 0z m2160 0 c8 -5 11 -12 7
-17 -5 -4 -126 -9 -269 -10 -144 -1 -264 -5 -267 -9 -3 -3 2 -11 11 -18 13 -9
79 -15 215 -18 188 -5 201 -7 248 -32 28 -14 43 -26 34 -26 -9 0 -31 -3 -48
-6 -27 -6 -31 -4 -31 15 0 11 -6 21 -12 21 -7 0 -94 2 -193 4 -99 2 -197 5
-217 5 -35 1 -38 3 -38 31 0 22 -7 33 -27 45 -26 14 -4 15 254 13 156 -1 286
2 290 5 9 10 25 8 43 -3z m560 -10 c0 -12 -17 -12 -45 0 -17 7 -15 9 13 9 17
1 32 -3 32 -9z m-454 -27 c-10 -10 -19 5 -10 18 6 11 8 11 12 0 2 -7 1 -15 -2
-18z m597 13 c6 -16 -2 -28 -14 -20 -12 7 -11 34 0 34 5 0 11 -6 14 -14z
m1392 -6 c-3 -5 -10 -10 -16 -10 -5 0 -9 5 -9 10 0 6 7 10 16 10 8 0 12 -4 9
-10z m-1951 -39 c-6 -6 -24 19 -24 34 1 6 7 1 15 -9 8 -11 12 -22 9 -25z m801
33 c13 -5 14 -8 3 -15 -19 -13 -28 -11 -28 6 0 17 2 18 25 9z m-3039 -25 c-24
-19 -30 -20 -52 -9 -37 21 -29 30 27 30 l52 0 -27 -21z m1404 -5 c0 -8 -4 -12
-10 -9 -5 3 -10 13 -10 21 0 8 5 12 10 9 6 -3 10 -13 10 -21z m1690 16 c0 -5
-2 -10 -4 -10 -3 0 -8 5 -11 10 -3 6 -1 10 4 10 6 0 11 -4 11 -10z m-3531 -13
c12 -15 5 -27 -16 -27 -7 0 -13 9 -13 20 0 23 13 26 29 7z m921 -7 c128 -13
167 -35 125 -70 -34 -28 -215 -1 -246 36 -13 16 -95 19 -104 4 -3 -5 0 -19 7
-30 21 -33 -4 -42 -99 -36 -79 6 -153 33 -153 57 0 46 227 65 470 39z m1004
-2 c-8 -28 -12 -33 -20 -25 -9 8 6 47 17 47 6 0 7 -10 3 -22z m664 5 c2 -9 -9
-13 -37 -13 -39 0 -55 13 -28 24 21 8 60 2 65 -11z m459 5 c50 -22 57 -48 13
-48 -22 0 -30 5 -30 18 0 10 -5 23 -12 30 -15 15 -6 15 29 0z m-3177 -18 c0
-5 -5 -10 -11 -10 -5 0 -7 5 -4 10 3 6 8 10 11 10 2 0 4 -4 4 -10z m1914 4
c18 -7 21 -39 5 -49 -6 -4 -13 2 -16 13 -3 13 -11 18 -19 15 -14 -5 -19 8 -7
20 8 9 17 9 37 1z m1521 -14 c28 -1 139 -3 248 -3 178 0 197 -1 183 -15 -12
-12 -59 -16 -264 -20 -140 -3 -251 -1 -254 4 -3 5 -2 20 3 33 7 16 13 21 22
14 6 -5 35 -11 62 -13z m718 13 c46 -4 67 -10 67 -19 0 -18 -150 -20 -168 -2
-29 29 -15 32 101 21z m-3682 -18 c18 -12 -2 -24 -61 -36 -38 -7 -66 -20 -81
-35 -28 -30 -15 -50 23 -35 24 9 76 14 129 12 40 -1 42 -26 6 -64 -32 -34
-119 -67 -212 -81 -105 -15 -245 68 -217 129 11 24 103 75 137 75 11 0 32 8
45 17 14 10 37 16 51 15 15 -2 30 2 34 9 8 12 124 7 146 -6z m4113 -2 c-20
-15 -344 -19 -344 -5 0 18 15 19 186 19 148 -1 173 -3 158 -14z m-2580 -14
c-8 -14 -24 -10 -24 6 0 9 6 12 15 9 8 -4 12 -10 9 -15z m981 1 c-3 -5 -15
-10 -26 -10 -10 0 -19 5 -19 10 0 6 12 10 26 10 14 0 23 -4 19 -10z m-2925
-20 c0 -5 -4 -10 -9 -10 -6 0 -13 5 -16 10 -3 6 1 10 9 10 9 0 16 -4 16 -10z
m2323 -9 c81 -1 147 -4 147 -8 0 -5 -15 -15 -33 -23 -19 -9 -34 -25 -37 -40
l-6 -25 -204 0 c-321 -1 -410 -4 -410 -15 0 -22 46 -32 139 -30 81 1 510 2
534 0 4 0 7 -4 7 -10 0 -6 -118 -10 -332 -10 -183 0 -339 -4 -347 -9 -32 -20
3 -31 107 -32 96 -1 101 -2 52 -10 -85 -12 -195 -5 -193 12 1 8 5 41 9 74 4
33 6 65 4 70 -4 14 -1 57 5 63 6 6 45 -28 45 -40 0 -4 -7 -8 -15 -8 -8 0 -15
-6 -15 -14 0 -18 82 -31 109 -17 11 6 33 8 50 5 24 -5 32 -3 37 12 4 11 18 30
32 44 23 24 28 25 96 18 39 -4 137 -7 219 -7z m2277 9 c0 -5 -7 -10 -16 -10
-8 0 -12 5 -9 10 3 6 10 10 16 10 5 0 9 -4 9 -10z m150 0 c11 -7 2 -10 -32
-10 -27 0 -48 5 -48 10 0 13 60 13 80 0z m-4248 -16 c27 -14 29 -18 15 -26
-19 -10 -71 18 -61 33 7 12 10 12 46 -7z m3473 -23 c-3 -12 -11 -21 -17 -21
-5 0 -7 7 -4 16 3 9 6 23 6 32 0 12 3 13 11 5 6 -6 8 -20 4 -32z m541 12 c10
-6 36 -13 57 -17 23 -4 37 -12 34 -19 -5 -15 -95 -21 -111 -8 -8 7 -100 12
-239 13 -199 3 -227 5 -227 19 0 9 3 19 7 23 11 10 456 0 479 -11z m-4567 -9
c10 -9 -10 -16 -64 -21 -46 -5 -57 -3 -53 8 6 18 46 28 83 22 17 -3 32 -7 34
-9z m956 2 l30 -13 -47 -8 c-52 -8 -70 -2 -61 20 6 18 38 19 78 1z m1973 4
c51 -6 107 -17 125 -27 l32 -16 -30 -9 c-16 -5 -86 -13 -155 -18 -69 -5 -163
-16 -209 -25 -89 -15 -158 -8 -182 21 -17 20 -4 31 59 50 103 31 221 39 360
24z m257 0 c14 -5 23 -14 20 -20 -4 -7 -12 -7 -25 0 -10 5 -32 10 -49 10 -17
0 -31 5 -31 10 0 13 51 13 85 0z m645 -9 c5 -11 7 -22 3 -24 -13 -7 -482 -1
-489 6 -16 16 15 20 212 23 113 1 209 5 212 8 13 13 52 5 62 -13z m-3161 -27
c2 -2 -1 -9 -7 -16 -5 -7 -12 -24 -14 -38 -3 -23 -7 -25 -50 -25 -25 0 -50 -4
-54 -8 -15 -14 20 -27 75 -27 85 0 55 -9 -55 -16 l-99 -7 38 42 c21 23 42 53
47 67 6 14 14 23 19 19 6 -3 16 1 23 10 11 13 62 12 77 -1z m4151 5 c0 -10
-61 -22 -86 -17 -9 1 -19 8 -21 14 -2 7 16 11 52 11 30 0 55 -4 55 -8z m-654
-40 c24 -6 47 -16 51 -22 19 -32 -125 -85 -267 -98 -98 -9 -186 -3 -196 12 -3
5 -18 9 -33 9 -29 0 -92 36 -98 57 -7 21 36 34 135 39 85 5 102 3 137 -15 65
-35 185 -25 185 14 0 18 26 19 86 4z m287 3 c47 -2 57 -5 57 -20 0 -24 50 -52
93 -52 20 0 38 -4 41 -9 9 -14 -46 -23 -90 -14 -62 13 -326 4 -321 -10 2 -7
19 -15 38 -18 28 -5 29 -7 8 -8 -14 0 -54 -4 -88 -7 -69 -8 -84 7 -26 26 18 6
50 22 70 36 20 13 39 23 43 20 4 -2 55 -7 113 -11 77 -5 109 -3 114 5 14 23
-12 29 -123 31 -93 1 -114 4 -121 18 -8 14 -1 16 62 16 40 -1 98 -2 130 -3z
m-4448 -33 l16 -30 -71 2 c-39 1 -73 7 -77 12 -4 6 9 8 35 5 48 -7 76 13 45
31 -16 9 -15 10 9 11 21 0 31 -8 43 -31z m762 -3 c-6 -37 4 -51 38 -58 14 -2
20 -11 20 -28 l0 -25 -280 -2 c-226 -2 -276 0 -260 10 14 9 87 12 260 12 205
0 240 3 240 15 0 9 -8 14 -20 13 -11 -2 -31 0 -45 3 l-25 6 25 18 c14 10 25
25 26 32 3 33 5 38 15 38 8 0 10 -12 6 -34z m2791 25 c6 -1 12 -12 12 -25 0
-23 50 -76 71 -76 6 0 8 -4 5 -8 -5 -8 -98 -7 -241 1 -46 3 -50 5 -53 32 -3
26 -2 27 25 21 63 -15 160 -19 168 -7 4 7 5 15 1 18 -9 9 -97 24 -150 26 -27
1 -51 7 -53 13 -3 10 104 12 215 5z m1097 -10 c8 -14 -7 -20 -37 -14 -15 3
-25 9 -22 14 7 12 51 12 59 0z m-1437 -33 c24 -11 46 -27 49 -35 9 -22 -34
-60 -82 -72 -46 -12 -160 -13 -209 -2 -50 10 -43 29 14 37 54 7 67 16 47 32
-8 6 -36 6 -79 0 -83 -11 -230 -7 -234 7 -2 6 12 18 32 28 26 13 62 17 147 18
62 1 123 5 137 10 38 12 129 1 178 -23z m1585 22 c-12 -5 -34 -5 -50 0 -24 7
-21 8 22 9 38 0 45 -2 28 -9z m-3618 -30 c57 -25 57 -42 -3 -85 -39 -26 -53
-30 -126 -33 -88 -4 -170 12 -163 31 2 7 21 14 43 17 26 3 39 10 39 20 0 11
-12 15 -47 15 -83 0 -86 39 -3 48 116 11 214 7 260 -13z m1475 -41 l22 -30
-103 1 c-163 2 -169 1 -169 -14 0 -14 28 -29 46 -25 5 1 27 0 49 -1 l40 -2
-35 -10 c-19 -5 -39 -14 -44 -19 -18 -17 -42 -9 -72 22 -16 17 -37 35 -46 40
-27 14 -75 -15 -92 -56 -8 -19 -22 -35 -31 -35 -13 0 -14 4 -5 20 6 11 8 25 5
30 -3 5 6 12 20 16 22 5 25 11 21 31 l-7 24 168 -2 c160 -1 168 0 181 20 19
28 27 27 52 -10z m2100 11 c0 -5 -4 -10 -10 -10 -5 0 -10 5 -10 10 0 6 5 10
10 10 6 0 10 -4 10 -10z m-3175 -44 c16 -8 78 -17 151 -21 77 -5 121 -11 118
-17 -4 -7 -36 -7 -88 -3 -44 5 -111 8 -148 9 -64 0 -68 2 -68 23 0 27 0 27 35
9z m2927 8 c3 -3 4 -13 1 -22 -3 -15 -13 -17 -66 -11 -34 3 -78 13 -97 21
l-35 16 96 1 c53 1 98 -2 101 -5z m-3202 -39 c0 -8 -9 -10 -24 -8 -18 4 -26 0
-31 -16 -5 -17 -15 -21 -47 -21 l-40 0 48 39 c41 33 52 37 71 28 13 -6 23 -16
23 -22z m183 -47 c-15 -31 -43 -41 -94 -36 -32 3 -34 5 -31 38 7 64 42 83 43
23 0 -33 1 -35 9 -15 6 12 18 22 30 22 11 0 25 9 32 20 13 20 13 20 19 -2 3
-13 0 -35 -8 -50z m1382 62 c7 -12 -4 -14 -63 -10 -27 1 -50 -4 -60 -13 -13
-11 -28 -13 -62 -7 l-45 7 41 2 c23 0 47 8 54 16 14 17 125 21 135 5z m473
-13 c13 8 41 9 97 2 43 -4 140 -9 214 -9 131 -1 409 -15 364 -18 -12 -1 -24
-6 -28 -11 -3 -5 -38 -8 -78 -5 -39 2 -196 4 -349 4 -152 -1 -278 3 -281 7 -3
4 -1 19 4 32 9 23 10 23 24 5 11 -16 17 -17 33 -7z m-3144 -6 c4 -5 53 -8 111
-7 58 1 107 1 110 -2 2 -2 -5 -17 -17 -32 -17 -24 -20 -37 -14 -84 3 -34 2
-56 -4 -56 -6 0 -10 9 -10 20 0 14 -7 20 -21 20 -16 0 -19 4 -14 20 8 25 -20
38 -46 22 -23 -15 -69 1 -69 23 0 13 12 15 69 13 70 -3 97 6 71 22 -20 13
-117 13 -125 0 -9 -15 -17 -12 -55 20 -30 27 -32 30 -13 30 12 0 24 -4 27 -9z
m1961 -1 c14 -6 5 -8 -33 -8 -29 0 -55 5 -58 9 -7 11 64 10 91 -1z m-1293 -24
l33 -14 -40 -2 c-22 -1 -105 -2 -184 -3 -105 -1 -145 -5 -148 -14 -4 -10 48
-13 239 -13 233 0 301 -7 247 -26 -13 -4 -124 -8 -246 -9 -122 0 -224 -3 -228
-7 -13 -13 61 -19 262 -21 111 -2 205 -6 209 -10 4 -4 -33 -7 -82 -7 -198 0
-374 -13 -374 -27 0 -7 -6 -13 -14 -13 -7 0 -19 -7 -26 -15 -7 -8 -21 -15 -32
-15 -17 0 -17 3 7 37 29 43 32 94 10 137 -8 15 -15 32 -15 36 0 15 345 2 382
-14z m486 13 c-2 -6 -8 -10 -13 -10 -5 0 -11 4 -13 10 -2 6 4 11 13 11 9 0 15
-5 13 -11z m2986 5 c27 -10 18 -22 -23 -29 -69 -12 -81 -56 -21 -77 27 -9 30
-14 25 -37 -3 -15 -1 -40 4 -54 7 -17 7 -27 1 -27 -6 0 -10 4 -10 10 0 5 -33
7 -82 3 -133 -9 -248 34 -248 93 0 26 50 71 88 80 15 3 52 14 82 24 54 18 154
26 184 14z m-1980 -29 c20 -30 20 -35 0 -35 -18 0 -43 27 -44 48 0 21 27 13
44 -13z m884 -2 c3 -10 -22 -13 -104 -13 -126 0 -133 17 -9 23 105 4 108 4
113 -10z m1222 5 c0 -6 8 -20 18 -31 17 -19 16 -20 -33 -12 -27 4 -51 8 -53
10 -2 2 1 13 8 24 11 22 60 30 60 9z m-2667 -11 c48 -1 87 -6 87 -11 0 -12
-322 3 -335 15 -7 7 19 8 75 4 47 -3 124 -7 173 -8z m1197 3 c21 -7 18 -8 -18
-9 -26 -1 -41 3 -37 9 7 11 19 11 55 0z m-1010 -16 c0 -2 -16 -4 -35 -4 -19 0
-35 4 -35 8 0 4 16 6 35 4 19 -2 35 -6 35 -8z m704 5 c83 -15 136 -43 136 -73
0 -32 -19 -45 -91 -62 -77 -18 -273 -28 -314 -16 -37 10 -44 37 -16 63 12 11
21 24 21 29 0 6 7 10 15 10 8 0 23 9 33 21 35 37 111 47 216 28z m186 0 c-28
-5 -48 -5 -54 1 -7 7 9 10 45 9 l54 -1 -45 -9z m-832 -6 c-10 -2 -26 -2 -35 0
-10 3 -2 5 17 5 19 0 27 -2 18 -5z m1700 -18 c16 -16 -69 -25 -284 -30 -368
-9 -584 -12 -584 -9 0 1 -2 9 -5 17 -5 12 25 13 197 9 166 -3 209 -1 238 11
29 13 71 15 235 11 109 -3 201 -7 203 -9z m120 -13 c3 -10 -6 -12 -34 -10 -20
2 -39 9 -42 16 -3 10 6 12 34 10 20 -2 39 -9 42 -16z m517 7 c11 -17 2 -18
-30 -4 l-30 13 27 1 c15 1 30 -4 33 -10z m-3292 -6 c-7 -2 -19 -2 -25 0 -7 3
-2 5 12 5 14 0 19 -2 13 -5z m2842 -3 c-3 -5 -12 -7 -20 -3 -21 7 -19 13 6 13
11 0 18 -4 14 -10z m-2568 -31 l65 -31 25 24 c22 20 34 23 113 23 72 0 92 -3
109 -19 29 -26 27 -40 -11 -81 l-33 -35 -150 -14 c-82 -7 -203 -15 -267 -16
l-118 -1 -17 35 c-30 63 10 108 115 131 85 19 98 18 169 -16z m533 22 c33 -1
41 -4 30 -11 -23 -15 -175 -13 -188 3 -8 9 3 12 51 10 34 -1 82 -2 107 -2z
m480 0 c0 -5 -7 -11 -15 -15 -15 -5 -20 5 -8 17 9 10 23 9 23 -2z m-292 -17
c-10 -10 -23 -14 -37 -9 -34 10 -24 25 16 25 34 0 36 -1 21 -16z m156 -6 c26
-37 10 -42 -66 -21 -39 10 -16 38 34 42 9 0 24 -9 32 -21z m1694 -43 c-7 -7
-174 -9 -185 -2 -5 3 -23 3 -39 -2 -16 -4 -43 -4 -61 -1 -17 4 -35 4 -40 -1
-13 -13 -723 -13 -736 0 -6 6 -9 12 -6 15 5 5 759 19 909 17 64 -1 122 3 130
8 11 8 17 6 24 -9 5 -11 7 -22 4 -25z m-3478 15 c0 -5 -4 -10 -10 -10 -5 0
-10 5 -10 10 0 6 5 10 10 10 6 0 10 -4 10 -10z m1550 1 c0 -4 -11 -6 -25 -3
-14 2 -25 6 -25 8 0 2 11 4 25 4 14 0 25 -4 25 -9z m124 -26 c18 -14 17 -15
-22 -15 -39 0 -51 8 -35 23 11 11 37 7 57 -8z m-1134 -15 c0 -12 -102 -12
-175 0 -41 6 -31 8 63 9 69 0 112 -3 112 -9z m-619 -40 c8 0 19 -4 25 -10 5
-5 59 -12 118 -15 60 -2 111 -7 114 -10 5 -4 -39 -8 -73 -7 -5 0 -67 4 -137 7
l-127 7 15 30 c14 28 17 29 33 14 10 -9 24 -16 32 -16z m1469 21 c0 -9 -89 -5
-98 4 -3 3 18 5 46 5 29 0 52 -4 52 -9z m2140 -6 c11 -13 5 -15 -49 -15 -72 0
-82 17 -13 23 26 2 48 4 48 5 1 1 7 -5 14 -13z m-990 -4 c15 -1 20 -5 15 -10
-6 -6 -99 -11 -207 -13 -108 -2 -194 -1 -191 2 17 18 190 27 383 21z m550 -2
c0 -5 -103 -8 -252 -7 -139 1 -221 4 -183 7 121 10 435 10 435 0z m310 3 c0
-4 -53 -8 -117 -9 -76 -1 -112 1 -103 7 18 12 220 13 220 2z m-2833 -24 c7 -6
10 -14 7 -19 -7 -13 -48 -11 -61 2 -6 6 -60 12 -124 13 -213 5 -215 6 -199 16
19 13 360 2 377 -12z m1373 7 c34 -13 34 -13 -40 -14 -70 0 -73 1 -50 14 30
17 45 17 90 0z m-201 -11 c2 -2 -21 -4 -53 -4 -37 0 -55 4 -51 10 6 10 92 4
104 -6z m-454 -4 c3 -5 -3 -10 -14 -10 -12 0 -21 5 -21 10 0 6 6 10 14 10 8 0
18 -4 21 -10z"/>
<path d="M1862 1467 c-6 -7 -10 -26 -9 -42 2 -27 -2 -30 -31 -35 -41 -6 -41
-22 0 -36 31 -10 33 -13 34 -65 1 -30 2 -58 4 -64 1 -5 2 -29 1 -52 l-1 -43
-40 0 c-49 0 -55 -24 -9 -34 35 -7 49 -1 49 18 0 8 8 16 19 19 13 3 20 17 24
48 5 42 2 216 -5 268 -4 29 -20 37 -36 18z"/>
<path d="M2465 7340 c-3 -5 1 -20 10 -34 10 -15 15 -40 13 -63 l-3 -38 -58 -3
c-36 -2 -64 2 -73 9 -18 14 -29 5 -38 -32 -8 -35 1 -41 30 -22 29 18 122 12
136 -9 15 -24 9 -106 -8 -116 -18 -10 -12 -16 27 -26 36 -8 58 17 41 45 -16
25 -15 81 1 102 10 15 20 16 72 7 33 -5 63 -10 68 -10 9 0 10 64 0 73 -3 4
-14 0 -24 -9 -12 -11 -32 -14 -70 -12 l-54 3 0 73 0 72 -32 0 c-17 0 -35 -4
-38 -10z"/>
<path d="M2287 6604 c-3 -4 3 -14 13 -23 17 -14 20 -32 22 -164 2 -131 1 -150
-15 -162 -29 -21 -20 -25 57 -25 76 0 97 9 72 29 -20 17 -4 85 31 135 48 68
61 63 181 -67 35 -37 60 -72 56 -78 -12 -20 20 -28 81 -22 71 7 74 9 50 27
-16 11 -18 32 -21 182 l-3 169 -28 1 c-15 1 -39 -2 -53 -6 -21 -6 -22 -9 -7
-15 13 -5 17 -19 18 -59 0 -28 4 -75 8 -103 4 -29 4 -53 1 -53 -9 0 -132 130
-151 160 -21 32 -40 23 -109 -55 -30 -33 -57 -61 -62 -63 -4 -2 -8 32 -8 75 0
120 -2 123 -69 123 -32 0 -60 -3 -64 -6z"/>
<path d="M1950 6510 c0 -11 19 -17 83 -25 40 -5 57 -4 57 4 0 15 -12 18 -82
24 -32 3 -58 2 -58 -3z"/>
<path d="M2560 6140 c-11 -27 -14 -29 -25 -14 -14 20 -35 11 -35 -15 0 -26 21
-43 37 -29 11 8 20 5 41 -15 30 -29 77 -36 112 -17 13 7 21 7 25 0 12 -19 35
-10 35 14 0 34 -21 49 -46 32 -59 -40 -114 -20 -114 42 0 40 -14 41 -30 2z"/>
<path d="M2874 6125 c-7 -30 -1 -40 21 -32 20 8 20 57 0 57 -8 0 -17 -11 -21
-25z"/>
<path d="M2345 6130 c3 -5 17 -10 31 -10 14 0 22 4 19 10 -3 6 -17 10 -31 10
-14 0 -22 -4 -19 -10z"/>
<path d="M2280 6102 c0 -10 11 -29 25 -42 22 -21 29 -23 55 -13 23 9 32 8 41
-3 15 -18 63 -18 79 1 16 19 5 34 -20 28 -14 -4 -20 0 -20 11 0 13 -11 16 -59
16 -33 0 -63 5 -66 10 -10 17 -35 11 -35 -8z"/>
<path d="M2806 6094 c-20 -11 -25 -19 -18 -26 12 -12 62 14 62 32 0 13 -10 12
-44 -6z"/>
<path d="M1995 5716 c-36 -26 -1 -127 53 -147 44 -17 72 2 72 50 0 43 -3 47
-63 86 -45 29 -39 28 -62 11z m85 -98 c0 -13 -22 -9 -42 9 -32 28 -22 46 12
21 17 -12 30 -25 30 -30z"/>
<path d="M2016 5391 c-26 -27 -27 -31 -16 -72 26 -99 33 -111 79 -131 50 -21
66 -14 76 32 9 39 -16 92 -59 125 -20 15 -36 36 -36 46 0 30 -15 30 -44 0z
m67 -96 c40 -37 48 -65 18 -65 -23 0 -36 15 -56 63 -19 46 -10 46 38 2z"/>
<path d="M2505 5589 c-4 -6 -4 -13 -1 -16 8 -8 36 5 36 17 0 13 -27 13 -35 -1z"/>
<path d="M2470 5535 c-10 -12 -9 -16 3 -21 17 -6 57 12 57 26 0 16 -46 12 -60
-5z"/>
<path d="M2480 5418 c-24 -9 -25 -10 -5 -24 17 -12 21 -12 34 1 21 21 3 36
-29 23z"/>
<path d="M2560 5290 c0 -5 5 -10 10 -10 6 0 10 5 10 10 0 6 -4 10 -10 10 -5 0
-10 -4 -10 -10z"/>
<path d="M2564 5159 c-30 -11 -37 -25 -24 -49 13 -25 38 -26 56 -2 29 37 10
67 -32 51z"/>
<path d="M2570 5049 c0 -5 5 -7 10 -4 6 3 10 8 10 11 0 2 -4 4 -10 4 -5 0 -10
-5 -10 -11z"/>
<path d="M2560 5010 c0 -5 7 -10 15 -10 8 0 15 5 15 10 0 6 -7 10 -15 10 -8 0
-15 -4 -15 -10z"/>
<path d="M2565 4951 c-6 -11 9 -23 19 -14 9 9 7 23 -3 23 -6 0 -12 -4 -16 -9z"/>
<path d="M2558 4889 c-32 -18 -17 -79 19 -79 7 0 20 14 28 31 24 46 -4 74 -47
48z"/>
<path d="M2575 4719 c-10 -15 3 -25 16 -12 7 7 7 13 1 17 -6 3 -14 1 -17 -5z"/>
<path d="M2805 4630 c-3 -5 3 -10 14 -10 12 0 21 5 21 10 0 6 -6 10 -14 10 -8
0 -18 -4 -21 -10z"/>
<path d="M2323 4623 c-21 -8 -15 -32 10 -38 38 -9 111 8 115 28 3 15 -5 17
-55 16 -32 0 -64 -3 -70 -6z"/>
<path d="M2298 4563 c-33 -3 -48 -9 -48 -18 0 -21 19 -29 80 -36 46 -5 40 -6
-42 -8 -94 -1 -123 -10 -100 -33 6 -6 48 -12 95 -15 78 -5 86 -4 107 17 13 13
20 29 17 41 -3 10 1 23 9 30 8 6 11 15 8 20 -5 9 -31 9 -126 2z"/>
<path d="M2625 4471 c-7 -12 12 -24 25 -16 11 7 4 25 -10 25 -5 0 -11 -4 -15
-9z"/>
<path d="M2547 4343 c-17 -16 13 -23 104 -23 72 0 99 3 99 13 0 9 -28 13 -99
14 -54 1 -101 0 -104 -4z"/>
<path d="M3542 3841 c-45 -42 -43 -90 7 -116 24 -12 31 -11 59 7 38 23 41 53
12 91 -11 14 -20 30 -20 36 0 20 -25 12 -58 -18z m44 -56 c7 -29 1 -41 -15
-30 -14 8 -14 55 -1 55 5 0 12 -11 16 -25z"/>
<path d="M2752 3958 c5 -15 37 -18 41 -3 1 6 -9 12 -22 13 -16 3 -22 -1 -19
-10z"/>
<path d="M2850 3960 c-8 -5 -12 -12 -9 -15 8 -8 39 5 39 16 0 11 -11 11 -30
-1z"/>
<path d="M3020 3114 c-35 -32 -40 -42 -40 -79 0 -79 69 -132 130 -100 40 21
38 48 -6 97 -31 34 -35 45 -30 73 9 48 -7 51 -54 9z m52 -146 c-17 -17 -42 9
-42 44 l0 30 26 -32 c20 -23 24 -34 16 -42z"/>
<path d="M3001 2799 c-17 -23 -31 -49 -31 -56 0 -28 33 -85 55 -95 33 -15 87
3 105 36 15 27 14 28 -27 64 -23 20 -43 48 -45 61 -5 39 -25 35 -57 -10z m62
-77 c23 -20 22 -42 -3 -42 -20 0 -40 27 -40 55 0 17 11 14 43 -13z"/>
<path d="M3028 1914 c-32 -17 -48 -43 -48 -78 0 -19 10 -31 43 -51 52 -30 68
-31 90 -7 24 26 21 55 -8 82 -14 13 -25 34 -25 47 0 26 -14 28 -52 7z m34 -61
c18 -16 25 -63 10 -63 -20 0 -52 34 -52 56 0 28 16 31 42 7z"/>
<path d="M2616 3628 c-21 -29 -20 -48 2 -49 22 -1 76 -65 62 -74 -6 -3 -18 7
-28 24 -9 17 -23 31 -29 31 -20 0 -15 -45 8 -74 17 -22 28 -27 58 -24 34 3 36
5 39 40 3 30 -2 43 -24 65 -15 14 -30 38 -34 52 -9 34 -34 38 -54 9z"/>
<path d="M2306 3351 c-9 -10 -21 -34 -27 -54 -8 -29 -6 -41 11 -70 12 -21 32
-38 48 -42 15 -4 35 -13 44 -22 15 -13 18 -12 33 11 24 37 12 70 -38 103 -31
22 -42 36 -42 56 -1 36 -9 41 -29 18z m74 -123 c0 -13 -24 -9 -48 8 -34 24
-26 36 13 17 19 -9 35 -20 35 -25z"/>
<path d="M2064 2285 c-38 -38 -28 -106 19 -124 63 -24 85 -23 102 3 16 25 16
28 -9 71 -15 25 -33 45 -41 45 -8 0 -15 4 -15 9 0 21 -33 19 -56 -4z m63 -57
c30 -28 29 -48 -2 -48 -24 0 -45 25 -45 54 0 22 20 20 47 -6z"/>
<path d="M2066 2004 c-16 -20 -29 -41 -29 -48 -1 -41 8 -58 48 -91 35 -28 51
-36 70 -31 55 14 51 70 -9 125 -16 15 -26 35 -26 53 0 38 -19 35 -54 -8z m60
-84 c15 -22 24 -43 20 -47 -12 -12 -61 34 -64 60 -5 39 14 33 44 -13z"/>
<path d="M2352 1957 c-12 -13 -22 -30 -22 -38 0 -18 63 -80 108 -105 l34 -19
19 24 c13 16 17 31 13 50 -9 37 -12 40 -49 55 -18 8 -38 24 -45 35 -14 27 -31
27 -58 -2z m96 -76 c14 -17 16 -31 4 -31 -15 0 -82 62 -77 71 7 10 52 -16 73
-40z"/>
<path d="M4589 3675 c17 -20 31 -45 31 -55 0 -11 7 -20 15 -20 10 0 15 10 15
27 0 32 -45 83 -73 83 -17 0 -15 -5 12 -35z"/>
<path d="M4305 3569 c-8 -12 11 -29 33 -29 19 0 10 34 -10 38 -9 2 -19 -2 -23
-9z"/>
<path d="M4622 3538 c-7 -7 -12 -20 -12 -31 0 -24 33 -19 38 7 5 24 -11 39
-26 24z"/>
<path d="M4190 3442 c0 -12 44 -52 58 -52 18 0 14 25 -6 43 -19 18 -52 23 -52
9z"/>
<path d="M3566 3113 c-24 -25 16 -99 71 -130 48 -27 98 -34 98 -13 0 9 -11 16
-30 18 -36 4 -70 34 -96 84 -20 39 -32 51 -43 41z"/>
<path d="M1340 1506 c0 -12 10 -17 38 -18 40 -2 76 -4 164 -9 36 -3 61 0 69 8
7 7 11 15 8 17 -2 2 -66 7 -141 11 -124 7 -138 6 -138 -9z"/>
<path d="M1420 1450 c0 -19 42 -31 107 -29 67 2 98 13 87 30 -7 12 -194 12
-194 -1z"/>
<path d="M1434 1279 c-11 -19 9 -27 89 -31 63 -4 80 -2 84 9 3 8 0 19 -8 24
-20 13 -156 11 -165 -2z"/>
<path d="M910 1350 c0 -5 5 -10 10 -10 6 0 10 5 10 10 0 6 -4 10 -10 10 -5 0
-10 -4 -10 -10z"/>
<path d="M3027 1344 c-4 -4 -7 -14 -7 -21 0 -11 16 -13 73 -11 56 2 72 6 72
18 0 12 -15 16 -65 18 -36 2 -69 0 -73 -4z"/>
<path d="M2225 1180 c-5 -8 -1 -18 10 -26 14 -10 59 -13 184 -11 149 2 166 4
169 20 3 15 -8 17 -125 17 -70 0 -151 3 -179 6 -36 5 -54 3 -59 -6z"/>
<path d="M735 1120 c-10 -16 45 -33 61 -19 8 6 11 15 8 20 -7 12 -61 11 -69
-1z"/>
<path d="M4645 6557 c-133 -39 -202 -84 -286 -190 -36 -45 -73 -141 -67 -173
2 -11 -17 -22 -72 -39 -91 -29 -178 -81 -162 -97 8 -8 25 -2 62 22 28 18 64
33 81 35 16 1 35 7 42 14 18 18 89 13 124 -9 43 -26 67 -73 58 -117 -7 -37
-36 -73 -59 -73 -20 0 -48 30 -42 46 8 21 -19 37 -34 19 -19 -23 -4 -63 31
-81 29 -15 35 -14 75 1 50 19 46 15 73 82 l20 51 -20 40 c-15 30 -33 47 -66
63 -51 25 -69 55 -58 96 4 15 10 22 12 16 10 -26 34 -11 55 33 12 26 42 66 67
90 27 26 39 44 31 44 -24 0 -90 -59 -123 -109 -25 -40 -28 -42 -23 -17 19 79
143 184 269 226 56 19 81 22 150 17 45 -3 107 -13 137 -23 50 -17 55 -22 58
-51 2 -18 2 -33 0 -33 -2 0 -25 7 -52 15 -56 17 -130 20 -121 5 3 -5 21 -10
38 -10 18 0 51 -7 75 -15 24 -9 48 -13 53 -10 5 4 9 -3 9 -15 0 -20 -3 -21
-47 -14 -65 10 -182 9 -193 -2 -5 -5 31 -9 88 -9 72 0 107 -5 135 -18 l38 -18
-3 93 -3 92 -60 19 c-97 29 -196 31 -290 4z"/>
<path d="M4725 6513 c-65 -10 -41 -19 50 -20 66 0 95 3 92 11 -4 11 -89 17
-142 9z"/>
<path d="M4550 6460 c-8 -5 -12 -11 -9 -14 3 -3 14 1 25 9 21 16 8 20 -16 5z"/>
<path d="M4644 6430 c-32 -13 -43 -34 -13 -25 45 14 69 25 69 30 0 8 -32 5
-56 -5z"/>
<path d="M4552 6384 c-21 -15 -30 -34 -14 -34 4 1 21 12 37 25 34 28 14 35
-23 9z"/>
<path d="M4597 6344 c-16 -9 -27 -17 -25 -19 8 -8 62 11 66 23 5 16 -7 15 -41
-4z"/>
<path d="M4466 6311 c-15 -17 -13 -31 5 -31 13 0 30 38 20 44 -4 3 -16 -3 -25
-13z"/>
<path d="M4278 6074 c-31 -16 -39 -41 -10 -28 9 4 29 7 45 6 30 -1 38 22 11
32 -19 7 -13 8 -46 -10z"/>
<path d="M4013 6031 c-26 -28 -59 -96 -74 -153 -10 -38 -11 -55 -1 -81 7 -18
12 -53 12 -76 0 -97 89 -212 207 -267 60 -27 85 -33 145 -34 40 -1 96 3 124 9
71 14 168 62 172 84 3 16 -2 15 -47 -8 -132 -67 -249 -70 -375 -10 -101 48
-157 118 -177 220 -11 57 8 208 33 267 24 57 14 84 -19 49z"/>
<path d="M4198 6019 c-18 -10 -25 -39 -10 -39 5 0 19 11 32 25 25 26 12 34
-22 14z"/>
<path d="M4108 5983 c-46 -50 -63 -103 -33 -103 9 0 20 12 25 26 6 14 21 40
35 58 22 29 24 46 5 46 -3 0 -18 -12 -32 -27z"/>
<path d="M4132 5877 c-19 -23 -23 -72 -8 -92 19 -27 28 -15 32 44 3 51 -6 70
-24 48z"/>
<path d="M1420 5854 c-15 -39 -12 -65 13 -109 15 -26 33 -43 52 -49 17 -4 38
-12 47 -17 28 -14 52 31 44 83 -9 53 -31 78 -67 78 -18 0 -32 7 -39 20 -15 28
-39 25 -50 -6z m55 -44 c3 -5 19 -10 35 -10 23 0 31 -5 36 -24 8 -35 -2 -46
-41 -46 -38 0 -65 28 -65 67 0 23 23 32 35 13z"/>
<path d="M4047 5773 c-30 -29 37 -173 80 -173 19 0 16 12 -16 61 -16 24 -32
61 -35 82 -7 36 -15 45 -29 30z"/>
<path d="M4157 5694 c-11 -11 5 -34 24 -34 22 0 24 11 7 28 -13 13 -22 15 -31
6z"/>
<path d="M3532 5638 c-36 -44 -42 -56 -36 -82 8 -41 41 -66 87 -66 34 0 39 4
53 36 14 35 14 38 -10 74 -13 20 -26 47 -28 60 -5 39 -22 33 -66 -22z m58 -89
c0 -12 -7 -19 -20 -19 -26 0 -40 29 -28 60 l9 25 20 -24 c10 -13 19 -32 19
-42z"/>
<path d="M4596 5659 c-67 -70 -176 -92 -276 -55 -61 22 -62 23 -67 10 -7 -21
70 -48 149 -52 71 -4 81 -2 136 28 69 37 111 75 96 90 -6 6 -20 -1 -38 -21z"/>
<path d="M1262 5557 c-60 -72 -10 -197 77 -197 40 0 61 14 61 42 0 30 -22 67
-44 74 -35 11 -56 35 -56 66 0 30 -19 38 -38 15z m67 -107 c20 0 41 -19 41
-37 0 -8 -13 -13 -35 -13 -47 0 -75 29 -75 78 l0 37 26 -32 c14 -18 33 -33 43
-33z"/>
<path d="M4213 5547 c-19 -30 106 -63 203 -52 41 4 72 14 86 26 l23 19 -40 -7
c-61 -12 -175 -7 -223 10 -28 10 -44 11 -49 4z"/>
<path d="M4640 5470 c-89 -17 -222 -105 -190 -125 8 -5 24 6 44 29 59 69 185
86 277 38 93 -48 135 -139 115 -245 -8 -45 -77 -122 -121 -137 -30 -10 -38 -9
-64 11 -42 31 -58 82 -37 114 19 28 28 30 56 13 24 -15 38 -3 24 20 -20 31
-68 27 -103 -8 -47 -48 -37 -118 24 -164 52 -40 100 -36 168 17 66 49 93 97
103 178 6 50 3 64 -21 113 -54 111 -160 167 -275 146z"/>
<path d="M4876 5418 c52 -57 64 -66 64 -49 0 24 -24 58 -57 79 -56 36 -59 25
-7 -30z"/>
<path d="M3695 5450 c-9 -14 4 -89 21 -121 15 -30 33 -39 75 -39 28 0 69 30
69 49 0 38 -24 64 -86 91 -76 34 -71 33 -79 20z m103 -72 c7 -7 12 -20 12 -31
0 -14 -6 -18 -27 -15 -22 2 -29 9 -31 31 -3 21 1 27 15 27 11 0 24 -5 31 -12z"/>
<path d="M4608 5395 c-43 -14 -66 -30 -56 -40 2 -2 22 2 43 10 102 36 197 0
228 -87 8 -23 23 -23 31 -1 10 24 -42 92 -83 109 -54 22 -110 25 -163 9z"/>
<path d="M4608 5340 c-38 -20 -54 -37 -45 -47 3 -3 18 4 33 16 45 35 89 28
139 -21 23 -24 44 -49 47 -57 2 -9 11 -12 21 -8 47 18 -64 137 -127 137 -17
-1 -48 -10 -68 -20z"/>
<path d="M4415 5300 c-29 -47 -21 -159 17 -220 29 -49 43 -26 24 41 -9 29 -16
81 -16 115 0 60 -11 87 -25 64z"/>
<path d="M4475 5280 c-19 -37 -19 -59 0 -66 9 -4 15 -19 15 -39 0 -46 9 -65
30 -65 15 0 16 7 12 53 -2 28 -10 65 -18 81 -8 16 -12 38 -8 48 9 29 -14 21
-31 -12z"/>
<path d="M4952 5164 c-7 -51 -20 -101 -32 -121 -24 -41 -24 -43 -5 -43 8 0 22
11 31 24 37 58 60 226 30 226 -9 0 -17 -25 -24 -86z"/>
<path d="M4050 5170 c0 -63 82 -114 154 -96 37 9 32 26 -8 26 -55 0 -81 15
-101 59 -21 49 -45 54 -45 11z"/>
<path d="M3617 5177 c-29 -22 -67 -90 -67 -118 0 -18 10 -36 30 -52 48 -41 69
-43 96 -11 31 39 30 75 -3 115 -16 18 -27 40 -25 50 4 23 -11 31 -31 16z m27
-103 c10 -14 16 -33 14 -42 -5 -27 -41 -20 -56 11 -26 53 11 80 42 31z"/>
<path d="M4120 5166 c0 -18 38 -46 62 -46 28 0 31 19 5 29 -14 6 -28 15 -32
20 -9 16 -35 13 -35 -3z"/>
<path d="M4790 5139 c-12 -16 -19 -33 -16 -36 8 -9 56 37 56 54 0 22 -18 15
-40 -18z"/>
<path d="M1444 5125 c-38 -59 -19 -140 41 -166 11 -5 28 -14 37 -21 22 -16 26
-11 34 40 6 39 4 45 -29 76 -20 19 -42 49 -50 67 l-13 34 -20 -30z m81 -118
c0 -6 -8 -13 -17 -15 -19 -4 -58 31 -58 52 0 11 8 10 38 -5 20 -11 37 -25 37
-32z"/>
<path d="M4330 4966 c0 -19 5 -38 10 -41 6 -3 10 -15 10 -26 0 -20 25 -37 37
-25 3 3 -2 33 -12 66 -20 67 -45 81 -45 26z"/>
<path d="M4227 4973 c-4 -3 -7 -28 -7 -55 0 -36 4 -48 15 -48 8 0 15 3 16 8 8
69 7 102 -5 102 -7 0 -16 -3 -19 -7z"/>
<path d="M4781 4872 c-8 -3 13 -30 61 -77 50 -48 88 -96 114 -144 33 -63 39
-69 42 -47 5 39 -55 144 -118 204 -61 60 -79 72 -99 64z"/>
<path d="M4275 4810 c-8 -13 10 -44 52 -91 35 -39 53 -48 53 -28 0 15 -79 129
-90 129 -5 0 -12 -4 -15 -10z"/>
<path d="M4470 4458 c0 -1 -2 -59 -3 -128 -3 -116 -6 -130 -34 -192 -18 -37
-43 -74 -57 -83 -31 -20 -34 -35 -7 -35 29 0 86 70 111 136 35 92 36 290 2
302 -6 2 -12 2 -12 0z"/>
<path d="M4961 4185 c-19 -55 -45 -114 -58 -131 -27 -36 -28 -44 -8 -44 38 0
111 175 103 245 -2 23 -10 9 -37 -70z"/>
<path d="M1340 4018 c-25 -42 -26 -99 -2 -121 10 -10 22 -17 27 -17 5 0 16 -7
26 -16 14 -12 22 -13 39 -4 17 9 21 19 18 53 -3 38 -7 44 -40 60 -37 17 -42
24 -39 60 3 26 -7 21 -29 -15z m78 -101 c3 -15 0 -15 -30 -3 -18 8 -34 22 -36
30 -3 15 0 15 30 3 18 -7 34 -21 36 -30z"/>
<path d="M4965 3970 c-17 -18 -42 -38 -58 -46 -47 -25 -150 -54 -192 -54 -43
0 -74 -14 -62 -26 4 -5 28 -3 52 4 25 7 59 12 75 12 74 0 231 92 219 129 -3 7
-16 0 -34 -19z"/>
<path d="M4062 3928 c-25 -25 -6 -65 40 -81 25 -9 42 17 22 34 -9 7 -20 23
-25 36 -10 26 -19 29 -37 11z"/>
<path d="M3910 3786 c-74 -21 -108 -44 -136 -92 -14 -24 -24 -48 -21 -51 4 -3
-3 -17 -13 -31 -23 -29 -26 -70 -7 -97 22 -29 37 -8 37 51 0 35 6 60 16 72 8
9 25 33 38 52 26 42 98 84 145 85 19 0 36 6 38 13 6 15 -36 15 -97 -2z"/>
<path d="M3671 3614 c-39 -50 -29 -225 13 -211 7 2 10 33 8 89 -3 54 1 94 8
108 19 35 -3 47 -29 14z"/>
<path d="M4969 3564 c-29 -32 -78 -54 -119 -54 -37 0 -40 -17 -4 -26 54 -14
154 43 154 87 0 24 -2 24 -31 -7z"/>
<path d="M3756 3431 c-4 -5 -4 -16 0 -24 3 -8 -2 -17 -10 -20 -31 -12 -17 -48
39 -102 71 -68 113 -88 189 -88 102 -1 201 37 176 68 -5 6 -7 15 -3 18 8 9
-20 9 -69 1 -21 -4 -38 -11 -38 -16 0 -6 16 -7 40 -3 59 10 50 -11 -12 -30
-28 -8 -65 -15 -82 -15 -45 1 -108 32 -160 81 -47 43 -62 69 -26 47 38 -24 38
17 -1 66 -21 27 -34 32 -43 17z"/>
<path d="M1368 3413 c-9 -2 -23 -19 -32 -36 -32 -69 20 -162 88 -155 28 3 31
6 34 42 3 32 -2 43 -32 73 -27 28 -34 41 -30 59 6 24 4 26 -28 17z m30 -104
c47 -52 51 -63 21 -54 -31 9 -69 51 -69 76 0 27 5 24 48 -22z"/>
<path d="M3840 3332 c0 -14 35 -42 53 -42 22 0 22 19 0 36 -20 15 -53 18 -53
6z"/>
<path d="M4984 3296 c-3 -8 -1 -23 5 -33 9 -15 10 -13 11 15 0 34 -7 42 -16
18z"/>
<path d="M4786 3272 c-3 -5 -2 -29 2 -53 9 -50 35 -65 47 -27 l7 23 7 -25 c10
-37 41 -39 41 -3 0 38 -14 56 -36 49 -14 -4 -22 1 -29 16 -11 24 -30 34 -39
20z"/>
<path d="M1202 3181 c-6 -3 -18 -24 -27 -44 -12 -30 -13 -46 -5 -77 11 -42 18
-49 68 -66 97 -34 123 80 27 120 -27 12 -35 21 -35 40 0 28 -10 38 -28 27z
m18 -96 c7 -8 20 -15 29 -15 29 0 55 -25 47 -45 -5 -14 -9 -16 -18 -7 -7 7
-20 12 -30 12 -10 0 -27 9 -38 20 -20 20 -27 50 -11 50 5 0 14 -7 21 -15z"/>
<path d="M4162 3118 c3 -7 17 -14 32 -16 20 -3 27 0 24 10 -3 7 -17 14 -32 16
-20 3 -27 0 -24 -10z"/>
<path d="M4002 3097 c-15 -18 4 -77 25 -77 11 0 13 10 11 42 -3 44 -18 58 -36
35z"/>
<path d="M4852 3077 c-6 -6 -20 -41 -32 -77 -18 -55 -33 -77 -97 -142 -45 -45
-98 -87 -131 -104 -52 -26 -65 -28 -184 -30 -70 -1 -128 -6 -128 -11 -1 -16
115 -25 206 -15 79 8 100 14 150 45 75 47 181 151 201 197 36 83 47 176 15
137z"/>
<path d="M4726 2942 c-8 -15 -23 -36 -35 -46 -26 -24 -27 -36 -1 -36 22 0 85
84 75 100 -11 17 -24 11 -39 -18z"/>
<path d="M4055 2937 c-8 -20 21 -70 38 -64 19 6 17 21 -7 52 -21 26 -25 28
-31 12z"/>
<path d="M4875 2912 c-6 -4 -40 -41 -77 -83 -38 -42 -90 -91 -118 -109 -72
-46 -194 -74 -297 -67 -82 6 -103 -2 -64 -23 58 -31 274 3 370 57 83 47 226
202 205 223 -5 5 -14 6 -19 2z"/>
<path d="M4143 2844 c-3 -8 2 -21 13 -29 37 -27 164 -47 164 -26 0 10 -35 21
-71 21 -14 0 -43 11 -63 25 -31 21 -38 22 -43 9z"/>
<path d="M4619 2832 c-32 -24 -109 -45 -173 -46 -28 -1 -50 -6 -48 -11 1 -6
35 -10 75 -9 80 1 187 41 187 69 0 20 -12 19 -41 -3z"/>
<path d="M3695 2729 c4 -71 31 -109 75 -109 14 0 35 -7 46 -15 38 -29 74 -8
74 43 0 29 -39 72 -79 89 -20 9 -46 24 -60 34 -13 10 -32 19 -42 19 -16 0 -18
-7 -14 -61z m146 -52 c18 -32 5 -46 -36 -37 -19 4 -42 14 -50 20 -15 12 -20
51 -9 62 10 10 85 -25 95 -45z"/>
<path d="M1425 2726 c-12 -74 7 -92 104 -98 50 -3 68 14 57 56 -8 32 -62 67
-91 60 -13 -3 -27 1 -34 10 -21 25 -29 19 -36 -28z m130 -46 c8 -12 -52 -12
-80 0 -15 6 -8 9 27 9 26 1 50 -3 53 -9z"/>
<path d="M3615 2393 c-16 -9 -33 -21 -37 -27 -27 -40 18 -112 64 -103 l23 4
-23 8 c-35 12 -45 86 -12 93 19 3 50 -47 50 -82 0 -28 9 -33 28 -14 18 18 14
45 -14 94 -28 48 -35 51 -79 27z"/>
<path d="M3605 2072 c-19 -13 -45 -61 -45 -82 0 -27 49 -77 82 -85 14 -4 41 0
62 9 54 22 47 53 -19 87 -29 15 -51 33 -53 45 -5 25 -15 35 -27 26z m15 -71
c0 -5 16 -15 35 -21 27 -9 35 -17 35 -36 0 -31 -35 -33 -67 -2 -23 21 -32 68
-13 68 6 0 10 -4 10 -9z"/>
<path d="M3479 1978 c-1 -6 -1 -93 0 -106 1 -7 6 -10 11 -7 6 3 10 28 10 55 0
27 -4 52 -10 55 -5 3 -10 5 -11 3z"/>
<path d="M1381 1894 c-26 -33 -27 -85 -3 -106 9 -9 32 -23 51 -33 32 -16 34
-16 57 6 13 12 24 30 24 39 0 18 -60 80 -78 80 -7 0 -12 9 -12 20 0 27 -15 25
-39 -6z m77 -82 c13 -19 12 -22 -3 -28 -19 -8 -43 4 -58 28 -6 8 -7 23 -3 33
6 15 9 16 28 3 12 -8 28 -24 36 -36z"/>
<path d="M3872 1908 c-7 -7 -12 -20 -12 -29 0 -9 -6 -22 -14 -28 -32 -27 14
-90 74 -101 45 -8 90 9 90 34 0 6 -28 40 -63 74 -49 49 -65 60 -75 50z m59
-81 c55 -29 67 -67 21 -67 -46 0 -77 33 -73 78 1 16 0 16 52 -11z"/>
<path d="M3904 541 c-26 -9 -56 -28 -67 -42 -17 -23 -18 -32 -8 -62 7 -19 20
-42 30 -51 28 -26 111 -48 152 -41 52 9 73 -14 63 -69 -3 -22 -8 -44 -11 -48
-2 -5 -30 -8 -61 -8 -56 0 -58 1 -104 51 -38 42 -50 49 -65 41 -10 -6 -18 -23
-19 -41 -2 -36 -19 -59 -51 -72 -16 -6 -21 -14 -16 -25 5 -13 15 -15 57 -10
28 4 106 8 173 10 121 3 183 17 183 41 0 6 9 20 20 30 14 13 20 31 20 60 0 83
-60 119 -159 95 -42 -10 -54 -9 -83 6 -42 21 -48 30 -48 77 l0 38 53 -3 c48
-3 52 -5 55 -30 4 -36 27 -55 47 -38 14 11 41 88 33 95 -2 1 -35 5 -74 7 -51
4 -86 0 -120 -11z"/>
<path d="M3425 543 c-52 -8 -74 -39 -32 -45 22 -3 22 -4 22 -171 0 -104 4
-167 10 -168 86 -10 155 -1 155 20 0 5 -10 11 -22 13 -21 3 -23 9 -26 69 l-3
67 62 11 c93 16 122 37 133 95 10 57 -3 92 -40 106 -25 10 -199 11 -259 3z
m183 -49 c30 -8 39 -47 17 -80 -13 -21 -23 -25 -53 -22 -35 3 -37 5 -44 47 -4
24 -5 48 -2 52 6 10 49 11 82 3z"/>
<path d="M3150 525 c-13 -16 -6 -35 15 -35 20 0 25 -24 25 -130 l0 -99 -32
-15 c-89 -45 -133 -5 -145 130 -6 75 -6 76 23 99 25 20 27 25 15 39 -20 24
-174 19 -179 -5 -2 -10 5 -19 18 -22 18 -5 20 -13 20 -92 0 -65 5 -98 20 -133
31 -72 34 -75 76 -100 59 -34 118 -27 178 24 25 21 49 47 52 58 4 11 8 66 9
122 2 75 7 108 20 127 9 14 14 31 10 37 -10 16 -110 13 -125 -5z"/>
<path d="M560 518 c-12 -5 -17 -13 -14 -22 6 -15 -29 -116 -49 -143 -5 -7 -22
-39 -37 -71 -15 -32 -39 -77 -54 -100 -14 -23 -26 -44 -26 -47 0 -7 86 -6 93
2 4 3 2 12 -4 19 -8 10 -6 22 10 46 11 18 30 52 41 74 11 23 25 46 32 52 18
14 85 19 97 7 6 -6 11 -53 13 -105 l3 -95 50 -1 c63 0 82 8 61 25 -23 19 -23
288 -1 331 9 17 11 31 6 35 -13 7 -197 2 -221 -7z m90 -123 c-14 -17 -60 -21
-60 -4 0 6 12 31 27 57 l28 47 9 -42 c6 -31 5 -47 -4 -58z"/>
<path d="M976 510 c-89 -35 -126 -88 -126 -181 0 -62 27 -115 75 -146 42 -28
143 -40 201 -24 44 12 124 64 124 81 0 23 -31 21 -60 -4 -38 -31 -92 -43 -128
-27 -14 7 -43 26 -64 42 -34 27 -38 36 -38 75 0 36 6 51 36 84 41 45 54 50 54
19 0 -17 5 -20 32 -17 24 2 38 12 56 38 l23 35 -26 22 c-33 29 -91 30 -159 3z"/>
<path d="M2583 508 c-77 -23 -106 -58 -123 -145 -15 -74 -5 -107 44 -155 52
-51 110 -71 179 -64 91 9 210 76 184 103 -5 4 -14 3 -21 -2 -54 -40 -71 -47
-123 -52 -51 -4 -63 -1 -101 24 -57 37 -71 85 -44 146 37 80 117 129 105 63
-5 -23 -2 -26 25 -26 23 0 37 8 56 33 46 61 31 81 -64 90 -38 3 -75 -1 -117
-15z"/>
<path d="M1265 510 c-3 -5 -2 -24 3 -42 4 -18 7 -89 5 -158 -2 -103 -5 -127
-19 -137 -26 -19 0 -44 40 -38 17 2 67 4 112 4 77 1 82 2 122 37 62 53 32 79
-34 29 -26 -20 -44 -25 -87 -25 l-55 0 -4 59 c-4 80 -1 91 29 91 16 0 27 -7
30 -20 12 -46 56 -10 51 42 -3 38 -34 51 -54 23 -16 -21 -49 -16 -48 8 0 9 1
35 2 57 l2 40 55 0 c40 0 56 -4 63 -17 15 -26 44 -9 40 24 l-3 28 -122 2 c-71
2 -124 -1 -128 -7z"/>
<path d="M2039 411 c-17 -13 -23 -29 -23 -56 0 -31 7 -44 40 -75 45 -41 104
-128 104 -152 0 -9 -10 -22 -22 -31 -28 -18 -18 -32 16 -23 39 10 49 38 36 98
-11 55 -6 73 14 45 15 -19 32 -22 41 -7 7 11 -52 140 -64 140 -17 0 -29 -25
-24 -51 3 -17 1 -29 -5 -29 -17 0 -82 66 -82 83 0 24 16 29 34 11 18 -17 46
-12 46 8 0 8 -7 24 -16 36 -19 27 -63 29 -95 3z"/>
<path d="M1955 260 c-20 -22 -23 -74 -4 -96 17 -21 92 -18 112 4 23 26 21 45
-9 81 -30 37 -72 41 -99 11z m71 -35 c4 -8 4 -22 0 -30 -7 -19 -36 -8 -36 14
0 32 26 43 36 16z"/>
<path d="M4355 263 c-30 -7 -38 -19 -31 -47 5 -21 12 -26 39 -26 18 0 42 6 52
14 18 13 18 15 2 40 -17 26 -24 28 -62 19z"/>
</g>
</svg>
