<?xml version="1.0" standalone="no"?>
<!DOCTYPE svg PUBLIC "-//W3C//DTD SVG 20010904//EN"
 "http://www.w3.org/TR/2001/REC-SVG-20010904/DTD/svg10.dtd">
<svg version="1.0" xmlns="http://www.w3.org/2000/svg"
 width="500.000000pt" height="878.000000pt" viewBox="0 0 500.000000 878.000000"
 preserveAspectRatio="xMidYMid meet">
<metadata>
Created by potrace 1.15, written by Peter Selinger 2001-2017
</metadata>
<g transform="translate(0.000000,878.000000) scale(0.100000,-0.100000)"
fill="#000000" stroke="none">
<path d="M2422 8658 c3 -7 20 -15 39 -18 l34 -5 0 -84 c0 -99 -10 -127 -45
-123 -30 3 -55 -12 -46 -26 9 -14 374 -14 400 0 18 10 18 11 2 20 -9 5 -26 6
-37 3 -39 -13 -49 10 -49 116 l0 98 47 3 c26 2 48 9 51 16 3 9 -41 12 -198 12
-157 0 -201 -3 -198 -12z m231 -31 c8 -21 -2 -190 -12 -200 -16 -16 -78 1 -84
23 -3 10 -2 57 0 104 l6 86 42 0 c26 0 45 -5 48 -13z"/>
<path d="M1640 8256 c-19 -17 -89 -35 -200 -51 -84 -13 -160 -36 -183 -56 -44
-37 -125 -79 -155 -79 -23 0 -61 -17 -122 -54 -64 -39 -98 -54 -124 -54 -42 0
-57 -10 -97 -69 -21 -30 -37 -43 -53 -43 -17 0 -33 -14 -59 -52 -19 -29 -39
-64 -43 -78 -4 -14 -17 -38 -30 -55 -12 -16 -26 -48 -29 -70 -4 -22 -16 -49
-26 -60 -9 -11 -24 -38 -32 -60 -8 -22 -18 -48 -22 -58 -6 -14 -2 -20 14 -24
11 -3 18 -9 15 -15 -3 -5 -11 -5 -19 2 -10 8 -20 3 -44 -22 -17 -18 -31 -39
-31 -45 0 -7 -9 -27 -20 -45 -47 -77 -6 -110 77 -62 26 15 64 40 84 55 20 16
44 28 55 28 65 0 107 11 166 44 37 21 70 42 73 47 3 6 21 10 40 10 19 0 46 5
62 11 36 15 80 26 176 45 74 14 80 14 91 -2 11 -15 24 -16 85 -11 67 6 72 5
66 -13 -18 -58 163 -70 264 -17 49 25 55 26 71 12 9 -8 22 -15 28 -15 7 0 23
-18 37 -40 37 -58 63 -72 142 -72 38 -1 78 2 89 6 17 5 24 0 34 -25 12 -29 16
-30 56 -26 39 5 42 4 47 -21 21 -109 59 -162 115 -162 18 0 38 -10 53 -26 35
-38 72 -54 122 -54 36 0 53 -7 91 -37 44 -36 47 -40 42 -75 -4 -24 0 -54 12
-85 14 -38 18 -73 16 -167 -1 -65 -6 -122 -11 -127 -5 -5 -39 15 -78 44 -86
65 -196 217 -175 242 15 18 31 20 27 3 -3 -18 62 -14 81 5 13 14 13 19 -1 50
-20 41 -29 49 -87 70 -92 34 -164 12 -162 -49 1 -41 40 -150 70 -199 38 -61
142 -157 205 -189 32 -16 57 -30 57 -32 0 -2 -17 -12 -38 -23 -55 -28 -119
-102 -128 -146 -15 -79 2 -160 52 -250 31 -56 56 -88 73 -95 14 -6 37 -19 50
-29 l25 -19 -20 -28 c-10 -16 -21 -47 -24 -69 -5 -40 -5 -40 -45 -37 -22 2
-71 10 -108 18 -154 32 -452 1 -526 -54 -38 -28 -43 -75 -10 -94 33 -20 44
-53 125 -348 16 -59 24 -109 21 -132 -3 -23 0 -44 9 -55 22 -29 17 -37 -44
-70 -48 -27 -64 -31 -100 -26 -26 4 -52 1 -66 -7 -54 -28 -61 -18 -152 203
-28 70 -64 146 -79 167 -15 22 -34 53 -44 69 -52 97 -135 221 -169 254 -22 22
-58 44 -83 51 -39 12 -44 17 -47 45 -4 43 22 73 55 65 31 -8 63 20 63 55 0 14
7 37 15 51 8 14 18 33 21 43 3 9 14 17 23 17 10 0 24 6 33 13 13 10 14 22 5
85 -9 62 -8 77 6 108 10 19 22 70 28 112 7 53 17 83 30 95 19 18 25 37 12 37
-5 0 -15 5 -23 10 -12 7 -11 13 9 34 14 14 22 28 20 31 -9 8 -73 9 -92 0 -15
-6 -18 -4 -15 11 3 17 -4 19 -67 19 -38 0 -79 5 -90 11 -11 7 -61 15 -112 19
-94 7 -126 2 -249 -42 -54 -19 -135 -103 -165 -170 -18 -41 -29 -53 -46 -53
-30 0 -54 -71 -35 -101 10 -16 10 -24 -3 -42 -25 -36 -19 -57 15 -57 35 0 35
-1 14 -42 -15 -29 -15 -31 11 -58 22 -23 25 -31 16 -48 -9 -17 -7 -26 12 -48
13 -15 35 -28 48 -29 13 -1 24 -7 23 -13 -1 -7 -2 -23 -2 -37 -2 -33 -44 -71
-86 -79 -33 -6 -110 -76 -133 -122 -14 -25 -27 -156 -29 -274 -2 -187 -14
-421 -24 -463 -5 -23 -8 -159 -6 -302 2 -165 -2 -324 -11 -435 -8 -96 -16
-296 -19 -445 -2 -148 -7 -360 -10 -470 -4 -110 -6 -444 -5 -742 l1 -543 -36
0 c-21 0 -60 -11 -88 -24 -35 -17 -87 -29 -166 -38 l-115 -13 -3 -33 c-3 -30
0 -34 43 -52 38 -16 69 -20 170 -20 119 0 151 8 128 31 -4 4 -72 9 -150 10
-110 1 -145 4 -154 15 -6 8 -10 16 -8 19 3 2 57 8 122 14 94 8 122 14 146 32
17 12 46 22 68 23 36 1 38 -1 41 -31 2 -18 -4 -43 -13 -56 -9 -14 -15 -29 -14
-33 8 -44 7 -44 -159 -37 -120 4 -161 3 -166 -6 -13 -21 3 -26 92 -27 48 -1
120 -5 160 -9 l72 -8 0 -42 c0 -43 28 -84 48 -71 18 11 29 -19 31 -82 l2 -63
-158 1 c-281 2 -303 1 -303 -14 0 -22 75 -28 323 -25 226 3 230 3 244 -18 8
-12 12 -27 8 -33 -4 -6 -99 -10 -281 -10 -151 1 -279 -2 -284 -5 -6 -4 -10
-13 -10 -21 0 -12 44 -14 290 -14 l290 0 0 -28 c0 -15 9 -51 19 -80 11 -30 18
-59 15 -65 -3 -7 -31 -24 -64 -39 -32 -14 -66 -38 -76 -53 -15 -23 -15 -31 -3
-67 22 -66 31 -71 126 -65 81 5 84 4 81 -17 -3 -20 1 -21 57 -18 78 4 123 18
157 50 27 25 28 25 48 7 11 -10 44 -20 82 -25 37 -4 88 -19 123 -37 89 -45
216 -50 393 -17 33 6 31 67 -3 90 -46 30 -31 42 61 49 70 6 91 12 115 32 24
20 27 28 18 39 -10 13 -17 220 -7 229 1 1 471 4 1043 6 l1040 4 3 -34 c6 -59
-7 -97 -49 -145 -44 -49 -136 -99 -244 -132 -218 -65 -247 -163 -57 -195 146
-24 328 -5 545 55 32 9 68 16 81 16 13 0 35 9 50 21 22 17 26 27 24 62 -3 40
-2 41 32 48 30 5 72 17 245 70 16 5 47 9 68 9 104 0 154 81 108 176 -11 21
-18 40 -16 42 1 1 93 4 204 4 l201 2 0 24 c0 23 -2 24 -45 18 -76 -12 -364 -4
-387 11 -5 2 -8 14 -8 27 l0 23 220 -4 c214 -3 220 -2 220 17 0 19 -8 20 -162
22 -311 3 -279 -1 -299 34 -9 17 -19 60 -22 95 -3 35 -8 78 -11 94 -4 17 -11
55 -17 85 -6 30 -15 72 -21 92 -9 30 -8 46 6 82 9 24 24 47 32 50 18 7 225
-19 251 -32 63 -31 94 -42 138 -49 37 -6 51 -13 53 -27 3 -16 -1 -17 -38 -11
-33 6 -41 4 -38 -6 4 -12 31 -22 101 -36 26 -5 27 -4 27 40 0 45 0 45 -44 56
-25 6 -56 11 -69 11 -14 0 -30 7 -37 14 -6 8 -27 20 -46 26 -40 14 -43 27 -10
40 45 17 63 90 29 109 -10 5 -29 34 -43 65 -21 49 -30 58 -62 68 -40 12 -68 0
-68 -27 0 -8 -13 -16 -30 -20 -40 -9 -73 -52 -65 -85 16 -68 18 -110 4 -110
-43 1 -56 12 -56 48 0 25 -11 52 -32 83 -17 26 -31 59 -31 73 0 16 -10 35 -26
49 -14 12 -44 42 -67 66 -23 24 -67 69 -98 100 -126 127 -191 268 -169 367 5
23 11 89 13 147 3 65 9 113 17 122 16 19 54 19 84 -1 22 -13 28 -13 60 0 28
12 36 21 36 40 0 28 9 33 28 14 18 -18 59 5 83 47 12 19 28 35 36 35 27 0 102
51 134 91 27 34 30 44 21 63 -8 18 -7 27 6 40 16 15 15 20 -1 64 -60 160 -100
292 -153 497 -44 174 -84 286 -124 355 -22 36 -40 70 -40 74 0 5 -18 35 -40
67 -42 61 -48 91 -29 143 8 23 24 37 60 53 47 21 51 26 100 128 37 76 54 126
59 173 12 88 36 181 54 201 7 9 22 36 33 61 11 25 32 56 47 69 14 14 26 30 26
38 0 7 5 13 11 13 15 0 6 192 -11 235 -6 17 -16 55 -22 85 -16 87 -43 128
-159 242 -60 58 -109 109 -109 113 0 21 -90 76 -139 84 -28 5 -38 14 -63 63
-33 64 -31 82 9 67 32 -12 60 6 42 27 -9 11 -8 18 1 29 13 16 11 18 -43 29
-45 10 -20 28 29 20 51 -7 61 10 17 27 l-28 11 24 12 c42 23 38 150 -5 166
-33 13 -98 78 -120 122 -26 51 -111 105 -218 138 -74 24 -236 -10 -323 -67
-13 -9 -35 -13 -50 -10 -17 3 -43 -3 -68 -15 -65 -33 -75 -46 -75 -99 0 -26
-4 -51 -10 -54 -18 -11 -12 -73 9 -84 22 -12 35 -3 20 15 -16 20 -2 66 19 62
11 -2 17 -14 18 -36 1 -21 9 -39 22 -48 11 -7 22 -28 25 -46 3 -18 10 -52 16
-76 6 -24 12 -65 12 -92 2 -52 17 -75 54 -82 13 -2 33 -28 56 -73 20 -39 42
-76 48 -82 16 -18 56 -16 93 3 20 10 34 12 40 6 7 -7 -1 -12 -21 -17 -17 -3
-33 -11 -37 -16 -3 -5 -26 -20 -52 -33 -26 -14 -52 -33 -59 -44 -6 -11 -27
-22 -45 -26 -18 -4 -40 -12 -49 -19 -30 -24 -99 -119 -99 -138 0 -23 -22 -24
-80 -4 -23 8 -70 15 -104 14 l-61 -1 75 -17 c122 -29 177 -50 183 -71 7 -28
-3 -32 -30 -10 -34 27 -123 44 -228 43 -94 0 -135 -8 -135 -24 0 -12 87 -12
95 1 14 22 235 -8 235 -32 0 -6 -9 -8 -22 -4 -54 14 -158 16 -227 4 -107 -19
-104 -37 6 -31 100 5 234 -15 241 -36 3 -9 -2 -11 -14 -8 -11 3 -57 9 -103 12
-68 6 -83 5 -79 -6 3 -9 34 -18 89 -25 46 -6 85 -12 87 -13 1 0 -2 -10 -8 -21
-8 -15 -15 -18 -33 -11 -40 16 -133 41 -150 41 -9 0 -19 -4 -22 -10 -7 -11 44
-34 100 -44 47 -9 77 -24 71 -35 -3 -5 -29 -2 -58 5 -67 18 -131 18 -126 2 3
-7 37 -17 76 -23 40 -6 77 -16 83 -22 20 -20 -9 -25 -67 -13 -40 8 -59 9 -67
1 -12 -12 -3 -17 68 -34 65 -17 52 -33 -24 -29 -80 4 -81 -18 -1 -33 30 -6 55
-16 58 -23 5 -15 -7 -15 -64 -1 -33 9 -48 9 -56 1 -16 -16 -8 -22 48 -36 72
-18 68 -35 -7 -29 -50 5 -61 3 -57 -8 3 -8 22 -15 46 -17 34 -3 50 -12 89 -50
73 -72 78 -79 63 -97 -7 -8 -20 -15 -30 -15 -14 0 -18 8 -17 36 1 29 -5 41
-28 60 -18 14 -37 21 -48 18 -10 -3 -29 1 -42 10 -17 11 -41 14 -89 11 -44 -3
-66 -1 -66 6 0 7 12 9 30 7 17 -3 34 0 37 5 8 13 -19 28 -39 21 -10 -3 -18 -1
-18 5 0 5 17 11 37 13 55 5 57 30 2 28 -63 -3 -69 -2 -69 14 0 17 22 26 66 26
21 0 33 4 29 10 -3 6 -31 10 -61 10 -41 0 -54 4 -54 15 0 11 12 15 45 15 25 0
45 5 45 10 0 12 -11 14 -61 11 -22 -2 -40 4 -48 13 -18 21 -6 34 24 28 28 -5
34 12 8 26 -14 9 -14 11 6 21 31 17 16 32 -19 19 -19 -6 -29 -16 -28 -26 6
-31 -23 -23 -36 10 -25 59 -30 88 -15 88 28 0 89 21 89 30 0 6 -19 10 -42 10
-42 1 -84 20 -71 33 3 4 25 7 47 7 23 0 47 4 55 9 19 12 22 51 5 58 -14 5
-141 -34 -161 -50 -10 -7 -13 -3 -13 16 0 30 17 45 50 45 14 0 45 5 70 12 52
13 64 15 180 34 47 7 81 15 75 16 -64 15 -242 1 -319 -26 -22 -8 -42 -12 -45
-9 -3 3 -4 23 -3 43 2 35 -5 51 -50 115 -11 15 -5 24 49 72 101 90 148 226
110 318 -20 46 -93 134 -118 142 -31 10 -22 20 49 53 129 62 210 131 255 222
37 73 38 166 4 198 -28 27 -127 33 -127 8 0 -8 -7 -12 -17 -10 -20 5 -73 -39
-73 -60 0 -23 45 -56 77 -56 30 0 83 38 83 60 0 5 7 10 15 10 21 0 19 -26 -4
-42 -10 -7 -22 -29 -26 -48 -9 -43 -82 -148 -131 -188 -39 -32 -140 -76 -155
-66 -10 6 -12 168 -3 237 5 37 11 47 28 49 16 2 22 11 24 35 4 38 34 65 130
113 35 18 80 50 100 71 31 33 43 39 78 39 36 0 47 6 78 40 20 22 36 50 36 63
0 13 13 36 29 51 16 15 37 45 47 67 13 30 21 38 33 32 32 -15 153 -15 190 0
20 8 72 29 116 47 44 18 95 34 113 35 59 5 105 16 125 30 13 9 27 11 41 5 25
-9 109 -5 127 6 7 4 42 7 78 6 35 -1 79 3 98 10 30 11 35 10 60 -14 54 -52
154 -66 188 -28 16 17 26 20 62 14 36 -5 48 -3 66 14 29 27 88 29 149 5 40
-15 53 -16 79 -6 28 11 35 10 57 -7 30 -24 36 -25 56 -4 28 28 22 58 -35 165
-47 88 -184 239 -218 239 -11 0 -34 23 -58 60 -50 76 -172 170 -221 170 -25 0
-35 5 -41 24 -9 22 -72 56 -106 56 -8 0 -31 14 -50 32 -34 29 -43 32 -147 40
-62 5 -116 12 -122 17 -6 4 -23 11 -39 15 -20 5 -29 2 -34 -10 -5 -15 -8 -15
-17 -2 -16 21 -112 50 -178 54 -93 6 -172 -39 -195 -110 -5 -18 -5 -57 0 -99
11 -85 1 -124 -54 -218 -26 -43 -52 -73 -73 -84 l-34 -19 -28 33 c-37 44 -52
59 -72 70 -15 8 -15 14 1 83 10 40 17 78 17 84 0 13 -63 34 -87 29 -10 -2 -40
-6 -67 -9 l-48 -6 27 36 c33 43 24 59 -23 43 -28 -9 -41 -8 -83 11 -35 14 -60
19 -80 15 -22 -5 -36 -2 -50 11 -19 17 -21 17 -48 1 -44 -26 -58 -21 -110 32
-36 37 -51 47 -60 38 -6 -6 -11 -16 -11 -22 0 -16 -37 -48 -47 -42 -5 3 -22
-3 -39 -14 -16 -10 -42 -19 -57 -19 -41 0 -67 -17 -67 -44 0 -20 -6 -24 -42
-29 -23 -3 -55 -3 -70 0 -39 8 -71 -21 -64 -56 3 -14 0 -50 -7 -80 -12 -53
-12 -53 -51 -56 -69 -4 -107 -71 -70 -123 27 -38 4 -40 -28 -2 -71 83 -95 173
-63 234 28 53 13 159 -30 206 -10 11 -23 30 -29 42 -8 14 -37 30 -96 49 -47
16 -85 28 -85 29 -1 0 -7 -6 -15 -14z m85 -51 c28 -14 56 -25 63 -25 17 0 15
-27 -2 -33 -8 -3 -24 5 -35 17 -18 19 -30 23 -63 20 -23 -2 -46 -8 -52 -14
-16 -16 -23 -12 -22 13 1 13 11 27 26 34 33 15 28 16 85 -12z m1855 16 c0 -12
-56 -31 -89 -31 -25 1 -25 2 9 19 38 20 80 26 80 12z m-1998 -61 c-9 -22 -21
-40 -26 -40 -4 0 -5 8 -1 18 4 9 10 27 12 40 3 12 11 22 18 22 11 0 10 -9 -3
-40z m-208 -10 c-6 -6 -21 -13 -34 -15 -13 -2 -28 -9 -34 -15 -5 -5 -19 -10
-30 -9 -14 0 -3 9 29 24 54 25 86 32 69 15z m2697 -16 c14 -17 8 -17 -44 -2
-31 9 -35 13 -21 18 24 9 50 2 65 -16z m-2398 -31 c-7 -2 -21 -2 -30 0 -10 3
-4 5 12 5 17 0 24 -2 18 -5z m-273 -17 c0 -3 -4 -8 -10 -11 -5 -3 -10 -1 -10
4 0 6 5 11 10 11 6 0 10 -2 10 -4z m2646 -23 c-7 -7 -26 7 -26 19 0 6 6 6 15
-2 9 -7 13 -15 11 -17z m-2216 13 c0 -3 -4 -8 -10 -11 -5 -3 -10 -1 -10 4 0 6
5 11 10 11 6 0 10 -2 10 -4z m830 -5 c0 -15 -16 -22 -34 -15 -25 9 -19 24 9
24 14 0 25 -4 25 -9z m147 3 c-3 -3 -12 -4 -19 -1 -8 3 -5 6 6 6 11 1 17 -2
13 -5z m-937 -32 c0 -15 -2 -15 -10 -2 -13 20 -13 33 0 25 6 -3 10 -14 10 -23z
m-415 -2 c-3 -5 -11 -10 -16 -10 -6 0 -7 5 -4 10 3 6 11 10 16 10 6 0 7 -4 4
-10z m222 4 c-3 -3 -12 -4 -19 -1 -8 3 -5 6 6 6 11 1 17 -2 13 -5z m-257 -28
c0 -2 -7 -7 -16 -10 -8 -3 -12 -2 -9 4 6 10 25 14 25 6z m441 -19 c-13 -13
-26 -3 -16 12 3 6 11 8 17 5 6 -4 6 -10 -1 -17z m1063 -2 c-4 -8 -12 -15 -20
-15 -17 0 -18 17 -1 23 22 9 27 7 21 -8z m1441 -16 c11 -17 -1 -21 -15 -4 -8
9 -8 15 -2 15 6 0 14 -5 17 -11z m-240 -9 c3 -5 1 -10 -4 -10 -6 0 -11 5 -11
10 0 6 2 10 4 10 3 0 8 -4 11 -10z m71 -35 c14 -11 15 -14 4 -14 -8 0 -24 6
-34 14 -15 11 -16 15 -5 15 8 0 24 -7 35 -15z m222 -14 c3 -16 -1 -22 -10 -19
-7 3 -15 15 -16 27 -3 16 1 22 10 19 7 -3 15 -15 16 -27z m-3563 9 c3 -5 2
-10 -3 -10 -5 0 -14 -12 -21 -27 -12 -25 -14 -26 -23 -10 -15 28 30 74 47 47z
m3460 -30 c3 -5 1 -10 -4 -10 -6 0 -11 5 -11 10 0 6 2 10 4 10 3 0 8 -4 11
-10z m179 -25 c18 -27 15 -30 -15 -15 -10 6 -19 17 -19 25 0 23 16 18 34 -10z
m-1769 -5 c3 -5 1 -10 -4 -10 -6 0 -11 5 -11 10 0 6 2 10 4 10 3 0 8 -4 11
-10z m-1935 -19 c0 -17 -12 -41 -21 -41 -10 0 -12 33 -2 43 9 10 23 9 23 -2z
m3010 -11 c0 -5 -2 -10 -4 -10 -3 0 -8 5 -11 10 -3 6 -1 10 4 10 6 0 11 -4 11
-10z m557 -12 c-3 -8 -6 -5 -6 6 -1 11 2 17 5 13 3 -3 4 -12 1 -19z m-1727 -9
c0 -5 -4 -9 -10 -9 -5 0 -10 7 -10 16 0 8 5 12 10 9 6 -3 10 -10 10 -16z
m-1390 1 c0 -5 -4 -10 -10 -10 -5 0 -10 5 -10 10 0 6 5 10 10 10 6 0 10 -4 10
-10z m1667 -16 c-9 -9 -28 6 -21 18 4 6 10 6 17 -1 6 -6 8 -13 4 -17z m-1567
2 c0 -3 -4 -8 -10 -11 -5 -3 -10 -1 -10 4 0 6 5 11 10 11 6 0 10 -2 10 -4z
m1153 -16 c-3 -11 -7 -20 -9 -20 -2 0 -4 9 -4 20 0 11 4 20 9 20 5 0 7 -9 4
-20z m1547 -16 c26 -41 21 -55 -9 -25 -12 12 -30 21 -40 21 -27 0 -35 17 -14
29 29 17 40 13 63 -25z m350 23 c0 -7 -9 -20 -20 -30 -22 -18 -26 -7 -10 24
12 22 30 26 30 6z m-3530 -1 c0 -2 -8 -10 -17 -17 -16 -13 -17 -12 -4 4 13 16
21 21 21 13z m2260 -11 c10 -12 10 -15 -3 -15 -8 0 -17 7 -21 15 -3 8 -2 15 3
15 5 0 14 -7 21 -15z m-1360 -5 c0 -5 -2 -10 -4 -10 -3 0 -8 5 -11 10 -3 6 -1
10 4 10 6 0 11 -4 11 -10z m695 0 c3 -5 1 -10 -4 -10 -6 0 -11 5 -11 10 0 6 2
10 4 10 3 0 8 -4 11 -10z m175 -15 c0 -8 -4 -15 -9 -15 -13 0 -22 16 -14 24
11 11 23 6 23 -9z m-596 -10 c-4 -8 -8 -15 -10 -15 -2 0 -4 7 -4 15 0 8 4 15
10 15 5 0 7 -7 4 -15z m-1234 -19 c0 -3 -4 -8 -10 -11 -5 -3 -10 -1 -10 4 0 6
5 11 10 11 6 0 10 -2 10 -4z m370 -6 c0 -5 -5 -10 -11 -10 -5 0 -7 5 -4 10 3
6 8 10 11 10 2 0 4 -4 4 -10z m796 -85 c5 -12 19 -20 34 -20 28 0 38 -26 17
-44 -11 -9 -17 -8 -27 4 -7 8 -18 15 -24 15 -6 0 -22 18 -36 40 -13 22 -30 42
-37 44 -7 3 -13 15 -13 27 0 20 3 19 38 -12 21 -19 43 -43 48 -54z m154 69 c0
-8 -5 -12 -10 -9 -6 4 -8 11 -5 16 9 14 15 11 15 -7z m2190 -5 c0 -4 -7 -6
-15 -3 -8 4 -15 10 -15 15 0 4 7 6 15 3 8 -4 15 -10 15 -15z m417 -68 c14 -25
32 -50 40 -54 7 -5 11 -13 7 -18 -3 -6 -12 -3 -20 8 -7 10 -14 14 -14 9 0 -5
-6 -3 -14 4 -8 6 -12 18 -9 26 3 8 -1 14 -11 14 -9 0 -16 5 -16 11 0 5 -5 7
-12 3 -7 -4 -8 -3 -4 4 4 7 0 22 -8 34 -9 12 -16 29 -16 37 0 22 45 -24 77
-78z m-4037 75 c0 -2 -8 -10 -17 -17 -16 -13 -17 -12 -4 4 13 16 21 21 21 13z
m2239 -23 c0 -25 -1 -25 -8 -8 -5 11 -7 23 -4 28 8 14 13 7 12 -20z m-2169 8
c0 -6 -4 -13 -10 -16 -5 -3 -10 1 -10 9 0 9 5 16 10 16 6 0 10 -4 10 -9z
m2224 3 c22 -8 20 -19 -4 -21 -11 -1 -20 4 -20 13 0 16 2 16 24 8z m1106 -4
c0 -5 -2 -10 -4 -10 -3 0 -8 5 -11 10 -3 6 -1 10 4 10 6 0 11 -4 11 -10z
m-300 -10 c0 -5 -5 -10 -11 -10 -5 0 -7 5 -4 10 3 6 8 10 11 10 2 0 4 -4 4
-10z m-1717 -33 c-3 -5 -10 -4 -15 1 -6 6 -7 16 -3 22 6 9 9 9 16 -1 4 -7 5
-17 2 -22z m562 23 c-3 -5 -10 -10 -16 -10 -5 0 -9 5 -9 10 0 6 7 10 16 10 8
0 12 -4 9 -10z m160 0 c3 -5 1 -10 -4 -10 -6 0 -11 5 -11 10 0 6 2 10 4 10 3
0 8 -4 11 -10z m1755 6 c0 -2 -6 -15 -13 -29 -11 -20 -17 -23 -25 -15 -7 7
-12 9 -12 5 0 -4 -15 0 -32 9 -30 16 -31 18 -13 25 21 8 95 12 95 5z m-3880
-25 c0 -6 -4 -13 -10 -16 -5 -3 -10 1 -10 9 0 9 5 16 10 16 6 0 10 -4 10 -9z
m191 -8 c8 -10 9 -14 2 -10 -6 4 -14 3 -18 -3 -8 -13 -25 -3 -25 16 0 19 24
18 41 -3z m1620 7 c5 0 9 -4 9 -10 0 -12 -47 -13 -54 -1 -8 12 6 22 22 16 7
-3 18 -5 23 -5z m1444 -10 c-3 -5 -13 -6 -21 -3 -12 4 -13 8 -3 14 15 9 32 2
24 -11z m-3004 -3 c-1 -12 -15 -9 -19 4 -3 6 1 10 8 8 6 -3 11 -8 11 -12z
m3729 3 c0 -5 -2 -10 -4 -10 -3 0 -8 5 -11 10 -3 6 -1 10 4 10 6 0 11 -4 11
-10z m-3340 -4 c0 -2 -7 -6 -15 -10 -8 -3 -15 -1 -15 4 0 6 7 10 15 10 8 0 15
-2 15 -4z m1488 -12 c-2 -9 -13 -23 -25 -32 -21 -13 -23 -13 -23 1 0 10 6 14
15 11 10 -4 15 0 15 15 0 12 5 21 11 21 6 0 9 -7 7 -16z m592 6 c0 -5 -4 -10
-10 -10 -5 0 -10 5 -10 10 0 6 5 10 10 10 6 0 10 -4 10 -10z m-443 -30 c1 -11
-4 -20 -13 -20 -8 0 -14 9 -14 20 0 11 6 20 13 20 7 0 13 -9 14 -20z m-2114
-15 c-7 -21 -13 -19 -13 6 0 11 4 18 10 14 5 -3 7 -12 3 -20z m2175 7 c2 -7
-3 -12 -12 -12 -9 0 -16 7 -16 16 0 17 22 14 28 -4z m1652 -7 c19 -14 31 -25
28 -25 -13 0 -68 33 -68 41 0 13 2 12 40 -16z m-2295 -29 c25 -20 45 -41 45
-46 0 -4 -16 -8 -35 -7 -27 1 -32 4 -23 14 8 10 6 18 -7 33 -10 11 -24 20 -30
20 -7 0 -15 6 -18 14 -9 24 21 12 68 -28z m1505 34 c0 -5 -4 -10 -10 -10 -5 0
-10 5 -10 10 0 6 5 10 10 10 6 0 10 -4 10 -10z m730 -27 c28 -36 7 -43 -25 -8
-29 30 -30 35 -11 35 8 0 24 -12 36 -27z m-1620 -3 c0 -5 -2 -10 -4 -10 -3 0
-8 5 -11 10 -3 6 -1 10 4 10 6 0 11 -4 11 -10z m140 -5 c14 -16 10 -18 -14 -9
-9 3 -16 10 -16 15 0 14 16 11 30 -6z m882 -17 c-9 -9 -12 -7 -12 12 0 19 3
21 12 12 9 -9 9 -15 0 -24z m-1536 -3 c-10 -8 -23 -12 -28 -9 -6 4 1 12 14 18
29 16 39 9 14 -9z m-1073 8 c-7 -2 -21 -2 -30 0 -10 3 -4 5 12 5 17 0 24 -2
18 -5z m737 -3 c0 -5 -7 -7 -15 -4 -8 4 -15 8 -15 10 0 2 7 4 15 4 8 0 15 -4
15 -10z m1199 -16 c-10 -12 -14 -12 -20 -2 -4 7 -3 16 4 20 18 11 29 -2 16
-18z m44 -17 c-9 -16 -26 12 -18 30 7 17 8 17 15 -2 4 -11 5 -24 3 -28z m527
33 c0 -5 -7 -10 -15 -10 -8 0 -15 5 -15 10 0 6 7 10 15 10 8 0 15 -4 15 -10z
m351 -16 c7 -8 9 -17 6 -20 -6 -6 -56 27 -57 38 0 10 39 -3 51 -18z m127 14
c7 -7 12 -16 12 -20 0 -15 -15 -8 -28 12 -13 22 -3 27 16 8z m-3800 -33 c15
-33 15 -35 -3 -35 -8 0 -15 6 -15 14 0 8 -3 21 -6 30 -10 27 12 18 24 -9z
m3769 -5 c6 -13 10 -26 7 -29 -6 -6 -54 40 -54 51 0 19 35 2 47 -22z m341 13
c6 -19 -45 -16 -52 3 -5 12 0 15 21 12 14 -2 28 -9 31 -15z m-1888 -23 c0 -19
-28 -10 -33 10 -4 17 -2 18 14 9 10 -5 19 -14 19 -19z m1274 15 c4 -11 -2 -15
-21 -15 -21 0 -24 2 -13 15 7 8 16 15 20 15 4 0 10 -7 14 -15z m356 -1 c0 -17
-22 -14 -28 4 -2 7 3 12 12 12 9 0 16 -7 16 -16z m-2440 -3 c0 -12 -20 -25
-27 -18 -7 7 6 27 18 27 5 0 9 -4 9 -9z m2490 -1 c0 -5 -6 -10 -14 -10 -8 0
-18 5 -21 10 -3 6 3 10 14 10 12 0 21 -4 21 -10z m-540 -26 c0 -20 -54 -18
-73 4 -15 16 -13 17 29 14 29 -3 44 -9 44 -18z m618 -3 c-5 -24 -38 -27 -38
-3 0 10 3 21 6 25 11 11 35 -5 32 -22z m-3831 -15 c-4 -9 -11 -16 -17 -16 -11
0 -14 33 -3 43 11 11 26 -10 20 -27z m2428 23 c11 -17 -1 -21 -15 -4 -8 9 -8
15 -2 15 6 0 14 -5 17 -11z m815 -5 c0 -8 -5 -12 -10 -9 -6 4 -8 11 -5 16 9
14 15 11 15 -7z m-1050 -30 c0 -8 -4 -14 -10 -14 -5 0 -10 4 -10 9 0 5 -3 18
-7 28 -6 16 -5 16 10 4 9 -7 17 -20 17 -27z m1156 -11 c-10 -10 -19 5 -10 18
6 11 8 11 12 0 2 -7 1 -15 -2 -18z m44 17 c0 -5 -4 -10 -10 -10 -5 0 -10 5
-10 10 0 6 5 10 10 10 6 0 10 -4 10 -10z m350 -21 c0 -3 -13 -6 -30 -7 -27 -1
-40 15 -25 30 7 6 55 -14 55 -23z m-2244 -15 c9 -28 9 -34 -2 -30 -7 3 -17 0
-21 -7 -5 -8 -9 -3 -13 13 -6 23 7 60 20 60 3 0 10 -16 16 -36z m754 26 c0 -5
-5 -10 -11 -10 -5 0 -7 5 -4 10 3 6 8 10 11 10 2 0 4 -4 4 -10z m440 -32 c0
-13 -24 -9 -48 8 -12 8 -20 19 -17 24 6 10 65 -20 65 -32z m103 -17 c-9 -11
-33 27 -27 43 6 16 9 14 19 -10 7 -16 10 -31 8 -33z m1191 50 c9 -14 -42 -23
-64 -11 -11 6 -20 13 -20 15 0 9 79 5 84 -4z m-4045 -27 c-14 -18 -24 -11 -15
11 3 9 11 13 16 10 8 -5 7 -11 -1 -21z m1347 -10 c-5 -13 -10 -14 -18 -6 -6 6
-8 18 -4 28 5 13 10 14 18 6 6 -6 8 -18 4 -28z m-1436 11 c-7 -9 -15 -13 -17
-11 -7 7 7 26 19 26 6 0 6 -6 -2 -15z m237 -11 c-15 -14 -33 -24 -39 -22 -6 2
4 14 23 26 45 29 50 28 16 -4z m2936 19 c-7 -2 -19 -2 -25 0 -7 3 -2 5 12 5
14 0 19 -2 13 -5z m-128 -12 c9 -16 -15 -24 -30 -11 -12 10 -15 9 -15 -4 0
-10 -4 -15 -10 -11 -5 3 -7 12 -3 20 6 16 48 20 58 6z m703 -15 c4 -16 0 -18
-29 -12 -40 8 -48 14 -29 27 23 14 54 6 58 -15z m-1583 -6 c3 -6 -1 -13 -10
-16 -19 -8 -30 0 -20 15 8 14 22 14 30 1z m-420 -10 c-3 -5 -10 -10 -16 -10
-5 0 -9 5 -9 10 0 6 7 10 16 10 8 0 12 -4 9 -10z m-1565 -10 c0 -5 -5 -10 -11
-10 -5 0 -7 5 -4 10 3 6 8 10 11 10 2 0 4 -4 4 -10z m1093 -35 c-7 -19 -12
-19 -35 2 -30 27 -23 44 12 27 18 -10 27 -20 23 -29z m227 35 c0 -5 -5 -10
-11 -10 -5 0 -7 5 -4 10 3 6 8 10 11 10 2 0 4 -4 4 -10z m610 0 c0 -5 -2 -10
-4 -10 -3 0 -8 5 -11 10 -3 6 -1 10 4 10 6 0 11 -4 11 -10z m-2158 -48 c-3
-35 -9 -45 -34 -58 -39 -20 -48 -10 -17 18 14 13 31 38 38 56 17 41 19 38 13
-16z m1843 37 c11 -17 -1 -21 -15 -4 -8 9 -8 15 -2 15 6 0 14 -5 17 -11z m806
-42 c-8 -8 -11 -4 -11 14 0 33 14 47 18 19 2 -12 -1 -27 -7 -33z m-2601 29 c0
-8 -4 -18 -10 -21 -5 -3 -10 3 -10 14 0 12 5 21 10 21 6 0 10 -6 10 -14z
m1915 -6 c3 -5 1 -10 -4 -10 -6 0 -11 5 -11 10 0 6 2 10 4 10 3 0 8 -4 11 -10z
m228 -7 c-7 -2 -19 -2 -25 0 -7 3 -2 5 12 5 14 0 19 -2 13 -5z m-463 -23 c0
-13 -28 -25 -38 -16 -3 4 0 11 8 16 20 13 30 12 30 0z m570 6 c0 -3 -4 -8 -10
-11 -5 -3 -10 -1 -10 4 0 6 5 11 10 11 6 0 10 -2 10 -4z m-460 -16 c0 -5 -4
-10 -10 -10 -5 0 -10 5 -10 10 0 6 5 10 10 10 6 0 10 -4 10 -10z m30 -10 c0
-5 -4 -10 -10 -10 -5 0 -10 5 -10 10 0 6 5 10 10 10 6 0 10 -4 10 -10z m380
-19 c0 -5 -11 -11 -25 -13 -26 -5 -35 6 -12 15 20 9 37 8 37 -2z m67 -17 c-3
-3 -12 -4 -19 -1 -8 3 -5 6 6 6 11 1 17 -2 13 -5z m-627 -36 c0 -5 -7 -8 -15
-8 -15 0 -20 21 -8 33 7 7 23 -11 23 -25z m146 -5 c-11 -11 -19 6 -11 24 8 17
8 17 12 0 3 -10 2 -21 -1 -24z m344 17 c0 -5 -4 -10 -10 -10 -5 0 -10 5 -10
10 0 6 5 10 10 10 6 0 10 -4 10 -10z m70 -10 c0 -5 -4 -10 -10 -10 -5 0 -10 5
-10 10 0 6 5 10 10 10 6 0 10 -4 10 -10z m106 -67 c-11 -11 -19 6 -11 24 8 17
8 17 12 0 3 -10 2 -21 -1 -24z m-28 -15 c-2 -13 -7 -23 -13 -23 -5 0 -11 10
-13 23 -2 15 2 22 13 22 11 0 15 -7 13 -22z m-88 2 c0 -5 -5 -10 -11 -10 -5 0
-7 5 -4 10 3 6 8 10 11 10 2 0 4 -4 4 -10z m-527 -6 c3 -3 3 -12 0 -20 -4 -11
-9 -12 -19 -3 -8 6 -11 15 -8 20 6 10 18 12 27 3z m791 -71 c-25 -18 -64 -17
-64 3 0 10 6 14 14 11 8 -3 25 5 38 18 23 24 23 24 26 3 2 -13 -4 -27 -14 -35z
m46 47 c0 -5 -5 -10 -11 -10 -5 0 -7 5 -4 10 3 6 8 10 11 10 2 0 4 -4 4 -10z
m-380 -10 c0 -5 -5 -10 -11 -10 -5 0 -7 5 -4 10 3 6 8 10 11 10 2 0 4 -4 4
-10z m-280 -30 c0 -5 -5 -10 -11 -10 -5 0 -7 5 -4 10 3 6 8 10 11 10 2 0 4 -4
4 -10z m72 -22 c-7 -7 -12 -8 -12 -2 0 14 12 26 19 19 2 -3 -1 -11 -7 -17z
m278 0 c0 -16 -3 -19 -11 -11 -6 6 -8 16 -5 22 11 17 16 13 16 -11z m-70 -12
c0 -7 -9 -16 -21 -19 -12 -3 -18 -10 -15 -16 4 -5 2 -12 -4 -16 -18 -11 -11
37 8 51 22 17 32 17 32 0z m-130 -41 c0 -8 -4 -15 -10 -15 -5 0 -10 7 -10 15
0 8 5 15 10 15 6 0 10 -7 10 -15z m30 -155 c0 -5 -4 -10 -10 -10 -5 0 -10 5
-10 10 0 6 5 10 10 10 6 0 10 -4 10 -10z m-320 -63 c0 -6 -9 -2 -20 8 -11 10
-17 22 -13 28 6 10 33 -19 33 -36z m330 -2 c0 -8 -2 -15 -4 -15 -2 0 -6 7 -10
15 -3 8 -1 15 4 15 6 0 10 -7 10 -15z m1140 -5 c12 -8 9 -10 -12 -10 -16 0
-28 5 -28 10 0 13 20 13 40 0z m-1130 -30 c0 -5 -4 -10 -10 -10 -5 0 -10 5
-10 10 0 6 5 10 10 10 6 0 10 -4 10 -10z m1134 -96 c25 -24 19 -38 -9 -20 -13
9 -31 16 -40 16 -9 0 -13 5 -10 10 9 15 42 12 59 -6z m186 -54 c0 -5 -2 -10
-4 -10 -3 0 -8 5 -11 10 -3 6 -1 10 4 10 6 0 11 -4 11 -10z m93 -57 c-48 -16
-71 -10 -52 13 22 27 52 34 72 16 16 -14 15 -16 -20 -29z m-2693 -13 c0 -15
-38 -32 -45 -20 -3 5 -3 15 0 20 8 13 45 13 45 0z m-100 -14 c0 -8 -5 -18 -10
-21 -17 -11 -40 3 -34 20 8 19 44 20 44 1z m2216 -21 c10 -8 29 -15 40 -15 22
0 48 -22 39 -32 -3 -3 17 -5 45 -4 44 2 50 -1 50 -18 0 -11 10 -30 22 -43 17
-18 32 -23 74 -23 39 0 53 -4 58 -16 6 -15 8 -15 26 1 19 17 20 17 20 -2 0
-11 -9 -28 -20 -38 -11 -10 -20 -24 -20 -32 0 -18 30 -16 52 4 17 15 19 15 36
0 23 -21 52 -22 52 -3 0 10 7 12 23 9 27 -7 57 -32 57 -48 0 -17 92 -155 118
-179 12 -11 22 -22 22 -26 0 -6 -78 -58 -159 -108 -32 -19 -36 -19 -68 -4 -31
15 -34 15 -55 -5 -17 -15 -32 -19 -55 -16 -37 6 -37 6 -23 31 5 9 16 51 24 92
8 41 18 85 22 98 8 29 -9 29 -49 -2 -29 -22 -160 -76 -185 -76 -5 0 -12 12
-14 28 -3 15 -9 35 -13 45 -5 13 -2 17 13 17 12 0 24 5 28 11 11 18 -15 34
-51 30 -30 -2 -35 0 -35 19 0 20 -4 22 -35 16 l-35 -7 0 85 c0 47 -5 88 -10
91 -19 11 -45 80 -42 108 4 30 19 34 48 12z m-2331 -26 c0 -15 -7 -25 -17 -27
-13 -3 -18 3 -18 21 0 13 3 27 7 31 13 12 28 -1 28 -25z m2485 11 c0 -5 -4
-10 -10 -10 -5 0 -10 5 -10 10 0 6 5 10 10 10 6 0 10 -4 10 -10z m-2582 -61
c-4 -33 -38 -39 -38 -7 0 28 20 52 33 39 5 -5 7 -19 5 -32z m245 13 c9 -8 17
-19 17 -24 0 -14 -44 -9 -69 9 -23 15 -23 17 -6 29 19 14 28 12 58 -14z m101
3 c19 -29 20 -35 4 -35 -22 1 -61 37 -54 49 12 18 33 13 50 -14z m2341 15 c3
-5 18 -10 33 -10 17 0 23 -3 16 -10 -12 -12 -66 2 -72 18 -4 14 14 16 23 2z
m-2541 -53 c16 -11 15 -14 -13 -35 l-31 -22 -6 24 c-10 43 14 59 50 33z m-272
-28 c-3 -27 -31 -61 -43 -53 -10 6 -1 53 14 72 15 19 32 8 29 -19z m3133 21
c3 -5 -3 -10 -14 -10 -11 0 -23 5 -26 10 -3 6 3 10 14 10 11 0 23 -4 26 -10z
m-1464 -90 c5 -275 1 -350 -16 -350 -8 0 -37 27 -64 60 -93 112 -101 219 -24
310 34 39 62 58 91 59 8 1 12 -22 13 -79z m1354 60 c3 -5 1 -10 -4 -10 -6 0
-11 5 -11 10 0 6 2 10 4 10 3 0 8 -4 11 -10z m-3137 -54 c-2 -17 -7 -31 -13
-30 -14 1 -29 49 -21 69 11 29 38 -2 34 -39z m293 34 c21 -17 22 -21 9 -30 -8
-5 -23 -10 -32 -10 -22 0 -61 37 -53 50 10 17 51 11 76 -10z m1606 -9 c59 -50
74 -109 51 -209 -12 -51 -68 -135 -82 -122 -5 5 -10 218 -7 308 1 47 6 50 38
23z m-1295 -31 c9 -25 -4 -78 -28 -117 -12 -19 -12 -30 1 -80 21 -80 20 -86
-12 -80 -33 6 -53 -1 -53 -19 0 -8 -4 -14 -9 -14 -5 0 -22 -5 -37 -10 -26 -10
-26 -11 -8 -31 18 -20 28 -86 14 -94 -13 -8 -103 27 -146 56 -23 16 -44 40
-48 54 -4 14 -13 25 -21 25 -24 0 -18 -45 11 -79 23 -28 25 -37 23 -108 -2
-44 2 -87 9 -99 6 -11 31 -32 56 -45 26 -13 46 -27 46 -31 0 -9 -83 28 -201
90 -53 28 -117 53 -143 57 -51 8 -55 18 -30 66 8 17 24 58 35 92 23 72 44 107
63 107 8 0 27 10 43 23 15 13 36 27 46 30 17 7 16 10 -13 43 -17 20 -29 39
-26 42 4 3 13 -3 21 -14 12 -15 16 -16 24 -5 6 9 18 11 41 6 26 -6 37 -2 58
18 15 14 44 32 64 40 20 9 41 25 47 36 7 11 28 32 49 46 48 33 111 31 124 -5z
m-690 -32 c-9 -9 -12 -7 -12 12 0 19 3 21 12 12 9 -9 9 -15 0 -24z m267 18
c18 -22 -41 -43 -77 -27 -26 12 -26 13 -7 27 24 18 69 18 84 0z m-329 -30 c0
-14 -4 -28 -10 -31 -6 -4 -10 7 -10 24 0 17 5 31 10 31 6 0 10 -11 10 -24z
m472 -18 c-7 -7 -12 -8 -12 -2 0 14 12 26 19 19 2 -3 -1 -11 -7 -17z m-265
-11 c17 -36 1 -53 -30 -32 -14 9 -28 22 -30 30 -13 33 45 35 60 2z m-117 -32
c0 -8 -4 -15 -10 -15 -5 0 -10 7 -10 15 0 8 5 15 10 15 6 0 10 -7 10 -15z
m190 -29 c0 -16 -18 -31 -27 -22 -8 8 5 36 17 36 5 0 10 -6 10 -14z m-267 -10
c3 -12 -30 -32 -39 -24 -11 12 5 40 21 36 9 -2 17 -7 18 -12z m123 -23 c-11
-11 -19 6 -11 24 8 17 8 17 12 0 3 -10 2 -21 -1 -24z m3472 -115 c7 -7 12 -15
12 -19 0 -4 -40 -27 -90 -51 -63 -30 -90 -48 -90 -61 0 -25 -76 -104 -138
-144 -54 -35 -78 -35 -69 -2 6 23 -12 37 -24 18 -5 -8 -9 -26 -9 -40 0 -25
-16 -39 -42 -39 -6 0 -7 16 -3 43 l6 42 -21 -24 c-11 -13 -20 -29 -20 -36 0
-8 -12 -23 -27 -35 -43 -34 -50 -9 -14 49 34 56 36 61 21 61 -5 0 -26 -24 -45
-54 -28 -41 -35 -59 -30 -79 5 -19 0 -35 -20 -61 -15 -20 -31 -36 -36 -36 -19
0 -8 48 13 62 17 12 20 19 12 29 -6 8 -12 39 -12 70 -1 50 2 60 33 97 19 22
35 45 35 51 0 7 13 2 30 -10 23 -18 44 -23 92 -23 77 0 142 29 298 133 58 39
110 71 116 71 5 0 15 -5 22 -12z m-568 -77 c0 -6 -10 -22 -23 -36 -21 -25 -24
-25 -50 -12 l-28 15 38 20 c42 23 63 27 63 13z m-97 -101 c-3 -8 -7 -27 -7
-42 -1 -15 -4 -24 -7 -20 -10 11 -19 99 -11 106 11 11 33 -27 25 -44z m581 -3
c14 -21 26 -44 26 -51 0 -7 9 -21 19 -30 22 -20 71 -15 92 10 6 8 26 14 44 14
18 0 44 9 58 20 14 11 28 20 31 20 8 0 52 -90 60 -123 5 -23 2 -29 -18 -38
-20 -10 -30 -8 -54 10 -17 11 -36 21 -44 21 -8 0 -18 4 -23 9 -6 5 -35 5 -70
0 -49 -6 -63 -5 -77 8 -16 14 -18 14 -24 -3 -10 -33 -20 -48 -47 -68 -33 -25
-44 -16 -22 18 10 15 14 33 10 46 -10 30 -50 53 -80 46 -17 -4 -25 -2 -25 6 0
12 111 131 116 125 2 -1 14 -19 28 -40z m-1586 -117 c-1 -104 -8 -115 -35 -53
-21 51 -3 153 27 153 5 0 8 -45 8 -100z m86 49 c9 -38 -9 -149 -25 -149 -5 0
-9 43 -9 96 0 72 3 95 13 92 6 -3 16 -20 21 -39z m-1779 -56 c33 -16 107 -53
164 -83 109 -56 169 -70 220 -52 36 13 31 19 144 -169 87 -146 202 -409 211
-488 l7 -54 -60 7 c-39 4 -68 3 -82 -4 -31 -17 -18 -26 41 -29 48 -2 48 -27 3
-74 -77 -80 -64 -141 36 -171 33 -10 64 -15 70 -12 12 8 43 -22 36 -34 -7 -11
-64 -2 -83 13 -8 6 -36 6 -85 -2 -95 -15 -256 -19 -259 -6 -2 6 38 11 97 13
55 2 109 9 120 15 16 10 4 12 -70 15 -70 2 -93 6 -103 19 -6 10 -36 23 -65 30
-69 18 -101 42 -105 81 -4 39 18 46 98 35 47 -7 55 -12 58 -31 4 -29 36 -48
90 -55 39 -5 46 -2 83 32 62 60 49 87 -15 30 -42 -36 -74 -35 -96 3 -13 25
-13 29 1 44 9 9 34 17 55 18 70 3 79 20 39 72 -16 21 -41 38 -66 45 -26 8 -45
22 -54 38 -7 14 -22 35 -34 45 -12 11 -21 28 -21 39 0 10 -29 57 -66 104 -36
46 -81 115 -100 151 -20 37 -50 82 -67 100 -72 74 -240 123 -343 100 -27 -6
-33 -4 -37 14 -5 16 -11 19 -31 14 -14 -3 -28 -1 -31 4 -4 6 -15 8 -24 5 -15
-4 -17 0 -13 25 3 25 9 30 31 30 14 0 46 9 70 20 49 23 103 28 83 8 -19 -19
-14 -27 23 -34 19 -3 56 -20 82 -36 46 -30 48 -30 62 -11 15 20 16 20 78 -1
59 -19 64 -19 80 -3 16 15 14 17 -23 32 -21 8 -61 27 -88 42 l-49 26 -18 -22
c-18 -23 -33 -14 -23 13 3 9 1 23 -5 30 -19 22 -101 29 -148 13 -33 -11 -44
-11 -58 -1 -12 9 -25 10 -41 4 -13 -5 -24 -7 -24 -3 0 14 44 53 59 53 9 0 34
7 56 15 56 21 120 14 190 -22z m1450 6 c22 -5 61 -9 88 -9 40 0 49 -4 59 -24
11 -25 6 -56 -9 -56 -5 0 -13 10 -18 23 -7 15 -19 22 -40 24 -16 0 -54 4 -84
9 -49 6 -53 6 -49 -12 3 -16 13 -19 71 -19 65 0 98 -17 45 -23 -31 -4 -35 -11
-15 -31 10 -10 9 -14 -6 -22 -13 -8 -15 -14 -7 -29 14 -27 13 -29 -17 -41 -26
-10 -27 -12 -10 -23 9 -7 17 -21 17 -30 0 -14 -7 -17 -32 -14 -41 4 -47 -17
-8 -30 17 -6 30 -18 30 -28 0 -11 -5 -14 -17 -9 -42 17 -53 17 -53 0 0 -9 13
-22 30 -28 18 -7 30 -19 30 -29 0 -15 -6 -17 -46 -11 -38 5 -46 3 -42 -8 2 -8
21 -18 41 -23 21 -5 36 -14 33 -20 -2 -6 -10 -9 -17 -7 -46 13 -69 13 -69 -2
0 -8 11 -18 25 -21 16 -4 25 -13 25 -26 0 -11 -2 -20 -4 -20 -2 0 -28 13 -59
30 -59 31 -52 31 -197 5 -34 -6 -34 -6 -15 10 33 28 82 45 131 45 32 0 44 4
42 13 -7 18 -45 21 -121 7 -38 -7 -71 -10 -74 -7 -13 13 62 38 117 38 44 1 60
5 60 15 0 22 -83 23 -158 3 -23 -7 -45 -9 -48 -7 -11 11 74 41 120 43 51 2 72
18 38 30 -20 6 -121 -7 -153 -20 -11 -4 -22 3 -33 19 -9 15 -15 26 -14 27 2 0
47 2 102 4 54 2 103 8 109 14 15 15 -35 25 -94 18 -48 -6 -71 4 -47 20 7 4 49
8 93 8 64 0 80 3 80 15 0 33 -197 18 -223 -18 -13 -16 -14 -16 -28 3 -28 38
-6 47 144 63 40 4 73 12 75 17 4 17 -105 17 -166 0 -52 -15 -80 -15 -65 0 5 6
150 33 197 37 19 2 36 9 39 16 5 17 -63 16 -171 -4 -67 -12 -91 -14 -100 -5
-14 14 10 33 33 26 8 -3 53 0 100 7 47 6 110 11 140 12 42 1 55 5 55 16 0 11
-14 16 -54 18 -71 4 -256 -15 -282 -29 -26 -13 -38 -3 -18 15 15 14 120 43
179 50 53 5 270 -5 315 -15z m1245 -49 c-12 -41 -19 -50 -39 -50 -17 0 -41
-18 -41 -31 0 -4 12 -9 27 -11 18 -2 29 -10 31 -22 6 -30 -13 -41 -39 -22 -31
21 -55 20 -79 -4 -26 -26 -25 -61 2 -96 13 -16 21 -39 20 -54 -2 -16 5 -33 20
-46 40 -37 57 -37 91 -2 18 18 48 41 67 52 60 32 63 50 19 100 -32 36 -31 56
0 56 11 0 25 14 35 34 19 40 65 71 119 79 36 6 37 5 37 -24 0 -18 4 -28 10
-24 6 3 10 22 10 41 0 22 5 34 14 34 20 0 27 -52 9 -72 -19 -21 -10 -51 24
-78 24 -18 28 -19 49 -5 30 20 84 10 84 -16 0 -26 -34 -43 -50 -24 -15 18 -60
16 -68 -3 -6 -17 15 -32 46 -32 20 0 22 -4 16 -22 -9 -32 -10 -33 -39 -14 -16
10 -34 14 -50 10 -22 -5 -26 -2 -31 25 -7 32 -45 71 -70 71 -17 0 -64 -62 -64
-84 0 -10 9 -30 21 -44 l20 -27 -39 -16 c-48 -21 -59 -45 -34 -78 31 -42 49
-48 82 -29 29 17 30 16 50 -13 41 -57 98 -30 86 41 -5 32 -3 41 13 49 10 6 21
7 25 4 9 -9 -4 -75 -20 -98 -16 -23 -18 -71 -4 -80 13 -8 13 -75 0 -75 -6 0
-22 7 -35 16 -13 9 -29 13 -35 9 -5 -3 -10 -1 -10 6 0 10 -3 10 -12 1 -10 -10
-15 -6 -24 20 -13 40 -27 45 -53 19 -17 -17 -19 -28 -14 -73 6 -51 18 -72 35
-62 5 3 6 9 3 14 -8 13 6 61 15 55 5 -3 6 -21 3 -39 -5 -29 -1 -37 26 -57 21
-15 31 -30 28 -41 -4 -12 6 -26 26 -40 42 -29 56 -48 57 -75 0 -28 17 -38 36
-22 11 9 14 23 10 47 -4 27 -1 38 15 51 20 16 20 16 0 55 -21 41 -20 56 5 56
22 0 17 24 -11 50 -14 13 -25 31 -25 40 0 10 23 48 51 85 49 67 56 91 19 67
-25 -15 -30 -15 -30 1 0 8 16 22 35 33 19 10 35 22 35 26 0 13 119 77 173 93
50 15 56 14 116 -8 39 -14 72 -32 84 -49 l19 -26 -46 -182 c-25 -100 -46 -196
-46 -213 0 -18 -17 -67 -37 -109 -28 -57 -52 -89 -92 -123 -29 -25 -59 -44
-65 -42 -6 2 -14 22 -18 45 -4 23 -10 47 -13 52 -13 21 -22 -2 -18 -44 4 -28
1 -46 -7 -51 -19 -12 -31 9 -34 59 -2 26 -6 49 -9 52 -15 15 -27 -12 -27 -57
0 -30 -4 -48 -10 -44 -5 3 -9 31 -9 61 1 38 -4 61 -15 72 -14 14 -16 14 -22
-2 -3 -9 -4 -43 -2 -76 4 -57 -3 -78 -16 -45 -9 25 -26 17 -26 -13 0 -37 -21
-65 -46 -60 -15 3 -19 11 -17 38 2 19 0 46 -3 60 -5 24 -6 24 -20 6 -8 -11
-14 -39 -14 -63 0 -32 -5 -45 -19 -53 -27 -14 -50 -3 -57 29 -14 55 -44 64
-44 12 0 -36 -18 -58 -54 -67 l-28 -7 3 54 c3 43 1 54 -11 54 -9 0 -17 -15
-22 -44 -8 -46 -36 -87 -49 -74 -5 5 -2 26 6 48 20 55 19 77 -2 73 -10 -2 -24
-22 -33 -45 -23 -62 -46 -83 -92 -83 -48 0 -56 16 -34 70 9 22 16 53 16 68 1
15 9 45 20 67 11 22 19 50 20 63 0 12 4 22 9 22 16 0 36 -64 35 -113 -1 -50
13 -58 31 -19 5 12 17 22 26 22 26 0 30 49 9 98 -20 44 -33 49 -112 43 -32 -2
-91 26 -83 39 4 6 14 5 25 -2 24 -15 44 0 34 25 -11 29 -52 21 -69 -13 -21
-41 -35 -38 -35 9 0 34 4 42 28 53 20 10 27 21 27 43 0 22 5 30 18 30 11 0 28
11 39 24 21 27 18 64 -7 90 -11 12 -11 17 2 37 28 44 -8 114 -59 114 -14 0
-18 8 -18 35 0 24 5 35 15 35 8 0 15 4 15 9 0 5 -7 14 -15 21 -8 7 -15 20 -15
30 0 15 -7 17 -45 12 -52 -5 -58 6 -21 42 12 13 26 31 29 40 4 9 18 21 31 26
14 5 30 18 36 29 6 12 16 18 25 15 24 -10 65 23 65 51 0 22 4 24 23 20 15 -4
28 -1 36 9 19 23 21 20 11 -14z m-713 -26 c-3 -3 -12 -4 -19 -1 -8 3 -5 6 6 6
11 1 17 -2 13 -5z m1548 -14 c40 -45 68 -232 32 -216 -7 3 -31 10 -54 17 -24
6 -43 17 -43 23 0 19 23 44 45 48 13 2 21 12 23 31 3 21 -2 29 -22 37 -21 8
-26 16 -26 45 0 40 17 46 45 15z m-201 2 c8 -14 -8 -30 -39 -38 l-30 -7 24 27
c25 27 36 32 45 18z m-1672 -59 c22 -20 23 -54 2 -95 -31 -60 -19 -164 31
-258 27 -51 74 -30 112 53 44 92 39 172 -14 229 -27 28 -27 55 -1 72 22 14 54
-15 64 -58 3 -17 26 -69 50 -116 25 -47 54 -124 66 -172 20 -83 20 -89 4 -107
-9 -10 -19 -32 -20 -47 -2 -16 -4 -31 -5 -33 0 -2 -9 3 -18 11 -10 8 -56 34
-103 58 -47 23 -96 48 -110 55 -37 19 -207 29 -213 13 -2 -7 -8 -10 -12 -6 -4
4 0 40 9 80 8 40 25 118 36 173 34 159 36 165 72 165 18 0 40 -7 50 -17z
m1586 -25 c3 -28 44 -68 68 -68 16 0 37 -37 29 -50 -10 -17 -35 -11 -63 15
-40 37 -55 29 -68 -38 -12 -61 -28 -87 -50 -87 -8 0 -14 1 -14 3 0 1 16 47 35
102 25 69 34 109 29 128 -5 24 -3 28 13 25 11 -2 19 -13 21 -30z m408 -35
c-14 -78 -18 -93 -26 -93 -12 0 0 101 13 118 16 20 20 14 13 -25z m-3931 -33
c-3 -5 -10 -10 -16 -10 -5 0 -9 5 -9 10 0 6 7 10 16 10 8 0 12 -4 9 -10z
m2046 -6 c17 -21 19 -161 2 -189 -10 -16 -12 -4 -11 71 0 50 -5 101 -11 113
-14 25 1 28 20 5z m-56 -94 c0 -95 -5 -120 -19 -84 -8 21 -8 169 1 177 15 16
18 2 18 -93z m-1790 71 c3 -5 -13 -20 -35 -32 -22 -13 -40 -28 -40 -34 0 -17
22 -35 43 -35 15 0 18 5 14 21 -4 15 3 30 23 50 28 28 29 29 66 13 55 -23 167
-133 160 -158 -7 -26 10 -55 53 -93 41 -35 37 -57 -5 -24 -15 11 -31 21 -37
21 -5 0 -15 7 -21 16 -6 8 -31 20 -55 25 -24 5 -55 19 -69 29 -18 15 -40 20
-82 20 -51 0 -61 4 -94 33 -23 22 -34 39 -31 49 10 25 -13 31 -27 8 -17 -27
-28 -25 -28 4 0 28 41 61 99 82 44 16 58 17 66 5z m-195 -31 c-22 -31 -40 -46
-40 -34 0 8 51 64 58 64 2 0 -6 -13 -18 -30z m3542 -12 c-7 -7 -12 -8 -12 -2
0 14 12 26 19 19 2 -3 -1 -11 -7 -17z m-41 -25 c-12 -20 -14 -14 -5 12 4 9 9
14 11 11 3 -2 0 -13 -6 -23z m459 3 c0 -28 -17 -43 -32 -28 -6 6 -5 17 4 31
17 28 28 27 28 -3z m-3990 -61 c0 -9 -9 -15 -21 -15 -18 0 -19 2 -9 15 7 8 16
15 21 15 5 0 9 -7 9 -15z m15 -75 c0 -17 -34 -24 -54 -11 -7 5 -10 14 -6 20
10 17 60 9 60 -9z m310 -54 c11 -7 38 -16 59 -20 22 -4 58 -22 82 -39 23 -18
55 -39 71 -48 31 -17 66 -79 61 -107 -3 -13 -16 -18 -63 -20 -56 -2 -64 0
-112 35 -29 21 -52 44 -52 50 -1 7 -16 30 -35 50 -41 47 -59 80 -52 99 7 18
16 18 41 0z m1208 -3 c-7 -2 -19 -2 -25 0 -7 3 -2 5 12 5 14 0 19 -2 13 -5z
m-1513 -13 c0 -5 -13 -10 -29 -10 -17 0 -33 5 -36 10 -4 6 8 10 29 10 20 0 36
-4 36 -10z m1620 -20 c13 -25 -1 -55 -29 -63 -38 -10 -54 32 -24 65 21 23 40
23 53 -2z m1117 8 c-5 -15 -46 -13 -61 2 -7 7 3 10 28 10 26 0 36 -4 33 -12z
m-682 -60 c44 -21 98 -52 120 -68 22 -17 48 -33 58 -36 21 -8 61 -80 52 -94
-9 -15 -31 -12 -45 5 -9 10 -31 15 -72 15 -69 0 -91 9 -138 60 -29 30 -44 38
-88 44 -66 9 -82 15 -82 32 0 21 70 18 142 -7 73 -24 98 -13 42 20 -49 29
-112 51 -149 51 -16 1 -43 7 -60 15 -27 12 -22 13 55 8 72 -5 98 -12 165 -45z
m-547 9 c3 -22 -1 -27 -18 -27 -26 0 -37 25 -20 45 18 22 34 13 38 -18z m200
-13 c-17 -17 -48 -13 -48 6 0 15 43 30 55 19 6 -6 3 -15 -7 -25z m91 22 c18
-21 -3 -62 -34 -70 -37 -9 -41 -2 -16 30 11 15 21 33 21 40 0 18 14 18 29 0z
m-1804 -6 c4 -6 -8 -10 -29 -10 -20 0 -36 5 -36 10 0 6 13 10 29 10 17 0 33
-4 36 -10z m269 -30 c20 -22 36 -49 36 -59 0 -11 15 -28 35 -40 43 -25 54 -49
31 -66 -26 -19 -51 -7 -65 31 -7 19 -23 47 -37 63 -21 25 -54 90 -54 106 0 15
21 1 54 -35z m2216 20 c26 -26 12 -60 -25 -60 -29 0 -45 41 -25 65 17 20 26
19 50 -5z m-1055 -16 c19 -29 12 -44 -13 -28 -18 12 -29 54 -14 54 5 0 17 -12
27 -26z m902 14 c6 -7 13 -30 16 -50 4 -27 2 -38 -10 -42 -22 -9 -30 -7 -47
10 -21 20 -20 53 1 76 19 21 27 22 40 6z m-2140 -74 c-9 -9 -45 19 -56 43 -18
39 -13 39 25 0 20 -21 34 -40 31 -43z m2373 34 c0 -17 -25 -36 -36 -26 -2 3
-1 19 2 37 5 25 9 29 20 20 8 -6 14 -20 14 -31z m137 20 c18 -17 23 -32 23
-71 0 -43 -2 -48 -15 -37 -12 10 -18 10 -30 0 -13 -10 -10 -18 21 -56 45 -54
33 -56 -23 -5 -49 44 -53 62 -18 85 26 17 35 68 15 81 -11 7 -14 25 -3 25 4 0
17 -10 30 -22z m-302 -28 c9 -16 11 -30 6 -30 -11 0 -31 32 -31 49 0 19 9 12
25 -19z m-2396 -6 c10 -9 -6 -11 -36 -7 -18 3 -33 9 -33 14 0 8 59 1 69 -7z
m1661 -4 c18 -12 18 -12 -42 -15 -51 -3 -102 -29 -95 -48 5 -17 84 -21 131 -7
27 8 42 8 49 1 13 -13 -31 -31 -78 -31 -31 0 -65 -21 -65 -39 0 -5 7 -14 15
-21 11 -9 19 -8 37 4 12 9 32 16 43 16 16 0 13 -4 -13 -20 -38 -24 -37 -46 2
-43 41 3 24 -11 -84 -72 -68 -38 -118 -59 -157 -65 -32 -6 -82 -17 -111 -27
-67 -20 -75 -12 -66 66 8 76 8 76 81 121 61 39 163 134 163 153 0 28 154 50
190 27z m873 -66 c23 -15 53 -37 67 -50 14 -12 37 -27 52 -33 29 -11 64 -60
91 -128 13 -32 14 -49 6 -71 -9 -25 -18 -31 -63 -40 -59 -12 -124 0 -140 26
-13 22 -87 52 -128 52 -21 0 -38 5 -38 10 0 6 20 10 45 10 38 0 45 3 45 20 0
17 -7 20 -42 21 -24 0 -52 4 -63 9 -19 7 -19 8 -2 15 10 4 36 5 57 2 41 -5 60
7 42 25 -6 6 -38 12 -73 14 -72 5 -84 11 -68 30 7 9 32 14 70 14 61 0 79 11
59 36 -10 11 -25 13 -61 8 -41 -5 -49 -4 -49 9 0 22 15 29 79 37 31 4 59 8 64
9 4 0 26 -11 50 -25z m-1164 -10 c-38 -41 -110 -86 -127 -79 -20 7 -10 17 69
66 74 45 92 49 58 13z m-1201 4 c7 -7 12 -20 12 -30 0 -11 9 -37 21 -59 11
-22 19 -45 17 -51 -4 -12 -88 123 -88 141 0 15 23 14 38 -1z m1668 -38 c23 -5
57 -18 76 -29 18 -11 67 -25 108 -31 41 -6 98 -15 127 -20 29 -4 66 -18 82
-29 16 -12 40 -21 54 -21 16 0 27 -7 30 -17 7 -25 2 -142 -8 -178 -29 -116
-62 -220 -100 -315 -25 -60 -42 -117 -38 -125 3 -9 22 -24 42 -34 74 -37 136
-72 153 -88 16 -14 18 -14 24 1 9 24 -11 42 -97 84 -88 44 -88 45 -36 179 38
96 78 226 96 315 14 65 29 81 64 73 35 -9 41 -63 27 -240 -21 -259 -28 -400
-19 -409 5 -6 29 -1 61 12 83 33 204 72 228 72 33 0 33 24 0 76 -40 63 -87
227 -106 367 -5 38 -3 47 9 47 33 0 65 -19 71 -43 3 -13 15 -36 27 -51 19 -24
27 -27 56 -21 21 4 40 2 49 -6 23 -19 16 -29 -11 -19 -37 14 -42 -8 -22 -94
10 -39 14 -81 11 -94 -5 -16 -1 -29 13 -42 14 -12 19 -27 16 -43 -3 -14 0 -28
5 -31 7 -4 6 -17 -3 -39 -7 -17 -21 -84 -30 -147 -9 -63 -24 -144 -35 -180
-10 -36 -35 -127 -55 -202 -19 -75 -49 -170 -67 -210 -17 -40 -33 -91 -35
-114 -4 -38 -1 -44 51 -98 40 -42 64 -59 90 -63 31 -5 36 -9 36 -34 0 -44 29
-58 94 -46 68 13 81 4 91 -61 3 -26 13 -71 21 -100 11 -35 16 -105 17 -215 2
-149 4 -165 26 -207 13 -24 25 -60 26 -80 2 -19 8 -79 15 -133 6 -55 9 -101 6
-104 -9 -9 -26 8 -26 27 0 10 -11 27 -24 37 -18 15 -24 31 -28 76 -3 42 -11
64 -29 83 -50 54 -110 69 -131 33 -21 -33 -87 -64 -133 -60 -29 2 -48 -3 -66
-18 l-26 -20 -27 40 c-14 23 -26 45 -26 49 0 5 -14 11 -31 15 -22 5 -36 2 -49
-10 -15 -14 -29 -16 -67 -10 -26 4 -56 11 -65 16 -12 6 -24 2 -45 -15 -69 -57
-80 -55 -85 18 -3 37 -6 40 -75 76 -40 20 -79 43 -88 50 -24 20 -81 4 -106
-31 -17 -25 -20 -38 -14 -75 4 -27 1 -57 -6 -79 -12 -31 -11 -38 9 -64 17 -23
19 -31 8 -40 -9 -8 -18 -3 -35 19 -27 37 -56 38 -101 5 -19 -14 -44 -25 -57
-25 -31 0 -49 -35 -34 -67 8 -18 8 -24 -2 -27 -6 -2 -36 -9 -65 -16 -61 -14
-103 -33 -149 -67 -30 -23 -37 -24 -167 -20 -74 2 -138 5 -140 8 -15 15 -28
174 -31 379 -3 226 -25 631 -46 850 -22 229 -28 315 -34 555 -4 138 -9 277
-12 310 -2 33 -7 126 -10 206 l-6 146 39 8 c52 9 58 14 41 33 -25 29 -50 109
-43 138 10 38 -9 56 -53 48 -54 -10 -69 -21 -76 -56 -6 -27 -9 -29 -17 -14
-17 31 0 80 44 124 48 49 70 54 66 16 -4 -38 19 -41 39 -5 10 18 26 31 37 31
11 0 27 7 37 16 25 23 43 9 25 -19 -8 -12 -18 -55 -22 -94 -4 -48 -11 -73 -19
-73 -21 0 -38 -28 -31 -55 8 -30 43 -52 59 -36 6 6 24 11 39 11 34 0 78 26 78
46 0 16 36 33 87 41 24 4 34 1 39 -10 14 -38 -153 -394 -197 -417 -43 -24 -19
-52 114 -134 27 -17 53 -14 42 5 -4 5 -31 25 -61 44 -30 19 -54 41 -54 48 0 7
16 37 36 67 50 74 116 216 153 324 31 93 50 122 74 113 11 -4 12 -17 6 -69
-23 -176 -44 -276 -85 -406 -25 -79 -43 -149 -41 -156 13 -34 123 -27 302 19
55 14 112 25 127 25 37 0 44 17 19 44 -12 12 -21 28 -21 35 0 7 -18 64 -39
127 -22 63 -47 162 -56 221 -9 60 -23 144 -30 187 -14 79 -14 79 11 108 13 17
22 34 18 39 -3 5 0 25 6 45 9 26 16 34 28 29 8 -3 35 -10 58 -15z m-1831 0
c-3 -5 -24 -10 -46 -10 -21 0 -39 5 -39 10 0 6 21 10 46 10 27 0 43 -4 39 -10z
m1195 -9 c0 -10 -6 -23 -12 -28 -24 -18 -79 -36 -86 -28 -4 4 -1 10 7 13 7 2
28 17 45 33 37 34 46 36 46 10z m-627 -17 c37 -25 39 -25 58 -8 18 16 21 16
52 1 17 -9 44 -19 60 -22 15 -3 27 -12 27 -20 0 -19 -5 -19 -66 0 -27 8 -66
15 -88 15 -38 0 -106 33 -106 51 0 16 24 10 63 -17z m-419 -82 c18 -37 37 -76
44 -87 6 -11 14 -36 17 -57 6 -42 46 -80 145 -142 57 -36 66 -38 113 -32 29 4
57 6 62 6 6 -1 43 -4 83 -6 79 -6 78 -5 84 -84 l3 -35 -75 -3 c-45 -2 -97 3
-130 12 -95 25 -214 49 -236 48 -14 -1 -24 6 -27 18 -4 15 0 19 17 17 18 -2
21 3 21 31 0 37 -16 44 -30 13 -5 -11 -12 -21 -15 -21 -11 0 -116 303 -124
358 -9 59 7 47 48 -36z m-146 41 c2 -9 -10 -13 -42 -13 -43 0 -63 10 -49 24
12 11 86 2 91 -11z m508 -7 c24 -18 11 -44 -31 -65 -75 -37 -152 -19 -193 44
l-22 35 113 0 c83 0 118 -4 133 -14z m167 -32 c43 -8 46 -17 14 -39 -39 -25
-152 3 -133 34 8 12 61 14 119 5z m-674 -39 c3 -16 1 -17 -11 -8 -8 7 -33 15
-56 19 -57 9 -45 21 15 15 37 -5 49 -10 52 -26z m1671 -15 c0 -5 -5 -10 -11
-10 -5 0 -7 5 -4 10 3 6 8 10 11 10 2 0 4 -4 4 -10z m1129 -124 c-15 -70 -48
-116 -67 -94 -9 12 -7 21 13 48 13 18 29 58 36 89 16 79 22 92 27 51 2 -19 -2
-61 -9 -94z m-2484 72 c20 -60 40 -84 89 -107 51 -24 78 -26 104 -10 21 13
127 0 127 -16 0 -6 -28 -12 -62 -15 -34 -3 -68 -11 -75 -17 -17 -18 -55 -16
-62 2 -3 8 -16 15 -28 15 -29 0 -115 56 -141 92 -27 36 -17 101 15 96 13 -2
24 -16 33 -40z m-309 -59 c2 -88 1 -90 -17 -73 -13 12 -29 15 -54 11 -20 -3
-37 -1 -41 5 -9 15 13 26 42 20 32 -6 54 14 54 49 0 25 -5 30 -42 39 -65 16
-70 19 -63 30 3 5 32 10 63 10 l57 0 1 -91z m441 77 c-3 -7 6 -32 19 -56 14
-24 22 -45 20 -48 -12 -11 -83 28 -104 58 -25 37 -21 46 23 53 17 2 34 5 39 6
4 0 6 -5 3 -13z m1213 -11 c0 -5 -14 -15 -31 -20 -33 -11 -29 -25 6 -25 23 0
52 -25 38 -33 -4 -2 -21 -7 -38 -11 -16 -4 -39 -9 -49 -13 -17 -5 -18 -1 -12
38 10 63 29 89 61 81 13 -4 25 -11 25 -17z m864 -87 l28 -32 -24 -18 -23 -18
23 0 c15 0 26 -9 33 -27 11 -29 0 -43 -33 -43 -28 0 -21 -18 9 -22 39 -4 42
-28 4 -28 -44 0 -38 -18 7 -22 49 -4 51 -31 3 -38 -53 -8 -53 -32 -1 -28 54 4
64 -16 16 -32 -47 -15 -47 -34 -1 -27 19 3 37 1 40 -4 7 -11 -40 -31 -63 -27
-8 2 -17 -3 -20 -11 -4 -11 6 -13 52 -7 43 5 56 3 56 -7 0 -8 -19 -17 -47 -23
-50 -10 -71 -34 -31 -35 22 0 22 -1 3 -9 -11 -5 -29 -11 -39 -14 -12 -4 -16
-10 -10 -16 6 -6 35 -2 78 11 37 11 70 18 73 15 8 -8 -7 -26 -23 -26 -8 0 -52
-13 -98 -29 -46 -16 -86 -28 -88 -26 -2 2 2 62 9 132 7 70 15 198 18 283 2 85
5 156 5 158 1 10 20 -3 44 -30z m-849 -48 c0 -9 -11 -16 -25 -18 -84 -9 -90
-32 -9 -32 42 0 49 -3 49 -20 0 -18 -14 -23 -89 -33 -8 -1 -16 -8 -18 -14 -4
-10 10 -11 57 -6 57 6 62 5 58 -13 -2 -14 -16 -21 -56 -27 -72 -12 -65 -27 13
-27 36 0 65 -4 65 -9 0 -8 -63 -25 -124 -33 -11 -2 -18 -7 -15 -13 5 -12 59
-12 113 -1 31 7 38 6 34 -5 -3 -9 -22 -15 -49 -17 -62 -3 -89 -11 -89 -23 0
-7 27 -10 78 -9 96 3 97 3 82 -14 -7 -9 -40 -18 -81 -22 -68 -6 -95 -19 -66
-30 8 -3 48 -1 88 5 46 6 78 6 83 1 18 -18 -5 -25 -112 -35 -106 -10 -140 -26
-72 -34 32 -4 33 -4 10 -11 -15 -4 -24 -13 -24 -23 2 -18 -43 -37 -87 -37 -37
0 -37 14 1 132 29 88 61 234 75 341 l6 48 52 -3 c38 -2 52 -7 52 -18z m-1760
-40 c0 -7 -6 -15 -12 -17 -8 -3 -13 4 -13 17 0 13 5 20 13 18 6 -3 12 -11 12
-18z m3445 -30 c37 -37 38 -40 20 -50 -26 -14 -29 -13 -40 15 -8 20 -16 25
-44 25 -38 0 -68 -23 -60 -45 5 -11 -1 -15 -20 -15 -35 0 -82 -24 -90 -47 -4
-10 1 -28 14 -45 l20 -28 -36 -15 c-44 -18 -52 -19 -36 -3 7 7 12 20 12 30 0
20 -44 25 -70 8 -13 -9 -10 -14 15 -35 27 -22 28 -25 10 -30 -11 -4 -32 -11
-47 -17 -42 -16 -61 -4 -53 33 5 23 2 36 -13 52 -28 31 -31 63 -7 81 20 14 20
15 -4 40 -17 18 -20 26 -10 26 35 0 56 -13 66 -41 14 -37 31 -43 82 -29 29 7
45 19 56 39 8 16 11 31 8 35 -7 7 26 46 40 46 5 0 7 -6 4 -14 -9 -22 19 -41
38 -26 8 7 15 18 15 26 0 12 22 20 68 23 14 0 37 -14 62 -39z m145 -25 c-20
-25 -40 -45 -44 -45 -4 0 -26 -18 -49 -40 -22 -22 -48 -40 -56 -40 -8 0 -24
-12 -35 -26 -11 -14 -25 -23 -31 -19 -5 3 -10 -1 -10 -9 0 -15 -37 -42 -46
-33 -3 2 -18 -8 -35 -24 -27 -25 -104 -49 -133 -41 -4 2 -14 -3 -22 -9 -8 -7
-17 -9 -21 -6 -3 4 -11 3 -17 -2 -13 -11 -133 -18 -142 -8 -4 3 -4 13 -1 22 5
12 23 15 83 15 63 0 85 4 118 24 23 13 52 27 65 31 52 16 331 198 376 245 43
45 43 17 0 -35z m-2517 21 c5 -6 12 -83 16 -171 3 -88 8 -187 10 -220 12 -173
18 -334 17 -450 -1 -137 13 -329 30 -430 6 -33 12 -123 15 -200 2 -77 8 -178
14 -225 6 -47 12 -256 14 -465 2 -209 6 -396 10 -415 3 -19 13 -69 21 -110 8
-41 19 -145 25 -230 6 -85 13 -163 16 -172 3 -11 -5 -23 -22 -34 -25 -17 -27
-17 -39 -1 -7 10 -33 19 -68 23 -51 6 -57 9 -57 30 0 24 -33 50 -51 39 -11 -7
-39 12 -39 26 0 5 12 14 26 19 l27 10 -7 108 c-3 59 -8 262 -11 452 -6 350
-21 657 -34 693 -7 17 -10 15 -23 -19 -13 -33 -14 -62 -7 -184 4 -80 10 -345
11 -590 l3 -445 -45 3 c-25 2 -49 8 -54 13 -13 12 -8 1119 5 1259 12 131 18
904 8 985 -4 33 -10 83 -14 110 -22 171 -33 298 -28 334 3 22 0 84 -7 136 -7
53 -11 98 -8 100 3 3 32 7 65 10 33 2 70 8 82 13 34 12 89 12 99 -2z m-978
-26 c0 -6 -25 -10 -57 -10 -59 0 -62 8 -10 26 32 11 67 3 67 -16z m2875 -20
c-3 -5 -15 -10 -26 -10 -11 0 -17 5 -14 10 3 6 15 10 26 10 11 0 17 -4 14 -10z
m-65 -31 c-7 -11 -14 -19 -16 -16 -7 7 7 37 17 37 6 0 5 -9 -1 -21z m772 -4
c12 -26 4 -46 -11 -29 -5 5 -12 19 -16 32 -9 31 12 29 27 -3z m-3692 -11 c0
-8 -5 -12 -10 -9 -6 4 -8 11 -5 16 9 14 15 11 15 -7z m60 12 c0 -2 -7 -6 -15
-10 -8 -3 -15 -1 -15 4 0 6 7 10 15 10 8 0 15 -2 15 -4z m3554 -20 c-5 -20 0
-27 25 -41 38 -19 42 -44 6 -38 -13 3 -31 16 -40 29 -8 13 -21 21 -29 18 -26
-10 -30 18 -5 37 34 26 51 24 43 -5z m-239 -6 c-3 -5 -11 -10 -16 -10 -6 0 -7
5 -4 10 3 6 11 10 16 10 6 0 7 -4 4 -10z m-3265 -34 c0 -22 -13 -26 -54 -19
-37 6 -38 17 -1 26 38 9 55 7 55 -7z m300 -30 c0 -22 17 -28 38 -15 15 9 31 8
78 -8 l59 -20 2 -224 c1 -123 -3 -278 -9 -344 -7 -74 -8 -196 -3 -317 7 -184
8 -197 27 -201 13 -4 18 -11 15 -24 -21 -73 -25 -504 -7 -758 13 -187 16 -420
6 -525 -14 -161 -14 -370 -1 -370 18 0 26 41 25 124 -1 39 4 136 10 216 10
117 10 199 -1 425 -21 428 -15 897 20 1410 5 77 8 142 5 144 -2 3 -12 -2 -20
-11 -12 -12 -18 -52 -24 -174 -5 -88 -9 -161 -9 -164 -1 -2 -5 0 -11 6 -6 6
-6 74 1 189 5 99 11 271 13 383 2 112 5 205 7 207 2 1 41 5 87 7 l82 3 0 -82
c0 -44 6 -134 14 -200 16 -146 15 -107 21 -653 5 -466 0 -700 -16 -700 -5 0
-9 9 -9 19 0 11 -5 23 -11 27 -22 13 -27 -12 -14 -62 8 -33 11 -72 6 -110 -3
-32 -5 -86 -4 -119 2 -33 5 -132 7 -220 11 -424 20 -614 32 -685 3 -19 9 -89
13 -155 9 -126 16 -158 35 -152 7 3 9 21 6 53 -3 27 -5 90 -5 139 l0 90 35 0
c28 0 35 -4 35 -20 1 -11 4 -25 7 -30 4 -6 10 -61 14 -123 7 -108 17 -143 31
-107 3 10 6 58 7 109 1 50 5 91 10 91 5 0 11 -56 13 -125 2 -69 6 -131 9 -139
9 -26 -17 -41 -70 -41 -29 0 -57 -5 -64 -12 -9 -9 -17 -7 -35 10 -13 12 -30
22 -39 22 -19 0 -28 29 -28 95 0 28 -5 77 -10 110 -6 33 -12 105 -15 160 -3
55 -10 123 -16 151 -5 29 -9 71 -8 95 3 53 -15 339 -39 614 -19 225 -21 451
-3 539 13 71 15 352 2 361 -19 11 -23 -19 -27 -178 -2 -89 -8 -214 -14 -277
-12 -124 -7 -256 15 -445 8 -66 19 -239 25 -385 6 -146 15 -314 20 -375 28
-333 41 -468 46 -476 2 -4 10 -6 17 -3 7 2 30 -13 51 -35 38 -39 39 -40 15
-45 -13 -3 -51 -7 -83 -10 -36 -3 -70 -12 -85 -24 -14 -10 -36 -24 -49 -31
-28 -15 -48 -5 -31 15 16 20 -13 29 -49 16 -92 -35 -122 -23 -122 49 l0 51 31
-31 c26 -26 38 -31 81 -31 50 0 103 22 112 47 8 19 -17 16 -61 -6 -77 -40
-124 -6 -127 92 -2 49 -8 71 -26 98 -29 40 -29 30 -6 385 11 178 13 295 8 405
-5 88 -5 159 1 166 10 14 -1 101 -14 109 -5 3 -5 12 0 22 5 9 9 64 10 122 1
58 4 125 7 150 5 48 -5 98 -21 102 -6 2 -11 -53 -14 -137 -5 -187 -6 -208 -3
-295 1 -41 3 -145 3 -230 0 -85 2 -158 5 -162 3 -4 0 -45 -5 -90 -6 -46 -13
-150 -15 -233 -3 -82 -8 -175 -12 -206 -5 -45 -2 -65 15 -103 21 -48 21 -48 1
-73 -17 -22 -20 -39 -18 -112 3 -105 -6 -125 -75 -157 -65 -30 -107 -32 -107
-5 0 23 -18 31 -45 20 -11 -4 -48 -8 -82 -8 -60 -1 -63 0 -78 30 -21 39 -15
52 34 84 35 21 44 23 61 13 10 -7 22 -10 25 -6 3 3 6 38 7 77 0 64 4 75 30
109 68 85 78 112 89 244 6 68 11 190 12 272 2 122 5 150 17 154 8 3 18 10 22
16 4 6 6 -144 5 -334 -2 -387 -1 -382 -78 -450 -48 -42 -64 -89 -42 -120 9
-13 23 -20 38 -18 12 1 30 -4 39 -11 15 -13 20 -12 38 6 29 29 17 58 -20 49
-49 -12 -56 -11 -60 6 -2 9 17 39 42 67 26 29 46 61 46 72 0 11 7 36 16 57 15
33 17 136 19 977 2 584 7 952 13 972 10 31 7 43 -9 43 -27 0 -33 -97 -32 -535
l1 -450 -19 95 c-17 84 -20 144 -21 535 -1 242 -1 511 1 599 2 139 0 160 -15
171 -15 11 -16 24 -9 116 4 57 8 116 8 132 0 21 5 27 22 27 24 0 31 23 38 145
7 109 20 182 39 228 19 44 48 64 48 33z m-70 -1 c0 -3 -4 -13 -10 -23 -19 -34
-60 -142 -60 -158 0 -22 -42 -136 -48 -130 -4 5 3 40 33 173 14 62 57 143 75
143 6 0 10 -2 10 -5z m-242 -41 c22 -6 13 -25 -10 -20 -13 3 -40 8 -60 11 -56
9 -47 26 10 19 26 -3 53 -7 60 -10z m2852 -16 c0 -5 -4 -8 -10 -8 -5 0 -10 10
-10 23 0 18 2 19 10 7 5 -8 10 -18 10 -22z m870 -98 c17 -39 30 -81 30 -92 0
-10 5 -28 10 -39 9 -15 7 -21 -6 -26 -21 -8 -32 11 -40 70 -4 26 -11 47 -16
47 -5 0 -18 20 -29 45 -16 36 -18 49 -8 66 15 28 24 18 59 -71z m-3760 44
c-57 -14 -86 -12 -75 6 3 5 34 10 68 9 l62 -1 -55 -14z m3493 -46 c21 -57 37
-121 32 -126 -8 -8 -25 10 -25 27 0 9 -4 21 -9 27 -5 5 -11 23 -13 39 -2 24
-7 30 -25 28 -27 -3 -38 23 -15 36 29 18 39 12 55 -31z m-221 -2 c9 -19 14
-42 12 -53 -3 -10 4 -63 15 -117 31 -146 29 -162 -16 -183 -21 -9 -41 -18 -44
-20 -7 -4 -29 123 -29 171 0 38 10 49 33 40 20 -7 27 -61 10 -75 -17 -15 -17
-43 1 -58 10 -8 16 -8 25 3 9 11 9 29 -3 78 -8 34 -12 75 -9 90 9 45 -4 75
-37 86 -32 12 -33 35 -2 60 23 18 27 16 44 -22z m421 -38 c45 -105 69 -203 56
-232 -10 -20 -9 -30 5 -51 9 -14 21 -25 27 -25 13 0 39 -62 39 -92 0 -21 -5
-23 -49 -24 -42 -2 -50 1 -55 19 -7 26 0 37 25 37 32 0 16 48 -22 62 -9 4 -19
21 -23 39 -3 17 -13 37 -22 44 -12 8 -15 20 -9 44 6 26 9 30 21 20 11 -9 18
-9 26 -1 9 9 8 16 -6 30 -14 12 -20 14 -23 5 -9 -26 -21 -12 -34 40 -6 28 -18
66 -26 84 -20 49 -16 56 32 62 6 0 23 -27 38 -61z m-111 11 c23 -46 24 -92 1
-87 -15 3 -42 76 -43 116 0 24 24 7 42 -29z m-3539 20 c-14 -14 -61 -19 -93
-11 -22 6 -21 7 15 13 68 11 90 10 78 -2z m3372 -58 l15 -45 -29 -27 c-28 -25
-29 -31 -26 -90 2 -35 6 -71 9 -79 8 -19 62 -44 81 -37 7 3 18 0 23 -6 9 -12
55 -188 53 -204 0 -5 -17 -9 -38 -10 -45 -3 -56 -18 -37 -55 13 -25 12 -28 -5
-38 -17 -8 -22 -4 -40 33 -22 45 -28 97 -12 97 5 0 13 -9 16 -20 11 -34 22
-22 23 23 0 45 -18 74 -55 88 -13 5 -23 16 -24 26 -1 44 -19 174 -32 238 -8
39 -17 93 -20 121 l-6 50 45 -10 c40 -10 45 -14 59 -55z m-258 44 c2 -6 -14
-18 -34 -27 -35 -14 -38 -15 -42 0 -7 31 66 57 76 27z m-122 -36 c17 -32 11
-57 -6 -26 -12 20 -62 23 -77 4 -6 -7 -12 -40 -14 -72 -3 -45 -8 -60 -18 -60
-12 0 -14 10 -11 45 2 25 5 63 5 85 1 36 4 40 31 46 61 13 74 10 90 -22z
m-2997 -18 c4 -13 -114 -16 -122 -2 -9 14 0 16 60 15 33 -1 60 -7 62 -13z
m1625 2 c-7 -2 -19 -2 -25 0 -7 3 -2 5 12 5 14 0 19 -2 13 -5z m1870 -139
c-17 -13 -17 -14 4 -20 30 -8 35 -29 13 -49 -15 -13 -17 -22 -10 -36 12 -22
13 -49 2 -49 -5 0 -16 28 -26 63 -10 34 -22 75 -27 91 -5 16 -9 38 -9 49 0 17
2 18 16 6 14 -11 18 -10 27 6 10 18 11 17 19 -14 7 -27 6 -36 -9 -47z m-3316
34 c-3 -8 -6 -5 -6 6 -1 11 2 17 5 13 3 -3 4 -12 1 -19z m2881 -4 c29 -20 28
-32 -3 -44 -52 -20 -12 -90 51 -90 19 0 37 -6 39 -12 9 -25 54 -422 49 -427
-3 -3 -8 -1 -12 5 -4 6 -17 16 -29 23 -13 6 -23 18 -23 25 0 8 -7 19 -15 26
-8 7 -15 21 -15 32 0 15 5 18 20 13 14 -4 20 -2 20 9 0 27 -12 46 -30 46 -10
0 -21 8 -23 18 -3 9 -5 -4 -6 -30 0 -26 -6 -50 -11 -53 -6 -4 -8 -10 -5 -15 3
-4 -2 -10 -10 -14 -17 -6 -16 -8 -20 59 -2 28 -8 122 -14 210 -17 252 -16 257
37 219z m-2941 -16 c-3 -8 -6 -5 -6 6 -1 11 2 17 5 13 3 -3 4 -12 1 -19z m5
-60 c-10 -22 -11 -21 -11 12 -1 26 2 31 11 22 8 -8 8 -17 0 -34z m2854 -42 c5
-51 3 -56 -16 -56 -14 0 -21 7 -22 23 -1 12 -2 31 -3 42 -1 19 24 59 32 51 3
-2 7 -29 9 -60z m-2978 -8 c3 -16 -5 -18 -68 -18 -52 0 -71 3 -68 12 11 31
130 35 136 6z m3392 12 c0 -5 -5 -10 -11 -10 -5 0 -7 5 -4 10 3 6 8 10 11 10
2 0 4 -4 4 -10z m-493 -187 l-2 -136 -28 -10 c-16 -5 -31 -7 -34 -4 -3 3 -2
43 2 88 6 68 10 82 26 86 23 6 25 31 4 39 -21 8 -19 61 2 73 10 5 21 7 25 5 4
-2 6 -66 5 -141z m-2897 103 c0 -10 -17 -15 -61 -18 -69 -3 -90 8 -32 17 21 4
45 8 53 10 32 6 40 5 40 -9z m115 -191 c2 -106 -1 -185 -6 -185 -5 0 -9 47 -8
105 0 57 -2 109 -6 115 -8 12 5 164 13 156 2 -3 6 -89 7 -191z m3531 109 c16
-59 16 -64 6 -64 -19 0 -48 75 -43 113 3 24 26 -5 37 -49z m-871 -21 c-8 -62
-12 -73 -25 -73 -7 0 -9 11 -6 30 3 17 9 44 12 60 9 50 26 35 19 -17z m-2780
26 c4 -6 5 -12 4 -14 -8 -7 -99 8 -99 16 0 13 88 11 95 -2z m3861 -20 c7 -13
15 -39 19 -56 5 -26 3 -33 -9 -33 -9 0 -18 12 -22 28 -3 15 -10 37 -15 50 -5
13 -9 28 -9 33 0 18 25 4 36 -22z m-252 -71 c41 -136 72 -227 87 -258 11 -22
19 -43 19 -49 0 -17 -20 -23 -35 -11 -8 6 -24 10 -37 8 -20 -3 -24 4 -44 82
-37 147 -53 224 -48 232 8 13 54 9 58 -4z m-3604 -18 c0 -5 -7 -10 -15 -10 -8
0 -15 5 -15 10 0 6 7 10 15 10 8 0 15 -4 15 -10z m2987 -24 c1 -1 5 -73 7
-159 l5 -157 -29 0 c-27 0 -30 3 -30 34 0 25 5 35 20 39 11 3 20 10 20 16 0 6
-9 11 -20 11 -17 0 -20 7 -20 49 0 40 3 50 20 54 28 7 25 26 -5 37 -20 8 -25
16 -25 43 0 19 3 37 7 40 5 6 41 0 50 -7z m323 -28 c16 10 21 9 30 -8 9 -17
38 -142 43 -188 1 -9 -11 -15 -35 -16 -31 -2 -38 1 -38 15 0 24 -14 31 -34 16
-20 -15 -11 -51 10 -43 10 4 14 -4 14 -28 0 -31 -23 -56 -38 -42 -3 3 -8 43
-12 88 -4 46 -11 113 -15 150 l-7 67 31 -12 c24 -9 36 -9 51 1z m608 -53 c11
-33 19 -61 17 -63 -16 -16 -62 86 -51 114 9 22 11 19 34 -51z m-4013 35 c-3
-5 -13 -10 -21 -10 -8 0 -14 5 -14 10 0 6 9 10 21 10 11 0 17 -4 14 -10z m95
0 c0 -5 -9 -10 -19 -10 -11 0 -23 5 -26 10 -4 6 5 10 19 10 14 0 26 -4 26 -10z
m-14 -57 c-7 -7 -98 -5 -105 3 -2 2 22 4 54 4 32 0 55 -3 51 -7z m3866 -33
c26 0 64 -78 49 -102 -16 -26 -14 -31 14 -26 72 14 8 -78 -67 -97 l-27 -7 6
54 c5 47 2 56 -21 81 -69 75 -72 114 -8 103 20 -3 45 -6 54 -6z m-1069 -122
c-5 -67 -8 -78 -24 -78 -15 0 -19 7 -19 31 0 44 30 143 40 132 5 -4 6 -43 3
-85z m679 40 c-4 -34 21 -52 62 -45 21 3 38 1 44 -6 5 -7 21 -57 36 -112 15
-55 30 -108 32 -117 7 -24 -15 -22 -45 2 -18 15 -21 23 -12 33 13 17 5 28 -15
20 -9 -3 -12 -13 -9 -24 5 -15 1 -19 -18 -19 -34 0 -44 16 -62 98 -8 40 -19
80 -24 89 -9 19 -31 105 -31 124 0 7 8 6 23 -4 15 -10 21 -23 19 -39z m-3472
32 c0 -5 -4 -10 -10 -10 -5 0 -10 5 -10 10 0 6 5 10 10 10 6 0 10 -4 10 -10z
m-90 -10 c0 -5 -4 -10 -9 -10 -6 0 -13 5 -16 10 -3 6 1 10 9 10 9 0 16 -4 16
-10z m3876 -65 c19 -26 24 -39 16 -47 -7 -7 -16 1 -31 30 -33 64 -27 71 15 17z
m-3871 14 c4 -6 5 -13 2 -15 -7 -8 -57 7 -57 17 0 13 47 11 55 -2z m3305 -37
c0 -26 4 -62 10 -81 11 -41 5 -54 -19 -42 -12 7 -26 6 -42 -3 -20 -10 -27 -10
-37 1 -10 10 -18 10 -33 3 -23 -13 -15 -34 12 -27 14 4 18 0 16 -22 0 -14 2
-36 7 -49 5 -16 3 -24 -8 -28 -26 -10 -45 14 -51 64 -4 26 -9 59 -11 75 -5 25
-3 27 30 27 28 0 40 7 60 33 15 19 26 45 26 59 0 28 7 38 27 38 9 0 13 -15 13
-48z m-3215 28 c3 -5 -1 -10 -9 -10 -9 0 -16 5 -16 10 0 6 4 10 9 10 6 0 13
-4 16 -10z m2711 -2 c7 -10 -14 -32 -40 -41 -7 -3 -5 -11 7 -24 32 -36 11 -69
-24 -37 -22 20 -24 38 -8 83 8 23 17 31 34 31 13 0 27 -5 31 -12z m-2599 -40
c-3 -7 -5 -2 -5 12 0 14 2 19 5 13 2 -7 2 -19 0 -25z m-147 -4 c17 -4 34 -13
37 -21 9 -23 -3 -26 -36 -9 -16 9 -48 16 -71 16 -25 0 -39 4 -35 10 7 11 57
13 105 4z m2934 -25 c5 -5 12 -47 14 -93 l4 -85 -35 -6 c-20 -4 -40 -4 -46 -1
-9 6 -13 184 -4 199 5 8 54 -2 67 -14z m-2787 -21 c-3 -7 -5 -2 -5 12 0 14 2
19 5 13 2 -7 2 -19 0 -25z m-197 -18 c0 -5 -15 -10 -32 -9 -28 0 -30 2 -13 9
28 12 45 12 45 0z m90 -14 c0 -21 -20 -30 -33 -17 -9 9 -8 14 3 21 21 14 30
12 30 -4z m2763 -2 c10 -4 17 -17 17 -31 0 -21 -4 -24 -27 -21 -24 2 -29 8
-31 37 -3 25 0 32 10 27 7 -3 21 -9 31 -12z m-2644 -311 c-1 -308 -11 -371
-22 -133 -5 115 5 430 13 425 7 -4 10 -109 9 -292z m-209 257 c0 -5 -4 -10
-10 -10 -5 0 -10 5 -10 10 0 6 5 10 10 10 6 0 10 -4 10 -10z m3440 -57 c25
-43 25 -43 -5 -43 -26 0 -48 27 -59 72 -6 27 -5 27 19 16 14 -6 34 -26 45 -45z
m-3355 24 c0 -26 -20 -25 -23 2 -3 16 1 22 10 19 7 -3 13 -12 13 -21z m-77
-48 c2 -13 -3 -15 -25 -12 -45 7 -55 12 -48 23 11 17 69 8 73 -11z m3102 12
c0 -9 -41 -23 -48 -16 -2 2 -1 8 3 14 8 13 45 15 45 2z m-3014 -42 c10 -17
-13 -36 -27 -22 -12 12 -4 33 11 33 5 0 12 -5 16 -11z m3264 -4 c15 -18 92
-20 139 -4 18 6 34 9 37 6 3 -3 -1 -43 -10 -89 -70 -369 -78 -435 -50 -463 9
-9 27 -59 40 -110 13 -52 28 -104 34 -114 5 -11 10 -62 10 -115 0 -73 -4 -98
-16 -110 -24 -25 -92 -61 -179 -96 -44 -18 -84 -37 -89 -41 -16 -15 -35 -10
-46 10 -5 11 -15 77 -20 148 -13 160 -40 342 -51 349 -5 3 -9 16 -9 28 0 13
-7 41 -16 62 -14 31 -17 68 -15 182 1 100 -2 159 -12 195 -26 92 -30 142 -12
157 14 11 21 11 46 -4 25 -14 38 -16 82 -8 28 6 66 10 82 9 19 -1 29 2 28 11
-4 17 12 15 27 -3z m-3358 -47 c-7 -7 -20 -7 -38 -1 -42 14 -41 31 3 35 39 3
56 -13 35 -34z m102 -53 c-7 -16 -44 -8 -44 10 0 7 6 15 13 18 17 6 37 -12 31
-28z m-96 -18 c3 -14 -4 -17 -37 -17 -46 0 -52 10 -18 27 30 15 51 11 55 -10z
m103 -195 c3 -278 -2 -557 -11 -565 -4 -5 -18 -7 -31 -5 -29 4 -32 33 -5 33
11 0 21 6 24 13 2 7 -5 12 -17 12 -26 0 -29 37 -3 56 16 13 16 15 0 25 -24 14
-23 50 2 56 11 3 20 10 20 15 0 5 -9 12 -20 15 -11 3 -20 14 -20 24 0 10 9 23
20 29 25 13 26 26 1 33 -14 3 -18 11 -14 33 3 16 13 37 21 47 14 16 14 19 -4
31 -18 14 -18 15 0 35 19 21 19 22 -12 54 -32 33 -40 61 -22 72 6 4 18 1 26
-6 22 -18 30 -2 9 21 -17 19 -17 21 0 40 17 19 17 21 2 38 -10 10 -17 26 -17
35 0 17 29 39 42 31 3 -2 8 -80 9 -172z m-106 106 c-9 -27 -12 -31 -47 -46
-24 -10 -28 -9 -28 4 0 17 49 63 68 64 9 0 11 -7 7 -22z m-12 -205 c3 -68 2
-123 -2 -123 -14 0 -61 25 -61 33 0 4 7 7 15 7 8 0 15 5 15 10 0 6 -7 10 -15
10 -20 0 -19 17 3 30 16 10 16 10 0 20 -24 15 -22 26 5 34 22 6 22 7 3 21 -16
12 -17 18 -8 27 16 16 15 28 -3 28 -24 0 -17 28 8 32 12 2 25 2 28 -1 4 -4 9
-61 12 -128z m3543 -38 c3 -19 20 -52 36 -73 17 -20 44 -58 60 -84 21 -34 36
-48 52 -48 44 0 108 -96 121 -180 8 -55 -12 -86 -81 -126 -50 -29 -56 -27 -74
29 -6 20 -20 42 -31 47 -12 7 -19 21 -19 38 0 15 -7 52 -15 82 -8 30 -24 91
-36 135 -11 44 -27 90 -35 102 -14 22 -20 104 -8 116 12 12 23 -3 30 -38z
m-3543 -113 c10 -10 14 -21 11 -25 -10 -9 -66 22 -59 33 10 15 30 12 48 -8z
m2132 -2 c10 -12 26 -18 35 -15 9 3 25 -3 35 -15 10 -11 24 -20 30 -20 33 0
42 -49 16 -89 -13 -21 -150 -52 -173 -40 -17 9 -17 11 -3 26 9 8 14 22 11 29
-3 8 4 18 14 24 24 13 26 39 5 45 -49 16 -47 12 -30 45 18 35 35 38 60 10z
m-2131 -61 c-6 -11 -24 -2 -24 11 0 5 7 7 15 4 8 -4 12 -10 9 -15z m-4 -29 c0
-5 -9 -10 -20 -10 -11 0 -20 5 -20 10 0 6 9 10 20 10 11 0 20 -4 20 -10z m212
-224 c12 -175 14 -393 3 -404 -19 -19 -32 67 -41 279 -7 165 4 383 17 335 4
-16 14 -110 21 -210z m2814 185 c19 -29 24 -49 22 -77 -3 -37 -5 -39 -35 -36
-38 4 -51 -13 -29 -37 9 -10 16 -27 16 -39 0 -30 28 -28 36 3 7 27 24 31 55
15 18 -10 18 -13 3 -42 -11 -22 -13 -33 -5 -41 18 -18 13 -37 -9 -37 -13 0
-24 10 -30 25 -11 30 -26 32 -42 6 -12 -19 -12 -19 -23 2 -7 15 -24 24 -50 28
-27 5 -48 16 -66 39 -21 25 -33 31 -51 27 -31 -8 -42 1 -57 48 -7 22 -15 46
-17 53 -11 24 38 30 78 10 41 -21 58 -18 58 13 0 15 5 18 24 13 16 -4 25 -1
29 10 4 9 16 16 27 16 13 0 20 7 20 20 0 31 17 24 46 -19z m-576 0 c0 -6 -5
-13 -11 -17 -14 -8 5 -29 27 -29 13 0 53 -62 78 -120 3 -5 11 -2 20 8 19 24
50 18 54 -11 3 -19 -1 -22 -30 -22 -52 1 -109 26 -136 59 -13 17 -28 31 -34
31 -13 0 -68 39 -68 49 0 11 72 61 87 61 7 0 13 -4 13 -9z m-2440 -30 c0 -16
-6 -32 -12 -35 -10 -3 -9 -8 3 -15 13 -8 14 -19 8 -58 -4 -26 -8 -69 -8 -94
-1 -34 -6 -49 -17 -53 -23 -9 -29 0 -13 20 11 14 11 18 -4 29 -16 11 -15 13 3
30 20 18 19 30 -3 30 -17 0 -20 25 -3 31 23 9 19 31 -6 38 l-23 6 23 18 c21
16 22 20 8 31 -30 25 -17 48 27 50 12 1 17 -7 17 -28z m2630 9 c0 -5 -2 -10
-4 -10 -3 0 -8 5 -11 10 -3 6 -1 10 4 10 6 0 11 -4 11 -10z m-2369 -155 c0
-59 -2 -110 -5 -113 -4 -3 -6 48 -6 113 0 65 2 116 5 113 3 -3 6 -54 6 -113z
m1895 66 c20 -16 31 -18 57 -10 25 7 37 5 57 -9 14 -11 42 -22 64 -26 21 -4
50 -19 65 -34 20 -20 37 -27 71 -29 118 -5 230 -22 280 -42 74 -30 206 -54
359 -65 50 -4 76 -19 64 -39 -9 -16 -167 6 -257 35 -93 31 -126 35 -164 23
-19 -6 -24 -3 -29 13 -5 22 -38 36 -110 46 -34 5 -43 3 -47 -12 -5 -15 -19
-18 -84 -20 -42 -2 -117 -14 -167 -27 -49 -13 -117 -28 -150 -34 -66 -12 -108
-42 -87 -63 10 -10 18 -9 41 5 16 9 64 22 107 28 44 6 93 17 109 25 17 9 71
18 125 21 71 4 98 9 108 22 12 15 14 15 23 -1 13 -24 193 -65 214 -48 16 13
28 10 128 -27 48 -18 67 -30 67 -42 0 -13 16 -22 63 -36 34 -9 68 -19 75 -21
7 -2 10 -9 6 -15 -3 -6 3 -23 14 -39 11 -15 17 -31 13 -36 -4 -5 -5 -40 -2
-78 7 -71 23 -96 63 -96 20 0 27 -21 30 -100 l3 -55 -959 -3 c-531 -2 -962 0
-967 5 -13 13 -23 253 -10 253 5 0 14 -8 19 -17 12 -20 47 -21 167 -4 93 14
127 24 230 71 45 20 64 25 77 17 12 -8 32 -4 79 17 78 36 129 66 129 76 0 21
-22 16 -101 -20 -80 -38 -84 -39 -91 -20 -7 19 -12 18 -90 -24 -93 -49 -181
-81 -203 -72 -8 3 -28 0 -45 -6 -25 -8 -34 -7 -50 7 -12 11 -28 15 -47 11 -15
-3 -44 -2 -63 2 -31 7 -35 12 -43 52 -18 90 -18 91 43 110 95 30 120 34 120
16 0 -36 39 -29 165 29 39 18 78 35 88 38 9 4 17 13 17 20 0 8 15 18 33 23 46
14 42 38 -8 44 -45 6 -35 19 16 21 19 1 74 15 123 31 48 16 94 27 102 24 8 -3
22 4 32 15 38 46 84 89 94 89 5 0 21 -9 34 -19z m-192 -15 c9 -13 7 -20 -7
-31 -26 -19 -87 -29 -101 -15 -8 8 -7 10 4 5 16 -5 70 38 70 56 0 15 22 6 34
-15z m363 18 c-3 -3 -12 -4 -19 -1 -8 3 -5 6 6 6 11 1 17 -2 13 -5z m364 -7
c-1 -12 -15 -9 -19 4 -3 6 1 10 8 8 6 -3 11 -8 11 -12z m1520 -41 c1 -6 1 -18
0 -27 -1 -9 5 -19 13 -22 9 -4 13 -13 10 -20 -3 -9 7 -23 25 -36 38 -27 32
-56 -10 -47 -19 4 -34 0 -45 -12 -10 -9 -35 -18 -56 -19 -36 -1 -49 9 -28 22
19 12 10 30 -23 45 -39 18 -45 42 -17 70 17 17 29 21 51 16 23 -4 29 -2 29 12
0 35 48 52 51 18z m-1525 -17 c9 -16 -18 -30 -33 -17 -7 6 -10 14 -7 19 7 13
31 11 40 -2z m1219 -44 c10 -30 24 -60 31 -66 18 -15 18 -53 -1 -69 -8 -7 -28
-40 -44 -74 -38 -80 -101 -151 -164 -183 l-51 -25 28 33 c19 22 26 39 22 54
-4 14 0 28 9 35 15 13 21 50 8 50 -5 0 -19 -9 -33 -20 -31 -25 -53 -26 -46 -2
3 9 8 50 12 89 l7 73 52 29 c28 16 64 43 78 60 14 17 30 31 36 31 6 0 15 9 21
20 6 11 12 20 14 20 2 0 12 -25 21 -55z m-1115 -6 c0 -14 -36 -10 -50 6 -20
24 -2 37 26 19 13 -9 24 -20 24 -25z m-2685 1 c11 -18 -15 -50 -40 -50 -34 0
-36 46 -2 53 12 2 25 5 29 6 4 0 10 -3 13 -9z m-10 -96 c0 -13 -8 -20 -27 -22
-32 -4 -39 21 -10 37 23 14 37 8 37 -15z m3535 -3 c20 -39 20 -39 -161 -120
-25 -12 -50 -21 -57 -21 -17 0 -26 -21 -12 -30 16 -10 69 5 144 41 69 34 91
32 83 -9 -19 -102 -50 -140 -160 -196 -87 -44 -102 -48 -169 -50 l-73 -1 -3
33 c-3 31 -2 32 32 32 51 0 48 26 -4 40 -42 11 -56 32 -19 27 36 -4 32 19 -6
43 -20 12 -34 27 -32 34 2 6 25 13 50 16 26 3 52 11 59 18 7 7 18 12 25 12 25
0 218 97 246 123 33 32 43 33 57 8z m-1980 -1 c0 -5 -19 -19 -42 -31 l-43 -21
35 31 c37 32 50 37 50 21z m-1660 -9 c0 -17 -25 -30 -40 -20 -13 8 -13 10 0
19 19 12 40 13 40 1z m1418 -19 c23 -1 42 -6 42 -10 0 -7 -137 -46 -165 -47
-11 0 -19 30 -12 49 5 11 15 12 135 8z m-1304 -28 c3 -9 6 -45 6 -80 0 -57 -2
-64 -19 -64 -27 0 -37 37 -17 59 21 23 20 28 -4 34 -25 6 -26 42 -2 56 24 14
29 13 36 -5z m193 -16 c-3 -7 -5 -2 -5 12 0 14 2 19 5 13 2 -7 2 -19 0 -25z
m-309 10 c-3 -7 -15 -14 -29 -16 -24 -4 -24 -3 -4 12 24 19 38 20 33 4z m1562
2 c-8 -5 -19 -10 -25 -10 -5 0 -3 5 5 10 8 5 20 10 25 10 6 0 3 -5 -5 -10z
m1605 -29 c3 -5 0 -13 -5 -16 -15 -9 -80 4 -80 15 0 13 77 13 85 1z m-3170
-31 c-3 -5 -13 -10 -21 -10 -8 0 -12 5 -9 10 3 6 13 10 21 10 8 0 12 -4 9 -10z
m-5 -60 c0 -5 -7 -10 -15 -10 -8 0 -15 5 -15 10 0 6 7 10 15 10 8 0 15 -4 15
-10z m3929 -84 c6 -41 18 -95 27 -122 9 -26 14 -63 11 -83 -3 -24 2 -45 13
-61 10 -14 20 -54 24 -90 5 -47 18 -85 47 -138 60 -112 53 -133 -42 -137 -35
-2 -70 2 -76 7 -18 14 -44 2 -37 -17 3 -8 1 -15 -5 -15 -6 0 -11 4 -11 9 0 5
-7 17 -16 26 -23 22 -49 2 -31 -25 17 -29 0 -37 -24 -11 -25 27 -50 13 -41
-22 5 -22 5 -22 -16 -4 -22 20 -59 19 -54 -1 3 -15 -13 -15 -39 -2 -13 8 -19
21 -19 46 0 48 14 70 52 83 37 12 78 73 78 115 0 16 12 36 30 53 20 17 27 30
21 36 -7 7 -16 6 -26 -3 -22 -18 -19 -1 4 18 11 10 22 28 26 41 6 21 4 23 -13
19 -16 -5 -22 -1 -24 16 -2 15 -9 20 -25 18 -34 -5 -29 24 6 43 22 11 28 20
24 35 -4 13 1 26 12 34 31 22 9 38 -31 21 -42 -17 -45 -6 -4 19 45 26 95 81
115 126 10 22 21 40 25 40 4 0 13 -33 19 -74z m-3941 22 c-3 -7 -11 -13 -18
-13 -7 0 -15 6 -17 13 -3 7 4 12 17 12 13 0 20 -5 18 -12z m3686 -3 c-4 -8 -8
-15 -10 -15 -2 0 -4 7 -4 15 0 8 4 15 10 15 5 0 7 -7 4 -15z m-3514 -24 c0 -5
-5 -11 -12 -13 -26 -9 5 -29 40 -26 20 1 37 -2 39 -8 3 -8 -12 -11 -42 -10
-48 1 -73 22 -61 52 6 15 36 20 36 5z m-161 -34 c8 -11 5 -16 -15 -25 -33 -16
-34 -15 -34 7 0 17 11 28 31 30 4 1 12 -5 18 -12z m3601 -34 c0 -16 -16 -31
-38 -38 -15 -4 -21 -12 -18 -22 3 -8 6 -19 6 -24 0 -5 11 -14 25 -19 21 -8 24
-14 19 -36 -4 -15 -7 -70 -8 -123 l-1 -96 -33 -10 c-41 -14 -57 -29 -46 -47 5
-7 9 -19 9 -26 0 -7 13 -20 29 -30 19 -11 30 -27 33 -47 7 -62 8 -126 2 -137
-4 -7 -2 -23 6 -37 13 -27 9 -94 -6 -89 -5 2 -19 23 -31 47 -27 53 -64 82 -73
58 -4 -8 5 -31 19 -51 25 -38 25 -66 0 -66 -7 0 -16 11 -20 24 -3 14 -14 32
-25 42 -15 14 -21 14 -34 4 -13 -11 -12 -15 5 -38 18 -22 19 -27 6 -40 -17
-17 -36 -8 -36 17 0 10 -9 26 -20 36 -19 17 -22 17 -37 2 -15 -14 -15 -18 0
-40 9 -14 13 -27 10 -30 -3 -3 -19 15 -37 40 -37 55 -61 72 -77 56 -8 -8 -3
-22 20 -53 17 -24 31 -49 31 -57 0 -26 -25 -12 -50 28 -27 45 -58 63 -78 46
-10 -8 -8 -16 11 -36 24 -25 42 -61 31 -61 -3 0 -17 14 -31 30 -13 17 -33 30
-44 30 -21 0 -25 -20 -7 -38 17 -17 -13 -16 -57 2 -31 13 -36 13 -56 -5 -37
-32 -135 -6 -107 28 17 21 73 48 143 69 33 10 71 26 85 35 14 9 43 24 65 33
44 18 115 83 145 132 14 21 22 59 26 119 6 73 10 88 26 93 25 6 23 30 -4 34
-13 2 -24 11 -26 21 -3 14 4 17 32 17 24 0 36 5 36 14 0 16 -21 26 -58 26 -37
0 -16 17 33 28 25 5 40 14 40 22 0 12 -12 14 -52 12 -68 -3 -68 13 -1 27 64
14 118 47 118 71 0 11 15 26 38 38 39 22 62 27 62 15z m-3411 -29 c42 -9 39
-22 -6 -26 -47 -4 -52 -30 -9 -38 44 -8 44 -28 -1 -32 -27 -2 -38 -8 -38 -19
0 -9 -6 -23 -13 -31 -16 -20 -1 -33 51 -42 34 -6 50 -27 29 -40 -10 -6 -93 14
-109 27 -19 14 -16 45 7 74 11 14 20 38 20 54 0 34 16 79 29 79 4 0 23 -3 40
-6z m3485 -119 c-3 -8 6 -29 20 -48 34 -44 33 -49 -6 -45 -31 3 -33 5 -36 47
-4 49 3 75 17 66 6 -3 8 -12 5 -20z m-3474 -25 c0 -13 -20 -13 -40 0 -12 8 -9
10 13 10 15 0 27 -4 27 -10z m3101 -122 c5 -7 9 -21 9 -30 0 -17 -31 -18 -517
-18 -285 0 -725 -2 -978 -5 -431 -5 -525 -2 -525 14 0 3 12 14 25 24 23 16 70
18 637 22 336 3 614 7 616 9 2 3 166 3 364 1 286 -3 363 -6 369 -17z m424 -8
c9 -29 -2 -40 -41 -40 -31 0 -34 2 -34 30 0 28 3 30 34 30 26 0 36 -5 41 -20z
m-2626 -132 c-2 -99 -1 -113 14 -116 14 -3 17 5 17 50 0 29 3 77 6 106 6 42 9
50 20 41 15 -12 18 -63 7 -147 -5 -48 -10 -56 -45 -79 -21 -14 -39 -24 -41
-22 -8 13 6 279 15 279 6 0 9 -43 7 -112z m2615 44 c8 -13 -44 -72 -65 -72
-23 0 -23 1 -2 45 12 25 23 35 39 35 13 0 25 -4 28 -8z m-2917 -318 c-3 -3
-12 -4 -19 -1 -8 3 -5 6 6 6 11 1 17 -2 13 -5z"/>
<path d="M3425 6470 c-3 -5 -1 -10 4 -10 6 0 11 5 11 10 0 6 -2 10 -4 10 -3 0
-8 -4 -11 -10z"/>
<path d="M3452 6454 c-29 -20 -28 -28 10 -75 35 -44 42 -46 87 -23 41 21 35
38 -15 42 -46 4 -63 17 -46 34 16 16 15 38 -1 38 -7 0 -23 -7 -35 -16z"/>
<path d="M1295 6271 c-3 -5 -1 -12 5 -16 18 -11 11 -35 -9 -32 -22 2 -23 -4
-7 -45 6 -16 15 -28 22 -28 13 0 37 26 53 58 10 19 8 25 -15 47 -29 27 -40 30
-49 16z"/>
<path d="M3996 5841 c-4 -5 -2 -12 3 -15 5 -4 12 -2 15 3 4 5 2 12 -3 15 -5 4
-12 2 -15 -3z"/>
<path d="M3660 5768 c-22 -48 -25 -68 -10 -68 5 0 17 17 25 37 9 21 23 45 32
55 15 17 15 18 -6 18 -16 0 -27 -11 -41 -42z"/>
<path d="M3922 5796 c1 -10 8 -17 13 -17 15 1 12 24 -3 29 -9 3 -13 -2 -10
-12z"/>
<path d="M4114 5809 c-10 -17 13 -36 27 -22 12 12 4 33 -11 33 -5 0 -12 -5
-16 -11z"/>
<path d="M4410 5752 c0 -22 13 -42 27 -42 21 0 12 44 -9 48 -10 2 -18 -1 -18
-6z"/>
<path d="M3792 5614 c-12 -8 -22 -22 -22 -30 0 -17 -12 -18 -27 -3 -6 6 -16 8
-22 5 -17 -11 -13 -26 4 -20 10 4 15 0 15 -13 0 -28 8 -33 41 -21 32 11 49 35
49 67 0 28 -13 33 -38 15z"/>
<path d="M4316 5358 c-2 -13 -9 -57 -15 -98 -6 -41 -14 -86 -18 -100 -5 -21
-3 -23 8 -12 27 25 64 232 41 232 -7 0 -14 -10 -16 -22z"/>
<path d="M4170 5319 c-18 -22 -44 -71 -57 -107 -14 -37 -32 -82 -40 -100 -15
-34 -13 -49 6 -37 6 3 11 16 11 28 0 12 10 38 22 57 13 19 29 53 38 74 8 22
21 41 29 44 10 3 12 0 7 -14 -4 -11 -10 -44 -13 -74 -3 -30 -13 -66 -22 -80
-17 -25 -41 -76 -41 -86 0 -3 5 -2 10 1 20 13 69 131 85 205 8 40 20 79 26 87
9 9 8 17 -1 28 -18 22 -23 19 -60 -26z"/>
<path d="M4375 5325 c-3 -8 -7 -22 -10 -31 -3 -8 -8 -68 -11 -132 -6 -115 -26
-199 -69 -282 -9 -18 -11 -31 -5 -35 10 -6 50 75 79 165 11 33 21 101 24 170
4 63 9 125 13 138 7 25 -14 32 -21 7z"/>
<path d="M3511 5246 c-9 -10 -8 -16 4 -26 21 -17 51 6 34 26 -6 8 -15 14 -19
14 -4 0 -13 -6 -19 -14z"/>
<path d="M3643 5243 c-18 -7 -16 -38 2 -53 18 -15 43 -7 52 16 4 11 -1 22 -12
30 -20 15 -23 15 -42 7z"/>
<path d="M3533 5144 c-25 -25 -27 -42 -8 -101 5 -16 2 -24 -14 -33 -18 -9 -23
-8 -29 11 -8 20 -9 20 -25 4 -20 -19 -23 -59 -5 -53 7 3 23 -8 36 -24 13 -15
34 -28 45 -28 12 0 31 -7 41 -15 11 -8 40 -15 65 -16 l46 -1 -34 -14 -34 -15
29 -32 c16 -18 32 -36 36 -41 4 -5 14 -4 23 4 8 7 18 10 22 7 3 -4 12 -2 20 5
11 9 17 6 29 -10 23 -33 37 -27 31 13 -6 39 -1 44 19 18 12 -17 13 -17 20 1 6
15 -2 28 -37 58 -24 21 -50 38 -57 38 -19 0 -27 -31 -11 -42 10 -7 7 -8 -11
-4 -14 3 -29 6 -33 6 -4 0 -3 9 3 20 6 12 9 37 5 57 -3 24 -1 39 9 47 7 6 16
34 19 61 5 40 4 45 -4 25 -10 -23 -11 -24 -23 -7 -8 10 -26 17 -44 17 -22 0
-32 6 -37 20 -8 26 -33 50 -51 50 -8 0 -26 -12 -41 -26z"/>
<path d="M4237 5103 c-4 -3 -7 -11 -7 -17 0 -6 5 -5 12 2 6 6 9 14 7 17 -3 3
-9 2 -12 -2z"/>
<path d="M4105 4970 c-3 -5 -2 -10 4 -10 5 0 13 5 16 10 3 6 2 10 -4 10 -5 0
-13 -4 -16 -10z"/>
<path d="M3815 4930 c-3 -5 -1 -10 4 -10 6 0 11 5 11 10 0 6 -2 10 -4 10 -3 0
-8 -4 -11 -10z"/>
<path d="M3470 4590 c-13 -9 -13 -11 0 -19 16 -11 43 5 34 20 -7 11 -15 11
-34 -1z"/>
<path d="M4414 5479 c-10 -17 13 -36 27 -22 12 12 4 33 -11 33 -5 0 -12 -5
-16 -11z"/>
<path d="M893 5333 c-20 -8 -15 -33 6 -33 19 0 35 23 24 34 -7 7 -13 7 -30 -1z"/>
<path d="M3582 4394 c4 -21 22 -23 26 -1 2 10 -3 17 -13 17 -10 0 -15 -6 -13
-16z"/>
<path d="M3600 4320 c-12 -7 -12 -12 -2 -22 9 -9 15 -9 24 0 16 16 -2 34 -22
22z"/>
<path d="M915 4298 c-11 -6 -22 -12 -24 -14 -13 -11 -22 -120 -26 -327 -2
-131 -11 -279 -19 -330 -8 -51 -17 -119 -21 -152 -3 -33 -8 -67 -10 -75 -3 -8
0 -22 5 -30 19 -30 30 8 49 161 18 147 24 221 36 444 9 168 15 218 32 268 19
53 11 73 -22 55z"/>
<path d="M1006 4302 c-15 -24 -45 -207 -36 -216 16 -16 28 5 40 74 7 36 14 76
17 89 2 14 8 20 13 15 5 -5 3 -34 -5 -69 -19 -78 -19 -129 0 -145 12 -10 16
-10 19 1 5 17 19 160 20 214 1 38 -1 40 -31 43 -17 2 -34 -1 -37 -6z"/>
<path d="M4232 4108 c6 -18 28 -21 28 -4 0 9 -7 16 -16 16 -9 0 -14 -5 -12
-12z"/>
<path d="M4311 3954 c0 -11 3 -14 6 -6 3 7 2 16 -1 19 -3 4 -6 -2 -5 -13z"/>
<path d="M3922 4128 c6 -18 28 -21 28 -4 0 9 -7 16 -16 16 -9 0 -14 -5 -12
-12z"/>
<path d="M4002 3808 c6 -18 28 -21 28 -4 0 9 -7 16 -16 16 -9 0 -14 -5 -12
-12z"/>
<path d="M4037 3709 c-5 -17 0 -30 13 -44 20 -19 20 -19 20 0 -1 11 -7 31 -14
44 l-13 23 -6 -23z"/>
<path d="M3682 3773 c-5 -11 -3 -32 4 -53 10 -27 13 -30 13 -12 1 13 7 22 16
22 22 0 18 37 -5 50 -15 8 -21 7 -28 -7z"/>
<path d="M3460 3650 c0 -5 7 -10 15 -10 8 0 15 5 15 10 0 6 -7 10 -15 10 -8 0
-15 -4 -15 -10z"/>
<path d="M4180 3580 c0 -5 7 -10 15 -10 8 0 15 5 15 10 0 6 -7 10 -15 10 -8 0
-15 -4 -15 -10z"/>
<path d="M4241 3421 c-15 -10 -8 -41 9 -41 15 0 25 29 14 40 -5 5 -15 5 -23 1z"/>
<path d="M3882 3497 c-9 -11 -6 -18 13 -35 21 -18 27 -20 31 -8 15 39 -20 73
-44 43z"/>
<path d="M4448 3443 c-28 -7 -22 -33 7 -33 15 0 25 6 25 14 0 18 -10 24 -32
19z"/>
<path d="M4455 3290 c-7 -12 2 -30 16 -30 12 0 12 27 0 35 -5 3 -12 1 -16 -5z"/>
<path d="M4123 3289 c-9 -9 -9 -16 -2 -25 14 -17 51 -5 47 15 -4 20 -30 25
-45 10z"/>
<path d="M3455 3211 c-9 -16 3 -31 26 -31 14 0 19 6 17 17 -4 20 -33 29 -43
14z"/>
<path d="M3385 1971 c-3 -5 2 -17 11 -25 20 -20 64 -21 64 -1 0 26 -61 47 -75
26z"/>
<path d="M1845 1890 c-4 -7 0 -19 9 -28 13 -13 20 -14 34 -6 9 6 17 17 17 25
0 17 -50 24 -60 9z"/>
<path d="M4371 2023 c-8 -18 -9 -29 -1 -37 13 -13 26 1 35 37 9 36 -17 37 -34
0z"/>
<path d="M4063 1893 c-7 -2 -13 -11 -13 -19 0 -15 12 -17 48 -8 12 4 22 13 22
20 0 14 -32 18 -57 7z"/>
<path d="M2853 5510 c-36 -15 -28 -33 10 -25 41 9 49 14 42 26 -7 11 -23 11
-52 -1z"/>
<path d="M4523 1938 c2 -7 9 -13 15 -12 7 1 26 2 43 3 45 2 25 21 -22 21 -28
0 -39 -4 -36 -12z"/>
<path d="M4645 1919 c-9 -14 -8 -14 50 -27 28 -6 69 -16 93 -23 30 -8 46 -9
54 -1 18 18 0 30 -72 46 -81 19 -116 20 -125 5z"/>
<path d="M4636 739 c-22 -18 -26 -26 -20 -54 6 -31 4 -33 -38 -46 -54 -17 -56
-40 -5 -54 38 -11 60 -32 51 -47 -3 -4 -23 -8 -45 -8 -40 0 -99 -23 -99 -39 0
-18 27 -30 85 -38 32 -4 59 -12 60 -18 0 -5 -24 -12 -52 -15 -58 -6 -90 -28
-79 -55 6 -16 8 -16 32 -1 16 11 40 16 67 14 l42 -3 1 -65 c1 -79 14 -170 24
-170 20 0 28 31 24 100 -4 85 1 98 36 96 16 -1 25 4 25 14 0 9 -10 15 -25 15
-15 0 -25 6 -25 15 0 11 17 16 70 20 64 5 70 7 73 29 5 34 -8 42 -74 48 -107
8 -115 25 -13 27 39 1 64 6 66 13 3 9 -17 13 -69 15 -57 2 -73 6 -73 18 0 9 8
14 20 12 35 -4 135 10 135 19 0 4 -34 9 -75 11 -83 3 -105 20 -36 28 65 7 66
30 2 30 -43 0 -51 3 -51 19 0 16 7 18 44 15 32 -2 51 2 68 15 22 19 23 19 4
40 -27 30 -112 30 -150 0z m104 -8 c0 -11 -25 -21 -51 -21 -19 0 -25 11 -12
23 10 10 63 8 63 -2z m-110 -241 c0 -5 -20 -10 -45 -10 -25 0 -45 5 -45 10 0
6 20 10 45 10 25 0 45 -4 45 -10z m160 -55 c0 -15 -102 -13 -108 3 -3 10 9 12
52 10 31 -2 56 -7 56 -13z"/>
</g>
</svg>
