<?xml version="1.0" standalone="no"?>
<!DOCTYPE svg PUBLIC "-//W3C//DTD SVG 20010904//EN"
 "http://www.w3.org/TR/2001/REC-SVG-20010904/DTD/svg10.dtd">
<svg version="1.0" xmlns="http://www.w3.org/2000/svg"
 width="500.000000pt" height="878.000000pt" viewBox="0 0 500.000000 878.000000"
 preserveAspectRatio="xMidYMid meet">
<metadata>
Created by potrace 1.15, written by Peter Selinger 2001-2017
</metadata>
<g transform="translate(0.000000,878.000000) scale(0.100000,-0.100000)"
fill="#000000" stroke="none">
<path d="M2234 8679 c-9 -15 6 -27 41 -31 l30 -3 3 -112 3 -113 -31 0 c-20 0
-30 -5 -30 -15 0 -13 32 -15 239 -14 131 1 244 5 251 9 25 16 -1 32 -41 26
l-39 -6 0 115 c0 123 -3 115 50 119 22 1 41 16 35 27 -9 13 -502 12 -511 -2z
m360 -131 c7 -106 1 -128 -35 -128 -28 0 -32 17 -31 124 2 102 8 118 42 109
14 -4 18 -21 24 -105z m-139 -4 c4 -66 3 -110 -3 -116 -5 -5 -22 -8 -38 -6
l-29 3 -8 98 c-5 54 -6 104 -3 112 3 9 19 15 39 15 l35 0 7 -106z"/>
<path d="M2420 8229 c-24 -5 -89 -23 -143 -40 -83 -26 -102 -36 -117 -62 -21
-34 -15 -56 24 -89 16 -14 33 -18 73 -15 63 4 76 -7 121 -98 31 -62 102 -234
102 -246 0 -3 -14 -9 -30 -13 -22 -4 -35 -15 -44 -38 -17 -40 -12 -54 26 -67
l31 -11 -19 -23 c-11 -12 -35 -53 -54 -92 -19 -38 -40 -77 -47 -86 -16 -20
-53 -90 -53 -101 0 -4 6 -8 13 -8 7 0 35 36 61 80 26 44 51 82 55 85 5 2 19
32 31 65 19 52 28 63 59 76 43 18 104 8 109 -19 3 -15 -2 -17 -35 -11 -51 8
-81 -23 -88 -89 -2 -27 -12 -64 -22 -84 -9 -20 -17 -45 -19 -57 -1 -11 -11
-45 -22 -74 -11 -29 -26 -85 -32 -125 -6 -40 -19 -83 -28 -97 -9 -14 -44 -86
-78 -161 -33 -74 -76 -156 -95 -180 l-33 -45 -21 24 c-13 15 -35 25 -65 29
-56 7 -67 16 -81 63 -10 32 -8 46 10 95 38 102 54 125 219 318 28 34 52 65 52
69 0 19 -22 5 -57 -38 -21 -25 -70 -83 -109 -129 -39 -46 -88 -113 -108 -149
-36 -63 -56 -77 -56 -36 0 10 -18 33 -41 50 -34 27 -39 37 -34 59 3 16 0 34
-9 46 -19 25 -19 49 -2 95 8 19 30 80 50 135 50 139 78 195 97 195 21 0 49 32
49 56 0 60 -60 74 -365 89 -183 10 -302 -4 -349 -40 -52 -40 -50 -93 6 -114
34 -13 91 -102 119 -184 18 -54 41 -100 99 -192 14 -22 13 -26 -14 -54 -23
-24 -26 -32 -17 -49 6 -12 25 -29 41 -39 35 -20 39 -52 10 -78 -13 -12 -18
-25 -14 -38 3 -10 7 -49 8 -85 1 -37 7 -76 13 -86 8 -14 8 -26 0 -43 -9 -20
-6 -28 18 -53 27 -29 28 -29 13 -74 -9 -26 -12 -46 -8 -46 10 0 41 76 37 92
-1 7 6 14 16 16 16 3 18 0 12 -18 -4 -14 -2 -25 5 -30 20 -13 3 -56 -37 -95
-54 -53 -74 -85 -63 -105 12 -22 16 -82 7 -97 -20 -32 80 -193 118 -193 13 0
35 -42 35 -67 0 -10 -14 -32 -32 -50 -22 -22 -33 -46 -37 -75 -6 -41 -7 -42
-44 -43 -74 -3 -115 -85 -88 -177 16 -51 -4 -88 -49 -88 -50 0 -63 -24 -56
-101 8 -74 8 -73 -97 -299 -19 -41 -42 -98 -51 -127 -9 -28 -40 -103 -67 -165
-80 -179 -117 -291 -124 -369 -2 -24 -12 -65 -24 -91 -11 -26 -19 -59 -18 -74
1 -15 -4 -29 -12 -32 -11 -4 -12 8 -6 59 17 155 35 253 50 269 12 13 14 28 10
52 -5 27 -2 37 19 57 21 19 23 27 15 44 -9 15 -7 25 10 47 18 25 18 30 5 41
-13 11 -12 15 11 38 23 25 24 28 8 43 -15 16 -14 18 10 29 28 13 34 24 17 34
-20 13 -10 45 20 60 32 17 40 35 14 35 -28 0 -11 35 19 38 34 4 35 20 1 32
-33 13 -26 34 12 38 55 5 61 11 34 32 -26 20 -28 18 26 35 9 3 13 12 10 23 -5
13 2 21 27 30 24 9 28 15 18 21 -7 5 -22 6 -33 3 -26 -6 -20 19 8 33 10 6 31
22 46 38 27 27 27 27 9 60 -24 43 -56 45 -101 8 -42 -35 -33 -54 11 -22 67 50
58 -24 -9 -78 -44 -34 -62 -39 -62 -16 0 24 -57 20 -65 -5 -8 -27 0 -38 41
-55 40 -17 43 -32 10 -45 -14 -5 -29 -17 -35 -28 -5 -10 -27 -24 -49 -30 -50
-15 -52 -15 -52 3 0 8 -4 15 -9 15 -5 0 -14 -7 -21 -15 -16 -19 -50 -20 -50
-1 0 8 -13 30 -30 48 -16 18 -31 44 -31 58 -2 24 -4 45 -8 65 -1 6 -8 1 -16
-9 -17 -23 -20 -92 -5 -101 15 -9 41 -75 34 -86 -11 -19 -24 -7 -34 34 -6 23
-21 65 -34 92 -13 28 -26 64 -30 81 -10 45 19 160 49 196 14 16 25 35 25 42 0
7 13 30 29 51 16 22 27 45 24 52 -9 24 -34 13 -49 -22 -8 -19 -21 -35 -29 -35
-22 0 -19 7 23 59 21 25 44 61 51 79 8 17 21 32 30 32 9 1 28 11 43 23 32 26
52 102 50 187 -1 30 -1 66 -1 80 0 14 0 34 0 45 -1 11 -1 56 -2 99 0 51 -6 87
-14 100 -13 17 -12 21 8 31 17 9 21 18 19 45 -15 179 -18 161 27 208 22 23 48
42 57 42 10 0 25 7 35 16 11 10 23 13 31 7 14 -9 59 -13 130 -13 25 0 49 -4
53 -10 3 -5 -1 -10 -9 -10 -23 0 -20 -13 8 -39 31 -29 38 -71 26 -141 -11 -60
-16 -92 -25 -160 -4 -25 -13 -56 -22 -69 -15 -23 -19 -23 -99 -18 -63 3 -86 1
-95 -9 -15 -18 -5 -30 32 -38 28 -5 99 -68 99 -88 0 -4 -32 -33 -71 -64 -76
-61 -109 -104 -109 -145 0 -15 -6 -32 -14 -38 -14 -12 -30 -65 -27 -92 1 -9
-14 -26 -34 -38 -38 -22 -58 -21 -49 3 8 20 -14 30 -31 16 -21 -17 -19 -46 6
-79 l21 -28 -26 -42 c-14 -22 -26 -45 -26 -51 0 -32 55 21 85 83 42 85 60 49
25 -50 -24 -69 -24 -63 -1 -63 20 0 31 26 31 77 0 30 11 64 47 138 7 17 11 38
8 47 -3 8 8 50 26 92 33 78 79 129 180 197 69 47 149 158 149 209 0 16 -4 30
-8 30 -5 0 -35 -38 -67 -85 -32 -47 -60 -85 -62 -85 -1 0 -3 13 -3 29 0 19 13
44 35 71 19 23 35 50 35 61 0 36 41 121 71 149 23 21 30 33 24 47 -4 10 -9 41
-10 70 -3 57 -31 104 -66 113 -24 6 -21 26 3 23 25 -4 42 31 23 47 -8 7 -22
10 -30 6 -20 -7 -19 3 1 26 16 16 15 18 0 24 -10 4 -22 2 -29 -5 -28 -28 -71
5 -46 35 6 7 8 18 4 24 -11 17 -35 11 -61 -15 -32 -32 -52 -32 -64 1 -8 21
-15 25 -34 20 -16 -4 -29 1 -41 14 -32 35 -84 15 -69 -25 9 -22 -20 -45 -56
-45 -15 0 -35 -9 -45 -20 -16 -18 -20 -18 -44 -4 -20 12 -32 13 -54 5 -32 -12
-34 -22 -7 -46 25 -23 17 -35 -18 -26 -17 5 -27 14 -27 27 0 27 -39 26 -41 -1
-1 -11 -2 -24 -3 -29 -1 -6 -6 -5 -13 2 -7 7 -16 12 -20 12 -13 0 -9 -27 7
-40 9 -8 11 -17 5 -28 -5 -10 -11 -25 -14 -34 -3 -10 -11 -15 -19 -13 -24 10
-59 -39 -55 -76 3 -31 6 -34 35 -34 44 0 52 -13 23 -35 -20 -15 -22 -22 -13
-31 10 -10 18 -10 38 -1 31 15 32 9 0 -22 -13 -14 -27 -20 -30 -15 -11 16 -37
10 -33 -8 2 -10 10 -18 18 -18 8 0 21 -8 28 -18 10 -13 21 -17 43 -12 41 9 38
-16 -6 -50 -34 -25 -36 -29 -29 -70 8 -55 -2 -91 -21 -75 -18 15 -55 3 -55
-16 0 -20 27 -29 45 -14 17 14 17 15 33 -23 7 -16 9 -39 6 -52 -4 -18 0 -27
20 -40 36 -24 32 -37 -8 -30 -30 6 -36 3 -56 -25 -22 -31 -22 -34 -6 -60 23
-40 21 -43 -28 -38 -53 6 -81 -16 -92 -71 -7 -33 -7 -34 22 -27 16 4 36 14 45
22 8 8 32 14 52 14 20 0 39 5 42 10 3 6 11 10 16 10 5 0 0 -18 -11 -41 -20
-38 -20 -42 -5 -59 13 -14 14 -22 4 -43 -13 -29 0 -57 27 -57 26 0 25 -22 -6
-78 -24 -43 -33 -74 -37 -127 -5 -63 -2 -76 25 -135 60 -129 75 -261 47 -410
-28 -146 -44 -266 -49 -370 -6 -103 -22 -235 -31 -250 -7 -11 -34 -152 -36
-185 -1 -16 1 -37 5 -46 5 -12 -5 -27 -38 -54 -65 -53 -109 -126 -108 -180 0
-55 34 -132 74 -168 27 -25 29 -32 22 -60 -23 -82 -2 -312 37 -422 16 -45 43
-95 50 -95 3 0 22 -26 42 -57 42 -67 168 -200 243 -257 29 -21 74 -48 101 -60
73 -32 116 -81 152 -176 17 -45 31 -96 31 -113 0 -17 7 -38 16 -48 23 -25 11
-53 -18 -43 -13 5 -33 8 -45 7 -19 -1 -23 4 -23 29 0 18 8 36 18 44 24 18 0
44 -26 28 -10 -7 -32 -15 -50 -18 -39 -9 -50 -25 -29 -41 21 -15 22 -31 2 -39
-27 -10 -45 5 -45 39 0 18 -8 42 -18 54 -35 44 -142 35 -142 -12 0 -20 -5 -23
-42 -24 -23 -1 -45 0 -49 3 -7 4 25 86 52 137 14 26 3 36 -34 32 -17 -2 -58
-6 -89 -9 -55 -4 -57 -3 -48 15 10 17 7 19 -28 19 -24 0 -45 -6 -53 -16 -11
-14 -9 -20 20 -46 30 -27 32 -33 25 -66 -4 -20 -7 -46 -6 -58 2 -14 -6 -25
-23 -32 -35 -16 -38 -15 -16 7 14 14 19 34 19 70 1 48 -1 51 -24 51 -18 0 -24
5 -22 17 4 25 -28 28 -35 3 -3 -13 -13 -20 -29 -20 -32 0 -42 9 -63 53 -23 49
-51 60 -146 55 -88 -5 -139 -30 -159 -78 -17 -42 -1 -58 63 -62 39 -2 53 -7
55 -20 5 -25 -35 -34 -59 -13 -15 15 -21 16 -34 5 -9 -8 -13 -21 -10 -32 4
-10 1 -33 -5 -52 -9 -29 -17 -34 -50 -40 -21 -3 -46 -3 -54 0 -9 3 -24 3 -33
-1 -16 -6 -16 -8 -3 -18 9 -7 15 -29 15 -52 1 -22 5 -49 9 -60 7 -16 7 -18 -5
-8 -15 15 -51 17 -65 4 -5 -4 -30 -14 -56 -21 l-48 -13 0 -213 c0 -180 2 -214
14 -214 23 0 28 17 18 54 -8 27 -6 40 9 65 23 38 42 39 84 3 17 -15 40 -31 49
-37 15 -9 12 -13 -19 -38 -28 -22 -39 -26 -50 -17 -17 14 -49 -1 -66 -31 -6
-12 -17 -18 -25 -15 -9 3 -14 -1 -14 -14 0 -11 7 -20 15 -20 19 0 21 -53 2
-68 -21 -18 -19 -99 3 -142 21 -42 46 -60 79 -60 12 0 21 -4 21 -10 0 -15 -64
-12 -86 5 -27 20 -34 19 -34 -10 0 -18 7 -26 26 -31 22 -6 25 -10 18 -33 -4
-14 -8 -40 -9 -56 -1 -17 -7 -40 -13 -51 -13 -25 -7 -34 25 -34 20 0 23 -5 23
-37 0 -42 26 -101 52 -117 22 -13 68 8 75 34 6 23 23 27 23 7 0 -17 32 -47 50
-47 8 0 24 10 37 22 17 16 26 19 34 11 8 -8 5 -16 -10 -29 -29 -25 -26 -42 7
-46 19 -2 28 -9 30 -25 5 -33 50 -66 82 -58 36 9 44 21 42 60 -3 36 3 41 26
26 11 -7 11 -12 1 -28 -17 -28 -5 -55 23 -51 16 2 24 11 28 32 5 30 30 49 30
23 0 -32 39 -65 87 -72 41 -6 49 -4 65 15 20 25 23 76 7 134 -9 33 -8 41 10
60 24 26 25 36 10 106 -8 36 -15 50 -28 50 -23 0 -41 -20 -41 -45 0 -23 -19
-44 -58 -65 -21 -10 -29 -8 -60 14 -30 21 -37 33 -37 59 0 25 -5 33 -21 35
-30 4 -51 -23 -33 -45 11 -13 12 -17 1 -21 -7 -2 -22 -13 -32 -24 l-19 -20
-25 28 c-31 36 -32 42 -3 53 42 16 80 60 74 87 -5 31 3 30 33 -1 27 -29 42
-31 60 -10 12 15 7 48 -17 111 -4 10 3 14 23 14 16 0 36 4 44 10 11 7 4 13
-30 28 -25 10 -55 22 -67 26 -30 10 -29 22 2 30 38 10 76 -3 114 -38 l34 -31
-7 28 c-6 24 -4 27 21 27 44 0 59 14 46 42 -21 47 -64 88 -91 88 -25 1 -25 2
-10 14 14 10 27 11 65 1 40 -10 49 -17 58 -45 20 -60 122 -90 189 -55 31 17
46 8 46 -26 0 -8 13 -28 29 -43 25 -24 35 -28 62 -22 18 3 46 17 63 30 55 41
70 46 110 35 41 -11 43 -17 19 -62 -25 -48 -35 -145 -17 -179 25 -49 82 -62
148 -34 44 18 198 25 217 9 8 -7 34 -16 58 -22 37 -8 45 -7 59 10 22 25 28 24
44 -9 15 -29 44 -34 121 -18 33 7 37 6 37 -12 0 -12 -5 -24 -10 -27 -19 -12
-10 -83 15 -131 22 -41 25 -60 25 -141 0 -112 15 -179 42 -194 11 -6 97 -15
192 -20 94 -5 176 -11 183 -14 7 -2 15 0 18 5 8 13 -42 78 -65 85 -29 9 -50
62 -50 122 0 30 -5 64 -12 76 -6 12 -11 50 -10 84 1 121 6 132 43 112 43 -22
158 -6 256 37 17 8 36 14 41 14 6 0 23 10 39 23 24 19 37 22 90 19 49 -3 63
-7 68 -22 3 -10 12 -21 20 -24 8 -3 15 -12 15 -20 0 -20 -54 -48 -75 -40 -35
14 -157 -34 -181 -71 -23 -35 -8 -49 70 -64 33 -6 67 -17 75 -25 34 -30 99
-54 163 -60 37 -4 88 -15 114 -26 87 -38 164 -35 164 5 0 18 -5 18 -29 5 -21
-11 -105 12 -131 35 -10 9 -28 18 -40 20 -13 3 -28 9 -34 15 -5 5 -23 10 -39
10 -20 0 -30 6 -34 20 -6 23 -14 25 -31 8 -21 -21 -33 4 -17 35 19 38 1 43
-25 7 -12 -16 -30 -30 -41 -30 -23 0 -25 13 -4 30 23 19 18 27 -21 32 -25 3
-43 -1 -59 -14 -25 -20 -55 -24 -55 -7 0 16 59 36 145 47 45 6 88 14 97 17 11
4 20 -1 28 -14 15 -30 29 -26 45 13 17 39 26 43 111 45 39 1 65 -3 71 -11 6
-7 13 -42 17 -77 8 -86 36 -161 58 -161 13 0 18 8 18 31 0 17 -4 38 -9 48 -6
10 -13 52 -17 95 -6 72 -5 78 17 102 23 24 24 32 22 134 -3 97 -1 108 16 113
22 5 46 -7 84 -42 37 -34 63 -20 60 33 -2 28 1 36 15 36 10 0 27 6 38 14 18
13 27 13 72 0 37 -11 56 -12 71 -5 11 6 28 11 38 11 17 -1 17 -1 0 -14 -20
-15 -23 -42 -4 -48 25 -10 37 4 37 43 0 52 -32 74 -94 65 -38 -6 -47 -4 -65
15 -12 13 -21 26 -21 31 0 4 -15 15 -32 24 -18 9 -34 17 -35 18 -7 6 -33 172
-43 278 -11 115 -10 176 7 259 8 39 -23 40 -38 2 -14 -35 -17 -203 -6 -351 l9
-114 -23 4 c-41 6 -55 122 -33 273 44 290 49 400 41 852 -2 123 3 161 16 114
2 -11 22 -29 43 -40 22 -12 47 -27 56 -33 14 -10 24 -10 50 0 28 10 35 9 52
-7 25 -22 60 -41 87 -46 11 -2 43 -24 70 -49 61 -55 152 -86 252 -86 37 0 69
-5 73 -11 3 -6 9 -34 13 -63 4 -35 11 -51 20 -51 11 0 14 15 14 65 -1 44 1 55
5 35 4 -17 15 -31 25 -33 13 -3 17 4 17 32 0 29 5 38 28 50 16 8 34 22 41 30
8 9 17 16 22 16 12 0 11 -36 0 -58 -27 -49 -51 -236 -51 -388 0 -122 -4 -175
-20 -243 -20 -83 -34 -121 -43 -111 -2 3 0 132 6 288 10 294 7 321 -28 292
-11 -9 -14 -22 -9 -43 3 -16 -1 -86 -10 -156 -8 -69 -20 -177 -26 -239 -15
-156 -19 -172 -47 -185 -33 -15 -56 1 -64 43 -7 33 21 285 42 370 5 25 17 58
25 74 8 16 14 38 14 48 0 34 -24 14 -53 -42 -21 -42 -33 -94 -52 -220 -14 -91
-25 -191 -25 -222 0 -49 3 -59 26 -77 15 -12 33 -21 41 -21 24 0 26 -28 3 -60
-12 -17 -21 -41 -21 -53 1 -12 1 -67 1 -122 -1 -72 3 -105 13 -119 13 -17 11
-25 -11 -68 -24 -47 -26 -48 -71 -48 -25 0 -66 -5 -91 -11 -25 -6 -65 -11 -89
-12 -40 -2 -47 -6 -65 -38 -12 -20 -36 -58 -53 -84 -35 -52 -42 -95 -19 -114
24 -20 163 -5 221 24 58 28 179 134 197 173 10 21 23 28 58 34 72 12 88 17
105 34 14 14 20 15 41 4 22 -12 27 -11 54 15 17 16 30 39 30 52 0 22 3 23 33
18 30 -6 37 -2 69 33 20 22 39 54 43 71 7 33 25 43 25 13 0 -10 5 -23 12 -30
9 -9 7 -17 -11 -36 -22 -23 -22 -46 0 -46 6 0 31 16 56 35 53 41 63 42 88 15
18 -20 18 -21 -3 -43 -29 -31 -30 -83 -1 -92 12 -4 26 -2 32 4 17 17 85 13
117 -6 25 -14 35 -15 69 -4 57 17 55 31 -11 88 -26 22 -56 35 -99 44 -38 8
-63 18 -67 28 -8 22 -33 40 -54 41 -29 0 -21 20 8 20 49 0 124 51 124 85 0 22
45 73 56 63 3 -3 0 -15 -7 -26 -11 -17 -10 -24 3 -39 9 -10 18 -27 19 -37 6
-29 52 -58 103 -63 57 -7 80 9 72 48 -7 35 26 79 60 79 l24 0 0 265 0 266 -27
26 c-37 33 -62 42 -95 32 -18 -5 -30 -3 -35 4 -5 7 -9 91 -10 188 -3 148 0
179 12 189 9 7 18 10 22 7 8 -9 76 21 91 40 18 25 15 42 -12 54 -13 6 -26 20
-29 30 -3 12 -16 19 -43 21 -31 2 -39 7 -39 23 0 17 9 21 59 27 65 8 71 11 61
28 -5 7 -28 10 -64 8 -43 -2 -56 0 -56 11 0 10 12 15 40 15 56 1 55 20 -1 26
-60 6 -66 24 -16 49 53 27 68 46 52 66 -16 20 -79 19 -108 -1 -17 -12 -22 -25
-22 -59 0 -50 -3 -53 -62 -63 -41 -7 -43 -9 -43 -42 l0 -35 55 -5 c46 -4 55
-8 55 -25 0 -16 -10 -21 -60 -30 -42 -7 -61 -15 -63 -27 -4 -21 12 -31 73 -43
64 -13 60 -30 -6 -26 -51 3 -79 -10 -79 -36 0 -22 29 -27 50 -8 16 14 26 16
52 9 l33 -10 0 -164 c1 -91 4 -176 8 -190 6 -21 1 -30 -33 -59 -23 -18 -44
-31 -47 -28 -3 3 0 21 5 39 6 18 13 55 16 81 7 55 -11 72 -43 42 -11 -9 -45
-20 -75 -24 -31 -4 -62 -13 -68 -19 -19 -19 -31 -14 -25 9 7 28 -19 36 -43 14
-25 -23 -25 -37 0 -60 30 -27 24 -82 -12 -108 -15 -12 -31 -18 -34 -14 -4 4
-1 46 6 93 7 48 14 121 16 163 1 42 8 94 15 116 7 22 14 74 15 115 1 41 4 82
6 90 4 20 -19 139 -42 216 -10 34 -16 71 -13 82 2 11 -2 33 -9 48 -20 40 -13
195 8 187 8 -3 14 -15 14 -27 0 -11 9 -36 20 -53 27 -45 68 -45 105 -1 22 26
25 37 20 67 -5 30 -2 41 14 56 12 10 21 24 21 31 0 7 18 31 41 53 36 37 39 44
33 76 -3 19 -2 35 2 35 29 1 58 41 66 91 22 134 23 126 -15 164 -20 20 -35 44
-34 57 0 13 -3 31 -7 40 -6 14 1 21 36 37 23 11 51 22 61 25 15 5 16 12 10 48
-9 52 -9 95 2 126 6 18 4 22 -14 22 -12 0 -31 -4 -41 -10 -22 -12 -53 -3 -47
14 3 6 -2 19 -10 28 -14 15 -12 20 13 42 27 23 28 25 10 32 -12 5 -35 -1 -63
-16 l-44 -23 -22 22 -22 22 28 24 c15 13 27 28 27 34 0 25 -23 18 -65 -20 -39
-36 -48 -40 -72 -33 -16 4 -45 8 -65 9 -67 2 -127 90 -128 184 0 14 -10 46
-21 71 -18 39 -22 68 -25 225 -3 191 -1 209 50 319 13 28 29 85 36 126 6 41
19 102 27 135 9 36 16 100 15 160 0 84 -4 109 -24 155 -14 30 -30 84 -37 119
-16 81 -80 169 -136 187 -11 3 -33 19 -50 34 -16 15 -43 32 -60 37 -24 8 -31
16 -33 41 -2 18 1 32 7 32 6 0 11 -4 11 -10 0 -5 10 -10 21 -10 12 0 27 -7 34
-17 17 -22 49 -10 42 17 -6 21 20 29 39 11 12 -13 84 -3 108 15 15 11 17 16 7
28 -9 11 -26 13 -68 9 -41 -5 -54 -3 -49 5 4 7 22 12 41 12 32 0 65 21 65 41
0 17 -32 23 -52 10 -11 -7 -18 -9 -16 -4 30 63 30 63 67 57 20 -4 44 -13 54
-22 14 -12 22 -13 42 -4 29 13 31 28 8 54 -25 28 -8 33 26 7 25 -18 33 -20 46
-9 8 7 15 20 15 29 0 21 -26 98 -47 137 -14 27 -14 33 0 61 23 43 2 71 -55 75
-45 3 -62 22 -29 33 23 7 27 35 10 66 -8 17 -19 20 -52 17 -39 -3 -41 -1 -48
28 -3 18 -16 47 -28 67 -26 43 -26 50 1 62 28 13 34 33 13 41 -9 4 -28 -2 -45
-14 -22 -16 -34 -19 -56 -12 -26 8 -27 9 -9 15 25 8 58 52 50 65 -10 17 -44
11 -57 -10 -17 -26 -28 -25 -28 3 0 12 -4 28 -9 36 -13 20 -63 22 -83 4 -17
-15 -18 -14 -18 5 0 24 -14 29 -26 11 -6 -11 -8 -20 -13 -67 -1 -10 -5 -10
-21 0 -16 10 -23 10 -36 -4 -14 -14 -15 -20 -4 -32 9 -12 9 -20 2 -29 -7 -8
-7 -18 -2 -27 14 -22 12 -40 -4 -40 -8 0 -16 10 -18 23 -3 19 -8 22 -41 20
-44 -3 -45 2 -11 38 17 18 24 34 20 44 -9 23 -40 14 -44 -12 -4 -30 -53 -64
-80 -56 -33 8 -57 -4 -43 -21 18 -21 -6 -32 -28 -12 -11 10 -18 32 -19 60 -1
24 -9 60 -17 80 -18 43 -7 76 26 76 11 0 19 3 17 8 -35 72 -48 81 -48 32 0
-31 -16 -41 -26 -15 -9 22 24 159 52 218 13 29 24 61 24 72 0 27 71 141 109
176 17 15 31 35 31 44 0 34 -33 72 -83 96 -47 22 -67 24 -232 29 -256 7 -319
-4 -387 -68 -38 -35 -36 -65 5 -96 19 -15 38 -26 44 -26 24 0 57 -56 99 -164
24 -64 47 -137 51 -161 l6 -45 -33 0 c-61 0 -82 -71 -32 -110 34 -27 43 -51
27 -70 -7 -8 -25 -46 -40 -84 -28 -69 -29 -80 -34 -277 -1 -53 -19 -90 -50
-100 -8 -4 -24 -156 -24 -231 0 -32 -8 -35 -23 -10 -9 14 -28 18 -95 20 -46 2
-113 9 -149 17 -36 7 -94 19 -130 25 -128 24 -285 108 -440 235 -30 25 -63 48
-72 51 -25 9 -23 15 20 82 20 33 42 67 47 77 9 15 22 10 119 -45 l109 -62 151
22 c83 11 168 26 188 31 61 16 62 31 8 144 -27 57 -55 134 -65 180 -9 44 -23
109 -31 143 -14 57 -14 77 1 193 15 113 15 133 3 152 -28 43 -38 85 -27 116 7
20 7 36 0 48 -13 26 18 182 52 253 42 89 78 133 115 141 61 12 99 62 80 104
-13 29 -102 75 -144 75 -12 0 -34 4 -48 10 -34 12 -319 19 -376 9z m375 -50
c99 -23 129 -35 119 -50 -3 -6 -43 -7 -106 -3 -84 6 -100 5 -96 -7 3 -9 25
-16 64 -19 65 -6 91 -17 76 -32 -6 -6 -23 -5 -48 2 -45 13 -96 10 -101 -6 -2
-7 17 -14 48 -17 29 -4 57 -11 62 -16 5 -5 -5 -29 -24 -59 -31 -45 -37 -50
-64 -45 -35 6 -105 -20 -105 -38 0 -7 8 -9 23 -5 46 14 85 18 90 10 2 -5 1
-19 -4 -32 -8 -20 -14 -23 -39 -17 -33 7 -70 -1 -70 -16 0 -5 18 -9 39 -9 69
0 64 -42 -5 -47 -23 -1 -44 -11 -59 -27 -28 -30 -25 -33 44 -42 29 -4 49 -10
44 -15 -10 -10 -80 -15 -89 -6 -4 3 -16 2 -26 -4 -28 -15 -39 0 -73 96 -72
204 -191 366 -240 325 -11 -9 -13 -16 -5 -24 5 -5 10 -14 10 -18 0 -14 -28 -9
-44 8 -25 25 -19 52 15 69 27 15 139 54 194 68 42 11 282 -5 370 -24z m-276
-556 c6 -21 11 -41 11 -45 0 -14 -24 -8 -48 10 -21 16 -22 21 -11 45 17 38 36
34 48 -10z m80 9 c6 -11 6 -24 1 -33 -8 -12 -13 -10 -31 7 -22 22 -19 44 6 44
8 0 19 -8 24 -18z m102 -19 c15 -18 -1 -36 -27 -31 -12 2 -20 13 -22 30 -3 22
0 26 17 21 11 -3 26 -12 32 -20z m891 6 c26 -6 51 -8 57 -5 5 4 28 -1 51 -10
68 -27 80 -87 13 -63 -35 12 -123 8 -123 -6 0 -5 10 -9 22 -10 59 -4 128 -18
128 -26 0 -10 1 -10 -100 -12 -91 -2 -105 -20 -19 -23 34 -2 66 -7 71 -12 14
-14 -1 -36 -15 -24 -20 16 -83 23 -111 12 -44 -17 -29 -28 39 -27 35 0 67 -2
71 -5 14 -14 -9 -28 -46 -28 -47 0 -93 -16 -85 -30 3 -5 25 -7 49 -4 27 4 46
2 50 -5 8 -13 -2 -17 -66 -26 -59 -8 -62 -23 -5 -27 55 -4 50 -22 -8 -28 -56
-6 -64 -24 -12 -28 20 -2 37 -7 37 -11 0 -19 -25 -28 -67 -23 -36 4 -45 2 -41
-9 2 -8 22 -16 44 -19 26 -3 39 -10 39 -20 0 -11 -14 -16 -52 -18 -35 -2 -53
-7 -53 -16 0 -14 -41 -36 -68 -36 -23 0 -42 19 -42 41 0 9 -9 45 -20 79 -11
34 -20 68 -20 75 0 12 54 32 100 37 14 2 25 8 25 13 0 19 -56 16 -96 -4 l-39
-21 -17 36 c-20 41 -13 49 47 60 19 3 41 7 48 10 19 6 4 24 -20 24 -14 0 -18
5 -14 16 4 11 -1 18 -14 21 -12 3 -27 21 -35 39 -17 42 -31 42 -83 4 -36 -26
-45 -28 -67 -18 -85 38 10 127 137 129 35 0 72 4 83 8 25 10 166 4 227 -10z
m-1719 -95 c71 -5 93 -11 108 -27 28 -30 24 -40 -13 -32 -55 13 -221 11 -225
-1 -3 -8 24 -13 86 -15 124 -5 133 -15 93 -96 l-30 -59 -67 4 c-94 6 -108 -14
-15 -23 65 -7 71 -9 68 -29 -3 -18 -8 -20 -43 -17 -69 7 -88 6 -92 -5 -2 -7
19 -14 57 -18 33 -4 60 -8 60 -9 0 -1 -11 -28 -23 -59 -26 -63 -43 -88 -62
-88 -7 0 -15 -6 -18 -14 -4 -10 -20 -15 -46 -14 -32 0 -42 5 -47 21 -4 12 -2
23 5 25 28 9 7 23 -31 20 -33 -2 -43 0 -43 12 0 10 12 16 38 18 53 5 46 24 -8
21 -53 -3 -66 14 -15 19 64 6 57 22 -9 22 -53 0 -62 3 -59 17 2 10 23 23 52
32 63 20 73 41 17 34 -22 -3 -48 -2 -58 2 -10 5 -26 7 -36 6 -14 -2 -18 3 -15
16 2 10 11 16 19 14 18 -5 82 -2 88 4 11 11 -13 19 -67 20 -40 1 -57 6 -57 15
0 9 12 14 30 14 54 1 37 21 -18 22 -63 0 -77 7 -77 39 0 19 8 26 38 34 20 6
58 11 84 11 52 0 80 8 73 20 -9 15 -170 -3 -231 -27 -21 -8 -18 33 4 42 9 4
49 15 87 25 72 19 184 20 398 4z m831 -32 c-13 -20 -60 -39 -71 -28 -4 4 8 20
27 36 37 30 65 25 44 -8z m546 9 c0 -5 -7 -11 -15 -15 -15 -5 -20 5 -8 17 9
10 23 9 23 -2z m-660 -40 c0 -19 -22 -23 -38 -7 -15 15 -14 16 11 16 15 0 27
-4 27 -9z m683 -30 c38 3 43 -1 17 -16 -14 -8 -29 -14 -33 -15 -11 0 -26 43
-19 55 4 6 8 2 10 -8 2 -12 12 -18 25 -16z m-648 -20 c-3 -11 -1 -22 5 -26 5
-3 10 -19 10 -35 0 -16 5 -32 11 -36 6 -3 8 -17 5 -30 -5 -20 -1 -27 21 -37
24 -10 28 -19 31 -55 2 -31 -2 -44 -13 -48 -22 -9 -19 -24 5 -24 14 0 20 -7
20 -21 0 -12 -8 -23 -20 -26 -29 -8 -25 -21 8 -25 39 -4 38 -41 -2 -48 -16 -3
-31 -11 -34 -19 -3 -10 4 -12 37 -6 32 5 41 4 41 -7 0 -19 -20 -38 -41 -38
-19 0 -35 -18 -25 -28 4 -3 21 -1 38 6 35 13 57 2 35 -16 -7 -6 -44 -19 -82
-29 -37 -10 -70 -24 -73 -31 -5 -17 68 -6 127 19 24 11 45 19 47 19 2 0 14
-21 26 -46 17 -37 19 -50 10 -65 -17 -26 -15 -29 14 -29 40 0 27 -33 -16 -41
-182 -37 -269 -46 -262 -26 1 4 2 28 2 53 0 37 3 45 15 40 8 -3 42 4 76 14 34
11 72 20 85 20 13 0 24 5 24 10 0 21 -33 22 -93 5 -34 -9 -71 -20 -81 -23 -21
-6 -22 -32 8 298 8 91 18 207 21 258 4 50 11 92 17 92 5 0 7 -9 3 -19z m103 7
c-3 -7 -20 -14 -39 -16 -32 -2 -33 -1 -15 13 24 18 59 20 54 3z m-173 -7 c3
-5 1 -12 -5 -16 -5 -3 -10 1 -10 9 0 18 6 21 15 7z m160 -62 c10 -15 -1 -23
-20 -15 -9 3 -13 10 -10 16 8 13 22 13 30 -1z m-161 -53 c3 -14 4 -30 1 -38
-2 -7 -6 -51 -9 -98 -7 -100 -22 -261 -36 -380 -5 -47 -7 -93 -4 -102 8 -26
-7 -22 -79 17 -35 19 -71 35 -79 35 -9 0 -21 7 -28 15 -10 12 -6 27 21 80 36
72 56 95 45 52 -5 -23 -1 -30 33 -53 41 -26 67 -25 56 4 -3 8 0 19 7 24 16 10
-9 32 -59 54 -18 8 -33 21 -33 29 0 20 4 19 50 -7 30 -18 42 -20 51 -11 9 9
-1 18 -40 37 -28 15 -51 31 -51 36 0 21 30 21 58 0 28 -21 52 -21 52 0 0 4
-18 15 -40 24 -42 17 -46 28 -30 71 9 25 11 25 39 11 27 -14 41 -13 41 5 0 4
-13 12 -30 18 -16 5 -30 16 -30 24 0 21 12 28 26 16 7 -6 18 -7 25 -3 8 5 5
12 -11 24 -25 19 -21 57 4 47 22 -9 28 5 11 23 -12 13 -13 23 -6 44 13 33 37
34 45 2z m827 -257 c9 -36 -9 -54 -32 -33 -22 20 -24 35 -7 52 17 17 31 10 39
-19z m99 12 c14 -27 2 -53 -23 -49 -25 4 -42 30 -34 52 9 22 44 20 57 -3z m74
2 c4 -9 0 -23 -8 -32 -14 -13 -16 -13 -22 2 -7 20 1 47 15 47 5 0 12 -8 15
-17z m-254 -45 c0 -5 -8 -8 -17 -6 -12 2 -19 14 -21 33 l-2 30 20 -24 c11 -13
20 -28 20 -33z m-1479 -19 c13 -24 -3 -64 -29 -74 -21 -8 -25 0 -13 23 6 12
11 32 11 46 0 32 15 34 31 5z m-83 -28 c-3 -30 -35 -36 -51 -9 -15 22 7 48 34
41 15 -4 19 -12 17 -32z m1820 7 c2 -19 -6 -32 -30 -52 -18 -14 -39 -31 -46
-37 -17 -14 -11 -43 10 -47 9 -2 31 11 49 28 21 19 36 27 42 21 16 -16 1 -38
-43 -66 -47 -30 -55 -60 -12 -52 15 3 37 8 50 12 16 5 22 3 22 -8 0 -20 -19
-34 -66 -51 -27 -9 -39 -19 -39 -32 0 -26 32 -30 57 -7 12 10 19 13 17 7 -2
-6 -31 -34 -65 -62 -60 -49 -61 -51 -78 -131 -16 -74 -16 -83 -2 -112 20 -41
20 -42 -6 -36 -12 4 -28 1 -35 -5 -15 -12 -94 5 -132 29 -18 12 -20 17 -10 23
10 7 10 14 1 35 -10 21 -9 31 2 54 9 16 13 43 10 67 -3 21 0 84 5 139 6 55 11
107 11 115 0 90 3 96 50 76 37 -15 62 -7 88 27 8 10 26 17 48 17 19 0 34 5 34
10 0 18 43 71 55 67 5 -2 11 -15 13 -29z m-1928 10 c0 -7 3 -23 6 -35 8 -28
-11 -31 -37 -7 -14 13 -16 21 -8 35 11 21 39 26 39 7z m231 -84 c32 -16 61
-71 72 -134 3 -19 8 -43 12 -52 5 -13 -2 -19 -31 -27 -20 -6 -41 -8 -46 -5
-14 9 -9 46 9 59 16 12 16 15 2 32 -8 10 -20 31 -27 46 -12 27 -13 28 -88 25
-83 -3 -108 11 -52 30 18 6 51 17 73 26 22 8 41 15 43 16 2 0 17 -7 33 -16z
m2207 -32 c7 -20 14 -45 14 -54 -1 -9 6 -22 14 -29 8 -6 14 -18 14 -26 0 -10
-4 -11 -19 -3 -33 17 -42 13 -30 -16 13 -36 5 -40 -21 -14 -13 13 -29 20 -41
17 -10 -3 -19 -2 -19 2 0 13 24 31 42 31 20 0 22 11 9 58 -7 23 -6 41 1 58 13
28 17 26 36 -24z m-81 -58 c-9 -9 -28 6 -21 18 4 6 10 6 17 -1 6 -6 8 -13 4
-17z m-2319 -14 c34 -21 40 -38 20 -58 -9 -9 -10 -15 -2 -20 15 -10 25 -40 15
-46 -4 -3 -23 4 -41 16 -32 19 -33 21 -16 34 18 12 17 14 -8 44 -43 52 -28 67
32 30z m-483 -40 c-10 -11 -22 -17 -27 -14 -12 8 11 34 30 34 13 0 12 -3 -3
-20z m2991 12 c33 -21 54 -78 54 -145 0 -51 -3 -68 -12 -64 -8 2 -12 17 -10
34 2 19 -4 37 -14 47 -12 13 -14 20 -6 28 15 15 -3 38 -29 38 -22 0 -35 36
-19 55 14 17 20 18 36 7z m-2421 -12 c3 -5 1 -10 -4 -10 -6 0 -11 5 -11 10 0
6 2 10 4 10 3 0 8 -4 11 -10z m2205 -38 c0 -13 -12 -22 -22 -16 -10 6 -1 24
13 24 5 0 9 -4 9 -8z m-64 -28 c-4 -9 -9 -15 -11 -12 -3 3 -3 13 1 22 4 9 9
15 11 12 3 -3 3 -13 -1 -22z m-226 -4 c0 -5 -7 -10 -15 -10 -8 0 -15 5 -15 10
0 6 7 10 15 10 8 0 15 -4 15 -10z m350 6 c0 -3 -4 -8 -10 -11 -5 -3 -10 -1
-10 4 0 6 5 11 10 11 6 0 10 -2 10 -4z m-319 -19 c-1 -12 -15 -9 -19 4 -3 6 1
10 8 8 6 -3 11 -8 11 -12z m454 3 c3 -5 -1 -10 -9 -10 -9 0 -16 5 -16 10 0 6
4 10 9 10 6 0 13 -4 16 -10z m-408 -22 c-3 -8 -6 -5 -6 6 -1 11 2 17 5 13 3
-3 4 -12 1 -19z m-2076 -13 c19 -10 27 -20 22 -28 -4 -7 -8 -23 -8 -37 0 -15
-6 -26 -18 -28 -21 -4 -35 27 -16 38 11 7 10 12 -4 28 -16 18 -23 42 -12 42 4
0 19 -7 36 -15z m78 -36 c-13 -26 -20 -21 -12 9 3 12 9 19 14 16 5 -3 4 -14
-2 -25z m2037 4 c-7 -7 -26 7 -26 19 0 6 6 6 15 -2 9 -7 13 -15 11 -17z
m-2727 -17 c-11 -24 -29 -36 -29 -18 0 12 31 54 36 49 3 -2 -1 -16 -7 -31z
m904 2 c-13 -12 -26 -18 -30 -14 -4 4 1 14 11 22 31 22 43 17 19 -8z m1594
-24 c-11 -65 55 -357 89 -395 19 -21 18 -39 -2 -39 -8 0 -22 -7 -30 -15 -20
-19 -63 -30 -75 -18 -5 5 -5 21 0 40 11 37 6 169 -8 205 -5 13 -6 30 -1 38 14
22 -4 64 -31 70 -20 5 -24 12 -26 49 -1 38 3 48 35 77 42 38 56 35 49 -12z
m53 36 c0 -5 -4 -10 -10 -10 -5 0 -10 5 -10 10 0 6 5 10 10 10 6 0 10 -4 10
-10z m-1522 -18 c3 -9 -2 -13 -14 -10 -9 1 -19 9 -22 16 -3 9 2 13 14 10 9 -1
19 -9 22 -16z m1653 2 c10 -9 40 -19 66 -22 26 -3 59 -13 72 -23 33 -26 57
-24 110 10 47 30 100 44 100 26 0 -5 -11 -13 -25 -17 -39 -10 -64 -38 -64 -69
0 -28 28 -47 50 -34 16 10 12 -11 -6 -25 -11 -10 -14 -23 -9 -50 5 -28 1 -42
-14 -62 -12 -14 -21 -33 -21 -41 0 -9 -4 -19 -10 -22 -12 -7 -13 -48 -2 -59 6
-7 12 -81 9 -131 -4 -96 1 -136 24 -179 26 -50 58 -67 84 -46 18 15 18 12 4
-29 -9 -26 -9 -34 4 -44 9 -7 17 -21 19 -32 3 -18 -3 -20 -52 -20 -49 0 -55
-2 -58 -23 -2 -12 -12 -27 -23 -32 -10 -6 -19 -15 -19 -20 0 -16 25 -11 51 9
13 10 41 21 62 25 21 4 52 20 69 35 30 27 31 29 15 51 -14 21 -14 26 -1 52 8
16 19 26 24 23 6 -4 5 -13 -1 -23 -9 -15 -5 -28 22 -68 19 -27 38 -52 44 -56
5 -4 6 -10 3 -13 -4 -4 -17 0 -30 9 -28 20 -48 20 -48 1 0 -8 5 -15 10 -15 6
0 20 -16 32 -36 17 -28 26 -35 44 -31 13 2 28 -1 33 -7 27 -33 43 -232 19
-224 -7 3 -14 15 -16 29 -6 50 -12 67 -29 73 -10 3 -33 17 -52 31 -26 19 -37
22 -47 14 -19 -16 -17 -29 3 -29 25 0 73 -50 73 -77 0 -21 -4 -23 -46 -20 -70
3 -67 -19 3 -29 l58 -9 3 -40 c3 -31 -11 -102 -23 -123 -1 -1 -15 4 -31 12
-40 20 -76 23 -81 8 -3 -7 7 -15 26 -18 17 -4 36 -13 42 -20 6 -8 18 -14 25
-14 19 0 17 -28 -5 -86 -10 -27 -24 -87 -30 -133 -9 -71 -8 -88 4 -107 10 -16
12 -31 5 -53 -5 -18 -5 -82 0 -153 13 -173 13 -167 -10 -161 -25 7 -70 -4 -70
-17 0 -6 11 -10 25 -10 36 0 75 -21 75 -41 0 -14 -10 -19 -42 -21 -55 -4 -64
-28 -11 -28 40 0 63 -14 63 -38 0 -10 -7 -12 -25 -8 -28 7 -75 -2 -75 -14 0
-4 15 -11 33 -14 19 -3 42 -13 53 -21 17 -13 15 -14 -29 -15 -57 0 -62 -23 -6
-28 19 -2 40 -9 48 -15 11 -10 5 -13 -34 -17 -66 -7 -67 -24 -3 -36 44 -7 54
-13 56 -31 3 -21 -1 -23 -37 -23 -57 0 -56 -26 2 -37 32 -7 42 -13 42 -28 0
-12 -8 -21 -20 -23 -37 -7 -40 -22 -7 -34 41 -16 41 -28 1 -28 -36 0 -35 -21
1 -30 33 -8 38 -30 7 -30 -61 0 -78 -27 -20 -32 41 -3 59 -28 21 -28 -34 0
-68 -11 -68 -21 0 -5 18 -9 40 -9 29 0 42 -5 50 -20 13 -25 3 -47 -13 -31 -14
14 -54 14 -62 1 -7 -12 43 -33 61 -26 8 3 16 1 19 -5 4 -5 0 -11 -7 -13 -7 -2
-32 -9 -55 -15 -59 -16 -54 -31 10 -28 49 2 52 0 55 -23 3 -23 0 -25 -39 -25
-26 0 -44 -5 -47 -13 -3 -10 7 -13 44 -11 l49 3 2 -98 c1 -96 1 -98 -20 -91
-36 11 -70 11 -74 -1 -2 -6 17 -18 42 -25 42 -12 45 -16 45 -46 0 -37 -7 -42
-18 -13 -6 17 -10 18 -32 7 -26 -13 -41 -50 -18 -46 24 5 70 -12 65 -24 -2 -7
-19 -13 -38 -13 -19 -1 -38 -2 -42 -3 -9 -1 47 -61 57 -61 3 0 6 7 6 15 0 8 5
15 10 15 6 0 10 -11 10 -25 0 -21 -5 -25 -27 -25 -37 0 -73 -10 -73 -21 0 -4
15 -5 33 -3 39 7 73 -15 64 -40 -4 -10 -15 -16 -24 -15 -23 4 -63 -10 -63 -21
0 -5 19 -10 43 -12 35 -3 43 -7 45 -26 3 -21 1 -23 -30 -17 -28 5 -37 2 -56
-19 -12 -15 -22 -27 -22 -29 0 -2 23 -3 52 -2 58 0 76 -19 31 -36 -29 -11 -73
-47 -73 -59 0 -4 18 2 41 13 38 18 42 19 57 3 22 -22 7 -46 -38 -61 -33 -11
-79 -59 -68 -71 3 -3 25 8 49 25 49 36 59 38 59 13 0 -11 -13 -23 -35 -31 -19
-7 -52 -32 -72 -57 -47 -56 -84 -67 -194 -62 -110 6 -183 34 -249 98 -28 27
-64 51 -80 55 -22 5 -32 14 -36 33 -11 45 -24 54 -66 47 -33 -6 -37 -4 -32 10
5 11 0 18 -15 22 -11 3 -21 10 -21 15 0 6 11 7 24 4 31 -8 56 2 56 20 0 8 7
17 15 20 26 10 16 29 -22 41 -44 14 -70 0 -40 -21 9 -7 17 -16 17 -20 0 -12
-20 -6 -57 20 -35 24 -44 26 -126 22 -81 -4 -90 -2 -102 16 -9 15 -14 94 -19
271 -3 138 -11 311 -18 385 -6 74 -12 185 -12 245 l-1 110 48 98 c26 53 51
116 56 140 27 118 32 149 37 227 4 51 12 91 20 101 14 16 40 100 53 169 7 41
27 48 83 29 26 -8 38 -18 38 -31 0 -20 -11 -23 -26 -8 -14 14 -76 17 -81 3 -2
-6 6 -14 19 -18 55 -15 78 -29 78 -45 0 -9 -20 -79 -45 -156 -50 -151 -55
-209 -20 -209 17 0 21 9 27 70 4 39 13 81 19 95 18 41 66 202 74 247 9 55 -1
97 -32 133 -25 31 -72 40 -102 21 -20 -13 -2 -34 23 -27 24 6 66 -17 54 -29
-4 -4 -28 -8 -53 -9 l-45 -1 2 56 2 56 66 -2 c64 -1 65 -2 70 -31 6 -32 27
-38 43 -12 14 22 -6 104 -41 173 -72 139 -88 205 -51 205 17 0 20 -4 15 -24
-4 -17 -1 -28 8 -33 8 -4 29 -44 47 -88 17 -44 42 -100 54 -125 12 -25 31 -81
40 -125 19 -84 35 -112 55 -100 9 5 10 26 5 71 l-7 64 46 -6 c39 -6 46 -4 46
10 0 23 -24 30 -62 17 -37 -13 -43 -8 -53 38 l-7 34 56 -5 c56 -5 82 6 55 23
-8 5 -40 9 -72 9 l-58 0 -25 58 c-53 121 -63 148 -69 192 -6 48 -47 100 -79
100 -9 0 -16 4 -16 9 0 21 33 137 52 180 16 38 19 65 17 166 -2 66 0 126 4
132 5 8 20 7 54 -3 27 -8 58 -12 71 -9 15 4 22 1 22 -10 0 -8 -9 -15 -21 -15
-26 0 -59 -17 -59 -31 0 -7 12 -8 29 -4 17 4 40 1 52 -6 19 -9 25 -9 34 5 16
22 47 20 78 -4 38 -30 164 -67 179 -52 9 9 7 17 -7 32 -10 11 -23 20 -29 20
-7 0 -29 9 -51 20 -22 11 -48 20 -60 20 -34 0 -89 45 -113 92 -27 56 -28 75
-2 83 11 3 20 12 20 18 0 7 9 18 20 25 11 7 20 19 20 27 0 23 41 45 85 45 43
0 86 22 67 33 -5 4 -37 3 -69 -1 -87 -12 -132 3 -160 53 -13 22 -23 47 -23 55
1 10 4 9 12 -5 17 -32 39 -45 67 -39 14 3 36 7 49 10 27 5 30 34 3 34 -11 0
-39 8 -63 18 -24 10 -51 16 -60 14 -17 -3 -18 9 -18 145 0 103 4 153 12 161
15 15 18 15 39 -4z m-1731 -31 l-1 -38 -20 25 c-20 23 -20 25 -3 37 24 18 24
18 24 -24z m-230 8 c0 -12 -20 -25 -27 -18 -7 7 6 27 18 27 5 0 9 -4 9 -9z
m1850 -17 c0 -9 -5 -14 -12 -12 -18 6 -21 28 -4 28 9 0 16 -7 16 -16z m-1510
-44 c-32 -24 -37 -18 -15 16 13 20 20 23 28 15 9 -9 6 -17 -13 -31z m-1220 10
c0 -5 -2 -10 -4 -10 -3 0 -8 5 -11 10 -3 6 -1 10 4 10 6 0 11 -4 11 -10z m80
-9 c15 -28 13 -33 -10 -21 -11 6 -20 17 -20 25 0 21 17 18 30 -4z m3278 -33
c2 -27 -1 -48 -7 -48 -5 0 -7 8 -4 18 2 10 -5 26 -16 36 -27 25 -27 44 2 42
19 -1 22 -7 25 -48z m-3192 31 c10 -17 -13 -36 -27 -22 -12 12 -4 33 11 33 5
0 12 -5 16 -11z m855 -36 c-14 -29 -24 -36 -48 -37 -30 -1 -31 -1 -17 26 14
26 62 58 76 51 5 -2 0 -20 -11 -40z m70 13 c-14 -36 -22 -33 -9 5 6 16 12 28
14 26 3 -2 0 -16 -5 -31z m321 -30 c46 -35 97 -71 113 -80 17 -9 46 -26 65
-38 77 -46 150 -76 245 -100 137 -35 231 -55 290 -63 l50 -7 -35 -30 c-63 -54
-79 -57 -238 -45 -131 9 -142 12 -136 29 7 22 -18 25 -36 3 -19 -23 -102 -19
-152 6 -34 18 -47 19 -75 11 -26 -8 -36 -7 -48 5 -19 18 -19 27 0 43 15 13 20
51 8 63 -3 4 -15 0 -25 -10 -17 -15 -18 -15 -18 5 0 11 -4 23 -9 26 -20 12
-71 138 -65 160 3 14 -1 38 -10 55 -9 17 -14 31 -11 31 2 0 42 -29 87 -64z
m2018 49 c7 -8 23 -15 35 -15 21 0 23 -4 22 -44 -1 -30 4 -50 16 -63 23 -27
21 -43 -6 -43 -34 0 -67 -28 -67 -56 0 -33 -14 -30 -41 7 -21 30 -21 32 -5 87
9 32 15 64 14 72 -3 33 2 70 11 70 5 0 14 -7 21 -15z m-2531 -1 c27 -6 30 -9
24 -33 -10 -45 -22 -59 -42 -54 -13 3 -17 11 -14 24 4 14 0 19 -16 19 -24 0
-25 4 -11 31 12 21 14 22 59 13z m2410 -44 c15 -23 15 -24 -4 -16 -47 20 -76
19 -101 -5 -13 -12 -24 -18 -24 -12 0 21 70 64 99 60 7 -1 21 -13 30 -27z
m-2081 -39 c-13 -17 -29 -30 -36 -30 -7 -1 2 17 20 40 18 22 34 36 36 30 2 -6
-7 -24 -20 -40z m-1148 29 c0 -5 -7 -10 -15 -10 -8 0 -15 5 -15 10 0 6 7 10
15 10 8 0 15 -4 15 -10z m982 -22 c-7 -7 -12 -20 -12 -31 0 -10 -4 -15 -10
-12 -6 4 -4 17 6 36 8 17 18 28 22 25 3 -4 0 -12 -6 -18z m1520 -30 c-9 -9
-12 -7 -12 12 0 19 3 21 12 12 9 -9 9 -15 0 -24z m-1579 -47 c3 -27 12 -59 19
-70 18 -30 0 -40 -23 -12 -14 17 -19 39 -19 83 0 70 15 70 23 -1z m2327 49 c0
-5 -5 -10 -11 -10 -5 0 -7 5 -4 10 3 6 8 10 11 10 2 0 4 -4 4 -10z m-3280 -25
c0 -14 -4 -25 -10 -25 -5 0 -10 11 -10 25 0 14 5 25 10 25 6 0 10 -11 10 -25z
m1265 -22 c9 -27 24 -61 33 -78 25 -49 29 -57 50 -128 29 -97 14 -121 -49 -76
-45 32 -70 1 -29 -36 20 -19 20 -19 -15 -55 -19 -20 -35 -43 -35 -52 0 -8 -9
-27 -20 -41 -11 -14 -20 -28 -20 -31 0 -8 -49 -55 -70 -66 -31 -16 -38 -12
-43 28 -4 39 6 72 24 72 6 0 25 11 43 25 72 55 115 200 82 279 -17 40 -21 64
-9 53 3 -4 12 -2 19 4 10 8 10 17 3 37 -11 29 -3 112 11 112 4 0 16 -21 25
-47z m1979 11 c7 -19 -2 -37 -15 -29 -12 8 -12 45 0 45 5 0 12 -7 15 -16z
m-2064 -4 c0 -5 -4 -10 -10 -10 -5 0 -10 5 -10 10 0 6 5 10 10 10 6 0 10 -4
10 -10z m1980 -11 c0 -6 -4 -7 -10 -4 -5 3 -10 11 -10 16 0 6 5 7 10 4 6 -3
10 -11 10 -16z m-2105 -49 c19 0 29 -20 16 -33 -7 -7 -18 -7 -36 1 -27 13 -34
49 -12 71 10 10 13 7 15 -13 2 -14 10 -26 17 -26z m-241 -9 c7 -10 -18 -34
-27 -25 -7 8 3 34 13 34 5 0 11 -4 14 -9z m-107 -48 c-9 -21 -13 -23 -15 -9
-5 24 6 49 18 41 6 -3 5 -16 -3 -32z m202 2 c3 -17 1 -18 -13 -6 -23 20 -31 6
-12 -21 29 -41 15 -52 -22 -18 -27 25 -37 25 -74 -1 -39 -28 -45 -19 -13 20
16 18 36 31 50 31 13 0 27 5 30 11 11 17 49 6 54 -16z m-878 -6 c8 -16 8 -24
0 -32 -14 -14 -31 6 -31 36 0 23 17 22 31 -4z m3209 -26 c-11 -17 -11 -17 -6
0 3 10 7 26 7 35 1 15 2 15 6 0 2 -10 -1 -25 -7 -35z m-140 17 c8 -5 11 -12 7
-16 -4 -4 -15 0 -24 9 -18 18 -8 23 17 7z m-3000 -25 c0 -15 -18 -30 -27 -22
-2 3 -2 15 2 26 7 23 25 19 25 -4z m940 -16 c-9 -15 -7 -19 5 -19 20 0 20 -2
-12 -68 -32 -63 -82 -122 -107 -122 -25 0 -19 16 12 29 28 12 68 71 82 122 8
27 7 29 -14 23 -25 -6 -55 19 -36 31 5 3 14 4 19 1 4 -3 16 3 26 14 22 24 39
16 25 -11z m-343 -11 c-3 -7 -5 -2 -5 12 0 14 2 19 5 13 2 -7 2 -19 0 -25z
m453 -17 c0 -34 -6 -56 -20 -72 l-20 -24 10 29 c6 16 11 48 12 72 3 60 18 56
18 -5z m1017 -1 c7 -10 9 -21 5 -24 -4 -2 -12 7 -19 20 -13 29 -3 32 14 4z
m1003 0 c0 -11 -4 -20 -10 -20 -5 0 -10 9 -10 20 0 11 5 20 10 20 6 0 10 -9
10 -20z m-2387 -92 c20 -21 22 -38 4 -38 -26 0 -87 80 -87 115 0 10 12 2 33
-22 17 -20 40 -45 50 -55z m57 82 c0 -5 -2 -10 -4 -10 -3 0 -8 5 -11 10 -3 6
-1 10 4 10 6 0 11 -4 11 -10z m2280 -4 c0 -16 -18 -31 -27 -22 -8 8 5 36 17
36 5 0 10 -6 10 -14z m-2209 -49 c-13 -13 -15 1 -4 30 7 17 8 17 11 -1 2 -10
-1 -23 -7 -29z m-101 7 c0 -8 -4 -12 -10 -9 -5 3 -10 10 -10 16 0 5 5 9 10 9
6 0 10 -7 10 -16z m377 -6 c-3 -8 -6 -5 -6 6 -1 11 2 17 5 13 3 -3 4 -12 1
-19z m263 -8 c0 -5 -7 -10 -15 -10 -8 0 -15 5 -15 10 0 6 7 10 15 10 8 0 15
-4 15 -10z m-1450 -14 c0 -7 -6 -19 -14 -25 -11 -9 -15 -8 -20 5 -10 26 -7 34
14 34 11 0 20 -6 20 -14z m1724 -5 c3 -5 -5 -12 -18 -15 -13 -3 -31 -9 -40
-12 -25 -9 -19 10 7 22 29 15 44 16 51 5z m424 -34 c2 -16 1 -36 -3 -45 -5
-14 -7 -14 -15 -2 -5 8 -7 22 -4 32 2 9 0 19 -6 23 -16 10 -11 27 8 23 10 -2
18 -14 20 -31z m1052 19 c0 -3 -4 -8 -10 -11 -5 -3 -10 -1 -10 4 0 6 5 11 10
11 6 0 10 -2 10 -4z m-2033 -28 c-3 -8 -6 -5 -6 6 -1 11 2 17 5 13 3 -3 4 -12
1 -19z m1480 -38 c12 0 23 5 23 12 0 17 14 1 39 -45 26 -47 28 -72 4 -62 -10
3 -30 9 -45 12 -31 6 -32 7 -18 33 8 15 4 23 -20 40 -17 12 -30 29 -29 38 0
13 3 11 11 -5 7 -14 20 -23 35 -23z m-790 -2 c-3 -8 -6 -5 -6 6 -1 11 2 17 5
13 3 -3 4 -12 1 -19z m-211 -67 c-13 -20 -26 -11 -26 16 0 25 1 26 16 11 9 -9
13 -21 10 -27z m-1610 -9 c3 -10 11 -8 33 7 58 42 71 14 15 -33 -25 -21 -38
-25 -47 -18 -7 6 -23 9 -35 5 -17 -4 -22 -1 -22 13 0 23 43 70 48 52 2 -7 5
-19 8 -26z m859 19 c3 -5 1 -13 -5 -16 -15 -9 -43 3 -35 15 8 13 32 13 40 1z
m1255 -21 c0 -11 -7 -20 -15 -20 -8 0 -15 9 -15 20 0 11 7 20 15 20 8 0 15 -9
15 -20z m1008 -26 c-4 -3 -12 5 -18 18 -12 22 -12 22 6 6 10 -10 15 -20 12
-24z m-2179 0 c-6 -8 -18 -14 -26 -14 -8 0 -21 -16 -29 -35 -8 -19 -16 -35
-18 -35 -20 0 -36 16 -36 35 0 37 18 39 22 3 l3 -33 17 30 c23 42 57 77 69 69
6 -4 6 -11 -2 -20z m961 0 c0 -8 -4 -12 -10 -9 -5 3 -10 10 -10 16 0 5 5 9 10
9 6 0 10 -7 10 -16z m-1980 -10 c0 -8 -4 -12 -10 -9 -5 3 -10 10 -10 16 0 5 5
9 10 9 6 0 10 -7 10 -16z m131 -27 c-13 -13 -26 -3 -16 12 3 6 11 8 17 5 6 -4
6 -10 -1 -17z m1399 -42 c0 -8 -4 -15 -10 -15 -5 0 -10 7 -10 15 0 8 5 15 10
15 6 0 10 -7 10 -15z m-650 -29 c0 -30 -16 -42 -35 -26 -12 10 -11 14 3 30 23
25 32 24 32 -4z m734 -2 c4 -9 4 -19 1 -22 -7 -8 -35 19 -29 29 8 14 21 11 28
-7z m86 -3 c0 -6 -4 -13 -10 -16 -5 -3 -10 1 -10 9 0 9 5 16 10 16 6 0 10 -4
10 -9z m538 -53 c8 -24 23 -79 33 -123 11 -44 26 -96 34 -115 17 -44 46 -177
46 -216 0 -126 7 -252 18 -319 10 -57 11 -88 3 -110 -24 -69 -24 -92 -3 -98
22 -5 29 -41 12 -52 -22 -13 -43 -120 -38 -190 2 -38 1 -81 -3 -95 -12 -43
-20 46 -25 280 -6 301 -15 501 -21 512 -4 6 -14 8 -24 5 -19 -5 -19 -7 -20
105 0 20 -5 40 -10 43 -6 4 -4 15 5 28 20 29 20 68 0 61 -10 -4 -15 0 -15 15
0 12 -4 21 -10 21 -5 0 -8 19 -6 45 3 24 0 47 -5 50 -5 4 -9 13 -9 21 0 11 6
13 20 9 25 -8 26 9 5 88 -17 66 -18 77 -7 77 4 0 13 -19 20 -42z m-1384 -11
c-7 -19 -34 -31 -34 -15 0 10 32 39 38 34 1 -2 0 -10 -4 -19z m777 0 c-13 -13
-26 -3 -16 12 3 6 11 8 17 5 6 -4 6 -10 -1 -17z m-697 2 c-4 -7 -7 -21 -8 -33
-2 -37 -126 -92 -126 -55 0 4 20 17 45 28 25 11 45 25 45 32 0 12 29 38 43 39
5 0 5 -5 1 -11z m-166 -22 c11 -9 11 -13 -4 -24 -21 -15 -54 -17 -54 -3 0 6
-7 10 -15 10 -12 0 -15 -11 -12 -55 2 -31 9 -61 15 -67 16 -16 15 -50 -2 -74
-19 -26 -30 -13 -15 20 10 22 9 29 -6 46 -14 15 -17 32 -13 85 2 37 9 70 16
74 16 10 73 2 90 -12z m257 13 c3 -5 -1 -10 -10 -10 -9 0 -13 5 -10 10 3 6 8
10 10 10 2 0 7 -4 10 -10z m635 -55 c0 -8 -7 -15 -16 -15 -14 0 -14 3 -4 15 7
8 14 15 16 15 2 0 4 -7 4 -15z m-855 -55 c3 -5 19 -10 36 -10 37 0 37 -9 0
-41 l-29 -26 1 25 c3 33 -26 51 -53 34 -25 -15 -30 -15 -30 2 0 22 63 35 75
16z m855 -10 c0 -5 -4 -10 -10 -10 -5 0 -10 5 -10 10 0 6 5 10 10 10 6 0 10
-4 10 -10z m410 -11 c0 -5 -7 -9 -15 -9 -15 0 -20 12 -9 23 8 8 24 -1 24 -14z
m-82 -47 c2 -7 -3 -12 -12 -12 -9 0 -16 7 -16 16 0 17 22 14 28 -4z m-498 -11
c0 -12 -20 -25 -27 -18 -7 7 6 27 18 27 5 0 9 -4 9 -9z m204 -16 c3 -8 1 -15
-3 -15 -5 0 -11 7 -15 15 -3 8 -1 15 3 15 5 0 11 -7 15 -15z m-906 -13 c-25
-34 -129 -123 -138 -117 -15 9 12 55 32 55 11 0 37 18 59 40 41 41 71 55 47
22z m-155 -34 c-6 -7 -13 -25 -17 -39 -7 -31 -30 -43 -45 -25 -9 10 -5 21 16
45 26 30 68 47 46 19z m1442 -28 c3 -5 1 -10 -4 -10 -6 0 -11 5 -11 10 0 6 2
10 4 10 3 0 8 -4 11 -10z m-870 -48 c-8 -9 -25 20 -18 31 3 5 10 2 15 -7 6
-10 7 -20 3 -24z m625 -19 c0 -20 -3 -24 -11 -16 -7 7 -9 19 -6 27 10 24 17
19 17 -11z m-650 -14 c0 -6 -4 -7 -10 -4 -5 3 -10 11 -10 16 0 6 5 7 10 4 6
-3 10 -11 10 -16z m1010 1 c0 -5 -2 -10 -4 -10 -3 0 -8 5 -11 10 -3 6 -1 10 4
10 6 0 11 -4 11 -10z m429 -6 c8 -8 -24 -34 -47 -39 -12 -2 -27 -7 -32 -10
-14 -9 -12 1 6 36 13 26 19 30 42 24 15 -4 29 -9 31 -11z m-549 -4 c0 -5 -5
-10 -11 -10 -5 0 -7 5 -4 10 3 6 8 10 11 10 2 0 4 -4 4 -10z m52 -32 c-9 -9
-12 -7 -12 12 0 19 3 21 12 12 9 -9 9 -15 0 -24z m-562 18 c0 -3 -4 -8 -10
-11 -5 -3 -10 -1 -10 4 0 6 5 11 10 11 6 0 10 -2 10 -4z m-371 -25 c7 -5 12
-14 9 -21 -2 -7 -10 -4 -22 9 -19 21 -12 28 13 12z m-565 -33 c15 -25 -19
-125 -60 -171 -19 -20 -34 -47 -34 -60 -1 -40 -25 -111 -53 -158 -15 -25 -27
-61 -27 -79 0 -22 -10 -43 -30 -67 -23 -26 -29 -40 -24 -59 5 -18 1 -29 -12
-38 -16 -12 -16 -16 -5 -30 12 -14 11 -26 -5 -79 -10 -34 -26 -73 -36 -87 -11
-16 -22 -56 -27 -102 -9 -84 -10 -85 -59 -144 -24 -29 -40 -40 -53 -37 -10 3
-19 8 -19 10 0 19 35 136 52 173 28 60 58 131 58 135 0 1 -11 6 -25 9 -37 9
-27 61 12 61 10 0 18 7 18 15 0 9 -7 14 -17 12 -12 -2 -18 3 -18 15 1 23 36
70 46 61 8 -9 44 9 44 22 0 5 -9 12 -20 15 -27 9 -25 24 7 57 15 16 27 40 28
55 0 20 8 31 28 41 27 13 28 15 11 33 -19 21 -12 35 21 41 23 4 27 33 5 33
-22 0 -18 29 5 33 33 6 42 22 21 37 -18 14 -18 15 8 24 27 11 33 25 16 36 -18
11 -1 23 25 17 29 -5 34 14 8 33 -10 8 -14 19 -9 30 5 14 14 16 40 12 19 -3
37 -3 40 0 10 10 -15 33 -36 33 -13 0 -18 6 -16 18 2 11 13 17 30 17 37 1 44
11 19 25 -12 6 -21 15 -21 21 0 16 52 6 64 -13z m812 -15 c-7 -7 -26 7 -26 19
0 6 6 6 15 -2 9 -7 13 -15 11 -17z m1094 -12 c0 -23 -16 -36 -25 -21 -9 14 1
40 15 40 5 0 10 -9 10 -19z m-395 -28 c-7 -38 -12 -50 -19 -42 -7 9 7 79 16
79 6 0 8 -14 3 -37z m-567 -17 c3 -12 -1 -17 -10 -14 -7 3 -15 13 -16 22 -3
12 1 17 10 14 7 -3 15 -13 16 -22z m508 -33 c-10 -10 -19 5 -10 18 6 11 8 11
12 0 2 -7 1 -15 -2 -18z m394 -243 c0 -69 -10 -153 -16 -147 -10 10 -25 123
-30 222 -2 61 -7 123 -9 139 -3 16 0 36 7 44 10 12 16 -4 31 -89 10 -57 18
-133 17 -169z m85 240 c3 -6 -6 -15 -20 -20 -38 -14 -45 -13 -45 10 0 15 7 20
29 20 17 0 33 -5 36 -10z m-2275 -54 c0 -13 -11 -57 -24 -97 -13 -41 -31 -101
-41 -134 -9 -33 -21 -73 -26 -89 -5 -16 -9 -41 -9 -55 0 -14 -7 -46 -16 -71
-24 -67 -42 -142 -42 -170 -1 -14 -6 -50 -11 -80 -6 -30 -14 -88 -17 -129 -3
-40 -9 -84 -14 -97 -11 -28 4 -41 25 -24 12 10 18 10 30 0 21 -17 19 -30 -5
-30 -26 0 -26 -16 0 -30 27 -14 26 -53 -2 -85 -19 -20 -37 -27 -93 -34 -38 -5
-85 -13 -102 -16 -40 -9 -44 7 -10 36 19 16 19 18 5 19 -28 0 -21 17 12 29 34
11 38 25 13 40 -16 9 -16 12 -3 21 8 5 23 10 33 10 26 0 21 17 -10 34 l-28 15
33 1 c29 0 32 -3 32 -30 0 -17 -7 -45 -16 -62 -16 -30 -12 -78 6 -78 5 0 12
12 16 28 11 53 12 54 34 40 17 -11 22 -10 30 2 14 22 12 40 -5 46 -9 4 -17 26
-21 55 -7 50 -18 60 -38 35 -8 -10 -18 -12 -33 -5 -29 11 -29 27 -1 31 21 3
22 7 20 88 -1 50 4 110 12 145 15 57 14 61 -4 74 -21 14 -28 51 -10 51 19 0
40 47 45 100 12 121 46 273 64 285 10 5 2 55 -11 72 -6 7 -3 13 10 17 11 4 23
17 28 29 5 15 9 -3 11 -58 3 -69 0 -93 -31 -185 -33 -102 -75 -279 -76 -330
-1 -14 -3 -76 -6 -137 -3 -74 -2 -113 5 -113 21 0 28 38 35 168 7 134 39 315
71 402 9 25 21 60 26 77 5 18 17 37 27 43 12 8 14 13 5 16 -20 8 -15 32 7 44
11 6 20 17 20 25 0 9 4 23 9 33 5 9 12 25 15 35 8 25 26 21 26 -7z m1635 11
c21 -16 8 -28 -23 -21 -12 4 -19 11 -15 20 6 17 14 18 38 1z m659 -16 c5 -8
-41 -24 -59 -22 -14 2 -3 17 17 23 34 9 36 9 42 -1z m-1034 -21 c0 -5 -5 -10
-11 -10 -5 0 -7 5 -4 10 3 6 8 10 11 10 2 0 4 -4 4 -10z m480 -5 c0 -8 -7 -15
-15 -15 -16 0 -20 12 -8 23 11 12 23 8 23 -8z m-129 -18 c-13 -13 -26 -3 -16
12 3 6 11 8 17 5 6 -4 6 -10 -1 -17z m654 -18 c-8 -12 -35 -12 -35 0 0 11 22
20 33 14 4 -2 5 -9 2 -14z m-645 -19 c0 -5 -4 -10 -10 -10 -5 0 -10 5 -10 10
0 6 5 10 10 10 6 0 10 -4 10 -10z m728 -29 c3 -10 -3 -11 -27 -6 -22 5 -39 2
-57 -10 -29 -18 -38 -16 -28 8 10 27 103 34 112 8z m-1768 -21 c0 -5 -2 -10
-4 -10 -3 0 -8 5 -11 10 -3 6 -1 10 4 10 6 0 11 -4 11 -10z m1093 -6 c8 -8 -3
-34 -14 -34 -5 0 -9 9 -9 20 0 19 11 26 23 14z m-473 -20 c0 -2 -7 -4 -15 -4
-8 0 -15 4 -15 10 0 5 7 7 15 4 8 -4 15 -8 15 -10z m46 -21 c-11 -11 -19 6
-11 24 8 17 8 17 12 0 3 -10 2 -21 -1 -24z m574 27 c0 -5 -4 -10 -10 -10 -5 0
-10 5 -10 10 0 6 5 10 10 10 6 0 10 -4 10 -10z m-480 -10 c0 -5 -4 -10 -10
-10 -5 0 -10 5 -10 10 0 6 5 10 10 10 6 0 10 -4 10 -10z m-710 -9 c0 -12 -20
-25 -27 -18 -7 7 6 27 18 27 5 0 9 -4 9 -9z m748 -40 c3 -8 -1 -12 -9 -9 -7 2
-15 10 -17 17 -3 8 1 12 9 9 7 -2 15 -10 17 -17z m288 -35 c8 -18 8 -28 1 -35
-19 -19 -25 -12 -24 24 1 41 8 44 23 11z m-1006 -7 c0 -5 -4 -9 -10 -9 -5 0
-10 7 -10 16 0 8 5 12 10 9 6 -3 10 -10 10 -16z m480 -5 c0 -8 -4 -12 -10 -9
-5 3 -10 10 -10 16 0 5 5 9 10 9 6 0 10 -7 10 -16z m710 -14 c0 -5 -4 -10 -10
-10 -5 0 -10 5 -10 10 0 6 5 10 10 10 6 0 10 -4 10 -10z m-345 -18 c0 -18 -20
-15 -23 4 -3 10 1 15 10 12 7 -3 13 -10 13 -16z m-825 -13 c0 -6 -4 -7 -10 -4
-5 3 -10 11 -10 16 0 6 5 7 10 4 6 -3 10 -11 10 -16z m640 -16 c0 -24 -25 -9
-28 17 -3 21 -2 22 12 11 9 -7 16 -20 16 -28z m-890 12 c0 -8 -4 -15 -10 -15
-5 0 -7 7 -4 15 4 8 8 15 10 15 2 0 4 -7 4 -15z m1200 5 c0 -5 -4 -10 -10 -10
-5 0 -10 5 -10 10 0 6 5 10 10 10 6 0 10 -4 10 -10z m231 -13 c-13 -13 -26 -3
-16 12 3 6 11 8 17 5 6 -4 6 -10 -1 -17z m-401 -4 c22 -19 28 -48 8 -39 -7 3
-21 9 -30 12 -19 7 -25 44 -8 44 5 0 19 -8 30 -17z m202 -5 c-7 -7 -12 -8 -12
-2 0 6 3 14 7 17 3 4 9 5 12 2 2 -3 -1 -11 -7 -17z m-536 -33 c3 -14 10 -25
15 -25 5 0 9 -5 9 -12 0 -6 -11 -1 -25 12 -25 24 -33 50 -15 50 5 0 12 -11 16
-25z m249 2 c0 -26 -20 -25 -23 2 -3 16 1 22 10 19 7 -3 13 -12 13 -21z
m-1648 -39 c-3 -7 -5 -2 -5 12 0 14 2 19 5 13 2 -7 2 -19 0 -25z m1685 7 c0
-5 -5 -11 -11 -13 -6 -2 -11 4 -11 13 0 9 5 15 11 13 6 -2 11 -8 11 -13z
m-895 -31 c-9 -9 -28 6 -21 18 4 6 10 6 17 -1 6 -6 8 -13 4 -17z m783 12 c0
-3 -4 -8 -10 -11 -5 -3 -10 -1 -10 4 0 6 5 11 10 11 6 0 10 -2 10 -4z m340
-17 c0 -5 -4 -9 -10 -9 -5 0 -10 7 -10 16 0 8 5 12 10 9 6 -3 10 -10 10 -16z
m-1910 -13 c0 -14 -4 -28 -10 -31 -6 -4 -10 7 -10 24 0 17 5 31 10 31 6 0 10
-11 10 -24z m1450 4 c0 -11 5 -20 10 -20 6 0 10 -7 10 -15 0 -24 -14 -17 -27
12 -16 33 -16 43 -3 43 6 0 10 -9 10 -20z m145 0 c3 -5 1 -10 -4 -10 -6 0 -11
5 -11 10 0 6 2 10 4 10 3 0 8 -4 11 -10z m523 -12 c-2 -13 -7 -23 -13 -23 -5
0 -16 -4 -22 -8 -8 -5 -13 -4 -13 2 0 6 4 11 9 11 5 0 13 9 16 20 9 27 27 25
23 -2z m-248 -44 c0 -35 8 -42 27 -23 8 8 9 2 4 -22 -8 -41 -28 -48 -41 -14
-13 35 -13 108 0 100 6 -3 10 -22 10 -41z m-321 -21 c-2 -32 -15 -68 -21 -58
-8 14 2 75 13 75 5 0 9 -8 8 -17z m116 7 c3 -5 -1 -10 -10 -10 -9 0 -13 5 -10
10 3 6 8 10 10 10 2 0 7 -4 10 -10z m-473 -22 c-7 -7 -12 -8 -12 -2 0 14 12
26 19 19 2 -3 -1 -11 -7 -17z m912 14 c2 -4 1 -14 -4 -22 -7 -11 -12 -12 -21
-3 -6 6 -8 16 -5 22 8 13 23 14 30 3z m-514 -16 c0 -8 -4 -18 -10 -21 -5 -3
-10 3 -10 14 0 12 5 21 10 21 6 0 10 -6 10 -14z m-760 -10 c0 -3 -4 -8 -10
-11 -5 -3 -10 -1 -10 4 0 6 5 11 10 11 6 0 10 -2 10 -4z m220 -15 c0 -5 -7
-14 -15 -21 -12 -10 -15 -10 -15 2 0 8 3 18 7 21 9 10 23 9 23 -2z m565 -20
c3 -5 1 -12 -5 -16 -5 -3 -10 1 -10 9 0 18 6 21 15 7z m32 -13 c-3 -8 -6 -5
-6 6 -1 11 2 17 5 13 3 -3 4 -12 1 -19z m463 2 c0 -11 -4 -20 -10 -20 -5 0
-10 9 -10 20 0 11 5 20 10 20 6 0 10 -9 10 -20z m-270 -5 c0 -8 -4 -15 -10
-15 -5 0 -10 7 -10 15 0 8 5 15 10 15 6 0 10 -7 10 -15z m230 -25 c0 -5 -2
-10 -4 -10 -3 0 -8 5 -11 10 -3 6 -1 10 4 10 6 0 11 -4 11 -10z m-1362 -39 c3
-16 -1 -22 -10 -19 -7 3 -15 15 -16 27 -3 16 1 22 10 19 7 -3 15 -15 16 -27z
m1149 3 c-9 -9 -28 6 -21 18 4 6 10 6 17 -1 6 -6 8 -13 4 -17z m-617 9 c0 -14
-19 -38 -25 -32 -8 8 5 39 16 39 5 0 9 -3 9 -7z m370 -9 c0 -8 -5 -12 -10 -9
-6 4 -8 11 -5 16 9 14 15 11 15 -7z m480 -52 c0 -27 -4 -42 -9 -36 -10 11 -22
80 -14 88 13 13 23 -8 23 -52z m-1310 2 c0 -3 -7 -1 -15 6 -8 7 -15 9 -15 4 0
-4 -5 -3 -11 3 -6 6 -8 16 -4 23 5 8 13 5 26 -9 10 -11 19 -23 19 -27z m483
-10 c-4 -10 -9 -12 -15 -6 -12 12 -1 35 12 27 5 -3 6 -13 3 -21z m384 20 c-3
-3 -12 -4 -19 -1 -8 3 -5 6 6 6 11 1 17 -2 13 -5z m143 -4 c0 -5 -7 -10 -15
-10 -8 0 -15 5 -15 10 0 6 7 10 15 10 8 0 15 -4 15 -10z m226 -43 c1 -18 -1
-36 -4 -42 -7 -10 -19 33 -21 75 -1 19 2 21 11 12 7 -7 13 -27 14 -45z m-1066
33 c0 -5 -4 -10 -10 -10 -5 0 -10 5 -10 10 0 6 5 10 10 10 6 0 10 -4 10 -10z
m753 -20 c7 -28 -4 -31 -31 -10 -23 19 -21 21 19 29 4 0 9 -8 12 -19z m167 16
c0 -3 -4 -8 -10 -11 -5 -3 -10 -1 -10 4 0 6 5 11 10 11 6 0 10 -2 10 -4z
m-1090 -26 c0 -5 -5 -10 -11 -10 -5 0 -7 5 -4 10 3 6 8 10 11 10 2 0 4 -4 4
-10z m163 -14 c6 -15 -1 -26 -15 -26 -4 0 -8 9 -8 20 0 23 15 27 23 6z m37
-32 c0 -8 -7 -14 -15 -14 -15 0 -21 21 -9 33 10 9 24 -2 24 -19z m400 -6 c0
-7 -5 -20 -10 -28 -8 -12 -10 -9 -10 13 0 15 5 27 10 27 6 0 10 -6 10 -12z
m690 -5 c0 -10 -4 -24 -9 -32 -7 -11 -10 -9 -16 8 -7 22 0 41 16 41 5 0 9 -8
9 -17z m-1230 -39 c0 -8 -4 -12 -10 -9 -5 3 -10 10 -10 16 0 5 5 9 10 9 6 0
10 -7 10 -16z m165 -14 c-5 -8 -11 -8 -17 -2 -6 6 -7 16 -3 22 5 8 11 8 17 2
6 -6 7 -16 3 -22z m981 -17 c-10 -10 -19 5 -10 18 6 11 8 11 12 0 2 -7 1 -15
-2 -18z m1493 -82 c10 -6 20 -8 23 -6 2 2 20 5 39 6 18 2 40 7 46 12 14 10 73
-9 73 -24 0 -4 20 -29 45 -55 25 -25 45 -52 45 -60 0 -23 -57 14 -70 46 -6 14
-31 36 -56 49 l-46 25 -43 -24 c-38 -21 -47 -22 -71 -11 -22 10 -30 10 -41 -2
-12 -12 -12 -18 -2 -34 8 -13 9 -30 4 -49 -5 -16 -10 -36 -10 -44 -1 -8 -3
-19 -5 -25 -3 -12 -28 216 -29 268 l-1 39 40 -51 c22 -27 48 -55 59 -60z
m-2187 67 c-7 -7 -12 -8 -12 -2 0 14 12 26 19 19 2 -3 -1 -11 -7 -17z m754 1
c7 -13 -35 -109 -48 -109 -5 0 -7 9 -3 19 3 11 0 29 -7 40 -10 17 -10 23 1 33
10 11 12 9 9 -8 -1 -11 2 -21 7 -22 6 -1 9 12 7 28 -2 21 1 30 12 30 8 0 18
-5 22 -11z m-706 -17 c0 -4 -11 -12 -25 -18 -23 -11 -24 -11 -8 12 13 21 33
25 33 6z m940 -3 c0 -11 -4 -17 -10 -14 -5 3 -10 13 -10 21 0 8 5 14 10 14 6
0 10 -9 10 -21z m-1235 -17 c0 -18 -20 -15 -23 4 -3 10 1 15 10 12 7 -3 13
-10 13 -16z m-195 -12 c0 -5 -4 -10 -9 -10 -6 0 -13 5 -16 10 -3 6 1 10 9 10
9 0 16 -4 16 -10z m509 -4 c9 -11 8 -18 -4 -30 -20 -20 -45 -21 -45 -2 0 12
25 46 34 46 2 0 9 -6 15 -14z m181 -1 c0 -8 -4 -15 -10 -15 -5 0 -10 7 -10 15
0 8 5 15 10 15 6 0 10 -7 10 -15z m-922 -13 c2 -7 -3 -12 -12 -12 -9 0 -16 7
-16 16 0 17 22 14 28 -4z m1282 -7 c0 -8 0 -18 1 -22 0 -4 -4 -9 -10 -11 -6
-2 -11 8 -11 22 0 14 5 26 10 26 6 0 10 -7 10 -15z m-860 -11 c0 -8 -4 -12
-10 -9 -5 3 -10 10 -10 16 0 5 5 9 10 9 6 0 10 -7 10 -16z m600 2 c0 -8 -4
-18 -10 -21 -5 -3 -10 3 -10 14 0 12 5 21 10 21 6 0 10 -6 10 -14z m-700 -6
c0 -5 -4 -10 -10 -10 -5 0 -10 5 -10 10 0 6 5 10 10 10 6 0 10 -4 10 -10z
m757 -32 c-3 -7 -5 -2 -5 12 0 14 2 19 5 13 2 -7 2 -19 0 -25z m173 -14 c0
-37 -15 -46 -25 -14 -8 25 3 62 16 55 5 -4 9 -22 9 -41z m-434 -23 c2 -52 14
-87 14 -38 0 14 3 32 6 41 5 14 9 14 27 1 26 -18 29 -80 5 -102 -10 -9 -18
-22 -18 -30 0 -7 -4 -13 -10 -13 -5 0 -10 7 -10 16 0 10 -6 14 -15 10 -9 -3
-15 0 -15 10 0 10 -6 14 -15 10 -8 -3 -15 -1 -15 3 0 5 4 11 8 13 5 2 12 16
16 31 5 23 4 28 -11 25 -25 -4 -30 44 -7 66 26 27 39 13 40 -43z m-70 -27
c-11 -30 -24 -12 -21 29 5 57 5 57 17 18 5 -18 7 -40 4 -47z m373 44 c-1 -7
-5 -24 -9 -38 -7 -22 -8 -21 -9 13 -1 20 4 37 9 37 6 0 10 -6 9 -12z m225 -14
c-12 -17 -20 -22 -27 -15 -8 8 -5 15 9 26 29 22 36 18 18 -11z m-1303 -6 c22
-25 24 -38 6 -38 -19 0 -37 21 -37 42 0 24 9 23 31 -4z m426 0 c-3 -8 -6 -5
-6 6 -1 11 2 17 5 13 3 -3 4 -12 1 -19z m533 -24 c0 -21 -4 -33 -10 -29 -17
10 -11 65 7 65 2 0 3 -16 3 -36z m210 -9 c0 -5 -5 -3 -10 5 -5 8 -10 20 -10
25 0 6 5 3 10 -5 5 -8 10 -19 10 -25z m190 -14 c0 -6 -4 -13 -10 -16 -5 -3
-10 1 -10 9 0 9 5 16 10 16 6 0 10 -4 10 -9z m-458 -71 l-22 -21 0 29 c0 37
10 46 29 27 13 -13 13 -17 -7 -35z m2052 -37 c-6 -54 -5 -65 7 -61 9 3 17 27
21 63 8 64 21 86 39 68 8 -8 8 -26 -1 -67 -9 -46 -17 -59 -40 -71 -64 -33
-100 28 -66 110 11 25 19 33 31 29 13 -5 14 -17 9 -71z m-1772 -60 c-3 -46 -8
-63 -18 -63 -17 0 -20 85 -3 96 6 4 8 20 4 40 -3 19 -2 40 2 47 11 18 19 -46
15 -120z m113 87 c-5 -8 -11 -8 -17 -2 -6 6 -7 16 -3 22 5 8 11 8 17 2 6 -6 7
-16 3 -22z m165 5 c0 -14 -4 -25 -9 -25 -12 0 -19 21 -13 38 8 21 22 13 22
-13z m1423 -23 c-3 -20 -12 -49 -19 -64 -8 -15 -11 -34 -8 -42 5 -12 -1 -16
-21 -16 -27 0 -28 1 -10 20 22 24 13 59 -10 40 -8 -7 -15 -21 -15 -32 0 -11
-11 -33 -25 -50 l-25 -30 0 61 c0 54 2 61 20 61 25 0 27 30 3 31 -14 0 -13 2
4 9 12 5 27 18 33 30 8 14 17 19 30 15 10 -3 21 -1 25 5 13 21 24 -1 18 -38z
m-2539 32 c15 -6 23 -34 10 -34 -13 0 -44 21 -44 30 0 11 11 13 34 4z m2730
-9 c3 -9 0 -15 -9 -15 -8 0 -15 7 -15 15 0 8 4 15 9 15 5 0 11 -7 15 -15z
m-3578 -62 c20 -45 18 -63 -7 -63 -11 0 -35 -11 -53 -25 -18 -14 -45 -25 -60
-25 -51 0 -129 -46 -169 -99 -20 -28 -37 -55 -37 -61 0 -5 -4 -10 -10 -10 -14
0 0 61 22 92 10 15 37 43 60 63 32 27 39 38 30 47 -17 17 -80 -20 -110 -64
-27 -38 -46 -49 -34 -20 9 24 48 78 85 115 62 65 10 64 -56 0 -42 -41 -47 -44
-33 -18 22 41 56 80 85 95 13 7 74 18 135 24 123 14 124 14 152 -51z m1354 32
c0 -34 -12 -46 -25 -24 -9 14 3 59 15 59 6 0 10 -16 10 -35z m78 -7 c-4 -41
-28 -50 -28 -10 0 16 3 32 7 35 15 16 24 5 21 -25z m42 17 c0 -8 -4 -15 -9
-15 -13 0 -22 16 -14 24 11 11 23 6 23 -9z m-1030 -35 c0 -5 -4 -10 -10 -10
-5 0 -10 5 -10 10 0 6 5 10 10 10 6 0 10 -4 10 -10z m1038 -36 c-2 -19 -10
-30 -21 -32 -17 -3 -18 1 -12 30 4 18 10 37 12 41 10 17 25 -11 21 -39z m42
25 c0 -5 -4 -9 -10 -9 -5 0 -10 7 -10 16 0 8 5 12 10 9 6 -3 10 -10 10 -16z
m263 -1 c6 -23 1 -38 -13 -38 -12 0 -23 37 -15 50 10 16 22 11 28 -12z m107
12 c0 -5 -5 -10 -11 -10 -5 0 -7 5 -4 10 3 6 8 10 11 10 2 0 4 -4 4 -10z
m-1243 -17 c7 -19 -23 -22 -34 -4 -9 15 -7 17 10 16 11 -1 22 -6 24 -12z m363
-3 c0 -5 -4 -10 -10 -10 -5 0 -10 5 -10 10 0 6 5 10 10 10 6 0 10 -4 10 -10z
m550 -6 c0 -8 -5 -12 -10 -9 -6 4 -8 11 -5 16 9 14 15 11 15 -7z m174 -6 c8
-33 8 -38 -7 -38 -16 0 -40 38 -32 50 11 18 33 10 39 -12z m1845 -14 c11 -30
11 -38 0 -50 -24 -24 -41 -2 -33 44 4 23 10 42 13 42 4 0 13 -16 20 -36z
m-2899 17 c0 -6 -4 -13 -10 -16 -5 -3 -10 1 -10 9 0 9 5 16 10 16 6 0 10 -4
10 -9z m714 -12 c-3 -5 -10 -7 -15 -3 -5 3 -7 10 -3 15 3 5 10 7 15 3 5 -3 7
-10 3 -15z m126 -16 c0 -19 -3 -24 -10 -17 -6 6 -8 18 -4 27 9 24 14 21 14
-10z m98 15 c-6 -18 -28 -21 -28 -4 0 9 7 16 16 16 9 0 14 -5 12 -12z m-54
-53 c-6 -14 -34 -29 -41 -21 -3 2 3 13 13 25 19 21 37 19 28 -4z m56 1 c0 -8
-4 -17 -9 -21 -12 -7 -24 12 -16 25 9 15 25 12 25 -4z m-1515 -5 c3 -5 -4 -11
-16 -13 -27 -4 -50 -38 -31 -45 10 -4 9 -8 -4 -17 -9 -7 -14 -18 -10 -24 4 -7
27 -3 72 14 69 26 84 25 84 -7 0 -16 -7 -19 -42 -19 -43 0 -78 -21 -78 -47 0
-15 9 -14 76 9 33 12 64 6 64 -11 0 -6 -18 -15 -41 -21 -52 -14 -46 -35 12
-36 65 -1 67 -2 34 -29 -25 -20 -28 -26 -15 -34 8 -6 15 -18 15 -28 0 -15 7
-17 43 -15 45 4 54 -6 22 -26 -14 -8 -20 -23 -20 -46 0 -30 12 -45 103 -131
56 -54 107 -107 114 -119 20 -35 16 -83 -9 -101 -20 -13 -21 -18 -10 -36 19
-30 8 -35 -35 -16 -21 9 -71 26 -111 38 -40 12 -75 26 -78 31 -6 10 -34 -9
-34 -23 0 -5 10 -14 23 -19 12 -6 29 -14 37 -19 22 -13 163 -56 178 -55 16 2
15 -8 -5 -51 -16 -33 -33 -46 -33 -25 0 6 -4 10 -10 10 -13 0 -42 -58 -35 -70
10 -16 21 -12 33 13 l11 22 0 -25 c1 -43 -11 -52 -47 -35 -27 14 -164 24 -197
14 -34 -10 -155 91 -155 129 0 11 -6 22 -14 25 -8 3 -25 24 -38 46 -30 52 -46
53 -42 1 6 -84 19 -103 130 -191 l79 -63 102 3 c56 1 110 -2 120 -8 10 -5 26
-12 36 -15 9 -3 17 -13 17 -22 0 -9 12 -43 26 -75 15 -33 24 -62 21 -65 -3 -4
-27 6 -52 20 -40 24 -44 29 -34 47 12 24 8 74 -6 73 -5 0 -12 -13 -15 -30 -6
-34 -25 -30 -26 6 -2 53 -4 56 -19 36 -8 -11 -15 -28 -15 -39 0 -10 -5 -17
-12 -14 -7 2 -13 17 -13 32 -1 16 -6 30 -12 32 -13 5 -27 -32 -18 -46 3 -6 -2
-14 -11 -19 -40 -22 -197 86 -305 210 -145 165 -194 277 -213 478 l-6 65 38
28 c20 16 46 34 57 42 15 10 17 17 9 25 -9 8 -21 7 -49 -4 -21 -9 -39 -16 -42
-16 -2 0 10 18 28 40 24 29 42 41 73 48 50 9 50 25 -1 32 -44 6 -31 20 27 30
43 7 48 33 8 38 -16 2 -28 8 -28 13 0 16 29 22 45 9 18 -15 65 1 65 23 0 17
50 46 108 62 61 16 70 17 77 6z m3367 -8 c10 -9 18 -23 18 -31 0 -13 -3 -13
-18 1 -10 10 -31 17 -45 17 -26 0 -34 9 -20 23 12 12 46 7 65 -10z m-2382 -38
c0 -8 -4 -15 -10 -15 -5 0 -10 7 -10 15 0 8 5 15 10 15 6 0 10 -7 10 -15z
m2256 1 c12 -10 16 -18 9 -24 -14 -14 -55 4 -55 23 0 19 20 19 46 1z m293 -31
c9 -9 11 -23 6 -44 -8 -37 -21 -47 -40 -31 -8 6 -19 9 -25 5 -5 -3 -10 -2 -10
4 0 5 5 13 10 16 15 10 0 27 -17 21 -9 -4 -22 -1 -30 5 -11 10 -11 15 3 30 18
20 79 16 103 -6z m-3069 -14 c0 -22 -16 -36 -24 -22 -8 12 3 41 15 41 5 0 9
-9 9 -19z m507 -27 c-9 -9 -28 6 -21 18 4 6 10 6 17 -1 6 -6 8 -13 4 -17z
m113 16 c0 -5 -4 -10 -10 -10 -5 0 -10 5 -10 10 0 6 5 10 10 10 6 0 10 -4 10
-10z m2200 -20 c0 -12 -28 -25 -36 -17 -9 9 6 27 22 27 8 0 14 -5 14 -10z
m-2272 -11 c-2 -6 -8 -10 -13 -10 -5 0 -11 4 -13 10 -2 6 4 11 13 11 9 0 15
-5 13 -11z m-568 -23 c0 -8 -4 -17 -9 -21 -12 -7 -24 12 -16 25 9 15 25 12 25
-4z m2880 -16 c0 -12 -42 -51 -48 -45 -5 5 37 55 45 55 2 0 3 -4 3 -10z
m-2860 -51 c0 -5 -4 -9 -10 -9 -5 0 -10 7 -10 16 0 8 5 12 10 9 6 -3 10 -10
10 -16z m3014 -13 c23 -5 35 -11 29 -17 -5 -5 -22 -4 -43 3 -19 6 -41 12 -47
14 -7 2 -13 8 -13 14 0 7 6 8 18 2 9 -5 34 -13 56 -16z m-1494 -7 c0 -11 -4
-17 -10 -14 -5 3 -10 13 -10 21 0 8 5 14 10 14 6 0 10 -9 10 -21z m-1220 -17
c0 -4 -5 -14 -10 -22 -9 -13 -11 -13 -19 0 -6 9 -6 19 1 27 10 12 28 9 28 -5z
m270 -6 c0 -3 -4 -8 -10 -11 -5 -3 -10 -1 -10 4 0 6 5 11 10 11 6 0 10 -2 10
-4z m660 0 c0 -2 -7 -7 -16 -10 -8 -3 -12 -2 -9 4 6 10 25 14 25 6z m-48 -38
c-7 -7 -12 -8 -12 -2 0 6 3 14 7 17 3 4 9 5 12 2 2 -3 -1 -11 -7 -17z m335 0
c-3 -8 -6 -5 -6 6 -1 11 2 17 5 13 3 -3 4 -12 1 -19z m1343 -6 c0 -14 -23 -32
-42 -32 -10 0 -18 2 -18 4 0 2 -3 11 -6 20 -5 13 1 16 30 16 20 0 36 -4 36 -8z
m115 -8 c14 -9 25 -26 24 -38 0 -20 -1 -20 -10 2 -7 18 -14 22 -30 17 -22 -7
-43 11 -33 27 8 12 22 10 49 -8z m-2285 -30 c0 -16 -16 -19 -25 -4 -8 13 4 32
16 25 5 -4 9 -13 9 -21z m217 -10 c-9 -9 -28 6 -21 18 4 6 10 6 17 -1 6 -6 8
-13 4 -17z m-557 6 c0 -5 -4 -10 -10 -10 -5 0 -10 5 -10 10 0 6 5 10 10 10 6
0 10 -4 10 -10z m690 -9 c0 -6 -4 -13 -10 -16 -5 -3 -10 1 -10 9 0 9 5 16 10
16 6 0 10 -4 10 -9z m-520 -27 c0 -8 -4 -12 -10 -9 -5 3 -10 10 -10 16 0 5 5
9 10 9 6 0 10 -7 10 -16z m-158 -26 c-9 -9 -12 -7 -12 12 0 19 3 21 12 12 9
-9 9 -15 0 -24z m2516 15 c-2 -10 -10 -18 -18 -18 -8 0 -16 8 -18 18 -2 12 3
17 18 17 15 0 20 -5 18 -17z m-2208 -2 c0 -6 -4 -13 -10 -16 -5 -3 -10 1 -10
9 0 9 5 16 10 16 6 0 10 -4 10 -9z m247 -25 c-4 -9 -11 -16 -17 -16 -11 0 -14
33 -3 44 11 10 26 -11 20 -28z m1871 22 c-6 -18 -28 -21 -28 -4 0 9 7 16 16
16 9 0 14 -5 12 -12z m-1247 -13 c-1 -15 -24 -12 -29 3 -3 9 2 13 12 10 10 -1
17 -7 17 -13z m-826 -4 c7 -12 -12 -24 -25 -16 -11 7 -4 25 10 25 5 0 11 -4
15 -9z m165 -21 c0 -5 -4 -10 -10 -10 -5 0 -10 5 -10 10 0 6 5 10 10 10 6 0
10 -4 10 -10z m160 0 c0 -5 -2 -10 -4 -10 -3 0 -8 5 -11 10 -3 6 -1 10 4 10 6
0 11 -4 11 -10z m1880 -25 c-7 -8 -18 -15 -24 -15 -8 0 -8 3 0 8 6 4 14 16 18
27 6 13 10 16 13 7 3 -7 -1 -19 -7 -27z m-2580 15 c0 -5 -2 -10 -4 -10 -3 0
-8 5 -11 10 -3 6 -1 10 4 10 6 0 11 -4 11 -10z m37 -12 c-3 -8 -6 -5 -6 6 -1
11 2 17 5 13 3 -3 4 -12 1 -19z m2458 -6 c0 -18 -20 -15 -23 4 -3 10 1 15 10
12 7 -3 13 -10 13 -16z m-2145 -2 c0 -5 -4 -10 -10 -10 -5 0 -10 5 -10 10 0 6
5 10 10 10 6 0 10 -4 10 -10z m2005 -50 c7 -49 2 -70 -16 -70 -5 0 -9 27 -9
60 0 73 15 79 25 10z m-2107 -18 c2 -7 -2 -10 -12 -6 -9 3 -16 11 -16 16 0 13
23 5 28 -10z m939 -29 c-3 -10 -5 -2 -5 17 0 19 2 27 5 18 2 -10 2 -26 0 -35z
m1363 -11 c0 -13 -12 -22 -22 -16 -10 6 -1 24 13 24 5 0 9 -4 9 -8z m-2480
-12 c0 -5 -4 -10 -10 -10 -5 0 -10 5 -10 10 0 6 5 10 10 10 6 0 10 -4 10 -10z
m216 -56 c1 -10 8 -35 17 -54 15 -35 26 -125 15 -135 -4 -5 -16 30 -23 70 -1
6 -7 21 -12 35 -6 14 -14 45 -18 69 -6 34 -4 42 6 39 8 -3 14 -13 15 -24z
m2060 -75 c-8 -19 -15 -26 -15 -17 -1 23 20 75 26 62 2 -7 -3 -27 -11 -45z
m-1150 4 c-10 -10 -19 5 -10 18 6 11 8 11 12 0 2 -7 1 -15 -2 -18z m-1589 -75
c-3 -7 -5 -2 -5 12 0 14 2 19 5 13 2 -7 2 -19 0 -25z m1592 -5 c0 -25 -1 -26
-9 -8 -12 27 -12 35 0 35 6 0 10 -12 9 -27z m1661 17 c0 -5 -7 -10 -15 -10 -8
0 -15 5 -15 10 0 6 7 10 15 10 8 0 15 -4 15 -10z m-2780 -40 c0 -5 -4 -10 -10
-10 -5 0 -10 5 -10 10 0 6 5 10 10 10 6 0 10 -4 10 -10z m1121 -65 c-9 -30 -9
-30 -10 10 -1 25 2 36 9 29 6 -6 6 -21 1 -39z m-1615 -61 c-34 -134 -56 -170
-56 -90 0 28 11 69 32 113 35 77 47 66 24 -23z m1849 47 c3 -5 19 -12 35 -16
17 -4 28 -11 24 -16 -10 -17 -49 -9 -79 16 -28 23 -28 25 -8 25 12 0 24 -4 28
-9z m915 -26 c-7 -8 -18 -15 -24 -14 -7 0 -6 2 2 6 6 2 12 14 12 26 0 16 3 18
12 9 8 -8 8 -15 -2 -27z m433 4 c-13 -13 -59 -8 -56 6 1 6 12 13 25 16 28 7
47 -6 31 -22z m-2803 -9 c0 -5 -4 -10 -10 -10 -5 0 -10 5 -10 10 0 6 5 10 10
10 6 0 10 -4 10 -10z m1220 -67 c0 -35 -3 -44 -10 -33 -16 25 -11 80 7 80 2 0
3 -21 3 -47z m1169 16 c-19 -12 -24 -2 -8 17 9 11 14 13 17 4 3 -7 -2 -16 -9
-21z m-2215 -11 c9 -12 14 -24 12 -26 -7 -7 -46 23 -46 35 0 20 17 15 34 -9z
m1131 -45 c-14 -57 -24 -169 -18 -211 3 -23 2 -73 -3 -110 l-8 -67 -7 50 c-4
28 -8 109 -8 180 -3 199 -5 185 25 185 24 0 26 -3 19 -27z m1114 -37 c15 -31
24 -65 24 -95 0 -25 4 -51 9 -58 12 -15 1 -85 -17 -110 -13 -16 -15 -17 -27
-2 -12 15 -17 15 -46 2 -26 -10 -32 -18 -27 -31 16 -39 25 -93 30 -192 6 -103
5 -107 -30 -192 -43 -107 -49 -190 -14 -209 19 -10 21 -17 15 -59 -5 -35 -1
-72 14 -126 24 -93 25 -116 5 -154 -19 -36 -30 -37 -61 -7 -19 18 -24 32 -24
77 0 30 7 84 14 120 15 71 14 80 -12 64 -29 -19 -44 -92 -46 -231 -1 -72 -4
-135 -8 -138 -29 -29 -76 57 -61 112 4 15 6 36 4 46 -1 10 2 24 7 30 14 16 49
159 57 232 8 71 44 214 59 234 6 8 12 37 12 65 1 28 5 94 9 148 5 67 4 106 -4
130 -17 46 -31 216 -21 244 5 13 5 36 0 55 -8 26 -6 37 7 51 9 10 20 18 25 18
12 0 10 -124 -3 -137 -15 -15 -14 -90 1 -109 19 -22 30 0 30 62 0 27 4 54 9
60 6 5 6 36 2 74 -8 67 -2 83 29 77 8 -1 26 -24 39 -51z m401 34 c0 -5 -12
-10 -27 -9 -25 0 -26 1 -8 9 27 12 35 12 35 0z m90 0 c11 -7 7 -10 -18 -10
-20 0 -31 4 -27 10 8 13 26 13 45 0z m-2752 -59 c3 -16 -1 -22 -10 -19 -7 3
-15 15 -16 27 -3 16 1 22 10 19 7 -3 15 -15 16 -27z m70 11 c2 -7 -3 -12 -12
-12 -9 0 -16 7 -16 16 0 17 22 14 28 -4z m2712 -3 c0 -15 -47 -32 -67 -25 -17
7 -17 8 0 20 20 15 67 18 67 5z m-2740 -62 c0 -7 -9 -20 -20 -30 -18 -15 -21
-16 -27 -2 -3 9 2 22 13 30 24 18 34 19 34 2z m-80 -33 c0 -8 -4 -14 -10 -14
-5 0 -10 9 -10 21 0 11 5 17 10 14 6 -3 10 -13 10 -21z m-683 -37 c17 -15 20
-23 12 -34 -17 -20 -27 -16 -44 17 -28 54 -16 61 32 17z m1795 -12 c-2 -14 -6
-25 -8 -25 -2 0 -4 11 -4 25 0 14 4 25 9 25 4 0 6 -11 3 -25z m-1699 -49 c-1
-5 -16 -14 -34 -20 -38 -13 -51 -36 -19 -36 26 0 61 18 77 39 16 22 22 12 25
-44 2 -33 -1 -49 -10 -53 -11 -3 -12 0 -3 16 20 38 -9 36 -48 -3 -23 -24 -32
-39 -23 -42 15 -6 16 -29 1 -39 -15 -9 -29 14 -29 48 0 14 -9 47 -20 72 l-19
46 32 14 c35 16 73 17 70 2z m1694 -18 c-3 -7 -5 -2 -5 12 0 14 2 19 5 13 2
-7 2 -19 0 -25z m-2687 -8 c10 -5 32 -39 49 -75 26 -54 35 -65 56 -65 14 0 29
8 35 21 7 13 19 19 33 17 24 -3 32 -25 17 -48 -7 -12 -12 -12 -22 -2 -19 19
-28 14 -28 -13 0 -14 -4 -25 -10 -25 -5 0 -10 6 -10 14 0 26 -21 29 -44 7 -12
-12 -28 -21 -35 -21 -26 0 -71 -32 -77 -54 -10 -39 -72 -39 -116 0 -24 22 -11
44 26 44 23 0 38 8 58 34 27 33 27 36 13 70 -16 37 -41 57 -63 49 -7 -3 -25
-2 -39 2 -20 5 -23 9 -14 18 31 31 133 47 171 27z m414 -39 c3 -4 -5 -28 -17
-52 -15 -30 -30 -45 -49 -50 -23 -6 -28 -4 -28 11 0 26 28 87 42 93 21 9 46 8
52 -2z m3483 -32 c7 -7 8 -21 2 -42 -5 -18 -9 -48 -9 -67 0 -71 -17 -62 -24
13 -8 94 2 125 31 96z m-177 -51 c19 -77 -3 -305 -32 -333 -7 -7 -8 -1 -4 18
4 15 7 104 7 197 0 94 4 170 9 170 4 0 14 -23 20 -52z m-2650 -8 c0 -13 -48
-36 -56 -27 -4 4 -1 13 6 22 14 17 50 20 50 5z m-446 -23 c16 -11 17 -17 6
-36 -11 -22 -12 -22 -31 -5 -39 35 -16 71 25 41z m-101 -58 c-13 -13 -59 -8
-56 6 1 6 12 13 25 16 28 7 47 -6 31 -22z m3637 5 c0 -25 -53 -103 -70 -103
-49 0 -69 74 -28 103 31 22 98 21 98 0z m-3966 -37 c9 -15 7 -21 -9 -33 -11
-8 -26 -13 -35 -12 -19 4 -25 35 -9 54 15 19 38 15 53 -9z m216 17 c0 -17 -45
-84 -56 -84 -20 0 -25 17 -9 30 8 7 15 18 15 24 0 7 5 17 12 24 13 13 38 16
38 6z m-367 -34 c-3 -11 -9 -20 -14 -20 -10 0 -12 33 -3 43 12 12 22 -3 17
-23z m631 2 c8 -14 -28 -50 -68 -66 -22 -9 -41 -14 -43 -12 -8 8 18 46 31 46
8 0 24 9 37 20 26 21 35 24 43 12z m96 -7 c0 -8 -7 -15 -16 -15 -14 0 -14 3
-4 15 7 8 14 15 16 15 2 0 4 -7 4 -15z m-245 -5 c3 -5 -1 -10 -9 -10 -9 0 -16
5 -16 10 0 6 4 10 9 10 6 0 13 -4 16 -10z m329 4 c9 -3 16 -10 16 -15 0 -14
-26 -10 -40 6 -13 16 -3 20 24 9z m3464 -51 c-2 -31 -7 -39 -27 -41 -21 -3
-23 -1 -17 20 4 12 9 30 11 38 2 8 4 16 4 18 1 1 8 2 17 2 12 0 14 -9 12 -37z
m88 0 c-6 -14 -9 -15 -16 -4 -11 19 -1 46 13 32 5 -5 7 -18 3 -28z m-4651 -3
c14 -27 14 -31 0 -36 -29 -11 -60 37 -38 59 12 13 23 7 38 -23z m90 17 c17
-13 17 -14 -3 -19 -14 -4 -22 0 -25 13 -6 22 2 24 28 6z m605 3 c0 -5 -4 -10
-9 -10 -6 0 -13 5 -16 10 -3 6 1 10 9 10 9 0 16 -4 16 -10z m60 -6 c0 -8 -5
-12 -10 -9 -6 4 -8 11 -5 16 9 14 15 11 15 -7z m-284 -19 c2 -21 -1 -24 -12
-14 -17 14 -18 39 -1 39 6 0 13 -11 13 -25z m-286 -20 c0 -8 -4 -15 -10 -15
-5 0 -10 7 -10 15 0 8 5 15 10 15 6 0 10 -7 10 -15z m737 -25 c-3 -22 -1 -43
4 -46 12 -7 12 -34 -1 -34 -5 0 -12 16 -16 35 -7 40 -20 53 -37 36 -15 -15
-27 -14 -27 3 0 11 55 42 79 45 2 1 1 -17 -2 -39z m-323 20 c14 -5 26 -16 26
-24 0 -29 -23 -28 -53 3 -34 33 -24 41 27 21z m179 -28 c21 -36 16 -52 -17
-52 -13 0 -35 -9 -49 -20 -34 -27 -41 -25 -33 11 3 19 1 38 -5 46 -14 16 -15
14 31 36 43 20 50 18 73 -21z m3591 -21 c9 -12 7 -13 -14 -8 -14 4 -33 7 -42
7 -10 0 -18 5 -18 10 0 6 6 10 14 10 7 0 20 7 27 17 13 15 14 15 18 -3 2 -10
8 -25 15 -33z m-3277 13 c-9 -9 -28 6 -21 18 4 6 10 6 17 -1 6 -6 8 -13 4 -17z
m-970 0 c3 -8 1 -20 -4 -25 -12 -12 -48 14 -39 29 10 17 36 15 43 -4z m222 1
c48 -24 65 -109 31 -151 -16 -18 -34 -18 -26 1 9 24 -48 12 -94 -20 -33 -23
-42 -25 -55 -15 -8 7 -15 20 -15 30 0 10 -6 20 -14 23 -21 8 -32 67 -15 78 8
5 10 9 6 9 -15 0 15 41 36 50 35 14 115 11 146 -5z m3773 -7 c-7 -7 -12 -8
-12 -2 0 14 12 26 19 19 2 -3 -1 -11 -7 -17z m109 11 c23 -12 16 -29 -11 -29
-21 0 -34 15 -25 30 8 13 12 12 36 -1z m-3751 -14 c0 -20 -37 -39 -43 -22 -7
20 4 37 24 37 10 0 19 -7 19 -15z m534 6 c3 -5 -5 -11 -19 -13 -28 -6 -35 8
-7 15 9 3 18 5 19 6 1 0 4 -3 7 -8z m3562 -22 c3 -6 -6 -23 -20 -38 -29 -30
-34 -62 -11 -81 22 -19 19 -33 -18 -68 -32 -31 -36 -32 -90 -26 -31 4 -57 9
-57 11 0 3 9 16 20 30 21 27 19 43 -6 43 -8 0 -12 5 -9 10 7 12 57 2 67 -14 5
-8 11 -7 19 1 10 10 10 21 0 53 -19 63 -2 81 81 89 9 0 20 -4 24 -10z m82 -49
c-1 -62 -6 -71 -29 -44 -10 12 -10 20 -1 35 7 10 12 30 12 44 0 14 4 25 9 25
6 0 9 -27 9 -60z m-4624 39 c55 -26 108 -153 69 -166 -7 -3 -13 3 -13 14 -1
28 -26 68 -34 54 -10 -16 -26 -14 -26 4 0 9 7 18 15 22 14 5 14 8 -1 24 -9 11
-25 19 -36 19 -11 0 -18 7 -18 20 0 23 9 25 44 9z m1073 -12 c18 -13 6 -27
-21 -27 -22 0 -42 31 -29 44 6 6 33 -3 50 -17z m-1287 -27 c0 -24 -26 -38 -42
-22 -16 16 -2 42 22 42 13 0 20 -7 20 -20z m793 -18 c34 -32 34 -45 1 -71 -28
-22 -49 -28 -39 -10 4 5 1 24 -5 40 -10 22 -16 27 -24 19 -8 -8 -7 -15 4 -23
11 -9 15 -31 15 -79 0 -74 -11 -90 -89 -122 -44 -18 -56 -20 -56 -6 0 5 18 14
41 20 72 20 107 83 57 105 -21 9 -39 47 -21 44 21 -4 33 2 33 16 0 8 -6 15
-14 15 -33 0 -27 62 7 77 29 13 56 5 90 -25z m3508 -24 l-9 -33 -1 36 c-1 20
2 39 6 43 13 12 15 -10 4 -46z m596 30 c-3 -8 -6 -5 -6 6 -1 11 2 17 5 13 3
-3 4 -12 1 -19z m-392 -8 c10 -11 26 -22 37 -26 19 -6 19 -7 2 -25 -17 -19
-45 -25 -58 -12 -4 4 -15 8 -24 8 -23 0 -27 33 -6 56 21 24 27 24 49 -1z
m-4420 -1 c-4 -5 -15 -9 -26 -9 -26 0 -17 15 10 17 12 1 19 -2 16 -8z m974 -3
c8 -10 9 -16 1 -21 -15 -9 -121 15 -115 26 10 15 101 11 114 -5z m3026 -116
c-7 -36 -20 -108 -30 -160 -16 -91 -31 -137 -41 -127 -9 9 29 233 46 267 9 19
20 48 24 64 13 53 14 21 1 -44z m-3905 50 c0 -5 -4 -10 -10 -10 -5 0 -10 5
-10 10 0 6 5 10 10 10 6 0 10 -4 10 -10z m695 -32 c-9 -53 -20 -68 -51 -68
-17 0 -28 8 -35 27 -5 14 -6 29 -2 33 75 63 97 65 88 8z m118 32 c10 0 17 -8
17 -20 0 -27 -23 -25 -57 6 l-28 26 25 -6 c14 -3 33 -6 43 -6z m137 -6 c0 -8
-4 -12 -10 -9 -5 3 -10 10 -10 16 0 5 5 9 10 9 6 0 10 -7 10 -16z m-535 -38
c-10 -6 -27 -19 -38 -30 -18 -17 -18 -19 -3 -34 15 -15 18 -14 42 11 24 26 28
27 47 14 30 -20 27 -39 -6 -50 -86 -28 -150 66 -74 110 28 17 33 18 41 4 7
-11 4 -18 -9 -25z m-115 -26 c0 -32 -5 -43 -26 -56 -22 -15 -27 -15 -35 -3
-15 24 -10 49 16 74 34 35 45 31 45 -15z m4340 25 c0 -8 -4 -15 -10 -15 -5 0
-10 7 -10 15 0 8 5 15 10 15 6 0 10 -7 10 -15z m-4704 -27 c1 -16 -2 -28 -7
-28 -5 0 -9 5 -9 10 0 6 -12 15 -26 20 -31 12 -25 26 12 25 22 0 27 -5 30 -27z
m106 15 c7 -10 22 -23 32 -28 23 -13 23 -29 -1 -34 -21 -4 -80 26 -87 46 -13
34 33 47 56 16z m142 -2 c3 -4 -1 -17 -9 -27 -15 -19 -15 -19 -30 0 -17 22
-11 36 15 36 10 0 21 -4 24 -9z m-413 -24 c-13 -13 -26 -3 -16 12 3 6 11 8 17
5 6 -4 6 -10 -1 -17z m4409 4 c0 -6 -4 -13 -10 -16 -5 -3 -10 1 -10 9 0 9 5
16 10 16 6 0 10 -4 10 -9z m-3320 -5 c0 -3 -4 -8 -10 -11 -5 -3 -10 -1 -10 4
0 6 5 11 10 11 6 0 10 -2 10 -4z m3261 -11 c-1 -15 -24 -12 -29 3 -3 9 2 13
12 10 10 -1 17 -7 17 -13z m129 -4 c14 -28 13 -31 -14 -31 -19 0 -22 4 -18 25
5 30 18 32 32 6z m327 -22 c-6 -22 17 -49 42 -49 20 0 41 -19 41 -37 0 -8 -9
-23 -20 -35 -18 -20 -20 -20 -27 -3 -4 11 -2 20 5 23 17 5 4 22 -17 22 -10 0
-24 7 -31 15 -9 11 -17 12 -32 4 -30 -16 -32 -5 -3 29 14 17 25 34 24 39 -3
17 1 24 12 17 6 -3 9 -15 6 -25z m130 -11 c-3 -7 -5 -2 -5 12 0 14 2 19 5 13
2 -7 2 -19 0 -25z m-3957 16 c0 -23 -24 -44 -51 -44 l-30 0 27 25 c25 23 54
33 54 19z m3046 -53 c-26 -180 -25 -179 -57 -183 -27 -4 -29 -2 -29 25 0 26
21 90 60 185 15 34 32 16 26 -27z m684 39 c0 -5 -4 -10 -10 -10 -5 0 -10 5
-10 10 0 6 5 10 10 10 6 0 10 -4 10 -10z m-3659 -23 c-13 -13 -26 -3 -16 12 3
6 11 8 17 5 6 -4 6 -10 -1 -17z m-671 3 c0 -5 -4 -10 -9 -10 -6 0 -13 5 -16
10 -3 6 1 10 9 10 9 0 16 -4 16 -10z m3958 -62 c0 -40 -2 -47 -8 -28 -11 35
-12 92 -1 86 4 -3 8 -29 9 -58z m284 38 c6 4 14 0 19 -7 13 -21 11 -29 -8 -29
-25 1 -53 24 -53 44 0 16 1 16 16 2 8 -9 20 -13 26 -10z m-4314 -3 c2 -8 -6
-13 -22 -13 -26 0 -40 12 -29 24 11 11 46 2 51 -11z m286 4 c17 -12 17 -14 -2
-37 -12 -15 -25 -21 -36 -17 -23 9 -31 34 -16 52 15 18 31 19 54 2z m226 5 c0
-5 -13 -18 -29 -30 -33 -24 -50 -84 -30 -108 9 -11 9 -18 1 -26 -14 -14 -84 7
-108 33 -15 16 -13 19 24 38 22 11 42 29 45 41 3 12 13 20 26 20 11 0 26 9 33
20 13 20 38 28 38 12z m2387 -38 c-9 -9 -28 6 -21 18 4 6 10 6 17 -1 6 -6 8
-13 4 -17z m-2752 6 c3 -5 1 -10 -4 -10 -6 0 -11 5 -11 10 0 6 2 10 4 10 3 0
8 -4 11 -10z m430 -27 c-9 -17 -22 -36 -30 -43 -8 -7 -15 -19 -15 -26 0 -18
-14 -18 -29 0 -12 15 -4 73 12 83 11 6 70 21 75 18 1 -1 -5 -16 -13 -32z
m-650 6 c4 -11 4 -23 0 -27 -7 -7 -25 17 -25 36 0 20 18 14 25 -9z m140 0 c-4
-5 -18 -9 -33 -9 l-27 0 25 14 c26 13 44 11 35 -5z m4043 4 c-5 -26 -38 -29
-38 -4 0 15 6 21 21 21 14 0 19 -5 17 -17z m-3755 -8 c1 -6 -11 -16 -26 -23
-22 -11 -26 -17 -17 -27 8 -9 8 -15 0 -20 -21 -13 -21 25 0 55 21 29 40 36 43
15z m331 -17 c8 -24 0 -85 -20 -155 -6 -21 -89 -56 -115 -50 -36 9 -69 44 -69
72 0 28 3 29 31 15 28 -16 55 3 69 47 7 21 18 45 25 53 6 8 15 23 18 33 10 28
50 18 61 -15z m3575 -4 c12 -15 21 -35 21 -45 0 -22 -37 -49 -67 -49 -26 0
-69 37 -78 67 -5 19 0 25 27 37 50 22 74 19 97 -10z m-4399 -29 c9 -11 22 -14
43 -9 27 5 29 4 22 -12 -5 -11 -10 -36 -13 -57 -5 -43 -14 -51 -48 -43 -27 7
-64 59 -64 92 0 39 37 57 60 29z m313 -15 c69 -54 42 -180 -38 -180 -9 0 -15
6 -13 12 3 7 13 13 23 13 12 0 19 9 21 28 1 15 -2 27 -7 27 -5 0 -9 -6 -9 -14
0 -8 -5 -18 -11 -22 -12 -7 -10 8 7 66 7 25 7 25 -13 7 -12 -10 -24 -14 -27
-9 -3 5 1 16 10 23 11 9 14 22 10 41 -7 34 10 37 47 8z m61 -1 c-3 -5 -10 -7
-15 -3 -5 3 -7 10 -3 15 3 5 10 7 15 3 5 -3 7 -10 3 -15z m-234 -8 c0 -5 -7
-14 -15 -21 -12 -10 -15 -10 -15 2 0 8 3 18 7 21 9 10 23 9 23 -2z m40 5 c0
-3 -4 -8 -10 -11 -5 -3 -10 -1 -10 4 0 6 5 11 10 11 6 0 10 -2 10 -4z m-310
-16 c0 -5 -4 -10 -10 -10 -5 0 -10 5 -10 10 0 6 5 10 10 10 6 0 10 -4 10 -10z
m4764 0 c28 -10 37 -50 12 -50 -19 0 -46 27 -46 46 0 17 1 17 34 4z m-4453
-53 c-13 -13 -26 -3 -16 12 3 6 11 8 17 5 6 -4 6 -10 -1 -17z m40 0 c-13 -13
-26 -3 -16 12 3 6 11 8 17 5 6 -4 6 -10 -1 -17z m-80 3 c6 0 7 -4 4 -10 -10
-16 -45 -12 -45 6 0 11 5 14 16 10 9 -3 20 -6 25 -6z m2959 0 c0 -5 -2 -10 -4
-10 -3 0 -8 5 -11 10 -3 6 -1 10 4 10 6 0 11 -4 11 -10z m-3180 -51 c0 -26
-20 -34 -38 -16 -13 14 -14 21 -3 44 12 27 13 27 27 8 8 -10 14 -27 14 -36z
m569 -15 c1 -10 10 -27 19 -36 14 -17 13 -18 -11 -18 -29 0 -107 28 -107 39 0
9 73 41 85 37 6 -1 12 -11 14 -22z m2671 11 c0 -8 -7 -15 -15 -15 -16 0 -20
12 -8 23 11 12 23 8 23 -8z m715 -133 c-5 -32 -12 -46 -31 -54 -36 -17 -40 -3
-10 40 17 26 26 51 26 78 0 23 3 44 8 48 10 11 15 -60 7 -112z m-3635 89 c0
-14 -18 -23 -30 -16 -6 4 -8 11 -5 16 8 12 35 12 35 0z m-263 -35 c-20 -18
-41 -45 -47 -60 -8 -22 -13 -25 -27 -17 -43 25 -66 49 -60 64 5 13 11 14 36 4
28 -10 34 -9 58 16 15 15 39 27 52 27 24 0 24 -1 -12 -34z m3263 20 c0 -3 -4
-8 -10 -11 -5 -3 -10 -1 -10 4 0 6 5 11 10 11 6 0 10 -2 10 -4z m-160 -26 c0
-11 -4 -20 -9 -20 -14 0 -23 18 -16 30 10 17 25 11 25 -10z m-2945 0 c3 -5 17
-10 31 -10 34 0 31 -26 -6 -45 -42 -22 -48 -19 -46 25 1 39 9 50 21 30z m-65
-8 c0 -15 -61 -73 -73 -69 -15 5 -10 37 10 60 16 17 63 24 63 9z m205 -52 c15
0 100 -118 92 -127 -9 -9 -45 16 -52 36 -3 12 -19 21 -40 25 -41 8 -70 43 -53
63 6 8 18 11 25 8 8 -3 21 -5 28 -5z m-231 -51 c-3 -5 -10 -7 -15 -3 -5 3 -7
10 -3 15 3 5 10 7 15 3 5 -3 7 -10 3 -15z m153 -21 c49 -52 57 -75 38 -104
-16 -25 -31 -29 -52 -16 -18 11 -32 55 -26 83 3 16 -1 30 -11 38 -21 18 -20
31 2 31 10 0 32 -15 49 -32z m-227 -4 c0 -14 -3 -14 -15 -4 -8 7 -15 14 -15
16 0 2 7 4 15 4 8 0 15 -7 15 -16z m3568 -62 c6 -18 6 -35 0 -45 -7 -13 -5
-17 7 -17 25 0 17 -27 -12 -38 -50 -18 -135 -42 -149 -42 -15 0 -17 20 -6 57
4 12 26 42 50 67 53 56 94 63 110 18z m-3590 -3 c2 -11 -8 -20 -27 -27 -36
-13 -47 -2 -31 28 13 25 53 24 58 -1z m169 5 c4 -10 -1 -22 -12 -30 -23 -17
-29 -12 -21 21 7 28 24 33 33 9z m-95 -26 c-7 -7 -12 -8 -12 -2 0 14 12 26 19
19 2 -3 -1 -11 -7 -17z m1815 -16 c-21 -21 -27 -23 -27 -10 0 17 40 52 49 42
3 -2 -7 -17 -22 -32z m-1867 -6 c0 -3 -4 -8 -10 -11 -5 -3 -10 -1 -10 4 0 6 5
11 10 11 6 0 10 -2 10 -4z m2105 -13 c-4 -10 -11 -31 -15 -48 -4 -16 -13 -43
-19 -58 -11 -28 -10 -50 11 -184 8 -56 8 -76 -1 -87 -18 -21 25 -84 89 -131
65 -47 54 -61 -30 -39 -83 21 -96 30 -122 82 -19 40 -20 49 -8 96 21 89 -3
256 -45 311 -37 50 -29 76 17 55 18 -9 30 -8 53 4 42 22 79 21 70 -1z m-1928
-17 c-3 -7 -1 -18 5 -24 6 -6 6 -12 -1 -16 -5 -4 -15 3 -21 14 -7 13 -18 19
-26 16 -8 -3 -14 -1 -14 4 0 8 21 16 49 19 7 0 11 -5 8 -13z m2213 4 c0 -5 -5
-10 -11 -10 -5 0 -7 5 -4 10 3 6 8 10 11 10 2 0 4 -4 4 -10z m620 0 c0 -5 -10
-10 -22 -10 -19 0 -20 2 -8 10 19 13 30 13 30 0z m-3025 -95 c0 -64 -10 -86
-20 -42 -13 58 -9 107 8 107 8 0 12 -20 12 -65z m586 -29 c-6 -7 -26 -13 -44
-14 l-33 -1 41 42 40 43 3 -29 c2 -16 -1 -34 -7 -41z m-360 23 c7 -13 7 -25 2
-30 -13 -13 -58 24 -49 39 11 19 34 14 47 -9z m149 11 c0 -5 -5 -10 -11 -10
-5 0 -7 5 -4 10 3 6 8 10 11 10 2 0 4 -4 4 -10z m64 -55 c16 -12 17 -15 4 -15
-24 0 -48 11 -48 21 0 13 23 10 44 -6z m1434 3 c-3 -7 -13 -15 -24 -17 -16 -3
-17 -1 -5 13 16 19 34 21 29 4z m-1582 -45 c-4 -27 -7 -63 -6 -82 1 -29 -1
-32 -14 -22 -24 20 -30 73 -12 114 22 54 40 48 32 -10z m-156 27 c0 -5 -5 -10
-11 -10 -5 0 -7 5 -4 10 3 6 8 10 11 10 2 0 4 -4 4 -10z m275 -51 c3 -4 1 -10
-5 -14 -13 -8 -52 13 -45 25 6 9 43 2 50 -11z m144 -35 c14 -56 4 -73 -33 -56
-23 10 -24 14 -15 49 16 59 18 65 28 59 5 -3 14 -27 20 -52z"/>
<path d="M2370 8159 c-36 -9 -67 -18 -69 -18 -3 -1 -1 -5 5 -10 5 -6 37 -4 84
5 41 8 112 14 158 15 58 1 82 4 79 12 -6 20 -182 17 -257 -4z"/>
<path d="M2448 8111 c-37 -10 -71 -20 -74 -24 -14 -14 2 -16 46 -5 25 6 62 10
83 9 26 -1 37 2 37 13 0 23 -21 25 -92 7z"/>
<path d="M2430 8050 c-11 -7 -7 -10 18 -10 17 0 32 5 32 10 0 13 -30 13 -50 0z"/>
<path d="M2666 8005 c-15 -14 -26 -28 -23 -31 2 -2 26 -7 53 -10 43 -5 52 -3
72 19 26 28 22 34 -34 43 -33 5 -43 2 -68 -21z"/>
<path d="M2435 8010 c-3 -6 1 -13 10 -16 19 -8 30 0 20 15 -8 14 -22 14 -30 1z"/>
<path d="M2470 7930 c0 -5 5 -10 10 -10 6 0 10 5 10 10 0 6 -4 10 -10 10 -5 0
-10 -4 -10 -10z"/>
<path d="M3180 7562 c-33 -17 -52 -42 -31 -42 17 0 82 48 73 54 -5 3 -24 -3
-42 -12z"/>
<path d="M3341 7377 c-41 -14 -58 -44 -20 -33 13 4 41 10 62 13 21 3 36 11 34
17 -5 16 -37 17 -76 3z"/>
<path d="M3354 7266 c-10 -8 -16 -17 -12 -21 9 -9 78 14 78 26 0 14 -44 11
-66 -5z"/>
<path d="M3355 7201 c-3 -5 -2 -12 3 -15 12 -7 52 4 52 15 0 12 -47 12 -55 0z"/>
<path d="M3360 7140 c0 -5 5 -10 11 -10 5 0 7 5 4 10 -3 6 -8 10 -11 10 -2 0
-4 -4 -4 -10z"/>
<path d="M1468 7423 c-10 -2 -18 -9 -18 -15 0 -6 10 -8 23 -4 12 3 37 6 55 6
17 0 32 5 32 10 0 10 -59 12 -92 3z"/>
<path d="M1793 7422 c-45 -6 -22 -19 44 -25 41 -4 71 -3 78 4 23 23 -35 33
-122 21z"/>
<path d="M1760 7351 c0 -11 86 -25 100 -16 6 4 8 11 5 16 -8 12 -105 12 -105
0z"/>
<path d="M1757 7174 c-4 -4 -7 -11 -7 -16 0 -13 50 -6 53 7 2 12 -36 19 -46 9z"/>
<path d="M1755 7109 c-10 -15 1 -23 20 -15 9 3 13 10 10 16 -8 13 -22 13 -30
-1z"/>
<path d="M2680 6748 c-80 -25 -93 -31 -91 -43 4 -23 176 21 176 45 0 20 -14
20 -85 -2z"/>
<path d="M2455 7050 c19 -21 55 -27 55 -10 0 10 -41 30 -62 30 -6 0 -3 -9 7
-20z"/>
<path d="M2361 6784 c30 -33 77 -57 95 -50 25 9 15 21 -39 49 -69 34 -88 35
-56 1z"/>
<path d="M3705 6530 c-9 -14 20 -65 48 -83 28 -18 47 -7 47 29 0 37 -78 82
-95 54z"/>
<path d="M3872 6444 c-31 -22 -24 -35 27 -50 37 -11 47 -10 67 3 30 19 30 27
-1 47 -31 20 -64 20 -93 0z"/>
<path d="M3731 6336 c-10 -12 -7 -18 13 -32 22 -14 29 -14 42 -3 15 12 14 15
-6 31 -27 22 -34 22 -49 4z"/>
<path d="M4025 5760 c-3 -5 1 -10 9 -10 9 0 16 5 16 10 0 6 -4 10 -9 10 -6 0
-13 -4 -16 -10z"/>
<path d="M3791 5716 c-10 -12 -3 -19 38 -42 57 -32 63 -43 83 -134 12 -54 18
-66 36 -68 19 -3 22 -10 22 -45 0 -51 11 -70 36 -65 15 2 20 14 22 54 4 62
-12 108 -33 100 -16 -6 -24 7 -55 99 -15 43 -25 54 -71 82 -63 37 -63 37 -78
19z"/>
<path d="M4185 5618 c-8 -19 51 -98 73 -98 22 0 12 24 -28 70 -32 37 -40 42
-45 28z"/>
<path d="M4018 5594 c-39 -25 -46 -38 -27 -50 6 -3 30 12 52 35 46 46 33 54
-25 15z"/>
<path d="M3585 5579 c-4 -6 -5 -13 -2 -16 7 -7 27 6 27 18 0 12 -17 12 -25 -2z"/>
<path d="M3551 5516 c-9 -10 -9 -16 -1 -21 17 -10 37 12 24 25 -8 8 -15 6 -23
-4z"/>
<path d="M3537 5443 c-12 -11 -8 -23 8 -23 8 0 15 7 15 15 0 16 -12 20 -23 8z"/>
<path d="M3895 5416 c-12 -18 -17 -46 -17 -91 0 -57 -2 -64 -18 -62 -26 3 -27
-16 -1 -28 30 -14 26 -25 -9 -25 -27 0 -33 7 -62 66 -34 69 -44 77 -142 118
-46 20 -55 14 -34 -22 8 -15 21 -45 28 -67 7 -22 17 -46 23 -53 9 -11 6 -13
-13 -10 -37 5 -35 -20 4 -43 40 -23 47 -34 16 -24 -11 3 -25 3 -30 0 -18 -11
7 -31 56 -45 38 -11 48 -11 60 1 12 13 11 21 -4 61 -10 26 -21 50 -25 54 -14
14 -7 34 13 34 19 0 24 -10 21 -38 -4 -25 20 -80 37 -87 10 -3 21 0 28 9 6 9
24 16 41 16 24 0 31 -6 42 -35 24 -67 -13 -131 -41 -70 -16 36 -56 32 -49 -5
0 -3 8 -25 17 -50 10 -25 20 -91 23 -150 6 -96 8 -105 26 -105 18 0 20 7 21
75 1 41 -2 94 -6 118 -5 26 -4 45 3 49 19 12 35 -29 43 -105 6 -64 4 -77 -10
-87 -9 -7 -16 -17 -16 -23 0 -22 26 -17 53 9 l28 28 -11 128 c-7 75 -22 165
-37 218 -17 59 -27 119 -28 173 -1 45 -5 85 -8 88 -3 3 -13 -6 -22 -20z m-177
-93 c6 -19 -25 -16 -32 3 -4 11 -1 14 11 12 9 -2 18 -9 21 -15z"/>
<path d="M4168 5313 c-38 -10 -8 -36 30 -26 11 2 23 0 26 -6 8 -13 46 -15 46
-2 0 24 -64 45 -102 34z"/>
<path d="M3835 5141 c-7 -13 17 -24 40 -19 9 1 16 8 16 13 0 14 -48 19 -56 6z"/>
<path d="M4095 5140 c-3 -5 7 -12 22 -15 15 -4 39 -11 52 -16 34 -14 54 7 27
27 -22 16 -92 19 -101 4z"/>
<path d="M3665 5101 c-8 -14 27 -30 80 -37 37 -6 45 -4 45 9 0 11 -12 18 -37
22 -21 3 -48 8 -60 11 -12 2 -24 0 -28 -5z"/>
<path d="M4099 5070 c-10 -7 -4 -13 23 -25 21 -8 44 -15 53 -15 26 0 16 29
-12 36 -16 3 -33 7 -39 9 -6 2 -17 -1 -25 -5z"/>
<path d="M4100 4935 c0 -18 48 -31 62 -17 8 8 4 14 -16 22 -37 14 -46 13 -46
-5z"/>
<path d="M4122 4828 c5 -15 57 -18 61 -3 1 6 -13 11 -32 13 -24 3 -32 0 -29
-10z"/>
<path d="M3770 4806 c0 -18 31 -29 44 -16 8 8 7 14 -4 20 -22 14 -40 12 -40
-4z"/>
<path d="M3785 4757 c-10 -8 -14 -16 -9 -20 16 -9 64 5 64 19 0 18 -31 18 -55
1z"/>
<path d="M4137 4743 c-14 -13 -6 -23 18 -23 16 0 25 6 25 15 0 15 -31 21 -43
8z"/>
<path d="M3995 4674 c-6 -41 -3 -188 10 -434 3 -52 8 -221 11 -375 6 -276 12
-327 38 -306 14 12 14 48 1 481 -13 406 -14 476 -15 545 -1 90 -9 135 -25 135
-7 0 -16 -19 -20 -46z"/>
<path d="M3782 4699 c6 -18 70 -40 83 -28 14 13 -4 26 -49 35 -31 5 -38 4 -34
-7z"/>
<path d="M3414 4669 c-9 -16 6 -26 49 -34 30 -6 37 -4 37 9 0 29 -70 50 -86
25z"/>
<path d="M4144 4649 c-8 -14 5 -29 27 -29 10 0 19 6 19 14 0 16 -37 28 -46 15z"/>
<path d="M3902 4624 c-5 -10 -7 -35 -4 -57 5 -39 4 -40 -21 -33 -21 5 -27 3
-27 -10 0 -9 9 -18 20 -21 11 -3 23 -16 26 -29 7 -26 -3 -47 -17 -39 -14 9
-29 -4 -23 -19 3 -8 14 -16 25 -19 26 -7 26 -47 0 -47 -20 0 -37 -17 -27 -27
3 -3 16 -6 28 -7 18 -1 23 -7 23 -26 0 -21 -5 -25 -30 -25 -19 -1 -30 -6 -30
-15 0 -9 13 -17 30 -20 21 -4 31 -12 33 -27 3 -18 -2 -22 -33 -25 -45 -4 -46
-22 -1 -26 l34 -3 7 -72 c9 -86 8 -1028 -1 -1139 -6 -68 -5 -78 10 -78 9 0 21
12 26 26 8 19 15 24 28 19 26 -11 37 -11 40 0 2 6 -10 14 -27 20 -24 7 -31 14
-29 30 2 16 9 19 36 17 24 -2 32 1 32 12 0 12 -10 16 -35 16 -31 0 -35 3 -35
25 0 23 4 25 40 25 46 0 54 17 13 26 -50 10 -53 13 -53 44 0 29 2 30 45 30 71
0 58 20 -20 32 -20 3 -20 11 -21 413 0 226 -4 482 -8 570 -4 88 -11 229 -14
314 -7 152 -16 187 -40 145z"/>
<path d="M3822 4618 c5 -15 58 -24 58 -10 0 11 -24 22 -47 22 -8 0 -13 -6 -11
-12z"/>
<path d="M3407 4593 c-12 -12 -7 -20 20 -32 35 -16 56 2 27 24 -21 16 -37 19
-47 8z"/>
<path d="M4146 4571 c-3 -4 3 -16 13 -25 21 -19 37 -7 27 19 -6 16 -32 20 -40
6z"/>
<path d="M3420 4505 c0 -8 7 -15 15 -15 8 0 15 7 15 15 0 8 -7 15 -15 15 -8 0
-15 -7 -15 -15z"/>
<path d="M3531 4466 c-6 -7 -23 -64 -37 -127 -72 -314 -75 -353 -44 -525 18
-94 19 -119 9 -183 -13 -90 5 -279 28 -288 30 -12 34 13 20 116 -9 64 -11 118
-6 144 14 70 10 147 -12 257 -27 139 -23 182 50 500 11 47 20 93 20 103 1 20
-12 22 -28 3z"/>
<path d="M3400 4296 c0 -21 20 -30 33 -17 9 9 8 14 -3 21 -21 14 -30 12 -30
-4z"/>
<path d="M3377 4243 c-10 -10 13 -33 34 -33 24 0 35 20 18 31 -17 10 -43 12
-52 2z"/>
<path d="M3365 4171 c-7 -13 17 -24 40 -19 9 1 16 8 16 13 0 14 -48 19 -56 6z"/>
<path d="M3324 4158 c-4 -6 -8 -26 -8 -42 -1 -23 -6 -31 -25 -36 -32 -7 -38
-28 -9 -32 32 -4 39 -48 8 -48 -25 0 -60 -17 -60 -30 0 -5 17 -10 38 -12 29
-2 37 -7 37 -23 0 -14 -6 -19 -20 -18 -23 2 -55 -14 -55 -27 0 -5 17 -10 38
-12 29 -2 38 -8 40 -24 3 -19 -2 -21 -35 -20 -28 1 -38 -3 -41 -16 -3 -15 4
-18 37 -18 51 0 54 -18 4 -22 -52 -4 -52 -31 0 -38 46 -6 49 -22 7 -34 -40
-12 -37 -40 5 -41 23 0 31 -5 33 -22 3 -20 -1 -23 -27 -23 -16 0 -33 -5 -37
-11 -9 -15 16 -30 38 -23 13 4 21 -2 28 -21 16 -43 12 -63 -12 -67 -13 -2 -24
-11 -26 -20 -3 -14 3 -18 26 -18 27 0 42 -14 42 -41 0 -5 -13 -9 -29 -9 -35 0
-51 -18 -24 -26 36 -11 68 -33 71 -49 3 -13 -3 -14 -37 -9 -33 5 -41 4 -41 -9
0 -10 18 -22 49 -32 38 -12 51 -22 56 -42 8 -33 5 -35 -32 -21 -30 11 -63 6
-63 -10 0 -13 84 -32 95 -21 10 10 65 -137 65 -174 0 -28 25 -14 28 16 3 23 7
26 37 24 49 -3 47 15 -4 34 -53 19 -52 16 -111 253 -42 172 -62 293 -49 302 4
2 14 1 23 -2 18 -7 49 14 40 27 -3 5 -21 9 -40 9 -32 0 -42 8 -27 23 3 4 12 2
19 -4 17 -14 67 -3 61 14 -2 7 -21 12 -46 11 -32 -1 -41 2 -36 13 3 8 5 20 5
27 0 9 9 12 24 9 26 -5 44 13 28 29 -7 7 -16 6 -30 -1 -26 -14 -32 7 -32 121
0 96 5 119 25 111 8 -2 19 -2 25 2 16 10 -7 35 -25 29 -11 -4 -15 7 -17 47 -3
51 -18 73 -34 47z"/>
<path d="M3386 4111 c-9 -14 5 -42 18 -38 15 5 14 39 -1 44 -6 2 -14 0 -17 -6z"/>
<path d="M3847 4094 c-11 -12 3 -24 29 -24 16 0 24 5 22 13 -5 13 -40 22 -51
11z"/>
<path d="M3860 4015 c0 -10 7 -15 18 -13 21 4 19 22 -2 26 -10 2 -16 -3 -16
-13z"/>
<path d="M3375 3960 c-3 -5 -4 -14 0 -20 8 -13 35 -1 35 16 0 16 -26 19 -35 4z"/>
<path d="M3855 3901 c-3 -5 -1 -12 5 -16 12 -7 30 2 30 16 0 12 -27 12 -35 0z"/>
<path d="M3377 3864 c-4 -4 -7 -11 -7 -16 0 -13 50 -6 53 7 2 12 -36 19 -46 9z"/>
<path d="M3867 3834 c-8 -8 1 -24 14 -24 5 0 9 7 9 15 0 15 -12 20 -23 9z"/>
<path d="M3377 3614 c-9 -10 2 -24 19 -24 8 0 14 7 14 15 0 15 -21 21 -33 9z"/>
<path d="M3385 3539 c-9 -28 8 -45 25 -25 13 17 7 46 -9 46 -5 0 -13 -9 -16
-21z"/>
<path d="M4207 3533 c-12 -11 -8 -21 12 -26 24 -6 46 7 37 22 -8 12 -39 15
-49 4z"/>
<path d="M4222 3458 c7 -20 48 -23 48 -4 0 11 -9 16 -26 16 -16 0 -24 -5 -22
-12z"/>
<path d="M3420 3405 c0 -8 7 -15 15 -15 8 0 15 7 15 15 0 8 -7 15 -15 15 -8 0
-15 -7 -15 -15z"/>
<path d="M3990 3395 c0 -8 9 -15 20 -15 11 0 20 7 20 15 0 8 -9 15 -20 15 -11
0 -20 -7 -20 -15z"/>
<path d="M3986 3331 c-9 -14 22 -34 40 -27 13 5 14 9 4 21 -14 17 -36 20 -44
6z"/>
<path d="M3454 3305 c-14 -10 -16 -17 -8 -25 13 -13 44 -3 44 15 0 21 -15 26
-36 10z"/>
<path d="M3980 3252 c0 -12 24 -22 52 -22 11 0 18 5 16 13 -5 14 -68 23 -68 9z"/>
<path d="M3472 3188 c5 -15 57 -18 61 -3 1 6 -13 11 -32 13 -24 3 -32 0 -29
-10z"/>
<path d="M3343 3135 c-7 -20 -5 -21 35 -30 25 -5 32 -3 32 9 0 15 -29 36 -50
36 -6 0 -13 -7 -17 -15z"/>
<path d="M3377 3053 c-12 -11 -8 -22 14 -34 31 -16 52 7 25 27 -22 16 -30 17
-39 7z"/>
<path d="M3660 2866 c0 -8 5 -18 10 -21 6 -4 8 -15 5 -25 -6 -17 17 -50 35
-50 18 0 22 23 6 32 -12 7 -16 17 -12 34 5 17 1 26 -13 34 -26 13 -31 13 -31
-4z"/>
<path d="M3960 2850 c0 -10 32 -30 49 -30 17 0 13 27 -5 34 -23 9 -44 7 -44
-4z"/>
<path d="M3800 2803 c0 -4 10 -17 21 -30 17 -17 19 -25 10 -36 -14 -18 0 -30
49 -44 40 -12 164 -12 176 0 14 14 -4 18 -99 18 -98 0 -119 8 -96 35 10 12 8
19 -11 39 -22 23 -50 33 -50 18z"/>
<path d="M3947 2764 c-11 -12 3 -24 29 -24 16 0 24 5 22 13 -5 13 -40 22 -51
11z"/>
<path d="M2370 6181 c-7 -14 -7 -22 0 -26 13 -8 40 13 40 31 0 21 -28 17 -40
-5z"/>
<path d="M2443 6193 c-18 -6 -16 -33 1 -33 19 0 31 19 20 30 -5 4 -15 5 -21 3z"/>
<path d="M2490 6155 c-9 -11 -10 -19 -2 -27 14 -14 32 -1 32 23 0 23 -13 25
-30 4z"/>
<path d="M2551 6146 c-7 -9 -8 -17 -2 -20 13 -9 43 4 38 17 -5 17 -23 19 -36
3z"/>
<path d="M3145 5530 c-7 -12 2 -30 16 -30 12 0 12 27 0 35 -5 3 -12 1 -16 -5z"/>
<path d="M3255 4700 c3 -5 8 -10 11 -10 2 0 4 5 4 10 0 6 -5 10 -11 10 -5 0
-7 -4 -4 -10z"/>
<path d="M1030 3625 c-17 -21 -8 -142 13 -162 27 -27 39 -6 31 51 -4 28 -8 66
-8 85 -1 38 -16 50 -36 26z"/>
<path d="M1210 3459 c-7 -11 -9 -33 -5 -47 9 -39 57 -142 65 -142 4 0 33 -23
64 -50 66 -57 112 -84 132 -76 22 9 16 32 -12 45 -14 6 -59 41 -99 77 -67 60
-74 70 -96 139 -13 41 -27 75 -31 75 -4 0 -12 -9 -18 -21z"/>
<path d="M827 3382 c-17 -19 -23 -52 -9 -52 12 1 62 48 62 60 0 17 -36 11 -53
-8z"/>
<path d="M1064 3365 c-13 -34 21 -92 101 -172 90 -91 158 -130 248 -142 29 -4
62 -14 74 -21 18 -12 25 -12 35 -2 11 11 8 18 -15 38 -15 13 -36 24 -45 24
-112 0 -286 120 -347 240 -26 51 -41 62 -51 35z"/>
<path d="M836 3274 c-23 -23 -6 -40 24 -24 21 11 23 31 3 37 -6 2 -18 -4 -27
-13z"/>
<path d="M1025 3260 c-24 -27 -6 -50 19 -25 9 9 16 20 16 25 0 19 -18 19 -35
0z"/>
<path d="M1061 3206 c-27 -29 -23 -68 5 -45 23 19 37 50 27 60 -6 6 -19 -1
-32 -15z"/>
<path d="M844 3176 c-9 -22 2 -46 21 -46 12 0 15 8 13 27 -3 30 -25 42 -34 19z"/>
<path d="M1121 3144 c-23 -30 -28 -64 -8 -64 16 0 49 72 38 83 -5 5 -18 -4
-30 -19z"/>
<path d="M1494 3125 c-8 -19 3 -35 25 -35 25 0 32 10 20 31 -12 23 -37 25 -45
4z"/>
<path d="M1185 3096 c-19 -45 -19 -76 -1 -76 15 0 20 10 31 67 9 45 -12 52
-30 9z"/>
<path d="M877 3074 c-8 -8 1 -24 14 -24 5 0 9 7 9 15 0 15 -12 20 -23 9z"/>
<path d="M1240 3054 c-13 -32 -13 -54 0 -54 13 0 30 34 30 59 0 29 -19 26 -30
-5z"/>
<path d="M1134 2905 c-8 -20 3 -48 16 -40 13 8 13 55 0 55 -6 0 -13 -7 -16
-15z"/>
<path d="M1194 2866 c-3 -14 -3 -30 1 -36 11 -17 35 8 35 36 0 32 -28 31 -36
0z"/>
<path d="M1342 2877 c-16 -19 -25 -64 -13 -71 11 -7 41 43 41 69 0 18 -14 20
-28 2z"/>
<path d="M1270 2854 c-13 -33 -13 -41 1 -50 15 -9 29 14 29 49 0 34 -17 35
-30 1z"/>
<path d="M1390 2844 c-12 -30 0 -53 17 -32 17 20 19 50 6 55 -7 3 -18 -8 -23
-23z"/>
<path d="M1234 2696 c-6 -17 2 -36 17 -36 12 0 12 37 -1 45 -6 3 -13 -1 -16
-9z"/>
<path d="M1030 6780 c0 -5 7 -10 15 -10 8 0 15 5 15 10 0 6 -7 10 -15 10 -8 0
-15 -4 -15 -10z"/>
<path d="M1203 6532 c-31 -24 -35 -66 -7 -68 29 -2 84 22 84 36 0 22 -21 50
-38 50 -9 0 -27 -8 -39 -18z"/>
<path d="M1382 6534 c-41 -29 -24 -64 33 -64 35 0 51 62 19 74 -22 9 -27 8
-52 -10z"/>
<path d="M1140 6430 c0 -5 5 -10 10 -10 6 0 10 5 10 10 0 6 -4 10 -10 10 -5 0
-10 -4 -10 -10z"/>
<path d="M1322 6398 c-18 -18 -15 -36 8 -43 26 -8 62 12 58 33 -4 21 -48 28
-66 10z"/>
<path d="M1375 6341 c-2 -4 -21 -8 -41 -9 -55 -2 -65 -19 -29 -48 50 -40 101
-26 107 30 2 21 -2 29 -14 31 -10 2 -20 0 -23 -4z"/>
<path d="M764 6169 c-3 -6 3 -20 14 -32 19 -19 22 -19 28 -4 13 35 -23 66 -42
36z"/>
<path d="M1507 6071 c-26 -27 -57 -58 -70 -68 -12 -10 -38 -43 -56 -73 -19
-30 -44 -67 -56 -82 -12 -15 -26 -43 -30 -64 -3 -21 -20 -64 -36 -97 -17 -32
-27 -62 -24 -65 9 -10 28 19 82 122 25 50 57 108 70 129 13 21 22 41 19 45 -8
14 27 58 97 122 62 58 79 80 59 80 -5 0 -30 -22 -55 -49z"/>
<path d="M801 6031 c-8 -5 -10 -14 -7 -20 9 -13 33 -15 40 -2 9 14 -18 31 -33
22z"/>
<path d="M4228 5999 c-22 -12 -23 -45 -3 -53 18 -7 58 30 52 47 -5 16 -28 19
-49 6z"/>
<path d="M1355 5708 c-27 -76 -38 -114 -51 -178 -18 -95 -18 -100 6 -71 11 13
20 37 20 55 0 17 11 67 25 110 14 43 25 83 25 87 0 14 -20 11 -25 -3z"/>
<path d="M1406 5665 c-3 -9 -4 -21 0 -26 3 -5 -2 -16 -10 -25 -22 -22 -20 -90
3 -120 11 -14 22 -21 24 -17 11 18 12 196 1 200 -6 2 -14 -4 -18 -12z"/>
<path d="M1186 5555 c-25 -51 -26 -169 -4 -192 26 -25 46 -4 30 32 -16 34 -14
111 2 158 18 50 -5 52 -28 2z"/>
<path d="M1115 5295 c-32 -74 -32 -87 3 -83 28 3 32 -8 17 -44 -12 -30 12 -20
33 14 25 38 14 71 -21 66 -15 -2 -21 2 -18 12 26 105 22 115 -14 35z"/>
<path d="M1031 5294 c-24 -31 -27 -72 -7 -100 13 -17 16 -17 29 -4 8 8 17 41
19 73 5 65 -7 74 -41 31z"/>
<path d="M4486 4291 c-37 -41 22 -81 69 -47 17 12 18 18 7 40 -14 32 -51 35
-76 7z"/>
<path d="M4487 3072 c-16 -17 -16 -20 -2 -32 23 -19 70 -1 70 25 0 28 -45 32
-68 7z"/>
<path d="M4492 2958 c-19 -19 -14 -30 11 -26 12 2 22 9 22 17 0 19 -18 24 -33
9z"/>
<path d="M3387 2744 c-12 -13 -7 -50 12 -95 27 -61 36 -182 33 -404 -3 -201 0
-235 22 -235 10 0 14 26 15 118 1 64 2 149 3 187 4 121 -14 286 -37 360 -22
67 -33 83 -48 69z"/>
<path d="M3670 2590 c0 -5 5 -10 10 -10 6 0 10 5 10 10 0 6 -4 10 -10 10 -5 0
-10 -4 -10 -10z"/>
<path d="M4877 2574 c-11 -12 -8 -41 6 -52 7 -6 21 -6 35 -1 33 12 27 53 -8
57 -14 2 -29 0 -33 -4z"/>
<path d="M761 2551 c-16 -11 -2 -43 18 -39 9 2 17 10 19 19 3 19 -19 31 -37
20z"/>
<path d="M3990 2534 c-13 -34 -13 -124 0 -124 14 0 17 12 24 88 6 65 -6 84
-24 36z"/>
<path d="M4514 2454 c-13 -19 -14 -28 -5 -37 15 -15 45 3 49 30 5 32 -25 36
-44 7z"/>
<path d="M178 2439 c-10 -6 -18 -14 -18 -19 0 -14 37 -12 46 1 10 17 -9 29
-28 18z"/>
<path d="M1238 2404 c-29 -15 -35 -28 -19 -38 14 -9 83 24 78 37 -5 17 -28 17
-59 1z"/>
<path d="M4587 2404 c-14 -14 -7 -35 11 -32 9 2 17 10 17 17 0 16 -18 25 -28
15z"/>
<path d="M213 2343 c-13 -5 -19 -33 -7 -33 3 0 14 5 25 10 34 19 19 38 -18 23z"/>
<path d="M964 2329 c-9 -16 18 -30 33 -17 7 6 10 14 7 19 -7 13 -31 11 -40 -2z"/>
<path d="M224 2279 c-9 -16 21 -43 40 -36 9 4 16 16 16 27 0 15 -7 20 -24 20
-14 0 -28 -5 -32 -11z"/>
<path d="M3647 2130 c-9 -69 -56 -312 -61 -317 -2 -3 -7 26 -11 64 -9 97 -9
96 -22 101 -10 3 -13 -21 -13 -97 0 -102 7 -120 38 -89 9 9 11 -3 10 -53 -3
-91 22 -249 39 -249 24 0 26 30 9 115 -9 46 -16 104 -16 128 0 43 31 273 44
327 4 14 3 45 -2 70 l-9 45 -6 -45z"/>
<path d="M100 2150 c-12 -8 -12 -10 2 -15 19 -7 38 1 38 16 0 12 -21 11 -40
-1z"/>
<path d="M3533 1708 c-4 -7 -8 -51 -8 -98 0 -47 -4 -93 -9 -102 -16 -33 23
-20 40 14 13 25 15 47 9 115 -7 80 -15 97 -32 71z"/>
<path d="M4627 1544 c-13 -13 -7 -62 9 -78 20 -21 47 -20 74 2 20 16 21 23 13
48 -8 25 -15 29 -49 32 -22 2 -43 0 -47 -4z"/>
<path d="M3557 1339 c-17 -23 -13 -44 8 -53 19 -7 37 18 33 45 -4 31 -23 34
-41 8z"/>
<path d="M3273 1308 c-27 -13 -35 -43 -16 -59 12 -10 20 -9 41 3 15 9 28 23
30 32 5 21 -28 36 -55 24z"/>
<path d="M453 1123 c-18 -6 -16 -33 1 -33 19 0 31 19 20 30 -5 4 -15 5 -21 3z"/>
<path d="M4491 1069 c-49 -10 -94 -59 -95 -103 -1 -40 -11 -47 -21 -16 -13 40
-80 38 -173 -5 -41 -19 -56 -32 -68 -61 -9 -20 -13 -46 -10 -58 3 -12 1 -28
-4 -36 -9 -13 -13 -12 -28 6 -24 30 -55 44 -96 44 -41 0 -66 -21 -59 -50 6
-24 -5 -25 -36 -4 -15 11 -46 17 -90 18 -57 1 -73 -3 -107 -25 -23 -15 -48
-42 -57 -60 -14 -30 -21 -34 -54 -35 -50 -1 -153 -30 -172 -48 -12 -13 -18
-13 -43 0 -32 17 -29 34 7 34 27 0 42 17 27 32 -13 13 -119 -19 -126 -39 -7
-18 10 -43 29 -43 7 0 17 -6 23 -13 8 -10 2 -20 -24 -41 -40 -32 -50 -30 -33
6 24 54 -36 101 -91 73 -28 -15 -50 -42 -50 -64 0 -5 8 -17 17 -26 27 -28 5
-50 -50 -50 -32 0 -56 -8 -76 -23 -25 -18 -34 -20 -55 -11 -49 23 -120 -28
-114 -82 2 -16 -3 -24 -17 -27 -33 -6 -40 -20 -21 -41 17 -18 16 -19 -13 -26
-37 -8 -51 -1 -51 28 0 78 -42 127 -108 127 -36 0 -80 -33 -84 -63 -2 -18 -8
-21 -35 -19 -45 5 -77 -27 -63 -64 12 -31 5 -43 -12 -26 -7 7 -11 28 -10 47 6
68 -53 91 -119 45 -22 -15 -28 -16 -44 -4 -27 20 -69 17 -112 -8 -31 -19 -54
-23 -119 -24 -91 0 -130 -17 -136 -56 -5 -35 -46 -32 -95 8 -46 37 -66 43 -61
17 7 -36 129 -91 147 -66 3 4 15 8 26 8 12 0 25 11 33 27 11 24 19 28 53 28
39 0 39 0 39 -38 0 -59 45 -86 72 -42 12 18 13 18 31 2 17 -15 21 -15 45 -1
28 16 32 38 17 92 -5 21 -4 27 8 27 16 0 27 -29 27 -72 0 -39 40 -64 83 -51
31 9 32 10 32 69 0 76 19 88 23 14 2 -37 8 -59 19 -67 24 -18 98 -16 113 2 12
14 16 13 37 -7 27 -25 43 -20 77 25 l20 27 -22 45 c-28 57 -28 72 0 81 31 10
58 -27 58 -80 0 -57 19 -80 63 -80 29 0 37 -4 42 -23 4 -16 13 -23 29 -23 29
0 48 21 36 39 -13 22 30 81 60 81 14 0 34 2 45 5 15 4 26 -4 42 -30 21 -34 14
-60 -10 -36 -6 6 -21 11 -33 11 -26 0 -84 -45 -84 -65 0 -30 24 -65 55 -80 43
-20 75 -19 105 4 20 16 25 28 25 68 l0 48 45 8 c25 4 68 11 95 15 28 4 55 11
61 15 6 3 22 -2 35 -13 29 -26 62 -34 86 -22 28 15 133 11 133 -5 0 -7 14 -20
31 -29 26 -13 37 -14 58 -4 31 14 37 13 33 -5 -10 -49 56 -103 103 -85 15 6
51 10 80 10 44 0 57 4 69 22 l15 21 31 -33 c29 -31 33 -33 89 -27 88 8 171 56
157 92 -8 23 -53 19 -61 -5 -8 -25 -55 -50 -95 -50 -23 0 -33 6 -42 26 -23 50
-120 75 -133 34 -6 -19 -8 -18 -29 12 -44 66 -114 36 -100 -42 4 -20 3 -31 -2
-27 -5 5 -13 34 -19 65 -8 43 -15 59 -33 68 -37 18 -92 71 -92 87 0 9 -20 32
-45 53 l-46 37 -35 -16 c-19 -9 -40 -28 -46 -42 -6 -14 -18 -25 -25 -25 -20 0
-7 61 15 75 31 20 62 58 62 78 0 30 68 117 91 117 4 0 16 -15 27 -33 13 -24
17 -39 10 -50 -5 -11 -5 -24 2 -37 10 -18 7 -22 -19 -31 -39 -14 -45 -34 -17
-56 12 -10 35 -38 51 -61 47 -71 101 -89 160 -52 l32 20 25 -48 c24 -47 24
-47 80 -50 40 -2 60 1 71 13 10 9 35 15 69 16 29 0 62 4 73 8 12 5 30 3 48 -6
19 -10 45 -12 92 -7 63 7 78 17 55 40 -8 8 -6 15 4 23 13 11 20 8 40 -16 28
-33 98 -63 104 -44 3 8 8 9 17 1 9 -7 16 -6 25 5 11 14 14 13 27 -5 17 -24 53
-26 92 -5 20 10 34 30 47 66 13 36 27 55 47 66 16 8 31 12 34 9 3 -3 -6 -10
-21 -16 -30 -11 -30 -33 0 -38 34 -4 81 33 88 70 3 19 12 43 20 53 12 16 16
17 29 6 9 -7 19 -26 22 -42 4 -16 16 -36 28 -44 19 -13 23 -13 36 -1 12 13 12
21 -3 60 -20 52 -27 58 -75 65 -31 5 -34 10 -38 43 -2 23 3 51 13 70 19 36 15
76 -15 142 -14 33 -26 46 -41 46 -13 0 -24 9 -30 24 -5 14 -17 29 -27 35 -46
27 -47 28 -29 47 15 14 15 19 3 31 -18 19 -72 0 -63 -22 4 -12 -3 -15 -29 -15
-39 0 -48 17 -12 22 14 2 23 11 25 26 3 21 -5 27 -35 23 -7 -1 -22 3 -34 10
-20 10 -21 9 -15 -15 6 -23 3 -26 -18 -26 -14 0 -37 -5 -51 -12 -34 -15 -48
-1 -32 32 7 14 28 30 47 36 33 11 51 37 33 46 -4 3 -23 1 -42 -3z m-153 -154
c4 -34 -18 -55 -57 -55 -14 -1 -43 -7 -64 -14 -43 -16 -49 -11 -39 30 9 35 80
75 127 71 25 -2 31 -7 33 -32z m172 -16 c0 -23 -28 -26 -37 -3 -6 16 15 37 29
28 4 -3 8 -14 8 -25z m198 -33 c45 -28 89 -94 98 -147 5 -33 5 -33 -11 -14 -9
11 -25 31 -37 44 -11 14 -21 34 -22 45 -1 14 -8 21 -20 21 -11 0 -21 6 -24 13
-2 6 -9 12 -17 12 -7 0 -19 10 -27 22 -15 22 -16 22 -42 5 -34 -23 -54 -12
-29 15 23 26 74 20 131 -16z m-283 -7 c4 -6 5 -12 2 -15 -7 -7 -37 7 -37 17 0
13 27 11 35 -2z m-89 -50 l19 -21 -31 6 c-22 5 -35 2 -44 -9 -12 -14 -10 -20
16 -40 16 -13 26 -27 21 -31 -4 -4 -13 -2 -19 4 -16 16 -43 15 -58 -2 -9 -12
-8 -17 8 -27 20 -12 20 -13 -2 -31 -21 -18 -21 -18 -2 -33 11 -8 26 -15 32
-15 13 0 34 -58 34 -94 0 -12 -5 -16 -16 -12 -9 3 -18 6 -20 6 -3 0 0 9 6 21
8 15 8 24 0 34 -18 21 -49 28 -66 14 -13 -10 -12 -14 2 -30 16 -17 15 -20 -7
-38 -16 -13 -21 -23 -14 -29 13 -13 86 -33 97 -26 4 3 8 -4 8 -15 0 -25 0 -25
-45 -4 -33 16 -37 16 -52 0 -16 -15 -15 -18 3 -38 14 -16 15 -23 7 -26 -7 -3
-13 -11 -13 -18 0 -14 30 -24 70 -25 l25 -1 -24 -13 c-47 -26 -103 16 -169
125 -28 46 -28 57 1 61 19 3 22 8 19 43 -10 151 -1 193 55 239 30 26 73 41
124 45 9 0 24 -9 35 -20z m308 -21 c50 -25 69 -43 104 -95 40 -60 42 -67 42
-136 0 -87 -17 -115 -70 -119 -40 -2 -60 7 -60 27 0 9 11 13 29 13 15 -1 33 2
40 6 18 11 13 26 -9 26 -13 0 -20 7 -20 19 0 10 -8 22 -17 25 -12 5 -14 9 -5
18 17 17 15 28 -4 28 -11 0 -14 6 -9 20 5 15 0 21 -22 26 -54 11 -55 12 -41
34 11 18 10 23 -4 34 -12 9 -14 16 -7 23 15 15 3 33 -21 33 -25 0 -35 17 -20
35 17 21 25 19 94 -17z m-604 -44 c0 -17 4 -22 15 -18 18 7 18 5 4 -51 -8 -31
-8 -53 -1 -74 9 -26 7 -33 -14 -56 -35 -38 -30 -69 25 -151 27 -40 47 -75 44
-78 -14 -13 -39 -4 -68 24 -37 36 -56 33 -84 -16 -29 -49 -71 -41 -71 14 0 67
-52 82 -110 32 -42 -35 -53 -37 -81 -8 -18 20 -20 31 -15 78 7 59 35 98 89
126 31 16 34 41 12 83 -18 35 -37 43 -82 35 l-35 -7 21 41 c12 23 31 47 43 53
30 16 119 4 164 -23 37 -22 37 -22 16 -36 -30 -20 -28 -28 18 -57 50 -31 65
-31 86 0 15 22 15 32 4 68 -6 23 -16 47 -22 54 -5 7 -6 18 -2 24 10 17 44 -26
44 -57z m434 47 c9 -10 21 -31 25 -47 5 -16 12 -37 16 -46 5 -14 2 -18 -13
-18 -30 0 -46 -24 -27 -40 12 -10 21 -10 41 -1 14 6 30 9 35 6 17 -11 9 -20
-17 -21 -32 -2 -38 -9 -30 -30 4 -11 14 -15 31 -12 16 4 25 1 25 -7 0 -8 -8
-11 -18 -8 -21 5 -47 -21 -37 -37 3 -5 20 -10 36 -10 38 0 34 -24 -4 -28 -27
-3 -36 -25 -17 -37 6 -3 10 -20 10 -36 0 -36 40 -57 77 -40 13 6 25 6 28 1 10
-16 -17 -23 -89 -25 -39 -1 -84 -5 -99 -10 -38 -10 -47 2 -11 16 l29 11 -30
24 c-23 18 -27 26 -17 36 19 19 14 36 -15 52 -25 14 -26 15 -7 16 12 0 27 7
34 15 11 13 8 17 -19 26 -23 8 -29 14 -22 23 12 14 -4 36 -26 36 -16 0 -17 50
-1 85 9 19 9 28 0 37 -16 16 -15 28 2 28 22 0 29 19 14 37 -11 14 -10 15 7 10
11 -4 27 -2 35 3 22 14 35 12 54 -9z m-736 -180 c5 -31 -10 -43 -42 -35 -32 8
-34 28 -4 48 28 20 42 16 46 -13z m-505 -12 c3 -13 0 -22 -9 -26 -20 -7 -38
11 -31 31 9 23 34 20 40 -5z m170 -51 c7 -21 -4 -38 -23 -38 -23 0 -34 16 -26
35 7 18 43 20 49 3z m-167 -59 c10 -17 -13 -36 -27 -22 -12 12 -4 33 11 33 5
0 12 -5 16 -11z m-138 -46 c-4 -33 -24 -41 -33 -14 -8 25 1 41 21 41 11 0 14
-8 12 -27z m227 -3 c3 -5 1 -10 -4 -10 -6 0 -11 5 -11 10 0 6 2 10 4 10 3 0 8
-4 11 -10z m1284 -3 c6 -8 8 -16 5 -20 -10 -9 -34 4 -34 19 0 18 14 18 29 1z
m-1651 -43 c-14 -29 -32 -26 -36 6 -4 26 17 44 35 29 9 -8 9 -16 1 -35z m247
16 c18 -7 19 -8 3 -15 -21 -8 -48 0 -48 15 0 12 17 12 45 0z m1112 -36 c-3 -3
-12 -4 -19 -1 -8 3 -5 6 6 6 11 1 17 -2 13 -5z m-1195 -16 c27 -22 32 -55 9
-68 -41 -21 -85 28 -55 61 20 22 25 23 46 7z m135 -14 c8 -21 -13 -42 -28 -27
-13 13 -5 43 11 43 6 0 13 -7 17 -16z m278 6 c4 -6 -1 -22 -9 -35 -20 -30 -61
-33 -76 -6 -17 32 -12 40 28 44 20 2 40 4 44 5 4 1 10 -3 13 -8z m1061 -47
c-10 -10 -19 5 -10 18 6 11 8 11 12 0 2 -7 1 -15 -2 -18z m-1206 -3 c0 -5 -4
-10 -10 -10 -5 0 -10 5 -10 10 0 6 5 10 10 10 6 0 10 -4 10 -10z m-1073 -22
c-3 -8 -6 -5 -6 6 -1 11 2 17 5 13 3 -3 4 -12 1 -19z m1273 2 c0 -5 -7 -10
-16 -10 -8 0 -12 5 -9 10 3 6 10 10 16 10 5 0 9 -4 9 -10z m-610 -70 c6 -11
18 -20 26 -20 23 0 11 -24 -14 -28 -23 -4 -58 40 -47 58 10 16 23 12 35 -10z"/>
<path d="M4636 1061 c-8 -12 21 -34 34 -26 17 11 11 35 -9 35 -11 0 -22 -4
-25 -9z"/>
<path d="M3518 569 c-10 -5 -18 -20 -18 -32 0 -13 -5 -28 -11 -34 -14 -14 -3
-33 20 -33 29 0 53 34 49 71 -3 36 -14 43 -40 28z"/>
<path d="M4804 362 c-12 -9 -27 -27 -34 -40 -10 -20 -9 -27 6 -43 20 -23 72
-25 100 -5 18 14 18 17 4 58 -17 49 -42 59 -76 30z"/>
<path d="M4671 256 c-43 -30 -55 -60 -36 -95 30 -59 100 -61 144 -5 39 50 22
99 -41 113 -30 7 -42 5 -67 -13z m77 -49 c2 -10 -4 -27 -14 -38 -16 -18 -18
-18 -36 -3 -21 20 -23 35 -6 52 18 18 52 11 56 -11z"/>
</g>
</svg>
