<?xml version="1.0" standalone="no"?>
<!DOCTYPE svg PUBLIC "-//W3C//DTD SVG 20010904//EN"
 "http://www.w3.org/TR/2001/REC-SVG-20010904/DTD/svg10.dtd">
<svg version="1.0" xmlns="http://www.w3.org/2000/svg"
 width="500.000000pt" height="878.000000pt" viewBox="0 0 500.000000 878.000000"
 preserveAspectRatio="xMidYMid meet">
<metadata>
Created by potrace 1.15, written by Peter Selinger 2001-2017
</metadata>
<g transform="translate(0.000000,878.000000) scale(0.100000,-0.100000)"
fill="#000000" stroke="none">
<path d="M936 8743 c-9 -60 -7 -152 5 -176 6 -12 23 -34 37 -49 23 -25 24 -30
13 -55 -7 -14 -15 -63 -18 -108 -5 -69 -3 -86 16 -122 11 -23 36 -54 55 -68
19 -14 37 -37 40 -50 4 -14 17 -40 30 -59 13 -19 26 -54 30 -77 5 -28 17 -52
40 -75 29 -29 41 -34 79 -34 49 0 67 12 93 62 10 20 13 42 9 68 -5 32 -3 40
14 49 11 7 27 23 34 37 l14 26 22 -30 c23 -33 77 -57 104 -46 31 12 77 108 90
189 8 54 17 80 29 86 10 5 25 23 33 39 24 46 36 41 49 -20 7 -36 42 -70 71
-70 13 0 31 -10 39 -21 19 -27 44 -19 57 20 7 19 22 33 48 43 42 17 75 71 73
122 0 19 6 35 19 44 30 21 58 93 65 170 4 37 11 73 17 80 5 6 28 12 51 12 32
0 48 6 65 24 l23 25 -156 0 -157 1 12 -22 c16 -30 15 -128 -1 -138 -7 -5 -32
-11 -55 -14 -37 -6 -42 -10 -51 -45 -9 -31 -7 -47 7 -82 22 -55 23 -84 3 -142
-14 -42 -34 -63 -34 -38 0 5 -8 12 -18 16 -54 16 -48 235 5 235 12 0 14 3 6 8
-6 4 -15 23 -20 42 -8 31 -13 35 -47 38 -42 4 -65 -16 -66 -55 0 -25 -15 -39
-25 -23 -4 6 -10 8 -15 5 -30 -18 -20 130 12 183 l20 32 -101 0 -101 0 12 -26
c10 -20 9 -30 -5 -54 -25 -42 -22 -86 9 -117 18 -18 32 -24 51 -20 19 4 32 -2
49 -22 31 -35 30 -42 -5 -30 -31 11 -55 4 -85 -27 -23 -23 -20 -37 19 -80 23
-25 33 -44 29 -54 -4 -8 -7 -26 -6 -40 7 -112 -6 -170 -39 -170 -16 0 -18 8
-15 75 4 83 -17 135 -53 135 -11 0 -23 5 -26 10 -10 17 -44 11 -57 -10 -29
-45 -38 -7 -13 53 8 20 19 38 25 42 16 10 13 105 -3 105 -7 0 -23 11 -35 25
-12 14 -27 25 -33 25 -6 0 -29 -20 -51 -45 -22 -25 -44 -42 -49 -40 -11 7 -1
119 11 123 5 2 7 14 4 27 -3 12 -1 26 5 29 7 4 11 -1 11 -13 0 -25 1 -25 46
-6 38 16 43 39 12 59 -13 8 -21 6 -36 -7 -25 -23 -35 -22 -22 2 20 39 13 51
-33 51 -39 0 -44 -3 -57 -32 l-13 -33 -4 33 c-4 29 -7 32 -40 32 -26 0 -36 -5
-40 -20 -3 -11 -9 -20 -13 -20 -9 0 -7 -84 3 -91 5 -3 4 -21 0 -40 -7 -24 -15
-34 -29 -34 -16 0 -19 8 -21 55 -1 30 3 63 9 73 8 15 7 18 -2 12 -9 -6 -11 2
-8 29 4 35 3 36 -28 36 -29 0 -32 -3 -38 -37z m184 -173 c0 -11 -4 -20 -10
-20 -5 0 -10 9 -10 20 0 11 5 20 10 20 6 0 10 -9 10 -20z m930 -29 c-6 -12
-17 -21 -25 -21 -20 0 -19 5 8 41 16 22 23 27 25 15 2 -8 -2 -24 -8 -35z
m-900 -57 c0 -17 55 -65 76 -66 10 -1 29 2 42 6 23 8 23 8 7 -29 -8 -21 -15
-53 -15 -71 0 -37 -15 -46 -25 -14 -10 31 -60 53 -88 39 -38 -20 -56 -50 -50
-86 5 -30 3 -33 -20 -33 -23 0 -25 4 -29 48 -3 26 -2 51 0 56 3 5 7 27 9 50 3
23 6 48 7 56 3 19 32 83 42 93 9 8 43 -30 44 -49z m830 27 c0 -11 -26 -22 -34
-14 -12 12 -5 23 14 23 11 0 20 -4 20 -9z m-1 -106 l0 -20 -9 20 c-5 11 -9 27
-9 35 -1 13 0 13 9 0 5 -8 9 -24 9 -35z m-12 -47 c-3 -8 -6 -5 -6 6 -1 11 2
17 5 13 3 -3 4 -12 1 -19z m-637 -139 c74 -7 80 -7 80 9 0 8 3 12 7 9 3 -4 -2
-25 -12 -47 -17 -37 -21 -40 -46 -35 -45 10 -64 -30 -64 -134 -1 -93 -9 -106
-56 -81 -21 12 -21 16 -14 89 4 42 7 88 7 103 -1 15 3 30 8 33 6 4 10 18 10
33 0 15 3 37 6 49 l6 22 26 -25 c15 -13 34 -25 42 -25z"/>
<path d="M2700 8758 c0 -52 21 -98 50 -113 35 -18 34 -14 14 -54 -9 -19 -14
-46 -11 -64 4 -31 -15 -85 -36 -99 -6 -3 -18 -1 -28 5 -13 8 -23 7 -43 -6 -27
-18 -120 -23 -144 -9 -10 7 -9 17 3 51 8 24 16 63 17 86 3 42 4 43 41 48 45 6
52 11 44 32 -6 13 -35 14 -228 10 -122 -3 -225 -7 -228 -10 -11 -12 17 -40 45
-45 29 -5 29 -5 32 -89 2 -46 -1 -88 -5 -92 -5 -5 -23 -5 -40 0 -40 12 -64 -9
-42 -35 12 -15 35 -16 196 -11 101 4 197 4 213 0 l30 -5 0 -109 c0 -101 2
-112 26 -149 14 -21 36 -46 49 -54 15 -10 24 -28 28 -55 3 -22 15 -54 26 -70
26 -36 49 -32 85 17 23 32 25 32 31 12 4 -14 1 -28 -9 -39 -13 -15 -15 -50
-14 -252 1 -129 1 -279 -1 -334 -6 -202 -5 -283 7 -415 12 -136 15 -217 29
-720 8 -293 7 -393 -4 -615 -4 -77 -7 -156 -6 -175 0 -19 3 -278 6 -575 4
-432 8 -560 21 -640 9 -55 19 -116 22 -135 5 -28 -2 -50 -32 -109 -46 -92 -55
-156 -25 -190 22 -26 27 -51 12 -66 -22 -24 -94 -264 -98 -330 -6 -75 -23
-115 -51 -115 -11 0 -33 -28 -61 -76 -37 -65 -54 -82 -111 -119 -55 -35 -73
-42 -108 -39 -23 1 -45 5 -50 8 -14 9 -50 -22 -54 -46 -2 -16 -18 -28 -58 -44
-30 -12 -68 -34 -85 -49 -16 -15 -75 -51 -129 -79 -114 -59 -140 -89 -130
-149 5 -34 2 -41 -26 -65 -74 -63 -80 -71 -80 -105 0 -25 -6 -39 -23 -50 -22
-14 -25 -13 -56 14 -47 40 -71 38 -103 -8 l-15 -23 -19 35 c-10 19 -26 38 -36
41 -10 3 -22 23 -28 45 -23 83 -103 86 -127 4 -6 -22 -14 -52 -17 -67 -9 -42
-25 -34 -24 12 0 50 -24 89 -62 97 -24 4 -31 12 -36 39 -7 38 -18 50 -57 59
-34 9 -35 -1 -1 -28 25 -19 25 -21 9 -33 -23 -17 -12 -48 15 -41 24 6 26 -11
4 -27 -18 -14 -9 -46 13 -46 8 0 17 9 20 20 3 12 14 20 25 20 18 0 20 -5 14
-31 -3 -17 -6 -36 -6 -41 0 -7 -4 -7 -12 0 -22 17 -73 19 -73 2 0 -8 8 -15 17
-15 23 0 45 -22 32 -34 -16 -16 -83 -30 -90 -19 -3 5 3 12 15 15 12 3 21 12
21 19 0 16 -14 18 -40 4 -15 -8 -17 -6 -13 10 4 15 0 20 -15 20 -14 0 -24 10
-31 32 -6 17 -10 32 -9 32 2 1 12 7 23 14 11 6 30 17 43 22 27 11 26 37 -1 54
-15 9 -22 6 -38 -16 -12 -16 -25 -28 -31 -28 -6 0 -24 -14 -40 -31 -36 -37
-45 -33 -21 9 13 22 15 34 7 42 -7 7 -22 -5 -51 -39 -35 -44 -41 -58 -46 -117
-7 -69 -1 -91 35 -131 l20 -21 -41 -26 c-25 -16 -41 -34 -41 -46 0 -10 -5 -22
-10 -25 -22 -14 -205 -13 -239 1 -18 8 -48 14 -66 14 -17 0 -35 3 -39 7 -16
16 -103 43 -139 43 -20 0 -54 -9 -74 -20 -23 -12 -57 -20 -87 -20 -46 0 -52 3
-90 45 -23 25 -49 45 -57 45 -8 0 -34 -12 -57 -27 -30 -20 -42 -34 -42 -51 0
-23 1 -23 50 13 l50 37 21 -37 c12 -19 34 -42 50 -50 41 -22 121 -19 174 6 52
25 64 24 225 -19 103 -27 126 -29 218 -25 60 4 102 2 102 -4 0 -5 -15 -23 -33
-41 -34 -33 -79 -42 -116 -23 -19 11 -142 -2 -199 -20 -24 -8 -37 -8 -46 1 -8
6 -17 7 -20 2 -3 -5 -32 -7 -63 -5 -176 13 -258 0 -359 -57 -38 -22 -54 -38
-54 -52 0 -16 3 -18 14 -9 7 6 47 28 87 48 84 41 157 49 244 26 66 -17 82 -16
103 5 15 15 34 18 105 17 47 0 94 2 104 6 10 4 35 -2 56 -13 28 -14 42 -16 52
-8 8 6 33 8 66 4 47 -5 70 -1 174 36 66 23 149 45 185 49 36 4 74 12 85 18 94
54 155 68 265 62 14 -1 48 12 76 28 27 17 66 35 85 42 40 13 83 53 98 92 7 19
19 28 45 33 39 7 43 12 56 57 8 26 7 29 -9 24 -23 -7 -34 17 -18 38 7 9 31 25
55 38 42 21 43 21 57 3 12 -17 10 -21 -21 -37 -19 -9 -34 -23 -35 -30 0 -6 -2
-30 -4 -53 -4 -56 5 -68 38 -53 15 7 27 20 27 31 0 22 13 23 30 3 15 -18 33
-19 63 -2 40 22 57 40 57 59 0 26 -27 34 -48 15 -11 -11 -22 -13 -32 -7 -8 5
-21 5 -32 -1 -13 -7 -18 -6 -18 5 0 7 7 16 15 20 10 4 15 19 15 49 0 40 3 46
29 56 15 7 37 29 48 49 10 21 28 38 39 40 17 2 19 -2 17 -35 -4 -46 25 -90 52
-80 14 6 16 18 13 69 -2 43 1 63 10 65 8 3 12 -6 12 -25 0 -33 13 -47 51 -57
21 -5 30 -2 43 16 20 29 21 58 1 64 -8 3 -23 8 -32 12 -10 3 -25 5 -33 4 -26
-4 46 37 97 54 26 9 57 22 68 29 11 7 35 16 53 19 19 4 45 16 59 27 34 27 51
25 65 -5 12 -26 23 -31 33 -15 3 6 15 10 26 10 10 0 19 5 19 10 0 6 12 15 26
20 25 10 25 11 10 35 -9 13 -16 35 -16 47 0 39 -15 54 -42 41 -13 -6 -43 -16
-68 -23 -65 -17 -150 -76 -150 -103 0 -17 -2 -19 -9 -8 -14 22 -75 2 -79 -27
-4 -26 -11 -28 -27 -5 -11 15 -17 15 -40 5 -15 -7 -29 -21 -32 -32 -4 -15 -8
-17 -23 -8 -14 9 -24 8 -44 -5 -29 -19 -51 -22 -41 -6 4 6 -2 13 -13 16 -20 5
-19 7 13 40 30 31 46 38 107 48 40 7 96 19 125 27 86 24 217 142 260 235 l27
58 5 -65 c10 -114 83 -200 169 -200 21 0 31 -6 35 -20 3 -11 17 -24 31 -30 14
-5 26 -11 26 -14 0 -5 -77 -42 -105 -50 -17 -5 -20 -1 -22 34 -2 61 -34 89
-63 55 -7 -8 -8 -15 -2 -15 5 0 9 -14 7 -31 -2 -28 -8 -34 -46 -49 -24 -9 -63
-28 -86 -43 -24 -15 -47 -27 -52 -27 -27 0 -249 -209 -276 -260 -21 -41 -22
-76 -1 -99 19 -21 19 -22 -3 -62 -21 -37 -22 -41 -7 -64 9 -13 16 -31 16 -40
0 -30 30 -75 50 -75 11 0 20 -6 20 -14 0 -8 23 -38 50 -66 54 -56 61 -70 31
-70 -21 0 -45 -30 -79 -95 -33 -64 -74 -102 -118 -109 -34 -6 -104 -55 -104
-72 0 -14 53 -93 65 -98 8 -3 15 -18 15 -33 0 -16 6 -37 14 -48 7 -11 19 -38
26 -60 7 -22 20 -51 29 -65 10 -14 25 -52 36 -85 35 -115 42 -130 70 -144 l29
-14 -44 -37 c-39 -34 -45 -43 -45 -80 0 -36 6 -46 43 -80 46 -43 50 -56 27
-100 -8 -16 -17 -53 -19 -82 -3 -29 -15 -87 -27 -128 -11 -41 -28 -100 -36
-130 -8 -30 -32 -84 -53 -120 -76 -128 -110 -199 -104 -214 10 -26 67 -55 140
-70 38 -8 83 -20 99 -27 27 -11 52 -17 150 -35 56 -11 130 -7 190 9 33 10 80
19 105 22 83 9 115 17 133 32 24 22 21 39 -12 82 -15 20 -43 63 -62 96 -18 33
-38 63 -45 67 -6 4 -15 25 -19 45 -4 21 -13 49 -20 63 -25 48 -68 222 -86 345
-5 39 -12 82 -14 96 -3 17 1 32 11 40 8 7 22 26 31 42 12 25 13 37 3 74 -7 24
-20 48 -29 53 -15 8 -14 13 2 57 10 26 31 91 47 142 16 52 36 109 44 125 25
52 61 150 62 171 3 30 11 61 23 84 16 28 14 38 -11 63 -19 19 -19 21 -2 13 10
-4 62 -9 114 -10 76 -2 108 -8 160 -30 36 -14 106 -37 155 -50 155 -41 239
-67 270 -83 17 -8 42 -21 58 -29 15 -8 32 -11 37 -8 10 6 14 -1 24 -45 7 -34
93 -123 111 -116 11 4 15 -2 15 -20 0 -16 19 -47 53 -85 28 -33 52 -67 53 -77
2 -29 15 -62 25 -62 5 0 9 -9 9 -19 0 -11 10 -28 23 -38 13 -10 27 -30 30 -44
8 -33 71 -97 103 -105 24 -6 84 12 84 26 0 4 11 19 25 34 30 33 32 56 5 63
-23 6 -22 0 -24 163 l-1 125 -42 65 c-24 36 -43 71 -43 78 0 7 -8 31 -19 55
-26 57 -47 185 -34 198 6 6 28 12 49 15 21 2 51 7 67 10 15 3 76 7 135 9 93 3
116 7 160 29 28 14 57 26 64 26 22 1 68 48 84 86 9 21 15 66 15 107 -1 40 0
80 0 90 0 10 -5 43 -11 73 -10 48 -9 58 4 73 24 27 20 75 -10 111 -26 30 -110
80 -136 80 -6 0 -21 8 -32 19 -21 18 -95 58 -149 80 -15 6 -32 21 -38 34 -6
14 -26 32 -45 40 -19 9 -34 20 -34 24 0 5 21 16 48 25 32 12 53 27 65 47 10
17 26 35 36 41 10 5 35 31 55 58 l37 49 33 -31 c70 -66 97 -86 123 -92 16 -4
38 -13 51 -20 15 -10 28 -12 40 -6 9 5 22 8 28 5 6 -2 17 3 24 12 18 22 27 19
35 -12 16 -68 56 -93 76 -49 10 21 14 22 39 13 35 -13 60 -3 60 24 0 15 -5 19
-15 15 -10 -3 -20 5 -31 25 -13 27 -20 30 -45 25 -31 -6 -35 1 -41 69 -4 38
-46 50 -55 15 -3 -12 -15 -26 -27 -31 -11 -6 -32 -16 -46 -25 -31 -18 -64 -10
-106 24 -60 49 -100 70 -118 60 -14 -8 -16 -4 -12 37 2 25 10 53 18 63 8 9 25
60 37 112 13 52 29 104 36 115 27 45 32 102 19 265 -8 111 -23 199 -39 231 -8
15 -15 37 -15 49 0 12 -7 20 -17 20 -14 0 -15 2 -1 18 53 60 -99 270 -252 347
-36 18 -78 40 -95 48 -58 32 -126 58 -143 55 -9 -1 -28 5 -42 15 -13 9 -36 17
-51 17 -15 0 -32 7 -39 15 -18 21 -44 27 -74 16 l-26 -11 20 -32 c11 -18 20
-41 20 -51 0 -56 -63 -107 -150 -122 -47 -8 -114 -37 -125 -55 -9 -14 -25 -12
-25 3 0 19 -40 53 -72 61 -15 3 -39 16 -54 29 -22 19 -25 27 -16 43 6 10 16
34 22 52 10 25 17 31 31 27 18 -6 24 3 20 33 -3 21 16 13 22 -9 7 -26 53 -23
51 4 -1 12 6 17 27 17 31 0 37 11 17 27 -20 16 -107 24 -129 13 -16 -9 -22 -5
-39 22 -11 18 -23 44 -26 58 -3 14 -9 32 -14 41 -5 9 -14 44 -21 79 -10 52
-10 63 2 71 11 6 11 11 1 21 -14 14 -16 74 -2 83 6 4 10 -5 10 -19 0 -36 16
-32 29 6 10 28 12 30 24 14 7 -9 28 -18 47 -20 19 -2 42 -5 50 -9 33 -12 65
-16 74 -8 6 5 30 11 52 15 37 5 42 3 47 -15 3 -13 11 -19 19 -17 10 4 14 -14
16 -75 1 -56 6 -84 16 -89 8 -4 11 -17 9 -33 -4 -17 0 -27 11 -31 17 -7 23
-59 7 -69 -5 -3 -12 -19 -16 -36 -6 -25 -9 -28 -22 -18 -12 11 -20 7 -46 -22
-47 -51 -136 -81 -177 -59 -29 16 -45 2 -24 -21 12 -14 31 -19 67 -19 48 0 75
13 129 62 29 27 53 35 69 25 14 -9 14 -12 -3 -29 -22 -22 -17 -71 8 -98 12
-12 16 -12 30 2 20 20 27 98 9 104 -14 6 -17 54 -4 54 5 0 9 14 9 30 0 32 9
37 27 19 8 -8 19 -7 41 3 24 13 32 13 47 2 26 -19 59 9 45 37 -18 33 -12 87
11 103 19 13 20 19 11 43 -6 15 -10 42 -9 58 1 17 -2 45 -7 62 -7 29 -5 32 9
26 14 -5 16 -2 11 13 -3 10 -10 43 -16 73 -5 30 -21 74 -35 99 -14 24 -25 53
-25 64 0 11 -10 22 -25 28 -14 5 -30 21 -37 35 -9 21 -8 27 13 44 13 11 20 21
14 22 -14 2 -49 6 -140 14 -45 4 -87 14 -97 22 -14 13 -20 12 -47 -2 -18 -9
-35 -13 -40 -11 -15 10 -18 66 -4 77 16 14 17 123 3 231 -5 40 -15 199 -21
353 -12 291 -13 313 -11 535 1 74 -1 155 -4 180 -3 25 -6 230 -8 455 -3 402
-4 411 -26 468 l-24 59 33 59 c28 52 34 73 41 167 9 116 24 172 46 172 18 0
18 -10 -2 -77 -19 -66 -13 -111 21 -143 31 -29 31 -38 2 -78 -36 -48 -61 -132
-53 -175 8 -45 45 -89 91 -111 33 -16 35 -19 30 -54 -7 -48 28 -111 72 -132
22 -10 36 -26 44 -50 25 -77 88 -104 136 -58 35 33 39 14 10 -45 -29 -55 -36
-131 -17 -167 6 -11 28 -24 50 -30 47 -13 51 -33 20 -101 -30 -68 -26 -119 13
-171 26 -33 42 -45 75 -52 37 -8 45 -6 67 14 13 12 33 52 45 89 26 84 28 87
72 105 43 18 50 35 48 118 0 35 2 82 6 105 4 26 0 61 -9 93 -15 49 -14 52 5
68 48 40 65 117 47 216 -8 50 -8 71 0 79 20 20 12 74 -15 107 -23 27 -25 34
-15 56 19 42 13 96 -19 153 l-30 53 20 26 c36 45 23 114 -31 173 -22 23 -39
49 -39 58 0 11 8 6 25 -14 13 -16 24 -33 25 -37 0 -4 14 -14 30 -23 23 -12 35
-13 50 -5 24 13 26 9 34 -74 5 -41 15 -72 35 -101 26 -39 28 -48 24 -116 -4
-68 -2 -79 29 -139 33 -65 82 -110 120 -110 10 0 30 11 43 24 23 23 23 23 29
2 3 -11 6 -29 6 -39 0 -66 89 -147 161 -147 51 0 102 35 128 88 20 40 21 59
21 286 0 234 -1 245 -25 317 -33 95 -34 128 -6 214 30 90 38 230 16 255 -12
14 -13 23 -5 45 8 21 8 41 -1 75 -10 39 -9 51 5 77 19 37 21 109 3 139 -7 11
-25 37 -42 57 -26 32 -35 37 -74 37 -37 0 -42 -2 -31 -15 7 -8 16 -12 22 -9
12 8 38 -15 38 -34 0 -8 7 -20 15 -26 35 -26 26 -166 -11 -166 -19 0 -18 -24
1 -40 19 -16 19 -89 0 -114 -19 -25 -19 -46 -1 -46 10 0 13 -11 10 -42 -2 -24
-5 -79 -8 -123 -5 -96 -18 -128 -59 -146 -41 -18 -42 -43 -2 -44 29 0 31 -3
43 -60 7 -33 22 -91 35 -130 18 -57 22 -89 20 -178 -2 -97 -1 -111 19 -137 20
-27 20 -33 9 -72 -7 -24 -17 -52 -21 -63 l-9 -20 -2 20 c-5 53 -7 63 -13 74
-5 7 1 11 13 11 26 0 27 12 1 35 -43 39 -98 -11 -66 -60 29 -45 12 -180 -22
-173 -22 4 -60 62 -68 104 -6 34 38 198 57 209 18 12 40 66 34 86 -4 11 -16
26 -29 34 -19 13 -26 13 -59 -2 -36 -17 -49 -44 -26 -58 7 -5 3 -15 -11 -30
-18 -20 -26 -22 -41 -12 -33 21 -43 62 -30 123 15 67 85 202 117 227 31 24 31
47 0 47 -16 0 -31 12 -50 40 -45 68 -35 162 25 253 23 35 29 54 25 72 -7 27
-34 33 -54 13 -33 -33 -44 69 -12 117 32 48 20 127 -21 140 -28 9 -75 -21 -89
-57 -26 -71 -30 -78 -44 -78 -26 0 -39 39 -32 93 7 48 33 115 77 200 l20 37
-49 0 -49 0 -36 -72 c-42 -86 -57 -136 -57 -199 0 -37 7 -54 36 -92 32 -41 41
-47 75 -47 21 0 41 5 44 10 13 21 25 9 25 -25 0 -42 19 -85 37 -85 18 0 17
-40 -3 -61 -20 -23 -38 -136 -30 -193 5 -31 16 -55 37 -75 l30 -30 -39 -58
c-22 -32 -45 -75 -52 -95 -6 -21 -15 -38 -18 -38 -4 1 -25 16 -47 35 l-40 34
-1 134 c0 74 -4 139 -8 145 -11 18 -40 14 -64 -8 -16 -15 -22 -32 -22 -65 0
-115 -65 -28 -77 103 l-6 67 32 -28 c39 -32 46 -33 88 -8 l31 20 16 -25 c20
-30 65 -32 91 -4 17 19 17 21 0 46 -12 18 -17 45 -16 80 1 79 -31 104 -82 64
-24 -19 -25 -25 -20 -70 5 -41 3 -50 -10 -50 -18 0 -58 64 -63 103 -2 15 -6
33 -10 39 -18 29 -2 146 32 238 37 98 55 175 47 197 -3 8 -24 13 -55 13 -48 0
-50 -1 -44 -24 3 -14 2 -27 -4 -31 -5 -3 -7 -12 -3 -21 5 -14 -31 -130 -46
-147 -4 -4 -15 23 -26 59 -23 80 -82 154 -124 154 -30 0 -71 -25 -71 -43 1 -7
20 -24 43 -39 40 -25 44 -33 76 -132 24 -76 32 -116 28 -142 -3 -20 -8 -39
-11 -42 -9 -9 -45 42 -46 64 0 11 -6 29 -14 40 -15 19 -15 19 -53 -1 -45 -24
-51 -47 -29 -112 32 -94 14 -193 -36 -193 -15 0 -19 5 -15 20 3 11 1 20 -4 20
-15 0 -10 84 7 108 8 12 14 32 12 45 -3 19 -9 22 -41 20 -44 -3 -49 15 -14 47
16 16 17 19 5 15 -28 -11 -22 5 18 48 13 14 2 51 -23 79 -12 13 -20 15 -39 6
-34 -16 -38 -6 -23 49 9 32 30 64 62 97 26 28 47 51 47 53 0 2 -15 3 -33 3
-27 0 -43 -10 -88 -57 -63 -65 -89 -114 -89 -166 0 -20 -9 -52 -21 -71 -17
-29 -24 -34 -39 -26 -9 5 -23 23 -30 40 -11 27 -10 38 10 88 28 72 28 99 -2
129 l-25 24 -39 -22 c-48 -28 -50 -32 -58 -80 -3 -22 -11 -39 -16 -39 -13 0
-2 56 21 107 10 24 19 47 19 52 0 5 6 12 13 14 6 3 -10 6 -36 6 -44 1 -49 -2
-68 -34 -12 -19 -25 -35 -30 -35 -4 0 -11 16 -15 35 -6 33 -9 35 -44 35 -44 0
-57 -24 -35 -68 8 -15 16 -35 19 -44 4 -12 15 -18 36 -18 27 0 30 -3 30 -30 0
-23 -6 -33 -25 -40 -19 -7 -25 -17 -25 -40 0 -34 0 -34 -35 -18 -23 10 -33 37
-19 51 12 11 12 70 1 91 -5 12 -13 28 -17 36 -9 17 -57 17 -73 1 -6 -6 -14
-38 -19 -73 -5 -40 -15 -70 -28 -82 -19 -19 -19 -19 -32 10 -15 37 -15 172 1
202 l12 22 -203 0 c-183 -1 -201 -2 -183 -16 11 -8 20 -21 20 -28 0 -8 17 -30
38 -51 35 -34 52 -83 25 -72 -8 3 -13 -5 -14 -22 -1 -14 1 -20 3 -13 7 18 23
4 23 -19 0 -19 -1 -19 -22 -5 -29 20 -52 20 -72 0 -14 -14 -17 -14 -22 0 -3 8
-13 13 -22 10 -9 -3 -7 0 4 7 29 15 48 57 34 74 -6 7 -31 18 -55 24 -48 12
-62 36 -53 86 5 23 2 25 -28 25 -29 0 -34 -4 -34 -22z m438 -155 c1 -26 11
-62 22 -80 17 -29 18 -40 9 -83 -11 -51 -33 -85 -50 -75 -5 4 -9 14 -9 24 0
10 -3 21 -7 25 -18 17 -21 152 -4 169 7 7 7 16 0 29 -12 22 -4 38 19 38 13 0
18 -11 20 -47z m-661 -18 c3 -9 -1 -23 -9 -33 -9 -9 -18 -30 -22 -46 l-7 -30
-30 54 c-16 29 -29 57 -29 62 0 4 20 8 45 8 32 0 47 -5 52 -15z m-123 -80 c20
-42 34 -80 31 -85 -3 -6 -24 -10 -46 -10 -36 0 -39 2 -40 28 -1 15 -3 50 -5
77 -7 99 8 97 60 -10z m1336 50 c0 -8 -4 -15 -10 -15 -5 0 -10 7 -10 15 0 8 5
15 10 15 6 0 10 -7 10 -15z m-121 -19 c6 -8 25 -19 41 -26 33 -14 39 -34 14
-48 -16 -9 -94 -119 -94 -133 0 -14 -82 -132 -105 -151 -11 -9 -28 -15 -37
-12 -9 3 -26 -1 -37 -8 -16 -10 -23 -10 -33 0 -18 18 -40 114 -29 125 5 5 7
17 4 26 -3 9 7 -1 23 -22 28 -36 31 -38 78 -34 41 4 53 10 83 43 51 57 70 123
42 151 -8 8 -4 20 15 45 20 27 23 37 14 46 -8 8 -8 12 -1 12 6 0 16 -6 22 -14z
m-219 -29 c0 -1 -13 -29 -30 -62 -19 -39 -29 -52 -30 -38 0 12 -3 28 -6 37 -4
10 3 19 20 27 14 7 26 18 26 26 0 7 5 13 10 13 6 0 10 -1 10 -3z m560 -30 c0
-1 -9 -20 -20 -42 -24 -48 -25 -73 -4 -104 14 -19 15 -29 5 -63 -10 -33 -15
-37 -27 -28 -7 7 -19 29 -25 50 -9 31 -8 47 6 91 20 59 42 99 56 99 5 0 9 -1
9 -3z m-1048 -34 c15 -18 38 -88 38 -114 0 -8 -9 -25 -19 -38 l-18 -24 -19 21
c-27 32 -47 27 -68 -19 -25 -51 -24 -101 3 -135 23 -30 27 -83 10 -133 -6 -18
-16 -30 -22 -28 -18 6 -30 69 -18 89 17 27 14 33 -29 52 -22 10 -45 26 -51 37
-13 24 -15 120 -4 178 l8 43 46 -6 c43 -5 47 -4 59 21 6 15 12 34 12 43 0 9 3
20 7 23 12 13 50 7 65 -10z m565 -9 c26 -7 35 -37 22 -72 -13 -34 -28 -43 -51
-31 -18 10 -25 60 -12 93 7 18 9 18 41 10z m275 -37 c8 -16 7 -23 -7 -33 -9
-7 -15 -21 -13 -31 2 -12 -7 -23 -27 -33 -30 -15 -33 -26 -22 -72 5 -19 2 -23
-19 -25 -43 -2 -49 -16 -34 -77 13 -53 8 -82 -11 -70 -6 3 -19 -3 -29 -14 -14
-15 -17 -29 -13 -60 3 -22 3 -52 -1 -66 l-6 -25 -37 25 -37 25 -25 -26 -25
-25 43 -44 c33 -33 44 -54 47 -82 2 -20 1 -41 -2 -45 -7 -12 -61 17 -74 40 -5
11 -23 22 -39 26 -20 4 -33 15 -39 35 -6 15 -8 31 -5 34 4 3 1 6 -5 6 -6 0
-18 14 -26 32 -19 37 -19 38 -6 38 6 0 10 -7 10 -15 0 -8 9 -15 19 -15 23 0
38 37 22 53 -17 17 -13 36 7 30 22 -5 47 21 39 41 -3 8 1 20 9 26 8 7 14 19
14 26 0 7 12 20 28 28 44 24 119 102 126 133 4 15 20 48 35 73 15 25 35 62 44
82 19 40 39 42 59 5z m528 -162 c-7 -21 -8 -57 -4 -95 l7 -60 -34 31 c-28 26
-39 30 -67 25 -34 -5 -62 -22 -62 -36 0 -5 13 -13 29 -18 50 -17 78 -94 49
-129 -15 -18 -2 -43 21 -43 19 0 55 -40 81 -89 9 -18 9 -34 0 -69 -13 -53 -26
-65 -52 -49 -13 9 -23 9 -35 1 -24 -15 -30 -30 -44 -112 -10 -59 -17 -77 -37
-90 -30 -20 -39 -8 -47 63 -7 52 9 114 40 158 17 25 20 63 4 72 -21 14 -68
-17 -86 -56 -18 -42 -32 -50 -35 -21 -3 32 2 53 21 95 33 73 35 87 13 87 -11
0 -31 -9 -46 -21 -32 -25 -46 -18 -46 26 0 49 13 75 63 128 31 34 43 54 40 67
-4 14 0 20 11 20 24 0 101 38 130 65 16 15 27 39 31 69 6 39 10 46 25 41 10
-3 22 0 27 7 13 21 16 -28 3 -67z m-1076 50 c-4 -8 -17 -15 -31 -15 -22 0 -24
2 -13 15 7 8 21 15 31 15 12 0 16 -5 13 -15z m576 -51 c0 -8 -4 -12 -10 -9 -5
3 -10 13 -10 21 0 8 5 12 10 9 6 -3 10 -13 10 -21z m-679 -67 c-12 -12 -41 8
-41 29 0 12 5 11 26 -2 17 -11 22 -20 15 -27z m905 16 c4 -16 11 -34 17 -40 7
-10 2 -13 -19 -13 -27 0 -29 3 -30 40 -2 47 22 56 32 13z m-118 -3 c9 0 11 -7
6 -22 -4 -13 -7 -30 -7 -38 0 -8 -8 -27 -18 -42 -34 -47 -21 -79 19 -48 50 40
56 19 12 -42 -25 -34 -30 -51 -30 -96 0 -44 -3 -53 -15 -48 -23 8 -74 -41 -85
-85 -20 -72 -70 -40 -70 45 0 48 41 120 95 170 43 38 46 45 36 64 -6 12 -18
22 -26 22 -19 0 -19 17 -1 51 7 14 16 38 20 53 6 23 11 27 29 22 12 -3 28 -6
35 -6z m-875 -71 c6 -10 3 -25 -13 -49 -12 -19 -19 -27 -16 -17 3 10 1 27 -5
39 -21 39 10 64 34 27z m294 -5 c3 -8 11 -14 19 -14 8 0 14 -4 14 -10 0 -13
-16 -13 -42 1 -18 10 -24 8 -40 -12 l-18 -24 -20 25 c-26 33 -25 34 13 46 38
11 67 7 74 -12z m-216 -34 c28 -16 23 -32 -6 -18 -14 6 -25 15 -25 20 0 11 7
10 31 -2z m219 -104 c0 -6 -9 0 -20 14 -26 33 -25 52 0 21 11 -13 20 -28 20
-35z m-139 -22 c11 -26 18 -49 15 -51 -8 -8 -46 55 -46 76 0 33 9 25 31 -25z
m109 -54 c0 -5 -2 -10 -4 -10 -3 0 -8 5 -11 10 -3 6 -1 10 4 10 6 0 11 -4 11
-10z m-330 -8 c0 -11 -37 -32 -44 -25 -8 9 14 33 30 33 8 0 14 -3 14 -8z m177
-49 c16 -15 17 -40 1 -45 -10 -4 -9 -14 1 -47 12 -40 11 -44 -8 -58 -12 -8
-21 -21 -21 -29 0 -22 47 -65 63 -58 8 3 17 -1 20 -9 4 -10 -2 -17 -15 -20
-17 -5 -20 -11 -15 -36 5 -24 2 -31 -13 -36 -39 -12 -42 -40 -10 -80 16 -21
27 -42 23 -49 -19 -34 -25 -35 -54 -14 -19 14 -25 24 -18 29 15 9 2 29 -19 29
-10 0 -28 -7 -41 -17 -23 -15 -23 -17 -6 -29 17 -13 15 -16 -25 -52 -34 -30
-41 -42 -36 -60 7 -22 36 -31 36 -12 0 16 30 11 37 -6 3 -9 0 -26 -7 -37 -10
-17 -10 -23 6 -34 22 -16 50 -17 60 -1 5 7 10 4 16 -11 8 -22 10 -22 31 -8 22
14 23 22 26 120 1 39 13 33 39 -21 28 -60 30 -106 4 -98 -30 10 -46 -33 -38
-101 8 -68 14 -152 20 -279 4 -95 9 -114 30 -114 7 0 19 -21 26 -47 12 -44 13
-86 8 -238 -1 -33 6 -67 20 -98 19 -43 23 -47 42 -37 16 9 20 8 20 -5 0 -9 -7
-27 -16 -40 -14 -22 -14 -26 4 -52 26 -39 82 -133 82 -139 0 -3 -10 2 -22 10
-29 20 -64 20 -72 0 -11 -27 -7 -42 13 -49 11 -3 36 -19 57 -36 23 -18 44 -27
55 -24 13 4 24 -5 43 -38 32 -53 32 -64 5 -63 -36 2 -45 -27 -21 -62 27 -37
27 -38 1 -45 -20 -5 -20 -6 6 -54 15 -26 33 -55 41 -64 13 -14 12 -18 -1 -29
-18 -15 -27 -8 -32 21 -6 43 -65 132 -100 152 -9 6 -21 3 -34 -9 -25 -23 -24
-27 11 -66 17 -18 30 -37 30 -43 0 -6 5 -16 12 -23 13 -13 39 -84 33 -90 -2
-2 -15 4 -30 14 -26 17 -28 17 -41 -1 -18 -25 -18 -37 4 -56 9 -9 29 -30 45
-47 15 -18 31 -32 37 -32 15 0 29 35 24 57 -7 26 12 39 31 23 23 -19 48 -74
35 -78 -5 -2 -10 -10 -10 -18 0 -8 -7 -14 -16 -14 -19 0 -14 -35 13 -87 16
-30 16 -33 -2 -53 -15 -17 -16 -24 -6 -46 12 -27 7 -44 -13 -44 -6 0 -33 -13
-58 -29 -33 -21 -49 -40 -58 -67 -7 -21 -23 -47 -36 -56 -12 -10 -27 -33 -33
-51 -12 -39 -13 -125 0 -132 5 -3 3 -14 -3 -25 -10 -16 -8 -23 11 -44 19 -21
23 -32 18 -62 -4 -21 -2 -43 3 -49 6 -7 13 -34 16 -61 8 -58 21 -77 46 -71 12
4 24 -3 35 -20 17 -25 16 -26 -19 -57 -61 -52 -95 -76 -110 -76 -7 0 -40 -13
-73 -29 -37 -17 -66 -26 -75 -21 -28 14 -117 -35 -151 -84 -33 -47 -49 -51
-49 -12 0 12 -4 26 -10 32 -25 25 -29 1015 -4 1006 5 -2 8 -13 6 -25 -4 -35 6
-51 22 -37 10 8 14 27 11 61 -4 59 -12 72 -36 66 -15 -4 -19 0 -19 23 0 25 5
31 38 39 20 6 47 11 59 11 47 0 40 57 -9 67 -24 5 -27 8 -14 15 21 12 20 55
-2 67 -9 5 -30 7 -45 4 -16 -3 -27 -1 -27 6 0 6 11 11 25 11 15 0 28 7 32 16
9 24 -11 50 -36 46 -22 -3 -29 20 -12 46 6 10 10 9 14 -7 6 -23 42 -29 50 -8
2 6 0 23 -4 36 -7 19 -14 22 -34 17 -21 -5 -25 -3 -25 14 0 12 6 20 13 19 36
-5 48 2 45 24 -2 16 -11 23 -30 25 -17 2 -28 9 -28 18 0 11 6 13 20 9 16 -5
20 -2 20 19 0 16 -6 26 -15 26 -11 0 -15 12 -16 48 -1 26 -2 61 -3 77 -1 17
-4 107 -6 200 l-4 170 32 3 c23 2 32 8 32 21 0 26 -25 44 -50 36 -11 -4 -20
-2 -20 4 0 6 6 11 13 11 6 1 23 10 36 21 24 20 24 21 7 50 -9 16 -14 35 -10
41 4 7 10 28 14 48 5 30 9 35 37 38 37 4 68 34 59 58 -4 12 -14 15 -34 11 -15
-2 -35 -2 -45 2 -12 5 2 11 45 20 35 8 66 19 70 25 4 6 -2 25 -14 44 -19 31
-19 34 -3 52 27 30 3 53 -49 48 -27 -3 -52 2 -74 14 -18 10 -40 18 -48 18 -14
0 -15 9 -9 55 4 39 2 64 -8 87 -23 51 -27 93 -15 153 9 45 8 58 -5 78 -14 22
-14 24 4 35 13 8 19 24 19 46 0 28 4 35 22 38 22 3 37 39 41 98 2 22 -3 26
-38 31 -27 4 -32 7 -14 8 47 2 63 52 25 73 -16 9 -16 12 -3 26 9 10 19 29 22
45 4 15 11 27 15 27 15 0 17 -59 2 -73 -12 -12 -10 -17 13 -36 33 -25 47 -19
43 19 -1 15 3 34 10 42 24 30 26 74 2 98 -23 23 -20 35 8 35 21 0 28 31 12 50
-7 8 -24 15 -39 15 l-26 1 25 14 c14 7 26 18 26 24 1 6 2 13 3 16 1 6 40 -15
58 -32z m801 -33 c15 0 15 -6 0 -46 -8 -23 -9 -40 -1 -56 9 -21 6 -25 -34 -45
-23 -12 -43 -18 -43 -13 0 6 9 37 21 70 14 41 18 70 14 93 -7 31 -7 32 12 15
11 -10 25 -18 31 -18z m-958 -84 c0 -8 -7 -16 -15 -20 -17 -6 -18 -4 -9 18 8
20 24 21 24 2z m410 -16 c0 -23 4 -24 29 -10 14 7 24 3 42 -16 l24 -25 -25
-19 c-21 -16 -22 -20 -10 -35 9 -11 22 -14 42 -10 15 4 28 3 28 -2 0 -17 -59
-66 -73 -60 -7 3 -32 42 -55 87 -33 64 -40 86 -31 96 16 20 29 17 29 -6z
m-150 -36 c0 -8 -4 -12 -10 -9 -5 3 -10 13 -10 21 0 8 5 12 10 9 6 -3 10 -13
10 -21z m1078 -57 c19 -64 13 -111 -15 -115 -37 -5 -48 30 -33 110 15 76 27
78 48 5z m-778 32 c0 -18 -2 -19 -15 -9 -15 12 -12 30 6 30 5 0 9 -10 9 -21z
m454 -75 c-5 -64 -4 -74 14 -92 l20 -20 -24 -21 c-28 -25 -64 -30 -45 -7 9 11
9 16 0 22 -7 4 -18 -1 -25 -11 -12 -17 -14 -17 -20 -1 -10 26 4 78 28 103 16
17 22 36 22 72 1 44 3 47 19 37 16 -10 17 -20 11 -82z m633 55 c-6 -46 11 -95
42 -123 14 -13 31 -17 61 -14 22 2 40 3 40 3 0 0 -7 -18 -15 -40 -8 -22 -14
-32 -15 -23 0 26 -16 30 -48 14 -30 -15 -37 -13 -65 20 -13 16 -19 45 -23 113
-5 82 -4 91 11 91 15 0 17 -7 12 -41z m-804 -50 c18 -8 30 -8 47 1 12 6 24 9
27 6 3 -3 -6 -11 -21 -17 -15 -7 -29 -23 -32 -36 -4 -15 -14 -23 -28 -23 -36
-1 -63 -34 -81 -97 -8 -29 -20 -29 -39 -1 -34 48 -12 145 46 205 l32 33 12
-30 c7 -17 24 -35 37 -41z m-503 21 c0 -6 10 -21 23 -33 23 -24 47 -69 47 -90
0 -7 -5 -19 -10 -27 -9 -13 -11 -13 -19 0 -5 8 -7 26 -4 42 4 22 -2 34 -36 68
-22 22 -41 43 -41 45 0 3 9 5 20 5 11 0 20 -5 20 -10z m875 -160 c-20 -22 -19
-39 3 -47 35 -13 128 -96 146 -131 22 -43 34 -146 17 -156 -6 -4 -25 4 -42 18
-37 31 -40 31 -70 7 -24 -20 -24 -20 -6 -51 9 -18 17 -36 17 -42 0 -5 16 -28
35 -51 39 -45 45 -82 16 -92 -43 -13 -46 -32 -16 -96 30 -63 29 -83 -8 -101
-9 -4 -24 -11 -33 -15 -15 -8 -53 -102 -54 -135 -1 -49 -51 -17 -74 48 -13 37
-12 46 5 94 10 30 19 66 19 80 0 31 -52 85 -74 77 -40 -16 -41 64 0 148 32 68
38 106 21 130 -13 17 -18 18 -41 7 -15 -7 -35 -12 -46 -12 -10 0 -27 -12 -38
-27 l-21 -28 -10 28 c-6 16 -11 35 -11 42 0 31 35 102 72 148 45 54 47 82 5
82 -15 -1 -27 3 -27 7 0 4 6 8 14 8 8 0 27 13 44 28 17 16 48 34 70 40 22 7
45 19 52 27 11 14 15 14 32 -1 16 -15 17 -19 3 -34z m-685 -51 c0 -17 -5 -29
-13 -29 -7 0 -18 -13 -24 -29 -9 -24 -8 -32 6 -45 12 -13 13 -19 4 -24 -7 -5
-15 -22 -19 -38 -4 -24 0 -38 22 -65 l28 -34 -35 30 c-42 37 -96 75 -106 75
-4 0 -21 -10 -36 -23 -20 -16 -27 -31 -27 -52 3 -101 9 -134 31 -175 33 -62
40 -90 28 -112 -13 -24 -39 -23 -39 1 0 11 -5 23 -10 26 -6 4 -8 15 -5 26 4
12 1 21 -9 25 -9 3 -16 17 -16 30 0 14 -7 41 -15 61 -14 34 -14 42 1 90 10 31
15 69 11 92 -3 29 -2 38 7 35 16 -6 30 12 43 51 l10 30 6 -42 c6 -33 13 -45
39 -57 41 -21 46 -20 60 9 9 21 7 29 -21 60 -33 38 -39 55 -18 55 8 0 22 9 32
21 16 17 17 25 8 49 -8 21 -8 30 1 34 18 7 56 -43 56 -75z m849 29 c18 -32 8
-48 -16 -25 -10 8 -30 20 -46 26 -40 15 -34 33 10 29 28 -2 41 -9 52 -30z
m-460 -95 c12 -39 11 -45 -15 -92 -15 -28 -30 -51 -34 -51 -15 0 -26 172 -14
204 10 26 49 -11 63 -61z m-623 -30 c-10 -10 -19 5 -10 18 6 11 8 11 12 0 2
-7 1 -15 -2 -18z m177 -220 c9 -3 17 -10 17 -17 0 -6 9 -22 20 -36 23 -29 29
-100 7 -82 -7 6 -22 9 -33 6 -16 -4 -24 4 -41 43 -12 26 -24 66 -28 87 l-7 39
24 -17 c13 -9 31 -19 41 -23z m32 -226 c38 -54 40 -57 22 -57 -8 0 -20 -7 -27
-15 -18 -22 -26 -19 -49 21 -24 40 -26 65 -9 82 19 19 31 14 63 -31z m-206
-24 c12 -41 10 -46 -11 -38 -20 8 -42 50 -34 64 14 22 35 10 45 -26z m-319
-42 c0 -12 -20 -25 -27 -18 -7 7 6 27 18 27 5 0 9 -4 9 -9z m94 -37 c4 -11 1
-14 -11 -12 -9 2 -18 9 -21 16 -6 18 25 15 32 -4z m393 -36 c10 5 29 6 43 2
21 -5 26 -14 33 -59 5 -29 6 -55 3 -58 -13 -13 -57 18 -83 59 -15 24 -36 54
-47 68 l-21 25 27 -23 c20 -18 31 -21 45 -14z m-87 -76 c0 -10 5 -23 12 -30 6
-6 9 -14 6 -18 -4 -3 -14 8 -22 25 -19 35 -19 41 -6 41 6 0 10 -8 10 -18z m50
-82 c10 -5 27 -26 39 -46 19 -31 26 -36 51 -32 24 4 27 2 18 -9 -8 -10 -8 -17
0 -25 7 -7 12 -23 12 -36 0 -21 -2 -22 -15 -12 -8 7 -22 10 -30 6 -11 -4 -19
3 -25 19 -5 14 -14 25 -20 25 -6 0 -8 5 -4 12 4 6 0 16 -8 22 -14 10 -48 68
-48 81 0 8 9 6 30 -5z m-67 -112 c4 -16 12 -28 17 -28 6 0 10 -6 10 -14 0 -7
7 -19 16 -26 20 -18 46 -80 39 -98 -10 -27 14 -51 60 -58 25 -3 45 -10 45 -15
0 -5 -5 -9 -12 -9 -6 0 -19 -7 -29 -16 -16 -15 -16 -18 7 -69 23 -50 49 -164
39 -173 -7 -8 -25 9 -25 24 0 9 -16 52 -35 95 -19 44 -35 90 -35 103 0 42 -22
87 -46 96 -13 5 -24 16 -24 24 0 8 -13 38 -28 68 -19 35 -31 76 -35 117 l-5
64 17 -29 c10 -16 21 -41 24 -56z m105 -493 c-3 -3 -9 2 -12 12 -6 14 -5 15 5
6 7 -7 10 -15 7 -18z m-468 -534 c0 -5 -7 -12 -16 -15 -22 -9 -24 -8 -24 9 0
8 9 15 20 15 11 0 20 -4 20 -9z m500 -1035 c0 -3 -4 -8 -10 -11 -5 -3 -10 -1
-10 4 0 6 5 11 10 11 6 0 10 -2 10 -4z m550 -105 c12 -24 13 -41 1 -41 -5 0
-14 14 -20 30 -11 33 2 41 19 11z m-817 -82 c4 -16 11 -19 27 -14 20 6 21 4
15 -29 -6 -28 -4 -37 9 -42 9 -3 16 -16 16 -28 0 -12 19 -45 43 -72 23 -28 58
-71 77 -96 19 -25 58 -61 87 -79 33 -22 52 -41 53 -54 0 -11 4 -25 8 -31 12
-18 53 -36 68 -30 12 4 14 -4 14 -42 -1 -26 1 -63 4 -82 2 -19 -2 -60 -11 -90
-8 -30 -16 -59 -18 -65 -3 -10 -71 -12 -81 -2 -3 3 4 11 16 17 14 8 20 19 18
35 -2 15 6 30 21 42 40 33 19 43 -89 43 -89 0 -100 -2 -114 -21 -20 -29 -10
-47 30 -55 32 -6 32 -7 19 -28 -9 -13 -12 -26 -9 -29 8 -7 -1 -11 -63 -27 -36
-9 -43 -15 -43 -35 0 -31 -16 -41 -29 -18 -7 14 -3 25 14 46 20 26 21 32 9 65
-7 20 -13 49 -14 64 0 19 -10 35 -31 50 -17 13 -42 42 -56 66 -14 24 -34 44
-46 46 -140 27 -197 45 -141 46 18 0 42 8 55 19 l23 18 -50 23 -49 24 50 5
c91 11 98 30 22 66 -60 28 -78 30 -95 13 -17 -17 -15 -38 6 -61 17 -20 17 -20
-11 -2 -15 10 -26 21 -25 24 2 4 12 29 22 57 18 50 20 51 47 41 27 -11 59 2
59 24 0 16 -31 38 -45 33 -24 -10 -17 14 21 76 53 87 75 103 145 109 9 0 19
-8 22 -20z m1036 -59 c10 0 24 7 31 15 18 22 26 19 90 -27 35 -26 67 -60 80
-86 13 -23 38 -56 57 -72 38 -34 40 -40 14 -40 -11 0 -54 -35 -98 -78 -73 -74
-80 -78 -114 -74 -80 9 -159 -61 -209 -183 -50 -125 -50 -125 -123 -125 -34
-1 -105 -7 -158 -14 -84 -11 -102 -17 -138 -46 l-42 -32 7 53 c7 57 14 77 14
41 0 -13 6 -22 15 -22 10 0 15 10 15 29 0 45 28 105 43 92 18 -14 62 10 62 34
0 28 -39 32 -58 5 -14 -20 -15 -18 -20 32 -5 54 4 78 29 78 11 0 12 -4 3 -19
-13 -19 -6 -51 10 -51 5 0 22 10 37 23 25 21 25 24 10 40 -15 15 -14 18 14 38
31 24 38 47 19 66 -8 8 3 21 38 48 52 40 68 60 58 75 -11 18 -34 10 -72 -26
-21 -19 -47 -40 -58 -45 -20 -10 5 14 128 125 60 55 121 125 154 181 17 28 16
11 -3 -33 -8 -20 -27 -47 -42 -59 -20 -16 -24 -24 -16 -33 17 -17 55 11 83 61
21 37 24 39 40 25 16 -14 19 -14 38 4 12 11 25 30 30 42 7 21 8 20 11 -9 2
-24 8 -33 21 -33z m-569 -90 c0 -5 -2 -10 -4 -10 -3 0 -8 5 -11 10 -3 6 -1 10
4 10 6 0 11 -4 11 -10z m-90 -22 c0 -18 -2 -20 -9 -8 -6 8 -7 18 -5 22 9 14
14 9 14 -14z m-104 -135 c45 -42 45 -43 8 -15 -22 17 -47 38 -54 47 -24 29 -3
15 46 -32z m249 -79 c-13 -20 -14 -28 -4 -40 6 -8 7 -14 2 -14 -5 0 -16 12
-24 26 -12 23 -12 27 6 40 30 22 39 17 20 -12z m-61 -60 c9 -23 7 -36 -3 -30
-12 8 -21 46 -11 46 4 0 11 -7 14 -16z m16 -148 c0 -12 -4 -27 -9 -35 -7 -10
-9 -8 -8 10 1 13 -2 38 -6 54 -7 28 -6 29 8 11 8 -11 15 -29 15 -40z m299
-200 c8 -6 37 -10 65 -9 46 2 48 1 20 -7 -43 -14 -59 -34 -39 -50 12 -10 21
-10 41 -1 14 6 34 11 46 11 17 0 19 -2 7 -16 -7 -8 -21 -13 -31 -11 -18 5 -91
-13 -104 -26 -12 -12 -44 -8 -75 10 -24 15 -35 15 -76 5 -67 -17 -104 -10
-115 19 -15 40 -6 63 25 66 16 1 34 6 40 12 27 21 168 19 196 -3z m-979 -16
c0 -5 -5 -10 -11 -10 -5 0 -7 5 -4 10 3 6 8 10 11 10 2 0 4 -4 4 -10z m565
-362 c11 -2 19 -9 18 -16 -2 -6 13 -37 32 -67 32 -50 34 -55 16 -55 -35 0 -44
-33 -30 -111 7 -39 17 -73 22 -76 6 -3 19 5 30 18 14 18 17 33 13 61 -5 31 -3
36 9 32 8 -4 15 -1 15 6 0 7 15 1 34 -14 19 -14 47 -31 62 -36 21 -8 24 -14
16 -22 -17 -17 -15 -26 6 -32 10 -4 26 -22 35 -41 21 -44 21 -45 -2 -45 -24 0
-73 -39 -65 -51 7 -11 63 -2 79 12 13 13 25 11 25 -5 0 -15 -30 -26 -71 -26
-36 0 -79 -36 -79 -65 0 -13 -4 -27 -10 -30 -17 -10 27 -85 50 -85 13 0 20 -7
20 -19 0 -20 -32 -39 -38 -22 -2 6 -19 18 -38 27 -19 9 -34 21 -34 26 0 5 5 6
10 3 6 -4 17 -4 25 -1 11 4 6 14 -20 43 l-34 38 -36 -39 c-36 -40 -44 -73 -23
-94 7 -7 -1 -6 -19 3 -42 21 -45 26 -28 59 17 32 9 53 -29 83 -13 10 -30 32
-39 48 -20 37 -121 145 -136 145 -19 0 -12 -28 9 -35 11 -3 20 -11 20 -16 0
-11 -35 5 -45 21 -9 14 -25 12 -25 -3 0 -7 9 -18 20 -25 21 -13 27 -32 10 -32
-5 0 -25 14 -45 31 -28 25 -38 29 -50 19 -16 -13 -10 -36 19 -69 l21 -24 -23
12 c-68 36 -214 146 -205 155 7 7 -9 12 -59 21 -29 4 -38 2 -42 -12 -7 -21
-76 -46 -90 -33 -5 5 -14 6 -21 4 -7 -3 -29 6 -48 19 -25 17 -45 23 -63 19
-35 -6 -25 12 18 34 33 17 181 30 223 20 13 -3 37 -17 53 -31 27 -22 30 -23
51 -8 15 10 21 22 18 34 -6 23 -3 23 28 3 27 -18 65 -5 65 22 0 14 6 13 36 -5
43 -26 50 -26 102 -1 43 21 51 37 30 59 -11 10 -8 16 11 32 13 10 31 19 40 19
21 1 51 24 51 39 0 6 12 34 26 62 23 46 27 50 42 36 9 -8 26 -17 37 -19z m109
-173 c3 -8 1 -15 -4 -15 -6 0 -10 7 -10 15 0 8 2 15 4 15 2 0 6 -7 10 -15z
m-1498 -50 c2 -19 -8 -32 -37 -53 -24 -17 -39 -35 -39 -49 0 -22 -16 -40 -22
-24 -2 5 -13 5 -25 0 -17 -6 -23 -17 -24 -41 0 -31 -1 -32 -10 -9 -7 18 -6 28
6 41 17 19 20 40 5 40 -17 0 -11 36 9 54 11 10 46 28 78 42 32 13 58 24 58 24
0 0 1 -11 1 -25z m1872 -64 c18 -1 22 -5 17 -20 -8 -25 22 -43 48 -30 10 6 23
8 30 6 7 -3 -1 -8 -16 -12 -32 -9 -31 -25 4 -42 13 -7 34 -24 46 -39 l21 -27
26 28 c14 15 27 24 27 19 1 -5 3 -16 4 -24 7 -51 38 -80 85 -80 10 0 22 -4 25
-10 3 -5 -3 -10 -14 -10 -11 0 -23 -5 -27 -11 -6 -11 -32 -9 -69 7 -17 7 -18
6 -8 -8 11 -12 9 -17 -13 -27 -26 -11 -26 -11 -22 19 6 37 -14 59 -37 40 -19
-16 -32 -5 -16 13 16 20 3 50 -20 44 -14 -4 -19 0 -19 13 0 29 -46 73 -70 67
-15 -4 -20 0 -20 13 0 30 -17 32 -65 11 -43 -19 -45 -19 -55 -2 -6 13 -5 27 3
44 11 24 16 26 62 23 28 -2 60 -4 73 -5z m-1395 -46 c-3 -9 -8 -14 -10 -11 -3
3 -2 9 2 15 9 16 15 13 8 -4z m293 -42 c-10 -10 -19 5 -10 18 6 11 8 11 12 0
2 -7 1 -15 -2 -18z m1261 1 c-3 -3 -12 -4 -19 -1 -8 3 -5 6 6 6 11 1 17 -2 13
-5z m-1410 -34 c-1 -4 3 -8 8 -8 6 0 9 4 8 9 -5 14 13 10 27 -6 17 -21 8 -27
-39 -29 -48 -1 -56 6 -42 33 11 19 43 20 38 1z m1183 6 c0 -3 -4 -8 -10 -11
-5 -3 -10 -1 -10 4 0 6 5 11 10 11 6 0 10 -2 10 -4z m-1430 -26 c0 -5 -4 -10
-9 -10 -6 0 -13 5 -16 10 -3 6 1 10 9 10 9 0 16 -4 16 -10z m1795 -11 c10 -15
4 -18 -27 -12 -15 3 -25 9 -22 14 7 12 41 11 49 -2z m-2855 -45 c0 -36 17 -64
39 -64 10 0 29 -8 42 -19 20 -16 21 -21 10 -35 -19 -22 -54 -20 -77 5 -19 21
-46 117 -38 131 11 17 24 7 24 -18z m1119 -11 c-6 -36 25 -58 134 -95 35 -12
38 -15 33 -43 -8 -40 -1 -48 74 -86 61 -31 74 -33 200 -40 199 -10 233 -24
402 -163 113 -93 175 -160 170 -185 -2 -12 -1 -13 6 -3 6 9 13 6 29 -12 12
-13 51 -38 87 -56 36 -18 66 -37 66 -41 0 -5 3 -8 8 -7 4 1 25 -4 47 -11 l40
-13 -5 -71 c-5 -65 -3 -77 22 -124 32 -60 33 -63 16 -63 -13 0 -58 62 -58 79
0 5 -7 14 -15 21 -9 7 -13 20 -10 27 3 8 -3 22 -12 31 -16 16 -16 16 -11 -5 4
-15 2 -20 -7 -16 -8 2 -16 11 -19 18 -2 7 -18 16 -35 20 -17 4 -31 10 -31 14
0 4 -9 7 -21 8 -12 1 -49 11 -82 23 -34 11 -118 36 -187 56 -69 19 -129 40
-135 45 -5 5 -19 9 -31 9 -13 0 -25 4 -28 9 -5 7 -34 16 -96 27 -8 1 -40 10
-70 19 -30 9 -68 18 -85 21 -16 2 -35 10 -40 17 -16 19 -55 39 -55 27 0 -15
-55 15 -77 42 -12 15 -30 23 -53 24 -40 2 -113 20 -149 37 -37 18 -81 60 -81
77 -1 20 -21 45 -43 53 -26 10 -31 34 -14 61 15 23 15 24 -8 30 -13 3 -30 4
-37 1 -24 -9 -19 36 10 83 34 55 87 112 105 112 8 0 19 11 25 25 11 23 23 34
21 18z m-149 -34 c0 -3 -9 -14 -20 -24 -29 -26 -49 -6 -30 29 11 21 15 23 31
13 11 -7 19 -15 19 -18z m2045 6 c0 -22 -2 -22 -29 -11 -42 17 -44 34 -4 34
28 0 33 -4 33 -23z m-3460 -5 c3 -5 1 -10 -4 -10 -6 0 -11 5 -11 10 0 6 2 10
4 10 3 0 8 -4 11 -10z m60 -11 c0 -8 8 -14 17 -14 29 0 39 -18 26 -46 -14 -31
-64 -35 -72 -6 -2 10 1 17 9 17 19 0 26 27 9 40 -17 15 -19 33 -1 28 6 -3 12
-11 12 -19z m2845 -19 c9 -18 8 -20 -15 -20 -23 0 -24 2 -15 20 6 11 13 20 15
20 2 0 9 -9 15 -20z m-2900 -14 c0 -3 -4 -8 -10 -11 -5 -3 -10 -1 -10 4 0 6 5
11 10 11 6 0 10 -2 10 -4z m2840 0 c0 -2 -7 -7 -16 -10 -8 -3 -12 -2 -9 4 6
10 25 14 25 6z m642 -15 c4 -3 -29 -6 -73 -6 -73 -1 -88 3 -74 17 8 7 138 -2
147 -11z m-362 0 c0 -6 -4 -13 -10 -16 -5 -3 -10 1 -10 9 0 9 5 16 10 16 6 0
10 -4 10 -9z m510 -21 c42 -42 8 -80 -35 -40 -20 19 -22 25 -12 41 15 24 22
24 47 -1z m-3650 -22 c0 -26 -13 -16 -17 13 -2 12 1 18 7 14 5 -3 10 -16 10
-27z m705 14 c0 -18 -20 -15 -23 4 -3 10 1 15 10 12 7 -3 13 -10 13 -16z
m-327 -9 c5 -16 -22 -27 -44 -19 -13 5 -14 9 -4 22 15 17 41 15 48 -3z m2842
-12 c0 -11 -4 -23 -10 -26 -5 -3 -10 -16 -10 -28 0 -24 -14 -13 -24 19 -4 14
-1 28 9 38 22 21 35 20 35 -3z m-1358 -21 c31 -31 30 -37 -2 -20 -19 10 -46
50 -35 50 4 0 20 -13 37 -30z m1188 11 c0 -14 -119 -68 -165 -75 -33 -6 -26
-1 39 28 44 20 84 40 90 46 12 12 36 13 36 1z m429 -2 c86 -15 124 -43 150
-114 29 -78 29 -219 1 -276 -30 -58 -89 -83 -200 -85 -47 0 -119 -5 -160 -10
-41 -4 -87 -7 -102 -6 -15 2 -35 -1 -45 -6 -13 -8 -24 -5 -42 9 -32 26 -85 24
-149 -6 -64 -29 -66 -30 -58 -9 5 12 2 15 -10 10 -21 -8 -56 2 -49 15 3 5 -1
6 -9 3 -21 -8 -154 81 -166 111 -5 14 -16 25 -24 25 -7 0 -16 8 -19 19 -2 10
-33 35 -68 56 -56 32 -59 36 -29 30 69 -14 141 -5 225 30 108 45 209 65 328
65 108 0 152 -13 184 -54 24 -30 38 -32 60 -10 20 20 5 56 -34 80 -15 10 -30
19 -32 21 -8 6 64 62 80 63 9 0 23 7 30 16 13 16 44 32 63 33 5 1 39 -4 75
-10z m-3069 -26 c0 -5 -4 -15 -10 -23 -11 -18 -25 -7 -17 15 6 15 27 21 27 8z
m1680 -8 c16 -19 0 -19 -26 0 -16 12 -16 14 -3 15 9 0 22 -7 29 -15z m-1846
-67 c-12 -19 -24 -5 -24 25 l1 32 13 -25 c8 -14 12 -28 10 -32z m-114 20 c0
-19 -2 -20 -17 -6 -10 9 -25 18 -33 21 -8 3 0 6 18 6 26 1 32 -3 32 -21z
m2315 12 c3 -5 1 -10 -4 -10 -6 0 -11 5 -11 10 0 6 2 10 4 10 3 0 8 -4 11 -10z
m311 -39 c-16 -11 -35 -17 -42 -14 -21 8 -17 11 19 22 49 14 55 13 23 -8z
m-2685 -11 c10 -6 19 -20 19 -30 0 -22 -20 -26 -37 -9 -8 8 -20 5 -42 -12 -34
-25 -35 -39 -3 -55 19 -10 17 -12 -34 -37 -63 -31 -64 -31 -64 -13 0 8 10 18
23 22 31 9 37 22 37 76 0 34 5 50 18 57 22 13 58 14 83 1z m339 0 c0 -5 -7
-10 -15 -10 -8 0 -15 5 -15 10 0 6 7 10 15 10 8 0 15 -4 15 -10z m-120 -50
c-20 -13 -33 -13 -25 0 3 6 14 10 23 10 15 0 15 -2 2 -10z m1557 -422 c41 2
64 -11 46 -29 -5 -5 -54 -14 -110 -20 -102 -12 -102 -12 -131 13 l-30 25 27
11 c15 6 52 8 91 4 36 -4 84 -5 107 -4z m-294 -116 c23 -21 153 -25 222 -7 27
8 54 10 59 5 17 -17 -40 -32 -141 -38 -88 -4 -103 -7 -101 -21 4 -20 70 -26
150 -13 63 10 82 4 72 -21 -7 -18 -40 -26 -129 -30 -46 -1 -60 -6 -60 -17 0
-12 16 -15 82 -15 87 0 103 -6 83 -30 -8 -10 -29 -14 -69 -13 -61 2 -81 -5
-81 -27 0 -17 43 -27 86 -19 33 6 35 5 32 -17 -3 -20 -10 -25 -50 -29 -54 -7
-82 -25 -54 -36 9 -4 32 -4 51 -1 21 4 35 1 38 -7 3 -6 -7 -48 -22 -93 -22
-70 -30 -84 -58 -97 -31 -15 -32 -16 -26 -68 6 -57 -9 -85 -36 -69 -10 7 -11
13 -1 31 7 12 10 34 7 48 -3 14 -1 37 4 51 12 30 -1 41 -54 41 -31 0 -40 5
-57 33 -11 17 -20 38 -20 44 0 12 -47 125 -102 243 -25 55 -25 54 4 61 23 6
23 6 -5 18 -34 13 -28 30 8 23 14 -2 25 0 25 6 0 6 -18 13 -40 17 -45 8 -54
25 -13 25 29 0 21 16 -11 22 -11 1 -21 9 -24 17 -7 20 206 5 231 -17z m-8
-602 c4 -53 9 -68 27 -82 60 -45 60 -44 54 -131 -8 -112 -25 -500 -26 -574 0
-24 -27 -32 -46 -13 -9 9 -102 40 -172 57 -12 3 -29 0 -37 -7 -25 -21 8 -47
89 -71 39 -12 83 -27 97 -35 22 -11 29 -11 47 2 20 14 22 13 28 -10 9 -36 -3
-48 -39 -41 -44 9 -260 77 -269 84 -7 6 35 95 101 213 35 63 70 175 96 313 10
49 24 107 31 129 25 69 19 94 -32 142 -49 46 -52 67 -13 72 13 2 28 8 34 13
19 18 26 3 30 -61z m203 38 c15 -26 15 -28 -8 -53 -28 -30 -40 -32 -33 -5 3
11 1 33 -5 49 -17 50 17 57 46 9z m-38 -258 c0 -5 -5 -10 -11 -10 -5 0 -7 5
-4 10 3 6 8 10 11 10 2 0 4 -4 4 -10z m0 -70 c0 -5 -5 -10 -11 -10 -5 0 -7 5
-4 10 3 6 8 10 11 10 2 0 4 -4 4 -10z m38 -82 c3 -22 -1 -28 -17 -28 -11 0
-23 -4 -26 -10 -13 -20 -25 -9 -25 23 0 41 2 43 37 42 23 0 29 -5 31 -27z m22
-88 c0 -5 -12 -12 -27 -16 -16 -3 -34 -8 -41 -10 -22 -7 -34 6 -21 22 13 16
89 19 89 4z m29 -82 c10 -28 -2 -38 -47 -38 -18 0 -42 -5 -53 -10 -15 -9 -21
-7 -26 6 -13 35 15 53 105 63 7 0 16 -9 21 -21z m29 -111 c3 -23 -2 -27 -40
-37 -56 -15 -61 -19 -48 -35 7 -9 22 -10 53 -5 43 8 57 6 57 -11 0 -5 -15 -9
-32 -9 -38 0 -96 -34 -78 -45 20 -12 129 6 140 23 8 15 11 15 20 2 20 -31 -8
-47 -87 -49 -53 -1 -93 -16 -93 -35 0 -25 18 -28 91 -16 50 9 74 9 82 1 7 -7
3 -13 -14 -19 -32 -12 -187 -34 -197 -28 -4 2 -9 48 -10 101 l-2 96 30 10 c16
6 30 17 30 25 0 17 -22 18 -38 2 -9 -9 -13 -7 -18 5 -11 29 4 50 31 45 13 -3
41 -2 62 2 51 10 57 8 61 -23z m122 -207 c0 -5 -5 -10 -11 -10 -5 0 -7 5 -4
10 3 6 8 10 11 10 2 0 4 -4 4 -10z"/>
<path d="M2886 7185 c-38 -39 1 -105 63 -105 25 0 32 4 27 15 -4 12 0 14 19 9
19 -5 25 -2 25 10 0 9 -8 16 -20 16 -11 0 -38 16 -59 35 -36 33 -40 34 -55 20z"/>
<path d="M2888 7044 c-11 -24 -9 -29 30 -66 37 -35 47 -39 84 -36 34 2 45 8
58 30 13 25 13 29 -2 44 -14 14 -21 15 -46 5 -35 -15 -77 1 -85 30 -7 27 -25
23 -39 -7z"/>
<path d="M2895 6920 c-8 -13 22 -50 42 -50 7 0 22 -5 33 -12 27 -17 74 1 78
30 4 26 -2 28 -85 37 -40 4 -64 2 -68 -5z"/>
<path d="M2979 6529 c-9 -17 -8 -23 2 -30 19 -12 25 -11 39 6 15 18 6 45 -14
45 -9 0 -20 -10 -27 -21z"/>
<path d="M2922 6233 c3 -31 30 -42 54 -22 13 10 12 14 -2 30 -10 11 -26 19
-36 19 -15 0 -19 -6 -16 -27z"/>
<path d="M2937 6063 c-3 -4 -8 -26 -11 -49 -6 -31 -3 -44 8 -54 22 -18 52 5
35 27 -9 11 -8 17 7 28 15 11 17 17 8 32 -12 20 -39 29 -47 16z"/>
<path d="M2942 5889 c1 -12 9 -24 16 -27 9 -3 13 3 10 19 -1 12 -9 24 -16 27
-9 3 -13 -3 -10 -19z"/>
<path d="M3350 5835 c-15 -18 -6 -45 14 -45 18 0 35 29 29 48 -6 16 -28 15
-43 -3z"/>
<path d="M3318 5344 c-11 -24 -9 -29 17 -51 l29 -25 18 22 c18 23 18 24 -9 52
-33 35 -40 35 -55 2z"/>
<path d="M3331 5238 c-5 -13 -7 -25 -5 -27 7 -7 34 21 34 35 0 22 -20 16 -29
-8z"/>
<path d="M2927 5074 c-11 -11 -8 -44 3 -44 15 0 24 30 13 41 -5 5 -12 6 -16 3z"/>
<path d="M3245 4671 c-6 -11 9 -23 19 -14 9 9 7 23 -3 23 -6 0 -12 -4 -16 -9z"/>
<path d="M3453 3649 c-25 -9 -40 -46 -25 -61 14 -14 76 -2 92 17 24 29 -24 60
-67 44z"/>
<path d="M3680 3510 c-23 -23 -26 -46 -7 -52 6 -3 32 -3 57 0 54 4 96 32 87
56 -10 25 -111 22 -137 -4z"/>
<path d="M3700 2729 c0 -5 5 -7 10 -4 6 3 10 8 10 11 0 2 -4 4 -10 4 -5 0 -10
-5 -10 -11z"/>
<path d="M3535 2574 c-14 -15 -25 -33 -25 -40 0 -8 -4 -14 -10 -14 -14 0 39
-74 58 -81 30 -11 46 19 44 83 -1 33 -4 64 -7 69 -11 17 -36 9 -60 -17z"/>
<path d="M3622 2463 c5 -25 28 -28 28 -4 0 12 -6 21 -16 21 -9 0 -14 -7 -12
-17z"/>
<path d="M2490 2219 c0 -5 5 -7 10 -4 6 3 10 8 10 11 0 2 -4 4 -10 4 -5 0 -10
-5 -10 -11z"/>
<path d="M2550 2140 c0 -5 5 -10 10 -10 6 0 10 5 10 10 0 6 -4 10 -10 10 -5 0
-10 -4 -10 -10z"/>
<path d="M3095 2079 c-10 -14 -1 -21 19 -13 9 3 13 10 10 15 -7 12 -21 11 -29
-2z"/>
<path d="M3788 2043 c7 -3 16 -2 19 1 4 3 -2 6 -13 5 -11 0 -14 -3 -6 -6z"/>
<path d="M2376 1641 c-7 -10 33 -23 47 -14 10 6 -11 23 -30 23 -6 0 -14 -4
-17 -9z"/>
<path d="M2598 1243 c-21 -5 -24 -29 -4 -36 24 -9 108 15 95 27 -7 8 -74 14
-91 9z"/>
<path d="M2435 347 c-22 -17 -14 -32 24 -45 24 -8 32 -7 43 5 10 13 9 18 -11
34 -28 23 -32 23 -56 6z"/>
<path d="M4976 8758 c10 -13 20 -25 21 -27 2 -2 3 8 3 22 0 21 -5 27 -22 27
-21 0 -21 0 -2 -22z"/>
<path d="M1846 8677 c3 -10 9 -15 12 -12 3 3 0 11 -7 18 -10 9 -11 8 -5 -6z"/>
<path d="M1250 8624 c0 -8 5 -12 10 -9 6 3 10 10 10 16 0 5 -4 9 -10 9 -5 0
-10 -7 -10 -16z"/>
<path d="M914 5326 c-62 -19 -144 -69 -189 -115 -39 -39 -40 -39 -58 -20 -27
29 -64 34 -126 14 -77 -24 -119 -58 -148 -122 -28 -62 -27 -100 7 -174 27 -60
26 -79 -4 -79 -35 0 -76 -39 -81 -77 -4 -34 6 -47 45 -56 37 -9 54 4 35 29
-24 32 -18 54 19 69 19 8 42 12 50 9 13 -5 13 -10 1 -37 -7 -18 -17 -50 -22
-72 -7 -34 -12 -40 -32 -37 -38 4 -119 -27 -158 -61 -41 -36 -88 -125 -98
-185 -6 -37 -2 -53 24 -106 45 -93 136 -148 206 -127 16 5 53 12 80 16 45 6
53 4 74 -19 32 -34 82 -35 103 -4 l15 23 37 -29 c57 -43 160 -86 225 -93 52
-5 67 -2 123 24 35 16 77 44 93 61 16 18 40 32 52 32 41 0 112 38 133 72 39
64 15 172 -47 213 -15 10 -47 19 -73 19 -25 1 -49 4 -55 8 -5 3 -25 9 -42 13
-27 5 -33 3 -33 -9 0 -9 -12 -39 -26 -66 -20 -38 -39 -57 -79 -80 -29 -16 -64
-30 -77 -30 -14 0 -42 -7 -62 -15 -23 -10 -50 -13 -76 -9 -42 7 -56 17 -62 49
-2 11 -17 26 -33 34 -50 23 -84 62 -120 137 -30 63 -35 82 -35 147 0 80 20
151 48 174 9 7 47 29 83 47 86 45 89 50 77 112 -9 47 -8 57 17 113 33 73 60
97 160 147 l75 37 76 -11 c85 -11 128 -38 175 -107 29 -42 79 -65 145 -65 73
0 140 -65 178 -171 16 -42 16 -50 2 -83 -19 -46 -51 -49 -59 -6 -16 78 -169
97 -346 42 -59 -18 -83 -45 -86 -95 -2 -18 -6 -63 -10 -102 -5 -54 -3 -78 9
-107 24 -56 40 -49 32 14 -7 49 9 149 35 215 13 34 52 54 129 66 89 13 175 -8
190 -49 5 -13 16 -24 24 -24 19 0 75 -64 80 -93 3 -12 8 -35 11 -51 5 -24 0
-34 -38 -71 -55 -53 -135 -71 -201 -45 -33 12 -33 37 -1 70 35 37 20 57 -30
40 -27 -9 -41 -21 -51 -46 -38 -91 82 -178 173 -124 33 19 37 20 54 4 40 -36
44 -89 10 -144 -5 -8 -12 -23 -15 -32 -3 -12 -15 -18 -34 -18 -50 0 -76 -46
-52 -91 9 -16 22 -19 73 -19 49 0 70 -5 97 -23 33 -22 169 -71 268 -97 33 -8
42 -15 38 -28 -3 -9 -8 -39 -12 -67 -6 -50 -44 -214 -62 -270 -19 -56 -74
-170 -94 -192 l-20 -21 70 -109 c39 -59 78 -118 89 -131 l18 -23 85 24 c86 24
235 60 300 72 74 14 140 37 140 49 0 7 -22 44 -49 84 -72 105 -144 320 -155
471 -4 40 -9 91 -12 112 -5 28 -2 45 8 57 27 31 29 67 7 117 l-21 48 23 41
c12 22 31 52 41 65 24 32 23 70 -5 105 l-24 29 38 105 c21 57 55 139 75 181
42 88 42 87 88 207 59 149 46 189 -69 219 -128 33 -377 46 -473 24 -188 -42
-211 -61 -161 -130 30 -43 136 -310 160 -404 11 -44 27 -90 35 -102 21 -33 17
-67 -11 -109 -14 -21 -23 -44 -21 -53 2 -9 7 -26 11 -38 5 -19 0 -25 -31 -38
-20 -8 -56 -15 -80 -15 -39 0 -49 5 -93 49 -27 27 -53 50 -58 52 -5 2 -19 21
-31 42 l-21 37 42 45 c43 44 43 45 41 111 -1 36 -7 71 -13 77 -14 14 -14 77
-1 112 12 32 -17 121 -59 179 -38 53 -117 97 -173 97 -69 0 -98 8 -98 29 0 20
-73 91 -116 113 -27 14 -143 38 -175 36 -8 0 -33 -6 -55 -13z m1349 -136 c26
-7 54 -22 63 -34 13 -19 13 -22 -5 -37 -48 -39 -355 -56 -454 -24 -29 9 -61
23 -72 31 -17 13 -18 16 -5 24 23 15 110 40 139 40 14 0 32 4 40 9 21 13 237
6 294 -9z m-1646 -33 c10 -13 24 -26 31 -28 8 -3 14 -34 17 -95 l5 -91 -65
-32 c-36 -18 -70 -41 -75 -52 -6 -10 -16 -19 -23 -19 -19 0 -53 60 -72 124
-15 55 -15 62 0 101 18 49 53 85 98 101 49 18 64 16 84 -9z m1208 -91 c33 -8
90 -17 128 -21 68 -7 76 -12 55 -33 -9 -9 -7 -12 12 -12 30 0 44 -9 53 -32 5
-15 18 -18 69 -18 35 0 78 4 95 9 22 6 35 6 39 -1 4 -6 -18 -61 -48 -122 -75
-151 -88 -183 -88 -209 0 -12 -7 -31 -15 -41 -22 -30 -19 -95 6 -122 l21 -22
-26 -54 c-14 -30 -26 -60 -26 -67 0 -7 -15 -1 -33 13 -19 15 -38 26 -44 26 -5
0 -17 18 -27 41 l-18 41 28 29 c23 24 25 29 11 35 -9 3 -31 -3 -49 -13 -29
-17 -39 -34 -54 -90 -2 -7 -10 -10 -19 -7 -11 5 -13 10 -5 19 5 7 7 26 4 42
-5 24 -1 34 15 45 18 13 19 20 12 64 -12 68 -111 352 -133 381 -15 20 -48 115
-42 124 7 11 8 11 79 -5z m455 -60 c0 -3 -4 -8 -10 -11 -5 -3 -10 -1 -10 4 0
6 5 11 10 11 6 0 10 -2 10 -4z m-1891 -408 c17 -17 23 -19 35 -9 21 18 29 10
65 -63 17 -36 48 -80 67 -98 32 -31 34 -36 28 -78 -4 -25 -14 -54 -23 -64 -50
-58 -200 -76 -282 -33 -34 19 -48 34 -63 71 -17 41 -19 54 -9 100 18 84 49
142 90 171 46 31 66 31 92 3z m837 -173 c30 -32 32 -39 30 -95 -1 -33 -6 -64
-12 -70 -20 -20 -112 -8 -127 16 -10 18 -53 18 -60 0 -3 -7 1 -26 9 -41 21
-41 18 -50 -28 -81 -97 -64 -246 -19 -356 109 -23 27 -42 58 -42 70 1 20 4 19
31 -13 l30 -35 120 -3 c119 -3 122 -2 168 27 25 16 67 39 93 52 36 17 50 31
61 61 19 48 40 49 83 3z m394 -76 c55 -44 110 -49 182 -15 68 32 104 32 193 1
68 -24 95 -45 95 -72 0 -12 -5 -12 -27 0 -74 39 -113 49 -129 36 -21 -17 -7
-29 32 -29 26 0 47 -10 80 -37 24 -21 44 -42 44 -47 0 -5 -11 1 -24 13 -18 17
-41 24 -85 28 -53 5 -61 3 -68 -13 -4 -11 -14 -25 -22 -31 -14 -11 -14 -14 -1
-23 8 -5 23 -10 33 -10 28 0 97 -24 97 -34 0 -5 -19 -5 -42 -1 -24 4 -81 10
-128 15 -99 9 -259 61 -310 102 -31 24 -33 29 -22 53 7 14 12 38 12 54 0 52
33 56 90 10z m-1007 -128 c21 -35 22 -51 3 -51 -16 0 -46 42 -46 65 0 25 24
17 43 -14z m1390 -37 c25 -8 50 -21 56 -28 10 -12 -113 25 -126 38 -11 11 22
6 70 -10z m-70 -117 c2 -7 0 -55 -5 -107 -14 -126 -15 -140 -17 -250 -2 -109
-8 -128 -39 -111 -21 11 -52 5 -52 -10 0 -5 15 -15 34 -23 39 -16 53 -33 38
-48 -6 -6 -20 -4 -40 6 -17 9 -38 16 -47 16 -28 0 -16 -31 18 -45 44 -18 69
-46 57 -65 -8 -12 -19 -6 -59 34 -35 34 -55 47 -66 42 -15 -5 -11 -13 21 -49
21 -23 49 -50 62 -61 16 -13 20 -22 13 -29 -13 -13 -45 14 -103 87 -36 45 -38
50 -24 70 30 42 87 169 116 261 37 117 39 128 46 200 6 66 17 95 34 95 4 0 10
-6 13 -13z m137 -8 c0 -5 -13 -15 -30 -20 -39 -14 -38 -27 2 -31 31 -3 31 -4
34 -64 l4 -61 -38 -9 c-49 -12 -43 -29 10 -29 41 0 42 -1 50 -40 11 -53 41
-148 67 -214 26 -63 22 -81 -16 -82 -15 0 -59 -8 -98 -18 -53 -13 -69 -21 -67
-33 1 -9 -5 -18 -13 -22 -9 -3 -13 -11 -10 -17 4 -6 14 -8 23 -4 9 3 50 15 91
26 41 11 79 26 85 33 17 21 43 26 62 12 29 -22 11 -46 -35 -46 -22 0 -52 -5
-68 -11 -15 -6 -60 -19 -100 -28 -40 -9 -71 -20 -70 -26 1 -5 7 -9 12 -8 51 9
146 28 219 44 79 17 91 18 104 5 13 -13 10 -15 -24 -21 -68 -10 -147 -27 -234
-50 -109 -29 -160 -38 -160 -28 0 5 8 13 18 19 21 14 72 114 72 144 0 22 23
34 99 50 25 6 56 12 69 15 23 6 31 35 10 35 -7 0 -40 -7 -73 -15 -33 -8 -68
-14 -78 -15 -33 0 -8 18 34 25 50 9 47 31 -5 28 -24 -2 -36 2 -36 11 0 7 13
14 33 15 60 3 112 16 107 26 -5 11 -17 11 -90 4 l-45 -4 -3 45 c-2 25 -1 86 3
136 7 91 7 92 36 98 36 7 38 23 4 32 -22 6 -25 11 -25 55 l0 49 35 0 c19 0 35
-5 35 -11z m-20 -599 c0 -5 -5 -10 -11 -10 -5 0 -7 5 -4 10 3 6 8 10 11 10 2
0 4 -4 4 -10z"/>
<path d="M2195 4935 c-5 -2 -27 -6 -47 -10 -56 -9 -46 -20 19 -22 53 -2 72 6
73 30 0 7 -26 8 -45 2z"/>
<path d="M2053 4479 c-19 -7 -23 -16 -23 -53 0 -30 5 -46 15 -50 22 -8 42 3
49 27 16 59 -2 91 -41 76z"/>
<path d="M1845 3650 c-8 -12 20 -24 35 -15 6 3 8 11 5 16 -8 12 -32 12 -40 -1z"/>
<path d="M2030 3750 c-12 -8 -12 -10 3 -16 22 -8 50 3 42 16 -8 12 -25 13 -45
0z"/>
<path d="M3557 4653 c-17 -16 -2 -21 63 -22 55 0 70 3 70 14 0 12 -14 15 -63
15 -35 0 -67 -3 -70 -7z"/>
<path d="M3430 4639 c0 -6 -8 -18 -17 -25 -17 -12 -16 -15 13 -38 22 -18 33
-37 38 -66 4 -27 11 -40 19 -37 19 7 11 117 -11 146 -21 28 -42 38 -42 20z"/>
<path d="M3580 4606 c-16 -16 8 -46 38 -46 33 0 68 22 59 37 -9 14 -85 21 -97
9z"/>
<path d="M3480 4440 c0 -20 48 -34 75 -22 40 18 29 32 -25 32 -27 0 -50 -5
-50 -10z"/>
<path d="M4530 2785 c-10 -12 -10 -19 -2 -27 13 -13 42 6 42 28 0 19 -24 18
-40 -1z"/>
<path d="M2418 2749 c-10 -5 -18 -19 -18 -29 0 -28 46 -27 60 0 19 35 -5 51
-42 29z"/>
<path d="M4717 2748 c-29 -22 22 -65 55 -47 24 13 23 36 -1 49 -25 13 -34 13
-54 -2z"/>
<path d="M4512 2728 c-5 -7 -12 -22 -14 -33 -3 -18 2 -20 42 -17 51 4 65 13
56 37 -4 11 -12 14 -25 10 -11 -3 -22 -1 -26 5 -8 13 -20 13 -33 -2z"/>
<path d="M4395 2706 c-16 -12 -17 -16 -6 -29 14 -17 37 -13 45 8 8 23 -18 37
-39 21z"/>
<path d="M1100 2670 c0 -5 5 -10 10 -10 6 0 10 5 10 10 0 6 -4 10 -10 10 -5 0
-10 -4 -10 -10z"/>
<path d="M4972 2668 c-11 -15 2 -58 18 -58 5 0 10 16 10 35 0 36 -10 44 -28
23z"/>
<path d="M1065 2660 c-3 -5 -1 -10 4 -10 6 0 11 5 11 10 0 6 -2 10 -4 10 -3 0
-8 -4 -11 -10z"/>
<path d="M1037 2653 c-4 -3 -7 -11 -7 -17 0 -6 5 -5 12 2 6 6 9 14 7 17 -3 3
-9 2 -12 -2z"/>
<path d="M4835 2627 c-20 -16 -13 -37 14 -37 23 0 41 19 34 36 -7 18 -24 18
-48 1z"/>
<path d="M2128 2586 c-23 -17 -23 -29 2 -51 35 -31 63 0 44 49 -7 19 -23 20
-46 2z"/>
<path d="M4890 2567 c-28 -14 -38 -48 -18 -64 7 -6 31 -14 54 -17 31 -6 44 -3
53 8 18 22 7 46 -18 39 -14 -4 -21 -1 -21 10 0 26 -23 37 -50 24z"/>
<path d="M4641 2541 c-8 -5 -11 -16 -8 -25 5 -12 14 -15 34 -10 38 9 41 13 19
30 -23 16 -26 17 -45 5z"/>
<path d="M1127 2516 c-8 -20 20 -43 35 -28 14 14 3 42 -16 42 -7 0 -16 -6 -19
-14z"/>
<path d="M4753 2519 c-17 -17 -4 -39 21 -39 27 0 46 18 39 36 -6 17 -45 18
-60 3z"/>
<path d="M2200 2475 c-19 -20 -21 -27 -10 -40 18 -22 37 -19 56 10 13 20 14
28 4 40 -17 20 -23 19 -50 -10z"/>
<path d="M1936 2314 c-13 -9 -23 -11 -32 -4 -8 7 -20 7 -38 -1 -29 -13 -31
-21 -15 -50 8 -16 7 -25 -5 -38 -15 -17 -15 -19 0 -32 14 -11 20 -9 43 19 14
17 38 36 54 41 21 8 27 17 27 40 0 37 -9 43 -34 25z"/>
<path d="M2028 2316 c-20 -15 -24 -41 -7 -51 14 -9 49 24 49 47 0 21 -18 23
-42 4z"/>
<path d="M4823 2275 c-15 -12 -16 -16 -4 -24 16 -10 51 3 51 18 0 16 -28 20
-47 6z"/>
<path d="M2015 2236 c-18 -13 -16 -46 3 -46 20 0 45 28 39 44 -8 20 -17 20
-42 2z"/>
<path d="M2143 2230 c-13 -5 -23 -13 -23 -17 1 -20 19 -34 41 -31 18 2 24 9
24 27 0 28 -11 33 -42 21z"/>
<path d="M1682 2218 c-15 -15 -16 -45 -1 -54 16 -9 53 31 46 50 -8 19 -28 21
-45 4z"/>
<path d="M4853 2179 c-24 -9 -31 -43 -12 -54 19 -12 59 4 59 24 0 27 -21 40
-47 30z"/>
<path d="M1503 2153 c-20 -8 -15 -41 7 -48 25 -8 50 10 50 36 0 19 -27 25 -57
12z"/>
<path d="M4924 2135 c-8 -20 2 -45 19 -45 19 0 50 36 42 49 -9 16 -55 13 -61
-4z"/>
<path d="M1316 2130 c-15 -5 -16 -9 -7 -14 7 -5 18 -3 24 3 14 14 6 20 -17 11z"/>
<path d="M1994 2106 c-12 -31 0 -51 31 -51 27 0 30 3 30 30 0 25 -4 30 -28 33
-17 2 -29 -2 -33 -12z"/>
<path d="M1403 2100 c-27 -11 -32 -57 -7 -67 25 -10 49 11 49 42 0 32 -10 38
-42 25z"/>
<path d="M1915 2086 c-19 -14 -19 -15 -1 -35 20 -22 60 -28 71 -11 9 14 -21
60 -38 60 -7 0 -22 -6 -32 -14z"/>
<path d="M1302 2072 c-13 -13 -28 -18 -45 -15 -31 6 -40 -8 -27 -41 11 -29 31
-34 50 -11 7 9 20 13 30 10 24 -8 57 31 44 52 -16 25 -31 26 -52 5z"/>
<path d="M2127 2079 c-22 -13 -13 -29 17 -29 29 0 39 10 25 27 -13 15 -18 16
-42 2z"/>
<path d="M2304 2076 c-9 -23 0 -51 16 -51 10 0 15 10 15 29 0 32 -21 47 -31
22z"/>
<path d="M4977 2083 c-12 -11 -8 -23 8 -23 8 0 15 7 15 15 0 16 -12 20 -23 8z"/>
<path d="M4770 2065 c-10 -13 -9 -15 9 -15 11 0 21 4 21 9 0 18 -18 21 -30 6z"/>
<path d="M2252 2058 c-16 -16 -15 -34 4 -52 19 -20 34 -12 34 18 0 31 -22 50
-38 34z"/>
<path d="M1073 2038 c-44 -21 -15 -84 33 -72 14 4 24 2 24 -5 0 -17 18 -13 40
9 30 30 25 42 -14 34 -30 -5 -35 -3 -38 17 -4 27 -15 31 -45 17z"/>
<path d="M1662 2033 c-12 -24 -4 -43 18 -43 23 0 44 26 36 45 -7 21 -43 19
-54 -2z"/>
<path d="M1584 2026 c-15 -12 -17 -18 -8 -33 14 -24 47 -28 64 -8 11 13 10 19
-5 35 -22 24 -25 24 -51 6z"/>
<path d="M1784 2026 c-3 -8 -3 -20 0 -25 9 -14 51 3 51 20 0 20 -44 24 -51 5z"/>
<path d="M2191 2016 c-9 -11 -9 -22 3 -50 20 -49 46 -48 46 2 0 53 -25 77 -49
48z"/>
<path d="M713 2000 c-31 -13 -29 -38 4 -46 19 -5 30 -2 40 12 25 34 1 52 -44
34z"/>
<path d="M983 1990 c-28 -11 -29 -26 -3 -40 20 -11 70 -4 70 10 0 7 -34 40
-41 39 -2 0 -14 -4 -26 -9z"/>
<path d="M242 1973 c-31 -27 -39 -69 -14 -82 28 -15 50 6 54 53 3 45 -10 54
-40 29z"/>
<path d="M562 1969 c-53 -23 -47 -39 11 -32 46 6 67 18 67 39 0 19 -26 17 -78
-7z"/>
<path d="M4905 1979 c-4 -5 -18 -14 -31 -19 -16 -6 -24 -17 -24 -32 0 -41 20
-97 45 -125 21 -25 26 -26 44 -15 12 6 30 12 41 12 18 0 20 6 20 80 0 44 -3
80 -6 80 -22 0 -43 -25 -49 -61 -10 -58 -21 -38 -17 32 4 55 -6 76 -23 48z"/>
<path d="M440 1971 c-30 -8 -40 -41 -13 -41 11 0 28 6 39 14 24 19 8 35 -26
27z"/>
<path d="M880 1964 c0 -9 -8 -23 -17 -30 -15 -11 -16 -16 -5 -34 17 -27 4 -48
-14 -22 -19 28 -60 17 -79 -21 -19 -39 -19 -44 4 -57 27 -14 67 3 74 32 6 21
8 22 23 7 14 -15 19 -15 46 -2 24 12 28 20 23 37 -4 11 -9 35 -12 51 -8 47
-43 78 -43 39z"/>
<path d="M1210 1965 c-10 -12 -9 -16 5 -21 19 -8 40 9 31 25 -10 15 -21 14
-36 -4z"/>
<path d="M1364 1965 c-15 -12 -16 -16 -5 -24 15 -10 48 -4 57 11 4 6 0 14 -7
19 -19 12 -22 11 -45 -6z"/>
<path d="M331 1961 c-32 -8 -36 -23 -13 -44 24 -22 52 -12 52 18 0 29 -8 34
-39 26z"/>
<path d="M2314 1956 c-9 -24 4 -48 23 -44 24 4 24 52 0 56 -9 2 -20 -4 -23
-12z"/>
<path d="M1998 1949 c-10 -5 -18 -18 -18 -28 0 -23 36 -56 45 -42 3 6 3 11 -1
11 -4 0 1 9 11 20 15 16 15 22 5 35 -15 17 -19 18 -42 4z"/>
<path d="M4757 1939 c-16 -10 -17 -13 -3 -33 8 -13 19 -41 25 -64 26 -94 87
-96 72 -2 -14 90 -48 126 -94 99z"/>
<path d="M51 1927 c-8 -11 -6 -18 8 -31 24 -22 55 -17 59 8 7 32 -44 49 -67
23z"/>
<path d="M1110 1925 c-7 -9 -10 -18 -7 -21 11 -11 57 6 57 21 0 20 -34 19 -50
0z"/>
<path d="M1770 1924 c0 -11 5 -14 16 -10 9 3 20 6 25 6 5 0 9 5 9 10 0 6 -11
10 -25 10 -16 0 -25 -6 -25 -16z"/>
<path d="M2137 1933 c-13 -13 -7 -50 11 -66 22 -20 32 -13 32 23 0 35 -26 61
-43 43z"/>
<path d="M631 1916 c-9 -11 -8 -18 4 -30 9 -9 20 -16 24 -16 15 0 33 30 27 45
-7 19 -40 20 -55 1z"/>
<path d="M1548 1909 c-21 -12 -24 -39 -4 -39 7 0 19 7 26 15 17 21 1 37 -22
24z"/>
<path d="M1425 1896 c-15 -11 -17 -17 -8 -27 17 -17 65 -3 61 19 -4 22 -29 26
-53 8z"/>
<path d="M131 1876 c-7 -9 -8 -17 -2 -20 13 -9 43 4 38 17 -5 17 -23 19 -36 3z"/>
<path d="M996 1867 c-13 -10 -16 -16 -7 -21 15 -10 53 3 48 17 -5 17 -21 18
-41 4z"/>
<path d="M1856 1864 c-15 -14 -15 -19 -3 -31 19 -19 70 0 65 25 -4 23 -42 27
-62 6z"/>
<path d="M4657 1843 c-16 -15 -5 -30 33 -47 41 -18 60 -15 60 9 0 29 -73 59
-93 38z"/>
<path d="M1558 1835 c-1 -2 -77 -5 -168 -6 -239 -5 -407 -31 -449 -70 -21 -19
-20 -39 4 -69 17 -22 33 -64 71 -177 19 -57 47 -125 63 -152 16 -27 39 -76 51
-109 12 -34 31 -69 41 -78 24 -22 24 -46 -1 -69 -40 -36 -12 -122 51 -155 26
-15 69 -1 79 24 8 18 9 17 9 -11 1 -28 -3 -33 -21 -33 -34 0 -45 -11 -51 -50
-31 -201 -62 -332 -98 -415 -5 -11 -22 -58 -38 -105 -16 -47 -41 -97 -55 -112
-14 -15 -26 -31 -26 -37 0 -16 39 -39 121 -69 41 -15 94 -38 119 -52 25 -13
58 -25 73 -26 15 -1 36 -9 46 -18 16 -14 23 -14 77 0 32 8 82 26 109 39 28 13
68 29 90 35 22 7 47 16 55 21 8 5 26 14 40 20 71 30 95 48 98 71 3 28 -32 78
-56 78 -17 0 -45 47 -98 163 -19 40 -32 57 -45 57 -21 0 -24 11 -9 26 6 6 4
19 -5 38 -8 16 -15 36 -15 46 0 10 -7 31 -15 46 -8 16 -15 39 -15 50 0 12 -7
41 -16 65 -34 96 -44 143 -30 154 20 15 46 71 46 97 0 13 -7 34 -16 46 -14 20
-14 27 0 65 8 23 23 74 32 112 9 39 22 79 28 90 7 11 21 45 31 75 9 30 21 62
25 71 5 9 14 50 21 91 9 55 16 75 26 71 20 -8 37 41 27 78 -8 27 -18 35 -69
54 -57 21 -129 37 -137 30z m124 -73 c31 -31 -46 -50 -209 -51 -109 -1 -133 3
-133 25 0 18 42 28 85 20 24 -5 42 -2 57 8 26 19 181 17 200 -2z m-495 -82
c55 -5 124 -12 151 -16 28 -3 112 -1 186 6 75 7 139 11 142 7 3 -3 -4 -40 -16
-84 -24 -88 -25 -93 -76 -223 -20 -52 -44 -124 -54 -160 -20 -79 -34 -88 -135
-89 -66 -1 -74 1 -89 23 -8 14 -26 26 -38 28 -13 2 -24 10 -26 19 -2 13 6 15
51 11 30 -2 57 0 60 6 13 19 -33 45 -88 50 -43 3 -58 9 -66 25 -11 19 -9 20
70 15 58 -3 81 -1 85 8 7 17 -29 47 -62 50 -105 12 -133 18 -143 30 -23 28 1
36 93 29 83 -6 90 -6 86 11 -2 14 -21 22 -74 34 -39 9 -85 15 -102 14 -40 -3
-62 20 -34 35 13 7 39 7 78 1 71 -12 182 -11 190 2 12 18 -11 26 -92 32 -45 3
-102 10 -128 15 -49 9 -100 37 -92 50 3 4 56 2 118 -6 123 -15 199 -14 205 3
2 7 -56 18 -161 31 -156 19 -204 33 -190 55 4 5 16 7 28 4 11 -4 67 -11 123
-16z m233 -655 c0 -20 -17 -45 -31 -45 -8 0 -19 81 -12 93 8 14 43 -24 43 -48z
m-124 34 c7 -12 -14 -59 -27 -59 -5 0 -14 10 -20 22 -10 18 -8 24 7 35 22 16
31 16 40 2z m214 -20 c0 -20 -26 -79 -36 -79 -2 0 0 9 6 19 5 11 10 36 10 56
0 22 4 34 10 30 6 -3 10 -15 10 -26z m-124 -110 c4 -7 22 -9 44 -6 l38 5 10
-47 c5 -25 13 -54 17 -63 5 -14 0 -20 -21 -28 -16 -5 -37 -15 -46 -20 -10 -6
-20 -10 -22 -10 -3 0 -6 30 -8 67 -3 59 -6 68 -23 71 -26 5 -39 18 -31 31 9
14 33 14 42 0z m-51 -70 c4 -6 5 -13 2 -16 -8 -7 -47 7 -47 18 0 13 37 11 45
-2z m-11 -72 c15 -11 16 -21 6 -98 -10 -86 -6 -501 6 -532 8 -23 31 -28 49
-11 17 18 22 166 5 208 -5 14 -5 28 -1 31 5 2 7 36 4 74 -4 65 -3 69 19 74 13
4 39 7 58 7 20 0 46 7 58 16 12 8 26 13 31 10 8 -5 61 -110 61 -121 0 -6 -72
-25 -98 -25 -13 0 -37 -10 -54 -21 -25 -18 -27 -24 -16 -35 11 -11 24 -11 75
0 35 7 71 20 81 29 10 9 21 17 24 17 3 0 22 -33 42 -72 21 -40 49 -83 63 -94
l25 -21 -26 -5 c-21 -4 -32 1 -49 23 l-22 28 -85 -13 c-123 -21 -141 -26 -138
-44 2 -8 14 -23 28 -34 26 -19 27 -19 70 1 47 22 100 28 100 12 0 -5 -10 -12
-22 -16 -13 -3 -32 -10 -43 -15 -53 -24 -144 -47 -180 -45 -22 1 -58 11 -80
22 -22 11 -75 35 -118 53 -45 19 -76 37 -74 44 32 78 40 96 48 96 5 0 9 -4 9
-9 0 -8 82 -41 102 -41 5 0 8 10 6 22 -2 17 -16 27 -55 42 -38 13 -53 24 -53
37 0 24 8 24 45 -1 38 -25 68 -26 63 -2 -2 14 -45 42 -81 55 -5 1 -2 23 6 47
49 152 58 187 63 229 11 96 15 102 48 78z m194 -59 c-2 -19 -11 -24 -45 -29
-23 -3 -49 -11 -57 -18 -21 -18 -30 -8 -22 22 4 19 16 26 53 34 73 16 75 15
71 -9z m22 -65 c0 -5 3 -18 6 -29 5 -19 0 -22 -39 -28 -24 -4 -61 -15 -81 -25
l-36 -19 0 39 c0 37 1 39 33 39 17 1 43 7 57 15 27 15 60 20 60 8z"/>
<path d="M1256 543 c-7 -7 23 -43 36 -43 4 0 8 7 8 15 0 16 -34 38 -44 28z"/>
<path d="M1466 476 c-10 -39 15 -47 64 -21 46 24 39 44 -14 42 -35 -2 -46 -6
-50 -21z"/>
<path d="M1230 475 c0 -21 46 -49 67 -40 16 6 15 9 -10 31 -32 27 -57 31 -57
9z"/>
<path d="M1476 321 c-36 -7 -42 -23 -20 -45 11 -12 25 -15 45 -11 15 4 42 7
59 7 40 1 49 17 20 40 -22 18 -51 21 -104 9z"/>
<path d="M1160 261 c0 -29 113 -82 132 -63 17 17 -6 38 -62 56 -56 18 -70 20
-70 7z"/>
<path d="M255 1809 c-131 -24 -209 -41 -231 -51 l-24 -11 1 -194 c0 -114 5
-195 11 -199 17 -11 20 3 9 42 -14 51 -5 56 15 8 9 -21 47 -103 85 -182 38
-78 69 -146 69 -150 0 -5 -16 -23 -35 -42 -44 -43 -44 -70 0 -114 37 -38 40
-51 26 -141 -26 -164 -120 -493 -165 -580 -16 -31 -22 -77 -8 -73 13 4 147
-23 185 -38 20 -8 53 -14 72 -14 18 0 36 -4 39 -9 3 -5 32 -12 63 -16 37 -4
65 -14 76 -26 26 -27 39 -24 93 24 42 36 186 117 209 117 11 0 34 33 35 49 0
7 -18 40 -40 73 -22 33 -40 67 -40 74 0 8 -4 22 -9 32 -18 35 -33 100 -26 112
5 8 4 11 -1 7 -18 -11 -32 8 -52 68 -11 33 -19 61 -18 62 1 2 17 -3 35 -10 29
-11 34 -10 46 6 8 11 11 25 8 32 -4 11 3 13 31 8 32 -5 37 -3 46 21 21 56 -35
95 -84 59 -14 -10 -24 -25 -23 -33 1 -8 -5 -16 -14 -18 -19 -3 -19 40 -1 46 7
2 12 8 12 13 0 6 -4 8 -9 5 -5 -4 -4 9 1 28 12 38 6 66 -15 66 -24 0 -67 -40
-67 -63 0 -36 -18 -5 -25 44 -7 48 7 72 44 74 9 1 26 2 39 3 12 1 22 9 22 17
0 19 -32 33 -38 17 -2 -7 -10 -12 -19 -12 -10 0 -12 6 -8 21 5 15 -2 32 -25
61 l-33 40 22 43 c11 23 21 46 21 51 0 5 6 21 14 36 8 14 19 43 26 65 21 65
29 76 46 62 11 -9 21 -9 40 0 36 16 25 38 -28 55 -16 5 -16 8 1 58 22 62 52
122 99 196 47 75 34 122 -43 152 -70 27 -367 45 -460 29z m305 -65 c0 -2 -11
-4 -25 -4 -14 0 -25 4 -25 9 0 4 11 6 25 3 14 -2 25 -6 25 -8z m128 -10 c27
-19 28 -36 3 -58 -25 -23 -306 -33 -331 -12 -8 7 -27 16 -42 20 -38 9 -35 26
5 27 76 3 175 -3 212 -13 70 -18 100 -16 100 7 0 13 -8 21 -22 23 -13 2 -23 8
-23 13 0 15 74 10 98 -7z m-8 -120 c0 -3 -20 -48 -45 -100 -25 -52 -48 -109
-52 -127 -3 -18 -13 -45 -21 -62 -8 -16 -34 -77 -57 -134 l-41 -103 -80 0
c-132 -1 -136 0 -132 20 2 13 13 17 43 17 66 0 51 26 -25 46 -36 10 -63 18
-60 19 3 1 31 2 62 3 31 1 62 7 69 14 15 15 12 16 -89 34 -62 10 -104 31 -91
43 2 2 28 0 58 -5 62 -10 101 -3 101 16 0 9 -18 16 -47 20 -79 11 -143 29
-141 40 2 6 35 9 84 6 56 -2 84 1 89 9 11 17 -14 30 -60 30 -40 1 -152 24
-162 34 -17 16 17 21 102 13 96 -10 154 0 140 22 -5 9 -28 13 -147 25 -51 6
-78 15 -78 28 0 7 15 8 47 2 27 -4 82 -8 123 -8 63 -1 75 2 78 17 3 13 -3 17
-30 17 -46 0 -243 31 -259 41 -29 18 5 22 88 10 130 -18 310 -25 352 -13 20 6
65 15 101 20 36 5 68 10 73 11 4 0 7 -2 7 -5z m-267 -565 c44 -23 67 -52 67
-85 0 -45 -9 -64 -31 -64 -16 0 -19 8 -19 47 0 39 -5 52 -32 80 -32 33 -25 43
15 22z m-143 -6 c-1 -11 -26 -43 -34 -43 -8 0 -8 35 1 43 9 9 33 9 33 0z m77
-86 c-3 -21 -4 -20 -15 6 -7 16 -9 33 -6 39 10 16 26 -19 21 -45z m-32 -85
c-12 -12 -52 11 -67 39 -30 52 -20 55 27 9 24 -24 43 -46 40 -48z m75 14 c6
-8 23 -16 38 -18 24 -3 28 -9 33 -50 4 -25 16 -73 27 -105 10 -32 25 -78 32
-103 7 -25 24 -69 37 -98 13 -29 23 -60 23 -70 0 -9 9 -34 20 -55 11 -20 20
-43 20 -49 0 -7 7 -26 15 -42 8 -15 13 -31 10 -36 -2 -4 -25 -13 -50 -20 -47
-13 -71 -32 -60 -50 8 -13 42 -13 50 0 9 14 83 49 89 42 11 -10 6 -22 -8 -22
-8 0 -23 -11 -34 -25 -11 -14 -25 -25 -32 -25 -6 0 -32 -16 -58 -36 -40 -30
-53 -35 -87 -31 -68 8 -218 35 -255 46 -19 6 -47 11 -62 11 -24 0 -65 37 -53
48 2 2 32 -1 67 -7 35 -7 77 -14 93 -16 17 -3 48 -10 71 -16 62 -18 102 6 53
32 -19 10 -118 29 -232 46 -31 4 -37 9 -32 22 4 9 9 25 12 36 3 11 11 34 18
50 7 17 21 62 31 100 23 89 32 100 68 84 23 -11 29 -10 43 4 20 20 14 27 -29
36 -19 4 -34 14 -36 24 -3 14 4 17 38 15 46 -2 75 17 50 32 -8 5 -25 10 -36
10 -30 0 -49 24 -31 39 8 6 16 9 19 6 2 -3 20 -6 39 -8 32 -2 34 -5 41 -47 15
-101 18 -130 28 -245 8 -86 16 -123 27 -132 9 -7 12 -19 9 -31 -5 -13 3 -29
23 -51 34 -36 41 -37 72 -12 23 19 23 20 5 39 -20 23 -13 47 11 37 9 -3 27 2
40 11 24 15 24 16 6 29 -14 11 -16 16 -5 26 34 36 -5 52 -58 24 -16 -8 -31
-12 -33 -7 -6 8 -25 184 -25 222 0 54 -35 296 -45 308 -6 7 -16 11 -22 8 -7
-2 -18 0 -26 5 -12 8 -12 10 1 19 21 14 36 12 50 -4z m-72 -68 c-5 -15 -68
-24 -68 -10 0 15 13 22 43 22 18 0 27 -4 25 -12z m-30 -64 c12 -4 22 -11 22
-16 0 -14 -63 -5 -68 10 -4 13 10 15 46 6z m316 -48 c-10 -48 -23 -67 -24 -34
0 15 -4 38 -9 51 -9 22 -7 23 15 19 22 -4 24 -8 18 -36z m-100 -430 c-5 -13
-33 -27 -59 -30 -5 -1 -10 6 -10 14 0 12 20 21 67 29 4 0 5 -5 2 -13z"/>
<path d="M4562 1794 c-31 -22 -26 -58 9 -62 22 -3 27 2 33 28 10 51 -3 61 -42
34z"/>
<path d="M2044 1789 c-3 -6 -1 -16 4 -21 13 -13 45 8 36 23 -7 12 -31 11 -40
-2z"/>
<path d="M1985 1780 c-3 -5 -12 -7 -19 -4 -7 3 -18 -1 -24 -9 -16 -19 9 -54
29 -41 8 5 22 7 32 6 13 -3 17 4 17 27 0 30 -21 43 -35 21z"/>
<path d="M4462 1757 c-15 -17 1 -40 24 -35 27 5 32 48 6 48 -11 0 -24 -6 -30
-13z"/>
<path d="M4190 1725 c-16 -19 3 -45 31 -45 22 0 26 29 7 48 -16 16 -23 15 -38
-3z"/>
<path d="M1852 1718 c7 -19 38 -22 38 -4 0 10 -9 16 -21 16 -12 0 -19 -5 -17
-12z"/>
<path d="M4625 1712 c-23 -17 -48 -53 -60 -88 l-12 -37 -7 46 c-4 26 -12 49
-17 53 -17 10 -49 -27 -49 -58 l0 -29 -38 41 c-26 27 -48 40 -65 40 -40 0 -42
-19 -6 -56 19 -20 38 -53 44 -77 14 -57 45 -59 60 -4 7 24 14 34 20 28 6 -5
21 -11 35 -13 18 -2 28 -12 36 -36 13 -41 28 -56 49 -48 14 5 16 15 10 56 -8
61 7 113 41 134 34 23 32 56 -3 56 -16 0 -32 -4 -38 -8z"/>
<path d="M3048 1704 c-4 -3 5 -22 18 -41 13 -20 24 -41 24 -48 0 -19 27 -26
43 -12 7 7 22 17 32 23 44 25 23 80 -27 70 -15 -3 -30 -1 -33 4 -7 11 -48 14
-57 4z"/>
<path d="M2134 1686 c-7 -19 3 -36 22 -36 10 0 14 8 12 22 -4 26 -26 36 -34
14z"/>
<path d="M853 1673 c-7 -2 -13 -11 -13 -19 0 -8 -7 -17 -15 -20 -17 -7 -20
-30 -5 -39 6 -3 16 -3 23 2 6 4 21 6 33 5 31 -4 50 23 36 53 -11 24 -31 30
-59 18z"/>
<path d="M3230 1646 c0 -28 24 -41 40 -21 16 20 5 45 -20 45 -14 0 -20 -7 -20
-24z"/>
<path d="M4824 1656 c-6 -17 23 -66 40 -66 6 0 17 4 25 9 11 7 10 14 -8 40
-24 33 -48 40 -57 17z"/>
<path d="M1833 1634 c-7 -18 20 -49 35 -40 6 3 9 14 7 24 -2 9 -4 20 -4 25 -2
14 -32 7 -38 -9z"/>
<path d="M3015 1640 c-10 -16 24 -62 43 -58 21 4 28 34 12 53 -14 17 -46 20
-55 5z"/>
<path d="M4915 1629 c-8 -25 6 -42 28 -34 18 7 30 32 21 46 -10 17 -43 9 -49
-12z"/>
<path d="M2035 1630 c-4 -6 -15 -8 -26 -5 -50 16 -42 -32 10 -58 36 -18 41
-14 41 29 0 34 -14 52 -25 34z"/>
<path d="M4315 1618 c-8 -20 38 -102 59 -106 40 -8 39 18 -3 98 -11 20 -50 25
-56 8z"/>
<path d="M4661 1611 c-18 -11 -5 -87 16 -95 35 -14 56 41 33 85 -11 20 -27 24
-49 10z"/>
<path d="M2171 1596 c-7 -8 -10 -20 -6 -26 4 -7 -2 -14 -14 -17 -24 -6 -28
-28 -7 -36 25 -10 68 32 64 61 -4 30 -20 38 -37 18z"/>
<path d="M1743 1571 c-7 -10 -9 -22 -6 -25 12 -12 21 -6 25 19 6 30 -3 32 -19
6z"/>
<path d="M1940 1580 c-13 -8 -13 -11 2 -27 14 -13 20 -15 30 -5 17 17 -11 45
-32 32z"/>
<path d="M3313 1563 c-15 -5 -17 -41 -4 -61 5 -8 17 -12 27 -10 23 4 31 43 14
64 -13 15 -17 16 -37 7z"/>
<path d="M3393 1554 c-4 -11 1 -22 12 -31 26 -18 40 -12 40 18 0 30 -41 40
-52 13z"/>
<path d="M3550 1517 c0 -28 17 -47 42 -47 20 0 23 21 8 51 -15 28 -50 25 -50
-4z"/>
<path d="M3647 1529 c-21 -12 -22 -42 -2 -59 12 -10 18 -10 30 0 32 26 7 78
-28 59z"/>
<path d="M2078 1469 c-21 -12 -23 -38 -5 -61 11 -15 18 -15 62 -4 43 11 50 17
53 40 3 24 1 26 -30 24 -18 -1 -40 2 -48 5 -8 4 -23 2 -32 -4z"/>
<path d="M774 1455 c-4 -8 -14 -15 -24 -15 -30 0 -43 -25 -33 -67 11 -47 32
-53 86 -23 36 21 41 21 49 6 11 -20 42 -21 58 -1 11 13 14 13 25 -2 12 -17 15
-17 49 0 41 19 44 27 16 44 -14 10 -27 10 -47 2 -38 -14 -37 -15 -43 27 l-5
37 -63 4 c-49 2 -64 0 -68 -12z"/>
<path d="M3047 1452 c-10 -10 -17 -25 -17 -33 0 -8 -6 -3 -13 11 -13 24 -45
30 -84 16 -17 -7 -17 -47 1 -72 14 -18 16 -18 44 -1 41 23 59 21 66 -7 6 -24
31 -40 47 -30 7 4 7 64 0 127 -2 13 -28 7 -44 -11z"/>
<path d="M4300 1445 c-10 -12 -10 -18 0 -30 17 -21 37 -19 45 5 12 37 -20 55
-45 25z"/>
<path d="M3152 1434 c-40 -28 -24 -64 30 -64 17 0 19 4 13 33 -10 44 -17 49
-43 31z"/>
<path d="M1791 1415 c-12 -14 -27 -23 -31 -20 -10 6 -60 -15 -60 -25 0 -15 26
-30 52 -30 16 0 37 -6 48 -12 15 -10 25 -10 37 -2 14 9 21 8 30 -5 10 -14 13
-14 33 4 32 29 54 75 42 87 -19 19 -63 -1 -74 -33 -13 -37 -23 -29 -23 19 0
45 -21 52 -54 17z"/>
<path d="M3468 1419 c-12 -7 -18 -22 -18 -46 l0 -36 -35 36 c-40 41 -44 43
-70 23 -18 -13 -18 -14 4 -32 12 -11 29 -31 37 -46 14 -28 47 -37 59 -18 9 15
42 12 49 -5 6 -17 32 -20 41 -4 4 5 0 18 -8 27 -9 9 -17 37 -19 61 -3 47 -12
56 -40 40z"/>
<path d="M4515 1405 c-16 -51 -13 -49 -40 -31 -13 9 -36 16 -50 16 -33 0 -34
-32 0 -54 14 -9 25 -23 25 -30 0 -7 7 -19 16 -26 12 -11 18 -10 31 3 12 12 20
13 34 4 14 -9 21 -9 30 0 14 14 18 91 7 116 -11 21 -47 23 -53 2z"/>
<path d="M2200 1390 c0 -11 7 -20 15 -20 8 0 15 9 15 20 0 11 -7 20 -15 20 -8
0 -15 -9 -15 -20z"/>
<path d="M3576 1384 c-15 -14 -21 -34 -12 -34 2 0 11 -3 19 -6 19 -7 48 22 41
41 -8 19 -29 19 -48 -1z"/>
<path d="M1990 1383 c-17 -6 -40 -32 -40 -45 0 -16 57 -8 73 10 31 34 14 52
-33 35z"/>
<path d="M2866 1367 c-24 -17 -13 -37 20 -37 20 0 25 4 22 22 -4 27 -18 32
-42 15z"/>
<path d="M4800 1365 c-11 -13 2 -45 36 -93 1 -2 20 -5 43 -6 48 -4 62 9 64 56
2 27 -2 34 -21 36 -17 3 -25 -2 -29 -17 -7 -28 -16 -26 -36 9 -20 33 -38 38
-57 15z"/>
<path d="M4991 1364 c0 -11 3 -14 6 -6 3 7 2 16 -1 19 -3 4 -6 -2 -5 -13z"/>
<path d="M4635 1344 c-22 -23 -15 -58 12 -62 17 -3 26 4 33 24 19 49 -10 73
-45 38z"/>
<path d="M4357 1296 c-7 -17 19 -56 37 -56 18 0 28 27 21 51 -7 22 -50 26 -58
5z"/>
<path d="M3703 1284 c-7 -20 22 -45 44 -37 8 3 13 15 11 27 -4 27 -45 35 -55
10z"/>
<path d="M3206 1282 c-10 -16 5 -70 23 -86 28 -26 44 -5 34 45 -7 34 -13 45
-30 47 -12 2 -24 -1 -27 -6z"/>
<path d="M3634 1275 c-7 -17 10 -65 23 -65 26 1 37 20 27 47 -11 32 -41 43
-50 18z"/>
<path d="M2984 1254 c-9 -35 18 -63 40 -44 19 15 21 41 4 58 -19 19 -37 14
-44 -14z"/>
<path d="M2082 1254 c-12 -8 -27 -12 -33 -9 -16 11 -56 -3 -63 -21 -15 -38 43
-81 71 -53 8 8 13 8 17 0 9 -15 39 -14 54 1 7 7 28 11 47 10 32 -3 34 -1 40
32 12 59 -10 72 -50 31 l-25 -24 0 24 c0 29 -24 33 -58 9z"/>
<path d="M2884 1256 c-8 -21 45 -96 67 -96 24 0 24 21 -1 70 -21 41 -55 54
-66 26z"/>
<path d="M3111 1261 c-16 -10 -8 -40 20 -69 36 -39 64 -21 40 26 -5 9 -12 25
-15 35 -6 18 -23 22 -45 8z"/>
<path d="M0 1195 c0 -32 3 -55 7 -52 3 4 14 0 22 -8 27 -23 65 2 69 45 3 47
-8 61 -57 67 l-41 6 0 -58z m75 -5 c3 -5 1 -10 -4 -10 -6 0 -11 5 -11 10 0 6
2 10 4 10 3 0 8 -4 11 -10z"/>
<path d="M764 1236 c-11 -8 -30 -12 -45 -9 -15 3 -30 0 -33 -6 -4 -6 -20 -11
-35 -11 -15 0 -36 -6 -46 -14 -18 -13 -18 -15 9 -52 48 -64 55 -67 92 -39 28
21 34 23 44 10 16 -19 35 -19 54 1 29 28 17 134 -14 134 -3 0 -15 -6 -26 -14z"/>
<path d="M1002 1235 c-19 -14 -21 -22 -15 -63 11 -89 73 -115 73 -31 0 26 13
24 25 -3 14 -32 47 -29 59 4 14 40 -16 81 -55 76 -22 -3 -33 0 -40 14 -12 22
-18 22 -47 3z"/>
<path d="M1838 1239 c-22 -12 -23 -29 -4 -29 8 0 17 -8 21 -17 3 -10 18 -33
33 -52 22 -26 33 -32 50 -27 35 12 28 52 -17 97 -40 41 -54 45 -83 28z"/>
<path d="M3331 1237 c-8 -11 -6 -18 9 -32 19 -17 22 -17 37 -3 9 9 13 24 10
32 -8 20 -40 21 -56 3z"/>
<path d="M2253 1210 c-32 -13 -29 -32 4 -28 17 2 29 10 31 21 4 19 -2 20 -35
7z"/>
<path d="M3902 1209 c-22 -8 -23 -13 -19 -62 3 -28 9 -67 12 -85 7 -30 10 -33
39 -30 25 2 30 7 27 23 -2 11 -4 40 -5 65 -2 38 -19 101 -28 99 -2 0 -14 -4
-26 -10z"/>
<path d="M908 1199 c-10 -5 -18 -15 -18 -22 0 -7 -9 -18 -20 -25 -27 -17 -25
-31 6 -42 37 -15 84 23 81 65 -2 32 -21 41 -49 24z"/>
<path d="M2845 1194 c-15 -15 -15 -19 -1 -32 17 -17 46 -10 46 11 0 8 -6 20
-14 26 -11 9 -18 8 -31 -5z"/>
<path d="M1712 1177 c-33 -15 -22 -31 24 -35 21 -2 43 -7 49 -12 5 -4 24 -10
40 -12 24 -2 31 1 33 18 5 35 -96 64 -146 41z"/>
<path d="M3537 1177 c-16 -11 -16 -14 -3 -32 14 -19 16 -19 32 -3 9 9 14 24
11 32 -8 19 -18 20 -40 3z"/>
<path d="M3693 1173 c-20 -7 -15 -27 11 -52 14 -13 30 -36 37 -53 10 -24 16
-28 33 -23 12 4 31 9 44 12 25 6 27 19 11 74 -19 60 -67 65 -55 5 l6 -31 -31
38 c-31 38 -34 39 -56 30z"/>
<path d="M4721 1106 c-16 -19 -5 -79 20 -109 16 -20 19 -20 33 -7 14 15 13 30
-10 118 -5 16 -29 15 -43 -2z"/>
<path d="M75 1099 c-4 -6 -5 -13 -2 -16 7 -7 27 6 27 18 0 12 -17 12 -25 -2z"/>
<path d="M4627 1104 c-14 -14 -7 -43 24 -103 21 -40 37 -61 49 -61 29 0 29 21
0 95 -19 49 -33 71 -47 73 -10 2 -22 0 -26 -4z"/>
<path d="M3424 1085 c-4 -9 -4 -36 0 -61 6 -49 -8 -53 -18 -4 -6 34 -29 48
-50 31 -21 -18 14 -115 43 -119 12 -2 24 3 27 12 7 18 35 21 51 5 18 -18 53
-1 53 27 0 14 7 41 15 61 11 26 12 40 5 47 -16 16 -42 -5 -56 -45 l-12 -34 -6
30 c-13 57 -40 83 -52 50z"/>
<path d="M4834 1085 c-10 -25 8 -36 35 -22 30 15 29 31 -4 35 -16 2 -27 -2
-31 -13z"/>
<path d="M2245 1063 c-11 -3 -25 -9 -31 -14 -5 -4 -20 -6 -31 -3 -15 4 -30 -2
-47 -19 -25 -25 -25 -25 -38 -5 -12 18 -19 19 -44 11 -37 -12 -41 -32 -13 -67
17 -22 28 -27 50 -22 17 3 32 0 39 -9 16 -19 34 -19 50 0 8 10 17 12 29 6 10
-6 23 -5 34 0 9 6 21 8 26 4 15 -9 61 13 61 30 0 21 -30 31 -41 14 -6 -11 -11
-11 -20 -2 -10 10 -10 18 -1 38 7 14 12 30 12 35 0 10 -3 11 -35 3z"/>
<path d="M3013 1058 c-6 -7 -16 -31 -23 -52 l-13 -40 -11 34 c-24 72 -72 65
-60 -9 8 -48 41 -74 68 -52 11 9 15 8 20 -4 7 -19 55 -20 62 0 4 8 1 21 -5 29
-7 8 -9 31 -5 60 6 37 4 46 -8 46 -9 0 -20 -6 -25 -12z"/>
<path d="M4533 1063 c-18 -7 -16 -38 2 -53 20 -17 47 5 43 34 -3 21 -22 29
-45 19z"/>
<path d="M630 1040 c0 -5 5 -10 10 -10 6 0 10 5 10 10 0 6 -4 10 -10 10 -5 0
-10 -4 -10 -10z"/>
<path d="M1640 1043 c-23 -9 -30 -26 -17 -41 9 -11 7 -17 -8 -28 -28 -21 -8
-50 31 -46 16 1 40 3 54 3 14 0 41 7 60 16 19 9 42 16 51 17 18 1 59 46 59 64
0 18 -19 23 -41 11 -16 -8 -27 -8 -45 2 -19 9 -30 10 -49 1 -18 -8 -32 -9 -45
-2 -20 11 -27 11 -50 3z"/>
<path d="M3100 1030 c-24 -24 -26 -60 -5 -100 17 -32 45 -39 65 -15 9 11 8 19
-4 37 -11 15 -14 33 -10 54 7 40 -17 53 -46 24z"/>
<path d="M3252 1038 c-18 -18 -15 -41 4 -34 9 3 18 6 20 6 8 0 4 29 -4 34 -5
3 -14 0 -20 -6z"/>
<path d="M1 985 c0 -46 1 -48 14 -31 16 22 16 22 33 -16 13 -31 42 -38 42 -10
0 10 5 23 11 29 8 8 8 17 -1 33 -10 18 -18 21 -42 16 -23 -4 -34 -1 -44 11
-12 16 -13 12 -13 -32z"/>
<path d="M868 1014 c-16 -8 -28 -18 -28 -23 0 -4 -14 -6 -30 -3 -17 2 -36 0
-43 -6 -9 -8 -16 -6 -26 9 -9 16 -18 19 -39 14 -38 -9 -43 -17 -36 -53 10 -47
38 -59 68 -29 l25 25 11 -29 c13 -29 33 -36 59 -20 10 7 23 -1 46 -25 35 -37
59 -43 73 -19 7 14 12 13 36 -6 33 -26 61 -16 62 22 0 13 8 36 18 51 10 15 16
39 14 55 -3 24 -8 28 -37 31 -63 6 -107 -34 -75 -69 15 -16 14 -17 -5 -12 -20
5 -26 23 -21 67 2 18 -15 36 -35 35 -5 0 -22 -7 -37 -15z"/>
<path d="M1912 1014 c-26 -18 -28 -32 -6 -41 8 -3 25 4 39 17 38 36 12 56 -33
24z"/>
<path d="M3601 1007 c-17 -21 -3 -49 23 -45 15 2 21 10 21 28 0 28 -26 38 -44
17z"/>
<path d="M4864 966 c-9 -24 0 -51 18 -54 19 -4 53 42 43 58 -9 15 -55 12 -61
-4z"/>
<path d="M3858 919 c-10 -5 -18 -20 -18 -32 -1 -20 -2 -20 -16 6 -15 28 -45
36 -62 15 -12 -17 21 -96 44 -105 9 -3 24 -1 34 5 12 7 21 7 28 0 16 -16 30
-1 42 42 17 63 -8 95 -52 69z"/>
<path d="M1117 897 c-12 -8 -18 -22 -15 -38 3 -21 8 -24 38 -21 61 4 82 64 25
70 -17 2 -38 -3 -48 -11z"/>
<path d="M4242 898 c-24 -24 -6 -100 26 -113 20 -8 44 15 36 34 -4 9 -7 32 -8
51 -1 27 -6 36 -21 38 -11 1 -26 -3 -33 -10z"/>
<path d="M4145 886 c-15 -11 -16 -15 -2 -48 16 -38 51 -58 70 -39 7 7 5 22 -8
50 -20 45 -36 55 -60 37z"/>
<path d="M2125 859 c-38 -34 -46 -73 -17 -87 53 -28 132 -19 132 14 0 13 -7
15 -36 9 -36 -6 -36 -6 -31 22 3 15 8 38 12 51 11 33 -17 29 -60 -9z"/>
<path d="M4360 840 c0 -47 24 -65 46 -35 20 27 17 45 -6 45 -25 0 -26 17 -2
23 10 3 6 5 -10 6 -26 1 -28 -2 -28 -39z"/>
<path d="M2018 856 c-18 -10 -30 -11 -34 -5 -7 13 -56 2 -66 -14 -7 -12 15
-61 32 -72 6 -4 16 -3 23 2 7 5 30 11 52 12 46 3 56 14 53 56 -3 35 -22 41
-60 21z"/>
<path d="M3700 850 c-23 -15 8 -65 40 -65 31 0 38 29 14 56 -19 21 -32 23 -54
9z"/>
<path d="M1662 834 c-27 -18 -28 -31 -5 -57 17 -18 17 -19 0 -28 -19 -11 -21
-18 -8 -38 7 -11 13 -10 35 4 14 10 26 23 26 30 0 7 7 16 16 19 9 3 14 12 11
20 -4 9 2 12 20 8 18 -3 30 1 39 13 26 35 -11 59 -56 35 -13 -7 -21 -7 -25 0
-9 14 -27 12 -53 -6z"/>
<path d="M3970 835 c-7 -9 -10 -18 -7 -21 10 -11 37 5 37 21 0 19 -14 19 -30
0z"/>
<path d="M73 830 c-13 -5 -23 -13 -23 -18 0 -15 24 -32 47 -32 18 0 23 -6 23
-24 0 -57 33 -36 44 28 7 36 6 38 -13 33 -11 -3 -25 1 -32 9 -13 16 -16 16
-46 4z"/>
<path d="M3192 808 c-6 -7 -14 -26 -17 -41 l-7 -28 -22 20 c-20 18 -43 25 -74
22 -24 -2 -8 -45 21 -59 18 -9 36 -30 47 -58 21 -48 22 -49 53 -33 11 7 37 12
57 13 33 1 35 3 38 36 2 20 14 46 29 62 42 45 1 68 -50 28 l-26 -20 -3 32 c-3
35 -27 48 -46 26z"/>
<path d="M781 796 c-14 -17 2 -32 39 -38 19 -2 26 -10 28 -30 4 -31 21 -39 75
-34 39 3 77 29 77 53 0 12 -9 13 -39 8 -36 -6 -40 -4 -43 17 -2 18 -9 23 -35
23 -17 0 -35 3 -39 8 -12 12 -51 8 -63 -7z"/>
<path d="M2877 793 c-13 -13 -7 -37 20 -75 18 -28 33 -38 47 -36 31 4 30 30 0
76 -25 39 -51 52 -67 35z"/>
<path d="M4572 788 c-14 -14 2 -38 26 -38 27 0 -2 -21 -40 -29 -28 -6 -33 -11
-33 -36 0 -29 -2 -30 -55 -36 -30 -4 -63 -10 -72 -14 -53 -21 19 -95 96 -98
57 -3 37 -29 -34 -43 -108 -22 -131 -41 -94 -78 11 -12 36 -16 95 -16 52 0 78
-4 74 -10 -4 -6 -12 -10 -18 -8 -21 4 -91 -13 -114 -27 -26 -18 -21 -48 15
-88 29 -30 40 -33 66 -14 18 13 17 15 -9 39 -34 32 -26 48 25 48 l38 0 6 -52
c23 -230 27 -243 61 -236 36 7 40 32 22 140 -10 57 -17 108 -17 114 0 7 43 11
133 10 116 -1 136 1 167 19 47 28 53 67 13 83 -46 19 -162 33 -243 31 -43 -1
-73 2 -70 7 3 5 36 8 73 6 74 -3 106 10 86 34 -8 10 -35 14 -85 14 -68 0 -98
10 -74 25 6 4 57 7 113 7 56 0 108 5 115 11 22 17 -7 37 -55 37 -40 0 -44 2
-38 20 8 25 -1 29 -86 38 -51 6 -64 11 -67 26 -6 29 10 35 53 21 35 -13 44
-12 75 3 41 20 54 67 24 89 -23 17 -156 17 -172 1z m98 -38 c11 -7 7 -10 -18
-10 -20 0 -31 4 -27 10 8 13 26 13 45 0z m-150 -150 c0 -5 -7 -10 -15 -10 -8
0 -15 5 -15 10 0 6 7 10 15 10 8 0 15 -4 15 -10z m149 -6 c2 -2 -12 -4 -32 -4
-20 0 -37 4 -37 10 0 8 58 3 69 -6z m-144 -144 c-3 -5 -13 -10 -21 -10 -8 0
-12 5 -9 10 3 6 13 10 21 10 8 0 12 -4 9 -10z m268 -49 c74 -10 86 -16 70 -32
-15 -15 -157 -23 -208 -12 -49 11 -60 39 -18 46 49 7 86 7 156 -2z"/>
<path d="M0 740 c0 -51 6 -60 28 -38 19 19 15 66 -8 78 -19 10 -20 8 -20 -40z"/>
<path d="M4926 764 c-9 -8 -16 -22 -16 -31 0 -11 -6 -7 -21 11 -22 28 -41 33
-57 13 -11 -13 -4 -31 37 -84 19 -26 29 -30 58 -28 46 5 58 17 43 45 -9 16 -9
25 -1 33 16 16 13 44 -5 51 -21 8 -20 8 -38 -10z"/>
<path d="M1078 748 c-31 -11 -36 -29 -12 -52 27 -27 64 -12 64 25 0 26 -21 38
-52 27z"/>
<path d="M4992 710 c0 -19 2 -27 5 -17 2 9 2 25 0 35 -3 9 -5 1 -5 -18z"/>
<path d="M3330 711 c-7 -15 -6 -23 6 -35 8 -9 20 -16 24 -16 15 0 43 48 35 60
-11 17 -54 11 -65 -9z"/>
<path d="M3505 720 c-10 -17 3 -44 39 -79 22 -21 41 -31 50 -28 24 10 19 34
-16 78 -30 38 -60 50 -73 29z"/>
<path d="M2835 704 c-15 -15 -15 -18 1 -35 20 -22 37 -24 52 -6 9 10 7 19 -4
35 -18 26 -27 27 -49 6z"/>
<path d="M3621 688 c-11 -29 12 -78 37 -78 32 0 40 18 27 58 -16 45 -50 56
-64 20z"/>
<path d="M2088 673 c-52 -27 -55 -36 -34 -88 14 -33 36 -48 36 -24 0 6 7 8 17
5 22 -9 33 11 26 46 -3 17 -1 28 6 28 6 0 11 -18 11 -43 0 -54 23 -79 59 -66
18 7 22 14 17 34 -4 17 -2 25 7 25 19 0 57 43 57 64 0 13 -5 16 -17 11 -40
-18 -87 -12 -106 12 -22 27 -19 27 -79 -4z"/>
<path d="M3737 680 c-32 -26 -35 -56 -6 -65 16 -5 27 0 45 21 42 51 12 84 -39
44z"/>
<path d="M3851 649 c-34 -33 -33 -49 2 -49 25 0 90 57 82 71 -12 19 -54 8 -84
-22z"/>
<path d="M1818 648 c-7 -7 -30 -14 -51 -14 -54 -2 -65 -16 -44 -59 16 -33 42
-46 49 -25 2 6 18 3 40 -8 25 -13 41 -16 53 -10 12 7 20 5 29 -7 17 -24 71
-17 71 10 0 17 -6 19 -32 17 -42 -4 -44 16 -3 25 21 4 32 13 36 29 9 34 -2 43
-41 37 -23 -4 -35 -2 -35 6 0 15 -55 14 -72 -1z"/>
<path d="M4100 629 c0 -46 46 -80 65 -48 5 7 13 5 25 -6 15 -14 19 -14 29 -1
7 8 11 25 9 38 -2 19 -9 23 -35 23 -18 0 -33 3 -33 7 0 5 -13 8 -30 8 -24 0
-30 -4 -30 -21z"/>
<path d="M4261 616 c-13 -16 -4 -46 14 -46 6 0 20 9 31 21 16 17 16 22 4 29
-21 13 -36 12 -49 -4z"/>
<path d="M0 579 c0 -20 8 -37 22 -49 20 -16 26 -17 50 -4 29 15 39 54 14 54
-8 0 -16 7 -20 15 -3 9 -18 15 -36 15 -27 0 -30 -3 -30 -31z"/>
<path d="M820 600 c-8 -5 -28 -10 -43 -10 -35 0 -67 -16 -67 -34 0 -19 86 -96
107 -96 29 0 44 15 37 35 -5 13 -3 16 7 13 8 -3 13 -10 12 -17 -4 -14 43 -45
60 -38 14 5 50 135 41 148 -6 10 -78 -1 -82 -12 -2 -5 -10 -2 -19 6 -17 17
-32 19 -53 5z"/>
<path d="M989 564 c-9 -11 -10 -20 -2 -32 23 -37 73 -20 73 24 0 20 -5 24 -29
24 -16 0 -34 -7 -42 -16z"/>
<path d="M3067 497 c-3 -7 8 -42 25 -76 l30 -62 46 3 c46 3 47 3 48 39 1 20 4
41 8 47 6 11 -19 42 -34 42 -13 0 -40 -30 -40 -43 0 -7 -8 4 -18 23 -18 37
-55 52 -65 27z"/>
<path d="M3282 498 c-5 -7 -17 -27 -26 -45 -14 -29 -14 -33 0 -47 20 -21 27
-20 51 7 29 31 45 66 39 83 -7 17 -50 19 -64 2z"/>
<path d="M1978 493 c-10 -3 -18 -9 -18 -14 0 -5 -7 -9 -16 -9 -25 0 -74 -39
-74 -60 0 -28 32 -62 53 -55 9 4 17 13 17 21 0 23 18 16 22 -8 2 -19 10 -23
43 -24 22 -1 51 -4 65 -6 22 -3 25 1 28 30 2 17 7 32 11 32 10 0 22 35 24 69
2 24 -1 25 -68 26 -38 1 -78 0 -87 -2z"/>
<path d="M3663 493 c-18 -7 -16 -49 2 -77 13 -19 24 -23 62 -22 41 1 48 4 53
26 11 42 -28 68 -58 38 -8 -8 -14 -5 -21 15 -11 27 -15 30 -38 20z"/>
<path d="M2966 471 c-10 -16 3 -36 35 -55 43 -26 58 -8 28 33 -22 30 -52 40
-63 22z"/>
<path d="M3825 455 c-30 -29 -31 -41 -6 -54 21 -12 38 -1 64 40 27 45 -17 56
-58 14z"/>
<path d="M4043 459 c-13 -13 13 -75 40 -97 17 -15 47 -5 47 14 0 11 5 12 18 5
24 -13 42 4 42 36 0 32 -47 33 -59 1 -8 -22 -9 -21 -24 15 -16 38 -42 48 -64
26z"/>
<path d="M3538 453 c-38 -9 -19 -41 38 -67 31 -14 60 -23 65 -20 16 10 9 32
-16 48 -56 36 -71 43 -87 39z"/>
<path d="M971 381 c-21 -14 -5 -43 21 -39 15 2 23 10 23 23 0 22 -22 30 -44
16z"/>
<path d="M761 371 c-11 -7 -11 -15 -2 -44 17 -49 35 -63 66 -49 14 7 25 16 25
21 0 5 9 7 20 4 25 -7 50 13 50 39 0 24 -25 33 -55 20 -18 -8 -26 -8 -35 4
-14 16 -48 18 -69 5z"/>
<path d="M0 284 c0 -30 2 -34 14 -25 8 7 12 21 9 32 -9 35 -23 31 -23 -7z"/>
<path d="M3904 285 c-10 -25 10 -39 36 -25 26 14 22 34 -8 38 -13 2 -25 -3
-28 -13z"/>
<path d="M3547 283 c-4 -3 -7 -22 -8 -42 0 -20 -3 -30 -6 -23 -2 6 -18 12 -35
12 -22 0 -31 -6 -35 -20 -5 -20 -6 -20 -25 -3 -15 13 -23 15 -36 7 -28 -18
-25 -46 8 -87 36 -42 50 -45 91 -17 l28 21 13 -21 c15 -24 26 -25 49 -4 14 12
21 13 37 3 25 -15 55 -5 50 18 -3 13 -13 18 -40 18 -20 0 -38 2 -41 5 -3 3 -2
26 2 51 4 26 4 56 0 68 -8 20 -38 29 -52 14z"/>
<path d="M3288 273 c-22 -5 -24 -41 -2 -50 8 -3 23 2 32 11 14 14 14 18 2 29
-8 8 -23 12 -32 10z"/>
<path d="M3710 265 c-9 -11 -8 -20 6 -45 33 -55 85 -48 61 9 -22 53 -43 65
-67 36z"/>
<path d="M3807 274 c-14 -14 -7 -51 13 -69 18 -16 22 -17 35 -4 20 20 6 73
-21 77 -11 2 -23 0 -27 -4z"/>
<path d="M4712 267 c-10 -11 -9 -17 2 -26 20 -17 58 -4 54 17 -4 22 -41 27
-56 9z"/>
<path d="M4283 240 c-12 -5 -24 -18 -28 -29 -3 -12 -12 -18 -20 -15 -7 3 -23
1 -34 -6 -16 -8 -21 -20 -21 -54 0 -26 6 -48 15 -56 21 -18 37 -2 30 30 -6 27
11 70 27 70 4 0 5 -19 2 -43 -5 -34 -2 -47 12 -61 17 -18 18 -18 31 0 8 11 11
30 8 45 -4 15 1 44 10 65 19 45 5 68 -32 54z"/>
<path d="M2000 214 c-6 -14 -10 -34 -10 -45 0 -19 -1 -20 -29 -3 -19 11 -38
15 -56 10 -22 -6 -26 -11 -21 -31 5 -21 3 -24 -23 -23 -32 1 -51 -8 -51 -25 0
-17 68 -87 84 -87 23 0 37 27 31 57 l-7 28 29 -32 c23 -26 35 -31 73 -32 24 0
50 5 57 10 8 7 19 6 35 -5 38 -25 51 -7 52 74 2 81 -8 94 -54 67 -30 -18 -40
-14 -40 18 0 47 -54 62 -70 19z"/>
<path d="M4044 207 c-2 -7 2 -30 11 -51 13 -30 20 -36 35 -31 14 4 20 2 20 -8
0 -8 7 -21 16 -28 25 -20 46 14 38 61 -9 47 -21 61 -49 54 -13 -3 -26 -1 -29
5 -10 15 -36 14 -42 -2z"/>
<path d="M3940 200 c-13 -9 -12 -12 4 -25 34 -26 63 -15 50 19 -7 18 -32 21
-54 6z"/>
<path d="M4955 190 c-3 -5 -19 -10 -35 -10 -16 0 -31 -4 -35 -9 -7 -12 34 -41
50 -35 6 3 18 -2 25 -11 24 -29 40 -18 40 30 0 38 -3 45 -19 45 -11 0 -23 -4
-26 -10z"/>
<path d="M952 161 c-8 -4 -29 -6 -49 -4 -37 4 -67 -12 -59 -32 3 -10 -2 -10
-25 -2 -21 8 -34 8 -46 1 -29 -18 -26 -32 14 -69 42 -39 82 -46 90 -16 5 22
31 31 86 31 30 0 39 5 47 24 5 13 7 32 5 42 -2 11 -4 22 -4 27 -1 10 -43 9
-59 -2z"/>
<path d="M3080 153 c0 -21 37 -95 53 -105 6 -3 16 -4 23 -1 8 3 21 -2 29 -11
22 -22 46 -20 52 4 5 20 5 20 30 0 35 -27 68 -11 58 28 -3 15 -12 33 -20 41
-17 18 -62 7 -68 -17 -3 -11 -5 -7 -6 10 -2 52 -56 73 -63 25 -3 -20 -5 -19
-18 8 -18 36 -70 49 -70 18z"/>
<path d="M2218 133 c-10 -2 -19 -12 -19 -21 -4 -52 11 -82 41 -82 30 0 41 24
32 66 -8 39 -20 47 -54 37z"/>
<path d="M3351 111 c-19 -12 -6 -43 16 -39 10 2 18 12 18 22 0 22 -14 29 -34
17z"/>
<path d="M2318 89 c-24 -13 -23 -42 2 -64 30 -27 52 -12 48 32 -3 40 -20 51
-50 32z"/>
<path d="M1051 76 c-16 -19 12 -40 44 -32 37 9 34 46 -4 46 -16 0 -34 -6 -40
-14z"/>
<path d="M3850 62 c0 -13 -8 -17 -32 -17 -26 0 -33 -4 -33 -20 0 -15 8 -21 34
-23 20 -2 37 2 42 10 7 10 9 10 9 1 0 -8 14 -13 35 -13 40 0 45 15 19 55 -20
31 -74 36 -74 7z"/>
<path d="M2812 58 c-6 -6 -12 -22 -12 -35 0 -20 5 -23 39 -23 38 0 38 0 32 33
-7 35 -36 48 -59 25z"/>
<path d="M2930 52 c-16 -5 -40 -31 -40 -44 0 -4 20 -8 45 -8 38 0 45 3 45 20
0 22 -27 40 -50 32z"/>
<path d="M3017 44 c-4 -4 -7 -16 -7 -26 0 -15 8 -18 46 -18 46 0 46 0 32 22
-15 23 -57 36 -71 22z"/>
<path d="M122 28 c-21 -21 -14 -28 29 -28 33 0 40 3 37 18 -4 21 -48 28 -66
10z"/>
<path d="M1698 20 c-18 -20 -17 -20 28 -20 38 0 45 3 42 18 -5 25 -49 27 -70
2z"/>
<path d="M2503 33 c-28 -11 -13 -33 22 -33 28 0 35 4 35 20 0 20 -26 26 -57
13z"/>
<path d="M2593 24 c-25 -11 -12 -24 23 -24 24 0 34 4 32 13 -5 13 -35 19 -55
11z"/>
<path d="M3997 23 c-16 -15 -4 -23 34 -23 36 0 40 2 29 15 -13 15 -51 20 -63
8z"/>
<path d="M4403 23 c-26 -10 -12 -23 23 -23 31 0 35 2 24 15 -13 15 -25 17 -47
8z"/>
<path d="M220 10 c-11 -7 -7 -10 18 -10 20 0 31 4 27 10 -8 13 -26 13 -45 0z"/>
<path d="M675 10 c-17 -7 -15 -9 13 -9 17 -1 32 4 32 9 0 12 -17 12 -45 0z"/>
<path d="M1080 10 c-12 -8 -9 -10 13 -10 16 0 26 4 22 10 -8 12 -16 12 -35 0z"/>
<path d="M3395 10 c-4 -6 12 -10 40 -10 28 0 44 4 40 10 -3 6 -21 10 -40 10
-19 0 -37 -4 -40 -10z"/>
<path d="M1503 3 c9 -2 25 -2 35 0 9 3 1 5 -18 5 -19 0 -27 -2 -17 -5z"/>
<path d="M4493 3 c9 -2 25 -2 35 0 9 3 1 5 -18 5 -19 0 -27 -2 -17 -5z"/>
</g>
</svg>
