<?xml version="1.0" standalone="no"?>
<!DOCTYPE svg PUBLIC "-//W3C//DTD SVG 20010904//EN"
 "http://www.w3.org/TR/2001/REC-SVG-20010904/DTD/svg10.dtd">
<svg version="1.0" xmlns="http://www.w3.org/2000/svg"
 width="500.000000pt" height="878.000000pt" viewBox="0 0 500.000000 878.000000"
 preserveAspectRatio="xMidYMid meet">
<metadata>
Created by potrace 1.15, written by Peter Selinger 2001-2017
</metadata>
<g transform="translate(0.000000,878.000000) scale(0.100000,-0.100000)"
fill="#000000" stroke="none">
<path d="M2520 8625 c-10 -13 -10 -19 4 -34 15 -17 15 -22 -11 -79 -16 -34
-30 -61 -33 -62 -3 0 -18 25 -33 56 -25 51 -27 58 -12 73 31 35 13 51 -59 51
-62 0 -73 -17 -37 -55 17 -16 44 -64 62 -105 25 -60 29 -78 20 -92 -18 -28 -5
-38 50 -38 63 0 96 15 78 36 -9 11 -4 31 22 96 18 46 44 95 57 110 37 40 24
58 -41 58 -37 0 -59 -5 -67 -15z"/>
<path d="M2410 6390 c-38 -4 -87 -16 -114 -30 -57 -27 -116 -76 -116 -95 0 -8
-8 -20 -17 -27 -61 -46 -77 -87 -90 -229 -4 -52 -2 -59 27 -92 17 -20 57 -51
88 -68 75 -43 114 -75 131 -110 12 -27 11 -32 -12 -62 -14 -18 -30 -52 -36
-75 -7 -23 -23 -65 -37 -93 -26 -50 -46 -144 -64 -289 -5 -41 -14 -97 -19
-125 -6 -27 -13 -160 -16 -295 -3 -135 -9 -292 -14 -350 -8 -115 -6 -641 4
-785 3 -49 6 -154 5 -232 0 -85 4 -144 10 -148 6 -4 7 -11 3 -18 -3 -6 -7 -27
-9 -46 -9 -167 -16 -377 -16 -478 l0 -123 -72 6 c-39 3 -96 13 -126 21 -51 14
-53 16 -32 26 17 8 32 7 55 -2 18 -7 41 -13 52 -12 11 0 33 1 49 1 16 0 33 5
38 12 25 40 -11 94 -57 86 -29 -6 -29 -5 -14 37 14 38 8 70 -25 117 -13 20
-27 51 -31 69 -13 60 -44 119 -61 119 -9 0 -32 -16 -51 -36 -39 -42 -51 -38
-35 12 10 32 9 36 -13 44 -13 5 -26 14 -30 19 -3 6 -16 11 -29 11 -12 0 -27 5
-34 12 -9 9 -16 8 -29 -5 -14 -13 -15 -21 -5 -42 18 -39 15 -44 -22 -38 -46 7
-57 -14 -22 -42 39 -31 16 -42 -33 -17 -46 24 -78 14 -60 -19 9 -17 13 -18 26
-7 14 12 15 7 9 -45 l-7 -57 30 -6 c26 -6 31 -11 31 -35 0 -37 -22 -38 -48 -2
-20 27 -21 27 -67 15 -54 -14 -175 -6 -174 12 0 6 4 20 8 31 5 12 4 26 -2 34
-6 7 -12 49 -12 91 -1 103 -12 116 -102 122 -55 3 -69 8 -87 29 -30 36 -72 50
-161 54 -42 2 -79 6 -83 10 -9 9 -23 132 -23 201 1 56 -2 62 -30 83 -16 12
-40 23 -52 23 -12 1 -28 6 -35 12 -14 10 -141 10 -175 0 -25 -8 -47 -67 -54
-151 -7 -84 -20 -107 -19 -33 1 37 -4 54 -22 73 -60 64 -153 29 -198 -73 -23
-53 -43 -71 -66 -59 -15 8 -24 5 -47 -20 -16 -17 -36 -31 -45 -31 -21 0 -36
-31 -36 -77 0 -22 -7 -48 -15 -59 -9 -12 -12 -31 -9 -49 5 -28 2 -31 -28 -40
l-33 -10 -3 -193 -2 -193 31 17 c26 13 36 14 55 3 21 -11 32 -8 91 22 51 26
69 41 77 64 10 28 33 61 92 133 19 23 24 24 38 13 25 -21 19 -40 -29 -87 -49
-47 -57 -71 -24 -76 19 -3 15 -9 -29 -55 -43 -45 -56 -53 -87 -53 -68 0 -133
-46 -105 -74 8 -8 20 -6 41 7 17 9 46 17 65 17 25 0 50 11 89 40 30 22 64 40
75 40 11 0 43 21 70 46 47 44 61 46 41 6 -41 -80 -45 -92 -34 -103 6 -6 18 -9
26 -6 23 8 76 97 83 136 3 20 14 52 25 72 10 20 19 44 19 53 0 9 6 16 13 16
16 0 47 -31 47 -47 0 -19 30 -36 69 -39 40 -2 121 -38 121 -53 0 -10 -69 -25
-77 -17 -3 3 -14 1 -23 -4 -14 -8 -27 0 -63 36 -40 40 -48 44 -67 34 -31 -16
-34 -35 -16 -81 14 -35 15 -41 2 -36 -18 7 -62 -26 -71 -53 -3 -10 -28 -33
-56 -50 -48 -29 -57 -50 -21 -50 9 0 42 16 72 35 30 19 64 39 75 44 31 14 75
58 75 76 0 18 23 20 50 3 16 -10 23 -10 36 3 11 12 23 14 42 8 36 -10 159 -31
199 -33 18 0 38 -7 44 -13 7 -7 20 -13 28 -13 8 0 23 -7 33 -17 15 -13 23 -14
43 -5 15 7 25 20 25 32 0 13 7 20 20 20 10 0 28 9 38 21 17 18 24 19 58 10 22
-6 48 -17 59 -24 11 -8 49 -17 85 -20 55 -5 68 -3 86 14 20 19 21 19 70 -13
59 -38 128 -51 164 -33 21 11 32 11 65 -1 43 -14 81 -20 188 -29 95 -8 97 -9
97 -66 0 -40 -3 -49 -17 -50 -10 0 -43 -4 -73 -9 -54 -9 -200 -24 -335 -35
-38 -3 -76 -12 -85 -19 -26 -23 -139 -44 -300 -56 -85 -6 -204 -15 -265 -21
-60 -5 -182 -14 -270 -19 -131 -7 -168 -12 -202 -29 -23 -12 -52 -21 -65 -21
-12 0 -77 -11 -143 -24 -66 -13 -160 -31 -210 -41 -129 -23 -155 -34 -155 -63
0 -20 4 -23 23 -18 102 29 334 71 437 80 39 3 134 31 164 47 10 6 88 15 175
20 86 5 183 11 216 14 111 9 200 15 282 20 44 2 114 11 155 20 40 8 83 15 96
15 12 0 48 11 80 24 32 13 99 29 152 35 52 7 125 16 162 21 37 6 92 10 122 10
47 0 56 -3 56 -18 0 -15 -18 -21 -127 -36 -71 -10 -139 -23 -151 -27 -48 -18
-170 -39 -287 -48 -66 -6 -145 -15 -175 -20 -30 -6 -91 -12 -135 -15 -44 -2
-109 -9 -145 -15 -36 -6 -101 -11 -145 -11 -106 -1 -358 -34 -415 -55 -111
-41 -173 -58 -290 -81 -69 -13 -153 -29 -188 -36 -59 -11 -62 -13 -62 -41 0
-21 4 -28 14 -24 8 3 52 11 98 17 46 6 103 17 128 24 25 7 51 11 58 9 7 -3 18
-1 25 5 7 5 37 12 67 16 30 4 64 13 75 20 39 25 161 59 240 68 44 4 150 12
235 17 85 5 175 14 200 19 25 6 86 10 135 10 50 1 104 6 120 13 17 7 73 15
125 19 128 10 228 26 281 44 24 9 54 16 67 16 13 0 68 11 124 25 120 30 128
30 128 7 0 -14 -19 -22 -97 -39 -54 -12 -127 -27 -163 -33 -35 -7 -76 -18 -90
-25 -14 -7 -59 -17 -100 -21 -99 -9 -123 -18 -115 -44 5 -16 2 -20 -19 -20
-18 0 -25 6 -28 22 -3 20 -9 23 -48 22 -25 0 -83 -6 -130 -13 -47 -7 -116 -14
-155 -16 -38 -1 -90 -8 -115 -14 -25 -5 -90 -10 -146 -11 -70 0 -106 -4 -120
-14 -10 -8 -16 -17 -12 -21 27 -27 237 -26 291 2 17 9 52 13 95 11 37 -1 96 1
132 5 59 6 56 5 -38 -18 -56 -13 -130 -36 -165 -51 -34 -14 -82 -33 -107 -41
-25 -8 -67 -23 -93 -33 l-48 -19 -9 22 c-4 12 -11 30 -14 39 -3 9 -16 24 -30
33 -22 15 -32 15 -78 5 -105 -25 -167 -74 -227 -182 -24 -43 -40 -59 -59 -63
-15 -4 -74 -17 -132 -31 -58 -13 -148 -32 -200 -42 -85 -15 -95 -19 -98 -39
-4 -27 -6 -27 83 -8 39 9 97 20 130 26 33 5 80 18 105 28 25 10 65 22 89 26
50 8 50 18 4 -105 -21 -60 -27 -93 -28 -161 l0 -86 -43 19 c-50 22 -105 25
-147 7 -16 -6 -66 -17 -110 -23 l-80 -11 -3 -34 -3 -33 45 6 c58 9 64 -3 37
-67 -16 -38 -26 -49 -51 -53 l-30 -6 0 -184 c0 -183 0 -184 22 -181 17 1 23
-5 28 -28 12 -54 42 -106 71 -121 16 -8 29 -19 29 -24 0 -15 -38 -22 -60 -10
-12 6 -35 10 -53 8 l-32 -3 -3 -252 c-1 -139 0 -253 3 -253 4 0 21 11 39 25
28 21 44 25 102 25 75 0 114 17 114 49 0 24 -18 38 -55 43 l-30 4 30 7 c70 18
80 29 78 86 -4 78 19 60 34 -28 16 -99 49 -223 66 -258 25 -47 124 -123 160
-123 29 0 354 250 450 345 59 59 81 75 89 67 7 -7 27 -12 46 -12 26 0 43 9 69
35 l35 35 105 0 c123 0 232 -14 288 -38 22 -9 74 -38 115 -65 63 -40 82 -47
115 -45 l40 3 0 235 0 235 -32 40 c-36 45 -63 112 -63 159 -1 17 -7 60 -15 96
-13 61 -12 66 5 85 12 13 21 43 26 82 l6 62 149 3 149 3 0 -58 c0 -57 0 -58
36 -73 22 -9 60 -14 93 -13 l56 3 0 -65 c0 -83 24 -116 115 -155 54 -24 78
-28 143 -28 l77 2 0 -28 c0 -15 8 -34 18 -42 22 -20 109 -58 133 -58 29 0 79
-49 79 -77 0 -14 10 -41 21 -60 17 -28 19 -39 11 -56 -6 -12 -13 -32 -17 -44
-8 -30 -51 -55 -101 -58 -23 -2 -46 -5 -51 -8 -5 -3 -40 -13 -78 -21 -39 -9
-80 -18 -92 -21 -13 -3 -35 -24 -50 -46 l-27 -41 27 -22 c71 -56 86 -65 132
-72 28 -4 93 -9 145 -10 52 -1 138 -5 190 -7 52 -3 99 -2 105 2 5 5 33 8 60 8
91 -1 115 14 141 86 5 13 13 17 33 13 32 -7 102 16 116 38 7 11 5 26 -5 48 -7
18 -13 53 -12 78 1 36 -4 52 -29 83 -30 37 -30 38 -22 118 l8 80 102 2 101 2
49 41 c54 46 66 87 39 129 -9 14 -16 42 -16 63 0 21 -5 43 -10 48 -16 16 17
74 41 74 11 0 40 19 65 43 33 31 44 51 46 76 3 39 0 38 106 45 103 7 101 16
41 -174 -6 -19 -20 -55 -31 -80 -48 -109 -61 -137 -78 -170 -81 -152 -84 -137
45 -196 55 -25 72 -28 194 -30 74 -2 142 1 151 6 38 20 38 -10 0 -118 -57
-162 -165 -350 -244 -426 l-31 -29 26 -20 c57 -42 236 -107 296 -107 41 0 43
1 43 31 0 17 4 28 10 24 5 -3 22 0 37 8 15 8 71 22 123 31 124 23 130 25 110
36 -9 5 -42 2 -80 -6 -36 -9 -85 -19 -110 -23 -25 -5 -53 -12 -63 -16 -21 -9
-23 18 -6 74 12 40 36 51 136 66 24 4 46 11 49 17 5 7 -12 8 -52 3 -85 -12
-107 -11 -111 1 -9 26 28 44 88 44 36 0 59 4 59 11 0 7 -23 10 -67 7 -57 -2
-68 0 -71 14 -4 22 21 34 84 42 46 5 53 3 66 -17 9 -12 19 -33 23 -47 4 -14
19 -40 33 -58 14 -18 22 -35 19 -39 -7 -6 -165 -25 -204 -24 -26 1 -40 -16
-25 -31 8 -8 16 -8 24 -1 7 5 24 10 38 11 14 1 63 8 110 17 l85 15 32 -38 c18
-20 33 -42 33 -49 0 -7 -19 -17 -43 -23 -23 -7 -78 -23 -123 -36 -44 -13 -91
-24 -105 -25 -13 0 -33 -4 -44 -9 -13 -6 9 -9 67 -9 125 -1 308 46 308 80 0
19 -22 53 -70 109 -81 94 -112 171 -154 374 -15 75 -13 91 15 107 21 11 59 79
59 104 0 9 -9 33 -20 55 -11 22 -20 51 -20 64 0 29 55 139 120 240 25 38 61
99 80 135 41 77 56 83 173 78 l77 -4 0 39 0 38 -90 0 -91 0 -20 34 c-19 32
-81 66 -134 72 -53 7 -186 16 -237 18 -72 1 -85 13 -64 55 9 17 21 31 26 31 9
0 50 83 50 102 0 5 27 64 60 132 98 200 120 296 80 344 -36 43 -133 63 -375
77 -174 10 -302 -29 -382 -118 -29 -33 -34 -45 -30 -71 6 -39 81 -193 117
-241 23 -31 110 -216 110 -234 0 -12 -7 -24 -16 -28 -9 -3 -22 -20 -29 -36
-11 -26 -10 -36 3 -64 10 -21 12 -37 6 -42 -12 -13 -100 -17 -151 -7 -47 8
-52 19 -58 121 -2 33 -9 87 -14 120 -37 218 -56 513 -36 545 3 5 15 10 26 10
38 0 120 42 117 59 -3 12 -15 16 -53 16 -28 -1 -63 -5 -79 -9 -25 -8 -28 -7
-23 8 4 10 7 57 8 104 0 83 1 85 13 52 10 -26 19 -35 35 -34 21 1 21 1 2 -20
-23 -25 -17 -40 21 -49 20 -6 35 0 66 26 22 17 54 40 72 50 30 16 31 19 17 35
-14 16 -14 18 9 29 21 10 26 8 34 -8 6 -10 8 -19 5 -19 -3 0 1 -13 10 -30 19
-36 30 -38 50 -6 13 20 15 39 9 98 -3 40 -13 85 -20 99 -7 15 -11 29 -7 32 3
4 -6 11 -20 16 -14 5 -28 14 -31 20 -9 14 -90 24 -131 17 -25 -5 -39 -14 -45
-30 -5 -13 -19 -26 -32 -29 -13 -4 -32 -20 -42 -37 -10 -18 -22 -28 -27 -23
-18 18 -29 259 -13 285 3 5 15 8 28 8 12 0 26 4 32 10 8 8 122 21 204 22 132
1 396 -35 500 -69 101 -33 262 -128 258 -153 -2 -9 -30 -21 -73 -33 -39 -10
-90 -28 -115 -41 l-46 -24 -41 38 c-49 46 -112 60 -175 39 -83 -27 -120 -79
-120 -168 -1 -89 -11 -98 -148 -130 -25 -6 -54 -10 -65 -8 -29 3 -33 -38 -5
-53 41 -22 203 16 253 59 17 16 48 32 67 36 91 18 110 26 110 45 0 10 -9 22
-21 25 -16 5 -18 10 -9 20 7 8 9 23 5 35 -9 29 30 43 69 23 28 -15 28 -15 7
-29 -26 -19 -44 -51 -36 -64 4 -6 28 8 57 32 74 63 155 118 174 118 9 0 55 13
103 29 70 24 189 49 211 44 72 -16 80 -15 80 5 0 26 -35 34 -128 31 -68 -3
-71 -2 -123 38 -54 41 -188 110 -244 124 -16 4 -57 15 -90 24 -144 40 -398 54
-570 30 -66 -9 -129 -17 -140 -18 -31 -3 -45 96 -40 271 4 117 2 151 -11 180
-9 21 -18 69 -20 107 -2 39 -6 113 -9 165 -3 52 -7 183 -10 290 -3 107 -9 256
-15 330 -5 74 -12 207 -15 295 -2 88 -11 230 -20 315 -8 85 -17 236 -20 335
-10 298 -23 366 -103 520 -43 82 -50 90 -77 91 -16 1 -46 9 -66 18 -20 8 -67
18 -105 22 -80 8 -114 31 -114 76 0 61 -68 86 -147 53 -20 -9 -44 -13 -52 -9
-12 5 -8 9 14 13 27 6 30 10 27 41 -2 19 -11 46 -20 60 -9 14 -15 35 -13 47 2
19 -4 24 -36 29 -31 5 -48 17 -88 65 -85 100 -215 151 -355 139z m145 -75 c52
-24 66 -35 59 -46 -3 -6 -20 -1 -37 9 -64 38 -163 51 -236 31 -7 -2 -15 1 -18
8 -6 17 22 22 112 19 52 -2 94 -9 120 -21z m-218 -61 c-3 -3 -12 -4 -19 -1 -8
3 -5 6 6 6 11 1 17 -2 13 -5z m143 -4 c11 -7 8 -9 -15 -9 -16 1 -41 5 -55 9
-22 7 -20 8 15 9 22 0 47 -4 55 -9z m71 -10 c10 -6 19 -15 19 -19 0 -13 -53 3
-58 17 -5 15 13 15 39 2z m-33 -72 c44 -11 57 -21 48 -37 -3 -5 -36 2 -73 15
-38 13 -78 24 -90 24 -13 0 -23 5 -23 11 0 11 66 5 138 -13z m142 -9 c0 -6 -4
-7 -10 -4 -5 3 -10 11 -10 16 0 6 5 7 10 4 6 -3 10 -11 10 -16z m-277 -4 c31
-4 60 -12 63 -17 4 -7 -9 -7 -37 -2 -97 19 -202 0 -251 -46 -22 -20 -48 -27
-48 -12 0 14 90 72 113 73 12 0 31 4 42 9 11 5 29 7 40 5 11 -2 46 -7 78 -10z
m353 -50 c21 -14 30 -25 21 -25 -15 0 -79 49 -65 50 4 0 24 -11 44 -25z m-286
-55 c64 -30 130 -53 169 -59 87 -14 107 -34 26 -26 -68 8 -156 38 -200 70 -63
45 -163 60 -209 29 -14 -8 -27 -11 -30 -6 -14 23 60 54 109 46 17 -3 77 -27
135 -54z m78 34 c68 -17 92 -29 92 -46 0 -10 -6 -9 -115 24 -122 37 -105 53
23 22z m333 1 c1 -16 -16 -16 -36 0 -19 15 -19 15 8 13 15 -2 28 -7 28 -13z
m-695 -57 c-9 -13 -19 -31 -23 -40 -6 -20 -19 -23 -28 -9 -3 5 0 13 5 16 6 4
15 18 20 31 5 13 17 24 26 24 15 0 15 -2 0 -22z m264 -45 c65 -34 104 -48 145
-51 70 -6 72 -22 3 -22 -65 0 -111 16 -168 58 -25 18 -57 36 -73 39 -34 7 -46
23 -17 23 11 0 61 -21 110 -47z m-120 7 c0 -12 -28 -25 -36 -17 -9 9 6 27 22
27 8 0 14 -5 14 -10z m716 -26 c0 -16 6 -39 12 -51 17 -30 1 -29 -28 2 -13 14
-31 25 -40 25 -9 0 -25 6 -35 14 -17 12 -15 14 26 29 56 19 64 17 65 -19z
m-651 -34 c16 -7 14 -9 -15 -9 -19 0 -42 4 -50 9 -11 7 -8 10 15 9 17 0 39 -4
50 -9z m385 0 c0 -5 -4 -10 -9 -10 -6 0 -13 5 -16 10 -3 6 1 10 9 10 9 0 16
-4 16 -10z m196 -5 c4 -8 3 -23 0 -32 -6 -15 -8 -15 -23 -1 -16 17 -12 48 7
48 6 0 13 -7 16 -15z m-253 -2 c-7 -2 -21 -2 -30 0 -10 3 -4 5 12 5 17 0 24
-2 18 -5z m191 -19 c7 -19 -1 -34 -19 -34 -18 0 -28 17 -21 35 7 20 32 19 40
-1z m-679 -24 c3 -5 2 -10 -4 -10 -5 0 -13 5 -16 10 -3 6 -2 10 4 10 5 0 13
-4 16 -10z m490 -18 c0 -18 -20 -15 -23 4 -3 10 1 15 10 12 7 -3 13 -10 13
-16z m-271 -24 c-1 -13 -3 -31 -3 -40 -1 -10 -5 -18 -9 -18 -5 0 -8 10 -6 23
1 12 3 30 3 40 1 9 5 17 9 17 5 0 8 -10 6 -22z m-44 -15 c-1 -24 -2 -26 -11
-10 -5 9 -7 22 -4 27 10 17 15 11 15 -17z m77 -15 c-3 -7 -5 -2 -5 12 0 14 2
19 5 13 2 -7 2 -19 0 -25z m728 6 c11 -8 27 -14 36 -14 18 0 63 -49 54 -58 -2
-3 -19 6 -37 20 -38 29 -111 49 -149 41 -28 -5 -45 9 -34 28 9 14 103 1 130
-17z m-345 -44 c11 -7 7 -10 -18 -10 -20 0 -31 4 -27 10 8 13 26 13 45 0z
m-161 -27 c13 -8 19 -19 15 -23 -10 -10 -84 10 -84 22 0 5 -19 8 -42 8 -33 0
-39 3 -28 11 20 13 108 2 139 -18z m83 15 c-9 -9 -15 -9 -24 0 -9 9 -7 12 12
12 19 0 21 -3 12 -12z m428 -7 c18 -35 12 -42 -20 -26 -16 9 -30 22 -30 30 0
22 38 18 50 -4z m-216 -66 c66 -69 103 -151 126 -275 13 -76 23 -216 14 -207
-5 5 -14 60 -20 122 -19 183 -57 280 -143 356 -35 32 -49 49 -38 49 10 0 37
-20 61 -45z m391 -84 c15 -38 25 -77 23 -87 -4 -15 -7 -12 -13 11 -4 17 -20
56 -36 88 -32 65 -37 86 -15 67 8 -6 27 -42 41 -79z m-741 37 c11 -42 5 -53
-9 -19 -18 39 -18 41 -6 41 5 0 11 -10 15 -22z m616 -145 c5 -70 14 -171 19
-223 11 -101 15 -297 6 -288 -3 3 -8 50 -10 104 -4 101 -31 457 -41 529 -4 31
-3 36 6 23 6 -10 15 -75 20 -145z m-839 21 c-6 -33 -11 -106 -10 -164 1 -148
0 -182 -6 -188 -15 -15 -19 23 -18 171 1 128 5 172 18 205 10 24 19 41 22 38
2 -2 -1 -30 -6 -62z m246 -26 c-3 -7 -5 -2 -5 12 0 14 2 19 5 13 2 -7 2 -19 0
-25z m-27 -82 c0 -3 -4 -8 -10 -11 -5 -3 -10 -1 -10 4 0 6 5 11 10 11 6 0 10
-2 10 -4z m787 -28 c-3 -8 -6 -5 -6 6 -1 11 2 17 5 13 3 -3 4 -12 1 -19z m21
-213 c-1 -87 -1 -88 -8 -30 -11 84 -11 178 0 145 4 -14 8 -65 8 -115z m-769
-17 c1 -5 -3 -8 -9 -8 -5 0 -10 12 -9 28 0 24 1 25 9 7 5 -11 9 -23 9 -27z
m-265 -96 c0 -37 -3 -157 -7 -267 -4 -110 -9 -276 -11 -370 -5 -213 -5 -203
-14 -188 -10 16 -9 885 2 901 17 27 31 -8 30 -76z m1053 -194 c-2 -13 -4 -5
-4 17 -1 22 1 32 4 23 2 -10 2 -28 0 -40z m53 -218 c0 -13 -7 -20 -20 -20 -13
0 -20 7 -20 20 0 13 7 20 20 20 13 0 20 -7 20 -20z m-20 -59 c0 -6 -4 -13 -10
-16 -5 -3 -10 1 -10 9 0 9 5 16 10 16 6 0 10 -4 10 -9z m17 -56 c3 -9 -1 -21
-10 -28 -8 -7 -17 -21 -20 -32 -3 -11 -5 1 -6 28 -1 36 3 47 14 47 9 0 18 -7
22 -15z m-17 -140 c0 -24 6 -38 21 -45 15 -9 18 -15 9 -24 -5 -8 -7 -21 -4
-30 4 -10 -1 -25 -11 -36 -13 -14 -15 -23 -8 -32 16 -20 13 -98 -3 -98 -10 0
-14 18 -15 68 -1 37 -3 107 -5 155 -2 56 0 86 6 82 6 -3 10 -22 10 -40z m-832
-294 c0 -55 -5 -105 -9 -113 -5 -7 -9 34 -9 100 0 62 4 112 9 112 5 0 9 -45 9
-99z m611 -58 c0 -82 3 -229 7 -329 5 -131 4 -183 -5 -188 -8 -5 -11 22 -12
96 -1 57 -4 141 -6 188 -4 94 -4 88 -3 214 0 49 -2 97 -5 107 -5 16 9 59 19
59 2 0 4 -66 5 -147z m-892 85 c-2 -13 -4 -5 -4 17 -1 22 1 32 4 23 2 -10 2
-28 0 -40z m1137 -27 c3 -5 -1 -14 -8 -20 -16 -13 -32 2 -21 19 8 12 22 13 29
1z m-1137 -58 c-3 -10 -5 -4 -5 12 0 17 2 24 5 18 2 -7 2 -21 0 -30z m1169 -4
c2 -5 -7 -11 -21 -15 -29 -7 -32 -19 -9 -32 21 -12 10 -32 -17 -32 -16 0 -19
7 -19 43 0 24 2 46 5 49 8 7 54 -3 61 -13z m-1169 -101 c-3 -8 -6 -5 -6 6 -1
11 2 17 5 13 3 -3 4 -12 1 -19z m273 -13 c0 -8 -4 -15 -10 -15 -5 0 -7 7 -4
15 4 8 8 15 10 15 2 0 4 -7 4 -15z m844 -20 c-4 -8 -8 -15 -10 -15 -2 0 -4 7
-4 15 0 8 4 15 10 15 5 0 7 -7 4 -15z m-849 -72 c-5 -84 -4 -80 -14 -63 -10
17 -2 110 9 110 4 0 6 -21 5 -47z m836 -14 c-10 -23 -10 -23 -10 7 -1 17 2 34
7 38 11 12 14 -18 3 -45z m89 10 c0 -5 -4 -9 -10 -9 -5 0 -10 7 -10 16 0 8 5
12 10 9 6 -3 10 -10 10 -16z m-1194 -37 c-12 -11 -18 7 -10 30 l8 23 4 -23 c2
-13 1 -26 -2 -30z m1192 -13 c-2 -6 -7 -10 -11 -10 -4 1 -15 1 -24 1 -15 0
-16 2 -3 10 20 13 43 13 38 -1z m-1197 -52 c-8 -8 -11 -7 -11 4 0 20 13 34 18
19 3 -7 -1 -17 -7 -23z m278 -124 c2 -95 0 -114 -11 -106 -7 6 -13 29 -12 50
3 170 5 197 13 185 4 -7 9 -65 10 -129z m926 66 c0 -59 -2 -64 -22 -67 -26 -4
-31 13 -7 22 15 6 15 8 0 25 -15 16 -15 19 -1 31 11 9 12 16 4 26 -12 15 -3
37 14 31 8 -2 12 -28 12 -68z m-60 41 c3 -5 1 -10 -4 -10 -6 0 -11 5 -11 10 0
6 2 10 4 10 3 0 8 -4 11 -10z m-1135 -137 c3 -167 -1 -298 -11 -307 -5 -6 -9
71 -8 210 0 134 4 211 9 197 5 -11 9 -56 10 -100z m1200 -18 c0 -16 -35 -21
-44 -6 -8 12 4 21 26 21 10 0 18 -7 18 -15z m-2854 -156 c0 -110 5 -156 17
-187 l16 -41 58 6 c32 3 68 12 81 19 20 14 23 13 31 -9 13 -34 6 -259 -9 -286
-11 -22 -12 -22 -25 -4 -19 25 -48 6 -55 -35 -4 -25 -8 -30 -20 -22 -8 5 -27
10 -42 10 -16 0 -36 9 -45 20 -10 12 -30 33 -45 47 -21 21 -25 32 -21 59 6 36
-9 64 -34 64 -11 0 -11 -4 -3 -20 14 -27 3 -63 -17 -56 -8 3 -19 6 -24 6 -6 0
-7 33 -4 81 6 74 5 83 -16 105 -20 21 -21 29 -15 101 4 43 10 121 14 173 4 52
11 100 14 105 3 6 37 10 75 10 l68 0 1 -146z m2842 103 c2 -7 -7 -12 -22 -12
-27 0 -35 15 -13 23 17 7 30 3 35 -11z m-913 -104 c-2 -29 -3 -83 -4 -120 0
-38 -4 -68 -8 -68 -9 0 -16 218 -7 231 13 22 21 5 19 -43z m923 9 c3 -16 1
-17 -17 -7 -25 13 -28 33 -4 28 10 -2 19 -11 21 -21z m-3128 -7 c0 -5 -8 -10
-17 -10 -15 0 -16 2 -3 10 19 12 20 12 20 0z m3065 -10 c-3 -5 -10 -10 -16
-10 -5 0 -9 5 -9 10 0 6 7 10 16 10 8 0 12 -4 9 -10z m46 -83 c-14 -14 -17
-10 -26 33 l-7 35 22 -28 c17 -21 20 -31 11 -40z m-272 -192 c0 -55 -3 -85 -8
-80 -9 10 -15 170 -10 270 2 45 3 43 9 -25 4 -41 8 -115 9 -165z m348 213 c-3
-8 -6 -5 -6 6 -1 11 2 17 5 13 3 -3 4 -12 1 -19z m-54 -75 c-7 -2 -21 -2 -30
0 -10 3 -4 5 12 5 17 0 24 -2 18 -5z m-1216 -100 c-2 -16 -4 -5 -4 22 0 28 2
40 4 28 2 -13 2 -35 0 -50z m-1987 28 c-6 -12 -15 -21 -21 -21 -10 0 -5 13 14
38 15 19 20 7 7 -17z m671 -33 c19 -76 14 -299 -8 -361 -15 -40 -22 -49 -54
-58 -59 -18 -98 12 -66 50 25 29 79 224 79 281 0 14 -5 47 -11 74 -12 56 -9
66 24 66 20 0 25 -8 36 -52z m2535 22 c8 0 14 -5 14 -11 0 -15 -53 -6 -58 10
-3 10 0 12 12 8 10 -4 24 -7 32 -7z m-3178 -57 c-25 -57 -70 -123 -84 -123
-17 0 -18 12 -3 27 6 6 16 20 23 30 37 62 59 93 67 93 5 0 3 -12 -3 -27z
m1962 -85 c-1 -60 -3 -78 -10 -66 -6 9 -8 43 -6 75 5 75 5 73 11 73 3 0 5 -37
5 -82z m280 45 c0 -20 -3 -24 -11 -16 -7 7 -9 19 -6 27 10 24 17 19 17 -11z
m950 -29 c0 -9 -7 -14 -17 -12 -25 5 -28 28 -4 28 12 0 21 -6 21 -16z m-2380
-29 c16 -9 19 -14 9 -15 -8 0 -24 7 -35 15 -24 18 -7 19 26 0z m-807 -10 c-3
-9 -8 -14 -10 -11 -3 3 -2 9 2 15 9 16 15 13 8 -4z m2234 -17 c-3 -7 -5 -2 -5
12 0 14 2 19 5 13 2 -7 2 -19 0 -25z m-2497 -61 c0 -50 -3 -68 -10 -57 -11 17
-9 140 3 133 4 -2 7 -37 7 -76z m3013 68 c-3 -9 -8 -14 -10 -11 -3 3 -2 9 2
15 9 16 15 13 8 -4z m451 -47 c3 -13 7 -42 9 -66 3 -23 14 -60 26 -82 l21 -40
-30 0 c-25 0 -29 4 -27 22 2 19 -4 24 -31 28 -41 6 -45 23 -7 30 28 5 49 30
25 30 -8 0 -10 9 -6 24 4 15 0 28 -9 36 -12 10 -13 16 -4 26 17 20 28 17 33
-8z m-960 -16 c8 -26 3 -142 -6 -142 -9 0 -11 14 -12 97 -1 62 7 81 18 45z
m518 -44 c4 -55 1 -78 -11 -78 -4 0 -8 29 -9 65 -2 77 14 88 20 13z m128 -8
c0 -5 -7 -7 -15 -4 -8 4 -15 8 -15 10 0 2 7 4 15 4 8 0 15 -4 15 -10z m-17
-41 c-3 -12 0 -25 7 -29 7 -4 9 -16 5 -29 -3 -12 -11 -19 -16 -16 -12 8 -12
95 0 95 5 0 7 -9 4 -21z m-1364 -24 c16 9 13 -11 -4 -25 -25 -21 -47 -8 -51
29 l-4 35 24 -23 c14 -13 29 -20 35 -16z m-124 -21 c8 -47 1 -52 -29 -23 -19
18 -22 28 -15 41 16 29 36 21 44 -18z m-255 -12 c19 -12 52 -24 75 -27 49 -8
114 -60 96 -78 -9 -9 -16 -8 -29 1 -9 7 -54 31 -100 55 l-84 42 -19 -24 -20
-25 -36 20 c-20 10 -42 18 -49 16 -15 -3 -27 15 -21 31 3 8 29 12 78 11 57 0
82 -5 109 -22z m-275 -2 c3 -5 1 -10 -4 -10 -6 0 -11 5 -11 10 0 6 2 10 4 10
3 0 8 -4 11 -10z m1905 -6 c0 -8 -4 -12 -10 -9 -5 3 -10 10 -10 16 0 5 5 9 10
9 6 0 10 -7 10 -16z m-2000 -24 c8 -15 6 -21 -11 -30 -14 -8 -19 -18 -16 -31
7 -27 -3 -24 -52 14 -42 31 -42 32 -16 35 14 2 29 10 32 18 8 21 51 17 63 -6z
m2137 -60 c2 -38 -1 -50 -12 -50 -11 0 -14 9 -11 33 3 17 5 40 5 50 1 9 4 17
9 17 4 0 8 -23 9 -50z m333 24 c0 -10 -12 -14 -40 -14 -22 0 -40 5 -40 10 0 6
11 10 24 10 14 0 28 5 31 10 8 13 25 3 25 -16z m-982 -179 c0 -98 -10 -153
-22 -123 -4 9 -3 44 2 78 5 33 5 63 0 66 -10 6 -11 158 0 168 10 11 20 -82 20
-189z m512 175 c0 -11 -4 -20 -10 -20 -5 0 -10 9 -10 20 0 11 5 20 10 20 6 0
10 -9 10 -20z m-1332 -11 l27 -21 -30 8 c-39 9 -46 14 -40 25 9 13 14 12 43
-12z m1592 -29 c0 -5 -4 -10 -10 -10 -5 0 -10 5 -10 10 0 6 5 10 10 10 6 0 10
-4 10 -10z m225 -147 c12 -174 10 -316 -3 -321 -8 -2 -8 -11 -1 -30 12 -32 19
-116 10 -129 -3 -6 -16 -13 -28 -17 -17 -5 -23 -3 -23 8 0 8 5 18 10 21 20 12
10 35 -15 35 -36 0 -30 29 10 44 11 4 15 10 10 14 -6 4 -15 16 -22 28 -9 17
-8 24 7 36 21 19 16 68 -8 68 -13 0 -13 3 2 19 15 17 15 19 1 25 -15 5 -14 9
5 36 l21 30 -28 0 -28 0 25 20 c21 16 23 22 13 38 -6 11 -9 23 -5 27 4 4 7 18
7 31 1 19 -4 24 -22 24 -21 0 -22 2 -11 23 7 12 19 30 27 40 13 15 12 20 -8
40 l-21 24 22 10 c36 17 44 -5 53 -144z m-485 75 c0 -39 -3 -68 -6 -65 -12 12
-16 137 -4 137 6 0 10 -28 10 -72z m812 8 c16 -37 5 -52 -44 -59 -54 -7 -63 2
-47 47 11 31 17 36 46 36 26 0 36 -6 45 -24z m-675 -96 c1 -74 -2 -102 -13
-111 -11 -9 -14 -6 -15 17 -1 16 0 34 1 39 1 6 2 43 1 83 -1 51 3 72 12 72 9
0 12 -28 14 -100z m-950 -22 c-2 -18 -4 -6 -4 27 0 33 2 48 4 33 2 -15 2 -42
0 -60z m1537 14 c5 -8 -55 -42 -72 -42 -9 1 50 50 60 50 4 0 9 -4 12 -8z
m-724 -22 c0 -5 -2 -10 -4 -10 -3 0 -8 5 -11 10 -3 6 -1 10 4 10 6 0 11 -4 11
-10z m-819 -132 c0 -51 0 -109 1 -128 3 -122 -9 -577 -16 -588 -4 -7 -7 -62
-7 -122 0 -97 -7 -128 -22 -102 -3 4 -1 57 4 117 5 61 11 243 13 405 5 300 14
510 22 510 3 0 5 -42 5 -92z m308 -169 c1 -101 1 -221 1 -266 1 -47 -3 -84 -9
-88 -12 -7 -12 -7 -15 260 -3 199 3 314 15 293 5 -8 8 -98 8 -199z m628 134
c-3 -10 -5 -2 -5 17 0 19 2 27 5 18 2 -10 2 -26 0 -35z m-120 -50 c-3 -10 -5
-4 -5 12 0 17 2 24 5 18 2 -7 2 -21 0 -30z m-1044 -12 c-3 -13 -23 -23 -73
-35 -37 -9 -80 -16 -95 -16 -18 0 -29 -6 -32 -20 -8 -29 -73 -44 -163 -35
-107 9 -109 16 -10 39 36 8 88 20 115 26 28 6 91 21 140 32 50 11 94 24 99 29
14 13 25 1 19 -20z m2172 0 c27 -6 28 -8 11 -18 -36 -20 -7 -28 103 -27 83 1
114 -3 123 -13 17 -20 -5 -58 -40 -71 -27 -9 -29 -8 -25 9 6 23 -35 42 -81 37
-45 -5 -42 -24 6 -34 24 -5 42 -14 41 -19 -7 -37 -406 -67 -478 -35 -11 4 -29
11 -40 15 -19 7 -19 7 4 16 19 7 22 12 13 21 -7 7 -12 15 -12 20 0 11 56 38
63 31 10 -9 36 17 31 31 -4 10 15 13 81 12 67 0 89 3 102 17 18 17 45 20 98 8z
m-986 -33 c0 -13 2 -61 5 -107 3 -55 1 -80 -5 -74 -13 13 -21 203 -10 203 5 0
9 -10 10 -22z m560 -44 c-15 -18 -22 -13 -13 10 3 9 10 13 16 10 5 -3 4 -12
-3 -20z m-1734 -17 c8 -32 -1 -712 -9 -726 -5 -7 -55 -11 -147 -11 l-140 0 5
33 c25 163 28 207 17 221 -8 9 -35 12 -93 9 -100 -4 -170 -19 -200 -43 -39
-30 -97 -42 -194 -41 -108 1 -129 8 -137 49 -3 16 -18 43 -32 61 -23 27 -33
31 -76 31 -48 0 -49 1 -131 86 -46 48 -83 91 -83 97 0 13 32 29 90 47 22 7 72
28 110 46 44 21 92 35 129 39 32 3 91 15 130 27 70 22 148 25 421 16 46 -1
148 12 155 21 31 38 81 58 147 60 26 1 34 -4 38 -22z m-687 -12 c-3 -3 -18 -8
-34 -11 -22 -3 -25 -2 -14 6 15 10 58 14 48 5z m3072 -76 c0 -6 -7 -26 -16
-45 -14 -28 -22 -34 -48 -34 -18 0 -36 -4 -41 -8 -10 -9 -97 -25 -203 -38 -28
-3 -49 -10 -46 -15 12 -19 135 -7 267 26 20 5 27 3 27 -7 0 -34 -25 -48 -110
-59 -115 -16 -128 -32 -22 -27 62 2 82 0 82 -10 0 -17 -41 -31 -111 -39 -43
-4 -59 -10 -59 -21 0 -12 11 -14 65 -8 37 4 65 3 65 -2 0 -21 -34 -35 -88 -36
-69 -1 -76 -20 -9 -24 53 -3 56 -11 32 -69 -11 -26 -19 -33 -26 -26 -8 8 -8
17 0 31 6 10 7 22 4 26 -13 13 -61 5 -86 -14 l-26 -20 -26 24 c-18 16 -22 26
-13 29 15 5 -20 22 -65 32 -16 3 -31 15 -36 28 -5 12 -21 33 -36 47 -32 30
-85 121 -85 146 0 11 -9 34 -21 53 -24 39 -15 56 22 43 13 -6 83 -13 154 -17
72 -4 139 -11 150 -16 17 -7 17 -8 3 -8 -10 -1 -18 -8 -18 -17 0 -14 9 -15 68
-10 37 4 93 14 125 23 48 13 57 19 52 34 -5 13 -2 17 7 14 8 -3 22 1 33 9 24
18 35 20 35 5z m-207 -46 c-13 -2 -33 -2 -45 0 -13 2 -3 4 22 4 25 0 35 -2 23
-4z m-3558 -9 c9 -4 23 -23 31 -44 14 -34 179 -200 201 -200 4 0 16 -19 26
-41 l19 -40 -25 -25 c-14 -14 -33 -40 -42 -59 -13 -29 -20 -34 -40 -29 -35 9
-57 -32 -63 -116 -5 -72 -17 -90 -28 -44 -9 33 3 134 18 151 17 21 -4 38 -30
24 -30 -16 -45 -74 -40 -152 5 -63 4 -69 -14 -69 -11 0 -23 11 -28 26 -14 35
-5 111 14 133 18 20 29 128 14 137 -16 10 -38 -18 -49 -62 -6 -24 -15 -44 -19
-44 -17 0 -18 44 -2 86 19 51 9 74 -26 55 -15 -8 -24 -32 -37 -103 -20 -110
-21 -188 -1 -227 14 -27 14 -28 -22 -44 -28 -13 -38 -14 -44 -4 -11 18 -10 27
5 27 7 0 18 5 25 12 9 9 8 16 -5 30 -32 35 -16 202 32 337 19 56 19 61 -4 61
-27 0 -35 -15 -59 -110 -34 -135 -42 -194 -33 -249 9 -56 -2 -71 -14 -18 -25
110 20 319 92 427 26 39 29 60 10 60 -19 0 -51 -37 -76 -87 -25 -50 -33 -55
-22 -15 22 75 96 163 170 202 41 22 43 22 66 14z m2915 -24 c0 -40 -70 -70
-83 -36 -3 8 1 13 11 12 10 -1 18 8 20 21 5 36 52 39 52 3z m-14 -85 c-4 -10
1 -15 14 -15 16 0 20 -7 21 -37 0 -67 10 -157 19 -188 13 -43 17 -262 5 -273
-5 -6 -21 -13 -35 -16 l-25 -7 23 20 c27 23 28 37 5 50 -16 9 -15 11 7 19 20
8 22 11 9 17 -11 4 -15 16 -13 41 2 33 1 35 -22 30 -24 -6 -33 7 -14 19 18 11
10 26 -12 23 -33 -5 -32 18 2 32 24 10 30 19 30 42 0 16 -6 39 -12 51 -7 12
-13 31 -14 42 0 11 -1 37 -2 59 -2 35 -4 38 -27 32 -14 -4 -25 -2 -25 3 0 5
10 11 22 13 32 5 35 28 4 28 -32 0 -34 17 -3 23 43 8 49 7 43 -8z m-1442 -176
c-3 -5 -10 -7 -15 -3 -5 3 -7 10 -3 15 3 5 10 7 15 3 5 -3 7 -10 3 -15z m448
-271 c1 -114 -2 -211 -5 -215 -4 -3 -7 39 -7 94 0 55 -2 162 -5 239 -4 102 -3
133 5 115 6 -14 11 -112 12 -233z m733 242 c3 -5 -1 -10 -10 -10 -9 0 -13 5
-10 10 3 6 8 10 10 10 2 0 7 -4 10 -10z m-2225 -40 c10 -18 4 -50 -9 -50 -3 0
-15 7 -25 15 -11 8 -32 15 -48 15 -32 0 -36 10 -10 32 36 32 71 27 92 -12z
m2160 0 c0 -22 -5 -40 -10 -40 -6 0 -9 16 -6 38 5 45 5 42 11 42 3 0 5 -18 5
-40z m-1110 -6 c0 -14 -21 -19 -33 -7 -9 9 13 34 24 27 5 -3 9 -12 9 -20z
m945 -41 c-10 -40 -17 -20 -9 23 5 24 9 32 12 21 2 -10 1 -30 -3 -44z m-1342
2 c-2 -11 -7 -63 -13 -115 -16 -165 -21 -173 -93 -154 -29 8 -65 14 -80 14
-15 0 -30 7 -33 15 -4 8 3 50 15 93 12 43 21 95 21 116 0 47 20 56 115 53 64
-2 70 -4 68 -22z m2317 -35 c0 -16 0 -33 1 -37 0 -4 -4 -9 -10 -11 -15 -5 -33
36 -26 58 10 32 35 24 35 -10z m80 -10 c0 -16 -4 -30 -9 -30 -10 0 -21 47 -13
55 13 13 22 3 22 -25z m77 -14 c-9 -26 -27 -15 -27 16 1 31 1 32 15 13 9 -10
14 -24 12 -29z m-3182 14 c10 -11 26 -20 37 -20 17 0 25 -20 12 -33 -3 -3 -23
5 -44 19 -39 26 -90 30 -97 8 -2 -7 21 -26 52 -43 30 -17 55 -35 55 -40 0 -5
8 -17 17 -27 16 -15 16 -17 -2 -30 -22 -16 -110 -19 -100 -4 3 6 17 10 31 10
14 0 24 6 24 14 0 15 -73 57 -92 53 -19 -3 -21 35 -3 76 14 34 19 37 54 37 25
0 44 -7 56 -20z m2235 0 c0 -11 -4 -20 -9 -20 -5 0 -11 9 -14 20 -3 13 0 20 9
20 8 0 14 -9 14 -20z m-1780 -19 c0 -60 -12 -93 -31 -88 -25 7 -35 -9 -43 -66
-6 -38 -4 -48 9 -53 12 -5 13 -9 4 -20 -6 -8 -18 -14 -25 -14 -11 0 -14 20
-14 89 0 92 -5 106 -30 91 -10 -6 -20 -4 -31 6 -30 27 -49 7 -49 -52 0 -30 -4
-54 -10 -54 -6 0 -10 28 -10 63 0 36 -5 68 -12 75 -9 9 -2 12 33 12 44 1 156
23 167 34 3 3 14 6 24 6 13 0 18 -8 18 -29z m655 9 c3 -6 -1 -13 -10 -16 -19
-8 -30 0 -20 15 8 14 22 14 30 1z m1182 -6 c-3 -3 -12 -4 -19 -1 -8 3 -5 6 6
6 11 1 17 -2 13 -5z m-2105 -26 c-12 -12 -35 -1 -27 12 3 5 13 6 21 3 10 -4
12 -9 6 -15z m-614 -24 c-5 -20 -7 -46 -4 -58 3 -12 1 -28 -4 -36 -7 -10 -10
6 -10 51 0 36 3 69 7 72 16 16 21 4 11 -29z m244 -77 c-3 -5 -9 -4 -14 1 -6 6
-7 30 -2 64 l9 53 5 -55 c3 -30 4 -59 2 -63z m3328 93 c0 -5 -2 -10 -4 -10 -3
0 -8 5 -11 10 -3 6 -1 10 4 10 6 0 11 -4 11 -10z m-830 -30 c0 -5 -4 -10 -9
-10 -6 0 -13 5 -16 10 -3 6 1 10 9 10 9 0 16 -4 16 -10z m1075 -10 c-10 -11
-16 -20 -14 -21 2 -1 23 -3 45 -5 59 -5 138 -38 142 -59 3 -15 -1 -17 -33 -11
-23 5 -42 3 -51 -5 -14 -11 -263 -20 -325 -11 -45 7 -34 22 16 22 37 0 45 3
45 18 0 10 -6 24 -12 30 -17 17 9 35 37 26 42 -12 50 -9 48 14 -3 21 1 22 59
22 60 0 61 0 43 -20z m146 -2 c22 -6 39 -15 39 -20 0 -5 -8 -7 -19 -3 -10 3
-38 12 -62 19 -31 10 -37 14 -20 15 13 1 41 -4 62 -11z m-2421 -13 c0 -8 -7
-15 -15 -15 -8 0 -15 7 -15 15 0 8 7 15 15 15 8 0 15 -7 15 -15z m1126 -50 c1
-30 -2 -55 -7 -55 -5 0 -9 28 -9 62 0 75 12 70 16 -7z m292 53 c-6 -18 -28
-21 -28 -4 0 9 7 16 16 16 9 0 14 -5 12 -12z m532 -18 c0 -5 -7 -10 -15 -10
-8 0 -15 5 -15 10 0 6 7 10 15 10 8 0 15 -4 15 -10z m-90 -30 c0 -5 -4 -10
-10 -10 -5 0 -10 5 -10 10 0 6 5 10 10 10 6 0 10 -4 10 -10z m640 -9 c0 -20
-17 -37 -27 -28 -7 8 7 47 18 47 5 0 9 -9 9 -19z m-1303 3 c-3 -3 -12 -4 -19
-1 -8 3 -5 6 6 6 11 1 17 -2 13 -5z m-2010 -81 c-2 -16 -4 -5 -4 22 0 28 2 40
4 28 2 -13 2 -35 0 -50z m798 46 c10 -15 -1 -23 -20 -15 -9 3 -13 10 -10 16 8
13 22 13 30 -1z m-1788 -43 c67 -47 238 -147 300 -175 l51 -24 4 -56 c2 -31 0
-61 -4 -67 -5 -6 -7 -21 -6 -34 2 -18 -5 -25 -34 -36 -33 -11 -38 -11 -38 2 0
7 9 14 20 14 27 0 32 15 22 70 -8 50 -29 60 -48 23 -6 -13 -18 -31 -27 -41
-10 -11 -17 -35 -17 -60 0 -31 -4 -42 -15 -42 -14 0 -15 12 -9 85 6 72 4 85
-8 85 -24 0 -35 -21 -42 -80 -10 -76 -25 -130 -37 -130 -6 0 -8 14 -4 33 3 17
7 68 8 112 2 69 0 80 -16 83 -20 4 -35 -27 -18 -38 10 -5 9 -9 -2 -13 -10 -4
-15 -23 -16 -66 0 -33 -6 -72 -11 -86 -14 -37 -12 -71 5 -85 11 -9 29 -5 89
24 41 20 80 36 87 36 7 0 36 7 64 16 52 17 53 17 108 -10 82 -39 138 -32 157
18 11 29 92 51 153 42 123 -18 187 -32 199 -43 7 -8 38 -13 75 -13 67 0 127
-22 121 -43 -6 -18 -134 -83 -218 -110 -124 -40 -129 -41 -139 -14 -10 25 -44
37 -103 37 -49 0 -93 -31 -83 -57 3 -9 -5 -13 -23 -13 -25 0 -290 65 -372 91
-19 6 -53 13 -75 16 -22 3 -49 12 -61 19 -23 15 -23 4 5 167 19 108 -6 195
-44 156 -10 -10 -11 -25 -5 -59 4 -25 5 -52 0 -60 -4 -8 -13 -61 -20 -117 -12
-96 -23 -123 -36 -89 -3 8 0 48 7 88 11 67 15 124 11 194 -2 21 -6 25 -22 21
-28 -7 -26 16 3 28 27 12 32 61 6 59 -24 -2 -33 84 -12 108 11 12 12 21 4 37
-6 11 -11 22 -11 25 0 15 35 3 77 -28z m3016 -1 c1 -5 -6 -11 -15 -13 -11 -2
-18 3 -18 13 0 17 30 18 33 0z m283 -12 c-10 -10 -19 5 -10 18 6 11 8 11 12 0
2 -7 1 -15 -2 -18z m-2441 -12 c36 -20 64 -66 50 -80 -6 -5 -22 -12 -36 -16
-24 -6 -25 -4 -22 22 9 56 -4 58 -284 58 -139 0 -253 3 -253 8 0 7 6 8 80 13
25 2 77 7 115 11 114 14 315 4 350 -16z m2081 -85 c5 -77 4 -97 -5 -91 -7 4
-10 17 -7 30 3 13 2 27 -4 30 -5 3 -10 38 -10 78 0 103 17 72 26 -47z m204
104 c0 -5 -2 -10 -4 -10 -3 0 -8 5 -11 10 -3 6 -1 10 4 10 6 0 11 -4 11 -10z
m483 -6 c-3 -8 3 -30 13 -49 16 -31 17 -41 5 -117 -14 -87 -72 -300 -98 -355
-9 -20 -23 -33 -34 -33 -28 0 -109 42 -109 57 0 7 32 75 70 150 39 76 70 148
70 162 0 38 69 201 86 201 2 0 1 -7 -3 -16z m266 1 c89 -2 127 -7 139 -18 9
-8 31 -18 47 -22 17 -4 24 -10 18 -12 -21 -8 -15 -30 10 -37 12 -3 41 -6 64
-6 23 0 44 -3 46 -7 3 -5 -29 -8 -71 -8 -47 0 -77 -4 -79 -11 -2 -7 15 -12 51
-12 63 0 78 -7 74 -30 -3 -14 -14 -16 -71 -14 -54 3 -67 1 -67 -11 0 -10 12
-15 41 -15 39 -1 69 -15 58 -27 -3 -3 -34 -8 -68 -11 -73 -8 -80 -30 -7 -26
39 2 46 0 46 -17 0 -27 -23 -42 -60 -39 -43 4 -53 -20 -11 -28 64 -13 39 -69
-28 -62 -27 3 -39 -2 -64 -26 -29 -29 -31 -35 -28 -88 1 -32 -1 -58 -6 -58
-11 1 -43 72 -43 97 0 11 6 26 14 32 22 18 7 51 -25 58 -20 4 -29 12 -29 24 0
11 -38 97 -85 193 -47 95 -85 178 -85 185 0 10 13 11 49 6 26 -3 103 -8 170
-10z m-2655 -15 c18 -6 17 -8 -10 -25 -16 -10 -51 -32 -79 -50 -64 -40 -136
-68 -255 -100 -92 -24 -279 -49 -289 -39 -9 8 22 24 47 24 13 0 69 12 125 26
107 27 252 93 327 148 46 34 75 37 134 16z m556 -1 c0 -5 -9 -9 -20 -9 -19 0
-26 11 -14 23 8 8 34 -3 34 -14z m-2039 -36 c-9 -16 -10 -15 -11 8 0 14 3 29
8 33 12 12 14 -22 3 -41z m3446 15 c-3 -8 -6 -5 -6 6 -1 11 2 17 5 13 3 -3 4
-12 1 -19z m-1317 3 c0 -6 -4 -13 -10 -16 -5 -3 -10 1 -10 9 0 9 5 16 10 16 6
0 10 -4 10 -9z m-2018 -17 c11 -7 -10 -211 -36 -361 -15 -83 -55 -163 -81
-163 -7 0 -25 14 -39 30 -25 31 -34 67 -38 175 -3 56 -2 60 18 57 18 -2 22 3
26 35 3 21 0 46 -6 55 -7 12 -7 34 2 74 14 69 27 85 46 59 19 -27 46 -13 46
25 0 28 2 30 28 24 15 -4 30 -8 34 -10z m408 6 c0 -18 -49 -35 -62 -22 -9 9
-5 14 13 21 32 13 49 13 49 1z m3000 -20 c-37 -33 -50 -37 -50 -17 0 7 17 20
38 29 51 23 52 22 12 -12z m980 15 c0 -11 -12 -15 -49 -15 -27 0 -57 3 -67 7
-16 6 -16 7 2 14 10 4 40 8 67 8 35 1 47 -3 47 -14z m-1110 -5 c0 -5 -5 -10
-11 -10 -5 0 -7 5 -4 10 3 6 8 10 11 10 2 0 4 -4 4 -10z m-1861 -67 c7 -38 14
-83 18 -101 5 -31 4 -33 -18 -30 -21 3 -24 8 -24 43 0 33 -3 40 -20 40 -17 0
-20 -6 -18 -37 3 -44 -2 -46 -27 -15 -16 18 -22 20 -38 10 -17 -10 -21 -9 -25
8 -6 24 -41 23 -43 -1 -1 -8 -2 -19 -3 -24 0 -5 -10 -1 -21 9 -27 24 -44 8
-42 -40 2 -46 -15 -45 -24 1 -5 28 -10 35 -28 32 -17 -2 -21 -9 -19 -38 2 -29
1 -31 -5 -10 -11 36 -39 38 -54 3 -11 -27 -12 -27 -16 -5 -6 37 4 50 45 58 21
4 43 11 49 16 7 5 22 11 35 13 33 7 177 78 219 109 19 14 38 25 41 26 4 0 12
-30 18 -67z m521 36 c0 -12 -37 -12 -44 0 -3 4 -3 11 0 14 8 7 44 -4 44 -14z
m1200 -25 c0 -8 -4 -12 -10 -9 -5 3 -10 10 -10 16 0 5 5 9 10 9 6 0 10 -7 10
-16z m-1050 -24 c0 -5 -7 -10 -15 -10 -8 0 -15 5 -15 10 0 6 7 10 15 10 8 0
15 -4 15 -10z m-1470 -50 c0 -5 -5 -10 -11 -10 -5 0 -7 5 -4 10 3 6 8 10 11
10 2 0 4 -4 4 -10z m3220 -20 c0 -5 -4 -10 -10 -10 -5 0 -10 5 -10 10 0 6 5
10 10 10 6 0 10 -4 10 -10z m-513 -52 c-3 -8 -6 -5 -6 6 -1 11 2 17 5 13 3 -3
4 -12 1 -19z m-2367 -14 c0 -14 -3 -14 -15 -4 -8 7 -15 14 -15 16 0 2 7 4 15
4 8 0 15 -7 15 -16z m2230 6 c0 -5 -10 -10 -22 -10 -19 0 -20 2 -8 10 19 13
30 13 30 0z m-2294 -30 c1 -38 -20 -35 -24 3 -2 17 1 27 10 27 8 0 13 -13 14
-30z m-76 1 c0 -11 -4 -22 -9 -25 -11 -7 -23 22 -15 35 9 16 24 10 24 -10z
m410 9 c0 -5 -4 -10 -10 -10 -5 0 -10 5 -10 10 0 6 5 10 10 10 6 0 10 -4 10
-10z m130 0 c0 -5 -2 -10 -4 -10 -3 0 -8 5 -11 10 -3 6 -1 10 4 10 6 0 11 -4
11 -10z m80 -10 c0 -5 -7 -10 -15 -10 -8 0 -15 5 -15 10 0 6 7 10 15 10 8 0
15 -4 15 -10z m2472 -40 c10 -19 18 -40 18 -46 0 -7 -29 -12 -81 -12 -72 -2
-80 0 -77 15 2 13 14 19 43 21 96 6 115 26 35 37 -63 9 -65 21 -3 20 42 -1 48
-4 65 -35z m-3258 -35 c-9 -22 -41 -38 -49 -24 -8 12 -8 12 20 27 28 16 35 15
29 -3z m2539 -26 c-17 -17 -37 -1 -22 17 8 10 15 12 23 4 7 -7 7 -13 -1 -21z
m-1699 -69 c14 -25 14 -27 -41 -69 -72 -55 -125 -81 -243 -116 -52 -15 -104
-31 -115 -35 -30 -12 -111 -30 -135 -30 -16 0 -21 5 -18 22 2 19 21 29 103 59
160 58 221 95 305 180 l75 77 27 -32 c15 -17 33 -42 42 -56z m1486 81 c0 -13
-28 -22 -35 -11 -3 4 1 11 7 13 20 8 28 8 28 -2z m360 -6 c0 -8 -18 -24 -40
-35 -45 -23 -50 -24 -50 -10 0 6 9 10 20 10 11 0 27 11 36 25 18 28 34 33 34
10z m-310 -10 c16 -19 1 -19 -24 0 -16 12 -17 15 -4 15 8 0 21 -7 28 -15z
m-442 -22 c-10 -2 -26 -2 -35 0 -10 3 -2 5 17 5 19 0 27 -2 18 -5z m599 -9
c-3 -3 -12 -4 -19 -1 -8 3 -5 6 6 6 11 1 17 -2 13 -5z m716 -8 c-1 -4 -3 -11
-5 -17 -2 -6 -36 -13 -76 -15 -64 -3 -72 -2 -72 14 0 10 2 21 4 23 7 7 151 2
149 -5z m-1234 -32 c102 4 105 3 71 -11 -49 -21 -230 -7 -230 18 0 5 12 4 26
-1 14 -6 74 -8 133 -6z m176 6 c3 -6 -5 -10 -19 -10 -14 0 -28 5 -31 10 -3 6
5 10 19 10 14 0 28 -4 31 -10z m1112 -32 c1 -13 5 -34 9 -47 5 -18 4 -23 -7
-19 -15 5 -24 50 -15 74 8 20 12 17 13 -8z m187 -4 c3 -9 6 -26 6 -39 0 -12 7
-28 15 -35 21 -17 9 -30 -26 -30 -27 0 -29 2 -22 28 4 15 8 42 7 60 -1 34 10
43 20 16z m-339 -34 c-8 -13 -53 -18 -64 -7 -17 17 -13 25 17 29 28 4 55 -9
47 -22z m73 7 c3 -12 -3 -17 -21 -17 -31 0 -40 10 -25 27 15 18 42 12 46 -10z
m-947 -10 c-13 -13 -26 -3 -16 12 3 6 11 8 17 5 6 -4 6 -10 -1 -17z m-1363
-77 c6 -100 -9 -280 -23 -280 -22 0 -36 89 -32 206 4 118 9 137 35 132 13 -2
18 -17 20 -58z m1262 45 c0 -8 -7 -15 -15 -15 -8 0 -15 7 -15 15 0 8 7 15 15
15 8 0 15 -7 15 -15z m100 -72 c0 -47 -2 -84 -4 -82 -9 11 -16 169 -6 169 6 0
10 -34 10 -87z m-161 64 c13 -16 5 -27 -21 -27 -18 0 -25 20 -11 33 10 10 19
8 32 -6z m966 -7 c-3 -5 -13 -10 -21 -10 -8 0 -12 5 -9 10 3 6 13 10 21 10 8
0 12 -4 9 -10z m168 4 c11 -12 -4 -26 -16 -16 -7 6 -21 12 -32 15 -14 3 -10 5
11 6 17 0 34 -2 37 -5z m-2437 -76 c-7 -80 -9 -83 -31 -75 -12 5 -14 17 -9 64
7 58 18 83 37 83 6 0 8 -25 3 -72z m-1176 52 c141 -42 313 -82 352 -82 55 0
63 -8 71 -66 4 -31 1 -48 -13 -64 -13 -16 -16 -33 -12 -60 6 -49 -12 -49 -24
0 -7 27 -14 37 -29 37 -18 0 -20 -7 -20 -69 0 -87 -20 -101 -28 -20 -7 63 -15
78 -41 68 -16 -6 -17 -16 -11 -80 4 -40 4 -82 0 -94 -12 -37 -25 -21 -25 33 0
28 -3 69 -7 90 -5 31 -9 38 -27 35 -20 -3 -21 -9 -21 -114 0 -78 -4 -116 -14
-128 -20 -24 -31 -10 -20 27 14 48 11 120 -8 224 -16 86 -19 93 -41 93 -29 0
-36 -19 -23 -67 18 -65 24 -252 9 -307 -14 -55 -45 -81 -34 -29 30 136 17 316
-33 458 -41 114 -44 125 -40 125 2 0 20 -5 39 -10z m-279 -32 c-6 -30 -10 -33
-48 -36 -29 -2 -42 1 -46 12 -5 11 5 19 36 27 23 7 46 16 52 21 13 12 13 11 6
-24z m793 6 c24 -9 19 -29 -11 -43 -33 -15 -47 -2 -27 27 17 25 16 24 38 16z
m3255 -34 c14 0 14 -3 0 -76 -16 -90 -37 -212 -49 -284 -13 -72 -50 -233 -56
-239 -6 -7 -224 82 -224 92 0 4 17 26 38 50 72 80 137 202 203 380 42 116 44
118 60 98 10 -12 22 -21 28 -21z m-3855 2 c56 -108 83 -293 63 -434 -7 -53
-10 -105 -6 -116 5 -14 3 -25 -8 -33 -18 -16 -56 2 -84 41 -23 30 -84 244 -95
326 -6 53 -5 58 9 46 28 -23 36 -5 30 73 -2 43 0 82 6 92 8 14 10 5 11 -39 0
-51 2 -58 20 -58 22 0 23 4 20 67 -1 39 5 63 15 63 3 0 11 -13 19 -28z m2643
-10 c5 -54 3 -88 -9 -109 -8 -17 -8 -26 2 -38 10 -12 9 -20 -5 -41 -21 -33 -7
-50 23 -28 19 13 21 19 11 30 -14 18 4 68 23 62 25 -9 33 -36 18 -63 -12 -22
-12 -28 -1 -34 9 -6 11 -20 6 -50 l-7 -41 -25 20 c-14 11 -33 20 -42 20 -10 0
-22 5 -29 12 -9 9 -16 8 -29 -4 -34 -30 -66 -32 -91 -4 -25 30 -35 32 -52 11
-10 -12 -10 -19 -2 -27 14 -14 16 -28 3 -28 -5 0 -18 16 -30 35 -22 37 -57 47
-68 20 -5 -14 -7 -14 -24 0 -12 12 -22 14 -35 7 -9 -5 -25 -7 -36 -4 -10 2
-28 -4 -39 -14 -25 -22 -126 -25 -139 -3 -25 39 63 88 172 95 152 10 217 36
218 86 0 28 30 38 66 21 27 -13 35 -13 60 -2 18 9 29 22 29 34 0 26 -31 31
-55 10 -24 -22 -54 -16 -58 11 -3 18 4 22 40 28 24 4 51 7 60 7 10 0 20 5 24
10 9 15 19 1 21 -29z m-1469 -9 c-4 -52 -28 -56 -28 -4 0 30 4 41 16 41 11 0
14 -9 12 -37z m-81 -25 c-4 -44 -28 -61 -35 -25 -6 30 7 67 24 67 12 0 14 -9
11 -42z m2863 17 c0 -8 -6 -15 -14 -15 -17 0 -28 14 -19 24 12 12 33 6 33 -9z
m-2950 -30 c0 -14 -4 -25 -10 -25 -5 0 -10 11 -10 25 0 14 5 25 10 25 6 0 10
-11 10 -25z m-321 -12 c26 -24 23 -49 -10 -79 -17 -16 -22 -16 -29 -4 -14 23
-12 27 16 34 17 5 24 12 22 24 -3 14 -13 16 -62 13 -43 -2 -57 0 -51 9 20 32
81 34 114 3z m245 9 c2 -4 0 -14 -5 -22 -8 -13 -10 -13 -18 0 -10 15 -6 30 9
30 5 0 11 -4 14 -8z m3024 -29 c-4 -22 -48 -31 -48 -10 0 19 10 27 32 27 13 0
18 -6 16 -17z m-4373 -24 c0 -7 -8 -15 -19 -17 -21 -4 -41 12 -33 25 9 15 52
8 52 -8z m1585 1 c0 -11 -4 -20 -10 -20 -5 0 -10 9 -10 20 0 11 5 20 10 20 6
0 10 -9 10 -20z m88 -7 c2 -8 -5 -13 -17 -13 -12 0 -21 6 -21 16 0 18 31 15
38 -3z m1506 -15 c7 -29 8 -63 0 -55 -3 3 -9 22 -14 41 -9 39 4 51 14 14z
m1210 -25 c9 -23 -2 -33 -38 -33 -40 0 -48 7 -36 30 12 22 66 24 74 3z m-2691
-58 c19 -8 37 -21 40 -30 5 -12 0 -11 -31 5 -75 40 -81 55 -9 25z m2707 -24
c0 -14 -10 -20 -47 -24 -54 -6 -64 -3 -57 18 6 14 81 36 97 28 4 -2 7 -12 7
-22z"/>
<path d="M627 3483 c-3 -5 -7 -29 -11 -54 -5 -34 -3 -49 8 -58 25 -21 56 20
56 74 0 41 -2 45 -24 45 -14 0 -27 -3 -29 -7z"/>
<path d="M871 3117 c-14 -17 -4 -27 26 -27 16 0 23 6 23 20 0 23 -31 27 -49 7z"/>
<path d="M774 3106 c-9 -24 4 -48 23 -44 12 2 18 12 18 28 0 29 -32 41 -41 16z"/>
<path d="M4142 1981 c2 -7 7 -12 11 -12 12 1 9 15 -3 20 -7 2 -11 -2 -8 -8z"/>
<path d="M3665 1760 c-3 -5 -1 -10 4 -10 6 0 11 5 11 10 0 6 -2 10 -4 10 -3 0
-8 -4 -11 -10z"/>
<path d="M510 1150 c0 -5 5 -10 10 -10 6 0 10 5 10 10 0 6 -4 10 -10 10 -5 0
-10 -4 -10 -10z"/>
<path d="M740 470 c-12 -8 -11 -10 8 -10 12 0 22 5 22 10 0 13 -11 13 -30 0z"/>
<path d="M2991 529 c-28 -11 -21 -20 27 -39 28 -11 35 -11 42 0 12 19 -7 50
-28 49 -9 0 -28 -5 -41 -10z"/>
<path d="M4850 2193 c-66 -5 -78 -14 -82 -61 -2 -30 -8 -38 -26 -40 -30 -5
-58 -57 -41 -79 7 -8 23 -13 36 -10 13 2 23 1 23 -4 0 -4 -10 -9 -21 -11 -12
-2 -27 -11 -33 -21 -9 -15 -7 -22 13 -38 13 -10 18 -19 12 -19 -18 0 -51 -39
-51 -60 0 -31 30 -37 50 -10 34 45 42 22 41 -110 -1 -69 2 -130 6 -136 15 -21
41 -23 58 -4 14 16 15 26 7 67 -6 27 -8 84 -5 127 7 85 16 97 62 79 15 -5 43
-8 64 -5 37 4 37 4 37 52 l0 47 -85 -4 c-52 -2 -85 0 -85 6 0 6 28 11 62 13
38 2 63 8 66 16 3 9 -13 12 -59 12 -34 0 -60 2 -57 5 5 5 76 14 126 14 25 1
32 5 32 22 0 11 -3 18 -7 16 -5 -3 -26 -1 -48 3 l-40 8 48 1 c40 1 47 4 47 22
0 11 -3 18 -7 16 -5 -3 -17 -1 -28 4 -17 7 -17 8 8 8 22 1 27 6 27 25 0 43
-42 57 -150 49z m65 -33 c4 -6 -8 -10 -30 -10 -22 0 -34 4 -30 10 3 6 17 10
30 10 13 0 27 -4 30 -10z m-8 -54 c4 -3 -13 -6 -36 -6 -23 0 -40 4 -37 8 5 9
64 7 73 -2z m-44 -43 c-7 -2 -19 -2 -25 0 -7 3 -2 5 12 5 14 0 19 -2 13 -5z
m77 -157 c0 -10 -10 -11 -42 -6 -24 5 -46 6 -50 4 -5 -3 -8 -1 -8 5 0 9 76 20
93 13 4 -2 7 -9 7 -16z"/>
<path d="M605 2083 c-11 -2 -29 -8 -40 -12 -11 -5 -44 -19 -73 -31 -29 -11
-73 -36 -96 -54 -41 -31 -50 -33 -147 -39 -57 -3 -120 -10 -139 -16 -19 -6
-52 -13 -72 -16 -31 -5 -38 -10 -38 -29 0 -20 4 -22 49 -21 27 1 57 7 66 15
12 10 48 15 118 17 94 2 103 4 151 34 28 18 71 43 95 56 24 12 48 26 55 31 6
5 29 12 50 15 43 7 72 29 62 46 -4 6 -10 10 -14 10 -4 -1 -16 -3 -27 -6z"/>
<path d="M379 1885 c-20 -7 -51 -21 -70 -31 -20 -10 -72 -20 -129 -25 -166
-14 -180 -18 -180 -45 0 -20 5 -24 31 -24 17 0 39 5 50 11 11 5 54 11 97 12
62 2 92 9 157 36 109 45 110 46 113 65 4 19 -18 20 -69 1z"/>
<path d="M4860 1830 c-21 -13 1 -33 31 -28 32 4 39 38 7 38 -13 0 -30 -5 -38
-10z"/>
<path d="M1155 302 c-44 -4 -207 -42 -227 -53 -21 -11 -24 -42 -4 -58 7 -6 31
-17 52 -25 l39 -15 -85 0 c-66 -1 -92 -5 -117 -21 -64 -39 -31 -72 87 -89 43
-7 80 -18 86 -26 14 -19 124 -21 142 -3 19 19 14 25 -29 31 -22 3 -48 12 -58
21 -10 9 -35 16 -57 17 -21 0 -48 4 -59 9 -22 10 -19 10 55 16 25 1 63 9 85
16 32 10 41 19 43 39 3 22 -2 29 -29 38 -18 6 -40 11 -50 11 -11 0 -19 4 -19
8 0 17 167 39 275 37 169 -3 438 -16 458 -21 29 -9 10 -22 -41 -29 -123 -17
-226 -37 -243 -48 -19 -12 -26 -42 -11 -51 5 -3 48 -6 96 -7 73 -2 92 -6 119
-26 25 -18 44 -23 96 -24 67 0 169 -31 140 -42 -8 -3 5 -6 29 -6 45 -1 59 19
25 38 -27 14 -143 41 -190 44 -30 2 -47 9 -61 27 -16 20 -29 25 -66 24 -63 -1
-49 12 21 19 118 13 158 27 168 58 8 24 0 36 -36 55 -24 12 -80 16 -262 21
-128 2 -257 8 -287 11 -30 4 -68 6 -85 4z"/>
<path d="M4625 120 c-3 -5 -1 -10 4 -10 6 0 11 5 11 10 0 6 -2 10 -4 10 -3 0
-8 -4 -11 -10z"/>
<path d="M13 3 c9 -2 25 -2 35 0 9 3 1 5 -18 5 -19 0 -27 -2 -17 -5z"/>
</g>
</svg>
