<?xml version="1.0" standalone="no"?>
<!DOCTYPE svg PUBLIC "-//W3C//DTD SVG 20010904//EN"
 "http://www.w3.org/TR/2001/REC-SVG-20010904/DTD/svg10.dtd">
<svg version="1.0" xmlns="http://www.w3.org/2000/svg"
 width="500.000000pt" height="878.000000pt" viewBox="0 0 500.000000 878.000000"
 preserveAspectRatio="xMidYMid meet">
<metadata>
Created by potrace 1.15, written by Peter Selinger 2001-2017
</metadata>
<g transform="translate(0.000000,878.000000) scale(0.100000,-0.100000)"
fill="#000000" stroke="none">
<path d="M2083 8542 c-40 -4 -69 -38 -51 -60 7 -8 24 -12 40 -10 16 3 32 0 37
-6 22 -26 101 -198 96 -206 -4 -6 -28 -10 -55 -10 -40 0 -51 -4 -60 -21 -23
-42 -12 -44 146 -36 82 4 196 5 254 1 130 -7 131 -7 205 -2 84 5 102 19 69 52
-8 9 -26 16 -38 16 -28 0 -36 29 -36 131 0 64 1 69 28 81 19 9 27 21 27 38 l0
25 -217 2 c-211 2 -218 1 -232 -19 -11 -15 -12 -26 -5 -40 7 -13 5 -30 -10
-63 -11 -25 -24 -45 -28 -45 -4 0 -18 23 -30 50 -21 49 -21 50 -2 60 22 12 25
42 7 58 -13 10 -80 12 -145 4z m320 -178 l-8 -99 -40 0 c-52 0 -54 14 -15 111
56 140 76 136 63 -12z m220 6 c5 -65 4 -107 -2 -113 -12 -12 -17 9 -31 122
-10 85 -7 105 13 98 7 -2 15 -44 20 -107z m-115 83 c17 -33 23 -168 9 -188
-13 -16 -14 -16 -31 1 -14 13 -17 27 -12 53 3 20 6 62 6 94 0 57 11 73 28 40z"/>
<path d="M1035 7370 c-122 -20 -226 -72 -310 -155 -66 -65 -96 -112 -128 -202
-37 -101 -43 -174 -23 -273 25 -124 64 -199 143 -282 114 -117 235 -172 392
-177 182 -5 289 42 453 201 92 89 112 115 145 183 36 76 38 85 37 175 -1 115
-25 188 -85 267 -50 64 -99 105 -165 136 -27 13 -71 38 -99 55 -91 59 -246 90
-360 72z m214 -44 c9 -6 -16 -16 -78 -32 -177 -45 -282 -139 -346 -309 -39
-104 -30 -227 26 -354 19 -42 138 -171 158 -171 6 0 27 -11 47 -25 20 -14 43
-25 51 -25 8 0 30 -7 49 -16 25 -12 57 -15 134 -12 55 1 100 0 100 -3 0 -7
-93 -45 -145 -58 -22 -6 -73 -11 -114 -11 -207 0 -386 110 -476 293 -95 193
-60 423 88 579 66 69 111 98 207 132 66 24 87 26 180 24 58 -2 111 -7 119 -12z
m179 -87 c142 -49 224 -137 275 -294 21 -62 16 -162 -11 -232 -108 -284 -464
-363 -686 -153 -231 218 -136 600 170 689 81 24 163 20 252 -10z"/>
<path d="M1095 7036 c-40 -17 -62 -43 -48 -57 8 -8 20 -4 41 11 26 19 39 22
76 17 46 -7 58 1 34 21 -23 18 -72 22 -103 8z"/>
<path d="M1413 7027 c-40 -15 -54 -29 -45 -44 6 -9 17 -9 47 2 54 19 68 18 98
-5 20 -16 27 -17 36 -6 13 15 5 24 -46 50 -37 18 -46 19 -90 3z"/>
<path d="M1180 6944 c-10 -11 -24 -14 -46 -11 -18 3 -35 3 -37 0 -9 -8 4 -33
17 -33 6 0 24 -7 40 -15 29 -15 31 -15 53 12 12 15 21 35 20 43 -3 21 -31 24
-47 4z"/>
<path d="M1489 6934 c-10 -12 -23 -14 -51 -10 -30 5 -38 3 -38 -9 0 -9 8 -18
18 -21 15 -5 51 -21 74 -32 4 -2 14 11 23 28 25 48 5 81 -26 44z"/>
<path d="M1275 6740 c-8 -13 3 -30 20 -30 20 0 30 21 14 31 -18 11 -26 11 -34
-1z"/>
<path d="M1351 6736 c-9 -10 -9 -16 -1 -21 13 -8 42 14 34 26 -8 13 -20 11
-33 -5z"/>
<path d="M1255 6656 c-85 -32 -69 -43 62 -40 59 1 110 2 112 3 2 0 -4 10 -15
22 -15 17 -26 20 -56 15 -20 -3 -40 -2 -43 4 -7 12 -20 11 -60 -4z"/>
<path d="M1289 6589 c-12 -8 -12 -10 1 -19 22 -14 40 -12 40 4 0 18 -23 27
-41 15z"/>
<path d="M3960 5713 c-19 -8 -58 -39 -86 -68 -59 -61 -125 -99 -160 -91 -18 5
-32 -3 -66 -40 -24 -25 -51 -59 -61 -74 -17 -27 -97 -80 -119 -80 -5 0 -21 9
-35 20 -14 11 -37 20 -52 20 -57 0 -71 -11 -108 -83 -40 -80 -78 -141 -107
-175 -12 -13 -19 -24 -17 -25 2 -1 -3 -18 -13 -38 -33 -71 -82 -91 -271 -109
-60 -6 -116 -17 -123 -24 -7 -6 -24 -53 -37 -104 -31 -112 -97 -279 -132 -335
-15 -23 -39 -54 -55 -69 -21 -20 -28 -35 -28 -65 0 -22 -10 -56 -24 -80 -13
-23 -27 -56 -31 -73 -4 -20 -15 -34 -30 -40 -27 -10 -55 -47 -55 -71 0 -13
-12 -19 -50 -24 -27 -4 -53 -4 -59 -1 -5 3 -23 -5 -40 -19 -24 -21 -31 -35
-33 -73 -3 -43 -6 -48 -38 -63 -19 -9 -54 -20 -76 -23 l-41 -7 -24 48 c-13 26
-32 49 -41 51 -18 3 -131 -46 -136 -60 -2 -5 -17 -15 -33 -24 -29 -15 -30 -14
-68 25 -34 36 -42 39 -73 34 -29 -4 -38 -1 -52 18 -9 13 -16 33 -16 46 0 32
-37 68 -104 102 -42 21 -67 28 -87 24 -28 -5 -31 -2 -60 63 -36 80 -83 134
-116 134 -36 0 -84 -27 -119 -68 l-32 -36 -32 27 c-17 15 -35 27 -40 27 -19 0
-102 135 -174 281 -42 85 -76 160 -76 166 0 6 -25 38 -55 72 -30 34 -55 65
-55 70 0 8 -102 81 -114 81 -4 0 -28 -17 -53 -37 -48 -40 -94 -105 -133 -188
-13 -27 -38 -66 -57 -85 -18 -19 -43 -48 -56 -64 -21 -26 -25 -27 -45 -15 -32
20 -71 -4 -89 -56 -7 -22 -27 -57 -43 -77 l-30 -37 0 -674 0 -674 31 -7 c49
-10 83 -7 104 8 16 10 66 13 235 11 174 -2 219 0 238 12 41 25 11 43 -77 44
l-76 1 60 10 c33 5 88 6 123 3 34 -3 91 -8 127 -11 71 -6 100 5 90 35 -4 13 5
20 40 29 33 9 48 19 60 41 l15 30 165 0 c148 -1 190 -7 172 -26 -3 -3 -68 -5
-144 -5 -152 0 -173 -3 -173 -23 0 -28 41 -38 140 -32 l96 5 16 -28 c21 -38
-20 -35 1013 -57 121 -2 227 -4 235 -4 101 3 258 12 268 16 6 2 12 11 12 19 0
21 -55 27 -221 26 -621 -5 -1155 3 -1152 16 5 19 146 26 363 16 124 -5 261 -6
305 -1 44 4 96 4 117 0 20 -5 109 -5 198 0 90 4 217 4 284 0 66 -4 148 -6 181
-4 49 3 65 0 85 -16 22 -18 26 -29 30 -103 8 -135 3 -165 -29 -184 -16 -9 -40
-41 -56 -73 -23 -46 -29 -76 -36 -171 -10 -136 -21 -199 -45 -259 -17 -42 -18
-43 -54 -37 -29 4 -44 1 -63 -15 -15 -11 -48 -27 -74 -36 -27 -9 -61 -28 -78
-43 -16 -15 -40 -31 -51 -34 -12 -4 -34 -25 -48 -47 -26 -38 -78 -79 -102 -79
-7 0 -15 10 -19 23 -6 19 -8 18 -14 -15 -17 -83 -71 -93 -71 -12 0 14 14 36
35 55 47 43 49 97 6 150 l-29 35 23 58 c13 32 25 59 27 61 13 14 218 -2 218
-16 0 -5 -24 -9 -54 -9 -34 0 -58 -5 -65 -14 -21 -26 9 -31 159 -27 152 3 190
11 169 37 -6 8 -20 14 -30 14 -10 0 -21 5 -24 10 -4 6 7 10 25 10 45 0 70 17
70 45 0 36 -33 65 -75 65 -36 0 -92 23 -110 45 -18 23 -90 25 -124 4 -32 -19
-81 -26 -81 -10 0 8 45 97 59 116 4 6 13 24 18 40 6 17 30 81 54 143 l42 113
-20 20 c-30 30 -72 36 -275 40 -388 7 -570 -5 -614 -42 -21 -18 14 -134 46
-154 15 -9 12 -55 -3 -55 -8 0 -33 13 -55 30 -23 16 -53 30 -67 30 -30 0 -31
5 -5 65 25 59 25 70 -1 94 -27 25 -59 29 -284 41 -248 12 -536 -3 -602 -31
-56 -24 -64 -34 -52 -66 5 -14 9 -34 9 -45 0 -12 11 -36 25 -54 31 -41 32 -54
1 -54 -19 0 -25 6 -28 27 -2 16 -14 33 -29 42 -15 9 -43 29 -63 45 -23 18 -52
30 -80 33 -37 5 -46 2 -60 -18 l-16 -23 -40 39 -41 40 -90 0 c-87 0 -92 -1
-113 -27 -14 -18 -31 -28 -49 -28 -27 0 -27 0 -27 -75 l0 -75 93 0 c88 0 130
-10 114 -27 -5 -4 -53 -9 -107 -11 l-100 -4 0 -44 c0 -41 2 -43 34 -49 18 -4
77 -1 130 5 89 11 100 10 124 -7 24 -16 56 -19 255 -23 l228 -5 50 -95 c28
-52 66 -124 86 -160 32 -59 34 -66 18 -75 -70 -42 -87 -81 -59 -140 9 -20 24
-39 33 -42 33 -10 46 -21 43 -39 -7 -36 -21 -37 -56 -6 -34 30 -95 50 -114 38
-5 -3 -54 -8 -109 -12 l-100 -6 -5 31 c-2 17 -2 33 0 36 3 3 26 5 52 5 69 0
99 42 40 55 -17 4 -30 11 -30 15 0 13 70 30 96 24 30 -8 92 13 103 34 14 28 1
42 -39 42 -40 0 -74 24 -85 61 -4 10 -28 24 -62 35 l-56 18 -23 -27 c-13 -15
-27 -35 -33 -44 -9 -17 -12 -17 -38 -2 -15 9 -52 19 -81 23 -30 4 -61 11 -70
15 -61 30 -123 44 -179 43 -47 -2 -70 2 -95 18 -18 11 -39 20 -45 20 -10 0
-13 -75 -13 -339 0 -331 1 -340 20 -346 26 -8 26 -31 0 -47 -13 -9 -20 -24
-20 -46 l0 -32 40 20 c62 32 194 23 232 -16 10 -10 -51 -47 -67 -40 -7 2 -43
1 -81 -4 -61 -8 -72 -13 -96 -41 -29 -34 -39 -85 -15 -76 7 3 21 -1 32 -9 26
-19 75 -18 75 1 0 9 -11 20 -24 25 -33 12 -39 25 -19 41 17 15 39 16 393 24
238 5 286 8 314 20 17 7 19 5 13 -23 -4 -17 -18 -49 -31 -71 l-25 -39 -155 0
c-237 -1 -348 -19 -413 -68 -34 -26 -41 -52 -21 -83 24 -38 4 -51 -77 -51 -66
0 -75 -2 -75 -18 0 -17 12 -20 113 -26 61 -4 114 -11 115 -16 2 -6 18 -32 36
-58 18 -26 54 -85 81 -132 26 -47 65 -110 86 -141 l38 -56 -29 -21 c-15 -12
-31 -35 -35 -51 -7 -35 15 -85 45 -101 28 -15 26 -57 -6 -127 -14 -32 -44
-107 -65 -168 -39 -110 -124 -290 -167 -354 -12 -19 -22 -38 -22 -42 0 -5 182
-9 405 -9 311 0 405 3 405 12 0 7 -23 45 -51 86 -75 109 -148 280 -185 432
-15 62 -18 130 -6 130 13 0 52 97 52 130 0 17 -5 39 -12 49 -15 24 7 85 63
171 22 34 62 106 89 160 27 53 56 100 65 104 9 3 45 6 80 6 l63 0 30 -52 c16
-29 46 -98 66 -153 21 -55 55 -133 77 -173 39 -74 47 -106 29 -117 -17 -10
-11 -45 16 -94 l25 -47 -41 -109 c-22 -59 -49 -124 -60 -144 -10 -21 -28 -66
-39 -102 -12 -35 -31 -80 -43 -99 -12 -19 -43 -70 -69 -112 l-47 -78 399 0
c219 0 399 2 399 4 0 3 -22 33 -48 68 -83 110 -166 334 -186 500 -6 50 -5 57
12 62 33 11 56 77 48 140 -7 59 -6 63 78 239 25 54 46 102 46 106 0 15 54 117
73 138 18 20 30 23 94 23 l73 0 50 -98 c64 -125 151 -288 176 -329 19 -32 19
-32 -4 -56 -27 -29 -28 -46 -2 -93 l21 -36 -35 -111 c-51 -161 -123 -318 -205
-443 l-71 -109 427 -3 c234 -1 428 0 431 2 2 3 -30 43 -71 89 -86 96 -99 119
-139 237 -42 121 -45 140 -36 190 4 24 6 58 2 75 -4 25 0 36 31 65 34 33 36
38 34 95 -1 59 15 145 32 175 9 14 75 149 124 255 13 28 26 58 29 68 4 13 16
17 54 17 26 0 55 -6 64 -13 31 -25 121 -194 145 -272 4 -11 24 -53 45 -93 39
-74 46 -102 27 -102 -15 0 -41 -68 -34 -91 4 -10 18 -33 32 -50 l26 -30 -31
-110 c-36 -124 -97 -273 -151 -369 -20 -36 -43 -78 -51 -95 -8 -17 -16 -33
-18 -37 -2 -5 177 -8 397 -8 l401 0 -22 42 c-13 24 -42 74 -65 113 -50 81
-112 233 -145 358 l-23 88 31 24 c43 34 49 65 23 122 l-21 46 43 81 c23 45 59
110 79 146 64 111 82 143 107 193 21 41 29 48 46 43 12 -3 32 -6 44 -6 16 0
24 -9 34 -37 6 -21 15 -42 19 -48 16 -21 80 -151 80 -163 0 -7 15 -44 34 -81
51 -103 54 -129 21 -155 -25 -20 -27 -27 -21 -60 5 -27 15 -42 37 -54 32 -19
35 -31 15 -70 -7 -15 -30 -76 -50 -137 -20 -60 -73 -182 -116 -270 -44 -89
-80 -164 -80 -168 0 -4 173 -7 385 -7 l386 0 -57 108 c-31 59 -60 112 -65 117
-19 24 -73 186 -89 269 l-17 89 37 37 c31 31 39 35 54 25 9 -7 38 -16 64 -20
49 -8 44 -16 -20 -29 -24 -6 -28 -11 -28 -41 0 -22 8 -43 20 -55 40 -40 92
-11 55 30 -19 22 -15 36 8 27 14 -5 20 -60 32 -262 2 -27 4 -56 4 -62 2 -21
39 -15 54 8 16 22 14 97 -3 130 -6 10 -10 54 -10 98 l0 80 127 0 c169 1 221
19 193 71 -10 19 -88 50 -128 50 -14 0 -30 7 -37 17 -9 12 -28 16 -74 16 -33
0 -61 4 -61 9 0 4 39 8 88 8 88 0 120 9 108 29 -5 7 -44 11 -106 11 -59 0
-101 4 -105 11 -11 17 -2 19 84 21 50 1 86 6 92 14 17 21 -10 28 -101 29 l-85
0 3 26 c3 31 -20 44 -49 29 -12 -7 -19 -21 -19 -40 0 -25 -5 -30 -34 -36 -19
-3 -42 -14 -51 -24 -16 -18 -16 -20 9 -44 16 -17 37 -26 58 -27 22 -1 13 -4
-26 -10 -33 -5 -62 -7 -64 -4 -3 3 -5 24 -6 47 0 52 59 196 116 280 21 32 38
61 38 65 0 5 20 33 44 64 24 31 53 74 65 96 23 45 29 48 164 59 83 6 87 8 87
31 0 23 -3 24 -57 21 -91 -4 -99 9 -61 109 19 53 20 64 10 144 -16 115 -16
276 0 285 6 4 33 6 60 5 47 -2 48 -1 48 27 0 42 -28 47 -200 39 -47 -2 -101
-1 -120 4 -44 10 -108 12 -180 5 -58 -5 -177 10 -196 26 -8 5 -32 1 -65 -12
l-53 -20 -33 32 -32 31 -68 -10 c-38 -6 -71 -8 -75 -6 -18 10 -6 58 21 89 43
49 53 95 33 149 -14 40 -15 46 0 62 8 10 36 56 62 103 25 47 79 139 119 205
l72 119 70 13 c89 17 131 16 160 -3 14 -9 25 -11 29 -5 4 6 17 4 34 -5 15 -7
41 -14 59 -14 17 0 34 -4 38 -10 3 -5 12 -7 21 -3 8 3 14 2 12 -3 -2 -5 5 -20
14 -33 19 -27 44 -20 28 8 -8 16 -4 19 35 25 25 3 83 3 130 0 l85 -6 0 26 c0
14 -4 26 -9 26 -102 0 -330 25 -386 42 -38 12 -89 21 -112 21 -24 -1 -45 3
-48 8 -9 14 -41 11 -55 -6 -14 -16 -56 -20 -64 -6 -3 5 1 28 9 51 8 23 15 55
15 70 0 25 -6 29 -59 46 -59 19 -60 19 -56 54 2 19 4 57 4 83 1 34 5 47 14 44
6 -2 11 -12 9 -22 -5 -24 46 -75 74 -75 13 0 35 -5 51 -11 27 -11 90 -11 398
-3 214 6 215 6 215 26 0 30 -41 39 -101 22 -84 -22 -467 -18 -533 5 -53 18
-79 47 -32 35 14 -3 38 -7 53 -9 15 -1 51 -8 78 -15 85 -20 461 2 518 32 9 5
17 20 17 33 0 30 -7 31 -34 6 -17 -15 -50 -20 -186 -30 -91 -7 -167 -13 -170
-14 -9 -2 -134 13 -190 24 -30 5 -81 22 -112 37 -58 27 -58 27 -58 72 0 25 3
62 7 84 6 36 10 40 77 72 65 31 78 34 166 34 173 0 267 -26 365 -100 30 -23
67 -41 93 -45 40 -6 42 -6 42 19 0 19 -5 26 -19 26 -11 0 -27 7 -36 16 -8 9
-22 13 -30 10 -9 -3 -12 0 -8 10 3 8 -1 14 -11 14 -20 0 -58 21 -69 38 -4 6
-19 12 -32 12 -13 0 -34 4 -47 9 -130 49 -352 52 -423 4 -11 -7 -27 -13 -37
-13 -14 0 -15 5 -7 32 11 39 24 48 72 48 26 0 52 10 87 35 66 46 109 56 117
27 4 -16 20 -26 62 -37 31 -9 63 -23 71 -30 10 -9 49 -12 127 -11 124 1 148
10 124 47 -12 20 -11 21 23 17 l36 -4 0 41 c0 28 -3 36 -9 26 -7 -12 -14 -5
-26 27 -24 60 -150 141 -196 127 -34 -11 -20 -30 38 -55 38 -17 65 -38 85 -64
35 -49 35 -64 1 -68 -22 -2 -28 -8 -26 -25 3 -21 -1 -23 -51 -22 -31 1 -82 13
-122 28 -57 22 -71 32 -79 56 -16 48 -24 55 -66 55 -68 0 -100 30 -64 60 8 7
20 30 25 51 14 51 47 73 100 65 22 -3 59 -9 82 -12 23 -4 54 -14 68 -24 14
-10 55 -26 93 -35 57 -15 72 -24 101 -60 19 -22 36 -52 39 -66 2 -13 5 318 6
736 l1 760 -47 25 c-28 15 -65 48 -92 83 -24 31 -67 71 -93 88 -38 23 -54 41
-70 78 -18 45 -26 51 -89 81 -40 18 -99 36 -137 41 -140 18 -242 46 -338 94
-78 38 -118 42 -174 18z m-3 -126 c0 -48 -2 -53 -31 -68 -33 -16 -126 -15
-126 2 0 5 6 9 13 9 8 0 40 25 73 55 32 30 62 54 65 55 3 0 6 -24 6 -53z m178
33 c3 -5 2 -10 -4 -10 -5 0 -13 5 -16 10 -3 6 -2 10 4 10 5 0 13 -4 16 -10z
m225 -42 c121 -18 165 -29 210 -51 38 -18 45 -26 42 -47 -2 -20 9 -35 50 -71
29 -25 63 -51 75 -58 23 -12 50 -51 36 -51 -5 0 -37 26 -73 58 -60 54 -68 58
-110 57 -32 -1 -51 4 -66 17 -23 21 -54 15 -54 -10 0 -8 23 -39 50 -68 28 -29
50 -58 50 -63 0 -21 -19 -11 -46 24 -14 19 -34 35 -44 35 -10 0 -34 20 -55 45
-20 25 -50 52 -66 60 -16 9 -46 39 -67 68 -58 79 -58 79 -25 71 15 -3 57 -11
93 -16z m-90 -123 c0 -5 -9 1 -20 15 -11 14 -20 30 -20 35 0 6 9 -1 20 -15 11
-14 20 -29 20 -35z m-340 -94 c0 -22 -13 -39 -26 -34 -8 3 -20 0 -28 -6 -10
-9 -15 -8 -20 4 -3 10 1 18 12 21 9 3 24 9 32 14 20 12 30 12 30 1z m-372 -38
c-2 -10 -17 -20 -38 -24 -47 -10 -49 -4 -9 20 41 25 51 26 47 4z m857 -63 c3
-6 -1 -7 -9 -4 -18 7 -21 14 -7 14 6 0 13 -4 16 -10z m-476 -49 c10 -6 11 -21
6 -61 -9 -62 -21 -55 -27 18 -5 53 -3 58 21 43z m661 -90 l-1 -36 -29 58 c-37
73 -37 78 0 42 23 -22 30 -38 30 -64z m-746 63 c12 -5 16 -20 16 -63 0 -56 0
-56 -18 -33 -13 17 -26 23 -47 20 -25 -2 -31 -10 -41 -43 l-11 -40 -13 28
c-19 39 8 97 44 97 15 0 30 8 36 20 12 22 12 22 34 14z m915 -65 c30 -44 41
-71 41 -98 -1 -34 -2 -33 -22 24 -11 33 -32 73 -44 88 -22 26 -31 47 -20 47 2
0 23 -28 45 -61z m-535 8 c4 -19 3 -26 -4 -22 -5 3 -10 18 -10 32 0 32 5 28
14 -10z m243 -28 c16 -33 28 -45 49 -49 22 -4 30 -14 44 -55 12 -37 22 -50 36
-50 12 0 20 8 22 23 2 12 6 22 10 22 12 0 33 -40 27 -50 -3 -5 1 -33 10 -62
23 -80 18 -101 -11 -46 -30 59 -68 87 -95 70 -25 -16 -24 -17 -38 28 -7 23
-31 60 -56 86 -40 40 -45 51 -45 91 0 56 17 54 47 -8z m-897 5 c35 -41 34 -50
-4 -33 -22 10 -29 9 -45 -5 -11 -10 -18 -23 -15 -30 3 -7 -4 -21 -16 -31 -11
-10 -20 -25 -20 -33 0 -12 -3 -12 -15 -2 -21 18 -44 5 -60 -34 -13 -31 -57
-76 -75 -76 -16 0 63 137 96 165 41 36 45 65 9 65 -15 0 -42 -15 -66 -37 l-41
-37 16 39 c9 21 19 41 22 44 5 6 145 38 170 40 7 1 26 -15 44 -35z m-16 -112
c3 -10 5 -40 4 -68 -1 -45 -5 -53 -33 -72 -45 -32 -49 -27 -15 20 31 43 39 92
20 128 -8 16 -7 18 4 14 9 -3 18 -13 20 -22z m193 -69 c-3 -10 -5 -4 -5 12 0
17 2 24 5 18 2 -7 2 -21 0 -30z m-131 -28 c-9 -14 -21 -25 -27 -25 -6 0 0 13
13 29 28 34 37 32 14 -4z m-146 18 c0 -12 -52 -83 -61 -83 -16 0 -9 21 17 56
24 31 44 44 44 27z m-2862 -112 c27 -34 31 -45 22 -56 -7 -8 -9 -26 -6 -39 3
-14 2 -28 -4 -31 -5 -3 -10 -2 -10 3 0 5 -14 29 -30 54 -22 33 -29 53 -25 70
4 17 0 29 -14 42 -12 11 -21 29 -21 40 1 23 10 14 88 -83z m3429 27 c-2 -13
-4 -3 -4 22 0 25 2 35 4 23 2 -13 2 -33 0 -45z m-117 28 c0 -8 -4 -17 -9 -21
-12 -7 -24 12 -16 25 9 15 25 12 25 -4z m-640 -21 c-7 -9 -15 -13 -17 -11 -7
7 7 26 19 26 6 0 6 -6 -2 -15z m340 -10 c0 -2 -10 -10 -22 -16 -21 -11 -22
-11 -9 4 13 16 31 23 31 12z m1189 -78 c-1 -40 -4 -97 -8 -127 -7 -54 -7 -54
-14 42 -8 99 -2 172 14 162 5 -3 9 -38 8 -77z m-242 31 c-3 -8 -6 -5 -6 6 -1
11 2 17 5 13 3 -3 4 -12 1 -19z m-874 -23 c-3 -9 -8 -14 -10 -11 -3 3 -2 9 2
15 9 16 15 13 8 -4z m647 -32 c0 -22 -2 -25 -10 -13 -13 20 -13 40 0 40 6 0
10 -12 10 -27z m29 -58 c6 3 11 -1 11 -10 0 -12 -9 -15 -37 -14 -21 2 -50 -1
-65 -5 -18 -5 -28 -4 -28 3 0 6 11 13 25 17 13 3 30 12 36 20 10 13 14 12 30
-2 10 -9 23 -13 28 -9z m-109 -74 c0 -26 32 -40 75 -34 76 10 53 -24 -27 -41
-42 -9 -36 -36 8 -36 44 0 36 -17 -12 -26 -24 -4 -39 -14 -46 -30 -11 -23 -68
-64 -89 -64 -12 0 -3 85 13 117 6 12 21 24 34 27 27 7 43 51 25 69 -15 15 -14
27 4 27 8 0 15 -4 15 -9z m-3783 -155 c46 -22 53 -29 58 -63 13 -76 27 -103
71 -139 45 -37 99 -134 110 -197 3 -18 21 -75 41 -127 19 -52 39 -108 45 -125
24 -66 58 -135 67 -135 23 0 39 41 30 78 -12 54 -4 50 17 -10 18 -48 22 -53
49 -52 31 0 54 -19 55 -47 0 -9 7 -22 15 -29 12 -10 18 -10 31 1 13 11 15 24
10 67 -8 67 6 66 49 -1 17 -26 37 -47 46 -47 9 0 22 -7 29 -15 7 -8 19 -15 26
-15 39 0 4 178 -61 304 -14 27 -25 57 -25 67 0 26 19 33 39 15 24 -22 33 -20
66 14 l28 29 28 -20 c27 -19 45 -57 51 -109 2 -18 9 -25 25 -25 22 0 83 -67
83 -91 0 -8 4 -14 9 -14 11 0 30 -72 33 -125 3 -37 5 -40 31 -38 15 1 27 -1
27 -5 0 -4 7 -39 16 -77 15 -68 33 -169 37 -210 1 -12 -4 -20 -13 -20 -9 0
-14 8 -13 20 4 39 -20 195 -33 212 -10 14 -17 16 -31 7 -16 -10 -18 -24 -14
-123 l3 -111 -36 0 c-40 0 -45 6 -19 25 60 44 -75 69 -237 44 -38 -6 -153 -11
-257 -12 l-188 -2 2 -26 c1 -22 -4 -28 -25 -32 -15 -3 -34 0 -42 8 -8 7 -37
15 -65 18 -37 3 -72 18 -135 56 -112 69 -160 128 -160 200 0 55 -8 71 -36 71
-34 0 -58 -59 -44 -109 21 -75 5 -83 -34 -17 -33 56 -32 64 3 131 16 30 31 60
34 67 3 9 19 -1 46 -27 40 -38 43 -39 56 -22 12 17 9 25 -25 70 -73 97 -88
134 -95 237 -5 76 -4 91 6 75 6 -11 20 -29 29 -40 10 -11 27 -47 39 -80 12
-33 35 -84 52 -112 27 -49 29 -61 30 -160 2 -126 16 -167 49 -138 18 16 19 15
30 -24 18 -68 63 -48 53 24 -4 29 -1 50 10 66 11 19 13 36 7 79 -5 30 -9 77
-9 105 -1 39 -13 74 -60 170 -93 190 -116 269 -106 375 4 41 7 84 7 95 0 38 8
65 21 65 6 0 35 -11 64 -24z m-149 -83 c-4 -32 -8 -78 -7 -103 3 -146 -9 -159
-22 -23 -5 58 -4 92 3 100 6 7 7 25 4 39 -5 18 -3 30 6 35 23 15 25 10 16 -48z
m3965 -108 c-25 -216 -30 -227 -25 -50 5 157 13 201 33 177 3 -4 0 -61 -8
-127z m347 116 c0 -6 -4 -13 -10 -16 -5 -3 -10 1 -10 9 0 9 5 16 10 16 6 0 10
-4 10 -9z m-3975 -100 c-3 -2 -18 4 -33 16 -18 14 -28 31 -30 54 l-3 34 35
-49 c20 -27 34 -52 31 -55z m-455 67 c0 -27 -13 -58 -21 -52 -10 6 -12 48 -2
57 10 11 23 8 23 -5z m1015 -68 c18 -35 19 -40 3 -40 -27 0 -41 18 -34 44 8
33 12 33 31 -4z m-360 -20 c3 -5 1 -10 -4 -10 -6 0 -11 5 -11 10 0 6 2 10 4
10 3 0 8 -4 11 -10z m-723 -105 c-3 -43 2 -83 17 -138 23 -81 22 -148 -3 -183
-29 -40 -52 230 -32 371 7 48 10 55 16 35 4 -14 5 -52 2 -85z m645 68 c3 -7
-4 -9 -16 -6 -12 3 -18 9 -15 15 7 11 26 6 31 -9z m383 -18 c0 -16 -35 -21
-45 -6 -4 8 9 15 38 20 4 0 7 -6 7 -14z m226 -130 c35 -27 63 -32 81 -14 7 7
12 0 17 -25 4 -19 18 -49 32 -66 19 -22 22 -30 11 -30 -8 0 -24 16 -36 35 -20
35 -44 45 -57 24 -4 -6 -24 8 -50 38 -60 67 -59 85 2 38z m1011 -7 c-3 -8 -6
-5 -6 6 -1 11 2 17 5 13 3 -3 4 -12 1 -19z m-165 -95 c-4 -66 -2 -78 14 -90
16 -12 17 -15 4 -23 -8 -5 -20 -10 -27 -10 -16 0 -26 71 -14 104 6 15 11 43
11 62 0 19 3 34 8 34 4 0 6 -35 4 -77z m-1236 -108 c12 -84 -2 -78 -30 10 -51
166 -53 184 -11 101 19 -38 37 -88 41 -111z m-576 89 c17 -31 30 -57 28 -59
-2 -2 -12 -5 -23 -7 -24 -4 -42 29 -48 90 -6 52 2 48 43 -24z m3816 -24 c-16
-46 -16 -28 0 55 6 32 9 35 11 15 2 -14 -3 -45 -11 -70z m-3173 -10 c18 -51
32 -118 23 -109 -9 9 -56 138 -56 156 0 25 14 4 33 -47z m620 -42 c10 -14 17
-34 15 -43 -3 -17 -26 10 -72 85 -16 25 35 -12 57 -42z m2542 -68 c-4 -33 -8
-73 -10 -88 -2 -15 -6 -54 -9 -87 -4 -33 -8 -67 -11 -75 -2 -8 -9 -71 -15
-140 -22 -265 -36 -340 -62 -340 -7 0 -8 18 -3 58 4 31 9 71 10 87 7 83 27
246 35 290 12 61 39 217 45 265 14 101 31 127 20 30z m-3738 -86 c4 -57 2 -93
-4 -97 -12 -7 -21 75 -22 178 -1 93 19 32 26 -81z m1027 110 c3 -8 2 -12 -4
-9 -6 3 -10 10 -10 16 0 14 7 11 14 -7z m611 -42 c17 -9 17 -10 -3 -16 -24 -8
-29 -38 -9 -54 13 -11 157 -22 370 -27 75 -2 141 -6 146 -9 5 -4 3 -28 -4 -58
-8 -28 -17 -87 -20 -132 -5 -64 -3 -86 11 -112 23 -42 13 -70 -18 -53 -13 7
-29 20 -35 29 -7 10 -25 21 -40 25 -41 10 -53 24 -53 59 0 54 -11 61 -92 59
-40 -1 -103 -5 -140 -8 -63 -6 -67 -5 -83 19 -9 13 -21 58 -27 98 -13 97 -27
111 -127 127 -43 6 -96 9 -117 5 -34 -5 -43 -2 -67 21 -15 15 -27 31 -27 34 0
10 316 4 335 -7z m-377 -47 c-3 -3 -9 2 -12 12 -6 14 -5 15 5 6 7 -7 10 -15 7
-18z m2667 -45 c0 -7 -10 -19 -23 -28 -20 -13 -22 -13 -17 2 3 9 7 23 10 32 6
18 30 14 30 -6z m-2811 -57 c9 -25 14 -48 12 -50 -4 -5 -46 83 -46 97 0 24 19
-3 34 -47z m69 -13 c3 -11 2 -18 -3 -15 -4 3 -10 14 -13 25 -3 11 -2 18 3 15
4 -3 10 -14 13 -25z m122 -73 c8 -26 11 -47 7 -47 -11 0 -71 117 -64 124 11
12 43 -31 57 -77z m272 31 c-3 -8 -6 -5 -6 6 -1 11 2 17 5 13 3 -3 4 -12 1
-19z m-341 -88 c9 -38 15 -46 38 -48 14 -2 31 -12 36 -23 6 -10 27 -27 48 -38
20 -10 45 -28 55 -39 18 -19 17 -20 -39 -24 -37 -3 -61 -11 -69 -21 -8 -12
-27 -17 -58 -17 -55 0 -63 11 -78 101 -5 34 -19 81 -31 105 -14 31 -17 49 -11
55 7 7 13 2 17 -15 11 -45 56 -26 56 24 1 24 1 24 12 5 7 -11 17 -40 24 -65z
m2359 -72 c-4 -35 -9 -75 -10 -90 -4 -60 -5 -68 -14 -68 -14 0 -11 111 5 168
8 28 17 52 20 52 3 0 3 -28 -1 -62z m-3725 -31 c0 -13 -29 12 -42 37 -10 19
-8 18 16 -3 14 -14 26 -29 26 -34z m3278 44 c21 -13 10 -43 -23 -62 -50 -30
-55 -25 -30 35 15 36 29 43 53 27z m-104 -127 c20 -8 20 -31 1 -77 -8 -20 -15
-47 -15 -60 0 -13 -15 -37 -35 -57 -19 -19 -35 -42 -35 -51 0 -10 -9 -21 -21
-24 -27 -9 -33 -1 -19 24 6 12 8 25 5 30 -3 5 2 36 11 68 9 32 19 74 23 94 4
19 11 41 15 47 8 13 44 16 70 6z m-1144 -24 c12 -8 9 -10 -12 -10 -16 0 -28 5
-28 10 0 13 20 13 40 0z m-1783 -47 c5 -15 -35 -19 -297 -33 -283 -14 -310
-13 -310 4 0 11 34 15 168 21 92 4 187 10 211 14 75 10 224 7 228 -6z m2759
-50 c-26 -95 -42 -133 -53 -133 -7 0 -13 -8 -13 -17 0 -17 -28 -53 -41 -53
-23 0 35 185 64 205 29 20 50 19 43 -2z m690 -9 c-3 -9 -6 -22 -6 -30 0 -13
-12 -14 -72 -8 -90 8 -132 22 -72 23 23 1 57 8 75 16 47 20 83 20 75 -1z
m-816 -12 c0 -12 -67 -142 -87 -168 -12 -17 -23 -39 -23 -48 0 -10 -9 -29 -20
-43 -11 -14 -20 -32 -20 -40 0 -12 -18 -48 -68 -139 -28 -51 -152 -47 -152 5
0 28 37 111 50 111 29 0 122 56 139 84 25 39 19 47 -31 40 l-40 -7 6 99 c3 54
5 101 6 104 0 6 240 8 240 2z m-3157 -47 c-4 -15 -76 -12 -81 3 -3 10 7 12 39
10 24 -2 43 -7 42 -13z m3862 -31 c55 -9 102 -17 103 -19 15 -15 -20 -22 -90
-20 -46 2 -130 4 -188 4 l-105 1 42 24 c45 26 85 36 118 29 11 -2 65 -11 120
-19z m-305 -30 c0 -2 -9 -4 -21 -4 -11 0 -18 4 -14 10 5 8 35 3 35 -6z m-1568
-21 c8 -6 39 -7 83 -1 141 16 285 6 285 -21 0 -17 -32 -20 -226 -18 -194 2
-224 8 -224 43 0 15 61 13 82 -3z m-932 -27 c0 -25 -169 -33 -177 -9 -5 15 19
20 105 22 56 1 72 -2 72 -13z m3015 -30 c22 -7 38 -16 35 -21 -6 -11 -397 -11
-408 0 -12 12 23 26 56 22 18 -2 59 2 90 9 61 13 162 8 227 -10z m-2257 -24
c79 -1 121 -6 117 -12 -3 -5 -19 -10 -36 -10 -19 0 -29 -5 -29 -15 0 -18 27
-25 112 -28 93 -4 108 -22 27 -31 -69 -7 -78 -11 -61 -28 6 -6 41 -10 87 -9
99 3 91 -15 -10 -24 -41 -4 -75 -11 -75 -16 0 -15 41 -31 66 -25 13 4 43 3 66
-1 38 -6 40 -7 18 -14 -14 -4 -44 -7 -67 -8 -32 -1 -43 -5 -43 -16 0 -24 24
-28 105 -18 41 5 75 6 75 2 0 -12 -66 -30 -137 -37 -44 -5 -68 -12 -71 -21 -4
-12 10 -13 84 -8 49 3 101 10 117 16 17 7 27 7 27 1 0 -6 -6 -10 -14 -10 -7 0
-19 -6 -25 -13 -6 -8 -49 -19 -96 -26 -47 -7 -88 -17 -91 -22 -10 -17 29 -22
78 -9 27 6 52 10 54 7 12 -12 -46 -37 -104 -45 -65 -9 -82 -17 -66 -31 5 -5
42 -2 86 7 73 15 103 13 82 -7 -5 -5 -38 -15 -74 -22 -36 -7 -69 -16 -74 -21
-20 -17 6 -20 73 -7 39 7 74 9 77 6 17 -17 -44 -46 -109 -53 -67 -7 -88 -17
-70 -35 6 -6 35 -4 77 6 38 9 71 13 74 10 13 -12 -20 -28 -60 -29 -35 -1 -43
-4 -42 -18 2 -21 -22 -23 -77 -8 -31 9 -36 14 -32 34 6 31 -30 122 -128 321
-44 87 -79 163 -79 168 0 4 -9 27 -20 49 -11 23 -20 44 -20 48 0 3 19 5 43 5
23 -1 97 -3 165 -3z m-688 -14 c-14 -6 -73 -12 -132 -12 -59 -1 -110 -5 -114
-9 -31 -30 134 -54 264 -38 51 6 60 5 50 -6 -7 -7 -44 -16 -81 -20 -37 -5 -67
-12 -67 -18 1 -18 49 -24 113 -14 79 11 83 11 72 0 -14 -13 -126 -41 -165 -41
-21 0 -30 -4 -27 -12 2 -8 24 -13 61 -14 39 0 62 -5 73 -17 19 -19 18 -20 -62
-40 -65 -16 -76 -42 -14 -34 24 3 62 10 84 16 l40 10 -23 -19 c-12 -10 -48
-24 -80 -30 -83 -17 -94 -20 -89 -33 4 -14 97 -10 136 4 26 10 43 3 23 -10 -7
-4 -42 -14 -78 -21 -67 -14 -99 -35 -71 -46 8 -3 32 -1 54 5 47 13 63 14 63 2
0 -12 -53 -23 -122 -25 -31 -1 -60 -5 -64 -8 -16 -16 12 -28 67 -28 57 0 73
-10 47 -27 -7 -4 -42 -10 -78 -13 -49 -4 -65 -9 -65 -20 0 -12 12 -14 60 -12
33 2 68 6 79 9 12 3 17 1 14 -8 -3 -8 -29 -17 -64 -22 -88 -12 -91 -13 -64
-42 l23 -25 -26 -1 c-15 -1 -32 -2 -38 -3 -17 -2 -111 160 -174 299 -67 147
-96 204 -134 260 l-41 60 218 5 c386 10 360 10 332 -2z m887 6 c-3 -3 -12 -4
-19 -1 -8 3 -5 6 6 6 11 1 17 -2 13 -5z m1446 -49 c31 -4 55 -10 52 -15 -3 -5
-27 -6 -54 -3 -31 3 -51 1 -55 -6 -11 -17 29 -28 127 -34 78 -4 88 -3 85 12
-2 9 -15 17 -33 19 -51 6 -53 22 -3 22 27 0 50 -6 58 -14 6 -8 17 -13 24 -10
7 3 21 -6 30 -20 13 -20 25 -26 54 -26 54 0 70 -14 34 -29 -17 -7 -40 -11 -53
-9 -32 4 -35 -18 -4 -38 22 -14 43 -16 143 -11 64 3 127 9 140 13 12 3 22 2
22 -4 0 -26 -213 -48 -295 -31 -29 6 -31 -27 -3 -42 14 -7 66 -13 130 -13 60
-1 108 -4 108 -7 0 -4 -6 -12 -14 -18 -14 -12 -55 -16 -173 -20 -39 -1 -53 -5
-53 -16 0 -33 154 -47 230 -20 47 17 56 15 46 -11 -4 -11 -13 -14 -28 -11 -14
4 -30 0 -41 -11 -15 -13 -38 -17 -96 -17 -74 0 -76 -1 -76 -25 l0 -25 94 3
c70 3 92 0 89 -9 -2 -6 -20 -13 -38 -15 -73 -6 -156 -16 -169 -20 -11 -3 -11
-7 0 -20 10 -12 25 -14 76 -8 38 4 63 3 63 -3 0 -16 -48 -33 -94 -33 -48 0
-61 -7 -45 -26 7 -9 28 -11 65 -8 54 4 66 -3 40 -25 -11 -9 -47 -11 -133 -6
-104 6 -120 10 -136 29 -36 42 -67 96 -67 115 0 40 -29 129 -73 227 -25 54
-51 117 -58 139 -7 22 -19 49 -26 60 -19 29 -16 34 20 30 17 -3 58 -7 90 -10z
m-2157 -51 c-3 -9 -6 -18 -6 -20 0 -7 -36 -4 -44 3 -3 4 4 13 16 20 31 17 41
16 34 -3z m2669 -35 c-25 -10 -161 -11 -151 -2 10 10 103 19 141 14 26 -3 27
-5 10 -12z m-907 -42 c25 -68 11 -167 -24 -167 -17 0 -58 -24 -91 -53 -41 -36
-48 -13 -9 30 27 30 39 55 45 90 7 44 48 133 61 133 4 0 11 -15 18 -33z m1032
-11 c0 -3 -4 -8 -10 -11 -5 -3 -10 -1 -10 4 0 6 5 11 10 11 6 0 10 -2 10 -4z
m-3454 -27 c13 -22 -12 -29 -67 -20 -30 5 -43 9 -29 10 14 1 32 6 40 11 20 13
47 13 56 -1z m-138 -16 c-10 -2 -26 -2 -35 0 -10 3 -2 5 17 5 19 0 27 -2 18
-5z m907 -32 c29 -7 29 -7 8 -15 -28 -9 -30 -32 -3 -48 36 -23 22 -31 -40 -24
-58 7 -62 6 -91 -23 -17 -17 -28 -35 -24 -40 3 -5 -3 -14 -12 -20 -28 -15 -4
-31 52 -33 28 -1 131 1 230 6 136 6 183 11 191 22 17 21 21 18 35 -23 6 -21
20 -54 29 -73 29 -58 33 -80 17 -80 -18 0 -67 -56 -67 -75 0 -8 14 -30 30 -48
33 -38 36 -53 17 -79 -12 -15 -15 -15 -37 3 -14 10 -33 19 -43 19 -10 0 -28 6
-40 12 -12 7 -51 18 -87 24 -36 7 -84 18 -107 24 -55 16 -93 7 -93 -23 -1 -36
-23 -66 -65 -88 -22 -12 -64 -44 -92 -72 -29 -28 -56 -47 -60 -43 -9 8 -32 93
-33 119 0 10 4 16 9 13 12 -8 59 49 67 80 9 37 -4 74 -37 105 l-30 28 39 83
c22 46 61 127 86 181 l47 97 37 -1 c20 -1 51 -4 67 -8z m2630 -30 c-8 -13 -45
-15 -45 -2 0 5 10 11 23 13 27 5 31 3 22 -11z m-1885 -76 c0 -10 -24 -55 -29
-55 -3 0 -6 14 -7 30 -1 23 3 30 17 30 11 0 19 -2 19 -5z m1256 -82 c21 -38
55 -96 77 -131 l39 -63 -21 -23 c-11 -12 -21 -30 -21 -40 0 -23 24 -67 49 -90
22 -20 27 -51 11 -76 -7 -12 -12 -11 -30 5 -19 17 -26 18 -66 7 -62 -17 -62
-17 -56 37 3 34 0 51 -9 57 -15 10 -209 13 -209 3 0 -3 -6 -6 -12 -7 -7 -1
-55 -5 -107 -10 -86 -8 -95 -11 -123 -41 -30 -32 -68 -39 -112 -22 -19 7 -74
1 -106 -13 -10 -4 -19 2 -25 16 -17 39 -69 39 -149 0 -74 -36 -92 -35 -58 1
27 29 28 51 2 77 -11 11 -20 29 -20 39 0 14 5 18 20 14 14 -4 20 0 20 11 0 9
3 15 8 14 13 -3 61 21 81 41 16 16 22 17 31 6 6 -7 10 -21 8 -31 -3 -18 13
-23 88 -29 23 -1 47 -5 53 -9 6 -4 14 0 17 8 3 9 15 16 26 16 12 0 39 9 62 19
160 74 194 91 214 110 12 12 22 25 22 29 0 20 -33 50 -69 62 -46 15 -52 31
-19 54 30 21 48 20 48 -3 0 -23 35 -51 64 -51 10 0 41 13 67 30 50 30 90 39
121 25 12 -5 20 -2 24 9 11 28 22 18 60 -51z m-3321 -43 c3 -5 1 -10 -4 -10
-6 0 -11 5 -11 10 0 6 2 10 4 10 3 0 8 -4 11 -10z m441 -30 c8 0 14 -5 14 -11
0 -15 -53 -6 -58 10 -3 10 0 12 12 8 10 -4 24 -7 32 -7z m-361 -44 c34 -12 42
-12 62 1 21 14 23 14 23 0 0 -20 -21 -67 -30 -67 -4 0 -15 9 -25 20 -11 12
-31 20 -50 20 -31 0 -52 20 -38 34 9 8 12 8 58 -8z m160 4 c3 -5 2 -10 -4 -10
-5 0 -13 5 -16 10 -3 6 -2 10 4 10 5 0 13 -4 16 -10z m1686 -105 c11 -25 18
-53 15 -63 -8 -24 -87 -65 -100 -52 -5 5 -18 10 -29 10 -24 0 -107 70 -107 91
0 9 9 24 19 33 24 22 36 6 32 -41 -2 -25 3 -35 23 -48 27 -18 56 -11 37 8 -15
15 -14 50 1 65 21 21 27 13 30 -35 3 -40 6 -48 23 -48 18 0 20 7 20 63 0 34 4
62 8 62 4 0 17 -20 28 -45z m-1150 -6 c-24 -83 -38 -95 -55 -46 -8 21 -6 31 9
47 21 23 52 22 46 -1z m275 -14 c15 -22 15 -28 -1 -69 -15 -38 -22 -45 -52
-51 -28 -5 -34 -10 -31 -28 3 -19 -1 -21 -33 -19 -42 4 -61 -15 -35 -34 16
-11 16 -13 -6 -16 -15 -2 -23 -10 -23 -23 0 -16 9 -21 45 -26 71 -10 103 18
46 41 -20 8 -19 9 6 9 32 1 34 -2 42 -54 l7 -40 -67 3 c-39 2 -71 -1 -77 -7
-19 -19 10 -36 61 -37 68 -2 72 -3 72 -14 0 -6 -28 -10 -64 -10 -36 0 -68 -5
-72 -11 -13 -22 17 -33 90 -31 54 2 76 -1 85 -12 21 -25 5 -34 -43 -25 -65 12
-131 -1 -131 -26 0 -15 6 -20 25 -18 14 0 56 3 94 5 l68 4 19 -44 c11 -24 19
-47 19 -52 0 -5 -52 -9 -116 -9 -121 -1 -134 -3 -134 -27 0 -11 21 -13 118
-11 64 1 122 6 128 10 8 4 14 -3 19 -20 9 -38 53 -132 76 -164 36 -52 30 -55
-103 -62 -194 -11 -424 -8 -452 5 -35 15 -43 46 -18 64 11 8 28 35 37 61 9 27
23 64 30 83 8 19 21 62 31 95 10 33 30 88 46 123 15 34 28 67 28 72 0 29 77
199 102 226 30 32 48 80 48 126 0 16 4 28 8 28 14 0 42 -57 42 -85 0 -20 4
-26 18 -23 13 3 17 13 16 43 0 22 -4 48 -8 58 -13 27 21 21 40 -8z m-166 1 c0
-8 -5 -37 -12 -65 l-11 -50 -29 27 c-32 31 -35 48 -12 80 17 25 64 31 64 8z
m2635 -3 c-4 -10 -10 -33 -14 -52 -6 -33 -7 -34 -24 -17 -32 32 -16 86 26 86
14 0 17 -4 12 -17z m216 -3 c7 -101 -5 -128 -42 -94 -21 19 -24 40 -9 78 9 25
49 38 51 16z m-1721 -39 c-6 -12 -15 -19 -21 -16 -13 8 -11 29 3 43 18 18 32
-2 18 -27z m1610 -10 c0 -22 3 -46 6 -55 9 -23 -22 -20 -46 4 -25 25 -27 77
-2 83 38 10 42 7 42 -32z m-2250 -56 c7 -8 21 -15 31 -15 10 0 26 -12 36 -26
9 -14 34 -37 56 -51 66 -42 35 -35 -59 13 -104 53 -107 55 -98 77 8 21 18 21
34 2z m396 -11 c-8 -20 -73 -266 -97 -364 -19 -79 -66 -218 -79 -235 -5 -6
-18 -36 -30 -67 -12 -32 -26 -60 -31 -64 -14 -8 -59 35 -59 56 0 9 10 26 23
38 21 19 66 113 127 262 11 25 33 77 50 115 18 39 43 116 58 173 14 56 29 102
35 102 5 0 6 -7 3 -16z m1401 -46 c-13 -107 -26 -142 -74 -190 -69 -70 -131
-96 -252 -104 -74 -5 -105 -4 -115 6 -11 8 -47 11 -121 8 -58 -1 -105 0 -105
4 0 4 13 16 29 27 36 26 96 116 108 161 l9 35 100 6 c54 3 102 3 106 0 4 -3 3
-23 -1 -43 -6 -27 -5 -42 5 -55 13 -17 15 -17 29 1 8 10 17 50 21 89 5 49 9
65 14 51 7 -17 0 -125 -10 -159 -10 -37 22 -49 40 -14 6 11 13 39 15 62 2 23
7 63 10 89 7 52 6 51 130 61 22 2 46 4 54 5 10 2 12 -9 8 -40z m-3318 -24 c1
-11 7 -29 15 -39 14 -19 15 -19 33 -2 11 9 25 17 31 17 11 0 57 -58 51 -64 -2
-2 -36 -7 -75 -11 -52 -5 -74 -3 -79 5 -10 16 -9 125 1 141 9 15 22 -12 23
-47z m1749 17 c3 -9 -2 -9 -22 0 -14 7 -26 16 -26 20 0 12 43 -6 48 -20z m362
8 c0 -17 -4 -20 -22 -15 -47 14 -96 18 -102 8 -15 -25 7 -41 67 -49 49 -6 63
-12 65 -27 3 -14 0 -17 -13 -12 -35 13 -143 18 -150 6 -11 -17 15 -40 44 -38
14 0 45 -2 67 -6 27 -5 44 -4 49 3 11 18 25 2 25 -28 l0 -28 -81 5 c-75 4 -81
3 -77 -14 3 -20 6 -20 130 -23 l46 -1 22 -71 c23 -77 18 -99 -17 -80 -32 16
-149 26 -158 12 -12 -21 16 -43 47 -37 16 3 51 1 79 -5 36 -8 53 -8 63 1 17
14 18 13 55 -89 17 -46 35 -89 41 -97 7 -7 10 -23 8 -36 -2 -12 2 -23 7 -23
16 0 34 -15 45 -36 9 -16 7 -21 -12 -28 -17 -6 -28 -4 -41 7 -15 13 -51 17
-198 20 -108 2 -200 -1 -230 -7 -29 -6 -67 -9 -86 -5 -32 6 -34 8 -27 38 3 17
17 51 30 76 34 66 62 147 94 273 15 62 38 148 50 192 13 44 25 90 27 102 5 20
13 23 72 26 36 2 69 4 74 5 4 1 7 -8 7 -19z m1640 -18 c0 -6 -5 -13 -11 -16
-25 -16 1 -30 56 -30 80 0 87 -23 8 -27 -44 -2 -58 -7 -58 -18 0 -11 14 -16
55 -18 76 -4 90 -22 16 -22 -49 0 -57 -2 -54 -17 2 -14 15 -19 53 -21 51 -3
75 -15 75 -37 0 -10 -20 -12 -85 -7 -73 4 -85 3 -85 -11 0 -23 7 -25 100 -29
85 -3 100 -9 100 -39 0 -14 -15 -16 -107 -15 -89 1 -108 -2 -108 -14 0 -12 19
-15 100 -17 58 -1 105 3 112 9 16 13 16 12 47 -112 23 -95 47 -153 101 -243
27 -46 30 -48 59 -41 34 9 128 8 219 -1 45 -5 57 -3 57 8 0 28 -30 39 -117 44
-143 9 -131 22 20 23 186 0 303 -26 350 -77 14 -17 15 -25 6 -52 -24 -68 -153
-97 -407 -88 -86 3 -167 8 -179 12 -13 4 -29 20 -36 35 -19 38 -3 59 41 52 25
-3 32 -1 32 12 0 9 -8 16 -20 16 -12 0 -35 7 -52 16 -26 13 -71 17 -232 20
-111 1 -230 -2 -265 -7 -35 -5 -65 -8 -67 -6 -1 1 10 29 26 62 16 33 43 105
60 160 17 55 35 109 40 120 4 11 15 38 24 60 9 22 34 100 56 173 21 73 42 137
45 142 8 13 25 13 25 1z m-1065 -33 c-15 -70 -68 -129 -154 -172 -77 -39 -196
-43 -124 -5 38 20 95 98 87 121 -4 14 0 18 19 18 13 0 37 10 52 22 27 21 88
47 113 48 10 0 12 -9 7 -32z m-1995 17 c0 -3 -7 -22 -15 -42 -8 -19 -15 -43
-15 -53 0 -39 -83 -77 -125 -58 -14 6 -25 15 -25 19 0 5 23 20 50 34 38 19 50
31 50 48 0 14 11 29 28 39 27 17 52 23 52 13z m-510 -15 c0 -5 -2 -10 -4 -10
-3 0 -8 5 -11 10 -3 6 -1 10 4 10 6 0 11 -4 11 -10z m1291 -10 c21 -17 22 -21
9 -30 -20 -13 -87 -13 -95 1 -9 14 24 49 45 49 10 0 28 -9 41 -20z m2012 -17
c14 -8 7 -33 -13 -45 -23 -15 -26 -28 -6 -28 7 0 19 -7 26 -15 12 -14 15 -14
30 0 17 15 40 20 40 8 0 -11 -32 -117 -45 -148 -7 -16 -20 -47 -29 -67 -15
-38 -40 -49 -62 -29 -5 5 -45 12 -89 15 -109 7 -178 16 -188 26 -5 4 13 25 40
46 76 61 127 117 147 159 10 22 28 53 39 68 18 26 23 28 61 22 22 -4 44 -9 49
-12z m-3123 -19 c0 -9 -5 -14 -12 -12 -18 6 -21 28 -4 28 9 0 16 -7 16 -16z
m3716 -29 c39 -39 39 -44 11 -180 -8 -38 -14 -83 -13 -99 1 -23 -6 -33 -30
-47 l-32 -17 -17 66 c-36 139 -65 277 -61 289 3 6 22 14 43 16 21 2 44 4 51 5
7 1 28 -14 48 -33z m529 -25 c11 -4 49 -8 84 -9 36 -1 68 -4 73 -7 12 -7 8
-232 -5 -277 l-10 -38 -56 7 c-68 8 -113 17 -211 43 -91 25 -114 26 -145 5
-16 -11 -34 -13 -60 -8 -35 6 -36 8 -31 38 3 17 8 72 12 122 3 51 9 96 13 102
3 5 53 12 111 15 58 3 116 10 130 15 24 10 51 7 95 -8z m-418 -22 c-3 -13 -11
-52 -17 -88 -11 -61 -35 -118 -46 -107 -3 3 -1 22 5 44 5 21 18 68 27 106 9
37 21 67 27 67 5 0 7 -10 4 -22z m-3914 -3 c23 -9 22 -22 -3 -30 -11 -4 -34
-18 -51 -32 -35 -30 -41 -29 -169 29 -48 21 -61 31 -50 38 16 10 246 6 273 -5z
m467 -50 c12 -30 24 -31 58 -4 27 21 27 21 30 1 5 -35 -25 -82 -54 -82 -13 0
-27 7 -30 15 -6 14 -8 13 -19 -2 -12 -16 -33 -18 -234 -16 -121 1 -225 4 -231
8 -28 17 57 85 107 85 14 0 72 -7 128 -15 l103 -16 49 25 c63 31 81 32 93 1z
m1878 -35 c1 -28 -1 -30 -39 -30 -48 0 -50 12 -6 38 43 27 44 27 45 -8z m-295
-47 c-7 -2 -19 -2 -25 0 -7 3 -2 5 12 5 14 0 19 -2 13 -5z m-46 -9 c-3 -3 -12
-4 -19 -1 -8 3 -5 6 6 6 11 1 17 -2 13 -5z m569 -15 c4 -7 43 -9 121 -5 102 6
114 4 103 -9 -7 -8 -21 -15 -32 -15 -11 0 -29 -5 -41 -11 -19 -11 -132 -30
-182 -31 -11 0 -58 6 -105 15 -47 9 -138 17 -202 19 -65 2 -118 6 -118 9 0 9
123 29 145 24 11 -3 58 -1 105 4 124 12 198 12 206 0z m-2165 -28 c59 -1 88
-5 92 -13 3 -10 -29 -13 -142 -13 -80 0 -177 -4 -215 -9 -72 -8 -158 6 -140
24 8 8 220 18 294 14 14 -1 64 -2 111 -3z m1014 -13 c-13 -44 -22 -46 -155
-36 -120 8 -193 10 -235 5 -11 -1 -21 5 -23 16 -3 16 11 17 170 19 95 0 183 0
195 -1 12 -1 24 3 28 9 12 19 26 10 20 -12z m660 -47 c6 -10 -63 -37 -72 -28
-5 5 45 36 59 37 4 0 9 -4 13 -9z m363 -21 c72 -20 89 -21 123 -11 22 7 61 11
87 10 26 -1 57 3 68 9 54 29 444 5 444 -27 0 -3 -17 -35 -37 -71 l-38 -64
-110 -2 c-189 -2 -345 -56 -345 -119 0 -12 -7 -25 -15 -28 -19 -8 -26 5 -14
23 17 29 9 58 -26 89 -20 17 -45 33 -58 36 -65 16 -148 23 -292 24 -170 2
-178 4 -190 52 -6 22 -2 27 32 41 70 28 109 38 154 38 24 0 55 7 69 15 29 16
36 15 148 -15z m-1156 -10 c86 0 88 0 88 -24 0 -30 -53 -132 -88 -168 -23 -25
-33 -28 -93 -28 -63 0 -69 2 -87 28 -38 55 -92 163 -92 184 0 20 3 21 92 14
50 -3 131 -6 180 -6z m2604 -21 c14 -16 25 -19 49 -14 16 3 53 9 80 12 28 3
56 10 62 15 16 13 116 2 158 -17 39 -17 119 -35 170 -38 30 -2 39 -6 36 -17
-10 -37 -5 -55 15 -58 20 -3 36 23 58 91 7 22 30 18 34 -6 2 -9 -13 -52 -32
-97 -20 -45 -36 -88 -36 -95 0 -22 -56 -19 -88 4 -15 10 -52 24 -82 31 -30 7
-66 17 -80 22 -26 11 -364 12 -405 2 -20 -5 -27 0 -44 34 -27 52 -51 122 -42
122 4 0 12 -5 17 -10 13 -13 54 1 73 24 18 22 34 20 57 -5z m-655 -122 c-10
-9 -11 -8 -5 6 3 10 9 15 12 12 3 -3 0 -11 -7 -18z m-2845 -32 c9 -14 34 -44
55 -67 21 -23 35 -46 31 -50 -4 -3 -79 -8 -168 -9 -150 -2 -164 -1 -208 20
-26 13 -45 25 -43 27 2 2 30 9 63 14 75 14 114 29 114 45 0 7 12 16 28 19 52
13 97 24 104 25 4 0 15 -10 24 -24z m2811 -42 c-22 -43 -57 -70 -57 -45 0 14
71 104 77 98 3 -3 -6 -27 -20 -53z m-707 31 c49 -20 68 -48 48 -71 -26 -31
-61 -40 -223 -58 -99 -11 -247 -17 -272 -10 l-28 7 34 14 c18 8 44 14 57 14
14 0 27 7 30 15 4 10 10 12 18 6 17 -14 116 -1 116 15 0 8 -10 14 -24 14 -27
0 -43 15 -23 22 6 2 46 4 87 3 54 -1 84 -6 107 -20 27 -16 35 -17 45 -6 17 16
-11 38 -59 47 -18 3 -36 10 -39 15 -9 15 83 10 126 -7z m-310 -38 c0 -2 -7 -6
-15 -10 -8 -3 -15 -1 -15 4 0 6 7 10 15 10 8 0 15 -2 15 -4z m1690 -16 c-19
-13 -30 -13 -30 0 0 6 10 10 23 10 18 0 19 -2 7 -10z m-763 -75 c47 -8 99 -8
226 2 69 6 102 5 108 -3 37 -45 -173 -63 -459 -38 -82 7 -83 7 -97 40 -13 31
-24 39 -47 35 -5 0 -8 3 -8 8 0 15 51 22 115 16 44 -5 65 -3 70 5 5 7 15 0 31
-23 17 -26 33 -37 61 -42z m-1889 58 c-10 -2 -28 -2 -40 0 -13 2 -5 4 17 4 22
1 32 -1 23 -4z m130 -19 c12 -8 26 -12 32 -9 5 3 33 3 61 -1 49 -7 51 -8 28
-20 -29 -16 -314 -20 -324 -4 -4 6 17 10 54 10 50 0 63 4 73 20 15 24 45 26
76 4z m370 -6 c-5 -16 -41 -22 -74 -14 -42 11 -26 26 27 26 36 0 49 -4 47 -12z
m-1574 -87 c8 -7 36 -16 63 -21 l48 -8 -47 -1 c-99 -2 -60 -42 48 -49 77 -5
86 -22 12 -22 -65 0 -55 -37 11 -38 36 -1 58 -12 23 -12 -11 0 -23 -4 -26 -9
-11 -18 22 -30 89 -33 l70 -3 -34 -19 c-25 -13 -46 -17 -77 -12 -45 6 -65 -7
-45 -27 20 -20 12 -28 -23 -22 -38 8 -54 -6 -30 -26 9 -7 20 -23 25 -36 7 -20
15 -23 65 -23 39 0 54 -4 52 -12 -3 -7 -15 -13 -29 -13 -129 -6 -140 -10 -115
-46 20 -29 20 -47 0 -94 l-15 -38 -40 39 c-21 21 -39 43 -39 50 0 7 14 24 30
37 44 37 40 73 -14 144 -24 32 -62 92 -84 135 -23 42 -55 97 -72 122 -17 25
-29 49 -26 54 7 12 163 -3 180 -17z m838 7 c22 -6 67 -8 108 -5 53 4 70 3 67
-6 -2 -7 -17 -13 -33 -15 -41 -4 -96 -31 -91 -45 4 -13 41 -24 112 -35 44 -6
50 -10 50 -32 0 -25 1 -25 75 -22 l75 3 -25 -20 c-25 -20 -95 -32 -183 -31
-41 1 -48 -2 -45 -17 4 -22 63 -34 128 -27 30 4 42 2 35 -5 -5 -5 -50 -14 -99
-18 -57 -5 -91 -13 -94 -20 -2 -9 9 -13 35 -13 21 0 45 -5 53 -10 12 -8 9 -10
-12 -10 -15 0 -30 -5 -33 -10 -10 -16 14 -40 40 -40 13 0 33 -9 46 -19 l24
-20 -23 -8 c-13 -5 -43 -6 -68 -3 -38 4 -47 10 -64 40 -42 76 -70 139 -98 215
-16 44 -43 102 -60 129 -18 28 -32 53 -32 57 0 9 61 2 112 -13z m1008 6 c41
-3 81 -7 88 -9 20 -7 14 -25 -14 -35 -37 -14 -24 -34 24 -38 45 -3 57 -18 20
-24 -17 -2 -24 -11 -26 -30 -4 -30 -13 -34 -41 -19 -10 6 -23 6 -31 1 -21 -13
13 -47 54 -55 17 -4 42 -14 55 -22 19 -12 43 -14 110 -10 62 4 79 3 61 -4 -13
-5 -60 -13 -103 -16 -43 -3 -80 -10 -83 -15 -9 -14 13 -32 39 -33 36 0 35 -17
-3 -29 -19 -6 -36 -19 -38 -28 -3 -15 4 -18 37 -18 23 0 41 -5 41 -11 0 -6 11
-20 25 -31 33 -26 32 -36 -7 -46 -28 -7 -35 -15 -43 -49 -13 -54 -22 -62 -34
-29 -8 18 -7 34 1 52 11 23 9 28 -12 45 -14 10 -34 19 -46 19 -16 0 -30 17
-57 68 -42 79 -79 153 -101 202 -9 19 -32 64 -51 100 -19 36 -35 69 -35 74 0
5 21 6 48 2 26 -3 81 -9 122 -12z m845 -27 c32 -8 50 -17 50 -27 0 -12 19 -17
85 -22 47 -5 94 -12 105 -17 16 -8 68 -15 148 -20 5 -1 5 -6 1 -12 -4 -7 -36
-10 -88 -8 -76 4 -81 3 -81 -16 0 -13 7 -21 20 -22 11 -1 50 -5 88 -8 95 -9
74 -26 -29 -24 -90 2 -100 -1 -91 -26 4 -10 21 -16 49 -17 24 -1 52 -2 63 -3
11 -1 36 -3 55 -4 57 -3 15 -18 -72 -26 -68 -6 -78 -9 -78 -26 0 -17 8 -19 83
-21 45 0 88 -1 95 -1 6 1 12 -3 12 -7 0 -4 -33 -11 -72 -15 -95 -8 -108 -13
-108 -34 0 -16 9 -18 65 -18 69 -1 81 -4 70 -23 -4 -7 -24 -8 -56 -4 -50 7
-79 -5 -79 -31 0 -13 42 -35 67 -35 28 0 83 -49 83 -74 0 -27 -25 -64 -37 -53
-4 5 -12 29 -18 55 -9 41 -13 47 -45 54 -19 5 -43 13 -53 19 -10 6 -31 7 -47
4 -22 -5 -32 0 -54 25 -14 17 -26 36 -26 42 0 15 -127 294 -157 345 -22 38
-24 64 -5 63 4 -1 30 -6 57 -13z m-571 -49 c-3 -4 -19 -8 -35 -8 -17 0 -28 4
-25 8 3 5 19 9 35 9 17 0 28 -4 25 -9z m1488 -25 c64 -14 77 -20 73 -34 -8
-25 13 -35 101 -49 69 -11 81 -16 77 -30 -7 -25 4 -29 88 -32 41 -1 78 -4 83
-7 12 -6 -98 -29 -142 -30 -26 -1 -33 -5 -30 -18 3 -15 17 -19 78 -23 48 -3
70 -8 62 -14 -15 -9 -82 -10 -111 -1 -23 7 -49 -21 -33 -37 5 -5 31 -13 57
-15 55 -7 55 -26 -1 -33 -27 -4 -38 -9 -37 -20 4 -21 -50 -43 -84 -36 -16 4
-45 7 -66 8 -38 1 -67 25 -67 55 0 7 -13 40 -29 75 -16 35 -44 99 -62 143 -17
44 -36 84 -40 90 -11 11 -12 25 -1 25 4 0 42 -7 84 -17z m254 -30 c-10 -10
-49 -12 -66 -2 -10 6 0 8 29 9 24 0 41 -3 37 -7z m-1612 -44 c-27 -11 -34 -10
-34 0 0 11 31 20 44 13 5 -3 1 -9 -10 -13z m1866 16 c0 -14 -80 -35 -129 -34
-48 1 -52 2 -26 9 29 8 118 26 143 29 6 0 12 -1 12 -4z m-2020 -15 c0 -12 -47
-12 -75 0 -15 6 -8 9 28 9 26 1 47 -3 47 -9z m-1830 -140 c-8 -5 -26 -10 -40
-10 -20 0 -22 2 -10 10 8 5 26 10 40 10 20 0 22 -2 10 -10z m1838 -1 c-2 -6
-8 -10 -13 -10 -5 0 -11 4 -13 10 -2 6 4 11 13 11 9 0 15 -5 13 -11z m2 -79
c0 -5 -4 -10 -10 -10 -5 0 -10 5 -10 10 0 6 5 10 10 10 6 0 10 -4 10 -10z
m-1925 -71 c15 -28 15 -34 -2 -75 -19 -46 -40 -54 -35 -13 2 13 6 45 9 72 3
26 7 47 9 47 2 0 11 -14 19 -31z m93 -20 c2 -13 -4 -33 -12 -44 -14 -19 -15
-17 -16 28 0 35 4 47 13 45 6 -3 13 -15 15 -29z m712 0 c0 -6 -5 -20 -11 -31
-9 -16 -7 -26 10 -49 29 -39 4 -39 -32 -1 -29 30 -35 60 -15 80 15 15 48 16
48 1z m208 -13 c6 -31 -8 -86 -29 -107 -22 -22 -82 -25 -118 -5 -23 13 -23 14
-5 24 16 9 17 13 5 36 -11 21 -12 28 -1 41 22 27 40 18 40 -20 0 -23 6 -38 15
-41 23 -9 45 15 45 51 0 17 3 35 7 39 12 12 38 1 41 -18z m2732 14 c0 -5 -7
-10 -15 -10 -8 0 -15 5 -15 10 0 6 7 10 15 10 8 0 15 -4 15 -10z m-2012 -32
c-3 -36 -30 -46 -36 -15 -5 26 5 47 23 47 12 0 15 -8 13 -32z m250 -12 c2 -16
-1 -33 -7 -39 -8 -8 -11 -5 -11 9 0 10 -3 30 -7 43 -4 18 -2 23 8 19 8 -2 15
-17 17 -32z m656 -16 c-4 -19 -1 -38 10 -55 14 -21 14 -25 2 -25 -15 0 -66 59
-66 76 0 16 23 34 42 34 14 0 16 -6 12 -30z m-731 -50 c-3 -17 -9 -30 -14 -30
-11 0 -12 61 -2 86 6 15 7 15 14 -5 5 -11 6 -35 2 -51z m827 56 c0 -25 -12
-46 -25 -46 -18 0 -24 21 -13 43 10 20 38 23 38 3z m820 -26 c-14 -27 -25 -38
-35 -34 -14 6 -17 10 -19 35 -1 6 15 17 34 24 19 7 36 13 38 14 1 0 -7 -17
-18 -39z m120 -14 c0 -19 -26 -56 -40 -56 -4 0 -15 11 -24 24 -15 24 -14 26
11 57 25 29 27 30 40 13 7 -10 13 -27 13 -38z m98 3 c4 -33 -20 -64 -43 -56
-10 5 -15 13 -11 23 3 9 6 29 6 44 0 26 2 28 23 21 13 -5 23 -18 25 -32z
m-2966 -121 c-7 -24 -16 -80 -22 -125 -16 -122 -80 -298 -143 -390 -20 -30
-27 -33 -73 -33 -28 0 -53 3 -56 6 -3 3 10 29 29 57 51 76 96 168 169 349 79
195 83 203 96 190 8 -8 8 -24 0 -54z m1950 21 c13 -1 32 -2 42 -3 11 -1 21 -6
23 -13 3 -8 -11 -13 -39 -15 -52 -4 -62 -31 -13 -36 54 -5 75 -12 75 -26 0
-10 -13 -14 -47 -13 -37 2 -48 -2 -48 -13 0 -10 17 -18 53 -25 30 -6 57 -17
62 -25 4 -8 22 -58 40 -110 17 -52 35 -99 41 -104 5 -6 9 -16 9 -23 0 -11 -27
-12 -139 -7 -94 5 -140 4 -145 -4 -14 -22 20 -27 301 -41 11 -1 57 -68 58 -86
0 -5 -25 -10 -55 -11 -30 0 -144 -4 -252 -9 -148 -6 -198 -5 -198 3 0 7 18 51
39 99 21 49 42 99 46 113 4 14 26 79 50 145 23 66 46 149 50 185 6 51 9 60 16
43 5 -14 17 -24 31 -24z m-2803 19 c6 -7 26 -13 44 -13 22 0 33 -5 35 -17 3
-15 -5 -18 -52 -18 -60 0 -68 5 -59 38 6 25 14 27 32 10z m4240 3 c14 -4 26
-12 29 -19 3 -10 -19 -12 -97 -10 -107 3 -136 19 -54 29 66 8 94 8 122 0z m68
-17 c-3 -3 -12 -4 -19 -1 -8 3 -5 6 6 6 11 1 17 -2 13 -5z m-2347 -13 c0 -5
-27 -9 -60 -8 -33 0 -60 4 -60 9 0 4 27 8 60 8 33 0 60 -4 60 -9z m1765 -2
c10 -15 4 -17 -34 -12 -23 4 -29 8 -20 14 19 12 47 11 54 -2z m-2730 -9 c11
-18 -3 -26 -44 -22 -56 5 -57 32 -2 32 22 0 43 -4 46 -10z m2570 -17 c-13 -62
-28 -111 -50 -158 -12 -27 -26 -66 -30 -85 -11 -57 -128 -270 -141 -257 -2 2
21 53 51 114 29 61 75 171 100 244 47 135 62 169 71 169 2 0 2 -12 -1 -27z
m-877 -35 c-9 -42 -28 -75 -28 -50 0 25 24 101 31 96 4 -2 3 -23 -3 -46z
m-2590 -16 c18 -24 15 -45 -5 -37 -10 3 -48 9 -85 12 -55 5 -68 9 -68 23 0 26
6 28 78 23 44 -4 71 -11 80 -21z m1836 19 c3 -5 -6 -8 -19 -8 -14 0 -28 3 -31
8 -3 5 6 9 20 9 14 0 27 -4 30 -9z m1800 -7 c9 -3 16 -12 16 -19 0 -10 -13
-12 -55 -8 -51 5 -55 4 -55 -15 0 -19 7 -21 58 -24 43 -2 57 -7 57 -18 0 -8
-6 -15 -12 -14 -7 1 -46 2 -86 3 l-74 1 16 50 16 50 52 0 c28 0 58 -3 67 -6z
m-2728 -15 c3 -6 2 -14 -2 -18 -12 -9 -118 12 -108 22 12 11 102 8 110 -4z
m724 -86 c-69 -242 -123 -353 -190 -388 -42 -22 -44 -5 -5 49 37 52 126 229
171 339 15 37 31 67 35 67 4 0 -1 -30 -11 -67z m190 46 c33 -7 50 -16 50 -26
0 -11 -6 -12 -22 -6 -13 4 -49 8 -81 8 -59 0 -65 3 -45 23 15 15 33 15 98 1z
m-1802 -48 c-3 -13 -19 -16 -93 -16 -71 0 -90 -3 -90 -14 0 -22 52 -32 132
-25 64 6 72 4 82 -14 6 -10 7 -22 4 -26 -10 -10 -107 -7 -163 5 -59 12 -83 2
-60 -26 9 -11 31 -15 79 -15 36 0 90 -3 119 -7 l53 -6 30 -66 c17 -36 31 -70
32 -75 1 -6 -65 -9 -164 -7 -140 2 -168 0 -179 -13 -7 -9 -21 -16 -32 -16 -11
0 -18 -5 -15 -12 3 -10 56 -13 217 -14 190 0 215 -2 224 -18 8 -12 8 -19 -1
-24 -14 -9 -475 -6 -510 3 -32 8 -29 26 18 130 51 110 52 112 84 204 14 41 27
77 29 80 3 4 50 2 106 -3 84 -7 100 -12 98 -25z m856 33 c29 -4 46 -12 46 -21
0 -9 -8 -12 -22 -9 -13 3 -44 8 -71 11 -26 3 -45 10 -42 16 7 11 26 11 89 3z
m1675 -43 c-6 -18 -14 -30 -17 -27 -2 3 1 19 8 36 16 40 23 33 9 -9z m-760 -5
c39 -3 69 -2 76 4 10 8 15 1 21 -27 4 -21 8 -42 8 -47 1 -5 -37 -10 -84 -10
-72 -1 -85 -4 -88 -18 -3 -16 5 -18 61 -18 35 0 67 -3 71 -7 4 -5 22 -8 38 -8
18 0 33 -6 36 -14 4 -12 -15 -13 -117 -7 -71 4 -121 3 -121 -2 0 -23 34 -31
143 -34 96 -2 117 -6 117 -18 0 -12 -14 -14 -77 -12 -43 1 -85 3 -93 4 -8 1
-32 0 -52 0 -29 -2 -38 -6 -38 -20 0 -10 5 -23 11 -29 8 -8 5 -13 -9 -17 -16
-5 -20 -14 -19 -39 2 -18 5 -37 9 -42 4 -6 77 -10 192 -10 102 0 186 -3 186
-7 0 -5 -12 -8 -27 -9 -76 -3 -489 3 -495 7 -4 3 3 22 16 42 50 80 86 169 142
351 3 9 8 10 17 3 6 -5 41 -12 76 -16z m1768 -11 c98 -5 120 -16 143 -71 11
-25 20 -50 20 -55 0 -7 -38 -8 -104 -3 -101 6 -132 -1 -103 -24 16 -12 190
-22 209 -11 12 7 23 -10 52 -77 20 -46 34 -88 32 -93 -3 -5 -109 -9 -236 -10
-189 -1 -231 1 -236 12 -3 8 10 43 29 78 19 35 52 110 73 166 21 56 41 100 46
97 4 -2 38 -6 75 -9z m-2616 -40 c7 -22 21 -57 31 -78 11 -21 18 -43 16 -49
-3 -7 -45 -10 -116 -9 -94 2 -112 0 -112 -13 0 -24 15 -27 133 -28 110 0 137
-7 137 -34 0 -12 -26 -14 -141 -13 -77 1 -143 -1 -146 -4 -3 -4 -3 -13 0 -22
5 -12 27 -15 119 -15 62 0 130 4 150 9 35 8 38 7 57 -25 11 -18 17 -35 13 -38
-15 -9 -442 -15 -447 -6 -3 5 8 33 24 62 16 29 46 97 67 151 42 108 39 106
134 87 27 -5 49 -5 55 1 17 17 -13 32 -76 38 -36 3 -64 11 -67 18 -3 10 16 12
76 10 l80 -2 13 -40z m1563 -76 c-18 -61 -98 -224 -114 -234 -25 -15 -18 6 32
106 29 57 61 124 72 147 24 58 30 48 10 -19z m-2819 -19 c-4 -12 -9 -19 -12
-17 -3 3 -2 15 2 27 4 12 9 19 12 17 3 -3 2 -15 -2 -27z m-44 -83 c-10 -9 -11
-8 -5 6 3 10 9 15 12 12 3 -3 0 -11 -7 -18z m-30 -66 c-12 -22 -21 -47 -21
-56 0 -8 -9 -15 -21 -15 -22 0 -23 -1 24 72 36 57 47 56 18 -1z m2303 30 c30
-11 7 -18 -54 -16 -90 3 -100 5 -100 15 0 12 125 12 154 1z m67 -6 c0 -6 -10
-12 -23 -13 -19 -4 -20 -2 -9 12 15 17 33 18 32 1z m-88 -62 c-7 -2 -19 -2
-25 0 -7 3 -2 5 12 5 14 0 19 -2 13 -5z"/>
<path d="M950 1686 c-21 -50 -26 -77 -12 -60 14 14 43 96 38 102 -3 3 -15 -16
-26 -42z"/>
<path d="M1051 1711 c-8 -5 -11 -16 -7 -26 5 -13 13 -16 37 -11 18 3 60 6 95
6 48 0 64 3 64 14 0 8 -7 17 -16 20 -24 9 -157 7 -173 -3z"/>
<path d="M896 1535 c-3 -8 -1 -15 4 -15 6 0 10 7 10 15 0 8 -2 15 -4 15 -2 0
-6 -7 -10 -15z"/>
<path d="M867 1494 c-8 -8 1 -24 14 -24 5 0 9 7 9 15 0 15 -12 20 -23 9z"/>
<path d="M921 1461 c-24 -15 -5 -41 31 -42 201 -7 359 -6 364 3 14 23 -22 29
-172 32 -88 2 -170 6 -184 10 -14 3 -31 2 -39 -3z"/>
<path d="M2051 1818 c-19 -6 -21 -11 -12 -22 13 -16 136 -21 146 -7 14 24 -88
46 -134 29z"/>
<path d="M1870 1446 c0 -8 4 -17 8 -20 17 -10 417 -17 432 -7 32 22 -13 29
-222 35 -186 5 -218 4 -218 -8z"/>
<path d="M3810 1655 c-15 -18 -7 -21 70 -28 30 -3 61 -7 69 -9 21 -5 25 19 4
30 -10 5 -43 12 -74 16 -44 4 -59 2 -69 -9z"/>
<path d="M3606 1422 c-3 -5 -4 -16 -1 -24 4 -10 52 -14 220 -16 190 -3 216 -1
221 13 4 9 4 18 1 21 -10 11 -434 17 -441 6z"/>
<path d="M3415 430 c-8 -14 11 -30 37 -30 9 0 22 -2 30 -5 19 -7 45 12 33 24
-17 17 -91 25 -100 11z"/>
<path d="M3405 370 c-11 -18 5 -30 40 -30 37 0 56 17 34 31 -19 12 -66 11 -74
-1z"/>
<path d="M3325 291 c-8 -13 21 -27 72 -35 47 -7 67 9 38 31 -21 15 -101 18
-110 4z"/>
<path d="M3272 102 c4 -21 57 -28 239 -33 96 -3 133 -1 136 8 8 23 -34 30
-205 36 -158 5 -173 4 -170 -11z"/>
<path d="M514 217 c-3 -9 -4 -20 -1 -24 8 -13 290 -10 294 3 6 18 -16 22 -156
30 -114 6 -131 5 -137 -9z"/>
<path d="M4241 340 c-20 -9 -21 -13 -11 -26 7 -8 19 -13 27 -10 7 3 34 1 61
-4 53 -10 76 1 52 24 -19 19 -98 28 -129 16z"/>
<path d="M4257 204 c-10 -3 -17 -12 -15 -20 4 -19 198 -27 198 -8 0 7 -8 15
-17 19 -24 9 -143 15 -166 9z"/>
<path d="M1492 302 c-46 -14 -26 -27 53 -33 80 -6 109 1 88 22 -13 13 -110 21
-141 11z"/>
<path d="M4992 3445 c0 -16 2 -22 5 -12 2 9 2 23 0 30 -3 6 -5 -1 -5 -18z"/>
<path d="M2817 3153 c-4 -3 -7 -14 -7 -24 0 -26 36 -34 66 -14 20 13 23 19 13
31 -12 14 -60 19 -72 7z"/>
<path d="M4707 2960 c-21 -4 -48 -12 -60 -17 -12 -6 -49 -16 -82 -23 -65 -13
-95 -28 -95 -47 0 -23 22 -25 74 -10 127 40 190 48 325 42 l132 -6 -3 23 c-2
14 -11 24 -23 25 -11 1 -60 7 -110 12 -100 12 -104 12 -158 1z"/>
<path d="M4480 2730 c20 -13 33 -13 25 0 -3 6 -14 10 -23 10 -15 0 -15 -2 -2
-10z"/>
<path d="M4630 2715 c0 -8 2 -15 4 -15 2 0 6 7 10 15 3 8 1 15 -4 15 -6 0 -10
-7 -10 -15z"/>
<path d="M4965 2680 c3 -5 8 -10 11 -10 2 0 4 5 4 10 0 6 -5 10 -11 10 -5 0
-7 -4 -4 -10z"/>
<path d="M4431 2654 c0 -11 3 -14 6 -6 3 7 2 16 -1 19 -3 4 -6 -2 -5 -13z"/>
<path d="M4986 2512 c-2 -4 -1 -14 5 -22 7 -12 9 -10 9 8 0 23 -5 28 -14 14z"/>
<path d="M4530 2375 c0 -8 5 -15 10 -15 6 0 10 7 10 15 0 8 -4 15 -10 15 -5 0
-10 -7 -10 -15z"/>
<path d="M4653 2363 c9 -9 19 -14 23 -11 10 10 -6 28 -24 28 -15 0 -15 -1 1
-17z"/>
<path d="M4322 2349 c2 -6 8 -10 13 -10 5 0 11 4 13 10 2 6 -4 11 -13 11 -9 0
-15 -5 -13 -11z"/>
<path d="M4608 2353 c7 -3 16 -2 19 1 4 3 -2 6 -13 5 -11 0 -14 -3 -6 -6z"/>
<path d="M4397 2343 c-4 -3 -7 -11 -7 -17 0 -6 5 -5 12 2 6 6 9 14 7 17 -3 3
-9 2 -12 -2z"/>
<path d="M4978 2332 c-10 -2 -18 -8 -18 -13 0 -11 11 -11 30 1 18 11 11 18
-12 12z"/>
<path d="M4647 2310 c3 -11 12 -20 19 -20 17 0 18 12 2 28 -18 18 -27 15 -21
-8z"/>
<path d="M4980 2001 c0 -6 5 -13 10 -16 6 -3 10 1 10 9 0 9 -4 16 -10 16 -5 0
-10 -4 -10 -9z"/>
<path d="M4633 959 c-20 -20 12 -50 41 -40 11 5 39 5 61 1 l40 -8 -37 -1 c-25
-1 -38 -6 -38 -15 0 -18 22 -26 74 -26 47 0 76 22 76 57 0 27 -12 31 -117 39
-66 4 -91 3 -100 -7z"/>
<path d="M4704 495 c-4 -9 0 -23 8 -31 20 -20 50 -7 46 20 -4 26 -45 35 -54
11z"/>
</g>
</svg>
