<?xml version="1.0" standalone="no"?>
<!DOCTYPE svg PUBLIC "-//W3C//DTD SVG 20010904//EN"
 "http://www.w3.org/TR/2001/REC-SVG-20010904/DTD/svg10.dtd">
<svg version="1.0" xmlns="http://www.w3.org/2000/svg"
 width="500.000000pt" height="878.000000pt" viewBox="0 0 500.000000 878.000000"
 preserveAspectRatio="xMidYMid meet">
<metadata>
Created by potrace 1.15, written by Peter Selinger 2001-2017
</metadata>
<g transform="translate(0.000000,878.000000) scale(0.100000,-0.100000)"
fill="#000000" stroke="none">
<path d="M2282 8693 c-11 -21 -5 -43 11 -43 7 0 36 -22 66 -49 l54 -48 -41
-56 c-24 -32 -51 -57 -63 -59 -12 -2 -27 -11 -33 -20 -17 -27 11 -47 57 -41
35 5 40 10 68 64 16 33 36 59 43 59 21 0 76 -70 76 -96 0 -25 17 -34 66 -34
55 0 51 22 -20 93 -38 37 -66 74 -66 85 0 26 47 82 69 82 24 0 41 20 41 47 0
18 -6 22 -27 22 -16 1 -44 2 -63 3 -34 3 -35 2 -32 -33 2 -26 -3 -41 -18 -54
-20 -18 -21 -18 -43 3 -13 14 -22 35 -22 53 0 30 -1 31 -57 35 -47 4 -59 2
-66 -13z"/>
<path d="M2317 8244 c-9 -9 -8 -146 1 -198 8 -45 22 -54 46 -30 13 12 15 25
10 48 -4 17 -9 65 -13 106 -4 56 -10 76 -21 78 -9 1 -19 0 -23 -4z"/>
<path d="M2581 8218 c-11 -30 -31 -137 -31 -170 0 -18 7 -29 21 -33 27 -9 33
-2 36 42 1 20 7 49 13 63 17 41 9 114 -12 118 -11 2 -21 -5 -27 -20z"/>
<path d="M2665 8217 c-2 -6 -11 -50 -19 -97 -15 -78 -15 -86 0 -97 9 -6 22 -9
29 -7 14 6 39 162 29 187 -7 20 -34 30 -39 14z"/>
<path d="M2773 8208 c-12 -19 -42 -139 -42 -170 -1 -17 6 -31 18 -38 33 -17
41 -12 41 28 0 22 7 61 15 88 8 27 15 57 15 66 0 23 -36 43 -47 26z"/>
<path d="M2158 8199 c-15 -8 -18 -23 -17 -82 1 -92 10 -121 35 -125 36 -5 42
16 30 110 -12 95 -21 112 -48 97z"/>
<path d="M2856 8198 c-2 -7 -11 -38 -20 -69 -23 -78 -21 -135 3 -142 26 -6 41
11 41 48 1 16 7 57 15 90 10 42 11 63 3 72 -13 17 -38 17 -42 1z"/>
<path d="M2241 8166 c-16 -19 -11 -144 6 -158 24 -20 53 19 53 71 0 72 -32
119 -59 87z"/>
<path d="M2925 8089 c-30 -97 -30 -96 -4 -109 28 -15 49 3 49 44 0 17 7 51 16
76 14 41 14 45 -2 57 -10 7 -21 13 -25 13 -5 0 -20 -36 -34 -81z"/>
<path d="M2054 8146 c-3 -8 -2 -50 3 -93 8 -79 19 -95 51 -74 17 10 18 82 2
139 -8 32 -16 42 -31 42 -11 0 -22 -6 -25 -14z"/>
<path d="M2397 8123 c-10 -9 -8 -86 2 -101 5 -8 17 -12 27 -10 36 6 27 118
-10 118 -7 0 -16 -3 -19 -7z"/>
<path d="M2476 8122 c-3 -5 -8 -27 -12 -48 -5 -32 -2 -43 15 -58 32 -29 50
-15 48 41 -1 26 -6 54 -10 61 -9 14 -33 16 -41 4z"/>
<path d="M1965 8109 c-7 -10 1 -88 12 -115 3 -8 19 -14 35 -14 30 0 31 0 25
43 -9 66 -24 97 -46 97 -11 0 -23 -5 -26 -11z"/>
<path d="M3044 8103 c-3 -10 -14 -35 -24 -55 -26 -49 -26 -85 1 -93 27 -9 34
-1 53 67 20 71 20 75 -4 88 -17 9 -21 8 -26 -7z"/>
<path d="M1811 8101 c-9 -6 -12 -19 -7 -42 3 -19 9 -53 12 -77 8 -51 19 -60
45 -36 23 21 24 42 2 111 -17 53 -26 61 -52 44z"/>
<path d="M1613 8089 c-8 -8 -7 -21 3 -47 7 -21 20 -63 29 -94 8 -32 19 -58 24
-58 4 0 16 9 26 20 16 18 16 22 -5 92 -29 96 -47 117 -77 87z"/>
<path d="M1726 8087 c-17 -13 -18 -19 -6 -80 17 -85 22 -92 49 -78 27 15 28
68 4 128 -20 48 -21 49 -47 30z"/>
<path d="M1894 8090 c-12 -12 -6 -110 7 -124 5 -6 17 -2 29 9 20 18 21 44 3
108 -5 19 -24 22 -39 7z"/>
<path d="M3120 8024 c-25 -58 -25 -71 0 -79 28 -9 36 -2 50 50 10 36 10 48 0
60 -19 23 -28 18 -50 -31z"/>
<path d="M1437 8035 c-12 -11 -14 -22 -7 -43 5 -15 16 -53 25 -84 16 -59 32
-71 54 -44 10 11 6 31 -15 93 -31 92 -36 99 -57 78z"/>
<path d="M1535 8031 c-6 -11 11 -95 26 -122 11 -22 32 -25 48 -6 17 21 -25
137 -49 137 -10 0 -21 -4 -25 -9z"/>
<path d="M3222 7985 c-13 -29 -21 -59 -17 -64 5 -9 65 -17 65 -8 0 1 7 23 15
49 12 42 12 49 -1 63 -25 25 -38 17 -62 -40z"/>
<path d="M3331 8026 c-7 -8 -10 -20 -6 -26 3 -5 -3 -23 -14 -39 -27 -37 -27
-77 -2 -91 29 -15 30 -14 52 37 34 80 12 169 -30 119z"/>
<path d="M1336 7992 c-7 -11 37 -159 52 -174 10 -10 16 -9 29 5 15 15 16 23 5
63 -22 81 -39 114 -61 114 -11 0 -22 -4 -25 -8z"/>
<path d="M3412 7938 c-35 -46 -42 -83 -14 -90 28 -8 41 2 63 44 41 81 5 116
-49 46z"/>
<path d="M1233 7959 c-13 -13 20 -116 51 -165 17 -25 18 -25 37 -8 22 20 20
28 -22 122 -28 61 -44 73 -66 51z"/>
<path d="M3500 7911 c-34 -68 -37 -86 -15 -95 25 -9 43 4 65 49 30 62 31 99 3
103 -18 3 -28 -8 -53 -57z"/>
<path d="M1151 7897 c-8 -11 -3 -31 22 -85 33 -74 41 -81 71 -59 17 12 16 16
-7 68 -23 53 -50 89 -66 89 -5 0 -14 -6 -20 -13z m63 -82 l6 -30 -20 35 c-23
41 -26 60 -6 40 7 -8 16 -28 20 -45z"/>
<path d="M2145 7899 c-44 -5 -84 -14 -89 -19 -7 -7 -5 -10 3 -10 11 0 11 -3 1
-15 -24 -28 2 -34 85 -20 59 11 84 19 94 35 14 20 55 28 65 11 3 -5 -3 -11
-14 -14 -11 -3 -20 -11 -20 -17 0 -9 19 -11 73 -6 l72 6 -35 -22 c-19 -12 -48
-27 -65 -33 -23 -7 -30 -16 -30 -35 0 -24 3 -25 52 -23 l52 2 -14 -32 c-11
-28 -20 -33 -60 -39 -67 -10 -77 -15 -73 -40 3 -21 8 -23 51 -21 41 3 48 0 45
-15 -2 -13 -16 -18 -53 -22 -46 -5 -50 -7 -47 -30 3 -28 17 -39 42 -33 10 3
21 0 24 -6 5 -7 -4 -11 -23 -11 -21 0 -34 -7 -42 -22 -7 -13 -12 -25 -11 -28
1 -3 -4 -5 -10 -5 -8 0 -12 11 -10 30 2 17 -8 56 -22 88 -31 69 -32 77 -7 77
28 0 35 17 18 44 -14 20 -14 25 -1 38 20 20 8 46 -24 50 -16 2 -27 9 -27 18 0
10 -12 16 -35 18 -63 5 -81 12 -91 39 -7 19 -13 23 -21 15 -8 -8 9 -53 67
-169 42 -87 84 -166 93 -176 12 -13 13 -22 5 -40 -8 -17 -7 -30 2 -47 10 -19
11 -46 5 -105 -14 -133 -90 -338 -107 -287 -3 7 -20 30 -38 52 -18 22 -61 91
-94 155 -48 89 -60 120 -55 140 4 15 1 37 -6 51 -11 20 -10 48 3 161 19 155
21 211 7 233 -18 29 -127 16 -245 -30 -112 -43 -156 -65 -175 -85 l-23 -24 47
-69 c25 -38 46 -76 46 -85 0 -9 6 -17 13 -17 7 0 40 -30 72 -67 46 -52 59 -73
57 -94 -2 -18 3 -31 15 -37 14 -9 18 -22 17 -69 -2 -65 -36 -235 -60 -291 -14
-33 -13 -37 5 -56 23 -22 90 -34 204 -35 85 -1 104 7 167 66 19 18 37 33 41
33 4 0 33 -13 65 -29 66 -32 76 -32 247 8 112 27 129 26 195 -5 60 -28 97 -28
154 1 65 32 101 30 165 -8 33 -19 76 -40 96 -46 20 -7 39 -17 42 -22 4 -5 14
-5 25 1 10 5 31 10 47 10 15 0 49 7 75 15 42 12 49 12 63 -1 8 -9 15 -20 15
-25 0 -23 83 -67 147 -79 38 -7 92 -21 120 -32 29 -11 67 -18 85 -16 32 3 33
4 28 43 -18 141 10 314 63 398 17 26 71 82 120 125 86 74 97 82 134 100 25 12
37 37 29 58 -7 17 -9 16 -22 -8 -10 -18 -22 -28 -37 -27 l-22 0 23 9 c24 10
31 40 8 40 -7 0 -19 -7 -26 -15 -14 -16 -46 -20 -54 -6 -3 5 -31 21 -62 36
-39 19 -53 30 -45 38 7 7 23 5 51 -8 28 -13 44 -15 51 -8 12 12 -69 67 -114
78 -38 10 -48 30 -11 22 21 -5 17 0 -16 15 -25 12 -65 22 -89 22 -43 1 -44 1
-56 -44 -20 -73 -34 -150 -40 -225 -3 -39 -12 -77 -21 -86 -7 -8 -14 -28 -14
-44 0 -15 -14 -50 -31 -76 -36 -57 -229 -243 -240 -232 -14 15 -28 178 -22
263 5 80 7 87 35 109 26 21 29 29 25 58 -5 31 0 42 48 101 30 36 55 71 55 77
0 6 25 35 55 65 30 30 55 60 55 66 0 16 -59 59 -67 50 -4 -4 3 -13 15 -22 29
-20 28 -52 -1 -65 -24 -11 -87 4 -134 31 -28 15 -134 60 -144 60 -22 0 -5 -18
36 -38 40 -19 44 -24 34 -41 -24 -38 16 -71 89 -74 35 -1 40 -8 17 -27 -12
-10 -23 -9 -55 4 -54 21 -77 20 -83 -4 -6 -22 17 -42 62 -55 16 -5 20 -10 12
-18 -7 -7 -18 -7 -36 1 -40 18 -61 14 -73 -13 -7 -15 -17 -22 -25 -19 -11 4
-15 40 -20 151 -3 81 -11 151 -16 156 -17 17 -13 45 7 56 10 5 36 6 60 1 65
-11 64 -22 -1 -14 -47 6 -57 4 -57 -8 0 -24 26 -41 46 -30 19 11 77 -2 109
-24 23 -16 71 -19 80 -4 3 6 16 10 28 10 37 0 6 19 -89 54 -123 46 -177 53
-203 27 -20 -20 -20 -28 -14 -189 5 -147 4 -171 -11 -194 -13 -19 -14 -31 -7
-51 14 -36 -6 -99 -60 -190 -83 -141 -134 -185 -159 -137 -19 36 -79 306 -73
331 3 13 12 31 20 40 7 9 13 29 11 45 -2 28 78 223 123 299 l22 36 -23 24
c-32 34 -180 63 -180 35 0 -7 -25 -9 -75 -4 -65 6 -75 5 -81 -11 -4 -10 -1
-20 6 -25 11 -7 11 -14 -2 -40 -12 -24 -17 -28 -21 -16 -4 9 -4 23 -1 31 4 9
-1 18 -10 21 -12 5 -16 16 -14 38 2 22 -1 31 -12 31 -10 0 -16 -12 -18 -35 -4
-46 -22 -65 -22 -24 0 52 -26 65 -132 69 -51 2 -129 -1 -173 -6z m699 -69 c7
-7 7 -13 -1 -21 -14 -14 -239 -7 -254 8 -7 7 17 9 76 7 70 -2 87 1 92 13 4 11
15 14 41 9 19 -3 40 -10 46 -16z m-1019 -20 c-28 -12 -67 -12 -60 0 3 6 23 10
43 9 30 0 33 -2 17 -9z m-79 -17 c-1 -14 6 -17 33 -15 61 6 29 -21 -73 -61
-109 -42 -211 -56 -211 -27 0 8 20 25 45 37 78 38 139 63 154 63 8 0 18 5 21
10 10 17 33 11 31 -7z m893 -22 c8 -15 25 -20 80 -23 39 -2 73 -7 77 -11 15
-15 -9 -22 -72 -22 -41 0 -64 -4 -64 -11 0 -16 24 -24 70 -24 21 0 42 -4 45
-10 4 -6 -20 -10 -63 -10 -51 0 -71 -4 -75 -14 -9 -24 16 -45 58 -48 51 -4 43
-23 -10 -23 -22 0 -46 -4 -53 -8 -19 -13 4 -47 32 -47 13 0 27 -7 30 -16 9
-24 7 -54 -4 -54 -5 0 -10 9 -10 20 0 16 -11 26 -22 18 -2 -1 -13 4 -25 10
-15 9 -29 34 -43 80 l-21 67 20 14 c22 14 28 55 11 66 -5 3 -10 19 -10 36 0
22 5 29 20 29 10 0 24 -8 29 -19z m626 -2 c16 -16 -20 -10 -41 7 -18 14 -18
15 6 8 14 -3 29 -10 35 -15z m-790 -21 c4 -17 13 -38 20 -45 8 -7 17 -39 21
-70 3 -32 13 -71 21 -86 13 -26 13 -31 -2 -47 -10 -11 -15 -30 -13 -47 3 -27
5 -28 63 -28 55 0 60 -2 75 -28 14 -26 14 -29 -2 -41 -22 -16 -23 -45 -3 -52
22 -9 18 -24 -5 -24 -13 0 -20 -7 -20 -19 0 -20 27 -48 37 -38 12 13 33 -16
33 -45 0 -22 -4 -29 -14 -25 -24 9 -38 -17 -22 -39 12 -15 17 -17 27 -6 19 18
29 15 29 -8 0 -14 -7 -20 -22 -20 -13 0 -29 -4 -37 -9 -23 -15 -2 -31 40 -31
51 0 50 -16 -2 -25 -36 -6 -60 -27 -47 -40 3 -3 31 4 63 15 55 19 80 20 59 1
-5 -4 -32 -16 -60 -26 -51 -18 -53 -18 -105 3 -30 11 -65 24 -77 27 -27 8 -28
-3 17 162 36 128 53 234 40 247 -4 5 -19 2 -33 -8 -20 -13 -26 -25 -26 -54 -1
-48 -52 -247 -64 -247 -12 0 -62 149 -80 235 -12 55 -12 68 0 85 18 26 18 44
-3 67 -15 17 -14 25 15 121 17 56 35 116 38 132 13 56 29 62 39 13z m-625 -5
c0 -5 -7 -51 -14 -103 -20 -132 -22 -211 -7 -239 11 -20 10 -26 -13 -50 -14
-15 -26 -32 -26 -39 0 -14 -26 -16 -35 -3 -3 6 3 15 14 21 13 6 18 16 14 26
-4 10 2 17 16 21 16 4 19 9 10 19 -6 7 -16 11 -24 8 -7 -3 -22 7 -34 22 -18
23 -26 25 -56 20 -33 -6 -35 -5 -35 19 0 26 9 32 26 16 5 -5 19 -5 33 0 22 9
22 11 9 32 -18 27 -50 33 -90 16 -21 -9 -32 -9 -40 -1 -13 13 -5 17 53 26 19
4 44 13 55 21 16 13 17 16 4 25 -22 14 -40 12 -40 -5 0 -12 -4 -14 -16 -7 -10
6 -29 5 -49 -1 -35 -10 -65 -5 -65 13 0 5 18 10 39 10 22 0 43 5 46 10 3 6 18
10 33 10 63 0 97 28 55 45 -15 6 -13 9 12 23 31 18 105 49 118 51 4 1 7 -2 7
-6z m1806 -219 c21 -15 68 -42 104 -61 71 -38 87 -50 78 -59 -4 -3 -33 6 -67
21 -62 28 -81 27 -81 -4 0 -23 14 -35 63 -52 20 -7 37 -16 37 -19 0 -19 -18
-17 -61 6 -26 15 -55 24 -63 21 -28 -11 -18 -42 19 -60 19 -9 35 -21 35 -27 0
-13 1 -13 -45 10 -40 20 -65 14 -65 -16 0 -16 -18 -18 -38 -5 -24 15 8 271 33
271 7 0 30 -12 51 -26z m-1061 -44 c3 -5 1 -10 -4 -10 -6 0 -11 5 -11 10 0 6
2 10 4 10 3 0 8 -4 11 -10z m-270 -101 c-2 -57 -8 -95 -15 -99 -19 -12 -7 -44
20 -51 l25 -6 -27 -11 c-26 -11 -27 -15 -24 -60 5 -67 10 -73 54 -66 36 6 38
5 60 -40 13 -25 21 -50 17 -55 -3 -5 -31 -13 -63 -16 -31 -4 -79 -13 -105 -22
-27 -8 -50 -13 -53 -11 -2 3 1 29 7 59 6 30 12 61 13 69 1 8 5 22 8 30 4 8 9
73 13 144 5 114 4 128 -9 123 -9 -4 -16 -4 -16 -2 0 9 36 41 53 48 9 3 19 18
23 32 13 52 22 22 19 -66z m758 23 c-6 -24 -23 -30 -23 -9 0 13 21 39 26 34 2
-2 1 -13 -3 -25z m92 18 c3 -5 1 -10 -4 -10 -6 0 -11 5 -11 10 0 6 2 10 4 10
3 0 8 -4 11 -10z m-1439 -61 c1 -24 -7 -31 -21 -19 -16 13 -8 43 9 37 6 -2 11
-10 12 -18z m1468 -4 c-4 -8 -10 -15 -15 -15 -4 0 -6 7 -3 15 4 8 10 15 15 15
4 0 6 -7 3 -15z m-87 -29 c-2 -6 -13 -12 -25 -14 -24 -4 -25 -2 -16 21 6 17
47 11 41 -7z m-1242 -81 c89 -163 97 -175 116 -175 20 0 23 -4 33 -52 7 -32
-9 -38 -19 -8 -8 24 -32 26 -62 5 -20 -14 -23 -14 -31 2 -10 18 -82 273 -82
288 0 15 17 -8 45 -60z m352 -54 c-8 -114 -13 -131 -36 -131 -28 0 -29 6 -6
77 13 38 26 87 30 111 12 74 18 45 12 -57z m868 9 c-4 -30 -9 -58 -12 -62 -2
-5 -17 -1 -33 7 -33 17 -43 9 -39 -33 2 -15 -1 -33 -5 -41 -12 -18 32 -57 47
-42 7 7 6 15 -1 23 -8 11 -6 17 9 26 18 12 19 9 19 -55 l0 -66 -28 27 c-15 16
-43 34 -62 41 -19 7 -43 16 -52 20 -14 5 -18 2 -18 -14 0 -15 15 -29 60 -51
33 -17 60 -34 60 -40 0 -32 -65 -11 -123 40 l-37 32 33 38 c19 20 53 65 77
100 29 42 45 58 50 50 4 -7 15 -10 24 -7 18 7 21 32 6 42 -17 10 -11 21 11 21
19 0 20 -4 14 -56z m-1291 35 c4 -11 -1 -15 -19 -15 -25 0 -39 12 -28 24 12
11 41 6 47 -9z m1770 -15 c14 0 14 -3 4 -20 l-13 -21 -17 22 c-10 12 -18 29
-18 38 1 14 2 14 14 -1 7 -10 21 -18 30 -18z m-1734 -123 c11 -40 34 -98 50
-130 23 -47 25 -59 14 -64 -25 -9 -203 2 -215 14 -8 8 -6 26 10 67 12 31 21
70 21 86 0 35 13 45 41 30 11 -6 27 -9 35 -6 21 8 0 44 -32 56 -35 14 -23 27
19 22 34 -4 36 -6 57 -75z m1690 71 c0 -18 -131 -210 -188 -277 -22 -25 -22
-26 -37 -7 -8 11 -15 26 -15 33 0 7 41 52 90 99 50 48 100 105 112 126 22 38
38 49 38 26z m65 -7 c3 -5 -5 -29 -17 -52 -17 -34 -23 -65 -26 -139 -4 -101
-9 -114 -35 -104 -13 5 -14 9 -4 25 9 15 8 22 -5 35 -20 21 -48 12 -48 -16 0
-13 -7 -20 -19 -20 -24 0 -45 -25 -37 -45 3 -9 16 -20 28 -25 27 -10 13 -12
-31 -4 -17 4 -31 12 -31 18 0 6 36 63 80 126 45 63 91 136 103 162 22 48 31
56 42 39z m-1230 -11 c-3 -5 -10 -10 -16 -10 -5 0 -9 5 -9 10 0 6 7 10 16 10
8 0 12 -4 9 -10z m762 -62 c-3 -7 -5 -2 -5 12 0 14 2 19 5 13 2 -7 2 -19 0
-25z m-937 -100 c0 -12 -38 -10 -45 2 -4 6 -4 18 -1 27 6 14 9 14 26 -2 11
-10 20 -22 20 -27z m-210 -38 c0 -5 -5 -10 -11 -10 -5 0 -7 5 -4 10 3 6 8 10
11 10 2 0 4 -4 4 -10z m1170 -9 c0 -14 -18 -23 -30 -16 -6 4 -8 11 -5 16 8 12
35 12 35 0z m405 -141 c4 -6 -6 -10 -22 -10 -22 0 -25 2 -13 10 19 12 27 12
35 0z"/>
<path d="M2583 7174 c-8 -21 13 -42 28 -27 13 13 5 43 -11 43 -6 0 -13 -7 -17
-16z"/>
<path d="M2563 7084 c-4 -11 1 -22 12 -31 16 -11 21 -11 34 1 12 12 12 18 1
30 -16 21 -39 20 -47 0z"/>
<path d="M2328 7053 c-43 -5 -62 -24 -53 -54 6 -18 12 -20 45 -15 63 10 90 24
90 46 0 11 -4 20 -9 20 -5 0 -15 1 -23 3 -7 2 -30 2 -50 0z"/>
<path d="M1715 6980 c-12 -19 16 -36 79 -49 61 -11 76 -9 76 14 0 20 -27 32
-91 40 -40 5 -59 3 -64 -5z"/>
<path d="M3612 7854 c-34 -45 -40 -60 -30 -71 6 -8 23 -13 37 -11 35 4 90 100
71 123 -21 25 -35 17 -78 -41z"/>
<path d="M3749 7815 c-51 -64 -55 -86 -17 -96 31 -8 32 -7 78 75 26 47 30 60
19 67 -25 16 -35 10 -80 -46z"/>
<path d="M1051 7837 c-8 -10 -2 -31 27 -85 38 -74 50 -83 72 -57 11 13 8 25
-15 68 -30 55 -53 87 -65 87 -4 0 -13 -6 -19 -13z"/>
<path d="M3861 7770 c-61 -77 -63 -109 -8 -110 16 0 97 110 97 131 0 8 -32 29
-44 29 -3 0 -23 -23 -45 -50z"/>
<path d="M960 7785 c0 -8 17 -42 38 -75 27 -45 42 -60 57 -58 34 5 28 37 -15
94 -41 52 -80 71 -80 39z"/>
<path d="M890 7741 c0 -6 4 -11 8 -11 9 0 32 -44 32 -58 -1 -4 -16 11 -35 33
-18 22 -37 37 -40 33 -6 -6 45 -97 73 -130 18 -22 23 -22 47 -5 17 13 16 17
-24 75 -42 62 -61 82 -61 63z"/>
<path d="M3961 7688 l-45 -61 23 -18 c31 -25 36 -24 65 14 38 50 58 101 44
115 -23 23 -43 10 -87 -50z"/>
<path d="M3372 7689 c1 -13 8 -23 13 -21 15 3 12 35 -3 40 -9 3 -13 -3 -10
-19z"/>
<path d="M760 7657 c0 -21 77 -137 91 -137 18 0 8 21 -37 78 -58 70 -54 67
-54 59z"/>
<path d="M4076 7604 c-25 -31 -46 -62 -46 -69 0 -6 11 -17 24 -23 22 -10 28
-7 61 29 43 47 60 82 52 103 -12 31 -44 16 -91 -40z"/>
<path d="M820 7635 c0 -4 37 -66 57 -94 2 -2 6 -1 9 2 4 4 -6 25 -21 47 -27
40 -45 57 -45 45z"/>
<path d="M1127 7569 c-50 -20 -83 -42 -172 -114 -108 -88 -128 -122 -82 -146
12 -7 38 -26 58 -43 20 -17 73 -58 118 -91 71 -52 81 -63 78 -84 -4 -18 3 -32
24 -52 17 -16 29 -37 29 -51 0 -14 9 -51 20 -83 23 -66 28 -213 8 -233 -9 -9
-8 -12 3 -16 54 -15 101 -26 146 -32 l51 -6 109 112 c59 61 109 115 110 118 2
4 -26 25 -62 47 -36 22 -97 72 -136 112 -66 67 -71 74 -61 100 12 37 -1 71
-32 83 -29 11 -41 30 -50 85 -49 273 -52 283 -66 299 -16 20 -34 19 -93 -5z
m79 -56 c1 -68 23 -217 39 -267 14 -46 14 -51 -2 -69 -27 -29 -70 -49 -79 -36
-4 7 1 16 10 21 20 11 21 32 0 49 -13 10 -20 9 -46 -5 -27 -17 -31 -17 -46 -3
-14 14 -11 18 31 38 53 26 59 44 22 61 -22 10 -31 8 -71 -21 -36 -25 -49 -29
-60 -20 -19 15 -11 25 34 40 60 20 116 59 103 72 -8 8 -18 4 -39 -16 -15 -15
-38 -27 -49 -27 -12 0 -35 -11 -51 -25 -34 -28 -54 -31 -71 -11 -9 11 -6 18
16 35 26 19 27 20 6 21 -12 0 -25 -4 -28 -10 -10 -15 -35 -12 -35 5 0 9 9 15
25 15 21 0 52 14 84 37 2 2 -4 12 -14 23 -13 14 -15 24 -8 31 8 8 17 4 31 -11
l20 -21 54 30 c29 17 69 46 88 66 19 19 34 35 34 35 1 0 1 -17 2 -37z m84
-414 c0 -3 -14 -16 -31 -28 -30 -22 -32 -31 -14 -73 4 -11 3 -18 -4 -18 -6 0
-14 14 -18 30 -3 17 -15 37 -26 45 -20 14 -20 16 -4 32 13 13 20 15 29 5 21
-21 41 -14 36 12 -4 21 -3 23 14 13 10 -7 18 -14 18 -18z m77 -85 c34 -41 138
-129 189 -160 18 -11 17 -13 -10 -43 -29 -30 -51 -36 -26 -6 16 19 6 45 -19
45 -24 0 -113 -97 -109 -119 2 -9 13 -17 26 -19 27 -4 28 -18 3 -31 -25 -14
-37 1 -46 59 -11 71 -55 211 -82 258 -27 47 -24 62 12 62 16 0 36 -15 62 -46z
m-79 -119 c14 -31 16 -65 2 -65 -11 0 -25 25 -34 63 -8 36 16 37 32 2z m32
-115 c0 -12 -28 -25 -36 -17 -9 9 6 27 22 27 8 0 14 -5 14 -10z m170 -30 c0
-5 -5 -10 -11 -10 -5 0 -7 5 -4 10 3 6 8 10 11 10 2 0 4 -4 4 -10z m-167 -51
c-8 -8 -16 -8 -30 0 -16 9 -14 10 12 11 21 0 26 -3 18 -11z"/>
<path d="M4186 7530 c-46 -48 -56 -63 -47 -74 27 -32 50 -25 101 31 28 31 49
60 47 66 -2 6 -12 16 -23 24 -19 12 -25 8 -78 -47z"/>
<path d="M730 7574 c0 -6 14 -28 30 -49 17 -21 30 -32 30 -24 -1 17 -59 89
-60 73z"/>
<path d="M3401 7518 c1 -37 2 -39 9 -18 12 36 12 60 0 60 -5 0 -10 -19 -9 -42z"/>
<path d="M700 7538 c0 -18 37 -68 51 -68 18 0 8 27 -21 55 -21 21 -30 24 -30
13z"/>
<path d="M575 7520 c-8 -13 67 -124 86 -127 8 -2 21 1 29 6 11 8 5 21 -36 67
-54 62 -68 72 -79 54z"/>
<path d="M4305 7468 c-68 -65 -77 -85 -46 -105 15 -10 24 -6 54 25 69 71 99
112 93 127 -10 27 -34 16 -101 -47z"/>
<path d="M484 7436 c-6 -15 41 -91 70 -115 20 -17 46 -7 46 17 0 17 -89 112
-105 112 -3 0 -8 -7 -11 -14z"/>
<path d="M4383 7391 c-29 -26 -53 -54 -53 -62 0 -18 19 -39 35 -39 18 0 107
120 101 136 -9 23 -29 15 -83 -35z"/>
<path d="M390 7337 c0 -22 87 -100 104 -94 26 10 18 33 -24 71 -40 36 -80 48
-80 23z"/>
<path d="M4097 7344 c-4 -4 -7 -30 -7 -59 0 -28 -12 -91 -26 -140 -14 -49 -26
-97 -27 -108 -1 -11 -13 -27 -27 -35 -34 -22 -40 -32 -40 -68 0 -25 -11 -39
-65 -82 -35 -29 -66 -52 -69 -52 -2 0 -28 -16 -57 -35 -30 -19 -59 -35 -67
-35 -7 0 -26 -7 -43 -15 -25 -13 -28 -20 -23 -43 4 -15 13 -38 22 -52 8 -13
21 -42 27 -64 11 -38 14 -40 96 -66 46 -16 102 -37 124 -49 58 -31 75 -28 75
12 0 48 36 169 77 258 30 66 34 81 23 94 -9 11 -16 13 -24 5 -15 -15 -36 -12
-36 5 0 25 30 30 65 11 39 -21 71 -10 81 29 7 29 55 63 149 106 39 18 89 45
112 61 l43 29 -19 38 c-24 46 -190 200 -246 229 -47 23 -107 37 -118 26z m58
-46 c-8 -30 84 -124 111 -114 11 4 25 -1 40 -15 12 -11 27 -18 33 -15 6 4 21
0 34 -9 29 -18 51 -61 36 -70 -10 -7 -137 70 -221 133 -64 48 -88 112 -42 112
10 0 13 -7 9 -22z m136 -65 c13 -16 12 -17 -3 -4 -10 7 -18 15 -18 17 0 8 8 3
21 -13z m-82 -66 c36 -29 90 -68 119 -86 29 -19 50 -36 47 -39 -3 -3 -32 13
-64 36 -58 41 -60 41 -82 23 -22 -18 -22 -18 -3 -37 11 -10 32 -29 48 -42 44
-34 26 -36 -28 -2 -53 34 -68 37 -87 14 -11 -14 -8 -21 24 -50 20 -19 37 -36
37 -39 0 -13 -29 -3 -45 15 -22 25 -61 26 -74 3 -12 -22 -18 -16 -23 22 -3 27
51 235 61 235 2 0 34 -24 70 -53z m-164 -217 c3 -5 1 -10 -4 -10 -6 0 -11 5
-11 10 0 6 2 10 4 10 3 0 8 -4 11 -10z m-76 -123 c-35 -29 -99 -86 -142 -126
-60 -58 -75 -77 -66 -87 16 -19 41 -4 125 77 40 38 78 69 84 69 9 0 8 -6 -3
-18 -23 -25 -21 -40 5 -62 21 -17 21 -20 8 -61 -7 -24 -15 -47 -17 -51 -2 -3
-30 3 -62 15 -58 21 -60 21 -80 3 -12 -11 -21 -23 -21 -28 0 -10 37 -26 100
-43 26 -7 45 -18 45 -26 0 -16 -1 -15 -103 19 -49 17 -71 30 -68 38 3 8 -3 19
-14 27 -25 17 -54 81 -47 101 4 9 17 21 29 26 39 16 143 82 208 133 84 64 98
60 19 -6z"/>
<path d="M4460 7301 c-47 -42 -53 -51 -41 -65 7 -9 19 -16 26 -16 22 0 96 83
93 104 -5 33 -23 28 -78 -23z"/>
<path d="M290 7250 c0 -5 20 -30 44 -56 35 -36 49 -44 65 -39 32 10 25 30 -23
69 -41 34 -86 48 -86 26z"/>
<path d="M4584 7238 c-16 -12 -44 -35 -61 -52 -31 -28 -32 -31 -16 -48 9 -10
20 -18 25 -18 19 0 127 112 121 126 -8 20 -36 17 -69 -8z"/>
<path d="M575 7184 c-93 -56 -152 -117 -223 -235 l-22 -37 74 -41 c41 -23 81
-41 89 -41 23 0 231 -110 260 -137 15 -15 36 -46 48 -70 21 -44 78 -235 79
-264 0 -21 19 -29 45 -18 11 4 43 8 71 8 27 1 57 7 65 14 16 12 117 178 140
230 16 35 7 44 -59 57 -28 5 -69 18 -90 29 -56 29 -178 128 -201 165 -12 17
-25 38 -31 46 -24 36 -73 160 -90 228 -10 40 -24 80 -30 87 -20 24 -61 17
-125 -21z m103 -6 c18 -18 15 -37 -12 -69 -33 -39 -171 -159 -183 -159 -6 0
-16 -7 -23 -15 -7 -8 -22 -15 -34 -15 -21 1 -21 1 -1 13 11 7 44 34 73 61 29
27 61 56 72 63 11 8 20 18 20 24 0 17 -39 9 -76 -16 -50 -34 -61 -31 -32 8 27
35 85 80 133 102 37 18 48 18 63 3z m-37 -159 c-24 -33 -21 -69 7 -69 9 0 28
12 43 26 15 14 29 21 33 16 3 -5 -3 -17 -14 -27 -22 -20 -27 -60 -9 -71 6 -3
16 -1 22 5 18 18 32 13 49 -17 13 -21 14 -32 6 -40 -8 -8 -7 -16 3 -28 13 -16
12 -17 -7 -12 -30 8 -53 -7 -36 -24 6 -6 12 -16 12 -20 0 -15 -19 -8 -64 23
-42 30 -44 33 -30 54 13 20 12 24 -6 40 -20 18 -21 18 -48 -8 -22 -21 -31 -24
-46 -15 -18 10 -17 13 14 38 23 18 31 32 27 44 -10 26 -44 19 -86 -19 -34 -31
-40 -33 -51 -20 -16 19 -10 26 55 59 28 13 70 45 95 71 47 48 68 44 31 -6z
m269 -284 c36 -31 102 -74 147 -95 46 -22 83 -45 83 -51 0 -6 -13 -28 -28 -48
-15 -20 -39 -53 -52 -73 -26 -38 -109 -84 -135 -74 -14 5 -29 71 -20 86 3 6
16 10 27 10 21 0 21 -1 3 -20 -17 -18 -17 -22 -4 -35 18 -18 78 -10 86 11 6
16 -79 176 -136 254 -26 36 -51 60 -62 60 -19 0 -25 11 -12 23 16 16 44 3 103
-48z m-56 -63 c27 -39 33 -62 16 -62 -9 0 -60 79 -60 93 0 18 20 3 44 -31z
m61 -113 c0 -7 -8 -15 -17 -17 -18 -3 -25 18 -11 32 10 10 28 1 28 -15z"/>
<path d="M1046 6589 c-40 -48 -47 -99 -12 -99 7 0 27 18 45 40 31 39 32 42 17
65 -9 14 -18 25 -20 25 -2 0 -16 -14 -30 -31z"/>
<path d="M194 7159 c-8 -14 85 -109 108 -109 35 0 29 23 -18 71 -47 48 -76 60
-90 38z"/>
<path d="M4659 7090 c-52 -27 -63 -44 -47 -69 19 -30 32 -26 83 24 64 61 43
87 -36 45z"/>
<path d="M133 7084 c-6 -17 72 -104 94 -104 32 0 24 33 -18 76 -46 47 -66 54
-76 28z"/>
<path d="M74 6998 c-5 -7 11 -29 41 -55 45 -41 49 -43 66 -27 23 20 14 34 -43
70 -42 27 -54 29 -64 12z"/>
<path d="M4740 6971 c-50 -30 -59 -50 -35 -75 24 -24 34 -20 77 26 63 69 38
98 -42 49z"/>
<path d="M4588 6873 c-25 -31 -51 -75 -103 -177 -42 -81 -57 -101 -79 -107
-36 -10 -56 -27 -56 -49 0 -10 -11 -27 -25 -38 -32 -25 -217 -99 -270 -107
-22 -4 -48 -9 -57 -11 -26 -7 -32 -41 -13 -70 9 -14 14 -28 11 -31 -3 -3 31
-44 75 -90 44 -47 89 -103 99 -124 23 -43 40 -48 88 -23 20 9 34 26 38 42 26
117 48 163 115 242 35 42 47 49 82 52 33 2 43 8 57 33 17 31 65 51 260 110 68
20 75 25 72 46 -1 13 -16 35 -32 49 -17 14 -30 30 -30 35 0 6 -25 39 -55 74
-30 35 -55 73 -57 84 -3 24 -70 47 -76 28 -2 -6 -8 -8 -13 -5 -16 9 10 34 29
28 14 -5 13 -2 -2 10 -25 21 -39 20 -58 -1z m33 -100 c5 -14 23 -41 39 -60 34
-38 36 -48 15 -57 -20 -7 -19 -40 1 -56 8 -8 20 -23 25 -34 6 -12 -5 -4 -24
17 -19 20 -42 37 -51 37 -26 0 -31 -30 -12 -64 l18 -31 -26 24 c-25 24 -26 24
-47 5 -12 -10 -29 -18 -39 -16 -10 2 -21 -2 -25 -8 -10 -16 -25 -12 -25 9 0
10 23 64 50 119 28 55 50 104 50 109 0 11 21 33 32 33 5 0 13 -12 19 -27z m70
-19 c7 -9 18 -26 24 -38 6 -11 19 -20 28 -18 12 2 17 -4 17 -18 0 -13 12 -28
29 -38 33 -18 70 -82 48 -82 -16 0 -87 73 -121 125 -14 22 -33 50 -42 63 -19
25 -4 31 17 6z m-271 -219 c-7 -9 -15 -13 -17 -11 -7 7 7 26 19 26 6 0 6 -6
-2 -15z m32 -57 c-7 -7 -12 -8 -12 -2 0 14 12 26 19 19 2 -3 -1 -11 -7 -17z
m-12 -31 c0 -2 -10 -12 -22 -23 l-23 -19 19 23 c18 21 26 27 26 19z m-225 -64
c-46 -25 -147 -63 -167 -63 -10 0 -18 4 -18 9 0 16 25 28 73 35 26 4 65 13 85
21 51 19 63 18 27 -2z m115 -11 c-27 -8 -40 -32 -28 -52 9 -14 8 -27 -4 -57
-9 -21 -20 -49 -25 -62 -9 -23 -11 -22 -57 38 -26 35 -46 65 -44 67 14 13 155
79 163 75 5 -3 2 -7 -5 -9z m-205 -91 c-5 -9 68 -123 108 -168 11 -13 16 -23
10 -23 -6 0 -18 11 -27 25 -9 13 -44 54 -78 90 -49 53 -59 68 -47 76 18 12 42
12 34 0z"/>
<path d="M10 6861 c0 -43 79 -93 93 -58 7 17 0 27 -40 55 -39 27 -53 28 -53 3z"/>
<path d="M2432 6869 c-23 -9 -23 -10 -16 -126 3 -65 9 -121 13 -124 3 -4 17
-3 30 2 24 9 24 9 17 126 -3 65 -10 120 -14 124 -4 4 -17 3 -30 -2z"/>
<path d="M2543 6858 c-6 -8 -7 -21 -2 -33 4 -11 8 -43 8 -71 1 -58 21 -85 49
-67 13 8 16 22 14 67 -5 82 -15 111 -39 114 -11 2 -24 -3 -30 -10z"/>
<path d="M2667 6853 c-2 -5 -3 -50 -2 -101 2 -99 12 -125 43 -106 13 9 18 29
20 95 3 76 1 86 -19 102 -23 18 -36 21 -42 10z"/>
<path d="M2075 6836 c-16 -11 -17 -22 -11 -87 9 -88 25 -157 38 -165 6 -4 18
2 29 12 17 18 18 23 4 74 -8 30 -15 78 -15 106 0 60 -16 81 -45 60z"/>
<path d="M2337 6832 c-23 -25 -25 -160 -2 -168 34 -13 46 15 43 99 -3 84 -13
100 -41 69z"/>
<path d="M2797 6843 c-9 -15 -5 -188 4 -205 14 -26 38 -22 49 8 16 41 12 156
-6 182 -15 22 -39 29 -47 15z"/>
<path d="M4826 6831 c-43 -25 -54 -47 -34 -67 23 -23 61 -11 88 26 38 53 7 77
-54 41z"/>
<path d="M2230 6824 c-8 -8 -14 -37 -14 -62 -1 -41 2 -47 21 -50 26 -4 36 23
31 83 -3 43 -18 54 -38 29z"/>
<path d="M2152 6817 c-6 -7 -13 -29 -14 -48 -3 -29 1 -34 19 -37 17 -2 24 3
28 21 14 53 -8 94 -33 64z"/>
<path d="M1976 6801 c-9 -14 5 -69 20 -82 34 -28 59 25 34 72 -11 20 -45 26
-54 10z"/>
<path d="M2953 6788 c-13 -16 -35 -166 -27 -179 9 -16 43 -10 53 10 19 34 33
152 20 167 -14 17 -33 18 -46 2z"/>
<path d="M263 6762 c-2 -10 -18 -23 -35 -30 -35 -13 -53 -6 -25 9 9 6 17 15
17 20 0 6 -13 1 -30 -11 -16 -12 -30 -30 -30 -41 0 -10 -7 -19 -15 -19 -9 0
-12 -6 -9 -15 4 -9 0 -15 -10 -15 -21 0 -128 -164 -124 -192 2 -17 8 -11 27
28 13 27 40 65 60 84 20 19 46 49 58 65 l22 30 26 -30 25 -30 20 25 c11 14 25
40 31 58 6 17 14 32 19 32 4 0 8 -15 7 -32 0 -20 17 -70 42 -123 65 -137 64
-168 -9 -190 -24 -7 -25 -7 -7 12 19 22 15 48 -10 57 -21 8 -33 -1 -49 -40
-15 -36 -31 -44 -41 -18 -3 9 8 34 27 61 26 35 31 49 23 62 -6 9 -16 16 -23
16 -14 0 -93 -91 -102 -116 -5 -12 -9 -12 -28 -1 -19 11 -25 11 -39 -2 -24
-22 -47 -20 -65 6 -16 22 -16 22 -16 1 0 -30 21 -43 89 -53 33 -5 65 -11 70
-15 6 -3 31 -6 57 -7 36 0 53 -6 69 -24 11 -12 33 -26 48 -29 40 -11 134 -173
152 -262 4 -18 15 -44 26 -58 17 -21 29 -25 70 -25 67 0 113 21 144 67 29 41
135 233 135 243 0 3 -9 16 -20 28 -15 16 -33 22 -63 23 -23 0 -78 13 -122 28
-159 56 -159 56 -166 91 -7 31 -33 59 -56 60 -7 0 -13 6 -13 13 0 8 -17 49
-39 93 -21 43 -48 100 -59 125 -23 51 -51 71 -59 41z m287 -430 c67 -27 111
-39 203 -57 15 -3 27 -11 27 -18 0 -23 -38 -93 -75 -137 -20 -24 -46 -61 -58
-82 -20 -35 -54 -55 -44 -25 6 18 -26 104 -67 176 -27 48 -34 67 -25 77 16 19
-6 52 -37 56 -32 4 -50 28 -40 53 6 16 8 16 24 2 9 -9 51 -29 92 -45z m-174 0
c-9 -9 -37 8 -31 18 5 8 11 7 21 -1 8 -6 12 -14 10 -17z m153 -228 c32 -68 38
-94 22 -94 -5 0 -17 21 -27 48 -9 26 -23 62 -31 81 -15 40 -16 44 -4 37 5 -4
23 -36 40 -72z"/>
<path d="M591 6233 c-8 -15 -12 -16 -22 -5 -7 6 -17 12 -21 12 -16 0 -7 -26
21 -59 30 -37 46 -35 62 6 6 16 5 31 -1 44 -13 24 -26 24 -39 2z"/>
<path d="M660 6188 c-19 -28 -39 -57 -45 -64 -7 -10 -5 -19 7 -31 17 -16 20
-15 52 23 50 56 62 82 50 102 -18 28 -28 23 -64 -30z"/>
<path d="M1712 6767 c-9 -11 -9 -23 1 -53 8 -21 20 -64 27 -94 7 -30 19 -63
28 -72 15 -18 47 -24 55 -10 3 4 -12 59 -32 122 -37 115 -54 137 -79 107z"/>
<path d="M1832 6767 c-8 -9 -8 -24 -1 -51 8 -30 15 -37 31 -34 27 4 40 39 24
69 -14 28 -38 35 -54 16z"/>
<path d="M0 6735 c0 -31 3 -35 25 -35 36 0 44 28 14 51 -34 26 -39 24 -39 -16z"/>
<path d="M3076 6743 c-18 -60 -28 -155 -17 -166 15 -15 42 1 59 35 20 41 27
115 12 133 -17 20 -47 19 -54 -2z"/>
<path d="M3212 6728 c-13 -17 -42 -128 -42 -163 0 -23 4 -26 27 -23 25 3 29
10 51 86 13 46 21 90 18 98 -7 17 -40 18 -54 2z"/>
<path d="M1601 6706 c-22 -26 29 -79 59 -61 16 10 12 40 -8 58 -23 21 -36 21
-51 3z"/>
<path d="M4879 6691 c-23 -19 -24 -19 -5 -40 25 -27 37 -26 66 3 43 47 -10 79
-61 37z"/>
<path d="M3318 6687 c-25 -20 -69 -158 -56 -174 28 -34 58 -3 87 91 25 82 25
73 2 85 -13 7 -23 7 -33 -2z"/>
<path d="M1526 6647 c-15 -11 -16 -18 -8 -33 6 -10 18 -40 28 -66 9 -26 23
-49 31 -53 20 -7 43 12 43 35 0 38 -49 130 -70 130 -3 0 -14 -6 -24 -13z"/>
<path d="M3407 6632 c-10 -11 -27 -45 -38 -77 -18 -51 -19 -60 -5 -73 8 -8 22
-12 31 -9 20 8 78 130 73 154 -5 25 -41 28 -61 5z"/>
<path d="M2 6620 c0 -14 2 -19 5 -12 2 6 2 18 0 25 -3 6 -5 1 -5 -13z"/>
<path d="M1440 6592 l-22 -18 21 -53 c22 -59 66 -131 80 -131 21 0 41 13 41
26 0 18 -77 181 -89 188 -5 3 -19 -2 -31 -12z"/>
<path d="M201 6571 c-12 -16 -21 -33 -21 -39 0 -5 -7 -15 -15 -22 -9 -7 -13
-15 -11 -18 3 -2 18 10 33 28 45 54 54 68 44 74 -5 4 -19 -7 -30 -23z"/>
<path d="M4952 6591 c-22 -13 -10 -44 21 -52 25 -7 27 -5 27 21 0 16 -7 30
-16 34 -19 7 -16 8 -32 -3z"/>
<path d="M1241 6561 l-20 -20 49 -102 c27 -56 55 -106 63 -110 9 -6 21 -2 32
11 20 22 21 19 -48 158 -40 81 -50 89 -76 63z"/>
<path d="M1324 6556 c-6 -16 34 -86 49 -86 28 1 40 18 33 46 -4 16 -12 35 -18
41 -14 17 -57 16 -64 -1z"/>
<path d="M3507 6552 c-29 -32 -57 -105 -45 -119 26 -32 60 -10 98 65 18 34 20
45 10 57 -17 20 -43 19 -63 -3z"/>
<path d="M3601 6451 c-38 -59 -40 -104 -4 -109 17 -3 29 8 53 45 29 46 46 90
39 98 -2 2 -16 6 -30 10 -23 6 -30 1 -58 -44z"/>
<path d="M4993 6465 c0 -22 2 -30 4 -17 2 12 2 30 0 40 -3 9 -5 -1 -4 -23z"/>
<path d="M4756 6450 c-26 -22 -56 -40 -66 -40 -9 0 -25 -9 -36 -21 -19 -21
-18 -21 5 -40 23 -19 76 -26 83 -11 2 4 29 29 61 57 61 52 68 68 38 85 -29 15
-32 14 -85 -30z"/>
<path d="M65 6469 c-4 -6 -5 -13 -2 -16 7 -7 27 6 27 18 0 12 -17 12 -25 -2z"/>
<path d="M1176 6455 c-22 -22 -21 -26 15 -71 33 -42 56 -49 73 -22 8 14 4 26
-19 59 -35 50 -47 56 -69 34z"/>
<path d="M4865 6408 c-44 -25 -103 -80 -120 -112 -16 -29 -17 -37 -6 -50 8 -9
19 -16 27 -16 7 0 50 35 95 79 l81 78 -23 17 c-27 19 -28 19 -54 4z"/>
<path d="M3702 6378 c-68 -112 -74 -133 -40 -144 18 -5 30 1 60 35 39 44 64
102 54 126 -10 28 -53 17 -74 -17z"/>
<path d="M4992 6370 c0 -14 2 -19 5 -12 2 6 2 18 0 25 -3 6 -5 1 -5 -13z"/>
<path d="M1084 6329 c-18 -20 -18 -21 39 -76 52 -50 60 -54 74 -41 12 13 13
20 3 39 -13 26 -80 99 -90 99 -4 0 -15 -9 -26 -21z"/>
<path d="M13 6333 c-31 -12 1 -55 65 -87 26 -14 37 -15 48 -5 23 19 17 33 -28
67 -40 31 -59 36 -85 25z"/>
<path d="M4524 6311 c-64 -47 -117 -108 -111 -125 13 -32 52 -15 127 55 71 67
74 71 56 85 -26 19 -27 18 -72 -15z"/>
<path d="M3798 6283 c-45 -46 -63 -89 -47 -109 22 -27 48 -14 88 43 46 63 49
78 22 93 -26 13 -22 15 -63 -27z"/>
<path d="M4882 6275 c-22 -19 -42 -32 -46 -30 -3 3 -4 2 -1 -1 2 -4 -4 -23
-15 -43 -19 -38 -17 -46 11 -68 13 -11 20 -9 40 8 22 19 24 19 27 4 2 -9 -1
-22 -7 -28 -15 -15 -14 -70 1 -85 20 -20 45 -13 72 21 l26 32 0 -57 c0 -48 -3
-58 -20 -63 -24 -8 -27 -53 -4 -62 9 -3 20 -15 24 -27 6 -13 9 35 9 127 l1
147 -33 0 c-18 0 -41 6 -51 13 -17 12 -15 16 23 58 60 66 61 67 61 81 0 10 -2
10 -9 -1 -6 -10 -13 -11 -29 -2 -31 16 -38 14 -80 -24z"/>
<path d="M907 6268 c-9 -27 121 -168 155 -168 40 0 28 29 -44 104 -70 73 -101
91 -111 64z"/>
<path d="M1022 6258 c-19 -19 -14 -37 13 -50 21 -9 29 -9 40 3 13 13 13 17 -1
37 -17 25 -34 28 -52 10z"/>
<path d="M0 6229 c0 -12 8 -28 18 -36 16 -14 16 -14 0 -9 -30 9 -21 -20 13
-42 37 -23 84 -24 84 -1 0 9 -26 37 -57 63 -52 42 -58 45 -58 25z"/>
<path d="M4516 6160 c-66 -54 -80 -74 -72 -96 11 -28 47 -13 120 54 55 50 72
70 64 80 -19 23 -53 12 -112 -38z"/>
<path d="M3887 6151 c-42 -54 -46 -76 -17 -91 16 -8 26 -4 55 21 20 18 43 46
52 62 14 28 14 32 -3 44 -30 22 -48 15 -87 -36z"/>
<path d="M4370 6155 c0 -19 32 -36 50 -25 11 7 11 11 1 24 -17 20 -51 21 -51
1z"/>
<path d="M867 6153 c-15 -15 -4 -36 41 -78 50 -47 78 -56 89 -28 5 12 -9 30
-46 65 -50 46 -70 56 -84 41z"/>
<path d="M217 6113 c-14 -13 -6 -35 21 -58 15 -13 33 -25 40 -25 6 0 12 -4 12
-10 0 -5 16 -17 36 -25 36 -15 64 -8 64 15 0 13 -133 110 -151 110 -9 0 -19
-3 -22 -7z"/>
<path d="M0 6081 c0 -35 27 -49 49 -26 15 15 14 18 -8 36 -32 26 -41 24 -41
-10z"/>
<path d="M3980 6084 c-36 -31 -64 -80 -56 -100 12 -32 54 -15 101 41 40 46 45
58 35 70 -18 22 -44 18 -80 -11z"/>
<path d="M4584 6081 c-77 -58 -86 -68 -83 -86 2 -10 11 -22 20 -28 13 -8 29 0
78 43 61 53 75 82 45 94 -21 8 -16 10 -60 -23z"/>
<path d="M816 6051 c-16 -17 -15 -20 18 -49 35 -30 87 -49 106 -37 17 11 11
34 -12 46 -13 7 -36 23 -51 35 -34 29 -39 29 -61 5z"/>
<path d="M164 6013 c-16 -16 -14 -19 22 -49 21 -18 60 -43 86 -55 39 -18 50
-20 63 -9 8 7 15 15 15 19 0 7 -154 111 -164 111 -3 0 -12 -8 -22 -17z"/>
<path d="M4636 5981 c-55 -43 -70 -65 -62 -87 9 -24 42 -15 96 27 60 48 70 67
45 85 -25 19 -23 19 -79 -25z"/>
<path d="M0 5980 c0 -14 15 -30 45 -48 25 -15 78 -48 118 -73 107 -68 138 -82
149 -71 16 16 3 39 -32 57 -17 9 -54 34 -83 55 -29 22 -59 40 -68 40 -9 0 -42
14 -73 30 -53 29 -56 29 -56 10z"/>
<path d="M4070 5951 c-42 -40 -45 -65 -9 -76 22 -7 71 26 89 61 11 19 11 26 0
39 -19 23 -36 18 -80 -24z"/>
<path d="M777 5969 c-31 -18 -19 -46 34 -79 40 -24 54 -28 65 -19 22 18 17 35
-23 66 -53 41 -56 43 -76 32z"/>
<path d="M4239 5914 c-8 -9 -28 -23 -45 -30 -17 -7 -46 -27 -64 -44 -32 -30
-32 -31 -15 -50 10 -11 24 -20 31 -20 7 0 44 26 84 57 53 42 70 62 68 77 -4
27 -40 33 -59 10z"/>
<path d="M4701 5885 c-68 -55 -78 -72 -57 -93 14 -14 19 -14 43 -1 15 8 50 36
78 62 48 46 49 49 31 63 -28 20 -35 18 -95 -31z"/>
<path d="M642 5908 c-26 -26 -18 -35 103 -97 63 -33 85 -34 85 -3 0 20 -29 44
-106 85 -58 31 -65 32 -82 15z"/>
<path d="M0 5872 c0 -21 172 -162 197 -162 3 0 21 -12 40 -26 27 -21 37 -23
48 -14 28 23 37 15 -174 157 -51 35 -98 63 -102 63 -5 0 -9 -8 -9 -18z"/>
<path d="M4315 5841 c-52 -24 -135 -98 -135 -120 0 -20 19 -41 37 -41 7 0 32
17 56 39 23 21 56 46 74 55 36 18 57 50 49 72 -7 19 -33 17 -81 -5z"/>
<path d="M567 5823 c-17 -16 -3 -34 47 -62 63 -37 128 -46 134 -19 2 13 -16
27 -67 53 -68 34 -101 42 -114 28z"/>
<path d="M4771 5780 c-59 -47 -75 -72 -59 -88 23 -23 54 -11 113 42 52 47 58
55 46 70 -21 25 -45 19 -100 -24z"/>
<path d="M4413 5739 c-18 -5 -33 -14 -33 -19 0 -6 -9 -10 -19 -10 -24 0 -101
-90 -101 -118 0 -11 7 -25 15 -32 11 -9 20 -8 46 10 17 13 39 36 48 51 10 16
33 39 52 52 22 15 35 32 37 50 4 29 3 30 -45 16z"/>
<path d="M0 5713 c0 -10 13 -27 29 -38 168 -118 171 -119 189 -101 16 16 15
19 -14 44 -17 15 -46 36 -65 47 -118 70 -139 77 -139 48z"/>
<path d="M467 5723 c-14 -14 -6 -33 14 -33 11 0 48 -16 80 -35 33 -19 64 -35
69 -35 18 0 22 41 5 60 -30 33 -148 63 -168 43z"/>
<path d="M4822 5652 c-29 -27 -52 -53 -52 -59 0 -12 27 -43 37 -43 14 0 133
103 133 116 0 14 -30 34 -52 34 -8 0 -37 -22 -66 -48z"/>
<path d="M362 5617 c-15 -18 -1 -32 43 -43 17 -4 55 -19 86 -35 56 -28 79 -26
79 6 0 15 -35 47 -46 43 -5 -1 -20 5 -34 14 -37 24 -113 33 -128 15z"/>
<path d="M4398 5570 c-52 -54 -59 -74 -28 -90 16 -8 26 -6 47 8 16 11 52 35
81 53 40 25 52 38 50 53 -3 18 -11 21 -53 23 -48 2 -52 0 -97 -47z"/>
<path d="M0 5580 c0 -33 108 -118 151 -120 9 0 22 6 28 14 14 16 -15 41 -110
94 -67 38 -69 38 -69 12z"/>
<path d="M4881 5550 c-34 -28 -61 -53 -61 -56 0 -5 20 -46 26 -53 6 -6 132 99
138 115 7 19 -10 44 -30 44 -7 0 -40 -23 -73 -50z"/>
<path d="M318 5504 c-26 -25 4 -44 105 -65 50 -11 60 -10 68 2 13 20 6 32 -25
48 -33 15 -138 27 -148 15z"/>
<path d="M4490 5470 c-6 -11 -19 -20 -28 -20 -41 0 -57 -51 -22 -70 21 -11 60
2 60 20 0 6 14 10 31 10 58 0 89 36 57 68 -20 20 -86 15 -98 -8z"/>
<path d="M0 5445 c0 -21 10 -30 55 -52 53 -26 56 -26 73 -9 16 16 16 18 -7 37
-13 10 -35 22 -50 25 -14 3 -36 9 -48 14 -20 8 -23 7 -23 -15z"/>
<path d="M4902 5413 c-11 -10 -23 -35 -26 -55 -9 -50 10 -50 64 -2 38 35 40
38 24 55 -21 24 -36 24 -62 2z"/>
<path d="M298 5394 c-12 -25 -10 -29 32 -66 49 -44 69 -45 88 -5 14 30 3 57
-23 57 -7 0 -24 9 -38 20 -33 26 -45 25 -59 -6z"/>
<path d="M4580 5380 c-79 -13 -120 -44 -120 -90 0 -30 17 -33 58 -11 20 11 54
25 75 31 21 7 37 18 37 27 0 9 -6 13 -15 9 -8 -3 -23 -8 -32 -11 -19 -6 -20
-7 34 31 22 15 5 21 -37 14z"/>
<path d="M0 5326 c0 -20 6 -25 40 -31 21 -4 44 -4 50 0 20 12 10 33 -21 44
-51 18 -69 14 -69 -13z"/>
<path d="M282 5278 c-16 -16 -16 -53 1 -66 38 -32 97 -21 97 18 0 36 -73 73
-98 48z"/>
<path d="M4560 5255 c-27 -10 -36 -19 -38 -40 -4 -35 12 -53 32 -36 9 7 21 11
28 8 15 -5 68 23 68 36 0 5 -9 5 -20 2 -23 -7 -28 13 -5 21 8 4 15 10 15 15 0
12 -37 9 -80 -6z"/>
<path d="M4890 5233 c-24 -31 -13 -51 18 -34 11 6 37 11 56 11 32 0 36 3 36
25 0 23 -4 25 -44 25 -36 0 -48 -5 -66 -27z"/>
<path d="M0 5210 c0 -17 7 -20 39 -20 37 0 68 19 54 33 -3 4 -26 7 -50 7 -36
0 -43 -3 -43 -20z"/>
<path d="M292 5178 c-19 -19 -15 -65 7 -71 43 -11 68 35 35 67 -19 19 -26 20
-42 4z"/>
<path d="M4925 5168 c-44 -25 -49 -64 -7 -54 51 13 82 31 80 46 -4 19 -46 24
-73 8z"/>
<path d="M4600 5156 c-6 -8 -21 -16 -33 -18 -16 -2 -23 -11 -25 -32 -5 -40 10
-51 45 -33 15 8 40 20 56 26 37 15 35 34 -3 26 -36 -8 -40 2 -5 15 14 5 25 14
25 20 0 15 -46 12 -60 -4z"/>
<path d="M16 5138 c-26 -14 -20 -44 8 -43 27 2 58 23 51 35 -8 13 -41 18 -59
8z"/>
<path d="M4958 5081 c-22 -22 -23 -41 -3 -41 8 0 15 9 15 20 0 11 5 20 10 20
6 0 10 5 10 10 0 15 -13 11 -32 -9z"/>
<path d="M297 5073 c-13 -13 -7 -61 9 -67 22 -8 34 1 34 28 0 32 -27 56 -43
39z"/>
<path d="M4610 5049 c-55 -58 -49 -112 8 -65 16 14 39 26 50 26 11 0 25 7 32
15 13 16 9 18 -30 16 -23 -2 -24 -1 -7 12 23 19 22 27 -4 27 -12 0 -34 -14
-49 -31z"/>
<path d="M45 5030 c-3 -5 -1 -10 4 -10 6 0 11 5 11 10 0 6 -2 10 -4 10 -3 0
-8 -4 -11 -10z"/>
<path d="M4937 4979 c-17 -23 -13 -49 8 -49 18 0 37 26 33 46 -5 26 -24 28
-41 3z"/>
<path d="M4605 4910 c-14 -28 -14 -31 1 -37 34 -13 73 39 42 58 -21 14 -26 11
-43 -21z"/>
<path d="M306 4923 c-9 -10 -7 -43 3 -43 11 0 21 39 11 45 -4 2 -10 2 -14 -2z"/>
<path d="M4579 4813 c-5 -15 -6 -30 -1 -35 13 -13 40 1 47 23 14 43 -29 55
-46 12z"/>
<path d="M300 4804 c0 -8 5 -12 10 -9 6 3 10 10 10 16 0 5 -4 9 -10 9 -5 0
-10 -7 -10 -16z"/>
<path d="M4604 4735 c-3 -14 -3 -29 1 -33 8 -8 37 28 32 42 -7 21 -27 16 -33
-9z"/>
<path d="M717 3753 c-4 -4 -4 -22 -1 -40 6 -31 4 -33 -20 -33 -28 0 -74 20
-117 52 -27 21 -73 17 -82 -6 -15 -39 73 -147 149 -183 34 -17 53 -51 40 -72
-11 -17 23 -71 44 -71 17 0 19 -5 14 -43 -6 -41 -4 -46 54 -115 34 -40 63 -81
67 -91 8 -26 73 -74 90 -67 8 3 15 2 15 -2 0 -5 21 -30 48 -57 33 -34 58 -51
82 -55 25 -4 36 -11 38 -25 8 -61 37 -180 60 -248 19 -57 23 -80 14 -89 -17
-17 -42 -2 -54 32 -16 47 -52 61 -111 42 -56 -18 -76 -8 -57 28 15 28 6 63
-31 117 -29 42 -31 43 -81 42 -47 -2 -54 1 -78 29 -53 64 -142 31 -156 -57 -4
-23 -11 -41 -16 -41 -6 0 -26 14 -45 30 -36 32 -49 35 -72 21 -12 -8 -8 -17
20 -50 84 -101 207 -224 234 -237 l30 -13 -43 -1 c-29 0 -45 -5 -49 -16 -9
-24 7 -33 90 -46 71 -11 78 -10 98 8 18 16 35 19 100 17 43 0 94 -6 112 -12
43 -15 67 -5 67 25 0 28 25 43 43 25 8 -8 6 -15 -10 -26 -20 -14 -47 -107 -55
-190 -3 -24 -9 -31 -38 -38 -59 -14 -141 -25 -235 -31 -241 -16 -284 -24 -285
-57 0 -4 -51 -10 -112 -14 -252 -17 -274 -22 -312 -60 -25 -24 -44 -34 -84
-39 -70 -9 -82 -15 -82 -38 0 -14 5 -18 15 -14 8 3 46 8 83 11 102 9 112 13
123 44 9 26 15 29 80 35 38 3 124 9 190 13 101 5 125 10 147 27 27 22 191 49
277 47 22 -1 78 5 125 14 108 19 103 19 94 -7 -8 -29 -8 -29 -36 -32 -37 -4
-131 -28 -150 -38 -10 -5 -18 -18 -18 -28 0 -11 -9 -25 -20 -32 -12 -8 -20
-24 -20 -40 0 -26 -28 -46 -47 -35 -13 8 -249 -31 -288 -47 -28 -12 -35 -20
-35 -43 0 -38 9 -49 47 -58 79 -17 40 -39 -87 -49 -109 -9 -311 -45 -328 -58
-6 -6 -12 -17 -12 -24 0 -16 -40 -34 -76 -34 -15 0 -24 6 -24 16 0 11 -5 14
-16 10 -9 -3 -18 -6 -20 -6 -2 0 -4 -15 -4 -34 0 -30 3 -34 33 -40 18 -3 47
-2 63 3 16 5 46 12 66 16 29 4 39 12 44 29 4 16 17 27 42 34 45 14 177 31 252
33 70 3 142 23 164 48 27 30 18 74 -19 85 -65 19 -78 27 -67 38 14 14 92 26
217 34 111 6 148 22 153 66 3 21 7 25 24 20 17 -4 20 -2 15 12 -15 39 36 76
104 76 22 0 27 -4 22 -16 -3 -8 4 -28 16 -44 11 -16 21 -34 21 -40 0 -5 11
-20 25 -32 14 -12 25 -27 25 -34 0 -8 8 -18 19 -23 10 -6 21 -25 24 -43 6 -31
17 -72 67 -247 11 -40 19 -76 16 -78 -3 -3 -117 -5 -253 -6 -136 0 -258 -3
-270 -8 -12 -4 -36 -4 -55 1 -18 5 -194 10 -390 12 l-358 4 0 -38 c0 -38 0
-38 43 -39 23 -1 305 -3 627 -5 322 -3 601 -6 620 -7 33 -2 35 -4 43 -52 4
-27 13 -55 19 -62 8 -10 6 -18 -6 -31 -24 -27 -20 -72 10 -103 20 -20 28 -45
39 -115 8 -49 15 -92 15 -96 0 -4 -14 -23 -31 -42 -25 -29 -35 -34 -58 -30
-38 8 -68 -10 -85 -49 -12 -29 -11 -34 6 -53 17 -19 35 -23 141 -29 67 -4 127
-11 132 -15 6 -4 26 -11 45 -15 31 -7 37 -4 65 29 26 31 38 37 83 43 30 3 62
13 73 22 20 16 20 17 1 61 -11 25 -31 56 -46 69 -18 17 -26 35 -26 59 0 64 22
167 40 187 31 36 31 63 -1 99 -25 29 -29 42 -29 90 l0 57 32 -3 c30 -3 33 -6
49 -71 17 -68 41 -107 65 -107 16 0 27 -39 54 -199 11 -68 23 -128 26 -133 3
-4 16 -8 29 -8 13 0 40 -15 61 -35 43 -41 76 -52 110 -36 15 6 24 7 24 1 0
-15 71 -90 84 -90 7 0 40 -13 74 -30 72 -35 80 -36 110 -14 15 10 22 25 22 46
l0 31 52 -7 c29 -4 58 -12 64 -17 21 -17 71 -28 82 -17 7 7 21 7 44 0 116 -36
133 -36 125 5 -4 23 -3 24 33 18 27 -5 46 -2 63 10 21 13 32 14 73 4 27 -6 57
-15 66 -20 24 -12 48 -11 48 1 0 42 -68 120 -104 120 -8 0 -24 13 -36 30 -12
16 -42 42 -68 57 -26 14 -69 43 -97 64 -27 21 -70 46 -95 57 -62 26 -77 46
-60 77 10 19 10 32 -3 72 -19 56 -47 175 -47 197 0 14 37 15 298 14 328 -1
438 -12 492 -46 19 -12 44 -22 56 -22 17 0 22 -10 33 -65 11 -62 10 -68 -9
-92 -11 -15 -29 -33 -40 -40 -16 -11 -18 -24 -15 -93 2 -76 -6 -118 -33 -166
-35 -63 150 -156 256 -128 12 4 22 11 22 16 0 5 -22 35 -49 68 -47 56 -48 60
-41 102 5 23 10 72 11 108 3 59 1 68 -24 94 -21 23 -24 32 -16 48 7 14 7 29 0
50 -19 55 -14 93 14 106 35 16 31 35 -10 55 -36 17 -48 50 -22 60 9 3 12 22
11 56 -1 28 3 54 7 57 5 3 9 -21 10 -53 0 -32 4 -67 8 -77 7 -18 8 -18 14 -2
4 9 12 14 17 11 15 -9 40 14 40 35 0 24 44 76 70 83 11 3 20 1 20 -4 0 -5 -5
-9 -10 -9 -20 0 -60 -53 -60 -79 0 -14 -9 -39 -20 -56 -24 -36 -25 -55 -5 -55
22 0 38 -38 31 -79 -4 -20 -10 -64 -15 -99 -5 -35 -14 -69 -20 -75 -25 -25
-11 -62 42 -114 28 -28 63 -56 78 -61 34 -13 79 -4 79 17 -1 27 -27 91 -45
111 -21 23 -12 75 15 90 9 5 25 33 34 62 9 29 23 67 31 83 8 17 21 47 29 68
13 32 19 37 48 37 29 0 35 -5 46 -32 10 -27 9 -40 -5 -78 -9 -25 -24 -54 -33
-65 -38 -45 -35 -67 11 -90 42 -22 61 -19 136 24 72 41 95 41 108 2 3 -11 14
-22 23 -26 30 -9 62 -111 58 -185 -2 -36 -5 -69 -6 -75 -6 -23 1 -36 25 -47
21 -9 30 -7 65 17 23 16 48 41 55 55 19 37 23 183 6 204 -9 10 -11 28 -7 51 6
28 17 42 56 68 62 40 89 85 72 121 -14 32 -5 38 56 36 26 -1 127 -1 225 -1
l177 1 0 30 c0 17 -5 30 -12 30 -7 1 -105 3 -218 6 -113 3 -214 7 -225 9 -11
2 -32 4 -46 4 -18 1 -28 8 -32 21 -5 21 -50 29 -62 10 -11 -18 24 -122 49
-149 34 -36 33 -45 -10 -77 -33 -25 -44 -28 -127 -29 -111 -1 -127 4 -175 53
-20 22 -44 43 -53 48 -26 15 -82 123 -76 147 11 44 34 98 49 113 13 13 19 14
36 3 16 -10 26 -10 50 0 28 12 30 17 30 63 1 28 5 54 9 59 4 4 33 -2 63 -13
30 -11 67 -23 83 -25 15 -3 27 -10 26 -17 -10 -85 17 -165 52 -151 12 5 16 22
17 72 1 53 6 71 23 89 25 27 42 90 41 152 -1 41 0 44 22 38 37 -9 76 27 76 71
0 26 -5 36 -20 40 -26 7 -25 19 1 33 20 11 19 13 -18 45 -138 121 -171 133
-250 92 -26 -14 -56 -28 -65 -31 -10 -3 -19 -16 -20 -28 -1 -13 -2 -31 -3 -40
0 -9 -4 -20 -8 -24 -20 -21 -4 -55 49 -102 32 -28 51 -53 45 -56 -6 -4 -49 -4
-96 -1 -51 3 -94 1 -105 -5 -15 -8 -21 -6 -30 10 -7 12 -21 20 -38 20 -15 0
-38 9 -52 20 -26 21 -65 26 -74 11 -3 -5 1 -12 9 -15 14 -5 14 -8 -1 -31 -9
-14 -12 -25 -6 -25 6 0 14 5 18 11 4 8 9 7 15 -2 5 -8 9 -16 9 -19 0 -9 -90
-33 -97 -26 -4 3 6 19 22 36 30 31 29 60 -3 60 -11 0 -24 11 -31 26 -11 24
-13 25 -34 11 -18 -12 -21 -22 -19 -57 5 -52 -11 -65 -51 -42 -22 13 -27 23
-24 42 2 14 1 36 -3 50 l-8 25 -1 -28 c-1 -37 -21 -25 -21 13 0 16 -4 32 -10
35 -6 4 -10 -15 -10 -49 0 -43 -3 -56 -15 -56 -12 0 -15 13 -15 58 0 59 -14
101 -24 72 -3 -8 -7 -24 -9 -35 -3 -11 -5 -1 -6 23 0 23 1 42 3 42 14 0 76
-28 104 -47 38 -25 67 -29 78 -11 10 15 -39 53 -103 79 -58 23 -72 45 -23 35
23 -4 35 -1 49 15 11 12 23 25 27 30 5 6 18 16 28 23 17 12 18 17 7 44 -11 25
-10 35 4 61 22 43 4 79 -48 96 -21 7 -46 20 -56 29 -12 11 -37 16 -77 16 -49
0 -66 -5 -104 -30 -25 -17 -60 -37 -78 -45 -39 -17 -50 -39 -30 -63 8 -9 19
-29 26 -44 7 -18 19 -28 33 -28 11 0 38 -18 60 -40 22 -22 50 -40 62 -41 l22
0 -23 -9 c-18 -8 -21 -15 -16 -35 5 -19 2 -25 -9 -25 -9 0 -22 -12 -29 -27
-22 -45 -40 -41 -37 8 4 73 -15 55 -26 -23 -10 -64 -12 -69 -18 -40 -5 24 -11
32 -24 30 -35 -6 -2 72 51 121 14 14 26 28 26 33 0 20 -35 4 -79 -37 -41 -38
-50 -54 -61 -104 -13 -62 -5 -137 26 -264 18 -71 11 -86 -69 -145 -28 -22 -60
-48 -70 -59 -17 -19 -17 -22 -2 -37 10 -9 14 -23 11 -31 -6 -16 -44 -18 -441
-16 -153 1 -211 5 -217 14 -4 6 -12 34 -18 60 -5 26 -17 58 -25 71 -13 19 -13
29 -4 52 17 42 15 197 -4 286 -9 42 -19 110 -22 150 l-5 73 43 1 c65 1 92 11
107 39 10 19 11 28 2 37 -9 9 -17 7 -35 -10 -13 -12 -26 -20 -28 -17 -3 2 -30
5 -61 6 -49 2 -58 5 -67 26 -19 42 -15 54 14 39 29 -15 74 -10 82 9 6 16 126
13 146 -3 7 -6 24 -9 38 -6 18 4 15 0 -14 -17 -41 -25 -56 -61 -37 -84 18 -22
36 -18 67 13 15 16 55 39 88 51 33 13 65 30 71 37 7 9 21 10 47 5 34 -8 88 -2
166 19 20 5 54 11 75 14 45 6 97 49 80 66 -7 7 -20 7 -40 0 -16 -6 -58 -14
-94 -19 -36 -5 -86 -15 -112 -21 -34 -8 -80 -9 -163 -2 -64 6 -129 6 -145 2
-37 -11 -42 -4 -25 30 15 29 33 40 65 40 10 0 25 6 32 14 8 8 23 16 34 18 12
2 21 14 24 33 5 28 9 31 68 41 34 6 66 14 69 18 4 3 17 -4 29 -15 17 -16 27
-19 36 -12 16 13 170 8 196 -6 11 -6 24 -6 33 0 7 5 26 7 40 4 35 -8 53 14 39
49 -16 44 -11 54 9 19 24 -39 54 -50 84 -30 12 8 34 15 47 15 14 0 52 7 85 16
97 26 148 19 201 -29 13 -11 38 -20 60 -21 28 -1 43 -8 60 -29 27 -34 68 -36
118 -7 32 19 33 19 44 1 7 -11 20 -19 30 -19 10 0 23 -5 28 -10 7 -7 22 -6 47
5 65 27 60 56 -12 57 -42 0 -109 35 -103 53 4 17 81 8 128 -14 24 -12 59 -21
78 -21 19 0 38 -5 41 -11 4 -5 19 -15 33 -21 25 -10 26 -11 7 -18 -11 -5 -36
-9 -56 -9 -20 -1 -42 -8 -49 -16 -7 -8 -23 -15 -37 -15 -13 0 -33 -5 -44 -11
-16 -8 -30 -7 -60 5 -66 27 -125 21 -181 -16 -27 -19 -47 -40 -45 -48 4 -25
46 -23 82 4 36 28 68 32 112 15 27 -10 25 -12 -46 -30 -99 -25 -117 -41 -85
-73 21 -22 53 -20 79 4 26 25 58 27 110 9 46 -17 125 -23 140 -12 6 5 18 20
27 34 11 18 29 28 55 33 21 3 45 10 53 16 13 8 13 11 -1 25 -25 26 -116 10
-152 -26 -25 -25 -33 -28 -64 -21 l-37 8 38 22 c20 12 48 22 60 22 13 0 35 9
49 21 22 16 30 18 48 9 11 -7 60 -12 107 -11 48 0 116 -1 152 -1 36 0 72 -1
80 -1 8 0 22 2 30 4 11 3 14 -3 12 -18 -2 -14 2 -23 10 -24 60 -4 110 2 136
15 17 9 54 16 82 16 43 0 50 3 50 20 0 18 -7 20 -84 20 -68 0 -88 4 -109 20
-20 16 -34 19 -71 14 -54 -8 -96 9 -96 38 0 20 21 24 48 7 27 -17 77 13 101
59 61 119 45 179 -66 255 -38 26 -74 47 -80 47 -5 0 -20 11 -33 25 -48 51
-131 40 -160 -23 -9 -18 -30 -41 -47 -52 -48 -29 -69 -66 -56 -99 5 -15 8 -52
5 -82 -3 -46 -1 -57 17 -73 13 -12 34 -19 55 -18 24 1 39 -6 56 -25 17 -20 19
-25 5 -20 -9 4 -35 10 -58 13 -23 4 -58 15 -77 24 -19 10 -43 21 -54 24 -16 6
-18 14 -14 70 4 42 1 74 -9 97 -8 18 -11 44 -8 57 5 19 0 25 -27 36 -28 12
-38 12 -68 0 -19 -8 -48 -24 -64 -35 -15 -12 -42 -22 -59 -23 -25 -1 -35 6
-58 39 -26 37 -49 93 -63 155 -6 26 -64 70 -91 70 -9 0 -25 -23 -40 -55 l-24
-55 -165 0 -165 0 -16 29 c-43 85 -204 138 -286 95 -23 -11 -29 -20 -24 -34 5
-16 -4 -26 -40 -47 -74 -44 -76 -46 -80 -93 -6 -61 -51 -100 -107 -93 -33 5
-39 3 -49 -21 -17 -36 1 -57 32 -38 18 12 24 11 43 -7 16 -15 25 -17 39 -10 9
6 17 16 17 22 0 7 9 20 20 30 11 9 20 28 20 41 0 13 10 30 22 38 20 14 24 13
40 -6 13 -17 20 -19 35 -10 10 6 19 22 21 36 2 15 13 30 28 36 13 7 24 20 24
30 0 10 12 22 30 29 20 8 30 18 30 32 0 12 -5 21 -12 21 -6 0 -9 3 -5 6 3 3
20 -4 38 -17 18 -12 39 -23 48 -24 57 -7 66 -35 19 -56 -22 -9 -33 -21 -33
-34 0 -18 6 -20 66 -17 50 3 68 0 78 -12 8 -9 19 -16 26 -16 19 0 48 -85 40
-119 -6 -29 -43 -76 -52 -67 -3 3 0 12 7 21 18 22 5 49 -21 42 -15 -4 -23 0
-26 14 -3 10 -13 19 -23 19 -10 0 -21 6 -23 13 -3 7 -6 5 -6 -5 -1 -16 -19
-23 -45 -19 -4 1 -14 -4 -22 -10 -17 -14 -43 4 -45 30 0 9 -5 0 -11 -18 -5
-19 -17 -41 -26 -48 -16 -12 -15 -13 4 -11 21 3 87 -45 77 -56 -4 -3 -25 -6
-47 -6 -51 0 -89 24 -81 51 5 15 1 19 -20 19 -14 0 -24 -4 -21 -9 3 -5 -3 -19
-13 -32 -18 -23 -20 -23 -38 -6 -24 21 -41 22 -64 1 -30 -27 -86 -11 -111 31
-17 29 -23 33 -39 25 -10 -6 -19 -21 -19 -34 0 -32 62 -86 98 -86 32 0 59 -15
44 -24 -6 -3 -32 -9 -59 -12 -92 -10 -90 -10 -178 -92 -23 -22 -78 -52 -96
-52 -7 0 -9 12 -5 38 4 20 7 47 7 60 1 13 11 30 24 38 30 19 60 97 47 121 -6
10 -7 26 -1 41 11 28 1 49 -31 65 -13 7 -27 25 -31 40 -4 16 -16 35 -26 43
-41 31 -103 5 -103 -44 0 -12 -8 -23 -21 -27 -29 -10 -38 -42 -36 -133 3 -86
12 -107 55 -115 34 -7 62 -53 62 -100 0 -43 -19 -52 -98 -48 -30 1 -59 -3 -66
-8 -10 -9 -12 -1 -8 38 6 71 -1 90 -58 146 -44 44 -50 55 -50 92 0 59 38 153
66 163 13 5 28 18 34 29 5 11 28 25 49 31 21 5 46 19 57 31 10 12 51 43 91 70
39 27 74 53 78 59 3 5 14 10 24 10 9 0 33 16 52 36 18 19 55 49 81 66 39 24
50 38 58 71 14 58 21 68 71 104 59 43 106 92 120 126 16 37 7 43 -43 28 -37
-12 -43 -11 -55 4 -7 10 -14 23 -16 28 -2 6 -24 -3 -49 -21 -31 -21 -52 -46
-67 -79 -12 -26 -26 -55 -33 -64 -9 -12 -6 -23 12 -47 19 -26 21 -34 10 -47
-7 -8 -18 -15 -26 -15 -7 0 -20 -10 -28 -22 -17 -24 -17 -24 -35 16 -11 27
-10 31 16 52 21 17 25 25 17 34 -9 9 -19 8 -43 -4 -17 -9 -31 -21 -31 -26 0
-5 -10 -12 -22 -15 -58 -17 -126 -56 -131 -74 -5 -21 -11 -21 -110 -6 -18 3
-34 -2 -47 -15 -11 -11 -26 -20 -34 -20 -55 0 -60 -35 -8 -56 41 -17 82 -51
82 -68 0 -6 -10 2 -23 18 -20 24 -28 27 -54 22 -28 -6 -32 -4 -41 23 -13 38
-25 39 -75 4 -37 -26 -39 -29 -33 -70 5 -35 2 -46 -17 -65 -27 -28 -54 -152
-37 -173 7 -9 6 -16 -6 -26 -13 -11 -19 -10 -37 1 -12 7 -35 20 -52 28 -16 8
-31 16 -32 17 -2 1 6 19 17 40 11 22 20 45 20 52 0 7 5 13 11 13 6 0 8 -7 5
-16 -16 -41 -16 -61 -2 -73 8 -7 20 -10 27 -6 19 13 39 72 39 120 0 25 4 45 9
45 5 0 17 7 26 16 22 22 2 46 -31 38 -15 -4 -24 -2 -24 6 0 6 -11 10 -27 8
-30 -3 -31 -7 -18 -83 5 -30 4 -36 -4 -25 -6 8 -11 24 -11 35 0 32 -37 85 -59
85 -30 0 -33 -14 -11 -62 18 -42 18 -46 2 -106 -9 -34 -19 -62 -23 -62 -4 0
-19 14 -33 31 -22 26 -32 30 -56 25 -20 -4 -30 -1 -31 7 -2 31 -9 50 -25 68
-16 18 -16 19 5 19 17 0 27 10 38 40 23 57 94 104 146 96 21 -4 46 -12 57 -18
21 -14 50 3 50 29 0 11 5 13 18 7 30 -14 145 -4 165 14 34 30 48 79 37 127 -5
24 -7 65 -3 90 6 45 4 48 -38 91 -41 41 -46 44 -98 44 -59 0 -125 -26 -157
-61 -19 -21 -23 -88 -12 -213 l3 -39 -50 -12 c-27 -6 -64 -19 -81 -27 -44 -24
-95 -79 -101 -110 -7 -34 -11 -34 -46 -4 -16 14 -42 28 -57 31 -16 3 -34 13
-40 20 -7 8 -26 14 -43 13 -36 -1 -117 47 -117 69 0 8 8 16 18 19 9 3 24 10
32 15 8 5 25 13 38 19 22 9 30 34 13 44 -4 3 -11 35 -14 71 -6 82 -47 155 -92
169 -17 4 -38 12 -47 17 -24 12 -28 11 -28 -6 0 -8 -7 -15 -15 -15 -18 0 -18
-5 -5 -30 8 -15 6 -24 -10 -40 -11 -11 -20 -34 -21 -52 -1 -31 -1 -31 -9 -8
-5 18 -1 35 13 59 17 27 18 35 6 42 -8 5 -18 9 -24 9 -5 0 -3 6 6 13 18 14 14
37 -6 37 -19 0 -75 -49 -75 -66 0 -8 -7 -17 -15 -20 -8 -4 -15 -16 -15 -29 0
-12 -6 -28 -14 -34 -11 -10 -12 -19 -4 -42 8 -22 7 -33 -3 -45 -11 -13 -10
-17 4 -25 9 -6 17 -16 17 -24 0 -8 9 -20 20 -27 50 -31 0 -95 -55 -70 -14 6
-32 9 -40 6 -8 -4 -29 -1 -45 6 -24 10 -33 10 -46 -1 -13 -11 -17 -10 -26 4
-10 19 -98 67 -123 67 -8 0 -15 8 -15 18 0 10 -34 52 -75 94 -54 55 -75 83
-75 102 0 30 -45 136 -58 136 -5 0 -12 -3 -15 -7z m40 -85 c-3 -8 -6 -5 -6 6
-1 11 2 17 5 13 3 -3 4 -12 1 -19z m-92 -2 c21 -8 41 -19 43 -25 7 -20 -32
-11 -63 14 -35 28 -33 29 20 11z m2275 -41 c0 -11 10 -14 48 -10 l47 5 -33
-15 c-25 -12 -32 -20 -27 -33 8 -27 -36 -64 -71 -60 -39 4 -42 35 -9 87 26 42
45 53 45 26z m-2252 -23 c6 -18 -15 -14 -22 4 -4 10 -1 14 6 12 6 -2 14 -10
16 -16z m840 -35 c-2 -16 -11 -23 -30 -25 -31 -4 -37 13 -18 49 9 16 15 17 31
8 13 -6 19 -18 17 -32z m-208 -48 c0 -11 -4 -17 -10 -14 -5 3 -10 13 -10 21 0
8 5 14 10 14 6 0 10 -9 10 -21z m-464 -93 c0 -13 -3 -22 -5 -20 -2 2 -10 -1
-18 -8 -24 -20 -27 1 -3 27 29 31 28 31 26 1z m74 -25 c0 -6 -4 -13 -10 -16
-5 -3 -10 1 -10 9 0 9 5 16 10 16 6 0 10 -4 10 -9z m1770 -53 l-1 -43 -14 40
c-18 49 -18 45 0 45 11 0 15 -11 15 -42z m-1823 10 c-3 -8 -6 -5 -6 6 -1 11 2
17 5 13 3 -3 4 -12 1 -19z m552 5 c42 -24 39 -37 -6 -30 -41 7 -59 20 -49 36
10 15 19 14 55 -6z m-479 -33 c0 -5 -2 -10 -4 -10 -3 0 -8 5 -11 10 -3 6 -1
10 4 10 6 0 11 -4 11 -10z m1167 4 c-3 -3 -12 -4 -19 -1 -8 3 -5 6 6 6 11 1
17 -2 13 -5z m404 -25 c47 -16 51 -21 38 -56 -8 -26 -37 -52 -43 -41 -20 36
-59 88 -66 88 -6 0 -10 5 -10 10 0 13 39 13 81 -1z m106 -11 c-3 -8 -6 -5 -6
6 -1 11 2 17 5 13 3 -3 4 -12 1 -19z m-1637 3 c0 -5 9 -7 20 -4 22 6 23 3 14
-21 -3 -9 -12 -16 -20 -16 -8 0 -14 -6 -15 -12 -1 -7 -5 -2 -9 12 -11 36 -11
50 0 50 6 0 10 -4 10 -9z m111 -38 c-9 -17 -10 -17 -16 0 -4 9 -4 25 0 35 6
16 7 16 16 0 7 -12 7 -24 0 -35z m-181 -23 c0 -60 10 -75 29 -42 9 14 10 12
11 -15 0 -43 -14 -49 -38 -15 -25 35 -34 132 -12 132 6 0 10 -27 10 -60z m138
-10 c-1 -66 -12 -91 -24 -52 -3 9 -10 25 -15 34 -6 12 -4 22 6 32 8 8 15 21
15 29 0 12 9 27 16 27 2 0 3 -31 2 -70z m320 -174 c-3 -199 -7 -250 -22 -235
-9 8 7 459 16 459 5 0 7 -100 6 -224z m-219 147 c0 -67 -11 -115 -21 -97 -8
15 4 164 13 164 5 0 9 -30 8 -67z m273 55 c11 -33 9 -160 -4 -175 -11 -14 -13
-13 -18 6 -8 32 0 181 10 181 4 0 10 -6 12 -12z m83 -7 c3 -5 1 -12 -5 -16 -5
-3 -10 1 -10 9 0 18 6 21 15 7z m-212 -68 c-8 -91 -13 -92 -13 -5 0 40 4 72
10 72 5 0 7 -27 3 -67z m-97 -24 c-5 -67 -16 -76 -16 -12 0 43 5 63 16 63 2 0
2 -23 0 -51z m50 -89 c-1 -72 -6 -131 -12 -133 -11 -2 -18 170 -9 231 12 82
23 30 21 -98z m423 117 c14 -18 2 -30 -15 -16 -14 12 -18 7 -27 -36 -3 -17 -5
-17 -11 -4 -9 21 10 69 28 69 7 0 19 -6 25 -13z m42 -29 c1 -13 0 -31 -1 -42
-1 -11 3 -15 9 -12 6 4 11 14 11 23 0 9 2 14 5 11 10 -9 15 -138 6 -138 -10 0
-21 35 -21 68 0 13 -4 21 -9 18 -10 -7 -21 27 -21 67 0 32 19 37 21 5z m-621
-34 c0 -19 -4 -34 -10 -34 -5 0 -10 18 -10 41 0 24 4 38 10 34 6 -3 10 -22 10
-41z m419 -41 c1 -50 -18 -70 -20 -21 -2 41 -2 78 1 98 3 26 18 -33 19 -77z
m45 43 c-3 -14 -10 -26 -15 -26 -10 0 -12 53 -2 64 13 12 24 -11 17 -38z m36
24 c0 -5 -2 -10 -4 -10 -3 0 -8 5 -11 10 -3 6 -1 10 4 10 6 0 11 -4 11 -10z
m0 -40 c0 -5 -4 -10 -10 -10 -5 0 -10 5 -10 10 0 6 5 10 10 10 6 0 10 -4 10
-10z m80 -11 c0 -11 -4 -18 -10 -14 -5 3 -7 12 -3 20 7 21 13 19 13 -6z m126
-11 c25 -24 34 -91 14 -103 -6 -4 -10 12 -10 40 0 38 -3 45 -17 43 -12 -2 -19
4 -21 20 -2 12 0 22 3 22 4 0 18 -10 31 -22z m1294 14 c0 -4 -9 -13 -20 -20
-18 -11 -20 -10 -20 8 0 13 7 20 20 20 11 0 20 -3 20 -8z m-1460 -12 c0 -5 -4
-10 -10 -10 -5 0 -10 5 -10 10 0 6 5 10 10 10 6 0 10 -4 10 -10z m-80 -36 c0
-21 -4 -33 -10 -29 -17 10 -11 65 7 65 2 0 3 -16 3 -36z m40 -117 c1 -67 2
-153 3 -191 1 -39 -2 -71 -8 -73 -6 -2 -10 24 -11 64 0 70 -20 219 -23 171 -2
-52 -21 -28 -21 27 0 44 4 56 20 65 13 7 20 21 20 41 0 17 4 28 9 24 6 -3 10
-60 11 -128z m77 111 c-3 -8 -6 -5 -6 6 -1 11 2 17 5 13 3 -3 4 -12 1 -19z
m2891 -4 c2 -16 -4 -23 -23 -28 -41 -10 -48 0 -36 52 1 2 13 2 29 0 19 -2 28
-9 30 -24z m-3132 -36 c-3 -29 -5 -62 -5 -72 -2 -43 -15 -2 -17 52 -2 60 1 72
17 72 6 0 8 -21 5 -52z m204 1 c0 -11 -4 -18 -10 -14 -5 3 -7 12 -3 20 7 21
13 19 13 -6z m278 -63 c2 -36 0 -47 -10 -44 -8 3 -14 24 -16 52 -2 36 0 47 10
44 8 -3 14 -24 16 -52z m-398 -43 c-1 -49 1 -98 5 -109 4 -13 2 -25 -4 -28 -6
-4 -11 -4 -12 1 0 4 -3 17 -6 28 -5 21 -11 59 -12 84 -1 11 -4 11 -16 1 -13
-11 -15 -8 -15 18 0 23 4 30 14 26 14 -6 30 22 20 37 -7 11 4 29 17 29 7 0 10
-33 9 -87z m126 -63 c1 -71 -2 -132 -7 -136 -9 -5 -11 18 -12 141 -1 95 2 139
10 132 3 -4 8 -66 9 -137z m-426 94 c0 -8 -4 -14 -10 -14 -5 0 -10 9 -10 21 0
11 5 17 10 14 6 -3 10 -13 10 -21z m3540 11 c6 -8 13 -31 15 -52 1 -21 1 -30
-2 -21 -2 10 -18 31 -34 49 -16 17 -29 33 -29 35 0 11 39 2 50 -11z m-2752
-15 c22 -11 46 -20 52 -20 16 0 12 -18 -9 -32 -13 -9 -20 -30 -23 -71 -4 -53
-3 -60 16 -67 12 -5 15 -9 9 -9 -7 -1 -13 -5 -13 -11 0 -21 24 -9 60 30 20 22
42 40 48 40 6 0 16 -13 24 -30 13 -30 43 -40 51 -17 4 9 7 9 18 -1 12 -11 12
-14 -1 -22 -8 -6 -20 -8 -27 -5 -7 2 -15 0 -18 -5 -9 -15 -25 -12 -25 5 0 20
-14 19 -84 -6 -38 -13 -69 -18 -88 -13 -28 6 -30 8 -24 43 3 20 6 50 7 66 0
28 1 28 9 8 15 -36 20 -27 20 33 0 48 -2 55 -16 50 -21 -8 -44 11 -44 35 0 24
6 24 58 -1z m2402 4 c0 -8 -5 -12 -10 -9 -6 4 -8 11 -5 16 9 14 15 11 15 -7z
m-1760 -39 c0 -7 -7 -18 -15 -25 -8 -7 -15 -18 -15 -25 0 -7 7 -18 15 -25 19
-16 19 -40 0 -67 -13 -19 -18 -20 -54 -9 -53 15 -59 23 -33 42 21 14 21 17 7
44 -23 45 -19 77 11 93 23 12 31 12 55 0 16 -8 29 -20 29 -28z m1020 15 c0 -5
-7 -7 -15 -4 -8 4 -15 8 -15 10 0 2 7 4 15 4 8 0 15 -4 15 -10z m435 -2 c22 1
55 -25 55 -45 0 -16 -2 -16 -54 -1 -64 18 -110 67 -48 51 15 -3 36 -6 47 -5z
m505 -14 c9 -10 26 -14 49 -12 27 2 36 -1 39 -14 3 -13 -3 -18 -21 -18 -14 0
-30 -7 -37 -15 -10 -12 -16 -13 -38 -1 -29 15 -85 5 -115 -22 -9 -8 -20 -12
-24 -9 -3 4 0 7 7 7 7 0 11 3 7 6 -3 3 7 17 23 31 16 13 32 33 35 43 8 25 57
27 75 4z m-3283 -26 c-3 -7 -5 -2 -5 12 0 14 2 19 5 13 2 -7 2 -19 0 -25z
m106 -4 c-2 -7 0 -21 6 -32 7 -14 7 -24 -2 -37 -12 -15 -14 -15 -26 -2 -9 12
-10 21 -1 37 6 11 8 25 5 31 -4 5 -4 17 0 27 5 13 8 14 15 3 4 -8 6 -20 3 -27z
m244 14 c-3 -8 -6 -5 -6 6 -1 11 2 17 5 13 3 -3 4 -12 1 -19z m55 -3 c0 -5 -5
-11 -11 -13 -6 -2 -11 4 -11 13 0 9 5 15 11 13 6 -2 11 -8 11 -13z m364 -21
c-4 -12 -10 -14 -17 -7 -5 5 -7 17 -3 27 4 12 10 14 17 7 5 -5 7 -17 3 -27z
m90 9 c-10 -10 -19 5 -10 18 6 11 8 11 12 0 2 -7 1 -15 -2 -18z m1824 -15 c0
-11 -118 -10 -125 2 -3 5 7 12 22 16 15 3 39 9 53 14 24 7 50 -9 50 -32z
m-3286 -16 c-8 -18 -20 -32 -25 -32 -14 0 -11 8 13 40 27 37 33 33 12 -8z
m2936 18 c7 -4 10 -16 8 -26 -4 -20 -41 -31 -138 -39 l-55 -5 30 22 c16 13 36
31 44 40 15 18 87 23 111 8z m-1782 -18 c2 -7 -2 -10 -12 -6 -9 3 -16 11 -16
16 0 13 23 5 28 -10z m252 8 c0 -5 -4 -10 -10 -10 -5 0 -10 5 -10 10 0 6 5 10
10 10 6 0 10 -4 10 -10z m-561 -68 c0 -85 -15 -96 -22 -15 -5 69 -2 87 13 78
5 -3 9 -31 9 -63z m-812 36 c-3 -8 -6 -5 -6 6 -1 11 2 17 5 13 3 -3 4 -12 1
-19z m1463 12 c0 -5 -2 -10 -4 -10 -3 0 -8 5 -11 10 -3 6 -1 10 4 10 6 0 11
-4 11 -10z m-130 -20 c0 -11 -2 -20 -4 -20 -2 0 -6 9 -9 20 -3 11 -1 20 4 20
5 0 9 -9 9 -20z m2005 10 c-3 -5 -10 -10 -16 -10 -5 0 -9 5 -9 10 0 6 7 10 16
10 8 0 12 -4 9 -10z m-2725 -15 c0 -8 -4 -15 -10 -15 -5 0 -7 7 -4 15 4 8 8
15 10 15 2 0 4 -7 4 -15z m2860 6 c0 -15 -15 -21 -38 -14 -32 8 -27 23 8 23
17 0 30 -4 30 -9z m-2270 -27 c0 -14 -4 -23 -9 -20 -5 4 -11 0 -14 -6 -3 -10
-8 -10 -17 -2 -9 9 -9 16 2 33 18 29 38 26 38 -5z m-480 -9 c0 -14 -3 -25 -7
-25 -5 0 -8 11 -8 25 0 14 3 25 8 25 4 0 7 -11 7 -25z m1710 -31 c0 -2 -20 -4
-45 -4 -43 0 -45 1 -45 29 l0 30 45 -26 c25 -13 45 -27 45 -29z m800 6 c0 -27
-4 -50 -9 -50 -22 0 -80 46 -81 65 0 15 3 16 12 7 18 -18 46 -14 58 8 16 30
20 25 20 -30z m760 36 c0 -16 -28 -42 -36 -33 -8 7 14 47 26 47 6 0 10 -6 10
-14z m-3819 -45 c-17 -32 -31 -25 -18 9 6 17 15 26 20 21 5 -5 4 -18 -2 -30z
m448 -19 c0 -43 -15 -100 -20 -77 -4 23 -5 111 -1 122 9 27 22 0 21 -45z
m-679 29 c0 -11 5 -23 10 -26 6 -3 10 -11 10 -18 0 -6 -12 0 -26 15 -15 14
-23 31 -20 37 11 18 26 13 26 -8z m560 15 c0 -3 -4 -8 -10 -11 -5 -3 -10 -1
-10 4 0 6 5 11 10 11 6 0 10 -2 10 -4z m165 -15 c3 -5 1 -12 -5 -16 -5 -3 -10
1 -10 9 0 18 6 21 15 7z m94 -75 c-5 -6 -9 -8 -10 -5 -10 57 1 103 12 49 4
-19 3 -39 -2 -44z m295 47 c-4 -10 -12 -60 -17 -110 -5 -51 -13 -93 -18 -93
-12 0 -11 84 1 129 5 20 12 48 15 64 3 15 10 27 16 27 7 0 8 -7 3 -17z m-329
-40 c0 -20 -6 -38 -12 -40 -14 -5 -19 58 -6 70 13 14 19 6 18 -30z m-559 0
c-10 -10 -19 5 -10 18 6 11 8 11 12 0 2 -7 1 -15 -2 -18z m-42 11 c8 -3 12
-12 9 -21 -4 -9 0 -13 10 -11 16 3 19 -6 10 -29 -6 -14 -29 -17 -36 -5 -8 12
-19 72 -14 72 3 0 12 -3 21 -6z m1299 -6 c2 -7 -1 -20 -6 -29 -7 -11 -1 -43
21 -110 55 -170 79 -352 85 -631 2 -133 2 -137 -20 -147 -14 -7 -25 -24 -31
-53 l-9 -43 -16 36 c-37 84 -49 169 -45 334 7 345 0 425 -38 425 -16 0 -41 46
-31 57 4 3 15 -1 25 -10 25 -23 42 -5 42 44 0 40 -19 63 -44 53 -9 -3 -16 -1
-16 5 0 7 -10 16 -22 20 -22 9 -22 9 7 20 17 6 41 17 55 25 32 18 37 19 43 4z
m-613 -25 c0 -13 3 -13 15 -3 13 11 15 6 15 -31 0 -34 -5 -47 -21 -57 -12 -7
-22 -12 -24 -10 -3 3 -8 91 -6 116 1 18 21 4 21 -15z m-45 -26 c0 -26 -20 -25
-23 2 -3 16 1 22 10 19 7 -3 13 -12 13 -21z m829 7 c9 -8 16 -23 16 -32 -1
-14 -5 -12 -20 7 -30 35 -26 56 4 25z m-1546 -12 c2 -7 -3 -12 -12 -12 -9 0
-16 7 -16 16 0 17 22 14 28 -4z m1214 8 c26 0 29 -2 18 -15 -9 -11 -10 -22 -2
-42 6 -16 14 -119 17 -231 4 -126 13 -224 22 -260 8 -31 18 -93 23 -137 12
-116 30 -214 50 -266 19 -47 24 -81 22 -136 -2 -27 -6 -33 -25 -33 -21 0 -26
11 -52 98 -25 81 -30 116 -31 217 -2 171 -2 172 -20 190 -15 15 -18 15 -34 0
-20 -18 -39 -110 -41 -191 -1 -48 -1 -49 -10 -14 -10 44 -38 250 -36 270 1 8
-2 83 -7 166 -5 106 -4 163 4 193 6 24 12 79 13 123 l2 79 29 -5 c16 -3 42 -6
58 -6z m-938 -16 c12 -30 6 -44 -18 -44 -36 0 -86 12 -86 20 0 4 11 5 24 3 17
-4 30 2 42 16 22 25 30 26 38 5z m397 -27 c-13 -13 -26 -3 -16 12 3 6 11 8 17
5 6 -4 6 -10 -1 -17z m-51 -3 c0 -8 -5 -12 -10 -9 -6 4 -8 11 -5 16 9 14 15
11 15 -7z m-130 -3 c0 -5 -7 -14 -15 -21 -13 -10 -15 -9 -15 9 0 12 6 21 15
21 8 0 15 -4 15 -9z m-422 -30 c19 -12 -8 -22 -38 -14 -16 4 -18 8 -8 14 17
11 29 11 46 0z m745 -11 c3 -11 1 -23 -4 -26 -5 -3 -9 6 -9 20 0 31 6 34 13 6z
m-112 -93 c-8 -8 -11 4 -11 39 0 66 14 80 18 19 2 -26 -2 -53 -7 -58z m-169
51 c-7 -7 -12 -8 -12 -2 0 6 3 14 7 17 3 4 9 5 12 2 2 -3 -1 -11 -7 -17z m358
1 c0 -5 -4 -9 -10 -9 -5 0 -10 7 -10 16 0 8 5 12 10 9 6 -3 10 -10 10 -16z
m147 -21 c-3 -7 -5 -2 -5 12 0 14 2 19 5 13 2 -7 2 -19 0 -25z m-457 12 c0 -5
-5 -10 -11 -10 -5 0 -7 5 -4 10 3 6 8 10 11 10 2 0 4 -4 4 -10z m90 6 c0 -3
-4 -8 -10 -11 -5 -3 -10 -1 -10 4 0 6 5 11 10 11 6 0 10 -2 10 -4z m-50 -30
c0 -14 4 -27 9 -30 5 -4 3 -19 -6 -36 -19 -39 -36 -28 -28 19 3 20 6 44 6 54
0 9 4 17 10 17 5 0 9 -11 9 -24z m90 -68 c0 -19 -2 -20 -10 -8 -13 19 -13 30
0 30 6 0 10 -10 10 -22z m881 -68 c11 -41 26 -108 34 -149 8 -42 19 -98 25
-126 16 -73 18 -211 5 -275 l-11 -55 -17 110 c-9 61 -18 164 -19 230 -2 115
-17 208 -37 228 -16 16 -41 -1 -40 -25 0 -13 6 -54 13 -93 12 -71 23 -475 12
-464 -17 16 -35 184 -32 289 4 118 -9 292 -25 344 -9 29 -9 29 11 11 27 -24
50 -13 50 26 0 45 7 33 31 -51z m-1019 -27 c-4 -99 -7 -112 -19 -100 -7 8 -6
153 3 179 13 43 20 11 16 -79z m-72 65 c0 -16 -3 -19 -11 -11 -6 6 -8 16 -5
22 11 17 16 13 16 -11z m260 -4 c0 -8 -4 -12 -10 -9 -5 3 -10 10 -10 16 0 5 5
9 10 9 6 0 10 -7 10 -16z m277 -21 c-3 -10 -5 -4 -5 12 0 17 2 24 5 18 2 -7 2
-21 0 -30z m-131 -62 c4 -34 14 -69 22 -77 10 -11 11 -18 3 -28 -15 -17 -7
-91 13 -121 14 -21 14 -25 2 -25 -7 0 -16 -10 -19 -22 -9 -32 -20 -14 -23 35
-3 43 -14 78 -36 110 -11 15 -10 20 4 30 17 14 15 60 -5 85 -7 9 -7 16 1 24 7
7 12 26 12 42 0 53 19 14 26 -53z m-294 34 c-2 -14 -8 -25 -13 -25 -10 0 -12
43 -3 53 13 12 21 -3 16 -28z m-151 -28 c-13 -13 -15 11 -4 40 7 16 8 15 11
-6 2 -13 -1 -28 -7 -34z m35 16 c-10 -10 -19 5 -10 18 6 11 8 11 12 0 2 -7 1
-15 -2 -18z m814 5 c0 -7 -5 -20 -10 -28 -8 -12 -10 -9 -10 13 0 15 5 27 10
27 6 0 10 -6 10 -12z m1557 -10 c-4 -14 -36 -12 -51 3 -6 5 3 9 23 9 22 0 31
-4 28 -12z m-2147 -45 c-1 -32 -4 -43 -9 -33 -8 14 -4 80 5 80 2 0 4 -21 4
-47z m122 -73 c3 -94 -2 -120 -16 -84 -10 25 -7 184 3 184 5 0 11 -45 13 -100z
m-380 6 c0 -42 4 -76 9 -76 5 0 9 5 9 12 0 22 18 -6 25 -39 5 -25 2 -36 -15
-53 -12 -12 -27 -19 -33 -17 -12 4 -13 16 -9 174 2 105 14 104 14 -1z m158
-16 c0 -45 5 -82 11 -85 6 -5 4 -11 -7 -19 -13 -10 -14 -17 -5 -34 15 -29 37
-28 36 1 0 36 20 31 26 -8 9 -54 19 -54 20 1 l1 49 9 -35 c15 -55 15 -62 -3
-73 -11 -8 -31 -7 -71 3 -55 13 -87 10 -87 -9 0 -14 54 -41 83 -41 13 0 33 -9
45 -20 21 -19 21 -27 18 -168 -3 -138 -1 -150 21 -192 31 -61 30 -88 -4 -96
-15 -4 -42 -16 -61 -27 -52 -31 -64 -12 -67 110 -3 94 -18 165 -72 331 -14 46
-15 58 -4 89 12 32 12 38 -4 49 -22 16 -11 34 21 34 18 0 24 5 24 21 0 27 24
19 28 -9 5 -31 19 -27 20 6 2 49 2 66 -4 125 -6 62 0 92 16 82 5 -3 10 -42 10
-85z m307 68 c-3 -8 -6 -5 -6 6 -1 11 2 17 5 13 3 -3 4 -12 1 -19z m-263 -32
c-12 -56 -21 -62 -29 -18 -8 47 -1 64 21 55 11 -4 13 -14 8 -37z m2096 -68 c0
-45 -3 -59 -11 -51 -10 10 -4 113 7 113 2 0 4 -28 4 -62z m760 38 c0 -2 -7 -9
-15 -16 -12 -10 -15 -10 -15 4 0 9 7 16 15 16 8 0 15 -2 15 -4z m-2980 -76 c0
-16 -4 -32 -10 -35 -6 -4 -10 10 -10 35 0 25 4 39 10 35 6 -3 10 -19 10 -35z
m140 16 c0 -3 -4 -8 -10 -11 -5 -3 -10 -1 -10 4 0 6 5 11 10 11 6 0 10 -2 10
-4z m2912 -30 c10 -15 -1 -23 -43 -31 -35 -7 -36 -6 -35 24 1 30 2 31 36 25
19 -4 38 -12 42 -18z m-2703 -88 c1 -21 -4 -28 -17 -28 -10 0 -23 -5 -29 -11
-7 -7 -24 -8 -42 -4 -33 7 -40 19 -16 29 8 3 15 1 15 -4 0 -6 5 -10 10 -10 6
0 10 9 10 20 0 11 5 20 10 20 6 0 10 -5 10 -11 0 -16 25 -5 26 12 0 8 2 32 4
54 l2 40 9 -40 c4 -22 8 -52 8 -67z m1911 76 c0 -8 -4 -14 -10 -14 -5 0 -10 9
-10 21 0 11 5 17 10 14 6 -3 10 -13 10 -21z m-140 -44 c0 -16 -4 -30 -10 -30
-11 0 -14 43 -3 53 11 12 13 8 13 -23z m980 10 c0 -5 -5 -10 -11 -10 -5 0 -7
5 -4 10 3 6 8 10 11 10 2 0 4 -4 4 -10z m-920 -35 c6 -17 14 -23 25 -19 13 5
15 2 10 -19 -4 -13 -2 -28 3 -31 5 -3 12 4 15 15 4 14 10 18 19 13 7 -5 20 -7
29 -6 16 3 39 -36 39 -65 0 -19 -47 -64 -63 -62 -7 1 -20 -1 -29 -5 -31 -14
-48 1 -48 39 0 19 -3 35 -7 35 -5 0 -8 -45 -8 -100 0 -55 -3 -100 -7 -100 -4
0 -8 39 -8 86 0 64 -4 90 -14 98 -8 6 -18 28 -21 49 -7 35 -6 37 16 35 20 -3
24 2 27 30 4 38 9 40 22 7z m493 -25 c4 -15 0 -20 -13 -20 -28 0 -34 -18 -16
-45 13 -19 23 -23 55 -20 21 1 44 6 50 9 17 11 35 -4 22 -17 -6 -6 -11 -27
-11 -47 0 -34 -2 -36 -45 -48 -48 -13 -93 -62 -117 -128 -27 -76 -108 -37
-108 53 0 35 -5 46 -34 70 -23 19 -36 40 -41 68 -4 22 -12 46 -18 54 -10 12
-8 13 13 6 43 -13 122 -17 144 -7 11 6 29 13 39 16 9 3 20 14 24 23 7 22 33
53 43 53 4 0 10 -9 13 -20z m405 -15 c2 -11 8 -24 13 -29 13 -14 11 -56 -3
-56 -6 0 -19 6 -27 14 -18 16 -61 24 -77 13 -7 -4 -17 0 -24 8 -10 12 -16 13
-26 4 -11 -9 -18 -9 -28 0 -8 6 -18 11 -22 10 -32 -6 -54 3 -54 21 0 30 20 35
137 35 99 0 108 -2 111 -20z m-298 -10 c0 -14 -4 -25 -10 -25 -5 0 -10 11 -10
25 0 14 5 25 10 25 6 0 10 -11 10 -25z m-2480 -84 c14 -10 29 -33 34 -51 12
-42 -6 -175 -28 -199 -20 -22 -20 -44 -2 -79 7 -15 16 -49 20 -76 5 -41 4 -47
-10 -42 -9 3 -24 6 -35 6 -15 0 -19 7 -19 38 0 20 -11 57 -24 82 -22 42 -24
57 -24 199 l-1 153 32 -6 c18 -3 43 -15 57 -25z m128 -196 c-3 -69 -3 -70 -32
-73 -25 -3 -28 -1 -23 20 3 13 8 46 12 73 3 28 11 82 17 120 l12 70 8 -70 c5
-38 7 -101 6 -140z m1922 170 c0 -14 -4 -25 -9 -25 -12 0 -23 29 -15 41 10 18
24 9 24 -16z m-1800 -17 c0 -5 -4 -8 -10 -8 -5 0 -10 10 -10 23 0 18 2 19 10
7 5 -8 10 -18 10 -22z m1550 -27 c0 -16 -11 -51 -24 -77 l-24 -48 3 70 c2 38
4 72 4 77 1 4 10 7 21 7 15 0 20 -7 20 -29z m30 -5 c0 -14 -4 -28 -10 -31 -6
-4 -10 7 -10 24 0 17 5 31 10 31 6 0 10 -11 10 -24z m150 -41 c0 -8 -4 -15
-10 -15 -5 0 -10 7 -10 15 0 8 5 15 10 15 6 0 10 -7 10 -15z m-44 -44 c-2 -70
-16 -76 -16 -8 0 32 4 57 8 57 5 0 8 -22 8 -49z m-276 -6 c-7 -9 -15 -13 -18
-10 -3 2 1 11 8 20 7 9 15 13 18 10 3 -2 -1 -11 -8 -20z m-1368 -76 l-8 -44
-12 59 c-16 79 -15 83 8 54 16 -21 18 -33 12 -69z m-78 19 c9 -36 7 -96 -4
-103 -6 -4 -10 13 -10 44 0 27 -3 56 -6 65 -3 9 -2 16 4 16 5 0 12 -10 16 -22z
m161 -5 c10 -33 13 -303 4 -303 -11 0 -29 74 -31 125 -4 97 2 205 11 205 5 0
12 -12 16 -27z m1784 6 c25 -23 25 -29 5 -174 -11 -85 -59 -115 -82 -50 -11
28 -10 39 2 63 8 16 22 34 30 41 23 20 20 35 -14 59 -34 26 -37 38 -13 64 21
24 44 23 72 -3z m-383 -49 c17 0 23 -8 27 -32 6 -42 3 -44 -30 -22 -15 10 -38
17 -50 15 -28 -3 -106 37 -100 52 2 7 16 11 30 9 14 -1 28 2 32 7 3 6 18 2 38
-9 18 -11 42 -20 53 -20z m-1471 -240 c3 -5 1 -10 -4 -10 -6 0 -11 5 -11 10 0
6 2 10 4 10 3 0 8 -4 11 -10z m2084 -9 c11 -7 10 -11 -7 -20 -22 -12 -39 0
-27 19 8 12 16 12 34 1z m-266 -40 c-5 -19 -39 -35 -55 -25 -18 11 -6 33 20
37 15 2 30 5 34 6 3 0 4 -8 1 -18z m-2228 -72 c6 -6 9 -60 7 -142 -3 -105 0
-138 12 -162 29 -56 16 -73 -42 -54 -20 7 -47 24 -59 38 -21 24 -22 24 -48 7
-39 -25 -55 -5 -19 23 53 42 77 99 64 154 -13 59 -12 131 3 146 13 13 64 8 82
-10z m116 -111 c-1 -106 16 -174 43 -172 26 3 13 -19 -17 -29 -37 -12 -53 -4
-72 33 -14 27 -15 47 -6 151 11 133 16 148 38 126 11 -11 15 -38 14 -109z
m1867 99 c2 -11 -3 -17 -17 -17 -23 0 -35 15 -26 31 10 15 39 6 43 -14z m167
3 c-3 -5 -10 -10 -16 -10 -5 0 -9 5 -9 10 0 6 7 10 16 10 8 0 12 -4 9 -10z
m655 -12 c0 -18 -2 -20 -9 -8 -6 8 -7 18 -5 22 9 14 14 9 14 -14z m-875 -208
c3 -5 17 -10 30 -10 20 0 61 -37 51 -47 -6 -6 -106 49 -106 58 0 12 17 11 25
-1z m-1347 -21 c-2 -6 -8 -10 -13 -10 -5 0 -11 4 -13 10 -2 6 4 11 13 11 9 0
15 -5 13 -11z m119 -51 c-3 -8 -6 -5 -6 6 -1 11 2 17 5 13 3 -3 4 -12 1 -19z"/>
<path d="M2125 2754 c-18 -14 -18 -14 2 -14 23 0 39 15 26 23 -5 3 -17 -1 -28
-9z"/>
<path d="M1990 2721 c0 -6 5 -13 10 -16 6 -3 10 1 10 9 0 9 -4 16 -10 16 -5 0
-10 -4 -10 -9z"/>
<path d="M1566 2622 c-2 -4 -1 -14 5 -22 7 -12 9 -10 9 8 0 23 -5 28 -14 14z"/>
<path d="M393 3283 c-34 -6 -65 -51 -58 -83 9 -41 -8 -72 -46 -84 -48 -16 -49
-45 -5 -112 30 -45 41 -54 66 -54 16 0 32 5 35 10 13 22 33 8 38 -27 8 -49 -3
-64 -54 -78 -24 -7 -52 -15 -61 -20 -13 -5 -18 -3 -18 9 0 8 -13 31 -30 49
-16 19 -30 39 -30 44 0 6 -11 22 -25 37 -46 50 -146 29 -137 -28 2 -12 8 -26
14 -33 6 -8 -3 -25 -29 -54 -32 -35 -38 -49 -38 -85 0 -24 -3 -44 -7 -44 -5 0
-8 -14 -8 -31 0 -16 3 -28 8 -25 4 2 18 -2 32 -9 l25 -14 -33 -11 c-24 -9 -32
-18 -32 -36 0 -15 6 -24 15 -24 9 0 15 -10 15 -26 0 -19 -4 -25 -15 -20 -10 4
-15 -1 -15 -16 0 -21 0 -21 23 -2 12 10 26 25 30 31 6 10 12 10 26 2 17 -11
21 -10 105 38 31 18 31 0 1 -46 -27 -40 -87 -77 -105 -66 -6 3 -26 1 -45 -6
-25 -9 -35 -19 -35 -34 0 -19 4 -20 63 -15 76 6 131 38 178 103 34 48 97 102
106 93 4 -3 -4 -17 -17 -31 -16 -17 -19 -25 -9 -25 8 0 38 27 68 60 71 78 94
140 92 243 l-2 77 43 0 c54 0 85 21 109 74 35 77 18 129 -51 154 -19 7 -25 17
-26 42 -1 18 -10 40 -20 50 -19 18 -98 30 -141 23z m86 -62 c14 -9 10 -35 -11
-78 -17 -35 10 -98 42 -98 21 0 25 5 25 31 0 24 4 30 17 26 36 -9 41 -29 17
-72 -12 -22 -31 -41 -41 -41 -10 -1 -24 -2 -30 -3 -7 -1 -13 7 -13 18 0 10 -7
22 -15 26 -74 37 -100 37 -100 0 0 -29 -25 -25 -39 8 -12 26 -11 29 29 64 36
32 41 42 40 75 -1 21 -2 41 -1 46 1 10 63 9 80 -2z m-309 -303 c0 -18 9 -38
25 -53 36 -32 26 -75 -16 -75 -18 0 -32 -7 -39 -20 -13 -25 -18 -25 -54 4 -24
20 -27 26 -17 45 7 11 20 21 31 21 26 0 33 15 36 74 1 28 3 53 3 55 1 2 8 -2
16 -9 8 -7 15 -26 15 -42z m250 -118 c0 -5 -6 -10 -14 -10 -7 0 -30 -13 -51
-30 -54 -43 -66 -37 -20 10 36 37 85 54 85 30z m-190 -80 c0 -5 -4 -10 -10
-10 -5 0 -10 5 -10 10 0 6 5 10 10 10 6 0 10 -4 10 -10z"/>
<path d="M3072 2968 c-14 -14 -16 -38 -3 -38 5 0 11 11 13 25 6 29 6 29 -10
13z"/>
<path d="M3165 2911 c-19 -8 -19 -8 3 -20 19 -10 22 -9 22 9 0 11 -1 20 -2 19
-2 0 -12 -4 -23 -8z"/>
<path d="M3075 2900 c3 -5 8 -10 11 -10 2 0 4 5 4 10 0 6 -5 10 -11 10 -5 0
-7 -4 -4 -10z"/>
<path d="M3413 2580 c-26 -10 -31 -38 -9 -46 20 -8 76 23 76 41 0 17 -32 19
-67 5z"/>
<path d="M4443 2554 c-10 -27 13 -36 109 -44 89 -6 128 0 128 20 0 18 -36 27
-133 33 -83 6 -99 4 -104 -9z"/>
<path d="M3305 2510 c-16 -16 -36 -30 -46 -30 -22 0 -41 -24 -34 -42 7 -18
-21 -28 -81 -28 -46 0 -83 -23 -88 -55 -2 -11 -16 -25 -33 -32 -29 -11 -31
-11 -26 7 4 14 -2 23 -21 32 -22 10 -37 9 -79 -5 -29 -9 -68 -16 -87 -15 -25
1 -55 -10 -106 -40 -54 -33 -80 -42 -115 -42 -25 0 -54 -6 -64 -14 -19 -14
-19 -14 0 -36 17 -18 26 -20 69 -15 27 4 80 23 118 43 40 20 89 36 114 38 25
2 49 6 53 9 5 3 16 -6 25 -20 12 -18 25 -25 49 -25 59 1 167 63 167 97 0 7 6
14 13 15 6 0 17 2 22 3 6 2 30 3 54 4 35 1 49 7 75 35 61 67 106 128 101 137
-12 19 -52 8 -80 -21z"/>
<path d="M598 2508 c-31 -11 -36 -29 -14 -47 27 -22 85 21 64 46 -12 15 -13
15 -50 1z"/>
<path d="M267 2439 c-42 -34 -77 -65 -77 -69 0 -13 -72 -20 -92 -9 -11 6 -37
8 -59 4 -38 -7 -39 -8 -39 -46 l0 -39 42 6 c24 4 51 11 60 15 9 5 35 9 58 9
35 0 48 7 103 58 34 31 78 69 96 83 35 26 36 49 2 49 -9 0 -52 -28 -94 -61z"/>
<path d="M740 2461 c-42 -6 -46 -10 -41 -41 0 -5 25 -10 54 -10 28 0 58 -4 66
-9 8 -5 25 -5 42 1 22 7 38 4 82 -16 55 -27 138 -35 166 -17 25 16 -5 38 -57
43 -26 3 -63 12 -82 21 -19 9 -60 18 -90 20 -30 2 -64 7 -75 9 -11 3 -40 3
-65 -1z"/>
<path d="M425 2429 c-38 -16 -87 -37 -107 -46 -36 -15 -51 -44 -29 -57 4 -3
42 8 82 26 41 17 92 37 114 45 59 22 70 29 70 44 0 25 -57 19 -130 -12z"/>
<path d="M4014 2430 c-64 -9 -144 -45 -144 -63 0 -8 7 -20 15 -27 13 -11 22
-10 53 7 20 12 64 24 97 28 68 8 95 20 95 39 0 26 -25 29 -116 16z"/>
<path d="M3747 2094 c-10 -11 -9 -72 2 -78 13 -8 24 50 14 69 -5 9 -12 12 -16
9z"/>
<path d="M4123 2076 c-31 -27 -25 -46 10 -28 12 6 34 16 50 22 15 5 27 14 27
20 0 19 -59 10 -87 -14z"/>
<path d="M4215 1830 c-7 -11 2 -97 12 -114 12 -18 22 21 16 64 -6 49 -17 68
-28 50z"/>
<path d="M4089 1714 c-48 -25 -55 -41 -31 -73 14 -20 21 -42 19 -69 -1 -33 4
-46 26 -66 15 -14 27 -30 27 -36 0 -10 57 -50 72 -50 4 0 12 9 18 20 8 15 5
25 -18 52 -28 32 -52 70 -52 83 0 3 11 3 24 -1 52 -13 51 73 -2 129 -28 30
-44 32 -83 11z"/>
<path d="M4233 1608 c4 -29 2 -35 -11 -34 -30 2 -24 -38 13 -87 36 -47 71 -74
83 -62 3 3 1 15 -6 25 -6 11 -9 26 -6 34 3 8 0 25 -8 38 -7 13 -20 43 -28 67
-19 57 -46 70 -37 19z"/>
<path d="M2910 835 c-10 -11 -10 -19 -2 -27 15 -15 44 -2 40 19 -4 23 -22 27
-38 8z"/>
<path d="M4683 834 c-36 -15 -53 -40 -53 -77 0 -32 -15 -43 -69 -50 -83 -10
-93 -54 -19 -86 l43 -18 -51 -6 c-82 -11 -120 -52 -73 -78 12 -6 54 -15 93
-19 60 -6 64 -8 24 -9 -52 -1 -78 -20 -78 -56 0 -39 39 -44 67 -9 21 27 24 28
39 12 14 -14 17 -37 16 -144 -1 -146 5 -167 51 -162 26 2 31 7 29 23 -5 27 -5
73 -2 188 l2 97 80 -6 c126 -11 189 30 144 91 -12 17 -30 20 -122 24 -88 4
-101 6 -69 12 22 4 61 8 86 8 29 1 51 7 59 16 7 8 9 15 5 15 -5 0 0 9 9 19 30
34 11 41 -105 41 -68 0 -109 4 -109 10 0 7 26 10 66 9 64 -2 93 9 80 30 -4 6
-19 11 -33 11 l-27 0 28 29 c27 28 28 29 10 56 -17 26 -52 46 -77 44 -7 0 -26
-7 -44 -15z m50 -51 c-7 -2 -21 -2 -30 0 -10 3 -4 5 12 5 17 0 24 -2 18 -5z
m-118 -113 c3 -5 -1 -10 -9 -10 -9 0 -16 5 -16 10 0 6 4 10 9 10 6 0 13 -4 16
-10z m167 -62 c-8 -8 -17 -8 -34 0 -22 10 -21 11 12 11 26 1 31 -2 22 -11z
m-169 -59 c-5 -5 -25 -6 -44 -2 l-34 7 35 6 c39 7 56 2 43 -11z m242 -59 c0
-12 -15 -15 -77 -15 -78 0 -95 5 -83 25 4 7 35 10 83 8 61 -2 77 -6 77 -18z"/>
<path d="M4730 356 c-10 -13 -9 -17 3 -22 24 -9 52 0 52 16 0 21 -39 24 -55 6z"/>
</g>
</svg>
