<?xml version="1.0" standalone="no"?>
<!DOCTYPE svg PUBLIC "-//W3C//DTD SVG 20010904//EN"
 "http://www.w3.org/TR/2001/REC-SVG-20010904/DTD/svg10.dtd">
<svg version="1.0" xmlns="http://www.w3.org/2000/svg"
 width="500.000000pt" height="878.000000pt" viewBox="0 0 500.000000 878.000000"
 preserveAspectRatio="xMidYMid meet">
<metadata>
Created by potrace 1.15, written by Peter Selinger 2001-2017
</metadata>
<g transform="translate(0.000000,878.000000) scale(0.100000,-0.100000)"
fill="#000000" stroke="none">
<path d="M2825 7688 c-49 -25 -77 -32 -160 -39 -199 -16 -308 -40 -408 -90
-44 -23 -67 -29 -90 -24 -62 12 -88 28 -123 76 -46 63 -90 99 -120 99 -54 0
-94 -43 -74 -80 10 -18 7 -21 -18 -26 -16 -3 -40 -20 -53 -37 -29 -37 -63
-122 -55 -136 4 -5 -4 -22 -17 -38 -62 -73 -63 -110 -4 -153 23 -17 52 -33 65
-37 19 -4 22 -10 18 -28 -5 -18 1 -28 22 -44 l27 -20 -20 -38 c-11 -21 -29
-39 -40 -41 -27 -5 -75 -52 -75 -73 0 -9 16 -31 36 -49 27 -24 43 -30 60 -26
60 15 70 16 83 7 13 -8 12 -14 -4 -44 -22 -41 -15 -65 23 -78 16 -5 32 -21 38
-38 10 -26 16 -28 83 -34 49 -5 77 -3 91 5 29 18 41 60 28 104 -5 20 -7 46 -4
57 3 11 -4 42 -15 68 -26 59 -22 85 11 81 109 -11 122 -15 132 -38 9 -18 8
-31 -3 -51 -7 -16 -15 -31 -17 -35 -6 -13 53 -9 67 5 11 10 13 8 8 -11 -4 -17
3 -30 25 -51 26 -24 37 -28 68 -24 32 5 40 1 61 -26 53 -68 69 -89 69 -94 0
-6 -33 -3 -70 7 -17 4 -38 0 -65 -14 -21 -11 -44 -20 -50 -20 -5 0 -29 -13
-53 -28 -40 -27 -45 -28 -103 -19 -50 8 -69 7 -114 -8 -67 -23 -126 -74 -118
-103 3 -14 -5 -34 -26 -59 -22 -27 -31 -48 -31 -75 0 -20 -9 -52 -20 -71 -22
-38 -20 -78 7 -108 11 -13 12 -25 2 -65 -7 -27 -16 -65 -20 -84 -12 -49 -93
-132 -145 -148 -58 -17 -92 -47 -104 -90 -8 -30 -17 -40 -45 -50 -73 -27 -99
-100 -45 -130 33 -18 34 -24 10 -92 -19 -53 -25 -63 -35 -59 -12 5 -11 10 11
72 19 55 12 67 -37 67 -35 0 -57 -25 -33 -38 9 -5 14 -14 10 -20 -4 -8 -21 -3
-51 13 -54 31 -74 31 -110 3 l-27 -21 -27 31 c-14 18 -37 46 -50 63 l-24 30
30 32 c46 48 54 84 31 130 -10 21 -24 36 -31 34 -12 -4 -12 -12 -1 -59 9 -40
-8 -34 -28 10 -20 42 -15 73 20 132 12 19 33 67 47 105 15 39 64 148 111 242
46 95 84 180 84 188 0 9 -11 20 -24 25 -32 12 -39 25 -21 40 26 22 83 153 86
200 4 43 3 45 -26 50 -17 3 -30 12 -30 20 -1 28 -16 40 -43 34 -110 -22 -179
-57 -270 -136 -18 -15 -41 -28 -51 -28 -24 0 -110 -30 -116 -41 -3 -4 3 -27
15 -51 13 -28 16 -44 9 -48 -6 -4 -63 -10 -127 -14 -214 -12 -263 -23 -270
-58 -4 -22 56 -147 116 -238 26 -41 57 -88 68 -105 10 -16 44 -75 75 -130 l56
-100 -43 -41 c-37 -34 -44 -46 -44 -79 0 -30 7 -44 36 -72 29 -27 34 -36 24
-48 -7 -8 -10 -29 -7 -47 3 -21 -1 -39 -10 -50 -13 -14 -12 -20 2 -48 9 -17
13 -40 10 -51 -4 -11 0 -30 9 -44 9 -13 16 -37 16 -53 0 -16 7 -35 15 -42 48
-40 -29 -320 -111 -408 -24 -25 -44 -52 -44 -58 0 -31 89 -62 200 -69 47 -3
120 -10 162 -16 67 -10 81 -9 110 6 95 51 125 64 143 65 49 0 61 56 19 89 -57
45 -157 238 -158 305 l-1 41 53 3 52 3 0 -31 c0 -21 9 -41 29 -61 41 -40 86
-39 165 4 41 23 81 36 123 41 l61 7 67 -67 c83 -83 161 -123 257 -131 57 -5
71 -3 88 12 17 15 24 16 46 7 33 -16 93 -15 124 1 14 7 28 26 34 45 13 45 26
40 26 -10 0 -28 9 -57 25 -83 14 -24 25 -56 25 -78 0 -48 20 -87 59 -112 17
-11 31 -26 31 -33 0 -7 -36 -53 -81 -102 -79 -89 -130 -152 -271 -340 -179
-238 -318 -450 -318 -486 0 -8 15 -45 34 -82 26 -52 32 -72 25 -90 -11 -30 0
-51 46 -86 26 -20 35 -35 35 -56 0 -21 11 -38 46 -69 l46 -40 -15 -73 c-9 -40
-18 -84 -20 -98 -2 -14 -11 -59 -20 -100 -8 -41 -18 -101 -22 -132 -6 -54 -34
-151 -69 -243 -8 -22 -15 -72 -16 -110 0 -39 -5 -86 -10 -105 -6 -19 -14 -86
-19 -149 -12 -152 -14 -155 -123 -109 -334 141 -549 148 -933 33 -178 -53
-233 -60 -510 -61 -307 -2 -285 -1 -285 -18 0 -21 390 -21 540 -1 109 16 300
58 405 91 28 8 100 22 160 31 105 15 117 14 250 -5 137 -20 216 -44 351 -108
28 -13 58 -24 67 -24 21 0 34 -23 17 -28 -8 -3 -25 -16 -38 -29 l-24 -24 -102
50 c-321 158 -375 160 -911 35 -356 -83 -560 -100 -692 -59 -20 6 -23 4 -23
-18 0 -32 22 -38 155 -38 179 -1 243 10 775 138 98 23 137 27 260 27 134 0
150 -2 216 -27 40 -15 107 -47 150 -70 44 -24 100 -52 126 -63 25 -10 44 -22
41 -27 -11 -18 -33 -144 -33 -190 0 -32 -5 -49 -14 -53 -8 -3 -52 12 -98 34
-155 74 -386 155 -489 171 -96 16 -154 13 -301 -13 -199 -36 -270 -46 -340
-46 -35 0 -79 -5 -98 -11 -57 -17 -270 -39 -311 -33 -31 5 -39 3 -39 -9 0 -8
7 -18 16 -21 28 -11 148 -6 219 10 39 8 142 21 230 29 88 8 217 26 285 40 135
27 255 32 342 14 80 -17 288 -90 435 -153 73 -31 141 -56 151 -56 41 0 46 -23
28 -126 -24 -144 -11 -134 -184 -135 -418 -1 -1168 -2 -1317 0 -94 1 -178 2
-187 1 -21 0 -24 -25 -5 -33 7 -2 372 -4 812 -2 440 1 806 0 813 -2 6 -3 12
-12 12 -20 0 -12 -92 -14 -707 -10 -406 3 -736 0 -773 -5 -36 -5 -89 -9 -117
-9 -46 0 -53 -3 -53 -20 0 -20 4 -20 163 -13 89 4 218 7 287 7 69 -1 354 -2
634 -3 281 -1 514 -3 518 -6 10 -7 -19 -64 -33 -64 -6 0 -24 -11 -40 -25 -17
-13 -61 -34 -98 -45 -38 -11 -85 -34 -106 -50 -21 -17 -47 -30 -59 -31 -86 -5
-155 -31 -196 -74 -29 -31 -19 -56 26 -66 57 -13 290 -9 389 7 104 16 164 14
371 -11 107 -13 144 32 139 170 -2 44 1 88 8 100 6 11 10 36 8 57 -1 32 1 37
27 43 16 3 41 1 56 -5 19 -7 117 -7 319 0 161 5 356 10 435 10 l142 0 1 -67
c0 -38 4 -77 8 -87 4 -11 4 -38 0 -60 -9 -50 3 -84 36 -96 14 -5 28 -18 32
-27 3 -10 30 -46 60 -80 57 -66 124 -109 188 -123 22 -4 65 -13 95 -20 47 -10
162 -20 263 -22 16 0 35 6 44 14 13 14 12 20 -8 59 -12 24 -47 71 -78 104 -31
33 -65 77 -75 98 -13 26 -47 58 -102 98 -49 35 -84 68 -87 81 -3 13 -13 43
-22 67 -9 24 -12 48 -7 53 11 11 682 15 912 6 96 -4 304 -10 463 -14 255 -6
287 -5 287 8 0 13 -23 17 -132 23 -73 4 -144 5 -158 4 -14 -2 -77 0 -140 4
-209 12 -580 21 -910 22 -282 0 -325 2 -325 15 0 13 40 15 290 17 160 1 532 4
828 6 296 3 540 6 542 9 7 7 -269 18 -439 18 -135 0 -259 15 -301 37 -11 6
-56 16 -100 23 -44 7 -94 18 -111 25 -65 26 -215 64 -353 90 -146 27 -244 29
-307 5 -19 -8 -26 -6 -30 5 -8 20 13 45 38 45 11 0 27 14 39 35 12 19 24 35
27 35 58 -2 203 -24 284 -44 382 -94 456 -106 638 -106 199 0 296 12 395 51
44 17 113 36 153 42 46 7 72 16 72 24 0 7 -3 13 -7 13 -34 0 -202 -36 -258
-55 -85 -28 -159 -36 -340 -36 -120 0 -160 5 -280 32 -77 17 -158 35 -180 39
-22 5 -69 18 -105 29 -95 29 -214 52 -305 60 l-80 6 1 67 c0 38 4 71 8 75 3 4
50 1 103 -5 68 -9 118 -22 172 -46 76 -34 184 -64 401 -110 228 -49 520 -44
695 12 33 11 86 25 118 32 45 10 57 17 57 32 0 11 -4 17 -9 13 -11 -6 -157
-40 -266 -61 -152 -29 -435 -15 -620 30 -33 9 -112 27 -175 42 -63 15 -144 41
-180 59 -47 23 -94 36 -163 45 -103 14 -143 37 -135 77 3 15 12 18 53 15 85
-5 215 -37 365 -90 30 -11 116 -28 190 -37 198 -25 516 -13 463 18 -4 2 -60 0
-123 -5 -193 -15 -377 10 -600 81 -69 21 -175 47 -235 57 -105 16 -135 26
-135 45 0 24 84 18 320 -25 121 -22 275 -13 415 22 66 17 145 42 175 55 71 31
160 52 287 68 134 16 215 3 356 -56 12 -5 17 -3 17 8 0 23 -86 54 -185 68
-161 21 -358 -4 -507 -64 -96 -40 -140 -52 -262 -72 -120 -20 -195 -19 -307 6
-95 21 -305 43 -320 33 -5 -2 -11 -20 -15 -39 -3 -19 -10 -32 -15 -30 -9 6
-10 34 -13 215 -1 114 -1 115 37 188 23 46 52 132 76 225 41 159 65 235 86
277 7 14 15 46 19 71 10 65 25 82 82 88 45 5 50 9 60 39 7 22 22 38 45 50 19
9 41 31 49 49 8 18 28 38 44 44 39 17 86 58 86 75 0 7 -13 40 -30 72 -33 66
-39 97 -15 88 18 -6 53 29 62 62 7 28 -15 80 -119 287 -103 204 -96 189 -158
329 -30 65 -63 132 -75 150 -31 47 -48 94 -40 113 6 16 8 15 16 -6 11 -29 30
-17 50 32 7 18 21 45 32 60 18 27 20 27 44 12 35 -24 73 -16 93 20 9 16 34 38
56 50 42 22 74 72 74 117 0 37 38 108 59 108 24 1 61 35 61 57 0 10 14 30 30
45 18 15 30 36 30 50 0 15 17 41 48 71 48 48 49 48 99 41 33 -4 59 -2 74 6 40
21 79 63 79 85 0 12 9 30 20 40 11 10 20 24 20 31 0 7 18 34 40 59 37 43 40
50 40 109 0 46 -6 75 -24 110 -13 27 -27 59 -31 73 -3 13 -40 59 -83 101 -43
42 -98 111 -122 152 -25 41 -58 88 -75 106 -38 40 -143 97 -217 118 -46 13
-58 21 -58 37 0 28 -23 69 -55 99 -14 13 -35 39 -46 57 -26 42 -240 151 -319
162 -30 4 -69 15 -86 24 l-31 16 -7 128 c-4 70 -11 156 -16 191 -12 86 -55
223 -95 302 -18 36 -36 76 -40 88 -8 27 -58 106 -89 141 -24 26 -196 116 -241
124 -22 5 -46 -2 -90 -25z m-830 -77 c52 -65 102 -101 139 -101 26 0 18 -24
-19 -60 -32 -31 -37 -32 -59 -21 -21 12 -30 11 -67 -10 -23 -13 -44 -30 -47
-36 -6 -21 27 -27 47 -9 25 22 56 22 46 -1 -20 -46 -44 -120 -45 -135 0 -10
-5 -18 -12 -18 -7 0 -22 -12 -35 -27 -21 -26 -22 -27 -23 -7 0 12 13 47 29 77
16 31 27 58 23 61 -11 11 -21 6 -34 -18 -7 -13 -23 -42 -36 -65 -30 -54 -56
-56 -46 -3 3 20 15 47 27 59 25 28 17 59 -12 43 -11 -5 -32 -25 -48 -44 -19
-24 -33 -32 -42 -27 -9 6 -10 11 -2 15 17 11 13 36 -5 36 -9 0 -29 -8 -45 -17
-36 -21 -45 -12 -29 27 16 38 72 88 108 95 59 13 82 48 41 63 -15 6 -18 11
-11 16 7 4 12 18 12 32 0 19 7 28 30 35 32 12 38 35 19 71 -9 16 -8 23 2 29
26 16 38 9 94 -60z m950 49 c55 -14 178 -85 198 -112 16 -22 22 -47 25 -115 4
-88 -3 -130 -33 -213 -15 -41 -15 -48 -1 -77 19 -40 58 -62 79 -44 8 6 17 26
21 43 7 33 20 30 23 -5 1 -12 6 -74 11 -137 5 -63 5 -122 1 -131 -5 -9 -13
-63 -18 -120 -6 -57 -15 -119 -22 -137 -6 -18 -9 -50 -5 -71 5 -33 0 -46 -39
-105 -25 -36 -45 -73 -45 -81 0 -35 33 -10 82 63 43 64 52 84 50 117 -1 22 5
72 13 110 16 84 22 182 11 212 -5 15 -1 31 10 48 14 22 16 42 11 128 -5 90 -4
98 8 72 19 -45 37 -266 30 -375 -15 -228 -131 -444 -315 -590 -42 -33 -48 -35
-141 -38 -106 -5 -101 -6 -306 79 -90 37 -112 51 -192 125 -70 64 -98 84 -128
89 -21 4 -55 13 -76 21 -20 8 -61 14 -89 14 -49 0 -50 1 -35 18 22 24 21 32
-2 32 -10 0 -22 7 -25 16 -9 24 -7 34 7 34 8 0 22 9 32 20 10 11 31 20 46 20
36 0 129 -24 160 -42 39 -22 91 -68 76 -68 -8 0 -22 9 -31 19 -37 40 -120 38
-114 -2 2 -16 11 -23 32 -25 34 -4 198 -58 236 -77 14 -7 57 -16 95 -20 39 -4
93 -16 120 -26 28 -10 82 -19 122 -21 64 -2 75 0 98 22 14 13 25 30 25 37 0 7
28 48 61 91 77 96 98 144 112 255 6 48 15 87 19 87 4 0 8 -11 8 -24 0 -27 24
-53 35 -37 3 6 7 38 7 71 1 50 -5 73 -36 135 -20 41 -50 116 -67 167 -28 89
-29 94 -14 138 25 76 22 147 -8 210 -41 86 -82 129 -155 161 -56 25 -63 31
-51 45 8 10 20 13 33 9 12 -3 35 -10 51 -15z m-115 -58 c14 -6 37 -13 53 -17
44 -9 102 -69 132 -136 23 -52 27 -71 22 -119 -4 -52 -23 -100 -38 -100 -3 0
-5 9 -5 20 1 19 -12 30 -77 62 -12 6 -24 5 -33 -3 -11 -9 -14 -7 -14 15 0 29
-20 35 -40 11 -11 -13 -14 -13 -27 0 -23 24 -50 18 -57 -11 -7 -28 -22 -23
-28 10 -1 11 -12 21 -23 22 -11 2 -38 6 -61 9 -32 6 -42 4 -47 -9 -3 -8 -2
-18 3 -21 17 -10 11 -25 -10 -25 -10 0 -28 9 -39 21 -14 16 -25 19 -43 13 -12
-4 -31 -7 -40 -5 -10 1 -18 -4 -18 -11 0 -7 -5 -20 -10 -28 -8 -13 -11 -12
-24 5 -11 15 -17 17 -28 7 -8 -6 -17 -9 -21 -6 -12 12 -57 -29 -57 -52 0 -20
-4 -23 -23 -19 -16 4 -29 -1 -46 -19 -21 -23 -23 -29 -13 -52 11 -23 10 -25
-7 -19 -11 3 -22 2 -25 -3 -6 -11 -55 -4 -73 10 -7 6 -16 2 -26 -13 -15 -21
-16 -21 -23 16 -10 54 3 149 26 194 11 22 53 70 95 108 86 78 136 99 313 132
153 29 282 34 332 13z m-1020 -127 c-14 -16 -40 -20 -40 -6 0 10 17 19 39 20
11 1 11 -2 1 -14z m917 -238 c15 -14 27 -40 30 -65 3 -24 15 -50 28 -62 24
-22 45 -20 45 5 0 14 37 31 47 22 12 -12 -10 -47 -29 -47 -15 0 -18 -4 -13
-17 4 -10 9 -34 12 -53 3 -19 12 -44 19 -55 8 -11 14 -33 14 -50 0 -45 34
-130 72 -177 18 -23 31 -49 30 -58 -3 -10 4 -8 21 9 15 14 23 29 20 38 -4 11
-1 14 8 11 22 -7 22 -42 -1 -70 -31 -41 -171 -87 -299 -99 -67 -6 -114 -6
-130 0 -15 5 -38 12 -52 15 -45 10 -44 34 3 46 26 8 42 18 46 32 3 12 23 28
49 39 24 10 46 26 50 36 4 9 22 30 40 46 18 16 33 33 33 38 0 20 -30 7 -57
-25 -30 -35 -122 -80 -146 -71 -15 7 -51 75 -42 83 2 3 14 -3 24 -12 24 -22
52 -18 66 10 6 12 24 32 40 47 17 14 27 28 23 32 -3 4 -34 -3 -67 -15 -34 -12
-65 -19 -71 -15 -5 3 -18 -3 -29 -14 -20 -20 -20 -20 -75 31 -31 29 -66 74
-81 105 -18 35 -36 58 -52 64 -24 9 -25 12 -19 61 8 60 27 87 81 118 63 37
121 48 234 45 95 -3 106 -5 128 -28z m500 -3 c7 -18 -17 -38 -31 -24 -11 11
-1 40 14 40 6 0 13 -7 17 -16z m-1308 -178 c-10 -73 -15 -86 -31 -86 -22 0
-23 18 -2 48 18 26 12 52 -11 52 -21 0 -19 9 11 54 38 55 48 36 33 -68z m65
-42 c3 -103 8 -150 21 -182 14 -35 15 -48 6 -68 -14 -31 -33 -22 -25 12 5 20
0 31 -24 52 l-31 27 22 153 c11 83 22 150 24 148 2 -2 5 -66 7 -142z m239 36
c-6 -6 -43 38 -43 52 0 5 11 -4 24 -19 13 -15 22 -30 19 -33z m-149 -137 c16
-32 14 -83 -4 -83 -13 0 -40 66 -40 98 0 16 3 51 7 78 l7 49 7 -55 c3 -30 13
-70 23 -87z m-250 75 c-24 -77 -37 -85 -40 -25 -2 32 9 47 34 47 9 0 11 -7 6
-22z m1256 -10 c22 -37 28 -137 10 -183 -9 -24 -14 -26 -38 -19 -15 4 -40 9
-57 10 -16 1 -33 3 -37 3 -5 1 -28 56 -28 68 0 2 9 1 20 -2 25 -8 38 18 20 40
-18 21 -6 45 19 38 25 -6 30 21 6 31 -26 10 -16 26 15 26 17 0 30 5 30 10 0
21 21 9 40 -22z m-1682 -198 c24 -22 32 -38 32 -63 0 -68 -47 -95 -110 -62
-40 21 -38 31 9 39 66 10 80 51 29 89 -25 19 -28 19 -52 3 -14 -9 -29 -28 -32
-42 -5 -18 -12 -24 -28 -22 -27 4 -27 27 -1 42 11 6 31 19 44 29 35 25 71 21
109 -13z m700 -16 c-2 -18 -10 -30 -20 -32 -21 -4 -23 16 -6 53 14 32 31 19
26 -21z m1332 -100 c0 -8 -7 -14 -15 -14 -15 0 -21 21 -9 33 10 9 24 -2 24
-19z m95 -4 c11 -18 -6 -91 -22 -97 -22 -9 -45 26 -38 57 11 44 44 66 60 40z
m-2455 -29 c0 -5 -11 -16 -25 -25 -24 -16 -25 -15 -25 2 0 10 3 22 7 25 9 10
43 8 43 -2z m90 -23 c0 -13 -23 -5 -28 10 -2 7 2 10 12 6 9 -3 16 -11 16 -16z
m2475 2 c25 -27 9 -45 -28 -31 -26 10 -35 30 -20 44 12 12 30 7 48 -13z m-206
-66 c25 -36 29 -49 21 -65 -18 -32 -47 -23 -69 22 -15 30 -18 47 -11 65 13 34
24 30 59 -22z m-1039 27 c0 -6 -4 -13 -10 -16 -5 -3 -10 1 -10 9 0 9 5 16 10
16 6 0 10 -4 10 -9z m-1275 -11 c3 -5 -1 -10 -9 -10 -8 0 -18 5 -21 10 -3 6 1
10 9 10 8 0 18 -4 21 -10z m205 -10 c0 -10 -14 -35 -30 -54 -25 -28 -40 -35
-83 -40 -99 -13 -206 -15 -212 -6 -4 6 11 10 34 10 44 0 59 13 41 35 -22 26 6
16 29 -11 25 -28 45 -27 49 3 2 15 9 19 28 15 17 -3 24 0 24 11 0 9 -4 19 -10
22 -24 15 -8 26 28 21 20 -4 44 -2 52 4 25 16 50 12 50 -10z m2283 -6 c8 -9
-21 -64 -34 -64 -5 0 -21 7 -35 16 -23 16 -24 18 -8 35 16 18 64 26 77 13z
m103 -15 c10 -17 -23 -46 -37 -32 -7 7 -9 19 -6 27 7 18 33 21 43 5z m-1289
-25 c-9 -9 -28 6 -21 18 4 6 10 6 17 -1 6 -6 8 -13 4 -17z m1383 10 c0 -8 -4
-12 -10 -9 -5 3 -10 10 -10 16 0 5 5 9 10 9 6 0 10 -7 10 -16z m-2862 -51 c-3
-16 -18 -18 -108 -21 -101 -3 -158 3 -147 14 9 10 107 21 185 23 65 1 73 -1
70 -16z m1542 7 c0 -5 -2 -10 -4 -10 -3 0 -8 5 -11 10 -3 6 -1 10 4 10 6 0 11
-4 11 -10z m428 -54 c4 -43 -12 -68 -41 -64 -31 4 -32 27 -3 38 22 8 25 13 19
41 -5 25 -3 31 8 27 8 -3 15 -21 17 -42z m621 25 c10 -7 6 -23 -21 -79 l-34
-71 1 67 c0 87 14 108 54 83z m-157 -38 c19 -31 19 -32 -9 -84 -20 -39 -29
-73 -33 -129 -4 -57 -9 -75 -20 -75 -8 0 -16 9 -18 20 -1 11 -15 46 -30 78
l-27 59 23 36 c13 21 33 59 45 85 24 55 42 57 69 10z m258 23 c0 -8 -4 -17 -9
-21 -12 -7 -24 12 -16 25 9 15 25 12 25 -4z m-1606 -4 c3 -5 -8 -22 -24 -37
l-30 -29 0 25 c0 37 38 66 54 41z m604 -9 c2 -8 -5 -13 -17 -13 -21 0 -35 13
-24 24 10 10 36 3 41 -11z m102 -8 c-7 -9 -15 -13 -18 -10 -3 2 1 11 8 20 7 9
15 13 18 10 3 -2 -1 -11 -8 -20z m-1416 5 c-14 -14 -82 -26 -69 -12 9 9 28 15
70 21 5 0 5 -3 -1 -9z m1516 -14 c0 -7 -7 -19 -15 -26 -12 -10 -18 -10 -30 0
-8 7 -15 18 -15 24 0 7 3 6 9 -2 6 -10 10 -10 21 3 16 19 30 20 30 1z m-1720
-7 l65 -2 -56 -7 c-61 -8 -82 -16 -74 -30 11 -17 223 2 278 25 24 10 22 1 -17
-94 -48 -118 -66 -139 -118 -143 -24 -2 -42 -7 -40 -13 2 -5 19 -9 37 -8 19 1
35 -2 35 -7 0 -6 -11 -10 -24 -10 -14 0 -28 -4 -31 -10 -3 -5 1 -10 9 -10 28
0 27 -20 -9 -95 -28 -60 -42 -79 -70 -92 -28 -13 -39 -14 -57 -4 -13 7 -39 21
-58 31 l-35 19 33 1 c22 0 32 5 32 15 0 10 -10 15 -29 15 -44 0 -47 18 -4 22
20 2 38 9 41 16 3 9 -6 12 -29 11 -57 -4 -99 1 -99 11 0 6 18 10 39 10 42 0
64 16 37 26 -9 3 -37 7 -63 8 -70 2 -70 26 1 26 43 0 56 3 56 15 0 10 -10 15
-32 15 -50 0 -108 12 -108 21 0 5 24 9 54 9 49 0 77 12 63 27 -4 3 -40 8 -82
12 -86 7 -102 26 -21 26 56 0 80 10 57 24 -7 5 -45 11 -84 15 -117 11 -105 26
20 26 80 0 114 4 122 13 15 19 4 27 -38 28 -26 1 -29 3 -11 6 60 9 70 14 70
32 0 21 23 31 55 25 11 -2 49 -4 85 -5z m2610 -4 c0 -8 -4 -15 -10 -15 -5 0
-10 7 -10 15 0 8 5 15 10 15 6 0 10 -7 10 -15z m-2812 -2 c-16 -2 -40 -2 -55
0 -16 2 -3 4 27 4 30 0 43 -2 28 -4z m1182 -13 c0 -5 -4 -10 -10 -10 -5 0 -10
5 -10 10 0 6 5 10 10 10 6 0 10 -4 10 -10z m126 -21 c56 -26 71 -44 54 -64
-19 -22 -50 -18 -72 10 -11 14 -25 25 -32 25 -21 0 -49 26 -42 38 11 18 45 14
92 -9z m1627 7 c6 -15 -1 -26 -15 -26 -4 0 -8 9 -8 20 0 23 15 27 23 6z
m-3035 -23 c-10 -2 -28 -2 -40 0 -13 2 -5 4 17 4 22 1 32 -1 23 -4z m2762 -7
c0 -8 -4 -17 -9 -20 -10 -7 -23 19 -14 28 11 11 23 6 23 -8z m-1545 -16 c-3
-5 -10 -10 -16 -10 -5 0 -9 5 -9 10 0 6 7 10 16 10 8 0 12 -4 9 -10z m1944 -1
c17 -6 31 -17 31 -25 0 -16 -26 -19 -35 -4 -3 6 -14 10 -25 10 -10 0 -20 7
-24 15 -6 18 9 19 53 4z m-559 -54 c-15 -53 -30 -68 -30 -30 0 27 30 89 38 80
3 -2 -1 -25 -8 -50z m70 21 c0 -3 -4 -8 -10 -11 -5 -3 -10 -1 -10 4 0 6 5 11
10 11 6 0 10 -2 10 -4z m595 -8 c14 -6 25 -15 25 -20 0 -4 10 -8 23 -8 13 0
33 -14 50 -36 29 -35 29 -35 13 -82 -15 -45 -15 -48 4 -64 23 -19 24 -28 9
-80 -9 -35 -39 -55 -39 -27 0 8 -4 8 -12 1 -16 -12 -52 -12 -135 0 -55 9 -63
13 -63 32 0 29 32 116 43 116 4 0 5 -4 2 -10 -3 -5 1 -10 9 -10 8 0 17 4 21 9
3 6 18 6 38 -1 45 -15 58 -28 52 -49 -3 -11 -8 -29 -11 -41 -6 -20 -5 -21 9
-9 9 7 14 17 11 22 -5 8 6 50 27 106 11 29 -8 41 -25 17 -18 -23 -39 -9 -32
22 4 13 2 24 -3 24 -5 0 -11 -9 -14 -21 -10 -36 -32 -16 -29 26 2 24 -3 44
-13 55 -16 18 -13 40 5 40 5 0 21 -5 35 -12z m-2118 -35 c-16 -16 -17 -16 -17
3 0 26 11 37 24 24 7 -7 5 -16 -7 -27z m447 -14 c25 -22 46 -44 46 -49 0 -15
-41 -19 -47 -4 -3 9 -13 12 -29 8 -18 -5 -24 -2 -24 9 0 9 -9 19 -20 22 -21 7
-24 14 -14 39 10 26 39 18 88 -25z m1270 -10 c22 19 42 -14 28 -44 -15 -32
-32 -32 -32 0 0 19 -4 23 -17 18 -13 -5 -15 -2 -10 11 4 10 8 30 9 44 1 23 2
21 5 -6 3 -26 7 -31 17 -23z m-142 9 c-15 -15 -26 -4 -18 18 5 13 9 15 18 6 9
-9 9 -15 0 -24z m390 17 c0 -5 -5 -11 -11 -13 -6 -2 -11 4 -11 13 0 9 5 15 11
13 6 -2 11 -8 11 -13z m-1792 -16 c0 -5 -4 -9 -10 -9 -5 0 -10 7 -10 16 0 8 5
12 10 9 6 -3 10 -10 10 -16z m128 -16 c-2 -20 -8 -38 -14 -40 -9 -3 -12 45 -5
75 1 1 6 2 12 2 6 0 9 -16 7 -37z m970 -18 c15 -47 12 -101 -5 -97 -8 1 -13
-9 -13 -29 0 -21 -4 -29 -12 -25 -7 3 -21 9 -30 12 -49 17 -19 190 32 181 8
-1 21 -20 28 -42z m748 21 c3 -22 -5 -46 -16 -46 -9 0 -20 52 -13 63 8 13 26
2 29 -17z m-1680 -8 c-3 -13 -6 -29 -6 -35 0 -7 -4 -13 -10 -13 -5 0 -10 16
-10 35 0 26 4 35 16 35 12 0 15 -6 10 -22z m1506 -18 c-6 -11 -12 -33 -12 -49
0 -35 -9 -61 -21 -61 -14 0 -10 52 6 84 8 15 15 38 15 49 0 17 3 18 12 9 10
-10 10 -17 0 -32z m-1706 -27 c76 -85 133 -220 105 -248 -5 -6 -11 -23 -13
-40 -2 -18 -9 -30 -18 -30 -21 0 -24 32 -6 60 18 28 21 65 5 65 -7 0 -9 10 -5
25 4 14 2 25 -3 25 -5 0 -13 -15 -16 -32 -4 -18 -10 -37 -14 -43 -16 -22 -33
-93 -27 -112 5 -15 1 -22 -15 -26 -30 -8 -15 -25 17 -19 15 3 29 13 32 24 2
10 10 17 16 15 17 -6 19 -37 3 -55 -7 -9 -14 -35 -14 -56 -1 -27 2 -35 8 -25
5 8 9 22 9 31 0 18 18 34 27 24 3 -3 2 -13 -3 -23 -8 -18 -11 -29 -13 -50 0
-6 -11 -13 -23 -15 -13 -2 -29 -15 -36 -30 -14 -30 -28 -36 -34 -16 -5 15 -28
1 -28 -18 0 -8 6 -14 14 -14 22 0 27 -16 15 -44 -14 -30 -27 -33 -36 -8 -4 9
-12 22 -19 27 -6 6 -14 23 -17 38 -4 25 0 30 42 52 37 18 50 31 58 59 6 20 9
36 6 36 -3 0 -32 -14 -65 -30 l-60 -31 7 33 c8 40 32 120 50 168 7 19 16 54
20 77 5 30 16 50 37 68 26 22 29 29 20 48 -6 12 -12 29 -15 37 -2 9 -11 -1
-21 -25 -15 -35 -18 -38 -28 -22 -5 10 -8 27 -5 38 4 16 2 19 -15 13 -22 -7
-22 0 -2 65 5 18 4 23 -7 19 -8 -3 -18 -18 -23 -34 -5 -16 -12 -38 -16 -49 -5
-11 -14 -42 -21 -70 -7 -27 -23 -73 -35 -101 -23 -53 -41 -124 -30 -124 9 0
36 58 36 78 0 11 6 25 14 31 7 6 19 38 27 70 13 61 34 100 46 88 4 -4 2 -22
-5 -40 -6 -17 -12 -48 -13 -67 -2 -19 -9 -43 -17 -53 -8 -9 -18 -34 -21 -55
-5 -30 -13 -41 -44 -57 -28 -15 -42 -33 -59 -72 -12 -29 -28 -53 -36 -53 -10
0 -13 7 -9 21 4 15 2 19 -9 15 -25 -9 -15 19 16 46 17 14 30 32 30 39 0 8 -5
8 -17 -3 -10 -9 -27 -18 -38 -20 -14 -2 -21 -13 -23 -33 -6 -54 -83 -111 -98
-72 -6 17 23 87 37 87 6 0 8 -9 4 -21 -5 -15 -3 -20 6 -17 6 2 22 37 34 77 17
60 27 76 50 89 16 8 37 24 48 36 l18 21 -5 -25 c-2 -14 -8 -35 -11 -47 -4 -13
-3 -23 2 -23 14 0 32 43 39 93 4 23 17 65 30 94 12 28 20 54 17 57 -3 3 5 30
18 61 22 54 25 56 54 51 18 -4 46 -24 71 -53z m1336 -8 c-9 -43 -20 -51 -45
-32 -22 15 -13 49 12 45 9 -2 20 7 26 20 13 30 17 14 7 -33z m317 31 c8 -10 9
-16 1 -21 -5 -3 -10 -15 -10 -25 0 -19 -17 -36 -26 -27 -7 7 8 87 16 87 4 0
13 -6 19 -14z m281 -12 c0 -8 -7 -14 -15 -14 -8 0 -15 9 -15 20 0 13 5 18 15
14 8 -4 15 -12 15 -20z m200 -50 c0 -8 -7 -14 -15 -14 -15 0 -21 21 -9 33 10
9 24 -2 24 -19z m-349 -10 c12 -32 3 -64 -18 -64 -15 0 -15 12 2 53 4 10 3 17
-3 17 -6 0 -13 -9 -17 -19 -3 -11 -12 -25 -20 -31 -23 -19 -31 15 -11 45 22
33 54 32 67 -1z m-751 6 c0 -5 -4 -10 -10 -10 -5 0 -10 5 -10 10 0 6 5 10 10
10 6 0 10 -4 10 -10z m420 -5 c0 -8 -4 -15 -10 -15 -5 0 -10 7 -10 15 0 8 5
15 10 15 6 0 10 -7 10 -15z m-1180 -5 c0 -5 -2 -10 -4 -10 -3 0 -8 5 -11 10
-3 6 -1 10 4 10 6 0 11 -4 11 -10z m258 -2 c-2 -6 -10 -14 -16 -16 -7 -2 -10
2 -6 12 7 18 28 22 22 4z m1002 -13 c0 -14 -4 -25 -10 -25 -5 0 -10 11 -10 25
0 14 5 25 10 25 6 0 10 -11 10 -25z m325 15 c4 -6 1 -27 -6 -48 -7 -20 -13
-45 -14 -54 -2 -25 -11 -32 -31 -24 -13 5 -15 14 -9 43 13 68 43 110 60 83z
m-1224 -25 c34 -18 30 -35 -10 -35 -29 0 -51 16 -51 37 0 17 24 16 61 -2z
m633 9 c40 -15 -8 -49 -55 -39 -35 8 -34 26 2 36 34 10 35 10 53 3z m-295 -13
c12 -8 13 -12 1 -25 -12 -15 -14 -15 -31 0 -11 10 -19 21 -19 26 0 11 31 10
49 -1z m-237 -43 c-15 -15 -26 -4 -18 18 5 13 9 15 18 6 9 -9 9 -15 0 -24z
m832 -10 c-3 -24 -10 -56 -15 -72 -12 -38 -1 -79 19 -71 12 4 13 -1 8 -27 -5
-26 -1 -39 22 -67 29 -37 45 -78 34 -85 -4 -2 -17 0 -29 5 -16 6 -23 17 -23
34 0 14 -4 33 -9 43 -33 67 -49 148 -38 192 4 19 11 47 14 63 9 44 24 31 17
-15z m-1254 15 c0 -10 10 -47 21 -83 27 -83 41 -210 26 -229 -9 -10 -7 -16 6
-26 10 -7 20 -32 23 -61 4 -27 11 -57 16 -66 15 -31 -6 -20 -36 18 -16 20 -43
42 -61 50 l-32 13 -8 113 c-5 62 -9 140 -9 173 -1 33 -7 70 -13 82 -19 31 -17
33 27 33 31 0 40 -4 40 -17z m580 -3 c11 -11 20 -33 20 -51 0 -44 15 -66 60
-89 l40 -20 1 -138 c2 -183 0 -204 -21 -227 -11 -11 -28 -41 -39 -66 -28 -63
-40 -72 -80 -58 -18 6 -52 9 -76 6 -25 -4 -47 -2 -50 3 -12 19 18 85 61 139
55 66 60 88 40 148 -22 65 -21 71 21 109 28 26 34 37 26 45 -9 9 -28 6 -75
-11 -35 -13 -70 -29 -79 -37 -8 -7 -20 -13 -25 -13 -11 0 -72 72 -76 90 -2 6
18 19 44 30 76 29 168 106 168 141 0 25 15 24 40 -1z m528 -8 c2 -14 -2 -22
-12 -22 -19 0 -29 17 -22 36 8 22 30 12 34 -14z m-627 -25 c-17 -17 -24 -1
-10 25 12 21 14 21 17 4 2 -10 -1 -23 -7 -29z m1362 4 c-1 -33 -18 -61 -36
-61 -9 0 -2 73 9 92 12 19 29 0 27 -31z m-963 14 c15 -18 7 -53 -21 -88 -22
-29 -48 -34 -67 -15 -9 9 -5 17 14 35 18 16 23 29 19 43 -3 11 -3 24 0 30 9
15 41 12 55 -5z m113 9 c3 -3 3 -13 0 -21 -5 -12 -7 -12 -14 -1 -15 23 -4 40
14 22z m203 -41 c-11 -11 -17 4 -9 23 7 18 8 18 11 1 2 -10 1 -21 -2 -24z
m-1558 -8 c-11 -25 -28 -34 -28 -14 0 6 5 19 11 30 15 28 31 13 17 -16z m2276
4 c21 -24 24 -34 15 -45 -13 -16 -29 -9 -29 14 0 14 -2 13 -13 -3 -22 -29 -36
-11 -23 30 6 19 14 35 18 35 3 0 18 -14 32 -31z m-980 -164 c-13 -163 -32
-257 -33 -166 -1 55 19 320 26 341 4 13 5 13 12 0 5 -8 2 -87 -5 -175z m416
181 c0 -3 -4 -8 -10 -11 -5 -3 -10 -1 -10 4 0 6 5 11 10 11 6 0 10 -2 10 -4z
m-73 -58 c-3 -8 -6 -5 -6 6 -1 11 2 17 5 13 3 -3 4 -12 1 -19z m-537 -6 c22
-17 23 -28 26 -143 3 -165 -6 -331 -19 -326 -6 2 -9 77 -8 209 2 197 1 208
-18 227 -21 21 -28 51 -12 51 5 0 19 -8 31 -18z m645 -40 c-8 -26 -15 -57 -15
-69 0 -13 -4 -23 -9 -23 -15 0 -11 103 5 128 24 36 34 16 19 -36z m49 22 c5
-22 3 -41 -4 -49 -7 -8 -10 -20 -7 -27 6 -17 -10 -48 -25 -48 -6 0 -8 9 -3 23
7 24 16 79 18 115 3 34 14 26 21 -14z m-99 4 c-4 -13 -6 -36 -6 -51 1 -19 -3
-27 -11 -25 -28 9 -20 98 8 98 12 0 15 -6 9 -22z m157 -58 c-2 -36 -10 -75
-18 -87 -8 -12 -14 -32 -14 -43 0 -12 -7 -50 -16 -85 -33 -131 -50 -47 -19 90
7 33 16 78 20 100 13 86 16 96 33 93 14 -3 16 -14 14 -68z m-442 46 c0 -8 -4
-18 -10 -21 -5 -3 -10 3 -10 14 0 12 5 21 10 21 6 0 10 -6 10 -14z m529 5 c21
-6 22 -8 8 -19 -13 -11 -17 -10 -25 4 -7 13 -11 9 -17 -22 -7 -40 -21 -64 -36
-64 -14 0 -11 38 6 69 8 16 11 31 8 35 -8 8 24 6 56 -3z m-1969 -11 c0 -5 -5
-10 -11 -10 -5 0 -7 5 -4 10 3 6 8 10 11 10 2 0 4 -4 4 -10z m2129 0 c28 0 32
-3 26 -17 -4 -10 -7 -26 -7 -35 0 -10 -3 -20 -9 -23 -5 -4 -9 -16 -8 -28 l0
-22 16 23 c24 35 36 27 28 -20 -7 -45 -29 -78 -50 -78 -7 0 -18 -13 -25 -30
-13 -31 -20 -35 -88 -45 -40 -7 -47 -4 -77 25 -25 24 -32 38 -26 49 5 9 6 21
4 28 -2 6 3 23 12 36 8 13 13 31 10 39 -4 9 2 24 12 33 17 17 18 17 21 1 2 -9
-1 -23 -7 -30 -6 -8 -8 -21 -5 -30 4 -10 -1 -25 -10 -35 -13 -14 -15 -26 -8
-57 l9 -39 11 40 c6 22 14 59 18 83 4 23 11 45 15 48 5 3 9 20 9 38 0 44 17
59 60 52 19 -3 50 -6 69 -6z m233 -22 c-15 -15 -26 -4 -18 18 5 13 9 15 18 6
9 -9 9 -15 0 -24z m-1802 7 c7 -8 29 -15 49 -15 56 0 61 -8 44 -60 -22 -66
-34 -76 -73 -60 -27 11 -34 11 -47 -3 -14 -14 -12 -17 27 -37 39 -20 42 -24
36 -53 -4 -20 0 -43 9 -61 18 -34 14 -42 -13 -27 -22 12 -35 51 -26 76 4 10
-4 28 -24 48 -42 44 -48 70 -19 82 23 11 24 15 13 83 -6 43 2 53 24 27z m1638
-7 c-6 -18 -28 -21 -28 -4 0 9 7 16 16 16 9 0 14 -5 12 -12z m-2001 -30 c-3
-7 -5 -2 -5 12 0 14 2 19 5 13 2 -7 2 -19 0 -25z m1059 10 c-3 -13 -9 -113
-12 -223 -7 -186 -11 -214 -35 -215 -9 0 -10 17 -11 239 -1 178 0 195 17 207
29 22 48 18 41 -8z m-2360 -27 c-14 -15 -26 -37 -26 -50 0 -28 -24 -23 -28 6
-4 24 52 88 69 78 7 -5 2 -17 -15 -34z m834 19 c0 -5 -5 -10 -11 -10 -5 0 -7
5 -4 10 3 6 8 10 11 10 2 0 4 -4 4 -10z m1740 6 c0 -3 -4 -8 -10 -11 -5 -3
-10 -1 -10 4 0 6 5 11 10 11 6 0 10 -2 10 -4z m884 -27 c-3 -5 -10 -7 -15 -3
-5 3 -7 10 -3 15 3 5 10 7 15 3 5 -3 7 -10 3 -15z m34 -30 c1 -27 -3 -39 -11
-36 -7 2 -12 9 -11 15 1 7 2 23 3 37 2 41 19 28 19 -16z m-3288 11 c11 -21 4
-66 -12 -76 -5 -3 -6 5 -3 18 3 13 1 36 -4 51 -12 32 3 37 19 7z m3180 -36 c0
-67 -27 -115 -60 -107 -14 4 -20 0 -20 -10 0 -21 -19 -32 -32 -19 -15 15 7 50
34 54 14 2 24 13 29 32 l8 28 -24 -22 c-33 -31 -40 -21 -25 39 13 53 36 68 43
29 3 -22 4 -22 15 5 19 44 32 32 32 -29z m-2605 36 c3 -5 1 -10 -4 -10 -6 0
-11 5 -11 10 0 6 2 10 4 10 3 0 8 -4 11 -10z m525 -10 c0 -11 -7 -20 -15 -20
-8 0 -15 9 -15 20 0 11 7 20 15 20 8 0 15 -9 15 -20z m96 5 c11 -27 -2 -37
-14 -11 -7 16 -8 26 -1 26 5 0 12 -7 15 -15z m-1323 -40 c14 -46 14 -46 -6
-32 -29 19 -41 41 -34 61 11 28 24 18 40 -29z m2607 -23 c0 -13 10 -37 21 -54
22 -31 18 -44 -15 -50 -16 -2 -20 4 -22 32 -2 19 -4 42 -5 50 -1 8 -1 29 0 45
1 23 3 27 11 15 5 -8 10 -26 10 -38z m897 -6 c-11 -27 -27 -17 -27 16 0 30 1
31 16 16 9 -9 14 -24 11 -32z m-1720 -12 c31 -34 43 -54 43 -77 0 -29 0 -30
-20 -12 -11 10 -20 25 -21 34 0 10 -2 12 -6 4 -7 -19 -23 -16 -24 5 -1 16 -2
16 -6 0 -2 -10 -10 -18 -17 -18 -7 0 -21 -9 -31 -20 -11 -12 -22 -17 -27 -12
-13 13 13 64 29 58 11 -5 12 2 7 29 -13 69 13 72 73 9z m-883 -90 c-9 -24 -21
-44 -25 -44 -11 0 0 88 14 115 6 11 12 25 13 30 4 30 8 25 11 -13 3 -25 -3
-61 -13 -88z m346 114 c0 -7 3 -23 6 -35 5 -17 2 -23 -9 -23 -8 0 -18 -8 -21
-17 -5 -12 -10 -13 -18 -5 -9 9 -7 16 5 30 9 10 17 28 17 40 0 12 5 22 10 22
6 0 10 -6 10 -12z m645 -8 c-4 -11 1 -43 10 -71 14 -41 15 -55 5 -80 -17 -40
-29 -36 -27 9 3 86 -3 132 -18 132 -21 0 -19 18 3 23 31 8 33 7 27 -13z m1035
-14 c0 -35 -15 -55 -29 -40 -10 11 6 74 19 74 6 0 10 -15 10 -34z m412 12 c-7
-7 -12 -8 -12 -2 0 14 12 26 19 19 2 -3 -1 -11 -7 -17z m-870 -13 c0 -5 -5
-11 -11 -13 -6 -2 -11 4 -11 13 0 9 5 15 11 13 6 -2 11 -8 11 -13z m924 -17
c-3 -13 -9 -40 -12 -60 -6 -38 -29 -67 -41 -54 -4 3 -1 21 5 39 7 19 12 42 12
53 0 21 17 44 33 44 5 0 7 -10 3 -22z m-2763 6 c3 -3 2 -14 -3 -23 -5 -9 -11
-24 -14 -33 -10 -33 -28 -20 -21 15 10 46 21 58 38 41z m43 -10 c-3 -9 -6 -20
-6 -25 0 -5 -4 -9 -10 -9 -11 0 -14 33 -3 43 12 13 25 7 19 -9z m657 -104 c5
-81 3 -95 -16 -128 -53 -92 -85 -51 -48 62 25 76 26 88 6 62 -24 -32 -28 -11
-9 41 38 103 59 91 67 -37z m2011 73 c-4 -16 -11 -36 -16 -46 -5 -10 -7 -26
-3 -36 8 -25 -23 -51 -36 -30 -5 8 -7 20 -4 27 2 7 -4 12 -15 12 -29 0 -25 29
5 40 14 5 25 15 25 23 0 17 20 37 37 37 10 0 11 -8 7 -27z m-2254 3 c0 -16
-18 -31 -27 -22 -8 8 5 36 17 36 5 0 10 -6 10 -14z m1321 -38 c6 -24 20 -63
30 -88 17 -40 19 -62 15 -187 -6 -159 -15 -185 -59 -181 l-28 3 -3 100 c-2 58
1 106 7 113 8 9 7 19 0 31 -7 11 -8 54 -2 131 9 135 7 120 19 120 5 0 14 -19
21 -42z m759 22 c0 -5 -4 -10 -10 -10 -5 0 -10 5 -10 10 0 6 5 10 10 10 6 0
10 -4 10 -10z m-2132 -12 c-6 -18 -28 -21 -28 -4 0 9 7 16 16 16 9 0 14 -5 12
-12z m-865 -30 c26 -34 15 -49 -16 -21 -12 12 -38 28 -57 37 l-35 15 44 -2
c35 -2 48 -8 64 -29z m-198 12 c4 -6 -7 -10 -25 -10 -18 0 -29 4 -25 10 3 6
15 10 25 10 10 0 22 -4 25 -10z m2921 -22 c-3 -13 -6 -29 -6 -35 0 -7 -7 -13
-15 -13 -18 0 -19 9 -5 44 12 32 35 35 26 4z m554 -30 c0 -27 -57 -98 -79 -98
-21 0 -11 25 21 53 21 18 25 24 11 18 -38 -19 -38 18 -1 66 16 19 48 -7 48
-39z m-2286 33 c3 -5 -1 -23 -10 -40 -9 -18 -13 -38 -11 -46 3 -7 -1 -16 -9
-19 -8 -3 -14 -14 -14 -24 0 -24 -26 -59 -36 -49 -13 12 50 187 67 187 4 0 10
-4 13 -9z m1851 -31 c20 0 35 -7 43 -20 7 -12 17 -18 23 -14 6 3 22 3 35 0 19
-5 23 -10 15 -19 -13 -16 9 -86 31 -98 22 -12 9 -83 -16 -87 -17 -4 -18 0 -12
39 7 42 6 43 -9 21 -21 -29 -38 -18 -30 19 4 18 3 29 -4 29 -6 0 -11 -15 -11
-33 0 -18 -9 -49 -20 -70 -13 -24 -18 -46 -14 -62 5 -19 2 -25 -10 -25 -13 0
-15 9 -9 63 3 34 10 70 14 79 12 22 11 48 0 48 -5 0 -11 -15 -15 -32 -3 -18
-8 -44 -10 -58 -18 -97 -23 -117 -31 -130 -5 -8 -9 -24 -10 -35 0 -11 -7 -21
-17 -23 -18 -3 -18 22 0 155 7 58 7 61 -10 47 -25 -23 -43 -8 -24 21 8 12 17
57 20 101 l6 79 -16 -55 c-8 -30 -19 -59 -24 -64 -4 -4 -6 -22 -4 -40 5 -36
-5 -56 -32 -60 -10 -2 -21 -11 -22 -22 -3 -15 -1 -17 9 -6 24 22 30 13 23 -34
-5 -34 -4 -45 5 -40 6 4 11 17 11 30 0 23 32 61 42 50 6 -6 -27 -142 -37 -152
-4 -4 -12 1 -19 10 -15 20 -26 14 -26 -15 0 -11 -5 -17 -12 -14 -7 2 -12 10
-10 16 4 18 -23 13 -52 -10 -34 -27 -41 -20 -26 25 7 22 16 33 24 30 10 -4 17
13 25 62 7 37 19 81 28 98 14 27 17 28 23 12 8 -24 26 32 40 122 12 82 22 95
58 76 15 -8 41 -14 57 -14z m-2304 10 c12 -7 19 -21 19 -39 0 -25 -36 -150
-46 -160 -2 -3 -11 4 -18 15 -14 18 -15 18 -34 0 -12 -10 -25 -15 -30 -12 -11
7 18 130 35 147 18 18 29 -16 14 -47 -6 -14 -11 -31 -11 -39 0 -25 20 -17 31
13 7 15 16 37 21 48 11 23 2 64 -16 76 -18 12 12 10 35 -2z m727 -29 c18 -22
32 -50 32 -62 0 -12 5 -39 11 -60 9 -30 9 -42 -1 -54 -20 -24 -30 -8 -32 48
-1 50 -2 51 -5 10 -2 -24 -8 -43 -12 -43 -9 0 -21 49 -21 87 0 14 -7 37 -16
53 -16 27 -14 60 4 60 5 0 23 -18 40 -39z m1117 29 c11 -17 -5 -32 -21 -19 -7
6 -11 15 -8 20 7 12 21 11 29 -1z m-1325 -14 c0 -8 -4 -17 -9 -21 -12 -7 -24
12 -16 25 9 15 25 12 25 -4z m553 -1 c4 -8 2 -17 -3 -20 -6 -4 -10 3 -10 14 0
25 6 27 13 6z m867 0 c0 -8 -9 -15 -20 -15 -20 0 -26 11 -13 23 12 13 33 7 33
-8z m-822 -6 c-2 -6 -8 -10 -13 -10 -5 0 -11 4 -13 10 -2 6 4 11 13 11 9 0 15
-5 13 -11z m950 -6 c9 -10 28 -25 41 -34 l24 -15 -26 -45 c-15 -25 -27 -53
-27 -61 0 -8 -9 -27 -21 -42 -15 -19 -19 -34 -15 -52 5 -19 0 -33 -19 -55 -14
-17 -25 -34 -25 -39 0 -4 -16 -20 -35 -34 l-35 -27 -11 25 c-9 20 -8 44 6 113
15 80 21 93 66 144 42 48 49 63 49 98 0 46 3 48 28 24z m-2158 2 c0 -4 -8 -20
-17 -38 -13 -24 -18 -28 -21 -15 -4 20 14 58 28 58 6 0 10 -2 10 -5z m-612
-20 c-2 -5 -12 -9 -23 -8 -90 9 -115 26 -32 21 32 -2 56 -7 55 -13z m126 -123
c4 -7 16 -59 26 -116 20 -109 71 -235 130 -320 17 -26 28 -51 25 -56 -10 -17
-32 -11 -38 10 -7 25 -38 26 -68 1 -22 -18 -23 -20 -6 -27 14 -5 16 -9 6 -15
-18 -11 -39 9 -39 36 0 14 7 25 20 28 29 7 25 25 -7 29 -20 2 -29 10 -35 33
-16 61 -40 234 -47 353 -5 68 -13 128 -19 134 -9 9 -7 17 6 31 16 18 17 17 27
-45 6 -35 14 -69 19 -76z m368 106 c-8 -8 -9 -4 -5 13 4 13 8 18 11 10 2 -7
-1 -18 -6 -23z m298 18 c0 -8 -4 -17 -9 -21 -5 -3 -9 -19 -9 -36 1 -16 -4 -35
-10 -41 -7 -7 -12 -20 -12 -30 0 -10 -7 -18 -15 -18 -20 0 -20 50 0 76 8 10
15 28 15 40 0 20 17 44 32 44 4 0 8 -6 8 -14z m900 -1 c25 -13 42 -45 24 -45
-14 0 -45 22 -54 40 -13 24 -8 25 30 5z m1000 0 c0 -8 -4 -15 -10 -15 -5 0
-10 7 -10 15 0 8 5 15 10 15 6 0 10 -7 10 -15z m-2475 -12 c3 -10 21 -35 41
-56 32 -34 36 -36 51 -22 14 14 17 14 32 0 24 -21 34 -19 28 5 -3 11 -2 22 3
25 14 9 30 -21 36 -67 7 -49 -8 -72 -25 -39 -8 14 -20 19 -43 18 -30 -2 -33
-5 -33 -32 0 -21 -5 -31 -19 -33 -15 -3 -18 0 -13 19 4 16 -3 33 -23 60 -17
20 -30 42 -30 48 0 6 -4 11 -10 11 -10 0 -30 60 -23 73 7 13 21 8 28 -10z
m632 1 c3 -8 1 -20 -6 -27 -6 -6 -11 -21 -11 -33 0 -25 -25 -50 -34 -35 -8 13
23 111 35 111 6 0 12 -7 16 -16z m720 -99 c4 -112 -2 -135 -38 -135 -12 0 -19
7 -19 20 0 17 -4 19 -26 14 -19 -5 -25 -4 -20 5 4 6 13 11 20 11 25 0 46 47
46 105 0 53 15 103 27 91 3 -3 7 -53 10 -111z m-652 95 c3 -5 -1 -10 -9 -10
-9 0 -16 5 -16 10 0 6 4 10 9 10 6 0 13 -4 16 -10z m935 -10 c0 -5 -7 -10 -16
-10 -8 0 -12 5 -9 10 3 6 10 10 16 10 5 0 9 -4 9 -10z m-59 -33 c-1 -12 -15
-9 -19 4 -3 6 1 10 8 8 6 -3 11 -8 11 -12z m854 3 c3 -5 -1 -10 -9 -10 -9 0
-16 5 -16 10 0 6 4 10 9 10 6 0 13 -4 16 -10z m-1677 -30 c4 -21 2 -22 -12 -7
-19 19 -21 40 -3 35 6 -3 14 -15 15 -28z m-403 -29 c-17 -35 -40 -33 -29 2 10
33 26 49 36 39 6 -6 3 -22 -7 -41z m-415 29 c0 -5 -5 -10 -11 -10 -5 0 -7 5
-4 10 3 6 8 10 11 10 2 0 4 -4 4 -10z m744 -21 c-8 -14 -34 -11 -34 4 0 8 3
17 7 20 9 9 34 -13 27 -24z m290 15 c5 -14 4 -15 -9 -4 -17 14 -19 20 -6 20 5
0 12 -7 15 -16z m515 7 c25 -16 39 -63 29 -98 -5 -20 -5 -40 1 -51 6 -10 7
-29 4 -41 -3 -12 0 -64 6 -114 19 -142 19 -144 11 -157 -4 -6 -18 -10 -31 -8
-22 3 -25 9 -36 103 -7 55 -19 152 -28 215 -20 154 -20 160 8 160 12 0 28 -4
36 -9z m805 -108 c-8 -126 -20 -139 -17 -20 2 122 2 117 13 117 7 0 9 -32 4
-97z m-1159 60 c12 -43 5 -95 -17 -131 -16 -26 -24 -31 -42 -26 -29 9 -31 13
-18 26 7 7 12 20 12 30 0 25 40 128 50 128 4 0 11 -12 15 -27z m791 9 c29 -24
44 -55 35 -70 -5 -9 -11 -4 -20 14 -9 20 -15 24 -23 16 -19 -19 -24 -14 -25
23 -1 40 3 42 33 17z m1171 -8 c-9 -9 -28 6 -21 18 4 6 10 6 17 -1 6 -6 8 -13
4 -17z m-705 -7 c-8 -10 -18 -37 -21 -60 -4 -30 -11 -43 -25 -45 -17 -4 -18 1
-11 55 4 32 8 60 10 63 2 3 17 5 33 5 29 0 30 -1 14 -18z m-1485 -9 c-3 -8 -6
-5 -6 6 -1 11 2 17 5 13 3 -3 4 -12 1 -19z m70 0 c-3 -8 -6 -5 -6 6 -1 11 2
17 5 13 3 -3 4 -12 1 -19z m889 -50 c-9 -5 -16 -18 -16 -28 0 -22 -16 -27 -23
-7 -6 17 12 49 24 42 5 -4 9 5 9 18 0 35 14 44 18 11 2 -17 -2 -31 -12 -36z
m208 16 c-17 -25 -34 -32 -34 -12 0 16 31 49 41 42 5 -3 2 -16 -7 -30z m-1350
4 c3 -13 6 -27 6 -33 -1 -15 -30 27 -30 42 0 22 17 15 24 -9z m-722 -10 c-7
-7 -12 -8 -12 -2 0 14 12 26 19 19 2 -3 -1 -11 -7 -17z m138 12 c0 -5 -4 -10
-10 -10 -5 0 -10 5 -10 10 0 6 5 10 10 10 6 0 10 -4 10 -10z m1439 -67 l-2
-78 -10 62 c-9 56 -6 93 8 93 3 0 4 -35 4 -77z m-1214 35 c7 -18 11 -37 7 -43
-3 -5 -12 5 -19 23 -9 21 -18 30 -28 26 -10 -4 -15 0 -15 10 0 30 40 18 55
-16z m275 -3 c0 -19 -4 -35 -10 -35 -5 0 -10 16 -10 35 0 19 5 35 10 35 6 0
10 -16 10 -35z m-142 -16 c-3 -8 -7 -3 -11 10 -4 17 -3 21 5 13 5 -5 8 -16 6
-23z m402 -6 c0 -7 -7 -13 -15 -13 -15 0 -21 31 -8 43 8 8 23 -12 23 -30z
m1040 17 c0 -5 -4 -10 -10 -10 -5 0 -10 5 -10 10 0 6 5 10 10 10 6 0 10 -4 10
-10z m94 -22 c10 -38 7 -73 -8 -93 -12 -16 -14 -12 -18 41 -3 32 -4 62 -1 67
8 14 21 7 27 -15z m65 -35 c0 -42 -3 -52 -9 -38 -12 28 -12 95 0 95 6 0 10
-25 9 -57z m-2252 -33 c7 -41 17 -102 22 -135 39 -233 62 -298 94 -266 6 6 25
11 42 11 l30 0 -30 -19 c-27 -18 -36 -18 -83 -7 -29 6 -50 15 -46 19 14 14
-20 37 -56 37 -21 0 -57 7 -80 15 -23 8 -58 15 -76 15 -19 0 -34 5 -34 10 0 6
10 8 23 6 63 -13 117 -16 117 -7 0 14 -34 31 -62 31 -46 0 -50 12 -24 71 13
30 36 105 51 167 22 92 32 115 49 122 42 17 50 8 63 -70z m357 62 c-1 -6 -2
-28 -2 -47 -1 -19 -7 -35 -13 -35 -6 0 -9 10 -8 23 2 12 -2 32 -9 43 -6 12 -8
24 -5 28 11 11 38 2 37 -12z m1464 5 c6 -7 15 -33 21 -57 17 -76 84 -140 147
-140 40 0 47 -10 47 -65 0 -49 -8 -65 -30 -65 -20 0 -83 64 -83 84 0 46 -62
16 -80 -39 -21 -63 -34 -35 -48 100 -17 161 -8 223 26 182z m-838 -7 c0 -5 -4
-12 -10 -15 -5 -3 -7 -20 -3 -36 3 -17 2 -34 -3 -38 -15 -10 -38 -64 -35 -83
1 -9 -3 -19 -8 -23 -15 -8 -51 13 -51 30 0 9 -6 12 -15 9 -9 -4 -15 0 -15 8 0
20 30 59 40 53 5 -3 14 4 20 15 6 11 14 19 18 17 10 -3 13 10 6 28 -4 8 -1 21
4 28 12 15 52 20 52 7z m380 0 c0 -5 -4 -10 -10 -10 -5 0 -10 5 -10 10 0 6 5
10 10 10 6 0 10 -4 10 -10z m211 -150 c5 -63 13 -140 19 -170 14 -79 17 -130
8 -130 -17 0 -26 42 -37 165 -6 72 -17 162 -23 201 -6 40 -7 78 -3 85 14 22
26 -28 36 -151z m316 113 c-3 -10 -5 -2 -5 17 0 19 2 27 5 18 2 -10 2 -26 0
-35z m-859 -12 c-5 -24 -38 -27 -38 -3 0 10 3 21 6 25 11 11 35 -5 32 -22z
m60 7 c-4 -27 -28 -36 -28 -10 0 20 8 32 22 32 5 0 8 -10 6 -22z m342 -32
c-13 -14 -30 3 -30 31 l0 25 19 -23 c11 -13 16 -28 11 -33z m665 34 c0 -7 -6
-15 -12 -17 -8 -3 -13 4 -13 17 0 13 5 20 13 18 6 -3 12 -11 12 -18z m-1653
-22 c-6 -6 -15 -8 -19 -4 -4 4 -1 11 7 16 19 12 27 3 12 -12z m700 -5 c10 -9
18 -26 19 -37 0 -12 3 -15 6 -8 2 6 14 12 24 12 18 0 20 -6 17 -47 -3 -45 -27
-75 -29 -36 -1 16 -2 16 -6 1 -5 -22 -11 -22 -57 -3 -38 16 -48 28 -19 23 10
-2 19 4 21 15 2 10 -3 17 -12 17 -18 0 -21 32 -6 61 13 23 18 24 42 2z m861
-64 c8 -29 -19 -36 -51 -12 -24 18 -47 75 -34 87 9 9 79 -53 85 -75z m1017 71
c0 -5 -4 -10 -10 -10 -5 0 -10 5 -10 10 0 6 5 10 10 10 6 0 10 -4 10 -10z
m-1647 -82 c32 -101 43 -228 21 -228 -10 0 -14 11 -14 37 0 23 -9 50 -25 74
-14 20 -28 52 -32 72 -6 42 4 127 16 127 5 0 20 -37 34 -82z m1122 72 c3 -5 1
-27 -6 -49 -10 -34 -9 -44 5 -66 20 -31 18 -80 -4 -80 -11 0 -18 22 -26 90
-11 83 -19 93 -15 18 2 -32 -11 -44 -25 -22 -4 8 -9 7 -15 -2 -14 -23 -10 42
4 71 7 13 24 30 37 37 30 15 37 16 45 3z m-1687 -32 c-6 -18 -28 -21 -28 -4 0
9 7 16 16 16 9 0 14 -5 12 -12z m187 -8 c0 -7 -6 -15 -12 -17 -8 -3 -13 4 -13
17 0 13 5 20 13 18 6 -3 12 -11 12 -18z m69 3 c9 -22 -10 -41 -25 -26 -13 13
-5 43 10 43 5 0 12 -8 15 -17z m1076 2 c10 -12 10 -15 -4 -15 -9 0 -16 7 -16
15 0 8 2 15 4 15 2 0 9 -7 16 -15z m-1310 -11 c0 -8 -5 -12 -10 -9 -6 4 -8 11
-5 16 9 14 15 11 15 -7z m1435 -5 c-10 -15 -25 -10 -19 6 4 8 10 12 15 9 5 -3
7 -10 4 -15z m-807 -26 c17 -42 20 -183 5 -183 -16 0 -20 22 -27 128 -5 83 3
104 22 55z m762 9 c0 -4 -5 -13 -10 -18 -14 -14 -16 -78 -7 -184 7 -83 6 -85
-19 -103 -14 -11 -28 -17 -30 -14 -3 3 -6 67 -7 143 l-1 137 30 23 c30 25 44
30 44 16z m735 -2 c3 -5 1 -10 -4 -10 -6 0 -11 5 -11 10 0 6 2 10 4 10 3 0 8
-4 11 -10z m-132 -60 c-7 -26 -11 -29 -19 -19 -8 10 -7 23 4 49 18 41 28 21
15 -30z m-502 40 c10 -6 19 -18 19 -27 0 -8 14 -31 30 -50 37 -41 37 -51 5
-59 -32 -8 -34 -6 -43 47 -6 32 -13 45 -27 47 -26 5 -45 21 -45 38 0 16 33 18
61 4z m-1346 -21 c8 -23 1 -34 -14 -24 -13 8 -15 45 -2 45 5 0 13 -9 16 -21z
m65 2 c0 -10 -7 -21 -15 -25 -15 -5 -22 24 -8 37 12 13 23 7 23 -12z m697 -13
c-3 -8 -6 -5 -6 6 -1 11 2 17 5 13 3 -3 4 -12 1 -19z m362 -87 c5 -45 6 -94 2
-109 -6 -21 -9 -11 -14 43 -8 82 -9 160 -2 154 2 -3 9 -42 14 -88z m565 -10
c19 -19 19 -21 3 -39 -12 -13 -15 -28 -11 -49 5 -26 1 -35 -26 -59 -18 -16
-41 -42 -52 -59 l-18 -30 6 35 c4 19 12 38 18 42 8 5 7 8 -1 8 -7 0 -13 7 -13
15 0 8 -4 15 -10 15 -14 0 -13 -17 1 -26 8 -4 4 -13 -12 -24 -19 -15 -21 -21
-10 -34 7 -8 10 -19 7 -24 -9 -16 -51 -2 -61 20 -6 12 -17 25 -25 30 -28 15
-75 31 -85 29 -5 -1 -4 3 3 10 17 18 15 39 -5 39 -9 0 -31 -11 -50 -26 -52
-39 -39 -14 25 48 52 51 62 56 112 61 30 3 73 15 95 26 46 23 80 20 109 -8z
m-734 -45 c21 -32 30 -56 30 -85 0 -51 -17 -54 -25 -3 -11 65 -15 69 -10 10 6
-62 -11 -82 -22 -27 -3 18 -14 34 -23 36 -10 3 -23 16 -29 30 -11 23 -9 29 15
54 15 16 29 29 30 29 2 0 17 -20 34 -44z m850 9 c0 -15 7 -39 15 -55 17 -34 7
-40 -19 -11 -9 10 -14 25 -11 34 4 8 2 18 -4 22 -16 9 -13 35 4 35 9 0 15 -9
15 -25z m-510 -26 c0 -16 -4 -29 -10 -29 -5 0 -10 16 -10 36 0 21 4 33 10 29
6 -3 10 -19 10 -36z m-498 4 c19 -17 14 -45 -7 -37 -8 3 -15 -7 -19 -31 -4
-19 -11 -33 -16 -30 -11 7 -24 101 -16 114 8 12 34 4 58 -16z m-72 -3 c0 -5
-4 -10 -10 -10 -5 0 -10 5 -10 10 0 6 5 10 10 10 6 0 10 -4 10 -10z m344 -42
c10 -73 10 -111 2 -165 -8 -47 -10 -51 -30 -43 -11 5 -29 11 -40 14 -15 5 -16
9 -6 21 16 19 2 38 -24 31 -17 -4 -16 0 10 22 38 33 58 82 51 121 -6 30 -1 41
19 41 7 0 15 -18 18 -42z m-1769 -17 c-3 -6 -14 -11 -23 -11 -15 1 -15 2 2 15
21 16 32 13 21 -4z m-495 -16 c7 -9 30 -15 54 -15 44 -1 119 -28 80 -29 -30
-1 -136 19 -157 30 -10 6 -15 14 -12 20 9 13 21 11 35 -6z m1890 -13 c0 -9 14
-31 32 -49 32 -33 21 -47 -16 -20 -18 13 -42 102 -25 91 5 -3 9 -13 9 -22z
m155 -43 c0 -8 -9 -14 -20 -14 -15 0 -21 8 -23 29 -4 29 -3 29 20 14 12 -8 23
-22 23 -29z m435 21 c0 -13 -28 -25 -38 -16 -3 4 0 11 8 16 20 13 30 12 30 0z
m450 0 c0 -5 -4 -10 -10 -10 -5 0 -10 5 -10 10 0 6 5 10 10 10 6 0 10 -4 10
-10z m-357 -32 c-14 -28 -18 -30 -21 -14 -2 11 4 25 14 33 26 19 26 17 7 -19z
m-170 -31 c10 -6 19 -26 20 -42 2 -24 -2 -31 -21 -33 -20 -3 -22 0 -20 30 1
19 -2 39 -6 46 -9 16 6 15 27 -1z m-596 -88 c43 -23 90 -52 105 -64 15 -13 49
-31 75 -41 26 -10 50 -19 52 -21 3 -2 -11 -16 -29 -32 -34 -28 -34 -28 -17
-55 11 -16 27 -26 42 -26 13 0 26 -3 28 -7 6 -11 -21 -73 -32 -73 -17 0 -61
62 -61 86 0 15 -6 24 -15 24 -8 0 -24 6 -36 13 -17 10 -22 9 -39 -13 -18 -23
-20 -23 -20 -5 0 11 7 42 15 69 8 27 15 55 15 63 0 18 -25 17 -40 -2 -11 -13
-38 -129 -57 -242 -4 -26 -10 -33 -27 -33 -30 0 -66 -27 -66 -51 0 -11 11 -42
25 -69 33 -65 32 -83 -5 -97 -26 -10 -32 -9 -45 10 -17 25 -20 80 -4 108 7 15
7 24 -2 35 -18 22 -39 17 -73 -20 -28 -30 -96 -74 -96 -62 0 3 5 17 11 33 6
15 24 71 39 123 37 128 97 276 131 324 15 21 25 44 22 52 -9 24 24 16 104 -27z
m523 31 c0 -5 -4 -10 -10 -10 -5 0 -10 5 -10 10 0 6 5 10 10 10 6 0 10 -4 10
-10z m330 -4 c0 -3 -4 -8 -10 -11 -5 -3 -10 -1 -10 4 0 6 5 11 10 11 6 0 10
-2 10 -4z m-340 -85 c0 -6 -4 -13 -10 -16 -5 -3 -10 -17 -10 -31 0 -14 -4 -22
-10 -19 -9 5 -5 47 7 68 6 10 23 9 23 -2z m-750 -57 c-11 -21 -34 -76 -52
-122 -17 -46 -39 -87 -48 -92 -9 -5 -30 -43 -46 -85 -32 -84 -57 -118 -82
-113 -33 7 -13 64 71 200 67 108 170 258 175 254 1 -2 -7 -20 -18 -42z m1124
-8 c-9 -14 -23 -26 -30 -26 -21 0 -17 11 13 42 31 33 43 22 17 -16z m-1210
-24 c5 -8 -50 -95 -64 -100 -23 -8 -18 23 11 63 32 45 43 52 53 37z m1116 -11
c0 -5 3 -16 6 -24 9 -24 -32 -31 -66 -10 -38 22 -38 31 3 36 17 2 38 5 45 5 6
1 12 -2 12 -7z m-140 -9 c0 -5 -6 -16 -12 -25 -16 -20 -44 -7 -35 17 6 16 47
23 47 8z m253 -44 c37 -77 40 -93 21 -108 -13 -12 -17 -11 -25 1 -5 8 -7 25
-4 38 5 19 3 22 -11 17 -51 -19 -75 29 -37 74 14 17 26 30 28 30 1 0 14 -24
28 -52z m-353 32 c0 -5 -7 -10 -16 -10 -8 0 -12 5 -9 10 3 6 10 10 16 10 5 0
9 -4 9 -10z m415 -21 c9 -17 14 -36 12 -42 -4 -10 -37 51 -37 68 0 13 11 2 25
-26z m-580 -66 c-3 -43 -10 -105 -16 -138 -5 -33 -8 -96 -7 -140 3 -75 2 -80
-18 -83 -28 -4 -32 15 -43 198 -5 80 -12 153 -16 162 -5 13 0 19 18 23 14 4
35 18 48 31 12 13 26 24 31 24 5 0 6 -35 3 -77z m55 -138 c-6 -91 -8 -174 -5
-185 3 -10 2 -21 -3 -24 -23 -14 -20 295 4 373 13 42 14 -16 4 -164z m144 158
c3 -10 7 -45 11 -78 6 -72 23 -206 31 -255 l6 -35 -32 30 c-18 17 -38 43 -46
58 -10 17 -26 30 -45 34 l-30 6 6 115 c3 63 10 121 16 128 17 21 77 18 83 -3z
m143 -3 c10 -11 23 -20 31 -20 7 0 19 -15 27 -34 8 -18 26 -48 41 -65 17 -20
21 -31 12 -31 -28 0 -58 32 -73 78 -14 43 -15 44 -10 10 3 -21 2 -38 -2 -38
-9 0 -63 95 -63 110 0 16 19 11 37 -10z m-601 -32 c9 -18 28 -45 42 -60 23
-25 24 -31 13 -54 -6 -15 -9 -29 -6 -32 11 -11 40 15 43 39 5 29 21 51 33 43
17 -10 9 -61 -12 -80 -17 -15 -20 -27 -16 -61 4 -42 -9 -81 -20 -55 -10 26
-76 97 -87 93 -35 -12 -56 -7 -82 20 l-27 29 19 42 c27 62 57 108 71 108 7 0
20 -15 29 -32z m878 -16 c3 -5 -4 -16 -15 -26 -14 -12 -19 -25 -15 -39 8 -34
-7 -49 -45 -45 -38 3 -46 21 -11 26 12 2 22 8 22 13 0 5 7 25 14 44 14 33 38
46 50 27z m-1454 -47 c0 -8 -13 -36 -29 -62 -16 -27 -32 -58 -36 -70 -3 -13
-10 -23 -14 -23 -6 0 -41 53 -41 63 0 4 44 64 70 95 15 17 50 15 50 -3z m1110
-37 c0 -38 -5 -34 -13 10 -4 21 -3 31 3 27 6 -3 10 -20 10 -37z m399 -8 c21
-42 27 -70 13 -70 -11 0 -34 41 -43 77 -10 45 5 41 30 -7z m-295 -28 c20 -12
33 -31 41 -62 65 -235 65 -231 48 -257 -13 -19 -15 -40 -9 -99 7 -91 14 -104
57 -119 22 -7 33 -16 30 -25 -15 -56 -13 -70 13 -80 27 -10 33 -24 16 -35 -5
-3 -10 -14 -10 -24 0 -33 -34 -63 -80 -71 -55 -10 -66 -2 -75 53 -4 23 -20 81
-36 130 -29 87 -40 205 -19 192 6 -3 10 -18 10 -33 0 -15 7 -52 16 -82 8 -30
22 -88 29 -129 15 -82 17 -86 41 -77 14 5 15 14 9 54 -4 26 -8 62 -10 81 -2
18 -8 45 -14 60 -11 29 -27 109 -36 189 -6 44 -11 55 -31 62 -29 11 -31 33 -4
60 24 24 25 39 4 47 -8 3 -13 11 -10 18 2 7 -2 39 -9 72 -24 98 -21 106 29 75z
m-814 -8 c0 -8 -4 -12 -10 -9 -5 3 -10 10 -10 16 0 5 5 9 10 9 6 0 10 -7 10
-16z m920 -26 c0 -7 3 -24 6 -38 l5 -25 -15 25 c-18 29 -20 50 -6 50 6 0 10
-6 10 -12z m-160 -140 c0 -5 -4 -8 -10 -8 -16 0 -27 32 -33 95 l-6 60 24 -70
c13 -38 25 -73 25 -77z m297 125 c2 -6 -11 -18 -28 -27 -26 -13 -34 -14 -41
-4 -10 16 -10 33 -1 42 11 11 66 3 70 -11z m-969 -35 c14 -18 25 -78 15 -78
-16 0 -55 61 -49 76 7 17 20 18 34 2z m-619 -20 c6 -16 2 -36 -13 -66 -15 -33
-18 -47 -10 -60 17 -27 28 -20 35 22 4 22 15 46 25 53 19 14 60 10 77 -6 9 -9
-83 -201 -96 -201 -5 0 -7 12 -4 27 3 15 3 33 0 40 -6 16 -45 17 -60 2 -17
-17 -43 -3 -43 24 0 12 16 47 35 77 19 30 35 67 35 82 0 34 8 36 19 6z m1706
-8 c8 -16 15 -34 15 -40 0 -16 -30 -12 -36 5 -6 14 -8 14 -18 0 -9 -12 -15
-13 -36 -2 -48 24 -24 62 42 66 10 1 24 -12 33 -29z m-1320 -37 c27 -58 28
-82 10 -170 -7 -32 -7 -32 19 -20 18 9 28 24 36 59 14 58 34 78 56 56 19 -19
9 -64 -16 -78 -10 -5 -21 -23 -25 -39 -8 -40 -27 -53 -67 -49 -29 3 -33 7 -36
36 -3 26 -10 35 -36 46 -86 36 -102 145 -25 176 16 7 34 18 40 26 6 8 13 14
14 14 2 0 15 -26 30 -57z m-165 -19 c-16 -42 -11 -89 11 -118 22 -28 22 -28 2
-48 -20 -20 -20 -20 -49 5 -28 25 -28 25 -15 76 7 29 10 67 6 87 -4 23 -2 41
6 51 12 13 15 13 31 -7 13 -16 15 -27 8 -46z m1329 17 c-3 -6 -10 -7 -18 -2
-7 5 -10 14 -6 21 9 14 29 -2 24 -19z m-825 -119 c22 -158 30 -298 18 -306
-17 -10 -23 25 -27 154 -2 69 -9 157 -14 195 -13 90 -14 106 -1 85 5 -9 16
-66 24 -128z m775 119 c9 -6 14 -30 15 -71 1 -43 6 -65 17 -73 22 -17 32 -47
15 -47 -21 0 -41 39 -59 115 -22 93 -22 97 12 76z m-354 -57 c21 -29 35 -59
36 -78 2 -66 4 -71 24 -71 15 0 21 9 26 37 3 21 1 42 -4 47 -7 7 -6 15 3 26
15 18 41 20 34 2 -2 -7 2 -29 10 -49 14 -32 14 -37 1 -48 -8 -7 -15 -20 -15
-29 0 -35 -77 -57 -104 -30 -6 5 -17 9 -26 9 -9 0 -35 16 -58 36 -36 30 -42
41 -42 73 0 38 48 121 70 121 5 0 25 -21 45 -46z m-327 16 c17 -8 34 -21 37
-30 11 -41 49 -311 61 -438 5 -49 11 -75 21 -79 8 -3 16 -4 18 -1 2 2 -1 61
-6 131 -6 70 -8 135 -4 145 6 16 7 16 20 -1 26 -35 43 -295 20 -303 -7 -3 -41
2 -75 10 -43 11 -67 13 -80 6 -29 -16 -32 -12 -15 20 8 16 15 45 15 64 0 19 4
37 10 41 15 9 0 34 -23 37 -26 4 -35 47 -36 165 -1 40 -6 106 -12 147 -11 72
-8 112 9 104 4 -3 22 -11 40 -18z m824 -32 c22 -39 88 -191 107 -246 12 -35
28 -74 37 -87 14 -21 13 -24 -12 -44 -15 -12 -32 -21 -38 -21 -12 0 -36 67
-36 101 0 12 -15 51 -32 85 -29 58 -31 67 -20 96 15 40 3 56 -32 40 -18 -8
-27 -8 -34 1 -13 16 -25 93 -18 106 8 12 68 -11 78 -31z m-1005 9 c7 -7 15
-47 17 -89 3 -43 7 -81 10 -86 3 -5 8 -46 11 -91 5 -65 3 -82 -7 -79 -8 3 -14
26 -16 60 -5 91 -40 102 -87 28 -14 -22 -30 -40 -35 -40 -18 0 -7 137 22 268
11 53 12 54 42 48 17 -4 36 -12 43 -19z m347 -80 c7 -39 16 -55 52 -85 24 -20
44 -44 44 -53 0 -9 7 -22 15 -29 25 -20 17 -33 -15 -27 -36 8 -129 76 -129 97
-1 8 -10 28 -20 44 -14 20 -17 35 -11 50 5 12 11 29 14 39 11 36 40 15 50 -36z
m-1090 -50 c24 -17 25 -20 12 -45 -8 -15 -27 -40 -44 -55 -25 -25 -30 -26 -42
-12 -10 12 -10 15 3 15 34 0 40 27 18 75 -25 54 -25 54 -4 85 l17 24 7 -34 c4
-19 18 -42 33 -53z m1900 51 c9 -12 16 -31 16 -40 0 -15 -5 -17 -27 -12 -35 8
-32 5 -39 42 -6 28 -4 32 14 32 12 0 28 -10 36 -22z m-1695 -168 c-17 -52 -34
-106 -38 -120 -11 -37 -62 -36 -75 2 -8 22 -3 43 29 115 21 48 50 108 63 131
l25 44 13 -38 c12 -36 11 -47 -17 -134z m215 111 c9 -15 -23 -36 -36 -23 -5 5
-7 15 -4 21 9 13 33 14 40 2z m1221 -69 c20 -44 39 -53 49 -26 7 19 26 9 26
-15 0 -10 9 -30 21 -45 12 -15 28 -50 36 -79 8 -29 17 -59 19 -68 7 -21 -24
-33 -43 -18 -7 7 -26 12 -40 13 -36 1 -39 20 -7 49 26 25 26 47 -1 47 -8 0
-19 9 -24 19 -6 10 -31 29 -55 40 -24 12 -47 29 -50 37 -8 21 -8 99 1 107 12
13 48 -19 68 -61z m-1540 19 c3 -5 -6 -30 -19 -55 -13 -25 -27 -51 -29 -58 -4
-9 -12 -6 -27 11 -18 21 -19 26 -6 40 8 9 19 28 25 44 10 27 43 37 56 18z
m222 -70 c-3 -31 -16 -90 -29 -131 -22 -71 -26 -75 -55 -78 -28 -3 -32 0 -38
28 -10 44 11 114 37 125 13 6 26 27 34 53 26 90 60 92 51 3z m255 -43 c-6 -24
-14 -34 -33 -36 -26 -4 -55 -26 -70 -55 -7 -12 -5 -27 5 -49 9 -17 16 -39 16
-48 0 -10 7 -23 15 -30 11 -9 13 -16 6 -23 -15 -15 -144 52 -137 70 3 7 20 62
37 121 35 120 44 135 73 128 12 -2 37 1 56 7 35 12 35 12 38 -19 2 -18 -1 -47
-6 -66z m-172 69 c0 -13 -6 -37 -14 -53 -8 -16 -22 -62 -31 -101 -10 -40 -22
-73 -26 -73 -14 0 -11 17 15 104 13 45 27 96 31 114 8 37 25 43 25 9z m933
-103 c10 -83 37 -193 49 -200 5 -3 16 0 24 7 17 14 29 6 21 -15 -8 -20 -70
-30 -107 -17 -22 7 -38 7 -55 -1 -35 -16 -55 -4 -55 34 0 29 1 30 14 13 20
-27 46 -12 47 27 l1 33 20 -44 c18 -39 21 -42 35 -28 14 14 13 24 -6 99 -22
90 -26 171 -7 165 6 -2 15 -35 19 -73z m-633 8 c0 -9 14 -35 30 -56 33 -44 35
-54 19 -90 -9 -20 -18 -25 -40 -22 -44 4 -77 32 -84 70 -9 44 1 73 32 102 27
25 43 24 43 -4z m709 -77 c1 -17 -1 -17 -9 -5 -5 8 -9 26 -9 40 0 23 1 23 9 5
5 -11 9 -29 9 -40z m-244 -122 c4 -25 2 -33 -8 -33 -12 0 -15 20 -15 98 l0 97
9 -65 c4 -36 11 -80 14 -97z m-600 113 c2 -11 6 -30 7 -41 2 -11 18 -29 35
-40 18 -11 32 -26 33 -32 0 -17 -1 -17 -52 12 -37 20 -46 32 -56 70 -7 26 -10
50 -7 55 9 15 35 -1 40 -24z m705 -4 c0 -21 -2 -24 -10 -12 -13 20 -13 53 0
45 6 -3 10 -18 10 -33z m400 28 c0 -5 -2 -10 -4 -10 -3 0 -8 5 -11 10 -3 6 -1
10 4 10 6 0 11 -4 11 -10z m-460 -60 c0 -20 -2 -22 -10 -10 -5 8 -10 26 -10
40 0 20 2 22 10 10 5 -8 10 -26 10 -40z m-332 -17 c2 -50 -11 -73 -21 -35 -4
13 -5 11 -6 -6 -1 -13 -10 -26 -23 -32 -13 -5 -33 -17 -45 -26 -21 -15 -23
-15 -23 -1 0 9 5 19 10 22 6 3 10 17 10 31 0 38 49 106 74 102 18 -3 21 -11
24 -55z m-183 -93 c3 -5 1 -10 -4 -10 -6 0 -11 5 -11 10 0 6 2 10 4 10 3 0 8
-4 11 -10z m-447 -118 c2 -7 -15 -50 -37 -96 -23 -46 -41 -89 -41 -95 0 -6
-11 -29 -25 -51 -14 -22 -25 -42 -25 -45 0 -4 -10 -21 -23 -38 -12 -18 -33
-65 -47 -105 -13 -40 -28 -76 -33 -79 -18 -11 3 79 39 167 37 91 44 126 15 71
-18 -33 -19 -34 -26 -12 -5 16 5 46 37 109 24 48 50 107 58 131 8 24 22 46 33
50 29 11 70 7 75 -7z m-114 -1 c8 -13 -17 -71 -31 -71 -16 0 -17 21 -1 55 12
26 23 32 32 16z m206 -1 c0 -22 -44 -140 -81 -215 -45 -93 -50 -119 -16 -87
16 15 26 19 34 11 7 -7 14 -2 22 18 17 39 59 89 67 80 9 -9 -44 -127 -64 -144
-8 -6 -20 -9 -28 -6 -8 3 -18 -6 -25 -24 -6 -15 -17 -40 -25 -55 -8 -14 -14
-34 -14 -43 0 -14 4 -12 20 8 11 14 20 34 20 45 0 21 26 49 36 39 4 -3 -3 -22
-15 -42 -11 -20 -21 -44 -21 -54 0 -10 -8 -29 -19 -42 -10 -13 -16 -29 -14
-36 2 -6 -5 -28 -16 -49 -12 -21 -21 -43 -21 -48 0 -5 -6 -17 -13 -25 -15 -18
-40 -111 -32 -119 8 -9 14 2 36 62 11 32 33 85 48 119 16 34 32 73 36 87 4 14
25 62 46 108 21 45 39 88 39 96 0 7 7 19 15 26 8 7 15 18 15 25 0 22 69 165
79 165 5 0 11 -12 13 -27 l3 -27 16 24 c9 14 20 41 24 60 7 34 7 35 -12 18
-23 -21 -33 -23 -33 -5 1 30 15 37 48 25 31 -12 41 -34 23 -53 -5 -6 -16 -34
-26 -63 -9 -29 -27 -72 -40 -95 -13 -23 -26 -56 -30 -73 -6 -33 -39 -71 -48
-57 -3 5 8 39 23 76 16 37 25 67 21 67 -14 0 -28 -22 -44 -70 -13 -39 -34 -87
-85 -200 -7 -14 -16 -32 -21 -40 -6 -8 -24 -55 -42 -105 -18 -49 -39 -98 -47
-107 -8 -10 -12 -23 -9 -31 2 -7 -1 -21 -9 -31 -9 -13 -10 -23 -2 -35 8 -13 5
-29 -11 -67 -12 -27 -22 -51 -23 -54 0 -3 -9 -22 -19 -42 -11 -21 -15 -38 -9
-38 13 0 33 41 55 113 16 53 37 79 51 65 3 -3 -2 -25 -11 -49 -9 -24 -27 -78
-41 -118 -24 -73 -47 -111 -67 -111 -5 0 -7 14 -3 33 l6 32 -20 -25 c-11 -14
-20 -35 -20 -46 0 -26 -36 -74 -56 -74 -20 0 -18 17 7 51 11 16 19 37 17 47
-3 12 -9 6 -21 -21 -9 -20 -24 -40 -34 -44 -10 -3 -25 -14 -33 -25 -13 -15
-21 -17 -40 -9 -14 5 -18 10 -10 10 22 1 42 77 34 128 -6 41 10 69 26 44 11
-19 23 4 54 104 15 50 33 101 40 115 29 58 39 109 27 124 -7 9 -9 21 -5 28 5
8 -3 6 -19 -4 -33 -23 -37 -22 -37 1 0 10 -9 21 -20 24 -15 4 -20 14 -20 40 0
40 8 67 21 67 4 0 3 -14 -3 -31 -12 -36 -3 -53 11 -18 5 13 28 64 50 113 31
65 45 86 53 78 8 -8 7 -18 -6 -36 -9 -14 -16 -34 -16 -44 0 -11 -9 -31 -20
-45 -20 -26 -27 -67 -11 -67 5 0 12 12 16 27 3 15 15 39 26 54 10 15 19 35 19
45 0 9 11 37 25 61 26 43 25 47 -7 44 -26 -3 -22 26 7 65 14 18 25 41 25 51 0
25 42 91 47 75 3 -7 -6 -34 -20 -60 -13 -26 -27 -63 -30 -82 l-7 -35 20 25
c21 27 29 43 56 110 9 25 28 69 41 98 13 29 23 54 23 56 0 2 7 20 15 40 14 33
35 49 35 26z m-60 -15 c-6 -8 -9 -19 -5 -25 3 -5 -5 -28 -18 -51 -14 -22 -28
-36 -31 -31 -8 13 44 122 57 122 5 0 4 -7 -3 -15z m110 -2 c0 -29 -23 -82 -38
-88 -12 -4 -14 2 -9 35 5 41 21 70 38 70 5 0 9 -8 9 -17z m60 -2 c0 -12 -20
-25 -27 -18 -7 7 6 27 18 27 5 0 9 -4 9 -9z m562 -43 c-7 -7 -12 -8 -12 -2 0
6 3 14 7 17 3 4 9 5 12 2 2 -3 -1 -11 -7 -17z m524 -6 c-8 -9 -19 -13 -22 -9
-10 9 16 38 28 31 6 -4 4 -13 -6 -22z m64 11 c0 -24 -43 -133 -52 -133 -13 0
-9 42 7 98 10 32 21 52 30 52 8 0 15 -8 15 -17z m-1180 -47 c-13 -39 -50 -70
-50 -41 0 9 9 34 21 57 26 51 48 39 29 -16z m174 46 c6 -10 -33 -72 -45 -72
-13 0 -11 17 6 50 15 30 29 37 39 22z m333 -42 c7 -25 22 -108 33 -185 10 -77
26 -170 35 -208 8 -37 16 -115 17 -175 2 -131 -17 -199 -68 -240 -19 -15 -34
-32 -34 -39 0 -6 -10 -27 -22 -46 -21 -31 -34 -38 -118 -62 -52 -15 -106 -33
-120 -40 -36 -19 -170 -45 -228 -45 l-49 0 -7 221 -7 221 77 151 c43 84 115
226 161 317 l84 165 102 6 c56 3 108 5 116 5 8 -1 20 -21 28 -46z m123 -26
c-7 -19 -9 -38 -6 -41 3 -3 8 3 11 13 21 70 63 110 88 85 12 -12 -9 -44 -24
-36 -11 7 -25 -21 -32 -65 -6 -32 -6 -34 8 -16 8 11 15 23 15 28 0 4 4 8 8 8
5 0 5 -21 1 -47 -11 -65 -11 -85 0 -79 4 3 11 28 15 56 8 62 22 100 36 100 7
0 9 -17 6 -47 -6 -46 -5 -47 5 -13 6 19 15 40 19 46 5 5 7 19 4 31 -5 18 -1
20 35 20 l41 0 -6 -41 c-10 -66 -23 -110 -39 -131 -13 -17 -16 -18 -25 -5 -8
12 -10 11 -10 -8 0 -16 5 -22 17 -20 15 2 17 -3 15 -32 -2 -30 0 -28 17 20 10
30 24 78 31 107 13 56 34 93 46 80 4 -4 3 -22 -3 -40 -6 -17 -19 -68 -29 -112
-9 -44 -21 -84 -26 -89 -4 -6 -8 -21 -8 -35 0 -25 -8 -53 -52 -184 -11 -32
-17 -62 -13 -65 8 -9 25 18 25 41 0 10 7 32 16 50 15 28 34 93 80 283 8 34 21
70 29 80 13 18 14 18 21 1 3 -10 -1 -37 -10 -61 -9 -24 -14 -50 -10 -59 3 -9
-1 -26 -10 -39 -9 -12 -16 -34 -16 -48 -1 -31 -32 -148 -47 -176 -7 -12 -10
-24 -7 -27 3 -2 -1 -20 -9 -39 -20 -47 -31 -128 -18 -128 6 0 13 11 16 25 3
14 7 36 10 50 3 14 11 25 19 25 10 0 11 -11 6 -45 -8 -56 6 -49 21 11 6 24 15
44 20 44 36 0 -35 -146 -73 -152 -18 -2 -24 -10 -26 -35 -3 -27 -7 -33 -28
-33 -16 0 -24 -6 -24 -17 0 -10 -9 -32 -20 -50 -11 -19 -15 -35 -10 -38 16
-10 27 3 35 41 5 29 10 35 25 31 13 -3 21 1 25 14 10 30 21 22 19 -13 -1 -20
-13 -41 -33 -60 -17 -16 -34 -40 -37 -54 -6 -22 -7 -23 -19 -8 -12 16 -13 16
-22 -2 -6 -10 -13 -34 -16 -52 -6 -29 -4 -33 11 -28 15 5 17 1 14 -29 -5 -38
-22 -49 -22 -14 0 18 -2 19 -15 9 -13 -11 -20 -9 -40 10 -14 13 -25 33 -25 45
0 11 -9 28 -19 37 -17 14 -19 26 -15 78 4 61 43 181 68 210 22 25 36 79 36
136 0 54 -13 75 -33 55 -34 -34 -55 24 -32 90 8 23 15 51 15 63 -1 19 -2 19
-11 3 -15 -25 -29 -11 -29 29 0 20 -5 44 -10 55 -8 14 -7 31 5 64 22 66 20 87
-6 55 l-20 -25 3 38 c2 20 0 37 -4 37 -4 0 -8 9 -8 20 0 11 6 20 14 20 8 0 18
10 22 23 3 12 12 28 18 36 17 21 20 -20 6 -65z m-433 44 c-3 -8 -6 -5 -6 6 -1
11 2 17 5 13 3 -3 4 -12 1 -19z m871 -34 c-8 -16 -13 -37 -10 -47 5 -24 -27
-72 -40 -59 -6 6 -4 21 5 43 8 19 14 49 15 66 1 45 11 59 29 40 13 -13 13 -18
1 -43z m-108 26 c0 -5 -4 -10 -10 -10 -5 0 -10 5 -10 10 0 6 5 10 10 10 6 0
10 -4 10 -10z m147 -49 c-9 -16 -17 -42 -17 -58 0 -16 -7 -38 -15 -49 -13 -18
-14 -17 -15 18 0 20 4 39 8 42 5 3 9 19 10 36 1 38 20 66 36 50 7 -7 5 -19 -7
-39z m-102 -3 c-4 -24 -14 -50 -22 -58 -14 -13 -15 -11 -9 25 10 59 16 75 28
75 6 0 7 -16 3 -42z m-55 3 c0 -6 -4 -13 -10 -16 -5 -3 -10 1 -10 9 0 9 5 16
10 16 6 0 10 -4 10 -9z m-1037 -7 c7 -8 -42 -104 -54 -104 -13 0 -11 12 5 35
7 11 16 32 20 48 6 26 16 34 29 21z m207 -39 c0 -2 -6 -19 -14 -37 -8 -18 -26
-62 -41 -98 -15 -36 -33 -78 -40 -95 -7 -16 -18 -46 -26 -65 -7 -19 -31 -73
-55 -120 -23 -47 -47 -104 -53 -125 -11 -41 -50 -100 -51 -77 0 21 -18 13 -22
-10 -2 -13 -10 -24 -19 -26 -12 -2 -15 4 -11 27 3 22 12 32 33 40 23 8 29 16
29 38 0 15 33 96 74 178 41 83 84 175 96 205 42 106 74 170 87 170 7 0 13 -2
13 -5z m15 -45 c-9 -16 -18 -30 -21 -30 -2 0 2 14 11 30 9 17 18 30 21 30 2 0
-2 -13 -11 -30z m847 -45 c-7 -14 -12 -38 -12 -54 0 -15 -7 -36 -15 -47 -8
-10 -15 -28 -15 -39 0 -11 -9 -49 -20 -84 -12 -38 -17 -68 -12 -73 6 -6 28 10
54 36 32 32 48 42 56 34 11 -11 15 3 58 167 21 80 32 105 44 105 14 0 14 0
-25 -139 -19 -69 -35 -131 -35 -140 0 -22 -50 -144 -67 -163 -27 -31 -46 -11
-41 44 3 26 3 48 0 48 -3 0 -20 -11 -38 -25 -31 -24 -54 -32 -54 -19 0 30 44
185 56 194 8 8 12 21 8 36 -3 13 1 37 10 55 9 18 16 44 16 59 0 31 19 55 34
40 6 -6 5 -19 -2 -35z m50 -11 c-2 -13 -8 -27 -13 -30 -5 -3 -9 -18 -9 -34 0
-16 -5 -41 -12 -57 -6 -15 -12 -32 -12 -38 -2 -21 -29 -75 -37 -75 -13 0 -10
32 6 60 8 14 14 39 15 57 0 17 4 34 9 37 4 3 11 26 13 51 6 49 26 84 38 65 4
-6 5 -22 2 -36z m28 -29 c0 -14 -4 -25 -10 -25 -11 0 -14 33 -3 43 11 11 13 8
13 -18z m-10 -64 c0 -19 -23 -71 -31 -71 -12 0 -11 22 1 54 9 24 30 36 30 17z
m-1090 -40 c0 -19 -50 -121 -60 -121 -13 0 -13 37 0 45 6 3 10 14 10 23 0 10
7 28 16 40 15 22 34 29 34 13z m-70 -160 c0 -21 -13 -41 -26 -41 -17 0 -17 5
-4 31 11 20 30 26 30 10z m770 -67 c0 -41 -16 -77 -31 -68 -9 5 -6 37 7 87 9
30 24 18 24 -19z m-1099 -57 c-13 -13 -26 -3 -16 12 3 6 11 8 17 5 6 -4 6 -10
-1 -17z m1402 -17 c-5 -19 -23 -29 -23 -12 0 7 20 32 26 32 1 0 0 -9 -3 -20z
m-1370 -25 c-5 -16 -33 -21 -33 -7 0 13 22 32 31 26 5 -2 6 -11 2 -19z m47 8
c0 -14 -19 -38 -25 -32 -8 8 5 39 16 39 5 0 9 -3 9 -7z m1296 -100 c-4 -27 -8
-63 -9 -82 -1 -19 -8 -36 -15 -39 -11 -3 -12 10 -8 67 7 79 13 101 28 101 7 0
8 -17 4 -47z m-1326 23 c0 -3 -4 -8 -10 -11 -5 -3 -10 -1 -10 4 0 6 5 11 10
11 6 0 10 -2 10 -4z m284 -43 c3 -27 9 -65 12 -85 5 -29 2 -39 -9 -44 -30 -11
-36 5 -22 51 7 25 10 45 5 45 -4 0 -11 -14 -16 -32 -11 -38 -40 -54 -30 -17 3
13 8 35 11 49 4 24 4 23 -7 -2 -15 -35 -43 -39 -32 -5 17 56 25 69 38 64 8 -3
17 1 20 9 11 28 24 13 30 -33z m-334 13 c0 -8 -9 -24 -20 -37 -20 -25 -25 -15
-14 29 7 24 34 31 34 8z m1330 -10 c0 -14 -4 -27 -9 -30 -4 -3 -11 -30 -14
-61 -3 -30 -12 -68 -20 -85 -9 -16 -13 -39 -10 -50 5 -19 6 -19 19 -3 12 17
14 17 33 -4 22 -24 27 -43 11 -43 -5 0 -10 5 -10 11 0 5 -4 7 -10 4 -5 -3 -10
-17 -10 -31 0 -46 -16 -63 -57 -60 -42 4 -51 17 -28 40 20 19 39 11 31 -13 -5
-12 -2 -11 9 3 8 11 15 30 15 43 0 20 -3 22 -19 14 -26 -14 -34 -2 -16 26 9
13 11 23 6 23 -5 0 -15 -10 -24 -22 -8 -13 -18 -20 -22 -16 -12 11 5 47 26 53
22 7 26 35 4 35 -18 0 -20 16 -4 26 6 3 15 1 19 -6 7 -12 43 73 46 110 4 52
34 83 34 36z m-1309 -55 c-12 -22 -31 -28 -31 -10 0 23 22 51 32 41 7 -7 6
-17 -1 -31z m229 -53 c0 -19 -18 -43 -25 -36 -9 9 4 48 16 48 5 0 9 -6 9 -12z
m-260 -28 c0 -5 -4 -10 -10 -10 -5 0 -10 5 -10 10 0 6 5 10 10 10 6 0 10 -4
10 -10z m1376 -58 c-11 -10 -15 4 -8 28 l7 25 3 -23 c2 -13 1 -26 -2 -30z
m-1042 29 c3 -4 -1 -17 -9 -27 -8 -10 -15 -32 -15 -47 0 -37 -17 -67 -36 -67
-17 0 -13 21 12 74 8 16 14 37 14 46 0 27 22 41 34 21z m1002 -28 c-10 -10
-19 5 -10 18 6 11 8 11 12 0 2 -7 1 -15 -2 -18z m-1120 -20 c-10 -10 -19 5
-10 18 6 11 8 11 12 0 2 -7 1 -15 -2 -18z m59 7 c3 -5 0 -22 -8 -37 -8 -16
-22 -45 -31 -65 -8 -21 -20 -38 -25 -38 -19 0 -22 20 -8 47 8 16 22 45 32 66
18 38 29 45 40 27z m623 -42 c-2 -27 -8 -34 -28 -36 -14 -2 -47 -11 -75 -22
-73 -27 -252 -71 -310 -76 -27 -2 -59 -5 -70 -6 -14 -2 -21 4 -23 21 -5 34 8
42 79 47 91 7 148 20 279 64 146 49 152 49 148 8z m117 -18 c10 -11 14 -20 9
-20 -5 0 -3 -4 4 -9 11 -6 10 -11 -3 -25 -25 -24 -49 -16 -53 17 -7 56 12 71
43 37z m374 -65 c-11 -38 -16 -43 -38 -40 -29 3 -37 31 -8 29 11 -1 17 5 17
20 0 12 8 33 17 46 16 22 18 23 21 7 2 -10 -2 -38 -9 -62z m-159 41 c0 -16
-18 -31 -27 -22 -8 8 5 36 17 36 5 0 10 -6 10 -14z m-1100 -35 c0 -21 -13 -41
-26 -41 -17 0 -18 22 -2 38 14 14 28 16 28 3z m985 -31 c10 -12 24 -19 30 -16
7 2 32 -5 56 -16 30 -14 71 -21 133 -24 49 -2 95 -9 102 -15 10 -8 14 -39 14
-115 0 -109 -5 -121 -47 -115 -13 1 -23 -2 -23 -8 0 -14 -57 -15 -65 -1 -3 5
-12 7 -20 3 -9 -3 -29 0 -45 7 -23 10 -29 17 -25 31 4 11 2 19 -3 19 -6 0 -12
-5 -14 -12 -3 -8 -17 -2 -40 15 -19 15 -38 27 -42 27 -4 0 -16 10 -26 22 -13
17 -18 42 -19 105 -1 46 -4 90 -7 98 -9 22 20 18 41 -5z m-200 -25 c0 -29 -3
-30 -60 -41 -116 -22 -176 -42 -252 -88 -71 -42 -239 -106 -278 -106 -13 0
-11 6 8 33 15 19 28 53 32 84 9 69 20 77 99 68 66 -7 111 3 321 65 33 10 76
18 95 17 32 -2 35 -5 35 -32z m-615 -14 c0 -5 -6 -16 -13 -23 -7 -7 -20 -25
-30 -40 -10 -16 -24 -28 -32 -28 -8 0 -19 -9 -25 -20 -9 -16 -8 -20 5 -20 22
0 19 -46 -5 -70 -16 -16 -25 -18 -40 -10 -24 13 -33 42 -33 107 0 36 -4 54
-14 57 -22 9 -7 23 34 31 60 12 87 12 95 1 5 -7 13 -5 25 7 19 19 33 22 33 8z
m-426 -27 c21 -8 20 -17 -4 -32 -18 -11 -20 -10 -20 13 0 27 1 28 24 19z m186
-13 c0 -9 -24 -21 -42 -21 -6 0 -6 6 2 15 14 16 40 20 40 6z m-115 -28 l23
-18 -23 -20 c-13 -11 -26 -30 -30 -42 -5 -18 -2 -23 14 -23 16 0 19 -6 16 -36
-2 -19 -5 -37 -7 -39 -10 -10 -89 -8 -100 3 -9 9 -5 18 16 39 25 25 26 28 11
39 -15 11 -15 13 5 24 14 8 19 17 15 30 -7 21 10 60 26 60 6 0 21 -8 34 -17z
m986 -38 c12 -19 27 -35 35 -35 8 0 14 -5 14 -11 0 -5 -3 -8 -7 -6 -29 18
-286 -56 -432 -125 -142 -66 -323 -128 -376 -128 -23 0 -18 29 16 82 27 41 36
48 63 48 73 0 340 81 463 141 84 41 154 66 186 68 10 1 26 -14 38 -34z m212
-154 c21 -12 49 -29 63 -37 13 -9 53 -19 88 -21 78 -7 83 -16 60 -113 -19 -77
-18 -181 2 -265 7 -33 14 -72 14 -87 0 -23 13 -35 85 -82 76 -50 145 -121 145
-149 0 -6 27 -39 61 -74 38 -40 59 -69 57 -80 -2 -10 -11 -17 -19 -15 -7 2
-51 5 -97 7 -90 4 -202 27 -268 56 -46 20 -138 116 -159 165 -8 20 -24 35 -44
42 l-31 11 5 73 c3 40 7 98 10 128 2 36 -1 64 -10 80 -20 36 -18 61 5 67 28 7
25 39 -6 68 -24 22 -25 26 -13 59 12 32 11 39 -9 65 -26 36 -62 124 -62 152 0
20 1 20 43 -4 23 -14 59 -34 80 -46z m-1075 42 c-2 -10 11 -26 32 -40 19 -13
36 -28 38 -32 1 -5 -24 -62 -56 -127 -33 -65 -67 -144 -77 -174 -10 -30 -24
-63 -32 -72 -13 -15 -13 -19 0 -38 15 -22 14 -48 -6 -88 -9 -18 -7 -26 11 -45
25 -26 30 -95 10 -115 -17 -17 -134 -15 -187 4 -40 13 -59 13 -190 -1 -80 -8
-177 -21 -216 -27 -76 -12 -174 -12 -208 1 -21 8 -20 9 12 29 18 11 61 23 95
27 64 8 88 16 121 45 11 9 63 32 115 50 127 44 156 63 171 108 6 20 24 51 39
67 17 19 30 45 33 70 9 71 49 229 65 253 13 19 23 22 86 22 62 0 75 3 94 23
11 12 24 34 27 50 8 29 28 38 23 10z m912 -59 c14 -39 33 -81 42 -94 24 -32
11 -48 -53 -72 -145 -52 -254 -69 -466 -69 -143 0 -163 -2 -172 -17 -8 -14
-24 -16 -123 -13 -62 1 -116 5 -120 8 -5 2 -1 17 7 32 12 23 23 30 62 36 79
12 355 110 538 190 65 29 221 75 245 72 9 -1 25 -31 40 -73z m741 -123 c57
-11 117 -24 132 -30 16 -6 40 -11 55 -11 14 0 65 -13 112 -29 47 -16 105 -32
130 -35 25 -4 52 -11 60 -16 16 -10 -104 -13 -555 -10 -143 1 -264 5 -268 9
-13 13 17 90 42 107 54 39 140 43 292 15z m-687 -106 c11 -8 17 -17 14 -20 -3
-3 -43 -5 -89 -3 l-84 3 50 16 c63 21 85 22 109 4z m-6 -69 c31 -19 -12 -26
-171 -27 -95 0 -262 -4 -372 -8 -206 -7 -418 5 -413 24 2 6 83 9 223 7 121 -1
265 2 320 7 116 11 394 9 413 -3z"/>
<path d="M2350 7490 c-26 -26 -25 -36 5 -65 29 -30 58 -32 85 -5 24 24 25 38
4 68 -19 28 -67 29 -94 2z m55 -30 c3 -5 -1 -10 -10 -10 -9 0 -13 5 -10 10 3
6 8 10 10 10 2 0 7 -4 10 -10z"/>
<path d="M2573 7185 c-42 -26 -62 -65 -25 -50 31 13 66 24 95 30 20 4 27 11
25 23 -5 27 -49 25 -95 -3z"/>
<path d="M2598 7139 c-26 -10 -42 -34 -33 -49 8 -13 59 -19 77 -9 9 5 15 16
12 23 -3 8 0 17 5 21 15 9 4 25 -17 24 -9 0 -29 -5 -44 -10z"/>
<path d="M2310 7125 c-19 -23 -3 -34 42 -28 29 4 39 3 34 -5 -4 -7 -13 -12
-20 -12 -7 0 -21 -9 -30 -19 -16 -18 -16 -20 6 -35 32 -23 69 -21 75 4 8 29
26 20 39 -18 5 -18 16 -38 23 -45 11 -10 13 -4 8 36 -5 53 -39 110 -75 126
-33 16 -88 13 -102 -4z"/>
<path d="M2522 6913 c-31 -6 -22 -27 11 -26 45 2 47 2 47 18 0 15 -13 17 -58
8z"/>
<path d="M4158 6028 c-3 -7 -1 -24 3 -38 4 -14 8 -18 8 -10 1 8 4 25 7 38 7
23 -10 32 -18 10z"/>
<path d="M3987 6003 c-4 -3 -7 -11 -7 -17 0 -6 5 -5 12 2 6 6 9 14 7 17 -3 3
-9 2 -12 -2z"/>
<path d="M3173 6135 c0 -22 2 -30 4 -17 2 12 2 30 0 40 -3 9 -5 -1 -4 -23z"/>
<path d="M4110 5818 c0 -14 -3 -35 -6 -45 -3 -10 2 -6 11 10 11 20 13 32 6 45
-9 14 -10 13 -11 -10z"/>
<path d="M2286 5523 c-3 -16 -8 -39 -11 -53 l-6 -25 14 25 c19 33 30 80 18 80
-4 0 -11 -12 -15 -27z"/>
<path d="M3660 5005 c-10 -12 -10 -15 3 -15 19 0 31 16 18 24 -5 3 -14 -1 -21
-9z"/>
<path d="M3530 4881 c0 -10 19 -25 25 -20 1 2 -3 10 -11 17 -8 7 -14 8 -14 3z"/>
<path d="M2556 4644 c-39 -38 -122 -261 -105 -279 11 -11 49 27 49 49 0 25 63
172 83 194 19 20 19 24 5 38 -14 14 -17 14 -32 -2z"/>
<path d="M2442 4050 c0 -14 2 -19 5 -12 2 6 2 18 0 25 -3 6 -5 1 -5 -13z"/>
<path d="M2650 3621 c0 -11 5 -23 10 -26 6 -4 10 5 10 19 0 14 -4 26 -10 26
-5 0 -10 -9 -10 -19z"/>
<path d="M2150 3345 c-6 -15 -8 -30 -6 -33 3 -3 10 8 16 23 6 15 8 30 6 33 -3
3 -10 -8 -16 -23z"/>
<path d="M2112 3268 c-6 -6 -12 -20 -12 -29 0 -9 -7 -22 -15 -29 -16 -13 -21
-40 -7 -40 10 0 55 87 50 100 -2 7 -7 7 -16 -2z"/>
<path d="M2415 3210 c-3 -5 -1 -10 4 -10 6 0 11 5 11 10 0 6 -2 10 -4 10 -3 0
-8 -4 -11 -10z"/>
<path d="M2150 3010 c-12 -7 -12 -12 -2 -22 10 -10 15 -10 22 2 5 8 10 18 10
23 0 10 -12 9 -30 -3z"/>
<path d="M2129 2933 c-9 -10 -21 -36 -27 -59 -7 -23 -23 -53 -37 -68 -16 -17
-25 -38 -25 -59 l1 -32 19 24 c11 13 20 31 20 41 0 9 16 47 36 84 35 67 42
104 13 69z"/>
<path d="M2137 2824 c-10 -19 -17 -42 -17 -51 0 -8 -9 -30 -19 -47 -12 -19
-17 -37 -12 -45 6 -9 14 6 26 45 10 33 27 73 37 91 10 17 15 34 10 37 -5 3
-16 -11 -25 -30z"/>
<path d="M2033 2515 c-9 -25 4 -29 17 -6 7 15 7 21 0 21 -6 0 -13 -7 -17 -15z"/>
<path d="M2077 2493 c-4 -3 -7 -16 -6 -27 0 -19 1 -19 10 3 10 24 8 36 -4 24z"/>
<path d="M2015 2453 c-13 -33 -33 -125 -25 -116 4 4 15 28 23 53 9 25 18 53
22 63 4 9 3 17 -3 17 -5 0 -13 -8 -17 -17z"/>
<path d="M2043 2400 c-6 -19 -14 -48 -17 -65 -4 -24 -1 -21 15 14 11 25 18 54
17 65 -3 16 -6 13 -15 -14z"/>
<path d="M3196 3272 c-2 -4 -1 -14 5 -22 7 -12 9 -10 9 8 0 23 -5 28 -14 14z"/>
<path d="M3102 3065 c-14 -31 -32 -32 -32 -2 -1 22 -1 22 -14 -3 -7 -14 -17
-36 -21 -49 -7 -21 -5 -23 17 -18 14 4 27 4 30 1 7 -6 -14 -68 -30 -87 -8 -9
-12 -31 -10 -49 3 -29 7 -22 35 57 41 116 59 226 25 150z"/>
<path d="M3152 3020 c0 -14 2 -19 5 -12 2 6 2 18 0 25 -3 6 -5 1 -5 -13z"/>
<path d="M3183 2993 c-7 -15 -13 -35 -13 -45 0 -10 -7 -18 -15 -18 -8 0 -15 5
-15 11 0 5 -4 7 -10 4 -5 -3 -10 -19 -10 -35 0 -22 4 -28 15 -24 11 4 15 -1
16 -17 0 -22 1 -22 14 6 21 47 37 110 34 128 -3 13 -7 10 -16 -10z"/>
<path d="M3127 2804 c-4 -4 -7 -25 -7 -46 0 -22 -5 -48 -11 -59 -5 -11 -9 -30
-7 -42 3 -16 7 -10 17 23 7 25 17 60 23 78 10 33 0 61 -15 46z"/>
<path d="M3161 2682 c-13 -25 -14 -42 -2 -42 10 0 25 50 17 57 -2 3 -9 -4 -15
-15z"/>
<path d="M3386 2815 c-3 -9 -6 -24 -5 -33 0 -9 5 -4 10 12 9 32 6 48 -5 21z"/>
<path d="M4794 2298 c-39 -4 -102 -19 -140 -33 -38 -15 -92 -35 -121 -45 -69
-26 -198 -40 -371 -40 -111 0 -143 -3 -139 -12 6 -19 242 -20 375 -2 105 13
141 23 287 80 62 24 84 27 192 28 68 1 123 4 123 8 0 18 -111 26 -206 16z"/>
<path d="M590 1943 c-31 -4 -176 -29 -405 -70 -44 -7 -104 -11 -132 -8 -51 5
-53 4 -53 -20 0 -24 2 -25 63 -25 34 1 96 7 137 14 41 8 143 26 225 42 102 18
185 27 260 28 100 0 119 -3 200 -32 50 -18 129 -54 178 -81 97 -54 189 -86
317 -108 180 -31 280 -33 280 -4 0 14 -30 22 -105 27 -121 8 -322 48 -375 74
-19 9 -67 36 -107 59 -39 23 -109 56 -155 73 -70 26 -99 31 -188 33 -58 2
-121 1 -140 -2z"/>
<path d="M4630 1437 c-15 -7 -28 -27 -35 -49 -5 -20 -13 -39 -16 -42 -3 -3
-31 -8 -63 -10 -62 -4 -109 -28 -104 -54 2 -11 23 -21 62 -30 l58 -15 -53 -18
c-29 -10 -57 -23 -62 -28 -17 -17 1 -41 44 -60 l40 -18 -28 -7 c-31 -8 -73
-43 -73 -61 0 -20 31 -54 45 -49 7 3 15 20 17 37 l3 32 65 0 65 0 11 -120 c7
-66 12 -121 13 -122 1 -2 10 -3 20 -3 17 0 20 11 26 93 4 51 5 104 4 117 l-4
25 106 0 c91 0 110 3 128 19 50 45 21 61 -126 71 -86 5 -113 10 -113 21 0 17
105 20 157 5 21 -6 35 -6 39 1 11 17 -12 30 -60 35 -49 6 -65 23 -18 20 18 -1
27 3 27 13 0 11 -18 17 -74 22 -78 8 -90 13 -75 28 5 5 34 3 74 -5 68 -14 80
-13 80 10 0 15 -15 21 -75 30 -68 10 -85 15 -85 24 0 4 25 6 55 3 62 -5 105
15 105 48 0 42 -121 67 -180 37z m110 -37 c0 -5 -19 -10 -42 -10 -32 0 -39 3
-28 10 20 13 70 13 70 0z m-165 -111 c4 -6 5 -13 2 -16 -8 -8 -67 7 -67 18 0
13 57 11 65 -2z m2 -65 c-3 -3 -12 -4 -19 -1 -8 3 -5 6 6 6 11 1 17 -2 13 -5z
m16 -59 c-5 -22 -103 -16 -103 6 0 6 21 9 53 7 28 -2 51 -7 50 -13z m204 -55
c39 0 53 -4 50 -12 -2 -8 -17 -12 -38 -10 -19 2 -54 4 -79 6 -60 4 -62 4 -54
17 4 6 19 9 36 5 17 -3 55 -6 85 -6z"/>
<path d="M4734 1005 c-4 -10 0 -24 10 -33 16 -16 18 -16 32 3 18 24 13 39 -14
43 -14 2 -25 -3 -28 -13z"/>
<path d="M2967 674 c-2 -2 -670 -5 -1485 -6 -1409 -3 -1482 -4 -1482 -20 0
-18 78 -20 1095 -20 3757 0 3905 1 3905 22 0 20 -7 20 -277 20 -153 -1 -610 1
-1015 3 -406 3 -739 3 -741 1z"/>
<path d="M594 498 c-3 -4 -3 -12 1 -18 11 -18 16 -259 6 -279 -16 -30 9 -44
63 -36 49 8 55 15 31 35 -19 16 -20 84 -1 99 8 7 38 14 68 16 45 3 58 9 86 39
40 45 43 92 8 125 -22 21 -35 23 -141 25 -64 2 -118 -1 -121 -6z m174 -34 c29
-20 29 -67 0 -94 -24 -22 -40 -25 -69 -10 -14 8 -19 21 -19 53 0 24 5 48 12
55 17 17 49 15 76 -4z"/>
<path d="M1380 501 c-53 -11 -76 -27 -110 -75 -22 -34 -30 -56 -30 -90 0 -60
10 -84 60 -134 l41 -44 77 7 c42 4 80 9 85 12 4 2 7 29 7 59 l0 54 -55 0 c-55
0 -76 -16 -35 -27 23 -6 27 -41 5 -49 -28 -11 -84 16 -106 52 -18 29 -21 45
-16 87 5 43 13 58 42 85 33 30 39 32 84 26 53 -7 71 5 45 30 -16 17 -36 18
-94 7z"/>
<path d="M1556 502 c-2 -4 0 -30 5 -57 5 -28 10 -99 11 -160 1 -60 5 -115 10
-121 6 -8 20 -9 46 -3 20 5 56 9 79 9 47 0 49 1 58 53 6 31 5 37 -11 37 -9 0
-29 -14 -43 -30 -24 -28 -28 -29 -51 -17 -20 10 -26 21 -28 59 -2 38 1 49 17
57 15 8 23 7 35 -4 22 -22 45 -18 52 9 6 26 -10 66 -27 66 -6 0 -22 -9 -36
-20 -14 -11 -30 -20 -34 -20 -12 0 -11 53 1 84 13 34 61 36 82 4 13 -20 17
-21 32 -9 19 16 21 42 4 59 -13 13 -194 17 -202 4z"/>
<path d="M3242 498 c-9 -9 -7 -17 7 -32 15 -17 21 -43 27 -121 3 -55 13 -113
21 -128 30 -59 112 -84 174 -51 19 10 41 13 60 9 18 -4 36 -2 44 5 12 10 12
15 -1 35 -11 16 -15 53 -17 128 -1 90 2 109 17 126 22 24 18 27 -64 35 -57 6
-93 -5 -75 -23 6 -5 21 -11 35 -13 25 -3 25 -4 28 -118 3 -133 -2 -145 -65
-154 -37 -5 -44 -3 -67 25 -24 28 -26 38 -26 125 0 53 5 104 10 114 11 21 0
32 -35 37 -11 2 -29 5 -41 8 -11 2 -26 -1 -32 -7z"/>
<path d="M3686 502 c-2 -4 1 -68 6 -142 6 -92 6 -142 -1 -158 -13 -27 -7 -30
59 -34 51 -3 52 1 28 80 -15 50 -4 76 33 80 58 6 99 24 118 51 26 36 27 72 2
102 -17 21 -27 23 -130 25 -61 1 -113 -1 -115 -4z m164 -32 c11 -11 20 -30 20
-43 0 -60 -74 -95 -86 -39 -3 15 -8 33 -10 41 -6 19 23 61 41 61 8 0 24 -9 35
-20z"/>
<path d="M933 478 c6 -22 -30 -163 -64 -252 -24 -60 -16 -71 45 -62 47 7 73
26 36 26 -30 0 -35 24 -15 76 19 51 50 69 99 57 17 -4 35 -7 41 -7 10 -1 64
-93 65 -109 0 -5 -9 -11 -20 -14 -13 -3 -20 -12 -18 -22 2 -9 7 -15 11 -13 4
1 34 2 67 2 47 0 60 3 60 15 0 8 -7 15 -15 15 -17 0 -19 4 -70 140 -20 52 -40
107 -46 121 -14 35 -48 49 -121 49 -57 0 -60 -1 -55 -22z m109 -55 c9 -25 15
-50 12 -55 -7 -10 -71 -11 -78 0 -6 10 13 81 27 100 13 16 18 11 39 -45z"/>
<path d="M2941 490 c-51 -12 -111 -78 -122 -133 -12 -69 11 -139 56 -167 53
-33 153 -47 207 -30 23 7 47 17 52 22 17 14 0 17 -36 6 -54 -16 -119 5 -163
53 -45 50 -51 79 -30 134 18 48 59 85 94 85 34 0 71 -29 71 -56 0 -19 5 -24
24 -24 28 0 44 17 52 57 6 29 4 31 -44 47 -54 17 -105 19 -161 6z"/>
<path d="M4063 490 c-43 -18 -58 -94 -27 -138 12 -18 25 -22 70 -22 63 0 66
-4 68 -83 l1 -52 -55 3 c-42 3 -61 9 -82 29 -31 30 -59 25 -79 -15 -7 -15 -13
-31 -14 -35 0 -4 55 -10 122 -13 121 -5 123 -5 158 21 41 32 52 73 36 133 -13
47 -27 54 -101 51 -56 -3 -70 7 -70 52 0 60 50 77 70 24 12 -30 46 -31 64 -2
21 33 -4 52 -75 54 -35 1 -74 -2 -86 -7z"/>
<path d="M2262 434 c-31 -22 -28 -53 17 -142 21 -42 41 -91 45 -108 9 -39 -7
-80 -33 -89 -12 -3 -21 -11 -21 -16 0 -16 54 -10 86 10 41 25 52 79 30 133
-11 25 -12 39 -5 43 6 4 13 4 16 1 10 -10 43 14 43 32 0 33 -30 63 -58 60 -19
-2 -26 -8 -24 -20 5 -29 -22 -20 -42 13 -19 32 -19 32 4 49 48 36 -8 69 -58
34z"/>
<path d="M2133 295 c-65 -28 -69 -95 -6 -121 43 -18 76 -12 109 21 29 29 31
68 4 95 -23 23 -62 25 -107 5z m56 -39 c9 -11 10 -20 1 -35 -14 -27 -26 -27
-40 0 -21 39 12 68 39 35z"/>
<path d="M4455 230 c-36 -14 -48 -36 -30 -54 33 -32 106 -10 92 28 -9 22 -39
35 -62 26z"/>
</g>
</svg>
