<?xml version="1.0" standalone="no"?>
<!DOCTYPE svg PUBLIC "-//W3C//DTD SVG 20010904//EN"
 "http://www.w3.org/TR/2001/REC-SVG-20010904/DTD/svg10.dtd">
<svg version="1.0" xmlns="http://www.w3.org/2000/svg"
 width="500.000000pt" height="878.000000pt" viewBox="0 0 500.000000 878.000000"
 preserveAspectRatio="xMidYMid meet">
<metadata>
Created by potrace 1.15, written by Peter Selinger 2001-2017
</metadata>
<g transform="translate(0.000000,878.000000) scale(0.100000,-0.100000)"
fill="#000000" stroke="none">
<path d="M1020 8249 c-77 -15 -636 -61 -711 -59 -84 2 -70 -57 17 -70 28 -5
68 -16 90 -26 21 -10 50 -21 64 -24 47 -10 21 -25 -67 -38 -201 -29 -320 -62
-352 -96 -32 -34 -22 -52 35 -60 26 -3 53 -11 61 -18 8 -6 39 -13 68 -14 30
-2 64 -8 75 -14 13 -7 61 -10 120 -9 86 2 102 0 121 -17 15 -14 37 -19 78 -20
31 0 84 -4 119 -9 56 -7 70 -5 133 20 l70 29 50 -18 c35 -13 66 -17 102 -13
62 6 124 -9 138 -35 8 -14 5 -27 -10 -51 -84 -130 -105 -226 -71 -328 18 -52
18 -63 6 -142 -11 -67 -23 -101 -56 -157 -39 -67 -41 -74 -29 -102 8 -20 26
-37 52 -48 35 -16 45 -16 100 -4 33 8 70 22 82 32 12 9 39 30 59 46 20 16 40
25 44 21 4 -4 -3 -14 -15 -22 -16 -11 -23 -25 -23 -48 0 -36 -21 -67 -89 -132
-52 -50 -71 -96 -71 -176 0 -32 -7 -74 -16 -95 -10 -24 -18 -83 -21 -165 -6
-120 -5 -130 15 -157 12 -16 22 -34 22 -40 0 -6 7 -24 15 -41 9 -16 17 -58 19
-93 2 -35 8 -72 14 -82 16 -32 41 -202 47 -328 3 -66 10 -127 15 -136 6 -12 3
-29 -10 -56 -11 -21 -20 -44 -20 -51 0 -8 -11 -39 -24 -71 -13 -31 -27 -79
-31 -107 -9 -70 -27 -148 -37 -159 -5 -6 -12 -6 -19 1 -8 8 -5 23 11 53 23 46
23 89 0 100 -41 21 -110 28 -170 20 -86 -12 -104 -31 -110 -118 l-5 -67 -65 3
c-43 2 -82 11 -115 27 -72 35 -243 88 -320 99 -22 3 -98 2 -170 -3 -155 -11
-235 -37 -235 -78 0 -22 1 -23 23 -9 12 8 56 24 97 36 66 20 90 22 200 17 150
-7 242 -30 359 -89 132 -67 220 -156 235 -238 9 -48 -12 -222 -36 -295 -18
-57 -26 -87 -47 -187 -12 -59 -26 -267 -23 -358 2 -52 12 -102 33 -163 50
-146 85 -196 164 -233 81 -38 88 -46 70 -80 -8 -16 -15 -22 -15 -13 0 8 -6 24
-14 35 -14 18 -16 18 -31 3 -15 -15 -16 -24 -6 -68 13 -63 14 -104 2 -97 -5 3
-12 22 -16 43 -4 20 -15 54 -26 75 -10 20 -19 48 -19 62 0 27 -28 44 -36 21
-3 -8 -3 -18 0 -24 7 -11 -3 -41 -14 -41 -4 0 -13 14 -19 32 -11 30 -12 31
-31 13 -26 -24 -25 -43 5 -87 36 -53 49 -123 36 -194 -18 -95 -47 -142 -148
-241 -90 -88 -161 -139 -297 -213 -35 -19 -70 -41 -78 -47 -8 -7 -32 -12 -54
-10 -37 2 -39 1 -36 -25 3 -30 -14 -38 -35 -17 -20 20 -46 2 -39 -25 8 -33
-12 -44 -30 -17 -8 12 -21 21 -28 21 -22 0 -27 -28 -9 -46 16 -15 15 -18 -12
-41 -105 -86 -125 -106 -125 -124 0 -10 3 -19 8 -19 4 0 34 24 67 53 33 29 87
70 120 92 33 21 92 60 130 86 39 26 99 62 135 81 36 19 85 48 109 64 24 16 58
37 74 47 40 24 165 127 198 163 39 42 75 105 90 153 16 54 33 61 67 28 34 -31
77 -52 123 -61 21 -4 48 -15 62 -26 14 -11 31 -20 39 -20 7 -1 29 -14 48 -30
19 -17 46 -30 60 -30 14 0 39 -9 55 -20 18 -12 47 -20 74 -20 37 0 49 5 75 33
44 47 60 81 52 111 -8 33 -41 35 -73 4 -22 -20 -25 -21 -39 -6 -26 26 -11 73
76 244 112 220 137 335 84 385 -21 20 -25 30 -19 59 3 19 6 49 5 65 -2 100 3
168 19 225 27 97 92 218 145 269 52 51 72 50 28 0 -43 -50 -112 -159 -118
-189 -3 -14 -14 -59 -25 -101 -17 -61 -20 -96 -16 -185 4 -101 21 -174 39
-174 14 0 9 -30 -13 -71 -18 -37 -20 -56 -18 -242 2 -207 -7 -284 -48 -429
-15 -50 -23 -61 -67 -91 -28 -19 -89 -54 -136 -77 -47 -23 -96 -48 -110 -56
-14 -7 -45 -23 -70 -34 -142 -65 -183 -99 -148 -122 7 -4 51 -8 98 -8 47 0
102 -3 123 -6 24 -4 43 -2 53 7 9 7 34 12 57 10 23 -1 57 4 77 12 73 31 143
40 196 27 27 -7 73 -13 103 -14 74 -1 76 -20 6 -41 -57 -16 -165 -80 -165 -97
0 -4 6 -17 13 -29 10 -17 9 -22 -8 -36 -20 -15 -20 -15 0 -11 11 2 26 15 33
30 9 20 25 30 55 38 23 5 56 15 74 21 35 11 80 6 156 -18 58 -19 104 -13 154
21 43 30 81 34 90 10 3 -9 -1 -56 -11 -103 -18 -93 -33 -196 -42 -306 -4 -38
-11 -78 -16 -87 -5 -11 -5 -26 2 -39 9 -16 8 -24 -3 -37 -29 -33 -48 -114 -46
-192 2 -47 -2 -84 -10 -99 -12 -22 -17 -23 -85 -18 -39 3 -91 1 -115 -5 -34
-9 -83 -6 -230 11 -102 12 -204 29 -226 36 -80 28 -140 28 -231 0 -16 -5 -36
6 -87 50 -123 104 -184 112 -293 36 -96 -66 -168 -92 -289 -102 -55 -5 -111
-10 -124 -11 -19 -2 -32 9 -65 57 -22 33 -89 110 -148 172 -59 61 -118 130
-132 152 -36 57 -46 59 -46 11 0 -40 5 -48 117 -161 64 -65 131 -140 148 -166
16 -26 45 -68 64 -93 67 -91 75 -116 62 -190 -12 -64 -11 -68 19 -139 35 -82
73 -219 66 -238 -7 -17 -79 9 -131 47 -43 32 -119 70 -139 70 -7 0 -23 11 -36
25 -34 36 -16 48 45 30 65 -20 86 -13 56 18 -30 32 -26 40 13 33 38 -7 60 10
32 26 -8 5 -29 23 -46 41 -19 20 -39 32 -56 32 -15 0 -32 8 -38 18 -9 15 -6
23 22 47 35 32 41 50 16 50 -25 0 -75 60 -69 81 7 22 2 23 -25 9 -24 -13 -37
5 -19 26 15 18 3 32 -13 16 -19 -19 -48 -14 -48 8 0 11 5 20 10 20 6 0 10 5
10 12 0 6 -7 5 -18 -5 -14 -13 -21 -14 -30 -5 -9 9 -12 2 -12 -30 0 -23 4 -42
8 -42 13 0 62 -72 56 -82 -3 -4 -18 -8 -35 -8 -24 0 -29 -4 -29 -25 0 -23 4
-25 46 -25 27 0 43 -4 39 -10 -3 -5 -24 -10 -46 -10 -40 0 -52 -13 -23 -24 9
-3 28 -6 42 -6 21 0 24 -2 12 -10 -8 -5 -27 -10 -42 -10 -16 0 -28 -4 -28 -10
0 -5 25 -10 55 -10 30 0 55 -4 55 -10 0 -5 -25 -10 -55 -10 -30 0 -55 -4 -55
-9 0 -14 21 -18 85 -16 118 5 141 -23 46 -55 -60 -20 -71 -31 -71 -76 0 -55
-12 -94 -28 -94 -13 0 -13 -2 1 -18 21 -23 21 -40 2 -86 l-16 -37 67 -65 c36
-36 85 -74 108 -83 22 -10 63 -28 90 -41 75 -34 149 -50 230 -50 100 0 112 13
95 101 -6 35 -18 86 -26 112 -7 27 -18 67 -22 90 -9 41 -14 59 -74 225 -16 45
-28 85 -25 87 9 10 324 -18 361 -31 45 -17 137 -18 191 -3 46 13 129 3 123
-14 -2 -7 -27 -22 -56 -33 -30 -12 -62 -29 -72 -38 -18 -15 -18 -18 -3 -41 8
-13 36 -34 60 -45 40 -20 62 -22 227 -23 100 -1 305 2 455 7 256 9 272 8 272
-8 0 -10 -18 -61 -39 -114 -63 -158 -72 -194 -54 -228 8 -16 21 -33 30 -38 39
-22 -38 -25 -447 -19 -239 3 -444 5 -455 5 -277 -5 -729 0 -745 8 -13 7 -26 7
-38 1 -9 -5 -75 -8 -145 -8 l-127 2 0 -27 0 -27 2500 0 c2226 -1 2500 0 2500
14 0 8 -4 15 -9 15 -5 0 -19 16 -32 36 -30 49 -113 87 -276 126 -190 45 -211
56 -163 86 46 28 12 85 -63 107 -70 20 -431 66 -594 75 -72 4 -136 10 -141 14
-5 3 -33 7 -64 10 -68 7 -110 21 -87 30 8 4 28 2 43 -4 21 -8 32 -7 49 5 26
18 61 19 90 3 47 -27 148 -36 222 -21 39 8 133 15 210 16 l140 2 17 34 c10 19
24 39 32 43 29 16 83 11 130 -12 42 -20 59 -22 155 -18 117 4 141 13 141 55 0
13 23 57 50 96 34 49 57 96 71 147 12 41 28 88 36 103 18 35 10 47 -32 47 -25
0 -43 -10 -75 -40 -34 -33 -45 -38 -61 -30 -15 9 -19 22 -19 70 0 33 4 60 9
60 5 0 16 3 25 6 10 4 19 -3 27 -20 10 -20 19 -26 44 -26 32 0 64 24 51 38 -4
4 -14 -2 -22 -12 -14 -19 -14 -19 -14 2 0 12 9 41 19 65 28 62 32 80 32 150 0
36 7 76 15 92 8 15 14 42 14 60 0 18 7 46 15 61 15 29 12 77 -7 101 -6 7 -5
40 3 90 6 43 13 174 16 291 l4 214 -26 19 c-15 12 -25 31 -25 45 0 36 -16 62
-50 79 -57 30 -140 9 -140 -35 0 -27 -47 -78 -86 -95 -52 -21 -45 -76 10 -86
30 -6 24 -24 -8 -24 -18 -1 -36 -10 -48 -24 -23 -29 -19 -47 11 -43 19 3 22 0
19 -25 -3 -28 -3 -28 -75 -28 -80 0 -101 -11 -84 -43 9 -17 4 -28 -32 -74 -24
-29 -51 -74 -61 -100 -23 -64 -37 -73 -75 -53 -28 14 -34 14 -63 -1 -72 -37
-146 -95 -215 -167 -94 -99 -113 -108 -217 -106 -45 1 -91 -3 -102 -9 -38 -21
-96 -91 -103 -124 -6 -29 -15 -37 -81 -70 -41 -21 -78 -38 -82 -38 -17 0 -6
22 27 58 24 27 32 45 29 59 -6 23 22 72 79 140 19 24 46 60 58 80 13 21 38 58
57 82 18 25 47 72 64 105 16 34 40 72 53 86 22 25 96 165 131 250 25 58 24
161 -1 213 -23 49 -203 211 -354 320 -64 46 -126 89 -138 96 -29 15 -29 29 -2
193 14 88 18 137 11 156 -24 73 57 222 122 222 15 0 36 5 47 10 10 6 19 7 19
2 0 -15 -33 -40 -62 -47 -37 -9 -88 -69 -88 -102 0 -15 11 -39 27 -55 21 -22
24 -30 14 -42 -10 -12 -8 -17 9 -26 18 -10 19 -14 9 -27 -11 -13 -10 -17 5
-29 15 -10 16 -17 8 -27 -13 -16 -6 -27 16 -27 9 0 24 -7 34 -17 17 -15 19
-15 37 1 19 17 20 17 30 -3 6 -11 11 -26 11 -34 0 -7 11 -23 25 -35 14 -12 25
-27 25 -32 0 -34 207 -84 230 -57 6 7 19 24 31 39 12 16 37 32 62 39 23 6 59
25 80 41 37 30 38 32 32 79 -6 45 -4 51 40 116 26 37 58 79 70 93 13 14 30 40
40 59 26 52 196 224 209 211 18 -18 46 -10 76 23 54 58 82 113 82 164 1 61 14
80 39 57 21 -19 39 -11 39 17 0 38 21 59 90 94 l70 35 0 49 c0 27 9 70 20 96
17 41 20 69 20 221 0 164 -6 198 -27 160 -4 -8 -28 -29 -52 -46 -46 -34 -60
-30 -61 15 -1 63 -143 373 -200 439 -17 18 -30 39 -30 45 0 11 -77 71 -91 71
-4 0 -41 25 -81 55 -131 99 -233 140 -403 161 -100 13 -144 14 -260 4 -192
-15 -325 -47 -325 -76 0 -18 17 -18 66 0 64 22 272 49 381 48 117 0 313 -29
329 -49 6 -7 26 -19 45 -27 44 -19 121 -71 120 -81 0 -5 -32 -16 -70 -26 -38
-10 -87 -29 -108 -44 -41 -26 -113 -104 -157 -170 -30 -43 -32 -37 -12 37 22
83 32 104 96 195 59 85 65 103 32 103 -21 0 -113 -52 -131 -74 -16 -19 -31
-21 -31 -3 0 7 -5 18 -12 25 -16 16 -80 -21 -122 -73 -39 -47 -96 -156 -96
-183 0 -10 -11 -29 -25 -42 -31 -29 -31 -18 0 75 26 78 64 147 127 230 23 31
34 53 28 59 -16 16 -62 -37 -130 -149 -35 -58 -65 -103 -68 -101 -2 3 12 37
32 77 37 72 39 92 8 73 -45 -29 -132 -210 -132 -276 0 -14 -7 -47 -15 -74 -8
-27 -15 -62 -15 -77 0 -16 -4 -26 -10 -22 -17 10 -11 112 11 209 25 106 76
215 116 245 15 12 39 30 53 41 19 14 22 21 13 31 -30 31 -125 -43 -176 -139
-43 -80 -77 -229 -77 -342 0 -65 -3 -90 -10 -80 -12 19 -12 192 0 245 8 35 7
42 -12 56 l-21 17 21 36 22 37 -24 32 c-53 70 -93 213 -97 347 -2 69 2 97 22
149 l24 64 -23 15 c-18 12 -22 24 -22 63 0 41 4 53 29 75 63 56 65 130 5 183
-38 34 -51 37 -88 20 l-25 -12 18 -36 c14 -26 18 -53 16 -96 -2 -33 -3 -83 -4
-111 l-1 -52 -46 -7 c-61 -9 -74 4 -74 70 0 50 1 53 30 59 29 5 40 28 21 40
-6 4 -5 21 1 42 12 47 3 86 -20 82 -14 -3 -17 -15 -17 -66 0 -57 -2 -62 -21
-62 -46 0 -63 72 -27 112 15 17 15 19 0 36 -10 10 -17 29 -17 43 -1 28 -31
123 -55 169 -12 22 -14 35 -6 43 7 7 13 2 20 -15 19 -49 45 -44 53 10 6 41 -9
54 -66 54 -43 0 -44 1 -64 48 -11 26 -17 52 -13 58 3 5 24 9 46 8 30 -1 40 3
40 14 0 10 -18 19 -55 27 l-55 11 52 1 c57 1 70 11 51 40 -9 15 -9 23 2 36 10
13 29 15 94 13 80 -3 81 -3 84 -30 2 -20 10 -30 29 -34 31 -8 162 3 203 18 23
8 35 7 43 -1 21 -21 5 -25 -145 -37 -52 -5 -79 -11 -82 -21 -9 -21 18 -26 110
-20 46 2 84 2 84 -1 0 -3 -10 -32 -22 -64 -21 -59 -22 -60 -52 -52 -55 13 -91
10 -91 -6 0 -10 12 -16 35 -18 56 -6 87 -43 33 -39 -19 1 -28 -3 -28 -13 0 -8
8 -14 18 -14 21 2 22 -19 1 -37 -14 -11 -19 -9 -36 14 -20 28 -51 36 -63 16
-4 -6 3 -22 16 -35 20 -21 21 -27 9 -35 -8 -5 -34 -8 -57 -5 -48 6 -74 -12
-48 -34 20 -17 105 -4 121 18 17 23 30 8 17 -20 -8 -19 -18 -22 -72 -24 -34
-1 -68 -7 -74 -13 -19 -19 8 -29 59 -23 27 3 50 0 58 -8 9 -6 19 -9 25 -6 5 4
62 111 127 239 65 127 128 253 141 278 13 25 26 62 30 82 5 33 2 41 -31 72
-48 45 -82 54 -266 69 -151 13 -182 12 -364 -13 -118 -16 -185 -66 -170 -127
4 -16 30 -65 59 -109 29 -44 59 -100 68 -125 24 -69 68 -174 79 -187 14 -17
68 -165 68 -185 0 -10 -10 -23 -22 -29 -46 -23 -68 -52 -68 -86 0 -45 14 -71
58 -109 l35 -32 -34 -17 c-19 -10 -62 -46 -96 -81 -44 -44 -71 -64 -87 -64
-32 0 -42 -17 -24 -38 11 -13 14 -45 14 -122 -1 -58 -5 -105 -10 -105 -5 0
-10 45 -11 100 -1 55 -5 107 -9 116 -10 23 -74 31 -153 19 -125 -19 -233 -19
-272 -2 -51 23 -81 52 -81 77 0 12 -8 30 -19 39 -10 9 -21 35 -25 57 -8 50
-45 142 -96 239 -22 41 -51 100 -65 130 -37 78 -105 180 -120 180 -7 0 -24 15
-38 33 -14 19 -53 53 -86 78 -61 44 -61 44 -55 84 3 22 8 42 10 44 3 3 26 5
53 6 63 1 97 24 112 76 14 46 7 67 -30 85 -41 21 -45 31 -27 58 9 15 23 26 30
26 34 0 38 27 16 111 -20 77 -20 84 -5 122 9 22 36 58 61 80 24 21 49 48 55
58 15 28 -5 57 -56 79 -23 10 -46 23 -49 29 -4 5 6 32 21 59 l27 49 -54 61
c-30 34 -73 71 -96 84 l-42 22 -42 -43 c-51 -52 -64 -47 -21 7 17 22 31 47 31
55 0 20 -77 97 -122 121 l-36 20 -42 -40 c-23 -21 -64 -69 -91 -106 -46 -63
-52 -68 -87 -68 -20 0 -58 -7 -83 -14 -52 -16 -69 -8 -69 30 0 12 -11 29 -25
38 -24 16 -25 19 -23 119 3 98 2 105 -25 146 -15 23 -39 46 -53 51 -30 12
-151 11 -214 -1z m206 -53 c28 -28 34 -42 35 -77 0 -24 2 -70 3 -101 3 -68 -9
-68 -18 -1 -12 82 -26 121 -53 153 l-26 31 -126 -6 c-69 -4 -178 -13 -241 -20
-202 -24 -250 -27 -250 -17 0 5 39 13 88 16 141 11 365 37 397 46 17 4 59 9
94 9 59 1 65 -1 97 -33z m-821 -42 c93 -6 96 -8 15 -14 -85 -6 -126 2 -114 21
4 7 17 8 33 3 14 -4 44 -9 66 -10z m718 10 c4 -4 5 -10 2 -14 -6 -9 -65 0 -65
11 0 10 53 12 63 3z m-91 -41 c25 -24 53 -63 71 -103 16 -36 40 -80 54 -97 13
-18 19 -33 14 -33 -12 0 -76 87 -105 140 -10 19 -33 48 -52 63 l-34 29 -62
-22 c-62 -21 -229 -60 -258 -60 -35 1 22 28 72 34 28 4 71 16 94 27 24 10 49
19 56 19 7 1 29 9 48 20 48 26 54 25 102 -17z m153 16 c5 -14 2 -25 -6 -30
-19 -11 -29 2 -23 29 8 28 21 28 29 1z m-415 -14 c-35 -20 -62 -19 -36 0 11 8
29 15 40 15 19 -1 19 -2 -4 -15z m200 -60 c0 -8 -58 -35 -75 -35 -21 0 -9 19
19 30 23 10 56 13 56 5z m230 -10 c0 -8 -4 -15 -9 -15 -13 0 -22 16 -14 24 11
11 23 6 23 -9z m614 -38 c31 -29 56 -58 56 -65 0 -6 -29 -44 -65 -84 -68 -75
-78 -100 -46 -117 16 -9 29 1 91 69 43 48 79 80 91 80 20 0 103 -70 120 -101
7 -15 -1 -24 -48 -56 -67 -44 -237 -181 -271 -217 -13 -14 -32 -26 -44 -28
-14 -2 -24 -13 -29 -32 -8 -28 -45 -76 -60 -76 -4 0 -10 14 -14 30 -14 62 -81
75 -132 28 -29 -27 -29 -57 -2 -92 16 -20 29 -26 60 -26 21 0 39 -4 39 -8 0
-11 -45 -32 -68 -32 -30 0 -79 37 -86 65 -8 32 25 97 62 121 21 13 23 21 19
51 -5 29 -1 42 18 65 31 36 31 36 0 78 -24 32 -24 35 -8 59 9 14 37 60 62 101
25 41 57 91 70 110 28 41 112 130 122 130 4 0 32 -24 63 -53z m-994 5 c0 -9
-66 -27 -139 -38 -31 -4 -42 -3 -37 5 4 6 17 11 29 11 12 0 45 7 72 14 60 17
75 19 75 8z m200 -2 c0 -5 -7 -10 -15 -10 -8 0 -15 5 -15 10 0 6 7 10 15 10 8
0 15 -4 15 -10z m-615 -30 c-3 -5 -16 -10 -28 -10 -18 0 -19 2 -7 10 20 13 43
13 35 0z m531 -25 c-23 -17 -36 -19 -36 -6 0 11 18 19 40 20 11 0 10 -3 -4
-14z m-356 -5 c0 -17 -62 -42 -89 -37 -14 3 -37 -1 -51 -8 -32 -18 -50 -19
-50 -2 0 22 74 51 113 44 19 -3 40 -1 48 4 18 11 29 11 29 -1z m230 -4 c-34
-18 -80 -28 -80 -18 0 9 55 29 85 30 17 1 16 -1 -5 -12z m145 -53 c-22 -16
-45 -17 -45 -3 0 13 41 30 54 22 5 -3 1 -11 -9 -19z m136 -6 c-1 -12 -15 -9
-19 4 -3 6 1 10 8 8 6 -3 11 -8 11 -12z m218 -38 c12 -28 12 -33 -7 -51 -30
-30 -53 -18 -45 24 6 33 20 58 32 58 3 0 12 -14 20 -31z m-304 11 c-3 -5 -13
-10 -21 -10 -8 0 -12 5 -9 10 3 6 13 10 21 10 8 0 12 -4 9 -10z m-145 -25
c-57 -33 -70 -37 -87 -31 -16 7 -16 9 7 26 15 12 41 20 65 20 40 0 40 0 15
-15z m-184 -10 c-26 -19 -42 -19 -26 0 7 8 20 15 29 15 13 -1 13 -3 -3 -15z
m429 -5 c-3 -5 -15 -10 -26 -10 -10 0 -19 5 -19 10 0 6 12 10 26 10 14 0 23
-4 19 -10z m400 -10 c2 -4 -9 -28 -25 -54 -36 -56 -37 -68 -9 -105 l21 -29
-26 -35 c-21 -27 -24 -39 -18 -58 8 -20 2 -33 -34 -77 -46 -56 -50 -74 -34
-133 12 -44 71 -89 117 -89 71 0 116 38 197 165 38 59 102 128 181 194 44 37
85 70 92 75 10 5 42 -8 73 -32 2 -1 -2 -7 -10 -12 -8 -5 -11 -12 -7 -16 3 -4
14 -1 22 6 10 9 19 10 26 3 6 -6 -15 -26 -60 -55 -60 -40 -71 -44 -82 -32 -8
10 -15 12 -23 4 -7 -7 -6 -14 2 -22 19 -19 -15 -51 -40 -37 -15 8 -23 8 -32
-1 -8 -9 -8 -14 2 -17 23 -9 12 -30 -32 -66 -30 -25 -46 -33 -54 -25 -16 16
-36 0 -21 -18 9 -11 9 -17 -1 -29 -17 -21 -27 -19 -34 7 -4 18 -8 20 -18 10
-10 -10 -10 -17 0 -32 14 -23 0 -36 -36 -31 -20 2 -22 -1 -16 -23 7 -30 -17
-46 -41 -26 -20 16 -36 3 -29 -24 4 -17 -1 -25 -20 -34 -23 -10 -26 -9 -26 8
0 11 -6 20 -14 20 -23 0 -31 -22 -12 -35 15 -12 14 -15 -11 -34 -90 -70 -160
-109 -186 -104 -20 4 -27 1 -27 -10 0 -8 7 -18 16 -21 26 -10 7 -23 -61 -41
-60 -17 -66 -17 -90 -1 -14 9 -25 26 -25 37 0 18 4 20 32 14 18 -4 40 -12 49
-18 9 -6 24 -7 33 -4 20 8 10 37 -14 37 -10 0 -23 7 -30 15 -7 8 -19 15 -26
15 -18 0 -18 10 1 38 23 31 45 110 45 159 0 23 5 45 11 49 6 3 8 16 4 28 -19
62 -31 163 -24 206 4 26 27 82 51 125 46 83 106 138 182 167 37 14 81 13 91
-2z m535 -331 c0 -29 -7 -50 -25 -71 -30 -36 -30 -39 -5 -70 12 -16 20 -44 22
-79 3 -51 2 -54 -20 -51 -17 3 -25 -2 -29 -17 -5 -20 -40 -33 -78 -28 -14 1
-20 -4 -20 -18 0 -17 6 -20 36 -17 47 4 54 -8 23 -41 -24 -27 -25 -27 -62 -11
-20 9 -53 21 -72 26 -19 5 -51 18 -70 28 -19 10 -46 22 -60 28 -24 9 -24 10
17 21 29 8 44 18 49 34 3 12 21 34 40 50 18 15 38 44 45 65 13 42 36 72 55 72
7 0 26 -13 42 -30 37 -36 42 -37 42 -7 0 13 11 33 25 45 14 12 25 26 25 32 0
6 -11 16 -25 22 -31 14 -31 22 -3 42 37 26 48 20 48 -25z m-354 -375 c114 -45
280 -94 321 -94 38 0 41 -9 13 -35 -16 -14 -37 -18 -105 -17 -47 0 -91 4 -98
10 -15 12 -69 23 -128 27 -26 2 -62 6 -80 10 -27 6 -29 9 -16 17 25 13 23 68
-3 75 -20 5 -26 23 -13 36 10 10 13 10 109 -29z m1889 7 c59 -11 85 -28 85
-56 0 -13 -4 -27 -10 -30 -5 -3 -10 3 -10 13 0 27 -57 36 -70 11 -6 -10 -7
-24 -4 -33 10 -26 -27 -34 -177 -42 -171 -8 -362 2 -356 19 2 8 46 13 130 15
114 2 127 4 127 20 0 28 21 42 62 42 24 0 40 -6 46 -17 6 -10 16 -14 26 -10
10 4 16 1 16 -8 0 -27 38 -38 75 -21 36 17 48 36 35 56 -7 11 -11 11 -25 0
-13 -11 -19 -10 -40 10 -28 27 -44 28 -285 16 -103 -5 -188 -14 -207 -22 -34
-14 -43 -40 -21 -62 9 -9 8 -12 -4 -12 -27 0 -41 26 -28 50 15 27 66 50 150
67 69 13 407 9 485 -6z m-2005 -128 c8 -2 49 -8 90 -13 65 -8 157 -37 198 -63
18 -12 15 -44 -5 -56 -16 -9 -15 -13 12 -35 17 -13 27 -28 23 -32 -11 -10 -86
16 -112 39 -21 18 -21 18 13 11 26 -5 32 -3 29 7 -3 8 -14 13 -24 12 -10 -1
-41 3 -68 8 -84 16 -250 13 -285 -5 -45 -24 -65 -21 -56 7 4 12 9 39 12 59 3
21 11 42 19 49 29 24 100 30 154 12z m2080 -20 c-1 -26 -17 -34 -44 -22 -19 9
-23 15 -14 21 16 10 58 10 58 1z m-83 -19 c-3 -3 -12 -4 -19 -1 -8 3 -5 6 6 6
11 1 17 -2 13 -5z m-117 -14 c0 -5 -18 -10 -41 -10 -24 0 -38 4 -34 10 3 6 22
10 41 10 19 0 34 -4 34 -10z m-1718 -212 c-18 -19 -42 -18 -42 1 0 11 43 30
54 24 4 -3 -1 -14 -12 -25z m-117 -29 c48 -21 153 -84 190 -114 23 -18 57 -63
79 -104 30 -54 50 -77 83 -96 48 -29 53 -43 23 -70 -15 -14 -29 -16 -64 -11
-62 10 -104 -12 -108 -55 -3 -35 -6 -37 -90 -69 -56 -22 -148 -100 -148 -126
0 -31 -31 -16 -82 37 l-56 59 61 -6 c68 -6 117 6 117 31 0 17 -9 19 -42 6 -30
-11 -148 10 -184 34 -26 17 -61 14 -49 -5 3 -5 -1 -10 -10 -10 -9 0 -22 15
-30 33 -19 45 -26 49 -48 30 -18 -17 -19 -17 -32 1 -17 23 -9 52 11 35 22 -18
36 0 29 40 l-6 36 20 -31 c41 -66 143 -121 238 -129 63 -5 89 4 80 29 -5 12
-16 14 -49 10 -35 -5 -57 0 -111 24 -36 17 -77 42 -91 55 -32 32 -49 96 -47
175 1 62 -5 72 -27 50 -23 -23 -22 1 2 56 22 50 31 59 78 81 49 23 60 25 148
19 52 -4 104 -11 115 -15z m361 -3 c10 -8 17 -17 14 -19 -3 -3 -16 3 -30 13
-29 22 -14 27 16 6z m-52 -75 c11 -17 -5 -40 -22 -34 -26 9 -42 24 -36 34 7
12 51 12 58 0z m76 -61 c13 -9 11 -13 -10 -30 -38 -30 -68 -9 -35 24 19 19 25
19 45 6z m154 -95 l26 -50 -27 -5 c-21 -4 -27 -11 -26 -25 1 -11 4 -31 5 -45
4 -38 -27 -38 -47 0 -9 17 -38 47 -65 66 -28 20 -50 40 -50 45 0 16 58 39 97
36 33 -2 38 1 41 22 4 28 12 21 46 -44z m1021 -121 c-29 -43 -30 -52 -9 -82
15 -22 11 -47 -7 -36 -11 7 -49 79 -49 94 0 18 48 60 69 60 20 0 19 -1 -4 -36z
m258 -1 c15 -54 16 -74 5 -97 -13 -29 -45 -37 -33 -8 14 36 17 80 6 101 -10
17 -9 21 3 21 8 0 17 -8 19 -17z m-1457 -140 c40 -43 108 -109 152 -147 l80
-69 -47 -61 c-25 -34 -68 -94 -95 -133 -44 -66 -66 -87 -66 -65 0 4 11 24 25
44 14 20 25 44 25 52 0 24 -21 30 -27 7 -5 -21 -59 -55 -67 -42 -3 4 13 33 34
65 62 91 31 119 -45 40 -51 -52 -63 -36 -15 19 17 19 30 37 30 41 0 3 -14 6
-30 6 -26 0 -36 -8 -62 -50 -17 -27 -35 -50 -40 -50 -9 0 12 40 49 95 19 28
16 45 -7 45 -13 0 -20 7 -20 20 0 36 -47 24 -69 -18 -7 -13 -15 -21 -18 -18
-3 3 7 24 22 46 32 46 24 71 -15 50 -12 -6 -23 -10 -25 -8 -1 2 7 23 19 48 16
35 27 46 49 48 33 4 61 43 52 71 -3 12 -3 25 0 31 14 23 42 6 111 -67z m48 35
c24 -34 19 -44 -9 -18 -14 13 -25 27 -25 32 0 16 19 8 34 -14z m209 -5 c32
-24 62 -79 50 -92 -2 -3 -21 14 -44 37 -22 23 -47 43 -57 44 -9 1 -24 2 -32 4
-8 1 -19 2 -24 3 -5 1 -3 8 4 16 19 23 63 18 103 -12z m987 -83 c0 -29 -5 -42
-20 -50 -11 -6 -20 -15 -20 -19 0 -16 61 -31 124 -31 62 0 112 -17 105 -35 -2
-5 -25 -10 -51 -10 -80 0 -93 -40 -15 -47 42 -3 55 -22 17 -25 -36 -2 -80 -21
-80 -33 0 -6 16 -10 38 -8 54 4 49 -22 -6 -36 -53 -13 -59 -30 -14 -34 20 -2
32 -8 29 -15 -5 -16 -166 -14 -196 2 -11 7 -21 21 -21 32 0 18 -4 20 -25 15
-19 -5 -25 -2 -25 9 0 21 -30 31 -41 14 -6 -10 -9 -3 -9 20 0 19 -7 42 -15 51
-13 14 -7 23 58 87 40 39 86 78 103 86 18 10 34 27 38 42 10 39 26 30 26 -15z
m-1007 -34 c15 -19 27 -37 27 -40 0 -15 -29 -4 -50 19 -13 14 -32 25 -42 25
-20 0 -24 20 -6 38 15 15 38 2 71 -42z m-843 -48 c0 -13 -23 -5 -28 10 -2 7 2
10 12 6 9 -3 16 -11 16 -16z m988 -46 c8 -20 15 -48 14 -62 0 -79 -9 -151 -20
-162 -9 -9 -8 -16 4 -30 16 -16 15 -18 -10 -27 -27 -11 -36 -31 -12 -31 18 0
36 -23 28 -36 -4 -6 -20 -10 -37 -10 -41 1 -39 -26 3 -38 44 -12 41 -26 -6
-26 -50 0 -59 -10 -30 -32 l23 -18 -27 0 c-38 0 -45 -18 -12 -30 36 -14 59 -9
58 13 -3 26 13 20 20 -8 8 -33 -9 -107 -28 -121 -9 -6 -46 -14 -83 -18 -65 -7
-67 -6 -97 24 -33 33 -26 34 41 4 33 -15 113 -10 113 8 0 11 -14 15 -80 23
-48 5 -57 10 -72 35 -13 23 -24 30 -48 30 -16 0 -30 4 -30 9 0 4 13 38 30 73
19 44 36 67 50 71 18 5 19 8 9 25 -11 17 -8 27 19 69 18 27 45 62 62 76 16 15
36 40 45 58 12 23 22 30 36 26 31 -8 40 22 18 62 -19 36 -25 72 -12 84 9 10
14 2 31 -41z m-975 -18 c28 -6 38 -24 13 -24 -24 0 -76 22 -76 32 0 5 8 7 18
4 9 -3 29 -8 45 -12z m910 -10 c12 -12 -45 -107 -99 -164 -31 -31 -62 -67 -70
-79 -17 -23 -34 -28 -34 -8 0 21 85 159 130 210 39 44 59 55 73 41z m-763 -45
c0 -12 -76 -50 -84 -42 -12 12 -6 42 10 51 18 10 74 3 74 -9z m1346 -39 c9
-26 8 -41 -1 -65 -7 -16 -11 -44 -9 -60 4 -28 4 -28 -6 -7 -13 30 -34 23 -40
-13 -7 -42 -25 -36 -28 10 -4 48 -16 63 -37 45 -9 -8 -15 -29 -15 -57 0 -56
-21 -54 -33 3 -4 21 -12 43 -17 48 -17 17 -34 -11 -34 -54 -1 -52 -20 -57 -24
-5 -4 46 -17 66 -38 58 -8 -3 -21 0 -29 7 -8 6 -23 9 -34 5 -11 -3 -29 0 -39
6 -17 11 -18 17 -10 43 15 45 17 46 93 50 142 9 260 19 264 22 11 10 27 -5 37
-36z m-1492 4 c11 -28 6 -44 -13 -44 -22 0 -34 33 -18 49 15 15 24 14 31 -5z
m1046 -8 c0 -8 -4 -18 -10 -21 -5 -3 -10 3 -10 14 0 12 5 21 10 21 6 0 10 -6
10 -14z m-732 -20 c16 -17 16 -18 -4 -12 -58 17 -142 -1 -185 -40 -19 -17 -60
-16 -66 2 -2 7 9 16 24 22 15 5 39 18 52 29 33 27 152 26 179 -1z m719 -58
c-3 -7 -5 -2 -5 12 0 14 2 19 5 13 2 -7 2 -19 0 -25z m-748 1 c59 -12 65 -19
56 -59 -8 -35 -17 -37 -55 -10 -58 42 -160 18 -168 -39 -3 -18 -9 -22 -35 -19
-30 3 -32 5 -32 43 0 39 1 40 43 47 24 4 58 16 75 27 38 23 51 24 116 10z
m1381 -65 c0 -11 -70 -193 -96 -250 -7 -15 120 -144 141 -144 20 0 19 -2 -10
-58 -37 -71 -48 -147 -35 -239 6 -43 19 -96 29 -118 57 -119 80 -198 81 -267
0 -20 -4 -40 -10 -43 -6 -4 -10 9 -10 33 0 28 -18 73 -65 166 -71 138 -89 199
-86 291 2 45 9 73 32 112 33 59 36 78 14 87 -19 7 -40 -15 -72 -78 -60 -116
-47 -221 52 -414 54 -105 66 -138 71 -192 3 -36 9 -69 14 -74 11 -11 1 -36
-15 -36 -24 0 -52 53 -58 110 -4 37 -23 88 -56 155 -67 134 -83 191 -86 310
-2 55 -6 109 -10 120 -5 17 2 25 37 45 24 13 63 44 88 69 35 37 41 46 27 49
-10 2 -39 -16 -69 -43 -29 -26 -77 -59 -108 -75 -68 -34 -210 -74 -222 -62 -5
5 -5 27 1 53 12 52 13 158 2 216 -5 27 -18 50 -37 66 -16 14 -26 29 -22 33 5
4 52 11 105 15 54 4 106 11 116 15 10 3 28 1 40 -5 32 -17 96 -1 118 29 11 15
19 45 20 75 1 28 6 55 10 61 12 15 69 5 69 -12z m344 -100 c14 -50 35 -113 46
-139 33 -78 31 -81 -75 -90 -269 -25 -255 -25 -255 0 0 19 55 32 175 40 100 6
123 14 111 34 -5 8 -48 9 -138 5 l-131 -6 7 43 c10 60 20 69 83 69 60 0 93 13
93 36 0 12 -7 13 -37 7 -64 -12 -121 -3 -108 18 4 6 19 7 36 4 36 -8 69 2 69
21 0 10 -12 14 -40 14 -29 0 -40 4 -40 15 0 9 10 16 23 16 85 5 131 9 135 14
11 10 20 -11 46 -101z m-294 39 c0 -5 -4 -14 -9 -22 -6 -9 -4 -22 4 -35 17
-28 3 -66 -25 -66 -23 0 -26 -10 -8 -28 9 -9 7 -12 -10 -12 -28 0 -28 -17 0
-47 14 -15 18 -27 12 -33 -7 -7 -20 0 -38 19 l-29 30 20 43 c11 24 30 69 44
100 21 50 39 74 39 51z m-1720 -43 c0 -11 -4 -20 -10 -20 -5 0 -10 9 -10 20 0
11 5 20 10 20 6 0 10 -9 10 -20z m1051 -2 c0 -7 4 -34 8 -61 6 -36 4 -50 -6
-59 -12 -10 -12 -13 2 -20 19 -11 10 -28 -16 -28 -15 0 -19 7 -19 38 0 62 12
142 21 142 5 0 9 -6 10 -12z m-865 -58 c22 0 23 -2 14 -20 -6 -12 -10 -33 -8
-48 2 -23 7 -27 31 -25 18 1 27 -3 27 -13 0 -9 11 -14 31 -14 17 0 28 -4 24
-10 -3 -5 -25 -10 -47 -10 -44 0 -88 29 -88 58 0 8 -11 28 -25 44 -26 30 -25
54 2 44 8 -3 26 -6 39 -6z m484 6 c0 -3 -4 -8 -10 -11 -5 -3 -10 -1 -10 4 0 6
5 11 10 11 6 0 10 -2 10 -4z m-340 -21 c-7 -8 -17 -15 -22 -15 -6 0 -5 7 2 15
7 8 17 15 22 15 6 0 5 -7 -2 -15z m291 -88 c-17 -17 -24 -1 -10 25 12 21 14
21 17 4 2 -10 -1 -23 -7 -29z m-306 23 c-3 -5 -13 -10 -21 -10 -8 0 -12 5 -9
10 3 6 13 10 21 10 8 0 12 -4 9 -10z m851 -18 c12 -9 25 -27 28 -39 6 -17 0
-27 -31 -47 -21 -14 -43 -26 -50 -26 -23 0 -14 30 12 40 33 12 43 39 22 55
-17 12 -23 35 -9 35 4 0 17 -8 28 -18z m1455 -16 c-13 -14 -41 -60 -62 -103
-22 -43 -37 -66 -34 -51 9 45 66 158 88 173 30 21 34 9 8 -19z m-2127 8 c14
-14 14 -18 1 -44 -8 -16 -15 -43 -15 -60 0 -34 -10 -37 -44 -15 -23 15 -23 16
-8 63 24 73 37 85 66 56z m2129 -112 c-26 -50 -50 -89 -52 -86 -6 5 38 102 66
147 44 69 35 32 -14 -61z m-2469 64 c18 -13 48 -21 83 -22 60 -2 82 -14 61
-31 -15 -12 -229 45 -235 62 -5 18 61 11 91 -9z m2960 14 c42 -14 147 -124
176 -186 13 -27 40 -78 61 -114 21 -36 41 -82 44 -103 7 -37 7 -37 -20 -27
-14 5 -40 10 -56 10 -16 0 -29 2 -29 4 0 2 -3 12 -7 21 -5 15 -1 16 25 11 39
-9 44 1 26 55 -17 49 -37 69 -70 69 -29 0 -38 14 -24 40 9 17 7 28 -11 56 -30
49 -58 64 -118 65 -60 2 -144 -35 -238 -104 -44 -33 -67 -60 -97 -115 -22 -40
-41 -70 -43 -69 -5 6 32 107 61 170 16 32 45 72 69 93 50 43 133 75 165 63 24
-9 37 3 28 26 -7 20 -21 19 -101 -6 -73 -22 -145 -79 -187 -147 -12 -20 -24
-30 -26 -24 -12 36 118 171 192 200 56 22 135 27 180 12z m-2054 -9 c0 -12
-29 -23 -41 -15 -5 3 -7 10 -4 15 8 12 45 12 45 0z m-366 -40 c26 -27 37 -46
34 -62 -3 -22 -7 -24 -53 -21 -73 5 -73 4 -40 110 7 20 19 14 59 -27z m1820
-3 c-10 -18 -19 -27 -22 -20 -4 14 26 67 35 59 2 -3 -3 -20 -13 -39z m-2524
22 c0 -5 -2 -10 -4 -10 -3 0 -8 5 -11 10 -3 6 -1 10 4 10 6 0 11 -4 11 -10z
m2100 -25 c0 -2 -11 -39 -25 -80 -14 -42 -23 -80 -20 -85 3 -5 0 -20 -6 -34
-9 -19 -9 -61 1 -178 18 -209 18 -233 0 -233 -12 0 -20 34 -37 150 -27 183
-24 307 13 428 7 22 74 51 74 32z m-1117 -32 c11 -10 -13 -32 -28 -27 -7 3
-22 1 -33 -5 -15 -8 -21 -26 -26 -81 -4 -38 -11 -70 -15 -70 -18 0 -33 31 -38
83 -5 49 -3 56 18 71 13 9 35 16 49 16 14 0 32 5 40 10 18 12 24 12 33 3z
m102 -3 c-3 -5 -13 -10 -21 -10 -8 0 -12 5 -9 10 3 6 13 10 21 10 8 0 12 -4 9
-10z m820 -7 c-43 -107 -54 -259 -28 -398 54 -293 57 -346 23 -423 -16 -37
-28 -52 -39 -50 -11 3 -15 12 -13 33 14 146 13 186 -3 241 -9 33 -20 64 -25
69 -4 6 -27 65 -50 133 -38 111 -42 130 -39 201 3 61 10 90 34 138 31 64 36
67 119 71 23 2 27 -1 21 -15z m73 6 c-2 -6 -8 -10 -13 -10 -5 0 -11 4 -13 10
-2 6 4 11 13 11 9 0 15 -5 13 -11z m-2002 -43 c-7 -15 -20 -54 -27 -87 -16
-72 -34 -78 -24 -8 9 64 43 145 56 132 6 -6 4 -20 -5 -37z m1204 20 c-43 -28
-80 -41 -80 -27 0 14 33 31 59 31 12 0 21 5 21 10 0 6 8 10 17 10 12 0 6 -8
-17 -24z m1166 -27 c-9 -19 -15 -26 -16 -17 0 23 22 75 26 62 3 -6 -2 -26 -10
-45z m-2248 5 c20 -8 61 -20 91 -25 30 -4 59 -13 64 -18 12 -12 -28 -97 -49
-105 -22 -8 -31 -1 -54 44 -22 42 -43 53 -95 49 -44 -4 -50 3 -30 40 18 36 22
37 73 15z m267 3 c27 -7 45 -16 40 -19 -13 -8 -109 8 -132 21 -15 9 -13 10 12
11 17 0 52 -6 80 -13z m2749 -15 c3 -5 -23 -21 -57 -38 -42 -20 -92 -58 -160
-124 l-99 -94 38 73 c31 61 47 79 98 114 80 55 168 89 180 69z m-2582 -13 c12
-6 50 -11 84 -11 44 0 67 -5 76 -15 11 -14 5 -15 -52 -9 -89 10 -170 27 -170
38 0 12 38 10 62 -3z m683 -14 c-1 -14 -53 -38 -66 -30 -16 11 22 46 45 43 12
-2 21 -7 21 -13z m-787 -34 c10 -6 0 -15 -35 -32 -35 -18 -49 -31 -51 -49 -3
-19 -16 -31 -55 -49 -29 -14 -64 -33 -78 -43 -19 -15 -31 -17 -50 -9 -40 15
-102 83 -105 114 -2 28 0 27 45 -22 40 -43 53 -51 83 -51 51 0 94 25 107 63
21 61 98 104 139 78z m2757 -1 c12 -19 -15 -39 -43 -34 -36 7 -148 -44 -202
-92 -22 -20 -52 -56 -66 -79 -13 -23 -33 -50 -43 -59 -16 -14 -15 -9 6 34 46
97 213 232 280 228 18 -1 35 1 39 5 10 10 22 9 29 -3z m-1247 -102 c0 -71 6
-135 21 -205 11 -55 21 -114 20 -130 l-1 -28 -9 30 c-34 113 -63 408 -42 428
12 13 12 8 11 -95z m-1260 57 c63 -14 31 -35 -52 -35 -44 0 -57 4 -77 26 l-24
26 60 -5 c33 -3 75 -8 93 -12z m523 2 c-1 -4 -1 -25 -1 -47 0 -22 -4 -40 -10
-40 -5 0 -10 23 -10 51 0 32 4 49 11 47 6 -2 10 -7 10 -11z m224 -9 c-25 -80
-27 -118 -12 -185 8 -37 13 -70 11 -72 -11 -11 -29 23 -30 57 -1 20 -5 70 -9
110 -7 62 -5 75 10 92 24 27 39 25 30 -2z m-295 -16 c0 -33 -22 -68 -38 -58
-7 4 -5 19 5 46 19 47 33 52 33 12z m1536 -44 c-13 -150 -31 -191 -103 -241
-57 -39 -69 -33 -30 16 18 23 44 60 57 82 26 45 70 169 70 197 0 10 3 18 6 18
4 0 4 -33 0 -72z m-2195 44 c15 -9 39 -26 53 -36 21 -15 42 -18 93 -17 68 2
93 -10 71 -36 -16 -20 -61 -16 -131 12 -43 18 -77 24 -112 23 -41 -3 -50 0
-53 15 -4 20 24 57 42 57 6 0 23 -8 37 -18z m-721 -1 c0 -5 -9 -7 -20 -4 -11
3 -20 7 -20 9 0 2 9 4 20 4 11 0 20 -4 20 -9z m1575 -1 c7 -11 -12 -50 -24
-50 -11 0 -31 46 -24 54 10 9 41 7 48 -4z m-555 -31 c18 -66 20 -79 11 -79 -8
0 -41 81 -41 103 0 18 24 0 30 -24z m2370 17 c0 -29 -13 -46 -34 -46 -45 0
-123 -50 -176 -113 -45 -53 -127 -116 -152 -117 -18 0 -6 19 15 26 41 13 89
57 119 111 35 62 74 97 143 129 57 27 85 30 85 10z m-3469 -23 c72 -6 84 -19
81 -89 -2 -40 3 -65 16 -88 15 -25 18 -42 13 -86 -4 -30 -11 -54 -16 -54 -6 1
-21 5 -34 9 -17 5 -22 4 -19 -6 3 -8 18 -16 34 -19 24 -4 29 -10 30 -35 1 -59
4 -66 46 -111 38 -42 40 -46 28 -70 -12 -22 -11 -31 19 -89 30 -59 33 -70 26
-117 -8 -60 -8 -492 1 -553 12 -86 24 -114 54 -130 36 -19 37 -32 10 -173 -22
-111 -26 -246 -10 -302 6 -19 23 -49 39 -66 25 -28 37 -33 100 -39 39 -4 71
-10 71 -14 0 -4 -11 -18 -24 -30 -25 -24 -35 -24 -121 -5 -16 3 -61 27 -100
53 -63 42 -71 51 -84 96 -19 65 -18 266 0 320 10 28 21 41 36 43 23 3 35 23
25 38 -7 10 -138 67 -179 79 -23 6 -39 38 -28 55 4 6 -1 23 -10 37 -32 48 -36
83 -15 113 24 33 25 49 6 76 -11 15 -12 30 -6 60 5 21 10 56 10 78 0 21 5 56
12 77 10 33 9 42 -6 58 -19 21 -19 -2 3 346 9 149 4 277 -15 343 -6 19 -3 22
25 22 43 0 39 18 -6 25 -61 10 -67 13 -54 29 6 7 22 11 36 8 14 -2 25 0 25 5
0 12 -45 33 -70 33 -11 0 -20 7 -20 15 0 11 10 13 49 8 68 -8 72 11 6 27 -45
11 -55 17 -55 34 0 16 3 17 9 7 5 -7 33 -15 62 -18z m3579 -116 c16 -76 13
-131 -10 -160 -22 -28 -26 -52 -9 -63 6 -3 7 -10 2 -15 -8 -8 -93 18 -109 34
-4 3 -1 14 6 22 8 10 13 38 11 73 -1 32 5 76 13 101 9 24 16 53 16 65 0 12 6
28 13 35 18 18 54 -31 67 -92z m-3320 57 c0 -8 -4 -14 -10 -14 -5 0 -10 9 -10
21 0 11 5 17 10 14 6 -3 10 -13 10 -21z m381 -26 c-25 -19 -51 -24 -51 -8 0
13 53 40 64 32 5 -3 -1 -13 -13 -24z m1159 5 c0 -21 -3 -24 -9 -14 -5 8 -7 20
-4 28 8 21 13 15 13 -14z m-1384 -13 c19 -16 47 -33 62 -36 32 -8 42 -20 42
-54 0 -25 -16 -50 -31 -50 -4 0 -13 16 -19 35 -11 34 -19 39 -75 47 -20 3 -36
48 -27 76 6 17 10 16 48 -18z m2428 -27 c-28 -45 -38 -52 -103 -69 -11 -3 -11
-7 -1 -19 19 -22 42 -18 80 15 19 16 39 29 43 30 13 0 -56 -91 -76 -102 -30
-16 -63 -1 -77 33 -16 37 -4 63 28 65 29 2 66 27 99 68 38 48 42 36 7 -21z
m-1422 -9 c-6 -67 -21 -75 -22 -11 0 43 3 57 13 54 7 -2 11 -18 9 -43z m1928
21 c-13 -14 -28 -25 -34 -25 -11 1 40 50 51 50 4 0 -4 -11 -17 -25z m-2299
-12 c18 -47 23 -130 10 -162 -8 -17 -23 -32 -38 -35 -15 -4 -30 -19 -39 -42
-17 -40 -28 -40 -51 -3 -15 24 -14 28 19 77 44 62 54 111 34 150 -18 34 -13
42 26 42 22 0 31 -6 39 -27z m-731 -24 c0 -17 -23 -20 -38 -6 -13 14 -13 18
-2 32 13 16 15 15 27 -1 7 -10 13 -21 13 -25z m940 -73 c94 -105 119 -160 124
-274 4 -73 5 -77 27 -77 13 0 36 -8 51 -19 27 -17 58 -16 58 2 0 5 -9 17 -20
27 -25 23 -25 40 1 127 13 43 25 66 31 60 14 -14 14 -45 -1 -88 -9 -29 -10
-54 -3 -93 9 -47 1 -111 -13 -111 -2 0 -24 14 -49 31 -25 16 -62 33 -81 36
-29 5 -40 13 -54 42 -11 22 -17 48 -14 68 4 21 -3 49 -21 85 -28 57 -32 65
-89 149 -37 55 -62 136 -39 128 6 -2 47 -44 92 -93z m315 84 c3 -5 1 -10 -4
-10 -6 0 -11 5 -11 10 0 6 2 10 4 10 3 0 8 -4 11 -10z m-75 -29 c0 -23 -29
-62 -31 -41 -2 19 1 41 6 58 6 18 25 5 25 -17z m2259 -2 c6 -18 11 -44 11 -58
0 -15 5 -32 11 -38 6 -6 11 -30 13 -55 2 -30 9 -51 24 -66 45 -45 15 -174 -47
-206 -16 -9 -38 -16 -49 -16 -34 0 -117 -32 -134 -52 -10 -11 -18 -31 -18 -44
0 -33 -15 -30 -30 6 -11 25 -10 34 5 57 35 56 57 72 104 79 63 9 88 27 101 74
9 32 8 54 -4 101 -14 54 -14 62 0 84 16 24 11 56 -19 122 -9 21 -3 43 13 43 4
0 13 -14 19 -31z m-375 6 c-4 -8 -15 -15 -26 -15 -17 0 -18 3 -8 15 7 8 19 15
26 15 8 0 11 -6 8 -15z m286 5 c0 -5 -4 -10 -9 -10 -6 0 -13 5 -16 10 -3 6 1
10 9 10 9 0 16 -4 16 -10z m-3748 -27 c19 -24 41 -99 34 -121 -3 -10 -8 -78
-10 -152 -3 -91 -10 -150 -21 -180 -14 -37 -17 -103 -22 -377 -3 -238 -1 -343
7 -368 6 -20 37 -62 69 -95 49 -52 61 -60 93 -60 41 0 55 -12 35 -29 -10 -8
-19 -7 -33 4 -10 8 -32 15 -48 15 -35 0 -89 32 -115 68 -21 31 -63 135 -81
202 -30 115 -6 420 45 585 34 111 55 236 55 332 0 57 -27 128 -61 159 -10 9
-19 21 -19 26 0 15 57 8 72 -9z m2592 2 c3 -8 1 -15 -4 -15 -6 0 -10 7 -10 15
0 8 2 15 4 15 2 0 6 -7 10 -15z m-2184 -71 c0 -16 -9 -17 -29 -5 -8 5 -11 16
-7 26 5 14 9 15 21 5 8 -7 15 -19 15 -26z m3030 23 c0 -10 -81 -47 -104 -47
-30 0 64 58 97 60 4 0 7 -6 7 -13z m-3145 -7 c3 -5 -1 -10 -9 -10 -9 0 -16 5
-16 10 0 6 4 10 9 10 6 0 13 -4 16 -10z m1516 -45 c7 -13 1 -10 -15 8 -14 15
-26 33 -26 40 1 13 26 -16 41 -48z m799 18 c0 -7 -4 -13 -10 -13 -5 0 -10 12
-10 28 0 21 2 24 10 12 5 -8 10 -21 10 -27z m1419 -52 l2 -81 -29 0 c-20 0
-35 9 -50 30 -12 16 -22 32 -22 35 0 12 83 104 89 100 4 -2 8 -40 10 -84z
m-2459 53 c0 -8 -4 -12 -10 -9 -5 3 -10 10 -10 16 0 5 5 9 10 9 6 0 10 -7 10
-16z m2220 -20 c0 -8 -4 -12 -10 -9 -5 3 -10 13 -10 21 0 8 5 12 10 9 6 -3 10
-13 10 -21z m-2280 -35 c0 -42 -14 -52 -25 -18 -9 26 2 72 15 64 6 -3 10 -24
10 -46z m1562 29 c13 -19 18 -20 46 -10 18 6 32 7 32 3 0 -13 -107 -54 -119
-46 -15 8 -14 48 1 63 17 17 23 15 40 -10z m-2084 0 c-6 -17 -65 -51 -79 -46
-6 2 7 15 28 30 43 29 57 34 51 16z m2462 3 c0 -14 -18 -23 -30 -16 -6 4 -8
11 -5 16 8 12 35 12 35 0z m-2206 -18 c5 -11 -2 -24 -20 -38 l-27 -22 56 -61
c32 -34 57 -68 57 -75 0 -7 14 -35 30 -61 17 -26 28 -51 25 -55 -2 -5 -30 -21
-60 -36 -31 -15 -68 -37 -83 -49 -15 -13 -42 -26 -61 -29 -29 -6 -32 -5 -26
11 12 31 10 35 -14 41 -21 6 -22 8 -7 20 9 7 16 20 16 27 0 22 -37 16 -86 -12
-25 -15 -48 -23 -52 -19 -4 4 -2 9 3 11 33 13 129 72 133 82 5 17 -33 15 -69
-4 -51 -26 -43 -9 11 26 50 32 57 50 19 50 -23 0 -23 -2 0 54 15 34 29 49 55
60 26 11 40 26 52 55 17 43 37 53 48 24z m2476 -4 c0 -5 -7 -9 -15 -9 -15 0
-20 12 -9 23 8 8 24 -1 24 -14z m-1799 -9 c18 0 76 -87 85 -128 5 -24 0 -21
-41 23 -41 45 -107 148 -74 118 7 -7 20 -13 30 -13z m1050 -31 c4 -24 4 -45 0
-47 -35 -14 -78 -52 -128 -114 -75 -93 -84 -109 -81 -149 3 -30 1 -32 -37 -36
-93 -10 -188 -82 -236 -179 -18 -35 -35 -63 -40 -62 -26 10 -129 101 -129 114
0 12 61 136 76 152 1 2 26 -1 55 -7 l53 -12 38 38 c22 21 48 53 60 71 11 18
33 39 49 48 37 19 99 104 120 164 l15 45 71 5 c39 3 75 8 79 13 16 16 29 -1
35 -44z m314 30 c11 -17 -16 -69 -35 -69 -26 0 -50 10 -50 22 0 13 51 58 66
58 7 0 16 -5 19 -11z m-2996 -21 c-1 -13 -5 -36 -9 -53 l-7 -30 -11 28 c-19
45 -15 77 8 77 14 0 20 -6 19 -22z m161 13 c0 -20 -30 -33 -62 -26 l-32 8 34
12 c44 16 60 17 60 6z m1227 -23 c-3 -8 -6 -5 -6 6 -1 11 2 17 5 13 3 -3 4
-12 1 -19z m1822 -3 c100 -27 141 -47 181 -90 17 -18 21 -28 13 -36 -8 -8 -24
-2 -60 22 -38 27 -62 35 -118 41 -100 10 -175 34 -175 57 0 39 29 40 159 6z
m-879 -37 c0 -18 -5 -40 -10 -48 -7 -11 -10 -2 -10 33 0 26 5 47 10 47 6 0 10
-15 10 -32z m525 1 c9 -26 4 -30 -75 -65 -36 -15 -81 -38 -100 -51 -34 -23
-70 -30 -70 -15 0 10 64 71 112 106 63 47 123 58 133 25z m-1385 2 c0 -16 -12
-41 -20 -41 -4 0 -5 11 -2 25 4 23 22 36 22 16z m250 -161 c116 -142 259 -304
273 -309 14 -4 238 -190 249 -205 4 -6 3 -15 -2 -20 -12 -12 -123 57 -174 108
-123 123 -344 379 -406 471 -26 39 -57 79 -69 89 -11 11 -21 24 -21 30 1 13
44 -34 150 -164z m-1045 130 c8 -16 24 -34 35 -40 11 -6 18 -15 15 -21 -10
-14 -45 9 -55 37 -5 13 -17 27 -25 30 -19 8 -20 24 0 24 8 0 21 -13 30 -30z
m575 -24 c-5 -15 -14 -25 -20 -21 -5 3 -2 20 8 42 19 40 29 23 12 -21z m1998
-15 c29 -1 79 -30 87 -49 3 -8 -10 -47 -29 -86 -31 -64 -34 -78 -31 -146 l3
-74 33 -9 c32 -8 36 -6 94 57 46 52 66 67 88 66 30 0 37 -19 8 -27 -21 -5 -87
-82 -100 -115 -5 -14 -4 -36 4 -59 12 -32 11 -40 -8 -74 -18 -31 -33 -42 -76
-57 -30 -10 -62 -25 -72 -34 -11 -10 -25 -13 -39 -9 -17 5 -29 0 -51 -25 -16
-17 -29 -35 -29 -40 0 -5 -9 -14 -20 -20 -15 -8 -19 -17 -15 -31 6 -17 3 -19
-20 -13 -26 6 -27 5 -20 -25 6 -30 6 -31 -24 -25 -26 6 -31 3 -31 -13 0 -10
-5 -24 -12 -31 -9 -9 -9 -18 0 -37 18 -39 -3 -31 -63 24 -61 55 -163 101 -225
101 -51 0 -57 14 -32 77 18 44 55 137 128 328 34 90 172 363 194 385 16 16 24
15 126 -11 60 -15 120 -28 132 -28z m-2708 39 c0 -5 -5 -10 -11 -10 -5 0 -7 5
-4 10 3 6 8 10 11 10 2 0 4 -4 4 -10z m-428 -26 c10 -21 9 -27 -3 -35 -23 -14
-36 -10 -42 13 -6 22 7 48 24 48 5 0 15 -12 21 -26z m173 -14 c3 -5 0 -10 -7
-10 -7 0 -30 -3 -50 -6 -24 -4 -38 -3 -38 4 0 10 23 16 72 21 9 0 20 -3 23 -9z
m300 4 c9 -4 25 -24 36 -45 12 -25 29 -41 45 -45 23 -6 24 -8 11 -22 -20 -19
-41 -5 -90 60 -39 50 -39 66 -2 52z m2315 -18 c-5 -14 -32 -69 -59 -124 -28
-55 -51 -103 -51 -108 0 -5 -7 -22 -15 -37 -8 -16 -24 -57 -34 -90 -11 -34
-32 -93 -46 -132 -15 -38 -36 -95 -47 -125 -11 -30 -26 -61 -33 -69 -26 -27
-30 16 -7 72 12 29 31 82 42 118 21 69 106 261 183 416 39 77 52 94 74 102 1
1 -2 -10 -7 -23z m791 -56 c-19 -87 -75 -144 -138 -142 -21 0 -56 1 -78 1 -50
1 -31 14 43 30 103 22 145 61 158 150 6 39 8 42 15 23 5 -13 5 -41 0 -62z
m-3216 30 c30 -13 50 -31 68 -63 15 -25 36 -49 47 -52 25 -8 25 -21 0 -35 -27
-15 -54 1 -85 50 -30 47 -57 66 -107 75 -40 8 -64 28 -53 45 9 14 74 4 130
-20z m2999 -11 c-9 -10 -27 -19 -38 -19 -18 1 -16 4 14 30 37 30 55 23 24 -11z
m-686 3 c-1 -4 -11 -28 -22 -55 -16 -41 -22 -47 -48 -47 -16 0 -43 -7 -59 -16
-17 -8 -35 -14 -41 -12 -6 2 16 17 48 34 44 22 58 34 56 47 -4 24 25 57 50 57
11 0 18 -3 16 -8z m-2515 -37 c2 -12 -90 -28 -111 -20 -24 9 -2 23 43 28 53 5
66 4 68 -8z m1623 -82 c-14 -28 -14 -28 -9 17 7 63 16 82 21 43 2 -18 -3 -45
-12 -60z m-1844 52 c12 -26 4 -46 -11 -29 -5 5 -12 19 -16 32 -9 31 12 29 27
-3z m2172 -32 c-18 -37 -54 -58 -54 -32 0 14 61 81 68 74 2 -2 -4 -21 -14 -42z
m-1777 -15 c15 -24 35 -52 45 -63 17 -20 17 -22 -8 -48 -28 -31 -32 -32 -56
-13 -22 16 -23 52 -3 60 23 8 18 40 -10 66 -28 27 -32 40 -10 40 8 0 27 -19
42 -42z m941 -3 c16 -34 15 -56 -3 -79 -30 -39 -12 -169 27 -198 44 -34 47
-38 42 -53 -10 -24 -33 -18 -69 18 -37 37 -55 89 -55 160 0 50 29 177 40 177
4 0 12 -11 18 -25z m-1068 -5 c0 -5 -6 -10 -14 -10 -7 0 -19 -6 -25 -14 -9
-11 -8 -18 4 -30 15 -15 15 -16 0 -16 -10 0 -26 11 -37 25 -11 14 -27 25 -36
26 -10 0 -5 6 13 14 35 16 95 19 95 5z m-177 -17 c-7 -2 -21 -2 -30 0 -10 3
-4 5 12 5 17 0 24 -2 18 -5z m991 -27 c-4 -18 0 -28 17 -40 30 -21 34 -20 58
6 l20 21 11 -29 c6 -16 8 -46 4 -68 l-6 -40 -15 27 c-7 15 -19 27 -26 27 -30
0 -35 -22 -30 -129 5 -103 -4 -185 -26 -245 -11 -28 -12 -28 -32 -10 -21 19
-22 19 -38 -5 -33 -50 -48 -64 -60 -57 -9 6 -8 13 3 32 16 23 22 95 9 107 -12
12 -42 -25 -49 -59 -7 -37 -19 -51 -29 -34 -4 6 1 20 10 30 11 12 15 31 13 61
-3 39 -6 44 -25 42 -17 -2 -23 2 -23 17 0 45 -58 31 -61 -14 -1 -11 -5 -3 -8
19 -6 37 -8 40 -39 41 -34 1 -76 30 -66 46 3 5 22 20 42 33 21 14 66 47 102
75 36 28 91 60 123 72 64 23 73 38 25 39 l-33 0 24 17 c26 18 78 40 99 41 8 1
10 -7 6 -23z m476 14 c0 -5 -4 -10 -9 -10 -6 0 -13 5 -16 10 -3 6 1 10 9 10 9
0 16 -4 16 -10z m1108 -7 c-2 -11 -16 -20 -38 -23 -20 -4 -42 -10 -50 -15 -13
-8 -13 -6 -1 8 7 9 19 17 26 17 7 0 18 7 25 15 17 21 42 19 38 -2z m-1238 -14
c0 -5 -4 -9 -10 -9 -5 0 -10 7 -10 16 0 8 5 12 10 9 6 -3 10 -10 10 -16z m518
-21 c-5 -13 -67 -33 -75 -24 -3 3 -3 12 0 21 8 19 81 22 75 3z m1608 -24 c-15
-14 -31 -23 -34 -20 -9 9 30 46 47 46 11 -1 8 -8 -13 -26z m-3503 9 c-7 -2
-19 -2 -25 0 -7 3 -2 5 12 5 14 0 19 -2 13 -5z m647 -8 c-7 -8 -18 -15 -24
-15 -6 0 -2 7 8 15 25 19 32 19 16 0z m1290 -2 c0 -5 -9 -23 -20 -41 -17 -28
-23 -32 -36 -21 -13 10 -10 16 18 40 37 31 38 32 38 22z m-610 -18 c0 -8 -4
-15 -10 -15 -5 0 -7 7 -4 15 4 8 8 15 10 15 2 0 4 -7 4 -15z m1062 -75 c-1
-47 2 -123 7 -170 4 -47 6 -88 4 -92 -2 -4 -20 4 -40 17 -42 29 -57 30 -97 10
-38 -20 -36 -20 -90 20 -38 30 -46 41 -46 69 0 86 113 216 187 216 17 0 35 5
38 11 4 5 14 9 22 7 13 -2 16 -18 15 -88z m198 82 c0 -15 -24 -32 -45 -32 -12
0 -27 -6 -34 -12 -11 -11 -12 -10 -6 0 7 14 64 52 78 52 4 0 7 -4 7 -8z
m-2049 -25 c-13 -13 -26 -3 -16 12 3 6 11 8 17 5 6 -4 6 -10 -1 -17z m887 -6
c3 -8 -1 -12 -9 -9 -7 2 -15 10 -17 17 -3 8 1 12 9 9 7 -2 15 -10 17 -17z
m152 9 c0 -5 -5 -10 -11 -10 -5 0 -7 5 -4 10 3 6 8 10 11 10 2 0 4 -4 4 -10z
m-89 -33 c-8 -8 -11 -7 -11 4 0 20 13 34 18 19 3 -7 -1 -17 -7 -23z m-731 4
c0 -13 -138 -121 -155 -121 -29 0 -14 19 62 74 75 55 93 64 93 47z m-720 -4
c0 -16 -34 -66 -41 -62 -14 9 -11 26 8 47 14 16 33 24 33 15z m2508 -42 c-11
-25 -44 -42 -56 -30 -7 7 46 55 60 55 4 0 2 -11 -4 -25z m-2044 -38 c28 -38
11 -54 -38 -36 -41 15 -42 16 -20 47 19 27 31 25 58 -11z m1057 -11 c-25 -24
-47 -10 -36 23 5 17 9 19 31 9 l25 -12 -20 -20z m109 -17 c0 -18 -10 -8 -25
24 l-16 32 21 -24 c11 -13 20 -27 20 -32z m-445 -25 c26 -49 84 -87 127 -82
39 4 50 -22 22 -53 -16 -17 -19 -18 -26 -4 -13 23 -37 18 -50 -10 -12 -27 2
-55 28 -55 26 0 104 85 104 113 0 14 4 28 8 31 5 3 46 -53 91 -124 100 -158
196 -262 308 -336 56 -37 83 -60 79 -70 -3 -7 -8 -37 -12 -66 -4 -29 -11 -59
-17 -65 -5 -7 -31 -13 -57 -13 -82 0 -106 -22 -52 -48 67 -33 105 -42 137 -33
27 7 37 4 71 -20 56 -40 206 -144 292 -202 104 -71 241 -194 280 -252 37 -57
42 -112 16 -180 -8 -22 -20 -55 -25 -73 -6 -19 -19 -48 -29 -65 -11 -18 -31
-52 -45 -77 -61 -107 -159 -220 -191 -220 -26 0 -30 -10 -12 -28 19 -19 -9
-44 -34 -31 -32 17 -45 -4 -24 -36 22 -33 14 -43 -19 -25 -36 20 -55 0 -26
-29 26 -26 18 -55 -15 -47 -26 7 -42 -10 -25 -27 13 -13 -4 -37 -25 -37 -17 0
-17 -5 -2 -29 17 -28 -6 -54 -43 -46 -37 8 -46 -11 -18 -41 24 -26 19 -39 -16
-46 -15 -3 -20 -11 -20 -35 0 -19 -12 -49 -31 -75 -25 -35 -41 -47 -77 -58
-26 -7 -53 -10 -62 -7 -21 8 -45 -2 -45 -19 0 -18 -14 -18 -30 0 -10 13 -17
12 -52 -6 -22 -12 -42 -27 -45 -34 -3 -8 -13 -14 -23 -14 -31 0 -39 -21 -28
-73 8 -41 7 -51 -8 -68 -9 -10 -26 -19 -36 -19 -14 0 -18 -5 -13 -19 13 -43
-100 -70 -145 -33 -16 13 -23 32 -27 78 -5 54 -2 69 32 148 21 48 54 106 72
129 25 30 33 47 28 64 -4 17 -1 23 12 23 24 0 53 -30 53 -55 0 -32 24 -49 48
-36 43 23 72 71 72 117 0 40 5 49 47 89 26 25 51 45 56 45 5 0 38 28 73 62 35
35 71 70 80 78 30 29 124 183 174 285 55 112 56 126 17 193 -18 30 -19 39 -8
89 7 30 10 57 7 60 -3 3 -1 14 5 24 7 13 6 26 -2 42 -17 33 -17 33 -48 3 -36
-35 -60 -26 -31 11 24 30 26 53 5 53 -17 0 -35 -30 -35 -59 0 -30 -42 -28
-193 8 -67 16 -159 37 -204 45 -46 9 -119 23 -163 32 -45 8 -88 13 -98 10 -53
-17 -141 100 -127 170 3 18 12 37 20 44 22 18 18 32 -7 28 -29 -4 -68 -63 -68
-103 0 -43 49 -117 103 -154 35 -23 57 -31 91 -31 36 0 48 -4 56 -21 7 -11 10
-22 8 -24 -2 -2 -68 18 -148 45 l-145 48 3 44 c3 41 1 45 -32 61 -27 12 -36
23 -36 41 0 26 -33 56 -62 56 -9 0 -20 5 -24 11 -4 6 -8 74 -10 151 -2 77 -8
165 -14 196 -5 31 -10 102 -11 157 -1 69 -6 107 -16 123 -20 32 -13 43 50 85
72 48 114 97 127 149 5 24 14 57 19 73 5 17 12 46 16 65 15 83 21 87 50 34z
m1285 -13 c-6 -12 -17 -21 -26 -21 -11 0 -12 4 -4 19 9 18 31 32 38 25 2 -1
-1 -12 -8 -23z m-746 10 c3 -5 -1 -12 -10 -15 -25 -10 -34 -7 -34 9 0 16 35
21 44 6z m-1154 -42 c0 -5 -4 -9 -10 -9 -5 0 -10 7 -10 16 0 8 5 12 10 9 6 -3
10 -10 10 -16z m900 11 c0 -5 -2 -10 -4 -10 -3 0 -8 5 -11 10 -3 6 -1 10 4 10
6 0 11 -4 11 -10z m55 0 c-3 -5 -11 -10 -16 -10 -6 0 -7 5 -4 10 3 6 11 10 16
10 6 0 7 -4 4 -10z m165 -35 c55 8 78 -9 24 -18 -53 -9 -108 12 -112 43 l-4
25 22 -28 c21 -26 26 -28 70 -22z m-1204 19 c21 6 24 3 24 -23 0 -27 -27 -55
-60 -63 -13 -3 -42 80 -34 94 3 4 14 3 26 -3 11 -6 31 -8 44 -5z m-453 -67
c14 -21 13 -23 -7 -24 -11 -1 -33 -16 -47 -32 -14 -17 -31 -31 -39 -31 -10 0
-9 5 3 18 10 10 17 23 17 29 0 13 39 63 50 63 4 0 14 -10 23 -23z m1873 -34
c-7 -7 -26 7 -26 19 0 6 6 6 15 -2 9 -7 13 -15 11 -17z m-159 9 c6 -4 16 -20
22 -35 10 -25 7 -32 -24 -65 -37 -40 -49 -26 -15 18 24 30 25 44 5 60 -26 21
-16 40 12 22z m-1600 -44 c15 -17 15 -18 -5 -18 -12 0 -36 13 -54 30 l-33 29
37 -11 c21 -6 45 -20 55 -30z m2143 22 c0 -5 -11 -10 -25 -10 -14 0 -25 5 -25
10 0 6 11 10 25 10 14 0 25 -4 25 -10z m-1719 -21 c9 -17 8 -25 -6 -38 -15
-15 -18 -14 -36 8 -15 18 -17 27 -8 37 17 20 37 17 50 -7z m186 -21 c-3 -8 -6
-5 -6 6 -1 11 2 17 5 13 3 -3 4 -12 1 -19z m821 -7 c3 -8 -1 -12 -9 -9 -7 2
-15 10 -17 17 -3 8 1 12 9 9 7 -2 15 -10 17 -17z m-1518 -26 c19 -20 48 -37
67 -41 39 -7 45 -34 9 -34 -14 0 -46 11 -71 24 -38 21 -51 23 -75 14 -17 -5
-33 -14 -36 -19 -8 -13 -24 -11 -24 3 0 15 70 88 85 88 6 0 26 -16 45 -35z
m2200 15 c0 -5 -7 -10 -15 -10 -8 0 -15 5 -15 10 0 6 7 10 15 10 8 0 15 -4 15
-10z m-659 -23 c-1 -12 -15 -9 -19 4 -3 6 1 10 8 8 6 -3 11 -8 11 -12z m337
-9 c7 -7 11 -36 10 -67 -1 -41 -2 -46 -5 -21 -3 19 -14 45 -25 57 -28 30 -9
60 20 31z m-1440 -31 c15 -31 9 -47 -18 -47 -22 0 -34 31 -25 61 8 26 26 20
43 -14z m1611 10 c12 -15 5 -27 -16 -27 -7 0 -13 9 -13 20 0 23 13 26 29 7z
m-1283 -93 c13 -23 22 -48 19 -56 -11 -27 -46 -252 -50 -323 -6 -79 -22 -217
-30 -255 -3 -14 -8 -63 -12 -109 -6 -78 -5 -85 16 -100 21 -16 21 -51 1 -51
-5 0 -39 -20 -76 -45 -37 -25 -68 -44 -69 -43 -2 2 -5 82 -9 179 -6 169 -5
177 15 203 21 26 21 27 3 48 -17 19 -19 37 -17 217 4 273 14 375 42 405 l22
24 60 -26 c48 -20 66 -35 85 -68z m-240 59 c-13 -66 -15 -94 -17 -230 -1 -124
-3 -146 -20 -167 -23 -29 -24 -42 -5 -49 22 -9 31 -158 16 -261 -7 -47 -16
-86 -20 -86 -12 0 -29 111 -25 161 1 24 0 48 -3 53 -10 18 -10 71 1 85 9 10 7
16 -7 27 -12 8 -16 19 -12 30 4 10 1 21 -6 25 -10 6 -10 11 -1 20 6 6 9 18 6
25 -3 8 0 21 6 28 10 11 8 17 -6 25 -17 10 -16 12 7 30 23 18 23 20 6 27 -17
6 -17 8 -2 16 13 8 15 13 5 24 -9 11 -8 15 5 20 18 7 21 35 6 50 -13 13 4 78
29 105 11 12 21 30 21 39 0 16 8 30 17 30 3 0 2 -12 -1 -27z m1224 12 c13 -16
4 -58 -13 -52 -18 6 -31 33 -24 51 8 20 21 21 37 1z m620 -33 c0 -14 -5 -22
-12 -20 -10 4 -14 32 -9 66 3 16 21 -24 21 -46z m-108 6 c-7 -7 -12 -8 -12 -2
0 6 3 14 7 17 3 4 9 5 12 2 2 -3 -1 -11 -7 -17z m-2276 -29 c32 -26 45 -30 77
-26 27 4 37 1 37 -8 0 -18 -7 -22 -51 -30 -32 -6 -41 -3 -73 26 -33 28 -40 31
-62 20 -56 -25 -62 -1 -6 28 20 11 38 20 38 21 1 0 19 -14 40 -31z m2602 -9
c52 -22 103 -47 113 -56 22 -20 44 -73 34 -82 -4 -4 -10 -2 -12 5 -8 24 -99
81 -186 118 -48 21 -90 41 -93 46 -12 21 55 6 144 -31z m-594 21 c4 -5 1 -22
-5 -38 -10 -27 -11 -27 -25 -9 -20 28 -18 56 5 56 11 0 22 -4 25 -9z m204 -44
c-20 -18 -38 -43 -40 -57 -4 -33 -32 -33 -36 1 -4 33 26 70 69 85 48 16 49 8
7 -29z m332 -27 c67 -29 120 -61 140 -85 12 -15 12 -18 -2 -26 -10 -6 -14 -17
-11 -30 5 -18 3 -20 -15 -14 -41 12 -44 -6 -7 -47 41 -44 40 -62 0 -30 -22 17
-31 19 -55 10 -40 -13 -39 -38 0 -38 21 0 30 -5 30 -16 0 -12 -7 -14 -30 -9
-29 6 -30 5 -25 -18 8 -29 -5 -34 -105 -43 -55 -4 -70 -2 -98 16 -31 19 -33
24 -27 59 3 20 1 58 -6 84 -6 26 -8 54 -5 63 6 15 8 15 27 -2 25 -23 41 -51
44 -79 1 -11 3 -23 4 -27 0 -4 10 -12 21 -18 25 -13 84 9 99 39 24 43 -20 140
-69 156 -10 3 -36 1 -59 -4 -40 -9 -41 -8 -41 17 0 14 11 38 25 52 23 24 31
26 68 20 23 -4 67 -17 97 -30z m-730 11 c0 -20 -30 -33 -57 -25 l-28 8 25 4
c14 2 29 8 35 13 12 11 25 12 25 0z m-1871 -35 c6 -8 25 -19 41 -26 19 -8 30
-20 30 -31 0 -18 -2 -19 -29 -5 -16 9 -31 22 -34 31 -4 8 -16 15 -27 15 -20 0
-26 11 -13 23 10 11 19 8 32 -7z m2041 -30 c0 -2 -5 -18 -11 -36 l-12 -33 -18
49 c-25 65 -24 69 11 44 17 -12 30 -23 30 -24z m-1834 3 c14 -23 -37 -38 -66
-19 -13 9 -13 11 0 20 20 13 57 13 66 -1z m1728 -25 c3 -9 6 -23 6 -31 0 -13
-3 -13 -15 -3 -16 13 -21 50 -6 50 5 0 12 -7 15 -16z m399 -138 c-11 -17 -53
44 -53 77 l0 32 30 -50 c16 -27 26 -53 23 -59z m-2193 84 c0 -5 -4 -10 -10
-10 -5 0 -10 5 -10 10 0 6 5 10 10 10 6 0 10 -4 10 -10z m70 -12 c0 -7 -8 -40
-18 -73 -17 -56 -20 -60 -46 -57 -15 2 -38 -4 -51 -12 -13 -9 -27 -16 -30 -16
-11 0 -4 38 10 50 13 10 11 16 -10 44 -14 18 -25 41 -25 51 0 18 1 17 23 -1
34 -30 71 -46 98 -42 19 2 25 10 27 36 3 30 22 47 22 20z m682 -151 c-2 -4 -9
-3 -16 3 -10 8 -11 20 -2 58 l11 47 5 -50 c3 -27 4 -54 2 -58z m-872 47 c0 -8
-5 -12 -10 -9 -6 4 -8 11 -5 16 9 14 15 11 15 -7z m2012 1 c7 -7 -11 -118 -21
-128 -5 -5 -11 3 -15 16 -3 14 -17 32 -31 41 -32 21 -32 38 0 30 20 -5 27 -1
36 20 12 25 20 31 31 21z m-1895 -111 c9 -24 -18 -43 -50 -37 -48 9 -24 44 36
52 4 1 10 -6 14 -15z m773 -5 c0 -11 -4 -17 -10 -14 -5 3 -10 13 -10 21 0 8 5
14 10 14 6 0 10 -9 10 -21z m-869 -169 c5 0 9 -5 9 -11 0 -15 -43 -7 -48 10
-3 10 0 12 12 8 10 -4 22 -7 27 -7z m984 -148 c0 -18 -20 -15 -23 4 -3 10 1
15 10 12 7 -3 13 -10 13 -16z m-112 -24 c17 -9 24 -28 9 -28 -5 0 -16 -6 -25
-12 -16 -12 -26 -71 -52 -334 -7 -71 8 -90 74 -87 28 1 53 -2 56 -7 10 -16 24
-12 47 15 30 35 37 31 31 -17 -7 -53 -14 -58 -64 -47 -21 5 -69 12 -106 17
l-68 7 -3 58 c-3 64 8 173 34 321 16 92 16 100 1 111 -35 25 17 28 66 3z
m-453 -10 c0 -19 -2 -20 -10 -8 -13 19 -13 30 0 30 6 0 10 -10 10 -22z m114
-65 c12 -103 11 -187 -3 -208 -12 -19 -12 -19 -8 2 3 12 -1 28 -9 34 -16 13
-18 155 -2 175 5 8 3 14 -8 18 -13 5 -14 9 -4 21 21 25 28 17 34 -42z m461 27
c3 -5 2 -10 -4 -10 -5 0 -13 5 -16 10 -3 6 -2 10 4 10 5 0 13 -4 16 -10z m53
-35 c-3 -3 -9 2 -12 12 -6 14 -5 15 5 6 7 -7 10 -15 7 -18z m-107 5 c28 -16
23 -30 -10 -30 -31 0 -47 13 -36 30 8 13 21 13 46 0z m89 -84 c41 -8 124 -30
184 -50 60 -20 115 -36 122 -36 8 0 14 -4 14 -9 0 -5 -57 -6 -127 -4 -120 5
-135 4 -242 -25 -63 -17 -118 -29 -122 -26 -4 2 -3 19 2 37 5 17 9 53 9 79 l0
48 43 0 c23 0 76 -7 117 -14z m-735 -16 c31 -19 65 -60 65 -77 0 -4 -18 10
-39 31 -50 49 -51 49 -251 -57 -174 -92 -279 -139 -292 -131 -5 3 -20 -1 -33
-10 -13 -9 -32 -16 -42 -16 -30 0 5 24 82 55 39 16 122 55 186 87 64 32 122
58 127 58 6 0 26 13 44 28 67 58 100 65 153 32z m443 -17 c-2 -10 -17 -24 -33
-32 -17 -7 -47 -30 -67 -49 -34 -32 -50 -35 -30 -6 11 18 115 104 125 104 4 0
7 -8 5 -17z m962 -44 c80 -16 170 -32 200 -35 63 -6 72 -12 76 -51 9 -91 17
-131 31 -153 32 -49 21 -104 -46 -237 -34 -68 -66 -123 -71 -123 -5 0 -39 -38
-76 -85 -41 -54 -88 -101 -125 -126 -77 -52 -109 -99 -109 -161 0 -36 -4 -48
-15 -48 -8 0 -15 7 -15 15 0 21 -48 49 -89 52 -20 1 -60 8 -89 14 -51 13 -90
8 -156 -17 -15 -6 -17 -4 -11 15 4 12 -1 45 -11 76 -14 46 -15 62 -5 97 6 24
18 75 25 113 18 89 50 173 116 305 66 132 212 380 223 380 1 0 67 -14 147 -31z
m-1430 -13 c0 -15 -18 -31 -26 -23 -7 7 7 37 17 37 5 0 9 -6 9 -14z m468 -56
c-2 -33 -7 -62 -10 -65 -3 -3 -22 4 -42 15 l-36 22 -10 -26 c-5 -14 -15 -38
-20 -52 -6 -15 -13 -24 -17 -21 -12 13 31 102 70 144 56 61 70 58 65 -17z
m700 23 c2 -8 -5 -13 -18 -13 -12 0 -30 -5 -41 -11 -36 -19 -43 -3 -8 19 36
23 60 25 67 5z m-1118 -28 c0 -16 -27 -32 -37 -22 -3 4 -3 13 0 22 8 20 37 20
37 0z m213 -35 c-6 -22 -33 -28 -33 -7 0 16 21 38 31 32 4 -3 5 -14 2 -25z
m-367 -21 c-9 -22 -15 -27 -15 -16 -1 21 18 61 25 54 3 -3 -2 -20 -10 -38z
m1145 22 l21 -19 -31 -7 c-44 -9 -38 -23 11 -27 51 -4 66 -28 15 -26 -18 1
-39 -2 -46 -6 -16 -10 -4 -26 20 -26 25 0 36 -27 20 -51 -53 -86 -160 -374
-182 -490 -11 -60 -12 -82 -7 -182 2 -32 -4 -44 -48 -90 -65 -67 -96 -123
-122 -222 -26 -95 -52 -231 -52 -268 0 -14 -4 -29 -10 -32 -5 -3 -10 -18 -10
-32 0 -15 -13 -50 -30 -79 -16 -29 -34 -70 -39 -91 -5 -21 -20 -75 -33 -120
-22 -72 -23 -85 -11 -103 10 -13 12 -34 7 -67 -5 -41 -3 -51 15 -67 11 -10 18
-22 16 -27 -3 -4 -46 -8 -97 -8 l-91 -1 -43 44 c-30 29 -44 52 -44 70 0 38 13
32 35 -16 14 -30 27 -44 44 -46 21 -3 23 -1 17 20 -18 64 -18 78 3 111 21 34
15 57 -16 57 -16 0 -17 27 -2 85 9 34 19 48 41 60 l31 15 -8 -53 c-11 -76 -11
-86 0 -87 6 -1 15 25 22 57 42 215 52 274 52 318 0 28 8 73 19 102 22 57 16
73 -27 74 -23 0 -21 2 12 16 45 18 44 36 -3 43 -34 5 -55 30 -26 30 9 0 16 5
16 10 0 10 -14 14 -38 11 -20 -3 -24 25 -8 58 9 16 15 38 14 48 -4 48 2 61 33
67 19 3 28 10 23 17 -3 6 -17 9 -30 6 -16 -3 -24 0 -24 9 0 9 11 14 31 14 38
0 35 24 -4 28 -15 2 -27 7 -27 12 0 13 35 30 60 30 13 0 20 5 17 13 -2 6 -13
12 -25 12 -33 1 -31 19 2 25 37 6 42 21 16 45 -26 24 -25 32 5 39 37 9 32 30
-6 22 -25 -5 -30 -3 -27 12 2 12 15 18 41 20 46 4 48 19 5 30 -49 12 -43 37 9
37 54 0 58 17 7 31 -52 14 -51 38 1 42 59 5 62 17 10 32 -63 18 -58 43 10 50
49 6 50 6 22 18 -16 7 -34 12 -41 12 -20 0 -26 11 -16 30 7 13 21 17 60 16 27
-1 50 2 50 6 0 14 -50 28 -76 22 -26 -7 -34 10 -8 20 9 3 36 6 60 6 44 0 58
12 28 24 -9 3 -27 6 -41 6 -15 0 -23 5 -20 13 2 8 29 12 83 13 104 2 106 2 99
15 -4 6 -2 30 5 55 9 32 18 44 31 44 25 0 24 16 -1 23 -52 14 4 68 89 86 26 5
57 14 71 20 37 14 49 13 71 -8z m87 -17 c-24 -24 -44 -7 -22 17 12 13 21 16
28 9 7 -7 5 -15 -6 -26z m2010 24 c-3 -7 -17 -61 -33 -120 -26 -103 -27 -109
-11 -133 17 -26 42 -42 52 -33 6 6 30 106 39 162 8 49 17 40 19 -20 1 -32 6
-50 18 -58 24 -15 32 -2 38 62 4 42 9 57 20 57 12 0 16 -16 18 -72 2 -58 -1
-80 -19 -115 -45 -88 -78 -215 -83 -323 -5 -106 -8 -121 -15 -95 -4 15 -16 27
-31 30 -24 6 -25 10 -26 83 -2 82 -12 104 -47 109 -17 2 -23 12 -27 38 -5 35
-15 40 -52 25 -27 -11 -22 12 7 37 19 16 25 31 25 61 0 21 8 67 17 102 16 61
16 63 -5 90 -27 34 -27 44 1 75 30 34 104 63 95 38z m-3325 -60 c-17 -30 -63
-52 -63 -30 0 8 68 62 78 62 2 0 -5 -15 -15 -32z m475 -45 c-6 -7 -20 -13 -31
-13 -19 0 -19 1 4 23 24 23 48 14 27 -10z m-703 17 c-3 -5 -14 -10 -23 -10
-15 0 -15 2 -2 10 20 13 33 13 25 0z m85 -5 c-7 -8 -19 -15 -27 -15 -13 0 -13
3 -3 15 7 8 19 15 27 15 13 0 13 -3 3 -15z m525 -93 c-4 -5 -190 -41 -193 -37
-8 7 86 55 109 55 13 0 31 4 39 10 10 6 20 4 31 -8 9 -9 15 -18 14 -20z m2778
16 c2 -7 2 -48 -1 -91 -3 -59 -9 -80 -22 -87 -9 -5 -24 -37 -34 -74 -16 -57
-21 -66 -46 -71 -15 -3 -38 -17 -51 -31 -24 -25 -24 -26 -5 -40 23 -16 42 -18
51 -4 9 15 45 12 45 -4 0 -7 -6 -19 -14 -25 -8 -7 -18 -27 -21 -44 -4 -18 -19
-42 -34 -54 -23 -19 -26 -28 -27 -90 -1 -37 -7 -99 -14 -138 -7 -38 -13 -88
-14 -110 -1 -34 3 -41 27 -53 31 -15 32 -21 15 -91 -7 -32 -19 -56 -33 -65
-12 -8 -28 -28 -35 -46 -13 -31 -13 -31 -24 -8 -8 17 -22 24 -48 26 -26 2 -39
9 -43 23 -10 30 -58 25 -94 -12 -37 -36 -40 -72 -9 -93 25 -18 84 -21 93 -6 3
6 13 10 21 10 26 0 7 -16 -58 -48 -51 -25 -71 -30 -105 -25 -28 4 -56 0 -83
-11 -22 -9 -44 -16 -49 -16 -5 0 13 50 41 111 27 61 48 117 46 125 -6 27 -23
18 -52 -26 -33 -49 -43 -42 -26 20 12 46 51 73 72 52 34 -34 69 16 48 68 -10
24 -10 33 0 46 18 21 62 14 66 -10 4 -32 22 -42 40 -24 12 12 16 35 16 84 0
56 2 66 12 51 27 -44 34 -50 50 -44 14 6 16 15 10 54 -9 64 -10 65 -52 57 -52
-9 -72 -22 -72 -44 0 -28 -16 -33 -55 -19 -26 10 -45 10 -75 3 -23 -7 -43 -7
-48 -2 -15 15 -119 15 -134 0 -10 -10 -10 -16 1 -33 20 -32 0 -41 -42 -19 -20
11 -43 20 -49 20 -20 0 -98 -86 -98 -107 0 -25 19 -43 45 -43 16 0 21 -6 20
-27 0 -23 5 -29 29 -31 28 -3 28 -5 23 -50 -3 -26 -15 -67 -26 -92 -11 -25
-21 -53 -21 -63 0 -12 -6 -17 -17 -15 -10 2 -17 10 -15 18 2 7 -3 17 -10 22
-10 6 -10 10 2 17 12 9 12 14 -2 45 -9 19 -26 37 -38 41 l-21 7 21 32 c34 56
22 106 -25 106 -12 0 -40 -16 -62 -35 -23 -19 -44 -35 -48 -35 -4 0 -18 -9
-31 -19 -22 -17 -64 -19 -64 -2 0 3 23 26 51 50 28 24 58 60 66 79 8 19 25 51
38 71 12 20 26 58 30 86 4 27 13 62 21 78 13 24 13 28 -1 33 -23 9 -18 36 14
72 32 34 33 34 126 36 41 1 74 9 104 24 39 21 45 21 60 7 24 -20 40 -19 67 6
l23 22 12 -26 c10 -22 8 -30 -16 -61 -31 -40 -57 -45 -94 -17 -19 15 -37 17
-100 14 -98 -6 -107 -8 -90 -29 11 -13 26 -15 92 -9 l80 7 -7 -26 c-8 -31 11
-34 67 -11 20 8 39 15 42 15 3 0 5 -7 5 -15 0 -19 20 -19 48 1 26 18 28 31 7
36 -12 2 -10 10 10 39 15 20 37 42 51 49 33 18 32 44 -2 37 l-25 -4 23 26 c33
37 39 41 75 41 41 0 51 17 19 31 -18 8 -33 9 -55 1 -17 -6 -33 -7 -36 -2 -3 5
14 15 37 21 42 12 72 29 53 29 -104 5 -122 4 -118 -7 3 -7 -7 -15 -21 -19 -14
-3 -42 -28 -62 -55 -21 -26 -44 -51 -52 -54 -25 -10 126 158 179 198 39 29 70
27 98 -7 7 -9 17 -16 21 -16 20 0 88 81 104 124 25 65 92 146 136 161 47 17
67 17 73 3z m11 -300 c-6 -63 -24 -89 -24 -36 0 36 15 88 25 88 2 0 2 -24 -1
-52z m85 -51 c7 -10 8 -31 1 -73 -13 -79 -13 -171 1 -180 6 -3 8 -16 4 -28 -3
-11 -12 -46 -20 -76 -7 -30 -18 -73 -24 -95 -6 -22 -8 -66 -5 -97 5 -60 -8
-101 -48 -145 -48 -52 16 -85 76 -40 18 14 49 27 72 28 21 2 43 9 47 14 12 15
-4 -47 -19 -75 -7 -14 -21 -41 -30 -60 -9 -19 -28 -51 -42 -70 -15 -19 -27
-46 -27 -60 0 -25 0 -25 -95 -25 -79 0 -103 4 -143 24 -40 19 -59 23 -104 18
-62 -7 -79 -17 -98 -64 -16 -37 -21 -38 -110 -23 -41 7 -85 7 -138 -1 -72 -9
-80 -9 -93 8 -12 17 -13 17 -14 1 0 -19 -15 -24 -24 -9 -6 8 30 28 99 54 66
26 107 35 180 42 41 4 88 16 115 30 25 12 82 41 128 64 61 30 82 46 82 60 0
34 40 125 65 146 16 14 25 35 29 72 6 45 4 53 -13 63 -17 9 -19 14 -10 38 6
15 16 34 23 42 15 16 40 166 30 181 -3 5 -12 9 -21 9 -12 0 -14 7 -9 32 8 41
29 55 36 25 3 -12 12 -22 20 -22 24 0 40 47 40 121 0 83 11 104 39 71z m-159
-217 c10 -6 11 -10 3 -10 -8 0 -13 -14 -13 -34 0 -45 -16 -55 -24 -15 -13 66
-3 83 34 59z m259 -142 c-12 -87 -24 -122 -39 -113 -8 5 5 70 19 90 4 6 6 24
5 40 -2 28 15 80 23 71 3 -2 -1 -42 -8 -88z m-2037 1 c16 -9 15 -14 -16 -57
-18 -26 -54 -93 -81 -150 -44 -96 -47 -108 -43 -168 2 -35 2 -64 -1 -64 -2 0
-12 7 -22 16 -23 20 -46 12 -51 -17 -6 -42 -28 -34 -28 10 0 27 -4 41 -13 41
-25 0 -37 -24 -37 -72 0 -29 -4 -48 -11 -48 -8 0 -10 25 -7 81 l5 80 -24 -6
c-23 -5 -24 -4 -18 26 7 30 6 31 -19 25 -33 -8 -33 4 -5 81 31 83 73 139 134
179 86 57 179 74 237 43z m1758 -8 c0 -10 -7 -21 -15 -25 -15 -5 -22 24 -8 37
12 13 23 7 23 -12z m-985 -43 c-15 -49 -101 -212 -117 -222 -14 -9 -21 -6 -33
12 -20 28 -58 29 -110 2 -22 -11 -48 -20 -58 -20 -14 0 -17 -4 -12 -17 20 -49
19 -56 -5 -50 -13 3 -30 1 -37 -5 -8 -6 -13 -7 -13 -1 0 6 -12 23 -26 39 -17
18 -22 30 -15 32 7 2 16 14 20 26 5 12 25 27 46 34 32 12 39 12 56 -4 19 -17
20 -17 34 3 9 13 22 19 34 16 24 -6 97 31 111 56 5 11 10 31 10 44 0 26 17 45
59 64 44 20 63 16 56 -9z m-2600 -59 c62 -35 81 -55 44 -46 -83 21 -159 44
-165 49 -3 4 -3 11 1 17 12 20 65 11 120 -20z m2435 6 c0 -9 -11 -27 -25 -40
-46 -47 -64 -21 -18 27 30 32 43 35 43 13z m-2053 -91 c32 -9 52 -20 50 -27
-2 -7 -13 -10 -23 -9 -10 2 -37 3 -60 3 -26 -1 -46 4 -54 14 -7 8 -16 12 -22
9 -5 -3 -16 -3 -26 1 -14 5 -14 7 -2 15 22 14 75 12 137 -6z m286 -45 c31 -7
57 -16 57 -20 0 -12 -7 -11 -46 3 -23 8 -40 9 -56 1 -28 -12 -48 -7 -48 13 0
17 19 18 93 3z m2227 -7 c19 -9 44 -32 55 -49 11 -18 30 -36 43 -39 30 -8 28
-26 -11 -82 -18 -26 -39 -63 -47 -82 -27 -70 -70 -95 -70 -40 0 16 6 47 14 67
26 68 49 162 43 178 -4 8 -14 15 -23 15 -20 0 -66 35 -57 44 9 8 13 7 53 -12z
m-1990 -27 c10 -13 9 -15 -9 -15 -12 0 -21 6 -21 15 0 8 4 15 9 15 5 0 14 -7
21 -15z m90 -25 c0 -5 -2 -10 -4 -10 -2 0 -12 -3 -20 -6 -12 -5 -15 -2 -10 10
7 17 34 22 34 6z m-1012 -57 c6 -75 41 -78 84 -8 l18 30 0 -30 c1 -66 44 -74
56 -10 8 43 20 52 43 31 10 -9 23 -16 29 -16 7 0 12 -8 12 -18 0 -10 5 -23 12
-30 24 -24 -9 -33 -123 -34 -161 -1 -388 13 -395 24 -13 20 18 32 88 33 52 2
78 -2 90 -13 30 -25 51 -7 45 38 -3 24 -1 41 7 44 22 9 31 -1 34 -41z m1072
36 c0 -5 5 -7 10 -4 6 3 10 1 10 -4 0 -13 -3 -13 -24 -5 -18 7 -22 24 -6 24 6
0 10 -5 10 -11z m44 -4 c3 -8 1 -15 -4 -15 -6 0 -10 7 -10 15 0 8 2 15 4 15 2
0 6 -7 10 -15z m-1248 -13 c-2 -4 -19 -9 -36 -10 -19 -2 -29 1 -25 8 3 5 20
10 36 10 17 0 28 -4 25 -8z m-316 -12 c12 -8 9 -10 -13 -10 -16 0 -26 4 -22
10 8 12 16 12 35 0z m108 -26 c12 -20 19 -40 16 -46 -8 -12 -115 -5 -154 11
-24 9 -23 10 11 10 19 1 40 -4 47 -11 17 -17 42 8 42 43 0 38 10 36 38 -7z
m936 4 c-4 -15 1 -27 22 -44 22 -17 26 -25 18 -34 -9 -9 -17 -9 -33 -1 -17 10
-21 21 -21 62 0 32 4 48 10 44 6 -4 8 -16 4 -27z m-256 -24 c-2 -19 -10 -30
-21 -32 -17 -3 -18 1 -12 30 4 18 10 37 12 41 10 17 25 -11 21 -39z m106 14
c26 -37 20 -50 -21 -46 -43 3 -58 33 -27 55 24 18 30 17 48 -9z m2166 -8 c0
-5 -5 -10 -11 -10 -5 0 -7 5 -4 10 3 6 8 10 11 10 2 0 4 -4 4 -10z m-40 -15
c0 -9 -6 -12 -15 -9 -8 4 -15 10 -15 15 0 5 7 9 15 9 8 0 15 -7 15 -15z
m-2053 -17 c-3 -8 -6 -5 -6 6 -1 11 2 17 5 13 3 -3 4 -12 1 -19z m1535 0 c-7
-7 -12 -8 -12 -2 0 14 12 26 19 19 2 -3 -1 -11 -7 -17z m588 12 c0 -5 -2 -10
-4 -10 -3 0 -8 5 -11 10 -3 6 -1 10 4 10 6 0 11 -4 11 -10z m-1905 -34 c2 -11
6 -32 7 -46 2 -17 9 -25 23 -26 11 -1 28 -5 38 -9 26 -11 47 2 47 29 0 38 51
70 98 62 20 -3 53 -7 73 -9 21 -1 46 -10 57 -20 18 -16 18 -22 7 -60 l-12 -42
-258 -3 c-164 -3 -261 0 -267 6 -7 7 1 13 24 20 19 5 53 21 76 36 33 21 42 32
42 54 0 16 3 31 6 35 11 11 34 -5 39 -27z m1258 -27 c-22 -39 -98 -89 -135
-89 -15 0 -30 -5 -33 -11 -5 -7 -13 -5 -24 5 -10 9 -22 12 -29 7 -7 -4 -34 -6
-60 -4 -33 3 -58 -1 -82 -14 -39 -20 -85 -16 -85 7 0 15 88 69 143 88 26 9 35
8 56 -9 47 -37 183 -16 226 35 7 9 19 16 27 16 11 0 11 -6 -4 -31z m525 -10
c-11 -32 -31 -34 -36 -5 -4 18 27 48 40 40 4 -2 2 -18 -4 -35z m-2768 16 c69
-3 277 -8 463 -10 186 -2 342 -7 348 -10 19 -12 -2 -24 -57 -31 -30 -3 -61
-13 -69 -21 -17 -16 -10 -38 13 -49 9 -4 148 -10 309 -13 160 -3 295 -9 299
-14 4 -4 3 -27 -2 -52 l-9 -46 -165 -5 c-91 -2 -241 -8 -333 -12 -294 -12
-477 6 -477 48 0 5 21 18 47 30 58 25 83 47 83 72 0 33 -46 40 -270 43 -145 2
-241 9 -295 19 -44 9 -94 16 -112 16 -45 0 -63 9 -63 32 0 19 5 20 83 14 45
-3 138 -8 207 -11z m1699 -80 c8 -3 20 1 27 9 6 9 16 16 23 16 22 0 11 -16
-25 -35 -41 -22 -69 -12 -67 23 1 36 4 38 15 15 6 -12 18 -25 27 -28z m1561
11 c0 -15 -49 -71 -56 -63 -6 6 38 76 49 77 4 0 7 -6 7 -14z m-883 -22 c-3 -3
-12 -4 -19 -1 -8 3 -5 6 6 6 11 1 17 -2 13 -5z m381 -40 c-10 -10 -28 6 -28
24 0 15 1 15 17 -1 9 -9 14 -19 11 -23z m-257 -20 c11 -31 25 -37 51 -23 13 7
36 12 51 10 16 -1 36 4 46 13 15 14 21 13 66 -9 26 -14 56 -25 66 -25 10 0 21
-4 24 -10 4 -6 -9 -10 -32 -10 -22 0 -44 -5 -50 -11 -8 -8 -31 -8 -84 0 -41 6
-112 16 -159 22 -46 6 -92 15 -101 20 -11 5 -27 5 -43 -1 -37 -14 -117 15
-103 37 3 5 63 9 133 9 120 -1 127 -2 135 -22z m626 -19 c-15 -30 -28 -36 -67
-28 -52 10 -34 33 35 44 22 4 41 7 42 8 0 0 -4 -10 -10 -24z m-1287 -5 c115
-11 380 -31 475 -36 123 -6 202 -15 265 -30 36 -9 99 -16 140 -16 41 -1 84 -7
95 -14 11 -6 57 -20 103 -29 45 -10 82 -22 82 -28 0 -5 -7 -6 -16 -3 -9 3
-102 11 -207 16 -106 6 -232 15 -282 21 -569 66 -783 84 -801 66 -14 -14 19
-27 71 -27 28 0 131 -9 230 -20 205 -23 581 -59 700 -67 48 -3 83 -11 87 -18
4 -7 36 -15 70 -19 171 -18 312 -55 323 -84 9 -23 -30 -52 -69 -52 -40 0 -120
-40 -124 -62 -8 -41 67 -76 208 -97 41 -7 93 -16 115 -22 59 -15 67 -15 72 -3
7 20 -70 40 -227 60 -62 7 -115 35 -115 58 0 22 50 44 101 45 38 1 84 35 84
62 0 27 -64 66 -139 83 -34 8 -66 18 -70 22 -8 8 210 -5 264 -16 88 -19 187
-48 197 -58 12 -12 -5 -42 -24 -42 -18 0 -88 -64 -88 -80 0 -26 41 -58 93 -71
34 -8 52 -19 59 -35 6 -13 20 -27 32 -31 38 -13 -77 -21 -324 -22 -241 -1
-288 4 -324 38 -12 10 -50 31 -86 46 -36 15 -72 33 -80 41 -13 14 -13 17 3 28
9 7 40 16 68 19 63 8 99 30 99 60 0 72 -159 114 -575 152 -93 8 -252 24 -353
35 -101 10 -221 20 -268 21 -47 2 -88 7 -91 11 -2 5 3 20 11 33 10 16 14 34
10 50 -6 24 -5 25 47 25 29 0 101 -4 159 -10z m-2338 -86 c20 -7 58 -29 82
-48 25 -19 71 -42 101 -51 31 -9 64 -24 75 -35 24 -24 46 -104 54 -193 6 -57
4 -68 -10 -74 -19 -7 -135 20 -207 48 -29 12 -63 26 -77 31 l-25 10 23 9 c12
4 22 14 22 22 0 16 -52 54 -127 94 -34 17 -53 34 -53 45 0 25 10 23 65 -17 35
-25 52 -31 61 -24 7 6 10 17 7 25 -6 17 -96 84 -112 84 -6 0 -11 7 -11 15 0
19 27 19 60 0 26 -15 90 -20 90 -7 -1 9 -56 44 -97 61 -75 31 -2 36 79 5z
m2338 -69 c88 -5 306 -23 410 -34 47 -5 155 -16 240 -25 142 -15 190 -24 305
-59 48 -14 63 -53 23 -61 -93 -19 -129 -29 -144 -40 -16 -12 -16 -17 -4 -45
14 -34 61 -64 140 -91 25 -8 45 -19 45 -25 0 -6 -43 -11 -103 -13 -101 -3
-102 -2 -112 23 -13 34 -50 35 -50 1 l0 -25 -259 0 c-220 -1 -260 1 -271 14
-9 10 -16 12 -25 5 -6 -5 -82 -10 -168 -11 -152 -1 -157 0 -185 23 -25 21 -27
27 -18 48 6 14 16 29 23 33 7 4 13 15 13 22 0 19 -29 19 -36 0 -3 -8 -15 -17
-26 -21 -16 -5 -19 -12 -15 -34 11 -54 -34 -66 -84 -22 -29 26 -31 33 -34 107
-4 77 22 212 45 240 6 7 44 8 117 2 59 -4 137 -10 173 -12z m1203 -2 c-7 -2
-19 -2 -25 0 -7 3 -2 5 12 5 14 0 19 -2 13 -5z m527 -43 c164 -27 224 -63 150
-89 -16 -5 -30 -15 -30 -20 0 -19 74 -60 130 -71 201 -41 339 -87 371 -126 20
-25 0 -32 -114 -39 l-107 -7 2 23 c2 17 -5 27 -24 36 -43 22 -172 43 -261 44
-88 0 -248 35 -254 55 -2 7 19 26 47 43 46 29 51 35 48 64 -4 43 -59 73 -161
88 -103 15 -90 33 17 24 44 -4 128 -15 186 -25z m190 -301 c89 -12 150 -29
150 -41 0 -11 -322 1 -334 13 -18 16 13 34 61 36 26 1 82 -3 123 -8z"/>
<path d="M1960 7585 c0 -9 5 -15 11 -13 6 2 11 8 11 13 0 5 -5 11 -11 13 -6 2
-11 -4 -11 -13z"/>
<path d="M1760 7405 c0 -8 7 -15 15 -15 8 0 15 7 15 15 0 8 -7 15 -15 15 -8 0
-15 -7 -15 -15z"/>
<path d="M1380 7124 c0 -9 5 -14 12 -12 18 6 21 28 4 28 -9 0 -16 -7 -16 -16z"/>
<path d="M1311 7086 c-9 -10 -8 -16 4 -26 19 -16 41 1 32 24 -8 20 -21 20 -36
2z"/>
<path d="M1630 7045 c0 -9 5 -15 11 -13 6 2 11 8 11 13 0 5 -5 11 -11 13 -6 2
-11 -4 -11 -13z"/>
<path d="M3315 7051 c-3 -5 -1 -12 5 -16 5 -3 10 1 10 9 0 18 -6 21 -15 7z"/>
<path d="M1807 6346 c-31 -13 -60 -20 -63 -15 -9 15 -34 10 -34 -6 0 -8 7 -15
15 -15 8 0 15 -9 15 -20 0 -26 26 -26 40 0 15 29 65 51 118 53 26 1 47 7 50
15 7 21 -78 14 -141 -12z"/>
<path d="M2130 5596 c0 -17 27 -29 35 -16 4 6 3 15 0 20 -9 15 -35 12 -35 -4z"/>
<path d="M2100 5567 c0 -8 9 -22 20 -32 16 -15 23 -16 33 -6 9 10 7 16 -12 32
-27 22 -41 24 -41 6z"/>
<path d="M2234 5479 c-9 -16 7 -28 41 -31 44 -3 63 11 40 29 -23 16 -71 17
-81 2z"/>
<path d="M3345 5588 c-16 -5 -60 -7 -97 -6 -73 3 -100 -9 -73 -32 13 -11 34
-11 107 -2 50 6 96 16 102 22 17 17 -6 28 -39 18z"/>
<path d="M1065 4910 c-3 -6 1 -13 10 -16 19 -8 30 0 20 15 -8 14 -22 14 -30 1z"/>
<path d="M1092 4769 c2 -7 10 -15 17 -17 8 -3 12 1 9 9 -2 7 -10 15 -17 17 -8
3 -12 -1 -9 -9z"/>
<path d="M1075 4710 c-3 -5 3 -10 15 -10 12 0 18 5 15 10 -3 6 -10 10 -15 10
-5 0 -12 -4 -15 -10z"/>
<path d="M1080 4640 c0 -5 10 -10 23 -10 18 0 19 2 7 10 -19 13 -30 13 -30 0z"/>
<path d="M1140 4620 c0 -5 5 -10 10 -10 6 0 10 5 10 10 0 6 -4 10 -10 10 -5 0
-10 -4 -10 -10z"/>
<path d="M1097 4569 c7 -7 15 -10 18 -7 3 3 -2 9 -12 12 -14 6 -15 5 -6 -5z"/>
<path d="M1135 4550 c3 -5 10 -10 16 -10 5 0 9 5 9 10 0 6 -7 10 -16 10 -8 0
-12 -4 -9 -10z"/>
<path d="M4390 4655 c-17 -20 -8 -50 15 -50 15 0 21 8 23 33 4 35 -16 44 -38
17z"/>
<path d="M4185 4550 c-3 -5 1 -20 9 -31 13 -20 13 -25 -1 -53 -9 -17 -15 -48
-15 -71 3 -101 4 -103 30 -110 22 -5 23 -9 17 -43 -4 -20 -13 -41 -21 -45 -18
-10 -9 -27 14 -27 20 0 52 34 52 55 0 8 9 15 20 15 13 0 21 9 25 28 3 15 10
41 15 58 6 17 10 54 10 82 0 49 -2 53 -42 82 -23 17 -48 39 -55 50 -15 21 -48
27 -58 10z m86 -95 c-1 -15 -24 -12 -29 3 -3 9 2 13 12 10 10 -1 17 -7 17 -13z"/>
<path d="M4166 4131 c-4 -5 -2 -12 3 -15 5 -4 12 -2 15 3 4 5 2 12 -3 15 -5 4
-12 2 -15 -3z"/>
<path d="M3090 2944 c0 -8 5 -12 10 -9 6 3 10 10 10 16 0 5 -4 9 -10 9 -5 0
-10 -7 -10 -16z"/>
<path d="M3171 2946 c-11 -13 -11 -20 -3 -28 8 -8 13 -7 18 5 10 27 0 41 -15
23z"/>
<path d="M3262 2948 c-15 -15 -16 -38 -2 -38 12 0 23 25 18 40 -2 7 -7 7 -16
-2z"/>
<path d="M3340 2925 c-7 -8 -9 -23 -5 -32 6 -17 7 -17 21 1 26 36 12 64 -16
31z"/>
<path d="M4275 2024 c-11 -8 -27 -19 -35 -24 -9 -5 -13 -20 -12 -39 2 -21 -2
-31 -12 -31 -7 0 -19 -7 -26 -15 -10 -12 -10 -18 0 -30 18 -22 38 -19 76 13
18 15 47 37 64 50 31 25 39 59 18 80 -16 16 -49 15 -73 -4z"/>
<path d="M3822 1953 c2 -14 15 -19 56 -21 52 -3 88 11 76 29 -3 5 -34 9 -70 9
-57 0 -65 -2 -62 -17z"/>
<path d="M4034 1946 c-17 -13 -17 -15 -2 -21 20 -8 61 12 53 26 -9 13 -28 11
-51 -5z"/>
<path d="M3800 1907 c0 -10 17 -19 49 -27 49 -12 91 -7 91 10 0 14 -12 18 -78
26 -52 5 -62 4 -62 -9z"/>
<path d="M3820 1846 c0 -7 12 -16 27 -19 32 -6 43 -1 43 19 0 9 -11 14 -35 14
-23 0 -35 -5 -35 -14z"/>
<path d="M2521 1046 c-12 -14 -5 -26 16 -26 15 0 18 26 4 34 -5 3 -14 0 -20
-8z"/>
<path d="M2595 1050 c-8 -13 4 -32 16 -25 12 8 12 35 0 35 -6 0 -13 -4 -16
-10z"/>
<path d="M2442 999 c2 -6 8 -10 13 -10 5 0 11 4 13 10 2 6 -4 11 -13 11 -9 0
-15 -5 -13 -11z"/>
<path d="M2755 969 c-10 -15 3 -25 16 -12 7 7 7 13 1 17 -6 3 -14 1 -17 -5z"/>
<path d="M2932 958 c6 -18 28 -21 28 -4 0 9 -7 16 -16 16 -9 0 -14 -5 -12 -12z"/>
<path d="M2591 946 c-9 -10 -8 -16 3 -25 10 -9 16 -8 25 3 9 10 8 16 -3 25
-10 9 -16 8 -25 -3z"/>
<path d="M3140 950 c0 -5 5 -10 10 -10 6 0 10 5 10 10 0 6 -4 10 -10 10 -5 0
-10 -4 -10 -10z"/>
<path d="M3365 950 c-7 -12 2 -30 15 -30 5 0 21 5 37 11 22 8 24 12 13 19 -20
13 -57 13 -65 0z"/>
<path d="M3061 926 c-9 -10 -9 -16 -1 -21 17 -10 37 12 24 25 -8 8 -15 6 -23
-4z"/>
<path d="M2495 920 c-10 -17 12 -37 25 -24 8 8 6 15 -4 23 -10 9 -16 9 -21 1z"/>
<path d="M2984 909 c-10 -17 13 -36 27 -22 12 12 4 33 -11 33 -5 0 -12 -5 -16
-11z"/>
<path d="M2376 893 c-11 -11 -6 -23 9 -23 8 0 15 4 15 9 0 13 -16 22 -24 14z"/>
<path d="M2626 881 c-3 -5 0 -14 8 -20 10 -8 16 -8 25 2 6 8 8 17 4 20 -9 10
-31 9 -37 -2z"/>
<path d="M3265 870 c-8 -14 3 -30 21 -30 8 0 14 -6 14 -14 0 -22 19 -30 36
-16 11 10 12 16 3 27 -7 7 -14 11 -17 8 -3 -3 -11 4 -19 15 -16 22 -28 25 -38
10z"/>
<path d="M2906 851 c-9 -15 23 -36 36 -23 5 5 7 15 4 21 -9 13 -33 14 -40 2z"/>
<path d="M3070 845 c0 -8 4 -15 9 -15 5 0 14 7 21 15 10 13 9 15 -9 15 -12 0
-21 -6 -21 -15z"/>
<path d="M2471 841 c-17 -11 -7 -41 13 -41 22 0 30 20 15 36 -9 8 -19 10 -28
5z"/>
<path d="M3156 843 c-11 -11 -6 -23 9 -23 8 0 15 4 15 9 0 13 -16 22 -24 14z"/>
<path d="M2795 830 c-4 -7 -3 -16 3 -22 14 -14 45 -2 40 15 -6 16 -34 21 -43
7z"/>
<path d="M3011 831 c-8 -5 -10 -14 -7 -20 9 -13 33 -15 40 -2 9 14 -18 31 -33
22z"/>
<path d="M3215 791 c-8 -15 3 -31 21 -31 9 0 14 7 12 17 -4 20 -24 28 -33 14z"/>
<path d="M2513 768 c2 -7 10 -13 17 -13 7 0 15 6 18 13 2 7 -5 12 -18 12 -13
0 -20 -5 -17 -12z"/>
<path d="M2594 769 c-10 -17 13 -36 27 -22 12 12 4 33 -11 33 -5 0 -12 -5 -16
-11z"/>
<path d="M2676 771 c-3 -5 0 -14 8 -20 10 -8 16 -8 25 2 6 8 8 17 4 20 -9 10
-31 9 -37 -2z"/>
<path d="M2910 756 c0 -9 7 -16 16 -16 17 0 14 22 -4 28 -7 2 -12 -3 -12 -12z"/>
<path d="M3108 753 c-20 -5 -24 -19 -6 -25 21 -7 69 4 65 16 -4 12 -32 17 -59
9z"/>
<path d="M3400 746 c0 -10 9 -16 21 -16 24 0 21 23 -4 28 -10 2 -17 -3 -17
-12z"/>
<path d="M3404 6779 c-12 -20 13 -30 67 -27 42 2 55 7 57 21 3 15 -5 17 -57
17 -33 0 -63 -5 -67 -11z"/>
<path d="M674 3029 c-3 -6 -1 -16 4 -21 13 -13 45 8 36 23 -7 12 -31 11 -40
-2z"/>
<path d="M560 2995 c-10 -13 -10 -19 5 -35 22 -24 53 -26 62 -5 6 17 -23 55
-42 55 -7 0 -18 -7 -25 -15z"/>
<path d="M460 2935 c-11 -13 -8 -21 15 -45 34 -36 41 -37 56 -8 10 19 8 25
-15 45 -32 27 -39 28 -56 8z"/>
<path d="M370 2910 c-18 -12 -7 -34 33 -64 26 -19 28 -19 45 -2 16 16 15 19
-16 47 -35 32 -40 33 -62 19z"/>
<path d="M350 2815 c-10 -12 -9 -16 5 -21 19 -8 40 9 31 25 -10 15 -21 14 -36
-4z"/>
<path d="M63 2624 c-7 -18 11 -39 26 -30 17 11 13 46 -4 46 -9 0 -18 -7 -22
-16z"/>
<path d="M605 1271 c-7 -12 12 -24 25 -16 11 7 4 25 -10 25 -5 0 -11 -4 -15
-9z"/>
<path d="M547 1254 c-13 -13 -7 -24 14 -24 11 0 19 5 17 12 -5 14 -22 21 -31
12z"/>
<path d="M4813 1219 c-24 -11 -44 -25 -44 -32 -1 -7 -2 -23 -3 -37 -1 -21 -7
-26 -36 -30 -47 -7 -53 -37 -11 -53 39 -14 39 -22 0 -36 -41 -14 -35 -42 11
-55 l35 -10 -40 -5 c-32 -5 -41 -11 -43 -28 -4 -27 10 -30 28 -7 19 22 65 14
66 -11 1 -11 2 -26 3 -32 2 -24 32 -13 42 16 10 27 12 28 66 25 58 -3 113 16
113 39 0 22 -23 37 -57 37 -27 0 -33 4 -31 18 2 13 -6 18 -42 22 l-45 5 34 8
c18 4 49 7 67 7 19 0 34 4 34 9 0 13 -29 22 -54 15 -17 -4 -25 1 -34 20 -7 16
-20 26 -32 26 -12 0 -19 4 -16 9 3 4 16 6 30 4 28 -6 66 12 66 30 0 13 -51 68
-61 66 -2 0 -23 -9 -46 -20z m47 -39 c0 -5 -7 -10 -15 -10 -8 0 -15 5 -15 10
0 6 7 10 15 10 8 0 15 -4 15 -10z m-18 -92 c-12 -12 -35 -1 -27 12 3 5 13 6
21 3 10 -4 12 -9 6 -15z m18 -78 c0 -5 -7 -10 -15 -10 -8 0 -15 5 -15 10 0 6
7 10 15 10 8 0 15 -4 15 -10z m86 -41 c11 -19 -18 -28 -66 -22 -52 7 -54 8
-45 22 8 14 102 14 111 0z"/>
<path d="M24 1216 c-8 -22 3 -33 18 -18 9 9 9 15 0 24 -9 9 -13 7 -18 -6z"/>
<path d="M605 1110 c-7 -12 2 -30 16 -30 12 0 12 27 0 35 -5 3 -12 1 -16 -5z"/>
<path d="M947 1074 c-14 -14 -7 -35 11 -32 9 2 17 10 17 17 0 16 -18 25 -28
15z"/>
<path d="M1835 1060 c3 -5 10 -10 16 -10 5 0 9 5 9 10 0 6 -7 10 -16 10 -8 0
-12 -4 -9 -10z"/>
<path d="M693 1044 c-3 -8 1 -22 9 -30 13 -13 16 -13 27 0 7 9 11 23 7 31 -7
20 -35 19 -43 -1z"/>
<path d="M1742 1048 c5 -15 28 -18 29 -3 0 6 -7 12 -17 13 -10 3 -15 -1 -12
-10z"/>
<path d="M788 1029 c-21 -12 -24 -39 -4 -39 7 0 19 7 26 15 17 21 1 37 -22 24z"/>
<path d="M1695 1020 c-11 -17 5 -32 21 -19 7 6 11 15 8 20 -7 12 -21 11 -29
-1z"/>
<path d="M1835 970 c-4 -7 -3 -16 3 -22 14 -14 45 -2 40 15 -6 16 -34 21 -43
7z"/>
<path d="M890 960 c-11 -7 -12 -12 -3 -21 13 -13 33 -4 33 17 0 16 -9 18 -30
4z"/>
<path d="M612 948 c7 -19 38 -22 38 -4 0 10 -9 16 -21 16 -12 0 -19 -5 -17
-12z"/>
<path d="M1390 935 c-10 -12 -10 -19 -2 -27 15 -15 48 14 38 31 -10 15 -21 14
-36 -4z"/>
<path d="M1335 930 c-7 -12 2 -30 16 -30 5 0 9 9 9 20 0 21 -15 27 -25 10z"/>
<path d="M1550 921 c-12 -23 -3 -51 16 -51 16 0 37 46 28 61 -9 15 -33 10 -44
-10z"/>
<path d="M742 917 c-16 -18 -3 -59 17 -55 21 4 26 41 8 56 -11 10 -17 9 -25
-1z"/>
<path d="M1803 923 c-16 -6 -17 -39 -2 -49 6 -3 18 1 27 10 14 14 14 18 2 30
-8 7 -21 12 -27 9z"/>
<path d="M1052 908 c-16 -16 -15 -43 1 -57 16 -13 37 4 37 30 0 25 -24 41 -38
27z"/>
<path d="M1130 901 c0 -25 20 -38 31 -20 15 23 10 39 -11 39 -13 0 -20 -7 -20
-19z"/>
<path d="M813 884 c-3 -8 -1 -20 5 -26 16 -16 42 -2 42 22 0 24 -38 28 -47 4z"/>
<path d="M4870 880 c0 -11 7 -20 15 -20 8 0 15 9 15 20 0 11 -7 20 -15 20 -8
0 -15 -9 -15 -20z"/>
<path d="M650 870 c0 -5 4 -10 9 -10 6 0 13 5 16 10 3 6 -1 10 -9 10 -9 0 -16
-4 -16 -10z"/>
<path d="M1720 865 c0 -10 7 -15 18 -13 21 4 19 22 -2 26 -10 2 -16 -3 -16
-13z"/>
<path d="M1580 845 c-19 -22 -5 -42 32 -47 64 -10 80 19 26 46 -38 20 -42 20
-58 1z"/>
<path d="M17 844 c-9 -10 2 -24 19 -24 8 0 14 7 14 15 0 15 -21 21 -33 9z"/>
<path d="M834 819 c-10 -17 13 -36 27 -22 12 12 4 33 -11 33 -5 0 -12 -5 -16
-11z"/>
<path d="M1147 823 c-12 -12 -7 -41 7 -46 19 -7 40 18 32 38 -6 15 -28 20 -39
8z"/>
<path d="M1222 798 c3 -25 34 -36 51 -19 14 14 -9 41 -35 41 -14 0 -19 -6 -16
-22z"/>
<path d="M96 803 c-11 -11 -6 -23 9 -23 8 0 15 4 15 9 0 13 -16 22 -24 14z"/>
<path d="M747 804 c-14 -15 -6 -34 14 -34 14 0 19 5 17 17 -3 18 -20 27 -31
17z"/>
<path d="M1490 795 c-10 -12 -9 -16 3 -21 17 -6 37 2 37 16 0 15 -29 19 -40 5z"/>
<path d="M1795 780 c-16 -18 -17 -23 -5 -30 18 -11 55 11 55 31 0 22 -30 21
-50 -1z"/>
<path d="M657 784 c-8 -8 1 -24 14 -24 5 0 9 7 9 15 0 15 -12 20 -23 9z"/>
<path d="M945 771 c-7 -12 12 -24 25 -16 11 7 4 25 -10 25 -5 0 -11 -4 -15 -9z"/>
<path d="M1380 770 c0 -5 5 -10 11 -10 5 0 7 5 4 10 -3 6 -8 10 -11 10 -2 0
-4 -4 -4 -10z"/>
<path d="M377 558 c-7 -4 -2 -13 14 -26 24 -20 24 -23 24 -176 l0 -156 46 0
c56 0 63 6 38 31 -23 23 -26 105 -5 134 13 18 16 17 67 -28 180 -156 168 -148
206 -145 43 4 54 23 20 32 -25 6 -163 113 -206 159 -12 14 -20 30 -17 36 14
23 140 102 167 105 58 7 49 36 -12 36 -32 0 -46 -7 -81 -42 -42 -40 -124 -98
-140 -98 -13 0 -9 105 4 118 9 9 8 12 -3 16 -25 9 -110 11 -122 4z"/>
<path d="M880 542 c0 -4 5 -13 10 -18 16 -16 26 -299 11 -308 -26 -17 -9 -28
34 -23 56 6 63 12 42 35 -13 14 -17 39 -17 107 0 78 2 86 16 74 8 -7 22 -26
31 -43 30 -59 85 -137 105 -147 37 -20 86 -21 96 -2 8 19 7 321 -1 330 -3 3
-14 2 -25 -1 -18 -6 -19 -14 -14 -148 4 -104 2 -139 -6 -134 -7 4 -35 54 -63
112 -28 57 -66 120 -84 139 -29 31 -38 35 -84 35 -28 0 -51 -4 -51 -8z"/>
<path d="M1317 543 c-13 -3 -16 -9 -10 -21 4 -10 8 -81 8 -160 0 -116 3 -144
15 -152 20 -13 57 -12 65 1 4 6 8 74 9 152 1 78 5 152 10 165 8 21 6 22 -35
21 -24 -1 -52 -3 -62 -6z"/>
<path d="M1560 544 c-33 -14 -81 -70 -91 -108 -6 -22 -7 -61 -4 -90 6 -43 15
-58 55 -98 45 -46 50 -48 103 -48 92 0 104 9 109 77 2 32 4 59 3 59 0 1 -29 3
-65 5 -52 3 -65 1 -65 -11 0 -8 11 -17 25 -20 16 -4 26 -14 28 -28 8 -53 -79
-32 -103 26 -8 19 -15 58 -15 87 0 43 5 60 26 85 23 27 32 31 68 28 34 -2 42
-7 44 -25 4 -25 21 -30 40 -11 18 18 14 46 -8 58 -23 12 -129 22 -150 14z"/>
<path d="M1801 536 c-7 -8 -8 -17 -3 -20 6 -3 8 -67 4 -156 l-5 -150 45 0 45
0 -5 68 c-6 92 5 112 62 112 24 0 48 -6 53 -12 6 -7 13 -46 17 -87 3 -40 9
-77 12 -82 3 -5 21 -9 41 -9 32 0 35 2 29 23 -3 12 -6 89 -6 170 l0 148 -47
-3 -48 -3 0 -60 0 -60 -50 0 -50 0 -3 61 c-3 54 -6 63 -25 68 -35 9 -54 7 -66
-8z"/>
<path d="M2129 521 c-20 -16 -22 -23 -13 -38 9 -14 22 -17 52 -15 37 3 42 1
48 -22 3 -14 4 -72 2 -129 l-3 -105 55 -5 c30 -2 57 -3 59 -1 2 2 -4 13 -13
23 -14 16 -18 42 -21 128 -1 59 1 116 7 126 12 24 43 21 60 -5 18 -27 48 -18
48 15 0 36 -37 47 -154 47 -88 0 -107 -3 -127 -19z"/>
<path d="M3207 526 c-78 -29 -118 -88 -118 -172 0 -56 16 -102 41 -115 65 -34
125 -59 143 -59 30 0 127 57 127 75 0 25 -18 26 -61 4 -143 -73 -269 94 -148
196 53 44 146 27 121 -22 -12 -22 -5 -43 14 -43 15 0 74 75 74 94 0 23 -19 39
-47 41 -15 2 -46 5 -68 9 -25 4 -55 1 -78 -8z"/>
<path d="M3683 533 c-27 -5 -30 -18 -7 -31 14 -8 16 -24 12 -116 -3 -59 -9
-111 -15 -117 -5 -5 -26 -12 -46 -16 -35 -5 -38 -4 -52 30 -19 46 -19 163 0
197 18 33 3 50 -46 50 -43 0 -56 -12 -34 -30 12 -10 15 -37 15 -119 1 -129 10
-151 72 -166 32 -8 52 -8 80 2 23 8 55 10 83 6 50 -6 56 0 23 27 -20 16 -23
29 -27 106 -2 54 2 102 10 126 17 53 2 64 -68 51z"/>
<path d="M3842 523 c-9 -3 -10 -9 -3 -17 16 -19 19 -252 4 -267 -27 -27 -15
-39 41 -38 70 2 89 14 59 36 -18 12 -23 25 -23 57 0 48 13 66 50 66 34 0 118
54 129 82 11 31 -1 60 -30 75 -24 12 -200 17 -227 6z m156 -25 c7 -7 12 -25
12 -40 0 -45 -56 -88 -76 -57 -11 19 -6 92 8 100 19 12 42 11 56 -3z"/>
<path d="M4172 503 c-33 -28 -37 -63 -10 -103 22 -33 27 -35 83 -37 33 -1 66
-2 73 -2 7 -1 20 -17 29 -36 16 -33 16 -37 0 -70 -12 -25 -23 -35 -40 -35 -23
0 -98 47 -112 69 -12 20 -33 11 -54 -23 -29 -46 -27 -57 12 -55 17 1 71 -2
118 -6 100 -9 130 4 149 60 14 43 4 80 -28 106 -23 17 -35 19 -83 14 -45 -5
-59 -3 -72 10 -16 15 -24 85 -12 97 10 9 65 -5 65 -17 0 -21 27 -37 50 -30 17
5 20 13 18 38 l-3 32 -81 3 c-66 2 -85 -1 -102 -15z"/>
<path d="M2660 468 c-25 -13 -46 -31 -48 -40 -2 -10 14 -34 36 -56 32 -31 43
-52 55 -105 15 -67 10 -134 -13 -176 -15 -28 -13 -33 12 -29 48 7 72 103 55
211 -8 47 -8 48 16 42 38 -10 52 16 26 49 -25 31 -47 34 -57 6 -7 -20 -10 -19
-47 13 -44 38 -43 64 2 69 16 2 28 9 28 17 0 23 -18 23 -65 -1z"/>
<path d="M2530 343 c-85 -32 -50 -145 40 -128 46 9 70 31 70 67 0 51 -54 81
-110 61z m43 -44 c6 -9 7 -24 3 -34 -6 -17 -7 -17 -26 0 -25 22 -27 58 -4 53
9 -2 21 -10 27 -19z"/>
<path d="M4563 254 c-18 -8 -16 -41 3 -48 8 -3 27 -3 40 0 34 9 30 48 -6 51
-14 1 -31 -1 -37 -3z"/>
</g>
</svg>
