<?xml version="1.0" standalone="no"?>
<!DOCTYPE svg PUBLIC "-//W3C//DTD SVG 20010904//EN"
 "http://www.w3.org/TR/2001/REC-SVG-20010904/DTD/svg10.dtd">
<svg version="1.0" xmlns="http://www.w3.org/2000/svg"
 width="500.000000pt" height="878.000000pt" viewBox="0 0 500.000000 878.000000"
 preserveAspectRatio="xMidYMid meet">
<metadata>
Created by potrace 1.15, written by Peter Selinger 2001-2017
</metadata>
<g transform="translate(0.000000,878.000000) scale(0.100000,-0.100000)"
fill="#000000" stroke="none">
<path d="M2582 7619 c-23 -17 -49 -28 -57 -25 -29 11 -285 -45 -383 -83 -43
-17 -50 -17 -75 -4 -25 13 -31 12 -60 -4 -18 -11 -36 -32 -41 -49 -5 -16 -16
-43 -24 -60 -23 -47 -11 -113 30 -171 19 -26 47 -69 61 -95 27 -47 27 -47 6
-58 -11 -6 -37 -13 -58 -15 -42 -4 -425 -142 -510 -185 -31 -15 -108 -57 -171
-95 -63 -37 -160 -92 -215 -123 -120 -68 -263 -204 -307 -293 -40 -78 -41
-180 -4 -243 75 -128 218 -137 383 -25 23 16 48 29 57 29 19 0 66 -78 66 -109
0 -13 -15 -37 -35 -55 -28 -27 -35 -41 -35 -71 0 -41 26 -92 74 -143 l31 -33
-35 -64 c-19 -36 -68 -107 -108 -158 -117 -148 -175 -233 -255 -377 -81 -145
-120 -249 -132 -345 -4 -33 -13 -67 -20 -75 -7 -8 -28 -53 -45 -100 -18 -47
-48 -107 -66 -135 -18 -27 -44 -74 -57 -104 -32 -68 -24 -93 51 -169 54 -53
55 -57 53 -105 -1 -27 -15 -86 -31 -130 -52 -142 -68 -290 -36 -339 10 -15 27
-30 38 -34 20 -6 21 -12 15 -103 -3 -53 -17 -172 -31 -266 -13 -93 -30 -221
-36 -283 -12 -108 -14 -113 -34 -107 -54 16 -143 16 -205 0 -72 -18 -146 -64
-156 -96 -6 -19 -12 -21 -53 -15 -64 9 -72 20 -39 54 26 27 34 52 21 64 -3 4
-22 -5 -41 -18 -20 -13 -53 -27 -75 -30 -45 -8 -50 -22 -8 -30 17 -4 32 -15
36 -26 7 -23 43 -38 90 -38 21 0 33 -4 29 -10 -9 -14 -61 -12 -125 5 -30 8
-56 15 -57 15 -2 0 -3 -8 -3 -19 0 -15 10 -20 47 -26 50 -7 98 -23 92 -30 -3
-2 -25 1 -49 6 -44 10 -90 5 -90 -9 0 -10 60 -32 87 -32 46 0 148 -59 131 -75
-3 -3 -25 3 -49 13 -24 11 -72 21 -106 25 -57 5 -63 3 -63 -14 0 -16 7 -19 46
-19 28 0 66 -10 100 -26 43 -20 54 -30 54 -50 0 -18 -5 -24 -23 -24 -35 0 -39
10 -14 30 24 20 24 21 -46 39 -23 6 -50 6 -69 1 -17 -5 -35 -7 -39 -4 -5 3 -9
-4 -9 -16 0 -17 4 -20 20 -16 11 3 28 8 39 11 19 6 84 -15 66 -20 -5 -2 -36
-6 -67 -10 l-58 -6 0 -35 c0 -35 0 -36 43 -33 24 2 49 -1 56 -5 7 -5 18 -3 24
3 29 29 110 -12 202 -103 79 -78 130 -105 195 -106 41 0 43 -1 28 -16 -14 -15
-23 -15 -65 -5 -85 21 -151 60 -178 106 -31 54 -60 72 -145 91 -60 14 -77 14
-115 3 -31 -9 -45 -19 -45 -31 0 -15 6 -17 44 -12 49 7 100 -2 91 -16 -3 -4
-34 -12 -70 -15 -62 -7 -65 -8 -65 -34 0 -25 3 -27 31 -23 34 5 137 -16 145
-30 3 -5 -12 -6 -33 -2 -26 4 -54 0 -88 -14 -44 -17 -50 -24 -53 -51 -4 -36 6
-39 41 -11 18 15 40 20 81 20 53 0 56 -1 56 -25 0 -20 -7 -26 -42 -35 -71 -18
-95 -30 -108 -56 -8 -13 -17 -24 -22 -24 -4 0 -8 -9 -8 -20 0 -19 5 -17 57 16
84 53 125 65 238 67 95 1 104 0 170 -33 43 -21 91 -55 125 -90 30 -30 75 -69
100 -86 27 -17 46 -39 48 -52 6 -43 -44 -22 -129 53 -35 31 -98 73 -139 93
-65 32 -86 37 -165 40 -84 4 -97 2 -166 -27 -67 -28 -150 -93 -137 -107 7 -7
38 7 38 17 0 11 86 54 155 78 40 14 65 16 126 10 98 -9 183 -51 266 -130 34
-33 77 -66 95 -74 18 -8 26 -14 17 -15 -23 0 -108 48 -144 81 -16 15 -57 41
-91 58 -106 52 -220 44 -366 -29 -44 -22 -84 -37 -89 -34 -5 3 -9 -3 -9 -13 0
-16 9 -18 108 -14 198 7 237 4 291 -23 38 -20 55 -37 80 -80 42 -74 126 -133
205 -142 31 -4 58 -10 60 -13 2 -3 -6 -18 -18 -34 l-22 -27 -98 49 c-55 28
-113 63 -130 79 -56 51 -104 82 -177 113 -61 26 -89 32 -186 36 -95 5 -113 4
-113 -9 0 -10 8 -13 29 -10 64 9 242 -32 281 -64 9 -8 38 -25 65 -39 28 -15
70 -46 95 -70 41 -40 162 -105 196 -105 17 0 18 -22 3 -37 -8 -8 -19 -6 -41 4
-16 8 -51 21 -76 28 -31 8 -91 44 -172 103 -139 100 -195 122 -314 122 -59 0
-66 -2 -66 -20 0 -15 7 -20 28 -21 15 0 62 -4 105 -8 67 -7 86 -14 135 -47 31
-22 71 -52 88 -69 52 -51 192 -119 246 -119 36 -1 44 -4 36 -13 -20 -25 -121
-16 -191 17 -36 17 -70 30 -76 30 -6 0 -35 21 -65 48 -82 71 -124 93 -206 108
-99 18 -100 18 -100 -9 0 -18 8 -25 48 -35 26 -7 62 -16 81 -21 18 -5 39 -15
45 -22 8 -9 6 -10 -9 -5 -11 4 -53 13 -92 20 -69 12 -73 12 -73 -5 0 -13 7
-19 21 -19 11 0 55 -10 96 -22 62 -18 85 -31 126 -70 62 -60 153 -105 230
-114 75 -8 73 -24 -4 -24 -74 0 -132 25 -256 113 -94 67 -130 85 -178 89 -24
2 -31 -1 -33 -17 -2 -16 7 -25 34 -38 20 -10 57 -35 83 -57 90 -75 211 -123
318 -124 71 -1 73 -1 79 -29 3 -16 1 -34 -6 -42 -10 -11 -10 -15 -1 -15 7 0 9
-5 6 -11 -4 -6 -13 -8 -21 -5 -7 3 -16 1 -19 -4 -18 -30 -219 5 -271 46 -51
40 -134 95 -134 88 0 -3 -16 4 -35 16 l-35 22 0 -31 c0 -23 7 -34 28 -45 15
-8 35 -23 45 -33 15 -18 45 -33 155 -79 18 -8 49 -14 69 -14 20 0 34 -2 31 -5
-6 -6 -100 -15 -230 -21 -89 -5 -98 -7 -98 -25 0 -17 8 -19 93 -18 50 0 115 4
142 9 28 5 85 14 127 20 43 6 108 20 145 31 110 34 222 29 358 -15 60 -20 116
-43 125 -51 8 -7 67 -33 130 -56 l114 -42 131 6 c148 6 253 25 375 69 146 52
213 68 275 68 61 0 180 -24 199 -39 33 -27 202 -103 257 -116 80 -18 196 -19
273 0 32 7 103 37 158 65 155 80 236 103 331 96 91 -6 140 -29 176 -81 31 -46
104 -80 226 -106 200 -42 382 -5 567 116 96 63 101 65 189 75 76 9 102 8 158
-6 75 -19 95 -27 135 -61 63 -53 124 -74 222 -80 l94 -6 0 187 0 187 -60 90
c-33 49 -60 91 -60 93 0 3 19 7 43 11 64 10 77 15 77 30 0 12 -15 14 -73 10
-116 -7 -138 28 -25 40 77 8 98 14 98 26 0 6 -37 7 -95 3 -70 -5 -98 -4 -110
6 -24 20 -18 30 18 30 58 0 187 34 187 49 0 11 -10 12 -47 6 -27 -4 -79 -10
-117 -14 -67 -7 -71 -6 -103 22 -18 16 -33 32 -33 37 0 4 21 10 46 14 25 3 67
13 93 22 32 11 63 14 104 9 46 -5 57 -3 57 9 0 25 -100 32 -174 12 -75 -21
-169 -18 -174 4 -2 11 26 24 103 49 109 36 145 41 208 28 46 -10 50 7 6 22
-53 18 -117 12 -222 -21 -90 -29 -102 -30 -125 -17 -40 22 -36 34 12 35 25 0
79 13 121 29 73 26 78 27 156 15 45 -6 83 -9 85 -7 3 2 -13 12 -36 21 -54 22
-134 20 -211 -4 -74 -22 -147 -30 -151 -15 -2 6 15 13 37 16 22 4 84 19 139
34 96 26 162 30 211 11 16 -6 15 -4 -5 14 -23 21 -32 22 -126 17 -65 -4 -119
-13 -155 -26 -65 -25 -109 -27 -109 -6 0 10 10 15 31 15 17 0 63 11 102 24
136 45 149 47 200 30 25 -9 54 -14 64 -12 14 2 11 7 -13 23 -46 31 -166 28
-271 -8 -46 -16 -86 -33 -89 -38 -8 -14 -44 20 -44 41 0 26 17 36 100 58 107
29 140 32 183 17 43 -15 59 -3 25 19 -42 26 -89 28 -173 5 -124 -33 -125 -33
-125 -17 0 14 37 32 110 54 14 4 41 8 60 8 42 1 49 26 10 37 -16 4 -19 7 -7 8
9 1 17 8 17 16 0 38 42 8 136 -96 40 -44 94 -76 94 -56 0 8 -18 27 -40 42 -22
15 -40 32 -40 37 0 17 -85 100 -123 120 -46 23 -159 48 -186 41 -23 -6 -33 8
-21 27 17 27 144 19 225 -14 86 -35 89 -37 115 -90 22 -46 56 -83 66 -73 4 3
-11 41 -32 83 -28 55 -52 87 -87 115 -48 38 -126 69 -176 69 -14 0 -33 5 -41
10 -11 7 -1 10 35 11 72 2 85 0 135 -18 42 -15 146 -83 162 -107 5 -6 8 -2 8
10 0 30 -79 100 -148 132 -49 23 -71 26 -161 27 -69 0 -106 4 -108 12 -5 15
11 24 90 49 101 33 137 21 255 -83 60 -54 72 -61 72 -44 0 14 -32 53 -84 106
l-85 85 -58 0 c-32 0 -74 -4 -93 -9 -82 -21 -90 -22 -90 -7 0 28 47 46 118 46
80 0 130 -14 155 -43 27 -31 131 -97 135 -86 7 19 -50 80 -111 119 -34 22 -59
40 -56 40 19 0 90 -37 127 -67 34 -28 42 -31 42 -16 -1 18 -33 45 -98 84 -18
11 -30 24 -27 29 10 16 21 12 74 -30 l51 -40 0 136 c0 113 -3 141 -16 155 -15
17 -15 20 0 43 18 29 23 174 6 206 -7 13 -7 21 0 25 6 4 10 55 10 120 l0 115
-22 -9 c-31 -12 -68 4 -68 28 0 11 5 32 10 46 l10 27 35 -22 c46 -28 48 -5 4
34 -27 25 -30 33 -26 65 19 118 20 141 6 141 -8 0 -21 -15 -29 -32 -8 -17 -23
-36 -33 -42 -15 -9 -23 -6 -42 18 l-23 29 -12 -22 c-8 -16 -17 -20 -32 -15
-18 5 -20 3 -15 -18 6 -21 1 -26 -27 -36 -19 -7 -40 -11 -46 -10 -22 5 -22
-20 -1 -27 27 -8 26 -23 -2 -56 -41 -49 -97 -62 -97 -24 0 9 12 38 26 66 25
49 25 55 18 173 -7 129 -3 147 39 193 24 27 18 38 -18 29 -19 -5 -32 -20 -47
-53 -19 -42 -20 -59 -14 -163 4 -83 3 -126 -6 -151 -20 -53 -110 -169 -137
-176 -34 -9 -154 10 -159 25 -3 9 20 12 93 12 73 0 96 3 93 13 -3 8 -34 14
-90 17 -79 5 -89 8 -143 45 -79 54 -89 81 -81 210 6 95 5 103 -22 154 -26 54
-54 82 -68 69 -3 -4 3 -26 14 -50 12 -23 19 -44 17 -47 -3 -2 -23 13 -45 34
-50 49 -53 85 -10 143 48 67 48 67 320 67 212 -1 253 -3 303 -19 67 -22 97
-54 97 -103 0 -46 -21 -84 -70 -126 -52 -44 -37 -56 21 -17 52 34 79 76 83
128 5 80 -18 110 -173 227 -90 67 -220 177 -225 191 -12 32 -5 66 18 87 33 30
47 90 47 197 0 82 -3 96 -33 157 -32 66 -33 71 -30 177 2 99 5 114 27 146 29
42 31 53 11 70 -19 15 -18 107 1 138 7 12 16 55 18 95 5 75 4 74 70 120 36 26
35 79 -2 96 -57 26 -140 42 -218 42 -182 -1 -267 -20 -280 -62 -8 -24 -10 -21
86 -99 28 -23 31 -31 33 -92 2 -42 9 -76 20 -93 12 -18 15 -36 11 -55 -3 -16
-2 -37 3 -47 7 -13 6 -24 -4 -38 -19 -26 -18 -48 7 -78 25 -33 35 -87 20 -116
-10 -18 -15 -19 -32 -10 -28 15 -49 -5 -49 -47 0 -37 -14 -53 -25 -26 -4 9
-13 49 -21 87 -18 91 -124 307 -174 353 -35 33 -35 33 -38 130 -4 123 22 244
81 379 50 115 53 116 178 85 119 -30 220 -10 280 55 41 44 50 84 39 165 -11
76 -48 157 -102 222 -103 125 -424 360 -597 436 -194 86 -258 113 -306 126
-27 8 -79 25 -115 39 -36 13 -103 34 -150 46 -47 11 -91 27 -99 35 -13 12 -12
17 6 36 12 13 25 37 29 53 4 17 13 39 19 50 7 11 19 45 26 75 7 30 23 66 36
81 29 32 29 38 -2 72 -28 29 -45 33 -62 16 -8 -8 -20 -5 -45 14 -42 32 -74 45
-165 63 -54 12 -77 12 -93 4 -16 -8 -25 -7 -42 5 -13 8 -37 15 -54 15 -18 0
-38 8 -49 20 -25 28 -54 25 -103 -11z m78 -14 c0 -8 -7 -15 -15 -15 -8 0 -15
7 -15 15 0 8 7 15 15 15 8 0 15 -7 15 -15z m-180 -50 c0 -19 -31 -35 -68 -35
-16 0 -50 -6 -76 -14 -33 -10 -56 -12 -73 -5 -28 10 -22 29 10 29 12 1 47 9
77 20 68 24 130 26 130 5z m520 -14 c34 -12 46 -23 48 -40 5 -31 -17 -54 -24
-26 -6 23 -80 57 -128 59 -21 1 -32 7 -34 18 -3 16 2 17 45 11 26 -3 68 -13
93 -22z m-930 -82 c0 -5 -9 -13 -19 -18 -28 -15 -48 11 -25 33 12 13 19 14 30
5 8 -6 14 -15 14 -20z m1105 22 c3 -6 -3 -15 -14 -20 -28 -16 -33 -14 -21 9
12 22 25 26 35 11z m-224 -52 c21 -18 21 -20 4 -14 -11 4 -28 10 -37 12 -10 3
-15 9 -12 14 8 14 20 11 45 -12z m-611 -18 c0 -12 -20 -25 -27 -18 -7 7 6 27
18 27 5 0 9 -4 9 -9z m564 -19 c3 -5 -8 -9 -25 -10 -16 0 -27 4 -24 9 8 11 42
12 49 1z m-181 -82 c-13 -12 -29 -16 -59 -13 l-41 5 20 39 20 40 18 -31 c21
-33 44 -32 33 2 -4 13 -1 24 7 29 23 14 24 -50 2 -71z m-193 60 c0 -5 -2 -10
-4 -10 -3 0 -8 5 -11 10 -3 6 -1 10 4 10 6 0 11 -4 11 -10z m67 -37 c-3 -10
-5 -2 -5 17 0 19 2 27 5 18 2 -10 2 -26 0 -35z m354 30 c13 -16 12 -17 -3 -4
-10 7 -18 15 -18 17 0 8 8 3 21 -13z m-605 -50 c-10 -10 -19 5 -10 18 6 11 8
11 12 0 2 -7 1 -15 -2 -18z m161 1 c9 -15 32 -33 51 -41 28 -11 32 -16 22 -28
-18 -22 -28 -19 -57 15 -46 55 -133 32 -133 -35 0 -39 -12 -51 -30 -30 -10 11
-8 20 9 41 12 15 21 39 21 53 0 37 17 51 62 51 30 0 41 -6 55 -26z m435 -6
c28 -37 43 -84 29 -92 -5 -3 -18 10 -30 29 -38 65 -112 73 -133 14 -13 -38
-41 -54 -59 -33 -18 21 0 48 35 52 14 2 31 13 38 25 15 30 27 37 64 37 24 0
38 -8 56 -32z m-634 -44 c2 -15 -4 -23 -20 -28 -37 -10 -48 -7 -48 12 0 43 62
57 68 16z m-112 -20 c9 -35 -10 -53 -26 -24 -12 23 -7 50 9 50 6 0 14 -12 17
-26z m-77 -18 c12 -18 21 -38 21 -44 0 -18 -29 -22 -45 -6 -20 20 -20 84 1 84
1 0 12 -15 23 -34z m579 9 c3 -16 1 -18 -9 -7 -7 6 -22 12 -33 12 -17 0 -18 2
-6 10 22 15 44 8 48 -15z m199 9 c2 -7 -10 -14 -27 -16 -29 -4 -40 9 -23 26
10 10 46 3 50 -10z m153 -15 c-6 -10 -15 -19 -21 -19 -6 0 -8 3 -6 8 2 4 7 15
10 25 4 10 11 15 17 12 7 -4 7 -13 0 -26z m-529 -15 c20 -21 30 -25 62 -21 40
6 49 -6 17 -23 -26 -14 -58 -5 -92 28 -22 20 -30 23 -42 13 -18 -15 -37 -6
-29 14 9 24 57 18 84 -11z m200 -21 c13 -16 12 -17 -3 -4 -10 7 -18 15 -18 17
0 8 8 3 21 -13z m119 -1 c0 -13 -66 -31 -80 -22 -7 4 -1 8 15 8 14 0 32 5 38
11 13 13 27 14 27 3z m-493 -32 c18 -16 28 -30 22 -30 -7 0 -20 7 -30 16 -25
22 -49 11 -49 -23 -1 -15 -11 -41 -25 -57 l-23 -29 -36 31 c-21 18 -42 29 -51
26 -19 -8 -20 10 -1 25 10 8 19 6 39 -9 14 -11 32 -20 40 -20 25 0 49 31 43
53 -5 22 9 47 26 47 6 0 26 -13 45 -30z m209 -30 l29 -8 -30 -1 c-17 -1 -45
-5 -63 -10 l-33 -10 6 32 c11 48 15 51 40 27 12 -11 35 -25 51 -30z m148 25
c23 -18 13 -22 -56 -27 -56 -4 -62 7 -15 27 40 18 47 18 71 0z m197 -2 c26
-16 29 -16 47 0 28 25 52 22 52 -7 0 -47 -9 -57 -38 -42 -15 7 -48 19 -74 26
-55 14 -62 30 -20 39 2 1 17 -7 33 -16z m-671 -3 c0 -5 -5 -10 -11 -10 -5 0
-7 5 -4 10 3 6 8 10 11 10 2 0 4 -4 4 -10z m210 0 c0 -5 -5 -10 -11 -10 -5 0
-7 5 -4 10 3 6 8 10 11 10 2 0 4 -4 4 -10z m-79 -65 c0 -5 -9 -11 -21 -13 -20
-3 -27 8 -13 22 10 9 34 3 34 -9z m465 -6 c76 -33 112 -74 62 -68 -28 3 -98
-38 -98 -57 0 -8 7 -55 16 -104 8 -50 13 -94 10 -99 -3 -5 -20 -6 -38 -2 -24
5 -34 13 -36 29 -4 26 -29 26 -45 1 -15 -24 -1 -48 33 -60 40 -15 38 -35 -5
-43 -42 -8 -51 -21 -35 -51 8 -15 25 -26 49 -30 20 -4 42 -11 49 -17 9 -8 12
-6 12 6 0 8 13 22 29 31 41 21 45 31 20 56 l-21 21 21 14 c22 16 28 58 11 69
-12 7 -3 74 11 89 5 6 19 0 34 -14 22 -21 25 -30 20 -65 -7 -40 -18 -84 -37
-140 -5 -16 -9 -53 -8 -82 0 -28 -4 -54 -10 -58 -5 -3 -10 1 -10 9 0 23 -21
20 -27 -3 -3 -11 -12 -22 -22 -23 -22 -5 -88 10 -127 28 -17 8 -35 14 -40 13
-32 -7 -102 18 -134 48 -21 18 -42 33 -49 33 -20 0 -23 47 -6 83 12 27 14 40
6 55 -6 11 -7 23 -3 26 4 4 7 40 8 79 1 153 97 236 285 246 15 0 48 -9 75 -20z
m341 -20 c48 -11 102 -27 120 -34 17 -7 65 -23 106 -34 137 -37 414 -165 541
-248 188 -124 355 -269 417 -362 29 -44 39 -78 19 -66 -21 13 -29 -6 -16 -43
10 -29 18 -36 35 -34 19 3 21 -1 21 -48 0 -44 -3 -53 -21 -57 -15 -4 -20 -12
-17 -33 1 -15 -3 -35 -11 -43 -18 -22 -111 -40 -168 -31 -59 8 -123 39 -123
59 0 17 48 51 58 41 4 -4 -1 -12 -11 -17 -9 -6 -17 -17 -17 -26 0 -12 6 -14
27 -8 42 10 55 25 48 54 -4 14 -11 31 -16 37 -14 17 -60 5 -102 -28 -21 -17
-39 -28 -41 -27 -1 2 -10 16 -19 31 -11 17 -23 25 -32 22 -23 -9 -18 -30 12
-54 24 -18 25 -22 11 -36 -13 -13 -18 -13 -45 2 -18 11 -37 15 -49 10 -17 -7
-16 -10 16 -36 40 -33 37 -36 -13 -15 -30 12 -37 12 -47 0 -9 -11 -4 -19 30
-40 49 -31 45 -50 -6 -29 -20 8 -46 14 -58 12 -35 -5 -24 -32 19 -46 40 -13
60 -31 47 -44 -4 -4 -27 -1 -51 8 -34 11 -46 12 -58 3 -19 -16 -1 -34 46 -46
56 -14 52 -35 -5 -31 -38 2 -49 0 -49 -12 0 -8 15 -20 33 -26 39 -12 57 -28
48 -43 -5 -7 -15 -6 -32 5 -20 14 -27 14 -40 3 -14 -12 -14 -14 2 -26 10 -7
26 -13 36 -13 26 0 23 -34 -4 -53 -23 -15 -23 -15 -3 -36 16 -19 17 -25 7 -42
-9 -14 -10 -25 -2 -39 7 -13 7 -20 1 -20 -13 0 -41 53 -41 79 0 10 -11 43 -25
73 -14 29 -25 65 -25 81 0 15 -11 44 -24 65 -14 20 -37 76 -51 124 -35 113
-43 123 -94 121 -40 -2 -41 -1 -86 71 -48 77 -148 181 -165 171 -5 -3 -14 4
-20 15 -6 11 -34 45 -63 75 -29 30 -74 79 -102 110 -27 30 -60 59 -72 65 -30
13 -32 69 -3 95 26 24 25 49 -4 88 -18 25 -27 55 -37 135 l-12 103 43 44 c24
25 45 45 46 45 1 0 42 -9 91 -21z m-984 -26 c-7 -2 -19 -2 -25 0 -7 3 -2 5 12
5 14 0 19 -2 13 -5z m-93 -35 c52 -58 75 -138 73 -256 l-1 -103 34 -45 35 -45
-16 -37 c-16 -36 -18 -37 -70 -38 -64 0 -103 -23 -112 -64 -6 -30 -21 -38 -38
-21 -26 25 -486 -211 -502 -257 -13 -35 -111 -112 -142 -112 -5 0 -23 28 -40
63 -16 34 -53 88 -81 120 -51 56 -53 57 -101 56 -41 -2 -53 2 -65 19 -21 30
-41 27 -59 -8 -19 -38 -19 -74 1 -105 14 -21 14 -25 2 -25 -30 0 -50 27 -55
72 -4 38 0 56 21 94 17 30 23 51 17 57 -14 14 -29 0 -57 -55 -21 -41 -25 -60
-20 -91 8 -45 45 -95 87 -116 16 -7 26 -17 23 -22 -8 -13 -42 -11 -51 4 -4 7
-32 32 -60 56 -48 39 -53 46 -53 84 0 55 49 158 96 201 35 32 39 56 10 56 -22
0 -92 -83 -115 -136 -12 -27 -25 -76 -28 -109 -5 -55 -3 -63 23 -97 16 -20 40
-44 54 -53 l25 -16 -34 5 c-71 12 -106 70 -99 165 6 86 34 139 124 239 74 81
101 99 367 253 171 99 215 122 277 146 30 12 96 37 145 57 109 42 239 84 280
89 67 9 75 7 105 -25z m325 -18 c-8 -32 -12 -85 -9 -147 6 -123 -13 -186 -66
-221 -28 -18 -42 -22 -75 -17 -58 10 -68 27 -59 105 8 72 7 147 -4 200 -13 61
-5 78 41 91 23 6 60 17 82 24 22 8 54 14 72 14 l31 1 -13 -50z m587 -292 c-12
-12 -23 -20 -26 -17 -6 5 -10 75 -8 119 l2 35 27 -58 26 -58 -21 -21z m-557
-168 c-5 -8 -14 -1 -26 19 -26 44 -24 50 7 19 15 -15 23 -31 19 -38z m-116 21
c10 -7 11 -13 2 -30 -16 -29 3 -55 92 -128 86 -71 94 -76 107 -68 18 11 -8 43
-65 80 -30 19 -55 38 -55 41 0 4 18 4 40 0 23 -3 49 -2 60 4 14 8 28 5 55 -10
20 -11 54 -20 79 -20 53 0 61 -7 33 -31 -17 -13 -19 -20 -10 -29 17 -18 84 -3
138 31 53 34 55 34 55 14 0 -8 6 -15 13 -15 15 0 47 51 47 73 0 26 19 29 46 8
18 -14 22 -21 11 -21 -20 0 -77 -66 -77 -90 0 -32 29 -23 51 15 17 29 27 35
55 35 34 0 38 6 35 43 -3 21 7 22 31 0 29 -26 22 -41 -32 -68 -57 -29 -81 -65
-63 -95 10 -14 8 -21 -5 -33 -19 -18 -141 -77 -158 -77 -6 0 -39 -12 -75 -26
-49 -20 -74 -25 -107 -20 -32 4 -44 2 -48 -8 -5 -14 -46 1 -126 45 -23 12 -45
12 -53 -1 -10 -17 13 -38 48 -45 18 -4 51 -16 75 -28 33 -16 45 -18 54 -9 7 7
37 12 68 12 30 1 66 7 80 15 40 23 73 19 87 -10 10 -24 8 -28 -44 -73 -48 -41
-60 -47 -101 -48 -37 0 -52 5 -69 23 -25 27 -48 22 -79 -15 l-20 -25 -47 28
c-45 26 -83 28 -75 3 2 -6 31 -26 64 -43 117 -62 106 -53 88 -80 -10 -15 -14
-34 -10 -49 4 -16 -1 -40 -15 -66 -22 -42 -26 -45 -47 -31 -11 7 -11 9 2 14
29 11 17 38 -24 55 -47 20 -51 32 -11 32 37 0 48 16 27 39 -9 10 -16 25 -16
33 0 24 -29 42 -66 41 -29 -1 -35 3 -40 25 -4 15 -13 41 -22 57 l-15 30 25
-22 c32 -30 37 -29 68 8 l26 32 41 -22 c52 -26 53 -26 53 -1 0 20 -63 70 -88
70 -8 0 -23 11 -34 25 -11 14 -37 34 -58 45 -39 20 -130 104 -130 121 0 22 51
6 91 -29 51 -44 113 -82 135 -82 23 0 28 29 8 51 -15 17 -9 15 42 -8 56 -26
66 -28 188 -26 79 1 133 6 140 13 21 21 -17 31 -101 26 -125 -7 -232 29 -290
97 -35 43 -65 54 -84 31 -12 -15 -8 -22 34 -58 80 -71 51 -71 -34 0 -24 20
-53 40 -64 44 -59 22 -64 22 -92 -6 -25 -25 -27 -26 -40 -8 -12 17 -11 21 14
41 15 13 33 23 39 23 5 0 31 13 57 30 41 26 47 34 47 63 0 45 11 56 39 38z
m813 -290 c-52 -34 -82 -65 -82 -85 0 -10 39 -6 45 4 11 17 51 11 70 -10 10
-12 25 -18 33 -15 8 3 23 -2 33 -11 16 -14 21 -14 51 -1 38 18 97 27 103 16 3
-3 -2 -12 -10 -19 -27 -22 -18 -42 17 -38 34 3 50 -16 21 -25 -64 -19 -140
-51 -153 -63 -13 -14 -13 -17 3 -29 13 -9 27 -11 47 -5 40 11 121 60 127 77 7
18 33 -3 33 -27 0 -19 -112 -83 -167 -95 -41 -8 -63 -32 -42 -46 24 -16 79 -2
152 41 91 53 107 47 23 -8 -91 -60 -153 -86 -286 -122 -63 -17 -137 -37 -165
-45 -134 -37 -166 -33 -183 22 -11 39 -25 106 -28 133 0 8 -7 27 -14 43 -7 15
-10 30 -7 33 9 9 37 -15 37 -32 0 -25 22 -26 48 -2 15 14 49 40 75 57 27 18
51 40 55 49 3 10 19 29 35 45 23 21 28 33 24 55 -4 20 4 40 29 79 34 51 47 59
108 62 26 1 23 -3 -32 -38z m-2078 -38 c40 -19 38 -33 -4 -33 -28 0 -57 29
-43 44 8 8 7 8 47 -11z m2287 -9 c12 -14 11 -16 -5 -13 -11 2 -21 10 -24 17
-5 17 13 15 29 -4z m-475 -63 c-3 -5 -16 -11 -28 -14 -22 -6 -22 -5 -4 8 22
17 40 20 32 6z m119 -11 c3 -5 1 -10 -4 -10 -6 0 -11 5 -11 10 0 6 2 10 4 10
3 0 8 -4 11 -10z m-635 -56 c0 -8 -4 -12 -10 -9 -5 3 -10 10 -10 16 0 5 5 9
10 9 6 0 10 -7 10 -16z m578 -21 c2 -16 -8 -27 -52 -51 -30 -16 -58 -27 -61
-24 -15 16 0 45 37 72 47 34 71 35 76 3z m-1414 -72 c9 -15 -23 -36 -36 -23
-5 5 -7 15 -4 21 9 13 33 14 40 2z m1051 -11 c8 -13 -4 -50 -16 -50 -5 0 -9
14 -9 30 0 30 13 40 25 20z m-943 -42 c-20 -20 -14 -52 19 -91 23 -28 36 -36
52 -32 18 4 28 -4 54 -43 35 -55 146 -144 211 -168 69 -27 54 -41 -55 -50 -54
-4 -102 -8 -108 -9 -5 0 -41 -4 -80 -9 -153 -17 -237 -56 -250 -115 -12 -55
52 -204 120 -277 39 -42 108 -161 100 -174 -11 -17 -27 -11 -60 23 -18 17 -40
38 -49 45 -9 7 -16 27 -16 44 0 35 -35 98 -54 98 -21 0 -46 -34 -40 -55 9 -36
-18 -54 -121 -80 -55 -13 -110 -25 -121 -25 -12 0 -53 -16 -92 -36 -75 -37
-127 -88 -135 -132 -5 -26 10 -72 24 -72 13 0 39 -31 39 -46 0 -10 -7 -13 -25
-8 -41 10 -30 -21 17 -49 46 -27 63 -26 55 4 -3 11 -1 19 4 19 19 0 21 31 4
50 -17 19 -15 50 5 50 5 0 24 -25 41 -56 23 -40 37 -54 49 -51 13 3 16 -1 12
-19 -5 -28 -10 -29 -33 -8 -14 12 -22 13 -39 4 -19 -10 -20 -17 -14 -58 15
-96 1 -145 -49 -176 -25 -16 -42 13 -19 30 14 10 15 15 5 25 -10 10 -16 9 -28
-7 -13 -18 -14 -18 -15 -1 0 10 14 32 30 49 17 16 30 33 30 38 0 33 -74 5 -92
-35 -7 -15 -21 -25 -42 -28 -36 -5 -43 -2 -28 15 13 16 -6 106 -27 132 -7 9
-31 19 -52 22 -23 4 -39 12 -39 20 0 18 9 18 55 -2 26 -10 41 -12 48 -5 15 15
-9 39 -54 58 -21 8 -40 22 -43 30 -9 23 1 28 21 10 29 -25 74 -40 87 -27 8 8
1 19 -24 40 l-35 30 32 -12 c38 -14 39 -14 48 34 6 34 5 38 -24 53 -37 19 -33
32 23 83 24 22 43 31 55 27 24 -7 47 19 29 34 -68 54 -81 69 -75 85 6 15 10
14 31 -11 19 -21 27 -25 36 -17 17 17 8 48 -18 59 -12 5 -22 13 -22 17 0 16
21 18 44 3 27 -18 46 -13 46 11 0 8 6 14 12 14 17 0 88 81 88 99 0 8 -12 28
-27 43 -18 19 -24 31 -17 38 7 7 16 4 29 -10 25 -27 45 -25 45 5 0 15 6 25 14
25 24 0 29 19 12 45 -18 27 -6 35 14 10 16 -19 34 -19 51 1 11 14 10 19 -9 34
-12 10 -22 23 -22 29 0 19 29 12 40 -9 6 -11 17 -20 26 -20 25 0 27 28 5 65
-21 36 -15 50 7 15 14 -23 50 -27 58 -5 4 9 19 15 35 15 38 0 38 22 -1 67 -26
30 -40 63 -25 63 3 0 18 -14 34 -32 19 -21 33 -29 44 -25 24 9 21 22 -14 62
-18 20 -29 39 -25 43 4 4 15 -3 24 -15 20 -25 58 -38 67 -23 3 5 15 10 26 10
11 0 22 7 25 15 4 8 14 15 24 15 33 0 34 21 4 75 -24 46 -27 56 -16 79 6 14
17 26 24 26 9 0 9 -3 0 -12z m1028 -72 c0 -7 -7 -19 -15 -26 -11 -9 -12 -17
-4 -31 7 -15 6 -19 -6 -19 -8 0 -15 3 -16 8 -10 72 -8 82 17 82 14 0 24 -6 24
-14z m84 -7 c0 -8 -4 -33 -8 -56 -5 -38 -4 -43 13 -43 25 0 31 -21 26 -90 -5
-61 -60 -182 -101 -221 -29 -27 -42 -19 -20 13 24 34 20 66 -14 97 -23 20 -27
30 -18 39 8 8 5 14 -16 22 -24 9 -27 14 -24 52 3 42 4 43 34 40 26 -2 36 3 53
27 12 16 21 33 21 38 0 6 9 18 20 28 16 14 19 26 14 48 -5 22 -3 28 7 25 8 -3
14 -11 13 -19z m-1174 -19 c10 -18 9 -19 -14 -8 -14 6 -23 15 -20 19 9 15 23
10 34 -11z m-53 -42 c-3 -7 -5 -2 -5 12 0 14 2 19 5 13 2 -7 2 -19 0 -25z
m1063 -42 c0 -3 -4 -8 -10 -11 -5 -3 -10 -1 -10 4 0 6 5 11 10 11 6 0 10 -2
10 -4z m1855 -72 c50 -8 75 -21 75 -39 0 -19 -73 -75 -98 -75 -12 0 -28 -10
-37 -22 l-16 -23 -19 25 -18 24 -20 -24 c-17 -20 -23 -23 -33 -12 -7 6 -24 12
-38 13 -15 0 -20 3 -13 6 18 7 15 53 -3 53 -22 0 -75 28 -75 40 0 10 60 28
135 40 49 8 78 7 160 -6z m-710 -54 c8 -24 -10 -50 -33 -50 -13 0 -13 3 2 19
15 16 15 19 1 31 -12 10 -21 10 -44 0 -37 -15 -46 -37 -21 -52 14 -9 16 -15 8
-26 -19 -22 5 -36 41 -24 39 14 51 -2 21 -26 -20 -16 -21 -19 -6 -31 14 -12
20 -11 40 8 l23 22 29 -43 c16 -24 31 -56 34 -73 4 -25 10 -30 34 -30 16 -1
31 -6 34 -13 2 -7 -3 -12 -12 -12 -19 0 -40 -36 -26 -45 13 -8 50 4 50 16 0
22 21 6 40 -32 16 -31 19 -44 10 -54 -16 -19 -3 -37 21 -30 13 4 19 2 19 -9 0
-9 -7 -16 -15 -16 -9 0 -15 -9 -15 -24 0 -18 -7 -25 -31 -30 -53 -10 -78 -7
-99 14 -11 11 -32 20 -47 21 -28 0 -28 0 -5 11 31 15 23 29 -24 43 -31 9 -45
9 -67 -2 -15 -8 -36 -11 -47 -8 -19 6 -37 38 -23 42 22 8 35 22 29 32 -9 14
-49 14 -64 -1 -13 -13 -110 6 -139 27 -13 10 -8 12 28 13 66 3 99 12 99 28 0
11 -17 14 -79 14 -108 0 -129 9 -60 27 59 15 78 28 63 42 -5 6 -31 6 -64 0
-50 -8 -247 5 -259 17 -3 2 5 13 17 24 12 12 22 26 22 32 0 16 18 -2 34 -34
10 -19 18 -22 51 -20 48 4 63 16 46 35 -10 12 -4 16 34 22 36 5 48 12 55 31 7
17 17 24 37 24 38 0 88 32 105 66 8 19 24 30 43 34 17 4 39 11 50 17 24 14 51
1 60 -27z m-2335 5 c7 -9 8 -15 2 -15 -5 0 -12 7 -16 15 -3 8 -4 15 -2 15 2 0
9 -7 16 -15z m1998 -92 c18 -4 20 -8 10 -14 -21 -14 -48 -10 -48 6 0 17 4 18
38 8z m-1385 -43 c7 -26 33 -26 47 0 9 17 18 19 58 14 91 -11 145 -24 173 -45
36 -25 37 -44 2 -66 -22 -15 -60 -19 -208 -25 -100 -3 -197 -3 -216 1 l-34 7
33 7 c25 5 33 11 30 24 -3 15 -13 18 -68 15 -102 -4 -52 15 59 23 53 4 99 9
104 12 4 2 3 12 -3 22 -9 18 -5 31 11 31 3 0 9 -9 12 -20z m2423 -34 c-9 -46
-22 -53 -34 -17 -8 22 -7 34 5 51 21 30 37 11 29 -34z m-2571 34 c-3 -5 -41
-9 -83 -8 -73 1 -74 2 -27 8 80 11 117 11 110 0z m2404 -57 c-15 -39 -41 -51
-47 -21 -2 9 7 31 19 48 31 41 47 24 28 -27z m101 -13 c20 -51 20 -55 4 -67
-25 -18 -48 -16 -69 7 -17 19 -17 22 5 75 13 31 26 53 31 48 4 -4 17 -33 29
-63z m-2745 31 c-33 -16 -62 -26 -65 -24 -10 9 81 51 110 51 8 0 -12 -12 -45
-27z m1489 20 c8 -13 -4 -42 -15 -35 -12 7 -12 44 0 44 6 0 12 -4 15 -9z
m-354 -31 c0 -5 -4 -10 -10 -10 -5 0 -10 5 -10 10 0 6 5 10 10 10 6 0 10 -4
10 -10z m-1037 -17 c-7 -2 -19 -2 -25 0 -7 3 -2 5 12 5 14 0 19 -2 13 -5z
m1037 -52 c25 -12 42 -15 48 -9 20 20 35 -4 29 -47 -4 -23 -3 -45 0 -49 4 -4
8 -27 10 -52 3 -64 16 -76 70 -68 29 4 43 3 43 -5 0 -7 -20 -11 -50 -11 -42 0
-50 -3 -50 -19 0 -23 19 -31 71 -31 21 0 39 -4 39 -10 0 -5 -12 -10 -27 -10
-59 0 -70 -9 -70 -51 0 -46 20 -62 68 -57 31 3 49 -13 49 -44 0 -14 -9 -18
-43 -18 -50 0 -62 -7 -46 -27 7 -8 32 -13 61 -13 63 0 61 -23 -2 -30 -24 -3
-45 -10 -47 -16 -5 -16 31 -24 74 -17 51 9 39 -19 -13 -31 -70 -15 -69 -15
-52 -32 13 -14 24 -14 64 -5 42 9 51 8 62 -7 21 -27 8 -37 -46 -34 -55 3 -77
-13 -47 -34 11 -8 37 -11 76 -8 33 2 59 0 59 -5 0 -16 -39 -23 -91 -16 -39 6
-49 4 -49 -8 0 -8 7 -20 15 -27 8 -7 15 -19 15 -27 0 -8 12 -19 28 -26 16 -7
27 -20 27 -32 0 -18 7 -20 75 -21 82 -2 97 -15 29 -26 -51 -9 -56 -13 -38 -34
9 -11 23 -14 48 -10 81 12 85 11 89 -6 3 -15 -4 -18 -36 -18 -21 0 -42 -3 -45
-7 -9 -8 22 -43 38 -43 7 0 15 -9 18 -20 9 -34 77 -23 77 12 0 18 5 16 48 -15
26 -19 53 -47 60 -61 19 -37 35 -33 27 7 -4 19 -19 42 -37 57 -69 55 -150 150
-194 225 -112 192 -132 238 -160 365 -16 72 -40 328 -31 336 4 5 41 -3 106
-22 10 -3 11 -8 4 -15 -7 -7 -18 -6 -36 2 -14 6 -33 9 -43 5 -15 -6 -15 -8 0
-24 12 -14 13 -21 4 -30 -16 -16 28 -64 56 -60 10 2 21 -3 23 -9 3 -8 -5 -13
-19 -13 -35 0 -40 -10 -23 -37 14 -20 14 -24 1 -29 -11 -4 -13 -16 -9 -42 6
-43 26 -62 65 -62 15 0 28 -4 28 -10 0 -5 -18 -10 -39 -10 -22 0 -42 -4 -46
-9 -10 -18 26 -41 66 -41 45 0 52 -17 12 -26 -54 -11 -53 -10 -37 -51 9 -21
21 -43 29 -48 7 -6 14 -19 16 -30 3 -15 15 -21 44 -25 35 -5 37 -7 17 -14 -32
-11 -24 -40 12 -46 36 -6 45 -26 17 -35 -28 -9 -26 -33 3 -46 14 -7 22 -17 20
-24 -7 -17 15 -33 51 -37 26 -3 30 -7 27 -30 -3 -30 18 -48 58 -48 6 0 10 -5
10 -12 0 -18 31 -48 51 -48 9 0 32 -18 49 -40 40 -50 70 -66 151 -80 136 -22
171 -36 216 -87 23 -27 45 -61 49 -77 3 -16 14 -31 25 -33 10 -3 19 -13 19
-22 0 -9 7 -34 14 -56 14 -39 14 -41 -12 -68 l-27 -29 22 -18 23 -18 -21 -46
c-24 -56 -16 -97 22 -106 33 -8 35 -34 4 -48 -24 -11 -25 -14 -27 -124 -3
-181 -5 -219 -17 -297 -6 -40 -9 -82 -6 -92 4 -10 3 -24 -1 -31 -4 -7 -8 -21
-9 -32 -1 -12 -5 -29 -10 -38 -5 -12 -2 -20 9 -24 22 -8 49 15 43 38 -4 14 1
18 22 18 35 0 55 18 40 37 -7 7 -22 13 -35 13 -33 0 -30 14 8 31 43 19 47 38
8 45 l-31 7 22 23 c21 22 21 25 6 42 -23 25 -21 32 7 32 23 0 25 -4 32 -87 4
-49 6 -113 6 -143 -1 -30 3 -89 8 -130 5 -41 15 -138 20 -215 12 -144 43 -408
60 -505 9 -53 47 -258 57 -311 7 -35 -19 -59 -65 -59 -34 1 -35 2 -18 15 23
18 11 38 -20 32 -38 -7 -37 8 1 26 51 24 45 41 -10 34 -52 -8 -59 3 -14 20 38
14 30 33 -14 33 -30 1 -31 2 -13 15 10 8 16 21 13 29 -4 9 -2 18 3 21 6 4 10
15 10 25 0 10 5 20 12 22 20 7 -2 28 -28 28 -29 0 -64 16 -64 30 0 6 18 10 39
10 42 0 63 16 36 26 -14 6 -14 8 1 19 18 12 12 35 -9 35 -33 0 -87 22 -87 36
0 11 9 13 44 9 48 -7 71 9 43 30 -10 7 -14 20 -11 33 5 17 -1 23 -35 33 -51
15 -52 24 -4 24 48 0 52 25 6 37 -44 11 -50 26 -11 24 48 -2 50 28 4 44 -20 6
-36 16 -36 21 0 11 11 11 29 0 15 -10 41 -4 41 9 0 5 -7 16 -16 25 -13 13 -14
18 -3 31 12 14 9 20 -16 40 -28 22 -28 24 -8 24 32 0 39 21 15 41 -18 14 -19
18 -7 23 23 9 18 35 -9 42 -14 3 -32 14 -42 25 -24 26 -80 26 -94 -1 -9 -17
-7 -22 15 -30 15 -6 38 -10 53 -10 26 -1 26 -1 7 -16 -11 -8 -29 -14 -40 -13
-40 3 -46 -1 -43 -23 2 -18 11 -24 38 -28 30 -4 35 -9 38 -34 3 -25 1 -28 -15
-21 -38 16 -60 16 -72 1 -22 -27 -6 -46 39 -46 32 0 40 -4 40 -19 0 -16 -6
-18 -43 -14 -32 4 -46 1 -56 -11 -11 -13 -11 -20 -3 -28 9 -9 8 -16 -4 -29
-23 -26 -9 -39 41 -39 24 0 47 -4 50 -10 4 -6 -10 -10 -34 -10 -26 0 -47 -7
-58 -18 -10 -11 -26 -22 -35 -25 -22 -8 -23 -30 -3 -47 12 -10 17 -7 27 14 7
17 17 25 26 21 7 -3 31 -5 53 -5 29 0 39 -4 39 -16 0 -14 -7 -15 -41 -10 -28
5 -48 2 -63 -7 -11 -8 -33 -17 -48 -21 -32 -7 -37 -31 -9 -45 14 -8 22 -7 32
5 15 18 130 16 136 -2 3 -8 -10 -10 -41 -7 -50 6 -76 -7 -76 -38 0 -16 6 -18
63 -12 l63 6 12 -54 c6 -30 14 -74 18 -99 6 -48 37 -161 59 -221 8 -20 11 -39
8 -42 -11 -11 -63 23 -63 41 0 29 -21 42 -69 42 -44 0 -45 1 -21 13 33 17 32
39 -3 55 -22 11 -26 18 -21 38 4 14 2 24 -5 25 -126 8 -159 -16 -63 -45 26 -8
37 -15 25 -15 -32 -1 -57 -29 -42 -47 6 -8 18 -14 26 -14 13 0 13 -3 2 -16
-11 -14 -9 -20 14 -40 25 -22 26 -25 10 -30 -47 -14 -134 -60 -192 -102 -87
-61 -144 -81 -272 -93 -139 -13 -360 3 -398 28 -14 9 -62 54 -107 100 -99 103
-118 110 -227 84 -42 -10 -77 -15 -77 -12 0 9 82 61 96 61 7 0 25 -5 40 -10
40 -16 57 5 25 31 -41 33 -79 25 -172 -39 -69 -47 -84 -62 -83 -82 3 -41 -83
-111 -154 -126 -31 -6 -69 -15 -84 -19 -21 -5 -28 -4 -28 8 0 8 7 20 16 28 18
14 43 61 51 92 7 31 19 132 33 282 14 163 33 282 72 460 17 77 33 176 34 220
5 142 13 287 23 405 5 63 6 119 1 123 -4 5 -16 4 -27 -1 -13 -7 -23 -6 -36 3
-25 18 -22 38 4 30 25 -8 39 8 39 46 0 17 9 33 25 43 14 9 28 29 31 44 12 50
42 98 68 110 28 13 33 31 14 50 -18 18 -33 15 -67 -13 -18 -15 -36 -46 -47
-78 -17 -54 -33 -72 -47 -58 -9 9 23 81 63 146 18 29 20 39 10 45 -7 5 -19 6
-27 3 -18 -7 -17 12 2 27 8 7 15 18 15 26 0 30 -24 23 -66 -20 -46 -48 -59
-53 -24 -9 14 18 17 30 11 42 -7 11 -4 22 11 38 20 21 20 23 3 29 -22 9 -95
-30 -132 -69 -25 -26 -26 -28 -10 -44 16 -16 18 -15 42 7 21 20 19 13 -12 -33
-29 -45 -43 -57 -63 -57 -52 0 -79 -56 -86 -180 -2 -25 -7 -142 -13 -260 -5
-118 -12 -267 -16 -330 -4 -63 -2 -176 3 -250 5 -74 7 -141 4 -148 -3 -8 -13
-11 -24 -8 -11 2 -31 1 -44 -4 -19 -8 -24 -17 -24 -44 0 -18 6 -36 13 -39 25
-9 122 4 130 19 4 7 21 14 37 14 19 0 30 5 30 14 0 18 -29 29 -45 16 -6 -5
-15 -7 -18 -3 -7 7 -10 153 -3 153 2 0 11 -3 20 -6 12 -5 13 -9 3 -25 -10 -17
-9 -23 7 -34 17 -13 17 -15 3 -21 -21 -8 -22 -33 -2 -40 22 -9 47 15 40 37 -4
11 -2 19 4 19 19 0 12 28 -11 44 l-22 16 24 0 c14 0 32 5 40 10 13 9 13 12 -3
24 -17 13 -57 15 -97 5 -10 -3 -16 5 -18 26 -3 24 -1 28 9 18 16 -16 105 -17
114 -3 4 6 2 17 -5 25 -9 10 -7 16 7 24 15 8 16 13 6 29 -8 14 -8 23 -1 30 14
14 1 32 -25 33 -19 0 -18 2 6 11 47 17 31 42 -29 46 -63 4 -78 -10 -64 -58 6
-21 6 -39 0 -51 -8 -14 -5 -21 10 -32 20 -14 20 -14 -4 -25 -23 -10 -23 -9
-28 46 -3 31 -3 81 -1 110 l6 52 57 0 c36 0 62 5 69 14 19 23 -12 38 -69 34
-27 -1 -50 0 -50 5 0 4 17 7 38 7 20 0 43 4 51 9 22 14 5 41 -26 42 -20 0 -13
4 25 15 30 8 58 12 63 8 5 -3 9 -19 9 -36 0 -22 5 -31 21 -35 21 -6 22 -9 16
-137 -3 -72 -12 -160 -21 -196 -24 -103 -34 -165 -56 -330 -12 -85 -22 -160
-24 -166 -3 -6 -18 -9 -35 -6 -42 6 -43 -25 -1 -41 36 -14 37 -28 16 -160 -12
-75 -20 -96 -52 -137 -30 -39 -41 -47 -54 -40 -10 5 -20 16 -23 24 -8 21 -84
43 -99 28 -14 -14 5 -40 39 -53 26 -10 31 -29 7 -29 -27 0 -84 40 -99 71 -10
17 -24 29 -36 29 -11 0 -37 9 -59 20 -53 27 -76 25 -112 -10 -16 -17 -38 -35
-49 -40 -10 -6 -19 -20 -19 -30 0 -11 -5 -20 -11 -20 -12 0 -62 53 -79 86 -16
30 1 54 37 54 30 0 135 98 189 176 32 47 39 52 49 37 16 -22 68 -10 63 15 -3
12 -12 16 -32 15 -27 -2 -27 -1 -12 16 9 10 16 31 16 47 0 16 7 42 15 58 8 16
17 65 20 110 3 44 11 121 17 170 10 80 15 94 46 128 30 34 33 42 28 75 -11 62
-14 405 -4 448 15 67 15 69 -16 75 -34 6 -37 24 -3 25 29 0 29 29 0 33 -16 2
-23 10 -23 25 0 16 3 18 9 9 5 -8 17 -12 27 -10 18 3 19 16 21 178 5 373 7
413 21 418 8 2 28 17 45 32 18 15 42 30 55 34 12 4 26 15 32 25 5 10 24 21 41
25 64 13 73 37 32 86 l-26 32 29 23 c16 14 34 24 41 25 18 0 27 -20 14 -33 -6
-6 -11 -17 -11 -24 0 -16 47 -47 74 -49 39 -2 96 -16 101 -24 10 -17 -27 -19
-65 -4 -39 16 -39 16 -126 -28 -91 -45 -114 -68 -136 -140 -9 -29 -8 -41 2
-53 12 -14 19 -11 61 31 44 43 47 49 34 64 -19 21 -11 28 59 59 64 28 116 15
66 -17 -21 -13 -27 -47 -10 -57 6 -4 26 7 46 24 40 35 99 42 150 17 16 -8 41
-17 56 -20 14 -2 36 -10 49 -16 15 -8 45 -10 86 -7 57 6 64 4 61 -11 -2 -12
-11 -16 -34 -14 -34 3 -60 -18 -50 -43 3 -8 17 -15 32 -15 40 0 120 -48 147
-89 13 -20 33 -57 45 -83 21 -47 69 -88 104 -88 10 0 29 -23 48 -54 30 -53 58
-74 80 -61 5 3 10 2 10 -4 0 -5 12 -24 26 -41 15 -17 25 -32 23 -33 -2 -1 -13
-7 -24 -13 -15 -8 -21 -23 -23 -60 -4 -55 -25 -84 -82 -114 -19 -10 -58 -40
-87 -67 -54 -50 -57 -56 -54 -145 1 -27 10 -48 33 -74 31 -35 34 -36 89 -31
86 8 141 37 191 101 59 76 128 199 118 210 -13 13 -27 0 -57 -52 -15 -26 -51
-79 -80 -119 -55 -74 -63 -80 -160 -99 -26 -5 -37 -1 -59 21 -23 23 -26 32
-22 76 6 59 38 98 110 135 52 27 118 100 118 133 0 14 9 25 25 31 20 8 25 16
25 43 0 19 -9 46 -20 60 -25 31 -25 33 0 40 11 3 23 13 27 24 5 11 18 18 33
18 24 0 25 3 22 48 -3 37 -1 47 12 47 28 0 26 18 -9 100 -36 84 -40 100 -27
100 4 0 16 -21 27 -46 25 -57 40 -71 60 -54 9 8 12 22 8 42 -5 25 -3 29 13 26
14 -2 19 3 19 22 0 17 7 27 20 30 25 7 31 43 10 60 -14 11 -20 11 -37 1 -16
-10 -23 -10 -37 3 -16 14 -21 14 -57 -5 -21 -12 -51 -28 -67 -36 -43 -23 -165
-37 -209 -24 -48 15 -55 28 -29 52 25 23 27 37 5 46 -8 3 -25 -4 -38 -16 l-23
-22 -16 23 c-13 20 -18 21 -36 11 -11 -7 -28 -10 -37 -6 -24 9 -36 -18 -17
-39 21 -23 32 -23 41 3 l8 20 18 -20 c18 -20 17 -20 -15 -34 -31 -12 -36 -11
-69 11 -25 17 -34 30 -31 45 4 26 19 37 37 30 20 -8 204 56 240 82 39 30 304
125 347 125 17 0 38 -4 46 -9 20 -13 41 -2 41 20 0 52 -120 49 -251 -5 -12 -5
-16 0 -16 23 0 36 23 48 47 26 15 -14 19 -13 35 5 17 18 27 20 110 15 51 -2
104 -9 119 -15 15 -5 37 -10 50 -10 12 0 43 -13 68 -29 25 -16 56 -32 69 -36
37 -11 51 -26 39 -40 -6 -8 -5 -18 4 -31 12 -16 17 -17 39 -5 30 16 47 8 40
-18 -6 -24 13 -36 32 -21 31 26 18 63 -36 105 -46 37 -50 43 -44 73 5 27 3 32
-14 32 -11 0 -25 -9 -31 -20 -6 -11 -15 -18 -20 -15 -6 4 -3 17 7 31 11 18 13
28 5 36 -16 16 -42 2 -42 -22 0 -11 -6 -20 -14 -20 -21 0 -34 23 -25 45 12 31
11 35 -11 35 -11 0 -23 -7 -26 -15 -10 -25 -43 -18 -54 11 -8 19 -15 24 -28
19 -31 -13 -47 -10 -46 8 2 19 -7 22 -23 6 -8 -8 -19 -6 -41 5 -27 14 -35 14
-72 1 -68 -24 -135 -19 -204 14 -34 16 -90 43 -127 60 -53 25 -73 41 -111 92
-43 58 -59 99 -104 269 -3 8 -13 26 -24 40 l-20 25 -18 -24 c-15 -19 -24 -22
-43 -15 -13 5 -32 9 -41 9 -10 0 -18 5 -18 10 1 6 17 9 38 7 53 -5 78 23 63
70 -23 68 -62 256 -71 338 -28 247 -37 280 -81 280 -18 0 -19 2 -9 15 17 20
43 19 90 -4z m-1000 -1 c0 -5 -13 -10 -30 -10 -16 0 -30 5 -30 10 0 6 14 10
30 10 17 0 30 -4 30 -10z m867 -33 c17 -28 18 -35 6 -46 -11 -10 -11 -16 -2
-27 7 -9 8 -14 1 -14 -6 0 -27 19 -47 42 -20 24 -46 49 -58 56 -21 12 -20 12
9 7 21 -4 35 -1 44 9 15 19 23 15 47 -27z m300 11 c12 -13 23 -32 25 -43 2
-13 11 -20 25 -20 31 0 24 -17 -15 -37 -28 -14 -31 -14 -20 -1 10 13 9 18 -7
30 -11 7 -19 23 -17 33 2 14 -4 21 -22 26 -26 6 -32 15 -19 27 12 13 29 7 50
-15z m431 -4 c18 -5 20 -9 11 -20 -6 -8 -19 -14 -28 -14 -17 1 -51 23 -51 34
0 8 38 8 68 0z m-1157 -25 c-25 -3 -46 -10 -48 -15 -11 -32 -22 -38 -47 -26
-28 12 -76 1 -76 -17 0 -11 34 -32 47 -30 21 4 33 -2 33 -16 0 -12 -14 -15
-63 -15 -62 0 -111 -19 -94 -36 4 -5 34 -9 65 -9 46 0 57 -3 60 -17 3 -15 -4
-18 -43 -18 -81 0 -118 -36 -42 -42 29 -2 42 -8 42 -18 0 -11 -15 -16 -55 -20
-40 -4 -55 -9 -55 -20 0 -11 14 -16 58 -18 56 -3 73 -14 41 -26 -9 -4 -25 -4
-36 0 -21 6 -51 -13 -42 -27 3 -5 18 -9 34 -9 16 0 32 -4 35 -10 3 -5 -3 -10
-13 -10 -22 0 -46 -23 -35 -33 3 -4 15 -7 25 -7 14 0 18 -8 18 -38 0 -40 23
-83 37 -69 4 5 8 16 8 25 0 9 7 18 16 20 18 3 33 -38 24 -67 -8 -27 -60 -53
-91 -45 -20 5 -31 2 -40 -11 -15 -20 -12 -22 -29 31 -5 14 -15 16 -59 10 -43
-5 -55 -3 -60 9 -13 34 24 66 50 44 19 -16 44 -4 44 21 0 11 -4 20 -8 20 -5 0
-8 10 -8 23 1 15 -4 21 -15 19 -11 -1 -27 16 -47 50 -16 29 -55 80 -86 113
-31 33 -63 74 -71 90 -9 17 -21 38 -28 48 -10 14 -9 19 2 26 19 12 5 31 -24
31 -26 0 -41 19 -46 59 l-4 24 280 3 c154 2 300 7 325 12 25 4 50 6 55 3 6 -3
-10 -8 -34 -12z m2069 -9 c0 -5 -2 -10 -4 -10 -3 0 -8 5 -11 10 -3 6 -1 10 4
10 6 0 11 -4 11 -10z m-1755 -20 c3 -5 1 -10 -4 -10 -6 0 -11 5 -11 10 0 6 2
10 4 10 3 0 8 -4 11 -10z m1883 -52 c38 -19 28 -41 -15 -34 -83 12 -117 22
-120 33 -8 23 88 23 135 1z m-1818 -20 c13 -22 20 -51 20 -87 0 -50 -1 -53
-22 -47 -13 3 -31 6 -40 6 -10 0 -18 6 -18 14 0 9 7 12 18 9 10 -2 24 2 31 11
10 12 9 17 -8 28 -14 9 -17 16 -10 25 15 18 2 33 -29 33 l-27 0 25 20 c33 26
37 25 60 -12z m110 -38 c0 -5 -7 -10 -15 -10 -8 0 -15 5 -15 10 0 6 7 10 15
10 8 0 15 -4 15 -10z m1678 -22 c12 -24 11 -275 -1 -294 -8 -14 -79 -3 -85 14
-2 7 5 12 17 12 28 0 27 27 -1 36 -21 6 -21 7 -2 21 19 14 18 14 -5 32 -23 18
-23 18 -2 24 27 7 27 21 -1 35 l-23 11 23 0 c23 1 30 15 12 26 -8 5 -7 12 2
23 10 12 10 16 1 19 -10 4 -10 9 0 26 24 43 48 48 65 15z m-1258 -18 c0 -5 -2
-10 -4 -10 -3 0 -8 5 -11 10 -3 6 -1 10 4 10 6 0 11 -4 11 -10z m-400 -29 c0
-9 -41 -23 -48 -16 -2 2 -1 8 3 14 8 13 45 15 45 2z m1345 -56 c9 -25 14 -53
10 -63 -4 -12 -12 -2 -25 38 -22 63 -23 70 -11 70 4 0 16 -20 26 -45z m-1440
-62 c14 -139 81 -451 112 -520 38 -83 109 -198 148 -237 65 -66 200 -123 212
-89 2 6 -8 22 -23 36 -18 17 -22 27 -14 32 17 10 56 -2 143 -46 43 -21 89 -39
102 -39 52 0 21 -18 -61 -35 -80 -17 -91 -17 -166 -2 -87 17 -121 11 -117 -21
2 -9 -5 -34 -14 -56 -9 -21 -14 -42 -11 -47 9 -16 45 11 56 42 6 18 17 29 28
29 17 0 16 -4 -7 -45 -23 -41 -23 -46 -7 -52 21 -8 64 38 64 68 0 13 7 19 21
19 16 0 19 -4 14 -17 -4 -10 -10 -29 -13 -41 -4 -20 -1 -23 19 -20 17 2 27 13
35 38 7 19 15 35 20 35 12 0 25 -59 14 -63 -6 -2 -32 -19 -59 -38 -86 -58
-159 -78 -292 -77 -140 0 -233 26 -274 74 -29 36 -31 47 -9 77 9 13 14 32 11
43 -6 22 1 23 39 9 l27 -11 -34 -18 c-36 -20 -50 -55 -25 -64 10 -4 26 6 43
28 16 19 36 35 46 35 21 0 21 -4 2 -34 -14 -21 -14 -25 1 -37 14 -12 19 -10
38 14 27 34 46 35 46 2 0 -26 14 -31 39 -16 11 7 12 13 3 24 -9 11 -6 18 18
35 18 14 27 17 24 8 -3 -8 0 -17 7 -22 15 -9 49 30 49 56 0 27 -39 32 -68 9
-29 -23 -58 -25 -66 -4 -3 9 -12 12 -22 8 -10 -4 -22 1 -30 12 -10 13 -21 16
-46 11 -44 -8 -84 13 -81 42 2 16 -3 22 -16 22 -39 0 -88 29 -93 54 l-5 25 46
-26 c25 -14 55 -31 66 -38 32 -19 73 -26 81 -14 9 15 -55 79 -80 79 -22 0
-106 47 -106 59 0 5 42 -9 93 -30 50 -21 100 -39 110 -39 33 0 12 25 -39 45
-71 29 -156 84 -148 96 4 7 12 5 22 -5 10 -8 34 -17 55 -21 56 -11 49 18 -10
40 -62 23 -63 24 -55 64 7 32 11 35 42 35 34 1 35 2 35 41 0 32 -5 42 -22 50
-31 13 -29 21 7 29 37 7 39 23 5 36 -35 13 -31 30 6 30 23 0 30 4 27 17 -2 9
-14 20 -28 24 -24 7 -24 7 8 14 40 9 41 22 0 39 l-31 13 37 13 c44 14 43 34
-2 38 -37 4 -44 22 -8 22 24 0 53 25 39 33 -4 2 -20 7 -35 11 -39 9 -37 36 2
36 20 0 30 5 30 15 0 9 -12 18 -30 22 -30 5 -42 23 -17 23 7 0 22 7 33 15 16
13 17 16 4 25 -8 5 -25 10 -37 10 -35 0 -27 18 10 23 17 2 37 5 44 5 7 1 14
-23 18 -65z m95 32 c0 -8 -9 -15 -20 -15 -20 0 -26 11 -13 23 12 13 33 7 33
-8z m910 -27 c0 -5 -23 -30 -50 -56 -29 -28 -48 -55 -46 -63 3 -8 -6 -27 -19
-43 -22 -28 -26 -29 -49 -16 -24 12 -24 14 -8 26 23 17 8 29 -36 29 -28 0 -36
4 -33 15 2 8 5 26 6 40 1 18 8 26 26 28 13 2 30 9 37 14 14 12 38 -4 47 -33 4
-10 12 -19 20 -19 19 0 27 33 15 64 -9 25 -8 26 14 20 18 -4 27 0 36 16 11 21
12 21 25 3 8 -10 15 -21 15 -25z m50 22 c0 -5 -5 -10 -11 -10 -5 0 -7 5 -4 10
3 6 8 10 11 10 2 0 4 -4 4 -10z m530 -103 c0 -45 2 -95 3 -112 1 -21 -2 -29
-12 -27 -7 2 -22 -5 -32 -14 -16 -15 -17 -15 -12 5 3 12 12 21 19 21 19 0 30
30 15 39 -6 4 -13 34 -16 66 -3 33 -8 68 -11 78 -8 25 14 51 32 36 8 -7 13
-38 14 -92z m-2697 -16 c31 -36 57 -68 57 -72 0 -4 -15 -12 -32 -19 -107 -42
-140 -75 -163 -162 -19 -74 8 -128 56 -113 13 4 19 3 15 -3 -3 -5 1 -31 9 -58
9 -31 11 -52 5 -58 -6 -6 -10 -18 -10 -28 0 -23 -19 -23 -26 0 -3 9 -10 25
-15 35 -7 13 -6 23 2 33 9 11 8 18 -6 34 -10 11 -23 20 -28 20 -6 0 -21 10
-34 22 -33 31 -29 73 12 138 39 60 42 70 20 70 -8 0 -33 -28 -55 -62 -22 -35
-40 -57 -40 -50 0 27 42 93 90 140 27 27 47 52 44 55 -4 3 -20 3 -38 0 l-31
-6 30 33 30 32 -31 -4 c-24 -3 -31 0 -30 11 1 10 -7 16 -19 16 -11 1 -26 4
-33 9 -9 5 -24 1 -42 -13 l-29 -21 -36 21 c-20 12 -33 25 -28 29 16 15 116 42
196 54 71 11 83 11 92 -2 6 -8 36 -44 68 -81z m2376 34 c23 -40 40 -45 48 -15
l6 21 18 -20 c11 -12 26 -18 35 -14 15 5 33 -11 34 -29 0 -5 -12 -8 -27 -8
-40 -1 -104 -32 -152 -75 -29 -26 -56 -70 -96 -153 -91 -189 -157 -238 -242
-179 -18 12 -33 25 -33 28 0 3 30 11 66 19 83 16 107 38 168 153 55 101 47
119 -28 68 -24 -17 -49 -31 -54 -31 -6 0 -19 -12 -31 -27 -19 -26 -21 -27 -37
-11 -14 14 -15 20 -5 32 10 11 9 19 -1 35 -18 29 0 40 21 13 20 -27 22 -25 60
48 27 51 57 87 85 102 15 8 25 3 52 -23 26 -25 37 -30 46 -21 9 9 8 16 -5 30
-18 19 -23 42 -9 42 4 0 19 -14 34 -32 19 -23 30 -30 37 -23 8 8 3 22 -14 47
-28 42 -31 58 -11 58 8 0 23 -16 35 -35z m-1158 10 c0 -13 -41 -19 -41 -7 0
11 20 22 33 18 5 -1 8 -6 8 -11z m-561 -35 c0 -5 -2 -10 -4 -10 -3 0 -8 5 -11
10 -3 6 -1 10 4 10 6 0 11 -4 11 -10z m-1040 -25 c10 -12 9 -20 -4 -40 -9 -14
-23 -25 -32 -25 -12 0 -14 7 -9 33 12 52 22 60 45 32z m1610 -19 c0 -6 -11
-11 -25 -13 -19 -3 -25 1 -25 16 0 16 5 18 25 13 13 -4 25 -11 25 -16z m1340
4 c0 -5 -5 -10 -11 -10 -5 0 -7 5 -4 10 3 6 8 10 11 10 2 0 4 -4 4 -10z m-772
-56 c-4 -3 -12 5 -18 18 -12 22 -12 22 6 6 10 -10 15 -20 12 -24z m289 17 c14
-23 5 -35 -14 -20 -14 12 -18 39 -5 39 4 0 13 -9 19 -19z m456 -18 c11 -6 -12
-43 -28 -43 -7 0 -17 9 -20 20 -3 11 -10 20 -14 20 -16 0 -31 -28 -25 -44 8
-21 -4 -21 -28 1 -27 24 -23 31 30 46 42 13 61 13 85 0z m394 -15 c24 -20 -22
-30 -99 -23 -70 7 -77 12 -55 34 15 16 132 8 154 -11z m-1717 8 c0 -3 -4 -8
-10 -11 -5 -3 -10 -1 -10 4 0 6 5 11 10 11 6 0 10 -2 10 -4z m-1480 -26 c0 -5
-4 -10 -9 -10 -6 0 -13 5 -16 10 -3 6 1 10 9 10 9 0 16 -4 16 -10z m70 -2 c0
-7 -11 -26 -25 -43 l-25 -30 11 30 c15 44 39 70 39 43z m878 -12 c3 -13 -1
-17 -14 -14 -11 2 -20 11 -22 22 -3 13 1 17 14 14 11 -2 20 -11 22 -22z m1702
-9 c0 -12 7 -33 16 -45 26 -38 5 -40 -26 -2 -21 26 -26 39 -19 52 13 25 29 22
29 -5z m200 -7 c-5 -10 -10 -32 -10 -48 0 -17 -9 -37 -24 -51 -13 -12 -29 -43
-35 -67 -13 -51 -26 -50 -35 1 -6 28 -1 48 21 92 15 30 38 66 51 80 25 28 48
23 32 -7z m-2582 -17 c-14 -16 -40 -54 -57 -86 -45 -80 -60 -64 -26 28 13 32
67 85 89 85 18 0 18 -2 -6 -27z m1812 12 c32 -16 40 -35 15 -35 -25 0 -65 23
-65 37 0 17 14 17 50 -2z m-559 -5 c11 0 17 -4 14 -10 -11 -17 -65 -12 -65 6
0 11 5 14 16 10 9 -3 25 -6 35 -6z m1677 -12 c7 -7 12 -20 12 -30 0 -15 -9
-18 -47 -20 -27 0 -55 0 -63 1 -8 1 -28 2 -43 2 -24 0 -26 3 -16 15 6 8 21 14
33 14 12 0 31 7 42 15 23 18 66 19 82 3z m-467 -57 c-12 -22 -21 -57 -21 -78
0 -51 38 -127 66 -131 12 -2 30 -12 40 -23 9 -10 23 -19 30 -19 15 0 74 -33
74 -41 0 -12 -95 -67 -127 -74 -18 -4 -33 -4 -33 -1 0 3 18 22 40 43 41 36 49
68 18 68 -9 0 -26 9 -37 19 -20 18 -23 18 -84 2 -53 -14 -97 -14 -97 0 0 2 18
22 39 44 39 41 44 53 56 140 6 47 45 124 52 103 2 -6 -5 -30 -16 -52z m-2293
-1 c15 0 14 -3 -4 -18 -12 -9 -24 -25 -28 -35 -9 -26 -44 -18 -64 15 -13 22
-14 31 -4 52 l12 26 35 -20 c20 -11 43 -20 53 -20z m2222 -74 c0 -13 -8 -34
-18 -46 l-17 -21 -24 25 -24 25 27 10 c32 13 32 16 1 53 -40 48 -29 62 15 18
24 -24 40 -49 40 -64z m-2023 72 c15 -12 18 -38 4 -38 -5 0 -14 7 -22 16 -8
10 -21 13 -37 9 -24 -6 -41 6 -42 29 0 11 80 -2 97 -16z m233 -19 c0 -5 -9 -9
-20 -9 -19 0 -27 20 -13 33 7 8 33 -11 33 -24z m-92 -19 c23 -34 29 -60 13
-60 -5 0 -14 13 -21 30 -7 16 -18 35 -26 41 -8 6 -14 16 -14 21 0 18 25 1 48
-32z m-507 7 c-10 -9 -11 -8 -5 6 3 10 9 15 12 12 3 -3 0 -11 -7 -18z m1874
13 c-3 -5 -10 -10 -16 -10 -5 0 -9 5 -9 10 0 6 7 10 16 10 8 0 12 -4 9 -10z
m1053 -27 c-2 -10 -14 -20 -27 -21 -14 -2 -34 -10 -46 -18 -19 -12 -24 -12
-34 0 -9 11 -5 18 21 35 42 26 91 29 86 4z m-1673 -20 c10 -16 31 -39 47 -52
23 -18 26 -26 17 -37 -17 -20 -3 -44 26 -44 29 0 33 -17 8 -35 -17 -12 -16
-15 3 -52 12 -21 24 -54 27 -73 l7 -35 -20 24 c-36 42 -110 187 -125 243 -7
29 -17 61 -20 71 -11 27 11 20 30 -10z m-823 3 c7 4 8 2 4 -4 -11 -18 -26 -14
-25 6 0 10 3 12 6 4 2 -6 10 -9 15 -6z m-683 -57 c27 -50 27 -69 1 -36 -11 14
-20 33 -20 43 0 9 -8 27 -17 38 -16 18 -16 19 -1 8 9 -8 26 -31 37 -53z m2938
14 c-11 -10 -37 12 -37 31 1 21 1 21 21 -3 11 -13 18 -26 16 -28z m-2045 4
c10 -16 10 -37 0 -37 -23 0 -62 27 -62 44 0 15 5 17 27 11 15 -3 31 -12 35
-18z m968 13 c0 -13 -41 -22 -81 -17 -32 4 -31 4 8 5 23 1 45 7 48 12 8 13 25
13 25 0z m-1451 -29 c9 -15 7 -20 -9 -24 -16 -4 -20 0 -20 19 0 29 15 31 29 5z
m1494 -26 c1 -6 -14 -11 -33 -13 l-35 -2 25 15 c27 15 40 15 43 0z m1257 5 c0
-14 -39 -32 -56 -26 -19 7 -18 24 4 29 31 8 52 7 52 -3z m-3566 -46 c-2 -67
-4 -74 -19 -74 -16 0 -21 53 -9 98 10 36 29 19 28 -24z m3346 11 c0 -39 0 -39
-35 -23 -29 13 -32 33 -7 47 31 19 42 13 42 -24z m-2310 9 c0 -8 -19 -13 -24
-6 -3 5 1 9 9 9 8 0 15 -2 15 -3z m288 -44 c3 -9 -5 -10 -29 -5 -39 8 -54 19
-45 34 8 12 68 -11 74 -29z m1657 19 c-10 -15 -25 -10 -19 6 4 8 10 12 15 9 5
-3 7 -10 4 -15z m-2155 -5 c0 -17 -22 -14 -28 4 -2 7 3 12 12 12 9 0 16 -7 16
-16z m373 -16 c6 -21 2 -36 -7 -27 -10 11 -16 49 -8 49 5 0 12 -10 15 -22z
m1736 13 c9 -6 10 -11 2 -15 -13 -8 -31 1 -31 15 0 11 11 11 29 0z m-2557 -27
c10 -22 9 -32 -9 -65 -27 -49 -18 -57 22 -19 l32 31 38 -31 c36 -29 51 -35
100 -42 31 -5 24 -32 -8 -36 -32 -4 -61 -43 -78 -105 -13 -49 11 -116 53 -152
29 -25 49 -24 79 2 15 12 16 11 12 -10 -3 -14 0 -28 6 -31 8 -5 6 -16 -4 -36
-17 -32 -20 -87 -6 -109 6 -10 5 -22 -5 -35 -16 -23 -19 -86 -4 -86 6 0 10 -4
10 -10 0 -5 -6 -10 -14 -10 -19 0 -40 -26 -26 -35 5 -3 7 -17 4 -30 -5 -19 0
-25 23 -32 28 -10 28 -10 5 -17 -14 -5 -22 -14 -20 -24 3 -13 14 -17 51 -16
57 0 62 -12 8 -21 -43 -7 -67 -27 -56 -45 7 -11 37 -9 116 6 18 3 28 0 32 -10
5 -11 -1 -15 -21 -14 -15 0 -49 -8 -75 -17 -55 -20 -61 -46 -12 -56 l30 -6
-28 -11 c-19 -8 -27 -18 -25 -30 4 -20 43 -19 97 4 19 8 41 12 48 10 20 -8 4
-33 -25 -39 -85 -16 -127 -34 -127 -53 0 -16 6 -19 35 -17 19 2 54 8 78 14 23
7 46 9 50 5 13 -14 -30 -35 -84 -42 -29 -3 -59 -12 -65 -20 -14 -17 -2 -22 66
-26 l50 -3 -40 -8 c-22 -5 -50 -10 -62 -13 -25 -5 -31 -29 -10 -37 8 -3 42 -2
76 2 72 9 81 -9 10 -22 -81 -14 -89 -17 -89 -33 0 -14 11 -16 70 -12 95 5 89
-14 -12 -36 -29 -7 -38 -30 -14 -39 7 -3 33 -3 56 0 60 8 49 -17 -16 -38 -71
-23 -66 -45 9 -41 51 2 58 0 55 -15 -2 -11 -18 -20 -43 -26 -67 -14 -69 -15
-55 -32 8 -9 30 -15 56 -15 65 0 53 -17 -18 -27 -46 -6 -63 -12 -63 -23 0 -12
14 -15 65 -16 35 -1 66 -6 68 -12 2 -6 -24 -20 -58 -33 -65 -23 -78 -35 -62
-51 7 -7 23 -8 49 -1 21 6 44 12 52 14 8 2 16 -3 18 -13 3 -13 -8 -19 -51 -29
-68 -15 -81 -23 -72 -44 4 -13 13 -15 32 -11 15 4 23 3 20 -3 -4 -5 -20 -12
-36 -16 -62 -14 -43 -49 20 -39 19 3 43 8 53 11 9 2 17 0 17 -5 0 -5 -34 -19
-75 -31 -51 -16 -75 -28 -75 -38 0 -13 9 -14 57 -8 31 4 63 9 71 12 10 4 13 0
10 -12 -2 -13 -21 -24 -58 -35 -75 -22 -105 -39 -92 -52 7 -7 28 -6 66 2 59
12 78 8 70 -15 -3 -8 -35 -18 -77 -26 -113 -19 -131 -49 -30 -49 66 0 65 -6
-3 -23 -60 -15 -70 -43 -14 -40 39 3 38 3 -53 -35 -43 -18 -44 -38 -1 -35 28
2 27 1 -8 -15 -50 -22 -42 -38 16 -34 l47 3 -40 -37 c-23 -20 -41 -43 -41 -50
0 -24 37 -15 55 13 17 25 19 26 25 8 4 -11 19 -22 33 -25 l26 -5 -20 -55 c-32
-92 -29 -87 -44 -67 -11 16 -21 18 -57 12 -52 -9 -70 -22 -63 -46 6 -19 -20
-39 -51 -39 -13 0 -14 3 -4 15 18 22 -2 42 -51 50 -57 10 -49 27 9 19 37 -5
51 -2 61 9 10 13 9 17 -7 26 -11 6 -38 13 -61 17 -58 9 -57 36 2 28 32 -5 46
-2 56 10 11 13 9 17 -14 26 -24 9 -25 11 -10 26 19 20 11 30 -33 41 -32 8 -45
27 -19 29 33 3 37 5 37 20 0 9 -9 18 -20 21 -24 6 -26 28 -4 37 9 3 14 15 12
28 -2 15 4 27 17 33 21 11 41 93 27 107 -12 12 -42 -1 -42 -18 0 -16 -36 -37
-50 -29 -12 7 -3 135 15 210 26 115 27 132 7 152 -10 10 -22 26 -25 36 -8 22
-35 19 -51 -5 -8 -13 -5 -24 12 -48 l23 -30 -21 -84 c-11 -46 -20 -98 -20
-115 0 -34 -11 -39 -30 -16 -11 13 -10 18 4 28 21 15 16 75 -8 92 -13 10 -16
34 -16 154 0 133 1 141 19 141 31 0 37 21 11 42 l-23 19 21 15 c29 20 28 32
-4 44 -31 12 -24 25 22 40 47 16 43 45 -6 45 -33 0 -35 2 -35 34 0 22 6 36 15
39 13 4 13 3 2 -11 -17 -20 -8 -37 19 -37 27 0 37 30 14 43 -18 9 -18 10 0 23
23 17 13 49 -13 39 -39 -15 -33 -50 -52 300 -5 105 -10 227 -10 273 0 79 -1
83 -25 92 -14 5 -25 16 -25 25 0 11 6 14 25 9 20 -5 25 -2 25 13 0 16 5 19 30
15 23 -3 30 0 30 12 0 9 -6 17 -12 17 -18 2 -21 1 -40 -6 -13 -5 -19 4 -31 47
-28 100 -33 288 -8 288 16 0 38 -133 28 -167 -6 -17 -6 -40 -2 -50 5 -10 9
-34 9 -53 1 -34 2 -35 41 -35 29 0 40 4 40 15 0 8 4 21 9 28 10 17 3 24 -26
27 -13 1 -26 3 -30 4 -4 0 -4 30 -1 66 4 40 1 86 -7 119 -11 48 -10 56 8 92
11 21 38 55 59 74 53 50 71 86 55 111 -8 12 -8 19 -2 19 6 0 16 -12 22 -26z
m3131 6 c5 -4 7 -31 5 -61 -3 -47 -6 -54 -26 -57 -14 -2 -21 1 -20 9 2 7 -8
15 -22 18 -25 6 -33 32 -17 58 5 7 -1 17 -15 24 -22 12 -22 12 -3 20 22 8 85
1 98 -11z m-3616 -16 c-9 -9 -28 6 -21 18 4 6 10 6 17 -1 6 -6 8 -13 4 -17z
m358 -61 c26 4 35 2 32 -6 -2 -7 -14 -14 -28 -15 -13 -2 -28 -8 -33 -13 -13
-12 -39 -12 -31 0 3 6 -3 18 -13 28 -11 10 -22 29 -25 42 -5 22 -4 22 28 -9
29 -28 39 -32 70 -27z m424 22 c-9 -8 -22 -10 -34 -5 -18 6 -17 8 10 23 32 16
48 5 24 -18z m2024 -65 c29 -25 66 -52 82 -59 40 -18 18 -25 -26 -9 -19 8 -66
47 -109 93 -75 79 -56 70 53 -25z m-1365 51 c2 -13 -2 -21 -11 -21 -28 0 -47
12 -47 30 0 28 54 20 58 -9z m1568 -16 c-44 -31 -65 -20 -29 15 21 22 31 25
44 17 15 -9 13 -13 -15 -32z m-3034 18 c10 -9 18 -20 18 -25 0 -11 -49 24 -50
35 0 12 12 8 32 -10z m1213 -1 c-3 -3 -11 0 -18 7 -9 10 -8 11 6 5 10 -3 15
-9 12 -12z m1905 -2 c0 -5 -2 -10 -4 -10 -3 0 -8 5 -11 10 -3 6 -1 10 4 10 6
0 11 -4 11 -10z m-1760 -47 c0 -7 -4 -13 -10 -13 -5 0 -10 12 -10 28 0 21 2
24 10 12 5 -8 10 -21 10 -27z m-174 -10 c-7 -7 -26 7 -26 19 0 6 6 6 15 -2 9
-7 13 -15 11 -17z m2574 -15 c26 -24 73 -65 104 -91 31 -27 56 -51 56 -55 0
-4 -108 -7 -240 -7 -132 0 -240 3 -240 7 0 9 57 20 117 22 27 0 47 5 45 11 -3
12 -121 9 -155 -4 -14 -5 -30 -5 -40 1 -13 7 -33 1 -77 -23 -33 -18 -64 -29
-68 -25 -10 11 48 56 81 63 15 3 27 9 27 14 0 15 -23 10 -72 -16 -52 -27 -58
-29 -58 -16 0 8 106 81 119 81 3 0 26 14 51 30 25 16 48 30 52 30 3 0 18 -20
32 -45 l27 -45 69 0 c60 0 71 3 84 22 9 12 16 34 16 49 0 24 7 39 18 39 3 0
26 -19 52 -42z m-3750 -10 c0 -15 -17 -8 -41 19 l-24 26 33 -19 c17 -10 32
-22 32 -26z m1122 -6 c17 -17 -1 -32 -32 -25 -37 7 -40 -11 -7 -38 l22 -18
-27 -1 c-33 0 -37 -19 -7 -27 14 -4 19 -12 17 -27 -2 -16 -9 -20 -30 -18 -32
3 -38 -17 -8 -25 24 -6 27 -41 4 -50 -9 -3 -30 1 -47 9 -31 15 -57 14 -57 -1
0 -5 20 -16 45 -25 44 -17 64 -43 26 -33 -10 2 -25 1 -32 -4 -8 -5 -23 -2 -36
6 -12 8 -29 15 -38 15 -27 0 -16 -30 19 -51 19 -11 37 -27 40 -35 5 -13 1 -13
-22 2 -44 29 -82 61 -82 69 0 5 15 27 34 49 33 41 70 118 96 201 7 22 14 43
16 46 5 9 94 -7 106 -19z m323 -2 c-5 -8 -11 -8 -17 -2 -6 6 -7 16 -3 22 5 8
11 8 17 2 6 -6 7 -16 3 -22z m2190 0 c-3 -5 -18 -10 -33 -10 -21 0 -24 2 -12
10 20 13 53 13 45 0z m-3681 -21 c28 -22 35 -49 12 -49 -13 0 -56 49 -56 64 0
12 18 6 44 -15z m2304 -25 c-13 -13 -19 -14 -37 -2 -28 17 -27 26 7 30 36 5
50 -8 30 -28z m-2188 -4 c0 -16 -4 -30 -10 -30 -5 0 -10 14 -10 30 0 17 5 30
10 30 6 0 10 -13 10 -30z m1158 18 c17 -17 15 -28 -4 -28 -23 0 -11 -24 15
-28 35 -5 123 28 128 49 6 22 23 15 23 -9 -1 -27 -68 -63 -127 -69 -58 -6 -70
-14 -49 -32 9 -8 31 -9 67 -3 30 4 68 5 84 2 29 -5 27 -6 -24 -23 -29 -9 -66
-17 -82 -17 -27 0 -47 -15 -36 -27 3 -3 37 -5 74 -5 65 0 66 -4 9 -22 -15 -5
-16 -9 -5 -22 10 -12 25 -15 62 -11 93 8 31 -10 -73 -22 -108 -13 -160 -31
-160 -56 0 -19 15 -19 44 0 16 11 58 17 127 21 57 2 121 6 142 8 68 7 38 -11
-47 -27 -46 -9 -104 -25 -128 -36 -24 -10 -71 -20 -106 -23 -52 -4 -65 -1 -79
14 -14 16 -15 25 -6 56 99 338 93 322 117 322 12 0 27 -5 34 -12z m102 7 c0
-10 -52 -25 -63 -18 -7 4 -3 9 9 14 23 9 54 11 54 4z m107 -37 c-3 -8 -6 -5
-6 6 -1 11 2 17 5 13 3 -3 4 -12 1 -19z m-517 -18 c0 -5 -5 -10 -11 -10 -5 0
-7 5 -4 10 3 6 8 10 11 10 2 0 4 -4 4 -10z m-680 -10 c0 -5 -2 -10 -4 -10 -3
0 -8 5 -11 10 -3 6 -1 10 4 10 6 0 11 -4 11 -10z m3130 -37 c0 -8 -73 -53 -84
-53 -17 0 -2 23 27 40 33 20 57 26 57 13z m-3209 -53 c8 -1 1 -8 -14 -16 -24
-13 -27 -20 -22 -44 4 -16 2 -31 -5 -35 -8 -5 -6 -12 5 -25 13 -14 13 -18 2
-23 -9 -3 -14 -22 -14 -50 -1 -36 3 -47 20 -55 15 -7 17 -11 6 -11 -34 -2 -47
-51 -13 -51 19 0 18 -10 -3 -25 -26 -19 -6 -35 45 -35 26 0 53 -4 61 -9 10 -6
-5 -9 -43 -9 -41 0 -62 -4 -74 -16 -15 -15 -15 -18 -2 -26 8 -5 33 -10 55 -11
76 -1 85 -16 15 -23 -77 -8 -95 -17 -86 -41 3 -10 1 -24 -5 -31 -14 -17 -3
-34 24 -35 16 0 10 -6 -21 -20 -45 -20 -48 -39 -6 -39 31 0 31 -14 -2 -29 -21
-9 -24 -14 -14 -26 7 -8 22 -15 34 -16 18 0 16 -2 -7 -11 -18 -6 -27 -16 -25
-27 3 -13 14 -15 55 -13 70 4 76 -14 8 -28 -53 -11 -74 -24 -60 -38 3 -3 42
-7 86 -8 84 -2 105 9 79 41 -10 12 -9 15 4 15 16 0 21 -25 10 -54 -5 -12 -21
-16 -66 -16 -64 0 -98 -12 -98 -35 0 -8 3 -15 8 -15 4 -1 37 -2 74 -3 40 -1
72 -7 80 -15 11 -12 1 -13 -62 -8 -79 7 -107 -1 -97 -28 4 -10 18 -16 39 -16
41 0 125 -25 112 -33 -6 -3 -16 -2 -24 4 -20 12 -111 11 -130 -1 -24 -16 15
-40 69 -42 l46 -1 -55 -6 c-40 -4 -56 -10 -58 -23 -2 -13 8 -18 50 -25 l53 -9
-57 -17 -56 -17 -7 -51 c-9 -63 -1 -69 76 -66 44 2 62 -2 78 -17 26 -24 13
-43 -17 -27 -29 16 -105 14 -128 -3 -23 -18 -21 -18 91 -38 63 -11 81 -18 83
-32 3 -15 0 -17 -14 -11 -53 23 -154 16 -154 -10 0 -10 11 -15 33 -15 l32 -1
-40 -18 c-46 -21 -41 -24 59 -40 37 -5 69 -11 71 -13 1 -2 5 -38 8 -82 l6 -78
-32 7 c-34 8 -125 7 -139 -1 -14 -9 2 -24 24 -24 12 0 49 -5 84 -11 l62 -11 4
-40 c3 -29 -2 -48 -15 -65 -16 -20 -18 -34 -13 -84 6 -50 5 -59 -9 -59 -13 0
-14 4 -4 21 15 29 -6 49 -58 56 -41 5 -70 -13 -60 -39 2 -7 0 -21 -5 -31 -14
-27 46 -81 73 -66 19 10 75 2 64 -9 -3 -4 -20 -5 -38 -4 -18 2 -41 -4 -52 -12
-20 -16 -20 -16 -1 -31 11 -8 32 -15 48 -15 18 0 28 -5 28 -14 0 -22 -39 -24
-99 -4 -30 10 -69 18 -87 18 -44 0 -118 33 -138 61 -18 27 -21 113 -6 227 5
40 19 205 30 365 11 161 27 335 36 387 8 52 28 214 44 360 41 368 66 550 79
583 6 16 11 43 11 61 0 43 9 50 35 26 12 -11 28 -20 36 -20z m2365 -93 c9 -21
7 -24 -21 -33 l-31 -10 15 33 c18 39 23 40 37 10z m-1696 -137 c-32 -25 -40
-25 -40 0 0 16 7 20 33 20 l32 0 -25 -20z m540 -4 c0 -3 -19 -16 -42 -30 -29
-17 -47 -22 -58 -16 -27 14 -53 -11 -55 -54 -3 -43 -15 -62 -15 -23 0 25 -8
31 -36 28 -8 -1 -17 54 -10 60 1 0 195 36 209 38 4 1 7 -1 7 -3z m-495 -36
c-3 -5 -10 -10 -16 -10 -5 0 -9 5 -9 10 0 6 7 10 16 10 8 0 12 -4 9 -10z
m-895 -110 c0 -5 -7 -10 -15 -10 -8 0 -15 5 -15 10 0 6 7 10 15 10 8 0 15 -4
15 -10z m1250 -51 c0 -5 -4 -9 -10 -9 -5 0 -10 7 -10 16 0 8 5 12 10 9 6 -3
10 -10 10 -16z m2074 0 c-3 -5 -10 -7 -15 -3 -5 3 -7 10 -3 15 3 5 10 7 15 3
5 -3 7 -10 3 -15z m-1009 -29 c4 -6 2 -17 -5 -24 -6 -8 -8 -26 -4 -41 5 -22
11 -26 31 -21 21 6 26 1 43 -40 21 -48 19 -71 -3 -40 -7 9 -24 22 -37 29 -14
7 -37 35 -52 62 -25 46 -26 51 -11 67 18 21 29 23 38 8z m-1411 -9 c3 -4 17
-6 31 -3 29 5 34 -13 5 -21 -37 -9 -23 -36 22 -43 38 -7 40 -8 22 -21 -15 -11
-17 -17 -6 -33 6 -11 12 -26 12 -35 0 -8 12 -18 26 -21 24 -6 25 -8 9 -17 -18
-9 -18 -10 0 -23 20 -15 22 -12 -31 -29 -13 -4 -14 -8 -4 -20 7 -8 20 -15 29
-16 11 0 9 -3 -6 -9 -25 -10 -31 -29 -10 -31 26 -2 93 2 110 7 33 10 19 34
-20 35 l-38 0 45 15 c25 7 46 14 47 14 1 0 -1 -17 -4 -37 -7 -51 -24 -66 -80
-73 -34 -3 -48 -10 -48 -20 0 -12 12 -15 58 -13 67 2 80 -20 20 -34 -23 -5
-38 -15 -38 -23 0 -10 13 -16 38 -18 29 -3 37 -7 37 -23 0 -14 -7 -19 -27 -19
-43 0 -73 -11 -73 -26 0 -16 42 -29 70 -21 11 3 18 1 14 -4 -3 -5 -24 -9 -48
-9 -49 0 -61 -7 -45 -27 7 -7 32 -13 60 -13 62 0 64 -16 3 -23 -50 -5 -70 -18
-59 -37 7 -11 45 -10 95 1 9 3 15 -3 15 -15 0 -17 -9 -20 -60 -24 -63 -4 -82
-13 -70 -32 5 -9 27 -11 71 -7 l64 5 0 -27 c0 -26 -2 -28 -51 -29 -57 -1 -64
-4 -56 -27 7 -17 58 -20 87 -5 22 12 34 -1 25 -29 -3 -11 -15 -18 -33 -19 -40
-1 -91 -13 -98 -23 -3 -5 -2 -15 3 -21 4 -7 6 -21 5 -30 -2 -11 3 -18 12 -18
9 0 16 -4 16 -9 0 -9 -80 -25 -88 -16 -3 2 -7 186 -10 407 -4 397 -4 404 -27
456 -18 39 -29 52 -45 52 -12 0 -18 4 -15 11 4 5 -1 19 -11 30 -16 18 -16 19
0 19 9 0 19 7 22 15 7 17 20 20 28 6z m3264 -3 c7 -7 12 -23 12 -37 -1 -31
-54 -154 -69 -159 -14 -5 -1 31 28 79 23 38 26 49 11 49 -6 0 -15 -11 -20 -24
-17 -45 -28 -37 -26 22 1 70 31 103 64 70z m-1653 -40 c3 -24 9 -51 12 -61 3
-13 -2 -20 -16 -24 -13 -3 -21 -13 -21 -26 0 -16 -3 -18 -11 -10 -8 8 -7 26 6
67 10 30 15 64 12 76 -3 11 -1 20 3 20 5 0 11 -19 15 -42z m-1327 12 c12 -12
22 -29 22 -40 0 -10 3 -27 7 -37 3 -10 -10 6 -30 36 -21 29 -37 55 -37 57 0
10 18 2 38 -16z m94 -12 c-13 -13 -32 -2 -32 18 0 12 4 13 21 3 14 -7 18 -14
11 -21z m1148 -10 c0 -36 -4 -35 -14 5 -4 16 -2 27 4 27 5 0 10 -14 10 -32z
m1771 -67 c-22 -90 -24 -96 -40 -87 -6 4 0 35 16 84 15 42 28 84 31 92 2 8 6
10 8 4 3 -6 -4 -48 -15 -93z m-131 79 c0 -5 -4 -10 -10 -10 -5 0 -10 5 -10 10
0 6 5 10 10 10 6 0 10 -4 10 -10z m-9 -63 c-13 -13 -26 -3 -16 12 3 6 11 8 17
5 6 -4 6 -10 -1 -17z m-2991 -27 c12 -8 9 -10 -12 -10 -16 0 -28 5 -28 10 0
13 20 13 40 0z m1539 -4 c10 -11 9 -24 -2 -58 -17 -47 -14 -50 -32 36 -7 35
12 48 34 22z m912 4 c22 -13 24 -20 6 -44 -8 -11 -19 -15 -30 -10 -21 8 -22
24 -2 24 20 0 19 17 -2 29 -24 14 2 14 28 1z m-1860 -47 c-11 -21 -20 -35 -21
-31 0 12 33 78 38 74 2 -2 -6 -21 -17 -43z m-1422 21 c28 -6 31 -10 31 -45 0
-22 -4 -39 -10 -39 -5 0 -7 7 -3 15 7 19 -21 41 -59 49 -16 3 -28 10 -28 16 0
11 23 13 69 4z m1346 -37 c-13 -32 -35 -51 -35 -30 0 9 44 73 47 69 2 -2 -4
-19 -12 -39z m2276 16 c2 -121 -2 -643 -5 -661 -3 -12 -8 -113 -11 -225 -4
-111 -10 -206 -15 -210 -4 -5 -20 -7 -36 -5 l-29 3 0 355 c0 325 5 493 16 529
8 28 -20 21 -36 -9 -13 -25 -16 -64 -14 -223 0 -105 0 -324 -1 -484 l-1 -293
25 -23 c14 -14 26 -28 26 -33 0 -5 -16 -20 -36 -33 -33 -23 -38 -24 -67 -11
-30 13 -76 15 -157 8 -29 -2 -35 0 -35 16 0 12 13 24 42 35 62 24 84 48 82 90
-1 20 2 104 6 186 4 83 9 224 10 315 5 434 2 396 32 424 25 24 27 28 15 58
-15 41 3 67 36 49 11 -6 28 -8 36 -5 9 4 23 0 32 -7 12 -10 18 -9 31 3 13 13
13 21 3 51 -12 30 -11 40 9 81 26 52 41 59 42 19z m-2734 -8 c3 -9 3 -19 -1
-22 -7 -7 -36 16 -36 28 0 15 30 10 37 -6z m2913 10 c0 -3 -7 -17 -16 -30 -15
-23 -18 -23 -37 -10 -12 8 -29 15 -39 15 -18 0 -24 11 -11 23 8 8 103 9 103 2z
m-1518 -73 c-7 -2 -19 -10 -26 -18 -21 -20 -31 14 -11 36 9 10 13 25 9 36 -3
10 5 4 17 -15 16 -24 20 -36 11 -39z m-1628 17 c-2 -4 -13 -7 -24 -6 -18 1
-18 2 -3 19 12 14 18 15 24 6 4 -7 6 -15 3 -19z m333 25 c-3 -3 -12 -4 -19 -1
-8 3 -5 6 6 6 11 1 17 -2 13 -5z m2108 -13 c3 -5 1 -12 -5 -16 -5 -3 -10 1
-10 9 0 18 6 21 15 7z m251 -31 c7 -14 13 -28 14 -31 0 -14 -62 -35 -90 -31
-42 6 -38 20 7 24 49 4 53 24 6 33 -71 13 -66 32 8 30 33 -1 44 -6 55 -25z
m149 -10 c0 -34 -39 -39 -71 -9 -31 29 -22 41 29 37 37 -3 42 -6 42 -28z m515
13 c-1 -18 -98 -115 -110 -111 -9 3 -2 16 23 45 20 22 37 45 37 51 0 11 16 20
38 21 6 1 12 -2 12 -6z m-120 -11 c0 -12 -39 -47 -45 -41 -11 12 9 49 26 49
11 0 19 -4 19 -8z m-790 -68 c0 -45 -24 -42 -28 4 -2 24 1 32 12 32 12 0 16
-10 16 -36z m233 -42 c42 -38 -8 -103 -67 -88 -38 9 -27 30 19 36 41 5 50 16
35 40 -8 12 -14 13 -42 2 -41 -15 -64 1 -33 24 23 17 60 11 88 -14z m637 14
c0 -3 -4 -8 -10 -11 -5 -3 -10 -1 -10 4 0 6 5 11 10 11 6 0 10 -2 10 -4z
m-230 -20 c0 -3 -4 -8 -10 -11 -5 -3 -10 -1 -10 4 0 6 5 11 10 11 6 0 10 -2
10 -4z m-2703 -38 c-3 -7 -5 -2 -5 12 0 14 2 19 5 13 2 -7 2 -19 0 -25z m-67
2 c0 -5 -4 -10 -10 -10 -5 0 -10 5 -10 10 0 6 5 10 10 10 6 0 10 -4 10 -10z
m290 0 c0 -5 -7 -10 -15 -10 -8 0 -15 5 -15 10 0 6 7 10 15 10 8 0 15 -4 15
-10z m94 -6 c4 -10 1 -14 -6 -12 -15 5 -23 28 -10 28 5 0 13 -7 16 -16z m2676
-8 c0 -3 -4 -8 -10 -11 -5 -3 -10 -1 -10 4 0 6 5 11 10 11 6 0 10 -2 10 -4z
m-135 -75 c-28 -41 -75 -79 -75 -62 0 12 93 111 99 105 2 -2 -8 -22 -24 -43z
m-2915 -5 c0 -25 -5 -48 -12 -52 -7 -5 -9 -2 -5 9 3 8 -1 21 -9 27 -26 22 -15
56 19 59 4 1 7 -19 7 -43z m-890 -69 c0 -62 -3 -87 -10 -77 -11 18 -9 181 2
174 4 -3 8 -47 8 -97z m1170 94 c0 -6 -5 -13 -10 -16 -19 -12 8 -33 35 -27 15
2 25 0 25 -7 0 -6 -13 -11 -29 -11 -16 0 -36 -3 -45 -6 -13 -5 -16 1 -16 28 0
19 3 38 7 41 10 10 33 8 33 -2z m2770 -12 c0 -5 -7 -9 -15 -9 -9 0 -12 6 -9
15 6 15 24 11 24 -6z m-680 -281 c0 -184 -4 -279 -11 -283 -7 -5 -5 -11 4 -18
12 -10 13 -25 6 -80 -4 -37 -11 -72 -13 -76 -7 -10 -54 -2 -62 10 -10 16 -24
9 -24 -12 0 -14 -5 -19 -17 -17 -22 4 -30 72 -12 94 9 11 8 19 -7 35 -18 20
-18 21 1 35 11 8 30 12 43 9 12 -3 22 -1 22 5 0 5 -14 10 -30 10 -34 0 -49 22
-30 45 6 8 9 23 5 35 -7 22 3 29 51 34 41 5 41 5 24 16 -8 5 -27 10 -42 10
-17 0 -28 5 -28 14 0 14 29 26 68 26 12 0 22 5 22 10 0 6 -20 10 -45 10 -32 0
-45 4 -45 14 0 16 21 26 56 26 14 0 22 4 19 10 -3 6 -22 10 -41 10 -34 0 -46
16 -19 26 12 5 10 10 -8 24 -29 24 -15 38 41 42 58 4 58 22 0 26 -55 4 -66 26
-18 37 42 9 42 40 -1 31 -22 -4 -29 -2 -27 7 3 6 20 15 39 18 l34 5 -38 8
c-43 10 -44 28 -1 37 29 7 29 7 3 8 -26 1 -54 23 -44 33 3 3 32 4 65 4 l60 -1
0 -277z m364 243 c-18 -30 -44 -42 -44 -21 0 14 50 64 57 57 3 -3 -3 -19 -13
-36z m314 -52 c-2 -59 -25 -71 -30 -17 -5 43 6 73 23 62 5 -3 8 -23 7 -45z
m-2651 -16 c-3 -10 -5 -2 -5 17 0 19 2 27 5 18 2 -10 2 -26 0 -35z m-96 17
c16 0 29 -4 29 -10 0 -5 -15 -10 -34 -10 -39 0 -53 -14 -36 -35 10 -12 9 -15
-9 -15 -16 0 -21 6 -21 24 0 37 11 58 27 52 8 -3 28 -6 44 -6z m-1194 -200 c2
-61 -1 -100 -7 -100 -11 0 -14 183 -3 193 3 4 7 7 7 7 1 0 2 -45 3 -100z m-57
68 c0 -18 -2 -20 -9 -8 -6 8 -7 18 -5 22 9 14 14 9 14 -14z m1280 12 c0 -5
-19 -9 -42 -9 -40 1 -41 2 -13 9 44 11 55 11 55 0z m-286 -124 c-6 -16 -62
-27 -70 -14 -10 16 8 28 41 28 25 0 33 -4 29 -14z m-1410 -26 c48 -18 30 -31
-31 -25 -68 8 -92 0 -182 -59 -71 -47 -111 -64 -111 -47 0 6 4 11 9 11 5 0 11
12 13 27 4 32 66 80 119 93 49 11 153 12 183 0z m1401 -50 c-3 -5 -11 -10 -16
-10 -6 0 -7 5 -4 10 3 6 11 10 16 10 6 0 7 -4 4 -10z m-1412 -6 c46 -8 49 -24
5 -25 -53 -1 -132 -33 -143 -57 -7 -15 -15 -20 -28 -16 -10 3 -26 -1 -36 -10
-26 -24 -140 -46 -166 -33 -17 9 -14 12 30 22 51 12 89 30 185 91 55 34 82 39
153 28z m1284 -141 l-11 -133 -27 0 c-26 0 -54 -21 -43 -33 3 -3 1 -14 -5 -25
-15 -27 9 -46 47 -37 27 6 30 4 35 -27 6 -44 3 -48 -47 -48 -48 0 -61 7 -45
26 14 18 -16 62 -48 70 -34 9 -54 -13 -30 -31 16 -12 15 -14 -13 -23 -16 -6
-30 -9 -30 -6 0 3 5 25 11 48 10 42 12 43 49 42 44 -1 55 6 47 29 -4 10 -19
15 -43 15 -37 0 -37 0 -31 36 8 46 10 48 44 36 23 -9 25 -11 7 -11 -29 -1 -49
-25 -32 -39 17 -13 74 -4 89 15 10 11 8 15 -9 20 -27 7 -28 15 -1 31 32 21 8
41 -41 35 -26 -4 -40 -2 -40 6 0 6 16 11 35 11 20 0 53 9 74 20 30 15 39 25
39 45 0 18 -7 29 -21 34 -20 8 -20 9 8 24 17 8 33 12 37 9 4 -4 2 -67 -5 -139z
m2803 108 c0 -5 -7 -12 -16 -15 -22 -9 -24 -8 -24 9 0 8 9 15 20 15 11 0 20
-4 20 -9z m-3660 -11 c0 -5 -4 -10 -10 -10 -5 0 -10 5 -10 10 0 6 5 10 10 10
6 0 10 -4 10 -10z m-405 -10 c15 -6 9 -9 -25 -9 -34 0 -40 3 -25 9 11 5 22 9
25 9 3 0 14 -4 25 -9z m460 -10 c3 -5 1 -10 -4 -10 -6 0 -11 5 -11 10 0 6 2
10 4 10 3 0 8 -4 11 -10z m-445 -65 c15 -17 13 -18 -75 -36 -54 -10 -65 -17
-113 -68 -29 -31 -64 -69 -79 -84 -19 -20 -23 -31 -16 -38 19 -19 49 0 96 61
53 68 81 89 131 97 43 7 73 -11 55 -33 -6 -8 -21 -14 -33 -14 -11 0 -33 -8
-47 -18 -42 -28 -139 -120 -139 -131 0 -6 12 -11 27 -11 19 0 42 16 85 60 62
65 98 78 98 36 0 -18 -7 -26 -27 -31 -33 -8 -73 -42 -73 -62 0 -8 -16 -21 -35
-29 -19 -8 -35 -19 -35 -24 0 -20 -23 -9 -64 28 -22 20 -54 47 -71 59 l-30 22
37 34 c20 19 45 52 56 73 22 44 50 72 102 103 43 25 131 29 150 6z m449 -232
c1 -84 -2 -153 -6 -153 -5 0 -9 91 -10 203 0 119 2 182 7 152 4 -27 8 -119 9
-202z m-709 199 c0 -17 -39 -44 -55 -39 -25 10 -17 35 13 40 15 2 30 5 35 6 4
0 7 -3 7 -7z m1490 -152 c0 -5 -5 -10 -11 -10 -5 0 -7 5 -4 10 3 6 8 10 11 10
2 0 4 -4 4 -10z m2447 -56 c3 -10 -66 -28 -74 -20 -2 2 4 11 13 20 18 18 55
18 61 0z m-2372 -3 c3 -5 1 -12 -5 -16 -5 -3 -10 1 -10 9 0 18 6 21 15 7z
m-1317 -38 c-2 -15 -14 -33 -29 -42 -14 -9 -41 -26 -60 -38 -40 -27 -52 -28
-69 -8 -10 12 -9 16 6 21 64 23 84 35 100 63 24 40 57 42 52 4z m539 -40 c-3
-10 -5 -4 -5 12 0 17 2 24 5 18 2 -7 2 -21 0 -30z m3153 16 c0 -12 -37 -12
-44 0 -7 11 14 20 32 13 6 -2 12 -8 12 -13z m270 11 c8 -5 12 -12 8 -15 -9 -9
-48 4 -48 16 0 12 21 11 40 -1z m-2803 -56 c67 -1 88 -4 88 -15 0 -19 -92 -36
-117 -20 -27 17 -50 14 -46 -6 4 -21 36 -31 106 -32 28 -1 52 -5 52 -10 0 -8
-17 -14 -90 -29 -27 -6 -35 -12 -33 -29 2 -17 -3 -20 -36 -20 -37 0 -38 0 -37
41 1 34 -2 41 -19 41 -15 0 -23 -11 -32 -46 -13 -44 -15 -46 -37 -36 -28 14
-24 41 11 64 18 12 23 22 19 38 -4 17 0 25 19 33 17 8 26 23 31 49 l7 38 13
-30 12 -30 89 -1z m2958 16 c16 -6 17 -9 5 -13 -38 -14 -94 -26 -102 -21 -12
8 -10 32 5 37 19 8 70 7 92 -3z m-4467 -26 c30 -21 28 -34 -8 -34 -18 0 -33 7
-39 19 -18 33 9 42 47 15z m4020 4 c-5 -15 -58 -24 -58 -10 0 15 12 22 38 22
14 0 22 -5 20 -12z m283 2 c10 -6 19 -17 19 -25 0 -19 -5 -19 -35 1 -41 27
-27 47 16 24z m-3971 -30 c0 -20 -25 -38 -37 -26 -5 5 24 46 34 46 1 0 3 -9 3
-20z m4170 -8 c0 -5 -26 -16 -57 -26 -32 -9 -64 -19 -70 -22 -7 -3 -13 1 -13
10 0 9 10 18 23 21 114 27 117 27 117 17z m-693 -48 c-3 -3 -12 -4 -19 -1 -8
3 -5 6 6 6 11 1 17 -2 13 -5z m-2937 -24 c0 -5 -2 -10 -4 -10 -3 0 -8 5 -11
10 -3 6 -1 10 4 10 6 0 11 -4 11 -10z m3448 -21 c2 -10 -11 -25 -34 -38 -30
-18 -42 -20 -61 -12 -30 14 -29 25 4 51 32 25 86 24 91 -1z m-3515 -2 c3 -8 1
-20 -4 -28 -6 -10 -9 -7 -9 14 0 29 5 35 13 14z m3352 -42 c56 -58 76 -65 113
-39 25 17 37 13 45 -16 9 -36 -89 -81 -108 -50 -3 6 -19 10 -36 10 -19 0 -37
9 -52 27 -72 86 -70 85 -99 74 -20 -7 -29 -7 -34 1 -4 7 -3 13 2 15 5 2 20 10
34 17 51 28 79 20 135 -39z m-2585 26 c0 -20 -13 -42 -31 -52 -18 -9 -19 -7
-13 18 4 15 9 31 11 36 6 10 33 9 33 -2z m-1184 -42 c13 -13 10 -15 -19 -11
-22 2 -38 -2 -46 -12 -17 -20 -32 -20 -75 1 -51 24 -31 38 53 37 49 0 76 -5
87 -15z m484 -8 c14 -27 13 -31 -10 -31 -15 0 -20 7 -20 25 0 30 15 33 30 6z
m441 -14 c-16 -16 -26 0 -10 19 9 11 15 12 17 4 2 -6 -1 -17 -7 -23z m93 14
c3 -5 -1 -14 -9 -21 -13 -10 -15 -9 -15 9 0 21 14 28 24 12z m2657 -43 c29
-41 49 -57 71 -58 10 0 33 -8 52 -17 33 -15 38 -15 76 2 32 14 43 16 53 6 8
-8 9 -16 1 -29 -9 -13 -29 -18 -94 -20 l-83 -3 -28 34 c-16 19 -47 42 -69 51
-32 13 -40 21 -40 41 0 36 33 32 61 -7z m-3483 -7 c8 -5 12 -17 10 -27 -3 -17
-11 -19 -67 -15 -61 3 -63 2 -59 -20 2 -17 13 -27 36 -34 35 -10 39 -21 19
-49 -12 -16 -18 -11 -75 50 -34 37 -62 71 -62 76 0 4 24 6 53 2 39 -4 57 -2
72 10 22 17 53 20 73 7z m838 -26 c17 -19 26 -35 19 -35 -20 0 -36 -25 -24
-37 8 -8 0 -14 -26 -23 -20 -7 -39 -10 -42 -7 -3 3 2 27 11 53 9 26 16 56 16
66 0 26 9 23 46 -17z m94 15 c0 -5 -2 -10 -4 -10 -3 0 -8 5 -11 10 -3 6 -1 10
4 10 6 0 11 -4 11 -10z m-650 -30 c0 -5 -4 -10 -10 -10 -5 0 -10 5 -10 10 0 6
5 10 10 10 6 0 10 -4 10 -10z m-170 -55 c0 -11 -82 -120 -91 -119 -5 1 -14 2
-20 3 -6 0 -1 10 12 20 21 17 22 22 11 41 -12 19 -11 21 15 18 21 -2 30 3 38
20 8 18 35 32 35 17z m98 -7 c-3 -7 -11 -13 -18 -13 -7 0 -15 6 -17 13 -3 7 4
12 17 12 13 0 20 -5 18 -12z m3278 -20 c-3 -18 -5 -35 -5 -37 -1 -2 -7 2 -15
8 -16 14 -9 61 10 61 10 0 13 -10 10 -32z m-3366 -89 l-22 -42 21 -17 c15 -10
20 -22 15 -33 -3 -10 -1 -24 6 -32 11 -13 8 -15 -14 -15 -15 0 -41 -7 -57 -16
-37 -19 -52 -9 -22 14 16 13 22 31 25 74 3 43 12 66 33 94 35 46 44 30 15 -27z
m754 52 c10 -16 -39 -50 -81 -57 -64 -10 -95 -57 -68 -104 8 -14 21 -40 30
-57 24 -50 71 -66 180 -59 96 6 115 0 215 -63 30 -19 45 -21 110 -18 95 6 242
24 289 37 20 5 52 12 71 15 19 3 42 8 52 11 28 8 30 -14 9 -72 -12 -30 -21
-70 -21 -88 0 -37 32 -138 55 -172 8 -13 11 -25 7 -27 -8 -6 -167 -8 -587 -9
-380 -2 -357 -2 -445 7 -41 4 -201 8 -355 10 -315 4 -482 11 -508 21 -25 9
-21 21 24 81 l41 53 124 0 c68 0 124 4 124 9 0 4 -45 11 -99 14 -55 3 -105 8
-111 12 -24 15 6 25 76 25 87 0 98 16 19 25 -73 10 -69 31 5 26 41 -2 51 0 48
10 -3 8 -15 16 -29 17 -44 6 -45 22 -1 22 46 0 54 13 21 31 l-21 11 22 23 c12
13 39 27 60 30 27 5 55 22 92 56 36 33 65 51 90 55 20 4 45 15 54 25 20 22 35
23 81 7 28 -10 38 -9 78 11 53 26 165 61 215 66 19 3 51 8 70 14 47 12 58 13
64 2z m-1251 -27 c29 -15 70 -42 91 -62 40 -35 152 -92 183 -92 40 0 46 -15
24 -56 -12 -21 -21 -44 -21 -51 0 -24 -45 -13 -100 25 -36 25 -65 56 -87 94
-18 31 -48 65 -65 76 -48 28 -148 46 -223 39 -73 -7 -83 2 -27 26 79 34 157
35 225 1z m695 -12 c3 -28 0 -32 -21 -32 -23 0 -24 2 -13 35 13 42 30 40 34
-3z m3442 -37 c-11 -13 -9 -15 13 -15 29 0 107 -99 249 -315 47 -72 103 -151
126 -177 34 -40 39 -52 33 -75 -7 -26 -11 -28 -57 -27 -120 3 -295 18 -300 26
-3 5 -3 16 0 25 6 14 9 14 26 -2 19 -17 21 -17 38 -2 12 11 36 17 71 17 61 0
91 13 91 40 0 24 -28 40 -77 41 -24 1 -30 3 -15 6 43 8 17 27 -32 24 -37 -2
-47 1 -44 11 3 8 21 13 46 13 42 0 59 17 22 23 -11 2 -25 12 -30 23 -7 12 -22
19 -43 20 l-32 1 32 9 c18 5 37 18 43 29 8 16 6 22 -14 35 -14 9 -39 15 -58
13 -30 -3 -34 -7 -44 -48 -9 -39 -14 -45 -40 -48 -44 -5 -53 -20 -25 -43 13
-10 33 -19 44 -19 28 0 10 -17 -23 -22 -40 -5 -37 -34 5 -48 40 -13 38 -30 -5
-30 -39 0 -60 -9 -60 -27 0 -12 7 -14 28 -9 58 15 67 12 70 -16 l3 -28 -108
-2 c-59 -1 -139 -3 -178 -4 -420 -9 -765 -6 -779 5 -12 10 -81 12 -312 10
-256 -4 -298 -2 -304 11 -42 87 -86 349 -61 364 5 3 37 -3 72 -15 81 -26 317
-30 560 -10 91 8 188 11 215 8 87 -12 148 -24 178 -36 17 -7 68 -16 115 -21
48 -6 122 -16 166 -24 111 -21 124 -20 134 7 8 18 2 29 -32 65 -23 24 -60 53
-82 64 -22 11 -52 31 -67 45 -23 22 -25 29 -16 49 6 14 23 26 42 30 16 4 43
21 60 38 l29 31 126 -2 c69 -1 142 2 161 6 41 9 59 -1 40 -24z m-1817 -26 c7
-1 -6 -5 -28 -9 -22 -4 -44 -5 -50 -2 -12 8 35 22 53 16 8 -2 19 -5 25 -5z
m1185 -44 l3 -30 -20 25 c-25 31 -26 42 -3 38 11 -2 18 -14 20 -33z m-1218
-39 c0 -15 -18 -31 -26 -23 -7 7 7 37 17 37 5 0 9 -6 9 -14z m1280 -16 c0 -5
-4 -10 -10 -10 -5 0 -10 5 -10 10 0 6 5 10 10 10 6 0 10 -4 10 -10z m-55 -30
c-5 -8 -11 -8 -17 -2 -6 6 -7 16 -3 22 5 8 11 8 17 2 6 -6 7 -16 3 -22z
m-3140 -11 c-4 -5 -13 -9 -22 -9 -13 0 -13 3 -3 15 13 15 35 11 25 -6z m3260
1 c-3 -5 -10 -10 -16 -10 -5 0 -9 5 -9 10 0 6 7 10 16 10 8 0 12 -4 9 -10z
m-65 -32 c0 -10 -44 -10 -53 -1 -4 3 3 11 16 18 21 11 36 4 37 -17z m-1292 -7
c3 -8 -1 -12 -9 -9 -7 2 -15 10 -17 17 -3 8 1 12 9 9 7 -2 15 -10 17 -17z
m-550 -13 c-2 -19 -10 -23 -43 -26 l-40 -2 33 15 c17 7 32 19 32 25 0 5 5 10
11 10 6 0 9 -10 7 -22z m1917 2 c3 -6 -1 -13 -10 -16 -19 -8 -30 0 -20 15 8
14 22 14 30 1z m125 -20 c0 -22 -16 -35 -25 -20 -9 14 4 52 16 45 5 -4 9 -15
9 -25z m-1538 -1 c7 -12 24 -22 38 -23 13 0 25 -6 27 -12 5 -16 -43 -5 -58 12
-6 8 -20 14 -30 14 -19 0 -25 11 -12 23 11 12 20 8 35 -14z m152 -5 c11 -28 6
-52 -10 -58 -30 -12 -37 -6 -18 15 18 20 18 22 2 33 -10 7 -15 16 -11 19 12
12 31 7 37 -9z m1456 -30 c0 -16 -26 -19 -35 -4 -3 6 -4 14 0 20 8 13 35 1 35
-16z m-1674 -23 c-4 -6 -14 -11 -22 -11 -12 0 -13 4 -3 21 7 14 14 18 21 11 6
-6 7 -15 4 -21z m2089 -1 c-3 -5 -10 -10 -16 -10 -5 0 -9 5 -9 10 0 6 7 10 16
10 8 0 12 -4 9 -10z m-1938 -29 c7 -11 25 -21 40 -24 24 -3 23 -4 -7 -6 -37
-1 -60 13 -60 36 0 19 13 16 27 -6z m-133 -16 c-7 -16 -24 -21 -24 -6 0 8 7
13 27 20 1 1 0 -6 -3 -14z m194 -47 c19 -19 15 -23 -28 -23 -45 0 -50 7 -17
23 29 14 31 14 45 0z m-2503 -8 c3 -5 1 -10 -4 -10 -6 0 -11 5 -11 10 0 6 2
10 4 10 3 0 8 -4 11 -10z m2283 -2 c-3 -7 -12 -14 -21 -16 -12 -2 -15 1 -11
12 7 19 38 22 32 4z m107 -38 c-10 -11 -23 -20 -28 -20 -6 0 -2 9 8 20 10 11
23 20 28 20 6 0 2 -9 -8 -20z m-80 -10 c3 -5 -1 -10 -10 -10 -9 0 -13 5 -10
10 3 6 8 10 10 10 2 0 7 -4 10 -10z m-2192 -16 c46 -16 69 -42 25 -28 -41 12
-88 33 -88 38 0 9 13 7 63 -10z m2437 -30 c0 -14 -6 -24 -15 -24 -9 0 -12 6
-9 15 4 8 1 21 -5 29 -6 7 -8 16 -4 19 11 12 33 -14 33 -39z m-2260 2 c0 -3
-4 -8 -10 -11 -5 -3 -10 -1 -10 4 0 6 5 11 10 11 6 0 10 -2 10 -4z m2073 -32
c23 -28 25 -33 8 -22 -12 7 -21 17 -21 21 0 5 -9 5 -20 2 -20 -6 -29 13 -13
28 11 12 17 8 46 -29z m2165 19 c-3 -15 -16 -18 -80 -21 -76 -3 -124 9 -113
29 4 5 49 9 101 9 86 0 95 -2 92 -17z m-2058 -29 c0 -17 -22 -14 -28 4 -2 7 3
12 12 12 9 0 16 -7 16 -16z m85 -24 c-3 -5 -11 -10 -16 -10 -6 0 -7 5 -4 10 3
6 11 10 16 10 6 0 7 -4 4 -10z m-200 -20 c3 -5 -1 -10 -9 -10 -9 0 -16 5 -16
10 0 6 4 10 9 10 6 0 13 -4 16 -10z m-1737 -42 c6 -6 12 -17 12 -24 0 -25 30
-15 42 14 l11 27 6 -30 c7 -35 35 -41 39 -7 6 41 22 22 22 -26 0 -50 19 -90
38 -78 6 4 8 17 3 34 -9 32 -3 92 10 92 10 0 16 -24 23 -102 7 -68 15 -90 30
-85 7 2 11 37 11 97 0 63 4 94 12 97 8 3 14 -16 19 -56 4 -42 11 -61 20 -61
10 0 14 14 14 49 0 28 6 53 13 60 17 14 27 4 27 -26 0 -33 19 -29 31 7 14 38
46 40 59 5 12 -32 28 -32 40 1 7 16 16 24 28 22 14 -3 18 -17 22 -83 3 -44 9
-86 13 -93 16 -25 27 0 27 63 0 93 17 97 35 8 6 -30 33 -65 37 -47 1 5 2 33 2
63 1 34 6 56 14 58 6 3 12 -2 12 -9 0 -8 7 -23 15 -34 14 -18 16 -18 29 -1 7
9 23 17 35 17 15 0 21 6 21 21 0 23 24 21 26 -2 2 -33 5 -39 14 -39 6 0 13 14
16 30 9 44 34 39 34 -7 0 -21 4 -44 9 -52 15 -24 31 -1 29 41 -4 58 18 60 27
3 8 -58 28 -55 35 6 4 35 9 44 25 44 16 0 20 -7 20 -43 0 -24 -4 -47 -10 -52
-5 -4 -37 -17 -70 -28 -33 -11 -99 -34 -147 -51 -106 -37 -254 -61 -382 -61
-98 0 -100 1 -246 67 -120 56 -309 116 -382 122 -14 2 -8 31 5 31 8 0 22 9 33
21 17 19 26 21 99 14 44 -4 86 -11 93 -17z m1165 -45 c5 -46 -5 -62 -28 -43
-18 15 -20 71 -3 88 16 16 25 5 31 -45z m120 37 c5 -4 9 -29 10 -56 2 -43 0
-49 -20 -52 -43 -6 -63 14 -63 67 0 26 3 51 6 54 8 8 55 -2 67 -13z m687 2 c0
-22 -19 -42 -39 -42 -12 0 -11 3 2 18 10 10 17 24 17 30 0 7 5 12 10 12 6 0
10 -8 10 -18z m599 5 c23 -11 25 -17 22 -70 -3 -67 14 -127 36 -127 12 0 14
13 12 73 -4 67 -2 72 16 72 18 0 20 -8 23 -62 2 -45 7 -63 16 -63 8 0 17 7 20
16 10 27 7 109 -6 122 -6 6 -10 14 -7 16 8 8 344 10 357 2 9 -5 8 -13 -4 -31
-19 -29 -15 -80 6 -80 8 0 18 17 25 43 12 51 38 69 105 72 75 4 80 3 80 -28 0
-32 24 -71 37 -59 4 5 8 25 8 45 1 46 17 51 32 11 10 -27 15 -30 27 -19 9 6
14 22 13 33 -2 18 4 23 32 25 41 4 47 -2 56 -50 7 -36 6 -38 -17 -38 -43 0
-134 -35 -184 -72 -186 -133 -389 -166 -614 -98 -67 20 -82 30 -135 85 -71 74
-125 95 -242 95 l-73 0 0 35 c0 40 11 45 25 13 13 -30 39 -29 43 0 2 13 10 26
18 29 12 4 112 14 229 21 11 1 31 -4 44 -11z m-1489 -43 c0 -38 -3 -45 -17
-42 -32 6 -30 88 2 88 11 0 15 -11 15 -46z m517 38 c6 -4 14 -25 18 -47 12
-74 15 -85 28 -85 10 0 12 15 9 59 -3 35 0 61 7 65 12 8 105 -37 118 -56 4 -7
10 -46 13 -87 3 -47 10 -76 17 -79 9 -2 13 14 12 61 -1 36 2 70 5 76 4 6 34
10 69 9 74 -2 82 2 104 50 21 48 28 24 18 -64 -4 -44 -11 -64 -20 -64 -8 0
-20 -9 -28 -20 -16 -23 -81 -52 -156 -70 -52 -12 -207 -10 -241 4 -21 9 -28
235 -8 247 16 11 20 11 35 1z m-157 -22 c0 -26 8 -25 37 2 13 12 26 19 29 15
3 -3 9 -53 11 -111 4 -79 3 -106 -6 -106 -16 0 -41 61 -41 100 0 16 -5 30 -10
30 -13 0 -32 -49 -26 -66 3 -8 1 -16 -3 -19 -13 -8 -32 135 -20 157 13 24 29
23 29 -2z m2172 -12 c4 -43 31 -44 38 -3 6 36 44 44 46 10 2 -40 4 -45 18 -45
8 0 16 12 18 27 5 45 26 39 30 -9 4 -60 31 -60 38 1 8 71 30 64 30 -9 0 -60
12 -100 30 -100 5 0 10 33 12 73 2 56 6 72 18 72 11 0 17 -19 23 -80 9 -83 16
-106 34 -112 8 -3 9 26 6 96 -5 87 -4 101 9 101 21 0 24 -11 27 -99 3 -82 15
-125 34 -118 8 2 11 21 7 63 -8 114 -6 149 10 149 12 0 15 -19 15 -115 l0
-115 -61 2 c-73 3 -113 19 -185 73 -50 37 -141 73 -209 82 -22 3 -25 7 -22 38
2 19 6 38 9 43 10 17 22 5 25 -25z m-68 -49 c-10 -16 -32 9 -29 34 4 41 7 42
21 9 8 -18 12 -38 8 -43z m-2180 39 c8 -30 8 -98 0 -98 -14 0 -33 36 -34 62 0
53 22 78 34 36z m748 0 c2 -18 9 -22 31 -20 36 4 37 -30 1 -47 -36 -16 -54 1
-54 50 0 42 16 54 22 17z"/>
<path d="M2556 6985 c-44 -15 -65 -38 -40 -43 8 -2 23 2 32 9 9 8 6 1 -8 -14
-19 -22 -22 -32 -14 -45 17 -26 54 -28 54 -3 0 27 16 27 31 -1 l12 -21 12 24
c8 13 17 24 22 24 4 0 21 12 36 27 l29 27 -31 15 c-37 19 -83 20 -135 1z"/>
<path d="M4174 6448 c-4 -6 4 -19 19 -30 52 -38 114 -164 120 -246 3 -37 31
-35 35 2 8 66 -37 173 -100 242 -41 45 -61 53 -74 32z"/>
<path d="M4174 6305 c-4 -9 6 -26 25 -44 41 -38 61 -88 61 -150 0 -50 12 -72
26 -49 5 7 8 42 8 78 0 53 -5 73 -27 107 -32 51 -84 83 -93 58z"/>
<path d="M4156 6241 c-4 -6 0 -21 8 -33 8 -13 20 -42 27 -66 15 -52 45 -56 43
-5 -3 65 -58 137 -78 104z"/>
<path d="M4106 6223 c-11 -11 -6 -23 9 -23 8 0 15 4 15 9 0 13 -16 22 -24 14z"/>
<path d="M4040 6191 c0 -21 26 -36 36 -20 9 15 -3 39 -21 39 -8 0 -15 -9 -15
-19z"/>
<path d="M1085 6301 c-3 -5 -1 -12 5 -16 12 -7 30 2 30 16 0 12 -27 12 -35 0z"/>
<path d="M1182 6279 c2 -6 8 -10 13 -10 5 0 11 4 13 10 2 6 -4 11 -13 11 -9 0
-15 -5 -13 -11z"/>
<path d="M1240 6255 c-10 -12 -9 -16 3 -21 20 -7 37 3 37 22 0 18 -24 18 -40
-1z"/>
<path d="M1307 6238 c-28 -20 -37 -58 -14 -58 7 0 26 13 41 28 21 23 24 31 14
40 -10 8 -20 5 -41 -10z"/>
<path d="M1342 6177 c-34 -24 -41 -44 -18 -53 16 -6 62 22 70 43 11 26 -20 33
-52 10z"/>
<path d="M1360 6122 c-22 -18 -24 -52 -3 -52 19 0 74 42 70 53 -6 20 -42 19
-67 -1z"/>
<path d="M3241 6073 c-21 -17 -21 -20 -7 -32 12 -10 23 -10 53 -1 39 13 60 26
52 34 -2 2 -20 7 -39 11 -27 5 -42 2 -59 -12z"/>
<path d="M1010 4642 c0 -5 9 -17 20 -27 26 -23 52 -6 30 20 -13 16 -50 21 -50
7z"/>
<path d="M2720 5720 c0 -5 7 -10 15 -10 8 0 15 5 15 10 0 6 -7 10 -15 10 -8 0
-15 -4 -15 -10z"/>
<path d="M2671 5696 c-9 -10 -9 -16 -1 -21 17 -10 37 12 24 25 -8 8 -15 6 -23
-4z"/>
<path d="M2620 5659 c0 -24 23 -21 28 4 2 10 -3 17 -12 17 -10 0 -16 -9 -16
-21z"/>
<path d="M2716 5643 c-11 -11 -6 -23 9 -23 8 0 15 4 15 9 0 13 -16 22 -24 14z"/>
<path d="M2650 5600 c0 -5 7 -10 15 -10 8 0 15 5 15 10 0 6 -7 10 -15 10 -8 0
-15 -4 -15 -10z"/>
<path d="M2692 5559 c2 -6 8 -10 13 -10 5 0 11 4 13 10 2 6 -4 11 -13 11 -9 0
-15 -5 -13 -11z"/>
<path d="M4195 5651 c-3 -5 -1 -12 5 -16 13 -8 80 5 80 16 0 12 -77 12 -85 0z"/>
<path d="M4360 5652 c0 -9 118 -31 125 -23 3 2 0 10 -6 18 -12 14 -119 19
-119 5z"/>
<path d="M4420 5612 c0 -5 7 -13 16 -16 10 -4 14 -1 12 6 -5 15 -28 23 -28 10z"/>
<path d="M3402 5429 c2 -6 8 -10 13 -10 5 0 11 4 13 10 2 6 -4 11 -13 11 -9 0
-15 -5 -13 -11z"/>
<path d="M3897 5254 c-14 -14 -7 -35 11 -32 9 2 17 10 17 17 0 16 -18 25 -28
15z"/>
<path d="M2906 4931 c-3 -5 1 -14 8 -20 16 -13 32 2 21 19 -8 12 -22 13 -29 1z"/>
<path d="M3275 4280 c-16 -26 57 -62 79 -40 8 8 4 16 -14 30 -28 22 -55 26
-65 10z"/>
<path d="M3671 3986 c-14 -17 -7 -48 13 -65 21 -18 40 12 29 46 -11 32 -26 39
-42 19z"/>
<path d="M3594 3966 c-9 -24 0 -58 18 -70 27 -17 41 4 31 45 -10 36 -39 51
-49 25z"/>
<path d="M3742 3962 c-17 -12 -4 -42 18 -42 25 0 35 18 20 35 -14 17 -20 18
-38 7z"/>
<path d="M3510 3933 c-37 -7 -50 -22 -45 -52 5 -25 5 -25 -5 -3 -24 55 -69 35
-50 -22 15 -46 29 -54 49 -30 9 11 24 18 34 16 12 -2 20 4 24 17 6 24 8 25 33
11 30 -16 47 13 26 45 -17 25 -20 26 -66 18z"/>
<path d="M3347 3883 c-13 -13 -7 -72 9 -88 24 -24 47 -1 38 39 -9 46 -30 67
-47 49z"/>
<path d="M3720 3861 c-14 -4 -34 -21 -45 -38 -11 -17 -32 -38 -47 -48 -35 -20
-65 -60 -113 -150 -20 -38 -43 -77 -50 -85 -23 -27 -102 -193 -128 -270 -14
-41 -34 -111 -44 -155 -16 -71 -21 -80 -40 -78 -30 3 -50 -22 -33 -42 7 -9 9
-19 5 -23 -4 -4 -10 -2 -12 4 -2 6 -10 20 -18 30 -11 15 -17 17 -32 8 -10 -7
-17 -19 -17 -28 1 -11 -6 -16 -22 -16 -17 0 -28 -8 -35 -27 -12 -33 -6 -50 25
-64 53 -24 195 81 215 159 6 20 20 80 32 132 26 116 60 204 113 290 22 36 58
99 82 140 23 41 54 91 67 111 33 48 99 79 166 79 29 0 61 5 72 10 21 12 25 40
7 58 -13 13 -106 15 -148 3z m-555 -911 c3 -5 1 -10 -4 -10 -6 0 -11 5 -11 10
0 6 2 10 4 10 3 0 8 -4 11 -10z"/>
<path d="M3287 3853 c-4 -3 -7 -15 -7 -26 0 -18 -1 -18 -18 3 -15 19 -22 21
-39 12 -11 -6 -23 -8 -27 -5 -3 4 -16 1 -29 -5 -12 -6 -31 -12 -42 -14 -24 -4
-32 -42 -14 -64 7 -8 19 -12 28 -9 9 4 22 -3 32 -16 20 -27 49 -20 49 12 0 18
2 19 15 9 12 -10 18 -10 32 1 9 8 26 14 37 14 23 0 32 29 22 71 -6 23 -25 31
-39 17z"/>
<path d="M3627 3854 c-9 -10 2 -24 19 -24 8 0 14 7 14 15 0 15 -21 21 -33 9z"/>
<path d="M3585 3791 c-10 -17 12 -21 25 -6 10 12 10 15 -3 15 -9 0 -18 -4 -22
-9z"/>
<path d="M2468 3773 c-40 -17 -35 -49 7 -46 86 7 149 19 153 30 9 30 -99 41
-160 16z"/>
<path d="M3530 3766 c0 -29 19 -44 31 -25 13 20 6 43 -14 47 -12 3 -17 -3 -17
-22z"/>
<path d="M3773 3735 c-3 -9 -3 -18 0 -22 10 -10 37 6 37 22 0 20 -29 20 -37 0z"/>
<path d="M2198 3663 c-58 -61 -71 -101 -45 -137 9 -13 20 -16 41 -10 19 5 24
10 17 17 -29 29 -4 98 45 125 19 11 12 42 -9 42 -7 0 -29 -17 -49 -37z"/>
<path d="M3735 3688 c-46 -25 -103 -102 -85 -113 7 -4 30 11 54 36 24 24 50
50 60 57 9 7 14 17 11 23 -8 11 -15 11 -40 -3z"/>
<path d="M3460 3606 c0 -9 7 -16 16 -16 9 0 14 5 12 12 -6 18 -28 21 -28 4z"/>
<path d="M2996 3415 c-11 -8 -29 -12 -42 -9 -40 10 -43 -16 -25 -211 13 -145
19 -180 31 -180 12 0 16 18 18 87 3 86 4 88 32 103 33 17 80 74 80 98 0 9 -6
20 -14 24 -8 4 -14 15 -14 23 2 22 -25 80 -37 80 -5 0 -19 -7 -29 -15z m4 -63
c0 -4 -5 -13 -11 -19 -15 -15 -3 -33 23 -33 21 0 21 0 -2 -25 -29 -31 -40 -19
-40 43 0 31 4 42 15 42 8 0 15 -4 15 -8z"/>
<path d="M3157 3303 c-12 -11 -8 -23 8 -23 8 0 15 7 15 15 0 16 -12 20 -23 8z"/>
<path d="M3045 3203 c-45 -58 -53 -77 -36 -88 13 -8 78 51 97 87 16 30 13 58
-6 58 -5 0 -30 -26 -55 -57z"/>
<path d="M3086 3131 c-45 -46 -53 -71 -22 -71 20 0 59 34 78 68 15 24 15 32 5
41 -10 8 -25 -1 -61 -38z"/>
<path d="M3994 2938 c-14 -16 -27 -22 -47 -20 -36 4 -60 -14 -48 -37 7 -11 4
-22 -7 -34 -16 -18 -15 -20 7 -38 27 -22 52 -24 69 -7 18 18 14 38 -10 47 -21
8 -21 8 5 15 15 3 27 12 27 20 0 7 14 19 30 26 19 8 30 19 28 29 -5 25 -34 24
-54 -1z"/>
<path d="M4011 2856 c-9 -10 -9 -16 -1 -21 13 -8 42 14 34 26 -8 13 -20 11
-33 -5z"/>
<path d="M3487 2853 c-11 -10 -8 -41 4 -49 6 -3 20 3 31 14 11 11 17 25 14 31
-8 12 -39 15 -49 4z"/>
<path d="M4027 2783 c-13 -12 -7 -33 8 -33 8 0 15 9 15 20 0 20 -11 26 -23 13z"/>
<path d="M3465 2766 c-11 -8 -16 -19 -12 -30 8 -20 31 -21 52 0 12 12 13 19 4
30 -14 17 -20 17 -44 0z"/>
<path d="M3210 2735 c-25 -6 -58 -17 -73 -25 -26 -13 -33 -12 -73 10 -41 21
-46 22 -61 7 -13 -13 -14 -19 -4 -31 7 -9 10 -23 7 -32 -4 -10 1 -25 11 -36
16 -18 16 -21 1 -32 -9 -6 -21 -38 -27 -70 -12 -66 -5 -152 35 -411 39 -254
45 -288 55 -316 15 -38 133 -119 174 -119 17 0 21 35 5 45 -23 14 -6 24 48 27
43 2 57 7 57 18 0 9 -13 17 -35 21 -27 5 -29 7 -9 8 32 1 64 24 55 39 -4 7
-28 9 -70 5 -35 -3 -77 -1 -92 4 -17 6 -42 6 -59 2 -32 -9 -51 1 -42 24 4 11
17 12 64 6 57 -9 59 -8 84 21 14 17 33 56 42 88 20 76 52 205 66 267 6 28 22
97 35 155 27 114 39 227 26 235 -15 9 -39 -25 -45 -63 -18 -119 -30 -181 -42
-216 -7 -21 -18 -68 -24 -105 -8 -52 -35 -156 -44 -168 -1 -2 -19 6 -41 16
-22 11 -56 22 -76 26 -38 7 -84 34 -60 35 7 0 40 -9 73 -20 62 -21 99 -19 99
4 0 15 -128 72 -182 81 -21 3 -38 9 -38 14 0 18 15 19 49 5 20 -9 63 -22 95
-30 52 -13 62 -13 74 0 12 12 11 16 -13 32 -27 18 -27 18 -5 26 16 6 20 13 15
28 -4 12 -1 27 5 35 14 17 -13 36 -90 60 -30 10 -68 25 -85 33 -16 9 -36 15
-42 14 -7 -2 -13 6 -13 18 0 24 -3 24 49 -1 58 -28 158 -46 172 -32 18 18 2
31 -59 50 l-57 18 40 5 c50 6 60 35 19 50 -21 8 -24 14 -16 22 20 20 13 35
-24 50 l-35 14 33 16 c89 41 112 54 115 64 6 18 -18 21 -67 9z m-140 -354 c0
-5 -7 -11 -15 -15 -9 -3 -15 0 -15 9 0 8 7 15 15 15 8 0 15 -4 15 -9z m85
-301 c55 -21 13 -23 -57 -4 -10 3 -18 10 -18 16 0 10 27 6 75 -12z m115 -27
c0 -12 -30 -93 -41 -115 -5 -10 -17 -18 -27 -18 -15 1 -15 3 3 16 19 15 19 16
2 29 -11 7 -41 19 -68 26 -97 25 -41 36 67 14 42 -9 55 12 23 36 l-24 19 33 0
c17 0 32 -3 32 -7z m-51 -272 c-17 -14 -29 -16 -41 -10 -35 19 -29 29 18 29
l46 0 -23 -19z"/>
<path d="M2033 2375 c-15 -11 -16 -16 -5 -27 13 -13 42 -2 49 19 6 17 -24 23
-44 8z"/>
<path d="M2191 2226 c-14 -17 -7 -36 14 -36 22 0 29 20 13 36 -13 13 -16 13
-27 0z"/>
<path d="M3405 2221 c-7 -12 12 -24 25 -16 11 7 4 25 -10 25 -5 0 -11 -4 -15
-9z"/>
<path d="M2053 2203 c-12 -2 -42 -26 -67 -53 -48 -51 -53 -71 -49 -191 0 -21
-7 -28 -47 -42 -48 -17 -110 -74 -110 -102 0 -31 24 -26 59 13 42 48 91 66 91
34 0 -11 -7 -22 -15 -26 -8 -3 -15 -13 -15 -22 0 -10 -7 -25 -15 -34 -13 -15
-12 -19 16 -46 28 -27 31 -28 43 -11 7 9 20 17 29 17 8 0 30 14 47 30 30 28
32 33 21 56 -6 14 -8 36 -5 50 5 21 3 24 -20 24 -24 0 -26 4 -28 48 -4 74 2
146 12 156 6 6 19 5 33 -3 13 -7 39 -11 58 -9 26 2 35 8 37 26 3 18 -2 23 -27
28 -35 7 -32 24 5 24 17 0 24 5 24 20 0 20 -21 24 -77 13z"/>
<path d="M3740 2155 c-10 -13 -10 -19 4 -34 17 -18 17 -20 -3 -30 -16 -9 -19
-18 -14 -44 9 -53 70 -86 101 -55 14 14 -2 38 -27 38 -11 1 -6 9 17 29 39 34
40 48 5 64 -16 6 -34 20 -41 29 -16 22 -26 23 -42 3z"/>
<path d="M3385 2130 c-3 -5 -3 -15 0 -20 7 -12 45 5 45 20 0 13 -37 13 -45 0z"/>
<path d="M3882 2128 c-18 -18 -15 -26 18 -43 28 -14 31 -14 36 0 4 9 -2 25
-11 35 -21 23 -27 24 -43 8z"/>
<path d="M2174 2108 c-4 -6 0 -16 9 -23 10 -7 15 -23 14 -41 -1 -20 3 -29 13
-29 15 0 16 12 4 73 -6 32 -26 42 -40 20z"/>
<path d="M2010 2065 c-18 -22 -3 -35 40 -35 37 0 51 12 43 38 -6 17 -68 15
-83 -3z"/>
<path d="M3387 2073 c-14 -13 -6 -33 12 -33 21 0 45 23 34 33 -8 9 -38 9 -46
0z"/>
<path d="M3366 2006 c-47 -15 -57 -33 -25 -44 22 -8 21 -9 -9 -20 -39 -13 -42
-32 -4 -32 l27 -1 -27 -15 c-59 -31 -10 -48 57 -20 36 15 48 46 18 46 -15 0
-15 1 -1 13 19 14 29 79 13 82 -5 2 -28 -3 -49 -9z"/>
<path d="M2004 1985 c-8 -21 4 -35 31 -35 29 0 41 16 25 35 -16 19 -49 19 -56
0z"/>
<path d="M2155 1930 c-4 -6 -1 -17 5 -25 8 -9 10 -28 6 -49 -5 -28 -3 -37 13
-45 22 -12 48 10 36 30 -4 6 -1 22 6 36 12 23 11 27 -10 44 -26 21 -47 24 -56
9z"/>
<path d="M2855 1900 c-16 -4 -42 -11 -57 -14 -16 -4 -28 -13 -28 -21 0 -19 32
-27 75 -19 29 5 41 2 71 -21 35 -27 64 -28 64 -1 0 13 -80 88 -91 85 -2 0 -17
-4 -34 -9z"/>
<path d="M2134 1798 c-8 -12 30 -48 52 -48 25 0 27 23 3 41 -28 22 -45 24 -55
7z"/>
<path d="M3420 1773 c-28 -6 -50 -21 -50 -35 0 -6 15 -7 37 -3 48 9 75 23 68
36 -6 9 -12 10 -55 2z"/>
<path d="M3675 1765 c-16 -7 -57 -16 -90 -20 -42 -5 -68 -15 -89 -32 -27 -23
-36 -25 -87 -19 -45 4 -60 2 -70 -10 -18 -22 -1 -30 69 -33 48 -2 65 3 96 24
23 16 61 29 101 34 67 10 116 29 122 47 6 18 -19 22 -52 9z"/>
<path d="M2851 1757 c-14 -17 -4 -27 24 -27 14 0 33 -14 49 -35 15 -19 34 -35
44 -35 9 0 43 -19 75 -41 57 -40 62 -42 148 -45 87 -2 113 6 91 28 -6 6 -40
12 -76 14 -51 2 -77 10 -111 31 -25 15 -63 37 -84 48 -22 11 -49 32 -61 48
-24 30 -79 38 -99 14z"/>
<path d="M2079 1731 c-37 -34 -34 -53 11 -76 36 -18 60 -14 60 11 0 9 8 23 18
30 16 13 15 16 -11 39 -35 31 -39 31 -78 -4z"/>
<path d="M2416 1741 c-3 -5 -26 -18 -52 -30 -38 -18 -44 -24 -34 -36 7 -8 21
-15 31 -15 26 0 94 63 85 78 -9 14 -23 15 -30 3z"/>
<path d="M1683 5159 c-14 -5 -12 -7 8 -12 45 -12 129 -8 129 6 0 10 -17 13
-60 13 -33 -1 -67 -4 -77 -7z"/>
<path d="M1793 5113 c-38 -3 -53 -8 -53 -19 0 -10 14 -14 54 -14 30 0 61 3 70
6 22 8 20 34 -1 32 -10 -1 -42 -3 -70 -5z"/>
<path d="M1770 5041 c-22 -15 -8 -22 46 -24 38 -2 49 1 49 13 0 18 -71 26 -95
11z"/>
<path d="M1820 4978 c0 -7 9 -24 20 -38 25 -33 47 -16 29 23 -12 27 -49 38
-49 15z"/>
<path d="M1946 4822 c-5 -9 11 -71 21 -74 13 -5 23 55 11 69 -12 15 -24 17
-32 5z"/>
<path d="M2482 4423 c3 -19 67 -37 81 -23 12 11 -32 40 -61 40 -17 0 -23 -5
-20 -17z"/>
<path d="M3125 4170 c-3 -6 1 -13 10 -16 19 -8 30 0 20 15 -8 14 -22 14 -30 1z"/>
<path d="M2870 4030 c-23 -23 -23 -55 0 -55 21 0 48 51 33 66 -8 8 -16 6 -33
-11z"/>
<path d="M1155 4321 c-6 -11 9 -23 19 -14 9 9 7 23 -3 23 -6 0 -12 -4 -16 -9z"/>
<path d="M1378 1944 c-28 -9 -48 -21 -48 -29 0 -22 15 -26 51 -14 80 27 76 66
-3 43z"/>
<path d="M814 2606 c-10 -8 -17 -16 -14 -19 3 -2 38 -8 78 -11 61 -6 72 -5 72
8 0 9 -15 19 -37 25 -51 15 -76 14 -99 -3z"/>
<path d="M823 2554 c-7 -3 -13 -12 -13 -19 0 -18 117 -32 133 -16 15 15 -7 31
-43 31 -14 0 -34 2 -45 5 -11 2 -26 2 -32 -1z"/>
<path d="M830 2410 c-23 -15 -1 -27 62 -34 63 -8 81 4 46 28 -25 18 -85 21
-108 6z"/>
<path d="M835 2337 c-27 -20 -16 -29 40 -31 52 -2 76 7 59 24 -19 19 -77 23
-99 7z"/>
<path d="M4200 2636 c0 -2 9 -6 20 -9 11 -3 20 -1 20 4 0 5 -9 9 -20 9 -11 0
-20 -2 -20 -4z"/>
<path d="M4208 2493 c6 -2 18 -2 25 0 6 3 1 5 -13 5 -14 0 -19 -2 -12 -5z"/>
<path d="M1760 2335 c-10 -12 -9 -16 5 -21 19 -8 40 9 31 25 -10 15 -21 14
-36 -4z"/>
<path d="M680 1300 c0 -5 25 -10 55 -10 30 0 58 0 62 -1 4 0 9 4 11 10 2 7
-20 11 -62 11 -37 0 -66 -4 -66 -10z"/>
<path d="M663 1256 c10 -8 27 -12 37 -9 29 8 13 23 -23 23 -29 -1 -30 -2 -14
-14z"/>
<path d="M3423 1120 c-30 -12 -29 -28 1 -42 33 -15 56 -4 56 27 0 27 -16 31
-57 15z"/>
<path d="M3911 1101 c-13 -24 -15 -158 -2 -165 18 -12 29 21 32 98 4 82 -8
109 -30 67z"/>
<path d="M4122 1078 c2 -21 8 -33 18 -33 10 0 16 12 18 33 3 27 0 32 -18 32
-18 0 -21 -5 -18 -32z"/>
<path d="M3827 1074 c-13 -14 -7 -91 8 -104 20 -16 27 3 23 61 -3 40 -16 58
-31 43z"/>
<path d="M3770 986 c0 -8 4 -17 9 -20 11 -7 33 18 24 27 -12 12 -33 7 -33 -7z"/>
<path d="M2614 1086 c-8 -20 -1 -47 11 -49 6 -1 11 13 13 31 3 32 -14 45 -24
18z"/>
<path d="M2774 1015 c-10 -24 5 -65 22 -65 12 0 15 6 10 23 -3 12 -6 30 -6 40
0 21 -18 23 -26 2z"/>
<path d="M4394 3812 c-31 -21 -84 -147 -84 -200 0 -39 17 -15 40 56 12 37 28
73 36 81 14 15 15 13 70 -121 10 -27 22 -48 26 -48 4 0 16 14 28 30 12 17 30
30 41 30 12 0 19 7 19 20 0 11 -7 20 -15 20 -8 0 -20 -9 -27 -20 -14 -21 -38
-27 -38 -10 0 6 7 24 15 40 11 21 23 30 40 30 30 0 34 25 6 40 -21 11 -41 -3
-62 -42 -9 -17 -13 -18 -23 -7 -7 8 -18 33 -24 55 -12 42 -30 58 -48 46z"/>
<path d="M4222 3758 c-20 -26 -43 -80 -37 -86 7 -7 28 16 51 54 10 15 14 17
25 7 17 -17 29 -16 29 2 0 14 -29 35 -48 35 -5 0 -14 -6 -20 -12z"/>
<path d="M4224 3655 c-9 -14 -14 -28 -12 -31 8 -8 68 30 65 41 -7 21 -36 15
-53 -10z"/>
<path d="M4367 3643 c-16 -41 -14 -54 5 -35 7 7 20 12 30 12 20 0 23 12 8 41
-16 28 -26 24 -43 -18z"/>
<path d="M230 3196 c-119 -19 -230 -81 -230 -128 0 -20 1 -20 18 -5 10 10 22
17 26 17 4 0 19 9 33 20 32 25 43 25 36 1 -3 -13 2 -24 16 -32 14 -10 19 -20
15 -36 -6 -23 10 -53 28 -53 6 0 8 10 5 22 -4 12 -1 28 5 35 8 11 6 21 -10 43
-12 16 -19 36 -16 44 8 20 13 20 35 0 16 -15 20 -13 46 16 27 30 32 31 64 22
19 -5 44 -6 55 -1 26 9 61 -8 87 -43 46 -62 8 -167 -56 -154 -16 3 -37 1 -48
-4 -14 -8 -29 -6 -59 10 -34 18 -40 25 -40 53 0 18 5 38 12 45 9 9 9 15 1 23
-15 15 -30 5 -49 -34 -15 -29 -15 -33 1 -63 9 -17 28 -37 41 -44 13 -8 24 -22
24 -33 0 -16 -3 -17 -15 -7 -8 7 -23 9 -32 5 -24 -8 -29 -7 -25 11 4 17 -39
19 -56 2 -8 -8 -14 -5 -21 14 -16 42 -28 41 -58 -3 -15 -23 -36 -50 -45 -60
-10 -11 -18 -29 -18 -41 0 -20 4 -18 43 19 l42 41 65 -14 c143 -32 234 -22
260 26 6 11 19 20 28 20 52 0 70 133 27 205 -42 73 -87 84 -235 61z m105 -286
c18 -19 17 -20 -3 -20 -12 0 -22 2 -22 4 0 2 -3 11 -6 20 -9 22 9 20 31 -4z"/>
<path d="M310 3055 c-29 -36 19 -70 53 -37 17 17 18 23 7 36 -16 20 -44 20
-60 1z"/>
<path d="M64 3029 c-7 -12 12 -29 34 -29 19 0 14 18 -7 30 -14 7 -22 7 -27 -1z"/>
<path d="M414 3016 c-8 -22 3 -33 18 -18 9 9 9 15 0 24 -9 9 -13 7 -18 -6z"/>
<path d="M20 2930 c0 -5 5 -10 10 -10 6 0 10 5 10 10 0 6 -4 10 -10 10 -5 0
-10 -4 -10 -10z"/>
<path d="M4945 1370 c-3 -5 -1 -10 4 -10 6 0 11 5 11 10 0 6 -2 10 -4 10 -3 0
-8 -4 -11 -10z"/>
<path d="M2 1307 c2 -22 9 -33 23 -36 24 -4 135 -78 135 -90 0 -5 34 -26 76
-47 64 -32 89 -39 150 -42 52 -3 79 0 90 9 14 12 6 15 -61 25 -109 17 -174 47
-273 125 -47 38 -99 73 -115 78 -28 10 -28 10 -25 -22z"/>
<path d="M612 985 c-29 -8 -66 -22 -82 -30 -16 -8 -109 -31 -207 -50 -148 -30
-190 -34 -250 -29 -67 6 -73 5 -73 -12 0 -15 8 -19 33 -20 17 -1 51 -3 75 -6
25 -3 86 4 150 17 59 12 125 25 147 29 l40 6 -50 -23 c-48 -23 -138 -42 -313
-68 -85 -13 -110 -29 -44 -29 35 0 144 16 272 39 30 5 89 22 130 36 107 38
188 53 277 51 75 -1 84 -4 213 -68 74 -37 156 -73 183 -79 46 -11 73 -29 44
-29 -33 0 -168 40 -231 70 -122 55 -235 62 -351 20 -65 -24 -149 -48 -290 -86
-65 -17 -117 -24 -187 -24 -76 0 -98 -3 -98 -14 0 -10 54 -14 278 -20 398 -9
4750 -16 4612 -7 -95 7 -133 14 -217 44 -126 45 -170 46 -283 7 -50 -18 -104
-30 -134 -30 -61 0 -54 6 54 50 76 31 94 35 175 34 74 -1 107 -7 185 -33 77
-26 117 -34 206 -38 78 -4 113 -2 118 6 5 8 -7 11 -41 11 -73 0 -192 24 -263
53 -143 56 -259 57 -376 3 -97 -45 -242 -67 -379 -57 l-30 2 25 11 c14 5 56
14 94 19 79 10 163 45 212 89 48 42 129 63 223 58 66 -4 84 -9 135 -41 65 -40
117 -57 251 -82 87 -16 155 -14 155 5 0 6 -18 10 -40 10 -82 0 -223 39 -325
90 -118 59 -171 68 -270 46 -96 -20 -117 -29 -175 -75 -51 -40 -56 -42 -240
-77 -115 -22 -239 -20 -336 6 -111 30 -186 58 -209 80 -33 30 -142 80 -175 80
-17 0 -72 -18 -123 -39 -117 -49 -256 -96 -330 -111 -137 -27 -418 20 -525 89
-115 74 -198 92 -305 67 -37 -9 -84 -24 -105 -35 -74 -38 -216 -78 -375 -106
-103 -18 -193 -4 -344 53 -29 11 -65 29 -80 40 -16 11 -72 38 -125 60 -116 49
-220 61 -306 37z m219 -54 c24 -12 35 -19 24 -15 -76 22 -126 27 -206 17 -46
-5 -85 -9 -87 -8 -2 2 16 10 40 19 58 21 171 15 229 -13z m1343 -56 c162 -80
196 -111 69 -63 -86 33 -273 29 -393 -7 -135 -41 -267 -65 -352 -65 -88 0 -97
14 -15 25 109 14 302 72 387 115 97 50 199 48 304 -5z m-1142 -33 c37 -20 66
-38 64 -40 -7 -6 -164 73 -183 91 -13 14 49 -13 119 -51z m2289 2 c19 -9 48
-28 65 -40 35 -27 114 -56 198 -74 30 -6 58 -16 61 -21 14 -21 -73 -6 -182 32
-238 82 -300 90 -413 50 -77 -27 -386 -74 -450 -68 -25 2 -67 9 -95 16 -27 7
-67 17 -88 23 -22 5 -37 12 -34 14 3 3 25 0 48 -7 29 -9 102 -13 209 -12 152
1 173 3 265 30 55 17 125 43 155 58 96 48 166 48 261 -1z m-2537 -49 c27 -3
77 -18 110 -34 34 -15 75 -32 91 -37 27 -8 23 -9 -30 -12 -47 -2 -62 0 -72 14
-23 32 -163 44 -238 20 -38 -12 -34 -13 65 -12 103 1 136 -6 125 -25 -7 -10
-124 -12 -203 -2 -36 4 -52 10 -48 18 5 15 -28 9 -59 -11 -14 -8 -39 -10 -85
-5 -36 4 -58 10 -50 14 50 22 290 84 315 81 17 -2 52 -6 79 -9z m1432 -16 c38
-11 103 -33 144 -49 51 -19 108 -32 175 -38 l100 -9 -105 0 c-58 0 -109 -1
-115 -2 -5 -2 -30 -3 -53 -2 -35 1 -45 5 -49 21 -3 11 -15 22 -27 24 -177 35
-223 41 -265 35 -103 -16 -232 -47 -255 -63 -19 -12 -50 -16 -131 -16 -110 0
-135 13 -47 25 43 6 141 31 302 76 93 26 237 25 326 -2z m1102 -38 c42 -16 96
-35 120 -41 23 -6 42 -16 42 -22 0 -18 -109 -2 -134 20 -31 27 -124 45 -172
33 -45 -12 -123 -29 -174 -40 -19 -4 -102 -8 -185 -9 -168 -2 -164 11 10 28
106 11 240 36 265 51 35 20 149 10 228 -20z m-1950 2 c-10 -2 -26 -2 -35 0
-10 3 -2 5 17 5 19 0 27 -2 18 -5z m795 -33 c22 -6 37 -13 34 -16 -2 -2 -81
-6 -175 -7 l-172 -2 78 22 c82 24 161 25 235 3z m-910 4 c20 -4 37 -10 37 -15
0 -9 -68 0 -90 12 -13 7 -13 8 0 9 8 0 32 -3 53 -6z m177 -14 c0 -5 -7 -10
-15 -10 -8 0 -15 5 -15 10 0 6 7 10 15 10 8 0 15 -4 15 -10z m1845 -6 c36 -7
38 -8 15 -14 -14 -4 -57 -4 -95 0 -69 6 -70 6 -35 17 19 7 44 10 55 8 11 -2
38 -7 60 -11z m480 6 c3 -5 2 -10 -4 -10 -5 0 -13 5 -16 10 -3 6 -2 10 4 10 5
0 13 -4 16 -10z m123 3 c-10 -2 -28 -2 -40 0 -13 2 -5 4 17 4 22 1 32 -1 23
-4z m722 -7 l33 -13 -34 -4 c-48 -6 -197 6 -179 13 33 14 47 16 96 17 29 1 66
-5 84 -13z"/>
<path d="M387 448 c12 -68 8 -255 -6 -272 -11 -13 -9 -16 11 -20 12 -3 39 -2
58 2 34 8 35 9 38 62 1 30 5 61 8 69 7 22 123 -96 117 -119 -4 -15 3 -19 49
-22 64 -4 100 1 96 12 -2 5 -22 21 -44 37 -46 31 -144 143 -144 164 1 19 93
80 133 88 52 11 41 35 -18 39 -42 3 -53 0 -70 -20 -32 -38 -104 -90 -115 -83
-15 9 -12 47 5 71 8 12 11 24 8 28 -3 3 -35 6 -70 6 l-63 0 7 -42z"/>
<path d="M824 478 c-3 -5 1 -17 9 -26 11 -13 15 -46 15 -146 0 -115 2 -131 18
-143 11 -8 28 -12 39 -11 21 3 27 28 40 178 4 35 13 80 22 98 12 25 13 36 4
45 -14 14 -139 19 -147 5z"/>
<path d="M1025 480 c-4 -6 -6 -74 -5 -153 1 -78 0 -150 -2 -161 -3 -15 4 -18
47 -19 l50 -2 -3 87 c-1 48 1 89 6 92 5 3 31 -24 58 -60 44 -58 126 -134 145
-134 4 0 17 9 30 19 22 18 24 25 21 108 -1 48 -4 107 -7 130 -3 35 0 46 18 58
33 23 9 37 -59 33 -44 -2 -59 -7 -59 -18 0 -8 10 -16 21 -18 20 -3 21 -9 23
-98 1 -73 -2 -95 -11 -92 -7 2 -45 51 -83 109 -39 57 -82 109 -95 116 -30 15
-86 17 -95 3z"/>
<path d="M1581 480 c-53 -11 -114 -51 -130 -86 -17 -37 -13 -124 7 -164 25
-51 88 -80 172 -80 89 0 110 15 110 79 0 62 -13 73 -87 69 -43 -2 -58 -7 -58
-18 0 -8 12 -17 29 -20 37 -6 55 -32 37 -54 -17 -20 -44 -20 -81 -1 -37 19
-53 74 -44 146 9 66 45 93 114 84 52 -6 94 14 73 35 -15 16 -88 21 -142 10z"/>
<path d="M2845 451 c-95 -17 -150 -75 -149 -158 2 -98 58 -150 172 -159 59 -5
101 8 110 35 3 10 -4 12 -37 6 -53 -9 -104 8 -136 46 -64 77 8 228 90 191 23
-11 25 -16 19 -52 -9 -55 13 -53 60 4 35 44 48 82 24 74 -7 -3 -33 1 -57 9
-24 7 -47 12 -50 12 -3 -1 -24 -5 -46 -8z"/>
<path d="M3317 453 c-4 -3 0 -14 9 -24 13 -14 16 -40 15 -124 -1 -59 -4 -111
-7 -116 -3 -5 -25 -9 -49 -9 -32 0 -50 6 -64 21 -23 24 -35 109 -26 174 10 60
-4 75 -66 75 -56 0 -65 -16 -23 -40 25 -14 26 -20 28 -101 2 -96 15 -126 69
-160 36 -22 94 -19 135 7 20 13 25 13 44 -1 27 -18 68 -20 68 -2 0 7 -11 23
-25 35 -23 20 -25 28 -25 114 0 71 4 96 16 110 14 14 14 20 4 33 -13 15 -90
21 -103 8z"/>
<path d="M3525 450 c-3 -5 -1 -18 5 -29 5 -11 10 -71 10 -134 0 -107 -1 -116
-22 -130 -20 -14 -21 -18 -8 -26 22 -16 96 -13 109 3 7 8 8 17 3 20 -13 8 -21
76 -11 102 6 16 18 22 53 26 56 7 90 28 112 69 20 41 11 75 -26 94 -33 17
-215 22 -225 5z m153 -32 c31 -31 1 -98 -43 -98 -25 0 -35 17 -35 60 0 42 50
66 78 38z"/>
<path d="M3919 447 c-52 -17 -69 -35 -69 -73 0 -57 42 -83 124 -75 42 3 82
-61 66 -104 -12 -32 -52 -33 -137 -3 -51 19 -64 20 -77 9 -18 -15 -21 -47 -6
-56 6 -3 56 -7 113 -7 130 -1 173 14 182 66 8 41 -10 102 -33 115 -9 5 -44 9
-78 8 -72 0 -84 5 -84 42 0 51 50 69 85 31 21 -23 48 -26 64 -6 18 22 3 43
-37 49 -20 3 -46 8 -57 11 -11 2 -36 -1 -56 -7z"/>
<path d="M2164 422 c-15 -10 -34 -47 -34 -68 0 -9 21 -48 47 -85 38 -56 47
-79 51 -123 4 -52 3 -57 -29 -85 -32 -29 -32 -31 -10 -31 33 0 88 59 96 103 4
21 3 56 -3 78 -10 38 -9 41 14 49 28 11 30 31 8 65 -20 30 -40 32 -54 4 -11
-20 -12 -20 -32 -2 -40 36 -47 95 -8 71 22 -14 48 2 36 21 -8 12 -65 15 -82 3z"/>
<path d="M2024 276 c-22 -22 -34 -44 -34 -60 0 -36 41 -76 78 -76 36 0 96 39
101 65 5 27 -26 81 -55 94 -39 17 -53 14 -90 -23z m94 -50 c5 -24 -10 -38 -31
-30 -20 7 -22 25 -5 42 16 16 32 10 36 -12z"/>
<path d="M4278 183 c-21 -25 -12 -43 22 -43 30 0 51 24 43 48 -7 18 -48 15
-65 -5z"/>
</g>
</svg>
