<?xml version="1.0" standalone="no"?>
<!DOCTYPE svg PUBLIC "-//W3C//DTD SVG 20010904//EN"
 "http://www.w3.org/TR/2001/REC-SVG-20010904/DTD/svg10.dtd">
<svg version="1.0" xmlns="http://www.w3.org/2000/svg"
 width="500.000000pt" height="878.000000pt" viewBox="0 0 500.000000 878.000000"
 preserveAspectRatio="xMidYMid meet">
<metadata>
Created by potrace 1.15, written by Peter Selinger 2001-2017
</metadata>
<g transform="translate(0.000000,878.000000) scale(0.100000,-0.100000)"
fill="#000000" stroke="none">
<path d="M2972 7198 c-241 -25 -457 -118 -665 -286 -118 -96 -254 -281 -326
-447 -94 -213 -122 -417 -96 -680 12 -118 69 -275 149 -415 25 -44 46 -83 46
-87 0 -4 -31 -24 -68 -43 -37 -19 -86 -50 -109 -68 -23 -19 -59 -42 -80 -53
-69 -36 -391 -133 -419 -127 -11 2 -16 21 -18 79 -2 60 -8 86 -31 127 -25 46
-102 131 -148 164 -17 13 -17 16 3 73 29 85 35 169 17 228 l-15 48 50 57 c98
111 151 211 187 353 40 157 18 364 -53 513 -64 132 -198 279 -319 350 -62 37
-212 84 -297 94 -102 12 -247 -3 -334 -34 -39 -14 -145 -50 -234 -79 -201 -66
-212 -73 -212 -125 l0 -40 43 27 c23 15 62 32 87 39 43 11 42 17 -5 27 -17 3
-16 6 10 17 17 7 54 15 82 18 50 4 55 2 95 -34 65 -57 80 -86 79 -150 0 -61
-16 -94 -56 -120 -23 -15 -27 -15 -49 0 -13 8 -27 29 -31 46 -7 32 -29 40 -39
14 -9 -22 10 -51 44 -69 59 -31 115 -9 156 61 35 60 31 126 -14 190 -35 50
-29 57 17 18 21 -18 33 -38 37 -65 9 -53 29 -44 28 11 -1 37 -7 49 -44 83 -54
51 -48 63 46 96 62 22 85 24 234 24 163 0 166 0 241 -32 102 -43 168 -86 240
-156 78 -77 146 -180 186 -285 36 -93 41 -138 18 -146 -21 -8 -19 -26 6 -57
15 -20 19 -38 17 -69 -2 -24 -8 -43 -15 -43 -20 0 -22 -9 -24 -108 -2 -62 -7
-104 -15 -115 -12 -16 -13 -15 -14 6 0 43 -24 17 -35 -39 -12 -59 -71 -172
-108 -207 -20 -19 -27 -20 -55 -10 -44 17 -50 4 -13 -32 37 -37 54 -89 49
-150 l-3 -45 -18 33 c-18 34 -57 48 -41 15 13 -28 11 -165 -3 -179 -10 -9 -26
-8 -75 8 -164 52 -358 1 -481 -125 -54 -57 -73 -89 -97 -167 -10 -31 -22 -54
-29 -52 -33 7 -170 -47 -229 -92 -29 -21 -38 -23 -63 -14 -41 14 -46 28 -10
28 44 0 49 19 12 49 -35 29 -41 52 -11 44 17 -5 20 0 20 27 0 23 9 40 31 61
18 16 29 33 25 37 -12 11 -59 -21 -83 -57 -19 -28 -24 -31 -29 -17 -10 27 12
64 51 88 20 11 34 23 31 25 -11 11 -57 -9 -91 -38 -32 -28 -35 -36 -35 -84 0
-30 4 -65 9 -79 7 -17 7 -26 -1 -28 -21 -7 4 -49 43 -74 21 -13 39 -28 39 -32
0 -4 -11 -24 -26 -45 -26 -38 -54 -156 -54 -226 0 -38 35 -153 63 -207 28 -55
140 -163 197 -192 61 -30 75 -56 37 -66 -34 -8 -121 -83 -153 -131 -40 -60
-54 -100 -68 -194 -26 -175 29 -338 161 -481 76 -82 155 -131 273 -170 76 -25
98 -28 200 -26 101 2 122 5 172 29 l57 26 16 -33 c24 -51 49 -72 110 -95 81
-30 202 -29 270 3 105 48 162 120 171 215 5 46 11 60 25 64 24 6 26 55 4 97
-15 29 -15 30 24 49 59 31 101 70 143 135 57 89 69 140 58 248 -10 102 -25
133 -107 219 -46 49 -51 58 -36 64 10 4 70 25 133 46 l115 39 115 -25 c63 -13
126 -26 140 -29 177 -35 326 -74 420 -111 19 -8 62 -19 95 -25 33 -6 71 -15
85 -20 14 -5 64 -20 111 -35 83 -25 87 -25 144 -10 32 8 65 21 74 29 9 8 30
18 46 22 17 4 41 15 55 24 47 32 165 87 225 104 33 10 95 29 137 42 42 13 83
24 90 24 29 0 190 59 223 81 44 30 72 73 175 274 164 318 192 377 205 440 7
35 22 77 33 92 31 45 72 131 72 152 0 11 5 23 11 26 16 10 119 226 119 250 0
51 -21 93 -53 108 -34 16 -63 13 -135 -13 -18 -7 -35 -10 -38 -8 -2 3 3 45 11
94 18 101 21 269 6 395 -9 81 -43 203 -62 224 -5 5 -9 15 -9 22 0 13 -51 121
-87 183 -94 165 -259 337 -398 416 -135 78 -170 93 -285 131 -141 46 -345 67
-498 51z m333 -58 c157 -29 315 -93 457 -187 76 -50 240 -217 300 -306 94
-139 167 -322 194 -487 46 -282 -23 -603 -179 -835 -121 -180 -304 -355 -370
-355 -34 0 -127 44 -127 60 0 4 14 13 31 20 40 17 158 107 227 174 181 174
304 445 319 701 9 161 -27 346 -99 504 -64 142 -233 341 -358 423 -328 213
-706 244 -1045 84 -108 -51 -145 -76 -253 -168 -98 -84 -154 -152 -219 -268
-105 -188 -144 -335 -144 -545 1 -210 53 -383 167 -557 30 -45 54 -84 54 -88
0 -3 -26 -11 -57 -17 -70 -13 -71 -12 -137 122 -86 172 -117 283 -136 475 -9
92 6 285 25 341 8 23 15 49 15 58 1 9 9 34 20 56 11 22 19 47 20 56 0 31 89
196 147 274 236 315 593 493 968 480 66 -2 147 -9 180 -15z m-51 -161 c170
-32 304 -89 439 -187 190 -137 325 -341 386 -584 66 -259 17 -538 -136 -777
-91 -142 -197 -240 -368 -342 -121 -71 -143 -73 -326 -29 -183 44 -194 48
-312 107 -60 30 -145 67 -190 83 -45 15 -83 32 -85 38 -1 5 32 36 75 68 43 32
138 102 210 157 l133 100 52 -37 c29 -21 109 -78 178 -127 204 -146 226 -160
244 -153 21 8 18 26 -36 189 -45 138 -110 366 -106 370 3 3 290 216 396 294
118 86 118 86 -221 84 l-288 -2 -14 32 c-7 18 -46 140 -86 272 -74 241 -98
292 -123 264 -7 -8 -29 -70 -50 -139 -70 -235 -128 -415 -135 -423 -5 -4 -136
-8 -293 -7 -239 0 -287 -2 -298 -14 -6 -9 -9 -20 -5 -26 5 -8 163 -128 423
-321 23 -17 42 -37 42 -44 0 -6 -34 -122 -75 -258 -42 -135 -74 -252 -73 -259
2 -10 -25 -12 -132 -10 l-135 3 -42 47 c-56 63 -139 213 -173 316 -59 176 -65
410 -14 563 69 205 141 330 263 453 139 140 266 218 436 269 130 39 320 52
439 30z m-75 -533 c33 -109 58 -202 56 -206 -5 -8 -253 -12 -277 -4 -10 3 -18
10 -18 16 0 19 119 391 147 458 7 17 7 17 92 -264z m105 -339 c13 -45 34 -115
46 -155 12 -40 20 -78 17 -85 -4 -10 -127 -107 -253 -199 -9 -6 -223 137 -263
176 -11 12 -6 38 34 167 26 85 52 159 57 166 10 13 192 22 290 15 l47 -4 25
-81z m486 81 c-1 -7 -38 -41 -83 -75 -45 -33 -127 -95 -182 -137 -57 -43 -103
-72 -108 -67 -14 14 -87 241 -87 271 0 10 56 14 293 18 132 2 167 0 167 -10z
m-900 -12 c0 -22 -80 -269 -91 -280 -5 -6 -25 1 -51 20 -80 57 -343 246 -347
249 -16 15 40 20 248 23 212 3 241 2 241 -12z m565 -571 c35 -110 66 -208 70
-217 4 -11 3 -18 -5 -18 -9 0 -246 164 -363 252 -18 13 -15 17 40 58 32 24 63
48 68 52 64 52 102 77 114 75 9 -1 37 -74 76 -202z m-553 148 c36 -27 87 -63
114 -82 l48 -33 -35 -32 c-45 -40 -325 -246 -334 -246 -4 0 -5 10 -2 23 7 32
75 260 99 332 11 33 21 66 23 73 7 20 18 15 87 -35z m1570 -85 c8 -7 18 -28
22 -45 5 -30 3 -33 -18 -33 -37 0 -90 -69 -116 -149 -17 -54 -19 -73 -11 -89
20 -38 11 -74 -35 -151 -26 -42 -67 -116 -93 -165 -66 -129 -69 -133 -120
-219 -25 -43 -59 -101 -76 -130 -82 -145 -116 -174 -230 -201 -67 -17 -114
-40 -103 -51 3 -3 54 10 115 30 90 29 115 42 144 73 47 49 89 106 123 165 15
27 30 47 32 44 7 -6 -21 -71 -83 -192 -65 -129 -94 -170 -132 -189 -47 -25
-173 -66 -201 -66 -15 0 -47 -7 -71 -16 -24 -8 -85 -26 -135 -39 -100 -26
-176 -59 -276 -121 -95 -58 -143 -70 -205 -51 -26 8 -111 29 -188 47 -77 18
-197 50 -267 72 -70 21 -158 46 -195 54 -37 8 -86 18 -108 23 -22 5 -64 14
-92 20 -29 6 -90 20 -135 32 -121 31 -126 32 -144 25 -14 -5 -14 -9 -3 -22 20
-25 -3 -34 -214 -88 -54 -14 -105 -30 -113 -37 -28 -23 -12 -40 43 -44 86 -6
156 -56 203 -144 22 -43 30 -158 14 -218 -16 -63 -80 -162 -127 -196 -72 -53
-177 -80 -270 -70 -48 5 -57 3 -57 -10 0 -22 54 -31 140 -25 61 5 71 3 88 -16
46 -51 33 -81 -14 -35 -28 27 -36 30 -49 19 -13 -11 -11 -17 21 -53 33 -36 36
-43 30 -83 -11 -80 -79 -160 -163 -190 -89 -31 -233 -6 -279 48 -41 50 -41 74
-1 116 65 68 87 110 87 167 0 56 -25 93 -55 82 -17 -7 -21 -27 -5 -27 17 0 31
-50 24 -87 -10 -52 -98 -142 -181 -184 -65 -32 -73 -34 -173 -34 -116 0 -163
12 -287 71 -128 61 -237 183 -293 329 -19 48 -23 78 -23 155 1 52 6 117 12
144 15 61 72 155 122 201 39 35 150 95 176 95 19 0 73 29 73 39 0 5 -40 6 -90
3 -86 -5 -93 -3 -154 27 -36 17 -82 51 -106 77 -45 49 -110 178 -109 216 0 23
0 23 10 -2 13 -32 49 -71 60 -64 5 3 -1 24 -12 47 -19 36 -21 53 -16 132 3 52
11 102 20 120 28 53 119 134 167 149 37 11 42 15 26 21 -19 8 -50 -5 -129 -53
-46 -28 -55 -24 -31 13 20 31 88 72 151 91 65 20 88 4 96 -65 8 -65 52 -206
78 -247 11 -18 47 -57 80 -88 48 -44 73 -59 128 -76 77 -23 122 -25 153 -9 12
6 44 13 72 16 55 5 67 10 48 22 -8 5 -3 14 19 30 47 35 83 121 76 185 -10 94
-67 188 -122 202 -30 7 -96 -18 -133 -50 -30 -27 -26 -65 10 -85 22 -13 29
-13 43 -1 15 13 15 15 -6 30 -26 20 -20 34 24 56 29 15 33 15 64 -1 43 -24 83
-103 83 -164 -1 -61 -43 -138 -90 -162 -88 -45 -189 -49 -268 -12 -50 24 -134
110 -160 164 -44 90 -53 356 -15 417 64 100 122 147 227 182 60 20 80 22 162
16 52 -4 124 -16 161 -26 61 -16 74 -25 125 -80 59 -64 99 -148 113 -238 9
-58 -23 -122 -80 -162 -51 -35 -85 -86 -85 -127 0 -23 -6 -33 -27 -42 -34 -15
-21 -28 40 -40 127 -23 259 -189 273 -342 12 -120 -30 -222 -127 -316 -37 -35
-57 -45 -129 -63 -93 -24 -144 -23 -272 6 -62 14 -79 23 -123 65 -29 27 -61
49 -73 49 -23 0 -45 33 -57 88 -4 22 -12 32 -25 32 -27 0 -29 -9 -12 -68 12
-43 24 -61 61 -90 25 -20 61 -53 81 -73 69 -72 182 -105 325 -96 124 8 180 34
259 117 83 88 122 157 136 241 27 159 -45 331 -182 434 -33 25 -68 45 -78 45
-26 0 -33 16 -25 56 4 26 25 53 82 108 62 60 85 75 127 86 75 18 257 77 365
117 59 23 112 51 146 78 60 49 164 100 247 121 49 13 83 13 215 4 249 -17 331
-37 494 -119 76 -39 156 -73 176 -77 21 -3 76 -19 123 -35 61 -21 103 -29 155
-29 117 0 375 -65 359 -91 -2 -4 -15 -4 -28 1 -43 16 -138 30 -152 22 -19 -10
-54 -81 -54 -107 1 -31 22 -53 74 -76 54 -23 146 -29 169 -11 24 20 47 77 47
116 0 25 4 36 15 36 22 0 18 -37 -9 -97 -36 -76 -53 -84 -182 -82 -60 1 -151
1 -202 0 -70 -2 -107 2 -155 18 -139 45 -281 49 -331 10 -30 -24 -32 -24 -82
3 -26 14 -48 19 -60 14 -18 -7 -18 -8 2 -24 12 -9 30 -22 40 -28 28 -17 7 -34
-61 -47 -31 -7 -55 -16 -53 -22 3 -10 117 -9 171 1 23 5 29 2 34 -15 6 -23 15
-26 43 -11 28 15 33 -2 15 -52 -8 -24 -15 -51 -15 -62 0 -10 -10 -36 -22 -57
-16 -29 -19 -42 -11 -50 9 -9 20 1 42 37 17 26 31 58 31 69 0 12 16 42 36 68
32 41 44 48 117 71 150 46 350 64 441 40 28 -8 73 -14 100 -14 46 0 53 3 92
46 45 48 84 134 84 183 0 24 -6 31 -32 41 l-33 11 45 37 c89 74 244 239 291
310 51 77 117 208 140 277 15 45 28 67 38 61 3 -2 24 7 46 20 44 26 92 31 117
12z m8 -126 c0 -18 -82 -162 -90 -157 -12 7 14 86 45 134 22 36 45 47 45 23z
m-811 -640 c80 -23 91 -38 64 -83 -19 -34 -19 -34 -92 -33 -106 3 -133 33 -91
102 23 37 33 38 119 14z m-3469 -42 c-6 -12 -14 -20 -17 -17 -2 3 1 14 8 26
17 26 24 19 9 -9z m2900 -125 c64 -6 100 -18 89 -30 -15 -15 -153 -43 -173
-35 -30 13 -56 35 -56 48 0 16 32 32 55 27 11 -2 49 -7 85 -10z"/>
<path d="M880 5320 c-48 -6 -138 -50 -166 -81 -15 -16 -15 -19 -2 -19 9 0 21
7 29 16 7 8 31 25 53 37 36 19 55 22 158 20 65 -1 120 3 123 8 4 5 0 11 -7 13
-25 8 -143 12 -188 6z"/>
<path d="M632 5215 c-78 -69 -106 -186 -74 -302 22 -79 34 -104 56 -123 13
-10 16 -10 16 3 0 9 -5 28 -11 44 -20 52 -39 134 -39 170 0 70 31 154 71 194
49 49 32 61 -19 14z"/>
<path d="M2724 4985 c-10 -25 7 -40 23 -20 7 11 13 22 13 27 0 14 -30 9 -36
-7z"/>
<path d="M2730 4916 c0 -18 6 -22 48 -31 40 -8 42 5 3 28 -35 21 -51 22 -51 3z"/>
<path d="M275 4860 c-28 -31 -8 -37 23 -7 19 20 22 27 11 27 -9 0 -24 -9 -34
-20z"/>
<path d="M990 4840 c0 -6 8 -22 17 -36 16 -25 16 -28 -7 -71 -35 -65 -72 -93
-115 -86 -27 4 -35 2 -35 -10 0 -45 108 -20 157 36 16 18 35 51 42 75 13 40
13 45 -6 70 -21 28 -53 42 -53 22z"/>
<path d="M939 4798 c-1 -7 0 -23 1 -36 1 -16 -5 -25 -19 -29 -25 -6 -27 -21
-5 -30 19 -7 64 34 64 58 0 28 -11 49 -26 49 -8 0 -14 -6 -15 -12z"/>
<path d="M660 4707 c0 -9 14 -23 32 -31 38 -19 38 -19 38 -3 0 12 -12 21 -62
45 -5 2 -8 -3 -8 -11z"/>
<path d="M747 4653 c-12 -11 14 -33 39 -33 32 0 31 18 -2 30 -30 12 -29 12
-37 3z"/>
<path d="M3620 4430 c-8 -5 -73 -28 -145 -51 -231 -72 -275 -89 -353 -136 -75
-44 -78 -45 -107 -30 -22 12 -41 14 -70 8 -22 -4 -33 -10 -25 -13 104 -36 121
-36 180 -2 96 56 165 86 262 114 127 37 288 99 288 111 0 12 -11 11 -30 -1z"/>
<path d="M246 4402 c-3 -6 -4 -16 -1 -24 6 -15 69 -58 85 -58 19 0 10 29 -12
41 -13 6 -33 20 -44 31 -13 11 -24 15 -28 10z"/>
<path d="M608 4384 c-13 -20 -21 -114 -10 -114 6 0 14 20 17 44 8 48 3 87 -7
70z"/>
<path d="M1013 4325 c-17 -7 -34 -22 -37 -33 -7 -22 7 -66 24 -77 11 -7 9 8
-7 51 -7 18 52 54 87 54 48 0 90 -47 90 -100 0 -91 -48 -140 -152 -153 -110
-15 -188 76 -176 204 4 42 3 47 -10 37 -23 -20 -11 -108 26 -178 17 -33 27
-60 23 -60 -4 0 -26 16 -48 35 -47 40 -73 89 -73 138 0 20 -5 39 -12 43 -21
13 0 -95 27 -141 30 -53 88 -102 135 -116 27 -8 54 -7 114 5 151 32 182 68
162 191 -16 99 -84 139 -173 100z"/>
<path d="M657 4313 c-11 -10 -8 -61 3 -68 6 -4 10 10 10 34 0 42 -2 46 -13 34z"/>
<path d="M453 4164 c-32 -14 -49 -31 -40 -41 10 -9 97 29 97 43 0 17 -15 17
-57 -2z"/>
<path d="M523 4107 c-41 -20 -56 -37 -33 -37 18 0 100 42 100 51 0 14 -21 10
-67 -14z"/>
<path d="M1610 4104 c0 -4 22 -31 49 -59 53 -56 68 -98 58 -161 -8 -46 20 -47
28 0 9 44 -6 95 -43 148 -27 39 -92 90 -92 72z"/>
<path d="M1305 4070 c-20 -22 -115 -70 -139 -70 -19 0 -21 -17 -4 -22 34 -12
105 16 146 55 23 23 42 45 42 49 0 15 -27 8 -45 -12z"/>
<path d="M297 4043 c-14 -16 -38 -55 -54 -88 -41 -89 -36 -174 19 -326 26 -69
87 -163 114 -173 50 -19 60 7 10 28 -42 17 -77 75 -113 183 -46 143 -32 256
47 351 16 20 30 40 30 44 0 17 -28 7 -53 -19z"/>
<path d="M525 4042 c-39 -24 -94 -87 -111 -128 -8 -19 -14 -53 -14 -76 0 -58
23 -141 40 -146 9 -3 11 1 6 14 -18 44 -29 155 -18 180 25 53 86 123 124 140
21 9 38 21 38 26 0 14 -34 9 -65 -10z"/>
<path d="M1657 3926 c5 -45 1 -63 -22 -110 -33 -67 -25 -85 16 -37 34 41 46
105 29 155 -18 56 -29 52 -23 -8z"/>
<path d="M339 3933 c-35 -42 -42 -71 -35 -141 12 -118 55 -232 88 -232 5 0 0
11 -11 25 -24 31 -52 147 -52 221 -1 38 5 65 20 89 12 20 21 40 21 46 0 15
-16 11 -31 -8z"/>
<path d="M1340 3660 c0 -14 45 -23 75 -16 42 11 28 26 -25 26 -27 0 -50 -4
-50 -10z"/>
<path d="M1240 3636 c0 -20 100 -56 153 -56 64 0 174 47 155 66 -4 3 -40 -6
-82 -20 -66 -23 -81 -25 -122 -16 -25 6 -59 17 -75 26 -25 13 -29 13 -29 0z"/>
<path d="M436 3588 c9 -30 35 -66 73 -102 44 -42 38 -22 -9 32 -22 25 -43 56
-46 69 -4 13 -10 23 -16 23 -5 0 -6 -10 -2 -22z"/>
<path d="M1015 3530 c-11 -17 5 -32 21 -19 7 6 11 15 8 20 -7 12 -21 11 -29
-1z"/>
<path d="M480 3451 c0 -16 89 -82 147 -108 67 -31 179 -45 171 -22 -3 8 -14
13 -24 12 -45 -5 -233 75 -263 111 -15 17 -31 21 -31 7z"/>
<path d="M1061 3438 c-21 -55 -162 -148 -223 -148 -19 0 -28 -5 -28 -16 0 -23
72 -14 134 15 60 29 146 111 146 138 0 31 -18 38 -29 11z"/>
<path d="M1470 3296 c0 -42 -103 -116 -161 -116 -36 0 -97 22 -119 42 -11 11
-26 18 -32 16 -14 -5 26 -44 65 -64 15 -8 50 -18 76 -21 54 -6 94 9 154 58 31
26 37 37 37 70 0 21 -4 39 -10 39 -5 0 -10 -11 -10 -24z"/>
<path d="M1200 3277 c0 -19 30 -45 67 -58 25 -8 38 -7 63 6 41 21 32 29 -28
26 -38 -2 -52 2 -66 18 -22 24 -36 27 -36 8z"/>
<path d="M165 6805 c-49 -18 -92 -62 -75 -79 8 -8 17 -4 32 17 31 43 74 61
109 47 15 -7 35 -23 44 -36 17 -27 35 -24 35 5 0 47 -77 71 -145 46z"/>
<path d="M132 6704 c-23 -16 -29 -48 -12 -59 6 -3 10 2 10 11 0 10 10 28 22
41 25 26 13 31 -20 7z"/>
<path d="M165 6307 c-22 -5 -56 -13 -75 -18 -68 -16 -76 -33 -84 -164 -5 -97
-4 -122 9 -141 8 -13 15 -30 15 -37 0 -20 33 -47 57 -47 12 0 35 8 52 17 16
10 33 15 36 11 4 -3 -5 -29 -19 -57 -38 -74 -58 -173 -54 -262 3 -70 7 -82 50
-152 l46 -76 -48 -16 c-95 -31 -128 -76 -137 -184 -5 -66 9 -141 26 -141 5 0
8 38 8 84 0 69 4 93 24 133 40 80 122 113 192 76 43 -22 141 -22 187 1 60 31
80 55 80 99 0 81 -91 127 -145 72 -22 -21 -24 -27 -13 -50 12 -28 53 -44 70
-27 13 13 2 32 -18 32 -8 0 -14 9 -14 20 0 26 30 26 58 0 27 -25 29 -71 5 -92
-25 -22 -79 -38 -125 -38 -33 0 -47 7 -86 45 l-47 46 38 -7 c47 -8 49 9 5 32
-86 44 -118 93 -118 178 0 28 14 35 24 11 12 -33 25 -13 22 33 -3 33 -9 48
-20 50 -20 4 -20 -3 4 72 26 81 72 161 115 199 51 44 115 79 160 86 l40 6 -55
-30 c-30 -16 -64 -38 -74 -50 -24 -26 -13 -27 22 -2 41 27 120 51 174 51 51 0
63 15 26 30 -19 7 -17 9 18 9 51 1 131 -24 164 -51 26 -21 18 -20 -42 6 -47
20 -62 3 -18 -22 18 -9 47 -27 65 -39 32 -21 34 -21 50 -3 9 10 28 21 41 24
16 4 31 19 40 41 19 47 47 60 94 46 74 -22 108 -98 64 -141 -10 -10 -44 -27
-74 -37 -53 -17 -55 -20 -58 -56 -2 -22 3 -48 12 -61 18 -28 92 -51 135 -41
37 8 33 20 -9 29 -39 7 -100 56 -100 79 0 18 4 21 54 32 16 3 44 21 63 40 48
48 46 94 -6 146 -35 36 -43 39 -93 39 -59 0 -101 -22 -113 -60 -8 -25 -20 -25
-70 -1 -103 50 -287 59 -390 21 -33 -13 -65 -27 -72 -32 -21 -17 -33 0 -21 32
21 61 -18 120 -91 140 -34 9 -53 8 -98 -5 -30 -9 -58 -13 -62 -10 -13 14 42
45 79 45 21 0 43 7 50 15 7 8 28 15 46 15 19 0 34 5 34 10 0 12 -51 11 -105
-3z m68 -102 c58 -24 62 -68 17 -190 -7 -20 -25 -30 -121 -73 -39 -17 -50 -19
-64 -8 -9 7 -16 21 -13 32 2 14 14 20 48 24 61 7 67 13 67 60 0 43 -21 56 -32
19 -10 -32 -47 -20 -66 21 -16 34 -16 36 7 75 13 22 31 43 41 47 30 11 79 9
116 -7z m-98 -185 c-3 -5 -22 -10 -41 -10 -19 0 -34 5 -34 10 0 6 18 10 41 10
24 0 38 -4 34 -10z"/>
<path d="M270 6272 c0 -6 13 -15 29 -20 16 -6 35 -20 41 -32 8 -15 15 -19 22
-12 14 14 -7 49 -34 57 -13 4 -31 9 -40 11 -10 3 -18 1 -18 -4z"/>
<path d="M354 6136 c-8 -22 3 -33 18 -18 9 9 9 15 0 24 -9 9 -13 7 -18 -6z"/>
<path d="M717 5963 c-8 -10 -18 -36 -22 -58 -4 -22 -16 -47 -27 -55 -17 -14
-18 -21 -9 -60 11 -48 34 -84 75 -114 34 -26 148 -33 220 -14 69 18 72 38 7
38 -28 0 -75 9 -106 21 -46 17 -62 30 -90 72 -39 57 -47 118 -20 153 8 10 15
22 15 27 0 13 -27 7 -43 -10z m41 -230 c18 -18 51 -37 72 -43 49 -13 51 -20 6
-20 -18 0 -48 10 -67 23 -38 25 -79 82 -78 106 0 11 5 9 17 -9 9 -14 31 -40
50 -57z"/>
<path d="M176 5581 c-10 -15 20 -61 39 -61 21 0 19 10 -8 44 -17 20 -26 26
-31 17z"/>
<path d="M3572 2833 c4 -21 33 -25 33 -3 0 8 -8 16 -18 18 -14 3 -18 -1 -15
-15z"/>
<path d="M3470 2776 c-8 -23 -12 -25 -30 -14 -25 16 -52 -4 -32 -24 17 -17 15
-45 -5 -57 -14 -7 -26 -4 -50 15 -18 14 -34 20 -38 14 -3 -6 -13 -6 -23 -1
-78 40 -109 40 -104 3 2 -13 -3 -25 -12 -28 -9 -3 -16 -13 -16 -21 0 -10 -6
-12 -19 -8 -25 8 -39 -15 -17 -27 25 -14 19 -28 -18 -43 -39 -17 -47 -26 -51
-62 -1 -14 -8 -29 -14 -33 -7 -4 -10 -17 -6 -32 6 -21 1 -28 -39 -49 -25 -13
-46 -27 -46 -30 0 -9 33 -35 53 -42 9 -4 17 -11 17 -17 0 -13 -27 -13 -35 0
-10 17 -32 11 -38 -10 -3 -14 -14 -20 -32 -20 -17 0 -25 -5 -22 -12 2 -7 11
-13 20 -13 8 0 25 -13 37 -28 l21 -27 -21 0 c-14 0 -24 -8 -27 -21 -4 -16 -12
-20 -29 -16 -35 6 -50 -17 -24 -36 23 -16 20 -21 -24 -31 -19 -5 -32 -3 -37 5
-11 19 -38 3 -32 -19 3 -14 -2 -21 -17 -25 -26 -7 -18 -27 11 -27 11 0 34 7
52 16 21 11 28 12 20 3 -7 -7 -13 -21 -13 -31 0 -10 -7 -18 -17 -18 -9 0 -25
-8 -36 -17 -10 -10 -38 -25 -60 -34 -23 -9 -48 -27 -54 -40 -14 -26 -30 -27
-48 -2 -8 11 -20 14 -39 9 -22 -5 -28 -2 -38 19 -6 13 -22 32 -36 41 -20 13
-23 22 -19 50 6 34 6 34 -34 34 -34 0 -39 -3 -35 -17 3 -10 -1 -31 -9 -47 -18
-35 -12 -45 17 -27 18 11 20 11 15 -3 -5 -12 1 -20 19 -26 35 -14 21 -30 -26
-30 -44 0 -63 21 -53 58 4 17 -1 22 -22 28 -33 8 -54 -9 -36 -30 17 -20 7 -33
-29 -38 -23 -4 -30 -1 -26 9 3 8 0 16 -7 18 -22 9 -72 -11 -76 -30 -2 -15 2
-17 25 -12 27 5 29 3 30 -25 1 -25 -2 -29 -20 -24 -12 3 -29 6 -38 6 -10 0
-18 7 -18 16 0 12 -7 14 -31 9 -25 -6 -31 -4 -36 14 -6 25 -36 27 -77 6 -15
-8 -32 -13 -36 -10 -14 8 -40 -6 -40 -22 0 -10 8 -13 27 -11 14 2 28 -2 30 -8
5 -15 -65 -23 -77 -9 -9 10 -87 11 -97 1 -14 -14 9 -36 37 -36 16 0 30 -4 30
-10 0 -16 -50 -12 -66 5 -11 11 -20 12 -34 5 -13 -7 -21 -7 -25 0 -3 6 5 14
19 20 14 5 26 17 26 25 0 20 -28 31 -43 16 -6 -6 -21 -11 -33 -11 -13 0 -26
-5 -30 -11 -4 -8 -14 2 -26 25 -10 20 -26 36 -36 36 -9 0 -26 11 -36 25 -20
27 -45 32 -64 13 -8 -8 -8 -17 -1 -30 11 -21 4 -38 -17 -38 -8 0 -14 -4 -14
-10 0 -5 -10 -10 -22 -10 -12 0 -29 -7 -39 -16 -16 -14 -18 -14 -23 4 -4 11
-13 23 -21 26 -8 3 -15 12 -15 20 0 19 -36 39 -56 32 -13 -5 -12 -11 1 -43
l15 -38 -25 30 c-16 20 -22 37 -19 52 5 18 2 23 -14 23 -25 0 -38 -18 -24 -32
7 -7 8 -17 2 -28 -5 -9 -5 -22 0 -30 4 -7 6 -19 3 -27 -9 -24 -18 -14 -19 22
-1 45 -22 70 -31 37 -8 -31 -25 -23 -35 16 -10 38 -32 41 -54 7 -13 -19 -20
-23 -30 -14 -15 13 -58 -6 -48 -22 3 -5 3 -17 0 -26 -6 -14 -9 -13 -22 6 -15
20 -14 24 10 56 14 18 26 36 26 39 0 11 -36 6 -48 -6 -14 -14 -60 -20 -67 -7
-4 5 5 9 19 9 32 0 42 17 22 39 -9 10 -16 23 -16 29 0 16 -22 15 -46 -3 -11
-9 -42 -14 -76 -15 -51 0 -58 -2 -58 -20 0 -21 39 -43 67 -38 9 2 23 -12 34
-31 10 -19 22 -37 27 -40 5 -3 13 -21 17 -38 6 -31 5 -33 -23 -33 -43 0 -57
21 -30 44 19 16 19 20 7 30 -9 6 -18 19 -22 29 -9 24 -19 22 -52 -13 -24 -25
-26 -32 -15 -45 7 -8 10 -18 7 -21 -9 -9 -27 6 -37 31 -10 25 -63 39 -92 24
-18 -10 -48 -2 -48 11 0 5 17 10 38 12 30 2 38 7 40 27 3 21 1 23 -22 17 -20
-5 -28 -2 -33 11 -3 10 -15 26 -27 36 l-21 18 25 -6 c14 -4 31 -14 37 -23 18
-23 28 -7 29 49 0 32 -3 49 -11 49 -17 0 -37 -25 -28 -34 4 -4 -1 -4 -11 0
-12 5 -23 2 -30 -7 -15 -19 -44 -23 -62 -8 -17 14 -44 5 -44 -15 0 -7 -8 -16
-19 -19 -10 -2 -21 -17 -24 -33 -6 -35 -2 -44 22 -44 27 0 45 -24 28 -39 -11
-8 -18 -6 -32 9 -14 15 -26 19 -46 15 -24 -5 -30 -2 -43 24 -19 36 -29 43 -50
35 -19 -7 -20 -27 -4 -54 18 -29 1 -37 -25 -12 -24 23 -52 29 -61 13 -11 -18
-55 1 -66 30 -8 17 -20 29 -31 29 -11 0 -19 5 -19 10 0 6 4 10 9 10 8 0 41 54
41 66 0 2 -7 1 -16 -3 -10 -4 -22 1 -30 11 -13 19 -34 14 -34 -8 0 -8 -9 -16
-20 -19 -30 -8 -24 -27 8 -28 26 0 26 -1 5 -9 -28 -11 -30 -40 -3 -47 11 -3
26 -18 34 -33 12 -25 12 -29 0 -34 -8 -3 -23 3 -34 14 -22 22 -46 25 -84 10
l-26 -10 0 -635 0 -635 2500 0 c2216 0 2500 2 2500 15 0 8 -1 16 -2 17 -2 0
-99 4 -216 7 -210 6 -213 6 -198 26 13 19 15 19 33 2 21 -19 48 -22 58 -7 3 5
-13 28 -36 51 -35 35 -45 40 -58 30 -9 -6 -26 -16 -38 -22 -26 -14 -37 -39
-23 -53 20 -20 9 -26 -51 -26 l-61 0 23 25 c13 13 30 25 37 25 24 0 64 49 57
69 -8 27 33 40 51 16 8 -11 21 -16 34 -12 13 3 25 -2 35 -16 12 -17 19 -20 32
-11 14 9 20 6 30 -13 7 -13 10 -30 7 -37 -3 -7 2 -19 11 -26 23 -19 45 5 45
50 0 36 1 38 31 36 38 -1 49 18 19 34 -15 8 -25 8 -34 0 -10 -8 -15 -7 -20 5
-5 13 9 15 94 15 90 0 100 2 114 22 22 31 5 55 -44 63 -34 6 -39 9 -29 21 9
11 9 17 0 28 -9 11 -7 15 11 20 l23 7 -22 16 c-13 8 -23 21 -23 29 0 8 -20 15
-57 19 -83 9 -85 11 -18 20 73 9 95 20 95 45 0 27 -30 40 -87 39 -74 -2 -91
-10 -117 -59 -13 -25 -32 -46 -43 -48 -22 -3 -49 40 -51 84 -2 25 3 33 30 45
35 15 36 33 3 35 -34 2 -35 3 -25 30 8 21 6 34 -12 65 -29 51 -41 49 -33 -5 5
-32 3 -50 -10 -69 -9 -14 -17 -38 -18 -54 -2 -23 -7 -28 -32 -31 -53 -5 -60
-10 -41 -30 15 -18 23 -62 10 -62 -4 0 -12 8 -19 17 -11 15 -15 15 -29 4 -19
-16 -12 -31 15 -31 20 0 27 -34 9 -45 -19 -12 -10 -35 15 -41 29 -7 29 -8 13
-34 -10 -15 -10 -22 -1 -31 19 -19 38 3 58 67 18 58 10 90 -15 59 -16 -19 -30
-19 -30 0 0 8 11 22 24 30 15 10 22 23 19 34 -2 9 3 24 13 32 16 13 17 12 11
-10 -4 -17 1 -33 19 -53 27 -33 31 -58 9 -58 -8 0 -15 -5 -15 -10 0 -17 31
-24 50 -13 18 12 70 6 70 -8 0 -5 -13 -9 -28 -9 -34 0 -65 -30 -56 -54 4 -10
18 -16 39 -16 37 0 54 -14 29 -24 -26 -10 -58 -6 -78 9 -10 8 -22 12 -27 10
-4 -3 -5 4 -2 15 9 33 -24 24 -43 -11 -11 -22 -21 -30 -34 -26 -35 9 -45 -9
-21 -38 11 -15 21 -31 21 -35 0 -10 -47 -41 -70 -45 -10 -2 -29 -13 -42 -25
-13 -11 -30 -27 -39 -35 -10 -10 -38 -15 -82 -15 -63 0 -67 1 -64 22 1 17 -3
23 -18 23 -13 0 -20 -7 -20 -20 0 -20 -7 -20 -600 -21 -330 -1 -592 0 -582 3
9 2 17 11 17 19 0 14 -16 16 -170 19 -36 0 -74 6 -86 12 -11 7 -26 8 -33 4
-20 -13 -9 -44 19 -52 30 -8 57 -8 -685 -11 -555 -3 -570 -2 -567 16 2 10 -1
22 -8 26 -13 8 -3 90 11 90 5 0 10 -15 11 -32 0 -18 2 -39 2 -45 3 -34 64 -48
123 -29 13 4 34 1 53 -9 43 -22 53 -16 56 34 2 36 -2 44 -24 58 -15 9 -29 18
-31 20 -2 1 1 9 8 17 16 19 -36 127 -59 125 -8 -1 -23 2 -34 6 -12 5 -21 3
-27 -6 -5 -8 -9 -11 -9 -7 0 4 9 22 20 40 13 22 18 43 15 63 -6 34 7 61 24 51
7 -5 7 -12 -1 -25 -9 -15 -8 -29 6 -66 19 -49 40 -65 59 -46 9 9 7 20 -7 46
-15 28 -17 37 -6 50 7 8 18 15 26 15 29 0 26 25 -11 89 -18 32 -8 49 12 21
l15 -21 23 21 c13 12 29 20 37 18 8 -3 3 -11 -15 -22 -30 -20 -35 -43 -11 -53
13 -5 12 -8 -5 -25 -25 -22 -26 -31 -7 -47 10 -8 21 -7 45 5 28 14 32 21 29
45 -3 17 1 34 9 41 24 19 32 -4 17 -47 -10 -29 -12 -63 -7 -120 3 -44 6 -93 6
-108 0 -20 4 -27 16 -25 11 3 16 14 15 36 -2 25 2 32 17 32 10 0 19 5 19 12 0
9 3 9 12 0 9 -9 8 -21 -4 -50 -13 -35 -14 -43 -1 -73 11 -26 12 -38 3 -53 -15
-23 -2 -33 55 -41 49 -7 100 6 100 26 0 18 -42 24 -61 9 -12 -10 -18 -3 -38
41 -16 36 -21 58 -14 66 6 7 6 19 -1 31 -5 10 -8 28 -5 39 3 12 1 30 -5 41 -8
15 -7 23 4 32 11 9 12 17 4 32 -8 15 -7 22 6 32 16 11 15 15 -8 42 l-25 29
-11 -28 c-6 -16 -11 -37 -11 -47 0 -18 -17 -36 -26 -27 -2 2 -1 36 2 76 6 58
9 69 20 60 16 -14 17 -9 5 25 -8 18 -15 23 -30 19 -24 -6 -26 0 -11 27 11 20
4 70 -9 70 -4 0 -16 -19 -27 -42 -18 -40 -21 -43 -54 -40 -21 3 -40 12 -50 25
-17 25 -14 33 11 29 11 -2 25 8 35 24 10 15 33 33 51 40 23 10 33 21 33 37 l1
22 19 -24 c14 -15 20 -39 20 -70 0 -25 7 -55 15 -65 8 -11 15 -30 15 -43 0
-14 6 -23 15 -23 8 0 15 6 15 13 0 19 39 40 54 28 14 -11 172 -4 198 10 9 5
28 9 42 9 14 0 29 7 34 16 8 15 10 15 15 0 7 -18 42 -22 52 -6 3 5 16 -2 28
-16 21 -24 26 -25 72 -17 32 6 81 5 135 -3 47 -6 92 -8 100 -4 8 3 36 7 63 8
26 1 55 6 65 11 11 6 24 6 35 -1 15 -8 19 -6 24 10 9 38 70 15 86 -32 3 -8 11
-7 29 3 14 7 41 14 59 15 42 3 101 -23 95 -41 -7 -16 13 -28 41 -25 11 2 24
-1 27 -6 8 -14 66 -2 66 14 0 9 12 14 35 14 22 0 43 8 55 20 24 24 46 26 53 6
4 -9 -2 -17 -14 -21 -14 -5 -19 -13 -16 -26 4 -15 -2 -19 -37 -24 -61 -9 -138
-9 -163 -1 -17 6 -23 5 -23 -7 0 -8 6 -19 13 -25 13 -11 262 -10 273 1 4 4 1
13 -5 21 -10 12 -8 17 8 26 14 7 21 21 21 40 0 23 4 30 20 30 13 0 24 10 31
27 9 23 7 30 -13 45 -13 9 -42 20 -65 24 -35 5 -46 12 -58 37 -9 19 -13 42
-10 59 8 36 23 36 27 1 4 -38 32 -37 35 1 2 35 -17 52 -69 60 -46 8 -51 15
-32 51 20 40 15 80 -11 80 -13 0 -21 -8 -23 -22 -4 -30 -18 -29 -26 2 -4 14 1
38 10 59 18 37 12 78 -8 58 -7 -7 -16 -12 -20 -12 -15 0 -8 27 11 44 11 10 21
30 23 44 2 20 10 28 34 33 17 3 37 9 44 14 18 11 -15 28 -40 20 -31 -10 -23
11 9 25 16 6 41 25 57 41 32 33 59 37 73 10 13 -24 -2 -38 -44 -43 -41 -4 -40
-32 0 -36 21 -2 43 6 70 25 22 16 66 41 97 56 61 30 98 62 138 120 30 43 45
46 76 12 12 -13 35 -27 51 -30 78 -16 103 -58 49 -83 -24 -12 -28 -18 -23 -46
4 -25 1 -35 -14 -44 -10 -7 -19 -19 -19 -27 0 -22 42 -65 70 -70 13 -3 33 -14
44 -25 l20 -20 -21 0 c-12 0 -26 7 -31 17 -13 22 -47 9 -38 -14 4 -9 1 -20 -6
-24 -10 -7 -11 -12 -1 -28 8 -13 9 -22 3 -26 -18 -11 -11 -35 10 -35 20 0 26
-11 13 -23 -3 -4 -12 -2 -18 3 -17 14 -45 2 -45 -19 0 -9 9 -34 20 -55 21 -41
18 -65 -6 -45 -11 9 -18 8 -30 -2 -14 -12 -14 -14 3 -26 15 -12 16 -15 3 -23
-20 -13 -37 -12 -45 0 -3 5 -18 10 -33 10 -20 0 -23 3 -14 12 18 18 14 28 -12
28 -15 0 -30 -10 -41 -26 -16 -25 -16 -27 0 -36 15 -9 15 -11 0 -28 -10 -11
-14 -26 -11 -38 6 -16 3 -19 -19 -14 -26 5 -33 -6 -14 -25 21 -21 -1 -35 -46
-28 -49 7 -68 -8 -39 -30 24 -18 93 -17 121 1 12 7 29 11 37 8 14 -5 13 -9 -2
-30 -10 -14 -24 -21 -34 -18 -21 6 -35 -15 -17 -27 19 -12 79 -11 79 1 0 6 11
16 25 22 31 14 32 32 3 45 -21 9 -17 12 36 27 32 10 60 15 63 12 11 -10 -9
-45 -30 -52 -27 -8 -67 -45 -67 -61 0 -17 35 -34 54 -27 20 8 21 -5 1 -20 -14
-10 -14 -15 0 -44 19 -38 41 -41 56 -8 6 13 20 27 30 29 25 7 24 19 -6 51 -27
29 -33 66 -11 66 7 0 19 7 26 15 10 12 16 13 26 4 8 -7 27 -9 46 -5 20 4 37 1
47 -8 22 -19 82 -9 88 15 6 22 7 22 31 10 9 -5 63 -15 119 -22 111 -13 159 -5
147 26 -4 10 0 15 15 15 12 0 21 6 21 15 0 15 -32 37 -53 34 -27 -3 -37 2 -37
21 0 13 -7 20 -19 20 -23 0 -45 25 -38 43 3 8 19 17 35 20 17 3 54 26 84 50
42 34 59 42 75 36 12 -4 24 -12 28 -18 8 -14 45 -14 45 0 0 6 12 9 28 7 35 -4
37 -33 2 -33 -35 0 -32 -28 5 -36 17 -4 51 -14 76 -22 30 -10 51 -12 62 -5 13
7 19 5 23 -7 9 -21 -22 -65 -46 -65 -12 0 -25 -10 -32 -25 -6 -14 -19 -25 -29
-25 -10 0 -20 -4 -23 -9 -7 -11 49 -25 63 -17 5 3 11 -3 14 -14 6 -22 37 -28
37 -6 0 25 26 39 50 26 16 -9 33 -8 69 1 45 11 51 10 85 -10 l36 -23 0 455 c0
424 -1 455 -17 460 -10 3 -30 14 -46 24 -21 14 -31 15 -45 7 -9 -6 -24 -8 -32
-3 -8 4 -23 10 -32 13 -13 4 -18 16 -18 44 0 45 -23 72 -63 72 -34 0 -43 17
-21 41 16 18 16 19 0 19 -21 0 -66 -29 -66 -43 0 -6 -7 -19 -16 -29 -13 -13
-14 -21 -5 -31 8 -11 6 -19 -12 -38 -13 -13 -32 -29 -42 -35 -11 -6 -15 -15
-11 -23 6 -9 11 -9 21 -1 8 7 19 9 25 5 8 -5 4 -12 -9 -22 -12 -8 -19 -19 -16
-24 10 -15 -17 -10 -37 7 -14 14 -20 14 -33 4 -14 -12 -14 -15 0 -36 22 -34 2
-64 -42 -64 -28 0 -32 3 -30 22 1 18 -4 24 -23 26 -14 2 -29 10 -33 18 -13 22
-37 17 -37 -8 0 -13 -5 -30 -10 -38 -9 -13 -14 -10 -34 14 -17 21 -30 27 -45
23 -25 -6 -25 -8 -5 44 11 25 13 43 7 47 -5 4 -13 15 -16 26 -4 10 -13 16 -22
12 -23 -8 -29 13 -9 35 25 28 7 41 -39 28 -32 -9 -41 -7 -64 10 -24 20 -25 21
-4 21 11 0 21 -4 21 -10 0 -15 34 -12 56 5 16 13 17 16 4 24 -42 26 -52 40
-57 79 -6 41 -7 43 -34 37 -31 -7 -38 5 -14 25 19 16 9 33 -15 25 -10 -3 -21
-1 -25 5 -3 5 -15 10 -26 10 -11 0 -17 5 -14 10 3 6 17 10 30 10 31 0 43 20
16 27 -21 5 -30 23 -11 23 6 0 10 7 10 16 0 11 -6 15 -20 11 -13 -3 -24 1 -30
14 -6 10 -17 19 -25 19 -20 0 -19 7 5 37 19 24 27 53 14 53 -3 0 -14 -5 -25
-10 -13 -8 -25 -7 -40 0 -14 8 -24 8 -33 1 -9 -7 -16 -7 -24 1 -6 6 -18 7 -29
3 -28 -12 -56 -5 -83 21 -25 23 -70 25 -70 2 0 -5 -19 -8 -42 -6 -38 2 -43 0
-46 -20 -4 -26 -6 -26 -33 -9 -17 10 -22 9 -33 -5 -7 -10 -16 -18 -20 -18 -12
0 -6 28 9 40 22 18 18 30 -10 30 -19 0 -24 5 -22 21 3 32 -21 35 -33 5z m270
-70 c0 -17 -25 -38 -33 -29 -14 14 -6 39 13 40 11 1 20 -4 20 -11z m55 -26 c3
-5 -1 -10 -9 -10 -9 0 -16 5 -16 10 0 6 4 10 9 10 6 0 13 -4 16 -10z m105 -15
c0 -9 -9 -15 -22 -15 -22 1 -23 1 -4 15 25 19 26 19 26 0z m-630 -15 c0 -5 -5
-10 -11 -10 -5 0 -7 5 -4 10 3 6 8 10 11 10 2 0 4 -4 4 -10z m94 -32 c21 -41
20 -42 -9 -16 -14 12 -25 30 -25 40 0 25 15 15 34 -24z m386 11 c0 -5 -4 -9
-10 -9 -5 0 -10 7 -10 16 0 8 5 12 10 9 6 -3 10 -10 10 -16z m190 1 c0 -5 -4
-10 -9 -10 -6 0 -13 5 -16 10 -3 6 1 10 9 10 9 0 16 -4 16 -10z m-400 -20 c24
-24 25 -36 4 -44 -21 -8 -34 1 -34 23 0 9 -5 22 -12 29 -9 9 -8 12 5 12 9 0
26 -9 37 -20z m-250 -26 c0 -8 -5 -12 -10 -9 -6 4 -8 11 -5 16 9 14 15 11 15
-7z m170 12 c0 -3 -4 -8 -10 -11 -5 -3 -10 -1 -10 4 0 6 5 11 10 11 6 0 10 -2
10 -4z m-240 -31 c-7 -8 -16 -15 -21 -15 -5 0 -1 9 8 20 9 11 19 17 21 15 3
-3 -1 -11 -8 -20z m270 -29 c0 -14 -5 -28 -10 -31 -13 -8 -24 20 -16 40 9 24
26 17 26 -9z m304 -15 c3 -5 0 -14 -8 -20 -10 -9 -17 -6 -29 13 -9 13 -13 26
-10 30 6 6 39 -9 47 -23z m-140 -10 c7 -11 -14 -20 -31 -13 -7 2 -13 8 -13 13
0 12 37 12 44 0z m246 -32 c0 -12 -5 -19 -11 -17 -6 2 -10 7 -10 11 1 4 1 14
1 23 0 8 5 12 10 9 6 -3 10 -15 10 -26z m-653 -23 c-23 -33 -45 -33 -39 1 6
34 22 46 39 31 11 -9 11 -15 0 -32z m298 10 c-10 -7 -16 -20 -12 -29 5 -13 11
-13 46 5 47 23 90 18 98 -12 6 -24 16 -25 32 -6 10 11 8 17 -6 25 -25 14 -3
37 23 23 11 -5 25 -7 32 -5 15 6 16 -9 1 -24 -16 -16 -1 -36 22 -30 27 7 34
-10 10 -23 -12 -6 -18 -16 -14 -26 3 -8 -2 -21 -13 -29 -11 -7 -16 -17 -12
-21 5 -4 16 0 26 9 10 10 25 17 33 17 14 0 59 -50 59 -66 0 -3 9 -18 19 -33
27 -37 17 -80 -20 -95 -40 -15 -36 -30 5 -22 l34 7 -1 -41 c-2 -33 -5 -40 -23
-40 -12 0 -33 11 -48 25 -38 35 -82 56 -101 49 -9 -4 -36 -37 -61 -75 -24 -38
-49 -69 -54 -69 -5 0 -26 -11 -46 -25 -20 -14 -42 -25 -49 -25 -6 0 -30 16
-52 35 -23 19 -43 35 -46 35 -3 0 -29 -22 -58 -49 -54 -50 -123 -90 -136 -77
-4 3 -1 12 5 18 7 7 12 22 12 34 0 15 8 24 25 28 40 10 31 34 -15 38 -22 2
-39 8 -38 13 2 6 12 9 23 8 40 -3 49 5 31 32 -19 29 -11 55 17 55 22 0 57 26
57 43 0 5 -15 7 -35 4 -27 -4 -35 -2 -35 10 0 8 -9 17 -20 20 -27 7 -25 27 5
47 14 9 25 26 25 38 0 12 7 30 17 40 13 15 14 23 5 43 -13 28 -13 29 24 15 24
-9 31 -7 55 16 22 21 26 30 17 41 -13 16 -14 14 37 36 43 17 68 24 99 26 19 1
19 1 1 -13z m-180 -45 c-3 -6 -11 -11 -17 -11 -6 0 -6 6 2 15 14 17 26 13 15
-4z m512 -7 c-3 -3 -12 -4 -19 -1 -8 3 -5 6 6 6 11 1 17 -2 13 -5z m-37 -28
c0 -3 -4 -8 -10 -11 -5 -3 -10 -1 -10 4 0 6 5 11 10 11 6 0 10 -2 10 -4z m79
-43 c-20 -23 -38 -15 -35 15 2 15 4 29 5 31 0 2 10 -4 21 -14 15 -14 17 -21 9
-32z m46 -54 c10 -15 2 -19 -24 -12 -17 4 -19 8 -9 14 18 12 26 11 33 -2z
m105 -9 c0 -5 -2 -10 -4 -10 -3 0 -8 5 -11 10 -3 6 -1 10 4 10 6 0 11 -4 11
-10z m-941 -48 c32 11 38 3 16 -22 -26 -29 -63 -26 -75 6 -14 36 -13 38 13 22
15 -11 29 -13 46 -6z m1609 -5 c16 -1 18 -4 10 -14 -9 -11 -14 -10 -29 3 -11
10 -19 22 -19 28 0 6 4 6 9 -2 4 -7 17 -14 29 -15z m166 -136 c-7 -9 -24 13
-24 32 0 21 1 21 13 -3 8 -14 12 -27 11 -29z m-827 5 c-6 -17 -41 -13 -45 5
-2 13 3 15 23 11 14 -2 24 -10 22 -16z m648 -6 c11 -17 -5 -32 -21 -19 -8 6
-14 15 -14 20 0 12 27 11 35 -1z m-1675 -40 c0 -5 -4 -10 -10 -10 -5 0 -10 5
-10 10 0 6 5 10 10 10 6 0 10 -4 10 -10z m983 -15 c23 -32 16 -43 -23 -37 -23
3 -30 9 -30 26 0 43 26 48 53 11z m-1088 -15 c0 -7 -6 -15 -12 -17 -8 -3 -13
4 -13 17 0 13 5 20 13 18 6 -3 12 -11 12 -18z m-2366 -42 c12 -19 16 -34 10
-37 -14 -4 -59 39 -59 56 0 24 28 13 49 -19z m3791 12 c0 -5 -4 -10 -10 -10
-5 0 -10 5 -10 10 0 6 5 10 10 10 6 0 10 -4 10 -10z m78 -48 c2 -7 -2 -10 -12
-6 -9 3 -16 11 -16 16 0 13 23 5 28 -10z m150 6 c-6 -18 -28 -21 -28 -4 0 9 7
16 16 16 9 0 14 -5 12 -12z m-1398 -13 c0 -8 -4 -15 -10 -15 -5 0 -10 7 -10
15 0 8 5 15 10 15 6 0 10 -7 10 -15z m1510 -52 c0 -13 -20 -19 -20 -5 0 4 -3
18 -6 32 -5 24 -5 24 10 6 9 -11 16 -26 16 -33z m-3705 28 c3 -5 -4 -13 -16
-16 -23 -8 -34 -1 -24 14 8 13 32 14 40 2z m625 -50 c0 -12 -5 -11 -21 6 -13
13 -18 26 -14 34 6 9 11 7 22 -6 7 -11 13 -26 13 -34z m1361 34 c-1 -15 -24
-12 -29 3 -3 9 2 13 12 10 10 -1 17 -7 17 -13z m1909 -20 c0 -16 -30 -48 -38
-41 -2 3 0 12 7 20 6 8 11 18 10 22 -3 18 1 25 11 19 6 -3 10 -12 10 -20z
m-2630 5 c0 -5 -5 -10 -11 -10 -5 0 -7 5 -4 10 3 6 8 10 11 10 2 0 4 -4 4 -10z
m135 0 c3 -5 1 -10 -4 -10 -6 0 -11 5 -11 10 0 6 2 10 4 10 3 0 8 -4 11 -10z
m160 0 c-3 -5 -16 -10 -28 -10 -18 0 -19 2 -7 10 20 13 43 13 35 0z m485 0 c0
-5 -4 -10 -10 -10 -5 0 -10 5 -10 10 0 6 5 10 10 10 6 0 10 -4 10 -10z m1280
-9 c0 -6 -4 -13 -10 -16 -5 -3 -10 1 -10 9 0 9 5 16 10 16 6 0 10 -4 10 -9z
m-3872 -13 c-6 -18 -28 -21 -28 -4 0 9 7 16 16 16 9 0 14 -5 12 -12z m70 -7
c3 -8 -1 -12 -9 -9 -7 2 -15 10 -17 17 -3 8 1 12 9 9 7 -2 15 -10 17 -17z
m197 9 c3 -5 -1 -10 -9 -10 -9 0 -16 5 -16 10 0 6 4 10 9 10 6 0 13 -4 16 -10z
m1326 -13 c-10 -9 -11 -8 -5 6 3 10 9 15 12 12 3 -3 0 -11 -7 -18z m101 -9
c-8 -8 -9 -4 -5 13 4 13 8 18 11 10 2 -7 -1 -18 -6 -23z m313 22 c3 -5 2 -10
-4 -10 -5 0 -13 5 -16 10 -3 6 -2 10 4 10 5 0 13 -4 16 -10z m1931 -17 c-10
-10 -19 5 -10 18 6 11 8 11 12 0 2 -7 1 -15 -2 -18z m-4051 3 c11 0 23 -8 26
-16 11 -25 -2 -32 -22 -14 -17 15 -24 16 -54 5 -26 -9 -40 -9 -56 -1 -11 7
-18 14 -15 17 3 3 12 0 21 -7 18 -15 45 -6 45 16 0 12 5 14 18 9 9 -4 26 -8
37 -9z m875 -1 c11 -13 8 -15 -20 -15 -29 0 -32 -2 -28 -25 6 -30 -3 -32 -27
-5 -10 11 -24 20 -32 20 -7 0 -13 5 -13 11 0 8 12 10 35 6 24 -4 39 -1 48 8
16 18 22 18 37 0z m-600 0 c0 -2 -11 -15 -25 -29 -24 -24 -25 -24 -35 -5 -9
16 -7 19 10 19 11 0 20 5 20 10 0 6 7 10 15 10 8 0 15 -2 15 -5z m924 -1 c9
-3 16 -10 16 -15 0 -14 -26 -10 -40 6 -13 16 -3 20 24 9z m166 -20 c0 -16 -2
-16 -24 -8 -13 5 -14 9 -5 20 13 16 29 9 29 -12z m2220 -4 c0 -5 -5 -12 -11
-16 -12 -7 -31 15 -23 28 6 9 34 -1 34 -12z m-1370 1 c0 -5 -7 -11 -15 -15
-15 -5 -20 5 -8 17 9 10 23 9 23 -2z m-1472 -15 c2 -3 1 -10 -3 -16 -5 -8 -13
-6 -26 6 -10 9 -25 14 -34 10 -10 -4 -14 -2 -9 5 6 10 61 6 72 -5z m1036 -1
c-7 -16 -24 -21 -24 -6 0 8 7 13 27 20 1 1 0 -6 -3 -14z m-1663 -5 c34 0 38
-15 8 -31 -18 -9 -24 -8 -31 5 -5 9 -18 16 -29 16 -12 0 -17 4 -14 11 4 6 14
8 22 5 8 -3 28 -6 44 -6z m920 -17 c-9 -35 -27 -40 -33 -9 -6 29 -2 36 23 36
14 0 16 -5 10 -27z m646 12 c3 -9 3 -18 1 -20 -7 -8 -68 16 -68 26 0 16 60 10
67 -6z m207 7 c5 -8 -63 -47 -69 -40 -6 5 20 35 35 41 22 8 28 8 34 -1z m175
-9 c-1 -10 2 -28 6 -40 4 -14 3 -23 -3 -23 -10 0 -22 32 -22 63 0 9 4 17 9 17
6 0 10 -8 10 -17z m401 2 c0 -8 -4 -15 -10 -15 -5 0 -10 7 -10 15 0 8 5 15 10
15 6 0 10 -7 10 -15z m110 -11 c0 -20 -30 -30 -41 -13 -13 20 -11 27 9 32 22
5 32 -1 32 -19z m1695 11 c5 0 11 -8 13 -17 4 -21 -27 -25 -45 -7 -14 14 -5
41 11 32 6 -4 15 -8 21 -8z m-3951 -4 c9 -14 -22 -34 -41 -26 -17 6 -17 7 1
21 23 16 33 18 40 5z m966 -11 c0 -20 -25 -38 -36 -27 -7 6 18 47 28 47 5 0 8
-9 8 -20z m135 0 c-3 -5 -13 -10 -21 -10 -8 0 -12 5 -9 10 3 6 13 10 21 10 8
0 12 -4 9 -10z m1315 -20 c0 -23 -18 -36 -32 -22 -7 7 -6 17 2 31 13 24 30 19
30 -9z m153 -2 c-6 -30 -27 -38 -36 -14 -4 11 32 49 40 42 1 0 -1 -13 -4 -28z
m777 17 c0 -8 -4 -15 -9 -15 -13 0 -22 16 -14 24 11 11 23 6 23 -9z m720 5 c0
-5 -5 -10 -11 -10 -5 0 -7 5 -4 10 3 6 8 10 11 10 2 0 4 -4 4 -10z m105 0 c7
-11 -42 -37 -51 -27 -9 9 15 37 32 37 7 0 16 -4 19 -10z m-4054 -12 c6 -65 3
-81 -18 -89 -17 -6 -22 -17 -25 -64 -1 -31 1 -59 6 -63 16 -9 54 45 61 88 l7
42 29 -28 c28 -27 29 -27 49 -9 11 10 20 13 20 8 0 -6 -7 -13 -15 -17 -26 -9
-17 -26 14 -26 37 0 50 -19 26 -36 -13 -10 -18 -25 -17 -52 1 -28 -4 -44 -18
-57 -25 -23 -49 -6 -43 29 7 33 -8 38 -59 19 -25 -9 -53 -13 -62 -10 -29 11
-31 8 -31 -56 -1 -34 -4 -68 -9 -75 -5 -9 0 -22 15 -38 23 -25 20 -46 -4 -26
-17 15 -27 6 -27 -25 0 -16 8 -27 25 -33 31 -12 32 -22 3 -35 -29 -12 -34 -47
-12 -69 15 -16 15 -18 0 -35 -13 -15 -15 -26 -8 -59 8 -34 7 -41 -8 -45 -15
-4 -16 -15 -12 -88 2 -49 10 -94 19 -107 11 -18 12 -27 3 -38 -18 -20 -30 -8
-30 31 0 20 -6 35 -15 39 -14 5 -14 9 -2 33 11 21 12 42 6 83 -4 30 -8 63 -8
73 -1 9 -6 17 -13 17 -12 0 -107 -99 -108 -112 0 -4 9 -10 21 -13 19 -6 19 -8
4 -25 -19 -21 -6 -35 25 -25 28 9 26 -16 -5 -53 -32 -38 -32 -52 3 -52 19 0
23 -3 13 -9 -13 -9 -12 -24 4 -64 7 -16 -1 -17 -121 -15 -121 3 -129 4 -129
23 0 14 -8 21 -28 23 -40 5 -44 28 -13 61 24 25 25 29 10 42 -18 15 -38 58
-35 75 0 6 -6 17 -14 24 -8 7 -15 22 -15 34 0 12 -7 32 -17 45 -9 13 -19 38
-22 55 -8 35 -36 47 -45 18 -4 -11 -1 -32 5 -48 12 -32 16 -184 6 -201 -4 -6
-4 -18 -1 -27 4 -10 1 -16 -8 -16 -11 0 -15 14 -14 59 1 42 -4 64 -16 78 -12
13 -14 23 -7 36 6 9 8 25 5 35 -7 23 -8 90 -3 190 4 75 3 82 -14 82 -23 0 -25
13 -4 30 23 19 18 33 -10 26 -21 -5 -27 -2 -35 19 -20 53 -1 113 22 71 12 -22
30 -10 23 16 -4 12 0 27 12 40 18 20 17 21 -4 35 -22 15 -34 41 -12 28 5 -4
19 1 29 10 12 11 26 15 37 10 17 -6 17 -7 1 -19 -20 -15 -24 -36 -7 -36 7 0 9
-9 5 -24 -4 -15 0 -28 9 -36 9 -7 13 -21 10 -31 -4 -11 -2 -19 2 -19 17 0 33
24 33 50 0 34 4 37 40 32 21 -3 30 -10 30 -23 0 -12 11 -23 26 -29 21 -8 24
-13 14 -25 -6 -8 -10 -31 -8 -52 2 -32 0 -38 -17 -38 -12 0 -21 8 -23 20 -7
35 -18 37 -63 15 -55 -28 -52 -25 -55 -57 -1 -16 -5 -49 -9 -75 -8 -50 4 -78
32 -78 22 0 27 29 7 51 -13 15 -15 22 -6 31 9 9 12 7 12 -10 0 -29 55 -59 76
-41 12 10 10 16 -18 40 -17 16 -29 31 -27 34 5 5 42 6 174 5 50 0 103 0 120
-1 16 0 36 -6 45 -14 9 -8 22 -15 28 -15 19 0 14 -15 -13 -40 -28 -27 -23 -44
11 -36 30 8 31 0 2 -24 -23 -18 -23 -19 -3 -25 11 -4 28 -11 39 -17 26 -14 45
6 29 30 -6 10 -9 30 -6 45 3 17 1 27 -6 27 -8 0 -7 7 3 22 33 47 11 92 -33 68
-14 -7 -21 -7 -21 -1 0 6 18 20 40 31 43 22 52 49 19 57 -20 6 -21 14 -4 56 5
12 2 17 -11 17 -17 0 -16 3 4 18 21 16 22 20 8 31 -10 9 -29 11 -52 8 -48 -8
-67 -25 -59 -54 5 -21 3 -23 -22 -17 -43 10 -55 24 -48 56 5 21 3 28 -9 28
-20 0 -31 19 -17 33 15 15 14 20 -9 47 -24 28 -28 59 -5 40 8 -7 15 -19 15
-26 0 -23 2 -22 71 35 39 33 49 31 49 -9 0 -15 10 -36 23 -47 30 -28 85 -55
91 -45 8 13 -23 52 -40 52 -22 0 -17 18 12 36 19 13 28 14 37 5 32 -32 36 7 7
63 -24 44 -15 66 25 58 20 -3 25 0 25 15 0 30 29 49 31 21z m-678 -41 c-6 -10
-21 0 -34 25 -11 20 -11 20 14 2 14 -11 23 -22 20 -27z m217 33 c0 -5 -4 -10
-10 -10 -5 0 -10 5 -10 10 0 6 5 10 10 10 6 0 10 -4 10 -10z m1806 -17 c-7 -7
-26 7 -26 19 0 6 6 6 15 -2 9 -7 13 -15 11 -17z m562 15 c7 -7 12 -18 12 -25
0 -19 -27 -4 -33 18 -6 22 3 25 21 7z m-2439 -25 c24 -11 30 -18 22 -26 -6 -6
-11 -20 -12 -31 -1 -14 -4 -10 -10 11 -7 24 -19 37 -44 47 -19 8 -35 17 -35
20 0 7 41 -4 79 -21z m1721 7 c0 -5 -5 -10 -11 -10 -5 0 -7 5 -4 10 3 6 8 10
11 10 2 0 4 -4 4 -10z m280 0 c0 -5 -4 -10 -10 -10 -5 0 -10 5 -10 10 0 6 5
10 10 10 6 0 10 -4 10 -10z m734 -6 c21 -8 20 -20 -1 -28 -17 -7 -36 12 -27
26 6 10 8 10 28 2z m-1153 -33 c-15 -11 -20 -23 -15 -34 3 -10 1 -17 -5 -17
-14 0 -14 53 0 67 6 6 18 9 26 6 13 -5 11 -9 -6 -22z m752 23 c9 -10 -4 -34
-18 -34 -17 0 -28 17 -20 30 7 11 28 13 38 4z m217 -36 c0 -14 -19 1 -31 25
-12 22 -12 22 10 3 11 -11 21 -23 21 -28z m1340 32 c0 -5 -4 -10 -9 -10 -6 0
-13 5 -16 10 -3 6 1 10 9 10 9 0 16 -4 16 -10z m-2082 -22 c-3 -7 -11 -13 -18
-13 -7 0 -15 6 -17 13 -3 7 4 12 17 12 13 0 20 -5 18 -12z m332 -27 c0 -5 -7
-12 -16 -15 -22 -9 -24 -8 -24 9 0 8 9 15 20 15 11 0 20 -4 20 -9z m700 -1 c0
-5 -2 -10 -4 -10 -3 0 -8 5 -11 10 -3 6 -1 10 4 10 6 0 11 -4 11 -10z m1083
-24 c-20 -29 -33 -33 -33 -12 0 15 40 49 48 41 2 -2 -4 -15 -15 -29z m747 9
c0 -8 -4 -15 -10 -15 -5 0 -10 7 -10 15 0 8 5 15 10 15 6 0 10 -7 10 -15z
m-4587 -10 c-3 -20 -33 -31 -43 -15 -5 8 -6 18 -3 23 7 11 48 4 46 -8z m2610
-28 c-7 -11 -23 12 -23 33 1 12 4 11 15 -4 8 -10 12 -23 8 -29z m-840 -10
l-16 -32 -9 24 c-10 27 6 53 27 44 12 -4 12 -10 -2 -36z m751 28 c16 -12 17
-18 7 -28 -10 -10 -15 -8 -27 7 -26 36 -15 47 20 21z m-904 1 c0 -2 -8 -10
-17 -17 -16 -13 -17 -12 -4 4 13 16 21 21 21 13z m80 -16 c-16 -11 -40 -13
-40 -5 0 8 44 24 50 18 2 -2 -2 -8 -10 -13z m264 5 c-25 -19 -34 -19 -34 0 0
10 10 15 27 15 26 0 26 -1 7 -15z m876 5 c0 -5 -5 -10 -11 -10 -5 0 -7 5 -4
10 3 6 8 10 11 10 2 0 4 -4 4 -10z m1662 -15 c0 -5 -5 -11 -11 -13 -6 -2 -11
4 -11 13 0 9 5 15 11 13 6 -2 11 -8 11 -13z m-3351 -12 c22 -3 39 -1 43 6 10
16 72 -48 68 -69 -2 -11 5 -20 18 -23 16 -4 21 -12 18 -29 -2 -13 -8 -22 -13
-22 -6 1 -25 4 -44 8 -31 5 -37 2 -75 -40 -41 -45 -41 -45 -37 -117 1 -40 8
-78 13 -84 15 -19 49 -16 64 5 18 23 17 2 -2 -43 -11 -28 -12 -40 -4 -49 8 -8
18 -4 36 17 21 25 24 26 24 8 0 -11 -6 -24 -14 -28 -7 -4 -19 -18 -25 -31 -10
-19 -15 -21 -27 -11 -18 15 -37 0 -54 -41 -16 -38 -7 -68 15 -50 9 8 13 21 10
31 -8 23 17 26 35 4 10 -12 10 -21 2 -40 -9 -20 -18 -25 -44 -23 -29 3 -33 0
-33 -22 0 -22 5 -25 40 -28 34 -2 43 -8 54 -33 11 -25 11 -33 -3 -55 -19 -28
-14 -44 15 -44 25 0 24 -16 -2 -30 -25 -14 -22 -16 -38 40 -7 25 -16 56 -19
70 -4 14 -20 31 -35 38 l-27 13 0 121 c0 103 -2 119 -15 114 -12 -4 -14 0 -9
18 4 17 0 27 -12 34 -15 9 -17 15 -8 39 8 22 7 33 -5 52 -8 13 -15 35 -16 49
0 20 -8 28 -33 36 -47 16 -58 40 -32 66 19 19 19 22 5 44 -17 26 -11 56 13 56
8 0 32 -18 53 -40 21 -22 40 -40 43 -40 8 0 42 77 38 88 -2 7 -14 12 -27 12
-13 0 -27 5 -30 10 -10 16 5 32 24 25 9 -4 32 -9 52 -12z m3239 13 c0 -3 -4
-8 -10 -11 -5 -3 -10 -1 -10 4 0 6 5 11 10 11 6 0 10 -2 10 -4z m-2286 -46
c20 -1 20 -1 3 -15 -33 -24 -89 13 -65 43 11 12 14 11 26 -7 8 -11 24 -21 36
-21z m1863 23 c2 -6 -4 -13 -13 -17 -21 -8 -26 -3 -18 18 7 18 25 17 31 -1z
m-2367 -43 c5 0 10 -9 10 -20 0 -11 -3 -20 -8 -20 -14 0 -72 71 -66 81 3 6 16
-1 29 -16 13 -14 29 -25 35 -25z m285 41 c11 -2 -28 -51 -40 -51 -17 0 -38 27
-32 42 3 10 46 16 72 9z m465 -1 c13 -8 13 -10 -2 -10 -9 0 -20 5 -23 10 -8
13 5 13 25 0z m1550 -1 c0 -17 -34 -27 -57 -16 -33 15 -28 22 17 23 22 1 40
-2 40 -7z m-150 -14 c20 -24 6 -28 -15 -5 -10 11 -13 20 -8 20 6 0 16 -7 23
-15z m-2015 -5 c-3 -5 -11 -10 -16 -10 -6 0 -7 5 -4 10 3 6 11 10 16 10 6 0 7
-4 4 -10z m577 -69 c-12 -34 -3 -74 21 -88 10 -6 6 -14 -20 -36 -31 -27 -33
-27 -33 -9 0 12 5 24 10 27 16 10 4 148 -15 161 -8 6 -12 14 -8 18 4 4 18 -4
31 -18 22 -21 23 -28 14 -55z m578 64 c-4 -10 -70 -37 -70 -29 0 2 8 13 18 24
17 20 61 24 52 5z m1560 5 c0 -5 -4 -10 -10 -10 -5 0 -10 5 -10 10 0 6 5 10
10 10 6 0 10 -4 10 -10z m-2520 -23 c0 -13 -9 -32 -20 -42 -19 -17 -20 -17
-26 0 -5 11 -1 21 9 27 10 5 17 16 17 23 0 8 5 15 10 15 6 0 10 -11 10 -23z
m747 -4 c-9 -9 -20 -13 -24 -9 -4 4 1 14 11 22 25 18 35 8 13 -13z m-1850 -5
c-3 -8 -6 -5 -6 6 -1 11 2 17 5 13 3 -3 4 -12 1 -19z m1373 18 c0 -11 -19 -15
-25 -6 -3 5 1 10 9 10 9 0 16 -2 16 -4z m1868 -46 c-1 -28 -18 -33 -18 -5 0 8
-8 19 -17 24 -16 9 -16 12 -3 20 21 14 39 -5 38 -39z m-1318 36 c0 -11 -19
-15 -25 -6 -3 5 1 10 9 10 9 0 16 -2 16 -4z m-1080 -16 c0 -5 -4 -10 -10 -10
-5 0 -10 5 -10 10 0 6 5 10 10 10 6 0 10 -4 10 -10z m895 0 c3 -5 1 -10 -4
-10 -6 0 -11 5 -11 10 0 6 2 10 4 10 3 0 8 -4 11 -10z m-1075 -49 c0 -8 15
-28 33 -44 19 -17 25 -26 14 -23 -10 3 -22 6 -27 6 -12 0 -40 59 -40 84 0 17
2 18 10 6 5 -8 10 -21 10 -29z m2175 29 c3 -5 -3 -10 -14 -10 -11 0 -25 -10
-32 -21 -13 -26 -30 -9 -22 22 6 21 57 27 68 9z m164 -20 c20 10 31 4 31 -16
0 -10 -8 -10 -32 -2 -18 5 -41 12 -50 15 -15 4 -18 -1 -18 -28 0 -31 -1 -32
-17 -16 -16 16 -15 18 12 47 28 29 29 29 42 10 11 -15 18 -18 32 -10z m-2012
-6 c-9 -9 -28 6 -21 18 4 6 10 6 17 -1 6 -6 8 -13 4 -17z m2741 -26 c8 -10 12
-18 8 -18 -7 0 -46 19 -54 25 -2 2 3 13 10 24 12 20 13 20 17 4 1 -10 10 -26
19 -35z m-2393 32 c11 -18 -26 -23 -43 -6 -15 15 -14 16 10 16 15 0 30 -5 33
-10z m605 5 c0 -6 -61 -32 -92 -39 -21 -5 -28 -3 -28 8 0 10 14 17 38 21 20 4
42 8 47 10 15 5 35 6 35 0z m-2080 -15 c0 -5 -5 -10 -11 -10 -5 0 -7 5 -4 10
3 6 8 10 11 10 2 0 4 -4 4 -10z m1265 -32 c-8 -36 -20 -55 -27 -41 -6 9 19 73
28 73 3 0 3 -15 -1 -32z m2647 10 c-6 -6 -15 -8 -19 -4 -4 4 -1 11 7 16 19 12
27 3 12 -12z m-4116 -5 c20 -26 17 -35 -6 -21 -11 7 -20 18 -20 25 0 18 10 16
26 -4z m959 -15 c6 -6 0 -8 -19 -6 -16 2 -31 9 -34 17 -3 10 2 11 19 6 13 -4
29 -12 34 -17z m300 12 c4 -6 0 -22 -9 -35 -9 -13 -16 -33 -16 -45 0 -13 -7
-20 -20 -20 -11 0 -39 -18 -62 -41 -46 -45 -65 -36 -28 13 l22 30 -36 37 c-20
21 -34 40 -30 43 3 4 37 4 75 1 58 -5 70 -3 75 11 7 18 20 21 29 6z m1945 4
c0 -4 -8 -13 -17 -20 -17 -13 -17 -15 -1 -27 10 -8 15 -17 11 -20 -11 -11 -33
14 -33 38 0 21 11 32 33 34 4 1 7 -2 7 -5z m-1245 -19 c0 -5 -19 -11 -42 -13
-36 -3 -42 -1 -37 13 5 12 17 15 43 13 20 -2 36 -7 36 -13z m1150 5 c3 -5 1
-10 -4 -10 -6 0 -11 5 -11 10 0 6 2 10 4 10 3 0 8 -4 11 -10z m-2957 -26 c8
-15 9 -32 3 -41 -10 -18 -16 -10 -26 35 -8 38 7 43 23 6z m1610 9 c-2 -10 -12
-19 -23 -20 -11 -2 -14 0 -7 3 6 3 12 12 12 20 0 8 5 14 11 14 6 0 9 -8 7 -17z
m642 -3 c0 -5 -2 -10 -4 -10 -3 0 -8 5 -11 10 -3 6 -1 10 4 10 6 0 11 -4 11
-10z m-1580 -23 c0 -31 9 -38 31 -26 11 5 19 6 19 2 0 -5 -18 -16 -40 -26 -40
-17 -49 -34 -30 -53 7 -7 4 -16 -10 -29 -20 -18 -20 -17 -26 13 -4 18 -13 32
-20 32 -8 0 -15 6 -15 13 -1 6 -3 22 -4 35 -3 29 11 38 18 12 8 -30 21 -24 40
15 19 40 37 46 37 12z m2518 -1 c3 -13 -1 -17 -14 -14 -11 2 -20 11 -22 22 -3
13 1 17 14 14 11 -2 20 -11 22 -22z m-3243 -9 c9 -14 15 -43 14 -68 -1 -24 1
-55 6 -69 l7 -25 -28 28 c-26 26 -27 30 -13 40 15 10 15 14 -2 55 -10 24 -19
48 -19 53 0 17 20 9 35 -14z m161 -26 c14 -23 24 -48 22 -54 -1 -7 6 -30 16
-52 9 -21 15 -46 14 -54 -4 -18 -28 -27 -28 -10 0 28 -43 59 -82 59 -21 0 -38
4 -38 10 0 5 11 35 25 66 14 31 25 63 25 71 0 25 21 9 46 -36z m2239 28 c-8
-12 -55 -12 -55 0 0 10 39 20 53 13 4 -2 5 -8 2 -13z m1535 11 c0 -5 -4 -10
-9 -10 -6 0 -13 5 -16 10 -3 6 1 10 9 10 9 0 16 -4 16 -10z m-1747 -26 c4 -1
12 -2 19 -3 9 -1 9 -4 1 -12 -7 -7 -19 -8 -30 -4 -10 5 -24 7 -30 6 -7 -1 -13
2 -13 8 0 12 22 20 35 12 6 -3 13 -6 18 -7z m657 -9 c0 -8 -4 -15 -10 -15 -5
0 -10 7 -10 15 0 8 5 15 10 15 6 0 10 -7 10 -15z m-2410 -37 c7 -18 15 -36 18
-40 2 -5 -7 -8 -21 -8 -22 0 -24 4 -23 40 1 48 7 50 26 8z m968 20 c5 -7 6
-21 3 -32 -7 -17 -9 -16 -24 7 -9 15 -17 29 -17 32 0 10 28 5 38 -7z m162 2
c0 -5 -5 -10 -11 -10 -5 0 -7 5 -4 10 3 6 8 10 11 10 2 0 4 -4 4 -10z m1615
-77 c-9 -21 -11 -21 -22 -6 -7 9 -13 25 -13 35 0 10 -5 18 -12 18 -6 0 -3 9 7
21 19 20 19 20 35 -13 11 -25 13 -39 5 -55z m-2585 51 c0 -8 -4 -12 -10 -9 -5
3 -10 13 -10 21 0 8 5 12 10 9 6 -3 10 -13 10 -21z m666 -31 c-3 -3 -13 -3
-22 1 -16 6 -15 8 2 21 16 12 19 12 22 -1 2 -9 1 -18 -2 -21z m374 27 c13 -9
12 -12 -4 -25 -26 -20 -36 -19 -36 3 0 31 14 39 40 22z m-2160 -14 c0 -2 -7
-6 -15 -10 -8 -3 -15 -1 -15 4 0 6 7 10 15 10 8 0 15 -2 15 -4z m2034 -31 c-4
-8 -7 -15 -9 -15 -2 0 -5 7 -9 15 -3 9 0 15 9 15 9 0 12 -6 9 -15z m253 0 c7
-20 -2 -29 -21 -22 -9 4 -13 13 -10 22 8 19 23 19 31 0z m513 -34 c0 -5 7 -14
15 -21 21 -17 19 -30 -5 -30 -15 0 -20 7 -20 25 0 14 -9 30 -19 37 -10 6 -17
17 -14 24 3 9 10 7 24 -7 10 -10 19 -23 19 -28z m-2346 -2 c8 -59 19 -94 33
-104 16 -12 8 -41 -14 -49 -21 -8 -83 32 -83 54 0 9 6 23 14 29 7 6 16 30 20
53 11 69 23 75 30 17z m3456 21 c0 -5 -2 -10 -4 -10 -3 0 -8 5 -11 10 -3 6 -1
10 4 10 6 0 11 -4 11 -10z m-2946 -32 c13 -59 12 -98 -2 -98 -8 0 -16 -9 -19
-20 l-6 -21 -14 21 c-8 11 -25 20 -39 20 -13 0 -24 5 -24 10 0 6 8 10 19 10
25 0 41 21 48 64 6 40 30 49 37 14z m1929 8 c23 -17 22 -25 -3 -19 -25 7 -49
33 -29 33 8 0 22 -7 32 -14z m-2018 -10 c17 -12 18 -17 7 -41 l-12 -27 -19 24
c-25 29 -41 15 -34 -30 3 -20 15 -39 29 -49 13 -8 24 -22 24 -29 0 -25 42 -37
86 -25 54 15 63 2 37 -53 -16 -32 -19 -46 -11 -54 8 -8 8 -18 1 -35 -9 -19 -8
-28 4 -40 14 -14 14 -17 -1 -38 -24 -35 -21 -52 9 -45 18 5 23 3 19 -7 -3 -8
-6 -31 -7 -53 -2 -26 -8 -39 -17 -39 -8 0 -15 7 -15 15 0 24 -42 24 -55 1 -9
-18 -20 -21 -70 -21 -60 0 -70 6 -48 28 15 15 4 26 -18 18 -9 -3 -14 -13 -10
-21 7 -20 -12 -29 -30 -14 -12 9 -20 9 -39 -1 -25 -14 -60 -7 -50 10 3 5 17
10 31 10 13 0 24 5 24 11 0 18 -61 87 -83 93 -17 4 -19 8 -10 17 7 7 9 24 6
40 -3 18 -1 29 6 29 12 0 12 49 -1 66 -4 6 -6 27 -4 47 4 29 1 38 -19 51 -13
9 -29 16 -35 16 -12 0 -14 -43 -3 -54 5 -4 9 -44 10 -89 0 -45 3 -100 6 -121
l6 -39 -21 21 c-14 14 -18 26 -13 39 13 31 -6 193 -26 219 -5 6 -3 19 5 30 7
10 17 47 21 82 7 64 18 79 28 40 4 -13 0 -29 -9 -39 -22 -24 -14 -58 19 -82
22 -17 30 -18 40 -8 9 10 8 15 -10 29 -27 21 -22 57 10 66 31 8 38 -2 31 -40
-6 -30 -4 -34 16 -34 12 0 30 -4 40 -10 13 -7 21 -6 30 5 10 12 9 16 -2 20 -8
3 -19 5 -24 4 -26 -5 -24 4 6 26 19 14 35 33 35 43 0 9 16 24 35 34 43 21 51
22 75 4z m-490 -6 c3 -5 1 -10 -4 -10 -6 0 -11 5 -11 10 0 6 2 10 4 10 3 0 8
-4 11 -10z m866 -62 c11 -21 11 -22 -4 -9 -10 7 -17 17 -17 22 0 15 9 10 21
-13z m3189 -18 c0 -5 -2 -10 -4 -10 -3 0 -8 5 -11 10 -3 6 -1 10 4 10 6 0 11
-4 11 -10z m-4040 -90 c12 -22 40 -26 57 -9 6 6 21 9 34 7 l24 -3 -23 -23
c-17 -17 -31 -23 -50 -19 -15 3 -35 1 -45 -4 -15 -9 -17 -7 -12 14 4 14 2 28
-4 31 -6 4 -11 11 -11 17 0 16 19 10 30 -11z m-729 -33 c-8 -8 -11 -5 -11 9 0
27 14 41 18 19 2 -9 -1 -22 -7 -28z m4729 23 c0 -5 -7 -10 -15 -10 -8 0 -15 5
-15 10 0 6 7 10 15 10 8 0 15 -4 15 -10z m-2924 -67 c-10 -10 -19 5 -10 18 6
11 8 11 12 0 2 -7 1 -15 -2 -18z m2979 17 c-3 -5 -12 -7 -20 -3 -21 7 -19 13
6 13 11 0 18 -4 14 -10z m-3949 -29 c-14 -16 -15 -23 -5 -38 9 -16 8 -25 -6
-47 -10 -15 -26 -31 -36 -37 -25 -13 -24 -31 2 -55 18 -16 19 -20 5 -30 -9 -6
-27 -9 -41 -6 -28 5 -44 22 -22 22 21 0 28 26 11 41 -8 7 -20 21 -25 32 -9 16
-8 18 10 12 15 -4 23 -1 28 10 3 10 2 20 -4 24 -5 3 -13 14 -16 25 -5 13 -14
17 -31 14 -25 -5 -64 17 -52 29 4 4 16 2 27 -5 17 -11 25 -11 43 1 12 8 34 13
48 10 16 -3 36 2 49 11 29 20 38 12 15 -13z m3901 -17 c-3 -3 -12 -4 -19 -1
-8 3 -5 6 6 6 11 1 17 -2 13 -5z m-3177 -65 c0 -10 5 -21 10 -24 6 -3 10 -11
10 -17 0 -13 -38 20 -51 45 -6 9 -7 22 -4 28 9 14 35 -9 35 -32z m3280 19 c0
-4 -20 -8 -45 -8 -25 0 -45 4 -45 8 0 5 20 9 45 9 25 0 45 -4 45 -9z m-3488
-30 c-7 -7 -12 -8 -12 -2 0 14 12 26 19 19 2 -3 -1 -11 -7 -17z m3285 -40 c-3
-8 -6 -5 -6 6 -1 11 2 17 5 13 3 -3 4 -12 1 -19z m-3045 -58 c27 -16 29 -20
15 -26 -17 -6 -57 20 -57 38 0 12 6 10 42 -12z m-1557 -40 c-19 -21 -45 -27
-45 -10 0 10 52 41 59 34 2 -2 -4 -13 -14 -24z m863 0 c13 -17 21 -34 17 -40
-8 -13 -145 -13 -145 0 0 6 6 11 13 11 6 1 22 3 34 4 30 3 55 25 49 42 -9 22
8 13 32 -17z m-688 -30 c11 -7 8 -10 -14 -16 -22 -5 -33 -2 -49 16 l-22 22 35
-7 c19 -4 42 -11 50 -15z m-112 -2 c-5 -15 -48 -24 -48 -10 0 14 12 22 33 22
10 0 17 -5 15 -12z m600 2 c38 -1 52 -4 42 -10 -25 -14 -123 -7 -128 9 -3 10
0 12 12 8 10 -4 43 -7 74 -7z m2130 -7 c-10 -2 -28 -2 -40 0 -13 2 -5 4 17 4
22 1 32 -1 23 -4z"/>
<path d="M3454 2416 c-15 -12 -16 -17 -7 -27 10 -10 15 -9 28 1 16 13 21 40 7
40 -5 0 -17 -6 -28 -14z"/>
<path d="M3595 2420 c-3 -5 -15 -10 -26 -10 -10 0 -19 -7 -19 -15 0 -8 7 -15
15 -15 19 0 65 29 65 41 0 12 -27 11 -35 -1z"/>
<path d="M3795 2311 c-7 -12 12 -24 25 -16 11 7 4 25 -10 25 -5 0 -11 -4 -15
-9z"/>
<path d="M3770 2250 c0 -5 8 -10 18 -10 10 0 23 -5 29 -11 8 -8 13 -8 17 0 11
18 -3 31 -35 31 -16 0 -29 -4 -29 -10z"/>
<path d="M310 1205 c-10 -12 -9 -16 5 -21 19 -8 40 9 31 25 -10 15 -21 14 -36
-4z"/>
<path d="M425 1211 c-43 -9 -40 -36 5 -36 39 0 60 11 60 31 0 15 -15 16 -65 5z"/>
<path d="M302 1138 c-18 -18 -15 -28 8 -28 13 0 20 7 20 20 0 23 -10 26 -28 8z"/>
<path d="M215 1120 c-4 -7 -3 -16 3 -22 14 -14 45 -2 40 15 -6 16 -34 21 -43
7z"/>
<path d="M527 1114 c-13 -13 -7 -24 14 -24 11 0 19 5 17 12 -5 14 -22 21 -31
12z"/>
<path d="M264 1078 c-9 -15 27 -41 39 -29 13 13 1 41 -17 41 -8 0 -18 -5 -22
-12z"/>
<path d="M330 1070 c-13 -8 -13 -11 2 -27 21 -20 45 -5 35 21 -7 18 -16 20
-37 6z"/>
<path d="M423 1048 c2 -7 10 -13 17 -13 7 0 15 6 18 13 2 7 -5 12 -18 12 -13
0 -20 -5 -17 -12z"/>
<path d="M515 1030 c-11 -17 5 -32 21 -19 7 6 11 15 8 20 -7 12 -21 11 -29 -1z"/>
<path d="M371 1011 c-8 -5 -10 -14 -7 -20 9 -13 33 -15 40 -2 9 14 -18 31 -33
22z"/>
<path d="M254 979 c-8 -14 14 -29 33 -22 7 3 13 11 13 19 0 17 -36 19 -46 3z"/>
<path d="M320 916 c-19 -23 -5 -50 23 -42 12 3 32 6 45 6 15 0 22 6 22 20 0
14 -7 20 -24 20 -13 0 -31 2 -39 5 -7 3 -20 -1 -27 -9z"/>
<path d="M442 903 c4 -22 43 -25 43 -3 0 8 -11 16 -23 18 -19 3 -23 0 -20 -15z"/>
<path d="M344 818 c-15 -23 -15 -56 0 -61 20 -8 38 17 34 44 -4 26 -23 36 -34
17z"/>
<path d="M457 824 c-14 -14 -7 -35 11 -32 9 2 17 10 17 17 0 16 -18 25 -28 15z"/>
<path d="M445 750 c-3 -6 -16 -8 -29 -4 -29 7 -58 -22 -31 -32 10 -4 25 -2 34
3 12 7 23 8 35 1 22 -12 41 3 33 26 -7 18 -33 21 -42 6z"/>
<path d="M515 721 c-3 -5 -1 -12 5 -16 12 -7 30 2 30 16 0 12 -27 12 -35 0z"/>
<path d="M1366 1461 c-3 -4 6 -18 19 -31 22 -20 25 -21 31 -6 11 29 -34 63
-50 37z"/>
<path d="M1460 1155 c0 -8 5 -15 10 -15 6 0 10 7 10 15 0 8 -4 15 -10 15 -5 0
-10 -7 -10 -15z"/>
<path d="M1052 1048 c-17 -17 -15 -45 3 -52 8 -3 21 4 29 16 25 35 -2 66 -32
36z"/>
<path d="M1226 971 c-9 -14 4 -41 19 -41 7 0 18 -6 25 -14 18 -23 36 -9 37 29
1 34 0 35 -37 35 -22 0 -41 -4 -44 -9z"/>
<path d="M1044 959 c-10 -17 13 -36 27 -22 12 12 4 33 -11 33 -5 0 -12 -5 -16
-11z"/>
<path d="M1144 939 c-9 -15 12 -33 30 -26 9 4 16 13 16 22 0 17 -35 21 -46 4z"/>
<path d="M1054 845 c-8 -20 4 -35 27 -35 14 0 19 7 19 25 0 18 -5 25 -20 25
-11 0 -23 -7 -26 -15z"/>
<path d="M1135 836 c-16 -11 -16 -14 -3 -27 8 -7 13 -21 10 -31 -5 -22 25 -35
41 -19 9 10 8 15 -5 25 -11 8 -13 17 -7 28 13 24 -12 42 -36 24z"/>
<path d="M1203 815 c-3 -9 -3 -18 0 -22 10 -10 37 6 37 22 0 20 -29 20 -37 0z"/>
<path d="M1314 779 c-9 -16 12 -33 31 -25 14 5 15 9 5 21 -15 18 -26 19 -36 4z"/>
<path d="M824 925 c-4 -9 -3 -19 0 -23 9 -8 42 12 39 24 -4 16 -33 16 -39 -1z"/>
<path d="M3581 2786 c-7 -8 -8 -17 -3 -20 6 -3 15 1 21 8 7 8 8 17 3 20 -6 3
-15 -1 -21 -8z"/>
<path d="M3783 2768 c2 -7 12 -13 22 -13 10 0 20 6 23 13 2 7 -6 12 -23 12
-17 0 -25 -5 -22 -12z"/>
<path d="M3260 2755 c0 -8 5 -15 10 -15 6 0 10 7 10 15 0 8 -4 15 -10 15 -5 0
-10 -7 -10 -15z"/>
<path d="M4624 2446 c-3 -8 4 -30 17 -47 l23 -32 -22 -15 c-25 -17 -29 -32 -8
-32 18 0 66 43 66 58 0 6 -8 17 -19 24 -10 7 -20 22 -22 32 -5 25 -27 32 -35
12z"/>
<path d="M4710 2410 c0 -5 7 -10 15 -10 8 0 15 5 15 10 0 6 -7 10 -15 10 -8 0
-15 -4 -15 -10z"/>
<path d="M4793 2408 c-29 -14 -34 -31 -17 -57 22 -31 81 -29 95 3 23 50 -22
81 -78 54z"/>
<path d="M4250 2284 c0 -9 5 -14 12 -12 18 6 21 28 4 28 -9 0 -16 -7 -16 -16z"/>
<path d="M2472 2232 c-37 -31 -40 -47 -11 -62 16 -9 18 -14 8 -26 -9 -11 -9
-18 -1 -26 9 -9 18 -6 37 12 30 28 32 40 5 47 -23 6 -25 16 -6 32 18 15 27 51
13 51 -7 0 -27 -13 -45 -28z"/>
<path d="M853 2183 c-3 -10 -17 -30 -31 -45 l-25 -27 42 -42 42 -42 24 23 c35
33 31 48 -12 52 -26 2 -38 8 -38 18 0 11 9 14 37 12 44 -3 58 13 32 38 -30 28
-63 35 -71 13z"/>
<path d="M362 2138 c-6 -8 -7 -19 -2 -28 5 -8 5 -21 -1 -32 -7 -13 -4 -21 17
-34 24 -16 28 -16 52 -1 37 22 34 41 -8 48 -32 6 -33 7 -12 14 14 5 22 14 20
24 -4 20 -51 27 -66 9z"/>
<path d="M685 2141 c-7 -12 12 -24 25 -16 11 7 4 25 -10 25 -5 0 -11 -4 -15
-9z"/>
<path d="M2515 2089 c-4 -6 -5 -13 -2 -16 7 -7 27 6 27 18 0 12 -17 12 -25 -2z"/>
<path d="M4473 2064 c-8 -21 13 -42 28 -27 13 13 5 43 -11 43 -6 0 -13 -7 -17
-16z"/>
<path d="M735 2059 c-10 -15 3 -25 16 -12 7 7 7 13 1 17 -6 3 -14 1 -17 -5z"/>
<path d="M2244 2045 c-16 -25 -13 -55 6 -55 11 0 30 41 30 66 0 22 -18 17 -36
-11z"/>
<path d="M2500 2035 c-10 -11 -10 -19 -2 -27 15 -15 44 -2 40 19 -4 23 -22 27
-38 8z"/>
<path d="M1587 2028 c-7 -23 4 -45 29 -58 29 -16 43 -6 26 18 -7 9 -15 25 -18
35 -7 20 -30 23 -37 5z"/>
<path d="M2015 2021 c-3 -5 -1 -13 5 -16 6 -4 8 -15 5 -26 -5 -15 -1 -19 17
-19 24 0 48 16 48 32 0 4 -9 8 -20 8 -11 0 -20 7 -20 15 0 16 -25 21 -35 6z"/>
<path d="M1315 1990 c-3 -5 -4 -14 0 -20 8 -13 35 -1 35 16 0 16 -26 19 -35 4z"/>
<path d="M2550 1990 c0 -5 7 -10 15 -10 8 0 15 5 15 10 0 6 -7 10 -15 10 -8 0
-15 -4 -15 -10z"/>
<path d="M1892 1948 c-17 -17 -15 -48 3 -54 16 -6 75 35 71 50 -3 14 -61 17
-74 4z"/>
<path d="M1485 1920 c-8 -13 4 -32 16 -25 12 8 12 35 0 35 -6 0 -13 -4 -16
-10z"/>
<path d="M3385 1520 c-3 -6 1 -13 10 -16 19 -8 30 0 20 15 -8 14 -22 14 -30 1z"/>
<path d="M3680 1486 c0 -9 5 -16 10 -16 6 0 10 4 10 9 0 6 -4 13 -10 16 -5 3
-10 -1 -10 -9z"/>
<path d="M4494 1463 c-3 -10 -10 -30 -16 -45 -9 -24 -3 -100 9 -121 3 -5 13
-1 24 9 13 12 16 21 9 33 -6 11 -4 22 7 33 15 17 14 18 -5 18 -23 0 -32 33
-12 45 13 8 13 45 0 45 -6 0 -13 -8 -16 -17z"/>
<path d="M4497 1272 c-22 -24 -21 -32 2 -32 22 0 45 25 36 40 -9 15 -20 12
-38 -8z"/>
<path d="M4897 1234 c-14 -14 -7 -35 11 -32 9 2 17 10 17 17 0 16 -18 25 -28
15z"/>
<path d="M4488 1219 c-21 -12 -24 -39 -5 -39 17 0 37 20 37 37 0 15 -9 16 -32
2z"/>
<path d="M2455 1190 c-9 -14 1 -27 25 -33 14 -3 23 0 27 10 10 24 -38 46 -52
23z"/>
<path d="M3904 1189 c-8 -14 21 -43 35 -35 19 12 13 46 -8 46 -11 0 -23 -5
-27 -11z"/>
<path d="M4093 1182 c-30 -30 -9 -82 33 -82 24 0 80 72 70 89 -9 14 -86 9
-103 -7z"/>
<path d="M4364 1185 c-4 -9 -2 -21 4 -27 15 -15 44 -1 40 19 -4 23 -36 29 -44
8z"/>
<path d="M1960 1176 c0 -19 23 -36 38 -27 7 4 10 15 6 24 -7 20 -44 23 -44 3z"/>
<path d="M2840 1180 c-8 -5 -29 -10 -47 -10 -17 0 -34 -4 -38 -9 -9 -15 33
-33 58 -25 31 11 71 5 80 -12 9 -16 33 -19 42 -4 10 16 -14 50 -35 50 -10 0
-22 5 -25 10 -8 12 -16 12 -35 0z"/>
<path d="M4014 1175 c-4 -9 -17 -21 -30 -25 -32 -12 -21 -40 16 -40 32 0 48
16 52 50 4 29 -29 41 -38 15z"/>
<path d="M2075 1171 c-6 -5 -21 -11 -34 -13 -29 -4 -41 -28 -13 -28 10 0 22 3
26 7 4 4 19 7 34 8 17 0 28 6 30 18 4 18 -26 24 -43 8z"/>
<path d="M2253 1173 c-21 -7 -15 -33 7 -33 11 0 20 6 20 14 0 18 -11 25 -27
19z"/>
<path d="M2960 1164 c-10 -11 -11 -20 -3 -32 17 -27 38 -20 38 12 0 34 -16 44
-35 20z"/>
<path d="M4650 1170 c-11 -7 -12 -14 -4 -27 15 -24 33 -28 40 -8 9 23 -16 47
-36 35z"/>
<path d="M2530 1146 c0 -15 11 -20 38 -17 6 1 12 -3 12 -9 0 -13 47 -13 56 1
10 17 -8 28 -59 35 -39 6 -47 4 -47 -10z"/>
<path d="M3024 1145 c-8 -21 3 -45 20 -45 18 0 40 36 31 50 -9 15 -45 12 -51
-5z"/>
<path d="M4215 1140 c-8 -25 11 -51 31 -43 20 8 14 57 -8 61 -10 2 -19 -5 -23
-18z"/>
<path d="M4283 1134 c-8 -21 13 -42 28 -27 13 13 5 43 -11 43 -6 0 -13 -7 -17
-16z"/>
<path d="M3963 1081 c-3 -12 -15 -21 -32 -23 -31 -4 -36 -31 -6 -36 11 -2 27
-10 36 -18 9 -8 24 -12 33 -8 18 7 21 29 6 39 -6 4 -10 14 -9 23 3 30 -1 42
-12 42 -6 0 -13 -9 -16 -19z"/>
<path d="M2450 1080 c-13 -9 -13 -11 0 -19 17 -12 30 -5 30 15 0 16 -9 18 -30
4z"/>
<path d="M2715 1080 c-9 -15 4 -30 26 -30 23 0 26 25 3 34 -21 8 -22 8 -29 -4z"/>
<path d="M2961 1076 c-9 -10 -8 -16 4 -26 19 -16 41 1 32 24 -8 20 -21 20 -36
2z"/>
<path d="M3063 1063 c-4 -10 -14 -23 -22 -29 -12 -10 -13 -15 -3 -27 7 -8 10
-22 6 -31 -9 -23 20 -30 49 -11 16 10 34 14 51 9 16 -4 26 -2 26 5 0 6 -6 11
-12 11 -7 0 -26 11 -43 25 -29 24 -29 24 -7 25 34 0 25 34 -11 38 -19 2 -29
-2 -34 -15z"/>
<path d="M4040 1065 c0 -21 30 -31 40 -14 11 17 3 29 -21 29 -10 0 -19 -7 -19
-15z"/>
<path d="M2140 1040 c0 -25 25 -36 45 -20 11 9 18 10 29 1 14 -11 46 -5 46 9
0 19 -29 31 -49 21 -13 -7 -22 -8 -26 -1 -12 19 -45 11 -45 -10z"/>
<path d="M2304 1049 c-9 -15 12 -33 30 -26 9 4 16 13 16 22 0 17 -35 21 -46 4z"/>
<path d="M2645 1050 c-8 -13 20 -24 41 -16 20 8 9 26 -16 26 -10 0 -22 -5 -25
-10z"/>
<path d="M4326 1051 c-9 -15 23 -36 36 -23 5 5 7 15 4 21 -9 13 -33 14 -40 2z"/>
<path d="M1977 1032 c-10 -15 -3 -82 9 -86 7 -3 27 8 44 24 l33 29 -27 10
c-14 6 -26 15 -26 21 0 12 -27 14 -33 2z"/>
<path d="M2891 1030 c-16 -9 -6 -30 15 -30 15 0 20 25 6 34 -4 2 -14 1 -21 -4z"/>
<path d="M1725 1021 c-10 -17 31 -33 44 -17 6 7 8 16 4 19 -10 10 -41 8 -48
-2z"/>
<path d="M4270 1015 c-11 -13 -11 -19 3 -33 20 -19 41 -5 35 24 -4 24 -22 28
-38 9z"/>
<path d="M4175 1010 c-3 -6 -17 -7 -31 -4 -20 5 -26 2 -31 -15 -3 -14 -13 -21
-29 -21 -30 0 -31 -16 -3 -30 16 -9 28 -8 54 4 18 9 43 16 54 16 26 0 38 25
21 45 -14 17 -26 19 -35 5z"/>
<path d="M4345 990 c-8 -12 20 -24 35 -15 6 3 8 11 5 16 -8 12 -32 12 -40 -1z"/>
<path d="M3877 984 c-4 -4 -7 -15 -7 -24 0 -24 -30 -49 -68 -56 -44 -9 -60
-30 -39 -51 16 -16 19 -15 46 5 26 19 30 19 35 5 5 -12 16 -14 46 -10 28 3 40
1 44 -9 3 -8 12 -14 20 -14 9 0 13 -6 10 -14 -3 -9 7 -21 26 -32 29 -17 29
-20 13 -32 -17 -13 -17 -14 1 -27 14 -10 24 -11 38 -4 14 7 23 7 33 -1 18 -15
55 -3 55 17 0 12 -8 15 -39 10 -47 -6 -75 8 -48 24 9 5 17 19 17 29 0 10 5 22
10 25 6 3 10 11 10 17 0 10 -41 7 -70 -6 -12 -5 -16 0 -15 21 0 25 -3 28 -30
26 -16 -1 -41 1 -54 3 -22 5 -23 6 -8 21 13 13 19 14 31 4 21 -18 60 -10 64
13 4 16 0 18 -28 13 -33 -7 -55 6 -55 33 0 16 -26 25 -38 14z"/>
<path d="M2744 959 c-9 -15 36 -50 60 -46 32 4 29 24 -5 41 -38 19 -46 20 -55
5z"/>
<path d="M2854 948 c-9 -15 27 -41 39 -29 13 13 1 41 -17 41 -8 0 -18 -5 -22
-12z"/>
<path d="M1702 918 c-17 -17 -15 -38 6 -45 9 -4 22 -14 29 -22 9 -13 16 -14
30 -5 25 15 23 38 -3 42 -12 2 -24 12 -27 23 -6 22 -18 24 -35 7z"/>
<path d="M3125 920 c-3 -5 -4 -14 0 -20 8 -13 35 -1 35 16 0 16 -26 19 -35 4z"/>
<path d="M4207 917 c-8 -21 8 -39 29 -35 27 5 25 42 -2 46 -12 2 -24 -3 -27
-11z"/>
<path d="M2510 910 c-8 -5 -25 -7 -36 -4 -24 6 -42 -12 -27 -27 14 -14 93 1
93 17 0 18 -13 24 -30 14z"/>
<path d="M2874 896 c-15 -12 -17 -17 -6 -27 10 -11 15 -10 29 4 24 23 4 43
-23 23z"/>
<path d="M3697 904 c-16 -16 -6 -35 16 -32 12 2 22 10 22 18 0 16 -26 25 -38
14z"/>
<path d="M4403 894 c-3 -8 -1 -20 5 -26 16 -16 42 -2 42 22 0 24 -38 28 -47 4z"/>
<path d="M2124 889 c-9 -16 20 -41 39 -33 21 8 22 30 1 38 -23 9 -32 7 -40 -5z"/>
<path d="M2577 893 c-16 -15 -6 -34 15 -31 29 4 38 38 10 38 -10 0 -22 -3 -25
-7z"/>
<path d="M2245 880 c-4 -7 -3 -16 3 -22 14 -14 47 -6 47 12 0 18 -40 26 -50
10z"/>
<path d="M3031 881 c-8 -5 -11 -16 -8 -24 5 -13 12 -14 39 -6 18 5 34 9 35 9
2 0 3 7 3 15 0 17 -46 21 -69 6z"/>
<path d="M2030 865 c-10 -12 -9 -16 4 -21 18 -7 49 13 40 27 -8 14 -30 11 -44
-6z"/>
<path d="M4111 871 c-12 -8 -12 -12 -2 -25 16 -19 51 -21 51 -3 0 13 -19 37
-29 37 -4 0 -12 -4 -20 -9z"/>
<path d="M4190 870 c-11 -7 -11 -11 -1 -24 18 -22 41 -20 41 3 0 22 -21 33
-40 21z"/>
<path d="M4335 870 c-4 -7 -3 -16 3 -22 14 -14 45 -2 40 15 -6 16 -34 21 -43
7z"/>
<path d="M4255 860 c-4 -7 -3 -16 3 -22 14 -14 47 -6 47 12 0 18 -40 26 -50
10z"/>
<path d="M3138 853 c-29 -7 -20 -23 13 -23 19 0 29 4 27 12 -5 14 -17 17 -40
11z"/>
<path d="M2510 837 c0 -19 10 -27 26 -20 21 8 17 33 -6 33 -11 0 -20 -6 -20
-13z"/>
<path d="M1837 813 c-7 -16 -12 -36 -10 -45 3 -10 0 -18 -4 -18 -5 0 -18 -6
-29 -14 -18 -14 -18 -15 10 -26 46 -17 63 -6 63 43 0 23 3 52 7 65 11 33 -20
29 -37 -5z"/>
<path d="M2274 819 c-6 -10 11 -29 26 -29 3 0 11 4 19 9 17 11 5 31 -19 31
-10 0 -22 -5 -26 -11z"/>
<path d="M2784 795 c-8 -19 12 -36 33 -28 19 7 12 37 -10 41 -9 2 -20 -4 -23
-13z"/>
<path d="M3045 791 c4 -14 2 -23 -9 -27 -26 -10 -19 -20 24 -34 30 -10 46 -10
64 -2 14 6 56 8 106 5 61 -5 81 -3 76 5 -4 7 -25 12 -46 12 -28 0 -42 5 -49
19 -7 12 -27 20 -62 25 -29 4 -65 10 -82 13 -26 5 -29 4 -22 -16z"/>
<path d="M3810 795 c0 -10 7 -15 18 -13 21 4 19 22 -2 26 -10 2 -16 -3 -16
-13z"/>
<path d="M2854 789 c-3 -6 -1 -16 4 -21 13 -13 45 8 36 23 -7 12 -31 11 -40
-2z"/>
<path d="M2915 790 c-9 -15 3 -30 24 -30 21 0 44 23 34 33 -10 11 -51 8 -58
-3z"/>
<path d="M2076 771 c-9 -14 29 -55 42 -47 7 4 12 18 12 32 0 19 -5 24 -24 24
-14 0 -27 -4 -30 -9z"/>
<path d="M3885 770 c-3 -5 -17 -10 -31 -10 -14 0 -24 -6 -24 -14 0 -21 38 -30
56 -15 13 11 18 10 25 -4 11 -18 44 -23 54 -7 3 5 -2 21 -11 35 -17 25 -57 34
-69 15z"/>
<path d="M4290 765 c-27 -33 47 -56 75 -25 22 24 18 30 -28 36 -23 2 -39 -1
-47 -11z"/>
<path d="M2453 753 c-7 -2 -13 -11 -13 -18 0 -18 21 -24 43 -13 15 7 16 12 6
24 -12 15 -16 16 -36 7z"/>
<path d="M2515 750 c-4 -7 -3 -16 3 -22 14 -14 47 -6 47 12 0 18 -40 26 -50
10z"/>
<path d="M2614 749 c-9 -15 12 -33 30 -26 9 4 16 13 16 22 0 17 -35 21 -46 4z"/>
<path d="M4839 744 c-15 -19 8 -48 30 -38 9 3 22 7 29 8 7 1 17 7 24 14 9 9 8
12 -3 16 -38 12 -70 12 -80 0z"/>
<path d="M2155 740 c-4 -7 -3 -16 3 -22 14 -14 45 -2 40 15 -6 16 -34 21 -43
7z"/>
<path d="M2292 739 c-13 -5 -21 -13 -18 -18 10 -16 45 -19 62 -6 17 12 16 13
-2 23 -11 6 -28 6 -42 1z"/>
<path d="M909 548 c-14 -11 -15 -25 -8 -88 11 -109 11 -238 -2 -262 -6 -11 -9
-21 -7 -22 2 -2 67 -6 146 -10 125 -5 142 -4 142 9 0 9 10 29 22 45 32 44 12
58 -36 25 -32 -22 -48 -25 -95 -23 l-56 3 -3 59 c-2 32 0 66 3 75 6 14 9 13
26 -8 26 -32 49 -13 49 40 0 46 -17 60 -41 31 -30 -37 -40 -27 -37 36 3 51 5
57 27 60 46 7 91 -7 91 -28 0 -26 36 -26 50 -1 12 24 12 32 1 49 -12 20 -250
28 -272 10z"/>
<path d="M4729 550 c-42 -7 -104 -44 -113 -66 -13 -34 -5 -67 25 -96 27 -28
34 -30 74 -25 61 9 95 -20 102 -84 7 -58 -13 -81 -66 -77 -33 3 -36 6 -41 37
-7 45 -35 64 -56 37 -8 -11 -14 -31 -14 -45 -1 -14 -7 -37 -15 -51 -22 -38
-18 -42 25 -35 23 4 63 2 90 -5 45 -11 53 -10 82 8 l31 20 17 -20 c13 -16 23
-19 44 -14 32 8 43 30 25 52 -12 15 -23 15 -64 -2 -19 -8 -19 -7 -4 16 38 60
34 132 -11 180 -23 25 -36 30 -73 30 -59 0 -95 27 -78 58 15 29 72 30 112 1
35 -25 49 -18 49 24 0 30 -3 33 -53 47 -30 9 -67 13 -88 10z"/>
<path d="M178 543 c-37 -6 -36 -20 2 -28 17 -4 30 -8 30 -11 0 -2 -15 -41 -34
-86 -18 -46 -41 -108 -51 -138 -9 -31 -28 -64 -42 -76 -14 -12 -22 -27 -19
-33 8 -13 112 -15 120 -2 3 4 -5 18 -18 30 l-23 22 22 62 21 62 62 -1 c34 0
65 -3 68 -7 3 -3 13 -43 23 -89 l17 -83 62 -3 c73 -3 83 13 28 47 -31 19 -35
28 -45 89 -7 37 -16 81 -21 97 -17 56 -21 107 -9 122 7 7 9 17 5 20 -8 8 -155
12 -198 6z m118 -94 c7 -29 10 -57 8 -61 -7 -11 -82 -10 -88 1 -3 4 2 28 11
52 33 87 51 89 69 8z"/>
<path d="M628 541 c-48 -10 -114 -54 -137 -92 -10 -17 -22 -53 -25 -82 -6 -44
-3 -58 21 -106 23 -44 37 -59 76 -79 62 -30 138 -33 191 -6 84 41 73 84 -13
54 -49 -16 -57 -17 -98 -3 -94 32 -133 144 -76 219 37 49 75 67 124 59 37 -7
40 -9 34 -34 -8 -38 16 -58 50 -43 50 23 36 110 -17 110 -13 0 -39 2 -58 5
-19 3 -52 2 -72 -2z"/>
<path d="M1715 541 c-3 -5 5 -17 17 -26 22 -15 23 -22 24 -166 2 -122 -1 -153
-13 -165 -25 -25 -3 -35 58 -27 l54 8 -5 35 c-2 19 -4 60 -5 90 0 60 -6 55
100 80 50 11 92 42 95 70 7 49 -1 71 -32 90 -28 17 -51 20 -160 20 -70 0 -129
-4 -133 -9z m236 -31 c14 -8 19 -21 19 -50 0 -49 -30 -73 -87 -68 l-38 3 0 55
0 55 40 6 c22 3 41 7 43 8 2 0 12 -4 23 -9z"/>
<path d="M2103 540 c-28 -12 -29 -26 -3 -33 19 -5 20 -14 22 -134 1 -158 -1
-186 -15 -195 -31 -19 16 -26 134 -21 125 6 125 6 142 34 8 16 12 31 7 34 -12
8 -38 -4 -44 -21 -4 -10 -23 -14 -70 -14 l-64 0 -4 40 c-2 22 -2 58 0 80 3 33
8 40 25 40 11 0 31 -9 43 -21 30 -28 44 -17 44 36 0 55 -16 66 -44 30 -17 -21
-27 -26 -44 -21 -20 7 -22 14 -22 72 l0 64 43 0 c30 0 52 -7 67 -20 17 -15 26
-17 37 -9 18 16 17 56 -3 63 -24 9 -226 6 -251 -4z"/>
<path d="M2763 543 c-47 -4 -52 -10 -27 -27 12 -10 17 -38 21 -134 4 -85 2
-122 -5 -122 -6 0 -29 27 -52 59 -22 33 -45 63 -51 66 -19 13 -79 114 -79 135
0 18 -6 20 -55 20 -53 0 -70 -11 -41 -27 11 -6 15 -44 17 -166 4 -142 2 -160
-13 -171 -28 -21 -22 -26 30 -26 50 0 82 12 63 24 -12 8 -14 69 -5 140 6 39 9
44 21 34 8 -6 23 -28 34 -47 30 -56 121 -149 149 -153 l25 -3 6 155 c7 164 13
198 38 217 14 11 14 14 1 23 -8 5 -19 9 -25 8 -5 -1 -29 -3 -52 -5z"/>
<path d="M2914 540 c-24 -4 -29 -10 -29 -34 0 -34 16 -43 38 -21 18 17 82 20
93 4 11 -18 6 -301 -6 -313 -21 -21 -8 -26 59 -26 76 0 93 11 64 42 -16 17
-18 38 -18 162 l0 141 44 3 c37 3 48 -1 62 -20 22 -29 42 -14 37 28 l-3 29
-156 5 c-86 3 -169 3 -185 0z"/>
<path d="M3344 535 c-18 -14 -18 -15 4 -21 27 -8 25 -27 -7 -99 -21 -46 -62
-145 -81 -193 -7 -18 -26 -40 -42 -48 -41 -21 -27 -32 34 -26 63 5 67 8 43 26
-17 12 -17 15 -2 42 9 16 25 50 35 75 l20 46 75 2 c50 1 77 -3 84 -11 11 -14
47 -126 46 -143 0 -5 -4 -18 -8 -27 -6 -16 0 -18 56 -18 35 0 71 5 79 10 13 8
11 13 -11 32 -27 24 -52 72 -65 123 -3 17 -17 63 -30 104 -13 40 -24 84 -24
97 0 32 -13 37 -105 40 -60 3 -87 -1 -101 -11z m120 -52 c7 -16 17 -47 20 -69
7 -37 5 -42 -16 -48 -43 -11 -88 -7 -95 10 -7 20 46 134 64 134 7 0 19 -12 27
-27z"/>
<path d="M3804 539 c-77 -18 -154 -105 -154 -173 0 -57 23 -129 52 -161 30
-35 107 -65 167 -65 39 0 81 19 81 38 0 10 -5 12 -17 6 -29 -14 -101 -8 -129
11 -33 22 -53 70 -56 137 -4 95 73 190 139 173 22 -5 24 -10 19 -39 -7 -39 14
-67 37 -47 16 13 40 88 33 100 -3 5 -22 11 -43 14 -21 4 -49 9 -63 11 -14 3
-43 0 -66 -5z"/>
<path d="M4025 545 c-6 -3 -9 -79 -8 -202 l2 -198 113 -3 c62 -1 118 1 123 5
12 9 45 71 45 84 0 19 -32 8 -58 -20 -21 -23 -37 -30 -74 -32 -26 -2 -50 0
-54 3 -3 4 -7 77 -9 163 l-3 156 24 9 c28 11 32 30 7 31 -10 0 -36 2 -58 4
-22 2 -44 2 -50 0z"/>
<path d="M4301 536 c-13 -16 -4 -26 22 -26 19 0 19 -5 12 -162 -4 -90 -12
-169 -17 -175 -6 -7 -8 -19 -5 -27 5 -12 26 -13 114 -9 59 3 116 10 126 15 24
13 52 77 39 90 -14 14 -31 2 -42 -28 -8 -21 -16 -24 -64 -24 -30 0 -57 3 -59
8 -3 4 -6 38 -8 77 -4 62 -2 70 15 73 11 2 25 -4 32 -13 22 -30 44 -11 44 39
0 52 -17 69 -38 38 -8 -13 -25 -22 -39 -22 -24 0 -24 2 -20 61 4 70 19 85 72
75 22 -4 35 -13 38 -27 9 -33 42 -20 42 16 l0 30 -127 2 c-92 1 -130 -2 -137
-11z"/>
<path d="M1462 388 c-39 -20 -37 -48 12 -143 58 -112 60 -143 9 -190 -29 -26
-33 -35 -20 -35 29 0 85 27 95 47 20 38 23 97 7 137 -18 42 -14 56 9 37 19
-16 36 -6 36 20 0 34 -19 59 -45 59 -20 0 -25 -5 -25 -25 0 -34 -16 -31 -40 8
-25 40 -22 63 9 59 17 -1 22 2 19 15 -4 21 -34 26 -66 11z"/>
<path d="M1339 265 c-35 -19 -43 -51 -18 -76 36 -36 129 -15 129 29 0 53 -56
77 -111 47z m51 -40 c0 -8 -4 -15 -9 -15 -13 0 -22 16 -14 24 11 11 23 6 23
-9z"/>
</g>
</svg>
