<?xml version="1.0" standalone="no"?>
<!DOCTYPE svg PUBLIC "-//W3C//DTD SVG 20010904//EN"
 "http://www.w3.org/TR/2001/REC-SVG-20010904/DTD/svg10.dtd">
<svg version="1.0" xmlns="http://www.w3.org/2000/svg"
 width="500.000000pt" height="878.000000pt" viewBox="0 0 500.000000 878.000000"
 preserveAspectRatio="xMidYMid meet">
<metadata>
Created by potrace 1.15, written by Peter Selinger 2001-2017
</metadata>
<g transform="translate(0.000000,878.000000) scale(0.100000,-0.100000)"
fill="#000000" stroke="none">
<path d="M2417 8632 c-24 -3 -28 -7 -25 -30 2 -22 7 -26 27 -24 13 2 34 1 47
-2 22 -6 24 -12 24 -60 0 -29 -3 -74 -6 -100 l-7 -46 -53 0 c-50 0 -54 -2 -54
-24 0 -31 30 -36 236 -36 133 0 164 3 174 15 19 22 3 34 -59 44 -28 4 -55 11
-59 15 -12 13 -2 180 11 188 7 4 31 8 55 8 47 0 64 19 41 46 -11 13 -37 15
-168 12 -86 -2 -169 -4 -184 -6z m180 -64 c14 -17 7 -166 -8 -184 -34 -42 -63
9 -57 102 5 80 36 119 65 82z"/>
<path d="M2830 7311 c-84 -26 -128 -61 -204 -161 -42 -55 -89 -120 -104 -144
-31 -49 -83 -123 -106 -148 -18 -20 -106 -172 -106 -183 0 -4 -32 -43 -72 -87
-77 -86 -163 -148 -204 -148 -34 0 -78 -24 -96 -52 -28 -44 -30 -77 -7 -114
l21 -34 -31 -35 c-33 -38 -40 -80 -20 -117 9 -16 8 -24 -5 -36 -14 -14 -18
-14 -41 8 -22 21 -25 21 -31 6 -4 -10 1 -25 14 -39 24 -26 25 -92 2 -92 -10 0
-14 9 -13 28 2 30 -17 36 -37 12 -16 -20 -5 -62 20 -75 11 -6 20 -20 20 -31 0
-20 4 -23 53 -33 22 -5 27 -3 27 13 0 31 18 34 22 4 2 -19 12 -32 31 -41 36
-18 34 -39 -7 -58 -35 -17 -86 -86 -86 -116 0 -34 -28 -73 -68 -96 -66 -37
-72 -33 -142 86 -97 164 -128 204 -305 390 -88 93 -277 237 -375 287 -60 30
-206 70 -308 85 -145 20 -307 -16 -423 -93 -96 -64 -199 -207 -235 -326 -19
-64 -19 -279 1 -356 57 -223 173 -397 355 -534 83 -62 284 -174 404 -224 39
-16 73 -32 76 -34 3 -3 5 -77 5 -166 0 -147 2 -166 22 -202 11 -22 35 -48 51
-58 18 -10 39 -37 52 -65 51 -109 103 -208 118 -226 10 -10 36 -29 60 -43 36
-21 61 -26 164 -33 67 -4 136 -4 152 1 17 5 45 9 62 9 60 0 93 20 135 81 21
32 42 72 45 89 4 16 10 30 13 30 4 0 15 -22 25 -49 9 -27 28 -64 42 -82 37
-50 29 -115 -20 -169 -37 -40 -112 -189 -139 -275 -50 -159 -67 -232 -86 -365
-18 -131 -28 -166 -53 -202 -10 -15 -8 -27 17 -72 29 -54 29 -56 12 -85 -21
-36 -21 -38 1 -50 13 -7 27 -6 47 5 22 11 35 12 55 4 20 -8 33 -7 56 5 26 14
30 13 42 -2 6 -9 12 -28 12 -43 0 -64 140 -358 206 -432 32 -36 94 -157 150
-291 14 -34 34 -80 45 -103 10 -22 19 -53 19 -68 0 -15 8 -56 17 -90 9 -35 14
-70 10 -79 -3 -9 -40 -31 -81 -50 -41 -19 -95 -49 -121 -67 -64 -44 -191 -106
-274 -135 -61 -20 -78 -22 -140 -14 -80 10 -165 35 -181 54 -13 15 3 29 43 39
41 10 23 26 -29 26 -40 0 -44 2 -44 24 0 23 33 106 71 178 19 36 18 65 -2 53
-8 -6 -37 -64 -81 -164 -13 -31 -22 -41 -29 -34 -7 7 -1 29 20 71 17 34 31 70
31 80 0 23 -19 42 -42 42 -22 0 -23 13 -3 30 8 7 15 23 15 37 0 13 6 39 14 58
8 18 12 36 9 39 -9 9 -33 -14 -33 -31 0 -8 -6 -29 -14 -46 -8 -18 -16 -40 -20
-49 -3 -10 -13 -18 -22 -18 -16 0 -16 1 3 64 10 32 -15 9 -37 -34 -16 -31 -24
-37 -41 -33 -16 5 -29 -3 -54 -33 -31 -37 -32 -41 -19 -66 13 -25 13 -28 -1
-28 -9 0 -25 5 -36 11 -91 48 -329 60 -429 21 -30 -12 -77 -38 -105 -57 -222
-157 -304 -192 -487 -210 -51 -5 -68 -10 -68 -22 0 -13 11 -14 73 -8 130 12
178 24 255 67 74 40 107 61 250 158 82 55 135 70 251 70 146 0 289 -48 356
-120 35 -38 197 -160 240 -182 94 -47 281 -49 397 -5 37 14 111 56 165 93 74
51 109 69 143 73 36 5 46 10 48 28 3 17 -3 22 -25 25 l-28 3 32 18 c18 9 34
17 37 17 2 0 21 -33 42 -72 20 -40 48 -91 62 -113 41 -65 121 -228 116 -237
-8 -13 -32 -9 -66 12 -38 23 -92 25 -128 5 -16 -9 -54 -14 -105 -14 l-80 0 35
16 c19 8 42 19 50 24 8 4 33 18 55 30 22 13 60 25 85 28 31 4 45 11 45 21 0
24 -96 17 -141 -9 -20 -12 -64 -33 -98 -47 -73 -31 -72 -30 -57 -47 9 -12 -13
-15 -141 -20 -131 -6 -550 -10 -700 -8 -40 1 -47 4 -50 22 -2 17 -16 25 -68
39 -36 10 -90 26 -120 34 -66 20 -120 14 -210 -21 -36 -15 -72 -26 -80 -26 -8
0 -22 -6 -32 -14 -11 -10 -36 -14 -75 -13 -32 1 -165 1 -295 1 -237 -1 -238
-1 -238 -23 0 -21 1 -21 165 -14 186 8 703 9 715 1 31 -19 190 -27 515 -24
788 8 1020 5 1020 -11 0 -13 -23 -15 -160 -12 -112 2 -155 -1 -143 -8 9 -5 84
-12 168 -14 83 -2 154 -6 156 -9 3 -2 9 -29 13 -58 7 -40 5 -61 -5 -81 -8 -15
-14 -40 -14 -55 0 -16 -11 -44 -23 -63 -13 -19 -28 -48 -34 -64 -6 -20 -32
-45 -77 -77 -38 -26 -86 -69 -108 -95 -38 -46 -118 -191 -118 -214 0 -19 87
-10 221 24 231 59 270 80 356 194 14 19 41 35 77 46 35 11 65 29 81 47 33 40
31 46 -61 294 -9 22 -20 44 -25 50 -5 5 -9 17 -9 27 0 16 11 18 104 18 56 0
130 3 163 6 l61 7 98 -100 c120 -121 142 -131 329 -143 71 -4 133 -6 137 -4
36 23 -48 161 -120 198 -47 24 -81 69 -127 171 -10 22 -22 48 -26 57 -5 10 -9
24 -9 32 0 7 -7 19 -15 26 -28 23 -16 37 38 43 80 10 141 35 189 76 24 21 51
42 60 47 9 5 43 33 75 62 110 100 239 201 279 216 93 37 187 54 251 45 62 -9
128 -30 173 -58 123 -73 200 -140 278 -238 21 -27 55 -53 99 -75 58 -28 80
-34 155 -36 l88 -4 0 -57 0 -57 -73 7 c-123 12 -308 110 -412 219 -74 77 -206
153 -304 175 -49 11 -151 -14 -246 -60 -77 -37 -105 -58 -195 -148 -133 -131
-230 -191 -325 -202 -64 -7 -89 -20 -65 -35 14 -8 74 -3 132 11 61 16 207 121
301 218 76 78 100 96 181 135 123 59 169 65 265 32 84 -28 144 -67 245 -157
92 -82 219 -163 294 -188 33 -12 92 -24 131 -27 l71 -7 0 -43 0 -44 -155 5
c-85 3 -163 9 -173 14 -9 5 -56 19 -103 30 -51 12 -115 37 -160 61 -155 86
-178 94 -254 92 -97 -3 -157 -25 -248 -93 -42 -32 -96 -64 -118 -71 -23 -6
-43 -18 -46 -25 -6 -14 -163 -19 -163 -5 0 16 25 32 51 32 39 0 135 69 206
149 69 76 177 149 256 170 105 30 233 -24 346 -145 59 -63 83 -81 156 -115 93
-43 187 -69 248 -69 63 0 39 24 -31 32 -33 4 -91 20 -129 36 -37 16 -78 33
-91 37 -13 4 -62 46 -110 94 -158 158 -287 201 -440 147 -54 -19 -168 -96
-212 -142 -70 -74 -88 -90 -130 -119 -23 -16 -72 -39 -108 -51 -46 -16 -68
-29 -74 -44 -4 -11 -13 -20 -20 -19 -7 1 -30 1 -51 0 -31 -1 -38 -5 -35 -18 3
-16 22 -17 223 -14 121 2 283 4 360 3 599 -1 936 -4 968 -9 53 -8 49 -33 -5
-34 -24 0 -371 -2 -772 -5 -401 -2 -731 -6 -733 -8 -23 -22 40 -25 485 -22
262 2 611 5 775 5 l297 1 0 178 0 179 -57 -3 c-64 -4 -150 16 -200 47 -17 11
-92 87 -167 168 -142 157 -189 192 -302 231 -31 11 -81 20 -111 20 -54 0 -54
0 -73 43 -25 54 -25 57 4 99 18 28 24 52 28 124 6 109 18 135 57 132 28 -2 67
19 56 30 -3 3 -23 6 -44 6 -22 1 -43 5 -47 9 -22 21 -40 1 -50 -53 -3 -14 -12
-31 -22 -38 -14 -11 -21 -8 -47 22 -37 42 -87 68 -123 64 -37 -4 -35 -31 3
-38 75 -16 105 -50 115 -132 4 -35 5 -68 3 -75 -7 -18 -76 -42 -106 -36 -16 3
-27 12 -27 22 0 9 -9 35 -21 56 -11 22 -22 48 -22 59 -2 15 -13 19 -72 23 -38
2 -74 9 -79 14 -18 17 -50 9 -78 -18 -35 -34 -37 -15 -2 26 27 33 74 43 74 17
0 -28 16 -24 89 25 41 26 78 50 84 52 6 2 8 11 4 21 -6 16 -9 16 -29 2 -33
-23 -43 -20 -57 20 -15 41 -2 69 21 46 7 -7 15 -12 18 -12 7 0 100 87 100 95
0 14 -42 2 -67 -19 -20 -17 -37 -23 -55 -19 -14 3 -29 0 -32 -6 -4 -6 -16 -11
-27 -11 -28 0 -25 -45 6 -82 14 -16 25 -38 25 -49 0 -23 -44 -36 -64 -20 -8 7
-25 11 -38 9 -29 -4 -36 13 -11 27 10 6 20 12 23 13 3 2 -8 14 -24 27 l-28 22
16 55 c18 63 15 78 -39 188 -56 115 -93 182 -125 221 -21 26 -26 39 -19 52 6
11 6 24 -1 36 -8 16 -5 23 25 41 63 39 55 95 -16 106 -30 5 -47 16 -66 41 -26
34 -79 63 -113 63 -10 0 -28 12 -40 28 -42 55 -91 134 -88 142 2 5 55 -14 118
-42 296 -130 386 -156 560 -165 158 -8 321 40 484 142 92 57 149 118 200 215
52 101 64 138 86 265 24 142 12 244 -52 418 -81 223 -171 323 -383 430 -120
60 -260 107 -370 124 -102 16 -436 43 -462 38 -10 -2 -52 -6 -94 -9 l-76 -6
-36 58 c-20 32 -45 82 -57 112 -11 29 -30 66 -41 81 -10 15 -24 51 -29 81 -16
82 -16 83 -98 147 -94 76 -143 92 -289 98 -67 3 -116 10 -122 17 -5 6 -6 48
-2 96 l6 85 43 -3 c37 -3 47 1 71 27 16 17 31 44 35 61 11 57 40 104 95 156
l55 51 1 124 c0 122 1 125 36 199 44 90 75 157 124 270 20 47 57 127 81 178
46 99 66 199 68 349 1 84 -13 109 -88 161 -42 28 -56 32 -110 31 -33 0 -72 -4
-86 -8z m-845 -941 c-10 -11 -20 -18 -23 -15 -7 6 18 35 31 35 5 0 2 -9 -8
-20z m-1247 -20 c134 -27 203 -52 291 -107 102 -63 236 -166 290 -222 48 -49
180 -204 222 -261 40 -55 139 -226 139 -242 0 -8 -12 -20 -26 -27 -30 -13 -14
-29 -159 160 -133 173 -225 278 -291 334 -32 27 -61 52 -64 55 -23 27 -134
107 -170 124 -25 12 -61 33 -80 47 -85 65 -215 108 -321 109 -107 0 -255 -68
-340 -157 -127 -133 -168 -270 -134 -450 20 -107 66 -217 130 -309 57 -83 231
-254 300 -296 28 -16 79 -47 115 -69 87 -52 296 -118 485 -154 326 -60 280
-53 625 -99 107 -15 201 -28 208 -31 7 -2 17 -15 22 -27 6 -13 15 -31 22 -40
17 -23 10 -27 -53 -30 -114 -5 -355 24 -519 63 -69 17 -174 41 -235 55 -60 13
-126 29 -145 34 -19 6 -67 17 -105 25 -61 12 -192 61 -251 93 -10 6 -62 32
-113 57 -109 54 -190 104 -241 149 -140 124 -232 255 -283 404 -26 75 -31 106
-35 222 -5 166 9 232 71 329 60 92 101 136 170 183 53 36 160 79 227 91 60 11
159 6 248 -13z m-53 -94 c194 -51 325 -202 351 -403 13 -105 -34 -257 -103
-329 -35 -37 -117 -104 -127 -104 -5 0 -20 -8 -34 -18 -27 -19 -74 -24 -238
-26 -63 -1 -79 4 -147 37 -137 68 -224 185 -249 334 -31 189 72 390 244 476
89 45 210 58 303 33z m1614 -53 c-18 -52 -25 -59 -38 -35 -10 20 -6 36 23 80
17 28 28 -5 15 -45z m104 -27 c-2 -31 1 -38 24 -47 21 -8 31 -5 58 16 38 28
47 22 62 -35 7 -25 16 -36 31 -38 30 -5 40 -28 34 -80 l-4 -44 -27 33 c-51 61
-102 18 -120 -101 -6 -45 -7 -45 -44 -42 -37 4 -46 -5 -26 -25 7 -7 0 -12 -25
-17 -34 -7 -35 -8 -33 -49 5 -73 29 -85 81 -42 26 21 28 27 19 48 -11 23 -9
25 17 30 19 4 31 15 38 36 8 24 17 30 44 33 29 3 33 7 36 36 2 20 9 32 18 32
23 0 16 -33 -15 -70 -15 -19 -36 -50 -45 -68 -31 -60 -87 -127 -123 -145 -34
-18 -38 -18 -79 -2 -25 9 -60 33 -78 52 -23 25 -39 34 -51 30 -14 -6 -11 -14
21 -53 21 -25 51 -52 68 -61 60 -31 59 -40 -6 -109 -57 -61 -62 -60 -87 12
-21 59 -49 81 -126 95 -33 7 -63 15 -67 18 -14 12 35 277 56 300 11 12 13 20
5 28 -6 6 -9 23 -7 39 l4 29 12 -27 c13 -32 32 -29 57 8 8 13 25 24 36 24 12
0 27 12 37 29 14 24 21 29 43 24 22 -4 31 0 46 23 10 15 23 42 28 58 7 23 17
32 38 34 16 2 27 9 27 18 0 9 6 14 13 11 7 -2 11 -19 10 -41z m-473 -26 c0 -5
-5 -10 -11 -10 -5 0 -7 5 -4 10 3 6 8 10 11 10 2 0 4 -4 4 -10z m300 -18 c0
-13 -12 -22 -22 -16 -10 6 -1 24 13 24 5 0 9 -4 9 -8z m-110 -31 c0 -6 -4 -13
-10 -16 -5 -3 -10 1 -10 9 0 9 5 16 10 16 6 0 10 -4 10 -9z m-1020 -76 c79
-63 151 -134 206 -200 75 -93 236 -309 247 -332 12 -27 3 -40 -67 -95 -49 -39
-91 -90 -119 -144 -16 -31 -37 -150 -37 -208 0 -31 -3 -36 -22 -36 -32 0 -78
30 -139 90 -29 28 -64 57 -79 65 -15 7 -60 52 -100 99 -40 47 -77 86 -80 86
-4 0 -19 9 -34 21 l-26 21 73 72 c156 154 196 333 118 529 -46 116 -47 116 59
32z m815 -53 c0 -18 -20 -15 -23 4 -3 10 1 15 10 12 7 -3 13 -10 13 -16z m643
-31 c3 -8 -1 -12 -9 -9 -7 2 -15 10 -17 17 -3 8 1 12 9 9 7 -2 15 -10 17 -17z
m-588 -226 c0 -16 -27 -32 -37 -21 -7 7 16 36 28 36 5 0 9 -7 9 -15z m-9 -139
c20 -8 46 -12 58 -9 17 4 20 2 15 -11 -3 -9 -2 -22 4 -29 5 -6 15 -32 22 -57
7 -25 15 -52 18 -60 4 -8 7 -35 7 -60 0 -43 1 -45 29 -45 16 0 31 -6 33 -12 3
-7 12 -13 20 -13 12 0 14 -7 9 -34 -9 -48 1 -81 30 -97 19 -10 24 -18 19 -34
-18 -56 -17 -64 11 -93 16 -16 36 -31 44 -34 13 -4 13 -8 -2 -24 -29 -34 -32
-69 -7 -93 12 -11 31 -23 41 -27 21 -6 24 -22 6 -29 -7 -3 -43 -7 -80 -9 -58
-3 -69 -1 -86 18 -35 39 -189 277 -247 381 -12 22 -31 56 -42 75 -11 19 -41
74 -66 121 l-47 87 69 41 c49 29 71 48 75 67 6 23 9 24 19 11 7 -9 28 -23 48
-31z m711 -90 c20 -2 61 -16 92 -30 30 -14 58 -26 62 -26 4 0 28 -17 53 -38
25 -21 53 -41 62 -44 9 -4 20 -23 23 -43 9 -44 -3 -193 -15 -201 -5 -3 -9 6
-9 19 0 42 -21 88 -39 85 -12 -3 -15 -13 -14 -38 1 -19 5 -88 9 -152 l7 -117
-24 -5 c-119 -28 -484 -81 -484 -72 0 10 -26 42 -38 48 -9 4 -25 12 -34 17
-27 12 -28 50 -3 76 14 15 21 32 17 45 -4 17 0 20 28 20 63 0 86 52 39 89 -35
28 -45 27 -79 -9 -25 -26 -27 -33 -17 -55 10 -22 9 -25 -7 -25 -33 0 -43 24
-36 84 7 54 6 56 -19 66 -20 7 -26 16 -26 41 0 30 1 31 18 16 10 -10 23 -17
29 -17 6 0 16 -7 23 -15 19 -23 37 -18 60 20 20 32 20 36 5 65 -19 37 -36 45
-64 31 -19 -11 -20 -9 -14 21 7 41 10 45 25 30 15 -15 51 -15 66 0 15 15 16
64 2 73 -14 8 -3 25 16 25 12 0 14 -7 9 -30 -4 -19 -2 -36 5 -45 14 -16 66
-20 74 -6 9 14 10 53 2 83 l-8 26 84 -4 c45 -3 100 -6 120 -8z m-2435 -18 c13
-12 23 -28 23 -37 0 -10 -9 -6 -30 14 -29 28 -38 45 -23 45 4 0 17 -10 30 -22z
m1496 -34 c11 -16 64 -110 119 -209 121 -218 137 -243 213 -350 33 -46 86
-124 118 -172 75 -114 181 -251 257 -333 34 -36 69 -77 78 -91 69 -104 99
-142 164 -205 108 -105 215 -196 283 -242 33 -22 71 -52 84 -66 14 -14 30 -26
38 -26 7 0 37 -15 66 -34 29 -19 71 -39 93 -45 39 -11 54 -19 137 -77 47 -34
195 -92 287 -115 100 -24 342 -11 385 21 6 4 21 11 35 15 82 24 148 70 242
168 76 79 97 108 96 128 -1 14 10 41 26 61 85 112 100 339 32 468 -7 14 -21
39 -30 56 -24 46 -122 140 -181 173 -28 16 -75 36 -103 45 -29 8 -65 22 -80
30 -42 24 -226 94 -274 105 -181 42 -239 50 -368 56 -138 6 -302 -6 -465 -34
-27 -5 -108 -18 -180 -29 -71 -12 -182 -30 -245 -40 -132 -23 -296 -28 -316
-11 -32 27 -15 37 74 42 112 7 294 35 306 47 6 6 5 15 -2 23 -10 12 3 17 75
30 49 8 106 20 128 27 94 26 527 69 665 65 93 -2 225 -23 295 -45 33 -11 98
-27 144 -36 46 -8 117 -31 158 -50 41 -19 80 -34 86 -34 26 0 149 -94 186
-143 22 -28 49 -64 60 -79 12 -14 21 -30 21 -35 0 -5 22 -52 49 -105 28 -53
53 -113 56 -135 4 -21 13 -68 21 -105 31 -146 -3 -328 -90 -473 -31 -52 -60
-95 -64 -95 -4 0 -41 -27 -82 -61 -80 -65 -118 -88 -165 -100 -16 -4 -75 -19
-130 -34 -239 -65 -424 -28 -782 155 -166 85 -212 114 -328 207 -75 59 -157
125 -183 145 -99 79 -329 334 -367 409 -10 19 -43 64 -74 101 -31 37 -81 101
-111 143 -30 42 -69 95 -86 118 -18 23 -67 101 -109 172 -43 72 -88 146 -100
166 -13 20 -41 72 -63 116 -23 44 -73 135 -111 203 l-71 124 22 13 c30 16 39
13 61 -23z m-88 -101 c39 -58 75 -116 81 -127 22 -43 63 -114 101 -177 49 -81
116 -220 109 -226 -3 -3 -25 -2 -50 1 l-45 7 -22 67 c-53 161 -109 249 -197
306 -38 25 -77 55 -87 66 -13 15 -31 20 -67 20 -28 0 -48 5 -48 11 0 14 132
158 146 159 5 0 41 -48 79 -107z m800 98 c3 -5 1 -12 -5 -16 -5 -3 -10 1 -10
9 0 18 6 21 15 7z m-2114 -61 c11 -29 93 -90 122 -90 8 0 42 14 77 31 34 16
87 35 117 41 49 10 57 9 83 -11 39 -29 90 -39 90 -18 0 8 -8 18 -17 21 -15 6
-15 8 1 24 16 16 18 16 37 -7 16 -19 18 -34 14 -78 -5 -56 -25 -108 -33 -85
-6 18 -22 15 -22 -4 0 -12 -13 -4 -44 24 -27 25 -57 43 -78 46 -97 15 -124 16
-157 5 -46 -15 -58 -26 -44 -40 9 -9 19 -8 39 6 21 13 42 16 96 13 66 -4 72
-6 104 -41 19 -20 34 -47 34 -61 0 -17 8 -27 30 -36 17 -7 31 -18 32 -24 0 -6
2 -24 3 -39 1 -15 11 -35 21 -43 18 -15 18 -15 -6 -10 -60 12 -148 51 -230
102 -105 65 -150 100 -150 120 0 7 -9 18 -20 24 -42 22 -114 101 -124 138 -11
34 13 27 25 -8z m127 -31 c13 -5 20 -13 17 -19 -9 -14 -15 -13 -60 15 -38 24
-38 25 -10 19 17 -4 40 -11 53 -15z m1763 -32 c-13 -13 -15 1 -4 30 7 17 8 17
11 -1 2 -10 -1 -23 -7 -29z m-1234 -90 c10 -12 36 -36 58 -52 22 -16 60 -49
85 -74 25 -25 63 -60 83 -77 36 -30 49 -64 25 -64 -16 0 -48 30 -48 46 0 7
-31 38 -70 69 -102 81 -170 146 -170 161 0 21 16 17 37 -9z m-157 -72 c0 -8
-4 -15 -10 -15 -5 0 -10 7 -10 15 0 8 5 15 10 15 6 0 10 -7 10 -15z m1545 -65
c3 -5 1 -10 -4 -10 -6 0 -11 5 -11 10 0 6 2 10 4 10 3 0 8 -4 11 -10z m-776
-73 l11 -32 -25 30 c-14 17 -25 36 -25 44 0 23 27 -6 39 -42z m121 -11 c0 -6
-7 -1 -15 10 -8 10 -15 23 -15 28 0 6 7 1 15 -10 8 -10 15 -23 15 -28z m1292
-18 c-7 -7 -12 -20 -12 -30 0 -10 -4 -18 -10 -18 -5 0 -10 8 -10 17 0 18 30
56 38 48 3 -3 0 -11 -6 -17z m-1382 -32 c0 -15 -18 -31 -26 -23 -7 7 7 37 17
37 5 0 9 -6 9 -14z m144 -60 c19 -57 19 -66 6 -66 -5 0 -12 17 -16 38 -4 20
-13 46 -20 57 -8 11 -14 26 -14 34 0 28 26 -10 44 -63z m-120 8 c6 -24 2 -43
-8 -33 -11 10 -17 59 -8 59 5 0 13 -12 16 -26z m-724 -114 c-6 -11 -15 -20
-20 -20 -6 0 -10 9 -10 20 0 13 7 20 20 20 18 0 19 -3 10 -20z m1653 13 c-7
-2 -21 -2 -30 0 -10 3 -4 5 12 5 17 0 24 -2 18 -5z m-1531 -18 c15 -2 44 -8
65 -14 21 -5 74 -17 118 -27 44 -9 105 -23 135 -31 92 -25 173 -42 222 -48 54
-7 55 -18 5 -52 -41 -28 -51 -29 -44 -3 9 35 -12 33 -45 -4 -43 -49 -80 -49
-43 0 21 28 19 43 -6 37 -15 -4 -22 0 -26 16 -4 17 -10 20 -27 14 -11 -4 -34
-6 -51 -5 -24 2 -37 -6 -61 -34 -17 -20 -37 -35 -44 -32 -8 2 -4 14 14 35 14
17 26 38 26 47 0 18 -25 22 -35 6 -10 -16 -35 -12 -35 5 0 11 -7 14 -24 9 -17
-4 -27 0 -34 12 -10 18 -11 18 -29 1 -25 -22 -33 -22 -33 3 0 28 -9 25 -52
-17 -40 -39 -61 -40 -34 -1 22 31 20 41 -6 35 -19 -5 -26 1 -41 30 l-18 35 38
-7 c21 -4 50 -9 65 -10z m2588 -40 c128 -20 233 -47 305 -80 l60 -28 -40 -8
c-60 -11 -151 -45 -198 -73 -88 -53 -181 -161 -207 -241 -6 -19 -14 -35 -16
-35 -17 0 -64 47 -64 64 0 37 -37 86 -65 86 -18 0 -25 5 -25 20 0 12 -9 38
-19 58 -17 34 -91 243 -91 259 0 10 255 -5 360 -22z m-404 7 c6 -4 14 -18 18
-32 3 -14 13 -48 21 -77 l14 -52 -59 -88 c-70 -105 -109 -153 -110 -134 0 15
67 136 106 190 13 19 22 37 18 40 -3 3 -9 -1 -14 -9 -21 -37 -71 -100 -80
-100 -17 0 8 49 55 109 47 60 55 81 30 81 -9 0 -23 -17 -32 -37 -19 -41 -51
-83 -65 -83 -5 0 5 20 22 44 30 44 39 76 21 76 -6 0 -22 -22 -37 -50 -15 -27
-31 -50 -36 -50 -13 0 -9 11 15 44 24 32 67 104 67 112 0 2 -5 4 -10 4 -6 0
-24 -22 -41 -50 -30 -49 -62 -72 -37 -27 23 42 17 50 -13 16 l-30 -34 4 28 c5
29 -1 32 -60 28 -24 -2 -33 2 -33 13 0 9 6 17 13 17 45 4 78 9 122 17 64 12
117 14 131 4z m-346 -55 c0 -7 -10 -17 -22 -22 -31 -13 -36 -45 -9 -45 26 0
27 -12 1 -35 -26 -23 -26 -45 0 -45 26 0 15 -28 -13 -32 -30 -4 -36 -38 -7
-38 18 0 21 -4 16 -22 -3 -13 -6 -29 -6 -35 0 -7 -6 -13 -14 -13 -8 0 -16 -7
-20 -15 -3 -8 -17 -20 -31 -25 -35 -13 -21 -34 17 -26 38 7 27 -10 -11 -19
-34 -7 -58 -30 -42 -39 6 -4 22 -4 37 0 20 5 25 3 22 -7 -3 -8 -27 -18 -56
-22 -37 -6 -52 -13 -52 -24 0 -13 8 -15 46 -9 l46 6 -7 -43 c-4 -24 -16 -49
-27 -58 -14 -11 -17 -18 -9 -23 16 -10 14 -26 -3 -26 -8 0 -42 30 -75 68 -58
64 -61 69 -55 108 5 35 3 44 -17 57 -13 10 -33 14 -49 10 -22 -4 -31 0 -46 22
-11 14 -34 42 -51 62 -37 41 -40 53 -17 88 9 14 14 34 11 45 -4 17 0 20 28 20
41 0 57 19 53 61 l-3 33 95 17 c52 10 118 22 145 27 77 14 125 14 125 -1z
m-1735 -45 c-17 -15 -39 -44 -50 -64 -18 -35 -42 -55 -53 -44 -2 3 10 23 27
44 17 22 31 45 31 50 0 14 40 42 60 42 10 -1 5 -10 -15 -28z m-77 6 c-2 -6
-10 -14 -16 -16 -7 -2 -10 2 -6 12 7 18 28 22 22 4z m-84 -23 c-4 -8 -8 -15
-10 -15 -2 0 -4 7 -4 15 0 8 4 15 10 15 5 0 7 -7 4 -15z m726 5 c0 -13 -20
-13 -40 0 -12 8 -9 10 13 10 15 0 27 -4 27 -10z m-500 -9 c0 -13 -26 -32 -33
-24 -8 7 11 33 24 33 5 0 9 -4 9 -9z m837 -17 c10 -14 37 -49 61 -77 24 -29
50 -65 59 -81 14 -27 96 -128 150 -186 13 -14 49 -55 79 -91 47 -58 54 -72 54
-109 0 -45 22 -82 44 -74 7 3 25 -7 40 -21 15 -14 32 -23 37 -20 5 4 9 2 9 -4
0 -19 -36 -21 -90 -5 -92 26 -106 27 -145 8 -33 -16 -39 -16 -63 -2 -15 8 -42
18 -60 21 -18 4 -64 20 -102 37 -37 16 -79 30 -92 30 -28 0 -137 37 -156 53
-11 9 -9 13 9 19 31 12 9 33 -33 33 -28 0 -33 5 -49 45 -25 66 -42 167 -31
186 11 20 27 1 18 -21 -2 -7 2 -19 10 -26 12 -10 12 -13 -2 -23 -14 -10 -13
-14 5 -30 17 -15 19 -22 9 -34 -10 -12 -4 -21 32 -53 25 -21 54 -38 65 -38 16
0 13 6 -18 32 -38 33 -48 51 -22 41 24 -10 17 8 -17 44 l-33 34 33 -7 c43 -9
42 10 -3 36 -26 16 -33 25 -25 34 7 8 6 23 -5 48 -8 20 -13 48 -10 64 2 15 9
58 15 94 l12 66 98 1 c96 2 100 1 117 -24z m281 -14 l2 -35 -25 30 c-31 37
-31 47 -2 43 17 -2 23 -10 25 -38z m74 5 c4 -39 4 -39 -23 -25 -26 14 -26 60
0 60 14 0 20 -9 23 -35z m-1062 8 c0 -20 -28 -53 -47 -53 -18 0 -17 7 10 40
25 33 37 37 37 13z m1130 2 c0 -9 -6 -12 -15 -9 -8 4 -15 10 -15 15 0 5 7 9
15 9 8 0 15 -7 15 -15z m-1440 -13 c0 -13 -12 -22 -22 -16 -10 6 -1 24 13 24
5 0 9 -4 9 -8z m1940 -23 c-7 -11 -14 -18 -17 -15 -3 3 0 12 7 21 18 21 23 19
10 -6z m-1350 1 c0 -5 -7 -10 -15 -10 -8 0 -15 5 -15 10 0 6 7 10 15 10 8 0
15 -4 15 -10z m2491 -4 c88 -19 135 -44 209 -112 98 -92 150 -204 150 -328 0
-201 -129 -377 -318 -431 -51 -15 -57 -15 -67 -1 -10 14 -15 12 -35 -11 -22
-26 -24 -26 -31 -7 -4 11 -2 23 5 29 7 6 18 20 25 33 6 12 16 22 21 22 6 0 10
-10 10 -22 1 -22 1 -23 15 -4 34 44 3 85 -37 50 -21 -19 -21 -19 -14 9 5 20 2
29 -10 34 -23 9 -83 -23 -96 -52 -12 -26 -23 -31 -33 -15 -10 16 -37 11 -62
-12 -22 -21 -23 -21 -63 -3 -54 25 -131 110 -170 189 -85 171 -53 367 81 504
64 66 126 102 209 124 80 21 126 22 211 4z m-2946 -16 c-10 -11 -22 -17 -27
-14 -12 8 11 34 30 34 13 0 12 -3 -3 -20z m62 -7 c-6 -15 -19 -35 -28 -44 -9
-9 -19 -23 -21 -30 -3 -8 -8 -11 -12 -8 -8 8 14 69 25 69 5 0 9 6 9 14 0 13
13 23 32 25 4 1 2 -11 -5 -26z m1769 -9 c-10 -14 -20 -23 -23 -21 -2 3 3 17
13 31 9 15 19 24 22 22 2 -3 -3 -17 -12 -32z m-1464 4 c-6 -6 -15 -8 -19 -4
-4 4 -1 11 7 16 19 12 27 3 12 -12z m-78 -6 c-6 -4 -14 -16 -19 -27 -8 -20 -8
-20 -13 -1 -4 19 26 52 37 40 3 -3 1 -8 -5 -12z m944 -25 c6 -30 -16 -26 -42
8 l-26 34 32 -14 c18 -7 34 -20 36 -28z m-1031 16 c-9 -9 -19 -14 -23 -11 -10
10 6 28 24 28 15 0 15 -1 -1 -17z m1665 -5 c-7 -7 -12 -8 -12 -2 0 6 3 14 7
17 3 4 9 5 12 2 2 -3 -1 -11 -7 -17z m288 -35 c15 -41 19 -65 13 -81 -12 -34
-117 -174 -121 -162 -2 6 1 17 7 24 17 20 91 158 91 169 0 5 -7 3 -16 -4 -13
-11 -17 -10 -26 5 -8 15 -17 6 -59 -61 -28 -43 -67 -107 -87 -143 -30 -53 -38
-61 -40 -42 -2 13 13 48 37 87 23 35 41 72 41 80 0 9 20 38 45 64 25 26 45 56
45 66 0 19 27 55 41 55 4 0 17 -26 29 -57z m-2260 23 c0 -16 -18 -31 -27 -22
-8 8 5 36 17 36 5 0 10 -6 10 -14z m65 5 c3 -5 1 -12 -5 -16 -5 -3 -10 1 -10
9 0 18 6 21 15 7z m119 -68 c-32 -63 -76 -113 -81 -96 -2 6 8 31 24 55 15 24
27 45 28 48 0 3 11 20 25 36 35 44 38 21 4 -43z m105 40 c0 -5 -9 -21 -20 -38
-10 -16 -23 -40 -28 -52 -5 -11 -14 -24 -20 -27 -6 -4 -9 -12 -7 -19 1 -7 1
-9 -1 -4 -3 4 -11 7 -19 7 -11 0 -10 9 7 43 32 62 58 97 75 97 8 0 14 -3 13
-7z m54 -33 c-6 -21 -21 -35 -29 -27 -2 2 0 16 6 31 11 31 31 27 23 -4z m221
9 c-3 -5 -10 -7 -15 -3 -5 3 -7 10 -3 15 3 5 10 7 15 3 5 -3 7 -10 3 -15z
m-594 1 c0 -5 -5 -10 -11 -10 -5 0 -7 5 -4 10 3 6 8 10 11 10 2 0 4 -4 4 -10z
m66 -2 c-3 -7 -9 -21 -12 -30 -6 -16 -24 -26 -24 -14 0 17 22 56 31 56 6 0 8
-6 5 -12z m1960 -77 c-9 -17 -25 -35 -36 -41 -30 -16 -28 -11 27 78 14 21 18
23 21 10 2 -9 -4 -30 -12 -47z m-1525 26 c-13 -13 -26 -3 -16 12 3 6 11 8 17
5 6 -4 6 -10 -1 -17z m-409 -39 c-7 -7 -12 -8 -12 -2 0 14 12 26 19 19 2 -3
-1 -11 -7 -17z m2286 -32 c2 -27 9 -40 22 -43 14 -4 18 -13 16 -46 -1 -22 -8
-43 -14 -45 -7 -2 -12 1 -12 8 0 6 -4 8 -10 5 -5 -3 -10 1 -10 10 0 8 7 18 15
21 21 9 19 24 -4 24 -11 0 -21 5 -23 12 -7 20 -96 -119 -147 -229 -14 -29 -30
-53 -38 -53 -26 0 -20 14 104 232 23 41 51 83 62 93 11 9 18 22 15 27 -4 5
-21 -5 -40 -23 -42 -40 -51 -34 -20 12 18 27 31 35 52 34 26 0 29 -4 32 -39z
m-1984 25 c3 -5 -1 -14 -8 -20 -16 -13 -32 2 -21 19 8 12 22 13 29 1z m136 -1
c0 -5 -4 -10 -10 -10 -5 0 -10 5 -10 10 0 6 5 10 10 10 6 0 10 -4 10 -10z
m1523 -10 c-6 -22 -23 -38 -23 -21 0 17 12 41 20 41 5 0 6 -9 3 -20z m-1593 2
c0 -13 -12 -22 -22 -16 -10 6 -1 24 13 24 5 0 9 -4 9 -8z m1729 -39 c-12 -31
-38 -63 -51 -63 -8 0 15 53 34 78 18 22 28 13 17 -15z m-1674 -13 c-3 -5 -11
-10 -16 -10 -6 0 -7 5 -4 10 3 6 11 10 16 10 6 0 7 -4 4 -10z m-205 -14 c0 -3
-4 -8 -10 -11 -5 -3 -10 -1 -10 4 0 6 5 11 10 11 6 0 10 -2 10 -4z m2170 -100
c0 -7 -7 -19 -15 -26 -8 -7 -31 -39 -51 -71 -35 -59 -61 -80 -45 -36 10 26 59
117 74 135 13 16 37 15 37 -2z m9 -89 c0 -29 5 -73 11 -99 10 -39 9 -50 -5
-72 -21 -31 -39 -34 -30 -5 4 13 2 24 -4 29 -9 5 -9 15 -1 36 10 29 10 29 -20
-6 -38 -45 -38 -30 0 43 17 31 29 57 27 57 -4 0 -59 -85 -76 -117 -6 -13 -16
-23 -21 -23 -15 0 -12 26 5 40 8 6 26 37 40 68 53 116 74 130 74 49z m-529 3
c-24 -15 -37 -11 -16 5 11 8 22 12 25 9 3 -3 -1 -9 -9 -14z m340 -29 c0 -6 -5
-13 -11 -16 -6 -4 -7 -19 -4 -35 3 -15 2 -31 -3 -34 -6 -3 -8 4 -6 16 3 13 -6
3 -20 -22 -14 -25 -25 -56 -26 -70 l0 -24 -15 21 c-14 21 -14 26 11 75 15 29
33 63 42 76 15 22 32 30 32 13z m-810 -64 c0 -6 -9 -2 -20 8 -11 10 -20 23
-20 28 0 6 9 2 20 -8 11 -10 20 -23 20 -28z m462 -19 c-9 -9 -12 -7 -12 12 0
19 3 21 12 12 9 -9 9 -15 0 -24z m384 -35 c-10 -10 -19 5 -10 18 6 11 8 11 12
0 2 -7 1 -15 -2 -18z m-1501 -37 c11 -7 70 -33 130 -57 61 -24 112 -44 114
-46 2 -1 -9 -17 -24 -35 -55 -64 -69 -132 -40 -189 19 -36 11 -90 -16 -115
-23 -20 -24 -37 -4 -54 21 -18 84 7 91 37 4 13 15 40 25 60 10 21 19 55 19 77
0 33 7 45 40 78 35 32 48 38 84 38 27 0 46 5 49 13 4 10 21 11 68 6 58 -6 66
-4 90 17 21 20 36 24 85 24 34 0 82 6 108 14 59 18 64 16 182 -71 133 -99 280
-239 316 -301 31 -55 69 -85 125 -101 17 -5 48 -27 68 -50 27 -30 45 -41 66
-41 33 0 45 -15 29 -35 -16 -19 -49 -19 -74 0 -26 20 -90 19 -106 0 -11 -13
-9 -20 9 -39 15 -16 19 -26 11 -31 -19 -12 -39 3 -55 42 -17 41 -30 53 -59 53
-11 0 -32 12 -47 26 -18 17 -42 28 -71 31 -44 5 -44 5 -61 -38 -16 -39 -16
-45 -1 -68 9 -14 34 -42 55 -62 22 -20 39 -41 39 -46 0 -16 -55 -41 -80 -36
-18 3 -32 -2 -45 -17 -17 -19 -18 -25 -6 -71 17 -66 7 -77 -47 -50 -23 12 -51
21 -62 21 -43 0 -60 18 -60 63 0 23 -7 53 -16 65 -20 29 -64 29 -92 -1 -20
-21 -21 -24 -6 -52 19 -35 20 -137 1 -169 -6 -11 -12 -41 -12 -66 l0 -45 -50
-1 c-45 0 -54 4 -84 35 -19 20 -43 40 -55 46 -22 11 -33 41 -35 95 -1 19 -8
44 -16 54 -8 11 -15 30 -15 42 0 49 -41 62 -82 26 -16 -13 -16 -17 -1 -45 13
-27 14 -38 3 -82 -18 -73 -53 -116 -93 -114 -18 1 -39 -1 -48 -5 -20 -9 -33 7
-49 59 -7 22 -17 46 -23 53 -6 8 -6 32 2 71 12 63 9 84 -22 119 -24 26 -53 28
-79 5 -22 -20 -23 -41 -2 -64 25 -28 9 -73 -40 -114 -25 -20 -54 -35 -69 -35
-15 0 -32 -9 -41 -22 l-15 -21 -21 24 c-16 19 -19 33 -14 68 4 32 0 59 -17
103 -21 57 -21 61 -5 94 30 64 14 94 -51 94 -37 0 -53 -16 -53 -55 0 -19 -8
-39 -20 -50 -21 -19 -26 -50 -10 -60 15 -9 12 -51 -5 -65 -23 -19 -95 6 -95
32 0 11 -11 35 -24 54 l-24 35 18 57 c10 32 25 113 34 181 16 119 46 250 88
376 26 77 110 217 140 231 32 16 31 16 53 0z m567 -20 c4 -6 8 -20 8 -31 0
-12 5 -26 11 -32 6 -6 9 -21 7 -34 -2 -20 -10 -24 -45 -27 -40 -3 -43 -2 -43
23 0 22 3 24 19 16 25 -14 31 -5 31 46 0 51 -13 55 -40 11 -18 -30 -20 -31
-20 -10 0 40 18 64 43 56 12 -4 25 -12 29 -18z m1228 -115 c32 -33 74 -67 94
-76 20 -10 36 -21 36 -26 0 -16 -64 -10 -91 9 -77 51 -115 78 -120 86 -7 9 9
66 18 66 3 0 31 -27 63 -59z m340 -1 c0 -26 -24 -118 -35 -136 -13 -21 -50
-33 -109 -37 -46 -3 -45 -27 1 -29 118 -5 163 -3 211 8 50 12 82 10 82 -5 0
-10 -65 -40 -135 -62 -74 -23 -247 -26 -320 -5 -60 17 -224 76 -280 101 -71
31 -69 55 5 55 37 0 55 6 78 25 40 33 74 31 130 -7 69 -49 133 -78 169 -78 28
0 35 5 47 35 9 20 13 42 10 49 -3 8 -1 17 5 21 7 4 11 -8 11 -34 0 -72 56 -40
90 52 19 50 40 75 40 47z m340 -48 c0 -11 -85 -72 -99 -72 -23 0 -9 16 42 47
62 37 57 35 57 25z m-130 -102 c32 -24 23 -32 -21 -20 -18 6 -49 10 -66 10
-37 0 -45 16 -10 23 47 9 73 6 97 -13z m-179 -15 c-1 -15 -24 -12 -29 3 -3 9
2 13 12 10 10 -1 17 -7 17 -13z m-847 -455 c16 0 44 -45 34 -55 -6 -7 -87 22
-105 36 -7 6 -13 23 -13 36 l0 25 34 -21 c18 -12 41 -21 50 -21z m-1415 -168
c1 -15 -4 -22 -11 -20 -15 5 -22 43 -13 66 6 15 8 15 15 -3 5 -11 9 -30 9 -43z
m1306 -42 c-3 -6 -17 -10 -31 -10 -33 0 -24 15 11 18 15 1 24 -2 20 -8z
m-1275 -38 c0 -7 -4 -10 -10 -7 -5 3 -10 16 -10 28 0 18 2 19 10 7 5 -8 10
-21 10 -28z m304 20 c2 -4 0 -14 -5 -22 -8 -13 -10 -13 -18 0 -10 15 -6 30 9
30 5 0 11 -4 14 -8z m-48 -87 c-7 -29 -66 -70 -114 -80 -29 -6 -33 -5 -30 12
3 13 11 17 32 15 22 -2 35 6 68 43 43 49 54 52 44 10z m81 -102 c-7 -7 -23 26
-30 62 -5 24 -2 22 14 -13 11 -24 18 -46 16 -49z m687 15 c45 -34 125 -95 178
-136 54 -40 101 -78 104 -84 4 -5 -29 -43 -73 -84 -106 -97 -126 -141 -126
-279 0 -72 6 -124 22 -185 51 -192 53 -210 35 -297 -6 -32 -35 -29 -70 8 -30
32 -132 89 -158 89 -24 0 -46 30 -46 62 0 61 -33 136 -98 223 -59 80 -65 93
-73 156 -4 37 -8 110 -9 161 0 51 -4 111 -10 133 -15 60 -13 188 3 183 6 -3
18 -17 25 -32 17 -34 36 -42 68 -27 21 9 31 8 54 -5 15 -10 34 -15 42 -12 18
7 41 107 33 141 -7 25 -1 47 12 47 3 0 43 -28 87 -62z m-529 -58 c-3 -5 -14
-10 -23 -10 -15 0 -15 2 -2 10 20 13 33 13 25 0z m1286 -283 c-8 -8 -11 -7
-11 4 0 20 13 34 18 19 3 -7 -1 -17 -7 -23z m-41 -86 c0 -11 9 -21 21 -24 19
-5 17 -11 -31 -67 -28 -34 -50 -69 -48 -78 2 -8 24 -21 50 -29 28 -8 52 -22
59 -34 16 -30 3 -36 -24 -11 -13 12 -29 22 -36 22 -18 0 -99 -52 -105 -67 -3
-6 16 -31 42 -55 26 -23 52 -52 58 -63 7 -14 18 -19 38 -17 16 2 36 -4 47 -14
10 -9 27 -14 39 -11 34 9 33 -11 -2 -46 -18 -19 -61 -63 -95 -99 -52 -55 -82
-76 -177 -123 -63 -31 -119 -54 -125 -50 -17 10 -13 94 9 178 11 42 57 154
101 249 80 170 140 306 152 341 8 23 27 22 27 -2z m245 -7 c19 -8 45 -55 45
-84 0 -12 8 -24 18 -26 9 -3 22 -16 29 -30 9 -19 9 -24 0 -21 -7 3 -38 -9 -70
-26 -31 -16 -58 -28 -60 -26 -1 2 -12 24 -25 48 -20 40 -21 46 -6 62 19 21 1
37 -21 19 -8 -7 -20 -10 -26 -8 -7 2 8 19 34 37 25 19 48 40 51 47 6 16 8 16
31 8z m-115 -164 c0 -5 -2 -10 -4 -10 -3 0 -8 5 -11 10 -3 6 -1 10 4 10 6 0
11 -4 11 -10z m200 -40 c0 -5 -2 -10 -4 -10 -3 0 -8 5 -11 10 -3 6 -1 10 4 10
6 0 11 -4 11 -10z m-56 -29 c8 -12 -34 -48 -65 -56 -26 -6 -59 14 -59 36 0 12
17 12 25 -1 10 -16 41 -11 60 10 20 22 31 25 39 11z m66 -73 c0 -4 -9 -8 -20
-8 -21 0 -24 8 -13 36 6 16 7 16 20 -2 7 -10 13 -21 13 -26z m343 -5 c-7 -2
-21 -2 -30 0 -10 3 -4 5 12 5 17 0 24 -2 18 -5z m-1623 -48 c0 -5 -5 -3 -10 5
-5 8 -10 20 -10 25 0 6 5 3 10 -5 5 -8 10 -19 10 -25z m1168 13 c-3 -7 -19
-13 -36 -13 -38 0 -40 3 -9 15 32 13 49 12 45 -2z m-2560 -100 c17 -17 15 -58
-2 -58 -15 0 -26 21 -26 51 0 22 11 24 28 7z m100 -7 c10 -6 11 -22 6 -59 -3
-29 -8 -52 -10 -52 -2 0 -15 5 -29 12 -20 9 -25 17 -20 32 3 12 8 33 11 49 7
28 19 33 42 18z m2410 -46 c-9 -31 -255 -219 -312 -238 -56 -19 -60 -14 -8 9
67 32 146 91 222 168 41 42 81 75 88 74 7 -2 12 -7 10 -13z m-929 -91 c25 -12
64 -41 86 -63 35 -37 38 -43 24 -57 -14 -13 -21 -11 -65 25 -27 23 -68 50 -91
61 -44 20 -48 26 -37 54 6 16 13 15 83 -20z m-23 -104 c21 -16 56 -41 77 -55
43 -29 47 -55 17 -100 -28 -43 -26 -79 8 -104 l27 -21 -82 1 c-92 1 -116 -7
-88 -28 21 -14 130 -17 207 -4 42 7 50 5 69 -15 11 -12 17 -24 12 -27 -4 -3
-80 -7 -168 -8 l-160 -4 -3 59 c-4 86 -2 89 53 66 57 -24 55 -24 55 -1 0 26
-23 42 -70 48 -40 6 -40 6 -40 50 l0 43 43 -21 c23 -12 50 -28 59 -36 9 -8 22
-12 27 -8 30 18 -5 60 -72 86 -40 16 -42 19 -45 63 -3 40 0 46 16 46 10 0 37
-13 58 -30z m-849 -20 c-31 -24 -116 -62 -130 -57 -11 3 129 77 146 77 6 0 -2
-9 -16 -20z m1066 -66 c18 -9 50 -29 72 -44 62 -43 114 -70 133 -70 24 -1 53
-43 41 -61 -15 -25 -10 -49 14 -58 13 -5 29 -16 37 -25 9 -12 22 -15 40 -11
24 5 28 2 36 -27 8 -28 20 -38 80 -67 76 -37 87 -48 99 -100 5 -24 4 -31 -4
-27 -6 4 -55 9 -109 12 -123 5 -142 10 -142 33 0 26 -22 42 -40 31 -23 -15
-29 -12 -23 10 3 11 14 20 24 20 28 0 23 29 -6 36 -14 3 -25 12 -25 20 0 16
-46 19 -55 4 -3 -5 -13 -10 -22 -10 -13 0 -12 5 6 24 25 27 15 42 -22 30 -22
-7 -22 -6 -3 14 11 12 16 28 12 38 -6 15 -8 15 -31 0 -23 -15 -25 -15 -39 6
-7 13 -17 36 -20 51 -5 21 -11 27 -22 23 -23 -9 -37 3 -24 19 9 11 3 17 -25
30 -19 10 -38 21 -41 26 -5 9 14 89 22 89 3 0 19 -7 37 -16z m1297 -67 c41
-21 93 -49 115 -62 22 -13 71 -32 110 -42 l70 -18 -115 -8 c-257 -18 -542 16
-322 39 41 5 74 2 108 -9 70 -22 114 -28 114 -17 0 14 -30 25 -113 45 -79 19
-108 16 -238 -26 -63 -20 -112 -29 -158 -29 l-66 0 55 31 c30 17 69 44 85 59
97 89 223 102 355 37z m-3295 -99 c49 -16 91 -31 94 -34 9 -8 -184 9 -196 18
-7 6 -49 7 -102 3 -103 -8 -121 4 -43 29 95 30 111 29 247 -16z m2195 -203
c-7 -8 -16 -12 -21 -9 -13 8 -1 24 18 24 13 0 13 -3 3 -15z m-438 -150 c21
-60 22 -65 5 -65 -16 0 -67 -54 -67 -72 0 -8 6 -20 13 -28 6 -8 2 -6 -11 5
-20 16 -25 17 -32 5 -5 -9 -5 -19 1 -27 17 -19 1 -35 -22 -23 -20 11 -21 10
-23 -30 -1 -18 -7 -25 -21 -26 -37 -2 -40 -5 -22 -18 27 -21 11 -44 -51 -72
-72 -33 -122 -49 -197 -64 -33 -7 -76 -18 -95 -25 -20 -7 -51 -14 -70 -16 -41
-4 -41 1 -2 79 38 76 104 142 141 142 22 0 38 10 64 41 20 22 38 52 42 67 3
14 18 45 32 69 22 38 28 42 51 37 41 -10 45 -19 9 -19 -22 0 -32 -5 -32 -15 0
-8 -8 -21 -18 -29 -10 -7 -16 -20 -13 -28 4 -9 -2 -23 -12 -32 -10 -9 -26 -28
-36 -43 -17 -25 -16 -27 5 -47 29 -27 54 -20 100 28 25 26 39 51 44 79 5 31
11 42 25 42 11 0 20 10 23 28 4 15 10 32 14 37 15 20 108 75 123 72 8 -1 22
-25 32 -52z m-302 -195 c0 -5 -4 -10 -10 -10 -5 0 -10 5 -10 10 0 6 5 10 10
10 6 0 10 -4 10 -10z"/>
<path d="M572 6123 c-5 -10 -22 -57 -37 -105 -15 -48 -34 -93 -43 -100 -10 -9
-48 -13 -115 -13 -103 0 -131 -11 -82 -33 48 -22 135 -94 135 -112 0 -10 -16
-64 -36 -120 -20 -55 -34 -103 -31 -107 3 -3 34 19 69 49 116 100 132 105 188
60 70 -57 132 -102 141 -102 17 0 9 49 -21 132 -16 45 -30 88 -30 94 0 7 34
35 75 61 101 65 99 76 -15 70 -60 -3 -93 -1 -99 7 -5 6 -23 60 -39 121 -29
109 -43 132 -60 98z m45 -133 c11 -44 16 -83 12 -86 -14 -8 -10 -24 6 -24 12
0 35 -55 35 -87 0 -10 -85 -73 -100 -73 -17 0 -90 62 -90 75 0 9 7 31 14 50
13 31 19 35 51 35 22 0 34 4 30 10 -3 6 -15 10 -26 10 -10 0 -19 3 -19 7 0 15
55 163 61 163 3 0 15 -36 26 -80z m-149 -124 c4 -17 -15 -56 -26 -56 -17 0
-103 61 -97 69 3 5 31 8 63 6 41 -3 58 -8 60 -19z m306 5 c6 -10 -49 -61 -65
-61 -9 0 -29 42 -29 61 0 12 87 12 94 0z m-58 -193 c12 -37 20 -69 17 -71 -2
-3 -28 12 -56 34 -29 21 -55 39 -59 39 -5 0 -8 7 -8 15 0 16 59 57 74 52 5 -2
20 -33 32 -69z m-221 46 c35 -23 31 -45 -13 -74 -20 -13 -43 -29 -51 -35 -12
-8 -13 -4 -7 26 6 37 33 99 42 99 3 0 16 -7 29 -16z"/>
<path d="M2320 6075 c0 -8 7 -15 15 -15 9 0 26 -7 39 -16 31 -20 45 -1 20 27
-21 23 -74 26 -74 4z"/>
<path d="M2307 6033 c-4 -3 -7 -19 -7 -34 0 -22 6 -30 25 -35 29 -7 55 10 55
37 0 27 -54 51 -73 32z m28 -33 c3 -5 2 -10 -4 -10 -5 0 -13 5 -16 10 -3 6 -2
10 4 10 5 0 13 -4 16 -10z"/>
<path d="M2356 4968 c-22 -32 -20 -64 6 -82 44 -31 80 -17 93 36 14 55 -67 92
-99 46z m54 -38 c0 -5 -4 -10 -10 -10 -5 0 -10 5 -10 10 0 6 5 10 10 10 6 0
10 -4 10 -10z"/>
<path d="M2481 4454 c-27 -34 -26 -49 1 -68 45 -32 98 -5 98 49 0 50 -65 62
-99 19z m50 -27 c-1 -12 -15 -9 -19 4 -3 6 1 10 8 8 6 -3 11 -8 11 -12z"/>
<path d="M2810 4420 c0 -5 7 -10 15 -10 8 0 15 5 15 10 0 6 -7 10 -15 10 -8 0
-15 -4 -15 -10z"/>
<path d="M2710 4166 c-10 -13 -9 -17 4 -22 22 -8 49 3 44 19 -7 18 -33 20 -48
3z"/>
<path d="M4012 4438 c-7 -7 -12 -19 -12 -29 0 -9 -16 -51 -35 -93 l-36 -76
-102 -2 c-56 0 -108 -2 -116 -2 -35 -3 -17 -29 51 -72 118 -75 112 -61 67
-170 -39 -93 -46 -124 -31 -124 12 0 111 57 157 90 22 16 46 29 53 30 8 0 56
-32 108 -71 117 -87 143 -85 112 10 -13 42 -44 129 -53 152 -4 11 16 29 80 68
47 29 84 58 82 64 -2 7 -20 13 -41 15 -33 3 -37 1 -32 -16 5 -15 -4 -26 -44
-52 -54 -35 -64 -33 -75 12 -7 26 -5 27 49 33 78 10 70 25 -13 25 l-68 0 -32
99 c-17 54 -31 104 -31 110 0 15 -23 14 -38 -1z m24 -69 c0 -8 6 -37 13 -66
14 -58 10 -73 -22 -73 -45 0 -52 14 -34 62 9 24 17 56 17 72 0 28 24 33 26 5z
m53 -187 c11 -16 23 -40 26 -54 6 -23 1 -30 -36 -54 l-43 -27 -44 24 c-66 36
-68 42 -32 94 28 40 35 45 70 45 31 0 43 -6 59 -28z m-183 7 c3 -6 0 -17 -8
-26 -13 -12 -19 -12 -51 3 -21 10 -37 21 -37 26 0 12 88 10 96 -3z m259 -194
c11 -30 16 -57 12 -61 -11 -12 -117 67 -117 87 0 4 14 16 32 27 40 26 49 19
73 -53z m-220 49 c14 -9 25 -21 25 -28 0 -10 -79 -66 -94 -66 -11 0 -7 28 10
70 18 45 24 47 59 24z"/>
<path d="M704 1676 c-88 -35 -145 -65 -182 -97 -84 -74 -221 -119 -362 -119
-97 0 -160 -9 -160 -21 0 -15 212 -10 298 6 97 19 166 48 247 106 68 48 155
93 201 103 60 13 204 -12 279 -48 58 -29 245 -115 370 -171 126 -57 219 -60
519 -15 78 11 114 27 241 104 33 20 70 36 83 36 25 0 31 27 8 36 -18 7 -90
-25 -142 -62 -36 -26 -101 -58 -159 -80 -11 -4 -33 -8 -50 -9 -16 -1 -70 -7
-120 -15 -103 -14 -204 -14 -255 1 -39 12 -225 92 -280 120 -190 98 -292 134
-410 144 -54 4 -76 1 -126 -19z"/>
<path d="M745 1576 c-54 -17 -145 -61 -191 -92 -20 -14 -66 -34 -101 -45 -40
-13 -63 -25 -63 -34 0 -34 110 -4 199 55 166 110 307 119 491 32 30 -15 73
-39 95 -53 53 -36 146 -68 218 -76 48 -5 57 -3 57 10 0 11 -15 20 -42 27 -85
21 -143 42 -191 68 -27 15 -72 40 -101 55 -116 63 -271 85 -371 53z"/>
<path d="M175 1299 c-94 -3 -171 -6 -172 -7 -2 -1 -3 -9 -3 -18 0 -14 11 -15
91 -9 123 10 485 8 584 -3 44 -5 141 -9 215 -10 130 0 132 1 55 9 -44 5 -118
13 -165 19 -47 5 -153 12 -235 15 -83 3 -161 7 -175 8 -14 1 -101 0 -195 -4z"/>
<path d="M1665 1270 c-158 -5 -151 -6 95 -7 146 0 275 2 288 5 29 9 -157 9
-383 2z"/>
<path d="M1255 1260 c-71 -3 -119 -7 -105 -9 47 -7 295 1 310 10 16 9 14 9
-205 -1z"/>
<path d="M1063 1253 c9 -2 25 -2 35 0 9 3 1 5 -18 5 -19 0 -27 -2 -17 -5z"/>
<path d="M4647 898 c-13 -10 -17 -25 -15 -62 l3 -50 -70 -16 c-81 -19 -95 -25
-95 -46 0 -18 32 -30 90 -33 24 -1 47 -4 49 -7 10 -9 -24 -24 -55 -24 -43 0
-94 -19 -94 -35 0 -26 43 -45 103 -45 50 0 58 -2 55 -17 -3 -15 -18 -19 -77
-25 -40 -3 -78 -11 -84 -17 -16 -16 3 -45 32 -49 17 -3 21 1 19 20 -3 22 0 23
52 23 l55 0 8 -90 c4 -49 8 -121 10 -160 2 -55 6 -69 18 -67 29 7 33 21 21 85
-16 88 -16 226 1 232 6 2 53 6 103 9 129 7 170 29 138 75 -14 19 -24 21 -135
21 -92 0 -120 3 -117 13 3 8 36 13 107 15 72 2 101 6 99 14 -3 8 -36 11 -107
9 -81 -2 -102 0 -99 10 6 17 41 27 101 28 77 2 54 21 -25 21 -86 0 -82 17 5
22 76 4 73 22 -4 28 l-62 5 -1 45 -1 45 43 3 c25 2 42 -1 42 -7 0 -6 -13 -11
-30 -11 -32 0 -41 -17 -14 -27 23 -9 91 15 99 34 4 11 0 22 -11 30 -23 17
-135 17 -157 1z m-37 -169 c0 -5 -17 -9 -37 -9 -38 0 -36 14 2 22 23 5 35 1
35 -13z m5 -99 c8 -12 -14 -22 -56 -24 -35 -1 -51 19 -22 27 33 9 72 7 78 -3z
m270 -50 c0 -23 -61 -39 -148 -39 -76 -1 -78 0 -75 22 4 26 44 35 153 33 55
-1 70 -4 70 -16z"/>
<path d="M4714 479 c-8 -14 18 -31 30 -19 9 9 0 30 -14 30 -5 0 -12 -5 -16
-11z"/>
</g>
</svg>
