<?xml version="1.0" standalone="no"?>
<!DOCTYPE svg PUBLIC "-//W3C//DTD SVG 20010904//EN"
 "http://www.w3.org/TR/2001/REC-SVG-20010904/DTD/svg10.dtd">
<svg version="1.0" xmlns="http://www.w3.org/2000/svg"
 width="500.000000pt" height="878.000000pt" viewBox="0 0 500.000000 878.000000"
 preserveAspectRatio="xMidYMid meet">
<metadata>
Created by potrace 1.15, written by Peter Selinger 2001-2017
</metadata>
<g transform="translate(0.000000,878.000000) scale(0.100000,-0.100000)"
fill="#000000" stroke="none">
<path d="M2127 8604 c-17 -17 11 -24 93 -24 75 0 91 -3 98 -17 4 -10 6 -62 4
-115 l-4 -98 -74 0 c-56 0 -74 -3 -74 -14 0 -11 54 -14 303 -18 166 -2 310 -2
320 0 37 9 8 27 -49 30 -32 2 -63 7 -68 12 -8 8 1 41 44 165 17 48 19 50 56
51 64 1 74 3 74 19 0 12 -51 14 -358 15 -197 0 -361 -3 -365 -6z m370 -36 c12
-19 74 -169 80 -194 4 -19 -1 -22 -54 -28 -32 -3 -71 -2 -88 2 l-30 8 -3 99
c-1 54 0 105 2 112 7 17 82 17 93 1z m179 1 c10 -17 -31 -149 -47 -149 -4 0
-13 17 -18 38 -6 20 -20 52 -31 70 -11 18 -18 37 -15 43 9 13 102 11 111 -2z"/>
<path d="M2191 6350 c-134 -40 -232 -124 -297 -255 -19 -38 -38 -92 -43 -119
-29 -159 33 -338 155 -445 26 -23 45 -44 42 -47 -3 -3 -34 -12 -69 -20 -88
-21 -91 -24 -68 -88 10 -30 21 -72 25 -95 5 -34 4 -41 -10 -41 -18 0 -21 -15
-5 -26 6 -3 8 -16 4 -28 -4 -11 -8 -46 -10 -76 -3 -44 1 -62 20 -90 13 -19 26
-45 30 -57 3 -13 14 -23 25 -23 12 0 20 -8 22 -22 2 -14 15 -29 35 -38 72 -34
61 -96 -15 -79 -36 8 -38 6 -88 -48 l-52 -56 -47 6 c-67 10 -123 -18 -192 -93
-31 -33 -61 -60 -67 -60 -7 0 -27 -16 -46 -35 -32 -33 -34 -40 -36 -108 -2
-40 2 -82 9 -95 10 -21 8 -27 -21 -50 l-32 -27 15 -95 c9 -52 20 -103 26 -113
10 -18 7 -69 -8 -182 -3 -22 -7 -83 -10 -136 -4 -80 -1 -105 16 -150 24 -62
25 -80 9 -125 -10 -27 -8 -36 11 -67 25 -41 29 -35 -67 -108 -28 -22 -64 -57
-78 -79 -25 -37 -26 -43 -19 -127 8 -110 11 -120 36 -128 17 -6 20 -14 17 -67
-3 -59 -4 -61 -38 -72 -30 -9 -40 -22 -69 -81 -31 -64 -41 -94 -58 -178 -4
-18 2 -42 18 -72 19 -35 21 -47 12 -56 -10 -10 -16 -5 -27 22 -16 38 -50 59
-95 59 -36 0 -54 -21 -57 -68 -1 -20 -2 -43 -3 -49 -1 -7 -14 -13 -31 -13 -18
0 -33 -7 -39 -18 -5 -9 -9 -71 -9 -136 -1 -110 0 -118 15 -103 13 13 17 38 17
119 1 96 2 103 21 103 15 0 21 -8 25 -34 3 -19 11 -36 18 -39 13 -4 17 14 13
62 -2 15 0 39 4 53 5 20 9 22 20 13 9 -7 15 -8 20 0 9 15 -5 32 -22 26 -11 -5
-14 1 -11 22 2 22 7 27 28 24 38 -4 42 -13 41 -98 0 -53 4 -83 14 -94 7 -8 15
-33 17 -55 2 -27 8 -40 18 -40 11 0 16 -15 18 -62 2 -35 0 -63 -4 -63 -20 0
-64 56 -64 81 0 27 -21 54 -33 42 -4 -3 -7 -13 -7 -21 0 -16 -86 -122 -99
-122 -4 0 -13 11 -19 24 -6 14 -21 26 -34 28 -21 3 -23 9 -26 71 -2 51 -6 67
-17 67 -11 0 -15 -14 -16 -52 -1 -29 -4 -43 -6 -30 -3 13 -12 22 -23 22 -24 0
-28 20 -35 205 -4 101 -12 171 -20 191 -35 77 -208 96 -189 20 3 -12 6 -67 7
-122 2 -54 6 -105 11 -112 4 -7 3 -18 -2 -25 -6 -7 -12 -35 -14 -62 -2 -36 -7
-49 -17 -47 -7 1 -19 -2 -26 -8 -18 -15 -21 -7 -36 90 -15 98 -39 130 -95 130
-65 0 -64 3 -64 -161 0 -82 -4 -149 -8 -149 -23 0 -44 42 -47 97 -3 32 -4 60
-5 62 0 2 -6 -2 -14 -9 -10 -7 -15 -30 -14 -61 0 -47 -13 -79 -33 -79 -5 0 -9
11 -9 24 0 27 -16 36 -66 36 l-34 0 -2 68 c-10 288 -10 344 0 354 6 6 21 -2
38 -20 22 -22 42 -30 82 -35 33 -4 50 -2 47 3 -4 6 -18 10 -32 10 -16 0 -27 7
-30 20 -3 10 -15 22 -26 26 -12 4 -39 25 -60 47 -46 48 -53 43 -63 -53 -3 -36
-11 -71 -17 -78 -7 -9 -4 -19 12 -35 28 -31 27 -37 -8 -37 -40 0 -46 -14 -22
-49 12 -16 21 -40 21 -53 0 -17 -3 -19 -9 -9 -5 7 -14 10 -21 6 -8 -5 -10 -24
-5 -64 5 -42 13 -61 31 -76 27 -21 39 -75 21 -87 -15 -9 -37 10 -37 32 0 22
-24 32 -56 24 -24 -6 -70 -81 -63 -103 7 -18 54 12 57 37 4 29 16 28 30 -2 7
-17 21 -25 46 -28 45 -5 66 7 66 37 0 21 5 25 29 25 29 0 41 -14 41 -49 0 -15
-87 -91 -104 -91 -3 0 -6 7 -6 16 0 9 -7 14 -17 12 -20 -4 -28 -45 -18 -85 5
-20 11 -24 30 -21 26 5 35 -7 35 -48 0 -20 -5 -24 -30 -24 -20 0 -32 6 -36 18
-15 49 -36 59 -100 47 -34 -6 -34 -7 -34 -59 l0 -53 42 7 c24 4 51 11 61 15
10 4 36 2 57 -5 34 -11 42 -11 65 4 18 12 24 23 20 35 -4 13 1 20 16 24 19 5
20 8 9 21 -10 13 -10 16 3 16 8 0 18 7 21 16 4 11 17 14 53 12 40 -3 47 -6 48
-25 1 -13 4 -26 8 -29 12 -12 37 5 37 25 0 14 5 18 20 14 19 -5 28 -23 12 -23
-5 0 -9 -13 -9 -30 0 -16 3 -30 7 -30 8 0 9 -10 11 -92 1 -40 6 -69 16 -80 21
-24 8 -38 -35 -38 -39 0 -71 -14 -59 -26 4 -4 25 -1 46 6 22 7 53 10 70 7 17
-4 33 -2 36 3 8 14 141 13 184 -1 69 -22 81 -29 81 -45 0 -10 7 -26 17 -36 19
-21 10 -36 -11 -19 -16 13 -36 7 -36 -10 0 -5 10 -13 22 -18 13 -5 23 -17 23
-27 0 -10 8 -20 18 -22 12 -3 17 3 17 19 0 23 0 23 20 4 10 -11 21 -36 22 -55
l3 -35 -60 4 c-33 2 -63 8 -67 14 -5 8 -10 8 -20 0 -10 -8 -18 -8 -31 2 -16
11 -16 13 -2 19 26 9 6 28 -22 21 -29 -7 -55 19 -47 46 3 10 -5 23 -20 32 -21
14 -26 14 -36 2 -10 -12 -10 -18 1 -32 8 -9 14 -26 14 -37 0 -13 8 -22 20 -24
39 -8 47 -42 10 -42 -18 0 -25 5 -25 20 0 22 -20 26 -38 8 -10 -10 -15 -10
-20 -1 -5 8 -34 11 -82 10 -60 -2 -75 1 -75 13 0 8 9 15 20 16 66 3 75 5 75
18 0 19 -17 29 -32 20 -22 -14 -67 -10 -71 7 -3 12 -16 16 -46 16 -23 0 -44
-3 -47 -8 -5 -9 -91 -49 -105 -49 -20 0 -7 18 17 24 44 11 169 111 159 127 -6
9 -70 -13 -92 -33 -42 -37 -138 -98 -153 -98 -15 0 -17 7 -12 45 5 48 -16 95
-42 95 -8 0 -28 14 -46 30 -18 17 -34 30 -36 30 -2 0 -4 -34 -4 -75 0 -82 9
-96 78 -110 17 -4 32 -8 32 -9 0 -2 -10 -23 -23 -47 -19 -36 -29 -45 -55 -47
-24 -2 -32 -8 -32 -23 0 -18 8 -19 113 -20 61 -1 116 0 122 1 45 9 805 -6 815
-17 3 -3 -8 -15 -24 -28 l-28 -23 -499 6 c-370 3 -499 2 -499 -7 0 -8 39 -11
128 -12 70 0 181 -2 247 -4 66 -2 223 -6 350 -10 126 -3 230 -7 231 -8 1 -1
-18 -35 -43 -75 -41 -66 -45 -78 -47 -140 -1 -58 4 -78 29 -127 54 -108 142
-174 263 -200 92 -19 160 -19 293 0 143 20 232 40 314 70 39 15 84 30 101 34
17 5 84 34 148 65 96 46 128 68 184 124 54 54 72 81 94 137 22 58 30 70 49 70
17 0 24 -9 34 -40 26 -89 121 -199 204 -236 25 -12 53 -27 61 -35 25 -22 200
-81 291 -99 131 -25 365 -31 479 -11 119 20 264 86 303 138 58 76 70 157 37
254 -23 67 -20 89 13 81 45 -11 1237 -20 1237 -9 0 19 -64 21 -985 38 l-329 6
-33 28 -32 28 77 4 c83 4 453 1 917 -7 290 -5 385 -1 385 17 0 5 -13 7 -30 3
-17 -4 -36 -2 -43 3 -7 6 -43 12 -80 15 -38 3 -71 7 -73 10 -3 3 0 16 7 28
l12 23 8 -22 c10 -25 22 -28 38 -8 7 8 30 17 51 21 21 4 43 12 48 18 14 18 26
87 23 137 -4 88 -12 119 -32 125 -23 8 -87 -11 -112 -33 -14 -13 -25 -14 -56
-6 -33 9 -44 7 -76 -10 -37 -21 -55 -54 -69 -130 -8 -40 20 -81 62 -91 15 -3
32 -16 39 -30 10 -22 9 -26 -11 -31 -12 -3 -49 -4 -81 -2 -54 3 -60 5 -56 23
2 11 4 155 5 319 l1 300 48 3 c41 3 47 1 47 -16 0 -17 5 -19 35 -14 20 3 35 1
35 -4 0 -5 -10 -9 -22 -9 -14 1 -24 -6 -26 -17 -3 -15 0 -18 18 -12 15 5 28 0
47 -19 33 -34 60 -40 136 -33 54 5 65 3 85 -15 l22 -21 0 37 c0 32 -3 37 -28
42 l-28 6 -2 160 c-1 153 -2 160 -24 177 -13 10 -44 21 -70 24 -59 8 -98 -18
-98 -66 0 -54 -15 -63 -34 -22 -13 28 -15 43 -8 64 13 37 0 60 -25 45 -10 -6
-20 -21 -21 -34 -2 -13 -16 -41 -30 -63 l-27 -41 -5 70 c-3 38 -2 73 1 77 3 4
18 2 33 -5 24 -10 29 -10 37 5 6 9 28 26 49 37 21 11 43 27 48 36 8 13 15 11
55 -16 26 -17 52 -30 59 -28 7 1 35 -6 61 -16 27 -10 50 -16 53 -13 3 3 -10
10 -29 16 -19 7 -45 23 -57 36 -13 14 -32 25 -43 25 -10 0 -30 9 -44 20 -33
26 -36 26 -77 -10 -47 -42 -96 -61 -132 -51 -29 7 -29 8 -31 94 -3 143 -32
175 -146 163 -57 -6 -70 -12 -84 -33 -21 -31 -8 -78 22 -78 17 0 20 6 19 37
-1 34 1 38 30 43 17 4 49 4 71 2 l40 -4 6 -64 c4 -35 10 -129 13 -209 4 -80 9
-157 12 -172 4 -18 -3 -38 -20 -65 -25 -37 -25 -39 -11 -105 10 -48 12 -75 5
-93 -6 -15 -10 -37 -10 -51 0 -19 -5 -24 -26 -24 -21 0 -25 -4 -22 -22 2 -15
11 -24 25 -26 20 -3 22 -10 25 -85 2 -45 0 -100 -3 -122 l-6 -40 -8 40 c-15
79 -62 97 -115 45 -24 -23 -30 -38 -30 -70 0 -25 -5 -40 -12 -40 -7 0 -5 -5 5
-11 22 -13 147 7 160 25 4 6 5 -18 1 -54 -4 -36 -8 -66 -9 -68 -5 -6 -325 -3
-335 3 -16 10 -11 33 10 45 28 15 25 30 -5 30 -25 0 -33 14 -15 25 7 4 7 12 0
25 -18 33 10 34 38 2 27 -30 86 -48 109 -34 5 4 13 28 16 55 6 39 3 51 -13 67
-25 25 -54 25 -96 0 l-33 -21 -6 43 c-3 24 -4 97 -1 163 3 81 1 124 -6 133
-19 22 10 33 82 30 55 -1 66 1 68 16 2 11 -4 19 -17 23 -17 4 -21 13 -21 52 0
25 -3 56 -6 69 -4 15 -2 22 8 22 8 0 23 6 34 14 19 15 19 15 0 29 -20 15 -14
37 10 37 16 0 18 -10 14 -107 -2 -60 2 -79 20 -108 13 -21 29 -35 42 -35 15 0
18 4 12 17 -18 42 -27 465 -9 471 6 2 17 8 26 13 10 5 20 4 27 -3 17 -17 42 9
42 41 0 34 -17 51 -50 51 -26 0 -60 -26 -60 -46 0 -5 -10 -14 -22 -19 -13 -6
-28 -25 -34 -43 -10 -33 -49 -80 -59 -71 -3 3 -7 91 -10 195 -3 104 -9 200
-15 214 -5 14 -14 44 -20 67 -11 45 -58 93 -90 93 -34 0 -32 -20 4 -41 38 -22
44 -33 24 -45 -6 -4 -19 4 -30 19 -11 15 -28 27 -37 27 -26 0 -31 9 -21 36 6
15 5 26 -2 30 -15 10 -69 -57 -64 -79 3 -10 -2 -21 -9 -23 -11 -4 -13 -61 -13
-289 0 -155 -2 -288 -6 -294 -4 -6 -15 -11 -26 -11 -19 0 -21 9 -35 160 -12
119 -37 170 -63 123 -6 -10 -16 -14 -26 -10 -23 9 -20 26 8 37 31 11 36 21 29
49 -5 19 -11 22 -35 19 -21 -4 -33 1 -43 15 -12 18 -18 19 -40 9 -14 -6 -25
-17 -25 -23 0 -6 -19 -28 -41 -48 -34 -30 -40 -41 -35 -59 6 -17 13 -21 27
-17 28 9 23 -4 -13 -42 -27 -28 -31 -37 -21 -51 6 -9 16 -16 23 -14 17 4 37
-56 44 -136 6 -71 6 -73 -20 -84 -35 -16 -58 -1 -64 43 -6 39 -33 47 -38 12
-4 -25 -17 -31 -24 -10 -9 23 1 230 12 241 5 5 10 17 10 27 0 9 9 28 20 42 28
35 26 73 -7 100 -15 12 -54 50 -87 85 -39 40 -76 68 -101 76 l-40 14 -12 112
c-7 66 -18 121 -27 135 -23 35 -20 68 6 80 31 14 48 51 48 107 0 42 3 49 30
63 16 8 36 15 45 15 8 0 23 8 33 18 17 17 18 33 14 168 -4 147 -4 149 22 184
47 65 57 90 70 187 21 153 14 241 -34 384 -22 68 -46 127 -52 131 -9 5 -7 13
7 28 17 19 17 25 6 57 -28 76 -117 226 -154 260 -36 32 -43 35 -83 29 -40 -5
-45 -3 -58 22 -21 42 -108 86 -152 77 -29 -5 -41 -1 -74 25 -38 30 -40 31 -70
15 -18 -9 -43 -14 -58 -11 -15 3 -64 7 -109 8 -85 2 -95 6 -68 28 8 7 15 18
15 25 0 7 10 20 23 29 21 14 21 16 4 26 -22 14 -13 30 18 30 19 0 23 4 18 18
-3 9 -13 23 -22 30 -11 9 -16 29 -16 68 0 52 -7 66 -40 77 -11 4 5 61 42 155
29 74 25 82 -41 89 -26 3 -49 9 -52 14 -3 5 13 32 34 62 132 178 153 352 66
534 -102 213 -345 320 -573 253z m293 -62 c202 -78 314 -300 262 -519 -7 -30
-19 -66 -26 -80 -26 -47 -125 -141 -187 -175 -61 -35 -64 -35 -190 -37 l-128
-2 -69 35 c-132 67 -224 201 -233 340 -9 131 29 245 113 339 102 113 307 158
458 99z m241 -838 c3 -5 -8 -53 -25 -107 l-31 -98 -207 2 c-188 2 -413 -14
-440 -31 -21 -13 -42 6 -42 38 0 18 -7 55 -15 82 -25 84 -28 81 80 100 30 5
32 4 45 -43 14 -45 18 -48 55 -55 62 -10 90 8 90 57 l0 40 80 8 c44 4 96 6
115 5 32 -3 35 -6 40 -38 l5 -35 65 0 65 0 1 35 c0 19 1 38 2 43 3 11 110 9
117 -3z m-147 -24 c6 -31 -43 -50 -54 -21 -8 20 15 47 35 43 9 -2 17 -12 19
-22z m-393 -16 c0 -22 -29 -18 -33 3 -3 14 1 18 15 15 10 -2 18 -10 18 -18z
m175 -205 c0 -18 21 -20 38 -3 8 8 15 8 27 -2 12 -10 18 -10 30 0 10 9 19 9
28 2 6 -5 31 -13 54 -17 51 -8 62 -21 37 -41 -18 -13 -18 -14 4 -20 12 -3 22
-10 22 -13 0 -18 -14 -18 -43 -1 -27 15 -42 17 -90 10 -32 -5 -64 -13 -71 -19
-18 -15 -18 -77 -1 -91 19 -15 45 -6 45 16 0 13 3 14 14 5 11 -9 25 -9 58 -1
l43 12 -23 18 c-12 10 -22 21 -22 24 0 13 28 5 45 -14 10 -11 26 -20 35 -20
13 0 19 -12 24 -42 6 -34 2 -51 -19 -91 -18 -36 -25 -63 -24 -98 2 -45 -1 -51
-40 -89 -47 -46 -90 -59 -127 -40 -31 17 -30 23 6 37 17 6 30 16 30 21 0 10
-99 21 -120 14 -17 -6 -11 -30 10 -45 20 -14 19 -15 -14 -20 -23 -4 -47 1 -76
15 -44 22 -53 32 -105 120 -27 48 -32 65 -28 100 9 84 9 84 50 83 21 0 44 -4
51 -9 9 -5 22 0 37 14 l23 22 11 -21 c15 -27 38 -27 46 -1 18 57 -34 91 -127
82 -32 -2 -58 -2 -58 2 0 21 23 46 43 46 12 0 54 16 92 35 80 39 85 40 85 20z
m-190 -145 c0 -5 -7 -10 -16 -10 -8 0 -12 5 -9 10 3 6 10 10 16 10 5 0 9 -4 9
-10z m390 -390 c0 -5 -7 -10 -15 -10 -8 0 -15 5 -15 10 0 6 7 10 15 10 8 0 15
-4 15 -10z m-101 -30 c38 -19 42 -24 36 -48 -11 -46 -27 -55 -74 -42 -22 6
-41 15 -41 20 0 20 -19 9 -56 -30 -21 -22 -43 -40 -50 -40 -29 0 -157 -60
-182 -86 -15 -16 -45 -42 -65 -57 -36 -27 -37 -29 -37 -97 0 -118 -35 -92 -47
35 l-6 61 61 52 c57 50 82 86 68 100 -4 3 -19 -10 -35 -29 -16 -19 -32 -31
-35 -28 -10 9 37 85 65 107 28 22 138 79 189 98 51 19 157 11 209 -16z m571
14 c0 -2 -9 -4 -21 -4 -11 0 -18 4 -14 10 5 8 35 3 35 -6z m-456 -52 c3 -9 2
-32 -3 -49 -5 -18 -7 -42 -4 -54 6 -20 4 -22 -28 -15 -18 3 -40 13 -48 21 -13
13 -12 17 6 37 12 13 26 35 32 51 12 31 37 36 45 9z m300 -11 c73 -13 129 -38
123 -53 -2 -7 -13 -12 -23 -10 -10 1 -75 9 -144 18 -167 20 -194 26 -198 44
-2 13 13 15 93 13 52 -1 120 -7 149 -12z m271 -41 c4 -6 -5 -10 -19 -10 -14 0
-26 5 -26 10 0 6 9 10 19 10 11 0 23 -4 26 -10z m-78 -26 c-3 -3 -12 -4 -19
-1 -8 3 -5 6 6 6 11 1 17 -2 13 -5z m228 -30 c16 -24 16 -25 -3 -15 -10 5 -24
17 -32 25 -10 13 -10 16 3 16 8 0 22 -12 32 -26z m-89 -19 c4 -15 13 -25 24
-25 33 0 49 -11 84 -59 73 -99 99 -244 51 -289 -17 -16 -17 -16 -12 8 3 14 9
48 12 75 6 46 4 54 -30 105 -36 52 -120 139 -182 187 l-28 22 37 1 c32 0 39
-4 44 -25z m-706 -30 c25 -24 31 -26 64 -16 33 9 44 6 104 -25 73 -38 126 -91
168 -168 39 -71 54 -139 54 -246 l0 -96 -55 -54 c-42 -41 -57 -64 -62 -93 -7
-45 -58 -93 -143 -135 -51 -25 -64 -27 -180 -27 -115 0 -130 2 -183 27 -108
51 -215 164 -251 265 -19 55 -27 177 -15 231 25 111 107 229 197 286 65 40
160 73 219 75 48 1 60 -2 83 -24z m-567 -267 c26 -85 -2 -134 -30 -52 -8 21
-22 48 -33 59 -20 19 -20 19 8 48 30 32 27 34 55 -55z m1562 62 c3 -6 -1 -7
-9 -4 -18 7 -21 14 -7 14 6 0 13 -4 16 -10z m-469 -292 c11 -16 6 -188 -5
-188 -11 0 -21 63 -21 138 0 60 8 75 26 50z m-133 -134 c3 -4 -5 -21 -19 -40
-55 -72 -7 -106 85 -60 28 14 61 26 74 26 13 0 28 5 35 12 17 17 20 10 23 -57
4 -97 0 -135 -15 -135 -7 0 -44 -35 -82 -77 -139 -156 -137 -154 -186 -148
-114 16 -108 13 -108 52 0 26 4 34 14 30 10 -4 26 10 45 40 33 49 35 56 32
118 -3 62 26 205 45 226 17 19 45 25 57 13z m-389 -270 c26 -10 7 -25 -22 -18
-39 9 -51 24 -20 24 15 0 33 -3 42 -6z m156 -20 c0 -3 -6 -12 -14 -20 -11 -10
-17 -11 -22 -3 -3 6 0 15 7 20 16 10 29 12 29 3z m0 -154 c-3 -47 -9 -78 -12
-70 -26 72 -26 79 -6 120 11 22 21 40 23 38 1 -2 -1 -41 -5 -88z m-57 -62 c2
-18 4 -34 3 -35 0 -1 -12 7 -25 18 -19 16 -21 22 -11 34 19 23 27 18 33 -17z
m-438 -187 c3 -5 1 -12 -5 -16 -5 -3 -10 1 -10 9 0 18 6 21 15 7z m275 -62
c34 -17 59 -33 56 -36 -3 -3 -36 2 -73 10 -37 9 -83 19 -100 22 -18 4 -33 10
-33 14 0 33 77 27 150 -10z m-653 -23 c36 -10 84 -38 162 -96 61 -46 111 -84
111 -86 0 -1 -28 10 -62 26 -35 15 -63 34 -63 41 0 7 -11 19 -25 26 -13 7 -29
18 -35 26 -12 17 -94 29 -195 31 -71 0 -96 9 -83 29 2 4 31 7 64 6 32 -1 62 1
66 4 3 4 7 7 7 7 1 0 24 -6 53 -14z m-217 -13 c-1 -27 -60 -57 -60 -31 0 8 5
19 12 26 13 13 48 16 48 5z m1157 -19 c-3 -3 -12 -4 -19 -1 -8 3 -5 6 6 6 11
1 17 -2 13 -5z m-97 -55 c27 -6 50 -15 50 -20 0 -11 -51 -3 -107 17 -48 17
-16 19 57 3z m-375 -55 c20 -8 35 -18 32 -21 -8 -8 -77 17 -77 28 0 12 1 12
45 -7z m66 -41 c13 -16 12 -17 -3 -4 -10 7 -18 15 -18 17 0 8 8 3 21 -13z
m-206 -23 c3 -6 -1 -7 -9 -4 -18 7 -21 14 -7 14 6 0 13 -4 16 -10z m1160 -32
c-2 -18 -7 -53 -11 -78 -8 -66 -16 -80 -23 -45 -4 18 2 55 13 92 22 70 29 79
21 31z m901 -50 c0 -18 3 -134 7 -258 4 -124 8 -290 9 -370 l2 -145 -25 -3
c-48 -7 -59 -37 -34 -94 5 -14 2 -18 -14 -18 -25 0 -39 -26 -23 -42 8 -8 15
-8 27 2 13 11 15 9 15 -14 0 -25 -2 -26 -61 -26 -51 0 -60 3 -55 15 8 22 -22
31 -37 11 -11 -15 -21 -16 -71 -8 -32 5 -66 7 -75 5 -31 -8 -70 15 -85 51 -20
47 -49 61 -96 47 -51 -15 -69 -39 -71 -94 -2 -48 -19 -53 -19 -7 1 102 4 114
35 132 25 14 38 16 67 8 44 -13 84 -43 103 -79 11 -23 23 -29 61 -35 25 -3 50
-3 56 0 12 8 -20 44 -41 45 -24 1 -81 83 -70 100 5 8 7 39 4 69 -5 55 -9 199
-6 278 1 35 4 42 21 42 25 0 26 16 3 29 -14 8 -6 10 34 11 28 0 55 -4 58 -10
3 -5 7 -119 9 -252 3 -204 6 -248 21 -275 19 -38 21 -38 64 -17 34 17 37 39 5
39 -13 0 -20 8 -22 27 -3 22 0 26 17 21 12 -3 21 -13 21 -23 0 -20 17 -30 38
-22 10 3 11 86 6 421 -4 235 -11 421 -16 428 -11 14 19 33 53 33 18 0 19 -3 9
-15 -16 -19 -4 -35 26 -35 26 0 47 31 26 38 -15 5 -5 22 12 22 7 0 12 -13 12
-32z m-2766 -59 l0 -59 -42 6 c-24 4 -45 8 -47 10 -8 7 33 86 52 99 30 21 37
10 37 -56z m2078 31 c12 -16 18 -31 13 -34 -8 -6 -51 43 -51 58 0 14 16 3 38
-24z m-890 -61 c12 -5 22 -11 22 -14 0 -10 -66 8 -80 22 -13 13 -12 14 10 8
14 -4 35 -11 48 -16z m983 -37 c15 -13 20 -25 16 -36 -4 -10 -11 -15 -16 -11
-5 3 -17 -5 -25 -17 -20 -28 -31 -16 -40 40 -6 39 -5 42 18 42 13 0 34 -8 47
-18z m-891 -22 c0 -5 -7 -7 -15 -4 -8 4 -15 8 -15 10 0 2 7 4 15 4 8 0 15 -4
15 -10z m-1276 -42 c4 -23 3 -45 -1 -49 -4 -4 -36 -11 -70 -15 -62 -6 -63 -6
-63 17 0 24 23 67 44 81 6 4 27 8 47 8 35 0 37 -2 43 -42z m-635 -2 c5 -13 11
-98 12 -190 l3 -167 -33 -32 c-26 -27 -33 -30 -41 -17 -7 11 -8 406 -1 428 1
1 12 2 26 2 18 0 28 -7 34 -24z m1997 -3 c-8 -8 -36 5 -36 17 0 7 6 7 21 0 11
-7 18 -14 15 -17z m724 -38 c7 -8 19 -15 27 -15 12 0 14 -18 9 -112 -11 -223
-16 -418 -18 -700 0 -158 -4 -292 -8 -297 -4 -8 -24 -8 -66 -1 -75 13 -216 51
-228 62 -6 5 1 19 17 36 23 24 26 35 25 95 0 37 2 70 6 74 3 3 17 0 31 -7 14
-7 27 -11 30 -8 3 3 7 31 9 61 2 39 9 64 22 78 16 18 19 37 19 130 0 78 3 109
12 109 7 0 24 16 39 35 24 32 26 39 20 112 -17 236 -18 320 -7 341 14 25 43
29 61 7z m-380 -3 c0 -13 -12 -22 -22 -16 -10 6 -1 24 13 24 5 0 9 -4 9 -8z
m-1702 -317 c2 -209 3 -220 24 -242 12 -13 32 -23 45 -23 36 0 59 -16 72 -49
11 -25 22 -32 79 -47 91 -24 109 -37 117 -85 6 -34 3 -45 -15 -64 -22 -23 -22
-24 -5 -70 10 -25 26 -50 37 -56 14 -8 16 -14 8 -28 -7 -15 -26 -20 -82 -25
-123 -11 -212 -26 -277 -46 -51 -15 -64 -16 -75 -5 -15 15 -29 378 -28 729 0
197 1 200 24 218 13 10 34 17 48 16 l25 -3 3 -220z m-901 179 c25 -7 49 -71
40 -106 -3 -10 -1 -47 4 -81 9 -60 8 -63 -19 -85 -15 -12 -34 -29 -43 -37 -9
-8 -20 -15 -25 -15 -10 0 -10 302 0 319 8 13 12 13 43 5z m3832 -59 c-1 -62
-2 -65 -25 -65 -21 0 -24 4 -24 39 0 26 7 48 23 65 12 14 23 26 24 26 1 0 2
-29 2 -65z m-1149 -33 c0 -13 -12 -22 -22 -16 -10 6 -1 24 13 24 5 0 9 -4 9
-8z m1678 -61 c3 -20 1 -23 -15 -16 -10 4 -28 7 -40 6 -17 0 -23 5 -23 20 0
17 5 20 38 17 30 -2 38 -7 40 -27z m-888 -16 c-16 -19 -30 -19 -30 0 0 17 33
38 38 24 2 -5 -2 -16 -8 -24z m-394 -128 c2 -101 -3 -116 -35 -117 -9 0 -10 4
-3 13 5 6 13 56 17 110 4 53 10 97 13 97 4 0 8 -46 8 -103z m-2707 33 c29 -33
50 -64 47 -69 -4 -5 -29 -9 -56 -8 -43 2 -53 6 -63 27 -7 14 -21 24 -30 24
-23 -2 -23 43 0 68 27 30 47 21 102 -42z m2391 40 c0 -5 -5 -10 -11 -10 -5 0
-7 5 -4 10 3 6 8 10 11 10 2 0 4 -4 4 -10z m1592 5 c3 -4 1 -17 -6 -30 -12
-27 -81 -43 -71 -17 3 7 5 22 5 33 0 15 7 19 33 19 19 0 36 -2 39 -5z m-4218
-13 c3 -5 -1 -9 -9 -9 -8 0 -12 4 -9 9 3 4 7 8 9 8 2 0 6 -4 9 -8z m3343 -18
c-3 -3 -12 -4 -19 -1 -8 3 -5 6 6 6 11 1 17 -2 13 -5z m-3387 -8 c0 -2 -8 -10
-17 -17 -16 -13 -17 -12 -4 4 13 16 21 21 21 13z m-182 -65 c48 -55 63 -81 45
-81 -12 0 -113 73 -113 83 0 5 -19 -5 -42 -22 -23 -17 -44 -28 -47 -26 -5 6
89 105 99 105 3 0 29 -27 58 -59z m1089 27 c33 -12 34 -14 31 -63 -3 -47 -5
-50 -31 -53 -43 -5 -57 13 -57 74 0 59 3 61 57 42z m2476 -15 c-7 -2 -19 -2
-25 0 -7 3 -2 5 12 5 14 0 19 -2 13 -5z m-2734 -95 c1 -10 -3 -18 -9 -18 -17
0 -80 73 -80 93 0 17 7 14 44 -19 24 -22 45 -47 45 -56z m1521 61 c0 -15 5
-31 11 -35 14 -8 29 14 29 44 0 15 6 22 19 22 26 0 29 -7 37 -73 l7 -56 -34
-14 c-19 -8 -40 -11 -48 -7 -7 4 -30 4 -50 -1 -88 -21 -94 -16 -106 74 -6 46
-5 48 23 60 17 7 48 13 71 13 39 1 41 0 41 -27z m920 17 c0 -8 -9 -14 -19 -13
-15 1 -17 4 -9 14 14 17 28 16 28 -1z m-2702 -32 c-10 -10 -28 6 -28 24 0 15
1 15 17 -1 9 -9 14 -19 11 -23z m683 16 c45 -10 86 -23 90 -27 7 -7 29 -119
29 -146 0 -5 -6 -7 -12 -4 -7 2 -21 -2 -30 -10 -15 -13 -19 -13 -40 1 -12 9
-33 16 -46 16 -30 0 -82 27 -83 43 0 6 -2 38 -5 70 -4 51 -1 77 11 77 2 0 41
-9 86 -20z m1273 -3 c12 -9 17 -28 18 -65 1 -52 17 -80 38 -67 7 4 10 28 8 59
-3 45 -1 51 18 54 11 2 31 -5 44 -16 18 -15 22 -28 22 -66 -2 -85 -2 -86 -90
-80 -42 3 -81 10 -87 15 -5 6 -12 48 -14 94 -3 90 3 101 43 72z m-2357 -27 c3
-11 10 -20 15 -20 5 0 12 9 15 20 6 23 31 27 39 5 4 -8 10 -15 15 -15 5 0 9 7
9 15 0 8 7 15 16 15 10 0 14 -7 12 -22 -2 -17 -9 -22 -24 -20 -40 5 -70 -16
-108 -78 -32 -51 -37 -66 -28 -83 36 -77 39 -114 8 -88 -8 7 -19 10 -24 7 -27
-16 -24 134 3 164 15 16 15 23 4 54 -10 28 -10 38 0 50 18 22 42 20 48 -4z
m3403 1 c0 -10 -7 -22 -16 -25 -23 -9 -24 -8 -24 19 0 18 5 25 20 25 13 0 20
-7 20 -19z m-1852 -10 c108 -54 256 -56 356 -4 38 20 46 7 46 -74 0 -46 -4
-63 -14 -63 -17 0 -70 -49 -62 -57 4 -4 22 -1 41 6 43 15 55 9 55 -29 0 -16 5
-32 11 -36 6 -3 8 -15 6 -26 -3 -10 2 -32 11 -47 16 -28 15 -31 -17 -94 -29
-56 -32 -70 -23 -95 11 -33 1 -52 -28 -52 -29 0 -134 -93 -146 -130 -6 -19
-18 -39 -26 -44 -22 -13 -48 0 -48 25 0 40 -77 129 -130 150 -10 4 -14 18 -12
45 3 30 -2 44 -18 59 -11 10 -30 34 -41 52 -19 31 -20 36 -6 51 17 19 14 47
-15 129 -9 23 -13 45 -10 48 9 9 144 5 192 -6 70 -16 148 -22 167 -14 28 12
-204 54 -298 55 -43 0 -60 5 -74 20 -26 28 -45 25 -51 -10 -9 -43 -27 -54 -65
-41 -18 6 -49 11 -69 11 -34 0 -38 3 -48 39 -14 46 -16 135 -3 126 6 -3 34
-10 64 -15 44 -9 61 -7 93 7 21 9 57 20 79 23 22 4 41 8 43 9 1 0 19 -7 40
-18z m454 -33 c4 -52 -9 -108 -24 -108 -4 0 -8 36 -8 80 0 62 3 80 14 80 10 0
15 -16 18 -52z m2275 35 c4 -11 -54 -29 -64 -19 -3 3 -3 12 1 21 7 19 57 17
63 -2z m-4631 -19 c-11 -7 -22 -12 -25 -9 -2 3 4 12 15 19 10 8 21 12 24 9 3
-2 -4 -11 -14 -19z m711 -28 c4 -3 4 -9 0 -12 -8 -9 -186 -7 -248 2 l-54 8 40
6 c52 7 254 4 262 -4z m3893 -12 c0 -2 -9 -4 -20 -4 -11 0 -20 4 -20 9 0 5 9
7 20 4 11 -3 20 -7 20 -9z m-3637 -44 c4 -15 14 -20 36 -20 17 0 31 -4 31 -10
0 -5 -14 -10 -31 -10 -36 0 -35 -21 1 -30 35 -8 38 -31 3 -28 -39 4 -42 -15
-3 -28 42 -14 43 -28 2 -32 -38 -4 -39 -25 -1 -31 43 -6 47 -35 5 -51 -20 -8
-20 -8 7 -19 36 -14 34 -27 -7 -41 -46 -15 -73 -46 -59 -68 5 -9 21 -17 34
-17 18 0 25 6 27 25 5 32 22 51 23 25 2 -27 -2 -79 -6 -83 -9 -10 -90 23 -118
47 -28 26 -30 31 -19 55 6 14 18 26 27 26 22 0 18 27 -5 33 -11 3 -20 13 -20
22 0 12 5 15 20 10 14 -5 20 -2 20 10 0 12 -6 15 -19 10 -14 -4 -21 0 -26 14
-3 10 -15 21 -25 24 -18 5 -20 14 -20 96 l0 91 59 0 c50 0 59 -3 64 -20z
m2471 -36 c9 -3 16 -17 16 -30 0 -15 7 -27 18 -30 9 -3 25 -10 35 -15 10 -5
22 -7 27 -4 6 4 10 2 10 -4 0 -19 -18 -21 -46 -6 -16 8 -38 15 -49 15 -29 0
-45 19 -45 52 0 29 6 33 34 22z m-2834 -48 c0 -11 -42 -112 -50 -120 -5 -5
-10 -18 -10 -27 0 -24 -16 -32 -39 -20 -13 7 -17 18 -14 31 6 24 -21 38 -42
20 -16 -14 -35 -5 -35 16 0 8 -7 14 -17 12 -12 -2 -19 7 -24 32 -9 43 4 60 29
37 23 -21 42 -22 42 -2 0 8 7 15 15 15 8 0 15 -6 15 -14 0 -8 5 -18 11 -22 14
-8 29 14 22 33 -4 10 6 13 46 12 28 -1 51 -3 51 -3z m2210 -2 c31 -7 32 -9 26
-43 -7 -47 9 -149 28 -170 10 -11 12 -32 8 -74 -4 -57 -5 -58 -31 -52 -14 4
-52 9 -85 10 -32 2 -62 7 -66 12 -4 4 -12 28 -18 53 -13 55 0 125 29 157 27
28 21 64 -14 81 -15 7 -25 17 -22 23 7 10 97 12 145 3z m-300 -25 c0 -18 -30
-30 -49 -19 -14 7 -27 7 -39 1 -20 -11 -62 -4 -62 9 0 5 8 10 18 12 27 7 132
4 132 -3z m-1830 -19 c0 -11 4 -20 9 -20 5 0 13 9 16 20 8 26 23 25 58 -3 20
-15 26 -27 22 -40 -9 -23 -21 -22 -28 4 -7 26 -31 20 -35 -9 -3 -18 -7 -20
-23 -12 -10 6 -19 17 -19 24 0 8 -6 19 -14 25 -11 9 -18 8 -30 -4 -15 -15 -16
-15 -16 3 0 25 8 32 37 32 16 0 23 -6 23 -20z m1118 -13 c6 -7 15 -31 20 -53
8 -36 7 -43 -15 -62 l-25 -22 20 -23 c11 -12 37 -41 57 -64 l36 -42 -21 -40
c-11 -23 -25 -41 -31 -41 -5 0 -3 10 5 22 20 29 20 39 0 31 -13 -5 -15 -2 -9
18 8 24 8 24 -14 5 -31 -28 -37 -13 -11 28 18 30 19 36 6 36 -9 0 -16 8 -16
17 0 14 -4 12 -25 -7 -14 -13 -25 -19 -25 -13 0 6 7 16 15 23 18 15 11 30 -13
24 -9 -2 -24 0 -32 6 -13 8 -13 13 3 41 12 22 14 35 7 44 -13 16 -2 45 25 67
24 21 30 22 43 5z m1792 -42 c7 -14 10 -28 7 -32 -8 -8 -36 26 -37 45 0 20 16
14 30 -13z m-964 -27 c-19 -26 -20 -20 -5 19 6 15 13 22 16 16 2 -7 -3 -23
-11 -35z m-1971 3 c-3 -6 -11 -11 -17 -11 -6 0 -6 6 2 15 14 17 26 13 15 -4z
m3025 -26 c0 -19 4 -44 9 -57 10 -27 -16 -68 -43 -68 -8 0 -18 -4 -21 -10 -9
-15 -25 -12 -25 5 0 7 -6 18 -14 22 -15 8 -33 63 -22 63 3 0 15 -5 25 -12 25
-15 51 4 51 39 0 31 18 65 31 58 5 -4 9 -21 9 -40z m200 -19 c0 -54 -14 -82
-26 -52 -6 16 -35 22 -47 9 -4 -3 0 -14 8 -23 14 -15 14 -18 1 -23 -27 -11
-56 4 -56 29 0 14 6 24 14 24 7 0 19 7 26 15 9 11 16 12 25 5 9 -8 17 -6 29 5
20 20 20 29 2 44 -16 13 -46 5 -46 -13 0 -7 -15 -12 -35 -13 -19 -1 -33 2 -32
5 2 4 6 14 9 22 4 11 23 16 67 18 l61 2 0 -54z m-3270 37 c0 -5 -7 -17 -15
-27 -15 -20 -20 -10 -9 18 6 16 24 22 24 9z m240 -23 c0 -16 -4 -30 -10 -30
-11 0 -14 43 -3 53 11 12 13 8 13 -23z m2577 23 c-10 -9 -66 -10 -60 0 2 4 18
7 35 7 17 0 28 -3 25 -7z m62 -26 c-10 -22 -67 -47 -108 -47 -11 0 -25 -9 -31
-20 -12 -23 -30 -27 -30 -6 0 21 45 46 95 53 35 4 45 10 45 24 0 12 7 19 20
19 17 0 18 -3 9 -23z m1177 2 c10 -17 -13 -36 -27 -22 -12 12 -4 33 11 33 5 0
12 -5 16 -11z m-135 -42 c25 -9 25 -108 0 -132 -17 -14 -25 -15 -55 -5 -26 8
-36 17 -36 32 0 15 5 18 16 14 23 -9 57 23 44 39 -6 7 -18 11 -28 8 -13 -3
-17 3 -17 24 -1 36 24 57 45 39 8 -7 22 -16 31 -19z m-2106 -30 c-14 -18 -35
-43 -45 -55 -11 -13 -20 -28 -20 -33 0 -5 -4 -9 -10 -9 -5 0 -10 9 -10 20 0
11 5 20 11 20 12 0 48 40 49 54 0 16 32 46 42 40 5 -3 -3 -20 -17 -37z m-1710
-7 c3 -5 1 -10 -4 -10 -6 0 -11 5 -11 10 0 6 2 10 4 10 3 0 8 -4 11 -10z
m1777 -12 c-7 -7 -12 -8 -12 -2 0 14 12 26 19 19 2 -3 -1 -11 -7 -17z m2168
12 c0 -5 -5 -10 -11 -10 -5 0 -7 5 -4 10 3 6 8 10 11 10 2 0 4 -4 4 -10z
m-2970 -9 c0 -16 -41 -61 -56 -61 -11 0 -7 10 13 35 27 34 43 44 43 26z m30
-23 c-16 -29 -51 -68 -62 -68 -13 0 11 41 41 70 31 30 37 30 21 -2z m910 24
c0 -5 -6 -17 -14 -28 -19 -25 -31 -12 -14 15 13 21 28 28 28 13z m760 -26 c0
-7 -8 -20 -18 -29 -16 -15 -19 -15 -30 3 -11 17 -10 20 8 20 11 0 20 7 20 16
0 8 5 12 10 9 6 -3 10 -12 10 -19z m128 7 c12 -3 22 -11 22 -18 0 -8 3 -20 6
-28 13 -35 -60 -63 -85 -33 -9 11 -5 15 19 19 39 8 39 32 -2 58 -28 18 -29 20
-8 14 14 -4 35 -9 48 -12z m-1087 -26 c-16 -16 -26 0 -10 19 9 11 15 12 17 4
2 -6 -1 -17 -7 -23z m520 17 c10 -13 10 -17 -2 -25 -20 -13 -34 -6 -37 19 -4
26 19 30 39 6z m924 -33 c-23 -22 -85 -38 -85 -23 0 6 19 21 43 35 47 26 74
19 42 -12z m-130 9 c-3 -5 -11 -10 -16 -10 -6 0 -7 5 -4 10 3 6 11 10 16 10 6
0 7 -4 4 -10z m-2005 -9 c0 -4 -12 -20 -26 -35 -34 -33 -21 -34 18 -1 17 14
33 24 35 21 8 -8 -34 -70 -56 -84 -12 -7 -21 -19 -21 -27 0 -17 -47 -51 -57
-41 -4 3 5 19 19 34 32 34 40 56 25 71 -9 10 -4 19 21 42 34 31 42 34 42 20z
m714 -6 c-4 -8 -10 -15 -15 -15 -4 0 -6 7 -3 15 4 8 10 15 15 15 4 0 6 -7 3
-15z m198 -120 c-15 -22 -43 -69 -62 -104 -34 -62 -60 -88 -60 -59 0 7 27 56
61 107 46 73 59 100 54 118 l-6 25 -34 -27 c-34 -25 -51 -21 -19 6 8 7 22 26
31 42 l15 30 24 -49 23 -49 -27 -40z m-1707 82 c22 -8 49 -18 59 -21 15 -5 16
-10 8 -18 -9 -9 -18 -8 -38 1 -19 8 -30 9 -39 1 -7 -6 -26 -10 -41 -8 -36 4
-44 -24 -12 -40 20 -10 18 -11 -22 -9 -43 2 -45 4 -48 34 -2 23 5 40 29 67 28
33 33 35 48 22 9 -8 34 -21 56 -29z m1443 1 c-2 -6 -10 -14 -16 -16 -7 -2 -10
2 -6 12 7 18 28 22 22 4z m1380 -44 l-3 -39 -45 0 c-37 0 -45 3 -48 20 -2 14
10 28 40 47 24 15 47 23 51 19 5 -5 7 -26 5 -47z m-2280 37 c11 -7 10 -18 -3
-65 -10 -33 -22 -56 -28 -54 -7 2 -23 25 -36 51 -30 61 -61 64 -112 11 -18
-20 -63 -58 -98 -85 l-65 -49 -124 1 c-169 0 -188 -18 -63 -63 36 -13 66 -28
68 -35 3 -7 -15 -26 -39 -43 -78 -57 -188 -154 -188 -167 0 -21 50 -15 105 12
28 14 58 25 68 25 10 0 44 13 75 29 32 16 83 37 114 46 51 14 60 14 92 1 21
-9 40 -26 46 -41 12 -31 26 -32 51 -2 15 19 18 19 19 5 0 -17 45 -37 56 -25 8
8 198 -56 221 -75 19 -15 68 -6 67 13 -1 9 -20 41 -43 71 -22 30 -41 59 -41
64 0 5 15 21 33 36 24 18 45 53 72 115 45 105 46 106 95 131 l39 19 48 -26
c54 -30 93 -81 93 -122 0 -41 -35 -124 -71 -169 -39 -48 -127 -118 -194 -153
-59 -31 -329 -122 -430 -144 -92 -20 -282 -24 -370 -9 -166 30 -305 151 -305
265 0 49 54 151 108 204 47 46 142 109 185 123 12 4 50 20 84 36 111 51 427
98 471 69z m1003 -24 c-8 -8 -11 -7 -11 4 0 20 13 34 18 19 3 -7 -1 -17 -7
-23z m-2423 -6 c-14 -19 -33 -30 -48 -30 -15 -1 -31 -6 -37 -12 -14 -14 -95
-7 -101 9 -2 8 7 12 28 12 39 0 151 28 165 41 19 19 16 8 -7 -20z m3335 10
c15 -8 27 -19 27 -24 0 -5 -7 -4 -15 3 -12 10 -19 10 -28 1 -9 -9 -9 -14 3
-21 11 -7 3 -10 -27 -10 -24 0 -43 4 -43 9 0 4 12 6 27 3 25 -5 26 -3 20 27
-4 18 -3 31 1 29 4 -2 19 -10 35 -17z m-1787 -29 c-23 -23 -33 -6 -10 19 12
13 20 16 22 9 3 -7 -3 -19 -12 -28z m1316 18 c236 -47 372 -102 432 -171 87
-102 107 -215 50 -285 -59 -73 -197 -125 -386 -143 -92 -9 -114 -9 -233 4 -91
10 -234 50 -355 98 -174 68 -243 144 -267 292 -3 18 4 49 16 77 18 42 28 52
85 80 64 31 66 32 100 15 44 -20 62 -49 71 -109 l6 -48 -46 0 c-50 0 -59 -18
-14 -31 93 -26 118 -35 152 -51 36 -18 50 -49 28 -63 -13 -8 -71 -116 -71
-132 0 -28 96 -1 228 66 111 55 128 58 211 36 275 -71 339 -83 347 -62 7 20
-16 46 -109 119 -43 34 -76 66 -74 72 4 11 37 31 69 40 11 3 15 11 12 20 -4
11 -27 14 -104 14 -109 -1 -102 -4 -216 95 -30 26 -59 47 -65 47 -5 0 -21 -12
-34 -26 -23 -25 -25 -25 -31 -8 -3 11 -10 27 -15 37 -5 10 -7 22 -4 27 10 16
113 11 217 -10z m402 5 c-4 -8 -8 -15 -10 -15 -2 0 -4 7 -4 15 0 8 4 15 10 15
5 0 7 -7 4 -15z m-2584 -37 c0 -10 -4 -18 -10 -18 -5 0 -10 15 -10 33 0 24 3
28 10 17 5 -8 10 -23 10 -32z m1012 20 c-6 -6 -15 -8 -19 -4 -4 4 -1 11 7 16
19 12 27 3 12 -12z m-192 5 c-1 -9 -47 -63 -54 -63 -8 0 6 33 22 53 16 17 32
23 32 10z m84 -23 c-20 -33 -44 -47 -44 -25 0 17 35 55 51 55 5 0 2 -13 -7
-30z m-1524 16 c0 -3 -4 -8 -10 -11 -5 -3 -10 -1 -10 4 0 6 5 11 10 11 6 0 10
-2 10 -4z m2336 -23 c-10 -10 -19 5 -10 18 6 11 8 11 12 0 2 -7 1 -15 -2 -18z
m94 -3 c0 -6 -18 -30 -40 -52 -47 -49 -54 -33 -9 23 30 38 49 49 49 29z m130
-24 c0 -14 -70 -99 -77 -93 -3 4 27 66 51 105 9 14 26 7 26 -12z m-1306 -17
c42 -50 38 -54 -68 -58 -40 -1 -67 2 -65 7 5 13 89 82 99 82 5 0 20 -14 34
-31z m346 22 c0 -12 -20 -25 -27 -18 -7 7 6 27 18 27 5 0 9 -4 9 -9z m831 -60
c-17 -26 -31 -53 -31 -59 0 -22 -20 -22 -43 2 -24 24 -26 46 -2 26 7 -6 25 8
55 47 51 66 66 55 21 -16z m-1011 23 c-18 -21 -24 -10 -9 18 8 14 14 18 17 10
2 -7 -2 -19 -8 -28z m1293 -9 c22 -19 44 -35 49 -35 4 0 8 -4 8 -10 0 -6 -32
-10 -75 -10 -53 0 -75 4 -75 13 0 14 37 77 46 77 3 0 24 -16 47 -35z m-1110 0
c-3 -9 -8 -14 -10 -11 -3 3 -2 9 2 15 9 16 15 13 8 -4z m-159 -18 c-3 -8 -12
-18 -20 -21 -20 -8 -18 21 3 33 21 12 25 9 17 -12z m100 -18 c-9 -10 -21 -19
-26 -19 -15 0 -8 20 14 42 27 27 39 6 12 -23z m1026 27 c0 -8 -17 -37 -37 -64
-21 -28 -43 -59 -49 -68 -6 -10 -15 -14 -22 -10 -12 7 11 44 74 120 34 40 34
40 34 22z m-1086 -17 c-12 -13 -20 -16 -22 -9 -3 7 2 16 9 21 25 16 32 9 13
-12z m-104 -3 c0 -8 -4 -18 -10 -21 -5 -3 -10 3 -10 14 0 12 5 21 10 21 6 0
10 -6 10 -14z m210 -1 c0 -13 -94 -124 -101 -119 -12 7 1 29 46 82 32 37 55
52 55 37z m-307 -59 c-11 -11 -27 -33 -36 -47 -15 -25 -33 -32 -112 -45 -33
-5 -136 33 -142 53 -9 26 47 45 169 57 68 7 127 10 131 8 5 -2 0 -14 -10 -26z
m167 16 c0 -11 -49 -62 -60 -62 -16 0 -11 13 17 42 26 27 43 35 43 20z m1103
-43 c-27 -49 -47 -68 -60 -56 -11 11 60 107 79 107 5 0 -3 -23 -19 -51z
m-1169 26 c-6 -16 -24 -21 -24 -7 0 11 11 22 21 22 5 0 6 -7 3 -15z m-424 -5
c0 -5 -11 -10 -25 -10 -14 0 -25 5 -25 10 0 6 11 10 25 10 14 0 25 -4 25 -10z
m534 -4 c-8 -20 -34 -29 -34 -12 0 13 13 23 32 25 4 1 5 -5 2 -13z m962 -1
c-3 -20 -16 -31 -16 -13 0 13 8 28 16 28 1 0 1 -7 0 -15z m128 -39 c-27 -34
-44 -45 -44 -29 0 4 12 24 27 45 16 25 30 35 36 29 6 -6 -1 -22 -19 -45z m219
45 c27 -4 56 -15 64 -24 15 -15 14 -17 -13 -27 -16 -6 -51 -22 -77 -36 -54
-28 -78 -21 -70 20 3 13 0 33 -6 44 -18 34 5 39 102 23z m137 -1 c0 -5 -4 -10
-10 -10 -5 0 -10 5 -10 10 0 6 5 10 10 10 6 0 10 -4 10 -10z m-276 -36 c20
-20 20 -33 0 -41 -11 -4 -22 1 -31 13 -12 16 -15 17 -23 4 -5 -8 -13 -11 -17
-6 -4 5 -2 11 5 13 6 3 12 11 12 19 0 19 35 18 54 -2z m-1224 -26 c0 -14 -40
-58 -52 -58 -15 0 -8 26 12 48 23 24 40 29 40 10z m1544 -46 c70 -48 98 -80
58 -68 -11 4 -67 17 -126 29 -59 12 -107 27 -107 32 -1 10 78 55 96 54 6 0 41
-21 79 -47z m-1986 18 c34 -21 42 -40 16 -40 -8 0 -67 -23 -130 -51 -119 -53
-155 -57 -94 -10 19 14 61 47 94 74 32 26 64 47 70 47 6 0 26 -9 44 -20z m472
1 c0 -13 -26 -32 -33 -24 -8 7 11 33 24 33 5 0 9 -4 9 -9z m1176 -44 c4 -4 3
-12 -2 -17 -14 -14 -215 -91 -229 -88 -8 2 0 22 24 58 27 41 44 56 66 60 35 6
131 -3 141 -13z m-1316 -8 c-12 -22 -37 -35 -47 -25 -9 8 27 46 44 46 11 0 11
-4 3 -21z m147 -51 c20 -19 31 -48 19 -48 -2 0 -25 9 -50 20 -46 19 -57 34
-33 43 25 10 41 7 64 -15z"/>
<path d="M2313 6228 c-5 -7 -20 -40 -32 -73 -12 -33 -29 -74 -36 -92 l-14 -32
-58 7 c-88 10 -166 8 -170 -4 -2 -6 33 -42 77 -79 45 -36 84 -73 87 -80 2 -8
-9 -58 -26 -112 -41 -130 -42 -147 -13 -151 16 -3 47 14 99 55 42 32 82 62 89
68 17 12 47 -5 128 -71 64 -54 96 -67 96 -40 0 8 -16 59 -35 115 -19 55 -35
104 -35 109 0 5 25 29 56 53 76 59 96 78 90 88 -3 4 -43 11 -90 14 -46 4 -91
10 -99 13 -8 3 -27 44 -41 92 -42 136 -50 150 -73 120z m41 -134 c10 -31 14
-60 9 -64 -4 -4 -25 -5 -46 -3 -36 5 -38 7 -32 31 11 43 33 92 43 92 4 0 16
-25 26 -56z m-161 -104 c21 0 23 -29 3 -55 -13 -19 -15 -18 -54 15 -22 19 -41
39 -41 44 -1 5 16 6 37 2 20 -3 45 -6 55 -6z m178 -10 c12 0 22 -15 34 -50 9
-27 14 -53 11 -58 -3 -5 -23 -21 -45 -36 -47 -33 -64 -30 -110 18 l-33 34 17
52 17 52 46 -6 c24 -3 53 -6 63 -6z m159 -19 c0 -6 -16 -22 -36 -37 -39 -30
-54 -23 -54 24 0 20 5 22 45 22 25 0 45 -4 45 -9z m-276 -150 l27 -28 -53 -47
c-71 -62 -82 -60 -58 8 22 64 38 96 48 96 5 0 21 -13 36 -29z m200 -45 c9 -30
16 -57 16 -60 0 -14 -19 -4 -59 30 l-42 37 22 23 c33 36 46 30 63 -30z"/>
<path d="M2460 4991 c0 -11 26 -22 34 -14 12 12 5 23 -14 23 -11 0 -20 -4 -20
-9z"/>
<path d="M2207 4984 c-10 -11 3 -24 24 -24 23 0 25 15 3 24 -19 7 -19 7 -27 0z"/>
<path d="M2300 4869 c0 -5 11 -14 25 -19 37 -14 30 -29 -16 -36 -42 -7 -76
-31 -62 -45 4 -4 26 -4 48 1 22 6 80 9 128 9 48 -1 90 1 94 4 14 15 -21 36
-59 35 -46 0 -69 15 -50 34 20 20 14 23 -48 25 -33 0 -60 -3 -60 -8z"/>
<path d="M2414 4368 c-5 -7 -27 -67 -49 -133 l-40 -120 -117 3 c-97 2 -118 0
-118 -12 0 -7 12 -22 28 -32 48 -31 147 -117 150 -129 2 -7 -13 -54 -32 -104
-20 -50 -36 -97 -36 -105 0 -26 12 -46 27 -46 19 0 98 47 170 101 29 21 57 39
62 39 6 0 30 -13 53 -29 171 -114 170 -113 187 -84 7 13 6 22 -4 33 -7 8 -30
56 -50 105 l-37 90 48 43 c27 24 66 55 87 69 57 39 49 53 -30 55 -38 2 -91 2
-119 0 -32 -1 -55 3 -61 11 -11 14 -81 203 -85 231 -4 24 -23 32 -34 14z m30
-138 c9 -22 19 -58 22 -80 l7 -40 -52 0 c-31 0 -51 4 -51 11 0 25 41 149 49
149 5 0 16 -18 25 -40z m244 -155 c2 -2 -18 -20 -44 -41 l-46 -38 -19 23 c-19
23 -25 52 -13 64 5 5 115 -2 122 -8z m-386 -1 c8 -8 -14 -74 -24 -74 -13 0
-88 62 -88 72 0 9 103 11 112 2z m220 -54 c15 -30 27 -58 27 -61 1 -4 -23 -23
-53 -44 l-54 -37 -61 41 c-34 23 -61 45 -61 49 0 18 23 88 33 100 7 9 31 12
76 10 l66 -3 27 -55z m-153 -130 c23 -17 40 -34 37 -39 -9 -14 -123 -90 -128
-85 -5 4 15 108 27 142 7 18 18 15 64 -18z m233 -47 c15 -37 28 -69 28 -71 0
-9 -123 64 -128 77 -6 15 55 77 66 67 3 -3 18 -36 34 -73z"/>
<path d="M4096 2671 c-22 -24 -13 -61 14 -61 26 0 38 46 18 66 -12 13 -17 12
-32 -5z"/>
<path d="M3820 2351 c-22 -6 -25 -12 -25 -51 0 -41 2 -45 26 -48 15 -2 31 4
39 13 11 14 10 17 -8 22 l-21 5 22 18 c19 17 20 20 7 33 -9 9 -24 12 -40 8z"/>
<path d="M4107 2283 c-17 -16 -5 -33 23 -33 32 0 37 9 18 28 -13 13 -31 16
-41 5z"/>
<path d="M4107 2163 c-14 -14 -6 -42 14 -48 30 -10 44 8 27 34 -13 21 -29 27
-41 14z"/>
<path d="M4100 2040 c0 -15 5 -20 18 -18 9 2 17 10 17 18 0 8 -8 16 -17 18
-13 2 -18 -3 -18 -18z"/>
<path d="M4035 1850 c-8 -14 3 -30 21 -30 8 0 14 9 14 20 0 21 -24 28 -35 10z"/>
<path d="M746 2543 c-11 -11 -6 -23 9 -23 8 0 15 4 15 9 0 13 -16 22 -24 14z"/>
<path d="M750 2450 c0 -5 5 -10 10 -10 6 0 10 5 10 10 0 6 -4 10 -10 10 -5 0
-10 -4 -10 -10z"/>
<path d="M485 2329 c-10 -15 3 -25 16 -12 7 7 7 13 1 17 -6 3 -14 1 -17 -5z"/>
<path d="M1120 1866 c0 -8 4 -17 9 -20 11 -7 33 18 24 27 -12 12 -33 7 -33 -7z"/>
<path d="M1144 1569 c-3 -6 -2 -15 4 -21 13 -13 32 -2 32 18 0 16 -26 19 -36
3z"/>
<path d="M2005 1630 c-3 -5 -1 -10 4 -10 6 0 11 5 11 10 0 6 -2 10 -4 10 -3 0
-8 -4 -11 -10z"/>
<path d="M4100 3000 c0 -19 5 -30 14 -30 20 0 29 16 21 40 -10 32 -35 25 -35
-10z"/>
<path d="M27 2513 c-20 -3 -27 -10 -27 -28 0 -19 4 -22 23 -18 12 3 28 10 35
16 9 7 18 5 31 -7 18 -17 20 -17 30 3 9 16 8 22 -8 31 -20 10 -33 11 -84 3z"/>
<path d="M55 2410 c3 -5 8 -10 11 -10 2 0 4 5 4 10 0 6 -5 10 -11 10 -5 0 -7
-4 -4 -10z"/>
<path d="M4460 2410 c0 -5 5 -10 10 -10 6 0 10 5 10 10 0 6 -4 10 -10 10 -5 0
-10 -4 -10 -10z"/>
<path d="M4438 2333 c-24 -6 -23 -24 1 -30 12 -3 17 -11 14 -19 -3 -9 2 -14
17 -14 17 0 21 4 17 20 -3 10 0 21 6 23 6 2 7 9 3 15 -7 12 -26 14 -58 5z"/>
<path d="M1145 2310 c-4 -6 -3 -16 3 -22 6 -6 12 -6 17 2 4 6 3 16 -3 22 -6 6
-12 6 -17 -2z"/>
<path d="M44 2219 c-8 -14 11 -33 25 -25 6 4 11 14 11 22 0 16 -26 19 -36 3z"/>
<path d="M4420 2195 c0 -9 5 -15 11 -13 6 2 11 8 11 13 0 5 -5 11 -11 13 -6 2
-11 -4 -11 -13z"/>
<path d="M1144 2189 c-10 -17 13 -36 27 -22 12 12 4 33 -11 33 -5 0 -12 -5
-16 -11z"/>
<path d="M4455 2080 c-7 -12 2 -30 16 -30 5 0 9 9 9 20 0 21 -15 27 -25 10z"/>
<path d="M4612 1953 c2 -17 9 -28 18 -28 9 0 16 11 18 28 3 22 -1 27 -18 27
-17 0 -21 -5 -18 -27z"/>
<path d="M4346 1877 c-22 -16 -18 -50 6 -55 20 -4 40 30 32 52 -7 19 -15 20
-38 3z"/>
<path d="M4230 1852 c0 -33 22 -48 40 -27 17 21 8 50 -18 53 -18 3 -22 -1 -22
-26z"/>
<path d="M292 1854 c4 -21 22 -23 26 -1 2 10 -3 17 -13 17 -10 0 -15 -6 -13
-16z"/>
<path d="M4807 1823 c-13 -12 -7 -54 9 -60 23 -8 38 12 30 41 -6 25 -25 34
-39 19z"/>
<path d="M4421 1806 c-19 -23 -10 -61 14 -61 16 0 20 7 20 34 0 38 -15 50 -34
27z"/>
<path d="M4940 1810 c0 -5 5 -10 11 -10 5 0 7 5 4 10 -3 6 -8 10 -11 10 -2 0
-4 -4 -4 -10z"/>
<path d="M228 1783 c-10 -3 -18 -9 -18 -14 0 -12 37 -12 45 0 7 12 -5 19 -27
14z"/>
<path d="M785 1560 c-3 -5 -17 -10 -31 -10 -27 0 -31 -12 -10 -29 17 -15 66 2
66 23 0 19 -17 30 -25 16z"/>
<path d="M476 1521 c-6 -9 36 -41 54 -41 17 0 11 29 -9 40 -24 12 -38 13 -45
1z"/>
<path d="M555 1480 c-4 -6 -2 -17 4 -24 6 -7 8 -16 4 -19 -3 -4 2 -9 11 -13
22 -9 32 2 17 20 -6 8 -10 19 -9 26 4 16 -18 24 -27 10z"/>
<path d="M4991 1384 c0 -11 3 -14 6 -6 3 7 2 16 -1 19 -3 4 -6 -2 -5 -13z"/>
<path d="M4633 950 c-19 -8 -23 -17 -23 -54 0 -44 -1 -45 -37 -51 -80 -13 -92
-17 -104 -31 -10 -12 -9 -18 2 -28 18 -17 74 -36 105 -36 13 0 24 -4 24 -10 0
-5 -1 -10 -2 -10 -35 -1 -124 -23 -130 -32 -21 -34 4 -56 80 -67 59 -8 65 -27
11 -34 -54 -7 -63 -18 -55 -61 9 -46 36 -50 36 -5 0 28 2 30 30 27 l31 -3 5
-135 c6 -138 16 -182 37 -161 8 8 12 58 12 146 0 73 4 137 8 141 4 4 51 11
105 15 124 8 171 26 172 66 0 18 -63 31 -172 35 -54 3 -101 8 -105 12 -5 4 19
7 52 5 59 -4 85 3 85 22 0 5 -10 13 -22 18 -20 7 -19 8 10 14 34 7 43 31 16
41 -9 3 -37 6 -62 7 -26 1 -58 4 -72 9 -46 14 4 22 72 12 35 -6 67 -6 71 -2
16 14 -36 39 -95 46 -32 4 -58 11 -58 16 0 6 10 8 21 5 36 -9 79 4 96 30 14
22 14 25 -2 43 -14 15 -30 20 -69 19 -28 0 -61 -4 -73 -9z m80 -37 c-7 -2 -19
-2 -25 0 -7 3 -2 5 12 5 14 0 19 -2 13 -5z m-118 -113 c3 -5 1 -10 -4 -10 -6
0 -11 5 -11 10 0 6 2 10 4 10 3 0 8 -4 11 -10z m135 -68 c0 -4 -16 -6 -35 -4
-19 2 -35 6 -35 8 0 2 16 4 35 4 19 0 35 -4 35 -8z m-133 -58 c-3 -3 -12 -4
-19 -1 -8 3 -5 6 6 6 11 1 17 -2 13 -5z m233 -55 c23 0 23 -1 5 -9 -27 -12
-162 -12 -170 -1 -6 10 83 20 120 14 11 -1 31 -3 45 -4z"/>
<path d="M4712 518 c-16 -19 1 -40 29 -36 16 2 24 10 24 23 0 24 -36 33 -53
13z"/>
</g>
</svg>
