<?xml version="1.0" standalone="no"?>
<!DOCTYPE svg PUBLIC "-//W3C//DTD SVG 20010904//EN"
 "http://www.w3.org/TR/2001/REC-SVG-20010904/DTD/svg10.dtd">
<svg version="1.0" xmlns="http://www.w3.org/2000/svg"
 width="500.000000pt" height="878.000000pt" viewBox="0 0 500.000000 878.000000"
 preserveAspectRatio="xMidYMid meet">
<metadata>
Created by potrace 1.15, written by Peter Selinger 2001-2017
</metadata>
<g transform="translate(0.000000,878.000000) scale(0.100000,-0.100000)"
fill="#000000" stroke="none">
<path d="M2228 8687 c-24 -7 -28 -11 -17 -18 8 -4 21 -6 30 -4 9 3 22 -3 31
-12 25 -30 98 -170 91 -177 -4 -3 -39 -6 -79 -6 -65 0 -98 -10 -77 -23 13 -8
610 -18 638 -11 58 15 9 39 -72 35 -64 -3 -73 10 -73 107 0 83 9 94 71 87 43
-6 81 7 66 22 -11 10 -568 10 -609 0z m271 -39 c-1 -32 -52 -153 -64 -152 -16
2 -88 143 -81 159 4 11 23 15 76 15 66 0 70 -1 69 -22z m123 -72 c-1 -109 -3
-112 -62 -112 -60 0 -61 3 -20 94 63 137 82 142 82 18z"/>
<path d="M590 8378 c-107 -26 -207 -70 -267 -118 -41 -33 -117 -145 -144 -212
-30 -76 -37 -207 -15 -283 19 -66 76 -177 109 -214 12 -13 49 -44 81 -69 151
-117 383 -133 558 -40 363 193 354 702 -16 883 -82 40 -245 68 -306 53z m218
-63 c109 -32 221 -128 268 -231 13 -28 32 -81 41 -119 14 -58 15 -80 5 -149
-16 -105 -51 -177 -127 -252 -174 -176 -433 -186 -632 -27 -133 106 -192 322
-133 485 13 34 41 88 62 119 111 161 319 231 516 174z"/>
<path d="M654 8203 c-3 -10 -12 -30 -20 -45 -8 -14 -14 -32 -14 -39 0 -7 -8
-29 -17 -50 -18 -37 -19 -38 -91 -44 -40 -4 -95 -4 -123 -1 -38 5 -49 4 -49
-7 0 -8 12 -19 27 -26 15 -7 55 -35 90 -63 l62 -51 -19 -36 c-51 -93 -90 -195
-80 -205 7 -7 47 15 131 73 107 73 123 81 139 69 11 -7 62 -46 114 -86 119
-92 143 -86 92 22 -30 64 -61 136 -69 158 -7 19 30 55 111 108 52 33 64 49 40
51 -7 1 -17 2 -23 4 -5 1 -51 3 -101 3 l-91 2 -28 78 c-15 42 -32 83 -38 90
-14 18 -37 15 -43 -5z m41 -84 c23 -43 16 -83 -13 -87 -54 -8 -55 -3 -17 106
7 19 13 15 30 -19z m183 -107 c34 -3 26 -24 -18 -49 -50 -29 -55 -29 -70 6
-19 46 -10 50 88 43z m-121 -47 c12 -22 23 -43 23 -47 0 -4 -25 -26 -56 -50
l-56 -42 -34 19 c-70 38 -77 64 -34 133 20 32 22 33 77 30 55 -3 58 -4 80 -43z
m-197 18 c-1 -10 -6 -31 -13 -46 l-12 -29 -48 37 c-26 20 -47 40 -47 45 0 6
27 10 60 10 51 0 60 -3 60 -17z m30 -135 c36 -26 38 -53 8 -69 -13 -7 -39 -24
-58 -39 -19 -15 -43 -29 -52 -33 -14 -5 -16 -2 -8 18 15 39 70 145 76 145 2 0
18 -10 34 -22z m208 10 c9 -12 72 -155 72 -164 0 -15 -36 2 -75 36 -25 22 -55
45 -66 50 -27 15 -24 45 9 69 32 24 46 26 60 9z"/>
<path d="M2435 8359 c-80 -11 -197 -70 -262 -132 -107 -101 -158 -235 -151
-402 3 -94 6 -108 41 -178 52 -106 137 -191 247 -247 l85 -44 130 -1 c113 0
137 3 187 23 128 51 238 164 294 299 24 60 28 80 27 173 0 82 -5 119 -22 170
-44 128 -136 232 -257 293 -98 49 -196 63 -319 46z m248 -58 c77 -27 78 -28
161 -110 130 -127 170 -261 132 -433 -38 -171 -156 -295 -335 -353 -72 -24
-206 -17 -276 14 -147 65 -230 153 -278 296 -40 117 -28 257 31 368 57 107
189 205 312 233 71 16 181 9 253 -15z"/>
<path d="M2502 8188 c-7 -7 -12 -19 -12 -27 0 -8 -10 -45 -22 -83 l-22 -68
-53 0 c-29 0 -53 -4 -53 -10 0 -5 20 -10 44 -10 25 0 47 -4 50 -9 7 -11 -12
-71 -28 -88 -8 -9 -21 -5 -56 18 -81 55 -96 79 -49 79 10 0 19 5 19 11 0 13
-113 6 -117 -8 -2 -5 18 -22 44 -37 70 -40 134 -86 140 -102 2 -7 -17 -60 -42
-118 -39 -87 -45 -109 -35 -121 18 -22 28 -19 84 28 28 23 64 52 80 62 16 11
35 24 42 30 9 6 35 -11 94 -64 79 -72 110 -84 110 -44 0 10 -14 62 -31 115
-38 116 -43 106 87 194 47 32 83 62 81 68 -2 7 -53 13 -132 16 l-129 5 -27 76
c-36 105 -42 112 -67 87z m47 -119 c16 -46 14 -49 -19 -49 -16 0 -30 4 -30 9
0 18 22 71 30 71 4 0 13 -14 19 -31z m8 -79 c17 0 25 -11 38 -54 21 -68 18
-82 -27 -118 -41 -34 -55 -32 -107 11 l-34 28 23 59 c31 76 39 87 64 80 12 -3
31 -6 43 -6z m184 0 c16 0 29 -4 29 -9 0 -15 -102 -92 -118 -89 -17 3 -45 76
-37 97 4 10 17 12 52 7 25 -3 59 -6 74 -6z m-280 -191 c16 -11 29 -26 29 -34
0 -7 -23 -30 -52 -52 -28 -21 -59 -44 -70 -52 -25 -19 -24 -2 6 62 13 29 26
62 30 75 9 27 20 28 57 1z m195 -57 c12 -40 18 -74 14 -77 -12 -7 -116 86
-112 100 5 15 56 55 67 51 5 -1 19 -35 31 -74z"/>
<path d="M4295 8363 c-206 -27 -372 -177 -426 -385 -24 -92 -24 -136 2 -228
60 -219 220 -364 440 -399 67 -11 210 8 258 34 14 8 44 22 66 31 90 40 208
199 244 329 23 84 7 220 -36 314 -29 64 -101 157 -150 195 -118 92 -251 128
-398 109z m250 -73 c173 -74 280 -248 279 -455 0 -79 -3 -98 -30 -155 -46 -96
-101 -160 -182 -209 -136 -82 -261 -100 -386 -56 -147 51 -270 186 -313 340
-22 79 -1 228 43 317 30 60 144 173 209 206 86 45 289 51 380 12z"/>
<path d="M4356 8205 c-8 -19 -23 -63 -32 -97 -9 -35 -21 -68 -27 -75 -6 -8
-50 -13 -130 -15 -99 -2 -122 -6 -124 -18 -2 -9 35 -44 86 -85 50 -38 92 -77
94 -86 3 -10 -11 -61 -29 -115 -19 -55 -32 -105 -30 -111 4 -9 20 -5 56 14 27
14 50 29 50 33 0 4 20 24 45 44 51 42 66 41 118 -3 37 -32 121 -92 155 -110
25 -13 46 -6 35 12 -4 7 -27 68 -50 137 l-42 125 22 23 c12 13 44 38 72 56 27
19 59 44 70 56 30 33 5 41 -111 36 -56 -2 -107 -1 -113 3 -6 4 -23 53 -37 109
-22 82 -31 102 -45 102 -12 0 -24 -13 -33 -35z m50 -105 c8 -35 12 -65 10 -67
-3 -3 -20 -6 -38 -6 -32 -2 -33 -1 -31 33 2 37 31 116 39 107 3 -3 12 -33 20
-67z m-126 -114 c0 -5 -8 -33 -17 -63 -11 -34 -21 -52 -29 -49 -25 10 -123 91
-123 103 -1 12 38 18 122 18 26 0 47 -4 47 -9z m183 -51 l20 -59 -52 -48 c-29
-26 -60 -48 -69 -48 -21 0 -82 54 -82 72 0 18 27 103 40 128 10 18 19 21 67
18 l56 -3 20 -60z m147 56 c0 -10 -75 -81 -85 -81 -14 0 -48 68 -40 80 5 8
125 9 125 1z m-89 -231 c9 -36 21 -76 25 -90 8 -25 7 -25 -17 -8 -13 10 -47
33 -76 53 -29 20 -50 41 -47 48 6 16 77 67 88 64 5 -2 17 -32 27 -67z m-226
24 c35 -23 31 -47 -13 -78 -52 -35 -63 -34 -51 7 11 41 30 87 36 87 2 0 15 -7
28 -16z"/>
<path d="M560 7019 c-25 -5 -54 -14 -65 -18 -11 -5 -35 -15 -53 -22 -44 -16
-135 -87 -173 -135 -42 -53 -83 -136 -104 -212 -42 -149 15 -341 136 -460 209
-205 549 -192 742 26 277 314 69 809 -348 827 -49 2 -110 0 -135 -6z m238 -48
c115 -35 206 -110 269 -221 42 -74 57 -148 51 -256 -4 -76 -10 -100 -40 -164
-71 -149 -214 -249 -381 -266 -170 -17 -365 94 -447 256 -90 178 -49 406 96
539 75 69 90 78 171 106 87 30 193 32 281 6z"/>
<path d="M635 6869 c-10 -46 -72 -210 -83 -221 -6 -6 -61 -11 -123 -12 -106
-2 -114 -4 -114 -22 0 -14 22 -30 85 -61 47 -23 86 -48 88 -55 1 -7 -12 -49
-29 -93 -48 -124 -53 -145 -43 -154 5 -5 64 24 141 71 l133 80 114 -71 c62
-39 119 -71 125 -71 21 0 11 60 -24 147 -19 48 -35 90 -35 94 0 5 34 33 75 65
63 47 74 59 63 71 -9 12 -33 14 -112 11 l-101 -3 -35 70 c-19 39 -46 95 -60
125 -30 65 -55 76 -65 29z m80 -147 c37 -80 36 -82 -43 -82 -38 0 -71 2 -74 5
-3 3 8 41 25 85 29 76 31 79 49 63 10 -9 29 -41 43 -71z m235 -116 c0 -7 -21
-28 -47 -45 l-48 -31 -17 21 c-18 22 -23 50 -11 62 3 4 33 7 65 7 43 0 58 -4
58 -14z m-446 -2 c21 -8 21 -53 0 -61 -20 -7 -94 26 -94 43 0 7 16 14 38 17
20 2 38 4 39 5 1 1 8 -1 17 -4z m287 -38 c10 -24 17 -50 14 -58 -3 -8 -31 -29
-61 -48 -50 -30 -58 -32 -77 -20 -12 8 -44 25 -72 40 -57 29 -65 50 -35 98
l20 32 95 0 96 0 20 -44z m-197 -114 c27 -15 51 -32 53 -38 4 -12 -176 -118
-185 -109 -14 13 51 175 70 175 7 0 35 -13 62 -28z m268 -53 c15 -41 28 -75
28 -77 0 -12 -142 66 -168 93 -6 6 92 65 103 61 5 -1 22 -36 37 -77z"/>
<path d="M4275 7020 c-11 -5 -31 -9 -44 -9 -33 -1 -171 -92 -219 -145 -57 -62
-110 -176 -122 -264 -17 -124 9 -238 78 -339 101 -147 245 -224 417 -224 171
0 290 59 406 201 32 40 59 79 59 87 0 7 8 26 17 40 27 40 31 223 8 295 -64
193 -194 317 -375 358 -54 12 -197 12 -225 0z m196 -45 c74 -9 177 -65 235
-126 99 -105 139 -214 132 -350 -8 -146 -114 -306 -246 -373 -73 -37 -175 -59
-236 -50 -178 24 -319 130 -386 291 -28 67 -33 90 -33 163 0 101 18 164 73
249 42 65 129 136 209 172 48 21 139 38 181 33 14 -2 46 -6 71 -9z"/>
<path d="M4347 6853 c-9 -21 -29 -72 -44 -113 l-28 -75 -115 -5 c-137 -6 -152
-19 -68 -63 77 -40 117 -70 118 -87 0 -9 -16 -53 -35 -99 -36 -85 -42 -115
-25 -126 10 -6 124 63 191 116 20 16 42 29 49 29 29 0 162 -72 203 -109 79
-73 88 -48 26 73 -23 45 -51 94 -62 110 l-20 29 34 29 c19 15 55 43 82 60 44
29 57 50 39 62 -4 3 -53 -1 -108 -8 -54 -7 -103 -10 -107 -6 -10 9 -77 188
-77 206 0 30 -37 13 -53 -23z m87 -184 c-8 -14 -114 -11 -114 4 0 10 19 65 47
137 3 10 18 -12 39 -58 19 -41 32 -78 28 -83z m186 -26 c0 -5 -21 -24 -46 -43
-45 -33 -47 -33 -60 -15 -21 28 -13 49 21 56 44 10 85 10 85 2z m-167 -17 c8
-8 20 -28 27 -46 12 -30 11 -32 -21 -60 -19 -16 -40 -29 -46 -30 -21 0 -143
59 -143 70 0 6 7 24 15 40 14 27 20 29 78 33 34 2 65 4 69 5 4 1 13 -4 21 -12z
m-199 -5 c3 -5 -2 -19 -12 -31 -18 -22 -19 -22 -53 -5 -45 23 -46 24 -29 35
19 12 87 13 94 1z m285 -152 c17 -28 31 -52 31 -55 0 -11 -30 -1 -75 27 l-49
32 28 23 c15 13 28 24 30 24 2 0 17 -23 35 -51z m-221 11 c23 -10 42 -23 42
-27 0 -4 -15 -18 -33 -30 -17 -12 -52 -36 -76 -52 -53 -37 -65 -39 -57 -8 12
49 56 137 68 137 7 0 32 -9 56 -20z"/>
<path d="M2226 6845 c-11 -5 -23 -23 -28 -40 -4 -16 -15 -44 -25 -62 -17 -31
-16 -33 4 -55 11 -13 23 -36 27 -51 6 -25 3 -29 -31 -44 -21 -8 -48 -25 -60
-37 -12 -11 -34 -32 -48 -46 -37 -36 -55 -84 -55 -149 1 -87 56 -191 102 -191
11 0 40 -22 66 -49 40 -42 49 -59 60 -113 18 -89 31 -111 71 -119 19 -4 43
-18 53 -31 19 -25 24 -63 8 -73 -5 -3 -10 -20 -10 -36 0 -27 -6 -33 -55 -55
-31 -13 -60 -24 -65 -24 -5 0 -30 -13 -55 -29 -72 -46 -102 -96 -130 -219 -14
-59 -32 -138 -41 -177 -18 -74 -57 -179 -98 -260 -14 -27 -26 -62 -26 -77 0
-26 -38 -105 -65 -138 -13 -15 -76 -147 -90 -185 -3 -11 -8 -47 -11 -80 -2
-32 -11 -66 -18 -75 -8 -8 -22 -33 -32 -55 -11 -22 -30 -45 -42 -51 -13 -6
-29 -17 -35 -23 -6 -6 -24 -11 -39 -11 -33 0 -75 -39 -80 -73 -2 -12 3 -34 11
-48 25 -45 0 -68 -125 -118 -105 -41 -154 -72 -154 -96 0 -6 -14 -32 -30 -58
-45 -71 -40 -110 11 -80 22 13 32 14 41 5 13 -13 9 -23 -47 -110 -30 -48 -32
-57 -23 -85 20 -61 31 -64 90 -25 58 38 122 58 161 51 18 -4 31 2 43 16 10 12
24 21 30 21 20 0 103 106 125 158 l20 49 34 -11 c18 -7 40 -17 48 -25 9 -7 24
-14 34 -15 15 -3 18 -12 17 -57 -2 -128 -16 -290 -31 -370 -9 -47 -14 -93 -11
-100 11 -27 186 -103 205 -88 6 6 14 6 17 1 6 -9 11 -373 8 -516 -1 -44 -6
-84 -12 -90 -5 -5 -10 -34 -10 -63 0 -29 -4 -53 -10 -53 -16 0 -12 -27 5 -34
18 -7 19 -39 3 -67 -11 -18 -10 -23 6 -33 48 -29 86 -69 86 -93 0 -14 12 -36
28 -51 16 -15 32 -35 35 -44 10 -27 37 -22 37 6 0 14 4 28 10 31 6 4 10 -6 10
-23 0 -31 22 -58 39 -47 6 3 8 19 4 35 -4 23 -2 30 11 30 10 0 16 -8 16 -21 0
-29 18 -59 36 -59 13 0 15 7 10 35 -4 19 -3 35 2 35 5 0 12 -13 15 -30 10 -46
39 -40 37 8 -3 57 -1 59 20 24 22 -36 40 -35 40 4 0 14 4 22 10 19 6 -3 10
-17 10 -30 0 -14 10 -54 21 -89 l21 -64 -28 -35 c-31 -39 -44 -39 -44 0 0 32
-56 103 -81 103 -11 0 -33 -7 -49 -15 -23 -12 -30 -22 -30 -46 0 -16 -6 -32
-14 -35 -24 -9 -56 15 -56 41 0 49 -80 74 -115 35 -10 -11 -26 -20 -36 -20
-23 0 -72 -59 -65 -79 18 -58 18 -61 0 -66 -11 -3 -32 -12 -47 -20 -26 -14
-28 -13 -37 11 -14 35 -96 114 -120 114 -11 0 -20 4 -20 10 0 17 43 50 66 50
12 0 33 9 48 21 21 16 24 24 16 34 -9 11 -4 17 20 30 37 19 35 36 -7 47 -18 5
-33 16 -36 28 -5 19 -11 20 -79 14 -40 -4 -77 -10 -83 -14 -5 -4 -18 -4 -29
-1 -10 4 -47 3 -82 -2 -72 -10 -114 -4 -114 18 0 20 40 35 93 35 65 0 178 30
215 58 19 13 48 39 66 57 18 17 44 35 59 39 20 5 27 13 27 31 0 22 -4 25 -40
25 -35 0 -39 3 -37 23 1 17 -3 21 -18 20 -72 -9 -346 -9 -351 -1 -4 6 7 21 24
34 45 36 66 114 30 114 -6 0 -25 -13 -43 -29 -38 -33 -156 -99 -165 -91 -3 3
-5 16 -6 30 -1 65 -29 211 -65 335 -21 73 -52 127 -102 181 l-29 32 23 16 c13
9 29 16 35 16 29 0 36 32 37 172 2 135 1 145 -21 172 -12 16 -34 66 -48 111
-23 75 -30 85 -74 119 l-49 37 -28 -18 -27 -18 36 -3 c31 -3 90 -45 77 -56 -2
-2 -28 -6 -58 -9 -52 -6 -53 -6 -49 18 5 24 4 25 -36 19 -23 -4 -47 -12 -55
-19 -19 -19 -4 -38 25 -31 35 9 29 0 -18 -30 -74 -47 -181 -171 -221 -256 -24
-50 -37 -48 -24 2 6 22 17 40 23 40 7 0 16 10 20 23 3 12 16 35 26 50 24 34
21 39 -20 31 -18 -4 -32 -14 -35 -25 -4 -13 -10 -17 -22 -13 -10 4 -21 1 -26
-7 -6 -10 -9 -8 -10 11 -2 41 2 54 22 73 11 11 18 24 16 30 -4 13 16 37 30 37
5 0 17 9 26 21 13 15 25 19 43 15 14 -4 24 -2 24 4 0 6 -4 8 -10 5 -5 -3 -10
-1 -10 4 0 6 7 11 15 11 8 0 16 5 16 10 1 6 2 14 3 20 3 24 76 52 76 29 0 -9
3 -9 14 0 7 6 21 9 30 5 9 -3 16 -1 16 6 0 6 8 10 18 9 28 -4 73 12 69 25 -3
6 -9 10 -14 9 -6 -1 -46 -4 -90 -7 -60 -4 -93 -12 -128 -31 -26 -14 -55 -25
-64 -25 -21 0 -115 -89 -134 -127 -8 -15 -18 -44 -22 -63 -4 -19 -12 -40 -17
-47 -5 -7 -7 -20 -4 -30 3 -10 -5 -54 -19 -98 -31 -101 -32 -128 -1 -152 13
-10 27 -28 31 -40 5 -18 0 -25 -32 -42 -75 -38 -236 -246 -304 -390 -68 -144
-105 -213 -126 -233 -22 -21 -33 -55 -14 -44 13 9 104 143 128 191 11 22 35
69 53 105 18 36 40 74 49 85 10 11 26 34 36 50 10 17 50 64 88 106 61 66 89
87 178 130 9 4 22 3 29 -1 8 -5 17 -7 22 -4 4 3 35 -8 70 -24 50 -23 74 -43
117 -96 50 -60 101 -146 101 -171 0 -5 16 -48 37 -95 21 -48 46 -134 59 -200
48 -242 305 -1035 407 -1255 50 -108 63 -211 31 -246 -9 -10 -18 -27 -19 -37
0 -9 -10 -30 -20 -46 -26 -39 -31 -127 -10 -205 9 -35 14 -65 12 -67 -2 -2
-12 3 -23 10 -15 11 -19 27 -19 68 0 42 -3 53 -17 56 -23 4 -24 52 -2 94 12
23 14 36 6 48 -16 25 29 95 70 109 24 9 29 14 20 23 -19 19 -63 -3 -100 -51
-22 -29 -31 -49 -26 -60 12 -27 7 -58 -12 -85 -22 -30 -36 -33 -32 -8 2 10 -3
17 -12 17 -10 0 -16 -12 -17 -39 -2 -40 -19 -70 -34 -60 -5 3 -5 13 1 24 7 13
6 21 -4 29 -20 16 -38 -10 -34 -50 4 -39 -27 -65 -43 -36 -15 26 -29 20 -29
-12 0 -38 -28 -50 -50 -21 -17 23 -30 18 -30 -11 0 -11 -10 -21 -24 -25 -27
-6 -67 -44 -47 -44 6 0 20 5 30 12 10 6 26 8 35 5 15 -6 16 -9 2 -28 -8 -11
-31 -32 -51 -46 -20 -14 -34 -27 -32 -30 5 -5 108 47 144 73 22 15 23 15 32
-8 15 -39 17 -91 4 -95 -6 -2 -14 9 -18 26 -8 36 -31 59 -46 44 -7 -7 -7 -23
0 -49 6 -22 11 -42 11 -46 0 -15 -21 -8 -27 10 -10 29 -24 41 -40 35 -11 -4
-13 -14 -8 -41 5 -29 4 -34 -9 -29 -10 4 -36 -12 -72 -43 -59 -52 -81 -62 -70
-33 11 27 -13 83 -35 83 -12 0 -19 -7 -19 -20 0 -24 -41 -53 -76 -53 -19 0
-31 -8 -43 -28 -22 -40 -49 -38 -53 3 -4 42 -26 48 -34 9 -12 -58 -26 -32 -22
41 2 49 -1 73 -9 75 -8 3 -13 -11 -15 -39 -2 -30 -8 -43 -18 -44 -8 0 -25 -4
-38 -8 -17 -6 -29 -3 -44 10 -18 18 -20 18 -29 1 -12 -21 -29 -22 -29 -2 0 24
-20 17 -30 -11 -11 -29 -33 -28 -38 2 -6 32 -22 41 -37 20 -17 -23 -35 -13
-35 20 0 32 -13 30 -39 -3 l-20 -28 -1 38 c0 43 -15 48 -32 12 -14 -32 -26
-32 -38 1 -10 26 -30 25 -30 -2 0 -26 -29 -15 -33 14 -2 15 -5 -26 -6 -90 l-1
-118 63 -2 c34 0 73 -3 87 -5 33 -4 212 -22 275 -27 74 -6 280 34 350 69 33
16 79 47 103 68 34 32 56 43 105 53 34 7 80 19 102 28 22 8 56 15 77 16 20 0
60 9 90 19 29 11 65 22 80 25 14 3 40 18 57 32 37 30 40 66 15 159 -23 85 -14
182 23 243 24 42 27 56 26 127 -1 63 -7 92 -28 140 -61 137 -73 185 -77 305
l-3 115 480 1 c563 1 573 0 577 -29 2 -13 16 -28 35 -37 40 -19 57 -63 78
-200 3 -19 12 -69 20 -110 8 -41 17 -97 21 -125 7 -57 27 -134 43 -164 9 -17
6 -23 -18 -41 -17 -11 -33 -31 -37 -43 -12 -41 -65 -87 -100 -87 -23 0 -42 -9
-62 -30 -36 -36 -75 -52 -106 -44 -13 3 -46 -5 -79 -20 -43 -19 -58 -31 -63
-51 -4 -15 -2 -31 4 -37 13 -13 98 -29 126 -23 11 2 53 7 91 10 39 3 97 12
130 20 62 14 321 14 366 0 32 -11 108 15 126 41 11 18 14 40 9 91 -6 70 -9
319 -7 570 l1 143 39 24 c22 14 55 39 75 56 l35 31 7 -36 c4 -23 -1 -74 -15
-139 -25 -119 -26 -209 -6 -321 8 -44 14 -85 15 -91 0 -6 12 -23 26 -37 22
-22 29 -45 48 -161 21 -132 39 -176 71 -176 7 0 34 -26 61 -58 27 -31 55 -61
64 -67 35 -23 138 -54 199 -61 36 -4 80 -13 99 -21 l33 -14 -3 -128 c-3 -124
-2 -130 21 -155 14 -15 52 -34 92 -46 73 -23 226 -29 449 -19 153 7 183 0 278
-65 l81 -56 176 0 175 0 0 46 c0 38 -3 45 -17 42 -12 -2 -18 -13 -18 -33 l0
-30 -85 4 c-47 2 -89 6 -94 8 -7 5 -6 35 6 115 2 9 -1 17 -7 18 -5 1 -16 -28
-24 -64 -7 -37 -17 -66 -22 -66 -7 0 -5 27 6 103 3 19 0 27 -10 27 -19 0 -35
-40 -35 -85 0 -19 -4 -36 -9 -39 -5 -3 -7 25 -4 64 3 48 1 70 -6 70 -15 0 -31
-43 -31 -80 0 -33 -15 -47 -34 -31 -10 8 -12 22 -6 46 5 22 4 38 -3 42 -9 6
-32 -16 -40 -41 -3 -7 -11 -5 -23 5 -23 20 -107 59 -128 59 -8 0 -18 -4 -21
-10 -11 -18 -35 -11 -35 10 0 26 -30 26 -37 0 -9 -32 -33 -24 -33 11 0 44 -34
37 -38 -9 -4 -35 -32 -46 -32 -13 0 29 -11 51 -25 51 -17 0 -24 -20 -18 -53 4
-20 1 -27 -11 -27 -12 0 -16 10 -16 45 0 33 -4 45 -15 45 -18 0 -35 -31 -35
-64 0 -14 -5 -26 -11 -26 -6 0 -8 8 -5 18 12 43 17 110 8 116 -12 7 -28 -11
-35 -39 -4 -15 -5 -13 -6 8 -1 19 -6 27 -20 27 -20 0 -31 -18 -31 -50 0 -10
-5 -31 -11 -47 -17 -46 -31 -6 -21 62 6 34 5 58 0 61 -18 12 -39 -22 -45 -75
-3 -28 -9 -48 -14 -44 -4 4 -3 32 3 61 9 44 8 56 -3 63 -19 11 -32 -4 -46 -54
l-11 -42 -1 37 c-1 20 4 40 9 43 19 12 10 34 -19 48 -26 13 -31 13 -45 -1 -14
-14 -15 -12 -9 24 3 21 7 40 8 42 2 2 16 -3 32 -12 47 -24 165 -48 177 -36 17
17 -9 34 -77 51 -53 13 -62 18 -59 36 2 13 -9 29 -35 49 -21 16 -48 40 -61 53
-21 23 -32 25 -125 28 -55 2 -106 8 -112 12 -5 5 -26 12 -45 16 -41 9 -127 71
-136 98 -3 10 -21 25 -40 33 -56 23 -83 115 -86 297 -2 108 -13 148 -37 133
-7 -5 -16 -18 -21 -30 -16 -42 -30 30 -30 152 1 137 6 164 55 297 20 55 43
120 52 145 17 50 54 125 76 154 13 17 14 15 13 -24 -2 -73 20 -62 48 24 14 41
14 7 1 -36 -11 -37 -11 -49 -1 -57 16 -13 36 5 36 34 1 11 7 31 16 45 14 24
14 23 12 -30 -2 -43 0 -55 12 -55 21 0 36 73 21 98 -15 23 -20 18 55 55 74 37
113 80 144 158 13 32 34 72 47 87 28 35 31 77 5 77 -13 0 -24 -13 -35 -40 -17
-45 -37 -53 -37 -15 0 70 49 215 73 215 16 0 113 97 104 106 -13 13 -53 -6
-72 -36 -14 -21 -28 -30 -47 -30 -30 0 -44 -19 -73 -105 -23 -67 -39 -224 -24
-241 12 -15 -8 -61 -37 -85 -16 -13 -17 -12 -9 6 5 11 10 85 10 165 1 152 6
177 100 510 8 30 15 69 15 87 0 42 73 123 112 123 16 0 28 8 35 23 14 31 147
94 257 122 84 21 97 22 153 11 38 -8 78 -25 105 -45 72 -53 129 -157 79 -144
-13 3 -21 -2 -26 -16 -3 -12 -11 -21 -16 -21 -13 0 -11 -37 2 -45 5 -4 14 -17
19 -30 5 -13 20 -25 37 -28 17 -4 38 -21 53 -43 14 -20 37 -50 51 -67 14 -18
54 -90 88 -162 62 -129 90 -171 195 -295 31 -36 76 -95 102 -133 25 -37 48
-67 50 -67 2 0 4 239 4 532 l0 532 -20 -22 c-11 -12 -25 -33 -30 -47 -5 -14
-16 -25 -24 -25 -16 0 -29 27 -20 42 4 6 1 29 -6 52 -25 85 -23 82 -94 90 -95
10 -106 1 -106 -81 l0 -66 -27 37 c-24 31 -32 36 -58 31 -16 -3 -39 -15 -51
-26 -21 -19 -22 -30 -22 -151 0 -71 -3 -132 -6 -136 -3 -3 -6 10 -6 28 0 19
-4 47 -9 64 -5 17 -17 58 -26 90 -12 42 -29 72 -61 106 -24 26 -44 56 -43 66
0 16 2 16 9 -3 13 -31 45 -31 35 0 -4 12 -10 58 -14 102 -5 71 -8 77 -19 58
-6 -12 -12 -39 -13 -60 l-1 -38 -11 33 c-15 49 -32 33 -30 -27 2 -45 0 -52
-15 -47 -9 3 -33 8 -54 11 -33 6 -36 10 -40 46 -2 24 0 38 7 36 5 -2 10 -17
10 -33 0 -40 27 -38 41 4 5 17 15 37 22 44 17 17 14 86 -7 138 -11 26 -36 59
-60 78 -36 30 -42 32 -47 17 -5 -12 3 -25 26 -43 39 -31 60 -77 60 -133 l0
-42 -45 5 c-39 5 -45 3 -52 -16 -4 -11 -6 -39 -4 -62 l3 -41 -59 -6 c-32 -3
-85 -18 -116 -32 -31 -13 -57 -22 -57 -19 0 3 -13 -4 -29 -15 -37 -27 -51 -26
-51 0 0 91 -67 159 -161 161 -17 1 -33 7 -36 15 -3 7 -12 13 -20 13 -13 0 -13
3 -3 15 7 8 9 15 5 15 -4 0 4 11 19 25 16 15 26 35 26 53 0 15 11 43 25 62 14
19 25 39 25 46 0 19 49 73 81 90 23 11 29 21 29 47 0 38 38 82 80 92 40 9 172
12 204 3 22 -6 35 -3 54 13 18 13 38 19 61 17 19 -1 36 2 38 9 5 14 -67 27
-99 18 -13 -4 -31 -9 -40 -11 -10 -3 -18 -1 -18 5 0 13 72 33 107 29 20 -2 28
2 28 12 0 16 -64 19 -119 5 -28 -8 -29 -7 -21 21 7 28 15 110 19 204 1 27 10
59 24 80 23 37 29 84 12 95 -13 8 -13 97 1 268 9 107 9 160 0 225 -7 48 -15
111 -17 141 -3 31 -8 59 -10 63 -3 4 -62 5 -132 2 -127 -5 -128 -5 -156 21
-16 15 -39 25 -57 25 -34 0 -35 -4 -11 -35 21 -26 19 -77 -4 -96 -8 -6 -14
-16 -14 -21 0 -10 -41 -63 -80 -103 -11 -12 -20 -25 -20 -30 0 -17 -32 -44
-46 -38 -16 6 -19 43 -4 43 6 0 10 9 10 20 0 11 6 20 13 20 7 0 30 23 52 51
22 28 50 62 63 75 12 14 22 32 22 40 0 29 -34 13 -79 -37 -44 -48 -47 -50 -66
-35 -16 13 -17 15 -2 10 19 -7 56 30 57 58 0 20 69 104 83 100 5 -2 18 5 28
14 22 20 49 12 49 -15 0 -11 6 -23 13 -28 6 -4 75 -6 153 -4 l141 3 6 -39 c9
-52 38 -78 89 -78 34 0 45 6 69 34 l28 34 106 -2 c59 -1 118 -6 132 -12 22 -8
25 -13 19 -42 -4 -17 -13 -104 -21 -192 -14 -154 -27 -228 -58 -343 -20 -73
-7 -102 46 -102 26 0 37 4 37 15 0 8 5 15 10 15 6 0 10 -7 10 -15 0 -27 65
-48 130 -42 33 3 60 2 60 -2 0 -12 -93 -41 -132 -41 -47 0 -90 -19 -84 -37 12
-29 -73 -2 -131 43 -44 33 -44 62 0 66 42 4 41 22 -1 26 -69 7 -81 -37 -27
-97 40 -44 136 -81 209 -81 53 0 161 28 201 52 31 17 85 84 85 103 0 5 7 17
17 27 15 17 15 18 -8 19 -13 1 -41 0 -61 -1 -32 -1 -39 2 -47 23 -14 37 -56
222 -97 430 -38 197 -38 198 8 221 13 7 24 22 26 37 3 27 -31 79 -52 79 -24 0
-50 -28 -51 -56 l-2 -29 -89 -1 c-49 0 -127 4 -174 10 l-84 11 -7 35 c-4 19
-10 89 -13 155 l-6 120 71 60 c82 69 90 81 77 115 -5 14 -12 54 -14 90 -4 48
-11 71 -26 87 -11 12 -26 33 -32 45 -16 33 -51 34 -97 3 -49 -32 -73 -29 -77
8 -3 23 2 30 30 41 28 12 30 16 15 22 -12 4 -28 -1 -45 -13 -23 -17 -27 -28
-26 -64 1 -49 -3 -54 -61 -70 -55 -15 -73 -34 -90 -93 -22 -78 -23 -140 -4
-144 13 -2 18 9 23 55 17 140 32 158 138 169 80 8 107 1 87 -22 -9 -11 -24
-15 -50 -11 -51 7 -84 -28 -94 -98 -3 -27 -13 -60 -21 -72 -8 -12 -14 -32 -14
-43 0 -12 -7 -34 -15 -49 -12 -25 -12 -31 -1 -41 11 -9 17 -7 24 7 16 27 23
10 9 -20 -14 -31 -32 -35 -41 -10 -4 10 -10 13 -14 8 -4 -6 -14 -10 -22 -10
-8 0 -16 -10 -18 -22 -2 -13 -10 -23 -18 -23 -19 0 -18 46 1 54 11 4 13 16 8
53 -7 56 -9 61 -25 45 -7 -7 -20 -12 -29 -12 -9 0 -22 -7 -29 -15 -7 -8 -20
-15 -29 -15 -14 0 -21 24 -40 128 -30 165 -62 235 -143 315 -35 34 -80 70
-101 80 -20 9 -52 24 -69 32 -18 8 -60 16 -93 18 -55 3 -60 5 -63 28 -7 60
-61 109 -121 109 -24 0 -34 6 -41 24 -12 33 -43 48 -84 40 -46 -8 -68 1 -89
35 -10 17 -26 33 -37 36 -11 4 -20 11 -20 17 0 6 -11 34 -24 62 -13 28 -38 84
-56 125 l-31 74 31 29 c28 25 31 33 27 71 -6 57 -40 170 -61 202 -27 40 -69
53 -185 53 -161 1 -197 8 -211 43 -22 52 -64 69 -170 66 -51 -1 -103 -6 -114
-12z m95 -615 c10 -6 19 -19 19 -29 0 -10 7 -33 17 -51 15 -30 17 -32 29 -16
11 16 14 13 24 -25 21 -83 51 -112 95 -95 9 3 13 2 10 -3 -6 -10 13 -26 30
-26 5 0 16 -12 23 -27 7 -16 20 -28 28 -28 12 0 18 -11 16 -31 -1 -4 17 -3 40
3 36 8 44 6 65 -13 18 -18 26 -20 35 -11 15 15 38 16 38 1 0 -12 -61 -39 -90
-39 -12 0 -20 7 -20 18 0 11 -6 7 -20 -15 -19 -32 -57 -59 -68 -49 -3 3 -1 6
5 6 6 0 9 9 6 20 -3 11 -7 20 -9 20 -2 0 -20 -17 -39 -39 -40 -44 -70 -56 -88
-34 -7 8 -22 26 -35 40 l-22 24 22 19 c13 11 31 19 41 20 21 0 22 23 1 41 -13
10 -20 10 -44 -5 -24 -13 -33 -14 -49 -5 -10 7 -17 18 -14 25 8 22 -14 24 -40
4 -14 -11 -27 -20 -30 -20 -7 0 -47 129 -47 150 0 9 -9 25 -20 35 -32 29 -25
69 17 110 39 38 45 40 74 25z m2059 -604 c0 -30 -16 -42 -34 -27 -7 6 -21 9
-30 5 -10 -4 -16 -1 -16 8 0 22 22 38 52 38 23 0 28 -4 28 -24z m-1490 -15
c-11 -22 -76 -343 -85 -424 -4 -32 -9 -124 -11 -205 -3 -81 -7 -163 -8 -182
-2 -19 -6 -183 -10 -365 -3 -181 -9 -356 -12 -388 -3 -32 -1 -64 4 -70 30 -39
20 -97 -17 -97 -15 0 -17 10 -16 61 2 66 -16 107 -35 79 -5 -8 -10 -41 -10
-72 0 -58 -13 -77 -23 -35 -4 12 -9 98 -12 192 -4 93 -9 173 -12 178 -3 4 -10
6 -16 4 -9 -3 -12 -61 -12 -202 0 -206 -7 -239 -38 -178 -29 56 -40 147 -39
331 0 164 -2 183 -16 180 -26 -5 -34 -77 -28 -258 3 -108 10 -182 20 -215 17
-53 10 -74 -20 -57 -20 11 -18 -8 -29 347 -4 136 -3 247 3 271 10 44 1 74 -23
74 -24 0 -30 -67 -29 -335 1 -206 -1 -253 -10 -225 -6 20 -22 50 -35 69 -20
28 -22 36 -11 56 7 14 9 28 4 37 -5 7 -10 81 -11 163 -1 83 -5 218 -8 300 -4
83 -2 210 4 285 6 74 13 173 15 220 2 47 9 106 15 132 6 26 18 92 26 147 17
117 32 156 51 140 8 -7 11 -22 7 -40 -4 -21 -2 -29 9 -29 17 0 41 40 36 60 -2
10 11 12 57 10 74 -4 75 -4 153 10 35 7 65 10 67 8 1 -2 -1 -50 -6 -108 -4
-57 -6 -106 -3 -109 13 -13 26 25 34 100 14 131 19 147 49 157 33 12 44 6 31
-17z m1547 -37 c9 -25 -8 -45 -68 -81 -73 -44 -86 -43 -58 5 45 73 111 114
126 76z m11 -91 c2 -11 -3 -24 -10 -30 -21 -17 -108 -46 -115 -40 -8 9 26 47
42 47 6 0 22 11 35 25 27 29 44 28 48 -2z m-218 -79 c0 -13 -4 -24 -10 -24 -5
0 -10 14 -10 31 0 17 4 28 10 24 6 -3 10 -17 10 -31z m58 4 c6 -13 11 -63 10
-113 -2 -115 20 -367 32 -379 30 -30 -8 -86 -57 -86 -32 0 -59 44 -45 73 6 12
11 69 11 127 0 58 5 159 11 225 7 66 12 132 12 148 1 33 11 35 26 5z m172 3
c0 -25 -17 -38 -61 -46 -49 -9 -60 10 -16 29 19 8 38 19 41 25 11 18 36 13 36
-8z m-240 -118 c0 -32 -5 -28 -14 10 -4 19 -3 26 4 22 5 -3 10 -18 10 -32z
m140 28 c0 -5 -7 -14 -15 -21 -16 -14 -18 -10 -9 14 6 17 24 22 24 7z m-218
-53 c-9 -9 -12 -7 -12 12 0 19 3 21 12 12 9 -9 9 -15 0 -24z m38 -13 c0 -8 -4
-15 -10 -15 -5 0 -10 7 -10 15 0 8 5 15 10 15 6 0 10 -7 10 -15z m-180 -2 c0
-4 -12 -17 -26 -28 -22 -17 -26 -29 -27 -75 -2 -49 0 -55 18 -55 11 0 39 -14
62 -31 45 -33 108 -43 159 -24 39 15 41 5 5 -29 -17 -16 -31 -36 -31 -45 0
-19 11 -21 28 -4 15 15 37 -4 29 -26 -5 -12 -18 -14 -64 -9 -32 3 -63 12 -69
19 -6 8 -17 14 -23 14 -23 0 -76 33 -108 67 -34 37 -55 108 -46 155 6 34 49
78 74 78 11 0 19 -3 19 -7z m209 -147 c-12 -26 -33 -34 -44 -16 -3 6 1 10 9
10 8 0 20 9 26 21 16 29 23 17 9 -15z m-75 -34 c-9 -2 -28 0 -42 4 -27 7 -27
8 8 13 34 6 66 -10 34 -17z m-219 -64 c4 -18 7 -38 6 -45 -1 -7 11 -11 29 -11
17 1 36 -4 42 -10 9 -9 2 -12 -28 -12 -33 0 -44 5 -62 30 -35 47 -57 54 -83
28 -15 -16 -20 -18 -16 -7 3 9 0 22 -6 28 -12 12 -13 11 51 17 19 1 36 5 39 8
13 12 21 5 28 -26z m861 -77 c-4 -6 -11 -11 -15 -11 -11 0 -21 37 -13 45 9 9
35 -22 28 -34z m-86 -44 c19 -9 26 -23 31 -57 27 -177 45 -273 74 -400 18 -80
35 -161 37 -180 l3 -35 -73 -9 c-88 -11 -95 -6 -96 66 0 105 22 553 29 570 10
24 2 26 -164 35 -93 5 -146 12 -148 19 -5 16 272 7 307 -9z m-807 -159 c5
-110 3 -124 -14 -146 -18 -23 -17 -48 1 -37 4 2 10 -6 12 -19 3 -15 -4 -33
-20 -52 l-25 -29 6 165 c7 172 15 240 27 240 4 0 10 -55 13 -122z m107 112 c0
-5 -9 -10 -21 -10 -11 0 -17 5 -14 10 3 6 13 10 21 10 8 0 14 -4 14 -10z m78
-8 c2 -7 -2 -10 -11 -6 -11 4 -21 -5 -32 -25 -8 -17 -19 -31 -24 -31 -5 0 -11
-9 -14 -21 -8 -31 -27 -13 -27 27 0 24 4 34 16 34 9 0 27 9 42 20 27 21 43 22
50 2z m-120 -123 c12 -58 22 -123 22 -143 0 -21 4 -45 9 -54 5 -9 11 -39 14
-67 5 -46 5 -47 -5 -17 -6 17 -15 32 -21 32 -5 0 -6 11 -3 25 5 18 2 25 -8 25
-8 0 -16 -6 -19 -12 -13 -37 -21 20 -25 170 -3 105 -1 163 5 157 5 -5 19 -58
31 -116z m116 63 c6 -10 -41 -114 -57 -124 -32 -20 -24 32 16 100 19 32 31 39
41 24z m-264 -152 c-8 -16 -8 -20 2 -18 8 2 14 -10 16 -33 3 -31 -4 -45 -49
-98 -29 -34 -57 -60 -63 -58 -23 8 -16 38 17 79 48 60 71 98 59 98 -5 0 -29
-25 -52 -56 l-42 -56 -29 28 c-35 34 -37 48 -5 40 21 -5 30 2 63 52 21 31 50
72 63 90 l25 34 3 -41 c2 -22 -2 -49 -8 -61z m-1890 71 c0 -19 -25 -35 -40
-26 -13 8 -1 33 18 38 10 3 18 5 20 6 1 0 2 -8 2 -18z m2743 -31 c3 -11 1 -23
-4 -26 -5 -3 -9 6 -9 20 0 31 6 34 13 6z m-2633 -6 c2 -3 -1 -13 -7 -22 -7 -9
-31 -48 -55 -87 -37 -61 -145 -197 -173 -217 -5 -4 -14 -6 -20 -4 -19 6 -3 41
41 88 24 26 44 52 44 59 0 19 41 70 65 79 17 7 21 14 17 38 -2 18 3 40 14 57
14 21 22 25 43 20 14 -4 28 -9 31 -11z m59 -50 c11 -24 8 -30 -29 -70 -22 -24
-40 -48 -40 -55 0 -6 -40 -51 -90 -101 -70 -71 -91 -88 -96 -75 -6 16 26 64
89 132 16 16 35 44 44 60 32 61 85 135 97 135 7 0 18 -12 25 -26z m2566 -191
c-6 -142 -10 -177 -24 -195 -10 -12 -23 -18 -29 -14 -17 10 -15 49 7 152 10
49 25 130 32 179 18 123 23 84 14 -122z m-2771 155 c-4 -7 -15 -22 -24 -33
-10 -11 -21 -31 -25 -45 -8 -28 -24 -50 -35 -50 -17 0 24 87 53 112 36 31 41
33 31 16z m250 -59 c10 -23 13 -45 9 -49 -4 -4 -35 -27 -68 -52 -33 -26 -86
-74 -118 -108 -32 -34 -63 -60 -70 -57 -27 9 -15 37 38 93 31 32 84 94 116
137 33 42 64 77 68 77 5 0 16 -19 25 -41z m1902 14 c-10 -10 -19 5 -10 18 6
11 8 11 12 0 2 -7 1 -15 -2 -18z m-81 -85 c-2 -18 2 -38 6 -44 6 -8 4 -14 -5
-17 -8 -3 -17 1 -20 9 -8 21 -8 79 0 87 13 13 21 -3 19 -35z m-165 -23 c-11
-20 -11 -27 0 -40 9 -11 11 -35 6 -86 -8 -85 -11 -92 -37 -76 -16 10 -21 9
-29 -3 -7 -10 -5 -18 5 -26 8 -6 15 -14 15 -18 0 -4 -13 3 -30 15 -22 17 -28
28 -24 45 4 15 0 25 -13 33 -17 10 -17 10 0 11 9 0 17 7 17 15 0 8 7 15 15 15
20 0 19 29 -1 37 -8 3 -20 1 -27 -6 -20 -20 -31 -12 -12 9 15 16 16 22 5 35
-17 21 -7 29 18 16 30 -16 52 -13 59 7 8 23 35 53 41 47 3 -3 -1 -16 -8 -30z
m110 -6 c0 -10 -10 -24 -22 -30 l-22 -12 22 -15 c26 -17 31 -72 7 -72 -20 0
-19 -17 1 -28 14 -8 14 -10 0 -21 -9 -8 -16 -19 -16 -25 0 -13 -35 -37 -43
-30 -10 11 6 90 21 102 12 9 13 15 4 24 -7 7 -12 39 -12 73 l0 62 30 -5 c21
-3 30 -10 30 -23z m-1750 -55 c0 -56 -3 -74 -12 -71 -7 2 -30 -11 -50 -31 -32
-30 -106 -68 -115 -58 -2 2 23 23 54 48 93 73 117 98 105 110 -7 7 -42 -18
-113 -80 -57 -50 -106 -89 -111 -86 -18 11 -5 32 60 95 54 54 169 149 180 149
1 0 2 -34 2 -76z m-398 36 c-9 -16 -21 -30 -25 -30 -5 0 0 14 10 30 9 17 21
30 25 30 4 0 -1 -13 -10 -30z m2208 -51 c0 -5 -4 -9 -10 -9 -5 0 -10 7 -10 16
0 8 5 12 10 9 6 -3 10 -10 10 -16z m-2152 -67 c17 -13 32 -24 32 -25 0 -1 9
-27 20 -57 11 -30 20 -79 20 -108 0 -48 -2 -53 -19 -47 -16 5 -22 -1 -30 -32
-14 -51 -57 -103 -70 -84 -5 8 -18 12 -30 8 -25 -6 -27 0 -7 22 25 28 34 102
18 141 -38 96 -147 149 -193 94 -18 -22 -29 -17 -29 14 0 36 32 67 60 59 13
-3 30 3 47 17 37 32 134 31 181 -2z m-149 -128 c12 -15 21 -30 21 -35 0 -13
-50 -83 -66 -92 -15 -9 -20 -47 -5 -47 5 0 14 13 20 28 15 36 64 89 69 74 8
-26 -99 -147 -117 -129 -6 6 -15 -2 -25 -19 l-15 -29 -1 33 c0 40 -15 38 -38
-3 -9 -17 -18 -32 -20 -34 -1 -3 -8 1 -14 7 -9 9 -7 13 6 18 22 8 50 64 39 75
-5 5 -25 0 -46 -11 -20 -11 -45 -20 -54 -20 -45 0 -95 -24 -148 -71 -56 -49
-88 -60 -48 -16 11 12 24 33 28 47 4 14 12 31 18 38 13 16 114 65 184 90 40
14 62 31 94 70 50 61 84 69 118 26z m2021 16 c-20 -13 -33 -13 -25 0 3 6 14
10 23 10 15 0 15 -2 2 -10z m-1703 -30 c-14 -11 -29 -20 -34 -20 -10 1 39 39
51 40 5 0 -3 -9 -17 -20z m1912 -24 c8 -6 28 -11 44 -11 23 0 31 -5 33 -21 2
-14 -3 -24 -14 -28 -9 -3 -24 -11 -33 -17 -23 -17 -77 -4 -133 34 -57 37 -67
54 -34 59 38 6 122 -4 137 -16z m-2486 -211 c1 -6 -10 -11 -25 -13 -31 -4 -39
14 -10 21 23 6 33 4 35 -8z m183 -12 c-10 -10 -19 5 -10 18 6 11 8 11 12 0 2
-7 1 -15 -2 -18z m-262 -18 c-4 -8 -13 -15 -21 -15 -13 0 -13 3 -3 15 7 8 16
15 21 15 5 0 6 -7 3 -15z m146 -29 c0 -8 -7 -16 -15 -20 -15 -5 -21 14 -8 27
11 12 23 8 23 -7z m66 -64 c-32 -33 -36 -34 -36 -15 0 12 14 33 32 48 46 39
49 12 4 -33z m-78 -29 c-1 -16 0 -35 3 -43 2 -9 -2 -15 -11 -15 -17 0 -24 27
-16 61 9 33 26 30 24 -3z m-82 -70 c-11 -11 -17 4 -9 23 7 18 8 18 11 1 2 -10
1 -21 -2 -24z m-300 0 c16 -16 15 -18 -10 -26 -14 -5 -26 -14 -26 -20 0 -21
17 -40 29 -33 6 4 20 2 33 -5 19 -10 20 -13 5 -24 -19 -13 -19 -55 0 -55 23 0
15 -38 -9 -42 -31 -4 -34 -26 -4 -38 36 -13 34 -40 -2 -40 -28 0 -87 -24 -96
-39 -12 -19 13 -34 47 -28 25 4 39 1 48 -9 7 -8 21 -19 30 -25 17 -8 18 -6 12
22 -4 23 -3 30 5 25 15 -9 16 -93 1 -102 -6 -4 -41 -8 -78 -9 -36 -1 -92 -8
-125 -15 -54 -13 -60 -12 -72 4 -19 26 -49 14 -34 -14 6 -11 19 -24 30 -30 16
-9 18 -15 10 -29 -7 -14 -6 -22 6 -32 18 -15 16 -90 -3 -96 -16 -6 -28 44 -15
60 7 8 6 18 -4 31 -14 20 -14 19 -14 0 0 -34 -13 -36 -37 -8 -24 28 -29 50
-14 56 5 2 11 46 14 99 3 67 9 103 21 122 10 14 21 47 24 73 4 26 10 45 13 43
4 -2 16 4 27 14 16 14 25 16 40 8 14 -7 24 -7 38 4 21 15 13 30 -21 38 -15 4
-13 5 8 6 15 0 27 7 27 14 0 27 -26 67 -42 67 -10 0 -18 4 -18 9 0 12 47 29
90 34 19 2 38 5 42 5 4 1 14 -6 24 -15z m228 9 c6 -10 -47 -52 -65 -52 -7 0 1
13 17 30 31 31 40 35 48 22z m1133 -78 l3 -39 -15 40 c-18 49 -18 48 -2 43 6
-3 13 -22 14 -44z m74 -6 c3 -140 -2 -292 -10 -335 -6 -29 -10 -189 -11 -357
0 -168 -3 -330 -6 -361 -5 -36 -3 -59 5 -69 15 -18 -2 -30 -32 -22 -29 7 -51
57 -42 96 5 23 3 32 -9 36 -14 5 -14 8 -3 18 15 12 30 70 20 79 -3 3 -7 27 -9
53 -2 26 -6 57 -9 68 -6 21 -6 21 10 2 11 -15 18 -17 27 -8 14 14 16 41 23
327 3 121 8 270 10 330 2 61 5 125 5 143 0 22 5 32 15 32 10 0 15 -11 16 -32z
m-1665 -2 c-4 -15 -1 -26 6 -28 8 -3 7 -11 -5 -28 l-17 -24 0 22 c0 13 -4 20
-10 17 -16 -10 -11 32 6 49 22 22 27 20 20 -8z m94 10 c0 -2 -7 -9 -15 -16
-12 -10 -15 -10 -15 4 0 9 7 16 15 16 8 0 15 -2 15 -4z m1673 -3 c4 -3 0 -14
-9 -24 -13 -14 -16 -73 -20 -410 -3 -216 -7 -396 -10 -400 -7 -12 7 -39 21
-39 15 0 23 86 28 303 2 75 6 139 9 142 12 12 18 -244 12 -464 l-7 -237 -60
-1 -60 -2 7 357 c4 196 12 402 18 457 6 55 10 147 10 205 0 58 2 108 5 113 5
9 47 9 56 0z m175 -94 c-1 -25 2 -50 6 -57 4 -7 5 -21 1 -31 -3 -11 -2 -22 3
-25 10 -6 8 -61 -3 -88 -4 -10 -2 -32 4 -49 8 -24 8 -36 0 -46 -9 -10 -8 -18
5 -31 9 -10 14 -21 11 -24 -9 -9 -20 -215 -13 -250 2 -9 -1 -17 -7 -18 -16 -1
-22 64 -35 380 -7 162 -16 303 -21 312 -7 13 -4 17 14 20 27 4 38 -26 35 -93z
m-81 23 c2 -31 9 -172 17 -312 31 -530 37 -676 29 -730 -7 -49 -11 -55 -32
-55 -18 0 -26 7 -32 26 -11 44 -6 1137 6 1133 5 -3 11 -30 12 -62z m-272 -59
c-3 -13 -10 -21 -16 -17 -8 4 -7 10 0 17 6 6 12 27 12 47 2 32 2 32 6 6 3 -15
2 -39 -2 -53z m214 20 c-1 -32 -4 -98 -8 -148 -8 -88 -8 -86 -9 58 -1 92 2
147 8 147 6 0 10 -25 9 -57z m1074 -21 c-4 -18 -8 -20 -19 -11 -12 10 -11 14
3 24 22 16 24 15 16 -13z m-2908 -52 c-4 -12 -9 -19 -12 -17 -3 3 -2 15 2 27
4 12 9 19 12 17 3 -3 2 -15 -2 -27z m1613 -29 c4 -24 3 -24 -19 -9 -33 21 -37
40 -8 36 17 -2 25 -11 27 -27z m2 -61 c0 -18 -3 -19 -20 -10 -11 6 -20 15 -20
20 0 6 9 10 20 10 13 0 20 -7 20 -20z m-1851 -46 c-6 -16 -13 -24 -16 -17 -5
13 16 58 23 50 3 -2 -1 -17 -7 -33z m211 22 c0 -3 -4 -8 -10 -11 -5 -3 -10 -1
-10 4 0 6 5 11 10 11 6 0 10 -2 10 -4z m1637 -32 c-3 -3 -12 -4 -19 -1 -8 3
-5 6 6 6 11 1 17 -2 13 -5z m-1653 -19 c-4 -8 -11 -15 -16 -15 -6 0 -8 -12 -4
-31 5 -27 4 -28 -9 -15 -19 19 -19 35 2 58 20 22 35 24 27 3z m-58 -39 c3 -27
-23 -44 -32 -22 -6 16 14 61 23 52 4 -3 7 -17 9 -30z m1701 -22 c-3 -3 -12 -4
-19 -1 -8 3 -5 6 6 6 11 1 17 -2 13 -5z m-1407 -38 c7 -14 9 -32 5 -43 -5 -12
-9 -14 -12 -5 -3 6 -20 12 -39 12 -28 0 -34 -4 -34 -21 0 -12 -4 -17 -11 -14
-6 4 -8 14 -5 22 4 10 1 13 -13 8 -14 -4 -18 -1 -17 17 1 18 9 24 39 29 20 3
40 9 44 12 13 14 30 6 43 -17z m1417 -38 c-3 -8 -6 -5 -6 6 -1 11 2 17 5 13 3
-3 4 -12 1 -19z m-1329 -25 c20 -29 62 -108 62 -118 0 -3 -5 -5 -12 -5 -6 0
-20 -7 -30 -17 -10 -9 -18 -11 -18 -6 0 6 7 16 15 23 8 7 15 18 15 26 0 24
-21 26 -45 4 -29 -28 -41 -10 -15 23 24 30 27 72 5 63 -10 -4 -15 1 -15 14 0
28 15 25 38 -7z m3710 -25 c3 -22 0 -26 -16 -21 -23 6 -39 -14 -24 -29 8 -8
15 -8 25 0 12 10 15 -10 20 -124 4 -74 12 -144 18 -155 8 -17 19 -20 63 -18
62 3 76 -4 76 -36 0 -12 7 -25 15 -29 24 -9 20 -98 -5 -121 -24 -22 -25 -42
-3 -67 15 -17 15 -20 1 -34 -15 -15 -17 -14 -27 5 -14 24 -43 28 -61 6 -14
-17 -46 -20 -55 -5 -7 11 -30 4 -66 -22 -32 -22 -30 -24 -94 102 -26 52 -58
109 -70 125 -21 27 -23 42 -24 156 -1 104 1 129 14 139 14 12 15 10 10 -12 -4
-15 -2 -29 5 -33 14 -9 18 -5 24 26 7 37 7 37 16 -1 5 -19 6 -60 3 -91 -5 -46
-3 -57 11 -62 13 -5 16 -23 16 -103 0 -81 3 -102 21 -130 11 -19 25 -32 30
-28 5 3 9 85 9 182 1 229 6 388 15 402 13 22 50 7 53 -22z m-3817 -21 c-8 -8
-11 -5 -11 9 0 27 14 41 18 19 2 -9 -1 -22 -7 -28z m1433 -64 c-3 -53 -7 -99
-9 -101 -3 -3 -11 1 -20 8 -14 12 -14 15 1 31 11 13 15 33 13 71 -3 74 0 100
10 94 5 -4 7 -50 5 -103z m-1494 77 c0 -5 -5 -10 -11 -10 -5 0 -7 5 -4 10 3 6
8 10 11 10 2 0 4 -4 4 -10z m-20 -60 c0 -5 -2 -10 -4 -10 -3 0 -8 5 -11 10 -3
6 -1 10 4 10 6 0 11 -4 11 -10z m50 -21 c0 -6 -4 -7 -10 -4 -5 3 -10 11 -10
16 0 6 5 7 10 4 6 -3 10 -11 10 -16z m64 -19 c3 -16 3 -44 -1 -60 l-6 -31 -18
31 c-19 31 -25 71 -12 83 15 15 31 5 37 -23z m136 -55 c-21 -26 -31 -16 -13
11 9 15 19 21 21 15 2 -6 -2 -18 -8 -26z m3547 3 c-3 -8 -6 -5 -6 6 -1 11 2
17 5 13 3 -3 4 -12 1 -19z m-3515 -70 c-15 -15 -26 -4 -18 18 5 13 9 15 18 6
9 -9 9 -15 0 -24z m1228 7 c0 -8 -4 -15 -9 -15 -5 0 -11 7 -15 15 -3 9 0 15 9
15 8 0 15 -7 15 -15z m2055 -13 c-8 -8 -25 10 -19 20 4 6 9 5 15 -3 4 -7 6
-15 4 -17z m-3435 -37 c14 5 22 1 26 -12 3 -10 10 -27 15 -38 5 -11 11 -79 14
-152 2 -72 7 -143 11 -157 3 -15 2 -26 -4 -26 -10 0 -15 19 -37 140 -19 104
-42 196 -59 228 -7 15 -17 38 -21 52 -5 21 -3 19 14 -8 16 -25 26 -32 41 -27z
m3916 22 c-1 -16 6 -23 22 -25 17 -3 22 -9 20 -25 -2 -18 -10 -22 -43 -22 -38
0 -40 2 -43 32 -4 38 13 74 31 67 8 -3 13 -15 13 -27z m-3736 -58 c0 -20 -15
-26 -25 -9 -9 15 3 43 15 35 5 -3 10 -15 10 -26z m1590 -8 c0 -6 -4 -13 -10
-16 -5 -3 -10 1 -10 9 0 9 5 16 10 16 6 0 10 -4 10 -9z m-1580 -81 c0 -11 -4
-20 -10 -20 -5 0 -10 9 -10 20 0 11 5 20 10 20 6 0 10 -9 10 -20z m225 -40
c-3 -6 -31 -29 -61 -51 -39 -29 -61 -54 -75 -86 -23 -54 -23 -53 -4 -53 19 0
19 -1 -10 -56 -14 -26 -25 -53 -25 -60 0 -17 -24 -29 -72 -38 -23 -4 -42 -15
-49 -27 -19 -36 -20 -14 -2 59 12 53 22 73 38 80 29 13 89 87 107 132 11 24
28 42 59 57 24 13 55 32 69 42 25 20 37 21 25 1z m270 -100 c-3 -5 -12 -10
-18 -10 -7 0 -6 4 3 10 19 12 23 12 15 0z m-270 -10 c4 -7 13 -7 26 0 23 13
26 -2 4 -20 -11 -10 -19 -10 -27 -2 -6 6 -17 8 -24 5 -8 -3 -14 1 -14 11 0 18
25 22 35 6z m215 0 c-8 -5 -22 -7 -30 -5 -9 3 -30 1 -48 -4 -17 -5 -32 -6 -32
-1 0 13 21 18 75 19 36 1 46 -2 35 -9z m-143 -50 c-11 -29 -27 -41 -27 -20 0
14 23 50 32 50 3 0 1 -13 -5 -30z m301 22 c13 -9 -69 -32 -110 -32 -17 0 -18
3 -8 14 16 21 95 32 118 18z m-368 -32 c0 -5 -9 -10 -20 -10 -11 0 -20 5 -20
10 0 6 9 10 20 10 11 0 20 -4 20 -10z m113 -22 c-1 -18 -2 -35 -2 -37 -1 -2
-10 8 -22 23 -22 28 -18 46 9 46 13 0 17 -8 15 -32z m-153 -18 c0 -5 -5 -10
-11 -10 -5 0 -7 5 -4 10 3 6 8 10 11 10 2 0 4 -4 4 -10z m260 -10 c0 -5 -7
-10 -16 -10 -8 0 -12 5 -9 10 3 6 10 10 16 10 5 0 9 -4 9 -10z m3125 -20 c-14
-16 -16 -23 -7 -32 9 -9 17 -7 32 7 11 10 22 16 25 13 7 -7 -17 -98 -26 -98
-10 0 -59 78 -59 94 0 8 8 20 18 25 28 17 36 12 17 -9z m142 -15 c-4 -27 -1
-38 13 -48 18 -13 19 -19 8 -100 -6 -48 -16 -87 -22 -87 -17 1 -81 89 -79 108
1 9 10 50 19 90 16 65 20 72 42 72 23 0 24 -3 19 -35z m50 3 c-3 -8 -6 -5 -6
6 -1 11 2 17 5 13 3 -3 4 -12 1 -19z m-3287 -8 c0 -5 -12 -10 -27 -9 -25 0
-26 1 -8 9 27 12 35 12 35 0z m-395 -20 c-3 -5 -11 -10 -16 -10 -6 0 -7 5 -4
10 3 6 11 10 16 10 6 0 7 -4 4 -10z m201 -17 c-10 -10 -19 5 -10 18 6 11 8 11
12 0 2 -7 1 -15 -2 -18z m-132 -51 c0 -32 -5 -65 -10 -73 -16 -25 -60 -48 -83
-42 -16 4 -32 -3 -54 -23 -30 -27 -71 -54 -82 -54 -3 0 -5 7 -5 16 0 8 15 21
33 29 44 18 99 82 141 162 10 20 21 30 30 27 8 -3 17 -1 21 5 10 17 10 15 9
-47z m313 -48 c-3 -3 -12 -4 -19 -1 -8 3 -5 6 6 6 11 1 17 -2 13 -5z m-417
-84 c0 -5 -5 -10 -11 -10 -5 0 -7 5 -4 10 3 6 8 10 11 10 2 0 4 -4 4 -10z
m505 -20 c-3 -5 -10 -10 -16 -10 -5 0 -9 5 -9 10 0 6 7 10 16 10 8 0 12 -4 9
-10z m-115 -20 c0 -5 -7 -7 -15 -4 -8 4 -15 8 -15 10 0 2 7 4 15 4 8 0 15 -4
15 -10z m-325 -30 c3 -5 -3 -10 -14 -10 -12 0 -21 5 -21 10 0 6 6 10 14 10 8
0 18 -4 21 -10z m35 0 c0 -5 -4 -10 -10 -10 -5 0 -10 5 -10 10 0 6 5 10 10 10
6 0 10 -4 10 -10z m1723 -65 c8 -39 14 -71 13 -72 0 0 -23 1 -49 4 -37 4 -47
9 -43 20 4 8 6 30 6 49 0 28 5 36 25 44 14 5 25 15 25 21 0 27 10 -1 23 -66z
m-1015 53 c7 -7 12 -23 12 -35 0 -16 10 -30 30 -41 33 -19 37 -42 16 -82 -11
-19 -22 -24 -57 -25 -24 -1 -47 3 -51 9 -4 6 -18 11 -30 11 -20 0 -23 5 -23
36 0 20 -6 43 -14 52 -20 24 3 47 43 44 25 -2 32 2 34 21 4 24 21 29 40 10z
m229 -20 c15 -30 24 -92 15 -111 -2 -4 -13 0 -25 8 -28 20 -30 19 -65 -10 -43
-36 -48 -16 -12 52 17 31 29 62 26 69 -6 16 3 24 25 24 11 0 26 -14 36 -32z
m1188 -33 c-9 -46 -27 -57 -105 -63 -64 -4 -75 -8 -107 -38 -38 -36 -80 -47
-69 -18 3 9 6 21 6 28 0 7 10 12 23 12 25 -1 34 29 17 54 -9 13 -12 13 -24 -3
-12 -15 -14 -16 -20 -2 -8 22 -25 18 -36 -7 -7 -19 -9 -14 -9 25 -1 26 1 47 3
47 2 0 20 -7 39 -15 24 -10 38 -11 42 -4 5 7 11 7 19 0 13 -11 157 -8 175 4 6
3 11 13 11 21 0 12 3 12 21 2 16 -10 19 -20 14 -43z m-2275 35 c-20 -13 -33
-13 -25 0 3 6 14 10 23 10 15 0 15 -2 2 -10z m435 -9 c-16 -14 -55 -23 -55
-12 0 8 16 14 55 20 6 0 6 -2 0 -8z m1290 1 c6 -4 12 -26 14 -48 l2 -42 -83
-1 c-72 -1 -85 -4 -101 -23 -15 -18 -16 -24 -4 -42 8 -12 30 -32 50 -45 41
-27 46 -45 18 -61 -33 -17 -55 -11 -72 19 -14 24 -21 27 -50 23 -45 -6 -69
-28 -69 -64 0 -40 -32 -38 -51 5 -12 28 -20 32 -55 35 -27 2 -45 -2 -54 -13
-14 -17 -30 -20 -30 -5 0 6 11 15 25 20 18 7 25 17 25 36 0 15 3 25 6 21 8 -7
64 13 64 23 0 5 -8 13 -17 19 -14 7 -10 11 22 16 76 13 229 68 297 108 50 29
50 29 63 19z m-1473 -34 c65 -18 86 -19 123 -11 48 11 65 4 40 -17 -8 -7 -15
-19 -15 -26 0 -7 -11 -21 -25 -30 -23 -15 -27 -15 -43 -1 -9 8 -36 18 -59 22
-39 6 -43 4 -70 -29 -20 -26 -36 -36 -55 -36 -26 0 -28 3 -28 44 0 24 -3 58
-6 75 -6 30 -5 31 26 31 18 0 68 -10 112 -22z m101 15 c-7 -2 -19 -2 -25 0 -7
3 -2 5 12 5 14 0 19 -2 13 -5z m151 -28 c8 -8 17 -24 21 -34 3 -10 15 -21 25
-24 24 -6 26 -38 4 -72 -23 -35 -13 -53 25 -47 20 3 31 0 31 -8 0 -9 -54 -10
-227 -4 -224 7 -298 15 -243 27 14 3 36 5 50 4 19 -2 26 3 28 20 4 30 29 50
44 35 7 -7 18 -12 25 -12 8 0 24 -12 37 -27 24 -28 46 -25 46 7 0 25 17 35 36
19 24 -19 40 4 28 38 -8 24 -6 33 15 60 29 37 34 39 55 18z m733 -21 c-9 -9
-28 6 -21 18 4 6 10 6 17 -1 6 -6 8 -13 4 -17z m-1157 -4 c0 -5 -4 -10 -10
-10 -5 0 -10 5 -10 10 0 6 5 10 10 10 6 0 10 -4 10 -10z m1799 -79 c21 -21 55
-44 77 -51 21 -7 42 -14 45 -16 3 -2 -2 -27 -12 -56 -14 -44 -22 -54 -43 -56
-26 -3 -35 11 -16 23 10 6 14 45 5 45 -3 0 -18 -13 -34 -29 -15 -16 -38 -32
-50 -36 -12 -3 -29 -18 -38 -31 -24 -37 -40 -14 -17 24 15 26 15 33 4 46 -16
20 -40 4 -40 -28 0 -17 -2 -18 -10 -6 -9 13 -12 13 -23 0 -8 -10 -31 -15 -67
-16 -30 0 -100 -4 -155 -8 -91 -6 -97 -6 -69 7 17 8 65 19 107 25 56 7 90 18
127 41 28 17 55 29 60 26 9 -6 51 55 45 66 -3 3 -38 9 -78 12 -86 8 -107 14
-107 33 0 20 79 18 102 -2 12 -12 21 -14 30 -7 18 14 69 31 96 32 14 1 37 -14
61 -38z m81 24 c0 -8 -4 -15 -10 -15 -5 0 -7 7 -4 15 4 8 8 15 10 15 2 0 4 -7
4 -15z m-1880 -5 c0 -5 -7 -10 -15 -10 -8 0 -15 5 -15 10 0 6 7 10 15 10 8 0
15 -4 15 -10z m624 -16 c9 -3 16 -14 16 -24 0 -34 12 -50 37 -50 13 0 21 -4
18 -10 -7 -12 -105 -14 -106 -2 0 4 -2 23 -4 42 -4 49 3 58 39 44z m391 -10
c37 -7 55 -28 55 -63 0 -19 -6 -21 -68 -21 -74 0 -97 12 -81 42 5 10 7 18 3
18 -4 0 1 9 11 20 10 12 24 19 31 16 7 -3 29 -8 49 -12z m-478 -16 c-3 -8 -6
-5 -6 6 -1 11 2 17 5 13 3 -3 4 -12 1 -19z m-542 -18 c3 -5 -1 -10 -10 -10 -9
0 -13 5 -10 10 3 6 8 10 10 10 2 0 7 -4 10 -10z m10 -70 c-3 -5 -10 -10 -16
-10 -5 0 -9 5 -9 10 0 6 7 10 16 10 8 0 12 -4 9 -10z m883 -19 c121 -1 192 -5
192 -11 0 -13 -1026 -14 -1034 -1 -3 4 -4 10 -2 12 3 2 150 3 328 2 177 -1
410 -2 516 -2z m542 -1 c0 -5 -7 -10 -16 -10 -8 0 -12 5 -9 10 3 6 10 10 16
10 5 0 9 -4 9 -10z m-160 -51 c0 -4 -5 -11 -10 -14 -11 -7 -31 35 -22 49 5 9
32 -21 32 -35z m-1256 5 c11 -28 7 -141 -4 -124 -19 28 -50 121 -45 131 10 15
42 10 49 -7z m1176 -15 c0 -12 -7 -19 -18 -19 -28 0 -34 12 -14 30 20 20 32
16 32 -11z m627 -1 c-3 -8 -6 -5 -6 6 -1 11 2 17 5 13 3 -3 4 -12 1 -19z
m-197 -28 c0 -6 -6 -12 -12 -14 -7 -2 -39 -11 -70 -21 -31 -9 -69 -15 -84 -13
l-28 3 25 11 c82 38 169 55 169 34z m270 -9 c0 -23 -16 -36 -25 -21 -9 14 1
40 15 40 5 0 10 -9 10 -19z m-560 -11 l55 -6 -50 -8 c-67 -11 -101 -32 -84
-52 28 -34 70 -46 131 -40 54 7 58 6 58 -14 0 -11 5 -20 10 -20 6 0 10 -9 10
-20 0 -11 5 -20 10 -20 6 0 15 -11 20 -25 9 -24 39 -32 89 -25 22 3 61 -10 61
-20 0 -5 -30 -6 -70 -3 -60 5 -70 4 -76 -12 -7 -17 13 -38 28 -29 5 3 33 2 63
-1 38 -5 55 -12 55 -22 0 -10 -6 -12 -21 -8 -24 8 -129 8 -137 1 -2 -3 -2 -12
1 -21 5 -11 21 -15 64 -15 32 0 65 -5 73 -10 9 -6 -5 -7 -42 -3 -49 5 -59 3
-64 -12 -9 -24 12 -34 64 -31 44 2 62 -8 44 -26 -6 -6 -17 -5 -31 3 -16 10
-23 11 -32 2 -15 -15 6 -44 26 -37 23 9 54 -14 48 -36 -5 -17 -7 -18 -17 -7
-15 20 -57 28 -73 15 -10 -8 -10 -14 -3 -23 8 -9 8 -15 0 -20 -5 -3 -10 -13
-10 -22 0 -13 9 -15 49 -10 65 8 75 -5 14 -18 -51 -11 -67 -37 -25 -43 37 -6
24 -38 -14 -34 -33 3 -64 -20 -44 -33 8 -5 8 -10 0 -20 -11 -14 1 -58 19 -70
6 -3 31 -7 56 -9 51 -3 61 -9 70 -48 6 -24 2 -29 -34 -48 -23 -11 -46 -18 -52
-14 -23 14 -295 12 -379 -2 -124 -22 -252 -33 -289 -25 l-33 6 22 20 c19 18
46 22 138 24 12 1 38 17 58 36 28 28 42 35 75 35 33 0 43 5 56 28 9 16 26 33
37 38 11 5 24 24 28 42 8 29 18 37 42 33 4 -1 14 3 21 9 14 12 12 22 -21 110
-9 25 -20 79 -25 120 -12 105 -27 192 -51 285 -25 98 -30 135 -18 135 5 0 12
9 15 20 4 13 11 17 18 13 7 -4 37 -10 67 -13z m309 -35 c-17 -18 -75 -36 -84
-27 -3 3 14 14 37 23 54 22 66 23 47 4z m-21 -71 c37 -10 19 -29 -24 -25 -44
3 -49 6 -39 20 7 12 29 14 63 5z m17 -73 c9 -15 -14 -24 -29 -12 -7 6 -22 9
-32 5 -16 -5 -16 -4 -4 5 18 13 57 14 65 2z m0 -562 c10 -16 -1 -22 -26 -14
-17 6 -19 9 -8 16 19 12 26 11 34 -2z m-1678 -51 c-3 -8 -6 -5 -6 6 -1 11 2
17 5 13 3 -3 4 -12 1 -19z m29 -53 c-7 -27 -26 -34 -26 -10 0 20 24 58 28 45
2 -6 1 -22 -2 -35z m-76 1 c0 -17 -14 -29 -23 -20 -8 8 3 34 14 34 5 0 9 -6 9
-14z m-65 -47 c-8 -12 -35 -12 -35 0 0 11 22 20 33 14 4 -2 5 -9 2 -14z m97
-42 c26 -66 30 -104 12 -111 -24 -9 -30 -1 -44 63 -19 92 2 125 32 48z m78
-15 c9 -27 21 -42 34 -44 19 -3 18 -5 -7 -21 -27 -17 -27 -17 -37 8 -6 15 -10
37 -10 50 0 13 -4 27 -10 30 -14 9 -12 27 3 23 6 -3 19 -23 27 -46z m-150 -34
c7 -29 15 -59 17 -65 3 -8 -4 -13 -20 -13 -27 0 -27 0 -42 93 -5 32 -3 37 13
37 14 0 21 -13 32 -52z m-1070 -192 c0 -15 -14 -35 -21 -30 -15 9 -10 34 6 34
8 0 15 -2 15 -4z m57 -42 c-9 -9 -28 6 -21 18 4 6 10 6 17 -1 6 -6 8 -13 4
-17z m621 8 c4 -14 -44 -37 -102 -47 -53 -10 -45 12 15 42 47 24 80 26 87 5z
m-550 -46 c2 -26 0 -37 -9 -34 -6 2 -13 21 -15 42 -2 26 1 36 9 33 7 -2 13
-21 15 -41z m-138 -6 c0 -5 -4 -10 -10 -10 -5 0 -10 5 -10 10 0 6 5 10 10 10
6 0 10 -4 10 -10z m220 -1 c0 -7 11 -8 29 -4 42 9 101 -4 101 -22 0 -11 -6
-14 -22 -9 -13 4 -47 8 -76 10 -57 4 -68 9 -57 25 8 14 25 14 25 0z m200 -25
c0 -8 -4 -12 -10 -9 -5 3 -10 10 -10 16 0 5 5 9 10 9 6 0 10 -7 10 -16z"/>
<path d="M2263 6138 c-18 -21 -19 -26 -7 -53 7 -16 13 -26 14 -22 0 5 13 -1
28 -12 l29 -20 17 40 c20 45 17 56 -12 38 -11 -7 -27 -9 -38 -4 -15 6 -16 8
-4 13 19 6 30 23 24 34 -9 14 -30 8 -51 -14z"/>
<path d="M2490 5931 c0 -6 5 -13 10 -16 6 -3 10 1 10 9 0 9 -4 16 -10 16 -5 0
-10 -4 -10 -9z"/>
<path d="M2642 5548 c-14 -14 -16 -158 -3 -158 13 0 18 19 26 92 7 66 -1 88
-23 66z"/>
<path d="M2700 5540 c-14 -26 -2 -152 14 -147 14 5 21 167 7 167 -6 0 -15 -9
-21 -20z"/>
<path d="M2552 5527 c-26 -31 -49 -346 -26 -354 7 -2 13 32 18 100 3 58 13
130 21 161 17 65 19 92 6 100 -5 3 -13 0 -19 -7z"/>
<path d="M2446 5448 c-6 -27 -14 -83 -22 -154 -4 -35 -2 -54 6 -59 19 -12 24
2 31 88 4 45 11 97 14 115 6 26 4 32 -9 32 -8 0 -18 -10 -20 -22z"/>
<path d="M2698 5300 c-4 -8 -9 -78 -11 -155 -3 -77 -12 -201 -21 -275 -22
-192 -36 -374 -36 -452 0 -55 3 -68 16 -68 12 0 15 10 13 48 -4 85 12 334 31
492 10 85 20 198 22 250 4 99 -4 186 -14 160z"/>
<path d="M2606 5278 c-2 -7 -10 -83 -16 -168 -26 -347 -32 -402 -59 -548 -10
-50 -3 -94 13 -89 6 2 12 19 14 38 1 19 9 84 17 144 19 147 59 552 60 614 0
19 -24 26 -29 9z"/>
<path d="M2766 5209 c-7 -25 -35 -282 -41 -379 -3 -52 -10 -113 -15 -135 -17
-66 -25 -371 -11 -380 7 -4 15 -4 18 -1 3 3 8 74 10 158 2 84 8 185 13 223 6
39 15 126 20 195 5 69 14 167 20 219 8 65 8 97 1 104 -7 7 -12 6 -15 -4z"/>
<path d="M2436 5063 c-7 -60 -29 -324 -30 -378 -1 -29 3 -40 14 -40 12 0 17
26 26 125 22 243 25 340 10 340 -9 0 -16 -17 -20 -47z"/>
<path d="M2506 5058 c-9 -78 -10 -277 -3 -285 18 -18 26 24 31 175 5 135 4
162 -8 162 -9 0 -16 -17 -20 -52z"/>
<path d="M2697 4283 c-4 -3 -7 -37 -7 -75 0 -52 3 -68 14 -68 10 0 17 17 21
54 9 71 -4 113 -28 89z"/>
<path d="M4260 4895 c-14 -16 -5 -35 16 -35 15 0 20 35 5 44 -5 3 -14 -1 -21
-9z"/>
<path d="M4105 5000 c3 -5 8 -10 11 -10 2 0 4 5 4 10 0 6 -5 10 -11 10 -5 0
-7 -4 -4 -10z"/>
<path d="M3732 4353 c4 -21 33 -25 33 -3 0 8 -8 16 -18 18 -14 3 -18 -1 -15
-15z"/>
<path d="M3724 4279 c-9 -16 12 -33 31 -25 14 5 15 9 5 21 -15 18 -26 19 -36
4z"/>
<path d="M4755 2921 c-7 -12 12 -24 25 -16 11 7 4 25 -10 25 -5 0 -11 -4 -15
-9z"/>
<path d="M4847 2633 c-14 -13 -6 -53 12 -62 14 -8 23 -6 36 9 10 11 24 20 32
20 7 0 13 9 13 20 0 21 -24 27 -36 9 -4 -8 -9 -8 -17 0 -12 12 -30 14 -40 4z"/>
<path d="M3040 1990 c0 -13 5 -20 13 -17 6 2 12 10 12 17 0 7 -6 15 -12 18 -8
2 -13 -5 -13 -18z"/>
<path d="M630 5689 c-201 -13 -345 -112 -433 -298 -32 -68 -40 -98 -44 -162
-14 -195 78 -370 246 -469 91 -53 167 -73 277 -73 79 1 101 5 169 34 75 31
163 93 212 148 36 42 80 131 97 199 63 249 -74 497 -327 594 -82 32 -96 34
-197 27z m218 -85 c224 -108 322 -347 238 -578 -25 -67 -40 -90 -95 -146 -73
-74 -133 -109 -229 -134 -134 -34 -251 -10 -367 75 -64 47 -95 82 -128 143
-39 71 -57 140 -57 221 0 179 86 325 241 410 78 42 141 55 237 50 70 -3 95
-10 160 -41z"/>
<path d="M642 5553 c-5 -10 -23 -56 -41 -103 -18 -47 -37 -95 -41 -107 -9 -21
-16 -23 -127 -25 -110 -3 -118 -4 -118 -23 0 -14 21 -34 65 -62 119 -78 110
-67 95 -116 -7 -24 -25 -68 -40 -96 -26 -53 -30 -91 -9 -98 6 -2 59 28 117 67
58 38 113 70 123 70 17 0 79 -34 102 -57 7 -7 17 -13 22 -13 4 0 30 -18 56
-40 54 -44 62 -47 71 -25 5 15 -28 128 -61 206 -19 44 -14 51 69 107 71 47 92
69 79 82 -5 5 -61 11 -123 12 l-114 3 -17 50 c-28 80 -78 185 -89 185 -6 0
-14 -8 -19 -17z m52 -128 c14 -36 26 -71 26 -79 0 -19 -106 -37 -122 -21 -7 8
52 165 62 165 4 0 20 -29 34 -65z m250 -134 c5 -8 -98 -81 -115 -81 -8 0 -29
47 -29 65 0 9 15 15 48 18 26 2 57 4 69 5 12 1 24 -2 27 -7z m-174 -47 c11
-26 20 -52 20 -58 -1 -6 -25 -27 -54 -47 l-53 -36 -72 34 c-56 27 -72 39 -67
51 33 103 26 98 143 101 l62 1 21 -46z m-248 30 c11 -10 -16 -64 -32 -64 -19
0 -90 47 -90 60 0 10 113 14 122 4z m314 -194 c14 -35 23 -70 22 -78 -2 -8
-28 5 -76 39 -40 28 -71 53 -68 56 20 21 73 52 85 50 7 -1 24 -31 37 -67z
m-253 31 c26 -12 45 -26 42 -31 -8 -13 -143 -100 -155 -100 -13 0 -14 -2 14
66 12 32 26 67 30 77 3 10 9 17 14 15 4 -2 28 -14 55 -27z"/>
<path d="M4260 5665 c0 -8 5 -15 10 -15 6 0 10 7 10 15 0 8 -4 15 -10 15 -5 0
-10 -7 -10 -15z"/>
<path d="M756 3680 c-3 -22 -11 -40 -16 -40 -6 0 -10 -8 -9 -17 0 -11 3 -13 6
-5 2 6 11 12 18 12 25 0 36 35 21 64 l-13 26 -7 -40z"/>
<path d="M4217 3673 c-13 -13 -7 -23 16 -23 25 0 42 -9 121 -64 59 -40 105
-55 169 -56 63 0 41 17 -29 23 -63 5 -69 7 -118 55 -59 58 -136 89 -159 65z"/>
<path d="M3983 3625 c-3 -9 -3 -19 1 -22 3 -3 1 -12 -6 -20 -17 -21 4 -37 47
-35 48 2 57 9 45 32 -7 14 -5 19 10 23 27 7 25 23 -2 31 -43 11 -88 7 -95 -9z"/>
<path d="M585 3570 c3 -5 8 -10 11 -10 2 0 4 5 4 10 0 6 -5 10 -11 10 -5 0 -7
-4 -4 -10z"/>
<path d="M1257 3552 c-33 -34 -33 -37 -2 -58 23 -15 27 -15 49 0 30 19 42 52
26 71 -19 23 -43 18 -73 -13z m43 -11 c0 -12 -20 -25 -27 -18 -7 7 6 27 18 27
5 0 9 -4 9 -9z"/>
<path d="M4002 3523 c-12 -2 -20 -9 -16 -14 3 -6 3 -22 -1 -36 -4 -19 -9 -23
-18 -14 -15 15 -27 14 -27 -4 0 -8 -4 -15 -8 -15 -5 0 -20 -18 -35 -41 -27
-40 -33 -72 -21 -103 10 -26 27 -18 22 9 -6 29 7 42 26 26 7 -6 16 -8 19 -5
12 13 -2 -58 -15 -73 -14 -17 -12 -52 2 -67 5 -5 12 2 15 17 4 15 15 29 25 32
11 3 22 15 25 26 7 21 25 26 25 7 0 -9 3 -9 12 0 17 17 28 15 29 -5 0 -11 6
-6 14 13 20 45 105 116 105 88 0 -4 -7 -12 -16 -19 -9 -6 -20 -32 -24 -56 -4
-24 -14 -58 -21 -76 -7 -18 -10 -35 -6 -39 9 -9 57 24 57 39 0 25 24 64 45 73
30 13 24 78 -10 110 -14 13 -25 30 -25 37 0 8 -8 25 -18 37 -16 19 -24 22 -56
16 -35 -7 -62 -36 -39 -43 6 -2 -3 -18 -18 -34 -16 -17 -29 -42 -29 -55 0 -15
-6 -24 -15 -24 -11 0 -15 12 -15 44 0 25 5 48 11 51 6 4 8 13 5 21 -5 14 14
39 36 46 12 4 4 39 -9 37 -4 -1 -18 -4 -31 -6z m138 -113 c0 -9 -11 -22 -25
-28 -36 -17 -38 -15 -20 12 12 18 13 26 4 31 -8 6 -8 10 2 16 17 10 39 -8 39
-31z"/>
<path d="M4410 3502 c0 -4 4 -12 9 -17 5 -6 13 -25 18 -43 10 -42 29 -38 26 6
-2 31 9 43 22 22 7 -12 35 -13 35 -2 0 10 -71 42 -93 42 -10 0 -17 -4 -17 -8z"/>
<path d="M1258 3439 c-22 -12 -23 -38 -2 -67 19 -28 53 -28 82 -2 26 25 27 29
6 58 -16 24 -56 29 -86 11z m57 -39 c0 -22 -29 -18 -33 3 -3 14 1 18 15 15 10
-2 18 -10 18 -18z"/>
<path d="M4466 3329 c-2 -8 -9 -58 -16 -111 -10 -78 -10 -101 0 -113 16 -20
33 -8 27 19 -3 11 -2 62 2 111 4 50 4 94 0 99 -5 5 -10 3 -13 -5z"/>
<path d="M3746 3278 c-3 -17 -2 -36 4 -42 7 -7 10 4 10 32 0 50 -5 54 -14 10z"/>
<path d="M3835 3250 c-3 -5 -1 -10 4 -10 6 0 11 5 11 10 0 6 -2 10 -4 10 -3 0
-8 -4 -11 -10z"/>
<path d="M3994 3215 c-11 -27 2 -37 14 -11 7 16 8 26 1 26 -5 0 -12 -7 -15
-15z"/>
<path d="M495 3123 c-38 -20 -75 -53 -75 -68 0 -6 -13 -24 -30 -40 -30 -28
-39 -55 -20 -55 19 0 10 -20 -12 -29 -43 -17 -79 -67 -103 -142 -13 -41 -33
-100 -44 -131 -23 -63 -27 -92 -11 -86 6 2 31 62 54 134 52 155 63 175 91 168
17 -4 25 4 45 43 13 26 24 55 23 64 -1 9 13 24 33 35 27 15 34 24 30 41 -5 18
1 24 39 40 25 10 45 24 45 31 0 16 -29 15 -65 -5z"/>
<path d="M4601 3118 c-9 -24 4 -52 20 -42 12 7 11 51 -1 59 -6 3 -14 -4 -19
-17z"/>
<path d="M535 3079 c-4 -6 -5 -12 -3 -14 8 -8 138 8 138 16 0 13 -128 11 -135
-2z"/>
<path d="M545 3021 c-3 -5 -2 -12 2 -14 13 -7 83 5 83 14 0 12 -77 12 -85 0z"/>
<path d="M4110 3004 c-6 -14 -10 -32 -10 -40 0 -8 -4 -14 -10 -14 -5 0 -10 13
-10 29 0 54 -31 46 -45 -12 -9 -32 -16 -34 -33 -6 -11 16 -16 18 -27 9 -9 -7
-13 -21 -9 -35 4 -15 0 -24 -11 -29 -12 -4 -18 0 -22 14 -6 23 -14 25 -31 8
-21 -21 -14 -48 15 -59 22 -8 36 -6 69 10 23 12 57 21 76 21 19 0 39 5 46 12
9 9 12 7 12 -8 0 -11 11 -31 24 -43 24 -22 27 -23 76 -10 54 14 70 30 51 52
-7 10 -5 18 9 30 23 20 27 57 6 57 -8 0 -20 -15 -27 -34 -11 -30 -15 -33 -32
-24 -16 8 -23 6 -36 -10 -14 -18 -19 -19 -33 -8 -18 14 -24 36 -10 36 4 0 13
-5 18 -10 15 -15 31 6 39 53 6 29 4 37 -8 37 -8 0 -20 -7 -28 -16 -11 -14 -13
-14 -21 0 -13 23 -27 20 -38 -10z"/>
<path d="M475 2980 c-3 -5 -1 -10 4 -10 6 0 11 5 11 10 0 6 -2 10 -4 10 -3 0
-8 -4 -11 -10z"/>
<path d="M615 2970 c-3 -5 -1 -10 4 -10 6 0 11 5 11 10 0 6 -2 10 -4 10 -3 0
-8 -4 -11 -10z"/>
<path d="M1287 2952 c-22 -24 -21 -55 1 -75 24 -22 45 -21 65 1 23 25 22 69
-2 82 -28 15 -46 12 -64 -8z m46 -43 c-17 -17 -37 -1 -22 17 8 10 15 12 23 4
7 -7 7 -13 -1 -21z"/>
<path d="M4320 2941 c-14 -27 -13 -41 5 -41 17 0 39 36 30 50 -10 16 -23 12
-35 -9z"/>
<path d="M4360 2899 c-7 -11 -9 -24 -5 -27 9 -9 40 13 43 32 5 23 -25 20 -38
-5z"/>
<path d="M3825 2880 c-4 -11 -4 -38 0 -59 6 -36 4 -40 -23 -53 -26 -13 -30
-13 -39 0 -11 18 -33 8 -33 -14 0 -8 7 -17 16 -21 8 -3 20 -16 25 -29 16 -45
50 -22 91 61 20 40 11 128 -14 133 -10 2 -19 -5 -23 -18z"/>
<path d="M405 2869 c-4 -6 -5 -13 -2 -16 7 -7 27 6 27 18 0 12 -17 12 -25 -2z"/>
<path d="M3767 2864 c-13 -13 -7 -41 12 -65 27 -33 46 -15 34 32 -9 32 -31 48
-46 33z"/>
<path d="M312 2787 c-6 -6 -14 -26 -18 -42 -4 -17 -13 -43 -21 -59 -16 -31
-43 -128 -43 -153 0 -13 3 -13 15 -3 8 7 15 20 15 29 0 16 13 54 50 151 12 30
24 63 27 73 6 20 -10 23 -25 4z"/>
<path d="M1307 2772 c-46 -51 14 -113 67 -71 30 23 33 50 10 73 -21 21 -57 20
-77 -2z m53 -25 c0 -8 -3 -17 -7 -20 -9 -9 -34 13 -27 24 8 14 34 11 34 -4z"/>
<path d="M107 2523 c-4 -3 -7 -16 -7 -28 0 -12 -8 -30 -19 -39 -10 -9 -26 -42
-36 -73 -10 -31 -24 -68 -31 -82 -19 -35 -18 -62 1 -55 8 4 15 10 15 15 0 5 9
23 21 41 l20 33 -6 -50 c-4 -27 -13 -85 -22 -127 -16 -86 -15 -129 6 -136 10
-3 12 2 9 23 -3 15 -2 41 3 57 4 16 9 53 11 81 1 29 5 57 9 62 4 6 10 30 14
55 4 25 16 67 26 94 20 54 18 70 -7 40 -17 -21 -16 -16 9 39 17 36 16 57 -2
57 -4 0 -11 -3 -14 -7z"/>
<path d="M3667 2500 c3 -11 9 -20 14 -20 11 0 11 3 3 24 -9 23 -23 20 -17 -4z"/>
<path d="M187 2443 c-11 -20 -16 -63 -8 -63 7 0 31 51 31 66 0 7 -19 4 -23 -3z"/>
<path d="M3813 2283 c-20 -7 -15 -31 7 -43 23 -12 40 -6 40 15 0 17 -30 34
-47 28z"/>
<path d="M3783 2223 c-22 -8 -14 -31 13 -37 34 -9 52 7 34 29 -13 15 -25 17
-47 8z"/>
<path d="M3774 2139 c-3 -6 -1 -16 4 -21 13 -13 45 8 36 23 -7 12 -31 11 -40
-2z"/>
<path d="M3742 2099 c2 -6 8 -10 13 -10 5 0 11 4 13 10 2 6 -4 11 -13 11 -9 0
-15 -5 -13 -11z"/>
<path d="M3687 2044 c-14 -14 -7 -35 11 -32 9 2 17 10 17 17 0 16 -18 25 -28
15z"/>
<path d="M3637 1966 c-7 -19 18 -42 28 -26 8 13 -1 40 -14 40 -5 0 -11 -6 -14
-14z"/>
<path d="M3573 1914 c-8 -21 23 -52 38 -37 8 8 8 17 0 32 -14 25 -29 27 -38 5z"/>
<path d="M133 1895 c-3 -9 -11 -14 -19 -11 -22 8 -64 -18 -70 -44 -3 -14 -9
-33 -15 -42 -12 -24 -12 -28 6 -28 9 0 15 -9 15 -24 0 -30 26 -54 42 -38 6 6
16 8 23 6 7 -3 20 4 28 16 l15 22 7 -21 c9 -29 25 -26 25 3 0 13 6 26 13 29 8
3 6 10 -8 21 -19 15 -19 17 -2 27 23 14 21 25 -5 33 l-23 6 23 19 c24 21 22
25 -21 35 -20 5 -29 2 -34 -9z m7 -60 c0 -8 -4 -15 -9 -15 -13 0 -22 16 -14
24 11 11 23 6 23 -9z m10 -55 c0 -5 -4 -10 -10 -10 -5 0 -10 5 -10 10 0 6 5
10 10 10 6 0 10 -4 10 -10z"/>
<path d="M3514 1887 c-10 -28 0 -82 16 -82 21 0 26 68 6 84 -13 11 -17 11 -22
-2z"/>
<path d="M3322 1778 c-17 -17 -15 -28 6 -28 24 0 32 8 25 26 -6 17 -15 18 -31
2z"/>
<path d="M347 1714 c-4 -4 -7 -30 -7 -58 0 -38 7 -63 28 -97 37 -63 77 -109
96 -109 23 0 20 6 -23 58 -47 58 -53 72 -60 146 -6 55 -18 76 -34 60z"/>
<path d="M3276 1691 c-9 -15 23 -36 36 -23 5 5 7 15 4 21 -9 13 -33 14 -40 2z"/>
<path d="M3270 1640 c-11 -7 -12 -14 -4 -27 15 -24 33 -28 40 -8 9 23 -16 47
-36 35z"/>
<path d="M3243 1558 c7 -27 -10 -52 -41 -62 -25 -8 -29 -24 -7 -32 23 -9 18
-33 -10 -44 -28 -11 -34 -30 -9 -30 12 0 14 -8 9 -47 -4 -27 -9 -57 -12 -68
-4 -11 -7 -38 -7 -60 -1 -29 3 -40 14 -40 10 0 20 23 33 75 9 41 25 104 34
140 9 36 17 84 18 108 2 23 5 46 9 49 13 14 5 33 -15 33 -17 0 -20 -5 -16 -22z"/>
<path d="M305 1560 c-3 -5 -1 -10 4 -10 6 0 11 5 11 10 0 6 -2 10 -4 10 -3 0
-8 -4 -11 -10z"/>
<path d="M1173 1543 c-23 -15 -31 -43 -14 -43 5 0 19 9 32 19 31 25 14 46 -18
24z"/>
<path d="M315 1517 c-13 -11 -15 -16 -6 -22 8 -4 21 1 34 14 17 16 18 21 6 21
-8 0 -23 -6 -34 -13z"/>
<path d="M354 1486 c-10 -8 -15 -18 -11 -22 4 -4 15 0 24 9 22 21 12 31 -13
13z"/>
<path d="M3306 1492 c-3 -6 -1 -14 5 -17 15 -10 25 3 12 16 -7 7 -13 7 -17 1z"/>
<path d="M1197 1462 c-25 -26 -35 -52 -21 -52 14 0 74 54 74 66 0 23 -24 16
-53 -14z"/>
<path d="M385 1439 c-12 -19 5 -23 22 -6 16 16 16 17 1 17 -9 0 -20 -5 -23
-11z"/>
<path d="M3271 1436 c-14 -17 -4 -26 32 -26 33 0 33 19 0 31 -14 5 -25 3 -32
-5z"/>
<path d="M1216 1401 c-12 -13 -15 -27 -10 -45 7 -30 16 -33 34 -11 7 8 21 15
31 15 25 0 24 10 -5 38 -29 27 -29 27 -50 3z"/>
<path d="M450 1355 c-18 -34 -3 -45 20 -15 23 30 25 40 7 40 -8 0 -20 -11 -27
-25z"/>
<path d="M545 1371 c-3 -5 15 -26 40 -47 43 -35 45 -38 29 -55 -26 -29 -12
-43 19 -19 16 12 31 19 35 16 3 -4 -7 -18 -23 -31 -22 -17 -27 -27 -19 -35 8
-8 19 -4 42 15 25 21 35 24 50 16 30 -16 32 -35 6 -67 -13 -16 -23 -32 -24
-36 0 -15 24 -8 47 14 20 19 25 20 33 8 15 -23 12 -36 -15 -68 -29 -35 -21
-51 11 -21 12 12 27 19 32 15 5 -3 21 -39 36 -80 26 -71 51 -100 62 -72 6 15
-41 136 -85 224 -33 64 -63 95 -170 176 -74 55 -94 65 -106 47z"/>
<path d="M3260 1366 c0 -15 37 -29 52 -20 13 9 -12 34 -33 34 -11 0 -19 -6
-19 -14z"/>
<path d="M515 1319 c-10 -15 3 -25 16 -12 7 7 7 13 1 17 -6 3 -14 1 -17 -5z"/>
<path d="M1263 1309 c-33 -21 -43 -39 -22 -39 17 0 79 40 79 51 0 15 -23 10
-57 -12z"/>
<path d="M3247 1304 c-11 -12 3 -24 29 -24 27 0 32 15 8 24 -20 8 -29 8 -37 0z"/>
<path d="M1310 1263 c-23 -8 -70 -55 -70 -70 0 -17 17 -17 27 1 4 8 25 24 46
36 50 29 48 52 -3 33z"/>
<path d="M3247 1234 c-13 -13 -7 -24 14 -24 11 0 19 5 17 12 -5 14 -22 21 -31
12z"/>
<path d="M677 1192 c-30 -31 -33 -42 -14 -42 16 0 57 42 57 58 0 19 -14 14
-43 -16z"/>
<path d="M1309 1168 c-55 -39 -60 -46 -57 -83 4 -41 20 -35 36 12 9 29 23 46
52 62 40 22 52 41 27 41 -8 0 -34 -14 -58 -32z"/>
<path d="M788 998 c-26 -18 -38 -48 -20 -48 14 0 54 48 51 59 -2 5 -16 1 -31
-11z"/>
<path d="M4660 985 c-15 -18 -14 -18 74 -15 47 1 66 -1 62 -9 -4 -6 -33 -11
-65 -11 -66 0 -89 -13 -93 -55 -3 -25 -8 -30 -42 -37 -80 -17 -80 -47 0 -67
56 -14 53 -30 -9 -48 -25 -7 -49 -18 -53 -25 -10 -15 32 -48 62 -48 13 0 24
-4 24 -10 0 -5 -9 -10 -21 -10 -49 0 -88 -45 -69 -80 18 -33 42 -25 38 12 -3
27 1 33 24 39 17 4 30 3 36 -4 4 -7 8 -92 7 -189 0 -98 3 -178 7 -178 16 0 21
32 25 193 3 95 7 174 9 176 2 2 59 5 125 7 106 2 125 5 142 22 19 20 19 20 -4
33 -15 9 -70 16 -144 19 -75 3 -118 9 -115 15 3 6 21 9 40 7 19 -1 46 0 59 3
40 10 8 28 -48 28 -34 0 -51 4 -51 12 0 17 46 25 139 25 71 1 75 2 56 16 -15
12 -39 15 -100 12 -49 -2 -80 1 -80 7 0 6 20 10 45 10 63 0 62 18 -2 30 -43 8
-53 14 -53 30 0 17 9 21 67 26 88 7 116 29 82 63 -21 22 -156 23 -174 1z m-20
-159 c0 -11 -19 -15 -25 -6 -3 5 1 10 9 10 9 0 16 -2 16 -4z m-10 -116 c0 -5
-9 -10 -20 -10 -11 0 -20 5 -20 10 0 6 9 10 20 10 11 0 20 -4 20 -10z m264
-51 c-7 -12 -214 -12 -214 1 0 10 119 17 182 11 21 -1 35 -7 32 -12z"/>
<path d="M3884 927 c-27 -17 -49 -39 -50 -47 0 -8 -4 -22 -8 -30 -3 -9 3 -42
14 -74 11 -33 20 -67 20 -76 0 -10 7 -23 15 -30 27 -23 30 19 6 94 -31 95 -30
90 -17 106 12 17 69 50 84 50 10 0 11 -4 42 -115 10 -38 23 -84 29 -102 9 -31
8 -33 -35 -54 -35 -16 -48 -19 -59 -9 -16 13 -35 5 -35 -15 0 -50 118 -26 151
30 10 17 18 40 18 53 1 13 15 35 32 49 43 37 53 66 33 106 -41 86 -49 97 -63
97 -8 0 -26 -10 -39 -22 l-24 -23 -15 23 c-21 30 -42 28 -99 -11z"/>
<path d="M787 917 c-39 -33 -46 -47 -24 -47 17 0 81 66 70 73 -4 3 -25 -9 -46
-26z"/>
<path d="M781 829 c-34 -30 -39 -39 -24 -39 21 0 90 65 76 73 -4 3 -28 -13
-52 -34z"/>
<path d="M845 590 c-8 -13 3 -50 15 -50 5 0 14 8 19 18 15 27 -18 58 -34 32z"/>
<path d="M4721 584 c-26 -19 -27 -30 -2 -44 15 -7 23 -6 35 6 34 33 6 65 -33
38z"/>
<path d="M4430 280 c-8 -15 -9 -25 -2 -32 7 -7 14 -3 22 12 8 15 9 25 2 32 -7
7 -14 3 -22 -12z"/>
<path d="M4470 239 c-6 -11 -10 -30 -8 -42 3 -20 6 -19 25 12 21 33 22 51 3
51 -5 0 -14 -9 -20 -21z"/>
<path d="M4524 195 c-4 -14 -3 -29 1 -33 8 -8 35 26 35 45 0 24 -29 14 -36
-12z"/>
<path d="M4824 136 c-9 -23 0 -69 14 -74 8 -2 12 10 12 42 0 44 -15 62 -26 32z"/>
<path d="M4887 93 c-13 -12 -7 -33 8 -33 8 0 15 9 15 20 0 20 -11 26 -23 13z"/>
</g>
</svg>
