<?xml version="1.0" standalone="no"?>
<!DOCTYPE svg PUBLIC "-//W3C//DTD SVG 20010904//EN"
 "http://www.w3.org/TR/2001/REC-SVG-20010904/DTD/svg10.dtd">
<svg version="1.0" xmlns="http://www.w3.org/2000/svg"
 width="500.000000pt" height="878.000000pt" viewBox="0 0 500.000000 878.000000"
 preserveAspectRatio="xMidYMid meet">
<metadata>
Created by potrace 1.15, written by Peter Selinger 2001-2017
</metadata>
<g transform="translate(0.000000,878.000000) scale(0.100000,-0.100000)"
fill="#000000" stroke="none">
<path d="M2370 8661 c-74 -4 -212 -5 -307 -3 -131 4 -176 2 -188 -8 -22 -18
-1 -40 39 -40 28 0 40 -10 94 -76 34 -42 60 -80 57 -84 -2 -4 -32 -10 -66 -13
-71 -8 -79 -12 -79 -37 0 -24 23 -27 180 -18 69 3 223 6 342 7 130 1 219 5
223 11 10 16 -14 50 -36 50 -23 0 -26 6 -33 87 -7 77 8 98 64 90 42 -5 91 15
69 28 -18 12 -194 14 -359 6z m-135 -51 c6 -10 -55 -100 -71 -107 -13 -5 -124
84 -124 99 0 14 186 22 195 8z m152 -59 c1 -35 -3 -75 -8 -89 -9 -24 -12 -25
-80 -19 -39 3 -74 8 -77 11 -6 6 17 43 71 114 33 43 45 52 66 50 25 -3 26 -6
28 -67z m118 39 c28 -54 13 -140 -24 -140 -11 0 -22 4 -26 9 -5 8 -9 114 -6
149 2 24 40 12 56 -18z"/>
<path d="M2575 7065 c-22 -8 -44 -20 -50 -27 -6 -7 -19 -18 -30 -24 -11 -6
-25 -28 -31 -49 -12 -43 -27 -53 -49 -35 -35 29 -136 -83 -133 -147 3 -39 -32
-222 -43 -229 -14 -8 -11 -43 7 -81 12 -23 32 -42 65 -59 27 -13 49 -29 49
-34 0 -15 39 -31 88 -36 35 -3 53 -11 70 -30 28 -32 26 -36 -18 -66 -19 -13
-47 -44 -62 -68 -39 -63 -136 -346 -157 -460 -27 -139 -44 -177 -111 -245 -80
-82 -123 -158 -117 -204 11 -75 26 -140 36 -160 6 -11 11 -35 11 -53 0 -18 8
-46 18 -63 24 -38 131 -149 157 -162 27 -14 88 -25 155 -28 48 -3 62 1 110 31
31 19 60 34 66 34 6 0 16 -33 23 -72 7 -40 26 -116 41 -168 16 -52 38 -135 50
-185 12 -49 30 -102 41 -118 15 -20 18 -36 13 -62 -4 -25 0 -44 17 -74 22 -40
22 -42 6 -74 -10 -17 -28 -46 -40 -63 -22 -30 -45 -91 -112 -294 -16 -47 -42
-116 -58 -155 -30 -73 -91 -235 -110 -294 -9 -28 -8 -35 6 -46 10 -7 17 -26
17 -44 0 -45 16 -70 55 -87 48 -20 84 -100 80 -182 -1 -33 -5 -65 -9 -71 -18
-29 -30 -249 -24 -466 1 -27 -7 -91 -17 -142 l-18 -91 -31 1 c-17 0 -43 -3
-59 -7 l-28 -8 36 59 c60 102 79 166 79 274 1 83 -3 104 -29 165 -58 140 -124
216 -242 276 -52 28 -65 40 -83 80 -36 81 -106 122 -187 111 -36 -4 -40 -2
-77 46 -22 28 -52 55 -67 61 -48 20 -45 72 7 106 32 21 44 10 15 -13 -33 -27
-8 -56 50 -58 24 -1 59 -5 76 -9 63 -14 133 29 133 81 0 10 9 32 20 48 30 45
25 69 -23 117 -23 24 -49 53 -57 65 -21 33 -39 16 -28 -25 6 -22 20 -40 44
-54 33 -19 52 -56 40 -76 -3 -5 -24 -9 -47 -9 -30 0 -46 -6 -56 -19 -20 -27
-11 -39 30 -42 66 -6 42 -63 -27 -65 -39 -1 -66 17 -66 43 0 10 -12 28 -27 40
-21 16 -35 20 -61 15 -19 -3 -33 -3 -31 2 2 5 16 33 31 63 79 159 76 318 -7
482 -19 38 -35 70 -35 73 0 2 18 9 41 15 69 19 66 69 -10 123 -39 28 -50 43
-56 73 -3 21 -13 51 -21 67 -8 15 -12 37 -9 48 9 27 -15 60 -69 99 -42 30 -44
34 -48 91 -4 48 -10 65 -34 90 -42 45 -62 53 -126 51 -61 -2 -67 2 -43 34 8
10 15 32 15 47 0 42 16 65 51 72 44 10 55 -6 33 -44 -32 -54 -3 -74 86 -60 20
3 25 -1 30 -26 4 -21 11 -30 25 -30 26 0 39 59 18 80 -18 19 -57 29 -83 22
-17 -4 -19 -1 -14 19 4 15 0 34 -10 49 -9 13 -16 36 -16 49 0 37 -55 96 -91
96 -45 0 -79 -21 -100 -62 -11 -21 -24 -38 -29 -38 -6 0 -10 -6 -10 -14 0 -7
-7 -19 -15 -26 -32 -27 1 -101 39 -87 9 4 18 2 21 -3 6 -9 -26 -70 -37 -70 -4
0 -12 19 -19 43 -7 29 -26 57 -60 89 -28 28 -46 53 -43 61 3 8 28 29 55 47 59
38 67 52 48 87 -12 23 -10 31 19 86 18 34 32 75 32 91 0 58 -64 125 -104 110
-7 -3 -30 6 -51 20 -23 16 -52 26 -74 26 -79 1 -115 96 -85 223 24 99 15 165
-34 262 -22 44 -49 87 -59 95 -96 78 -136 92 -268 93 -46 0 -72 -6 -112 -26
-69 -36 -91 -67 -75 -111 15 -41 15 -53 0 -38 -17 17 -76 15 -131 -4 -58 -19
-117 -84 -117 -126 0 -57 -52 -44 -69 16 -6 23 -3 40 11 68 24 49 23 65 -8
105 -18 23 -33 33 -53 33 -15 0 -32 5 -38 11 -20 20 -72 13 -113 -16 -48 -34
-57 -45 -35 -45 10 0 30 11 47 25 26 22 68 34 68 20 0 -3 -10 -19 -22 -35 -18
-25 -20 -35 -12 -58 5 -15 18 -28 30 -30 24 -3 74 33 74 54 0 8 5 14 10 14 21
0 22 -33 2 -74 -18 -35 -20 -48 -12 -78 10 -35 45 -81 69 -89 7 -3 14 -16 15
-29 2 -14 6 -36 10 -50 6 -21 -3 -35 -61 -95 -42 -43 -79 -93 -96 -130 -16
-33 -32 -66 -36 -74 -4 -8 -27 -19 -52 -25 l-44 -11 -3 -55 c-1 -34 1 -50 6
-42 5 8 12 13 16 13 3 -1 5 1 4 3 -6 8 36 46 50 46 13 0 13 -2 -2 -13 -16 -12
-19 -35 -5 -47 3 -3 9 -18 13 -34 6 -24 5 -28 -10 -22 -16 6 -17 5 -2 -11 8
-10 18 -32 21 -49 5 -29 4 -31 -19 -26 -19 3 -23 1 -18 -12 3 -9 16 -16 28
-16 16 0 28 -13 48 -52 37 -75 114 -168 148 -180 28 -9 70 -58 50 -58 -5 0
-10 5 -10 10 0 6 -5 10 -11 10 -5 0 -8 -4 -4 -9 5 -8 -74 -21 -115 -19 -8 0
-23 -3 -32 -7 -15 -6 -18 -2 -18 19 0 33 -18 34 -26 1 -6 -25 -18 -32 -28 -16
-3 5 -15 7 -26 4 -17 -4 -19 -2 -13 13 4 10 20 30 35 44 l28 26 -23 22 c-17
16 -23 32 -22 55 3 42 -4 52 -20 30 -10 -14 -11 -21 -2 -32 10 -11 9 -13 -2
-10 -26 9 -38 39 -21 52 9 7 14 20 12 30 -5 23 10 22 28 -3 8 -12 30 -30 48
-40 61 -37 70 -21 18 30 -20 20 -32 40 -28 48 3 9 1 13 -5 9 -21 -13 -69 67
-64 106 1 9 -2 17 -8 17 -5 0 -11 10 -14 23 -2 12 -4 -52 -4 -143 -1 -112 3
-167 11 -172 8 -6 7 -11 -4 -17 -21 -14 -5 -24 19 -12 11 7 22 7 25 2 8 -12
-3 -41 -15 -41 -5 0 -9 -7 -9 -16 0 -8 -5 -12 -10 -9 -6 4 -8 15 -5 26 4 11 2
19 -4 19 -7 0 -11 -25 -11 -64 0 -62 1 -66 37 -95 21 -17 43 -31 50 -31 7 0
13 -4 13 -8 0 -5 -22 -8 -50 -7 l-50 1 0 -33 c0 -38 1 -38 40 -18 29 15 30 15
30 -6 0 -35 -32 -80 -52 -73 -38 12 -12 -47 56 -123 15 -17 22 -20 33 -12 11
10 10 17 -7 44 -25 41 -25 69 0 105 l21 29 41 -45 c44 -48 55 -53 65 -28 3 10
-7 29 -29 52 -41 43 -52 70 -38 87 6 8 6 22 -2 43 -16 42 -8 49 78 67 105 22
135 20 180 -16 82 -63 86 -101 20 -171 -41 -43 -44 -49 -39 -87 7 -48 -9 -72
-69 -102 -20 -10 -45 -30 -56 -44 -17 -21 -18 -31 -10 -67 5 -24 16 -53 24
-65 21 -32 17 -57 -12 -93 -25 -29 -26 -38 -13 -90 7 -26 -133 -26 -182 0 -22
11 -46 20 -53 20 -8 0 -17 6 -19 13 -3 6 -6 0 -6 -14 -1 -21 10 -33 54 -62 47
-31 61 -35 100 -31 25 2 45 2 45 -2 0 -3 -16 -33 -36 -66 -20 -35 -31 -64 -25
-67 5 -3 13 -19 16 -34 6 -23 4 -27 -13 -27 -12 0 -24 5 -27 10 -10 16 -21 12
-35 -15 -18 -33 -30 -22 -23 22 4 26 3 34 -5 29 -7 -4 -12 -15 -12 -24 -1 -10
-9 -3 -20 18 l-19 35 -1 -54 c0 -42 5 -61 24 -85 39 -53 55 -91 52 -130 -3
-31 1 -39 20 -48 13 -6 21 -15 18 -20 -6 -10 35 -47 52 -48 20 0 44 46 32 58
-7 7 -9 14 -5 18 10 11 29 -7 43 -43 16 -38 10 -61 -11 -43 -17 14 -32 -7 -16
-23 13 -13 15 -41 2 -32 -14 8 -18 -56 -6 -82 11 -26 25 -30 25 -9 0 14 61 59
69 50 10 -9 -25 -57 -52 -71 -26 -13 -28 -18 -23 -48 7 -34 7 -34 -27 -28 -19
3 -37 1 -41 -5 -4 -7 -16 -1 -31 14 -19 19 -25 36 -27 79 -2 47 -4 52 -19 44
-25 -13 -28 -12 -39 17 -7 19 -7 31 1 40 15 18 5 29 -16 20 -11 -4 -14 -12
-10 -27 5 -15 4 -19 -4 -15 -19 12 -13 -77 9 -122 11 -22 20 -47 20 -55 0 -7
7 -34 16 -60 16 -48 55 -83 81 -73 11 5 13 2 9 -10 -4 -9 -13 -48 -22 -86 -17
-75 -19 -76 -86 -42 -38 19 -38 19 -38 -31 0 -42 1 -45 23 -40 15 4 28 1 37
-10 17 -20 7 -29 -18 -16 -32 17 -42 13 -42 -14 0 -14 5 -25 11 -25 5 0 15
-13 20 -30 12 -33 24 -38 33 -15 9 24 46 -4 46 -34 0 -14 12 -38 28 -54 18
-20 23 -31 15 -34 -16 -6 -17 -24 -2 -20 23 4 19 -21 -6 -48 -14 -16 -25 -34
-25 -41 0 -22 -51 -54 -86 -54 -31 0 -34 -3 -34 -29 0 -16 7 -34 15 -41 10 -9
15 -9 15 -1 0 6 9 11 20 11 24 0 26 -13 4 -31 -28 -23 -54 -87 -54 -133 0 -52
20 -55 40 -5 21 49 32 46 29 -7 -4 -44 -2 -49 18 -52 18 -3 22 3 28 37 4 23
11 43 16 47 5 3 9 16 9 30 0 14 6 24 14 24 11 0 14 10 11 40 -3 32 0 40 16 45
11 4 27 17 35 31 24 35 58 31 107 -15 l42 -40 -1 -102 c0 -76 -4 -104 -15
-113 -8 -6 -15 -24 -16 -40 -4 -49 -11 -60 -28 -46 -12 10 -15 10 -15 0 0 -20
-32 -39 -65 -39 -46 0 -75 30 -75 78 0 23 -5 41 -11 41 -6 0 -9 -15 -7 -37 3
-37 3 -37 -47 -49 -79 -19 -85 -23 -85 -60 0 -37 8 -41 43 -22 49 25 58 28 82
28 17 0 28 -7 34 -22 11 -29 50 -65 76 -70 16 -3 19 -10 17 -34 -2 -21 4 -36
22 -53 l24 -22 50 26 c57 30 67 48 58 110 -6 38 -5 43 16 49 16 4 26 1 33 -11
6 -10 22 -29 36 -43 14 -14 33 -40 43 -57 17 -35 43 -53 74 -53 19 0 52 -30
70 -66 18 -35 -12 -100 -50 -108 -20 -4 -33 -15 -43 -38 -30 -68 -54 -85 -130
-92 -77 -8 -175 -43 -241 -88 -165 -111 -243 -372 -169 -568 9 -25 19 -54 22
-65 3 -11 14 -29 25 -41 18 -21 18 -21 -21 -47 -23 -15 -47 -27 -56 -27 -10 0
-15 -10 -15 -29 l0 -30 55 25 c70 31 100 30 142 -2 26 -20 33 -32 33 -59 0
-19 -5 -37 -10 -40 -16 -10 -12 -51 8 -67 39 -34 84 -50 109 -39 17 8 37 8 71
0 42 -9 49 -8 63 10 9 10 35 25 58 32 36 11 44 10 58 -4 15 -15 15 -16 -5 -10
-13 3 -22 1 -22 -6 0 -8 19 -10 65 -5 l65 7 0 -44 c0 -24 -4 -50 -9 -57 -5 -8
-46 -16 -113 -21 -119 -10 -153 -24 -199 -81 -35 -43 -48 -48 -168 -55 -140
-8 -123 -25 24 -25 l130 1 40 50 c22 27 49 52 60 54 11 3 73 6 137 8 83 1 119
6 123 15 6 15 30 15 55 -1 18 -10 28 -8 71 15 49 26 52 26 97 12 26 -7 62 -14
80 -14 21 0 32 -5 32 -14 0 -8 8 -14 18 -13 9 0 47 -13 83 -31 57 -28 76 -32
156 -34 79 -1 92 -4 96 -20 4 -14 -1 -18 -20 -18 -13 0 -21 4 -18 10 3 6 -1
10 -10 10 -9 0 -14 -4 -10 -9 3 -5 -3 -12 -12 -14 -10 -3 20 -4 67 -4 47 0 70
2 52 4 -18 2 -30 9 -27 14 4 5 1 9 -4 9 -6 0 -11 6 -11 14 0 7 29 27 65 45 36
17 65 36 65 42 0 17 -87 3 -106 -16 -9 -8 -30 -15 -47 -15 -31 0 -32 2 -31 38
l2 39 -44 2 c-41 1 -46 -2 -65 -34 -30 -51 -63 -44 -43 10 6 16 64 45 91 45 7
0 23 9 34 19 12 11 33 22 47 26 15 3 46 15 70 27 24 11 46 18 49 15 3 -3 -7
-21 -21 -40 -14 -19 -26 -38 -26 -44 0 -19 41 -53 65 -53 22 0 27 8 42 60 19
63 29 70 67 44 18 -11 24 -24 24 -52 0 -64 1 -69 24 -79 16 -7 37 -6 71 3 40
10 49 10 53 -1 3 -7 19 -15 35 -19 25 -5 35 -1 54 22 14 15 25 35 25 44 0 24
30 11 30 -13 0 -43 97 -53 115 -11 11 25 25 29 25 7 0 -8 9 -19 19 -25 31 -16
128 -12 164 7 18 10 54 24 81 33 72 22 89 51 91 150 1 44 4 83 7 86 3 2 28 0
56 -6 39 -9 56 -8 74 1 22 12 22 13 3 16 -11 2 -43 8 -71 14 -38 9 -56 8 -72
0 -22 -12 -59 -70 -45 -72 5 0 -2 -4 -14 -9 -28 -12 -55 -53 -47 -73 3 -9 18
-17 32 -19 37 -4 38 -30 3 -51 -41 -24 -48 -22 -55 17 -4 22 -13 36 -27 39
-46 12 -83 -74 -38 -88 16 -5 18 -10 8 -21 -23 -28 -116 -12 -129 22 -14 36
-46 49 -76 29 -13 -8 -24 -24 -24 -35 0 -11 -7 -20 -15 -20 -19 0 -38 46 -30
71 14 44 -87 36 -122 -10 -11 -14 -12 -13 -13 12 0 15 -7 30 -15 33 -24 9 -71
-15 -83 -42 -17 -35 -39 -30 -46 10 -9 47 -56 86 -104 86 -60 0 -69 12 -43 54
26 42 43 45 65 12 14 -22 22 -24 103 -26 48 -1 106 -1 128 0 22 1 54 3 70 3
17 1 32 5 35 8 3 3 40 14 83 23 45 10 87 26 98 37 22 22 85 26 92 7 3 -9 26
-2 78 24 41 20 100 42 131 48 32 6 78 22 103 36 56 29 55 29 55 3 0 -31 22
-18 35 22 14 39 36 47 70 25 37 -24 53 -20 109 32 73 66 118 89 148 75 23 -12
23 -12 -5 -12 -16 -1 -25 -5 -22 -11 11 -18 98 -8 123 14 17 15 25 17 34 8 15
-15 38 -88 38 -120 0 -21 -5 -18 -52 27 -43 42 -58 51 -87 51 -50 0 -108 -22
-138 -52 -30 -30 -55 -115 -42 -140 14 -27 -7 -66 -43 -81 -18 -8 -39 -21 -46
-29 -7 -9 -21 -14 -32 -11 -22 6 -26 -7 -9 -24 7 -7 4 -22 -11 -52 -29 -55
-66 -83 -105 -79 -43 3 -94 -11 -104 -30 -4 -9 -11 -31 -14 -49 -6 -31 -6 -32
28 -26 25 4 46 -1 79 -20 44 -24 45 -25 51 -6 4 11 1 26 -5 34 -10 12 -9 15 4
15 13 0 16 5 11 20 -4 13 -2 20 7 20 20 0 70 57 107 122 29 52 35 57 59 52 24
-5 30 0 55 46 26 46 28 57 22 108 -6 52 -4 59 17 79 13 12 43 29 67 38 43 15
44 15 81 -15 40 -32 50 -59 50 -140 0 -30 -5 -50 -12 -53 -7 -3 -42 -2 -77 1
-58 5 -63 4 -59 -14 3 -13 11 -18 26 -17 12 2 22 0 22 -2 0 -13 -33 -55 -43
-55 -5 0 -28 -8 -51 -19 -23 -10 -54 -23 -71 -28 -43 -12 -39 -37 6 -41 24 -2
49 4 70 17 19 12 50 21 69 21 20 0 41 5 48 12 9 9 12 8 12 -4 0 -23 16 -31 38
-19 11 6 33 6 54 2 20 -5 41 -6 46 -2 15 9 25 56 17 81 -6 18 -12 20 -33 15
-18 -4 -24 -3 -17 4 6 5 36 17 68 25 l58 15 49 -35 c53 -38 69 -66 49 -90 -10
-13 -10 -17 1 -24 11 -7 11 -14 0 -42 -22 -55 -47 -76 -101 -83 -33 -5 -54 -3
-64 5 -8 6 -19 9 -26 5 -6 -4 -24 2 -39 13 -25 19 -30 19 -41 6 -10 -13 -14
-12 -30 2 -11 10 -22 14 -26 11 -4 -4 2 -13 12 -21 12 -9 15 -15 7 -20 -7 -4
-16 -4 -22 -1 -5 3 -16 3 -22 -2 -36 -22 -268 -9 -321 19 -21 10 -47 -5 -47
-28 0 -16 70 -54 100 -54 12 0 18 -4 15 -10 -3 -5 -2 -10 3 -10 6 0 12 7 16
15 6 18 43 19 83 4 17 -6 29 -7 31 -1 1 5 30 7 65 5 41 -4 78 0 107 9 32 11
71 14 136 10 107 -5 138 7 184 70 23 32 30 36 30 21 0 -11 6 -25 13 -31 22
-18 122 -69 151 -76 43 -11 113 4 154 32 20 14 52 28 71 31 45 8 50 26 10 37
-24 7 -9 9 67 10 55 1 126 6 158 13 61 11 86 4 86 -24 0 -23 -32 -27 -47 -5
-18 25 -35 25 -57 1 -9 -10 -34 -21 -55 -25 -47 -7 -65 -27 -55 -58 9 -29 33
-47 61 -48 22 0 22 0 -3 25 -30 30 -23 53 9 30 27 -19 53 -19 61 0 4 10 20 15
50 15 35 0 53 6 78 28 41 35 99 75 101 71 19 -36 32 -48 78 -71 30 -15 70 -28
90 -28 21 0 45 -8 59 -20 28 -24 39 -25 47 -4 5 14 16 15 70 10 41 -4 63 -3
63 4 0 5 -6 10 -12 10 -10 0 -9 3 1 9 7 5 31 4 55 -1 41 -10 242 -4 284 8 13
4 22 14 22 25 0 22 -16 24 -57 8 -33 -13 -196 -14 -219 -1 -12 7 -6 11 27 16
51 7 109 35 109 52 0 7 -24 26 -54 42 -29 17 -56 38 -59 46 -4 9 -19 16 -34
17 -59 1 -65 13 -17 33 l45 18 25 -23 c38 -36 118 -34 162 3 18 15 41 29 52
33 20 6 20 15 20 535 0 297 -4 539 -9 553 -13 32 -74 67 -131 74 -58 7 -117
-18 -178 -76 -35 -32 -43 -46 -40 -68 3 -27 1 -28 -48 -33 -27 -3 -63 -13 -78
-24 -25 -16 -28 -23 -23 -55 3 -20 8 -44 12 -54 5 -13 2 -17 -13 -17 -23 0
-34 29 -20 54 6 11 4 21 -6 32 -18 17 -22 64 -6 64 6 0 10 15 10 33 0 18 4 37
10 43 16 16 1 52 -21 47 -22 -6 -23 -3 -7 28 7 13 20 24 28 24 8 0 16 9 18 20
2 11 7 29 12 40 5 11 9 29 7 40 -2 16 4 20 28 21 33 1 69 10 101 25 14 7 38 7
75 -1 55 -11 79 -13 207 -11 70 1 72 2 72 26 l0 25 -114 0 c-108 0 -182 13
-171 30 9 14 -79 -2 -110 -20 -16 -10 -47 -21 -67 -24 -33 -6 -38 -4 -54 24
-10 16 -23 30 -30 30 -6 0 -16 10 -21 23 -11 23 -10 24 78 36 72 10 93 10 105
0 14 -11 106 -32 129 -29 6 1 65 4 133 7 109 4 122 7 122 23 0 15 -13 19 -92
25 -104 8 -120 17 -106 57 6 16 14 28 18 28 5 0 15 6 22 13 41 38 44 39 103
18 51 -18 56 -18 53 -3 -3 17 -81 62 -108 62 -8 -1 -37 -12 -65 -26 -45 -22
-144 -40 -265 -46 -60 -4 -166 3 -178 11 -8 4 -20 46 -27 92 -15 98 -55 240
-71 254 -7 6 -15 35 -18 65 -28 256 -35 360 -38 513 -2 168 -1 177 19 199 12
13 28 39 36 58 8 19 32 51 53 69 63 56 69 67 54 112 -11 33 -11 41 2 56 18 20
38 85 38 123 0 14 -14 39 -36 61 -55 56 -130 235 -154 367 -6 34 -17 74 -25
89 -8 15 -15 36 -15 45 0 89 -102 288 -197 386 -7 7 -13 17 -13 22 0 5 -9 10
-20 12 -19 3 -21 12 -25 143 -5 149 13 316 40 382 15 36 15 36 66 29 45 -6 55
-4 107 28 31 19 77 39 102 46 48 13 90 44 90 68 0 8 9 30 21 49 39 63 63 193
38 209 -7 4 -9 21 -6 40 8 45 -51 211 -125 358 -35 69 -42 102 -38 169 2 29
-20 90 -39 108 -11 11 -27 40 -35 67 -8 26 -28 81 -46 122 -17 41 -40 100 -51
130 -37 99 -64 113 -269 140 -47 6 -127 20 -179 30 -76 16 -108 18 -160 10
-36 -5 -88 -6 -116 -2 -49 7 -50 8 -47 40 2 23 -2 34 -13 38 -14 6 -9 14 25
49 23 24 40 49 38 56 -2 7 -27 13 -61 15 -69 4 -77 8 -77 38 0 29 -12 39 -70
62 -53 20 -67 35 -81 86 -7 29 -20 43 -52 62 -52 30 -77 34 -252 40 -106 4
-150 2 -180 -9z m115 -275 c29 -29 14 -47 -16 -19 -13 12 -24 26 -24 31 0 14
19 9 40 -12z m285 -21 c9 -17 14 -40 12 -52 -3 -21 -4 -21 -15 5 -6 15 -20 32
-32 38 -26 14 -26 40 0 40 12 0 26 -12 35 -31z m5 -113 c0 -3 -4 -8 -10 -11
-5 -3 -10 -1 -10 4 0 6 5 11 10 11 6 0 10 -2 10 -4z m-437 -17 c12 -7 25 -17
29 -22 4 -7 12 -6 22 2 17 14 22 2 7 -14 -19 -21 -34 -86 -22 -98 8 -8 11 -5
11 11 0 13 6 22 15 22 8 0 26 12 40 27 19 21 25 24 25 11 0 -9 -7 -18 -15 -22
-21 -8 -20 -66 1 -66 8 0 12 -4 9 -10 -4 -6 6 -10 24 -10 22 0 29 4 25 14 -3
8 0 17 5 21 6 3 9 10 7 14 -3 4 6 14 19 21 32 17 32 30 1 30 -36 0 -37 12 -5
38 l29 24 -2 -24 c-2 -17 2 -23 16 -23 27 0 31 -21 6 -38 -20 -14 -20 -15 -3
-46 10 -17 21 -31 26 -31 10 0 9 14 -2 26 -12 12 6 34 44 55 30 15 31 15 56
-21 26 -36 26 -37 8 -59 -18 -22 -46 -21 -33 1 4 6 1 9 -7 6 -23 -7 -58 -66
-52 -88 7 -25 -15 -53 -34 -45 -8 3 -26 -4 -40 -15 -32 -25 -47 -26 -34 -2 6
12 5 23 -4 35 -17 23 -41 22 -48 -3 -3 -11 -10 -20 -16 -20 -15 0 -14 43 1 58
10 10 10 15 -2 22 -12 7 -16 4 -18 -15 -3 -23 -4 -24 -27 -9 -13 8 -26 27 -30
41 -3 15 -15 38 -24 52 -10 14 -21 35 -24 46 -5 19 -5 19 -12 -3 -4 -13 -15
-22 -24 -21 -9 1 -27 -3 -41 -8 -31 -13 -51 1 -29 19 24 20 59 74 59 92 0 10
-6 14 -17 11 -10 -3 -4 1 12 9 37 19 41 19 68 5z m127 7 c0 -2 -7 -7 -16 -10
-8 -3 -12 -2 -9 4 6 10 25 14 25 6z m360 -67 c0 -18 -2 -19 -15 -9 -15 12 -12
30 6 30 5 0 9 -10 9 -21z m140 -29 c15 -11 40 -24 55 -30 31 -12 34 -5 -38
-87 -20 -24 -34 -49 -31 -57 3 -8 1 -17 -5 -21 -23 -13 -9 -25 29 -25 29 0 43
5 47 17 4 9 2 18 -4 20 -12 4 -4 48 14 78 9 15 14 17 25 7 8 -6 18 -9 21 -5 7
6 12 -5 21 -49 5 -21 -1 -35 -25 -63 -17 -19 -35 -35 -41 -35 -5 0 -24 -11
-42 -25 -18 -14 -37 -25 -42 -25 -5 -1 -27 -9 -49 -20 -50 -24 -71 -25 -83 -3
-10 17 3 61 23 75 5 4 6 10 1 15 -4 4 -12 0 -18 -10 -8 -14 -13 -16 -24 -6
-16 13 -19 39 -4 39 16 0 12 70 -5 76 -16 7 -21 34 -6 34 5 0 13 10 17 22 6
19 7 20 16 4 9 -16 12 -16 34 5 13 12 24 28 24 36 0 18 -10 16 -26 -4 -7 -10
-16 -14 -20 -10 -15 15 12 41 57 53 24 6 46 12 47 13 2 0 16 -8 32 -19z m312
-41 c22 -58 -21 -185 -85 -250 -33 -34 -96 -64 -160 -76 -15 -3 -32 -13 -37
-23 -7 -13 -30 -18 -117 -25 -59 -4 -124 -7 -143 -7 -19 1 -54 2 -78 2 -28 0
-41 3 -37 10 15 24 65 33 175 34 129 1 145 6 244 81 102 76 140 156 116 244
-6 23 -9 45 -6 50 3 4 31 2 62 -4 46 -9 59 -16 66 -36z m163 32 c33 -7 68 -17
78 -22 10 -5 66 -16 124 -24 126 -16 181 -46 196 -105 5 -19 17 -55 27 -80 34
-87 62 -189 62 -234 1 -25 5 -46 10 -46 4 0 8 -7 8 -15 0 -12 -10 -15 -45 -14
-29 2 -45 7 -45 16 0 7 5 13 11 13 5 0 7 5 4 10 -3 6 -19 10 -36 10 -16 0 -29
-4 -29 -10 0 -5 -8 -10 -18 -10 -32 0 -55 -34 -47 -69 6 -30 5 -31 -69 -67
-42 -19 -76 -40 -76 -45 0 -5 -5 -9 -11 -9 -6 0 -8 9 -4 20 7 22 5 23 -19 14
-8 -3 -12 -12 -9 -20 7 -19 -11 -18 -27 1 -7 8 -21 15 -31 15 -12 0 -23 11
-29 28 -17 46 -26 57 -52 58 -15 0 -42 17 -70 45 -98 95 -125 112 -164 106
-20 -4 -45 -14 -55 -23 -18 -16 -20 -15 -38 7 -11 13 -20 27 -21 30 0 7 108
60 130 63 14 3 30 18 25 26 -3 5 0 12 6 15 6 4 19 27 30 52 10 24 23 42 28 39
17 -11 37 183 22 211 -20 38 3 40 134 14z m-654 -34 l-21 -21 0 21 c0 12 8 26
18 32 26 15 28 -7 3 -32z m-52 -165 c-27 -55 -46 -73 -74 -66 -13 3 -26 -5
-39 -22 -18 -26 -18 -26 3 -19 17 5 21 2 21 -14 0 -39 -76 -67 -88 -32 -3 9 2
11 19 7 13 -3 19 -3 12 0 -7 3 -9 14 -3 34 9 32 5 41 -16 33 -8 -3 -14 -1 -14
4 0 12 44 33 68 33 13 0 17 8 17 32 0 24 6 35 25 45 16 8 28 9 34 3 15 -15 36
-12 36 5 0 8 -5 15 -11 15 -5 0 -7 5 -4 10 4 6 12 4 21 -5 14 -14 13 -20 -7
-63z m-282 -58 c-3 -3 -12 -4 -19 -1 -8 3 -5 6 6 6 11 1 17 -2 13 -5z m-38
-131 c23 -29 41 -56 41 -61 0 -4 -14 -21 -31 -38 -46 -43 -68 -96 -64 -152 2
-33 -2 -53 -13 -66 -13 -14 -14 -20 -4 -23 6 -3 12 -11 12 -18 0 -15 22 -25
53 -25 16 0 18 -3 9 -12 -7 -7 -12 -22 -12 -35 0 -26 -19 -29 -68 -12 -32 11
-47 33 -35 51 3 6 1 8 -5 4 -6 -3 -13 -2 -17 4 -11 18 -45 11 -45 -8 0 -13
-13 -23 -40 -32 -54 -18 -66 -5 -40 45 11 22 20 57 20 79 0 41 41 168 87 269
27 58 76 102 99 89 6 -4 30 -30 53 -59z m61 20 c0 -7 9 -13 19 -13 11 0 23 -5
27 -11 4 -8 -1 -9 -17 -4 -30 9 -47 23 -60 47 -9 17 -8 18 10 6 12 -7 21 -18
21 -25z m553 -90 c31 -15 57 -30 57 -35 0 -4 7 -8 15 -8 22 0 18 -11 -15 -47
-42 -47 -98 -42 -68 6 9 15 9 23 -1 35 -11 13 -16 13 -46 -2 -20 -10 -35 -25
-35 -35 0 -22 -40 -39 -57 -25 -9 7 -20 6 -36 -5 -32 -21 -97 -33 -97 -18 0 8
-7 7 -22 -3 -13 -7 -39 -16 -58 -20 -38 -6 -39 -8 27 42 17 12 20 21 13 32 -8
13 -13 12 -42 -5 l-33 -19 18 28 c14 20 16 31 8 39 -16 16 6 37 41 37 22 0 29
-4 25 -14 -4 -9 0 -12 13 -9 12 3 22 -3 29 -16 14 -24 28 -26 55 -6 12 9 16
20 12 31 -5 13 -9 15 -18 6 -16 -16 -61 -16 -55 1 2 6 10 12 18 13 8 0 21 4
29 7 14 6 56 10 135 14 17 1 56 -10 88 -24z m-400 -19 c9 -9 -4 -34 -18 -34
-14 0 -27 25 -18 34 4 3 12 6 18 6 6 0 14 -3 18 -6z m-99 -29 c-22 -17 -34
-19 -34 -6 0 5 8 12 18 14 32 9 36 7 16 -8z m-67 -33 c-20 -21 -30 -46 -38
-93 -15 -87 -31 -100 -23 -19 8 81 36 140 66 140 21 0 21 -1 -5 -28z m547 13
c-7 -16 -24 -21 -24 -6 0 8 7 13 27 20 1 1 0 -6 -3 -14z m-493 -50 c-18 -20
-31 -47 -31 -62 0 -21 -2 -24 -15 -13 -23 19 -19 30 27 72 52 48 60 49 19 3z
m787 10 c16 -13 32 -37 35 -53 3 -15 18 -40 32 -54 24 -24 26 -32 20 -72 -7
-42 -6 -46 14 -46 16 0 21 -6 21 -25 0 -31 23 -33 44 -3 l16 22 0 -21 c0 -33
21 -39 42 -14 26 33 61 21 114 -37 l43 -46 25 23 c37 35 69 17 137 -80 17 -25
39 -19 39 10 0 28 -54 95 -97 122 -34 22 -36 24 -15 27 12 2 38 -6 57 -18 35
-22 55 -20 55 5 0 19 -45 52 -83 61 l-31 7 34 11 c45 14 46 40 3 44 -37 4 -43
17 -12 25 15 4 20 11 15 23 -3 9 -1 23 5 31 10 12 17 9 41 -13 15 -15 28 -33
28 -40 0 -7 12 -21 27 -32 27 -20 27 -21 9 -41 -25 -28 -14 -53 19 -45 27 7
36 -12 11 -22 -27 -10 -27 -34 0 -44 23 -9 24 -11 9 -26 -15 -15 -15 -18 1
-35 28 -31 71 -16 44 16 -8 10 -8 19 -1 34 6 11 8 26 5 34 -10 26 14 29 46 6
32 -24 40 -49 15 -49 -28 0 -16 -38 20 -59 39 -23 45 -46 15 -54 -29 -7 -25
-24 10 -42 18 -9 30 -23 30 -35 0 -24 -8 -25 -34 -5 -11 8 -26 15 -33 15 -24
0 -13 -25 24 -56 25 -21 34 -36 30 -47 -5 -14 -10 -15 -32 -5 -20 9 -28 9 -38
-1 -13 -14 -6 -21 54 -54 17 -10 29 -20 26 -23 -3 -4 -21 3 -39 14 -18 11 -39
17 -45 15 -16 -6 -17 -33 -1 -33 6 0 4 -8 -6 -19 -15 -17 -15 -19 -1 -31 10
-8 14 -22 11 -34 -3 -11 0 -26 6 -33 9 -11 7 -18 -6 -31 -16 -16 -18 -16 -34
6 -14 18 -20 20 -30 10 -19 -19 -25 -2 -8 24 26 41 45 161 37 241 -1 4 -8 7
-16 7 -11 0 -15 -11 -15 -40 0 -22 -3 -40 -8 -40 -12 0 -37 43 -37 65 0 17 -6
20 -34 17 -65 -5 -66 -19 -4 -78 31 -29 63 -56 70 -58 7 -3 13 -12 13 -20 0
-24 -31 -96 -41 -96 -5 0 -3 11 3 25 16 36 -9 86 -64 125 -37 27 -43 29 -57
16 -11 -12 -12 -18 -2 -30 7 -8 10 -24 6 -35 -3 -12 1 -30 10 -44 15 -24 15
-24 -10 -20 -33 7 -33 -19 0 -63 14 -18 25 -35 25 -37 0 -3 -16 -14 -35 -26
-33 -19 -35 -19 -25 -2 12 23 -9 45 -34 35 -12 -5 -15 -2 -10 10 10 26 -24 31
-55 9 -25 -19 -29 -19 -56 -6 -27 15 -28 16 -10 29 17 13 17 14 0 40 -17 26
-19 27 -86 12 -10 -2 -13 5 -11 25 4 33 -13 35 -45 5 -32 -30 -41 -14 -14 23
l23 30 -21 6 c-15 4 -20 11 -16 23 9 28 -11 33 -33 9 -28 -29 -36 -9 -16 40
15 37 15 43 0 73 -15 30 -15 36 1 80 13 37 15 57 7 95 -14 76 -52 63 -66 -22
-2 -11 -12 -21 -23 -23 -11 -2 -27 -13 -36 -24 -9 -12 -21 -18 -28 -14 -9 6
-9 11 0 23 7 8 14 24 15 36 1 12 7 42 14 67 12 48 7 139 -11 172 -6 11 -23 24
-37 29 -37 13 -56 44 -42 69 5 10 10 28 10 39 0 30 41 27 78 -4z m-200 -5 c-7
-10 -14 -18 -15 -16 -6 6 9 36 18 36 5 0 4 -9 -3 -20z m-2505 -4 c12 -7 39
-14 59 -14 75 -2 156 -69 203 -168 35 -74 42 -144 21 -207 -9 -27 -16 -80 -16
-122 0 -41 -3 -75 -7 -75 -5 0 -29 24 -55 54 -62 70 -122 109 -221 143 -114
38 -249 39 -354 1 -51 -18 -75 -22 -82 -15 -18 18 -13 56 9 75 17 14 19 24 14
57 -5 34 -2 44 19 63 29 28 98 46 139 37 17 -4 35 -2 44 6 19 15 31 4 15 -15
-18 -21 45 -79 77 -71 18 4 25 1 29 -15 6 -23 38 -27 47 -5 3 8 2 23 -1 33 -7
16 -5 16 17 1 14 -9 30 -26 36 -38 18 -35 24 -37 44 -11 17 23 20 23 46 10 15
-8 36 -30 47 -48 22 -37 52 -58 62 -42 9 15 -46 91 -85 118 -19 13 -46 22 -60
20 -14 -1 -40 8 -57 20 -42 30 -102 54 -118 48 -15 -5 -36 16 -59 61 -14 29
-14 33 2 52 9 12 44 30 77 40 75 24 81 24 108 7z m1955 -85 c-13 -46 -50 -133
-55 -128 -4 5 23 126 38 164 15 40 29 10 17 -36z m426 27 c-6 -22 -6 -22 13
-5 21 18 53 14 53 -7 -1 -18 -35 -54 -51 -54 -34 2 -47 -3 -45 -19 1 -16 -8
-18 -74 -17 -41 1 -89 5 -107 9 l-32 7 2 -43 c2 -37 -2 -45 -21 -54 -17 -7
-21 -16 -17 -32 6 -24 -13 -63 -30 -63 -16 0 -34 -36 -29 -57 4 -13 0 -23 -11
-27 -13 -4 -15 -13 -10 -36 8 -35 -2 -38 -46 -11 -37 23 -79 82 -79 112 0 11
11 35 25 51 14 16 23 34 20 39 -3 5 12 12 35 15 40 7 40 7 38 48 -2 30 1 41
12 41 11 0 14 10 13 31 -2 25 3 33 23 42 34 16 67 16 58 0 -4 -7 2 -5 13 5 26
23 49 22 56 -3 7 -26 24 -26 32 1 8 23 49 42 75 34 10 -3 21 -1 25 5 3 5 20
10 36 10 27 0 30 -3 23 -22z m-374 -36 c-11 -23 -22 -42 -25 -42 -6 0 16 63
28 78 19 24 17 6 -3 -36z m1379 32 c9 -3 12 -14 7 -35 -4 -21 -1 -31 9 -36 23
-8 39 -43 26 -56 -15 -15 -41 10 -41 39 0 15 -13 33 -35 50 -43 33 -47 57 -7
48 15 -3 33 -8 41 -10z m-4029 -48 c0 -8 -4 -17 -9 -21 -12 -7 -24 12 -16 25
9 15 25 12 25 -4z m3095 -26 c3 -6 -1 -7 -9 -4 -18 7 -21 14 -7 14 6 0 13 -4
16 -10z m166 -28 c28 -25 30 -31 19 -51 -9 -18 -9 -25 0 -31 13 -8 6 -75 -11
-100 -7 -11 -9 1 -8 40 1 86 1 88 -31 118 -55 53 -26 75 31 24z m-181 -19 c13
-13 12 -14 -10 -8 -14 4 -32 14 -40 22 -13 13 -12 14 10 8 14 -4 32 -14 40
-22z m109 -17 c7 -8 8 -17 3 -20 -6 -3 -12 3 -15 14 -6 24 -4 25 12 6z m-864
-46 c3 -5 -1 -10 -9 -10 -9 0 -16 5 -16 10 0 6 4 10 9 10 6 0 13 -4 16 -10z
m520 -57 c-10 -20 -13 -38 -8 -42 19 -12 22 -39 6 -46 -12 -4 -13 -9 -5 -17 8
-8 8 -17 1 -30 -5 -10 -7 -24 -3 -30 10 -15 14 -192 18 -653 5 -558 5 -871 0
-960 -3 -44 -6 -225 -9 -401 -2 -177 -9 -333 -14 -348 -7 -16 -7 -43 -1 -73 5
-27 6 -76 3 -111 -5 -53 -9 -62 -22 -56 -9 4 -31 12 -50 19 -55 20 -58 35 -49
230 1 11 -5 61 -12 110 -8 61 -11 133 -6 223 6 118 5 133 -10 139 -24 9 -44
-23 -44 -70 0 -34 -2 -38 -15 -27 -19 16 -35 3 -70 -55 -29 -50 -31 -72 -10
-101 21 -31 45 -104 45 -139 0 -16 -9 -49 -19 -71 -10 -23 -22 -55 -26 -73 -8
-37 -19 -39 -39 -8 -20 30 -10 104 15 118 10 5 23 28 29 51 11 38 10 43 -14
65 -22 20 -26 32 -26 83 0 32 7 85 16 117 9 32 19 74 24 93 4 19 21 77 39 129
17 51 31 99 31 105 0 6 16 43 35 81 38 77 44 119 18 129 -15 6 -15 8 0 23 14
15 18 15 50 -1 19 -9 41 -16 49 -16 20 0 59 56 52 75 -4 9 1 24 11 35 17 19
16 21 -13 67 -17 26 -39 68 -49 93 -36 84 -84 335 -90 462 -5 92 -19 122 -44
92 -21 -25 -15 -178 10 -259 25 -80 26 -98 6 -129 -12 -18 -13 -36 -7 -85 11
-79 -2 -66 -28 29 -12 41 -27 96 -35 121 -19 60 -18 82 1 47 15 -29 39 -37 46
-16 3 7 -3 42 -13 78 -9 36 -20 90 -24 120 -12 96 -41 144 -70 120 -20 -17
-20 6 0 40 8 14 14 35 15 47 0 22 9 30 83 78 l37 24 2 -32 c1 -18 2 -43 3 -57
0 -16 9 -29 22 -35 29 -12 31 -30 32 -210 0 -165 16 -283 39 -302 18 -15 58
-17 66 -4 4 5 1 22 -5 38 -25 65 -41 211 -44 418 -1 88 -3 165 -4 172 -1 17
-53 63 -69 63 -9 0 -12 6 -8 16 3 9 6 23 6 32 0 14 2 15 10 2 5 -8 12 -11 16
-7 4 3 1 13 -6 22 -10 12 -10 24 4 63 10 26 24 59 31 73 8 14 12 29 8 32 -3 4
2 22 11 42 10 20 21 57 26 83 4 26 13 62 18 79 11 35 -3 58 -19 32 -4 -7 -11
-10 -16 -6 -4 4 -1 18 7 30 7 12 19 33 26 46 15 28 38 45 42 30 2 -5 -4 -26
-13 -46z m345 7 c0 -5 -2 -10 -4 -10 -3 0 -8 5 -11 10 -3 6 -1 10 4 10 6 0 11
-4 11 -10z m-927 -27 c17 -5 17 -7 1 -24 -18 -20 -12 -39 14 -40 12 0 10 -3
-7 -10 -16 -6 -22 -15 -18 -29 3 -10 -1 -25 -9 -31 -20 -16 0 -39 28 -31 15 3
19 1 16 -9 -3 -8 -14 -13 -24 -11 -74 13 -80 13 -114 -10 -21 -14 -40 -38 -47
-59 -6 -20 -23 -53 -37 -74 -14 -21 -26 -43 -26 -49 0 -6 -12 -19 -26 -29
l-24 -18 6 39 c5 34 3 42 -17 55 l-22 16 37 48 c20 26 67 69 104 94 81 55 112
97 112 152 0 33 3 38 18 32 9 -4 25 -10 35 -12z m137 -18 c0 -9 -6 -12 -15 -9
-8 4 -15 10 -15 15 0 5 7 9 15 9 8 0 15 -7 15 -15z m756 -25 c-8 -20 -15 -27
-18 -19 -4 12 23 61 30 55 1 -2 -4 -18 -12 -36z m-1009 -27 c-16 -16 -17 -16
-17 3 0 26 11 37 24 24 7 -7 5 -16 -7 -27z m339 15 c4 -13 39 -56 77 -96 57
-58 78 -74 109 -78 21 -4 38 -11 38 -17 0 -11 -7 -33 -41 -137 -9 -30 -20 -68
-24 -84 -5 -25 -8 -27 -21 -15 -11 12 -12 21 -2 45 12 32 6 64 -12 64 -6 0
-15 -11 -20 -25 -5 -14 -12 -25 -15 -25 -12 0 -3 30 20 64 14 20 25 41 25 46
0 20 -30 9 -64 -24 -27 -25 -36 -41 -36 -66 0 -35 23 -70 47 -70 7 0 13 -4 13
-9 0 -14 -75 -6 -97 10 -28 21 -60 79 -67 124 -9 55 -26 105 -35 105 -4 0 -17
-9 -29 -20 -16 -16 -20 -28 -16 -46 4 -14 1 -35 -5 -47 -9 -17 -8 -33 3 -70
14 -48 14 -48 -11 -58 l-26 -10 22 -20 c22 -20 25 -54 6 -54 -6 0 -23 25 -38
55 -15 30 -32 56 -36 58 -19 6 -20 -18 -4 -69 19 -62 39 -89 65 -89 10 0 40
-23 68 -52 45 -47 48 -52 32 -64 -23 -18 -51 -19 -34 -2 7 7 12 20 12 29 0 19
-46 53 -60 44 -13 -8 -13 -65 1 -65 5 0 7 -5 3 -11 -3 -6 -16 -8 -29 -5 -17 4
-27 -1 -40 -20 -12 -18 -21 -23 -33 -18 -9 4 -35 10 -57 13 -31 5 -43 12 -54
36 -8 17 -26 44 -41 61 -15 18 -31 49 -35 70 -10 54 -14 58 -37 37 -20 -17
-20 -17 -15 2 3 11 11 44 17 73 14 61 26 73 39 39 14 -37 37 -40 64 -7 23 26
26 27 41 12 25 -25 44 2 48 68 l3 55 -32 0 c-18 0 -33 1 -33 2 0 1 15 11 34
22 41 25 60 27 52 5 -6 -17 19 -54 36 -54 5 0 20 25 34 56 14 31 42 72 63 91
22 19 42 47 46 61 8 33 52 102 64 102 6 0 13 -10 17 -22z m626 -43 c9 -11 17
-30 18 -42 0 -24 15 -32 22 -12 6 19 48 0 60 -27 6 -13 24 -29 39 -36 15 -7
25 -16 23 -20 -3 -4 -1 -8 5 -8 5 0 12 -13 16 -30 4 -16 12 -33 19 -37 20 -13
28 -43 11 -43 -8 0 -15 -4 -15 -9 0 -12 25 -21 58 -21 27 0 62 -25 62 -44 0
-6 14 -17 30 -24 17 -8 33 -24 36 -38 7 -29 -3 -45 -16 -24 -5 8 -12 11 -16 7
-10 -10 16 -38 29 -30 5 3 32 5 58 4 40 -1 50 2 60 20 10 20 12 21 21 5 5 -9
6 -26 3 -37 -5 -15 -4 -19 5 -14 14 8 58 -31 71 -62 4 -12 9 -134 10 -270 2
-245 1 -249 -26 -333 -15 -47 -28 -101 -29 -120 -1 -37 -17 -60 -54 -79 -33
-17 -36 -9 -12 31 27 47 38 105 55 292 17 188 32 305 40 327 3 9 -1 21 -9 28
-36 30 -61 -72 -71 -289 -7 -135 -29 -280 -51 -320 -7 -14 -24 -38 -38 -55
l-25 -30 -1 30 c0 17 -6 42 -14 56 -9 17 -12 44 -9 72 6 54 -11 71 -38 38 -29
-35 -34 -85 -13 -129 10 -20 20 -55 23 -77 8 -51 33 -56 80 -15 43 38 52 32
11 -8 -17 -17 -30 -41 -30 -55 0 -25 0 -25 -100 -23 -55 0 -100 2 -100 2 0 1
7 18 15 37 22 54 36 378 22 527 -3 36 -3 53 -1 38 4 -19 11 -28 24 -28 39 0
37 89 -2 114 -23 14 -46 0 -71 -43 -18 -29 -18 -35 -3 -111 13 -63 15 -114 11
-247 -8 -217 -16 -254 -64 -292 -41 -32 -104 -50 -116 -32 -3 7 -13 62 -22
124 -15 115 -11 314 8 380 13 47 -6 59 -37 24 -24 -28 -24 -28 -24 -5 0 13 -2
79 -5 148 -11 315 -16 675 -9 773 l7 108 25 -23 c14 -13 34 -32 44 -43z m-764
37 c8 -6 2 -9 -17 -9 -17 0 -28 4 -25 9 7 10 25 10 42 0z m-1812 -43 c126 -17
238 -93 315 -212 70 -108 78 -273 21 -400 -56 -123 -168 -218 -297 -252 -65
-16 -215 -20 -243 -6 -9 5 -46 21 -82 35 -160 65 -260 214 -260 390 0 144 67
279 182 364 59 43 91 58 170 77 69 17 100 17 194 4z m1804 -29 c0 -5 -4 -10
-9 -10 -6 0 -13 5 -16 10 -3 6 1 10 9 10 9 0 16 -4 16 -10z m396 -28 c-17 -16
-18 -16 -5 5 7 12 15 20 18 17 3 -2 -3 -12 -13 -22z m-1776 -167 c0 -8 -6 -15
-14 -15 -8 0 -16 7 -20 15 -4 10 1 15 14 15 11 0 20 -7 20 -15z m157 -62 c18
-23 25 -25 45 -16 31 13 45 7 63 -28 20 -37 10 -78 -21 -89 -15 -6 -24 -18
-24 -30 0 -11 -6 -29 -12 -40 -10 -15 -10 -27 -1 -51 15 -40 13 -44 -42 -64
-31 -12 -47 -25 -53 -45 -8 -22 -15 -26 -38 -23 -21 3 -46 -6 -88 -31 -33 -20
-63 -36 -67 -36 -5 0 5 21 21 48 51 81 72 157 71 251 0 47 -3 98 -7 116 -13
71 103 100 153 38z m3053 -15 c0 -16 -20 -7 -30 12 -10 19 -10 20 9 8 12 -7
21 -16 21 -20z m-1705 -185 c27 -19 28 -22 9 -22 -24 -1 -104 69 -104 91 0 11
10 6 33 -15 18 -18 46 -42 62 -54z m85 46 c0 -6 -7 -6 -20 1 -11 6 -20 15 -20
21 0 6 7 6 20 -1 11 -6 20 -15 20 -21z m1395 -9 c3 -5 -3 -10 -15 -10 -12 0
-18 5 -15 10 3 6 10 10 15 10 5 0 12 -4 15 -10z m-1487 -112 c7 -9 7 -19 2
-28 -8 -13 -10 -12 -10 3 0 10 -7 20 -14 23 -8 3 -27 22 -43 42 l-28 37 41
-32 c23 -18 46 -38 52 -45z m-1058 -67 c8 -16 6 -23 -12 -35 -29 -20 -54 -20
-62 0 -17 43 52 76 74 35z m-110 -102 c-12 -22 -30 -25 -30 -6 0 17 21 38 32
31 4 -3 3 -14 -2 -25z m-196 -9 c64 -31 106 -130 106 -252 0 -100 -22 -153
-91 -223 -32 -33 -59 -68 -59 -77 0 -29 -30 -89 -48 -94 -9 -3 -25 -10 -34
-15 -16 -8 -16 -6 -6 19 7 15 20 35 30 45 10 10 18 26 18 37 0 10 4 21 10 25
5 3 7 12 3 20 -4 11 3 15 26 15 17 0 31 5 31 10 0 10 -14 14 -39 11 -7 -2 -10
3 -6 9 4 6 -1 20 -11 31 -10 11 -12 19 -6 19 7 0 12 -5 12 -11 0 -5 5 -7 10
-4 13 8 13 62 1 69 -5 4 -13 -6 -19 -21 -8 -27 -9 -26 -16 19 -4 27 -5 52 -1
57 3 6 -4 15 -15 21 -11 6 -18 15 -15 20 3 5 -2 13 -11 18 -11 6 -13 12 -6 16
6 4 19 -6 29 -21 43 -66 93 -84 93 -33 0 17 -4 30 -10 30 -5 0 -12 11 -16 25
-3 14 -13 25 -23 25 -9 0 -22 5 -28 11 -12 12 -74 8 -105 -5 -13 -6 -18 -4
-18 7 0 9 -7 23 -16 32 -13 13 -15 24 -8 57 8 34 16 44 59 66 28 15 61 35 75
45 32 22 54 22 104 -3z m1876 -20 c0 -5 -4 -10 -10 -10 -5 0 -10 5 -10 10 0 6
5 10 10 10 6 0 10 -4 10 -10z m-1515 -201 c16 -19 24 -38 20 -48 -4 -9 -9 -28
-12 -44 -5 -25 -8 -27 -40 -21 -29 6 -35 3 -40 -15 -6 -25 -11 -26 -34 -5 -17
15 -21 15 -53 -5 -19 -12 -44 -34 -55 -49 l-19 -27 15 70 c8 39 19 77 24 85
49 81 59 88 126 89 34 1 46 -4 68 -30z m-1075 7 c0 -7 -6 -19 -14 -25 -11 -9
-15 -8 -20 5 -3 9 -4 20 0 25 8 14 34 11 34 -5z m358 -12 c28 -20 29 -44 0
-44 -17 0 -19 -3 -10 -12 9 -9 8 -15 -3 -28 -14 -15 -11 -60 5 -60 4 0 19 -12
33 -26 l26 -26 -5 34 c-5 28 -2 35 20 44 28 13 36 9 36 -18 0 -12 -7 -18 -22
-18 -17 0 -19 -3 -10 -12 20 -20 15 -68 -6 -68 -26 0 -34 -11 -21 -27 6 -7 9
-13 6 -13 -3 0 1 -16 9 -35 18 -43 18 -43 -3 -41 -14 1 -17 -5 -15 -24 3 -20
2 -22 -11 -12 -8 7 -13 22 -10 32 3 12 0 20 -7 20 -9 0 -7 7 5 20 18 19 17 20
-1 20 -11 0 -26 6 -33 13 -10 10 -11 9 -6 -3 6 -16 -28 -60 -45 -60 -6 0 -10
2 -10 4 0 2 -3 12 -7 22 -4 12 -3 15 5 10 7 -4 12 -1 12 8 0 9 7 16 15 16 8 0
15 9 15 20 0 17 -3 19 -19 11 -10 -6 -22 -7 -26 -3 -5 4 -5 -1 -2 -10 7 -20
-3 -24 -20 -7 -13 13 -36 2 -27 -13 4 -6 -1 -8 -15 -3 -12 3 -21 2 -21 -3 0
-6 5 -12 11 -14 14 -5 0 -38 -17 -38 -8 0 -14 8 -14 18 0 9 -18 30 -40 45 -35
25 -40 33 -37 63 1 22 6 33 15 29 6 -2 12 2 12 10 0 8 -5 15 -11 15 -7 0 -9
11 -6 27 3 15 1 36 -5 47 -19 36 5 64 61 72 28 4 56 13 62 20 16 19 109 18
137 -2z m190 -86 c5 -7 9 -35 9 -63 0 -27 -2 -43 -5 -35 -3 8 -8 17 -12 20
-10 7 -20 90 -10 90 4 0 12 -6 18 -12z m2062 -94 c0 -30 -3 -53 -7 -51 -8 5
-5 107 3 107 2 0 4 -25 4 -56z m-1474 13 c52 -30 74 -55 74 -85 0 -16 7 -46
16 -67 9 -22 13 -49 9 -65 -9 -39 9 -67 51 -85 20 -8 33 -19 29 -25 -13 -21
-53 -8 -119 40 -109 80 -242 111 -388 91 -50 -6 -93 -9 -96 -6 -18 17 67 55
125 55 19 0 51 9 72 19 l38 20 28 -30 c31 -31 69 -38 79 -14 4 11 -6 22 -29
36 -42 25 -45 51 -11 93 l24 29 16 -30 c29 -58 81 -51 59 7 -12 33 -9 35 23
17z m-208 -43 c-7 -15 -19 -29 -26 -32 -8 -2 -4 10 10 31 26 41 36 41 16 1z
m-359 -10 c5 -5 -30 -44 -39 -44 -4 0 -7 13 -6 30 1 25 4 29 21 24 11 -4 22
-8 24 -10z m2851 -54 c0 -22 14 -61 35 -100 40 -75 44 -96 16 -81 -36 20 -45
-9 -37 -119 4 -55 12 -113 18 -130 13 -38 5 -438 -10 -520 -34 -184 -36 -209
-16 -231 10 -12 29 -25 42 -30 18 -7 22 -16 22 -53 0 -47 17 -70 43 -60 13 5
15 16 11 52 -10 85 -13 91 -51 107 -40 17 -39 -1 -13 180 26 186 33 434 16
590 -4 44 -5 77 -1 73 4 -3 18 -48 31 -100 24 -90 24 -97 14 -252 -6 -88 -8
-182 -5 -208 4 -27 7 -65 7 -85 0 -49 20 -91 62 -135 35 -36 47 -68 25 -68
-16 0 -40 -67 -34 -93 4 -15 1 -28 -9 -36 -21 -18 -21 -51 0 -51 9 0 22 7 29
17 25 34 33 3 34 -135 1 -75 6 -164 11 -197 5 -33 12 -119 15 -192 7 -146 14
-181 44 -219 12 -15 21 -33 21 -40 0 -8 4 -22 10 -32 25 -44 59 -295 59 -445
1 -125 6 -119 -117 -137 -62 -9 -79 -8 -105 5 -16 8 -40 15 -52 15 -30 0 -91
67 -110 120 -9 25 -23 107 -30 182 -8 75 -19 148 -25 162 -13 36 3 33 33 -5
16 -21 30 -30 41 -26 25 10 2 57 -58 120 -28 31 -59 71 -68 89 -47 97 -178
474 -178 514 0 14 50 31 120 40 25 3 62 12 83 20 20 8 48 14 61 14 25 0 132
66 140 87 7 16 -42 41 -69 35 -11 -2 -33 -16 -50 -31 -41 -38 -132 -67 -170
-54 -33 11 -43 35 -55 132 -9 72 -36 117 -69 114 -42 -5 -55 86 -31 217 18 94
19 195 3 212 -23 22 -36 -7 -38 -84 -1 -40 -7 -100 -13 -133 -24 -122 -12
-213 30 -247 20 -15 21 -19 10 -67 -9 -41 -9 -62 3 -106 12 -49 12 -85 -2 -85
-2 0 -24 9 -48 20 -41 19 -44 23 -51 67 -3 27 -18 77 -31 113 -29 78 -31 116
-10 240 30 178 40 290 33 383 -7 96 -17 120 -38 98 -9 -8 -13 -48 -14 -119 -1
-120 -14 -247 -40 -383 -19 -100 -16 -137 26 -281 13 -42 20 -82 18 -90 -4
-10 -20 -12 -63 -8 l-57 5 -26 65 c-19 49 -25 85 -26 147 -1 46 -6 87 -12 93
-14 14 -41 3 -48 -18 -3 -10 -3 14 0 52 3 38 9 78 15 88 12 23 -5 50 -26 42
-21 -8 -45 -81 -48 -146 -2 -32 -7 -61 -11 -65 -10 -10 6 679 20 845 5 64 8
71 21 60 18 -14 87 -35 148 -45 22 -3 45 -10 52 -15 7 -6 19 -5 31 1 14 7 41
7 88 0 114 -17 128 -16 132 5 2 11 10 26 18 34 8 7 14 19 14 27 0 17 28 28 62
26 20 -2 28 3 33 21 4 13 23 44 41 71 19 26 34 56 34 67 0 12 9 38 20 60 11
22 20 48 20 58 0 27 9 33 31 19 13 -8 19 -23 19 -47z m114 -22 c-5 -8 15 -57
33 -79 15 -17 56 -170 48 -177 -3 -3 -5 2 -5 11 0 20 -28 23 -36 4 -2 -7 4
-40 15 -73 10 -34 24 -96 31 -140 6 -43 18 -110 26 -149 8 -38 16 -122 18
-185 5 -126 18 -207 41 -253 36 -72 9 -81 -54 -19 -43 45 -50 57 -60 116 -14
80 -16 206 -6 347 7 97 5 118 -21 229 -26 113 -27 123 -11 132 26 14 21 36
-28 137 -34 71 -45 103 -43 132 l3 40 27 -33 c14 -18 24 -36 22 -40z m-2955 6
c-11 -14 -11 -18 -1 -22 10 -3 10 -9 -3 -28 -8 -13 -17 -38 -19 -56 -3 -18 -5
-35 -5 -38 -1 -3 -7 6 -15 20 -7 14 -9 30 -4 36 4 6 5 13 2 17 -10 10 7 48 18
41 8 -5 9 -1 5 10 -9 24 11 62 26 47 7 -7 6 -15 -4 -27z m1734 -8 c3 -8 -2
-21 -12 -30 -17 -16 -19 -15 -23 8 -6 32 24 50 35 22z m-2243 -94 c15 -48 7
-66 -16 -34 -8 12 -24 22 -34 22 -16 0 -17 3 -7 23 31 58 35 58 57 -11z m404
42 c8 -22 8 -24 -8 -24 -18 0 -29 16 -21 30 9 15 22 12 29 -6z m-222 -46 c-9
-9 -12 -7 -12 12 0 19 3 21 12 12 9 -9 9 -15 0 -24z m2134 18 c12 -10 16 -18
9 -25 -7 -6 -16 -1 -28 15 -20 27 -11 32 19 10z m-2096 -5 c0 -6 -4 -13 -10
-16 -5 -3 -10 1 -10 9 0 9 5 16 10 16 6 0 10 -4 10 -9z m60 -6 c0 -8 -4 -15
-10 -15 -5 0 -10 7 -10 15 0 8 5 15 10 15 6 0 10 -7 10 -15z m160 11 c0 -3 -4
-8 -10 -11 -5 -3 -10 -1 -10 4 0 6 5 11 10 11 6 0 10 -2 10 -4z m-65 -26 c3
-5 1 -10 -4 -10 -6 0 -11 5 -11 10 0 6 2 10 4 10 3 0 8 -4 11 -10z m29 -6 c3
-8 2 -12 -4 -9 -6 3 -10 10 -10 16 0 14 7 11 14 -7z m2129 -7 c3 -8 1 -20 -4
-28 -6 -10 -9 -7 -9 14 0 29 5 35 13 14z m97 -61 c-17 -17 -31 7 -24 43 l7 33
14 -33 c9 -22 10 -36 3 -43z m-2671 45 c14 -25 1 -35 -15 -13 -16 20 -17 32
-4 32 5 0 14 -8 19 -19z m982 5 c159 -48 271 -157 324 -315 59 -174 16 -349
-117 -478 -145 -141 -369 -176 -557 -85 -75 36 -179 140 -214 215 -146 312 90
676 438 677 44 0 101 -6 126 -14z m-641 -6 c0 -5 -2 -10 -4 -10 -3 0 -8 5 -11
10 -3 6 -1 10 4 10 6 0 11 -4 11 -10z m88 -24 c3 -20 0 -27 -10 -24 -7 3 -14
17 -16 32 -3 20 0 27 10 24 7 -3 14 -17 16 -32z m2772 13 c0 -6 -5 -20 -12
-32 -11 -21 -11 -21 -18 -2 -8 20 5 45 21 45 5 0 9 -5 9 -11z m-3160 -59 c-7
-16 -16 -30 -21 -30 -5 0 -1 15 9 34 21 41 30 39 12 -4z m-137 -13 c-2 -4 -13
-2 -24 3 -16 9 -21 7 -28 -13 -16 -41 -67 -52 -57 -12 5 21 3 25 -16 25 -17 0
-19 3 -10 12 8 8 21 9 45 1 28 -8 37 -7 57 9 23 19 24 19 31 1 4 -10 5 -21 2
-26z m321 22 c57 -28 96 -82 96 -131 0 -40 -9 -47 -33 -24 -8 8 -22 14 -32 13
-12 -2 -19 6 -22 26 -4 31 13 37 22 7 3 -11 11 -20 16 -20 15 0 10 20 -11 42
-11 12 -19 29 -18 37 2 9 -4 16 -12 17 -8 0 -28 7 -44 14 -25 13 -30 12 -42
-5 -13 -17 -16 -18 -24 -5 -11 19 15 50 43 50 11 0 38 -9 61 -21z m-294 -33
c0 -3 -4 -8 -10 -11 -5 -3 -10 -1 -10 4 0 6 5 11 10 11 6 0 10 -2 10 -4z m510
-6 c0 -5 -4 -10 -9 -10 -6 0 -13 5 -16 10 -3 6 1 10 9 10 9 0 16 -4 16 -10z
m2631 -26 c17 -21 3 -29 -26 -16 -14 7 -41 12 -60 12 -42 0 -46 15 -7 28 30
10 74 -1 93 -24z m-2963 8 c2 -7 -6 -12 -17 -12 -21 0 -27 11 -14 24 9 9 26 2
31 -12z m81 -43 c-11 -7 -10 -11 6 -24 20 -16 20 -16 -2 -12 -13 3 -26 1 -29
-4 -3 -5 -10 -9 -16 -9 -12 0 -1 53 13 58 5 2 9 10 9 19 0 12 3 12 17 -2 14
-14 14 -18 2 -26z m2012 -26 c-11 -21 -20 -32 -21 -25 0 17 30 75 36 69 3 -3
-4 -22 -15 -44z m-2270 -31 l1 -27 11 28 c11 26 30 33 61 21 19 -7 22 -34 4
-34 -9 0 -9 -3 0 -12 7 -7 12 -22 12 -35 0 -16 6 -23 18 -23 10 0 21 -3 25 -6
9 -10 -22 -64 -35 -61 -6 1 -14 -9 -18 -23 -4 -16 -13 -25 -25 -25 -11 0 -23
-8 -28 -19 -6 -15 -14 -17 -41 -12 -25 5 -35 3 -40 -9 -3 -8 -11 -14 -18 -13
-6 2 -14 -6 -16 -16 -3 -15 0 -17 14 -12 18 6 18 5 0 -8 -11 -9 -16 -22 -12
-31 3 -9 -1 -27 -10 -41 -11 -15 -12 -24 -5 -24 6 0 14 7 17 15 8 20 30 19 39
-2 8 -23 -31 -56 -56 -48 -11 4 -19 2 -19 -4 0 -6 -6 -11 -14 -11 -8 0 -16 -4
-18 -10 -1 -5 -13 -7 -26 -4 -20 6 -22 11 -16 43 4 20 13 52 21 70 7 19 11 41
8 49 -3 8 3 16 14 19 10 2 24 16 30 30 10 21 14 23 27 12 20 -16 33 -2 39 40
3 28 1 32 -15 28 -11 -3 -21 1 -25 11 -3 8 -8 12 -12 9 -3 -4 0 -13 6 -21 7
-8 10 -20 6 -26 -11 -18 -25 -11 -25 14 0 14 -4 28 -10 31 -15 10 -12 23 8 28
14 4 13 6 -6 12 -19 6 -22 12 -17 34 6 24 6 25 -12 8 -15 -13 -22 -14 -31 -5
-14 14 -16 52 -2 43 6 -3 10 0 10 8 0 28 55 44 131 39 45 -4 49 -6 50 -30z
m2240 -35 c-10 -9 -11 -8 -5 6 3 10 9 15 12 12 3 -3 0 -11 -7 -18z m-1874 -34
c38 -29 37 -22 15 -129 -5 -23 -6 -65 -2 -94 6 -45 4 -56 -12 -72 -17 -17 -18
-28 -13 -81 6 -59 5 -64 -24 -101 -39 -49 -85 -78 -120 -75 -51 4 -70 -1 -100
-27 l-31 -26 -26 21 c-15 12 -38 21 -53 22 -23 1 -22 2 9 10 19 6 42 19 52 30
9 10 23 19 32 19 10 0 13 6 10 15 -4 9 0 15 10 15 9 0 16 5 16 11 0 12 -25 6
-89 -23 -24 -11 -60 -22 -80 -25 -46 -8 -100 -43 -140 -93 -37 -46 -55 -52
-41 -15 5 14 13 61 16 105 4 44 11 80 15 80 5 0 9 -9 9 -20 0 -22 8 -24 44
-11 14 6 26 19 28 33 2 12 18 33 37 45 40 27 51 29 51 8 0 -19 5 -19 35 1 13
9 29 13 34 10 16 -10 50 35 56 73 10 58 14 75 25 91 8 13 12 12 25 -7 20 -29
30 -29 60 2 30 29 32 64 5 98 -23 29 -25 39 -7 36 28 -3 36 3 48 39 23 71 48
79 106 35z m2253 -53 c0 -5 -2 -10 -4 -10 -3 0 -8 5 -11 10 -3 6 -1 10 4 10 6
0 11 -4 11 -10z m-420 -47 c-11 -17 -11 -17 -6 0 3 10 6 24 7 30 0 9 2 9 5 0
3 -7 0 -20 -6 -30z m-2418 -24 c-11 -28 -26 -29 -30 -1 -3 17 2 22 17 22 16 0
19 -4 13 -21z m2399 -26 c-12 -20 -14 -14 -5 12 4 9 9 14 11 11 3 -2 0 -13 -6
-23z m1563 -8 c3 -8 1 -15 -4 -15 -6 0 -10 7 -10 15 0 8 2 15 4 15 2 0 6 -7
10 -15z m-3968 -27 c4 -13 8 -30 9 -38 1 -8 5 -23 9 -32 10 -21 -13 -66 -24
-48 -4 7 -13 9 -19 6 -6 -4 -11 -2 -11 3 0 6 9 11 20 11 19 0 20 4 14 38 -7
35 -18 52 -38 52 -5 0 -6 -19 -3 -42 5 -41 5 -42 -8 -17 -16 29 -9 69 11 69 8
0 14 5 14 10 0 19 19 10 26 -12z m44 7 c0 -8 -4 -15 -10 -15 -5 0 -10 7 -10
15 0 8 5 15 10 15 6 0 10 -7 10 -15z m2320 -126 c-36 -140 -38 -241 -7 -264
23 -16 21 -32 -3 -40 -11 -4 -28 -17 -36 -31 -23 -34 -34 -30 -34 15 0 22 -6
44 -15 51 -8 7 -15 21 -15 31 0 19 58 198 69 214 4 6 20 43 36 83 15 39 30 70
32 68 2 -2 -10 -59 -27 -127z m1627 85 c1 -18 0 -22 -4 -9 -3 11 -10 26 -17
34 -9 11 -8 13 4 9 8 -2 16 -18 17 -34z m-3757 -15 c0 -4 -6 -10 -12 -13 -10
-5 -10 -7 -1 -12 9 -4 8 -12 -4 -30 l-16 -25 -18 27 c-19 30 -16 49 7 40 8 -3
14 0 14 8 0 7 7 13 15 13 8 0 15 -4 15 -8z m-325 -120 c2 -3 -1 -22 -7 -42 -9
-28 -8 -43 1 -63 6 -15 9 -29 6 -32 -8 -9 -28 15 -30 36 0 11 -9 27 -18 36 -9
10 -17 30 -17 45 0 25 3 28 30 26 17 -1 32 -4 35 -6z m4201 0 c3 -6 2 -15 -4
-21 -6 -6 -11 -2 -15 11 -5 22 7 29 19 10z m-1591 -90 c-7 -68 -8 -71 -21 -48
-7 13 -13 32 -14 41 0 20 31 90 38 83 2 -2 1 -36 -3 -76z m1539 -118 c1 -44
-19 -50 -39 -12 -8 17 -13 31 -11 31 3 0 -1 19 -9 41 -8 23 -15 60 -14 83 l1
41 35 -75 c20 -41 36 -90 37 -109z m-4069 159 c3 -6 -1 -7 -9 -4 -18 7 -21 14
-7 14 6 0 13 -4 16 -10z m-15 -34 c0 -8 3 -23 6 -33 5 -16 4 -16 -10 1 -18 22
-21 46 -6 46 6 0 10 -6 10 -14z m1860 -36 c0 -5 -7 -10 -15 -10 -8 0 -15 5
-15 10 0 6 7 10 15 10 8 0 15 -4 15 -10z m1011 -83 c-13 -13 -15 41 -3 70 5
13 8 8 10 -21 2 -21 -1 -43 -7 -49z m-1331 -22 c0 -9 -9 -15 -21 -15 -18 0
-19 2 -9 15 7 8 16 15 21 15 5 0 9 -7 9 -15z m-720 -26 c46 -21 60 -34 60 -58
0 -8 -6 -11 -16 -7 -9 3 -29 -2 -45 -11 -30 -18 -30 -18 -49 7 -10 13 -16 28
-14 32 11 17 -29 21 -41 5 -14 -19 -40 -22 -50 -7 -4 6 -3 10 2 9 21 -4 33 2
33 16 0 26 -28 16 -41 -14 -15 -35 -28 -32 -22 3 9 47 106 60 183 25z m2051
-42 c-4 -74 -11 -72 -11 3 0 35 3 60 7 56 4 -3 6 -30 4 -59z m-2671 10 c0 -34
-7 -50 -19 -42 -10 6 0 75 10 75 5 0 9 -15 9 -33z m1229 -24 c-12 -21 -24 -40
-26 -42 -1 -2 -12 4 -23 14 -20 18 -20 19 17 41 53 31 58 29 32 -13z m1127
-115 c-9 -70 -19 -85 -30 -45 -10 38 -7 67 9 73 11 4 15 23 16 63 2 52 2 53 8
16 3 -22 2 -70 -3 -107z m-908 85 c75 -85 78 -88 109 -88 17 0 35 3 39 8 16
16 57 5 85 -22 49 -50 41 -60 -45 -54 -128 10 -273 -33 -367 -108 -47 -37
-143 -154 -153 -187 -9 -26 -14 -27 -44 -6 -16 11 -34 14 -58 10 -19 -4 -34
-3 -34 1 1 22 28 82 53 114 32 42 47 88 47 142 0 52 29 65 94 43 63 -22 70
-21 100 15 30 35 32 51 11 73 -31 31 -17 67 35 91 50 22 89 12 128 -32z
m-1148 -17 c71 -19 194 -87 243 -134 21 -20 55 -70 75 -110 31 -64 36 -85 40
-161 7 -141 -30 -243 -124 -341 -133 -140 -356 -182 -529 -101 -74 34 -174
123 -212 189 -119 203 -59 459 139 592 108 72 249 97 368 66z m254 -21 c3 -8
1 -15 -4 -15 -6 0 -10 7 -10 15 0 8 2 15 4 15 2 0 6 -7 10 -15z m443 -20 c15
-10 23 -25 23 -44 0 -15 3 -62 6 -104 7 -75 6 -76 -24 -106 -41 -41 -52 -39
-52 9 0 33 4 40 19 40 24 0 35 58 15 80 -9 10 -10 20 -4 30 15 24 11 32 -10
20 -22 -12 -34 -32 -44 -75 -5 -21 -4 -26 3 -15 8 11 13 12 22 3 8 -8 6 -13
-9 -17 -11 -4 -23 -18 -26 -31 -4 -14 -11 -25 -17 -25 -13 0 -3 88 12 106 5 6
7 19 3 28 -3 9 -1 22 5 30 13 16 4 26 -24 26 -23 0 -45 17 -45 36 0 16 59 34
94 28 17 -2 40 -11 53 -19z m-258 6 c16 -10 6 -31 -15 -31 -8 0 -14 9 -14 20
0 22 7 25 29 11z m1922 -129 c-8 -13 -10 -7 -11 29 0 26 3 62 8 80 6 30 7 26
10 -29 2 -34 -2 -70 -7 -80z m-1460 92 c12 -14 11 -16 -5 -13 -10 2 -26 15
-35 28 -15 23 -15 24 5 13 11 -6 27 -18 35 -28z m1548 -52 c-3 -69 18 -107 62
-117 28 -6 29 -8 15 -24 -9 -10 -16 -23 -16 -30 0 -9 -11 -11 -39 -6 -31 5
-40 3 -45 -11 -4 -10 -2 -22 3 -27 11 -11 135 -12 252 -2 84 7 86 7 142 -25
42 -23 59 -39 63 -58 5 -26 70 -217 134 -396 18 -49 43 -107 56 -128 14 -21
22 -43 18 -49 -3 -5 -1 -15 4 -22 5 -7 12 -30 15 -52 3 -22 9 -50 13 -62 6
-22 3 -23 -43 -23 -62 0 -167 41 -209 82 -40 37 -100 59 -132 47 -13 -5 -38
-20 -56 -34 -69 -52 -236 -113 -277 -100 -18 6 -19 20 -21 208 -5 366 0 601
13 628 11 21 20 121 19 197 -1 51 2 62 15 62 14 0 16 -10 14 -58z m-2049 38
c0 -19 -32 -60 -46 -60 -8 0 -14 10 -14 21 0 17 3 19 13 10 16 -13 27 -5 27
21 0 10 5 18 10 18 6 0 10 -5 10 -10z m184 -45 c-7 -17 -20 -20 -28 -6 -7 10
3 21 20 21 8 0 11 -6 8 -15z m1505 -119 c21 -33 61 -53 82 -40 6 3 19 -3 30
-15 11 -12 23 -21 27 -21 4 0 7 -219 6 -488 -1 -295 3 -502 9 -524 13 -48 -4
-72 -46 -65 -18 2 -46 -4 -71 -18 -36 -19 -81 -32 -178 -52 -16 -3 -47 1 -71
8 l-44 12 -11 82 c-11 86 -4 170 23 270 8 28 19 79 26 115 6 36 20 81 30 100
l17 35 11 -28 c6 -16 9 -38 6 -50 -3 -12 1 -31 9 -42 14 -19 16 -19 31 -4 15
15 16 24 5 88 -8 43 -20 77 -32 87 -10 10 -18 25 -18 34 0 10 -7 35 -16 56
-13 31 -15 59 -9 163 4 69 9 144 10 166 1 38 23 186 31 213 6 22 119 -42 143
-82z m-630 20 c185 -67 298 -240 289 -444 -3 -76 -8 -97 -40 -165 -99 -207
-325 -310 -538 -247 -134 40 -230 124 -292 255 -41 89 -51 211 -23 296 51 160
167 270 328 314 65 17 215 13 276 -9z m-956 -48 c2 -7 -2 -28 -9 -46 -7 -18
-11 -39 -8 -47 4 -10 0 -15 -15 -15 -17 0 -19 3 -11 23 5 12 11 39 15 60 6 37
19 49 28 25z m126 -122 c-5 -6 -9 -20 -9 -33 0 -18 -6 -23 -25 -23 -14 0 -25
-3 -25 -7 0 -5 -13 -17 -29 -28 -16 -10 -28 -23 -25 -27 7 -10 -28 -26 -46
-20 -26 8 -39 23 -33 38 7 19 23 18 23 -1 0 -8 4 -15 9 -15 5 0 12 25 16 57 4
31 9 62 12 70 9 23 31 14 38 -16 4 -20 12 -29 24 -28 18 1 59 47 41 47 -5 0
-10 9 -10 21 0 21 0 21 24 -2 16 -15 21 -28 15 -33z m-164 -31 c0 -14 -3 -25
-6 -25 -9 0 -18 37 -11 44 11 12 17 5 17 -19z m298 -57 c17 -9 25 -19 22 -29
-13 -40 -20 -148 -13 -189 13 -71 5 -80 -26 -31 -25 39 -29 42 -43 28 -17 -17
-8 -43 29 -84 11 -12 17 -26 14 -31 -3 -5 1 -15 9 -22 12 -10 17 -8 26 13 10
23 13 21 53 -56 l42 -80 -30 -61 c-35 -68 -75 -101 -138 -111 -28 -5 -55 -20
-85 -48 -43 -40 -46 -41 -59 -22 -18 24 -18 64 2 145 8 36 12 76 9 89 -12 46
-82 128 -139 160 -75 42 -97 91 -60 132 8 9 17 24 18 33 1 9 11 23 22 31 22
16 104 20 104 5 0 -6 12 -15 27 -21 20 -7 23 -13 15 -21 -33 -33 5 -53 40 -21
11 10 18 12 18 4 0 -6 -7 -14 -15 -17 -22 -9 -19 -27 9 -57 28 -31 25 -55 -11
-91 -14 -14 -22 -30 -18 -36 12 -19 43 -10 65 18 l21 27 -6 -60 c-3 -33 -9
-81 -12 -106 -3 -30 -1 -49 7 -54 17 -10 21 -3 36 67 24 114 15 197 -28 245
-18 19 -18 25 -8 55 11 30 10 37 -13 71 -25 37 -26 39 -9 69 10 17 33 39 52
49 41 22 39 22 73 7z m-1253 -296 c0 -13 -12 -22 -22 -16 -10 6 -1 24 13 24 5
0 9 -4 9 -8z m825 -32 c3 -5 16 -10 27 -10 62 0 178 -117 178 -178 0 -36 -35
-130 -56 -152 -11 -11 -14 -11 -14 -1 0 11 -3 11 -15 1 -12 -10 -16 -9 -20 2
-5 12 -25 15 -54 9 -2 -1 2 -7 8 -15 7 -8 16 -27 20 -43 5 -15 12 -37 17 -47
6 -15 4 -18 -8 -14 -9 4 -21 1 -27 -5 -10 -9 -11 -6 -6 16 7 27 -7 38 -21 16
-9 -15 -9 -148 1 -182 10 -36 -8 -56 -59 -64 -31 -5 -40 -2 -52 16 -8 11 -18
21 -23 21 -12 0 -34 -101 -34 -157 0 -52 -9 -68 -21 -38 -3 9 -18 15 -36 15
-32 0 -37 9 -18 28 9 9 8 12 -6 12 -9 0 -15 4 -12 9 9 14 -5 41 -21 41 -7 0
-13 6 -12 13 1 6 -1 20 -6 30 -4 11 -3 23 4 30 16 16 14 27 -6 27 -13 0 -19 9
-20 34 -3 37 -48 132 -56 118 -10 -14 -1 -76 11 -80 7 -2 10 -8 6 -13 -3 -5
-1 -24 4 -42 19 -60 22 -87 13 -87 -6 0 -16 12 -23 28 -13 26 -17 27 -86 28
-40 0 -76 5 -81 10 -5 5 -11 22 -13 39 -2 20 -11 34 -28 42 -13 7 -30 20 -37
29 -18 25 -17 125 2 150 20 27 18 54 -6 80 -19 21 -20 25 -7 59 14 41 33 54
51 36 6 -6 22 -11 35 -11 18 0 23 5 20 23 -3 20 1 22 55 25 50 3 64 -1 93 -23
39 -30 49 -64 13 -45 -18 10 -20 9 -17 -7 2 -10 11 -17 21 -17 23 2 6 -29 -29
-53 -80 -55 -95 -97 -46 -131 15 -10 42 -19 60 -19 32 0 33 2 30 36 -3 34 -5
36 -36 33 -41 -3 -35 10 21 42 23 14 50 39 60 56 21 34 32 38 42 13 11 -26 14
-153 4 -153 -5 0 -16 -11 -25 -26 -22 -33 -4 -56 24 -31 25 23 32 21 32 -5 1
-65 47 -62 52 4 3 41 4 42 15 18 6 -14 14 -33 17 -44 5 -15 9 -16 21 -6 21 17
19 39 -11 104 -25 55 -37 66 -49 46 -15 -24 -26 -8 -20 29 5 28 2 49 -10 71
-13 25 -14 38 -7 55 9 19 17 23 49 20 22 -2 42 -11 48 -21 25 -42 40 -54 55
-44 12 8 11 15 -8 54 -24 51 -57 66 -98 47 -67 -30 -5 80 75 135 40 27 47 29
56 14z m1475 -196 c0 -1 -11 -56 -25 -124 -14 -68 -25 -140 -25 -161 0 -35 -4
-40 -34 -53 -50 -21 -66 -51 -56 -105 5 -28 4 -53 -3 -68 -11 -24 -11 -24 -59
24 -37 37 -48 54 -48 79 0 17 7 37 16 44 22 19 14 65 -11 65 -15 0 -23 -11
-32 -45 -21 -84 -17 -104 35 -167 55 -65 75 -115 70 -171 -2 -31 0 -37 16 -37
26 0 40 53 27 102 -6 20 -9 39 -7 41 3 2 16 -4 31 -14 27 -18 28 -19 21 -103
-3 -46 -11 -90 -17 -97 -5 -6 -25 -15 -44 -18 -19 -4 -47 -18 -63 -31 l-29
-25 -19 21 c-12 14 -25 18 -41 14 -29 -7 -30 8 -4 72 56 144 21 328 -90 469
-21 27 -35 52 -31 56 4 4 23 14 43 22 35 15 38 14 65 -9 35 -30 79 -33 96 -5
7 11 20 20 30 20 25 0 31 17 29 75 -1 44 3 58 25 85 15 18 36 35 46 39 17 6
88 10 88 5z m500 -45 c0 -17 -4 -28 -10 -24 -5 3 -10 17 -10 31 0 13 5 24 10
24 6 0 10 -14 10 -31z m-709 -36 c-8 -15 -10 -15 -11 -2 0 17 10 32 18 25 2
-3 -1 -13 -7 -23z m1202 -4 c33 -17 67 -51 61 -60 -3 -5 1 -9 9 -9 15 0 27
-20 27 -44 0 -16 -105 -15 -122 2 -6 6 -27 12 -46 12 -31 0 -63 18 -62 37 1
11 82 72 98 72 7 1 23 -4 35 -10z m-1263 -35 c0 -8 -4 -12 -10 -9 -5 3 -10 10
-10 16 0 5 5 9 10 9 6 0 10 -7 10 -16z m1113 -31 c9 -9 -12 -33 -29 -33 -17 0
-18 27 -1 33 18 8 23 8 30 0z m-1528 -28 c140 -37 241 -121 303 -253 34 -72
36 -83 36 -172 -1 -145 -26 -198 -156 -330 -108 -111 -330 -143 -484 -71 -159
75 -263 229 -264 393 -1 284 287 505 565 433z m430 6 c3 -5 1 -12 -5 -16 -5
-3 -10 1 -10 9 0 18 6 21 15 7z m1035 -22 c0 -6 -10 -9 -22 -8 -13 1 -31 -2
-41 -6 -20 -9 -32 -1 -22 14 8 14 85 14 85 0z m380 3 c0 -5 12 -13 28 -19 26
-10 25 -10 -13 -8 -22 2 -43 3 -47 4 -18 2 -6 31 12 31 11 0 20 -4 20 -8z
m150 -19 c-14 -3 -30 -9 -37 -15 -13 -10 -33 -3 -33 13 0 5 21 8 48 8 27 -1
37 -4 22 -6z m-770 -73 l-7 -45 -2 55 c0 32 3 50 8 45 5 -6 5 -30 1 -55z m338
34 c-9 -9 -35 -18 -58 -20 -37 -3 -41 -2 -29 12 7 8 18 13 25 10 7 -3 16 -1
19 4 4 6 18 10 33 10 24 0 25 -1 10 -16z m442 -3 c0 -17 -3 -18 -29 -8 -34 13
-31 27 5 27 17 0 24 -6 24 -19z m602 1 c29 -12 5 -31 -45 -36 -26 -3 -47 -1
-47 4 0 5 -3 15 -6 24 -5 13 2 16 37 15 24 0 52 -3 61 -7z m294 -25 c-3 -20
-9 -22 -57 -20 -29 0 -55 6 -57 12 -2 6 -10 11 -18 11 -8 0 -14 5 -14 10 0 6
20 10 44 10 25 0 48 -4 51 -10 10 -16 35 -12 35 6 0 8 4 12 10 9 5 -3 8 -16 6
-28z m-179 17 c-10 -10 -77 -22 -82 -14 -8 13 8 20 48 20 22 0 38 -3 34 -6z
m-971 -22 c38 -30 39 -58 4 -78 -16 -10 -30 -24 -30 -31 0 -7 -9 -17 -20 -23
-11 -6 -20 -21 -20 -35 0 -34 -10 -55 -27 -55 -8 0 -19 -13 -24 -30 -8 -21
-17 -30 -32 -30 -15 0 -18 3 -9 8 17 11 4 42 -14 35 -8 -3 -14 -11 -14 -18 0
-8 -18 -13 -57 -13 -50 0 -60 3 -84 29 -21 23 -40 31 -78 36 l-51 6 -2 41 c-3
93 12 121 63 114 19 -3 25 0 22 9 -6 15 6 20 70 26 38 4 50 1 55 -12 9 -20 44
-24 54 -6 6 9 17 11 42 5 20 -4 39 -3 44 2 6 6 26 10 45 11 24 1 33 5 30 14
-7 18 8 16 33 -5z m-376 -6 c-36 -14 -55 -12 -45 5 4 5 23 9 43 8 l37 -1 -35
-12z m460 -16 c8 13 17 13 77 -3 37 -9 76 -17 86 -17 9 0 18 -8 18 -17 1 -10
2 -25 3 -33 1 -8 7 -25 14 -37 17 -31 16 -33 -24 -33 -40 0 -63 21 -64 55 0
21 -45 45 -84 45 -10 0 -14 5 -10 12 4 7 3 8 -4 4 -6 -4 -23 -4 -37 0 -21 5
-23 9 -14 21 10 11 14 11 21 1 6 -10 10 -10 18 2z m-607 -130 c-4 -45 -9 -67
-13 -55 -4 11 -6 34 -4 50 1 17 3 46 3 65 1 20 5 30 10 25 5 -6 7 -44 4 -85z
m-1844 76 c-12 -10 -59 -15 -59 -6 0 5 14 10 32 10 17 0 29 -2 27 -4z m1251
-61 c0 -8 -9 -15 -20 -15 -11 0 -20 4 -20 10 0 5 7 7 15 4 8 -4 15 -1 15 5 0
6 2 11 5 11 3 0 5 -7 5 -15z m1258 -33 c2 -12 -1 -22 -7 -22 -6 0 -11 4 -11 9
0 5 -3 17 -7 27 -4 12 -2 15 8 12 8 -2 15 -14 17 -26z m-828 -13 c0 -20 -8
-38 -22 -50 -18 -15 -20 -20 -9 -28 18 -11 -1 -47 -30 -56 -27 -9 -45 8 -25
24 12 10 10 16 -16 43 -16 16 -32 27 -36 23 -3 -3 0 -10 7 -14 8 -5 11 -17 6
-30 -5 -15 -15 -21 -36 -21 -26 0 -29 3 -24 20 7 24 -7 26 -25 5 -16 -20 -36
-19 -44 2 -9 22 0 29 59 43 28 6 61 14 75 17 14 3 41 17 60 30 47 31 60 29 60
-8z m1497 -31 c-3 -10 -1 -16 4 -12 14 8 11 -2 -10 -37 -18 -29 -37 -27 -25 4
3 8 1 18 -5 22 -6 3 -11 22 -11 41 l0 34 26 -16 c17 -11 24 -24 21 -36z
m-3177 28 c0 -9 -30 -14 -35 -6 -4 6 3 10 14 10 12 0 21 -2 21 -4z m1266 -5
c-3 -5 1 -14 9 -21 23 -19 19 -60 -4 -60 -11 0 -22 4 -25 8 -8 13 5 82 16 82
5 0 7 -4 4 -9z m1352 -49 c2 -13 -5 -25 -18 -32 -20 -10 -20 -10 -8 11 10 17
10 23 0 26 -15 6 -4 25 11 20 7 -2 13 -13 15 -25z m-2674 -53 c14 -30 21 -38
27 -28 6 10 9 7 10 -11 1 -14 0 -33 -1 -43 -2 -20 13 -72 38 -132 25 -62 84
-145 140 -197 36 -34 46 -48 35 -52 -8 -4 -19 -4 -24 0 -5 3 -16 -2 -25 -11
-9 -9 -23 -14 -32 -10 -8 3 -20 -3 -27 -12 -12 -16 -17 -14 -55 25 -24 24 -55
46 -71 49 -16 3 -29 9 -29 13 0 9 -40 55 -48 55 -16 1 -52 31 -52 43 0 9 13
11 50 7 48 -6 56 -2 51 28 0 4 4 7 9 7 6 0 19 9 29 19 16 16 18 26 11 52 -11
38 -27 51 -53 43 -13 -4 -20 0 -24 15 -6 25 -12 26 -27 5 -18 -24 -47 -7 -41
24 3 18 -4 39 -21 63 -29 43 -24 63 22 85 19 9 34 20 34 24 0 5 13 2 28 -5 16
-9 36 -32 46 -56z m1453 27 c-9 -18 -16 -22 -31 -16 -31 11 -30 28 1 33 15 2
31 5 35 6 3 0 1 -10 -5 -23z m332 -256 c-4 -101 -11 -161 -23 -198 l-18 -52
-37 6 c-44 8 -50 16 -48 66 2 34 8 43 41 66 55 38 84 78 67 95 -10 10 -19 5
-44 -24 -18 -20 -43 -42 -56 -49 -23 -12 -24 -11 -17 16 27 122 42 158 71 174
25 14 30 23 30 56 1 21 7 53 15 69 l14 30 6 -55 c3 -30 2 -120 -1 -200z m829
161 c5 -3 12 -13 15 -21 3 -10 8 -4 12 16 5 24 12 31 28 30 18 -1 23 -9 28
-41 3 -22 7 -36 8 -31 2 14 51 -35 68 -69 8 -16 27 -42 40 -57 35 -37 25 -58
-27 -58 -61 0 -83 15 -75 50 8 35 -15 82 -41 86 -11 2 -46 8 -79 14 -33 6 -74
10 -90 8 -29 -3 -31 -1 -27 24 2 16 -1 34 -7 42 -9 11 -6 15 16 18 16 3 35 7
43 9 9 3 16 -4 18 -18 2 -13 10 -23 18 -23 10 0 13 6 9 19 -3 10 0 31 6 47
l12 29 7 -34 c5 -18 12 -36 18 -40z m-612 46 c-11 -8 -17 -23 -14 -38 2 -20 9
-25 41 -27 20 -2 37 -8 37 -13 0 -12 -12 -16 -72 -23 l-47 -5 -7 44 c-9 62 -2
75 43 75 33 0 35 -1 19 -13z m-126 -7 c0 -5 -5 -10 -11 -10 -5 0 -7 5 -4 10 3
6 8 10 11 10 2 0 4 -4 4 -10z m260 -5 c0 -8 7 -15 15 -15 8 0 15 3 15 8 0 4
33 7 73 5 40 -1 93 3 116 8 45 10 68 5 35 -8 -30 -11 -46 -43 -22 -43 13 0 48
-29 48 -41 0 -5 -9 -13 -20 -19 -16 -8 -28 -5 -62 17 -30 18 -60 28 -98 31
-53 3 -56 2 -77 -30 -13 -19 -23 -42 -23 -52 0 -10 -6 -16 -12 -13 -8 2 -12
19 -11 43 2 21 4 58 5 81 2 24 6 43 11 43 4 0 7 -7 7 -15z m-2271 -37 c13 -35
13 -33 -16 -42 -18 -6 -23 -3 -23 11 0 10 -3 28 -6 41 -5 17 -2 22 14 22 14 0
24 -10 31 -32z m3081 2 c0 -5 -5 -10 -11 -10 -5 0 -7 5 -4 10 3 6 8 10 11 10
2 0 4 -4 4 -10z m-1591 -17 c-7 -10 -15 -20 -16 -22 -2 -2 -3 5 -3 17 0 14 6
22 16 22 14 0 15 -3 3 -17z m51 -2 c-11 -21 1 -37 19 -27 5 4 7 -3 4 -14 -6
-22 12 -28 20 -7 3 6 6 2 6 -9 1 -12 -6 -27 -14 -34 -10 -9 -15 -9 -15 -1 0
21 -28 11 -32 -12 -7 -36 1 -48 27 -41 21 5 24 3 23 -24 -1 -22 -7 -32 -22
-36 -11 -3 -17 -8 -14 -12 11 -10 -74 -74 -98 -74 -4 0 1 9 11 20 16 18 14 24
-6 22 -4 -1 -1 15 6 36 14 39 35 55 35 27 0 -14 3 -15 15 -5 21 18 19 29 -13
60 -38 36 -45 64 -20 86 15 15 18 15 13 2 -4 -10 1 -17 16 -21 19 -5 21 -3 16
27 -3 19 0 39 6 45 18 18 29 13 17 -8z m260 -10 c0 -9 -22 -31 -31 -31 -10 0
-20 30 -14 40 6 9 45 1 45 -9z m1480 11 c0 -5 -10 -17 -22 -28 -12 -10 -19
-14 -16 -9 3 6 8 18 11 28 6 17 27 24 27 9z m-1270 -12 c0 -5 -2 -10 -4 -10
-3 0 -8 5 -11 10 -3 6 -1 10 4 10 6 0 11 -4 11 -10z m1838 -27 c32 -24 38 -52
22 -110 -11 -36 -10 -46 1 -61 30 -36 39 -64 39 -112 0 -27 -4 -50 -10 -50
-10 0 -50 40 -50 51 0 15 -61 31 -99 24 -21 -3 -56 -2 -76 4 -59 16 -105 -4
-135 -60 -14 -25 -33 -59 -42 -76 -10 -17 -15 -33 -12 -36 3 -3 1 -8 -5 -11
-13 -9 -34 31 -27 51 4 9 -2 24 -14 35 -26 24 -27 58 -1 58 34 0 52 38 45 92
-4 27 -3 48 2 48 124 6 148 17 139 62 -8 33 2 48 60 91 34 25 47 28 88 24 27
-2 61 -13 75 -24z m-2128 -3 c0 -5 -4 -10 -10 -10 -5 0 -10 5 -10 10 0 6 5 10
10 10 6 0 10 -4 10 -10z m716 -30 c40 -23 60 -28 87 -23 l35 5 -5 -43 c-8 -65
-16 -71 -68 -48 -40 18 -48 18 -78 6 -18 -8 -41 -26 -50 -41 -23 -35 -34 -33
-39 9 -4 32 -1 36 29 46 54 17 57 69 4 69 -37 0 -44 10 -24 32 23 25 48 23
109 -12z m-2717 -7 c14 -11 43 -23 63 -27 31 -6 39 -3 48 14 10 19 13 18 50
-22 44 -48 47 -59 24 -82 -26 -26 -42 -18 -63 29 -16 35 -25 45 -44 45 -34 0
-37 -7 -16 -48 20 -38 25 -72 10 -72 -4 0 -19 8 -32 18 -44 34 -124 70 -181
83 l-57 12 26 31 c14 17 33 34 42 38 27 13 102 1 130 -19z m1981 2 c0 -8 -7
-15 -15 -15 -9 0 -12 6 -9 15 4 8 10 15 15 15 5 0 9 -7 9 -15z m485 -16 c18
-19 18 -21 1 -53 -22 -41 -15 -66 26 -101 22 -18 41 -25 62 -24 17 2 37 0 43
-4 15 -10 49 7 86 41 26 24 30 25 60 13 63 -27 92 -25 116 4 11 15 21 40 21
56 0 40 30 57 88 52 26 -3 60 -9 75 -15 24 -9 27 -15 22 -39 -10 -44 39 -91
101 -98 52 -6 54 -9 69 -104 4 -26 19 -51 46 -78 36 -36 41 -47 45 -97 2 -32
6 -75 9 -97 5 -27 2 -46 -8 -59 -13 -18 -15 -17 -21 18 -13 67 -46 160 -71
198 -60 90 -221 182 -351 201 -104 14 -196 -1 -293 -49 -84 -42 -182 -127
-212 -186 -20 -38 -36 -54 -46 -44 -11 11 -2 126 13 169 8 23 14 58 13 77 -1
19 -1 77 0 128 1 84 3 92 20 92 11 0 23 5 26 10 10 17 41 11 60 -11z m-2132
-25 c10 -3 17 -13 15 -22 -4 -22 -46 -28 -54 -8 -3 9 -14 16 -24 16 -10 0 -23
7 -31 16 -11 14 -8 15 32 9 24 -3 52 -8 62 -11z m61 -29 c-7 -16 -24 -21 -24
-6 0 8 7 13 27 20 1 1 0 -6 -3 -14z m1560 -9 c-3 -9 -10 -13 -16 -10 -5 3 -4
12 3 20 15 18 22 13 13 -10z m1459 17 c9 -8 -25 -33 -36 -26 -4 3 -3 11 4 19
13 15 22 18 32 7z m-869 -56 c13 -37 0 -45 -29 -17 -19 18 -22 26 -13 37 15
19 31 11 42 -20z m1016 7 c0 -8 -5 -12 -10 -9 -6 4 -8 11 -5 16 9 14 15 11 15
-7z m-3736 -14 c127 -21 244 -111 305 -235 49 -99 54 -197 16 -310 -14 -44
-37 -93 -49 -110 -81 -106 -189 -178 -285 -190 -25 -4 -70 -11 -100 -17 -34
-6 -56 -6 -60 0 -3 5 -31 17 -61 25 -175 51 -297 204 -308 385 -5 97 7 152 54
237 94 172 272 251 488 215z m2125 -4 c10 -11 10 -20 0 -37 l-12 -23 -14 27
c-20 40 0 65 26 33z m-319 -16 c-12 -22 -40 -27 -40 -7 0 19 10 27 32 27 16 0
17 -3 8 -20z m-144 -26 c-3 -7 -1 -16 4 -19 16 -10 11 -34 -12 -68 -13 -18
-24 -34 -25 -36 -1 -1 -12 4 -24 13 -16 10 -27 12 -40 5 -11 -6 -20 -6 -24 1
-3 6 -18 8 -33 5 -15 -3 -20 -2 -12 1 8 4 23 13 33 22 11 10 17 11 17 3 0 -9
5 -9 20 -1 11 6 20 17 20 25 0 8 -9 15 -20 15 l-20 0 20 20 c11 11 20 24 20
29 0 13 52 19 68 7 7 -5 11 -15 8 -22z m-1266 0 c0 4 7 1 15 -8 17 -17 20 -36
5 -36 -5 0 -10 5 -10 10 0 6 -4 10 -10 10 -19 0 -10 -18 27 -54 45 -43 53 -45
53 -9 l0 26 24 -22 c14 -13 22 -29 19 -37 -4 -10 3 -14 20 -14 14 0 29 -5 32
-10 4 -6 15 -8 24 -5 10 3 24 -1 31 -10 7 -8 21 -15 31 -15 13 0 19 -7 19 -21
0 -19 -4 -20 -37 -14 -44 9 -52 9 -110 -1 -25 -4 -48 -2 -55 4 -7 5 -31 13
-54 17 -37 6 -42 10 -52 43 -6 21 -27 53 -47 72 -43 41 -48 75 -10 66 17 -4
31 -1 41 9 13 12 19 13 30 4 8 -6 14 -8 14 -5z m1754 -19 c-4 -8 -10 -15 -16
-15 -5 0 -21 -11 -35 -25 -31 -28 -44 -26 -16 2 18 18 64 53 70 53 1 0 0 -7
-3 -15z m316 5 c0 -5 -5 -10 -11 -10 -5 0 -7 5 -4 10 3 6 8 10 11 10 2 0 4 -4
4 -10z m1200 -30 c0 -5 -4 -10 -10 -10 -5 0 -10 5 -10 10 0 6 5 10 10 10 6 0
10 -4 10 -10z m-1760 -40 c0 -5 -5 -10 -11 -10 -5 0 -7 5 -4 10 3 6 8 10 11
10 2 0 4 -4 4 -10z m560 0 c0 -5 -4 -10 -10 -10 -5 0 -10 5 -10 10 0 6 5 10
10 10 6 0 10 -4 10 -10z m668 -21 c121 -41 216 -134 262 -254 25 -67 30 -201
11 -273 -15 -54 -80 -151 -132 -196 -99 -86 -255 -131 -371 -107 -82 16 -130
40 -203 99 -98 78 -137 149 -154 280 -31 221 146 444 374 470 87 10 145 5 213
-19z m488 4 c-10 -10 -19 5 -10 18 6 11 8 11 12 0 2 -7 1 -15 -2 -18z m659 -9
c9 -14 32 -32 51 -41 34 -17 35 -18 32 -70 -2 -29 -6 -54 -10 -55 -4 -1 -35
-5 -69 -9 -47 -5 -67 -13 -90 -35 -16 -15 -29 -35 -29 -44 0 -9 -2 -19 -5 -22
-9 -9 -115 52 -115 66 0 7 -16 20 -36 30 -35 16 -36 17 -19 36 15 16 16 22 5
35 -20 24 3 40 58 40 43 0 47 2 47 25 0 19 -6 26 -23 28 -39 6 -23 37 18 37
32 0 35 -2 32 -27 -5 -51 56 -69 93 -28 13 14 14 23 6 38 -6 11 -8 22 -5 25
11 10 44 -6 59 -29z m-2140 15 c10 -14 1 -21 -19 -13 -9 3 -13 10 -10 15 7 12
21 11 29 -2z m1333 -25 c-3 -14 -5 -12 -10 9 -3 19 -2 25 4 19 6 -6 8 -18 6
-28z m229 18 c6 -11 8 -25 3 -32 -6 -9 -10 -6 -15 10 -7 21 -8 22 -17 6 -5 -9
-7 -23 -5 -31 3 -8 -3 -15 -16 -19 -29 -7 -32 -1 -13 26 9 12 16 30 16 40 0
24 32 23 47 0z m110 -42 c-6 -51 -4 -60 9 -60 10 0 14 6 10 15 -3 8 -2 15 3
15 14 0 21 -13 12 -24 -35 -46 -5 -110 47 -100 19 4 36 -1 55 -16 27 -21 27
-23 10 -42 -15 -16 -15 -21 -3 -28 8 -5 11 -12 7 -16 -11 -11 -47 -12 -47 -1
0 5 -7 4 -16 -4 -13 -11 -15 -9 -12 15 3 24 -2 29 -36 41 -54 19 -61 28 -41
59 17 25 16 26 -9 37 -14 7 -26 18 -26 26 0 7 -4 13 -9 13 -5 0 -11 9 -14 21
-3 12 -3 18 0 15 14 -13 43 29 43 61 0 18 5 33 11 33 8 0 10 -18 6 -60z
m-1869 25 c1 -13 -3 -27 -8 -30 -15 -9 -12 -25 5 -25 8 0 17 11 21 25 6 26 31
52 40 42 23 -22 -36 -85 -73 -78 -7 1 -22 -3 -33 -9 -27 -14 -27 3 0 30 11 11
20 26 20 33 0 10 18 37 25 37 0 0 2 -11 3 -25z m510 -19 c24 1 30 -20 10 -33
-7 -4 -21 -6 -30 -5 -12 2 -18 -3 -18 -17 0 -12 5 -21 11 -21 6 0 9 -25 7 -70
-3 -76 -17 -97 -19 -27 l-1 42 -9 -32 c-5 -18 -14 -33 -19 -33 -15 0 -12 43 6
96 8 25 14 60 13 77 -1 18 -1 41 0 52 1 18 3 17 14 -5 8 -16 21 -25 35 -24z
m1319 12 c-3 -8 -6 -5 -6 6 -1 11 2 17 5 13 3 -3 4 -12 1 -19z m-1717 -18 c25
0 27 -3 25 -32 -2 -18 -3 -34 -4 -35 -1 -1 -12 2 -25 7 -15 5 -27 5 -35 -3 -8
-8 -11 -8 -11 1 0 7 11 17 24 22 36 13 45 34 12 28 -22 -4 -26 -2 -25 16 0 11
3 15 6 9 2 -7 17 -13 33 -13z m-180 -9 c0 -5 -5 -11 -12 -13 -7 -3 -11 -19
-10 -41 3 -44 -9 -48 -25 -8 -9 25 -8 32 10 50 23 22 37 27 37 12z m346 0 c5
-5 22 -11 37 -13 35 -4 40 -22 7 -26 -36 -5 -51 -22 -48 -51 3 -22 9 -26 41
-29 37 -3 52 13 22 24 -26 10 -16 21 15 16 25 -4 30 -9 30 -33 0 -23 -4 -29
-22 -29 -13 0 -34 -9 -48 -20 -14 -11 -28 -20 -31 -20 -10 0 -28 72 -33 133
-5 56 5 72 30 48z m-611 -40 c3 -5 1 -12 -5 -16 -5 -3 -10 1 -10 9 0 18 6 21
15 7z m60 -1 c-3 -5 -10 -10 -16 -10 -5 0 -9 5 -9 10 0 6 7 10 16 10 8 0 12
-4 9 -10z m2059 -42 c-10 -16 -36 -8 -30 8 3 9 6 21 6 27 0 6 6 2 14 -8 8 -11
12 -23 10 -27z m-2713 -18 c22 -21 29 -38 27 -57 -4 -34 -28 -43 -28 -11 0 13
-12 36 -26 52 -21 23 -28 26 -35 15 -5 -8 -9 -11 -9 -7 0 3 -3 13 -6 22 -11
29 44 19 77 -14z m352 11 c6 -6 17 -11 24 -11 7 0 20 -12 29 -26 13 -19 19
-22 25 -12 9 13 14 -39 9 -91 -8 -92 114 -168 197 -123 33 18 39 16 95 -40
l53 -53 -45 -5 c-60 -7 -108 -37 -112 -69 -3 -26 -23 -39 -84 -58 -24 -8 -35
-6 -52 8 -12 9 -22 21 -22 26 0 13 40 44 49 39 4 -3 22 4 40 15 31 19 32 19
22 0 -8 -14 -7 -22 4 -31 13 -10 15 -8 15 13 0 14 3 33 7 43 5 13 3 16 -9 12
-9 -4 -20 -2 -25 3 -6 6 -64 11 -129 11 -112 1 -123 3 -177 31 -32 16 -61 36
-64 43 -3 8 -13 14 -22 14 -20 0 -61 27 -61 41 0 17 28 9 57 -15 16 -14 49
-32 72 -42 40 -16 44 -16 59 0 16 16 15 18 -8 36 -14 11 -32 20 -41 20 -9 0
-32 12 -52 28 -27 21 -34 32 -30 49 4 17 -1 25 -21 34 -14 7 -26 18 -26 26 0
25 39 91 57 96 33 8 155 -1 166 -12z m697 13 c0 -15 -22 -44 -30 -39 -6 4 -5
14 3 25 11 19 27 27 27 14z m-510 -53 c-9 -18 -40 -30 -40 -16 0 9 25 50 35
57 15 11 18 -17 5 -41z m410 39 c0 -5 -4 -10 -10 -10 -5 0 -10 5 -10 10 0 6 5
10 10 10 6 0 10 -4 10 -10z m-1040 -10 c12 -8 11 -10 -5 -10 -12 0 -26 -5 -33
-12 -9 -9 -12 -9 -12 3 0 29 22 37 50 19z m850 0 c0 -5 -4 -10 -10 -10 -5 0
-10 5 -10 10 0 6 5 10 10 10 6 0 10 -4 10 -10z m-1113 -22 c42 -12 83 -61 83
-98 0 -37 -9 -60 -24 -60 -6 0 -22 -9 -36 -20 -37 -29 -66 -26 -75 7 -14 58
-46 68 -92 29 -25 -21 -26 -26 -15 -50 12 -28 35 -27 30 1 -2 9 2 18 9 20 7 3
10 -3 7 -14 -9 -32 32 -73 74 -74 36 -1 35 -1 -34 -34 -71 -33 -124 -82 -124
-114 0 -23 19 -41 36 -34 11 4 14 -5 14 -35 0 -36 -6 -45 -52 -87 -29 -26 -72
-56 -94 -66 -23 -9 -45 -22 -48 -28 -12 -19 -36 -12 -46 14 -5 14 -19 38 -30
53 -19 26 -20 32 -8 77 9 34 32 74 72 123 67 85 94 156 101 271 l4 74 48 24
c26 12 60 23 75 23 15 0 30 5 33 10 6 10 31 7 92 -12z m1186 -9 c-40 -27 -53
-23 -19 6 17 13 34 21 39 18 5 -3 -4 -14 -20 -24z m1727 -5 c0 -14 -12 -19
-23 -8 -9 9 4 35 14 28 5 -3 9 -12 9 -20z m-1600 2 c0 -3 -4 -8 -10 -11 -5 -3
-10 -1 -10 4 0 6 5 11 10 11 6 0 10 -2 10 -4z m1652 -11 c0 -5 -5 -11 -11 -13
-6 -2 -11 4 -11 13 0 9 5 15 11 13 6 -2 11 -8 11 -13z m-1737 -15 c0 -7 -10
-16 -22 -21 -26 -10 -28 -6 -11 21 14 22 33 22 33 0z m135 11 c0 -12 -20 -25
-27 -18 -7 7 6 27 18 27 5 0 9 -4 9 -9z m94 -26 c-7 -16 -24 -21 -24 -6 0 8 7
13 27 20 1 1 0 -6 -3 -14z m1473 -10 c-3 -6 6 -24 19 -38 28 -31 31 -55 7 -73
-26 -19 -36 -17 -30 6 3 11 1 23 -5 26 -7 4 -6 9 2 14 9 6 9 13 1 28 -14 27
-14 65 0 57 6 -4 8 -13 6 -20z m666 -14 c-5 -33 -2 -40 15 -45 10 -4 32 -2 47
4 25 9 27 14 20 46 -5 31 -4 35 12 32 15 -3 18 -14 18 -73 0 -69 0 -70 -27
-73 -20 -2 -28 1 -28 12 0 20 -9 20 -24 2 -14 -17 -56 -4 -56 18 0 7 -7 17
-16 20 -21 8 -11 54 18 79 11 9 22 17 23 17 2 0 1 -18 -2 -39z m-2543 15 c0
-3 -4 -8 -10 -11 -5 -3 -10 -1 -10 4 0 6 5 11 10 11 6 0 10 -2 10 -4z m75 -6
c14 11 17 10 22 -8 4 -18 9 -20 25 -11 17 9 19 8 16 -8 -2 -10 -13 -22 -26
-28 -14 -6 -21 -17 -20 -30 2 -15 -4 -21 -22 -23 -20 -3 -23 -1 -12 9 16 18
15 29 -4 29 -11 0 -14 6 -9 20 5 14 2 20 -9 20 -9 0 -16 -6 -16 -12 0 -7 -3
-23 -6 -35 -5 -18 -2 -23 12 -24 11 0 14 -3 8 -5 -6 -3 -23 0 -39 6 -26 10
-27 12 -11 29 9 9 16 26 16 37 0 30 19 45 40 31 14 -8 22 -8 35 3z m708 -51
c-8 -8 -15 -4 -26 12 -22 31 -9 46 16 20 15 -15 18 -24 10 -32z m1227 -12 c0
-3 -10 -4 -23 -3 -18 1 -24 7 -24 27 l0 27 24 -24 c13 -13 23 -25 23 -27z
m-1825 33 c-3 -5 -10 -10 -16 -10 -5 0 -9 5 -9 10 0 6 7 10 16 10 8 0 12 -4 9
-10z m1939 -10 c19 0 19 -1 1 -20 -10 -11 -21 -17 -24 -13 -3 5 -12 8 -18 9
-46 4 -46 4 -22 23 15 12 28 16 34 10 5 -5 18 -9 29 -9z m147 -44 c-17 -18
-31 -37 -31 -44 0 -7 -5 -12 -11 -12 -5 0 -2 13 8 30 9 17 21 30 25 30 4 0 8
6 8 13 0 19 24 41 28 27 3 -7 -10 -26 -27 -44z m-2960 33 c48 -17 80 -58 66
-84 -6 -11 -11 -54 -12 -95 0 -41 -4 -87 -9 -101 -6 -22 -4 -27 13 -32 12 -3
26 -19 32 -37 7 -20 16 -29 25 -26 7 3 24 -1 38 -7 21 -11 22 -15 10 -31 -12
-17 -17 -17 -44 -6 -17 7 -48 10 -70 7 -33 -4 -41 -1 -54 18 -27 42 -29 72 -8
118 11 24 23 59 27 78 5 30 1 39 -37 80 -24 26 -60 52 -80 60 -44 15 -48 26
-14 39 13 5 27 14 31 19 8 14 43 14 86 0z m599 -29 c0 -20 -5 -30 -15 -30 -8
0 -15 5 -15 10 0 6 5 10 10 10 6 0 10 9 10 20 0 11 2 20 5 20 3 0 5 -13 5 -30z
m461 0 c-13 -11 -30 -20 -38 -20 -17 0 -94 -51 -141 -95 l-33 -30 -36 20 c-47
26 -52 42 -16 56 15 5 50 25 78 42 46 30 84 39 190 45 19 1 18 0 -4 -18z
m2024 -6 c30 -28 28 -42 -3 -25 -21 11 -52 5 -52 -10 0 -14 37 -29 54 -23 9 3
16 2 16 -4 0 -5 -7 -12 -15 -16 -8 -3 -15 -9 -14 -13 4 -26 -4 -24 -21 5 -12
20 -25 30 -32 26 -8 -5 -9 -2 -5 10 4 10 7 24 7 31 0 12 26 45 34 45 2 0 15
-11 31 -26z m-2450 7 c3 -5 1 -12 -5 -16 -5 -3 -10 1 -10 9 0 18 6 21 15 7z
m2067 -23 c-7 -7 -12 -8 -12 -2 0 14 12 26 19 19 2 -3 -1 -11 -7 -17z m-1292
2 c0 -5 -7 -10 -15 -10 -8 0 -15 5 -15 10 0 6 7 10 15 10 8 0 15 -4 15 -10z
m-230 -20 c0 -5 -7 -10 -15 -10 -8 0 -15 5 -15 10 0 6 7 10 15 10 8 0 15 -4
15 -10z m1505 -10 c-3 -5 -12 -10 -18 -10 -7 0 -6 4 3 10 19 12 23 12 15 0z
m135 -20 c0 -5 -5 -10 -11 -10 -5 0 -7 5 -4 10 3 6 8 10 11 10 2 0 4 -4 4 -10z
m-2933 -6 c12 -3 34 -24 49 -45 l27 -39 -22 -56 c-11 -31 -21 -69 -21 -85 0
-17 -7 -33 -19 -40 -11 -7 -16 -20 -14 -30 8 -29 -46 -75 -96 -84 -29 -5 -41
-11 -37 -20 3 -8 -9 -20 -30 -30 -19 -9 -34 -20 -34 -25 0 -20 -64 -41 -133
-44 -43 -1 -85 -9 -104 -19 -40 -21 -115 -22 -154 -2 l-30 16 30 25 c16 13 45
31 65 39 19 8 65 42 101 76 64 61 65 62 65 114 0 58 10 74 62 101 18 10 28 21
26 32 -2 10 9 26 29 40 23 15 33 31 33 48 0 22 4 25 27 22 25 -3 29 -9 42 -67
16 -77 7 -102 -44 -129 -29 -14 -34 -21 -23 -29 22 -17 77 4 99 40 16 26 19
41 13 77 -14 96 -7 120 38 120 18 0 43 -3 55 -6z m1233 -10 c0 -2 -7 -4 -15
-4 -8 0 -15 4 -15 10 0 5 7 7 15 4 8 -4 15 -8 15 -10z m2224 -2 c8 -29 6 -147
-3 -160 -7 -11 -12 -11 -28 -1 -44 27 -79 -17 -44 -55 27 -29 27 -36 -3 -36
-18 0 -26 6 -28 21 -7 46 -70 51 -96 8 -12 -18 -11 -24 7 -43 26 -27 26 -36 4
-36 -20 0 -81 -21 -102 -34 -15 -10 -31 8 -31 36 0 9 -4 20 -10 23 -5 3 -10
17 -10 31 0 36 -36 67 -68 59 -15 -4 -34 -13 -43 -21 -15 -13 -17 -11 -22 23
-3 21 -9 48 -13 61 -5 18 -3 22 17 22 13 0 55 -11 93 -25 76 -28 160 -32 246
-14 80 17 98 79 38 131 l-31 27 61 0 c48 -1 62 -4 66 -17z m-181 -26 c16 -12
16 -15 2 -29 -10 -11 -12 -18 -4 -23 8 -4 7 -9 -2 -15 -27 -17 -41 -10 -35 15
3 14 2 27 -4 31 -12 7 -1 35 14 35 6 0 19 -7 29 -14z m-430 -31 c52 -26 51
-30 -6 -40 -26 -5 -37 -4 -37 5 0 7 -15 26 -32 42 l-33 31 31 -7 c16 -4 51
-17 77 -31z m257 20 c0 -8 -3 -15 -6 -15 -3 0 -12 7 -20 15 -14 13 -13 15 5
15 12 0 21 -6 21 -15z m-410 -21 c22 -9 45 -26 51 -37 11 -20 11 -20 -24 1
-19 12 -41 22 -48 22 -8 1 -27 7 -44 15 l-30 13 27 1 c15 1 46 -6 68 -15z
m-2326 -60 c27 -6 28 -9 23 -49 -2 -24 -1 -49 4 -57 6 -9 9 -7 9 10 0 12 6 22
14 22 9 0 12 7 9 20 -4 14 0 20 11 20 12 0 15 -6 10 -24 -7 -29 24 -46 42 -22
12 16 34 22 34 9 0 -5 -7 -17 -15 -27 -8 -11 -15 -27 -15 -37 0 -26 -22 -38
-81 -45 -30 -3 -62 -10 -71 -15 -23 -12 -28 -11 -28 6 0 8 5 15 10 15 6 0 10
7 10 15 0 8 4 15 9 15 24 0 18 32 -12 60 -33 31 -59 42 -37 15 11 -13 9 -15
-13 -15 -14 0 -28 7 -31 16 -8 20 -8 82 0 111 6 21 6 21 48 -7 23 -16 54 -32
70 -36z m2841 46 c3 -5 -1 -10 -9 -10 -9 0 -16 5 -16 10 0 6 4 10 9 10 6 0 13
-4 16 -10z m-556 -42 l34 -10 -59 -32 c-39 -21 -68 -45 -87 -73 -46 -70 -63
-54 -22 20 19 35 35 70 35 78 0 37 22 40 99 17z m-3009 -17 c-19 -16 -37 -27
-40 -24 -7 6 48 53 63 53 6 0 -4 -13 -23 -29z m3272 -27 c4 -16 5 -43 2 -60
-6 -32 7 -53 48 -75 20 -11 20 -11 -3 -23 -13 -6 -29 -27 -35 -46 -11 -33 -15
-35 -64 -42 -87 -10 -94 -42 -13 -54 l46 -7 -37 -12 c-45 -16 -50 -20 -43 -39
3 -8 25 -17 49 -21 35 -6 39 -9 23 -16 -11 -4 -36 -8 -55 -8 -29 0 -39 6 -62
38 -19 28 -35 40 -60 44 -18 3 -50 11 -70 18 -47 17 -75 71 -77 150 -2 53 0
58 33 87 59 51 146 63 146 20 0 -5 9 -19 20 -31 27 -28 50 -15 68 39 13 40 47
77 65 71 6 -2 14 -17 19 -33z m-2355 -1 c-14 -14 -20 -15 -44 -3 l-28 14 40 6
c49 7 54 4 32 -17z m1043 -21 c0 -4 16 -32 35 -62 35 -55 35 -55 13 -61 -15
-4 -29 0 -39 10 -18 18 -34 121 -19 121 6 0 10 -4 10 -8z m1458 -82 c-1 -16 5
-36 12 -45 10 -12 10 -15 -3 -15 -9 0 -28 5 -43 10 -24 10 -25 12 -12 28 8 9
18 25 21 35 10 27 26 20 25 -13z m373 -73 c-28 -28 -122 -45 -151 -27 -20 12
-8 22 63 50 31 13 65 32 75 43 16 19 17 18 20 -18 2 -21 -1 -42 -7 -48z m-927
-1 c-7 -17 -64 -30 -78 -16 -9 9 0 14 54 32 20 7 30 0 24 -16z m21 -77 c10
-30 -3 -39 -87 -53 -55 -10 -90 -10 -131 -3 -32 6 -57 13 -57 16 1 16 100 50
149 50 30 1 57 4 60 6 2 3 17 5 32 5 19 0 30 -6 34 -21z m-972 -34 c-3 -9 -8
-14 -10 -11 -3 3 -2 9 2 15 9 16 15 13 8 -4z m406 -31 c4 -4 -48 -28 -64 -28
-5 -1 -16 -8 -22 -16 -10 -12 -12 -7 -8 30 2 25 4 46 4 46 1 3 86 -27 90 -32z
m1258 10 c-3 -3 -12 -4 -19 -1 -8 3 -5 6 6 6 11 1 17 -2 13 -5z m-1121 -29
c-3 -8 0 -15 7 -15 7 0 37 -12 67 -26 l54 -25 -29 -25 c-39 -32 -75 -49 -100
-48 -11 1 -29 2 -40 3 -18 2 -19 2 -2 12 20 12 23 49 5 67 -7 7 -28 12 -47 12
l-36 1 28 15 c15 8 27 21 27 29 0 11 11 15 36 15 28 0 35 -3 30 -15z m364 -17
c-10 -4 -63 -10 -117 -13 -73 -4 -103 -3 -116 7 -14 11 4 13 117 13 74 0 126
-3 116 -7z m190 -24 c0 -8 -4 -14 -9 -14 -11 0 -22 26 -14 34 9 9 23 -3 23
-20z m545 6 c-3 -5 -15 -10 -26 -10 -10 0 -19 5 -19 10 0 6 12 10 26 10 14 0
23 -4 19 -10z m52 4 c-3 -3 -12 -4 -19 -1 -8 3 -5 6 6 6 11 1 17 -2 13 -5z
m-128 -8 c-11 -9 -69 -14 -69 -6 0 6 17 10 37 10 20 0 34 -2 32 -4z m-1106
-53 c-7 -2 -19 -2 -25 0 -7 3 -2 5 12 5 14 0 19 -2 13 -5z m1007 -3 c0 -5 -4
-10 -9 -10 -6 0 -13 5 -16 10 -3 6 1 10 9 10 9 0 16 -4 16 -10z m67 4 c-3 -3
-12 -4 -19 -1 -8 3 -5 6 6 6 11 1 17 -2 13 -5z"/>
<path d="M2510 6629 c0 -5 5 -7 10 -4 6 3 10 8 10 11 0 2 -4 4 -10 4 -5 0 -10
-5 -10 -11z"/>
<path d="M2546 6584 c-5 -14 -4 -15 9 -4 17 14 19 20 6 20 -5 0 -12 -7 -15
-16z"/>
<path d="M2670 6428 c0 -7 4 -19 9 -27 7 -11 10 -11 17 0 15 25 13 39 -7 39
-10 0 -19 -6 -19 -12z"/>
<path d="M3120 6491 c0 -7 -6 -11 -13 -8 -7 3 -22 -2 -32 -10 -17 -12 -18 -15
-5 -23 11 -7 16 -5 18 5 2 8 10 15 17 15 16 0 30 18 21 27 -3 4 -6 1 -6 -6z"/>
<path d="M3100 6400 c0 -5 5 -10 10 -10 6 0 10 5 10 10 0 6 -4 10 -10 10 -5 0
-10 -4 -10 -10z"/>
<path d="M3093 6293 c-4 -10 -11 -21 -16 -24 -6 -4 -5 -9 0 -12 6 -4 20 7 32
23 18 25 19 30 6 30 -9 0 -19 -8 -22 -17z"/>
<path d="M3096 6044 c-14 -36 9 -49 35 -18 10 13 10 17 -2 25 -20 12 -26 11
-33 -7z"/>
<path d="M3050 6030 c0 -5 5 -10 11 -10 5 0 7 5 4 10 -3 6 -8 10 -11 10 -2 0
-4 -4 -4 -10z"/>
<path d="M3255 6010 c-10 -11 -14 -20 -9 -20 12 1 44 25 44 34 0 12 -17 6 -35
-14z"/>
<path d="M2990 5990 c0 -5 5 -10 10 -10 6 0 10 5 10 10 0 6 -4 10 -10 10 -5 0
-10 -4 -10 -10z"/>
<path d="M3933 5624 c-3 -9 0 -20 8 -24 7 -5 23 -28 34 -51 20 -43 49 -69 61
-56 12 12 -17 91 -44 120 -29 31 -50 35 -59 11z"/>
<path d="M4164 5555 c-7 -17 12 -45 31 -45 21 0 25 27 6 44 -22 20 -30 20 -37
1z"/>
<path d="M3887 5192 c-9 -10 -17 -26 -17 -36 0 -14 4 -14 30 6 29 21 34 38 14
45 -6 2 -18 -5 -27 -15z"/>
<path d="M775 5841 c-17 -4 -30 -13 -30 -21 0 -12 12 -14 57 -12 37 3 66 -1
85 -11 15 -9 35 -18 44 -20 12 -4 15 -13 12 -31 -7 -32 16 -35 43 -5 25 28 10
48 -57 75 -63 25 -112 33 -154 25z"/>
<path d="M2393 5048 c2 -7 8 -24 12 -38 8 -25 7 -25 -13 -7 -29 26 -38 4 -15
-36 23 -38 59 -51 50 -18 -3 14 0 21 8 21 25 0 26 19 3 54 -22 34 -56 51 -45
24z"/>
<path d="M3230 5505 c0 -9 5 -15 11 -13 6 2 11 8 11 13 0 5 -5 11 -11 13 -6 2
-11 -4 -11 -13z"/>
<path d="M3417 5254 c6 -16 19 -18 27 -5 3 5 -3 11 -13 14 -14 3 -18 1 -14 -9z"/>
<path d="M3277 4931 c-22 -22 -27 -33 -22 -54 4 -15 10 -27 14 -27 12 1 49 35
66 62 32 51 -10 65 -58 19z"/>
<path d="M3297 4833 c-10 -9 -9 -81 2 -87 16 -10 39 19 44 57 5 33 4 37 -17
37 -12 0 -26 -3 -29 -7z"/>
<path d="M3305 4720 c-10 -16 -18 -179 -18 -347 0 -108 3 -137 17 -158 21 -31
43 -28 37 6 -5 32 -6 305 -1 402 3 61 0 81 -12 93 -12 12 -17 13 -23 4z"/>
<path d="M564 5328 c-28 -63 -49 -97 -65 -105 -14 -8 -64 -13 -121 -13 -58 0
-99 -4 -104 -11 -8 -14 39 -63 104 -107 30 -19 56 -41 59 -48 4 -12 -25 -91
-68 -179 -10 -22 -19 -43 -19 -47 0 -20 38 -3 131 59 l100 67 32 -19 c18 -10
43 -28 57 -39 49 -43 142 -97 156 -92 23 9 17 43 -26 153 -23 57 -38 108 -35
114 4 5 43 31 87 56 127 74 121 88 -42 100 l-114 8 -12 35 c-7 19 -17 55 -24
80 -28 106 -45 104 -96 -12z m60 -40 c14 -53 2 -71 -33 -49 -12 8 -12 14 -1
40 15 37 25 39 34 9z m6 -118 c23 0 32 -8 49 -40 11 -22 18 -45 15 -52 -3 -7
-26 -26 -51 -41 -50 -30 -69 -28 -121 11 l-23 18 19 49 c19 47 43 68 70 59 8
-2 26 -4 42 -4z m-147 -6 c6 -7 -19 -64 -28 -64 -10 0 -75 45 -75 52 0 4 19 9
43 11 23 2 45 4 48 5 3 1 8 -1 12 -4z m312 -3 c3 -5 -5 -17 -17 -25 -19 -14
-24 -14 -36 -2 -8 8 -11 19 -8 25 9 13 53 15 61 2z m-57 -188 c27 -76 29 -85
17 -89 -12 -5 -115 83 -115 97 0 9 58 49 71 49 4 0 16 -26 27 -57z m-219 18
l23 -18 -44 -36 c-66 -54 -71 -50 -38 27 12 25 24 46 28 46 4 0 18 -9 31 -19z"/>
<path d="M1186 4791 c-3 -5 1 -11 9 -15 8 -3 15 -1 15 4 0 13 -18 22 -24 11z"/>
<path d="M1120 4710 c0 -5 5 -10 10 -10 6 0 10 5 10 10 0 6 -4 10 -10 10 -5 0
-10 -4 -10 -10z"/>
<path d="M1260 4470 c0 -5 5 -10 10 -10 6 0 10 5 10 10 0 6 -4 10 -10 10 -5 0
-10 -4 -10 -10z"/>
<path d="M760 4552 c0 -6 6 -12 13 -15 9 -3 8 -12 -5 -34 -21 -36 -12 -51 12
-21 12 15 15 30 11 47 -7 24 -31 42 -31 23z"/>
<path d="M835 4530 c-3 -5 -1 -10 4 -10 6 0 11 5 11 10 0 6 -2 10 -4 10 -3 0
-8 -4 -11 -10z"/>
<path d="M685 4500 c-8 -13 20 -24 40 -16 8 3 15 11 15 17 0 8 -4 8 -15 -1
-10 -9 -15 -9 -15 -1 0 14 -17 14 -25 1z"/>
<path d="M801 4469 c-19 -44 1 -61 23 -19 15 30 14 50 -2 50 -4 0 -13 -14 -21
-31z"/>
<path d="M670 4465 c0 -8 10 -20 23 -26 30 -16 37 -28 37 -67 0 -42 13 -35 30
18 15 45 12 53 -25 53 -15 0 -30 7 -36 18 -12 23 -29 25 -29 4z"/>
<path d="M846 4452 c-7 -12 3 -42 14 -42 16 0 18 15 5 33 -7 10 -16 14 -19 9z"/>
<path d="M675 4389 c5 -16 2 -22 -15 -26 -20 -5 -19 -8 16 -24 20 -11 39 -19
41 -19 10 0 1 40 -12 50 -8 7 -15 19 -15 26 0 8 -5 14 -11 14 -6 0 -8 -9 -4
-21z"/>
<path d="M795 4389 c-4 -6 -4 -13 -1 -16 3 -3 0 -13 -7 -21 -10 -13 -9 -15 4
-10 9 4 22 1 28 -5 16 -16 26 0 11 18 -14 17 0 21 17 4 8 -8 13 -8 17 0 4 6 1
11 -7 11 -8 0 -20 7 -27 15 -15 18 -26 19 -35 4z"/>
<path d="M3225 3823 c-3 -10 -7 -60 -7 -112 -1 -74 2 -95 14 -102 10 -6 20 -4
28 6 16 19 15 191 -1 211 -15 19 -25 18 -34 -3z"/>
<path d="M3875 3369 c-12 -19 5 -23 22 -6 16 16 16 17 1 17 -9 0 -20 -5 -23
-11z"/>
<path d="M1403 3998 c-5 -7 -19 -40 -32 -73 -40 -103 -62 -144 -79 -149 -9 -2
-60 -5 -112 -6 -52 0 -99 -5 -104 -10 -4 -4 5 -16 20 -26 92 -55 136 -86 140
-99 4 -10 -36 -105 -93 -217 -2 -3 4 -13 12 -22 19 -18 37 -13 86 26 20 15 39
28 42 28 3 0 29 16 57 35 52 35 53 35 79 18 14 -9 72 -44 129 -76 129 -74 138
-70 90 45 -67 159 -65 148 -37 169 13 10 52 35 86 54 132 78 124 99 -36 89
l-118 -7 -31 56 c-17 31 -36 76 -43 101 -13 52 -41 84 -56 64z m32 -135 c34
-81 33 -83 -24 -83 -28 0 -51 2 -51 5 0 17 43 115 51 115 5 0 16 -17 24 -37z
m61 -180 c6 -31 4 -33 -49 -59 l-55 -27 -41 34 c-69 57 -53 92 46 99 76 6 90
0 99 -47z m134 37 c-34 -26 -60 -34 -72 -22 -23 23 0 42 49 42 l48 0 -25 -20z
m-350 -10 c0 -4 -9 -10 -20 -13 -22 -6 -49 18 -28 25 17 6 48 -2 48 -12z m45
-130 c9 -10 15 -25 12 -32 -6 -17 -95 -63 -104 -54 -3 3 4 29 17 56 25 54 46
63 75 30z m223 -17 c16 -39 25 -83 18 -83 -10 0 -96 64 -96 71 0 10 41 39 56
39 6 0 16 -12 22 -27z"/>
<path d="M416 3872 c-12 -16 -16 -27 -9 -29 6 -2 9 -12 7 -21 -3 -11 4 -21 22
-29 25 -12 26 -11 20 15 -4 15 -7 39 -6 54 0 37 -11 41 -34 10z"/>
<path d="M536 3864 c-7 -28 0 -47 15 -39 12 8 12 52 0 59 -5 3 -12 -6 -15 -20z"/>
<path d="M480 3861 c0 -5 -3 -18 -6 -28 -6 -16 -5 -16 9 2 19 23 21 35 7 35
-5 0 -10 -4 -10 -9z"/>
<path d="M540 3784 c0 -17 17 -36 24 -26 3 5 -1 15 -9 22 -8 7 -15 9 -15 4z"/>
<path d="M470 3754 c0 -8 5 -12 10 -9 6 3 10 10 10 16 0 5 -4 9 -10 9 -5 0
-10 -7 -10 -16z"/>
<path d="M352 3603 c-27 -70 -23 -126 6 -90 8 9 14 117 6 117 -1 0 -6 -12 -12
-27z"/>
<path d="M642 3028 c-13 -17 -69 -146 -77 -178 -3 -14 -14 -36 -24 -49 -16
-21 -27 -24 -136 -30 -136 -7 -152 -18 -78 -54 78 -38 133 -76 133 -92 0 -9
-7 -32 -16 -53 -34 -77 -53 -135 -48 -143 10 -17 38 -8 115 36 128 74 115 74
230 -1 56 -36 108 -63 116 -60 17 7 9 61 -32 201 -5 17 11 28 115 80 118 58
146 83 121 108 -7 7 -45 10 -104 8 -187 -8 -180 -8 -194 19 -7 14 -22 59 -33
100 -12 41 -25 85 -30 98 -10 24 -42 29 -58 10z m60 -229 c-12 -11 -80 -20
-86 -11 -4 7 20 103 39 151 4 10 16 -13 30 -59 14 -41 21 -78 17 -81z m288
-38 c0 -8 -27 -21 -133 -62 l-47 -19 -12 25 c-7 16 -8 29 -2 35 5 5 47 13 94
18 47 5 88 10 93 11 4 0 7 -3 7 -8z m-254 -46 c22 -54 18 -63 -44 -94 l-59
-30 -41 25 c-47 28 -48 31 -28 79 15 35 27 41 96 48 19 2 41 5 48 5 7 1 20
-14 28 -33z m-258 19 c24 -7 31 -44 8 -44 -18 0 -76 32 -76 43 0 8 36 9 68 1z
m92 -164 c0 -6 -15 -19 -32 -30 -54 -33 -60 -26 -28 28 17 28 23 31 40 22 11
-6 20 -15 20 -20z m219 -37 c10 -29 16 -53 15 -53 -7 0 -114 71 -114 75 0 8
55 34 68 32 8 -1 21 -26 31 -54z"/>
<path d="M2067 2814 c-13 -22 -28 -50 -32 -64 -4 -14 -21 -48 -37 -76 l-28
-51 -102 -2 c-154 -2 -166 -30 -47 -101 38 -23 69 -46 69 -50 0 -12 -29 -80
-67 -154 -19 -37 -32 -74 -29 -81 6 -16 69 -4 94 18 22 19 162 87 180 87 16 0
93 -51 145 -97 66 -59 74 -45 42 76 -31 114 -31 119 0 131 39 15 195 120 195
131 0 14 -67 40 -98 38 -15 -1 -57 -1 -94 -1 -79 2 -82 5 -98 108 -9 54 -17
75 -39 98 l-29 29 -25 -39z m46 -186 c-2 -5 -22 -8 -44 -8 -44 0 -48 10 -20
55 10 17 24 48 32 70 l13 40 12 -75 c6 -41 10 -78 7 -82z m-180 -54 c8 -8 -15
-44 -28 -44 -5 0 -23 11 -40 25 l-30 24 46 1 c25 0 48 -3 52 -6z m165 0 c26
-7 52 -51 52 -89 0 -19 -8 -29 -35 -42 -34 -16 -34 -16 -90 20 -30 21 -55 40
-55 42 0 3 7 21 14 40 13 31 19 35 53 35 21 0 48 -3 61 -6z m232 -10 c7 -13
-98 -67 -115 -60 -9 3 -15 19 -15 39 l0 33 63 -2 c34 0 64 -5 67 -10z m-347
-150 c24 -21 27 -27 16 -40 -25 -30 -130 -72 -117 -46 8 15 35 78 41 95 9 23
27 21 60 -9z m214 -69 l6 -38 -34 24 c-19 13 -36 25 -39 27 -3 2 6 13 19 23
29 24 40 16 48 -36z"/>
<path d="M650 2125 c7 -9 15 -13 17 -11 7 7 -7 26 -19 26 -6 0 -6 -6 2 -15z"/>
<path d="M1160 2105 c0 -8 5 -15 10 -15 6 0 10 7 10 15 0 8 -4 15 -10 15 -5 0
-10 -7 -10 -15z"/>
<path d="M615 1880 c3 -5 8 -10 11 -10 2 0 4 5 4 10 0 6 -5 10 -11 10 -5 0 -7
-4 -4 -10z"/>
<path d="M770 1861 c0 -5 5 -13 10 -16 6 -3 10 -15 10 -26 0 -11 4 -18 9 -15
12 8 -2 59 -17 64 -7 2 -12 -1 -12 -7z"/>
<path d="M1033 1783 c-7 -2 -13 -12 -13 -20 0 -10 6 -13 16 -9 12 4 15 2 10
-9 -3 -8 -9 -22 -12 -30 -5 -11 1 -15 20 -15 36 0 46 40 17 69 -12 12 -22 21
-23 20 -2 0 -9 -3 -15 -6z"/>
<path d="M930 1759 c0 -5 -4 -8 -9 -5 -21 13 -44 -46 -27 -69 11 -16 14 -16
29 -1 14 14 22 86 10 86 -1 0 -3 -5 -3 -11z"/>
<path d="M2309 1518 c-4 -11 -7 -134 -2 -140 19 -32 53 75 38 121 -5 17 -31
30 -36 19z"/>
<path d="M1770 1848 c-11 -18 -25 -49 -31 -68 -7 -19 -24 -60 -40 -91 l-28
-57 -85 -7 c-47 -4 -93 -4 -104 -1 -11 4 -24 0 -31 -8 -10 -11 -2 -22 41 -59
29 -25 65 -56 80 -69 l28 -23 -36 -93 c-37 -98 -39 -119 -14 -134 14 -8 111
37 197 92 20 13 25 12 47 -5 48 -39 181 -141 195 -149 9 -6 18 -3 26 8 11 14
6 39 -30 144 -50 146 -51 140 45 191 33 18 73 44 90 58 47 39 28 48 -108 48
l-116 0 -23 65 c-12 36 -23 74 -23 85 -1 28 -37 105 -50 105 -6 0 -19 -15 -30
-32z m39 -120 c7 -35 14 -71 17 -80 5 -16 -2 -18 -50 -18 l-55 0 29 66 c17 36
30 72 30 80 0 8 4 14 9 14 4 0 14 -28 20 -62z m29 -147 c20 -12 42 -84 30 -98
-21 -26 -108 -74 -120 -67 -7 4 -29 20 -50 36 l-36 28 16 43 c8 23 19 47 23
52 9 13 120 18 137 6z m-202 -16 c4 -8 1 -22 -6 -30 -10 -12 -16 -11 -46 8
-18 12 -34 25 -34 30 0 15 80 7 86 -8z m384 6 c0 -5 -21 -19 -46 -32 -38 -18
-48 -19 -55 -8 -18 29 -9 38 44 42 28 2 53 4 55 5 1 1 2 -2 2 -7z m-330 -169
l23 -19 -37 -23 c-45 -27 -61 -18 -45 28 13 36 27 40 59 14z m245 -57 c15 -42
25 -79 22 -82 -6 -5 -147 94 -147 103 0 7 74 53 86 53 6 1 24 -33 39 -74z"/>
<path d="M3370 1709 c0 -5 5 -7 10 -4 6 3 10 8 10 11 0 2 -4 4 -10 4 -5 0 -10
-5 -10 -11z"/>
<path d="M3330 1660 c0 -6 -7 -10 -16 -8 -10 2 -19 -3 -21 -9 -5 -15 43 -18
52 -3 3 5 12 7 20 3 8 -3 15 -1 15 5 0 10 -23 22 -41 22 -5 0 -9 -5 -9 -10z"/>
<path d="M1194 1206 c-4 -10 -2 -22 4 -28 8 -8 13 -7 18 6 4 10 2 22 -4 28 -8
8 -13 7 -18 -6z"/>
<path d="M1300 1137 c0 -8 7 -20 15 -27 12 -10 15 -10 15 3 0 8 -7 20 -15 27
-12 10 -15 10 -15 -3z"/>
<path d="M3915 1410 c3 -5 8 -10 11 -10 2 0 4 5 4 10 0 6 -5 10 -11 10 -5 0
-7 -4 -4 -10z"/>
<path d="M3510 1479 c0 -5 5 -7 10 -4 6 3 10 8 10 11 0 2 -4 4 -10 4 -5 0 -10
-5 -10 -11z"/>
<path d="M2566 1373 c-6 -14 -5 -15 5 -6 7 7 10 15 7 18 -3 3 -9 -2 -12 -12z"/>
<path d="M2536 1251 c-4 -5 -2 -12 3 -15 5 -4 12 -2 15 3 4 5 2 12 -3 15 -5 4
-12 2 -15 -3z"/>
<path d="M510 1193 c-8 -2 -33 -41 -55 -86 l-40 -82 -94 -3 c-112 -3 -132 -14
-99 -49 12 -13 46 -38 75 -54 29 -17 53 -37 53 -46 0 -25 -50 -182 -61 -188
-17 -11 -10 -53 11 -60 23 -7 62 12 162 82 l77 54 88 -59 c121 -81 129 -85
153 -72 11 6 20 15 20 20 0 4 -21 52 -46 105 -25 53 -43 103 -40 110 3 8 38
32 79 55 144 78 136 97 -42 107 l-122 6 -42 81 c-42 80 -49 87 -77 79z m43
-120 c18 -47 15 -53 -29 -53 -38 0 -40 6 -20 55 19 45 30 44 49 -2z m-175
-108 c7 -34 -14 -38 -57 -11 -22 15 -41 29 -41 31 0 3 21 4 48 2 34 -3 48 -9
50 -22z m396 6 c3 -5 -14 -19 -39 -32 -44 -23 -45 -23 -59 -4 -23 30 -20 34
32 38 26 2 50 4 54 5 4 1 9 -2 12 -7z m-155 -40 c19 -37 19 -39 3 -54 -10 -9
-35 -23 -55 -32 -37 -15 -38 -15 -83 16 -55 37 -61 51 -40 84 15 23 23 25 86
25 l70 0 19 -39z m-165 -112 c14 -11 26 -24 26 -28 0 -4 -22 -17 -50 -28 -57
-24 -62 -17 -34 43 19 40 23 41 58 13z m230 -29 c17 -42 21 -70 10 -70 -14 0
-93 56 -94 65 0 10 47 44 61 45 4 0 14 -18 23 -40z"/>
<path d="M947 1196 c-15 -12 -15 -15 -2 -26 8 -7 22 -10 30 -6 13 4 14 10 5
26 -13 23 -10 23 -33 6z"/>
<path d="M3584 1029 c-10 -11 -39 -60 -64 -107 l-45 -87 -110 -5 c-131 -6
-141 -18 -52 -66 32 -17 67 -40 78 -51 l21 -20 -41 -85 c-22 -47 -43 -97 -47
-112 -5 -23 -3 -26 19 -26 14 0 49 16 78 35 30 19 58 35 64 35 6 0 27 12 48
26 21 14 46 26 55 26 9 1 60 -26 112 -58 110 -69 122 -75 140 -64 10 6 9 14
-4 36 -9 16 -27 67 -41 114 -28 99 -32 90 77 146 116 59 104 79 -49 79 l-106
0 -12 40 c-20 62 -75 165 -89 165 -7 0 -21 -9 -32 -21z m49 -124 c27 -56 23
-65 -28 -65 -36 0 -45 3 -45 18 0 20 36 82 48 82 5 0 16 -16 25 -35z m-183
-125 c0 -4 -6 -13 -14 -19 -10 -9 -21 -7 -45 6 -17 10 -31 20 -31 23 0 3 20 4
45 2 25 -2 45 -8 45 -12z m229 7 c6 -8 14 -27 17 -44 5 -27 2 -33 -41 -62 -25
-17 -49 -31 -53 -31 -18 0 -112 57 -112 68 0 7 7 26 15 42 14 27 20 29 83 33
37 2 70 4 73 5 4 1 12 -4 18 -11z m151 6 c0 -12 -61 -44 -71 -37 -15 9 -10 32
9 37 29 8 62 7 62 0z m-95 -159 c8 -20 15 -41 15 -46 0 -13 -48 -1 -79 19
l-25 16 28 23 c36 32 43 30 61 -12z m-225 6 l25 -20 -25 -20 c-31 -25 -90 -53
-96 -47 -6 6 22 75 37 94 15 18 29 16 59 -7z"/>
<path d="M4430 910 c0 -5 4 -10 9 -10 6 0 13 5 16 10 3 6 -1 10 -9 10 -9 0
-16 -4 -16 -10z"/>
<path d="M4510 880 c0 -5 7 -10 16 -10 8 0 12 5 9 10 -3 6 -10 10 -16 10 -5 0
-9 -4 -9 -10z"/>
<path d="M2280 629 c0 -5 5 -7 10 -4 6 3 10 8 10 11 0 2 -4 4 -10 4 -5 0 -10
-5 -10 -11z"/>
<path d="M2157 544 c-13 -13 -7 -24 14 -24 11 0 19 5 17 12 -5 14 -22 21 -31
12z"/>
<path d="M1324 636 c-10 -8 -16 -17 -13 -20 3 -3 14 1 25 8 10 8 16 17 13 20
-3 3 -14 -1 -25 -8z"/>
<path d="M1960 465 c-10 -12 -9 -15 8 -15 11 0 22 7 26 15 3 9 0 15 -8 15 -7
0 -19 -7 -26 -15z"/>
<path d="M0 5763 c0 -10 13 -31 30 -46 17 -16 30 -37 30 -48 0 -10 0 -22 0
-26 0 -18 -22 -6 -41 22 l-20 30 6 -40 c3 -22 8 -57 11 -77 4 -25 2 -38 -5
-38 -6 0 -11 -17 -11 -37 l0 -37 30 29 c19 18 30 39 30 55 0 15 11 39 25 54
43 46 31 86 -45 146 -34 27 -40 29 -40 13z"/>
<path d="M0 5351 l0 -63 27 7 c16 4 30 8 32 10 6 7 -18 57 -39 85 l-20 25 0
-64z"/>
<path d="M195 4749 c-10 -15 3 -25 16 -12 7 7 7 13 1 17 -6 3 -14 1 -17 -5z"/>
<path d="M233 4706 c7 -15 16 -21 21 -16 6 6 4 15 -4 25 -19 23 -29 18 -17 -9z"/>
<path d="M3 4165 c4 -36 12 -64 21 -71 9 -6 12 -15 7 -20 -10 -10 53 -114 69
-114 26 0 -8 93 -46 125 -6 6 -14 32 -18 60 -3 27 -13 56 -22 65 -15 14 -16
10 -11 -45z"/>
<path d="M2 3755 c0 -16 2 -22 5 -12 2 9 2 23 0 30 -3 6 -5 -1 -5 -18z"/>
<path d="M75 3740 c-3 -5 -1 -10 4 -10 6 0 11 5 11 10 0 6 -2 10 -4 10 -3 0
-8 -4 -11 -10z"/>
<path d="M55 3710 c-3 -5 -1 -10 4 -10 6 0 11 5 11 10 0 6 -2 10 -4 10 -3 0
-8 -4 -11 -10z"/>
<path d="M1 3404 c0 -11 3 -14 6 -6 3 7 2 16 -1 19 -3 4 -6 -2 -5 -13z"/>
<path d="M40 3397 c0 -1 -4 -17 -9 -35 -7 -25 -7 -32 2 -29 14 4 28 67 16 67
-5 0 -9 -1 -9 -3z"/>
<path d="M153 3235 c-3 -9 -3 -18 -1 -21 3 -3 8 4 11 16 6 23 -1 27 -10 5z"/>
<path d="M75 3220 c3 -5 8 -10 11 -10 2 0 4 5 4 10 0 6 -5 10 -11 10 -5 0 -7
-4 -4 -10z"/>
<path d="M1 3014 c0 -11 3 -14 6 -6 3 7 2 16 -1 19 -3 4 -6 -2 -5 -13z"/>
<path d="M0 2931 c0 -17 5 -31 10 -31 6 0 10 11 10 24 0 14 -4 28 -10 31 -6 4
-10 -7 -10 -24z"/>
<path d="M57 2853 c-4 -3 -7 -16 -7 -27 1 -21 1 -21 15 -2 8 11 15 23 15 28 0
10 -14 11 -23 1z"/>
<path d="M40 2771 c0 -6 5 -13 10 -16 6 -3 10 1 10 9 0 9 -4 16 -10 16 -5 0
-10 -4 -10 -9z"/>
<path d="M10 2290 c0 -5 4 -10 9 -10 6 0 13 5 16 10 3 6 -1 10 -9 10 -9 0 -16
-4 -16 -10z"/>
<path d="M226 2112 c-7 -12 4 -52 15 -52 12 0 12 47 0 55 -5 3 -12 2 -15 -3z"/>
<path d="M314 2067 c-7 -19 15 -72 25 -61 11 11 2 74 -10 74 -5 0 -12 -6 -15
-13z"/>
<path d="M135 2040 c-3 -5 -1 -10 4 -10 6 0 11 5 11 10 0 6 -2 10 -4 10 -3 0
-8 -4 -11 -10z"/>
<path d="M287 1953 c-11 -10 -8 -53 3 -53 6 0 10 14 10 30 0 31 -2 35 -13 23z"/>
<path d="M67 1923 c-4 -3 -7 -11 -7 -17 0 -6 5 -5 12 2 6 6 9 14 7 17 -3 3 -9
2 -12 -2z"/>
<path d="M4855 1729 c-4 -6 -5 -13 -2 -16 7 -7 27 6 27 18 0 12 -17 12 -25 -2z"/>
<path d="M198 1611 c-19 -17 -47 -35 -62 -41 -31 -11 -30 -33 0 -38 29 -4 119
58 119 82 0 31 -20 29 -57 -3z"/>
<path d="M267 1603 c-4 -3 -7 -15 -7 -25 0 -28 -50 -87 -92 -109 -39 -20 -49
-45 -23 -55 8 -4 27 2 43 11 l27 18 -25 -29 c-13 -16 -44 -50 -69 -76 -28 -30
-42 -52 -38 -62 12 -30 33 -16 108 70 104 122 104 121 89 139 -10 11 -10 18
-1 29 20 24 30 73 18 85 -13 13 -21 14 -30 4z"/>
<path d="M325 1600 c-3 -5 -1 -19 5 -30 21 -38 77 -53 100 -25 10 12 9 16 -6
22 -11 3 -31 15 -46 25 -29 20 -44 23 -53 8z"/>
<path d="M4645 1561 c-6 -11 9 -23 19 -14 9 9 7 23 -3 23 -6 0 -12 -4 -16 -9z"/>
<path d="M0 1467 c0 -39 41 -117 61 -117 17 0 3 72 -16 86 -8 6 -15 15 -15 21
0 5 -7 18 -15 29 -13 18 -14 17 -15 -19z"/>
<path d="M2818 613 c7 -3 16 -2 19 1 4 3 -2 6 -13 5 -11 0 -14 -3 -6 -6z"/>
<path d="M2738 538 c-6 -13 13 -48 26 -48 11 0 7 25 -7 44 -11 15 -15 16 -19
4z"/>
<path d="M1860 289 c0 -5 5 -7 10 -4 6 3 10 8 10 11 0 2 -4 4 -10 4 -5 0 -10
-5 -10 -11z"/>
<path d="M51 259 c-14 -5 -31 -7 -38 -5 -8 3 -13 -2 -13 -13 0 -16 5 -17 56
-7 39 7 64 6 85 -1 36 -14 47 0 17 21 -25 18 -70 20 -107 5z"/>
<path d="M2535 260 c-3 -5 -1 -10 4 -10 6 0 11 5 11 10 0 6 -2 10 -4 10 -3 0
-8 -4 -11 -10z"/>
<path d="M2930 219 c0 -5 5 -7 10 -4 6 3 10 8 10 11 0 2 -4 4 -10 4 -5 0 -10
-5 -10 -11z"/>
<path d="M0 182 c0 -10 6 -19 13 -19 6 0 41 -8 76 -17 40 -10 68 -13 74 -7 13
13 0 31 -22 31 -10 0 -35 7 -54 15 -51 21 -87 20 -87 -3z"/>
<path d="M2430 185 c0 -8 5 -15 10 -15 6 0 10 7 10 15 0 8 -4 15 -10 15 -5 0
-10 -7 -10 -15z"/>
<path d="M2820 150 c0 -5 5 -10 11 -10 5 0 7 5 4 10 -3 6 -8 10 -11 10 -2 0
-4 -4 -4 -10z"/>
<path d="M855 130 c-3 -5 1 -10 9 -10 9 0 16 5 16 10 0 6 -4 10 -9 10 -6 0
-13 -4 -16 -10z"/>
<path d="M2750 130 c0 -5 10 -10 23 -10 18 0 19 2 7 10 -19 13 -30 13 -30 0z"/>
<path d="M3235 130 c-19 -8 -19 -9 3 -9 12 -1 22 4 22 9 0 6 -1 10 -2 9 -2 0
-12 -4 -23 -9z"/>
<path d="M963 99 c-14 -14 -4 -59 13 -59 9 0 14 12 14 35 0 36 -8 43 -27 24z"/>
<path d="M0 69 c0 -25 4 -29 26 -29 20 0 25 4 20 16 -5 13 -1 15 24 12 38 -6
40 8 3 16 -75 16 -73 17 -73 -15z"/>
<path d="M773 87 c-38 -13 -43 -27 -10 -27 38 0 67 12 67 26 0 16 -11 16 -57
1z"/>
<path d="M516 71 c-21 -23 -20 -41 2 -41 21 0 42 18 42 36 0 20 -27 24 -44 5z"/>
<path d="M659 53 c-13 -15 -12 -15 9 -4 23 12 28 21 13 21 -5 0 -15 -7 -22
-17z"/>
<path d="M2278 63 c7 -3 16 -2 19 1 4 3 -2 6 -13 5 -11 0 -14 -3 -6 -6z"/>
<path d="M913 41 c-23 -19 -31 -41 -15 -41 5 0 18 13 30 30 25 34 18 39 -15
11z"/>
<path d="M2100 56 c0 -9 30 -14 35 -6 4 6 -3 10 -14 10 -12 0 -21 -2 -21 -4z"/>
<path d="M430 40 c-9 -6 -10 -10 -3 -10 6 0 15 5 18 10 8 12 4 12 -15 0z"/>
<path d="M1029 34 c-16 -19 -7 -26 26 -22 26 3 26 3 6 20 -17 14 -21 15 -32 2z"/>
<path d="M2000 39 c0 -5 5 -7 10 -4 6 3 10 8 10 11 0 2 -4 4 -10 4 -5 0 -10
-5 -10 -11z"/>
<path d="M614 20 c0 -23 21 -27 29 -6 5 11 -11 26 -27 26 -1 0 -2 -9 -2 -20z"/>
<path d="M705 30 c-3 -6 1 -7 9 -4 18 7 21 14 7 14 -6 0 -13 -4 -16 -10z"/>
<path d="M554 21 c4 -5 0 -12 -6 -14 -7 -3 -1 -6 13 -6 16 -1 26 4 26 14 0 8
-9 15 -19 15 -11 0 -17 -4 -14 -9z"/>
<path d="M957 24 c-11 -11 3 -24 18 -18 8 4 12 10 9 15 -6 11 -18 12 -27 3z"/>
<path d="M1845 20 c-3 -5 -2 -10 4 -10 5 0 13 5 16 10 3 6 2 10 -4 10 -5 0
-13 -4 -16 -10z"/>
<path d="M2173 15 c0 -8 8 -15 17 -15 9 0 17 7 17 15 0 8 -8 15 -17 15 -9 0
-17 -7 -17 -15z"/>
<path d="M2233 15 c0 -8 6 -15 13 -15 6 0 14 7 18 15 3 10 -1 15 -13 15 -10 0
-18 -7 -18 -15z"/>
<path d="M2328 23 c7 -3 16 -2 19 1 4 3 -2 6 -13 5 -11 0 -14 -3 -6 -6z"/>
<path d="M1668 13 c7 -3 16 -2 19 1 4 3 -2 6 -13 5 -11 0 -14 -3 -6 -6z"/>
<path d="M733 3 c9 -2 23 -2 30 0 6 3 -1 5 -18 5 -16 0 -22 -2 -12 -5z"/>
<path d="M2357 3 c18 -2 50 -2 70 0 21 2 7 4 -32 4 -38 0 -55 -2 -38 -4z"/>
<path d="M2488 3 c12 -2 32 -2 45 0 12 2 2 4 -23 4 -25 0 -35 -2 -22 -4z"/>
<path d="M2918 3 c6 -2 18 -2 25 0 6 3 1 5 -13 5 -14 0 -19 -2 -12 -5z"/>
<path d="M2978 3 c7 -3 16 -2 19 1 4 3 -2 6 -13 5 -11 0 -14 -3 -6 -6z"/>
<path d="M3063 3 c9 -2 25 -2 35 0 9 3 1 5 -18 5 -19 0 -27 -2 -17 -5z"/>
</g>
</svg>
