<?xml version="1.0" standalone="no"?>
<!DOCTYPE svg PUBLIC "-//W3C//DTD SVG 20010904//EN"
 "http://www.w3.org/TR/2001/REC-SVG-20010904/DTD/svg10.dtd">
<svg version="1.0" xmlns="http://www.w3.org/2000/svg"
 width="500.000000pt" height="878.000000pt" viewBox="0 0 500.000000 878.000000"
 preserveAspectRatio="xMidYMid meet">
<metadata>
Created by potrace 1.15, written by Peter Selinger 2001-2017
</metadata>
<g transform="translate(0.000000,878.000000) scale(0.100000,-0.100000)"
fill="#000000" stroke="none">
<path d="M4061 8753 c23 -60 -23 -114 -146 -171 -142 -65 -242 -173 -286 -308
-63 -192 -8 -400 143 -538 79 -72 148 -109 249 -135 38 -10 74 -22 80 -28 5
-5 12 -64 16 -131 5 -105 3 -122 -10 -122 -29 0 -173 -80 -224 -125 -117 -103
-197 -304 -178 -449 16 -115 97 -271 181 -347 39 -35 138 -90 199 -110 l50
-16 -1 -128 0 -128 -61 -23 c-172 -64 -309 -220 -358 -406 -20 -76 -17 -250 5
-303 70 -168 170 -280 306 -346 l82 -40 4 -47 c1 -26 2 -65 0 -88 -3 -38 -6
-42 -56 -66 -108 -53 -196 -150 -247 -270 -41 -94 -51 -232 -24 -323 43 -149
144 -277 270 -340 33 -17 61 -30 62 -30 1 0 4 -102 7 -228 l6 -227 -48 -24
c-205 -104 -322 -358 -267 -581 36 -147 135 -275 262 -343 l62 -33 0 -194 c-1
-108 -5 -195 -10 -195 -5 0 -9 6 -9 14 0 23 -21 31 -90 32 -36 0 -100 2 -143
3 l-78 1 6 54 c6 42 3 61 -13 92 -36 71 -78 91 -200 97 -39 2 -73 6 -73 8 -1
2 3 22 9 44 6 22 9 65 7 95 -8 130 -18 149 -78 153 -20 2 -40 6 -44 11 -4 4
-8 38 -8 74 0 66 0 67 -29 70 -15 2 -40 1 -53 -3 -24 -6 -25 -8 -19 -58 15
-110 22 -99 -79 -124 -49 -13 -99 -21 -110 -18 -11 2 -48 28 -82 57 -56 46
-63 56 -63 88 0 43 -27 89 -74 125 -22 17 -36 36 -36 49 0 12 -7 31 -15 43
-14 20 -13 24 11 48 22 22 25 32 21 63 -4 19 -1 55 5 79 9 37 8 49 -7 77 -17
31 -17 36 -3 67 9 19 33 86 54 149 43 130 55 150 95 150 36 0 76 18 84 38 9
24 -2 26 -15 3 -6 -12 -17 -21 -25 -21 -20 0 -20 49 1 78 21 31 44 28 44 -5 0
-32 15 -21 25 18 6 23 1 29 -39 53 -24 14 -53 26 -64 26 -10 0 -27 9 -37 20
-13 14 -31 20 -60 20 -22 0 -46 5 -51 10 -14 14 -70 1 -89 -20 -28 -31 -30
-91 -5 -122 12 -16 30 -28 41 -28 25 0 25 -2 -14 -101 -18 -46 -41 -112 -51
-146 -11 -35 -22 -63 -26 -63 -11 0 -30 48 -25 62 2 7 -7 31 -20 53 -28 46
-35 59 -65 135 -12 30 -31 65 -42 77 -26 28 -13 52 47 84 35 18 53 36 71 71
25 49 31 53 110 61 31 4 52 15 82 44 l41 40 -3 90 c-1 63 2 97 11 109 19 26
16 68 -7 89 -11 10 -20 25 -20 33 0 43 -62 99 -124 111 -24 5 -32 13 -34 34
-4 34 -67 87 -103 87 -15 0 -42 6 -60 14 -23 10 -39 11 -55 4 -14 -7 -28 -7
-40 0 -11 6 -48 8 -84 6 -78 -5 -133 -35 -187 -99 -32 -39 -42 -45 -75 -45
-46 0 -78 -28 -78 -68 0 -20 -7 -33 -25 -42 -43 -23 -67 -75 -59 -129 7 -49
37 -91 64 -91 9 0 29 -13 45 -30 28 -29 28 -30 10 -50 -15 -17 -29 -20 -83
-18 l-65 3 -21 -39 c-25 -48 -38 -53 -51 -24 -6 12 -21 25 -35 29 -15 3 -23
11 -21 20 3 8 5 28 5 44 1 26 -3 30 -29 33 -38 4 -65 -16 -79 -59 -9 -26 -18
-35 -45 -40 -30 -6 -80 -50 -81 -71 -1 -21 41 -4 61 23 23 33 34 30 44 -13 6
-23 4 -28 -11 -28 -44 0 -195 -98 -238 -155 -29 -37 -62 -53 -79 -36 -19 19
-46 12 -63 -15 -13 -19 -23 -24 -41 -19 -13 3 -42 1 -63 -5 -50 -13 -52 -37
-8 -70 l31 -23 -26 -19 c-15 -11 -27 -28 -27 -39 0 -14 -10 -20 -40 -25 -67
-11 -47 -28 23 -20 56 5 66 4 82 -14 16 -18 17 -23 5 -46 -8 -14 -25 -36 -38
-49 -34 -34 -61 -89 -87 -175 -20 -68 -25 -75 -51 -80 -19 -3 -33 -15 -42 -33
-7 -15 -19 -27 -27 -27 -8 0 -26 -11 -41 -24 -27 -23 -28 -24 -11 -50 12 -17
26 -26 44 -26 26 0 26 0 8 -21 -15 -16 -26 -19 -56 -14 -35 6 -69 -11 -69 -35
0 -17 21 -22 37 -8 19 15 85 18 95 3 5 -6 12 -5 20 3 6 6 15 12 19 12 10 0
-17 -100 -30 -113 -6 -6 -11 -25 -11 -42 0 -17 -4 -35 -9 -40 -14 -14 -51
-125 -51 -151 0 -12 -15 -40 -33 -61 -38 -47 -47 -73 -83 -253 -14 -74 -31
-146 -36 -159 -8 -24 -9 -24 -22 -5 -9 12 -17 76 -23 180 -8 140 -13 166 -32
198 -25 40 -40 46 -48 16 -3 -11 -9 -20 -14 -20 -11 0 -11 -4 1 60 11 55 5 95
-11 85 -5 -4 -9 -20 -9 -37 0 -34 -37 -98 -57 -98 -10 0 -13 -30 -13 -117 0
-65 -3 -142 -6 -171 -7 -51 -7 -52 -41 -52 -18 0 -41 4 -51 10 -9 5 -29 14
-43 19 -22 8 -26 16 -27 55 -1 25 3 55 10 66 15 24 10 29 -39 40 -32 8 -41 6
-60 -12 -13 -12 -23 -32 -23 -45 0 -18 -6 -23 -25 -23 -19 0 -26 7 -31 27 -10
49 -13 53 -36 53 -13 1 -34 7 -48 15 -40 23 -58 18 -65 -16 -6 -27 -2 -36 29
-68 20 -20 36 -41 36 -47 0 -6 -13 -20 -30 -32 -33 -25 -39 -47 -14 -56 9 -3
58 -6 111 -6 100 0 116 -11 60 -38 -39 -19 -34 -38 9 -33 13 2 28 -45 19 -59
-3 -6 -16 -5 -32 1 -14 5 -49 12 -76 14 -41 3 -57 11 -87 40 -36 35 -82 47
-95 25 -16 -26 -25 8 -25 91 l0 91 45 58 c25 32 45 63 45 69 0 25 -22 19 -60
-17 l-40 -40 0 -161 0 -162 30 16 c37 19 59 19 66 0 11 -26 68 -52 129 -58 33
-3 80 -15 104 -27 31 -16 53 -20 77 -15 43 8 55 -14 25 -46 -12 -13 -21 -28
-21 -35 0 -28 -40 -58 -99 -74 -60 -17 -62 -17 -87 2 -14 11 -35 21 -48 22
-21 1 -25 8 -29 48 -8 67 -22 88 -57 88 -17 0 -30 4 -30 8 0 8 -43 32 -55 32
-3 0 -5 -15 -5 -34 0 -43 24 -70 56 -62 27 7 31 -5 9 -24 -19 -16 -20 -60 -1
-60 17 0 28 -38 12 -43 -6 -2 -11 -17 -12 -33 0 -16 -4 -37 -8 -46 -5 -11 -1
-20 12 -27 16 -8 26 -6 47 11 20 15 29 18 38 9 6 -6 21 -11 33 -11 28 0 34 -9
23 -37 -8 -21 -13 -22 -109 -20 -88 2 -100 1 -100 -14 0 -15 11 -17 98 -14 53
2 116 -1 140 -7 31 -8 46 -7 56 1 20 16 173 12 188 -6 6 -7 8 -16 5 -19 -3 -3
-114 -5 -246 -5 -232 2 -241 1 -241 -17 0 -19 8 -20 168 -18 92 2 203 0 247
-3 l80 -6 0 -35 c0 -51 10 -60 68 -60 79 0 80 -3 58 -101 -10 -46 -30 -122
-44 -169 -14 -47 -42 -157 -62 -245 -20 -88 -41 -173 -46 -189 -18 -56 -12
-76 28 -93 40 -16 146 -15 162 3 5 5 28 76 50 159 23 82 45 153 49 157 5 5 42
3 84 -3 148 -24 193 28 223 261 8 61 42 179 57 195 6 6 153 11 391 13 210 1
398 3 417 4 103 4 157 -10 96 -26 -39 -10 -56 -34 -56 -80 0 -43 -4 -50 -77
-147 -18 -23 -33 -50 -33 -59 0 -20 104 -99 134 -102 11 -1 62 -2 111 -3 50
-1 115 -9 145 -18 30 -9 73 -21 94 -27 39 -12 76 -10 196 9 36 6 94 11 130 12
58 2 74 -3 146 -39 79 -40 132 -87 164 -147 11 -21 12 -34 0 -78 -27 -108 -4
-168 82 -211 43 -22 66 -26 135 -26 80 0 86 2 179 50 53 28 126 58 163 66 110
28 167 53 243 112 40 30 75 60 77 65 2 5 16 24 32 41 17 20 29 46 30 67 4 58
10 55 -171 75 -45 5 -68 1 -124 -20 -53 -20 -86 -26 -150 -26 l-82 0 -18 41
c-25 56 -97 79 -136 44 -16 -14 -21 -11 -61 41 -24 31 -58 72 -75 90 -18 19
-35 45 -38 59 -6 23 -44 94 -101 190 -13 22 -24 43 -25 47 -1 17 148 28 325
23 269 -7 479 -5 555 4 36 5 66 7 68 6 2 -1 -3 -30 -11 -64 -25 -106 12 -249
99 -386 82 -129 268 -224 441 -225 121 0 218 35 320 117 47 38 41 42 57 -37
14 -75 41 -157 55 -167 31 -24 91 -35 122 -22 l29 11 0 172 c0 146 -4 189 -26
291 -14 66 -30 156 -35 200 -5 44 -12 92 -15 108 -5 22 -3 26 10 21 9 -3 27
-3 41 0 l25 6 0 3780 0 3780 -337 0 c-186 0 -332 -4 -325 -8 21 -14 4 -40 -24
-34 -21 4 -24 1 -24 -25 0 -16 9 -39 20 -51 11 -12 20 -31 20 -42 0 -32 -37
-16 -80 33 -47 54 -50 60 -42 88 6 23 6 23 12 -6 8 -43 33 -39 41 8 l6 37
-108 0 -109 0 11 -27z m349 5 c0 -24 -12 -58 -20 -58 -13 0 -18 36 -8 54 11
19 28 21 28 4z m53 -18 c-7 -28 -13 -25 -13 6 0 14 4 23 9 20 5 -3 7 -15 4
-26z m186 -7 c19 -38 24 -84 37 -319 6 -106 5 -122 -10 -127 -10 -4 -16 -18
-16 -39 -1 -30 -2 -29 -20 20 -28 78 -66 140 -120 197 l-48 50 7 91 c6 68 13
100 30 127 21 34 26 37 72 37 46 0 50 -2 68 -37z m80 0 c5 -21 12 -126 14
-233 5 -196 13 -260 34 -267 8 -3 9 39 5 154 -11 290 -9 378 8 378 12 0 15
-23 17 -135 1 -74 5 -283 8 -465 4 -187 3 -354 -3 -385 -8 -48 -9 -37 -12 90
-1 80 -2 174 -1 210 1 36 -3 79 -9 95 -11 28 -12 29 -23 10 -7 -14 -10 -121
-8 -346 1 -180 -1 -339 -5 -353 -10 -41 -22 -30 -22 19 1 25 -4 51 -10 57 -6
6 -8 18 -3 27 7 13 11 155 13 431 1 83 -2 110 -11 110 -5 0 -12 -65 -16 -145
-6 -109 -11 -145 -20 -145 -8 0 -17 -15 -21 -32 -10 -46 -7 -345 5 -457 13
-123 2 -183 -29 -147 -9 11 -9 20 0 37 8 14 10 40 5 73 -8 56 -7 409 1 441 5
18 3 17 -14 -4 -16 -20 -21 -52 -30 -200 -6 -97 -9 -204 -7 -238 5 -62 -5 -80
-24 -45 -5 9 -7 133 -5 284 3 258 4 268 26 307 13 23 25 41 28 41 3 0 4 -20 2
-45 -5 -60 14 -59 29 1 7 25 18 48 25 51 11 4 14 34 14 133 0 92 4 131 13 138
20 17 15 459 -7 532 -8 30 -16 56 -16 58 0 1 9 2 20 2 14 0 22 -10 29 -37z
m157 -83 c1 -63 3 -213 5 -332 2 -119 0 -220 -4 -224 -4 -4 -7 -24 -7 -45 0
-30 3 -37 15 -33 11 5 15 -1 15 -21 0 -22 -3 -25 -20 -20 -13 4 -20 2 -20 -6
0 -7 -2 -10 -5 -7 -3 3 -7 186 -8 407 -2 357 -1 401 13 399 12 -3 15 -23 16
-118z m81 73 c-14 -108 -18 -514 -6 -547 11 -29 9 -38 -12 -73 l-24 -40 -3
344 c-1 189 0 349 3 354 4 5 15 9 27 9 19 0 20 -4 15 -47z m-853 -59 c8 -21
-1 -34 -23 -34 -25 0 -32 10 -20 31 12 23 35 25 43 3z m94 -30 c-10 -10 -28 6
-28 24 0 15 1 15 17 -1 9 -9 14 -19 11 -23z m210 -62 c22 -3 32 -22 12 -22
-14 0 -90 39 -90 46 0 3 5 2 10 -1 6 -4 16 8 23 27 l12 33 5 -40 c4 -32 10
-41 28 -43z m-100 -57 c105 -50 187 -134 227 -235 26 -65 30 -87 30 -170 -1
-188 -82 -319 -250 -403 -96 -47 -188 -57 -293 -31 -253 64 -406 321 -333 562
36 119 92 187 210 257 127 76 277 83 409 20z m649 -482 c-3 -10 -5 -4 -5 12 0
17 2 24 5 18 2 -7 2 -21 0 -30z m-313 -100 c-24 -17 -28 -10 -16 29 6 18 14
47 18 63 8 27 9 24 12 -25 2 -43 -1 -57 -14 -67z m231 -133 c8 0 18 12 21 27
7 25 8 25 21 7 7 -10 11 -24 9 -30 -3 -7 -1 -81 3 -166 5 -87 5 -157 0 -162
-5 -6 -9 0 -10 15 0 13 -3 35 -5 49 -3 14 -8 68 -12 120 -6 77 -10 95 -23 98
-11 2 -21 -7 -27 -25 -10 -26 -10 -24 -11 22 0 28 3 61 7 75 l7 25 3 -27 c2
-16 9 -28 17 -28z m-351 -72 c-3 -12 -6 -97 -6 -190 0 -94 -1 -168 -4 -166 -2
3 -6 51 -9 109 -3 57 -8 134 -11 170 -4 42 -2 75 6 88 14 26 33 17 24 -11z
m336 -44 c0 -8 -5 -12 -10 -9 -6 4 -8 11 -5 16 9 14 15 11 15 -7z m-400 -4 c0
-5 -4 -10 -10 -10 -5 0 -10 5 -10 10 0 6 5 10 10 10 6 0 10 -4 10 -10z m-41
-272 c1 -43 -8 -48 -28 -15 -20 31 -27 233 -9 254 11 14 15 -1 25 -93 6 -60
12 -126 12 -146z m35 227 c3 -8 1 -15 -4 -15 -6 0 -10 7 -10 15 0 8 2 15 4 15
2 0 6 -7 10 -15z m409 -128 c-1 -61 -5 -112 -8 -115 -3 -3 -5 55 -4 129 0 74
4 125 8 115 4 -11 6 -69 4 -129z m-49 -62 c6 -158 5 -178 -8 -162 -11 15 -15
56 -15 190 0 95 3 166 8 161 5 -5 12 -90 15 -189z m-481 118 c4 -32 10 -68 13
-80 9 -32 -8 -28 -29 6 -17 28 -24 111 -10 124 15 15 20 4 26 -50z m131 -63
c7 -126 17 -166 39 -164 12 1 17 -6 17 -22 0 -28 -5 -29 -55 -8 -35 14 -36 16
-20 34 15 16 15 30 5 135 -9 99 -7 147 5 133 1 -2 5 -50 9 -108z m-238 75 c4
-8 12 -15 20 -15 8 0 14 -9 14 -20 0 -11 -7 -20 -15 -20 -8 0 -15 9 -15 20 0
26 -27 37 -52 21 -23 -14 -33 -9 -25 14 8 20 66 20 73 0z m455 -28 c-8 -8 -11
-7 -11 4 0 20 13 34 18 19 3 -7 -1 -17 -7 -23z m-505 -117 c2 -39 -1 -70 -7
-70 -5 0 -9 19 -10 43 0 23 -4 51 -8 62 -8 19 6 51 17 40 3 -3 7 -37 8 -75z
m760 -27 c-6 -14 -9 -15 -16 -4 -11 19 -1 46 13 32 5 -5 7 -18 3 -28z m-656
-23 c20 -28 20 -30 3 -30 -11 0 -23 12 -30 30 -6 17 -7 30 -3 30 5 0 18 -13
30 -30z m58 5 c-3 -3 -9 2 -12 12 -6 14 -5 15 5 6 7 -7 10 -15 7 -18z m409
-27 c-3 -7 -5 -2 -5 12 0 14 2 19 5 13 2 -7 2 -19 0 -25z m-38 -66 c0 -13 -3
-20 -9 -17 -5 3 -9 27 -9 53 1 42 2 44 9 17 4 -16 8 -40 9 -53z m-279 -44
c190 -81 300 -236 301 -424 1 -122 -29 -217 -100 -315 -102 -140 -301 -213
-479 -175 -98 20 -186 71 -258 149 -142 152 -172 351 -81 537 60 122 224 242
352 258 86 10 201 -2 265 -30z m327 -15 c-3 -10 -5 -4 -5 12 0 17 2 24 5 18 2
-7 2 -21 0 -30z m110 15 c-3 -8 -6 -5 -6 6 -1 11 2 17 5 13 3 -3 4 -12 1 -19z
m-148 -89 c-2 -50 -16 -56 -20 -9 -4 44 1 71 11 65 6 -4 10 -29 9 -56z m231
-214 c4 -101 -1 -181 -9 -160 -5 11 -9 97 -10 191 -1 95 -4 181 -6 193 -2 12
-1 30 3 39 6 15 16 -104 22 -263z m-81 198 c-1 -44 -3 -51 -8 -28 -6 29 -3 85
5 85 2 0 3 -26 3 -57z m-99 37 c0 -5 -4 -10 -10 -10 -5 0 -10 5 -10 10 0 6 5
10 10 10 6 0 10 -4 10 -10z m4 -145 c6 -38 6 -39 -7 -15 -7 14 -11 33 -9 43 6
23 8 20 16 -28z m111 -170 c-2 -44 -3 -108 -3 -143 -1 -39 -7 -70 -16 -84 -18
-25 -21 -64 -6 -73 14 -9 12 -22 -4 -28 -9 -3 -21 4 -31 19 -13 20 -13 28 -3
47 6 12 13 36 14 52 1 17 5 62 9 100 7 75 11 149 15 260 l3 70 12 -70 c6 -38
11 -106 10 -150z m-67 -60 c-4 -119 -9 -150 -27 -187 -11 -24 -21 -54 -21 -66
0 -23 -18 -39 -30 -26 -4 5 6 43 23 84 30 71 32 82 32 211 0 112 2 136 14 131
11 -4 13 -32 9 -147z m119 -92 c-3 -10 -5 -4 -5 12 0 17 2 24 5 18 2 -7 2 -21
0 -30z m0 -130 c26 -39 9 -45 -20 -8 -25 31 -27 38 -15 52 12 15 13 14 17 -3
2 -10 10 -28 18 -41z m-18 -107 l-1 -31 -13 35 c-19 49 -19 71 0 46 8 -11 15
-34 14 -50z m-99 -28 c0 -11 -6 -15 -20 -11 -15 4 -20 0 -20 -13 0 -10 -8 -27
-19 -38 -35 -39 -51 -105 -48 -194 5 -105 -9 -117 -18 -16 -9 94 13 195 50
234 14 14 25 32 25 39 0 7 5 21 11 32 10 20 11 20 24 2 8 -10 15 -25 15 -35z
m-100 15 c0 -14 -7 -34 -15 -43 -8 -9 -21 -34 -29 -56 -11 -30 -15 -34 -15
-16 -1 13 6 39 15 58 9 19 14 37 11 41 -8 8 11 43 23 43 6 0 10 -12 10 -27z
m160 -67 c-1 -39 -3 -47 -11 -34 -13 22 -28 106 -20 113 13 14 31 -32 31 -79z
m51 -38 c-8 -18 -10 -12 -9 32 0 50 1 52 9 23 6 -19 5 -40 0 -55z m-296 20
c-11 -57 -16 -68 -26 -63 -15 10 -10 57 8 77 23 25 26 23 18 -14z m195 -21 c0
-14 -11 -28 -31 -39 -30 -18 -30 -18 -23 5 9 30 37 66 47 60 4 -2 7 -14 7 -26z
m-250 -109 c1 -57 3 -150 5 -207 3 -68 1 -101 -5 -95 -9 9 -21 141 -24 266 -1
58 -23 79 -28 26 -2 -18 0 -82 3 -143 6 -119 4 -132 -16 -115 -10 8 -13 45
-13 141 1 71 -2 132 -6 136 -12 12 -6 51 10 63 13 11 16 10 21 -8 8 -32 23
-27 23 8 0 20 5 30 15 30 12 0 15 -18 15 -102z m293 -160 c-8 -38 -17 -68 -20
-68 -3 0 -3 33 1 73 4 39 8 88 10 107 9 127 9 127 17 40 5 -63 3 -103 -8 -152z
m54 200 c-3 -8 -6 -5 -6 6 -1 11 2 17 5 13 3 -3 4 -12 1 -19z m-466 -11 c-1
-4 -1 -19 -1 -33 0 -14 -4 -23 -10 -19 -14 8 -13 68 1 63 6 -2 10 -7 10 -11z
m-51 -37 c0 -16 -4 -31 -9 -34 -10 -7 -24 52 -15 65 10 17 24 -2 24 -31z m367
-165 l-2 -40 -10 43 c-6 23 -8 77 -6 120 l5 77 8 -80 c4 -44 7 -98 5 -120z
m-577 93 c0 -64 -3 -88 -10 -78 -18 27 -12 170 7 170 2 0 3 -42 3 -92z m158 1
c2 -77 1 -82 -13 -65 -19 25 -22 160 -3 154 9 -3 14 -33 16 -89z m-108 57 c0
-14 -4 -28 -10 -31 -6 -4 -10 7 -10 24 0 17 5 31 10 31 6 0 10 -11 10 -24z
m50 -7 c0 -17 -4 -28 -10 -24 -5 3 -10 17 -10 31 0 13 5 24 10 24 6 0 10 -14
10 -31z m635 -156 c-2 -35 -10 -71 -17 -82 -9 -15 -9 -23 1 -35 7 -9 17 -13
22 -10 5 3 9 -43 9 -105 0 -71 -4 -112 -11 -117 -9 -5 -10 19 -5 90 6 94 5 98
-15 103 -21 6 -21 9 -15 142 4 75 10 145 13 156 11 33 24 -71 18 -142z m-124
4 c-8 -8 -11 -4 -11 14 0 33 14 47 18 19 2 -12 -1 -27 -7 -33z m-574 21 c-3
-8 -6 -5 -6 6 -1 11 2 17 5 13 3 -3 4 -12 1 -19z m471 -146 c-3 -14 -7 -12
-21 9 -10 15 -15 34 -11 44 6 15 9 14 21 -9 8 -15 13 -35 11 -44z m122 39 c0
-20 -17 -37 -27 -28 -7 8 7 47 18 47 5 0 9 -9 9 -19z m-50 -11 c0 -11 -4 -20
-10 -20 -5 0 -14 9 -20 20 -9 17 -8 20 10 20 13 0 20 -7 20 -20z m-400 -25
c66 -7 170 -66 231 -131 185 -198 200 -461 38 -677 -117 -156 -335 -223 -534
-163 -289 88 -436 423 -306 698 33 70 121 175 167 198 16 8 46 26 67 39 76 49
148 56 337 36z m496 -84 c-4 -60 -1 -119 9 -177 12 -67 15 -137 11 -302 -3
-118 -7 -216 -9 -219 -11 -11 -24 255 -27 546 -1 91 -6 161 -13 172 -8 13 -7
23 6 43 10 14 20 26 23 26 3 0 3 -40 0 -89z m-210 39 c27 0 47 -23 42 -50 -3
-19 -8 -15 -48 27 -25 26 -38 42 -30 35 7 -6 24 -12 36 -12z m101 -78 c1 -45
0 -82 -2 -82 -1 0 -10 12 -20 26 -16 24 -16 26 0 38 14 10 15 17 6 34 -15 29
-14 75 2 70 8 -3 13 -31 14 -86z m58 60 c0 -18 -20 -15 -23 4 -3 10 1 15 10
12 7 -3 13 -10 13 -16z m-2 -152 c2 -47 6 -89 7 -95 1 -5 2 -21 1 -35 l-2 -25
-10 25 c-16 38 -18 234 -3 218 1 -2 4 -41 7 -88z m124 -202 c-2 -13 -4 -5 -4
17 -1 22 1 32 4 23 2 -10 2 -28 0 -40z m-107 -298 c-5 -63 2 -296 10 -304 6
-6 19 -1 36 15 l26 24 -8 -30 c-13 -54 -26 -81 -32 -66 -6 18 -69 74 -93 83
-21 8 -22 13 -19 73 3 70 20 77 18 7 -1 -67 3 -78 27 -69 12 5 15 24 15 95 0
49 -4 113 -10 141 -7 38 -6 63 3 92 l12 40 8 -43 c5 -24 8 -50 7 -58z m-60
-72 c0 -13 -4 -29 -9 -37 -7 -11 -11 -9 -21 8 -9 17 -9 26 1 37 17 21 29 17
29 -8z m149 -31 c0 -33 -2 -38 -9 -22 -12 28 -12 78 0 70 6 -3 10 -25 9 -48z
m-42 -24 c-3 -10 -5 -4 -5 12 0 17 2 24 5 18 2 -7 2 -21 0 -30z m-167 -51 c0
-26 5 -53 12 -60 9 -9 8 -12 -6 -12 -10 0 -30 -9 -44 -21 l-26 -20 -9 23 c-10
29 -5 70 10 75 6 2 13 -6 15 -19 2 -13 10 -23 18 -23 21 0 26 43 6 51 -19 7
-21 25 -4 42 21 21 28 13 28 -36z m-100 -71 c0 -28 -11 -52 -21 -45 -10 6 -12
48 -2 57 12 13 23 7 23 -12z m-59 -73 l-4 -43 -8 35 c-9 37 -4 65 9 56 4 -2 6
-24 3 -48z m174 17 c0 -6 -13 -26 -28 -45 l-28 -35 7 40 c4 22 9 44 11 48 7
11 38 4 38 -8z m-216 -17 c0 -13 -4 -32 -8 -42 -6 -17 -9 -15 -20 12 -14 33
-9 52 15 52 8 0 14 -9 13 -22z m-56 -15 c8 -7 -11 -33 -24 -33 -5 0 -9 9 -9
20 0 19 20 27 33 13z m-65 -64 c3 -48 1 -52 -12 -39 -8 8 -15 31 -16 50 -3 48
-2 52 13 48 7 -3 13 -27 15 -59z m430 32 c2 -13 -1 -28 -7 -34 -8 -8 -11 -5
-11 10 0 12 -3 29 -7 39 -4 12 -2 15 8 12 8 -2 16 -15 17 -27z m-648 -7 c0
-14 -4 -23 -10 -19 -5 3 -10 15 -10 26 0 10 5 19 10 19 6 0 10 -12 10 -26z
m47 -36 c-2 -13 -4 -3 -4 22 0 25 2 35 4 23 2 -13 2 -33 0 -45z m108 52 c3 -5
-1 -10 -9 -10 -9 0 -16 5 -16 10 0 6 4 10 9 10 6 0 13 -4 16 -10z m272 -97
c-2 -16 -4 -5 -4 22 0 28 2 40 4 28 2 -13 2 -35 0 -50z m-317 1 c0 -8 -4 -14
-10 -14 -5 0 -10 9 -10 21 0 11 5 17 10 14 6 -3 10 -13 10 -21z m197 -41 c-3
-10 -5 -2 -5 17 0 19 2 27 5 18 2 -10 2 -26 0 -35z m299 -31 c-4 -3 -12 0 -18
6 -9 9 -8 18 2 39 l14 28 4 -33 c2 -19 1 -37 -2 -40z m-53 24 c6 -15 -1 -26
-15 -26 -4 0 -8 9 -8 20 0 23 15 27 23 6z m-31 -77 c6 -4 6 -14 -1 -27 -7 -14
-8 -23 -1 -27 5 -3 10 -20 10 -38 l0 -32 -25 37 c-20 29 -25 49 -25 95 l1 58
16 -30 c9 -16 20 -33 25 -36z m191 -8 c-20 -20 -24 -9 -10 28 11 31 12 31 18
9 3 -13 -1 -29 -8 -37z m-48 30 c0 -16 -31 -38 -40 -29 -4 4 -4 16 0 28 7 23
40 24 40 1z m-218 -33 c-3 -7 -5 -2 -5 12 0 14 2 19 5 13 2 -7 2 -19 0 -25z
m-167 -16 c98 -49 158 -113 208 -220 25 -52 27 -68 27 -177 0 -117 -1 -122
-35 -189 -107 -213 -352 -301 -558 -200 -80 39 -165 124 -206 204 -41 84 -51
144 -37 243 24 171 128 301 287 356 47 17 79 21 154 19 85 -3 102 -7 160 -36z
m300 -42 c-4 -31 -9 -44 -10 -30 -4 30 -2 60 5 79 11 28 13 4 5 -49z m72 -282
c-1 -156 2 -299 6 -318 4 -19 5 -51 1 -70 -4 -20 -7 -26 -8 -14 0 12 -8 24
-16 28 -10 3 -15 19 -15 43 0 45 -13 69 -30 58 -8 -5 -10 -21 -6 -45 7 -45 -2
-79 -15 -58 -5 7 -9 24 -9 37 0 29 40 141 50 141 15 0 22 82 21 239 0 155 6
257 16 247 3 -3 5 -133 5 -288z m81 267 c-20 -27 -33 -32 -33 -12 0 17 20 37
37 37 11 0 9 -6 -4 -25z m-153 -87 c-1 -26 -3 -30 -10 -16 -6 9 -7 23 -4 32 9
25 14 19 14 -16z m130 -150 c0 -40 1 -100 4 -133 3 -33 8 -190 11 -350 3 -159
8 -329 10 -377 2 -48 0 -90 -6 -93 -5 -4 -9 35 -10 97 -1 161 -9 368 -25 623
-5 80 4 305 13 305 2 0 4 -33 3 -72z m-2290 47 c33 -17 56 -50 41 -59 -5 -4
-25 9 -45 28 -50 47 -49 58 4 31z m-180 -45 c0 -5 -7 -10 -15 -10 -8 0 -15 5
-15 10 0 6 7 10 15 10 8 0 15 -4 15 -10z m-154 -55 c-21 -16 -32 -13 -21 4 3
6 14 11 23 11 15 -1 15 -2 -2 -15z m-109 -42 c4 -11 -26 -27 -35 -19 -2 3 -2
12 2 21 6 18 27 16 33 -2z m193 -33 c0 -5 -4 -10 -10 -10 -5 0 -10 5 -10 10 0
6 5 10 10 10 6 0 10 -4 10 -10z m157 -42 c-3 -8 -6 -5 -6 6 -1 11 2 17 5 13 3
-3 4 -12 1 -19z m-448 -54 c-14 -18 -24 -11 -15 11 3 9 11 13 16 10 8 -5 7
-11 -1 -21z m871 -35 c0 -5 -7 -9 -15 -9 -15 0 -20 12 -9 23 8 8 24 -1 24 -14z
m-334 -34 c17 -17 70 -20 79 -5 14 22 35 8 45 -30 6 -21 20 -46 32 -54 13 -10
18 -21 14 -32 -8 -21 11 -44 37 -44 19 0 19 -1 2 -20 -16 -17 -19 -18 -40 -4
-35 23 -55 6 -99 -80 -21 -42 -42 -76 -46 -76 -4 0 -10 9 -13 21 -4 13 -12 20
-24 17 -26 -5 -29 -38 -5 -45 13 -3 18 -11 15 -19 -7 -19 -53 -8 -75 18 -26
29 -72 21 -76 -14 -3 -21 0 -26 15 -22 26 7 61 -32 45 -48 -7 -7 -12 -22 -12
-35 0 -18 -6 -23 -26 -23 -34 0 -122 74 -141 117 -7 18 -18 33 -23 33 -6 0
-10 8 -10 18 0 13 2 14 9 3 5 -8 11 -9 15 -3 3 6 1 14 -5 17 -5 4 -8 13 -5 20
2 7 -2 21 -9 32 -13 17 -15 17 -30 2 -33 -33 -11 -174 38 -240 23 -32 19 -63
-9 -67 -16 -2 -23 7 -37 51 -9 30 -17 61 -17 71 0 9 -12 39 -26 67 -21 43 -23
53 -12 67 11 15 11 15 -3 4 -15 -11 -22 -7 -52 29 -35 40 -39 69 -11 69 8 0
14 -8 14 -17 1 -18 22 -53 33 -53 4 0 4 6 1 13 -3 8 0 25 5 39 7 19 6 29 -4
39 -10 9 -11 19 -5 29 8 13 11 12 24 -5 13 -18 15 -18 21 -3 5 13 14 16 37 11
34 -7 47 6 49 47 l1 25 7 -25 c5 -20 16 -27 55 -34 57 -12 77 -2 91 42 6 22
15 32 29 32 22 0 56 27 56 45 0 10 19 35 28 35 2 0 10 -7 18 -15z m-229 -27
c-3 -8 -6 -5 -6 6 -1 11 2 17 5 13 3 -3 4 -12 1 -19z m43 8 c0 -3 -4 -8 -10
-11 -5 -3 -10 -1 -10 4 0 6 5 11 10 11 6 0 10 -2 10 -4z m107 -2 c-3 -3 -12
-4 -19 -1 -8 3 -5 6 6 6 11 1 17 -2 13 -5z m2193 -119 c0 -14 -9 -35 -20 -47
l-20 -22 0 35 c0 33 14 59 32 59 4 0 8 -11 8 -25z m-2908 -63 c-10 -23 -22
-39 -25 -35 -13 12 -7 56 10 75 26 29 35 5 15 -40z m2823 -54 c-4 -35 -8 -64
-10 -66 -2 -2 -6 20 -10 48 -5 34 -3 55 5 65 20 24 21 19 15 -47z m-2543 -5
c15 -15 31 -36 34 -47 3 -12 18 -37 32 -55 38 -51 72 -156 72 -223 0 -50 3
-60 25 -74 31 -20 71 -12 80 16 4 11 18 28 32 37 14 9 29 27 34 40 5 14 17 23
30 23 20 0 20 -1 -5 -30 -25 -30 -33 -58 -38 -130 -3 -33 -6 -35 -42 -40 -43
-5 -52 -16 -61 -73 -7 -42 -25 -41 -25 2 0 37 -19 59 -55 63 -39 4 -48 -28
-11 -42 19 -7 26 -17 26 -36 0 -26 -1 -27 -20 -9 -11 10 -28 33 -39 51 -16 27
-17 33 -5 38 19 7 18 29 -4 57 -28 36 -43 85 -56 184 -11 83 -14 91 -39 103
-22 11 -27 20 -27 51 0 30 -6 42 -25 55 -14 9 -22 23 -20 31 3 8 7 22 10 31 8
24 62 11 97 -23z m663 17 c3 -5 1 -10 -4 -10 -6 0 -11 5 -11 10 0 6 2 10 4 10
3 0 8 -4 11 -10z m1825 -16 c0 -8 -5 -12 -10 -9 -6 4 -8 11 -5 16 9 14 15 11
15 -7z m377 -31 c-3 -10 -5 -2 -5 17 0 19 2 27 5 18 2 -10 2 -26 0 -35z
m-3091 21 c-3 -9 -6 -18 -6 -20 0 -3 -4 -3 -10 1 -11 7 -2 35 12 35 6 0 7 -7
4 -16z m2663 -11 c0 -5 -4 -17 -9 -28 -8 -18 -9 -17 -9 8 -1 15 4 27 9 27 6 0
10 -3 9 -7z m288 -25 c-3 -7 -5 -2 -5 12 0 14 2 19 5 13 2 -7 2 -19 0 -25z
m-357 -78 l-6 -65 -8 62 c-4 34 -5 67 -1 73 15 24 21 -7 15 -70z m397 43 c-3
-10 -5 -4 -5 12 0 17 2 24 5 18 2 -7 2 -21 0 -30z m-657 10 c0 -5 -5 -15 -10
-23 -8 -12 -10 -11 -10 8 0 12 5 22 10 22 6 0 10 -3 10 -7z m70 -12 c0 -26
-16 -35 -24 -15 -10 25 -7 34 9 34 8 0 15 -9 15 -19z m130 3 c0 -8 -5 -12 -10
-9 -6 4 -8 11 -5 16 9 14 15 11 15 -7z m-2418 -48 c15 -31 36 -57 47 -61 14
-4 21 -15 21 -31 0 -33 -9 -30 -51 15 -25 25 -40 54 -47 85 -5 25 -7 46 -3 46
4 0 19 -24 33 -54z m2361 47 c9 -9 -13 -34 -24 -27 -14 8 -11 34 4 34 8 0 17
-3 20 -7z m-1436 -63 c6 -12 17 -27 25 -31 21 -14 56 -10 66 7 6 11 16 13 34
9 l26 -7 -21 -44 c-20 -41 -24 -44 -52 -38 -16 3 -48 8 -70 10 -22 2 -50 9
-62 15 -50 26 -32 129 20 110 12 -4 27 -18 34 -31z m1975 -320 c2 -8 -1 -16
-7 -18 -13 -3 -22 98 -24 249 -2 181 13 150 21 -43 4 -95 9 -180 10 -188z
m-1917 330 c3 -5 1 -10 -4 -10 -6 0 -11 5 -11 10 0 6 2 10 4 10 3 0 8 -4 11
-10z m1362 -87 c-3 -10 -5 -2 -5 17 0 19 2 27 5 18 2 -10 2 -26 0 -35z m-135
-136 c2 -59 0 -107 -3 -107 -11 0 -17 107 -11 191 7 93 10 77 14 -84z m535 86
c-3 -10 -5 -2 -5 17 0 19 2 27 5 18 2 -10 2 -26 0 -35z m60 25 c-3 -8 -6 -5
-6 6 -1 11 2 17 5 13 3 -3 4 -12 1 -19z m-330 -50 c-3 -7 -5 -2 -5 12 0 14 2
19 5 13 2 -7 2 -19 0 -25z m-72 -25 c-9 -37 -18 -20 -9 19 4 18 9 27 11 20 3
-7 2 -24 -2 -39z m-1457 -16 c-1 -31 -30 -117 -41 -117 -4 0 -5 -5 -2 -11 8
-12 -15 -73 -23 -64 -13 13 0 111 18 130 10 11 21 36 23 55 6 44 5 42 16 35 6
-3 9 -15 9 -28z m-1085 -8 c49 -13 113 -71 126 -112 5 -18 13 -54 17 -82 4
-27 13 -65 21 -84 13 -31 13 -36 0 -46 -12 -8 -17 -42 -23 -134 l-7 -123 -44
5 c-37 4 -49 0 -74 -20 -39 -33 -39 -74 2 -120 l30 -35 -56 -59 c-65 -68 -92
-123 -101 -205 -3 -32 -10 -71 -16 -86 -8 -22 -7 -33 6 -53 19 -29 29 -31 51
-9 14 15 14 18 0 34 -8 9 -12 20 -8 24 4 4 8 38 9 75 2 93 26 143 108 219 37
34 71 62 76 62 6 0 10 6 10 13 0 18 39 53 68 62 19 5 13 -6 -32 -62 -101 -124
-140 -231 -113 -308 14 -39 14 -39 -16 -55 -19 -9 -34 -28 -42 -52 -7 -21 -11
-38 -8 -38 2 0 1 -5 -2 -10 -4 -7 -12 -7 -25 0 -13 7 -21 7 -25 0 -21 -34
-115 34 -115 84 0 14 -5 36 -11 50 -9 19 -8 37 5 83 36 125 50 159 81 198 40
50 74 140 58 156 -18 18 -30 3 -47 -54 -16 -54 -50 -106 -61 -95 -3 3 -2 34 2
69 11 80 5 161 -11 156 -7 -2 -13 -45 -17 -114 -4 -60 -16 -143 -27 -184 -19
-69 -34 -176 -33 -226 2 -50 -69 -14 -104 53 -15 27 -17 38 -7 41 6 3 12 16
12 31 0 14 8 34 18 45 14 16 16 35 14 112 -3 100 5 130 51 198 14 20 28 56 32
80 5 28 17 51 36 69 20 18 29 37 29 57 0 17 7 49 16 71 9 23 13 44 9 48 -13
14 -53 -47 -59 -92 -5 -31 -12 -46 -22 -46 -16 0 -22 -14 -49 -105 -10 -33
-26 -67 -36 -76 -34 -31 -48 -94 -42 -190 4 -58 2 -89 -4 -89 -27 0 -30 105
-6 240 9 52 17 145 17 205 l1 110 43 71 c41 68 64 89 107 96 23 4 33 37 14 49
-8 4 -24 6 -36 2 -18 -4 -23 -1 -23 15 0 28 53 70 98 77 20 4 42 8 47 10 20 7
51 5 88 -6z m457 -9 c0 -5 -4 -10 -10 -10 -5 0 -10 5 -10 10 0 6 5 10 10 10 6
0 10 -4 10 -10z m2149 -33 c17 -22 27 -81 11 -75 -9 3 -39 66 -40 86 0 7 19 0
29 -11z m81 -14 c0 -13 -3 -13 -15 -3 -8 7 -12 16 -9 21 8 13 24 1 24 -18z
m-193 -5 c-3 -8 -6 -5 -6 6 -1 11 2 17 5 13 3 -3 4 -12 1 -19z m473 -25 c0
-43 -5 -41 -13 5 -4 18 -2 32 3 32 6 0 10 -16 10 -37z m-419 4 c-10 -9 -11 -8
-5 6 3 10 9 15 12 12 3 -3 0 -11 -7 -18z m-134 -9 c-3 -8 -6 -5 -6 6 -1 11 2
17 5 13 3 -3 4 -12 1 -19z m470 -15 c-3 -10 -5 -4 -5 12 0 17 2 24 5 18 2 -7
2 -21 0 -30z m-2053 -15 c20 -33 30 -152 14 -165 -7 -6 -35 -18 -61 -29 -52
-20 -84 -54 -131 -139 -30 -52 -74 -105 -88 -105 -17 0 -7 38 16 59 38 35 76
132 85 216 10 85 25 113 83 155 49 36 63 37 82 8z m2256 -2 c0 -8 -4 -18 -10
-21 -5 -3 -10 3 -10 14 0 12 5 21 10 21 6 0 10 -6 10 -14z m-263 -58 c-3 -8
-6 -5 -6 6 -1 11 2 17 5 13 3 -3 4 -12 1 -19z m-246 2 c273 -52 448 -358 349
-610 -73 -184 -217 -294 -405 -307 -149 -10 -270 41 -381 160 -49 52 -64 76
-86 145 -56 166 -26 336 80 454 38 42 131 108 153 108 7 0 20 7 29 15 19 17
119 43 171 44 20 1 60 -4 90 -9z m-3071 -30 c0 -11 -9 -35 -20 -55 -11 -20
-20 -49 -20 -65 0 -16 -4 -31 -9 -34 -5 -3 -12 -22 -15 -41 -13 -66 -98 -166
-122 -142 -7 7 14 112 32 155 7 18 19 31 26 30 7 -2 23 20 36 47 57 121 92
161 92 105z m1030 22 c0 -5 -11 -19 -25 -32 -26 -24 -33 -14 -15 21 11 19 40
27 40 11z m476 -28 c-3 -9 -6 -20 -6 -25 0 -6 -4 -7 -10 -4 -6 4 -7 -1 -3 -10
5 -16 -11 -34 -29 -35 -12 0 -10 13 7 54 15 35 54 54 41 20z m2051 -36 c-3 -8
-6 -5 -6 6 -1 11 2 17 5 13 3 -3 4 -12 1 -19z m-52 -35 c-1 -26 2 -67 6 -92 9
-60 0 -140 -14 -116 -14 26 -8 255 7 255 1 0 1 -21 1 -47z m94 -37 c-9 -8 -10
-7 -5 7 3 10 7 28 7 40 2 16 3 14 6 -7 3 -16 -1 -34 -8 -40z m-139 -26 c0 -16
-2 -30 -5 -30 -9 0 -26 41 -20 50 12 20 25 9 25 -20z m-2020 11 c0 -12 -37
-24 -49 -17 -7 5 -44 -8 -91 -33 -8 -5 -15 -14 -15 -22 0 -8 7 -12 15 -10 8 2
29 5 45 8 17 3 55 13 85 24 55 19 94 17 87 -4 -2 -7 -12 -14 -22 -15 -10 -3
-15 0 -11 7 10 15 -4 14 -23 -3 -9 -8 -45 -20 -81 -28 -43 -10 -65 -19 -65
-29 0 -8 8 -13 20 -12 10 1 27 -3 37 -8 12 -6 28 -5 50 4 19 8 42 11 53 7 17
-6 14 -10 -20 -25 -22 -9 -57 -19 -77 -22 -23 -4 -38 -11 -38 -20 0 -25 33
-27 98 -4 67 23 84 22 62 -4 -8 -10 -22 -14 -36 -11 -16 4 -23 1 -27 -13 -2
-11 -21 -24 -43 -31 -21 -7 -59 -34 -85 -61 -26 -27 -57 -49 -68 -49 -11 0
-23 -4 -26 -10 -13 -21 -32 -10 -27 15 3 19 0 25 -12 25 -10 0 -15 -4 -12 -9
9 -15 -5 -43 -19 -37 -19 7 -46 -26 -35 -43 6 -10 1 -20 -16 -33 -13 -11 -24
-25 -24 -33 0 -35 -242 -185 -299 -185 -24 0 -28 29 -9 60 16 24 4 37 -18 19
-15 -12 -16 -10 -9 31 11 65 42 161 61 188 17 25 114 72 148 72 32 0 108 32
143 60 17 14 56 65 87 113 47 73 60 87 76 82 12 -4 20 -2 20 5 0 6 -4 8 -10 5
-5 -3 -10 -4 -10 -1 0 8 62 38 95 47 44 10 95 10 95 0z m2163 -458 c-3 -79 -9
-140 -14 -137 -4 2 -9 51 -10 107 -2 152 -2 175 7 215 l7 37 8 -40 c5 -22 6
-104 2 -182z m-2993 167 c0 -4 -8 -10 -17 -13 -10 -4 -28 -14 -40 -23 -21 -15
-23 -15 -29 0 -12 31 3 46 46 44 22 -1 40 -5 40 -8z m870 -24 c0 -13 -7 -26
-15 -30 -16 -6 -20 10 -9 38 9 24 24 19 24 -8z m-720 10 c0 -2 -7 -7 -16 -10
-8 -3 -12 -2 -9 4 6 10 25 14 25 6z m634 -38 c-8 -24 -19 -52 -24 -63 -22 -49
-22 -66 -1 -72 12 -3 21 -12 21 -20 0 -11 -6 -14 -22 -9 -13 3 -26 6 -30 6 -5
0 -8 9 -8 20 0 13 -10 24 -25 30 -37 14 -31 36 28 96 65 66 80 69 61 12z
m2139 -40 c4 -12 1 -29 -6 -37 -9 -11 -9 -15 1 -18 16 -6 16 -48 -1 -61 -10
-8 -16 -6 -25 9 -11 16 -11 32 -1 75 13 58 23 68 32 32z m-3695 -61 c24 -74
20 -137 -9 -128 -8 3 -32 6 -54 7 -52 2 -70 27 -37 52 18 14 22 24 17 45 -4
14 -2 42 5 62 9 29 16 35 33 33 17 -2 27 -18 45 -71z m902 13 c-6 -12 -14 -19
-17 -17 -2 3 1 15 7 27 6 12 14 19 17 17 2 -3 -1 -15 -7 -27z m845 -21 c20
-38 17 -43 -14 -20 -16 12 -22 24 -18 35 9 23 14 20 32 -15z m-910 -26 c-4
-27 -13 -68 -20 -93 -7 -25 -16 -63 -20 -85 -13 -86 -27 -97 -50 -42 -15 37
-8 85 22 153 21 45 62 114 69 114 3 0 2 -21 -1 -47z m820 17 c0 -30 -24 -37
-66 -20 -36 15 -33 33 7 41 46 11 59 6 59 -21z m-289 -2 c-71 -98 -85 -133
-86 -205 0 -22 -5 -33 -14 -33 -22 0 -86 65 -86 86 0 12 35 50 90 97 90 76
128 98 96 55z m834 -8 c0 -5 -9 -10 -20 -10 -11 0 -20 5 -20 10 0 6 9 10 20
10 11 0 20 -4 20 -10z m-796 -125 c-16 -30 -33 -55 -38 -55 -13 0 4 70 27 112
20 34 23 36 31 18 6 -14 1 -34 -20 -75z m297 64 c16 -11 29 -27 29 -34 0 -8
12 -22 26 -32 63 -44 104 -86 104 -109 0 -35 18 -39 45 -10 13 14 33 26 43 26
11 0 25 7 32 15 7 8 29 15 49 15 20 0 51 9 69 20 42 26 54 18 50 -33 -4 -46
-7 -47 -85 -31 -41 8 -58 -20 -27 -43 20 -15 64 -13 152 5 23 5 42 6 42 1 0
-16 -59 -39 -99 -39 -31 0 -47 -7 -71 -30 -17 -16 -35 -30 -41 -30 -6 0 -7 -5
-3 -11 8 -14 54 -2 79 21 28 26 49 11 52 -38 l3 -40 -38 9 c-20 5 -60 9 -88 9
-37 0 -61 7 -86 24 -20 13 -58 26 -88 30 -81 10 -184 37 -196 52 -6 7 -53 24
-105 38 -58 15 -95 29 -97 38 -1 8 6 35 16 59 22 52 110 125 157 132 17 2 34
5 38 6 5 0 22 -8 38 -20z m1924 -36 c-8 -56 -17 -69 -34 -49 -10 12 -8 23 9
55 11 23 23 41 26 41 4 0 3 -21 -1 -47z m-2147 -11 c-14 -15 -33 -40 -41 -57
-9 -16 -16 -24 -17 -17 0 21 39 90 57 101 28 15 29 3 1 -27z m-1323 -22 c5
-14 0 -26 -15 -38 -20 -16 -20 -19 -7 -31 12 -9 21 -10 36 -1 14 7 21 7 21 1
0 -23 -56 -24 -134 -1 -53 14 -104 22 -148 21 -40 -1 -69 2 -73 9 -9 15 24 52
39 43 6 -4 29 -7 51 -8 22 0 60 -11 85 -23 26 -12 56 -20 70 -17 26 5 50 30
50 52 0 20 18 15 25 -7z m713 -138 c-5 -85 -18 -116 -40 -94 -9 9 -9 18 1 38
8 19 9 30 1 39 -11 13 -1 102 17 160 12 37 25 -55 21 -143z m1443 112 c11 -13
11 -20 -2 -42 -18 -33 -45 -36 -42 -5 2 14 -5 27 -17 33 -12 6 -18 15 -15 21
10 15 61 10 76 -7z m1449 -71 c0 -47 -2 -84 -5 -81 -8 8 -16 148 -9 159 12 19
14 6 14 -78z m-140 48 c0 -6 -4 -13 -10 -16 -5 -3 -10 1 -10 9 0 9 5 16 10 16
6 0 10 -4 10 -9z m-74 -32 c-3 -17 -6 -40 -6 -50 0 -11 -4 -19 -10 -19 -11 0
-14 59 -4 84 11 29 27 17 20 -15z m-3536 -17 c91 -31 100 -35 100 -42 0 -4
-30 -11 -66 -15 -97 -10 -248 34 -228 67 3 5 20 6 37 3 18 -4 43 -2 57 4 14 5
32 7 40 4 8 -3 35 -13 60 -21z m1076 -24 c-8 -60 -27 -101 -58 -122 -41 -29
-51 -17 -18 21 37 42 60 91 60 128 0 14 5 25 11 25 8 0 9 -16 5 -52z m1231
-40 c-24 -46 -89 -98 -96 -77 -2 7 8 21 23 31 14 11 26 25 26 32 0 19 48 68
60 61 5 -3 -1 -24 -13 -47z m1173 -14 c0 -40 -3 -54 -12 -51 -7 2 -12 12 -11
22 1 10 -3 29 -8 43 -6 16 -6 29 2 38 19 23 29 5 29 -52z m-2554 25 c4 -6 20
-8 40 -4 33 6 34 5 23 -19 -26 -56 -109 -86 -95 -33 3 12 6 32 6 45 0 23 14
30 26 11z m2504 -65 c0 -2 -6 -1 -14 2 -8 3 -19 -3 -26 -15 -6 -12 -16 -21
-22 -21 -7 0 -6 5 2 15 7 8 10 25 6 39 -4 18 -1 28 11 35 14 8 20 4 30 -21 7
-17 13 -32 13 -34z m-3577 40 c25 -6 27 -10 27 -53 0 -25 10 -66 21 -91 18
-40 22 -43 33 -28 11 15 20 8 84 -71 40 -49 72 -94 72 -100 0 -5 10 -16 22
-22 12 -7 45 -33 73 -59 62 -58 106 -85 181 -110 32 -11 67 -26 78 -33 46 -29
224 6 315 62 28 16 84 43 125 59 69 27 81 29 148 22 46 -5 93 -18 126 -34 29
-15 57 -24 62 -21 4 3 31 7 60 10 28 3 60 9 70 15 11 6 37 8 58 4 27 -4 49 -1
70 10 32 17 35 23 47 131 6 60 38 150 61 176 9 10 14 25 11 33 -7 18 17 51 31
43 17 -11 3 -85 -38 -202 -22 -60 -50 -141 -62 -179 -13 -38 -28 -71 -35 -73
-7 -3 -20 5 -30 16 -22 26 -47 27 -72 2 -30 -30 -56 -34 -226 -35 -154 -1
-163 -3 -241 -33 -164 -64 -210 -89 -285 -159 -120 -112 -125 -114 -202 -104
-64 10 -89 18 -137 45 -41 24 -75 19 -104 -16 -14 -17 -26 -37 -26 -45 0 -30
-48 -35 -117 -14 -36 11 -77 20 -92 20 -42 0 -182 97 -207 144 -19 34 -21 51
-18 150 4 144 21 375 29 404 11 34 -21 29 -39 -7 -25 -47 -43 -511 -22 -553
14 -29 -50 -25 -65 4 -13 25 -6 223 10 273 8 27 30 123 63 280 9 42 22 70 45
96 18 20 33 42 33 48 0 7 8 10 18 7 9 -3 29 -8 45 -12z m915 -43 c-1 -9 1 -21
5 -27 10 -18 -20 -37 -47 -30 -13 3 -34 15 -47 26 l-24 20 35 29 c32 27 36 28
57 13 13 -8 23 -22 21 -31z m2752 -41 c-6 -10 -9 1 -9 35 1 48 1 49 9 15 5
-19 4 -41 0 -50z m-178 48 c4 -26 -7 -65 -33 -123 -16 -37 -18 -38 -18 -13 -1
15 4 30 9 33 12 8 13 95 1 95 -5 0 -16 -10 -24 -22 l-16 -23 0 27 c-1 20 6 29
27 36 41 16 50 14 54 -10z m-1022 -20 c0 -20 -73 -88 -94 -88 -16 0 -11 10 29
50 50 51 65 60 65 38z m690 -19 c0 -17 -4 -28 -10 -24 -5 3 -10 17 -10 31 0
13 5 24 10 24 6 0 10 -14 10 -31z m75 21 c4 -6 1 -18 -6 -26 -12 -14 -14 -14
-20 3 -10 29 11 47 26 23z m143 -184 c3 -138 1 -187 -7 -182 -7 5 -11 52 -10
139 0 73 -3 156 -7 186 -5 42 -4 53 6 49 10 -3 14 -50 18 -192z m-68 159 c0
-28 -15 -34 -24 -9 -10 25 -7 34 9 34 9 0 15 -9 15 -25z m-1820 5 c0 -5 -2
-10 -4 -10 -3 0 -8 5 -11 10 -3 6 -1 10 4 10 6 0 11 -4 11 -10z m2090 -30 c0
-11 -4 -20 -10 -20 -5 0 -10 9 -10 20 0 11 5 20 10 20 6 0 10 -9 10 -20z
m-3914 -131 c1 -74 6 -152 13 -174 14 -49 14 -58 1 -50 -15 9 -22 -17 -24 -87
l-1 -63 -40 0 c-37 0 -40 2 -40 29 -1 28 -43 76 -66 76 -13 0 -64 -50 -71 -70
-4 -12 -9 -12 -35 -1 -18 7 -41 10 -52 6 -28 -9 -42 23 -44 98 l-2 62 48 9
c31 6 54 6 70 -2 25 -12 121 -24 140 -16 9 3 11 44 9 158 l-3 155 38 4 c21 2
43 3 48 2 6 -1 10 -55 11 -136z m2334 131 c13 -8 13 -10 -2 -10 -9 0 -20 5
-23 10 -8 13 5 13 25 0z m1624 -32 c-5 -8 -10 -5 -14 8 -10 25 0 41 12 20 5
-9 6 -21 2 -28z m-2274 2 c0 -5 -15 -10 -32 -9 -31 1 -32 1 -8 9 35 11 40 11
40 0z m2190 2 c0 -5 -7 -17 -15 -28 -14 -19 -14 -19 -15 2 0 11 3 24 7 27 9
10 23 9 23 -1z m-229 -147 c4 -139 4 -139 -18 -138 -13 0 -34 1 -48 2 -20 1
-25 6 -25 29 1 23 2 24 11 10 5 -10 18 -18 29 -18 26 0 42 56 40 143 -3 87 -1
122 4 116 2 -2 5 -67 7 -144z m-1077 116 c-19 -17 -144 -69 -148 -62 -3 4 -2
21 3 37 7 28 10 29 77 34 74 5 83 4 68 -9z m414 5 c37 -19 61 -47 72 -86 16
-56 2 -90 -66 -156 -57 -56 -96 -83 -259 -180 -55 -33 -180 -84 -265 -109 -30
-9 -69 -20 -86 -25 -39 -13 -166 -12 -219 0 -22 5 -48 19 -59 32 -26 33 -18
114 17 167 27 40 52 56 40 25 -10 -26 11 -30 96 -20 45 5 84 6 88 3 8 -8 -24
-115 -40 -135 -7 -9 -7 -16 1 -24 9 -9 22 -6 54 12 56 31 142 94 195 141 43
39 49 41 193 59 46 5 88 14 92 18 14 14 -15 40 -62 55 -24 8 -46 19 -47 24 -2
5 21 26 51 47 30 20 56 46 59 58 4 13 11 19 20 15 9 -3 22 2 31 12 14 16 15
20 2 30 -11 10 -20 10 -36 1 -16 -9 -25 -9 -33 -1 -14 14 -30 14 -22 1 9 -15
-43 -36 -57 -22 -8 8 -3 19 20 41 29 30 34 31 112 31 50 0 91 -5 108 -14z
m1071 -18 c0 -28 -2 -30 -9 -13 -12 28 -12 45 0 45 6 0 10 -15 9 -32z m-133
-45 c-3 -7 -10 -13 -16 -13 -11 0 -14 53 -3 64 9 9 25 -34 19 -51z m88 20 c8
-53 6 -164 -4 -188 -7 -16 -9 -12 -10 20 0 22 -3 77 -6 123 -6 84 8 115 20 45z
m-1284 23 c0 -3 -4 -8 -10 -11 -5 -3 -10 -1 -10 4 0 6 5 11 10 11 6 0 10 -2
10 -4z m-82 -47 c3 -33 0 -37 -36 -53 -35 -16 -44 -16 -88 -4 -27 7 -49 19
-49 27 0 17 114 71 145 68 21 -2 25 -8 28 -38z m1512 -34 c0 -8 -2 -15 -4 -15
-2 0 -6 7 -10 15 -3 8 -1 15 4 15 6 0 10 -7 10 -15z m80 -140 c-4 -55 -5 -52
-10 40 -3 55 -3 105 0 110 8 16 15 -85 10 -150z m-1440 139 c0 -10 -45 -42
-52 -37 -14 8 -8 20 15 31 26 12 37 14 37 6z m1267 -16 c-3 -8 -6 -5 -6 6 -1
11 2 17 5 13 3 -3 4 -12 1 -19z m-1627 4 c0 -5 -3 -12 -7 -16 -5 -4 -12 -26
-18 -49 -10 -41 -12 -43 -90 -74 -93 -38 -105 -39 -105 -15 0 19 32 53 60 66
8 3 42 26 75 50 58 43 85 55 85 38z m1060 -64 c0 -39 -3 -68 -7 -65 -9 10 -11
137 -1 137 4 0 8 -32 8 -72z m117 20 c-3 -8 -6 -5 -6 6 -1 11 2 17 5 13 3 -3
4 -12 1 -19z m-1107 2 c16 -10 15 -12 -22 -28 -29 -12 -42 -4 -32 22 7 18 31
21 54 6z m160 -6 c0 -11 -5 -14 -16 -10 -9 3 -18 6 -20 6 -3 0 -2 5 1 10 10
16 35 12 35 -6z m1397 -21 c-3 -10 -5 -4 -5 12 0 17 2 24 5 18 2 -7 2 -21 0
-30z m-110 -5 c-3 -7 -5 -2 -5 12 0 14 2 19 5 13 2 -7 2 -19 0 -25z m-1336
-14 c35 -18 35 -39 -1 -64 -32 -23 -200 -37 -200 -18 0 23 14 36 75 66 71 35
86 37 126 16z m1184 -24 c7 -21 0 -40 -16 -40 -5 0 -9 14 -9 30 0 34 15 40 25
10z m265 -16 c0 -8 -4 -12 -10 -9 -5 3 -10 10 -10 16 0 5 5 9 10 9 6 0 10 -7
10 -16z m-1322 -10 c15 -6 15 -7 -3 -14 -49 -21 -99 -5 -58 18 16 10 23 9 61
-4z m332 6 c-13 -8 -12 -10 3 -10 9 0 17 5 17 10 0 6 18 10 40 10 44 0 47 -7
25 -50 -11 -21 -20 -27 -31 -23 -16 6 -16 7 0 18 20 15 21 45 1 45 -8 0 -15
-5 -15 -10 0 -15 -62 -50 -89 -50 -13 0 -21 3 -17 7 4 4 15 8 24 8 9 0 18 7
18 15 1 8 2 21 3 28 0 6 9 12 19 12 14 0 15 -2 2 -10z m257 -14 c-2 -6 -17
-10 -33 -8 -33 4 -38 7 -30 20 8 13 68 2 63 -12z m-86 -1 c1 -17 -18 -17 -25
0 -4 11 -1 15 10 13 8 -2 15 -7 15 -13z m-871 -25 c0 -13 -28 -25 -38 -16 -3
4 0 11 8 16 20 13 30 12 30 0z m830 -10 c0 -5 -7 -10 -15 -10 -8 0 -15 5 -15
10 0 6 7 10 15 10 8 0 15 -4 15 -10z m-1090 -10 c0 -5 -7 -10 -16 -10 -8 0
-12 5 -9 10 3 6 10 10 16 10 5 0 9 -4 9 -10z m1355 -1 c4 -6 -1 -16 -11 -24
-12 -8 -24 -36 -30 -72 l-12 -58 -1 83 c-1 81 -1 82 23 82 14 0 28 -5 31 -11z
m600 1 c-3 -5 5 -14 20 -20 36 -14 69 -46 60 -60 -4 -7 2 -18 14 -26 33 -23
25 -32 -29 -32 -42 0 -50 3 -50 19 0 27 -15 23 -29 -7 -10 -22 -8 -34 13 -78
26 -54 25 -96 0 -96 -9 0 -14 11 -14 28 0 17 -9 37 -21 48 l-22 19 5 -37 c2
-21 0 -38 -4 -38 -4 0 -8 -7 -8 -16 0 -8 -4 -13 -9 -10 -5 3 -7 24 -4 45 5 34
3 40 -18 46 -13 4 -39 14 -57 23 -29 13 -35 13 -43 1 -11 -18 -39 -2 -54 29
-7 17 -15 20 -40 15 -16 -3 -36 -11 -43 -16 -11 -9 -13 -6 -10 13 3 23 6 25
53 22 43 -3 54 0 74 22 32 33 24 54 -11 27 -15 -12 -29 -17 -32 -13 -6 9 36
43 69 56 13 6 16 10 7 13 -7 3 -19 0 -26 -6 -11 -9 -15 -9 -18 0 -2 6 -24 -9
-48 -33 -35 -35 -45 -40 -48 -25 -2 9 -10 17 -18 17 -8 0 -14 5 -14 10 0 6 7
10 15 10 8 0 15 -4 15 -10 0 -5 7 -10 16 -10 12 0 15 6 10 24 -8 31 8 37 114
43 47 2 86 5 87 6 1 1 25 3 53 5 34 2 49 -1 45 -8z m-4003 -19 c26 -13 27 -16
21 -80 -6 -77 -12 -86 -38 -67 -27 19 -42 177 -17 164 4 -2 19 -10 34 -17z
m3476 7 c-5 -14 -48 -31 -48 -18 0 6 7 10 15 10 8 0 15 5 15 10 0 6 5 10 11
10 6 0 9 -5 7 -12z m688 -56 c-12 -11 -16 6 -9 39 l8 34 3 -33 c2 -19 1 -36
-2 -40z m-587 32 c-11 -30 -3 -46 12 -24 8 11 9 10 4 -7 -5 -17 -2 -23 9 -23
9 0 16 5 16 10 0 6 5 10 10 10 6 0 10 -12 10 -26 0 -14 -4 -23 -9 -20 -4 3
-17 -1 -27 -9 -18 -14 -18 -14 4 -15 12 0 22 -4 22 -10 0 -5 -4 -10 -10 -10
-5 0 -10 -7 -10 -15 0 -8 -7 -15 -15 -15 -9 0 -26 -9 -38 -21 -22 -20 -22 -21
-3 -35 25 -18 36 -18 36 0 0 16 18 31 26 23 3 -3 -1 -14 -8 -26 -13 -21 -58
-30 -58 -11 0 6 -12 10 -26 10 -21 0 -24 4 -19 20 5 16 3 19 -11 13 -14 -5
-16 -3 -10 13 6 15 5 17 -5 7 -18 -18 -29 -16 -29 3 0 13 -3 14 -14 5 -10 -8
-16 -9 -21 -1 -8 13 3 32 15 25 5 -3 11 -1 15 4 6 11 36 3 47 -13 4 -6 11 0
16 14 5 14 19 34 31 44 14 13 21 31 21 56 0 36 6 50 21 50 5 0 4 -12 -2 -26z
m51 16 c0 -5 -7 -10 -15 -10 -8 0 -15 5 -15 10 0 6 7 10 15 10 8 0 15 -4 15
-10z m-1610 -15 c-7 -8 -16 -12 -21 -9 -13 8 -1 24 18 24 13 0 13 -3 3 -15z
m440 10 c0 -3 -37 -33 -82 -66 -92 -68 -105 -65 -70 15 17 38 25 45 54 49 54
6 98 7 98 2z m466 -23 c6 -4 11 -24 12 -45 1 -20 6 -46 12 -58 8 -13 8 -24 2
-32 -6 -7 -12 -23 -14 -37 -2 -19 -10 -26 -31 -28 -24 -3 -30 2 -40 27 -13 36
-27 40 -27 8 0 -12 9 -28 20 -35 20 -12 28 -52 10 -52 -5 0 -10 7 -10 15 0 8
-4 15 -10 15 -5 0 -10 -7 -10 -15 0 -8 -9 -15 -20 -15 -23 0 -27 22 -7 38 19
16 16 66 -5 70 -14 3 -18 -4 -18 -32 0 -40 -15 -56 -23 -24 -8 30 -21 14 -22
-25 0 -22 -5 -32 -15 -32 -9 0 -14 7 -12 18 3 16 -7 21 -34 18 -13 -1 -23 27
-17 47 7 18 31 15 29 -4 0 -9 5 -19 12 -21 7 -3 12 4 12 15 0 11 7 22 15 26
29 11 15 23 -22 19 l-38 -3 40 23 c22 13 49 26 59 30 15 6 17 5 7 -7 -9 -11
-8 -15 6 -18 31 -8 45 2 27 20 -15 14 -12 19 32 58 50 44 61 49 80 36z m598
-7 c-4 -8 -8 -15 -10 -15 -2 0 -4 7 -4 15 0 8 4 15 10 15 5 0 7 -7 4 -15z
m-474 -16 c0 -6 -7 -8 -15 -5 -9 3 -18 0 -21 -8 -3 -8 -15 -11 -30 -8 -24 4
-30 13 -17 25 11 12 83 8 83 -4z m60 1 c0 -5 -4 -10 -10 -10 -5 0 -10 5 -10
10 0 6 5 10 10 10 6 0 10 -4 10 -10z m54 -5 c-6 -16 -24 -21 -24 -7 0 11 11
22 21 22 5 0 6 -7 3 -15z m-1176 -13 c3 -9 -2 -13 -14 -10 -9 1 -19 9 -22 16
-3 9 2 13 14 10 9 -1 19 -9 22 -16z m1436 -1 c3 -5 -1 -11 -9 -14 -9 -4 -12
-1 -8 9 6 16 10 17 17 5z m-344 -13 c0 -9 3 -9 12 0 15 15 48 -3 48 -28 0 -10
5 -22 10 -25 13 -8 13 -72 0 -80 -7 -4 -9 2 -4 19 7 28 -4 34 -24 14 -15 -15
-16 -65 0 -70 14 -5 4 -38 -12 -38 -5 0 -10 9 -10 21 0 12 -8 23 -20 26 -11 3
-20 11 -20 19 0 8 -6 11 -17 7 -12 -5 -15 -2 -10 10 4 12 -2 21 -23 32 -36 18
-39 33 -7 33 12 0 32 3 44 7 19 6 22 4 20 -20 -3 -40 20 -42 28 -3 4 18 11 38
15 43 13 15 -75 12 -94 -4 -14 -12 -16 -11 -16 8 0 14 6 21 19 21 11 0 23 5
26 10 9 14 35 13 35 -2z m398 -10 c10 -10 15 -10 22 2 5 8 12 11 16 7 11 -11
-7 -24 -43 -32 -35 -7 -37 -6 -27 19 7 19 16 20 32 4z m-288 -28 c0 -5 -5 -10
-11 -10 -5 0 -7 5 -4 10 3 6 8 10 11 10 2 0 4 -4 4 -10z m-3385 -20 c3 -5 -21
-35 -54 -66 -34 -31 -61 -64 -61 -74 0 -20 -99 -80 -131 -80 -10 0 -22 -7 -26
-15 -12 -21 -53 -23 -66 -3 -17 26 8 46 79 64 81 22 88 27 113 79 17 36 31 50
65 65 24 10 47 23 50 29 9 14 23 14 31 1z m2175 -45 c0 -8 -4 -15 -9 -15 -13
0 -22 16 -14 24 11 11 23 6 23 -9z m674 -3 c-11 -10 -19 -23 -16 -30 2 -6 -1
-12 -6 -12 -6 0 -12 5 -14 10 -4 12 -41 -19 -56 -46 -11 -20 -44 -12 -37 8 5
11 130 87 145 87 3 0 -4 -7 -16 -17z m-2827 -37 c-12 -20 -42 -66 -66 -103
-26 -39 -44 -77 -43 -92 l2 -25 -13 25 c-7 13 -23 30 -35 36 -31 15 -29 23 9
43 18 10 36 24 39 32 27 59 40 76 69 96 51 34 64 30 38 -12z m3187 27 c9 -16
-15 -82 -29 -82 -8 0 -15 5 -15 10 0 6 5 10 11 10 5 0 8 4 4 10 -3 5 -3 21 1
35 6 25 18 32 28 17z m396 -13 c0 -6 -4 -7 -10 -4 -5 3 -10 11 -10 16 0 6 5 7
10 4 6 -3 10 -11 10 -16z m350 11 c0 -5 -5 -10 -11 -10 -5 0 -7 5 -4 10 3 6 8
10 11 10 2 0 4 -4 4 -10z m430 -66 c0 -36 -4 -64 -10 -64 -5 0 -10 9 -10 19 0
15 -5 18 -22 13 l-22 -5 22 37 c12 20 22 46 22 57 0 11 5 17 10 14 6 -3 10
-35 10 -71z m-819 -9 c-3 -5 -7 -2 -9 8 -5 23 -37 18 -37 -5 0 -21 -32 -55
-42 -44 -4 4 -3 10 3 14 6 4 19 23 29 42 31 61 37 65 50 28 6 -18 9 -37 6 -43z
m-3364 43 c10 -8 10 -14 2 -24 -15 -19 -73 -11 -77 10 -5 21 -14 20 -46 -5
-35 -27 -46 -17 -15 15 20 21 30 23 73 19 28 -2 56 -9 63 -15z m3169 -10 c-3
-33 -26 -53 -26 -24 0 14 20 56 27 56 2 0 1 -14 -1 -32z m264 4 c0 -15 -2 -15
-10 -2 -13 20 -13 33 0 25 6 -3 10 -14 10 -23z m464 9 c-3 -9 -7 -21 -7 -28 0
-13 -28 -5 -40 11 -4 6 -6 0 -5 -14 2 -20 -1 -24 -17 -22 -45 7 -47 11 -23 40
18 23 31 29 61 29 31 0 37 -3 31 -16z m-1884 -21 c0 -29 -17 -33 -22 -5 -3 13
-3 27 0 29 9 10 22 -5 22 -24z m1720 26 c0 -21 -14 -32 -36 -28 -19 3 -22 7
-13 18 10 13 49 20 49 10z m-80 -16 c0 -5 -5 -10 -11 -10 -5 0 -7 5 -4 10 3 6
8 10 11 10 2 0 4 -4 4 -10z m-1010 -9 c0 -37 -36 -53 -70 -31 -13 9 -13 10 0
11 8 1 19 1 23 0 4 -1 10 6 13 14 7 16 34 21 34 6z m300 -11 c0 -19 -20 -27
-33 -13 -8 7 11 33 24 33 5 0 9 -9 9 -20z m535 10 c3 -5 1 -10 -4 -10 -6 0
-11 5 -11 10 0 6 2 10 4 10 3 0 8 -4 11 -10z m-1358 -42 c7 -5 16 -7 21 -5 4
3 14 2 21 -2 10 -7 8 -14 -10 -32 -13 -13 -23 -30 -21 -37 2 -10 -3 -12 -17
-7 -12 4 -21 2 -21 -4 0 -6 -5 -11 -10 -11 -7 0 -7 7 1 21 6 12 7 25 2 29 -10
10 -53 -6 -53 -20 0 -6 -4 -8 -10 -5 -5 3 -10 17 -10 30 0 25 34 40 64 29 30
-11 16 14 -14 26 -16 7 -30 16 -30 21 0 9 67 -17 87 -33z m-2102 12 c-9 -28 2
-41 28 -31 31 10 57 3 50 -15 -6 -17 18 -19 34 -3 6 6 17 9 25 6 8 -3 1 -10
-19 -18 -17 -7 -34 -21 -36 -31 -3 -10 -10 -18 -16 -18 -6 0 -8 7 -5 15 8 20
-19 46 -37 34 -8 -5 -33 -9 -56 -9 -41 0 -55 -11 -32 -26 6 -3 15 -1 19 6 8
13 30 6 30 -11 0 -11 -60 -12 -76 -1 -24 15 -20 38 10 60 16 12 36 22 43 22 7
0 18 9 25 20 16 25 21 25 13 0z m2445 5 c0 -9 -11 -27 -24 -40 -15 -15 -20
-28 -15 -37 14 -21 10 -48 -6 -48 -9 0 -18 7 -21 15 -4 8 -10 12 -15 9 -5 -3
-7 -9 -4 -13 2 -5 -21 -9 -51 -10 -50 -1 -55 1 -44 14 7 9 10 19 6 22 -4 4
-10 3 -14 -2 -8 -11 -115 -17 -110 -6 2 3 10 18 17 34 16 31 32 36 24 7 -4
-14 0 -20 11 -20 10 0 15 4 12 8 -10 16 11 29 64 40 30 6 64 14 74 18 16 6 18
4 13 -9 -7 -19 17 -24 28 -7 3 6 1 10 -6 10 -18 0 1 17 26 23 33 8 35 8 35 -8z
m1585 -4 c-4 -13 0 -23 12 -30 17 -10 17 -11 -2 -8 -11 1 -21 7 -23 12 -4 14
5 45 13 45 3 0 4 -9 0 -19z m-81 -30 c3 -4 -3 -16 -13 -25 -22 -20 -40 -4 -21
19 14 17 26 19 34 6z m-4559 -11 c3 -5 -1 -10 -9 -10 -8 0 -18 5 -21 10 -3 6
1 10 9 10 8 0 18 -4 21 -10z m3858 -4 c4 -10 1 -13 -7 -10 -7 3 -16 -2 -20
-12 -5 -14 -9 -14 -22 -3 -15 12 -14 15 12 26 16 7 30 12 30 13 1 0 4 -7 7
-14z m430 -7 c184 -28 347 -189 375 -372 12 -80 -7 -206 -43 -276 -88 -175
-310 -288 -490 -251 -82 17 -202 81 -254 137 -47 50 -91 125 -91 155 0 10 -7
33 -16 50 -26 49 -21 165 11 264 45 137 196 263 352 293 67 12 75 12 156 0z
m-3489 -25 c4 -10 -1 -25 -10 -35 -18 -20 -64 -26 -64 -8 0 5 10 9 22 7 15 -2
23 2 24 12 2 34 4 40 13 40 5 0 12 -7 15 -16z m2357 6 c26 -14 24 -23 -8 -37
-30 -13 -103 -14 -103 -2 0 7 66 45 83 48 5 0 17 -4 28 -9z m199 0 c0 -5 7
-10 16 -10 14 0 14 -3 4 -15 -7 -8 -16 -15 -21 -15 -5 0 -6 7 -3 15 4 9 0 15
-10 15 -9 0 -16 -7 -16 -15 0 -8 -9 -15 -20 -15 -11 0 -20 5 -20 10 0 6 -9 10
-19 10 -26 0 -52 11 -47 19 7 11 136 12 136 1z m70 0 c0 -5 -4 -10 -10 -10 -5
0 -10 5 -10 10 0 6 5 10 10 10 6 0 10 -4 10 -10z m168 -26 c-23 -24 -38 -30
-38 -16 0 15 41 53 51 46 5 -3 -1 -16 -13 -30z m72 16 c0 -5 -7 -10 -16 -10
-8 0 -12 5 -9 10 3 6 10 10 16 10 5 0 9 -4 9 -10z m-187 -24 c-4 -20 -9 -23
-26 -17 -30 11 -32 29 -5 34 13 2 26 5 29 6 3 0 4 -10 2 -23z m243 -5 c-4 -6
-14 -7 -23 -4 -15 6 -14 7 3 13 22 9 29 6 20 -9z m-2842 0 c3 -5 -1 -12 -10
-15 -20 -8 -29 -1 -19 13 8 13 22 14 29 2z m2666 5 c0 -3 -4 -8 -10 -11 -5 -3
-10 -1 -10 4 0 6 5 11 10 11 6 0 10 -2 10 -4z m-3360 -32 c13 -34 13 -34 -15
-34 -20 0 -25 5 -25 23 0 44 25 50 40 11z m787 10 c-3 -3 -12 -4 -19 -1 -8 3
-5 6 6 6 11 1 17 -2 13 -5z m3755 -16 c-7 -7 -12 -8 -12 -2 0 14 12 26 19 19
2 -3 -1 -11 -7 -17z m-4487 -18 c-3 -5 -11 -10 -16 -10 -6 0 -7 5 -4 10 3 6
11 10 16 10 6 0 7 -4 4 -10z m2732 -42 c-3 -8 -6 -5 -6 6 -1 11 2 17 5 13 3
-3 4 -12 1 -19z m119 -4 c-4 -9 -9 -15 -11 -12 -3 3 -3 13 1 22 4 9 9 15 11
12 3 -3 3 -13 -1 -22z m121 4 c-3 -8 -6 -5 -6 6 -1 11 2 17 5 13 3 -3 4 -12 1
-19z m-2544 -3 c-3 -9 -8 -14 -10 -11 -3 3 -2 9 2 15 9 16 15 13 8 -4z m987
-2 c0 -10 -8 -27 -17 -38 -14 -18 -15 -18 -9 -2 3 10 6 27 6 38 0 10 5 19 10
19 6 0 10 -8 10 -17z m70 -12 c0 -6 -4 -13 -10 -16 -5 -3 -10 1 -10 9 0 9 5
16 10 16 6 0 10 -4 10 -9z m3001 -84 c-8 -8 -11 2 -11 34 0 59 14 73 18 19 2
-24 -2 -48 -7 -53z m-3763 71 c-2 -6 -10 -14 -16 -16 -7 -2 -10 2 -6 12 7 18
28 22 22 4z m49 -10 c-3 -8 -6 -5 -6 6 -1 11 2 17 5 13 3 -3 4 -12 1 -19z m65
-18 c-5 -13 -11 -19 -14 -14 -3 5 -1 20 4 34 13 31 22 12 10 -20z m338 32 c0
-5 -7 -17 -15 -28 -15 -19 -20 -8 -9 20 6 17 24 22 24 8z m-760 -9 c-1 -11
-26 -43 -33 -43 -4 0 -1 11 5 25 10 23 28 35 28 18z m102 -15 c-7 -7 -12 -8
-12 -2 0 14 12 26 19 19 2 -3 -1 -11 -7 -17z m705 0 c-3 -8 -6 -5 -6 6 -1 11
2 17 5 13 3 -3 4 -12 1 -19z m109 -20 c-19 -26 -20 -20 -5 19 6 15 13 22 16
16 2 -7 -3 -23 -11 -35z m271 20 c-3 -8 -6 -5 -6 6 -1 11 2 17 5 13 3 -3 4
-12 1 -19z m1704 -5 c-8 -15 -10 -15 -11 -2 0 17 10 32 18 25 2 -3 -1 -13 -7
-23z m65 -20 c-10 -26 -18 -8 -9 23 5 21 8 24 11 11 2 -10 1 -25 -2 -34z
m-2785 -10 c-11 -21 -20 -33 -21 -27 0 15 31 76 37 71 2 -3 -5 -22 -16 -44z
m445 21 c-4 -9 -9 -15 -11 -12 -3 3 -3 13 1 22 4 9 9 15 11 12 3 -3 3 -13 -1
-22z m-814 -6 c-7 -7 -12 -8 -12 -2 0 14 12 26 19 19 2 -3 -1 -11 -7 -17z
m758 14 c0 -5 -7 -17 -15 -28 -15 -19 -20 -8 -9 20 6 17 24 22 24 8z m-549
-45 c-10 -27 -31 -45 -31 -27 0 13 31 62 37 57 2 -2 -1 -16 -6 -30z m2689 18
c0 -8 -4 -15 -10 -15 -5 0 -10 7 -10 15 0 8 5 15 10 15 6 0 10 -7 10 -15z
m-1316 -10 c-4 -8 -10 -15 -15 -15 -5 0 -9 7 -9 15 0 8 7 15 15 15 9 0 12 -6
9 -15z m-1077 -27 c-3 -8 -6 -5 -6 6 -1 11 2 17 5 13 3 -3 4 -12 1 -19z m773
18 c0 -3 -4 -8 -10 -11 -5 -3 -10 -1 -10 4 0 6 5 11 10 11 6 0 10 -2 10 -4z
m-317 -31 c-3 -8 -9 -15 -14 -15 -10 0 -12 24 -3 33 11 11 24 -3 17 -18z m377
11 c0 -3 -4 -8 -10 -11 -5 -3 -10 -1 -10 4 0 6 5 11 10 11 6 0 10 -2 10 -4z
m60 0 c0 -3 -4 -8 -10 -11 -5 -3 -10 -1 -10 4 0 6 5 11 10 11 6 0 10 -2 10 -4z
m-970 -146 c0 -5 -5 -10 -11 -10 -5 0 -7 5 -4 10 3 6 8 10 11 10 2 0 4 -4 4
-10z m-270 -40 c0 -5 -2 -10 -4 -10 -3 0 -8 5 -11 10 -3 6 -1 10 4 10 6 0 11
-4 11 -10z m1638 -83 c18 -34 32 -66 32 -71 0 -4 -17 -5 -37 -2 -41 8 -73 37
-73 67 0 20 27 69 39 69 3 0 21 -28 39 -63z m-1658 23 c0 -5 -4 -10 -10 -10
-5 0 -10 5 -10 10 0 6 5 10 10 10 6 0 10 -4 10 -10z m4170 -127 c20 -112 26
-173 19 -185 -4 -6 -15 25 -24 68 -22 105 -22 105 -40 98 -19 -8 -19 6 0 32 8
10 15 27 15 37 0 41 18 12 30 -50z m-4240 50 c0 -24 -22 -83 -31 -83 -6 0 -8
8 -5 18 3 9 8 29 12 45 5 24 24 39 24 20z m50 -2 c0 -12 -20 -25 -27 -18 -7 7
6 27 18 27 5 0 9 -4 9 -9z m-159 -52 c-5 -13 -10 -19 -10 -12 -1 15 10 45 15
40 3 -2 0 -15 -5 -28z m302 -1 c-5 -26 -23 -40 -23 -18 0 10 23 51 26 47 1 -1
0 -14 -3 -29z m-171 -30 c-15 -15 -26 -4 -18 18 5 13 9 15 18 6 9 -9 9 -15 0
-24z m114 -84 c-6 -16 -46 -19 -46 -4 0 6 10 25 23 41 l22 31 3 -27 c2 -15 1
-33 -2 -41z m-166 25 c0 -5 -7 -9 -15 -9 -15 0 -20 12 -9 23 8 8 24 -1 24 -14z
m40 -15 c0 -8 -4 -14 -10 -14 -5 0 -10 9 -10 21 0 11 5 17 10 14 6 -3 10 -13
10 -21z m218 -21 c-12 -15 -44 -17 -53 -3 -3 5 -1 19 5 30 10 20 12 20 34 3
18 -13 21 -21 14 -30z m3986 11 c8 -22 -4 -40 -15 -23 -11 18 -11 39 0 39 5 0
12 -7 15 -16z m-4283 -102 c-5 -15 -15 -46 -21 -69 -11 -44 -30 -59 -30 -24 0
20 35 135 47 154 13 19 16 -31 4 -61z m65 41 c-3 -29 -36 -47 -36 -20 0 26 12
47 25 47 9 0 13 -10 11 -27z m4139 7 c-3 -5 -11 -10 -16 -10 -6 0 -7 5 -4 10
3 6 11 10 16 10 6 0 7 -4 4 -10z m-4292 -30 c-3 -11 -7 -20 -9 -20 -2 0 -4 9
-4 20 0 11 4 20 9 20 5 0 7 -9 4 -20z m47 17 c0 -2 -16 -53 -35 -113 -19 -60
-35 -117 -35 -126 0 -25 -20 -33 -37 -15 -13 13 -13 24 6 96 22 88 41 132 40
96 0 -11 -6 -38 -14 -60 -8 -22 -15 -50 -15 -63 0 -42 18 -13 30 46 14 72 39
142 51 142 5 0 9 -2 9 -3z m4327 -29 c-3 -8 -6 -5 -6 6 -1 11 2 17 5 13 3 -3
4 -12 1 -19z m-4257 -54 c0 -31 -50 -174 -60 -174 -7 0 14 96 36 168 3 12 24
17 24 6z m4310 -86 c0 -40 -13 -27 -28 28 -17 61 -15 73 8 36 11 -18 20 -47
20 -64z"/>
<path d="M4520 8728 c-24 -39 -28 -129 -6 -147 18 -15 26 5 26 67 0 52 12 78
29 68 6 -4 9 -11 6 -16 -3 -5 2 -13 11 -18 24 -13 36 -96 28 -201 -5 -77 -4
-93 7 -89 16 5 27 72 28 173 1 114 -7 143 -48 171 -47 31 -57 30 -81 -8z"/>
<path d="M4567 8654 c-4 -4 -7 -22 -7 -40 0 -42 -9 -64 -26 -64 -15 0 -18 -27
-8 -54 3 -9 14 -16 24 -16 10 0 20 -5 22 -12 2 -6 10 -8 17 -4 9 6 10 31 6 94
-6 84 -14 110 -28 96z"/>
<path d="M4640 8341 c0 -34 15 -49 24 -25 11 28 6 54 -9 54 -10 0 -15 -10 -15
-29z"/>
<path d="M4087 8428 c-13 -24 -37 -71 -52 -105 -15 -35 -33 -63 -39 -64 -6 0
-57 0 -113 1 -118 2 -127 -6 -57 -48 25 -15 66 -42 89 -59 l43 -33 -44 -104
c-47 -112 -53 -143 -29 -153 17 -6 114 49 182 104 23 18 50 33 60 33 10 0 62
-32 116 -71 54 -39 106 -69 115 -67 26 6 17 59 -23 145 -19 40 -35 80 -37 89
-2 11 22 32 72 63 112 70 109 74 -89 98 l-63 8 -40 103 c-23 58 -45 102 -53
102 -7 0 -24 -19 -38 -42z m61 -88 c13 -38 21 -74 17 -80 -6 -10 -94 -3 -107
9 -4 3 -1 20 7 36 8 17 21 47 29 68 8 20 19 37 23 37 4 0 18 -32 31 -70z
m-160 -125 c1 -1 -2 -14 -7 -29 l-10 -26 -46 22 c-63 31 -60 49 8 41 28 -3 53
-7 55 -8z m175 9 c30 -6 40 -13 51 -39 30 -70 30 -70 -26 -104 -61 -38 -76
-36 -139 19 -45 38 -46 41 -35 72 6 18 15 39 19 46 9 13 68 16 130 6z m200
-11 c27 -7 20 -19 -29 -44 l-45 -24 -20 24 c-32 39 -25 51 29 50 26 0 55 -3
65 -6z m-318 -145 c25 -17 45 -35 45 -39 0 -17 -167 -125 -177 -115 -4 4 22
79 57 164 13 29 21 28 75 -10z m223 -10 c14 -27 42 -107 42 -119 0 -17 -21 -9
-80 32 -33 22 -60 47 -60 55 0 11 61 52 81 54 3 0 11 -10 17 -22z"/>
<path d="M4236 7168 c-8 -13 -31 -66 -51 -118 -20 -52 -42 -101 -49 -108 -8
-8 -49 -14 -117 -17 -57 -2 -104 -7 -104 -12 0 -15 78 -79 123 -102 27 -14 42
-28 42 -41 0 -10 -18 -57 -41 -104 -39 -83 -48 -135 -23 -143 6 -2 37 14 70
35 32 21 86 54 119 74 l60 36 60 -31 c61 -32 78 -42 150 -90 76 -51 81 6 14
150 -16 34 -29 71 -29 81 0 13 23 34 66 63 123 80 121 89 -21 89 l-103 0 -51
104 c-28 57 -51 108 -51 113 0 11 -33 43 -43 43 -4 0 -13 -10 -21 -22z m51
-75 c8 -21 26 -62 40 -90 13 -29 22 -57 18 -63 -10 -16 -145 -13 -151 3 -8 23
55 187 73 187 2 0 11 -17 20 -37z m88 -206 c8 -13 17 -36 21 -53 7 -34 -5 -47
-82 -89 l-52 -27 -58 34 c-66 38 -77 64 -50 117 18 34 32 38 133 40 65 1 74
-1 88 -22z m158 8 c-1 -5 -22 -21 -48 -35 -39 -22 -47 -23 -55 -10 -20 31 -12
49 28 53 54 6 77 3 75 -8z m-417 -27 c-3 -18 -10 -35 -14 -39 -10 -10 -113 51
-106 62 3 5 32 9 66 9 l61 0 -7 -32z m93 -164 c19 -17 9 -28 -57 -65 -31 -18
-67 -41 -79 -52 -37 -33 -38 -12 -2 70 46 108 45 107 88 81 20 -11 42 -27 50
-34z m225 22 c19 -30 57 -128 51 -134 -5 -5 -153 86 -160 99 -6 9 62 57 81 58
7 1 19 -10 28 -23z"/>
<path d="M4263 5693 l-60 -108 -123 -5 c-83 -3 -125 -9 -127 -17 -4 -12 12
-28 86 -85 72 -54 72 -57 16 -140 -28 -40 -65 -92 -83 -116 -39 -52 -37 -77 5
-61 15 5 82 37 148 70 66 32 126 59 132 59 7 0 42 -27 80 -60 37 -33 71 -60
76 -60 4 0 26 -13 49 -30 22 -16 50 -30 61 -30 17 0 19 5 13 40 -3 22 -12 54
-20 72 -8 18 -26 68 -39 111 l-26 77 32 24 c18 14 61 42 97 64 51 31 65 44 65
63 0 24 -1 24 -125 29 l-124 5 -9 40 c-4 22 -12 56 -17 75 -5 19 -12 47 -15
63 -3 15 -12 27 -19 27 -8 0 -41 -48 -73 -107z m81 -29 c10 -31 14 -60 9 -64
-12 -11 -101 -21 -107 -12 -5 9 64 132 74 132 4 0 14 -25 24 -56z m20 -113
c19 -8 27 -21 36 -65 6 -31 9 -60 5 -66 -3 -5 -35 -26 -71 -46 -72 -40 -70
-41 -147 27 l-38 34 34 55 c32 54 34 55 88 61 30 3 57 6 61 7 4 1 18 -2 32 -7z
m219 0 c20 -3 1 -22 -55 -57 -34 -21 -66 -41 -70 -42 -11 -5 -40 67 -34 84 6
15 95 24 159 15z m-415 -16 c2 -1 -7 -19 -19 -39 l-21 -36 -37 21 c-84 51 -80
73 12 63 34 -4 63 -8 65 -9z m16 -178 c24 -20 36 -38 32 -45 -14 -23 -186 -95
-186 -78 0 14 94 156 103 156 7 0 30 -15 51 -33z m246 28 c0 -18 43 -162 56
-186 10 -21 11 -29 3 -29 -20 0 -145 90 -167 120 l-21 28 22 20 c38 34 107 64
107 47z"/>
<path d="M4262 4548 c-16 -24 -40 -68 -52 -98 -35 -82 -31 -80 -135 -80 -72 0
-95 -4 -106 -16 -11 -13 -6 -21 32 -55 24 -21 56 -47 71 -56 15 -9 29 -22 32
-28 4 -11 -36 -118 -71 -192 -18 -40 -14 -67 12 -71 11 -1 64 27 120 63 55 36
105 65 112 65 6 0 38 -18 70 -40 117 -81 128 -88 149 -94 11 -3 27 0 36 6 14
12 12 22 -24 108 -71 168 -70 156 -13 207 28 24 65 51 83 59 62 26 35 39 -86
42 l-112 3 -26 87 c-45 153 -47 155 -92 90z m61 -100 c14 -40 23 -76 19 -79
-4 -4 -33 -4 -64 -2 -42 4 -58 10 -58 20 0 19 60 133 70 133 4 0 19 -33 33
-72z m-182 -124 c9 -5 -9 -64 -20 -64 -13 0 -81 51 -77 58 5 9 85 14 97 6z
m222 -3 c7 -1 17 -21 31 -68 6 -19 -3 -29 -55 -68 -35 -25 -67 -45 -72 -45 -6
0 -32 17 -59 38 -53 40 -56 54 -29 125 l11 29 83 -6 c45 -3 85 -5 90 -5z m137
0 c0 -11 -54 -51 -68 -51 -13 0 -25 36 -17 50 8 13 85 13 85 1z m-45 -211 c61
-139 57 -147 -40 -75 -33 24 -71 52 -84 61 l-25 18 45 38 c24 21 50 37 57 36
7 -2 28 -37 47 -78z m-257 32 l33 -25 -22 -23 c-13 -13 -27 -24 -32 -24 -6 0
-25 -11 -43 -25 -39 -30 -59 -33 -49 -7 4 9 13 33 21 52 37 103 29 99 92 52z"/>
<path d="M2569 3947 c7 -10 20 -17 27 -17 8 0 14 -7 14 -15 0 -12 -4 -13 -19
-5 -35 18 -41 12 -41 -45 0 -30 2 -55 5 -55 4 0 73 32 108 51 14 8 22 6 33 -8
13 -17 13 -17 14 5 0 12 -4 22 -10 22 -5 0 -10 6 -10 13 0 25 -45 56 -90 63
-41 7 -44 6 -31 -9z"/>
<path d="M2510 3830 c0 -5 5 -10 10 -10 6 0 10 5 10 10 0 6 -4 10 -10 10 -5 0
-10 -4 -10 -10z"/>
<path d="M4346 3183 c-9 -10 -68 -136 -91 -195 -10 -27 -23 -49 -29 -50 -6 -1
-51 -2 -101 -2 -115 -1 -118 -12 -25 -91 38 -33 70 -67 70 -76 0 -17 -55 -181
-71 -211 -13 -23 -2 -58 17 -58 8 0 61 36 119 81 72 55 111 78 123 75 10 -4
47 -31 83 -61 35 -30 87 -67 116 -82 82 -44 84 -31 23 142 -29 80 -49 149 -45
153 3 4 36 30 73 57 44 33 68 59 70 74 l4 23 -104 -3 -103 -4 -42 85 c-23 47
-45 100 -49 118 -6 30 -22 41 -38 25z m48 -144 c21 -45 34 -85 29 -90 -12 -12
-121 -15 -133 -3 -9 9 -2 34 41 147 6 15 14 27 19 27 4 0 24 -37 44 -81z m43
-127 c7 -4 19 -28 28 -52 15 -41 14 -44 -5 -65 -12 -12 -40 -36 -64 -53 l-42
-31 -62 41 c-65 43 -69 50 -48 108 13 34 14 35 92 46 43 6 81 12 84 12 3 1 10
-2 17 -6z m163 -1 c0 -9 -73 -71 -83 -71 -9 0 -27 62 -21 71 7 12 104 12 104
0z m-390 -32 c0 -11 -5 -29 -11 -41 -11 -20 -12 -19 -45 13 -19 18 -34 37 -34
41 0 4 20 8 45 8 39 0 45 -3 45 -21z m290 -114 c0 -2 16 -47 34 -99 19 -53 31
-98 26 -101 -10 -6 -160 110 -160 124 0 11 77 81 90 81 6 0 10 -2 10 -5z
m-204 -76 c12 -13 8 -19 -34 -50 -68 -49 -104 -71 -109 -66 -5 6 44 137 58
154 9 10 17 10 41 -5 16 -9 36 -24 44 -33z"/>
<path d="M2527 2921 c-5 -22 1 -33 14 -25 12 7 12 44 0 44 -5 0 -11 -9 -14
-19z"/>
<path d="M2480 2825 c-10 -12 -10 -15 3 -15 19 0 31 16 18 24 -5 3 -14 -1 -21
-9z"/>
<path d="M2581 2819 c-19 -7 -22 -12 -12 -22 13 -13 42 0 49 21 4 14 -4 14
-37 1z"/>
<path d="M2395 2790 c3 -5 10 -10 16 -10 5 0 9 5 9 10 0 6 -7 10 -16 10 -8 0
-12 -4 -9 -10z"/>
<path d="M2130 2589 c0 -5 5 -7 10 -4 6 3 10 8 10 11 0 2 -4 4 -10 4 -5 0 -10
-5 -10 -11z"/>
<path d="M2151 2514 c0 -11 3 -14 6 -6 3 7 2 16 -1 19 -3 4 -6 -2 -5 -13z"/>
<path d="M2820 2480 c0 -5 7 -10 15 -10 8 0 15 5 15 10 0 6 -7 10 -15 10 -8 0
-15 -4 -15 -10z"/>
<path d="M3050 2312 c0 -18 37 -42 64 -42 8 0 19 -7 26 -15 16 -20 28 -19 32
3 3 12 -11 25 -46 45 -58 32 -76 34 -76 9z"/>
<path d="M997 2272 c-21 -23 -22 -46 -1 -63 18 -15 15 -54 -10 -159 -18 -70
-14 -131 10 -190 8 -19 24 -78 35 -130 11 -52 24 -105 29 -117 17 -41 80 -72
175 -88 86 -14 105 -13 105 5 0 22 -33 38 -91 44 -35 3 -82 15 -105 26 -36 18
-44 28 -58 71 -9 28 -21 69 -25 92 -5 23 -19 77 -32 119 l-23 77 19 78 c10 43
19 93 21 110 1 18 5 45 8 60 6 29 -11 74 -30 80 -6 2 -18 -5 -27 -15z"/>
<path d="M1124 2106 c-16 -41 45 -134 162 -250 64 -64 142 -119 155 -110 14 8
-37 61 -82 84 -55 29 -183 191 -200 255 -10 36 -26 45 -35 21z"/>
<path d="M1905 1757 c-27 -17 -90 -57 -140 -89 -88 -57 -91 -59 -142 -52 -44
5 -53 4 -53 -9 0 -15 48 -37 82 -37 11 0 52 21 91 47 40 25 97 60 127 76 74
40 122 76 115 88 -10 14 -26 9 -80 -24z"/>
<path d="M1423 1615 c-7 -21 -6 -21 49 -28 50 -7 68 4 48 28 -17 20 -89 20
-97 0z"/>
<path d="M653 2184 c-7 -18 8 -49 23 -49 5 0 10 15 12 33 2 24 -1 32 -13 32
-8 0 -18 -7 -22 -16z"/>
<path d="M651 2006 c-9 -10 -9 -16 -1 -21 17 -10 37 12 24 25 -8 8 -15 6 -23
-4z"/>
<path d="M404 1865 c-7 -17 4 -37 17 -30 12 8 12 45 -1 45 -6 0 -13 -7 -16
-15z"/>
<path d="M4697 1834 c-4 -4 -7 -20 -7 -36 0 -21 5 -28 19 -28 15 0 18 7 17 32
-1 31 -15 46 -29 32z"/>
<path d="M4644 1815 c-3 -8 -3 -19 1 -25 11 -18 25 -11 25 15 0 27 -17 34 -26
10z"/>
<path d="M4800 1769 c0 -5 5 -7 10 -4 6 3 10 8 10 11 0 2 -4 4 -10 4 -5 0 -10
-5 -10 -11z"/>
<path d="M4632 1728 c5 -15 28 -18 29 -3 0 6 -7 12 -17 13 -10 3 -15 -1 -12
-10z"/>
<path d="M4700 1669 c0 -5 5 -7 10 -4 6 3 10 8 10 11 0 2 -4 4 -10 4 -5 0 -10
-5 -10 -11z"/>
<path d="M4325 1697 c-4 -10 -5 -21 -1 -24 10 -10 18 4 13 24 -4 17 -4 17 -12
0z"/>
<path d="M3674 1786 c-6 -17 2 -36 17 -36 12 0 12 37 -1 45 -6 3 -13 -1 -16
-9z"/>
<path d="M3627 1754 c-3 -3 -3 -13 0 -21 5 -12 7 -12 14 -1 15 23 4 40 -14 22z"/>
<path d="M3677 1705 c-5 -10 0 -15 14 -15 12 0 19 5 17 12 -6 18 -25 20 -31 3z"/>
<path d="M3678 1649 c-23 -13 -23 -32 -1 -27 9 2 17 11 19 21 1 9 2 17 1 17
-1 0 -10 -5 -19 -11z"/>
<path d="M4397 1422 c-16 -17 -29 -47 -87 -192 l-18 -45 -84 -1 c-116 -2 -118
-3 -118 -16 0 -15 51 -58 98 -82 18 -9 35 -23 38 -30 6 -14 -56 -200 -78 -235
-8 -14 -9 -24 -2 -31 7 -7 45 13 123 65 61 41 116 75 121 75 11 0 186 -116
215 -142 10 -10 24 -17 30 -15 21 7 14 56 -25 167 l-40 115 27 23 c51 43 117
82 139 82 26 0 50 25 34 35 -6 3 -50 2 -98 -4 -82 -9 -148 -9 -155 0 -2 2 -19
51 -37 109 -46 149 -52 157 -83 122z m55 -144 c15 -44 25 -85 22 -90 -3 -4
-34 -8 -70 -8 -75 0 -76 2 -38 93 26 63 41 87 53 87 4 0 19 -37 33 -82z m-187
-138 c7 -11 -11 -50 -23 -50 -4 0 -23 13 -42 30 l-35 29 47 1 c26 0 50 -4 53
-10z m233 -3 c6 -7 16 -25 21 -40 10 -26 7 -29 -51 -72 -34 -25 -66 -45 -72
-45 -17 0 -116 73 -116 86 0 7 9 29 21 48 l21 36 83 0 c55 0 86 -4 93 -13z
m132 5 c0 -4 -16 -16 -35 -26 -26 -14 -39 -16 -47 -8 -21 21 -1 42 42 42 22 0
40 -3 40 -8z m-56 -201 c16 -45 26 -85 22 -88 -6 -6 -115 56 -148 85 -10 8
-15 19 -12 24 11 18 88 68 98 65 6 -2 24 -40 40 -86z m-224 9 c0 -10 -113 -80
-129 -80 -8 0 -10 8 -7 20 3 11 9 30 12 42 4 12 13 36 20 55 l15 34 44 -31
c25 -17 45 -35 45 -40z"/>
<path d="M2240 8630 c-267 -5 -275 -6 -275 -25 0 -17 8 -20 52 -23 32 -2 53
-8 57 -17 3 -8 28 -45 55 -83 28 -39 51 -75 51 -81 0 -7 -23 -11 -59 -11 -33
0 -63 -5 -67 -11 -16 -26 18 -31 188 -29 95 1 260 3 365 4 106 2 196 6 200 9
10 10 -2 19 -39 26 l-33 7 -2 87 c-3 77 -1 88 16 97 11 5 28 10 39 10 11 0 25
6 31 14 9 11 8 15 -6 22 -22 9 -210 11 -573 4z m100 -58 c0 -15 -59 -103 -91
-137 -9 -9 -71 49 -104 98 -31 48 -17 57 95 57 89 0 100 -2 100 -18z m126 5
c2 -7 6 -51 7 -97 l2 -85 -85 -5 c-47 -3 -88 -3 -92 0 -4 3 12 35 35 71 23 37
50 81 59 98 12 22 24 31 43 31 14 0 28 -6 31 -13z m93 -27 c3 -19 5 -62 6 -95
0 -53 -2 -60 -20 -60 -18 0 -20 8 -25 88 -6 100 -4 109 18 105 9 -2 18 -17 21
-38z m124 -52 c1 -48 -1 -89 -4 -92 -3 -3 -16 -7 -30 -8 -23 -3 -24 0 -21 42
2 25 -1 65 -7 89 -12 55 -8 63 31 59 l30 -3 1 -87z"/>
<path d="M70 2046 c0 -8 4 -17 9 -20 11 -7 33 18 24 27 -12 12 -33 7 -33 -7z"/>
<path d="M198 1884 c-3 -3 -4 -14 -1 -25 8 -28 33 -24 33 6 0 23 -18 34 -32
19z"/>
<path d="M1280 639 c-173 -16 -196 -20 -257 -40 -70 -23 -147 -71 -170 -106
-12 -19 -14 -39 -9 -94 12 -133 94 -203 296 -252 113 -27 267 -47 370 -48 99
-1 260 11 278 21 10 4 46 19 82 31 102 36 189 139 190 224 0 43 -50 100 -119
134 -89 45 -261 109 -321 120 -82 15 -244 20 -340 10z m195 -49 c197 -13 303
-43 415 -115 75 -48 95 -69 104 -108 15 -61 -60 -137 -168 -169 -17 -4 -106
-11 -197 -15 -163 -6 -258 3 -443 38 -89 17 -244 97 -291 149 -30 33 -26 92 9
129 58 60 160 86 396 99 14 1 93 -3 175 -8z"/>
<path d="M1483 549 c-41 -26 -131 -59 -146 -54 -32 11 -212 24 -220 16 -5 -5
13 -21 44 -39 l52 -30 -71 -36 c-53 -27 -72 -41 -72 -56 0 -24 27 -25 181 -9
57 6 120 11 139 12 36 1 123 -34 136 -54 9 -16 114 -60 125 -54 15 10 10 38
-11 70 -39 59 -21 75 100 92 38 6 55 13 55 23 0 10 -12 16 -35 18 -178 13
-220 28 -220 78 0 37 -22 45 -57 23z m25 -110 c40 -15 26 -36 -29 -42 -40 -5
-60 -2 -93 15 -52 26 -53 27 -36 39 16 10 120 2 158 -12z m-192 -33 c10 -8 16
-17 13 -20 -10 -10 -165 -20 -156 -10 11 12 88 43 108 43 8 1 24 -5 35 -13z
m254 -57 c15 -26 7 -34 -19 -19 -22 11 -26 22 -14 33 11 12 22 8 33 -14z"/>
<path d="M4580 488 c-42 -12 -46 -15 -54 -51 -5 -23 -2 -29 16 -36 20 -7 15
-10 -34 -20 -31 -7 -62 -19 -68 -27 -20 -23 6 -44 56 -44 50 0 68 -17 27 -26
-94 -20 -133 -45 -112 -70 7 -9 32 -14 70 -14 46 0 59 -3 59 -15 0 -11 -12
-15 -44 -15 -56 0 -97 -29 -80 -57 11 -18 54 -31 54 -17 0 4 -7 16 -17 26 -15
17 -14 18 35 18 l51 0 6 -55 c4 -30 11 -55 15 -55 16 0 29 27 32 70 l3 45 145
16 c80 9 153 19 162 23 27 12 29 35 5 48 -20 11 -69 12 -271 4 -23 0 -41 4
-43 11 -3 9 19 13 79 15 104 4 106 22 3 26 -120 5 -88 22 40 22 96 0 115 3
115 15 0 12 -19 15 -110 15 -62 0 -110 4 -110 9 0 6 21 11 47 13 68 4 69 28 1
29 l-53 2 42 6 c44 7 83 34 83 57 0 40 -69 55 -150 32z m95 -37 c8 -14 -7 -20
-37 -14 -15 3 -25 9 -22 14 7 12 51 12 59 0z m-128 -107 c-3 -3 -12 -4 -19 -1
-8 3 -5 6 6 6 11 1 17 -2 13 -5z m-2 -104 c-3 -5 -24 -10 -46 -10 -21 0 -39 5
-39 10 0 6 21 10 46 10 27 0 43 -4 39 -10z m321 -37 c-5 -5 -211 -32 -253 -33
-14 0 -23 6 -23 15 0 19 23 24 145 33 89 7 147 0 131 -15z"/>
<path d="M4653 129 c-24 -9 -31 -33 -12 -44 19 -12 59 4 59 24 0 23 -18 31
-47 20z"/>
</g>
</svg>
