<?xml version="1.0" standalone="no"?>
<!DOCTYPE svg PUBLIC "-//W3C//DTD SVG 20010904//EN"
 "http://www.w3.org/TR/2001/REC-SVG-20010904/DTD/svg10.dtd">
<svg version="1.0" xmlns="http://www.w3.org/2000/svg"
 width="500.000000pt" height="878.000000pt" viewBox="0 0 500.000000 878.000000"
 preserveAspectRatio="xMidYMid meet">
<metadata>
Created by potrace 1.15, written by Peter Selinger 2001-2017
</metadata>
<g transform="translate(0.000000,878.000000) scale(0.100000,-0.100000)"
fill="#000000" stroke="none">
<path d="M2285 8640 c-39 -3 -76 -9 -83 -14 -21 -13 -2 -26 38 -26 35 0 41 -3
47 -27 4 -16 8 -64 8 -107 l0 -80 -43 -10 c-24 -6 -44 -15 -45 -21 -3 -13 30
-14 188 -4 72 4 187 10 258 13 70 3 132 8 137 11 21 13 -2 23 -52 23 -29 0
-59 0 -66 1 -7 1 -26 22 -42 48 l-30 46 22 36 c33 56 68 90 97 93 14 2 25 8
23 13 -2 11 -335 14 -457 5z m305 -37 c-1 -13 -38 -53 -49 -53 -5 0 -17 10
-25 22 -12 17 -13 24 -3 30 15 10 77 10 77 1z m-122 -58 l43 -56 -42 -49 c-66
-79 -86 -75 -93 17 -3 34 -6 65 -8 70 -1 4 1 23 5 41 11 51 43 43 95 -23z
m109 -139 c-8 -19 -37 -21 -37 -3 0 7 5 18 12 25 15 15 33 -1 25 -22z"/>
<path d="M3515 7305 c-3 -8 -7 -22 -10 -30 -2 -8 -11 -12 -18 -9 -20 7 -27
-27 -16 -73 12 -55 11 -83 -5 -83 -24 0 -64 -40 -71 -70 -7 -32 33 -134 62
-157 14 -11 14 -15 2 -29 -8 -10 -15 -38 -15 -63 -1 -25 -5 -73 -8 -106 -10
-80 10 -117 89 -171 l60 -40 3 -62 c3 -61 2 -62 -23 -62 -62 0 -167 -105 -180
-180 -8 -49 -2 -60 36 -60 19 0 29 -5 29 -14 0 -21 38 -45 61 -39 20 6 27 -15
9 -33 -6 -6 3 -19 26 -38 31 -24 38 -26 66 -17 43 15 48 14 48 -12 0 -32 -63
-158 -92 -185 -23 -21 -29 -22 -71 -12 -30 6 -55 6 -71 0 -22 -8 -30 -4 -66
37 -28 32 -56 52 -87 62 -40 14 -48 21 -57 53 -6 21 -18 46 -27 55 -24 27
-169 157 -185 166 -8 5 -60 10 -117 13 -150 7 -173 12 -186 40 -20 45 -7 89
29 96 11 2 15 -7 15 -36 0 -45 24 -68 53 -50 23 15 28 44 8 44 -9 0 -16 2 -16
5 0 11 43 85 56 96 8 6 14 20 14 30 0 11 28 40 73 73 124 95 197 206 205 317
5 76 -15 126 -76 187 -44 44 -176 111 -281 142 -41 12 -84 28 -95 35 -34 23
-163 38 -254 31 -135 -11 -284 -91 -336 -180 -27 -47 -32 -80 -17 -130 5 -17
14 -53 20 -79 6 -26 19 -60 28 -74 21 -31 18 -69 -8 -129 -14 -30 -18 -55 -14
-75 9 -38 111 -157 142 -165 22 -6 24 -11 21 -58 -2 -42 -6 -50 -20 -48 -10 1
-35 -6 -57 -18 -22 -11 -56 -20 -76 -20 -101 0 -278 -152 -337 -290 -50 -116
-41 -106 -105 -104 -32 1 -77 7 -100 14 -51 16 -83 8 -127 -30 -40 -35 -45
-36 -96 -10 -53 27 -66 26 -132 -15 -34 -21 -82 -40 -115 -47 -32 -5 -73 -16
-91 -24 -43 -18 -62 -18 -77 2 -10 14 -34 17 -136 19 -124 3 -190 10 -220 26
-13 7 -16 30 -17 136 -2 163 6 207 36 211 12 2 22 -1 22 -7 0 -16 61 -51 87
-51 11 0 40 16 63 35 23 19 46 35 51 35 20 0 45 89 54 195 1 17 3 35 4 42 0 6
10 15 21 18 41 13 53 50 55 163 1 59 8 126 15 149 7 24 10 56 6 79 -8 40 -54
94 -81 94 -22 0 -59 86 -56 132 1 32 -5 44 -47 87 -28 30 -57 51 -69 51 -12 0
-40 -16 -63 -35 -57 -48 -72 -46 -64 5 5 31 3 45 -11 60 -10 11 -23 30 -29 43
-7 12 -23 23 -37 25 -36 4 -101 -77 -93 -117 5 -23 0 -31 -35 -54 -32 -21 -41
-34 -41 -55 0 -15 -7 -38 -16 -51 -13 -18 -14 -28 -5 -48 6 -13 9 -29 6 -34
-9 -14 -41 -11 -55 6 -22 26 -40 17 -60 -31 -16 -35 -19 -60 -15 -116 4 -64 8
-75 37 -105 30 -31 31 -35 18 -56 -48 -75 -59 -121 -39 -159 14 -27 1 -40 -54
-53 -37 -10 -42 -14 -45 -42 -4 -38 34 -130 59 -143 9 -6 45 -7 78 -4 53 6 61
5 61 -10 0 -9 7 -19 15 -23 9 -3 22 -18 31 -34 16 -33 39 -37 66 -12 17 15 18
15 18 -3 0 -10 5 -59 11 -109 13 -115 8 -138 -29 -129 -15 4 -31 10 -37 14
-43 31 -154 19 -200 -21 -18 -16 -41 -29 -52 -29 -11 0 -32 -14 -49 -31 -16
-17 -44 -39 -61 -51 l-33 -20 1 -1446 0 -1447 20 64 c17 52 32 75 77 121 86
85 135 105 257 105 82 0 109 -4 148 -22 113 -52 186 -142 214 -264 28 -127 -9
-249 -104 -341 -26 -26 -75 -60 -108 -75 -80 -37 -199 -39 -287 -4 -74 29
-159 106 -192 174 l-25 52 -1 -678 c0 -450 3 -676 10 -672 6 3 10 15 10 25 0
32 45 123 84 167 43 49 133 97 214 114 168 34 329 -48 405 -209 29 -60 32 -77
32 -157 0 -78 -4 -97 -28 -146 -39 -80 -97 -141 -164 -174 -83 -41 -91 -43
-157 -48 -96 -6 -214 43 -287 120 -72 77 -97 130 -109 238 -4 33 -8 -99 -9
-292 -1 -308 1 -353 14 -353 8 0 15 5 15 10 0 6 8 10 18 10 10 0 23 5 30 12 7
7 30 11 52 10 51 -3 60 15 28 58 -23 31 -23 32 -4 46 25 18 40 18 56 -1 7 -8
28 -15 46 -15 25 0 32 -4 28 -15 -3 -7 6 -30 21 -49 20 -26 36 -36 68 -41 94
-14 201 -3 237 25 14 11 35 24 47 30 12 5 24 19 28 32 14 45 25 50 59 29 51
-32 126 -28 126 6 0 12 -8 13 -41 8 -30 -5 -45 -3 -58 9 -35 32 -111 18 -111
-20 0 -20 -8 -17 -35 13 l-24 28 -27 -27 -28 -28 22 -29 c22 -30 22 -30 3 -41
-23 -12 -35 1 -27 28 4 10 0 27 -8 37 -12 16 -19 18 -43 9 -23 -8 -28 -15 -28
-44 0 -44 -19 -46 -22 -3 -1 18 -8 42 -16 53 -13 19 -14 19 -40 -6 -15 -14
-27 -34 -27 -46 0 -17 -2 -18 -15 -8 -27 22 -17 48 25 70 41 21 49 37 28 58
-24 24 25 29 205 19 79 -4 120 -2 155 8 59 19 86 19 101 1 7 -8 28 -17 49 -20
20 -3 54 -8 74 -12 29 -5 46 -1 73 15 43 25 53 26 93 6 52 -26 174 8 180 50 2
17 67 55 95 55 4 0 7 -28 7 -62 0 -34 5 -76 12 -95 10 -28 9 -38 -10 -72 -26
-46 -28 -79 -6 -88 8 -3 70 9 137 27 158 42 221 50 272 34 142 -44 243 -62
407 -70 87 -5 142 -3 175 5 84 21 116 30 193 53 78 22 138 26 300 16 112 -7
148 -15 175 -38 46 -41 142 -70 225 -70 166 2 236 -2 315 -15 67 -12 131 -14
256 -10 112 3 176 2 195 -6 31 -12 511 -14 617 -3 l58 7 -4 -49 c-4 -38 -9
-50 -23 -52 -93 -14 -148 -48 -124 -77 14 -17 70 -34 115 -36 29 -1 30 -1 5
-9 -14 -4 -46 -8 -71 -9 -50 -1 -73 -18 -63 -45 9 -24 46 -36 109 -36 30 0 57
-4 60 -10 4 -6 -11 -10 -37 -11 -108 -1 -161 -19 -156 -52 4 -30 43 -35 58 -8
9 18 20 21 74 21 63 0 64 0 70 -30 4 -24 11 -30 32 -30 23 0 25 3 20 24 -8 31
3 37 40 27 24 -7 26 -10 12 -16 -29 -12 -22 -37 10 -33 21 2 27 8 26 26 0 13
5 22 14 22 8 0 29 7 48 16 l34 16 0 100 0 100 -25 -6 c-18 -5 -25 -2 -25 8 0
15 -56 36 -97 36 -12 0 -25 5 -28 10 -4 7 7 8 34 4 50 -8 91 15 91 51 0 27
-33 55 -67 55 -13 0 -23 4 -23 9 0 21 34 41 70 41 21 0 45 3 54 6 15 6 16 228
16 2421 0 1607 -3 2412 -10 2408 -5 -3 -10 1 -10 9 0 8 5 18 10 21 6 3 10 40
10 81 0 44 -4 73 -9 69 -5 -3 -12 4 -16 15 -4 11 -25 30 -47 41 -53 27 -88 15
-88 -31 0 -16 -5 -30 -10 -30 -6 0 -8 15 -4 38 7 46 -15 73 -46 55 -9 -7 -34
-15 -54 -18 -48 -10 -49 15 -1 44 19 11 35 25 35 31 0 6 -14 24 -32 40 -29 26
-30 32 -20 55 7 14 12 43 12 63 0 21 7 47 14 58 8 12 16 50 18 85 3 57 5 64
25 67 17 3 22 -3 25 -24 4 -37 25 -42 39 -10 17 37 27 32 31 -16 3 -37 8 -46
40 -67 32 -20 36 -28 31 -52 -9 -47 4 -81 30 -77 20 3 22 10 25 64 2 50 -1 63
-17 78 -17 15 -18 22 -8 44 6 15 15 30 20 33 4 3 4 38 -1 77 -5 40 -5 72 0 72
4 0 8 11 8 25 0 23 -4 25 -42 25 -29 0 -49 -7 -65 -22 l-23 -21 -15 36 c-8 20
-15 41 -15 47 0 17 -30 11 -36 -7 -11 -34 -47 -98 -76 -136 -28 -36 -29 -42
-27 -121 l3 -84 -37 -41 -37 -41 0 225 c0 206 2 226 18 232 9 3 34 22 55 42
33 31 40 34 57 23 31 -19 42 -15 94 34 l48 46 -6 56 c-3 31 -8 74 -12 95 -3
20 -2 43 4 50 17 21 -4 117 -33 147 -28 29 -31 56 -10 84 23 31 19 98 -9 139
-14 20 -26 46 -28 59 -2 17 -10 24 -33 26 -33 4 -95 61 -95 87 0 22 -43 95
-55 95 -5 0 -35 -18 -65 -39 -44 -30 -56 -44 -58 -70 -3 -24 -10 -34 -35 -45
-49 -21 -116 -97 -131 -147 -11 -35 -18 -45 -44 -51 -44 -12 -99 -80 -111
-140 -22 -101 -12 -147 39 -173 16 -8 31 -24 35 -35 3 -11 13 -20 21 -20 18 0
18 -15 -2 -45 -32 -48 -38 -158 -11 -199 18 -27 19 -27 97 -20 76 6 80 5 135
-26 l58 -33 -5 -179 c-3 -98 -7 -180 -10 -183 -12 -12 -181 -10 -197 2 -35 27
-68 15 -123 -43 -70 -74 -128 -107 -187 -108 -34 -1 -50 4 -63 19 -24 29 -26
18 -32 -210 -8 -279 -11 -294 -52 -311 -51 -21 -96 -17 -161 15 -85 42 -130
95 -138 163 -4 30 -6 61 -5 68 4 28 0 40 -13 40 -28 0 -37 22 -21 52 9 17 14
50 13 78 -2 44 2 56 40 107 23 32 48 73 57 91 16 35 30 40 60 17 27 -20 36
-18 32 8 -2 12 -13 26 -25 32 -13 5 -23 13 -23 17 0 12 5 10 44 -13 39 -23 60
-18 51 12 -5 14 -2 17 8 13 8 -3 27 5 42 18 87 72 93 92 32 95 -21 1 -45 6
-54 11 -19 11 -133 4 -147 -9 -6 -5 -16 -9 -24 -9 -12 0 -12 3 -2 15 7 8 17
15 22 15 12 0 78 53 78 63 0 17 -69 4 -122 -22 -32 -16 -58 -25 -58 -19 0 19
49 57 89 69 48 14 69 42 51 65 -9 10 -26 12 -69 8 -71 -8 -92 -22 -116 -73
-18 -41 -35 -54 -35 -26 0 8 10 35 22 60 18 36 32 50 67 66 35 15 47 17 58 7
12 -10 18 -9 29 7 13 17 15 18 33 1 18 -17 20 -17 29 0 9 16 13 16 63 -5 63
-27 113 -71 140 -123 22 -42 26 -108 16 -260 -4 -55 -3 -99 2 -103 15 -8 21 8
27 74 4 34 11 61 15 61 15 0 31 78 20 99 -6 10 -15 39 -20 63 -6 25 -13 53
-17 64 -6 17 -5 17 17 -3 22 -20 29 -21 61 -12 20 5 49 24 64 42 14 18 35 35
45 39 11 4 19 17 19 28 0 24 -56 80 -80 80 -15 0 -161 140 -198 190 -10 14
-26 45 -36 70 -30 76 -46 103 -81 145 -51 61 -88 95 -103 95 -31 0 -18 -29 38
-89 59 -61 100 -125 100 -155 0 -8 -9 -18 -20 -21 -23 -7 -25 -26 -9 -58 7
-12 -7 -1 -30 26 -24 26 -48 47 -54 47 -7 0 -18 4 -26 9 -13 8 -13 12 -1 26
12 14 12 18 -1 26 -21 13 -44 6 -41 -14 2 -9 -3 -17 -10 -17 -20 0 -88 49 -88
63 0 7 5 4 11 -5 14 -24 38 -22 73 5 35 29 27 52 -15 43 -22 -4 -27 -2 -22 9
3 9 0 21 -6 29 -8 10 -8 16 3 25 8 7 12 27 11 51 -1 22 2 40 6 40 5 0 9 -7 9
-15 0 -16 35 -21 45 -6 3 5 20 7 38 4 40 -6 60 13 55 54 -3 24 -7 28 -34 27
l-31 -2 13 37 c27 74 10 121 -52 147 -41 17 -42 27 -9 60 38 38 29 58 -16 34
-38 -21 -8 53 36 88 14 11 25 23 25 27 0 12 -53 -25 -77 -54 -26 -30 -31 -12
-7 25 25 38 9 40 -25 3 -36 -39 -49 -34 -27 10 20 39 20 41 -4 41 -11 0 -23
-7 -25 -15z m1108 -109 c3 -8 3 -30 0 -49 -6 -40 16 -68 47 -60 13 4 20 0 20
-9 0 -8 6 -22 13 -32 12 -16 17 -17 37 -6 18 10 24 9 31 -1 4 -7 5 -17 2 -22
-2 -4 7 -20 21 -34 14 -14 26 -36 26 -49 0 -25 -15 -40 -25 -24 -6 10 -65 -14
-65 -27 0 -4 9 -17 21 -29 25 -26 20 -39 -18 -47 -16 -3 -37 -13 -48 -21 -19
-14 -19 -16 -3 -32 15 -15 22 -16 56 -6 55 17 99 15 106 -4 11 -28 6 -34 -27
-34 -22 0 -41 -8 -53 -21 -18 -20 -18 -21 4 -38 12 -9 30 -30 39 -46 60 -111
66 -140 32 -150 -24 -8 -22 -11 -40 40 -9 24 -22 41 -34 44 -11 2 -24 10 -30
17 -9 12 -18 12 -64 0 -29 -7 -57 -19 -61 -26 -12 -19 -5 -87 10 -105 21 -25
0 -36 -43 -24 -33 9 -37 13 -37 43 0 65 -55 91 -98 48 -12 -12 -33 -24 -47
-28 -16 -4 -25 -13 -25 -25 0 -24 -25 -35 -44 -19 -8 6 -18 25 -22 43 -5 26
-2 34 21 53 20 16 25 27 20 43 -4 15 -2 21 8 21 27 0 37 24 27 60 -5 19 -15
37 -21 41 -18 11 -57 -10 -63 -34 -5 -20 -6 -20 -24 -4 -10 9 -26 17 -34 17
-23 0 -26 17 -14 102 14 91 30 113 92 123 53 8 85 34 77 64 -4 16 1 23 21 31
16 6 26 17 26 29 0 13 12 27 33 37 44 22 67 53 67 91 0 24 7 36 33 51 40 25
43 26 50 8z m-4096 -48 c5 -7 14 -29 20 -50 9 -29 8 -39 -5 -51 -22 -23 1 -77
34 -77 12 0 25 4 28 9 3 5 15 7 25 4 15 -4 24 5 40 36 27 53 52 53 102 2 34
-36 37 -44 32 -78 -3 -21 -7 -40 -9 -42 -2 -2 8 -21 22 -42 29 -47 30 -55 4
-69 -27 -14 -25 -32 5 -60 20 -19 27 -21 40 -10 8 7 15 21 15 31 0 27 15 31
36 8 21 -23 25 -99 6 -121 -5 -7 -15 -49 -21 -92 -10 -69 -9 -81 5 -97 23 -26
12 -45 -43 -71 -43 -21 -48 -26 -45 -53 6 -68 8 -161 4 -177 -3 -11 -14 -18
-28 -18 -17 0 -24 -6 -24 -18 0 -40 -77 -75 -101 -46 -10 13 -5 21 34 57 25
23 52 53 61 67 21 34 7 55 -30 46 -27 -6 -28 -5 -10 9 11 8 23 15 28 15 13 0
38 58 32 74 -9 23 -35 20 -41 -4 -4 -14 -14 -20 -34 -20 -15 0 -31 -4 -34 -10
-13 -21 -37 -9 -51 25 -8 19 -18 35 -22 35 -15 0 -32 -24 -32 -47 0 -13 -4
-23 -10 -23 -5 0 -10 7 -10 15 0 16 -35 21 -45 6 -3 -6 -23 -5 -50 3 -50 16
-68 6 -58 -32 5 -20 3 -21 -26 -16 -30 6 -31 5 -31 -29 0 -40 -24 -67 -42 -49
-18 18 -46 14 -58 -8 -15 -28 -26 -25 -55 17 -34 51 -33 81 3 88 41 9 112 45
112 57 0 6 -12 21 -26 35 -21 19 -24 29 -19 56 9 45 37 80 71 91 16 4 37 13
48 18 13 7 26 6 43 -3 18 -10 26 -10 35 -1 7 7 24 12 39 12 58 0 39 36 -25 47
-19 3 -55 0 -80 -6 -53 -13 -74 -7 -78 22 -2 15 -12 23 -33 27 -28 5 -29 7
-32 65 -1 33 0 68 3 78 8 26 34 21 34 -7 0 -40 20 -41 54 -4 17 20 39 38 49
42 23 7 22 33 -3 46 -26 14 -26 45 1 64 15 10 19 20 14 35 -5 16 1 24 32 38
36 17 38 21 38 64 0 26 7 56 18 72 19 30 30 33 44 15z m2063 -249 c0 -17 39
-29 64 -20 18 8 28 6 37 -5 6 -8 20 -12 30 -9 9 3 20 1 24 -5 3 -5 15 -10 25
-10 31 0 90 -45 80 -60 -12 -20 -1 -33 16 -19 10 8 14 8 14 0 0 -6 -5 -11 -10
-11 -7 0 -8 -13 -4 -34 3 -19 4 -39 0 -44 -3 -5 -29 -5 -58 -1 -55 7 -98 -7
-98 -34 0 -6 -18 -52 -40 -102 -22 -49 -40 -91 -40 -93 0 -2 12 -2 27 0 21 2
30 11 37 33 5 17 16 45 23 64 l13 34 23 -21 c27 -25 55 -29 63 -8 9 22 -13 53
-41 60 -29 7 -24 26 7 26 16 0 36 -8 87 -37 9 -5 -25 -68 -60 -110 -20 -25
-45 -62 -55 -82 -30 -59 -114 -141 -145 -141 -28 0 -120 42 -152 69 -22 19
-67 106 -67 131 0 25 -17 35 -35 20 -22 -18 -17 -48 18 -114 24 -45 42 -65 74
-82 24 -12 58 -32 76 -43 20 -12 51 -21 75 -21 40 0 52 -11 52 -47 0 -8 8 -31
17 -50 15 -33 15 -37 0 -47 -9 -6 -46 -31 -82 -56 -36 -25 -94 -66 -127 -93
-68 -52 -72 -53 -203 -35 -94 13 -149 32 -153 53 -6 30 30 90 72 121 100 72
106 73 86 5 -7 -24 -6 -39 2 -48 16 -19 33 -1 47 50 11 44 9 260 -3 289 -5 9
-1 27 9 42 19 29 13 61 -10 52 -9 -3 -15 0 -15 9 0 8 7 15 15 15 8 0 15 4 15
9 0 5 16 32 35 61 22 33 37 69 41 100 4 28 13 55 20 61 8 6 14 22 14 35 0 12
5 26 10 29 6 3 10 20 10 36 0 24 4 29 18 25 23 -7 39 4 50 35 8 20 17 26 41
26 17 0 31 -4 31 -8z m341 -42 c-1 -12 -15 -9 -19 4 -3 6 1 10 8 8 6 -3 11 -8
11 -12z m594 -77 c3 -6 -3 -22 -14 -36 -32 -40 -29 -113 6 -155 24 -28 25 -31
6 -20 -37 19 -53 52 -53 109 0 73 34 136 55 102z m25 -94 c0 -8 -4 -18 -10
-21 -5 -3 -10 3 -10 14 0 12 5 21 10 21 6 0 10 -6 10 -14z m-1390 -167 c0 -5
-4 -9 -10 -9 -5 0 -10 7 -10 16 0 8 5 12 10 9 6 -3 10 -10 10 -16z m70 -17 c0
-5 -9 -17 -20 -27 -16 -14 -20 -15 -20 -4 0 16 19 39 32 39 4 0 8 -4 8 -8z
m1448 -112 c-2 -14 -10 -26 -20 -28 -14 -3 -18 3 -18 26 0 17 3 38 7 48 6 16
7 15 20 -2 8 -10 13 -30 11 -44z m409 -134 c39 -23 54 -46 29 -46 -9 0 -23
-11 -32 -25 -21 -32 -31 -25 -60 41 -25 57 -39 67 -49 34 -4 -11 -11 -18 -16
-14 -5 3 -3 15 6 27 23 33 19 42 -40 103 -87 91 -64 81 35 -13 50 -48 107 -96
127 -107z m-1247 174 c0 -5 -4 -10 -10 -10 -5 0 -10 5 -10 10 0 6 5 10 10 10
6 0 10 -4 10 -10z m-590 -36 c0 -8 -4 -14 -9 -14 -11 0 -22 26 -14 34 9 9 23
-3 23 -20z m1559 -59 c30 -31 51 -58 48 -61 -3 -3 -32 7 -64 23 -50 26 -58 34
-61 61 -5 47 15 41 77 -23z m111 -31 c0 -8 -4 -12 -10 -9 -5 3 -10 13 -10 21
0 8 5 12 10 9 6 -3 10 -13 10 -21z m-361 -8 c10 -11 5 -20 -26 -43 -21 -15
-43 -35 -49 -43 -37 -48 -53 -64 -59 -58 -13 13 16 76 54 117 40 43 61 50 80
27z m976 5 c10 -17 -12 -21 -25 -6 -10 12 -10 15 3 15 9 0 18 -4 22 -9z
m-4008 -93 c-3 -8 -6 -5 -6 6 -1 11 2 17 5 13 3 -3 4 -12 1 -19z m83 -12 c0
-15 -18 -31 -26 -23 -7 7 7 37 17 37 5 0 9 -6 9 -14z m2986 -41 c-26 -19 -42
-19 -26 0 7 8 20 15 29 15 13 -1 13 -3 -3 -15z m1234 5 c0 -5 -2 -10 -4 -10
-3 0 -8 5 -11 10 -3 6 -1 10 4 10 6 0 11 -4 11 -10z m-4409 -73 c-21 -21 -32
7 -13 33 l17 25 3 -24 c2 -13 -1 -28 -7 -34z m2444 23 c-11 -5 -29 -9 -39 -9
-17 -1 -62 -19 -130 -54 -13 -6 -16 -6 -11 3 4 6 30 22 58 34 72 33 78 34 112
35 26 0 27 -2 10 -9z m-825 -10 c0 -5 -9 -10 -21 -10 -11 0 -17 5 -14 10 3 6
13 10 21 10 8 0 14 -4 14 -10z m970 -20 c0 -5 -2 -10 -4 -10 -3 0 -8 5 -11 10
-3 6 -1 10 4 10 6 0 11 -4 11 -10z m-1150 -237 c0 -136 18 -208 92 -373 11
-24 48 -73 81 -107 86 -90 98 -89 221 28 52 50 118 121 145 159 84 115 202
203 367 271 88 37 108 42 183 43 80 1 85 0 90 -21 7 -26 32 -58 52 -66 10 -4
5 -13 -17 -34 -105 -95 -153 -227 -108 -292 15 -21 15 -25 -3 -49 -36 -49 -43
-69 -72 -209 -25 -118 -29 -164 -30 -302 -2 -135 1 -168 14 -188 14 -20 17
-67 20 -296 2 -150 6 -312 9 -362 7 -88 6 -89 -9 -55 -15 32 -17 34 -30 17
-12 -16 -14 -11 -17 45 -2 35 0 123 5 196 9 154 7 224 -9 229 -13 4 -24 -146
-28 -390 -2 -87 -7 -142 -14 -149 -16 -16 -15 -47 2 -80 8 -14 14 -53 15 -85
0 -32 2 -78 5 -103 7 -68 26 -755 26 -922 0 -169 12 -238 46 -275 13 -14 24
-38 24 -53 0 -51 78 -146 154 -187 18 -10 35 -49 85 -205 53 -161 253 -450
387 -558 101 -81 164 -122 261 -166 63 -29 247 -94 348 -122 37 -10 90 -51
121 -94 45 -62 103 -94 215 -117 151 -31 207 -64 235 -137 9 -24 32 -58 51
-74 28 -25 42 -30 87 -30 71 0 102 -24 112 -86 3 -25 3 -49 -2 -54 -5 -5 -40
-10 -79 -12 l-70 -3 -1 45 c-2 73 -3 76 -29 88 -45 21 -84 15 -116 -17 -32
-32 -36 -57 -16 -85 14 -19 59 -19 98 -2 10 5 20 -1 29 -19 12 -23 12 -28 -6
-44 -16 -16 -45 -21 -174 -29 -85 -6 -228 -11 -318 -11 -154 -1 -166 0 -216
24 -29 14 -60 25 -69 25 -10 0 -17 4 -17 10 0 16 34 29 85 31 80 5 118 63 93
147 -10 35 -24 54 -63 83 -27 21 -64 49 -80 63 -18 14 -70 35 -125 50 -261 70
-328 102 -455 220 -41 38 -45 47 -45 88 0 36 5 49 23 61 20 14 21 16 4 22 -43
18 -72 -71 -44 -136 16 -40 143 -157 202 -186 54 -28 270 -99 323 -108 46 -7
158 -77 205 -127 24 -26 28 -36 25 -81 -3 -50 -4 -52 -34 -55 -35 -3 -49 10
-57 55 -5 26 -2 35 13 43 22 12 27 30 8 30 -21 0 -58 -43 -58 -67 0 -27 -1
-27 -34 -11 -18 8 -27 21 -31 47 -12 71 -16 81 -38 95 -23 15 -51 19 -132 17
-76 -2 -84 -12 -50 -58 66 -89 85 -103 140 -103 40 0 56 -5 78 -26 25 -23 27
-28 14 -43 -8 -9 -17 -25 -18 -36 -2 -11 -20 -28 -39 -37 -75 -38 -330 -15
-313 28 9 24 -24 26 -154 9 -171 -23 -283 -15 -333 25 -22 18 -57 32 -93 39
-70 13 -83 19 -68 34 6 6 11 24 11 39 0 39 -25 36 -66 -7 l-33 -35 -73 6 c-40
3 -91 1 -113 -4 -22 -6 -108 -29 -190 -51 -131 -35 -161 -39 -230 -36 -160 8
-277 24 -300 39 -13 9 -59 24 -101 33 -46 10 -88 26 -104 40 -33 27 -52 28
-110 8 -51 -18 -126 -20 -136 -3 -8 12 -6 207 2 219 2 4 26 -2 53 -13 48 -21
81 -60 60 -73 -10 -7 27 -65 42 -65 5 0 9 13 9 29 0 23 5 30 23 33 21 3 22 5
18 109 -2 71 0 109 8 113 7 5 11 -6 11 -31 0 -52 25 -146 55 -208 31 -65 110
-144 127 -127 8 8 4 21 -18 53 -66 95 -84 127 -105 182 -20 54 -21 69 -16 235
8 226 25 452 38 510 13 59 -2 75 -26 26 -12 -25 -20 -79 -26 -173 -8 -137 -25
-281 -34 -290 -18 -17 23 475 45 559 6 19 10 50 10 69 0 18 5 51 12 73 9 29 9
41 0 50 -14 14 -15 74 -3 133 8 39 9 38 10 -21 1 -38 6 -66 14 -73 21 -17 27
-3 27 58 0 54 24 203 36 223 3 5 3 21 -1 35 -4 19 -11 24 -25 20 -18 -5 -20 0
-20 51 0 32 4 95 10 142 5 47 11 238 15 425 6 384 19 621 35 640 6 7 8 20 4
29 -3 9 1 71 10 139 8 67 21 165 27 217 13 111 28 561 19 573 -4 4 -13 0 -21
-9 -11 -13 -16 -75 -21 -268 -6 -261 -20 -442 -35 -457 -4 -4 -25 -2 -46 4
l-39 12 6 70 c3 39 11 153 16 255 6 104 17 206 25 233 9 30 11 55 6 65 -5 10
-5 42 0 72 4 30 8 106 8 168 1 61 5 112 9 112 16 0 56 -51 69 -88 17 -50 17
-52 -11 -52 -29 0 -42 -26 -18 -35 9 -3 37 -10 62 -15 42 -8 47 -7 76 21 l31
30 7 -40 c4 -24 1 -57 -8 -83 -8 -24 -19 -88 -25 -143 -6 -55 -19 -145 -27
-200 -29 -179 -47 -377 -59 -640 -3 -71 -10 -148 -15 -170 -5 -23 -14 -98 -20
-169 -5 -70 -12 -131 -14 -134 -2 -4 -7 -59 -10 -122 -3 -63 -11 -149 -16
-190 -13 -94 -27 -338 -22 -367 5 -26 20 -30 27 -8 16 51 15 49 30 34 16 -16
18 -36 9 -116 -5 -45 -3 -53 14 -62 23 -12 38 0 29 23 -3 7 2 24 11 38 20 29
106 98 125 98 6 0 4 5 -5 11 -10 5 -36 7 -58 4 -36 -5 -40 -4 -40 16 0 21 -1
21 -18 6 -23 -21 -32 -21 -60 3 -22 18 -23 24 -20 132 5 135 53 670 68 748 6
30 17 150 25 266 9 116 29 316 45 445 54 420 83 697 76 716 -7 17 -8 17 -22
-2 -8 -11 -27 -21 -42 -22 -16 -1 -37 -14 -50 -30 -22 -27 -23 -27 -37 -9 -21
28 -19 32 23 53 34 17 37 22 40 65 3 40 -1 52 -22 73 -29 29 -76 33 -116 10
-14 -8 -28 -14 -33 -15 -4 0 -7 65 -6 145 l2 145 33 19 c43 26 53 64 27 99
-11 15 -31 28 -46 30 -34 4 -42 39 -23 102 21 69 31 186 18 194 -18 11 -40
-35 -51 -109 -6 -38 -17 -92 -26 -120 -17 -58 -19 -122 -5 -160 14 -36 24
-263 12 -278 -5 -7 -6 -43 -1 -87 11 -104 11 -258 0 -264 -10 -7 -24 41 -16
54 10 16 -46 114 -93 163 -54 55 -36 65 19 11 21 -20 41 -34 46 -31 5 3 9 50
8 104 0 80 -3 98 -15 98 -8 0 -21 -12 -28 -27 -13 -27 -23 -34 -34 -22 -4 3 1
26 9 50 14 40 13 47 -1 69 -9 14 -25 25 -35 25 -10 0 -24 6 -30 13 -26 32 -77
4 -87 -48 -10 -55 4 -92 42 -116 19 -12 38 -19 41 -15 7 7 33 -13 33 -26 0 -5
-9 -6 -20 -3 -15 5 -20 2 -20 -10 0 -14 -6 -16 -27 -11 -16 4 -58 9 -95 13
-58 5 -71 3 -103 -17 -61 -38 -39 -51 57 -34 59 10 155 -27 205 -79 80 -84 95
-127 43 -127 -40 0 -75 -18 -90 -46 -11 -19 -10 -30 1 -61 14 -37 35 -53 92
-73 21 -8 27 -16 27 -40 0 -16 -2 -30 -4 -30 -23 0 -71 35 -109 80 -74 85 -87
97 -146 129 -85 45 -142 57 -182 37 -18 -9 -33 -15 -34 -14 -1 2 -5 18 -8 36
-6 29 -3 34 32 57 46 28 51 40 37 78 -10 27 -8 31 25 60 20 18 51 58 68 90 18
32 45 79 61 105 16 26 38 63 49 83 11 20 29 39 41 42 33 9 25 30 -10 24 -43
-9 -55 17 -28 61 19 30 19 34 4 51 -9 10 -16 24 -16 32 1 9 8 6 20 -10 l20
-23 0 40 c0 41 13 63 24 40 5 -10 7 -10 12 0 8 17 24 15 24 -3 0 -8 -6 -15
-13 -15 -9 0 -12 -9 -9 -29 3 -20 -2 -34 -19 -50 l-23 -21 24 -25 c16 -17 27
-22 34 -15 5 5 27 10 47 10 34 0 37 3 42 33 3 19 -3 54 -15 84 l-19 52 25 38
c14 21 26 46 26 56 0 10 9 35 19 56 11 21 32 80 46 131 15 51 34 108 41 127 8
18 21 49 28 68 25 60 36 42 36 -62z m374 13 c49 -7 97 -11 108 -8 22 5 25 -20
3 -38 -19 -15 -148 -9 -213 10 -35 11 -42 18 -42 38 0 21 3 24 28 18 15 -4 67
-13 116 -20z m907 -6 c15 -9 17 -15 9 -30 -19 -35 -70 -19 -70 22 0 20 30 24
61 8z m1149 -10 c0 -5 -4 -10 -10 -10 -5 0 -10 5 -10 10 0 6 5 10 10 10 6 0
10 -4 10 -10z m-1063 -26 c9 -14 28 -30 42 -36 l26 -10 -30 -15 c-16 -8 -40
-25 -52 -36 -21 -19 -22 -22 -7 -38 14 -16 13 -17 -18 -14 -18 2 -36 4 -40 4
-12 1 -9 36 4 49 6 6 13 26 14 44 0 18 2 43 3 56 2 31 36 29 58 -4z m1235 1
c-2 -5 -9 -9 -17 -7 -7 1 -16 -5 -19 -15 -6 -15 -8 -15 -16 -3 -19 29 -11 41
23 38 17 -2 31 -7 29 -13z m38 -21 c0 -8 -4 -12 -10 -9 -5 3 -10 13 -10 21 0
8 5 12 10 9 6 -3 10 -13 10 -21z m-4095 -29 c45 -20 55 -28 55 -49 0 -20 -4
-24 -22 -22 -30 4 -57 15 -88 36 -41 27 -113 11 -202 -47 -15 -9 -30 -14 -34
-10 -11 10 26 47 47 47 10 0 33 13 51 29 40 34 85 52 116 45 12 -2 47 -15 77
-29z m4265 14 c0 -6 -9 -24 -20 -39 -24 -33 -15 -43 33 -38 24 2 33 -1 35 -15
3 -12 -5 -19 -27 -23 -25 -5 -33 -13 -41 -45 -11 -40 -29 -53 -31 -21 -7 111
-5 138 13 165 20 28 38 36 38 16z m-2525 -23 c0 -25 -16 -30 -39 -13 -24 17
-12 39 17 35 14 -2 22 -10 22 -22z m-545 0 c71 -9 115 -22 114 -34 -3 -42 -4
-42 -24 -22 -16 16 -33 20 -79 20 -33 0 -63 -5 -66 -10 -4 -6 -10 -8 -15 -5
-9 6 -59 -21 -71 -38 -4 -5 -13 -7 -20 -5 -8 3 -19 -2 -26 -11 -13 -18 -29 -7
-35 24 -2 12 3 20 12 21 33 1 60 17 81 46 19 26 26 29 58 24 20 -3 52 -8 71
-10z m699 -12 c2 -2 -4 -13 -13 -23 -17 -19 -20 -19 -42 -4 -39 25 -31 45 14
37 20 -4 39 -8 41 -10z m-975 -17 c21 -12 38 -26 37 -30 0 -4 -1 -25 -1 -47 0
-22 -4 -40 -10 -40 -5 0 -10 20 -10 44 l0 43 -47 1 c-27 1 -66 -7 -91 -18 -25
-11 -54 -20 -66 -20 -12 1 5 12 39 26 33 14 69 34 80 45 24 23 21 23 69 -4z
m1981 -26 c-6 -4 -26 -13 -45 -19 l-35 -12 24 20 c22 19 76 30 56 11z m1270
-112 c5 -75 3 -85 -17 -106 -18 -19 -20 -27 -10 -48 10 -21 8 -29 -14 -55 -14
-17 -23 -37 -20 -45 8 -21 -36 -30 -86 -17 -23 6 -45 9 -49 7 -3 -3 -9 12 -12
33 -3 20 -9 47 -13 60 -6 21 -4 22 47 22 50 1 57 4 98 45 l45 44 2 78 c2 99 3
102 15 81 5 -10 12 -54 14 -99z m-1460 65 c33 -35 34 -37 19 -66 -8 -16 -24
-66 -34 -111 -54 -236 -74 -297 -92 -291 -9 3 -27 0 -39 -6 -21 -12 -21 -11
-15 24 4 19 15 59 25 88 11 29 27 76 36 103 10 28 28 72 41 100 29 59 18 82
-21 45 l-25 -23 0 28 c0 37 50 145 67 145 2 0 20 -16 38 -36z m260 16 c3 -5
21 -10 39 -10 35 0 62 -21 51 -40 -3 -5 -12 -10 -18 -10 -7 0 -39 -22 -72 -50
-33 -27 -63 -50 -67 -50 -11 0 -10 48 0 52 13 4 24 58 13 58 -5 0 -18 -12 -29
-27 -18 -24 -22 -26 -37 -13 -16 14 -17 12 -11 -17 l7 -32 -38 6 c-21 3 -40 8
-43 10 -22 19 128 123 192 132 4 1 10 -3 13 -9z m665 2 c0 -14 -11 -21 -26
-15 -8 3 -11 9 -8 14 7 11 34 12 34 1z m-3453 -24 c-3 -8 -6 -5 -6 6 -1 11 2
17 5 13 3 -3 4 -12 1 -19z m128 8 c54 -12 57 -14 32 -21 -15 -4 -37 -5 -49 -2
-12 4 -28 1 -35 -5 -9 -7 -20 -6 -38 6 -55 36 -18 45 90 22z m347 -2 c3 -3 4
-14 1 -24 -4 -16 -8 -17 -25 -7 -16 10 -22 9 -34 -7 -7 -11 -17 -16 -21 -12
-5 4 5 19 20 32 27 23 48 30 59 18z m-197 -14 c3 -5 15 -10 26 -10 10 0 19 -4
19 -10 0 -15 -66 -12 -79 4 -9 11 -9 15 1 19 20 8 26 8 33 -3z m450 -20 c3 -5
1 -10 -4 -10 -6 0 -11 5 -11 10 0 6 2 10 4 10 3 0 8 -4 11 -10z m-45 -10 c0
-5 -4 -10 -10 -10 -5 0 -10 5 -10 10 0 6 5 10 10 10 6 0 10 -4 10 -10z m-1160
-14 c0 -3 -4 -8 -10 -11 -5 -3 -10 -1 -10 4 0 6 5 11 10 11 6 0 10 -2 10 -4z
m3350 -11 c0 -3 -26 -34 -58 -68 -34 -37 -76 -97 -102 -149 -25 -49 -48 -88
-52 -88 -15 0 -8 46 15 103 18 48 36 70 107 131 89 78 90 79 90 71z m761 -32
c-12 -20 -14 -14 -5 12 4 9 9 14 11 11 3 -2 0 -13 -6 -23z m-3831 -7 c5 -13 8
-94 8 -180 l-1 -156 -28 0 c-30 0 -36 9 -20 26 6 5 1 27 -15 57 -28 56 -29 67
-9 67 8 0 19 8 24 19 13 23 12 149 -1 157 -10 6 9 34 23 34 5 0 14 -11 19 -24z
m-116 -21 c-26 -18 -24 -118 3 -177 18 -38 19 -47 7 -52 -8 -3 -14 -13 -14
-22 0 -12 6 -15 25 -10 28 7 31 -1 12 -28 -41 -57 -83 66 -76 222 4 86 18 113
46 90 11 -9 10 -13 -3 -23z m4655 6 c19 -35 23 -125 7 -156 -9 -16 -16 -34
-16 -38 0 -5 -9 -22 -20 -37 l-20 -28 29 -21 c16 -12 34 -21 41 -21 20 0 6
-33 -22 -49 -31 -18 -62 -56 -72 -87 -3 -11 -19 -33 -34 -47 l-28 -27 -27 28
c-25 26 -26 31 -14 54 11 21 15 23 26 11 10 -11 16 -11 27 -2 17 14 18 51 3
66 -16 16 -39 4 -39 -21 -1 -19 -1 -19 -11 -3 -8 14 -18 16 -44 11 -49 -9 -51
11 -3 43 23 15 43 33 45 40 5 15 -48 43 -82 43 -16 0 -25 6 -25 16 0 9 -13 28
-30 44 -29 27 -29 28 -9 46 11 10 43 21 72 25 45 6 55 4 73 -15 19 -18 21 -28
15 -82 -9 -83 -2 -106 34 -116 37 -10 78 -2 72 15 -2 7 -17 14 -33 17 -49 9
-46 74 6 128 35 37 41 66 7 34 -24 -23 -47 -29 -47 -12 0 5 11 17 25 26 14 9
25 21 25 26 0 6 7 34 16 63 15 55 33 64 53 26z m-924 0 c-3 -6 -11 -11 -17
-11 -6 0 -6 6 2 15 14 17 26 13 15 -4z m462 -38 c-3 -2 -15 1 -27 7 -21 11
-23 35 -2 35 5 0 14 4 19 8 4 5 9 -3 11 -18 2 -15 1 -29 -1 -32z m210 31 c-9
-9 -28 6 -21 18 4 6 10 6 17 -1 6 -6 8 -13 4 -17z m-4357 -4 c0 -5 -2 -10 -4
-10 -3 0 -8 5 -11 10 -3 6 -1 10 4 10 6 0 11 -4 11 -10z m3180 -30 c7 -17 19
-34 26 -38 8 -5 18 -37 23 -78 10 -78 21 -105 59 -147 18 -18 23 -30 16 -37
-17 -17 -82 54 -86 92 -4 41 -34 51 -44 14 -3 -13 -3 -34 1 -46 10 -30 74
-100 92 -100 26 0 9 -33 -35 -67 -48 -37 -78 -41 -123 -17 -21 10 -34 12 -43
5 -6 -5 -21 -10 -31 -10 -11 1 -30 -2 -42 -6 -19 -6 -24 -1 -38 31 -16 37 -15
43 5 119 22 81 64 185 75 185 3 0 5 -27 4 -60 -2 -57 13 -96 31 -85 5 3 9 41
9 86 0 44 5 88 11 97 7 12 9 -2 8 -53 -1 -82 12 -140 32 -140 18 0 26 63 11
78 -17 17 -13 27 8 27 29 0 37 20 11 27 -20 5 -21 10 -15 55 7 48 6 50 -15 43
-24 -8 -22 3 8 38 21 24 28 22 42 -13z m-2737 -2 c4 -15 -3 -29 -28 -52 -61
-56 -126 -106 -139 -106 -20 0 -36 -24 -27 -39 13 -21 55 -6 116 40 67 51 101
51 98 1 -1 -42 -2 -43 -59 -53 -27 -5 -67 -24 -97 -46 -29 -22 -60 -36 -72
-35 -12 2 -27 -4 -34 -12 -10 -12 -9 -17 8 -28 25 -15 27 -43 5 -52 -10 -4
-14 -14 -11 -26 3 -11 1 -23 -4 -26 -5 -3 -9 -18 -9 -34 0 -16 -4 -32 -10 -35
-5 -3 -10 -15 -10 -26 0 -14 7 -19 24 -19 14 0 27 -4 31 -9 6 -11 64 -9 82 2
14 9 43 -1 43 -15 0 -6 -8 -17 -17 -24 -17 -12 -16 -15 10 -42 38 -39 30 -76
-20 -93 -19 -6 -42 -24 -52 -39 l-17 -29 -16 32 c-8 18 -19 46 -24 62 -7 23
-16 31 -39 33 -46 5 -53 20 -17 33 20 7 32 18 32 29 0 21 -36 50 -62 50 -9 0
-28 5 -42 12 -20 9 -23 14 -15 25 6 7 22 13 35 13 43 0 65 40 44 80 -7 14 -5
19 9 23 15 4 19 13 17 45 -1 23 -5 44 -9 48 -11 11 -8 52 3 59 15 9 12 36 -7
57 -14 16 -15 18 0 18 9 0 19 -5 23 -11 4 -7 19 3 40 26 18 21 44 43 56 49 13
6 33 31 44 55 25 52 47 71 74 64 11 -3 20 0 20 6 0 20 17 12 23 -11z m593 -26
c-11 -10 -15 4 -8 28 l7 25 3 -23 c2 -13 1 -26 -2 -30z m1897 29 c7 -7 5 -20
-6 -43 -68 -145 -113 -381 -152 -803 -10 -99 -18 -181 -19 -182 0 -1 -13 1
-28 4 l-28 5 1 87 c0 47 5 151 10 231 5 80 10 156 11 170 2 96 52 350 83 423
8 20 15 48 15 62 0 15 5 36 11 47 9 17 18 19 51 15 22 -3 45 -10 51 -16z
m-2146 -35 c-2 -65 45 -87 82 -38 l20 27 1 -28 c0 -17 -9 -35 -25 -49 -14 -12
-25 -28 -25 -35 0 -8 -10 -33 -22 -56 l-22 -42 -9 65 c-4 36 -15 75 -23 88
-11 16 -12 27 -4 41 5 11 10 29 10 40 0 12 4 21 9 21 5 0 9 -15 8 -34z m3533
14 c0 -5 -7 -10 -15 -10 -8 0 -15 5 -15 10 0 6 7 10 15 10 8 0 15 -4 15 -10z
m-4328 -52 c-9 -9 -12 -4 -11 23 0 32 1 33 11 11 8 -17 8 -26 0 -34z m288 27
c0 -8 -4 -15 -10 -15 -5 0 -7 7 -4 15 4 8 8 15 10 15 2 0 4 -7 4 -15z m4215 5
c-3 -5 -11 -10 -16 -10 -6 0 -7 5 -4 10 3 6 11 10 16 10 6 0 7 -4 4 -10z
m-757 -31 c12 -5 22 -17 22 -28 0 -11 5 -23 10 -26 32 -20 -42 -34 -97 -19
-19 5 -23 13 -23 43 0 21 3 41 6 44 7 7 41 1 82 -14z m258 -79 c4 -62 1 -79
-15 -99 -12 -16 -24 -22 -35 -18 -15 6 -15 11 5 49 21 42 23 102 3 153 -8 19
-7 19 15 5 20 -13 24 -26 27 -90z m-4170 54 c-5 -13 -10 -14 -18 -6 -6 6 -8
18 -4 28 5 13 10 14 18 6 6 -6 8 -18 4 -28z m4080 -51 c-11 -28 -23 1 -17 44
l4 38 10 -32 c5 -18 7 -40 3 -50z m-4166 57 c-20 -13 -33 -13 -25 0 3 6 14 10
23 10 15 0 15 -2 2 -10z m845 -4 c32 -14 33 -16 22 -40 -14 -30 -31 -35 -22
-6 5 15 3 18 -8 14 -8 -3 -17 2 -20 10 -4 9 -18 16 -32 16 -14 0 -25 5 -25 10
0 15 45 12 85 -4z m3259 -107 l-6 -67 44 -30 c39 -27 99 -85 71 -69 -17 10
-63 -10 -63 -28 0 -10 10 -15 33 -15 l33 0 -3 -67 c-4 -75 -12 -140 -19 -163
-4 -11 -9 -8 -20 13 -10 18 -23 27 -39 27 -33 0 -38 14 -15 35 22 20 27 85 10
129 -9 24 -74 66 -102 66 -7 0 -19 4 -26 9 -20 12 5 57 45 81 35 21 36 21 36
140 0 63 1 64 14 35 9 -20 11 -51 7 -96z m-3302 39 c-9 -9 -12 -7 -12 12 0 19
3 21 12 12 9 -9 9 -15 0 -24z m387 10 c-1 -13 2 -31 6 -42 7 -16 6 -17 -13 -7
-25 13 -32 31 -20 54 12 24 28 21 27 -5z m-1060 -19 c6 -18 11 -45 11 -61 0
-25 -2 -27 -19 -18 -11 5 -28 10 -39 10 -10 0 -27 9 -37 20 -14 16 -26 19 -48
14 -26 -5 -28 -4 -25 17 4 26 51 44 78 29 12 -6 23 -5 36 5 27 20 31 19 43
-16z m871 -50 c0 -47 -3 -53 -46 -92 -25 -23 -52 -54 -60 -69 -13 -26 -44 -39
-44 -20 0 10 70 94 87 105 18 11 43 74 43 109 0 17 4 27 10 23 6 -3 10 -29 10
-56z m-70 27 c0 -15 -14 -35 -21 -30 -15 9 -10 34 6 34 8 0 15 -2 15 -4z m870
-12 c11 -12 11 -18 -2 -31 -20 -20 -38 -9 -38 23 0 27 21 32 40 8z m2120 -19
c0 -14 -2 -25 -4 -25 -2 0 -6 11 -8 25 -3 14 -1 25 3 25 5 0 9 -11 9 -25z
m587 -9 c0 0 4 -18 8 -40 l8 -38 -32 6 c-17 3 -44 9 -61 12 -25 5 -30 10 -30
33 0 15 2 30 5 33 5 4 95 -1 102 -6z m-3273 -33 c24 4 59 4 79 0 31 -5 35 -8
27 -24 -6 -10 -26 -21 -48 -24 -66 -11 -77 -14 -96 -28 -14 -10 -17 -20 -11
-33 4 -10 8 -30 9 -44 1 -16 11 -29 31 -39 17 -8 38 -18 48 -23 10 -5 22 -6
27 -3 24 15 7 -27 -24 -59 -33 -35 -34 -36 -64 -21 -16 9 -35 22 -42 29 -7 10
-23 13 -46 9 -26 -4 -34 -2 -34 9 0 9 -10 22 -22 30 -13 9 -18 19 -14 27 6 9
11 8 20 -5 18 -24 91 -7 91 21 0 13 -8 21 -22 23 -13 2 -23 5 -23 7 0 2 14 27
31 56 22 37 27 55 19 63 -16 16 -40 -3 -71 -55 -28 -48 -69 -66 -69 -31 0 11
-3 27 -6 35 -7 20 22 46 46 40 19 -5 27 5 44 60 6 18 8 17 42 -3 28 -18 45
-21 78 -17z m-444 0 c0 -31 -31 -53 -74 -53 -80 0 -157 -43 -129 -71 8 -8 20
-8 48 1 51 17 94 -1 87 -36 -4 -22 -8 -24 -68 -24 -78 0 -114 -15 -114 -47 0
-29 -18 -30 -29 0 -21 57 -22 77 -3 77 23 0 42 19 42 42 0 11 11 23 25 28 14
5 31 21 37 36 15 31 56 54 100 54 18 0 40 4 48 9 17 12 30 5 30 -16z m70 -29
c0 -8 -4 -14 -10 -14 -5 0 -10 9 -10 21 0 11 5 17 10 14 6 -3 10 -13 10 -21z
m3074 -45 c7 -50 7 -51 64 -75 81 -36 87 -39 90 -59 8 -37 -15 -39 -88 -10
-60 24 -76 27 -100 18 -16 -6 -31 -9 -34 -6 -7 7 5 76 15 88 5 5 9 22 9 38 0
33 17 70 29 63 5 -3 11 -28 15 -57z m-181 16 c9 -4 17 -13 17 -20 0 -6 8 -19
18 -28 16 -15 19 -43 13 -124 -1 -7 -8 -10 -17 -6 -8 3 -25 -3 -37 -15 -19
-17 -116 -46 -125 -38 -1 2 -5 55 -8 119 -4 99 -2 117 11 124 16 9 96 2 128
-12z m-3613 -81 c0 -19 -6 -18 -40 7 l-29 22 -42 -22 c-46 -24 -44 -24 -53 5
-6 18 -3 20 23 16 23 -3 37 2 58 24 l28 29 28 -34 c15 -19 27 -40 27 -47z
m256 75 c3 -6 -3 -20 -14 -32 -21 -20 -22 -20 -42 -2 -31 28 -25 45 14 45 19
0 38 -5 42 -11z m3454 -4 c0 -8 -4 -15 -9 -15 -13 0 -22 16 -14 24 11 11 23 6
23 -9z m-3560 -46 c0 -5 -7 -9 -15 -9 -8 0 -15 6 -15 14 0 8 -3 23 -6 33 -4
14 -1 13 15 -6 12 -13 21 -27 21 -32z m4158 30 c77 -11 92 -16 92 -31 0 -10 1
-21 3 -25 1 -4 -18 -11 -42 -15 -24 -4 -59 -19 -78 -34 -32 -24 -34 -30 -31
-73 l2 -46 -52 -5 c-70 -7 -79 -18 -58 -70 24 -59 20 -75 -24 -119 -24 -23
-40 -49 -40 -63 0 -19 -4 -16 -23 18 -31 53 -38 83 -26 106 12 22 29 24 29 3
0 -16 25 -21 35 -6 3 6 7 49 10 98 l4 88 30 3 c47 5 56 62 10 62 -15 0 -20 6
-17 22 2 17 10 23 33 24 50 2 55 3 55 19 0 8 -11 17 -25 21 -14 3 -25 9 -25
13 0 13 24 32 35 27 6 -2 52 -10 103 -17z m-1528 -32 c0 -21 -34 -87 -45 -87
-13 0 -4 90 11 104 19 20 34 12 34 -17z m-1350 -6 c15 -29 13 -91 -4 -97 -23
-9 -71 19 -74 43 -2 14 7 32 22 48 30 30 42 31 56 6z m1580 2 c-1 -10 -7 -29
-15 -43 -13 -22 -14 -23 -15 -5 0 30 11 65 21 65 5 0 9 -8 9 -17z m430 -11 c0
-5 -2 -11 -5 -14 -3 -3 -8 -108 -11 -234 -3 -126 -9 -247 -13 -269 l-8 -40
-12 29 c-9 21 -9 54 0 135 10 100 9 145 -7 262 -4 36 -1 58 15 93 17 40 41 62
41 38z m-3320 -37 c0 -8 -9 -16 -20 -20 -18 -6 -19 -14 -16 -93 2 -48 7 -108
11 -134 5 -33 4 -52 -5 -63 -26 -31 -27 -22 -22 231 l2 101 25 -5 c14 -2 25
-10 25 -17z m88 9 c31 -21 28 -44 -5 -44 -14 0 -35 -7 -45 -17 -10 -9 -21 -13
-25 -9 -4 3 3 15 15 26 12 12 22 30 22 40 0 24 8 25 38 4z m4579 -6 c-3 -8 -6
-5 -6 6 -1 11 2 17 5 13 3 -3 4 -12 1 -19z m-3900 -15 c5 -15 -101 -47 -125
-38 -12 5 -7 11 24 30 40 26 94 30 101 8z m-919 -37 c30 -30 42 -87 36 -168
-5 -60 -10 -78 -22 -78 -11 0 -13 7 -9 29 7 35 -2 44 -66 61 -53 14 -61 40
-17 50 43 10 38 44 -10 65 -54 25 -57 32 -18 49 39 17 85 14 106 -8z m2832 15
c0 -23 -13 -71 -20 -71 -13 0 -19 54 -8 68 12 14 28 16 28 3z m-2136 -30 c17
-19 17 -20 -16 -23 -46 -4 -43 -28 8 -53 52 -25 74 -44 74 -61 0 -8 -7 -14
-15 -14 -25 0 -75 -29 -75 -43 0 -28 21 -35 51 -18 29 16 30 15 49 -9 13 -16
18 -33 14 -45 -12 -38 -8 -123 6 -139 19 -24 34 -5 37 52 1 26 3 61 5 77 1 17
-1 50 -5 75 -6 36 -6 43 4 33 7 -7 21 -13 30 -13 9 0 28 -6 42 -13 23 -12 24
-14 10 -41 -15 -29 -5 -56 23 -56 13 0 34 -30 34 -49 0 -6 -11 -11 -24 -11
-37 0 -76 -18 -82 -37 -3 -10 -10 -28 -16 -39 -7 -15 -7 -28 1 -42 16 -30 14
-50 -8 -78 l-19 -24 -16 25 c-9 14 -23 25 -31 25 -17 0 -37 43 -33 69 2 12 -6
17 -30 19 -43 4 -61 42 -37 79 36 55 -14 120 -71 94 -27 -12 -54 -1 -54 21 0
18 44 68 61 68 25 0 49 28 42 48 -10 30 -56 72 -77 72 -12 0 -37 10 -56 22
l-35 22 34 7 c19 4 48 5 65 2 17 -2 42 0 56 6 34 14 35 13 54 -8z m4126 -1 c0
-5 -5 -10 -11 -10 -5 0 -7 5 -4 10 3 6 8 10 11 10 2 0 4 -4 4 -10z m-922 -32
c17 -11 32 -23 32 -26 -1 -13 -25 -39 -47 -51 -13 -6 -23 -17 -23 -23 0 -7
-10 -22 -21 -34 -15 -16 -20 -30 -15 -47 12 -50 66 -40 66 12 0 15 7 37 16 49
13 19 22 22 47 16 53 -11 67 -25 64 -61 -2 -18 -6 -36 -10 -39 -3 -3 -31 -7
-62 -7 -46 -2 -60 -6 -76 -26 -26 -32 -44 -21 -68 44 -26 69 -27 201 -1 215
19 11 56 3 98 -22z m806 12 c15 -5 26 -17 26 -28 0 -16 -6 -19 -31 -16 -43 5
-51 12 -39 35 12 22 11 22 44 9z m-1930 -46 c7 -19 -2 -37 -15 -29 -12 8 -12
45 0 45 5 0 12 -7 15 -16z m957 3 c-1 -12 -15 -9 -19 4 -3 6 1 10 8 8 6 -3 11
-8 11 -12z m-3531 -29 c-11 -4 -20 -13 -20 -20 0 -20 -20 13 -20 34 0 14 4 15
30 5 27 -10 28 -12 10 -19z m3476 -83 c-2 -33 -7 -72 -11 -87 -5 -20 -2 -29
13 -37 13 -7 22 -7 30 1 9 9 12 7 12 -8 0 -25 18 -44 43 -44 32 0 13 -25 -24
-31 -19 -3 -40 -9 -47 -13 -18 -11 -44 -78 -39 -98 3 -10 -1 -22 -9 -29 -38
-31 -62 71 -28 119 15 22 14 23 -15 33 -31 11 -43 39 -18 39 7 0 25 12 39 28
20 21 27 39 30 82 l3 55 -37 3 c-25 2 -41 10 -52 27 -15 23 -15 25 3 35 11 5
29 10 40 10 11 0 23 5 27 11 4 8 13 4 25 -12 15 -19 18 -37 15 -84z m-2607 78
c17 -10 31 -21 31 -25 0 -9 -80 -45 -117 -52 -25 -4 -33 -1 -38 14 -4 12 -19
21 -45 25 -22 4 -40 10 -40 15 0 4 8 6 19 3 10 -2 36 4 57 16 48 25 93 26 133
4z m-235 -12 c13 -14 14 -20 4 -24 -7 -2 -21 6 -31 19 -14 19 -15 24 -4 24 8
0 22 -8 31 -19z m943 -3 c43 -40 15 -101 -28 -62 -19 18 -24 40 -13 68 8 21
13 20 41 -6z m1034 -30 c2 -40 -2 -266 -5 -326 -2 -29 -10 -50 -25 -65 l-23
-22 4 147 c4 107 1 150 -7 160 -8 9 -11 34 -8 76 5 61 6 62 34 62 26 0 29 -4
30 -32z m165 -218 c-8 -63 -18 -160 -22 -215 -4 -59 -10 -92 -14 -80 -7 20 21
389 36 480 l9 50 3 -60 c2 -33 -4 -112 -12 -175z m1844 179 c0 -26 -9 -28 -51
-10 -43 18 -48 28 -22 46 13 10 22 9 45 -4 15 -9 28 -23 28 -32z m-4620 26
c10 -12 10 -19 1 -28 -9 -9 -14 -9 -21 3 -22 34 -4 54 20 25z m3340 -48 c0
-20 -25 1 -28 24 -2 23 -2 23 13 5 8 -11 15 -24 15 -29z m-3286 -28 c-3 -44
-14 -49 -14 -6 0 21 4 37 8 37 5 0 7 -14 6 -31z m68 -9 c3 -17 1 -33 -4 -36
-4 -3 -8 4 -8 15 0 10 -3 26 -6 35 -3 9 -2 16 4 16 5 0 12 -14 14 -30z m688
-1 c0 -5 -9 -9 -20 -9 -19 0 -26 11 -14 23 8 8 34 -3 34 -14z m-823 -11 c-3
-8 -6 -5 -6 6 -1 11 2 17 5 13 3 -3 4 -12 1 -19z m-297 -2 c0 -2 3 -11 6 -20
7 -18 -12 -21 -35 -7 -16 10 -6 31 15 31 8 0 14 -2 14 -4z m610 -25 c0 -5 -7
-14 -15 -21 -16 -14 -18 -10 -9 14 6 17 24 22 24 7z m3041 -12 c-18 -15 -26
-17 -32 -7 -11 18 -1 28 29 28 l27 -1 -24 -20z m1274 -28 c5 -44 4 -46 -23
-32 -9 6 -39 13 -66 16 -36 5 -45 10 -37 18 11 11 113 46 119 41 2 -1 5 -20 7
-43z m-4198 2 c-3 -3 -11 -2 -17 2 -8 5 -7 11 2 22 12 15 13 14 16 -1 2 -10 1
-20 -1 -23z m-357 18 c0 -5 -7 -14 -15 -21 -16 -14 -18 -10 -9 14 6 17 24 22
24 7z m-272 -13 c14 -14 16 -64 3 -72 -5 -4 -7 3 -4 14 7 28 -16 53 -44 47
-24 -4 -32 8 -10 16 22 9 43 7 55 -5z m116 -23 c3 -8 1 -15 -4 -15 -6 0 -10 7
-10 15 0 8 2 15 4 15 2 0 6 -7 10 -15z m4538 -37 c-4 -3 -25 -10 -47 -14 l-40
-7 28 26 c15 14 27 31 27 38 0 6 9 1 19 -12 11 -13 17 -27 13 -31z m-592 0 c0
-4 -4 -8 -10 -8 -5 0 -10 4 -10 9 0 5 -3 18 -6 28 -5 16 -4 16 10 -1 9 -11 16
-23 16 -28z m-3785 0 c-3 -13 -8 -30 -9 -38 -3 -15 -11 -37 -24 -72 -4 -9 -23
-28 -42 -40 -51 -34 -47 -61 10 -69 25 -4 56 -11 69 -16 l24 -10 -29 -20 c-16
-11 -42 -23 -57 -27 -17 -4 -31 -16 -37 -31 -5 -14 -16 -25 -23 -25 -7 0 -23
-9 -36 -21 -27 -26 -15 -46 32 -51 l32 -4 -27 -12 c-17 -7 -28 -19 -28 -30 0
-11 -7 -32 -15 -49 -13 -27 -13 -35 4 -84 30 -85 7 -94 -29 -11 -12 26 -33 60
-48 75 -23 24 -31 27 -69 21 -56 -8 -65 12 -33 73 20 38 21 46 9 54 -8 5 -17
9 -21 9 -4 0 -9 9 -13 19 -3 10 -14 21 -25 24 -18 5 -19 11 -11 70 0 5 23 6
50 2 31 -4 51 -3 56 4 3 6 18 8 33 5 40 -10 51 -24 17 -24 -41 0 -65 -26 -65
-71 0 -38 23 -74 41 -64 5 4 9 15 9 25 0 10 9 22 21 25 11 4 25 17 30 29 6 12
31 34 55 49 44 27 52 54 12 41 -18 -5 -19 -3 -14 48 8 62 0 78 -43 87 l-32 6
23 34 c13 18 34 39 48 46 20 10 118 38 154 44 4 0 5 -9 1 -21z m3705 1 c0 -5
-4 -9 -10 -9 -5 0 -10 7 -10 16 0 8 5 12 10 9 6 -3 10 -10 10 -16z m-2461 -23
c36 -57 22 -92 -25 -61 -29 19 -49 57 -41 79 11 27 44 18 66 -18z m-283 -10
c124 -59 244 -216 264 -345 5 -31 12 -125 15 -210 3 -85 8 -158 11 -163 3 -4
12 -8 21 -8 13 0 14 -9 8 -56 -4 -31 -10 -124 -15 -207 -14 -258 -50 -661 -59
-670 -18 -18 -23 136 -26 683 -2 339 -7 585 -13 616 -14 65 -46 147 -82 205
-15 25 -30 54 -31 64 -5 21 -124 95 -155 95 -32 0 -74 -21 -74 -37 0 -8 12
-13 33 -13 45 0 49 -7 21 -35 -28 -28 -34 -92 -9 -101 14 -6 65 -82 65 -97 0
-4 -11 -7 -24 -7 -16 0 -32 12 -50 39 -31 44 -65 58 -99 39 -31 -17 -97 -19
-97 -3 0 18 39 65 55 65 7 0 17 14 20 32 4 18 16 44 27 59 11 15 18 33 16 41
-20 55 76 63 178 14z m3562 -8 c7 -7 12 -18 12 -25 0 -10 -6 -10 -25 3 -14 9
-25 20 -25 25 0 13 24 11 38 -3z m-4876 -61 c-18 -17 -23 -18 -37 -7 -15 12
-13 15 17 30 39 18 49 7 20 -23z m1026 31 c28 -28 -6 -78 -44 -64 -28 11 -10
76 21 76 6 0 16 -5 23 -12z m2602 3 c0 -10 -28 -41 -36 -41 -2 0 -4 11 -4 25
0 18 5 25 20 25 11 0 20 -4 20 -9z m379 -20 c25 -16 -6 -44 -38 -36 -32 8 -33
9 -25 29 7 17 40 21 63 7z m281 -13 c0 -16 -72 -62 -122 -77 -56 -18 -64 -35
-31 -60 21 -15 24 -20 11 -21 -9 0 -20 5 -23 10 -3 6 -17 10 -31 10 -21 0 -24
3 -18 27 5 18 2 30 -9 38 -14 10 -12 12 13 13 40 1 53 10 47 34 -6 22 17 35
36 20 15 -13 76 -9 103 6 24 14 24 14 24 0z m-2965 -62 c16 -74 -1 -105 -25
-47 -6 16 -18 32 -26 35 -26 10 -15 33 16 33 23 0 32 -6 35 -21z m-1165 -1 c0
-11 -7 -13 -29 -9 -33 7 -71 -10 -71 -32 0 -12 -11 -14 -52 -12 -50 3 -53 5
-56 32 -3 24 -1 28 15 22 43 -17 72 -18 94 -2 30 21 99 22 99 1z m4630 -14
c-11 -39 -95 -146 -126 -160 -14 -6 -24 -17 -21 -24 5 -18 47 -37 82 -37 l29
0 -22 -16 c-27 -18 -26 -53 1 -65 9 -5 24 -12 33 -16 30 -15 8 -28 -47 -28
-50 -1 -57 1 -57 20 0 39 -31 95 -52 95 -13 0 -25 12 -34 33 -13 31 -17 34
-57 33 -38 0 -49 5 -80 37 -37 37 -89 51 -104 27 -4 -6 -21 2 -41 20 -19 16
-46 30 -59 30 -30 0 -33 15 -6 30 31 16 139 -11 207 -53 33 -21 68 -37 78 -37
10 0 30 13 45 29 16 17 40 33 56 37 16 4 35 20 47 40 19 32 23 34 78 34 l59 0
-9 -29z m-1280 -98 c-6 -32 -15 -85 -20 -118 -16 -113 -50 -300 -61 -332 -9
-28 -15 -33 -42 -33 -26 -1 -37 -8 -58 -42 -30 -47 -26 -86 12 -116 l21 -18
-32 -57 c-34 -61 -48 -67 -109 -46 -38 13 -58 44 -41 64 8 10 5 20 -13 41 -37
44 -47 69 -47 111 l1 38 22 -44 c12 -25 28 -47 34 -49 7 -2 40 25 73 60 39 40
67 62 79 60 24 -4 42 25 78 133 33 96 83 323 83 375 0 17 6 41 12 53 l13 22 3
-22 c2 -12 -2 -48 -8 -80z m455 87 c3 -5 1 -10 -4 -11 -40 -4 -55 -2 -59 9 -5
15 54 17 63 2z m-993 -31 c6 -38 -26 -86 -37 -56 -10 25 4 87 19 87 8 0 16
-14 18 -31z m-2009 -19 c6 -24 -8 -36 -17 -14 -8 22 -7 34 3 34 5 0 11 -9 14
-20z m457 -17 c12 -21 35 -87 50 -148 30 -118 31 -132 20 -580 -2 -118 -4
-131 -10 -80 -4 33 -9 105 -9 160 -4 185 -61 498 -111 594 -28 55 -12 52 22
-4 15 -25 32 -45 37 -45 22 0 19 20 -10 65 -17 26 -28 54 -25 61 8 20 12 18
36 -23z m-953 21 c-3 -3 -12 -4 -19 -1 -8 3 -5 6 6 6 11 1 17 -2 13 -5z m3219
-12 c13 -9 44 -54 44 -64 0 -5 -6 -8 -14 -8 -7 0 -20 -10 -28 -22 -19 -29 -36
-17 -72 53 l-26 49 42 0 c24 0 48 -4 54 -8z m324 -19 c-1 -21 -22 -37 -52 -39
-18 -1 -38 -3 -44 -5 -7 -2 -12 -1 -13 4 -4 29 2 36 32 40 59 7 77 7 77 0z
m-2350 -26 c13 -4 14 -21 8 -118 -9 -155 -20 -271 -23 -267 -2 2 -8 84 -14
183 -6 99 -14 191 -17 203 -6 21 -5 23 12 14 10 -6 26 -13 34 -15z m3182 12
c21 1 26 -2 22 -14 -7 -17 -46 -20 -75 -4 -23 12 -15 34 10 23 9 -4 28 -6 43
-5z m-576 -34 c18 -44 19 -42 -16 -42 -31 0 -32 2 -34 50 -2 41 31 36 50 -8z
m-3156 15 c0 -5 -10 -10 -22 -10 -19 0 -15 -8 31 -54 43 -43 55 -63 62 -102
10 -54 8 -60 -19 -45 -14 7 -24 7 -37 -3 -17 -12 -16 -14 6 -35 22 -21 23 -22
6 -50 -9 -16 -17 -37 -17 -46 0 -14 -3 -15 -15 -5 -8 7 -15 23 -15 37 0 38
-46 91 -86 99 -31 6 -33 8 -27 38 3 17 15 40 26 50 15 15 18 28 14 62 -2 23
-2 47 2 52 11 17 91 28 91 12z m1768 -6 c10 -18 5 -54 -8 -54 -10 0 -20 26
-20 51 0 23 16 25 28 3z m1243 -35 c-30 -41 -27 -64 9 -61 3 0 13 4 23 7 13 6
17 2 17 -17 0 -13 6 -33 14 -43 13 -18 14 -18 47 1 18 11 36 30 39 42 5 22 5
22 30 -6 l26 -29 -26 -30 c-14 -17 -40 -34 -58 -38 -18 -4 -52 -24 -74 -46
-23 -21 -42 -39 -44 -39 -3 0 2 130 6 145 1 6 2 15 1 20 -2 18 -69 37 -101 30
-17 -4 -30 -3 -30 1 0 22 26 74 37 74 6 0 16 6 20 14 9 16 76 26 82 13 2 -5
-6 -22 -18 -38z m-3717 20 c21 -16 24 -24 16 -39 -13 -24 12 -52 65 -74 19 -8
35 -19 35 -25 0 -10 -34 -32 -82 -52 -17 -6 -28 -19 -28 -30 0 -23 21 -24 60
-4 34 18 38 8 16 -33 -21 -39 -37 -93 -30 -103 3 -5 11 -9 19 -9 13 0 24 23
56 118 9 29 29 68 43 87 14 18 26 38 26 44 0 14 -23 14 -37 0 -8 -8 -14 -5
-23 11 -6 12 -25 26 -41 32 -27 9 -57 44 -46 54 2 2 29 6 60 8 57 4 57 4 57
-25 0 -17 12 -41 30 -62 16 -19 27 -37 24 -40 -3 -3 1 -16 10 -28 14 -21 14
-24 -9 -45 -19 -18 -23 -29 -18 -57 5 -33 3 -35 -32 -47 -39 -13 -85 -67 -112
-130 -8 -19 -17 -37 -19 -39 -2 -3 -20 11 -39 29 -47 45 -47 79 1 117 37 30
40 63 4 63 -9 0 -31 5 -49 11 -23 8 -31 17 -31 35 0 25 3 28 54 39 25 5 27 9
21 33 -3 15 -9 39 -12 54 -3 14 -16 37 -29 49 -35 33 -31 73 7 78 4 1 18 -8
33 -20z m4018 -38 c22 -31 64 -47 83 -31 14 12 18 11 26 -1 5 -8 9 -26 9 -41
0 -23 -4 -28 -25 -28 -18 0 -25 -5 -25 -18 0 -11 11 -24 25 -30 14 -6 25 -18
25 -25 0 -24 21 -37 42 -26 15 8 18 17 12 47 l-6 37 25 -30 c16 -19 22 -34 16
-39 -5 -6 -9 -19 -9 -30 0 -10 -17 -35 -39 -55 -21 -20 -40 -43 -43 -51 -8
-25 -36 6 -49 54 -28 107 -34 118 -61 128 -32 11 -32 12 -17 40 9 16 7 24 -12
44 -12 13 -30 24 -40 24 -20 0 -29 20 -29 61 l0 29 39 -20 c22 -11 46 -28 53
-39z m-1436 18 c-3 -17 -6 -38 -6 -46 0 -9 -8 -13 -22 -11 -18 2 -23 10 -25
37 -3 36 8 51 41 51 15 0 17 -5 12 -31z m594 -33 c-14 -14 -24 0 -16 21 6 15
8 15 16 3 6 -9 5 -19 0 -24z m-2246 -15 c33 -68 88 -403 68 -423 -5 -5 -19 -5
-34 1 -23 9 -26 16 -33 87 -8 86 -19 126 -35 122 -6 -2 -11 34 -14 92 -2 52
-7 109 -11 126 -7 30 -6 31 19 27 16 -3 32 -16 40 -32z m2606 10 c-19 -37 -47
-49 -93 -40 -35 6 -46 4 -63 -12 -21 -20 -21 -20 -38 5 -22 34 -21 36 16 29
23 -4 34 -2 44 11 12 17 14 16 34 -4 l21 -21 42 26 c51 30 50 30 37 6z m946
-46 c-31 -29 -34 -60 -6 -75 17 -9 20 -21 20 -80 0 -68 -1 -70 -20 -58 -11 7
-20 21 -20 30 0 10 -10 28 -21 39 -20 20 -20 23 -5 31 21 12 21 44 0 56 -19
10 -15 19 30 76 25 30 31 34 39 21 6 -12 2 -23 -17 -40z m-1856 3 c0 -16 -3
-19 -11 -11 -6 6 -8 16 -5 22 11 17 16 13 16 -11z m-147 -21 c3 -8 8 -45 12
-83 17 -178 66 -354 126 -451 28 -45 18 -53 -14 -11 -50 65 -97 167 -116 249
-23 99 -39 309 -23 309 5 0 12 -6 15 -13z m100 -134 c4 -71 9 -141 12 -158 l5
-30 -14 31 c-16 33 -46 202 -46 254 0 23 5 30 19 30 16 0 19 -12 24 -127z
m597 102 c0 -8 -6 -15 -14 -15 -17 0 -28 14 -19 24 12 12 33 6 33 -9z m202
-43 c10 -2 22 5 29 16 12 19 13 19 48 -5 66 -45 66 -74 0 -66 -24 4 -50 1 -64
-7 -21 -11 -26 -10 -47 14 -13 15 -40 33 -61 40 -47 16 -45 32 4 28 24 -2 40
2 50 14 13 15 14 15 19 -7 3 -13 13 -25 22 -27z m-727 -132 c8 -52 15 -108 14
-125 0 -29 -1 -29 -15 10 -26 69 -46 232 -34 273 4 12 19 -57 35 -158z m-2033
70 c26 -32 23 -82 -8 -115 -24 -26 -30 -27 -83 -22 -32 2 -64 1 -72 -3 -8 -4
-25 -10 -39 -12 -14 -1 -29 -8 -35 -15 -11 -12 -86 -35 -93 -28 -2 2 25 18 59
36 68 34 88 53 89 83 0 18 -6 19 -60 5 -8 -2 -15 3 -15 11 0 8 32 32 70 52 60
33 77 38 119 34 36 -2 55 -9 68 -26z m-355 -12 c-3 -8 -6 -5 -6 6 -1 11 2 17
5 13 3 -3 4 -12 1 -19z m2978 2 c-3 -5 -10 -10 -16 -10 -5 0 -9 5 -9 10 0 6 7
10 16 10 8 0 12 -4 9 -10z m385 0 c0 -5 -2 -10 -4 -10 -3 0 -8 5 -11 10 -3 6
-1 10 4 10 6 0 11 -4 11 -10z m187 -12 c-3 -8 -6 -5 -6 6 -1 11 2 17 5 13 3
-3 4 -12 1 -19z m-614 -18 c-4 -4 -25 -10 -45 -13 -28 -4 -38 -2 -38 8 0 9 14
15 38 17 42 4 58 -1 45 -12z m-3618 -6 c15 -6 14 -8 -1 -25 -24 -26 -6 -44 59
-59 29 -6 62 -16 74 -22 12 -6 30 -7 40 -4 16 7 15 10 -10 32 -15 13 -37 24
-49 24 -24 0 -91 30 -83 38 2 3 29 6 58 7 50 1 55 -1 66 -26 11 -25 63 -59 90
-59 6 0 17 11 23 25 18 40 50 29 60 -20 6 -26 23 -54 50 -82 51 -52 43 -68
-40 -78 -81 -10 -104 -27 -96 -70 6 -35 6 -35 -30 -35 -27 0 -44 -7 -61 -26
-14 -15 -25 -33 -25 -40 0 -8 -4 -14 -9 -14 -12 0 -24 74 -16 99 3 11 1 22 -5
26 -6 4 -15 18 -20 31 -6 14 -20 26 -37 30 -15 3 -39 9 -53 14 -24 7 -24 8 -5
15 11 4 27 17 37 28 13 17 19 19 31 9 10 -8 29 -10 58 -6 37 6 41 5 36 -9 -15
-38 -19 -115 -7 -122 19 -12 30 8 47 81 15 68 15 68 -8 87 -22 18 -59 18 -105
0 -9 -3 -14 1 -14 11 0 10 -18 24 -45 36 -44 19 -45 20 -45 65 0 45 5 50 35
39z m3755 -21 c0 -5 -6 -15 -13 -24 -11 -14 -15 -14 -42 3 l-30 19 33 -6 c20
-4 32 -3 32 4 0 6 5 11 10 11 6 0 10 -3 10 -7z m171 -51 c16 -42 3 -35 -21 9
-17 34 -18 40 -5 29 9 -8 21 -25 26 -38z m-3253 26 c20 -20 14 -28 -21 -28
-18 0 -49 -11 -71 -26 -32 -22 -36 -23 -27 -7 11 22 33 41 65 59 28 16 40 16
54 2z m2119 -60 c-2 -13 -4 -3 -4 22 0 25 2 35 4 23 2 -13 2 -33 0 -45z m2073
47 c7 -8 10 -25 6 -40 -5 -19 0 -35 19 -59 25 -32 35 -99 17 -110 -10 -6 -56
17 -77 38 -8 8 -19 16 -25 18 -9 3 -12 45 -8 131 1 33 4 37 29 37 14 0 32 -7
39 -15z m-3556 -176 c-4 -58 -2 -89 5 -93 6 -4 11 -16 11 -27 0 -15 -6 -20
-22 -17 -22 3 -23 8 -26 93 -2 50 2 122 9 160 l13 70 8 -50 c5 -27 6 -89 2
-136z m2761 161 c3 -5 1 -10 -4 -10 -6 0 -11 5 -11 10 0 6 2 10 4 10 3 0 8 -4
11 -10z m-2985 -79 c0 -32 -25 -60 -41 -44 -12 12 17 86 31 78 6 -3 10 -19 10
-34z m1776 14 c7 -29 1 -41 -15 -30 -14 8 -14 55 -1 55 5 0 12 -11 16 -25z
m1472 -25 c18 -16 37 -30 42 -30 7 0 7 -6 1 -17 -13 -25 -17 -66 -8 -80 4 -7
3 -22 -4 -34 l-11 -21 -11 22 c-7 13 -21 28 -32 34 -31 17 -35 27 -35 87 0 79
10 86 58 39z m-2558 -82 c0 -25 -19 -32 -46 -17 -19 10 -24 21 -24 49 0 20 3
40 7 44 10 10 63 -54 63 -76z m1040 39 c-1 -21 -1 -21 -15 -3 -8 10 -12 23 -9
28 9 14 24 -2 24 -25z m1240 23 c0 -5 -4 -10 -10 -10 -5 0 -10 5 -10 10 0 6 5
10 10 10 6 0 10 -4 10 -10z m-640 -17 c0 -28 -17 -50 -29 -38 -8 8 -6 18 5 33
18 27 24 28 24 5z m-2550 -8 c49 -2 140 -34 140 -49 0 -15 54 -56 73 -56 28 0
35 -27 42 -160 3 -74 11 -158 17 -186 6 -29 8 -63 4 -77 -10 -41 -108 -140
-170 -171 -61 -31 -163 -46 -199 -28 -12 6 -45 18 -73 28 -147 49 -247 189
-247 345 0 80 47 213 92 262 61 65 169 110 241 100 25 -3 61 -7 80 -8z m-350
1 c0 -2 -8 -10 -17 -17 -16 -13 -17 -12 -4 4 13 16 21 21 21 13z m2368 -7 c-2
-6 -8 -10 -13 -10 -5 0 -11 4 -13 10 -2 6 4 11 13 11 9 0 15 -5 13 -11z
m-1467 -30 c23 -23 22 -57 -2 -72 -31 -19 -49 -1 -49 48 0 51 16 59 51 24z
m2564 1 c13 -14 31 -20 62 -20 58 0 53 -14 -20 -63 l-57 -38 0 -76 c0 -69 3
-80 26 -104 l25 -26 -37 -31 -37 -31 -23 22 c-15 14 -19 26 -13 32 16 16 10
43 -12 50 -14 5 -18 12 -14 23 16 37 16 50 2 55 -8 3 -23 -1 -34 -8 -16 -12
-16 -16 -4 -36 12 -21 11 -25 -18 -51 -50 -44 -65 -35 -36 22 9 17 12 31 8 31
-5 1 -24 3 -43 4 -19 1 -72 7 -118 14 -46 6 -92 9 -103 6 -24 -8 -24 0 2 37
26 36 63 52 89 38 14 -7 25 -7 38 1 26 16 78 3 63 -15 -15 -18 3 -31 50 -40
26 -5 40 -2 48 8 17 21 6 34 -34 42 -43 8 -45 20 -5 29 16 4 33 12 37 19 5 7
18 18 31 25 12 6 22 19 22 28 0 22 49 73 70 73 9 0 25 -9 35 -20z m-1035 -75
c0 -6 20 -38 44 -71 38 -53 92 -94 123 -94 4 0 25 -11 45 -25 20 -14 43 -25
51 -25 26 0 75 30 80 49 3 13 20 24 46 31 31 8 49 21 69 50 15 22 30 39 34 40
8 0 1 -49 -13 -94 -5 -16 -9 -40 -9 -53 0 -15 -12 -35 -30 -51 -17 -15 -30
-36 -30 -50 0 -12 -7 -25 -16 -29 -9 -3 -13 -12 -9 -21 6 -17 -7 -64 -39 -137
-12 -27 -27 -60 -32 -72 -5 -12 -40 -44 -79 -72 -57 -42 -77 -51 -111 -51 -34
0 -46 5 -62 27 -11 15 -24 23 -30 19 -19 -11 -14 -31 13 -56 33 -31 32 -43
-10 -63 -53 -25 -64 -57 -37 -111 16 -33 29 -47 56 -56 24 -8 37 -20 45 -41 9
-27 8 -31 -12 -38 -18 -7 -29 -2 -60 28 -51 48 -84 114 -96 192 -19 121 -34
410 -28 527 4 64 4 127 1 140 -11 39 -29 18 -30 -34 -3 -134 -7 -151 -15 -59
-10 128 -10 245 -1 245 5 0 17 -9 27 -20 26 -29 49 -26 41 4 -9 36 23 40 51 7
13 -14 23 -31 23 -36z m1864 36 c15 -17 15 -19 1 -25 -25 -9 -16 -62 10 -59
24 2 95 -36 95 -51 0 -12 -24 -29 -73 -54 -33 -16 -31 -37 4 -37 38 0 46 -21
41 -99 -3 -58 -1 -74 12 -85 35 -29 6 -131 -36 -131 -6 0 -20 -8 -31 -17 -20
-18 -20 -17 -13 24 3 23 2 53 -4 68 -7 18 -6 40 1 68 24 92 23 96 -6 107 -14
5 -39 10 -54 10 -15 0 -36 8 -45 19 -16 18 -15 19 28 30 35 9 47 17 52 35 3
14 12 27 20 30 17 6 19 46 3 46 -17 0 -59 49 -59 69 0 20 22 71 31 71 3 0 14
-8 23 -19z m-4408 -18 c-10 -10 -19 5 -10 18 6 11 8 11 12 0 2 -7 1 -15 -2
-18z m3322 0 c-4 -22 -67 -44 -98 -36 -20 5 -18 8 21 28 56 28 82 31 77 8z
m-1946 -43 c-9 -24 -9 -24 -20 -4 -8 16 -8 24 0 32 18 18 30 -1 20 -28z
m-1444 18 c-3 -7 -13 -13 -23 -13 -10 0 -20 6 -22 13 -3 7 5 12 22 12 17 0 25
-5 23 -12z m1385 -2 c6 -15 -1 -26 -15 -26 -4 0 -8 9 -8 20 0 23 15 27 23 6z
m2564 -3 c12 -2 24 -15 27 -27 12 -47 86 -51 86 -5 0 27 18 31 65 15 37 -13
40 -17 37 -48 -2 -18 -8 -50 -13 -70 -8 -33 -15 -39 -52 -48 -73 -19 -76 -22
-59 -45 12 -16 80 -65 91 -65 5 0 -1 -11 -14 -24 -16 -16 -31 -22 -45 -19 -25
7 -77 -14 -84 -34 -6 -14 50 -93 66 -93 5 0 11 7 14 15 4 8 12 15 19 15 7 0
22 11 32 26 13 17 24 23 36 18 21 -8 23 -24 3 -24 -14 0 -106 -100 -106 -114
0 -4 12 -6 27 -4 22 2 40 -10 96 -64 38 -38 72 -68 77 -68 17 0 20 34 4 58
-15 23 -15 25 1 19 9 -4 32 -7 50 -7 31 0 34 -2 33 -32 0 -18 -7 -46 -15 -61
-13 -26 -12 -32 6 -63 20 -34 19 -64 -3 -64 -21 0 -56 31 -56 49 0 9 -17 33
-37 53 -29 28 -48 38 -78 40 -34 3 -40 7 -43 28 -6 41 -19 45 -56 17 -35 -27
-60 -37 -38 -15 22 22 12 31 -28 24 -32 -5 -46 -2 -70 16 -23 16 -42 21 -82
20 l-53 -2 30 25 c16 13 42 27 57 30 15 4 38 15 51 25 24 19 25 19 41 1 17
-18 16 -20 -3 -26 -28 -9 -17 -25 16 -25 51 0 87 61 42 73 -11 3 -23 15 -26
26 -6 24 -23 27 -42 9 -11 -11 -12 -9 -7 8 4 14 0 27 -14 39 -24 22 -25 42 -4
66 14 16 14 20 -1 42 -9 14 -28 30 -43 36 -15 6 -47 24 -72 40 -25 16 -56 30
-69 30 -13 1 -22 4 -19 7 12 11 75 13 107 3 27 -9 36 -8 49 4 13 13 13 19 2
32 -11 13 -11 20 0 40 17 33 0 53 -52 61 -42 7 -53 17 -44 41 5 13 17 14 74 8
37 -3 77 -9 89 -12z m629 2 c24 -18 7 -19 -26 0 -16 9 -19 14 -9 15 8 0 24 -7
35 -15z m-4496 -30 c0 -8 -7 -15 -15 -15 -8 0 -15 7 -15 15 0 8 7 15 15 15 8
0 15 -7 15 -15z m1010 -14 c0 -5 -11 -16 -25 -25 -24 -16 -25 -15 -25 3 0 19
12 29 38 30 6 1 12 -3 12 -8z m290 -42 c0 -22 10 -25 28 -7 6 6 14 9 17 6 7
-7 -11 -516 -25 -698 -12 -144 -18 -251 -19 -314 l-1 -38 -35 6 c-39 8 -45 -2
-15 -29 26 -24 25 -47 -3 -73 l-24 -22 -18 20 c-16 17 -17 25 -7 57 6 20 10
38 8 40 -2 2 -14 -6 -28 -17 l-26 -20 -5 21 c-3 12 0 31 8 43 7 11 16 48 20
81 3 33 17 137 30 230 13 94 26 215 30 270 3 55 8 120 10 145 2 25 9 99 15
165 6 66 13 130 16 143 5 27 24 20 24 -9z m-1355 -9 c3 -5 1 -10 -4 -10 -6 0
-11 5 -11 10 0 6 2 10 4 10 3 0 8 -4 11 -10z m979 -67 c8 -54 7 -93 -3 -93 -9
0 -41 104 -41 134 0 33 37 -1 44 -41z m98 15 c6 -20 9 -553 3 -546 -3 3 -10
50 -15 104 -5 54 -17 170 -26 256 -17 152 -17 158 1 178 21 23 31 25 37 8z
m71 -118 c3 -41 2 -91 -2 -110 -6 -27 -9 -11 -13 70 -5 93 -3 128 7 118 2 -2
5 -37 8 -78z m-1358 60 c3 -5 -1 -10 -9 -10 -8 0 -18 5 -21 10 -3 6 1 10 9 10
8 0 18 -4 21 -10z m-122 -25 c-7 -21 -13 -19 -13 6 0 11 4 18 10 14 5 -3 7
-12 3 -20z m4531 10 c3 -8 17 -20 31 -27 20 -9 28 -8 44 6 16 14 20 15 30 2 7
-8 34 -20 62 -27 50 -13 61 -25 33 -36 -11 -4 -14 -13 -10 -30 5 -16 0 -30
-14 -45 -28 -30 -45 -12 -25 26 19 35 19 55 2 62 -24 9 -109 -16 -139 -41 -36
-30 -52 -24 -33 12 12 24 12 30 -6 55 -22 30 -19 58 5 58 7 0 16 -7 20 -15z
m-4194 -14 c0 -12 -20 -25 -27 -18 -7 7 6 27 18 27 5 0 9 -4 9 -9z m-124 -16
c3 -8 15 -17 26 -21 63 -20 72 -81 18 -112 -17 -9 -30 -23 -30 -30 0 -15 58
-52 82 -52 28 0 33 -22 10 -41 -12 -9 -22 -24 -22 -33 0 -12 -6 -15 -24 -10
-34 8 -143 -14 -202 -42 -55 -26 -80 -29 -104 -14 -23 14 -1 29 63 44 33 8 61
9 71 4 19 -10 50 31 41 55 -13 32 19 30 47 -3 26 -32 29 -33 45 -17 16 16 16
18 -4 39 -30 34 -38 90 -17 134 13 27 14 38 5 47 -10 9 -18 6 -36 -15 -13 -16
-28 -35 -33 -45 -9 -15 -13 -15 -58 0 -48 15 -50 15 -72 -6 l-24 -22 -29 33
c-31 34 -35 68 -9 65 8 -1 29 -6 45 -11 110 -37 125 -37 125 -3 0 10 7 24 15
31 8 7 15 19 15 26 0 19 49 18 56 -1z m1104 -37 c0 -13 3 -33 6 -45 10 -38
-14 -26 -31 14 -12 29 -13 38 -3 45 21 13 28 9 28 -14z m2829 -2 l39 -25 -20
-40 c-23 -48 -55 -58 -113 -37 -73 26 -95 39 -95 58 0 14 8 18 38 19 22 0 51
10 72 24 19 13 36 24 38 24 1 1 20 -10 41 -23z m-734 -26 c-4 -12 -9 -19 -12
-17 -3 3 -2 15 2 27 4 12 9 19 12 17 3 -3 2 -15 -2 -27z m-5 -49 c0 -11 9 -26
20 -34 16 -11 18 -16 8 -25 -22 -18 -58 17 -51 51 6 31 23 37 23 8z m1210 5
c0 -2 2 -11 5 -19 4 -9 -14 -27 -55 -52 -62 -39 -81 -75 -39 -75 18 0 20 -4
14 -32 -4 -18 -9 -35 -11 -37 -7 -8 -94 64 -94 79 0 20 26 45 58 54 12 4 22
13 22 21 0 7 19 25 43 39 40 24 57 31 57 22z m-4501 -62 c7 -6 -34 -83 -45
-84 -21 0 -114 31 -114 39 0 4 16 14 35 21 20 8 41 20 47 27 10 12 63 10 77
-3z m1227 -94 c5 -71 4 -92 -5 -84 -7 6 -13 50 -15 103 -4 119 11 105 20 -19z
m3399 49 c0 -27 -4 -34 -20 -34 -16 0 -19 5 -16 30 4 37 10 47 24 42 7 -2 12
-19 12 -38z m-1362 -52 c-21 -22 -25 -17 -17 22 6 28 8 30 20 14 10 -15 10
-21 -3 -36z m-87 6 c-18 -33 -21 -26 -6 13 6 15 13 24 16 21 3 -3 -1 -18 -10
-34z m814 27 c0 -5 -2 -10 -4 -10 -3 0 -8 5 -11 10 -3 6 -1 10 4 10 6 0 11 -4
11 -10z m-3627 -75 c21 -25 36 -45 33 -45 -3 0 -30 9 -61 21 l-55 20 18 24 c9
14 19 25 22 25 3 0 23 -20 43 -45z m3022 8 c-3 -8 -5 -30 -5 -49 0 -30 -2 -33
-18 -25 -26 14 -69 2 -104 -30 -28 -27 -30 -33 -24 -77 7 -54 -12 -97 -34 -75
-15 14 7 190 24 204 6 4 26 21 45 37 26 22 44 29 78 29 34 0 43 -4 38 -14z
m1385 -37 c0 -15 -3 -16 -15 -6 -8 7 -15 24 -15 38 0 25 1 25 15 6 8 -10 15
-27 15 -38z m-3700 -6 c13 -8 13 -10 -2 -10 -9 0 -20 5 -23 10 -8 13 5 13 25
0z m2716 -6 c-4 -10 11 -36 44 -72 l49 -57 -32 -6 c-46 -9 -81 -24 -97 -44 -7
-9 -22 -21 -32 -26 -18 -10 -18 -9 -3 28 9 21 15 49 14 63 -2 14 7 41 19 60
12 19 22 43 22 53 0 9 5 17 11 17 6 0 8 -7 5 -16z m-662 -34 c-5 -23 -3 -30
10 -30 9 0 16 4 16 8 0 5 6 17 14 27 16 23 18 40 -14 -145 -11 -63 -24 -132
-30 -152 -21 -75 -136 -218 -175 -218 -18 0 -19 -12 -3 -28 9 -9 6 -12 -14
-12 -28 0 -53 -23 -43 -40 8 -13 46 -13 79 0 39 14 34 -15 -5 -35 -29 -15 -30
-18 -15 -34 9 -10 13 -21 10 -24 -4 -4 -1 -13 6 -22 16 -19 0 -40 -37 -50 -67
-17 -224 156 -169 187 22 12 20 28 -3 28 -10 0 -29 8 -42 19 -22 17 -24 27
-26 127 -2 60 -4 142 -6 182 -1 39 1 72 5 72 5 0 8 -7 8 -15 0 -42 53 -142
103 -194 30 -31 60 -73 68 -94 17 -49 44 -47 44 3 0 46 30 54 38 10 4 -16 11
-30 16 -30 16 0 33 40 28 61 -3 11 2 27 12 37 9 9 23 30 29 46 11 25 10 31 -8
48 -21 20 -25 17 -32 -26 -2 -11 -8 -21 -15 -23 -7 -3 -9 3 -6 17 4 15 2 19
-10 14 -9 -3 -23 -1 -32 4 -14 7 -11 12 19 30 32 19 36 26 36 60 0 25 -8 49
-21 66 -28 35 -21 49 35 64 29 8 63 27 89 52 23 22 43 40 44 40 1 0 0 -13 -3
-30z m-1888 -37 c-13 -13 -28 15 -20 38 l7 24 10 -28 c5 -16 6 -31 3 -34z
m2691 46 c6 -6 37 -9 72 -7 58 3 62 2 55 -17 -4 -11 -9 -42 -11 -68 -4 -39 -9
-50 -29 -57 -13 -5 -33 -19 -44 -30 -16 -16 -29 -20 -47 -15 -23 5 -24 7 -10
23 9 9 20 30 26 45 10 26 8 33 -29 74 -22 25 -40 50 -40 54 0 13 44 11 57 -2z
m-3392 -32 c63 -18 135 -65 135 -88 0 -9 -6 -22 -14 -28 -11 -10 -16 -8 -21 8
-8 26 -67 46 -93 32 -17 -9 -23 -6 -37 17 -10 15 -29 40 -44 56 l-26 29 25 -6
c14 -3 48 -12 75 -20z m2925 -2 c0 -22 -27 -85 -37 -85 -15 0 -9 85 7 92 24
11 30 9 30 -7z m-102 -7 c15 -15 16 -58 2 -58 -5 0 -10 9 -10 20 0 25 -35 27
-49 3 -5 -10 -12 -15 -15 -12 -11 10 4 36 27 47 29 14 31 14 45 0z m-2238 -16
c32 -12 47 -25 51 -42 18 -65 40 -163 37 -165 -2 -2 -25 -5 -53 -6 -48 -3 -51
-2 -67 31 -9 19 -17 44 -18 55 0 24 -36 85 -49 85 -16 0 -47 -47 -71 -107 -13
-32 -27 -63 -32 -69 -4 -6 -40 -15 -78 -18 -38 -4 -72 -11 -75 -16 -7 -11 17
-34 65 -61 46 -26 47 -34 20 -115 -43 -130 -20 -148 81 -64 39 33 75 60 78 60
4 0 43 -29 86 -65 43 -36 81 -65 86 -65 21 0 18 27 -10 111 -17 50 -31 97 -31
104 0 7 16 23 35 35 19 12 39 29 44 38 5 9 12 14 15 11 8 -8 9 -31 8 -191 l-2
-147 -44 -30 c-45 -31 -144 -61 -205 -61 -19 0 -64 9 -102 20 -113 34 -214
144 -238 260 -36 170 51 338 209 406 69 29 191 32 260 6z m-380 -2 c0 -5 -4
-10 -10 -10 -5 0 -10 5 -10 10 0 6 5 10 10 10 6 0 10 -4 10 -10z m3947 -24
l71 0 -29 -35 c-35 -43 -36 -57 -5 -82 14 -11 26 -34 30 -56 4 -21 9 -46 12
-55 4 -12 0 -18 -10 -18 -24 0 -66 22 -66 35 0 7 -9 20 -20 30 -11 10 -20 26
-20 36 0 26 -34 43 -50 24 -8 -10 -8 -19 -1 -33 9 -16 6 -23 -12 -35 -12 -8
-30 -28 -39 -45 -16 -27 -16 -31 -2 -43 17 -14 14 -17 64 51 15 21 20 22 34
11 10 -8 14 -21 11 -32 -4 -10 1 -35 11 -54 20 -42 14 -53 -18 -31 -31 22 -60
20 -92 -5 -26 -21 -28 -21 -41 -3 -8 11 -11 31 -8 46 3 16 0 35 -7 43 -15 18
-5 35 20 35 28 0 60 47 60 90 0 20 -3 40 -7 44 -4 3 -8 27 -9 52 -1 45 -1 45
25 38 14 -4 58 -7 98 -8z m-3448 -38 c-1 -41 -1 -42 -11 -15 -5 15 -7 34 -4
42 10 27 16 16 15 -27z m1634 -15 c-18 -6 -16 -28 2 -43 22 -18 20 -60 -4 -60
-21 0 -51 40 -51 69 0 19 49 53 60 43 3 -3 -1 -7 -7 -9z m502 8 c3 -5 1 -12
-5 -16 -5 -3 -10 1 -10 9 0 18 6 21 15 7z m459 -35 c-6 -16 -34 -29 -43 -20
-6 6 27 34 41 34 4 0 5 -6 2 -14z m378 -10 c50 -1 58 -4 68 -25 14 -30 9 -34
-26 -20 -34 13 -177 17 -216 6 -44 -12 -32 6 20 30 29 14 56 20 72 16 14 -3
51 -6 82 -7z m-3171 -81 c3 -16 -2 -21 -25 -23 -41 -5 -46 7 -24 58 l20 45 13
-30 c7 -16 15 -39 16 -50z m2375 -13 c16 3 37 9 47 13 14 6 17 2 17 -24 0 -22
9 -40 27 -57 l28 -26 -27 7 c-62 16 -140 -41 -154 -113 -8 -38 -16 -40 -29 -9
-7 16 -18 22 -42 22 -25 0 -29 3 -23 15 5 9 5 22 0 30 -10 17 -3 33 11 24 5
-3 22 2 37 12 18 12 23 13 15 3 -18 -22 1 -47 24 -33 29 18 76 105 63 118 -7
7 -15 5 -27 -7 -16 -15 -18 -14 -30 21 -18 54 -16 61 10 28 19 -23 29 -28 53
-24z m-2039 16 c-3 -8 -6 -5 -6 6 -1 11 2 17 5 13 3 -3 4 -12 1 -19z m-767 5
c0 -5 -5 -15 -10 -23 -9 -13 -11 -13 -20 0 -15 22 -12 30 10 30 11 0 20 -3 20
-7z m705 -61 c-10 -26 -22 3 -17 41 l5 32 10 -28 c5 -15 6 -35 2 -45z m2578
58 c23 0 22 -17 -2 -25 -20 -6 -61 13 -61 29 0 4 10 6 23 2 12 -3 30 -6 40 -6z
m477 0 c0 -5 -7 -10 -15 -10 -8 0 -15 5 -15 10 0 6 7 10 15 10 8 0 15 -4 15
-10z m-1160 -5 c0 -3 -9 -15 -20 -27 -20 -21 -20 -21 -20 -2 0 12 3 24 7 27 8
8 33 9 33 2z m1043 -22 c71 -22 178 -111 217 -180 28 -49 33 -70 38 -145 2
-47 1 -95 -3 -105 -4 -10 -9 -32 -11 -50 -8 -84 -100 -195 -197 -239 -54 -25
-74 -28 -162 -29 -90 0 -106 3 -163 29 -67 31 -148 108 -181 175 -74 144 -49
316 62 437 103 113 253 153 400 107z m187 10 c-1 -18 -19 -35 -29 -28 -9 5 -7
11 6 21 21 16 23 16 23 7z m-1137 -15 c6 -17 -10 -58 -23 -58 -5 0 -10 16 -10
35 0 35 22 50 33 23z m409 -65 c-6 -10 -8 -31 -5 -46 8 -42 -5 -32 -17 13 -6
22 -20 44 -30 50 -28 15 -25 32 3 25 16 -4 28 0 38 11 13 16 14 15 17 -9 2
-14 -1 -34 -6 -44z m-2312 11 c0 -14 -4 -22 -10 -19 -5 3 -10 17 -10 31 0 14
4 22 10 19 6 -3 10 -17 10 -31z m2420 16 c0 -5 -2 -10 -4 -10 -3 0 -8 5 -11
10 -3 6 -1 10 4 10 6 0 11 -4 11 -10z m-2741 -30 c9 -27 7 -33 -17 -55 -38
-35 -57 -39 -89 -18 -15 10 -30 16 -33 13 -3 -3 -6 9 -8 26 -5 46 19 64 83 64
50 0 54 -2 64 -30z m81 21 c0 -5 -7 -12 -16 -15 -22 -9 -24 -8 -24 9 0 8 9 15
20 15 11 0 20 -4 20 -9z m-272 -13 c-6 -18 -28 -21 -28 -4 0 9 7 16 16 16 9 0
14 -5 12 -12z m449 -130 c19 -142 19 -191 4 -302 -14 -106 -27 -137 -35 -86
-11 70 -14 172 -5 203 6 21 5 33 -1 35 -11 4 -14 264 -3 276 15 15 27 -19 40
-126z m2283 56 c11 -12 -21 -39 -57 -49 -49 -12 -73 -31 -73 -57 0 -23 48 -67
73 -68 20 0 23 -32 5 -48 -7 -6 -26 -8 -41 -5 -21 4 -26 10 -22 23 4 11 -4 29
-20 46 -14 15 -25 28 -25 29 0 18 35 77 51 85 13 7 18 17 14 27 -3 9 0 20 7
25 12 8 77 2 88 -8z m-163 -32 c-15 -15 -27 -35 -27 -43 0 -8 -7 -24 -15 -35
-15 -18 -16 -17 -10 16 12 67 25 90 53 90 l26 0 -27 -28z m-2497 -18 c0 -6
-16 -24 -36 -39 l-37 -28 7 39 c10 53 22 66 47 51 10 -6 19 -17 19 -23z m162
-17 c21 -56 9 -61 -40 -16 -33 29 -33 31 -16 50 24 27 36 20 56 -34z m2161
-47 c9 -11 23 -20 31 -20 8 0 23 -18 34 -39 20 -38 20 -39 2 -44 -12 -3 -29 6
-46 24 -15 16 -38 29 -51 29 -20 0 -23 3 -17 28 12 49 20 53 47 22z m-94 -44
c10 -12 8 -17 -8 -26 -37 -19 -90 8 -64 33 12 12 60 7 72 -7z m-2651 -5 c9 -5
26 -12 36 -16 18 -5 18 -6 1 -19 -11 -8 -16 -20 -12 -30 4 -9 2 -16 -3 -16 -6
0 -10 6 -10 14 0 8 -10 23 -23 33 -13 10 -22 24 -19 31 4 14 7 15 30 3z m935
-76 c35 -22 39 -40 22 -82 -18 -43 -18 -43 -1 -43 21 0 28 16 35 78 6 57 27
81 33 40 2 -13 0 -36 -3 -53 -9 -35 -16 -83 -28 -185 -5 -41 -19 -157 -32
-257 l-23 -183 -38 0 c-29 0 -41 -6 -54 -25 -23 -35 -37 -32 -30 8 3 17 12 73
20 122 8 50 21 106 29 125 8 19 18 65 21 101 3 36 12 86 20 110 20 56 20 69 0
69 -18 0 -41 -52 -56 -128 -12 -62 -28 -92 -28 -51 0 13 7 69 15 124 7 55 19
140 25 188 14 114 19 128 36 89 7 -17 24 -38 37 -47z m1976 46 c15 -23 14 -23
-9 -16 -28 8 -42 24 -33 38 8 12 25 4 42 -22z m-2798 -19 c-7 -2 -19 -1 -29 3
-14 5 -14 7 -2 15 9 5 20 4 28 -3 10 -8 11 -12 3 -15z m-778 -36 c28 -25 34
-36 25 -43 -43 -33 -78 -14 -78 43 0 19 3 34 8 34 4 -1 24 -16 45 -34z m3152
14 c-3 -5 -11 -10 -16 -10 -6 0 -7 5 -4 10 3 6 11 10 16 10 6 0 7 -4 4 -10z
m496 -50 c115 -36 199 -130 225 -253 30 -144 -31 -278 -162 -357 -56 -34 -61
-35 -158 -35 -87 0 -107 3 -146 24 -80 41 -127 87 -162 159 -29 59 -33 76 -33
147 1 156 89 274 238 320 61 20 126 18 198 -5z m-399 -7 c23 -21 23 -35 -1
-50 -25 -16 -61 -92 -61 -131 0 -17 -4 -34 -10 -37 -5 -3 -10 -24 -10 -46 0
-27 -4 -39 -14 -39 -10 0 -18 22 -26 73 -6 39 -16 83 -21 96 -8 20 -6 28 15
48 14 13 26 30 26 38 0 12 62 62 79 64 3 1 13 -6 23 -16z m-1521 -84 l-11 -34
5 34 c3 18 6 48 7 65 l1 31 4 -31 c2 -18 -1 -47 -6 -65z m-905 41 c79 -39 153
-111 190 -185 26 -54 29 -70 29 -160 0 -93 -2 -105 -33 -167 -47 -96 -133
-172 -225 -200 -189 -57 -381 27 -472 208 -27 53 -30 68 -30 154 0 86 3 101
32 162 51 108 149 190 260 218 67 16 181 3 249 -30z m-520 -5 c60 0 80 -3 77
-12 -7 -17 -65 -26 -117 -19 -39 6 -46 4 -56 -15 -10 -18 -14 -19 -25 -8 -8 8
-17 26 -20 41 -7 27 -6 28 26 20 19 -4 71 -7 115 -7z m1065 -22 c0 -5 2 -34 4
-66 5 -60 15 -88 46 -122 17 -19 17 -25 2 -110 -8 -49 -19 -94 -23 -99 -4 -4
-27 -5 -50 -1 -33 6 -40 10 -34 23 29 68 8 101 -49 77 -24 -10 -38 -11 -42 -4
-4 5 -18 14 -32 20 -34 13 -28 49 10 62 23 7 31 6 42 -9 13 -18 15 -18 44 -1
25 15 33 16 51 5 11 -7 18 -19 15 -26 -12 -32 33 -69 50 -41 11 16 -4 59 -20
59 -10 0 -12 9 -8 34 8 54 -3 86 -31 86 -33 0 -47 21 -40 59 8 37 62 82 65 54z
m-220 -105 c28 -31 28 -33 10 -36 -32 -5 -76 21 -79 46 -5 34 33 28 69 -10z
m-991 2 c0 -5 -2 -10 -4 -10 -3 0 -8 5 -11 10 -3 6 -1 10 4 10 6 0 11 -4 11
-10z m100 -30 c0 -5 -2 -10 -4 -10 -3 0 -8 5 -11 10 -3 6 -1 10 4 10 6 0 11
-4 11 -10z m-30 -10 c0 -5 -5 -10 -11 -10 -5 0 -7 5 -4 10 3 6 8 10 11 10 2 0
4 -4 4 -10z m1089 -6 c3 -3 -1 -10 -7 -16 -9 -9 -17 -9 -34 -1 -13 7 -36 16
-53 22 -25 9 -19 9 30 4 33 -3 62 -7 64 -9z m2661 -46 c32 -23 40 -48 15 -48
-18 0 -65 43 -65 60 0 16 18 12 50 -12z m490 -78 c0 -6 -12 -15 -27 -21 -15
-6 -34 -15 -41 -22 -9 -7 -45 -10 -96 -8 -54 1 -95 -3 -125 -13 -52 -19 -59
-20 -43 -4 7 7 12 20 12 31 0 15 4 17 23 10 42 -15 179 -3 242 20 49 19 55 20
55 7z m204 -18 c2 -4 2 -26 -1 -48 -4 -32 -11 -43 -34 -53 -38 -17 -37 -26 9
-48 24 -12 43 -31 55 -56 19 -41 49 -48 55 -12 5 28 31 46 59 39 13 -4 30 -1
39 6 23 20 37 -2 37 -54 -1 -64 -11 -75 -37 -43 l-22 27 -32 -23 c-27 -18 -31
-27 -26 -49 10 -49 -39 -32 -63 21 -27 60 -89 135 -138 165 -26 17 -42 33 -37
38 10 10 42 0 42 -13 0 -5 5 -9 10 -9 6 0 10 7 10 15 0 7 6 18 14 22 18 11 29
50 16 58 -6 3 -8 11 -5 16 7 11 42 12 49 1z m-638 -30 c6 -4 17 -18 24 -31 13
-24 2 -40 -27 -41 -6 0 -19 -10 -28 -22 -16 -23 -16 -23 -30 -4 -26 35 -13 84
25 99 21 8 24 8 36 -1z m-2880 -63 c-39 -31 -56 -25 -56 20 l0 38 40 -19 40
-20 -24 -19z m2961 25 c-3 -3 -12 -4 -19 -1 -8 3 -5 6 6 6 11 1 17 -2 13 -5z
m343 -56 c67 -30 120 -75 169 -143 91 -123 91 -318 0 -450 -72 -106 -171 -166
-286 -173 -72 -5 -73 -4 -105 30 -130 138 -129 137 -211 165 -90 32 -97 41
-117 144 -38 191 101 399 297 449 69 17 192 7 253 -22z m-3120 -36 c53 -9 74
-36 45 -58 -22 -17 -49 -15 -51 4 -1 6 -2 17 -3 23 -1 7 -13 9 -36 5 -33 -6
-35 -5 -35 19 0 21 4 25 19 20 10 -3 38 -9 61 -13z m-180 -9 c0 -3 -8 -15 -17
-25 -24 -26 -6 -53 35 -54 39 0 47 -7 27 -24 -8 -7 -15 -23 -15 -35 0 -21 -4
-23 -62 -23 -60 -1 -62 0 -40 15 26 19 30 53 5 53 -32 -1 -56 -27 -51 -55 4
-19 1 -25 -13 -25 -27 0 -24 31 9 90 16 29 34 50 44 50 10 0 22 9 28 20 10 18
50 29 50 13z m-902 -35 c-3 -7 -11 -13 -18 -13 -7 0 -15 6 -17 13 -3 7 4 12
17 12 13 0 20 -5 18 -12z m3665 -4 c4 -4 -9 -34 -27 -68 -19 -33 -39 -84 -46
-113 -8 -34 -21 -60 -41 -77 -34 -31 -35 -36 -9 -69 29 -36 13 -39 -45 -7 -36
19 -53 36 -61 59 -17 51 -39 67 -74 54 -22 -8 -38 -8 -64 1 -45 16 -60 31 -21
22 60 -15 75 -10 142 44 59 48 93 62 93 40 0 -21 -31 -70 -44 -70 -7 0 -19 -6
-25 -13 -8 -11 -6 -18 10 -33 20 -18 21 -18 34 -1 7 10 21 17 31 15 13 -2 19
3 20 17 1 11 8 35 17 52 11 20 15 43 11 61 -4 19 -1 33 8 41 60 50 77 59 91
45z m-2333 -139 c0 -57 -8 -70 -40 -60 -48 15 -45 96 4 115 31 12 36 4 36 -55z
m-270 46 c0 -6 -4 -13 -10 -16 -5 -3 -10 1 -10 9 0 9 5 16 10 16 6 0 10 -4 10
-9z m-1086 -31 c21 -1 21 -1 -3 -20 -13 -11 -29 -20 -36 -20 -7 0 -38 -11 -69
-25 -70 -31 -78 -31 -67 -3 5 13 21 26 40 30 17 5 37 18 44 29 9 15 19 19 41
15 16 -3 38 -6 50 -6z m1146 -9 c0 -12 -20 -25 -27 -18 -7 7 6 27 18 27 5 0 9
-4 9 -9z m129 -80 c13 -26 21 -55 19 -62 -6 -17 18 -69 32 -69 6 0 8 22 4 56
-6 51 -5 56 12 52 22 -4 22 11 4 -288 -13 -223 -14 -227 -35 -210 -10 8 -35
11 -71 8 l-56 -5 7 91 c4 50 9 102 10 116 1 14 8 88 14 165 13 153 19 195 29
195 4 0 18 -22 31 -49z m-219 -1 c91 -46 100 -56 100 -113 0 -29 -3 -68 -6
-87 l-6 -36 -66 4 c-37 2 -70 7 -75 11 -4 4 -16 38 -26 75 -10 37 -24 73 -30
79 -20 20 -45 -6 -75 -81 l-28 -72 -83 0 c-61 0 -86 -4 -95 -15 -16 -20 -4
-34 63 -76 29 -18 54 -34 56 -35 2 -2 -13 -46 -34 -100 -33 -84 -35 -98 -23
-110 13 -13 26 -7 103 46 83 56 90 59 109 45 85 -61 176 -96 164 -62 -3 6 -18
49 -34 95 l-29 83 50 44 c28 24 51 39 53 34 2 -5 -1 -48 -7 -96 -6 -49 -11
-127 -11 -175 l0 -88 -41 -21 c-136 -69 -301 -50 -407 45 -136 124 -169 317
-75 453 52 76 127 139 193 163 75 27 197 22 260 -10z m-442 -39 c-38 -43 -45
-47 -59 -35 -20 18 -28 18 -49 -1 -10 -9 -25 -13 -34 -9 -40 15 -9 39 83 63
40 11 75 22 78 25 4 3 10 6 15 6 6 0 -10 -22 -34 -49z m-860 -28 l-22 -24 -8
22 c-11 28 -3 37 27 31 l26 -5 -23 -24z m4828 -3 c19 0 24 -5 24 -26 0 -27 -1
-27 -52 -2 -29 14 -40 45 -12 34 9 -3 27 -6 40 -6z m-3641 -122 c6 -25 5 -28
-19 -28 -29 0 -31 6 -16 46 12 31 25 24 35 -18z m3660 13 c3 -5 -7 -11 -22
-13 -20 -2 -28 -9 -28 -23 0 -17 8 -21 55 -25 l55 -5 0 -70 c0 -64 -2 -70 -21
-71 -17 -1 -21 5 -21 29 0 41 -45 77 -95 77 -42 0 -42 0 -27 53 7 26 16 37 29
37 10 0 22 5 25 10 8 13 42 13 50 1z m-977 -19 c6 -18 -15 -14 -22 4 -4 10 -1
14 6 12 6 -2 14 -10 16 -16z m-2571 -85 c-6 -20 -27 -19 -27 2 0 14 5 19 15
14 9 -3 14 -10 12 -16z m-237 5 c0 -19 -23 -31 -42 -21 -27 15 -22 29 12 29
17 0 30 -4 30 -8z m166 -29 c6 -33 4 -39 -27 -64 -19 -16 -36 -29 -39 -29 -3
0 -23 15 -44 33 -36 31 -38 35 -26 58 18 34 28 39 82 39 46 0 47 -1 54 -37z
m-122 -94 c14 -11 24 -24 21 -29 -6 -10 -97 -62 -101 -58 -5 6 38 108 45 108
5 0 20 -9 35 -21z m166 -29 c7 -22 10 -43 7 -46 -6 -7 -77 33 -77 44 0 11 33
42 45 42 6 0 18 -18 25 -40z m377 -12 c-3 -7 -5 -2 -5 12 0 14 2 19 5 13 2 -7
2 -19 0 -25z m-750 -215 c23 -18 60 -40 82 -49 38 -15 55 -34 30 -34 -6 0 -24
-11 -41 -25 -35 -30 -39 -30 -67 -6 -12 11 -30 17 -41 14 -13 -4 -20 0 -20 10
0 8 -6 17 -14 20 -13 5 -106 -13 -151 -29 -19 -7 -18 -6 3 18 12 13 22 29 22
34 0 6 16 25 35 44 37 36 44 57 21 66 -10 4 -9 13 7 44 l19 40 37 -58 c21 -31
56 -71 78 -89z m620 105 c26 -25 30 -63 7 -72 -22 -8 -20 -9 -49 28 -42 55 -8
91 42 44z m63 -103 c0 -8 -4 -15 -10 -15 -5 0 -10 7 -10 15 0 8 5 15 10 15 6
0 10 -7 10 -15z m-1547 -47 c23 -18 75 -48 115 -66 39 -19 72 -38 72 -43 0 -5
11 -14 25 -19 39 -15 29 -30 -19 -30 -30 0 -46 5 -50 15 -3 10 -19 15 -46 15
-22 0 -49 6 -60 12 -15 10 -25 10 -38 2 -13 -9 -17 -24 -16 -72 1 -53 -2 -61
-20 -66 -24 -6 -38 11 -28 33 4 9 7 58 6 109 -1 82 1 90 13 72 17 -24 41 -26
50 -5 7 21 -27 57 -48 52 -12 -3 -16 0 -12 9 7 19 7 19 56 -18z m3771 -51 c31
-40 33 -63 7 -72 -26 -8 -65 12 -90 46 l-21 28 28 14 c40 22 49 20 76 -16z
m-2618 1 c4 -5 -13 -8 -39 -8 -25 0 -48 3 -50 8 -3 4 14 7 38 7 24 0 47 -3 51
-7z m-966 -2 c0 -3 -4 -8 -10 -11 -5 -3 -10 -1 -10 4 0 6 5 11 10 11 6 0 10
-2 10 -4z m4488 -108 c16 -16 15 -58 0 -58 -7 0 -23 -3 -35 -6 -18 -5 -25 0
-34 20 -11 23 -10 28 7 41 23 18 46 19 62 3z m-3103 -47 c-12 -11 -193 -63
-206 -59 -5 2 3 16 17 32 23 24 32 27 63 23 20 -3 52 -2 71 2 49 12 66 13 55
2z m3198 -228 c-7 -2 -19 -2 -25 0 -7 3 -2 5 12 5 14 0 19 -2 13 -5z m-128
-102 c9 -16 -14 -23 -48 -15 l-32 8 30 7 c44 10 43 10 50 0z m144 -10 c9 -6 1
-10 -25 -14 -25 -3 -44 0 -54 9 -12 12 -9 14 25 14 22 0 46 -4 54 -9z m64 -48
c-7 -2 -21 -2 -30 0 -10 3 -4 5 12 5 17 0 24 -2 18 -5z m-75 -10 c-10 -2 -26
-2 -35 0 -10 3 -2 5 17 5 19 0 27 -2 18 -5z m24 -46 c-53 -7 -76 -7 -85 2 -8
8 10 11 74 10 l84 -2 -73 -10z m-169 -4 c-13 -2 -33 -2 -45 0 -13 2 -3 4 22 4
25 0 35 -2 23 -4z m227 -41 c0 -5 -9 -17 -19 -26 -16 -15 -28 -16 -73 -9 -55
8 -66 23 -26 35 34 9 118 9 118 0z"/>
<path d="M4560 6759 c0 -5 5 -7 10 -4 6 3 10 8 10 11 0 2 -4 4 -10 4 -5 0 -10
-5 -10 -11z"/>
<path d="M4520 6710 c0 -5 5 -10 11 -10 5 0 7 5 4 10 -3 6 -8 10 -11 10 -2 0
-4 -4 -4 -10z"/>
<path d="M2482 6778 c-19 -19 -14 -25 22 -32 19 -4 46 -16 61 -28 17 -13 30
-17 36 -11 16 16 -1 43 -42 63 -44 23 -60 25 -77 8z"/>
<path d="M2474 6698 c-4 -6 -2 -14 5 -16 7 -2 22 -15 35 -28 25 -27 50 -24 67
7 9 17 5 22 -25 34 -43 18 -72 19 -82 3z"/>
<path d="M2575 6500 c-4 -7 -3 -16 3 -22 14 -14 45 -2 40 15 -6 16 -34 21 -43
7z"/>
<path d="M2485 6450 c-10 -16 2 -28 40 -40 27 -9 34 -16 32 -33 -2 -17 4 -23
26 -25 15 -2 27 1 27 6 0 5 13 7 29 4 16 -2 32 1 36 7 9 16 -36 61 -61 61 -12
0 -24 7 -28 15 -6 17 -91 21 -101 5z"/>
<path d="M2752 5798 c-44 -44 41 -138 98 -108 24 13 26 50 5 90 -13 25 -22 30
-53 30 -21 0 -43 -5 -50 -12z m78 -48 c12 -23 6 -40 -15 -40 -17 0 -38 36 -30
50 10 17 34 11 45 -10z"/>
<path d="M2907 5736 c-35 -34 -64 -113 -54 -141 10 -24 37 -18 37 8 0 37 29
113 51 133 10 9 19 21 19 26 0 17 -20 7 -53 -26z"/>
<path d="M2517 5571 c-40 -48 -65 -111 -76 -194 -11 -77 -7 -107 10 -90 4 4
17 50 28 100 18 83 57 173 82 189 14 8 11 24 -5 24 -8 0 -25 -13 -39 -29z"/>
<path d="M2655 5505 c-32 -31 -29 -64 11 -106 18 -19 25 -35 22 -55 -3 -27 -5
-29 -44 -26 -24 2 -45 -1 -49 -8 -8 -12 21 -50 39 -50 6 0 5 5 -2 12 -16 16
-15 38 1 38 16 0 40 -38 32 -50 -4 -6 3 -10 14 -10 11 0 24 -7 29 -16 8 -15
10 -15 15 0 4 9 17 16 30 16 29 0 67 39 67 68 0 30 -22 27 -60 -8 -49 -45 -57
-40 -44 28 4 21 17 38 40 51 28 17 34 26 34 54 0 79 -78 114 -135 62z m79 -14
c35 -39 -1 -93 -39 -61 -15 13 -20 61 -8 73 12 12 29 7 47 -12z m46 -212 c-7
-11 -14 -18 -17 -15 -8 8 5 36 17 36 7 0 7 -6 0 -21z"/>
<path d="M1890 5149 c0 -26 56 -83 71 -73 9 5 8 10 -3 18 -8 6 -23 26 -33 44
-22 37 -35 41 -35 11z"/>
<path d="M2152 5127 c-30 -31 -29 -81 1 -110 13 -12 29 -37 35 -55 12 -36 10
-38 -38 -44 -31 -4 -37 -28 -13 -55 25 -29 113 -39 113 -14 0 10 12 28 26 42
70 65 62 135 -10 78 -50 -39 -63 1 -16 51 35 38 38 67 9 104 -27 34 -77 36
-107 3z m70 -24 c21 -19 24 -63 4 -63 -8 0 -21 -3 -30 -6 -23 -9 -42 37 -27
65 14 25 28 27 53 4z m-47 -224 c12 -19 -5 -23 -22 -6 -16 16 -16 17 -1 17 9
0 20 -5 23 -11z"/>
<path d="M1417 4840 c-35 -11 -59 -29 -51 -41 3 -5 29 -9 57 -9 40 0 67 -8
116 -35 35 -19 68 -32 72 -29 18 11 9 54 -14 69 -22 14 -134 56 -146 54 -3 0
-19 -5 -34 -9z"/>
<path d="M1317 4744 c-43 -23 -28 -38 37 -39 41 -1 60 3 63 13 12 31 -56 49
-100 26z"/>
<path d="M2502 4687 c-34 -36 -29 -79 13 -116 20 -17 44 -31 54 -31 20 0 31
-19 31 -50 0 -27 -16 -33 -43 -15 -23 14 -57 12 -57 -5 0 -14 35 -38 60 -42
18 -2 26 -10 28 -28 2 -14 8 -29 12 -34 13 -13 110 72 110 96 0 17 -6 19 -42
16 -42 -3 -43 -2 -49 32 -3 23 0 45 12 65 31 55 31 71 3 104 -21 26 -33 31
-68 31 -32 0 -48 -6 -64 -23z m82 -16 c9 -10 18 -31 19 -47 2 -25 -2 -29 -25
-32 -33 -4 -48 20 -41 66 6 36 22 41 47 13z"/>
<path d="M2775 4528 c-20 -91 -23 -114 -15 -122 12 -12 30 35 37 97 4 31 2 47
-5 47 -7 0 -14 -10 -17 -22z"/>
<path d="M2746 4358 c-3 -17 -11 -83 -16 -146 -6 -63 -13 -118 -16 -123 -6
-11 -6 -589 1 -634 2 -16 7 -138 10 -270 3 -132 7 -338 10 -458 6 -243 30
-685 45 -828 9 -84 35 -200 90 -402 21 -77 59 -157 77 -164 30 -12 31 11 3 90
-16 45 -36 114 -45 152 -9 39 -25 99 -36 135 -10 36 -23 128 -29 205 -6 77
-13 159 -15 183 -2 28 0 42 8 42 23 0 35 -15 47 -56 11 -36 10 -45 -10 -83
-27 -53 -17 -66 18 -24 15 17 37 34 49 38 19 5 23 1 29 -22 3 -15 9 -41 14
-58 20 -73 32 -156 28 -186 -3 -18 1 -44 8 -58 8 -14 14 -39 14 -55 0 -29 15
-94 46 -202 7 -28 14 -58 14 -68 0 -9 13 -22 29 -29 46 -19 107 -118 141 -227
35 -111 41 -123 69 -125 11 -1 29 -9 39 -18 10 -9 47 -31 80 -47 71 -34 91
-61 117 -156 15 -55 26 -73 75 -123 71 -71 163 -122 182 -103 14 15 17 12 -76
82 -26 19 -60 45 -75 57 -17 14 -43 58 -70 120 -45 104 -99 168 -150 179 -14
2 -39 11 -54 19 -16 8 -35 15 -43 15 -18 0 -45 56 -72 146 -12 40 -38 94 -57
120 -20 27 -42 64 -50 82 -9 17 -21 32 -29 32 -8 0 -16 12 -19 28 -3 15 -15
61 -26 102 -12 41 -30 129 -42 195 -11 66 -32 167 -46 224 -17 73 -24 124 -21
170 3 58 1 66 -14 63 -14 -2 -18 4 -18 28 0 23 -12 44 -46 80 -51 55 -68 60
-84 30 -19 -36 -28 -13 -34 88 -4 53 -11 147 -16 207 -16 180 -20 285 -25 589
-3 158 -8 292 -11 297 -10 17 -7 633 4 689 17 85 24 197 14 204 -5 3 -12 -9
-16 -26z m148 -2109 c29 -34 34 -70 12 -88 -35 -30 -89 47 -68 94 15 33 25 31
56 -6z m66 -119 c0 -19 -7 -33 -20 -40 -32 -17 -38 16 -9 45 30 30 29 30 29
-5z m-12 -81 c-2 -6 -8 -10 -13 -10 -5 0 -11 4 -13 10 -2 6 4 11 13 11 9 0 15
-5 13 -11z"/>
<path d="M2193 4290 c-27 -16 -33 -26 -33 -56 0 -21 8 -46 20 -61 24 -31 37
-90 21 -106 -8 -8 -6 -16 6 -29 13 -14 16 -40 17 -116 0 -81 -10 -584 -13
-603 -1 -4 -11 -9 -23 -12 -18 -5 -19 -8 -8 -22 10 -12 10 -19 2 -27 -16 -16
-59 25 -67 63 -5 23 -1 33 21 53 34 28 38 79 10 121 -16 24 -22 27 -58 22 -53
-7 -80 -34 -81 -82 -1 -40 28 -75 62 -75 11 0 20 -14 27 -42 6 -24 15 -52 19
-62 7 -17 5 -18 -16 -11 -13 4 -42 10 -63 12 -38 5 -39 4 -23 -11 9 -10 17
-21 17 -26 0 -13 54 -40 80 -40 11 0 20 -4 20 -10 0 -23 28 -8 34 18 3 15 17
35 31 45 l25 18 0 -28 c0 -15 5 -71 11 -123 5 -52 14 -171 19 -265 5 -93 13
-206 17 -250 4 -44 7 -118 6 -165 -6 -214 44 -648 93 -815 23 -80 58 -140 82
-143 28 -4 28 15 2 43 -27 28 -55 110 -74 215 -8 47 -22 114 -30 150 -20 91
-47 386 -51 570 -3 85 -8 223 -13 305 -5 83 -7 155 -5 162 4 10 -9 121 -23
193 -9 44 -14 580 -7 728 l6 143 29 -6 c41 -9 84 11 99 46 17 43 1 57 -47 40
-42 -15 -50 -10 -59 46 -6 38 -4 43 24 64 25 18 31 30 31 60 0 79 -67 112
-137 69z m67 -29 c15 -28 12 -77 -4 -90 -16 -14 -28 1 -40 51 -12 51 21 81 44
39z m100 -246 c0 -20 -39 -40 -53 -26 -7 7 -6 15 3 26 16 19 50 20 50 0z
m-257 -537 c24 -20 31 -62 12 -78 -21 -17 -65 -3 -75 25 -17 48 24 82 63 53z
m-13 -269 c0 -5 -6 -9 -14 -9 -15 0 -28 24 -19 34 7 7 33 -13 33 -25z"/>
<path d="M2170 4029 c0 -5 5 -7 10 -4 6 3 10 8 10 11 0 2 -4 4 -10 4 -5 0 -10
-5 -10 -11z"/>
<path d="M2485 3635 c-48 -47 -27 -116 41 -134 25 -6 29 -13 32 -50 l3 -43
-33 7 c-18 4 -37 8 -43 9 -13 1 -9 -52 6 -70 6 -8 22 -14 35 -14 14 0 34 -6
45 -12 19 -12 25 -8 65 35 63 70 55 99 -16 62 -29 -15 -30 -15 -30 8 0 13 -5
28 -12 35 -9 9 -5 16 15 32 22 17 27 30 27 64 0 87 -78 129 -135 71z m84 -31
c26 -33 26 -46 3 -67 -16 -15 -20 -15 -40 -1 -55 38 -50 83 10 93 4 0 16 -11
27 -25z m-29 -213 c7 -14 7 -22 0 -26 -13 -8 -40 13 -40 31 0 21 28 17 40 -5z"/>
<path d="M2405 2977 c-40 -40 -45 -77 -15 -107 11 -11 34 -23 50 -27 17 -3 30
-11 30 -17 0 -6 3 -21 6 -33 6 -21 3 -23 -36 -23 -29 0 -40 -4 -37 -12 2 -8
17 -12 35 -10 16 2 33 -2 37 -7 4 -7 -5 -11 -22 -12 -25 0 -26 -1 -8 -9 11 -5
32 -9 47 -9 15 -1 31 -9 37 -18 8 -15 12 -14 38 14 16 16 39 33 51 37 27 9 48
54 33 69 -6 6 -12 1 -16 -16 -7 -27 -32 -54 -41 -44 -3 3 0 15 6 27 18 35 1
38 -26 5 l-25 -30 -24 28 c-31 35 -32 61 -1 98 29 34 24 73 -15 100 -48 34
-67 33 -104 -4z m62 -5 c18 -12 35 -64 24 -75 -13 -13 -78 10 -85 30 -7 17 20
53 38 53 6 0 16 -4 23 -8z"/>
<path d="M1972 2664 c-17 -12 -22 -25 -22 -58 0 -79 51 -114 124 -86 23 8 26
15 26 56 0 67 -25 104 -70 104 -20 0 -46 -7 -58 -16z m80 -21 c34 -40 21 -103
-21 -103 -40 0 -64 69 -36 100 22 25 37 25 57 3z"/>
<path d="M2502 2360 c-23 -10 -52 -64 -52 -97 0 -22 56 -83 76 -83 20 0 64
-45 64 -65 0 -11 -10 -15 -38 -15 -46 0 -65 -15 -51 -42 5 -10 16 -18 24 -18
13 0 13 3 3 20 -7 10 -9 22 -6 26 13 12 60 -7 65 -26 3 -11 12 -20 20 -20 8 0
19 -13 24 -30 17 -47 32 -37 26 16 -5 48 4 64 48 89 15 9 17 18 11 48 -8 43
-23 47 -56 12 -27 -28 -42 -31 -60 -11 -9 12 -7 21 9 43 35 49 31 95 -10 134
-32 30 -57 35 -97 19z m66 -29 c20 -12 32 -79 20 -107 -14 -31 -39 -30 -77 2
-38 32 -40 65 -5 93 29 23 42 25 62 12z m98 -209 c-15 -15 -16 -15 -16 4 0 28
24 52 28 28 2 -9 -3 -24 -12 -32z"/>
<path d="M2386 2077 c-21 -32 -31 -133 -16 -152 16 -19 30 -10 30 20 0 53 12
57 30 8 76 -209 92 -249 107 -265 20 -23 39 -9 24 18 -18 32 -98 247 -106 284
-19 99 -43 128 -69 87z"/>
<path d="M1985 1876 c-19 -29 -35 -82 -35 -117 0 -27 37 -69 61 -69 22 0 39
-21 39 -47 0 -17 -6 -23 -23 -23 -23 0 -67 -25 -67 -38 0 -15 80 -42 108 -36
17 4 32 1 36 -5 4 -6 14 -11 22 -11 8 0 13 4 9 9 -3 5 3 24 14 43 21 36 14 78
-12 78 -8 0 -21 -10 -30 -22 -17 -25 -30 -19 -42 19 -5 18 -1 25 18 32 13 5
34 22 46 38 32 40 22 78 -35 131 -53 48 -86 54 -109 18z m60 -12 c19 -8 55
-75 55 -103 0 -35 -71 -56 -98 -29 -16 16 -15 61 2 103 16 38 16 38 41 29z
m95 -243 c0 -21 -13 -41 -26 -41 -14 0 -19 31 -7 43 10 10 33 8 33 -2z m-85
-32 c10 -15 -1 -22 -24 -14 -12 3 -19 11 -16 16 8 12 32 11 40 -2z"/>
<path d="M2396 1874 c-11 -28 -7 -62 14 -116 26 -68 64 -117 80 -102 8 8 5 19
-14 40 -32 39 -60 126 -52 164 4 22 2 30 -8 30 -8 0 -17 -7 -20 -16z"/>
<path d="M3237 1672 c-76 -7 -91 -100 -25 -154 65 -54 78 -68 78 -83 0 -9 -9
-15 -22 -16 -13 0 -17 -3 -10 -6 19 -8 14 -33 -7 -33 -26 0 -36 17 -20 36 11
14 10 15 -11 12 -61 -8 -22 -60 51 -68 50 -5 54 -7 57 -33 5 -40 22 -22 22 24
0 32 4 39 19 39 26 0 35 42 17 85 -16 37 -40 39 -51 4 -4 -10 -10 -19 -15 -19
-21 0 -20 24 1 64 26 50 22 83 -19 124 -22 22 -34 27 -65 24z m48 -52 c14 -27
14 -33 0 -60 -9 -16 -22 -30 -29 -30 -20 0 -68 59 -60 73 31 54 66 61 89 17z
m76 -183 c-8 -8 -11 -5 -11 9 0 27 14 41 18 19 2 -9 -1 -22 -7 -28z"/>
<path d="M2508 1565 c-10 -10 11 -106 30 -133 11 -15 33 -56 50 -92 17 -36 49
-87 71 -115 22 -27 65 -86 96 -130 76 -110 75 -109 120 -137 60 -37 164 -67
288 -81 20 -3 44 -10 51 -16 29 -24 28 11 0 41 -44 45 -78 59 -212 84 -138 25
-142 27 -210 124 -26 36 -67 92 -92 125 -26 33 -53 76 -60 95 -7 19 -21 44
-30 55 -35 41 -64 101 -70 139 -5 36 -18 54 -32 41z"/>
<path d="M2742 1552 l-23 -3 25 -20 c32 -25 52 -84 36 -104 -28 -34 -70 2 -80
68 l-7 42 -12 -30 c-19 -45 -3 -86 43 -110 41 -22 74 -79 57 -99 -7 -8 -4 -16
10 -24 10 -7 19 -19 19 -27 0 -19 45 -13 46 6 1 8 11 35 23 62 13 27 20 56 16
67 -10 31 -42 24 -61 -12 -17 -33 -16 -33 3 -15 26 23 33 22 33 -5 0 -45 -14
-51 -48 -21 -34 29 -41 63 -17 83 18 15 29 71 20 99 -8 26 -52 48 -83 43z"/>
<path d="M3633 1271 c-18 -15 -20 -23 -13 -55 9 -39 32 -71 63 -88 28 -15 127
19 127 44 0 30 -39 98 -56 98 -12 0 -13 -4 -4 -20 6 -12 10 -35 8 -53 -3 -29
-7 -32 -39 -35 -30 -3 -41 2 -58 24 -26 34 -27 60 -1 74 11 6 20 15 20 20 0
16 -23 11 -47 -9z"/>
<path d="M2726 1271 c-5 -7 -3 -18 3 -24 14 -14 20 -6 11 17 -5 15 -9 16 -14
7z"/>
<path d="M3043 1234 c-21 -22 -25 -32 -20 -66 7 -51 14 -58 74 -69 46 -9 73
-29 73 -56 0 -9 -9 -11 -30 -6 -43 8 -37 -5 13 -27 57 -26 61 -25 80 15 16 34
16 35 -4 32 -13 -1 -29 8 -42 25 -19 25 -19 29 -4 51 11 16 14 37 10 65 -5 34
-10 43 -36 51 -50 18 -86 13 -114 -15z m77 -6 c34 -25 39 -60 14 -96 -20 -29
-28 -28 -59 5 -29 32 -31 54 -9 88 20 30 18 30 54 3z"/>
<path d="M3895 1208 c-2 -7 -5 -22 -7 -33 -3 -16 -11 -20 -38 -18 l-35 3 24
-20 c13 -11 22 -22 20 -23 -2 -2 -16 -11 -31 -20 -31 -19 -36 -42 -12 -51 30
-12 61 -6 80 15 13 14 25 18 42 14 21 -5 23 -3 16 12 -4 10 -9 40 -9 66 -1 30
-7 52 -16 58 -19 12 -29 11 -34 -3z m28 -41 c-3 -5 -9 -3 -14 4 -4 7 -5 17 -2
22 3 5 9 3 14 -4 4 -7 5 -17 2 -22z m-43 -86 c0 -12 -20 -25 -27 -18 -7 7 6
27 18 27 5 0 9 -4 9 -9z"/>
<path d="M2358 1194 c-6 -5 -2 -65 7 -109 7 -33 43 -65 74 -65 28 0 61 -26 61
-48 0 -7 -13 -12 -29 -12 -40 0 -48 -16 -19 -40 20 -17 108 -44 116 -36 1 2
-2 15 -7 29 -11 28 -1 79 17 85 18 6 26 -26 12 -43 -7 -9 -10 -18 -7 -21 9 -9
39 43 35 62 -5 27 -23 27 -56 -1 -16 -14 -32 -25 -35 -25 -2 0 -10 14 -17 31
-10 22 -10 33 -1 42 6 6 11 28 11 49 0 29 -7 45 -26 63 -33 30 -54 21 -24 -10
28 -30 24 -75 -9 -91 -13 -7 -29 -10 -35 -8 -20 8 -48 70 -44 100 2 24 7 29
28 27 18 -2 21 0 10 6 -24 14 -56 22 -62 15z"/>
<path d="M1965 1150 c-61 -40 -61 -95 0 -154 51 -50 58 -76 21 -76 -55 0 -72
-23 -38 -52 22 -19 60 -29 68 -17 9 15 37 10 64 -11 30 -23 40 -25 40 -6 0 8
12 28 26 45 30 36 32 103 2 109 -21 4 -51 -30 -58 -65 -8 -40 -28 -39 -47 3
-17 35 -17 37 1 48 47 28 58 43 59 78 1 38 -24 78 -50 78 -16 0 -16 -3 -2 -51
21 -69 -31 -90 -78 -32 -30 37 -29 47 11 80 19 15 32 31 30 35 -8 12 -16 10
-49 -12z m182 -196 c7 -18 -12 -64 -27 -64 -11 0 -14 63 -3 73 11 12 23 8 30
-9z m-146 -64 c5 0 9 -4 9 -10 0 -16 -26 -12 -41 7 -12 15 -12 16 4 10 10 -4
23 -7 28 -7z"/>
<path d="M4250 955 c-12 -31 -4 -73 19 -104 13 -16 31 -25 65 -28 60 -7 86 13
86 68 0 52 -47 89 -114 89 -40 0 -48 -3 -56 -25z m106 -26 c26 -24 36 -65 20
-78 -7 -5 -28 -1 -55 13 -33 15 -47 29 -52 50 -5 16 -6 34 -2 39 8 14 64 -1
89 -24z"/>
<path d="M3231 826 c-29 -46 -26 -70 11 -101 26 -22 38 -25 65 -20 61 11 94
-15 58 -45 -20 -16 -19 -46 1 -54 32 -12 53 -5 74 24 12 17 27 30 34 30 8 0
13 12 13 28 1 15 4 46 8 68 5 29 4 44 -5 49 -16 10 -60 -38 -60 -66 0 -10 -7
-19 -15 -19 -17 0 -39 36 -30 50 8 14 -22 68 -44 80 -11 5 -35 10 -55 10 -28
0 -38 -6 -55 -34z m84 -2 c22 -23 16 -78 -9 -83 -36 -6 -62 59 -34 87 16 16
23 15 43 -4z m103 -186 c-7 -19 -38 -22 -38 -4 0 10 9 16 21 16 12 0 19 -5 17
-12z"/>
<path d="M4492 827 c-12 -7 -29 -23 -38 -35 -12 -18 -22 -22 -44 -17 -39 8
-90 -35 -74 -62 15 -24 59 -28 90 -8 30 19 37 15 70 -37 19 -29 29 -37 37 -29
8 8 4 24 -12 60 l-23 49 22 30 c13 17 20 38 17 46 -8 19 -15 19 -45 3z m14
-36 c-8 -13 -36 -15 -36 -3 0 4 5 13 12 20 14 14 34 0 24 -17z m-96 -66 c0
-15 -43 -12 -48 3 -3 10 4 13 22 10 15 -2 26 -7 26 -13z"/>
<path d="M4441 5416 c-10 -12 -8 -19 9 -36 17 -17 24 -19 36 -9 21 17 13 53
-12 57 -11 2 -26 -4 -33 -12z"/>
<path d="M4692 5367 c-15 -17 -6 -27 25 -27 18 0 24 5 21 17 -4 22 -31 28 -46
10z"/>
<path d="M3473 5174 c-11 -28 68 -77 90 -55 7 7 0 19 -23 41 -36 34 -58 38
-67 14z"/>
<path d="M572 4868 c-17 -17 -15 -48 4 -55 8 -3 22 1 31 9 12 12 13 20 4 37
-13 24 -22 26 -39 9z"/>
<path d="M197 4207 c-7 -19 26 -82 43 -82 19 0 16 40 -5 72 -17 26 -30 29 -38
10z"/>
<path d="M1210 4475 c-16 -20 -11 -24 34 -32 41 -7 48 8 14 31 -28 20 -32 20
-48 1z"/>
<path d="M4692 4359 c-40 -30 -52 -52 -33 -63 13 -9 105 56 109 77 5 27 -29
21 -76 -14z"/>
<path d="M275 3851 c-9 -15 23 -40 60 -47 68 -12 77 26 10 44 -54 14 -62 15
-70 3z"/>
<path d="M284 3789 c-8 -14 11 -33 25 -25 6 4 11 14 11 22 0 16 -26 19 -36 3z"/>
<path d="M4371 3786 c-14 -16 -9 -46 7 -46 5 0 15 7 22 16 11 12 11 18 -2 30
-13 13 -16 13 -27 0z"/>
<path d="M842 3668 c-11 -18 -25 -50 -32 -71 l-12 -38 -80 2 c-83 2 -97 -5
-98 -43 0 -14 34 -42 92 -73 24 -13 23 -30 -11 -126 -43 -121 -32 -127 85 -43
43 31 84 58 90 61 18 7 50 -12 126 -73 37 -30 71 -54 77 -54 27 0 12 61 -33
140 -45 78 -35 100 64 148 23 11 35 24 35 37 0 18 -8 20 -94 25 l-94 5 -19 40
c-40 83 -44 90 -60 93 -9 2 -24 -11 -36 -30z m55 -78 c13 -34 7 -42 -25 -33
-24 6 -25 7 -16 41 9 31 28 28 41 -8z m-131 -81 c13 -21 -14 -34 -41 -19 -14
7 -25 17 -25 22 0 12 58 10 66 -3z m179 -29 c18 -35 15 -45 -25 -65 -24 -12
-30 -13 -40 0 -6 8 -27 19 -46 25 -36 12 -40 20 -24 51 9 15 22 19 65 19 51 0
56 -2 70 -30z m85 15 c-7 -8 -19 -15 -26 -15 -8 0 -14 7 -14 15 0 10 10 15 26
15 22 0 25 -2 14 -15z m-210 -100 c17 -9 30 -19 30 -24 0 -7 -42 -39 -97 -74
-23 -14 -22 10 2 61 13 29 27 52 30 52 3 0 19 -7 35 -15z m173 -30 c19 -40 16
-42 -24 -18 -30 18 -38 38 -16 46 21 9 23 8 40 -28z"/>
<path d="M3956 3650 c-36 -32 -45 -53 -26 -65 14 -9 102 63 97 79 -7 22 -36
17 -71 -14z"/>
<path d="M2946 3625 c-17 -46 -5 -93 45 -175 65 -107 80 -127 132 -164 47 -34
57 -45 57 -64 0 -10 -7 -9 -29 4 -38 22 -83 7 -74 -24 5 -19 61 -52 88 -52 8
0 15 -4 15 -8 0 -5 6 -17 14 -27 21 -29 46 -3 46 47 0 28 7 46 25 63 13 14 28
25 33 25 13 0 63 80 56 91 -9 16 -46 10 -89 -15 -27 -16 -46 -22 -55 -16 -11
7 -10 12 8 27 13 10 25 34 28 54 5 28 1 41 -21 67 -37 44 -81 44 -130 1 -21
-18 -40 -28 -44 -23 -5 5 -25 31 -46 58 -32 43 -36 56 -33 94 3 45 -13 69 -26
37z m233 -208 c19 -22 20 -25 6 -37 -21 -17 -65 2 -65 28 0 39 27 43 59 9z"/>
<path d="M4472 3599 c-34 -20 -95 -18 -108 2 -3 5 -14 9 -25 9 -29 0 -20 -32
14 -48 23 -11 27 -19 27 -53 0 -38 -1 -39 -32 -37 -47 4 -44 -24 3 -35 36 -8
37 -10 32 -46 -3 -24 -1 -41 7 -46 22 -13 34 14 36 83 2 94 7 105 64 136 49
27 67 57 33 55 -10 0 -33 -9 -51 -20z"/>
<path d="M4815 2919 c-8 -12 33 -59 51 -59 27 0 27 24 0 47 -30 25 -42 28 -51
12z"/>
<path d="M4322 2693 c-6 -16 -14 -44 -18 -63 -3 -19 -15 -59 -26 -89 l-20 -54
-94 5 c-71 4 -98 2 -114 -9 -24 -17 -18 -30 19 -47 14 -6 52 -26 83 -44 l57
-33 -19 -52 c-10 -29 -24 -65 -31 -81 -12 -25 -11 -30 5 -42 16 -11 22 -10 45
7 56 44 135 99 141 99 4 0 55 -28 114 -61 103 -59 132 -67 110 -31 -36 59 -84
171 -84 195 0 16 59 66 108 91 38 19 46 52 10 41 -13 -3 -56 -9 -96 -12 l-72
-6 -40 87 c-22 47 -40 95 -40 106 0 29 -26 24 -38 -7z m51 -130 c16 -48 8 -63
-35 -63 -31 0 -33 7 -17 59 7 20 14 42 16 50 5 21 19 3 36 -46z m127 -108
c-15 -16 -27 -22 -33 -16 -17 17 1 41 29 41 l27 0 -23 -25z m-80 -15 c15 -36
10 -52 -27 -77 -26 -18 -32 -19 -76 -6 -55 16 -64 31 -47 73 12 30 12 30 116
38 15 1 25 -7 34 -28z m-186 11 c3 -4 0 -16 -7 -25 -10 -13 -18 -15 -38 -8
-14 6 -31 17 -38 26 -12 14 -9 16 32 16 25 0 48 -4 51 -9z m235 -128 c8 -21
16 -44 18 -50 8 -21 -11 -15 -50 18 -36 30 -37 32 -21 50 25 28 38 23 53 -18z
m-194 5 c14 -6 25 -16 25 -22 0 -11 -72 -66 -85 -66 -8 0 -1 33 15 75 11 29
11 29 45 13z"/>
<path d="M3596 2298 c-9 -12 -16 -28 -16 -36 0 -7 -7 -36 -16 -63 -19 -57 -31
-63 -134 -62 -77 0 -99 -11 -73 -39 9 -10 31 -26 47 -34 17 -8 44 -25 59 -38
l28 -22 -27 -82 c-40 -125 -20 -166 47 -96 18 20 51 49 71 65 l37 30 97 -60
c74 -46 101 -58 111 -49 19 15 16 46 -6 77 -11 15 -31 53 -46 86 l-26 59 28
22 c15 13 45 30 66 40 28 13 37 23 37 41 0 23 -3 24 -57 23 -141 -4 -135 -6
-162 52 -13 29 -24 63 -25 77 -1 33 -21 37 -40 9z m29 -126 c0 -18 -20 -15
-23 4 -3 10 1 15 10 12 7 -3 13 -10 13 -16z m53 -98 l17 -36 -40 -33 c-37 -32
-41 -33 -66 -19 -38 19 -41 26 -25 70 10 30 20 40 42 45 50 11 54 10 72 -27z
m92 21 c-7 -8 -21 -15 -31 -15 -11 0 -19 7 -19 15 0 10 10 15 31 15 27 0 30
-2 19 -15z m-243 -10 c2 -6 -2 -18 -9 -28 -12 -15 -15 -15 -48 6 l-35 22 30 6
c39 9 57 7 62 -6z m218 -147 c14 -28 24 -53 21 -55 -5 -6 -53 20 -86 46 l-25
20 24 25 c13 14 28 23 32 20 5 -2 20 -28 34 -56z m-176 18 c9 -11 3 -20 -29
-46 -43 -34 -48 -29 -26 25 16 37 36 44 55 21z"/>
<path d="M728 2198 c-14 -24 -31 -61 -38 -83 -20 -62 -24 -65 -111 -65 -69 0
-80 -2 -89 -21 -17 -30 -7 -45 48 -73 67 -34 77 -47 59 -83 -23 -47 -41 -123
-31 -133 12 -12 70 18 133 66 24 19 48 34 53 34 4 0 34 -13 66 -29 105 -52
167 -81 175 -81 15 0 5 38 -33 125 -22 49 -40 95 -40 102 0 7 25 29 55 50 31
20 54 41 52 47 -2 7 -35 11 -83 11 l-78 0 -33 70 c-18 39 -37 77 -42 85 -16
29 -38 22 -63 -22z m66 -75 c9 -26 16 -50 16 -55 0 -4 -21 -8 -46 -8 l-46 0 7
33 c10 44 34 89 44 82 5 -3 16 -26 25 -52z m136 -102 c0 -14 -18 -23 -30 -16
-6 4 -8 11 -5 16 8 12 35 12 35 0z m-81 -28 c7 -14 8 -29 4 -33 -4 -3 -27 -21
-51 -39 l-43 -33 -44 23 c-25 13 -47 29 -49 35 -2 6 4 25 15 43 18 30 21 31
87 31 65 0 70 -2 81 -27z m-209 4 c0 -8 -3 -17 -6 -20 -10 -9 -46 12 -39 24 9
14 45 11 45 -4z m267 -130 c14 -31 24 -60 21 -63 -8 -7 -128 54 -128 65 0 13
61 62 72 59 5 -2 21 -29 35 -61z m-222 11 c14 -6 25 -14 25 -18 0 -9 -76 -60
-90 -60 -13 0 -13 2 6 50 18 44 21 45 59 28z"/>
<path d="M4336 1787 c-7 -19 -17 -49 -21 -68 -4 -19 -13 -49 -21 -67 l-14 -34
-94 7 c-66 5 -96 4 -101 -4 -4 -7 25 -41 71 -84 l77 -73 -32 -93 c-22 -62 -29
-97 -23 -103 11 -11 115 45 158 84 20 18 22 17 122 -62 56 -44 106 -80 111
-80 16 0 5 87 -19 155 -37 103 -37 106 11 145 24 19 56 41 72 48 27 11 28 14
15 33 -13 20 -22 22 -104 20 -49 -1 -94 2 -100 6 -6 5 -17 26 -24 48 -7 22
-19 49 -26 60 -6 11 -15 35 -19 52 -9 46 -22 49 -39 10z m47 -159 c-2 -5 -15
-8 -29 -8 -27 0 -30 13 -13 57 l11 28 17 -35 c10 -19 16 -38 14 -42z m-121
-73 c-6 -35 -20 -39 -51 -14 -41 33 -38 41 12 37 36 -3 42 -6 39 -23z m162
-29 l20 -49 -34 -29 c-19 -15 -39 -28 -45 -28 -5 1 -25 14 -43 29 -30 26 -33
32 -26 67 10 55 21 65 67 62 38 -3 42 -6 61 -52z m136 34 c0 -6 -15 -19 -32
-30 -31 -19 -34 -19 -45 -3 -24 32 -16 43 32 43 25 0 45 -5 45 -10z m-256
-149 c21 -23 15 -36 -24 -56 -37 -19 -45 -6 -26 40 17 40 26 43 50 16z m190
-40 c14 -32 26 -64 26 -70 0 -6 -27 10 -60 36 l-60 46 22 24 c12 13 27 23 33
23 7 0 24 -26 39 -59z"/>
<path d="M848 894 c-32 -17 -41 -61 -10 -49 9 4 32 9 49 12 36 6 58 26 48 43
-9 15 -55 12 -87 -6z"/>
<path d="M3723 6593 c-18 -7 -16 -33 2 -33 8 0 15 -4 15 -10 0 -5 9 -10 20
-10 23 0 27 29 8 48 -13 13 -24 14 -45 5z"/>
<path d="M3675 5791 c-8 -15 3 -31 21 -31 9 0 14 7 12 17 -4 20 -24 28 -33 14z"/>
<path d="M4792 5784 c-35 -24 -26 -56 18 -66 50 -10 71 11 50 50 -19 33 -38
38 -68 16z"/>
<path d="M4935 5774 c-9 -10 -14 -24 -11 -33 23 -74 36 -96 55 -99 18 -3 21 2
21 30 0 18 -7 42 -15 52 -8 11 -15 28 -15 37 0 26 -16 32 -35 13z"/>
<path d="M339 2984 c-8 -9 -23 -51 -35 -93 l-20 -76 -85 -1 c-107 -1 -109 -1
-109 -18 0 -17 68 -79 109 -101 38 -19 38 -34 5 -125 -17 -45 -23 -75 -17 -81
15 -15 102 1 108 21 6 19 77 70 97 70 7 0 44 -25 81 -56 96 -77 106 -67 56 61
l-31 79 44 41 c24 22 57 50 73 61 25 19 28 25 19 40 -12 20 -33 22 -129 13
l-50 -4 -22 45 c-13 24 -23 56 -23 70 0 30 -25 70 -44 70 -8 0 -20 -7 -27 -16z
m48 -138 c6 -35 4 -38 -18 -34 -20 2 -24 8 -22 32 5 70 29 71 40 2z m138 -96
c-34 -35 -41 -37 -50 -10 -9 29 2 40 42 40 l37 0 -29 -30z m-265 -6 c0 -21
-19 -27 -51 -14 -47 20 -33 40 23 32 15 -2 28 -10 28 -18z m170 0 c18 -46 12
-71 -22 -93 -31 -19 -34 -19 -62 -3 -39 23 -50 43 -42 76 7 30 34 44 84 45 26
1 34 -4 42 -25z m-120 -119 c11 -13 9 -20 -10 -40 -27 -28 -56 -34 -46 -9 3 9
9 27 12 40 7 27 26 31 44 9z m173 -35 c7 -25 -14 -26 -36 -2 -13 14 -14 21 -5
30 14 14 33 1 41 -28z"/>
<path d="M377 1448 c-10 -18 -25 -55 -35 -83 -20 -57 -31 -62 -140 -64 -58 -1
-63 -3 -60 -22 2 -14 16 -25 42 -34 22 -8 51 -25 64 -39 l25 -25 -25 -58 c-60
-137 -61 -169 -2 -138 16 8 32 15 36 15 3 0 34 16 69 35 l62 36 26 -24 c52
-47 115 -87 124 -78 5 5 3 21 -6 37 -7 16 -19 55 -26 87 -12 56 -12 60 11 84
12 13 44 39 71 56 78 51 56 77 -67 77 l-75 0 -20 65 c-23 73 -38 105 -50 105
-4 0 -15 -15 -24 -32z m37 -97 c9 -16 12 -31 9 -35 -10 -10 -53 -7 -53 4 0 10
22 60 26 60 2 0 10 -13 18 -29z m-114 -100 c0 -29 -18 -36 -41 -15 -27 24 -24
34 11 34 23 0 30 -5 30 -19z m150 -28 c13 -45 13 -47 -14 -70 -35 -29 -47 -29
-86 3 -32 28 -33 45 -4 92 11 16 24 22 53 22 37 0 39 -1 51 -47z m95 12 c-43
-36 -49 -36 -59 8 -6 27 -6 27 46 27 l53 -1 -40 -34z m-206 -109 l22 -24 -38
-31 c-34 -28 -63 -40 -63 -25 0 13 43 104 49 104 4 0 18 -11 30 -24z m161 -65
l0 -25 -30 29 c-29 28 -30 30 -13 43 15 11 20 10 30 -5 7 -9 13 -28 13 -42z"/>
<path d="M1323 713 c-13 -2 -23 -11 -23 -19 0 -11 15 -14 65 -14 57 0 80 9 57
24 -13 8 -76 14 -99 9z"/>
<path d="M1167 703 c-14 -13 -6 -33 13 -33 13 0 20 7 20 20 0 19 -20 27 -33
13z"/>
<path d="M1171 601 c-56 -4 -86 -10 -89 -19 -3 -10 19 -12 100 -10 83 2 103 6
103 18 0 18 -6 18 -114 11z"/>
<path d="M796 571 c-9 -14 3 -19 54 -22 35 -3 45 0 45 11 0 18 -89 27 -99 11z"/>
<path d="M153 523 c-24 -9 -13 -24 15 -21 15 2 26 8 25 13 -2 12 -23 16 -40 8z"/>
<path d="M695 470 c-82 -4 -151 -8 -153 -8 -2 -1 0 -6 3 -12 12 -20 339 -6
332 14 -5 14 -2 14 -182 6z"/>
<path d="M2645 470 c-3 -6 0 -12 7 -15 24 -9 122 1 126 13 5 15 -124 17 -133
2z"/>
<path d="M218 462 c-42 -4 -50 -16 -15 -26 38 -10 275 -7 282 4 3 6 0 13 -8
15 -16 7 -205 11 -259 7z"/>
<path d="M1505 462 c-11 -2 -24 -8 -29 -13 -10 -9 107 -13 471 -13 148 -1 193
2 193 12 0 7 -13 12 -32 12 -18 0 -157 2 -308 3 -151 1 -284 1 -295 -1z"/>
<path d="M2320 460 c0 -5 16 -11 35 -12 19 -1 43 -2 52 -2 9 -1 18 5 21 12 3
9 -12 12 -52 12 -31 0 -56 -4 -56 -10z"/>
<path d="M1297 453 c-15 -14 -5 -20 38 -20 45 0 59 10 29 21 -21 8 -59 8 -67
-1z"/>
<path d="M0 425 c0 -22 4 -25 39 -25 43 0 64 16 34 26 -10 3 -26 10 -35 15
-28 15 -38 11 -38 -16z"/>
<path d="M0 339 c0 -29 1 -30 33 -24 48 10 52 21 16 39 -44 22 -49 21 -49 -15z"/>
<path d="M145 340 c-8 -12 17 -23 41 -18 10 1 19 9 22 16 5 15 -54 17 -63 2z"/>
<path d="M335 329 c-10 -15 -5 -18 48 -20 50 -3 70 6 47 21 -20 13 -87 12 -95
-1z"/>
<path d="M930 303 c-34 -23 -40 -33 -40 -70 0 -27 -4 -34 -27 -39 -63 -14 -78
-21 -78 -40 0 -25 38 -31 135 -23 41 4 112 9 158 12 46 2 87 8 92 13 5 5 10
25 12 44 2 30 0 35 -17 33 -10 -1 -27 3 -37 8 -13 7 -23 4 -38 -11 l-20 -20 0
21 c0 31 -17 57 -50 74 -38 19 -60 19 -90 -2z m67 -97 c-7 -17 -27 -22 -27 -7
0 6 5 13 10 16 8 5 7 12 -1 23 -12 16 -11 16 5 0 11 -9 16 -23 13 -32z"/>
<path d="M267 179 c-28 -16 -10 -29 42 -29 53 0 66 7 50 27 -13 15 -66 17 -92
2z"/>
<path d="M1972 133 c4 -21 33 -25 33 -3 0 8 -8 16 -18 18 -14 3 -18 -1 -15
-15z"/>
<path d="M2483 93 c-36 -7 -27 -23 13 -23 23 0 34 4 32 12 -5 14 -15 17 -45
11z"/>
<path d="M2673 93 c-28 -10 -10 -24 30 -22 23 1 140 0 260 -1 120 -1 221 0
225 4 19 20 -44 26 -263 25 -132 -1 -246 -3 -252 -6z"/>
</g>
</svg>
