<?xml version="1.0" standalone="no"?>
<!DOCTYPE svg PUBLIC "-//W3C//DTD SVG 20010904//EN"
 "http://www.w3.org/TR/2001/REC-SVG-20010904/DTD/svg10.dtd">
<svg version="1.0" xmlns="http://www.w3.org/2000/svg"
 width="500.000000pt" height="878.000000pt" viewBox="0 0 500.000000 878.000000"
 preserveAspectRatio="xMidYMid meet">
<metadata>
Created by potrace 1.15, written by Peter Selinger 2001-2017
</metadata>
<g transform="translate(0.000000,878.000000) scale(0.100000,-0.100000)"
fill="#000000" stroke="none">
<path d="M2075 7913 c-75 -8 -150 -26 -170 -39 -18 -11 -28 -12 -51 -3 -39 15
-94 4 -164 -31 -33 -17 -72 -30 -87 -30 -16 0 -46 -9 -67 -21 -29 -16 -54 -20
-109 -18 -132 4 -179 -22 -228 -124 -36 -74 -34 -90 12 -114 13 -7 22 -19 21
-25 -28 -99 -17 -221 23 -274 36 -48 59 -57 137 -55 66 1 68 1 68 -23 0 -14
-7 -31 -15 -40 -9 -8 -22 -31 -30 -49 -18 -43 -6 -57 50 -57 51 0 75 23 75 72
0 19 3 38 6 41 4 4 33 -18 65 -47 48 -45 68 -57 115 -66 41 -9 59 -9 67 -1 20
20 27 11 25 -31 -3 -39 -1 -43 20 -41 16 2 22 -2 22 -17 0 -22 34 -28 45 -9 5
7 14 4 26 -7 25 -23 24 -33 -6 -44 -14 -5 -31 -21 -37 -36 -10 -22 -9 -31 5
-56 31 -55 12 -66 -35 -21 -26 25 -36 27 -106 28 -71 0 -84 -4 -157 -42 -142
-72 -161 -103 -203 -333 -16 -84 -18 -116 -10 -160 5 -30 9 -64 9 -75 -4 -64
0 -733 5 -747 3 -10 17 -21 31 -24 26 -7 26 -3 6 -104 -3 -19 4 -33 28 -58 29
-30 31 -35 20 -59 -11 -24 -9 -29 14 -51 21 -19 26 -32 24 -70 0 -26 7 -69 16
-97 9 -27 19 -56 21 -62 2 -8 22 -13 54 -13 41 0 50 3 51 18 0 9 4 41 8 69 4
29 4 58 -1 65 -5 8 0 19 14 29 21 16 21 17 9 225 -7 115 -15 224 -18 242 -4
24 -2 32 10 32 9 0 24 -27 41 -73 28 -76 71 -148 139 -230 34 -42 42 -59 52
-125 14 -89 11 -106 -22 -127 -13 -9 -33 -36 -43 -59 -10 -24 -34 -65 -53 -92
-87 -121 -168 -282 -237 -469 -27 -73 -58 -152 -69 -176 -11 -24 -34 -80 -51
-124 -18 -44 -50 -115 -71 -158 -21 -43 -39 -84 -39 -91 0 -21 40 -66 59 -66
10 0 32 -14 49 -30 46 -44 69 -39 37 7 -20 29 -9 78 50 217 25 59 65 167 87
239 23 73 56 159 74 192 18 34 51 108 73 164 43 107 129 300 142 314 12 15 49
-3 49 -24 0 -11 -13 -39 -29 -62 -15 -23 -40 -69 -55 -102 -26 -57 -42 -92
-80 -175 -18 -41 -89 -212 -117 -285 -61 -159 -125 -362 -175 -560 -8 -33 -17
-68 -20 -77 -7 -24 30 -58 64 -58 l27 1 -26 23 c-25 22 -26 26 -18 71 5 26 27
104 49 172 22 69 40 131 40 139 0 53 268 700 353 851 34 61 51 73 61 48 4 -11
-13 -47 -47 -98 -53 -80 -84 -156 -212 -512 -52 -145 -63 -178 -134 -418 -75
-250 -76 -320 -6 -340 17 -5 51 -20 77 -33 26 -14 60 -24 75 -22 24 3 28 0 26
-22 -1 -14 -2 -140 -4 -280 -2 -294 -6 -312 -85 -430 -64 -94 -88 -141 -109
-213 -9 -32 -24 -61 -35 -67 -29 -16 -73 -137 -66 -185 9 -59 -8 -136 -35
-158 -20 -16 -34 -18 -104 -12 -93 8 -114 21 -99 62 6 19 19 29 44 36 19 5 45
18 58 30 22 20 23 27 18 112 -2 49 -8 109 -11 132 -4 25 -2 56 4 75 11 31 10
35 -20 60 -26 22 -31 32 -26 55 7 39 -24 78 -77 96 -45 16 -73 13 -145 -13
-33 -13 -35 -12 -72 29 -42 46 -77 53 -129 26 -27 -14 -32 -14 -62 5 -18 11
-41 20 -50 20 -9 0 -31 17 -50 38 -18 21 -40 41 -49 44 -26 10 -112 -12 -146
-38 -28 -21 -43 -24 -162 -28 -139 -4 -181 -17 -181 -55 0 -10 -9 -30 -20 -44
-11 -14 -20 -37 -20 -51 0 -42 -36 -101 -85 -141 -53 -44 -61 -68 -45 -133 14
-56 69 -118 114 -127 47 -10 115 -39 120 -51 2 -6 2 -30 -1 -52 -6 -44 -31
-62 -83 -60 -23 1 -70 -5 -157 -18 l-33 -5 0 -89 0 -89 83 5 c45 3 112 14 149
25 36 10 75 19 85 19 11 0 32 13 47 28 24 26 25 30 11 42 -13 11 -26 11 -67 1
-53 -12 -65 -10 -53 8 3 6 23 11 45 11 25 0 40 5 44 16 5 14 8 14 23 -1 9 -10
26 -15 40 -12 19 3 27 -1 33 -19 11 -28 22 -30 56 -7 21 14 31 14 58 5 18 -7
54 -12 80 -12 47 0 128 -23 208 -59 24 -11 70 -28 102 -38 33 -10 62 -24 64
-32 4 -11 -1 -12 -19 -7 -13 3 -55 9 -94 12 -38 3 -91 13 -116 21 -77 26 -109
-6 -46 -46 27 -18 29 -21 11 -21 -12 0 -32 -8 -44 -18 l-22 -18 26 -17 c15
-10 32 -14 39 -10 7 4 32 8 57 8 41 0 45 2 48 25 5 42 35 54 95 38 29 -7 63
-18 76 -24 13 -7 30 -10 37 -7 20 7 27 39 14 63 -17 32 -9 33 46 4 34 -18 76
-28 134 -35 115 -12 180 -21 180 -23 0 -2 -23 -49 -51 -105 -51 -101 -65 -160
-42 -168 20 -7 183 351 183 405 0 34 15 44 54 37 30 -6 36 -11 30 -27 -4 -15
2 -22 36 -35 37 -15 40 -18 21 -25 -27 -9 -27 -25 -1 -33 21 -7 28 -25 10 -25
-5 0 -10 -4 -10 -10 0 -5 8 -10 18 -10 27 0 34 -11 16 -24 -12 -9 -13 -17 -5
-40 9 -23 8 -32 -11 -56 -13 -16 -31 -29 -40 -29 -28 -1 -31 -21 -7 -48 22
-24 22 -25 4 -18 -32 12 -88 11 -92 -2 -3 -7 7 -15 20 -18 14 -4 34 -18 46
-31 11 -13 26 -24 32 -24 14 0 7 -72 -8 -77 -7 -3 -15 8 -19 24 -9 38 -31 61
-81 84 -45 20 -88 25 -98 10 -7 -12 22 -41 41 -41 19 0 18 -16 -1 -24 -13 -5
-13 -9 -3 -25 18 -29 2 -38 -25 -14 -30 27 -82 37 -97 17 -27 -31 8 -134 45
-134 17 0 25 -23 15 -41 -5 -7 -21 -14 -36 -14 -34 -2 -41 -17 -18 -39 10 -11
24 -14 37 -10 16 5 19 3 14 -11 -4 -9 -7 -21 -7 -26 0 -14 -34 3 -62 33 -44
47 -59 34 -37 -31 8 -23 17 -31 35 -31 24 0 32 -14 14 -25 -19 -11 -10 -42 16
-55 35 -19 78 6 82 49 3 30 4 30 26 16 21 -14 25 -14 36 0 11 13 9 19 -9 38
-28 30 -27 44 8 99 35 54 86 95 130 104 54 11 69 53 75 211 1 33 8 58 19 71
13 14 16 28 11 46 -5 20 -1 33 14 49 10 12 22 29 24 37 3 10 16 14 42 12 32
-3 37 -1 34 15 -2 11 -14 19 -31 21 -15 2 -25 8 -22 13 13 21 235 2 235 -20 0
-5 -22 -6 -50 -3 -27 2 -57 2 -66 -2 -28 -11 0 -29 49 -31 24 -2 54 -8 66 -15
68 -36 152 -42 124 -8 -9 10 -3 13 33 13 48 0 55 -11 23 -39 -17 -14 -20 -25
-15 -55 3 -21 2 -52 -4 -69 -5 -19 -5 -55 0 -85 8 -53 -2 -151 -21 -199 -7
-18 -7 -32 0 -45 7 -14 6 -27 -5 -49 -10 -18 -14 -42 -10 -63 4 -27 2 -34 -14
-38 -25 -7 -25 -24 -1 -54 16 -20 21 -21 35 -10 9 7 16 22 16 33 0 10 5 16 10
13 6 -3 7 -17 4 -31 -8 -30 19 -43 44 -22 9 9 28 18 42 21 14 3 35 9 48 12 17
6 21 4 16 -8 -5 -15 44 -47 73 -47 19 0 16 -9 -9 -31 -30 -24 -38 -23 -67 6
-46 49 -128 18 -150 -57 -13 -42 -13 -43 18 -69 41 -34 39 -49 -5 -49 -19 0
-44 -5 -56 -11 -11 -6 -22 -8 -25 -5 -3 2 11 12 31 20 43 18 48 47 10 65 -17
8 -24 17 -20 27 8 21 -10 51 -35 59 -20 7 -20 8 -3 26 17 19 16 21 -12 50 -26
27 -34 30 -73 26 -58 -6 -76 -27 -76 -85 0 -45 -1 -47 -30 -50 -56 -5 -74 -12
-80 -33 -4 -11 -1 -27 6 -35 15 -19 -1 -37 -27 -32 -28 5 -31 59 -4 83 11 10
20 26 20 35 0 21 -31 50 -53 50 -9 0 -17 10 -19 23 -2 13 -11 23 -24 25 -26 4
-38 -22 -23 -50 9 -16 7 -23 -10 -35 -12 -8 -21 -23 -21 -33 0 -12 -8 -20 -25
-22 -29 -3 -34 -18 -11 -33 11 -7 22 -6 34 2 14 8 23 7 41 -6 19 -14 21 -21
12 -44 -13 -34 -23 -34 -56 -1 -21 21 -32 25 -58 20 -17 -3 -39 -14 -49 -22
-16 -15 -19 -15 -43 0 -20 13 -29 14 -44 5 -47 -30 -67 20 -30 71 21 28 21 30
5 55 -21 33 -41 40 -69 27 -22 -10 -22 -10 6 -21 32 -12 35 -36 8 -51 -17 -8
-20 -6 -23 13 -4 30 -48 38 -48 8 0 -11 4 -22 9 -26 16 -9 11 -85 -6 -85 -8 0
-13 8 -12 17 2 10 -1 33 -5 50 -5 24 -13 33 -28 33 -16 0 -19 -5 -16 -25 3
-16 -1 -30 -13 -41 -11 -10 -20 -15 -22 -13 -2 2 -11 16 -20 31 -10 16 -22 28
-27 28 -13 0 -13 -67 0 -75 18 -11 11 -25 -13 -25 -27 0 -57 -28 -57 -53 0 -9
-7 -17 -15 -17 -15 0 -21 31 -8 43 3 4 7 31 8 62 1 39 -3 56 -13 60 -19 7 -32
-3 -32 -24 0 -13 -9 -20 -30 -23 l-30 -5 6 47 c7 54 -7 72 -29 39 -8 -11 -18
-16 -21 -11 -3 5 4 22 15 36 12 15 19 30 15 33 -3 4 1 14 10 24 15 17 17 17
45 -3 16 -12 44 -22 64 -22 19 -1 35 -6 35 -12 0 -16 28 -25 36 -12 9 14 -55
67 -81 68 -41 0 -45 19 -15 64 16 23 32 55 36 71 4 16 18 45 32 64 13 20 28
45 33 56 21 44 36 64 79 104 32 30 41 44 33 52 -16 16 -44 -2 -84 -55 -29 -40
-38 -45 -62 -40 -33 7 -46 -16 -28 -50 11 -19 9 -28 -9 -59 -21 -35 -50 -47
-85 -36 -5 2 -27 2 -47 1 -33 -1 -38 1 -38 20 0 32 49 128 65 128 21 0 18 -18
-5 -32 -31 -20 -25 -47 15 -64 19 -7 38 -14 44 -14 16 0 20 64 5 94 -8 16 -14
42 -14 57 0 44 -33 60 -91 47 -53 -12 -79 -6 -79 19 0 9 -10 27 -22 40 -23 25
-18 44 7 23 12 -10 16 -9 21 3 3 9 1 24 -5 35 -9 18 -8 19 12 15 12 -3 28 -13
35 -22 9 -12 17 -13 29 -5 9 6 18 15 20 21 6 16 -65 56 -88 50 -11 -3 -33 2
-48 11 -26 15 -30 15 -55 -1 -15 -10 -24 -22 -21 -27 4 -6 -4 -14 -17 -19 -33
-12 -48 -33 -55 -75 -4 -28 -2 -37 12 -42 9 -4 20 -1 25 6 5 8 9 9 14 1 14
-22 35 -11 38 22 3 32 3 32 16 -13 7 -25 17 -57 22 -72 12 -40 -5 -44 -46 -13
-29 22 -43 26 -71 22 -23 -4 -43 -1 -58 9 -20 13 -24 13 -34 0 -14 -17 -7 -36
13 -36 7 0 21 -9 31 -20 12 -13 31 -20 55 -20 42 0 80 -33 80 -68 0 -19 -4
-21 -24 -16 -31 7 -41 -10 -22 -38 9 -12 16 -31 16 -41 0 -9 7 -20 15 -23 8
-4 15 -18 15 -32 l0 -25 -26 28 c-23 25 -27 26 -41 12 -14 -14 -13 -19 16 -55
25 -33 28 -41 16 -46 -12 -4 -14 -14 -9 -43 l7 -38 -26 24 c-16 15 -41 24 -67
26 -34 3 -46 -2 -75 -29 -42 -40 -43 -49 -10 -70 14 -9 25 -23 25 -31 0 -25
-69 -47 -139 -43 -70 3 -94 -14 -46 -32 20 -8 25 -15 23 -37 -3 -24 0 -28 19
-26 14 2 27 -5 34 -18 8 -17 17 -20 40 -15 43 8 38 -18 -6 -31 -28 -9 -38 -8
-50 3 -8 9 -25 16 -38 17 -33 3 -87 68 -87 103 0 50 10 72 33 72 52 1 107 23
107 43 0 5 -11 15 -24 24 -21 14 -26 14 -52 0 -37 -19 -45 -19 -89 2 -39 19
-44 37 -18 66 17 18 17 20 -6 38 -30 24 -56 24 -81 -1 -24 -24 -25 -38 -6 -59
8 -9 17 -29 21 -46 6 -28 5 -29 -9 -11 -11 13 -24 17 -50 14 -33 -4 -34 -2
-39 32 -2 19 -7 43 -11 52 -6 13 -2 20 17 27 32 13 55 46 62 92 5 33 2 38 -41
72 -52 41 -94 53 -123 37 -17 -8 -21 -8 -21 3 0 8 7 20 15 27 14 12 14 15 0
30 -21 23 -20 44 3 35 31 -13 62 -18 62 -8 0 5 -7 19 -16 32 -12 17 -22 21
-40 17 -22 -6 -24 -3 -24 28 0 26 5 36 21 41 25 8 19 31 -7 27 -42 -8 -41 2
-48 -357 -2 -160 0 -204 11 -222 9 -14 12 -33 8 -56 -11 -59 -11 -158 0 -173
5 -8 25 -16 43 -19 18 -2 47 -13 65 -25 l32 -21 -70 6 c-38 4 -76 12 -82 17
-10 8 -13 4 -13 -15 0 -23 4 -26 53 -31 28 -3 115 -12 192 -21 316 -34 596
-37 2575 -31 1064 3 1990 6 2058 6 l122 0 0 26 c0 14 -4 23 -10 19 -14 -8 -13
8 1 22 20 20 3 41 -33 42 -18 0 -44 2 -57 3 -13 2 -26 -2 -28 -8 -6 -18 25
-44 52 -44 50 0 30 -15 -21 -16 -38 -1 -54 2 -54 11 0 21 -33 28 -46 10 -12
-16 -141 -18 -1042 -15 -46 0 -81 4 -78 9 3 4 25 7 50 5 57 -4 73 12 60 64 -7
30 -13 37 -34 37 -19 0 -25 -5 -24 -20 0 -17 -5 -20 -29 -17 -25 4 -28 2 -25
-19 2 -14 -2 -24 -9 -25 -7 -1 -18 -2 -24 -3 -6 0 -9 -7 -6 -15 4 -9 -4 -15
-26 -18 -18 -3 -322 -6 -677 -7 l-645 -2 -22 29 -22 29 40 13 c36 12 44 11 89
-10 44 -20 52 -21 80 -10 26 11 33 11 40 0 5 -8 19 -10 41 -6 19 4 46 6 62 6
16 0 30 6 33 15 5 13 9 13 27 0 14 -10 33 -13 58 -9 20 3 45 1 56 -4 29 -16
121 16 125 43 2 11 14 25 27 31 13 7 27 18 31 25 5 7 15 9 26 5 18 -7 18 -9
-4 -26 -29 -24 -28 -30 6 -30 31 0 62 27 62 53 0 9 -11 24 -25 33 -20 13 -33
14 -65 6 -40 -10 -40 -10 -40 19 0 18 7 32 19 39 28 14 35 13 46 -12 15 -32
43 -47 55 -28 5 8 7 24 4 35 -4 17 0 21 22 20 15 0 29 6 31 12 6 17 -22 27
-44 17 -27 -11 -73 -10 -73 2 0 6 -9 23 -21 38 -27 34 -23 91 6 91 13 0 21 -8
23 -22 5 -32 28 -49 47 -33 18 15 20 46 3 54 -9 3 -7 9 6 17 11 7 30 23 43 37
26 29 41 24 22 -6 -10 -17 -10 -23 0 -36 15 -18 86 -22 96 -6 4 6 22 17 41 25
59 24 38 89 -31 97 -36 4 -46 33 -16 43 48 15 46 88 -2 100 -27 7 -103 -10
-112 -25 -10 -17 5 -49 26 -55 28 -9 23 -30 -12 -56 l-31 -22 -27 21 c-16 11
-45 27 -65 36 -20 8 -36 18 -36 21 0 3 9 1 19 -5 30 -16 51 11 44 56 -5 30 -3
36 16 41 11 3 21 9 21 14 0 18 -31 21 -55 5 -19 -13 -23 -13 -19 -2 8 21 -14
29 -39 14 -22 -14 -92 -17 -104 -4 -13 12 -53 6 -53 -9 0 -18 34 -37 53 -29 9
3 16 -2 19 -14 5 -19 4 -19 -51 -2 -99 30 -202 109 -207 160 -6 56 -4 97 9
187 8 56 18 106 21 112 4 6 17 7 34 1 15 -4 65 -11 112 -14 119 -8 160 -16
160 -32 0 -9 17 -14 53 -16 28 -2 51 -7 49 -13 -2 -6 -21 -8 -45 -5 -77 9
-292 6 -290 -5 3 -19 73 -28 114 -16 30 9 44 9 61 0 13 -7 46 -18 73 -25 28
-7 41 -13 30 -13 -11 -1 -27 -6 -35 -11 -27 -18 10 -31 70 -24 34 4 84 0 132
-10 42 -9 81 -16 85 -17 4 0 -3 -4 -15 -10 -13 -5 -22 -15 -20 -21 3 -9 42
-15 126 -19 132 -7 282 -27 282 -38 0 -4 -5 -12 -12 -19 -8 -8 -5 -20 13 -47
13 -19 28 -35 32 -35 5 0 5 -4 2 -10 -3 -5 -15 -10 -26 -10 -11 0 -22 -7 -26
-15 -8 -22 4 -30 21 -16 8 7 19 10 24 7 5 -3 58 -8 118 -11 60 -4 132 -13 161
-21 28 -8 62 -14 75 -14 12 0 32 -7 42 -15 11 -8 31 -15 44 -15 24 0 24 -1 9
-18 -13 -14 -14 -21 -5 -30 19 -19 48 -15 48 7 0 11 4 23 10 26 13 8 205 -6
221 -16 10 -6 10 -11 -1 -23 -22 -27 -4 -30 76 -11 72 17 84 17 247 1 95 -9
209 -17 255 -19 l82 -2 0 148 0 147 -26 0 c-15 0 -32 -7 -38 -16 -9 -12 -21
-14 -50 -8 -32 5 -36 8 -21 16 11 7 15 17 11 33 -7 27 4 32 73 33 45 1 59 7
47 19 -12 13 -149 15 -179 4 -26 -10 -28 -14 -22 -44 7 -31 7 -31 -11 -16 -11
9 -33 20 -51 24 -27 5 -31 10 -28 34 4 32 -2 44 -32 60 -38 19 -72 14 -83 -14
-9 -24 -12 -25 -112 -25 -70 0 -112 -5 -131 -15 -15 -8 -34 -12 -42 -8 -8 3
-15 0 -15 -6 0 -6 -4 -11 -10 -11 -5 0 -10 8 -10 18 0 11 -12 22 -32 30 -27
10 -36 9 -65 -8 -44 -26 -74 -25 -96 1 -20 22 -39 20 -95 -12 -44 -25 -67 -24
-79 4 -17 36 -69 25 -95 -19 -11 -19 -30 -36 -42 -39 -50 -11 -66 -9 -78 8
-10 13 -42 21 -128 32 -128 17 -172 29 -191 51 -20 25 -82 52 -129 58 -39 4
-93 36 -62 36 7 0 12 -5 12 -10 0 -6 9 -5 21 2 17 10 23 10 26 1 4 -10 8 -9
19 2 12 12 47 13 193 10 97 -2 188 -6 202 -9 13 -3 67 -8 119 -11 64 -4 97
-10 102 -20 14 -25 191 -31 747 -26 159 1 185 -1 195 -15 9 -12 35 -17 99 -21
76 -5 87 -4 87 11 0 12 -10 16 -45 16 -30 0 -50 6 -62 19 -16 16 -41 19 -218
25 -220 7 -315 15 -315 27 0 4 35 10 78 14 147 14 150 47 3 46 -53 -1 -148 3
-211 8 -155 13 -450 14 -450 2 0 -19 22 -22 169 -24 110 -2 153 -6 165 -16 13
-11 20 -11 28 -3 21 21 81 13 122 -16 48 -33 60 -58 25 -49 -13 4 -95 7 -181
7 -131 0 -158 2 -158 14 0 22 -11 26 -107 31 -133 7 -203 16 -203 25 0 4 8 6
18 4 9 -3 35 -1 57 5 22 5 32 9 23 10 -10 1 -22 10 -28 21 -11 21 -9 22 135
59 55 15 62 14 68 -10 4 -14 10 -18 19 -13 7 5 42 9 78 10 36 2 88 8 115 14
28 6 82 13 120 14 39 2 95 6 125 11 80 11 52 -9 -40 -29 -48 -10 -93 -14 -125
-10 -39 5 -48 4 -38 -6 21 -23 171 -10 276 24 116 38 200 45 372 32 44 -3 86
-6 93 -6 6 0 12 -3 12 -7 0 -5 -42 -9 -94 -9 -68 -1 -103 -6 -127 -19 -19 -10
-51 -26 -71 -37 -38 -18 -50 -38 -25 -38 8 0 34 11 58 25 78 44 92 47 217 47
70 -1 122 3 122 9 0 5 -4 9 -10 9 -5 0 -10 6 -10 14 0 20 -23 26 -95 26 -45 0
-66 4 -76 16 -11 14 -25 15 -89 9 -41 -4 -110 -9 -153 -10 -42 -2 -107 -8
-145 -15 -78 -13 -223 -19 -217 -9 7 10 89 29 126 29 18 0 52 9 75 20 56 28
187 36 304 20 50 -6 94 -9 98 -6 20 21 -102 75 -228 100 -109 23 -130 28 -134
35 -8 12 107 4 183 -13 41 -8 104 -30 140 -47 37 -17 95 -35 131 -39 36 -5 73
-12 83 -16 10 -3 17 -1 17 5 0 15 -43 31 -81 31 -17 0 -62 14 -100 30 -38 17
-110 40 -160 50 -49 11 -94 22 -99 25 -4 3 -88 8 -187 11 -199 6 -275 11 -315
20 -17 4 -28 2 -28 -4 0 -15 29 -25 80 -28 163 -10 290 -21 260 -23 -19 -1
-42 -6 -50 -11 -18 -12 -22 -11 74 -16 44 -2 84 -8 90 -14 5 -5 26 -10 45 -10
40 0 128 -22 157 -38 15 -9 0 -11 -68 -12 -74 0 -86 2 -82 15 10 25 -141 20
-219 -6 -34 -12 -75 -23 -92 -25 -105 -12 -133 -18 -160 -32 -16 -8 -33 -19
-36 -24 -9 -14 -76 -27 -134 -28 -27 0 -97 -14 -154 -30 -118 -34 -251 -42
-251 -15 0 7 -8 19 -17 24 -19 11 -22 10 60 16 39 3 44 12 19 38 -15 15 -25
18 -30 11 -4 -6 -50 -14 -102 -18 -52 -4 -134 -16 -182 -27 -95 -21 -188 -25
-188 -9 0 6 15 10 33 11 54 2 82 13 79 33 -2 11 5 20 17 23 12 3 21 10 21 15
0 7 -21 8 -57 3 -84 -10 -111 -10 -282 -1 -151 9 -153 9 -147 -11 5 -14 1 -23
-9 -27 -21 -8 -65 3 -65 15 0 19 33 60 45 55 7 -2 73 0 146 5 74 6 184 10 246
9 83 -1 122 3 150 15 58 25 223 53 223 38 0 -11 -88 -33 -131 -33 -16 0 -29
-4 -29 -10 0 -5 7 -10 15 -10 33 0 13 -18 -26 -23 -45 -6 -54 -11 -45 -25 3
-5 21 -6 43 -1 21 4 74 15 118 24 44 9 96 25 117 35 20 10 54 22 75 25 37 7
187 89 228 125 20 17 102 62 140 76 18 7 17 8 -8 12 -27 3 -106 -36 -186 -94
-19 -13 -46 -27 -60 -30 -14 -4 -53 -19 -86 -35 -33 -16 -77 -32 -97 -35 -31
-5 -36 -4 -35 12 2 15 -6 20 -33 23 -33 5 -32 5 15 10 40 5 49 9 47 24 -2 12
4 17 19 17 30 0 156 62 204 100 22 18 60 42 85 55 25 13 67 46 93 74 26 28 57
55 68 61 26 15 45 3 140 -90 69 -66 100 -83 114 -60 9 15 100 1 165 -25 90
-37 317 -78 392 -71 104 11 141 11 176 4 24 -6 32 -4 32 7 0 20 -92 29 -172
16 -97 -16 -248 11 -443 78 -33 12 -90 24 -127 27 l-68 6 -68 68 c-38 38 -80
72 -95 75 -44 11 -90 -12 -141 -70 -30 -35 -69 -66 -105 -85 -32 -16 -72 -40
-89 -54 -60 -52 -162 -93 -244 -100 -43 -4 -117 -20 -165 -35 -91 -30 -154
-36 -473 -43 l-115 -3 4 111 c2 91 0 112 -13 123 -17 15 -18 9 21 176 52 225
64 265 106 370 14 34 23 89 28 175 21 331 20 325 79 333 90 12 119 57 100 152
-7 33 -15 128 -17 210 -2 83 -8 164 -12 180 -11 44 -12 256 -2 225 5 -14 19
-99 31 -190 24 -184 40 -263 66 -332 16 -41 17 -49 4 -74 -8 -16 -23 -37 -33
-47 -23 -23 -9 -42 21 -33 31 10 72 56 72 81 0 13 -15 59 -33 102 -19 43 -37
94 -40 113 -9 51 -39 301 -39 325 0 11 -4 31 -9 45 -5 14 -13 90 -19 170 -6
80 -16 163 -21 185 -39 152 -45 210 -39 375 3 91 3 171 -1 179 -4 8 0 33 9 55
12 32 15 75 14 191 -1 82 -5 158 -8 168 -6 18 -4 18 22 -2 34 -24 117 -31 151
-13 29 16 53 51 53 77 0 12 18 38 43 61 64 57 86 124 103 314 8 85 15 177 15
204 1 28 9 65 21 87 24 46 21 73 -10 77 -12 2 -22 10 -22 19 0 12 8 14 33 10
54 -8 67 6 67 70 0 39 -5 62 -17 75 -15 17 -15 20 9 46 13 15 30 46 37 70 15
54 51 77 133 86 72 7 101 28 129 94 10 24 33 64 51 89 24 36 32 59 34 101 4
75 -8 104 -41 96 -40 -10 -31 18 20 56 203 152 224 478 43 675 -96 106 -222
159 -373 160 -109 0 -182 -21 -264 -76 -68 -45 -98 -81 -147 -177 -57 -114
-66 -228 -27 -362 19 -65 58 -126 126 -197 l49 -51 -22 -19 c-129 -105 -141
-119 -160 -201 -6 -29 -23 -68 -36 -88 -14 -20 -30 -59 -36 -87 -12 -61 -34
-107 -49 -107 -6 0 -32 17 -58 38 -25 21 -61 44 -80 52 l-33 13 6 64 c4 35 11
75 16 89 13 32 13 288 1 368 -16 102 -30 225 -39 348 -7 90 -15 125 -30 150
-12 18 -29 48 -38 67 -22 43 -103 107 -181 142 -103 46 -261 68 -388 52z
m1594 -103 c139 -72 216 -174 241 -319 16 -84 1 -191 -37 -268 -41 -82 -141
-172 -239 -213 -76 -31 -80 -32 -107 -16 -22 12 -33 13 -49 5 -33 -18 -95 -4
-185 41 -121 60 -189 138 -233 270 -18 53 -21 79 -17 145 7 96 18 130 73 215
52 80 73 100 149 139 79 41 131 51 238 46 80 -4 97 -9 166 -45z m-1454 -200
c3 -5 -1 -10 -9 -10 -8 0 -18 5 -21 10 -3 6 1 10 9 10 8 0 18 -4 21 -10z m-55
-10 c-8 -5 -22 -10 -30 -10 -13 0 -13 1 0 10 8 5 22 10 30 10 13 0 13 -1 0
-10z m-945 -20 c3 -5 1 -10 -4 -10 -6 0 -11 5 -11 10 0 6 2 10 4 10 3 0 8 -4
11 -10z m1250 -20 c3 -5 1 -10 -4 -10 -6 0 -11 5 -11 10 0 6 2 10 4 10 3 0 8
-4 11 -10z m-250 -30 c8 -13 61 -13 84 0 26 14 111 -16 157 -56 l39 -33 -30
-25 c-29 -23 -29 -25 -17 -70 6 -25 15 -70 18 -101 7 -59 27 -74 43 -32 8 20
10 20 16 4 8 -20 4 -57 -20 -152 -29 -121 -27 -118 -93 -110 -92 11 -144 26
-184 52 -36 25 -58 24 -58 -1 0 -7 31 -34 69 -60 89 -59 121 -97 121 -142 0
-22 -6 -37 -15 -41 -25 -9 -47 -61 -40 -94 5 -22 3 -29 -8 -29 -19 0 -41 63
-33 95 5 20 -2 29 -52 62 -56 39 -138 73 -174 73 -24 0 -23 20 4 93 l22 59
-22 17 c-14 11 -20 23 -16 37 4 15 -1 23 -20 32 -30 13 -33 37 -11 78 8 16 15
42 15 58 0 23 4 27 20 23 36 -9 52 15 60 94 8 84 30 136 65 149 12 5 26 14 30
19 8 14 22 14 30 1z m300 -160 c3 -5 -3 -10 -14 -10 -12 0 -21 5 -21 10 0 6 6
10 14 10 8 0 18 -4 21 -10z m-7 -58 c6 -18 -15 -14 -22 4 -4 10 -1 14 6 12 6
-2 14 -10 16 -16z m-1173 -100 c-3 -3 -16 5 -28 17 l-22 23 28 -17 c15 -10 25
-20 22 -23z m319 -122 l31 -35 -30 25 c-42 35 -55 51 -55 69 1 12 3 11 12 -4
6 -11 25 -36 42 -55z m141 -40 c3 -5 1 -10 -4 -10 -6 0 -11 5 -11 10 0 6 2 10
4 10 3 0 8 -4 11 -10z m1404 -72 c-7 -13 -30 -44 -52 -70 -40 -48 -44 -73 -15
-92 22 -14 75 4 145 49 28 19 66 41 85 49 41 19 93 49 113 66 10 9 15 9 15 1
0 -6 -4 -11 -9 -11 -15 0 -201 -192 -195 -201 7 -13 34 -11 34 2 0 22 125 140
169 160 24 10 46 17 49 14 3 -2 -28 -35 -69 -72 -116 -106 -149 -140 -149
-152 0 -7 43 27 96 74 53 47 100 85 104 85 27 0 9 -25 -76 -104 -52 -48 -94
-92 -94 -97 0 -21 24 -6 90 56 40 38 75 63 83 59 28 -10 75 20 155 102 98 101
125 105 31 6 -35 -38 -72 -80 -81 -94 -11 -16 -31 -28 -53 -32 -36 -7 -46 -22
-21 -32 25 -10 86 27 116 70 15 22 47 59 69 81 36 35 41 37 41 18 0 -13 -14
-33 -36 -49 -20 -15 -51 -51 -69 -79 l-33 -52 -81 -9 -80 -10 21 23 c28 30 15
43 -15 15 -12 -11 -36 -31 -54 -44 -18 -13 -65 -48 -105 -79 -40 -31 -95 -71
-123 -89 -27 -18 -68 -52 -91 -77 l-41 -45 -66 47 -67 46 20 39 c11 22 20 50
20 62 0 13 14 52 31 88 17 36 33 88 36 115 6 46 12 56 75 118 71 69 98 84 77
45z m134 -3 c20 -8 37 -19 37 -23 0 -6 -77 -52 -176 -105 -65 -35 -66 2 -1 73
20 23 42 51 48 62 12 21 27 20 92 -7z m357 -21 c-19 -22 -55 -41 -45 -22 16
28 28 38 42 38 13 0 13 -3 3 -16z m-95 -24 c-17 -17 -31 -26 -33 -20 -5 15 27
50 46 50 11 0 7 -9 -13 -30z m-1095 -40 c0 -29 -21 -70 -37 -70 -19 0 -16 50
4 72 21 23 33 23 33 -2z m1125 -3 c-14 -22 -65 -54 -65 -41 0 9 61 64 71 64 5
0 3 -11 -6 -23z m120 -75 l-28 -27 23 33 c12 18 25 31 28 27 3 -3 -7 -18 -23
-33z m-1635 -9 c53 -18 100 -59 100 -86 0 -10 5 -28 11 -39 10 -19 9 -20 -17
-14 -16 4 -42 16 -59 27 -58 37 -120 60 -165 62 -43 2 -45 3 -48 35 -3 30 -2
32 22 26 13 -3 33 -1 43 5 20 11 45 7 113 -16z m340 -33 c0 -5 -5 -10 -11 -10
-5 0 -7 5 -4 10 3 6 8 10 11 10 2 0 4 -4 4 -10z m1263 -17 c-2 -10 -16 -36
-31 -57 -26 -38 -31 -41 -115 -57 -98 -19 -131 -40 -143 -93 -7 -33 -50 -100
-80 -127 -27 -23 -107 -33 -133 -17 -20 12 -20 14 17 52 24 25 33 40 25 43
-30 11 1 50 78 98 43 27 77 51 103 74 19 18 30 22 33 14 6 -17 31 -16 65 1 14
8 49 17 78 21 40 6 55 13 72 36 24 33 38 38 31 12z m-1293 -40 c-1 -5 -12 -21
-25 -38 -28 -35 -50 -24 -39 19 5 21 12 26 35 26 16 0 29 -3 29 -7z m-551
-136 c36 -18 91 -52 122 -75 60 -45 217 -123 287 -141 43 -12 169 -14 229 -4
41 6 177 139 186 180 12 53 19 56 73 27 66 -36 79 -52 58 -76 -14 -15 -15 -22
-4 -48 12 -30 12 -32 -59 -101 -39 -39 -71 -78 -71 -85 0 -26 38 -14 58 19 33
52 126 127 159 127 29 0 60 -30 76 -72 4 -11 12 -15 22 -12 8 3 15 1 15 -5 0
-6 -4 -11 -9 -11 -20 0 -74 -95 -76 -134 -2 -29 -10 -46 -27 -60 -14 -12 -35
-29 -46 -38 -13 -10 -19 -24 -16 -33 8 -19 -17 -60 -62 -102 -41 -39 -44 -69
-8 -85 23 -11 29 -10 46 12 10 13 16 30 14 37 -8 19 16 62 53 97 35 33 39 53
14 59 -14 3 -12 6 10 15 15 7 30 20 34 29 3 10 19 32 36 50 23 24 28 37 23 57
-3 13 -1 37 5 53 l11 28 19 -24 c19 -23 19 -24 0 -50 -10 -14 -39 -71 -63
-126 -24 -55 -71 -145 -105 -200 -33 -55 -68 -117 -78 -138 -23 -49 -62 -69
-147 -74 -76 -5 -84 4 -38 37 32 23 39 40 15 40 -22 0 -83 -58 -87 -82 -6 -39
-47 -58 -152 -69 -89 -9 -99 -8 -111 8 -11 15 -18 16 -47 6 -40 -15 -193 -12
-208 3 -7 7 -5 15 8 27 16 15 20 15 47 1 23 -12 50 -15 118 -11 94 5 119 15
97 41 -14 18 -19 15 75 41 63 18 99 39 152 88 24 23 37 28 57 23 14 -3 28 -1
31 5 8 12 -22 49 -40 49 -6 0 -36 -22 -66 -49 -91 -81 -128 -96 -243 -98 -98
-1 -99 -1 -123 28 -14 16 -31 29 -38 29 -20 0 -27 17 -17 37 15 29 0 50 -57
80 -30 15 -56 33 -58 39 -6 19 61 11 75 -8 7 -10 24 -18 38 -18 13 0 27 -7 30
-15 8 -19 48 -19 64 0 12 15 6 35 -11 35 -6 0 -19 10 -29 23 -15 18 -21 20
-31 10 -20 -20 -27 -16 -21 12 6 33 -20 43 -53 21 -28 -19 -45 -14 -45 13 0
10 -3 21 -7 24 -10 11 -43 -24 -43 -45 0 -10 -7 -30 -16 -43 -21 -32 -10 -45
55 -74 62 -26 76 -43 61 -72 -11 -19 -9 -24 15 -43 19 -15 26 -29 23 -46 -4
-33 -35 -39 -40 -8 -2 15 -11 24 -25 26 -13 2 -23 9 -23 16 0 7 -11 27 -25 46
-14 19 -25 42 -25 52 0 22 0 22 -36 3 -21 -11 -31 -26 -41 -66 -12 -46 -12
-54 3 -71 10 -10 26 -18 36 -18 10 0 22 -10 28 -24 15 -39 39 -42 53 -6 3 10
6 6 6 -9 1 -14 -6 -32 -14 -41 -11 -13 -13 -24 -7 -41 10 -26 1 -62 -19 -75
-21 -12 -41 27 -34 67 5 26 2 39 -9 49 -9 7 -16 18 -16 25 0 8 -18 29 -40 48
-26 22 -42 45 -46 68 -10 49 -53 112 -97 140 -40 25 -112 117 -143 183 -13 25
-23 35 -34 31 -11 -4 -21 3 -28 20 -6 14 -19 25 -28 25 -11 0 -14 5 -10 16 3
9 6 19 6 23 0 4 10 18 23 31 15 17 22 37 22 67 1 23 7 53 15 67 12 23 11 28
-4 45 -17 18 -17 20 3 40 12 12 21 26 21 32 0 5 14 15 30 20 31 11 38 27 19
46 -11 11 23 31 91 56 46 17 123 6 189 -26z m1093 -119 c78 -42 138 -109 138
-155 0 -46 -31 -42 -41 5 -8 38 -45 82 -69 82 -9 0 -25 9 -35 20 -10 11 -30
20 -45 20 -32 0 -55 23 -46 45 8 22 32 18 98 -17z m213 5 c-3 -16 -13 -35 -21
-44 -10 -11 -13 -26 -8 -43 8 -33 -9 -34 -24 -1 -17 36 -16 40 19 80 37 42 43
44 34 8z m223 -105 c-3 -31 -6 -34 -55 -43 -62 -12 -68 -17 -51 -45 12 -19 10
-23 -14 -41 -36 -27 -35 -48 2 -56 17 -3 33 -10 37 -16 12 -20 -1 -286 -16
-314 -5 -10 -14 -50 -20 -89 -15 -103 -34 -140 -81 -164 -38 -20 -65 -51 -53
-63 12 -12 -7 -54 -29 -63 -23 -10 -87 1 -104 19 -4 4 -16 7 -26 7 -27 0 -22
27 9 42 37 18 50 68 26 105 -10 16 -24 33 -32 39 -25 19 -4 34 26 19 23 -12
31 -12 48 -1 30 20 29 39 -5 58 -35 20 -39 38 -10 38 40 0 36 31 -8 69 -23 20
-42 39 -42 43 0 4 15 4 34 1 25 -4 35 -1 40 12 7 20 -10 45 -30 45 -19 0 -18
20 2 34 9 7 20 30 24 52 8 42 46 171 62 216 9 23 14 26 39 21 31 -6 42 13 14
23 -24 10 -17 27 9 20 28 -7 40 2 24 21 -17 20 -8 22 49 11 46 -9 55 -8 80 10
41 31 55 28 51 -10z m-1679 -537 c10 -14 21 -44 24 -66 4 -28 16 -49 39 -69
41 -38 69 -91 74 -141 8 -96 10 -100 35 -103 32 -4 119 70 119 101 0 21 4 22
119 23 109 0 117 -1 100 -15 -15 -14 -17 -23 -8 -76 5 -33 20 -96 33 -140 34
-111 60 -225 53 -231 -11 -11 -26 7 -55 70 -31 67 -82 255 -82 305 0 31 -22
57 -40 46 -5 -3 -10 -23 -10 -43 0 -47 50 -241 78 -306 25 -56 25 -56 12 -56
-20 0 -140 274 -140 320 0 36 -17 48 -38 26 -18 -17 -20 -9 57 -211 50 -131
43 -133 -44 -11 -22 31 -45 56 -52 56 -18 0 -16 -9 12 -55 14 -22 25 -44 25
-49 0 -12 -98 96 -123 135 -11 16 -25 29 -33 29 -20 0 -18 -4 19 -63 48 -76
52 -86 17 -47 -76 85 -160 234 -160 284 0 13 -9 34 -19 48 -27 34 -62 143 -67
208 -2 33 -10 59 -19 66 -8 6 -15 19 -15 28 0 14 6 12 35 -10 20 -15 44 -39
54 -53z m1085 64 c-4 -8 -10 -12 -15 -9 -14 8 -10 24 6 24 9 0 12 -6 9 -15z
m116 -19 c0 -8 -3 -17 -7 -19 -10 -6 -8 -145 2 -250 5 -51 3 -119 -5 -192 -13
-110 -13 -114 8 -140 27 -34 28 -87 5 -167 l-17 -58 -51 -1 c-145 -2 -186 1
-310 26 -27 6 -42 43 -60 150 -19 110 -21 115 -40 115 -24 0 -29 -27 -11 -55
10 -15 12 -26 6 -30 -7 -4 -8 -36 -4 -87 6 -68 5 -80 -7 -75 -71 29 -75 36
-104 162 -8 39 -25 99 -36 134 -20 60 -30 154 -17 167 11 10 81 24 126 24 24
0 67 11 95 24 79 36 115 46 169 46 53 0 117 33 141 72 8 13 33 56 57 96 41 69
60 88 60 58z m-1000 -97 c0 -11 -4 -17 -10 -14 -5 3 -10 13 -10 21 0 8 5 14
10 14 6 0 10 -9 10 -21z m310 -89 c-20 -13 -110 -13 -110 0 0 6 27 10 63 10
44 0 58 -3 47 -10z m-242 -533 c5 -24 -15 -21 -28 4 -10 18 -9 20 7 17 10 -2
19 -11 21 -21z m167 -56 c10 -17 136 -53 198 -57 49 -3 65 -8 83 -27 12 -14
39 -28 58 -31 45 -9 146 -70 123 -74 -9 -2 -54 10 -100 27 -46 17 -87 31 -92
31 -13 0 -136 49 -175 70 -19 10 -61 26 -92 35 -32 9 -58 21 -58 26 0 12 47
12 55 0z m-110 -41 c3 -5 15 -10 26 -10 11 0 57 -18 104 -40 47 -22 90 -40 97
-40 16 -1 245 -81 320 -112 31 -14 72 -37 90 -52 l33 -27 -42 6 c-46 6 -127
30 -155 45 -52 29 -112 42 -208 46 -104 3 -222 18 -270 34 -35 12 -98 26 -127
29 -21 2 -16 41 5 41 26 0 42 20 42 53 0 16 4 26 10 22 5 -3 18 -1 27 4 23 13
40 14 48 1z m692 -55 c138 -10 186 -39 149 -88 -8 -10 -12 -26 -9 -37 3 -12
-2 -20 -17 -25 -17 -5 -30 0 -54 23 -17 17 -75 52 -128 77 -107 51 -125 65
-75 60 18 -2 78 -6 134 -10z m-911 -182 c-20 -37 -54 -113 -77 -168 -22 -55
-61 -143 -86 -195 -25 -52 -63 -151 -84 -220 -22 -69 -58 -170 -80 -225 -22
-55 -50 -126 -61 -157 -12 -32 -24 -58 -28 -58 -10 0 -50 40 -50 51 0 5 17 44
39 87 21 42 84 190 140 327 125 307 147 358 179 415 48 86 135 220 139 216 3
-2 -11 -35 -31 -73z m307 -8 c-3 -39 -63 -348 -87 -448 -44 -187 -65 -290 -96
-472 -17 -99 -42 -223 -57 -275 -14 -52 -28 -106 -30 -120 -4 -24 -9 -26 -64
-28 -47 -2 -66 2 -89 18 -15 11 -40 20 -53 20 -34 0 -41 13 -39 77 2 60 22
137 119 443 32 103 92 258 93 241 0 -8 -5 -41 -12 -73 -9 -44 -9 -61 0 -70 19
-19 42 9 42 51 0 45 46 207 94 328 20 51 36 96 36 100 0 3 26 58 57 120 40 81
61 113 72 111 9 -2 15 -12 14 -23z m250 -60 c-1 -48 4 -78 15 -97 13 -23 14
-36 4 -95 -6 -37 -16 -102 -21 -143 -5 -41 -20 -131 -34 -200 -14 -69 -31
-161 -37 -205 l-11 -80 27 -23 c30 -26 30 -17 -11 -197 -14 -60 -31 -138 -37
-172 -10 -51 -15 -62 -30 -60 -14 1 -24 -12 -41 -53 -18 -44 -27 -56 -47 -58
-14 -1 -45 -8 -69 -14 -43 -11 -43 -11 -76 28 -31 36 -34 38 -60 26 -15 -7
-30 -11 -32 -8 -13 12 -22 98 -13 121 15 39 57 237 85 400 20 118 120 565 141
634 2 7 11 11 18 8 21 -8 33 11 40 68 10 73 36 157 54 178 13 14 28 17 76 15
l60 -3 -1 -70z m145 21 c42 -14 88 -27 102 -30 23 -5 25 -9 27 -73 1 -37 3
-84 4 -103 2 -19 1 -62 0 -95 -2 -33 -3 -211 -2 -395 1 -438 -6 -659 -25 -765
-5 -29 -7 -31 -52 -29 -35 2 -47 6 -53 22 -9 25 16 483 32 585 10 63 10 80 0
86 -14 9 -10 57 16 179 12 57 13 76 4 85 -20 19 -37 -16 -45 -88 -9 -91 -17
-125 -28 -125 -5 0 -7 8 -4 18 3 9 8 109 11 222 3 113 10 219 14 235 5 17 12
57 16 89 4 33 11 69 16 80 10 24 2 -145 -11 -234 -8 -53 -6 -108 4 -118 3 -2
11 -2 19 1 10 4 16 33 21 99 3 51 10 131 15 178 9 94 6 112 -18 108 -9 -1 -22
1 -29 6 -28 17 -44 -21 -63 -146 -10 -67 -21 -190 -24 -273 -11 -337 -26 -615
-36 -690 -18 -132 -50 -299 -60 -311 -16 -19 -59 -23 -75 -7 -8 8 -14 26 -14
40 0 61 33 276 54 353 22 80 33 137 72 400 8 58 19 127 23 154 8 43 6 49 -10
53 -12 3 -19 14 -19 29 0 19 5 23 23 21 20 -2 22 3 24 43 2 25 7 70 13 100 5
30 12 91 15 135 4 44 11 87 16 97 17 31 11 51 -13 45 -22 -6 -58 16 -58 35 0
12 14 10 98 -16z m382 -1 c0 -14 -4 -25 -10 -25 -5 0 -10 4 -10 9 0 5 -3 16
-6 25 -4 11 -1 16 10 16 10 0 16 -9 16 -25z m-137 -60 c20 -8 61 -34 93 -57
52 -39 55 -43 33 -48 -23 -6 -24 -9 -20 -80 1 -41 5 -79 8 -83 2 -4 3 -67 2
-140 -5 -240 3 -781 11 -827 6 -31 5 -47 -3 -52 -19 -12 -44 -9 -49 5 -2 6 -2
174 1 372 5 463 2 828 -7 837 -4 4 -14 3 -21 -2 -11 -6 -14 -29 -11 -102 2
-51 3 -174 3 -273 -1 -99 -2 -321 -2 -493 -1 -310 -6 -367 -36 -406 -13 -17
-20 -18 -52 -10 -25 7 -37 15 -35 24 5 18 13 690 12 930 0 96 5 215 12 263 11
81 11 90 -5 98 -17 10 -23 40 -10 52 10 11 38 8 76 -8z m132 -15 c3 -6 -1 -7
-9 -4 -18 7 -21 14 -7 14 6 0 13 -4 16 -10z m69 -400 c4 -74 3 -108 -3 -95 -9
19 -15 223 -7 214 3 -2 7 -56 10 -119z m-1124 33 c-11 -17 -11 -17 -6 0 3 10
6 24 7 30 0 9 2 9 5 0 3 -7 0 -20 -6 -30z m1087 -260 c-2 -21 -4 -6 -4 32 0
39 2 55 4 38 2 -18 2 -50 0 -70z m-575 -55 c-7 -7 -12 -8 -12 -2 0 14 12 26
19 19 2 -3 -1 -11 -7 -17z m145 -30 c-3 -8 -6 -5 -6 6 -1 11 2 17 5 13 3 -3 4
-12 1 -19z m453 -278 c6 -96 16 -192 21 -213 12 -46 4 -79 -19 -75 -13 3 -18
20 -24 77 -10 120 -18 487 -10 495 9 10 16 -59 32 -284z m-1056 -360 c12 -4
34 -6 48 -3 18 4 34 -2 50 -16 32 -30 67 -37 97 -19 16 8 47 13 79 12 34 -2
52 1 53 9 0 7 5 -4 11 -23 12 -42 45 -80 70 -80 24 0 23 -15 -6 -77 -14 -29
-36 -94 -50 -146 -40 -146 -53 -176 -99 -231 -59 -70 -100 -133 -121 -185 -15
-39 -15 -46 -2 -59 12 -13 12 -20 0 -54 -18 -53 -76 -147 -108 -177 -14 -14
-26 -30 -26 -37 0 -19 -37 -37 -45 -23 -4 6 -19 7 -38 3 -18 -5 -61 -8 -96 -9
-65 0 -93 -17 -52 -30 12 -3 21 -13 21 -20 0 -8 10 -19 21 -26 17 -9 36 -6 93
11 39 12 75 26 80 31 6 5 25 9 44 9 l35 0 -59 -55 c-46 -43 -56 -57 -46 -67 9
-9 18 -6 40 15 15 15 33 27 39 27 6 0 16 7 23 15 28 34 18 4 -16 -46 -38 -57
-103 -99 -153 -99 -15 0 -32 -5 -38 -11 -8 -8 -24 -6 -57 5 -26 9 -53 16 -60
16 -7 0 -12 10 -12 22 1 15 -8 27 -26 36 -30 14 -40 39 -10 27 40 -17 62 -18
62 -1 0 9 -9 21 -19 28 -18 11 -18 13 -3 25 16 12 15 15 -10 36 -16 12 -28 27
-28 31 0 5 7 3 15 -4 27 -22 35 0 25 71 -6 41 -6 88 0 125 10 61 68 187 120
259 79 109 90 164 89 435 -1 171 4 329 11 350 1 3 9 -17 17 -43 10 -32 22 -51
37 -57z m541 -26 c-3 -19 -10 -34 -15 -34 -12 0 -12 -2 2 62 9 38 13 46 16 29
2 -13 1 -39 -3 -57z m375 -17 c-4 -17 -11 -114 -14 -214 -5 -159 -9 -188 -29
-240 -39 -94 -46 -121 -77 -263 -16 -74 -38 -166 -49 -204 -11 -37 -21 -86
-23 -108 l-2 -41 -110 7 c-115 8 -152 18 -200 58 -25 21 -31 36 -42 108 -17
104 -7 147 53 248 68 112 101 227 64 227 -14 0 -36 55 -46 117 -4 21 -11 40
-16 44 -14 9 -11 35 14 94 35 85 46 100 71 100 22 0 44 16 71 55 14 20 14 20
15 -1 0 -32 19 -41 89 -42 68 -2 91 8 91 39 0 16 8 19 43 19 26 0 52 8 67 19
32 25 40 19 30 -22z m-484 -382 c37 -99 33 -127 -41 -270 -50 -98 -65 -137
-65 -169 0 -30 -6 -48 -20 -61 -30 -27 -41 -74 -37 -168 3 -59 9 -94 21 -112
10 -14 16 -36 14 -48 -3 -21 -8 -22 -120 -25 -108 -2 -139 4 -109 22 28 18 97
278 85 322 -3 11 -1 37 5 59 5 22 14 57 19 77 5 20 19 50 31 66 11 17 21 43
21 58 0 15 9 37 19 48 30 32 87 145 107 209 23 74 41 72 70 -8z m-1646 -108
c0 -8 -3 -17 -6 -20 -10 -9 -46 12 -39 24 9 14 45 11 45 -4z m-59 -58 c16 9
24 9 35 0 11 -9 19 -8 35 7 20 18 21 18 35 0 8 -12 31 -22 56 -25 48 -7 59
-27 37 -67 -11 -21 -9 -26 15 -45 57 -45 85 -89 56 -89 -13 0 -13 -33 0 -46 9
-9 0 -51 -20 -94 -17 -37 -117 -51 -103 -14 7 18 -25 124 -37 124 -5 0 -6 30
-3 68 l5 67 -40 45 c-36 40 -44 45 -83 45 -39 0 -44 3 -48 25 l-3 25 22 -20
c18 -16 24 -17 41 -6z m-353 -26 c-2 -9 13 -25 36 -38 22 -12 43 -32 47 -44
11 -28 33 -27 53 4 15 23 15 26 1 31 -28 11 -17 32 17 30 25 -1 35 4 43 22 5
12 18 22 27 22 24 0 23 -8 -8 -37 -21 -19 -24 -26 -14 -38 9 -10 16 -12 24 -5
18 14 144 10 157 -6 7 -9 5 -14 -10 -19 -12 -3 -21 -15 -21 -26 0 -12 -7 -19
-19 -19 -24 0 -45 -25 -37 -45 7 -19 35 -19 42 0 4 8 15 15 25 15 10 0 25 12
33 28 l15 27 1 -33 c0 -19 -8 -47 -17 -63 -16 -28 -16 -29 7 -54 25 -27 21
-39 -13 -40 -17 0 -22 -6 -22 -25 0 -20 5 -25 23 -23 25 3 29 -14 9 -41 -18
-25 -96 -30 -119 -9 -11 10 -28 14 -45 10 -21 -4 -39 3 -75 30 -27 19 -48 43
-48 53 0 9 -6 23 -14 29 -11 9 -12 18 -3 40 15 41 4 61 -36 61 -45 0 -51 9
-26 36 22 23 19 44 -6 44 -17 0 -55 78 -48 97 7 17 24 6 21 -14z m723 -15 c13
-18 28 -37 34 -41 6 -5 2 -14 -12 -24 -13 -8 -23 -21 -23 -29 0 -22 20 -27 40
-9 17 16 19 15 29 -3 6 -12 21 -22 33 -24 27 -4 82 -87 72 -111 -3 -9 -15 -15
-27 -14 -20 2 -22 -3 -22 -60 0 -36 -5 -67 -12 -74 -7 -7 -13 -25 -13 -40 0
-34 -13 -43 -38 -28 -15 9 -27 9 -52 0 -18 -6 -34 -10 -36 -9 -9 10 -5 77 5
97 8 15 9 27 3 33 -15 15 -52 -9 -52 -32 0 -13 -7 -20 -20 -20 -24 0 -26 13
-4 31 29 24 54 98 54 158 0 51 -4 61 -35 95 -28 31 -34 44 -29 65 8 33 23 51
49 61 30 13 32 12 56 -22z m266 -44 c28 -17 37 -48 23 -74 -12 -23 1 -50 25
-50 7 0 18 -7 25 -15 10 -12 10 -18 0 -30 -8 -10 -10 -30 -6 -60 7 -41 5 -46
-18 -56 -21 -10 -25 -18 -23 -50 1 -34 4 -39 24 -39 13 0 26 7 29 15 8 21 21
19 29 -5 6 -20 -25 -102 -43 -114 -18 -11 -82 23 -82 44 0 13 -7 20 -20 20
-14 0 -22 11 -30 43 -6 23 -15 54 -20 69 -7 21 -5 29 12 40 30 20 39 88 18
136 -16 35 -63 84 -92 95 -9 3 -5 11 12 23 46 35 90 37 137 8z m-1017 -21 c0
-5 -7 -16 -15 -27 -10 -13 -11 -24 -5 -37 14 -26 13 -29 -17 -29 -21 0 -24 3
-15 12 7 7 12 29 12 50 0 31 4 38 20 38 11 0 20 -3 20 -7z m-70 -171 c0 -18
-36 -40 -72 -44 -32 -3 -35 -2 -27 14 5 10 22 20 37 24 15 3 32 7 37 9 18 6
25 5 25 -3z m120 -21 c5 -11 10 -29 10 -40 0 -12 11 -26 28 -35 43 -22 57 -43
42 -61 -15 -18 -30 -11 -30 16 0 21 1 21 -54 24 -29 2 -46 10 -63 29 -13 15
-20 32 -16 38 4 7 9 3 14 -10 9 -23 33 -29 44 -12 4 6 2 17 -4 24 -12 14 -5
46 10 46 4 0 13 -9 19 -19z m-114 -93 c4 -5 -7 -8 -24 -8 -40 0 -43 -24 -4
-44 l27 -15 -27 -1 c-17 0 -35 10 -52 31 -14 17 -26 34 -26 38 0 9 96 8 106
-1z m658 -63 c-16 -25 -42 -36 -28 -12 14 23 27 37 35 37 5 0 2 -11 -7 -25z
m-559 -33 c-26 -6 -45 6 -45 28 0 20 0 20 31 -2 24 -18 27 -24 14 -26z m105
12 c0 -8 -5 -12 -10 -9 -6 4 -8 11 -5 16 9 14 15 11 15 -7z m1937 -44 c34 -20
157 -40 250 -40 40 0 53 4 53 15 0 9 9 15 21 15 38 0 18 -34 -24 -41 -44 -7
-52 -13 -43 -34 4 -12 10 -14 25 -5 28 14 51 13 51 -4 0 -9 -15 -17 -40 -21
-46 -8 -54 -25 -11 -25 27 0 28 -1 18 -24 -11 -22 -18 -25 -62 -23 -43 2 -50
0 -48 -17 1 -16 -4 -17 -39 -12 -64 10 -138 51 -203 110 -59 55 -74 89 -17 41
34 -29 50 -31 59 -9 4 10 -8 30 -33 55 -37 38 -37 39 -14 39 14 0 39 -9 57
-20z m-1877 -17 c2 -2 4 -27 5 -56 0 -51 0 -52 -30 -52 -29 0 -30 2 -35 53 -3
29 -1 57 4 62 9 9 43 5 56 -7z m318 0 c34 -29 30 -104 -6 -118 -25 -10 -42 22
-42 82 0 58 12 67 48 36z m207 -86 c3 -57 2 -58 -24 -55 -23 3 -26 8 -29 47
-4 57 3 73 30 69 19 -3 22 -10 23 -61z m127 -14 c-2 -24 -8 -40 -13 -37 -10 6
-12 77 -2 88 13 13 20 -10 15 -51z m2324 11 c-22 -8 -41 -12 -44 -9 -7 6 39
24 63 24 11 0 3 -7 -19 -15z m-176 -65 l-64 -30 -236 -4 c-136 -3 -229 -1
-220 4 17 10 109 18 345 31 88 4 174 13 190 18 57 19 50 11 -15 -19z m-2735
-8 c26 -1 28 -3 12 -12 -20 -12 -112 -4 -137 11 -13 8 3 8 125 1z m80 -21 c-3
-5 -13 -6 -21 -3 -12 4 -13 8 -3 14 15 9 32 2 24 -11z m219 -7 c15 -12 36 -25
47 -28 26 -9 13 -27 -14 -20 -87 23 -97 28 -97 52 0 28 24 27 64 -4z m674 -4
c-2 -6 -7 -10 -11 -10 -4 1 -26 2 -49 2 l-43 2 40 7 c61 11 67 11 63 -1z
m1982 2 c0 -9 -84 -31 -117 -31 -29 0 -5 12 49 26 67 16 68 16 68 5z m-1250
-35 c0 -37 -14 -48 -45 -35 -18 7 -18 8 -2 8 10 1 17 7 15 14 -7 20 -220 22
-257 2 -44 -22 -60 -18 -28 9 26 21 39 23 155 25 69 1 128 4 131 6 15 16 31 1
31 -29z m147 4 c21 -1 65 -7 98 -15 33 -8 77 -12 98 -8 32 5 37 3 37 -14 0
-11 -6 -38 -14 -59 -7 -22 -16 -75 -20 -119 -4 -44 -12 -100 -17 -124 -11 -51
-22 -140 -23 -188 0 -23 8 -40 30 -60 43 -41 144 -98 209 -118 32 -10 71 -28
89 -40 17 -11 52 -30 79 -40 26 -11 60 -30 75 -42 27 -23 27 -23 7 -39 -14
-10 -32 -14 -58 -11 -48 7 -54 13 -39 37 9 15 9 20 1 20 -7 0 -17 8 -24 17
-11 14 -16 15 -44 3 -17 -7 -42 -26 -54 -42 -16 -20 -29 -27 -40 -22 -22 8
-22 21 1 29 9 3 31 17 47 31 l30 26 -35 -7 c-94 -19 -143 -15 -133 11 3 9 -2
14 -15 14 -25 0 -39 -19 -22 -30 22 -13 7 -44 -22 -47 -15 -1 -30 2 -33 7 -9
15 24 77 45 83 23 6 28 27 6 27 -9 0 -12 7 -9 20 7 26 -11 26 -48 -1 -28 -20
-39 -49 -19 -49 5 0 2 -16 -7 -35 -17 -36 -52 -51 -38 -17 13 34 9 37 -48 40
-55 3 -60 1 -91 -31 -18 -19 -45 -41 -61 -49 -28 -15 -30 -14 -63 18 l-34 33
17 44 c9 24 15 52 13 63 -2 14 5 20 26 24 36 6 50 33 15 29 -13 -2 -25 0 -26
4 -7 20 0 27 27 27 34 0 34 -1 20 34 -6 16 -17 26 -30 26 -11 0 -20 5 -20 10
0 6 11 10 25 10 16 0 25 6 25 15 0 8 -9 15 -20 15 -24 0 -27 28 -3 45 18 13
10 35 -13 35 -8 0 -14 5 -14 10 0 6 11 10 24 10 33 0 42 45 12 66 -20 15 -19
15 20 9 27 -4 44 -2 49 5 10 17 0 23 -48 29 -47 7 -54 28 -7 23 34 -4 50 19
30 43 -10 13 -8 15 13 15 14 0 29 5 32 10 8 13 -19 58 -49 82 -11 10 -16 18
-9 18 6 0 15 -4 18 -10 10 -15 55 -12 61 5 4 10 20 15 45 15 53 0 49 15 -8 29
-56 14 -162 62 -163 74 0 4 13 1 30 -8 16 -8 46 -15 67 -15z m255 8 c-9 -9
-15 -9 -24 0 -9 9 -7 12 12 12 19 0 21 -3 12 -12z m-2514 -21 c3 -12 -3 -17
-22 -17 -29 0 -44 19 -25 31 20 13 43 6 47 -14z m4357 3 c6 -1 -15 -8 -45 -16
-30 -8 -59 -19 -64 -24 -6 -6 -26 -10 -45 -10 -19 0 -61 -7 -93 -16 -47 -14
-56 -19 -47 -30 9 -11 7 -14 -10 -14 -12 0 -20 4 -17 9 8 12 -17 21 -57 21
l-32 1 35 19 c23 13 55 19 95 20 36 0 87 9 127 24 57 20 93 23 153 16z m-3459
-31 c13 -13 24 -27 24 -33 0 -5 -9 0 -20 12 -11 12 -38 26 -60 32 -50 13 -52
25 -4 17 20 -4 47 -16 60 -28z m374 21 c0 -5 -13 -10 -30 -10 -16 0 -30 5 -30
10 0 6 14 10 30 10 17 0 30 -4 30 -10z m-95 -46 c19 -7 19 -8 -4 -12 -12 -2
-34 -1 -48 3 -20 5 -23 9 -13 20 8 9 17 11 28 5 10 -5 26 -12 37 -16z m177
-35 c-6 -52 -19 -62 -72 -55 -25 4 -76 8 -115 9 -43 2 -82 9 -102 20 -47 25
-49 36 -5 26 65 -16 182 -21 182 -8 0 8 7 6 18 -4 24 -22 72 -23 72 -2 0 8 -7
15 -15 15 -15 0 -21 21 -9 33 4 4 16 5 28 3 17 -3 20 -9 18 -37z m673 34 c61
-6 65 -8 34 -13 -20 -4 -67 -3 -105 1 -38 4 -95 5 -126 2 -40 -4 -58 -2 -58 6
0 13 142 15 255 4z m675 -3 c0 -5 -7 -10 -15 -10 -8 0 -15 5 -15 10 0 6 7 10
15 10 8 0 15 -4 15 -10z m-510 -16 c0 -2 -7 -4 -15 -4 -8 0 -15 4 -15 10 0 5
7 7 15 4 8 -4 15 -8 15 -10z m1144 -43 c-9 -10 -154 -11 -154 -1 0 5 21 12 48
15 26 4 52 8 57 9 14 4 56 -16 49 -23z m-1239 -6 c0 -15 -6 -19 -24 -17 -27 3
-51 19 -51 34 0 5 17 8 38 6 29 -3 37 -8 37 -23z m637 12 c6 -9 8 -9 8 1 0 8
17 12 49 12 41 0 51 -4 56 -20 10 -32 39 -41 142 -42 115 -2 156 -17 127 -49
-9 -10 -36 -21 -59 -25 -52 -7 -74 2 -48 21 25 19 8 31 -21 15 -20 -10 -36
-10 -88 0 -34 7 -74 14 -88 15 -14 2 -25 4 -25 5 0 3 -58 7 -102 9 -26 1 -31
4 -26 19 6 15 3 14 -17 -3 l-23 -20 7 28 c4 19 3 26 -4 22 -5 -3 -10 -12 -10
-20 0 -17 -18 -23 -55 -16 -23 5 -31 12 -33 31 l-3 25 103 2 c72 2 104 -1 110
-10z m-542 -28 c0 -5 -7 -9 -15 -9 -9 0 -15 9 -15 21 0 18 2 19 15 9 8 -7 15
-16 15 -21z m1780 21 c0 -5 -17 -9 -37 -9 -38 1 -38 1 -8 9 43 11 45 11 45 0z
m-758 -82 c14 -21 18 -21 101 -12 67 7 87 7 87 -3 0 -6 -8 -12 -17 -12 -166
-3 -198 0 -215 19 -18 19 -16 22 23 29 4 0 13 -9 21 -21z m228 -20 c0 -12 -3
-18 -7 -14 -11 10 -12 36 -2 36 5 0 9 -10 9 -22z m930 -253 c0 -8 -4 -15 -9
-15 -13 0 -22 16 -14 24 11 11 23 6 23 -9z m36 -32 c-10 -10 -19 5 -10 18 6
11 8 11 12 0 2 -7 1 -15 -2 -18z m-316 1 c0 -17 -22 -14 -28 4 -2 7 3 12 12
12 9 0 16 -7 16 -16z m519 -23 c-14 -4 -30 19 -22 33 3 5 12 1 20 -10 10 -13
10 -20 2 -23z m-149 14 c10 -12 10 -15 -4 -15 -9 0 -16 7 -16 15 0 8 2 15 4
15 2 0 9 -7 16 -15z m-329 -8 c-1 -12 -15 -9 -19 4 -3 6 1 10 8 8 6 -3 11 -8
11 -12z m49 -23 c0 -8 -4 -14 -10 -14 -5 0 -10 9 -10 21 0 11 5 17 10 14 6 -3
10 -13 10 -21z m330 -5 c0 -6 -4 -7 -10 -4 -5 3 -10 11 -10 16 0 6 5 7 10 4 6
-3 10 -11 10 -16z m140 11 c0 -5 -2 -10 -4 -10 -3 0 -8 5 -11 10 -3 6 -1 10 4
10 6 0 11 -4 11 -10z m-620 -10 c0 -5 -2 -10 -4 -10 -3 0 -8 5 -11 10 -3 6 -1
10 4 10 6 0 11 -4 11 -10z m198 -13 c2 -10 -3 -17 -12 -17 -10 0 -16 9 -16 21
0 24 23 21 28 -4z m-288 -8 c0 -6 -4 -7 -10 -4 -5 3 -10 11 -10 16 0 6 5 7 10
4 6 -3 10 -11 10 -16z m333 -15 c-3 -8 -9 -14 -13 -14 -14 0 -22 20 -16 37 5
12 9 13 21 3 7 -6 11 -18 8 -26z m142 26 c3 -5 -1 -10 -9 -10 -9 0 -16 5 -16
10 0 6 4 10 9 10 6 0 13 -4 16 -10z m145 0 c0 -5 -4 -10 -10 -10 -5 0 -10 5
-10 10 0 6 5 10 10 10 6 0 10 -4 10 -10z m-3762 -7 c-1 -5 3 -18 10 -30 11
-19 9 -29 -6 -60 l-19 -36 -6 34 c-5 29 -4 56 2 92 0 4 6 7 11 7 6 0 9 -3 8
-7z m622 -31 c0 -13 -3 -12 -20 3 -11 10 -17 22 -14 27 8 12 34 -11 34 -30z
m2385 20 c0 -18 -20 -15 -23 4 -3 10 1 15 10 12 7 -3 13 -10 13 -16z m175 -7
c0 -8 -4 -15 -10 -15 -5 0 -10 7 -10 15 0 8 5 15 10 15 6 0 10 -7 10 -15z
m333 9 c8 -8 -3 -34 -14 -34 -5 0 -9 9 -9 20 0 19 11 26 23 14z m147 -15 c0
-6 -4 -7 -10 -4 -5 3 -10 11 -10 16 0 6 5 7 10 4 6 -3 10 -11 10 -16z m-3140
-7 c0 -13 -12 -22 -22 -16 -10 6 -1 24 13 24 5 0 9 -4 9 -8z m2718 -21 c3 -16
-1 -22 -10 -19 -7 3 -15 15 -16 27 -3 16 1 22 10 19 7 -3 15 -15 16 -27z m332
-3 c0 -26 -24 -18 -28 10 -3 16 1 20 12 16 9 -3 16 -15 16 -26z m-190 2 c0 -5
-2 -10 -4 -10 -3 0 -8 5 -11 10 -3 6 -1 10 4 10 6 0 11 -4 11 -10z m528 -8 c3
-9 -2 -13 -14 -10 -9 1 -19 9 -22 16 -3 9 2 13 14 10 9 -1 19 -9 22 -16z
m-618 -17 c0 -28 -12 -32 -30 -10 -14 16 -6 35 16 35 8 0 14 -10 14 -25z m138
1 c3 -13 -1 -17 -14 -14 -11 2 -20 11 -22 22 -3 13 1 17 14 14 11 -2 20 -11
22 -22z m187 4 c0 -7 -6 -15 -12 -17 -8 -3 -13 4 -13 17 0 13 5 20 13 18 6 -3
12 -11 12 -18z m-3035 -4 c0 -18 -16 -29 -30 -21 -13 8 -1 35 16 35 8 0 14 -6
14 -14z m2555 4 c3 -5 2 -10 -4 -10 -5 0 -13 5 -16 10 -3 6 -2 10 4 10 5 0 13
-4 16 -10z m825 -11 c0 -5 -7 -9 -15 -9 -8 0 -15 7 -15 15 0 9 6 12 15 9 8 -4
15 -10 15 -15z m-630 -15 c0 -16 -16 -19 -25 -4 -8 13 4 32 16 25 5 -4 9 -13
9 -21z m135 -2 c0 -31 -19 -28 -23 4 -3 18 0 25 10 22 7 -3 13 -14 13 -26z
m200 18 c3 -5 15 -10 26 -10 14 0 19 -7 19 -30 0 -33 -19 -41 -27 -11 -3 12
-11 17 -23 14 -21 -5 -34 11 -26 32 6 17 22 20 31 5z m145 0 c0 -5 -4 -10 -10
-10 -5 0 -10 5 -10 10 0 6 5 10 10 10 6 0 10 -4 10 -10z m-297 -16 c8 -8 -3
-34 -14 -34 -5 0 -9 9 -9 20 0 19 11 26 23 14z m487 -13 c0 -11 3 -26 6 -35 3
-9 2 -16 -4 -16 -12 0 -33 56 -25 64 12 12 23 6 23 -13z m-2002 -16 c11 -23
10 -24 -8 -13 -11 7 -20 18 -20 25 0 22 16 14 28 -12z m1902 -1 c0 -16 -16
-19 -25 -4 -8 13 4 32 16 25 5 -4 9 -13 9 -21z m-345 6 c3 -5 1 -10 -4 -10 -6
0 -11 5 -11 10 0 6 2 10 4 10 3 0 8 -4 11 -10z m202 -6 c8 -21 -13 -42 -28
-27 -13 13 -5 43 11 43 6 0 13 -7 17 -16z m-3804 -28 c7 -16 -1 -26 -20 -26
-7 0 -13 9 -13 20 0 23 25 27 33 6z m3852 4 c3 -5 -1 -10 -10 -10 -9 0 -13 5
-10 10 3 6 8 10 10 10 2 0 7 -4 10 -10z m-3645 -85 c0 -7 -6 -18 -14 -25 -8
-6 -16 -21 -18 -32 -2 -13 -16 -24 -40 -33 l-38 -13 0 45 c0 36 6 50 30 74 28
29 30 29 55 13 14 -9 25 -22 25 -29z m1350 5 c0 -5 -4 -10 -10 -10 -5 0 -10 5
-10 10 0 6 5 10 10 10 6 0 10 -4 10 -10z m-2275 -20 c-10 -11 -25 -20 -34 -20
-12 0 -9 6 9 20 33 26 48 26 25 0z m2556 -31 l-10 -24 0 26 c-1 14 2 29 6 33
12 12 14 -9 4 -35z m167 19 c-7 -13 -14 -25 -15 -27 -1 -1 -7 0 -13 4 -8 5 -6
13 6 26 24 26 37 24 22 -3z m360 -11 c2 -10 -3 -17 -11 -17 -18 0 -39 24 -30
34 12 12 38 2 41 -17z m-690 -13 c15 -4 22 -14 22 -30 0 -24 26 -45 48 -37 6
3 12 14 12 26 0 11 3 18 6 15 3 -4 6 -10 6 -15 0 -32 70 -46 86 -17 8 14 12
14 30 3 30 -19 28 -29 -6 -29 -35 0 -72 -26 -72 -51 0 -17 -3 -18 -21 -7 -18
12 -23 10 -45 -17 -13 -16 -24 -28 -25 -25 0 3 -1 17 -3 31 -2 35 -33 79 -54
79 -14 0 -18 9 -19 40 -2 42 -1 43 35 34z m-2483 -23 c3 -5 1 -12 -5 -16 -5
-3 -10 1 -10 9 0 18 6 21 15 7z m2019 -28 c9 -22 -5 -34 -32 -27 -21 6 -29 24
-15 37 12 13 41 7 47 -10z m800 -5 c17 -53 16 -67 -5 -73 -30 -10 -87 48 -69
70 15 18 69 20 74 3z m-2044 -29 c1 -64 -2 -89 -11 -94 -15 -10 -23 26 -11 46
7 10 12 33 12 51 0 17 2 29 5 26 3 -2 5 -15 5 -29z m-740 -5 c0 -3 -9 -17 -19
-30 -21 -27 -35 -13 -19 19 8 16 38 25 38 11z m615 -10 c15 -15 14 -18 -7 -41
-25 -26 -55 -27 -72 -1 -8 13 -6 22 8 37 23 25 49 27 71 5z m1085 -23 c0 -20
-13 -35 -23 -25 -7 8 4 44 14 44 5 0 9 -9 9 -19z m725 -2 c16 -16 -9 -44 -42
-47 -18 -2 -35 3 -44 14 -12 14 -10 19 10 35 23 19 54 18 76 -2z m-1628 -11
c-3 -8 -6 -5 -6 6 -1 11 2 17 5 13 3 -3 4 -12 1 -19z m1895 -30 c-9 -9 -12 -4
-11 23 0 32 1 33 11 11 8 -17 8 -26 0 -34z m-2662 8 c0 -3 -4 -8 -10 -11 -5
-3 -10 -1 -10 4 0 6 5 11 10 11 6 0 10 -2 10 -4z m2804 -11 c7 -20 -3 -45 -19
-45 -18 0 -48 37 -40 49 9 16 52 13 59 -4z m-2594 -27 c0 -47 -11 -79 -24 -75
-16 5 -19 45 -6 78 16 38 30 37 30 -3z m411 -37 c-6 -11 -8 -27 -5 -35 3 -9 1
-16 -5 -16 -6 0 -11 16 -11 35 0 22 -6 38 -17 44 -16 9 -16 10 -2 11 9 0 23 8
30 17 13 15 14 14 17 -10 2 -14 -2 -35 -7 -46z m1269 -12 c-8 -14 -15 -18 -22
-11 -7 7 -4 24 8 53 l19 42 3 -31 c2 -17 -2 -41 -8 -53z m-1792 59 c19 -19 14
-30 -8 -18 -11 6 -20 15 -20 20 0 14 14 12 28 -2z m1723 -10 c11 -21 11 -22
-4 -9 -10 7 -17 17 -17 22 0 15 9 10 21 -13z m499 -12 c23 -1 23 -3 7 -46 -13
-33 -43 -43 -32 -11 7 22 -19 41 -54 41 -27 0 -27 14 2 33 20 13 24 13 39 0
10 -9 27 -16 38 -17z m263 9 c34 -30 28 -45 -20 -45 -22 0 -45 -8 -57 -19 -20
-18 -118 -36 -130 -24 -3 3 1 14 8 25 8 11 12 27 9 38 -8 30 14 32 41 3 22
-24 29 -26 44 -15 9 6 27 16 40 22 12 5 22 16 22 25 0 21 10 18 43 -10z m-575
-11 c21 -6 32 -34 13 -34 -23 0 -62 21 -56 30 7 12 12 12 43 4z m717 -14 c10
-11 16 -20 14 -21 -65 -9 -79 -7 -79 10 0 36 36 43 65 11z m-2637 -19 c17 -7
32 -17 32 -22 0 -12 -6 -11 -31 4 -18 10 -23 9 -40 -15 -24 -32 -39 -36 -39
-10 0 20 29 65 38 59 4 -2 22 -9 40 -16z m1232 -44 c0 -5 -4 -5 -10 -2 -5 3
-10 14 -10 23 0 15 2 15 10 2 5 -8 10 -19 10 -23z m-885 -9 c-4 -38 -5 -39
-15 -33 -11 7 -14 48 -4 58 12 11 21 -2 19 -25z m745 -9 c0 -20 -15 -26 -25
-9 -9 15 3 43 15 35 5 -3 10 -15 10 -26z m560 17 c0 -8 -4 -18 -10 -21 -5 -3
-10 3 -10 14 0 12 5 21 10 21 6 0 10 -6 10 -14z m170 -6 c0 -4 -18 -15 -39
-23 -22 -9 -42 -21 -46 -27 -9 -15 -22 -12 -29 6 -9 24 12 44 45 44 15 0 30 4
34 10 6 10 35 2 35 -10z m64 11 c8 -13 -3 -19 -24 -14 -11 3 -17 9 -14 14 7
11 31 12 38 0z m603 -16 c3 -9 3 -18 0 -21 -7 -8 -47 15 -47 26 0 16 40 11 47
-5z m-1186 -38 c-7 -7 -20 -6 -38 2 -27 12 -27 13 -9 27 17 12 22 12 38 -3 12
-11 15 -20 9 -26z m-719 -25 c12 -31 8 -42 -16 -42 -30 0 -34 6 -41 60 l-5 42
27 -22 c16 -12 31 -29 35 -38z m1438 48 c0 -5 -4 -10 -10 -10 -5 0 -10 5 -10
10 0 6 5 10 10 10 6 0 10 -4 10 -10z m-1332 -8 c16 -11 1 -57 -23 -65 -20 -8
-29 14 -21 48 7 26 21 31 44 17z m822 -7 c17 -20 5 -31 -43 -39 -34 -6 -38 -5
-35 11 2 9 14 23 28 30 32 16 35 16 50 -2z m1130 -4 c6 -13 6 -22 1 -26 -9 -5
-31 24 -31 39 0 14 20 4 30 -13z m-2660 -20 c0 -36 13 -46 39 -31 14 7 27 7
45 -2 35 -15 33 -26 -6 -30 -25 -2 -34 -8 -36 -25 -3 -23 -17 -28 -46 -17 -13
5 -14 9 -4 21 10 12 9 17 -3 27 -22 16 -30 45 -19 67 16 28 30 23 30 -10z
m150 14 c11 -13 8 -15 -13 -15 -26 0 -42 12 -30 24 11 11 30 7 43 -9z m900 0
c9 -11 10 -19 3 -26 -7 -7 -14 -5 -23 6 -7 8 -19 15 -26 15 -8 0 -14 5 -14 10
0 16 46 12 60 -5z m194 -17 c14 -19 14 -23 -2 -34 -13 -10 -14 -15 -5 -25 10
-10 16 -9 31 5 16 13 24 15 48 6 22 -9 31 -8 39 3 8 11 16 11 38 2 27 -11 61
-58 49 -69 -3 -3 -80 -6 -172 -5 -158 0 -166 1 -166 20 0 21 35 36 61 26 23
-9 48 22 41 53 -8 44 13 54 38 18z m974 5 c-2 -12 -12 -18 -28 -18 -16 0 -26
6 -28 18 -3 13 3 17 28 17 25 0 31 -4 28 -17z m-1068 -3 c0 -5 -4 -10 -10 -10
-5 0 -10 5 -10 10 0 6 5 10 10 10 6 0 10 -4 10 -10z m510 0 c0 -5 -4 -10 -10
-10 -5 0 -10 5 -10 10 0 6 5 10 10 10 6 0 10 -4 10 -10z m234 -1 c19 -9 29 -9
39 -1 10 8 24 8 52 1 21 -6 51 -8 67 -5 15 3 28 1 28 -4 0 -6 -15 -10 -34 -10
-41 0 -68 -26 -46 -44 14 -11 40 -50 40 -61 0 -3 -20 -5 -43 -5 -36 0 -46 4
-55 24 -6 13 -8 34 -5 46 5 19 2 21 -23 18 -27 -3 -29 -6 -28 -46 1 -38 -1
-43 -20 -40 -14 2 -22 12 -26 33 -4 22 -11 31 -29 33 -35 5 -48 -13 -26 -38
18 -20 18 -20 -26 -20 -35 1 -40 3 -26 11 27 16 22 49 -8 49 -29 0 -50 -31
-33 -48 9 -9 -7 -12 -67 -12 -77 0 -78 0 -61 19 10 11 23 18 30 15 7 -3 25 7
40 21 22 20 35 25 56 20 17 -4 31 -1 39 9 11 13 17 13 46 0 20 -8 47 -11 64
-8 41 8 41 34 0 34 -17 0 -28 4 -24 10 8 13 48 13 79 -1z m556 -8 c14 -27 14
-28 -20 -27 -16 1 -30 2 -30 4 0 11 22 42 30 42 5 0 14 -9 20 -19z m-1952 -19
c4 -29 -26 -42 -44 -18 -17 24 -6 48 20 44 13 -2 22 -12 24 -26z m2129 2 c-6
-6 -47 9 -47 17 0 5 11 3 25 -3 14 -6 24 -13 22 -14z m-1847 -6 c0 -6 7 -20
17 -30 19 -22 9 -37 -15 -22 -19 12 -29 64 -13 64 6 0 11 -5 11 -12z m814 3
c3 -5 -1 -12 -10 -15 -20 -8 -29 -1 -19 13 8 13 22 14 29 2z m-1357 -20 c22
-23 95 -33 120 -17 14 9 26 9 52 0 32 -10 33 -12 15 -21 -10 -6 -73 -11 -139
-11 l-120 -1 -1 29 c-1 41 42 53 73 21z m709 7 c8 -13 -22 -38 -48 -38 -23 0
-23 26 0 39 23 14 39 14 48 -1z m134 -17 c0 -11 -69 -20 -76 -10 -2 4 2 10 8
12 22 9 68 7 68 -2z m-455 -31 c3 -5 -1 -10 -9 -10 -9 0 -16 5 -16 10 0 6 4
10 9 10 6 0 13 -4 16 -10z m115 -15 c24 -14 24 -14 -22 -15 -45 0 -57 7 -41
23 10 11 36 8 63 -8z m786 0 c18 -14 17 -14 -13 -15 -25 0 -31 4 -27 15 8 19
15 19 40 0z"/>
<path d="M3441 7728 c-28 -72 -54 -147 -58 -171 -7 -36 -32 -46 -132 -53 -108
-8 -121 -11 -121 -34 0 -24 26 -41 107 -70 84 -30 90 -38 68 -97 -32 -91 -40
-132 -26 -146 8 -8 16 -8 25 -2 8 6 55 38 106 73 88 60 93 62 118 48 45 -24
152 -66 168 -66 20 0 10 38 -30 114 l-30 58 34 29 c19 16 54 43 78 60 44 32
51 49 28 68 -11 9 -33 10 -91 2 -42 -6 -85 -11 -96 -11 -19 0 -60 54 -74 100
-4 14 -16 36 -26 49 -11 13 -19 32 -19 42 0 28 -19 33 -29 7z m49 -128 c29
-57 26 -70 -14 -70 -19 0 -37 4 -41 9 -7 12 17 101 27 101 4 0 17 -18 28 -40z
m218 -102 c-3 -7 -22 -25 -44 -40 l-39 -27 -17 20 c-36 42 -21 56 60 58 31 1
42 -3 40 -11z m-144 -52 l19 -39 -24 -19 c-13 -10 -40 -27 -60 -38 -34 -18
-36 -18 -76 0 -52 23 -55 28 -39 73 16 48 24 55 66 60 78 10 94 5 114 -37z
m-220 -20 c-8 -32 -18 -32 -80 -4 l-49 23 52 5 c28 3 55 9 59 13 14 13 25 -10
18 -37z m282 -108 c21 -40 7 -52 -39 -33 -48 20 -52 30 -20 53 32 23 38 22 59
-20z m-214 6 l30 -16 -23 -25 c-22 -23 -69 -53 -84 -53 -7 0 1 28 21 78 15 37
15 37 56 16z"/>
<path d="M2241 7441 c-14 -4 -27 -13 -29 -20 -4 -11 3 -13 25 -8 17 3 43 3 59
-2 27 -7 28 -8 6 -13 -25 -7 -30 -36 -7 -44 19 -8 48 15 41 31 -2 7 1 18 7 24
9 10 7 16 -7 27 -21 15 -54 17 -95 5z"/>
<path d="M2217 7376 c-7 -17 11 -36 34 -36 12 0 15 6 11 25 -5 27 -36 35 -45
11z"/>
<path d="M2413 7225 c-3 -9 -3 -18 0 -22 10 -10 37 6 37 22 0 20 -29 20 -37 0z"/>
<path d="M2373 7143 c-49 -17 -56 -33 -14 -33 15 0 43 -5 61 -11 27 -10 30
-13 16 -21 -21 -12 -11 -28 16 -28 13 0 18 5 15 14 -3 7 3 20 14 29 26 23 24
42 -6 55 -33 15 -49 14 -102 -5z"/>
<path d="M2003 6433 c-22 -8 -14 -20 29 -42 50 -25 69 -15 44 23 -16 25 -43
32 -73 19z"/>
<path d="M2115 6390 c-10 -16 12 -38 50 -51 19 -7 36 -21 38 -31 3 -10 21 -25
40 -33 19 -8 37 -22 41 -31 4 -9 5 -17 4 -18 -2 -1 -17 -8 -34 -17 -31 -16
-32 -16 -43 7 -14 31 -32 30 -61 -1 -32 -34 -42 -31 -34 10 5 28 3 35 -10 35
-8 0 -23 -12 -33 -27 -10 -16 -30 -40 -45 -55 -46 -43 -34 -88 23 -88 12 0 19
-7 19 -20 0 -32 32 -42 67 -20 36 22 43 14 43 -46 0 -37 18 -45 40 -19 10 12
10 24 -1 61 -18 59 -32 71 -66 55 -22 -10 -27 -9 -40 9 -8 11 -25 20 -39 20
-15 0 -24 6 -24 16 0 13 7 15 39 9 22 -4 48 -2 59 4 15 8 23 7 31 -3 20 -24
50 -25 84 -2 40 28 111 39 160 25 26 -7 40 -19 54 -49 20 -39 20 -39 -1 -59
-26 -27 -14 -38 19 -17 l25 16 0 -40 c0 -22 1 -43 3 -47 1 -5 -9 -10 -23 -11
-14 -2 -34 -12 -45 -23 -12 -10 -35 -24 -53 -30 -18 -6 -31 -16 -29 -22 6 -20
23 -18 61 8 20 14 49 25 65 25 43 0 70 36 68 92 -2 36 3 52 21 70 26 29 28 48
5 48 -13 0 -14 3 -5 12 15 15 49 -14 54 -46 2 -13 10 -21 23 -21 17 0 20 6 17
45 -2 24 3 55 9 68 18 32 -3 53 -29 28 -11 -9 -33 -18 -50 -21 -17 -2 -45 -12
-62 -22 -31 -18 -31 -18 -48 3 -22 27 -107 54 -151 47 -24 -4 -32 -2 -27 6 4
6 12 9 17 6 15 -10 23 24 11 50 -6 14 -26 28 -49 35 -21 7 -43 17 -50 22 -12
9 -112 48 -125 48 -4 0 -10 -5 -13 -10z m445 -275 c-7 -8 -16 -12 -21 -9 -13
8 -1 24 18 24 13 0 13 -3 3 -15z"/>
<path d="M2310 5655 c-10 -12 -9 -16 4 -21 26 -10 86 5 86 21 0 20 -73 20 -90
0z"/>
<path d="M1727 5679 c6 -6 9 -17 7 -24 -6 -14 49 -190 73 -239 22 -42 41 -18
20 26 -21 46 -47 125 -47 146 -1 28 -38 102 -52 102 -9 0 -9 -3 -1 -11z"/>
<path d="M2075 2861 c-8 -17 -18 -52 -21 -78 -5 -39 -15 -57 -50 -93 -23 -25
-52 -67 -64 -94 -18 -43 -19 -51 -6 -64 13 -13 18 -7 46 47 20 41 35 59 43 55
7 -4 9 -4 5 1 -4 4 6 21 23 39 16 17 34 49 39 71 5 22 15 54 21 70 17 46 16
69 -3 73 -11 2 -23 -8 -33 -27z"/>
<path d="M742 2697 c-14 -16 -6 -27 20 -27 13 0 18 6 16 17 -4 22 -22 27 -36
10z"/>
<path d="M767 2593 c-11 -10 -8 -41 4 -49 16 -9 43 21 36 40 -7 16 -28 21 -40
9z"/>
<path d="M824 2565 c-7 -18 3 -35 21 -35 21 0 28 19 15 35 -16 19 -29 19 -36
0z"/>
<path d="M797 2473 c-12 -11 -8 -23 8 -23 8 0 15 7 15 15 0 16 -12 20 -23 8z"/>
<path d="M852 2438 c-14 -14 -16 -28 -2 -28 5 0 14 9 20 20 12 22 1 27 -18 8z"/>
<path d="M501 2621 c-8 -14 -6 -22 8 -35 16 -15 19 -15 36 4 14 16 15 22 5 35
-17 20 -37 19 -49 -4z"/>
<path d="M390 2605 c-10 -12 -10 -19 -1 -28 14 -14 46 2 46 24 0 20 -30 23
-45 4z"/>
<path d="M476 2515 c-18 -19 -19 -25 -7 -43 12 -20 45 -10 49 14 4 31 -22 49
-42 29z"/>
<path d="M397 2486 c-9 -23 19 -41 38 -26 12 10 13 16 4 26 -15 18 -35 18 -42
0z"/>
<path d="M450 2422 c0 -5 13 -21 30 -37 24 -23 30 -25 35 -12 10 25 -13 57
-40 57 -14 0 -25 -4 -25 -8z"/>
<path d="M937 2673 c-13 -12 -7 -44 9 -50 23 -9 48 25 33 44 -12 14 -32 17
-42 6z"/>
<path d="M1007 2454 c-14 -14 -7 -35 11 -32 9 2 17 10 17 17 0 16 -18 25 -28
15z"/>
<path d="M1532 683 c2 -10 14 -19 26 -21 19 -3 23 1 20 15 -2 10 -14 19 -26
21 -19 3 -23 -1 -20 -15z"/>
<path d="M3962 2398 c-7 -7 -12 -22 -12 -34 0 -25 -20 -40 -165 -131 -92 -57
-170 -93 -204 -93 -19 0 -45 -23 -36 -32 8 -8 178 51 199 70 21 18 41 31 174
116 43 27 72 52 72 63 0 9 7 25 17 35 15 17 15 18 -8 18 -14 0 -30 -5 -37 -12z"/>
<path d="M3749 2082 c-42 -32 -142 -89 -182 -103 -51 -18 -41 -35 19 -31 56 4
65 9 44 22 -8 6 -10 10 -4 10 5 0 37 16 70 36 32 20 70 40 84 43 28 8 34 34 9
39 -8 1 -26 -6 -40 -16z"/>
<path d="M4090 2060 c-14 -4 -51 -20 -84 -35 -67 -31 -126 -43 -126 -26 0 6 5
11 10 11 6 0 10 5 10 10 0 21 -79 10 -135 -20 -31 -16 -65 -30 -75 -30 -11 0
-22 -5 -26 -11 -12 -21 82 -4 112 20 35 27 44 27 44 -3 0 -21 -9 -28 -60 -47
-69 -25 -77 -34 -22 -25 48 9 94 27 107 42 6 7 39 20 75 30 36 9 78 23 93 31
64 32 143 51 191 46 33 -4 44 -9 37 -16 -16 -16 -13 -24 9 -30 23 -6 48 17 30
28 -8 5 -5 11 7 21 16 12 6 13 -77 13 -52 0 -106 -4 -120 -9z"/>
<path d="M4140 2015 c-66 -15 -170 -61 -170 -75 0 -14 5 -13 58 15 42 22 83
34 165 50 15 3 27 10 27 15 0 12 -10 12 -80 -5z"/>
<path d="M507 1963 c-30 -8 -8 -23 34 -23 28 0 39 4 37 13 -5 13 -41 18 -71
10z"/>
<path d="M4856 1932 c-2 -4 21 -13 51 -20 56 -12 75 -9 57 7 -13 13 -101 24
-108 13z"/>
<path d="M3227 1923 c-16 -16 -4 -24 30 -21 48 4 57 28 11 28 -19 0 -38 -3
-41 -7z"/>
<path d="M4840 1803 c-35 -5 -60 -18 -60 -33 0 -4 17 -2 38 6 20 7 70 13 110
14 41 0 72 4 72 10 0 10 -88 11 -160 3z"/>
<path d="M392 1780 c-36 -16 -51 -18 -85 -10 -64 15 -107 12 -114 -6 -3 -8 1
-21 8 -28 16 -15 112 -46 143 -46 26 0 80 -39 55 -40 -9 0 -29 -7 -45 -15 -17
-9 -43 -12 -68 -9 -47 6 -72 -7 -63 -30 4 -11 19 -16 42 -16 22 0 34 -4 30
-10 -4 -6 -37 -9 -80 -8 -66 3 -97 -4 -83 -17 2 -3 47 -6 99 -7 100 -2 139 9
139 40 0 26 20 42 53 42 38 0 67 17 67 39 0 10 12 23 27 30 19 9 23 15 15 23
-8 8 -30 8 -82 -2 -59 -11 -74 -11 -95 0 -25 14 -25 14 37 37 58 22 68 23 126
12 49 -9 73 -9 107 1 25 7 45 16 45 20 0 16 -34 20 -67 9 -24 -8 -42 -8 -65 0
-46 16 -98 13 -146 -9z"/>
<path d="M4991 1724 c0 -11 3 -14 6 -6 3 7 2 16 -1 19 -3 4 -6 -2 -5 -13z"/>
<path d="M1607 1693 c-18 -17 10 -37 38 -27 12 5 13 10 4 20 -12 15 -31 18
-42 7z"/>
<path d="M3010 1515 c-17 -21 9 -60 47 -70 22 -5 31 -2 45 15 31 38 23 55 -24
51 -9 -1 -19 3 -23 9 -9 15 -31 12 -45 -5z"/>
<path d="M1921 1511 c-8 -5 -29 -7 -47 -4 -29 5 -35 2 -45 -20 -22 -48 17 -81
42 -35 10 19 12 19 21 5 14 -27 44 -20 66 15 11 18 18 36 16 40 -7 11 -36 10
-53 -1z"/>
<path d="M2620 1505 c-16 -19 -5 -47 17 -43 11 2 18 12 18 27 0 29 -17 37 -35
16z"/>
<path d="M3267 1496 c-9 -22 18 -40 33 -22 6 9 9 20 5 26 -9 15 -32 12 -38 -4z"/>
<path d="M3168 1489 c-24 -14 -23 -49 1 -49 24 0 45 25 37 45 -6 17 -14 18
-38 4z"/>
<path d="M3335 1490 c-3 -5 -4 -14 0 -20 8 -13 35 -1 35 16 0 16 -26 19 -35 4z"/>
<path d="M416 1481 c-11 -17 35 -61 62 -61 15 -1 44 -7 64 -14 31 -11 41 -11
55 0 17 12 16 13 -9 23 -20 8 -28 17 -28 36 0 32 -32 34 -55 3 l-16 -23 -16
23 c-16 22 -47 30 -57 13z"/>
<path d="M1110 1476 c0 -10 9 -16 21 -16 24 0 21 23 -4 28 -10 2 -17 -3 -17
-12z"/>
<path d="M2935 1480 c-7 -11 12 -50 24 -50 15 0 33 29 27 45 -6 17 -41 20 -51
5z"/>
<path d="M315 1470 c3 -5 10 -10 16 -10 5 0 9 5 9 10 0 6 -7 10 -16 10 -8 0
-12 -4 -9 -10z"/>
<path d="M2703 1464 c-4 -11 1 -22 12 -31 16 -11 21 -11 34 1 12 12 12 18 1
30 -16 21 -39 20 -47 0z"/>
<path d="M164 1455 c-9 -21 3 -45 21 -45 21 0 30 27 15 45 -16 19 -29 19 -36
0z"/>
<path d="M1984 1455 c-4 -9 -2 -21 4 -27 16 -16 47 -5 47 17 0 26 -42 34 -51
10z"/>
<path d="M2787 1463 c-13 -12 -7 -31 10 -37 18 -7 47 20 37 35 -6 11 -38 12
-47 2z"/>
<path d="M3404 1436 c-16 -12 -17 -18 -6 -55 9 -28 18 -41 30 -41 10 0 24 -6
31 -12 10 -11 21 -3 56 37 24 28 44 55 45 62 0 22 -23 26 -40 7 -15 -18 -54
-44 -65 -44 -3 0 -5 11 -5 24 0 29 -22 39 -46 22z"/>
<path d="M2111 1426 c-8 -10 -8 -16 2 -25 17 -13 54 10 43 27 -10 16 -31 15
-45 -2z"/>
<path d="M3085 1420 c-8 -26 7 -45 30 -36 21 8 16 50 -7 54 -10 2 -19 -5 -23
-18z"/>
<path d="M3323 1415 c-10 -8 -28 -15 -40 -15 -26 0 -30 -22 -8 -40 12 -10 18
-10 29 -1 11 9 20 9 34 2 24 -13 32 -5 32 30 0 32 -21 43 -47 24z"/>
<path d="M320 1410 c0 -5 5 -10 10 -10 6 0 10 5 10 10 0 6 -4 10 -10 10 -5 0
-10 -4 -10 -10z"/>
<path d="M1805 1401 c-10 -17 4 -31 31 -31 19 0 25 5 22 18 -4 19 -43 29 -53
13z"/>
<path d="M3187 1404 c-14 -14 -7 -25 13 -22 12 2 21 8 21 13 0 12 -24 18 -34
9z"/>
<path d="M177 1374 c-3 -4 -2 -15 4 -26 8 -15 13 -17 25 -7 20 16 17 39 -4 39
-10 0 -22 -3 -25 -6z"/>
<path d="M1697 1374 c-16 -16 -6 -34 19 -34 19 0 25 5 22 17 -3 19 -29 29 -41
17z"/>
<path d="M2040 1363 c-14 -3 -29 -9 -34 -13 -13 -13 14 -42 31 -35 8 3 21 -2
29 -10 19 -18 38 -11 53 21 19 42 -1 51 -79 37z"/>
<path d="M660 1330 c0 -13 5 -20 13 -17 6 2 12 10 12 17 0 7 -6 15 -12 18 -8
2 -13 -5 -13 -18z"/>
<path d="M1915 1340 c-11 -18 13 -36 31 -25 9 6 16 15 17 20 3 14 -40 18 -48
5z"/>
<path d="M498 1296 c-5 -23 7 -46 22 -46 4 0 12 11 18 24 7 17 7 27 -1 35 -18
18 -34 13 -39 -13z"/>
<path d="M3304 1309 c-9 -15 12 -33 30 -26 9 4 16 13 16 22 0 17 -35 21 -46 4z"/>
<path d="M3695 1310 c-9 -15 4 -30 26 -30 12 0 19 7 19 20 0 21 -33 29 -45 10z"/>
<path d="M3765 1310 c-4 -7 -3 -16 3 -22 14 -14 45 -2 40 15 -6 16 -34 21 -43
7z"/>
<path d="M3581 1300 c-8 -4 -10 -13 -7 -19 9 -13 43 -15 51 -2 8 14 -28 31
-44 21z"/>
<path d="M425 1290 c-7 -12 20 -60 34 -60 18 0 29 25 20 48 -9 23 -43 30 -54
12z"/>
<path d="M3852 1288 c5 -15 28 -18 29 -3 0 6 -7 12 -17 13 -10 3 -15 -1 -12
-10z"/>
<path d="M582 1279 c2 -6 8 -10 13 -10 5 0 11 4 13 10 2 6 -4 11 -13 11 -9 0
-15 -5 -13 -11z"/>
<path d="M236 1271 c-4 -7 -5 -15 -2 -18 9 -9 19 4 14 18 -4 11 -6 11 -12 0z"/>
<path d="M325 1270 c-4 -6 -1 -17 5 -26 10 -11 16 -12 26 -3 11 9 11 15 3 25
-14 17 -25 18 -34 4z"/>
<path d="M1586 1271 c-4 -5 -2 -21 4 -36 8 -22 15 -26 35 -22 31 5 42 -8 18
-21 -14 -9 -15 -13 -4 -26 15 -18 56 -22 66 -6 3 5 -3 17 -14 26 -19 17 -19
17 1 45 21 28 18 49 -8 49 -7 0 -19 -9 -26 -20 -7 -11 -16 -20 -19 -20 -4 0
-9 9 -12 20 -5 20 -31 27 -41 11z"/>
<path d="M1968 1263 c-9 -2 -24 -16 -33 -30 l-17 -25 -14 21 c-24 33 -79 22
-57 -11 4 -7 8 -26 9 -41 1 -16 6 -33 12 -39 12 -12 79 0 95 17 9 10 16 9 34
-2 21 -14 24 -13 48 13 14 15 25 31 25 36 0 16 -31 21 -57 9 -27 -12 -26 -14
-7 33 6 15 -12 24 -38 19z"/>
<path d="M3321 1237 c-9 -11 -7 -20 8 -38 19 -23 20 -23 38 -6 14 13 15 21 7
35 -15 22 -38 26 -53 9z"/>
<path d="M3575 1236 c-16 -12 -18 -17 -7 -28 15 -15 47 0 47 22 0 20 -18 22
-40 6z"/>
<path d="M3690 1236 c0 -8 5 -18 12 -22 7 -5 4 -10 -11 -16 -16 -5 -21 -15
-19 -30 4 -28 45 -38 54 -13 6 14 8 14 25 -1 23 -21 49 -12 49 17 0 12 7 27
17 34 23 17 10 47 -19 43 -17 -2 -22 -9 -21 -24 2 -14 -6 -25 -22 -32 -27 -13
-45 2 -26 21 19 19 12 37 -14 37 -15 0 -25 -6 -25 -14z"/>
<path d="M3404 1215 c-7 -27 9 -55 31 -55 19 0 36 55 22 69 -19 19 -46 12 -53
-14z"/>
<path d="M3882 1227 c-19 -22 -18 -58 0 -70 23 -15 37 -1 40 43 3 37 -19 53
-40 27z"/>
<path d="M4180 1224 c0 -9 7 -14 17 -12 25 5 28 28 4 28 -12 0 -21 -6 -21 -16z"/>
<path d="M1516 1212 c-3 -5 4 -22 15 -37 20 -24 23 -25 38 -11 12 13 13 20 5
34 -12 19 -49 28 -58 14z"/>
<path d="M3490 1205 c-16 -19 -6 -45 19 -45 19 0 55 43 44 54 -12 11 -51 6
-63 -9z"/>
<path d="M600 1195 c-7 -9 -7 -15 2 -23 16 -13 75 -9 90 6 11 11 4 13 -64 27
-10 1 -22 -3 -28 -10z"/>
<path d="M1765 1199 c-8 -13 33 -59 52 -59 22 0 27 29 8 50 -20 22 -50 26 -60
9z"/>
<path d="M3971 1184 c-23 -30 -23 -47 1 -52 22 -4 45 22 43 49 -2 33 -20 34
-44 3z"/>
<path d="M4233 1174 c-9 -23 13 -40 32 -24 8 7 15 19 15 26 0 19 -39 18 -47
-2z"/>
<path d="M260 1173 c0 -11 60 -37 67 -29 4 4 2 10 -3 15 -13 12 -64 23 -64 14z"/>
<path d="M1197 1173 c-4 -3 -7 -18 -7 -31 0 -24 1 -24 18 -9 26 24 32 21 32
-16 0 -24 -6 -35 -22 -42 -29 -13 -35 -35 -10 -35 10 0 31 -11 46 -25 31 -28
44 -31 71 -12 14 11 16 21 11 43 -4 16 -7 40 -7 54 0 42 -7 54 -24 40 -12 -10
-16 -8 -25 14 -8 21 -16 26 -43 26 -19 0 -37 -3 -40 -7z m93 -104 c0 -6 -4 -7
-10 -4 -5 3 -10 11 -10 16 0 6 5 7 10 4 6 -3 10 -11 10 -16z"/>
<path d="M394 1155 c-12 -30 1 -50 30 -48 16 1 42 -5 58 -13 31 -16 68 -11 68
11 0 7 -9 15 -21 18 -12 3 -18 10 -15 15 10 17 -18 30 -67 30 -32 1 -50 -3
-53 -13z"/>
<path d="M4130 1161 c-27 -7 -38 -37 -21 -54 7 -7 15 -6 27 4 9 7 25 18 37 24
51 25 21 44 -43 26z"/>
<path d="M4433 1154 c-3 -9 2 -23 11 -32 15 -15 17 -15 33 0 15 16 17 16 29 0
10 -13 17 -15 31 -6 10 6 18 20 18 30 0 16 -9 19 -58 21 -44 2 -59 -1 -64 -13z"/>
<path d="M4684 1154 c-7 -3 -9 -23 -6 -54 2 -28 1 -50 -4 -50 -5 -1 -36 -3
-69 -6 -116 -11 -111 -60 8 -71 71 -6 102 -23 45 -23 -58 -1 -143 -25 -146
-42 -4 -20 46 -38 109 -38 45 0 70 -12 50 -24 -5 -4 -37 -9 -70 -12 -40 -5
-66 -13 -77 -25 -16 -18 -16 -21 6 -45 33 -34 66 -29 62 9 -3 26 -2 27 45 27
l49 0 -4 -40 c-5 -44 10 -70 39 -70 19 0 27 18 31 80 2 28 7 35 23 33 85 -11
177 -15 199 -9 23 6 26 12 26 46 0 22 -4 40 -9 40 -5 0 -11 10 -13 22 -3 26
-43 36 -138 38 -30 0 -62 5 -70 11 -11 7 15 9 87 7 56 -1 105 0 108 4 14 14
-7 28 -42 28 -29 0 -33 3 -24 14 18 22 -8 35 -79 38 -59 3 -65 5 -70 28 -4 14
-5 31 -2 38 5 14 92 17 92 2 0 -5 -16 -10 -36 -10 -55 0 -37 -24 20 -28 35 -2
53 2 67 14 24 21 24 50 2 59 -22 8 -194 16 -209 9z m166 -154 c19 -6 9 -8 -37
-9 -36 -1 -63 3 -63 9 0 12 64 12 100 0z m64 -99 c11 -1 17 -4 14 -7 -8 -8
-168 7 -168 15 0 4 30 4 68 0 37 -5 76 -8 86 -8z m64 -46 c20 -7 14 -25 -13
-35 -16 -6 -56 -5 -112 2 -85 10 -118 22 -108 38 4 7 208 3 233 -5z"/>
<path d="M4575 1140 c-11 -18 13 -36 31 -25 9 6 16 15 17 20 3 14 -40 18 -48
5z"/>
<path d="M4970 1130 c0 -5 4 -10 9 -10 6 0 13 5 16 10 3 6 -1 10 -9 10 -9 0
-16 -4 -16 -10z"/>
<path d="M650 1120 c0 -5 7 -10 15 -10 8 0 15 5 15 10 0 6 -7 10 -15 10 -8 0
-15 -4 -15 -10z"/>
<path d="M717 1123 c-12 -11 -8 -23 8 -23 8 0 15 7 15 15 0 16 -12 20 -23 8z"/>
<path d="M4930 1115 c0 -8 7 -15 15 -15 8 0 15 7 15 15 0 8 -7 15 -15 15 -8 0
-15 -7 -15 -15z"/>
<path d="M1893 1100 c-26 -11 -27 -14 -13 -41 13 -23 55 -25 64 -3 6 16 -9 54
-22 53 -4 0 -17 -4 -29 -9z"/>
<path d="M3355 1101 c-3 -5 -2 -12 2 -14 15 -9 68 -11 81 -3 21 13 3 26 -38
26 -21 0 -41 -4 -45 -9z"/>
<path d="M3825 1103 c-49 -12 -60 -51 -23 -77 23 -16 19 -20 -16 -16 -10 1
-31 -4 -47 -10 -52 -22 -30 -73 36 -86 18 -3 38 -3 44 1 13 8 14 25 2 25 -5 0
-22 5 -37 10 -19 8 -24 14 -17 21 13 13 53 -10 95 -53 14 -16 31 -28 37 -28 6
0 11 -9 11 -20 0 -21 -15 -27 -25 -10 -10 16 -45 12 -52 -6 -3 -9 4 -26 19
-41 21 -21 31 -23 62 -17 39 7 62 40 53 75 -2 9 4 21 14 28 11 6 19 20 19 30
0 10 7 24 16 31 8 8 14 25 12 39 -2 21 -9 27 -34 29 -18 2 -49 -4 -70 -13 -43
-18 -58 -12 -26 11 27 19 29 60 3 74 -20 10 -42 11 -76 3z m45 -44 c0 -5 -4
-9 -10 -9 -5 0 -10 7 -10 16 0 8 5 12 10 9 6 -3 10 -10 10 -16z m103 -80 c-6
-6 -18 -6 -28 -3 -18 7 -18 8 1 14 23 9 39 1 27 -11z m-38 -49 c3 -5 -1 -10
-9 -10 -9 0 -16 5 -16 10 0 6 4 10 9 10 6 0 13 -4 16 -10z"/>
<path d="M4284 1099 c-9 -15 12 -33 30 -26 9 4 16 13 16 22 0 17 -35 21 -46 4z"/>
<path d="M1513 1093 c-13 -3 -25 -14 -29 -27 -6 -26 11 -76 26 -76 7 0 10 -16
8 -41 -4 -49 16 -64 25 -19 4 16 11 30 17 30 6 0 27 12 46 26 45 35 45 66 0
93 -33 21 -48 23 -93 14z m87 -54 c0 -24 -23 -21 -28 4 -2 10 3 17 12 17 10 0
16 -9 16 -21z"/>
<path d="M1656 1081 c-8 -13 3 -38 19 -45 18 -6 39 20 31 39 -6 16 -41 21 -50
6z"/>
<path d="M3500 1080 c-11 -7 -12 -12 -3 -21 14 -14 46 -4 41 13 -6 16 -20 19
-38 8z"/>
<path d="M3593 1063 c-9 -22 12 -37 33 -25 14 8 21 6 30 -6 12 -16 14 -16 30
0 9 9 14 23 11 31 -8 20 -97 20 -104 0z"/>
<path d="M412 1048 c5 -15 37 -18 41 -3 1 6 -9 12 -22 13 -16 3 -22 -1 -19
-10z"/>
<path d="M3308 1032 c-19 -4 -25 -42 -7 -42 16 0 49 20 49 29 0 12 -21 18 -42
13z"/>
<path d="M4177 1034 c-14 -14 -7 -35 11 -32 9 2 17 10 17 17 0 16 -18 25 -28
15z"/>
<path d="M4423 1033 c-7 -3 -13 -11 -13 -18 0 -7 6 -15 13 -18 14 -5 47 10 47
22 0 11 -31 19 -47 14z"/>
<path d="M4970 1016 c0 -9 7 -16 16 -16 17 0 14 22 -4 28 -7 2 -12 -3 -12 -12z"/>
<path d="M3216 1007 c-15 -11 -15 -15 -3 -31 17 -23 47 -15 47 13 0 24 -23 33
-44 18z"/>
<path d="M1074 999 c-10 -17 13 -36 27 -22 12 12 4 33 -11 33 -5 0 -12 -5 -16
-11z"/>
<path d="M3142 991 c-18 -11 24 -83 47 -79 26 5 26 53 -1 72 -26 18 -28 19
-46 7z"/>
<path d="M3320 961 c0 -36 27 -91 45 -91 18 0 32 23 17 28 -17 5 -15 22 3 22
17 0 39 36 32 54 -3 6 -25 12 -51 14 -44 1 -46 1 -46 -27z"/>
<path d="M3528 979 c-26 -15 -22 -39 6 -39 31 0 56 28 35 41 -17 11 -20 11
-41 -2z"/>
<path d="M4190 981 c-8 -6 -26 -7 -41 -4 -33 6 -47 -13 -25 -35 19 -19 84 -26
103 -10 7 6 13 21 13 34 0 25 -22 32 -50 15z"/>
<path d="M4280 955 c-10 -12 -10 -19 -2 -27 15 -15 62 5 62 27 0 20 -44 20
-60 0z"/>
<path d="M557 953 c-13 -12 -7 -23 13 -23 11 0 20 7 20 15 0 15 -21 21 -33 8z"/>
<path d="M1157 943 c-13 -12 -7 -43 8 -43 8 0 15 4 15 9 0 5 3 16 6 25 6 16
-16 23 -29 9z"/>
<path d="M4416 911 c-10 -15 4 -39 27 -45 29 -7 45 9 31 32 -13 19 -49 28 -58
13z"/>
<path d="M3615 900 c-13 -21 15 -38 58 -36 34 2 42 6 42 21 0 16 -9 20 -47 22
-26 2 -50 -2 -53 -7z"/>
<path d="M4340 885 c0 -8 9 -24 20 -35 38 -38 74 -18 46 25 -19 28 -66 35 -66
10z"/>
<path d="M3233 883 c-18 -7 -16 -60 3 -71 22 -12 85 9 82 28 -2 8 -11 15 -21
15 -10 0 -23 8 -28 18 -10 18 -15 19 -36 10z"/>
<path d="M3474 875 c-4 -9 -2 -21 4 -27 16 -16 47 -5 47 17 0 26 -42 34 -51
10z"/>
<path d="M3720 847 c0 -20 26 -39 47 -35 10 2 18 12 18 23 0 15 -8 21 -32 23
-24 2 -33 -1 -33 -11z"/>
<path d="M4006 844 c-20 -19 -12 -34 18 -34 25 0 46 17 46 37 0 18 -45 16 -64
-3z"/>
<path d="M3050 836 c0 -22 28 -39 47 -30 10 4 25 9 33 9 8 1 21 3 28 4 6 0 12
8 12 16 0 12 -13 15 -60 15 -44 0 -60 -4 -60 -14z"/>
<path d="M4132 838 c-13 -13 2 -38 23 -38 21 0 36 25 23 38 -7 7 -17 12 -23
12 -6 0 -16 -5 -23 -12z"/>
<path d="M3470 806 c-6 -9 -4 -20 6 -35 13 -18 22 -21 47 -15 40 8 59 23 55
43 -4 20 -92 25 -108 7z"/>
<path d="M3625 780 c-4 -7 -3 -16 3 -22 14 -14 57 -6 57 12 0 18 -50 26 -60
10z"/>
<path d="M4266 781 c-8 -13 8 -54 28 -71 15 -11 19 -11 33 2 13 14 13 20 1 44
-13 29 -51 44 -62 25z"/>
<path d="M4355 782 c-10 -10 -5 -58 7 -70 15 -15 48 -16 48 -2 0 6 10 10 23
10 13 0 28 5 35 12 16 16 15 48 0 49 -79 5 -108 6 -113 1z"/>
<path d="M3307 766 c-3 -8 1 -22 8 -33 13 -17 15 -17 36 3 12 12 18 27 15 33
-10 16 -53 14 -59 -3z"/>
<path d="M4782 772 c-17 -5 -15 -29 4 -36 17 -6 54 9 54 23 0 10 -40 19 -58
13z"/>
<path d="M3165 751 c-16 -3 -30 -12 -29 -19 1 -6 2 -21 3 -31 2 -25 30 -35 50
-17 9 8 25 16 36 18 13 2 21 12 23 31 3 24 0 27 -25 26 -15 -1 -41 -4 -58 -8z"/>
<path d="M3038 731 c-9 -14 -19 -18 -38 -14 -16 3 -31 -1 -38 -10 -7 -8 -20
-13 -30 -11 -22 5 -47 -11 -38 -25 8 -13 42 -15 50 -3 3 5 19 7 35 4 22 -3 33
0 37 11 5 13 9 14 26 4 16 -10 22 -8 39 12 11 13 18 29 16 35 -7 20 -45 18
-59 -3z"/>
<path d="M3853 743 c-19 -7 -16 -40 4 -47 9 -4 23 0 31 8 13 12 13 18 2 30
-13 17 -17 18 -37 9z"/>
<path d="M3995 740 c-8 -13 13 -40 30 -40 21 0 36 25 23 38 -15 15 -45 16 -53
2z"/>
<path d="M3927 733 c-10 -10 13 -33 34 -33 26 0 33 17 10 29 -23 13 -35 14
-44 4z"/>
<path d="M4175 730 c-9 -15 14 -40 36 -40 24 0 33 18 19 35 -14 17 -46 20 -55
5z"/>
<path d="M3506 712 c-2 -4 -1 -14 3 -21 11 -18 45 -10 49 12 3 12 -3 17 -22
17 -14 0 -27 -4 -30 -8z"/>
<path d="M4110 711 c0 -5 7 -14 15 -21 12 -10 18 -10 30 0 8 7 12 16 9 21 -7
12 -54 12 -54 0z"/>
<path d="M3395 699 c-9 -13 13 -30 35 -26 8 1 15 9 15 17 0 18 -40 26 -50 9z"/>
<path d="M112 502 c-52 -2 -63 -6 -58 -18 3 -9 6 -86 6 -172 l0 -157 65 -2
c70 -2 75 3 50 47 -18 31 -20 109 -2 114 134 35 179 85 130 145 -23 28 -108
47 -191 43z m96 -93 c2 -31 -2 -50 -12 -58 -25 -21 -36 -3 -36 55 0 52 2 55
23 52 19 -3 22 -10 25 -49z"/>
<path d="M1070 497 c-3 -3 -30 -7 -60 -8 -69 -3 -73 -5 -56 -32 11 -16 15 -58
15 -159 0 -76 2 -141 4 -145 3 -5 54 -8 114 -8 l108 0 0 50 c0 47 -2 50 -25
50 -18 0 -26 -6 -28 -21 -2 -16 -12 -23 -33 -26 -16 -3 -31 -2 -34 0 -3 3 -5
28 -5 56 0 39 3 47 12 38 7 -7 23 -12 36 -12 21 0 23 4 20 43 -3 42 -3 42 -41
41 l-38 -1 3 56 c3 52 5 56 28 56 20 0 26 -6 30 -30 7 -39 36 -45 52 -10 9 21
9 29 -4 41 -15 15 -88 31 -98 21z"/>
<path d="M2026 493 c-4 -4 3 -15 16 -25 22 -16 23 -22 21 -148 -1 -79 -6 -137
-13 -145 -15 -18 -6 -21 68 -29 52 -6 63 -4 68 9 4 9 -1 21 -10 28 -13 10 -16
25 -14 67 l3 55 58 9 c68 10 127 56 127 98 0 28 -32 62 -73 77 -31 12 -240 15
-251 4z m224 -43 c5 -9 7 -20 3 -24 -3 -3 -9 -23 -12 -43 -5 -30 -11 -39 -30
-41 -13 -2 -27 0 -32 5 -13 13 -20 116 -8 123 17 11 69 -2 79 -20z"/>
<path d="M2355 489 c-3 -4 -1 -10 4 -14 6 -3 8 -63 5 -149 -2 -79 -1 -151 2
-161 5 -12 19 -16 58 -15 28 0 76 1 106 0 65 0 83 16 78 70 -3 31 -6 35 -35
38 -24 2 -33 -1 -38 -17 -3 -12 -3 -25 0 -31 3 -5 -6 -15 -21 -20 -40 -15 -54
2 -54 66 0 56 8 66 30 39 7 -9 23 -15 34 -13 16 2 22 11 24 39 4 50 -17 66
-58 45 l-31 -15 3 57 c3 56 4 57 32 57 23 0 30 -5 33 -24 5 -34 23 -52 47 -49
16 2 22 11 24 41 5 61 -5 67 -129 65 -60 0 -112 -4 -114 -9z"/>
<path d="M2647 493 c-12 -11 -7 -21 13 -28 18 -6 19 -14 16 -142 -3 -115 -6
-138 -21 -149 -16 -12 -15 -13 2 -22 23 -13 94 -12 111 1 10 8 8 13 -6 23 -16
11 -20 28 -21 99 -1 47 2 85 6 85 4 0 24 -30 43 -67 19 -36 48 -84 63 -105 25
-34 32 -39 55 -33 15 3 37 13 48 20 21 13 21 19 16 144 -4 115 -3 131 12 137
25 9 19 21 -15 33 -38 13 -96 14 -103 2 -3 -5 5 -16 18 -24 21 -14 24 -23 25
-97 2 -106 -11 -102 -65 19 -22 51 -47 96 -55 102 -16 10 -132 12 -142 2z"/>
<path d="M3183 490 c-83 -3 -154 -8 -158 -12 -12 -11 6 -88 20 -88 7 0 22 11
32 26 13 17 24 23 36 18 16 -6 18 -21 16 -143 l-1 -136 58 -6 c68 -7 80 -3 62
18 -9 11 -13 53 -13 142 l0 126 28 3 c22 3 30 -1 34 -18 4 -16 12 -20 32 -18
21 2 27 9 29 33 6 57 -6 61 -175 55z"/>
<path d="M356 463 c3 -18 -1 -45 -11 -69 -9 -21 -25 -75 -37 -119 -35 -139
-35 -126 3 -124 19 1 49 -1 67 -5 38 -9 43 7 11 33 -22 17 -22 18 -4 74 21 68
33 79 76 75 30 -3 35 -8 56 -63 13 -33 21 -70 18 -81 -4 -20 0 -22 50 -29 86
-10 92 2 47 93 -16 31 -42 90 -57 129 -15 40 -36 80 -46 89 -12 10 -45 18 -98
21 l-81 6 6 -30z m112 -62 c12 -33 -5 -58 -32 -48 -12 5 -12 12 -4 41 14 44
23 45 36 7z"/>
<path d="M3410 480 c-11 -7 -11 -12 -2 -22 8 -10 9 -26 3 -49 -21 -85 -33
-140 -36 -161 -2 -13 -7 -39 -10 -59 -6 -32 -5 -37 16 -42 39 -10 52 6 53 65
1 64 17 88 58 88 26 0 32 -7 61 -70 28 -60 37 -71 66 -80 36 -10 91 -3 91 11
0 5 -6 9 -14 9 -20 0 -36 24 -63 88 -37 90 -55 164 -49 194 5 27 4 28 -37 29
-23 0 -60 2 -83 4 -23 2 -47 -1 -54 -5z m89 -112 c12 -34 1 -51 -26 -41 -14 6
-16 16 -7 51 9 31 20 28 33 -10z"/>
<path d="M3773 460 c-50 -37 -67 -81 -61 -155 7 -86 64 -141 157 -152 52 -6
111 16 111 42 0 18 -22 19 -66 3 -39 -14 -56 -4 -85 54 -23 45 -18 94 13 133
15 20 23 23 33 15 8 -6 12 -17 9 -24 -3 -7 2 -18 10 -25 13 -11 21 -9 44 11
32 25 72 78 72 95 0 10 -122 33 -173 33 -13 0 -42 -14 -64 -30z"/>
<path d="M4056 477 c-14 -10 -16 -18 -9 -31 14 -26 3 -225 -14 -259 -8 -16
-12 -31 -9 -35 7 -7 222 -3 253 5 30 7 69 73 51 84 -20 12 -59 -1 -100 -33
-28 -22 -39 -26 -43 -16 -7 20 0 230 9 255 7 19 3 23 -31 32 -51 15 -85 14
-107 -2z"/>
<path d="M740 473 c-42 -8 -85 -48 -98 -91 -17 -56 -15 -87 8 -132 30 -59 80
-87 167 -93 86 -7 103 5 103 75 0 45 -1 45 -37 52 -98 16 -180 -2 -87 -20 39
-7 74 -48 57 -65 -6 -6 -30 -9 -54 -7 l-44 3 -13 63 c-18 80 -9 148 20 163 12
7 41 9 69 6 55 -7 70 5 43 34 -17 19 -69 24 -134 12z"/>
<path d="M4340 475 c0 -3 7 -17 16 -30 9 -13 13 -29 9 -35 -4 -7 -7 -60 -7
-118 0 -82 -4 -111 -15 -124 -13 -15 -13 -18 -2 -22 11 -4 214 -2 242 3 4 0 7
22 5 48 -3 41 -6 48 -25 51 -18 3 -22 11 -25 44 -4 49 -27 70 -58 50 -11 -7
-20 -9 -21 -5 0 5 -2 24 -4 43 -5 48 3 70 26 70 15 0 19 -7 19 -34 0 -26 5
-36 20 -41 12 -4 27 -1 35 5 16 13 21 75 7 84 -11 6 -222 17 -222 11z m163
-222 c23 -7 20 -61 -5 -76 -26 -17 -48 9 -48 55 0 34 3 39 18 33 9 -4 25 -10
35 -12z"/>
<path d="M4673 463 c-34 -7 -46 -28 -38 -72 8 -46 15 -54 70 -71 65 -20 84
-43 75 -91 -13 -68 -45 -78 -72 -22 -7 15 -21 29 -30 31 -26 5 -60 -35 -56
-66 l3 -27 114 -3 c145 -3 155 3 149 96 -5 74 -22 96 -87 109 -51 9 -72 33
-55 61 14 20 60 18 85 -4 19 -17 41 -18 57 -2 18 18 14 46 -7 58 -19 10 -162
12 -208 3z"/>
<path d="M1601 429 c-62 -25 -66 -74 -11 -136 70 -80 75 -158 14 -198 -32 -21
-30 -35 6 -35 35 0 92 46 110 90 9 21 9 37 2 59 -13 36 -2 47 29 31 38 -21 46
4 14 49 -30 45 -52 55 -93 46 -33 -7 -68 24 -58 50 4 12 14 14 46 9 45 -7 53
6 18 30 -25 18 -42 19 -77 5z"/>
<path d="M1443 300 c-35 -14 -46 -45 -28 -80 26 -51 78 -64 135 -35 47 24 49
65 4 109 -17 17 -75 20 -111 6z m69 -45 c8 -19 8 -29 0 -37 -23 -23 -61 14
-48 47 9 23 35 18 48 -10z"/>
<path d="M4924 165 c-4 -9 -2 -21 4 -27 15 -15 44 -1 40 19 -4 23 -36 29 -44
8z"/>
</g>
</svg>
