<?xml version="1.0" standalone="no"?>
<!DOCTYPE svg PUBLIC "-//W3C//DTD SVG 20010904//EN"
 "http://www.w3.org/TR/2001/REC-SVG-20010904/DTD/svg10.dtd">
<svg version="1.0" xmlns="http://www.w3.org/2000/svg"
 width="500.000000pt" height="878.000000pt" viewBox="0 0 500.000000 878.000000"
 preserveAspectRatio="xMidYMid meet">
<metadata>
Created by potrace 1.15, written by Peter Selinger 2001-2017
</metadata>
<g transform="translate(0.000000,878.000000) scale(0.100000,-0.100000)"
fill="#000000" stroke="none">
<path d="M1245 7857 c-76 -45 -85 -53 -85 -76 l0 -24 -23 21 c-27 26 -45 27
-73 8 -13 -10 -25 -11 -35 -5 -24 15 -37 10 -55 -21 -12 -20 -27 -30 -48 -32
-34 -3 -49 -28 -17 -28 12 0 21 -6 21 -14 0 -7 6 -19 14 -25 24 -20 56 4 56
39 0 17 5 30 10 30 6 0 10 -6 10 -12 0 -7 5 -20 10 -28 9 -12 15 -9 40 20 l29
35 1 -27 c0 -35 9 -58 24 -58 28 -1 38 -17 26 -40 -11 -21 -13 -21 -22 -7 -5
10 -17 17 -27 17 -20 0 -54 -33 -44 -43 3 -4 -2 -7 -11 -7 -15 0 -17 6 -12 36
6 31 5 35 -11 32 -10 -2 -26 -19 -35 -38 -10 -19 -18 -27 -18 -18 0 10 -10 26
-22 38 -19 18 -23 18 -38 5 -22 -20 -40 -19 -40 1 0 9 9 18 20 21 26 7 15 23
-15 23 -26 0 -48 -30 -43 -57 2 -9 21 -26 42 -37 38 -20 50 -44 19 -38 -18 4
-66 -39 -94 -85 -23 -37 -16 -59 27 -87 l26 -18 -26 -27 c-32 -33 -33 -47 -4
-71 l22 -18 -39 -18 c-48 -23 -51 -44 -7 -63 22 -10 32 -21 32 -37 0 -26 23
-47 47 -42 10 2 27 18 38 35 11 18 28 32 37 33 24 0 58 39 58 65 0 12 13 31
29 43 28 20 30 20 45 3 9 -10 16 -31 16 -47 0 -65 55 -97 85 -50 9 13 23 27
32 30 18 7 35 -12 28 -31 -2 -7 3 -34 11 -60 40 -125 36 -181 -21 -301 -43
-91 -40 -122 12 -122 19 0 44 5 56 11 31 16 97 81 97 95 0 15 42 26 54 14 6
-6 -3 -16 -23 -27 -25 -14 -31 -24 -30 -48 2 -50 0 -54 -29 -69 -16 -8 -44
-40 -63 -71 -19 -31 -49 -76 -67 -100 -42 -57 -50 -80 -58 -168 -21 -213 2
-449 61 -647 49 -163 56 -237 37 -385 -16 -118 -16 -118 -52 -110 -16 4 -30 4
-30 1 0 -3 59 -35 130 -71 94 -47 130 -70 130 -83 0 -10 6 -24 13 -31 10 -11
7 -12 -13 -6 -14 4 -32 13 -40 20 -8 7 -51 30 -94 50 -44 21 -96 48 -117 62
-26 17 -55 26 -95 28 -32 2 -60 8 -62 14 -2 6 -7 11 -12 11 -18 0 -30 -70 -30
-181 0 -65 -4 -120 -10 -124 -5 -3 -27 3 -49 15 -22 11 -55 20 -74 20 -18 0
-37 4 -42 9 -6 5 -89 21 -185 35 l-174 26 -29 36 c-36 44 -72 44 -97 0 -14
-26 -24 -31 -87 -42 -92 -15 -135 -30 -206 -68 l-58 -31 3 -1176 c2 -890 6
-1175 14 -1172 15 5 79 81 126 148 19 28 66 82 104 121 38 39 81 84 95 100 34
38 78 70 137 101 90 48 107 58 127 75 11 9 37 24 57 33 23 9 53 36 79 70 23
30 48 55 56 55 7 0 16 8 20 18 3 9 13 25 21 34 13 16 17 15 56 -16 64 -51 132
-87 220 -115 l81 -26 6 -75 c4 -41 8 -131 10 -199 l3 -124 -31 -15 c-17 -8
-38 -30 -46 -48 -16 -32 -15 -34 3 -44 11 -6 20 -18 20 -26 0 -9 6 -28 14 -42
7 -15 22 -44 32 -64 29 -59 94 -60 94 -2 0 17 6 24 19 24 10 0 25 7 32 16 11
14 11 18 -5 29 -16 12 -16 15 -1 44 8 17 22 31 31 31 8 0 17 6 20 14 6 17 -20
72 -40 83 -11 6 -15 45 -17 172 l-4 165 25 6 c14 3 52 0 85 -7 93 -19 152 -17
165 7 6 11 15 20 20 20 15 0 40 -56 41 -92 l2 -33 6 38 c3 21 10 37 16 37 17
-1 1 -170 -16 -170 -5 0 -9 -6 -9 -14 0 -21 40 -46 73 -46 26 0 28 -2 22 -34
-5 -24 -1 -45 14 -74 17 -33 21 -60 21 -135 0 -91 1 -94 31 -125 17 -18 35
-32 39 -32 4 0 19 -32 34 -71 24 -65 26 -82 26 -233 0 -150 2 -164 20 -181 25
-22 109 -32 140 -15 18 10 28 9 55 -6 43 -23 75 -10 99 40 22 48 32 51 48 19
18 -38 70 -44 104 -12 19 18 27 20 36 11 36 -36 88 3 87 64 -1 21 4 77 10 124
6 49 8 117 4 160 -7 71 -6 200 1 208 2 2 20 0 40 -4 l36 -6 -24 -23 c-14 -13
-28 -39 -31 -58 -6 -30 -2 -41 30 -83 l37 -48 -7 -90 c-4 -49 -10 -99 -15
-110 -4 -12 -13 -73 -20 -136 -7 -63 -19 -124 -26 -136 -8 -11 -17 -55 -20
-97 -4 -42 -10 -77 -15 -77 -4 0 -10 -18 -14 -40 -9 -51 -39 -75 -105 -84 -40
-5 -54 -3 -67 9 -13 14 -36 15 -157 11 -77 -3 -170 -8 -206 -11 -58 -6 -74 -4
-130 20 -36 15 -75 36 -87 47 -18 17 -29 19 -70 13 -26 -4 -68 -16 -93 -27
-41 -19 -56 -20 -160 -13 -63 4 -160 9 -215 10 -152 5 -226 14 -296 35 -77 24
-120 25 -160 5 -26 -14 -34 -14 -77 0 -26 9 -70 27 -99 41 -28 13 -58 24 -66
24 -8 0 -20 7 -27 15 -14 17 -60 19 -110 5 -38 -11 -41 -9 -86 68 -11 20 -25
37 -32 40 -6 2 -35 -22 -63 -52 -29 -31 -60 -56 -69 -56 -10 0 -23 -7 -30 -15
-7 -8 -19 -15 -27 -15 -32 0 -73 -31 -73 -54 l0 -24 86 36 c48 21 106 54 129
74 46 40 50 40 70 -9 19 -44 55 -61 86 -39 25 17 74 22 83 7 3 -5 26 -14 51
-20 25 -6 60 -20 77 -31 18 -11 39 -20 46 -20 8 0 30 -7 49 -16 32 -16 37 -16
69 0 46 21 88 20 177 -4 50 -14 118 -22 217 -25 246 -9 303 -12 356 -19 40 -6
60 -4 85 10 64 33 128 28 231 -18 l93 -41 90 13 c50 7 137 14 195 16 137 5
122 -12 -31 -33 -98 -14 -135 -14 -269 -4 -243 20 -601 30 -656 19 -29 -5
-114 -6 -209 -2 -88 5 -206 7 -262 6 -74 -2 -109 1 -125 11 -41 26 -173 51
-215 41 -52 -12 -229 -9 -278 4 -22 6 -64 13 -92 17 l-53 7 0 -486 0 -486 53
0 c28 -1 93 -3 142 -5 253 -11 646 -16 1620 -20 975 -4 1444 -9 1830 -20 77
-2 413 -7 748 -11 l607 -7 0 30 0 29 -120 -4 c-91 -3 -120 -1 -120 8 0 10 -4
9 -16 -1 -12 -10 -58 -13 -192 -11 -155 2 -181 5 -219 23 -24 11 -45 25 -48
29 -3 5 -13 6 -21 3 -13 -5 -15 1 -9 41 8 49 -5 63 -25 27 -5 -11 -20 -21 -32
-23 -14 -2 -24 -12 -28 -27 -9 -38 -25 -35 -59 8 -17 21 -50 49 -74 61 -107
56 -136 69 -177 80 -49 13 -135 54 -144 69 -3 5 8 14 24 20 18 6 30 17 30 27
0 10 3 14 8 10 4 -4 7 -22 7 -38 0 -39 18 -46 32 -15 9 19 18 23 43 22 25 -1
34 3 41 21 5 14 14 21 22 18 9 -3 19 10 30 37 18 45 14 67 -8 49 -9 -8 -15 -8
-20 0 -3 6 -11 8 -16 5 -5 -4 -9 5 -9 19 0 25 -22 36 -34 17 -9 -15 -47 0 -44
17 4 19 167 55 184 41 7 -6 16 -4 24 6 7 9 19 14 26 11 7 -3 16 -1 19 5 4 5
12 9 18 8 7 -1 19 0 27 4 19 7 72 21 85 22 6 0 16 4 23 9 7 4 19 2 27 -4 11
-9 15 -9 15 -1 0 6 13 11 29 11 17 0 33 5 36 11 4 6 14 8 22 5 9 -4 21 -2 28
4 8 7 17 4 30 -10 24 -26 33 -25 47 5 13 29 35 32 53 9 10 -14 13 -13 29 11
14 21 20 24 26 14 7 -10 12 -10 26 1 19 17 84 24 84 9 0 -5 -6 -9 -13 -9 -7 0
-17 -19 -23 -42 -9 -42 -10 -43 -59 -51 -49 -8 -75 -21 -75 -38 0 -20 42 -49
73 -50 31 -1 30 -1 -15 -17 -65 -23 -76 -36 -53 -62 10 -11 30 -20 44 -20 20
0 23 -2 11 -10 -8 -5 -25 -10 -38 -10 -31 0 -36 -20 -17 -66 17 -40 37 -37 39
7 1 17 10 26 34 33 44 12 56 0 41 -43 -11 -31 -6 -207 6 -219 2 -2 11 -2 20 1
12 5 15 26 15 112 0 147 -1 146 114 138 96 -6 146 0 146 17 0 6 -24 10 -54 10
-80 0 -176 12 -176 21 0 5 54 9 121 9 92 0 120 3 117 13 -3 6 -19 13 -37 15
-29 3 -32 6 -27 27 5 19 1 25 -22 33 -26 10 -26 10 11 11 31 1 38 4 35 19 -2
12 -16 18 -48 22 -36 4 -44 9 -42 22 3 19 -16 26 -81 30 -58 4 -44 23 19 24
34 1 62 8 71 17 13 13 11 17 -11 35 -34 26 -33 42 2 42 23 0 73 2 170 9 21 1
22 5 22 95 0 103 -2 107 -61 100 -18 -2 -41 -1 -49 2 -19 9 -53 10 -65 2 -22
-13 -60 -1 -60 18 0 23 33 26 110 13 28 -5 67 -11 88 -14 l37 -4 0 168 0 169
-60 29 c-77 36 -76 55 3 67 l57 9 0 45 c0 40 -4 49 -40 80 -23 19 -50 52 -60
73 -25 48 -48 61 -89 49 -34 -9 -121 -92 -121 -114 0 -16 -32 -26 -58 -19 -10
2 -23 17 -29 33 -7 19 -21 32 -38 36 -19 5 -25 12 -22 25 7 26 -34 60 -80 65
-50 6 -88 -14 -89 -47 0 -41 -11 -50 -54 -43 -65 11 -105 -50 -59 -92 l21 -19
-28 -21 c-18 -15 -25 -27 -20 -39 5 -15 15 -17 75 -11 43 4 72 3 75 -3 7 -11
-36 -25 -129 -40 -84 -14 -257 -51 -267 -57 -4 -3 -63 -20 -130 -39 -68 -18
-193 -56 -278 -83 -173 -56 -180 -58 -312 -77 -51 -7 -101 -16 -110 -20 -14
-6 -18 -2 -18 18 0 14 4 28 8 31 9 5 21 58 43 181 7 38 22 90 35 115 51 101
57 214 15 271 l-22 29 35 103 c30 89 68 246 83 342 2 17 7 37 10 45 4 8 13 35
22 59 15 42 22 48 106 91 142 72 231 137 222 163 -3 11 -80 29 -176 42 l-53 7
6 32 c3 17 15 43 26 58 11 15 20 32 20 37 0 5 25 26 55 46 30 20 68 52 84 71
27 30 61 115 61 151 0 7 16 27 35 45 63 57 79 92 79 177 -1 50 -7 95 -20 133
-19 51 -19 60 -6 93 13 32 13 41 -3 83 -10 26 -29 67 -44 92 -58 101 -124 256
-115 271 8 13 73 -31 130 -87 45 -43 54 -58 54 -87 0 -19 9 -46 20 -60 36 -46
44 -84 25 -113 -22 -33 -7 -51 26 -33 13 7 31 12 39 11 24 -3 44 14 34 29 -17
27 -13 93 6 114 10 11 23 46 29 77 10 58 33 112 51 123 5 3 10 14 10 24 0 10
12 27 27 36 24 16 27 16 38 1 7 -9 16 -16 20 -16 4 0 16 -10 27 -22 19 -23 20
-23 34 -4 13 19 14 18 14 -10 1 -28 1 -28 15 -10 13 17 15 18 15 3 0 -26 13
-20 32 13 20 34 38 39 45 11 5 -21 60 -34 70 -17 4 5 2 11 -4 13 -24 8 -43 30
-45 52 -5 39 19 35 48 -8 31 -48 54 -52 96 -16 16 14 36 25 45 25 9 0 13 6 10
14 -3 8 0 20 8 26 8 6 12 17 9 25 -3 7 -1 16 5 20 6 3 11 25 11 48 0 25 9 56
21 76 18 30 19 40 10 75 -20 78 -22 105 -11 125 7 15 7 34 -1 68 -14 56 -26
74 -46 71 -17 -3 -38 48 -58 142 -17 77 -52 172 -68 182 -7 5 -4 8 9 8 24 0
38 22 24 36 -6 6 -3 27 5 51 19 56 10 97 -30 132 -26 23 -34 38 -36 71 -3 36
0 44 20 55 13 7 33 10 43 7 24 -6 61 27 52 47 -3 9 -10 30 -14 47 -7 29 -6 30
29 29 20 -1 46 -7 59 -14 36 -20 63 -10 85 32 11 22 26 37 37 37 28 0 60 47
60 88 0 30 -3 34 -22 29 -13 -2 -31 -8 -40 -12 -14 -5 -18 -2 -18 14 0 29 -25
37 -53 18 -21 -14 -24 -13 -35 4 -16 24 -37 24 -62 -1 -15 -15 -18 -27 -13
-51 5 -29 4 -32 -13 -25 -10 4 -24 9 -31 10 -23 4 -25 14 -8 40 20 31 14 53
-18 65 -24 9 -28 31 -13 84 10 33 -7 57 -40 57 -19 0 -24 5 -24 24 0 13 -7 29
-16 37 -24 19 -46 0 -65 -55 -9 -26 -28 -59 -43 -72 -21 -20 -24 -29 -16 -44
6 -10 15 -22 20 -25 18 -11 0 -25 -31 -25 -35 0 -46 22 -59 113 -14 95 -52
134 -84 85 -35 -55 -56 -144 -49 -212 4 -46 2 -66 -5 -66 -17 0 -25 43 -20
115 3 51 1 65 -10 65 -15 0 -60 29 -110 72 -26 22 -41 27 -75 25 -52 -3 -59
-24 -23 -68 31 -37 31 -39 5 -83 -19 -33 -25 -36 -68 -36 -26 0 -51 -4 -56 -9
-6 -6 -28 -6 -55 -1 -29 5 -60 4 -87 -3 -23 -6 -46 -8 -49 -4 -12 12 37 56 70
63 86 18 210 124 255 218 55 112 64 234 28 349 -67 208 -256 347 -475 347
-244 0 -444 -169 -482 -406 -18 -113 6 -229 66 -316 l27 -39 -28 -29 c-16 -17
-37 -30 -48 -30 -25 0 -227 -67 -244 -82 -8 -6 -20 -26 -28 -43 -13 -33 -41
-45 -117 -51 -16 -1 -39 -9 -52 -18 -29 -18 -53 -12 -61 15 -4 11 -16 19 -30
19 -24 0 -35 22 -35 70 0 14 -6 34 -14 45 -7 11 -19 38 -26 60 -14 45 -112
197 -144 223 -12 9 -34 34 -49 55 -15 20 -44 52 -63 71 -34 33 -35 36 -25 72
7 25 7 42 1 48 -19 19 -10 26 33 26 98 0 217 127 217 232 0 22 -8 33 -35 49
-38 23 -43 34 -20 43 20 7 19 35 -4 94 -25 63 -19 85 38 147 26 28 53 64 60
82 12 29 11 37 -9 78 -28 58 -160 176 -189 168 -13 -3 -23 2 -30 15 -6 11 -26
23 -47 27 -21 3 -71 26 -113 51 -42 24 -86 44 -99 44 -22 0 -68 -37 -88 -71
-6 -11 -31 -18 -86 -22 l-78 -7 0 29 c0 37 -24 59 -45 41 -13 -10 -15 -9 -15
9 0 34 -61 91 -98 91 -17 0 -34 5 -37 10 -3 6 -17 10 -31 10 -13 0 -24 6 -24
13 0 15 -31 47 -46 47 -5 0 -18 -6 -29 -13z m35 -51 c0 -13 -9 -31 -20 -41
-24 -22 -27 -7 -9 43 12 35 29 34 29 -2z m80 -56 c0 -14 -50 -64 -57 -57 -6 7
38 66 50 66 4 1 7 -4 7 -9z m60 -4 c0 -3 -4 -8 -10 -11 -5 -3 -10 -1 -10 4 0
6 5 11 10 11 6 0 10 -2 10 -4z m-180 -31 c0 -8 11 -17 25 -21 25 -6 32 -18 16
-28 -4 -3 -23 0 -42 6 -19 6 -41 13 -49 15 -11 3 -9 9 10 23 30 24 40 25 40 5z
m240 -21 c0 -3 -9 -17 -20 -31 -15 -20 -17 -29 -9 -39 16 -19 29 -17 56 8 19
18 23 19 23 5 0 -19 -29 -37 -60 -37 -11 0 -31 -11 -43 -23 -33 -36 -53 -22
-22 14 13 17 30 48 36 69 7 22 18 40 26 40 7 0 13 -3 13 -6z m448 -61 c67 -34
85 -54 63 -68 -5 -3 -12 -18 -16 -34 -9 -43 -32 -59 -50 -35 -13 19 -14 19
-49 0 -19 -10 -45 -29 -57 -42 -19 -21 -21 -29 -13 -61 5 -23 16 -39 26 -41
18 -4 115 68 191 142 62 60 90 61 158 4 27 -22 49 -45 49 -49 0 -5 -24 -19
-52 -31 -52 -22 -209 -135 -321 -231 l-57 -49 -32 31 c-17 17 -35 31 -39 31
-3 0 -6 11 -6 25 0 30 -29 65 -52 65 -9 0 -31 -9 -49 -20 -39 -24 -42 -24 -42
-5 0 8 9 15 20 15 11 0 26 10 33 23 7 12 37 59 65 105 29 46 52 88 52 93 0 5
-9 9 -20 9 -11 0 -20 3 -20 6 0 7 69 133 82 150 13 17 56 6 136 -33z m-640
-13 c16 -26 44 -26 67 0 10 11 20 18 23 15 3 -3 -7 -16 -23 -30 -25 -24 -26
-27 -11 -44 16 -17 14 -20 -24 -55 -22 -20 -42 -36 -45 -36 -13 0 -2 22 25 54
l31 34 -22 16 c-14 9 -33 13 -50 9 -33 -6 -39 10 -12 39 20 23 25 23 41 -2z
m395 -22 c16 -12 10 -25 -62 -134 -43 -67 -86 -126 -95 -131 -20 -11 -33 -229
-13 -237 7 -2 5 -5 -4 -5 -9 -1 -21 -7 -27 -13 -13 -17 3 -58 23 -58 8 0 15
-4 15 -10 0 -5 -2 -10 -4 -10 -2 0 -11 -3 -20 -6 -11 -4 -16 -1 -16 10 0 8
-11 23 -25 32 -20 13 -28 14 -40 4 -12 -10 -15 -10 -15 0 0 6 10 20 23 30 21
18 21 20 5 47 -35 61 -44 161 -22 256 5 21 3 27 -10 27 -9 0 -26 -23 -42 -56
-22 -48 -26 -64 -20 -110 6 -50 5 -54 -14 -54 -18 0 -20 4 -14 43 10 71 31
134 58 174 22 32 24 40 12 58 -17 26 -10 45 16 45 11 0 37 13 57 28 40 31 101
60 152 72 50 12 63 11 82 -2z m-573 -47 c14 -26 13 -88 -1 -97 -11 -7 -37 -8
-121 -5 -45 1 -53 28 -10 33 23 3 27 7 24 32 -4 35 20 31 28 -5 7 -30 45 -38
59 -12 6 12 6 25 0 34 -12 19 -11 39 1 39 5 0 14 -9 20 -19z m-220 -51 c0 -5
-2 -10 -4 -10 -3 0 -8 5 -11 10 -3 6 -1 10 4 10 6 0 11 -4 11 -10z m334 1 c11
-4 15 -10 10 -13 -5 -4 -18 0 -29 8 -20 15 -12 17 19 5z m-348 -60 c14 11 18
10 31 -6 13 -19 12 -20 -17 -23 -41 -4 -60 3 -60 24 0 13 3 14 15 4 12 -10 18
-10 31 1z m384 -19 c0 -16 -7 -37 -16 -48 -15 -18 -15 -18 -10 7 4 18 0 31
-10 40 -14 12 -14 14 3 20 30 12 33 10 33 -19z m-230 -36 c0 -2 -8 -10 -17
-17 -16 -13 -17 -12 -4 4 13 16 21 21 21 13z m-65 -27 c10 -16 -1 -22 -26 -14
-17 6 -19 9 -8 16 19 12 26 11 34 -2z m1315 -35 c0 -20 -29 -30 -43 -15 -9 10
-8 16 7 26 21 16 36 11 36 -11z m-1020 -17 c0 -7 -6 -22 -14 -33 -14 -18 -15
-18 -21 -1 -7 17 10 47 26 47 5 0 9 -6 9 -13z m875 -23 c3 -20 5 -37 3 -39 -2
-2 -27 0 -56 2 l-53 6 32 33 c43 45 65 44 74 -2z m-1179 -55 c5 -8 -24 -14
-53 -10 -7 1 -23 -3 -35 -9 -17 -9 -16 -6 6 12 28 24 69 27 82 7z m709 1 c3
-5 1 -10 -4 -10 -6 0 -11 5 -11 10 0 6 2 10 4 10 3 0 8 -4 11 -10z m367 -10
c21 0 23 -11 7 -27 -9 -9 -4 -19 19 -42 32 -32 55 -33 67 -3 5 13 14 4 41 -38
36 -57 34 -74 -9 -75 -14 0 -26 -10 -35 -27 -8 -18 -21 -28 -35 -28 -32 0 -51
-15 -43 -35 5 -14 2 -16 -21 -12 -16 3 -53 11 -83 17 -92 18 -100 20 -100 29
0 4 11 14 25 21 14 7 25 22 25 32 0 15 4 17 19 9 24 -13 31 -5 31 35 0 23 5
33 20 37 17 4 20 14 20 59 0 58 7 75 24 58 5 -5 18 -10 28 -10z m-882 -22 c0
-18 -2 -20 -9 -8 -6 8 -7 18 -5 22 9 14 14 9 14 -14z m450 12 c0 -5 -5 -10
-11 -10 -5 0 -7 5 -4 10 3 6 8 10 11 10 2 0 4 -4 4 -10z m107 -56 c2 -5 -17
-9 -42 -10 -52 -1 -61 13 -12 19 40 5 50 3 54 -9z m-97 -59 c0 -3 -12 -17 -27
-30 -25 -21 -29 -22 -34 -7 -4 12 2 21 20 29 30 13 41 15 41 8z m99 -17 c0
-13 -14 -25 -164 -138 -44 -33 -96 -73 -115 -88 -19 -15 -54 -39 -78 -54 -23
-15 -47 -39 -51 -52 -13 -34 -81 -47 -81 -16 0 5 15 17 33 26 17 9 55 35 82
58 28 24 72 58 99 77 73 51 166 115 209 144 21 14 40 32 44 40 6 18 23 20 22
3z m-367 -53 c11 -14 28 -25 37 -23 9 2 29 -7 44 -18 28 -23 26 -29 -21 -53
-21 -11 -22 -11 -11 8 17 26 -5 54 -37 48 -16 -3 -25 4 -36 30 -18 39 -4 44
24 8z m416 -69 c36 -18 183 -54 257 -62 97 -11 100 -24 5 -23 -66 1 -104 8
-170 31 -47 17 -106 35 -132 40 -27 6 -48 15 -48 19 0 14 58 11 88 -5z m1711
-11 c138 -33 240 -114 303 -242 41 -84 51 -208 23 -309 -20 -74 -79 -162 -139
-208 -34 -25 -40 -27 -62 -15 -19 10 -44 10 -116 2 -78 -9 -97 -8 -125 5 -41
19 -41 31 -3 57 16 11 32 26 35 34 9 24 -5 51 -28 51 -22 0 -21 1 3 20 14 11
31 20 39 20 7 0 44 -20 81 -45 113 -75 142 -57 91 55 -17 39 -31 79 -31 90 0
14 22 34 70 66 74 47 100 78 81 97 -6 6 -55 10 -116 10 -98 0 -107 1 -120 21
-26 40 -55 138 -55 188 0 34 -4 50 -15 54 -23 9 -45 -15 -45 -47 0 -15 -4 -38
-9 -51 -5 -13 -17 -52 -27 -88 -10 -36 -22 -71 -27 -78 -7 -9 -39 -12 -116
-11 -147 4 -163 -8 -83 -63 26 -18 70 -44 97 -59 62 -32 66 -53 28 -129 -27
-52 -30 -55 -74 -61 -25 -4 -60 -14 -77 -23 -30 -16 -31 -15 -53 15 -77 109
-78 344 -2 449 93 127 185 184 323 200 36 4 70 8 75 8 6 1 39 -5 74 -13z
m-2111 -17 c7 -7 12 -16 12 -21 0 -10 -61 -67 -72 -67 -8 0 34 99 43 100 3 0
10 -5 17 -12z m767 2 c-3 -5 -15 -10 -26 -10 -10 0 -19 5 -19 10 0 6 12 10 26
10 14 0 23 -4 19 -10z m105 -40 c-27 -21 -55 -26 -65 -10 -4 6 6 10 22 10 15
0 35 5 43 10 26 17 26 10 0 -10z m-479 -1 c19 -10 19 -12 5 -28 -14 -16 -15
-20 -2 -30 11 -9 18 -7 33 12 10 13 25 22 33 20 42 -12 43 -13 30 -28 -6 -8
-9 -19 -5 -25 10 -16 34 -12 47 10 9 14 24 20 51 20 34 0 38 -2 32 -20 -10
-30 24 -40 43 -12 17 25 60 29 68 7 9 -21 42 -19 56 5 13 21 33 26 42 11 10
-16 -6 -42 -23 -38 -9 2 -29 -3 -44 -10 -26 -13 -30 -13 -42 4 -14 17 -16 17
-53 -4 -24 -14 -43 -18 -52 -13 -8 5 -21 5 -29 1 -25 -13 -319 -12 -327 1 -5
7 -2 9 8 5 9 -3 19 -3 23 1 3 4 14 7 23 7 9 0 18 8 20 18 2 12 -3 17 -17 17
-13 0 -21 6 -21 16 0 11 5 14 16 10 21 -8 44 11 44 35 0 22 12 24 41 8z m-144
-91 c-3 -7 -5 -2 -5 12 0 14 2 19 5 13 2 -7 2 -19 0 -25z m109 -80 c2 -3 2
-13 -2 -22 -5 -13 -22 -16 -85 -17 -43 -1 -85 -2 -91 -3 -7 -1 -13 8 -13 19 0
16 9 21 50 26 52 7 132 5 141 -3z m1679 -24 c23 -55 20 -64 -20 -64 -38 0 -40
5 -24 63 13 47 25 47 44 1z m-1616 -11 c-15 -18 -34 -1 -25 22 5 14 9 15 21 5
12 -10 13 -16 4 -27z m93 -25 c-15 -15 -24 -6 -16 16 5 12 10 14 17 7 8 -8 8
-14 -1 -23z m-31 -39 c34 -17 72 -42 86 -55 13 -13 28 -22 33 -19 18 11 171
-148 156 -162 -4 -4 -30 16 -59 45 -64 64 -203 154 -279 183 -32 12 -58 25
-58 30 0 19 63 8 121 -22z m-311 2 c0 -7 -29 -23 -85 -48 -5 -2 6 9 25 26 33
30 60 40 60 22z m-154 -37 c-10 -14 -20 -23 -23 -20 -3 3 2 17 11 32 10 14 20
23 23 20 3 -3 -2 -17 -11 -32z m2189 -29 c-22 -19 -43 -35 -48 -35 -4 0 -13
12 -19 26 -15 33 0 44 62 43 l45 0 -40 -34z m-115 6 c16 -30 12 -76 -7 -93
-45 -39 -62 -41 -105 -13 -39 26 -40 28 -34 68 8 51 17 57 83 57 42 0 54 -4
63 -19z m-210 -17 c0 -14 -3 -24 -7 -22 -75 36 -82 48 -28 48 31 0 35 -3 35
-26z m-1725 -24 c-10 -11 -21 -17 -24 -14 -3 3 3 12 13 20 28 20 32 17 11 -6z
m282 8 c50 -22 113 -71 113 -89 0 -10 -9 -21 -20 -24 -41 -13 -131 -114 -165
-187 -19 -40 -42 -76 -50 -81 -20 -11 -19 2 2 25 13 14 17 34 15 73 -1 29 5
79 13 111 20 77 20 106 -1 102 -11 -2 -22 -25 -33 -68 -10 -36 -23 -74 -29
-85 -11 -19 -11 -19 -12 5 0 27 33 161 44 179 4 6 18 8 32 5 21 -5 25 -3 24
12 -1 11 -2 22 -1 27 2 11 37 8 68 -5z m-167 -7 c0 -6 -8 -16 -18 -23 -9 -7
-18 -26 -18 -43 -3 -64 -17 -165 -24 -165 -8 0 -21 50 -24 85 0 11 -8 20 -16
20 -12 0 -16 -17 -20 -75 l-5 -75 -7 79 c-7 88 4 126 45 147 12 7 32 23 44 36
23 24 43 30 43 14z m1678 -97 c30 -20 28 -28 -13 -59 -46 -35 -58 -26 -38 30
17 50 19 52 51 29z m209 -29 c22 -45 12 -52 -32 -25 -34 21 -35 23 -19 41 24
27 32 24 51 -16z m-1514 -43 c46 -53 81 -124 69 -137 -3 -3 -16 -5 -29 -5 -61
0 -150 -66 -220 -164 -44 -61 -84 -106 -95 -106 -4 0 -8 10 -8 23 0 18 5 23
28 22 23 0 27 4 25 26 -1 17 6 28 20 35 16 7 24 21 29 57 5 35 21 68 63 127
55 79 64 111 25 90 -13 -7 -26 -6 -45 4 l-26 14 34 36 c49 52 72 48 130 -22z
m157 3 c7 -8 8 -15 2 -15 -5 0 -15 7 -22 15 -7 8 -8 15 -2 15 5 0 15 -7 22
-15z m-779 -62 c-10 -17 -10 -16 -11 3 0 23 13 41 18 25 2 -6 -1 -18 -7 -28z
m434 -13 c-9 -16 -18 -30 -21 -30 -2 0 2 14 11 30 9 17 18 30 21 30 2 0 -2
-13 -11 -30z m365 -59 c-1 -13 -4 -12 -16 4 -8 11 -24 30 -34 43 -33 37 -23
38 15 2 19 -19 35 -41 35 -49z m1125 59 c7 -11 8 -11 -80 -35 -33 -9 -67 -20
-76 -25 -8 -4 -27 -6 -42 -3 -22 4 -27 2 -27 -15 0 -27 -10 -52 -21 -52 -5 0
-9 7 -9 16 0 34 -26 5 -39 -44 -8 -29 -18 -52 -22 -52 -13 0 -11 34 3 48 17
17 0 28 -22 14 -11 -7 -31 -12 -45 -12 -19 0 -26 -7 -33 -32 -9 -35 -27 -40
-27 -8 0 11 -6 25 -13 32 -20 20 -14 27 26 33 62 11 88 24 148 80 32 30 69 56
83 58 56 9 190 7 196 -3z m-1938 -32 c-3 -8 -6 -5 -6 6 -1 11 2 17 5 13 3 -3
4 -12 1 -19z m3 -35 c0 -10 -5 -25 -10 -33 -7 -11 -10 -7 -10 18 0 17 5 32 10
32 6 0 10 -8 10 -17z m151 -125 c17 -40 7 -44 -39 -13 -40 26 -62 65 -62 109
0 17 7 13 44 -23 25 -24 50 -57 57 -73z m1776 76 c37 -25 41 -26 141 -20 66 4
102 3 102 -3 0 -6 -10 -13 -22 -16 -159 -36 -155 -36 -192 -18 -19 10 -37 26
-40 37 -2 10 -10 15 -16 11 -6 -4 -17 -1 -25 5 -11 10 -15 7 -21 -14 -7 -29
-24 -35 -24 -9 0 20 28 53 46 53 7 0 30 -12 51 -26z m-186 -7 c-10 -9 -11 -8
-5 6 3 10 9 15 12 12 3 -3 0 -11 -7 -18z m-1063 1 c15 -15 15 -25 -1 -31 -17
-6 -51 19 -42 32 8 14 28 14 43 -1z m2382 -17 c0 -11 -5 -23 -11 -27 -6 -3 -9
-14 -6 -24 2 -9 1 -24 -4 -32 -10 -18 11 -41 31 -36 26 6 20 -22 -6 -33 -21
-7 -30 -7 -32 1 -9 26 -33 40 -53 30 -13 -8 -19 -7 -19 0 0 6 11 15 25 20 51
19 17 70 -35 52 -20 -7 -32 -7 -36 -1 -11 19 18 30 79 30 16 0 32 8 40 19 15
25 27 25 27 1z m-3063 -78 c-6 -14 -6 -38 2 -69 7 -25 10 -49 7 -51 -12 -12
-35 133 -28 178 l5 33 11 -35 c8 -22 9 -42 3 -56z m403 35 c0 -41 -18 -43 -25
-4 -8 40 2 67 16 45 5 -8 9 -26 9 -41z m1035 5 c-17 -78 -29 -113 -37 -105 -4
4 -3 22 3 41 6 17 9 35 6 38 -12 11 -37 -7 -37 -27 0 -23 -22 -27 -40 -5 -16
19 -7 31 48 60 60 31 64 31 57 -2z m-845 9 c0 -12 -112 -144 -117 -138 -9 9
87 146 102 146 8 0 15 -4 15 -8z m190 -13 c0 -6 -4 -7 -10 -4 -5 3 -10 11 -10
16 0 6 5 7 10 4 6 -3 10 -11 10 -16z m-78 -19 c-18 -11 -37 -20 -42 -20 -5 0
-14 -9 -20 -20 -9 -17 -8 -20 12 -20 13 0 32 7 42 15 11 8 25 15 30 15 6 0 0
-9 -14 -20 -18 -13 -22 -22 -14 -30 7 -7 24 0 59 26 l48 37 24 -29 c12 -16 23
-34 23 -40 0 -12 -62 -116 -96 -161 -32 -42 -56 -44 -48 -4 10 49 -13 44 -51
-13 -35 -53 -65 -86 -65 -71 0 4 18 32 40 64 61 87 48 112 -24 44 -38 -36 -39
-37 -22 -8 10 17 27 39 37 51 21 23 25 54 7 54 -6 0 -23 -10 -36 -22 l-24 -23
13 28 c10 21 10 33 2 47 -16 25 6 53 70 90 57 33 101 42 49 10z m1128 3 c0 -5
-5 -15 -10 -23 -8 -12 -10 -11 -10 8 0 12 5 22 10 22 6 0 10 -3 10 -7z m-364
-30 c-10 -10 -19 5 -10 18 6 11 8 11 12 0 2 -7 1 -15 -2 -18z m-1136 -2 c5
-11 10 -27 10 -36 0 -14 -3 -14 -30 0 -16 8 -38 15 -50 15 -25 0 -17 18 14 30
33 14 44 12 56 -9z m1230 -30 c0 -6 -4 -13 -10 -16 -5 -3 -10 1 -10 9 0 9 5
16 10 16 6 0 10 -4 10 -9z m676 -15 c10 -8 16 -17 13 -21 -8 -7 -59 15 -59 27
0 13 24 10 46 -6z m-1954 -61 c-2 -9 4 -26 14 -36 15 -17 15 -19 1 -19 -17 0
-28 16 -59 84 l-18 39 32 -26 c19 -14 32 -32 30 -42z m1159 21 c-11 -27 -24
-37 -16 -11 3 8 7 22 10 31 3 9 8 15 11 12 2 -3 0 -17 -5 -32z m59 24 c0 -5
-4 -10 -10 -10 -5 0 -10 5 -10 10 0 6 5 10 10 10 6 0 10 -4 10 -10z m980 -10
c0 -10 -31 -22 -38 -16 -2 3 -2 12 1 20 6 15 37 12 37 -4z m-1522 -2 c18 -18
15 -30 -24 -94 -19 -33 -38 -72 -41 -87 -3 -15 -14 -32 -24 -38 -11 -5 -19
-18 -19 -29 0 -19 32 -36 50 -25 5 3 10 0 10 -8 0 -25 -12 -27 -40 -7 -34 24
-44 25 -60 5 -10 -13 -9 -19 6 -37 l19 -21 -34 18 c-30 15 -35 15 -49 1 -12
-12 -13 -18 -3 -29 9 -12 7 -16 -14 -21 -29 -7 -33 -33 -7 -52 15 -12 16 -13
0 -14 -24 0 -78 49 -78 71 0 30 24 71 94 162 35 45 76 105 91 132 16 28 35 58
43 68 17 20 62 23 80 5z m905 2 c16 0 26 -4 23 -9 -9 -14 -89 -8 -94 8 -3 10
1 12 19 8 13 -4 37 -7 52 -7z m292 0 c3 -5 -1 -10 -10 -10 -9 0 -13 5 -10 10
3 6 8 10 10 10 2 0 7 -4 10 -10z m1059 -5 c-4 -8 -8 -15 -10 -15 -2 0 -4 7 -4
15 0 8 4 15 10 15 5 0 7 -7 4 -15z m-627 -11 c-3 -3 -12 -4 -19 -1 -8 3 -5 6
6 6 11 1 17 -2 13 -5z m463 -36 c0 -13 -27 -9 -40 7 -19 23 -1 39 21 19 10 -9
19 -21 19 -26z m-522 20 c18 -23 41 -127 33 -156 -6 -23 -9 -18 -14 31 -3 32
-15 76 -26 98 -20 37 -15 53 7 27z m843 -41 c-6 -6 -30 -11 -54 -12 -42 0 -42
0 -42 -37 0 -51 -11 -56 -29 -14 -17 41 -38 46 -61 14 -13 -20 -17 -21 -25 -8
-14 22 -12 40 4 40 8 0 24 12 35 26 16 20 24 24 34 15 10 -8 18 -7 32 3 16 12
22 12 41 0 19 -13 24 -12 45 5 24 19 24 19 27 -1 2 -11 -1 -25 -7 -31z m-2151
33 c0 -5 -5 -10 -11 -10 -5 0 -7 5 -4 10 3 6 8 10 11 10 2 0 4 -4 4 -10z m307
-22 c-3 -7 -5 -2 -5 12 0 14 2 19 5 13 2 -7 2 -19 0 -25z m-132 13 c3 -5 1
-12 -5 -16 -5 -3 -10 1 -10 9 0 18 6 21 15 7z m402 -7 c2 -6 -16 -16 -39 -22
-25 -7 -56 -24 -73 -42 -36 -37 -48 -38 -34 -2 20 51 57 80 102 79 22 -1 42
-7 44 -13z m213 6 c0 -5 11 -17 25 -26 21 -14 31 -15 51 -6 22 11 26 9 34 -12
5 -13 14 -27 19 -31 15 -9 14 -47 -2 -69 -12 -16 -15 -14 -41 24 -21 31 -32
41 -47 37 -14 -4 -23 3 -34 22 -7 15 -21 33 -29 40 -22 18 -20 31 4 31 11 0
20 -4 20 -10z m466 -46 c19 -66 13 -83 -9 -22 -8 24 -18 51 -22 61 -4 10 -3
17 4 17 6 0 18 -25 27 -56z m454 35 c0 -5 -4 -9 -10 -9 -5 0 -10 7 -10 16 0 8
5 12 10 9 6 -3 10 -10 10 -16z m-2890 -27 c0 -8 16 -59 36 -114 39 -110 44
-179 6 -96 -19 43 -72 220 -72 242 0 5 7 3 15 -4 8 -7 15 -19 15 -28z m110 28
c0 -5 -2 -10 -4 -10 -3 0 -8 5 -11 10 -3 6 -1 10 4 10 6 0 11 -4 11 -10z m290
-34 c0 -31 -10 -37 -49 -30 -38 8 -39 19 -3 38 39 22 52 19 52 -8z m1537 -59
c21 -41 11 -43 -30 -8 -27 24 -44 31 -76 31 -61 0 -53 25 13 40 35 8 67 -14
93 -63z m208 63 c3 -5 1 -10 -4 -10 -6 0 -11 5 -11 10 0 6 2 10 4 10 3 0 8 -4
11 -10z m785 6 c0 -3 -4 -8 -10 -11 -5 -3 -10 -1 -10 4 0 6 5 11 10 11 6 0 10
-2 10 -4z m-1915 -16 c5 -8 -64 -60 -80 -60 -11 0 -4 30 8 30 6 0 23 9 37 20
30 23 27 22 35 10z m1825 -23 c0 -20 -1 -20 -16 -5 -9 9 -13 21 -9 27 10 16
25 3 25 -22z m-1510 -13 c0 -8 -5 -12 -10 -9 -6 4 -8 11 -5 16 9 14 15 11 15
-7z m984 -16 c-14 -47 -23 -66 -33 -72 -8 -6 -2 33 14 82 8 23 27 13 19 -10z
m-854 -13 c0 -8 -4 -15 -10 -15 -5 0 -10 7 -10 15 0 8 5 15 10 15 6 0 10 -7
10 -15z m-350 -5 c0 -5 -7 -10 -16 -10 -8 0 -12 5 -9 10 3 6 10 10 16 10 5 0
9 -4 9 -10z m605 -20 c21 -22 34 -28 52 -24 26 7 43 -20 24 -39 -8 -8 -17 -6
-33 9 -13 11 -40 28 -61 37 -37 17 -39 16 -67 -5 -35 -25 -35 -26 -14 -49 21
-23 22 -100 4 -154 l-14 -40 -7 78 c-6 71 -10 81 -38 106 -34 31 -38 41 -16
41 8 0 29 13 47 29 30 26 52 36 84 40 5 0 23 -12 39 -29z m-1185 16 c0 -3 -4
-8 -10 -11 -5 -3 -10 -1 -10 4 0 6 5 11 10 11 6 0 10 -2 10 -4z m432 -28 c-9
-9 -12 -7 -12 12 0 19 3 21 12 12 9 -9 9 -15 0 -24z m-647 12 c-3 -5 -11 -10
-16 -10 -6 0 -7 5 -4 10 3 6 11 10 16 10 6 0 7 -4 4 -10z m1894 -12 c-37 -73
-65 -108 -86 -108 -19 0 -23 5 -23 33 0 42 9 52 27 29 12 -14 15 -15 20 -2 7
17 58 70 68 70 3 0 1 -10 -6 -22z m-2072 -10 c-3 -8 -6 -5 -6 6 -1 11 2 17 5
13 3 -3 4 -12 1 -19z m1121 -63 c0 -15 -3 -13 -13 10 -8 17 -14 41 -14 55 0
22 2 21 14 -10 7 -19 13 -44 13 -55z m1372 47 c0 -25 -3 -28 -35 -28 -27 0
-35 4 -35 19 0 10 4 15 10 12 5 -3 20 1 32 9 29 20 28 21 28 -12z m-1476 -50
c29 -75 32 -102 14 -102 -7 0 -24 -3 -38 -6 l-25 -6 23 17 c25 19 20 39 -9 32
-11 -3 -19 -1 -19 4 0 5 5 9 10 9 17 0 11 28 -7 39 -17 9 -17 10 0 16 25 10
21 35 -5 35 -22 1 -23 1 -4 15 11 8 23 15 27 15 4 0 19 -30 33 -68z m1776 59
c0 -25 -102 -62 -115 -41 -10 16 7 31 47 40 46 11 68 11 68 1z m146 -37 c-5
-13 -10 -14 -18 -6 -6 6 -8 18 -4 28 5 13 10 14 18 6 6 -6 8 -18 4 -28z m-298
-1 c-2 -10 -14 -20 -28 -21 -13 -2 -29 -11 -36 -19 -8 -13 -13 -13 -19 -3 -5
8 3 21 21 36 35 28 67 32 62 7z m-2835 -13 c3 -11 1 -18 -4 -14 -5 3 -9 12 -9
20 0 20 7 17 13 -6z m1017 9 c0 -6 -5 -19 -11 -30 -7 -15 -7 -24 2 -35 9 -11
9 -17 -1 -29 -24 -29 -32 -16 -25 38 4 28 9 55 12 60 6 11 23 9 23 -4z m-494
-26 c-10 -10 -19 5 -10 18 6 11 8 11 12 0 2 -7 1 -15 -2 -18z m1919 -5 c-4
-18 -11 -39 -16 -48 -4 -8 -18 -37 -30 -65 -24 -56 -37 -46 -18 12 14 46 57
133 65 133 3 0 2 -14 -1 -32z m-1072 -38 c-4 -21 0 -36 11 -49 16 -17 15 -21
-18 -70 -19 -29 -45 -73 -58 -97 -20 -39 -26 -44 -48 -39 -14 3 -30 13 -36 21
-7 8 -31 18 -55 22 -43 7 -67 32 -31 32 17 0 105 34 151 59 10 5 15 24 16 55
0 39 5 51 30 71 39 32 46 31 38 -5z m1347 -10 c23 -23 25 -36 9 -46 -7 -4 -16
1 -21 10 -5 9 -21 21 -34 27 -14 5 -22 13 -19 19 10 16 44 11 65 -10z m-1176
-32 c-10 -20 -19 -28 -22 -20 -2 7 4 22 14 33 25 27 27 24 8 -13z m775 -5 c0
-10 -9 -36 -19 -58 l-19 -40 0 35 c0 19 2 45 5 58 7 26 34 30 33 5z m-209
-131 c-10 -88 -24 -37 -14 56 7 70 8 73 14 39 4 -22 4 -64 0 -95z m-1262 92
c2 -13 -10 -36 -30 -58 -20 -22 -35 -52 -38 -73 -8 -60 -28 -51 -32 14 -3 62
16 98 47 87 20 -8 31 22 14 42 -11 14 -10 15 11 12 16 -2 26 -10 28 -24z m932
6 c0 -5 -5 -10 -11 -10 -5 0 -7 5 -4 10 3 6 8 10 11 10 2 0 4 -4 4 -10z m-531
-17 c-4 -10 -69 -33 -69 -24 0 6 62 38 68 35 2 -1 2 -6 1 -11z m1344 -35 c-11
-13 -37 -48 -56 -78 -30 -47 -117 -139 -117 -123 0 12 112 176 142 208 37 38
67 31 31 -7z m465 6 c28 -43 21 -56 -13 -24 -18 17 -31 21 -53 17 -38 -8 -47
1 -25 25 27 30 65 23 91 -18z m-2093 -24 c-10 -11 -19 -36 -21 -56 -3 -34 -2
-36 22 -31 l26 5 -20 -21 c-17 -17 -24 -18 -36 -8 -9 8 -27 10 -45 6 -35 -7
-79 11 -63 27 7 7 20 7 42 -1 18 -6 36 -9 40 -6 4 3 13 26 20 52 14 57 29 78
43 64 7 -7 5 -17 -8 -31z m138 15 c1 -6 -18 -11 -43 -12 l-45 -2 35 14 c38 15
51 15 53 0z m1647 -5 c0 -11 -4 -20 -9 -20 -14 0 -23 18 -16 30 10 17 25 11
25 -10z m-1247 -93 c-3 -5 -20 5 -37 22 -18 17 -35 28 -39 25 -4 -4 -7 0 -7
10 0 13 6 15 26 10 21 -5 26 -2 31 17 6 20 9 16 19 -25 7 -28 10 -54 7 -59z
m164 51 c-2 -13 -4 -5 -4 17 -1 22 1 32 4 23 2 -10 2 -28 0 -40z m1273 49 c0
-2 -13 -13 -30 -25 -23 -17 -30 -19 -30 -8 0 11 19 23 58 35 1 1 2 0 2 -2z
m-250 -38 c0 -11 -27 -12 -34 0 -3 4 -3 11 0 14 8 8 34 -3 34 -14z m-2597 -37
c19 -44 22 -66 6 -57 -10 7 -19 26 -33 73 -12 37 9 25 27 -16z m1806 26 c0 -7
-4 -22 -9 -33 -7 -17 -9 -15 -9 13 -1 17 4 32 9 32 6 0 10 -6 9 -12z m1133 -5
c29 -26 21 -33 -20 -19 -25 9 -44 11 -55 4 -11 -6 -17 -5 -17 2 0 11 34 28 59
29 8 1 23 -6 33 -16z m-2778 -83 c4 -23 13 -43 22 -47 15 -5 15 -7 0 -15 -9
-5 -22 -6 -28 -2 -7 4 -26 7 -43 6 -39 -2 -60 11 -51 33 4 11 12 15 24 10 32
-12 37 -10 46 23 13 43 22 40 30 -8z m1105 -16 c-17 -21 -21 -11 -8 22 10 23
13 25 16 11 3 -10 -1 -25 -8 -33z m1621 -6 c0 -22 -29 -4 -39 24 l-11 32 25
-24 c14 -13 25 -27 25 -32z m-1826 26 c9 -8 16 -30 15 -47 l0 -32 -16 23 c-8
12 -21 22 -28 22 -21 0 -36 25 -23 38 16 16 34 15 52 -4z m486 6 c0 -5 -2 -10
-4 -10 -3 0 -8 5 -11 10 -3 6 -1 10 4 10 6 0 11 -4 11 -10z m40 -6 c0 -8 -4
-12 -10 -9 -5 3 -10 10 -10 16 0 5 5 9 10 9 6 0 10 -7 10 -16z m-992 -56 c8
-8 15 -8 26 1 9 7 34 11 65 8 97 -8 77 -35 -22 -31 -59 2 -162 -5 -347 -25
-92 -10 -108 -8 -65 9 93 35 320 61 343 38z m372 3 c0 -5 -7 -11 -15 -15 -15
-5 -20 5 -8 17 9 10 23 9 23 -2z m1960 -1 c0 -5 -2 -10 -4 -10 -3 0 -8 5 -11
10 -3 6 -1 10 4 10 6 0 11 -4 11 -10z m-365 -10 c-3 -5 -11 -10 -16 -10 -6 0
-7 5 -4 10 3 6 11 10 16 10 6 0 7 -4 4 -10z m-1665 -10 c0 -5 -5 -10 -11 -10
-5 0 -7 5 -4 10 3 6 8 10 11 10 2 0 4 -4 4 -10z m274 1 c3 -4 -3 -16 -14 -26
-11 -10 -20 -24 -20 -32 0 -7 -7 -13 -15 -13 -20 0 -19 6 5 30 11 11 20 27 20
35 0 16 16 20 24 6z m116 -30 c0 -6 -4 -13 -10 -16 -5 -3 -10 1 -10 9 0 9 5
16 10 16 6 0 10 -4 10 -9z m96 -39 c-10 -10 -29 15 -21 28 6 9 10 8 17 -4 6
-10 7 -20 4 -24z m1594 28 c0 -13 -20 -13 -40 0 -12 8 -9 10 13 10 15 0 27 -4
27 -10z m-703 -63 c-31 -52 -57 -77 -57 -55 0 8 9 23 20 33 11 10 20 23 20 28
0 13 32 49 38 43 2 -3 -7 -25 -21 -49z m-1902 2 c0 -7 -8 -15 -17 -17 -18 -3
-25 18 -11 32 10 10 28 1 28 -15z m213 2 c3 -8 -1 -12 -9 -9 -7 2 -15 10 -17
17 -3 8 1 12 9 9 7 -2 15 -10 17 -17z m940 7 c-3 -7 -11 -13 -18 -13 -7 0 -15
6 -17 13 -3 7 4 12 17 12 13 0 20 -5 18 -12z m1477 2 c18 -8 17 -9 -7 -9 -16
-1 -28 4 -28 9 0 12 8 12 35 0z m-2301 -35 c25 -20 46 -43 46 -52 0 -11 -11
-6 -39 18 -22 19 -50 42 -63 51 -17 13 -19 17 -7 18 9 0 37 -16 63 -35z m477
0 c0 -11 -140 -45 -146 -35 -9 15 25 32 77 40 61 9 70 8 69 -5z m271 -15 c77
-20 312 -104 423 -152 263 -112 334 -143 331 -146 -5 -4 -308 106 -381 139
-62 27 -225 89 -275 104 -70 20 -134 50 -150 71 -14 17 -14 18 2 6 10 -8 32
-18 50 -22z m-201 -23 c-8 -8 -11 -7 -11 4 0 20 13 34 18 19 3 -7 -1 -17 -7
-23z m1259 19 c0 -2 -8 -10 -17 -17 -16 -13 -17 -12 -4 4 13 16 21 21 21 13z
m-2090 -46 c0 -11 -4 -20 -10 -20 -5 0 -10 9 -10 20 0 11 5 20 10 20 6 0 10
-9 10 -20z m1004 -42 c8 -13 7 -21 -1 -29 -9 -9 -21 -6 -53 15 -35 23 -39 29
-30 47 11 20 12 20 42 2 17 -10 36 -26 42 -35z m-619 -6 c-3 -3 -11 0 -18 7
-9 10 -8 11 6 5 10 -3 15 -9 12 -12z m349 10 c2 -4 -4 -13 -15 -20 -15 -10
-19 -10 -19 1 0 24 23 36 34 19z m-625 -32 c22 -11 58 -22 80 -26 47 -8 60
-19 31 -27 -38 -10 -160 39 -160 64 0 13 6 11 49 -11z m455 -10 c6 -6 4 -11
-5 -15 -16 -6 -112 28 -104 37 8 8 97 -10 109 -22z m556 -20 c0 -5 -4 -10 -10
-10 -5 0 -10 5 -10 10 0 6 5 10 10 10 6 0 10 -4 10 -10z m-796 -40 c7 -7 -1
-10 -21 -10 -17 0 -37 8 -44 17 -13 15 -11 16 21 9 19 -3 39 -11 44 -16z
m-1774 -24 c0 -18 -17 -29 -30 -21 -8 5 -7 11 1 21 15 18 29 18 29 0z m1550
10 c0 -3 -4 -8 -10 -11 -5 -3 -10 -1 -10 4 0 6 5 11 10 11 6 0 10 -2 10 -4z
m2575 -16 c0 -8 -13 -17 -30 -20 -16 -4 -40 -12 -53 -19 -33 -18 -123 -43
-129 -37 -10 10 16 33 50 46 18 6 41 16 52 22 53 29 110 33 110 8z m-4065 -2
c0 -7 11 -28 24 -47 13 -20 27 -47 30 -61 6 -23 5 -24 -6 -5 -7 10 -27 32 -44
48 -23 21 -30 34 -26 53 4 24 22 34 22 12z m2170 -40 c0 -17 -29 -7 -44 14
-24 35 -19 41 14 16 17 -12 30 -25 30 -30z m522 36 c20 -10 27 -19 20 -26 -11
-11 -41 1 -62 26 -17 21 1 21 42 0z m-2832 2 c0 -9 -30 -14 -35 -6 -4 6 3 10
14 10 12 0 21 -2 21 -4z m1743 -15 c63 -17 74 -18 170 -3 162 24 212 21 277
-13 47 -26 57 -36 70 -75 8 -25 23 -57 33 -70 9 -13 17 -33 17 -43 0 -10 15
-32 33 -48 31 -29 32 -30 12 -44 -34 -24 -74 -68 -112 -123 -32 -46 -41 -52
-62 -47 -18 5 -32 -1 -57 -26 -50 -49 -41 -16 11 40 25 26 45 51 45 55 0 19
-35 0 -79 -43 -28 -27 -51 -45 -51 -40 0 13 49 80 73 100 12 10 17 21 12 29
-5 8 -22 -3 -56 -36 -53 -52 -60 -45 -29 25 22 47 20 62 -5 41 -21 -17 -29 -7
-15 20 17 31 4 37 -24 11 -27 -25 -43 -14 -26 18 15 30 -5 35 -31 9 l-21 -23
11 23 c15 28 5 48 -16 31 -8 -7 -23 -30 -35 -52 -14 -29 -23 -36 -31 -28 -8 8
-6 20 6 46 21 43 21 45 2 45 -8 0 -24 -15 -35 -32 -23 -38 -27 -21 -5 22 16
31 3 52 -18 31 -18 -18 -28 -12 -21 14 6 25 -8 35 -21 15 -3 -5 -13 -10 -20
-10 -11 0 -13 8 -8 30 6 32 -12 41 -35 18 -19 -19 -27 0 -9 20 10 10 17 26 17
36 0 14 -4 15 -20 6 -22 -12 -27 -1 -9 17 7 7 9 19 5 29 -6 15 -11 13 -43 -17
-31 -29 -34 -31 -23 -9 21 39 42 70 49 70 3 0 36 -9 74 -19z m-556 -153 c4
-54 3 -78 -5 -78 -11 0 -15 19 -27 105 -2 22 -8 55 -11 72 -3 18 -3 41 1 50
11 27 34 -56 42 -149z m2245 137 c16 -14 35 -25 43 -25 15 0 37 -25 29 -33 -7
-7 -102 27 -116 41 -8 8 -1 42 9 42 3 0 18 -11 35 -25z m479 -15 c11 -6 19
-21 19 -35 0 -31 -7 -31 -44 -1 -40 33 -21 60 25 36z m-1512 -60 c7 0 51 -85
51 -98 -1 -12 -40 39 -40 52 0 7 -18 27 -40 45 -22 17 -40 37 -40 42 0 6 14
-1 31 -15 17 -14 34 -26 38 -26z m660 24 c2 -2 -12 -4 -32 -4 -20 0 -39 5 -42
11 -5 7 5 8 32 3 21 -4 40 -8 42 -10z m511 -13 c0 -14 -18 -23 -30 -16 -6 4
-8 11 -5 16 8 12 35 12 35 0z m-417 -16 c32 -13 58 -35 42 -35 -10 0 -85 40
-85 45 0 7 4 6 43 -10z m354 -27 c29 -11 55 -24 59 -29 9 -16 -46 1 -106 33
-58 30 -41 29 47 -4z m-3067 12 c13 -8 13 -10 -2 -10 -9 0 -20 5 -23 10 -8 13
5 13 25 0z m-223 -37 c8 -23 48 -152 70 -223 11 -38 44 -221 50 -275 10 -105
-14 -49 -36 85 -12 69 -28 143 -36 165 -8 22 -14 50 -15 61 0 12 -11 41 -24
65 -17 30 -22 48 -16 59 6 12 4 24 -5 36 -16 21 -20 54 -6 54 5 0 13 -12 18
-27z m594 6 c20 -20 20 -23 5 -31 -21 -12 -33 -4 -38 27 -6 31 5 32 33 4z
m3107 -7 c2 -7 -3 -12 -12 -12 -9 0 -16 7 -16 16 0 17 22 14 28 -4z m-1361
-18 c-9 -9 -28 6 -21 18 4 6 10 6 17 -1 6 -6 8 -13 4 -17z m-1632 -14 c6 -4
28 -11 50 -15 47 -8 75 -22 75 -36 0 -13 -52 -5 -116 16 -23 8 -51 11 -63 8
-16 -4 -21 -1 -21 15 0 17 6 21 33 20 17 0 37 -4 42 -8z m-240 -18 c28 -10 49
-22 48 -27 -4 -17 -54 -17 -66 -2 -7 9 -21 17 -31 19 -22 3 -34 28 -14 28 7 0
36 -8 63 -18z m-377 -39 c6 -18 9 -33 7 -33 -7 0 -35 58 -35 72 0 19 16 -3 28
-39z m2372 -27 c-5 -5 -11 -8 -12 -5 -2 2 -13 18 -25 35 -30 43 -14 53 19 13
18 -22 24 -37 18 -43z m910 54 c108 -27 210 -64 210 -77 0 -19 -44 -26 -82
-14 -39 13 -222 115 -193 107 11 -3 40 -10 65 -16z m-1920 6 c0 -3 -4 -8 -10
-11 -5 -3 -10 -1 -10 4 0 6 5 11 10 11 6 0 10 -2 10 -4z m-1570 -27 c0 -6 -4
-7 -10 -4 -5 3 -10 11 -10 16 0 6 5 7 10 4 6 -3 10 -11 10 -16z m3378 -10 c70
-35 81 -55 25 -46 -24 4 -50 19 -72 42 -44 43 -32 44 47 4z m792 23 c0 -5 -9
-17 -20 -27 -11 -10 -22 -26 -25 -36 -4 -11 -11 -19 -16 -19 -9 0 13 52 33 78
12 14 28 16 28 4z m-3021 -103 c16 -46 14 -55 -7 -28 -27 35 -34 59 -18 59 8
0 19 -14 25 -31z m1331 1 c0 -14 -14 -12 -28 2 -19 19 -14 30 8 18 11 -6 20
-15 20 -20z m1043 4 c64 -32 65 -33 48 -44 -15 -9 -101 23 -113 43 -22 35 -3
35 65 1z m287 16 c0 -5 -14 -25 -30 -44 -22 -24 -36 -33 -51 -29 -14 4 -30 -5
-54 -32 -36 -38 -49 -39 -58 -5 -4 14 0 23 11 27 51 17 122 57 122 68 0 7 6
16 13 18 21 9 47 7 47 -3z m-1450 -17 c2 -2 5 -27 6 -55 2 -45 5 -52 34 -69
22 -14 30 -26 28 -41 -3 -24 -28 -37 -28 -15 0 12 -10 14 -40 11 -23 -2 -50
-9 -61 -15 -14 -7 -24 -8 -31 -1 -7 7 3 17 30 31 53 27 59 39 33 64 -17 18
-21 19 -21 5 0 -9 -7 -19 -16 -22 -23 -9 -24 -8 -24 12 0 10 -3 22 -7 26 -7 7
-83 -63 -83 -77 0 -30 -122 -138 -138 -122 -4 3 -2 9 4 13 48 32 108 92 130
130 15 26 45 68 67 95 38 44 43 47 76 41 20 -4 38 -9 41 -11z m1568 -8 c14
-31 15 -45 4 -45 -5 0 -13 16 -19 35 -13 40 -2 47 15 10z m-2298 6 c0 -6 -4
-13 -10 -16 -5 -3 -10 1 -10 9 0 9 5 16 10 16 6 0 10 -4 10 -9z m-1721 -155
c1 -55 -8 -40 -25 40 -17 86 -17 89 6 39 10 -22 19 -58 19 -79z m1351 88 c22
-15 40 -30 40 -35 0 -5 13 -23 28 -41 16 -18 34 -49 41 -68 10 -30 9 -36 -9
-54 l-20 -20 0 27 c0 15 -13 57 -29 92 -22 49 -35 65 -50 65 -18 0 -51 34 -51
52 0 13 8 10 50 -18z m1608 -10 c-4 -3 -12 5 -18 18 -12 22 -12 22 6 6 10 -10
15 -20 12 -24z m-2888 -78 c0 -34 -18 -4 -24 39 l-6 40 15 -30 c8 -16 14 -39
15 -49z m1718 19 c155 -45 236 -95 154 -95 -30 0 -77 -27 -96 -56 -7 -10 -18
-37 -25 -60 -12 -37 -11 -46 9 -92 35 -82 86 -119 156 -113 14 1 31 -11 48
-31 14 -18 37 -44 50 -58 18 -18 24 -35 23 -62 -1 -35 -17 -56 -17 -23 0 17
-16 20 -25 5 -8 -13 -25 -13 -25 0 0 6 10 15 23 19 20 8 20 10 4 16 -10 4 -16
14 -13 21 5 14 -31 40 -42 30 -3 -4 -1 -21 6 -39 6 -17 9 -58 7 -89 -4 -48 -2
-58 11 -58 9 0 14 -6 11 -12 -2 -7 -11 -12 -21 -10 -9 2 -16 -2 -16 -8 0 -5 7
-10 16 -10 9 0 12 -5 8 -12 -4 -6 -9 -66 -10 -132 -2 -135 -9 -176 -30 -176
-18 0 -18 -16 0 -23 24 -9 -6 -83 -32 -79 -30 4 -51 -32 -46 -81 2 -23 1 -33
-2 -22 -3 11 -10 24 -15 29 -13 14 -39 -13 -39 -43 0 -14 -5 -33 -11 -41 -7
-11 -9 -3 -8 30 1 25 -1 55 -5 68 -5 14 -3 29 4 37 9 11 9 23 1 46 -6 18 -11
45 -11 61 0 16 -4 38 -10 48 -5 10 -12 85 -15 165 -3 98 -13 181 -27 249 -36
162 -31 350 13 520 12 45 2 63 -28 48 -24 -13 -41 -79 -49 -197 -4 -52 -11
-98 -15 -101 -11 -6 -10 -13 -18 171 -5 136 -8 150 -25 153 -10 2 -22 -2 -27
-10 -6 -9 -9 -2 -9 21 l0 34 43 -7 c23 -4 79 -18 125 -31z m-1408 -1 c0 -8 -4
-12 -10 -9 -5 3 -10 13 -10 21 0 8 5 12 10 9 6 -3 10 -13 10 -21z m560 -43 c0
-32 -6 -24 -14 19 -4 25 -3 31 4 20 5 -8 10 -26 10 -39z m2270 21 c0 -15 -2
-15 -10 -2 -13 20 -13 33 0 25 6 -3 10 -14 10 -23z m-3050 -27 c0 -8 -2 -15
-4 -15 -2 0 -6 7 -10 15 -3 8 -1 15 4 15 6 0 10 -7 10 -15z m2728 -38 c16 -70
15 -77 -8 -77 -23 0 -24 4 -10 30 7 13 6 21 -5 30 -12 10 -13 16 -3 28 10 12
11 16 0 19 -6 3 -10 9 -6 14 11 19 20 7 32 -44z m-2481 -9 c-3 -8 -6 -5 -6 6
-1 11 2 17 5 13 3 -3 4 -12 1 -19z m2133 -9 c16 -28 49 -157 51 -199 3 -43
-17 -84 -37 -76 -8 3 -17 -1 -20 -9 -9 -23 -71 -30 -93 -11 -10 9 -27 16 -38
16 -11 0 -28 11 -36 23 -21 32 -125 71 -166 62 -24 -5 -31 -3 -31 9 0 12 10
16 38 16 20 0 45 6 54 13 9 8 32 11 53 9 33 -4 36 -7 30 -29 -5 -21 -3 -24 17
-21 19 2 24 10 26 40 4 47 -12 53 -140 50 -66 -2 -98 1 -98 8 0 7 8 9 21 5 30
-10 69 3 69 21 0 13 -7 15 -32 10 -19 -4 -28 -3 -23 2 14 13 106 42 115 37 4
-3 36 6 71 20 82 31 154 33 169 4z m-2596 -41 c3 -16 2 -28 -3 -28 -10 0 -21
47 -13 55 7 7 8 5 16 -27z m1411 10 c14 -6 24 -16 22 -22 -7 -20 -25 -16 -41
9 -19 28 -17 30 19 13z m225 -41 c0 -19 -4 -27 -12 -25 -15 5 -22 42 -13 66 5
14 7 14 15 2 6 -8 10 -28 10 -43z m-1513 -9 c-3 -7 -5 -2 -5 12 0 14 2 19 5
13 2 -7 2 -19 0 -25z m450 -5 c-3 -10 -5 -4 -5 12 0 17 2 24 5 18 2 -7 2 -21
0 -30z m1128 -110 c3 -53 1 -84 -6 -89 -18 -10 -30 18 -24 54 4 24 2 32 -8 32
-8 0 -18 7 -21 16 -5 14 -4 15 9 4 23 -19 28 -7 27 62 -1 54 1 59 9 33 5 -16
11 -67 14 -112z m355 117 c0 -5 -7 -10 -16 -10 -8 0 -12 5 -9 10 3 6 10 10 16
10 5 0 9 -4 9 -10z m-100 -10 c0 -5 -4 -10 -10 -10 -5 0 -10 5 -10 10 0 6 5
10 10 10 6 0 10 -4 10 -10z m190 -10 c0 -21 -15 -27 -25 -10 -7 12 2 30 16 30
5 0 9 -9 9 -20z m740 5 c-13 -16 -40 -20 -40 -7 0 14 12 22 33 22 16 0 17 -3
7 -15z m-2400 -14 c0 -6 -4 -13 -10 -16 -5 -3 -10 1 -10 9 0 9 5 16 10 16 6 0
10 -4 10 -9z m-353 -38 c-3 -10 -5 -4 -5 12 0 17 2 24 5 18 2 -7 2 -21 0 -30z
m1333 19 c0 -13 -12 -22 -22 -16 -10 6 -1 24 13 24 5 0 9 -4 9 -8z m-1230 -42
c0 -11 -2 -20 -4 -20 -2 0 -6 9 -9 20 -3 11 -1 20 4 20 5 0 9 -9 9 -20z m649
-28 c0 -15 -4 -36 -9 -47 -6 -15 -9 -6 -9 33 -1 33 3 51 9 47 6 -3 10 -18 9
-33z m2026 29 c3 -6 -3 -15 -14 -21 -21 -11 -37 2 -26 20 8 13 32 13 40 1z
m-730 -11 c3 -5 -1 -10 -9 -10 -8 0 -24 -10 -36 -22 -25 -27 -26 -16 -2 17 18
26 37 32 47 15z m-747 -40 c6 -16 7 -30 3 -30 -8 0 -31 44 -31 61 0 19 18 -1
28 -31z m66 5 c3 -8 1 -15 -4 -15 -6 0 -10 7 -10 15 0 8 2 15 4 15 2 0 6 -7
10 -15z m818 -54 c69 -20 82 -31 37 -31 -19 0 -49 9 -67 20 -18 11 -41 20 -51
20 -28 0 -52 11 -46 20 3 5 20 4 38 -2 17 -5 58 -18 89 -27z m-1935 -3 c-3 -7
-5 -2 -5 12 0 14 2 19 5 13 2 -7 2 -19 0 -25z m1228 -50 c4 -40 7 -100 7 -132
-1 -33 5 -71 14 -87 7 -15 10 -30 5 -33 -19 -12 -32 27 -36 106 -2 46 -7 116
-11 157 -4 50 -3 72 4 67 5 -3 13 -39 17 -78z m629 -19 c24 -35 25 -39 7 -29
-11 6 -31 8 -45 4 -30 -7 -39 7 -25 40 17 36 32 33 63 -15z m406 26 c16 -20
17 -82 1 -98 -11 -9 -14 -9 -18 1 -7 17 -27 15 -46 -6 -14 -15 -15 -24 -5 -55
10 -33 9 -40 -10 -60 -45 -47 -13 -78 37 -37 19 17 23 27 18 55 -3 19 -2 37 3
40 9 6 17 -33 25 -135 7 -72 54 -307 99 -494 l22 -89 -25 -48 c-22 -42 -24
-51 -13 -69 7 -12 10 -25 6 -31 -11 -19 27 -49 63 -49 26 0 33 -4 33 -19 0
-21 -39 -36 -54 -21 -33 33 -48 -24 -26 -99 12 -43 7 -49 -20 -23 -16 15 -20
29 -18 62 2 24 -1 44 -7 46 -14 4 -57 -66 -51 -82 3 -7 1 -16 -4 -19 -6 -4
-15 6 -20 20 -9 23 -14 26 -41 20 -29 -7 -30 -5 -27 21 2 23 14 34 63 59 67
36 79 61 28 59 -34 -2 -44 10 -18 20 8 3 15 13 15 22 0 13 -6 15 -30 11 -40
-9 -38 -1 5 17 52 22 45 40 -12 32 -27 -4 -56 -9 -65 -12 -32 -9 -19 16 17 33
44 21 45 41 3 45 l-33 4 28 12 c38 16 29 38 -14 35 l-34 -3 23 19 c29 25 28
39 -5 43 -32 4 -82 80 -75 114 4 24 -23 40 -43 24 -8 -7 -15 -3 -24 16 -10 23
-9 30 9 49 25 27 25 35 -1 35 -18 0 -19 3 -9 15 16 20 2 38 -26 32 -29 -5 -31
8 -4 23 30 16 25 40 -8 40 -15 0 -33 -5 -40 -12 -9 -9 -12 -9 -12 3 0 8 15 19
32 24 43 13 51 45 11 46 -28 1 -28 1 5 10 28 8 32 12 21 25 -8 10 -21 13 -41
9 -41 -10 -34 10 9 23 29 9 40 9 53 -2 16 -14 109 -46 134 -46 18 0 40 36 31
50 -3 6 -17 10 -31 10 -32 0 -85 23 -103 44 -12 14 -11 19 4 36 10 11 15 28
12 39 -3 11 0 22 6 24 6 2 -22 21 -63 43 -84 45 -103 69 -46 59 20 -4 44 -4
53 1 31 13 76 12 99 -2 26 -18 68 -5 102 32 26 28 35 29 52 9z m-973 -92 c-3
-10 -5 -4 -5 12 0 17 2 24 5 18 2 -7 2 -21 0 -30z m-1247 -14 c0 -10 -4 -19
-10 -19 -5 0 -10 12 -10 26 0 14 4 23 10 19 6 -3 10 -15 10 -26z m1828 -25
c-3 -14 -5 -12 -10 9 -3 19 -2 25 4 19 6 -6 8 -18 6 -28z m-2159 9 c0 -5 -4
-17 -9 -28 -8 -18 -9 -17 -9 8 -1 15 4 27 9 27 6 0 10 -3 9 -7z m2243 -48 c4
-17 1 -25 -9 -25 -17 0 -27 25 -19 46 8 21 22 10 28 -21z m347 -12 c5 -21 20
-83 31 -138 23 -102 93 -400 111 -468 11 -40 6 -58 -10 -41 -5 5 -21 59 -35
119 -14 61 -41 170 -61 244 -30 112 -65 281 -65 312 0 25 20 4 29 -28z m156
17 c-27 -12 -43 -12 -25 0 8 5 22 9 30 9 10 0 8 -3 -5 -9z m-1168 -32 c-3 -8
-6 -5 -6 6 -1 11 2 17 5 13 3 -3 4 -12 1 -19z m-1587 -14 c0 -8 -4 -12 -10 -9
-5 3 -10 13 -10 21 0 8 5 12 10 9 6 -3 10 -13 10 -21z m457 -13 c22 -6 63 -9
89 -6 56 7 259 -12 286 -26 32 -17 10 -29 -53 -27 -43 1 -63 6 -69 17 -7 13
-12 14 -29 4 -25 -16 -87 -17 -97 -2 -4 6 -20 8 -38 5 -18 -4 -35 -3 -39 0
-10 10 -101 12 -120 2 -13 -7 -23 -3 -37 14 -27 32 -25 41 9 33 18 -4 32 -2
36 5 5 8 10 9 14 2 3 -5 25 -15 48 -21z m-741 -69 c-13 -12 -17 8 -10 40 l9
33 3 -33 c2 -19 1 -36 -2 -40z m502 56 c-3 -7 -20 -16 -39 -19 -19 -4 -51 -14
-71 -23 -21 -9 -52 -16 -70 -16 -22 0 -41 -9 -57 -26 -18 -19 -31 -24 -49 -19
-15 4 -31 0 -41 -9 -19 -17 -218 -29 -227 -14 -4 6 1 17 9 26 13 12 19 13 31
3 26 -22 176 2 176 29 0 5 11 10 24 10 17 0 27 8 34 28 9 24 11 24 11 5 1 -33
14 -35 78 -14 32 11 77 23 100 26 24 4 45 11 49 16 8 14 46 11 42 -3z m1125
-50 c3 -32 2 -58 -2 -58 -10 0 -21 88 -14 107 8 20 10 14 16 -49z m268 -73 c4
-49 11 -102 15 -117 8 -34 -12 -38 -25 -5 -12 29 -28 205 -22 236 l4 25 10
-25 c5 -13 13 -64 18 -114z m652 109 c12 -13 -3 -21 -28 -17 -13 3 -22 9 -19
14 6 10 38 12 47 3z m-728 -65 c-5 -16 -3 -20 12 -17 12 2 19 -4 21 -19 4 -25
-7 -30 -27 -10 -10 10 -12 8 -9 -11 1 -12 8 -22 13 -20 11 2 22 -39 24 -89 1
-30 -2 -33 -28 -33 -18 0 -31 -6 -36 -17 -6 -16 -8 -15 -17 7 -5 13 -7 34 -4
46 4 13 0 27 -9 34 -22 18 -19 67 5 82 11 7 20 16 20 20 0 4 4 19 10 33 11 30
34 24 25 -6z m1195 -14 c-6 -15 -13 -25 -17 -21 -3 3 0 17 7 31 7 14 15 23 17
21 2 -2 -1 -16 -7 -31z m365 15 c-3 -5 -11 -10 -17 -10 -6 0 -20 -7 -30 -17
-10 -9 -21 -13 -24 -10 -4 3 9 15 27 26 37 23 54 27 44 11z m-1708 -22 c-3 -8
-6 -5 -6 6 -1 11 2 17 5 13 3 -3 4 -12 1 -19z m1743 -24 c0 -5 -120 -84 -128
-84 -4 0 16 21 43 48 30 28 57 46 68 43 9 -2 17 -5 17 -7z m-1753 -26 c-3 -8
-6 -5 -6 6 -1 11 2 17 5 13 3 -3 4 -12 1 -19z m61 -228 c1 -22 0 -23 -11 -8
-8 10 -11 32 -8 55 l5 38 7 -30 c4 -16 7 -41 7 -55z m192 76 c0 -3 -4 -8 -10
-11 -5 -3 -10 -1 -10 4 0 6 5 11 10 11 6 0 10 -2 10 -4z m527 -48 c-3 -7 -5
-2 -5 12 0 14 2 19 5 13 2 -7 2 -19 0 -25z m-1947 -8 c0 -5 -5 -10 -11 -10 -5
0 -7 5 -4 10 3 6 8 10 11 10 2 0 4 -4 4 -10z m1375 -111 c-19 -21 -35 -43 -35
-47 0 -24 58 -45 61 -22 1 6 2 15 3 20 0 6 6 9 11 8 6 -2 9 -12 7 -23 -1 -11
-4 -29 -5 -40 -1 -11 -6 -25 -10 -32 -4 -6 -2 -13 4 -15 6 -2 13 -26 15 -53
l3 -50 -10 48 c-7 28 -17 47 -25 47 -8 0 -14 10 -14 21 0 12 -11 32 -25 45
-14 13 -25 33 -25 45 0 23 60 98 73 92 4 -3 -8 -22 -28 -44z m-113 0 c-4 -13
-10 -96 -12 -149 -1 -24 -2 -24 -10 -4 -12 31 0 176 14 171 6 -3 9 -11 8 -18z
m729 -116 c-9 -15 -10 -12 -10 17 0 29 1 32 10 18 7 -12 7 -24 0 -35z m-841
19 c0 -13 -12 -22 -22 -16 -10 6 -1 24 13 24 5 0 9 -4 9 -8z m853 -264 c-11
-93 -23 -46 -22 85 l2 132 13 -85 c7 -47 10 -106 7 -132z m-791 128 c-6 -48
-12 -46 -12 5 0 22 4 38 8 35 4 -3 6 -21 4 -40z m1338 35 c0 -6 -4 -13 -10
-16 -5 -3 -10 1 -10 9 0 9 5 16 10 16 6 0 10 -4 10 -9z m-930 -55 c-7 -7 -10
1 -9 25 0 32 1 33 10 10 6 -16 6 -28 -1 -35z m-363 -18 c-2 -13 -4 -3 -4 22 0
25 2 35 4 23 2 -13 2 -33 0 -45z m170 -50 c-2 -13 -4 -5 -4 17 -1 22 1 32 4
23 2 -10 2 -28 0 -40z m144 29 c-13 -13 -26 -3 -16 12 3 6 11 8 17 5 6 -4 6
-10 -1 -17z m1460 13 c10 -6 19 -14 19 -18 0 -4 -24 -20 -53 -35 -46 -24 -58
-26 -82 -17 -33 13 -82 4 -107 -17 -10 -9 -24 -13 -32 -10 -8 3 -22 0 -32 -7
-9 -7 -25 -11 -34 -9 -9 3 -24 -3 -33 -11 -10 -10 -18 -12 -22 -6 -12 20 -36
9 -50 -22 l-14 -33 -2 40 c-1 22 -2 49 -3 60 -1 25 27 39 129 61 153 33 280
42 316 24z m-1386 -99 c9 -46 14 -86 11 -89 -6 -6 -10 4 -25 70 -11 48 -15
115 -6 106 3 -2 12 -42 20 -87z m625 49 c0 -5 -2 -10 -4 -10 -3 0 -8 5 -11 10
-3 6 -1 10 4 10 6 0 11 -4 11 -10z m-560 -10 c0 -5 -2 -10 -4 -10 -3 0 -8 5
-11 10 -3 6 -1 10 4 10 6 0 11 -4 11 -10z m76 -121 c-6 -50 -6 -51 18 -45 l24
6 -25 -73 c-21 -62 -57 -116 -70 -104 -9 9 10 35 29 40 16 4 19 10 13 24 -9
20 -8 180 1 194 12 20 16 6 10 -42z m764 -8 c0 -25 -3 -28 -25 -23 -29 5 -32
19 -7 38 26 20 32 17 32 -15z m117 7 c-3 -8 -6 -5 -6 6 -1 11 2 17 5 13 3 -3
4 -12 1 -19z m-617 -18 c0 -5 -7 -10 -15 -10 -8 0 -15 5 -15 10 0 6 7 10 15
10 8 0 15 -4 15 -10z m-599 -95 c4 -5 10 -41 14 -79 6 -50 5 -67 -4 -62 -6 4
-11 20 -11 35 0 15 -7 50 -15 77 -8 27 -14 63 -14 79 l1 30 12 -35 c6 -19 14
-39 17 -45z m1109 20 c0 -32 -2 -35 -30 -35 -37 0 -41 30 -7 53 32 23 37 21
37 -18z m-517 10 c1 -5 -7 -10 -18 -10 -15 0 -19 -6 -18 -22 2 -17 -3 -23 -16
-23 -10 0 -34 -2 -52 -5 -28 -5 -30 -4 -14 5 11 5 31 23 45 40 24 29 68 38 73
15z m97 0 c7 4 14 -2 17 -14 5 -21 6 -22 128 -26 19 -1 30 -6 30 -15 0 -11
-15 -14 -65 -13 -61 2 -67 0 -93 -29 -21 -23 -31 -28 -37 -19 -4 7 -18 18 -31
25 -20 10 -23 18 -21 46 4 39 30 64 49 48 7 -5 17 -7 23 -3z m-247 -56 c-8 -8
-16 -8 -30 0 -16 9 -14 10 12 11 21 0 26 -3 18 -11z m651 -20 c10 9 16 9 21 1
5 -8 11 -8 21 1 8 6 17 9 21 5 11 -11 -30 -44 -64 -51 -29 -6 -34 -3 -43 19
-8 23 -12 24 -39 15 -17 -6 -36 -9 -43 -6 -10 3 -9 6 2 9 8 3 29 10 45 15 23
7 34 6 47 -5 14 -12 21 -12 32 -3z m-517 -35 c5 -14 -96 -25 -117 -13 -12 7
-10 8 7 9 12 0 25 5 28 11 9 13 77 8 82 -7z m-147 -4 c11 -7 7 -10 -18 -10
-20 0 -31 4 -27 10 8 13 26 13 45 0z m140 -70 c0 -23 -4 -24 -31 -9 -23 12
-16 29 12 29 12 0 19 -7 19 -20z m-400 -5 c0 -8 -7 -15 -15 -15 -16 0 -20 12
-8 23 11 12 23 8 23 -8z m275 5 c4 -6 -7 -10 -27 -10 -25 0 -29 3 -18 10 19
13 37 13 45 0z m-564 -76 c6 -7 4 -16 -5 -23 -17 -15 -26 5 -25 57 l1 37 10
-30 c6 -16 15 -35 19 -41z m567 4 c-4 -11 -68 -18 -68 -7 0 12 15 19 43 19 17
0 27 -5 25 -12z m-274 -56 c-4 -21 -16 -36 -35 -46 -18 -9 -29 -10 -29 -4 0 6
-6 6 -15 -2 -18 -15 -18 -10 -5 24 5 15 17 26 28 26 11 0 24 12 31 27 16 34
33 17 25 -25z m126 -1 c0 -10 -50 -25 -57 -17 -3 2 -2 9 2 15 8 13 55 15 55 2z
m70 0 c0 -18 -17 -20 -36 -6 -18 14 -18 14 9 15 15 0 27 -4 27 -9z m42 -111
c-4 -96 -13 -141 -24 -134 -6 4 -42 6 -79 5 -43 -1 -69 2 -69 8 0 10 56 16
101 12 26 -3 44 26 29 44 -7 8 -20 15 -29 15 -14 1 -14 3 2 15 34 25 17 49
-38 55 -43 5 -46 7 -22 13 60 15 77 17 77 7 0 -5 5 -10 10 -10 6 0 10 7 10 16
0 9 7 14 18 12 14 -3 17 -13 14 -58z m-266 10 c15 0 24 -6 24 -15 0 -8 -7 -15
-15 -15 -9 0 -18 -6 -21 -14 -5 -12 -11 -13 -30 -4 -25 12 -28 19 -18 55 5 20
8 20 21 8 8 -8 25 -15 39 -15z m421 -7 c-3 -10 -5 -4 -5 12 0 17 2 24 5 18 2
-7 2 -21 0 -30z m-582 -33 c-3 -5 -12 -10 -20 -10 -8 0 -17 5 -20 10 -4 6 5
10 20 10 15 0 24 -4 20 -10z m318 -17 c-13 -2 -33 -2 -45 0 -13 2 -3 4 22 4
25 0 35 -2 23 -4z m-119 -164 c5 -97 3 -151 -5 -179 -14 -45 -21 -48 -49 -20
-11 11 -29 20 -39 20 -11 0 -23 5 -26 10 -3 6 -27 10 -51 10 -70 0 -52 25 18
26 74 2 90 9 86 36 -3 21 -9 23 -80 26 -99 4 -102 22 -4 22 85 0 112 16 82 48
-20 23 -20 29 -1 48 39 39 6 56 -93 49 -38 -3 -62 -1 -62 5 0 11 48 15 117 12
33 -2 43 1 47 16 5 14 13 18 30 15 22 -5 23 -9 30 -144z m-117 25 c-10 -10
-97 -12 -97 -3 0 5 23 9 52 9 28 0 49 -3 45 -6z m233 -16 c0 -13 -43 -6 -47 8
-2 7 6 10 22 7 14 -3 25 -10 25 -15z m90 7 c0 -8 -4 -15 -10 -15 -5 0 -10 7
-10 15 0 8 5 15 10 15 6 0 10 -7 10 -15z m-33 -1 c-3 -3 -12 -4 -19 -1 -8 3
-5 6 6 6 11 1 17 -2 13 -5z m485 -76 c-7 -7 -12 -8 -12 -2 0 14 12 26 19 19 2
-3 -1 -11 -7 -17z m-472 8 c0 -25 -14 -31 -65 -28 -49 4 -64 10 -51 23 6 6
116 11 116 5z m-25 -86 c3 -5 2 -17 -3 -26 -8 -14 -10 -12 -14 10 -5 26 5 35
17 16z m2295 -74 c14 -2 44 -4 68 -5 30 -1 42 -5 42 -16 0 -13 -18 -14 -117
-11 -65 2 -133 4 -150 5 -23 1 -33 6 -33 17 0 12 7 15 28 12 15 -3 41 -1 57 3
17 4 41 5 55 3 14 -3 36 -7 50 -8z m-1815 -63 c3 -21 1 -69 -5 -108 -6 -38
-14 -89 -17 -113 -3 -23 -10 -45 -14 -48 -5 -3 -9 -16 -9 -29 0 -23 -16 -42
-26 -32 -3 2 2 23 10 46 8 23 12 54 10 69 -4 34 27 252 37 252 4 0 10 -17 14
-37z m1950 -29 c33 -8 65 -20 70 -26 7 -7 2 -9 -15 -4 -163 41 -394 35 -670
-18 -107 -20 -215 -44 -240 -52 -41 -13 -337 -84 -350 -84 -20 1 46 26 170 65
80 26 177 57 215 70 39 13 113 31 165 40 52 9 113 21 135 26 66 14 450 2 520
-17z m-597 -115 c-2 -6 -8 -10 -13 -10 -5 0 -11 4 -13 10 -2 6 4 11 13 11 9 0
15 -5 13 -11z m-638 -79 c-8 -5 -19 -10 -25 -10 -5 0 -3 5 5 10 8 5 20 10 25
10 6 0 3 -5 -5 -10z m-50 -20 c-8 -5 -19 -10 -25 -10 -5 0 -3 5 5 10 8 5 20
10 25 10 6 0 3 -5 -5 -10z m-50 -15 c0 -6 -179 -62 -225 -70 l-40 -6 50 25
c28 14 59 26 70 26 11 0 43 7 70 14 54 15 75 19 75 11z m600 -9 c0 -16 -24
-38 -33 -30 -8 9 11 44 23 44 6 0 10 -6 10 -14z m44 -1 c-4 -8 -11 -15 -16
-15 -6 0 -5 6 2 15 7 8 14 15 16 15 2 0 1 -7 -2 -15z m714 -8 c18 7 151 -17
158 -28 6 -11 -76 -6 -94 5 -6 3 -13 2 -17 -4 -4 -6 -10 -8 -15 -5 -13 8 -241
9 -279 0 -21 -4 -31 -4 -27 3 6 10 68 20 167 27 28 2 54 6 56 9 3 3 13 2 22
-3 9 -5 22 -6 29 -4z m-1181 -3 c-3 -3 -12 -4 -19 -1 -8 3 -5 6 6 6 11 1 17
-2 13 -5z m373 -9 c0 -7 -7 -15 -15 -19 -8 -3 -15 -1 -15 5 0 13 -39 2 -63
-19 -9 -8 -20 -12 -24 -9 -3 4 -12 2 -19 -4 -8 -6 -21 -8 -30 -5 -9 4 -23 1
-30 -5 -10 -8 -14 -8 -14 -1 0 24 107 68 168 69 28 1 42 -3 42 -12z m517 -20
c-2 -5 -18 -10 -35 -11 -17 0 -34 -3 -38 -6 -3 -4 -17 -2 -31 3 -19 7 -30 6
-42 -4 -18 -16 -106 -17 -106 -2 0 6 29 15 65 21 80 14 192 14 187 -1z m-1356
-26 c8 -1 3 -4 -11 -8 -32 -10 -40 -5 -40 21 0 20 1 20 18 5 10 -10 25 -17 33
-18z m-627 -19 c-5 -4 -18 -4 -29 0 -19 8 -19 9 3 9 12 1 22 7 23 14 0 9 2 8
6 -1 3 -8 1 -17 -3 -22z m1706 16 c0 -8 -8 -15 -17 -15 -10 0 -25 -1 -33 -3
-8 -2 -16 2 -18 7 -1 6 12 13 30 16 18 4 34 7 36 8 1 0 2 -5 2 -13z m-470 -11
c-7 -8 -16 -15 -21 -15 -5 0 -9 7 -9 15 0 9 9 15 21 15 18 0 19 -2 9 -15z
m-865 -99 c2 -47 0 -88 -5 -91 -5 -3 -9 38 -9 91 -1 118 9 118 14 0z m481 78
c-3 -9 -6 -20 -6 -25 0 -5 -7 -9 -16 -9 -11 0 -14 5 -10 16 3 9 6 20 6 25 0 5
7 9 16 9 11 0 14 -5 10 -16z m325 -7 c-13 -13 -26 -3 -16 12 3 6 11 8 17 5 6
-4 6 -10 -1 -17z m429 3 c-6 -11 -13 -20 -15 -20 -3 0 -5 9 -5 20 0 11 7 20
15 20 13 0 14 -4 5 -20z m-468 -5 c0 -5 -5 -11 -11 -13 -6 -2 -11 4 -11 13 0
9 5 15 11 13 6 -2 11 -8 11 -13z m418 5 c0 -5 -5 -10 -11 -10 -5 0 -7 5 -4 10
3 6 8 10 11 10 2 0 4 -4 4 -10z m635 -1 c9 -13 7 -15 -27 -23 -24 -5 -28 -3
-28 14 0 15 7 20 24 20 14 0 28 -5 31 -11z m-1955 -14 c0 -8 -4 -15 -9 -15
-13 0 -22 16 -14 24 11 11 23 6 23 -9z m1290 11 c0 -3 -4 -8 -10 -11 -5 -3
-10 -1 -10 4 0 6 5 11 10 11 6 0 10 -2 10 -4z m579 -23 c0 -25 -1 -26 -9 -8
-12 27 -12 35 0 35 6 0 10 -12 9 -27z m-1374 7 c-3 -5 -11 -10 -16 -10 -6 0
-7 5 -4 10 3 6 11 10 16 10 6 0 7 -4 4 -10z m355 0 c0 -5 -2 -10 -4 -10 -3 0
-8 5 -11 10 -3 6 -1 10 4 10 6 0 11 -4 11 -10z m390 2 c0 -12 -28 -48 -33 -42
-8 8 11 50 23 50 5 0 10 -4 10 -8z m593 -13 c-7 -25 -23 -35 -23 -15 0 24 -17
19 -25 -6 -6 -20 -8 -21 -12 -5 -8 29 2 42 35 44 25 2 29 -1 25 -18z m-4463
-4 c42 -4 83 -10 90 -16 22 -13 -125 -11 -171 3 -41 12 -55 32 -16 24 12 -3
56 -8 97 -11z m327 -5 c14 0 49 -11 77 -23 45 -21 68 -24 189 -25 86 -1 161
-8 197 -17 59 -15 182 -16 555 -1 102 3 126 2 90 -4 -170 -32 -430 -45 -566
-30 -52 6 -150 16 -219 21 -228 17 -406 37 -505 58 -36 7 -37 8 -15 14 74 16
128 22 148 15 13 -4 35 -8 49 -8z m4003 13 c0 -5 -9 -19 -20 -33 l-20 -25 0
24 c0 23 -1 24 -20 6 -19 -18 -20 -17 -20 3 0 20 8 23 68 31 6 0 12 -2 12 -6z
m50 3 c0 -16 -21 -56 -30 -56 -11 0 -14 43 -3 53 7 8 33 10 33 3z m-1340 -26
c0 -11 -4 -20 -9 -20 -5 0 -7 9 -4 20 3 11 7 20 9 20 2 0 4 -9 4 -20z m362 5
c0 -5 -5 -11 -11 -13 -6 -2 -11 4 -11 13 0 9 5 15 11 13 6 -2 11 -8 11 -13z
m319 -18 c-8 -8 -11 -7 -11 4 0 20 13 34 18 19 3 -7 -1 -17 -7 -23z m-31 13
c0 -5 -4 -10 -10 -10 -5 0 -10 5 -10 10 0 6 5 10 10 10 6 0 10 -4 10 -10z
m540 0 c0 -6 -12 -15 -27 -21 -14 -5 -32 -17 -39 -27 -12 -16 -13 -15 -14 5 0
16 -5 20 -20 16 -30 -8 -24 14 8 25 36 14 92 15 92 2z m-1980 -5 c0 -9 -44
-23 -54 -17 -5 3 -1 9 10 13 23 9 44 11 44 4z m1410 -9 c0 -7 -6 -21 -14 -31
-13 -18 -14 -18 -31 -2 -13 14 -20 15 -31 6 -7 -6 -18 -8 -24 -4 -6 4 -18 -1
-26 -11 -12 -15 -17 -16 -21 -6 -4 10 -11 8 -28 -8 -16 -15 -25 -18 -30 -10
-9 15 35 62 52 56 7 -3 15 -1 19 5 3 6 12 8 20 5 7 -3 16 -2 18 3 9 13 96 11
96 -3z m-1025 -16 c3 -11 4 -29 0 -40 -5 -16 -9 -18 -26 -7 -22 13 -25 37 -7
55 17 17 26 15 33 -8z m685 10 c0 -5 -4 -10 -10 -10 -5 0 -10 5 -10 10 0 6 5
10 10 10 6 0 10 -4 10 -10z m770 -16 c0 -7 -4 -16 -10 -19 -5 -3 -10 -1 -10 6
0 7 -8 5 -20 -6 -11 -10 -20 -24 -20 -30 0 -7 -7 -19 -17 -26 -15 -13 -16 -11
-11 14 3 15 1 27 -3 27 -5 0 -15 -12 -23 -27 l-15 -28 2 30 c1 19 -2 29 -10
28 -7 -2 -13 1 -13 7 0 12 83 37 122 37 16 0 28 -6 28 -13z m-860 -4 c0 -5 -7
-10 -16 -10 -8 0 -12 5 -9 10 3 6 10 10 16 10 5 0 9 -4 9 -10z m-1210 -10 c0
-5 -10 -10 -22 -9 -22 0 -22 1 -3 9 11 5 21 9 23 9 1 1 2 -3 2 -9z m53 3 c-7
-2 -19 -2 -25 0 -7 3 -2 5 12 5 14 0 19 -2 13 -5z m2137 3 c0 -3 -4 -8 -10
-11 -5 -3 -10 -1 -10 4 0 6 5 11 10 11 6 0 10 -2 10 -4z m-1040 -10 c0 -3 -4
-8 -10 -11 -5 -3 -10 -1 -10 4 0 6 5 11 10 11 6 0 10 -2 10 -4z m207 -30 c-4
-9 -11 -16 -17 -16 -11 0 -14 33 -3 44 11 10 26 -11 20 -28z m53 25 c0 -21
-13 -41 -26 -41 -17 0 -17 5 -4 31 11 20 30 26 30 10z m1140 -1 c0 -18 -44
-94 -48 -82 -2 6 1 20 7 31 6 11 11 29 11 40 0 12 7 21 15 21 8 0 15 -4 15
-10z m75 0 c3 -5 1 -10 -4 -10 -6 0 -11 5 -11 10 0 6 2 10 4 10 3 0 8 -4 11
-10z m-737 -17 c-9 -10 -19 -28 -22 -40 -8 -24 -26 -32 -26 -12 0 6 -9 1 -21
-12 -19 -22 -20 -22 -16 -4 3 11 6 25 8 30 5 12 -3 15 -31 15 -12 0 -24 -10
-30 -24 -13 -35 -32 -44 -24 -12 9 36 -8 32 -31 -6 -19 -32 -20 -32 -23 -10
-3 22 -4 23 -18 5 -13 -17 -14 -16 -12 12 3 30 5 30 103 51 55 12 113 22 129
23 27 1 28 0 14 -16z m561 -4 c-16 -10 -23 -4 -14 10 3 6 11 8 17 5 6 -4 5 -9
-3 -15z m51 2 c-15 -29 -30 -35 -30 -13 0 22 8 32 27 32 10 0 11 -5 3 -19z
m169 12 c0 -5 -4 -17 -9 -28 -8 -17 -8 -16 -7 8 1 15 5 27 9 27 4 0 8 -3 7 -7z
m-2400 -29 c-14 -18 -24 -11 -15 11 3 9 11 13 16 10 8 -5 7 -11 -1 -21z m1040
-6 c-6 -11 -14 -16 -18 -11 -3 6 -13 12 -21 15 -11 4 -8 8 10 16 33 13 43 6
29 -20z m1077 -25 c-14 -26 -25 -40 -26 -31 0 32 36 96 48 83 2 -1 -8 -25 -22
-52z m-26 38 c0 -6 -4 -13 -10 -16 -5 -3 -10 1 -10 9 0 9 5 16 10 16 6 0 10
-4 10 -9z m-1810 -12 c0 -7 10 -9 25 -7 20 4 23 2 15 -12 -12 -23 -35 -31 -49
-17 -14 14 -15 47 -1 47 6 0 10 -5 10 -11z m690 -1 c-1 -18 -25 -48 -39 -48
-18 0 -13 48 7 53 29 8 32 7 32 -5z m1080 3 c0 -18 -26 -31 -38 -19 -8 8 -14
4 -23 -16 -11 -23 -14 -25 -22 -11 -8 15 -10 15 -27 0 -17 -15 -19 -15 -28 1
-10 17 -12 17 -31 -6 l-20 -25 -1 23 c0 12 6 24 13 26 6 2 35 10 62 18 58 17
115 21 115 9z m-1184 -22 c3 -6 -1 -18 -10 -27 -15 -15 -16 -14 -16 11 0 27
13 36 26 16z m-42 -20 c-3 -5 -10 -7 -15 -3 -5 3 -7 10 -3 15 3 5 10 7 15 3 5
-3 7 -10 3 -15z m524 -11 c-16 -47 -32 -61 -25 -20 6 30 -5 44 -18 22 -9 -15
-25 -12 -25 4 0 15 18 23 57 25 20 1 21 -1 11 -31z m-887 -1 c-13 -13 -26 -3
-16 12 3 6 11 8 17 5 6 -4 6 -10 -1 -17z m327 8 c9 -9 -2 -13 -50 -18 -48 -6
-65 3 -52 24 6 11 91 6 102 -6z m1052 -6 c-8 -14 -15 -17 -24 -10 -8 7 -16 4
-25 -11 -11 -17 -15 -18 -22 -7 -14 22 -11 25 24 37 52 16 59 15 47 -9z m-636
-20 c-3 -5 -10 -7 -15 -3 -5 3 -7 10 -3 15 3 5 10 7 15 3 5 -3 7 -10 3 -15z
m936 11 c0 -5 -5 -10 -11 -10 -5 0 -7 5 -4 10 3 6 8 10 11 10 2 0 4 -4 4 -10z
m-2194 -16 c-3 -9 -6 -22 -6 -30 0 -22 -17 -16 -23 8 -7 26 -1 38 20 38 10 0
13 -6 9 -16z m43 -14 c-6 -16 -15 -30 -20 -30 -9 0 -1 28 14 48 15 19 17 14 6
-18z m341 0 c-12 -16 -24 -30 -26 -30 -7 0 5 20 24 43 24 27 25 20 2 -13z
m833 0 c-3 -11 -7 -20 -9 -20 -2 0 -4 9 -4 20 0 11 4 20 9 20 5 0 7 -9 4 -20z
m539 -2 c-7 -7 -12 -8 -12 -2 0 14 12 26 19 19 2 -3 -1 -11 -7 -17z m-1268
-64 c-11 -29 -21 -41 -27 -35 -6 6 -4 18 7 32 9 13 16 33 16 45 0 26 14 41 18
20 2 -9 -4 -37 -14 -62z m646 45 c-12 -22 -30 -25 -30 -6 0 17 21 38 32 31 4
-3 3 -14 -2 -25z m580 16 c-7 -9 -15 -13 -17 -11 -7 7 7 26 19 26 6 0 6 -6 -2
-15z m-630 -20 c0 -8 -4 -15 -10 -15 -5 0 -10 7 -10 15 0 8 5 15 10 15 6 0 10
-7 10 -15z m1240 11 c0 -3 -4 -8 -10 -11 -5 -3 -10 -1 -10 4 0 6 5 11 10 11 6
0 10 -2 10 -4z m-1290 -16 c0 -5 -4 -10 -10 -10 -5 0 -10 5 -10 10 0 6 5 10
10 10 6 0 10 -4 10 -10z m-50 -10 c0 -5 -4 -10 -10 -10 -5 0 -10 5 -10 10 0 6
5 10 10 10 6 0 10 -4 10 -10z m-649 -27 c-8 -15 -10 -15 -11 -2 0 17 10 32 18
25 2 -3 -1 -13 -7 -23z m499 17 c23 -7 24 -11 0 -14 -5 0 -16 -10 -24 -21 -9
-11 -16 -14 -16 -7 0 6 -7 12 -15 12 -8 0 -15 6 -15 13 0 28 21 33 70 17z m60
6 c0 -3 -4 -8 -10 -11 -5 -3 -10 -1 -10 4 0 6 5 11 10 11 6 0 10 -2 10 -4z
m580 -7 c0 -13 -39 -79 -46 -79 -5 0 6 70 13 83 7 11 33 8 33 -4z m50 5 c0 -3
-12 -22 -26 -42 -15 -20 -24 -29 -20 -19 3 11 9 30 12 43 5 20 34 36 34 18z
m-104 -15 c3 -6 1 -16 -5 -22 -9 -9 -14 -8 -21 3 -9 15 -4 30 10 30 5 0 12 -5
16 -11z m969 2 c9 -16 -11 -21 -60 -14 -30 4 -42 9 -33 14 18 12 85 11 93 0z
m-1015 -16 c0 -8 -4 -15 -10 -15 -5 0 -10 7 -10 15 0 8 5 15 10 15 6 0 10 -7
10 -15z m-1290 -5 c0 -5 -4 -10 -10 -10 -5 0 -10 5 -10 10 0 6 5 10 10 10 6 0
10 -4 10 -10z m1170 -10 c0 -5 -4 -10 -10 -10 -5 0 -10 5 -10 10 0 6 5 10 10
10 6 0 10 -4 10 -10z m320 0 c0 -5 -5 -10 -11 -10 -5 0 -7 5 -4 10 3 6 8 10
11 10 2 0 4 -4 4 -10z m-414 -47 c-6 -14 -8 -14 -20 2 -13 18 -14 18 -20 -3
-11 -32 -25 -27 -24 9 1 25 5 30 20 26 10 -3 21 0 24 5 10 15 27 -20 20 -39z
m-120 11 c-3 -9 -6 -20 -6 -25 0 -5 -4 -9 -10 -9 -5 0 -10 7 -10 15 0 20 -17
19 -29 -2 -14 -25 -25 -9 -11 16 14 26 76 31 66 5z m-93 -9 c-3 -9 -8 -14 -10
-11 -3 3 -2 9 2 15 9 16 15 13 8 -4z m-73 1 c0 -3 -4 -8 -10 -11 -5 -3 -10 -1
-10 4 0 6 5 11 10 11 6 0 10 -2 10 -4z m40 0 c0 -2 -7 -9 -15 -16 -13 -11 -14
-10 -9 4 5 14 24 23 24 12z m-393 -38 c-3 -8 -6 -5 -6 6 -1 11 2 17 5 13 3 -3
4 -12 1 -19z m1710 6 c-3 -3 -12 -4 -19 -1 -8 3 -5 6 6 6 11 1 17 -2 13 -5z
m123 -4 c0 -5 -16 -10 -35 -10 -19 0 -35 5 -35 10 0 6 16 10 35 10 19 0 35 -4
35 -10z m-3296 -25 c23 -15 76 -15 251 0 107 10 151 11 180 4 17 -4 57 -13 90
-20 43 -10 67 -21 83 -40 12 -15 43 -35 68 -45 60 -23 42 -32 -65 -35 -62 -2
-89 -7 -105 -20 -34 -28 -10 -38 104 -44 118 -6 138 -9 230 -32 39 -10 78 -28
98 -45 18 -15 39 -28 46 -28 7 0 35 -12 62 -26 35 -19 57 -24 81 -20 18 3 49
9 69 12 20 4 61 1 91 -7 64 -15 86 -6 91 35 5 39 32 49 63 22 29 -25 41 -59
43 -126 l1 -45 -790 0 c-434 -1 -895 1 -1022 3 -224 3 -233 4 -233 23 0 30
-119 82 -188 82 -43 0 -52 3 -47 15 7 19 -12 42 -36 42 -11 0 -19 5 -19 11 0
8 23 9 83 3 154 -16 290 -8 313 17 20 22 40 25 46 7 3 -8 13 -5 33 10 15 12
35 22 44 22 9 0 34 11 56 25 44 27 72 31 109 14 20 -10 33 -8 70 10 24 12 46
27 48 32 2 5 26 16 53 23 32 8 51 18 53 29 4 18 -16 25 -90 31 -26 1 -53 8
-60 14 -7 5 -26 12 -43 14 -33 5 -29 7 50 31 65 20 62 20 89 2z m2344 -15
c-10 -30 -28 -50 -28 -31 0 20 20 61 29 61 6 0 6 -11 -1 -30z m-248 -29 c0 -3
-5 -13 -10 -21 -8 -13 -11 -13 -19 -1 -7 11 -10 9 -16 -8 -3 -11 -11 -21 -16
-21 -17 0 -9 35 13 63 21 26 23 27 35 11 7 -10 13 -20 13 -23z m176 26 c4 -4
13 -2 20 4 9 7 12 6 10 -8 -2 -10 -13 -19 -24 -21 -12 -2 -22 -8 -22 -13 0 -5
-7 -9 -15 -9 -8 0 -15 5 -15 11 0 7 -7 8 -17 4 -10 -4 -26 -7 -35 -7 -10 0
-18 -3 -18 -9 0 -17 -20 -9 -21 9 -1 16 -2 16 -6 0 -7 -28 -23 -21 -23 10 0
16 2 31 5 34 8 8 153 3 161 -5z m-446 -16 c0 -3 -18 -14 -40 -23 -38 -16 -40
-16 -40 1 0 9 5 22 10 27 11 11 70 7 70 -5z m-880 -3 c0 -25 -12 -58 -21 -58
-5 0 -9 16 -9 35 0 24 5 35 15 35 8 0 15 -6 15 -12z m960 -2 c0 -7 -7 -19 -15
-26 -13 -11 -15 -8 -15 14 0 16 5 26 15 26 8 0 15 -6 15 -14z m1464 -22 c38
-14 10 -24 -69 -24 -123 0 -110 23 17 28 20 1 43 -1 52 -4z m-1984 -12 c0 -4
-17 -30 -37 -58 -21 -27 -46 -61 -56 -74 l-18 -25 7 25 c7 24 35 66 78 117 21
25 26 28 26 15z m1790 -2 c0 -5 -9 -10 -19 -10 -11 0 -23 5 -26 10 -4 6 5 10
19 10 14 0 26 -4 26 -10z m-3340 -10 c20 -12 13 -16 -44 -24 l-48 -6 23 20
c26 21 46 24 69 10z m980 -40 c11 -7 7 -10 -18 -10 -20 0 -31 4 -27 10 8 13
26 13 45 0z m-1320 -10 c0 -6 -13 -19 -30 -28 -16 -9 -30 -22 -30 -28 0 -20
28 -36 52 -30 13 3 7 -1 -12 -10 -27 -13 -51 -15 -110 -9 -161 14 -197 21
-214 38 -12 11 -35 17 -69 18 -29 1 -65 5 -82 9 -16 4 69 6 190 6 212 -1 222
0 255 21 39 25 50 28 50 13z m190 -22 c-18 -15 -141 -58 -164 -58 -14 0 37 62
58 70 11 5 45 8 74 7 53 -1 53 -2 32 -19z m-860 -3 c-8 -10 -6 -18 10 -33 24
-22 90 -33 203 -34 70 -1 79 -14 17 -27 -22 -4 -37 -17 -53 -44 -22 -38 -22
-39 -3 -53 11 -8 35 -14 53 -14 27 0 35 -5 43 -26 9 -23 14 -25 44 -20 18 4
44 2 58 -3 15 -6 31 -5 42 1 12 7 27 6 48 -3 28 -12 29 -13 12 -26 -13 -9 -59
-13 -168 -13 l-149 0 -42 44 c-30 31 -44 55 -49 84 -4 31 -14 46 -34 59 -31
19 -122 104 -122 114 0 4 23 7 50 7 40 0 48 -3 40 -13z m3220 11 c0 -3 -4 -8
-10 -11 -5 -3 -10 -1 -10 4 0 6 5 11 10 11 6 0 10 -2 10 -4z m120 -3 c0 -5 -5
-15 -10 -23 -8 -12 -10 -11 -10 8 0 12 5 22 10 22 6 0 10 -3 10 -7z m-1216
-38 c3 -9 0 -15 -9 -15 -8 0 -15 7 -15 15 0 8 4 15 9 15 5 0 11 -7 15 -15z
m419 0 c-3 -9 -8 -14 -10 -11 -3 3 -2 9 2 15 9 16 15 13 8 -4z m129 -17 c-7
-7 -12 -8 -12 -2 0 14 12 26 19 19 2 -3 -1 -11 -7 -17z m-492 -8 c8 -5 12 -12
9 -15 -8 -8 -39 5 -39 16 0 11 11 11 30 -1z m341 -23 c-10 -9 -11 -8 -5 6 3
10 9 15 12 12 3 -3 0 -11 -7 -18z m672 14 c18 -2 -4 -19 -30 -24 -25 -5 -63
10 -63 25 0 3 19 5 43 3 23 -2 46 -4 50 -4z m62 -11 c8 -13 -15 -13 -35 0 -12
8 -11 10 7 10 12 0 25 -4 28 -10z m-169 -57 c9 -16 39 -61 66 -102 36 -53 46
-77 38 -85 -8 -8 -12 -4 -17 13 -5 21 -10 23 -72 21 -36 -2 -82 -2 -101 -1
l-35 3 28 10 c33 12 35 33 5 42 -21 5 -19 8 20 28 43 22 50 36 31 55 -13 13
-5 43 10 43 6 0 18 -12 27 -27z m419 -18 c75 -21 144 -56 170 -85 11 -13 35
-29 53 -37 38 -16 42 -40 8 -53 -21 -7 -290 -5 -391 4 -16 1 -42 3 -57 4 -16
1 -28 8 -28 15 0 7 -22 45 -50 84 -27 39 -50 73 -50 76 0 20 271 14 345 -8z
m-730 -35 c4 -6 -7 -10 -24 -10 -17 0 -31 5 -31 10 0 6 11 10 24 10 14 0 28
-4 31 -10z"/>
<path d="M1756 7568 c-20 -28 -21 -48 -2 -48 17 0 33 19 38 44 5 28 -18 31
-36 4z"/>
<path d="M2220 3470 c0 -5 4 -10 9 -10 6 0 13 5 16 10 3 6 -1 10 -9 10 -9 0
-16 -4 -16 -10z"/>
<path d="M2260 3425 c0 -8 2 -15 4 -15 2 0 6 7 10 15 3 8 1 15 -4 15 -6 0 -10
-7 -10 -15z"/>
<path d="M1896 3591 c-17 -19 -17 -19 2 -14 12 3 23 11 26 19 8 20 -8 17 -28
-5z"/>
<path d="M2664 2749 c-3 -6 -1 -16 4 -21 13 -13 45 8 36 23 -7 12 -31 11 -40
-2z"/>
<path d="M2020 862 c-30 -10 -41 -24 -29 -38 8 -10 27 -12 66 -9 72 6 178 -16
263 -56 70 -32 105 -33 94 -4 -14 35 -160 89 -269 100 -33 3 -71 7 -85 9 -14
2 -32 1 -40 -2z"/>
<path d="M2183 770 c-34 -14 -28 -25 23 -38 25 -7 64 -21 87 -32 45 -22 63
-25 72 -11 13 22 -48 57 -150 87 -5 1 -20 -1 -32 -6z"/>
<path d="M2425 700 c-13 -21 8 -30 71 -30 48 0 64 3 64 14 0 8 -7 17 -16 20
-25 10 -112 7 -119 -4z"/>
<path d="M1135 5190 c-3 -5 -1 -10 4 -10 6 0 11 5 11 10 0 6 -2 10 -4 10 -3 0
-8 -4 -11 -10z"/>
<path d="M3904 4009 c-3 -6 -2 -15 4 -21 13 -13 32 -2 32 18 0 16 -26 19 -36
3z"/>
<path d="M4720 875 c-10 -12 -10 -18 0 -30 20 -25 55 -15 55 15 0 30 -35 40
-55 15z"/>
<path d="M60 465 c0 -8 9 -15 19 -15 27 0 31 -18 31 -153 0 -96 -3 -124 -16
-138 -23 -25 -12 -35 39 -37 45 -2 80 19 57 33 -11 7 -14 123 -4 149 10 26 19
19 57 -43 20 -32 43 -64 52 -71 8 -7 15 -25 15 -41 0 -28 2 -29 48 -29 27 0
52 3 55 6 4 4 -14 28 -39 54 -49 51 -114 151 -114 176 0 24 52 63 85 64 39 0
59 14 52 34 -5 12 -20 16 -58 16 -42 0 -52 -3 -56 -19 -5 -21 -87 -84 -97 -74
-16 16 -5 54 19 63 14 5 25 14 25 19 0 15 -28 21 -101 21 -55 0 -69 -3 -69
-15z"/>
<path d="M2353 472 c-46 -1 -83 -6 -83 -9 0 -4 6 -14 14 -22 11 -12 15 -50 17
-151 1 -74 0 -142 -2 -150 -5 -20 120 -34 139 -15 12 10 10 16 -6 31 -14 13
-22 38 -26 79 l-7 61 48 12 c60 16 93 46 93 84 0 31 -39 78 -64 78 -8 0 -20 1
-28 3 -7 1 -50 1 -95 -1z m74 -34 c16 -20 23 -62 14 -77 -16 -25 -46 -8 -49
28 -5 54 12 78 35 49z"/>
<path d="M433 463 c-20 -7 -15 -20 8 -26 20 -5 20 -11 18 -159 l-2 -153 72 0
c69 0 97 14 49 25 -22 6 -23 11 -23 87 -1 96 7 96 55 0 51 -103 101 -141 154
-121 18 7 22 49 6 59 -6 4 -10 57 -10 125 0 68 4 121 10 125 6 3 10 13 10 21
0 10 -14 14 -55 14 -30 0 -55 -4 -55 -10 0 -5 7 -10 15 -10 12 0 15 -18 15
-107 l-1 -108 -20 25 c-12 14 -41 65 -65 113 -25 48 -50 90 -57 92 -23 7 -112
13 -124 8z"/>
<path d="M837 463 c-28 -4 -28 -5 -10 -25 15 -17 18 -39 19 -164 1 -80 3 -146
5 -148 2 -2 16 -6 31 -10 44 -10 55 11 52 98 -1 42 1 76 5 76 4 0 12 -20 19
-45 7 -25 27 -62 46 -83 l35 -37 81 2 c44 1 85 5 90 8 6 3 10 30 10 59 l0 54
-45 6 c-24 4 -52 3 -61 -2 -16 -9 -15 -11 4 -21 25 -13 30 -41 7 -41 -8 0 -24
9 -36 21 -16 16 -20 29 -15 51 3 17 6 48 6 69 0 46 27 79 65 79 21 0 25 -5 25
-30 0 -34 6 -36 38 -14 18 12 22 24 20 52 l-3 37 -70 0 c-107 0 -169 -37 -199
-120 -15 -40 -15 -40 -16 -10 -2 17 -1 35 0 40 6 25 7 86 1 89 -13 7 -77 13
-104 9z"/>
<path d="M1446 463 c-4 -4 2 -14 12 -23 16 -12 18 -23 13 -65 -5 -42 -10 -50
-29 -53 -39 -6 -55 16 -50 70 3 26 0 52 -6 58 -14 14 -103 13 -112 -1 -4 -7 1
-16 10 -21 13 -8 16 -29 16 -138 0 -75 -4 -131 -10 -135 -25 -16 -6 -26 43
-23 l52 3 5 75 5 75 38 3 37 3 -2 -76 c-2 -89 8 -106 47 -81 25 17 25 17 19
124 -3 59 -2 126 4 149 7 29 6 45 -1 52 -12 12 -80 15 -91 4z"/>
<path d="M1653 460 c-40 -3 -76 -9 -79 -13 -4 -3 -1 -20 6 -37 15 -36 40 -37
55 -2 22 50 30 20 29 -112 0 -112 -3 -136 -17 -151 -26 -26 -12 -34 53 -30 71
4 90 13 67 29 -17 13 -23 76 -19 214 2 80 3 82 27 82 18 0 25 -5 25 -19 0 -26
10 -31 38 -20 24 9 29 38 10 57 -13 13 -75 14 -195 2z"/>
<path d="M2572 464 c-10 -5 -11 -37 -6 -150 6 -131 5 -146 -11 -164 -18 -20
-17 -20 91 -20 60 0 114 4 121 8 6 4 17 20 23 36 9 24 8 32 -4 44 -21 21 -44
8 -62 -33 -15 -36 -21 -40 -42 -27 -17 11 -29 112 -13 112 6 0 11 -4 11 -10 0
-17 37 -11 44 6 4 9 4 32 0 50 -4 25 -12 34 -25 34 -11 0 -22 -7 -25 -15 -13
-34 -25 -11 -22 43 3 53 5 57 29 60 20 2 28 -2 32 -18 7 -25 34 -24 51 2 8 13
7 21 -1 29 -12 12 -169 23 -191 13z"/>
<path d="M3018 463 c-33 -5 -34 -10 -11 -35 12 -13 18 -40 20 -86 l3 -67 -20
44 c-11 24 -35 66 -52 92 l-31 49 -59 0 c-59 0 -66 -6 -49 -38 4 -9 11 -70 15
-134 6 -112 5 -118 -16 -137 -27 -26 -21 -32 35 -34 53 -2 66 7 49 33 -13 22
-17 160 -4 160 8 0 28 -41 52 -104 23 -61 47 -83 90 -83 29 0 44 5 50 18 6 10
10 73 10 141 0 98 3 128 16 147 14 19 14 25 3 32 -14 9 -51 9 -101 2z"/>
<path d="M3166 451 c-11 -12 -16 -31 -14 -52 4 -46 32 -50 53 -10 8 17 23 31
32 31 13 0 15 -9 10 -57 -3 -32 -3 -100 0 -151 l6 -92 34 0 c46 0 53 24 46
154 -4 78 -3 109 7 121 19 22 39 18 50 -10 6 -16 17 -25 30 -25 19 0 21 5 18
47 -3 47 -4 48 -43 55 -22 4 -79 7 -126 7 -72 1 -89 -2 -103 -18z"/>
<path d="M3475 461 c-4 -7 1 -21 10 -31 17 -19 15 -25 -34 -137 -29 -65 -61
-125 -72 -135 -32 -27 -23 -38 36 -40 30 -1 63 -2 72 -2 9 -1 18 5 21 12 2 7
-6 12 -22 12 -38 0 -42 23 -15 77 26 51 41 59 96 48 29 -5 37 -13 54 -51 10
-25 19 -56 19 -69 0 -26 14 -33 72 -37 46 -3 58 8 32 27 -13 8 -25 36 -33 72
-8 32 -26 92 -41 135 -20 55 -25 79 -17 87 20 20 -9 33 -90 38 -57 4 -82 2
-88 -6z m99 -98 c4 -16 9 -36 12 -45 4 -15 -1 -18 -29 -18 -18 0 -36 3 -40 6
-8 8 30 84 42 84 5 0 12 -12 15 -27z"/>
<path d="M4077 449 c-17 -10 -17 -12 -2 -29 15 -16 17 -41 16 -170 l-2 -151
103 4 c101 3 103 4 116 31 17 33 9 56 -18 56 -13 0 -24 -10 -30 -26 -8 -21
-15 -25 -42 -22 l-33 3 1 135 c1 74 3 144 5 155 4 18 -2 20 -46 22 -27 2 -58
-2 -68 -8z"/>
<path d="M4653 445 c-11 -8 -30 -33 -42 -55 -19 -37 -20 -43 -7 -69 19 -35 85
-66 125 -58 32 7 61 -12 61 -38 0 -68 -57 -87 -107 -35 -15 16 -34 30 -41 30
-21 0 -34 -43 -25 -81 l9 -34 88 -3 c126 -4 164 27 149 120 -9 61 -46 95 -118
111 -54 11 -60 15 -60 37 0 22 5 25 43 28 31 2 44 -1 48 -12 11 -29 42 -18 54
20 7 19 9 38 6 42 -4 3 -41 7 -84 9 -56 2 -84 -1 -99 -12z"/>
<path d="M4356 441 c-46 -7 -56 -24 -27 -43 19 -12 21 -22 21 -135 0 -106 -2
-123 -17 -132 -29 -16 -9 -23 79 -25 119 -3 141 3 149 42 10 47 -13 62 -44 28
-23 -25 -70 -35 -80 -19 -3 5 -7 26 -8 48 -4 36 -2 40 21 40 21 0 25 5 25 30
0 23 -7 33 -27 43 -22 10 -28 20 -28 46 0 59 55 74 62 18 2 -19 9 -27 23 -27
16 0 21 8 23 38 2 24 -1 39 -10 41 -27 9 -124 13 -162 7z"/>
<path d="M3855 433 c-45 -11 -105 -95 -105 -148 0 -38 27 -96 62 -132 24 -25
41 -33 87 -38 58 -7 111 6 111 25 0 7 -8 9 -20 5 -37 -12 -99 13 -116 47 -24
47 -22 152 3 186 30 40 56 39 88 -2 23 -30 30 -34 46 -25 22 11 26 58 7 77
-12 12 -121 15 -163 5z"/>
<path d="M2035 360 c-21 -23 -17 -35 40 -114 42 -58 48 -121 15 -151 -23 -21
-11 -36 21 -28 31 8 49 44 49 95 0 47 1 48 30 48 36 0 40 25 10 61 l-20 24
-21 -25 -21 -24 -29 34 c-37 46 -39 75 -4 66 33 -9 50 1 34 20 -18 21 -83 18
-104 -6z"/>
<path d="M1890 250 c-27 -27 -25 -61 5 -94 29 -32 65 -34 110 -6 39 24 49 44
35 70 -27 51 -112 68 -150 30z m95 -50 c0 -18 -6 -26 -23 -28 -24 -4 -38 18
-28 44 3 9 15 14 28 12 17 -2 23 -10 23 -28z"/>
<path d="M4910 145 c-9 -10 -10 -19 -3 -26 14 -14 45 0 41 19 -4 22 -23 25
-38 7z"/>
</g>
</svg>
