<?xml version="1.0" standalone="no"?>
<!DOCTYPE svg PUBLIC "-//W3C//DTD SVG 20010904//EN"
 "http://www.w3.org/TR/2001/REC-SVG-20010904/DTD/svg10.dtd">
<svg version="1.0" xmlns="http://www.w3.org/2000/svg"
 width="500.000000pt" height="878.000000pt" viewBox="0 0 500.000000 878.000000"
 preserveAspectRatio="xMidYMid meet">
<metadata>
Created by potrace 1.15, written by Peter Selinger 2001-2017
</metadata>
<g transform="translate(0.000000,878.000000) scale(0.100000,-0.100000)"
fill="#000000" stroke="none">
<path d="M2509 8568 c-21 -18 -62 -76 -83 -118 -10 -19 -21 -68 -24 -110 -5
-68 -6 -72 -14 -40 -5 19 -13 53 -17 75 -10 56 -16 63 -59 71 -20 4 -43 11
-49 16 -7 6 -32 7 -58 4 -40 -6 -48 -13 -80 -60 -19 -29 -35 -61 -35 -71 0
-15 22 -50 65 -97 8 -10 15 -20 15 -22 0 -7 -62 -27 -123 -40 -48 -11 -59 -10
-69 1 -19 23 -70 46 -101 45 -18 0 -30 5 -34 16 -13 38 -46 62 -84 62 -21 0
-41 5 -44 10 -16 25 -86 5 -105 -30 -9 -16 -5 -24 20 -46 40 -37 40 -58 -1
-52 -40 6 -116 -10 -147 -30 -26 -17 -66 -88 -57 -102 3 -6 16 -5 31 0 32 13
104 13 104 1 0 -5 7 -17 16 -25 14 -15 14 -16 -3 -16 -23 0 -122 -46 -145 -67
-10 -9 -18 -24 -18 -34 0 -10 -12 -26 -26 -36 -15 -10 -47 -36 -71 -58 -38
-34 -46 -48 -50 -87 -6 -56 6 -66 41 -33 36 34 52 32 26 -3 -33 -45 -53 -136
-40 -178 9 -28 17 -34 33 -32 12 2 23 12 25 23 2 11 14 31 27 45 12 14 31 40
40 59 17 33 18 34 31 16 8 -10 14 -23 14 -28 0 -6 9 -2 20 8 29 26 42 74 30
114 -5 19 -7 45 -4 58 l6 23 24 -25 c28 -30 60 -32 88 -6 l21 20 2 -65 1 -64
-29 0 c-36 0 -94 -50 -108 -93 -9 -25 -23 -38 -63 -57 -39 -18 -59 -36 -75
-65 -27 -47 -29 -83 -7 -92 13 -5 13 -8 -4 -27 -26 -28 -38 -54 -46 -99 -10
-51 0 -77 29 -77 28 0 92 68 101 107 13 60 27 99 42 116 15 17 17 15 29 -27 9
-29 20 -47 34 -51 23 -8 49 10 49 34 0 9 8 26 18 38 13 16 22 19 40 12 28 -11
28 -20 -3 -65 -28 -42 -32 -76 -10 -94 12 -10 20 -9 40 4 19 12 25 13 25 3 0
-18 -26 -53 -97 -131 -68 -74 -76 -98 -47 -155 18 -36 33 -36 51 0 7 13 27 39
44 56 l32 33 23 -26 c18 -18 24 -37 24 -70 0 -42 -2 -45 -50 -75 -56 -34 -70
-54 -70 -97 0 -16 -9 -37 -20 -47 -28 -25 -53 -111 -39 -136 18 -34 46 -22 96
42 51 66 65 63 39 -6 -10 -24 -18 -54 -20 -67 -1 -13 -7 -34 -13 -48 -6 -14
-14 -40 -17 -57 -10 -43 -20 -48 -40 -18 -21 31 -46 32 -79 1 -30 -28 -27 -52
10 -92 l24 -26 -20 -61 c-21 -62 -26 -103 -15 -131 9 -23 28 -20 63 9 l30 26
-1 -23 c0 -13 -5 -38 -10 -55 -8 -29 -14 -33 -42 -33 -39 0 -69 -29 -64 -61 5
-33 31 -46 68 -32 24 9 30 9 30 -3 0 -49 66 -176 98 -189 26 -10 45 20 48 76
3 43 -2 61 -26 104 -17 29 -30 58 -30 64 0 7 13 24 30 37 18 16 32 39 36 62 4
20 9 31 11 24 8 -22 43 -35 59 -21 22 18 17 114 -10 181 -14 33 -18 54 -11 52
6 -3 18 2 25 11 27 32 -13 165 -60 198 -34 24 -26 162 11 185 10 7 19 11 19
10 0 -2 -4 -18 -9 -36 -11 -36 -1 -74 26 -104 23 -26 40 -11 46 42 3 27 14 65
24 85 l19 36 22 -46 c26 -54 45 -64 72 -40 39 35 18 179 -35 235 -13 14 -33
46 -45 73 -12 26 -26 47 -31 47 -5 0 -9 9 -9 20 0 29 -28 81 -55 105 -28 24
-44 95 -21 95 19 0 36 52 36 109 l0 46 20 -25 c16 -20 20 -41 20 -111 0 -98
14 -140 58 -182 33 -32 66 -31 77 2 8 26 -20 137 -50 194 -30 59 -31 73 -5 87
29 15 25 38 -10 58 -17 9 -33 27 -36 39 -8 31 -69 82 -105 90 -30 6 -37 17
-19 28 6 4 18 1 26 -6 39 -33 69 87 41 166 -13 37 -12 42 6 67 l21 28 -24 25
c-13 14 -29 25 -35 25 -6 0 -20 6 -30 14 -17 12 -17 15 10 49 28 34 30 35 42
17 8 -11 11 -30 8 -43 -5 -19 0 -29 22 -44 15 -11 35 -22 44 -26 9 -3 19 -21
23 -39 7 -40 59 -94 98 -103 44 -11 51 -27 43 -102 -4 -38 -11 -73 -15 -78
-23 -28 -28 -63 -14 -90 8 -15 14 -37 14 -48 0 -23 46 -107 59 -107 27 0 53
93 50 180 -1 36 4 93 11 126 l13 62 31 -9 c17 -5 51 -9 76 -9 78 0 74 21 66
-346 -4 -181 -9 -378 -11 -439 -2 -60 -7 -263 -10 -450 -6 -417 -14 -771 -20
-970 -3 -82 -7 -258 -10 -390 -7 -298 -14 -479 -25 -663 l-9 -142 -31 -26
c-26 -22 -30 -31 -25 -56 5 -22 2 -35 -13 -51 -11 -12 -29 -60 -41 -106 -30
-122 -35 -128 -117 -129 -98 -2 -317 31 -533 79 -24 5 -46 7 -50 4 -3 -4 -9
-93 -13 -198 -4 -106 -7 -201 -8 -212 0 -11 8 -27 19 -36 18 -15 27 -15 68 -4
45 12 72 18 213 44 100 19 194 25 186 13 -4 -7 -15 -12 -26 -12 -24 0 -116
-71 -224 -175 -49 -47 -95 -85 -101 -85 -7 0 -15 13 -18 29 -8 37 -60 89 -113
113 l-42 18 5 61 c6 64 -2 90 -44 142 -24 30 -23 33 11 80 17 23 21 44 21 115
0 101 -14 138 -72 194 -37 35 -125 74 -144 63 -13 -9 -11 -1 15 59 31 71 50
190 43 269 -7 77 -54 193 -102 255 l-37 47 29 5 c55 10 91 38 118 95 32 65 29
108 -13 195 -23 46 -36 59 -87 87 -33 18 -64 34 -69 36 -5 2 -1 24 8 49 14 37
17 67 13 165 -4 112 -7 124 -37 181 -40 76 -117 150 -201 194 -62 32 -68 33
-174 32 -123 0 -184 -18 -282 -80 -64 -41 -138 -133 -152 -190 -11 -41 -13
-43 -41 -39 -17 3 -43 7 -60 10 -65 10 -170 -65 -170 -122 l0 -25 28 29 c40
44 86 64 146 64 88 1 145 -41 167 -123 11 -38 10 -52 -1 -75 l-14 -28 -6 40
c-12 79 -70 130 -148 130 -49 0 -56 -3 -88 -37 -34 -37 -44 -68 -23 -68 6 0
20 11 30 24 37 47 130 42 163 -9 18 -28 21 -77 6 -105 -13 -24 5 -37 25 -20
12 10 15 9 15 -5 0 -28 33 -13 52 23 9 18 24 42 33 52 30 33 5 113 -57 191
-25 31 -28 42 -23 73 16 81 98 164 220 221 78 37 213 46 290 20 140 -46 257
-172 261 -279 2 -28 5 -78 9 -111 3 -33 2 -71 -4 -85 -9 -23 -10 -22 -10 16
-1 46 -21 81 -40 69 -9 -5 -11 -24 -6 -65 7 -62 -9 -112 -40 -123 -8 -4 -15
-14 -15 -23 0 -12 7 -15 25 -12 32 7 31 1 -5 -49 -42 -57 -135 -103 -204 -102
l-51 1 53 9 c62 11 96 27 137 65 30 29 30 29 7 32 -15 2 -22 9 -18 17 9 24
-12 27 -35 4 -17 -17 -29 -20 -62 -16 -22 3 -49 14 -60 25 -19 20 -19 20 0 39
11 11 28 23 38 26 14 6 17 15 12 53 -5 52 -24 76 -82 104 -68 33 -134 11 -185
-60 -29 -40 -47 -139 -33 -183 l10 -34 -63 32 c-40 20 -86 34 -125 39 -54 5
-69 3 -118 -21 -87 -41 -108 -60 -157 -134 -35 -53 -47 -80 -51 -124 -3 -30
-3 -55 0 -55 4 0 24 37 46 83 70 147 176 210 311 185 30 -5 70 -19 88 -30 44
-27 92 -94 92 -129 0 -38 9 -59 26 -59 17 0 19 74 4 114 -12 32 -11 32 50 0
44 -23 63 -26 138 -26 136 1 204 35 279 140 18 25 34 47 36 49 7 7 57 -16 57
-27 0 -5 -13 -10 -29 -10 -16 0 -31 -6 -34 -15 -7 -16 -3 -20 35 -29 15 -3 37
-20 49 -37 18 -26 21 -40 16 -92 -3 -38 -11 -65 -20 -72 -9 -5 -24 -15 -34
-22 -16 -10 -16 -13 -3 -22 10 -7 12 -13 5 -20 -7 -7 -33 6 -80 39 -83 57
-159 76 -268 65 -182 -17 -305 -92 -373 -227 -24 -46 -27 -66 -28 -148 -1 -85
2 -100 26 -147 l28 -52 -48 -24 c-39 -19 -52 -34 -77 -83 -25 -49 -30 -70 -29
-129 0 -38 4 -79 8 -91 7 -19 3 -22 -46 -28 -77 -11 -143 -50 -189 -115 l-39
-54 0 -203 0 -203 37 -31 c21 -17 64 -43 95 -58 31 -15 57 -32 57 -38 1 -6 -8
-32 -20 -58 -11 -26 -28 -83 -37 -127 -17 -80 -18 -81 -55 -94 -77 -26 -79
-32 -75 -190 3 -138 4 -141 37 -203 41 -76 80 -108 158 -131 l58 -17 6 -95 c7
-111 30 -178 84 -244 91 -111 266 -155 411 -104 32 11 66 22 75 25 10 3 22 -4
32 -19 25 -39 78 -52 135 -34 41 14 54 14 107 1 112 -26 243 -15 336 30 89 42
209 184 209 246 0 35 9 37 94 15 72 -19 431 -31 492 -17 41 9 41 9 52 -26 7
-23 8 -41 1 -53 -5 -10 -12 -44 -15 -76 -6 -55 -5 -61 27 -103 51 -66 90 -85
174 -85 82 0 121 21 151 82 23 47 21 129 -4 181 -11 24 -15 46 -11 62 4 14 7
42 8 63 l1 37 88 0 c123 0 181 18 244 75 53 47 83 97 74 122 -10 24 -26 13
-42 -27 -23 -57 -106 -128 -158 -135 -51 -7 -306 -17 -405 -16 -41 0 -95 7
-120 15 -61 20 -167 23 -214 7 -46 -16 -40 -30 10 -25 92 9 218 -9 247 -36 37
-35 -424 -54 -539 -22 -22 6 -80 21 -130 33 -49 11 -94 24 -100 27 -13 8 -96
9 -101 1 -6 -11 24 -31 36 -24 8 5 67 -9 88 -21 8 -5 -34 -109 -57 -143 -76
-112 -124 -146 -230 -166 -45 -9 -92 -13 -104 -9 -11 4 -37 8 -57 9 -61 3
-122 40 -148 87 -12 24 -22 46 -22 49 0 10 53 -2 70 -16 25 -21 82 -45 105
-45 32 0 124 49 141 75 23 36 28 110 10 147 -9 17 -14 33 -12 36 3 2 41 4 85
3 66 -1 81 2 81 14 0 22 -9 24 -150 29 -130 4 -253 27 -280 50 -8 8 -34 22
-56 31 -42 17 -67 52 -93 134 -18 57 -13 218 9 291 11 36 20 75 20 87 0 12 9
37 20 56 11 19 24 60 28 91 l7 56 220 5 c121 2 237 8 258 14 l38 9 -7 -31 -6
-32 28 25 c15 14 91 88 169 165 236 235 214 219 367 269 71 23 120 33 157 32
l55 -1 1 -47 c0 -40 -3 -48 -17 -48 -10 0 -18 -6 -18 -14 0 -16 119 -66 135
-57 6 3 170 6 366 6 l356 0 77 -39 c97 -50 106 -63 99 -143 -7 -71 -16 -83
-87 -107 -59 -19 -103 -21 -109 -3 -3 9 -9 9 -26 -1 -31 -18 -41 -15 -41 13 0
16 -6 25 -15 25 -8 0 -15 -4 -15 -8 0 -5 -7 -17 -15 -28 -14 -17 -14 -16 -9
24 5 33 4 42 -9 42 -8 0 -20 -13 -27 -30 -15 -36 -35 -54 -50 -45 -8 5 -5 14
8 29 11 11 22 33 26 49 10 41 -22 35 -40 -8 -15 -37 -35 -52 -53 -40 -7 3 -1
15 14 28 14 12 28 35 31 52 8 45 -4 95 -23 95 -12 0 -14 -7 -9 -31 6 -32 -9
-109 -22 -109 -4 0 -15 -7 -26 -15 -16 -12 -17 -18 -7 -43 l12 -29 157 -1 c86
-1 184 2 217 7 70 10 93 2 125 -42 20 -27 22 -37 16 -104 -3 -40 -13 -87 -21
-103 -25 -48 -76 -66 -100 -33 -13 18 -35 10 -35 -13 0 -24 -35 -12 -38 14 -4
28 -22 29 -29 2 -8 -29 -39 -21 -35 8 4 30 -16 28 -28 -3 -14 -36 -24 -31 -17
10 8 49 -8 53 -33 8 l-21 -38 6 43 c7 53 -8 55 -35 5 l-21 -38 7 44 c6 40 5
43 -14 37 -11 -4 -23 -2 -27 4 -8 14 -35 -6 -35 -26 0 -39 -25 -64 -91 -91
-38 -15 -69 -31 -69 -34 0 -15 30 -16 56 -2 43 22 397 34 417 14 13 -13 -8
-131 -32 -185 -19 -44 -22 -46 -62 -46 -36 0 -41 2 -36 20 6 24 -20 28 -29 5
-11 -27 -24 -16 -17 15 8 40 -15 40 -30 0 -6 -16 -15 -30 -19 -30 -11 0 -10
28 2 51 9 15 7 19 -5 19 -9 0 -23 -16 -31 -35 -9 -23 -21 -35 -34 -35 -24 0
-25 11 -5 50 8 16 11 31 6 34 -11 7 -27 -12 -45 -56 -14 -32 -21 -36 -62 -43
-25 -3 -48 -4 -51 -1 -3 3 6 21 21 40 14 19 26 39 26 45 0 18 -17 12 -34 -12
l-17 -22 5 22 c6 32 -10 38 -28 11 -17 -23 -21 -50 -8 -45 8 2 12 -6 12 -28 0
-9 -9 -15 -25 -15 -14 0 -25 -4 -25 -10 0 -17 49 -23 123 -14 40 4 136 8 214
9 136 0 142 1 167 24 30 28 52 93 62 181 6 52 9 60 28 60 11 0 39 11 61 23 35
20 42 30 57 82 9 33 17 84 17 114 1 45 -4 59 -30 92 -31 39 -31 40 -15 73 17
36 20 91 10 145 -12 58 -183 140 -294 141 -33 0 -36 3 -49 44 -7 24 -22 54
-33 66 -11 12 -18 23 -17 24 2 2 49 -2 104 -9 55 -7 150 -18 210 -25 79 -9
140 -23 216 -50 58 -21 110 -35 116 -32 16 11 22 39 30 142 9 112 6 283 -5
325 -5 17 -16 31 -24 33 -9 2 -56 -17 -106 -41 -99 -49 -161 -63 -332 -72 -58
-3 -135 -8 -171 -11 -41 -4 -69 -2 -73 4 -3 5 -11 45 -17 89 -16 116 -17 121
-42 143 -16 15 -22 33 -22 63 0 38 -3 43 -33 56 l-33 15 6 245 c3 136 8 896
11 1691 3 795 7 1446 9 1448 2 2 42 7 89 9 l86 6 0 -90 c0 -75 3 -95 20 -116
11 -14 20 -39 20 -55 0 -40 9 -45 56 -29 29 10 41 22 50 48 19 51 17 72 -11
109 -21 28 -25 45 -25 101 l0 67 49 20 c49 22 87 63 110 119 8 20 27 39 50 50
31 15 36 23 37 53 2 57 3 59 35 87 22 20 29 33 25 49 -4 13 2 32 15 48 22 28
46 36 31 10 -5 -9 -3 -57 6 -117 19 -139 19 -354 -1 -517 -9 -75 -20 -169 -23
-210 -3 -41 -14 -137 -25 -213 -37 -269 -25 -389 66 -662 128 -378 135 -507
40 -692 -57 -110 -61 -134 -44 -257 12 -91 16 -103 43 -128 38 -35 44 -35 57
0 16 41 49 209 49 250 0 19 7 43 16 53 9 10 20 33 25 51 6 24 7 18 2 -22 -10
-91 -9 -105 7 -105 17 0 71 104 93 176 10 35 11 67 5 128 -9 79 -8 83 15 101
14 11 32 46 47 94 22 70 23 82 12 149 -6 40 -14 82 -17 93 -6 17 -5 17 12 -2
10 -12 23 -30 29 -40 10 -16 13 -17 28 -5 32 27 15 168 -32 271 -17 37 -25 74
-26 115 -2 52 -8 72 -50 145 -26 47 -76 126 -111 176 -53 77 -95 167 -95 206
0 21 21 -7 50 -66 39 -78 88 -129 121 -124 17 2 25 10 27 30 3 23 8 26 34 26
43 -1 52 20 22 55 -26 31 -58 87 -49 87 2 0 19 -9 37 -20 71 -43 75 -22 13 70
-45 69 -69 130 -46 116 19 -12 41 14 41 50 0 40 -31 123 -62 164 -24 33 -18
52 9 28 27 -23 79 -48 103 -48 28 0 25 22 -6 51 -36 33 -84 104 -84 124 0 14
6 12 31 -9 35 -29 61 -33 79 -11 20 25 2 67 -52 118 l-50 47 39 0 c49 0 77 18
67 44 -9 24 -120 76 -161 76 -53 0 -46 16 15 30 31 8 67 20 80 28 33 21 25 54
-16 64 -44 12 -49 31 -18 69 30 35 33 61 10 80 -12 10 -20 10 -34 1 -23 -14
-30 1 -30 67 0 62 -32 97 -80 87 -28 -5 -31 -4 -25 15 8 24 -3 99 -15 99 -5 0
-18 -20 -30 -44 -11 -24 -28 -50 -36 -56 -12 -10 -14 -8 -14 17 0 45 -15 54
-69 37 -43 -13 -47 -13 -60 6 -14 20 -41 28 -41 11 0 -5 -16 7 -35 26 -47 47
-60 40 -62 -37 -1 -34 -4 -65 -7 -67 -2 -3 -14 5 -26 17 -30 30 -44 21 -51
-31 -3 -24 -13 -60 -21 -79 -49 -117 -40 -110 -98 -80 -40 20 -53 40 -26 40
21 0 55 47 49 69 -3 10 0 22 6 25 25 16 10 56 -39 106 -55 54 -87 63 -128 34
-13 -9 -35 -17 -49 -19 -54 -6 -75 -67 -51 -147 10 -33 9 -41 -3 -49 -26 -16
-29 -10 -29 60 0 109 -5 119 -91 194 -80 69 -95 76 -120 55z m20 -189 c1 -71
-1 -134 -4 -138 -2 -5 -19 -6 -37 -2 l-33 7 0 83 c-1 72 2 88 27 132 16 27 32
49 37 49 5 0 10 -59 10 -131z m92 99 c48 -38 58 -71 50 -168 l-6 -75 -45 0
-45 0 -3 138 c-1 75 0 137 3 137 4 0 24 -14 46 -32z m307 -45 c2 -13 9 -23 16
-23 7 0 21 -9 32 -21 18 -20 18 -21 -1 -35 -14 -10 -20 -27 -20 -52 0 -36 -1
-37 -37 -40 -21 -2 -38 -8 -38 -13 0 -17 20 -49 30 -49 5 0 26 -11 46 -25 66
-45 241 -77 302 -55 18 6 36 10 38 7 3 -2 -5 -20 -16 -40 -11 -19 -20 -39 -19
-43 4 -23 -3 -25 -27 -9 -29 19 -61 30 -144 50 -30 8 -89 22 -130 33 -41 11
-102 23 -135 25 -33 3 -100 11 -150 18 -134 17 -324 6 -535 -32 -30 -6 -66
-12 -80 -14 -36 -6 -185 -52 -209 -65 -17 -9 -22 -8 -27 4 -3 8 -3 19 0 24 3
5 -9 23 -27 40 -46 44 -53 55 -49 74 4 18 -33 48 -61 48 -18 0 -34 26 -23 37
4 4 19 0 34 -9 20 -12 32 -14 45 -6 28 15 50 2 43 -26 -3 -14 -2 -28 4 -31 5
-3 10 -17 10 -30 0 -14 8 -29 19 -35 54 -28 339 16 386 60 29 28 32 50 7 50
-24 0 -32 8 -25 26 3 9 13 12 25 8 24 -7 75 13 82 33 3 8 1 23 -4 33 -8 15
-19 18 -52 15 -42 -4 -58 -17 -58 -47 0 -14 -5 -16 -22 -9 -28 11 -27 48 1 68
11 7 21 23 23 36 4 31 53 37 61 8 5 -22 31 -28 42 -11 3 6 13 10 21 10 10 0
14 -12 14 -39 0 -22 5 -43 11 -47 6 -3 9 -19 5 -34 -6 -35 13 -54 81 -80 41
-15 71 -18 169 -15 139 4 200 17 232 51 13 13 33 24 45 24 29 0 67 27 67 47 0
21 -29 53 -48 53 -7 0 -27 -9 -43 -21 -22 -16 -28 -26 -24 -42 6 -22 6 -22 -9
-3 -20 25 -20 42 0 50 15 6 15 8 0 24 -18 20 -5 42 24 42 9 0 25 7 36 15 27
21 58 15 62 -12z m472 -69 c0 -23 3 -25 25 -20 18 5 25 2 25 -9 0 -9 -9 -15
-24 -15 -14 0 -36 -4 -50 -10 -31 -11 -31 -9 -9 42 20 44 33 49 33 12z m-93
-6 c-3 -8 -6 -5 -6 6 -1 11 2 17 5 13 3 -3 4 -12 1 -19z m-86 -69 c-11 -23
-18 -46 -15 -50 8 -13 48 -11 62 3 9 9 12 9 12 -3 0 -9 -9 -24 -20 -34 -11
-10 -19 -25 -18 -34 2 -13 -5 -16 -37 -14 -22 2 -50 5 -62 8 -21 5 -21 5 6 34
14 15 40 55 56 87 17 33 31 57 33 53 2 -4 -6 -26 -17 -50z m299 -29 c-48 -57
-60 -67 -60 -47 0 7 11 23 25 35 14 12 25 31 25 42 0 15 7 20 26 20 26 0 26 0
-16 -50z m-90 13 c-1 -18 -38 -50 -63 -55 -24 -5 -28 -2 -25 16 2 15 9 20 24
18 12 -1 27 4 34 13 13 16 30 20 30 8z m193 -18 c-3 -9 -8 -14 -10 -11 -3 3
-2 9 2 15 9 16 15 13 8 -4z m-1723 -75 c12 -8 9 -10 -13 -10 -16 0 -26 4 -22
10 8 12 16 12 35 0z m1480 -10 c0 -5 -4 -10 -10 -10 -5 0 -10 5 -10 10 0 6 5
10 10 10 6 0 10 -4 10 -10z m190 -15 c0 -2 -20 -13 -45 -24 -79 -35 -51 -70
57 -72 35 0 79 -6 98 -14 l35 -13 -25 -10 c-14 -5 -45 -13 -70 -17 -25 -4 -54
-13 -65 -19 -11 -7 -32 -16 -47 -20 -19 -4 -28 -13 -28 -26 0 -27 10 -31 97
-31 52 0 87 -6 107 -17 17 -9 40 -20 51 -24 26 -10 -10 -4 -78 12 -52 13 -135
0 -149 -23 -13 -21 14 -37 61 -37 46 0 114 -27 112 -45 0 -6 -29 -11 -63 -13
-88 -4 -114 -39 -53 -72 24 -13 43 -49 43 -85 1 -34 23 -115 32 -115 11 0 56
-78 64 -112 3 -16 5 -28 3 -28 -2 0 -21 27 -42 61 -54 88 -133 179 -154 179
-37 0 -46 -27 -28 -78 9 -26 28 -96 42 -157 15 -60 34 -139 42 -175 9 -36 29
-89 44 -119 16 -30 27 -56 25 -58 -8 -8 -75 116 -92 169 -9 29 -20 60 -24 69
-5 8 -6 27 -3 42 3 16 -1 37 -11 52 -19 29 -56 34 -56 7 0 -10 -5 -23 -11 -29
-9 -9 -9 -20 -1 -40 6 -15 13 -57 15 -93 7 -92 32 -170 78 -237 21 -32 39 -63
39 -70 0 -6 3 -13 8 -15 16 -7 72 -87 105 -152 41 -82 39 -117 -4 -65 -16 19
-29 42 -29 51 0 9 -7 23 -15 32 -8 8 -15 18 -15 23 0 9 -82 141 -134 216 -21
30 -32 38 -53 35 -58 -7 -51 -50 32 -178 31 -48 159 -195 223 -256 32 -31 89
-161 95 -216 3 -27 3 -48 -1 -48 -4 0 -38 58 -75 129 -38 70 -92 159 -122 197
-29 38 -63 81 -75 97 -12 15 -31 27 -42 27 -23 0 -58 -27 -58 -44 0 -18 41
-90 59 -102 9 -7 27 -21 41 -33 22 -19 22 -21 5 -17 -67 17 -80 -87 -24 -194
29 -57 34 -76 39 -171 5 -74 12 -113 23 -130 22 -30 21 -35 -3 -35 -21 0 -29
17 -51 116 -13 60 -74 245 -89 272 -16 28 -48 157 -61 247 -13 94 -8 241 15
401 8 58 20 166 26 240 6 74 15 167 20 205 21 159 22 251 5 410 -9 88 -21 167
-26 176 -6 12 -1 20 18 30 14 8 33 13 42 12 9 -2 36 4 61 11 50 16 60 18 60
11z m-1975 -12 c-11 -3 -26 -14 -33 -24 -16 -24 -74 -27 -66 -4 7 16 55 33 94
33 20 0 21 -1 5 -5z m1155 -23 c153 -22 271 -51 351 -86 46 -19 89 -40 96 -46
18 -15 17 -39 -2 -32 -25 10 -65 -23 -65 -54 0 -16 5 -33 11 -39 6 -6 8 -16 4
-23 -5 -8 -13 -6 -29 8 -83 77 -245 106 -596 106 -273 1 -411 -20 -492 -76
-14 -10 -33 -18 -42 -18 -19 0 -21 21 -5 37 17 17 3 58 -26 73 -21 11 -28 12
-34 1 -10 -15 -45 34 -38 53 5 13 110 47 202 66 200 42 497 55 665 30z m-1204
-171 c-14 -11 -36 -19 -48 -17 -21 4 -19 6 12 20 50 23 67 22 36 -3z m54 -44
c0 -15 7 -26 20 -30 11 -3 20 -11 20 -16 0 -12 -27 -11 -35 2 -4 6 -19 7 -36
4 -28 -6 -29 -6 -18 21 21 57 49 67 49 19z m112 -7 c-9 -9 -12 -7 -12 12 0 19
3 21 12 12 9 -9 9 -15 0 -24z m954 19 c15 -15 2 -3664 -13 -3689 -9 -16 -20
-7 -37 29 -10 21 -31 54 -48 75 l-29 38 2 212 c1 117 3 249 4 293 1 44 5 562
8 1150 8 1219 16 1885 24 1898 5 9 80 4 89 -6z m-266 -10 c0 -7 -6 -20 -12
-29 -11 -14 -21 -15 -70 -6 -78 14 -77 24 5 41 38 8 77 5 77 -6z m120 -14 c3
-139 -9 -2389 -14 -2633 0 -41 -5 -81 -9 -88 -5 -8 -4 -19 4 -28 9 -11 9 -18
-4 -32 -13 -15 -14 -21 -4 -31 9 -9 9 -14 -3 -21 -12 -8 -12 -11 3 -28 18 -19
22 -47 9 -56 -4 -2 -7 -55 -6 -118 1 -62 -3 -119 -8 -125 -7 -9 -6 -18 2 -28
11 -13 10 -18 -4 -28 -16 -12 -16 -14 -2 -26 20 -17 21 -61 2 -61 -23 0 -31
-22 -13 -35 22 -16 22 -37 1 -33 -25 4 -28 -19 -5 -32 12 -6 21 -15 21 -21 0
-6 -4 -8 -9 -5 -14 9 -41 -5 -41 -20 0 -8 10 -19 23 -24 20 -8 19 -9 -12 -9
-30 -1 -33 -3 -27 -26 4 -14 3 -25 -1 -24 -23 4 -33 -3 -33 -21 0 -11 -5 -20
-11 -20 -6 0 -9 -9 -6 -19 3 -13 -1 -21 -15 -24 -18 -5 -19 -2 -14 26 6 36 13
220 21 527 3 113 10 345 15 515 5 171 12 447 15 615 3 168 7 404 10 525 2 121
7 371 11 555 3 184 7 369 9 410 2 41 7 164 11 273 l7 197 38 0 c36 0 39 -2 39
-27z m283 17 c40 -6 83 -13 96 -16 24 -5 24 -5 -9 -25 -20 -13 -59 -23 -101
-26 l-69 -6 0 42 c0 22 3 41 6 41 3 0 38 -5 77 -10z m-574 -50 c27 -23 29 -28
12 -23 -12 3 -24 9 -27 14 -3 5 -14 9 -25 9 -10 0 -19 7 -19 15 0 23 21 17 59
-15z m771 -14 c0 -11 -8 -41 -17 -66 -11 -30 -17 -77 -17 -140 -1 -55 -5 -96
-11 -97 -5 -2 -11 16 -12 40 -1 52 15 261 23 281 8 21 34 8 34 -18z m-1535 14
c-3 -5 -11 -10 -16 -10 -6 0 -7 5 -4 10 3 6 11 10 16 10 6 0 7 -4 4 -10z m664
-17 c33 -83 33 -323 0 -323 -7 0 -8 15 -3 43 13 74 7 242 -11 276 -8 17 -11
31 -6 31 5 0 14 -12 20 -27z m-709 -3 c-20 -13 -33 -13 -25 0 3 6 14 10 23 10
15 0 15 -2 2 -10z m415 -1 c11 -17 -1 -21 -15 -4 -8 9 -8 15 -2 15 6 0 14 -5
17 -11z m235 -18 c12 -23 14 -81 3 -81 -30 1 -58 53 -43 80 13 25 26 25 40 1z
m1030 -44 c0 -23 -52 -77 -75 -77 -9 0 -14 5 -12 13 3 6 14 38 23 69 l18 57
23 -21 c13 -12 23 -30 23 -41z m-1351 32 c14 -2 27 -10 29 -18 3 -10 0 -12
-12 -8 -11 5 -26 -2 -43 -21 -18 -19 -24 -21 -20 -9 4 10 7 33 7 50 0 18 4 27
8 21 4 -7 18 -14 31 -15z m1120 -3 c-53 -20 -136 -30 -144 -17 -6 10 32 16 76
12 8 -1 26 3 40 8 13 5 33 10 44 10 12 0 6 -6 -16 -13z m-1519 -27 c-12 -16
-25 -28 -28 -25 -5 6 36 56 45 56 3 0 -5 -14 -17 -31z m953 4 c37 -11 72 -24
78 -30 7 -7 8 -27 4 -53 -6 -33 -10 -40 -23 -35 -10 4 -48 13 -86 21 -38 7
-70 15 -71 16 -1 2 -5 27 -7 56 -6 61 -17 58 105 25z m597 -53 c0 -22 1 -43 3
-47 1 -5 -9 -10 -23 -11 -14 -2 -29 -8 -35 -13 -5 -5 -35 -9 -68 -9 l-58 0 3
43 c3 39 5 42 38 49 19 4 55 11 80 16 25 5 48 10 53 11 4 0 7 -17 7 -39z
m-1076 -60 c4 -29 3 -38 -2 -25 -12 28 -23 104 -13 85 5 -8 12 -35 15 -60z
m1836 13 c0 -17 14 -46 35 -72 37 -46 44 -61 21 -42 -42 35 -92 141 -67 141 6
0 11 -12 11 -27z m-2305 -90 c-9 -15 -13 -19 -10 -8 4 11 9 34 13 50 5 25 7
27 10 8 2 -12 -4 -34 -13 -50z m275 23 c0 -3 -14 -15 -32 -27 -29 -21 -31 -14
-5 19 9 11 37 17 37 8z m121 -9 c-1 -12 -15 -9 -19 4 -3 6 1 10 8 8 6 -3 11
-8 11 -12z m-42 -52 c-7 -7 -13 -5 -19 5 -15 24 -11 31 10 18 13 -9 16 -16 9
-23z m-21 -68 c2 -10 -3 -17 -12 -17 -10 0 -16 9 -16 21 0 24 23 21 28 -4z
m1320 -37 c6 -57 -5 -65 -38 -27 -33 38 -36 47 -19 64 20 20 54 -1 57 -37z
m-1492 31 c-6 -8 -66 -21 -66 -14 0 5 43 22 58 22 7 1 11 -3 8 -8z m614 -6
c21 -25 22 -105 1 -105 -10 0 -41 79 -41 103 0 21 23 22 40 2z m1430 -14 c0
-10 10 -26 21 -37 12 -10 32 -41 44 -69 32 -69 68 -148 73 -160 3 -5 -9 3 -26
19 -17 15 -40 51 -53 80 -12 28 -26 54 -31 57 -6 4 -18 36 -28 73 -11 37 -15
64 -9 61 5 -4 9 -14 9 -24z m-1764 -86 c9 -28 11 -51 6 -66 -8 -20 -12 -14
-30 46 -12 39 -24 84 -28 100 l-6 30 22 -33 c11 -19 27 -53 36 -77z m-66 -45
c0 -5 -5 -10 -11 -10 -5 0 -7 5 -4 10 3 6 8 10 11 10 2 0 4 -4 4 -10z m-339
-73 c-13 -13 -15 1 -4 30 7 17 8 17 11 -1 2 -10 -1 -23 -7 -29z m574 -86 c9
-35 14 -65 12 -67 -9 -9 -47 87 -47 118 0 47 16 24 35 -51z m-588 47 c-3 -8
-6 -5 -6 6 -1 11 2 17 5 13 3 -3 4 -12 1 -19z m348 -91 c-7 -28 -35 -58 -35
-38 0 22 -20 10 -27 -16 -3 -16 -19 -41 -35 -56 -29 -29 -37 -22 -17 16 14 25
111 128 116 123 2 -2 1 -15 -2 -29z m1909 7 c4 -10 1 -14 -6 -12 -15 5 -23 28
-10 28 5 0 13 -7 16 -16z m-1809 -42 c3 -15 0 -42 -7 -59 -13 -30 -13 -30 -14
28 -1 62 10 78 21 31z m1879 -39 c8 -19 2 -16 -25 13 -23 25 -23 26 -2 13 13
-7 25 -19 27 -26z m-1894 -99 c0 -8 11 -25 25 -38 22 -21 23 -26 14 -62 -6
-21 -18 -52 -26 -68 l-15 -30 -12 35 c-13 38 -9 192 5 183 5 -3 9 -12 9 -20z
m1750 -185 l13 -24 -27 25 c-15 13 -32 34 -39 46 -7 12 -19 34 -28 50 -9 16
-20 40 -24 54 -7 23 78 -98 105 -151z m-1583 8 c3 -45 1 -58 -6 -46 -6 9 -13
45 -16 80 -4 50 -3 60 6 46 6 -11 13 -47 16 -80z m-282 23 c-10 -11 -20 -18
-23 -15 -3 3 3 14 13 25 10 11 20 18 23 15 3 -3 -3 -14 -13 -25z m195 10 c0
-16 -51 -113 -56 -107 -7 6 39 117 49 117 4 0 7 -5 7 -10z m-241 -149 c-11
-28 -28 -56 -37 -63 -14 -12 -15 -9 -8 22 7 40 57 121 63 103 2 -6 -6 -34 -18
-62z m1866 -23 l50 -51 -43 32 c-35 27 -72 71 -59 71 1 0 25 -23 52 -52z m76
-95 c13 -16 12 -17 -3 -4 -17 13 -22 21 -14 21 2 0 10 -8 17 -17z m-1817 -71
c13 -26 30 -109 20 -99 -3 2 -16 35 -29 71 -24 65 -18 82 9 28z m1786 -52 c0
-8 7 -24 15 -34 17 -23 20 -50 5 -41 -15 9 -60 101 -60 122 0 15 4 14 20 -7
11 -14 20 -32 20 -40z m-1845 -45 c2 -14 -1 -25 -6 -25 -5 0 -9 14 -9 32 0 36
11 31 15 -7z m1987 -125 c24 -72 29 -154 10 -185 -11 -18 -12 -17 -6 8 4 16 0
45 -10 70 -15 41 -66 230 -66 245 1 18 52 -80 72 -138z m-2097 -14 c-8 -51
-34 -97 -35 -61 0 22 32 117 38 111 2 -2 0 -25 -3 -50z m98 -89 c2 -37 0 -70
-5 -73 -4 -3 -8 1 -8 8 0 7 -3 56 -5 108 -3 68 -2 85 5 60 5 -19 10 -66 13
-103z m86 68 c-1 -35 -2 -37 -9 -15 -4 14 -8 39 -9 55 0 23 2 26 9 15 5 -8 9
-33 9 -55z m1808 -89 c2 -55 1 -66 -7 -48 -5 13 -7 28 -4 33 3 6 1 15 -4 22
-5 7 -9 31 -9 54 2 67 19 22 24 -61z m50 -68 c-2 -13 -4 -3 -4 22 0 25 2 35 4
23 2 -13 2 -33 0 -45z m-36 -110 c25 -49 43 -178 29 -211 -8 -20 -9 -19 -9 9
-1 17 -12 66 -26 108 -23 69 -33 136 -20 136 2 0 14 -19 26 -42z m-1913 -95
l-4 -28 -13 30 c-7 17 -15 44 -18 60 l-5 30 22 -32 c13 -20 20 -43 18 -60z
m1856 -10 c6 -52 3 -71 -14 -109 -11 -26 -20 -57 -20 -70 0 -12 -6 -29 -14
-37 -16 -16 -24 -66 -13 -84 5 -7 4 -21 -1 -30 -5 -10 -15 -49 -22 -88 -23
-137 -31 -135 -50 11 -12 91 -11 106 5 155 10 30 26 66 37 81 41 59 68 137 68
201 1 76 15 58 24 -30z m-2806 -595 c32 -31 30 -74 -5 -83 -64 -16 -71 -57
-18 -104 44 -38 22 -42 -35 -6 -35 22 -53 52 -55 90 0 18 -33 16 -39 -2 -14
-45 31 -125 87 -155 46 -24 6 -23 -41 1 -74 38 -102 80 -102 152 0 30 6 44 27
62 15 12 37 32 50 44 40 38 90 38 131 1z m436 -193 c30 -20 66 -102 66 -151 0
-45 -32 -99 -70 -119 -47 -24 -54 -17 -17 18 34 31 57 87 57 135 0 31 -16 60
-53 100 -32 34 -23 43 17 17z m-215 -270 c28 -14 80 -54 114 -88 50 -49 70
-78 95 -139 44 -107 40 -130 -7 -33 -54 114 -144 195 -216 195 -41 0 -37 -17
10 -40 45 -22 115 -92 141 -142 22 -43 55 -226 48 -267 -4 -20 -17 -56 -30
-81 -16 -29 -20 -48 -14 -54 13 -13 31 6 65 69 26 48 27 48 21 15 -3 -19 -20
-54 -36 -78 -17 -23 -30 -46 -30 -51 0 -14 31 -35 53 -36 12 -1 34 -2 48 -3
36 -3 105 -59 130 -107 32 -58 24 -168 -14 -218 -28 -37 -55 -48 -61 -24 -33
115 -64 153 -148 180 -61 19 -106 21 -158 8 -19 -5 -47 -12 -62 -15 -35 -8
-125 -83 -280 -232 -31 -30 -68 -27 -113 8 -51 40 -73 155 -41 217 31 60 137
136 203 147 51 8 123 -23 155 -67 25 -33 48 -38 48 -9 0 27 -56 88 -99 106
-51 22 -178 30 -226 14 -47 -16 -133 -93 -151 -137 -16 -38 -19 -119 -4 -128
6 -3 10 -23 10 -43 0 -75 78 -150 165 -160 l45 -5 -4 -61 c-4 -57 -6 -61 -28
-58 -34 4 -165 -25 -202 -46 -17 -9 -64 -43 -103 -74 -40 -32 -79 -58 -86 -58
-7 0 -36 16 -66 35 -29 19 -57 35 -62 35 -22 0 -49 85 -49 154 0 45 4 66 9 57
5 -8 19 -12 35 -9 24 5 26 2 26 -28 0 -68 68 -172 103 -158 21 8 22 24 2 50
-28 37 -15 38 16 1 21 -26 38 -37 52 -35 32 5 31 23 -4 62 -17 20 -32 46 -33
58 -1 29 -21 33 -45 9 l-20 -20 -7 35 c-9 46 2 122 21 151 30 45 -10 60 -44
17 -17 -22 -21 -23 -21 -8 0 50 88 124 148 124 37 0 62 9 62 22 0 5 10 18 22
28 22 17 22 17 3 46 -24 35 -53 119 -54 154 -1 31 40 120 65 141 10 9 35 24
54 33 33 16 36 16 61 -3 43 -32 99 -51 150 -51 63 0 71 16 13 25 -53 8 -135
47 -165 78 -11 12 -32 44 -46 71 -23 45 -25 59 -21 135 5 98 16 124 82 198 76
85 190 125 338 118 68 -3 97 -9 137 -30z m248 -442 c-2 -16 -4 -3 -4 27 0 30
2 43 4 28 2 -16 2 -40 0 -55z m1332 -62 c23 -59 10 -70 -66 -50 l-42 11 25 38
c20 29 30 36 49 33 14 -3 28 -16 34 -32z m174 -110 c5 -5 6 -15 2 -21 -6 -9
-59 -11 -219 -5 -116 4 -214 9 -218 12 -5 2 -8 11 -8 19 0 13 30 14 217 9 119
-3 221 -9 226 -14z m-178 -66 c211 -5 199 3 223 -155 5 -36 11 -72 13 -80 3
-12 -14 -14 -106 -12 -204 4 -297 13 -291 28 6 15 -21 33 -50 33 -10 -1 -32 4
-49 10 -28 9 -27 10 18 9 58 -2 83 16 43 32 -15 5 -44 11 -64 11 -20 1 -1 6
43 11 87 10 94 13 77 30 -7 7 -40 12 -82 11 -54 -1 -70 2 -70 13 0 11 18 14
79 14 46 0 83 5 86 11 11 17 -1 22 -61 27 -37 3 -51 8 -42 13 7 5 24 7 38 4
14 -3 102 -7 195 -10z m-2231 -222 c4 -4 -20 -13 -53 -19 -101 -21 -181 -88
-212 -176 l-18 -53 0 60 -1 59 58 57 c61 59 100 76 178 78 22 1 44 -2 48 -6z
m1356 -21 c70 -16 364 -31 730 -38 184 -3 360 -7 390 -8 175 -8 531 22 647 56
23 7 45 9 48 6 3 -3 8 -23 12 -44 5 -37 5 -38 -11 -19 l-16 20 -16 -20 c-8
-11 -14 -32 -11 -47 3 -22 1 -25 -10 -16 -8 7 -17 7 -22 2 -13 -14 -24 -141
-13 -148 12 -7 28 11 35 39 4 16 5 14 6 -7 2 -47 32 -43 44 7 2 11 5 -6 6 -37
0 -32 -2 -58 -5 -58 -3 0 -29 7 -57 15 -53 15 -269 50 -367 60 -492 47 -1047
25 -1399 -55 -74 -17 -140 -29 -147 -26 -21 8 -17 28 5 21 10 -3 23 1 30 9 7
8 19 12 26 10 17 -7 35 25 36 68 2 30 2 31 6 6 9 -59 49 -23 48 42 0 30 -3 35
-22 34 -17 0 -23 5 -23 22 0 29 -16 39 -35 24 -13 -11 -15 -7 -15 23 0 40 -14
55 -35 37 -13 -10 -15 -8 -15 15 0 26 1 27 53 22 28 -3 72 -9 97 -15z m667 12
c-3 -3 -12 -4 -19 -1 -8 3 -5 6 6 6 11 1 17 -2 13 -5z m-1272 -44 c4 -6 -11
-10 -37 -10 -56 0 -132 -37 -136 -66 -4 -26 28 -42 43 -21 16 22 71 47 105 47
37 0 100 -44 100 -70 0 -29 25 -43 44 -25 9 9 16 23 16 31 0 17 -50 66 -95 95
-38 24 -12 26 46 3 63 -26 109 -118 109 -222 0 -49 -7 -56 -36 -33 -58 45
-146 30 -183 -30 -29 -47 -12 -109 30 -109 23 0 35 18 20 33 -15 15 -14 50 1
65 21 21 82 14 107 -12 23 -24 26 -50 19 -137 -8 -91 -66 -145 -182 -169 -68
-14 -74 -10 -87 51 -18 81 -128 167 -236 184 -41 6 -43 8 -45 43 -2 59 2 85
22 127 l19 40 -1 -35 c-2 -45 10 -82 25 -77 7 2 15 27 20 56 4 30 14 68 23 86
17 36 114 139 122 130 3 -3 15 1 27 9 36 24 129 34 140 16z m2382 -132 c-3 -7
-5 -2 -5 12 0 14 2 19 5 13 2 -7 2 -19 0 -25z m-1930 -30 c-3 -8 -6 -5 -6 6
-1 11 2 17 5 13 3 -3 4 -12 1 -19z m-176 -48 c26 -15 49 -62 49 -104 0 -37
-35 -80 -75 -92 -11 -4 -28 -13 -38 -22 -17 -15 -18 -14 -11 29 8 53 17 64 52
64 53 0 56 85 3 93 -13 2 -21 11 -21 23 0 21 12 24 41 9z m1355 -51 c-3 -17
-6 -49 -6 -70 0 -38 -1 -39 -37 -39 -34 0 -35 1 -17 14 18 14 18 15 -9 25 -16
6 -62 10 -103 8 -107 -3 -91 10 21 18 71 6 95 11 95 21 0 8 -7 14 -15 14 -29
0 18 38 49 39 27 1 28 -1 22 -30z m147 -1 c42 -42 69 -86 62 -98 -3 -6 -42
-10 -86 -10 -92 0 -95 2 -84 85 6 55 7 55 41 55 26 0 43 -8 67 -32z m-433 -4
c0 -2 -9 -4 -20 -4 -11 0 -20 4 -20 9 0 5 9 7 20 4 11 -3 20 -7 20 -9z m-13
-100 c-3 -3 -12 -4 -19 -1 -8 3 -5 6 6 6 11 1 17 -2 13 -5z m171 -1 c-21 -2
-55 -2 -75 0 -21 2 -4 4 37 4 41 0 58 -2 38 -4z m-2031 -49 c-3 -3 -12 -4 -19
-1 -8 3 -5 6 6 6 11 1 17 -2 13 -5z m933 -21 c55 -31 82 -69 83 -119 1 -43
-25 -70 -76 -79 l-37 -7 10 28 c31 79 -48 146 -111 95 -18 -15 -21 -22 -13
-31 9 -9 17 -9 34 0 41 22 69 -30 34 -65 -35 -35 -116 12 -112 65 1 14 -1 31
-5 37 -14 22 13 54 66 79 65 30 69 30 127 -3z m-800 -8 c7 -8 23 -15 35 -15
28 0 74 -35 85 -66 11 -28 23 -30 43 -9 13 12 17 12 29 -3 30 -34 51 -132 29
-132 -15 0 -36 -113 -22 -118 20 -7 11 -35 -29 -88 -28 -38 -52 -57 -85 -69
-86 -34 -192 -3 -239 70 -11 17 -14 37 -9 70 8 62 35 95 78 95 40 0 44 -5 38
-46 -3 -21 -13 -35 -29 -43 -44 -20 -19 -50 31 -37 44 11 70 79 50 131 -7 19
-7 19 10 4 25 -24 23 -83 -3 -119 -20 -27 -21 -31 -7 -36 11 -4 29 5 51 27 40
39 45 85 14 137 -11 18 -20 39 -20 47 0 21 -53 45 -98 45 -60 0 -135 -27 -166
-59 -28 -29 -28 -58 0 -47 8 3 14 -1 14 -9 0 -8 -4 -15 -10 -15 -22 0 -29 -38
-19 -98 14 -80 37 -113 102 -150 59 -33 88 -38 149 -27 l37 7 -26 -73 c-23
-63 -27 -91 -27 -189 -1 -166 32 -247 150 -364 35 -34 64 -69 64 -78 0 -8 -18
-36 -41 -61 -49 -56 -107 -77 -214 -77 -58 0 -85 6 -137 29 -60 28 -148 99
-148 121 0 16 11 12 54 -23 92 -73 161 -98 241 -87 78 11 155 54 155 86 0 26
-20 23 -56 -8 -33 -30 -42 -32 -104 -32 -57 1 -76 6 -124 34 -61 34 -99 69
-121 110 -20 38 -29 114 -16 139 10 17 9 22 -5 28 -22 8 -47 -8 -58 -40 -7
-19 -4 -49 11 -109 14 -53 17 -77 9 -65 -39 52 -45 217 -10 276 20 34 33 34
114 -2 62 -28 184 -35 209 -13 25 23 17 76 -13 76 -24 0 -83 37 -150 93 -33
29 -49 36 -61 30 -14 -8 -10 -18 30 -66 25 -31 42 -57 36 -57 -5 0 -35 24 -67
52 -62 57 -104 132 -104 185 0 41 -14 49 -40 23 -11 -11 -20 -17 -21 -12 -7
81 -7 153 1 186 10 48 0 66 -26 45 -16 -13 -17 -12 -11 5 4 11 12 39 18 64 13
61 24 79 77 134 48 50 51 63 9 53 -36 -9 -84 -61 -117 -125 -35 -67 -39 -60
-6 13 12 29 36 65 52 79 113 105 187 147 270 155 36 4 54 10 54 19 0 20 74 18
90 -1z m603 -192 l20 -23 -83 0 -83 0 46 31 c26 17 50 36 53 41 4 6 11 3 17
-8 5 -11 19 -29 30 -41z m-624 -17 c10 -11 4 -13 -32 -9 -23 3 -59 1 -80 -5
-46 -13 -48 -6 -4 13 41 18 101 19 116 1z m-439 -242 c-6 -14 -10 -42 -10 -61
0 -20 -3 -34 -6 -31 -10 11 -6 88 6 103 18 22 21 19 10 -11z m-90 -25 c0 -11
-9 -28 -21 -38 -69 -56 -45 -198 44 -265 25 -19 28 -19 44 -4 15 15 13 20 -19
58 -38 43 -58 124 -40 157 11 18 10 19 32 -64 10 -41 81 -155 128 -205 l25
-27 -24 -30 c-13 -16 -31 -30 -39 -30 -26 -1 -128 56 -154 86 -41 46 -66 127
-66 212 0 63 18 121 47 153 22 24 43 23 43 -3z m720 -76 c-10 -27 -21 -78 -25
-115 -5 -55 -9 -66 -22 -61 -24 9 -43 -25 -43 -76 0 -55 11 -74 36 -69 14 2
21 15 24 43 l6 40 8 -45 c11 -58 29 -93 79 -153 58 -70 92 -83 237 -92 91 -5
114 -16 129 -62 10 -30 10 -48 1 -82 -9 -36 -18 -45 -53 -62 -58 -26 -82 -24
-29 2 24 12 49 34 58 50 13 27 13 33 -4 72 -24 54 -46 71 -89 70 -43 -1 -84
-36 -65 -55 9 -9 17 -8 38 2 37 20 79 -4 79 -45 0 -34 -51 -75 -94 -75 -60 1
-233 96 -257 142 -5 9 -22 32 -37 51 -32 41 -65 128 -78 209 -16 102 27 303
74 340 39 31 47 22 27 -29z m-536 -208 c4 -11 -5 3 -19 30 -13 28 -25 59 -25
70 1 17 24 -35 44 -100z m2240 -361 c9 -3 16 -16 16 -28 0 -19 -6 -21 -65 -24
-43 -2 -65 1 -65 9 0 7 9 9 25 5 27 -7 65 8 65 24 0 6 -21 10 -46 10 -28 0
-43 4 -39 10 6 10 77 6 109 -6z m-1 -116 c41 -21 62 -133 30 -159 -42 -35 -71
-43 -100 -29 l-28 13 38 7 c71 13 61 34 -20 45 -41 5 -53 4 -53 -7 -1 -7 -8
-1 -16 15 -16 30 -24 33 -43 15 -29 -28 2 58 32 90 31 32 34 33 87 26 30 -4
63 -11 73 -16z m-1613 -83 c0 -7 6 -18 13 -22 6 -4 23 -20 36 -36 18 -20 22
-30 14 -38 -9 -9 -21 -6 -47 10 -38 24 -51 49 -41 81 7 23 25 27 25 5z m1490
-119 c48 -27 49 -34 3 -14 -34 14 -83 58 -83 72 0 6 8 1 18 -11 9 -12 37 -33
62 -47z"/>
<path d="M2563 8100 c-6 -22 -18 -26 -28 -10 -12 19 -35 10 -46 -16 -15 -40
11 -74 56 -74 44 0 70 34 60 79 -8 36 -35 50 -42 21z"/>
<path d="M2150 8065 c-15 -18 -16 -63 -2 -77 5 -5 28 -12 49 -15 34 -4 43 -2
56 17 20 29 8 75 -21 75 -11 0 -24 4 -28 8 -12 12 -41 8 -54 -8z"/>
<path d="M2858 8069 c-21 -12 -24 -69 -6 -87 19 -19 82 -15 102 7 24 26 13 61
-18 61 -13 0 -29 7 -36 15 -15 17 -19 18 -42 4z"/>
<path d="M740 4756 c-20 -20 -8 -26 54 -26 64 0 92 14 65 31 -18 11 -107 7
-119 -5z"/>
<path d="M580 4720 c-20 -15 -22 -21 -13 -31 10 -10 18 -8 38 11 13 12 22 27
19 31 -8 13 -16 11 -44 -11z"/>
<path d="M476 4620 c-55 -66 -66 -199 -23 -272 32 -55 79 -90 115 -86 29 3 46
38 18 38 -30 0 -83 64 -100 119 -14 49 -14 59 0 114 8 33 22 69 30 82 13 20
10 35 -7 35 -4 0 -19 -14 -33 -30z"/>
<path d="M630 4622 c-73 -39 -106 -129 -73 -198 36 -76 121 -105 188 -64 36
22 48 42 39 65 -9 24 -32 18 -46 -12 -12 -24 -19 -28 -58 -28 -39 0 -47 4 -67
34 -44 65 -17 154 52 167 74 14 135 -10 179 -70 32 -43 29 -157 -6 -211 -14
-22 -33 -46 -42 -54 -9 -7 -16 -17 -16 -22 0 -20 29 -7 63 27 83 84 86 247 5
320 -60 55 -161 76 -218 46z"/>
<path d="M655 4525 c-14 -13 -25 -31 -25 -40 0 -28 31 -65 56 -65 30 0 42 20
21 35 -21 15 -22 49 -2 65 8 7 12 16 9 21 -10 16 -34 10 -59 -16z"/>
<path d="M1036 4481 c-6 -9 19 -113 34 -141 18 -33 10 -103 -20 -180 -32 -80
-36 -100 -20 -100 23 0 47 24 42 42 -2 10 0 24 5 31 21 27 46 113 46 156 1 64
-17 145 -37 175 -16 26 -40 34 -50 17z"/>
<path d="M742 4214 c4 -21 22 -23 26 -1 2 10 -3 17 -13 17 -10 0 -15 -6 -13
-16z"/>
<path d="M405 4188 c-67 -58 -93 -142 -66 -210 11 -30 45 -38 54 -15 3 8 0 32
-6 54 -13 52 12 125 51 151 45 28 55 52 22 52 -10 0 -35 -14 -55 -32z"/>
<path d="M444 4136 c-44 -43 -61 -96 -31 -96 18 0 37 21 37 41 0 9 16 30 37
46 21 18 33 34 29 41 -12 20 -27 14 -72 -32z"/>
<path d="M528 4129 c-20 -11 -24 -39 -7 -39 20 0 49 21 49 35 0 17 -17 19 -42
4z"/>
<path d="M1197 4023 c-13 -13 -7 -23 26 -39 40 -20 76 -62 77 -89 1 -40 13
-65 30 -65 36 0 41 66 9 117 -35 57 -118 101 -142 76z"/>
<path d="M605 3966 c-16 -8 -48 -32 -70 -55 -39 -41 -40 -44 -40 -112 0 -67 2
-72 33 -100 56 -50 101 -26 51 27 -29 31 -36 101 -15 142 9 18 35 44 57 59 56
37 44 66 -16 39z"/>
<path d="M1207 3944 c-3 -4 6 -21 21 -40 20 -25 29 -30 39 -22 16 13 17 40 1
56 -13 13 -50 16 -61 6z"/>
<path d="M592 3838 c-24 -24 -11 -78 18 -78 20 0 30 21 27 60 -2 27 -26 37
-45 18z"/>
<path d="M257 3793 c-14 -13 -6 -24 15 -21 27 4 36 28 11 28 -11 0 -23 -3 -26
-7z"/>
<path d="M52 3468 c-9 -9 -6 -20 10 -50 29 -51 60 -71 83 -54 16 12 15 16 -20
64 -38 53 -52 61 -73 40z"/>
<path d="M184 3339 c-8 -13 15 -30 36 -26 8 1 16 10 18 20 3 12 -3 17 -22 17
-14 0 -28 -5 -32 -11z"/>
<path d="M3352 3727 c-6 -6 -12 -23 -15 -37 -4 -21 -4 -20 -6 8 -1 35 -11 41
-31 17 -7 -8 -20 -15 -30 -15 -22 0 -35 -29 -20 -44 8 -8 15 -6 26 8 14 19 14
19 14 -2 0 -24 19 -29 38 -10 9 9 12 7 12 -10 0 -25 25 -30 34 -6 9 24 7 92
-3 98 -5 3 -13 0 -19 -7z"/>
<path d="M1690 3686 c-14 -18 -6 -50 13 -44 15 6 22 37 10 49 -6 6 -15 4 -23
-5z"/>
<path d="M1750 3685 c-10 -11 -10 -19 -2 -27 15 -15 44 -2 40 19 -4 23 -22 27
-38 8z"/>
<path d="M3194 3689 c-3 -6 -2 -15 4 -21 13 -13 32 -2 32 18 0 16 -26 19 -36
3z"/>
<path d="M1120 3487 c0 -14 52 -57 70 -57 18 0 11 49 -9 60 -27 14 -61 13 -61
-3z"/>
<path d="M1163 3403 c-7 -2 -13 -16 -13 -30 0 -15 -11 -41 -25 -59 -14 -18
-25 -37 -25 -43 0 -22 39 -10 69 21 27 27 31 39 29 72 -3 39 -12 49 -35 39z"/>
<path d="M1368 3379 c-41 -24 -10 -52 32 -29 22 12 90 -23 90 -46 0 -8 9 -14
20 -14 12 0 20 7 20 18 -1 57 -107 104 -162 71z"/>
<path d="M484 2215 c-8 -20 0 -30 49 -63 71 -49 171 -50 229 -3 37 31 11 46
-37 21 -22 -11 -52 -20 -67 -20 -29 0 -90 30 -124 61 -24 23 -43 24 -50 4z"/>
<path d="M775 2480 c-18 -29 123 -240 160 -240 7 0 26 -7 41 -15 36 -19 74
-19 74 -1 0 8 -11 17 -25 20 -34 9 -96 52 -121 84 -22 28 -54 88 -73 135 -11
27 -43 37 -56 17z"/>
<path d="M980 5524 c-11 -12 -9 -20 8 -44 12 -16 22 -39 22 -52 0 -30 15 -52
29 -44 17 11 13 63 -9 106 -24 47 -34 54 -50 34z"/>
<path d="M123 5273 c-29 -6 -75 -60 -71 -85 4 -28 21 -24 39 8 12 23 24 30 53
32 24 2 44 -2 55 -12 19 -18 31 -12 31 14 0 39 -42 56 -107 43z"/>
<path d="M1765 5203 c-12 -29 -14 -115 -4 -155 5 -21 27 -56 48 -78 33 -35 43
-40 84 -40 37 0 49 -5 66 -26 16 -21 26 -25 49 -19 24 5 30 13 39 52 18 79
-22 166 -90 194 -33 14 -37 15 -74 17 -13 1 -29 16 -42 37 -23 39 -63 48 -76
18z m129 -93 c48 0 116 -79 116 -135 0 -29 -7 -31 -34 -10 -11 8 -37 15 -57
15 -60 0 -85 14 -103 59 -16 43 -21 83 -10 94 4 3 19 0 35 -8 15 -8 39 -15 53
-15z"/>
<path d="M3050 5151 c-5 -11 -10 -53 -10 -94 0 -60 4 -80 23 -108 30 -45 83
-79 122 -79 42 0 92 -18 99 -36 8 -22 30 -17 61 16 25 26 27 34 22 79 -7 61
-28 103 -59 118 -55 28 -154 65 -172 65 -11 -1 -22 10 -29 29 -13 33 -41 38
-57 10z m75 -61 c9 -15 85 -52 119 -59 36 -8 66 -47 75 -98 11 -56 4 -67 -26
-43 -15 12 -41 20 -63 20 -60 0 -99 19 -126 61 -22 36 -23 43 -13 84 11 44 22
55 34 35z"/>
<path d="M310 5020 c-42 -9 -110 -49 -110 -65 0 -20 9 -19 63 5 36 16 57 19
106 14 52 -6 61 -4 61 9 0 9 -4 18 -8 21 -19 11 -88 22 -112 16z"/>
<path d="M1011 4992 c-15 -22 -17 -32 -9 -40 17 -17 48 -15 48 3 0 18 16 20
26 3 4 -6 10 -25 13 -41 8 -38 24 -44 38 -14 20 43 -30 117 -79 117 -9 0 -26
-13 -37 -28z"/>
<path d="M209 4902 c-24 -16 -51 -38 -60 -48 -24 -28 -66 -114 -74 -151 -13
-65 15 -41 59 50 54 112 73 128 168 135 58 4 68 7 68 23 0 16 -8 19 -58 19
-47 0 -67 -6 -103 -28z"/>
<path d="M472 4918 c-8 -8 -8 -17 3 -37 7 -14 16 -34 19 -44 8 -27 30 -15 34
17 3 26 -20 76 -36 76 -5 0 -13 -5 -20 -12z"/>
<path d="M203 4814 c-7 -3 -13 -10 -13 -14 0 -5 -12 -21 -26 -35 -20 -21 -24
-29 -15 -38 10 -9 16 -7 27 7 8 11 14 25 14 32 0 7 15 14 33 16 20 2 32 8 32
18 0 15 -30 23 -52 14z"/>
<path d="M1780 4745 c-19 -21 -21 -27 -10 -40 8 -10 13 -36 11 -64 -1 -39 3
-54 24 -79 14 -16 36 -33 50 -36 45 -12 93 -47 110 -81 13 -28 22 -35 45 -35
24 0 31 5 35 28 3 15 11 44 17 65 12 41 -1 116 -25 146 -25 30 -91 71 -114 71
-13 0 -36 9 -51 19 -45 32 -66 34 -92 6z m90 -60 c7 -9 20 -13 29 -10 23 7 78
-29 101 -67 12 -19 20 -51 20 -75 0 -45 -9 -53 -30 -28 -7 8 -40 28 -74 44
-74 35 -101 74 -84 122 11 33 20 36 38 14z"/>
<path d="M1402 4656 c-24 -31 -29 -133 -8 -173 26 -50 55 -73 90 -73 24 0 45
-10 78 -39 82 -72 120 -61 120 34 0 53 -8 81 -33 117 -19 27 -101 78 -124 78
-7 0 -31 18 -54 40 -22 22 -43 40 -45 40 -3 0 -13 -11 -24 -24z m53 -67 c4 -5
30 -21 58 -35 79 -38 103 -64 122 -131 8 -29 -10 -38 -33 -15 -16 16 -80 44
-127 57 -19 5 -55 86 -49 111 7 25 19 31 29 13z"/>
<path d="M3459 4668 c-1 -7 -1 -17 0 -22 1 -5 5 -50 8 -100 8 -134 53 -206
128 -206 18 0 44 -9 58 -20 14 -11 28 -20 32 -20 4 0 24 18 45 40 l38 40 -12
48 c-7 26 -18 57 -24 68 -16 30 -76 73 -126 90 -31 11 -52 27 -71 55 -28 39
-73 55 -76 27z m133 -123 c80 -37 112 -80 110 -148 -3 -54 -9 -60 -39 -37 -14
11 -36 20 -48 20 -56 0 -104 82 -91 154 4 20 8 36 10 36 2 0 28 -11 58 -25z"/>
<path d="M2967 4642 c-73 -79 -66 -159 22 -236 18 -17 40 -31 49 -32 44 -7 67
-17 84 -40 23 -29 38 -30 67 -6 26 21 37 98 21 147 -11 34 -57 76 -114 105
-15 8 -45 31 -66 51 l-38 37 -25 -26z m66 -77 c28 -19 57 -35 64 -35 6 0 25
-12 42 -26 27 -22 31 -32 31 -75 0 -48 -11 -63 -27 -35 -8 13 -45 27 -106 40
-38 9 -67 59 -67 119 0 26 2 47 5 47 3 0 29 -16 58 -35z"/>
<path d="M2574 3326 c-8 -22 0 -81 11 -81 6 0 11 21 13 48 3 45 -12 65 -24 33z"/>
<path d="M2526 3305 c-9 -26 -7 -73 4 -80 12 -8 19 8 22 54 3 36 -15 53 -26
26z"/>
<path d="M2467 3284 c-11 -11 -8 -52 4 -60 14 -8 30 15 27 40 -3 21 -20 31
-31 20z"/>
<path d="M2413 3244 c-8 -20 13 -42 27 -28 12 12 3 44 -11 44 -5 0 -12 -7 -16
-16z"/>
<path d="M2365 3211 c-7 -12 12 -24 25 -16 11 7 4 25 -10 25 -5 0 -11 -4 -15
-9z"/>
<path d="M2250 3160 c0 -5 7 -7 15 -4 8 4 15 8 15 10 0 2 -7 4 -15 4 -8 0 -15
-4 -15 -10z"/>
<path d="M2690 3085 c-10 -11 -16 -13 -26 -4 -11 9 -15 7 -20 -5 -8 -21 -7
-22 32 -30 27 -6 32 -4 37 16 8 29 -6 43 -23 23z"/>
<path d="M2582 3059 c2 -6 8 -10 13 -10 5 0 11 4 13 10 2 6 -4 11 -13 11 -9 0
-15 -5 -13 -11z"/>
<path d="M2689 2933 c-18 -47 -22 -80 -10 -88 14 -8 41 52 41 90 0 33 -18 32
-31 -2z"/>
<path d="M2744 2943 c-3 -10 -10 -30 -16 -45 -11 -30 -3 -68 11 -52 13 14 40
102 33 108 -10 11 -23 6 -28 -11z"/>
<path d="M2592 2928 c-5 -7 -13 -27 -16 -44 -7 -29 -5 -32 23 -36 35 -5 61 23
61 67 0 29 -14 33 -29 8 -10 -17 -10 -17 -11 0 0 20 -13 22 -28 5z"/>
<path d="M2536 2908 c-11 -41 -8 -52 9 -38 16 13 21 60 6 60 -5 0 -11 -10 -15
-22z"/>
<path d="M2487 2903 c-4 -3 -7 -15 -7 -25 0 -26 24 -17 28 10 3 21 -8 29 -21
15z"/>
<path d="M2405 2870 c-3 -5 1 -10 9 -10 8 0 18 5 21 10 3 6 -1 10 -9 10 -8 0
-18 -4 -21 -10z"/>
<path d="M2516 2625 c-30 -46 -9 -51 24 -5 16 23 18 30 7 30 -8 0 -22 -11 -31
-25z"/>
<path d="M2561 2619 c-13 -17 -20 -33 -17 -36 8 -9 56 38 56 54 0 22 -15 15
-39 -18z"/>
<path d="M2445 2630 c-3 -5 -19 -10 -35 -10 -16 0 -32 -4 -35 -10 -9 -14 68
-13 83 2 7 7 12 16 12 20 0 11 -18 10 -25 -2z"/>
<path d="M2670 2437 c0 -19 -4 -24 -18 -20 -31 8 -69 -14 -74 -41 -7 -34 3
-39 38 -21 16 8 36 15 45 15 24 0 41 25 37 56 -4 36 -28 45 -28 11z"/>
<path d="M2780 2439 c0 -5 5 -7 10 -4 6 3 10 8 10 11 0 2 -4 4 -10 4 -5 0 -10
-5 -10 -11z"/>
<path d="M2720 2430 c0 -5 5 -10 10 -10 6 0 10 5 10 10 0 6 -4 10 -10 10 -5 0
-10 -4 -10 -10z"/>
<path d="M1576 2404 c-22 -12 -45 -15 -95 -10 -119 11 -151 11 -153 2 -4 -12
39 -24 127 -35 59 -7 78 -5 123 11 29 11 52 26 52 34 0 18 -17 17 -54 -2z"/>
<path d="M2345 2388 c9 -41 12 -45 27 -30 8 8 14 7 24 -6 20 -27 39 -2 27 34
-8 24 -16 29 -47 32 l-38 2 7 -32z"/>
<path d="M2282 2398 c3 -7 13 -15 22 -16 12 -3 17 1 14 10 -3 7 -13 15 -22 16
-12 3 -17 -1 -14 -10z"/>
<path d="M2463 2384 c-8 -22 5 -47 19 -37 7 4 22 8 33 8 13 0 20 7 20 20 0 16
-7 20 -33 22 -21 1 -35 -4 -39 -13z"/>
<path d="M1522 2264 c-12 -8 -22 -23 -22 -33 0 -20 -13 -48 -44 -94 -26 -39
-102 -89 -155 -103 -54 -13 -66 -34 -21 -34 64 0 189 76 230 140 56 87 63 160
12 124z"/>
<path d="M1397 2183 c-36 -49 -36 -74 1 -54 28 15 62 60 62 82 0 33 -27 21
-63 -28z"/>
<path d="M4145 1404 c-22 -24 -53 -53 -69 -65 -24 -19 -32 -20 -49 -9 -17 10
-22 10 -34 -6 -7 -10 -13 -23 -13 -30 0 -32 -130 -117 -245 -159 -38 -14 -134
-12 -162 4 -31 16 -54 14 -77 -8 -14 -12 -50 -22 -106 -30 -47 -6 -111 -16
-142 -21 -45 -8 -173 -8 -173 0 0 1 -22 3 -49 6 -27 3 -58 9 -68 15 -11 6 -37
8 -57 4 -25 -4 -51 -1 -76 9 -53 22 -93 20 -134 -8 -24 -16 -62 -28 -111 -36
-41 -6 -106 -15 -145 -21 -85 -12 -257 -12 -291 2 -14 5 -47 9 -72 9 -49 0
-52 2 -163 86 -55 42 -114 67 -184 79 -21 4 -56 15 -76 25 -20 11 -39 17 -42
13 -3 -3 -39 27 -79 67 -40 40 -82 76 -93 80 -61 23 -185 -17 -185 -59 0 -35
-81 -167 -94 -154 -4 4 -42 14 -85 23 -87 17 -136 11 -145 -18 -3 -10 -21 -26
-38 -36 -18 -10 -44 -29 -58 -42 -43 -39 -71 -44 -179 -34 -82 8 -107 14 -147
39 -44 27 -58 31 -144 33 l-95 3 -63 -47 c-58 -44 -139 -78 -184 -78 -14 0
-18 -8 -18 -40 0 -34 4 -42 25 -50 14 -5 25 -14 25 -19 0 -5 9 -7 20 -4 15 4
20 0 20 -16 0 -11 -5 -21 -12 -21 -8 0 -6 -6 4 -17 13 -12 20 -13 30 -5 7 5
18 10 23 10 6 -1 16 12 24 27 10 20 15 24 21 14 6 -9 12 -10 22 -1 8 6 32 15
53 21 22 5 80 24 129 41 76 27 97 31 143 25 44 -5 61 -3 94 14 22 12 53 21 70
21 56 0 140 31 179 66 21 19 42 34 47 34 5 0 22 13 37 29 l28 30 36 -19 c25
-14 40 -16 53 -10 24 13 49 13 49 -1 0 -23 -62 -88 -94 -99 -18 -6 -44 -22
-56 -35 -14 -15 -35 -25 -51 -25 -18 0 -40 -11 -60 -31 -28 -27 -61 -45 -244
-129 -95 -43 -116 -50 -191 -59 -39 -5 -84 -15 -100 -23 -16 -8 -51 -21 -79
-28 -27 -7 -54 -17 -60 -21 -5 -5 -49 -9 -97 -9 l-88 0 0 -32 0 -31 2498 6
c1373 4 2498 7 2500 7 1 0 2 121 2 270 l0 270 -27 6 c-16 3 -55 14 -87 25 -75
24 -87 24 -119 -1 -53 -42 -213 -18 -233 35 -7 17 -85 74 -127 93 -43 19 -66
15 -79 -13 -13 -29 -36 -33 -44 -7 -3 9 -10 24 -15 32 -5 8 -17 30 -26 48 -23
43 -48 40 -98 -14z m-2716 -43 l25 -19 -29 6 c-24 4 -27 2 -22 -12 5 -12 2
-16 -11 -14 -9 2 -16 -3 -14 -9 1 -7 -2 -13 -7 -13 -5 0 -11 6 -14 13 -4 10
-7 10 -18 0 -26 -25 -41 -16 -34 20 4 17 9 35 12 40 9 15 88 6 112 -12z m2711
-74 c0 -7 -16 -27 -35 -46 -19 -19 -35 -38 -35 -42 0 -5 -8 -9 -17 -9 -16 1
-16 2 1 15 11 8 17 18 13 21 -3 3 -2 11 4 18 5 6 19 23 30 39 20 26 39 28 39
4z m80 -38 c0 -5 -7 -9 -15 -9 -9 0 -20 -11 -25 -24 -11 -30 -29 -41 -42 -28
-6 6 -4 14 7 23 9 8 27 23 38 35 22 20 37 22 37 3z m160 -4 c0 -3 -9 -15 -20
-27 -22 -24 -26 -18 -10 13 10 17 30 27 30 14z m-3016 -36 c-6 -11 -24 -2 -24
11 0 5 7 7 15 4 8 -4 12 -10 9 -15z m106 11 c0 -5 -5 -10 -11 -10 -5 0 -7 5
-4 10 3 6 8 10 11 10 2 0 4 -4 4 -10z m203 -20 c31 -11 63 -20 70 -20 25 0
112 -48 161 -89 26 -23 43 -41 38 -41 -6 0 -14 5 -17 10 -4 6 -11 8 -16 5 -5
-4 -16 1 -25 9 -19 20 -44 21 -44 2 0 -21 -37 -8 -43 16 -3 11 -10 17 -16 13
-6 -3 -11 -1 -11 4 0 6 -11 11 -24 11 -14 0 -27 4 -30 9 -3 4 7 6 22 3 19 -3
24 -1 17 6 -15 16 -65 26 -65 13 0 -6 -11 -11 -25 -11 -14 0 -25 5 -25 11 0 6
9 8 20 4 14 -5 20 -2 20 9 0 9 -6 16 -14 16 -13 0 -68 39 -56 40 3 0 31 -9 63
-20z m-173 -20 c0 -11 -4 -20 -8 -20 -4 0 -8 9 -9 20 -1 11 2 20 8 20 5 0 9
-9 9 -20z m89 4 c6 4 11 1 11 -8 0 -10 -6 -13 -15 -10 -8 4 -15 2 -15 -4 0 -6
-9 -6 -25 1 -26 13 -35 33 -10 24 8 -4 17 -1 21 5 4 7 9 6 14 -2 4 -7 13 -9
19 -6z m3221 9 c0 -5 -7 -17 -15 -27 -11 -15 -18 -17 -27 -8 -8 8 -8 15 2 27
13 15 40 21 40 8z m-338 -33 c32 0 14 -12 -21 -14 -21 -1 -31 2 -31 12 0 9 6
12 16 8 9 -3 25 -6 36 -6z m432 4 c25 -10 19 -31 -10 -38 -31 -8 -49 5 -41 28
7 17 25 20 51 10z m-594 -13 c0 -5 -7 -11 -15 -15 -9 -3 -15 0 -15 9 0 8 7 15
15 15 8 0 15 -4 15 -9z m-200 -21 c0 -5 -4 -10 -9 -10 -6 0 -13 5 -16 10 -3 6
1 10 9 10 9 0 16 -4 16 -10z m-3650 -38 c53 -25 55 -44 2 -24 -48 19 -92 24
-92 12 0 -8 -6 -8 -20 0 -11 6 -18 15 -15 21 9 14 -24 11 -39 -3 -8 -7 -22
-19 -32 -25 -11 -7 -41 -29 -69 -48 -57 -40 -103 -52 -134 -35 -28 14 -18 30
19 30 34 0 157 57 187 87 28 28 118 21 193 -15z m3935 18 c-10 -11 -21 -18
-23 -15 -3 3 3 12 14 20 27 20 30 18 9 -5z m-2685 -16 c0 -9 -5 -14 -12 -12
-18 6 -21 28 -4 28 9 0 16 -7 16 -16z m2930 6 c0 -5 -4 -10 -10 -10 -5 0 -10
5 -10 10 0 6 5 10 10 10 6 0 10 -4 10 -10z m-3490 -15 c-7 -9 -15 -13 -17 -11
-7 7 7 26 19 26 6 0 6 -6 -2 -15z m2498 -6 c37 -1 58 -4 47 -6 -11 -3 -25 -10
-32 -15 -7 -5 -17 -7 -23 -3 -20 12 -65 -6 -104 -42 -38 -37 -95 -70 -125 -74
-9 -2 -47 1 -86 6 -38 5 -73 8 -77 7 -4 -1 -25 -4 -47 -7 -22 -2 -62 -10 -88
-16 -26 -6 -87 -12 -135 -14 -76 -3 -91 0 -113 17 -14 11 -32 18 -39 15 -8 -3
-22 3 -32 14 -24 27 -62 19 -117 -21 -40 -29 -99 -41 -111 -21 -9 13 -56 20
-85 11 -18 -5 -51 0 -101 16 -41 13 -88 24 -105 24 -16 0 -52 6 -80 14 l-50
13 125 6 c69 3 141 8 160 10 19 2 62 8 95 11 84 10 156 27 180 42 29 18 54 19
104 5 24 -7 57 -11 75 -10 17 1 49 -1 71 -5 106 -18 200 -23 273 -14 86 11
135 16 203 22 26 2 59 11 75 19 20 10 36 12 52 6 13 -5 53 -10 90 -10z m-1858
-5 c0 -2 -17 -4 -37 -3 -33 1 -35 2 -13 8 23 7 50 4 50 -5z m-205 -4 c3 -5 1
-10 -4 -10 -6 0 -11 5 -11 10 0 6 2 10 4 10 3 0 8 -4 11 -10z m2765 -10 c0 -5
-5 -10 -11 -10 -5 0 -7 5 -4 10 3 6 8 10 11 10 2 0 4 -4 4 -10z m-2665 -50
c-3 -6 -11 -10 -18 -10 -8 0 -8 3 0 11 6 6 9 19 6 28 -4 13 -2 13 7 -2 6 -9 8
-22 5 -27z m-64 -13 c-8 -8 -11 -5 -11 9 0 27 14 41 18 19 2 -9 -1 -22 -7 -28z
m164 24 c-3 -6 -11 -11 -17 -11 -6 0 -6 6 2 15 14 17 26 13 15 -4z m-748 -16
c-11 -23 -27 -34 -27 -18 0 6 30 43 36 43 1 0 -3 -11 -9 -25z m913 8 c0 -5 -5
-15 -10 -23 -8 -12 -10 -11 -10 8 0 12 5 22 10 22 6 0 10 -3 10 -7z m1690 -35
c23 -17 46 -22 102 -24 100 -3 179 -15 172 -25 -3 -5 -22 -16 -42 -25 -46 -19
-549 -32 -597 -15 -23 9 -7 10 71 6 101 -5 102 -5 139 25 21 17 43 30 50 30 6
0 22 11 35 25 29 30 33 31 70 3z m-2576 -14 c3 -8 2 -12 -4 -9 -6 3 -10 10
-10 16 0 14 7 11 14 -7z m376 -8 c0 -28 -17 -43 -32 -28 -7 7 -6 17 1 31 16
28 31 27 31 -3z m430 14 c0 -5 -7 -10 -15 -10 -8 0 -15 -4 -15 -10 0 -5 -7
-10 -15 -10 -8 0 -15 -4 -15 -10 0 -5 -10 -10 -22 -9 l-23 0 23 9 c12 5 22 13
22 17 0 5 10 13 23 19 29 15 37 16 37 4z m2616 -2 c4 -7 9 -27 11 -45 3 -30 1
-33 -19 -29 -13 3 -49 10 -80 16 -32 6 -60 15 -63 20 -4 7 28 22 95 44 27 8
49 6 56 -6z m-2916 -6 c0 -13 -41 -54 -48 -48 -3 4 5 17 18 31 25 27 30 30 30
17z m500 -2 c0 -5 -2 -10 -4 -10 -3 0 -8 5 -11 10 -3 6 -1 10 4 10 6 0 11 -4
11 -10z m-450 -29 c-5 -11 -15 -23 -22 -27 -7 -5 -8 -2 -3 7 21 37 44 55 25
20z m3010 5 c0 -3 -4 -8 -10 -11 -5 -3 -10 -1 -10 4 0 6 5 11 10 11 6 0 10 -2
10 -4z m-3244 -21 c-3 -8 -2 -15 3 -15 14 0 20 -37 8 -49 -17 -17 -29 -13 -18
7 11 21 -3 42 -26 42 -19 0 -16 18 5 23 31 8 34 7 28 -8z m67 -15 c-9 -16 -21
-30 -25 -30 -12 0 -10 9 10 35 25 35 36 31 15 -5z m787 26 c0 -3 -4 -8 -10
-11 -5 -3 -10 -1 -10 4 0 6 5 11 10 11 6 0 10 -2 10 -4z m-1010 -26 c0 -5 -2
-10 -4 -10 -3 0 -8 5 -11 10 -3 6 -1 10 4 10 6 0 11 -4 11 -10z m843 3 c-7 -2
-19 -2 -25 0 -7 3 -2 5 12 5 14 0 19 -2 13 -5z m121 -2 c3 -4 -6 -13 -19 -19
-27 -12 -33 -4 -13 16 14 14 25 15 32 3z m-304 -11 c8 -5 11 -10 5 -10 -5 0
-17 5 -25 10 -8 5 -10 10 -5 10 6 0 17 -5 25 -10z m-900 -20 c0 -7 -13 -7 -38
-1 -2 1 -1 5 3 11 6 10 35 2 35 -10z m490 4 c0 -8 -5 -12 -10 -9 -6 4 -8 11
-5 16 9 14 15 11 15 -7z m90 1 c-7 -8 -16 -12 -21 -9 -13 8 -1 24 18 24 13 0
13 -3 3 -15z m690 5 c-8 -5 -19 -10 -25 -10 -5 0 -3 5 5 10 8 5 20 10 25 10 6
0 3 -5 -5 -10z m540 6 c0 -2 -7 -6 -15 -10 -8 -3 -15 -1 -15 4 0 6 7 10 15 10
8 0 15 -2 15 -4z m-1863 -12 c-3 -3 -12 -4 -19 -1 -8 3 -5 6 6 6 11 1 17 -2
13 -5z m583 2 c0 -3 -4 -8 -10 -11 -5 -3 -10 -1 -10 4 0 6 5 11 10 11 6 0 10
-2 10 -4z m535 -6 c-3 -5 -13 -10 -21 -10 -8 0 -14 5 -14 10 0 6 9 10 21 10
11 0 17 -4 14 -10z m50 0 c-3 -5 -12 -7 -20 -3 -21 7 -19 13 6 13 11 0 18 -4
14 -10z m340 0 c-3 -5 -11 -10 -16 -10 -6 0 -7 5 -4 10 3 6 11 10 16 10 6 0 7
-4 4 -10z m-1348 -32 c-1 -22 -7 -33 -17 -33 -8 0 -19 -10 -25 -22 -14 -32
-27 -29 -19 5 l7 27 -25 -22 c-34 -32 -43 -28 -18 7 13 18 30 30 43 30 12 0
28 9 35 20 17 28 21 25 19 -12z m631 -1 c-23 -23 -49 -28 -64 -13 -22 23 -17
29 20 22 27 -5 35 -3 41 11 5 12 9 14 12 6 3 -7 -1 -19 -9 -26z m952 27 c0 -4
-8 -13 -17 -20 -21 -16 -63 -18 -63 -4 0 10 13 14 37 11 6 -1 14 3 18 9 7 11
25 14 25 4z m-1941 -33 c-15 -5 -22 6 -14 19 6 9 10 9 16 -1 5 -8 4 -15 -2
-18z m118 -5 c8 -4 22 -1 29 5 26 21 34 1 25 -60 -1 -3 -7 3 -14 14 -13 17
-15 16 -26 -16 -8 -23 -14 -30 -20 -21 -4 7 -15 10 -24 6 -20 -7 -22 -21 -4
-27 6 -2 9 -7 6 -11 -11 -11 -38 5 -32 20 3 8 0 14 -6 14 -6 0 -11 -6 -11 -14
0 -8 -5 -18 -11 -22 -8 -4 -9 0 -4 15 6 19 3 21 -43 21 -31 0 -52 5 -55 13 -2
7 -8 8 -13 3 -5 -5 -4 -11 4 -13 6 -3 12 -11 12 -18 0 -7 6 -16 13 -18 6 -3
-4 -4 -23 -2 -19 2 -41 4 -49 4 -11 1 -10 6 4 21 18 19 17 20 -3 20 -47 0 -16
43 47 65 37 13 40 13 46 -6 4 -10 3 -24 -1 -31 -4 -6 3 -4 16 5 18 12 27 14
37 5 7 -6 17 -7 21 -3 4 4 2 10 -5 12 -13 5 -6 33 8 33 4 0 6 -7 3 -15 -10
-25 14 -17 33 12 14 21 19 23 21 11 2 -9 10 -19 19 -22z m3416 1 c-7 -11 -23
2 -23 19 0 12 2 12 14 2 8 -7 12 -16 9 -21z m-3066 1 c-3 -8 -6 -5 -6 6 -1 11
2 17 5 13 3 -3 4 -12 1 -19z m143 8 c17 -21 9 -60 -14 -64 -22 -5 -68 17 -61
29 3 4 -4 5 -15 2 -14 -4 -20 0 -20 10 0 16 35 17 59 3 8 -5 14 0 18 13 6 25
16 27 33 7z m480 -13 c0 -19 -3 -24 -10 -17 -6 6 -8 18 -4 27 9 24 14 21 14
-10z m587 21 c-3 -3 -12 -4 -19 -1 -8 3 -5 6 6 6 11 1 17 -2 13 -5z m276 -20
c-27 -20 -39 -17 -18 6 10 11 22 17 27 14 5 -3 1 -12 -9 -20z m254 20 c-3 -3
-12 -4 -19 -1 -8 3 -5 6 6 6 11 1 17 -2 13 -5z m130 0 c-3 -3 -12 -4 -19 -1
-8 3 -5 6 6 6 11 1 17 -2 13 -5z m-2113 -19 c4 -10 -1 -15 -16 -15 -17 0 -18
2 -8 15 7 8 14 15 15 15 2 0 5 -7 9 -15z m576 3 c0 -14 -5 -23 -12 -21 -3 1
-11 -4 -17 -11 -7 -8 -21 -12 -31 -9 -19 5 -19 6 2 28 21 22 58 30 58 13z
m-386 -13 c-4 -8 -10 -15 -15 -15 -4 0 -6 7 -3 15 4 8 10 15 15 15 4 0 6 -7 3
-15z m306 1 c0 -3 -4 -8 -10 -11 -5 -3 -10 -1 -10 4 0 6 5 11 10 11 6 0 10 -2
10 -4z m965 -6 c-3 -5 -10 -10 -16 -10 -5 0 -9 5 -9 10 0 6 7 10 16 10 8 0 12
-4 9 -10z m2426 -23 c-8 -8 -11 -7 -11 4 0 20 13 34 18 19 3 -7 -1 -17 -7 -23z
m-3251 3 c0 -5 -4 -10 -10 -10 -5 0 -10 5 -10 10 0 6 5 10 10 10 6 0 10 -4 10
-10z m136 1 c9 8 14 8 14 1 0 -16 -16 -23 -34 -16 -9 3 -13 11 -9 17 5 8 8 7
11 -1 3 -10 7 -10 18 -1z m257 -8 c-5 -13 -2 -15 15 -11 23 6 39 -6 22 -17
-16 -10 -12 -24 8 -24 9 0 35 -4 57 -9 31 -8 35 -10 15 -12 -14 -1 -29 -2 -35
0 -5 1 -23 2 -40 2 -16 1 -36 8 -42 17 -11 14 -13 13 -19 -7 -6 -20 -12 -22
-65 -20 -38 2 -59 7 -59 15 0 7 -7 16 -16 21 -20 11 -8 36 13 28 9 -4 22 -1
29 5 8 6 14 8 14 3 0 -5 4 -2 10 6 5 8 13 11 17 6 4 -4 -3 -17 -17 -29 -16
-12 -18 -18 -7 -14 11 4 17 1 17 -9 0 -21 19 -7 30 22 5 13 16 24 25 24 8 0
15 5 15 10 0 6 4 10 10 10 5 0 7 -7 3 -17z m2948 7 c5 0 9 -16 9 -35 l0 -35
-53 0 c-46 0 -53 3 -53 20 0 13 4 16 10 10 6 -6 18 -10 28 -10 17 0 23 16 18
49 -1 9 4 12 15 7 9 -3 21 -6 26 -6z m-3801 -10 c0 -5 -4 -10 -10 -10 -5 0
-10 5 -10 10 0 6 5 10 10 10 6 0 10 -4 10 -10z m40 0 c-20 -13 -33 -13 -25 0
3 6 14 10 23 10 15 0 15 -2 2 -10z m910 -4 c0 -8 -4 -18 -10 -21 -5 -3 -10 3
-10 14 0 12 5 21 10 21 6 0 10 -6 10 -14z m-1516 -10 c-3 -8 -13 -12 -23 -9
-13 3 -20 -3 -25 -21 -4 -17 -13 -26 -26 -26 -17 0 -16 3 8 29 15 16 36 31 47
34 11 3 21 5 22 6 1 0 0 -5 -3 -13z m1559 -6 c-3 -12 -8 -19 -11 -16 -5 6 5
36 12 36 2 0 2 -9 -1 -20z m94 -27 c-3 -10 -5 -2 -5 17 0 19 2 27 5 18 2 -10
2 -26 0 -35z m-547 27 c0 -5 -4 -10 -10 -10 -5 0 -10 5 -10 10 0 6 5 10 10 10
6 0 10 -4 10 -10z m500 -1 c0 -16 -20 -49 -30 -49 -5 0 -4 13 1 30 11 29 29
41 29 19z m540 1 c0 -5 -9 -10 -20 -10 -11 0 -20 5 -20 10 0 6 9 10 20 10 11
0 20 -4 20 -10z m1400 -8 c0 -4 -9 -8 -21 -9 -17 -2 -18 1 -9 12 12 14 30 12
30 -3z m73 4 c4 -10 1 -13 -8 -9 -8 3 -12 9 -9 14 7 12 11 11 17 -5z m-1556
-12 c2 -5 -6 -10 -17 -11 -20 -2 -26 8 -13 21 9 8 26 3 30 -10z m553 6 c0 5 6
10 14 10 8 0 14 -8 13 -18 -1 -14 -10 -19 -34 -20 -27 -1 -33 2 -33 19 0 17 3
18 20 9 14 -7 20 -7 20 0z m-2730 -20 c0 -18 -7 -20 -77 -20 l-78 1 40 18 c22
11 57 20 78 20 31 1 37 -2 37 -19z m690 0 c-8 -5 -17 -7 -19 -4 -3 3 1 9 9 14
8 5 17 7 19 4 3 -3 -1 -9 -9 -14z m1350 -5 c34 -25 34 -25 8 -25 -15 0 -29 6
-32 13 -5 10 -7 10 -12 0 -6 -13 -44 -19 -44 -7 0 15 22 44 33 44 7 0 28 -11
47 -25z m70 20 c0 -2 -10 -9 -22 -15 -22 -11 -22 -10 -4 4 21 17 26 19 26 11z
m727 -1 c-3 -3 -12 -4 -19 -1 -8 3 -5 6 6 6 11 1 17 -2 13 -5z m-1507 -18 c0
-24 -16 -27 -35 -6 -18 19 -17 20 8 20 17 0 27 -5 27 -14z m2505 4 c3 -5 1
-10 -4 -10 -6 0 -11 5 -11 10 0 6 2 10 4 10 3 0 8 -4 11 -10z m255 0 c0 -5 -2
-10 -4 -10 -3 0 -8 5 -11 10 -3 6 -1 10 4 10 6 0 11 -4 11 -10z m-2880 -10 c0
-5 -2 -10 -4 -10 -3 0 -8 5 -11 10 -3 6 -1 10 4 10 6 0 11 -4 11 -10z m52 -12
c-12 -12 -35 -1 -27 12 3 5 13 6 21 3 10 -4 12 -9 6 -15z"/>
<path d="M0 920 c0 -5 6 -10 14 -10 8 0 18 5 21 10 3 6 -3 10 -14 10 -12 0
-21 -4 -21 -10z"/>
<path d="M380 906 c0 -9 30 -14 35 -6 4 6 -3 10 -14 10 -12 0 -21 -2 -21 -4z"/>
<path d="M285 870 c-3 -5 3 -10 14 -10 12 0 21 5 21 10 0 6 -6 10 -14 10 -8 0
-18 -4 -21 -10z"/>
<path d="M255 860 c-3 -5 -1 -10 4 -10 6 0 11 5 11 10 0 6 -2 10 -4 10 -3 0
-8 -4 -11 -10z"/>
<path d="M147 833 c-15 -8 -25 -18 -22 -23 7 -11 68 14 73 29 5 15 -17 12 -51
-6z"/>
<path d="M50 790 c0 -5 7 -10 15 -10 8 0 15 5 15 10 0 6 -7 10 -15 10 -8 0
-15 -4 -15 -10z"/>
<path d="M12 775 c-11 -13 -10 -15 7 -15 14 0 19 5 15 15 -7 18 -6 18 -22 0z"/>
<path d="M3221 550 c-74 -41 -76 -43 -95 -104 -25 -78 -14 -134 34 -189 53
-60 128 -86 193 -67 125 35 198 158 156 267 -23 62 -102 113 -183 119 -43 4
-60 -1 -105 -26z m152 -58 c34 -38 48 -89 39 -147 -12 -72 -33 -95 -87 -95
-68 0 -105 53 -105 149 0 55 2 61 33 85 39 31 96 35 120 8z"/>
<path d="M4581 559 c-71 -26 -99 -77 -70 -130 16 -31 96 -61 140 -54 48 8 75
-6 83 -45 10 -53 -39 -119 -68 -90 -5 5 -18 10 -28 10 -11 0 -23 11 -28 25
-15 39 -37 41 -71 9 -20 -19 -29 -37 -29 -59 l0 -32 109 -7 c115 -7 142 -2
179 33 41 40 22 164 -30 188 -52 24 -80 33 -104 33 -34 0 -84 30 -84 50 0 45
48 51 103 14 47 -31 67 -28 84 14 12 30 12 33 -9 41 -46 17 -132 17 -177 0z"/>
<path d="M2997 560 c-21 -3 -38 -8 -37 -12 0 -5 0 -12 0 -18 0 -5 11 -10 24
-10 31 0 40 -14 26 -37 -5 -10 -19 -40 -30 -67 l-21 -50 -45 52 c-39 44 -51
52 -80 52 -49 0 -68 -12 -89 -59 -10 -23 -21 -41 -24 -41 -10 0 -85 131 -91
159 -5 22 -10 24 -76 27 -48 3 -76 0 -89 -10 -26 -19 -9 -37 32 -34 l35 3 69
-135 c37 -74 68 -140 69 -146 0 -6 -11 -16 -25 -22 -42 -19 -32 -41 18 -40 23
1 54 -1 68 -4 14 -3 32 -3 38 2 17 10 19 82 3 88 -7 2 -17 13 -23 23 -8 16 -4
31 21 74 17 30 36 55 41 55 5 0 18 -19 30 -42 12 -24 33 -57 46 -75 32 -42 28
-77 -9 -81 -32 -4 -37 -27 -9 -42 25 -13 138 -13 146 0 3 6 -2 13 -12 17 -43
16 -40 37 24 203 24 63 53 122 64 132 27 23 24 40 -9 37 -15 -2 -32 -1 -37 2
-6 3 -27 2 -48 -1z"/>
<path d="M3565 562 c-2 -3 0 -12 4 -21 5 -9 12 -85 16 -168 7 -136 6 -153 -9
-159 -9 -3 -16 -15 -16 -25 0 -17 8 -19 65 -19 50 0 67 4 72 15 3 9 -2 21 -11
28 -13 10 -15 23 -10 75 6 54 9 62 28 62 21 0 68 -51 105 -115 25 -43 82 -72
118 -59 19 6 29 17 31 34 2 21 -6 30 -50 56 -29 16 -59 42 -68 56 -13 25 -13
29 7 50 44 49 53 149 15 180 -10 9 -56 13 -154 14 -76 0 -140 -2 -143 -4z
m225 -52 c11 -20 4 -66 -13 -87 -5 -7 -29 -13 -53 -13 l-44 0 0 60 0 60 50 0
c39 0 52 -4 60 -20z"/>
<path d="M3990 563 c0 -4 7 -15 17 -25 23 -26 21 -303 -3 -329 -9 -10 -13 -22
-10 -27 3 -5 54 -7 113 -4 138 6 209 38 256 115 23 36 27 140 7 177 -17 31
-72 79 -92 80 -9 0 -20 4 -23 10 -6 10 -265 13 -265 3z m228 -65 c85 -52 86
-180 1 -240 -22 -16 -50 -28 -64 -28 -20 0 -25 5 -26 28 0 15 -2 79 -4 142 -1
63 -1 119 2 123 7 12 51 0 91 -25z"/>
<path d="M2198 545 c-28 -16 -58 -62 -58 -89 0 -8 11 -27 24 -42 20 -24 33
-29 96 -35 82 -7 100 -21 100 -75 0 -20 -9 -40 -25 -56 -21 -22 -30 -24 -63
-18 -68 14 -91 27 -100 61 -13 54 -27 49 -93 -30 -8 -9 -28 -26 -44 -38 -21
-15 -27 -25 -20 -32 7 -6 78 -12 175 -15 159 -4 165 -3 201 20 21 13 43 32 49
43 15 28 12 87 -5 121 -20 39 -92 71 -144 64 -43 -5 -74 15 -69 45 2 12 16 17
51 19 39 3 51 -1 66 -19 12 -14 24 -20 37 -15 23 7 59 69 50 85 -4 6 -28 10
-54 9 -26 -1 -69 1 -97 5 -37 5 -57 3 -77 -8z"/>
<path d="M685 533 c-61 -25 -94 -51 -114 -91 -52 -103 -26 -196 70 -249 43
-23 216 -26 242 -4 25 20 11 31 -38 31 -81 0 -165 68 -165 134 0 55 13 87 41
101 42 22 66 18 91 -15 12 -16 27 -30 34 -30 16 0 36 26 50 67 11 31 10 35
-12 50 -36 23 -149 27 -199 6z"/>
<path d="M220 528 c-24 -9 -25 -17 -4 -33 15 -10 12 -20 -25 -98 -22 -48 -41
-92 -41 -97 0 -23 -53 -105 -68 -105 -9 0 -18 -8 -20 -17 -3 -15 4 -18 35 -18
40 0 84 22 66 33 -6 4 4 35 23 76 l33 69 58 4 c86 6 84 8 98 -93 7 -44 6 -47
-20 -53 -14 -4 -25 -12 -22 -19 5 -16 160 -22 187 -7 23 12 27 40 6 40 -8 0
-17 8 -20 18 -24 85 -56 214 -61 244 -3 21 -14 42 -23 47 -22 11 -177 18 -202
9z m113 -70 c3 -18 8 -41 12 -50 6 -16 1 -18 -38 -18 -25 0 -48 4 -51 9 -6 9
16 70 30 84 19 18 42 6 47 -25z"/>
<path d="M994 529 c-4 -7 1 -18 11 -25 14 -11 18 -34 23 -143 3 -97 2 -134 -8
-146 -7 -8 -10 -22 -6 -30 4 -12 28 -15 130 -15 69 0 136 4 150 10 31 11 82
88 68 102 -14 14 -51 -8 -63 -39 -7 -20 -14 -24 -32 -19 -12 3 -46 6 -74 6
l-53 0 0 65 c0 68 12 83 32 40 18 -40 42 -27 49 25 4 25 3 52 -2 62 -11 21
-46 13 -54 -13 -12 -37 -25 -18 -25 37 l0 55 47 -3 c47 -3 48 -4 54 -41 7 -46
15 -54 37 -41 13 8 17 25 17 65 l0 54 -147 3 c-104 2 -149 -1 -154 -9z"/>
<path d="M1732 462 c-24 -20 -32 -35 -32 -58 0 -33 35 -107 77 -162 34 -45 27
-96 -18 -133 -32 -26 -33 -49 -3 -49 8 0 32 9 52 19 63 32 78 94 42 166 -23
45 -19 56 10 30 19 -17 22 -17 36 -3 18 18 12 51 -16 88 -16 21 -22 23 -37 14
-10 -7 -17 -19 -17 -28 3 -29 -22 -16 -49 26 -22 36 -22 38 8 38 36 0 42 26
15 56 -13 13 -26 24 -29 24 -3 0 -21 -13 -39 -28z"/>
<path d="M1610 323 c-63 -25 -69 -98 -9 -128 39 -21 53 -19 88 11 34 28 43 82
17 103 -17 14 -75 23 -96 14z m48 -61 c4 -24 -7 -29 -26 -10 -18 18 -15 40 6
36 9 -2 18 -13 20 -26z"/>
<path d="M4877 242 c-32 -35 -11 -77 35 -70 30 4 38 56 12 75 -23 17 -28 16
-47 -5z"/>
</g>
</svg>
