<?xml version="1.0" standalone="no"?>
<!DOCTYPE svg PUBLIC "-//W3C//DTD SVG 20010904//EN"
 "http://www.w3.org/TR/2001/REC-SVG-20010904/DTD/svg10.dtd">
<svg version="1.0" xmlns="http://www.w3.org/2000/svg"
 width="500.000000pt" height="878.000000pt" viewBox="0 0 500.000000 878.000000"
 preserveAspectRatio="xMidYMid meet">
<metadata>
Created by potrace 1.15, written by Peter Selinger 2001-2017
</metadata>
<g transform="translate(0.000000,878.000000) scale(0.100000,-0.100000)"
fill="#000000" stroke="none">
<path d="M2174 8586 c-12 -31 43 -64 60 -37 3 5 20 6 38 2 l33 -7 0 -89 0 -90
-45 -3 c-72 -4 -90 -10 -90 -32 0 -22 -5 -21 145 -25 55 -1 160 -3 233 -5 137
-3 157 1 150 36 -2 15 -15 20 -58 24 l-55 5 -3 65 c-5 102 -1 110 58 110 39 0
52 4 60 19 7 14 7 22 -1 27 -6 3 -125 8 -265 11 -225 4 -255 2 -260 -11z m317
-45 c3 -1 5 -40 4 -88 l-1 -88 -52 -3 -52 -3 0 96 0 95 48 -4 c26 -2 50 -4 53
-5z"/>
<path d="M3535 7907 c-47 -16 -119 -59 -158 -96 -50 -45 -93 -151 -62 -151 8
0 15 4 15 10 0 19 64 81 98 95 112 47 269 -19 293 -123 9 -43 -2 -112 -25
-147 -16 -24 -103 -75 -129 -75 -7 0 -22 -6 -33 -14 -15 -12 -16 -17 -7 -27
10 -10 31 -9 100 5 94 18 112 27 175 84 77 70 111 189 76 269 -27 62 -87 131
-133 153 -56 27 -154 35 -210 17z m159 -58 c162 -60 195 -292 56 -394 -66 -48
-93 -47 -50 2 63 71 76 145 40 226 -24 55 -99 124 -137 126 -56 4 -119 2 -163
-5 l-45 -7 19 22 c45 50 187 65 280 30z"/>
<path d="M4945 7891 c-75 -24 -86 -33 -135 -111 -151 -242 -231 -358 -286
-420 -18 -19 -54 -67 -80 -107 -27 -39 -78 -113 -113 -165 -35 -51 -125 -171
-200 -266 -75 -96 -143 -183 -151 -196 -41 -59 -144 -202 -149 -206 -7 -5 -53
-65 -181 -235 -36 -48 -82 -108 -102 -133 -21 -26 -38 -50 -38 -54 0 -3 -12
-20 -27 -36 -26 -27 -68 -82 -118 -151 -11 -16 -39 -54 -62 -84 -24 -31 -43
-59 -43 -63 0 -4 -15 -24 -32 -45 -18 -21 -51 -61 -73 -89 -22 -29 -52 -66
-66 -84 -14 -17 -43 -56 -64 -86 -21 -30 -44 -59 -51 -65 -8 -5 -20 -26 -28
-46 -8 -19 -22 -42 -31 -49 -14 -11 -20 -9 -48 17 -18 16 -46 39 -63 51 -29
20 -32 28 -39 94 -16 156 -15 210 5 238 18 26 18 28 -4 121 -13 52 -29 105
-37 117 -17 27 -75 66 -88 58 -5 -3 -22 1 -38 9 -26 13 -36 13 -80 0 -42 -13
-59 -13 -120 -1 -122 23 -207 -14 -253 -111 -30 -64 -35 -111 -17 -155 14 -32
14 -38 1 -49 -10 -8 -14 -29 -13 -63 1 -28 -2 -83 -6 -123 -6 -59 -5 -77 9
-97 16 -25 16 -26 -35 -66 -28 -22 -54 -40 -57 -40 -4 0 -20 19 -37 41 -16 23
-38 45 -47 50 -10 5 -18 15 -18 22 0 7 -22 40 -48 74 -26 34 -72 97 -102 139
-30 42 -69 96 -85 118 -42 57 -276 385 -297 416 -9 14 -43 62 -75 107 -105
147 -269 380 -423 598 -27 39 -63 88 -79 110 -17 22 -67 93 -112 158 -45 65
-96 136 -113 157 -17 22 -48 63 -69 92 -84 118 -319 436 -358 485 -23 28 -45
56 -48 60 -13 19 -54 41 -67 36 -9 -3 6 -28 49 -78 71 -84 124 -154 182 -236
161 -230 332 -470 397 -559 175 -240 244 -337 351 -492 43 -62 88 -127 100
-145 12 -18 117 -166 232 -329 116 -164 228 -323 249 -353 21 -31 83 -118 137
-194 55 -75 99 -142 99 -147 0 -5 -9 -14 -19 -20 -22 -11 -30 -4 -126 135 -33
47 -91 130 -130 184 -38 54 -92 131 -120 171 -27 39 -79 111 -113 158 -35 48
-85 118 -111 157 -26 38 -62 90 -80 115 -17 25 -68 99 -113 165 -45 66 -117
169 -160 228 -43 59 -100 140 -125 180 -26 40 -82 120 -125 179 -43 59 -78
112 -78 117 0 6 -9 15 -20 21 -11 6 -20 16 -20 23 0 7 -15 31 -33 54 -17 23
-42 57 -55 75 -12 18 -43 62 -69 98 -26 36 -73 103 -105 150 -32 47 -84 117
-116 155 -66 80 -111 154 -105 173 3 6 -2 12 -11 12 -13 0 -16 -12 -16 -63 0
-80 36 -158 145 -312 77 -110 231 -334 250 -364 10 -16 18 -28 87 -126 43 -62
197 -293 264 -395 27 -41 74 -112 106 -157 31 -46 68 -100 80 -121 85 -141
428 -658 446 -672 10 -7 72 -99 72 -106 0 -3 22 -38 49 -77 26 -40 66 -99 86
-132 21 -33 49 -73 62 -89 18 -21 22 -36 18 -57 -5 -22 -1 -34 19 -54 14 -14
26 -29 26 -32 0 -3 16 -26 36 -50 43 -52 45 -47 -72 -140 -110 -87 -114 -101
-39 -170 31 -29 64 -53 73 -53 10 0 41 21 70 46 54 48 62 47 37 -3 -8 -17 -18
-64 -21 -106 -5 -58 -11 -78 -23 -82 -9 -3 -95 -4 -191 -3 -130 2 -198 -2
-265 -14 -230 -43 -288 -51 -359 -45 -50 5 -86 2 -121 -8 -27 -9 -87 -18 -134
-21 -47 -3 -104 -9 -127 -14 -23 -5 -140 -12 -260 -15 -198 -5 -314 -18 -314
-35 0 -4 76 -6 169 -6 110 0 174 -4 182 -11 9 -7 76 -11 197 -11 153 0 184 3
189 15 9 22 -15 32 -77 34 l-55 2 65 7 c81 9 179 28 203 41 12 6 33 4 67 -7
32 -11 70 -15 105 -12 43 4 55 2 55 -9 0 -11 8 -13 33 -8 23 5 29 4 21 -4 -6
-7 -77 -13 -193 -16 -101 -3 -187 -8 -192 -11 -5 -3 -9 -12 -9 -20 0 -13 62
-14 520 -9 517 7 520 6 520 -14 0 -11 -4 -31 -10 -45 -16 -44 75 -291 116
-314 13 -7 10 -10 -16 -15 -36 -8 -36 -28 1 -38 30 -7 49 -1 49 16 0 10 7 12
28 6 15 -4 32 -6 38 -4 6 2 24 -1 39 -7 27 -10 28 -11 20 -68 -4 -31 -7 -73
-6 -93 1 -26 -5 -41 -24 -59 -28 -26 -31 -53 -13 -111 10 -36 9 -44 -22 -103
-23 -47 -41 -68 -62 -77 -24 -10 -31 -10 -38 0 -11 18 -54 9 -58 -11 -3 -13 3
-18 22 -18 30 0 30 0 15 -37 -6 -15 -11 -41 -10 -58 1 -16 -11 -54 -26 -82
-22 -41 -26 -57 -17 -70 9 -14 5 -21 -19 -38 -56 -38 -68 -64 -74 -164 l-6
-93 -46 -36 c-25 -20 -70 -61 -99 -89 -29 -29 -56 -53 -60 -53 -4 0 -28 -19
-54 -42 l-47 -43 2 -100 2 -101 -50 -1 c-37 -1 -44 0 -29 7 25 10 39 28 29 38
-3 4 -33 5 -65 4 -51 -3 -58 -1 -56 15 1 17 -13 18 -210 19 -212 1 -268 6
-308 26 -11 6 -27 14 -35 18 -8 3 -16 11 -18 17 -3 7 54 10 169 9 168 -1 173
0 176 20 3 20 9 21 92 19 95 -2 116 4 107 29 -6 14 -21 16 -111 11 -87 -5
-105 -3 -109 10 -4 8 -13 15 -22 15 -25 0 -17 18 10 22 42 5 28 23 -17 23 -36
0 -43 -3 -41 -19 1 -18 -7 -18 -180 -12 -100 4 -193 8 -207 10 -14 2 -55 4
-92 5 -51 1 -68 5 -68 15 0 35 -34 56 -93 57 -102 3 -60 15 61 17 72 1 112 -1
103 -7 -8 -5 -11 -16 -8 -24 5 -13 37 -15 222 -14 128 0 218 5 222 10 3 6 -2
16 -12 23 -12 9 -48 12 -131 9 -115 -5 -166 4 -162 27 2 8 -10 14 -30 16 -28
3 -31 6 -26 27 5 20 1 25 -20 31 -37 9 -59 -2 -53 -27 5 -18 1 -20 -46 -19
-29 1 -61 -1 -73 -5 -13 -4 -25 -1 -33 9 -11 13 -8 16 21 20 18 3 49 7 68 8
22 2 34 8 32 16 -2 14 -16 13 239 17 218 2 263 10 225 40 -10 8 -38 14 -61 13
-24 0 -47 2 -53 6 -5 3 -84 8 -175 10 -92 3 -175 9 -185 15 -21 11 -145 8
-175 -4 -16 -7 -18 -4 -15 21 3 27 0 29 -42 36 -54 10 -71 5 -67 -19 1 -10 -2
-19 -8 -20 -5 -2 -10 11 -10 28 0 37 -26 59 -72 59 -45 0 -42 -21 8 -44 22
-10 38 -23 36 -30 -3 -6 -11 -9 -18 -7 -48 13 -59 13 -59 -3 0 -19 51 -47 105
-57 22 -4 68 -12 102 -19 42 -8 72 -9 90 -3 58 20 73 -10 18 -33 -26 -10 -66
-14 -138 -12 -91 2 -106 0 -139 -21 -27 -16 -38 -30 -38 -47 l0 -24 44 25 c25
14 53 25 64 25 33 0 82 -30 82 -51 0 -23 -15 -25 -24 -4 -3 8 -16 15 -29 15
-14 0 -30 -7 -37 -15 -7 -8 -19 -15 -26 -15 -8 0 -14 -4 -14 -10 0 -5 -13 -16
-30 -25 l-30 -16 0 -407 0 -407 223 0 c122 0 465 2 762 4 l539 4 9 -33 c4 -18
6 -34 3 -37 -3 -3 -326 -5 -718 -4 -392 1 -737 -2 -765 -5 -41 -5 -53 -10 -53
-24 0 -16 39 -17 658 -16 361 1 707 0 769 -2 l112 -4 5 -36 c3 -21 8 -86 12
-147 3 -60 9 -113 12 -117 4 -4 88 -10 187 -13 99 -4 193 -7 209 -8 21 -2 34
-10 46 -32 10 -18 28 -32 48 -37 41 -11 35 -22 -26 -44 -64 -24 -97 -60 -84
-89 9 -19 21 -23 91 -29 97 -8 94 -8 297 60 157 52 161 53 223 43 75 -12 133
-5 216 24 84 29 180 29 221 0 17 -12 73 -43 124 -68 103 -49 161 -57 225 -31
44 19 48 56 9 83 -14 10 -33 25 -41 34 -94 101 -93 102 87 107 80 2 148 7 152
10 12 13 -4 102 -18 102 -8 0 -14 -9 -14 -19 0 -49 -5 -51 -131 -51 -65 0
-119 4 -119 8 0 9 79 65 126 90 29 16 31 44 8 98 -25 59 -44 170 -44 259 0 51
-5 86 -12 93 -10 10 -10 17 -1 31 7 11 10 47 8 90 -3 64 -2 71 15 71 10 0 22
4 25 10 3 5 25 8 48 6 23 -3 51 -5 62 -5 20 -1 20 -8 20 -314 0 -171 4 -318 9
-324 17 -25 23 -12 30 64 3 42 8 79 11 81 3 3 317 6 698 7 380 1 700 3 710 4
9 0 17 7 17 15 0 20 -95 24 -615 27 -253 1 -472 3 -487 4 -16 2 -96 3 -179 4
l-150 1 3 28 3 27 375 0 c873 1 1050 4 1050 19 0 12 -31 15 -187 15 -104 0
-242 1 -308 2 l-120 2 110 8 c60 5 123 14 140 21 16 6 75 15 130 20 210 17
230 21 233 45 4 24 -11 30 -81 35 -59 5 -48 22 21 32 62 9 62 10 62 43 l0 33
-52 1 c-29 1 -59 1 -66 0 -6 -1 -17 9 -23 23 -7 14 -34 37 -60 51 -86 45 -155
28 -204 -49 -32 -51 -44 -56 -143 -56 -66 0 -74 -2 -79 -21 -5 -18 -11 -20
-52 -15 -75 10 -249 12 -257 3 -13 -12 10 -27 57 -37 41 -9 39 -9 -16 -4 -33
3 -65 10 -72 16 -7 5 -55 8 -110 7 -54 -2 -150 1 -214 5 -91 7 -118 6 -124 -4
-5 -8 -2 -18 9 -25 15 -12 15 -13 -4 -18 -19 -5 -20 -1 -20 78 0 46 5 96 12
110 10 22 17 25 59 25 49 0 72 15 48 31 -8 5 -35 8 -62 7 -26 -2 -47 -1 -47 1
0 2 13 18 29 36 53 61 71 211 30 261 -4 5 -6 19 -3 30 6 22 -32 74 -112 155
-50 50 -74 86 -88 132 -3 9 -29 16 -77 21 -40 3 -75 9 -78 12 -3 3 -5 43 -4
87 3 94 -7 130 -54 204 -31 49 -58 73 -82 73 -18 0 -12 -26 9 -45 34 -31 22
-36 -26 -10 -26 14 -51 22 -56 19 -5 -3 -37 -5 -71 -5 -85 1 -140 -20 -219
-82 -37 -28 -77 -59 -90 -68 -13 -10 -20 -20 -16 -24 9 -9 67 22 110 61 21 18
59 44 86 58 43 22 59 24 151 22 l104 -2 41 -45 c23 -25 49 -48 60 -52 16 -7
18 -15 12 -80 -4 -39 -3 -85 1 -100 11 -37 4 -115 -8 -96 -5 8 -9 26 -9 41 0
15 -7 34 -16 42 -8 9 -13 20 -9 26 11 18 -59 80 -118 104 -64 26 -109 23 -115
-7 -3 -15 2 -17 36 -11 55 9 125 -23 153 -70 12 -20 26 -36 31 -36 6 0 8 -9 5
-20 -7 -28 11 -90 29 -97 11 -4 14 -32 14 -142 0 -167 16 -382 35 -476 28
-140 33 -161 43 -190 6 -16 16 -76 22 -132 6 -56 19 -131 29 -167 l18 -65 -46
-24 c-46 -23 -71 -25 -71 -5 0 6 6 8 14 5 20 -8 51 17 41 32 -4 7 -16 11 -26
8 -28 -8 -32 9 -8 32 28 25 17 42 -24 35 -30 -5 -31 -4 -13 10 10 8 24 17 30
19 8 3 8 10 -1 25 -10 16 -9 21 2 26 8 3 15 10 15 16 0 15 -63 12 -85 -3 -20
-15 -13 -37 12 -37 12 0 13 -3 3 -15 -6 -8 -9 -23 -5 -34 9 -28 10 -249 1
-258 -4 -4 -35 -11 -69 -14 -34 -4 -80 -12 -102 -19 -22 -6 -65 -16 -95 -20
-125 -19 -219 -39 -255 -54 -82 -35 -256 -6 -337 56 -26 20 -61 39 -78 43 -36
8 -97 -10 -126 -37 -19 -17 -26 -17 -66 -7 l-44 12 -38 201 c-22 111 -43 246
-48 301 -5 55 -13 114 -19 130 -6 17 -13 75 -16 130 -3 55 -9 107 -14 116 -4
9 -10 45 -13 80 -3 35 -8 100 -12 144 -6 82 -17 115 -36 115 -7 0 -9 -25 -5
-81 3 -44 3 -78 0 -75 -6 6 -25 201 -22 231 4 48 1 73 -16 115 -22 59 -27 145
-10 186 7 18 27 40 43 48 33 17 46 50 27 66 -10 8 -11 18 -3 40 11 32 57 64
109 75 19 4 42 14 51 23 14 11 32 13 78 9 55 -5 75 2 50 18 -19 12 -168 5
-224 -10 -28 -8 -29 -7 -22 21 8 31 33 64 49 64 6 0 31 13 56 29 65 41 101 46
177 25 85 -23 102 -10 51 41 -32 32 -40 35 -92 35 -52 0 -56 1 -50 21 4 13 -3
40 -20 74 -14 30 -24 59 -20 65 10 16 43 12 53 -6 5 -9 39 -35 74 -58 122 -77
147 -99 148 -127 0 -33 16 -46 59 -51 45 -4 50 14 9 33 -20 8 -34 22 -36 35
-2 13 -26 38 -60 62 -31 22 -66 50 -77 62 -11 12 -37 31 -57 41 -51 26 -68 56
-70 120 -1 64 10 137 23 145 5 3 9 15 9 28 0 21 21 48 45 57 39 16 147 96 178
134 51 61 67 59 68 -7 1 -29 3 -62 4 -73 1 -11 2 -38 3 -60 1 -22 7 -47 12
-55 28 -42 32 69 9 215 -8 56 -8 61 13 78 22 19 23 19 38 -3 28 -40 62 -69
109 -91 25 -12 57 -30 71 -39 14 -10 39 -21 56 -24 17 -4 41 -18 53 -31 11
-14 29 -25 39 -25 11 0 35 -16 55 -35 31 -30 34 -36 19 -44 -15 -9 -15 -11 -1
-28 16 -18 34 -70 30 -87 -1 -4 5 -19 14 -33 24 -36 15 -74 -22 -98 -34 -22
-78 -89 -68 -105 9 -15 25 -12 25 4 0 8 10 27 23 42 20 22 28 25 56 19 39 -8
50 -31 25 -50 -23 -16 -12 -30 24 -30 21 0 28 -6 35 -35 15 -61 20 -103 11
-98 -5 2 -22 10 -37 18 -25 12 -32 12 -63 -5 -36 -19 -44 -45 -19 -65 21 -18
48 -5 40 20 -7 22 6 26 35 10 12 -6 16 -17 13 -30 -4 -15 2 -22 21 -30 15 -5
25 -14 22 -19 -9 -13 40 -53 61 -49 23 5 22 61 -2 88 -9 10 -21 44 -26 76 -5
33 -12 74 -15 93 -7 35 -39 91 -71 124 -10 10 -19 33 -20 50 -3 61 -41 208
-56 218 -5 4 8 10 29 14 62 11 71 21 118 118 53 111 66 156 66 225 0 50 1 52
20 42 11 -6 24 -9 28 -6 20 12 184 16 672 14 289 -1 545 -1 570 -1 291 2 473
5 513 10 l47 5 0 51 c0 52 0 52 -43 70 -23 9 -56 17 -72 17 -35 0 -199 34
-235 48 -14 5 -49 26 -79 46 -64 44 -115 47 -242 15 -64 -16 -97 -19 -139 -13
-92 12 -243 8 -296 -9 -27 -9 -88 -19 -136 -23 l-86 -6 -57 37 c-119 80 -170
83 -292 19 -48 -25 -91 -50 -94 -56 -4 -7 -9 -6 -13 1 -4 6 -20 11 -35 11 -28
0 -29 2 -39 72 -6 40 -9 74 -7 77 3 2 13 -3 23 -12 10 -10 24 -17 30 -17 18 0
92 80 107 116 19 45 10 68 -38 101 -23 15 -57 42 -75 58 l-33 31 25 34 c49 67
76 106 163 232 48 69 113 162 144 205 129 180 398 583 424 633 10 19 23 38 30
42 6 4 60 78 119 165 58 87 127 187 153 223 81 112 257 372 293 434 53 88 52
87 181 271 31 44 68 103 83 130 14 28 49 79 75 115 27 36 73 103 103 150 47
76 53 92 56 151 6 99 6 98 -53 80z m5 -37 c0 -3 -9 -18 -20 -32 -21 -27 -37
-51 -205 -297 -52 -77 -128 -186 -168 -242 -39 -56 -117 -169 -172 -250 -55
-81 -167 -239 -250 -352 -82 -112 -178 -242 -212 -290 -34 -47 -117 -162 -185
-254 -68 -93 -167 -230 -220 -305 -54 -76 -144 -200 -201 -277 -57 -77 -125
-170 -152 -206 l-48 -66 -33 19 c-29 17 -32 22 -21 37 50 68 379 504 434 576
68 89 136 180 213 285 155 209 200 270 289 390 56 74 121 160 145 190 24 30
70 93 103 140 117 168 355 495 473 650 27 36 120 177 159 242 12 20 27 39 34
42 17 7 37 7 37 0z m2 -95 c-25 -62 -47 -96 -135 -217 -44 -59 -91 -127 -105
-152 -14 -25 -38 -61 -53 -80 -15 -19 -36 -49 -46 -66 -26 -44 -248 -377 -348
-524 -47 -69 -97 -141 -110 -160 -13 -19 -72 -106 -132 -193 -59 -88 -136
-202 -171 -255 -34 -53 -71 -106 -81 -117 -23 -25 -237 -325 -352 -495 -168
-245 -192 -280 -199 -280 -4 0 -17 11 -29 24 l-23 25 28 39 c16 22 59 82 96
133 37 52 93 128 123 169 30 41 95 131 144 200 84 117 241 330 276 375 34 43
132 183 165 235 19 30 55 82 80 116 25 33 91 125 148 205 57 79 133 185 168
234 36 50 105 151 154 225 48 74 99 149 113 165 13 17 30 41 37 55 7 14 27 41
44 61 17 20 46 61 64 90 18 30 41 65 51 79 10 14 38 55 61 92 24 37 45 66 47
64 2 -2 -4 -23 -15 -47z m-4803 -169 c43 -63 91 -134 107 -156 67 -95 121
-173 164 -234 73 -106 121 -170 129 -170 3 0 21 -26 39 -57 17 -32 54 -87 82
-123 27 -36 101 -141 165 -235 126 -185 244 -356 315 -455 25 -34 50 -70 55
-79 25 -39 128 -192 174 -256 27 -38 84 -119 126 -180 42 -60 103 -148 135
-195 39 -55 56 -88 50 -94 -16 -16 -11 -28 9 -21 13 4 23 -2 35 -21 17 -24 17
-27 0 -45 -9 -10 -21 -19 -25 -19 -7 0 -76 99 -219 316 -166 251 -286 434
-295 451 -20 34 -219 329 -320 473 -55 80 -110 159 -121 177 -10 18 -59 91
-109 163 -49 72 -103 154 -118 183 -16 29 -39 63 -52 77 -23 25 -49 63 -253
365 -63 94 -123 179 -134 191 -10 11 -27 38 -38 59 -19 37 -19 37 1 19 11 -10
55 -70 98 -134z m2370 -1899 c24 -33 19 -41 -25 -41 -40 0 -47 10 -34 44 13
34 34 33 59 -3z m120 -97 c77 -24 104 -66 56 -84 -14 -5 -108 -10 -208 -10
-100 0 -211 -2 -247 -6 -55 -5 -62 -4 -52 8 6 8 9 18 6 21 -9 9 22 37 41 37
11 0 15 5 11 15 -6 17 6 21 104 33 85 11 233 4 289 -14z m-119 -138 c41 -1 89
3 107 7 30 8 33 6 39 -19 9 -34 -10 -108 -35 -140 -14 -18 -18 -34 -14 -64 5
-35 3 -40 -11 -34 -11 4 -25 -3 -41 -20 -13 -15 -35 -26 -49 -26 -27 0 -43 15
-26 25 5 3 10 15 10 25 0 17 3 18 31 8 33 -11 57 0 44 21 -10 18 -74 41 -111
41 -18 0 -36 5 -39 10 -4 6 -11 7 -17 4 -6 -4 -5 -9 3 -15 11 -6 10 -9 -4 -15
-9 -3 -24 0 -33 7 -14 12 -16 11 -13 -6 3 -11 19 -27 36 -35 18 -8 33 -19 34
-25 4 -24 12 -35 25 -35 8 0 14 -5 14 -11 0 -6 -10 -9 -22 -7 -13 2 -22 9 -20
16 1 6 -2 12 -8 12 -5 0 -10 -6 -10 -12 -1 -9 -5 -8 -13 2 -7 9 -26 26 -43 38
-33 23 -52 72 -28 72 8 0 14 5 14 11 0 7 -9 9 -21 6 -15 -4 -22 1 -29 18 -5
13 -14 26 -20 30 -17 10 -32 56 -26 80 7 27 76 33 76 7 1 -15 2 -15 11 1 16
28 31 20 24 -13 -4 -19 -3 -30 4 -30 6 0 10 3 9 8 -3 12 14 57 26 64 6 4 20 5
31 1 11 -4 54 -7 95 -7z m-320 -160 c0 -3 -4 -8 -10 -11 -5 -3 -10 -1 -10 4 0
6 5 11 10 11 6 0 10 -2 10 -4z m-320 -16 c-20 -13 -33 -13 -25 0 3 6 14 10 23
10 15 0 15 -2 2 -10z m1253 -58 c31 -23 57 -50 57 -59 0 -10 -16 -1 -48 29
-26 25 -66 51 -88 58 -50 16 -55 20 -49 30 8 13 67 -13 128 -58z m-908 -22
c15 -16 17 -25 9 -38 -6 -9 -90 -75 -187 -147 -96 -71 -214 -163 -261 -204
-83 -70 -116 -84 -116 -47 0 8 -7 19 -17 24 -9 5 -14 16 -10 25 6 16 188 173
345 297 52 41 118 94 146 117 l51 41 10 -23 c6 -13 19 -33 30 -45z m544 46
c15 -13 94 -71 176 -129 83 -58 170 -123 195 -144 25 -22 62 -50 83 -62 44
-27 46 -39 11 -80 l-25 -30 -37 33 c-89 82 -175 148 -229 177 -78 42 -108 64
-173 123 -31 28 -65 56 -75 62 -19 11 -19 13 10 43 17 17 32 31 34 31 3 0 16
-11 30 -24z m-969 -6 c0 -5 -7 -10 -15 -10 -8 0 -15 -4 -15 -10 0 -5 -5 -10
-12 -10 -6 0 -3 9 7 20 20 22 35 26 35 10z m163 -27 c32 -42 33 -54 10 -76
-40 -35 -138 -95 -147 -89 -6 3 -5 7 2 10 20 6 13 22 -10 23 l-23 0 23 16 22
16 -29 26 -30 26 62 43 c34 23 69 42 77 41 8 0 27 -16 43 -36z m504 11 c-3 -3
-12 -4 -19 -1 -8 3 -5 6 6 6 11 1 17 -2 13 -5z m573 -12 c23 -12 35 -24 35
-38 0 -11 6 -28 14 -37 12 -15 11 -17 -3 -17 -24 0 -19 -18 12 -45 45 -40 1
-30 -54 13 -27 20 -58 42 -68 48 -28 15 -29 25 -6 62 23 37 23 37 70 14z
m-430 -77 c0 -55 20 -88 71 -117 21 -11 41 -28 44 -36 6 -15 -24 -44 -37 -36
-5 3 -8 1 -8 -4 0 -5 -18 -29 -41 -53 l-41 -44 -76 0 c-84 -1 -102 3 -81 16
11 7 10 9 -3 9 -10 0 -18 6 -18 13 0 6 -11 17 -24 23 -20 9 -26 9 -30 -2 -7
-19 -26 -18 -26 1 0 8 -3 14 -7 13 -5 -1 -21 6 -36 16 -24 16 -26 21 -14 35 8
9 18 27 23 41 8 26 9 37 12 107 2 34 5 40 20 36 10 -2 27 -18 36 -35 13 -21
21 -27 29 -19 6 6 24 11 39 11 21 0 28 -5 28 -20 0 -15 7 -20 26 -20 16 0 24
5 21 13 -2 6 -11 11 -20 11 -30 -3 -8 14 42 32 28 10 48 21 45 26 -6 10 4 28
17 28 5 0 9 -20 9 -45z m140 -55 c25 -20 53 -40 63 -43 26 -10 21 -37 -7 -37
-25 0 -120 70 -136 100 -28 52 2 44 80 -20z m-490 0 c0 -30 -5 -43 -22 -54
-37 -24 -79 -31 -89 -15 -6 10 6 27 44 61 28 26 55 47 60 48 4 0 7 -18 7 -40z
m-131 -111 c13 -17 22 -31 20 -33 -2 -2 -25 -10 -50 -18 -77 -26 -110 16 -46
59 42 28 47 28 76 -8z m776 -4 c29 -25 29 -25 5 -20 -22 5 -25 3 -26 -25 -1
-17 -4 -33 -7 -37 -11 -10 -67 19 -67 35 0 15 47 72 59 72 3 0 20 -11 36 -25z
m-143 -37 c-7 -7 -12 -8 -12 -2 0 6 3 14 7 17 3 4 9 5 12 2 2 -3 -1 -11 -7
-17z m-484 -45 c13 -14 21 -31 18 -39 -3 -8 0 -11 10 -7 9 3 14 -1 14 -14 0
-11 14 -32 30 -48 48 -46 35 -99 -33 -136 -14 -8 -19 -5 -27 16 -11 28 -24 31
-60 10 -14 -8 -32 -14 -40 -14 -8 0 -3 5 13 11 16 6 30 20 33 34 8 32 1 38
-25 24 -24 -12 -28 1 -7 20 17 14 10 40 -11 40 -11 0 -13 7 -8 28 5 26 3 29
-31 40 -37 11 -39 10 -82 -28 -9 -8 -30 -14 -45 -12 l-28 3 23 25 c13 13 28
24 33 24 13 0 124 45 132 54 13 13 68 -6 91 -31z m689 10 c13 -3 20 -9 17 -14
-9 -15 -30 -10 -55 12 -21 18 -21 20 -4 14 11 -4 30 -10 42 -12z m-192 -34
c22 -7 51 -14 64 -15 28 -3 54 -24 31 -24 -8 0 -27 -7 -42 -14 -19 -10 -28
-11 -28 -4 0 6 -2 9 -5 7 -10 -11 8 -50 21 -45 8 3 14 1 14 -3 0 -5 19 -5 41
0 45 11 60 6 40 -14 -7 -7 -40 -12 -82 -12 -54 0 -69 3 -69 15 -1 12 -3 11
-11 -3 -6 -9 -7 -26 -4 -37 5 -15 -6 -31 -40 -65 -63 -61 -115 -73 -115 -25 0
20 -14 21 -44 3 -12 -7 -15 -13 -7 -17 16 -10 14 -26 -4 -26 -40 0 -2 79 39
81 20 0 20 1 -1 9 -13 5 -23 15 -23 21 0 13 38 49 51 49 5 0 18 19 29 43 50
101 74 128 94 103 6 -8 29 -20 51 -27z m-369 4 c-10 -10 -19 5 -10 18 6 11 8
11 12 0 2 -7 1 -15 -2 -18z m-26 -3 c0 -5 -2 -10 -4 -10 -3 0 -8 5 -11 10 -3
6 -1 10 4 10 6 0 11 -4 11 -10z m680 -60 c33 -65 40 -123 41 -350 l1 -219 -31
-68 c-50 -106 -75 -133 -121 -133 -27 0 -43 6 -53 20 -7 10 -27 26 -43 34 -16
9 -29 24 -29 33 0 10 -7 19 -15 20 -76 10 -91 15 -89 31 3 34 -1 51 -17 66
-14 14 -18 14 -44 -6 -26 -19 -32 -20 -60 -8 -33 14 -80 67 -80 92 0 8 11 25
25 38 31 29 33 57 3 62 -12 2 -23 9 -26 17 -4 11 3 12 33 7 34 -7 41 -4 76 30
24 23 39 47 39 62 0 13 3 22 8 20 4 -2 21 -10 37 -17 158 -72 188 -95 199
-154 6 -36 14 -47 33 -47 12 0 14 7 10 30 -5 22 -3 30 8 30 32 0 10 67 -37
114 -9 9 -15 23 -12 30 3 8 -5 21 -17 29 -24 17 -53 9 -75 -21 -9 -13 -15 -12
-42 8 -36 26 -44 16 65 74 50 26 113 95 113 122 0 7 10 25 23 41 13 15 27 36
30 46 9 24 23 14 47 -33z m-102 28 c-5 -15 -68 -24 -68 -10 0 15 13 22 43 22
18 0 27 -4 25 -12z m-978 -18 c0 -5 -5 -10 -11 -10 -5 0 -7 5 -4 10 3 6 8 10
11 10 2 0 4 -4 4 -10z m140 -35 c0 -17 -23 -30 -67 -38 -37 -7 -42 1 -14 25
14 12 21 13 24 5 3 -8 10 -7 23 6 22 21 34 22 34 2z m40 5 c0 -5 -7 -10 -16
-10 -8 0 -12 5 -9 10 3 6 10 10 16 10 5 0 9 -4 9 -10z m394 1 c-2 -2 -26 -11
-52 -20 -51 -17 -72 -17 -72 1 0 6 7 7 15 4 9 -3 18 0 21 7 3 8 21 13 49 13
24 -1 41 -3 39 -5z m-626 -28 c4 -24 55 -73 77 -73 7 0 27 -14 44 -31 17 -17
35 -27 41 -24 14 9 70 -17 70 -32 0 -7 -10 -13 -23 -13 -31 0 -131 -61 -135
-83 -5 -24 11 -21 62 13 48 33 100 48 110 32 3 -5 -16 -19 -43 -30 -86 -36
-183 -145 -167 -188 8 -22 25 -17 38 12 l13 27 10 -44 c7 -28 17 -45 28 -47
15 -3 17 5 15 61 -2 71 12 104 57 133 32 21 39 15 25 -20 -12 -34 -8 -42 26
-50 30 -8 44 5 44 41 0 12 11 35 25 50 20 22 26 25 34 14 13 -21 38 -7 44 26
7 36 -15 63 -40 47 -13 -8 -22 -6 -40 9 -31 28 -20 39 22 21 19 -8 46 -12 59
-8 19 4 27 0 42 -25 30 -51 43 -47 41 12 -2 49 -1 52 25 55 24 3 27 -1 33 -38
4 -23 17 -51 28 -64 24 -25 91 -51 107 -41 5 3 10 -1 10 -9 0 -17 -30 -27 -70
-24 -52 4 -76 -3 -94 -28 -18 -25 -18 -26 9 -54 l27 -28 -27 -36 c-15 -20 -31
-36 -35 -36 -5 0 -35 -22 -67 -49 -32 -26 -68 -53 -80 -60 -13 -6 -23 -18 -23
-26 0 -8 -19 -24 -41 -36 -23 -11 -67 -41 -98 -65 -71 -56 -105 -58 -159 -10
-38 35 -77 98 -93 151 -5 17 -12 104 -14 195 -3 91 -8 177 -11 191 -7 36 13
117 36 147 11 13 20 33 20 44 0 27 34 19 38 -9z m242 -42 c0 -12 -81 -52 -92
-45 -14 9 -9 24 10 24 9 0 26 7 36 15 22 17 46 20 46 6z m647 -35 c-5 -16 -21
-17 -41 -3 -17 13 -16 14 13 14 17 0 30 -5 28 -11z m678 -38 c27 -12 31 -23
13 -34 -6 -4 -14 -2 -16 5 -4 11 -6 11 -12 0 -10 -15 -50 -20 -47 -5 1 5 -6
12 -15 14 -10 2 -18 -2 -18 -10 0 -7 -11 -26 -25 -43 -18 -21 -23 -24 -18 -10
3 11 11 26 17 34 8 11 8 15 -1 18 -21 7 -15 21 15 31 37 14 76 14 107 0z
m1030 -35 c5 -13 22 -24 41 -28 18 -3 37 -11 43 -19 14 -16 86 -33 231 -54
112 -17 115 -18 118 -43 l3 -27 -193 -7 c-154 -6 -634 -2 -1035 9 -40 1 -53 5
-53 16 0 13 -2 13 -9 1 -11 -18 -91 -27 -91 -10 0 8 -4 9 -13 0 -15 -12 -254
-14 -241 -1 18 16 54 22 54 9 0 -8 7 -5 20 7 37 37 49 44 64 38 9 -3 16 -10
16 -15 0 -4 7 -6 15 -3 10 4 15 0 15 -12 0 -15 4 -13 19 9 13 20 20 25 24 15
4 -10 8 -10 17 2 6 8 13 11 16 5 14 -33 23 -39 37 -27 8 7 20 26 27 43 9 20
16 27 23 20 6 -6 16 -3 27 11 12 15 19 18 24 10 4 -7 2 -12 -3 -12 -6 0 -11
-5 -11 -12 0 -6 11 -1 24 11 26 25 41 26 109 12 26 -6 80 -13 120 -16 91 -6
131 -14 135 -26 2 -5 9 -6 15 -2 7 4 81 8 165 9 l154 3 -5 -27 c-5 -24 -4 -25
8 -9 11 15 17 16 39 6 14 -7 29 -9 32 -6 8 8 -15 37 -29 37 -6 0 -19 8 -30 17
-19 18 -103 23 -207 15 -36 -3 -139 4 -199 14 -25 4 -31 8 -21 14 9 5 17 5 20
0 3 -5 18 -3 33 5 15 8 27 10 27 4 0 -6 9 -7 20 -4 11 4 20 2 20 -4 0 -10 50
-8 128 5 26 4 32 2 26 -8 -4 -7 2 -5 13 5 11 9 28 17 39 17 10 0 28 7 39 16
13 10 37 14 75 12 45 -3 57 -7 65 -25z m-1025 -17 c0 -3 -4 -8 -10 -11 -5 -3
-10 -1 -10 4 0 6 5 11 10 11 6 0 10 -2 10 -4z m495 -6 c3 -5 -1 -10 -9 -10 -9
0 -16 5 -16 10 0 6 4 10 9 10 6 0 13 -4 16 -10z m-765 -44 c-8 -38 -5 -47 15
-40 7 3 15 -6 18 -25 8 -37 28 -40 51 -8 l17 22 -12 -25 c-17 -36 -26 -40
-101 -40 -74 0 -72 -2 -70 70 1 74 -1 71 37 64 23 -4 35 -2 35 5 0 6 4 11 9
11 5 0 5 -15 1 -34z m-995 4 c0 -7 -6 -15 -12 -17 -8 -3 -13 4 -13 17 0 13 5
20 13 18 6 -3 12 -11 12 -18z m1385 -4 c0 -3 -4 -8 -10 -11 -5 -3 -10 -1 -10
4 0 6 5 11 10 11 6 0 10 -2 10 -4z m-2150 -34 c0 -4 -5 -13 -12 -20 -17 -17
-2 -28 17 -12 12 10 15 10 15 -4 0 -22 17 -20 25 3 3 11 13 25 21 32 14 11 19
10 31 -6 11 -14 17 -16 20 -7 3 6 16 12 29 12 14 0 23 -4 20 -8 -2 -4 0 -14 5
-22 7 -12 10 -11 15 8 7 24 19 29 29 12 5 -8 11 -7 21 1 11 9 14 8 14 -2 0
-10 3 -10 12 -1 17 17 28 15 28 -4 0 -10 6 -14 14 -11 14 6 29 -39 19 -56 -4
-7 -613 -6 -613 1 0 8 31 62 36 62 4 0 3 -12 0 -27 -5 -25 -4 -26 7 -10 33 50
38 53 31 25 -7 -32 11 -39 21 -8 3 11 10 20 15 20 5 0 7 -7 4 -15 -9 -23 25
-31 40 -10 12 17 14 17 34 -3 l22 -22 16 25 c9 14 23 25 30 25 8 0 14 7 14 15
0 8 5 15 10 15 6 0 10 -4 10 -8z m-290 -36 c0 -3 -4 -8 -10 -11 -5 -3 -10 -1
-10 4 0 6 5 11 10 11 6 0 10 -2 10 -4z m2180 -1575 c0 -5 8 -12 18 -15 9 -3
28 -23 41 -43 14 -21 42 -56 62 -78 53 -57 120 -148 113 -154 -3 -3 -73 -8
-155 -11 l-150 -5 -6 25 c-4 14 -7 81 -8 150 l0 125 30 6 c45 10 55 10 55 0z
m-3100 -55 c0 -2 -7 -6 -15 -10 -8 -3 -15 -1 -15 4 0 6 7 10 15 10 8 0 15 -2
15 -4z m1517 -61 c-4 -24 -2 -70 4 -101 8 -45 8 -59 -3 -65 -7 -5 -70 -9 -140
-9 -107 0 -128 2 -128 15 0 8 5 15 11 15 6 0 46 33 88 73 90 87 129 116 155
117 16 0 18 -5 13 -45z m-1202 5 c-3 -5 -16 -10 -28 -9 -20 1 -20 2 3 9 14 4
26 8 28 9 2 1 0 -3 -3 -9z m-68 -6 c-3 -3 -12 -4 -19 -1 -8 3 -5 6 6 6 11 1
17 -2 13 -5z m-418 -180 c39 -8 41 -24 2 -24 -37 0 -62 10 -55 21 6 11 12 11
53 3z m218 -28 c-3 -7 0 -19 6 -25 8 -8 7 -11 -5 -11 -47 0 -67 35 -25 43 12
2 24 5 26 6 2 0 1 -5 -2 -13z m1476 -15 c12 -12 21 -141 10 -141 -6 0 -13 7
-17 15 -8 21 -23 19 -29 -5 -3 -12 -14 -20 -25 -20 -16 0 -20 6 -18 32 2 46
-29 51 -39 6 -7 -32 -7 -32 -14 -8 -4 16 -15 26 -30 28 -21 3 -23 1 -17 -23 7
-26 6 -27 -10 -10 -16 16 -19 16 -29 1 -7 -9 -27 -16 -48 -16 -34 0 -36 2 -45
46 -5 25 -7 57 -3 72 7 27 9 27 107 32 109 5 195 2 207 -9z m-1303 -1 c0 -12
-8 -12 -35 0 -18 8 -17 9 8 9 15 1 27 -3 27 -9z m185 0 c-3 -5 -15 -10 -26
-10 -11 0 -17 5 -14 10 3 6 15 10 26 10 11 0 17 -4 14 -10z m2879 -52 c-3 -88
-3 -88 -15 -88 -6 0 -9 10 -8 23 2 12 0 28 -4 35 -15 22 -27 2 -27 -44 0 -28
-4 -43 -10 -39 -5 3 -10 32 -10 63 0 64 -10 88 -34 79 -15 -6 -22 -49 -18
-114 0 -13 -3 -23 -8 -23 -9 0 -17 78 -12 127 3 35 13 39 102 42 l45 1 -1 -62z
m64 22 c1 -19 -2 -55 -7 -80 l-9 -45 -1 63 c-1 35 -6 72 -12 84 -9 17 -8 19 8
16 13 -2 19 -13 21 -38z m-261 -37 c-2 -16 -4 -5 -4 22 0 28 2 40 4 28 2 -13
2 -35 0 -50z m-3183 22 c4 -12 -5 -15 -51 -15 -48 0 -54 2 -43 15 7 8 29 15
50 15 24 0 40 -5 44 -15z m1711 -125 c-8 -13 15 -258 29 -305 8 -27 17 -94 21
-148 3 -54 10 -109 15 -123 19 -48 14 -56 -29 -49 -22 4 -42 2 -45 -3 -10 -16
22 -35 62 -37 35 -2 37 -5 44 -41 10 -58 9 -104 -2 -104 -5 0 -10 7 -10 15 0
18 -59 57 -73 48 -5 -3 -6 -16 -3 -29 9 -32 -17 -32 -50 1 l-25 25 6 217 c4
120 8 236 9 258 2 22 6 118 11 214 l7 173 18 -53 c10 -29 17 -56 15 -59z
m-1240 81 c7 -13 -36 -17 -110 -11 l-60 4 50 7 c80 10 113 10 120 0z m-490
-21 c-3 -5 -26 -10 -50 -10 -24 0 -47 5 -50 10 -4 6 15 10 50 10 35 0 54 -4
50 -10z m310 -39 c11 -5 -10 -6 -50 -3 -38 2 -72 6 -74 8 -8 8 105 2 124 -5z
m-372 -18 c-7 -2 -21 -2 -30 0 -10 3 -4 5 12 5 17 0 24 -2 18 -5z m90 0 c-7
-2 -19 -2 -25 0 -7 3 -2 5 12 5 14 0 19 -2 13 -5z m70 0 c-7 -2 -21 -2 -30 0
-10 3 -4 5 12 5 17 0 24 -2 18 -5z m430 -33 c5 -4 7 -20 5 -36 -2 -24 -8 -30
-33 -32 -41 -5 -59 -20 -44 -38 13 -16 66 -18 103 -4 16 6 27 6 31 0 4 -6 17
-10 31 -10 14 0 23 -4 20 -8 -3 -5 -33 -10 -68 -11 -58 -2 -84 -14 -72 -33 3
-4 -12 -8 -32 -8 -21 0 -34 3 -31 7 15 15 -18 33 -62 33 -25 0 -53 5 -61 10
-10 6 -11 10 -2 10 6 0 12 9 12 20 0 15 -7 20 -29 20 -17 0 -32 4 -36 9 -6 11
1 16 36 24 23 6 28 2 42 -33 19 -48 40 -51 61 -8 19 37 12 68 -15 68 -10 0
-19 7 -19 15 0 13 7 15 34 10 21 -4 36 -3 41 5 8 12 73 5 88 -10z m-230 3 c-7
-2 -21 -2 -30 0 -10 3 -4 5 12 5 17 0 24 -2 18 -5z m340 -20 c-7 -2 -21 -2
-30 0 -10 3 -4 5 12 5 17 0 24 -2 18 -5z m-593 -12 c0 -15 -28 -21 -91 -21
-46 0 -59 3 -59 15 0 12 15 15 75 15 41 0 75 -4 75 -9z m1582 -3 c15 1 16 -12
13 -121 -2 -67 -7 -201 -10 -297 -3 -96 -8 -193 -11 -216 -7 -48 20 -104 68
-145 l30 -25 -118 -3 -119 -2 -14 31 c-7 17 -11 42 -8 56 2 13 0 27 -4 30 -10
6 -6 190 4 201 15 14 7 55 -12 60 -16 4 -19 20 -26 156 -9 174 -9 169 0 222
12 69 6 66 102 59 48 -3 96 -6 105 -6z m-1419 -4 c11 -11 -3 -24 -18 -18 -8 4
-12 10 -9 15 6 11 18 12 27 3z m564 -20 c-3 -3 -12 -4 -19 -1 -8 3 -5 6 6 6
11 1 17 -2 13 -5z m597 -24 c-3 -98 -4 -100 -24 -100 -11 0 -20 6 -20 14 0 27
-53 35 -205 32 -186 -3 -285 3 -285 18 0 7 18 13 43 15 23 1 46 7 52 12 18 18
-18 30 -68 24 -31 -4 -47 -2 -43 4 4 6 104 8 279 6 266 -4 272 -5 271 -25z
m-1389 -20 c4 -6 -10 -10 -37 -9 -40 1 -41 2 -13 9 43 11 43 11 50 0z m134 -6
c2 -2 -22 -4 -55 -4 -37 0 -54 3 -45 9 12 8 90 4 100 -5z m101 6 c0 -5 -4 -10
-10 -10 -5 0 -10 5 -10 10 0 6 5 10 10 10 6 0 10 -4 10 -10z m523 -17 c-7 -2
-19 -2 -25 0 -7 3 -2 5 12 5 14 0 19 -2 13 -5z m-455 -23 c-7 -11 -22 -20 -33
-21 -179 -5 -355 -4 -355 3 0 4 75 8 168 8 131 1 171 4 186 15 30 23 49 20 34
-5z m4290 1 c9 -5 29 -14 45 -20 34 -13 35 -26 1 -28 -15 0 -39 -10 -55 -22
-27 -20 -79 -29 -79 -13 0 4 10 12 23 17 12 6 20 17 18 25 -2 8 -6 23 -8 33
-6 19 24 24 55 8z m-4308 -71 c-21 -13 -57 -12 -66 1 -5 8 0 10 17 6 13 -3 31
-2 39 3 8 5 17 7 19 4 3 -3 -1 -9 -9 -14z m-221 -16 c2 -2 -25 -4 -62 -4 -36
0 -69 5 -72 10 -5 7 16 9 62 4 37 -4 70 -8 72 -10z m121 5 c-34 -10 -98 -11
-103 -1 -3 4 25 7 61 8 43 0 58 -2 42 -7z m665 -9 c-66 -6 -109 1 -61 10 16 3
50 3 75 0 l46 -5 -60 -5z m-117 3 c-10 -2 -28 -2 -40 0 -13 2 -5 4 17 4 22 1
32 -1 23 -4z m532 -9 c0 -2 -13 -4 -30 -4 -16 0 -30 4 -30 8 0 5 14 7 30 4 17
-2 30 -6 30 -8z m124 -11 c4 -9 2 -21 -4 -27 -7 -7 -10 -3 -10 12 0 26 -37 31
-46 7 -4 -8 -13 -15 -22 -15 -8 0 -12 3 -9 7 4 3 2 12 -4 20 -9 11 -2 13 39
13 37 0 51 -4 56 -17z m-339 -24 c7 -10 -253 -17 -268 -7 -11 6 57 11 211 14
29 1 55 -2 57 -7z m-1052 -6 c-7 -2 -21 -2 -30 0 -10 3 -4 5 12 5 17 0 24 -2
18 -5z m90 0 c-7 -2 -19 -2 -25 0 -7 3 -2 5 12 5 14 0 19 -2 13 -5z m291 -2
c3 -5 -1 -12 -10 -15 -22 -9 -24 -8 -24 9 0 16 25 21 34 6z m366 -7 c0 -2 -21
-3 -47 -3 -46 2 -47 2 -13 8 33 7 60 4 60 -5z m3810 4 c0 -4 -9 -8 -20 -8 -11
0 -20 4 -20 8 0 4 9 8 20 8 11 0 20 -4 20 -8z m-4372 -15 c-4 -22 -48 -31 -48
-10 0 19 10 27 32 27 13 0 18 -6 16 -17z m335 10 c-7 -2 -19 -2 -25 0 -7 3 -2
5 12 5 14 0 19 -2 13 -5z m3594 1 c-3 -3 -12 -4 -19 -1 -8 3 -5 6 6 6 11 1 17
-2 13 -5z m48 -12 c-3 -3 -11 0 -18 7 -9 10 -8 11 6 5 10 -3 15 -9 12 -12z
m210 13 c-23 -8 -124 -11 -119 -3 3 4 33 8 67 7 34 0 58 -2 52 -4z m-142 -12
c-7 -2 -21 -2 -30 0 -10 3 -4 5 12 5 17 0 24 -2 18 -5z m-620 -10 c-13 -2 -33
-2 -45 0 -13 2 -3 4 22 4 25 0 35 -2 23 -4z m1067 -8 c0 -21 -18 -26 -60 -16
l-35 9 33 1 c17 1 32 6 32 11 0 6 7 10 15 10 8 0 15 -7 15 -15z m-3272 -13 c3
-11 -23 -13 -139 -12 -79 1 -166 5 -194 8 l-50 7 65 5 c134 10 313 6 318 -8z
m2511 2 c2 -2 -19 -4 -47 -4 -30 0 -52 4 -52 11 0 9 87 3 99 -7z m-3992 -16
c-3 -8 -6 -5 -6 6 -1 11 2 17 5 13 3 -3 4 -12 1 -19z m1077 14 c3 -5 -16 -9
-42 -9 -41 -1 -43 0 -17 7 42 11 53 11 59 2z m2963 2 c-3 -3 -12 -4 -19 -1 -8
3 -5 6 6 6 11 1 17 -2 13 -5z m500 0 c-3 -3 -12 -4 -19 -1 -8 3 -5 6 6 6 11 1
17 -2 13 -5z m96 -1 c-7 -2 -19 -2 -25 0 -7 3 -2 5 12 5 14 0 19 -2 13 -5z
m-909 -31 c44 -1 77 -4 75 -7 -3 -2 -66 -7 -142 -10 -107 -4 -137 -3 -137 7 0
13 31 15 204 10z m-3624 -18 c0 -2 -16 -4 -35 -4 -19 0 -35 4 -35 8 0 4 16 6
35 4 19 -2 35 -6 35 -8z m4270 6 c0 -5 -5 -10 -11 -10 -5 0 -7 5 -4 10 3 6 8
10 11 10 2 0 4 -4 4 -10z m70 2 c0 -5 -13 -7 -30 -4 -16 2 -30 6 -30 8 0 2 14
4 30 4 17 0 30 -4 30 -8z m-4283 -8 c-3 -3 -12 -4 -19 -1 -8 3 -5 6 6 6 11 1
17 -2 13 -5z m878 -14 c-3 -5 -21 -9 -38 -9 l-32 2 35 7 c19 4 36 8 38 9 2 0
0 -3 -3 -9z m62 4 c-3 -3 -12 -4 -19 -1 -8 3 -5 6 6 6 11 1 17 -2 13 -5z m56
-5 c-8 -8 -16 -8 -30 0 -16 9 -14 10 12 11 21 0 26 -3 18 -11z m3037 1 c0 -12
-97 -12 -125 0 -14 6 3 9 53 9 42 1 72 -3 72 -9z m63 -27 c-7 -2 -19 -2 -25 0
-7 3 -2 5 12 5 14 0 19 -2 13 -5z m-4203 -13 c0 -5 -4 -10 -9 -10 -6 0 -13 5
-16 10 -3 6 1 10 9 10 9 0 16 -4 16 -10z m2193 -491 c23 -12 45 -27 49 -34 4
-7 21 -18 38 -25 16 -7 30 -16 30 -20 0 -5 -44 -23 -97 -40 -78 -26 -120 -34
-205 -37 -70 -4 -108 -2 -108 5 0 6 30 24 67 41 41 20 85 50 114 81 26 28 53
50 59 50 6 0 30 -10 53 -21z m955 -47 c26 -26 59 -55 75 -65 53 -34 24 -51
-70 -41 -45 4 -76 15 -106 35 -23 15 -62 32 -86 38 -24 5 -47 13 -52 18 -25
25 53 61 134 62 57 1 60 0 105 -47z"/>
<path d="M2530 5422 c-8 -3 -26 -13 -39 -24 -13 -10 -32 -16 -42 -13 -9 3 -23
-1 -31 -8 -7 -8 -24 -19 -37 -26 -12 -7 -20 -15 -17 -18 3 -3 12 0 21 7 12 10
15 9 15 -6 0 -13 7 -19 23 -20 12 0 34 -4 48 -8 21 -6 27 -3 37 18 7 16 8 28
2 31 -14 8 7 45 25 45 16 0 29 17 18 23 -5 2 -15 2 -23 -1z"/>
<path d="M2555 5337 c-13 -10 -15 -16 -6 -21 6 -4 9 -11 7 -15 -3 -4 1 -8 8
-8 7 0 13 12 14 29 1 33 1 32 -23 15z"/>
<path d="M2390 5068 c0 -9 5 -20 10 -23 13 -8 13 5 0 25 -8 13 -10 13 -10 -2z"/>
<path d="M2340 5049 c0 -5 5 -7 10 -4 6 3 10 8 10 11 0 2 -4 4 -10 4 -5 0 -10
-5 -10 -11z"/>
<path d="M2451 5048 c0 -7 4 -22 9 -33 8 -18 9 -17 9 7 1 15 -3 30 -9 33 -5 3
-10 0 -9 -7z"/>
<path d="M2500 5040 c0 -6 7 -10 15 -10 8 0 15 2 15 4 0 2 -7 6 -15 10 -8 3
-15 1 -15 -4z"/>
<path d="M2575 4993 c-4 -18 -15 -34 -24 -36 -15 -4 -15 -5 0 -6 23 -1 41 24
36 51 -4 20 -5 19 -12 -9z"/>
<path d="M2435 4980 c3 -5 8 -10 11 -10 2 0 4 5 4 10 0 6 -5 10 -11 10 -5 0
-7 -4 -4 -10z"/>
<path d="M2371 4964 c0 -11 3 -14 6 -6 3 7 2 16 -1 19 -3 4 -6 -2 -5 -13z"/>
<path d="M2450 4944 c0 -20 17 -34 41 -34 5 0 8 12 8 28 -1 16 -3 20 -6 10 -2
-10 -8 -18 -13 -18 -5 0 -14 8 -19 18 -9 15 -10 15 -11 -4z"/>
<path d="M2545 4920 c3 -5 8 -10 11 -10 2 0 4 5 4 10 0 6 -5 10 -11 10 -5 0
-7 -4 -4 -10z"/>
<path d="M2260 4860 c0 -5 5 -10 10 -10 6 0 10 5 10 10 0 6 -4 10 -10 10 -5 0
-10 -4 -10 -10z"/>
<path d="M2207 4834 c-4 -4 -7 -14 -7 -23 0 -11 3 -12 11 -4 6 6 10 16 7 23
-2 6 -7 8 -11 4z"/>
<path d="M2251 4802 c-6 -12 -11 -27 -11 -34 0 -7 7 0 15 16 9 16 13 31 11 33
-2 3 -9 -4 -15 -15z"/>
<path d="M2621 4672 c-13 -25 -14 -42 -2 -42 10 0 25 50 17 57 -2 3 -9 -4 -15
-15z"/>
<path d="M3826 4473 c-6 -14 -5 -15 5 -6 7 7 10 15 7 18 -3 3 -9 -2 -12 -12z"/>
<path d="M1861 1906 c-8 -10 -8 -16 2 -24 17 -14 42 2 34 22 -8 20 -21 20 -36
2z"/>
<path d="M1875 1820 c-4 -7 -3 -16 3 -22 14 -14 47 -6 47 12 0 18 -40 26 -50
10z"/>
<path d="M1885 1690 c-7 -11 38 -60 55 -60 6 0 13 7 17 17 11 29 -56 69 -72
43z"/>
<path d="M38 4353 c-29 -3 -38 -9 -38 -23 0 -16 9 -18 89 -18 64 0 93 4 101
13 24 29 -36 40 -152 28z"/>
<path d="M332 4332 c-8 -22 10 -30 78 -34 59 -3 65 -1 65 17 0 18 -8 21 -69
25 -51 4 -70 2 -74 -8z"/>
<path d="M622 4332 c-53 -3 -63 -6 -60 -20 3 -14 16 -17 71 -18 44 -1 70 3 78
12 16 20 -17 29 -89 26z"/>
<path d="M781 4331 c-8 -5 -11 -16 -8 -25 9 -23 215 -24 224 -1 3 9 4 17 2 19
-10 8 -206 14 -218 7z"/>
<path d="M1307 4317 c-18 -12 -18 -14 -2 -27 25 -21 118 -20 123 1 2 11 -6 18
-26 22 -16 3 -40 9 -53 12 -14 3 -32 0 -42 -8z"/>
<path d="M1611 4317 c-21 -26 -4 -37 54 -37 85 0 87 38 3 47 -32 4 -47 1 -57
-10z"/>
<path d="M3212 4323 c-28 -3 -42 -9 -39 -16 3 -9 34 -11 108 -8 57 2 106 5
108 7 18 17 -85 26 -177 17z"/>
<path d="M1104 4309 c-13 -22 17 -34 83 -31 76 3 89 8 72 28 -14 17 -144 20
-155 3z"/>
<path d="M3511 4306 c-7 -8 -8 -17 -3 -20 16 -10 321 -6 327 4 12 19 -42 28
-177 29 -106 1 -138 -2 -147 -13z"/>
<path d="M4565 4309 c-150 -8 -240 -9 -484 -5 -39 1 -66 -3 -68 -10 -3 -8 28
-14 89 -19 182 -14 772 -3 791 15 28 26 -80 32 -328 19z"/>
<path d="M4807 4253 c-4 -3 -2 -12 4 -20 15 -17 133 -19 127 -1 -7 21 -114 38
-131 21z"/>
<path d="M572 4241 c-13 -3 -23 -10 -23 -16 0 -12 40 -24 59 -17 6 2 12 10 12
17 0 17 -19 23 -48 16z"/>
<path d="M45 4229 c-19 -30 38 -36 315 -30 70 1 105 14 82 30 -21 13 -389 14
-397 0z"/>
<path d="M4000 4228 c-24 -10 -24 -10 -5 -18 30 -13 183 -12 190 1 4 6 5 12 4
13 -11 9 -168 13 -189 4z"/>
<path d="M742 4213 c2 -12 12 -18 28 -18 36 0 33 29 -3 33 -23 3 -28 0 -25
-15z"/>
<path d="M845 4220 c-11 -18 4 -28 51 -35 56 -8 76 5 43 29 -26 18 -84 22 -94
6z"/>
<path d="M4333 4210 c-25 -10 -30 -26 -10 -32 6 -2 45 -2 85 0 62 3 73 6 70
20 -3 13 -16 17 -63 19 -33 1 -70 -2 -82 -7z"/>
<path d="M1494 4199 c-10 -16 35 -28 102 -28 39 0 74 0 79 -1 6 -2 34 -2 63
-1 45 1 52 4 52 21 0 19 -7 20 -145 18 -80 -1 -148 -5 -151 -9z"/>
<path d="M3172 4193 c3 -16 19 -19 153 -25 137 -6 181 -1 162 18 -4 4 -42 8
-84 10 -43 2 -113 6 -156 9 -73 6 -78 5 -75 -12z"/>
<path d="M4615 4197 c-14 -11 -15 -16 -5 -22 15 -9 199 -9 208 0 4 4 -2 13
-12 21 -26 19 -165 19 -191 1z"/>
<path d="M1162 4188 c5 -15 88 -24 88 -10 0 13 -25 22 -62 22 -19 0 -28 -4
-26 -12z"/>
<path d="M3657 4184 c-18 -19 -2 -25 58 -22 36 2 66 8 68 13 2 11 -115 20
-126 9z"/>
<path d="M3905 4167 c-44 -17 -95 -50 -96 -62 -5 -30 -6 -42 -8 -62 0 -15 -7
-23 -19 -23 -10 0 -23 -5 -29 -11 -7 -7 -44 -11 -98 -10 -79 2 -87 0 -92 -18
-4 -16 -17 -22 -65 -27 -38 -4 -62 -12 -65 -21 -5 -12 -30 -14 -142 -11 -122
3 -136 1 -139 -14 -2 -11 5 -19 20 -22 25 -6 151 -15 206 -16 20 0 32 -5 32
-14 0 -27 88 -37 109 -13 16 20 4 27 -45 27 -37 0 -42 2 -37 20 5 19 7 20 29
5 21 -13 68 -15 338 -14 172 1 369 5 437 8 119 6 132 4 142 -22 4 -13 537 -5
559 9 16 10 8 25 -19 37 -16 7 -39 19 -53 28 -14 9 -51 20 -83 24 -48 5 -61
11 -79 36 -12 16 -27 29 -34 29 -7 0 -21 8 -31 18 -30 31 -50 32 -100 5 -37
-20 -67 -27 -130 -31 -78 -4 -83 -3 -108 22 -14 14 -30 26 -34 26 -5 0 -26 14
-47 31 -30 23 -46 29 -69 26 -17 -3 -37 1 -45 8 -8 7 -31 15 -50 17 -26 2 -35
-1 -38 -14 -2 -12 5 -19 25 -24 15 -4 38 -18 49 -33 20 -23 24 -24 47 -12 21
11 28 11 51 -4 16 -11 25 -24 22 -32 -4 -8 -6 -19 -6 -24 0 -6 -5 -7 -10 -4
-8 5 -8 11 0 20 7 9 6 16 -6 26 -14 12 -20 9 -40 -16 -13 -17 -23 -39 -22 -50
2 -15 -4 -21 -23 -23 -25 -3 -27 -1 -25 40 l1 43 -70 14 c-50 9 -70 10 -73 2
-2 -6 -15 -11 -28 -11 -22 0 -23 2 -13 21 7 15 8 24 0 32 -15 15 -39 -8 -44
-41 -3 -23 -4 -24 -11 -9 -19 40 91 110 136 86 14 -8 20 -6 25 7 12 32 -43 44
-102 21z m285 -127 c0 -5 -4 -10 -10 -10 -5 0 -10 5 -10 10 0 6 5 10 10 10 6
0 10 -4 10 -10z m470 -50 c6 -11 8 -25 5 -30 -4 -6 6 -10 22 -10 l28 -1 -28
-15 c-15 -8 -31 -13 -36 -10 -4 3 -35 0 -69 -6 -49 -9 -64 -9 -77 2 -9 7 -26
15 -38 16 -12 2 -37 5 -55 7 -19 3 -39 10 -45 17 -9 9 -1 10 38 5 91 -13 154
-5 190 23 34 27 51 28 65 2z m-315 -20 c3 -5 -1 -10 -10 -10 -9 0 -13 5 -10
10 3 6 8 10 10 10 2 0 7 -4 10 -10z"/>
<path d="M4630 3959 c0 -5 5 -7 10 -4 6 3 10 8 10 11 0 2 -4 4 -10 4 -5 0 -10
-5 -10 -11z"/>
<path d="M4937 4173 c-15 -15 -5 -23 28 -23 36 0 47 13 19 24 -20 8 -39 8 -47
-1z"/>
<path d="M4235 4136 c-19 -14 -18 -14 15 -20 50 -9 95 -1 95 15 0 20 -84 24
-110 5z"/>
<path d="M1231 4129 c-50 -19 -2 -29 177 -35 167 -7 182 -6 182 10 0 9 -6 18
-12 21 -29 9 -325 12 -347 4z"/>
<path d="M1677 4134 c-14 -14 -6 -24 19 -24 16 0 24 5 22 13 -5 14 -31 21 -41
11z"/>
<path d="M4512 4132 c-20 -2 -32 -8 -29 -15 5 -15 107 -16 107 -2 0 13 -37 21
-78 17z"/>
<path d="M498 4123 c-42 -5 -54 -32 -15 -34 102 -6 171 10 137 31 -15 10 -50
10 -122 3z"/>
<path d="M725 4121 c-16 -27 16 -34 161 -36 118 -2 147 0 151 12 3 7 4 16 2
18 -3 2 -72 7 -155 11 -115 5 -153 4 -159 -5z"/>
<path d="M63 4112 c-44 -2 -63 -7 -63 -16 0 -21 48 -26 224 -26 124 0 167 3
182 14 10 8 15 18 11 22 -8 8 -235 12 -354 6z"/>
<path d="M4845 4110 c-11 -18 5 -30 41 -30 31 0 45 12 27 23 -21 12 -63 16
-68 7z"/>
<path d="M3120 4080 c-28 -17 0 -23 111 -24 99 -1 144 7 107 18 -30 10 -204
14 -218 6z"/>
<path d="M3561 4049 c-55 -24 -44 -42 19 -31 35 6 45 12 45 26 0 27 -13 28
-64 5z"/>
<path d="M1055 4053 c-11 -3 -24 -9 -29 -14 -23 -22 19 -30 182 -35 149 -5
172 -3 172 10 0 17 -24 22 -135 30 -38 3 -92 7 -120 10 -27 3 -59 2 -70 -1z"/>
<path d="M2296 4051 c-16 -25 -46 -335 -34 -354 19 -31 29 20 54 284 4 42 2
69 -4 73 -6 3 -13 2 -16 -3z"/>
<path d="M1616 4041 c-13 -20 26 -32 103 -32 90 0 108 5 90 27 -13 16 -184 21
-193 5z"/>
<path d="M92 4023 c-50 -2 -92 -8 -92 -12 0 -21 157 -24 248 -5 39 8 24 24
-20 22 -24 -1 -85 -4 -136 -5z"/>
<path d="M2226 3987 c-7 -48 0 -80 18 -74 22 7 19 117 -3 117 -5 0 -12 -19
-15 -43z"/>
<path d="M386 4011 c-14 -22 25 -31 126 -28 104 4 133 10 123 28 -8 12 -242
12 -249 0z"/>
<path d="M3320 4005 c-11 -13 -9 -15 15 -15 16 0 25 5 23 12 -7 19 -24 20 -38
3z"/>
<path d="M4870 3990 c0 -20 40 -32 62 -19 16 10 8 17 -31 29 -27 7 -31 6 -31
-10z"/>
<path d="M665 3966 c-33 -13 -87 -37 -120 -54 -39 -21 -75 -32 -101 -32 -23 0
-66 -5 -95 -11 -30 -6 -70 -14 -90 -18 -20 -4 -56 -22 -80 -38 -40 -28 -50
-31 -112 -28 l-67 3 0 -132 0 -131 88 1 c111 1 161 -9 78 -16 -61 -5 -88 -26
-47 -37 46 -12 17 -22 -49 -16 -65 5 -70 4 -70 -13 0 -11 7 -20 18 -21 9 -1
64 -5 120 -9 98 -6 104 -6 100 12 -2 11 -15 21 -36 25 -18 4 -36 10 -40 13 -3
4 174 5 396 2 221 -2 404 -1 407 4 5 8 200 19 432 25 73 2 141 6 152 10 32 10
25 33 -11 43 l-33 9 40 10 c22 6 85 11 140 12 137 1 225 40 141 62 -16 4 -36
15 -45 23 -9 8 -35 20 -59 28 -23 7 -45 21 -48 31 -3 9 -22 28 -42 42 -33 22
-42 24 -111 19 -42 -4 -86 -13 -98 -20 -42 -27 -139 -7 -190 38 -11 11 -40 22
-63 25 -29 4 -72 25 -133 66 -50 33 -113 69 -139 79 -67 25 -158 23 -233 -6z
m172 -37 l28 -11 -27 -14 c-19 -10 -34 -11 -52 -4 -18 6 -25 6 -23 -1 1 -6
-15 -17 -36 -25 -21 -7 -50 -22 -65 -32 -15 -11 -61 -27 -102 -37 -41 -9 -85
-24 -97 -31 -15 -9 -33 -12 -50 -7 l-28 7 24 6 c32 7 39 30 12 37 -11 3 -19 9
-16 13 3 5 14 6 25 3 12 -3 58 14 117 43 122 60 223 79 290 53z m-497 -106
c-1 -10 -72 -43 -92 -43 -9 0 -21 -7 -28 -15 -10 -12 -16 -13 -27 -4 -11 10
-6 16 26 35 36 20 57 26 109 33 6 0 12 -2 12 -6z m465 -23 c3 -5 1 -10 -4 -10
-6 0 -11 5 -11 10 0 6 2 10 4 10 3 0 8 -4 11 -10z m415 -66 c0 -8 -4 -12 -10
-9 -5 3 -10 13 -10 21 0 8 5 12 10 9 6 -3 10 -13 10 -21z m250 2 c0 -39 -38
-64 -55 -36 -4 6 -13 7 -22 2 -16 -10 -60 -4 -68 8 -3 4 18 7 45 7 35 -1 56 4
67 16 21 21 33 22 33 3z m-1340 0 c0 -3 -4 -8 -10 -11 -5 -3 -10 -1 -10 4 0 6
5 11 10 11 6 0 10 -2 10 -4z m630 -21 c0 -8 -6 -15 -14 -15 -8 0 -22 -10 -30
-21 -12 -18 -93 -45 -104 -34 -2 1 8 16 22 31 15 17 25 23 26 15 0 -11 5 -10
20 4 11 10 23 15 26 12 4 -3 16 0 28 8 25 18 26 18 26 0z m22 -7 c-7 -7 -12
-8 -12 -2 0 14 12 26 19 19 2 -3 -1 -11 -7 -17z m78 12 c0 -5 3 -9 8 -8 4 0
18 -4 32 -10 29 -12 9 -15 -39 -6 -31 7 -44 34 -16 34 8 0 15 -4 15 -10z m740
4 c0 -15 -22 -44 -31 -39 -11 7 7 45 21 45 6 0 10 -3 10 -6z m-50 -14 c0 -5
-4 -10 -10 -10 -5 0 -10 5 -10 10 0 6 5 10 10 10 6 0 10 -4 10 -10z m-1135
-40 c-25 -47 -10 -48 19 -1 15 23 33 41 41 41 13 0 14 -4 5 -20 -21 -40 -83
-90 -110 -90 -62 0 -60 -63 2 -73 25 -4 36 -1 47 14 13 19 15 19 33 2 17 -15
42 -18 177 -20 222 -2 225 -2 218 -9 -4 -5 -304 -7 -526 -4 -28 0 -32 3 -26
18 17 40 17 52 2 52 -27 0 -26 15 4 64 34 54 53 56 21 1 -12 -19 -18 -35 -13
-35 4 0 16 16 27 35 10 19 25 35 32 35 12 0 11 -5 -2 -25 -33 -50 -14 -48 21
2 40 57 54 64 28 13z m1198 23 c-5 -12 -3 -14 7 -8 8 5 11 3 8 -6 -3 -8 -10
-13 -16 -12 -6 2 -9 -4 -6 -12 4 -8 14 -15 23 -16 27 -1 -19 -17 -52 -18 -19
-1 -27 3 -25 11 3 7 13 13 24 13 13 0 18 6 16 18 -2 10 2 25 9 33 15 19 20 18
12 -3z m-480 -18 c-3 -9 -8 -14 -10 -11 -3 3 -2 9 2 15 9 16 15 13 8 -4z
m-653 -30 c0 -8 -4 -15 -10 -15 -5 0 -7 7 -4 15 4 8 8 15 10 15 2 0 4 -7 4
-15z m765 -5 c3 -5 1 -10 -4 -10 -6 0 -11 5 -11 10 0 6 2 10 4 10 3 0 8 -4 11
-10z m470 0 c-3 -5 -10 -10 -16 -10 -5 0 -9 5 -9 10 0 6 7 10 16 10 8 0 12 -4
9 -10z m-1211 -27 c-5 -17 -5 -17 9 0 15 18 43 24 32 7 -3 -6 1 -7 9 -4 11 4
16 0 16 -10 0 -12 -10 -16 -45 -16 -43 0 -58 14 -38 33 12 13 22 7 17 -10z
m471 -3 c3 -5 2 -10 -4 -10 -5 0 -13 5 -16 10 -3 6 -2 10 4 10 5 0 13 -4 16
-10z m215 6 c0 -7 -84 -46 -88 -41 -6 6 60 45 76 45 6 0 12 -2 12 -4z m-123
-42 c-3 -3 -12 -4 -19 -1 -8 3 -5 6 6 6 11 1 17 -2 13 -5z m103 -44 c12 -8 8
-10 -15 -11 -16 -1 -41 -3 -55 -4 -45 -4 -124 -7 -164 -6 -72 2 -30 12 85 20
63 4 119 9 124 9 6 1 17 -3 25 -8z"/>
<path d="M623 3883 c-13 -5 -19 -33 -7 -33 7 0 34 27 34 34 0 7 -10 7 -27 -1z"/>
<path d="M1456 3972 c-15 -24 27 -32 173 -34 146 -1 193 7 159 28 -19 12 -325
17 -332 6z"/>
<path d="M3025 3969 c-11 -17 1 -21 60 -20 59 0 79 7 70 22 -8 13 -122 11
-130 -2z"/>
<path d="M1086 3961 c-3 -5 1 -14 8 -20 16 -13 32 2 21 19 -8 12 -22 13 -29 1z"/>
<path d="M1160 3960 c-13 -9 -13 -11 0 -20 21 -14 55 -8 55 10 0 18 -34 24
-55 10z"/>
<path d="M1332 3958 c7 -20 58 -23 58 -4 0 11 -10 16 -31 16 -20 0 -29 -4 -27
-12z"/>
<path d="M206 3941 c-34 -3 -61 -11 -64 -18 -6 -20 19 -24 89 -16 46 6 64 12
64 23 0 17 -11 19 -89 11z"/>
<path d="M1182 3873 c6 -32 118 -29 118 2 0 12 -14 15 -61 15 -52 0 -60 -2
-57 -17z"/>
<path d="M1437 3882 c-19 -4 -22 -18 -7 -27 18 -11 520 -9 531 2 7 7 7 13 1
17 -11 6 -496 14 -525 8z"/>
<path d="M0 3840 c0 -17 7 -19 55 -19 30 1 58 5 61 10 6 11 -7 16 -68 23 -43
5 -48 3 -48 -14z"/>
<path d="M3580 3841 c0 -19 7 -20 193 -18 163 2 192 4 192 17 0 13 -29 15
-192 18 -186 2 -193 2 -193 -17z"/>
<path d="M4041 3851 c-30 -20 2 -31 90 -31 81 0 90 2 87 18 -3 14 -16 17 -83
20 -44 1 -86 -2 -94 -7z"/>
<path d="M4283 3827 c-13 -6 -23 -20 -23 -31 0 -16 4 -17 33 -10 39 10 118 9
382 -3 110 -5 204 -5 210 -1 5 5 3 14 -7 24 -12 12 -47 16 -174 19 -88 2 -213
6 -279 9 -83 3 -127 1 -142 -7z"/>
<path d="M1850 3823 c-36 -2 -69 -8 -74 -13 -13 -13 38 -31 71 -24 16 3 62 6
103 7 59 2 75 5 75 17 0 16 -51 20 -175 13z"/>
<path d="M3052 3813 c2 -11 13 -19 28 -19 145 -8 160 -7 160 10 0 9 -20 15
-61 20 -106 11 -131 8 -127 -11z"/>
<path d="M3335 3790 c-13 -21 8 -27 127 -35 145 -9 497 -10 506 0 19 19 -37
24 -193 19 -131 -5 -192 -2 -265 10 -109 18 -166 20 -175 6z"/>
<path d="M1947 3763 c-11 -10 13 -32 29 -26 20 8 17 33 -4 33 -10 0 -22 -3
-25 -7z"/>
<path d="M3407 3684 c-16 -16 -5 -24 34 -24 28 0 39 4 37 13 -5 13 -60 22 -71
11z"/>
<path d="M4084 3679 c-7 -12 12 -29 32 -29 15 0 36 25 27 33 -10 11 -51 8 -59
-4z"/>
<path d="M4245 3680 c-11 -18 5 -30 41 -30 22 0 34 5 34 14 0 24 -62 37 -75
16z"/>
<path d="M4814 3681 c-3 -3 -108 -6 -232 -6 -195 0 -227 -2 -227 -15 0 -12 15
-15 70 -16 39 -1 97 -3 130 -4 90 -4 287 1 313 7 13 3 21 10 19 16 -4 13 -63
27 -73 18z"/>
<path d="M3665 3672 c-16 -16 4 -22 80 -22 50 0 85 4 85 10 0 11 0 11 -92 15
-37 1 -70 0 -73 -3z"/>
<path d="M3140 3656 c0 -13 12 -16 65 -16 37 0 65 4 65 10 0 6 -1 10 -2 11 -2
0 -31 3 -65 6 -53 4 -63 3 -63 -11z"/>
<path d="M2720 3575 c0 -15 4 -24 10 -20 6 3 10 12 10 20 0 8 -4 17 -10 20 -6
4 -10 -5 -10 -20z"/>
<path d="M2823 3560 c-15 -27 -224 -192 -255 -202 -16 -6 0 -28 20 -28 10 0
29 12 43 28 14 15 55 48 92 74 88 64 164 158 128 158 -6 0 -18 -14 -28 -30z"/>
<path d="M2750 3570 c0 -5 5 -10 10 -10 6 0 10 5 10 10 0 6 -4 10 -10 10 -5 0
-10 -4 -10 -10z"/>
<path d="M4791 3571 c-8 -5 -11 -16 -8 -25 5 -12 21 -16 66 -16 62 0 81 11 61
35 -14 17 -96 20 -119 6z"/>
<path d="M2678 3563 c7 -3 16 -2 19 1 4 3 -2 6 -13 5 -11 0 -14 -3 -6 -6z"/>
<path d="M3196 3551 c-4 -5 -3 -12 1 -14 13 -8 78 0 78 9 0 13 -72 17 -79 5z"/>
<path d="M3465 3540 c-29 -10 68 -29 118 -23 35 5 52 22 25 24 -63 5 -127 5
-143 -1z"/>
<path d="M3932 3532 c-18 -2 -30 -8 -27 -13 8 -12 145 -12 145 0 0 10 -68 18
-118 13z"/>
<path d="M2858 3510 c-9 -6 -32 -32 -51 -59 -25 -34 -52 -57 -91 -76 -59 -29
-72 -40 -57 -49 18 -11 108 48 169 112 58 62 72 82 55 82 -5 0 -15 -5 -25 -10z"/>
<path d="M4200 3509 c0 -5 15 -10 33 -11 17 -1 46 -3 62 -4 139 -10 340 -1
330 16 -7 11 -425 10 -425 -1z"/>
<path d="M1685 3502 c-51 -5 -59 -10 -45 -27 11 -13 38 -15 158 -13 101 2 147
7 149 15 3 7 -12 14 -39 17 -59 7 -187 12 -223 8z"/>
<path d="M3710 3461 c0 -9 98 -21 113 -14 4 3 5 9 2 14 -8 12 -115 12 -115 0z"/>
<path d="M4682 3458 c4 -10 37 -13 127 -14 87 -1 121 2 118 10 -2 7 -46 12
-126 14 -96 2 -122 0 -119 -10z"/>
<path d="M370 3441 c-36 -5 -45 -10 -45 -26 0 -18 6 -20 75 -17 49 2 92 -2
125 -13 66 -20 240 -10 240 15 0 12 -21 16 -110 20 -60 3 -115 8 -120 12 -16
10 -115 16 -165 9z"/>
<path d="M1565 3439 c-33 -4 -97 -6 -141 -2 -58 4 -83 2 -89 -7 -17 -28 17
-34 203 -37 103 -2 198 -4 211 -4 25 -1 49 16 38 28 -4 4 -33 10 -65 14 -31 4
-66 10 -77 12 -11 3 -47 1 -80 -4z"/>
<path d="M915 3431 c-41 -5 -50 -10 -50 -25 0 -18 7 -20 105 -18 58 1 136 -2
174 -6 75 -9 137 -3 137 13 0 6 -47 15 -103 22 -165 18 -210 20 -263 14z"/>
<path d="M3297 3432 c-96 -2 -108 -5 -105 -20 3 -14 17 -18 88 -20 108 -4 152
4 148 25 -4 20 1 19 -131 15z"/>
<path d="M4055 3430 c-3 -6 5 -10 19 -10 14 0 28 5 31 10 3 6 -5 10 -19 10
-14 0 -28 -4 -31 -10z"/>
<path d="M2400 3413 c0 -15 23 -33 42 -33 10 0 18 7 18 15 0 8 -6 15 -14 15
-8 0 -21 3 -30 6 -9 3 -16 2 -16 -3z"/>
<path d="M2300 3396 c0 -7 21 -24 48 -36 26 -13 59 -29 74 -37 33 -16 48 -17
48 0 0 12 -138 87 -160 87 -6 0 -10 -6 -10 -14z"/>
<path d="M3524 3386 c-4 -9 -5 -18 -3 -20 10 -9 226 -14 239 -6 31 19 -9 31
-118 37 -99 5 -112 4 -118 -11z"/>
<path d="M2162 3357 c-16 -18 -4 -29 19 -17 12 7 31 4 64 -10 26 -11 52 -20
58 -20 24 0 133 -58 156 -84 18 -19 34 -26 63 -26 48 0 71 11 123 60 22 21 50
41 63 45 12 3 20 10 17 15 -9 14 -35 1 -93 -46 -72 -58 -111 -65 -158 -28 -62
50 -67 52 -154 85 -106 39 -142 45 -158 26z"/>
<path d="M4205 3360 c-13 -21 8 -29 92 -32 82 -3 106 3 86 23 -16 16 -168 24
-178 9z"/>
<path d="M4818 3365 c-3 -3 -39 -6 -82 -7 -42 0 -79 -5 -82 -10 -13 -21 19
-32 89 -30 91 2 127 10 127 27 0 17 -39 33 -52 20z"/>
<path d="M2947 3344 c-14 -14 -7 -35 11 -32 9 2 17 10 17 17 0 16 -18 25 -28
15z"/>
<path d="M67 3325 c-49 -12 -76 -30 -64 -41 3 -3 40 1 81 11 75 16 160 13 172
-6 12 -19 144 -4 144 16 0 9 -26 15 -82 19 -165 14 -204 14 -251 1z"/>
<path d="M637 3323 c-4 -3 -7 -12 -7 -19 0 -8 23 -11 78 -11 42 0 113 -2 158
-5 92 -7 134 -1 134 17 0 18 -346 36 -363 18z"/>
<path d="M1171 3321 c-31 -20 2 -27 103 -23 58 2 118 0 133 -5 18 -6 60 -7
113 -1 83 9 98 13 88 23 -9 10 -423 15 -437 6z"/>
<path d="M1705 3310 c-12 -19 7 -28 48 -23 22 3 36 10 34 17 -5 15 -73 20 -82
6z"/>
<path d="M3342 3263 c3 -15 15 -19 71 -21 62 -3 68 -1 65 15 -3 15 -15 19 -71
21 -62 3 -68 1 -65 -15z"/>
<path d="M3681 3236 c-17 -20 -10 -22 86 -31 49 -4 73 -2 78 5 13 21 -13 32
-82 37 -55 4 -71 2 -82 -11z"/>
<path d="M17 3232 c-9 -2 -17 -8 -17 -13 0 -5 36 -9 81 -9 60 0 80 3 76 13 -3
11 -96 17 -140 9z"/>
<path d="M402 3232 c-53 -15 -21 -25 76 -23 108 2 136 7 126 22 -6 10 -167 11
-202 1z"/>
<path d="M918 3229 c-10 -5 -18 -13 -18 -17 0 -7 391 -4 398 3 2 2 1 8 -3 14
-8 14 -353 14 -377 0z"/>
<path d="M1968 3228 c-41 -11 -74 -41 -63 -58 5 -8 12 -7 24 4 10 9 41 16 81
18 59 3 65 5 68 26 3 20 -1 22 -35 21 -21 -1 -55 -5 -75 -11z"/>
<path d="M2106 3231 c-3 -5 2 -11 12 -14 9 -2 25 -8 35 -12 12 -5 17 -3 17 8
0 8 -10 17 -22 21 -31 8 -36 7 -42 -3z"/>
<path d="M4062 3223 c-49 -10 -14 -28 58 -31 77 -3 110 3 94 17 -11 10 -120
20 -152 14z"/>
<path d="M1602 3208 c5 -15 77 -18 81 -3 1 6 -18 11 -42 13 -32 2 -42 0 -39
-10z"/>
<path d="M4605 3211 c-16 -27 10 -32 143 -28 161 6 149 4 134 19 -16 16 -267
24 -277 9z"/>
<path d="M693 3170 c-25 -10 -31 -29 -10 -31 30 -2 122 3 126 7 19 18 -81 39
-116 24z"/>
<path d="M225 3161 c-4 -7 -5 -14 -4 -15 11 -9 210 -13 215 -4 10 15 4 16
-102 24 -74 5 -103 3 -109 -5z"/>
<path d="M1293 3162 c-29 -4 -30 -19 -1 -27 21 -7 379 3 387 11 15 14 -31 19
-187 19 -97 0 -187 -1 -199 -3z"/>
<path d="M2022 3126 c-30 -15 -22 -32 14 -28 16 1 57 4 90 5 58 2 63 0 92 -31
19 -20 36 -31 43 -26 15 9 -40 58 -88 80 -37 16 -118 17 -151 0z"/>
<path d="M3377 3102 c-33 -7 -11 -27 38 -35 53 -9 79 -3 73 16 -5 12 -78 25
-111 19z"/>
<path d="M520 3094 c-14 -2 -50 -9 -80 -16 -30 -6 -84 -12 -120 -12 -51 -1
-65 -4 -65 -16 0 -12 15 -15 80 -14 44 0 116 6 159 12 55 8 105 9 165 2 55 -6
110 -6 151 0 36 5 68 10 73 10 4 0 7 6 7 13 0 9 -36 12 -143 13 -78 0 -155 3
-172 6 -16 3 -41 4 -55 2z"/>
<path d="M1325 3068 c-27 -3 -106 -4 -174 -1 -104 5 -123 4 -119 -8 4 -11 39
-14 179 -15 206 -2 301 4 296 20 -4 12 -104 15 -182 4z"/>
<path d="M1620 3071 c-21 -7 -22 -9 -8 -15 22 -10 68 -4 71 9 3 13 -31 16 -63
6z"/>
<path d="M3780 3056 c0 -18 22 -26 75 -26 45 0 68 16 44 31 -24 15 -119 11
-119 -5z"/>
<path d="M4577 3053 c-24 -3 -37 -9 -34 -16 2 -8 30 -11 88 -9 114 4 129 5
132 17 2 10 -117 15 -186 8z"/>
<path d="M4786 3052 c-7 -13 28 -22 82 -22 31 0 42 4 40 13 -5 14 -113 22
-122 9z"/>
<path d="M4113 3038 c2 -9 26 -13 72 -13 46 0 70 4 73 13 3 9 -16 12 -73 12
-57 0 -76 -3 -72 -12z"/>
<path d="M2316 3021 c-8 -12 10 -25 74 -50 132 -51 427 -60 418 -12 -4 17 -11
18 -107 2 -50 -8 -71 -7 -96 3 -18 8 -44 11 -59 9 -37 -8 -145 15 -182 38 -35
22 -41 23 -48 10z"/>
<path d="M2070 2985 c0 -17 50 -45 80 -45 32 0 24 16 -20 39 -48 25 -60 26
-60 6z"/>
<path d="M3534 2955 c-9 -22 -4 -25 44 -29 27 -2 46 2 53 10 13 16 7 19 -54
29 -29 5 -39 2 -43 -10z"/>
<path d="M940 2930 c0 -11 -6 -20 -12 -20 -7 0 -19 -4 -27 -9 -12 -8 -12 -12
-2 -25 16 -19 133 -22 177 -6 15 6 31 7 35 3 4 -4 39 -6 76 -3 54 4 68 9 71
22 3 16 -8 17 -119 17 -111 0 -123 2 -136 21 -19 27 -63 27 -63 0z"/>
<path d="M3803 2943 c-28 -11 -13 -33 21 -33 44 0 66 9 66 26 0 14 -59 19 -87
7z"/>
<path d="M1325 2930 c-11 -17 -5 -19 70 -22 57 -2 70 0 70 12 0 12 -15 16 -67
18 -41 2 -69 -1 -73 -8z"/>
<path d="M1541 2931 c-26 -16 -2 -28 51 -25 39 2 54 7 56 18 3 13 -6 16 -45
16 -26 0 -54 -4 -62 -9z"/>
<path d="M4107 2924 c-16 -16 10 -24 78 -24 76 0 105 6 105 21 0 10 -173 13
-183 3z"/>
<path d="M4600 2920 c-26 -17 9 -31 60 -24 54 7 67 14 49 25 -19 12 -91 11
-109 -1z"/>
<path d="M2220 2900 c0 -5 11 -17 26 -26 31 -21 54 -6 29 20 -18 17 -55 22
-55 6z"/>
<path d="M670 2861 c0 -24 20 -31 85 -30 57 1 85 13 85 34 0 12 -17 15 -85 15
-77 0 -85 -2 -85 -19z"/>
<path d="M4310 2837 c0 -11 18 -16 73 -19 79 -5 100 -1 94 16 -2 7 -36 12 -85
14 -66 2 -82 0 -82 -11z"/>
<path d="M940 2830 c0 -5 7 -10 16 -10 8 0 12 5 9 10 -3 6 -10 10 -16 10 -5 0
-9 -4 -9 -10z"/>
<path d="M3535 2820 c-11 -18 14 -30 67 -30 43 0 69 13 54 27 -13 13 -113 15
-121 3z"/>
<path d="M3910 2820 c0 -5 16 -10 35 -10 19 0 35 5 35 10 0 6 -16 10 -35 10
-19 0 -35 -4 -35 -10z"/>
<path d="M1300 2806 c0 -8 7 -16 15 -19 15 -6 276 1 283 8 2 2 1 8 -3 14 -4 7
-59 11 -151 11 -116 0 -144 -3 -144 -14z"/>
<path d="M2107 2813 c-14 -13 -6 -23 32 -43 36 -18 61 -43 119 -119 11 -14 24
-21 30 -17 21 13 -25 83 -90 136 -61 49 -78 57 -91 43z"/>
<path d="M2240 2806 c0 -17 27 -29 35 -16 4 6 3 15 0 20 -9 15 -35 12 -35 -4z"/>
<path d="M943 2804 c-24 -6 -38 -33 -25 -46 6 -6 26 -5 50 2 23 6 96 10 162 9
123 -1 142 3 122 23 -11 11 -267 21 -309 12z"/>
<path d="M4895 2801 c-10 -17 4 -31 31 -31 19 0 25 5 22 18 -4 19 -43 29 -53
13z"/>
<path d="M2280 2766 c0 -15 24 -28 34 -19 13 14 5 33 -14 33 -11 0 -20 -6 -20
-14z"/>
<path d="M3790 2760 c-24 -16 5 -28 66 -28 53 1 84 11 71 24 -11 12 -121 15
-137 4z"/>
<path d="M4178 2764 c-16 -16 7 -24 68 -24 48 0 65 3 62 13 -5 13 -118 23
-130 11z"/>
<path d="M4642 2758 c9 -27 108 -29 108 -2 0 10 -15 14 -56 14 -39 0 -54 -4
-52 -12z"/>
<path d="M2342 2708 c2 -30 8 -43 18 -43 19 0 26 51 9 71 -21 25 -30 15 -27
-28z"/>
<path d="M2657 2743 c-11 -19 -16 -69 -8 -82 15 -23 31 -2 28 39 -3 40 -11 58
-20 43z"/>
<path d="M1322 2731 c-73 -7 -87 -25 -22 -29 54 -3 120 9 123 23 2 12 -20 14
-101 6z"/>
<path d="M2783 2699 c-16 -16 -17 -49 -3 -49 13 0 23 24 18 45 -2 13 -5 14
-15 4z"/>
<path d="M2391 2678 c-4 -13 -11 -40 -15 -61 l-7 -38 -30 26 c-28 23 -49 26
-49 5 0 -4 18 -30 40 -56 22 -27 45 -64 50 -84 18 -60 104 -228 118 -229 22
-2 13 50 -20 112 -57 105 -87 190 -73 202 7 5 16 40 19 78 6 57 4 67 -9 67 -9
0 -19 -10 -24 -22z"/>
<path d="M3176 2682 c-3 -5 -7 -44 -10 -88 -3 -43 -10 -101 -16 -129 -21 -96
-22 -105 -12 -105 6 0 16 19 22 43 6 23 15 56 20 72 15 50 24 215 12 215 -6 0
-13 -4 -16 -8z"/>
<path d="M4423 2677 c-9 -14 13 -29 38 -25 12 1 24 8 26 14 5 14 -56 25 -64
11z"/>
<path d="M2517 2673 c-4 -3 -7 -44 -7 -90 0 -67 3 -83 15 -83 20 0 27 36 21
111 -2 35 -5 65 -5 67 -2 5 -18 2 -24 -5z"/>
<path d="M2576 2659 c-9 -27 -28 -259 -22 -274 3 -8 12 -15 20 -15 16 0 29
109 27 220 -1 62 -15 100 -25 69z"/>
<path d="M3852 2653 c3 -15 16 -19 66 -21 48 -2 62 0 62 11 0 16 -41 27 -97
27 -27 0 -34 -4 -31 -17z"/>
<path d="M2456 2652 c-2 -4 -5 -34 -5 -65 0 -43 4 -60 16 -64 8 -3 19 0 24 8
8 13 2 106 -8 122 -6 9 -21 9 -27 -1z"/>
<path d="M3680 2635 c0 -12 7 -15 25 -13 14 2 26 8 26 13 0 6 -12 11 -26 13
-18 2 -25 -1 -25 -13z"/>
<path d="M4842 2640 c-12 -5 -25 -18 -28 -27 -3 -10 -10 -26 -15 -35 -5 -10
-9 -25 -9 -33 0 -11 -11 -15 -39 -15 -22 0 -43 -4 -46 -10 -7 -11 -58 -14 -68
-3 -15 14 -62 11 -98 -6 -21 -10 -41 -15 -46 -10 -13 13 -112 14 -125 1 -15
-15 0 -32 30 -32 46 0 102 -12 102 -22 0 -5 -35 -6 -80 -2 -70 6 -80 5 -86
-10 -11 -30 9 -36 129 -43 64 -3 117 -8 117 -11 0 -3 -7 -10 -17 -17 -32 -24
-8 -45 54 -47 137 -3 213 -10 186 -15 -15 -3 -23 -12 -23 -24 0 -15 7 -19 33
-19 19 0 68 -3 110 -6 l77 -7 0 27 c0 26 -1 26 -75 26 -41 0 -75 4 -75 9 0 5
34 12 75 16 73 7 75 7 75 33 l0 27 -96 -2 c-70 -1 -97 2 -100 12 -3 7 -25 16
-50 20 -35 5 -44 10 -44 26 0 21 29 26 46 9 6 -6 63 -17 127 -23 l117 -13 0
57 c0 42 -5 60 -19 73 -11 10 -22 28 -25 42 -4 14 -22 32 -46 44 -21 11 -41
20 -42 19 -2 0 -13 -4 -26 -9z m44 -75 c4 -9 17 -14 36 -12 26 2 32 -3 40 -26
12 -34 3 -47 -16 -22 -8 11 -20 16 -29 12 -9 -3 -19 -2 -23 4 -3 5 -14 7 -24
4 -23 -7 -31 5 -23 33 6 25 31 29 39 7z m-276 -91 c0 -17 -22 -14 -28 4 -2 7
3 12 12 12 9 0 16 -7 16 -16z"/>
<path d="M4716 2621 c-3 -5 0 -14 8 -20 10 -8 16 -8 25 2 6 8 8 17 4 20 -9 10
-31 9 -37 -2z"/>
<path d="M4185 2590 c-11 -18 4 -28 40 -25 40 4 58 13 50 26 -8 12 -82 12 -90
-1z"/>
<path d="M3794 2579 c-10 -16 3 -22 60 -27 55 -4 81 9 49 26 -24 13 -101 13
-109 1z"/>
<path d="M4510 2580 c0 -5 14 -10 30 -10 17 0 33 0 37 -1 4 0 9 4 11 10 2 7
-12 11 -37 11 -23 0 -41 -4 -41 -10z"/>
<path d="M1165 2560 c-12 -19 2 -23 81 -27 67 -3 75 -2 72 13 -2 14 -17 18
-74 22 -47 2 -74 0 -79 -8z"/>
<path d="M4077 2530 c-14 -11 -28 -34 -32 -50 -6 -28 -10 -30 -51 -30 -25 0
-44 -5 -44 -11 0 -7 -20 -10 -52 -9 -74 3 -78 2 -78 -20 0 -21 -8 -24 -95 -24
-43 -1 -50 -4 -50 -21 0 -16 8 -21 44 -23 24 -2 47 0 52 5 5 5 65 5 135 0 92
-6 130 -5 140 4 18 15 1 39 -30 40 -11 1 -3 5 19 9 22 4 45 5 52 3 7 -3 19 -1
26 4 6 5 46 11 87 12 41 1 79 6 84 11 14 14 -4 30 -35 30 -18 0 -29 5 -29 14
0 8 -12 28 -26 45 -31 37 -78 42 -117 11z m58 -40 c-3 -5 -11 -10 -16 -10 -6
0 -7 5 -4 10 3 6 11 10 16 10 6 0 7 -4 4 -10z"/>
<path d="M2651 2512 c-23 -42 -2 -106 29 -87 15 9 12 68 -4 90 -13 18 -14 18
-25 -3z"/>
<path d="M3711 2507 c-15 -18 -4 -27 33 -27 30 0 65 15 56 23 -3 2 -21 7 -41
11 -25 4 -40 2 -48 -7z"/>
<path d="M2720 2481 c-11 -21 -14 -219 -4 -245 3 -9 12 -16 20 -16 11 0 14 27
14 140 0 136 -7 164 -30 121z"/>
<path d="M2336 2452 c-6 -10 19 -128 49 -227 13 -44 33 -123 45 -175 24 -108
54 -210 71 -243 24 -44 84 -117 96 -117 20 0 16 12 -27 79 -47 73 -74 147
-101 285 -12 55 -34 140 -50 187 -16 48 -29 98 -29 113 0 49 -40 121 -54 98z"/>
<path d="M4083 2343 c-20 -7 -15 -31 7 -38 19 -6 75 1 93 12 30 18 -60 41
-100 26z"/>
<path d="M4226 2343 c-17 -17 -2 -31 40 -38 44 -6 85 9 67 25 -11 10 -99 21
-107 13z"/>
<path d="M3117 2300 c-4 -16 -15 -49 -26 -72 -23 -53 -54 -190 -49 -221 4 -22
4 -22 15 3 6 14 21 70 34 125 12 55 29 114 36 132 15 37 17 63 4 63 -5 0 -11
-13 -14 -30z"/>
<path d="M3800 2320 c-25 -17 7 -30 72 -30 57 0 83 14 57 31 -19 12 -110 11
-129 -1z"/>
<path d="M3188 2285 c-8 -18 -8 -29 -1 -36 16 -16 33 -2 33 26 0 34 -18 40
-32 10z"/>
<path d="M3190 2190 c0 -23 25 -27 33 -6 7 16 -1 26 -20 26 -7 0 -13 -9 -13
-20z"/>
<path d="M3205 2126 c-11 -8 -16 -19 -12 -30 9 -22 24 -20 38 5 14 28 -1 43
-26 25z"/>
<path d="M2117 2063 c-4 -3 -7 -21 -7 -40 0 -42 26 -45 35 -3 9 39 -8 64 -28
43z"/>
<path d="M3204 2035 c-3 -8 -3 -19 1 -25 9 -14 45 6 45 25 0 19 -39 19 -46 0z"/>
<path d="M3210 1975 c-12 -14 -6 -35 10 -35 14 0 41 31 35 41 -9 14 -31 11
-45 -6z"/>
<path d="M3046 1953 c-3 -3 -6 -13 -6 -22 0 -8 -9 -33 -20 -55 -25 -53 -29
-89 -10 -93 11 -2 22 17 38 66 12 37 22 75 22 84 0 18 -14 30 -24 20z"/>
<path d="M3218 1904 c-29 -15 -35 -28 -19 -39 12 -7 91 33 91 46 0 14 -42 10
-72 -7z"/>
<path d="M2172 1884 c4 -24 32 -39 54 -30 18 7 18 9 -5 27 -29 23 -54 25 -49
3z"/>
<path d="M2210 1776 c0 -15 37 -32 47 -22 3 3 3 12 0 21 -8 19 -47 20 -47 1z"/>
<path d="M3124 1756 c-8 -21 3 -49 16 -41 5 3 10 15 10 25 0 25 -18 36 -26 16z"/>
<path d="M3128 1674 c-40 -21 -35 -36 10 -28 46 8 52 12 52 30 0 18 -27 17
-62 -2z"/>
<path d="M2222 1655 c3 -18 17 -29 52 -39 14 -5 16 -9 6 -20 -17 -21 24 -45
90 -53 50 -6 52 -5 45 15 -7 25 -6 26 30 12 22 -9 26 -7 23 7 -2 11 -36 27
-103 50 -143 48 -148 49 -143 28z"/>
<path d="M2933 1610 c-26 -11 -30 -28 -8 -36 18 -7 68 23 60 36 -7 12 -22 12
-52 0z"/>
<path d="M3085 1601 c-54 -9 -69 -19 -55 -36 9 -11 17 -11 36 -3 27 13 47 2
24 -12 -19 -12 -113 -40 -134 -40 -9 0 -53 -11 -99 -24 -93 -27 -139 -32 -179
-21 -37 10 -78 -1 -78 -21 0 -12 7 -15 27 -11 15 3 37 0 48 -5 30 -17 86 -11
162 16 37 14 97 30 133 36 58 11 156 48 186 72 6 4 9 19 6 33 -5 26 -9 27 -77
16z"/>
<path d="M2676 1581 c-11 -17 20 -30 62 -24 62 8 56 33 -7 33 -28 0 -52 -4
-55 -9z"/>
<path d="M2828 1542 c-42 -10 -80 -21 -85 -25 -17 -18 22 -24 75 -12 74 16 92
24 92 41 0 8 -1 14 -2 13 -2 0 -38 -8 -80 -17z"/>
<path d="M2467 1484 c-11 -12 13 -44 33 -44 26 0 26 26 1 40 -23 12 -26 12
-34 4z"/>
<path d="M4682 977 c-39 -14 -52 -32 -52 -69 0 -24 -5 -27 -45 -33 -54 -9 -78
-25 -70 -47 8 -20 68 -50 92 -46 12 2 19 -4 21 -19 3 -21 -1 -23 -36 -23 -44
0 -102 -17 -102 -30 0 -14 42 -40 65 -41 11 0 -10 -7 -47 -14 -77 -16 -88 -21
-88 -41 0 -18 14 -18 30 1 9 11 34 15 100 15 l87 0 2 -137 c1 -131 9 -169 31
-147 5 5 11 70 12 144 l3 135 118 6 c119 7 145 15 134 42 -7 19 -52 27 -161
28 -104 1 -93 17 12 18 46 1 62 4 59 14 -3 8 -29 12 -86 12 -77 -1 -82 1 -79
19 2 13 11 21 23 22 11 0 59 1 108 2 70 2 87 5 87 17 0 12 -19 15 -110 15 -86
0 -110 3 -110 13 0 11 16 13 75 9 65 -4 75 -2 75 12 0 12 -10 16 -44 16 -74 0
-106 10 -106 33 0 16 3 18 12 9 17 -17 113 -15 148 3 35 18 39 49 11 65 -26
13 -128 12 -169 -3z m138 -27 c0 -5 -6 -10 -12 -11 -7 0 -39 -3 -70 -5 -65 -6
-75 1 -25 15 44 13 107 13 107 1z m-190 -115 c0 -10 -10 -15 -29 -15 -39 0
-49 17 -14 23 16 2 31 5 36 6 4 0 7 -6 7 -14z m-12 -132 c-10 -2 -28 -2 -40 0
-13 2 -5 4 17 4 22 1 32 -1 23 -4z m262 -39 c0 -2 -24 -3 -52 -3 -52 2 -53 2
-13 8 37 6 65 4 65 -5z m-143 0 c-3 -3 -12 -4 -19 -1 -8 3 -5 6 6 6 11 1 17
-2 13 -5z"/>
<path d="M4734 589 c-8 -13 24 -41 41 -36 5 2 10 12 10 23 0 22 -39 32 -51 13z"/>
</g>
</svg>
