<?xml version="1.0" standalone="no"?>
<!DOCTYPE svg PUBLIC "-//W3C//DTD SVG 20010904//EN"
 "http://www.w3.org/TR/2001/REC-SVG-20010904/DTD/svg10.dtd">
<svg version="1.0" xmlns="http://www.w3.org/2000/svg"
 width="500.000000pt" height="878.000000pt" viewBox="0 0 500.000000 878.000000"
 preserveAspectRatio="xMidYMid meet">
<metadata>
Created by potrace 1.15, written by Peter Selinger 2001-2017
</metadata>
<g transform="translate(0.000000,878.000000) scale(0.100000,-0.100000)"
fill="#000000" stroke="none">
<path d="M1292 8751 c-7 -16 -26 -34 -41 -41 -37 -15 -81 -70 -128 -160 -43
-83 -45 -113 -12 -194 34 -84 57 -98 142 -88 37 5 67 7 67 5 0 -7 -53 -76 -76
-100 -28 -30 -104 -179 -104 -204 0 -11 -7 -34 -16 -50 -12 -24 -16 -66 -16
-187 -1 -156 -1 -157 33 -237 34 -81 87 -177 101 -183 4 -2 8 -10 8 -18 0 -7
16 -38 35 -68 66 -104 304 -246 412 -246 29 0 36 -5 57 -47 13 -27 39 -77 57
-113 39 -77 47 -146 29 -258 -21 -129 -79 -240 -143 -273 -22 -12 -43 -32 -48
-47 -6 -15 -28 -39 -49 -54 l-40 -28 -23 38 c-13 20 -34 57 -47 82 -13 25 -33
59 -46 75 -20 27 -21 32 -8 49 8 11 14 39 14 62 0 34 -4 44 -20 49 -13 4 -20
15 -20 31 0 30 -17 66 -37 77 -10 6 -10 13 -3 27 6 11 8 30 5 43 -5 20 3 27
74 62 52 25 78 42 71 49 -9 9 -84 -7 -105 -24 -21 -17 -194 -104 -260 -132
-38 -16 -92 -44 -120 -62 -74 -50 -199 -131 -207 -134 -4 -2 -13 9 -20 25 -7
15 -20 40 -31 56 -27 40 -19 72 18 73 17 1 59 13 94 28 36 14 70 26 77 26 6 0
17 7 25 16 16 20 123 74 145 74 19 0 97 46 159 95 22 17 51 36 65 43 14 6 35
19 47 28 21 15 23 15 36 -18 17 -40 62 -79 83 -71 8 3 14 6 14 7 0 0 -13 33
-28 71 -28 68 -30 70 -67 73 -29 3 -45 -3 -74 -26 -45 -36 -118 -82 -130 -82
-5 0 -22 24 -39 53 -16 28 -47 72 -69 97 -21 25 -56 71 -77 103 -20 32 -47 66
-58 76 -18 17 -19 24 -9 54 6 19 10 40 7 48 -2 8 -7 26 -10 42 -8 36 -79 87
-121 87 -88 0 -133 -55 -119 -149 9 -60 18 -77 48 -85 22 -5 30 -21 61 -119
19 -61 46 -141 59 -177 13 -36 30 -85 37 -110 7 -25 17 -51 23 -58 7 -10 5
-16 -5 -23 -32 -22 -91 -50 -156 -74 -68 -26 -109 -60 -94 -80 4 -5 16 -30 25
-55 18 -45 43 -70 84 -82 19 -5 34 3 75 41 29 25 66 52 83 60 29 11 33 10 61
-16 17 -15 38 -43 47 -60 9 -18 23 -33 31 -33 8 0 21 -15 28 -32 8 -18 21 -39
30 -46 9 -8 28 -45 43 -83 14 -39 37 -83 51 -97 14 -15 54 -85 88 -155 35 -71
77 -149 94 -175 32 -50 45 -122 23 -129 -7 -3 -10 1 -6 11 20 53 -140 -32
-228 -122 -51 -50 -81 -93 -122 -173 -30 -59 -58 -104 -61 -100 -4 3 -34 6
-67 6 -53 0 -62 3 -84 28 -13 15 -24 34 -24 41 0 7 -7 27 -15 44 -16 30 -17
31 -88 29 -93 -1 -134 21 -159 86 -12 33 -13 48 -5 56 6 6 11 23 12 38 0 24 5
28 44 36 83 17 183 101 203 172 6 22 22 50 34 62 13 13 27 30 32 39 8 15 14
15 63 -2 97 -34 304 -20 315 21 2 6 -2 17 -9 27 -12 14 -24 15 -123 5 -111
-11 -128 -9 -270 29 -17 5 -22 0 -27 -23 -4 -17 -17 -34 -36 -45 -21 -11 -33
-29 -41 -56 -6 -26 -27 -57 -57 -86 -43 -43 -68 -55 -146 -71 -15 -3 -37 -17
-49 -30 -29 -34 -111 -59 -185 -58 -53 1 -68 6 -117 38 -31 20 -70 55 -88 78
-17 23 -47 57 -65 76 -31 32 -36 34 -71 25 -33 -8 -37 -13 -40 -45 -3 -35 -2
-36 28 -31 27 4 38 -2 71 -37 22 -23 59 -54 82 -68 23 -15 73 -47 110 -71 l68
-44 82 4 c45 3 90 8 100 12 15 7 17 3 17 -31 0 -26 -6 -46 -18 -57 -26 -23
-52 -123 -92 -351 -98 -562 -126 -720 -144 -810 -34 -168 -76 -404 -86 -490
-30 -240 -50 -365 -75 -480 -16 -74 -30 -287 -17 -265 15 24 80 361 106 550 9
63 23 162 31 220 16 118 64 364 95 486 11 45 20 94 20 109 0 15 20 129 44 253
24 125 54 287 66 360 30 186 67 344 84 361 13 12 19 10 46 -13 36 -30 53 -35
135 -38 56 -3 60 -5 63 -28 6 -49 26 -82 63 -106 47 -29 73 -30 132 -5 25 11
47 18 50 15 2 -2 -4 -28 -14 -57 -9 -28 -19 -74 -22 -102 -3 -27 -10 -63 -16
-78 -22 -57 -13 -162 29 -327 12 -47 32 -140 44 -208 26 -140 70 -238 220
-491 95 -158 129 -203 256 -336 47 -49 117 -123 156 -164 70 -75 171 -174 211
-208 l22 -18 -54 -92 c-30 -51 -92 -150 -138 -220 -46 -71 -106 -164 -133
-207 -27 -44 -70 -113 -96 -155 -52 -84 -226 -431 -252 -501 -29 -81 -35 -137
-17 -154 25 -22 53 -24 91 -5 64 32 124 107 323 401 28 42 52 76 53 75 1 -1
-13 -63 -31 -137 -28 -115 -58 -270 -80 -410 -12 -78 -87 -447 -95 -470 -8
-23 -43 -174 -72 -305 -6 -27 -26 -105 -44 -172 -19 -67 -37 -141 -40 -166 -8
-57 11 -72 25 -20 44 167 181 739 191 798 5 28 18 93 30 145 11 52 25 127 30
165 29 209 76 410 135 575 7 19 16 55 20 80 9 58 58 156 98 198 17 17 37 44
43 60 23 52 15 -8 -20 -153 -40 -160 -70 -312 -86 -435 -6 -47 -16 -105 -21
-130 -12 -49 -27 -133 -65 -345 -48 -271 -65 -371 -79 -470 -7 -55 -27 -172
-44 -260 -16 -88 -35 -189 -41 -225 -6 -36 -27 -137 -47 -225 -51 -228 -52
-233 -38 -251 10 -15 15 -5 33 63 12 43 22 89 22 102 0 12 11 70 24 129 13 59
28 141 31 182 4 41 13 89 20 105 7 17 15 53 19 80 4 28 15 97 26 155 10 58 28
170 40 250 22 149 37 233 90 520 37 197 55 306 69 420 6 47 16 99 21 115 5 17
26 93 46 170 19 77 42 165 50 196 8 30 14 71 14 90 1 23 16 57 45 104 25 39
57 91 72 117 55 95 55 67 -2 -217 -43 -213 -51 -255 -70 -400 -8 -60 -19 -146
-26 -190 -15 -113 -16 -122 -24 -200 -18 -199 -55 -439 -107 -690 -45 -214
-55 -285 -41 -285 11 0 24 52 53 210 11 63 25 133 30 155 15 64 52 317 75 505
43 349 66 507 120 805 40 224 65 325 80 325 3 0 33 -19 66 -43 33 -23 75 -50
92 -60 37 -20 34 28 33 -447 0 -499 5 -779 15 -920 6 -74 11 -144 11 -155 1
-60 30 -182 48 -199 16 -17 22 -18 50 -6 69 29 80 82 85 420 2 140 7 334 11
430 4 96 6 304 5 461 l-2 286 26 17 c14 9 62 46 106 82 45 35 84 64 88 64 12
0 187 -272 238 -370 27 -52 89 -156 138 -230 49 -74 109 -173 133 -220 45 -85
104 -171 138 -202 50 -44 102 -40 129 11 18 36 14 60 -25 146 -15 33 -30 72
-33 87 -6 23 -32 70 -111 201 -10 18 -44 79 -74 137 -30 58 -78 146 -107 195
-28 50 -75 134 -104 188 -46 86 -51 102 -42 125 9 25 18 58 35 135 4 15 2 27
-3 27 -10 0 -34 -68 -46 -129 l-7 -34 -31 53 c-30 52 -30 53 -13 85 10 18 50
69 89 112 141 158 171 196 233 296 34 55 78 119 99 141 39 44 83 115 147 238
22 43 44 80 49 84 9 5 36 60 88 180 77 178 120 585 86 813 -22 147 -30 180
-77 301 -40 103 -43 107 -152 218 -61 63 -119 117 -128 120 -15 6 -12 17 26
93 24 47 58 108 77 135 18 27 51 83 73 124 21 41 56 94 77 117 22 24 39 50 39
59 0 10 7 26 17 36 9 10 21 26 27 37 6 10 26 37 44 61 17 24 32 54 32 67 0 13
6 23 14 23 7 0 19 7 26 15 19 22 36 19 93 -20 94 -64 93 -62 74 -83 -9 -10
-17 -22 -17 -25 0 -4 -32 -78 -71 -165 -79 -173 -158 -378 -166 -429 -4 -25
-2 -33 9 -33 9 0 24 29 40 78 49 145 105 297 122 327 9 17 38 77 65 135 46
102 50 106 89 118 47 14 50 18 74 87 25 68 24 72 -23 96 l-42 21 40 36 c22 21
47 48 56 62 12 22 84 57 94 47 1 -2 -6 -27 -17 -55 -23 -60 -25 -102 -8 -148
10 -28 9 -36 -4 -51 -34 -37 -102 -219 -86 -229 12 -8 10 -11 51 90 20 49 45
97 56 108 20 18 21 17 53 -11 18 -15 43 -33 55 -39 14 -8 20 -18 16 -31 -2
-10 2 -32 11 -49 9 -17 16 -35 16 -40 0 -5 -33 -12 -72 -15 -72 -7 -145 -28
-203 -60 -16 -9 -41 -22 -55 -28 -30 -14 -126 -122 -151 -170 -28 -54 -43
-135 -30 -171 10 -27 8 -33 -14 -54 -29 -26 -32 -42 -10 -50 22 -9 18 -23 -10
-36 -59 -27 -83 -192 -41 -280 25 -53 90 -123 126 -138 21 -9 39 -28 54 -59
66 -129 293 -233 491 -224 80 4 186 31 221 58 10 8 27 15 36 15 10 0 45 28 78
62 54 55 60 65 60 102 -1 41 -1 41 -18 19 -9 -12 -28 -38 -42 -57 -34 -48 -93
-89 -118 -82 -11 4 -24 0 -32 -9 -7 -8 -20 -15 -29 -15 -9 0 -22 -5 -27 -10
-6 -6 -50 -15 -98 -20 -71 -9 -98 -7 -149 6 -81 21 -172 66 -241 121 -47 37
-56 50 -56 76 0 42 -7 50 -58 67 -52 16 -106 73 -122 128 -7 22 -11 78 -9 131
4 88 5 94 32 116 26 20 28 24 15 44 -12 20 -10 24 11 42 20 17 22 25 17 63 -7
46 7 121 31 170 13 26 44 61 119 137 43 44 144 79 225 79 44 0 81 6 100 16 29
15 30 17 22 57 -4 23 -8 61 -8 84 0 38 -2 42 -20 37 -28 -7 -76 12 -94 39 -41
57 -53 174 -25 234 10 19 39 53 65 76 27 23 49 46 49 51 0 5 -14 6 -32 2 -31
-6 -31 -6 -13 14 10 11 47 29 83 40 122 38 276 155 322 246 8 16 24 43 36 59
38 53 64 113 64 150 0 20 -3 34 -8 31 -4 -2 -23 -35 -42 -73 -19 -37 -37 -70
-41 -73 -16 -15 -59 -79 -59 -88 0 -12 -13 -30 -67 -92 -40 -46 -179 -118
-287 -150 -64 -19 -80 -28 -88 -49 -24 -65 -99 -116 -155 -105 -36 7 -36 7
-30 -23 5 -26 0 -37 -32 -72 -43 -47 -56 -49 -111 -21 -22 11 -46 20 -54 20
-33 0 -28 40 12 100 51 76 91 180 106 278 10 67 15 77 33 80 30 4 93 77 93
106 0 74 -60 132 -147 142 -58 7 -87 -5 -107 -44 -25 -49 -29 -90 -12 -123 19
-39 19 -39 3 -39 -22 0 -55 -41 -158 -197 -56 -84 -105 -153 -110 -153 -18 0
-94 42 -144 80 -27 20 -62 45 -77 54 l-27 17 -35 -48 c-34 -47 -53 -104 -41
-123 3 -6 16 -10 28 -10 12 0 59 -19 105 -42 80 -41 82 -43 82 -79 0 -27 -5
-38 -18 -41 -11 -3 -26 -30 -41 -74 -13 -38 -30 -76 -37 -85 -8 -8 -14 -32
-14 -52 0 -37 -7 -52 -109 -235 -29 -52 -61 -117 -72 -145 -10 -29 -41 -92
-68 -142 -36 -68 -53 -90 -67 -88 -108 12 -264 -8 -362 -45 -73 -28 -187 -97
-238 -144 l-42 -39 -7 31 c-4 16 -4 74 -1 128 4 53 3 180 -2 281 -4 101 -4
223 0 270 4 47 8 131 10 186 2 81 6 100 18 100 9 0 14 -7 12 -17 -3 -21 71
-147 107 -181 55 -52 146 -89 219 -88 21 0 84 4 142 9 58 5 118 6 133 1 28 -8
57 -3 57 10 0 3 -38 15 -83 25 -80 17 -86 17 -117 1 -26 -14 -51 -16 -111 -13
-83 5 -135 29 -187 87 -32 36 -82 139 -82 170 0 45 -13 54 -63 49 l-46 -5 1
119 c1 65 5 121 10 124 18 11 28 55 18 75 -8 14 -7 26 4 47 8 15 12 40 9 55
-5 28 21 97 37 97 17 0 195 -62 208 -73 10 -8 20 -4 40 16 24 24 27 36 30 106
6 124 14 120 -189 113 l-172 -5 9 29 c20 64 -11 310 -48 378 -7 14 -4 24 16
45 55 57 59 110 12 157 -46 46 -61 43 -36 -7 25 -48 20 -85 -17 -129 -30 -36
-58 -38 -104 -7 -31 21 -34 27 -34 75 1 42 6 57 28 80 15 15 27 31 27 34 0 16
-43 -8 -70 -39 -40 -45 -43 -117 -5 -161 23 -27 24 -34 15 -83 -16 -91 -30
-200 -36 -286 -7 -83 -7 -83 -35 -83 -15 0 -71 7 -124 16 -53 9 -98 14 -101
11 -20 -20 -22 -200 -2 -224 8 -10 22 -13 42 -9 48 8 118 23 146 30 21 5 28 1
43 -25 9 -17 17 -41 17 -53 0 -12 7 -32 16 -44 14 -21 14 -22 -5 -22 -25 0
-34 -14 -23 -37 18 -34 32 -89 32 -121 0 -32 -1 -32 -23 -17 -22 14 -28 14
-68 -1 -53 -19 -146 -13 -187 13 -57 36 -82 68 -102 135 -22 73 -25 75 -107
77 -113 4 -282 54 -353 105 -28 20 -54 36 -59 36 -6 0 -24 17 -40 38 -130 160
-140 175 -166 250 -15 42 -39 102 -52 132 -19 43 -24 72 -24 140 -1 47 2 99 6
115 15 65 63 213 80 246 16 31 98 136 118 150 16 12 37 63 29 71 -4 4 -24 3
-45 -3 -74 -20 -173 33 -197 106 -10 30 -8 42 16 97 49 111 96 171 159 200 11
5 30 25 42 44 l22 34 -32 0 c-26 0 -35 -6 -45 -29z m1196 -1081 c1 -19 10 -62
18 -95 10 -37 17 -104 18 -175 l1 -115 -38 1 c-22 1 -43 8 -50 17 -7 9 -23 21
-37 26 -25 10 -25 10 6 10 46 1 49 13 9 37 l-36 21 31 6 c39 8 38 24 -2 42
l-33 13 27 11 c29 11 30 41 2 41 -22 0 -17 31 6 37 23 6 27 31 5 39 -20 8 -19
23 2 46 13 14 14 21 5 30 -18 18 -15 28 11 38 38 15 52 8 55 -30z m-1550 -304
c24 -24 20 -81 -7 -110 -36 -38 -69 -39 -113 -3 -47 37 -51 75 -12 114 22 22
32 25 71 20 25 -2 52 -12 61 -21z m3238 -41 c42 -17 71 -73 54 -104 -10 -19
-108 -81 -127 -81 -13 0 -43 89 -43 128 0 71 38 90 116 57z m-1942 -75 c38
-14 547 -11 595 5 16 5 19 -3 25 -66 3 -40 4 -74 1 -77 -2 -3 -24 2 -47 11
-84 30 -200 42 -398 42 -142 -1 -212 -5 -257 -17 -34 -8 -65 -13 -68 -10 -3 3
-5 27 -5 54 0 46 1 48 28 48 15 0 34 5 42 10 19 12 52 13 84 0z m-1252 -102
c48 -60 51 -67 37 -84 -16 -19 -4 -30 16 -14 12 10 16 9 22 -6 3 -10 2 -19 -4
-21 -21 -7 -48 -32 -42 -38 4 -3 23 1 43 9 l36 15 25 -37 c29 -42 31 -58 10
-66 -8 -3 -15 -12 -15 -21 0 -12 4 -14 19 -5 35 18 36 -10 2 -37 -33 -26 -34
-51 -1 -33 49 26 28 6 -30 -29 -77 -47 -82 -44 -100 49 -6 36 -18 72 -25 80
-24 28 -37 87 -25 110 10 18 8 22 -9 27 -23 6 -27 18 -11 28 6 3 10 13 10 21
0 11 -6 13 -20 9 -24 -8 -26 2 -3 27 16 18 16 19 -5 25 -37 9 -23 27 24 32 7
0 27 -18 46 -41z m1573 -43 c0 -14 -6 -19 -20 -17 -11 2 -59 6 -107 9 -49 3
-88 9 -88 14 0 4 39 10 88 12 126 5 127 5 127 -18z m1522 4 c12 -12 -4 -111
-32 -194 -18 -55 -85 -194 -96 -201 -4 -2 -27 4 -51 15 -24 10 -56 25 -73 32
-29 12 -29 13 -7 17 13 2 32 -4 41 -12 18 -16 41 -21 41 -9 0 14 -34 43 -52
43 -10 0 -18 6 -18 13 0 23 12 27 41 12 45 -24 57 -17 21 11 -37 30 -33 54 5
29 32 -22 43 -11 15 15 -31 29 -27 40 11 34 26 -4 29 -3 15 6 -10 6 -18 19
-18 29 0 20 55 101 77 114 7 4 13 16 13 26 0 10 3 21 7 24 10 11 48 8 60 -4z
m-1542 -105 c0 -46 -2 -49 -25 -47 -14 1 -54 3 -89 5 -60 4 -65 6 -66 29 -1
13 2 34 8 46 9 21 15 22 91 19 l81 -3 0 -49z m-666 -66 c-2 -50 15 -83 73
-142 38 -38 66 -58 98 -67 68 -19 70 -22 54 -82 -7 -29 -30 -122 -50 -207 -20
-85 -47 -193 -60 -240 -12 -47 -32 -119 -43 -160 -11 -42 -23 -83 -27 -93 -4
-12 -1 -17 10 -17 28 0 34 17 111 350 57 247 94 390 106 412 5 10 16 18 25 18
8 0 25 6 37 14 12 7 42 13 66 12 40 -2 46 -5 53 -32 4 -16 8 -238 8 -493 0
-414 -5 -571 -17 -571 -2 0 -32 18 -66 39 -67 43 -115 61 -217 85 -65 14 -233
25 -259 16 -9 -3 -20 7 -29 25 -9 17 -24 46 -34 65 -55 103 -118 231 -118 239
0 5 17 17 38 26 20 10 74 55 119 100 102 102 146 183 162 300 20 142 5 215
-69 345 -43 77 -42 90 7 90 19 0 22 -5 22 -32z m655 -24 c29 -28 8 -36 -77
-28 -45 3 -84 8 -86 10 -2 2 2 10 9 19 18 21 133 21 154 -1z m1034 -43 c38
-31 90 -59 277 -154 181 -91 345 -167 360 -167 24 0 27 -19 6 -46 -12 -15 -21
-33 -21 -40 0 -24 -27 -16 -97 30 -37 24 -86 52 -108 64 -22 11 -64 36 -93 55
-29 19 -103 56 -165 82 -62 27 -128 58 -147 70 -19 12 -50 27 -67 34 -18 8
-33 17 -33 22 0 8 43 78 48 79 2 0 20 -13 40 -29z m-1131 -246 c2 -115 4 -226
5 -245 1 -19 -2 -98 -6 -175 -10 -170 -8 -417 4 -505 5 -36 8 -137 7 -225 -2
-164 -1 -251 5 -557 l3 -177 -30 -24 c-16 -13 -35 -26 -42 -30 -9 -6 -11 191
-7 835 2 514 0 924 -7 1051 -6 114 -7 221 -4 238 6 27 10 30 38 27 l32 -3 2
-210z m93 188 c-1 -16 1 -472 4 -1015 3 -640 1 -990 -6 -994 -5 -3 -15 2 -23
12 -10 14 -13 88 -14 324 0 168 -6 395 -12 505 -11 206 2 1141 16 1178 11 27
35 21 35 -10z m-1200 -147 c0 -7 -33 -28 -72 -46 -40 -18 -92 -42 -115 -52
-23 -11 -48 -18 -55 -16 -18 6 68 61 137 87 33 12 67 26 75 31 22 13 30 12 30
-4z m2438 -26 c64 -35 130 -75 137 -82 4 -4 5 -14 2 -23 -6 -13 -14 -11 -59
13 -29 16 -74 37 -100 47 -39 14 -48 22 -48 41 0 30 19 31 68 4z m-2408 -76
c5 -21 6 -42 4 -46 -3 -5 -33 -23 -67 -40 -75 -38 -142 -46 -157 -18 -20 37
-11 51 53 81 34 17 80 42 102 55 45 26 53 22 65 -32z m2424 -22 c38 -21 71
-42 73 -48 2 -6 -12 -30 -31 -53 -19 -22 -36 -46 -38 -51 -3 -9 -178 64 -178
74 0 2 7 21 16 42 9 22 20 50 25 63 12 29 37 24 133 -27z m-2377 -77 c6 -18
-23 -55 -44 -55 -8 0 -39 -11 -69 -25 -30 -14 -59 -25 -64 -25 -21 0 -8 19 33
45 23 16 58 39 77 52 41 27 58 29 67 8z m2280 -76 c40 -19 73 -40 73 -46 0
-22 -33 -14 -90 22 -30 19 -60 35 -67 35 -7 0 -13 7 -13 16 0 18 -1 19 97 -27z
m-2262 -56 c10 -20 31 -59 48 -87 16 -28 88 -166 158 -306 71 -140 170 -334
220 -430 146 -282 249 -484 249 -492 0 -4 -5 -19 -10 -34 l-11 -28 -16 30
c-60 113 -132 264 -137 289 -7 27 -25 59 -77 137 -11 15 -32 60 -48 100 -38
93 -133 270 -200 373 -29 44 -71 118 -93 165 -117 250 -128 275 -128 299 0 34
26 24 45 -16z m2179 31 c23 -9 20 -32 -11 -84 -43 -72 -148 -270 -259 -488
-58 -112 -116 -220 -129 -240 -14 -20 -25 -41 -25 -46 0 -5 -17 -36 -39 -70
-21 -34 -73 -131 -116 -216 -42 -85 -81 -160 -87 -167 -5 -6 -11 -24 -12 -40
-3 -23 -8 -29 -35 -31 -33 -3 -53 20 -35 43 59 78 152 243 263 470 105 215
215 444 254 530 22 50 46 99 53 110 18 27 79 140 105 193 21 41 37 50 73 36z
m-2253 -112 c19 -42 50 -111 69 -152 45 -100 117 -238 145 -275 12 -16 57 -97
100 -180 43 -82 92 -170 109 -195 62 -87 236 -427 236 -461 0 -11 5 -29 10
-40 9 -16 15 -17 31 -8 20 10 20 9 5 -20 -9 -16 -20 -32 -25 -35 -10 -7 -73
89 -119 181 -17 35 -44 82 -60 105 -16 24 -68 121 -115 215 -84 169 -142 278
-157 298 -10 13 -91 167 -198 375 -46 91 -95 184 -108 208 l-25 42 23 10 c38
15 42 12 79 -68z m2351 47 c29 -21 29 -21 10 -43 -11 -11 -42 -61 -69 -111
-28 -49 -67 -119 -88 -155 -35 -60 -142 -267 -422 -822 l-105 -208 -44 0 c-50
0 -51 3 -26 45 40 66 146 269 202 390 24 50 72 140 108 200 59 100 159 288
250 470 19 38 55 101 79 139 25 37 48 79 53 92 12 29 14 29 52 3z m-1602
-3146 c0 -26 -174 -326 -240 -414 -26 -35 -62 -91 -80 -123 -17 -33 -49 -85
-69 -115 -21 -31 -51 -78 -66 -105 -16 -28 -50 -76 -75 -108 -25 -32 -63 -85
-84 -118 -48 -74 -142 -173 -159 -168 -6 3 -13 14 -15 26 -4 25 42 133 75 178
13 17 23 35 23 41 0 18 132 278 164 323 17 25 47 72 65 105 19 33 37 62 41 65
4 3 13 16 20 30 7 13 61 97 119 185 58 88 108 165 110 170 2 6 19 34 38 62
l34 52 49 -35 c28 -20 50 -43 50 -51z m963 -95 c30 -62 75 -147 100 -189 24
-41 48 -86 52 -100 4 -13 15 -35 25 -49 10 -14 59 -106 110 -205 51 -99 110
-210 131 -247 20 -37 41 -77 45 -90 4 -13 15 -39 25 -58 25 -46 25 -90 1 -90
-36 0 -162 175 -162 223 0 8 -7 20 -16 28 -9 7 -23 27 -32 45 -40 77 -88 150
-109 167 -13 10 -23 26 -23 35 0 9 -9 31 -21 47 -11 17 -35 63 -54 102 -19 40
-52 99 -73 130 -33 51 -66 117 -101 206 -6 15 -17 27 -26 27 -29 0 -15 43 28
86 23 23 43 43 44 43 1 1 26 -50 56 -111z m-558 -137 l50 -19 0 -204 c0 -111
-3 -456 -7 -765 -6 -507 -8 -564 -24 -588 -9 -14 -21 -22 -25 -18 -11 11 -26
123 -35 248 -3 55 -8 125 -10 155 -8 113 -9 1210 -1 1210 1 0 25 -9 52 -19z"/>
<path d="M1060 6945 c0 -10 7 -15 18 -13 21 4 19 22 -2 26 -10 2 -16 -3 -16
-13z"/>
<path d="M1921 6282 c-6 -11 -24 -87 -41 -169 -16 -82 -37 -171 -45 -199 -18
-61 -19 -74 -1 -74 23 0 48 83 91 309 17 85 23 137 16 144 -6 6 -13 2 -20 -11z"/>
<path d="M2092 6217 c-20 -24 -113 -410 -101 -422 15 -15 24 6 44 99 9 44 27
113 39 151 35 108 48 167 38 177 -5 5 -14 3 -20 -5z"/>
<path d="M2489 8616 c-3 -3 -66 -9 -140 -12 -138 -6 -168 -15 -156 -48 5 -12
18 -16 49 -14 l43 3 3 -79 c3 -84 -2 -96 -45 -96 -21 0 -26 -9 -22 -37 1 -5 6
-6 12 -4 22 7 123 13 275 17 84 2 157 6 163 9 5 4 9 15 9 26 0 14 -7 19 -25
19 -32 0 -48 31 -49 100 l-1 55 39 0 c31 0 40 4 47 22 5 15 4 25 -4 30 -15 9
-190 17 -198 9z m56 -131 l0 -86 -30 3 c-16 2 -30 9 -29 16 1 6 2 41 3 76 1
65 4 70 46 75 6 1 10 -33 10 -84z m-131 29 c11 -83 8 -100 -19 -112 -14 -7
-30 -12 -35 -12 -6 0 -10 34 -10 75 0 69 2 76 23 85 34 13 34 13 41 -36z"/>
<path d="M4032 6402 c-8 -15 -40 -94 -72 -177 -75 -193 -125 -318 -193 -483
-64 -153 -70 -177 -43 -177 13 0 23 14 36 55 10 30 34 93 55 140 20 47 49 119
65 160 16 41 43 111 60 155 17 44 42 109 55 145 13 36 37 93 54 128 17 35 29
67 26 73 -11 17 -30 9 -43 -19z"/>
<path d="M4362 6387 c-18 -21 -19 -62 -2 -62 19 0 38 51 24 65 -8 8 -14 7 -22
-3z"/>
<path d="M3368 6327 c-65 -22 -72 -32 -29 -42 35 -7 131 30 131 51 0 18 -32
16 -102 -9z"/>
<path d="M3855 6245 c-14 -30 -27 -67 -31 -82 -4 -15 -10 -32 -14 -38 -4 -5
-13 -28 -20 -50 -7 -22 -18 -51 -26 -65 -23 -44 -104 -279 -104 -301 0 -17 31
-9 36 9 3 9 16 44 28 77 13 33 33 87 45 120 13 33 31 78 41 100 10 22 30 76
45 120 15 44 34 93 42 108 15 30 12 57 -7 57 -6 0 -22 -25 -35 -55z"/>
<path d="M3053 6198 c-15 -17 -93 -254 -93 -281 0 -39 18 -4 49 95 18 57 39
119 48 140 17 41 15 69 -4 46z"/>
<path d="M2842 6173 c-6 -11 -24 -73 -41 -139 -17 -65 -44 -156 -61 -202 -35
-96 -34 -92 -16 -92 16 0 55 101 91 237 14 54 33 120 41 146 11 33 13 52 6 59
-7 7 -13 4 -20 -9z"/>
<path d="M2874 5983 c-24 -56 -30 -107 -13 -101 7 2 16 18 20 34 3 16 13 43
22 60 16 30 14 44 -5 44 -5 0 -16 -17 -24 -37z"/>
<path d="M626 5338 c-3 -13 -8 -41 -11 -63 -3 -22 -15 -83 -25 -135 -11 -52
-34 -171 -51 -265 -16 -93 -46 -246 -65 -340 -53 -254 -62 -310 -69 -427 -6
-92 -5 -108 8 -108 10 0 16 15 20 48 3 26 11 79 17 117 7 39 13 86 15 105 2
19 12 71 23 115 11 44 28 125 37 180 9 55 20 114 26 130 5 17 11 44 13 60 7
47 35 214 47 275 6 30 22 99 36 153 34 130 35 171 6 175 -17 2 -24 -3 -27 -20z"/>
<path d="M356 5288 c-8 -29 -35 -156 -41 -193 -3 -22 -17 -98 -30 -170 -13
-71 -31 -179 -40 -240 -18 -121 -27 -174 -76 -440 -35 -194 -41 -266 -22 -272
7 -3 14 6 17 19 2 13 9 52 16 88 6 36 16 85 20 110 5 25 11 59 14 76 3 17 13
66 22 110 17 87 35 181 58 319 9 50 25 135 36 190 32 153 48 250 56 337 6 69
5 78 -10 78 -9 0 -18 -6 -20 -12z"/>
<path d="M941 5169 c-6 -18 -11 -45 -11 -60 0 -16 -4 -48 -10 -71 -18 -80 -47
-247 -81 -458 -6 -36 -15 -92 -20 -125 -9 -56 -24 -149 -49 -305 -18 -119 -29
-174 -70 -370 -63 -300 -97 -473 -120 -615 -12 -71 -30 -173 -40 -225 -23
-118 -30 -232 -13 -237 17 -6 22 7 33 98 5 46 17 122 25 169 9 47 18 101 20
120 2 19 13 87 24 150 11 63 27 156 36 205 9 50 27 142 41 205 14 63 32 144
39 180 24 111 69 371 125 720 11 70 43 222 65 310 7 30 17 80 20 110 7 61 21
113 38 148 13 28 -1 75 -25 80 -10 2 -20 -8 -27 -29z"/>
<path d="M4857 5033 c-2 -5 -14 -46 -27 -93 -12 -47 -42 -146 -66 -220 -23
-74 -64 -205 -89 -290 -26 -85 -57 -189 -71 -230 -40 -124 -104 -363 -104
-388 0 -25 24 -26 26 -1 0 8 4 21 7 29 13 33 45 138 56 185 13 53 37 136 95
325 19 63 45 147 56 185 25 85 92 302 126 408 14 42 22 82 19 87 -7 12 -22 13
-28 3z"/>
<path d="M4722 4953 c-51 -149 -62 -186 -92 -293 -46 -172 -61 -222 -70 -250
-4 -14 -13 -45 -20 -70 -7 -25 -30 -97 -50 -160 -21 -63 -57 -182 -80 -265
-23 -82 -49 -170 -57 -195 -162 -500 -239 -788 -280 -1047 -3 -19 -1 -33 5
-33 17 0 52 84 52 126 0 21 15 98 34 169 83 320 109 415 131 480 47 143 115
364 149 485 20 69 40 139 45 155 5 17 42 140 81 275 39 135 100 335 136 445
35 110 64 208 64 218 0 38 -29 14 -48 -40z"/>
<path d="M4378 4948 c-16 -24 -106 -284 -147 -428 -35 -118 -120 -389 -145
-460 -13 -36 -31 -94 -41 -130 -10 -36 -32 -114 -50 -175 -77 -259 -144 -506
-145 -532 0 -27 19 -11 25 20 3 17 12 52 20 77 7 25 24 81 36 125 12 44 28 99
36 123 7 23 13 48 13 55 0 7 11 48 25 92 14 44 45 148 69 230 25 83 61 196 80
253 20 57 54 167 77 245 42 146 127 404 155 469 20 45 14 70 -8 36z"/>
<path d="M4463 4858 c-11 -14 -54 -129 -71 -188 -6 -19 -49 -154 -96 -300 -47
-146 -92 -290 -100 -320 -8 -30 -27 -93 -41 -140 -15 -47 -31 -101 -37 -120
-5 -19 -15 -48 -22 -65 -7 -16 -19 -46 -26 -65 -11 -31 -24 -62 -50 -120 -3
-8 -3 -26 0 -40 l7 -25 11 26 c5 14 23 45 39 70 30 46 64 131 103 259 13 41
33 107 45 145 13 39 26 86 30 105 11 52 101 345 131 425 15 39 31 88 36 110 6
22 23 81 39 132 16 50 29 99 29 107 0 19 -14 21 -27 4z"/>
<path d="M1073 4348 c-12 -15 -45 -207 -38 -219 3 -4 -8 -61 -24 -126 -52
-207 -80 -354 -96 -493 -8 -74 -26 -191 -40 -260 -24 -121 -42 -223 -50 -278
-2 -15 -9 -54 -14 -87 -5 -33 -12 -76 -15 -95 -3 -19 -12 -82 -21 -140 -8 -58
-26 -184 -40 -280 -13 -96 -36 -233 -49 -305 -30 -159 -43 -254 -66 -465 -12
-110 -87 -547 -122 -710 -25 -119 -30 -150 -20 -150 18 0 53 118 72 246 22
144 39 238 60 339 12 55 25 150 31 210 15 179 38 336 74 522 19 96 44 245 55
331 26 195 82 547 120 752 42 227 58 335 64 425 4 70 39 244 66 330 17 54 38
154 33 158 -7 8 17 138 39 208 20 63 20 99 0 99 -5 0 -14 -6 -19 -12z"/>
<path d="M1156 3923 c-7 -25 -43 -228 -66 -375 -10 -68 -28 -161 -38 -208 -11
-47 -27 -132 -36 -190 -10 -58 -32 -181 -51 -275 -37 -188 -61 -362 -51 -372
18 -18 30 34 77 322 4 28 15 84 24 125 9 41 21 100 25 130 20 130 42 250 60
325 10 44 24 118 30 165 6 47 20 136 31 199 10 62 19 127 19 142 0 32 -16 39
-24 12z"/>
<path d="M120 3894 c0 -14 4 -23 10 -19 6 3 10 15 10 26 0 10 -4 19 -10 19 -5
0 -10 -12 -10 -26z"/>
<path d="M1307 3883 c-3 -4 -12 -48 -21 -98 -9 -49 -23 -124 -31 -165 -14 -71
-55 -294 -110 -600 -14 -74 -32 -170 -40 -214 -9 -43 -15 -88 -13 -100 l3 -21
13 22 c7 12 21 71 31 130 96 540 154 842 182 948 15 58 16 98 2 102 -6 2 -13
0 -16 -4z"/>
<path d="M3825 3133 c-8 -32 -21 -72 -29 -88 -16 -36 -30 -95 -22 -95 11 0 38
63 62 143 27 90 28 97 15 97 -5 0 -17 -26 -26 -57z"/>
<path d="M106 3073 c-2 -10 -7 -44 -11 -76 -7 -68 9 -71 18 -5 4 24 9 55 13
71 7 30 -11 39 -20 10z"/>
<path d="M2822 2884 c-5 -11 -15 -50 -21 -89 -7 -38 -21 -110 -32 -160 -10
-49 -33 -152 -49 -228 -17 -76 -30 -145 -30 -153 0 -26 24 -9 31 22 4 16 25
115 48 219 23 105 52 234 64 287 15 72 18 101 10 109 -8 8 -14 6 -21 -7z"/>
<path d="M2759 2843 c-10 -27 -39 -155 -39 -174 0 -5 4 -9 10 -9 10 0 60 153
60 182 0 29 -20 30 -31 1z"/>
<path d="M2905 2828 c-11 -33 -34 -141 -45 -208 -18 -114 -57 -302 -69 -333
-16 -42 -83 -358 -77 -364 15 -15 33 11 43 63 37 177 55 259 77 349 13 55 31
138 40 185 25 127 46 222 58 252 10 28 3 68 -13 68 -5 0 -12 -6 -14 -12z"/>
<path d="M2981 2703 c-5 -21 -15 -76 -21 -123 -11 -90 -15 -117 -49 -330 -12
-74 -29 -180 -37 -235 -9 -55 -31 -179 -51 -275 -19 -96 -38 -200 -43 -230 -5
-30 -16 -95 -24 -144 -8 -49 -13 -93 -10 -98 11 -18 22 4 29 55 10 78 30 192
70 397 20 102 42 226 50 275 8 50 26 160 40 245 15 85 30 182 35 215 4 33 16
101 25 150 22 112 23 127 8 132 -7 3 -16 -12 -22 -34z"/>
<path d="M1042 2404 c-5 -11 -19 -73 -31 -139 -29 -154 -66 -344 -91 -465 -11
-52 -31 -176 -45 -275 -74 -513 -75 -516 -50 -460 7 17 21 85 31 150 9 66 20
140 24 165 14 85 31 195 41 265 5 39 21 122 35 185 33 148 52 240 64 315 5 33
18 105 29 160 18 94 15 140 -7 99z"/>
<path d="M2676 2179 c-9 -46 -8 -85 3 -73 11 12 21 104 11 104 -4 0 -10 -14
-14 -31z"/>
<path d="M4391 971 c-26 -36 -21 -51 19 -51 16 0 31 -4 34 -8 2 -4 -51 -8
-119 -7 -68 0 -127 -3 -131 -8 -10 -10 24 -34 59 -42 47 -11 30 -22 -54 -33
-78 -10 -111 -23 -95 -39 4 -5 68 -10 142 -11 112 -3 134 -6 134 -19 0 -13 -9
-14 -49 -9 -62 8 -161 -3 -161 -18 0 -14 56 -36 89 -36 20 0 21 2 11 15 -11
13 -7 15 26 15 76 0 82 -5 88 -73 4 -34 8 -105 10 -157 3 -90 4 -95 26 -98 31
-5 41 14 35 68 -2 25 -7 89 -10 143 l-6 97 43 0 c24 0 92 -9 152 -20 187 -34
274 -25 264 27 -4 19 -76 49 -147 59 -25 3 -53 12 -61 19 -8 7 -39 18 -67 25
-29 6 -53 13 -53 15 0 2 36 1 80 -2 100 -7 111 12 13 22 -38 3 -97 10 -133 14
l-65 8 63 2 c80 1 82 24 3 29 -58 3 -61 22 -3 22 51 0 82 10 82 25 0 24 -46
43 -122 50 l-75 7 -22 -31z m134 -11 c4 -6 -7 -10 -25 -10 -18 0 -29 4 -25 10
3 6 15 10 25 10 10 0 22 -4 25 -10z m-172 -87 c-7 -2 -21 -2 -30 0 -10 3 -4 5
12 5 17 0 24 -2 18 -5z m12 -73 c4 -6 -22 -10 -72 -9 -57 1 -70 3 -48 9 45 11
113 11 120 0z m204 -6 c2 -2 -24 -4 -58 -4 -40 0 -60 4 -56 10 6 9 103 4 114
-6z m146 -44 c107 -15 147 -28 143 -48 -4 -24 -66 -30 -158 -16 -251 38 -257
40 -247 66 6 16 144 15 262 -2z"/>
<path d="M781 923 c-6 -32 -19 -91 -28 -131 -15 -66 -13 -96 3 -79 10 10 36
106 43 162 4 28 10 55 14 62 8 12 -1 43 -12 43 -5 0 -13 -26 -20 -57z"/>
<path d="M2687 903 c-11 -18 -19 -128 -9 -118 6 6 13 36 17 68 7 52 4 69 -8
50z"/>
<path d="M727 673 c-3 -10 -13 -61 -22 -113 -9 -52 -20 -113 -25 -135 -16 -75
-23 -205 -11 -205 9 0 15 18 13 41 -1 10 15 109 42 259 14 80 26 151 26 158 0
18 -18 14 -23 -5z"/>
<path d="M4547 633 c-4 -3 -2 -12 4 -20 12 -14 99 -19 99 -5 0 21 -87 42 -103
25z"/>
<path d="M655 190 c-8 -13 4 -32 16 -25 12 8 12 35 0 35 -6 0 -13 -4 -16 -10z"/>
</g>
</svg>
