<?xml version="1.0" standalone="no"?>
<!DOCTYPE svg PUBLIC "-//W3C//DTD SVG 20010904//EN"
 "http://www.w3.org/TR/2001/REC-SVG-20010904/DTD/svg10.dtd">
<svg version="1.0" xmlns="http://www.w3.org/2000/svg"
 width="500.000000pt" height="878.000000pt" viewBox="0 0 500.000000 878.000000"
 preserveAspectRatio="xMidYMid meet">
<metadata>
Created by potrace 1.15, written by Peter Selinger 2001-2017
</metadata>
<g transform="translate(0.000000,878.000000) scale(0.100000,-0.100000)"
fill="#000000" stroke="none">
<path d="M2 6728 l3 -2053 575 4 c316 2 578 5 581 7 5 3 814 7 908 5 33 -1 34
-2 17 -20 -18 -20 -20 -35 -12 -102 6 -58 120 -164 152 -140 17 12 89 106 106
138 24 43 23 48 -11 96 l-29 42 -6 450 c-7 484 -13 851 -22 1280 -12 568 -13
636 -18 855 -9 351 -19 846 -20 940 l-1 85 298 2 c215 2 303 6 313 14 25 21 0
31 -91 36 -74 5 -85 8 -80 22 4 9 16 40 28 69 11 30 26 56 34 59 7 3 13 11 13
18 0 13 28 27 46 24 5 -1 21 -1 37 0 20 1 27 6 27 21 0 17 -7 20 -42 22 -24 1
-54 1 -68 0 -14 -1 -135 -2 -269 -2 -191 -1 -246 2 -252 12 -5 7 -9 48 -9 91
0 75 0 77 -25 77 -25 0 -25 -1 -25 -90 0 -55 -4 -90 -10 -90 -14 0 -18 13 -25
103 -5 57 -10 77 -21 77 -17 0 -17 -30 -4 -440 8 -281 13 -499 25 -1195 3
-170 8 -341 10 -380 2 -38 7 -281 10 -540 5 -461 9 -668 21 -1229 4 -185 3
-276 -4 -272 -11 7 -20 210 -27 676 -3 179 -10 577 -15 885 -5 308 -12 729
-15 935 -8 534 -24 1272 -31 1428 -5 114 -8 132 -23 132 -15 0 -16 -18 -15
-182 1 -101 4 -237 8 -303 7 -147 14 -444 21 -840 7 -386 14 -770 20 -1010 17
-713 26 -1683 14 -1690 -4 -3 -10 9 -14 27 -4 18 -13 47 -20 63 -7 17 -15 44
-18 60 -3 17 -17 75 -32 130 -15 55 -33 123 -40 152 -7 28 -16 57 -20 63 -4 6
-20 62 -36 123 -47 186 -70 260 -89 293 -18 29 -20 55 -20 430 0 219 -2 426
-4 459 -3 33 -7 303 -10 600 -6 558 -12 842 -22 1220 -4 121 -7 262 -8 312
l-1 93 -883 0 -882 0 2 -2052z m1536 1979 c-9 -8 -26 -24 -37 -38 l-20 -24 -1
32 c0 32 9 38 60 41 12 1 12 -1 -2 -11z m182 -49 c0 -35 4 -220 10 -413 5
-192 12 -638 16 -990 4 -352 8 -660 9 -685 1 -25 6 -231 10 -457 l8 -413 -134
-1 c-74 0 -264 -2 -424 -4 -1012 -14 -1164 -15 -1169 -6 -3 5 -4 15 -1 23 4
10 42 13 178 12 94 0 177 2 182 5 17 10 189 10 430 1 127 -5 318 -6 425 -2
107 4 213 5 235 2 51 -7 210 12 210 25 0 6 3 15 6 20 4 6 2 116 -3 245 -5 129
-11 377 -13 550 -3 173 -6 365 -8 425 -3 74 0 120 8 141 11 26 11 34 -1 46
-16 16 -17 27 -15 261 1 86 -3 165 -8 175 -5 10 -8 45 -5 77 14 207 14 195
-14 195 -14 0 -34 7 -44 16 -12 12 -38 17 -80 18 -59 1 -63 2 -66 26 -4 46 10
53 108 58 69 3 93 8 97 19 8 20 -12 31 -43 25 -13 -2 -49 -1 -79 3 -51 6 -55
9 -63 38 -12 42 -3 55 17 29 23 -30 65 -43 109 -34 33 7 38 12 44 47 4 22 5
158 2 303 -3 144 -2 267 1 272 3 6 19 10 36 10 29 0 29 0 29 -62z m-960 36 c0
-8 -4 -12 -10 -9 -5 3 -10 10 -10 16 0 5 5 9 10 9 6 0 10 -7 10 -16z m333 -10
c6 -31 -6 -36 -64 -32 -40 3 -44 6 -47 31 -3 27 -2 27 51 27 51 0 55 -2 60
-26z m327 1 c0 -28 -3 -29 -31 -15 -28 15 -24 40 6 40 20 0 25 -5 25 -25z
m-950 6 c0 -12 -20 -25 -27 -18 -7 7 6 27 18 27 5 0 9 -4 9 -9z m-315 -11 c-3
-5 -13 -10 -21 -10 -8 0 -12 5 -9 10 3 6 13 10 21 10 8 0 12 -4 9 -10z m1035
-5 c17 -21 4 -67 -18 -63 -22 4 -31 78 -9 78 8 0 20 -7 27 -15z m404 -51 c0
-40 -6 -68 -17 -84 l-17 -24 0 41 c0 23 -4 45 -10 48 -15 9 -12 32 6 61 26 39
39 24 38 -42z m-888 24 c67 -48 58 -60 -48 -64 -62 -2 -83 5 -58 21 6 3 10 15
10 25 0 20 25 50 42 50 5 0 30 -14 54 -32z m606 -18 c-3 -52 -21 -70 -70 -70
l-33 0 20 26 c11 14 23 42 27 61 6 30 10 34 33 31 24 -3 26 -6 23 -48z m-954
3 c-10 -2 -28 -2 -40 0 -13 2 -5 4 17 4 22 1 32 -1 23 -4z m176 -12 c7 -10
-18 -34 -27 -25 -7 8 3 34 13 34 5 0 11 -4 14 -9z m877 -36 c3 -22 13 -55 23
-73 15 -30 17 -56 12 -240 -3 -113 -10 -210 -15 -215 -15 -15 -53 2 -46 21 3
9 9 82 12 163 l6 147 -29 18 c-22 15 -47 19 -117 19 -96 0 -117 -11 -117 -62
0 -24 -26 -43 -60 -43 -24 0 -23 -3 -44 115 -15 82 -15 90 0 98 10 6 14 17 10
32 -8 30 10 42 33 21 10 -9 27 -16 39 -16 11 0 27 -9 35 -21 12 -16 26 -21 61
-21 112 0 146 18 146 77 0 22 4 26 23 23 17 -2 23 -11 28 -43z m-409 12 c11
-18 0 -26 -30 -18 -15 4 -29 16 -30 26 -3 15 0 17 24 11 16 -4 32 -13 36 -19z
m-921 -50 c-15 -15 -30 1 -24 24 6 21 7 21 20 4 8 -12 9 -23 4 -28z m189 -31
c0 -64 -15 -115 -42 -138 -49 -43 -65 -8 -29 64 22 45 22 49 7 73 -15 23 -15
25 11 39 47 25 53 21 53 -38z m108 26 c2 -7 -3 -12 -12 -12 -9 0 -16 7 -16 16
0 17 22 14 28 -4z m137 -8 c61 -24 65 -28 65 -58 0 -17 -10 -52 -22 -76 -24
-47 -30 -49 -95 -34 -22 4 -23 9 -23 99 0 52 2 95 5 95 3 0 34 -12 70 -26z
m283 -35 c-3 -67 -9 -77 -32 -53 -24 24 -20 78 7 97 12 9 23 16 25 16 2 1 2
-26 0 -60z m1476 -34 c1 -90 1 -90 -24 -90 -25 0 -25 2 -28 87 -2 76 -1 87 15
91 33 8 35 2 37 -88z m176 52 c47 -57 90 -141 77 -149 -7 -4 -47 -8 -89 -8
l-78 0 0 88 c0 55 4 92 12 100 17 17 49 5 78 -31z m172 33 c40 0 40 0 25 -23
-8 -13 -20 -43 -27 -66 -6 -25 -16 -41 -23 -38 -10 3 -77 110 -77 122 0 6 35
13 48 9 8 -2 32 -4 54 -4z m-457 -93 c0 -120 -19 -118 -23 1 -2 73 0 93 10 90
9 -3 13 -29 13 -91z m-1467 30 c4 -44 -9 -47 -37 -11 -30 38 -27 56 7 51 23
-3 27 -9 30 -40z m-562 -12 c9 -21 -14 -45 -42 -45 -26 0 -30 11 -14 41 13 23
48 25 56 4z m249 -31 c0 -36 -3 -39 -29 -42 -40 -5 -52 10 -36 47 11 28 32 41
55 36 6 -1 10 -19 10 -41z m1183 25 c16 8 29 8 35 2 8 -8 12 -129 5 -136 -2
-2 -24 16 -50 39 -32 28 -50 53 -54 75 -7 32 -6 33 16 21 17 -9 29 -9 48 -1z
m-923 -81 c6 -24 4 -28 -14 -28 -22 0 -27 22 -15 55 8 20 20 9 29 -27z m123 5
l33 -5 -3 -82 c-3 -76 -4 -81 -26 -84 -15 -2 -33 6 -49 22 -22 23 -26 36 -28
97 -2 68 -1 70 19 64 11 -4 36 -9 54 -12z m569 -11 c7 -5 13 -45 15 -109 l3
-101 -70 -5 c-75 -5 -118 5 -110 25 3 7 1 36 -4 63 -5 27 -6 52 -1 55 5 3 12
19 16 35 4 17 12 33 18 37 14 10 118 10 133 0z m-1244 -33 c15 -17 27 -37 27
-45 0 -17 -59 -104 -71 -104 -5 0 -9 41 -9 90 0 101 8 110 53 59z m905 -32 c1
-45 -21 -79 -44 -70 -21 8 -19 92 3 108 27 20 41 7 41 -38z m-616 27 c4 -3 8
-14 8 -25 0 -11 13 -31 29 -45 54 -45 46 -119 -22 -191 -56 -59 -107 -68 -155
-28 -30 25 -32 25 -32 7 0 -24 44 -62 71 -62 25 0 31 -14 19 -44 -20 -53 -99
-20 -140 58 -14 25 -31 46 -37 46 -8 0 -13 13 -13 34 0 19 -3 42 -7 52 -4 12
-2 15 8 12 8 -2 15 -19 17 -36 2 -18 7 -32 11 -32 12 0 31 23 31 40 0 22 35
84 65 114 17 17 41 27 74 32 38 5 50 11 55 27 3 11 3 24 0 29 -9 14 -68 8
-113 -12 -56 -26 -61 -21 -13 13 31 22 44 25 86 21 28 -3 53 -7 58 -10z m1193
-66 c3 -9 14 -20 24 -23 19 -6 28 -65 10 -65 -5 0 -9 7 -9 16 0 8 -5 12 -11 9
-5 -4 -23 -1 -40 5 -30 13 -46 47 -36 75 4 8 2 17 -3 20 -6 4 -10 13 -10 22 0
18 65 -33 75 -59z m599 15 c3 -16 8 -192 11 -393 3 -201 7 -480 10 -620 32
-1685 41 -2591 26 -2575 -5 6 -14 273 -20 595 -6 322 -13 675 -16 785 -9 363
-22 960 -30 1395 -4 211 -8 811 -6 833 2 19 20 4 25 -20z m-1668 -20 c-11 -11
-19 6 -11 24 8 17 8 17 12 0 3 -10 2 -21 -1 -24z m137 -9 c3 -20 4 -49 0 -65
-4 -23 -10 -28 -32 -27 -14 1 -34 -2 -43 -6 -15 -7 -18 -3 -18 23 0 17 7 49
16 71 13 33 21 40 44 40 24 0 28 -5 33 -36z m-483 -18 l-22 -21 18 35 c10 21
19 30 22 21 2 -7 -6 -23 -18 -35z m954 22 c11 -43 8 -49 -26 -46 -27 2 -34 8
-36 30 -2 19 2 28 15 31 34 9 41 7 47 -15z m-117 -60 c-3 -7 -5 -2 -5 12 0 14
2 19 5 13 2 -7 2 -19 0 -25z m-24 5 c-7 -2 -19 -2 -25 0 -7 3 -2 5 12 5 14 0
19 -2 13 -5z m-248 -75 c5 -26 4 -38 -4 -38 -16 0 -33 49 -25 72 8 27 21 12
29 -34z m400 40 c4 -4 4 -32 0 -63 -7 -60 -23 -71 -49 -33 -15 21 -22 88 -11
99 7 7 52 5 60 -3z m-316 -50 c-1 -29 -4 -44 -6 -33 -3 10 -12 30 -20 42 -14
21 -14 23 1 17 12 -5 15 -2 10 10 -3 9 -1 16 5 16 7 0 11 -20 10 -52z m776 12
c3 -5 -1 -10 -9 -10 -8 0 -18 5 -21 10 -3 6 1 10 9 10 8 0 18 -4 21 -10z
m-982 -10 c25 0 40 -5 44 -15 9 -25 -4 -29 -47 -16 -33 10 -45 9 -69 -4 -38
-19 -41 -19 -41 1 0 23 31 45 55 39 11 -3 37 -5 58 -5z m-543 -31 c0 -10 -4
-19 -10 -19 -5 0 -10 12 -10 26 0 14 4 23 10 19 6 -3 10 -15 10 -26z m1251 10
c7 -11 9 -11 9 4 0 9 7 17 15 17 11 0 15 -11 15 -36 l0 -37 -87 6 c-49 4 -90
7 -92 7 -2 0 2 6 8 14 6 7 9 21 5 30 -5 14 2 16 56 13 40 -2 65 -8 71 -18z
m-701 -76 c2 -2 -2 -8 -9 -12 -9 -6 -10 -11 -2 -15 6 -4 11 -16 11 -27 0 -10
4 -19 10 -19 5 0 8 15 7 33 -3 46 16 49 24 4 6 -36 4 -40 -27 -55 -32 -15 -35
-15 -48 4 -16 21 -3 49 17 37 6 -4 7 -1 2 6 -4 7 -16 10 -27 8 -26 -7 -48 2
-48 20 0 8 4 12 9 9 5 -3 12 1 15 9 4 11 13 14 33 9 16 -4 30 -9 33 -11z m653
-20 c12 -7 8 -53 -5 -55 -7 0 -32 -2 -55 -3 -46 -1 -61 15 -48 55 6 19 12 20
53 14 26 -4 50 -8 55 -11z m-228 -2 c11 -5 28 -5 37 0 10 6 19 5 23 0 9 -15
-28 -30 -97 -40 -35 -5 -64 -8 -66 -6 -1 1 2 14 7 29 9 21 17 26 43 25 18 0
42 -4 53 -8z m363 3 c16 -5 22 -14 22 -36 0 -23 -4 -29 -16 -24 -9 3 -31 6
-50 6 -29 0 -34 3 -34 23 0 13 3 27 7 30 8 9 41 9 71 1z m-633 -19 c11 -2 22
-4 24 -4 2 -1 -2 -8 -9 -16 -7 -8 -28 -15 -46 -15 -30 0 -34 3 -34 26 0 23 3
25 23 19 12 -3 31 -8 42 -10z m-355 -4 c0 -5 14 -14 30 -21 38 -16 44 -25 30
-50 -18 -33 -46 -25 -64 20 -19 47 -20 60 -6 60 6 0 10 -4 10 -9z m674 -57
c12 -4 16 -20 16 -55 0 -27 -4 -49 -9 -49 -25 0 -53 84 -34 103 8 8 8 8 27 1z
m-264 -37 c0 -33 -6 -36 -48 -24 -69 21 -57 35 36 46 6 0 12 -9 12 -22z m183
-27 c5 -43 3 -53 -17 -75 -28 -30 -40 -32 -33 -5 3 11 1 18 -4 14 -5 -3 -9 19
-9 50 0 55 4 60 46 65 6 0 14 -21 17 -49z m-462 13 c13 -16 12 -17 -3 -4 -10
7 -18 15 -18 17 0 8 8 3 21 -13z m133 1 c8 -22 8 -64 -1 -64 -15 1 -45 51 -39
66 7 19 32 18 40 -2z m886 1 c15 -9 -33 -82 -62 -93 l-28 -10 0 47 c0 26 2 50
5 52 7 7 75 10 85 4z m-1075 -55 c20 -39 19 -53 -7 -69 -19 -12 -23 -11 -35 5
-20 27 -17 82 5 87 9 3 18 5 19 6 1 0 9 -12 18 -29z m101 9 c3 -6 2 -15 -4
-21 -7 -7 -14 -3 -21 11 -10 17 -9 21 3 21 8 0 18 -5 22 -11z m1041 -43 c-2
-48 -4 -52 -19 -42 -20 12 -23 47 -8 77 19 34 30 20 27 -35z m-1559 -3 c98
-196 175 -275 249 -257 l26 7 -6 -54 c-4 -30 -7 -80 -7 -112 0 -56 -1 -58 -30
-64 -17 -3 -33 -10 -36 -15 -4 -6 -6 -56 -5 -112 2 -80 6 -110 23 -146 20 -41
22 -60 22 -276 1 -223 2 -234 23 -262 16 -22 19 -32 10 -41 -21 -21 -35 -11
-84 57 -100 137 -96 126 -102 310 -4 116 -10 167 -18 169 -7 3 -28 26 -47 53
l-35 48 -6 366 c-3 201 -4 366 -1 366 3 0 14 -17 24 -37z m735 20 c25 -5 27
-9 27 -54 0 -27 -3 -49 -8 -49 -4 0 -31 16 -60 35 -33 23 -50 40 -46 48 17 29
28 38 43 32 9 -4 28 -9 44 -12z m297 -58 c0 -7 -8 -15 -17 -19 -10 -3 -23 -8
-29 -11 -20 -10 -25 26 -6 50 16 21 18 22 35 8 9 -9 17 -22 17 -28z m118 33
c21 -21 13 -28 -28 -28 -38 0 -52 14 -33 33 11 11 48 8 61 -5z m-548 -55 c8
-8 24 -20 35 -27 17 -12 17 -16 6 -30 -8 -9 -20 -15 -28 -12 -8 3 -11 1 -8 -4
11 -17 -15 -11 -45 12 -22 16 -27 24 -18 30 9 5 8 8 -4 8 -21 0 -24 20 -6 38
14 14 45 7 68 -15z m740 -20 c-11 -17 -11 -17 -6 0 3 10 6 24 7 30 0 9 2 9 5
0 3 -7 0 -20 -6 -30z m-1122 1 c58 -4 96 -3 109 5 16 8 22 8 26 -3 10 -25 -75
-47 -136 -35 -66 12 -117 31 -117 42 0 5 7 7 15 3 8 -3 54 -8 103 -12z m672
-24 c0 -16 -4 -30 -10 -30 -5 0 -10 14 -10 30 0 17 5 30 10 30 6 0 10 -13 10
-30z m153 -57 l5 -42 -57 -6 c-31 -3 -71 -7 -88 -10 -27 -3 -33 0 -33 16 0 15
7 19 37 19 36 0 73 22 73 44 0 13 42 35 51 27 4 -3 9 -25 12 -48z m-312 20
c36 -22 37 -33 2 -33 -37 0 -57 14 -50 34 8 20 12 20 48 -1z m-231 -74 c0 -5
-7 -9 -15 -9 -25 0 -14 -51 12 -61 35 -13 28 -29 -9 -22 -28 5 -31 3 -20 -8 7
-8 27 -19 43 -24 28 -10 29 -12 15 -24 -14 -11 -16 -11 -16 3 0 11 -9 16 -31
16 -24 0 -30 -4 -25 -15 3 -8 1 -15 -4 -15 -6 0 -10 5 -10 10 0 6 -8 10 -18
10 -10 0 -27 6 -38 14 -11 9 -29 12 -43 9 -21 -5 -22 -4 -12 16 7 12 9 25 6
30 -7 12 14 66 22 57 3 -3 13 0 21 6 12 10 19 7 40 -17 25 -30 25 -30 19 -5
-5 20 -2 28 16 36 24 11 47 7 47 -7z m225 -4 l30 -13 -37 -1 c-41 -1 -68 7
-68 20 0 13 41 10 75 -6z m631 -10 c-4 -10 1 -15 15 -15 12 0 19 -5 17 -12 -5
-14 -54 -35 -63 -26 -8 8 16 68 27 68 6 0 8 -7 4 -15z m-815 -30 c33 -14 33
-14 8 -15 -15 0 -32 7 -39 15 -16 19 -11 19 31 0z m1026 -32 c-4 -17 -4 -17
-12 0 -4 9 -4 25 0 35 8 16 8 16 12 0 3 -10 3 -26 0 -35z m-824 10 c12 -7 8
-30 -8 -43 -12 -10 -21 -7 -49 16 -19 16 -35 33 -35 37 -1 8 75 0 92 -10z
m717 -42 c0 -34 -5 -42 -36 -62 -30 -18 -38 -20 -50 -8 -7 8 -11 23 -8 34 5
19 69 75 86 75 4 0 8 -18 8 -39z m-793 -13 c38 -37 39 -40 16 -74 l-17 -26
-38 43 c-41 46 -48 75 -20 82 9 3 19 5 22 6 2 0 19 -13 37 -31z m883 -37 c0
-24 -16 -45 -29 -37 -6 4 -11 28 -11 54 l1 47 19 -24 c11 -13 20 -31 20 -40z
m-254 14 c-6 -18 -62 -20 -72 -3 -5 7 0 9 14 6 12 -4 28 1 39 12 19 18 29 10
19 -15z m-169 -1 c-3 -3 -12 -4 -19 -1 -8 3 -5 6 6 6 11 1 17 -2 13 -5z m-189
-16 c19 -19 15 -48 -8 -48 -16 0 -20 7 -20 30 0 32 9 37 28 18z m-534 -27 c15
-16 18 -42 19 -161 2 -137 1 -141 -18 -136 -11 3 -23 6 -26 6 -4 0 -9 17 -13
39 -3 21 -13 44 -21 51 -8 7 -15 25 -15 41 0 15 -4 31 -10 34 -5 3 -10 37 -10
76 l0 69 38 0 c26 0 45 -7 56 -19z m655 -3 c11 -29 6 -37 -19 -31 -25 7 -34
19 -26 38 8 23 36 18 45 -7z m-445 -33 c31 -29 35 -38 26 -54 -8 -16 -15 -19
-33 -12 -12 5 -41 14 -64 20 -42 12 -73 34 -73 52 0 6 4 8 9 5 5 -3 26 1 47 8
52 19 46 21 88 -19z m751 -19 c24 -13 42 -31 47 -46 9 -32 26 -154 22 -158 -1
-2 -11 -1 -21 2 -13 4 -25 26 -37 66 -18 60 -41 92 -85 121 -16 10 -22 21 -18
31 7 19 32 15 92 -16z m126 15 c22 -18 24 -26 24 -115 0 -129 -23 -126 -39 5
-4 31 -14 65 -21 75 -18 24 -19 54 -1 54 8 0 24 -9 37 -19z m-549 -71 c-4 -56
-42 -85 -42 -32 0 46 11 73 29 70 12 -3 15 -13 13 -38z m267 22 c22 -41 1
-242 -25 -242 -7 0 -26 -8 -42 -17 -28 -16 -29 -16 -70 17 -48 38 -52 50 -17
50 28 0 32 12 10 33 -11 12 -12 16 -2 20 9 3 9 7 -1 20 -17 20 -8 37 19 37 23
0 25 16 3 28 -11 6 -13 11 -5 16 6 4 11 2 11 -3 0 -6 5 -11 11 -11 6 0 8 8 5
18 -10 31 14 50 66 51 17 1 31 -6 37 -17z m-474 -5 c3 -7 6 -76 8 -155 2 -116
0 -142 -12 -142 -17 0 -63 48 -57 59 3 4 10 36 15 71 9 52 8 68 -4 86 -13 20
-13 27 0 58 15 36 41 48 50 23z m300 -14 c-10 -14 -21 -38 -25 -52 -6 -22 -9
-23 -15 -8 -4 9 -4 33 -1 52 6 29 11 35 33 35 25 0 25 0 8 -27z m-438 -43 c7
0 20 -11 29 -25 20 -30 15 -112 -11 -185 -17 -47 -13 -123 7 -147 5 -7 7 -26
3 -44 -11 -48 -13 -82 -15 -231 -2 -112 -5 -136 -16 -131 -18 7 -16 -5 -19
161 -2 105 -7 152 -18 175 -8 18 -23 61 -33 97 -10 36 -23 74 -30 85 -14 23
-40 256 -31 278 5 13 14 12 64 -9 32 -13 64 -24 70 -24z m733 -83 c12 -44 20
-80 18 -82 -2 -1 -22 -5 -45 -9 l-43 -6 0 43 c0 24 5 69 12 101 14 73 28 62
58 -47z m-350 -70 c0 -10 14 -32 30 -49 17 -17 29 -35 28 -40 -2 -5 -22 10
-46 33 -33 34 -42 50 -42 78 0 33 1 34 15 15 8 -10 15 -27 15 -37z m590 -69
c0 -124 -26 -98 -34 34 0 14 -4 24 -8 21 -5 -2 -8 0 -8 6 0 10 28 30 43 31 4
0 7 -41 7 -92z m-110 43 c17 -34 11 -39 -25 -23 -19 9 -35 22 -35 29 0 21 48
15 60 -6z m-514 -68 c-10 -10 -46 28 -46 49 0 16 5 14 26 -12 15 -17 24 -34
20 -37z m-279 -35 c-3 -8 -6 -5 -6 6 -1 11 2 17 5 13 3 -3 4 -12 1 -19z m64
-51 c-8 -8 -11 -4 -11 14 0 33 14 47 18 19 2 -12 -1 -27 -7 -33z m249 -49 c0
-16 -3 -19 -11 -11 -6 6 -8 16 -5 22 11 17 16 13 16 -11z m-232 -44 c-3 -14
-5 -12 -10 9 -3 19 -2 25 4 19 6 -6 8 -18 6 -28z m-56 -26 c5 -59 4 -63 -11
-53 -13 8 -15 105 -2 105 5 0 11 -24 13 -52z m-692 5 c0 -31 -15 -60 -23 -47
-4 8 -3 37 2 67 3 20 21 3 21 -20z m932 -13 c-5 -12 -2 -11 11 2 9 9 17 21 17
27 0 19 18 12 25 -9 15 -47 -48 -70 -65 -24 -14 35 -12 47 4 32 7 -7 11 -20 8
-28z m306 2 c4 -43 -12 -41 -26 4 -9 31 -8 35 6 32 11 -2 18 -15 20 -36z m-33
-51 c-3 -2 -11 1 -17 7 -16 16 -37 -3 -31 -29 5 -19 7 -19 32 -3 l26 17 -23
-25 c-30 -33 -104 -75 -96 -54 3 8 14 18 25 21 10 4 19 9 20 13 0 4 2 23 4 42
1 19 3 39 4 43 0 5 14 0 31 -9 16 -10 27 -20 25 -23z m-155 4 c0 -2 -5 -16
-12 -30 -12 -26 -34 -36 -24 -10 3 8 1 15 -4 15 -6 0 -10 -7 -10 -15 0 -8 -7
-15 -15 -15 -23 0 -18 -13 15 -35 22 -15 31 -30 36 -61 8 -54 3 -78 -17 -82
-18 -3 -63 63 -54 79 4 5 1 9 -4 9 -20 0 -12 76 10 104 24 30 79 59 79 41z
m-527 -162 c3 -86 5 -158 4 -159 -1 -1 -13 -5 -27 -9 -20 -6 -23 -5 -12 6 21
22 15 51 -10 47 -17 -2 -23 -9 -22 -26 0 -16 -4 -21 -13 -17 -8 3 -23 5 -34 5
-16 0 -18 5 -13 25 8 31 -22 47 -41 22 -19 -26 -39 3 -30 43 5 24 3 31 -12 37
-18 6 -33 22 -33 34 0 3 20 19 45 35 25 16 48 38 51 50 4 16 22 28 62 42 31
11 62 21 68 21 7 1 13 -52 17 -156z m-490 101 c3 -20 20 -58 38 -85 36 -56 30
-78 -14 -58 -27 12 -32 25 -43 122 -7 63 9 82 19 21z m664 -77 c-2 -75 -4 -83
-19 -79 -30 8 -23 162 8 162 10 0 12 -20 11 -83z m-367 68 c0 -2 -9 -9 -20
-15 -16 -9 -20 -8 -20 5 0 8 9 15 20 15 11 0 20 -2 20 -5z m700 -16 c0 -5 -4
-9 -10 -9 -5 0 -10 7 -10 16 0 8 5 12 10 9 6 -3 10 -10 10 -16z m307 -62 c-3
-22 -16 -50 -29 -64 -34 -38 -128 -75 -99 -39 9 11 6 15 -15 20 -34 9 -44 -2
-20 -20 17 -12 18 -14 3 -14 -9 0 -18 3 -18 8 -7 36 -5 52 5 49 45 -19 51 -20
39 -6 -17 18 -16 29 2 29 8 0 14 -6 13 -12 -5 -24 33 -13 50 14 17 29 10 50
-10 30 -24 -24 -28 -11 -7 18 12 16 26 27 31 24 4 -3 6 -10 3 -15 -4 -5 1 -9
9 -9 9 0 16 7 16 15 0 8 -5 15 -10 15 -6 0 -5 6 2 14 21 23 41 -10 35 -57z
m-1360 -29 c-3 -8 -6 -5 -6 6 -1 11 2 17 5 13 3 -3 4 -12 1 -19z m953 -60 c0
-4 -7 -8 -15 -8 -10 0 -15 10 -15 28 1 26 1 26 15 8 8 -11 15 -23 15 -28z
m201 9 c-8 -8 -16 -7 -27 5 -14 14 -14 15 11 10 19 -3 23 -8 16 -15z m-1137
-25 c-1 -7 -2 -21 -2 -32 -2 -25 -19 -26 -24 -2 -6 26 3 53 16 49 6 -2 11 -9
10 -15z m78 -27 c-4 -37 -10 -44 -22 -25 -17 26 -12 62 8 58 12 -3 16 -12 14
-33z m90 -122 c-18 -162 -23 -193 -33 -193 -19 0 -22 33 -5 61 15 25 16 46 10
156 l-6 128 23 -22 c22 -22 22 -23 11 -130z m516 116 c-20 -13 -28 -11 -22 5
3 8 12 12 21 9 12 -5 12 -7 1 -14z m73 -71 c0 -51 3 -114 5 -140 3 -27 0 -48
-5 -48 -5 0 -18 -16 -30 -36 -17 -29 -26 -35 -49 -32 -25 3 -27 6 -26 43 1 22
5 72 9 110 5 39 8 85 8 103 -1 25 6 37 30 54 18 12 34 26 35 30 2 4 8 8 13 8
5 0 9 -42 10 -92z m-155 45 c-10 -10 -19 5 -10 18 6 11 8 11 12 0 2 -7 1 -15
-2 -18z m502 10 c5 -17 -26 -29 -40 -15 -6 6 -7 15 -3 22 9 14 37 9 43 -7z
m145 -40 c3 -21 8 -46 12 -55 5 -13 2 -18 -10 -18 -11 0 -15 5 -11 15 7 18
-10 20 -18 3 -3 -7 -5 6 -3 30 1 23 -1 42 -6 42 -4 0 -5 5 -2 10 14 22 33 8
38 -27z m-928 16 c15 -23 161 -64 179 -50 6 5 37 12 68 16 l57 7 -5 -73 c-12
-184 -14 -195 -43 -180 -33 18 -93 -5 -131 -50 l-36 -41 -92 0 c-123 0 -126 3
-119 112 6 94 22 216 32 242 4 9 21 19 38 21 18 2 35 5 39 5 4 1 10 -3 13 -9z
m682 -35 c-9 -29 -13 -33 -36 -28 -14 4 -32 14 -39 22 -10 14 -9 18 9 27 11 7
33 12 48 12 27 0 28 -1 18 -33z m-1003 -18 c-6 -16 -8 -17 -16 -2 -11 19 0 42
13 29 6 -6 7 -18 3 -27z m86 -16 c0 -10 2 -25 5 -32 4 -11 -3 -13 -30 -10 -40
5 -39 4 -23 48 10 27 15 31 30 23 10 -5 18 -18 18 -29z m1059 -122 c1 -80 -3
-87 -31 -65 -17 12 -17 15 9 157 6 33 6 34 13 10 5 -14 8 -60 9 -102z m453
-30 c2 -54 0 -98 -4 -98 -4 0 -7 53 -7 118 2 132 6 124 11 -20z m-321 65 c5
-15 13 -46 16 -70 l6 -44 -44 7 c-24 4 -45 7 -45 8 -1 1 -4 29 -7 64 l-5 62
34 0 c28 0 36 -5 45 -27z m-1229 -52 c2 -14 -3 -26 -11 -29 -10 -3 -12 1 -8
18 3 13 1 33 -5 44 -9 19 -9 19 5 6 8 -8 17 -26 19 -39z m48 39 c0 -5 -4 -10
-10 -10 -5 0 -10 5 -10 10 0 6 5 10 10 10 6 0 10 -4 10 -10z m860 -13 c0 -17
-20 -37 -37 -37 -7 0 -13 11 -13 25 0 20 5 25 25 25 14 0 25 -6 25 -13z m-940
-1 c0 -2 -7 -9 -15 -16 -12 -10 -15 -10 -15 4 0 9 7 16 15 16 8 0 15 -2 15 -4z
m1026 -118 c-3 -35 -5 -65 -5 -67 -2 -13 -30 37 -31 52 0 19 27 77 36 77 3 0
3 -28 0 -62z m-276 -23 c0 -24 -5 -35 -15 -35 -18 0 -20 41 -3 58 17 17 18 16
18 -23z m-196 6 c3 -5 30 -12 60 -15 l55 -7 -21 -35 c-22 -38 -22 -38 -130
-35 -72 2 -78 0 -94 -24 -21 -32 -37 -32 -58 0 -16 24 -16 25 8 25 42 0 75 18
96 52 17 28 39 42 72 47 4 1 9 -3 12 -8z m591 -22 c3 -5 8 -24 10 -43 5 -34 4
-35 -25 -31 -43 5 -47 10 -48 59 l-1 45 29 -11 c17 -5 32 -14 35 -19z m130 19
c15 -2 25 -19 38 -61 10 -33 17 -60 15 -61 -2 -1 -24 -1 -49 2 -53 4 -64 19
-72 91 -5 42 -5 43 21 38 15 -3 36 -7 47 -9z m-362 -121 c-4 -6 0 -8 9 -4 21
8 30 -3 17 -20 -24 -28 -37 -14 -36 40 0 44 1 48 8 23 4 -16 5 -34 2 -39z
m-153 24 c0 -6 -4 -13 -10 -16 -5 -3 -10 1 -10 9 0 9 5 16 10 16 6 0 10 -4 10
-9z m-630 -57 c0 -38 -28 -54 -47 -28 -17 23 -17 27 8 58 25 32 39 21 39 -30z
m-142 9 c-5 -25 -28 -28 -28 -4 0 12 6 21 16 21 9 0 14 -7 12 -17z m377 -18
c47 -36 75 -37 75 -4 0 24 29 37 41 18 5 -8 9 -40 9 -71 l0 -58 -92 3 -93 2
-3 35 c-4 42 -16 50 -53 40 -16 -5 -29 -6 -29 -2 1 8 82 71 92 71 4 1 28 -15
53 -34z m1215 -5 c0 -39 0 -39 -27 -29 -16 6 -64 10 -108 9 -122 -4 -175 -1
-175 9 0 9 59 18 197 29 45 4 85 10 89 15 16 16 24 5 24 -33z m-368 5 c17 -22
5 -32 -47 -44 -68 -15 -91 -5 -73 35 10 22 17 24 62 22 28 -2 54 -7 58 -13z
m-217 -27 c6 -20 8 -20 12 -5 5 20 23 13 23 -9 0 -17 -85 -20 -110 -4 -8 5
-13 10 -10 11 36 6 44 9 53 18 16 16 24 13 32 -11z m-955 -3 c0 -10 -10 -15
-31 -15 -27 0 -30 2 -19 15 7 8 21 15 31 15 11 0 19 -7 19 -15z m524 -11 c16
-6 22 -35 9 -47 -10 -11 -33 13 -33 34 0 21 1 22 24 13z m-464 -24 c0 -5 -2
-10 -4 -10 -3 0 -8 5 -11 10 -3 6 -1 10 4 10 6 0 11 -4 11 -10z m631 -13 c-10
-9 -11 -8 -5 6 3 10 9 15 12 12 3 -3 0 -11 -7 -18z m-515 3 c27 0 34 -4 34
-19 0 -14 -10 -20 -47 -25 -26 -3 -50 -3 -55 2 -13 13 3 54 19 48 8 -3 30 -6
49 -6z m458 -15 c-4 -8 -8 -15 -10 -15 -2 0 -4 7 -4 15 0 8 4 15 10 15 5 0 7
-7 4 -15z m884 -10 c-8 -8 -48 8 -42 16 3 5 14 4 25 -2 12 -6 19 -12 17 -14z
m-303 5 c-3 -5 -19 -10 -36 -10 -16 0 -29 5 -29 10 0 6 16 10 36 10 21 0 33
-4 29 -10z m464 -188 c6 -11 26 -79 45 -153 20 -74 63 -231 96 -349 78 -280
105 -388 98 -395 -8 -9 -231 -12 -1698 -29 l-295 -3 3 456 c3 305 7 458 14
462 12 8 -14 7 818 15 338 3 619 6 623 7 5 1 71 3 147 5 128 2 140 1 149 -16z
m441 -992 c0 -5 -15 -10 -34 -10 -19 0 -38 5 -41 10 -4 6 10 10 34 10 23 0 41
-4 41 -10z m-38 -60 c13 0 33 7 44 15 23 17 34 19 34 5 0 -5 -7 -10 -15 -10
-18 0 -20 -30 -2 -31 6 0 2 -4 -11 -9 -13 -6 -28 -24 -34 -41 -7 -20 -14 -27
-20 -21 -6 6 -16 8 -23 6 -7 -3 -16 -1 -20 5 -3 6 1 11 9 11 9 0 16 6 16 13 0
19 -20 36 -35 30 -9 -3 -12 2 -9 14 3 11 -2 25 -10 32 -32 27 -15 33 18 7 19
-14 45 -26 58 -26z"/>
<path d="M1080 8480 c-13 -23 2 -60 25 -60 15 0 30 53 20 70 -10 16 -34 11
-45 -10z"/>
<path d="M1381 8491 c-20 -13 -6 -63 17 -59 11 2 17 13 17 32 0 32 -12 41 -34
27z"/>
<path d="M965 8340 c3 -5 8 -10 11 -10 2 0 4 5 4 10 0 6 -5 10 -11 10 -5 0 -7
-4 -4 -10z"/>
<path d="M981 8284 c0 -11 3 -14 6 -6 3 7 2 16 -1 19 -3 4 -6 -2 -5 -13z"/>
<path d="M276 8228 c-3 -13 0 -29 8 -36 10 -11 17 -9 37 8 24 20 24 20 5 35
-28 21 -43 19 -50 -7z"/>
<path d="M360 8163 c-9 -31 -17 -43 -29 -41 -9 2 -27 -7 -40 -19 -19 -18 -21
-25 -12 -42 13 -24 16 -25 41 -11 11 6 17 17 14 25 -4 9 0 15 9 15 8 0 22 11
31 25 9 14 26 25 37 25 33 0 22 52 -13 61 -24 6 -27 4 -38 -38z"/>
<path d="M1550 8245 c7 -9 15 -13 17 -11 7 7 -7 26 -19 26 -6 0 -6 -6 2 -15z"/>
<path d="M1235 8080 c3 -5 8 -10 11 -10 2 0 4 5 4 10 0 6 -5 10 -11 10 -5 0
-7 -4 -4 -10z"/>
<path d="M1219 7226 c16 -19 44 -21 39 -3 -3 6 -15 14 -28 15 -21 3 -22 2 -11
-12z"/>
<path d="M1200 7196 c0 -10 9 -16 21 -16 24 0 21 23 -4 28 -10 2 -17 -3 -17
-12z"/>
<path d="M1365 6580 c3 -5 8 -10 11 -10 2 0 4 5 4 10 0 6 -5 10 -11 10 -5 0
-7 -4 -4 -10z"/>
<path d="M2447 8212 c-10 -2 -17 -13 -18 -25 0 -12 0 -326 1 -697 0 -692 2
-825 21 -1610 6 -250 12 -509 14 -575 1 -66 7 -385 14 -710 6 -324 13 -628 14
-674 l2 -84 202 -1 c111 -1 205 -4 209 -8 4 -5 0 -16 -8 -25 -26 -30 -87 -175
-93 -223 -4 -25 -16 -74 -27 -110 -12 -36 -22 -70 -23 -75 -2 -6 -29 -19 -61
-28 -33 -10 -97 -29 -144 -43 -47 -14 -100 -30 -118 -36 -18 -5 -46 -7 -62 -3
-19 4 -47 0 -76 -11 -40 -15 -55 -16 -118 -6 -167 27 -403 31 -716 12 -208
-12 -251 -20 -277 -53 -14 -18 -36 -26 -91 -35 -90 -15 -141 -8 -215 31 -53
28 -61 29 -96 18 -22 -6 -61 -31 -88 -55 -75 -67 -116 -85 -226 -95 -53 -5
-101 -12 -107 -16 -6 -3 -68 -13 -138 -21 -223 -25 -222 -25 -222 -45 0 -22
16 -23 104 -9 153 26 365 54 410 54 48 1 49 1 76 -49 39 -70 46 -95 24 -95
-14 0 -15 -6 -9 -32 15 -68 16 -85 3 -51 -17 42 -30 54 -47 44 -11 -7 -12 -17
-2 -54 6 -25 11 -56 10 -69 -1 -13 -6 -3 -11 22 -11 50 -24 70 -45 70 -11 0
-12 -13 -7 -65 6 -62 6 -65 -15 -65 -17 0 -21 6 -21 34 0 48 -9 66 -32 66 -18
0 -20 -6 -16 -57 4 -68 -16 -86 -27 -24 -8 47 -34 84 -52 73 -8 -5 -9 -19 0
-55 7 -33 7 -51 0 -58 -7 -7 -13 3 -17 34 -7 47 -27 74 -46 62 -6 -4 -8 -27
-4 -61 6 -44 4 -54 -8 -54 -10 0 -18 17 -24 53 -7 43 -13 53 -31 55 -22 3 -23
1 -16 -57 4 -43 2 -61 -6 -61 -6 0 -11 11 -11 24 0 31 -20 86 -31 86 -5 0 -17
-4 -27 -9 -9 -5 -25 -12 -36 -15 -13 -4 -17 -12 -13 -27 6 -24 -1 -49 -14 -49
-5 0 -9 16 -9 35 0 31 -3 35 -25 35 l-25 0 0 -180 0 -180 72 1 c40 0 134 -4
208 -9 74 -5 173 -8 220 -6 47 1 186 6 310 9 124 3 248 6 275 8 28 1 64 -1 80
-6 17 -5 215 -11 440 -12 226 -2 469 -4 540 -5 355 -4 485 -1 485 15 0 10 10
15 29 15 23 0 30 -5 36 -27 3 -16 12 -35 20 -43 7 -8 18 -32 24 -52 7 -20 30
-53 52 -72 35 -32 45 -36 95 -36 31 0 71 7 90 16 28 13 39 14 63 4 24 -9 41
-9 91 4 34 9 80 16 103 16 37 0 180 42 275 81 28 12 36 11 65 -3 62 -32 135
-40 217 -24 74 14 91 20 96 28 4 5 14 -4 24 -20 15 -24 27 -30 71 -36 54 -8
189 -8 309 -1 61 4 263 7 377 6 51 -1 52 -1 59 -36 7 -40 15 -48 67 -66 20 -7
37 -17 37 -21 0 -4 -210 -4 -467 0 -258 4 -1006 6 -1663 5 -1400 -3 -2417 -3
-2428 -2 -4 1 -67 1 -139 0 l-133 -1 0 -205 0 -205 58 -2 c31 0 64 -1 72 0 28
3 505 1 675 -3 94 -2 728 -6 1410 -9 682 -3 1494 -8 1805 -11 619 -6 713 -7
873 -6 l107 1 0 398 0 398 -71 120 c-39 65 -89 138 -111 161 -40 40 -41 45
-39 98 4 106 -42 280 -91 339 -23 29 -36 36 -64 36 -19 0 -34 5 -34 11 0 6 9
8 20 4 31 -10 24 2 -18 30 -39 25 -39 25 -138 14 -54 -7 -112 -18 -127 -26
-23 -11 -39 -12 -83 -3 -62 13 -90 7 -99 -21 -7 -21 -92 -69 -123 -69 -24 0
-52 -30 -52 -56 0 -11 9 -37 20 -59 24 -47 24 -45 3 -45 -10 0 -28 16 -41 36
-24 37 -28 38 -89 19 -18 -6 -25 0 -41 32 -24 45 -33 51 -181 120 -63 29 -124
62 -136 73 -35 33 -96 60 -136 60 -20 0 -42 7 -49 15 -7 8 -28 15 -47 15 -39
0 -39 -11 3 122 28 90 30 134 8 228 -17 77 -24 86 -53 71 -16 -9 -20 -7 -25
15 -4 15 -6 28 -4 29 2 2 343 5 758 9 415 3 819 6 898 7 l142 2 0 2172 0 2172
-97 6 c-189 11 -703 9 -703 -3 0 -6 6 -13 13 -16 7 -2 171 -6 364 -7 280 -2
353 -5 367 -16 15 -13 16 -169 14 -2141 -2 -1171 -6 -2131 -9 -2134 -3 -3
-402 -7 -886 -8 l-881 -3 -18 30 c-11 16 -24 38 -31 48 -15 27 -33 37 -65 37
-38 0 -58 -10 -58 -29 -1 -30 -45 -72 -86 -81 -47 -11 -381 -13 -388 -2 -2 4
-7 195 -10 425 -3 229 -8 463 -11 520 -2 56 -7 313 -10 571 -4 257 -8 473 -10
480 -8 26 -17 653 -20 1447 l-4 846 137 6 c75 3 380 5 677 6 842 0 894 1 901
12 3 6 4 12 2 15 -5 4 -1716 11 -1741 6z m668 -4289 c33 -82 55 -165 55 -209
0 -35 5 -58 16 -68 22 -22 34 -11 34 30 0 20 6 45 12 57 11 19 14 11 19 -63 3
-47 2 -101 -2 -120 -11 -51 -46 -146 -66 -180 -16 -28 -21 -30 -83 -31 -39 0
-90 -9 -130 -22 -63 -22 -65 -23 -65 -57 0 -19 -4 -72 -9 -118 -7 -70 -11 -81
-23 -70 -19 15 -33 -4 -26 -36 4 -20 4 -20 -15 3 -30 37 -43 19 -38 -55 5 -77
-9 -86 -19 -11 -4 28 -14 63 -22 76 -13 20 -17 21 -29 9 -11 -10 -12 -22 -4
-48 6 -19 9 -57 9 -85 -1 -27 -3 -41 -5 -30 -27 135 -42 175 -65 175 -6 0 -19
10 -29 23 -14 17 -21 19 -30 10 -10 -9 -8 -20 8 -50 24 -45 38 -86 46 -130 5
-28 3 -33 -14 -33 -15 0 -20 7 -20 29 0 33 -41 135 -78 195 -32 51 -54 106
-44 106 4 0 17 -7 28 -15 10 -8 32 -15 47 -15 21 0 33 -9 48 -35 24 -40 34
-43 49 -15 9 17 5 25 -23 54 -19 19 -48 37 -65 41 -38 8 -57 28 -40 42 27 20
223 75 233 65 9 -10 189 -10 201 -1 13 10 11 39 -9 139 -18 91 -32 265 -18
234 5 -12 12 -43 16 -70 13 -88 55 -124 55 -46 0 33 1 35 14 16 28 -37 36 -6
25 94 -6 51 -9 105 -7 120 5 41 28 -66 28 -132 0 -62 20 -90 46 -64 13 13 14
27 3 104 -7 49 -20 105 -30 125 -17 34 -16 79 1 79 4 0 11 -8 15 -17z m-78
-25 c-3 -7 -5 -2 -5 12 0 14 2 19 5 13 2 -7 2 -19 0 -25z m-30 -185 c-3 -10
-5 -2 -5 17 0 19 2 27 5 18 2 -10 2 -26 0 -35z m-130 -157 c-3 -93 -23 -153
-55 -164 -17 -5 -15 20 8 80 11 29 20 70 20 90 0 36 15 88 25 88 2 0 3 -42 2
-94z m211 -267 c-34 -20 -21 -39 26 -39 25 0 48 -5 51 -10 4 -7 -2 -9 -19 -4
-29 7 -47 -19 -28 -38 8 -8 8 -15 1 -24 -16 -19 -2 -34 34 -35 22 -1 25 -3 10
-6 -12 -2 -27 -11 -33 -18 -10 -12 -7 -17 15 -25 14 -5 31 -10 36 -10 5 0 9
-5 9 -11 0 -6 -9 -9 -20 -6 -10 3 -24 -1 -30 -8 -11 -14 -8 -18 34 -40 18 -10
20 -33 2 -27 -10 3 -36 -17 -36 -29 0 -5 11 -11 25 -15 30 -7 31 -15 5 -32
-11 -7 -20 -17 -20 -22 0 -6 9 -10 20 -10 22 0 27 -19 9 -37 -7 -7 0 -21 26
-46 34 -33 35 -36 16 -42 -25 -8 -27 -23 -4 -40 9 -7 13 -17 10 -22 -8 -12
-79 -30 -145 -36 -49 -5 -57 -10 -49 -31 7 -17 40 -14 157 15 87 21 100 15 98
-42 -1 -21 5 -45 12 -54 12 -14 10 -19 -15 -39 -24 -19 -27 -28 -22 -54 5 -22
3 -32 -6 -32 -18 0 -93 52 -142 99 -42 40 -68 50 -79 32 -8 -12 109 -118 152
-139 17 -9 32 -19 32 -23 0 -3 -23 -16 -52 -28 l-51 -21 -23 21 c-13 12 -31
44 -41 71 -10 28 -29 59 -42 69 -24 19 -24 19 -48 -3 -22 -20 -24 -30 -21 -91
2 -62 0 -71 -21 -88 -21 -17 -81 -27 -81 -13 0 3 15 25 34 50 30 40 54 99 44
109 -1 2 -15 6 -30 10 -24 6 -28 3 -53 -54 -15 -34 -34 -61 -41 -61 -19 0 -18
50 1 76 8 12 19 50 24 85 9 54 8 66 -6 81 -9 10 -22 18 -30 18 -7 0 -13 5 -13
10 0 7 6 7 19 0 16 -8 25 -3 55 32 44 51 48 64 82 288 2 19 9 89 14 155 6 66
11 131 13 144 2 29 49 49 112 50 32 0 36 -2 23 -10z m382 -38 c46 -37 197
-114 268 -136 12 -3 31 -25 43 -48 28 -56 49 -79 63 -68 18 14 60 21 74 12 10
-6 8 -10 -10 -14 -21 -6 -22 -7 -6 -23 14 -14 20 -15 32 -5 12 10 17 8 26 -9
9 -16 8 -21 -5 -26 -8 -3 -15 -12 -15 -20 0 -17 26 -19 36 -3 9 14 112 -167
120 -211 3 -19 12 -40 19 -46 18 -14 31 -64 16 -64 -6 0 -11 7 -11 15 0 8 -9
24 -20 35 -11 11 -20 29 -20 40 0 11 -9 29 -20 40 -11 11 -20 29 -20 40 0 13
-7 20 -19 20 -10 0 -32 15 -48 33 -40 46 -49 50 -74 35 -18 -11 -22 -11 -26 0
-3 7 -20 33 -39 58 -24 31 -34 55 -34 80 0 31 -3 36 -20 31 -13 -3 -20 0 -20
8 0 19 -20 29 -32 17 -6 -6 -17 -8 -25 -5 -9 4 -16 -2 -20 -16 -7 -29 -33 -27
-33 2 0 31 -10 40 -28 25 -12 -10 -21 -6 -49 27 -19 22 -44 58 -55 80 -11 22
-30 50 -41 62 l-20 23 -34 -20 c-42 -25 -43 -25 -43 2 0 23 26 58 44 58 6 0
27 -13 46 -29z m-162 13 c37 -10 25 -19 -25 -17 -59 2 -55 1 -48 13 7 11 39
13 73 4z m-1397 -14 c68 -5 160 -12 204 -15 44 -3 95 -9 114 -13 39 -9 53 -29
19 -28 -26 1 -36 -27 -17 -50 8 -10 15 -11 25 -4 9 8 15 7 22 -6 13 -24 40
-11 44 20 3 24 4 24 27 -15 l23 -42 -35 7 c-24 5 -37 3 -41 -6 -5 -10 -7 -10
-12 0 -3 6 -12 12 -19 12 -15 0 -30 -35 -21 -49 3 -5 -2 -12 -11 -15 -31 -12
3 -26 66 -27 66 -1 77 4 83 36 2 14 13 0 36 -48 17 -37 32 -76 31 -85 0 -12
-3 -11 -9 6 -5 12 -16 22 -25 22 -9 0 -20 -10 -25 -22 l-9 -23 0 22 c-1 12 -6
25 -11 28 -15 9 -40 -14 -40 -36 0 -27 -28 -24 -32 4 -4 28 -29 28 -44 0 l-11
-23 -11 25 c-15 33 -40 32 -44 -2 -4 -37 -21 -39 -35 -3 -6 16 -18 30 -27 30
-17 0 -19 -8 -17 -50 1 -23 0 -22 -13 8 -8 17 -22 32 -31 32 -10 0 -15 -10
-16 -32 -2 -28 -2 -29 -6 -8 -6 34 -18 44 -40 35 -10 -5 -26 -7 -36 -6 -10 1
-21 -7 -26 -21 -10 -23 -10 -23 -10 3 -1 15 -7 29 -15 32 -21 8 -38 -17 -34
-49 5 -41 -19 -40 -26 1 -9 48 -38 45 -47 -5 -5 -29 -7 -30 -8 -9 -1 29 -24
54 -41 44 -5 -3 -10 -22 -10 -41 0 -40 -17 -46 -22 -6 -4 36 -39 38 -49 2 -7
-24 -7 -24 -8 -2 -1 28 -30 41 -45 21 -9 -13 -15 -13 -36 -2 -32 16 -60 17
-60 1 -1 -9 -5 -7 -13 3 -11 14 -63 20 -87 9 -11 -5 -56 2 -64 10 -5 6 -4 15
3 24 20 24 5 35 -36 26 -41 -10 -53 -6 -53 16 0 41 73 52 83 12 5 -18 11 -19
54 -14 26 3 102 8 168 11 66 3 174 10 240 16 66 5 158 11 205 13 107 5 100 4
100 16 0 6 -7 10 -15 10 -9 0 -15 9 -15 24 0 40 -19 40 -36 1 -16 -39 -36 -43
-39 -7 -1 12 -5 25 -8 28 -10 10 -37 -16 -37 -35 0 -12 -5 -10 -19 8 -19 25
-41 22 -42 -7 0 -11 -4 -9 -10 8 l-10 25 -25 -30 c-16 -21 -24 -25 -24 -14 0
9 -6 22 -14 28 -12 10 -18 6 -33 -21 -16 -31 -18 -32 -21 -10 -2 13 -10 26
-19 29 -17 7 -34 -14 -26 -34 3 -8 -2 -13 -16 -13 -14 0 -23 8 -27 25 -7 28
-22 33 -31 9 -5 -15 -7 -15 -15 0 -13 22 -25 20 -34 -6 l-7 -23 -9 24 c-9 27
-27 18 -32 -15 -2 -10 -8 -20 -14 -22 -6 -2 -8 5 -5 17 7 28 -22 28 -37 1 -6
-12 -21 -20 -35 -20 -22 0 -24 3 -18 30 4 23 2 30 -10 30 -8 0 -21 -13 -29
-30 -14 -32 -28 -40 -28 -15 0 9 -11 21 -25 27 -20 9 -28 8 -43 -5 -17 -15
-19 -15 -35 12 -27 46 -23 51 47 51 36 0 68 5 71 10 4 6 11 8 16 4 6 -3 18 1
28 10 17 15 19 15 24 1 8 -18 33 -20 40 -2 8 21 -11 59 -25 51 -7 -5 -22 -8
-33 -9 -12 0 -20 -6 -19 -16 1 -19 -44 -18 -56 2 -5 7 -15 9 -26 4 -11 -4 -28
-9 -39 -10 -11 -1 -36 -6 -55 -9 -29 -6 -32 -5 -17 4 13 8 17 19 13 34 -5 22
-1 23 87 34 136 17 223 18 242 2 14 -12 22 -12 48 -1 27 11 70 20 143 30 6 0
67 -3 135 -9z m2597 4 c30 -9 60 -63 40 -75 -10 -6 -6 -15 18 -36 38 -35 55
-73 42 -96 -16 -30 -38 -21 -31 13 3 20 1 30 -6 30 -8 0 -10 8 -6 20 4 14 1
22 -10 26 -24 9 -31 -4 -16 -29 13 -20 13 -21 -3 -8 -14 12 -19 11 -34 -3 -10
-9 -26 -16 -36 -16 -9 0 -19 -7 -22 -15 -5 -13 -10 -12 -34 5 -29 20 -40 18
-40 -10 0 -13 -7 -17 -29 -14 -40 5 -60 -20 -32 -38 30 -18 26 -38 -7 -38 -15
0 -33 -5 -40 -12 -7 -7 -43 -13 -80 -15 -37 -1 -68 -2 -70 -2 -12 -3 58 -59
81 -64 45 -12 32 -33 -28 -44 -43 -8 -58 -7 -66 4 -6 7 -18 13 -25 13 -14 0
-59 78 -51 87 3 2 15 -1 27 -7 18 -10 25 -9 37 3 13 13 11 21 -19 68 -19 30
-42 60 -51 68 -32 26 -10 79 27 65 10 -4 18 0 22 10 3 9 14 16 23 16 9 0 28 7
43 14 26 14 29 13 38 -5 14 -24 30 -25 30 0 0 21 -23 45 -33 34 -4 -3 -7 -2
-7 4 0 30 64 34 131 8 9 -3 22 1 29 10 16 19 40 20 40 0 0 -8 9 -15 21 -15 13
0 25 -11 35 -35 15 -37 31 -45 41 -19 4 10 -8 29 -32 54 l-38 39 39 4 c22 2
44 4 49 5 6 1 20 -1 33 -4z m-3698 -49 c7 -8 15 -13 19 -11 3 2 17 -2 31 -10
l25 -13 -27 -1 c-16 0 -28 -5 -28 -11 0 -7 -8 -18 -17 -24 -17 -12 -17 -14 1
-34 16 -18 17 -21 3 -21 -27 0 -32 -22 -9 -41 21 -16 21 -17 2 -22 -26 -7 -17
-31 16 -46 24 -11 25 -14 19 -64 -4 -30 -15 -60 -26 -72 -16 -17 -19 -17 -19
-3 0 9 -3 23 -6 32 -4 11 -1 16 10 16 9 0 16 8 16 20 0 15 -7 20 -29 20 -24 0
-30 5 -34 29 -4 16 -20 52 -37 79 -16 27 -30 57 -30 66 0 10 17 39 38 64 54
68 61 72 82 47z m2658 -40 c17 -38 14 -43 -8 -15 -21 27 -25 40 -12 40 5 0 14
-11 20 -25z m1186 3 c18 -25 21 -64 6 -73 -6 -4 -10 6 -10 21 0 15 -10 38 -22
51 -18 19 -19 23 -5 23 9 0 23 -10 31 -22z m-2239 2 c-3 -5 -10 -10 -16 -10
-5 0 -9 5 -9 10 0 6 7 10 16 10 8 0 12 -4 9 -10z m-1233 -30 c5 -36 -4 -40
-83 -40 -55 0 -59 2 -59 23 0 20 7 25 53 34 83 16 84 16 89 -17z m2150 -7 c-4
-26 14 -39 33 -23 12 10 15 9 15 -9 0 -14 6 -21 19 -21 10 0 21 -7 25 -15 6
-17 36 -20 36 -4 0 17 29 -9 45 -41 8 -15 12 -36 10 -46 -2 -10 -7 -37 -11
-59 l-8 -40 -5 33 c-8 44 -25 41 -32 -5 -4 -22 -7 -28 -8 -15 -1 31 -20 64
-32 57 -5 -4 -9 -37 -9 -75 0 -38 -3 -71 -7 -73 -5 -3 -8 19 -8 48 0 58 -6 71
-30 62 -11 -5 -15 -22 -15 -73 0 -88 -11 -76 -16 17 -4 81 -17 105 -40 75 -14
-19 -14 -19 -28 -1 -20 27 -37 211 -21 226 2 3 24 5 47 5 38 -1 43 -3 40 -23z
m-2362 -13 c0 -11 -7 -20 -15 -20 -18 0 -19 12 -3 28 16 16 18 15 18 -8z
m1501 -5 c0 -13 -41 -19 -41 -7 0 11 20 22 33 18 5 -1 8 -6 8 -11z m-1295 -57
c4 -13 2 -24 -5 -26 -6 -2 -11 -16 -11 -31 0 -25 -3 -28 -26 -23 -24 4 -25 3
-19 -31 4 -19 2 -43 -3 -53 -9 -16 -11 -14 -20 16 -6 25 -14 35 -27 33 -11 -1
-24 6 -31 14 -6 10 -18 14 -28 10 -21 -8 -20 1 3 56 19 44 19 44 72 46 28 0
54 3 57 6 12 12 31 3 38 -17z m74 -5 c0 -13 -3 -13 -15 -3 -8 7 -12 16 -9 21
8 13 24 1 24 -18z m-306 -20 c-4 -16 -15 -46 -25 -68 l-19 -40 0 42 c0 53 15
93 35 93 12 0 14 -6 9 -27z m3615 -10 c-1 -10 2 -34 5 -53 5 -29 1 -41 -24
-70 -31 -35 -44 -22 -15 16 8 11 14 41 15 72 0 28 4 52 9 52 6 0 10 -8 10 -17z
m-3835 -93 c7 -34 6 -33 -22 15 -15 28 -26 56 -24 63 7 19 38 -34 46 -78z
m505 41 c-16 -5 -33 15 -24 30 6 9 12 7 22 -7 9 -13 10 -20 2 -23z m3232 -34
c-16 -16 -26 0 -10 19 9 11 15 12 17 4 2 -6 -1 -17 -7 -23z m-1902 14 c15 -10
7 -31 -12 -31 -21 0 -40 17 -33 29 9 13 26 14 45 2z m1111 -25 c-8 -8 -32 -18
-52 -21 -30 -6 -38 -4 -38 8 0 19 15 25 65 26 34 1 37 -1 25 -13z m733 -2 c-3
-15 -18 -15 -38 0 -19 14 -18 15 10 12 17 -2 29 -7 28 -12z m-642 -13 c26 -21
21 -36 -8 -27 -25 8 -49 46 -29 46 7 0 24 -9 37 -19z m-468 -53 c3 -21 2 -38
-4 -38 -5 0 -9 19 -9 42 0 49 5 47 13 -4z m1298 -1 c-17 -17 -24 -1 -10 25 12
21 14 21 17 4 2 -10 -1 -23 -7 -29z m-3405 -17 c-1 -55 -16 -70 -16 -16 0 31
8 66 15 66 1 0 2 -22 1 -50z m1394 24 c0 -8 -5 -12 -10 -9 -6 4 -8 11 -5 16 9
14 15 11 15 -7z m-1662 -124 c0 -31 -2 -29 -19 25 -10 33 -18 71 -18 85 1 39
37 -68 37 -110z m1417 120 c3 -5 -1 -10 -9 -10 -9 0 -16 5 -16 10 0 6 4 10 9
10 6 0 13 -4 16 -10z m136 -2 c17 -10 23 -10 26 0 6 16 23 16 23 -1 0 -7 -10
-17 -22 -22 -16 -7 -24 -20 -26 -41 -2 -22 -9 -34 -23 -37 -16 -4 -18 -11 -13
-31 8 -33 -17 -36 -38 -4 -18 27 -48 18 -48 -13 0 -12 -3 -19 -7 -15 -4 4 -8
15 -8 24 0 11 -8 17 -25 17 -21 0 -25 -5 -25 -27 1 -35 -11 -36 -19 -3 -5 19
-13 25 -32 25 -23 0 -25 -3 -20 -25 5 -18 2 -25 -8 -25 -8 0 -16 10 -18 23 -2
14 -10 22 -23 22 -13 0 -21 -8 -23 -22 -2 -13 -7 -23 -12 -23 -5 0 -10 10 -12
23 -2 14 -11 23 -25 25 -19 3 -23 -1 -23 -22 0 -23 -4 -26 -33 -26 -24 0 -35
6 -42 23 -15 33 -49 29 -53 -6 -3 -22 -8 -28 -25 -25 -13 2 -23 13 -27 28 -9
37 -46 35 -43 -2 1 -21 -3 -28 -17 -28 -13 0 -20 8 -22 28 -4 38 -45 44 -54 8
-8 -32 -26 -33 -39 -3 -6 12 -17 22 -25 22 -8 0 -16 -10 -18 -22 -2 -15 -10
-23 -22 -23 -12 0 -20 8 -22 23 -2 14 -10 22 -23 22 -13 0 -21 -8 -23 -22 -3
-18 -10 -23 -33 -23 -25 0 -29 3 -24 19 6 20 -18 46 -35 36 -5 -3 -10 -17 -10
-29 0 -13 -7 -29 -15 -36 -16 -13 -20 -7 -27 35 -5 31 -32 23 -43 -12 -5 -18
-13 -33 -18 -33 -4 0 -5 9 -2 20 9 28 -13 54 -31 39 -8 -6 -14 -17 -14 -23 0
-7 -7 -21 -16 -32 -16 -19 -16 -17 0 34 6 18 3 22 -12 22 -14 0 -21 8 -24 30
-5 33 11 40 33 14 12 -14 32 -15 169 -9 85 4 158 9 161 10 13 9 281 27 594 41
163 7 194 14 202 44 6 24 7 24 34 8z m1895 3 c-3 -4 -18 -11 -33 -14 -40 -8
-101 -63 -113 -100 l-10 -32 5 35 c8 51 35 81 91 101 57 20 67 22 60 10z
m-2176 -11 c0 -5 -7 -10 -16 -10 -8 0 -12 5 -9 10 3 6 10 10 16 10 5 0 9 -4 9
-10z m-1436 -61 c2 -24 6 -54 10 -65 4 -14 1 -26 -9 -34 -20 -17 -32 -5 -15
15 10 12 10 19 2 27 -7 7 -12 37 -12 67 0 66 20 58 24 -10z m2776 45 c0 -2 -7
-4 -15 -4 -8 0 -15 4 -15 10 0 5 7 7 15 4 8 -4 15 -8 15 -10z m850 -4 c0 -5
-9 -10 -19 -10 -18 0 -81 -62 -81 -80 0 -18 25 -65 38 -74 12 -7 12 -10 1 -16
-8 -5 -18 -2 -25 8 -17 23 -39 2 -31 -30 10 -36 9 -42 -2 -46 -6 -2 -11 4 -11
12 0 9 -5 24 -11 35 -18 28 -3 83 37 135 41 54 104 94 104 66z m-790 -15 c0
-8 11 -17 25 -20 14 -3 37 -7 51 -10 16 -4 33 0 43 9 14 13 23 12 74 -10 40
-17 62 -22 71 -15 7 6 17 6 26 1 9 -5 19 -5 26 1 28 23 124 -99 123 -156 0
-13 -5 -7 -12 14 -14 39 -41 61 -57 45 -7 -7 -3 -27 10 -64 21 -58 24 -102 10
-135 -6 -15 -9 -7 -9 31 -1 35 -6 54 -15 57 -21 8 -35 -14 -42 -67 -4 -25 -11
-46 -15 -46 -5 0 -9 5 -9 10 0 14 -30 12 -35 -2 -2 -7 -9 -33 -16 -58 -11 -40
-13 -42 -19 -20 -9 39 -42 33 -53 -10 -5 -19 -12 -29 -14 -22 -8 20 -30 14
-53 -15 l-21 -28 5 25 c11 51 -29 64 -52 17 -9 -19 -11 -17 -11 21 -1 23 4 51
11 62 7 10 8 23 4 27 -5 4 -11 2 -13 -4 -3 -7 -16 -13 -29 -13 -23 0 -24 2
-24 75 0 60 3 75 15 75 21 0 19 17 -5 30 -21 11 -28 40 -9 40 6 0 9 6 6 13 -2
6 -11 11 -21 9 -11 -2 -16 4 -16 19 0 12 -7 31 -16 40 -15 17 -15 21 12 53 31
37 54 46 54 21z m940 6 c0 -12 -70 -57 -103 -65 -38 -9 -32 15 6 25 15 4 39
16 54 28 30 22 43 26 43 12z m24 -42 c-20 -34 -29 -40 -81 -57 -41 -13 -44 2
-4 16 16 6 44 26 62 45 41 41 48 40 23 -4z m-1978 10 c10 -16 -23 -46 -36 -33
-6 6 -8 18 -4 27 7 19 29 22 40 6z m883 -35 c-10 -12 -8 -19 8 -37 45 -51 71
-188 38 -201 -8 -3 -15 0 -16 7 -4 92 -19 173 -38 198 -19 25 -20 30 -6 35 8
3 15 14 16 23 0 10 2 12 6 3 3 -7 -1 -19 -8 -28z m-169 -9 c0 -32 -12 -32 -27
0 -10 22 -9 25 8 25 14 0 19 -7 19 -25z m1084 -31 c3 -9 -1 -14 -14 -14 -21 0
-34 15 -25 30 7 12 32 2 39 -16z m-1894 -55 c0 -26 -2 -30 -15 -19 -20 17 -35
4 -36 -33 0 -30 -1 -30 -11 -10 -8 17 -19 21 -54 21 -24 0 -44 -4 -44 -8 0 -5
-12 -8 -27 -7 -26 2 -27 0 -24 -45 1 -29 -2 -48 -8 -48 -6 0 -11 20 -11 46 0
41 -2 45 -22 42 -19 -2 -24 -11 -29 -48 -5 -35 -6 -38 -7 -14 -2 34 -24 60
-42 49 -5 -3 -10 -22 -10 -41 0 -19 -4 -34 -10 -34 -5 0 -10 18 -10 41 0 36
-2 40 -22 37 -19 -2 -23 -9 -23 -35 0 -18 -5 -33 -10 -33 -7 0 -9 14 -7 34 3
23 -1 35 -12 39 -8 3 -18 2 -21 -3 -3 -5 -19 -7 -35 -3 -25 4 -30 2 -31 -13 0
-17 -1 -17 -9 2 -5 14 -21 24 -45 28 -42 8 -46 6 -62 -37 -12 -32 -12 -32 -6
9 9 71 -39 72 -53 1 l-7 -42 -6 40 c-5 32 -11 41 -28 43 -21 3 -23 -1 -23 -38
0 -29 -4 -40 -12 -37 -9 2 -12 18 -10 45 3 36 1 42 -16 42 -21 0 -32 -18 -32
-52 0 -32 -6 -18 -13 28 l-7 41 338 1 c331 1 474 10 495 31 16 16 17 14 17
-20z m945 14 c20 -54 26 -236 7 -255 -6 -6 -15 -8 -19 -5 -9 9 -10 277 -2 277
4 0 10 -8 14 -17z m1150 -30 c8 -42 -7 -63 -44 -63 -15 0 -32 -5 -39 -12 -7
-7 -12 -8 -12 -2 0 6 16 25 35 44 34 33 45 60 25 60 -5 0 -10 4 -10 9 0 5 9 7
19 4 12 -3 21 -17 26 -40z m190 7 c13 0 27 -5 31 -12 4 -7 3 -8 -5 -4 -6 4
-23 0 -37 -8 -26 -18 -27 -18 -39 39 -6 30 -6 30 10 8 9 -13 27 -23 40 -23z
m-1415 16 c0 -2 3 -12 6 -21 6 -14 3 -14 -20 -4 -31 14 -34 29 -6 29 11 0 20
-2 20 -4z m-2312 -13 c-10 -2 -26 -2 -35 0 -10 3 -2 5 17 5 19 0 27 -2 18 -5z
m3333 -41 c-2 -29 3 -43 23 -61 14 -14 26 -31 26 -40 0 -12 -6 -9 -25 9 -28
29 -59 127 -41 133 17 6 20 -1 17 -41z m-3527 32 c9 -3 14 -10 11 -15 -7 -10
-35 0 -35 12 0 11 3 11 24 3z m291 -4 c19 -8 19 -9 -2 -9 -12 -1 -25 4 -28 9
-7 12 2 12 30 0z m468 -1 c-13 -13 -83 -19 -83 -7 0 6 18 10 80 16 10 2 11 -1
3 -9z m-133 -24 c0 -8 -4 -15 -10 -15 -5 0 -10 7 -10 15 0 8 5 15 10 15 6 0
10 -7 10 -15z m-66 -21 c8 -29 -5 -50 -23 -40 -6 4 -11 16 -11 26 0 10 -5 22
-10 25 -17 10 -41 -16 -35 -36 6 -16 1 -19 -32 -19 -34 1 -36 2 -20 14 23 18
22 30 -3 23 -11 -3 -20 -1 -20 3 0 5 17 12 38 15 20 4 42 8 47 10 6 2 22 4 36
4 21 1 28 -5 33 -25z m1159 0 c3 -17 0 -28 -10 -31 -19 -7 -32 13 -26 38 8 28
30 23 36 -7z m799 -14 c-3 -33 -7 -39 -18 -29 -19 16 -18 46 4 58 9 6 17 11
17 11 0 0 -1 -18 -3 -40z m-2811 7 c-1 -12 -15 -9 -19 4 -3 6 1 10 8 8 6 -3
11 -8 11 -12z m1039 -18 c0 -21 -16 -26 -23 -6 -6 17 3 38 14 31 5 -3 9 -14 9
-25z m-923 -1 c-3 -8 -6 -5 -6 6 -1 11 2 17 5 13 3 -3 4 -12 1 -19z m850 0
c-3 -8 -6 -5 -6 6 -1 11 2 17 5 13 3 -3 4 -12 1 -19z m855 -33 c-6 -34 -12
-32 -12 6 0 16 4 28 9 25 4 -3 6 -17 3 -31z m-475 3 c-3 -8 -6 -5 -6 6 -1 11
2 17 5 13 3 -3 4 -12 1 -19z m2639 -43 c-1 -5 -14 -11 -29 -13 -28 -3 -53 28
-43 54 4 11 12 9 40 -9 19 -12 34 -26 32 -32z m-3906 35 c0 -5 -4 -10 -10 -10
-5 0 -10 5 -10 10 0 6 5 10 10 10 6 0 10 -4 10 -10z m140 0 c0 -5 -4 -10 -9
-10 -6 0 -13 5 -16 10 -3 6 1 10 9 10 9 0 16 -4 16 -10z m3885 -10 c3 -5 -3
-10 -14 -10 -12 0 -21 5 -21 10 0 6 6 10 14 10 8 0 18 -4 21 -10z m-519 -57
c-7 -7 -26 7 -26 19 0 6 6 6 15 -2 9 -7 13 -15 11 -17z m97 12 c-4 -15 -36
-12 -41 3 -3 9 3 13 19 10 13 -1 23 -7 22 -13z m77 5 c0 -5 -4 -10 -9 -10 -6
0 -13 5 -16 10 -3 6 1 10 9 10 9 0 16 -4 16 -10z m558 -40 c6 -16 9 -30 7 -30
-5 0 -35 56 -35 65 0 15 19 -8 28 -35z m-4767 16 l24 5 -24 -11 c-27 -12 -51
-7 -51 11 0 8 4 8 13 1 7 -6 24 -9 38 -6z m258 -6 c-39 -11 -151 -12 -144 0 3
5 43 10 88 9 56 0 74 -3 56 -9z m921 -6 c0 -2 -26 -3 -57 -3 -44 1 -51 3 -28
8 29 6 85 3 85 -5z m188 -1 c-32 -2 -84 -2 -115 0 -32 2 -6 3 57 3 63 0 89 -1
58 -3z m3242 -3 c0 -5 -9 -10 -21 -10 -11 0 -17 5 -14 10 3 6 13 10 21 10 8 0
14 -4 14 -10z m-370 -15 c0 -8 -4 -15 -10 -15 -5 0 -10 7 -10 15 0 8 5 15 10
15 6 0 10 -7 10 -15z m95 6 c3 -5 1 -13 -5 -16 -15 -9 -43 3 -35 15 8 13 32
13 40 1z m175 -1 c0 -5 -9 -10 -19 -10 -11 0 -23 5 -26 10 -4 6 5 10 19 10 14
0 26 -4 26 -10z m-3566 -15 c-8 -19 -86 -21 -409 -10 -176 6 -47 18 237 23
155 2 177 0 172 -13z m3221 6 c10 -17 -12 -21 -25 -6 -10 12 -10 15 3 15 9 0
18 -4 22 -9z m-3912 -11 c7 0 5 -5 -5 -10 -19 -12 -51 -3 -42 12 3 5 13 7 21
4 8 -3 20 -6 26 -6z m80 3 c-7 -2 -21 -2 -30 0 -10 3 -4 5 12 5 17 0 24 -2 18
-5z m60 0 c-7 -2 -21 -2 -30 0 -10 3 -4 5 12 5 17 0 24 -2 18 -5z m3682 -3 c3
-5 1 -10 -4 -10 -6 0 -11 5 -11 10 0 6 2 10 4 10 3 0 8 -4 11 -10z m-3925 -10
c-8 -5 -28 -10 -45 -10 -23 0 -27 3 -15 10 8 5 29 10 45 10 23 0 27 -3 15 -10z
m1430 0 c0 -6 -46 -9 -122 -8 l-123 2 105 6 c58 3 113 7 123 8 9 1 17 -2 17
-8z m380 0 c80 -6 61 -7 -117 -8 -132 -1 -214 2 -218 8 -7 12 186 12 335 0z
m2040 0 c0 -5 -2 -10 -4 -10 -3 0 -8 5 -11 10 -3 6 -1 10 4 10 6 0 11 -4 11
-10z m-1767 -17 c-13 -2 -33 -2 -45 0 -13 2 -3 4 22 4 25 0 35 -2 23 -4z
m2317 -8 c0 -10 -10 -15 -30 -15 -20 0 -30 5 -30 15 0 10 10 15 30 15 20 0 30
-5 30 -15z m-205 -5 c-27 -12 -35 -12 -35 0 0 6 12 10 28 9 24 0 25 -1 7 -9z
m85 0 c0 -5 -2 -10 -4 -10 -3 0 -8 5 -11 10 -3 6 -1 10 4 10 6 0 11 -4 11 -10z
m-245 -10 c-3 -5 -10 -10 -16 -10 -5 0 -9 5 -9 10 0 6 7 10 16 10 8 0 12 -4 9
-10z m-145 -26 c0 -8 -4 -14 -9 -14 -11 0 -22 26 -14 34 9 9 23 -3 23 -20z
m70 22 c0 -3 -4 -8 -10 -11 -5 -3 -10 -1 -10 4 0 6 5 11 10 11 6 0 10 -2 10
-4z m-155 -16 c3 -5 1 -10 -4 -10 -6 0 -11 5 -11 10 0 6 2 10 4 10 3 0 8 -4
11 -10z m-70 -10 c3 -5 1 -10 -4 -10 -6 0 -11 5 -11 10 0 6 2 10 4 10 3 0 8
-4 11 -10z m922 -6 c-3 -3 -12 -4 -19 -1 -8 3 -5 6 6 6 11 1 17 -2 13 -5z
m-1749 -59 c-14 -31 -23 -25 -14 10 4 14 11 23 16 20 6 -3 5 -16 -2 -30z
m1752 25 c0 -13 -20 -13 -40 0 -12 8 -9 10 13 10 15 0 27 -4 27 -10z m-1970
-25 c-7 -9 -15 -13 -17 -11 -7 7 7 26 19 26 6 0 6 -6 -2 -15z m1960 -57 c-1
-29 -22 -58 -44 -58 -10 0 -16 8 -16 25 0 14 -6 25 -12 25 -15 1 41 28 60 29
6 1 12 -9 12 -21z m40 -98 c11 -7 5 -10 -23 -10 -23 0 -36 4 -32 10 8 13 35
13 55 0z m-1590 -38 c0 -5 -3 -12 -7 -16 -5 -4 -8 -24 -8 -44 0 -21 -4 -37
-10 -37 -11 0 -12 61 -2 88 7 17 27 24 27 9z m175 -12 c-3 -4 -6 -29 -7 -54
-1 -36 -5 -46 -16 -44 -11 2 -16 16 -16 48 -1 38 -4 45 -21 45 -17 0 -20 -8
-23 -47 -3 -43 -5 -48 -28 -48 -21 0 -24 4 -24 38 0 20 -5 44 -10 52 -8 13 0
16 48 20 64 6 104 2 97 -10z m-3421 -8 c-1 -7 -2 -25 -2 -42 -3 -43 -28 -38
-35 7 -4 24 -2 40 6 45 16 10 32 5 31 -10z m56 -24 c0 -49 -5 -47 -13 5 -3 20
-2 37 4 37 5 0 9 -19 9 -42z m57 20 c-3 -8 -6 -5 -6 6 -1 11 2 17 5 13 3 -3 4
-12 1 -19z m163 -23 c0 -49 -15 -61 -22 -17 -3 15 -9 35 -13 45 -5 13 -2 17
14 17 18 0 21 -6 21 -45z m75 0 c0 -22 -5 -40 -12 -42 -9 -3 -13 9 -13 42 0
33 4 45 13 43 7 -3 12 -21 12 -43z m77 0 c2 -36 0 -45 -12 -43 -23 5 -25 88
-1 88 5 0 11 -20 13 -45z m74 29 c-3 -9 -6 -29 -6 -45 0 -16 -4 -29 -10 -29
-11 0 -14 73 -3 83 12 13 25 7 19 -9z m84 -16 c0 -39 -13 -63 -29 -54 -12 8
-15 68 -4 79 17 18 33 5 33 -25z m71 23 c-8 -5 -17 -26 -21 -47 l-8 -39 -1 41
c-1 44 4 54 28 54 13 0 14 -2 2 -9z m176 3 c14 -4 20 -11 15 -18 -4 -6 -7 -18
-8 -26 -3 -45 -5 -51 -14 -45 -5 3 -10 22 -10 41 0 27 -4 34 -19 34 -16 0 -20
-8 -23 -37 -4 -44 -23 -42 -23 2 0 23 -4 30 -20 30 -15 0 -21 -8 -23 -32 -5
-48 -19 -40 -24 12 l-3 45 65 0 c36 0 75 -3 87 -6z m347 -16 c11 -42 7 -78 -9
-78 -11 0 -15 11 -15 39 0 45 -13 59 -36 40 -11 -9 -14 -22 -9 -46 4 -25 2
-33 -9 -33 -10 0 -16 13 -18 43 -2 34 -7 42 -23 42 -17 0 -20 -7 -20 -43 0
-23 -4 -42 -8 -42 -9 0 -14 13 -21 63 l-5 37 83 0 c78 0 84 -1 90 -22z m71 12
c-3 -5 -11 -10 -16 -10 -6 0 -7 5 -4 10 3 6 11 10 16 10 6 0 7 -4 4 -10z m267
-45 c-3 -40 -7 -52 -17 -48 -8 2 -15 19 -17 36 -2 24 -8 32 -23 32 -16 0 -20
-6 -19 -32 3 -48 -24 -43 -28 5 -2 29 -7 37 -23 37 -16 0 -21 -9 -26 -40 l-6
-40 -2 36 c0 24 -7 39 -17 43 -24 9 -34 -2 -34 -40 0 -24 -4 -34 -12 -31 -7 2
-13 19 -13 38 0 19 -4 40 -8 47 -7 10 18 12 120 11 l128 -1 -3 -53z m136 45
c-12 -8 -18 -24 -18 -50 0 -29 -4 -40 -15 -40 -12 0 -15 9 -13 38 3 33 0 37
-19 36 -22 -1 -29 7 -18 17 2 3 26 6 52 7 38 2 44 0 31 -8z m67 -44 c-9 -60
-32 -61 -37 -1 -3 38 0 45 17 48 28 4 27 4 20 -47z m81 38 c-3 -9 -6 -31 -6
-50 0 -23 -5 -34 -14 -34 -11 0 -15 13 -14 50 0 43 3 50 20 50 14 0 18 -5 14
-16z m139 -34 c0 -63 -22 -69 -27 -7 -2 34 -7 42 -23 42 -16 0 -21 -8 -23 -42
-4 -53 -22 -57 -22 -5 0 21 -5 43 -12 50 -9 9 1 12 48 12 l59 0 0 -50z m207
34 c-6 -10 -6 -29 -2 -46 5 -15 5 -30 1 -33 -14 -8 -21 7 -21 42 0 26 -4 33
-20 33 -16 0 -20 -7 -20 -35 0 -19 -4 -35 -9 -35 -5 0 -8 14 -7 32 1 24 -4 33
-18 36 -23 5 -36 -14 -36 -50 0 -16 -4 -28 -9 -28 -10 0 -21 35 -21 71 0 26 0
26 86 28 78 2 85 0 76 -15z m70 -9 c-7 -37 -19 -39 -24 -5 -4 23 -1 30 12 30
13 0 16 -6 12 -25z m78 6 c-5 -11 -10 -33 -10 -50 0 -22 -5 -31 -16 -31 -13 0
-15 7 -10 31 3 17 6 40 6 50 0 12 7 19 20 19 17 0 19 -3 10 -19z m229 -31 c0
-44 -2 -50 -19 -50 -16 0 -20 7 -20 31 0 26 -3 30 -22 27 -17 -2 -24 -11 -26
-30 -2 -16 -8 -28 -13 -28 -9 0 -11 6 -13 55 -1 23 -6 30 -21 30 -16 0 -21 -8
-23 -42 -2 -30 -8 -43 -18 -43 -11 0 -14 11 -12 50 l3 50 91 0 91 0 2 -50z
m133 38 c-7 -7 -12 -29 -12 -50 0 -21 -4 -38 -10 -38 -11 0 -14 59 -4 84 3 9
13 16 22 16 12 0 13 -3 4 -12z m110 0 c-7 -7 -12 -29 -12 -50 0 -35 -2 -38
-29 -38 -28 0 -29 2 -33 50 l-3 50 45 0 c34 0 41 -3 32 -12z m93 -38 c0 -49
-1 -50 -30 -50 -30 0 -30 1 -30 50 0 49 1 50 30 50 29 0 30 -1 30 -50z m241
34 c-3 -9 -6 -31 -6 -50 0 -22 -5 -34 -14 -34 -17 0 -26 22 -26 61 0 17 -5 29
-13 29 -24 0 -35 -22 -30 -56 5 -30 3 -34 -16 -34 -17 0 -21 6 -21 34 0 36
-21 62 -41 51 -6 -4 -9 -24 -7 -46 2 -25 -1 -39 -8 -39 -7 0 -13 20 -16 50
l-3 50 104 0 c90 0 102 -2 97 -16z m68 -9 c-9 -14 -14 -36 -12 -50 3 -14 1
-28 -3 -31 -5 -3 -9 20 -9 50 0 50 2 56 20 56 20 0 20 -1 4 -25z m309 -15 c-4
-25 -1 -46 7 -55 10 -13 9 -15 -10 -15 -18 0 -21 4 -16 23 3 12 6 37 6 55 0
17 4 32 9 32 5 0 7 -18 4 -40z m281 25 c-7 -17 -20 -20 -29 -5 -3 6 -13 10
-21 10 -10 0 -14 -13 -15 -42 l-1 -43 -11 43 c-5 23 -15 42 -22 42 -13 0 -37
-24 -31 -31 2 -2 6 -19 9 -36 6 -28 4 -33 -13 -33 -16 0 -20 7 -20 33 0 38
-22 73 -38 63 -7 -4 -12 -27 -12 -52 0 -38 -3 -44 -21 -44 -15 0 -19 4 -15 16
3 9 6 33 6 55 l0 39 120 0 c102 0 119 -2 114 -15z m84 -41 c2 -48 0 -55 -15
-52 -12 2 -21 20 -29 56 l-12 52 27 0 c25 0 27 -3 29 -56z m239 48 c22 -4 24
-8 18 -36 -4 -17 -7 -41 -6 -53 0 -14 -5 -23 -14 -23 -10 0 -15 14 -17 48 -3
39 -6 47 -23 47 -17 0 -20 -6 -18 -35 4 -60 -9 -69 -22 -15 -10 44 -14 50 -38
50 -14 0 -32 6 -39 13 -11 11 0 13 61 11 40 -1 85 -4 98 -7z m-3174 -13 c-6
-6 -9 -26 -6 -45 4 -22 2 -34 -6 -34 -6 0 -11 15 -11 33 0 18 -5 38 -12 45 -9
9 -6 12 17 12 21 0 26 -3 18 -11z m63 -31 c-1 -47 -21 -63 -29 -22 -6 34 2 64
18 64 7 0 12 -15 11 -42z m3194 -13 c0 -50 -10 -69 -24 -46 -8 13 5 101 15
101 5 0 9 -25 9 -55z m60 -1 c0 -34 -4 -53 -10 -49 -5 3 -10 28 -10 56 0 27 5
49 10 49 6 0 10 -25 10 -56z m67 6 c-5 -27 -14 -50 -19 -50 -6 0 -8 10 -4 23
3 12 6 34 6 50 0 16 5 27 14 27 10 0 11 -10 3 -50z m72 -5 c-1 -48 -4 -55 -22
-55 -17 0 -19 5 -13 38 3 20 6 45 6 55 0 9 7 17 15 17 12 0 15 -12 14 -55z
m81 0 c0 -47 -3 -55 -19 -55 -25 0 -32 22 -25 71 5 29 11 39 25 39 16 0 19 -8
19 -55z m62 0 c2 -44 0 -55 -12 -55 -12 0 -14 11 -12 55 2 30 8 55 12 55 4 0
10 -25 12 -55z m70 0 c3 -47 0 -55 -14 -55 -15 0 -18 9 -18 55 0 41 4 55 14
55 10 0 15 -16 18 -55z m58 31 c0 -13 3 -38 6 -55 5 -26 3 -31 -12 -31 -17 0
-19 7 -16 55 4 53 22 80 22 31z m66 -13 c-13 -74 -20 -81 -27 -28 -7 56 -5 65
18 65 12 0 14 -7 9 -37z m56 -5 c2 -35 7 -43 23 -43 17 0 19 6 17 43 -3 33 0
42 12 42 13 0 16 -11 16 -53 l0 -54 -50 -1 c-49 -1 -50 0 -46 26 2 15 5 39 5
55 1 43 20 31 23 -15z m-2172 -16 c0 -21 -2 -24 -10 -12 -13 20 -13 53 0 45 6
-3 10 -18 10 -33z m1323 -41 c-7 -9 -14 8 -19 45 l-4 39 13 -40 c8 -22 12 -42
10 -44z m-3793 34 c0 -8 -4 -15 -10 -15 -5 0 -10 7 -10 15 0 8 5 15 10 15 6 0
10 -7 10 -15z m3649 -27 c1 -5 -6 -8 -14 -8 -15 0 -21 31 -8 44 7 6 20 -17 22
-36z m-1544 12 c3 -5 1 -10 -4 -10 -6 0 -11 5 -11 10 0 6 2 10 4 10 3 0 8 -4
11 -10z"/>
<path d="M2995 3273 c-32 -8 -42 -23 -24 -36 8 -7 18 -20 22 -31 5 -11 13 -16
23 -12 9 3 24 6 35 6 26 0 24 30 -5 58 -13 12 -25 21 -27 21 -2 -1 -13 -3 -24
-6z"/>
<path d="M3097 2604 c-14 -15 -6 -23 31 -33 33 -9 96 -15 130 -12 20 2 14 21
-10 30 -33 12 -143 23 -151 15z"/>
<path d="M3835 2976 c-17 -13 -17 -15 10 -50 15 -20 34 -36 41 -36 23 0 17 54
-9 78 -20 19 -26 20 -42 8z"/>
<path d="M3965 2850 c-4 -7 -3 -16 3 -22 14 -14 45 -2 40 15 -6 16 -34 21 -43
7z"/>
<path d="M2106 3201 c-4 -6 -14 -7 -22 -4 -9 3 -20 0 -24 -7 -7 -11 -12 -11
-23 -2 -11 10 -17 9 -27 -3 -16 -20 -30 -19 -46 3 -13 16 -15 16 -29 -2 -15
-19 -15 -19 -29 -1 -12 17 -16 18 -32 5 -13 -12 -18 -12 -21 -2 -6 17 -33 15
-33 -3 0 -18 -26 -20 -33 -2 -3 10 -9 10 -26 0 -28 -17 -41 -16 -41 2 0 20
-29 19 -37 -1 -5 -12 -7 -13 -14 -3 -4 8 -22 14 -40 15 -23 1 -33 -3 -36 -17
-7 -24 -14 -24 -37 2 -24 29 -42 12 -29 -28 l10 -28 129 5 c177 6 348 5 416
-4 45 -6 57 -11 56 -24 -3 -40 3 -62 17 -62 8 0 15 5 15 11 0 6 8 8 19 4 22
-7 44 16 35 39 -8 21 -24 20 -39 0 -11 -15 -12 -15 -18 5 -4 16 -1 21 14 21
20 0 35 39 25 65 -8 21 -27 19 -33 -5 -7 -27 -31 -26 -35 2 -3 24 -23 35 -32
19z"/>
<path d="M4327 3160 c7 -25 37 -42 66 -38 30 4 29 33 -1 34 -13 1 -28 6 -35
13 -18 18 -36 13 -30 -9z"/>
<path d="M4106 3152 c-2 -4 -1 -14 5 -22 5 -8 9 -25 9 -37 0 -13 6 -23 14 -23
25 0 28 18 10 55 -16 34 -28 43 -38 27z"/>
<path d="M4250 3035 c0 -9 5 -15 11 -13 6 2 11 8 11 13 0 5 -5 11 -11 13 -6 2
-11 -4 -11 -13z"/>
<path d="M2761 8091 c-35 -33 -38 -56 -15 -122 16 -44 16 -47 -5 -95 -14 -30
-24 -77 -27 -124 -3 -41 -7 -90 -10 -107 l-5 -33 -69 0 c-97 0 -97 0 -94 -77
2 -36 5 -67 7 -69 2 -2 39 -5 83 -6 l79 -3 6 -52 c4 -29 9 -59 12 -67 3 -8 -3
-22 -14 -32 -24 -22 -24 -24 6 -68 l25 -38 5 -416 c3 -229 7 -500 10 -602 2
-102 7 -612 11 -1135 l6 -950 47 -42 c61 -56 89 -56 125 -2 l27 40 4 272 c1
150 6 850 11 1556 l7 1285 23 34 c29 43 30 58 4 72 -11 6 -18 16 -14 22 4 6
12 34 18 62 l11 51 61 5 c83 7 96 19 89 84 -3 28 -11 56 -16 61 -6 6 -51 11
-102 11 l-92 2 -7 103 c-3 58 -14 129 -25 160 -18 55 -18 56 0 81 43 57 -31
168 -112 168 -29 0 -47 -7 -70 -29z m123 -42 c31 -36 33 -58 8 -90 -10 -13
-22 -32 -25 -42 -6 -17 -8 -17 -32 -1 -27 18 -55 72 -55 107 0 28 28 57 56 57
13 0 33 -13 48 -31z m-35 -171 c47 -16 47 -16 28 -31 -22 -17 -11 -68 16 -75
19 -5 19 -6 2 -18 -20 -15 -12 -34 16 -34 25 0 25 -17 -1 -25 -24 -7 -26 -23
-5 -31 19 -8 20 -34 1 -34 -8 0 -16 -7 -20 -15 -4 -11 -21 -15 -66 -15 l-60 0
-1 58 c-2 107 4 161 21 206 11 29 19 31 69 14z m283 -324 c4 -3 8 -16 8 -30 0
-28 8 -28 -314 -26 -221 2 -236 5 -236 48 l0 24 267 -5 c146 -3 270 -8 275
-11z m-208 -119 c-5 -22 -3 -25 22 -26 l29 -1 -30 -7 c-36 -8 -39 -32 -5 -42
14 -4 18 -7 9 -8 -9 -1 -22 -8 -29 -16 -7 -8 -23 -15 -36 -15 -12 0 -26 -4
-29 -10 -3 -5 -17 -10 -31 -10 -13 0 -24 -4 -24 -10 0 -5 8 -10 19 -10 10 0
24 -7 31 -15 11 -13 7 -15 -28 -15 -22 0 -47 3 -56 6 -18 7 -22 34 -5 34 7 0
8 27 3 83 l-6 84 86 1 86 1 -6 -24z m64 -167 c-3 -8 -24 -14 -49 -15 l-44 -2
35 14 c45 17 63 18 58 3z m-128 -323 c8 -406 1 -2855 -8 -2855 -5 0 -15 6 -24
13 -14 11 -17 112 -22 992 -3 539 -9 1236 -12 1548 l-7 568 34 -3 34 -3 5
-260z m84 -720 c-1 -1128 -6 -1895 -12 -2042 -3 -80 -7 -103 -18 -103 -16 0
-15 -45 -14 755 0 253 1 523 0 600 0 77 1 149 2 160 0 11 1 371 2 800 1 429 2
788 4 798 1 12 9 17 20 15 16 -3 17 -57 16 -983z"/>
<path d="M3536 8086 c-42 -39 -47 -75 -17 -120 19 -29 19 -30 -1 -80 -16 -38
-22 -81 -26 -168 l-4 -118 -103 0 c-70 0 -106 -4 -112 -12 -6 -7 -9 -33 -8
-58 2 -40 6 -47 36 -62 19 -9 58 -17 87 -18 59 0 64 -6 75 -92 6 -41 4 -48
-13 -53 -27 -9 -25 -25 9 -72 l29 -40 2 -194 c1 -107 3 -232 5 -279 1 -47 5
-281 9 -520 4 -239 9 -478 11 -530 2 -52 7 -426 11 -830 l6 -735 52 -47 c28
-26 58 -47 67 -48 9 0 29 21 46 48 l31 47 6 235 c3 129 8 424 11 655 3 231 8
534 10 673 2 140 7 520 10 845 6 608 7 639 27 719 10 42 10 50 -7 68 -17 18
-17 25 -5 78 7 31 17 60 23 64 7 4 30 4 54 1 36 -5 45 -2 67 22 28 30 36 91
14 113 -8 8 -45 12 -99 12 -60 0 -90 4 -96 13 -4 6 -8 35 -10 62 -3 83 -11
164 -16 172 -14 23 -18 86 -7 113 18 43 -11 125 -54 151 -46 28 -79 24 -120
-15z m112 -28 c34 -44 25 -105 -18 -120 -36 -12 -38 -31 -6 -63 20 -20 22 -26
10 -36 -21 -17 -17 -29 11 -29 34 0 33 -28 -2 -32 -39 -5 -40 -26 -1 -30 46
-4 51 -33 6 -33 -45 0 -46 -29 0 -33 39 -4 45 -32 6 -32 -23 0 -25 -3 -20 -25
6 -24 4 -25 -33 -25 -22 0 -43 5 -46 10 -13 22 -7 207 10 272 15 62 15 68 0
92 -22 33 -16 68 15 83 32 16 55 16 68 1z m147 -502 l100 -1 3 -32 c3 -26 -1
-33 -15 -34 -167 -5 -557 1 -565 9 -5 5 -8 20 -6 33 3 23 8 24 88 30 47 3 132
4 190 1 58 -3 150 -5 205 -6z m-163 -118 c-25 -25 -13 -38 36 -39 39 -1 42 -2
17 -8 -36 -7 -45 -36 -15 -44 18 -5 20 -9 10 -26 -9 -18 -20 -21 -80 -21 -41
0 -72 5 -76 12 -11 17 -32 126 -26 133 3 3 37 5 76 5 54 0 67 -3 58 -12z m118
-173 c0 -22 -236 -21 -264 0 -18 13 -5 15 122 15 120 0 142 -2 142 -15z m-156
-64 c3 -5 8 -535 11 -1177 3 -643 7 -1339 9 -1546 3 -312 2 -378 -9 -378 -8 0
-17 5 -20 10 -3 6 -8 126 -10 268 -2 141 -7 408 -10 592 -3 184 -8 533 -12
775 -7 509 -7 479 -18 1038 l-8 427 31 0 c17 0 33 -4 36 -9z m115 2 l24 -6 -6
-411 c-3 -226 -8 -674 -11 -996 -11 -1130 -22 -1651 -38 -1685 -6 -14 -14 -25
-17 -25 -3 0 -7 352 -8 783 -1 430 -5 1134 -8 1565 l-6 782 23 0 c13 0 34 -3
47 -7z"/>
<path d="M4365 8104 c-5 -1 -22 -5 -37 -8 -31 -7 -53 -36 -63 -82 -5 -27 -1
-38 25 -68 27 -30 30 -38 20 -56 -6 -12 -15 -42 -20 -68 -4 -26 -13 -74 -19
-107 -6 -33 -14 -74 -16 -91 l-5 -31 -102 -2 c-56 -1 -110 -7 -120 -12 -24
-13 -24 -69 1 -101 16 -20 29 -24 83 -26 91 -4 92 -4 105 -74 11 -55 10 -65
-4 -80 -15 -17 -15 -21 7 -60 22 -39 23 -52 26 -272 2 -127 6 -379 8 -561 3
-181 8 -622 11 -980 4 -357 8 -699 10 -760 2 -60 4 -219 4 -353 l1 -242 57
-54 c67 -63 77 -62 116 12 23 45 25 60 31 242 6 194 11 582 21 1630 8 905 16
1294 24 1305 17 20 23 75 11 90 -10 12 -10 29 0 80 l12 65 88 0 c100 0 120 12
120 71 0 68 -4 70 -236 79 -7 0 -13 37 -17 98 -3 62 -14 122 -28 165 -18 52
-21 72 -12 85 29 48 20 124 -18 148 -15 9 -71 21 -84 18z m60 -57 c23 -33 18
-60 -20 -117 -19 -29 -35 -54 -35 -55 0 -2 12 -5 27 -7 33 -4 42 -25 12 -30
-36 -5 -33 -25 6 -32 41 -8 45 -23 10 -36 -33 -13 -32 -28 2 -32 35 -4 44 -35
12 -40 -33 -4 -36 -28 -5 -28 31 0 34 -15 6 -30 -11 -6 -20 -15 -20 -20 0 -6
9 -10 20 -10 11 0 20 -4 20 -9 0 -11 -87 -19 -120 -11 -24 6 -25 10 -25 86 0
77 20 189 37 209 13 15 9 46 -13 92 -26 53 -22 85 11 93 34 9 58 1 75 -23z
m170 -499 c123 -5 143 -15 115 -58 -7 -12 -45 -14 -242 -10 -128 2 -271 5
-317 5 -84 0 -85 0 -92 28 -6 23 -4 30 11 35 20 7 348 7 525 0z m-189 -112 c3
-8 20 -18 37 -22 31 -7 31 -7 10 -17 -32 -14 -29 -36 3 -34 33 2 44 -20 12
-25 -15 -2 -22 -9 -22 -21 2 -17 -5 -18 -80 -12 -95 8 -106 17 -106 86 0 44 2
48 28 52 65 10 113 7 118 -7z m104 -174 c0 -19 -50 -29 -130 -25 -101 5 -130
10 -130 23 0 6 52 10 130 10 72 0 130 -4 130 -8z m-137 -677 c-5 -1411 -13
-2518 -18 -2523 -3 -3 -12 1 -19 9 -16 16 -22 250 -31 1229 -3 333 -10 828
-15 1100 -5 272 -9 564 -9 648 l-1 153 48 -3 47 -3 -2 -610z m101 335 c-4
-1029 -15 -2353 -19 -2359 -2 -4 -5 -84 -5 -177 -1 -242 -8 -306 -35 -340 -25
-31 -47 -26 -27 6 8 13 8 21 1 25 -6 4 -7 11 -1 18 9 11 15 519 26 2379 3 389
8 713 11 718 4 6 17 10 28 8 22 -3 22 -4 21 -278z"/>
<path d="M252 1640 c-130 -4 -165 -8 -172 -20 -13 -21 -13 -25 7 -49 20 -24
-61 -21 928 -36 138 -2 687 -6 1220 -9 534 -3 1254 -8 1600 -11 347 -3 750 -3
898 1 l267 7 0 37 0 37 -527 7 c-291 4 -616 9 -723 11 -107 3 -539 7 -960 10
-747 5 -2165 16 -2305 19 -38 0 -143 -1 -233 -4z"/>
<path d="M0 1351 c0 -18 6 -21 43 -21 1076 -4 1736 -8 1743 -13 5 -3 614 -8
1354 -11 740 -4 1442 -8 1560 -10 242 -5 300 -1 300 20 0 10 -16 14 -62 15
-35 0 -169 2 -298 5 -129 2 -671 7 -1205 9 -1603 8 -2771 15 -3112 21 -322 5
-323 5 -323 -15z"/>
<path d="M0 1283 c0 -20 8 -21 213 -27 247 -7 1956 -23 3487 -31 586 -4 1106
-8 1155 -10 103 -4 145 2 145 20 0 17 -175 24 -590 26 -184 0 -407 2 -495 4
-88 1 -572 6 -1075 9 -503 4 -1014 9 -1135 11 -121 2 -554 7 -962 11 -743 7
-743 7 -743 -13z"/>
<path d="M4112 1135 c-7 -14 -12 -62 -12 -105 l0 -80 -54 0 c-35 0 -60 5 -70
15 -18 19 -45 19 -65 1 -12 -11 -74 -15 -271 -20 -363 -9 -607 -16 -740 -21
-162 -6 -512 -16 -725 -20 -172 -3 -440 -7 -1420 -21 -387 -5 -443 -8 -466
-22 -14 -10 -42 -28 -62 -40 -21 -13 -37 -27 -37 -30 1 -15 27 -40 60 -57 18
-10 40 -24 48 -31 11 -11 82 -14 365 -15 194 -1 381 -2 417 -4 36 -2 238 -6
450 -10 212 -4 426 -8 475 -10 50 -2 448 -6 885 -9 840 -6 1004 -11 1032 -31
11 -7 45 -10 92 -8 l75 3 7 -36 c4 -20 4 -71 1 -114 -3 -50 -1 -82 6 -89 16
-16 99 -13 124 4 20 14 21 24 21 127 -1 130 -1 129 95 147 152 29 174 34 200
49 15 9 27 22 27 29 0 17 15 16 30 -2 25 -31 103 -14 145 31 32 35 34 100 5
137 -41 52 -139 60 -198 17 -23 -17 -37 -21 -59 -15 -15 4 -73 13 -128 19
l-100 11 -2 90 c-4 139 -2 135 -77 135 -58 0 -64 -2 -74 -25z m100 -360 c-4
-309 -6 -351 -20 -363 -35 -27 -47 -11 -49 63 -2 111 -2 457 1 490 2 17 4 61
4 98 l2 68 33 -3 32 -3 -3 -350z m-253 102 l-1 -52 -9 40 c-11 55 -11 77 1 70
6 -3 9 -30 9 -58z m139 3 c2 -19 1 -59 -3 -87 -5 -43 -10 -53 -26 -53 -14 0
-19 7 -19 25 0 17 -7 28 -22 34 -19 7 -22 14 -19 57 1 27 5 52 8 57 3 4 21 7
41 5 34 -3 37 -6 40 -38z m592 25 c71 -36 36 -145 -47 -145 -36 0 -56 23 -68
77 -7 35 14 62 58 75 12 3 23 6 25 7 2 1 16 -6 32 -14z m-785 -41 c3 -25 3
-50 -2 -55 -8 -8 -1407 -11 -2753 -7 -430 2 -873 -11 -881 -24 -5 -7 -11 -9
-15 -5 -11 10 26 48 62 63 19 8 79 13 165 14 74 0 157 2 184 5 28 2 104 3 170
3 708 -5 1307 1 1725 17 52 2 219 7 370 10 151 4 325 10 385 14 61 3 216 8
346 9 l237 3 7 -47z m547 15 c62 -10 67 -13 73 -39 8 -34 -3 -100 -17 -100 -5
0 -7 4 -4 9 3 5 -3 20 -13 32 -22 27 -28 20 -33 -36 -4 -45 -23 -36 -26 13 -3
34 -7 42 -23 42 -16 0 -19 -7 -19 -43 0 -48 -5 -58 -25 -51 -9 4 -12 19 -10
49 3 32 1 45 -11 49 -17 6 -20 -1 -33 -64 l-10 -45 1 60 c1 56 0 60 -20 59
-18 0 -22 5 -22 27 0 55 7 61 69 54 31 -3 86 -11 123 -16z m-4082 -129 c0 -5
-9 -10 -21 -10 -11 0 -17 5 -14 10 3 6 13 10 21 10 8 0 14 -4 14 -10z m130 -5
c0 -12 -10 -15 -45 -13 -25 2 -45 6 -45 9 0 13 16 19 52 19 28 0 38 -4 38 -15z
m80 5 c0 -5 -9 -10 -20 -10 -11 0 -20 5 -20 10 0 6 9 10 20 10 11 0 20 -4 20
-10z m90 1 c0 -10 -24 -21 -46 -21 -8 0 -11 6 -8 15 6 16 54 21 54 6z m98 -8
c2 -8 -6 -13 -22 -13 -17 0 -26 5 -26 16 0 19 41 16 48 -3z m190 -1 c2 -7 -6
-12 -17 -12 -21 0 -27 11 -14 24 9 9 26 2 31 -12z m101 -11 c-15 -5 -22 6 -14
19 6 9 10 9 16 -1 5 -8 4 -15 -2 -18z m71 14 c0 -8 -7 -15 -15 -15 -16 0 -20
12 -8 23 11 12 23 8 23 -8z m84 0 c4 -11 -1 -15 -19 -15 -24 0 -32 10 -18 23
11 12 31 8 37 -8z m56 -5 c0 -11 -7 -20 -15 -20 -18 0 -19 12 -3 28 16 16 18
15 18 -8z m73 5 c8 -18 -11 -31 -25 -17 -11 11 -3 32 12 32 4 0 10 -7 13 -15z
m2267 -4 c0 -11 3 -26 6 -35 4 -11 1 -16 -10 -16 -12 0 -16 10 -16 35 0 19 5
35 10 35 6 0 10 -9 10 -19z m74 -13 c-1 -45 -24 -49 -24 -4 0 22 5 36 13 36 7
0 12 -13 11 -32z m66 -3 c0 -19 -4 -35 -10 -35 -11 0 -14 53 -3 63 11 12 13 8
13 -28z m70 6 c0 -17 -4 -33 -10 -36 -6 -4 -10 8 -10 29 0 20 5 36 10 36 6 0
10 -13 10 -29z m75 -5 c0 -15 -5 -32 -12 -38 -10 -8 -13 -2 -13 32 0 47 22 53
25 6z m-2445 9 c0 -8 -4 -15 -10 -15 -5 0 -10 7 -10 15 0 8 5 15 10 15 6 0 10
-7 10 -15z m280 -18 c0 -5 -4 -5 -10 -2 -5 3 -10 14 -10 23 0 15 2 15 10 2 5
-8 10 -19 10 -23z m80 29 c0 -15 -14 -35 -21 -30 -15 9 -10 34 6 34 8 0 15 -2
15 -4z m103 -3 c9 -9 -13 -34 -24 -27 -14 8 -11 34 4 34 8 0 17 -3 20 -7z m47
-3 c0 -5 -4 -10 -10 -10 -5 0 -10 5 -10 10 0 6 5 10 10 10 6 0 10 -4 10 -10z
m60 3 c0 -5 -5 -15 -10 -23 -8 -12 -10 -11 -10 8 0 12 5 22 10 22 6 0 10 -3
10 -7z m60 -13 c0 -19 -11 -26 -23 -14 -8 8 3 34 14 34 5 0 9 -9 9 -20z m60 4
c0 -8 -4 -12 -10 -9 -5 3 -10 10 -10 16 0 5 5 9 10 9 6 0 10 -7 10 -16z m184
0 c9 -22 8 -24 -9 -24 -8 0 -15 9 -15 20 0 24 15 27 24 4z m53 -16 c-3 -7 -5
-2 -5 12 0 14 2 19 5 13 2 -7 2 -19 0 -25z m110 0 c-3 -7 -5 -2 -5 12 0 14 2
19 5 13 2 -7 2 -19 0 -25z m83 1 c0 -10 -6 -19 -13 -19 -22 0 -27 11 -16 32
12 22 29 15 29 -13z m123 11 c3 -11 1 -20 -4 -20 -5 0 -9 9 -9 20 0 11 2 20 4
20 2 0 6 -9 9 -20z m125 -9 c3 -16 -1 -22 -10 -19 -7 3 -15 15 -16 27 -3 16 1
22 10 19 7 -3 15 -15 16 -27z m62 3 c0 -14 -4 -23 -10 -19 -5 3 -10 15 -10 26
0 10 5 19 10 19 6 0 10 -12 10 -26z m129 -14 c0 -10 -3 -8 -9 5 -12 27 -12 43
0 25 5 -8 9 -22 9 -30z m108 -7 c-3 -10 -5 -2 -5 17 0 19 2 27 5 18 2 -10 2
-26 0 -35z m60 10 c-3 -10 -5 -4 -5 12 0 17 2 24 5 18 2 -7 2 -21 0 -30z m73
12 c0 -14 -4 -25 -10 -25 -5 0 -10 11 -10 25 0 14 5 25 10 25 6 0 10 -11 10
-25z m57 3 c-3 -8 -6 -5 -6 6 -1 11 2 17 5 13 3 -3 4 -12 1 -19z m169 -25
c-10 -26 -18 -8 -9 23 5 21 8 24 11 11 2 -10 1 -25 -2 -34z m67 -5 c-2 -5 -8
-8 -14 -8 -11 0 -12 43 -2 54 9 8 22 -34 16 -46z m414 0 c-2 -13 -4 -5 -4 17
-1 22 1 32 4 23 2 -10 2 -28 0 -40z m-1710 20 c-3 -8 -6 -5 -6 6 -1 11 2 17 5
13 3 -3 4 -12 1 -19z m380 -10 c-3 -7 -5 -2 -5 12 0 14 2 19 5 13 2 -7 2 -19
0 -25z m319 -5 c-11 -11 -19 6 -11 24 8 17 8 17 12 0 3 -10 2 -21 -1 -24z
m424 7 c0 -11 -4 -20 -10 -20 -5 0 -10 9 -10 20 0 11 5 20 10 20 6 0 10 -9 10
-20z m694 -45 c3 -8 1 -15 -4 -15 -6 0 -10 7 -10 15 0 8 2 15 4 15 2 0 6 -7
10 -15z"/>
<path d="M4745 703 c-29 -7 -36 -16 -42 -54 -3 -19 -6 -35 -7 -36 -1 -2 -25
-3 -52 -4 -135 -3 -157 -61 -28 -75 110 -11 113 -25 7 -31 -38 -3 -72 -9 -78
-15 -16 -15 22 -37 87 -50 65 -13 77 -28 22 -28 -63 0 -97 -38 -61 -69 16 -13
27 -5 27 21 0 14 8 18 35 18 30 0 35 -4 43 -32 8 -32 7 -33 -27 -40 -20 -3
-342 -3 -716 0 -631 7 -3514 6 -3812 0 -125 -3 -156 -9 -139 -25 4 -5 834 -8
1844 -8 1011 -1 2100 -2 2422 -2 322 -1 599 0 615 1 17 2 49 4 73 5 30 1 42 5
42 16 0 13 -19 15 -121 14 -66 0 -122 1 -123 3 -2 1 -6 16 -10 31 l-7 28 58
-1 c55 -2 69 0 121 21 35 14 28 46 -13 60 -27 10 -34 17 -29 31 4 15 -1 18
-28 19 -18 1 -40 2 -48 3 -8 2 -23 3 -32 4 -10 1 -18 6 -18 12 0 5 35 10 77
12 50 2 78 7 81 16 3 9 -17 12 -77 12 -51 0 -81 4 -81 11 0 6 19 9 50 7 52 -3
72 14 23 20 -50 6 -49 22 0 20 37 -2 52 2 69 19 17 18 19 25 9 36 -17 21 -114
40 -156 30z m99 -43 c7 -7 -8 -10 -42 -10 -49 0 -68 11 -39 24 16 7 69 -2 81
-14z m-146 -91 c-2 -6 -7 -10 -11 -10 -4 1 -25 1 -47 1 -22 0 -40 5 -40 10 0
6 23 10 51 10 32 0 49 -4 47 -11z m2 -99 c0 -5 -15 -10 -34 -10 -19 0 -38 5
-41 10 -4 6 10 10 34 10 23 0 41 -4 41 -10z m150 0 c0 -5 -22 -10 -50 -10 -27
0 -50 5 -50 10 0 6 23 10 50 10 28 0 50 -4 50 -10z m18 -47 c40 -10 4 -23 -65
-23 -58 0 -73 6 -56 23 8 9 90 9 121 0z"/>
<path d="M4772 338 c6 -18 28 -21 28 -4 0 9 -7 16 -16 16 -9 0 -14 -5 -12 -12z"/>
<path d="M2556 252 c-2 -1 -577 -3 -1279 -3 -1050 -1 -1277 -4 -1277 -15 0 -7
8 -14 17 -15 10 -1 641 -3 1403 -5 762 -1 1876 -3 2477 -5 600 -2 1095 -1
1099 4 4 4 5 9 3 12 -3 2 -257 7 -564 10 -308 3 -742 8 -965 11 -511 7 -911
10 -914 6z"/>
</g>
</svg>
