<?xml version="1.0" standalone="no"?>
<!DOCTYPE svg PUBLIC "-//W3C//DTD SVG 20010904//EN"
 "http://www.w3.org/TR/2001/REC-SVG-20010904/DTD/svg10.dtd">
<svg version="1.0" xmlns="http://www.w3.org/2000/svg"
 width="500.000000pt" height="878.000000pt" viewBox="0 0 500.000000 878.000000"
 preserveAspectRatio="xMidYMid meet">
<metadata>
Created by potrace 1.15, written by Peter Selinger 2001-2017
</metadata>
<g transform="translate(0.000000,878.000000) scale(0.100000,-0.100000)"
fill="#000000" stroke="none">
<path d="M3634 8686 c-18 -8 -47 -14 -66 -13 -35 1 -107 -31 -143 -63 -11 -10
-76 -50 -145 -89 -69 -39 -165 -99 -215 -132 -49 -33 -106 -67 -125 -75 -51
-23 -201 -114 -228 -138 -22 -19 -23 -19 -53 -2 -16 10 -37 15 -45 12 -8 -3
-23 -1 -33 6 -30 18 -91 0 -127 -37 -17 -18 -57 -47 -90 -63 -32 -17 -72 -44
-89 -61 -26 -28 -28 -33 -13 -47 12 -13 22 -14 52 -6 26 8 36 7 36 -1 -1 -22
-136 -106 -318 -197 -46 -22 -114 -63 -150 -89 -37 -27 -77 -52 -90 -56 -21
-6 -22 -4 -16 22 4 15 15 36 25 46 25 23 24 32 -6 55 -31 25 -31 32 0 66 14
15 25 33 25 40 0 17 -21 36 -41 36 -9 0 -19 8 -22 19 -7 30 -66 35 -133 11
-76 -26 -83 -25 -51 8 55 57 22 84 -68 57 -62 -18 -129 -71 -139 -110 -4 -16
-32 -42 -82 -75 -41 -28 -78 -58 -81 -66 -3 -8 2 -25 10 -38 15 -22 14 -24
-29 -60 -36 -30 -45 -43 -42 -64 2 -23 8 -27 31 -25 15 1 41 9 57 17 32 15 40
7 14 -14 -8 -8 -14 -25 -12 -39 3 -38 -4 -46 -110 -115 -118 -77 -127 -80
-158 -60 -31 21 -67 7 -132 -48 -24 -21 -70 -52 -102 -68 -32 -16 -61 -34 -65
-40 -7 -12 -25 -13 -25 -2 0 4 28 36 61 70 41 41 59 67 55 77 -3 9 4 29 15 44
53 71 -25 95 -135 42 -34 -17 -66 -31 -70 -31 -4 0 -34 -23 -68 -51 -34 -28
-72 -55 -85 -60 -27 -10 -78 -46 -139 -99 -23 -19 -65 -52 -95 -73 -92 -64
-178 -132 -179 -139 0 -15 17 -7 56 25 21 18 71 52 109 77 39 24 90 62 115 85
48 44 137 105 153 105 6 0 35 19 66 43 31 23 63 42 72 43 9 1 34 15 55 32 72
58 141 51 79 -8 -17 -16 -22 -27 -16 -39 6 -10 3 -22 -10 -36 -69 -76 -89
-108 -89 -145 0 -50 11 -56 47 -26 41 34 128 86 144 86 8 0 37 20 65 44 44 39
53 43 65 31 11 -12 23 -12 59 -3 46 12 54 16 183 105 42 29 94 61 117 73 42
21 46 30 30 60 -7 13 -6 21 5 30 25 20 18 56 -16 83 -27 21 -28 25 -15 36 20
17 20 30 0 52 -14 16 -12 19 27 45 66 45 139 115 139 133 0 17 57 57 67 47 3
-3 -2 -8 -11 -12 -20 -8 -20 -28 0 -59 l16 -24 37 19 c21 10 66 22 100 26 62
7 63 7 59 -17 -2 -20 2 -25 25 -27 l27 -3 -25 -33 c-32 -42 -32 -73 0 -88 22
-10 23 -13 11 -27 -7 -9 -23 -35 -35 -59 -42 -84 13 -88 142 -11 39 24 105 61
146 82 41 21 107 61 147 88 40 27 77 49 83 49 5 0 29 15 53 33 24 17 62 45 86
61 72 49 76 82 11 92 -21 4 -36 10 -34 15 3 4 30 19 59 32 30 14 61 36 70 49
11 16 24 23 43 22 82 -3 83 -4 83 -24 0 -40 92 -17 155 39 18 15 75 52 126 80
52 29 130 77 174 107 44 30 118 76 165 101 114 62 201 114 222 133 9 8 33 24
52 34 30 16 40 17 59 7 18 -10 29 -8 64 9 23 11 45 20 48 20 11 0 4 -28 -10
-40 -8 -7 -15 -25 -15 -41 0 -23 -10 -35 -50 -62 -28 -19 -64 -55 -80 -80 -16
-26 -52 -63 -80 -83 -53 -38 -58 -48 -35 -77 7 -11 11 -26 8 -34 -4 -9 3 -22
15 -32 l22 -16 -40 -45 c-21 -25 -39 -54 -40 -65 0 -12 -29 -49 -66 -85 -82
-82 -92 -97 -67 -115 15 -12 16 -17 6 -34 -15 -24 -17 -48 -4 -55 8 -5 115 37
163 64 160 90 238 130 309 160 55 24 117 61 170 103 46 37 119 92 163 122 72
52 78 54 72 30 -10 -39 17 -42 85 -10 32 16 61 27 63 24 2 -2 0 -28 -3 -57 -4
-29 -5 -54 -3 -57 10 -10 41 -5 69 10 15 8 53 24 84 35 31 11 98 47 149 80 52
33 99 60 105 60 6 0 24 -13 38 -30 31 -34 51 -37 104 -15 58 24 202 119 203
133 0 6 -2 12 -3 12 -2 0 -44 -22 -94 -49 -112 -61 -131 -67 -139 -47 -3 9
-11 16 -16 16 -6 0 -25 7 -43 16 -31 15 -35 14 -82 -9 -26 -14 -65 -39 -87
-56 -43 -34 -153 -89 -197 -98 -40 -8 -49 20 -19 52 19 21 21 27 10 40 -10 12
-23 15 -54 10 -23 -4 -45 -11 -50 -16 -17 -15 -36 -10 -36 10 0 11 -6 21 -12
24 -33 11 -165 -72 -316 -200 -69 -58 -91 -71 -198 -118 -40 -18 -109 -54
-155 -80 -111 -64 -191 -105 -207 -105 -8 0 -12 9 -10 24 1 13 -3 30 -10 38
-10 13 0 27 62 91 57 57 73 80 69 96 -4 15 8 33 47 70 53 51 57 71 14 71 -15
0 -24 6 -24 15 0 8 -6 24 -12 35 -11 18 -6 26 47 79 33 33 74 74 91 92 17 17
51 49 74 70 29 27 40 44 36 55 -4 10 1 26 13 38 11 12 23 33 26 49 7 25 5 27
-26 27 -19 -1 -48 -7 -65 -14z"/>
<path d="M2114 8639 c-11 -18 11 -30 58 -33 25 -2 51 -6 57 -10 6 -4 25 -37
41 -72 16 -36 38 -76 50 -91 31 -40 26 -50 -31 -55 -49 -5 -80 -21 -66 -34 8
-9 325 -7 338 2 5 3 9 14 9 25 0 17 -7 19 -60 19 -33 0 -60 3 -60 6 0 4 21 53
46 110 l47 104 37 0 c48 0 70 8 70 26 0 12 -45 14 -264 14 -180 0 -267 -3
-272 -11z m366 -41 c0 -6 -6 -19 -14 -27 -7 -9 -21 -38 -30 -66 -33 -100 -51
-99 -89 7 -32 86 -32 85 -9 91 39 10 142 7 142 -5z"/>
<path d="M4971 8096 c-31 -32 -131 -91 -216 -126 -238 -98 -261 -110 -251
-137 6 -16 -38 -50 -129 -99 -38 -20 -77 -43 -85 -50 -8 -6 -46 -29 -85 -49
-108 -56 -136 -90 -97 -115 16 -11 16 -11 -1 -6 -16 5 -56 -12 -116 -49 -51
-32 -172 -114 -206 -141 -57 -44 -128 -93 -225 -154 -79 -49 -246 -191 -297
-251 -25 -29 -29 -54 -12 -64 5 -4 48 11 94 33 82 40 84 40 101 21 11 -12 24
-17 36 -13 32 10 20 -23 -19 -55 -65 -52 -200 -154 -285 -213 -65 -46 -86 -56
-108 -51 -33 6 -42 1 -188 -95 -83 -54 -116 -72 -124 -64 -8 8 3 27 41 67 37
39 51 62 49 78 -7 49 -85 25 -178 -56 -24 -21 -57 -46 -71 -54 -15 -9 -32 -27
-38 -39 -5 -13 -28 -32 -49 -43 -21 -11 -90 -65 -153 -121 -62 -57 -136 -120
-164 -141 -27 -21 -79 -61 -115 -88 -35 -28 -66 -48 -69 -45 -2 2 26 34 63 69
51 49 67 71 63 86 -6 22 69 90 216 194 90 64 121 100 98 114 -13 9 -65 6 -116
-5 l-30 -7 33 35 c37 39 40 56 11 66 -18 7 -12 15 55 71 83 71 146 142 146
164 0 32 -53 29 -102 -5 -15 -10 -55 -29 -90 -42 -35 -13 -97 -40 -138 -59
-41 -19 -97 -42 -125 -52 -65 -23 -182 -82 -190 -95 -3 -6 -10 -8 -15 -5 -11
7 -1 42 16 56 8 6 14 18 14 26 0 12 -9 13 -42 8 -30 -5 -72 -28 -138 -75 -92
-66 -169 -110 -189 -110 -6 0 -14 15 -19 32 -4 18 -15 34 -23 36 -8 1 -51 -22
-97 -52 -98 -65 -122 -75 -122 -49 0 10 61 78 137 154 193 190 188 185 173
204 -7 8 -20 15 -30 15 -9 0 -22 11 -28 25 -15 32 -20 31 -94 -5 -33 -16 -67
-30 -75 -30 -8 0 -28 -9 -44 -20 -15 -12 -43 -26 -61 -32 -18 -6 -67 -31 -108
-54 -41 -24 -87 -45 -101 -48 -15 -2 -41 -12 -59 -21 -45 -23 -255 -237 -305
-310 -22 -32 -68 -85 -103 -118 -63 -61 -140 -165 -181 -246 -29 -56 -16 -72
33 -42 20 13 40 20 46 16 16 -10 11 -41 -10 -60 -11 -10 -20 -31 -20 -47 0
-16 -5 -38 -10 -49 -7 -13 -7 -25 -1 -38 9 -15 3 -23 -37 -51 -26 -18 -77 -64
-114 -101 -36 -37 -78 -75 -91 -84 -31 -20 -62 -107 -48 -134 8 -14 3 -25 -25
-52 -20 -19 -49 -53 -65 -76 -16 -23 -38 -45 -49 -48 -11 -4 -20 -15 -20 -26
0 -32 35 -8 137 98 85 86 110 123 83 123 -13 0 -13 37 0 45 6 3 10 14 10 23 1
9 58 69 127 132 179 162 193 176 193 194 0 9 -8 16 -20 16 -13 0 -22 9 -26 25
-5 20 2 34 35 70 44 48 51 72 24 81 -10 3 -25 9 -34 14 -9 4 -22 4 -30 -1 -18
-11 -29 -11 -29 0 0 22 83 130 145 191 37 36 75 81 85 100 26 50 157 202 221
256 71 62 89 72 120 72 15 0 46 13 70 29 24 16 55 34 69 40 14 6 87 41 163 77
76 37 145 66 155 64 9 -2 17 -12 17 -23 0 -11 4 -26 9 -34 7 -10 -22 -44 -111
-130 -138 -133 -179 -188 -169 -226 6 -23 10 -26 38 -20 17 4 49 20 72 37 68
48 129 88 137 88 3 0 9 -14 13 -30 12 -62 52 -49 231 74 117 80 132 88 120 60
-16 -39 -18 -74 -3 -79 8 -3 44 9 79 28 35 18 91 44 124 57 33 13 65 26 70 30
6 4 23 10 39 14 16 4 65 24 110 46 145 69 196 84 196 59 0 -9 -161 -146 -201
-171 -42 -27 -109 -102 -99 -112 5 -5 33 6 67 24 54 31 57 32 35 8 -20 -22
-21 -29 -11 -52 14 -30 28 -32 71 -10 17 9 34 12 39 7 8 -8 -36 -47 -156 -136
-38 -29 -90 -71 -114 -95 -24 -24 -53 -47 -63 -53 -22 -12 -24 -29 -3 -29 24
0 17 -26 -10 -38 -30 -14 -79 -88 -71 -109 11 -28 72 4 181 98 33 28 76 61 95
74 19 12 80 64 135 115 55 51 118 101 140 112 22 11 81 58 130 103 108 98 142
122 156 108 6 -6 -9 -26 -46 -58 -45 -38 -56 -53 -52 -72 2 -12 -2 -31 -9 -40
-18 -24 -17 -43 0 -43 21 0 122 61 265 160 61 41 80 50 103 45 22 -5 44 4 115
51 49 32 120 83 158 113 39 31 86 65 105 75 69 38 110 66 110 76 0 6 23 32 50
58 55 53 60 70 29 98 -20 18 -22 18 -51 1 -18 -10 -39 -15 -54 -11 -15 4 -46
-4 -90 -25 -37 -17 -70 -29 -73 -25 -3 3 14 24 39 45 25 22 61 54 80 70 19 17
72 55 117 84 45 29 95 65 110 79 88 82 362 262 386 253 17 -6 77 20 94 41 7 9
11 29 9 44 -5 28 -3 30 321 217 40 23 89 58 108 78 23 24 69 50 135 78 103 44
250 144 250 171 0 19 -3 18 -29 -10z m-1401 -1150 c0 -2 -8 -10 -17 -17 -16
-13 -17 -12 -4 4 13 16 21 21 21 13z"/>
<path d="M4163 7228 c-31 -33 -36 -48 -52 -168 -5 -36 -12 -72 -15 -80 -3 -8
-8 -31 -10 -50 -2 -19 -18 -98 -35 -175 -16 -77 -39 -180 -50 -230 -25 -118
-68 -296 -86 -365 -9 -30 -22 -82 -30 -115 -31 -132 -54 -209 -67 -220 -7 -6
-32 -20 -55 -30 -36 -15 -47 -16 -73 -5 -37 15 -29 26 25 38 24 5 40 14 40 22
0 8 4 20 7 26 12 19 -4 24 -56 19 -32 -2 -40 -2 -22 3 45 11 43 29 -5 37 -24
4 -49 13 -56 21 -11 11 -10 15 8 25 17 8 23 8 29 -2 6 -9 22 -5 66 18 67 35
85 58 32 42 -18 -6 -67 -12 -108 -14 -43 -2 -62 0 -45 4 86 20 140 70 59 55
-36 -7 -45 5 -19 26 8 7 15 19 15 27 0 8 11 24 25 35 14 11 25 24 25 29 0 15
-23 10 -50 -11 -32 -25 -48 -26 -26 -1 20 22 6 37 -21 23 -10 -5 -39 -12 -65
-14 -42 -5 -48 -3 -48 14 0 10 7 21 15 24 8 4 15 12 15 20 0 16 -29 11 -87
-13 -42 -17 -45 -17 -38 6 3 11 1 22 -5 26 -10 6 -111 -20 -178 -46 -13 -5
-34 -9 -47 -9 -21 0 -65 -44 -65 -64 0 -12 34 -6 51 9 16 15 16 13 12 -32 -3
-26 -9 -52 -14 -57 -5 -6 -9 -18 -9 -28 0 -10 -12 -37 -27 -59 -21 -32 -25
-45 -17 -66 5 -14 18 -27 28 -29 18 -3 63 23 95 54 7 7 30 12 52 10 27 -1 45
4 61 19 21 19 78 37 78 25 0 -3 -12 -19 -27 -34 -16 -17 -21 -28 -13 -28 14 0
5 -14 -11 -16 -5 -1 -13 -2 -18 -3 -5 0 -28 -24 -50 -52 -23 -29 -41 -47 -41
-41 0 6 5 14 10 17 13 8 3 25 -14 25 -8 0 -24 -8 -36 -18 -22 -17 -22 -21 -9
-50 16 -37 24 -40 39 -11 7 11 14 18 17 15 3 -3 20 6 38 19 17 14 36 25 41 25
5 0 2 -5 -8 -10 -10 -6 -14 -18 -11 -30 3 -12 2 -20 -3 -19 -21 5 -63 -21 -58
-35 3 -8 1 -23 -5 -34 -13 -24 -5 -52 14 -52 8 0 17 -5 20 -11 4 -6 -2 -9 -17
-7 -29 4 -36 -13 -10 -23 44 -16 118 65 114 126 0 16 0 17 4 3 3 -10 9 -18 13
-18 5 0 6 -11 3 -25 -3 -16 0 -25 8 -25 7 0 10 -7 6 -15 -4 -10 3 -20 20 -27
23 -11 28 -9 49 18 18 21 24 25 25 12 0 -9 -7 -24 -17 -33 -15 -16 -14 -21 10
-71 15 -30 27 -61 27 -70 0 -20 45 -96 70 -119 15 -14 20 -31 20 -71 0 -50 -2
-54 -47 -93 -44 -38 -65 -47 -145 -65 -16 -4 -28 -13 -28 -21 0 -8 -7 -15 -15
-15 -11 0 -15 -13 -15 -52 0 -29 -5 -60 -10 -68 -9 -13 -12 -12 -25 4 -8 11
-15 34 -15 52 0 17 -7 37 -15 44 -11 9 -12 17 -4 32 16 29 -7 66 -45 76 -30 8
-31 10 -34 71 -2 51 1 68 16 85 28 31 65 96 59 103 -8 7 -77 -36 -77 -48 0 -4
-6 -6 -13 -3 -7 2 -38 -11 -70 -30 -32 -19 -73 -41 -92 -48 -31 -10 -37 -10
-52 5 -13 13 -15 20 -5 29 16 16 15 43 -2 58 -22 17 -2 54 41 74 23 11 33 22
31 34 -5 25 -39 27 -57 4 -9 -11 -26 -23 -38 -27 -19 -5 -23 -3 -23 17 -1 30
-37 79 -43 58 -3 -8 -8 -23 -11 -32 -3 -10 -12 -18 -21 -18 -17 0 -14 21 15
98 18 47 40 67 40 37 0 -9 6 -15 13 -12 6 2 11 11 9 21 -2 9 7 21 21 27 13 6
29 19 35 30 12 18 10 19 -39 13 l-52 -6 7 26 c6 23 3 26 -19 26 -23 0 -25 4
-25 43 0 23 -7 53 -16 65 -15 22 -15 24 2 37 12 8 25 10 35 4 21 -11 42 11 33
35 -3 9 1 27 10 41 17 26 38 34 35 13 -6 -48 24 -52 45 -5 16 33 66 98 66 84
0 -5 -12 -28 -26 -53 -14 -24 -23 -51 -20 -59 9 -25 34 -17 51 15 9 17 20 30
25 30 17 0 11 28 -7 39 -15 8 -16 13 -5 30 15 25 15 34 2 26 -14 -9 -13 8 2
23 9 9 7 13 -7 18 -14 6 -29 -4 -62 -40 -24 -26 -43 -43 -43 -37 0 8 -11 6
-31 -4 -24 -13 -33 -14 -45 -4 -12 10 -19 7 -37 -12 l-22 -24 -3 23 c-5 32
-29 27 -53 -10 -27 -43 -20 -134 12 -159 17 -13 22 -29 25 -87 3 -55 9 -79 26
-102 l22 -30 -19 -58 c-10 -31 -25 -66 -31 -76 -20 -29 -1 -56 40 -56 28 0 36
-5 46 -30 7 -16 10 -36 7 -44 -3 -8 1 -20 9 -26 23 -20 16 -38 -21 -56 -19 -9
-49 -30 -66 -48 -38 -38 -93 -154 -116 -244 -9 -37 -34 -103 -55 -146 -21 -44
-38 -92 -38 -107 0 -14 -11 -38 -25 -53 -14 -15 -25 -35 -25 -46 0 -10 -10
-30 -22 -43 -28 -31 -50 -140 -36 -177 17 -46 11 -114 -15 -166 -13 -27 -28
-65 -32 -84 -12 -54 -7 -139 10 -163 8 -12 15 -32 15 -44 0 -33 -62 -89 -138
-125 -37 -17 -84 -44 -104 -58 -20 -15 -52 -33 -70 -40 -74 -29 -257 -123
-262 -135 -2 -7 -34 -29 -70 -49 -38 -21 -71 -47 -78 -63 -7 -15 -26 -31 -43
-36 -16 -6 -52 -27 -79 -48 -27 -22 -53 -39 -57 -39 -20 0 -7 46 22 76 76 78
-29 86 -156 12 -99 -58 -117 -67 -146 -72 -28 -6 -125 -69 -224 -146 -33 -25
-91 -66 -130 -90 -38 -24 -82 -55 -97 -68 -46 -42 -59 -8 -16 47 18 23 24 84
12 115 -3 9 -28 31 -55 51 -36 26 -59 35 -88 35 -53 0 -61 -17 -16 -36 29 -12
35 -19 30 -35 -4 -13 0 -28 10 -39 17 -19 15 -50 -4 -50 -5 0 -13 9 -16 20 -3
11 -12 20 -19 20 -18 0 -35 -21 -29 -36 3 -8 0 -21 -7 -29 -14 -17 -35 -21
-25 -5 34 55 15 110 -24 69 -21 -22 -21 -22 -21 -2 0 11 6 26 14 33 8 6 12 18
10 25 -3 7 4 18 15 25 12 6 21 17 21 25 0 22 -34 18 -55 -5 -10 -11 -24 -20
-31 -20 -16 0 -54 -52 -54 -74 0 -8 -34 -39 -76 -68 -42 -29 -85 -59 -96 -67
-18 -13 -22 -12 -42 13 -22 28 -22 28 -60 12 -21 -9 -60 -34 -88 -56 -78 -62
-89 -53 -33 30 19 28 55 71 80 95 34 33 45 52 45 74 0 22 8 36 30 53 66 48 79
107 20 87 -22 -8 -34 -8 -45 1 -11 9 -24 6 -62 -14 -55 -30 -196 -140 -202
-157 -5 -16 30 4 127 72 53 38 82 54 82 44 0 -20 13 -19 61 6 23 11 43 18 47
15 3 -3 -16 -24 -41 -47 -35 -30 -47 -48 -47 -69 0 -20 -10 -35 -35 -54 -19
-15 -50 -50 -70 -79 -20 -28 -47 -67 -61 -86 -63 -88 -6 -81 138 17 69 46 88
50 69 14 -30 -57 19 -57 101 0 107 76 130 90 135 84 3 -3 -1 -16 -10 -29 -15
-24 -15 -26 25 -58 23 -18 58 -35 77 -38 27 -5 37 -12 39 -27 3 -18 -4 -22
-45 -28 -83 -11 -160 -87 -167 -163 -2 -18 -11 -40 -21 -47 -21 -15 -63 -10
-88 12 -16 14 -34 18 -111 26 -18 2 -37 13 -49 30 -21 29 -28 29 -130 10 l-27
-6 0 -172 0 -172 37 4 c34 4 36 3 24 -12 -7 -9 -24 -16 -37 -16 -21 0 -24 -5
-24 -35 0 -34 12 -46 25 -25 3 6 26 10 50 10 49 0 66 15 39 34 -20 15 -10 38
13 29 12 -5 15 -2 10 10 -3 9 -2 19 3 22 6 4 10 1 10 -6 0 -6 8 -9 20 -6 11 3
18 1 14 -4 -3 -5 -12 -9 -20 -9 -11 0 -13 -9 -8 -42 8 -52 24 -74 24 -34 0 23
4 27 19 23 10 -2 25 -1 33 4 12 7 17 2 22 -23 8 -40 -19 -64 -76 -70 -37 -3
-54 14 -25 25 7 3 5 6 -5 6 -10 1 -18 -3 -18 -9 0 -5 -8 -10 -17 -10 -15 0
-16 -2 -3 -10 13 -8 12 -10 -3 -10 -23 0 -33 -26 -16 -46 11 -13 11 -15 -2
-14 -25 4 -39 0 -39 -11 0 -6 14 -9 33 -7 19 2 31 8 30 16 -5 20 14 14 20 -7
3 -15 -2 -20 -25 -25 -21 -4 -29 -11 -26 -23 3 -15 17 -19 83 -24 45 -3 84 -1
90 4 6 7 4 8 -7 4 -14 -5 -18 -1 -18 16 0 25 -13 49 -26 48 -5 0 -8 9 -6 19 2
11 -2 20 -7 20 -6 0 -11 -7 -11 -15 0 -8 -7 -15 -16 -15 -13 0 -14 3 -5 13 6
8 9 16 6 19 -3 3 1 10 8 17 12 9 24 -4 66 -68 28 -43 51 -84 51 -90 0 -6 -10
-10 -22 -8 -15 1 -23 -4 -26 -17 -5 -23 14 -36 52 -36 16 0 46 -5 67 -12 33
-9 42 -9 57 5 10 10 21 17 23 17 2 0 4 -22 3 -49 -1 -53 -16 -80 -43 -82 -10
0 -11 -2 -3 -6 18 -7 15 -30 -17 -136 -22 -69 -29 -110 -26 -150 4 -69 9 -77
46 -77 24 0 29 -4 29 -26 l0 -25 -215 3 -215 3 0 -22 c0 -13 6 -24 13 -24 6
-1 131 -4 277 -8 256 -6 265 -7 265 -26 0 -20 -6 -20 -277 -17 -227 2 -278 0
-278 -11 0 -11 49 -15 238 -20 130 -4 246 -9 257 -11 11 -3 34 -5 52 -5 27 -1
33 -6 43 -38 7 -21 25 -68 41 -104 15 -36 26 -74 23 -85 -3 -13 6 -34 25 -58
20 -24 32 -54 36 -84 3 -26 8 -59 10 -73 3 -22 -2 -29 -28 -42 -18 -9 -48 -19
-68 -22 -20 -3 -44 -14 -53 -24 -16 -17 -16 -20 -1 -35 16 -15 34 -22 80 -29
11 -2 38 -8 60 -14 22 -6 66 -13 97 -16 74 -7 87 6 70 69 -7 24 -12 51 -12 59
0 17 50 45 80 45 28 0 96 36 103 54 6 16 -42 46 -73 46 -41 0 -49 41 -34 175
3 28 4 61 3 75 -1 14 -2 41 -3 60 l-1 35 434 -2 c288 -1 437 -5 444 -12 13
-13 16 -122 4 -138 -17 -24 3 -49 51 -64 61 -18 187 -11 221 13 24 17 24 18 6
38 -10 11 -33 25 -51 32 -29 10 -34 18 -40 54 -11 78 -13 77 116 73 63 -1 190
-3 282 -3 l167 -1 10 -40 c6 -25 6 -43 0 -51 -5 -6 -17 -51 -26 -100 l-16 -88
33 -27 c18 -15 29 -32 26 -37 -4 -6 -2 -13 4 -17 12 -7 13 -55 2 -71 -6 -10
-135 -26 -229 -28 -42 -2 -60 -18 -38 -36 17 -14 20 -40 5 -40 -5 0 -14 -9
-20 -21 -9 -16 -8 -24 4 -38 20 -22 21 -45 2 -34 -8 4 -40 33 -72 63 l-58 55
50 11 c66 14 67 38 2 42 -26 2 -56 -2 -66 -7 -17 -9 -34 5 -123 99 -103 109
-104 110 -151 110 -25 0 -48 -3 -50 -7 -1 -5 -16 -15 -33 -23 -24 -13 -31 -23
-33 -53 -4 -41 15 -75 80 -143 47 -49 57 -44 -133 -70 -118 -16 -130 -16 -168
-1 -56 23 -70 22 -123 -12 -57 -36 -75 -79 -58 -140 16 -61 72 -96 140 -88 28
3 65 16 82 28 28 20 41 22 142 20 101 -2 288 12 326 24 10 3 37 -20 75 -66
144 -170 154 -179 199 -179 23 1 60 5 84 9 23 5 42 5 42 0 0 -4 -25 -30 -55
-57 -44 -39 -67 -51 -113 -61 -31 -7 -71 -16 -88 -22 -17 -5 -44 -9 -61 -9
-34 0 -169 -52 -189 -72 -7 -7 -14 -22 -16 -33 -7 -46 114 -54 702 -45 100 2
175 -1 191 -8 21 -9 31 -25 49 -79 37 -116 41 -123 65 -123 l22 0 -18 72 c-10
40 -51 204 -92 363 -41 160 -95 378 -122 485 -108 444 -155 634 -198 800 -101
390 -178 712 -173 726 9 23 33 16 44 -13 5 -16 20 -71 32 -123 12 -52 32 -120
45 -150 21 -51 49 -159 125 -490 17 -74 37 -155 45 -180 8 -25 24 -85 35 -135
12 -49 36 -153 55 -230 19 -77 50 -210 71 -295 20 -85 73 -306 119 -490 l82
-335 28 -3 c21 -3 26 0 22 11 -5 14 -69 270 -160 642 -19 77 -48 192 -65 255
-16 63 -47 187 -67 275 -21 88 -66 279 -102 425 -35 146 -71 297 -80 335 -20
86 -45 176 -77 275 -21 66 -66 246 -66 264 0 3 13 6 29 6 27 0 29 -3 41 -62 7
-35 23 -101 36 -148 13 -47 35 -134 49 -195 14 -60 37 -153 50 -205 24 -94 40
-160 95 -395 16 -66 44 -183 63 -260 19 -77 39 -162 45 -190 7 -27 30 -126 52
-220 22 -93 54 -228 70 -300 17 -72 52 -217 78 -322 44 -183 48 -193 71 -193
19 0 22 4 17 23 -3 12 -20 78 -36 147 -17 69 -35 136 -40 150 -6 14 -26 94
-45 179 -28 124 -33 161 -25 189 5 19 7 53 4 76 -6 50 8 102 26 98 8 -2 43 1
79 7 242 36 515 71 731 92 75 7 131 17 141 25 23 21 39 17 39 -9 0 -13 12 -61
26 -108 42 -138 54 -239 45 -364 -4 -61 -5 -121 -1 -135 4 -16 22 -34 52 -50
64 -36 75 -46 82 -84 4 -22 22 -48 50 -74 58 -54 96 -72 170 -83 90 -12 364
-15 376 -3 14 14 -5 108 -33 164 -19 37 -37 53 -102 92 -44 25 -92 56 -108 68
-36 28 -87 104 -98 144 -4 17 -15 56 -24 86 -8 30 -20 100 -26 155 -5 55 -14
113 -19 130 -8 23 -7 31 5 38 8 4 15 12 15 18 0 5 10 21 23 34 19 21 38 27
147 40 69 8 172 22 230 30 58 8 113 15 123 15 9 0 17 7 17 15 0 9 -9 15 -22
15 -30 0 -250 -26 -348 -41 -42 -7 -89 -9 -103 -5 -24 6 -27 11 -27 46 0 46
-18 42 245 65 246 22 255 24 255 46 0 16 -6 18 -37 14 -21 -2 -101 -9 -178
-15 -77 -6 -175 -14 -217 -18 l-77 -8 -11 30 c-5 16 -10 45 -10 65 0 21 -5 42
-12 49 -6 6 -13 34 -15 62 l-3 50 118 1 c64 0 190 0 280 -1 157 -1 162 -1 162
19 0 20 -6 20 -242 20 -134 1 -262 1 -285 1 -39 0 -43 2 -43 25 l0 25 113 2
c61 1 190 1 285 0 l173 -1 -3 27 c-3 25 -7 27 -42 25 -29 -1 -36 1 -27 10 19
19 12 34 -16 40 -30 6 -48 -10 -33 -29 6 -6 7 -14 3 -17 -11 -12 -41 -8 -46 6
-4 9 -6 9 -6 0 -1 -8 -15 -13 -37 -13 -32 0 -35 2 -24 15 18 22 3 32 -51 37
-48 3 -53 -5 -26 -39 7 -10 -11 -13 -84 -13 -76 0 -90 2 -77 13 8 6 18 20 21
30 6 15 -1 17 -53 17 -51 0 -60 -3 -60 -18 0 -10 5 -23 12 -30 7 -7 9 -12 5
-12 -10 0 -47 33 -47 42 0 4 -13 36 -29 70 -42 89 -48 118 -25 118 11 0 28 -7
38 -15 11 -8 35 -15 53 -15 38 0 58 27 50 68 -3 18 3 36 20 59 24 32 26 32 42
14 22 -26 104 -36 122 -15 21 25 -10 45 -73 47 -45 1 -54 4 -51 17 5 18 53 46
98 56 17 4 39 13 50 20 25 18 35 18 35 -1 0 -17 21 -20 36 -6 5 5 22 11 38 13
33 3 47 25 22 33 -52 16 -51 14 -25 41 12 13 29 22 35 20 7 -3 18 2 24 10 7 8
19 14 26 14 8 0 14 5 14 10 0 6 -15 10 -34 10 -19 0 -38 5 -41 10 -7 11 23
100 34 100 14 -1 26 -16 26 -35 0 -22 30 -31 71 -21 27 7 31 32 10 61 -13 18
-14 18 -25 -4 -14 -25 -24 -21 -26 10 -1 13 12 30 35 47 36 26 37 28 38 93 0
57 -2 67 -15 62 -13 -5 -15 -1 -10 19 6 22 3 25 -43 37 -28 7 -52 16 -54 20
-3 4 11 16 31 26 33 18 36 18 65 2 l29 -17 -3 26 c-2 15 -14 32 -31 42 -26 16
-29 16 -55 0 -15 -10 -42 -25 -59 -34 l-33 -18 -35 37 c-20 20 -61 53 -91 72
-84 54 -131 110 -181 215 -57 119 -75 168 -112 302 -31 110 -54 158 -76 158
-24 0 -45 -12 -45 -25 0 -8 -10 -15 -22 -17 -30 -4 -35 -45 -12 -90 l17 -33
-21 18 c-48 43 -89 -5 -98 -113 -6 -66 -3 -83 18 -135 14 -33 29 -69 33 -80 4
-11 7 -29 6 -41 -1 -12 7 -48 18 -80 34 -101 47 -166 81 -404 4 -30 15 -89 24
-130 9 -42 18 -89 20 -105 2 -17 9 -46 15 -65 18 -57 16 -61 -28 -45 -92 32
-136 74 -221 210 -40 64 -43 75 -42 133 0 53 -2 62 -16 60 -12 -2 -16 3 -14
18 4 29 -24 51 -47 37 -17 -10 -18 -7 -17 35 1 41 -2 47 -19 47 -18 0 -20 -6
-18 -80 2 -145 84 -326 186 -417 59 -52 41 -57 -20 -5 -56 47 -141 157 -190
244 -37 65 -79 192 -89 270 -8 64 -29 87 -51 58 -22 -29 -13 -159 14 -205 12
-19 28 -57 37 -85 32 -100 175 -277 293 -365 50 -38 76 -50 128 -60 36 -7 69
-10 72 -6 3 3 14 -8 24 -24 22 -35 39 -38 46 -10 5 17 9 14 25 -20 11 -23 18
-43 15 -46 -3 -3 -28 11 -56 30 -28 20 -66 38 -83 40 -211 28 -248 46 -404
193 -70 67 -95 102 -162 235 -76 147 -127 295 -119 342 8 50 -14 66 -42 30
-12 -15 -21 -34 -21 -42 0 -39 79 -240 143 -367 67 -130 79 -147 167 -234 52
-51 114 -106 138 -121 l43 -28 -83 -1 c-46 0 -107 6 -136 13 -32 9 -74 12
-108 9 l-55 -6 -45 47 c-45 48 -68 53 -81 21 -7 -20 36 -67 97 -103 l45 -27
-46 -3 c-39 -3 -51 1 -76 25 -17 16 -33 42 -37 59 -4 17 -23 46 -42 65 -65 62
-94 145 -93 264 l1 80 13 -45 c32 -114 115 -260 146 -260 27 0 24 23 -14 94
-59 110 -89 203 -92 291 -7 172 -6 211 4 244 11 37 -1 75 -22 69 -7 -2 -21
-22 -32 -44 -16 -31 -20 -57 -19 -129 1 -58 -1 -78 -5 -55 -4 19 -8 88 -10
152 -2 99 0 117 13 112 23 -9 26 9 16 97 -18 159 -70 142 -82 -26 -7 -103 12
-381 28 -407 3 -5 8 -67 11 -139 6 -148 26 -233 69 -299 75 -111 80 -127 30
-94 -21 13 -39 15 -81 10 -61 -7 -53 -13 -85 69 -52 129 -70 258 -76 525 -4
145 -1 234 9 305 8 55 12 106 10 113 -7 18 -41 15 -52 -6 -25 -46 -36 -482
-16 -607 3 -16 10 -79 16 -140 6 -60 14 -128 19 -150 5 -22 7 -41 5 -43 -11
-11 -63 34 -71 62 -8 27 -13 31 -41 30 l-33 -2 0 54 c0 40 4 55 17 63 15 8 16
14 5 43 -6 19 -11 64 -11 101 1 37 -5 96 -12 132 -21 107 11 426 49 483 8 13
16 45 17 70 0 26 4 59 9 73 8 28 -16 63 -38 56 -16 -5 -66 -160 -76 -237 -5
-36 -12 -85 -15 -110 -15 -109 -21 -109 -19 0 2 81 9 134 23 180 11 36 24 93
30 127 5 34 14 71 20 81 6 11 20 50 32 88 12 38 29 77 37 87 12 13 13 22 4 40
-6 12 -10 37 -10 55 1 26 5 32 23 32 37 0 51 25 31 55 -9 14 -21 25 -26 25 -6
0 -10 13 -10 28 0 15 -5 33 -11 39 -6 6 -14 53 -19 104 -8 92 -47 285 -70 343
-6 16 -15 70 -20 120 -5 57 -17 110 -31 141 -20 43 -24 71 -27 190 -2 77 -8
144 -13 150 -6 6 -15 3 -24 -6 -11 -11 -16 -36 -16 -85 -1 -76 -12 -107 -37
-102 -13 3 -17 15 -17 57 0 47 -3 56 -28 75 -35 26 -60 13 -67 -35 -5 -36 -17
-40 -67 -24 -18 6 -30 0 -54 -26 -24 -25 -29 -28 -20 -10 7 12 11 31 8 41 -3
11 5 27 19 39 13 12 24 26 24 31 0 7 7 7 21 0 11 -7 27 -9 35 -6 18 7 18 40 0
55 -20 17 3 122 41 191 18 30 34 73 38 95 3 22 20 81 38 130 25 73 40 99 79
138 l47 47 25 -25 c19 -19 35 -25 71 -25 25 0 45 -1 45 -3 0 -1 4 -16 9 -34 7
-25 6 -31 -4 -27 -8 3 -12 11 -9 18 8 22 -22 39 -45 26 -23 -12 -27 -25 -10
-35 6 -4 8 -13 5 -20 -3 -8 2 -19 10 -26 11 -9 12 -14 3 -20 -19 -12 -2 -39
25 -39 30 0 42 16 26 35 -9 11 -9 18 4 30 15 15 16 13 16 -29 0 -62 45 -170
88 -212 19 -19 52 -41 73 -51 49 -21 51 -40 5 -35 -26 3 -36 9 -38 26 -2 17
-9 21 -35 20 -22 -1 -30 2 -27 11 8 19 -14 29 -31 15 -22 -18 -18 -40 5 -40
11 0 23 -8 27 -17 9 -26 44 -53 70 -53 12 0 25 -5 28 -10 4 -6 14 -9 23 -8 14
3 18 -7 20 -53 l3 -57 -46 16 c-34 11 -49 12 -57 4 -14 -14 17 -52 42 -52 25
0 62 -39 58 -63 -3 -19 -9 -21 -44 -19 -48 4 -67 -14 -39 -35 11 -7 27 -13 37
-13 25 0 57 -35 64 -68 5 -26 4 -27 -37 -27 -79 0 -50 -44 31 -48 22 -1 40 -5
40 -10 0 -11 47 -57 59 -57 5 0 17 7 25 16 15 14 16 13 16 -8 0 -52 -33 -164
-54 -183 -26 -24 -46 -67 -52 -113 -6 -48 -10 -52 -45 -42 -17 5 -34 9 -38 8
-3 -1 -27 2 -54 6 -59 10 -117 -13 -117 -46 0 -12 -7 -30 -16 -40 -12 -12 -14
-21 -7 -30 14 -17 22 -78 11 -84 -4 -3 -8 -20 -8 -39 0 -56 89 -135 152 -135
11 0 26 -7 33 -17 7 -9 19 -14 29 -10 40 16 -3 77 -55 77 -17 0 -45 11 -63 25
-28 21 -34 34 -39 77 -7 59 -2 72 21 59 12 -7 17 -23 17 -58 0 -46 1 -49 35
-60 19 -7 54 -12 76 -12 l41 -1 7 -90 c7 -90 7 -91 -18 -111 -59 -46 6 -48 79
-3 38 24 38 23 -13 -25 -39 -37 -52 -56 -47 -70 3 -10 -1 -23 -9 -30 -11 -9
-18 -5 -34 23 l-20 34 21 6 c17 4 19 8 9 18 -17 17 -44 0 -56 -36 -8 -21 -5
-36 14 -74 13 -26 22 -57 21 -69 -2 -17 6 -26 36 -38 70 -30 261 -63 370 -65
25 0 73 28 151 91 101 80 121 92 128 76 3 -9 22 -27 43 -41 31 -22 41 -24 71
-16 40 11 110 65 110 85 0 15 27 29 51 26 9 -1 22 5 29 14 7 8 21 15 31 15 11
0 23 10 29 24 10 29 29 37 52 23 29 -18 98 12 159 71 68 63 118 91 154 84 22
-4 35 4 73 45 59 64 80 122 88 249 5 85 2 113 -19 201 -24 97 -75 225 -120
300 -22 38 -13 61 10 26 15 -22 42 -31 44 -15 0 4 2 22 5 41 2 20 -1 41 -9 50
-8 9 -19 31 -26 50 -6 19 -20 40 -31 48 -15 10 -20 25 -20 57 0 36 -6 48 -40
81 -22 21 -45 54 -51 72 -6 18 -24 42 -40 54 -32 23 -79 109 -79 146 0 19 -85
115 -149 168 -6 6 -28 31 -47 57 -39 52 -87 78 -151 86 -26 3 -43 10 -43 18 0
7 9 52 20 101 33 152 90 414 111 513 11 52 26 122 34 155 8 33 35 157 61 275
26 118 53 242 60 275 8 33 16 71 18 85 3 14 14 60 25 104 12 43 21 90 21 103
0 27 -43 128 -59 137 -6 4 -28 -10 -51 -31 -36 -35 -43 -49 -71 -158 -18 -66
-35 -136 -39 -155 -5 -19 -16 -69 -25 -110 -51 -232 -19 78 41 393 29 154 29
158 4 185 -29 30 -51 28 -87 -10z m32 -47 c3 -5 -3 -33 -14 -63 -10 -29 -22
-73 -25 -98 -7 -57 -14 -93 -27 -150 -14 -63 -35 -161 -69 -330 -40 -194 -110
-478 -127 -515 -13 -28 -13 -27 -7 25 4 30 11 66 16 80 10 26 54 223 93 420
13 63 33 158 44 210 50 222 71 327 71 358 0 52 27 90 45 63z m172 -143 c-4
-18 -16 -71 -27 -118 -30 -124 -58 -251 -80 -365 -11 -55 -24 -111 -29 -125
-27 -76 -90 -331 -177 -715 -9 -38 -24 -99 -34 -135 -10 -36 -26 -103 -35
-150 -8 -47 -20 -101 -25 -120 -5 -19 -18 -75 -28 -125 -11 -49 -30 -128 -42
-175 -12 -47 -34 -146 -50 -220 -16 -74 -54 -234 -84 -355 -31 -121 -56 -231
-56 -245 -1 -14 -11 -63 -24 -109 -24 -91 -35 -102 -92 -94 -17 3 -44 -1 -60
-9 -16 -7 -49 -12 -72 -10 l-44 3 7 37 c4 20 13 52 20 69 13 30 16 32 40 23
15 -6 40 -10 56 -10 28 0 29 -1 23 -39 -5 -30 -3 -39 10 -44 11 -5 20 1 26 16
8 19 91 355 118 477 6 25 17 72 25 105 9 33 34 139 57 235 50 211 92 380 295
1185 86 341 161 636 165 655 14 60 57 242 76 318 12 48 23 72 32 72 11 0 13
-8 9 -32z m-171 -26 c-12 -11 -18 7 -10 30 l8 23 4 -23 c2 -13 1 -26 -2 -30z
m181 -144 c-3 -8 -6 -5 -6 6 -1 11 2 17 5 13 3 -3 4 -12 1 -19z m-233 -159
c-15 -81 -33 -133 -34 -99 0 19 42 191 46 187 2 -2 -4 -41 -12 -88z m210 52
c-4 -17 -9 -30 -11 -27 -3 2 -2 19 2 36 9 41 17 33 9 -9z m-17 -63 c-3 -8 -6
-5 -6 6 -1 11 2 17 5 13 3 -3 4 -12 1 -19z m-17 -89 c-7 -35 -16 -71 -21 -79
-8 -12 -9 -11 -5 5 3 11 10 48 17 83 6 34 14 61 16 58 2 -2 -1 -33 -7 -67z
m-200 -34 c0 -23 -45 -202 -53 -210 -6 -7 -8 -2 -3 15 4 14 14 64 24 113 9 48
20 87 24 87 5 0 8 -2 8 -5z m140 -242 c-12 -54 -30 -136 -40 -183 -11 -47 -27
-121 -36 -165 -9 -44 -20 -96 -24 -115 -15 -67 -52 -236 -71 -325 -10 -49 -25
-117 -33 -150 -20 -87 -77 -342 -87 -395 -5 -25 -25 -117 -45 -205 -19 -88
-57 -263 -84 -390 -81 -383 -89 -412 -111 -418 -25 -7 -24 1 6 126 13 56 40
179 59 272 58 288 125 592 182 825 24 100 37 180 30 187 -3 3 1 14 9 23 8 9
19 36 24 61 9 44 33 141 52 211 5 20 12 56 15 80 4 24 10 50 15 59 9 18 29 98
35 139 2 14 13 63 24 110 12 47 28 117 36 155 18 89 58 219 62 206 2 -6 -6
-55 -18 -108z m-204 -96 c-9 -57 -16 -119 -16 -138 0 -18 -4 -46 -9 -63 -6
-17 -22 -85 -36 -151 -15 -66 -45 -193 -67 -283 -21 -89 -41 -175 -43 -190 -2
-15 -20 -90 -40 -167 -21 -77 -41 -160 -46 -185 -5 -24 -16 -69 -24 -100 -17
-62 -72 -297 -104 -440 -31 -136 -43 -181 -48 -176 -3 2 11 80 31 173 19 92
47 227 61 298 14 72 37 180 51 240 13 61 31 142 39 180 25 115 105 474 127
565 11 47 24 105 29 130 5 25 18 81 28 125 11 44 30 125 42 180 12 55 23 104
26 108 13 22 13 -10 -1 -106z m-696 -28 c0 -18 -2 -19 -15 -9 -15 12 -12 30 6
30 5 0 9 -10 9 -21z m58 -44 c-11 -11 -68 -8 -68 4 0 4 11 6 25 3 19 -3 25 0
25 14 1 18 1 18 11 1 6 -10 9 -20 7 -22z m162 -30 c-7 -8 -17 -12 -23 -8 -6 4
-3 11 8 19 23 17 32 10 15 -11z m-350 -20 c-13 -14 -26 -23 -28 -20 -3 3 5 16
18 30 13 14 26 23 28 20 3 -3 -5 -16 -18 -30z m120 5 c0 -5 -5 -10 -11 -10 -5
0 -7 5 -4 10 3 6 8 10 11 10 2 0 4 -4 4 -10z m-80 -10 c0 -5 -4 -10 -10 -10
-5 0 -10 5 -10 10 0 6 5 10 10 10 6 0 10 -4 10 -10z m135 -20 c-9 -10 -15 -26
-12 -34 4 -9 -6 -22 -26 -35 -38 -24 -59 -16 -26 11 23 18 23 19 3 13 -14 -3
-24 0 -27 9 -6 16 54 54 87 55 18 1 18 0 1 -19z m35 -60 c0 -5 -5 -10 -11 -10
-5 0 -7 5 -4 10 3 6 8 10 11 10 2 0 4 -4 4 -10z m69 -24 c31 -28 83 -44 75
-22 -3 7 2 16 10 19 12 5 13 1 7 -16 -7 -18 -17 -22 -52 -23 -24 0 -45 -5 -45
-10 -5 -33 -20 -54 -45 -63 -33 -11 -37 -7 -34 34 4 50 16 85 34 95 22 13 22
13 50 -14z m-313 -1 c-11 -8 -22 -12 -25 -9 -6 6 19 24 34 24 6 -1 1 -7 -9
-15z m669 -275 c-31 -129 -75 -329 -99 -445 -24 -115 -58 -271 -75 -345 -17
-74 -51 -232 -75 -350 -102 -491 -93 -460 -131 -460 -28 0 -31 7 -11 35 11 16
49 176 79 335 20 104 139 616 168 723 5 21 18 75 29 120 10 45 48 199 85 342
37 143 70 271 73 285 3 14 7 18 9 10 2 -8 -22 -121 -52 -250z m-285 195 c7 -9
8 -15 2 -15 -5 0 -12 7 -16 15 -3 8 -4 15 -2 15 2 0 9 -7 16 -15z m13 -50 c3
-13 -29 -19 -51 -10 -15 6 -15 8 3 15 24 11 45 8 48 -5z m52 -15 c3 -5 -1 -10
-11 -10 -13 0 -15 -6 -11 -28 5 -26 4 -28 -29 -29 -19 -1 -34 1 -34 3 0 8 63
74 70 74 5 0 12 -4 15 -10z m-246 -62 c-5 -10 -14 -16 -20 -13 -5 4 -5 14 1
26 6 11 8 25 5 32 -4 6 0 4 9 -7 11 -14 13 -24 5 -38z m56 23 c-3 -6 -11 -11
-17 -11 -6 0 -6 6 2 15 14 17 26 13 15 -4z m358 -63 c-9 -40 -64 -253 -68
-266 -4 -10 -10 -10 -33 2 -18 9 -33 11 -44 5 -24 -14 -85 16 -103 51 -22 42
-19 48 25 61 44 13 49 25 23 45 -16 12 -15 13 15 14 17 0 32 -5 32 -10 0 -6
14 2 31 17 29 27 30 28 10 37 -33 14 -24 28 13 21 32 -7 77 7 75 23 -3 16 2
22 15 22 10 0 12 -7 9 -22z m-486 -23 c-2 -42 -17 -47 -17 -7 0 25 7 42 16 42
1 0 2 -16 1 -35z m859 -440 c41 -17 144 -102 144 -119 0 -6 25 -37 55 -70 34
-36 55 -67 55 -82 0 -12 19 -62 42 -111 32 -67 56 -101 101 -144 46 -45 54
-56 35 -52 -15 3 -30 -3 -43 -16 -18 -21 -18 -22 3 -60 27 -48 28 -81 2 -114
-11 -14 -20 -30 -20 -37 0 -6 -8 -9 -17 -6 -10 2 -33 7 -50 11 -29 6 -33 10
-33 40 0 18 -7 38 -15 45 -8 7 -15 29 -15 49 0 20 -5 42 -12 49 -27 27 -95 5
-118 -39 -8 -14 -7 -27 3 -47 41 -78 41 -79 16 -111 -30 -38 -50 -35 -61 9 -9
35 -31 60 -54 60 -7 0 -26 -12 -43 -26 -33 -27 -39 -60 -20 -95 7 -15 7 -24
-1 -35 -16 -19 -30 -9 -30 22 0 67 -50 85 -94 33 -14 -17 -26 -34 -26 -39 0
-20 53 -111 70 -120 11 -6 17 -16 14 -24 -3 -7 2 -32 10 -55 10 -29 11 -52 5
-73 -6 -23 -4 -38 8 -58 15 -26 15 -30 -5 -62 -20 -32 -20 -37 -7 -83 18 -58
10 -76 -54 -122 -22 -15 -47 -41 -57 -58 -9 -16 -28 -42 -41 -56 -18 -19 -21
-29 -13 -34 16 -10 -6 -25 -37 -25 -27 0 -54 -26 -47 -44 3 -8 0 -17 -6 -21
-13 -8 -100 -9 -107 -1 -3 3 1 24 9 48 11 31 21 44 39 48 15 4 24 13 24 25 0
24 -31 31 -184 39 -63 4 -118 9 -121 11 -4 2 -54 7 -111 10 -134 7 -135 8
-136 50 -1 34 9 46 22 25 4 -7 13 -6 26 1 21 11 152 3 439 -26 25 -3 77 -7
115 -10 39 -3 77 -8 87 -11 20 -6 30 8 34 50 10 89 18 80 -71 93 -44 6 -81 12
-82 12 -9 3 0 74 16 139 18 71 36 155 76 352 8 41 21 107 29 145 58 276 89
422 107 500 19 82 29 130 44 208 4 22 11 27 36 27 16 0 46 -7 65 -15z m-560
-253 l-29 -27 23 32 c13 18 26 30 29 28 3 -3 -8 -18 -23 -33z m-56 -46 c0 -3
-4 -8 -10 -11 -5 -3 -10 -1 -10 4 0 6 5 11 10 11 6 0 10 -2 10 -4z m16 -83 c4
-10 6 -25 5 -33 -2 -24 -34 -165 -37 -169 -2 -2 -12 6 -22 19 -15 19 -22 21
-39 11 -27 -14 -38 -48 -23 -66 18 -22 47 -18 65 8 16 21 16 21 10 -23 -12
-80 -14 -84 -36 -64 -10 9 -27 14 -39 11 -23 -6 -25 9 -14 125 7 66 7 66 31
55 35 -16 61 12 47 50 -7 22 -16 28 -37 28 -15 -1 -27 3 -27 7 0 4 6 8 14 8 7
0 19 7 27 16 11 14 14 13 26 -10 8 -14 18 -26 24 -26 19 0 21 31 4 50 -15 17
-16 20 -3 20 9 0 19 -8 24 -17z m1124 -365 c0 -40 -24 -32 -28 10 -3 25 0 31
12 26 10 -4 16 -18 16 -36z m-1209 -23 c13 5 19 2 19 -10 0 -8 -8 -18 -17 -21
-10 -3 -25 -9 -35 -14 -19 -11 -28 6 -28 51 l0 29 21 -21 c13 -13 27 -18 40
-14z m1316 -616 c-3 -45 -10 -86 -17 -92 -9 -9 -11 -5 -7 18 3 17 9 58 12 93
10 90 19 76 12 -19z m-1421 21 c88 -12 91 -13 86 -36 l-4 -24 -137 6 c-176 9
-197 16 -172 62 10 19 21 19 227 -8z m272 9 c20 0 49 -2 63 -5 l27 -5 -16 -40
-15 -39 -94 0 -93 0 0 43 c0 24 3 47 7 51 4 4 25 4 46 1 21 -4 55 -7 75 -6z
m-1193 -132 c0 -79 -7 -150 -18 -202 -53 -245 -53 -241 -27 -255 17 -9 19 -14
9 -26 -7 -8 -23 -14 -37 -12 -19 2 -29 15 -48 62 -20 50 -22 65 -13 103 16 73
-5 123 -68 160 -37 22 -47 23 -75 14 -73 -26 -128 -92 -128 -156 0 -15 15 -42
38 -68 31 -34 41 -55 51 -109 l13 -67 -36 -43 c-20 -23 -42 -60 -48 -81 -7
-22 -19 -42 -27 -45 -9 -3 -32 -18 -51 -34 -19 -15 -38 -28 -42 -28 -4 0 -28
-14 -53 -31 -25 -17 -49 -29 -52 -26 -3 3 3 19 13 36 15 25 15 32 5 45 -11 13
-9 22 13 51 32 41 27 55 -17 55 -37 0 -86 -25 -178 -88 -78 -54 -105 -68 -151
-76 -35 -6 -37 -6 -35 21 1 19 -3 28 -16 31 -20 4 -129 -45 -198 -89 -50 -32
-59 -35 -59 -18 0 6 -7 36 -16 67 -29 99 -138 179 -196 143 -14 -9 -24 -8 -45
2 l-27 14 25 13 c13 7 51 34 84 60 33 26 98 73 145 105 47 32 93 68 103 81 14
18 29 24 55 24 27 0 55 12 103 44 37 25 83 52 104 61 53 22 68 4 21 -27 -20
-12 -36 -31 -36 -41 0 -10 -14 -31 -31 -47 -22 -19 -30 -34 -25 -45 12 -33 82
-7 240 90 26 17 77 58 113 92 36 35 95 78 132 97 37 19 115 63 172 97 90 55
294 166 309 168 3 1 5 -54 5 -122z m1423 68 c2 -2 1 -13 -3 -24 -5 -17 -15
-21 -46 -21 -37 0 -39 2 -39 31 0 31 0 31 43 24 23 -4 44 -9 45 -10z m-861
-184 c10 -27 8 -31 -43 -77 -34 -30 -54 -56 -54 -69 0 -14 -10 -26 -25 -33
-35 -16 -35 -16 -25 16 19 62 34 89 54 98 12 5 26 23 31 39 21 63 44 73 62 26z
m1713 14 c-7 -9 -15 -13 -19 -10 -3 3 1 10 9 15 21 14 24 12 10 -5z m-1131
-21 c2 -2 -2 -10 -8 -18 -8 -9 -8 -16 -2 -20 5 -4 8 -19 7 -34 -3 -22 -9 -28
-32 -30 -16 -2 -33 -8 -38 -13 -31 -29 -51 15 -40 88 l7 45 51 -7 c28 -4 53
-9 55 -11z m-199 -44 c0 -5 -4 -10 -10 -10 -5 0 -10 5 -10 10 0 6 5 10 10 10
6 0 10 -4 10 -10z m-5 -40 c3 -5 1 -10 -4 -10 -6 0 -11 5 -11 10 0 6 2 10 4
10 3 0 8 -4 11 -10z m-1151 -9 c4 -5 9 -30 12 -56 6 -39 3 -49 -16 -70 -33
-35 -91 -35 -119 1 -12 15 -21 33 -21 40 0 26 22 61 48 77 29 18 87 23 96 8z
m785 -10 c12 -21 -7 -35 -34 -25 -18 7 -19 16 -3 32 17 17 26 15 37 -7z m917
-11 c9 0 26 -25 41 -56 24 -54 25 -56 7 -76 -11 -11 -44 -33 -74 -48 -30 -16
-80 -54 -110 -85 -48 -50 -113 -95 -137 -95 -4 0 6 11 22 24 45 36 23 42 -46
12 -34 -15 -63 -25 -66 -23 -2 2 15 16 38 31 29 20 38 31 30 39 -7 7 -30 1
-79 -21 -38 -18 -72 -32 -77 -32 -16 0 31 42 68 61 20 11 37 24 37 30 0 25
-35 18 -91 -20 -38 -25 -73 -41 -91 -41 -29 0 -28 2 38 55 38 31 79 58 91 61
16 4 26 18 34 46 16 60 9 68 -53 61 -29 -3 -62 -13 -73 -23 -11 -10 -31 -23
-45 -29 -20 -10 -18 -6 10 19 53 47 54 48 68 65 8 10 30 15 62 15 29 0 50 5
52 12 3 9 12 9 37 -2 54 -22 168 -18 229 9 28 13 53 29 53 35 1 6 3 3 6 -6 2
-10 11 -18 19 -18z m524 -25 c-7 -8 -17 -15 -23 -15 -6 0 -2 7 9 15 25 19 30
19 14 0z m-1494 -105 c-33 -61 -92 -240 -101 -305 -10 -77 -79 -287 -82 -250
-7 83 -25 136 -48 145 -27 10 -44 6 -169 -44 -49 -20 -95 -36 -103 -36 -21 0
-15 18 13 37 14 9 48 39 75 67 38 40 50 61 55 96 8 50 39 130 51 131 78 7 107
28 129 97 16 51 19 54 88 86 39 19 80 41 91 49 19 14 20 14 23 -5 2 -11 -8
-42 -22 -68z m-406 5 c0 -8 6 -15 13 -15 17 0 39 -37 27 -45 -15 -9 -2 -25 20
-25 10 0 20 8 22 18 2 9 6 13 10 7 6 -10 -5 -34 -68 -155 -13 -25 -24 -58 -24
-75 0 -39 -13 -57 -33 -49 -13 4 -17 1 -17 -15 0 -14 -5 -19 -15 -15 -18 7
-45 -18 -45 -43 -1 -30 -16 6 -24 55 -5 31 -3 42 7 42 17 0 87 62 87 77 0 26
-23 24 -53 -5 -44 -42 -71 -47 -110 -24 -60 36 -82 36 -114 -2 -34 -41 -78
-70 -93 -61 -17 11 -11 24 19 40 16 8 32 23 35 32 3 10 17 30 31 46 23 24 33
27 94 27 61 0 70 3 93 28 36 39 78 108 78 130 0 11 10 24 23 30 31 15 37 14
37 -3z m962 -17 c-7 -7 -12 -8 -12 -2 0 6 3 14 7 17 3 4 9 5 12 2 2 -3 -1 -11
-7 -17z m-852 -8 c0 -5 -2 -10 -4 -10 -3 0 -8 5 -11 10 -3 6 -1 10 4 10 6 0
11 -4 11 -10z m346 -36 c-15 -30 -60 -173 -95 -304 -18 -68 -20 -71 -20 -34
-1 22 5 60 13 85 7 24 28 89 45 144 28 92 57 152 67 142 3 -2 -2 -17 -10 -33z
m434 11 c0 -11 -55 -53 -62 -48 -12 7 -9 20 8 37 14 15 54 23 54 11z m-1231
-29 c8 -9 8 -16 2 -20 -5 -4 -8 -21 -6 -39 4 -30 -16 -77 -33 -77 -4 0 -8 34
-10 75 -3 68 -1 75 16 75 11 0 25 -6 31 -14z m2117 -164 c67 -227 158 -400
245 -465 26 -19 27 -22 13 -38 -13 -15 -12 -19 10 -46 14 -17 40 -36 58 -43
18 -8 69 -37 113 -66 44 -29 92 -56 108 -59 15 -4 27 -14 27 -24 0 -9 3 -26 6
-37 8 -29 -32 -39 -78 -20 -28 12 -38 12 -66 1 -35 -15 -41 -35 -16 -59 14
-14 17 -61 4 -54 -3 2 -17 -4 -30 -13 -24 -15 -26 -14 -59 23 -21 24 -28 38
-19 38 8 0 19 5 25 11 26 26 -36 103 -129 162 -17 11 -32 34 -43 69 -18 55
-35 99 -104 260 -22 53 -41 106 -41 117 0 12 -4 21 -10 21 -5 0 -10 14 -10 32
0 68 -26 175 -73 303 -11 29 -12 42 -4 47 7 4 16 3 20 -1 4 -4 28 -76 53 -159z
m-76 -19 c0 -6 -9 -15 -20 -18 -25 -8 -34 -42 -21 -76 5 -14 6 -31 2 -38 -5
-7 -13 13 -20 50 -12 58 -11 64 8 90 12 16 21 36 22 46 0 12 5 8 14 -12 8 -16
14 -35 15 -42z m-2110 5 c0 -14 -30 -48 -42 -48 -5 0 -2 14 7 30 16 30 35 40
35 18z m120 -62 c0 -8 13 -25 30 -39 23 -20 26 -26 14 -31 -8 -3 -12 -11 -9
-17 4 -6 13 -8 21 -5 8 3 14 2 14 -3 0 -5 -11 -12 -25 -15 -30 -8 -32 -21 -6
-38 14 -9 17 -16 10 -24 -7 -9 -4 -17 12 -27 21 -15 20 -16 -22 -34 l-44 -20
-7 25 c-4 14 -5 29 -3 33 3 3 -2 12 -10 19 -8 7 -15 23 -15 37 0 13 -5 33 -11
44 -7 15 -7 24 1 34 7 8 9 19 5 25 -7 11 21 50 37 50 4 0 8 -6 8 -14z m-1510
-25 c0 -4 -15 -11 -32 -16 -44 -13 -51 -45 -10 -45 41 0 62 9 62 27 0 11 7 10
30 -7 23 -16 30 -29 30 -53 -1 -29 -2 -30 -14 -14 -7 9 -21 17 -31 17 -15 0
-17 -6 -11 -38 4 -27 1 -45 -11 -63 -9 -13 -10 -18 -3 -11 22 19 30 14 20 -13
-7 -18 -6 -24 2 -22 12 2 13 -136 2 -219 -5 -35 -3 -42 14 -46 17 -5 18 -11
11 -54 -4 -27 -8 -56 -8 -65 -1 -14 -12 -17 -66 -16 -36 1 -65 5 -65 9 0 12
-38 10 -62 -3 -17 -9 -24 -7 -43 17 -17 21 -25 52 -34 121 -6 50 -15 102 -20
115 -6 13 -13 41 -16 62 -4 25 -17 50 -37 68 -27 25 -29 30 -19 60 12 35 65
78 96 78 17 0 17 -1 -1 -22 l-19 -23 26 23 c14 12 37 22 51 22 14 0 38 10 53
22 25 20 26 22 10 34 -25 19 -15 34 35 54 44 16 60 17 60 1z m1040 -26 c-28
-29 -31 -37 -20 -49 7 -9 10 -23 6 -31 -3 -8 -3 -29 1 -45 4 -24 11 -30 30
-30 23 0 102 42 176 92 16 11 30 18 32 16 2 -2 6 -37 8 -78 4 -63 8 -76 28
-93 l24 -19 26 32 c26 30 27 31 34 11 4 -14 15 -21 31 -21 14 0 22 -4 19 -10
-3 -5 -15 -10 -26 -10 -10 0 -19 -4 -19 -9 0 -5 -41 -24 -91 -42 -123 -44
-128 -49 -104 -126 7 -21 4 -23 -31 -23 -66 1 -115 17 -148 49 -20 20 -42 31
-60 31 -17 0 -42 12 -63 30 -38 34 -56 36 -163 16 -41 -8 -112 -17 -156 -20
-93 -8 -89 -11 -99 81 l-7 59 58 36 c72 44 154 80 154 68 0 -5 -13 -17 -30
-26 -16 -10 -32 -25 -35 -33 -12 -30 13 -33 72 -9 32 14 82 33 110 42 29 9 96
46 148 81 107 73 150 86 95 30z m-703 -2 c36 -24 63 -112 62 -201 l-1 -77 -12
92 c-6 50 -15 95 -19 100 -5 4 -22 0 -39 -10 -30 -17 -30 -17 -25 3 3 13 0 20
-9 20 -10 0 -14 13 -15 43 0 23 -3 36 -6 29 -6 -16 -23 -6 -23 14 0 12 7 14
32 8 18 -3 43 -13 55 -21z m1012 -54 c-11 -27 -19 -70 -19 -95 0 -27 -4 -43
-10 -39 -11 7 -14 155 -4 192 6 21 8 21 29 7 l23 -15 -19 -50z m-1139 40 c0
-6 -4 -7 -10 -4 -5 3 -10 11 -10 16 0 6 5 7 10 4 6 -3 10 -11 10 -16z m-55
-30 c4 -11 4 -23 0 -27 -7 -7 -25 17 -25 36 0 20 18 14 25 -9z m77 -87 c-3
-31 -1 -47 9 -53 17 -10 49 17 49 43 0 25 16 23 23 -3 7 -25 -2 -51 -14 -43
-5 3 -9 -3 -9 -12 0 -16 1 -16 19 0 12 11 21 13 25 7 13 -20 -2 -288 -18 -336
-9 -25 -14 -51 -11 -56 8 -12 35 -11 35 2 0 11 60 69 72 69 18 0 6 -28 -17
-38 -27 -12 -29 -20 -25 -94 1 -37 -2 -49 -15 -54 -12 -5 -13 -9 -5 -14 9 -6
6 -14 -9 -29 -12 -12 -24 -35 -27 -50 -5 -24 -1 -33 25 -52 23 -17 28 -26 20
-36 -6 -7 -17 -13 -23 -13 -26 -1 -38 -20 -46 -76 -4 -32 -11 -66 -15 -75 -3
-9 0 -23 7 -30 24 -25 40 -76 33 -108 -3 -17 -20 -42 -37 -56 -47 -40 -83 -31
-94 23 -7 33 9 46 20 16 3 -8 13 -14 22 -12 16 3 17 5 28 176 3 39 8 78 13 85
10 17 23 165 27 327 2 74 6 168 10 208 6 57 4 72 -6 72 -8 0 -20 -6 -27 -12
-10 -11 -11 3 -5 70 5 58 3 82 -5 82 -6 0 -11 -9 -11 -20 0 -38 -28 -21 -35
21 -9 50 4 164 15 134 4 -11 5 -40 2 -63z m1742 27 c10 -51 7 -79 -8 -79 -7 0
-19 -6 -25 -14 -6 -7 -33 -19 -59 -26 -83 -22 -165 -48 -247 -79 -44 -17 -88
-31 -98 -31 -9 0 -52 -16 -93 -37 -42 -20 -84 -36 -93 -36 -9 0 -33 -11 -54
-24 -22 -14 -40 -23 -41 -21 -25 44 -35 82 -25 94 6 8 18 14 25 14 8 0 22 4
32 9 9 6 42 18 72 27 30 9 100 38 155 64 55 26 116 50 136 54 20 4 79 25 130
47 81 35 158 64 180 68 4 1 9 -13 13 -30z m-541 -33 c17 -50 -8 -51 -32 -2
-26 57 -26 62 1 44 12 -8 26 -27 31 -42z m2137 40 c0 -3 -4 -8 -10 -11 -5 -3
-10 -1 -10 4 0 6 5 11 10 11 6 0 10 -2 10 -4z m-3408 -172 c0 -62 -4 -118 -10
-129 -6 -11 -14 -29 -18 -40 l-7 -20 -5 20 c-3 11 1 61 7 110 12 85 17 132 20
164 0 8 3 12 6 9 3 -3 6 -54 7 -114z m1859 -3 c-6 -11 -11 -47 -11 -80 0 -34
-3 -61 -7 -61 -5 0 -27 7 -51 15 -34 12 -48 13 -65 4 -12 -7 -41 -14 -64 -16
-37 -3 -45 0 -54 20 -21 45 2 72 88 102 43 16 98 36 123 45 49 17 61 9 41 -29z
m1506 -3 c-3 -8 -6 -5 -6 6 -1 11 2 17 5 13 3 -3 4 -12 1 -19z m103 -44 c0 -8
9 -32 20 -54 11 -22 26 -64 34 -94 18 -69 52 -120 96 -145 19 -11 45 -30 58
-44 20 -21 21 -25 7 -37 -26 -22 -17 -58 26 -103 22 -23 48 -42 57 -43 33 -2
62 -17 62 -31 0 -21 -35 -67 -65 -87 -13 -9 -57 -23 -97 -31 -40 -8 -88 -23
-105 -32 -32 -17 -43 -46 -23 -58 15 -9 12 -22 -7 -29 -10 -4 -26 3 -43 19
-14 14 -31 25 -38 25 -20 0 -14 17 8 23 25 6 26 41 5 111 -22 73 -17 88 10 30
36 -74 82 -93 151 -63 26 11 63 18 83 17 30 -3 36 0 36 16 0 43 -45 45 -142 5
-30 -12 -34 -11 -57 10 -13 13 -29 35 -34 49 -26 71 -64 204 -58 209 3 3 10
-6 15 -20 13 -34 79 -107 97 -107 16 0 19 -26 4 -35 -22 -13 -8 -37 33 -54 46
-20 67 -18 67 8 0 22 -19 41 -42 41 -20 0 -23 11 -7 27 16 16 -2 43 -42 62
-43 21 -87 106 -101 199 -5 37 -13 76 -18 87 -4 11 -15 49 -23 85 -9 36 -19
74 -23 84 -7 19 -5 18 24 -3 18 -12 32 -29 32 -37z m-3950 40 c0 -3 -9 -17
-20 -31 -21 -27 -27 -15 -10 18 10 18 30 27 30 13z m-200 -28 c0 -2 -7 -7 -16
-10 -8 -3 -12 -2 -9 4 6 10 25 14 25 6z m4074 -71 c7 -34 -7 -15 -19 25 -5 16
-4 22 3 15 5 -5 12 -23 16 -40z m-3917 -2 c-3 -10 -5 -4 -5 12 0 17 2 24 5 18
2 -7 2 -21 0 -30z m571 -69 c-3 -101 -5 -107 -31 -128 -22 -17 -25 -26 -19
-48 4 -15 12 -28 17 -28 12 -1 8 -59 -5 -75 -5 -7 -30 -12 -55 -13 -40 0 -45
2 -45 21 0 27 19 62 20 37 0 -12 2 -12 9 -2 4 8 7 44 5 80 -1 37 0 56 3 42 l5
-25 13 30 c13 29 13 29 14 6 1 -14 -6 -33 -16 -43 -11 -13 -12 -18 -3 -18 7 0
19 8 26 18 16 20 18 72 4 72 -5 0 -10 14 -10 31 0 24 4 30 15 25 15 -5 19 11
15 61 -2 26 16 63 31 63 8 0 10 -34 7 -106z m741 51 c21 4 33 -1 56 -25 16
-16 26 -33 22 -36 -3 -4 -77 -3 -164 1 -96 5 -148 11 -133 15 93 28 111 35
121 47 6 7 9 22 6 33 -4 17 0 16 30 -10 27 -24 41 -30 62 -25z m751 45 c-8 -5
-22 -10 -30 -10 -13 0 -13 1 0 10 8 5 22 10 30 10 13 0 13 -1 0 -10z m-1986
-22 c21 -108 35 -234 30 -275 -9 -68 -40 -116 -70 -110 -32 6 -59 -15 -50 -38
5 -14 14 -17 46 -12 64 8 46 -24 -20 -37 -25 -5 -45 -1 -68 11 -33 18 -34 19
-28 71 5 43 3 54 -10 59 -11 4 -23 -2 -34 -17 -15 -20 -18 -21 -24 -5 -3 10
-1 31 6 46 10 22 20 29 40 29 24 0 28 4 28 30 0 16 8 46 17 66 17 34 17 36 -1
50 -18 13 -17 15 18 54 20 22 36 36 36 32 0 -22 -32 -131 -47 -159 -23 -43 -9
-88 27 -88 22 0 25 4 22 30 -1 17 6 59 17 95 31 107 41 146 41 169 0 28 18 27
24 -1z m735 -161 c-1 -163 -3 -175 -22 -186 -18 -12 -19 -11 -13 11 4 12 9 70
13 128 l6 106 -27 12 c-30 14 -30 37 0 37 14 0 20 8 22 33 2 17 7 32 13 32 5
0 8 -72 8 -173z m1201 169 c0 -2 -9 -6 -20 -9 -11 -3 -18 -1 -14 4 5 9 34 13
34 5z m513 -29 c3 -12 6 -55 6 -96 1 -41 5 -79 9 -85 4 -6 7 -81 7 -166 0 -85
4 -177 8 -205 8 -49 8 -50 -8 -22 -9 15 -34 39 -56 52 -50 32 -56 48 -64 173
-6 83 -4 106 9 133 16 32 46 146 46 175 0 8 -7 14 -15 14 -14 0 -14 3 0 29 17
34 50 33 58 -2z m-417 -22 c10 -39 0 -50 -57 -64 -30 -8 -68 -21 -86 -29 -44
-21 -65 -10 -61 30 3 32 6 34 83 60 102 34 113 34 121 3z m-286 -25 c0 -5 -4
-10 -10 -10 -5 0 -10 5 -10 10 0 6 5 10 10 10 6 0 10 -4 10 -10z m2107 -52
c-2 -13 -4 -3 -4 22 0 25 2 35 4 23 2 -13 2 -33 0 -45z m-4091 -45 l-15 -28
-1 27 c0 14 6 28 13 31 19 7 20 1 3 -30z m2284 28 c0 -11 -86 -41 -114 -40
-16 0 52 30 112 48 1 1 2 -3 2 -8z m292 -16 c-2 -14 -6 -25 -8 -25 -2 0 -4 11
-4 25 0 14 4 25 9 25 4 0 6 -11 3 -25z m-2610 3 c-9 -9 -15 -9 -24 0 -9 9 -7
12 12 12 19 0 21 -3 12 -12z m1676 7 c64 -7 91 -27 62 -45 -8 -5 -15 -21 -18
-37 -4 -31 -46 -72 -75 -73 -27 0 -66 -29 -82 -61 -15 -28 -31 -277 -27 -402
1 -37 -6 -84 -18 -125 -18 -58 -19 -67 -5 -82 8 -9 15 -28 15 -42 0 -37 10
-58 26 -58 8 0 14 -4 14 -9 0 -9 -500 -13 -598 -4 -34 3 -59 10 -56 15 3 4 11
5 17 2 9 -5 9 -4 0 6 -6 7 -23 12 -37 12 -14 1 -26 4 -26 8 0 4 -11 5 -25 2
-14 -2 -25 -8 -25 -13 0 -5 7 -6 15 -3 9 4 15 0 15 -8 0 -11 -16 -15 -67 -16
-67 -2 -72 2 -31 22 21 10 23 18 20 68 l-4 55 36 7 c21 4 43 17 53 31 10 14
33 41 51 61 38 43 38 47 11 104 -18 36 -20 55 -15 105 3 33 12 62 18 64 7 2
22 14 35 27 17 17 22 30 17 48 -4 18 0 34 15 52 12 15 21 33 21 40 0 17 51 19
67 3 9 -9 19 -8 39 6 26 17 27 18 9 31 -11 8 -27 12 -36 9 -18 -6 -32 16 -23
38 3 10 18 12 54 7 44 -6 50 -4 59 16 12 28 -8 49 -40 41 -12 -3 -22 0 -26 9
-6 17 -24 19 -20 3 1 -6 -3 -13 -9 -16 -13 -4 -24 28 -24 72 l0 30 278 3 c152
1 305 0 340 -3z m827 -4 c21 -9 24 -8 -75 -27 -68 -13 -35 -59 37 -51 49 5 49
-8 0 -18 -45 -10 -57 -23 -51 -53 4 -20 0 -30 -15 -39 -19 -12 -21 -10 -26 15
-4 15 -11 47 -16 70 -13 56 4 99 41 105 43 7 84 6 105 -2z m-545 -11 c0 -6 -6
-10 -12 -10 -7 -1 -30 -3 -51 -6 -50 -7 -86 6 -42 16 50 10 105 10 105 0z
m120 -55 c10 -22 27 -78 38 -125 11 -47 23 -93 27 -102 5 -13 2 -18 -9 -18
-12 0 -16 10 -16 39 0 22 -6 44 -15 51 -8 7 -15 29 -15 49 0 27 -3 32 -10 21
-8 -12 -10 -12 -10 -1 0 8 -2 12 -4 10 -3 -3 -1 -21 4 -42 4 -20 4 -39 0 -42
-12 -7 -40 53 -33 71 3 7 1 14 -4 14 -5 0 -9 10 -9 23 1 17 -5 23 -27 25 -38
5 -60 -14 -46 -39 5 -10 18 -19 29 -19 13 0 17 -5 14 -14 -3 -8 2 -16 13 -19
10 -2 1 -4 -20 -4 -42 0 -61 -12 -52 -35 8 -20 44 -30 84 -22 29 6 61 -8 61
-26 0 -15 -82 -23 -90 -10 -4 7 -13 9 -20 5 -6 -4 -18 1 -26 11 -13 18 -14 18
-11 -1 1 -11 13 -31 25 -43 12 -12 22 -27 22 -33 0 -7 11 -8 30 -4 19 4 30 3
30 -4 0 -6 9 -11 20 -11 11 0 20 -7 20 -15 0 -17 40 -29 68 -21 18 6 23 -5 51
-121 17 -70 31 -131 31 -135 0 -5 -13 -8 -29 -8 -39 0 -61 -9 -61 -26 0 -10
14 -14 54 -14 49 0 54 -2 60 -24 3 -13 9 -31 12 -40 5 -13 -2 -16 -41 -16 -39
0 -46 -3 -43 -17 2 -14 15 -19 49 -21 l46 -3 15 -60 c8 -32 12 -61 10 -64 -3
-3 -16 -5 -30 -5 -20 0 -22 3 -13 14 18 21 -19 38 -72 34 -36 -3 -42 -6 -41
-24 0 -17 -5 -21 -26 -20 -14 1 -35 11 -47 23 -23 23 -71 21 -80 -3 -6 -16
-103 -20 -103 -4 0 5 3 9 8 8 4 0 15 2 25 5 9 4 24 9 33 12 8 3 14 13 12 22
-3 14 -12 17 -41 16 -29 -2 -37 1 -37 15 0 9 -3 27 -6 39 -6 21 -3 23 32 22
22 0 48 2 59 5 11 2 22 5 25 5 2 1 -5 8 -17 16 -12 8 -41 17 -65 18 -38 3 -43
6 -46 28 -3 23 0 25 26 21 18 -2 33 2 41 12 11 13 10 17 -10 25 -13 4 -34 5
-46 0 -26 -10 -28 -7 -37 44 l-7 38 62 -6 c67 -6 99 6 78 31 -18 22 -125 19
-138 -3 -8 -14 -10 -11 -16 19 -12 65 18 106 40 56 8 -19 18 -23 55 -23 38 0
45 3 45 20 0 12 -9 21 -25 25 -17 4 -21 8 -12 14 7 4 10 11 7 16 -3 5 1 25 9
44 14 34 14 37 -10 65 -32 38 -43 135 -17 150 14 7 15 14 6 33 -28 60 -32 77
-22 84 6 4 14 2 18 -4 3 -5 29 -13 57 -16 54 -8 77 5 74 41 -3 27 1 40 7 23 2
-8 13 -33 23 -55z m-1281 -89 c-9 -8 -10 -2 -5 29 3 22 7 56 8 75 1 19 3 6 5
-29 3 -41 0 -68 -8 -75z m1368 108 c-3 -3 -12 -4 -19 -1 -8 3 -5 6 6 6 11 1
17 -2 13 -5z m-1636 -93 c11 5 29 7 41 4 18 -6 20 -12 14 -56 -6 -45 -5 -50
18 -60 14 -7 22 -17 19 -25 -7 -19 2 -18 35 3 24 15 25 16 14 1 -7 -9 -10 -27
-7 -40 4 -16 0 -32 -13 -49 l-20 -24 5 28 c4 20 1 27 -10 27 -22 0 -51 -45
-72 -110 -10 -30 -21 -59 -25 -65 -12 -16 -28 -95 -36 -168 -8 -75 -16 -87
-44 -62 -17 15 -20 15 -44 0 -24 -16 -39 -44 -16 -30 14 9 12 -7 -5 -29 -8
-10 -12 -23 -9 -28 3 -5 0 -15 -6 -24 -8 -8 -10 -28 -7 -48 5 -28 3 -34 -10
-29 -9 4 -13 14 -10 29 2 13 1 24 -3 24 -4 0 -10 15 -13 33 -4 17 -9 46 -12
62 -7 31 19 75 44 75 6 0 11 7 11 15 0 18 -12 19 -28 3 -15 -15 -28 -2 -14 15
6 7 9 23 5 35 -3 12 0 29 7 37 7 9 10 18 7 22 -4 3 -1 15 5 27 7 11 11 24 10
28 -1 4 9 10 23 14 14 3 23 10 20 14 -5 9 25 23 33 16 9 -9 -21 -108 -34 -113
-8 -3 -14 -9 -14 -14 0 -4 8 -5 17 -2 17 7 17 6 0 -20 -22 -34 -22 -40 3 -32
27 9 25 -10 -2 -29 l-22 -16 26 0 c14 0 28 -5 30 -10 2 -7 10 -6 21 2 13 10
18 31 20 90 2 44 9 84 17 92 9 12 9 16 1 16 -7 0 -10 8 -7 18 9 26 -27 128
-43 124 -9 -2 -12 5 -9 23 4 20 3 23 -8 14 -19 -16 -18 0 1 22 15 15 14 17
-11 23 -19 5 -30 2 -40 -11 -12 -16 -12 -14 -4 16 5 19 16 41 25 51 20 22 19
50 -1 50 -23 0 -6 20 29 35 21 9 39 10 55 4 15 -6 31 -5 43 2z m2045 -47 c-4
-20 -10 -34 -12 -31 -3 3 -2 21 2 41 3 21 9 35 11 32 3 -3 2 -21 -1 -42z m-68
27 c8 -1 10 -6 5 -13 -4 -7 -6 -25 -4 -40 4 -40 -8 -69 -27 -67 -43 4 -53 -1
-50 -23 3 -20 10 -23 46 -24 24 -1 45 -4 47 -6 2 -2 -2 -22 -10 -43 -8 -22
-14 -48 -15 -57 0 -9 -5 -20 -12 -24 -8 -5 -9 0 -5 16 5 18 0 24 -23 33 -24 9
-31 21 -49 91 -26 99 -26 97 2 87 32 -12 64 3 69 34 5 22 2 26 -13 22 -10 -3
-24 1 -30 9 -10 12 -6 13 22 10 19 -3 40 -5 47 -5z m-697 -21 c11 0 19 -7 19
-17 0 -9 6 -24 14 -32 12 -15 37 -84 49 -138 4 -19 3 -20 -14 -10 -10 6 -19
19 -19 29 0 9 -4 20 -10 23 -5 3 -10 15 -10 26 0 10 -4 19 -10 19 -5 0 -10 11
-10 25 0 14 -4 25 -9 25 -19 0 -42 -33 -36 -49 13 -30 23 -136 14 -146 -5 -5
-9 -19 -9 -32 0 -15 -10 -28 -30 -38 -27 -14 -30 -14 -30 0 0 8 -7 15 -15 15
-8 0 -15 7 -15 15 0 11 -7 14 -25 9 -20 -5 -24 -3 -19 9 3 9 11 18 19 20 18 7
28 72 15 97 -6 12 -16 18 -23 14 -7 -4 4 10 23 30 24 25 31 39 23 44 -32 20
35 78 75 66 8 -2 22 -4 33 -4z m-1014 -127 c-4 -49 -13 -108 -21 -133 l-15
-45 0 66 c-1 39 4 70 12 78 10 11 10 13 0 7 -10 -5 -13 6 -13 43 0 37 5 53 18
60 9 6 19 11 21 11 2 0 1 -39 -2 -87z m145 45 c-18 -19 -22 -20 -22 -6 0 9 8
21 17 27 27 15 29 3 5 -21z m1194 -72 c7 -1 17 -6 21 -10 4 -5 -7 -6 -26 -2
-18 3 -40 6 -48 6 -8 0 -11 5 -8 10 4 6 16 8 27 4 11 -3 27 -7 34 -8z m-1422
-89 c-1 -112 -3 -127 -18 -127 -8 0 -18 -5 -22 -12 -5 -8 -2 -9 10 -5 12 5 15
3 9 -6 -4 -6 -8 -18 -8 -25 0 -14 -65 -59 -65 -45 0 5 14 17 31 27 17 10 28
21 25 24 -4 3 -12 0 -18 -6 -21 -21 -30 -13 -24 21 4 17 8 41 10 52 3 11 5 22
6 25 1 3 2 9 1 14 -3 13 31 88 46 104 7 7 13 18 13 23 0 5 1 9 3 9 1 0 2 -33
1 -73z m1892 42 c9 -18 32 -47 52 -65 21 -19 31 -34 25 -34 -32 0 -119 101
-106 123 7 12 12 8 29 -24z m-2481 11 c3 -5 -1 -10 -10 -10 -9 0 -13 5 -10 10
3 6 8 10 10 10 2 0 7 -4 10 -10z m305 -67 c0 -15 -48 -48 -56 -40 -3 3 -2 12
2 19 5 7 9 19 11 27 5 35 42 29 43 -6z m-156 -40 c-7 -29 -24 -56 -31 -49 -4
4 28 76 34 76 2 0 0 -12 -3 -27z m2204 -20 c-4 -22 -22 -20 -26 1 -2 10 3 16
13 16 10 0 15 -7 13 -17z m-2232 -69 c-4 -9 -9 -15 -11 -12 -3 3 -3 13 1 22 4
9 9 15 11 12 3 -3 3 -13 -1 -22z m336 1 c-2 -14 -9 -25 -14 -25 -6 0 -7 7 -4
16 3 9 6 20 6 25 0 5 4 9 9 9 4 0 6 -11 3 -25z m168 -16 c0 -16 -4 -28 -9 -25
-8 5 -3 56 5 56 2 0 4 -14 4 -31z m-466 -33 c-3 -21 -9 -35 -11 -32 -3 3 -2
21 1 42 4 20 10 34 12 31 3 -3 2 -21 -2 -41z m1484 16 c7 -5 15 -26 19 -48 3
-21 11 -46 18 -54 10 -12 35 -122 35 -153 0 -17 -51 -38 -78 -33 -26 6 -28 10
-27 59 0 40 -4 52 -15 52 -22 0 -30 15 -30 63 l0 43 32 -22 c17 -13 26 -25 20
-27 -15 -5 -16 -32 -2 -32 6 0 16 12 22 28 10 24 11 36 4 80 -1 7 -8 18 -14
24 -23 23 -11 37 16 20z m-1198 -17 c-7 -9 -15 -13 -17 -11 -7 7 7 26 19 26 6
0 6 -6 -2 -15z m-334 -13 c-3 -9 -8 -38 -11 -64 -11 -94 -21 -132 -33 -136
-17 -5 -12 92 7 126 6 12 11 28 9 35 -3 19 12 57 23 57 6 0 8 -8 5 -18z m438
-46 c-3 -19 -7 -57 -7 -85 -1 -28 -6 -51 -10 -51 -5 0 -7 -6 -4 -12 2 -7 10
-13 18 -13 22 0 23 -33 1 -40 -11 -3 -23 -17 -26 -30 -4 -14 -11 -25 -16 -25
-36 0 -40 160 -5 202 15 17 16 19 3 9 -12 -9 -18 -10 -18 -2 0 6 11 17 25 23
14 6 25 15 25 20 0 5 -9 4 -20 -2 -28 -15 -26 5 2 24 33 23 40 20 32 -18z
m2415 8 c2 -2 -10 -6 -25 -9 -49 -11 -54 -14 -54 -30 0 -11 10 -15 35 -15 28
0 35 4 35 20 0 11 7 20 15 20 8 0 15 5 15 10 0 6 15 10 34 10 19 0 38 -4 41
-10 3 -5 15 -10 26 -10 11 0 31 -12 45 -27 23 -25 31 -27 92 -25 49 2 81 10
119 29 29 14 67 26 84 25 42 -1 51 -12 10 -12 -24 0 -34 -6 -41 -25 -11 -28
-14 -29 -39 -15 -13 6 -24 5 -36 -4 -21 -15 -13 -33 19 -46 14 -7 -4 -9 -61
-8 -86 2 -99 -2 -90 -25 6 -16 51 -27 109 -27 34 0 38 -2 29 -14 -9 -11 -9
-16 0 -21 7 -5 -7 -17 -37 -31 -59 -29 -74 -30 -74 -5 0 24 -23 33 -56 20 -26
-9 -26 -10 -8 -30 16 -18 16 -19 1 -13 -10 3 -17 1 -17 -5 0 -6 -15 -11 -32
-11 -23 0 -29 3 -19 9 21 13 -38 41 -87 41 -47 0 -73 -23 -45 -39 17 -10 17
-10 -3 -11 -28 0 -35 9 -24 30 12 22 5 28 -25 22 -18 -3 -25 -11 -25 -26 0
-26 -27 -31 -34 -7 -3 9 -10 44 -16 77 -11 67 -7 86 36 159 24 41 27 43 62 38
20 -3 39 -7 41 -9z m958 -10 c-3 -3 -12 -4 -19 -1 -8 3 -5 6 6 6 11 1 17 -2
13 -5z m-3487 -36 c0 -18 -2 -20 -9 -8 -6 8 -7 18 -5 22 9 14 14 9 14 -14z
m1077 -25 c-3 -10 -5 -4 -5 12 0 17 2 24 5 18 2 -7 2 -21 0 -30z m1997 -35 c9
-17 16 -37 16 -43 0 -7 6 -17 13 -23 19 -16 16 -106 -4 -110 -13 -2 -15 5 -12
38 2 23 0 40 -6 40 -12 0 -24 -39 -19 -59 2 -8 -3 -16 -9 -18 -7 -3 -13 2 -13
11 0 9 -7 16 -15 16 -9 0 -12 -6 -9 -15 5 -12 -1 -15 -27 -14 -19 1 -26 3 -16
6 23 6 22 29 -4 46 -14 11 -17 16 -7 19 19 7 -9 38 -34 38 -25 0 -15 15 24 34
17 9 32 16 33 16 1 0 0 -11 -3 -25 -6 -31 13 -55 44 -55 27 0 59 39 44 54 -6
6 -10 18 -10 28 0 24 -31 23 -37 -2 -3 -11 -9 -17 -14 -14 -10 6 27 64 41 64
5 0 16 -14 24 -32z m-3176 -46 c3 -73 -6 -125 -20 -116 -13 8 1 174 16 174 0
0 2 -26 4 -58z m1182 -17 c0 -16 -6 -25 -15 -25 -15 0 -21 31 -8 43 13 14 23
6 23 -18z m-1354 -60 c-12 -32 -41 -13 -44 30 l-3 40 27 -27 c17 -17 25 -32
20 -43z m1414 34 c0 -5 -4 -9 -10 -9 -5 0 -10 7 -10 16 0 8 5 12 10 9 6 -3 10
-10 10 -16z m-1160 -18 c0 -5 -7 -12 -16 -15 -14 -5 -15 -4 -4 9 14 17 20 19
20 6z m2957 -7 c-3 -3 -12 -4 -19 -1 -8 3 -5 6 6 6 11 1 17 -2 13 -5z m-457
-34 c0 -5 -4 -10 -10 -10 -5 0 -10 5 -10 10 0 6 5 10 10 10 6 0 10 -4 10 -10z
m-2523 -22 c-3 -8 -6 -5 -6 6 -1 11 2 17 5 13 3 -3 4 -12 1 -19z m383 18 c0
-2 -7 -6 -15 -10 -8 -3 -15 -1 -15 4 0 6 7 10 15 10 8 0 15 -2 15 -4z m863
-38 c-7 -51 -6 -50 -27 -42 -11 4 -16 18 -16 45 0 35 3 39 24 39 23 0 24 -3
19 -42z m117 32 c0 -5 -14 -10 -31 -10 -17 0 -28 4 -24 10 3 6 17 10 31 10 13
0 24 -4 24 -10z m-210 -41 c0 -17 -4 -28 -10 -24 -5 3 -10 17 -10 31 0 13 5
24 10 24 6 0 10 -14 10 -31z m527 25 c-3 -3 -12 -4 -19 -1 -8 3 -5 6 6 6 11 1
17 -2 13 -5z m-1559 -24 l33 0 -6 -62 c-9 -96 -14 -110 -33 -106 -11 2 -19 18
-24 46 -4 24 -16 58 -28 76 -27 44 -26 60 3 52 12 -3 37 -6 55 -6z m3505 -55
c6 -55 -6 -34 -17 30 -5 25 -4 36 2 30 5 -5 12 -32 15 -60z m-3660 25 c30 0
68 -64 77 -132 5 -35 10 -66 10 -70 0 -8 -77 -48 -92 -48 -15 0 -47 75 -79
190 -17 60 -18 59 11 74 21 11 28 10 41 -1 8 -7 23 -13 32 -13z m1117 12 c0
-2 -5 -12 -10 -23 -10 -18 -26 -19 -435 -19 -281 0 -426 4 -430 11 -4 5 -4 17
-1 25 5 13 62 14 441 12 239 -2 435 -4 435 -6z m728 -34 c3 -21 0 -23 -45 -20
-26 1 -142 3 -258 5 l-210 2 -3 24 -4 23 259 -6 258 -5 3 -23z m1350 3 l-3
-26 -255 0 c-140 0 -299 1 -352 4 -87 3 -98 5 -98 22 0 23 10 24 403 25 l308
2 -3 -27z m-2038 -21 c0 -5 -2 -10 -4 -10 -3 0 -8 5 -11 10 -3 6 -1 10 4 10 6
0 11 -4 11 -10z m105 -157 c3 -14 18 -26 40 -34 62 -23 31 -50 -35 -30 -36 11
-38 13 -44 65 -5 40 -3 64 11 97 l18 44 3 -60 c1 -33 4 -70 7 -82z m-86 91
c-5 -15 -6 -55 -3 -93 7 -61 6 -65 -9 -52 -12 9 -16 24 -12 50 2 20 7 57 10
84 4 26 10 45 15 42 5 -3 5 -16 -1 -31z m2017 12 c6 -3 15 -22 19 -43 4 -21
11 -43 17 -50 6 -8 5 -19 -2 -33 -8 -15 -10 -48 -6 -100 l7 -78 -78 -6 c-43
-4 -170 -16 -283 -28 -238 -24 -412 -38 -421 -32 -8 4 41 144 67 194 11 21 19
54 18 84 0 42 -5 52 -30 70 l-29 21 255 5 c253 5 445 3 466 -4z m-3004 -121
c-7 -36 -15 -35 -27 3 -6 20 -4 23 12 20 12 -2 17 -11 15 -23z m1995 -16 c21
-21 213 -31 248 -13 26 14 32 5 15 -24 -5 -9 -14 -30 -20 -45 -5 -16 -14 -26
-19 -23 -13 8 -23 -24 -12 -38 5 -6 5 -21 0 -33 -11 -31 -21 -29 -13 2 7 29
-10 34 -25 8 -10 -17 -10 -17 -11 0 0 21 -21 18 -28 -3 -3 -7 0 -10 7 -6 6 4
11 1 11 -8 0 -11 -9 -16 -30 -16 -22 0 -28 4 -24 15 9 22 -7 41 -18 21 -13
-23 -31 -20 -23 4 8 26 -6 26 -28 -1 -10 -11 -21 -18 -24 -15 -3 3 -11 36 -18
73 -7 37 -16 78 -20 91 -8 24 12 31 32 11z m-2057 -48 c0 -27 -5 -41 -16 -45
-13 -5 -14 -9 -4 -21 11 -13 33 -302 24 -313 -4 -5 -113 15 -169 31 -31 9 -44
17 -35 21 8 3 40 15 70 25 30 11 54 21 54 23 -1 2 -5 45 -9 96 -7 91 -7 94 16
110 l24 17 -45 5 c-67 7 -64 31 7 63 77 35 83 35 83 -12z m3240 -53 c25 -12
50 -20 57 -19 6 1 14 -3 18 -9 3 -5 18 -10 33 -11 15 0 21 -3 14 -6 -6 -2 -10
-9 -6 -14 8 -13 54 -11 54 3 0 8 3 9 11 1 7 -7 26 -7 57 -2 25 5 54 7 63 4 11
-4 26 2 38 14 l20 20 7 -34 c3 -19 4 -41 1 -49 -3 -8 3 -22 13 -31 15 -14 17
-22 9 -36 -5 -11 -17 -19 -26 -19 -9 0 -31 -11 -49 -25 -18 -14 -46 -27 -61
-29 -15 -2 -36 -7 -45 -11 -12 -5 -20 -2 -24 9 -3 9 -9 14 -14 11 -4 -2 -22 0
-41 5 -19 6 -47 13 -63 16 -39 7 -46 12 -46 34 0 60 -60 97 -76 48 -6 -18 -10
-9 -20 42 -7 36 -13 82 -13 104 -1 38 -1 38 22 22 12 -9 42 -26 67 -38z
m-3181 -25 c1 -55 5 -71 21 -85 11 -9 20 -20 20 -25 0 -12 -49 -35 -60 -28 -4
3 -8 30 -9 60 0 31 -3 59 -5 64 -7 11 13 81 23 81 5 0 9 -30 10 -67z m1734 28
c3 -14 1 -18 -9 -14 -15 6 -18 16 -7 26 9 10 10 9 16 -12z m-609 -148 c44 -52
87 -98 95 -101 22 -8 371 -357 371 -370 0 -7 -18 -13 -45 -14 -25 -1 -53 -2
-62 -2 -10 -1 -19 9 -23 25 -4 14 -66 86 -137 160 -189 194 -333 364 -333 391
0 4 12 8 28 7 22 0 42 -19 106 -96z m-43 -95 c19 -24 25 -38 17 -38 -20 0
-150 148 -142 161 7 11 47 -29 125 -123z m1969 109 c0 -12 7 -33 16 -45 9 -13
14 -26 11 -29 -3 -3 -74 -14 -157 -24 -83 -10 -159 -20 -168 -23 -9 -3 -46 -8
-82 -11 -36 -3 -157 -14 -270 -25 -113 -11 -212 -20 -221 -20 -25 0 -12 49 15
55 40 8 521 57 656 66 144 10 180 19 180 45 0 13 -9 14 -52 10 -183 -20 -340
-36 -453 -46 -71 -6 -170 -15 -218 -21 -59 -7 -92 -8 -99 -1 -17 17 9 24 130
33 64 5 126 11 137 14 21 4 62 8 330 30 244 19 245 19 245 -8z m-971 -79 c12
-54 9 -68 -16 -68 -11 0 -14 7 -11 25 3 13 2 22 -2 20 -8 -5 -30 62 -30 89 0
15 2 15 24 1 17 -11 28 -32 35 -67z m-287 -31 c0 -40 5 -65 11 -64 6 1 14 -14
18 -33 4 -19 12 -53 18 -75 5 -22 15 -67 21 -100 7 -33 19 -80 27 -105 28 -86
41 -154 30 -167 -6 -9 -6 -13 1 -13 5 0 15 -24 22 -52 6 -29 14 -61 17 -72 3
-12 1 -16 -6 -12 -6 4 -11 17 -11 29 0 27 -66 122 -75 107 -3 -5 -1 -10 5 -10
7 0 10 -6 7 -14 -3 -8 3 -33 14 -55 17 -35 24 -61 17 -61 -2 0 -26 6 -55 14
-38 10 -53 11 -56 2 -3 -6 -14 0 -28 15 -19 21 -29 25 -45 19 -39 -15 -40 -32
-1 -29 65 6 49 -8 -18 -16 -36 -3 -78 -13 -94 -21 -15 -8 -51 -16 -79 -18 -29
-3 -56 -7 -61 -10 -5 -4 -51 0 -103 8 -51 8 -109 13 -128 11 -45 -5 -111 5
-105 15 3 5 20 12 38 15 17 4 37 11 42 15 6 4 30 10 55 13 25 4 60 9 78 13 26
5 32 3 32 -10 0 -9 4 -16 9 -16 5 0 8 8 7 17 -1 13 12 21 46 29 44 11 109 48
116 66 8 17 101 78 120 78 12 0 24 5 27 10 4 6 10 8 14 6 4 -3 7 9 7 27 0 28
7 78 30 207 8 40 21 52 48 44 15 -5 18 -3 13 11 -4 9 -7 23 -7 31 0 11 -6 13
-20 9 -14 -4 -20 -2 -20 9 0 8 5 18 10 21 6 4 7 11 4 17 -12 19 -15 183 -4
172 6 -6 11 -40 12 -77z m351 61 c-4 -13 -12 -32 -20 -43 -12 -18 -13 -17 -13
16 0 38 6 49 26 49 8 0 10 -8 7 -22z m-423 -67 c0 -14 -10 -20 -37 -25 -69
-11 -140 -7 -153 9 -10 12 -10 16 1 19 19 7 73 12 137 14 45 2 52 -1 52 -17z
m377 -78 c-14 -47 -15 -48 -22 -19 -5 18 -4 35 4 45 6 9 15 25 18 36 15 42 14
-13 0 -62z m1227 37 c13 -10 129 -5 149 7 7 4 6 -1 -2 -10 -10 -13 -10 -17 -1
-17 8 0 11 -10 8 -30 -3 -16 -2 -30 2 -30 7 0 26 -103 40 -215 6 -44 14 -91
18 -105 9 -33 54 -100 67 -100 6 0 19 -15 31 -33 14 -21 48 -46 97 -71 89 -45
97 -53 137 -131 48 -93 52 -90 -118 -90 -146 0 -148 1 -219 34 -84 39 -91 46
-133 126 -41 78 -57 95 -91 95 -37 0 -42 19 -31 117 13 111 -6 274 -42 378 -8
22 -17 53 -21 69 l-6 29 52 -6 c28 -4 57 -11 63 -17z m-2094 -113 c0 -21 -39
-2 -67 33 -50 59 -39 72 17 20 28 -25 50 -49 50 -53z m290 39 c0 -5 -7 -1 -15
10 -8 10 -14 24 -14 29 0 6 6 1 14 -9 8 -11 15 -24 15 -30z m190 16 c0 -28 -2
-29 -54 -31 -46 -2 -55 1 -69 22 -9 14 -13 27 -10 31 4 3 35 6 70 6 63 0 63 0
63 -28z m-610 -8 c22 -19 28 -30 21 -37 -6 -6 -11 -19 -11 -29 0 -29 -28 -21
-32 10 l-3 27 -75 -3 c-41 -1 -86 -3 -99 -2 -13 0 -29 -4 -35 -8 -14 -11 -96
-3 -96 9 0 21 150 56 247 58 42 1 57 -4 83 -25z m-413 -6 c19 -15 24 -57 11
-86 -17 -34 -76 -49 -117 -28 -21 11 -28 23 -29 46 -1 47 14 78 40 83 29 6 79
-2 95 -15z m348 -68 c3 -5 1 -10 -4 -10 -6 0 -11 5 -11 10 0 6 2 10 4 10 3 0
8 -4 11 -10z m671 -17 c-3 -16 -11 -64 -17 -108 -16 -114 -18 -125 -29 -125
-6 0 -10 15 -10 33 0 26 -15 48 -88 126 -86 94 -86 94 -52 88 19 -3 58 -2 85
3 28 4 65 8 84 9 31 1 33 -1 27 -26z m-359 -72 c50 -53 75 -88 80 -111 6 -33
3 -30 -80 54 -61 61 -87 95 -87 112 0 13 3 23 8 23 4 -1 40 -36 79 -78z"/>
<path d="M3724 5661 c7 -11 -18 -21 -55 -21 -22 0 -29 -5 -29 -20 0 -23 10
-24 63 -9 30 8 37 15 37 34 0 14 -5 25 -11 25 -5 0 -8 -4 -5 -9z"/>
<path d="M3510 3330 c0 -5 5 -10 10 -10 6 0 10 5 10 10 0 6 -4 10 -10 10 -5 0
-10 -4 -10 -10z"/>
<path d="M624 2958 l-19 -23 23 19 c21 18 27 26 19 26 -2 0 -12 -10 -23 -22z"/>
<path d="M729 2943 c-13 -16 -12 -17 4 -4 9 7 17 15 17 17 0 8 -8 3 -21 -13z"/>
<path d="M547 2865 c-10 -14 -14 -25 -9 -25 6 0 17 11 26 25 21 32 7 32 -17 0z"/>
<path d="M1400 2528 c0 -9 -9 -18 -22 -20 -30 -4 -34 -26 -6 -32 34 -8 93 7
93 24 0 8 -11 17 -25 19 -14 1 -28 8 -32 15 -5 7 -8 5 -8 -6z"/>
<path d="M1556 2534 c7 -3 10 -13 7 -24 -4 -15 2 -20 34 -26 63 -12 95 -9 110
12 8 10 16 18 18 17 3 -2 4 0 3 5 -2 4 -23 5 -47 4 -26 -3 -41 0 -37 6 3 5
-16 10 -47 10 -28 0 -47 -2 -41 -4z"/>
<path d="M1488 2523 c7 -3 16 -2 19 1 4 3 -2 6 -13 5 -11 0 -14 -3 -6 -6z"/>
<path d="M1803 2522 c-23 -15 3 -29 64 -35 62 -5 76 1 66 31 -5 13 -110 17
-130 4z"/>
<path d="M1685 2460 c-4 -6 -13 -9 -20 -6 -13 5 -25 -14 -25 -39 0 -19 66 -30
96 -16 13 6 24 19 24 30 0 11 6 22 13 25 6 3 -6 3 -27 0 -25 -3 -42 -1 -46 6
-6 9 -9 9 -15 0z"/>
<path d="M1790 2450 c0 -5 7 -10 15 -10 8 0 15 5 15 10 0 6 -7 10 -15 10 -8 0
-15 -4 -15 -10z"/>
<path d="M1462 2429 c-19 -30 -2 -44 54 -40 25 1 52 -3 60 -10 12 -10 13 -9 8
5 -3 9 -1 16 5 16 6 0 11 11 11 25 0 24 -2 25 -63 25 -53 0 -64 -3 -75 -21z"/>
<path d="M1695 2370 c-3 -5 -1 -10 4 -10 6 0 11 5 11 10 0 6 -2 10 -4 10 -3 0
-8 -4 -11 -10z"/>
<path d="M1747 2365 c-4 -8 -2 -17 3 -20 6 -4 10 3 10 14 0 25 -6 27 -13 6z"/>
<path d="M1525 2353 c-55 -13 -37 -49 23 -45 36 3 67 27 56 43 -5 9 -45 10
-79 2z"/>
<path d="M1623 2324 c-6 -17 12 -34 39 -34 29 0 48 12 48 31 0 16 -7 19 -40
19 -28 0 -43 -5 -47 -16z"/>
<path d="M1224 2235 c-4 -10 -1 -21 7 -26 22 -14 59 -10 66 6 7 20 3 23 -35
31 -25 5 -33 3 -38 -11z"/>
<path d="M1417 2233 c-15 -14 -6 -33 16 -33 29 0 51 15 43 29 -8 12 -49 15
-59 4z"/>
<path d="M1570 2206 c0 -20 23 -26 107 -26 66 0 74 2 71 18 -3 14 -17 17 -91
20 -70 2 -87 0 -87 -12z"/>
<path d="M1320 2151 c-11 -8 -12 -13 -4 -21 16 -16 69 -8 69 10 0 18 -43 25
-65 11z"/>
<path d="M1182 2127 c-10 -11 -9 -17 2 -26 19 -16 81 0 81 20 0 20 -68 25 -83
6z"/>
<path d="M1471 2131 c-26 -17 1 -31 60 -31 43 0 59 4 59 14 0 20 -92 34 -119
17z"/>
<path d="M1672 2100 c-39 -16 -20 -35 34 -35 42 0 49 3 49 20 0 15 -7 21 -30
22 -16 1 -41 -2 -53 -7z"/>
<path d="M1260 2069 c0 -5 5 -7 10 -4 6 3 10 8 10 11 0 2 -4 4 -10 4 -5 0 -10
-5 -10 -11z"/>
<path d="M1190 2030 c0 -25 35 -34 95 -26 39 6 65 21 54 30 -2 2 -37 6 -76 10
-68 6 -73 5 -73 -14z"/>
<path d="M1425 2009 c-4 -6 -5 -13 -2 -16 7 -7 237 -6 244 1 3 2 2 9 -2 15 -8
15 -232 15 -240 0z"/>
<path d="M1345 1957 c-22 -17 -12 -37 19 -37 32 0 56 28 35 41 -20 12 -32 11
-54 -4z"/>
<path d="M1184 1948 c-4 -6 2 -19 14 -28 12 -10 18 -20 15 -24 -4 -3 0 -6 9
-6 19 0 48 32 48 53 0 13 -9 17 -39 17 -22 0 -43 -5 -47 -12z"/>
<path d="M1524 1948 c-14 -23 29 -40 93 -36 71 4 85 12 57 33 -23 18 -139 20
-150 3z"/>
<path d="M1300 1862 c0 -24 18 -32 70 -32 24 0 40 5 43 15 8 19 2 21 -60 30
-49 6 -53 5 -53 -13z"/>
<path d="M1520 1841 c0 -13 10 -21 34 -25 39 -7 66 1 66 19 0 16 -23 25 -66
25 -27 0 -34 -4 -34 -19z"/>
<path d="M1144 1835 c-9 -24 10 -39 41 -31 18 5 25 12 23 24 -4 23 -56 29 -64
7z"/>
<path d="M1281 1771 c-12 -8 -12 -12 -2 -25 15 -18 48 -20 86 -6 23 9 25 13
15 25 -14 17 -77 20 -99 6z"/>
<path d="M1040 1725 c-17 -21 -4 -35 34 -35 39 0 62 20 44 38 -17 17 -63 15
-78 -3z"/>
<path d="M1257 1683 c-4 -3 -7 -15 -7 -25 0 -15 8 -18 43 -18 50 0 72 12 64
34 -5 11 -19 16 -50 16 -24 0 -47 -3 -50 -7z"/>
<path d="M1560 1675 c-21 -25 0 -35 69 -36 69 -1 80 4 65 29 -15 24 -116 29
-134 7z"/>
<path d="M1378 1633 c7 -3 16 -2 19 1 4 3 -2 6 -13 5 -11 0 -14 -3 -6 -6z"/>
<path d="M2220 2135 c-19 -22 0 -37 41 -33 26 2 34 8 34 23 0 26 -55 34 -75
10z"/>
<path d="M2286 2077 c-15 -11 -15 -15 -4 -24 7 -6 22 -13 34 -17 24 -7 64 18
49 32 -18 17 -61 22 -79 9z"/>
<path d="M2390 2066 c0 -14 5 -26 10 -26 6 0 10 9 10 19 0 11 -4 23 -10 26 -6
4 -10 -5 -10 -19z"/>
<path d="M2303 2012 c-14 -2 -23 -10 -23 -22 0 -15 9 -19 51 -22 54 -3 84 6
73 24 -4 6 -1 14 5 18 12 7 -61 8 -106 2z"/>
<path d="M2232 1912 c-13 -9 -6 -42 8 -42 5 0 17 -3 27 -7 10 -3 15 -3 11 2
-4 4 0 13 9 20 32 24 -19 49 -55 27z"/>
<path d="M2263 1792 c-17 -11 -3 -29 28 -37 28 -7 65 18 54 36 -7 11 -65 12
-82 1z"/>
<path d="M2378 1783 c7 -3 16 -2 19 1 4 3 -2 6 -13 5 -11 0 -14 -3 -6 -6z"/>
<path d="M2305 1710 c-11 -18 10 -32 41 -28 40 4 38 32 -3 36 -17 2 -34 -2
-38 -8z"/>
<path d="M907 2088 c-21 -22 -18 -32 7 -22 9 3 16 15 16 25 0 23 0 23 -23 -3z"/>
<path d="M906 2041 c-17 -19 -17 -19 3 -14 12 3 21 12 21 19 0 18 -4 18 -24
-5z"/>
<path d="M3360 1866 c0 -24 23 -56 40 -56 13 0 24 -10 30 -26 9 -22 15 -25 47
-22 47 4 58 33 19 48 -14 5 -26 14 -26 20 0 5 -18 13 -40 16 -22 4 -40 10 -40
15 0 5 -7 9 -15 9 -8 0 -15 -2 -15 -4z"/>
<path d="M3192 1786 c1 -10 8 -17 13 -17 15 1 12 24 -3 29 -9 3 -13 -2 -10
-12z"/>
<path d="M3297 1793 c-19 -19 -5 -33 33 -33 28 0 40 4 40 14 0 21 -56 36 -73
19z"/>
<path d="M3245 1749 c-9 -13 13 -30 35 -26 8 1 15 9 15 17 0 18 -40 26 -50 9z"/>
<path d="M3444 1719 c-8 -14 14 -29 43 -29 27 0 40 19 22 31 -20 12 -57 11
-65 -2z"/>
<path d="M3238 1702 c-23 -5 -23 -28 -1 -36 23 -9 49 17 31 31 -7 5 -21 8 -30
5z"/>
<path d="M3107 1263 c-4 -3 -7 -11 -7 -17 0 -6 5 -5 12 2 6 6 9 14 7 17 -3 3
-9 2 -12 -2z"/>
<path d="M3015 1230 c-3 -5 -2 -10 4 -10 5 0 13 5 16 10 3 6 2 10 -4 10 -5 0
-13 -4 -16 -10z"/>
<path d="M2900 1210 c0 -5 5 -10 11 -10 5 0 7 5 4 10 -3 6 -8 10 -11 10 -2 0
-4 -4 -4 -10z"/>
<path d="M4106 1075 c4 -8 8 -15 10 -15 2 0 4 7 4 15 0 8 -4 15 -10 15 -5 0
-7 -7 -4 -15z"/>
<path d="M4322 1078 c5 -15 28 -18 29 -3 0 6 -7 12 -17 13 -10 3 -15 -1 -12
-10z"/>
<path d="M2710 751 c0 -5 5 -13 10 -16 6 -3 10 -2 10 4 0 5 -4 13 -10 16 -5 3
-10 2 -10 -4z"/>
<path d="M2755 590 c3 -5 11 -10 16 -10 6 0 7 5 4 10 -3 6 -11 10 -16 10 -6 0
-7 -4 -4 -10z"/>
<path d="M2776 532 c-3 -6 -1 -14 5 -17 14 -9 20 -2 10 14 -6 8 -11 9 -15 3z"/>
<path d="M2595 480 c-3 -5 1 -10 10 -10 9 0 13 5 10 10 -3 6 -8 10 -10 10 -2
0 -7 -4 -10 -10z"/>
<path d="M2628 405 c3 -17 -1 -27 -12 -31 -24 -9 -19 -24 9 -24 20 0 25 5 25
24 0 29 -9 56 -20 56 -4 0 -5 -11 -2 -25z"/>
<path d="M2726 407 c3 -10 9 -15 12 -12 3 3 0 11 -7 18 -10 9 -11 8 -5 -6z"/>
<path d="M2385 320 c3 -5 10 -10 16 -10 5 0 9 5 9 10 0 6 -7 10 -16 10 -8 0
-12 -4 -9 -10z"/>
<path d="M2485 301 c-3 -5 -1 -12 5 -16 5 -3 10 1 10 9 0 18 -6 21 -15 7z"/>
<path d="M2430 270 c-13 -8 -13 -10 2 -10 9 0 20 5 23 10 8 13 -5 13 -25 0z"/>
<path d="M2983 6184 c-42 -32 -45 -64 -6 -60 18 2 34 13 45 32 34 58 15 71
-39 28z"/>
<path d="M3754 5976 c-43 -11 -59 -29 -31 -34 19 -4 94 33 81 40 -5 2 -28 -1
-50 -6z"/>
<path d="M4965 5967 c-8 -13 -41 -37 -73 -52 -97 -49 -132 -74 -132 -95 0 -12
-12 -25 -32 -35 -41 -19 -133 -76 -150 -92 -9 -10 -8 -16 8 -27 18 -14 18 -15
2 -21 -24 -10 -23 -25 2 -25 50 0 5 -40 -174 -155 -98 -62 -125 -84 -123 -100
3 -28 31 -23 133 26 56 26 90 37 96 31 14 -14 78 5 108 33 14 12 35 26 48 30
18 5 22 2 22 -14 0 -25 9 -26 57 -6 55 23 68 20 44 -11 -29 -37 -26 -46 14
-38 19 3 35 2 35 -2 0 -5 -26 -34 -57 -65 -32 -31 -70 -72 -85 -92 -28 -35
-37 -67 -18 -67 11 0 91 35 140 62 69 38 102 50 112 40 6 -6 6 -12 -2 -17 -7
-4 -2 -15 15 -31 35 -33 45 -30 45 11 0 25 -4 35 -16 35 -9 0 -24 10 -34 22
l-17 22 -75 -37 c-41 -20 -78 -37 -81 -37 -19 0 0 28 58 85 36 35 65 70 65 78
0 9 -10 23 -22 31 -17 12 -19 18 -9 30 23 28 2 39 -60 32 -32 -3 -61 -2 -63 3
-9 13 -87 -7 -119 -30 -22 -16 -31 -18 -42 -9 -11 9 -33 2 -102 -30 -87 -41
-88 -41 -53 -10 19 16 64 48 100 70 69 41 137 114 132 140 -2 8 -11 22 -19 32
-13 15 -7 21 69 65 57 34 84 56 86 71 2 15 28 34 90 68 86 46 111 67 112 92 0
20 -18 14 -35 -11z"/>
<path d="M3235 5915 c-37 -16 -70 -51 -56 -59 5 -4 26 5 47 19 29 20 40 23 51
13 11 -9 16 -9 24 3 21 34 -15 47 -66 24z"/>
<path d="M3304 5547 c-10 -27 0 -62 19 -65 16 -3 18 2 15 34 -3 39 -24 57 -34
31z"/>
<path d="M2504 5281 c-28 -14 -82 -51 -120 -81 -118 -94 -202 -150 -225 -150
-6 0 -3 10 5 22 9 12 16 30 16 38 0 9 16 31 35 50 40 38 44 64 15 80 -11 6
-20 17 -20 25 0 41 -124 -3 -230 -80 -41 -31 -105 -76 -141 -100 -37 -24 -86
-67 -109 -95 -23 -27 -45 -48 -49 -45 -15 9 2 70 24 87 13 10 30 35 38 57 9
22 21 42 27 46 20 12 -10 35 -46 35 -19 0 -34 5 -34 10 0 15 -35 12 -75 -7
-29 -14 -41 -15 -66 -6 -27 10 -38 9 -78 -10 -25 -12 -66 -35 -91 -51 -56 -38
-196 -178 -276 -277 -65 -80 -114 -119 -150 -119 -37 0 -38 20 -3 56 23 24 30
37 22 45 -17 17 -82 -1 -119 -33 -24 -22 -39 -28 -55 -23 -17 6 -31 -3 -68
-38 -25 -24 -77 -68 -115 -97 -65 -48 -72 -51 -112 -45 -42 6 -92 -11 -162
-56 -18 -11 -26 -11 -42 -1 -11 6 -25 12 -31 12 -6 0 -44 -33 -85 -72 -88 -86
-105 -95 -70 -39 32 51 33 65 3 57 -42 -10 -117 -57 -117 -73 0 -14 3 -13 20
2 15 14 23 16 32 7 8 -8 5 -18 -11 -38 -24 -31 -26 -47 -8 -63 18 -14 90 31
171 109 48 45 65 56 81 50 25 -9 63 4 95 35 33 30 70 42 70 22 0 -21 23 -27
47 -14 11 7 42 24 70 39 27 14 86 56 132 93 46 36 89 64 97 61 7 -3 27 6 43
19 16 14 31 25 34 25 3 0 7 -14 9 -31 5 -48 26 -56 93 -35 62 19 113 59 146
114 32 53 173 195 254 256 94 70 90 68 149 71 29 2 72 11 95 21 41 16 45 16
56 1 7 -10 20 -17 29 -17 25 0 10 -47 -29 -91 -28 -32 -33 -44 -31 -85 1 -36
5 -50 17 -52 9 -1 53 28 99 65 45 37 97 79 116 93 18 14 43 37 54 53 28 35
118 96 193 131 69 31 71 31 64 6 -3 -13 2 -25 16 -35 21 -15 21 -15 -17 -54
-25 -25 -37 -45 -33 -55 4 -10 -3 -22 -18 -32 -29 -19 -33 -52 -8 -61 24 -9
178 85 298 182 88 72 163 101 102 39 -34 -33 -34 -42 -1 -54 23 -9 24 -13 13
-26 -7 -9 -39 -34 -71 -55 -35 -24 -58 -47 -58 -58 0 -10 -7 -24 -15 -31 -22
-18 -18 -39 7 -49 20 -7 15 -13 -51 -56 -40 -27 -105 -75 -145 -107 -39 -32
-91 -67 -116 -79 -25 -12 -74 -40 -110 -64 -36 -23 -105 -61 -155 -85 -49 -24
-106 -55 -125 -69 -19 -14 -42 -30 -52 -36 -56 -33 -160 -109 -204 -148 -60
-54 -83 -99 -64 -122 16 -20 -10 -50 -95 -109 -115 -79 -143 -92 -167 -77 -10
6 -32 11 -49 11 -30 0 -31 1 -26 34 13 79 -60 73 -190 -15 -23 -16 -48 -29
-57 -29 -28 0 -26 18 4 40 20 14 30 30 30 47 0 15 16 43 40 70 45 51 49 72 20
98 -26 24 -88 14 -159 -27 -45 -25 -58 -28 -73 -19 -15 9 -27 6 -66 -15 -26
-15 -65 -42 -87 -59 -22 -18 -65 -44 -95 -58 -31 -15 -79 -50 -110 -83 -30
-31 -106 -90 -168 -132 -107 -71 -140 -98 -131 -106 9 -8 277 179 331 230 31
30 78 63 105 75 26 11 65 35 88 53 22 18 53 40 70 48 27 14 30 14 41 0 10 -14
17 -12 63 16 28 18 57 32 64 32 7 0 18 5 24 11 13 13 65 8 70 -7 2 -7 -14 -33
-37 -58 -22 -26 -40 -58 -40 -70 0 -17 -9 -27 -30 -36 -26 -11 -30 -18 -30
-51 0 -21 5 -41 10 -44 17 -11 121 26 175 62 59 39 69 41 62 11 -8 -28 27 -68
60 -68 13 0 22 -5 21 -12 -5 -23 68 -10 132 22 81 41 188 110 256 165 30 25
59 45 64 45 6 0 10 6 10 13 0 6 20 25 45 40 50 32 59 42 50 57 -4 7 -27 -1
-59 -20 -97 -55 -133 -28 -48 36 98 74 300 199 375 232 43 18 104 50 135 71
32 21 78 51 104 67 65 41 309 226 333 253 19 23 19 23 -3 40 l-23 17 30 41
c17 23 40 47 52 54 33 17 89 76 89 94 0 8 -6 15 -14 15 -27 0 -27 20 -2 53 15
19 26 39 26 45 0 19 -41 11 -96 -17z"/>
<path d="M3057 5103 c-27 -7 -17 -38 13 -38 18 0 25 5 25 19 0 21 -10 26 -38
19z"/>
<path d="M3060 5036 c-10 -13 -9 -17 3 -22 24 -9 52 0 52 16 0 21 -39 24 -55
6z"/>
<path d="M3102 4988 c-19 -19 -14 -28 14 -28 18 0 25 5 22 17 -4 21 -21 26
-36 11z"/>
<path d="M3253 3174 c-10 -27 29 -109 55 -112 18 -3 22 1 22 22 0 44 -30 106
-51 106 -11 0 -22 -7 -26 -16z"/>
<path d="M3911 2971 c-9 -6 -12 -18 -7 -37 17 -65 17 -103 2 -154 -20 -67 -20
-85 0 -105 24 -23 38 -14 46 31 31 185 31 204 2 252 -16 24 -22 26 -43 13z"/>
<path d="M3651 2612 c-1 -13 3 -20 9 -17 6 4 10 -10 10 -34 0 -43 14 -55 25
-21 10 31 -4 82 -20 76 -8 -3 -16 0 -19 7 -2 7 -5 2 -5 -11z"/>
<path d="M4026 2611 c-4 -7 -5 -15 -2 -18 9 -9 19 4 14 18 -4 11 -6 11 -12 0z"/>
<path d="M4992 2585 c0 -16 2 -22 5 -12 2 9 2 23 0 30 -3 6 -5 -1 -5 -18z"/>
<path d="M3870 2551 c0 -5 5 -13 10 -16 6 -3 10 -2 10 4 0 5 -4 13 -10 16 -5
3 -10 2 -10 -4z"/>
<path d="M3690 2470 c0 -5 5 -10 10 -10 6 0 10 5 10 10 0 6 -4 10 -10 10 -5 0
-10 -4 -10 -10z"/>
<path d="M4112 2425 c0 -16 2 -22 5 -12 2 9 2 23 0 30 -3 6 -5 -1 -5 -18z"/>
<path d="M11 2430 c-1 -3 -4 -21 -7 -40 -3 -25 -1 -31 7 -23 6 6 9 23 6 39 -2
16 -5 27 -6 24z"/>
<path d="M60 2420 c0 -5 7 -10 15 -10 8 0 15 5 15 10 0 6 -7 10 -15 10 -8 0
-15 -4 -15 -10z"/>
<path d="M0 2269 c0 -5 5 -7 10 -4 5 3 10 8 10 11 0 2 -4 4 -10 4 -5 0 -10 -5
-10 -11z"/>
<path d="M0 2210 c0 -16 5 -21 23 -18 12 2 22 10 22 18 0 8 -10 16 -22 18 -18
3 -23 -2 -23 -18z"/>
<path d="M4960 2200 c-5 -10 -10 -26 -10 -34 0 -12 -10 -16 -39 -16 -31 0 -41
-4 -46 -20 -8 -26 1 -40 26 -40 10 0 28 -5 38 -11 10 -7 30 -9 44 -5 26 6 27
10 27 70 0 47 -4 65 -15 70 -8 3 -19 -3 -25 -14z m30 -60 c0 -22 -5 -30 -18
-30 -19 0 -23 24 -8 48 13 21 26 13 26 -18z"/>
<path d="M0 2116 c0 -17 5 -22 23 -21 12 1 22 8 22 15 0 7 -10 16 -22 21 -20
7 -23 5 -23 -15z"/>
<path d="M164 2119 c-3 -6 -2 -15 4 -21 15 -15 56 -5 60 15 3 13 -3 17 -27 17
-16 0 -33 -5 -37 -11z"/>
<path d="M270 2106 c-17 -22 2 -28 71 -24 40 2 54 7 54 18 0 22 -107 27 -125
6z"/>
<path d="M154 2039 c-10 -18 11 -31 40 -23 36 9 34 34 -3 34 -17 0 -33 -5 -37
-11z"/>
<path d="M358 2043 c7 -3 16 -2 19 1 4 3 -2 6 -13 5 -11 0 -14 -3 -6 -6z"/>
<path d="M4956 2033 c-4 -4 -73 -8 -153 -8 -146 0 -163 -4 -143 -35 7 -12 29
-14 111 -12 64 1 105 -2 109 -8 5 -8 16 -7 36 1 16 7 41 12 57 12 23 0 27 4
27 28 0 21 -5 29 -18 29 -10 0 -22 -3 -26 -7z"/>
<path d="M266 2012 c-10 -16 21 -34 51 -30 43 5 36 32 -9 36 -20 2 -39 -1 -42
-6z"/>
<path d="M4818 1952 c-51 -14 -64 -38 -25 -46 62 -13 117 -13 128 0 14 17 -5
44 -31 44 -10 0 -20 4 -22 8 -1 4 -24 2 -50 -6z"/>
<path d="M4958 1953 c-11 -3 -18 -14 -18 -29 0 -20 5 -24 30 -24 27 0 30 3 30
30 0 30 -6 33 -42 23z"/>
<path d="M18 1933 c-11 -3 -18 -14 -18 -28 0 -23 1 -23 30 -8 25 12 29 18 19
29 -6 8 -12 13 -13 13 0 -1 -9 -3 -18 -6z"/>
<path d="M140 1917 c0 -22 25 -28 86 -21 76 9 64 28 -19 32 -53 2 -67 0 -67
-11z"/>
<path d="M302 1921 c-12 -7 -12 -13 0 -35 l14 -27 23 25 c13 13 20 29 16 35
-7 13 -35 14 -53 2z"/>
<path d="M4705 1920 c3 -5 10 -10 16 -10 5 0 9 5 9 10 0 6 -7 10 -16 10 -8 0
-12 -4 -9 -10z"/>
<path d="M4665 1870 c-11 -18 10 -32 41 -28 40 4 38 32 -3 36 -17 2 -34 -2
-38 -8z"/>
<path d="M208 1863 c7 -3 16 -2 19 1 4 3 -2 6 -13 5 -11 0 -14 -3 -6 -6z"/>
<path d="M240 1860 c0 -5 5 -10 10 -10 6 0 10 5 10 10 0 6 -4 10 -10 10 -5 0
-10 -4 -10 -10z"/>
<path d="M4530 1850 c-13 -8 -13 -11 2 -26 20 -20 73 -23 91 -5 27 27 -56 55
-93 31z"/>
<path d="M152 1837 c-34 -11 -38 -32 -6 -33 10 0 32 -4 47 -8 21 -6 33 -4 44
6 13 13 13 17 -2 32 -18 18 -35 19 -83 3z"/>
<path d="M287 1823 c-14 -13 -6 -24 15 -21 27 4 36 28 11 28 -11 0 -23 -3 -26
-7z"/>
<path d="M4760 1812 c-47 -6 -52 -10 -40 -32 8 -15 18 -19 43 -16 18 3 35 5
40 5 12 1 8 39 -5 43 -7 2 -24 2 -38 0z"/>
<path d="M4870 1806 c0 -18 6 -22 48 -31 25 -5 33 -3 38 10 9 22 -12 35 -53
35 -22 0 -33 -5 -33 -14z"/>
<path d="M0 1786 c0 -9 5 -16 10 -16 6 0 10 4 10 9 0 6 -4 13 -10 16 -5 3 -10
-1 -10 -9z"/>
<path d="M4484 1779 c-4 -7 0 -17 10 -25 21 -15 71 -4 71 17 0 18 -70 25 -81
8z"/>
<path d="M55 1770 c-3 -5 -1 -10 4 -10 6 0 11 5 11 10 0 6 -2 10 -4 10 -3 0
-8 -4 -11 -10z"/>
<path d="M0 1715 c0 -30 25 -34 39 -6 8 15 7 20 -5 25 -27 10 -34 7 -34 -19z"/>
<path d="M4393 1724 c-14 -36 71 -61 97 -29 22 27 4 45 -45 45 -33 0 -47 -5
-52 -16z"/>
<path d="M4810 1710 c0 -26 38 -35 93 -22 23 6 54 8 70 5 23 -4 27 -2 27 16 0
15 -6 21 -23 21 -13 0 -28 -5 -34 -11 -8 -8 -13 -8 -17 0 -4 6 -32 11 -62 11
-47 0 -54 -2 -54 -20z"/>
<path d="M155 1700 c-14 -16 -21 -17 -32 -8 -9 7 -17 8 -24 1 -11 -11 -13 -11
96 -21 92 -9 135 -5 135 12 0 26 -26 36 -90 36 -54 0 -70 -4 -85 -20z"/>
<path d="M4604 1705 c-9 -23 5 -35 40 -35 35 0 62 21 51 40 -10 16 -85 12 -91
-5z"/>
<path d="M4958 1663 c7 -3 16 -2 19 1 4 3 -2 6 -13 5 -11 0 -14 -3 -6 -6z"/>
<path d="M4939 1186 c-4 -4 -222 -23 -343 -31 -76 -4 -81 -7 -72 -31 5 -14 17
-15 79 -10 132 12 352 36 375 41 33 8 28 35 -6 35 -16 0 -31 -2 -33 -4z"/>
<path d="M4680 1030 c-19 -12 -13 -16 45 -28 l50 -10 -54 -1 c-41 -1 -57 3
-67 17 -20 27 -48 4 -52 -45 -3 -39 -4 -39 -60 -54 -36 -9 -58 -20 -60 -30 -3
-19 37 -39 79 -39 18 0 32 -6 36 -16 7 -20 -13 -34 -50 -34 -35 0 -67 -16 -67
-34 0 -14 32 -30 83 -42 35 -8 35 -22 0 -35 -32 -12 -43 -26 -43 -55 0 -22 24
-39 41 -28 5 3 9 18 9 35 0 19 5 29 15 29 15 0 16 -3 19 -144 1 -44 5 -62 18
-70 9 -5 19 -8 21 -6 3 3 7 52 11 110 3 58 5 105 6 106 0 0 53 -2 118 -4 136
-4 195 9 200 45 5 33 -58 46 -203 42 -110 -4 -120 -3 -123 14 -4 18 3 19 84
15 60 -2 88 1 91 9 3 7 -24 13 -81 18 -59 5 -86 11 -86 20 0 13 36 20 175 31
44 4 87 10 95 15 31 16 -19 20 -137 11 -65 -6 -120 -9 -122 -7 -2 2 -1 11 3
20 4 12 14 14 45 9 22 -4 52 -4 66 0 48 12 24 25 -52 28 -71 3 -78 5 -81 24
-3 21 0 22 60 17 53 -5 67 -2 88 15 22 18 23 22 10 35 -18 17 -110 29 -130 17z
m-90 -150 c0 -5 -9 -10 -20 -10 -11 0 -20 5 -20 10 0 6 9 10 20 10 11 0 20 -4
20 -10z m5 -121 c4 -6 5 -13 1 -16 -8 -8 -56 6 -56 17 0 13 47 13 55 -1z m343
-61 c-7 -19 -92 -30 -187 -23 -164 11 -124 33 62 34 99 1 128 -2 125 -11z"/>
<path d="M280 1010 c-80 -25 -117 -49 -134 -85 -24 -49 -15 -93 27 -132 40
-39 68 -53 102 -53 20 0 44 -17 90 -65 66 -68 99 -81 126 -49 13 15 193 106
235 118 12 4 60 29 105 57 105 63 174 99 192 99 8 0 20 -7 27 -15 10 -12 -13
-26 -147 -91 -87 -42 -169 -83 -183 -90 -44 -24 -283 -138 -355 -169 -64 -27
-110 -54 -147 -84 -28 -23 -30 -23 -48 -6 -15 14 -17 21 -9 32 17 20 -5 16
-24 -5 -29 -31 -21 -74 16 -99 18 -13 38 -23 43 -23 6 0 64 26 130 58 205 101
186 94 225 78 19 -7 54 -17 77 -21 37 -6 334 -147 367 -175 5 -4 109 -59 230
-120 121 -62 237 -124 258 -138 24 -16 56 -26 90 -29 l52 -5 -30 19 c-16 11
-84 46 -150 79 -66 33 -167 85 -225 116 -58 30 -172 90 -255 133 -133 69 -232
122 -244 132 -2 1 1 14 7 29 l12 25 28 -19 c31 -21 116 -68 247 -137 50 -26
95 -51 100 -55 6 -5 71 -39 145 -78 74 -38 169 -87 210 -109 208 -110 260
-134 287 -131 23 2 9 13 -87 62 -63 33 -205 109 -315 169 -110 60 -225 123
-255 139 -30 16 -112 64 -183 105 -103 61 -125 78 -116 89 18 22 56 16 117
-17 31 -18 62 -35 67 -39 6 -4 69 -38 140 -75 72 -38 153 -80 180 -95 28 -15
86 -46 130 -70 44 -23 112 -59 150 -80 266 -142 365 -190 394 -190 19 0 30 4
26 10 -3 6 -13 10 -22 10 -8 0 -27 8 -41 18 -43 30 -536 292 -549 292 -3 0
-14 6 -22 14 -9 7 -63 38 -121 69 -58 30 -154 83 -214 116 -60 34 -113 61
-117 61 -12 0 -26 24 -33 55 -7 33 -10 31 157 117 94 48 106 66 77 114 -36 57
-80 69 -128 35 -15 -10 -49 -29 -77 -43 -27 -13 -79 -41 -114 -62 -63 -36 -66
-37 -95 -21 -17 9 -80 35 -140 59 -96 37 -111 46 -117 70 -10 37 -35 64 -81
87 -40 21 -50 22 -88 9z m77 -66 c21 -16 33 -34 33 -48 0 -13 6 -29 13 -35 22
-18 199 -83 240 -88 20 -3 37 -8 37 -12 0 -9 -124 -71 -141 -71 -6 0 -8 7 -5
16 7 19 -12 37 -66 62 -21 9 -38 20 -38 24 0 5 -5 8 -12 8 -6 0 -19 7 -29 16
-16 14 -21 14 -59 -6 -58 -29 -96 -23 -132 21 -32 39 -30 64 6 80 11 5 36 21
55 34 43 31 56 31 98 -1z m470 -286 c22 -18 14 -38 -19 -53 -151 -66 -201 -84
-214 -77 -13 8 -13 10 0 21 26 21 19 34 -14 28 -16 -4 -30 -4 -30 -2 0 6 158
86 190 96 28 9 68 3 87 -13z"/>
<path d="M312 563 c-51 -25 -90 -48 -88 -50 5 -5 165 73 181 88 14 14 6 11
-93 -38z"/>
<path d="M4697 604 c-16 -16 -6 -35 16 -32 12 2 22 10 22 18 0 16 -26 25 -38
14z"/>
</g>
</svg>
