<?xml version="1.0" standalone="no"?>
<!DOCTYPE svg PUBLIC "-//W3C//DTD SVG 20010904//EN"
 "http://www.w3.org/TR/2001/REC-SVG-20010904/DTD/svg10.dtd">
<svg version="1.0" xmlns="http://www.w3.org/2000/svg"
 width="500.000000pt" height="878.000000pt" viewBox="0 0 500.000000 878.000000"
 preserveAspectRatio="xMidYMid meet">
<metadata>
Created by potrace 1.15, written by Peter Selinger 2001-2017
</metadata>
<g transform="translate(0.000000,878.000000) scale(0.100000,-0.100000)"
fill="#000000" stroke="none">
<path d="M2288 8541 c-47 -3 -90 -9 -93 -13 -15 -15 5 -38 34 -38 16 0 37 -3
46 -6 18 -7 62 -95 71 -144 6 -29 6 -30 -35 -31 -90 -3 -100 -4 -112 -16 -9
-9 -9 -15 -1 -26 10 -11 48 -14 200 -11 213 4 364 12 387 21 9 3 15 15 13 26
-3 19 -10 21 -78 22 l-75 0 4 80 c2 44 5 83 8 88 2 4 33 7 68 7 49 0 64 4 69
17 4 9 1 20 -6 24 -14 9 -369 9 -500 0z m162 -66 c0 -24 -28 -85 -38 -85 -8 0
-52 80 -52 95 0 3 20 5 45 5 34 0 45 -4 45 -15z m132 -22 c3 -21 3 -59 0 -85
l-5 -48 -53 0 c-62 0 -62 -1 -34 89 26 81 26 81 59 81 26 0 29 -4 33 -37z"/>
<path d="M1065 7794 c-63 -34 -69 -72 -30 -187 14 -40 36 -122 50 -182 29
-134 44 -193 80 -310 59 -198 73 -265 63 -309 -5 -22 -11 -61 -14 -86 -7 -81
-25 -140 -42 -141 -34 -3 -57 -6 -69 -7 -22 -3 -42 -57 -53 -143 -5 -46 -14
-97 -18 -114 -5 -16 -7 -36 -5 -42 3 -7 1 -13 -4 -13 -11 0 -45 -83 -68 -165
-10 -33 -23 -71 -30 -85 -39 -78 -47 -130 -49 -329 -2 -109 -6 -203 -10 -210
-6 -9 -11 -9 -23 1 -27 22 -59 20 -75 -4 -14 -21 -23 -23 -89 -23 l-74 0 -3
48 c-4 54 9 77 44 77 39 0 54 25 54 90 0 51 -3 61 -25 78 -14 11 -25 25 -25
31 0 7 -7 23 -16 37 -14 20 -22 23 -48 19 -29 -6 -33 -3 -44 28 -10 29 -21 38
-62 51 -27 9 -56 16 -64 16 -18 0 -33 -25 -40 -65 -3 -16 -20 -44 -38 -62 -32
-34 -33 -34 -47 -14 -20 31 -74 28 -100 -5 -22 -28 -28 -69 -11 -79 5 -3 7
-33 3 -71 -5 -58 -4 -67 17 -89 13 -14 31 -24 39 -23 11 2 17 -6 19 -23 2 -21
-3 -28 -25 -37 -41 -15 -121 -38 -180 -52 -35 -8 -53 -17 -53 -27 0 -11 6 -13
23 -8 12 4 62 17 112 30 50 13 128 37 175 54 47 18 101 32 121 33 37 0 110
-31 146 -64 12 -11 32 -20 45 -19 93 3 178 0 203 -7 28 -8 30 -11 27 -53 -2
-24 -8 -62 -13 -84 -15 -67 -10 -104 23 -199 31 -87 32 -97 30 -231 -1 -77
-11 -198 -22 -270 -10 -71 -26 -186 -35 -254 -9 -68 -21 -135 -26 -149 -35
-91 -83 -314 -84 -384 0 -42 -3 -80 -7 -84 -5 -4 -8 -20 -8 -35 0 -15 -5 -31
-11 -35 -7 -4 -29 -44 -50 -89 -48 -101 -86 -279 -99 -453 -5 -70 -14 -178
-19 -241 -8 -104 -8 -116 10 -145 10 -17 19 -43 19 -58 0 -43 18 -78 46 -88
14 -6 80 -15 147 -21 66 -5 129 -15 139 -20 26 -14 54 -82 73 -181 15 -76 15
-90 1 -168 -14 -74 -20 -89 -48 -113 -88 -76 -151 -147 -179 -203 -23 -47 -37
-63 -63 -72 -38 -14 -67 -50 -85 -109 -12 -36 -12 -45 0 -59 11 -14 11 -18 -5
-29 -14 -10 -15 -18 -7 -33 23 -43 5 -57 -132 -108 -73 -26 -158 -61 -189 -76
-31 -15 -62 -28 -67 -28 -6 0 -32 -10 -59 -23 -26 -12 -66 -29 -89 -36 l-43
-14 0 -134 c0 -128 1 -133 21 -133 12 0 35 -6 52 -14 18 -8 66 -22 107 -31 98
-22 220 -65 220 -78 0 -5 -18 -55 -40 -109 -58 -144 -53 -176 27 -207 22 -9
45 -11 70 -5 21 5 45 9 53 10 18 1 68 20 92 34 10 6 26 10 36 10 10 0 22 4 27
9 6 5 26 12 45 16 l35 7 -30 -26 c-33 -28 -45 -32 -45 -15 0 5 -5 7 -11 3 -8
-4 -4 -11 11 -19 15 -8 18 -14 10 -17 -7 -2 -11 -10 -9 -16 3 -8 19 0 44 23
22 19 44 35 49 35 5 0 19 11 32 25 20 22 30 25 64 21 22 -3 42 -1 45 5 10 15
55 11 55 -6 0 -8 -7 -15 -15 -15 -8 0 -15 -7 -15 -15 0 -8 -7 -15 -15 -15 -33
0 -12 -20 27 -26 22 -4 49 -15 59 -25 10 -10 21 -14 24 -9 3 5 0 12 -7 16 -8
5 6 13 37 21 45 11 46 12 11 8 -22 -2 -46 1 -53 7 -10 8 -13 6 -13 -7 0 -29
-25 -10 -26 21 -1 16 -4 39 -8 50 -5 18 -2 22 21 27 15 3 38 1 51 -4 13 -5 37
-9 53 -9 17 0 28 -4 25 -9 -3 -5 34 -21 82 -36 48 -15 92 -31 97 -35 6 -5 29
-13 50 -18 45 -11 116 -31 219 -61 38 -11 79 -29 90 -40 20 -19 24 -21 46 -21
6 0 10 -4 10 -10 0 -5 -11 -10 -25 -10 -14 0 -25 -3 -25 -7 0 -12 -51 -33 -62
-27 -5 3 -15 1 -22 -5 -7 -6 -21 -9 -30 -5 -9 4 -16 1 -16 -6 0 -7 -8 -10 -20
-7 -21 5 -45 -16 -36 -32 6 -10 -45 -31 -75 -31 -11 0 -19 7 -19 15 0 12 -8
14 -32 10 -35 -6 -56 -21 -45 -31 3 -3 20 1 36 9 36 18 39 15 12 -12 -16 -16
-39 -28 -71 -36 -3 -1 -12 -4 -20 -8 -62 -24 -153 -48 -165 -43 -8 3 -15 1
-15 -3 0 -17 -33 -21 -49 -8 -18 16 -110 41 -119 32 -3 -3 -12 1 -21 8 -9 8
-38 19 -66 26 -94 23 -210 53 -225 58 -8 3 -28 7 -44 9 -16 3 -38 11 -47 20
-10 9 -22 13 -28 10 -5 -4 -13 -1 -16 4 -4 6 -19 9 -35 5 -20 -4 -29 -2 -34
10 -3 9 -11 13 -16 10 -6 -4 -17 -2 -24 4 -7 6 -21 8 -30 5 -11 -4 -22 1 -31
12 -10 13 -14 15 -15 5 0 -8 -6 -11 -17 -6 -10 4 -27 8 -38 10 -50 8 -189 67
-200 84 -21 34 -25 -9 -25 -244 l0 -255 190 0 c105 0 190 4 190 9 0 5 -7 14
-15 21 -8 7 -15 22 -15 34 0 20 1 20 20 -4 11 -14 20 -33 20 -42 0 -15 10 -18
60 -18 52 0 59 2 54 18 -5 16 -5 16 8 0 13 -16 53 -17 471 -18 393 0 457 2
457 14 0 8 5 18 12 22 8 5 9 0 6 -14 -4 -15 -2 -22 8 -22 8 0 15 5 15 10 1 6
3 15 4 20 1 6 3 12 4 15 0 3 12 -2 26 -11 24 -15 25 -15 26 2 1 11 1 22 0 27
0 4 6 7 15 7 13 0 15 -8 12 -35 -4 -31 -1 -35 19 -35 13 0 22 3 22 8 -1 4 -1
22 0 40 1 42 18 33 27 -14 8 -42 15 -38 23 13 7 45 25 50 29 10 3 -25 7 -28
27 -23 14 4 25 1 28 -7 3 -6 6 -1 7 13 l1 25 19 -24 20 -23 0 23 c0 45 16 54
30 17 l13 -33 6 35 c5 28 8 31 14 17 15 -39 9 -57 -22 -57 -17 0 -33 -4 -36
-10 -8 -13 99 -13 123 0 9 5 45 19 80 30 35 11 71 25 80 30 77 42 197 80 255
80 64 0 134 -46 182 -123 15 -23 55 -39 55 -21 0 19 -88 129 -116 146 -19 11
-33 22 -31 24 11 11 174 33 226 30 101 -5 220 -86 262 -179 12 -27 12 -27 125
-27 l112 0 -9 33 c-24 90 -59 240 -59 253 0 19 20 14 110 -29 36 -17 67 -32
70 -32 3 0 16 -8 30 -17 55 -36 261 -106 340 -114 65 -7 353 21 407 40 21 7
70 14 110 15 104 3 152 -20 193 -93 25 -44 37 -56 57 -56 25 0 24 8 -4 41 -8
9 -24 36 -36 60 -19 38 -30 47 -82 68 -87 34 -153 30 -335 -22 -69 -20 -229
-28 -295 -15 -104 21 -234 69 -410 153 -66 32 -132 58 -147 58 -20 0 -28 5
-28 18 0 9 -2 23 -5 31 -3 8 11 21 37 35 60 30 84 33 142 22 125 -25 166 -40
279 -95 139 -69 312 -96 441 -69 43 8 86 13 96 10 9 -3 46 4 81 15 35 11 76
20 90 20 34 0 124 -31 172 -60 38 -22 164 -64 241 -80 54 -11 181 -7 197 6 8
6 30 14 49 18 19 3 54 14 78 23 33 12 42 21 42 39 0 26 2 26 -94 -15 -41 -18
-70 -22 -165 -22 -112 0 -120 1 -226 41 -166 63 -223 79 -301 86 -59 5 -83 2
-158 -21 -184 -55 -337 -41 -527 49 -52 24 -128 54 -169 67 l-75 23 40 17 c73
33 221 16 314 -37 25 -14 66 -27 91 -30 25 -3 52 -8 60 -11 24 -9 87 -3 193
18 148 30 245 37 324 23 66 -11 205 -65 268 -104 16 -10 48 -23 70 -29 43 -11
227 -17 260 -8 35 9 86 39 92 53 11 30 -4 33 -50 9 -83 -44 -266 -36 -356 17
-19 10 -78 38 -130 60 -89 37 -105 41 -212 45 -86 4 -141 1 -215 -12 -210 -38
-289 -35 -378 14 -57 32 -125 56 -143 53 -22 -5 -14 15 17 42 58 48 129 44
255 -16 75 -35 175 -53 249 -44 90 12 69 36 -32 36 -57 1 -130 16 -167 36 -11
6 -46 21 -78 34 -60 24 -90 61 -68 83 7 7 14 2 20 -14 10 -25 10 -28 13 194 1
37 5 70 9 72 8 5 19 -147 17 -233 0 -29 2 -56 6 -59 3 -4 25 4 47 16 59 33
134 26 183 -17 20 -17 59 -38 88 -47 59 -17 160 -20 189 -5 38 21 20 31 -48
27 -81 -5 -152 13 -202 53 -20 15 -53 33 -73 40 -30 9 -38 17 -38 35 0 34 18
41 26 10 7 -28 26 -35 23 -7 -4 43 2 122 10 122 4 0 8 -24 8 -53 0 -101 39
-123 110 -63 22 19 52 38 66 41 36 10 108 -27 142 -71 36 -47 82 -74 125 -74
19 0 47 -6 62 -14 23 -12 33 -12 83 5 31 10 71 30 88 45 28 23 36 25 81 19 27
-3 59 -11 70 -17 28 -15 83 -74 91 -97 6 -21 42 -35 51 -20 3 5 9 7 14 4 12
-8 50 13 50 26 0 6 -18 9 -45 6 -40 -3 -46 -1 -51 18 -8 31 -63 81 -98 89 -25
6 -27 9 -15 21 19 19 62 20 134 1 78 -20 75 -20 75 9 0 20 -5 25 -24 25 -13 0
-39 6 -57 14 -19 7 -49 11 -68 9 -20 -4 -36 -1 -41 6 -5 9 -20 5 -56 -15 -58
-32 -159 -40 -235 -18 -45 14 -149 86 -149 104 0 16 42 33 79 33 34 0 100 -31
163 -75 15 -10 42 -18 60 -18 18 1 50 -1 71 -3 40 -5 55 6 37 27 -9 12 9 15
105 21 104 7 115 9 115 26 0 18 -6 19 -87 14 -49 -4 -118 -6 -155 -5 -38 1
-68 -2 -68 -6 0 -4 7 -16 17 -26 15 -17 15 -18 -8 -18 -21 0 -120 58 -118 70
0 3 43 26 95 52 90 45 97 47 123 34 15 -8 33 -21 40 -30 14 -17 57 -31 119
-40 37 -6 42 -4 42 14 0 11 -3 20 -7 21 -35 3 -60 12 -73 25 -13 13 -13 16 -1
23 8 6 24 5 38 0 14 -5 29 -9 34 -9 5 0 9 113 9 281 0 184 -3 278 -10 274 -6
-4 -10 5 -10 20 0 15 4 24 10 20 6 -3 10 1 10 10 0 9 -5 13 -10 10 -6 -4 -10
17 -10 54 0 34 4 61 10 61 7 0 10 193 10 560 l0 559 -28 -16 c-17 -10 -36 -13
-47 -9 -16 6 -17 17 -11 149 3 78 8 383 11 677 3 294 7 594 10 665 2 72 7 283
11 470 4 187 10 347 14 355 14 26 34 180 35 255 0 63 -2 70 -20 73 -18 2 -20
11 -23 80 -3 109 -22 249 -38 287 -12 29 -12 38 1 69 19 45 19 79 0 116 -26
51 -79 64 -135 35 -64 -33 -82 -116 -35 -159 24 -22 24 -25 14 -82 -6 -32 -14
-99 -18 -149 l-6 -90 -60 3 c-33 2 -63 7 -68 11 -4 4 -10 45 -13 92 -3 46 -9
138 -15 203 -7 87 -6 128 2 151 16 43 5 81 -36 122 -40 40 -88 44 -129 12 -26
-20 -27 -25 -21 -78 11 -98 9 -153 -9 -271 -10 -63 -21 -143 -26 -178 -4 -35
-11 -66 -13 -69 -3 -2 -24 -7 -46 -10 l-40 -6 5 64 c3 35 1 107 -6 159 -13
112 -13 112 -4 171 6 42 4 49 -26 82 -42 48 -84 50 -133 7 -41 -36 -50 -72
-31 -120 12 -28 13 -48 5 -100 -6 -36 -13 -98 -17 -139 -6 -73 -6 -73 -21 -43
-26 54 -58 75 -110 75 -35 0 -51 5 -61 19 -7 10 -21 18 -31 18 -10 0 -31 6
-46 14 -25 13 -32 13 -56 0 -16 -8 -37 -31 -47 -51 -12 -22 -22 -32 -26 -24
-12 19 -51 12 -74 -12 -27 -29 -28 -61 -2 -87 16 -16 17 -20 4 -20 -8 0 -39
-15 -67 -34 -60 -40 -98 -56 -133 -56 -33 0 -32 39 3 107 l28 53 -22 21 c-37
38 -107 3 -119 -59 -6 -27 -3 -34 13 -38 16 -4 19 -13 17 -47 -1 -34 -6 -43
-23 -45 -24 -4 -24 0 -21 96 1 49 8 72 26 100 17 24 22 42 17 56 -3 12 -9 37
-12 56 -5 27 -14 39 -39 51 -18 9 -48 37 -67 62 -19 25 -43 48 -53 51 -27 9
-93 -22 -99 -45 -7 -25 -15 -24 -51 6 -51 43 -102 26 -102 -33 0 -10 -11 -29
-25 -42 -27 -26 -33 -61 -12 -79 15 -12 27 -5 27 15 0 7 11 24 25 38 18 18 24
33 20 48 -3 13 -1 29 4 37 7 11 19 3 53 -33 41 -45 45 -47 71 -35 20 9 27 19
27 41 0 15 5 28 11 28 7 0 17 7 24 17 12 17 40 9 29 -8 -3 -6 3 -20 14 -32 11
-12 24 -35 29 -52 10 -29 23 -34 63 -24 12 3 16 -7 18 -44 3 -41 -1 -52 -25
-77 -37 -39 -58 -38 -69 2 -11 39 -43 50 -51 18 -7 -27 -26 -21 -33 11 -6 24
-39 40 -41 20 -1 -6 -3 -15 -4 -21 -1 -5 -3 -15 -4 -21 0 -5 -5 -8 -11 -4 -5
3 -7 12 -4 19 7 18 -11 29 -54 33 -27 3 -35 0 -39 -17 -6 -24 -11 -25 -35 -4
-16 16 -18 16 -24 0 -8 -21 13 -46 40 -46 20 0 21 -4 21 -122 0 -89 -3 -123
-12 -123 -7 0 -18 -6 -24 -12 -7 -7 -23 -13 -36 -13 -29 0 -31 30 -3 55 21 19
27 69 10 80 -5 3 -10 15 -10 25 0 22 -25 50 -45 50 -7 0 -31 -15 -53 -32 -51
-41 -57 -85 -17 -122 14 -13 25 -34 25 -48 0 -23 -5 -26 -52 -31 -29 -3 -87
-15 -128 -27 -58 -16 -117 -22 -262 -27 l-188 -6 0 49 c0 59 -29 114 -60 114
-14 0 -26 11 -35 34 -19 46 -50 66 -102 66 -23 0 -48 6 -55 13 -8 6 -25 18
-38 26 -20 11 -25 11 -34 -1 -8 -10 -24 -13 -52 -10 -41 4 -42 5 -57 55 -34
118 -78 284 -83 315 -2 18 -25 110 -49 205 -25 95 -55 218 -67 275 l-22 104
32 24 c31 25 32 27 30 102 0 42 1 82 2 87 2 6 -5 28 -14 50 -10 22 -25 56 -33
75 -31 74 -39 85 -68 90 -29 5 -30 6 -55 95 -13 45 -54 192 -100 360 -64 232
-80 282 -101 304 -23 25 -62 26 -104 5z m369 -810 c8 -20 -1 -34 -20 -34 -15
0 -17 9 -8 34 8 20 20 20 28 0z m-26 -86 c-3 -7 -18 -19 -34 -28 -16 -9 -35
-28 -43 -42 -13 -23 -12 -29 8 -69 25 -47 35 -109 17 -106 -6 1 -12 -9 -14
-23 -1 -14 -8 -37 -13 -52 -8 -19 -8 -37 0 -60 5 -18 13 -62 16 -98 l6 -65
-25 40 c-35 56 -87 115 -100 115 -6 0 -18 5 -26 10 -13 9 -12 13 6 28 21 17
70 165 59 181 -2 5 0 34 6 65 10 54 36 96 69 109 28 11 72 7 68 -5z m64 -63
c-4 -21 -13 -40 -20 -43 -15 -5 -16 25 -1 67 15 44 32 25 21 -24z m38 -63 c0
-10 -7 -27 -15 -38 -14 -19 -14 -19 -15 3 0 28 10 53 21 53 5 0 9 -8 9 -18z
m-364 -258 c-3 -9 -6 -20 -6 -25 0 -5 -7 -9 -15 -9 -15 0 -21 31 -8 43 13 14
35 7 29 -9z m82 -60 c12 -8 22 -20 22 -26 0 -5 9 -23 20 -38 11 -16 28 -52 37
-80 14 -45 19 -51 39 -47 21 4 25 -2 39 -49 8 -29 26 -106 40 -171 13 -65 29
-134 35 -153 5 -19 21 -71 34 -115 13 -44 29 -105 35 -135 6 -30 14 -65 17
-77 5 -17 -2 -30 -25 -52 -17 -16 -31 -36 -31 -45 0 -9 -17 -34 -39 -56 -29
-30 -47 -40 -70 -40 -39 0 -52 26 -81 165 -11 55 -28 132 -37 171 -11 50 -12
77 -5 90 5 10 13 42 17 69 4 28 13 75 21 105 7 30 18 88 24 128 8 49 19 81 32
94 22 22 21 53 -2 53 -24 1 -37 13 -60 57 -31 60 -51 80 -73 74 -11 -3 -30 2
-43 10 -22 15 -22 17 -7 50 19 38 28 41 61 18z m-107 -81 c-12 -20 -14 -14 -5
12 4 9 9 14 11 11 3 -2 0 -13 -6 -23z m-21 -73 c0 -5 -5 -10 -11 -10 -5 0 -7
5 -4 10 3 6 8 10 11 10 2 0 4 -4 4 -10z m140 -37 c0 -7 9 -22 20 -33 20 -20
27 -60 11 -60 -5 0 -23 14 -39 30 -33 33 -53 37 -71 16 -9 -11 -6 -18 18 -35
16 -12 33 -21 39 -21 5 0 12 -11 14 -25 4 -19 1 -25 -13 -25 -29 0 -23 -28 14
-62 22 -21 26 -28 12 -23 -36 14 -75 18 -75 7 0 -24 14 -44 41 -58 40 -20 37
-36 -6 -28 -28 5 -35 3 -35 -10 0 -9 3 -16 8 -16 4 0 13 -9 20 -21 12 -19 11
-19 -8 -9 -26 14 -40 5 -40 -24 0 -15 10 -27 33 -39 28 -14 29 -16 10 -16 -30
-1 -29 -23 3 -79 24 -40 25 -46 10 -54 -20 -11 -20 -22 -1 -42 14 -14 14 -17
-5 -36 -17 -17 -19 -24 -10 -35 7 -8 19 -13 28 -12 25 3 26 -17 2 -21 -16 -3
-20 -10 -18 -30 2 -21 9 -28 31 -30 31 -4 37 -22 8 -22 -24 0 -33 -13 -25 -34
4 -9 18 -16 34 -16 38 0 48 -28 12 -32 -21 -2 -27 -8 -27 -28 0 -22 5 -25 43
-28 23 -2 42 -8 42 -14 0 -7 -20 -9 -59 -5 -48 4 -69 1 -108 -17 -83 -39 -94
-74 -17 -55 21 6 48 10 59 10 11 -1 43 -2 70 -2 48 -1 49 -1 15 -9 -130 -29
-160 -42 -160 -69 0 -9 -19 -35 -41 -56 -23 -22 -39 -35 -36 -29 4 7 0 17 -7
23 -12 10 -21 5 -46 -22 -17 -19 -37 -43 -45 -53 -14 -18 -14 -18 -15 3 0 13
-5 43 -12 68 -10 37 -9 50 4 78 15 32 15 36 0 50 -15 15 -15 19 1 52 10 20 31
44 47 53 33 19 39 37 15 46 -22 8 -47 -3 -72 -33 l-21 -26 5 28 c3 15 14 32
24 38 11 5 19 15 19 22 0 7 9 20 20 30 11 9 20 21 20 27 0 20 -31 22 -50 5
-18 -16 -20 -17 -20 -2 0 10 4 17 9 17 4 0 20 11 35 25 33 30 30 63 -4 45 -25
-14 -26 -5 0 22 25 28 25 39 -1 45 -18 5 -20 11 -15 46 4 22 16 51 26 65 11
13 20 31 20 38 0 16 -30 33 -46 27 -8 -3 -10 16 -7 64 3 48 17 100 46 176 22
59 44 107 48 107 4 0 9 -9 12 -21 10 -36 31 -15 57 57 24 65 27 69 57 69 41 0
50 11 29 34 -16 17 -16 18 7 14 14 -3 28 1 32 7 8 14 25 -5 25 -27z m300 -13
c0 -5 -5 -10 -11 -10 -5 0 -7 5 -4 10 3 6 8 10 11 10 2 0 4 -4 4 -10z m-489
-51 c-6 -16 -10 -18 -10 -7 -1 22 12 55 16 42 2 -6 -1 -22 -6 -35z m469 21
c12 -8 11 -10 -7 -10 -13 0 -23 5 -23 10 0 13 11 13 30 0z m3006 -47 c29 -38
10 -103 -31 -103 -33 0 -68 46 -60 79 4 14 12 29 18 33 21 14 59 8 73 -9z
m-2976 -49 c14 -35 13 -37 -10 -14 -14 14 -28 19 -48 15 -27 -6 -27 -6 3 9 41
20 44 19 55 -10z m2651 -60 c8 -9 9 -29 3 -61 -8 -42 -13 -48 -35 -51 -19 -2
-33 4 -48 24 -26 34 -27 62 -1 89 23 24 61 23 81 -1z m-2643 -7 c3 -13 -4 -17
-32 -17 -40 0 -48 16 -13 30 28 11 41 8 45 -13z m3295 14 c30 -12 39 -34 31
-77 -6 -33 -8 -34 -55 -34 -54 0 -63 8 -61 58 2 51 35 72 85 53z m-319 -169
c3 -70 8 -160 11 -199 5 -82 12 -75 -87 -88 l-48 -6 0 43 c0 55 27 326 35 359
5 22 11 24 45 21 l38 -4 6 -126z m-2954 88 c0 -5 -5 -10 -11 -10 -5 0 -7 5 -4
10 3 6 8 10 11 10 2 0 4 -4 4 -10z m-25 -50 c3 -5 -1 -10 -9 -10 -9 0 -16 5
-16 10 0 6 4 10 9 10 6 0 13 -4 16 -10z m3295 -30 c11 -6 21 -25 24 -43 6 -42
24 -216 31 -295 l5 -63 -63 3 -62 3 -3 90 c-3 83 12 269 25 301 6 17 18 18 43
4z m-648 -24 c4 -6 8 -70 8 -142 l0 -132 -47 -7 c-27 -4 -54 -12 -60 -17 -10
-8 -13 -2 -13 28 1 74 20 239 31 266 10 24 15 26 43 21 17 -3 34 -11 38 -17z
m-3758 -2 c4 -10 14 -14 26 -11 26 7 50 -17 43 -43 -4 -14 3 -30 17 -45 29
-30 50 -32 57 -5 5 21 6 21 19 1 8 -11 11 -27 8 -35 -9 -22 13 -45 36 -39 18
5 20 0 20 -38 0 -66 -2 -67 -99 -60 -11 1 -18 8 -17 19 1 12 -6 17 -24 17 -16
0 -26 7 -30 22 -5 22 -5 22 -45 3 -27 -13 -44 -15 -52 -8 -8 7 -16 3 -25 -11
-7 -12 -16 -21 -21 -21 -4 0 -32 -18 -62 -40 -60 -44 -67 -46 -84 -26 -8 10
-7 22 5 51 14 34 14 39 0 54 -32 35 -12 104 27 97 12 -2 21 -10 19 -17 -4 -18
30 -80 43 -76 5 2 12 14 13 28 2 13 21 39 43 58 29 26 39 42 39 65 0 45 11 76
25 76 7 0 16 -7 19 -16z m1166 -19 c0 -16 -35 -21 -44 -6 -8 12 4 21 26 21 10
0 18 -7 18 -15z m2162 -110 c2 -13 11 -20 26 -19 18 0 22 -5 22 -31 0 -31 0
-31 -50 -31 -27 1 -50 6 -51 11 -4 33 5 72 19 88 17 19 28 13 34 -18z m-2142
10 c0 -8 -7 -15 -15 -15 -9 0 -12 6 -9 15 4 8 10 15 15 15 5 0 9 -7 9 -15z
m2020 -102 c0 -27 -1 -27 -35 -11 -27 12 -33 36 -13 56 16 16 48 -13 48 -45z
m319 31 c25 -32 26 -36 4 -63 -17 -21 -19 -21 -50 -6 -41 20 -55 62 -28 82 28
20 51 16 74 -13z m-945 -15 c16 -4 19 -14 20 -82 1 -77 1 -79 -27 -94 -16 -8
-32 -12 -35 -8 -9 9 -16 171 -8 191 4 12 10 13 19 6 6 -5 20 -11 31 -13z m329
-30 c-25 -26 -38 -11 -16 20 11 16 18 20 26 12 8 -8 5 -17 -10 -32z m-239 -9
c5 -28 -9 -88 -19 -78 -2 2 -7 27 -11 56 -5 42 -3 52 9 52 8 0 17 -13 21 -30z
m933 -59 c-1 -65 -11 -72 -20 -15 -5 32 5 74 18 74 2 0 3 -27 2 -59z m-2266
22 c12 -15 12 -16 -4 -10 -10 4 -25 7 -33 7 -8 0 -14 5 -14 10 0 16 36 11 51
-7z m1909 -4 c0 -18 -2 -20 -15 -9 -13 11 -13 15 -3 21 18 12 18 12 18 -12z
m160 -9 c0 -34 1 -34 -34 -20 -38 14 -35 50 4 50 27 0 30 -3 30 -30z m-643 -2
c-3 -8 -6 -5 -6 6 -1 11 2 17 5 13 3 -3 4 -12 1 -19z m-2680 -10 c16 -15 23
-33 23 -61 0 -21 -3 -37 -7 -35 -71 34 -73 37 -66 86 6 38 18 40 50 10z m2288
-9 c9 -40 -10 -61 -42 -48 -13 4 -23 14 -23 20 0 12 39 56 52 58 3 1 9 -13 13
-30z m-2395 -8 c0 -32 -14 -49 -25 -31 -9 15 3 60 15 60 6 0 10 -13 10 -29z
m3196 4 c4 -16 13 -25 23 -24 33 3 42 -2 51 -27 10 -25 30 -25 30 1 0 20 70
29 103 12 l28 -14 -32 -7 c-50 -10 -57 -20 -52 -78 2 -35 10 -59 24 -74 11
-12 17 -24 12 -27 -5 -3 -53 -8 -106 -11 -102 -5 -122 -10 -111 -28 4 -6 44
-9 105 -7 61 3 99 0 99 -6 0 -6 -42 -11 -102 -12 -57 -1 -116 -6 -132 -12 -28
-11 -28 -13 -24 -67 4 -42 10 -59 24 -67 24 -14 21 -14 132 -15 l92 -2 0 -58
c0 -33 6 -66 14 -77 7 -11 16 -38 19 -60 4 -22 9 -404 12 -850 3 -445 8 -974
12 -1175 5 -201 8 -374 8 -385 0 -14 -15 -27 -49 -43 -26 -13 -51 -21 -53 -18
-18 17 -57 168 -68 261 -8 61 -20 130 -27 155 -13 41 -13 49 7 95 31 71 36
120 20 195 -29 139 -85 231 -167 274 -31 16 -63 26 -72 23 -8 -3 -18 -2 -21 3
-6 9 -9 466 -5 873 1 148 -1 271 -4 274 -3 3 -12 3 -21 0 -12 -5 -15 -25 -15
-104 0 -54 0 -285 -1 -513 0 -228 -2 -439 -5 -467 l-6 -53 -38 0 c-49 0 -48
-6 -50 295 0 132 -2 375 -3 540 l-2 300 53 1 c40 0 58 6 77 24 22 20 25 32 27
109 l3 86 85 3 c109 3 130 13 130 64 0 67 -21 77 -143 72 l-104 -5 -6 123 c-3
68 -8 130 -12 139 -5 13 -1 15 19 12 14 -3 33 -2 42 1 13 5 14 9 4 21 -9 11
-23 14 -46 9 -28 -5 -34 -3 -34 11 0 15 10 16 89 12 49 -2 95 -1 102 3 21 14
-1 30 -40 30 -21 0 -59 3 -85 6 l-46 7 6 46 c5 39 2 51 -20 80 -14 19 -26 38
-26 42 0 5 17 11 38 15 43 8 95 29 130 52 23 15 75 38 94 41 4 0 10 -10 14
-24z m1102 10 c6 -2 12 -17 12 -33 0 -26 -3 -28 -37 -29 -252 -4 -528 -13
-542 -18 -15 -4 -19 2 -24 32 -4 20 -4 39 -2 42 3 2 72 7 153 9 81 2 148 5
149 6 4 3 279 -5 291 -9z m-3058 -3 c0 -4 -16 -15 -35 -24 -31 -14 -34 -14
-23 -1 7 8 21 19 33 23 26 11 25 11 25 2z m2275 -2 c4 -6 14 -9 23 -8 12 2 18
-5 20 -22 3 -23 -1 -25 -36 -28 -35 -2 -40 1 -46 23 -4 14 -4 30 -1 35 8 13
32 13 40 0z m-3589 -25 c3 -14 1 -32 -6 -39 -10 -13 -14 -12 -29 2 -15 15 -16
20 -3 40 19 29 30 28 38 -3z m1431 -40 c-4 -8 -14 -15 -23 -15 -16 0 -16 2 1
20 20 22 31 20 22 -5z m-223 -42 c-4 -16 -13 -41 -21 -58 l-14 -30 6 40 c7 39
21 75 31 75 2 0 1 -12 -2 -27z m1572 -2 c-43 -47 -26 -142 30 -172 17 -9 22
-18 19 -33 -9 -38 -26 -169 -32 -248 l-6 -78 -61 -1 c-33 -1 -80 -1 -103 0
-51 3 -67 -18 -57 -79 6 -39 6 -40 -23 -40 -17 0 -44 -3 -61 -6 -30 -6 -31 -5
-30 27 2 68 -22 267 -37 302 -15 36 -14 37 12 66 26 28 31 30 73 21 50 -9 62
-6 58 18 -3 13 9 16 77 18 70 1 75 0 45 -10 -56 -18 -50 -36 14 -36 50 0 87
18 58 28 -8 2 -3 11 10 22 13 10 20 21 17 24 -4 4 -79 8 -168 10 -159 2 -162
3 -189 29 -15 14 -43 33 -62 41 l-35 15 64 1 c60 0 158 30 276 85 17 7 52 14
79 14 48 1 49 0 32 -18z m1049 4 c39 -2 103 -4 142 -5 l73 0 -4 -32 -3 -33
-139 -2 c-77 -1 -205 -4 -286 -8 l-148 -7 0 36 c0 20 -1 39 -2 44 -7 19 118
21 367 7z m790 -25 c-4 -19 -8 -36 -9 -37 -1 -1 -95 -4 -210 -8 -115 -3 -214
-7 -219 -8 -14 -3 -20 28 -13 58 6 23 10 24 114 28 59 1 160 3 225 2 l118 0
-6 -35z m-1656 4 c23 -19 31 -34 31 -58 0 -34 -33 -76 -48 -61 -4 4 -1 10 6
12 6 3 10 9 6 14 -8 14 -24 0 -24 -22 0 -11 7 -30 15 -42 25 -38 45 -148 45
-250 l0 -97 -27 0 c-16 0 -52 -3 -80 -6 l-53 -6 0 59 c0 62 25 246 35 263 3 6
15 10 26 10 12 0 19 7 19 20 0 16 -7 20 -36 20 -29 0 -35 3 -30 16 3 8 2 13
-3 10 -20 -13 -45 22 -44 63 3 65 14 76 76 79 47 2 60 -2 86 -24z m1157 -19
c-11 -59 5 -75 74 -75 47 0 60 -3 60 -15 0 -17 -76 -21 -164 -9 -52 8 -57 16
-21 32 20 9 25 19 25 50 0 39 6 52 23 52 5 0 6 -15 3 -35z m-261 -75 l73 0 4
-52 c5 -73 1 -86 -26 -81 -15 3 -22 12 -22 26 1 20 -5 22 -64 25 -36 2 -69 7
-74 12 -5 5 -5 25 -2 45 5 27 11 35 22 31 9 -3 49 -6 89 -6z m493 -30 c2 -19
9 -57 16 -85 9 -37 10 -150 5 -440 -4 -214 -9 -640 -10 -945 -1 -305 -4 -670
-7 -811 l-4 -257 -61 -26 c-34 -14 -66 -26 -71 -26 -8 0 -3 716 9 1265 3 121
7 333 10 470 15 742 16 780 31 791 8 6 17 26 20 45 9 55 13 61 36 57 18 -2 24
-11 26 -38z m247 31 c3 -5 3 -34 -1 -63 l-6 -53 -92 4 c-50 1 -93 5 -95 7 -2
2 -6 28 -9 57 l-4 52 100 2 c56 2 103 -1 107 -6z m-2366 -30 l-21 -28 -229 -2
c-198 -2 -229 0 -229 13 0 12 12 15 58 14 31 -1 89 1 127 5 39 3 115 9 170 12
55 3 101 8 104 11 2 2 13 4 23 4 18 0 17 -2 -3 -29z m1415 17 c20 -64 19 -66
-35 -70 -57 -3 -61 -2 -78 29 -23 45 -16 53 49 53 40 0 62 -4 64 -12z m353
-16 c10 -54 4 -640 -7 -647 -6 -4 -7 -13 -1 -23 5 -9 8 -163 8 -342 0 -297 10
-727 18 -740 1 -3 4 -211 6 -463 l4 -459 -40 -14 c-22 -7 -41 -14 -42 -14 -1
0 0 546 3 1213 3 666 5 1236 4 1264 -1 34 5 61 14 75 11 16 16 46 16 102 0 71
8 95 17 48z m-1621 -7 c12 -8 24 -28 27 -47 4 -28 0 -37 -29 -61 l-34 -29 19
-31 c21 -34 40 -114 25 -104 -5 2 -16 -2 -24 -11 -13 -14 -12 -15 3 -9 25 9
34 -20 12 -37 -19 -14 -13 -36 11 -36 9 0 14 -11 14 -35 0 -20 -5 -35 -12 -35
-7 0 -5 -6 4 -17 9 -10 18 -27 22 -38 5 -19 0 -20 -81 -23 l-86 -2 6 107 c6
131 33 243 59 243 22 0 24 28 2 37 -32 12 -64 51 -64 77 0 16 11 37 27 52 29
27 57 26 99 -1z m1864 -35 c0 -5 -2 -10 -4 -10 -3 0 -8 5 -11 10 -3 6 -1 10 4
10 6 0 11 -4 11 -10z m-3134 -55 c1 -27 2 -56 3 -62 1 -7 14 -13 31 -13 28 0
29 -2 23 -32 -3 -18 -7 -35 -9 -37 -7 -8 -57 58 -79 104 -12 28 -30 57 -39 64
-23 20 -9 33 32 29 l37 -3 1 -50z m714 25 c0 -5 -11 -10 -25 -10 -14 0 -25 5
-25 10 0 6 11 10 25 10 14 0 25 -4 25 -10z m409 -36 c24 -44 24 -49 12 -112
-7 -37 -16 -116 -21 -175 -5 -59 -12 -111 -14 -116 -3 -4 -60 -11 -127 -14
-72 -3 -125 -10 -129 -16 -9 -15 -3 -76 9 -100 9 -16 23 -18 136 -18 68 0 127
-2 130 -4 8 -9 10 -1767 2 -1776 -4 -4 -42 11 -84 33 -88 47 -82 37 -138 249
-31 122 -62 237 -106 400 -72 267 -71 258 -60 389 6 67 16 166 22 221 6 55 8
112 5 128 -5 24 -2 27 19 27 18 0 26 7 31 26 8 32 -3 119 -20 159 -8 16 -22
58 -31 93 -15 51 -31 77 -88 142 -38 44 -78 82 -88 85 -11 4 -19 16 -19 28 0
34 -38 90 -56 83 -11 -4 -18 1 -21 14 -3 12 -18 27 -34 36 -21 10 -29 22 -29
40 0 24 2 25 17 13 9 -8 25 -13 36 -11 10 2 29 -6 42 -18 29 -27 47 -18 39 17
-6 24 -5 25 19 19 34 -8 41 6 17 37 -11 14 -20 28 -20 31 0 5 89 0 146 -9 32
-6 64 2 64 14 0 4 -6 8 -12 8 -7 0 -33 5 -57 11 -25 6 -48 9 -52 6 -5 -2 -13
4 -18 15 -15 27 -14 34 4 27 20 -7 115 13 115 24 0 5 -6 12 -12 17 -7 4 52 10
132 13 80 3 161 7 180 8 32 2 37 -2 59 -44z m1131 16 c19 -6 102 -10 185 -11
139 0 151 -1 172 -21 37 -35 29 -45 -34 -46 -32 0 -147 -4 -255 -8 l-197 -7
-7 37 c-8 45 -1 53 51 59 22 2 42 4 45 5 3 1 21 -3 40 -8z m479 -6 c2 -2 2 -7
-2 -10 -10 -10 -78 6 -71 17 5 9 62 3 73 -7z m276 -79 c11 -84 6 -309 -10
-453 -3 -29 -5 -571 -5 -1205 0 -1113 -5 -1482 -21 -1441 -4 11 -10 240 -14
510 -4 269 -9 532 -11 584 -2 52 -7 546 -11 1098 l-6 1003 34 -3 34 -3 10 -90z
m89 -17 c-3 -149 -14 -716 -19 -908 -3 -91 -7 -469 -10 -840 -4 -371 -8 -727
-11 -790 -2 -63 -4 -148 -4 -189 0 -41 -3 -72 -6 -68 -8 8 -8 1162 0 1175 4 6
3 13 -2 16 -8 4 -8 131 -1 1168 l4 538 25 0 25 0 -1 -102z m-3189 82 c3 -5 2
-10 -4 -10 -5 0 -13 5 -16 10 -3 6 -2 10 4 10 5 0 13 -4 16 -10z m15 -73 c39
-19 45 -26 42 -49 -2 -18 4 -30 17 -37 34 -19 57 -12 94 29 33 34 41 39 74 35
21 -2 41 -4 46 -4 4 -1 7 -10 7 -20 0 -25 17 -36 34 -22 10 9 15 8 20 -4 4
-11 13 -14 25 -10 11 3 22 1 26 -5 11 -17 23 -11 29 15 4 16 13 25 25 25 16 0
19 -7 18 -35 l-2 -35 -65 -2 c-36 0 -72 0 -80 1 -23 3 -33 2 -64 -5 -19 -4
-31 -2 -36 6 -7 11 -13 10 -32 -2 -16 -11 -30 -13 -39 -7 -8 5 -23 9 -34 9
-11 0 -40 14 -65 31 -49 33 -85 35 -85 4 0 -23 76 -67 148 -85 42 -11 47 -15
47 -39 0 -15 -5 -32 -11 -38 -6 -6 -9 -19 -7 -29 3 -16 6 -14 18 10 8 16 20
28 25 26 10 -2 10 -5 1 -30 -3 -8 -1 -22 4 -30 9 -13 11 -13 21 0 9 12 12 13
16 1 4 -11 7 -11 13 0 7 10 11 10 24 0 8 -7 20 -10 25 -7 16 11 22 -11 6 -24
-8 -7 -15 -9 -15 -4 0 4 -5 3 -11 -3 -9 -9 -6 -19 10 -42 27 -38 58 -40 71 -6
5 14 16 25 24 25 13 0 12 -6 -5 -34 -23 -39 -16 -66 17 -66 19 0 24 -5 24 -24
0 -14 5 -28 10 -31 6 -4 7 -12 3 -18 -4 -7 7 1 25 18 18 16 32 35 32 41 0 6 9
28 20 50 l19 39 2 -30 2 -30 4 29 c3 16 18 40 34 53 37 31 39 58 4 49 -18 -5
-25 -2 -25 8 0 26 18 27 57 2 72 -47 93 -67 93 -91 0 -17 6 -25 23 -27 15 -2
21 -9 20 -23 -1 -11 0 -14 3 -7 9 20 23 14 44 -20 24 -39 25 -48 6 -48 -8 0
-18 9 -21 20 -4 14 -15 20 -35 20 -16 0 -30 6 -33 13 -3 6 -2 -7 0 -30 3 -24
1 -43 -4 -43 -16 0 -33 23 -33 47 0 13 -4 23 -9 23 -15 0 -20 -40 -6 -48 10
-5 6 -15 -16 -42 -23 -27 -32 -31 -41 -22 -20 20 -35 14 -47 -18 -5 -16 -17
-30 -25 -30 -9 0 -16 -5 -16 -11 0 -6 -7 -8 -16 -5 -11 4 -15 2 -11 -8 3 -8
-2 -16 -14 -19 -10 -3 -19 -2 -19 1 0 4 -7 15 -15 26 -13 17 -15 17 -30 2 -25
-25 -48 -21 -39 7 3 12 11 28 16 35 17 21 0 13 -23 -10 -12 -13 -19 -18 -16
-12 4 6 1 18 -6 27 -11 15 -15 15 -40 2 -29 -15 -29 -15 -53 -15 -11 0 -14 -6
-9 -21 5 -16 -2 -31 -33 -63 -22 -22 -49 -60 -61 -83 -12 -24 -26 -43 -32 -43
-6 0 -9 -7 -5 -15 3 -8 -1 -29 -8 -47 -9 -20 -11 -40 -6 -54 6 -16 5 -24 -6
-28 -8 -3 -14 -12 -14 -21 0 -20 9 -19 29 4 22 25 51 14 40 -16 -5 -13 -16
-23 -24 -23 -9 0 -14 -4 -11 -9 6 -10 -15 -71 -25 -71 -4 0 -12 7 -19 15 -19
22 -28 18 -22 -10 2 -14 9 -25 14 -25 6 0 5 -7 -2 -15 -7 -9 -19 -14 -27 -11
-15 6 -15 7 -18 -54 -1 -25 0 -39 2 -32 3 9 12 5 29 -13 17 -19 30 -24 47 -20
20 5 24 3 23 -17 -1 -20 3 -23 35 -21 32 2 36 0 32 -17 -3 -11 -11 -25 -19
-31 -8 -6 -14 -19 -15 -28 -1 -9 -4 -5 -8 8 -3 13 -15 29 -26 35 -11 6 -23 16
-27 22 -4 6 -22 11 -39 12 -33 1 -52 18 -44 40 2 6 1 12 -4 12 -11 0 -21 -52
-15 -78 4 -14 0 -22 -14 -26 -23 -8 -35 -38 -32 -81 2 -37 23 -61 58 -70 21
-5 23 -8 12 -15 -24 -13 -99 -9 -111 6 -6 8 -28 14 -48 14 -35 0 -108 40 -96
52 3 3 -8 8 -25 11 -24 5 -30 12 -30 32 0 16 -6 25 -15 25 -8 0 -15 -4 -15
-10 0 -5 5 -10 10 -10 7 0 7 -6 1 -17 -5 -10 -9 -22 -9 -28 -1 -24 -22 -14
-23 12 l-2 28 -4 -28 c-4 -26 -6 -27 -46 -21 -23 4 -49 14 -57 24 -16 18 -95
44 -109 36 -20 -13 -21 76 -1 141 11 36 20 74 20 84 0 10 7 19 15 19 8 0 15 5
15 11 0 5 -5 7 -11 4 -12 -8 -5 39 21 137 10 36 21 97 25 135 4 37 18 136 33
218 14 83 26 168 26 191 1 36 3 40 23 36 18 -3 25 3 38 34 9 22 18 50 19 64 1
26 32 77 41 69 2 -3 1 -19 -4 -35 -4 -16 -4 -40 1 -53 l8 -24 23 25 c31 33 33
91 4 82 -16 -5 -17 -3 -8 14 6 12 11 29 11 39 0 33 18 42 52 26 27 -14 31 -14
52 6 12 12 28 21 34 21 7 0 12 9 12 19 0 11 5 23 10 26 6 3 10 11 10 16 0 17
-21 -2 -32 -29 -9 -22 -12 -24 -15 -9 -3 10 -12 16 -21 15 -10 -2 -16 3 -14
11 1 7 -4 18 -13 25 -14 10 -14 14 5 34 11 12 27 22 35 22 8 0 19 9 25 19 19
36 85 36 160 -2z m2780 18 c0 -8 -4 -15 -10 -15 -5 0 -10 7 -10 15 0 8 5 15
10 15 6 0 10 -7 10 -15z m92 -850 c-1 -473 -1 -1024 0 -1225 3 -553 -2 -1178
-10 -1200 -8 -21 -12 206 -17 855 -1 237 -5 705 -9 1040 -6 512 -9 1186 -7
1353 1 39 3 43 24 40 l22 -3 -3 -860z m563 795 c0 -36 -3 -315 -7 -620 -3
-305 -9 -850 -13 -1210 -4 -360 -8 -729 -10 -820 -1 -91 -3 -263 -4 -382 -1
-209 -2 -218 -22 -228 -11 -7 -23 -9 -26 -6 -3 2 -5 53 -4 113 0 59 3 479 6
933 9 1479 16 2234 21 2263 5 24 10 28 32 25 26 -3 27 -5 27 -68z m91 -182
c-4 -134 -9 -367 -13 -518 -7 -305 -7 -299 -4 -355 7 -113 -11 -1655 -20
-1805 -6 -96 -10 -212 -10 -256 1 -61 -3 -85 -14 -94 -26 -21 -28 11 -13 245
1 17 0 107 -2 200 -2 94 -1 301 3 460 4 160 10 659 13 1110 4 451 8 843 8 870
1 28 3 125 4 218 l2 167 26 0 25 0 -5 -242z m-806 177 c0 -11 -8 -13 -29 -9
-28 6 -30 5 -35 -37 -3 -24 -7 -60 -8 -79 -3 -34 -4 -35 -48 -36 -25 0 -55 -6
-67 -12 -26 -14 -33 -15 -53 -2 -13 8 -12 11 5 24 20 15 20 15 0 16 -12 0 -26
5 -33 12 -14 14 -16 77 -2 112 l9 26 131 -1 c105 0 130 -3 130 -14z m66 -653
c1 -361 5 -979 9 -1373 4 -430 3 -719 -3 -723 -5 -3 -10 116 -11 292 -1 163
-6 601 -11 972 -12 842 -14 1475 -5 1490 4 6 10 9 13 5 3 -3 7 -302 8 -663z
m-62 -67 c4 -363 9 -687 11 -720 2 -33 7 -288 10 -566 6 -547 8 -520 -49 -535
l-29 -7 7 754 c11 1260 23 1758 41 1737 2 -2 6 -300 9 -663z m-2289 595 c4 -6
15 -8 25 -5 11 3 28 1 39 -5 20 -10 20 -11 1 -30 -11 -11 -20 -24 -20 -29 0
-11 -45 -28 -97 -36 -24 -4 -45 -11 -48 -16 -4 -5 -17 -1 -31 8 -14 9 -40 16
-59 15 -29 -1 -33 2 -31 23 0 14 4 25 9 25 4 0 7 9 7 20 0 14 9 21 38 25 20 4
42 8 47 10 24 8 114 4 120 -5z m-227 -18 c-10 -2 -18 -11 -18 -20 0 -11 -3
-13 -10 -6 -18 18 -1 43 23 36 18 -5 19 -7 5 -10z m-614 -37 c-4 -8 -8 -15
-10 -15 -2 0 -4 7 -4 15 0 8 4 15 10 15 5 0 7 -7 4 -15z m996 -16 c0 -5 -4 -9
-10 -9 -5 0 -10 7 -10 16 0 8 5 12 10 9 6 -3 10 -10 10 -16z m1125 -1 c6 1
121 4 258 8 l247 7 0 -36 0 -37 -62 0 c-68 -1 -222 -6 -413 -15 -156 -7 -179
-1 -183 48 l-3 37 73 -6 c40 -3 78 -6 83 -6z m803 -711 c-1 -386 1 -1023 5
-1414 5 -434 4 -713 -1 -713 -21 0 -27 85 -21 285 4 116 3 230 -1 255 -4 25
-9 198 -10 385 -2 187 -4 378 -6 425 -5 165 -4 1471 1 1480 3 5 12 7 20 4 13
-5 14 -104 13 -707z m119 689 c9 -9 9 -87 1 -676 -4 -278 -8 -779 -8 -1114 -1
-395 -4 -614 -11 -622 -7 -8 -7 -14 1 -19 15 -9 13 -152 -2 -158 -38 -12 -43
1 -45 121 -1 123 1 139 21 123 9 -8 13 -7 13 4 0 8 -9 15 -19 15 -19 0 -22 12
-9 45 4 11 4 35 0 55 -4 19 -11 130 -14 245 -8 253 -8 1972 0 1985 6 10 61 7
72 -4z m-3047 -33 c-1 -5 -10 -24 -21 -43 -19 -35 -20 -30 -3 33 5 16 24 25
24 10z m940 -39 c0 -2 -9 -4 -21 -4 -11 0 -18 4 -14 10 5 8 35 3 35 -6z m1466
-17 c7 -11 -17 -142 -27 -148 -27 -17 -171 -18 -176 -1 -3 8 10 12 46 12 54 0
70 10 46 30 -11 9 -22 9 -46 1 -18 -6 -35 -11 -39 -11 -9 0 -21 111 -13 123 4
7 204 1 209 -6z m-245 -159 c0 -90 2 -244 5 -343 2 -99 5 -345 6 -547 l2 -367
-41 -36 c-40 -34 -93 -114 -93 -141 0 -7 -12 -27 -27 -43 -16 -16 -40 -47 -55
-69 -18 -26 -37 -41 -55 -44 -16 -3 -34 -7 -41 -9 -10 -3 -12 78 -12 401 1
572 15 1219 28 1232 4 4 34 8 67 8 104 3 155 11 155 26 0 8 5 14 11 14 8 0 9
13 5 40 -6 38 -5 40 19 40 l25 0 1 -162z m-85 139 c1 -1 4 -14 7 -28 l7 -26
-108 -8 c-88 -6 -348 -9 -575 -6 l-48 1 3 33 3 32 95 3 c52 1 98 4 102 5 9 2
512 -4 514 -6z m-351 -97 c8 0 23 -10 35 -22 17 -18 20 -19 20 -5 0 11 8 17
23 17 22 0 23 -3 19 -62 -2 -35 -6 -64 -7 -66 -1 -2 -32 -8 -68 -13 -48 -8
-72 -7 -87 1 -33 18 -9 34 58 40 49 4 57 8 60 26 3 21 3 21 -52 6 -69 -19 -86
-13 -86 33 0 28 5 38 23 45 12 5 28 7 35 4 8 -2 20 -4 27 -4z m510 -79 c23 -9
21 58 24 -664 2 -506 1 -527 -34 -527 -9 0 -13 102 -18 428 -9 556 -9 772 1
771 4 0 16 -4 27 -8z m-1005 -97 c0 -16 -16 -19 -25 -4 -8 13 4 32 16 25 5 -4
9 -13 9 -21z m460 -96 c4 -664 4 -1605 1 -1596 -2 7 -12 22 -22 34 -18 19 -19
57 -25 821 -4 441 -4 809 -1 817 4 9 16 16 27 16 19 0 20 -6 20 -92z m-972 58
c-4 -17 -1 -23 9 -19 7 3 13 11 13 19 0 8 7 14 15 14 8 0 15 -4 15 -8 0 -16
-79 -72 -100 -72 -21 0 -21 1 4 31 14 17 26 37 26 45 0 8 5 14 11 14 7 0 9
-10 7 -24z m1100 -73 c-1 -54 -1 -188 0 -298 1 -110 0 -344 -3 -520 -2 -176
-4 -370 -5 -431 0 -117 -11 -151 -43 -138 -20 7 -22 25 -5 42 9 9 8 12 -4 12
-22 0 -29 24 -22 70 6 36 8 38 31 29 19 -7 24 -6 21 3 -3 7 -13 15 -24 17 -29
5 -32 16 -33 114 -1 64 2 93 11 99 11 6 11 10 0 16 -10 7 -12 120 -11 538 1
291 3 532 6 537 2 4 22 7 43 7 l38 0 0 -97z m-873 67 c-3 -5 -11 -10 -16 -10
-6 0 -7 5 -4 10 3 6 11 10 16 10 6 0 7 -4 4 -10z m125 -5 c0 -8 -4 -15 -9 -15
-13 0 -22 16 -14 24 11 11 23 6 23 -9z m-220 -39 c0 -13 -7 -29 -15 -36 -9 -7
-13 -21 -10 -31 3 -10 -1 -31 -9 -48 -10 -19 -12 -32 -6 -36 6 -3 10 -10 10
-15 0 -13 -32 -21 -44 -11 -9 7 -18 4 -30 -11 -14 -16 -20 -18 -26 -7 -11 17
-3 29 19 29 29 0 72 46 67 72 -3 13 -5 26 -5 31 -2 13 -21 7 -38 -13 -10 -11
-22 -20 -27 -20 -5 0 -17 -7 -26 -15 -13 -12 -16 -27 -12 -62 4 -42 2 -48 -30
-77 -20 -18 -41 -42 -47 -54 -6 -12 -18 -22 -26 -22 -16 0 -20 12 -8 24 4 3 8
16 10 29 2 12 8 26 13 31 6 6 10 20 10 33 0 37 28 96 41 87 9 -5 10 -2 6 9 -3
10 -2 17 4 17 5 0 15 11 21 25 7 15 17 24 25 21 8 -3 13 0 12 7 -3 17 11 47
22 47 5 0 9 -9 9 -20 0 -31 25 -24 51 14 25 37 39 38 39 2z m400 22 c0 -7 3
-23 6 -35 8 -30 -22 -43 -40 -17 -12 15 -11 22 1 41 17 25 33 30 33 11z m-71
-32 c14 -17 -5 -56 -26 -56 -20 0 -15 30 5 31 10 0 12 3 5 6 -15 5 -18 33 -4
33 5 0 14 -6 20 -14z m-199 -31 c-15 -18 -40 -20 -40 -4 0 7 8 18 18 25 22 16
40 1 22 -21z m140 1 c0 -2 -7 -9 -15 -16 -12 -10 -15 -10 -15 4 0 9 7 16 15
16 8 0 15 -2 15 -4z m-241 -58 c-1 -13 2 -31 6 -41 6 -13 4 -16 -9 -11 -9 3
-13 10 -10 15 8 13 -10 11 -23 -2 -11 -11 -10 6 3 49 6 22 34 14 33 -10z m321
-24 c0 -8 -6 -14 -12 -14 -23 0 -39 -16 -32 -33 3 -9 15 -17 25 -17 13 0 19
-7 19 -22 0 -17 -3 -19 -12 -10 -7 7 -25 12 -40 12 -21 0 -28 -5 -28 -20 0
-11 6 -20 13 -20 6 0 3 -6 -8 -12 -29 -16 -29 -16 -15 -33 7 -8 28 -15 47 -15
28 0 34 -4 31 -17 -2 -11 -12 -17 -23 -16 -35 4 -75 -8 -75 -23 0 -16 18 -25
55 -28 17 -1 25 -7 25 -19 0 -15 -8 -17 -52 -15 -47 3 -53 1 -53 -17 0 -11 -8
-27 -19 -36 -18 -14 -18 -16 -1 -33 17 -16 17 -18 -1 -31 -25 -18 -9 -34 38
-37 34 -3 35 -4 26 -28 -5 -14 -15 -32 -23 -40 -7 -8 -15 -26 -17 -40 -2 -15
-14 -30 -30 -38 -34 -16 -35 -29 -4 -43 13 -6 30 -25 38 -42 l15 -32 -41 -10
c-56 -14 -57 -41 -1 -38 35 1 37 0 18 -9 -26 -13 -31 -46 -8 -54 14 -6 13 -8
-1 -19 -22 -15 -8 -38 18 -32 14 4 22 0 25 -14 3 -10 11 -19 17 -19 35 0 95
-112 74 -137 -9 -11 -7 -15 10 -20 l21 -5 -24 -33 c-31 -40 -33 -75 -5 -75 25
0 25 -16 0 -64 -21 -43 -19 -56 10 -56 21 0 20 -8 -7 -67 -7 -18 -16 -33 -19
-33 -3 0 -2 5 1 10 10 16 -15 40 -41 40 -32 0 -33 -43 -2 -64 18 -13 19 -16 6
-16 -24 0 -36 27 -39 90 -3 44 0 56 13 58 17 3 28 29 21 50 -6 15 -45 16 -59
2 -8 -8 -15 -6 -23 4 -11 13 -10 18 4 32 21 22 15 48 -13 52 -16 2 -22 -2 -22
-15 -1 -17 -1 -17 -15 0 -12 17 -10 22 17 46 34 30 31 57 -5 47 -15 -4 -17 -2
-8 7 15 15 14 37 -3 37 -7 0 -16 9 -19 20 -4 15 -10 18 -24 13 -10 -3 -15 -2
-10 2 4 5 -3 19 -15 32 l-21 23 32 0 c27 0 34 -5 42 -30 12 -34 21 -37 39 -15
10 12 10 21 1 41 -6 14 -9 30 -5 35 8 14 -5 46 -21 53 -22 8 -47 -4 -41 -20 3
-8 -1 -14 -10 -14 -8 0 -19 11 -24 25 -5 14 -16 25 -24 25 -27 0 -35 31 -24
95 8 43 8 72 -1 103 -13 50 -14 102 -2 121 13 20 2 41 -19 41 -28 0 -44 -52
-34 -108 9 -53 10 -170 0 -179 -16 -16 -21 18 -19 129 3 129 14 182 42 198 42
22 71 169 41 205 -5 6 2 11 21 12 30 2 30 2 23 -42 -5 -37 -3 -46 11 -51 25
-10 35 7 39 62 2 27 4 53 5 57 0 5 31 39 69 75 37 37 80 84 96 104 27 37 46
42 46 12z m-390 -138 c0 -19 -38 -46 -55 -40 -12 5 -47 -33 -41 -45 1 -3 -10
-19 -25 -35 -23 -24 -29 -27 -34 -14 -6 15 42 98 57 98 5 0 26 11 46 25 42 29
52 31 52 11z m12 -133 c-5 -10 -16 -31 -25 -48 -8 -16 -20 -55 -26 -85 -6 -30
-18 -82 -26 -115 -10 -42 -13 -95 -11 -175 5 -129 21 -186 67 -235 16 -17 29
-39 29 -48 0 -10 14 -23 34 -31 26 -11 37 -24 49 -61 17 -49 70 -144 113 -204
15 -21 24 -48 24 -71 0 -58 19 -99 58 -125 l36 -25 26 25 c33 31 48 32 60 0 5
-13 22 -43 37 -66 15 -22 35 -63 44 -90 l17 -49 -27 -16 c-35 -21 -65 -67 -86
-130 -13 -42 -15 -66 -8 -128 5 -42 7 -79 4 -83 -9 -13 -50 -33 -64 -33 -21 0
-104 -66 -119 -94 -7 -14 -27 -49 -43 -78 -17 -30 -36 -68 -43 -86 -7 -18 -17
-46 -23 -63 -7 -18 -17 -28 -25 -25 -12 5 -270 -81 -312 -103 -9 -5 -20 -9
-25 -9 -13 -1 -171 -54 -182 -62 -9 -7 -103 -40 -113 -40 -9 0 9 105 28 168
12 39 35 81 59 110 40 47 81 158 81 216 0 15 5 36 10 47 13 23 50 175 57 234
7 50 33 75 106 100 42 14 59 25 63 41 9 37 -3 164 -25 259 -11 50 -25 151 -31
225 -18 227 -28 309 -43 342 -8 18 -20 59 -28 91 -11 54 -11 65 10 135 13 42
25 87 27 99 5 28 18 62 51 135 20 45 35 63 68 83 24 13 54 38 67 54 21 25 55
43 66 35 2 -1 -1 -10 -6 -21z m-268 -8 c-4 -8 -10 -15 -15 -15 -4 0 -6 7 -3
15 4 8 10 15 15 15 4 0 6 -7 3 -15z m582 -75 c8 0 14 -5 14 -11 0 -12 -40 -2
-55 14 -7 7 -4 8 8 3 10 -3 25 -6 33 -6z m-661 -280 c3 -5 1 -10 -4 -10 -6 0
-11 5 -11 10 0 6 2 10 4 10 3 0 8 -4 11 -10z m-684 -97 c-15 -50 -21 -58 -44
-61 -19 -2 -27 1 -27 12 0 9 7 16 15 16 18 0 20 26 3 33 -13 5 -6 8 37 22 8 2
12 11 9 20 -4 9 -1 15 9 15 13 0 13 -7 -2 -57z m141 -4 c-2 -24 -8 -61 -13
-83 -12 -45 5 -134 27 -143 9 -3 12 -13 9 -24 -7 -22 10 -26 22 -4 5 8 21 16
35 17 26 2 26 3 10 21 -9 10 -24 16 -34 14 -10 -3 -18 0 -18 7 0 8 12 11 35 8
26 -3 36 0 41 13 4 10 1 21 -7 26 -11 7 -11 9 4 9 9 0 17 7 17 15 0 8 -5 15
-12 15 -7 0 -5 7 5 18 8 9 19 29 22 44 6 24 3 29 -20 38 -15 6 -25 13 -22 17
4 3 23 -2 44 -12 36 -17 106 -27 181 -26 19 1 41 -3 50 -9 16 -9 16 -9 0 -10
-18 0 -44 -37 -34 -48 3 -3 6 0 6 6 0 9 6 9 24 0 l25 -11 -21 -28 c-21 -28
-21 -28 -3 -141 9 -62 25 -144 35 -183 10 -38 24 -104 31 -145 7 -41 18 -81
25 -87 21 -22 34 -181 22 -273 -3 -24 -6 -25 -63 -25 -33 0 -67 3 -75 5 -9 3
-21 -8 -32 -30 -28 -57 -34 -60 -106 -60 -88 0 -142 10 -142 25 0 7 -7 18 -15
25 -23 19 -20 54 4 47 10 -2 25 -1 32 4 19 12 0 29 -37 33 -17 2 -30 10 -32
19 -3 14 4 15 47 10 42 -5 52 -3 57 11 8 20 -4 35 -15 18 -5 -9 -12 -9 -27 3
-10 8 -29 15 -41 15 -13 0 -23 5 -23 11 0 6 11 8 29 4 23 -5 29 -2 34 15 3 11
1 18 -3 15 -5 -3 -11 -1 -15 5 -3 5 -15 10 -26 10 -14 0 -19 7 -19 25 0 15 5
25 13 24 30 -4 47 2 47 16 0 8 -9 15 -20 15 -11 0 -20 5 -20 10 0 6 9 10 21
10 30 0 18 24 -14 28 -21 3 -27 9 -27 28 0 21 5 24 34 24 19 0 38 5 41 10 7
12 -43 33 -62 26 -8 -3 -13 2 -13 14 0 16 7 20 30 20 17 0 30 5 30 10 0 19
-24 37 -42 32 -12 -3 -18 1 -18 11 0 11 9 15 30 15 42 -1 61 19 36 37 -16 12
-17 17 -6 30 17 20 -3 45 -36 45 -18 0 -23 6 -26 31 -2 22 -10 34 -25 40 -22
8 -23 6 -23 -46 0 -29 -4 -57 -10 -60 -5 -3 -10 -11 -10 -16 0 -6 5 -7 10 -4
6 4 10 -8 10 -29 0 -20 -4 -36 -10 -36 -5 0 -10 -12 -9 -27 0 -25 1 -26 9 -8
6 13 9 -27 9 -110 0 -71 2 -185 4 -252 3 -68 2 -123 -2 -123 -29 1 -51 16 -56
39 -11 50 -18 248 -19 528 -1 260 0 283 16 283 12 0 19 11 23 38 4 20 13 54
21 75 8 20 14 48 14 61 0 26 9 38 24 33 6 -2 9 -23 8 -48z m465 -60 c5 -5 25
-18 44 -27 21 -11 41 -32 54 -59 11 -24 25 -43 32 -43 16 0 21 -38 27 -210 5
-138 4 -143 -9 -95 -8 28 -15 62 -15 77 0 30 -15 97 -36 167 -8 25 -14 61 -14
81 0 39 -14 60 -41 60 -34 0 -41 -25 -20 -72 25 -55 38 -102 45 -156 3 -24 8
-47 11 -53 4 -5 3 -9 -2 -9 -9 0 -33 48 -33 66 0 18 -24 34 -38 25 -11 -6 -9
-24 7 -87 20 -81 25 -117 21 -169 l-2 -30 -8 30 c-36 134 -60 240 -65 296 -6
59 -5 67 11 73 18 7 18 8 0 22 -18 12 -18 14 -3 14 25 0 34 30 13 45 -15 12
-15 13 0 19 15 6 15 8 -1 26 -14 16 -15 20 -4 20 8 0 20 -5 26 -11z m-691 -57
c-11 -10 -15 4 -8 28 l7 25 3 -23 c2 -13 1 -26 -2 -30z m297 31 c-7 -2 -19 -2
-25 0 -7 3 -2 5 12 5 14 0 19 -2 13 -5z m881 -84 c-9 -15 -26 -10 -51 13 -22
20 -30 57 -17 71 9 9 75 -73 68 -84z m226 81 c0 -5 -8 -10 -17 -10 -15 0 -16
2 -3 10 19 12 20 12 20 0z m-1346 -45 c-3 -8 1 -24 10 -37 21 -30 20 -54 -4
-78 -24 -24 -26 -50 -5 -50 8 0 15 -4 15 -10 0 -9 -20 -13 -37 -7 -9 3 -14 88
-7 107 4 8 8 26 10 39 4 29 12 51 18 51 3 0 3 -7 0 -15z m-73 -52 c-6 -21 -11
-93 -11 -160 0 -71 -4 -123 -10 -123 -5 0 -7 -20 -3 -49 3 -31 1 -51 -6 -55
-7 -4 -11 1 -11 13 0 11 -5 23 -11 27 -7 4 -9 24 -4 58 3 28 9 83 12 121 2 39
9 74 14 80 5 5 9 20 9 35 0 31 20 104 26 97 3 -3 1 -22 -5 -44z m2812 21 c47
-28 90 -73 116 -124 17 -32 31 -63 31 -67 0 -5 -14 -10 -31 -11 -43 -3 -45 -6
-53 -54 -7 -44 -44 -118 -58 -118 -5 0 1 14 14 30 16 22 19 33 11 41 -17 17
-39 5 -54 -30 -17 -37 -42 -43 -33 -7 4 18 1 25 -14 28 -28 8 -43 -4 -45 -38
-2 -18 -9 -30 -20 -32 -15 -3 -16 0 -6 25 15 38 19 73 8 73 -5 0 -9 -9 -9 -20
0 -13 -7 -20 -20 -20 -21 0 -55 -62 -38 -69 5 -2 13 -14 18 -27 9 -23 38 -32
54 -17 3 4 23 12 44 20 48 16 101 3 154 -39 34 -28 38 -36 38 -77 1 -44 17
-81 36 -81 5 0 10 -18 11 -41 2 -66 33 -208 64 -298 27 -76 31 -117 9 -81 -15
25 -22 3 -11 -37 14 -49 14 -157 0 -225 -12 -60 -39 -136 -79 -223 -30 -66
-114 -185 -130 -185 -13 0 -13 -27 0 -35 17 -10 116 104 159 185 49 93 97 233
109 321 9 63 9 64 21 34 10 -23 11 -48 2 -114 -8 -62 -8 -88 1 -98 17 -21 36
2 48 64 7 30 15 51 19 47 4 -5 20 -37 34 -70 37 -84 37 -170 1 -237 -26 -51
-25 -91 3 -85 9 2 21 17 27 35 15 44 24 50 41 27 17 -22 19 -77 5 -104 -7 -13
-6 -19 5 -24 8 -3 15 -1 15 4 0 6 4 10 9 10 5 0 8 -11 7 -26 -1 -18 -6 -24
-17 -21 -13 4 -17 -2 -16 -29 1 -36 6 -41 24 -23 7 7 9 3 6 -15 -6 -32 -10
-32 -34 -3 -19 23 -19 23 -23 -28 -1 -20 -7 -22 -37 -10 -12 4 -23 -4 -39 -29
-20 -33 -26 -38 -47 -35 -3 0 -10 -6 -15 -14 -4 -8 -26 -18 -48 -22 -22 -4
-42 -11 -46 -16 -10 -17 -75 -39 -133 -46 -31 -3 -73 -12 -95 -20 -21 -7 -71
-13 -110 -13 -75 0 -101 -9 -94 -31 7 -20 -40 -42 -269 -128 -45 -17 -91 -31
-101 -31 -23 0 -42 65 -49 173 -3 42 -10 77 -14 77 -12 0 -2 64 11 68 6 2 18
11 26 20 15 15 16 13 10 -19 -3 -19 -3 -27 1 -19 3 8 10 18 16 21 5 4 6 21 2
38 -6 30 -8 31 -24 17 -25 -23 -41 -20 -41 9 0 16 -6 25 -15 25 -8 0 -15 -4
-15 -10 0 -5 4 -10 9 -10 5 0 9 -11 9 -25 0 -37 -15 -31 -29 12 -9 28 -9 38 0
41 6 2 11 8 11 14 0 6 -7 8 -14 5 -16 -7 -21 4 -35 76 -5 26 -5 47 0 47 5 0 9
12 9 26 0 21 -3 24 -14 15 -11 -9 -15 -7 -18 7 -3 11 -1 27 4 36 7 12 5 16 -8
16 -16 0 -16 1 -1 18 10 10 17 27 17 37 0 15 -2 16 -17 4 -15 -12 -16 -12 -11
3 4 9 1 18 -6 21 -17 7 -28 47 -13 47 7 0 5 5 -4 10 -9 5 -23 42 -33 87 -10
43 -23 89 -29 103 -5 14 -11 36 -12 50 -1 14 -10 57 -18 95 -15 64 -15 76 -1
125 19 66 35 136 39 170 2 14 10 43 19 65 8 22 15 52 16 68 0 43 48 127 68
120 11 -3 13 -2 6 4 -22 16 -26 51 -7 70 10 10 17 26 15 35 -3 17 14 32 38 33
8 0 15 8 15 18 0 29 45 57 91 57 29 0 44 5 48 16 3 8 10 13 15 10 5 -4 19 7
31 24 12 16 27 30 35 30 7 0 18 22 26 52 32 135 70 181 204 249 34 17 53 19
123 15 46 -3 89 -9 95 -12z m-2729 -209 c-1 -17 -3 -61 -4 -100 -2 -38 0 -78
4 -87 6 -12 2 -17 -15 -20 -29 -4 -38 -28 -10 -28 12 0 21 -6 21 -15 0 -8 -7
-15 -15 -15 -8 0 -15 -7 -15 -15 0 -8 9 -15 20 -15 11 0 20 -6 20 -14 0 -8 -9
-18 -20 -21 -11 -3 -20 -11 -20 -17 0 -5 9 -12 20 -15 13 -3 20 -14 20 -29 0
-21 -3 -22 -24 -14 -13 5 -26 6 -30 3 -11 -11 14 -42 36 -45 15 -2 24 -11 26
-26 3 -21 1 -22 -18 -12 -11 6 -30 8 -42 4 -20 -6 -20 -6 -13 197 10 287 14
323 43 317 12 -2 17 -13 16 -33z m200 -56 c-3 -5 -10 -7 -15 -3 -5 3 -7 10 -3
15 3 5 10 7 15 3 5 -3 7 -10 3 -15z m532 -149 c6 -74 17 -179 23 -234 12 -94
12 -99 -8 -120 -12 -12 -21 -34 -21 -49 0 -15 -5 -27 -10 -27 -18 0 -28 43
-17 74 13 37 2 189 -17 243 -12 34 -12 41 -1 37 7 -3 16 0 20 6 9 14 10 165 1
210 -6 31 -5 33 6 15 7 -11 18 -81 24 -155z m2104 75 c-7 -24 -9 -48 -5 -54
11 -19 44 7 54 42 9 32 9 32 10 4 1 -15 -3 -35 -8 -45 -5 -9 -12 -25 -15 -35
-5 -17 -9 -16 -43 10 -21 15 -40 28 -41 29 -2 1 8 20 22 41 14 20 26 47 27 58
0 12 3 15 6 7 3 -8 0 -33 -7 -57z m-1350 21 c0 -3 -4 -8 -10 -11 -5 -3 -10 -1
-10 4 0 6 5 11 10 11 6 0 10 -2 10 -4z m69 -75 c25 -49 43 -62 88 -68 21 -3
47 -13 58 -23 11 -9 55 -34 98 -53 66 -31 77 -40 77 -62 0 -14 -3 -25 -6 -25
-4 0 -24 18 -46 40 -45 44 -75 58 -92 40 -8 -9 -5 -16 14 -31 115 -92 149
-133 134 -167 -5 -13 -9 -10 -15 15 -9 32 -98 113 -125 113 -25 0 -28 -24 -3
-39 42 -27 94 -79 87 -86 -4 -4 -31 9 -62 30 -57 37 -106 49 -113 27 -3 -7 10
-19 29 -28 103 -47 148 -95 131 -140 -7 -19 -23 -8 -23 17 0 31 -34 56 -100
75 -48 13 -66 24 -84 50 -12 18 -34 43 -49 54 -15 12 -27 27 -27 35 0 7 -7 18
-15 25 -13 11 -13 16 -2 34 15 23 12 46 -7 46 -15 0 -14 104 2 143 14 34 26
29 51 -22z m-762 -58 c-2 -16 -4 -5 -4 22 0 28 2 40 4 28 2 -13 2 -35 0 -50z
m-907 -40 c-11 -17 -11 -17 -6 0 3 10 7 28 7 40 2 22 2 22 6 0 2 -12 -1 -30
-7 -40z m938 -83 c11 -41 23 -107 27 -147 l7 -72 -41 -20 c-53 -28 -56 -27
-29 10 26 35 30 103 14 239 -4 41 -6 73 -3 70 2 -3 14 -39 25 -80z m-941 28
c-3 -8 -6 -5 -6 6 -1 11 2 17 5 13 3 -3 4 -12 1 -19z m4336 -15 c-7 -18 -22
-33 -35 -33 -16 0 -7 39 10 43 30 8 32 7 25 -10z m-4336 -85 c-3 -8 -6 -5 -6
6 -1 11 2 17 5 13 3 -3 4 -12 1 -19z m4053 -38 c-7 -13 -18 -19 -26 -16 -8 3
-14 1 -14 -4 0 -5 -10 -14 -21 -21 -17 -9 -23 -8 -30 2 -7 11 -9 10 -9 -3 0
-10 -4 -18 -10 -18 -5 0 -10 9 -10 21 0 13 10 23 28 30 15 5 44 17 63 27 38
19 46 14 29 -18z m-4051 -47 c-1 -32 0 -63 2 -69 2 -7 0 -14 -6 -15 -15 -6
-23 59 -13 101 6 22 12 40 14 40 2 0 3 -26 3 -57z m131 -14 c0 -16 -5 -18 -25
-13 -15 4 -32 1 -40 -6 -13 -11 -15 -8 -15 17 0 27 2 28 40 25 31 -3 40 -8 40
-23z m-3 -66 c5 -15 -18 -22 -44 -12 -37 13 -29 38 9 30 17 -4 33 -11 35 -18z
m3617 19 c2 -4 1 -14 -5 -22 -5 -8 -9 -11 -9 -7 0 5 -10 1 -22 -7 -28 -20 -38
-20 -38 -2 0 25 62 57 74 38z m-2054 -95 c0 -16 -4 -26 -10 -22 -5 3 -10 -1
-10 -11 0 -13 -3 -14 -14 -5 -10 8 -16 9 -21 1 -3 -5 -2 -10 3 -10 5 0 17 -16
27 -36 12 -26 22 -35 35 -31 13 3 19 -2 23 -19 4 -22 -1 -28 -20 -21 -5 1 -7
5 -5 10 1 4 -2 7 -8 7 -15 0 -12 -26 6 -41 13 -10 17 -10 24 1 8 12 10 12 14
0 2 -8 7 -23 10 -32 7 -22 -2 -23 -24 -3 -15 14 -19 14 -31 -1 -12 -15 -11
-16 9 -10 14 5 22 3 22 -4 0 -6 -12 -10 -27 -8 -21 2 -29 9 -31 28 -2 14 -10
29 -18 33 -8 4 -14 17 -14 28 0 12 4 17 11 14 7 -5 9 6 7 31 -2 22 -7 37 -13
34 -5 -3 -9 -10 -7 -17 4 -17 -14 -25 -26 -10 -13 15 15 102 43 135 18 21 21
21 32 5 7 -9 13 -30 13 -46z m1793 -17 c-4 -4 -18 -11 -30 -15 -35 -10 -31 30
5 47 24 12 27 12 30 -5 2 -11 0 -23 -5 -27z m474 28 c-3 -8 -6 -5 -6 6 -1 11
2 17 5 13 3 -3 4 -12 1 -19z m-3167 -3 c11 -14 10 -30 -9 -103 -12 -48 -24
-100 -26 -117 -22 -138 -64 -303 -80 -309 -7 -2 -38 -38 -68 -79 -63 -85 -149
-174 -193 -200 -7 -4 -38 11 -70 32 -63 41 -118 63 -168 65 -50 2 -45 34 14
105 56 67 126 117 178 127 17 3 32 11 32 16 0 17 -21 49 -29 44 -4 -3 -7 63
-7 147 1 84 -2 164 -6 178 l-8 27 93 -1 c109 -1 170 16 175 50 4 25 12 27 98
31 46 2 64 -1 74 -13z m913 -65 c3 -11 1 -18 -4 -14 -5 3 -9 12 -9 20 0 20 7
17 13 -6z m228 -37 c-9 -16 -10 -16 -11 -1 0 9 3 25 7 35 7 16 8 17 11 1 2
-10 -1 -25 -7 -35z m1279 10 c0 -17 -17 -32 -43 -42 -16 -6 -26 -7 -22 -2 3 5
0 13 -7 17 -8 5 -3 12 17 20 34 15 55 17 55 7z m250 -38 l-8 -40 -1 36 c0 20
2 39 6 42 11 11 11 4 3 -38z m417 -87 c-3 -7 -5 -2 -5 12 0 14 2 19 5 13 2 -7
2 -19 0 -25z m-328 -120 c0 -96 -3 -126 -10 -109 -11 28 -11 144 0 231 0 6 3
10 6 10 3 0 5 -60 4 -132z m-169 10 c0 -70 -3 -98 -12 -98 -9 0 -9 -3 0 -12 7
-7 12 -25 12 -40 0 -23 -4 -28 -25 -28 -28 0 -26 -8 -27 155 0 123 0 120 27
120 25 0 25 -1 25 -97z m497 55 c-3 -10 -5 -4 -5 12 0 17 2 24 5 18 2 -7 2
-21 0 -30z m-2204 -22 c22 -9 34 -8 57 4 29 15 30 15 36 -12 3 -16 15 -62 26
-103 43 -163 45 -176 28 -165 -6 4 -8 11 -5 16 4 5 1 9 -4 9 -20 0 -11 -32 9
-37 11 -3 20 -8 20 -12 0 -3 3 -17 7 -30 4 -16 3 -22 -5 -17 -6 3 -13 -2 -16
-11 -12 -43 -18 -89 -18 -127 1 -24 -2 -35 -7 -27 -5 7 -12 13 -17 14 -5 1 -7
7 -6 12 2 6 1 7 -3 3 -4 -3 -20 -2 -37 4 -22 8 -26 13 -16 19 7 5 8 9 2 9 -6
0 -14 -3 -18 -7 -11 -11 -186 -10 -186 2 0 5 -7 -1 -16 -13 -9 -13 -13 -29
-10 -37 3 -9 0 -12 -10 -8 -8 3 -14 -1 -14 -8 0 -10 -3 -10 -12 -1 -9 9 -14 7
-24 -6 -8 -10 -13 -12 -14 -4 0 6 -5 12 -10 12 -6 0 -9 -5 -8 -11 2 -6 -5 -13
-15 -14 -14 -3 -18 1 -14 16 3 10 1 19 -3 19 -12 0 -4 84 8 88 6 2 8 10 5 18
-3 9 1 14 13 14 14 0 15 3 6 8 -18 12 -4 67 25 99 14 14 34 46 44 70 10 24 22
43 26 42 18 -4 74 14 64 21 -7 4 1 15 20 29 26 19 33 20 46 9 14 -11 16 -11
10 4 -6 17 24 35 41 24 5 -3 14 6 21 21 6 14 10 26 9 27 -2 0 -14 7 -28 15
-14 7 -22 10 -18 6 4 -5 3 -14 -3 -22 -13 -15 -33 -18 -24 -3 3 6 4 19 0 29
-5 17 -9 18 -50 5 -46 -13 -62 -5 -24 12 26 12 76 10 112 -5z m-194 -58 c-35
-32 -40 -40 -35 -71 3 -29 -1 -40 -24 -64 -16 -15 -24 -28 -19 -28 5 0 9 -4 9
-10 0 -12 -10 -13 -29 -1 -11 7 -11 15 -1 46 11 33 15 36 39 31 14 -4 21 -3
15 1 -12 8 -17 32 -15 65 1 12 6 15 18 11 11 -4 14 -3 9 5 -4 7 -1 12 9 12 9
0 14 4 10 9 -6 10 22 30 43 31 6 0 -6 -17 -29 -37z m76 -22 c-3 -6 -11 -11
-17 -11 -6 0 -6 6 2 15 14 17 26 13 15 -4z m-44 -34 c-8 -8 -11 -7 -11 4 0 9
3 19 7 23 4 4 9 2 11 -4 3 -7 -1 -17 -7 -23z m2036 -109 c-3 -7 -5 -2 -5 12 0
14 2 19 5 13 2 -7 2 -19 0 -25z m264 -271 c-15 -37 -27 171 -13 253 5 34 8 10
12 -100 3 -80 3 -149 1 -153z m-2444 216 c-3 -10 -5 -4 -5 12 0 17 2 24 5 18
2 -7 2 -21 0 -30z m2180 -25 c-2 -13 -4 -3 -4 22 0 25 2 35 4 23 2 -13 2 -33
0 -45z m-47 -134 c0 -163 -1 -172 -20 -177 -16 -4 -18 -2 -10 13 13 25 13 27
-5 27 -8 0 -15 -8 -15 -17 0 -9 -7 -25 -16 -36 -15 -18 -15 -18 -10 5 3 14 1
30 -3 35 -12 16 -20 95 -10 98 5 2 6 13 3 25 -4 13 -10 20 -15 18 -4 -3 -5
-13 -2 -22 13 -33 -22 -6 -49 38 -20 33 -27 58 -27 100 -1 31 2 59 6 62 3 4
44 6 90 4 l83 -2 0 -171z m857 99 c-3 -10 -5 -2 -5 17 0 19 2 27 5 18 2 -10 2
-26 0 -35z m-50 -30 c-3 -10 -5 -2 -5 17 0 19 2 27 5 18 2 -10 2 -26 0 -35z
m-749 -70 c1 -67 -1 -93 -8 -83 -11 17 -14 194 -2 187 4 -3 8 -49 10 -104z
m717 56 c-7 -20 -8 -21 -17 -5 -5 9 -7 24 -4 33 10 26 29 -1 21 -28z m-3052
-6 c-7 -3 -13 -10 -13 -16 0 -12 -19 -19 -175 -73 -38 -14 -79 -29 -90 -34
-29 -15 -326 -110 -342 -110 -19 0 -16 20 5 26 9 3 31 12 47 19 17 7 55 21 85
30 30 10 60 22 67 27 7 6 17 7 22 3 6 -3 32 6 58 20 26 14 58 25 70 25 12 0
24 4 28 10 3 5 20 14 38 19 18 5 70 23 117 39 47 17 87 28 90 25 3 -3 -1 -8
-7 -10z m3007 -8 c0 -14 -4 -25 -10 -25 -5 0 -10 11 -10 25 0 14 5 25 10 25 6
0 10 -11 10 -25z m-50 -20 c0 -14 -4 -25 -10 -25 -11 0 -14 33 -3 43 11 11 13
8 13 -18z m-47 -37 c-2 -5 -8 -8 -14 -8 -11 0 -12 33 -2 44 8 8 23 -25 16 -36z
m-438 22 c-3 -5 -10 -10 -16 -10 -5 0 -9 5 -9 10 0 6 7 10 16 10 8 0 12 -4 9
-10z m-75 -10 c0 -5 -4 -10 -10 -10 -5 0 -10 5 -10 10 0 6 5 10 10 10 6 0 10
-4 10 -10z m460 -12 c0 -16 -3 -19 -11 -11 -6 6 -8 16 -5 22 11 17 16 13 16
-11z m196 -13 c2 -25 -10 -33 -20 -16 -7 10 3 41 13 41 3 0 7 -11 7 -25z
m-540 -10 c-4 -14 -2 -25 4 -25 22 0 8 -19 -21 -29 -18 -6 -34 -11 -35 -11 -9
0 -3 37 8 48 7 7 8 12 4 12 -5 0 -3 7 4 15 21 25 43 19 36 -10z m304 0 c0 -16
-6 -25 -15 -25 -15 0 -21 31 -8 43 13 14 23 6 23 -18z m181 -8 c-8 -8 -11 -7
-11 4 0 20 13 34 18 19 3 -7 -1 -17 -7 -23z m-3973 2 c13 -5 21 -13 18 -18 -4
-5 2 -7 11 -5 10 3 31 -6 47 -19 26 -21 26 -23 7 -23 -12 0 -21 4 -21 8 0 4
-15 8 -34 8 -19 0 -37 4 -40 9 -9 14 -60 20 -73 9 -6 -5 -9 -17 -6 -25 5 -13
1 -15 -23 -10 -45 8 -84 -3 -84 -24 0 -24 -15 -32 -30 -14 -18 21 8 85 40 97
64 25 131 27 188 7z m3372 -25 c0 -19 -4 -34 -10 -34 -5 0 -10 18 -10 41 0 24
4 38 10 34 6 -3 10 -22 10 -41z m710 -4 c0 -27 -4 -50 -9 -50 -9 0 -20 88 -12
96 14 14 21 -2 21 -46z m-342 18 c-4 -27 -28 -36 -28 -10 0 20 8 32 22 32 5 0
8 -10 6 -22z m-44 -22 c-3 -14 -10 -26 -15 -26 -14 0 -11 48 4 53 17 6 19 3
11 -27z m236 24 c0 -5 -4 -10 -10 -10 -5 0 -10 5 -10 10 0 6 5 10 10 10 6 0
10 -4 10 -10z m-40 -24 c0 -38 -12 -86 -21 -86 -10 0 -12 93 -2 103 13 14 23
6 23 -17z m-2250 -1 c0 -8 -2 -15 -4 -15 -2 0 -6 7 -10 15 -3 8 -1 15 4 15 6
0 10 -7 10 -15z m-223 -8 c41 -9 50 -14 41 -24 -9 -11 -5 -13 18 -12 44 3 76
-10 70 -29 -3 -9 -8 -43 -12 -75 -4 -35 -12 -61 -20 -64 -8 -3 -11 -9 -8 -14
14 -24 21 -67 12 -80 -8 -11 -8 -10 -4 4 4 12 2 17 -6 15 -7 -3 -13 -11 -13
-19 0 -20 -45 -38 -82 -32 -31 5 -37 13 -36 50 0 6 -5 14 -13 17 -10 4 -11 0
-4 -18 5 -13 7 -26 4 -28 -2 -3 2 -18 11 -34 8 -16 15 -25 15 -19 0 5 5 4 12
-3 8 -8 17 -6 36 8 27 22 54 28 34 8 -16 -16 -15 -29 2 -22 7 3 16 -1 19 -9 4
-11 -1 -14 -18 -13 -21 3 -22 1 -13 -20 6 -13 16 -20 24 -17 15 6 17 2 8 -20
-4 -12 -12 -13 -40 -4 -25 8 -37 8 -42 0 -5 -7 -11 -6 -20 3 -10 11 -10 14 0
14 7 1 -4 9 -26 20 -21 11 -43 18 -48 17 -6 -1 -13 4 -16 12 -3 10 2 12 22 7
29 -7 30 -7 16 28 -8 23 -14 26 -44 22 -20 -3 -43 2 -55 10 -19 14 -20 13 -14
-2 4 -11 3 -15 -4 -11 -6 4 -13 2 -15 -5 -3 -8 -7 -6 -11 5 -4 12 4 24 31 42
35 24 32 32 -14 26 -13 -1 -28 28 -19 37 3 3 5 0 5 -6 0 -16 17 -15 23 1 4 10
-3 13 -24 12 -27 -2 -30 1 -27 24 2 15 9 26 18 26 8 0 17 11 21 25 4 14 7 19
8 13 2 -23 17 -14 19 11 1 13 -5 29 -13 36 -28 24 -16 32 38 25 l54 -7 -5 30
c-3 21 -9 29 -18 25 -7 -2 -19 -1 -25 3 -9 5 -7 10 7 15 26 11 79 9 141 -4z
m2233 -6 c0 -10 -7 -24 -15 -31 -13 -10 -15 -9 -15 12 0 14 3 28 7 31 12 13
23 7 23 -12z m-50 -8 c0 -10 -4 -24 -9 -32 -7 -11 -10 -9 -16 8 -7 22 0 41 16
41 5 0 9 -8 9 -17z m-50 -33 c0 -20 -5 -30 -15 -30 -29 0 -18 50 13 59 1 1 2
-12 2 -29z m-249 -13 c-10 -9 -11 -8 -5 6 3 10 9 15 12 12 3 -3 0 -11 -7 -18z
m199 7 c0 -8 -5 -25 -12 -37 l-12 -22 -6 25 c-7 25 4 50 21 50 5 0 9 -7 9 -16z
m-2732 -18 c125 -24 240 -65 247 -87 4 -11 -3 -43 -13 -72 -16 -43 -18 -62
-11 -101 5 -26 11 -52 14 -57 8 -11 0 -12 -23 0 -9 5 -55 24 -102 41 -47 18
-89 37 -95 44 -5 6 -20 10 -31 8 -12 -2 -29 4 -38 13 -9 9 -20 14 -25 11 -12
-8 -61 14 -61 27 0 5 -7 7 -15 3 -18 -6 -92 21 -238 88 l-29 14 59 17 c32 10
96 30 143 46 47 16 96 27 110 24 14 -2 63 -11 108 -19z m3020 -43 c-2 -42 -8
-68 -15 -71 -10 -3 -13 15 -13 67 0 57 3 71 15 71 13 0 15 -12 13 -67z m-348
22 c0 -19 -4 -35 -10 -35 -11 0 -14 53 -3 63 11 12 13 8 13 -28z m294 -30 c4
-62 0 -85 -15 -85 -10 0 -12 73 -3 119 9 43 13 35 18 -34z m-334 16 c0 -37
-16 -49 -24 -18 -9 35 -7 47 9 47 10 0 15 -10 15 -29z m-50 -13 c0 -13 -4 -29
-9 -36 -6 -10 -10 -6 -14 15 -6 30 -2 43 14 43 5 0 9 -10 9 -22z m750 -3 c0
-14 -4 -25 -9 -25 -4 0 -6 11 -3 25 2 14 6 25 8 25 2 0 4 -11 4 -25z m-3000 5
c-18 -12 -30 -13 -30 -2 0 4 10 9 22 9 18 2 20 0 8 -7z m2490 -77 c0 -34 -5
-65 -10 -68 -7 -5 -10 21 -9 75 2 95 19 89 19 -7z m93 40 c-7 -71 -11 -75 -12
-10 -1 31 3 57 8 57 5 0 6 -21 4 -47z m-393 3 c0 -19 -4 -38 -10 -41 -5 -3
-10 -2 -10 3 0 5 -3 24 -6 41 -5 24 -3 31 10 31 12 0 16 -9 16 -34z m-2180 9
c0 -8 -7 -15 -16 -15 -14 0 -14 3 -4 15 7 8 14 15 16 15 2 0 4 -7 4 -15z
m2121 -68 c-8 -8 -11 1 -11 29 0 53 14 67 18 19 2 -21 -1 -42 -7 -48z m400
-30 c-8 -8 -11 5 -11 44 0 72 14 86 18 18 2 -28 -2 -57 -7 -62z m416 91 c-3
-8 -6 -5 -6 6 -1 11 2 17 5 13 3 -3 4 -12 1 -19z m-863 -47 c-8 -48 -22 -56
-17 -8 6 41 12 61 19 55 2 -3 2 -24 -2 -47z m-1556 -2 c-15 -10 -28 -2 -28 17
0 12 4 12 20 2 13 -8 16 -15 8 -19z m1920 -26 c-4 -81 -28 -85 -28 -4 0 48 3
61 15 61 13 0 15 -11 13 -57z m-2437 7 c6 0 9 -8 6 -17 -2 -10 2 -30 10 -45
10 -21 10 -28 0 -32 -6 -3 -2 -3 11 0 24 6 28 -6 11 -34 -8 -13 -20 -17 -40
-14 -16 2 -26 8 -23 13 8 13 -10 11 -24 -3 -9 -9 -12 -9 -12 0 0 7 4 12 8 12
12 0 52 39 52 50 0 6 -4 10 -10 10 -5 0 -10 -6 -10 -14 0 -8 -6 -16 -13 -19
-8 -3 -14 1 -14 9 0 8 5 14 11 14 5 0 2 6 -8 13 -11 8 -15 19 -10 30 9 23 24
22 24 -3 0 -11 4 -20 10 -20 6 0 6 9 0 24 -5 13 -6 34 -2 47 l7 24 3 -22 c2
-13 8 -23 13 -23z m-758 15 c8 -8 17 -12 19 -9 8 7 96 -24 173 -63 39 -19 131
-54 205 -79 74 -25 141 -51 150 -59 9 -8 19 -13 22 -10 3 3 41 -11 84 -31 116
-54 226 -94 237 -87 6 3 7 1 3 -5 -8 -13 29 -35 62 -37 13 0 27 -6 31 -13 4
-7 15 -10 24 -6 12 4 17 1 17 -11 0 -11 5 -15 15 -12 8 4 17 2 20 -3 4 -6 1
-10 -6 -10 -7 0 -9 -3 -6 -6 4 -4 14 -1 23 7 12 10 18 11 21 3 2 -7 12 -10 21
-7 22 5 107 -32 124 -55 7 -9 28 -17 46 -18 51 -2 66 -24 17 -24 -42 1 -94 23
-85 36 3 4 -14 9 -38 10 -23 1 -49 7 -56 13 -7 6 -20 9 -29 5 -8 -3 -18 -1
-22 5 -3 6 -14 11 -23 11 -10 0 -44 14 -75 30 -32 17 -65 30 -74 30 -8 0 -37
11 -63 24 -26 13 -63 27 -81 31 -19 4 -52 15 -74 24 -22 10 -59 24 -83 30 -23
7 -59 23 -79 36 -20 14 -45 25 -57 25 -12 0 -52 16 -90 35 -38 19 -85 38 -105
41 -20 4 -58 15 -86 24 -27 10 -62 21 -78 24 -15 4 -52 18 -82 32 -49 22 -55
28 -55 54 0 33 11 38 33 15z m2778 -48 c-8 -8 -11 -4 -11 14 0 33 14 47 18 19
2 -12 -1 -27 -7 -33z m309 29 c0 -8 -4 -18 -10 -21 -5 -3 -10 3 -10 14 0 12 5
21 10 21 6 0 10 -6 10 -14z m666 -14 c-3 -10 -6 -61 -7 -115 -2 -54 -7 -101
-12 -104 -7 -4 -8 27 -4 87 4 51 7 108 7 127 0 21 4 32 10 28 6 -4 9 -14 6
-23z m-613 -8 c6 -33 -2 -64 -17 -64 -7 0 -10 16 -8 45 4 50 17 59 25 19z
m297 -20 c0 -12 -7 -24 -15 -27 -17 -7 -27 5 -20 27 17 53 16 51 25 36 6 -8
10 -25 10 -36z m-3533 14 c-3 -8 -6 -5 -6 6 -1 11 2 17 5 13 3 -3 4 -12 1 -19z
m3087 -22 c7 -44 -2 -106 -15 -106 -10 0 -12 58 -3 113 8 45 10 44 18 -7z
m-244 27 c0 -5 -5 -15 -10 -23 -8 -12 -10 -11 -10 8 0 12 5 22 10 22 6 0 10
-3 10 -7z m956 -21 c-3 -10 -6 -61 -7 -114 -2 -54 -7 -103 -11 -110 -6 -8 -7
33 -4 97 3 61 6 120 6 133 0 14 4 20 10 17 6 -4 9 -14 6 -23z m-328 -192 c0
-119 -4 -210 -9 -210 -10 0 -10 3 -11 190 -2 152 3 230 13 230 4 0 7 -94 7
-210z m-678 185 c0 -8 -4 -15 -10 -15 -5 0 -10 7 -10 15 0 8 5 15 10 15 6 0
10 -7 10 -15z m960 -5 c0 -11 -4 -20 -10 -20 -5 0 -10 9 -10 20 0 11 5 20 10
20 6 0 10 -9 10 -20z m-4337 -10 c-5 -20 -23 -26 -36 -13 -9 8 12 33 28 33 8
0 11 -8 8 -20z m3323 -17 c-10 -10 -19 5 -10 18 6 11 8 11 12 0 2 -7 1 -15 -2
-18z m963 -133 c-1 -92 -6 -160 -11 -160 -9 0 -9 187 0 278 8 86 13 38 11
-118z m-675 108 c-2 -71 -7 -81 -14 -28 -4 30 -5 58 -3 63 9 16 18 -3 17 -35z
m-1621 11 c3 -13 1 -19 -6 -16 -15 5 -22 37 -9 37 5 0 12 -9 15 -21z m2020
-61 c-1 -40 -2 -99 -2 -130 -1 -33 -5 -58 -11 -58 -11 0 -13 212 -3 253 10 39
18 4 16 -65z m186 -28 c-1 -60 -6 -115 -11 -122 -9 -14 -9 141 -1 200 10 62
14 31 12 -78z m-2166 80 c3 -11 1 -18 -4 -14 -5 3 -9 12 -9 20 0 20 7 17 13
-6z m1693 -5 c3 -17 -12 -20 -21 -5 -7 12 4 34 13 25 3 -3 7 -12 8 -20z
m-3853 1 c3 -8 0 -19 -6 -24 -28 -22 -77 -41 -91 -36 -10 4 -16 1 -16 -7 0 -7
-3 -10 -6 -6 -15 14 11 50 49 67 52 23 63 24 70 6z m3637 -56 c0 -40 -4 -70
-10 -70 -6 0 -10 30 -10 70 0 40 4 70 10 70 6 0 10 -30 10 -70z m456 -88 c-5
-153 -2 -202 13 -202 4 0 12 21 18 48 l10 47 2 -41 c0 -23 -5 -54 -13 -69
l-14 -27 -21 21 c-19 19 -20 32 -20 178 1 144 8 203 25 203 3 0 4 -71 0 -158z
m147 128 c-3 -11 -9 -20 -14 -20 -10 0 -12 24 -2 33 13 13 21 7 16 -13z
m-2263 -5 c0 -8 -4 -15 -10 -15 -5 0 -7 7 -4 15 4 8 8 15 10 15 2 0 4 -7 4
-15z m-200 -5 c0 -5 -7 -10 -16 -10 -8 0 -12 5 -9 10 3 6 10 10 16 10 5 0 9
-4 9 -10z m2170 0 c0 -5 -5 -10 -11 -10 -5 0 -7 5 -4 10 3 6 8 10 11 10 2 0 4
-4 4 -10z m519 -82 c-3 -117 -9 -169 -20 -162 -7 4 -7 87 0 232 1 12 6 22 12
22 7 0 10 -32 8 -92z m-4364 15 c-3 -19 -12 -36 -19 -39 -6 -2 -36 6 -66 19
l-55 24 45 23 c93 48 108 43 95 -27z m3936 30 c-9 -16 -10 -14 -11 12 0 21 3
26 11 18 8 -8 8 -16 0 -30z m246 2 c1 -19 -3 -38 -8 -41 -5 -3 -9 13 -9 35 0
50 16 55 17 6z m-2562 15 c3 -5 1 -10 -4 -10 -6 0 -11 5 -11 10 0 6 2 10 4 10
3 0 8 -4 11 -10z m1545 0 c0 -5 -5 -10 -11 -10 -5 0 -7 5 -4 10 3 6 8 10 11
10 2 0 4 -4 4 -10z m426 -46 c-3 -9 -10 -12 -16 -9 -14 9 -12 53 3 58 13 4 22
-26 13 -49z m-2110 31 c7 17 8 17 21 -1 18 -24 17 -55 -1 -48 -8 3 -12 12 -9
20 3 8 1 14 -5 14 -6 0 -12 -5 -14 -11 -3 -8 -10 -6 -20 5 -9 9 -23 16 -30 17
-7 0 -4 4 7 9 14 5 24 3 32 -8 11 -13 13 -13 19 3z m1924 -14 c0 -17 -4 -33
-10 -36 -6 -4 -10 8 -10 29 0 20 5 36 10 36 6 0 10 -13 10 -29z m489 -96 c-1
-69 -6 -125 -10 -125 -5 0 -9 53 -9 118 0 105 3 132 17 132 2 0 3 -56 2 -125z
m-4162 93 c-3 -8 -6 -5 -6 6 -1 11 2 17 5 13 3 -3 4 -12 1 -19z m2240 0 c-3
-8 -6 -5 -6 6 -1 11 2 17 5 13 3 -3 4 -12 1 -19z m-362 2 c3 -5 1 -10 -4 -10
-6 0 -11 5 -11 10 0 6 2 10 4 10 3 0 8 -4 11 -10z m408 -39 c-1 -23 -5 -46 -8
-52 -4 -6 1 -19 11 -31 19 -20 19 -20 -6 -16 -14 2 -24 9 -22 16 1 6 -5 12
-13 12 -8 0 -15 9 -15 20 0 11 6 19 13 18 6 -2 12 6 13 17 1 30 14 66 23 61 3
-3 6 -23 4 -45z m1020 19 c-3 -11 -9 -20 -14 -20 -10 0 -12 33 -3 43 12 12 22
-3 17 -23z m47 15 c0 -8 -4 -15 -10 -15 -5 0 -10 7 -10 15 0 8 5 15 10 15 6 0
10 -7 10 -15z m216 -73 c-13 -12 -16 8 -9 49 l8 44 3 -44 c2 -23 1 -46 -2 -49z
m547 -64 c-4 -158 -7 -178 -21 -178 -4 0 -8 69 -9 153 0 140 5 177 27 177 4 0
6 -69 3 -152z m287 87 c0 -37 -4 -65 -10 -65 -11 0 -14 113 -3 123 12 13 13 7
13 -58z m-4483 33 c-3 -8 -6 -5 -6 6 -1 11 2 17 5 13 3 -3 4 -12 1 -19z m2418
16 c-6 -2 -10 -21 -8 -42 1 -20 0 -29 -3 -19 -3 9 -10 17 -16 17 -6 0 -6 6 2
15 10 12 10 15 -1 15 -11 0 -11 2 1 10 8 5 20 9 25 9 6 0 6 -2 0 -5z m925 -19
c0 -8 -4 -17 -10 -20 -6 -4 -10 5 -10 20 0 15 4 24 10 20 6 -3 10 -12 10 -20z
m360 -6 c0 -17 -4 -28 -10 -24 -5 3 -10 17 -10 31 0 13 5 24 10 24 6 0 10 -14
10 -31z m-405 -8 c-3 -12 -11 -21 -16 -21 -14 0 -11 38 4 43 17 6 20 2 12 -22z
m750 19 c-3 -5 -11 -10 -16 -10 -6 0 -7 5 -4 10 3 6 11 10 16 10 6 0 7 -4 4
-10z m242 -51 c1 -27 -3 -49 -8 -49 -5 0 -9 26 -9 57 0 68 14 62 17 -8z
m-2937 35 c0 -14 -38 -49 -46 -42 -3 3 -2 17 1 31 5 17 13 25 26 24 10 -1 19
-6 19 -13z m677 4 c9 22 20 13 15 -13 -3 -18 -10 -25 -21 -22 -9 2 -15 9 -13
15 1 7 -6 12 -15 12 -15 0 -16 2 -3 10 9 6 17 5 23 -3 7 -9 10 -9 14 1z m1177
-6 c11 -19 -10 -27 -26 -10 -17 17 -17 18 1 18 11 0 22 -4 25 -8z m46 -2 c0
-5 -4 -10 -10 -10 -5 0 -10 5 -10 10 0 6 5 10 10 10 6 0 10 -4 10 -10z m590
-10 c0 -11 -4 -20 -10 -20 -5 0 -10 9 -10 20 0 11 5 20 10 20 6 0 10 -9 10
-20z m-1383 -22 c-3 -7 -5 -2 -5 12 0 14 2 19 5 13 2 -7 2 -19 0 -25z m1533
28 c0 -3 -4 -8 -10 -11 -5 -3 -10 -1 -10 4 0 6 5 11 10 11 6 0 10 -2 10 -4z
m109 -141 c-2 -141 3 -174 20 -146 5 7 14 10 20 7 20 -13 11 -24 -24 -28 -30
-3 -35 -1 -36 17 0 11 -2 78 -4 150 -4 120 0 144 23 145 2 0 2 -65 1 -145z
m-4182 113 c-3 -8 -6 -5 -6 6 -1 11 2 17 5 13 3 -3 4 -12 1 -19z m3683 -3 c0
-14 -4 -25 -10 -25 -5 0 -10 11 -10 25 0 14 5 25 10 25 6 0 10 -11 10 -25z
m1010 -10 c0 -19 -4 -35 -10 -35 -5 0 -9 16 -8 35 1 19 5 35 10 35 4 0 8 -16
8 -35z m-3891 18 c-1 -5 0 -10 1 -13 7 -13 5 -90 -2 -90 -4 0 -8 -6 -8 -14 0
-13 -38 -15 -59 -1 -12 7 43 125 59 125 6 0 9 -3 9 -7z m2429 -35 c-2 -23 -9
-43 -15 -46 -14 -4 -17 27 -7 66 10 38 25 24 22 -20z m642 27 c0 -8 -4 -15
-10 -15 -5 0 -7 7 -4 15 4 8 8 15 10 15 2 0 4 -7 4 -15z m145 5 c-3 -5 -11
-10 -16 -10 -6 0 -7 5 -4 10 3 6 11 10 16 10 6 0 7 -4 4 -10z m-189 -37 c-11
-11 -19 6 -11 24 8 17 8 17 12 0 3 -10 2 -21 -1 -24z m297 -10 c6 -47 2 -142
-8 -173 -3 -8 1 -27 9 -41 7 -15 11 -39 8 -54 -4 -25 -7 -26 -41 -20 -20 4
-38 9 -41 12 -7 7 -9 149 -3 226 10 117 23 72 21 -68 -1 -95 1 -138 10 -147
14 -14 14 -8 20 225 2 94 16 116 25 40z m474 25 c-3 -8 -6 -5 -6 6 -1 11 2 17
5 13 3 -3 4 -12 1 -19z m-1424 -35 c-6 -51 -10 -60 -19 -51 -8 9 7 98 17 98 5
0 6 -21 2 -47z m103 -1 c-12 -11 -18 7 -10 30 l8 23 4 -23 c2 -13 1 -26 -2
-30z m360 11 c-11 -11 -19 6 -11 24 8 17 8 17 12 0 3 -10 2 -21 -1 -24z m1238
10 c-10 -40 -14 -41 -14 -5 0 18 5 32 10 32 6 0 8 -11 4 -27z m-1097 -15 c-3
-7 -5 -2 -5 12 0 14 2 19 5 13 2 -7 2 -19 0 -25z m183 22 c0 -5 -5 -10 -11
-10 -5 0 -7 5 -4 10 3 6 8 10 11 10 2 0 4 -4 4 -10z m-3620 -10 c8 -5 12 -11
9 -14 -7 -8 -49 5 -49 15 0 12 21 11 40 -1z m2214 -6 c3 -8 2 -12 -4 -9 -6 3
-10 10 -10 16 0 14 7 11 14 -7z m576 -29 c0 -33 -4 -45 -15 -45 -11 0 -13 8
-9 33 13 72 24 78 24 12z m1692 5 c-6 -41 -12 -38 -12 6 0 19 4 33 8 30 5 -3
7 -19 4 -36z m-1236 3 c-10 -10 -19 5 -10 18 6 11 8 11 12 0 2 -7 1 -15 -2
-18z m-1417 1 c2 -2 2 -6 -1 -9 -8 -9 -58 6 -58 16 0 8 48 2 59 -7z m199 -20
c23 -27 39 -37 71 -41 25 -4 41 -11 41 -19 0 -8 9 -14 20 -14 10 0 28 -10 40
-22 20 -21 20 -21 35 -2 14 19 14 18 15 -3 0 -17 -8 -25 -32 -31 -18 -5 -34
-5 -36 0 -2 4 -13 8 -25 8 -17 0 -19 2 -8 9 7 5 11 14 7 20 -5 7 -12 7 -26 -1
-24 -15 -97 6 -123 36 -10 12 -16 15 -12 9 7 -15 -13 -17 -34 -4 -10 6 -11 13
-2 29 14 25 14 52 1 52 -5 0 -12 -16 -16 -35 -3 -19 -8 -35 -10 -35 -2 0 -22
7 -44 16 -50 20 -55 49 -8 42 20 -3 38 0 46 8 26 26 68 17 100 -22z m712 -3
c0 -22 -4 -43 -10 -46 -5 -3 -10 -3 -11 2 0 4 -2 17 -4 28 -5 25 3 55 16 55 5
0 9 -18 9 -39z m650 19 c0 -11 -4 -20 -10 -20 -5 0 -10 9 -10 20 0 11 5 20 10
20 6 0 10 -9 10 -20z m289 -107 c-1 -71 1 -134 3 -142 1 -8 -4 -16 -14 -18
-14 -4 -16 10 -13 139 3 159 2 148 14 148 6 0 10 -53 10 -127z m-4021 71 c-1
-30 -4 -41 -10 -31 -7 14 -1 77 8 77 2 0 3 -21 2 -46z m2512 36 c12 -8 9 -10
-13 -10 -16 0 -26 4 -22 10 8 12 16 12 35 0z m1860 -71 c0 -51 -4 -69 -13 -69
-10 0 -13 17 -12 68 2 83 3 85 15 77 6 -3 10 -37 10 -76z m232 58 c3 -13 1
-32 -3 -43 -5 -13 -8 -7 -8 24 -1 46 4 55 11 19z m88 4 c0 -11 -4 -23 -10 -26
-6 -4 -10 5 -10 19 0 14 5 26 10 26 6 0 10 -9 10 -19z m-3308 -11 c20 0 180
-52 235 -76 17 -8 46 -17 65 -21 18 -3 43 -13 56 -21 13 -8 33 -16 45 -18 72
-12 128 -27 162 -44 22 -11 46 -20 55 -20 26 0 70 -24 66 -36 -5 -13 29 -32
57 -33 54 -3 59 -9 26 -29 -17 -11 -25 -11 -45 3 -28 18 -33 9 -6 -12 15 -13
15 -14 -10 -9 -25 6 -50 -8 -28 -16 9 -3 -167 -78 -184 -78 -5 0 -6 7 -3 15 7
17 -7 28 -42 31 -14 1 -44 7 -66 14 -22 7 -55 13 -73 14 -31 1 -33 3 -28 29 4
20 2 27 -9 27 -8 0 -15 -5 -15 -11 0 -7 -11 -9 -32 -5 -18 4 -42 8 -53 10 -11
2 -19 7 -18 12 0 5 -16 10 -37 10 -20 1 -48 8 -61 15 -13 7 -26 14 -29 15 -3
1 -15 5 -27 9 -13 4 -23 11 -23 15 0 4 -18 12 -40 19 -22 6 -40 16 -40 21 0 6
-7 10 -15 10 -8 0 -15 -6 -15 -14 0 -9 -7 -12 -20 -9 -11 3 -20 8 -20 12 0 4
-8 7 -17 8 -33 2 -76 14 -104 28 -15 8 -38 15 -51 15 -13 0 -30 5 -38 10 -13
8 -12 10 3 10 10 0 34 12 53 26 19 15 37 24 41 20 3 -3 12 -1 20 6 7 6 16 8
19 6 3 -3 26 1 51 8 35 11 48 11 54 2 5 -8 12 -6 25 7 26 26 77 45 89 34 5 -5
17 -9 27 -9z m1647 3 c-1 -10 -5 -31 -9 -48 -7 -27 -8 -25 -9 18 0 26 4 47 9
47 6 0 9 -8 9 -17z m647 -20 c-11 -11 -19 6 -11 24 8 17 8 17 12 0 3 -10 2
-21 -1 -24z m291 -130 c-4 -117 -7 -138 -23 -150 -27 -20 -44 -16 -44 12 0 14
5 25 11 25 5 0 8 -4 4 -9 -3 -5 -1 -12 4 -15 20 -13 25 22 23 152 -3 134 2
169 20 138 5 -10 8 -77 5 -153z m593 152 c0 -8 -4 -15 -10 -15 -5 0 -10 7 -10
15 0 8 5 15 10 15 6 0 10 -7 10 -15z m-4320 -5 c0 -5 -2 -10 -4 -10 -3 0 -8 5
-11 10 -3 6 -1 10 4 10 6 0 11 -4 11 -10z m3590 -97 c-2 -126 -2 -123 -10
-123 -9 0 -13 207 -4 221 13 21 16 -2 14 -98z m807 75 c-3 -7 -5 -2 -5 12 0
14 2 19 5 13 2 -7 2 -19 0 -25z m-4449 -6 c-5 -27 -28 -26 -28 2 0 19 4 24 15
19 9 -3 15 -12 13 -21z m2377 18 c3 -5 1 -10 -4 -10 -6 0 -11 5 -11 10 0 6 2
10 4 10 3 0 8 -4 11 -10z m404 -74 c-9 -8 -10 -3 -5 23 3 18 7 41 8 50 1 9 3
-1 5 -23 3 -22 -1 -43 -8 -50z m667 57 c-10 -10 -19 5 -10 18 6 11 8 11 12 0
2 -7 1 -15 -2 -18z m283 -80 c0 -60 -4 -117 -9 -128 -11 -26 -12 -19 -12 100
0 132 0 135 12 135 6 0 10 -42 9 -107z m-983 9 c-13 -12 -17 8 -9 44 l8 39 3
-39 c2 -21 1 -41 -2 -44z m664 63 c0 -8 -7 -15 -15 -15 -16 0 -20 12 -8 23 11
12 23 8 23 -8z m270 -70 c0 -47 -4 -85 -9 -85 -6 0 -9 157 -3 168 9 13 12 -11
12 -83z m-970 55 c0 -11 -4 -20 -10 -20 -5 0 -10 5 -10 12 0 6 -7 3 -15 -8
-11 -15 -14 -16 -15 -3 0 18 19 39 37 39 7 0 13 -9 13 -20z m1658 -2 c-2 -12
-8 -23 -14 -25 -7 -2 -10 6 -7 22 6 30 26 34 21 3z m-4438 -8 c0 -5 -4 -10
-10 -10 -5 0 -10 5 -10 10 0 6 5 10 10 10 6 0 10 -4 10 -10z m3049 -17 c0 -25
-1 -25 -8 -8 -5 11 -7 23 -4 28 8 14 13 7 12 -20z m569 -97 c-2 -96 -13 -198
-17 -166 -1 8 -4 75 -7 147 -5 119 -3 132 11 127 13 -6 16 -23 13 -108z m51
52 c1 -79 -9 -171 -18 -163 -7 7 -11 206 -4 218 13 22 22 0 22 -55z m-3734 42
c3 -5 1 -10 -4 -10 -6 0 -11 5 -11 10 0 6 2 10 4 10 3 0 8 -4 11 -10z m-58
-22 c-3 -8 -6 -5 -6 6 -1 11 2 17 5 13 3 -3 4 -12 1 -19z m3473 12 c0 -5 -4
-10 -10 -10 -5 0 -10 5 -10 10 0 6 5 10 10 10 6 0 10 -4 10 -10z m845 -15 c0
-14 -3 -25 -7 -25 -5 0 -8 11 -8 25 0 14 3 25 8 25 4 0 7 -11 7 -25z m-895 -5
c0 -5 -4 -10 -10 -10 -5 0 -10 5 -10 10 0 6 5 10 10 10 6 0 10 -4 10 -10z
m180 6 c0 -3 -4 -8 -10 -11 -5 -3 -10 -1 -10 4 0 6 5 11 10 11 6 0 10 -2 10
-4z m89 -101 c-1 -104 -18 -143 -20 -46 -1 34 -2 76 -3 94 -3 36 1 47 15 47 5
0 9 -42 8 -95z m-672 53 c-3 -7 -5 -2 -5 12 0 14 2 19 5 13 2 -7 2 -19 0 -25z
m323 2 c0 -5 -7 -10 -16 -10 -8 0 -12 5 -9 10 3 6 10 10 16 10 5 0 9 -4 9 -10z
m-725 -56 c2 -21 2 -31 -1 -21 -7 23 -20 22 -27 -3 -9 -34 -29 -24 -22 10 4
18 2 30 -3 30 -6 0 -14 -15 -18 -32 l-7 -33 -9 28 c-12 33 -28 27 -29 -11 -1
-26 -1 -26 -7 -4 -10 34 -27 23 -28 -17 0 -40 -24 -56 -24 -17 0 13 -4 28 -10
31 -5 3 -10 -3 -10 -14 0 -24 -16 -36 -24 -19 -6 17 -36 -19 -36 -43 0 -37
-18 -27 -22 11 -4 40 -3 41 52 67 108 53 205 90 213 83 4 -4 10 -24 12 -46z
m325 40 c0 -8 -4 -12 -10 -9 -5 3 -10 10 -10 16 0 5 5 9 10 9 6 0 10 -7 10
-16z m525 6 c3 -5 1 -10 -4 -10 -6 0 -11 5 -11 10 0 6 2 10 4 10 3 0 8 -4 11
-10z m134 -60 c1 -44 -2 -70 -8 -70 -7 0 -11 28 -11 70 0 39 4 70 8 70 5 0 10
-31 11 -70z m-319 51 c0 -6 -4 -13 -10 -16 -5 -3 -10 1 -10 9 0 9 5 16 10 16
6 0 10 -4 10 -9z m140 -11 c0 -5 -4 -10 -10 -10 -5 0 -10 5 -10 10 0 6 5 10
10 10 6 0 10 -4 10 -10z m136 -54 c4 -55 -9 -84 -19 -44 -7 23 3 112 10 104 3
-3 7 -30 9 -60z m-476 -1 c0 -70 -24 -77 -28 -8 -3 40 6 62 26 63 1 0 2 -25 2
-55z m136 18 c-11 -11 -19 6 -11 24 8 17 8 17 12 0 3 -10 2 -21 -1 -24z m304
-47 c0 -101 -17 -106 -19 -6 -1 50 2 80 9 80 6 0 10 -30 10 -74z m-392 35 c2
-13 -1 -28 -7 -34 -8 -8 -11 -5 -11 10 0 12 -3 29 -7 39 -4 12 -2 15 8 12 8
-2 16 -15 17 -27z m52 15 c0 -16 -18 -31 -27 -22 -8 8 5 36 17 36 5 0 10 -6
10 -14z m152 -8 c-6 -6 -15 -8 -19 -4 -4 4 -1 11 7 16 19 12 27 3 12 -12z
m-304 -23 c2 -19 -2 -35 -7 -35 -6 0 -10 16 -9 35 1 19 4 35 8 35 3 0 7 -16 8
-35z m446 4 c8 -39 -4 -199 -15 -199 -4 0 -8 52 -8 115 -1 111 10 149 23 84z
m1181 13 c-3 -3 -11 0 -18 7 -9 10 -8 11 6 5 10 -3 15 -9 12 -12z m-1375 -12
c0 -5 -5 -10 -11 -10 -5 0 -7 5 -4 10 3 6 8 10 11 10 2 0 4 -4 4 -10z m149
-100 c-1 -61 -5 -113 -9 -115 -9 -6 -23 201 -15 215 19 31 26 2 24 -100z m400
103 c0 -5 -4 -17 -9 -28 -8 -18 -9 -17 -9 8 -1 15 4 27 9 27 6 0 10 -3 9 -7z
m448 -27 c59 -52 114 -76 177 -76 30 0 57 -4 60 -9 15 -24 -89 -69 -121 -53
-10 5 -38 13 -63 17 -36 6 -57 18 -107 66 -34 33 -67 59 -74 59 -7 0 -5 6 7
15 34 25 80 18 121 -19z m-1052 -6 c-3 -5 -11 -10 -16 -10 -6 0 -7 5 -4 10 3
6 11 10 16 10 6 0 7 -4 4 -10z m115 -80 c0 -44 0 -83 1 -87 0 -4 -4 -9 -10
-11 -6 -2 -11 7 -11 20 0 13 -2 50 -4 83 -3 63 -1 75 15 75 5 0 9 -36 9 -80z
m40 -2 c0 -92 -6 -100 -14 -18 -5 50 0 100 10 100 2 0 4 -37 4 -82z m-1075 64
c6 -4 8 -20 5 -37 l-7 -30 -14 30 -13 30 -4 -37 c-3 -38 -21 -54 -23 -20 0 9
-2 25 -4 35 -2 11 5 22 18 27 28 11 30 11 42 2z m976 -9 c1 -5 3 -37 4 -73 2
-62 10 -124 21 -162 4 -13 0 -18 -14 -18 -26 0 -30 21 -32 153 0 68 3 107 10
107 5 0 11 -3 11 -7z m-389 -65 c-9 -9 -12 -4 -11 23 0 32 1 33 11 11 8 -17 8
-26 0 -34z m338 -7 c0 -59 -12 -86 -24 -55 -8 21 -8 99 1 107 17 17 23 3 23
-52z m330 45 c0 -8 -4 -18 -10 -21 -5 -3 -10 3 -10 14 0 12 5 21 10 21 6 0 10
-6 10 -14z m-1380 -48 c0 -49 -5 -47 -13 5 -3 20 -2 37 4 37 5 0 9 -19 9 -42z
m50 32 c0 -5 -4 -10 -10 -10 -5 0 -10 5 -10 10 0 6 5 10 10 10 6 0 10 -4 10
-10z m343 -15 c-7 -21 -13 -19 -13 6 0 11 4 18 10 14 5 -3 7 -12 3 -20z m611
8 c6 -24 1 -162 -7 -170 -4 -3 -2 -14 4 -25 13 -24 5 -48 -15 -48 -13 0 -15
20 -15 122 0 67 2 125 5 130 9 14 22 9 28 -9z m-1045 -48 c-1 -30 -5 -58 -10
-61 -10 -6 -13 99 -2 109 11 12 12 8 12 -48z m1000 -72 c-2 -60 1 -120 5 -135
7 -24 6 -26 -13 -21 -24 6 -23 4 -21 133 1 102 6 130 21 130 6 0 9 -42 8 -107z
m421 72 c0 -19 -4 -35 -10 -35 -11 0 -14 53 -3 63 11 12 13 8 13 -28z m-1475
15 c3 -5 1 -10 -4 -10 -6 0 -11 5 -11 10 0 6 2 10 4 10 3 0 8 -4 11 -10z m145
-11 c0 -5 -4 -9 -10 -9 -5 0 -10 7 -10 16 0 8 5 12 10 9 6 -3 10 -10 10 -16z
m422 -19 c-2 -16 -6 -30 -8 -30 -2 0 -4 14 -4 30 0 17 4 30 8 30 5 0 7 -13 4
-30z m430 -91 c-4 -108 -6 -128 -16 -118 -7 7 -16 226 -9 233 22 21 28 -8 25
-115z m-1042 67 c0 -57 -17 -69 -22 -17 -4 45 -1 61 13 61 5 0 9 -20 9 -44z
m41 -22 c-9 -38 -9 -38 -10 -7 -1 33 10 74 16 57 2 -6 -1 -28 -6 -50z m-91 22
c0 -34 -18 -42 -29 -14 -10 27 -6 38 15 38 8 0 14 -10 14 -24z m411 -9 c-8 -8
-11 -7 -11 4 0 20 13 34 18 19 3 -7 -1 -17 -7 -23z m628 1 c-1 -45 -16 -137
-19 -118 -1 8 -3 45 -5 83 -3 53 -1 67 10 67 10 0 15 -10 14 -32z m-422 0 c-3
-8 -6 -5 -6 6 -1 11 2 17 5 13 3 -3 4 -12 1 -19z m373 0 c0 -16 -3 -19 -11
-11 -6 6 -8 16 -5 22 11 17 16 13 16 -11z m-1040 -47 c0 -33 -4 -63 -10 -66
-6 -4 -10 18 -10 59 0 37 4 66 10 66 6 0 10 -26 10 -59z m-49 36 c-6 -7 -9
-28 -6 -45 2 -18 0 -32 -5 -32 -12 0 -17 69 -6 80 15 15 30 12 17 -3z m1049
-78 c0 -60 -3 -88 -10 -84 -6 4 -10 14 -9 23 2 10 -1 27 -5 40 -5 14 -3 28 4
37 7 9 9 26 5 45 -4 19 -3 30 4 30 7 0 11 -32 11 -91z m444 66 c3 -8 1 -15 -4
-15 -6 0 -10 7 -10 15 0 8 2 15 4 15 2 0 6 -7 10 -15z m-147 -42 c7 -35 8 -50
0 -55 -6 -4 -14 -5 -18 -2 -10 6 -10 104 0 104 3 0 11 -21 18 -47z m-1391 -21
c-2 -26 -4 -50 -5 -54 -1 -5 -6 -8 -11 -8 -6 0 -9 16 -6 38 3 20 5 47 5 60 1
13 5 20 11 17 6 -3 8 -27 6 -53z m1504 39 c0 -10 -6 -23 -13 -29 -10 -9 -13
-5 -11 16 2 33 2 32 14 32 6 0 10 -8 10 -19z m-1550 -38 c0 -48 -15 -50 -22
-3 -2 17 -8 24 -20 22 -10 -2 -18 2 -18 7 0 5 12 12 28 14 15 2 28 5 30 6 1 0
2 -20 2 -46z m180 22 c0 -14 -4 -25 -10 -25 -11 0 -14 33 -3 43 11 11 13 8 13
-18z m330 -30 c0 -30 -3 -55 -7 -55 -5 0 -6 25 -5 55 5 71 12 71 12 0z m100 5
c0 -22 -4 -40 -10 -40 -5 0 -10 18 -10 40 0 22 5 40 10 40 6 0 10 -18 10 -40z
m-702 -50 c-1 -38 -5 -70 -9 -70 -5 0 -9 23 -9 50 0 54 -19 70 -21 18 -2 -52
-3 -58 -14 -55 -5 1 -9 9 -8 17 1 8 3 29 5 45 2 24 24 50 55 64 0 1 1 -30 1
-69z m639 23 c-3 -10 -5 -2 -5 17 0 19 2 27 5 18 2 -10 2 -26 0 -35z m354 -35
c1 -87 0 -95 -11 -78 -5 8 -9 49 -9 90 1 86 19 75 20 -12z m-951 15 c0 -21 -5
-45 -10 -53 -7 -11 -10 0 -10 38 0 28 5 52 10 52 6 0 10 -17 10 -37z m132 5
c-9 -9 -12 -7 -12 12 0 19 3 21 12 12 9 -9 9 -15 0 -24z m733 22 c3 -5 1 -10
-4 -10 -6 0 -11 5 -11 10 0 6 2 10 4 10 3 0 8 -4 11 -10z m-992 -38 c-5 -33
-7 -34 -42 -27 -57 11 -58 17 -6 41 27 13 50 22 51 21 1 -1 -1 -17 -3 -35z
m647 -7 c0 -19 -4 -35 -10 -35 -11 0 -14 53 -3 63 11 12 13 8 13 -28z m349
-55 c1 -33 -2 -60 -6 -60 -4 0 -9 29 -10 65 0 36 2 63 6 60 5 -2 9 -31 10 -65z
m-589 50 c0 -5 -5 -10 -11 -10 -5 0 -7 5 -4 10 3 6 8 10 11 10 2 0 4 -4 4 -10z
m464 -42 c2 -24 -1 -52 -5 -63 -5 -13 -8 5 -8 49 -1 75 9 85 13 14z m46 7 c0
-19 -4 -35 -10 -35 -5 0 -10 16 -10 35 0 19 5 35 10 35 6 0 10 -16 10 -35z
m-324 -12 c-11 -11 -19 6 -11 24 8 17 8 17 12 0 3 -10 2 -21 -1 -24z m364 2
c0 -19 -2 -35 -4 -35 -2 0 -6 16 -8 35 -2 19 0 35 4 35 4 0 8 -16 8 -35z
m-400 -15 c0 -11 -4 -20 -10 -20 -5 0 -10 9 -10 20 0 11 5 20 10 20 6 0 10 -9
10 -20z m-50 -19 c0 -11 -4 -23 -10 -26 -6 -4 -10 5 -10 19 0 14 5 26 10 26 6
0 10 -9 10 -19z m323 4 c4 -8 2 -17 -3 -20 -6 -4 -10 3 -10 14 0 25 6 27 13 6z
m83 -42 c-11 -11 -19 6 -11 24 8 17 8 17 12 0 3 -10 2 -21 -1 -24z m-2559 -15
c-3 -7 -5 -2 -5 12 0 14 2 19 5 13 2 -7 2 -19 0 -25z m2044 -21 c-8 -8 -11 -4
-11 14 0 33 14 47 18 19 2 -12 -1 -27 -7 -33z m59 38 c0 -8 -4 -15 -10 -15 -5
0 -10 7 -10 15 0 8 5 15 10 15 6 0 10 -7 10 -15z m332 -52 c5 -67 3 -82 -7
-71 -11 11 -18 138 -8 138 6 0 13 -30 15 -67z m173 57 c3 -5 1 -10 -4 -10 -6
0 -11 5 -11 10 0 6 2 10 4 10 3 0 8 -4 11 -10z m165 -11 c0 -6 -4 -7 -10 -4
-5 3 -10 11 -10 16 0 6 5 7 10 4 6 -3 10 -11 10 -16z m-37 -21 c6 -46 -24 -88
-64 -88 -18 0 -29 5 -29 14 0 7 -3 28 -6 45 -4 19 -2 31 4 31 6 0 12 -12 14
-27 2 -14 9 -29 17 -31 10 -3 12 2 8 24 l-5 28 19 -25 19 -24 0 43 c0 50 16
56 23 10z m-353 0 c0 -19 -2 -20 -10 -8 -13 19 -13 30 0 30 6 0 10 -10 10 -22z
m-45 3 c3 -5 1 -12 -5 -16 -5 -3 -10 1 -10 9 0 18 6 21 15 7z m432 -23 c-3 -8
-6 -5 -6 6 -1 11 2 17 5 13 3 -3 4 -12 1 -19z m-2627 -8 c0 -11 -2 -20 -4 -20
-2 0 -6 9 -9 20 -3 11 -1 20 4 20 5 0 9 -9 9 -20z m1810 -17 c0 -7 -4 -13 -10
-13 -5 0 -10 12 -10 28 0 21 2 24 10 12 5 -8 10 -21 10 -27z m50 22 c0 -8 -4
-15 -10 -15 -5 0 -7 7 -4 15 4 8 8 15 10 15 2 0 4 -7 4 -15z m150 5 c0 -5 -5
-10 -11 -10 -5 0 -7 5 -4 10 3 6 8 10 11 10 2 0 4 -4 4 -10z m127 -22 c-3 -7
-5 -2 -5 12 0 14 2 19 5 13 2 -7 2 -19 0 -25z m333 12 c0 -11 -4 -20 -10 -20
-5 0 -10 9 -10 20 0 11 5 20 10 20 6 0 10 -9 10 -20z m-713 -37 c-3 -10 -5 -4
-5 12 0 17 2 24 5 18 2 -7 2 -21 0 -30z m430 5 c-3 -8 -6 -5 -6 6 -1 11 2 17
5 13 3 -3 4 -12 1 -19z m193 1 c0 -6 -4 -7 -10 -4 -5 3 -10 11 -10 16 0 6 5 7
10 4 6 -3 10 -11 10 -16z m60 -10 c0 -5 -7 -9 -15 -9 -9 0 -15 9 -15 21 0 18
2 19 15 9 8 -7 15 -16 15 -21z m-383 -21 c-3 -7 -5 -2 -5 12 0 14 2 19 5 13 2
-7 2 -19 0 -25z m613 -60 c12 -51 24 -101 27 -110 3 -13 -1 -18 -15 -18 -11 0
-22 9 -25 19 -6 24 -119 98 -172 112 -23 7 -76 9 -125 6 -83 -6 -84 -5 -50 10
42 18 161 24 210 10 19 -6 59 -28 88 -50 30 -21 56 -36 59 -34 11 12 -10 44
-48 72 l-40 30 26 22 c14 13 30 23 34 23 5 0 19 -42 31 -92z m-2620 56 c0 -8
-4 -12 -10 -9 -5 3 -10 13 -10 21 0 8 5 12 10 9 6 -3 10 -13 10 -21z m2290 16
c0 -5 -2 -10 -4 -10 -3 0 -8 5 -11 10 -3 6 -1 10 4 10 6 0 11 -4 11 -10z
m-664 -37 c-11 -11 -19 6 -11 24 8 17 8 17 12 0 3 -10 2 -21 -1 -24z m543 7
c7 0 11 -6 9 -12 -4 -12 -50 -31 -188 -80 -30 -11 -56 -24 -58 -29 -2 -5 -9
-9 -15 -9 -7 0 -46 -13 -87 -29 -84 -33 -198 -66 -204 -60 -2 2 -5 31 -7 63
-3 41 0 60 9 63 8 3 12 -6 12 -27 0 -29 2 -32 25 -26 14 4 25 2 25 -4 0 -21
20 -9 21 13 0 12 3 16 6 10 9 -23 33 -14 33 13 0 14 4 23 10 19 6 -3 10 -15
10 -26 0 -10 5 -19 10 -19 6 0 10 11 10 25 0 14 5 25 10 25 6 0 10 -9 10 -20
0 -22 1 -23 23 -14 9 3 12 14 9 32 -5 26 -4 26 15 10 23 -21 35 -23 32 -5 -1
6 -1 21 0 32 2 18 3 18 12 -3 14 -37 34 -20 37 31 3 51 22 66 22 18 0 -16 7
-34 16 -41 13 -11 16 -10 21 9 5 19 7 19 17 6 9 -13 15 -13 38 -3 16 8 28 21
28 32 0 18 1 18 18 3 21 -19 32 -13 32 17 1 20 2 20 14 4 7 -10 19 -18 25 -18z
m-959 0 c0 -5 -5 -10 -11 -10 -5 0 -7 5 -4 10 3 6 8 10 11 10 2 0 4 -4 4 -10z
m362 -32 c-9 -9 -12 -7 -12 12 0 19 3 21 12 12 9 -9 9 -15 0 -24z m-1190 -3
c3 -13 1 -22 -3 -19 -9 5 -13 44 -5 44 2 0 6 -11 8 -25z m138 -20 c0 -8 -4
-15 -10 -15 -5 0 -7 7 -4 15 4 8 8 15 10 15 2 0 4 -7 4 -15z m-565 -5 c3 -5 1
-10 -4 -10 -6 0 -11 5 -11 10 0 6 2 10 4 10 3 0 8 -4 11 -10z m1815 -11 c0 -5
-4 -9 -10 -9 -5 0 -10 7 -10 16 0 8 5 12 10 9 6 -3 10 -10 10 -16z m-373 -21
c-3 -8 -6 -5 -6 6 -1 11 2 17 5 13 3 -3 4 -12 1 -19z m-37 -8 c0 -5 -5 -10
-11 -10 -5 0 -7 5 -4 10 3 6 8 10 11 10 2 0 4 -4 4 -10z m177 -62 c-3 -8 -6
-5 -6 6 -1 11 2 17 5 13 3 -3 4 -12 1 -19z m-360 -20 c-3 -8 -6 -5 -6 6 -1 11
2 17 5 13 3 -3 4 -12 1 -19z m-1180 -60 c-3 -8 -6 -5 -6 6 -1 11 2 17 5 13 3
-3 4 -12 1 -19z m1043 8 c0 -8 -4 -18 -10 -21 -5 -3 -10 3 -10 14 0 12 5 21
10 21 6 0 10 -6 10 -14z m-40 0 c0 -3 -4 -8 -10 -11 -5 -3 -10 -1 -10 4 0 6 5
11 10 11 6 0 10 -2 10 -4z"/>
<path d="M3419 5160 c-11 -7 -10 -10 4 -16 10 -4 23 -2 28 3 14 14 -13 24 -32
13z"/>
<path d="M3470 5070 c0 -5 12 -10 26 -10 14 0 23 4 19 10 -3 6 -15 10 -26 10
-10 0 -19 -4 -19 -10z"/>
<path d="M2891 5170 c-25 -3 -46 -10 -48 -17 -3 -9 16 -12 71 -10 41 1 78 5
82 10 4 4 5 7 3 7 -2 0 -18 3 -34 8 -17 4 -50 5 -74 2z"/>
<path d="M3056 5141 c-7 -11 22 -23 35 -15 5 3 7 10 4 15 -8 12 -32 12 -39 0z"/>
<path d="M2855 5070 c3 -5 24 -10 46 -10 21 0 39 5 39 10 0 6 -21 10 -46 10
-27 0 -43 -4 -39 -10z"/>
<path d="M2310 5230 c-31 -19 5 -30 101 -30 89 0 117 8 90 25 -16 9 -177 14
-191 5z"/>
<path d="M2350 5134 c0 -14 79 -24 87 -11 9 14 -5 20 -47 21 -24 1 -40 -4 -40
-10z"/>
<path d="M2073 5040 c-38 -15 -26 -25 30 -23 67 2 65 1 43 18 -22 17 -41 18
-73 5z"/>
<path d="M2320 5030 c0 -5 7 -10 15 -10 8 0 15 5 15 10 0 6 -7 10 -15 10 -8 0
-15 -4 -15 -10z"/>
<path d="M1277 5023 c-14 -13 -6 -21 18 -19 32 1 43 26 11 26 -12 0 -26 -3
-29 -7z"/>
<path d="M1330 4999 c0 -5 5 -7 10 -4 6 3 10 8 10 11 0 2 -4 4 -10 4 -5 0 -10
-5 -10 -11z"/>
<path d="M1415 4970 c-3 -5 -1 -10 4 -10 6 0 11 5 11 10 0 6 -2 10 -4 10 -3 0
-8 -4 -11 -10z"/>
<path d="M1463 4953 c-20 -8 -15 -22 7 -20 11 1 20 7 20 14 0 14 -6 15 -27 6z"/>
<path d="M1132 4918 c-18 -126 -10 -180 19 -126 16 29 20 121 5 130 -16 11
-22 10 -24 -4z"/>
<path d="M1466 4885 c4 -8 11 -15 16 -15 6 0 5 6 -2 15 -7 8 -14 15 -16 15 -2
0 -1 -7 2 -15z"/>
<path d="M1287 4883 c-4 -3 -7 -11 -7 -17 0 -6 5 -5 12 2 6 6 9 14 7 17 -3 3
-9 2 -12 -2z"/>
<path d="M1375 4880 c-3 -5 -1 -10 4 -10 6 0 11 5 11 10 0 6 -2 10 -4 10 -3 0
-8 -4 -11 -10z"/>
<path d="M1205 4870 c-3 -5 1 -10 10 -10 9 0 13 5 10 10 -3 6 -8 10 -10 10 -2
0 -7 -4 -10 -10z"/>
<path d="M1342 4854 c-13 -14 -8 -54 5 -40 5 5 15 57 10 56 -1 -1 -8 -8 -15
-16z"/>
<path d="M1450 4834 c0 -12 -6 -15 -25 -10 -14 4 -25 2 -25 -4 0 -5 7 -10 15
-10 8 0 15 -9 15 -19 0 -26 18 -37 26 -16 5 12 9 13 20 4 11 -9 14 -8 14 4 0
8 -6 17 -14 20 -9 4 -12 14 -9 26 3 12 1 21 -6 21 -6 0 -11 -7 -11 -16z"/>
<path d="M1202 4810 c-7 -12 -8 -20 -2 -20 5 0 10 -10 10 -22 0 -17 3 -19 12
-10 6 6 13 17 14 24 1 7 3 19 5 27 6 23 -25 24 -39 1z"/>
<path d="M1360 4790 c0 -5 5 -10 11 -10 5 0 7 5 4 10 -3 6 -8 10 -11 10 -2 0
-4 -4 -4 -10z"/>
<path d="M1532 4789 c-19 -7 -21 -13 -16 -36 8 -35 10 -37 24 -28 6 4 9 14 5
23 -3 8 0 19 6 23 20 12 5 27 -19 18z"/>
<path d="M1567 4740 c-3 -11 -1 -23 4 -26 5 -3 9 -1 9 5 0 5 3 16 6 25 3 9 2
16 -4 16 -5 0 -12 -9 -15 -20z"/>
<path d="M1970 4735 c0 -12 -4 -25 -9 -30 -5 -6 -12 -20 -16 -32 -5 -17 -2
-23 9 -23 9 0 16 9 16 21 0 11 4 28 9 38 6 10 6 23 0 32 -7 11 -9 10 -9 -6z"/>
<path d="M1609 4738 c-5 -17 -4 -48 3 -48 4 0 8 11 8 25 0 20 -7 34 -11 23z"/>
<path d="M1500 4695 c7 -8 17 -15 22 -15 6 0 5 7 -2 15 -7 8 -17 15 -22 15 -6
0 -5 -7 2 -15z"/>
<path d="M1670 4695 c0 -8 2 -15 4 -15 2 0 6 7 10 15 3 8 1 15 -4 15 -6 0 -10
-7 -10 -15z"/>
<path d="M1570 4690 c0 -5 5 -10 10 -10 6 0 10 5 10 10 0 6 -4 10 -10 10 -5 0
-10 -4 -10 -10z"/>
<path d="M1620 4678 c-7 -7 -27 -35 -45 -63 -31 -45 -32 -51 -18 -62 22 -17
30 -16 37 3 4 12 1 14 -14 9 -11 -4 -20 -2 -20 3 0 15 31 25 70 23 27 -1 31 1
20 8 -8 6 -23 11 -32 11 -12 0 -15 5 -11 17 4 11 8 12 11 5 7 -23 18 -12 20
23 3 38 -1 42 -18 23z"/>
<path d="M1337 4673 c-4 -3 -7 -11 -7 -17 0 -6 5 -5 12 2 6 6 9 14 7 17 -3 3
-9 2 -12 -2z"/>
<path d="M1290 4649 c0 -11 5 -17 10 -14 6 3 10 13 10 21 0 8 -4 14 -10 14 -5
0 -10 -9 -10 -21z"/>
<path d="M1535 4647 c-8 -12 -15 -27 -15 -34 0 -7 -4 -13 -10 -13 -5 0 -10
-11 -10 -25 0 -38 27 -30 41 13 6 20 18 41 25 45 18 10 18 23 -1 31 -8 3 -21
-4 -30 -17z"/>
<path d="M1881 4654 c0 -11 3 -14 6 -6 3 7 2 16 -1 19 -3 4 -6 -2 -5 -13z"/>
<path d="M1695 4629 c-11 -17 -2 -18 19 -3 17 12 17 14 4 14 -9 0 -20 -5 -23
-11z"/>
<path d="M1417 4593 c-11 -10 -8 -20 8 -27 10 -4 15 1 15 14 0 20 -11 26 -23
13z"/>
<path d="M1780 4580 c0 -5 5 -10 10 -10 6 0 10 5 10 10 0 6 -4 10 -10 10 -5 0
-10 -4 -10 -10z"/>
<path d="M970 4546 c0 -8 5 -18 10 -21 6 -3 10 3 10 14 0 12 -4 21 -10 21 -5
0 -10 -6 -10 -14z"/>
<path d="M1523 4533 c-7 -3 -13 -12 -13 -21 0 -15 2 -15 17 1 18 18 16 27 -4
20z"/>
<path d="M1810 4510 c0 -5 5 -10 10 -10 6 0 10 5 10 10 0 6 -4 10 -10 10 -5 0
-10 -4 -10 -10z"/>
<path d="M1555 4500 c3 -5 8 -10 11 -10 2 0 4 5 4 10 0 6 -5 10 -11 10 -5 0
-7 -4 -4 -10z"/>
<path d="M1440 4490 c-8 -21 -9 -70 -2 -70 15 0 20 22 11 50 -4 14 -8 23 -9
20z"/>
<path d="M954 4439 c-2 -4 5 -9 15 -12 11 -3 22 1 25 8 5 14 -31 17 -40 4z"/>
<path d="M1486 4434 c-4 -10 -1 -14 6 -12 15 5 23 28 10 28 -5 0 -13 -7 -16
-16z"/>
<path d="M1353 4405 c-7 -16 -8 -27 -1 -31 14 -9 20 1 16 30 l-3 26 -12 -25z"/>
<path d="M1115 4370 c3 -5 10 -10 16 -10 5 0 9 5 9 10 0 6 -7 10 -16 10 -8 0
-12 -4 -9 -10z"/>
<path d="M1320 4359 c0 -5 5 -7 10 -4 6 3 10 8 10 11 0 2 -4 4 -10 4 -5 0 -10
-5 -10 -11z"/>
<path d="M1364 4331 c-12 -11 -25 -17 -28 -14 -3 4 -6 -1 -6 -10 0 -9 7 -17
15 -17 8 0 15 7 15 16 0 8 5 12 10 9 6 -4 7 -12 4 -18 -5 -9 -4 -9 5 -1 7 7
11 22 9 34 l-3 21 -21 -20z"/>
<path d="M1350 4197 c0 -8 -10 -19 -22 -24 -23 -11 -23 -11 5 -22 36 -14 46
-8 43 26 -3 28 -26 46 -26 20z"/>
<path d="M1275 4145 c4 -11 7 -28 7 -37 -1 -21 14 -24 21 -5 2 7 -5 24 -16 37
-16 20 -19 21 -12 5z"/>
<path d="M1320 4129 c0 -9 3 -19 8 -23 4 -4 7 -13 7 -19 0 -16 37 -15 42 0 3
7 -4 16 -14 20 -10 4 -23 14 -30 22 -11 15 -12 14 -13 0z"/>
<path d="M1407 4124 c-4 -4 -7 -17 -7 -28 1 -19 1 -20 11 -3 11 19 8 43 -4 31z"/>
<path d="M1305 4050 c-3 -5 -1 -10 4 -10 6 0 11 5 11 10 0 6 -2 10 -4 10 -3 0
-8 -4 -11 -10z"/>
<path d="M1342 4029 c-7 -11 -11 -24 -8 -27 10 -9 28 15 24 32 -2 14 -5 13
-16 -5z"/>
<path d="M1254 3901 c0 -11 4 -17 8 -15 4 3 8 12 8 20 0 8 -4 14 -8 14 -4 0
-8 -9 -8 -19z"/>
<path d="M1200 3855 c-13 -16 -13 -16 30 -19 8 -1 14 -9 14 -19 -1 -9 2 -17 7
-17 5 0 12 0 16 0 18 -1 11 50 -8 60 -14 8 -19 7 -19 -1 0 -9 -3 -9 -14 0 -10
9 -16 8 -26 -4z"/>
<path d="M1060 3780 c0 -5 5 -10 11 -10 5 0 7 5 4 10 -3 6 -8 10 -11 10 -2 0
-4 -4 -4 -10z"/>
<path d="M1204 3706 c-29 -22 -13 -26 21 -5 17 11 23 19 14 19 -8 0 -24 -6
-35 -14z"/>
<path d="M1230 3686 c0 -2 7 -7 16 -10 8 -3 12 -2 9 4 -6 10 -25 14 -25 6z"/>
<path d="M1800 4930 c0 -7 24 -20 36 -20 13 0 1 19 -16 23 -11 3 -20 2 -20 -3z"/>
<path d="M3967 2843 c-4 -3 -7 -11 -7 -17 0 -6 5 -5 12 2 6 6 9 14 7 17 -3 3
-9 2 -12 -2z"/>
<path d="M2740 3875 c0 -16 16 -20 24 -6 3 5 -1 11 -9 15 -9 3 -15 0 -15 -9z"/>
<path d="M2740 3836 c0 -8 5 -18 10 -21 6 -3 10 1 10 9 0 8 -4 18 -10 21 -5 3
-10 -1 -10 -9z"/>
<path d="M2740 3300 c0 -6 7 -10 15 -10 8 0 15 2 15 4 0 2 -7 6 -15 10 -8 3
-15 1 -15 -4z"/>
<path d="M2745 3229 c-4 -6 -5 -13 -2 -16 7 -7 27 6 27 18 0 12 -17 12 -25 -2z"/>
<path d="M1616 4253 c-3 -10 -8 -22 -11 -28 -3 -5 6 -11 20 -11 20 -2 24 2 21
20 -3 11 -5 24 -5 29 -2 14 -19 7 -25 -10z"/>
<path d="M811 3284 c0 -11 3 -14 6 -6 3 7 2 16 -1 19 -3 4 -6 -2 -5 -13z"/>
<path d="M937 3244 c-3 -3 -3 -12 0 -20 7 -19 83 -19 83 0 0 21 -65 37 -83 20z"/>
<path d="M1101 3231 c-10 -7 -10 -10 -1 -16 6 -4 16 -3 22 3 13 13 -4 23 -21
13z"/>
<path d="M1050 3024 c0 -8 5 -12 10 -9 6 4 8 11 5 16 -9 14 -15 11 -15 -7z"/>
<path d="M1051 2764 c0 -11 3 -14 6 -6 3 7 2 16 -1 19 -3 4 -6 -2 -5 -13z"/>
<path d="M3255 3308 c-27 -26 -52 -45 -56 -42 -4 2 -10 -7 -13 -20 -6 -26 -46
-43 -46 -20 0 8 8 14 17 14 9 0 13 3 10 6 -10 10 12 44 28 44 8 0 15 7 15 15
0 8 -4 15 -10 15 -5 0 -10 -4 -10 -8 0 -4 -18 -28 -40 -52 -38 -42 -49 -78
-22 -72 16 3 15 -2 -7 -46 -10 -20 -24 -60 -30 -89 -7 -28 -19 -54 -26 -57 -7
-2 -15 -15 -17 -28 -2 -15 -10 -23 -25 -24 -11 -1 -43 -20 -70 -43 -27 -22
-57 -41 -67 -41 -13 0 -17 -5 -13 -20 3 -13 0 -20 -9 -20 -8 0 -14 -4 -14 -10
0 -5 -7 -10 -15 -10 -8 0 -12 -6 -9 -14 3 -7 -2 -21 -11 -30 -13 -12 -21 -14
-37 -5 -30 16 -32 4 -3 -27 27 -29 18 -47 -11 -23 -13 10 -17 10 -24 -1 -11
-18 -10 -81 1 -74 5 3 9 14 9 25 0 24 9 24 26 2 12 -17 14 -16 38 6 l26 24 1
-29 c1 -16 2 -37 3 -46 1 -10 6 -17 11 -17 6 0 9 7 7 15 -2 9 1 21 6 27 18 23
21 71 5 83 -14 10 -13 17 12 63 18 33 37 54 52 57 13 4 23 11 23 16 0 6 7 8
14 5 9 -4 13 -1 10 7 -3 7 5 21 16 31 20 19 21 18 26 -2 4 -13 17 -23 35 -27
27 -5 43 -36 19 -36 -13 0 -13 -27 0 -35 5 -3 22 1 37 10 16 9 20 14 11 11
-20 -6 -25 9 -5 17 6 2 18 22 26 43 7 22 19 46 26 54 14 17 30 60 34 91 0 5 5
7 11 4 6 -3 9 4 8 17 -1 22 35 120 55 145 13 18 -2 35 -28 31 -32 -7 -22 10
31 52 52 41 66 47 58 26 -11 -27 5 -17 21 14 23 44 19 51 -22 48 -29 -2 -50
-14 -88 -50z m-65 -178 c0 -11 -4 -20 -9 -20 -5 0 -7 9 -4 20 3 11 7 20 9 20
2 0 4 -9 4 -20z m-20 -58 c0 -5 -3 -12 -7 -16 -4 -4 -9 -19 -11 -34 -2 -15 -7
-31 -13 -36 -5 -6 -9 -20 -9 -33 0 -15 -4 -21 -15 -17 -12 5 -12 9 0 27 7 12
19 43 26 70 6 26 15 47 20 47 5 0 9 -4 9 -8z"/>
<path d="M3396 3285 c-3 -8 -1 -15 4 -15 6 0 10 7 10 15 0 8 -2 15 -4 15 -2 0
-6 -7 -10 -15z"/>
<path d="M3297 3193 c-4 -3 -7 -11 -7 -17 0 -6 5 -5 12 2 6 6 9 14 7 17 -3 3
-9 2 -12 -2z"/>
<path d="M3095 3170 c-4 -6 -11 -8 -16 -5 -5 4 -9 -8 -9 -24 0 -17 5 -31 10
-31 6 0 10 6 10 14 0 7 7 19 15 26 8 7 15 16 15 21 0 12 -17 11 -25 -1z"/>
<path d="M3300 3135 c-6 -8 -10 -19 -8 -26 2 -6 9 0 16 15 13 29 10 33 -8 11z"/>
<path d="M2985 2990 c-3 -5 -1 -10 4 -10 6 0 11 5 11 10 0 6 -2 10 -4 10 -3 0
-8 -4 -11 -10z"/>
<path d="M2851 2944 c0 -11 3 -14 6 -6 3 7 2 16 -1 19 -3 4 -6 -2 -5 -13z"/>
<path d="M3238 2953 c7 -3 16 -2 19 1 4 3 -2 6 -13 5 -11 0 -14 -3 -6 -6z"/>
<path d="M2886 2931 c-3 -5 0 -11 8 -14 8 -3 17 1 20 9 6 15 -19 20 -28 5z"/>
<path d="M3366 2926 c3 -9 11 -16 16 -16 13 0 5 23 -10 28 -7 2 -10 -2 -6 -12z"/>
<path d="M2814 2909 c-3 -6 -15 -9 -25 -6 -24 7 -25 -18 -1 -32 16 -9 16 -11
-2 -24 -14 -10 -16 -16 -7 -22 18 -11 38 14 45 58 7 37 3 47 -10 26z"/>
<path d="M2750 2849 c0 -5 5 -7 10 -4 6 3 10 8 10 11 0 2 -4 4 -10 4 -5 0 -10
-5 -10 -11z"/>
<path d="M3200 2844 c0 -10 -6 -14 -14 -11 -17 7 -34 -26 -38 -74 -3 -32 -1
-36 19 -36 14 0 23 6 23 14 0 9 -6 13 -14 10 -11 -4 -13 -1 -10 11 3 9 8 23
10 31 3 11 7 11 19 1 13 -10 15 -8 15 13 0 14 3 32 6 41 3 9 1 16 -5 16 -6 0
-11 -7 -11 -16z"/>
<path d="M3045 2830 c-3 -5 -1 -10 4 -10 6 0 11 5 11 10 0 6 -2 10 -4 10 -3 0
-8 -4 -11 -10z"/>
<path d="M2764 2790 c0 -13 4 -16 10 -10 7 7 7 13 0 20 -6 6 -10 3 -10 -10z"/>
<path d="M3008 2780 c-3 -17 -1 -33 4 -36 13 -8 10 -112 -4 -117 -10 -4 -10
-7 0 -15 7 -5 10 -16 6 -27 -5 -12 -3 -16 6 -13 7 2 14 17 16 32 5 45 24 57
24 16 0 -53 24 -20 26 36 1 25 5 52 8 60 3 8 1 14 -5 14 -6 0 -16 -13 -22 -30
-15 -40 -30 -38 -22 3 11 54 16 67 26 67 5 0 9 5 9 10 0 6 -7 10 -15 10 -8 0
-15 -7 -15 -15 0 -8 -5 -15 -11 -15 -5 0 -9 10 -7 22 2 11 -2 23 -8 25 -7 2
-14 -10 -16 -27z"/>
<path d="M2920 2790 c0 -5 5 -10 10 -10 6 0 10 5 10 10 0 6 -4 10 -10 10 -5 0
-10 -4 -10 -10z"/>
<path d="M2918 2734 c-3 -16 -9 -37 -13 -46 -5 -13 -3 -18 9 -18 9 0 16 -6 15
-12 -1 -7 -1 -21 0 -32 1 -16 3 -17 18 -5 10 8 14 9 10 2 -4 -6 -3 -14 2 -17
13 -8 22 22 15 50 -4 15 -2 24 6 24 14 0 4 36 -18 65 -11 16 -13 16 -9 3 8
-23 -2 -23 -18 -1 -11 14 -13 13 -17 -13z"/>
<path d="M3146 2685 c-3 -8 -1 -15 4 -15 6 0 10 7 10 15 0 8 -2 15 -4 15 -2 0
-6 -7 -10 -15z"/>
<path d="M2792 2621 c-11 -7 -10 -10 3 -15 23 -9 25 -8 25 9 0 17 -9 19 -28 6z"/>
<path d="M2791 2573 c-16 -17 -11 -25 8 -14 7 5 12 13 10 19 -2 6 -10 4 -18
-5z"/>
<path d="M2831 2564 c0 -11 3 -14 6 -6 3 7 2 16 -1 19 -3 4 -6 -2 -5 -13z"/>
<path d="M3075 2566 c-3 -9 -7 -23 -10 -31 -2 -8 -8 -14 -12 -13 -4 2 -9 -1
-10 -7 -1 -5 5 -9 13 -7 17 4 19 -15 2 -21 -7 -2 -10 -8 -5 -12 12 -13 29 10
33 45 2 17 6 35 9 40 3 5 1 11 -5 15 -6 3 -12 -1 -15 -9z"/>
<path d="M2884 2533 c-4 -16 -11 -33 -16 -40 -11 -14 0 -39 12 -26 10 10 24
93 16 93 -3 0 -9 -12 -12 -27z"/>
<path d="M2807 2523 c-11 -10 -8 -41 4 -49 13 -8 24 3 34 34 5 17 2 22 -13 22
-10 0 -22 -3 -25 -7z"/>
<path d="M2937 2485 c-4 -8 -2 -17 3 -20 6 -4 10 3 10 14 0 25 -6 27 -13 6z"/>
<path d="M2967 2470 c-3 -11 -2 -20 3 -20 12 0 21 28 11 35 -5 2 -11 -4 -14
-15z"/>
<path d="M2827 2436 c-4 -10 0 -12 15 -8 17 4 20 2 15 -11 -4 -10 -2 -17 3
-17 14 0 21 17 14 34 -8 20 -40 21 -47 2z"/>
<path d="M2896 2409 c-10 -17 -16 -32 -13 -35 9 -9 36 9 43 28 11 35 -11 40
-30 7z"/>
<path d="M2956 2381 c-4 -5 -3 -16 0 -24 3 -9 -3 -24 -13 -35 -39 -41 -20 -58
23 -19 20 19 23 29 18 55 -6 32 -18 41 -28 23z"/>
<path d="M2683 2348 c3 -9 -2 -27 -11 -40 -21 -27 -28 -83 -13 -93 6 -3 11 2
11 12 0 10 7 29 16 41 8 12 12 27 8 33 -3 6 -2 14 4 18 7 4 5 13 -5 26 -12 15
-14 16 -10 3z"/>
<path d="M2835 2280 c-10 -11 -15 -23 -12 -27 12 -11 56 18 50 33 -7 19 -17
18 -38 -6z"/>
<path d="M2616 2265 c4 -8 10 -12 15 -9 11 6 2 24 -11 24 -5 0 -7 -7 -4 -15z"/>
<path d="M2971 2254 c0 -11 3 -14 6 -6 3 7 2 16 -1 19 -3 4 -6 -2 -5 -13z"/>
<path d="M2733 2245 c-8 -22 6 -33 17 -15 13 20 12 30 0 30 -6 0 -13 -7 -17
-15z"/>
<path d="M2780 2226 c0 -9 5 -16 10 -16 6 0 10 4 10 9 0 6 -4 13 -10 16 -5 3
-10 -1 -10 -9z"/>
<path d="M2620 2211 c0 -6 5 -13 10 -16 6 -3 10 1 10 9 0 9 -4 16 -10 16 -5 0
-10 -4 -10 -9z"/>
<path d="M2837 2213 c-10 -9 -9 -23 2 -23 5 0 11 7 15 15 5 15 -5 20 -17 8z"/>
<path d="M2730 2194 c0 -8 5 -12 10 -9 6 4 8 11 5 16 -9 14 -15 11 -15 -7z"/>
<path d="M2640 2170 c0 -8 5 -22 10 -30 7 -12 12 -12 22 -2 9 9 9 15 0 24 -7
7 -12 8 -12 3 0 -6 -5 -3 -10 5 -9 13 -10 13 -10 0z"/>
<path d="M2752 2157 c-21 -22 -20 -37 0 -37 9 0 31 50 25 56 -2 2 -13 -7 -25
-19z"/>
<path d="M2795 2150 c-3 -5 -1 -10 4 -10 6 0 11 5 11 10 0 6 -2 10 -4 10 -3 0
-8 -4 -11 -10z"/>
<path d="M2865 2130 c-3 -5 1 -10 9 -10 9 0 16 5 16 10 0 6 -4 10 -9 10 -6 0
-13 -4 -16 -10z"/>
<path d="M2697 2115 c-4 -8 -2 -17 3 -20 6 -4 10 3 10 14 0 25 -6 27 -13 6z"/>
<path d="M2655 2080 c-4 -17 -5 -34 -2 -36 2 -3 7 10 11 27 8 42 0 50 -9 9z"/>
<path d="M2790 2074 c-6 -14 -8 -30 -4 -35 3 -5 -2 -9 -11 -9 -11 0 -15 -5
-12 -14 3 -8 1 -16 -5 -18 -6 -2 -8 -9 -4 -16 9 -14 36 -4 36 14 0 7 6 11 13
8 7 -2 19 7 27 21 14 25 14 26 22 6 4 -12 5 -29 2 -39 -5 -14 -3 -14 10 2 21
26 22 75 2 68 -15 -5 -56 20 -50 30 3 4 0 8 -6 8 -6 0 -15 -12 -20 -26z m30
-34 c0 -5 -4 -10 -10 -10 -5 0 -10 5 -10 10 0 6 5 10 10 10 6 0 10 -4 10 -10z"/>
<path d="M2700 2070 c0 -5 7 -10 15 -10 8 0 15 5 15 10 0 6 -7 10 -15 10 -8 0
-15 -4 -15 -10z"/>
<path d="M2950 2019 c0 -16 4 -28 9 -25 8 5 3 56 -5 56 -2 0 -4 -14 -4 -31z"/>
<path d="M2740 1956 c0 -9 5 -16 10 -16 6 0 10 4 10 9 0 6 -4 13 -10 16 -5 3
-10 -1 -10 -9z"/>
<path d="M2789 1963 c-1 -4 0 -18 1 -31 1 -12 -2 -22 -7 -21 -19 3 -33 -2 -33
-12 0 -6 9 -9 20 -6 16 4 20 1 18 -13 -2 -11 2 -19 7 -20 6 0 10 3 10 8 0 4 4
13 9 20 4 7 3 19 -3 26 -6 7 -9 20 -5 29 3 8 1 18 -5 22 -6 3 -11 3 -12 -2z"/>
<path d="M3529 1852 c-8 -9 -21 -30 -29 -45 -28 -56 -146 -193 -194 -225 -27
-18 -66 -35 -87 -38 -22 -4 -39 -12 -39 -20 0 -22 18 -26 58 -12 74 26 182
120 253 222 78 111 79 114 65 125 -10 8 -17 6 -27 -7z"/>
<path d="M2790 1821 c0 -5 5 -13 10 -16 6 -3 10 -2 10 4 0 5 -4 13 -10 16 -5
3 -10 2 -10 -4z"/>
<path d="M2760 1768 c0 -16 5 -28 10 -28 13 0 13 20 0 40 -8 12 -10 9 -10 -12z"/>
<path d="M3190 1758 c0 -19 2 -20 10 -8 13 19 13 30 0 30 -5 0 -10 -10 -10
-22z"/>
<path d="M2890 1656 c0 -9 5 -16 10 -16 6 0 10 4 10 9 0 6 -4 13 -10 16 -5 3
-10 -1 -10 -9z"/>
<path d="M2787 1584 c-4 -4 -7 -14 -7 -23 0 -11 3 -12 11 -4 6 6 10 16 7 23
-2 6 -7 8 -11 4z"/>
<path d="M2810 1550 c0 -5 5 -10 10 -10 6 0 10 5 10 10 0 6 -4 10 -10 10 -5 0
-10 -4 -10 -10z"/>
<path d="M2977 1473 c-10 -10 -8 -45 2 -39 11 7 21 46 12 46 -4 0 -11 -3 -14
-7z"/>
<path d="M3015 1431 c-3 -5 -1 -12 5 -16 5 -3 10 1 10 9 0 18 -6 21 -15 7z"/>
<path d="M2847 1378 c3 -13 10 -28 15 -35 5 -7 7 -16 4 -21 -3 -5 10 -25 29
-45 37 -40 51 -47 41 -21 -3 8 1 29 10 46 17 33 14 44 -11 35 -17 -7 -21 -27
-4 -27 5 0 7 -4 4 -10 -3 -5 -15 -10 -26 -10 -16 0 -19 5 -14 20 3 11 2 20 -4
20 -5 0 -15 16 -21 35 -13 38 -31 49 -23 13z"/>
<path d="M2370 2141 c0 -6 5 -13 10 -16 6 -3 10 1 10 9 0 9 -4 16 -10 16 -5 0
-10 -4 -10 -9z"/>
<path d="M2230 2042 c0 -5 7 -9 15 -9 8 0 15 4 15 9 0 4 -7 8 -15 8 -8 0 -15
-4 -15 -8z"/>
<path d="M2155 2020 c3 -5 8 -10 11 -10 2 0 4 5 4 10 0 6 -5 10 -11 10 -5 0
-7 -4 -4 -10z"/>
<path d="M2186 1974 c-9 -24 -7 -28 9 -14 17 14 20 30 6 30 -5 0 -12 -7 -15
-16z"/>
<path d="M2268 1973 c7 -3 16 -2 19 1 4 3 -2 6 -13 5 -11 0 -14 -3 -6 -6z"/>
<path d="M2146 1933 c-6 -14 -5 -15 5 -6 7 7 10 15 7 18 -3 3 -9 -2 -12 -12z"/>
<path d="M2264 1916 c-3 -8 -1 -23 5 -33 8 -15 10 -13 9 15 -1 35 -5 40 -14
18z"/>
<path d="M2376 1905 c9 -14 18 -25 20 -25 2 0 -2 11 -8 25 -6 14 -15 25 -20
25 -5 0 -1 -11 8 -25z"/>
<path d="M2060 1870 c0 -5 5 -10 11 -10 5 0 7 5 4 10 -3 6 -8 10 -11 10 -2 0
-4 -4 -4 -10z"/>
<path d="M2180 1840 c-8 -5 -13 -10 -10 -11 3 0 13 -2 22 -4 11 -2 15 2 11 11
-6 16 -4 16 -23 4z"/>
<path d="M2105 1811 c-3 -5 -1 -12 5 -16 5 -3 10 1 10 9 0 18 -6 21 -15 7z"/>
<path d="M2170 1781 c0 -6 5 -13 10 -16 6 -3 10 1 10 9 0 9 -4 16 -10 16 -5 0
-10 -4 -10 -9z"/>
<path d="M2206 1775 c-3 -9 0 -15 9 -15 9 0 12 6 9 15 -4 8 -7 15 -9 15 -2 0
-5 -7 -9 -15z"/>
<path d="M4071 1810 c-7 -16 -5 -58 2 -51 5 5 7 19 4 32 -2 13 -5 22 -6 19z"/>
<path d="M4096 1704 c-4 -9 -4 -19 -2 -21 8 -8 26 8 26 23 0 19 -16 18 -24 -2z"/>
<path d="M2245 1679 c-11 -17 1 -21 15 -4 8 9 8 15 2 15 -6 0 -14 -5 -17 -11z"/>
<path d="M2235 1621 c6 -11 4 -13 -9 -8 -9 4 -15 3 -11 -2 11 -19 -7 -42 -29
-36 -21 6 -21 6 -1 -10 12 -9 21 -12 23 -5 2 5 8 7 14 4 5 -3 2 -15 -9 -27
-17 -20 -17 -20 0 -14 10 4 23 7 28 7 5 0 7 11 3 25 -4 15 -2 25 5 25 6 0 8
-7 4 -17 -4 -11 -3 -14 5 -9 19 11 14 41 -10 62 -12 10 -18 13 -13 5z"/>
<path d="M2290 1570 c0 -5 5 -10 11 -10 5 0 7 5 4 10 -3 6 -8 10 -11 10 -2 0
-4 -4 -4 -10z"/>
<path d="M2331 1566 c-9 -10 -8 -16 4 -26 13 -11 15 -8 15 14 0 30 -3 32 -19
12z"/>
<path d="M2150 1539 c0 -5 5 -7 10 -4 6 3 10 8 10 11 0 2 -4 4 -10 4 -5 0 -10
-5 -10 -11z"/>
<path d="M2246 1502 c-2 -4 -1 -14 4 -22 7 -11 9 -9 7 8 -1 24 -3 26 -11 14z"/>
<path d="M2167 1473 c-10 -9 -9 -23 2 -23 5 0 11 7 15 15 5 15 -5 20 -17 8z"/>
<path d="M2346 1464 c-5 -14 -4 -15 9 -4 17 14 19 20 6 20 -5 0 -12 -7 -15
-16z"/>
<path d="M2365 1440 c3 -5 11 -10 16 -10 6 0 7 5 4 10 -3 6 -11 10 -16 10 -6
0 -7 -4 -4 -10z"/>
<path d="M2182 1419 c-21 -8 -22 -11 -9 -23 17 -17 57 -17 57 0 0 21 -24 32
-48 23z"/>
<path d="M2290 1279 c0 -5 5 -7 10 -4 6 3 10 8 10 11 0 2 -4 4 -10 4 -5 0 -10
-5 -10 -11z"/>
<path d="M1585 1580 c3 -5 8 -10 11 -10 2 0 4 5 4 10 0 6 -5 10 -11 10 -5 0
-7 -4 -4 -10z"/>
<path d="M1530 1520 c0 -5 5 -10 10 -10 6 0 10 5 10 10 0 6 -4 10 -10 10 -5 0
-10 -4 -10 -10z"/>
<path d="M1845 1490 c3 -5 10 -10 16 -10 5 0 9 5 9 10 0 6 -7 10 -16 10 -8 0
-12 -4 -9 -10z"/>
<path d="M1840 1351 c0 -5 5 -13 10 -16 6 -3 10 -2 10 4 0 5 -4 13 -10 16 -5
3 -10 2 -10 -4z"/>
<path d="M1300 1061 c0 -6 5 -13 10 -16 6 -3 10 1 10 9 0 9 -4 16 -10 16 -5 0
-10 -4 -10 -9z"/>
<path d="M1646 1014 c-8 -22 -8 -24 7 -24 7 0 13 9 13 20 0 24 -11 26 -20 4z"/>
<path d="M1436 997 c-9 -33 -7 -37 9 -31 16 7 20 39 6 48 -5 3 -11 -4 -15 -17z"/>
<path d="M1595 1000 c-4 -6 -2 -17 4 -24 7 -9 7 -16 0 -23 -8 -8 -5 -14 11
-23 30 -16 33 -9 14 29 -14 28 -14 35 -3 42 11 7 11 9 -3 9 -9 0 -20 -5 -23
-10z"/>
<path d="M1386 992 c-3 -5 1 -9 9 -9 8 0 15 4 15 9 0 4 -4 8 -9 8 -6 0 -12 -4
-15 -8z"/>
<path d="M1505 950 c-3 -5 1 -10 9 -10 9 0 16 5 16 10 0 6 -4 10 -9 10 -6 0
-13 -4 -16 -10z"/>
<path d="M1948 908 c9 -9 15 -9 24 0 9 9 7 12 -12 12 -19 0 -21 -3 -12 -12z"/>
<path d="M1687 899 c6 -6 9 -18 6 -27 -4 -10 -2 -13 5 -8 16 9 10 46 -7 46
-11 0 -12 -3 -4 -11z"/>
<path d="M1740 900 c0 -5 7 -7 15 -4 8 4 15 8 15 10 0 2 -7 4 -15 4 -8 0 -15
-4 -15 -10z"/>
<path d="M1745 870 c3 -5 11 -10 16 -10 6 0 7 5 4 10 -3 6 -11 10 -16 10 -6 0
-7 -4 -4 -10z"/>
<path d="M1880 849 c0 -18 2 -19 15 -9 15 12 12 30 -6 30 -5 0 -9 -10 -9 -21z"/>
<path d="M2100 835 c0 -8 7 -15 16 -15 14 0 14 3 4 15 -7 8 -14 15 -16 15 -2
0 -4 -7 -4 -15z"/>
<path d="M1828 803 c7 -3 16 -2 19 1 4 3 -2 6 -13 5 -11 0 -14 -3 -6 -6z"/>
<path d="M1910 90 c6 -11 15 -18 21 -14 6 4 6 11 -2 20 -17 21 -31 17 -19 -6z"/>
<path d="M0 5284 c0 -15 56 -24 153 -24 69 0 78 2 75 18 -3 15 -17 17 -116 18
-80 0 -112 -3 -112 -12z"/>
<path d="M537 5293 c-64 -3 -87 -7 -84 -16 3 -9 48 -11 178 -9 174 4 189 5
189 23 0 9 -83 9 -283 2z"/>
<path d="M245 5279 c-10 -15 -8 -16 77 -22 76 -7 109 4 77 24 -20 12 -147 11
-154 -2z"/>
<path d="M800 5250 c0 -5 5 -10 10 -10 6 0 10 5 10 10 0 6 -4 10 -10 10 -5 0
-10 -4 -10 -10z"/>
<path d="M75 5240 c-10 -17 13 -30 55 -30 26 0 31 -3 20 -10 -8 -5 -45 -10
-82 -10 -74 0 -91 -14 -31 -24 57 -9 273 -7 273 2 0 5 -10 14 -22 20 -19 9 -7
11 60 11 48 1 82 -3 82 -9 0 -6 -15 -9 -32 -8 -24 2 -33 -1 -33 -12 0 -13 26
-15 180 -13 99 2 195 5 213 8 37 7 34 25 -5 25 -22 0 -24 2 -12 16 20 25 -7
36 -71 28 -30 -3 -64 -6 -75 -6 -68 -1 -446 13 -476 18 -23 3 -40 1 -44 -6z
m515 -51 c0 -13 -101 -11 -120 2 -11 8 -3 9 30 5 25 -3 52 -1 60 4 15 9 30 4
30 -11z m120 11 c11 -7 -3 -9 -45 -9 -48 1 -54 3 -30 9 43 11 58 11 75 0z"/>
<path d="M68 5114 c-17 -16 -6 -26 24 -22 17 3 50 -1 73 -7 47 -15 138 -8 132
9 -2 6 -31 11 -68 12 -35 1 -84 4 -109 9 -25 4 -48 3 -52 -1z"/>
<path d="M645 5109 c-27 -3 -83 -4 -122 -1 -51 3 -73 1 -73 -6 0 -7 12 -15 26
-18 35 -9 225 3 236 14 14 14 -12 19 -67 11z"/>
<path d="M333 5043 c-7 -2 -13 -9 -13 -15 0 -6 7 -7 16 -4 8 3 28 -1 44 -9 35
-18 50 -3 18 19 -23 16 -42 19 -65 9z"/>
<path d="M88 5023 c-10 -2 -18 -8 -18 -13 0 -12 49 -7 50 5 2 11 -9 14 -32 8z"/>
<path d="M590 5021 c0 -12 37 -24 50 -16 20 12 10 25 -20 25 -16 0 -30 -4 -30
-9z"/>
<path d="M790 5020 c0 -5 5 -10 10 -10 6 0 10 5 10 10 0 6 -4 10 -10 10 -5 0
-10 -4 -10 -10z"/>
<path d="M1080 619 c0 -5 5 -7 10 -4 6 3 10 8 10 11 0 2 -4 4 -10 4 -5 0 -10
-5 -10 -11z"/>
<path d="M4348 619 c-22 -12 -24 -39 -3 -39 8 0 23 5 34 11 10 7 32 9 52 5 42
-8 168 -67 212 -99 60 -45 100 -58 187 -63 75 -4 90 -1 125 19 22 12 41 30 43
39 3 15 -1 14 -35 -3 -27 -14 -58 -19 -113 -19 -65 0 -82 4 -130 32 -135 76
-164 91 -213 109 -56 21 -132 24 -159 8z"/>
<path d="M612 540 c-15 -24 -16 -40 -2 -40 6 0 10 6 10 14 0 8 7 22 16 30 12
12 12 16 2 16 -7 0 -19 -9 -26 -20z"/>
<path d="M1197 545 c-4 -8 -2 -17 3 -20 6 -4 10 3 10 14 0 25 -6 27 -13 6z"/>
<path d="M1050 520 c0 -5 5 -10 11 -10 5 0 7 5 4 10 -3 6 -8 10 -11 10 -2 0
-4 -4 -4 -10z"/>
<path d="M966 502 c-3 -6 -1 -14 5 -17 15 -10 25 3 12 16 -7 7 -13 7 -17 1z"/>
<path d="M1206 502 c-2 -4 13 -6 35 -4 21 2 39 6 39 8 0 7 -69 4 -74 -4z"/>
<path d="M1050 470 c0 -5 5 -10 10 -10 6 0 10 5 10 10 0 6 -4 10 -10 10 -5 0
-10 -4 -10 -10z"/>
<path d="M1550 470 c0 -5 5 -10 10 -10 6 0 10 5 10 10 0 6 -4 10 -10 10 -5 0
-10 -4 -10 -10z"/>
<path d="M860 449 c-11 -7 -8 -8 11 -3 15 3 30 1 33 -5 9 -15 23 -14 29 2 6
15 -52 21 -73 6z"/>
<path d="M894 418 c-10 -16 4 -22 28 -11 l22 10 -22 5 c-12 4 -25 2 -28 -4z"/>
<path d="M1395 421 c-3 -5 -1 -12 5 -16 5 -3 10 1 10 9 0 18 -6 21 -15 7z"/>
<path d="M1315 373 c-33 -5 -57 -21 -50 -33 6 -10 85 20 85 32 0 4 -1 7 -2 7
-2 -1 -16 -4 -33 -6z"/>
<path d="M1060 356 c0 -8 5 -18 10 -21 6 -3 10 1 10 9 0 8 -4 18 -10 21 -5 3
-10 -1 -10 -9z"/>
<path d="M985 299 c-11 -17 1 -21 15 -4 8 9 8 15 2 15 -6 0 -14 -5 -17 -11z"/>
<path d="M1160 299 c0 -5 5 -7 10 -4 6 3 10 8 10 11 0 2 -4 4 -10 4 -5 0 -10
-5 -10 -11z"/>
<path d="M1210 300 c0 -5 5 -10 10 -10 6 0 10 5 10 10 0 6 -4 10 -10 10 -5 0
-10 -4 -10 -10z"/>
<path d="M1058 253 c7 -3 16 -2 19 1 4 3 -2 6 -13 5 -11 0 -14 -3 -6 -6z"/>
<path d="M1120 225 c-7 -9 -8 -15 -2 -15 5 0 12 7 16 15 3 8 4 15 2 15 -2 0
-9 -7 -16 -15z"/>
<path d="M2167 33 c-16 -8 -47 -18 -70 -23 -33 -6 -19 -8 68 -9 92 -1 106 1
89 12 -12 6 -30 17 -40 24 -15 9 -25 8 -47 -4z"/>
<path d="M1688 3 c7 -3 16 -2 19 1 4 3 -2 6 -13 5 -11 0 -14 -3 -6 -6z"/>
</g>
</svg>
