<?xml version="1.0" standalone="no"?>
<!DOCTYPE svg PUBLIC "-//W3C//DTD SVG 20010904//EN"
 "http://www.w3.org/TR/2001/REC-SVG-20010904/DTD/svg10.dtd">
<svg version="1.0" xmlns="http://www.w3.org/2000/svg"
 width="500.000000pt" height="878.000000pt" viewBox="0 0 500.000000 878.000000"
 preserveAspectRatio="xMidYMid meet">
<metadata>
Created by potrace 1.15, written by Peter Selinger 2001-2017
</metadata>
<g transform="translate(0.000000,878.000000) scale(0.100000,-0.100000)"
fill="#000000" stroke="none">
<path d="M2094 8508 c-10 -15 1 -19 56 -20 61 -2 64 -5 115 -129 26 -63 32
-85 22 -91 -6 -4 -47 -8 -89 -8 -48 0 -78 -4 -78 -11 0 -13 764 -6 768 7 1 5
-18 10 -43 12 -37 3 -46 7 -50 25 -7 29 -9 91 -7 150 l2 47 76 -1 c74 -1 95 4
80 19 -11 10 -846 11 -852 0z m500 -26 c3 -5 8 -54 12 -110 l7 -101 -28 -7
c-33 -8 -185 2 -197 14 -9 9 11 79 43 147 22 45 28 51 64 56 62 9 93 10 99 1z
m140 -8 c3 -9 6 -58 6 -109 l0 -93 -35 -4 c-19 -2 -40 1 -45 6 -15 15 -13 189
2 204 17 17 65 15 72 -4z m-334 -8 c0 -22 -51 -156 -59 -156 -12 0 -73 148
-66 159 3 6 33 11 66 11 45 0 59 -3 59 -14z"/>
<path d="M2634 6930 c-21 -11 -44 -20 -50 -20 -15 0 -64 -57 -64 -75 0 -7 -11
-38 -25 -68 -14 -30 -31 -88 -38 -129 -11 -69 -13 -73 -39 -73 -14 0 -29 -3
-33 -7 -4 -4 -14 -4 -22 -1 -8 3 -21 -3 -29 -16 -8 -11 -23 -21 -33 -21 -14 0
-20 -10 -24 -42 -3 -23 -1 -51 5 -62 9 -16 7 -23 -11 -34 -20 -14 -20 -16 -5
-33 14 -16 13 -21 -20 -71 -20 -29 -61 -86 -91 -127 -30 -41 -55 -80 -55 -88
0 -7 -5 -13 -10 -13 -19 0 -94 42 -146 81 -28 21 -66 44 -84 51 -32 11 -35 10
-66 -26 -18 -21 -37 -51 -43 -67 -9 -27 -8 -30 42 -62 29 -19 69 -44 90 -56
49 -30 47 -40 -5 -30 -60 13 -152 29 -160 29 -13 0 -9 43 17 170 14 68 25 141
25 163 0 30 7 48 30 74 34 39 37 68 14 136 -21 61 -56 87 -115 83 -102 -6
-155 -95 -114 -192 14 -34 13 -38 -26 -119 -52 -109 -89 -219 -79 -235 12 -19
27 -4 33 34 7 47 84 226 105 248 15 15 23 15 67 4 49 -13 50 -14 47 -47 -4
-34 -31 -161 -53 -252 l-13 -48 -45 7 c-25 3 -62 10 -81 14 -46 11 -219 77
-245 94 -28 18 -73 28 -95 21 -32 -10 -65 -141 -38 -149 7 -2 59 -18 116 -36
74 -22 102 -35 102 -47 0 -9 -7 -52 -16 -96 -13 -62 -14 -88 -6 -115 9 -29 7
-51 -15 -131 -78 -292 -116 -431 -128 -476 -8 -27 -16 -63 -19 -80 -6 -33 -77
-315 -151 -600 -26 -99 -58 -227 -71 -285 -14 -58 -27 -113 -30 -123 -3 -10
-24 -30 -47 -44 -23 -14 -61 -47 -84 -72 l-42 -46 6 -65 c3 -36 10 -75 15 -88
10 -30 34 -23 30 9 -1 13 -2 35 -2 49 0 14 -5 38 -11 53 -11 27 -9 31 41 82
69 70 81 64 48 -24 -7 -19 -11 -21 -23 -11 -8 6 -19 9 -25 5 -15 -9 -12 -128
4 -160 18 -34 10 -67 -10 -40 -7 9 -17 14 -23 11 -6 -4 -40 -66 -77 -139 -37
-73 -95 -185 -130 -249 -82 -150 -84 -198 -8 -198 34 0 76 38 89 80 3 11 10
20 14 20 9 0 -32 -182 -52 -230 -28 -66 -29 -104 -6 -134 24 -30 44 -28 94 9
29 21 59 90 79 178 6 25 9 27 46 21 30 -5 44 -2 65 14 14 11 33 18 43 16 12
-3 98 76 292 271 151 151 281 275 289 275 7 0 30 -10 50 -22 60 -38 159 -29
281 25 14 6 32 17 40 23 30 25 67 27 82 5 20 -28 85 -71 108 -71 10 0 32 11
48 25 17 14 33 25 37 25 11 0 95 90 95 102 0 6 3 9 6 5 3 -3 23 3 42 14 20 10
44 19 54 19 9 0 20 5 23 10 4 6 10 8 15 5 8 -5 82 22 90 34 3 4 14 11 25 15
11 4 16 4 12 0 -4 -4 1 -13 10 -19 15 -11 15 -15 4 -29 -12 -15 -11 -15 10 -7
16 6 23 15 21 27 -2 11 -5 23 -5 29 -3 15 92 57 139 63 l42 4 11 -68 c8 -44
10 -101 5 -163 -4 -53 -7 -127 -7 -166 0 -56 -3 -73 -18 -86 -10 -9 -16 -19
-12 -23 3 -3 -1 -6 -11 -6 -16 0 -16 -1 -1 -16 9 -9 13 -24 10 -32 -3 -8 0
-19 7 -24 8 -5 3 -6 -13 -3 -20 5 -27 2 -31 -13 -4 -15 -1 -18 17 -14 19 3 22
-1 22 -25 -1 -15 1 -35 4 -43 3 -11 -3 -14 -19 -13 -15 2 -21 -1 -16 -8 3 -6
1 -15 -7 -19 -10 -7 -10 -11 0 -24 7 -9 11 -25 8 -36 -3 -11 -1 -23 4 -26 5
-3 9 3 9 13 0 10 4 23 8 30 4 7 8 -17 8 -52 -1 -36 -4 -65 -8 -65 -3 0 -13 -2
-20 -5 -9 -4 -14 2 -15 17 -2 17 0 19 7 8 12 -20 23 -6 15 19 -4 12 -15 21
-28 22 -12 0 -16 3 -9 6 18 7 14 33 -5 33 -14 0 -18 -9 -20 -42 -1 -24 5 -47
13 -55 8 -8 11 -19 8 -25 -6 -9 12 -6 52 9 6 2 11 -3 11 -12 0 -8 -4 -15 -9
-15 -5 0 -8 -10 -6 -22 2 -13 9 -22 17 -20 8 2 11 -3 8 -12 -4 -9 -2 -18 4
-21 5 -4 9 -12 8 -18 -1 -7 3 -25 9 -40 17 -39 14 -57 -3 -27 -8 14 -14 19
-15 12 0 -19 30 -62 44 -62 6 0 12 -9 12 -20 0 -19 -1 -19 -23 2 l-23 22 2
-27 c2 -28 19 -39 53 -33 11 2 22 0 25 -5 3 -4 14 0 25 8 13 10 16 17 8 20 -7
2 -9 11 -6 19 4 10 0 12 -13 7 -16 -6 -17 -5 -4 9 8 9 18 14 23 11 4 -2 7 5 7
15 0 11 -9 22 -20 25 -11 3 -20 1 -20 -3 0 -5 7 -10 15 -12 12 -2 11 -6 -6
-16 -19 -12 -21 -12 -16 1 3 8 0 20 -6 26 -8 8 -8 14 -2 19 12 8 15 53 3 46
-4 -3 -8 0 -8 5 0 6 -4 11 -8 11 -5 0 -9 -7 -9 -15 0 -8 4 -15 9 -15 4 0 8 -6
8 -14 0 -14 -29 -30 -38 -21 -3 3 -2 5 3 5 4 0 1 7 -6 17 -11 13 -11 17 -1 20
6 3 10 9 6 14 -3 5 0 9 6 9 6 0 8 5 5 11 -4 6 -13 8 -20 5 -8 -3 -11 2 -8 15
6 22 23 26 23 5 0 -18 16 -29 30 -21 7 4 7 13 0 24 -5 10 -12 49 -16 87 l-7
69 21 -26 c13 -15 19 -34 16 -46 -13 -50 84 -292 140 -348 40 -39 42 -47 22
-64 -11 -9 -18 -8 -32 6 -10 10 -21 19 -26 19 -4 1 -13 2 -19 3 -5 0 -8 5 -4
11 3 5 11 8 18 6 7 -1 9 -1 5 1 -4 2 -5 10 -2 18 3 7 1 16 -5 20 -6 3 -11 -2
-11 -12 -1 -16 -2 -16 -13 -3 -20 25 -47 21 -47 -7 0 -14 4 -22 10 -18 6 4 8
11 5 16 -4 5 -2 9 4 9 17 0 20 -14 7 -32 -15 -20 -123 -26 -264 -15 -87 7
-168 39 -239 93 -17 13 -36 24 -42 24 -6 0 -11 5 -11 11 0 5 -5 7 -12 3 -6 -4
-8 -3 -5 3 4 6 -5 21 -19 34 -18 17 -23 19 -18 6 3 -10 1 -17 -5 -17 -6 0 -11
5 -11 11 0 5 -4 8 -10 4 -5 -3 -7 -12 -4 -19 3 -7 -3 -16 -12 -20 -23 -9 -30
0 -14 18 10 13 9 18 -3 30 -13 13 -16 13 -20 2 -3 -8 -3 -24 0 -37 5 -18 3
-21 -10 -16 -10 4 -17 3 -17 -2 0 -12 56 -19 73 -9 10 5 17 3 21 -7 3 -8 1
-15 -4 -15 -6 0 -10 -4 -10 -10 0 -5 8 -10 18 -10 13 0 14 -2 4 -9 -11 -6 -10
-11 3 -24 9 -9 14 -21 11 -26 -3 -5 1 -12 10 -15 12 -4 15 -2 10 9 -3 8 -1 15
4 15 11 0 12 -2 14 -48 3 -43 29 -70 51 -52 8 7 17 11 18 9 2 -2 11 -17 21
-32 17 -28 17 -29 -3 -22 -16 5 -20 3 -15 -9 5 -13 -3 -16 -52 -16 -33 1 -70
7 -84 15 l-25 15 29 -6 c27 -6 28 -6 15 17 -7 13 -13 26 -12 29 1 3 -9 7 -21
8 -16 1 -27 -6 -34 -23 -6 -14 -16 -25 -22 -25 -7 0 -8 6 0 19 15 29 12 40
-10 34 -11 -3 -20 -14 -20 -24 0 -26 -7 -24 -47 11 -18 17 -38 30 -43 30 -5 0
-12 9 -15 21 -4 11 -18 25 -31 31 -14 7 -32 27 -41 45 -10 21 -21 32 -29 29
-19 -7 -59 50 -74 107 -11 42 -11 50 3 64 13 13 19 14 31 3 9 -7 16 -11 17 -9
12 54 -2 80 -30 55 -19 -17 -26 -15 -22 7 0 4 -6 7 -15 7 -9 0 -12 -5 -8 -12
4 -7 3 -8 -5 -4 -6 4 -9 11 -6 16 3 4 2 10 -3 12 -4 1 -20 27 -36 56 -15 30
-21 50 -14 46 7 -5 22 -9 33 -9 11 0 25 -4 30 -7 16 -10 39 8 30 22 -4 6 -13
9 -21 6 -8 -3 -14 -1 -14 5 0 5 6 12 14 15 8 3 19 18 24 33 10 28 9 28 -28 26
-20 -1 -43 -6 -50 -10 -7 -5 -24 -9 -37 -11 -18 -2 -23 1 -19 12 4 12 0 14
-17 10 -12 -3 -16 -3 -9 0 6 3 10 9 8 13 -3 4 0 13 6 21 8 13 9 12 5 -2 -6
-18 13 -30 31 -19 8 5 4 18 -13 43 -31 46 -31 48 0 48 19 0 25 5 25 22 0 21 0
21 -16 2 -15 -19 -15 -19 -5 2 11 22 -1 54 -13 35 -4 -6 -4 -15 -1 -21 3 -6
-1 -7 -9 -4 -9 3 -16 10 -16 15 0 5 -6 9 -14 9 -8 0 -18 5 -22 12 -5 7 -2 9 9
5 12 -4 14 -2 10 10 -5 13 -3 14 15 4 12 -7 22 -8 22 -4 0 4 16 -10 36 -32 21
-22 32 -41 25 -43 -6 -2 -9 -8 -5 -13 3 -5 2 -9 -3 -8 -21 4 -31 -2 -29 -18 2
-9 8 -19 14 -21 7 -2 10 3 6 12 -4 10 -1 16 9 16 10 0 13 -7 10 -20 -3 -11 -1
-20 5 -20 13 0 33 25 25 33 -3 4 -8 26 -10 49 -4 41 -4 42 12 23 9 -11 13 -14
10 -7 -5 10 1 9 24 -2 17 -9 31 -19 31 -22 0 -3 -6 -2 -12 1 -7 4 -4 0 6 -9
10 -8 24 -13 29 -9 6 4 8 0 4 -11 -4 -10 -7 -24 -7 -32 0 -9 -4 -12 -10 -9 -5
3 -17 -3 -27 -14 -9 -11 -21 -17 -26 -14 -6 4 -7 1 -3 -6 6 -9 13 -8 28 6 18
16 20 16 29 1 5 -10 16 -15 25 -11 8 3 14 2 13 -3 -4 -25 3 -44 17 -44 11 0
14 6 8 22 -6 20 -5 21 10 6 17 -18 22 -53 6 -43 -5 3 -10 2 -10 -4 0 -5 -8
-12 -17 -14 -11 -3 -7 -5 10 -6 16 -1 26 -5 22 -11 -4 -6 -11 -7 -17 -4 -7 4
-8 2 -4 -4 9 -15 43 -15 48 -1 3 8 10 6 21 -5 19 -19 22 -36 7 -36 -5 0 -10
-9 -10 -20 0 -11 5 -20 11 -20 6 0 9 7 6 14 -11 27 37 1 51 -27 7 -15 18 -27
25 -27 16 0 74 -55 82 -77 7 -22 140 -87 161 -79 24 9 12 38 -21 49 -35 11
-65 35 -64 51 0 7 2 6 5 -1 8 -19 54 6 54 29 0 11 -4 17 -9 13 -5 -3 -13 0
-16 5 -5 7 -11 6 -19 -5 -10 -15 -14 -15 -41 -1 -17 9 -37 16 -47 16 -9 0 -35
21 -58 47 -40 45 -41 48 -21 57 23 10 26 23 10 46 -9 13 -10 13 -6 -2 8 -24
-22 -32 -44 -12 -22 20 -25 50 -6 58 6 3 3 4 -9 1 -16 -4 -29 5 -58 41 -20 26
-36 54 -36 63 0 28 16 43 41 39 19 -2 24 -9 22 -28 -1 -14 1 -19 3 -13 4 10
12 9 35 -2 20 -11 28 -12 27 -4 -2 7 8 16 22 20 26 7 26 8 -2 14 -10 2 -18 0
-18 -4 0 -4 -7 -8 -16 -8 -14 0 -14 2 2 14 15 11 16 15 5 26 -11 9 -14 9 -18
0 -3 -7 -9 -13 -14 -13 -6 0 -8 4 -5 9 4 5 2 20 -2 33 -5 12 -6 33 -3 46 l6
23 29 -30 c17 -17 24 -31 17 -31 -9 0 -9 -3 1 -14 7 -8 17 -11 22 -8 5 3 7 -2
3 -11 -8 -20 4 -22 22 -4 11 10 13 9 8 -5 -3 -10 -2 -20 3 -23 6 -4 10 -11 10
-16 0 -6 -6 -7 -12 -3 -9 5 -8 2 1 -9 19 -24 23 -17 27 49 4 55 3 57 -39 96
-23 22 -73 55 -111 73 -39 18 -64 35 -57 39 6 4 11 12 11 17 0 6 -5 7 -10 4
-5 -3 -10 4 -10 15 0 17 4 21 18 16 9 -4 4 5 -12 19 -31 27 -41 32 -30 14 4
-6 10 -27 14 -45 7 -29 5 -34 -10 -34 -13 0 -16 6 -12 25 6 31 -5 58 -19 49
-8 -4 -7 -9 2 -15 11 -6 10 -12 -6 -26 -25 -22 -54 -27 -88 -14 -19 7 -28 6
-37 -4 -6 -8 -9 -19 -6 -24 8 -13 65 -41 83 -41 9 0 13 -8 11 -22 -2 -13 2
-23 7 -23 16 0 35 -15 35 -28 0 -7 -4 -6 -11 3 -9 13 -10 13 -6 0 5 -21 44
-25 44 -5 0 8 -4 15 -9 15 -5 0 -6 5 -3 10 4 6 11 8 16 5 5 -4 9 1 9 9 0 22
19 20 55 -5 17 -12 22 -19 13 -16 -9 3 -19 -1 -22 -9 -3 -8 -2 -12 3 -9 10 5
22 -23 26 -60 2 -17 -4 -21 -28 -23 -17 -2 -35 -8 -39 -15 -5 -8 -8 -7 -8 6 0
9 6 17 13 17 7 1 4 6 -7 15 -10 7 -16 18 -13 22 3 5 -5 10 -19 11 -25 2 -33
-13 -11 -21 7 -3 5 -6 -5 -6 -10 -1 -18 3 -18 8 0 5 -8 11 -17 14 -28 9 -155
57 -185 70 -17 7 -23 14 -15 19 6 4 8 10 4 14 -3 4 -13 1 -22 -6 -8 -7 -15 -8
-15 -3 0 14 -84 3 -97 -14 -15 -19 -49 -3 -58 28 -6 16 3 31 36 65 36 37 40
44 25 50 -20 8 -62 -29 -129 -113 -23 -29 -47 -53 -53 -53 -15 0 -51 -41 -63
-72 -6 -16 -24 -33 -43 -41 -41 -17 -112 -88 -126 -124 -25 -70 -40 -133 -36
-150 3 -11 -4 -47 -15 -81 -12 -34 -21 -81 -22 -104 0 -24 -10 -72 -22 -108
-22 -64 -22 -65 -60 -66 -27 -1 -41 4 -48 17 -5 11 -27 28 -48 39 -33 16 -43
17 -71 7 -27 -10 -33 -10 -43 4 -31 41 -116 51 -217 24 -41 -10 -63 -24 -88
-52 -19 -21 -39 -39 -45 -39 -7 -1 -22 -2 -34 -3 -12 0 -38 -15 -58 -32 l-35
-31 0 28 c0 27 15 93 46 200 16 59 18 84 4 84 -24 0 -67 -125 -89 -260 -8 -53
-17 -70 -37 -70 -17 0 -19 21 -2 38 8 8 8 15 -2 27 -17 21 -41 19 -47 -4 -9
-33 -83 -85 -123 -86 -43 -1 -100 -38 -100 -66 0 -24 5 -24 39 0 15 11 45 21
67 23 l39 3 5 -80 c4 -44 4 -96 2 -115 l-4 -35 -74 3 -74 4 0 -45 0 -44 71 -7
c71 -7 99 0 85 23 -4 6 -18 11 -32 11 -13 0 -24 5 -24 11 0 5 5 7 11 4 5 -4
19 1 30 11 18 16 19 16 19 -3 0 -46 73 -63 171 -40 79 19 128 28 154 28 11 0
45 -1 75 -1 30 0 95 5 144 11 103 13 166 1 166 -33 0 -17 -5 -19 -30 -13 -19
4 -30 3 -30 -4 0 -6 -7 -11 -15 -11 -20 0 -20 -39 0 -46 23 -9 7 -25 -20 -18
-12 3 -26 1 -30 -6 -10 -16 14 -40 41 -40 12 0 26 -5 30 -11 5 -8 -5 -9 -34
-4 -44 7 -62 -6 -42 -30 10 -12 9 -15 -9 -15 -35 0 -28 -39 9 -47 37 -7 38
-16 5 -31 -29 -13 -32 -27 -9 -40 15 -8 13 -17 -11 -88 -33 -95 -67 -164 -72
-146 -3 8 -26 12 -66 12 -34 0 -96 5 -138 11 -65 10 -83 10 -124 -4 -41 -14
-51 -15 -64 -4 -22 19 -114 46 -186 55 -53 6 -60 10 -63 31 -3 21 -1 23 20 17
12 -4 46 -14 75 -21 28 -7 57 -17 65 -21 7 -5 92 -10 188 -11 96 -1 206 -4
244 -5 74 -3 90 7 60 36 -11 11 -23 14 -38 10 -11 -4 -28 -7 -36 -7 -42 4
-302 12 -346 12 -34 0 -55 5 -64 16 -7 8 -27 15 -44 15 -27 1 -62 11 -118 35
-16 6 -18 0 -18 -71 l0 -79 50 3 c61 5 145 -22 177 -56 l24 -25 56 23 c53 22
61 23 125 12 38 -7 93 -12 122 -12 73 0 89 -6 75 -32 -8 -15 -7 -24 4 -36 20
-24 11 -45 -12 -30 -16 10 -29 1 -92 -61 -142 -138 -105 -123 -291 -121 -235
2 -238 2 -238 -15 0 -16 48 -19 248 -15 50 1 92 -2 92 -7 0 -5 -11 -20 -24
-32 -22 -21 -30 -22 -170 -19 -133 3 -146 1 -146 -14 0 -15 15 -18 133 -20
l132 -3 3 -26 c2 -17 -8 -42 -28 -71 -37 -53 -49 -111 -28 -136 8 -9 18 -25
21 -34 10 -28 138 -25 221 6 67 24 106 52 228 161 118 107 122 108 348 111
558 6 2140 8 2146 2 3 -4 -11 -15 -32 -25 -28 -13 -42 -28 -51 -53 -10 -32
-10 -37 10 -54 20 -17 34 -18 152 -13 85 4 143 11 168 21 33 14 37 20 37 52 0
19 7 48 15 64 l15 29 148 0 c205 0 1089 13 1132 16 19 2 79 3 133 4 82 1 97 3
97 17 0 17 -159 17 -1228 -1 -230 -4 -263 -3 -269 10 -3 9 -3 18 -1 21 6 5
204 9 958 20 278 4 513 7 523 8 16 0 17 16 16 201 0 132 -3 192 -9 177 -9 -20
-12 -21 -32 -11 -35 18 -54 55 -23 43 10 -4 18 3 25 21 7 17 15 25 25 21 12
-4 14 16 13 132 -1 75 -3 121 -5 102 -3 -29 -11 -39 -44 -58 -23 -13 -46 -37
-53 -53 -12 -29 -13 -28 -29 48 -21 96 -21 90 3 89 10 -1 19 4 20 9 0 6 -8 10
-17 10 -24 0 -33 14 -33 54 l0 33 29 -31 c32 -35 65 -40 93 -14 17 15 20 15
28 3 6 -10 10 45 10 149 0 131 -3 161 -13 153 -16 -14 -99 -3 -94 12 3 6 25
10 56 9 l51 -2 -1 157 c-1 86 -4 146 -8 132 -7 -25 -7 -25 -13 -2 -7 25 -35
30 -40 6 -2 -11 -15 -17 -42 -19 -34 -2 -39 1 -48 26 -12 34 -42 39 -58 10 -7
-13 -7 -28 0 -46 11 -29 3 -78 -11 -69 -5 3 -7 9 -4 14 13 22 -56 44 -90 28
-18 -8 -28 -7 -46 6 -29 20 -49 20 -75 2 -17 -13 -17 -18 -6 -36 15 -25 10
-35 -13 -27 -8 4 -15 17 -15 31 0 27 -14 40 -45 41 -18 0 -20 7 -20 55 l0 55
60 -1 c146 -2 244 -2 300 -1 41 1 59 -2 58 -10 -1 -6 4 -17 12 -23 12 -10 16
-8 24 13 8 21 15 25 45 22 l36 -3 -2 81 c-1 48 -3 64 -5 39 -3 -26 -12 -51
-25 -64 -20 -20 -24 -20 -118 -4 -14 2 -29 0 -35 -4 -5 -4 -29 -11 -51 -15
-36 -5 -42 -4 -47 14 -3 12 -11 21 -17 21 -7 0 -10 -8 -7 -20 5 -18 0 -20 -38
-20 -26 0 -47 6 -55 15 -9 11 -16 13 -24 5 -15 -15 -62 -12 -76 5 -10 12 -16
13 -26 4 -12 -10 -14 3 -14 74 0 83 1 87 33 120 54 57 143 127 174 137 21 8
50 8 94 1 35 -6 101 -11 146 -11 l82 0 4 -57 c3 -54 3 -53 5 17 l2 75 -107 2
c-59 1 -128 7 -154 13 -45 11 -47 13 -52 53 -3 22 -4 45 -1 49 7 11 65 -3 94
-22 34 -24 60 -31 131 -35 51 -4 60 -2 57 12 -2 9 -10 19 -18 23 -8 4 -25 12
-37 18 -13 7 -36 12 -53 12 -16 0 -30 4 -30 10 0 16 34 28 61 23 15 -3 36 0
48 7 19 10 20 13 7 31 -19 27 -65 52 -94 50 -29 -1 -82 37 -75 55 3 8 -5 18
-21 23 -33 13 -74 79 -78 126 -2 21 -8 40 -15 42 -16 5 -36 -61 -29 -95 5 -22
10 -287 7 -369 -1 -16 -25 -41 -77 -83 -42 -33 -82 -60 -88 -60 -12 0 -12 80
-2 940 3 250 5 479 6 508 0 47 3 54 25 62 27 10 29 22 25 168 -1 54 2 72 12
72 45 2 210 19 215 23 2 3 1 36 -2 74 l-7 69 -127 -4 -127 -4 -24 194 c-12
106 -29 210 -36 232 -13 36 -13 40 12 69 21 26 24 36 19 71 -9 52 -41 105 -70
116 -25 9 -103 -10 -140 -34 -12 -8 -28 -29 -35 -46 -12 -29 -11 -36 10 -75
23 -42 23 -45 11 -143 -7 -55 -14 -122 -16 -149 -9 -138 -19 -234 -25 -238 -4
-2 -70 -5 -148 -6 -93 -2 -142 -6 -143 -13 -6 -49 5 -123 19 -133 11 -9 56
-13 139 -13 l123 0 0 -39 c0 -21 3 -59 6 -85 5 -31 3 -46 -5 -46 -6 0 -11 17
-11 40 0 56 -17 62 -163 58 -67 -1 -127 1 -134 5 -7 4 -10 20 -6 40 6 37 -32
339 -48 386 -10 27 -8 35 15 62 39 45 43 76 18 120 -12 21 -22 42 -22 48 0 10
116 91 130 91 10 0 67 -67 102 -119 18 -27 35 -41 49 -41 27 0 99 71 99 98 0
21 -71 123 -108 156 -12 11 -22 25 -22 33 0 7 30 41 66 76 37 34 86 90 111
125 25 34 51 62 59 62 24 0 83 68 90 104 8 43 -11 101 -39 121 -56 39 -179 4
-192 -54 -7 -32 -43 -60 -169 -128 -75 -40 -80 -42 -107 -28 l-28 15 52 76
c29 42 59 89 67 105 8 16 22 31 31 34 8 3 28 18 43 34 22 23 27 38 29 84 2 65
-12 86 -78 111 -40 16 -46 16 -74 2 -33 -18 -81 -75 -81 -98 0 -8 -3 -18 -7
-22 -8 -8 -73 53 -73 69 0 6 14 24 31 41 41 37 144 193 159 239 7 22 26 44 53
63 52 35 69 66 63 116 -5 46 -32 86 -70 104 -34 17 -86 2 -118 -35 -39 -45
-119 -123 -237 -232 l-112 -103 -52 49 c-92 88 -116 91 -182 23 l-39 -40 19
-35 c10 -20 44 -57 74 -83 31 -25 59 -51 63 -56 7 -10 -8 -39 -61 -120 -14
-21 -33 -51 -41 -65 -8 -15 -26 -38 -38 -51 -13 -14 -62 -71 -109 -127 -47
-57 -90 -100 -95 -97 -12 8 -6 137 7 146 6 4 20 8 33 8 22 0 31 23 12 35 -19
12 -10 25 14 19 29 -7 42 9 21 26 -19 16 -20 31 -1 24 21 -8 28 12 11 29 -20
21 -19 27 4 27 27 0 37 21 18 35 -9 7 -13 16 -8 21 15 15 24 74 12 74 -16 0
-81 43 -81 54 0 5 -6 17 -14 25 -21 23 -21 138 0 258 4 18 3 49 0 68 -19 100
-179 183 -387 199 -54 4 -74 1 -105 -14z m79 -28 c9 -10 28 -19 44 -20 38 -3
50 -18 22 -27 -13 -4 -26 -11 -29 -16 -3 -5 -30 -6 -59 -2 -31 3 -47 9 -40 14
10 6 10 11 0 23 -11 13 -11 19 -1 31 17 20 43 19 63 -3z m258 -48 c10 -9 16
-21 13 -28 -5 -14 36 -36 67 -36 31 0 55 -65 38 -99 -8 -14 -14 -35 -14 -46 0
-11 -4 -21 -10 -22 -6 -2 -10 26 -10 69 0 67 -13 96 -30 69 -10 -18 -20 -13
-52 27 -51 63 -52 112 -2 66z m1066 -36 c27 -26 29 -55 6 -103 -18 -38 -45
-45 -86 -24 -30 16 -37 28 -37 70 0 71 67 104 117 57z m-118 -155 l34 -32 -37
-72 c-50 -97 -125 -198 -154 -206 -17 -4 -38 6 -85 42 -96 74 -95 71 -40 128
27 27 89 85 138 129 79 70 91 77 100 61 6 -10 25 -32 44 -50z m-506 -84 c12
-7 56 -44 97 -83 41 -39 126 -115 188 -169 61 -55 112 -106 112 -115 0 -10
-14 -25 -32 -35 -31 -18 -32 -18 -52 6 -12 14 -52 49 -91 78 -38 29 -98 75
-131 103 -34 28 -87 70 -118 94 -31 24 -56 51 -56 60 0 14 46 72 58 72 2 0 13
-5 25 -11z m-1667 -43 c45 -45 49 -103 11 -143 -24 -27 -56 -29 -102 -8 -85
41 -68 185 22 185 27 0 43 -8 69 -34z m1321 12 c-3 -8 -6 -5 -6 6 -1 11 2 17
5 13 3 -3 4 -12 1 -19z m-397 -112 c0 -11 -19 -15 -25 -6 -3 5 1 10 9 10 9 0
16 -2 16 -4z m1372 -123 c59 -56 19 -163 -55 -148 -39 8 -64 31 -72 68 -6 23
-1 33 33 67 22 22 46 40 53 40 7 0 26 -12 41 -27z m-505 -35 c27 -24 62 -53
78 -65 18 -14 26 -26 20 -30 -6 -5 -16 -20 -22 -34 -13 -29 -67 -47 -89 -28
-14 12 -34 4 -34 -13 0 -7 10 -22 22 -35 17 -19 18 -23 6 -23 -18 0 -117 81
-131 106 -16 29 8 36 33 9 13 -14 27 -25 32 -25 15 0 8 26 -12 50 -11 13 -20
29 -20 37 0 18 48 93 60 93 5 0 31 -19 57 -42z m-901 -37 c-10 -16 -36 -13
-36 3 0 17 21 27 34 16 4 -5 5 -13 2 -19z m314 -8 c57 -26 86 -58 93 -103 3
-19 7 -42 9 -50 2 -9 -6 -16 -19 -18 -16 -2 -26 5 -38 27 -15 29 -19 31 -75
31 -52 0 -60 -2 -60 -19 0 -10 8 -22 17 -25 12 -5 14 -9 5 -18 -18 -18 -15
-31 19 -69 l30 -34 19 25 c11 14 22 33 26 43 7 23 34 22 34 -3 0 -11 12 -49
27 -85 28 -68 26 -88 -7 -67 -24 15 -77 16 -85 1 -4 -6 4 -22 16 -36 l24 -26
-25 7 c-85 25 -113 28 -121 15 -15 -24 -11 -52 6 -45 9 3 34 -6 55 -20 35 -24
40 -31 40 -66 0 -22 -5 -48 -10 -59 -11 -19 -11 -19 -48 1 -39 22 -61 34 -104
63 -14 9 -33 17 -42 17 -10 0 -28 11 -42 25 -14 14 -29 25 -34 25 -15 0 -11
-43 5 -64 16 -21 20 -40 8 -33 -5 3 -9 -50 -11 -116 -5 -181 -3 -170 -39 -180
-25 -7 -56 -3 -135 18 -57 14 -109 32 -116 38 -24 19 -12 183 16 232 12 22 32
60 44 85 11 25 24 47 28 50 4 3 12 15 19 28 6 12 20 22 30 22 10 0 21 3 25 7
4 4 15 8 24 8 9 0 17 6 17 14 0 14 -10 21 -56 39 -36 14 -51 59 -34 98 l13 29
1 -28 c1 -32 54 -92 72 -81 11 6 9 32 -6 67 -11 27 16 21 40 -9 18 -22 26 -25
53 -19 18 3 37 15 43 26 9 18 12 18 31 4 20 -13 24 -13 40 2 10 9 18 26 18 38
0 13 11 30 26 40 27 17 27 18 12 99 -2 10 6 23 17 30 11 6 26 19 33 29 7 9 16
16 20 14 4 -2 27 -13 52 -24z m-685 -62 c-13 -75 -3 -186 20 -211 33 -36 8
-33 -62 9 -37 22 -75 44 -83 49 -12 8 -12 15 5 52 11 24 32 60 47 81 16 22 28
43 28 48 0 12 21 19 38 13 10 -3 12 -15 7 -41z m275 29 c0 -11 -4 -20 -10 -20
-5 0 -10 9 -10 20 0 11 5 20 10 20 6 0 10 -9 10 -20z m-50 -30 c0 -14 -14 -12
-28 2 -19 19 -14 30 8 18 11 -6 20 -15 20 -20z m175 0 c8 0 17 5 20 10 3 6 11
10 16 10 6 0 1 -13 -11 -30 -17 -24 -25 -28 -39 -20 -25 13 -35 41 -19 51 8 5
14 3 16 -6 2 -8 10 -15 17 -15z m91 -16 c-2 -37 -32 -72 -48 -56 -7 7 38 92
47 92 1 0 1 -16 1 -36z m-308 -24 c-2 -8 -10 -15 -18 -15 -17 0 -25 28 -15 53
6 15 8 15 21 -3 8 -11 13 -26 12 -35z m1460 19 c37 -27 40 -32 31 -56 -12 -32
-91 -142 -102 -143 -4 0 -21 16 -38 35 -17 19 -37 35 -43 35 -7 0 -38 -18 -69
-41 -32 -22 -57 -37 -57 -34 0 11 159 192 187 215 34 26 42 26 91 -11z m-1563
12 c3 -5 0 -13 -5 -16 -6 -4 -15 -18 -21 -32 -10 -27 -29 -23 -29 7 0 32 41
63 55 41z m269 -32 c-8 -13 -24 -1 -24 18 0 13 3 13 15 3 8 -7 12 -16 9 -21z
m-694 -24 c25 -18 86 -54 135 -80 50 -27 101 -56 115 -66 14 -9 62 -35 107
-58 61 -31 81 -45 76 -57 -3 -9 6 -27 22 -44 26 -27 27 -32 15 -55 -16 -31
-25 -31 -70 -3 -19 11 -60 35 -90 51 -30 17 -71 43 -91 58 -20 16 -69 47 -110
70 -119 68 -239 148 -239 160 0 6 9 24 21 40 25 35 41 33 109 -16z m630 32 c0
-17 -20 -37 -37 -37 -19 0 -16 20 5 36 22 17 32 17 32 1z m1148 1 c22 -22 12
-42 -56 -116 -65 -70 -68 -72 -104 -66 -21 4 -38 12 -38 19 0 7 25 31 55 54
30 23 67 60 80 81 26 41 42 49 63 28z m-312 -33 c4 -8 0 -24 -7 -34 -19 -25
-281 -331 -344 -401 -28 -30 -82 -93 -121 -140 -39 -47 -127 -149 -195 -227
-68 -78 -191 -220 -273 -315 -82 -95 -160 -182 -172 -193 -13 -11 -38 -39 -56
-62 -18 -23 -129 -146 -247 -275 -117 -128 -255 -278 -305 -332 -50 -55 -100
-109 -111 -120 -10 -11 -45 -52 -77 -91 -31 -38 -69 -83 -83 -98 -14 -15 -25
-34 -25 -42 0 -8 -6 -15 -14 -15 -8 0 -48 -39 -89 -87 -41 -49 -107 -126 -147
-172 -56 -66 -70 -77 -64 -55 8 33 36 70 179 234 55 63 163 187 239 275 76 88
146 167 155 175 14 13 102 111 286 319 33 37 112 126 176 197 63 71 150 170
192 219 42 50 110 131 152 180 162 192 242 282 301 340 34 33 67 71 74 85 20
38 83 110 96 110 20 0 64 48 64 70 0 22 13 39 149 205 176 214 223 265 242
265 11 0 22 -7 25 -15z m-2108 -35 c33 -16 74 -32 89 -36 15 -3 68 -19 116
-35 87 -29 367 -89 412 -89 34 0 40 -18 16 -44 -12 -12 -21 -27 -21 -34 0 -20
-17 -22 -61 -6 -24 9 -98 27 -164 40 -66 13 -140 31 -165 40 -25 8 -106 32
-180 52 -131 36 -135 38 -138 66 -5 39 6 76 21 76 8 0 41 -13 75 -30z m3083
-9 c35 -35 36 -48 6 -92 -42 -63 -119 -44 -136 33 -13 57 10 81 82 87 10 0 32
-12 48 -28z m-1771 9 c0 -5 -2 -10 -4 -10 -3 0 -8 5 -11 10 -3 6 -1 10 4 10 6
0 11 -4 11 -10z m110 -6 c0 -9 -5 -14 -12 -12 -18 6 -21 28 -4 28 9 0 16 -7
16 -16z m750 -29 l24 -25 -21 -21 c-21 -22 -99 -33 -110 -16 -5 8 64 87 77 87
4 0 17 -11 30 -25z m-1000 3 c0 -7 -5 -20 -10 -28 -8 -13 -11 -13 -26 2 -9 9
-13 21 -10 27 10 15 46 14 46 -1z m218 -12 c3 -13 -1 -17 -14 -14 -11 2 -20
11 -22 22 -3 13 1 17 14 14 11 -2 20 -11 22 -22z m262 3 c0 -6 -4 -7 -10 -4
-5 3 -10 11 -10 16 0 6 5 7 10 4 6 -3 10 -11 10 -16z m-570 -33 c-15 -15 -32
7 -24 29 7 17 8 17 21 -1 9 -12 10 -21 3 -28z m1435 -71 c21 -30 42 -55 45
-55 10 0 87 -102 120 -157 29 -47 67 -95 153 -191 82 -92 83 -96 44 -121 l-32
-21 -30 37 c-16 21 -57 67 -91 103 -33 36 -87 99 -119 140 -33 41 -92 112
-132 158 -40 45 -73 91 -73 101 0 19 45 60 66 61 6 0 29 -25 49 -55z m401 33
c4 -13 20 -35 36 -50 l29 -27 -28 -38 c-59 -81 -96 -122 -138 -152 l-43 -31
-24 30 c-13 17 -38 47 -55 68 -18 20 -33 44 -33 53 0 21 46 62 100 89 25 12
53 29 63 38 22 19 59 40 74 41 6 1 15 -9 19 -21z m-1811 -46 c-5 -14 -7 -14
-22 1 -15 15 -15 18 3 38 l19 21 3 -22 c2 -12 1 -29 -3 -38z m68 28 c6 -25 -9
-36 -28 -20 -11 9 -12 17 -4 31 12 23 24 18 32 -11z m1103 -25 c18 -4 40 -2
53 4 16 9 19 9 15 -2 -2 -7 7 -24 21 -37 14 -13 25 -27 25 -30 0 -8 -261 -3
-347 6 -29 3 -53 10 -53 15 0 5 9 22 20 37 l20 27 108 -6 c59 -4 121 -10 138
-14z m-2046 -42 c162 -43 153 -33 120 -126 -11 -31 -20 -63 -20 -71 0 -33 -26
-39 -111 -25 -80 13 -121 30 -106 45 4 5 21 3 37 -3 23 -9 32 -8 40 3 19 21 2
34 -46 34 -40 0 -44 2 -44 25 0 21 11 78 26 133 3 9 11 11 26 6 13 -4 48 -13
78 -21z m520 17 c5 0 32 -20 61 -45 29 -25 58 -45 63 -45 6 0 21 -8 34 -18
l23 -18 -52 -77 c-28 -42 -53 -77 -55 -77 -2 0 -27 15 -56 34 -29 18 -72 43
-96 55 -23 12 -40 26 -37 31 3 5 24 -1 45 -15 46 -29 56 -30 63 -11 7 17 -5
28 -51 46 -51 20 -64 37 -51 63 19 37 73 88 87 82 8 -3 17 -5 22 -5z m417 -30
c4 -21 -13 -44 -26 -36 -6 4 -11 18 -11 32 0 19 5 25 17 22 10 -2 19 -10 20
-18z m802 -56 l22 -36 -48 -57 c-57 -66 -250 -282 -267 -296 -6 -5 -24 -26
-40 -45 -16 -19 -72 -82 -126 -140 -54 -58 -114 -124 -134 -148 -20 -24 -44
-51 -54 -60 -10 -9 -59 -62 -108 -117 -111 -124 -360 -393 -390 -420 -12 -11
-50 -51 -85 -90 -34 -38 -131 -142 -214 -230 -83 -88 -167 -178 -187 -200 -33
-37 -118 -95 -118 -80 0 12 193 230 420 474 74 80 150 164 169 186 18 22 61
69 96 105 62 66 118 128 212 235 114 131 239 274 303 345 37 41 91 104 121
140 29 36 101 119 159 185 59 66 137 157 174 203 37 45 69 82 71 82 2 0 13
-16 24 -36z m-1457 -3 c37 -11 72 -22 77 -25 14 -9 0 -39 -137 -303 -191 -364
-262 -503 -298 -575 -35 -71 -59 -98 -44 -51 5 16 29 96 54 178 25 83 63 211
86 285 23 74 53 176 67 225 15 50 30 95 33 100 4 6 19 49 34 98 31 99 27 97
128 68z m1748 3 c69 -8 139 -16 155 -16 30 -1 55 -14 55 -29 0 -5 -30 -7 -67
-6 -63 2 -68 0 -69 -20 -1 -11 -20 -38 -43 -59 -22 -21 -41 -44 -41 -51 0 -24
-28 -26 -98 -8 -76 20 -94 31 -73 45 10 5 25 3 42 -6 40 -20 49 2 13 31 l-29
23 33 30 c17 16 32 32 32 35 0 7 -82 25 -109 24 -13 -1 -26 4 -28 11 -6 17 72
16 227 -4z m-160 -51 c0 -3 -18 -25 -40 -49 -22 -24 -40 -49 -40 -56 0 -14
-152 -187 -177 -201 -15 -9 -53 17 -53 36 0 9 111 141 131 157 4 3 27 30 53
60 28 33 58 57 74 61 27 5 52 1 52 -8z m308 -45 c8 -8 0 -21 -34 -51 -36 -31
-45 -45 -42 -67 2 -24 -11 -39 -96 -111 -166 -140 -274 -229 -280 -229 -24 0
15 47 152 179 86 84 164 159 172 166 8 8 35 39 60 69 48 60 50 62 68 44z m154
-57 c12 -20 39 -55 61 -78 l41 -43 -23 -24 c-13 -14 -39 -32 -58 -41 -41 -20
-50 -14 -89 53 -15 26 -38 60 -51 75 -36 44 -30 71 19 101 40 23 44 24 60 9
10 -9 28 -33 40 -52z m-1502 35 c8 -10 8 -21 2 -32 -9 -16 -10 -15 -17 5 -11
34 -25 21 -47 -44 -22 -65 -21 -142 2 -170 20 -24 29 -8 19 37 -6 23 -7 55 -3
72 4 17 7 36 6 42 -1 6 4 16 11 22 11 10 14 -3 14 -71 1 -131 1 -133 28 -151
37 -24 213 -69 247 -62 32 6 35 0 11 -26 -19 -21 -76 -24 -133 -7 -25 8 -51 8
-76 2 -34 -7 -38 -12 -39 -38 0 -42 -28 -43 -64 -3 -17 18 -31 38 -31 45 0 6
-13 22 -28 35 -42 35 -42 38 -26 124 8 43 20 108 26 144 6 36 12 71 14 78 5
17 69 15 84 -2z m-404 -19 l27 -24 -40 -74 c-22 -41 -70 -126 -105 -189 -35
-63 -113 -203 -173 -310 -59 -107 -128 -231 -153 -275 -84 -150 -129 -234
-349 -655 -98 -187 -125 -230 -144 -230 -10 0 -19 5 -19 10 0 12 338 688 470
940 53 102 139 266 190 365 161 313 245 465 257 465 7 0 24 -11 39 -23z m258
-39 c-4 -13 -7 -25 -6 -28 0 -3 -11 -20 -25 -38 -18 -24 -24 -42 -21 -63 5
-33 -7 -40 -17 -9 -3 11 -11 20 -16 20 -6 0 -9 12 -7 28 3 23 7 27 31 25 17
-1 27 3 25 10 -2 17 31 91 38 84 3 -3 3 -16 -2 -29z m-760 -1 c17 -12 14 -26
-39 -232 -31 -121 -65 -249 -77 -285 -18 -59 -37 -129 -73 -265 -7 -27 -43
-156 -79 -285 -37 -129 -78 -278 -93 -330 -26 -97 -84 -233 -104 -246 -7 -4
-9 0 -6 12 3 11 27 100 52 199 26 99 60 230 76 290 16 61 63 245 104 410 41
165 82 323 90 350 8 28 24 86 35 130 12 44 30 116 41 160 12 44 22 86 25 93 4
16 25 15 48 -1z m2965 -23 c28 -35 29 -99 2 -114 -37 -19 -81 -12 -112 19 -16
16 -29 36 -29 43 0 24 26 50 61 63 50 18 56 18 78 -11z m-2369 1 c17 -9 30
-18 30 -22 0 -7 -110 -193 -220 -373 -5 -8 -35 -60 -66 -115 -140 -246 -261
-459 -321 -560 -35 -60 -70 -119 -76 -130 -6 -11 -30 -54 -53 -95 -110 -194
-139 -241 -180 -286 l-44 -49 63 125 c110 215 189 364 203 381 8 8 14 19 14
22 0 4 21 44 46 89 48 85 66 117 136 248 150 278 431 780 436 780 2 0 16 -7
32 -15z m1689 -68 c17 -35 42 -76 55 -90 24 -26 24 -35 -1 -19 -18 11 -123
155 -123 168 0 18 12 24 25 14 7 -6 26 -39 44 -73z m-2142 60 c1 -2 -18 -68
-43 -148 -25 -79 -59 -189 -75 -244 -28 -90 -110 -353 -145 -463 -8 -23 -17
-61 -20 -85 -6 -40 -143 -331 -152 -322 -2 2 10 55 28 117 17 62 60 217 95
343 35 127 84 302 110 390 26 88 58 203 71 255 50 191 39 170 86 164 23 -2 43
-6 45 -7z m1783 2 c0 -15 -47 -67 -225 -249 -77 -80 -181 -190 -230 -245 -50
-55 -131 -143 -181 -195 -51 -52 -127 -133 -170 -180 -139 -153 -475 -481
-484 -475 -6 4 -10 11 -10 16 0 5 80 91 178 192 225 231 644 673 742 783 208
232 336 363 358 363 12 1 22 -4 22 -10z m-512 -16 c-5 -25 -28 -28 -28 -4 0
12 6 21 16 21 9 0 14 -7 12 -17z m591 -12 c7 -5 12 -13 10 -19 -2 -6 -67 -76
-144 -155 -77 -80 -216 -225 -310 -322 -269 -280 -653 -665 -864 -866 -314
-298 -311 -296 -311 -268 0 6 161 174 358 373 196 198 438 447 537 551 99 105
240 252 315 328 74 76 189 194 254 262 66 69 124 125 130 125 6 0 17 -4 25 -9z
m230 -75 c12 -18 21 -37 20 -42 0 -5 -39 -41 -87 -81 -48 -39 -132 -109 -187
-155 -55 -46 -118 -97 -140 -113 -22 -16 -78 -65 -125 -107 -47 -43 -101 -89
-119 -102 -19 -14 -86 -72 -150 -129 -64 -57 -175 -153 -246 -213 -72 -60
-185 -154 -250 -209 -146 -122 -324 -265 -331 -265 -6 0 749 750 844 838 37
34 70 62 73 62 9 0 220 187 235 208 7 10 32 31 56 47 24 16 72 55 108 86 113
98 255 209 267 209 6 0 21 -15 32 -34z m-1585 -17 c-23 -8 -41 -28 -46 -49 -2
-8 -6 -18 -11 -21 -4 -3 4 -11 17 -19 21 -11 27 -10 40 3 9 9 12 18 7 22 -5 3
-9 14 -8 25 1 15 4 17 16 7 12 -9 13 -9 7 1 -5 8 1 12 19 12 25 0 25 -1 20
-55 -3 -32 -1 -56 5 -56 6 -1 15 -2 22 -3 15 -1 22 -23 9 -31 -17 -10 -13 -42
6 -50 12 -4 24 1 35 15 23 28 23 13 1 -41 -15 -38 -17 -40 -24 -21 -5 12 -15
22 -23 22 -9 0 -20 8 -25 18 -7 14 -21 18 -53 18 -37 -1 -44 -4 -52 -29 -7
-20 -7 -33 2 -45 7 -9 16 -27 21 -39 11 -23 31 -40 31 -24 0 11 69 36 77 27 3
-3 2 -17 -1 -31 -6 -23 -10 -25 -40 -19 -28 5 -36 2 -45 -14 -12 -23 9 -49 30
-36 9 5 10 2 4 -12 -4 -10 -10 -34 -13 -52 -3 -26 -7 -30 -17 -22 -10 8 -19 8
-34 0 -23 -12 -23 -12 -15 -34 7 -18 39 -22 49 -6 4 6 16 -4 29 -22 24 -36 69
-48 106 -28 29 15 25 -2 -7 -33 -16 -15 -53 -57 -83 -94 -30 -37 -83 -96 -117
-132 -35 -37 -73 -80 -85 -97 -29 -39 -125 -144 -132 -144 -3 0 -1 11 4 24 7
18 5 28 -6 37 -10 8 -13 20 -9 33 3 12 7 36 8 55 1 19 8 36 16 39 8 3 11 0 7
-7 -4 -7 0 -11 11 -11 11 0 24 -5 30 -11 9 -9 16 -8 28 5 9 9 21 16 26 16 6 0
7 6 2 13 -4 6 -8 26 -8 42 -1 23 -8 33 -29 43 -29 15 -51 7 -26 -8 13 -8 13
-11 1 -22 -10 -10 -12 -10 -7 0 9 16 1 15 -35 -3 -16 -9 -33 -14 -37 -11 -11
7 5 177 18 190 7 7 14 4 24 -9 13 -18 14 -18 27 3 8 12 19 22 26 22 7 0 13 5
13 10 0 20 2 25 13 38 6 7 6 12 1 11 -5 -1 -21 3 -36 11 -21 10 -31 10 -42 1
-17 -15 -30 1 -22 27 3 9 10 51 16 92 5 41 17 92 26 112 16 35 18 36 39 22 20
-13 23 -13 28 1 4 8 12 15 19 15 9 0 9 -3 -2 -11 -13 -9 -13 -10 0 -6 8 2 16
9 16 15 1 7 2 18 3 25 1 8 4 7 11 -3 7 -11 10 -11 10 -2 0 17 -27 69 -39 74
-11 4 68 139 115 196 20 24 40 39 46 36 7 -5 4 -10 -8 -15z m2264 -55 c11 4
24 1 29 -6 13 -17 31 -91 37 -148 3 -25 9 -81 15 -125 5 -44 12 -99 14 -122
l5 -41 -90 -7 c-59 -5 -93 -4 -100 3 -19 19 14 415 37 452 5 8 11 7 20 0 8 -7
23 -9 33 -6z m-1304 -3 c20 -32 -109 -201 -153 -201 -12 0 -21 -3 -21 -7 0 -5
-11 -8 -25 -8 -29 0 -29 0 -10 23 169 194 194 217 209 193z m763 -63 c53 -49
10 -144 -59 -132 -49 10 -78 40 -78 85 0 50 13 58 99 68 8 0 25 -9 38 -21z
m-219 -126 c-17 -15 -44 -36 -59 -47 -38 -28 -210 -168 -300 -245 -42 -36
-100 -83 -129 -105 -29 -22 -85 -67 -125 -100 -40 -33 -96 -78 -124 -100 -28
-22 -80 -66 -114 -97 -35 -32 -92 -81 -127 -108 -34 -28 -90 -75 -124 -105
-34 -29 -87 -73 -118 -97 -31 -24 -110 -83 -175 -133 -65 -49 -147 -113 -182
-142 -84 -68 -130 -74 -56 -7 82 75 332 286 389 329 45 34 171 138 337 279 20
17 71 60 114 96 43 36 106 90 140 120 34 30 156 134 270 230 114 96 251 212
304 257 l96 82 7 -40 c7 -38 5 -43 -24 -67z m-1118 18 c24 -15 7 -19 -20 -5
-15 8 -19 14 -10 14 8 1 22 -3 30 -9z m1183 -27 c4 -3 2 -12 -4 -20 -19 -23
-38 -180 -39 -319 0 -88 -4 -136 -13 -147 -13 -19 -44 -23 -175 -26 -77 -1
-83 -3 -93 -25 -13 -29 -6 -68 17 -91 13 -13 34 -15 108 -13 50 1 97 -1 105
-6 11 -7 13 -32 9 -118 -5 -100 -4 -110 16 -135 21 -27 21 -37 24 -424 3 -402
1 -427 -33 -399 -10 9 -19 9 -35 0 -16 -9 -25 -8 -36 0 -20 17 -44 5 -44 -23
0 -22 4 -24 66 -25 36 -1 70 -5 75 -8 5 -3 9 -45 9 -94 0 -67 -3 -89 -14 -93
-15 -6 -26 -21 -158 -220 -42 -63 -85 -120 -95 -125 -21 -12 -46 -140 -31
-158 8 -11 -4 -48 -33 -106 -5 -10 -9 -28 -9 -40 0 -11 -8 -39 -17 -60 l-17
-39 -67 7 c-44 4 -73 2 -89 -6 -38 -20 -49 4 -17 38 15 15 27 32 27 36 0 4 9
19 20 33 26 33 25 59 -1 81 -74 59 -91 80 -127 155 -38 78 -72 202 -72 265 0
16 -3 32 -6 35 -4 4 -9 42 -11 84 -2 43 -8 93 -14 111 -6 18 -8 54 -4 81 4 32
-2 99 -19 205 -14 86 -26 178 -26 205 0 51 11 62 70 75 74 16 142 119 165 254
8 42 23 104 35 137 11 33 27 85 36 115 8 30 21 75 29 100 8 25 16 92 18 150 3
58 11 131 17 162 14 64 8 58 245 245 61 47 127 101 148 120 38 33 48 38 60 26z
m-1159 -24 c-6 -11 -24 -2 -24 11 0 5 7 7 15 4 8 -4 12 -10 9 -15z m686 3 c0
-4 -9 -13 -20 -20 -19 -12 -20 -11 -8 8 13 20 28 27 28 12z m-1075 -12 c-3 -5
-12 -10 -18 -10 -7 0 -6 4 3 10 19 12 23 12 15 0z m1647 -17 c24 -5 28 -12 41
-77 27 -124 39 -229 35 -296 l-3 -65 -79 -3 c-57 -2 -82 1 -87 10 -21 33 2
398 27 439 3 6 13 7 23 4 9 -4 28 -9 43 -12z m-932 -13 c9 -16 6 -26 -12 -51
-20 -27 -76 -76 -103 -89 -47 -24 -85 -54 -75 -60 7 -4 2 -13 -14 -24 -15 -9
-25 -24 -23 -35 3 -23 -279 -321 -303 -321 -9 0 -22 -11 -28 -25 -6 -14 -16
-25 -22 -25 -5 0 -10 -6 -10 -13 0 -14 -157 -172 -170 -172 -12 0 -25 -15 -25
-28 0 -7 -8 -13 -17 -15 -28 -5 -21 11 25 60 140 151 289 311 337 363 30 33
57 62 60 65 6 5 160 177 198 220 74 84 156 170 163 170 5 0 13 -9 19 -20z
m-505 -10 c0 -7 -6 -15 -12 -17 -8 -3 -13 4 -13 17 0 13 5 20 13 18 6 -3 12
-11 12 -18z m115 0 c0 -5 -2 -10 -4 -10 -3 0 -8 5 -11 10 -3 6 -1 10 4 10 6 0
11 -4 11 -10z m-194 -37 c-10 -10 -19 5 -10 18 6 11 8 11 12 0 2 -7 1 -15 -2
-18z m19 -63 c-3 -5 -13 -10 -21 -10 -8 0 -14 5 -14 10 0 6 9 10 21 10 11 0
17 -4 14 -10z m65 -67 c0 -12 -60 -77 -60 -65 0 10 48 72 56 72 2 0 4 -3 4 -7z
m-564 -73 c-9 -16 -16 -44 -16 -64 0 -20 -5 -36 -11 -36 -6 0 -8 7 -5 17 4 9
-4 5 -18 -10 -14 -15 -27 -42 -30 -60 -18 -143 -18 -143 -63 -152 -10 -2 -20
-4 -22 -4 -2 -1 2 -8 9 -16 7 -9 10 -18 6 -22 -3 -3 -6 0 -6 7 0 11 -3 11 -12
2 -9 -9 -4 -24 21 -63 l32 -51 -26 -34 -25 -33 22 -16 c13 -10 16 -15 8 -12
-8 2 -23 0 -33 -5 -13 -7 -23 -3 -41 16 -20 23 -29 25 -75 20 -29 -2 -51 -1
-49 4 16 41 65 122 74 122 6 0 36 25 66 55 30 30 52 55 49 55 -3 0 0 5 7 12
15 15 15 51 0 66 -9 9 0 31 39 94 27 46 60 102 73 126 20 35 25 40 33 26 7
-12 5 -25 -7 -44z m444 34 c0 -16 -16 -19 -25 -4 -8 13 4 32 16 25 5 -4 9 -13
9 -21z m2498 7 c19 -1 22 -7 22 -40 l0 -40 -52 -10 c-65 -12 -689 -24 -704
-14 -18 13 -25 59 -11 71 13 11 131 19 437 27 107 4 196 7 197 9 2 2 50 1 111
-3z m-2868 -85 c0 -2 -7 -7 -16 -10 -8 -3 -12 -2 -9 4 6 10 25 14 25 6z m1314
-123 c-7 -168 -17 -217 -88 -423 -14 -41 -23 -83 -20 -92 3 -10 -10 -58 -28
-107 -31 -85 -36 -92 -79 -116 -54 -29 -59 -30 -59 -10 0 8 -4 15 -9 15 -5 0
-14 -7 -21 -15 -7 -8 -19 -15 -26 -15 -8 0 -14 -4 -14 -10 0 -5 -7 -7 -15 -4
-16 6 -75 -16 -75 -28 0 -4 -7 -5 -15 -2 -8 4 -17 -1 -21 -10 -5 -13 -9 -14
-20 -5 -13 11 -19 2 -15 -23 0 -5 -6 -8 -14 -8 -8 0 -15 5 -15 10 0 17 -27 11
-41 -9 -9 -12 -30 -21 -59 -25 -25 -3 -46 -5 -48 -5 -2 -1 0 -5 3 -11 3 -5 0
-10 -8 -10 -8 0 -20 -7 -27 -15 -13 -16 -65 -21 -56 -6 3 5 -6 17 -20 26 -15
9 -23 12 -20 6 4 -7 -1 -11 -13 -11 -14 0 -19 5 -15 15 4 8 -1 17 -10 21 -9 3
-16 10 -16 15 0 6 8 5 19 -1 25 -13 38 5 14 18 -12 7 -24 5 -40 -5 -25 -16
-31 -35 -10 -32 27 3 35 -2 33 -26 0 -14 -6 -27 -13 -29 -16 -6 -27 10 -13 19
5 3 10 11 10 17 0 6 -9 3 -20 -7 -14 -12 -17 -21 -9 -25 7 -5 5 -13 -6 -24
-10 -9 -19 -15 -22 -12 -8 8 9 76 18 70 5 -3 6 2 3 10 -7 18 -24 21 -24 5 0
-6 -7 -8 -16 -5 -14 5 -15 4 -4 -9 7 -8 8 -15 3 -15 -16 0 -35 50 -20 51 6 0
-12 7 -42 15 -94 25 -94 30 5 78 89 44 119 42 171 -10 35 -35 63 -44 63 -20 0
15 -84 96 -100 96 -5 0 -10 7 -10 14 0 13 5 13 38 -1 20 -8 49 -24 64 -34 14
-11 29 -19 32 -19 12 0 6 23 -14 50 -23 32 -17 40 35 42 19 1 35 5 35 10 0 4
5 8 10 8 6 0 5 -8 -2 -19 -10 -16 -15 -18 -27 -8 -12 10 -12 9 -1 -9 21 -33
79 -15 78 24 0 9 9 42 20 72 17 46 18 58 7 80 -16 32 -4 67 30 80 14 5 25 16
25 24 0 9 28 37 62 63 33 26 82 66 107 89 76 68 174 144 185 144 6 0 5 -4 -2
-9 -11 -7 -11 -9 2 -14 9 -4 16 -1 16 6 0 7 9 13 20 14 19 2 19 1 2 -22 -9
-13 -21 -20 -25 -15 -11 10 -47 1 -47 -12 0 -5 14 -14 30 -19 17 -6 30 -15 30
-20 0 -13 -18 -11 -23 4 -4 9 -6 9 -6 0 -3 -37 48 -21 56 18 3 16 8 29 12 29
3 0 6 17 6 39 1 32 -1 36 -13 25 -15 -16 -35 -19 -30 -5 4 11 150 140 159 141
3 0 5 -35 3 -77z m1344 6 c3 -73 -2 -79 -72 -79 -25 0 -28 -3 -24 -24 4 -20 0
-25 -25 -30 -46 -9 -107 -7 -107 4 0 6 13 10 29 10 17 0 33 5 37 12 9 15 -35
51 -54 43 -27 -10 -42 15 -42 70 0 28 3 54 6 58 3 3 61 5 128 4 l121 -2 3 -66z
m-360 -51 c7 -7 12 -25 12 -40 0 -26 -3 -28 -37 -29 -21 0 -49 -2 -63 -4 -49
-6 -497 -20 -575 -18 -99 3 -105 5 -105 42 0 34 16 42 77 41 48 0 654 16 669
18 5 1 15 -3 22 -10z m347 -67 c8 -14 -10 -22 -30 -15 -13 5 -14 8 -3 15 17
11 26 11 33 0z m-2635 -15 c0 -3 -4 -8 -10 -11 -5 -3 -10 -1 -10 4 0 6 5 11
10 11 6 0 10 -2 10 -4z m2375 -167 c3 -68 7 -393 10 -722 6 -581 6 -598 -12
-586 -10 6 -35 34 -56 61 -33 45 -37 57 -37 109 0 56 11 77 24 44 5 -15 57
-21 69 -8 12 11 -57 73 -81 73 -13 0 -22 6 -21 13 3 26 -2 37 -16 37 -24 0
-31 -31 -11 -45 11 -8 13 -15 7 -20 -6 -3 -11 -38 -11 -77 l0 -71 -47 -49
c-147 -151 -177 -178 -185 -170 -9 9 -20 1244 -11 1268 3 8 12 14 19 14 23 0
31 37 32 154 1 60 4 112 7 115 4 3 63 7 133 9 70 2 132 5 137 6 6 2 18 -4 28
-14 16 -14 19 -37 22 -141z m-377 64 l3 -73 -33 0 c-18 0 -40 -5 -48 -10 -13
-9 -12 -12 4 -25 11 -8 33 -15 49 -15 19 0 27 -4 24 -12 -4 -13 -17 -13 -94
-2 -33 5 -43 10 -43 25 0 15 -7 19 -34 19 -48 0 -58 18 -53 92 l4 63 84 6
c144 10 134 15 137 -68z m476 59 c14 -23 25 -3199 11 -3222 -4 -6 -14 -10 -23
-8 -15 3 -16 58 -18 587 -1 322 -5 698 -9 835 -7 284 -11 539 -20 1274 -5 395
-4 516 5 527 13 16 46 20 54 7z m108 -2 c20 0 20 -3 14 -192 -3 -106 -8 -546
-11 -978 -5 -850 -11 -1356 -22 -1740 -7 -301 -8 -303 -19 -307 -5 -2 -10 311
-12 776 -1 429 -4 887 -7 1018 -2 131 -5 500 -5 820 -1 412 -5 585 -13 590
-13 8 22 23 41 17 8 -2 23 -4 34 -4z m-2786 -9 c-4 -5 -3 -11 1 -14 5 -2 3 -3
-3 -1 -6 1 -18 -3 -25 -9 -7 -7 -5 -2 5 11 19 22 32 30 22 13z m124 -28 c0
-19 -3 -24 -10 -17 -6 6 -8 18 -4 27 9 24 14 21 14 -10z m-291 -209 c6 -15 9
-29 7 -32 -3 -2 -1 -13 5 -24 7 -14 7 -23 -1 -34 -7 -7 -9 -21 -6 -30 3 -8 -1
-22 -9 -30 -8 -9 -15 -26 -15 -39 0 -30 -18 -42 -36 -23 -13 13 -12 18 7 41
21 27 21 28 2 60 -30 51 -33 74 -12 93 10 9 19 23 19 31 0 23 26 14 39 -13z
m2252 6 c6 0 7 -6 1 -15 -4 -9 -7 -172 -5 -363 6 -840 14 -1575 18 -1792 2
-129 1 -368 -3 -530 l-7 -295 -25 0 -25 0 0 355 c0 344 -10 989 -20 1255 -3
72 -7 303 -10 515 -3 212 -8 489 -10 615 -3 127 -2 235 3 241 8 14 41 23 60
18 8 -2 18 -4 23 -4z m73 -1520 c-1 -729 -6 -1340 -11 -1385 -7 -57 -10 85
-11 500 -1 557 -5 862 -18 1635 -4 195 -7 448 -8 562 -1 200 0 207 19 210 19
3 20 -4 25 -107 3 -60 4 -697 4 -1415z m-2202 1488 c-7 -7 -12 -8 -12 -2 0 14
12 26 19 19 2 -3 -1 -11 -7 -17z m-202 -32 c0 -15 -37 -32 -47 -22 -3 3 -3 12
0 21 8 19 47 20 47 1z m1080 -21 c-7 -8 -17 -15 -23 -15 -5 0 -2 9 8 20 21 23
35 19 15 -5z m-430 -25 c0 -5 -7 -10 -15 -10 -8 0 -15 5 -15 10 0 6 7 10 15
10 8 0 15 -4 15 -10z m355 -40 c-3 -5 -10 -10 -16 -10 -5 0 -9 5 -9 10 0 6 7
10 16 10 8 0 12 -4 9 -10z m-405 -9 c0 -14 -18 -23 -30 -16 -6 4 -8 11 -5 16
8 12 35 12 35 0z m350 -52 c0 -5 -11 -9 -25 -9 -26 0 -34 15 -12 23 16 5 37
-3 37 -14z m-508 -11 c-7 -7 -12 -8 -12 -2 0 14 12 26 19 19 2 -3 -1 -11 -7
-17z m27 -76 c-89 -94 -105 -107 -114 -92 -9 15 155 180 178 180 16 0 2 -20
-64 -88z m-509 48 c8 -5 11 -10 5 -10 -5 0 -17 5 -25 10 -8 5 -10 10 -5 10 6
0 17 -5 25 -10z m375 -84 c-25 -33 -45 -46 -45 -29 0 10 63 74 68 69 2 -3 -8
-21 -23 -40z m-466 3 c20 -19 21 -22 7 -38 -9 -10 -16 -29 -16 -44 0 -19 -8
-31 -29 -41 -16 -9 -32 -12 -36 -8 -5 4 -5 2 -1 -5 14 -25 -46 -42 -122 -36
-67 5 -74 4 -112 -22 -22 -15 -43 -26 -45 -23 -3 3 11 26 30 51 28 37 42 47
65 47 36 0 151 29 167 42 17 14 6 29 -14 21 -10 -4 0 12 21 35 45 48 54 50 85
21z m509 -98 c42 -6 72 -17 87 -31 20 -19 29 -20 98 -14 l75 7 20 -45 c10 -24
22 -66 26 -92 l8 -49 -43 6 c-47 6 -99 -11 -134 -43 -22 -20 -117 -54 -177
-63 -32 -5 -37 -3 -40 16 -3 20 -8 22 -55 19 -85 -6 -87 11 -3 23 58 8 76 14
78 28 3 14 -4 17 -42 17 -51 0 -58 10 -23 33 36 25 11 37 -50 25 -46 -9 -58
-8 -107 13 -31 12 -56 26 -56 30 0 16 20 20 42 8 42 -23 114 -37 133 -26 10 5
32 11 49 12 38 3 53 36 37 78 -15 40 -36 43 -90 13 -67 -36 -97 -34 -39 3 25
16 49 34 53 41 5 8 21 10 49 6 22 -4 70 -11 104 -15z m-131 -86 c-7 -16 -47
-22 -47 -7 0 9 42 32 49 26 2 -2 1 -10 -2 -19z m-803 -357 c-230 -386 -215
-361 -221 -355 -7 7 20 56 94 175 36 57 92 157 125 223 32 65 64 121 69 125 5
3 25 36 44 74 40 79 68 113 73 87 2 -8 -81 -157 -184 -329z m415 285 c-19 -21
-39 -42 -45 -48 -6 -5 -21 -25 -33 -42 -12 -18 -25 -33 -29 -33 -8 0 -52 62
-52 73 0 3 30 20 68 37 37 17 78 37 92 45 38 21 37 9 -1 -32z m-329 -10 c0
-16 -33 -64 -40 -57 -7 8 -14 48 -11 65 1 7 51 -1 51 -8z m535 -21 c33 -11 60
-30 53 -37 -3 -4 -16 -2 -27 5 -12 6 -37 12 -56 14 -49 3 -71 26 -24 25 18 -1
43 -4 54 -7z m145 -32 c0 -5 -9 -10 -21 -10 -11 0 -17 5 -14 10 3 6 13 10 21
10 8 0 14 -4 14 -10z m-260 -11 c0 -12 -194 -228 -218 -242 -33 -21 -18 6 49
89 40 49 88 106 108 127 34 36 61 48 61 26z m64 -17 c5 -9 -27 -44 -267 -295
-93 -97 -172 -175 -174 -173 -9 9 34 61 122 151 49 50 137 144 195 208 58 64
108 117 112 117 4 0 9 -4 12 -8z m-389 -39 c3 -13 2 -23 -3 -23 -17 0 -34 29
-28 47 8 19 21 9 31 -24z m443 8 c-3 -10 -304 -329 -386 -409 -72 -71 -68 -35
5 42 37 39 133 140 212 224 80 83 151 152 159 152 7 0 12 -4 10 -9z m42 -28
c0 -10 -103 -113 -113 -113 -4 0 16 27 45 60 49 56 68 71 68 53z m-680 -30 c0
-17 -68 -142 -177 -323 -110 -184 -77 -105 86 203 69 129 91 159 91 120z m156
-7 c8 -32 1 -72 -11 -69 -13 4 -28 61 -21 79 8 22 25 16 32 -10z m80 -42 c-30
-36 -57 -77 -61 -91 -7 -31 10 -53 41 -53 39 0 35 -15 -22 -71 -31 -30 -71
-75 -91 -101 -19 -27 -39 -48 -43 -48 -5 0 0 26 10 58 10 31 30 95 45 142 18
59 35 94 56 113 16 15 29 32 29 36 0 5 7 25 15 45 13 30 20 36 45 36 l30 0
-54 -66z m3644 -15 c0 -10 -4 -19 -10 -19 -5 0 -10 12 -10 26 0 14 4 23 10 19
6 -3 10 -15 10 -26z m-3840 -264 c-91 -283 -110 -347 -110 -361 0 -14 -28 -39
-36 -31 -3 3 2 29 10 59 9 29 48 163 87 298 38 135 77 261 86 280 l16 35 8
-30 c7 -24 -5 -72 -61 -250z m425 135 c-43 -44 -81 -77 -83 -75 -3 2 31 40 74
84 43 44 81 78 83 75 3 -2 -31 -40 -74 -84z m3482 45 c-5 -16 -37 -18 -37 -3
0 8 9 14 20 14 11 0 19 -5 17 -11z m-2784 -25 c7 0 6 -5 -2 -12 -11 -11 -14
-10 -18 0 -3 6 -9 10 -14 6 -5 -3 -9 0 -9 6 0 7 7 9 16 6 9 -3 21 -6 27 -6z
m2906 1 c9 -6 0 -10 -28 -13 -39 -3 -55 5 -28 15 19 8 41 7 56 -2z m-3200 -55
c33 -12 34 -13 15 -27 -10 -8 -25 -22 -32 -31 -11 -14 -10 -18 8 -28 20 -11
21 -10 15 9 -7 24 10 29 19 6 3 -8 11 -14 17 -13 6 2 14 -3 16 -11 4 -9 0 -11
-16 -6 -16 5 -21 2 -21 -11 0 -13 -3 -14 -15 -4 -8 6 -19 9 -25 5 -5 -3 -10 1
-10 9 0 9 -4 15 -9 14 -5 -2 -17 6 -25 17 -13 17 -15 18 -16 3 0 -9 -4 -19 -9
-23 -6 -3 -8 9 -6 27 2 18 1 27 -2 21 -2 -7 -11 -13 -19 -13 -8 0 -14 -5 -14
-11 0 -5 5 -7 10 -4 6 3 10 1 10 -4 0 -15 -17 -14 -26 1 -4 6 0 16 9 23 24 17
21 23 -8 21 -14 0 -25 -6 -25 -12 0 -20 -30 -25 -30 -6 -1 15 -2 15 -11 -1
-13 -22 -9 -28 19 -30 11 0 18 -5 15 -10 -3 -4 -11 -6 -19 -3 -7 3 -16 1 -19
-4 -4 -6 -11 -10 -16 -10 -6 0 -7 5 -3 11 5 8 1 8 -14 0 -11 -6 -30 -11 -41
-11 -11 0 -35 -9 -53 -19 -18 -10 -44 -22 -58 -25 -24 -7 -24 -6 -6 8 11 9 27
16 37 16 26 0 61 33 73 71 11 33 12 34 63 31 29 -2 54 1 58 7 9 16 56 2 85
-25 19 -17 29 -20 43 -13 23 13 22 24 -5 49 -25 23 -12 25 41 6z m1111 10 c0
-3 -4 -8 -10 -11 -5 -3 -10 -1 -10 4 0 6 5 11 10 11 6 0 10 -2 10 -4z m53 -68
c5 -34 3 -49 -8 -58 -13 -11 -15 -2 -15 61 1 79 13 78 23 -3z m-2066 -40 c-14
-46 -28 -96 -32 -113 -11 -55 -68 -226 -72 -221 -6 6 8 67 48 216 17 63 34
130 39 148 8 34 29 66 37 58 3 -3 -6 -42 -20 -88z m853 -15 c0 -13 -3 -13 -15
-3 -8 7 -12 16 -9 21 8 13 24 1 24 -18z m50 -34 c0 -18 2 -18 23 -5 22 15 60
6 44 -11 -5 -4 -12 -1 -18 7 -7 11 -8 7 -3 -12 4 -18 2 -28 -5 -28 -10 0 -15
14 -12 33 1 5 -3 6 -8 2 -6 -3 -8 -13 -5 -23 5 -14 2 -13 -10 3 -9 11 -23 28
-31 37 -10 12 -11 18 -2 21 18 6 27 -2 27 -24z m2413 8 c-24 -40 -69 -87 -104
-106 -22 -13 -42 -21 -44 -19 -8 8 135 149 145 143 6 -3 7 -12 3 -18z m-487
-52 c4 -33 7 -64 6 -70 0 -5 -2 -65 -2 -132 l-2 -123 -28 0 c-30 0 -40 -15
-40 -57 0 -19 -4 -24 -16 -19 -9 3 -20 6 -25 6 -5 0 -8 14 -7 31 4 40 -20 57
-59 43 -20 -7 -29 -17 -31 -37 -4 -30 -6 -31 -32 -17 -15 8 -18 21 -18 65 1
56 5 64 25 44 16 -16 135 -29 151 -16 10 8 9 14 -5 29 -14 15 -26 18 -53 14
-19 -3 -42 -1 -50 4 -26 16 -5 20 56 10 90 -15 116 -13 112 8 -3 15 -42 27
-140 41 -17 2 -5 30 42 96 28 39 62 87 76 108 14 22 27 37 29 35 2 -2 7 -30
11 -63z m-2081 -1 c11 -7 37 -16 58 -19 27 -5 47 -18 69 -45 16 -21 41 -41 54
-44 25 -7 42 -33 85 -133 l27 -62 -42 -20 c-22 -10 -67 -29 -99 -40 -104 -38
-237 -119 -282 -172 -45 -54 -59 -89 -45 -114 23 -44 -22 -291 -70 -385 -28
-53 -57 -80 -89 -80 -16 0 -31 -7 -35 -15 -3 -8 -12 -12 -21 -9 -8 4 -22 1
-30 -6 -12 -10 -18 -10 -31 1 -12 10 -20 10 -34 1 -15 -9 -21 -9 -27 1 -4 7
-30 23 -58 37 -81 40 -81 36 -4 191 38 76 77 165 88 198 10 32 28 76 40 98 37
70 59 137 75 233 23 129 32 155 67 185 17 14 42 46 56 72 44 84 75 119 118
135 43 16 98 12 130 -8z m-535 -1 c-1 -12 -89 -98 -94 -92 -8 8 67 98 82 99 6
0 12 -3 12 -7z m3194 -36 c17 -13 16 -16 -12 -63 -36 -58 -97 -116 -152 -144
-54 -28 -60 -26 -60 19 0 36 4 41 45 65 24 15 68 51 97 81 29 29 56 54 59 54
3 1 13 -5 23 -12z m-3594 -17 c0 -5 -2 -10 -4 -10 -3 0 -8 5 -11 10 -3 6 -1
10 4 10 6 0 11 -4 11 -10z m1210 -20 c0 -5 11 -12 25 -16 14 -3 25 -11 25 -17
0 -6 -3 -7 -7 -4 -3 4 -12 2 -18 -3 -9 -8 -14 -6 -19 5 -3 9 -11 13 -17 9 -8
-4 -9 -3 -5 4 4 7 2 12 -4 12 -6 0 -8 5 -5 10 8 13 25 13 25 0z m90 -44 c0 -3
-4 -8 -10 -11 -5 -3 -10 -1 -10 4 0 6 5 11 10 11 6 0 10 -2 10 -4z m1995 -106
c4 -6 -7 -10 -25 -10 -18 0 -29 4 -25 10 3 6 15 10 25 10 10 0 22 -4 25 -10z
m-3218 -52 c-3 -8 -6 -5 -6 6 -1 11 2 17 5 13 3 -3 4 -12 1 -19z m3276 -58 c3
-28 1 -48 -6 -52 -19 -11 -37 12 -37 48 0 37 -14 50 -49 45 -15 -2 -21 1 -17
8 4 6 16 11 26 11 10 0 22 5 25 10 14 23 53 -24 58 -70z m287 61 c0 -21 -13
-41 -26 -41 -8 0 -14 -9 -14 -21 0 -28 -34 -21 -38 8 -2 16 6 28 30 43 36 22
48 25 48 11z m-1930 -21 c0 -5 -5 -10 -11 -10 -5 0 -7 5 -4 10 3 6 8 10 11 10
2 0 4 -4 4 -10z m739 -158 c25 -22 32 -35 24 -43 -21 -21 -89 54 -107 121 -7
22 -4 21 20 -10 16 -19 44 -50 63 -68z m1188 53 c3 -9 -3 -25 -12 -35 -17 -19
-17 -21 -1 -39 12 -13 14 -24 8 -41 -8 -23 -9 -22 -15 8 -5 23 -12 32 -26 32
-11 0 -23 5 -26 10 -3 6 -20 10 -36 10 -20 0 -29 4 -27 13 7 19 40 21 50 3 5
-9 18 -16 30 -16 17 0 20 4 15 29 -3 16 -3 31 0 35 12 11 34 6 40 -9z m-217 1
c0 -3 -4 -8 -10 -11 -5 -3 -10 -1 -10 4 0 6 5 11 10 11 6 0 10 -2 10 -4z
m-639 -26 c13 -8 25 -7 39 0 15 8 29 6 60 -10 22 -11 40 -22 40 -24 0 -6 -49
-56 -56 -56 -3 0 -3 11 0 24 4 15 0 28 -9 36 -13 11 -20 8 -44 -14 -28 -27
-30 -27 -60 -12 -28 15 -29 18 -19 41 12 28 20 30 49 15z m598 -31 c14 -40 14
-39 -4 -39 -9 0 -18 7 -22 16 -3 8 -17 20 -32 25 -20 8 -22 12 -11 19 31 20
58 11 69 -21z m-1109 11 c0 -5 -4 -10 -10 -10 -5 0 -10 5 -10 10 0 6 5 10 10
10 6 0 10 -4 10 -10z m-2063 -56 c19 -23 23 -39 21 -78 -3 -49 -9 -57 -52 -70
-15 -5 -16 -9 -6 -21 17 -20 53 -19 80 3 19 16 23 29 24 88 l1 69 29 -2 c39
-3 65 -31 73 -76 8 -52 -3 -85 -36 -102 -16 -8 -34 -28 -40 -47 -15 -41 -39
-68 -63 -68 -45 0 -126 59 -152 111 -16 32 -32 34 -52 5 -13 -21 -14 -29 -4
-41 7 -8 19 -15 26 -15 8 0 14 -7 14 -15 0 -10 -10 -15 -34 -15 -28 0 -40 7
-62 35 -14 19 -30 35 -36 35 -20 0 -19 -32 1 -54 27 -29 27 -36 -3 -36 -30 0
-72 33 -80 64 -11 45 -61 41 -68 -6 -5 -35 -27 -33 -35 2 -3 17 -12 34 -19 37
-19 7 -17 32 3 40 9 4 35 26 58 50 45 47 78 55 95 23 17 -31 40 -25 40 10 0
51 25 88 68 100 92 25 176 15 209 -26z m2758 -21 c-7 -56 -26 -135 -60 -248
-32 -105 -176 -355 -204 -355 -5 0 -24 18 -42 41 -26 33 -30 45 -22 58 7 11 8
23 1 34 -7 13 -1 27 23 56 17 22 37 42 44 45 7 2 23 26 36 53 13 26 35 66 50
88 15 22 40 65 57 95 16 30 46 79 66 109 20 29 36 57 36 62 0 5 5 9 11 9 6 0
8 -17 4 -47z m-1170 9 c5 -12 15 -22 22 -22 7 0 13 -6 13 -12 0 -9 3 -8 10 2
8 12 10 12 16 -3 3 -9 1 -23 -5 -31 -8 -10 -6 -20 10 -40 14 -18 16 -24 5 -20
-8 3 -17 12 -20 20 -3 8 -13 14 -21 14 -9 0 -13 5 -10 10 3 6 2 10 -4 10 -5 0
-12 18 -16 40 -4 22 -14 45 -23 51 -13 8 -13 9 -2 6 8 -2 19 -13 25 -25z m-19
-28 c-5 -13 -10 -14 -18 -6 -6 6 -8 18 -4 28 5 13 10 14 18 6 6 -6 8 -18 4
-28z m1649 6 c3 -5 15 -10 25 -10 10 0 21 -4 24 -9 6 -8 -21 -100 -33 -113 -3
-3 -26 3 -51 15 -39 19 -45 26 -45 52 0 28 2 30 34 27 32 -4 33 -2 27 22 -6
25 7 36 19 16z m-666 -26 c24 -31 19 -46 -14 -38 -12 3 -26 1 -29 -5 -10 -16
-26 -14 -26 3 0 28 20 66 34 66 8 0 24 -12 35 -26z m81 16 c0 -5 -5 -10 -11
-10 -5 0 -7 5 -4 10 3 6 8 10 11 10 2 0 4 -4 4 -10z m-1790 -10 c12 -7 11 -10
-5 -16 -11 -4 -36 -13 -55 -21 -19 -7 -60 -16 -92 -20 -50 -5 -58 -3 -58 11 0
9 -1 19 -2 24 -2 4 40 12 92 18 52 6 97 12 100 12 3 1 12 -2 20 -8z m2980 -9
c0 -12 -20 -25 -27 -18 -7 7 6 27 18 27 5 0 9 -4 9 -9z m-390 -11 c0 -5 -5
-10 -11 -10 -5 0 -7 5 -4 10 3 6 8 10 11 10 2 0 4 -4 4 -10z m-2425 -22 c44
-21 58 -38 33 -38 -16 0 -118 47 -118 55 0 12 42 4 85 -17z m2972 9 c3 -3 2
-10 -2 -16 -4 -7 -13 -6 -28 3 -20 13 -27 12 -72 -9 -27 -13 -61 -24 -75 -24
-18 -1 -9 7 35 29 44 22 70 28 98 26 21 -3 41 -7 44 -9z m-3747 -17 c0 -11 -4
-20 -10 -20 -5 0 -10 9 -10 20 0 11 5 20 10 20 6 0 10 -9 10 -20z m1515 0 c4
-6 -1 -7 -12 -4 -15 5 -16 4 -3 -5 8 -6 24 -11 35 -11 13 0 16 -3 8 -11 -16
-16 -63 0 -63 22 0 20 24 26 35 9z m105 -2 c0 6 5 12 10 12 16 0 12 -17 -6
-24 -20 -8 -36 2 -28 16 4 6 10 5 15 -3 6 -10 9 -11 9 -1z m1900 -20 c0 -6 -7
-5 -15 2 -8 7 -15 17 -15 22 0 6 7 5 15 -2 8 -7 15 -17 15 -22z m370 -6 c6 -5
-62 8 -73 15 -4 2 -5 8 -2 13 4 7 59 -13 75 -28z m-3205 6 c25 -12 45 -26 45
-31 0 -5 -8 -6 -17 -1 -10 4 -48 9 -86 10 -37 1 -68 5 -70 9 -3 9 44 34 65 35
10 0 38 -10 63 -22z m772 0 c2 -18 0 -20 -7 -8 -12 18 -13 30 -2 30 4 0 9 -10
9 -22z m251 10 c9 -9 18 -9 37 0 30 14 33 2 6 -22 -23 -21 -68 -32 -171 -41
-73 -7 -75 -7 -55 12 16 15 35 18 97 17 66 -1 75 1 70 15 -3 9 -10 19 -16 23
-7 5 -5 8 5 8 8 0 20 -5 27 -12z m677 -8 c-3 -5 -10 -10 -16 -10 -5 0 -9 5 -9
10 0 6 7 10 16 10 8 0 12 -4 9 -10z m1070 -10 c16 -18 16 -20 2 -20 -21 0 -23
-39 -2 -45 51 -16 50 -14 18 -47 -17 -17 -36 -27 -42 -24 -13 8 -15 156 -3
156 5 0 17 -9 27 -20z m-255 -25 c0 -25 -4 -35 -15 -35 -9 0 -18 -6 -21 -14
-7 -18 -56 -16 -70 3 -6 8 -18 11 -28 8 -12 -5 -16 -3 -14 5 3 7 19 16 37 21
27 6 36 5 46 -10 11 -15 16 -16 27 -5 10 10 10 17 1 31 -13 22 -8 31 19 31 14
0 18 -8 18 -35z m-2733 -9 c-2 -6 -11 -10 -20 -8 -8 1 -18 -2 -22 -8 -9 -15
-35 -12 -35 3 0 18 39 35 63 29 10 -2 16 -10 14 -16z m-1237 -5 c0 -20 -13
-41 -21 -35 -15 9 -10 44 6 44 8 0 15 -4 15 -9z m2868 -2 c-2 -6 -8 -10 -13
-10 -5 0 -11 4 -13 10 -2 6 4 11 13 11 9 0 15 -5 13 -11z m207 -47 c-8 -8 -26
39 -19 50 5 8 11 1 16 -17 4 -16 6 -31 3 -33z m627 44 c18 -8 40 -17 49 -19
14 -5 14 -14 -3 -98 -10 -51 -21 -95 -24 -98 -12 -12 -53 53 -48 76 4 14 -1
27 -15 39 -15 13 -18 22 -10 36 9 17 12 17 41 2 18 -10 34 -12 40 -6 11 11 -4
24 -50 42 -25 10 -35 10 -47 0 -17 -15 -19 -7 -5 21 13 23 28 24 72 5z m-1917
-28 c63 -27 75 -36 75 -55 0 -21 -3 -22 -20 -13 -11 6 -18 15 -15 20 7 11 -59
25 -74 16 -11 -7 -66 17 -76 34 -8 14 3 30 21 30 8 0 48 -14 89 -32z m2525 22
c0 -5 -4 -10 -9 -10 -6 0 -13 5 -16 10 -3 6 1 10 9 10 9 0 16 -4 16 -10z
m-1707 -40 c16 0 77 -62 77 -77 0 -7 5 -13 10 -13 16 0 12 -57 -5 -64 -8 -3
-15 -12 -15 -21 0 -16 -16 -49 -38 -77 -8 -9 -11 -22 -7 -27 3 -6 -1 -11 -10
-11 -21 0 -30 -27 -15 -45 15 -18 7 -19 -19 -4 -15 10 -22 8 -40 -10 -17 -17
-29 -21 -48 -16 -27 7 -186 81 -243 114 -19 11 -66 34 -105 52 -192 88 -224
111 -225 156 0 33 27 43 80 29 25 -6 51 -15 58 -19 7 -5 28 -3 48 3 19 7 68
10 109 8 41 -2 75 0 75 4 0 5 3 7 8 6 8 -2 70 7 179 24 45 7 69 16 65 22 -3 6
7 1 22 -12 16 -12 34 -22 39 -22z m210 19 c-6 -6 -9 -18 -6 -25 3 -8 0 -14 -6
-14 -6 0 -11 5 -11 10 0 14 23 50 29 44 3 -2 0 -9 -6 -15z m1637 11 c0 -12
-40 -33 -48 -25 -4 4 2 13 12 21 23 16 36 18 36 4z m130 0 c0 -5 -4 -10 -9
-10 -6 0 -13 5 -16 10 -3 6 1 10 9 10 9 0 16 -4 16 -10z m-1546 -43 c-5 -14
-19 -19 -50 -17 -3 1 -14 -9 -24 -22 -11 -13 -19 -18 -19 -13 0 14 29 47 59
68 26 18 44 10 34 -16z m-2324 -21 c-12 -38 -30 -40 -30 -4 0 19 30 52 38 43
2 -2 -1 -20 -8 -39z m3121 -10 c-26 -25 -33 -18 -25 23 6 30 7 31 26 14 18
-16 18 -17 -1 -37z m-254 7 c-3 -10 -5 -4 -5 12 0 17 2 24 5 18 2 -7 2 -21 0
-30z m947 31 c9 -3 16 -12 16 -19 0 -7 7 -18 15 -25 8 -7 15 -18 15 -24 0 -6
-8 -1 -18 10 -41 51 -84 47 -137 -13 -17 -19 -24 -23 -25 -13 0 12 100 90 116
90 1 0 9 -3 18 -6z m-3124 -24 c-8 -5 -19 -10 -25 -10 -5 0 -3 5 5 10 8 5 20
10 25 10 6 0 3 -5 -5 -10z m1504 -5 c-4 -8 -9 -15 -13 -15 -4 0 -8 7 -8 15 0
8 6 15 13 15 8 0 11 -6 8 -15z m1456 5 c0 -5 -11 -10 -24 -10 -14 0 -28 -4
-31 -10 -7 -12 -25 -13 -25 -2 0 8 45 29 68 31 6 1 12 -3 12 -9z m-450 -20 c6
-11 23 -26 38 -34 23 -13 24 -15 6 -16 -11 0 -29 7 -40 15 -10 8 -27 15 -37
15 -15 0 -15 3 -5 20 16 25 25 25 38 0z m-3840 -20 c0 -5 -5 -10 -11 -10 -5 0
-7 5 -4 10 3 6 8 10 11 10 2 0 4 -4 4 -10z m1603 -5 c-2 -5 -16 -11 -33 -12
-21 -2 -30 2 -30 13 0 11 8 14 33 12 17 -2 31 -7 30 -13z m2986 -14 c9 -16 8
-18 -9 -14 -21 5 -25 15 -13 26 9 10 11 9 22 -12z m-826 -12 c-12 -13 -26 -18
-33 -14 -9 5 -4 12 16 21 40 17 41 17 17 -7z m677 6 c0 -9 -6 -12 -15 -9 -8 4
-15 10 -15 15 0 5 7 9 15 9 8 0 15 -7 15 -15z m-918 -18 c6 -28 -1 -49 -13
-41 -12 7 -12 64 0 64 5 0 11 -10 13 -23z m748 3 c0 -23 -25 -27 -33 -6 -7 16
1 26 20 26 7 0 13 -9 13 -20z m-3683 -10 c3 -10 2 -11 -4 -4 -4 6 -15 14 -23
17 -11 5 -9 6 4 4 11 -1 21 -9 23 -17z m-331 1 c3 5 12 9 21 9 14 0 14 -3 -2
-20 -12 -13 -22 -17 -28 -11 -6 6 -19 6 -32 1 -16 -6 -27 -5 -34 4 -16 19 -4
25 35 16 19 -4 37 -4 40 1z m3564 0 c0 -5 -9 -12 -20 -16 -11 -3 -28 -17 -39
-31 -10 -13 -26 -24 -35 -24 -28 0 -17 19 19 34 19 8 38 22 41 31 7 16 34 21
34 6z m366 -18 c-10 -10 -19 5 -10 18 6 11 8 11 12 0 2 -7 1 -15 -2 -18z
m-2706 -3 c13 -24 -2 -26 -63 -8 -38 11 -39 13 -16 19 44 13 68 9 79 -11z
m210 -10 c0 -6 -11 -10 -25 -10 -23 0 -34 18 -19 33 9 8 44 -11 44 -23z
m-1120 -11 c-14 -26 -18 -24 -12 6 2 14 8 22 13 19 5 -3 5 -14 -1 -25z m984
10 c-3 -5 -10 -7 -15 -3 -5 3 -7 10 -3 15 3 5 10 7 15 3 5 -3 7 -10 3 -15z
m1326 1 c0 -13 -31 -21 -54 -14 -20 7 -19 8 9 20 30 12 45 10 45 -6z m1020
-21 c0 -23 -16 -25 -24 -3 -10 25 -7 34 9 28 8 -4 15 -15 15 -25z m-3390 17
c0 -3 -4 -8 -10 -11 -5 -3 -10 -1 -10 4 0 6 5 11 10 11 6 0 10 -2 10 -4z
m1390 -21 c34 -18 39 -24 23 -25 -23 0 -83 30 -83 43 0 11 12 8 60 -18z m1729
-6 c13 -11 21 -22 18 -26 -4 -3 -13 0 -21 6 -13 11 -20 8 -41 -15 -29 -32 -31
-28 -8 21 19 41 20 41 52 14z m209 -13 c3 -21 12 -31 33 -39 36 -14 38 -37 4
-37 -17 0 -25 5 -25 18 0 48 -47 54 -92 12 -33 -32 -51 -34 -56 -7 -3 12 3 17
20 17 14 0 38 14 58 35 39 40 54 40 58 1z m781 19 c7 -7 -2 -10 -27 -10 -20 0
-69 -4 -108 -9 -54 -6 -77 -4 -93 6 -19 11 -24 11 -34 -2 -14 -18 -63 -19 -92
-2 -16 9 -17 12 -5 16 46 16 343 17 359 1z m-401 -17 c-3 -7 -17 -14 -31 -15
-33 -2 -35 5 -4 17 31 12 39 12 35 -2z m-2663 -13 c97 0 145 -5 190 -19 100
-32 98 -49 -7 -61 -35 -4 -68 -15 -84 -28 -25 -19 -31 -20 -115 -9 -56 8 -102
20 -126 34 -28 17 -55 23 -108 24 -115 2 -176 25 -107 40 15 3 43 12 62 20 25
10 53 12 100 7 36 -4 124 -7 195 -8z m2074 -34 c10 -6 11 -21 6 -58 -5 -41
-23 -91 -25 -73 -5 33 -6 140 -1 140 3 0 12 -4 20 -9z m-1537 -26 c29 -14 47
-25 40 -25 -7 0 -21 4 -31 9 -9 5 -37 12 -62 15 -24 2 -46 5 -49 5 -9 2 25 21
37 21 6 0 35 -11 65 -25z m-941 -12 c42 -22 70 -29 131 -32 72 -3 78 -5 78
-25 0 -19 19 -61 20 -43 0 5 5 5 11 1 10 -6 -36 -23 -197 -74 -17 -6 -55 -10
-86 -10 -45 0 -60 5 -82 25 -24 22 -36 42 -18 31 14 -9 35 12 29 28 -8 19 -48
21 -66 4 -11 -11 -12 -9 -3 8 6 11 18 26 26 34 9 7 16 18 16 24 0 6 7 22 16
34 21 30 60 28 125 -5z m2659 21 c0 -4 -7 -12 -17 -19 -20 -15 -8 -37 19 -33
20 3 31 -8 42 -46 4 -12 13 -17 26 -13 11 3 20 1 20 -4 0 -19 -39 -8 -75 21
-27 22 -44 28 -61 24 -31 -8 -31 9 -1 46 20 26 47 40 47 24z m-240 -20 c0 -8
-4 -12 -10 -9 -5 3 -10 10 -10 16 0 5 5 9 10 9 6 0 10 -7 10 -16z m-36 -48
c18 -35 12 -50 -15 -36 -13 8 -19 21 -19 47 0 40 9 37 34 -11z m882 -33 c-3
-8 -13 -13 -22 -11 -9 2 -19 -3 -21 -9 -3 -7 2 -13 11 -13 22 0 20 -30 -6 -95
-25 -60 -48 -71 -70 -34 -14 22 -77 59 -101 59 -8 0 -31 -11 -51 -25 -20 -14
-39 -25 -41 -25 -6 0 0 165 7 176 4 6 20 9 36 6 17 -2 40 1 52 8 17 9 25 9 39
-4 25 -22 41 -20 81 13 l34 29 28 -31 c16 -16 27 -36 24 -44z m-1341 -8 c-11
-22 -24 -35 -36 -35 -22 0 -25 13 -5 29 8 7 22 29 32 49 16 32 19 34 22 15 2
-12 -4 -38 -13 -58z m-1090 47 c15 -10 14 -52 -1 -52 -7 0 -16 5 -19 10 -4 7
-13 5 -26 -4 -34 -24 -304 -7 -278 18 5 4 69 14 154 22 33 3 62 8 64 10 8 7
96 4 106 -4z m1719 -21 c3 -5 -1 -14 -9 -21 -13 -10 -15 -9 -15 9 0 21 14 28
24 12z m-1384 -42 c0 -14 -42 -21 -53 -10 -6 6 -19 11 -28 11 -23 0 -35 20
-19 30 13 8 100 -19 100 -31z m573 -11 c19 -24 37 -53 41 -64 4 -12 15 -29 26
-39 11 -10 20 -25 20 -32 0 -25 -24 -8 -43 30 -19 41 -32 49 -22 15 6 -22 5
-22 -7 -3 -7 11 -13 22 -14 25 -7 36 -19 66 -28 72 -18 12 -66 9 -66 -4 0 -6
-2 -9 -5 -7 -2 3 -2 15 2 27 10 39 56 29 96 -20z m-1299 26 c39 -15 9 -22 -81
-18 -54 2 -100 4 -103 4 -3 0 2 5 10 10 16 11 149 14 174 4z m2197 -20 c17
-21 63 -44 89 -44 11 0 20 -4 20 -10 0 -5 -9 -10 -19 -10 -11 0 -23 -4 -26
-10 -12 -20 -32 -9 -51 27 -25 48 -46 52 -90 18 -19 -14 -42 -25 -52 -23 -11
2 1 14 38 35 65 36 73 38 91 17z m-246 -24 c3 -5 -3 -10 -15 -10 -12 0 -18 5
-15 10 3 6 10 10 15 10 5 0 12 -4 15 -10z m-1680 -23 c39 -7 68 -17 65 -22 -3
-6 -16 -9 -30 -8 -14 1 -94 5 -177 9 -139 6 -155 6 -173 -11 -11 -10 -17 -22
-14 -26 3 -5 -5 -9 -16 -9 -34 0 -159 -41 -175 -57 -8 -8 -15 -23 -15 -33 0
-13 -14 -23 -49 -35 -28 -9 -62 -29 -78 -45 -22 -22 -46 -33 -108 -45 -43 -9
-102 -26 -130 -37 -59 -24 -269 -38 -287 -20 -15 15 17 52 43 52 10 0 21 5 24
11 5 6 11 5 18 -5 15 -20 87 -11 87 10 0 8 9 14 20 14 28 0 25 14 -10 47 -29
27 -41 73 -19 73 5 0 9 -10 7 -22 -4 -29 64 -70 83 -51 10 10 9 17 -6 33 -18
20 -18 20 5 20 19 0 21 4 16 26 -5 17 -3 23 4 19 5 -3 14 5 19 18 13 33 28 37
108 30 69 -5 74 -4 300 57 55 14 93 18 160 14 48 -2 115 -1 148 4 63 9 67 9
180 -11z m1730 -16 c-6 -19 -16 -24 -65 -33 -9 -2 -18 2 -20 7 -3 6 10 11 27
13 21 2 37 11 44 23 13 25 23 18 14 -10z m-833 13 c8 -7 -38 -76 -57 -87 -8
-4 -16 -3 -20 3 -3 5 0 10 8 10 8 0 22 18 31 40 15 38 25 47 38 34z m-437 -14
c-3 -5 -11 -10 -16 -10 -6 0 -7 5 -4 10 3 6 11 10 16 10 6 0 7 -4 4 -10z
m1455 -37 c0 -7 11 -19 25 -25 23 -10 24 -13 10 -21 -13 -7 -25 -1 -49 22 -18
17 -38 31 -46 31 -10 1 -7 8 10 21 23 20 25 20 37 3 7 -10 13 -24 13 -31z
m-3330 27 c0 -5 -2 -10 -4 -10 -3 0 -8 5 -11 10 -3 6 -1 10 4 10 6 0 11 -4 11
-10z m2220 -11 c0 -5 -4 -9 -10 -9 -5 0 -10 7 -10 16 0 8 5 12 10 9 6 -3 10
-10 10 -16z m490 -14 c0 -8 -4 -15 -9 -15 -13 0 -22 16 -14 24 11 11 23 6 23
-9z m514 -17 c-7 -11 -34 -10 -34 1 0 6 9 9 19 8 11 0 17 -5 15 -9z m-1437 -4
c-3 -3 -12 -4 -19 -1 -8 3 -5 6 6 6 11 1 17 -2 13 -5z m1663 -10 c0 -11 -5
-14 -16 -10 -9 3 -18 6 -20 6 -3 0 -2 5 1 10 10 16 35 12 35 -6z m-1994 -7 c3
-3 -7 -9 -22 -13 -16 -3 -55 -13 -87 -21 -69 -17 -191 -32 -180 -23 11 10 158
40 192 40 16 0 34 6 40 13 11 14 45 16 57 4z m1669 -7 c-8 -13 -45 -13 -65 0
-11 7 -3 10 28 10 26 0 41 -4 37 -10z m179 -48 c-21 -5 -59 32 -49 48 5 8 16
3 37 -17 24 -23 27 -29 12 -31z m459 44 c9 -7 17 -17 17 -21 0 -4 -7 -2 -15 5
-8 7 -24 10 -36 7 -16 -4 -18 -3 -8 9 14 17 19 17 42 0z m400 -18 c7 -27 -2
-45 -14 -27 -11 18 -11 49 0 49 5 0 11 -10 14 -22z m-3123 -14 c-25 -8 -52
-13 -60 -11 -19 5 47 25 80 25 17 0 11 -4 -20 -14z m1190 12 c0 -3 -4 -8 -10
-11 -5 -3 -10 -1 -10 4 0 6 5 11 10 11 6 0 10 -2 10 -4z m-487 -16 c15 0 39 0
55 0 81 0 131 -7 147 -20 15 -12 19 -11 36 10 l20 25 -7 -29 c-6 -27 -5 -28
19 -23 17 5 27 2 31 -8 3 -10 16 -15 34 -13 15 1 33 -1 39 -5 7 -4 17 0 23 10
8 13 13 14 16 6 3 -7 16 -13 28 -13 27 0 85 -55 127 -123 18 -29 53 -74 78
-100 25 -26 47 -58 48 -70 1 -12 3 -56 5 -97 l3 -75 -998 -2 c-782 -2 -998 0
-994 10 2 7 26 17 53 23 31 6 49 15 49 25 0 23 -80 17 -115 -9 -16 -12 -36
-22 -43 -22 -8 0 -20 -7 -27 -15 -8 -10 -30 -15 -61 -15 -46 0 -49 2 -49 25 0
16 -6 25 -15 25 -13 0 -19 -11 -16 -32 1 -9 -59 -21 -67 -13 -4 4 -9 46 -10
95 l-4 88 39 6 c21 4 87 11 147 16 60 6 115 15 123 21 10 9 41 9 121 1 59 -6
150 -10 202 -10 52 1 106 -1 120 -5 14 -3 63 -13 110 -21 114 -20 185 -33 245
-45 148 -31 260 -49 269 -43 6 3 25 5 43 3 40 -3 83 24 83 54 0 19 7 24 38 27
20 3 47 1 60 -3 13 -5 36 -9 52 -9 16 0 31 -4 35 -9 8 -14 -27 -22 -80 -20
-51 3 -75 -12 -56 -35 15 -18 248 -34 278 -18 13 7 32 8 59 1 93 -24 111 -25
155 -13 60 19 76 17 82 -6 4 -15 14 -20 40 -20 46 0 87 16 87 33 0 19 -33 47
-66 56 -31 8 -104 -3 -141 -21 -36 -18 -217 22 -304 67 -68 36 -285 67 -333
49 -26 -10 -18 -31 14 -43 40 -13 38 -37 -3 -50 -27 -9 -46 -8 -93 5 -32 9
-83 22 -111 27 -47 10 -53 14 -53 37 0 14 -4 30 -8 36 -12 19 -50 34 -67 28
-9 -4 -27 -1 -39 6 -29 15 -71 10 -71 -10 0 -10 12 -16 35 -18 19 -2 39 -10
43 -18 4 -8 17 -14 27 -14 11 0 20 -5 20 -11 0 -8 -11 -9 -32 -5 -18 4 -73 11
-121 17 -49 5 -93 11 -97 14 -27 16 -192 36 -253 30 -80 -8 -257 3 -257 16 0
16 217 70 275 69 18 0 38 -10 50 -24 29 -34 51 -38 92 -16 27 14 47 18 75 14
29 -5 38 -3 38 8 0 37 -53 49 -116 26 -28 -10 -35 -9 -62 13 -17 13 -30 28
-28 34 6 24 102 46 196 45 102 0 357 34 510 70 19 5 71 7 115 4 44 -2 92 -4
108 -4z m1082 0 c3 -5 1 -10 -4 -10 -6 0 -11 5 -11 10 0 6 2 10 4 10 3 0 8 -4
11 -10z m-2762 -6 c3 -4 -1 -17 -10 -31 -15 -23 -15 -25 13 -54 27 -28 29 -29
42 -12 12 17 14 17 23 1 14 -25 28 -22 39 7 13 34 27 32 35 -5 9 -40 -27 -95
-53 -81 -11 6 -24 6 -34 0 -11 -6 -19 -5 -25 3 -4 7 -21 13 -38 13 -26 0 -30
3 -27 24 3 28 -16 54 -35 47 -7 -3 -13 0 -13 7 1 32 14 56 36 61 13 4 24 11
24 16 0 11 13 13 23 4z m2525 -6 c7 -7 12 -25 12 -41 0 -23 3 -27 19 -22 12 3
29 -3 47 -18 16 -13 57 -43 92 -67 57 -40 75 -60 53 -60 -17 0 -90 43 -121 72
-17 15 -35 26 -39 24 -14 -9 -66 42 -66 66 0 15 -5 22 -16 20 -9 -1 -24 7 -34
18 -18 20 -17 20 11 20 17 0 35 -5 42 -12z m1312 -17 c0 -37 -10 -62 -21 -55
-10 6 -12 45 -3 68 10 26 24 18 24 -13z m-60 5 c0 -15 -26 -46 -38 -46 -3 0
-1 5 6 12 7 7 12 20 12 30 0 10 5 18 10 18 6 0 10 -6 10 -14z m290 -32 c5 -13
7 -31 3 -40 -5 -14 -8 -13 -19 7 -16 29 -18 73 -3 64 5 -4 14 -18 19 -31z
m-3984 15 c3 -6 1 -16 -5 -22 -8 -8 -11 -8 -11 1 0 7 -9 12 -21 12 -11 0 -17
5 -14 10 8 13 42 13 51 -1z m3114 -17 c0 -4 -13 -15 -29 -25 -28 -16 -29 -16
-34 4 -4 16 -11 20 -27 16 -32 -8 -14 6 23 19 31 11 67 3 67 -14z m-2920 -8
c0 -14 -12 -19 -23 -8 -9 9 4 35 14 28 5 -3 9 -12 9 -20z m3062 -21 c2 -22 8
-28 26 -26 16 2 22 -2 22 -17 0 -32 -22 -23 -63 25 -38 44 -38 45 -13 45 20 0
25 -6 28 -27z m353 -33 c20 0 45 5 56 11 15 7 24 7 34 -1 8 -7 19 -8 26 -4 9
5 10 -3 4 -32 -10 -56 -24 -79 -38 -64 -9 10 -9 14 1 17 15 6 16 33 2 33 -6 0
-13 -6 -16 -14 -3 -8 -12 -12 -20 -9 -8 3 -24 -3 -34 -12 -19 -17 -21 -17 -41
9 -12 15 -30 26 -45 26 -22 0 -24 4 -24 51 l0 51 29 -31 c22 -24 38 -31 66
-31z m-665 20 c0 -6 -8 -23 -17 -37 l-17 -26 -7 24 c-3 13 -1 30 4 37 11 15
37 16 37 2z m64 -37 c-23 -17 -37 -6 -23 18 9 17 13 18 26 8 13 -12 13 -14 -3
-26z m190 2 c18 -28 10 -33 -20 -10 -10 8 -32 15 -49 15 -23 0 -27 3 -15 10
28 18 67 11 84 -15z m-57 -51 c-3 -3 -12 -4 -19 -1 -8 3 -5 6 6 6 11 1 17 -2
13 -5z m443 -54 c22 -22 35 -42 29 -46 -17 -10 -39 4 -39 26 0 12 -6 20 -12
19 -21 -3 -48 12 -48 27 0 25 29 15 70 -26z m470 10 c0 -5 -4 -10 -9 -10 -6 0
-13 5 -16 10 -3 6 1 10 9 10 9 0 16 -4 16 -10z m-1062 -7 c-10 -2 -26 -2 -35
0 -10 3 -2 5 17 5 19 0 27 -2 18 -5z m696 -8 c11 -8 17 -17 14 -20 -10 -11
-58 7 -58 21 0 18 20 17 44 -1z m-3924 -35 c-7 -4 -10 -12 -7 -17 3 -5 0 -10
-8 -10 -19 0 -19 1 2 40 14 26 18 29 21 13 2 -10 -2 -22 -8 -26z m3394 20 c25
-12 46 -24 46 -28 -1 -4 -10 -18 -22 -32 -14 -16 -22 -21 -25 -12 -3 6 -11 12
-19 12 -8 0 -14 6 -14 14 0 7 -7 19 -15 26 -12 10 -18 10 -30 0 -21 -18 -19
-41 5 -47 11 -3 20 -11 20 -19 0 -7 8 -17 17 -23 24 -13 14 -20 -19 -14 -15 3
-46 23 -70 45 l-43 40 60 28 c33 16 61 29 61 30 1 0 22 -9 48 -20z m-2910 1
c9 -14 -20 -21 -87 -21 -34 0 -77 -4 -95 -9 -27 -8 -32 -7 -32 8 0 10 3 21 7
24 10 10 201 8 207 -2z m3051 -21 c3 -5 -1 -10 -9 -10 -8 0 -18 5 -21 10 -3 6
1 10 9 10 8 0 18 -4 21 -10z m-365 -20 c13 -9 13 -11 0 -20 -22 -15 -30 -12
-30 10 0 22 8 25 30 10z m631 -23 c-1 -12 -15 -9 -19 4 -3 6 1 10 8 8 6 -3 11
-8 11 -12z m119 8 c0 -10 -24 -55 -29 -55 -3 0 -15 8 -26 17 -16 13 -17 15 -2
10 12 -5 17 -1 17 13 0 13 7 20 20 20 11 0 20 -2 20 -5z m-994 -182 c-4 -8
-23 -13 -56 -13 -49 0 -50 1 -50 30 0 17 5 36 10 43 39 46 50 61 50 68 0 4 9
10 20 14 11 3 19 9 19 13 -1 4 0 12 2 17 2 6 5 -28 6 -74 2 -46 2 -90 -1 -98z
m589 165 c25 -11 26 -14 23 -92 l-3 -81 -107 -3 c-66 -2 -108 1 -108 7 0 6 16
22 36 37 20 15 54 54 75 86 22 32 44 58 49 58 5 0 21 -5 35 -12z m325 -8 c0
-5 -2 -10 -4 -10 -3 0 -8 5 -11 10 -3 6 -1 10 4 10 6 0 11 -4 11 -10z m-60
-50 c0 -5 7 -10 15 -10 14 0 42 -40 28 -40 -4 0 -3 -4 3 -8 20 -12 -2 -52 -28
-51 l-23 0 23 11 c12 6 22 15 22 20 0 17 -29 19 -54 3 l-25 -17 9 33 c5 17 7
36 4 40 -6 11 4 29 17 29 5 0 9 -4 9 -10z m-3860 -4 c0 -3 -4 -8 -10 -11 -5
-3 -10 -1 -10 4 0 6 5 11 10 11 6 0 10 -2 10 -4z m3850 -96 c0 -5 -5 -10 -11
-10 -5 0 -7 5 -4 10 3 6 8 10 11 10 2 0 4 -4 4 -10z m-1235 -90 c0 -24 -107
-27 -820 -29 -357 0 -842 -4 -1077 -8 -284 -4 -428 -3 -428 4 0 5 8 17 18 26
24 22 46 22 1282 22 904 0 1025 -2 1025 -15z m-2805 -39 c0 -5 -20 -22 -45
-38 -25 -15 -48 -37 -51 -48 -4 -11 -15 -31 -25 -44 -11 -13 -19 -31 -19 -40
0 -22 -46 -85 -54 -73 -3 5 3 17 14 27 11 10 20 31 20 46 0 15 4 30 9 34 12 7
41 64 41 79 0 18 63 65 88 66 12 0 22 -4 22 -9z m2827 -54 c-9 -14 -26 -27
-38 -30 -19 -5 -17 -1 11 28 37 38 51 39 27 2z"/>
<path d="M1950 5038 c0 -26 3 -30 11 -18 9 13 10 13 6 0 -2 -8 -15 -15 -30
-15 -21 -1 -24 2 -15 13 9 11 7 11 -14 2 -22 -10 -24 -15 -15 -34 6 -13 16
-23 21 -23 6 0 23 -4 39 -8 33 -9 36 2 5 15 l-23 9 22 0 c12 1 29 -6 38 -15
21 -22 37 -7 42 39 3 28 -1 36 -23 45 -14 7 -30 10 -35 7 -5 -4 -9 -1 -9 4 0
6 -4 11 -10 11 -5 0 -10 -15 -10 -32z m57 -34 c1 -18 -2 -23 -9 -16 -6 6 -8
18 -5 26 9 22 12 20 14 -10z"/>
<path d="M1999 4860 c-26 -15 -10 -100 24 -121 14 -10 48 2 40 14 -4 6 0 8 9
4 11 -4 18 1 21 14 7 28 -2 56 -21 63 -10 3 -26 12 -37 20 -14 10 -25 12 -36
6z m54 -76 c-3 -7 -13 -9 -24 -7 -14 4 -17 8 -9 13 7 4 9 13 5 20 -4 7 -2 16
6 21 10 6 16 2 20 -14 3 -12 4 -27 2 -33z"/>
<path d="M1960 4776 c0 -2 7 -6 15 -10 8 -3 15 -1 15 4 0 6 -7 10 -15 10 -8 0
-15 -2 -15 -4z"/>
<path d="M1810 4649 c0 -5 5 -7 10 -4 6 3 10 8 10 11 0 2 -4 4 -10 4 -5 0 -10
-5 -10 -11z"/>
<path d="M2884 4484 c-10 -9 -13 -12 -5 -8 11 5 13 3 8 -10 -4 -10 -7 -20 -7
-22 0 -3 -4 -3 -9 1 -6 3 -9 -4 -8 -15 3 -38 39 -15 50 32 9 33 -4 42 -29 22z"/>
<path d="M2806 4455 c-8 -9 -13 -22 -10 -30 7 -17 20 -19 29 -5 4 6 11 8 16 5
16 -11 10 7 -8 22 -17 14 -17 14 0 9 11 -3 16 -2 12 4 -9 14 -21 12 -39 -5z"/>
<path d="M3005 4451 c-3 -5 -2 -12 3 -15 5 -3 9 1 9 9 0 17 -3 19 -12 6z"/>
<path d="M3035 4440 c-8 -13 4 -50 16 -50 5 0 9 14 9 30 0 30 -13 40 -25 20z"/>
<path d="M2974 4415 c-3 -8 1 -22 10 -30 15 -15 17 -15 23 1 6 16 7 16 13 -1
4 -12 9 -15 13 -7 7 11 -29 52 -45 52 -5 0 -11 -7 -14 -15z"/>
<path d="M2830 4395 c0 -8 5 -15 10 -15 6 0 10 7 10 15 0 8 -4 15 -10 15 -5 0
-10 -7 -10 -15z"/>
<path d="M2795 4390 c3 -5 8 -10 11 -10 2 0 4 5 4 10 0 6 -5 10 -11 10 -5 0
-7 -4 -4 -10z"/>
<path d="M2677 4273 c6 -16 5 -16 -10 -4 -15 11 -17 11 -17 -2 0 -8 6 -17 13
-20 9 -3 8 -8 -3 -22 -11 -13 -11 -16 -2 -11 8 5 24 3 38 -5 23 -12 23 -14 7
-31 -19 -21 -6 -24 21 -3 18 14 18 15 -2 39 -10 14 -22 23 -25 20 -3 -3 -8 1
-13 8 -4 7 -4 10 1 6 4 -4 16 -3 26 3 19 10 24 3 20 -28 -2 -15 25 -18 33 -4
3 5 -1 14 -9 21 -18 15 -20 34 -2 24 7 -5 6 -1 -2 10 -14 16 -16 16 -27 2 -14
-20 -24 -20 -24 -1 0 8 -7 15 -15 15 -10 0 -12 -6 -8 -17z"/>
<path d="M2870 4225 c-10 -12 -9 -16 3 -21 9 -3 13 -12 11 -19 -7 -16 12 -29
21 -15 4 6 1 17 -5 25 -6 8 -9 19 -6 24 10 16 -11 22 -24 6z"/>
<path d="M2932 4190 c-15 -24 5 -44 24 -25 8 7 14 20 14 28 0 19 -25 17 -38
-3z"/>
<path d="M2905 4150 c-3 -5 -2 -10 4 -10 5 0 13 5 16 10 3 6 2 10 -4 10 -5 0
-13 -4 -16 -10z"/>
<path d="M2768 4142 c-22 -4 -23 -18 -3 -26 9 -3 18 1 22 10 7 18 3 21 -19 16z"/>
<path d="M2620 4105 c-7 -8 -9 -15 -4 -15 5 0 1 -5 -10 -11 -15 -9 -16 -13 -5
-21 11 -7 11 -11 2 -15 -7 -2 -13 -9 -13 -14 0 -6 4 -8 9 -4 5 3 12 1 16 -4 9
-15 33 -2 42 22 10 31 10 40 1 60 -11 21 -22 22 -38 2z"/>
<path d="M2785 4110 c-4 -7 -2 -17 4 -23 17 -17 13 -29 -9 -22 -16 5 -20 2
-20 -14 0 -12 -4 -21 -10 -21 -15 0 -12 -26 6 -40 12 -11 18 -10 32 3 10 11
12 17 4 17 -7 0 -12 -6 -12 -12 0 -9 -4 -8 -10 2 -12 18 -12 21 -1 39 8 12 12
12 24 2 13 -10 16 -9 22 8 3 11 15 23 26 26 25 8 15 25 -11 18 -14 -4 -20 -1
-18 7 4 16 -18 24 -27 10z"/>
<path d="M2745 4100 c-3 -5 1 -10 10 -10 9 0 13 5 10 10 -3 6 -8 10 -10 10 -2
0 -7 -4 -10 -10z"/>
<path d="M2724 4074 c-7 -3 -10 -14 -7 -24 8 -28 21 -25 19 5 0 14 -1 25 -1
24 0 0 -5 -3 -11 -5z"/>
<path d="M2860 4059 c0 -6 -7 -9 -15 -5 -11 4 -15 -1 -14 -17 0 -12 3 -16 6
-9 4 10 8 10 19 1 12 -10 13 -9 8 5 -3 9 -1 16 5 16 6 0 11 5 11 10 0 6 -4 10
-10 10 -5 0 -10 -5 -10 -11z"/>
<path d="M2880 4010 c0 -19 3 -21 12 -12 9 9 9 15 0 24 -9 9 -12 7 -12 -12z"/>
<path d="M2717 4013 c-13 -12 -7 -31 11 -38 13 -5 14 -3 5 6 -6 6 -9 18 -6 25
5 15 1 18 -10 7z"/>
<path d="M2460 3994 c-11 -12 -15 -12 -21 -2 -7 10 -9 10 -9 -1 0 -8 7 -22 16
-32 12 -13 12 -19 3 -25 -8 -5 -10 -3 -4 6 5 9 4 11 -3 6 -19 -12 -14 -23 13
-28 17 -4 33 2 51 19 27 25 29 58 4 58 -8 0 -20 4 -26 8 -7 4 -17 0 -24 -9z"/>
<path d="M2380 3841 c0 -5 7 -12 16 -15 22 -9 24 -8 24 9 0 8 -9 15 -20 15
-11 0 -20 -4 -20 -9z"/>
<path d="M1272 2673 c-27 -39 -35 -88 -17 -103 20 -17 41 1 50 41 4 16 11 31
16 34 5 4 9 17 9 31 0 34 -33 32 -58 -3z"/>
<path d="M4685 1980 c-7 -12 2 -30 16 -30 5 0 9 9 9 20 0 21 -15 27 -25 10z"/>
<path d="M1274 1490 c-10 -4 -71 -20 -134 -34 -123 -29 -180 -50 -180 -65 0
-16 20 -24 33 -13 7 5 41 15 77 21 63 12 116 27 208 57 30 9 50 11 62 4 27
-14 56 -12 70 5 10 12 10 16 -1 19 -28 9 -116 13 -135 6z"/>
<path d="M1152 1404 c-72 -19 -97 -33 -84 -46 8 -8 25 -6 59 7 26 10 55 19 63
20 23 2 41 15 35 26 -7 11 -7 11 -73 -7z"/>
<path d="M1403 1383 c-13 -3 -23 -11 -23 -19 0 -11 21 -14 109 -14 59 0 135
-2 167 -6 62 -5 98 6 78 26 -11 11 -283 21 -331 13z"/>
<path d="M2674 3796 c-3 -8 -1 -31 5 -53 6 -21 11 -47 11 -57 0 -20 0 -20 -14
0 -20 26 -36 9 -41 -47 -11 -106 -51 -245 -121 -422 -19 -48 -19 -49 0 -63 11
-8 22 -10 25 -6 9 12 50 10 48 -3 -1 -5 7 -10 18 -10 26 0 34 -35 8 -36 -10
-1 -24 -1 -30 0 -7 1 -13 -5 -13 -14 0 -18 21 -20 39 -2 11 10 13 9 7 -6 -3
-10 -6 -21 -6 -23 0 -3 -4 -2 -10 1 -5 3 -10 -1 -10 -9 0 -8 -5 -18 -12 -22
-8 -5 -9 -2 -4 11 5 15 4 16 -9 5 -18 -15 -15 -20 12 -24 21 -4 20 -41 -3 -63
-8 -8 -14 -20 -14 -26 0 -7 5 -6 11 3 8 11 9 6 5 -20 -8 -49 -8 -111 0 -137 3
-14 2 -23 -4 -23 -6 0 -8 -9 -5 -21 5 -16 8 -18 15 -7 6 9 7 6 3 -10 -9 -30
14 -63 60 -92 46 -28 67 -15 41 24 -9 15 -21 26 -26 26 -6 0 -10 6 -10 14 0
10 10 13 35 10 l35 -3 -4 46 c-3 25 -7 47 -10 50 -9 9 -76 21 -70 12 3 -5 0
-9 -5 -9 -15 0 -18 49 -8 130 7 53 18 90 28 90 5 0 6 6 3 13 -2 7 5 41 16 76
11 35 20 74 20 86 0 12 3 25 7 28 7 8 8 16 18 161 6 88 10 109 24 113 9 2 21
15 28 29 15 32 7 30 -24 -6 -13 -16 -32 -30 -41 -30 -11 0 -5 8 15 23 18 12
33 30 33 40 0 9 4 17 10 17 13 0 8 41 -6 57 -6 6 -14 35 -17 65 -10 80 -26
128 -43 128 -8 0 -17 -6 -20 -14z m-20 -382 c-1 -15 -8 -31 -16 -35 -9 -6 -8
-9 5 -15 9 -3 17 -10 17 -16 0 -5 -5 -6 -10 -3 -13 8 -38 -17 -32 -33 2 -6 -1
-12 -7 -12 -15 0 -14 22 4 46 8 12 12 24 8 27 -3 4 -1 13 6 21 6 8 11 18 10
22 -3 16 1 24 10 24 4 0 7 -12 5 -26z m6 -94 c-19 -13 -30 -13 -30 0 0 6 10
10 23 10 18 0 19 -2 7 -10z m0 -24 c0 -3 -4 -8 -10 -11 -5 -3 -10 -1 -10 4 0
6 5 11 10 11 6 0 10 -2 10 -4z m-35 -15 c3 -5 -4 -16 -15 -24 -18 -13 -19 -16
-5 -27 13 -11 14 -10 10 3 -4 8 -2 18 4 22 6 3 11 1 11 -5 0 -6 5 -8 10 -5 12
8 13 3 0 -29 -5 -14 -14 -26 -20 -26 -6 0 -8 4 -5 10 3 5 0 7 -8 4 -10 -3 -16
3 -19 19 -8 43 19 86 37 58z m-43 -76 c4 -20 2 -23 -8 -14 -7 6 -10 17 -7 25
7 20 10 18 15 -11z m38 -46 c0 -6 -4 -7 -10 -4 -5 3 -10 11 -10 16 0 6 5 7 10
4 6 -3 10 -11 10 -16z m50 -404 c-9 -10 -6 -14 11 -17 35 -5 34 -25 -1 -24
-21 1 -32 7 -36 21 -4 11 -2 21 5 23 6 2 9 8 6 13 -4 5 1 6 10 3 11 -5 13 -10
5 -19z"/>
<path d="M2557 3699 c3 -11 10 -19 15 -19 5 0 7 4 4 9 -4 5 -1 11 6 13 7 3 3
7 -8 10 -17 4 -20 2 -17 -13z"/>
<path d="M2295 3650 c-3 -5 -1 -10 4 -10 6 0 11 5 11 10 0 6 -2 10 -4 10 -3 0
-8 -4 -11 -10z"/>
<path d="M2380 3621 c0 -26 -40 -39 -52 -17 -11 20 -38 21 -38 1 0 -8 7 -15
15 -15 7 0 18 -7 23 -16 20 -36 93 13 78 52 -8 21 -26 17 -26 -5z"/>
<path d="M2332 3619 c2 -7 10 -15 17 -17 8 -3 12 1 9 9 -2 7 -10 15 -17 17 -8
3 -12 -1 -9 -9z"/>
<path d="M2493 3623 c-7 -3 -13 -17 -13 -31 0 -22 6 -29 34 -38 28 -9 35 -8
44 7 14 22 -13 35 -36 17 -10 -8 -13 -9 -9 -1 10 16 -6 51 -20 46z"/>
<path d="M2520 3617 c0 -10 8 -17 18 -17 9 0 13 4 7 8 -5 4 -13 11 -17 16 -5
5 -8 2 -8 -7z"/>
<path d="M2217 3477 c-3 -8 -2 -20 3 -27 6 -9 10 -8 19 6 6 11 11 15 11 10 0
-5 -7 -17 -16 -27 -12 -14 -13 -22 -4 -38 12 -24 35 -29 26 -6 -4 10 1 15 16
15 12 0 18 3 15 7 -8 7 11 33 24 33 5 0 9 -4 9 -10 0 -5 -7 -10 -16 -10 -8 0
-12 -5 -9 -10 4 -6 11 -8 16 -5 5 4 9 2 9 -3 0 -6 -11 -13 -25 -16 -28 -7 -34
-36 -7 -36 18 0 45 26 50 49 1 7 -4 24 -13 38 -14 21 -19 22 -33 11 -9 -7 -14
-8 -10 -4 9 11 -21 35 -43 36 -9 0 -19 -6 -22 -13z"/>
<path d="M2736 3465 c-3 -8 -1 -15 4 -15 6 0 10 -7 10 -15 0 -20 16 -19 24 1
6 16 -9 44 -24 44 -4 0 -10 -7 -14 -15z"/>
<path d="M1703 3444 c0 -8 6 -14 14 -14 7 0 13 4 13 9 0 5 -6 11 -13 14 -8 3
-14 -1 -14 -9z"/>
<path d="M2441 3434 c0 -11 3 -14 6 -6 3 7 2 16 -1 19 -3 4 -6 -2 -5 -13z"/>
<path d="M2469 3432 c-1 -4 -1 -11 0 -15 1 -4 -5 -10 -12 -13 -9 -3 -12 -14
-9 -30 3 -19 10 -24 26 -22 11 2 20 9 18 16 -1 7 4 23 13 35 8 12 15 24 15 27
0 9 -50 11 -51 2z"/>
<path d="M1750 3425 c0 -3 7 -14 16 -23 15 -14 16 -14 13 3 -4 17 -29 35 -29
20z"/>
<path d="M2730 3404 c0 -8 5 -12 10 -9 6 3 10 1 10 -6 0 -10 3 -10 12 -1 10
10 10 15 -2 22 -22 14 -30 12 -30 -6z"/>
<path d="M2420 3373 c0 -5 5 -15 10 -23 8 -12 10 -11 10 8 0 12 -4 22 -10 22
-5 0 -10 -3 -10 -7z"/>
<path d="M2047 3309 c7 -7 15 -10 18 -7 3 3 -2 9 -12 12 -14 6 -15 5 -6 -5z"/>
<path d="M2110 3310 c0 -5 7 -10 16 -10 8 0 12 5 9 10 -3 6 -10 10 -16 10 -5
0 -9 -4 -9 -10z"/>
<path d="M2373 3237 c-3 -6 -1 -7 5 -3 7 4 12 1 12 -8 0 -8 -4 -17 -10 -21 -5
-3 -6 -13 -3 -22 6 -15 7 -14 14 3 6 16 8 16 8 2 1 -10 -8 -22 -19 -28 -16 -8
-20 -8 -20 4 0 7 -7 17 -16 20 -12 5 -15 2 -9 -11 4 -10 8 -25 9 -32 3 -17 26
-28 26 -12 0 6 7 8 15 5 8 -4 15 -1 15 5 0 6 3 10 8 10 31 -5 42 3 39 29 -6
52 -54 91 -74 59z"/>
<path d="M2330 3230 c0 -5 5 -10 10 -10 6 0 10 5 10 10 0 6 -4 10 -10 10 -5 0
-10 -4 -10 -10z"/>
<path d="M1910 3201 c0 -5 5 -13 10 -16 6 -3 10 -2 10 4 0 5 -4 13 -10 16 -5
3 -10 2 -10 -4z"/>
<path d="M2698 3174 l-4 -35 17 23 c10 12 16 26 13 29 -2 4 2 10 8 12 7 3 3 6
-8 6 -18 1 -23 -6 -26 -35z"/>
<path d="M2242 3171 c1 -20 6 -27 16 -23 11 4 13 0 7 -16 -3 -12 -2 -22 3 -22
5 0 12 9 15 20 3 11 2 20 -3 20 -4 0 -11 11 -14 25 -9 34 -27 32 -24 -4z"/>
<path d="M2161 3179 c-14 -5 -31 -7 -38 -5 -18 7 -16 -7 5 -32 13 -15 22 -18
34 -11 10 5 15 16 12 24 -4 8 -2 15 4 15 6 0 13 -6 15 -12 4 -10 6 -10 6 0 1
8 6 10 14 6 8 -5 8 -2 -2 9 -15 19 -17 19 -50 6z"/>
<path d="M2205 3139 c-17 -6 -17 -8 -2 -8 20 -1 23 -27 5 -34 -8 -3 -7 -6 4
-6 21 -1 26 8 19 35 -5 17 -10 19 -26 13z"/>
<path d="M2555 3120 c3 -5 8 -10 11 -10 2 0 4 5 4 10 0 6 -5 10 -11 10 -5 0
-7 -4 -4 -10z"/>
<path d="M2290 3100 c0 -11 4 -20 10 -20 5 0 7 -7 3 -15 -3 -10 0 -15 8 -13 9
2 13 -9 14 -34 0 -32 2 -35 19 -26 18 10 19 11 2 23 -9 7 -16 17 -15 21 3 11
-28 84 -35 84 -4 0 -6 -9 -6 -20z"/>
<path d="M1930 3100 c-12 -7 -12 -10 3 -16 21 -8 29 -3 19 13 -5 8 -13 9 -22
3z"/>
<path d="M2135 3060 c2 -24 15 -40 15 -17 0 10 0 20 1 24 0 4 -4 9 -9 11 -5 1
-8 -6 -7 -18z"/>
<path d="M1933 3054 c0 -8 6 -14 14 -14 7 0 13 4 13 9 0 5 -6 11 -13 14 -8 3
-14 -1 -14 -9z"/>
<path d="M2233 3053 c-7 -3 -13 -9 -13 -15 0 -5 6 -8 13 -5 6 2 23 -5 36 -17
24 -21 24 -21 13 0 -15 28 -34 42 -49 37z"/>
<path d="M2295 3030 c3 -5 8 -10 11 -10 2 0 4 5 4 10 0 6 -5 10 -11 10 -5 0
-7 -4 -4 -10z"/>
<path d="M2450 3019 c0 -5 4 -7 10 -4 15 9 22 -38 11 -68 -13 -34 0 -36 16 -2
12 27 7 65 -11 77 -16 11 -26 10 -26 -3z"/>
<path d="M4993 2985 c0 -27 2 -38 4 -22 2 15 2 37 0 50 -2 12 -4 0 -4 -28z"/>
<path d="M2425 3011 c-3 -5 -1 -12 5 -16 5 -3 10 1 10 9 0 18 -6 21 -15 7z"/>
<path d="M1966 2995 c-3 -8 0 -17 6 -21 6 -4 8 -3 4 4 -3 5 -1 12 6 14 8 3 9
6 1 11 -6 4 -13 0 -17 -8z"/>
<path d="M2026 2992 c-3 -6 -1 -12 5 -14 8 -3 6 -10 -5 -21 -10 -9 -16 -23
-13 -30 2 -6 -5 -22 -17 -35 -21 -23 -21 -24 -2 -38 11 -8 27 -14 35 -14 14 0
14 1 1 10 -13 8 -13 10 2 10 10 0 22 -9 28 -20 6 -11 7 -20 2 -20 -4 0 -8 -9
-9 -20 -1 -11 2 -18 8 -15 5 4 9 12 9 20 0 7 6 15 13 18 10 4 10 7 0 18 -18
18 -16 26 8 32 18 5 21 2 17 -22 -3 -23 -1 -27 14 -23 13 3 16 8 8 17 -5 6 -8
14 -5 17 3 3 -1 11 -10 18 -8 7 -15 20 -15 28 0 13 -2 12 -14 -3 -8 -11 -20
-16 -29 -12 -10 4 -18 0 -21 -11 -3 -13 -4 -12 -3 3 1 11 -2 26 -6 33 -5 7 -2
19 7 28 18 18 19 24 7 43 -5 8 -11 9 -15 3z"/>
<path d="M1913 2980 c-28 -11 -29 -15 -4 -17 11 -1 22 5 25 13 3 8 4 14 3 13
-1 0 -12 -4 -24 -9z"/>
<path d="M2397 2976 c-20 -20 -14 -38 10 -29 13 5 15 2 9 -12 -7 -18 -6 -18
14 0 24 21 25 26 6 19 -9 -4 -16 2 -18 17 -3 22 -4 22 -21 5z"/>
<path d="M2535 2970 c-3 -5 1 -10 10 -10 9 0 13 5 10 10 -3 6 -8 10 -10 10 -2
0 -7 -4 -10 -10z"/>
<path d="M1944 2954 c5 -13 1 -15 -19 -12 -15 3 -25 1 -25 -7 0 -21 12 -25 33
-10 18 12 22 12 32 -2 6 -9 17 -14 24 -12 8 3 4 14 -13 32 -28 30 -41 35 -32
11z"/>
<path d="M2285 2922 c-3 -10 -1 -12 10 -8 8 3 15 1 15 -4 0 -5 7 -7 15 -3 9 3
14 11 12 17 -5 16 -45 16 -52 -2z"/>
<path d="M2050 2921 c0 -5 5 -13 10 -16 6 -3 10 -2 10 4 0 5 -4 13 -10 16 -5
3 -10 2 -10 -4z"/>
<path d="M2436 2915 c-3 -8 -1 -15 4 -15 6 0 10 7 10 15 0 8 -2 15 -4 15 -2 0
-6 -7 -10 -15z"/>
<path d="M2516 2908 c3 -4 9 -8 15 -8 5 0 9 4 9 8 0 5 -7 9 -15 9 -8 0 -12 -4
-9 -9z"/>
<path d="M2520 2868 c0 -7 4 -19 9 -27 11 -17 23 1 15 23 -7 19 -24 21 -24 4z"/>
<path d="M2140 2860 c0 -5 5 -10 10 -10 6 0 10 5 10 10 0 6 -4 10 -10 10 -5 0
-10 -4 -10 -10z"/>
<path d="M2147 2817 c-2 -7 4 -23 14 -36 16 -19 22 -21 34 -11 21 17 19 27 -6
35 -17 6 -19 9 -8 16 11 7 9 9 -7 9 -12 0 -24 -6 -27 -13z m53 -31 c0 -3 -4
-8 -10 -11 -5 -3 -10 -1 -10 4 0 6 5 11 10 11 6 0 10 -2 10 -4z"/>
<path d="M2530 2810 c0 -5 5 -10 10 -10 6 0 10 5 10 10 0 6 -4 10 -10 10 -5 0
-10 -4 -10 -10z"/>
<path d="M2115 2780 c-3 -5 1 -10 10 -10 9 0 13 5 10 10 -3 6 -8 10 -10 10 -2
0 -7 -4 -10 -10z"/>
<path d="M2540 2775 c0 -8 5 -15 10 -15 6 0 10 7 10 15 0 8 -4 15 -10 15 -5 0
-10 -7 -10 -15z"/>
<path d="M2147 2743 c-4 -3 -7 -11 -7 -17 0 -6 5 -5 12 2 6 6 9 14 7 17 -3 3
-9 2 -12 -2z"/>
<path d="M4545 2741 c-3 -5 -1 -12 5 -16 12 -7 30 2 30 16 0 12 -27 12 -35 0z"/>
<path d="M4707 2743 c-12 -11 -8 -23 8 -23 8 0 15 7 15 15 0 16 -12 20 -23 8z"/>
<path d="M4492 2728 c6 -18 28 -21 28 -4 0 9 -7 16 -16 16 -9 0 -14 -5 -12
-12z"/>
<path d="M4746 2713 c-12 -12 -6 -33 9 -33 8 0 15 6 15 14 0 17 -14 28 -24 19z"/>
<path d="M4640 2695 c0 -8 7 -15 15 -15 8 0 15 7 15 15 0 8 -7 15 -15 15 -8 0
-15 -7 -15 -15z"/>
<path d="M2017 2670 c-3 -11 1 -27 8 -36 11 -16 13 -14 17 14 5 34 -17 53 -25
22z"/>
<path d="M2080 2672 c0 -14 2 -14 9 -3 8 12 12 12 25 2 9 -8 16 -18 16 -24 0
-6 -7 -2 -15 9 -8 10 -15 14 -15 8 0 -6 6 -17 14 -23 10 -8 16 -8 25 3 9 11 9
16 0 21 -8 6 -8 9 0 15 7 4 -4 7 -24 8 -27 1 -35 -3 -35 -16z"/>
<path d="M2196 2673 c-4 -8 -12 -13 -20 -10 -11 5 -12 0 -2 -24 9 -25 15 -29
35 -24 17 4 22 2 18 -8 -7 -18 9 -44 20 -33 4 5 2 11 -6 14 -9 3 -4 9 15 17
l29 12 -37 16 c-45 19 -49 27 -10 21 24 -4 25 -3 10 9 -10 8 -16 16 -13 18 2
3 -4 5 -15 6 -10 1 -21 -5 -24 -14z"/>
<path d="M2260 2591 c0 -6 9 -9 19 -8 11 0 17 5 15 9 -7 11 -34 10 -34 -1z"/>
<path d="M2310 2561 c0 -6 4 -13 10 -16 6 -3 7 1 4 9 -7 18 -14 21 -14 7z"/>
<path d="M565 2130 c-33 -4 -107 -13 -165 -19 -111 -13 -127 -19 -116 -46 4
-13 13 -15 32 -11 53 14 173 28 274 33 111 5 131 12 110 38 -13 16 -35 17
-135 5z"/>
<path d="M7 2094 c-15 -15 -6 -34 16 -34 12 0 45 -6 73 -14 29 -8 58 -10 65
-5 16 9 14 11 -28 33 -38 19 -115 31 -126 20z"/>
<path d="M552 2053 c2 -14 15 -19 57 -21 64 -4 83 2 75 23 -5 11 -22 15 -71
15 -56 0 -64 -2 -61 -17z"/>
<path d="M4884 1969 c-10 -17 13 -36 27 -22 12 12 4 33 -11 33 -5 0 -12 -5
-16 -11z"/>
<path d="M0 1936 l0 -26 93 0 c50 0 112 -5 137 -11 42 -11 260 -13 390 -6 46
3 55 7 55 22 0 18 -13 19 -220 21 -241 3 -407 10 -436 19 -15 5 -19 1 -19 -19z"/>
<path d="M1 1834 c0 -11 3 -14 6 -6 3 7 2 16 -1 19 -3 4 -6 -2 -5 -13z"/>
<path d="M4710 932 c-14 -11 -23 -30 -24 -52 -2 -34 -3 -35 -52 -41 -67 -8
-94 -18 -94 -33 0 -22 26 -37 77 -45 l48 -8 -42 -12 c-50 -14 -58 -23 -43 -51
7 -14 21 -20 43 -20 18 0 39 -5 47 -10 13 -8 13 -10 -2 -10 -9 0 -29 -10 -44
-23 -22 -19 -26 -29 -20 -51 9 -37 39 -31 46 9 4 22 11 30 25 30 22 0 21 14
25 -237 2 -95 6 -131 17 -139 7 -7 16 -10 19 -7 3 3 5 92 4 197 l0 191 43 2
c23 1 80 2 127 3 l85 0 2 42 c2 34 0 41 -12 37 -10 -4 -18 3 -25 20 -9 24 -14
26 -71 26 -81 0 -70 9 17 16 38 3 73 9 79 15 14 14 -15 31 -45 25 -30 -5 -44
2 -53 27 -4 10 -17 17 -34 17 l-28 0 30 24 c29 23 29 24 12 50 -16 23 -24 26
-76 26 -42 0 -65 -5 -81 -18z m95 -32 c-3 -5 -19 -10 -36 -10 -16 0 -29 5 -29
10 0 6 16 10 36 10 21 0 33 -4 29 -10z m-7 -47 c-10 -2 -26 -2 -35 0 -10 3 -2
5 17 5 19 0 27 -2 18 -5z m-118 -53 c0 -5 -6 -10 -14 -10 -8 0 -18 5 -21 10
-3 6 3 10 14 10 12 0 21 -4 21 -10z m95 -1 c-18 -5 -33 -5 -39 1 -7 7 4 10 30
9 39 -1 39 -1 9 -10z m50 -89 c24 -6 17 -8 -33 -9 -40 -1 -61 3 -57 9 7 11 46
11 90 0z m-152 -7 c-7 -2 -19 -2 -25 0 -7 3 -2 5 12 5 14 0 19 -2 13 -5z"/>
<path d="M4803 569 c-9 -9 -7 -17 8 -32 15 -16 22 -18 31 -9 9 9 10 17 2 29
-14 22 -27 26 -41 12z"/>
</g>
</svg>
