<?xml version="1.0" standalone="no"?>
<!DOCTYPE svg PUBLIC "-//W3C//DTD SVG 20010904//EN"
 "http://www.w3.org/TR/2001/REC-SVG-20010904/DTD/svg10.dtd">
<svg version="1.0" xmlns="http://www.w3.org/2000/svg"
 width="500.000000pt" height="878.000000pt" viewBox="0 0 500.000000 878.000000"
 preserveAspectRatio="xMidYMid meet">
<metadata>
Created by potrace 1.15, written by Peter Selinger 2001-2017
</metadata>
<g transform="translate(0.000000,878.000000) scale(0.100000,-0.100000)"
fill="#000000" stroke="none">
<path d="M2527 8703 c-1 -1 -69 -2 -152 -3 -210 -3 -307 -10 -302 -24 2 -6 15
-11 28 -12 43 -2 49 -4 49 -15 0 -6 11 -25 24 -42 27 -35 76 -129 76 -145 0
-5 -27 -12 -60 -14 -63 -4 -76 -10 -66 -27 7 -10 684 -6 694 4 3 2 2 11 -1 20
-5 11 -22 15 -67 15 -68 0 -66 -5 -60 115 3 70 12 85 51 85 22 0 29 5 29 19 0
18 -9 20 -121 23 -66 2 -121 2 -122 1z m-188 -42 c11 -7 9 -22 -14 -85 -15
-42 -29 -76 -31 -76 -2 0 -13 19 -25 43 -12 23 -25 44 -29 47 -4 3 -15 19 -24
37 l-16 32 33 4 c60 7 92 7 106 -2z m288 -104 c-2 -79 -4 -92 -19 -95 -16 -3
-18 7 -18 96 0 102 4 119 26 101 8 -7 12 -39 11 -102z m-93 26 c9 -108 9 -115
-6 -124 -25 -16 -33 -2 -40 67 -4 38 -9 81 -12 95 -6 31 0 39 29 39 21 0 23
-6 29 -77z m-99 -6 c4 -34 5 -76 3 -92 -3 -28 -7 -30 -45 -33 -50 -4 -52 1
-24 79 46 133 56 139 66 46z"/>
<path d="M1868 6743 c-57 -19 -64 -43 -13 -43 49 0 44 -19 -14 -58 -57 -37
-72 -41 -46 -12 21 23 14 36 -12 25 -27 -12 -93 -14 -93 -4 0 5 14 16 31 24
29 16 36 44 8 36 -8 -2 -27 -6 -44 -9 -16 -3 -39 -11 -50 -18 -11 -8 -28 -14
-38 -14 -10 0 -53 -35 -96 -78 -78 -78 -79 -79 -91 -150 -10 -62 -10 -78 5
-124 10 -29 26 -63 37 -75 16 -17 17 -25 9 -41 -8 -15 -6 -23 10 -38 21 -19
22 -56 4 -110 -9 -28 20 -57 47 -48 15 4 26 -1 42 -21 15 -18 34 -28 64 -32
23 -3 42 -9 42 -13 0 -12 -47 -29 -67 -24 -31 9 -47 -19 -30 -53 10 -21 12
-50 8 -113 -6 -71 -8 -80 -15 -52 -4 18 -5 55 -1 81 7 53 -8 78 -29 48 -6 -8
-17 -24 -24 -34 -7 -10 -10 -12 -7 -5 13 27 -124 58 -140 32 -9 -14 -37 -12
-33 2 3 7 18 16 34 20 16 4 47 11 69 17 22 6 55 8 74 4 26 -4 33 -3 29 8 -11
33 -50 38 -129 19 -42 -10 -88 -26 -103 -35 -36 -24 -84 -97 -92 -140 -8 -44
-40 -62 -100 -56 -14 1 -34 128 -34 211 0 39 -5 64 -15 74 -17 17 -8 53 19 75
10 9 16 29 16 56 0 37 -5 47 -40 79 -35 31 -47 36 -91 36 -65 0 -99 -18 -128
-70 -24 -43 -24 -44 0 -147 15 -66 -2 -298 -22 -318 -9 -9 -50 -15 -121 -17
l-107 -3 -5 29 c-11 51 -6 132 8 151 20 28 9 104 -21 137 -52 55 -162 42 -204
-25 -16 -26 -19 -44 -15 -92 10 -130 12 -402 3 -443 -8 -36 -18 -49 -66 -82
-102 -71 -161 -122 -160 -139 0 -9 8 -38 17 -66 15 -44 21 -50 42 -47 14 1 58
25 99 52 40 27 77 47 82 45 4 -3 8 -40 8 -83 0 -69 3 -79 24 -97 31 -25 34
-68 43 -507 6 -283 5 -318 -9 -318 -8 0 -22 -3 -31 -6 -25 -10 -45 60 -70 249
-6 44 -28 131 -38 150 -6 12 -2 29 17 60 22 38 23 46 11 63 -10 13 -11 23 -4
31 18 22 -1 62 -44 93 -50 37 -77 37 -148 2 -95 -47 -129 -136 -76 -199 l25
-29 -2 -245 -2 -244 -37 -3 c-27 -2 -38 -8 -38 -19 0 -18 -18 -20 260 32 183
35 410 68 417 62 6 -7 6 -95 -1 -105 -4 -8 -37 -12 -87 -12 -101 0 -256 -26
-519 -86 -62 -14 -70 -19 -70 -39 0 -22 2 -23 36 -13 46 12 54 2 54 -71 0 -32
6 -61 14 -70 10 -11 17 -78 26 -231 8 -118 13 -224 13 -235 -1 -36 36 -696 47
-840 6 -77 11 -205 13 -284 l2 -144 -50 -14 c-27 -7 -74 -13 -102 -13 -50 0
-53 -2 -53 -25 0 -24 1 -24 67 -19 38 3 83 10 100 16 38 11 53 5 53 -24 0 -16
-4 -18 -17 -12 -20 9 -76 10 -143 1 -25 -3 -49 -6 -53 -6 -4 -1 -7 -30 -6 -66
2 -46 5 -63 13 -55 14 14 26 12 26 -5 0 -8 -9 -15 -20 -15 -11 0 -20 -7 -20
-15 0 -13 18 -15 112 -13 l113 3 5 -109 c4 -94 3 -109 -12 -117 -9 -5 -25 -8
-35 -7 -10 0 -55 0 -100 0 -83 -2 -83 -2 -83 -28 l0 -27 93 8 c50 4 103 8 117
8 16 1 26 -4 28 -15 3 -16 -6 -18 -80 -20 -46 -1 -100 -1 -121 0 -35 2 -37 1
-37 -28 l0 -30 89 0 c49 0 101 4 115 10 17 6 27 6 32 -1 3 -6 8 -59 10 -117 2
-59 6 -159 9 -222 2 -63 1 -121 -3 -127 -6 -10 -17 -10 -42 -3 -42 12 -43 12
-36 1 3 -5 0 -11 -8 -14 -7 -3 -23 7 -35 24 -25 34 -37 37 -37 10 0 -11 5 -17
13 -14 9 4 11 0 7 -11 -8 -21 -54 -21 -54 -1 0 8 -4 15 -10 15 -5 0 -10 -5
-10 -11 0 -5 -4 -8 -9 -5 -26 17 -32 -28 -30 -254 l1 -232 44 5 c44 5 70 -8
40 -19 -9 -3 -16 -13 -16 -21 0 -10 -7 -13 -23 -9 -12 3 -17 3 -10 0 7 -3 9
-12 6 -20 -3 -8 -2 -14 2 -14 11 0 35 28 35 42 0 10 3 9 11 -2 9 -13 10 -13 6
0 -2 8 6 22 17 31 20 17 21 17 2 38 -11 12 -29 22 -40 22 -12 1 15 7 59 13
l80 11 0 32 c0 17 4 31 10 30 5 -1 9 4 7 11 -5 27 22 5 30 -24 12 -44 12 -254
0 -266 -6 -6 -28 -12 -49 -14 -21 -2 -63 -12 -93 -23 -30 -12 -69 -21 -87 -21
-26 0 -33 -4 -33 -19 0 -15 6 -19 20 -16 15 3 24 -3 30 -21 10 -26 9 -26 89
-4 15 4 38 -1 60 -12 41 -21 135 -25 129 -6 -3 7 -24 16 -48 20 -24 4 -53 17
-65 28 -12 11 -27 20 -35 20 -9 0 -7 5 6 14 17 13 21 13 36 -7 16 -21 22 -22
180 -18 220 5 221 5 318 -13 57 -11 88 -12 95 -5 13 13 -9 27 -55 35 -19 3
-60 12 -91 21 -45 13 -55 20 -55 37 1 19 -4 21 -57 19 l-57 -2 1 72 c0 40 0
77 -2 82 -3 15 12 45 23 45 5 0 6 -5 2 -12 -5 -7 -3 -8 6 -3 7 4 16 2 20 -6 7
-10 11 -10 24 0 9 7 27 11 40 9 17 -3 23 0 22 11 -1 12 11 17 52 19 82 5 93 5
164 -1 41 -4 96 -1 140 8 40 7 136 13 212 14 76 0 143 4 149 10 19 19 -5 31
-64 31 -33 0 -58 4 -55 9 3 5 0 11 -8 14 -8 3 -17 0 -19 -7 -4 -10 -22 -12
-64 -10 -32 3 -82 -1 -111 -7 -36 -7 -57 -7 -65 0 -9 7 -20 6 -37 -2 -17 -9
-44 -10 -84 -6 -33 4 -64 5 -70 3 -6 -2 -64 -5 -128 -7 -71 -2 -123 -8 -131
-16 -12 -9 -16 -8 -20 3 -7 16 -11 275 -6 280 2 2 53 7 113 11 72 5 114 12
123 21 8 8 10 14 4 14 -6 0 -8 6 -5 14 4 12 -2 13 -33 6 -21 -4 -71 -8 -112
-9 -40 -1 -77 -4 -82 -7 -5 -3 -9 16 -10 43 0 26 -2 88 -5 137 l-6 89 27 -7
c15 -4 35 -4 46 -1 34 11 21 33 -28 49 l-48 15 43 -5 c36 -5 129 -6 262 -3 19
1 56 -7 82 -17 37 -14 51 -15 59 -7 16 16 -2 39 -36 47 -14 4 -25 11 -25 17 0
7 8 9 23 4 12 -4 39 -9 60 -12 23 -3 41 -12 48 -24 15 -29 102 -26 153 5 l38
24 57 -19 c60 -21 102 -22 109 -1 2 7 -11 19 -30 28 -33 15 -33 15 27 9 97
-11 189 -12 208 -3 29 14 9 28 -41 28 -26 0 -92 7 -147 15 -123 18 -197 19
-213 3 -7 -7 -12 -10 -13 -8 0 3 -2 67 -5 143 -4 125 -2 137 14 137 100 3 115
8 148 46 l32 39 40 -23 c33 -18 50 -21 94 -16 63 7 123 -14 131 -47 5 -19 3
-20 -31 -14 -20 4 -48 9 -62 11 -14 2 -41 6 -61 10 -30 5 -43 0 -83 -27 -33
-24 -66 -36 -114 -44 -80 -13 -80 -31 1 -28 45 1 71 9 120 36 l62 35 59 -13
c87 -20 116 -35 122 -61 3 -12 4 -98 2 -191 -4 -162 -5 -169 -30 -206 -15 -21
-28 -42 -30 -48 -7 -21 -474 -12 -533 11 -46 18 -275 14 -324 -6 -42 -17 -61
-48 -42 -67 9 -9 20 -7 44 7 30 18 79 28 207 42 51 6 59 4 88 -21 17 -14 35
-24 40 -21 11 6 101 6 320 0 180 -6 187 -8 157 -48 -8 -11 -15 -28 -15 -39 0
-15 -5 -17 -29 -12 -33 7 -319 7 -501 0 -119 -5 -190 -18 -190 -35 0 -18 31
-32 57 -25 16 4 73 9 127 10 55 2 135 6 178 10 54 5 78 4 78 -4 0 -6 -6 -11
-13 -11 -18 0 -60 -37 -50 -43 4 -2 76 -4 158 -3 124 1 150 4 150 16 0 19 -41
27 -147 29 -52 1 -88 5 -88 11 0 11 12 12 157 4 74 -4 100 -9 97 -18 -3 -7 4
-20 14 -30 40 -36 195 11 322 97 25 17 49 36 53 43 5 9 29 13 73 12 68 -1 103
14 74 32 -8 5 -28 10 -43 10 -57 0 -15 18 60 25 134 13 262 7 292 -13 38 -26
77 -42 156 -63 85 -23 105 -23 105 -4 0 20 -41 39 -128 60 -59 14 -76 23 -95
48 -51 72 -52 87 -6 87 13 0 49 2 81 6 l56 6 25 -39 c14 -21 35 -62 47 -90 24
-56 42 -70 60 -48 13 16 0 66 -32 123 l-19 34 41 39 c22 21 44 39 49 39 5 0
23 12 40 26 33 27 68 29 63 2 -1 -9 5 -19 15 -22 21 -6 129 7 157 19 14 6 18
5 14 -6 -3 -8 -13 -15 -24 -17 -87 -14 -124 -25 -124 -38 0 -12 34 -20 64 -15
5 1 13 -4 17 -11 6 -9 9 -10 9 -1 0 7 15 15 34 18 58 11 94 40 98 77 2 26 7
32 23 30 11 -1 49 -2 84 -2 62 -1 63 -1 46 -20 -29 -32 8 -54 53 -31 68 37
100 48 112 41 23 -14 -15 -60 -49 -60 -31 0 -96 -24 -106 -39 -3 -6 3 -14 13
-20 21 -11 92 -10 92 2 0 4 9 7 20 7 12 0 35 7 52 16 20 10 44 14 65 11 51 -9
153 11 203 39 34 19 49 23 65 15 38 -19 180 -62 220 -67 23 -3 68 2 105 12 82
21 125 20 305 -7 61 -9 88 -19 115 -40 20 -16 54 -31 80 -35 25 -4 53 -11 62
-15 12 -7 23 -3 38 13 23 25 27 50 7 42 -10 -3 -14 4 -14 25 l0 30 34 -39 c22
-25 46 -40 71 -45 51 -11 221 -12 215 -2 -3 5 10 7 28 5 l34 -3 1 67 c1 37 -2
65 -7 62 -5 -3 -9 0 -9 5 0 6 5 11 10 11 6 0 10 22 10 50 0 49 0 49 -37 56
-35 7 -70 -5 -66 -23 1 -4 -9 -13 -23 -20 -23 -11 -24 -10 -24 27 0 37 1 38
45 45 26 3 59 3 75 0 25 -6 30 -4 30 13 0 27 -23 34 -92 26 l-59 -7 3 44 3 44
73 8 72 9 0 37 0 37 -58 -2 c-32 -2 -65 -4 -73 -6 -11 -2 -15 13 -17 77 -3 99
1 107 53 95 66 -16 95 -13 95 9 0 11 -8 21 -17 23 -11 2 -18 13 -18 28 0 23
-5 25 -54 30 l-54 5 0 60 c0 33 3 173 7 310 10 380 14 578 21 1073 4 249 8
465 10 480 2 15 6 144 10 287 4 143 8 261 10 263 1 1 19 -14 41 -35 36 -34 39
-35 42 -15 2 12 -4 32 -12 44 -9 13 -16 43 -16 70 0 42 -3 49 -28 62 l-27 14
2 149 c8 593 11 647 34 664 18 13 21 26 20 69 0 29 -3 61 -6 71 -4 12 1 19 15
24 11 3 20 15 20 26 0 17 -8 19 -97 20 -54 1 -125 1 -159 0 -43 -2 -64 1 -72
12 -10 11 -9 17 1 26 10 8 42 7 126 -5 126 -17 138 -14 143 39 2 27 8 33 31
35 30 4 39 35 12 46 -10 3 -15 20 -15 48 -1 42 -7 76 -29 166 -10 37 -8 49 10
88 11 26 18 56 15 69 -9 37 -45 74 -82 84 -45 12 -127 -11 -149 -42 -18 -25
-20 -108 -3 -125 9 -9 9 -26 0 -75 -7 -36 -12 -80 -12 -99 0 -38 -21 -64 -43
-55 -23 9 -36 273 -21 404 7 61 -12 97 -69 128 -31 16 -39 17 -81 5 -84 -23
-121 -114 -77 -187 15 -24 18 -38 11 -60 -5 -15 -12 -41 -17 -57 l-8 -30 -127
-2 c-91 -3 -129 0 -136 9 -6 7 -14 60 -17 117 -4 58 -11 122 -17 144 -8 33 -7
41 11 60 27 28 28 89 2 136 -24 47 -78 83 -111 75 -44 -10 -86 -37 -108 -69
-27 -40 -30 -120 -6 -155 16 -22 16 -34 -2 -167 -10 -79 -23 -144 -29 -145 -5
0 -73 -1 -150 0 l-140 0 -8 96 c-7 88 -6 98 13 122 11 14 20 35 20 47 0 50
-75 126 -126 126 -11 0 -42 -7 -68 -16 -78 -27 -108 -103 -70 -176 15 -30 15
-41 0 -147 -9 -64 -17 -136 -19 -161 l-2 -45 -50 -3 c-27 -2 -88 2 -134 9 -79
11 -84 13 -96 43 -7 17 -15 56 -19 86 -3 30 -12 76 -18 101 -10 40 -9 52 7 84
19 42 16 104 -7 132 -18 22 -87 53 -121 53 -41 0 -104 -36 -122 -70 -27 -53
-18 -116 25 -165 16 -18 18 -41 16 -200 l-1 -180 -64 0 -64 0 -24 85 c-19 70
-31 92 -62 122 -47 45 -101 61 -175 52 -44 -5 -66 -3 -96 11 -38 17 -39 19
-20 32 26 18 26 43 -1 43 -14 0 -19 5 -17 18 2 12 13 17 33 17 26 0 30 -3 27
-24 -3 -28 18 -55 57 -71 22 -9 36 -8 62 3 24 10 42 11 62 4 15 -5 40 -6 55
-2 26 7 26 7 5 16 -12 4 -27 17 -33 29 -9 17 -19 20 -63 18 -46 -3 -52 -1 -52
17 0 16 8 21 39 25 45 6 58 25 24 33 -50 12 -101 35 -109 50 -14 24 6 30 40
12 29 -14 61 -12 61 6 0 5 -13 15 -30 24 -16 9 -30 19 -30 24 0 18 -49 61 -64
55 -9 -3 -22 1 -31 9 -8 8 -19 17 -24 19 -14 5 -16 100 -3 125 16 29 15 102
-1 133 -7 14 -25 31 -40 38 -15 7 -27 20 -27 28 0 17 14 18 41 3 12 -6 28 -8
37 -4 29 11 -11 37 -60 39 -52 2 -66 10 -102 58 -32 43 -48 51 -81 38 -21 -8
-27 -6 -41 15 -14 21 -24 25 -68 24 -28 0 -72 -7 -98 -16z m-235 -135 c-17
-18 -33 -40 -36 -48 -4 -10 -6 -8 -6 6 -1 23 41 74 60 74 7 0 -1 -15 -18 -32z
m70 -63 c-5 -13 -23 -22 -23 -11 0 15 14 35 21 31 4 -3 6 -12 2 -20z m447 -1
c0 -8 -4 -14 -10 -14 -5 0 -10 9 -10 21 0 11 5 17 10 14 6 -3 10 -13 10 -21z
m-150 -9 c0 -8 -4 -15 -10 -15 -5 0 -10 7 -10 15 0 8 5 15 10 15 6 0 10 -7 10
-15z m274 -56 c6 -34 0 -53 -15 -44 -11 8 -12 75 0 75 5 0 11 -14 15 -31z
m-651 -73 c32 -30 78 -62 103 -72 47 -18 39 -19 200 17 23 5 70 21 105 37 131
59 166 45 47 -18 -20 -11 -49 -31 -65 -46 -15 -14 -34 -29 -42 -33 -7 -5 -12
-13 -10 -19 5 -13 134 47 177 83 l33 28 20 -21 c25 -27 24 -64 -1 -87 -27 -24
-37 -12 -16 20 32 48 5 45 -52 -6 -67 -60 -137 -93 -241 -116 -140 -29 -331
-17 -331 22 0 19 14 19 67 0 53 -18 132 -10 151 17 7 10 21 18 30 18 23 0 122
42 122 52 0 12 -18 10 -51 -7 -39 -21 -146 -30 -182 -16 -15 6 -36 24 -45 41
-20 35 -40 44 -74 31 -30 -11 -58 3 -58 29 0 10 -4 22 -10 25 -15 9 -12 35 4
35 7 0 19 -7 26 -15 7 -8 17 -15 22 -15 18 0 20 31 3 50 -14 15 -15 20 -4 20
8 0 40 -24 72 -54z m292 -16 c-110 -39 -150 -43 -182 -17 -26 20 -10 24 95 24
59 0 98 -3 87 -7z m2156 -19 c37 -37 38 -73 2 -96 -23 -15 -31 -16 -62 -5 -20
7 -42 17 -48 22 -17 14 -16 49 2 75 13 19 26 25 68 32 5 0 22 -12 38 -28z
m-2457 -116 c16 -16 36 -25 55 -25 16 0 33 -4 36 -10 10 -15 -12 -12 -102 15
-87 27 -107 45 -48 45 23 0 42 -8 59 -25z m1900 -16 c46 -36 30 -121 -24 -129
-28 -5 -79 12 -96 31 -19 22 -14 54 17 92 25 33 66 35 103 6z m-566 -66 c41
-46 41 -76 0 -114 -39 -35 -84 -38 -122 -8 -47 37 -30 136 28 159 32 13 57 3
94 -37z m-768 3 c0 -16 -18 -31 -27 -22 -8 8 5 36 17 36 5 0 10 -6 10 -14z
m1902 -97 c3 -57 9 -123 12 -146 6 -47 -3 -54 -51 -41 -33 9 -42 21 -23 33 21
13 -3 25 -36 19 -22 -4 -34 -2 -34 5 0 6 11 11 24 11 25 0 51 22 39 33 -3 4
-17 7 -30 7 -12 0 -23 4 -23 9 0 6 12 9 28 8 37 -3 37 27 -1 31 -33 4 -26 22
9 22 15 0 24 6 24 15 0 8 -5 15 -11 15 -8 0 -7 5 1 15 15 18 6 31 -25 37 -15
3 -8 8 25 20 25 8 50 14 55 13 6 -1 13 -48 17 -106z m-2054 61 c2 -19 8 -40
13 -46 16 -19 -9 -66 -59 -110 -41 -36 -45 -43 -33 -58 19 -22 30 -20 43 9 15
32 24 32 33 -2 3 -16 16 -38 27 -50 l21 -22 -22 -50 c-11 -27 -21 -57 -21 -66
0 -8 -16 -25 -35 -36 -20 -12 -40 -30 -46 -40 -13 -25 -29 -24 -29 3 0 19 -2
20 -17 6 -40 -35 -143 -28 -143 9 0 10 -9 33 -20 51 -11 18 -22 42 -23 53 -2
11 -9 24 -16 28 -8 5 -11 24 -9 50 l3 42 40 -34 c43 -36 75 -52 75 -37 0 19
27 10 38 -12 l11 -23 0 23 c1 15 12 29 31 40 55 31 33 62 -27 37 -36 -16 -40
-15 -83 6 -31 16 -56 39 -80 77 -19 29 -50 65 -67 78 -18 14 -33 32 -33 41 0
13 8 15 50 10 57 -7 256 24 310 47 50 22 64 17 68 -24z m2553 11 c35 -35 38
-74 7 -95 -28 -20 -72 -20 -88 -1 -17 21 -6 96 16 112 25 18 32 17 65 -16z
m-3562 -18 c49 -45 49 -73 2 -116 -67 -60 -130 -41 -146 44 -5 30 -2 41 20 67
35 42 82 44 124 5z m1121 -72 c0 -14 -18 -23 -30 -16 -6 4 -8 11 -5 16 8 12
35 12 35 0z m1394 -53 c11 -84 10 -258 -1 -269 -6 -6 -19 -6 -37 1 -21 7 -26
15 -21 29 5 18 2 19 -45 14 -32 -3 -50 -1 -50 6 0 6 12 11 28 11 15 0 33 4 41
9 17 11 6 31 -17 32 -12 0 -10 3 6 10 35 13 22 35 -19 31 -36 -4 -31 13 6 20
11 2 21 11 23 21 3 13 -3 17 -28 17 -38 0 -32 15 11 24 25 5 29 9 24 26 -4 14
-1 22 10 26 9 4 14 13 11 21 -5 13 31 35 45 27 4 -2 10 -27 13 -56z m1360 30
c46 -65 -8 -137 -75 -103 -28 15 -34 29 -30 69 5 53 76 76 105 34z m-2714 -38
c0 -5 -2 -10 -4 -10 -3 0 -8 5 -11 10 -3 6 -1 10 4 10 6 0 11 -4 11 -10z m-49
-31 c18 -26 27 -30 50 -25 16 3 43 -1 61 -8 l33 -14 -28 -13 c-21 -9 -33 -10
-45 -2 -10 5 -31 8 -48 6 -36 -6 -70 20 -80 60 -5 23 -3 27 14 27 12 0 30 -14
43 -31z m838 -1 c5 -18 13 -60 16 -93 4 -33 13 -79 21 -103 16 -48 18 -81 6
-100 -12 -18 -72 -26 -106 -12 -28 10 -28 11 -10 25 15 10 16 16 7 26 -9 9 -9
16 0 32 9 15 9 21 -1 24 -10 4 -10 8 -1 19 12 15 6 19 -36 26 -17 3 -15 7 13
21 38 21 42 37 7 37 -15 0 -25 6 -25 15 0 8 11 17 25 21 14 3 25 7 25 8 0 0
-4 16 -9 33 -8 27 -6 35 7 43 32 18 50 11 61 -22z m1632 -20 c0 -29 4 -75 9
-103 4 -27 6 -72 2 -99 l-5 -48 -51 6 c-28 4 -61 7 -74 6 -15 0 -22 5 -19 13
2 6 10 11 18 9 19 -5 59 7 59 17 0 5 -15 12 -32 16 l-33 8 29 6 c42 9 38 25
-7 29 -42 4 -47 26 -6 28 60 2 68 18 17 33 -32 9 -32 9 -6 10 32 1 44 17 29
35 -9 10 -8 15 4 20 23 9 8 26 -22 26 -31 0 -23 11 20 27 61 22 67 19 68 -39z
m-4069 -15 c23 -21 37 -64 27 -89 -4 -12 -25 -35 -46 -53 -31 -26 -35 -33 -23
-41 8 -5 21 -10 28 -10 8 0 12 -17 12 -52 0 -28 5 -80 11 -115 10 -57 9 -66
-6 -83 -21 -24 -75 -29 -56 -6 14 17 -2 31 -24 22 -21 -8 -18 4 7 31 12 13 17
23 12 23 -5 0 -16 5 -24 10 -13 9 -11 13 9 29 24 18 24 19 5 29 -18 9 -19 17
-13 69 6 53 4 60 -17 81 -13 13 -25 31 -25 40 -1 17 -1 91 0 104 1 4 13 14 29
23 30 16 68 12 94 -12z m499 9 c-6 -11 -6 -34 -1 -58 4 -21 10 -82 12 -134 3
-91 2 -95 -19 -98 -32 -5 -88 27 -74 41 6 6 11 18 11 27 0 20 -27 77 -41 86
-6 3 -3 11 8 19 14 11 15 16 4 28 -7 9 -11 33 -9 54 3 33 7 39 33 44 17 4 43
7 58 8 24 1 26 -2 18 -17z m1172 -92 c14 -12 -1 -43 -30 -64 -14 -11 -23 -14
-19 -8 9 14 9 14 -34 2 -31 -8 -33 -8 -16 5 10 7 15 18 12 23 -3 5 4 22 15 36
21 26 48 28 72 6z m2688 -1 c19 -37 31 -151 17 -161 -23 -14 -50 -8 -73 16
-18 20 -20 26 -8 30 18 7 7 27 -14 24 -30 -6 -24 19 7 25 33 7 41 27 11 27
-27 0 -36 19 -14 27 10 3 22 12 26 20 12 20 35 16 48 -8z m-2571 4 c-8 -3 -24
-10 -35 -16 -18 -9 -19 -9 -6 6 7 10 23 17 35 16 14 0 16 -2 6 -6z m186 -4 c3
-6 -12 -30 -34 -52 -23 -23 -54 -72 -70 -108 -17 -37 -35 -70 -41 -73 -18 -11
16 84 49 137 17 28 34 63 37 79 4 21 11 28 29 28 12 0 26 -5 30 -11z m1874
-31 c0 -20 -4 -39 -9 -42 -7 -5 -176 -6 -386 -2 -27 0 -119 -2 -204 -4 l-154
-4 1 37 c0 20 1 42 1 47 1 8 120 10 376 8 l375 -3 0 -37z m-2036 17 c-7 -16
-24 -21 -24 -6 0 8 7 13 27 20 1 1 0 -6 -3 -14z m96 7 c0 -5 -13 -21 -30 -37
-16 -16 -30 -36 -30 -45 0 -9 -7 -25 -15 -36 -14 -18 -15 -17 -9 11 4 17 13
43 21 58 8 16 12 35 9 43 -4 10 3 14 24 14 17 0 30 -4 30 -8z m-780 -17 c0 -8
-4 -15 -10 -15 -5 0 -10 7 -10 15 0 8 5 15 10 15 6 0 10 -7 10 -15z m916 -34
c-3 -4 -19 -11 -36 -15 -17 -3 -33 -14 -36 -23 -12 -41 -35 -85 -41 -80 -11
12 8 75 32 101 16 17 34 26 55 26 17 0 29 -4 26 -9z m-1205 -44 c-13 -12 -20
-15 -16 -7 14 26 28 41 33 35 3 -3 -5 -16 -17 -28z m149 5 c0 -13 -110 -126
-116 -119 -9 8 29 59 71 96 37 32 45 36 45 23z m-104 -30 c-17 -16 -18 -16 -5
5 7 12 15 20 18 17 3 -2 -3 -12 -13 -22z m889 -21 c-9 -22 -24 -42 -31 -45
-18 -7 -18 -2 2 37 35 68 60 75 29 8z m305 23 c0 -8 -9 -14 -19 -14 -11 0 -22
-4 -25 -9 -9 -13 19 -32 37 -25 23 8 28 -24 23 -126 -2 -47 1 -135 6 -195 6
-61 8 -124 4 -140 l-8 -30 -14 40 c-22 63 -32 227 -18 288 5 21 3 27 -10 27
-9 0 -16 8 -16 20 0 11 6 20 14 20 20 0 27 26 12 39 -8 6 -22 8 -31 4 -15 -5
-17 -2 -13 15 7 25 -18 38 -38 21 -11 -9 -14 -7 -14 12 1 35 30 67 65 71 37 4
45 1 45 -18z m-920 -20 c0 -8 -4 -12 -10 -9 -5 3 -10 13 -10 21 0 8 5 12 10 9
6 -3 10 -13 10 -21z m2384 16 l31 0 2 -70 c1 -68 1 -70 -22 -64 -30 7 -42 -12
-21 -35 14 -16 16 -87 14 -707 -1 -379 -5 -786 -9 -904 -4 -118 -10 -537 -13
-930 -3 -393 -7 -814 -11 -935 -8 -338 -15 -642 -15 -727 0 -64 -3 -78 -16
-78 -13 0 -14 11 -7 83 7 71 7 568 0 2157 -1 184 2 412 6 505 13 261 18 1465
6 1487 -5 10 -16 18 -24 18 -13 0 -15 -28 -17 -167 -1 -93 -1 -181 0 -198 4
-88 3 -975 -3 -1120 -3 -93 -8 -692 -11 -1330 -3 -638 -7 -1187 -8 -1220 -1
-33 -3 -96 -4 -139 -1 -44 -5 -77 -8 -73 -3 3 -7 423 -9 934 -2 510 -6 971 -9
1023 -6 94 -19 526 -17 545 1 6 3 89 5 185 3 96 8 281 12 410 3 129 8 422 9
650 3 582 -2 516 43 539 40 21 35 28 -28 34 l-35 3 28 12 c15 6 27 16 27 21 0
5 -12 11 -27 13 -25 3 -28 7 -28 38 0 32 3 36 35 42 19 3 48 4 64 2 16 -2 43
-4 60 -4z m291 0 c4 -6 -12 -10 -39 -10 -25 0 -46 5 -46 10 0 6 18 10 39 10
22 0 43 -4 46 -10z m-1161 -9 c6 -9 -102 -26 -111 -17 -3 2 -2 9 2 15 8 13
102 15 109 2z m426 -27 c74 -4 153 -7 175 -8 55 -2 64 -9 56 -48 l-7 -33 -204
3 c-112 2 -207 5 -211 8 -12 7 -22 71 -14 84 4 7 20 10 39 6 17 -3 92 -9 166
-12z m-1568 -6 c6 -16 -1 -38 -12 -38 -11 0 -21 30 -14 41 8 13 21 11 26 -3z
m2284 -8 c89 -10 298 -21 461 -24 45 0 87 -6 92 -11 7 -7 6 -24 -1 -54 l-11
-43 -76 7 c-42 4 -110 9 -151 11 -41 2 -111 6 -155 9 -44 2 -137 5 -208 6 -70
1 -129 4 -131 8 -2 3 -6 26 -7 51 -3 43 -2 45 26 51 17 3 39 5 50 3 11 -2 61
-8 111 -14z m-3036 -10 c0 -5 -5 -10 -11 -10 -5 0 -7 5 -4 10 3 6 8 10 11 10
2 0 4 -4 4 -10z m2068 -41 l3 -46 -63 -7 c-263 -29 -349 -41 -491 -65 -168
-30 -159 -32 -155 37 l3 57 80 6 c71 6 271 29 495 57 122 16 124 15 128 -39z
m-1888 35 c0 -9 -64 -84 -72 -84 -17 0 -6 26 24 57 30 31 48 41 48 27z m-150
-18 c0 -3 -4 -8 -10 -11 -5 -3 -10 -1 -10 4 0 6 5 11 10 11 6 0 10 -2 10 -4z
m-138 -31 c10 -49 -4 -55 -125 -56 -110 0 -308 -14 -377 -25 -33 -5 -36 -4
-49 31 -7 20 -10 40 -6 43 9 10 262 27 421 29 131 1 132 1 136 -22z m1211 5
c-6 -22 -23 -38 -23 -21 0 17 12 41 20 41 5 0 6 -9 3 -20z m-399 -15 c-7 -16
-24 -21 -24 -6 0 8 7 13 27 20 1 1 0 -6 -3 -14z m430 -32 c-34 -59 -33 -58
-40 -51 -11 11 40 98 58 98 5 0 -3 -21 -18 -47z m76 39 c0 -14 -61 -105 -66
-99 -7 6 22 65 44 90 17 19 22 21 22 9z m-1030 -5 c0 -2 -19 -21 -41 -42 -29
-28 -38 -33 -29 -17 16 32 43 60 58 61 6 1 12 0 12 -2z m634 -31 c-3 -9 -10
-16 -15 -16 -6 0 -5 9 1 21 13 24 24 20 14 -5z m146 6 c0 -22 -26 -59 -35 -50
-6 6 21 68 30 68 3 0 5 -8 5 -18z m48 -34 l-13 -23 -3 23 c-4 28 21 66 26 39
2 -9 -3 -26 -10 -39z m222 -8 c-11 -22 -25 -38 -30 -35 -11 7 -3 31 24 68 28
38 32 18 6 -33z m-1190 36 c0 -2 -7 -9 -15 -16 -13 -11 -14 -10 -9 4 5 14 24
23 24 12z m500 0 c0 -3 -4 -8 -10 -11 -5 -3 -10 -1 -10 4 0 6 5 11 10 11 6 0
10 -2 10 -4z m1661 -6 c24 0 45 -38 30 -53 -6 -6 -11 -28 -11 -49 0 -31 -4
-38 -19 -38 -36 0 -53 11 -40 26 9 11 9 17 0 28 -20 24 -85 -2 -74 -30 3 -8 0
-14 -6 -14 -6 0 -13 12 -17 28 -10 48 -14 54 -31 50 -20 -4 -20 13 -4 -268 6
-102 13 -329 16 -505 3 -176 7 -383 10 -460 3 -77 8 -329 11 -561 l7 -421 -24
1 c-13 1 -27 -7 -34 -19 -5 -11 -19 -33 -30 -49 -14 -21 -20 -50 -22 -109 -2
-67 -6 -84 -25 -105 -24 -25 -77 -56 -84 -50 -2 3 -6 105 -9 229 -2 123 -7
296 -10 384 -3 88 -8 214 -10 280 -6 165 -24 962 -29 1290 -4 236 -6 270 -20
273 -10 2 -16 -4 -16 -16 0 -37 -30 -50 -128 -54 -51 -3 -95 -1 -98 4 -3 4 22
8 55 8 69 0 91 6 91 27 0 12 -12 14 -56 11 -45 -2 -59 1 -67 14 -22 35 26 64
136 83 33 5 38 3 49 -20 14 -30 48 -34 48 -5 0 10 8 23 18 28 23 12 108 22
205 24 71 1 80 3 95 25 12 20 21 24 45 19 16 -3 38 -6 48 -6z m-1538 -26 c-7
-19 -10 -18 -16 5 -3 13 -1 18 9 14 7 -2 10 -11 7 -19z m1917 -71 c-1 -54 -2
-361 -1 -682 2 -555 1 -586 -17 -610 -10 -14 -33 -52 -51 -83 -17 -31 -45 -68
-60 -81 -56 -46 -66 -107 -31 -174 21 -40 25 -111 22 -324 l-2 -106 -52 -5
c-64 -7 -78 -24 -78 -99 0 -51 -12 -81 -26 -66 -8 8 -13 174 -18 667 -3 267
-8 618 -11 780 -10 588 -9 708 8 724 20 21 30 69 22 106 -4 16 -4 34 0 40 4 6
63 10 151 10 l146 0 -2 -97z m-2416 66 c-10 -11 -28 -26 -39 -31 -14 -8 -12
-2 9 21 33 34 61 44 30 10z m2796 -10 c0 -38 18 -57 62 -64 26 -4 50 -16 60
-28 14 -18 19 -19 32 -8 9 7 16 24 16 37 0 12 4 34 10 48 9 24 14 26 67 26 95
0 103 -5 103 -59 0 -25 -3 -57 -7 -70 -6 -22 -9 -23 -62 -16 -145 18 -179 14
-152 -19 13 -16 11 -771 -2 -771 -16 0 -55 92 -66 158 -3 21 -9 38 -13 37 -5
0 -12 0 -18 0 -5 0 -10 -11 -10 -24 0 -13 -7 -29 -15 -36 -27 -22 -106 -182
-96 -194 5 -6 10 -86 10 -178 1 -159 0 -167 -19 -173 -11 -3 -20 -12 -20 -20
0 -18 -32 -28 -42 -13 -5 7 -6 60 -3 118 5 86 16 928 15 1198 l0 72 75 0 c69
0 75 -2 75 -21z m118 -6 c-4 -20 -36 -28 -57 -14 -21 13 -4 31 30 31 24 0 30
-4 27 -17z m-3028 -2 c0 -13 -29 -41 -41 -41 -6 0 -2 11 8 25 19 25 33 32 33
16z m990 -8 c-1 -14 -30 -47 -35 -41 -3 3 1 12 9 21 8 8 12 17 9 21 -4 3 -1 6
5 6 7 0 12 -3 12 -7z m-976 -27 c-6 -16 -24 -23 -24 -8 0 10 22 33 27 28 2 -2
1 -11 -3 -20z m406 14 c0 -5 -5 -10 -11 -10 -5 0 -7 5 -4 10 3 6 8 10 11 10 2
0 4 -4 4 -10z m790 1 c0 -6 -4 -13 -10 -16 -5 -3 -10 1 -10 9 0 9 5 16 10 16
6 0 10 -4 10 -9z m-1812 -18 c-3 -19 -124 -108 -198 -147 -99 -52 -158 -87
-170 -101 -7 -8 -18 -15 -24 -15 -6 0 -37 -18 -69 -40 -31 -22 -59 -40 -61
-40 -9 0 -29 84 -21 87 6 2 38 22 71 46 247 170 306 208 323 202 9 -3 35 1 57
9 57 21 96 20 92 -1z m302 -33 c4 -37 9 -45 25 -45 17 0 20 6 17 36 -3 48 13
61 68 51 37 -6 45 -12 52 -37 11 -35 2 -284 -11 -335 -16 -63 -20 -120 -8
-132 9 -8 11 -60 9 -178 -3 -167 -3 -168 21 -192 18 -16 26 -38 30 -77 4 -34
14 -62 27 -76 11 -12 20 -28 20 -36 0 -8 9 -33 20 -57 18 -41 19 -46 4 -75
-12 -23 -15 -47 -11 -91 3 -33 1 -68 -4 -79 -6 -10 -12 -48 -15 -84 -4 -49 -1
-71 11 -90 16 -24 16 -26 -4 -44 -25 -24 -27 -68 -5 -111 11 -21 14 -45 11
-72 -5 -33 -2 -46 15 -64 17 -17 19 -25 10 -34 -18 -18 -15 -26 14 -44 21 -15
27 -15 34 -4 5 8 4 22 -1 32 -7 13 -6 19 3 22 7 3 33 11 58 20 25 8 58 17 74
18 37 4 45 25 15 36 -14 6 -18 11 -11 16 14 8 225 84 272 98 90 26 263 79 270
83 12 7 200 33 265 37 33 1 66 -1 73 -6 7 -4 29 -5 50 -1 41 7 85 -15 67 -34
-12 -12 -265 -32 -316 -25 -21 3 -40 1 -44 -5 -3 -6 -14 -11 -24 -11 -10 0
-43 -7 -72 -16 -160 -48 -216 -67 -248 -83 -20 -10 -79 -33 -131 -50 -128 -43
-162 -61 -178 -94 -15 -30 -27 -35 -36 -12 -7 20 -32 19 -48 -1 -7 -8 -23 -25
-35 -36 -11 -11 -24 -34 -27 -51 -15 -86 -5 -249 19 -318 8 -23 15 -76 15
-118 0 -101 18 -274 36 -336 15 -56 17 -96 15 -312 -1 -84 0 -157 3 -161 6 -9
17 -85 19 -127 2 -27 -1 -30 -40 -37 -24 -4 -63 -16 -87 -27 -38 -16 -55 -18
-103 -11 -32 5 -73 16 -90 25 l-33 16 -2 212 c-1 117 -3 244 -4 282 -6 252 -6
903 1 918 4 10 2 23 -4 31 -8 10 -13 254 -15 889 -3 757 -2 879 11 897 11 16
12 24 3 35 -10 12 -15 12 -33 1 -29 -18 -113 -30 -121 -17 -4 5 6 11 21 13 48
5 26 23 -33 26 -46 3 -55 6 -52 20 2 12 15 18 46 20 53 4 52 26 -1 30 -84 7
-19 31 78 28 40 -1 40 -1 45 -46z m877 44 c-10 -11 -58 -13 -51 -3 3 5 17 9
31 9 15 0 23 -3 20 -6z m436 -19 c-7 -21 -13 -19 -13 6 0 11 4 18 10 14 5 -3
7 -12 3 -20z m-923 -10 c-7 -8 -17 -15 -23 -15 -5 0 -2 9 8 20 21 23 35 19 15
-5z m586 -27 c-19 -26 -20 -20 -5 19 6 15 13 22 16 16 2 -7 -3 -23 -11 -35z
m104 2 c-16 -31 -23 -19 -9 16 6 16 13 24 16 17 2 -7 -1 -22 -7 -33z m-685
-15 c-15 -15 -30 -23 -34 -20 -3 4 7 18 23 31 37 33 48 22 11 -11z m1060 2
c-7 -28 -32 -54 -41 -44 -4 3 4 22 16 42 25 40 34 41 25 2z m304 15 c11 -20 9
-55 -4 -86 -6 -13 -4 -21 3 -24 23 -7 43 -34 38 -49 -3 -8 -1 -24 6 -36 13
-24 21 -179 38 -732 6 -192 15 -424 20 -515 9 -164 25 -622 23 -670 -1 -30 14
-447 23 -607 l5 -113 -25 -11 c-14 -7 -31 -28 -39 -48 -11 -25 -33 -48 -73
-75 -33 -21 -70 -47 -84 -56 -34 -22 -88 -41 -94 -31 -3 4 -8 43 -11 87 -3 43
-12 142 -20 219 -7 77 -16 176 -20 220 -10 137 -14 186 -25 310 -15 166 -22
603 -10 610 6 3 10 44 10 90 0 47 5 104 12 128 15 58 7 84 -51 161 -45 59 -48
66 -30 71 15 5 19 16 19 55 0 41 12 70 82 202 45 84 90 160 99 168 19 16 43
115 33 132 -4 6 -23 8 -48 4 -40 -7 -41 -7 -17 10 20 14 22 22 17 55 -5 30 -2
43 18 66 23 27 23 32 15 108 -4 44 -8 90 -8 102 -1 12 -9 30 -20 40 -14 14
-20 39 -25 115 l-7 97 33 5 c18 3 47 7 63 9 17 2 33 5 37 6 4 0 12 -7 17 -17z
m-591 -17 c-6 -14 -15 -25 -20 -25 -11 0 -10 7 2 31 16 28 32 23 18 -6z m227
-6 c-9 -17 -19 -28 -22 -25 -8 8 17 56 29 56 5 0 1 -14 -7 -31z m2243 -19 c-3
-28 -1 -53 4 -56 5 -3 6 -15 3 -25 -4 -11 -2 -26 4 -33 8 -9 10 -133 9 -406
l-3 -394 -30 1 c-16 0 -40 1 -53 2 l-24 1 6 198 c3 108 9 298 12 421 3 125 10
233 15 244 6 10 8 34 5 51 -7 38 -2 46 32 46 23 0 24 -2 20 -50z m199 44 c17
-5 23 -16 28 -56 9 -61 1 -71 -57 -69 -114 4 -133 8 -130 27 2 11 6 38 9 62
l5 42 62 0 c33 0 71 -3 83 -6z m-4085 -54 c3 -31 13 -59 25 -73 32 -35 42
-106 48 -357 3 -129 8 -320 10 -425 3 -104 8 -280 10 -390 3 -110 7 -220 9
-245 3 -25 7 -153 10 -285 4 -132 8 -269 11 -305 3 -36 7 -162 10 -280 3 -118
10 -361 15 -539 5 -179 8 -327 6 -329 -3 -2 -13 1 -24 7 -34 18 -49 13 -101
-33 -37 -33 -60 -45 -95 -50 -25 -4 -50 -5 -55 -2 -5 4 -10 63 -10 134 -1 192
-12 711 -16 762 -4 44 -19 733 -20 924 l0 98 35 12 c45 14 64 53 56 111 -5 27
-13 45 -24 49 -9 4 -29 13 -44 22 l-28 15 0 117 c0 64 -3 272 -5 462 -2 190 0
351 4 359 6 8 5 24 -2 38 -14 32 6 144 29 158 9 6 40 29 68 52 28 23 56 42 62
42 7 1 14 -21 16 -49z m1478 30 c0 -5 -4 -10 -10 -10 -5 0 -10 5 -10 10 0 6 5
10 10 10 6 0 10 -4 10 -10z m16 -42 c-9 -12 -16 -19 -16 -15 0 11 24 47 28 42
2 -2 -3 -14 -12 -27z m1130 -83 c1 -55 4 -167 8 -250 3 -82 9 -337 12 -565 3
-228 7 -442 9 -475 10 -199 21 -1199 24 -2304 1 -274 6 -451 12 -462 7 -15 6
-19 -6 -19 -11 0 -15 11 -16 38 0 20 -2 60 -3 87 -9 150 -16 514 -21 1025 -5
528 -18 1019 -30 1130 -5 46 -12 391 -20 1010 -10 672 -15 843 -27 858 -14 17
6 33 37 30 18 -3 20 -11 21 -103z m68 96 c8 -12 14 -210 21 -651 4 -212 8
-477 10 -590 10 -512 14 -2132 5 -2100 -5 19 -11 303 -14 630 -6 536 -9 695
-20 940 -2 41 -7 287 -10 545 -4 259 -11 639 -15 845 -5 206 -6 378 -4 383 6
10 21 9 27 -2z m-1484 -26 c0 -8 -4 -15 -10 -15 -5 0 -10 7 -10 15 0 8 5 15
10 15 6 0 10 -7 10 -15z m2490 -62 c2 -320 -5 -756 -15 -923 -3 -47 -7 -182
-10 -300 -3 -118 -7 -237 -10 -265 -4 -51 -11 -275 -20 -660 -8 -378 -16 -656
-20 -750 -6 -124 -14 -499 -20 -879 -3 -175 -8 -322 -11 -327 -3 -5 -10 -6
-16 -3 -6 4 -8 80 -4 223 3 119 9 455 12 746 11 1053 13 1175 21 1520 10 444
10 561 0 571 -15 16 -28 -21 -23 -67 3 -26 2 -50 -1 -53 -12 -12 -43 28 -43
56 0 22 -6 31 -27 39 -16 6 -38 8 -51 6 -27 -5 -29 -2 -36 73 -7 67 -8 59 2
149 4 46 12 76 20 79 10 3 10 -2 0 -22 -8 -19 -8 -30 0 -38 17 -17 42 -1 42
27 0 27 1 28 24 19 9 -3 16 -15 16 -25 0 -10 13 -25 30 -34 29 -15 30 -17 30
-90 0 -65 10 -98 26 -82 10 10 14 103 19 562 4 264 8 486 10 493 3 6 16 12 30
12 24 0 25 -3 25 -57z m-2633 0 c-3 -10 -5 -2 -5 17 0 19 2 27 5 18 2 -10 2
-26 0 -35z m499 9 c-14 -14 -16 -14 -16 -1 0 20 23 44 29 28 2 -6 -4 -18 -13
-27z m2219 -22 c-1 -140 -17 -836 -20 -840 -1 -3 -6 -111 -9 -240 -4 -129 -11
-311 -16 -405 -5 -93 -14 -345 -20 -560 -18 -691 -20 -766 -31 -1025 -18 -428
-28 -476 -22 -105 3 187 7 358 8 380 2 22 4 209 6 415 1 206 5 481 10 610 4
129 10 343 13 475 6 226 9 297 22 455 2 36 7 247 10 470 3 223 7 411 10 418 2
8 12 12 21 10 15 -3 18 -14 18 -58z m-2255 35 c0 -8 -4 -15 -10 -15 -5 0 -7 7
-4 15 4 8 8 15 10 15 2 0 4 -7 4 -15z m-1302 -12 c5 -10 9 -256 10 -548 2
-291 4 -604 7 -695 2 -91 7 -356 10 -590 3 -234 8 -486 11 -560 3 -86 2 -145
-5 -163 -7 -18 -8 -35 -2 -46 6 -10 12 -258 15 -572 3 -323 2 -543 -3 -527 -8
25 -14 221 -26 903 -3 160 -10 427 -15 595 -5 168 -12 433 -15 590 -3 157 -7
377 -10 490 -4 180 -9 1094 -6 1128 1 18 19 15 29 -5z m1164 -5 c-7 -7 -12 -8
-12 -2 0 14 12 26 19 19 2 -3 -1 -11 -7 -17z m862 14 c2 -4 7 -161 11 -347 4
-187 8 -358 9 -380 2 -22 7 -213 11 -425 4 -212 9 -412 10 -445 2 -33 6 -193
9 -355 4 -162 8 -383 11 -490 7 -271 8 -720 2 -726 -3 -3 -8 93 -11 213 -4
120 -9 259 -11 308 -3 50 -7 194 -10 320 -3 127 -7 277 -10 335 -3 58 -7 182
-10 275 -3 94 -7 202 -10 240 -3 39 -7 201 -10 360 -3 160 -8 333 -10 385 -10
224 -17 718 -11 729 8 13 23 14 30 3z m-2094 -369 c6 -193 10 -447 8 -564 -3
-212 8 -890 17 -1044 3 -44 7 -172 10 -285 6 -209 8 -315 22 -795 4 -148 7
-306 6 -350 -1 -44 -2 -95 -2 -114 -1 -19 -3 -32 -5 -30 -4 4 -7 72 -27 674
-5 171 -12 353 -14 405 -2 52 -6 219 -10 370 -3 151 -10 424 -15 605 -5 182
-12 524 -15 760 -3 237 -8 494 -11 572 -6 135 -2 175 17 156 4 -4 13 -166 19
-360z m470 357 c0 -5 -4 -10 -10 -10 -5 0 -10 5 -10 10 0 6 5 10 10 10 6 0 10
-4 10 -10z m1542 -102 c1 -57 2 -116 3 -133 1 -16 5 -131 8 -255 4 -124 10
-299 12 -390 3 -91 8 -228 10 -305 2 -77 7 -216 10 -310 3 -93 7 -276 10 -405
10 -463 19 -827 30 -1180 1 -52 6 -268 9 -480 4 -212 9 -398 11 -413 3 -18 1
-27 -6 -25 -7 2 -13 43 -15 103 -2 55 -8 215 -14 355 -6 140 -13 311 -15 380
-3 69 -7 170 -10 225 -2 55 -7 170 -10 255 -11 362 -26 744 -40 1010 -8 157
-17 377 -20 490 -3 113 -8 223 -10 245 -2 22 -7 148 -10 280 -10 415 -15 549
-21 592 -7 53 -1 63 37 63 l29 0 2 -102z m1832 -30 c-2 -57 -6 -411 -9 -788
-3 -377 -7 -714 -9 -750 -2 -36 -6 -299 -10 -585 -4 -286 -9 -590 -11 -675 -3
-85 -7 -276 -11 -425 -3 -148 -9 -273 -12 -277 -4 -4 -6 77 -4 180 2 103 5
759 8 1457 4 1114 7 1634 13 1893 1 69 2 72 25 72 l24 0 -4 -102z m69 -293
c-3 -428 -8 -710 -23 -1210 -5 -181 -12 -483 -15 -670 -7 -409 -23 -1049 -29
-1160 -3 -44 -6 -163 -7 -265 -1 -102 -6 -194 -10 -205 -8 -19 -4 523 6 770 3
61 7 369 10 685 5 574 13 1035 20 1205 2 50 7 248 10 440 6 358 14 742 16 760
1 6 -2 18 -6 29 -6 14 -4 17 11 14 18 -3 19 -17 17 -393z m-4319 372 c20 -14
14 -58 -10 -78 -23 -19 -18 -41 8 -33 l21 6 -22 -28 c-24 -30 -101 -79 -101
-64 0 5 9 14 20 20 11 6 20 20 20 30 0 16 -7 20 -30 20 -27 0 -30 3 -30 33 0
37 4 43 48 80 38 30 50 33 76 14z m1179 -12 c10 -14 15 -25 11 -25 -11 0 -44
32 -44 42 0 15 15 8 33 -17z m547 -2 c-1 -5 -12 -21 -26 -38 -25 -29 -25 -29
-19 -5 4 14 12 31 17 38 11 13 28 16 28 5z m-150 -28 c0 -14 -4 -25 -10 -25
-11 0 -14 33 -3 43 11 11 13 8 13 -18z m-290 -60 c0 -8 -4 -15 -10 -15 -5 0
-10 7 -10 15 0 8 5 15 10 15 6 0 10 -7 10 -15z m834 -41 c3 -9 6 -38 6 -65 0
-45 -2 -49 -25 -49 -13 0 -43 -10 -66 -22 -72 -37 -296 -60 -356 -37 -25 10
-125 11 -443 5 -30 0 -98 1 -150 4 -88 5 -95 4 -93 -13 1 -15 -4 -17 -25 -12
-15 4 -27 7 -27 8 0 1 -5 11 -11 22 -9 16 -22 20 -65 21 -30 1 -67 7 -84 14
-16 7 -46 16 -65 19 -33 6 -35 8 -32 41 2 19 7 38 11 43 8 9 61 -11 141 -53
65 -34 176 -55 214 -41 16 7 46 7 82 1 63 -10 290 2 479 26 79 10 333 61 410
83 87 24 91 25 99 5z m-2103 -81 c1 -27 2 -68 3 -93 1 -25 3 -205 5 -400 2
-286 -1 -355 -11 -355 -15 0 -14 -38 -17 480 -3 455 -4 415 9 415 6 0 11 -21
11 -47z m-77 -125 c12 -240 17 -726 7 -732 -5 -4 -12 16 -15 46 -9 85 -14 798
-6 798 5 0 11 -51 14 -112z m864 37 c3 -13 -44 -29 -63 -21 -8 3 -15 12 -15
20 0 16 73 17 78 1z m1282 5 c0 -6 -8 -13 -17 -16 -10 -3 -26 -10 -37 -15 -14
-8 -17 -7 -14 3 4 12 44 38 61 38 4 0 7 -5 7 -10z m-510 -40 c0 -6 -37 -10
-92 -10 -64 0 -88 3 -78 10 20 13 170 13 170 0z m-400 -10 c10 -7 -5 -8 -49
-5 -36 3 -67 8 -70 10 -9 10 104 4 119 -5z m70 0 c0 -5 -10 -10 -22 -10 -19 0
-20 2 -8 10 19 13 30 13 30 0z m37 4 c-3 -3 -12 -4 -19 -1 -8 3 -5 6 6 6 11 1
17 -2 13 -5z m86 -1 c-13 -2 -33 -2 -45 0 -13 2 -3 4 22 4 25 0 35 -2 23 -4z
m152 -34 c9 -14 6 -16 -37 -22 -27 -3 -38 -1 -38 8 0 21 64 33 75 14z m165 -4
c-12 -15 -30 -12 -30 6 0 5 10 9 21 9 18 0 19 -2 9 -15z m197 9 c-3 -3 -12 -4
-19 -1 -8 3 -5 6 6 6 11 1 17 -2 13 -5z m-818 -20 c7 -7 -36 -44 -50 -44 -12
0 -28 42 -22 54 5 8 62 1 72 -10z m326 6 c3 -5 1 -10 -4 -10 -6 0 -11 5 -11
10 0 6 2 10 4 10 3 0 8 -4 11 -10z m-1729 -75 c64 -26 79 -120 28 -176 -32
-35 -141 -17 -158 26 -17 46 4 108 50 144 32 25 35 25 80 6z m2456 -39 c-18
-40 -53 -56 -194 -91 -200 -50 -597 -93 -753 -81 -121 9 -248 25 -290 37 -22
6 -60 12 -85 13 -25 2 -57 9 -72 16 -23 11 -28 20 -28 52 0 21 1 38 3 38 1 0
49 -16 106 -35 56 -19 110 -35 119 -35 9 0 37 -8 62 -17 32 -11 93 -17 210
-20 246 -7 395 17 840 137 25 7 52 16 60 20 23 12 35 -6 22 -34z m-535 0 c-4
-10 -1 -13 8 -10 10 4 12 0 8 -15 -6 -24 -9 -25 -27 -9 -14 14 -10 48 6 48 6
0 8 -7 5 -14z m-1890 -268 c57 -202 76 -329 53 -343 -6 -4 -19 -3 -28 1 -9 4
-28 8 -42 8 -17 1 -24 6 -22 17 1 11 -7 19 -24 23 l-27 7 22 15 c25 18 27 39
5 48 -14 5 -14 9 -3 22 11 13 10 18 -5 26 -17 9 -17 11 0 29 16 18 16 20 -1
39 -17 19 -17 21 -2 38 22 24 21 29 -5 35 -19 5 -20 8 -7 23 7 9 12 29 11 45
-3 23 2 31 20 38 13 5 26 7 29 5 3 -2 15 -36 26 -76z m1258 1 c130 -27 301
-67 365 -86 30 -9 66 -18 80 -19 128 -14 424 -86 436 -106 8 -13 -35 -9 -65 7
-42 21 -134 24 -138 4 -4 -18 70 -44 155 -55 46 -6 60 -14 110 -60 31 -30 65
-54 74 -54 10 0 18 -4 18 -10 0 -24 -22 -110 -29 -110 -6 0 -135 64 -191 95
-14 8 -79 26 -145 40 -66 15 -150 35 -186 46 -36 10 -75 19 -87 19 -13 0 -22
6 -22 15 0 8 2 15 6 15 18 0 152 -34 169 -43 30 -16 95 -26 101 -15 10 16 -17
37 -55 44 -20 4 -40 10 -46 14 -5 4 -50 17 -98 29 -81 20 -103 28 -147 53 -36
20 -65 28 -118 34 -68 7 -207 51 -223 70 -6 8 -18 14 -25 14 -8 0 -14 5 -14
10 0 6 -24 21 -54 34 -52 23 -83 56 -71 75 3 5 29 -2 58 -16 28 -14 93 -34
142 -44z m2890 62 c3 -5 1 -12 -5 -16 -5 -3 -10 1 -10 9 0 18 6 21 15 7z
m-2452 -8 c-13 -2 -33 -2 -45 0 -13 2 -3 4 22 4 25 0 35 -2 23 -4z m264 -30
c-3 -10 -5 -4 -5 12 0 17 2 24 5 18 2 -7 2 -21 0 -30z m-123 5 c-13 -43 -55
-88 -50 -55 2 14 45 77 52 77 3 0 2 -10 -2 -22z m22 -43 c-15 -25 -31 -45 -36
-45 -9 0 3 27 34 73 30 44 31 23 2 -28z m-74 23 c-7 -7 -12 -8 -12 -2 0 14 12
26 19 19 2 -3 -1 -11 -7 -17z m2660 -48 c19 0 19 -18 12 -1142 -3 -629 -9
-1217 -13 -1308 l-6 -165 -75 -1 c-41 -1 -81 3 -88 9 -10 8 -12 30 -8 86 3 42
8 175 11 296 3 121 8 256 10 300 3 44 7 177 10 295 22 922 47 1585 61 1629 3
9 14 12 35 7 18 -3 40 -6 51 -6z m-2540 -32 c-7 -7 -12 -8 -12 -2 0 14 12 26
19 19 2 -3 -1 -11 -7 -17z m-716 -27 c13 -16 42 -34 66 -40 97 -27 115 -31
167 -36 30 -3 75 -16 100 -28 l46 -22 -44 -3 c-23 -2 -57 2 -74 7 -16 6 -42
11 -56 11 -34 0 -196 55 -237 81 -30 18 -44 37 -44 61 0 19 52 -2 76 -31z
m679 29 c-3 -5 -11 -10 -16 -10 -6 0 -7 5 -4 10 3 6 11 10 16 10 6 0 7 -4 4
-10z m-715 -100 c0 -5 22 -16 49 -24 27 -8 62 -21 78 -30 16 -8 54 -18 84 -21
49 -5 138 -19 197 -31 12 -2 22 -8 22 -13 0 -10 -203 -25 -339 -24 -133 1
-148 16 -120 116 9 33 29 52 29 27z m1047 -76 c18 -16 21 -22 8 -15 -32 15
-61 40 -48 41 7 0 25 -12 40 -26z m1853 -74 c0 -10 7 -23 16 -28 8 -5 18 -30
22 -58 6 -38 11 -48 24 -46 16 2 17 -10 13 -125 -10 -296 -15 -527 -20 -1028
-3 -291 -10 -627 -15 -745 -6 -118 -10 -234 -10 -258 l0 -43 -122 2 -123 1 1
986 c0 543 1 1021 2 1062 l2 75 83 18 c45 9 96 18 112 19 52 5 23 23 -32 21
-29 -1 -53 1 -53 5 0 4 19 44 41 89 39 78 59 96 59 53z m-106 -67 c-27 -61
-44 -86 -44 -64 0 21 49 121 59 121 6 0 -1 -26 -15 -57z m-324 -28 c0 -33 -4
-45 -15 -45 -17 0 -19 27 -5 64 14 38 20 32 20 -19z m-1640 -7 c0 -6 -7 -7
-16 -4 -9 3 -18 6 -20 6 -3 0 -3 4 1 10 7 11 35 2 35 -12z m-155 3 c20 -8 20
-8 0 -15 -12 -3 -52 -10 -90 -16 -193 -26 -270 -49 -246 -73 5 -5 29 -3 63 6
29 9 80 19 113 22 33 4 87 14 119 22 75 18 298 14 336 -7 17 -10 20 -15 10
-16 -8 -1 -55 -8 -105 -14 -49 -7 -130 -23 -180 -36 -49 -13 -135 -35 -190
-49 -129 -33 -404 -124 -432 -143 -13 -8 -23 -23 -23 -33 0 -20 -33 -33 -71
-27 -21 3 -24 8 -21 45 1 24 -4 59 -13 79 -8 20 -15 45 -15 54 0 44 78 76 369
151 213 55 325 70 376 50z m-1489 -93 c5 -13 7 -26 6 -30 -2 -8 13 -496 23
-728 2 -69 5 -177 6 -240 0 -63 7 -302 15 -530 15 -463 19 -1174 5 -1166 -4 3
-12 119 -16 258 -5 139 -9 276 -10 303 -8 210 -16 514 -21 815 -4 195 -7 387
-9 425 -1 39 -5 187 -9 330 -3 143 -9 333 -12 423 -3 100 -1 162 5 162 5 0 13
-10 17 -22z m-57 -260 c6 -122 13 -365 16 -538 4 -173 8 -322 10 -330 2 -8 7
-148 10 -310 4 -162 8 -297 10 -300 6 -10 17 -965 11 -959 -11 11 -21 293 -46
1289 -10 397 -16 586 -25 780 -11 233 -15 644 -6 618 5 -14 14 -127 20 -250z
m3339 178 c3 -77 2 -79 -15 -63 -13 11 -23 13 -33 7 -23 -15 -30 -12 -30 11 0
11 -9 32 -20 46 -18 23 -27 73 -16 84 3 3 29 2 58 -1 l53 -5 3 -79z m-3421 9
c2 -38 5 -97 7 -130 3 -33 10 -211 15 -395 6 -184 13 -362 16 -395 3 -33 7
-123 10 -200 2 -77 8 -234 12 -350 4 -115 8 -248 8 -295 l0 -85 -33 -3 c-20
-2 -34 2 -36 10 -4 12 -10 158 -21 518 -3 85 -9 290 -15 455 -22 699 -23 774
-10 790 10 11 10 22 3 38 -7 16 -8 29 -1 41 7 12 7 26 0 41 -12 27 -6 37 23
33 18 -3 20 -11 22 -73z m-95 -12 c3 -34 1 -57 -7 -63 -14 -12 -185 -40 -185
-30 0 4 21 10 48 14 50 6 112 38 112 57 0 12 -8 11 -107 -10 -36 -7 -45 -5
-59 10 -16 18 -15 19 26 19 49 0 126 35 142 64 14 26 24 6 30 -61z m-97 58
c-15 -13 -65 -23 -65 -12 0 5 10 12 23 14 40 8 51 7 42 -2z m2228 -93 c31 -24
46 -388 16 -388 -4 0 -9 53 -9 118 -1 64 -4 151 -8 192 l-7 75 -44 -3 c-30 -3
-41 0 -37 7 10 15 68 14 89 -1z m1367 -70 c18 11 19 2 21 -256 3 -263 2 -1124
-2 -1499 -1 -178 -3 -193 -19 -193 -14 0 -20 11 -25 51 -10 75 -44 78 -128 13
-37 -29 -45 -40 -36 -50 9 -11 5 -14 -25 -14 l-36 0 0 58 c0 31 -3 199 -7 372
-3 173 -6 452 -7 620 -1 267 1 305 14 301 53 -14 55 -11 60 79 3 47 9 91 13
98 5 7 30 12 63 12 79 0 89 15 85 132 -1 51 -4 95 -6 98 -2 3 -6 48 -10 100
-6 87 -6 93 10 80 13 -11 21 -11 35 -2z m-3511 -20 c11 -30 23 -316 22 -543 0
-99 4 -281 10 -405 6 -124 15 -346 20 -495 5 -148 10 -283 10 -300 11 -301 30
-1207 32 -1520 l2 -230 -25 0 c-20 0 -26 7 -32 35 -4 19 -10 233 -13 475 -4
242 -10 518 -15 614 -4 96 -8 255 -9 355 -1 99 -4 182 -5 185 -2 3 -7 123 -10
266 -4 143 -9 294 -11 335 -2 41 -7 154 -10 250 -3 96 -8 216 -10 265 -2 50
-7 180 -10 290 -3 110 -9 227 -12 260 -10 89 -4 158 15 173 24 18 41 15 51
-10z m-119 -47 c0 -21 2 -40 5 -43 3 -3 8 -63 10 -134 3 -71 7 -167 9 -214 13
-226 16 -285 21 -410 7 -191 25 -628 30 -735 11 -223 14 -319 20 -595 3 -162
8 -371 10 -465 16 -584 17 -857 4 -853 -16 5 -22 85 -39 583 -6 182 -13 382
-15 445 -3 63 -7 174 -10 245 -12 310 -16 414 -20 470 -2 33 -7 148 -10 255
-3 107 -10 274 -15 370 -16 290 -20 365 -30 600 -6 124 -13 279 -16 345 -3 66
-7 127 -9 135 -5 18 5 35 25 42 24 8 30 0 30 -41z m1364 -102 c-3 -5 -10 -7
-15 -3 -5 3 -7 10 -3 15 3 5 10 7 15 3 5 -3 7 -10 3 -15z m-146 -55 c-7 -15
-14 -21 -16 -15 -5 16 5 41 17 41 7 0 6 -10 -1 -26z m72 -43 c0 -6 -11 -23
-25 -38 -28 -32 -35 -12 -9 25 16 23 34 29 34 13z m80 -15 c0 -3 -4 -8 -10
-11 -5 -3 -10 -1 -10 4 0 6 5 11 10 11 6 0 10 -2 10 -4z m944 -321 c9 -115 21
-246 26 -290 5 -44 14 -141 20 -215 18 -228 31 -353 45 -405 7 -27 16 -75 19
-105 12 -103 99 -269 157 -301 15 -7 19 -17 15 -32 -3 -11 -1 -26 3 -31 15
-19 1 -74 -20 -79 -26 -7 -33 9 -15 35 14 20 14 24 -1 40 -15 17 -17 17 -30
-2 -8 -11 -18 -20 -24 -20 -14 0 -11 22 8 42 20 22 11 35 -10 13 -23 -22 -33
1 -11 26 21 24 11 38 -11 15 -22 -21 -28 -20 -20 4 5 15 2 20 -10 20 -11 0
-15 5 -11 15 3 8 9 22 12 30 5 11 2 13 -11 9 -14 -6 -16 -2 -13 22 2 23 -1 28
-14 26 -22 -4 -23 7 -2 36 15 22 15 25 -4 45 -22 25 -35 90 -20 105 7 7 5 34
-5 83 -29 143 -39 207 -36 241 2 18 0 39 -5 46 -9 15 -11 38 -31 342 -8 129
-20 280 -25 335 -12 125 -12 195 -1 175 4 -8 16 -109 25 -225z m-934 202 c0
-14 -20 -37 -32 -37 -12 0 -10 24 4 38 16 16 28 15 28 -1z m-108 -69 c-7 -7
-12 -8 -12 -2 0 14 12 26 19 19 2 -3 -1 -11 -7 -17z m105 -15 c-21 -22 -32
-11 -17 17 9 16 15 19 23 11 8 -8 7 -16 -6 -28z m167 -30 c-2 -47 -4 -53 -15
-53 -6 0 -8 7 -5 17 4 9 1 20 -5 24 -15 9 -4 39 14 39 8 0 12 -11 11 -27z
m-264 -8 c-7 -9 -15 -13 -18 -10 -3 2 1 11 8 20 7 9 15 13 18 10 3 -2 -1 -11
-8 -20z m1875 -5 c-5 -8 -11 -8 -17 -2 -6 6 -7 16 -3 22 5 8 11 8 17 2 6 -6 7
-16 3 -22z m-1765 -29 c0 -5 -7 -14 -15 -21 -12 -10 -15 -10 -15 2 0 8 3 18 7
21 9 10 23 9 23 -2z m-100 -26 c-7 -9 -15 -13 -18 -10 -3 2 1 11 8 20 7 9 15
13 18 10 3 -2 -1 -11 -8 -20z m270 6 c-11 -21 -29 -36 -35 -29 -3 2 2 14 11
26 19 28 39 30 24 3z m-170 -30 c0 -5 -7 -14 -15 -21 -16 -14 -18 -10 -9 14 6
17 24 22 24 7z m430 5 c0 -3 -4 -8 -10 -11 -5 -3 -10 -1 -10 4 0 6 5 11 10 11
6 0 10 -2 10 -4z m-220 -25 c0 -11 -40 -41 -54 -41 -5 0 1 11 14 25 24 26 40
32 40 16z m226 -47 c3 -36 -9 -74 -24 -74 -9 0 -8 42 1 57 4 7 3 14 -3 18 -6
4 -5 13 2 25 15 24 20 19 24 -26z m-206 24 c0 -6 -10 -22 -22 -35 -22 -23 -12
-33 10 -11 9 9 12 8 12 -4 0 -9 -5 -20 -11 -24 -8 -5 -7 -9 2 -14 6 -5 13 -23
13 -42 1 -27 -10 -45 -67 -108 -71 -78 -98 -99 -78 -61 7 12 11 27 10 34 -4
29 2 38 19 33 12 -4 29 5 51 28 28 29 30 34 13 29 -12 -3 -20 -9 -17 -12 2 -4
-2 -8 -10 -8 -22 0 -19 7 22 49 20 21 34 40 31 43 -3 3 -17 -7 -32 -21 -14
-15 -29 -24 -33 -20 -4 3 -1 12 5 18 17 17 15 28 -4 28 -22 0 -16 13 31 64 41
46 55 55 55 34z m-320 -13 c0 -8 -4 -15 -10 -15 -5 0 -10 7 -10 15 0 8 5 15
10 15 6 0 10 -7 10 -15z m1853 -2 c3 -5 6 -289 8 -632 l4 -624 -66 2 c-69 2
-119 -13 -119 -37 0 -11 10 -13 53 -7 38 5 49 4 41 -4 -6 -6 -33 -14 -61 -18
l-51 -6 -4 83 c-3 75 -1 83 17 90 12 4 26 14 32 22 22 26 83 213 83 254 0 23
7 61 15 84 8 23 15 51 15 61 0 27 -34 24 -53 -3 l-16 -23 0 22 c-1 13 18 61
41 108 32 64 39 88 31 96 -22 22 -42 0 -88 -93 -42 -85 -46 -97 -39 -138 5
-25 8 -51 9 -58 0 -8 8 -18 17 -23 14 -8 16 -19 12 -56 -3 -26 -11 -58 -18
-72 -7 -14 -21 -52 -30 -83 -10 -32 -22 -58 -27 -58 -5 0 -9 37 -10 83 0 45
-2 118 -3 162 -2 44 -7 200 -11 347 l-8 267 27 10 c18 8 26 18 26 35 0 16 8
30 23 37 12 7 27 18 32 25 6 7 19 14 30 16 17 3 20 12 23 71 3 67 3 67 32 67
16 0 31 -3 33 -7z m-1823 -22 c-5 -11 -15 -23 -20 -26 -14 -9 -12 19 2 33 19
19 30 14 18 -7z m70 -27 c0 -7 -62 -94 -71 -100 -18 -11 -23 5 -7 23 8 10 19
25 23 33 8 13 7 13 -8 1 -28 -23 -30 -6 -2 27 17 21 31 28 45 25 11 -3 20 -7
20 -9z m10 -54 c0 -19 -85 -119 -94 -110 -5 5 10 32 35 64 42 54 59 67 59 46z
m80 -40 c0 -5 -5 -10 -11 -10 -5 0 -7 5 -4 10 3 6 8 10 11 10 2 0 4 -4 4 -10z
m330 -10 c-9 -17 -30 -28 -30 -16 0 16 15 36 26 36 12 0 12 -4 4 -20z m-410
-33 c0 -17 -78 -93 -86 -84 -8 8 63 97 77 97 5 0 9 -6 9 -13z m402 -19 c-6 -6
-15 -8 -19 -4 -4 4 -1 11 7 16 19 12 27 3 12 -12z m-203 -51 c-11 -24 -37 -43
-46 -34 -4 4 50 65 55 62 1 -2 -3 -14 -9 -28z m229 -13 c12 -45 5 -74 -18 -74
-14 0 -20 31 -10 51 8 15 7 21 -4 25 -12 5 -13 11 -5 25 15 29 24 23 37 -27z
m-432 -24 c-2 -27 1 -51 6 -52 6 -2 -2 -19 -18 -37 -24 -29 -25 -32 -7 -23 32
17 35 15 17 -13 -15 -23 -46 -35 -43 -17 1 4 0 9 -1 12 -8 15 -4 58 4 53 5 -4
7 1 2 12 -4 12 1 26 16 43 l23 25 -33 -17 c-45 -23 -50 -15 -15 28 40 51 53
47 49 -14z m129 10 c-10 -11 -20 -18 -23 -15 -3 3 3 14 13 25 10 11 20 18 23
15 3 -3 -3 -14 -13 -25z m181 -17 c2 -18 -4 -34 -18 -47 -23 -21 -23 -22 -2
29 4 8 1 15 -6 15 -10 0 -10 3 0 15 6 8 8 20 4 27 -5 10 -4 10 6 1 7 -7 15
-25 16 -40z m-117 -29 c-12 -13 -30 -24 -38 -23 -11 0 -12 2 -3 6 6 2 12 9 12
15 0 15 44 48 49 37 2 -6 -7 -21 -20 -35z m-39 22 c0 -2 -7 -9 -15 -16 -12
-10 -15 -10 -15 4 0 9 7 16 15 16 8 0 15 -2 15 -4z m-57 -63 c-9 -16 -18 -29
-19 -31 -1 -2 -5 1 -8 7 -4 6 2 19 14 31 28 28 34 25 13 -7z m108 -26 c-16
-16 -26 20 -10 40 13 15 14 14 17 -7 2 -12 -1 -27 -7 -33z m137 -6 c3 -16 0
-21 -9 -16 -8 6 -10 4 -4 -4 8 -13 -33 -64 -45 -56 -6 3 -6 22 -1 55 2 14 37
49 46 47 6 -2 12 -14 13 -26z m-232 -9 c-18 -16 -18 -16 -6 6 6 13 14 21 18
18 3 -4 -2 -14 -12 -24z m25 -55 c-13 -33 -35 -37 -25 -4 8 28 27 52 31 40 2
-6 -1 -22 -6 -36z m79 18 c0 -8 -4 -17 -10 -20 -6 -4 -10 5 -10 20 0 15 4 24
10 20 6 -3 10 -12 10 -20z m-200 1 c-1 -5 3 -12 8 -15 5 -3 12 -16 16 -27 5
-17 -2 -30 -28 -55 -19 -18 -32 -37 -29 -42 3 -6 1 -7 -5 -3 -7 4 -12 1 -12
-8 0 -20 -27 -34 -56 -28 -28 5 -31 24 -7 43 13 11 17 11 20 2 3 -7 11 -13 19
-13 19 0 47 47 40 66 -4 9 -2 22 4 29 8 9 8 15 1 20 -7 4 -7 12 2 25 12 20 30
23 27 6z m452 -49 c-18 -17 -41 -43 -52 -56 -11 -13 -20 -18 -20 -11 0 18 72
98 90 99 9 1 2 -12 -18 -32z m-542 -11 c0 -14 -24 -29 -33 -19 -3 3 -3 11 0
19 7 18 33 18 33 0z m570 -19 c0 -12 -97 -117 -107 -117 -16 0 14 58 49 96 38
41 58 48 58 21z m-431 -86 c-6 -14 -36 -48 -65 -75 -44 -40 -54 -45 -54 -29 0
11 9 28 21 39 12 10 30 33 42 49 18 26 15 25 -21 -9 -43 -41 -66 -43 -39 -4 8
13 37 46 63 73 l47 50 9 -34 c6 -23 6 -42 -3 -60z m247 -6 c-27 -35 -33 -51
-16 -40 15 9 12 -21 -3 -34 -26 -21 -15 62 13 97 33 42 39 21 6 -23z m1025 -7
c0 -35 2 -101 4 -148 2 -47 6 -167 9 -267 l6 -183 -74 0 c-68 0 -76 2 -105 29
-39 37 -39 46 1 46 17 0 33 5 35 12 6 17 -55 46 -82 39 -19 -5 -25 0 -38 37
-24 65 -35 108 -42 159 -6 47 -5 49 29 69 37 22 79 71 90 106 11 35 46 73 81
87 19 8 41 28 50 45 24 47 35 37 36 -31z m-851 42 c0 -5 -5 -10 -11 -10 -5 0
-7 5 -4 10 3 6 8 10 11 10 2 0 4 -4 4 -10z m-400 -61 c0 -16 -124 -142 -128
-130 -5 15 8 35 62 91 47 49 66 60 66 39z m385 -8 c-3 -6 -11 -11 -17 -11 -6
0 -6 6 2 15 14 17 26 13 15 -4z m-11 -72 c-27 -28 -24 -35 14 -30 21 3 13 -28
-13 -45 -14 -9 -23 -20 -20 -24 3 -4 -2 -11 -11 -14 -13 -5 -15 -2 -11 15 5
19 4 20 -12 5 -25 -23 -31 -20 -27 13 3 31 46 93 80 117 33 22 33 -3 0 -37z
m-134 24 c-1 -12 -40 -56 -45 -51 -3 2 5 16 17 31 23 28 28 32 28 20z m-231
-50 c0 -4 -30 -39 -66 -77 -55 -58 -65 -65 -61 -43 3 15 1 24 -3 21 -21 -13
-6 15 23 42 17 16 27 23 23 15 -5 -9 -4 -12 3 -7 7 4 12 14 12 22 0 8 6 14 14
14 7 0 19 7 26 15 9 11 9 15 1 15 -7 0 -9 5 -6 10 7 11 37 -13 34 -27z m231
-2 c0 -17 -49 -67 -50 -52 0 8 10 25 22 38 24 25 28 27 28 14z m-200 -36 c0
-8 -3 -15 -7 -15 -12 -1 -76 -61 -71 -66 3 -2 18 7 34 21 16 14 33 25 37 25
13 0 -9 -32 -68 -99 -31 -35 -54 -65 -51 -68 7 -8 46 21 52 39 6 20 20 24 26
7 2 -7 9 -5 17 5 12 14 12 16 -3 10 -9 -3 -16 -1 -16 5 0 12 36 15 43 4 3 -5
8 -21 11 -38 6 -27 0 -38 -57 -99 l-63 -68 -12 27 c-7 14 -8 24 -3 20 13 -7
65 61 56 74 -3 6 0 8 8 5 8 -3 19 2 26 9 9 12 8 16 -4 21 -21 8 -42 -13 -47
-45 -2 -16 -9 -23 -20 -21 -13 2 -16 -2 -12 -15 4 -15 4 -15 -4 -3 -5 8 -13
34 -17 57 -5 35 -3 46 14 64 11 12 18 26 15 31 -3 5 -14 -2 -25 -14 -18 -21
-18 -20 1 14 22 39 112 128 130 128 5 0 10 -7 10 -15z m970 7 c0 -8 -43 -32
-55 -32 -14 0 -2 29 13 33 29 8 42 7 42 -1z m-787 -102 c-16 -28 -33 -39 -33
-23 0 7 41 53 47 53 2 0 -4 -13 -14 -30z m110 13 c-7 -2 -13 -10 -13 -18 0 -7
-7 -18 -15 -25 -10 -9 -15 -9 -15 -1 0 6 5 11 12 11 6 0 8 3 5 7 -9 8 12 33
27 32 7 0 6 -2 -1 -6z m67 -8 c0 -2 -11 -16 -25 -30 -25 -24 -35 -30 -35 -20
0 4 53 55 57 55 2 0 3 -2 3 -5z m-16 -90 c-7 -18 -10 -36 -6 -39 3 -4 -2 -4
-12 0 -13 5 -24 -1 -41 -22 -18 -22 -26 -26 -35 -18 -9 9 2 27 42 72 54 61 76
64 52 7z m-64 5 c-6 -11 -15 -20 -20 -20 -16 0 -11 18 8 29 24 14 24 14 12 -9z
m-86 -22 c-7 -24 -54 -78 -54 -63 0 10 50 85 57 85 2 0 1 -10 -3 -22z m1186
-19 c0 -11 -4 -17 -10 -14 -5 3 -10 13 -10 21 0 8 5 14 10 14 6 0 10 -9 10
-21z m-2182 -1 c7 -7 12 -39 12 -75 l0 -63 -30 0 c-27 0 -30 2 -20 19 7 15 7
22 -2 28 -21 13 -181 3 -199 -13 -21 -19 -29 -18 -29 6 0 15 7 20 25 20 13 0
39 9 57 20 18 11 43 20 55 20 12 0 35 11 50 25 31 27 62 32 81 13z m612 -39
c0 -5 -4 -9 -10 -9 -5 0 -10 7 -10 16 0 8 5 12 10 9 6 -3 10 -10 10 -16z m-80
-18 c13 -25 13 -101 0 -101 -6 0 -37 9 -68 19 -49 17 -187 34 -269 33 -16 0
-23 6 -23 20 0 15 4 18 18 13 9 -4 49 -10 87 -12 57 -4 80 -1 115 15 82 36
125 40 140 13z m223 -33 c4 -10 7 -10 18 0 14 13 39 16 39 4 0 -4 -20 -27 -45
-52 -24 -25 -44 -51 -45 -57 0 -16 -20 -18 -20 -3 0 6 7 25 15 43 12 24 12 28
2 15 -17 -21 -27 -23 -27 -4 0 16 38 66 50 66 5 0 10 -6 13 -12z m267 0 c-1
-7 -19 -33 -40 -58 -34 -39 -40 -42 -40 -23 0 12 14 38 31 58 32 36 49 44 49
23z m127 0 c-16 -44 -18 -60 -8 -54 21 13 11 -12 -21 -52 -38 -47 -53 -53 -44
-18 3 14 2 28 -4 31 -17 10 -12 23 26 65 35 39 61 53 51 28z m1033 -180 c0
-105 -2 -189 -5 -186 -3 2 -8 89 -11 191 -5 135 -3 187 5 187 8 0 11 -57 11
-192z m-2610 136 c0 -9 -11 -14 -35 -14 -43 0 -49 27 -7 32 33 5 42 1 42 -18z
m168 -24 c-15 -24 -19 -21 -11 8 3 12 9 19 14 16 5 -3 3 -14 -3 -24z m197 20
c3 -5 -1 -10 -10 -10 -9 0 -13 5 -10 10 3 6 8 10 10 10 2 0 7 -4 10 -10z m875
-2 c0 -20 -90 -129 -101 -122 -15 9 -11 16 36 77 44 55 65 70 65 45z m-170
-23 c0 -8 -4 -15 -10 -15 -5 0 -10 7 -10 15 0 8 5 15 10 15 6 0 10 -7 10 -15z
m-257 -2 c-7 -2 -19 -2 -25 0 -7 3 -2 5 12 5 14 0 19 -2 13 -5z m2207 -3 c0
-5 -4 -10 -10 -10 -5 0 -10 5 -10 10 0 6 5 10 10 10 6 0 10 -4 10 -10z m-2577
-144 c4 -71 6 -135 3 -141 -2 -7 -35 -15 -74 -18 -86 -8 -104 -15 -100 -36 3
-11 12 -15 33 -13 17 2 26 0 22 -5 -11 -10 -147 -31 -152 -23 -3 5 -8 98 -6
132 1 13 10 17 44 17 23 0 78 3 122 8 61 6 80 12 80 23 0 22 -74 25 -138 6
-71 -21 -110 -11 -112 29 -5 65 1 71 68 75 34 2 76 2 92 2 38 -2 85 16 85 34
0 20 -39 26 -145 22 -65 -2 -95 1 -95 8 0 7 30 12 82 13 45 1 84 3 85 5 1 1
24 0 50 -4 l48 -5 8 -129z m-754 95 c-3 -6 -10 -7 -18 -2 -7 5 -10 14 -6 21 9
14 29 -2 24 -19z m308 13 c2 -6 -11 -11 -32 -12 -25 -1 -35 3 -35 14 0 11 9
14 32 12 17 -2 33 -8 35 -14z m643 6 c-8 -5 -19 -10 -25 -10 -5 0 -3 5 5 10 8
5 20 10 25 10 6 0 3 -5 -5 -10z m348 -14 c4 -19 -4 -20 -64 -5 -64 16 -63 27
4 24 44 -1 58 -6 60 -19z m92 -7 c0 -5 -7 -9 -15 -9 -15 0 -20 12 -9 23 8 8
24 -1 24 -14z m150 6 c-7 -8 -17 -15 -22 -15 -6 0 -5 7 2 15 7 8 17 15 22 15
6 0 5 -7 -2 -15z m194 -52 c-21 -27 -44 -41 -44 -26 0 13 51 65 58 58 3 -3 -3
-17 -14 -32z m-808 1 c5 -34 15 -44 42 -44 16 0 35 7 42 15 10 12 34 14 124
11 73 -3 110 -8 109 -15 -2 -6 4 -11 12 -11 8 0 15 5 15 11 0 6 9 8 23 3 27
-8 23 -2 31 -46 l7 -38 -66 0 c-65 0 -65 0 -59 26 l6 25 -63 -3 c-49 -2 -64
-7 -64 -18 0 -11 13 -16 43 -18 35 -3 42 -7 40 -20 -3 -9 -11 -15 -19 -13 -31
9 -54 0 -98 -37 -42 -35 -50 -38 -93 -34 l-48 4 0 116 c0 63 3 112 7 108 4 -3
8 -14 9 -22z m251 20 c-3 -3 -12 -4 -19 -1 -8 3 -5 6 6 6 11 1 17 -2 13 -5z
m223 -20 c0 -8 -4 -14 -10 -14 -5 0 -10 9 -10 21 0 11 5 17 10 14 6 -3 10 -13
10 -21z m142 -1 c-11 -16 -32 -39 -47 -53 l-27 -25 7 25 c4 14 14 29 21 33 8
4 14 13 14 18 0 6 -4 7 -10 4 -5 -3 -10 -1 -10 5 0 7 8 9 20 5 11 -4 20 -2 20
4 0 6 7 11 16 11 13 0 12 -4 -4 -27z m-1537 -43 c-2 -4 -25 -4 -50 0 -25 4
-58 5 -72 2 -19 -4 -24 -1 -21 9 3 8 18 14 34 15 48 1 94 15 95 27 0 7 5 -1 9
-17 5 -16 7 -32 5 -36z m2066 6 c-5 -12 -6 -27 -4 -34 3 -7 -1 -20 -9 -29 -9
-12 -9 -15 0 -9 8 5 12 0 12 -16 0 -13 -6 -30 -12 -37 -11 -11 -10 -13 5 -8
20 7 22 -6 6 -52 -7 -20 -20 -33 -35 -37 -14 -4 -32 -20 -41 -37 -19 -38 -40
-60 -53 -55 -16 5 19 64 67 113 25 25 43 48 41 51 -3 3 -12 -1 -20 -8 -7 -7
-24 -19 -36 -26 -28 -16 -29 0 -2 38 16 22 17 30 7 43 -11 15 -14 14 -36 -3
-13 -11 -19 -20 -14 -20 5 0 14 5 21 12 9 9 12 7 12 -11 0 -19 -4 -22 -22 -17
-13 3 -26 6 -30 6 -16 0 -7 22 17 46 24 24 24 25 4 19 -18 -6 -20 -4 -14 17
12 38 31 54 49 39 20 -17 50 -6 42 14 -3 9 0 15 10 15 8 0 17 7 21 16 4 12 8
13 14 3 4 -7 4 -22 0 -33z m687 32 c5 -7 11 -49 13 -93 l4 -80 -55 -5 c-30 -3
-55 -9 -55 -15 0 -5 22 -15 49 -22 65 -16 69 -23 13 -23 -26 0 -47 -5 -47 -10
0 -13 43 -30 76 -30 24 0 24 -2 24 -83 l0 -84 -32 -16 c-18 -9 -41 -18 -51
-21 -12 -4 -17 -13 -15 -27 3 -18 -3 -21 -54 -24 -53 -3 -57 -2 -63 22 -7 30
7 43 48 43 15 0 29 6 31 13 2 6 11 35 20 63 16 48 16 54 0 93 -9 23 -25 48
-36 55 -16 11 -19 21 -13 44 8 37 25 45 80 37 29 -5 45 -3 53 7 17 21 1 36
-43 40 -36 3 -40 6 -43 32 -2 16 -1 44 3 63 5 31 9 33 44 33 21 0 43 -6 49
-12z m-2440 -148 l4 -150 -36 0 c-35 0 -36 1 -37 38 0 20 -3 61 -5 90 -4 48
-3 54 16 59 24 6 26 21 5 29 -36 14 -2 76 45 83 3 1 7 -67 8 -149z m1561 88
l1 -62 -65 -62 c-36 -35 -65 -67 -65 -72 0 -6 -7 -12 -15 -16 -47 -18 23 106
102 180 18 17 33 35 33 40 0 4 -13 -5 -29 -20 -42 -41 -46 -16 -5 33 20 22 37
41 39 41 1 0 3 -28 4 -62z m1618 56 c-3 -3 -12 -4 -19 -1 -8 3 -5 6 6 6 11 1
17 -2 13 -5z m-310 -240 c-5 -5 -196 -8 -201 -3 -2 2 -6 38 -7 79 l-4 75 65
12 c111 20 121 24 133 52 10 22 12 8 15 -93 1 -65 1 -120 -1 -122z m-1434 213
c3 -8 -5 -27 -18 -43 -20 -25 -24 -26 -30 -12 -6 16 20 68 35 68 4 0 10 -6 13
-13z m1824 -7 c14 -11 36 -20 49 -20 23 0 24 -2 24 -88 l0 -89 -92 -12 c-51
-7 -107 -15 -125 -18 -26 -4 -32 -1 -38 17 -8 24 -8 157 0 169 2 5 29 12 59
15 34 5 60 14 72 27 21 23 20 23 51 -1z m-2027 6 c0 -2 -8 -10 -17 -17 -16
-13 -17 -12 -4 4 13 16 21 21 21 13z m3110 -6 c0 -5 -4 -10 -10 -10 -5 0 -10
5 -10 10 0 6 5 10 10 10 6 0 10 -4 10 -10z m-3250 -15 c0 -8 -4 -15 -10 -15
-5 0 -10 7 -10 15 0 8 5 15 10 15 6 0 10 -7 10 -15z m2679 -1 c31 -6 31 -7 31
-69 0 -34 -2 -64 -5 -67 -4 -3 -24 -2 -46 3 -62 14 -148 19 -172 9 -22 -8 -22
-8 3 -18 14 -5 32 -12 40 -15 8 -3 -3 -5 -25 -4 l-40 2 -3 77 -3 77 83 4 c46
1 88 4 94 5 6 1 26 -1 43 -4z m-1949 -24 c0 -5 -5 -10 -11 -10 -5 0 -7 5 -4
10 3 6 8 10 11 10 2 0 4 -4 4 -10z m415 -10 c-3 -5 -11 -10 -16 -10 -6 0 -7 5
-4 10 3 6 11 10 16 10 6 0 7 -4 4 -10z m1704 -27 c-1 -38 -1 -38 -9 -9 -8 27
-6 46 6 46 2 0 4 -17 3 -37z m216 -78 l0 -90 -73 2 c-41 1 -79 7 -86 12 -12
10 -13 42 -8 139 l2 33 83 -3 82 -3 0 -90z m-2325 66 c0 -6 -4 -13 -10 -16 -5
-3 -10 1 -10 9 0 9 5 16 10 16 6 0 10 -4 10 -9z m-1330 -78 c0 -84 -8 -78 -15
11 -4 44 -2 65 5 61 5 -3 10 -36 10 -72z m950 67 c0 -14 -40 -53 -48 -46 -9 9
20 56 35 56 7 0 13 -4 13 -10z m-423 -14 c-4 -12 -112 -19 -137 -9 -22 8 21
18 87 19 34 0 52 -3 50 -10z m496 -74 c-16 -20 -30 -47 -31 -60 0 -12 -8 -29
-16 -38 -9 -8 -20 -23 -25 -32 -5 -9 -13 -14 -16 -10 -4 4 7 24 24 44 17 21
28 40 24 43 -3 3 -8 0 -10 -6 -3 -7 -11 -13 -18 -13 -8 0 -17 -9 -20 -20 -7
-23 -25 -27 -25 -5 0 8 20 36 44 61 24 24 55 60 68 79 20 30 23 32 26 15 2
-11 -10 -37 -25 -58z m327 32 c0 -16 -16 -19 -25 -4 -8 13 4 32 16 25 5 -4 9
-13 9 -21z m2087 -31 c-3 -10 -5 -2 -5 17 0 19 2 27 5 18 2 -10 2 -26 0 -35z
m283 22 c0 -8 -4 -15 -10 -15 -5 0 -10 7 -10 15 0 8 5 15 10 15 6 0 10 -7 10
-15z m-2356 -50 c-7 -18 -8 -18 -14 1 -9 23 -1 39 11 27 6 -6 6 -18 3 -28z
m746 14 c0 -5 -4 -9 -10 -9 -5 0 -10 7 -10 16 0 8 5 12 10 9 6 -3 10 -10 10
-16z m-1480 -4 c0 -8 -2 -15 -4 -15 -2 0 -6 7 -10 15 -3 8 -1 15 4 15 6 0 10
-7 10 -15z m510 2 c0 -8 -9 -22 -20 -32 -22 -20 -27 -7 -10 26 12 22 30 25 30
6z m140 -16 c0 -29 -42 -81 -65 -81 -7 0 -18 -13 -25 -29 -13 -33 -47 -67 -56
-58 -10 10 38 95 57 100 10 3 28 26 41 51 25 52 48 61 48 17z m382 14 c0 -5
-5 -11 -11 -13 -6 -2 -11 4 -11 13 0 9 5 15 11 13 6 -2 11 -8 11 -13z m1625
-32 c-3 -10 -5 -4 -5 12 0 17 2 24 5 18 2 -7 2 -21 0 -30z m-1583 -4 c-22 -24
-38 -14 -17 11 9 10 21 17 25 13 5 -3 2 -13 -8 -24z m1524 6 c12 -3 22 -10 22
-16 0 -7 -20 -9 -61 -4 -50 6 -61 5 -57 -6 3 -9 29 -16 72 -21 93 -9 92 -8 88
-63 l-4 -47 -67 6 c-36 4 -88 3 -116 -2 -41 -6 -50 -11 -50 -27 0 -18 7 -20
95 -21 122 -1 151 -8 135 -34 -5 -8 -11 -5 -21 7 -9 12 -13 13 -14 5 0 -8 -5
-10 -12 -5 -7 4 -25 6 -40 4 -18 -1 -28 2 -28 11 0 10 -3 9 -10 -2 -5 -8 -10
-10 -10 -5 0 6 -17 9 -41 7 -30 -3 -43 -9 -46 -23 -11 -41 -21 -15 -24 59 -4
134 -1 176 15 188 14 10 104 4 174 -11z m-1461 -7 c19 -17 23 -32 23 -76 0
-55 0 -55 -20 -37 -12 11 -18 25 -15 34 4 10 -1 9 -16 -5 l-22 -19 7 39 c6 33
5 38 -8 33 -15 -6 -15 -4 -1 23 19 36 22 36 52 8z m-1831 1 c9 -15 8 -235 -1
-249 -4 -7 -20 -10 -39 -6 -17 3 -75 6 -128 7 -98 2 -98 2 -99 28 -1 14 -1 30
1 36 1 5 2 21 2 35 1 24 5 27 42 29 88 4 191 27 191 42 0 9 -10 14 -30 13 -55
-2 -169 -14 -187 -20 -13 -4 -18 0 -18 15 0 15 7 21 23 22 49 1 89 10 154 33
81 29 80 29 89 15z m114 -34 c0 -25 -3 -45 -8 -45 -4 0 -6 20 -4 45 2 25 6 45
8 45 2 0 4 -20 4 -45z m1326 17 c-17 -16 -18 -16 -5 5 7 12 15 20 18 17 3 -2
-3 -12 -13 -22z m734 12 c0 -8 -5 -12 -10 -9 -6 4 -8 11 -5 16 9 14 15 11 15
-7z m-2113 -146 c-2 -29 -3 -6 -3 52 0 58 1 81 3 53 2 -29 2 -77 0 -105z
m2836 101 c7 -58 -1 -109 -17 -110 -6 0 -49 -3 -95 -5 -84 -5 -111 -14 -111
-39 0 -7 -6 -15 -14 -18 -11 -4 -15 14 -21 85 -3 49 -4 93 0 96 8 9 170 40
216 41 l36 1 6 -51z m1052 41 c-28 -12 -63 -12 -70 0 -4 6 12 10 42 9 36 0 43
-3 28 -9z m-2566 -17 c-8 -9 -21 -25 -29 -34 -8 -9 -23 -29 -33 -43 -10 -15
-22 -24 -28 -21 -12 8 28 85 45 85 8 0 16 7 20 15 3 8 13 15 22 15 14 0 15 -2
3 -17z m986 7 c-26 -11 -135 -12 -135 -1 0 5 35 9 78 9 52 1 70 -2 57 -8z
m1346 -29 c3 -3 2 -55 -1 -116 -4 -60 -7 -105 -8 -98 -3 15 -54 1 -60 -16 -3
-10 0 -11 17 -2 18 10 21 9 21 -10 0 -16 -3 -19 -12 -11 -17 13 -30 13 -46 -1
-13 -10 -19 -6 -37 28 -3 6 -7 5 -11 -2 -13 -28 -34 -13 -34 23 0 31 3 35 18
29 32 -15 131 -11 137 4 6 14 -10 31 -29 31 -6 0 -5 5 2 12 22 22 13 27 -55
30 l-68 3 -3 57 -3 57 83 -6 c46 -3 86 -8 89 -12z m-1281 -80 c0 -44 3 -86 6
-94 3 -9 -4 -25 -16 -37 l-22 -22 -27 26 c-15 14 -32 26 -39 26 -6 0 -18 16
-26 35 -11 26 -23 37 -46 41 -21 5 -32 14 -36 30 -11 42 1 54 53 55 26 0 66 4
88 8 22 5 46 9 53 10 9 1 12 -21 12 -78z m1064 5 c-2 -28 -7 -99 -10 -158 -3
-60 -9 -108 -13 -108 -7 0 -5 145 5 269 4 44 9 69 14 61 5 -7 6 -36 4 -64z
m-3929 39 c0 -15 -7 -20 -29 -20 -31 -1 -47 22 -25 36 23 15 54 6 54 -16z
m1805 -9 c0 -22 -49 -76 -50 -55 0 15 36 69 46 69 2 0 4 -6 4 -14z m-347 -20
c-10 -13 -20 -20 -21 -15 -5 12 17 39 30 39 5 0 1 -11 -9 -24z m56 -13 c-32
-52 -46 -66 -54 -53 -6 10 2 24 40 76 5 8 16 14 23 14 10 0 7 -11 -9 -37z
m335 -18 c4 -10 -1 -15 -15 -15 -17 0 -18 2 -7 15 16 18 15 18 22 0z m-167
-31 c-8 -15 -17 -22 -20 -17 -7 10 22 58 30 50 2 -3 -2 -18 -10 -33z m-1681
-25 c-4 -47 -3 -45 -39 -54 -29 -8 -29 -7 -26 36 2 36 7 46 28 56 35 15 41 9
37 -38z m1798 14 c-9 -35 -13 -43 -25 -43 -15 0 -10 37 7 44 8 3 12 10 9 16
-3 5 -1 10 5 10 6 0 8 -10 4 -27z m72 -20 c-10 -10 -19 5 -10 18 6 11 8 11 12
0 2 -7 1 -15 -2 -18z m-366 13 c0 -3 -4 -8 -10 -11 -5 -3 -10 -1 -10 4 0 6 5
11 10 11 6 0 10 -2 10 -4z m220 1 c0 -9 -32 -67 -40 -72 -19 -11 -18 12 2 43
16 26 38 43 38 29z m2280 -1 c0 -2 -7 -6 -15 -10 -8 -3 -15 -1 -15 4 0 6 7 10
15 10 8 0 15 -2 15 -4z m-2790 -61 c-7 -8 -16 -15 -21 -15 -15 0 -10 22 9 43
15 17 17 17 20 3 2 -9 -2 -23 -8 -31z m796 8 c-10 -10 -19 5 -10 18 6 11 8 11
12 0 2 -7 1 -15 -2 -18z m2246 -25 c-3 -61 -12 -60 -12 2 0 29 3 50 7 47 3 -4
6 -26 5 -49z m-2646 15 c-6 -32 -26 -55 -26 -30 0 15 20 57 28 57 1 0 0 -12
-2 -27z m-346 14 c0 -10 -41 -49 -46 -45 -3 3 5 15 17 27 22 20 29 25 29 18z
m536 -55 c-15 -15 -16 -15 -16 4 0 28 24 52 28 28 2 -9 -3 -24 -12 -32z m105
25 c-10 -9 -11 -8 -5 6 3 10 9 15 12 12 3 -3 0 -11 -7 -18z m179 3 c-6 -11
-15 -20 -19 -20 -5 0 -7 9 -4 20 3 11 12 20 20 20 11 0 11 -4 3 -20z m1210 5
c0 -8 -9 -15 -20 -15 -10 0 -23 -7 -28 -16 -9 -16 -11 -16 -33 0 -22 15 -22
16 -3 16 11 0 29 7 40 15 25 19 44 19 44 0z m-575 -5 c4 -6 -8 -10 -30 -10
-22 0 -34 4 -30 10 3 6 17 10 30 10 13 0 27 -4 30 -10z m984 0 c11 0 11 -3 1
-15 -7 -8 -10 -15 -7 -15 3 0 13 -3 21 -6 12 -5 15 -2 10 10 -4 12 0 16 15 16
24 0 48 -47 33 -62 -11 -11 -44 1 -36 13 3 5 0 9 -5 9 -6 0 -11 -4 -11 -8 0
-11 -99 -12 -105 -1 -3 4 3 13 14 18 14 8 20 8 23 -1 3 -7 7 -5 11 6 4 9 3 15
-2 12 -5 -3 -11 4 -14 15 -5 18 -2 20 16 15 12 -3 28 -6 36 -6z m635 -64 c-5
-13 -8 -13 -20 -1 -8 7 -14 24 -14 36 l0 23 20 -22 c11 -11 17 -28 14 -36z
m67 38 c-19 -8 -42 -12 -50 -8 -13 5 -11 8 9 14 14 5 36 8 50 9 22 0 21 -2 -9
-15z m-2461 -23 c0 -29 -36 -68 -50 -55 -8 8 -5 18 10 36 11 15 20 31 20 38 0
6 5 8 10 5 6 -3 10 -14 10 -24z m-630 -2 c0 -19 1 -19 16 -5 34 35 34 -1 -1
-42 -13 -16 -21 -33 -17 -37 4 -5 1 -5 -6 -1 -9 6 -11 17 -7 34 6 25 6 26 -13
9 -10 -9 -22 -17 -25 -17 -13 0 -7 31 11 55 21 30 42 32 42 4z m545 -10 c-6
-16 -9 -18 -16 -8 -4 8 -3 19 3 26 15 18 21 9 13 -18z m1729 25 c23 -9 9 -24
-21 -24 -14 0 -57 -9 -96 -21 -72 -21 -87 -20 -187 18 -28 10 22 21 80 16 30
-2 82 0 115 5 79 13 90 13 109 6z m836 -19 c0 -8 -4 -17 -10 -20 -6 -4 -10 5
-10 20 0 15 4 24 10 20 6 -3 10 -12 10 -20z m-3188 -17 c-12 -12 -24 -19 -27
-16 -4 3 4 15 16 27 29 27 39 17 11 -11z m398 22 c0 -5 -4 -10 -10 -10 -5 0
-10 5 -10 10 0 6 5 10 10 10 6 0 10 -4 10 -10z m2505 -20 c-4 -12 -9 -19 -12
-17 -3 3 -2 15 2 27 4 12 9 19 12 17 3 -3 2 -15 -2 -27z m250 11 c-8 -13 -35
-15 -35 -2 0 5 8 11 18 13 21 5 26 2 17 -11z m-3254 -18 c-8 -15 -10 -15 -11
-2 0 17 10 32 18 25 2 -3 -1 -13 -7 -23z m49 8 c0 -6 -4 -13 -10 -16 -5 -3
-10 1 -10 9 0 9 5 16 10 16 6 0 10 -4 10 -9z m570 -10 c0 -17 -36 -54 -49 -50
-9 3 -6 12 9 32 21 27 40 35 40 18z m258 -9 c2 -7 -3 -12 -12 -12 -9 0 -16 7
-16 16 0 17 22 14 28 -4z m-188 -12 c0 -5 -7 -10 -16 -10 -8 0 -12 5 -9 10 3
6 10 10 16 10 5 0 9 -4 9 -10z m-160 -10 c0 -12 -28 -70 -34 -70 -3 0 -12 -3
-20 -6 -13 -5 -15 -2 -9 12 17 48 63 94 63 64z m-210 -10 c0 -5 -2 -10 -4 -10
-3 0 -8 5 -11 10 -3 6 -1 10 4 10 6 0 11 -4 11 -10z m140 -2 c0 -16 -41 -58
-57 -58 -18 0 -17 6 9 40 22 30 48 40 48 18z m-174 -30 c-1 -13 -9 -24 -18
-26 -21 -4 -24 18 -6 36 18 18 25 15 24 -10z m87 16 c11 -12 -13 -44 -33 -44
-23 0 -24 4 -8 30 13 20 29 25 41 14z m-278 -21 c17 -4 49 -21 73 -37 l43 -29
-28 -27 c-15 -14 -44 -46 -64 -71 -36 -44 -52 -54 -160 -103 -64 -30 -91 -32
-109 -11 -10 13 -10 19 4 33 9 10 16 24 16 30 0 6 17 49 39 95 33 73 42 85 68
90 20 4 32 14 36 28 6 22 6 22 82 2z m-1521 -252 c9 -15 -18 -31 -34 -20 -13
8 -13 10 0 19 19 12 27 12 34 1z m6 -86 c0 -8 -4 -16 -8 -19 -13 -8 -52 5 -52
17 0 6 3 8 6 4 4 -3 13 1 21 9 16 16 33 10 33 -11z m-4 -93 c-4 -3 -12 0 -18
6 -9 9 -9 12 0 12 7 0 11 3 11 8 -1 4 0 14 1 22 2 8 5 2 7 -13 3 -16 2 -31 -1
-35z m-20 -31 c-3 -5 1 -11 9 -15 8 -3 15 -13 15 -22 0 -13 -3 -14 -14 -5 -7
6 -22 9 -32 5 -16 -5 -17 -4 -4 6 13 9 12 11 -5 8 -12 -2 -19 -10 -17 -21 2
-9 -2 -17 -7 -17 -6 0 -8 -6 -5 -14 3 -8 1 -17 -4 -20 -6 -3 -13 2 -16 11 -4
10 -1 20 9 25 8 5 13 13 10 18 -3 5 0 12 6 16 8 4 7 9 -2 16 -10 7 -8 9 7 5
12 -2 28 -1 35 4 18 11 22 11 15 0z m-206 -21 c0 -5 -4 -10 -10 -10 -5 0 -10
5 -10 10 0 6 5 10 10 10 6 0 10 -4 10 -10z m30 -70 c0 -5 -2 -10 -4 -10 -3 0
-8 5 -11 10 -3 6 -1 10 4 10 6 0 11 -4 11 -10z m534 -49 c3 -5 -4 -11 -16 -14
-25 -7 -33 -3 -23 12 8 13 32 14 39 2z m-6 -256 c-8 -8 -77 -9 -85 -2 -3 4 15
7 42 7 27 0 46 -2 43 -5z m-473 -54 c-3 -6 -11 -8 -17 -5 -6 4 -5 9 3 15 16
10 23 4 14 -10z"/>
<path d="M1687 6049 c-6 -23 1 -24 30 -1 l23 17 -24 1 c-16 1 -26 -5 -29 -17z"/>
<path d="M1740 6045 c-13 -16 -6 -35 15 -35 15 0 24 19 17 38 -6 16 -17 15
-32 -3z"/>
<path d="M1794 6039 c-3 -6 -2 -15 4 -21 12 -12 55 8 47 23 -8 12 -42 12 -51
-2z"/>
<path d="M1865 5999 c-16 -5 -42 -7 -56 -4 -15 4 -38 3 -53 -1 -35 -8 -31 -39
4 -39 14 0 29 -6 33 -12 10 -15 47 -17 47 -3 0 6 10 10 23 10 24 0 44 13 64
40 10 13 8 16 -10 17 -12 0 -35 -3 -52 -8z"/>
<path d="M1900 5811 c0 -6 4 -12 8 -15 5 -3 9 1 9 9 0 8 -4 15 -9 15 -4 0 -8
-4 -8 -9z"/>
<path d="M1920 5740 c-9 -6 -10 -10 -3 -10 6 0 15 5 18 10 8 12 4 12 -15 0z"/>
<path d="M4455 5440 c-11 -18 6 -30 45 -30 40 0 59 13 38 26 -20 13 -76 15
-83 4z"/>
<path d="M4217 3929 c-7 -26 2 -51 16 -46 18 6 31 33 24 51 -9 23 -34 20 -40
-5z"/>
<path d="M1570 3935 c-66 -15 -190 -71 -190 -85 0 -24 36 -21 88 5 30 15 87
36 125 47 78 20 82 22 72 37 -8 13 -24 13 -95 -4z"/>
<path d="M3637 3129 c-23 -13 -24 -77 -1 -86 33 -13 60 61 31 85 -8 7 -18 7
-30 1z"/>
<path d="M2635 2090 c-3 -5 -1 -10 4 -10 6 0 11 5 11 10 0 6 -2 10 -4 10 -3 0
-8 -4 -11 -10z"/>
<path d="M1679 2523 c-13 -16 -12 -17 4 -4 9 7 17 15 17 17 0 8 -8 3 -21 -13z"/>
<path d="M2831 2074 c-33 -56 -2 -76 44 -29 33 32 33 65 1 65 -17 0 -30 -11
-45 -36z"/>
<path d="M2045 2330 c-3 -5 -1 -10 4 -10 6 0 11 5 11 10 0 6 -2 10 -4 10 -3 0
-8 -4 -11 -10z"/>
<path d="M1145 1740 c-9 -14 42 -31 71 -24 13 3 24 12 24 20 0 17 -85 20 -95
4z"/>
<path d="M4593 1694 c-29 -13 -10 -25 35 -22 26 2 47 8 47 13 0 11 -62 17 -82
9z"/>
<path d="M0 1700 c0 -5 4 -10 9 -10 6 0 13 5 16 10 3 6 -1 10 -9 10 -9 0 -16
-4 -16 -10z"/>
<path d="M2 1232 c4 -56 22 -59 25 -3 2 27 -2 41 -13 45 -12 5 -15 -2 -12 -42z"/>
<path d="M176 1225 c-3 -8 -1 -17 3 -20 5 -3 11 2 15 10 3 8 1 17 -3 20 -5 3
-11 -2 -15 -10z"/>
<path d="M54 1195 c4 -24 16 -30 16 -7 0 12 -4 22 -9 22 -5 0 -8 -7 -7 -15z"/>
<path d="M3674 1187 c-36 -21 -74 -54 -74 -66 0 -7 -16 -19 -35 -27 -38 -15
-45 -31 -19 -41 35 -13 135 57 152 107 13 35 5 43 -24 27z"/>
<path d="M3701 1144 c-18 -41 -21 -58 -12 -67 8 -8 15 -7 27 5 14 13 21 14 36
5 16 -10 22 -8 39 12 24 29 24 47 2 55 -21 6 -56 28 -64 39 -3 4 -16 -18 -28
-49z"/>
<path d="M762 1147 c-24 -28 9 -36 154 -38 76 -1 204 4 284 10 80 6 192 10
250 8 88 -2 105 0 105 13 0 16 -121 18 -546 11 -91 -1 -181 0 -201 4 -24 5
-38 2 -46 -8z"/>
<path d="M3505 1140 c-19 -13 -47 -20 -78 -20 -46 0 -97 -22 -97 -41 0 -12 99
-12 136 0 16 5 41 12 56 15 38 9 62 34 47 52 -15 19 -28 18 -64 -6z"/>
<path d="M4203 1148 c-19 -24 -34 -81 -24 -91 17 -17 40 1 51 43 14 52 -2 80
-27 48z"/>
<path d="M4128 1123 c-9 -23 -12 -25 -15 -10 -3 12 -12 17 -26 15 -28 -4 -28
-27 -2 -42 11 -6 23 -15 26 -20 12 -16 45 4 56 35 7 18 10 36 7 40 -11 18 -35
8 -46 -18z"/>
<path d="M182 1120 c0 -14 2 -19 5 -12 2 6 2 18 0 25 -3 6 -5 1 -5 -13z"/>
<path d="M3880 1115 c-14 -17 -10 -47 7 -52 15 -5 47 42 38 57 -9 14 -31 12
-45 -5z"/>
<path d="M4292 1108 c-17 -17 -15 -58 3 -65 20 -7 22 -5 30 40 8 39 -7 51 -33
25z"/>
<path d="M3042 1088 c3 -21 9 -23 68 -25 80 -3 110 3 110 21 0 20 -23 26 -107
26 -71 0 -74 -1 -71 -22z"/>
<path d="M3266 1095 c-3 -8 -1 -15 3 -15 5 0 11 7 15 15 3 8 1 15 -3 15 -5 0
-11 -7 -15 -15z"/>
<path d="M4377 1094 c-14 -14 -7 -35 11 -32 9 2 17 10 17 17 0 16 -18 25 -28
15z"/>
<path d="M2671 1066 c-21 -25 2 -42 59 -44 63 -1 73 -7 57 -33 -10 -17 -9 -22
5 -33 25 -18 156 -27 279 -20 107 7 137 17 119 39 -7 9 -48 11 -153 8 l-142
-5 -15 34 c-17 37 -58 56 -145 65 -39 4 -54 2 -64 -11z"/>
<path d="M4635 1044 c-60 -9 -75 -15 -75 -29 0 -24 -47 -36 -99 -28 -25 5 -71
5 -101 1 -150 -19 -168 -20 -174 -9 -10 16 -61 14 -75 -3 -17 -21 10 -37 57
-35 22 2 47 -3 56 -10 11 -9 30 -11 59 -7 24 4 87 7 140 7 83 0 103 4 143 25
57 30 174 47 241 35 26 -5 50 -8 54 -6 3 3 36 5 73 6 62 2 67 4 64 23 -3 20
-9 21 -108 21 -58 0 -132 3 -165 7 -33 3 -73 4 -90 2z"/>
<path d="M3305 1003 c-35 -9 -46 -23 -34 -44 9 -18 25 -19 362 -15 380 4 440
9 435 35 -3 14 -39 16 -343 17 -187 0 -353 3 -370 6 -16 3 -39 4 -50 1z"/>
<path d="M2132 964 c2 -14 13 -20 41 -22 33 -3 37 -6 26 -18 -21 -26 9 -43 86
-49 39 -3 108 -10 155 -16 47 -6 150 -12 230 -14 80 -1 169 -5 198 -10 45 -7
52 -11 52 -30 0 -23 -2 -23 -82 -19 -98 5 -175 10 -361 24 -76 5 -143 8 -148
4 -13 -8 -11 -42 4 -51 6 -4 35 -8 62 -9 28 -2 110 -7 184 -13 81 -7 259 -8
445 -5 295 6 394 0 389 -21 -2 -6 -15 -14 -30 -19 -36 -11 -44 -25 -31 -49 5
-10 8 -20 6 -22 -2 -2 -52 -8 -113 -14 -180 -19 -221 -39 -176 -84 15 -15 41
-22 118 -29 159 -14 213 -26 253 -53 20 -14 40 -25 46 -25 5 0 46 -19 91 -42
91 -46 103 -67 53 -93 -36 -19 -44 -19 -37 -1 15 39 -60 43 -367 19 l-79 -6
23 31 c17 23 20 34 12 44 -7 9 -7 19 -2 28 38 60 -15 82 -204 88 -222 7 -386
-22 -347 -61 17 -17 13 -25 -16 -31 -27 -6 -202 -20 -363 -31 -351 -23 -459
-28 -551 -26 -113 1 -148 -10 -136 -44 6 -15 19 -17 115 -12 147 7 409 25 712
49 140 11 269 20 285 20 171 0 238 -14 229 -49 -10 -35 22 -47 132 -51 57 -3
112 -1 121 2 10 4 86 9 169 12 l152 4 4 -25 c3 -14 2 -27 -1 -29 -4 -3 -51 -7
-106 -11 -55 -4 -140 -18 -190 -31 -58 -15 -117 -24 -167 -24 -42 0 -111 -5
-153 -11 -85 -13 -124 -4 -140 34 -8 18 -20 23 -66 27 -31 3 -63 11 -71 17
-22 19 -185 27 -238 13 -25 -7 -83 -12 -130 -12 -123 2 -146 -11 -100 -53 20
-18 27 -18 123 -5 272 35 306 32 412 -41 27 -18 40 -20 120 -14 50 3 149 8
220 11 83 4 157 13 205 26 48 13 120 22 200 25 138 6 161 13 157 46 -2 18 4
23 28 25 17 2 27 0 22 -4 -9 -9 22 -44 40 -44 7 0 13 -7 13 -15 0 -8 5 -15 10
-15 6 0 10 4 10 9 0 5 52 8 116 8 102 -2 117 -4 130 -22 8 -10 13 -24 11 -30
-6 -17 -46 -17 -63 -1 -20 20 -43 20 -50 1 -4 -8 -15 -15 -26 -15 -10 0 -17 4
-13 9 3 5 0 13 -6 17 -8 5 -9 3 -4 -6 6 -10 -1 -12 -36 -6 -24 4 -45 11 -47
16 -2 5 -14 5 -28 -1 -14 -5 -37 -8 -52 -8 -18 1 -21 3 -9 6 14 4 15 8 7 18
-9 11 -16 9 -35 -11 -15 -15 -36 -24 -54 -24 -16 0 -37 -3 -47 -7 -11 -4 -15
-3 -10 5 4 6 -5 5 -21 -3 -19 -9 -88 -16 -208 -20 -99 -3 -225 -11 -280 -18
-135 -16 -300 -14 -415 5 -116 20 -605 25 -627 7 -37 -32 -14 -35 252 -31 237
4 283 2 426 -18 143 -21 169 -22 237 -11 43 7 176 16 297 22 121 5 288 18 370
30 127 17 161 19 220 9 153 -24 218 -27 260 -9 22 9 66 20 97 24 61 7 72 15
72 55 1 24 4 25 70 28 106 5 195 -12 223 -42 32 -35 117 -42 436 -38 120 2
127 3 127 22 0 22 -5 22 -255 21 -60 0 -141 4 -180 10 -61 10 -73 15 -94 42
-21 28 -30 32 -75 33 -96 2 -151 8 -158 19 -5 6 -8 5 -8 -2 0 -7 -5 -13 -11
-13 -5 0 -7 6 -3 13 6 9 5 9 -7 0 -8 -7 -35 -15 -59 -19 -60 -9 -90 -29 -90
-59 0 -36 -43 -34 -80 4 -22 21 -44 31 -87 38 l-58 9 80 8 c44 5 84 11 89 14
6 3 31 5 56 3 53 -3 100 13 100 33 0 18 -22 26 -76 26 -43 0 -44 1 -42 31 4
46 -40 65 -187 79 -66 7 -129 17 -140 22 -17 10 -13 14 38 36 60 26 68 39 40
65 -16 14 -41 14 -248 1 -214 -13 -415 -10 -415 6 0 3 61 14 136 23 157 20
177 27 172 65 -3 23 1 28 26 32 16 3 35 14 42 26 13 18 11 23 -14 47 -23 22
-41 29 -95 34 -109 10 -65 23 76 22 158 -1 197 -10 119 -28 -61 -15 -70 -25
-46 -52 14 -15 32 -19 88 -20 39 -1 63 -3 54 -6 -27 -7 -23 -50 5 -59 12 -4
75 -7 140 -7 83 1 117 -2 117 -10 0 -8 3 -8 8 1 12 17 203 18 234 0 13 -7 29
-11 36 -10 22 5 13 -7 -18 -23 -39 -20 -57 -19 -63 5 -5 21 -27 28 -27 9 0 -5
5 -7 10 -4 6 3 10 -2 10 -13 0 -16 -9 -19 -57 -21 -32 -1 -86 -11 -121 -22
-102 -34 -95 -68 19 -87 37 -7 92 -12 123 -12 54 0 56 -1 41 -17 -16 -16 -16
-18 3 -34 27 -22 115 -31 297 -30 l145 0 0 -50 c0 -99 61 -153 68 -60 2 24 -1
48 -6 53 -5 5 -8 18 -5 28 4 16 17 17 179 13 170 -4 174 -4 174 17 0 21 -5 23
-94 25 -34 1 -51 6 -54 16 -3 11 -1 11 6 1 6 -9 12 -6 20 13 9 19 9 24 1 19
-7 -4 -10 -1 -7 7 2 8 18 15 34 17 87 9 112 51 47 79 -41 16 -55 31 -46 46 3
5 0 7 -8 5 -8 -3 -13 -10 -12 -16 2 -6 -4 -9 -13 -5 -8 3 -13 12 -10 20 3 8 2
11 -3 8 -5 -3 -13 0 -17 6 -5 8 4 10 28 7 l34 -4 -3 42 c-2 23 1 45 6 49 20
12 12 26 -8 15 -12 -6 -18 -18 -16 -30 3 -15 -1 -20 -18 -19 -12 0 -16 3 -9 6
15 6 16 23 1 23 -6 0 -17 -7 -25 -15 -20 -20 -34 -19 -34 1 0 11 5 14 16 10
11 -4 15 -2 11 8 -4 9 8 19 35 29 32 13 39 20 35 36 -4 17 -1 18 17 12 11 -5
36 -6 54 -4 30 5 32 7 32 48 0 68 -2 70 -79 68 -81 -1 -93 -6 -86 -36 4 -15 0
-26 -14 -34 -16 -10 -20 -9 -24 9 -6 20 -11 21 -86 15 -45 -3 -81 -1 -81 3 0
5 -12 13 -27 18 -23 9 -12 11 57 11 92 1 106 6 111 35 5 24 30 28 91 15 30 -7
53 -7 64 -1 10 6 29 6 46 2 26 -8 28 -7 28 20 0 27 -3 29 -47 32 -27 2 -86 0
-132 -3 -75 -5 -86 -8 -105 -31 -20 -24 -28 -26 -131 -31 -137 -7 -176 -15
-182 -37 -4 -15 -23 -18 -126 -23 -67 -3 -191 -6 -275 -6 -138 1 -152 2 -133
15 27 19 27 40 0 54 -24 14 -150 8 -229 -10 -38 -8 -87 -10 -155 -5 -55 4
-132 9 -171 10 -38 2 -89 8 -111 14 -49 13 -88 2 -98 -29 -6 -20 -11 -21 -133
-14 -70 3 -201 8 -292 9 -91 1 -185 8 -210 14 -25 6 -62 11 -82 11 -31 0 -38
4 -38 20 0 30 -35 42 -133 48 -83 5 -89 4 -85 -14z m1263 -103 c30 -5 11 -9
-79 -14 -66 -3 -122 -4 -124 -2 -3 2 0 11 7 18 11 15 104 13 196 -2z m375 3
c0 -4 -8 -13 -17 -20 -14 -10 -16 -17 -7 -31 10 -17 29 -18 270 -15 142 2 286
4 319 5 92 1 186 -6 191 -15 3 -4 18 -5 34 -1 34 6 39 -7 13 -28 -17 -13 -17
-12 -3 6 12 17 12 18 0 7 -8 -7 -15 -20 -15 -29 0 -27 -59 -35 -84 -12 -33 31
-59 24 -67 -15 -4 -24 -10 -33 -20 -29 -13 5 -13 -13 1 -58 5 -15 3 -18 -12
-13 -15 5 -14 2 4 -14 22 -19 22 -20 3 -25 -13 -3 -20 0 -20 10 0 8 -4 11 -10
8 -5 -3 -10 3 -10 14 0 11 -7 26 -15 35 -8 8 -15 22 -15 30 0 9 -5 16 -11 16
-5 0 -8 -4 -5 -8 3 -5 -11 -9 -30 -10 -30 -1 -35 1 -30 16 5 14 3 13 -9 -2
-13 -17 -15 -18 -15 -3 0 9 -7 17 -15 17 -8 0 -14 -6 -13 -12 2 -8 -8 -13 -24
-14 -16 -1 -28 3 -28 7 0 12 -43 6 -52 -6 -5 -6 -8 -3 -8 7 0 9 6 18 13 21 6
2 9 8 5 12 -9 9 -40 -14 -33 -25 6 -9 -42 -7 -51 3 -4 4 0 7 9 7 10 0 17 8 17
20 0 11 -4 20 -10 20 -14 0 -32 -39 -26 -56 4 -12 2 -12 -14 -4 -12 7 -20 7
-20 1 0 -5 -43 -11 -95 -13 -52 -2 -95 0 -95 5 0 4 5 7 10 7 6 0 10 9 10 19 0
20 -10 26 -72 36 l-36 7 16 28 c23 39 6 55 -76 71 l-67 14 50 5 c85 9 165 11
165 4z m1090 -99 c-11 -21 -27 -40 -35 -41 -19 -3 -19 -1 7 57 18 39 25 46 35
36 11 -10 9 -20 -7 -52z m113 58 c-7 -2 -19 -2 -25 0 -7 3 -2 5 12 5 14 0 19
-2 13 -5z m-1653 -33 c0 -5 -5 -10 -11 -10 -5 0 -7 5 -4 10 3 6 8 10 11 10 2
0 4 -4 4 -10z m1500 -8 c0 -14 -24 -39 -45 -46 -19 -6 -19 -5 -2 8 9 7 17 21
17 30 0 9 7 16 15 16 8 0 15 -4 15 -8z m-115 -52 c3 -5 1 -10 -4 -10 -6 0 -11
5 -11 10 0 6 2 10 4 10 3 0 8 -4 11 -10z m-392 -190 c-10 -11 -23 -20 -31 -20
-10 0 -10 5 -2 20 6 11 20 20 30 20 19 0 19 -1 3 -20z m-77 -39 c-9 -14 -202
-15 -211 -1 -4 6 26 10 82 10 48 0 95 5 103 10 17 11 36 -3 26 -19z m-526 7
c-127 -36 -139 -55 -58 -92 39 -17 87 -27 186 -36 176 -17 180 -27 20 -44 -21
-3 -42 -7 -48 -11 -16 -10 -12 -33 10 -48 18 -13 10 -15 -77 -20 -53 -4 -98
-5 -100 -3 -2 2 12 13 32 25 30 17 36 26 33 49 -3 23 -17 34 -109 82 -133 69
-145 77 -137 85 6 6 180 21 253 23 30 0 30 0 -5 -10z m621 -22 c10 16 19 22
23 15 4 -6 2 -11 -4 -11 -7 0 -9 -7 -6 -15 4 -11 -3 -19 -21 -26 -22 -8 -24
-12 -13 -19 9 -6 16 -6 18 0 2 6 8 8 13 4 14 -8 1 -24 -20 -24 -10 0 -26 16
-37 38 -26 48 -20 74 9 38 l21 -26 17 26z m366 18 c-3 -3 -12 -4 -19 -1 -8 3
-5 6 6 6 11 1 17 -2 13 -5z m-317 -34 c0 -5 -2 -10 -4 -10 -3 0 -8 5 -11 10
-3 6 -1 10 4 10 6 0 11 -4 11 -10z m439 -31 c-11 -7 -10 -9 4 -9 10 0 17 -8
17 -20 0 -11 -5 -20 -11 -20 -5 0 -7 5 -3 12 5 7 3 8 -6 3 -7 -4 -16 -2 -22 6
-8 11 -8 10 -4 -4 5 -15 1 -18 -17 -15 -13 2 -21 9 -18 18 2 8 5 22 6 30 2 8
4 15 4 16 1 0 15 -2 32 -4 22 -3 27 -7 18 -13z m-229 -15 c0 -8 -10 -14 -25
-14 -25 0 -33 14 -15 25 6 3 10 1 10 -5 0 -6 5 -8 10 -5 6 4 7 11 4 17 -4 7
-2 8 4 4 7 -4 12 -14 12 -22z m86 11 c-8 -8 -17 -15 -20 -15 -3 0 -6 7 -6 15
0 9 9 15 21 15 18 0 19 -2 5 -15z m71 9 c-3 -3 -12 -4 -19 -1 -8 3 -5 6 6 6
11 1 17 -2 13 -5z m-1669 -14 c17 0 22 -6 22 -25 0 -19 -6 -25 -22 -27 -48 -3
-114 4 -127 15 -7 7 -30 12 -49 12 -20 1 -37 6 -39 12 -2 6 4 10 13 9 10 -2
31 1 48 5 17 5 54 6 81 4 28 -3 60 -5 73 -5z m1412 -12 c0 -12 -3 -18 -7 -14
-11 10 -12 36 -2 36 5 0 9 -10 9 -22z m-1650 -4 c0 -12 -6 -15 -22 -10 -13 3
-34 6 -48 7 -23 0 -23 1 -5 9 35 15 75 12 75 -6z m990 -194 c0 -5 -7 -10 -15
-10 -8 0 -15 5 -15 10 0 6 7 10 15 10 8 0 15 -4 15 -10z"/>
<path d="M4153 715 c-9 -25 4 -29 17 -6 7 15 7 21 0 21 -6 0 -13 -7 -17 -15z"/>
<path d="M4096 704 c-4 -10 -1 -14 6 -12 15 5 23 28 10 28 -5 0 -13 -7 -16
-16z"/>
<path d="M4345 680 c-3 -5 -1 -10 4 -10 6 0 11 5 11 10 0 6 -2 10 -4 10 -3 0
-8 -4 -11 -10z"/>
<path d="M945 910 c-3 -5 -1 -10 4 -10 6 0 11 5 11 10 0 6 -2 10 -4 10 -3 0
-8 -4 -11 -10z"/>
<path d="M1753 823 c-20 -3 -33 -10 -33 -19 0 -10 14 -14 53 -14 28 0 149 -3
268 -6 144 -4 219 -3 223 4 3 6 2 13 -4 17 -16 10 -444 25 -507 18z"/>
<path d="M910 812 c-8 -3 -21 -11 -28 -19 -11 -11 -10 -13 7 -10 22 3 48 24
40 30 -2 3 -11 2 -19 -1z"/>
<path d="M1090 791 c0 -6 5 -13 10 -16 6 -3 10 1 10 9 0 9 -4 16 -10 16 -5 0
-10 -4 -10 -9z"/>
<path d="M4910 745 c0 -8 9 -15 20 -15 11 0 20 2 20 5 0 2 -9 9 -20 15 -16 9
-20 8 -20 -5z"/>
<path d="M4950 756 c0 -2 8 -10 18 -17 15 -13 16 -12 3 4 -13 16 -21 21 -21
13z"/>
<path d="M1134 729 c-9 -15 7 -30 25 -24 11 3 24 -2 32 -11 13 -16 11 -16 -21
-9 -56 13 -211 10 -255 -4 -43 -15 -246 -21 -238 -8 6 10 -79 -3 -91 -14 -5
-4 -6 -14 -3 -22 8 -22 257 -23 334 -1 32 9 62 20 67 25 12 11 76 12 75 2 -5
-31 4 -32 381 -31 209 0 409 -3 444 -7 41 -5 66 -3 70 4 13 20 -39 40 -119 46
-69 4 -379 8 -402 4 -4 -1 -48 0 -98 1 -66 2 -81 4 -55 10 35 7 989 4 1085 -3
28 -2 67 -9 87 -16 42 -14 58 -9 58 19 0 36 -37 45 -180 43 -75 -1 -155 -6
-178 -12 -27 -6 -69 -6 -115 1 -94 12 -895 19 -903 7z"/>
<path d="M4950 710 c0 -5 5 -10 10 -10 6 0 10 5 10 10 0 6 -4 10 -10 10 -5 0
-10 -4 -10 -10z"/>
<path d="M4926 669 c-17 -17 -18 -19 -2 -25 21 -8 29 -1 24 24 -3 18 -4 18
-22 1z"/>
<path d="M4983 660 c3 -39 16 -39 15 0 -1 17 -5 30 -9 30 -5 0 -7 -13 -6 -30z"/>
<path d="M2226 671 c-4 -6 -2 -20 5 -32 11 -21 10 -21 -32 -16 -103 15 -168
19 -179 12 -21 -13 8 -32 59 -39 29 -4 51 -12 55 -21 3 -8 11 -15 17 -15 8 0
8 4 1 13 -8 10 1 12 45 12 33 -1 61 4 69 12 7 7 32 13 55 13 38 0 41 -2 29
-14 -28 -27 -131 -44 -265 -44 -355 -1 -413 -3 -425 -18 -19 -22 -5 -41 42
-57 l43 -15 -92 0 c-68 0 -91 3 -86 11 5 9 3 9 -8 1 -15 -13 -107 -14 -125 -2
-6 4 -25 4 -41 -1 -17 -5 -51 -8 -77 -7 -25 1 -46 -2 -46 -6 0 -4 -5 -8 -11
-8 -5 0 -8 4 -4 9 10 16 -17 25 -29 9 -13 -18 -158 -18 -163 -1 -3 7 -14 8
-33 3 -16 -4 -31 -6 -34 -2 -3 3 -6 0 -6 -6 0 -18 -28 -14 -39 5 -9 16 -10 16
-11 -4 0 -12 8 -27 18 -32 15 -9 13 -10 -9 -11 -16 0 -33 9 -43 23 -9 12 -14
17 -11 10 3 -7 -3 -17 -14 -22 -28 -15 -31 -14 -32 12 -1 16 -2 18 -6 5 -5
-20 -33 -24 -49 -8 -15 15 -16 -40 -2 -59 7 -9 8 -13 4 -9 -5 5 -16 -2 -24
-14 -14 -19 -13 -22 1 -33 25 -18 106 -19 113 0 4 8 1 21 -5 29 -9 11 3 13 64
14 41 0 80 4 87 9 7 4 33 9 58 10 25 1 110 6 190 11 80 5 149 5 154 0 6 -5 5
-8 -2 -8 -7 0 -12 -5 -12 -11 0 -5 5 -7 11 -3 7 4 26 7 43 6 17 0 34 4 38 11
5 8 54 12 153 13 85 0 150 5 156 11 6 6 11 26 12 44 l2 34 205 0 c148 0 216 4
245 14 22 7 55 19 74 25 19 6 43 23 54 38 40 54 -5 90 -132 105 -30 3 -51 1
-55 -6z"/>
<path d="M4930 615 c-10 -12 -10 -18 -2 -26 7 -5 10 -6 7 -3 -2 4 0 15 6 25
12 23 6 25 -11 4z"/>
<path d="M4980 570 c0 -5 5 -10 11 -10 5 0 7 5 4 10 -3 6 -8 10 -11 10 -2 0
-4 -4 -4 -10z"/>
<path d="M510 465 c0 -8 4 -15 10 -15 5 0 7 7 4 15 -4 8 -8 15 -10 15 -2 0 -4
-7 -4 -15z"/>
<path d="M195 461 c-3 -5 -1 -12 5 -16 5 -3 10 1 10 9 0 18 -6 21 -15 7z"/>
<path d="M720 460 c-8 -5 -11 -12 -7 -16 4 -4 13 -2 19 4 15 15 7 24 -12 12z"/>
<path d="M652 449 c2 -7 10 -15 17 -17 8 -3 12 1 9 9 -2 7 -10 15 -17 17 -8 3
-12 -1 -9 -9z"/>
<path d="M920 451 c0 -6 4 -13 10 -16 6 -3 7 1 4 9 -7 18 -14 21 -14 7z"/>
<path d="M150 435 c0 -16 16 -20 24 -6 3 5 -1 11 -9 15 -9 3 -15 0 -15 -9z"/>
<path d="M2290 434 c-74 -7 -167 -13 -206 -13 -53 -1 -73 -5 -77 -15 -11 -29
20 -39 100 -33 429 33 467 38 471 60 3 15 -5 17 -75 16 -43 -1 -139 -7 -213
-15z"/>
<path d="M736 412 c-4 -7 -5 -16 -1 -21 3 -5 -3 -11 -12 -13 -15 -3 -14 -5 5
-10 12 -3 20 -2 17 2 -3 5 -1 10 4 12 4 1 5 12 1 22 -4 14 -9 16 -14 8z"/>
<path d="M120 393 c0 -5 9 -19 20 -33 19 -24 19 -24 13 -2 -3 12 -10 22 -17
22 -6 0 -4 5 4 10 13 8 12 10 -2 10 -10 0 -18 -3 -18 -7z"/>
<path d="M200 384 c0 -8 5 -12 10 -9 6 3 10 10 10 16 0 5 -4 9 -10 9 -5 0 -10
-7 -10 -16z"/>
<path d="M96 357 c3 -10 9 -15 12 -12 3 3 0 11 -7 18 -10 9 -11 8 -5 -6z"/>
<path d="M1022 335 c-18 -13 -21 -20 -11 -31 6 -8 19 -12 28 -10 41 12 188 15
306 7 140 -9 181 -3 153 25 -12 12 -61 16 -234 20 -194 5 -222 4 -242 -11z"/>
<path d="M657 303 c-18 -17 -5 -33 27 -33 19 0 47 -5 63 -12 16 -6 82 -12 153
-12 143 -1 386 -30 445 -53 38 -15 198 -25 238 -15 10 3 17 12 15 21 -3 16
-44 23 -213 34 -77 6 -243 25 -310 37 -33 6 -110 10 -170 9 -85 -1 -118 2
-142 15 -32 16 -94 22 -106 9z"/>
<path d="M30 284 c0 -8 5 -12 10 -9 6 3 10 10 10 16 0 5 -4 9 -10 9 -5 0 -10
-7 -10 -16z"/>
<path d="M920 220 c0 -5 5 -10 11 -10 5 0 7 5 4 10 -3 6 -8 10 -11 10 -2 0 -4
-4 -4 -10z"/>
<path d="M1960 215 c-117 -17 -226 -41 -280 -62 -37 -14 -81 -17 -242 -18
-109 0 -198 -3 -198 -6 0 -9 -164 -1 -167 8 -4 10 -145 5 -156 -6 -13 -13 3
-41 27 -45 18 -4 201 -18 246 -19 25 0 300 13 377 19 75 5 105 12 165 38 21 9
52 16 70 16 18 0 54 7 80 14 26 8 78 18 116 22 85 8 105 18 78 39 -11 8 -22
14 -25 14 -3 -1 -44 -7 -91 -14z"/>
<path d="M1133 193 c4 -3 2 -12 -4 -20 -6 -7 -7 -13 -3 -13 5 0 15 9 22 20 10
17 10 20 -5 20 -9 0 -13 -3 -10 -7z"/>
<path d="M1215 191 c-11 -5 -26 -6 -32 -4 -7 3 -13 1 -13 -5 0 -5 16 -10 35
-10 23 0 35 5 35 14 0 8 -1 14 -2 13 -2 0 -12 -4 -23 -8z"/>
<path d="M1 97 c-1 -94 0 -97 18 -87 11 5 41 10 68 10 53 1 173 46 181 69 5
14 -8 14 -92 -5 -27 -7 -29 -6 -22 20 7 28 7 28 -41 24 -26 -1 -51 -7 -54 -12
-4 -5 -15 -5 -25 -1 -13 5 -15 9 -7 12 7 3 13 9 13 14 0 6 -4 8 -9 5 -5 -4
-14 6 -19 21 -7 22 -10 6 -11 -70z m119 -17 c0 -14 -41 -29 -60 -22 -10 4 -5
10 15 18 37 16 45 17 45 4z"/>
<path d="M911 168 c-1 -13 7 -18 24 -18 16 0 25 6 25 15 0 12 -4 13 -19 5 -14
-7 -21 -6 -24 3 -3 7 -6 5 -6 -5z"/>
<path d="M390 145 c-16 -19 -10 -26 17 -19 13 4 20 11 16 20 -7 18 -17 18 -33
-1z"/>
<path d="M340 105 c-5 -14 -26 -35 -45 -46 -61 -36 -34 -44 90 -25 5 0 9 -6
10 -14 0 -11 13 -16 46 -18 37 -2 48 1 53 15 3 10 8 23 11 29 3 6 -2 15 -12
18 -9 4 -14 4 -10 0 4 -4 2 -13 -4 -21 -6 -7 -8 -13 -3 -13 11 0 -18 -20 -28
-20 -5 0 -8 7 -8 16 0 8 -4 13 -8 10 -4 -2 -13 -2 -19 2 -8 5 -8 17 2 45 14
41 5 47 -25 17 -25 -25 -26 -25 -33 0 -3 10 0 21 7 24 7 3 7 5 -2 5 -7 1 -17
-10 -22 -24z"/>
<path d="M670 115 c-16 -20 -4 -35 28 -35 15 0 53 -6 84 -14 60 -14 78 -8 78
26 0 14 -8 18 -39 18 -22 0 -43 5 -46 10 -10 16 -91 12 -105 -5z"/>
<path d="M420 70 c0 -5 5 -10 11 -10 5 0 7 5 4 10 -3 6 -8 10 -11 10 -2 0 -4
-4 -4 -10z"/>
<path d="M532 68 c-16 -16 3 -38 34 -38 17 0 24 6 24 19 0 28 -37 40 -58 19z"/>
<path d="M834 29 c-3 -6 -2 -15 3 -20 5 -5 9 -1 9 11 0 23 -2 24 -12 9z"/>
<path d="M956 25 c4 -8 10 -12 15 -9 14 8 10 24 -6 24 -9 0 -12 -6 -9 -15z"/>
<path d="M800 10 c-9 -6 -10 -10 -3 -10 6 0 15 5 18 10 8 12 4 12 -15 0z"/>
<path d="M518 3 c7 -3 16 -2 19 1 4 3 -2 6 -13 5 -11 0 -14 -3 -6 -6z"/>
</g>
</svg>
