<?xml version="1.0" standalone="no"?>
<!DOCTYPE svg PUBLIC "-//W3C//DTD SVG 20010904//EN"
 "http://www.w3.org/TR/2001/REC-SVG-20010904/DTD/svg10.dtd">
<svg version="1.0" xmlns="http://www.w3.org/2000/svg"
 width="500.000000pt" height="878.000000pt" viewBox="0 0 500.000000 878.000000"
 preserveAspectRatio="xMidYMid meet">
<metadata>
Created by potrace 1.15, written by Peter Selinger 2001-2017
</metadata>
<g transform="translate(0.000000,878.000000) scale(0.100000,-0.100000)"
fill="#000000" stroke="none">
<path d="M0 7622 l0 -1157 41 0 c80 0 108 -81 45 -129 -38 -29 -56 -32 -74
-14 -9 9 -12 -81 -12 -406 l0 -418 26 16 c24 16 27 16 57 -1 76 -45 22 -172
-63 -150 -20 5 -20 -1 -20 -460 l0 -466 37 6 c42 7 73 -13 73 -47 0 -27 17
-53 27 -43 4 5 8 16 8 25 0 19 22 24 195 46 147 19 216 23 226 13 8 -8 7 -145
-2 -158 -3 -5 -65 -9 -137 -8 -129 1 -204 10 -259 31 -31 12 -68 3 -68 -17 0
-21 -37 -37 -71 -30 l-29 7 0 -804 0 -803 44 0 c24 0 47 3 51 7 8 8 29 1 70
-24 l30 -19 -44 7 c-38 6 -43 5 -39 -12 4 -21 63 -37 115 -32 17 2 31 -1 30
-6 -1 -6 7 -11 18 -11 27 -2 90 -33 147 -72 25 -18 58 -37 72 -43 27 -10 36
-30 14 -30 -7 0 -22 7 -32 15 -23 17 -52 19 -61 5 -4 -6 7 -15 24 -21 17 -6
31 -14 31 -19 0 -4 9 -10 20 -13 11 -3 20 -10 20 -16 0 -6 -14 -4 -35 6 -27
13 -38 14 -47 5 -8 -8 -8 -15 0 -24 6 -8 7 -29 2 -56 -4 -23 -4 -45 0 -47 5
-3 7 -13 5 -23 -2 -9 -4 -20 -4 -25 -1 -4 -12 -5 -25 -1 -33 8 -41 -11 -17
-42 24 -30 19 -49 -9 -34 -13 7 -21 6 -30 -5 -7 -8 -20 -15 -29 -15 -9 0 -22
-5 -29 -12 -9 -9 -16 -8 -30 5 -10 9 -22 14 -25 10 -4 -3 -7 -1 -7 6 0 8 -6 9
-17 3 -10 -5 -32 -12 -50 -15 -28 -6 -34 -2 -53 27 -16 27 -78 66 -104 66 -2
0 -4 -58 -5 -128 l-2 -128 28 1 c15 0 31 4 34 8 3 4 25 1 49 -7 24 -8 47 -13
52 -10 4 3 8 1 8 -5 0 -6 12 -8 30 -5 19 4 30 2 30 -5 0 -7 -16 -9 -42 -6
-163 16 -188 17 -188 7 0 -7 11 -14 25 -18 14 -3 25 -13 25 -23 0 -12 2 -13 9
-3 13 20 113 5 108 -17 -2 -9 3 -28 10 -43 13 -27 13 -28 -17 -28 -28 0 -30
-3 -31 -37 0 -36 -1 -36 -10 -13 -6 14 -8 42 -6 63 2 20 2 37 -2 37 -16 -1
-33 -19 -41 -46 -9 -27 -9 -27 -7 11 1 30 -2 41 -15 43 -25 5 -48 -48 -48
-108 0 -52 10 -70 45 -84 15 -5 16 -9 6 -15 -7 -5 -12 -11 -12 -15 1 -3 1 -7
0 -8 -7 -23 -1 -68 9 -68 6 0 12 -9 12 -19 0 -11 6 -22 13 -24 6 -3 -7 -6 -30
-6 l-43 -1 0 -43 0 -42 60 1 c58 0 83 -6 81 -20 -1 -3 -1 -7 0 -8 1 -2 3 -20
5 -42 5 -64 26 -64 28 1 1 20 7 38 14 41 7 2 10 8 6 13 -3 5 2 9 11 9 26 0 30
-29 6 -51 -22 -20 -25 -36 -15 -63 10 -26 25 -18 18 9 -4 18 -2 25 8 25 17 0
17 -24 -1 -68 -13 -31 -39 -47 -27 -17 5 14 3 14 -15 1 -12 -8 -28 -12 -35 -9
-8 3 -14 0 -14 -7 0 -8 -18 -10 -65 -5 l-65 7 0 -106 0 -106 39 0 c22 0 43 -4
46 -10 3 -5 16 -10 28 -10 18 0 19 -2 7 -10 -8 -5 -25 -10 -37 -10 -12 0 -31
-12 -42 -26 -18 -23 -21 -24 -21 -8 0 11 -5 26 -10 34 -7 10 -9 -9 -8 -65 l3
-80 50 -2 c77 -3 125 -22 125 -49 0 -33 -10 -54 -26 -54 -14 0 -18 12 -14 40
1 12 -1 13 -11 3 -7 -7 -23 -13 -35 -13 -29 0 -38 -14 -23 -38 8 -13 20 -17
41 -14 24 4 29 1 26 -14 -4 -25 -29 -54 -41 -47 -13 8 -57 110 -57 133 0 11
-9 24 -19 30 -19 9 -19 4 -20 -179 -1 -184 -1 -190 20 -196 11 -4 23 -4 26 -1
13 12 43 -16 43 -41 0 -21 2 -23 15 -13 11 9 12 17 5 31 -9 15 -6 20 12 24 30
7 71 1 75 -12 4 -11 -26 -11 -45 1 -7 4 -16 5 -19 2 -4 -3 -1 -6 5 -6 7 0 12
-9 12 -21 0 -16 4 -19 17 -13 10 4 28 7 41 7 25 -1 28 7 10 25 -9 9 -9 12 0
12 7 0 12 -4 12 -10 0 -5 7 -10 15 -10 8 0 15 -8 15 -17 0 -13 3 -14 12 -5 7
7 32 12 55 12 24 0 58 8 76 17 37 20 77 26 77 12 0 -5 -9 -9 -20 -9 -19 0 -26
-11 -14 -22 3 -4 21 0 39 8 43 17 46 17 39 0 -6 -16 8 -28 21 -18 17 12 11 47
-10 54 -13 4 -3 6 27 7 41 1 46 -1 41 -19 -3 -11 0 -20 6 -20 6 0 10 -5 9 -11
-2 -6 3 -14 11 -16 9 -4 11 0 6 16 -5 15 -2 21 9 21 9 0 16 -5 16 -11 0 -6 7
-17 15 -25 8 -9 15 -12 15 -7 0 5 9 9 20 10 11 1 18 -2 15 -7 -3 -6 1 -7 9 -4
9 3 16 1 16 -5 0 -7 8 -7 25 1 22 10 23 13 11 20 -14 8 -13 12 4 30 13 14 16
24 9 28 -5 4 3 7 19 8 25 0 29 -2 24 -20 -3 -14 -1 -19 6 -14 7 4 12 13 12 21
0 12 75 27 86 16 8 -8 45 -11 41 -4 -3 5 21 9 54 10 32 1 58 -1 58 -5 -3 -19
2 -22 17 -8 15 16 75 22 87 10 11 -12 348 -7 360 5 17 17 25 14 41 -17 9 -18
11 -34 5 -51 -8 -21 -7 -22 6 -11 8 7 15 21 15 31 0 11 7 19 18 19 16 1 16 1
-1 14 -17 13 -16 14 5 19 46 10 120 8 113 -2 -9 -16 4 -13 22 4 13 14 18 14
38 1 24 -16 87 -8 109 14 7 7 10 62 10 155 0 79 3 142 8 139 4 -3 8 0 8 5 0 6
4 11 9 11 13 0 20 -37 10 -47 -12 -12 -1 -43 15 -43 6 0 18 5 26 10 13 8 12
11 -5 24 -15 11 -17 17 -7 28 6 8 9 18 5 21 -3 4 -1 7 6 7 9 0 11 -8 7 -24 -3
-14 -2 -27 3 -30 5 -3 9 -55 9 -116 -1 -105 1 -112 28 -151 26 -37 29 -39 41
-23 17 24 16 43 -2 50 -17 7 -21 34 -5 34 13 0 50 32 50 43 0 5 -9 5 -20 2
-14 -4 -20 -2 -20 9 0 20 17 29 26 15 4 -7 12 1 21 21 15 37 16 35 -13 44 -15
4 -24 2 -28 -9 -11 -29 -21 -14 -23 35 -1 30 2 48 7 45 5 -3 7 1 4 9 -3 8 3
19 15 26 12 6 21 17 21 25 0 23 -17 18 -25 -7 -4 -14 -8 -18 -12 -10 -2 6 -9
9 -14 6 -11 -6 -6 97 5 115 10 16 46 13 46 -4 0 -7 -6 -18 -12 -22 -7 -4 -18
-23 -25 -41 -10 -28 -10 -32 2 -22 7 6 25 8 39 4 21 -5 25 -11 20 -28 -6 -21
-6 -21 10 -1 16 21 22 80 7 71 -4 -3 -6 6 -3 19 6 36 42 34 43 -2 1 -16 2 -37
3 -48 1 -11 -3 -23 -9 -27 -6 -4 -2 -8 8 -8 16 0 19 4 21 33 1 6 5 15 9 18 4
3 3 18 -3 33 -6 17 -6 25 0 21 6 -3 10 -1 10 4 0 6 5 11 12 11 16 0 3 -181
-22 -305 -24 -117 -50 -175 -96 -217 -18 -17 -31 -35 -28 -39 3 -5 -12 -9 -33
-9 -21 -1 -67 -3 -102 -6 -44 -4 -61 -2 -57 5 5 8 0 8 -18 1 -14 -5 -102 -9
-197 -9 l-172 -1 18 20 c10 12 19 29 20 39 1 16 -2 18 -23 10 -16 -6 -29 -6
-37 1 -14 12 -82 20 -102 12 -7 -2 -13 -8 -13 -14 0 -5 4 -6 10 -3 5 3 7 0 4
-8 -3 -9 9 -17 40 -24 25 -5 43 -7 41 -3 -3 5 2 11 11 14 24 9 26 8 22 -16 -2
-16 -10 -23 -28 -25 -14 0 -29 -2 -35 -2 -5 -1 -79 -3 -162 -4 -113 -1 -152 1
-150 10 1 6 -2 11 -8 10 -5 -1 -9 -5 -7 -10 1 -4 -1 -6 -5 -5 -5 1 -60 -2
-123 -6 -63 -4 -292 -8 -508 -10 -349 -2 -394 -1 -402 13 -9 14 -11 14 -24 -2
-20 -26 -68 -18 -78 14 -5 17 -6 11 -5 -21 l2 -45 500 3 c275 2 687 6 915 9
637 8 648 8 655 1 4 -3 -1 -18 -11 -33 -15 -24 -16 -28 -2 -42 25 -24 78 -29
293 -28 133 1 207 6 222 13 13 7 38 10 60 6 51 -8 142 19 189 56 l37 30 301 2
c165 1 321 3 346 3 163 6 1114 18 1245 17 88 -2 179 0 203 3 l42 6 0 4225 0
4224 -2500 0 -2500 0 0 -1158z m2804 1047 c9 -8 -14 -15 -77 -23 -43 -5 -62
-18 -83 -59 -21 -40 -12 -69 43 -139 45 -57 58 -65 116 -70 46 -5 34 -22 -22
-31 -64 -11 -121 -2 -121 18 0 8 5 15 10 15 6 0 10 4 10 10 0 15 -61 80 -75
80 -19 0 -58 -67 -51 -86 4 -9 13 -13 23 -10 19 6 51 -9 41 -19 -3 -3 -68 -9
-144 -12 -214 -10 -209 -10 -209 7 0 11 14 16 53 18 67 4 69 11 62 157 l-5
110 -50 3 c-134 7 -89 29 73 35 l133 5 19 -38 c33 -65 42 -63 103 24 17 24 21
25 80 20 34 -4 66 -10 71 -15z m-1958 -239 c11 -121 25 -497 22 -598 l-3 -127
-42 -3 c-36 -3 -43 0 -43 15 0 74 -10 434 -16 550 -8 180 -6 190 42 189 32 -2
38 -5 40 -26z m178 -246 c3 -9 6 -57 5 -107 -1 -54 -4 -82 -8 -67 -4 16 -14
25 -26 25 -16 0 -20 -7 -19 -30 2 -65 -64 -59 -70 6 -2 19 -7 69 -11 112 l-7
77 65 0 c50 0 66 -4 71 -16z m1784 -19 c622 -3 1205 -7 1295 -10 143 -4 667
-22 801 -28 29 -1 51 -7 54 -14 3 -10 -219 -13 -1085 -13 -1957 -1 -2796 1
-2805 6 -11 7 -10 48 1 60 6 5 130 8 308 7 164 -1 808 -5 1431 -8z m-2068 -81
c0 -56 -4 -76 -14 -80 -40 -15 -185 -4 -298 23 -52 12 -67 20 -72 37 -18 67
-15 68 289 95 44 3 83 5 88 3 4 -2 7 -37 7 -78z m-451 50 c36 -30 38 -50 11
-104 -17 -33 -26 -40 -49 -40 -35 0 -91 44 -91 70 0 27 32 77 55 89 31 15 41
13 74 -15z m4669 -69 c20 -7 4 -25 -21 -24 -43 2 -1356 -12 -1562 -16 -435
-10 -744 -15 -1205 -20 -261 -3 -616 -8 -787 -11 l-313 -6 0 35 0 36 183 3
c100 2 582 4 1071 5 489 1 890 4 891 5 5 5 1729 -2 1743 -7z m-4293 -167 c15
-48 20 -675 6 -691 -4 -4 -24 -8 -44 -10 l-38 -2 -4 70 c-3 54 -7 509 -5 608
0 29 76 51 85 25z m179 -244 c3 -9 6 -52 5 -97 0 -63 -3 -76 -10 -58 -5 13 -8
35 -7 50 2 20 -1 26 -17 26 -18 0 -20 -8 -23 -72 l-3 -73 -33 0 -34 0 -7 105
c-4 57 -5 111 -1 120 8 22 121 21 130 -1z m1371 -9 c55 -2 305 -6 555 -9 630
-8 1106 -15 1430 -21 151 -3 382 -7 513 -9 233 -3 278 -9 252 -35 -6 -6 -203
-10 -490 -11 -264 -1 -687 -2 -940 -2 -253 -1 -950 -2 -1550 -2 l-1090 -1 -3
39 c-6 71 -56 66 615 60 334 -2 653 -6 708 -9z m-1671 -80 c2 -42 -2 -79 -7
-82 -5 -3 -69 -5 -141 -5 -143 0 -221 14 -212 37 2 7 8 29 11 49 4 20 14 37
24 40 29 9 175 20 238 18 48 -1 63 2 67 15 12 29 18 5 20 -72z m-420 53 c35
-15 42 -45 19 -77 -29 -39 -63 -53 -87 -37 -50 32 -46 88 7 111 18 8 33 14 34
15 1 0 13 -5 27 -12z m4843 -105 c7 -19 -102 -22 -787 -28 -366 -3 -771 -8
-900 -10 -129 -2 -469 -7 -755 -10 -286 -3 -619 -8 -740 -10 -121 -2 -372 -7
-558 -11 l-338 -7 3 39 3 39 610 2 c336 2 624 4 640 5 17 2 657 3 1424 3 991
-1 1396 -4 1398 -12z m-4123 -163 c5 -17 21 -331 18 -343 -2 -5 -3 -97 -3
-205 0 -109 -3 -202 -7 -207 -9 -14 -59 -17 -67 -4 -4 5 -8 51 -10 102 -2 51
-11 216 -21 368 -10 152 -15 282 -12 290 8 20 97 20 102 -1z m225 -256 c11 -4
12 -7 3 -16 -7 -7 -12 -30 -12 -51 0 -33 -2 -38 -15 -27 -24 20 -35 1 -35 -61
0 -54 -2 -60 -25 -69 -34 -13 -85 -2 -85 19 0 9 -1 59 -2 111 l-2 95 59 5 c58
5 84 3 114 -6z m-351 -111 l3 -93 -48 -1 c-122 -2 -213 3 -263 12 l-55 11 0
64 0 64 35 11 c19 6 80 13 135 16 55 2 105 6 110 8 6 2 26 3 45 2 l35 -2 3
-92z m3652 87 c348 -1 580 -5 587 -11 7 -6 8 -20 4 -36 l-7 -26 -1029 1 c-567
1 -1427 2 -1911 3 -929 0 -921 0 -913 44 4 18 42 19 1262 21 692 1 1260 4
1263 6 2 3 41 3 86 2 46 -1 342 -3 658 -4z m-4075 -25 c34 -33 31 -65 -9 -104
-26 -25 -40 -32 -66 -29 -27 3 -34 9 -46 43 -15 43 -11 70 14 98 23 26 78 22
107 -8z m4662 -89 c3 -3 4 -8 1 -11 -8 -9 -331 -15 -1098 -21 -399 -3 -756 -7
-795 -9 -87 -4 -1246 -17 -1650 -19 l-300 -1 -1 30 c-1 17 0 33 3 38 5 9 3831
2 3840 -7z m-3900 -48 c-2 -13 -4 -5 -4 17 -1 22 1 32 4 23 2 -10 2 -28 0 -40z
m-426 -132 c1 -23 3 -54 4 -71 23 -231 30 -623 12 -652 -4 -6 -17 -11 -29 -11
-13 0 -30 -1 -38 -3 -12 -3 -14 5 -13 41 2 25 -4 133 -12 240 -8 107 -15 263
-15 346 l0 151 45 0 45 0 1 -41z m207 -317 c3 -73 2 -76 -20 -75 -21 1 -23 -4
-24 -49 -1 -27 -2 -55 -3 -60 -1 -6 -20 -9 -45 -7 -36 3 -45 8 -50 25 -5 22
-20 218 -18 226 1 2 21 5 44 8 23 2 44 6 47 9 3 3 19 4 36 2 l30 -3 3 -76z
m2477 46 c715 -4 1368 -7 1451 -6 83 0 160 -3 172 -6 24 -6 30 -38 10 -46 -7
-2 -380 -5 -828 -6 -448 0 -934 -3 -1080 -6 -520 -9 -2152 -7 -2162 3 -5 5 -8
20 -6 33 2 20 11 25 48 30 25 4 274 7 555 8 280 1 511 4 513 6 2 2 9 2 15 0 7
-2 597 -6 1312 -10z m-2802 -42 c4 -2 7 -35 7 -72 l0 -68 -37 -7 c-59 -9 -213
-5 -268 8 l-50 11 0 50 0 50 110 22 c100 20 209 23 238 6z m4441 -62 c5 -1 6
-4 3 -7 -9 -9 -309 -15 -1077 -21 -344 -3 -679 -9 -745 -13 -66 -5 -257 -11
-425 -14 -168 -4 -550 -11 -850 -18 -300 -6 -642 -12 -760 -12 l-215 -1 -3 29
c-2 16 2 32 10 37 7 5 243 9 523 9 553 0 1727 9 1731 13 2 2 1785 0 1808 -2z
m-4117 -68 c-3 -10 -5 -4 -5 12 0 17 2 24 5 18 2 -7 2 -21 0 -30z m89 -59 l29
-6 5 -151 c2 -84 5 -251 5 -372 l0 -220 -24 -3 c-13 -2 -27 0 -33 6 -12 12
-25 180 -38 481 -12 280 -12 279 56 265z m268 -276 c0 -10 -1 -61 -2 -114 -1
-60 -6 -93 -12 -89 -5 3 -10 22 -10 41 0 27 -4 34 -20 34 -21 0 -23 -5 -20
-62 1 -37 0 -38 -32 -38 -19 0 -46 5 -60 12 -24 12 -26 17 -32 117 -4 65 -2
107 4 111 5 3 49 6 97 5 77 0 88 -2 87 -17z m3774 -17 c2 -13 0 -27 -5 -32 -6
-6 -136 -9 -299 -9 -159 0 -300 0 -314 0 -14 -1 -259 -2 -545 -4 -286 -2 -608
-6 -715 -9 -166 -6 -576 -11 -1655 -20 l-200 -2 0 40 0 40 135 6 c74 3 445 7
825 8 379 1 692 4 694 7 2 2 471 3 1040 2 l1036 -3 3 -24z m-4649 -17 c37 -47
23 -109 -33 -143 -33 -20 -37 -21 -59 -6 -30 19 -47 56 -47 101 0 28 6 38 33
54 45 28 81 26 106 -6z m513 -1 c2 -16 2 -49 0 -74 l-4 -45 -66 -11 c-85 -14
-315 -2 -357 18 -23 11 -31 23 -36 54 -4 22 -3 44 1 48 9 10 45 14 225 22 71
3 131 8 134 10 2 3 26 5 52 5 43 0 47 -2 51 -27z m4127 -70 c19 -16 -54 -22
-319 -28 -168 -4 -307 -8 -310 -10 -3 -2 -235 -6 -515 -9 -281 -4 -537 -8
-570 -11 -81 -6 -569 -20 -1050 -30 -238 -5 -511 -12 -791 -20 -142 -5 -163
-3 -168 11 -9 22 -7 62 2 68 15 9 767 17 2896 32 418 2 762 7 764 9 5 5 53 -5
61 -12z m-4263 -220 c0 -43 1 -145 2 -228 1 -82 -2 -208 -6 -280 l-7 -130 -37
-3 c-29 -3 -38 1 -43 17 -3 11 -8 102 -10 203 -2 101 -7 244 -10 319 -9 167
-5 179 64 179 l48 0 -1 -77z m142 -99 c6 -2 12 -19 12 -39 0 -19 5 -43 11 -53
8 -12 9 -41 5 -85 -7 -62 -9 -67 -31 -67 -13 0 -36 -5 -50 -12 -19 -9 -28 -9
-37 0 -14 14 -28 242 -16 258 8 11 69 10 106 -2z m1242 -36 c8 0 49 0 90 1 41
1 210 2 375 2 165 0 413 0 550 1 138 0 522 -3 855 -7 333 -4 695 -8 805 -9
181 -1 200 -3 203 -19 2 -12 -3 -17 -20 -18 -13 0 -410 -2 -883 -4 -1506 -6
-3101 -22 -3116 -31 -4 -2 -10 -31 -13 -65 -5 -40 -11 -58 -17 -52 -6 6 -6 19
1 37 5 15 7 46 3 68 l-6 41 33 -6 c28 -6 36 -3 64 28 l32 34 389 1 c214 0 391
3 394 6 3 4 60 3 126 0 66 -4 127 -8 135 -8z m-1520 -87 c0 -50 -4 -93 -10
-96 -5 -3 -19 0 -31 8 -14 10 -30 13 -47 8 -15 -5 -79 -8 -143 -7 -138 1 -163
12 -174 77 -4 22 -3 45 2 50 15 15 114 31 238 39 66 4 130 7 143 8 21 2 22 -1
22 -87z m4401 -7 c5 -3 5 -14 0 -26 -9 -25 118 -22 -1246 -32 -429 -4 -906 -8
-1060 -11 -154 -2 -572 -7 -930 -11 -357 -4 -672 -7 -700 -8 -49 -1 -50 0 -48
28 1 16 6 33 10 37 15 15 345 19 2088 24 968 3 1767 7 1775 9 18 4 101 -3 111
-10z m-4048 -179 c-4 -42 -3 -190 3 -468 l7 -288 -44 7 c-24 4 -45 7 -45 8 -3
2 -13 256 -20 482 -4 117 -4 228 0 248 7 37 7 37 54 34 40 -3 47 -6 45 -23z
m280 -337 c-2 -122 -3 -131 -12 -98 -11 41 -39 30 -55 -22 -4 -14 -18 -17 -81
-17 -91 0 -90 0 -97 131 l-4 88 40 9 c23 5 79 9 126 10 l85 1 -2 -102z m1047
79 c239 -4 716 -9 1060 -12 994 -8 1644 -16 1658 -20 6 -3 12 -16 12 -30 l0
-26 -597 3 c-329 1 -677 6 -773 11 -278 14 -378 12 -400 -8 -13 -12 -25 -15
-37 -9 -10 5 -445 8 -966 9 -1036 0 -967 -4 -967 57 0 26 2 27 58 30 85 4 462
2 952 -5z m-1452 -22 c8 -6 2 -139 -6 -147 -13 -13 -312 -13 -387 -1 l-50 8 0
55 0 55 40 14 c57 19 382 33 403 16z m-487 -41 c20 -54 -15 -104 -72 -104 -45
0 -72 29 -63 69 9 38 41 61 85 61 33 0 41 -4 50 -26z m3175 -59 c44 -20 74
-40 74 -49 0 -18 -18 -13 -94 28 -27 14 -57 26 -67 26 -29 0 -22 22 10 29 2 1
37 -15 77 -34z m-157 2 c7 -18 23 -27 65 -37 31 -7 56 -17 56 -21 0 -4 -35 -7
-77 -6 -72 2 -78 1 -76 -18 1 -17 -13 -25 -84 -48 -47 -15 -88 -26 -90 -23
-13 12 49 56 100 70 76 22 76 41 0 32 -66 -8 -64 -2 20 40 76 39 76 39 86 11z
m-941 3 l756 0 -48 -30 c-44 -28 -57 -31 -159 -36 -62 -3 -465 -6 -897 -7
l-785 -2 -3 37 -3 38 178 2 c98 2 184 2 191 1 8 -2 354 -3 770 -3z m2590 -22
c-3 -22 -9 -23 -103 -29 -140 -8 -1127 -11 -1202 -3 -45 5 -70 13 -90 30 l-28
24 713 0 713 0 -3 -22z m-1890 -104 c-1 -9 -23 -32 -48 -51 -60 -44 -69 -48
-83 -34 -14 14 6 31 40 31 14 0 31 14 50 44 27 42 49 48 41 10z m387 5 c43
-20 72 -45 63 -54 -2 -2 -34 5 -71 17 -36 12 -70 19 -74 14 -15 -14 15 -41 53
-48 89 -16 104 -21 116 -35 11 -13 5 -14 -46 -8 -52 7 -59 5 -73 -15 -11 -16
-18 -19 -27 -10 -8 8 -5 16 13 29 13 10 20 20 15 23 -22 10 -125 -1 -192 -21
-88 -27 -140 -25 -77 3 22 10 65 22 95 28 82 16 85 17 72 30 -10 10 -87 1
-151 -18 -9 -3 -3 2 13 12 16 9 61 22 100 29 57 9 70 15 68 28 -4 24 47 22
103 -4z m96 1 c13 -10 19 -19 13 -20 -7 0 -22 9 -35 20 -13 10 -19 19 -13 20
7 0 22 -9 35 -20z m-2820 -49 c3 -73 -2 -139 -17 -248 -13 -87 -14 -130 -6
-197 5 -47 8 -109 6 -138 -2 -29 -6 -81 -8 -115 -2 -33 -7 -66 -10 -72 -4 -6
-27 -11 -52 -11 l-44 0 -2 108 c0 59 -1 230 -1 380 0 298 4 322 52 322 14 0
32 4 40 9 24 15 41 0 42 -38z m2339 -51 c-21 -14 -30 -12 -30 4 0 18 22 27 35
14 6 -6 5 -12 -5 -18z m-89 -31 c54 16 62 7 13 -14 -59 -25 -107 -30 -122 -12
-11 13 -9 18 9 31 21 14 24 14 41 -1 16 -14 24 -14 59 -4z m554 -28 c19 -8 19
-8 0 -18 -11 -6 -37 -8 -60 -4 -36 6 -38 8 -20 19 23 13 51 14 80 3z m104 -4
c17 -21 -25 -53 -94 -73 -68 -18 -93 -20 -108 -5 -16 16 -1 24 20 11 15 -10
28 -8 65 10 26 12 51 20 55 17 14 -8 53 12 53 28 0 18 -5 19 -31 5 -10 -6 -19
-7 -19 -2 0 24 41 30 59 9z m-569 -6 c0 -10 -25 -21 -48 -21 -15 1 -14 3 2 15
22 17 46 20 46 6z m115 -31 c-3 -5 -11 -10 -16 -10 -6 0 -7 5 -4 10 3 6 11 10
16 10 6 0 7 -4 4 -10z m185 -13 c0 -7 -11 -28 -25 -47 -14 -19 -25 -42 -25
-52 0 -22 27 -78 38 -78 4 0 18 -3 31 -7 18 -5 22 -3 16 7 -5 8 -4 11 3 7 14
-10 44 3 39 17 -2 6 36 30 83 53 50 24 99 56 114 74 15 17 29 29 33 26 13 -14
-41 -75 -113 -126 -70 -51 -91 -78 -56 -75 8 1 10 -2 4 -10 -5 -6 -8 -21 -7
-33 1 -12 -3 -19 -8 -16 -5 3 -8 0 -5 -7 8 -24 23 -21 68 9 25 16 47 27 50 24
9 -9 -62 -62 -88 -65 -33 -4 -40 -26 -11 -36 20 -8 18 -11 -30 -41 -29 -17
-56 -29 -62 -26 -5 4 -14 -7 -21 -22 -7 -15 -23 -45 -36 -65 -13 -20 -22 -43
-20 -50 3 -7 -1 -19 -9 -26 -16 -17 -18 -46 -1 -36 8 5 9 2 4 -12 -4 -10 -8
-97 -8 -192 0 -119 -4 -181 -12 -197 -7 -14 -12 -44 -11 -67 4 -67 -25 -149
-74 -215 -29 -39 -50 -41 -80 -9 l-23 25 7 314 c7 339 7 337 69 466 13 27 31
80 40 118 10 37 22 76 27 86 11 20 1 70 -12 61 -5 -3 -9 7 -9 21 0 30 37 108
49 101 4 -3 13 12 20 32 17 52 33 82 43 82 4 0 8 -6 8 -13z m-259 -10 c8 -7
15 -25 15 -42 -1 -35 29 -48 39 -16 4 12 12 18 21 14 8 -3 22 1 32 9 19 17 72
32 72 21 -1 -19 -62 -103 -75 -103 -12 0 -44 -45 -45 -62 0 -27 15 -21 27 10
l11 27 -1 -32 c-1 -18 -6 -33 -13 -33 -6 0 -19 -9 -29 -20 -15 -16 -16 -23 -6
-33 9 -9 14 -9 21 2 12 20 46 -50 36 -75 -6 -16 -8 -16 -29 3 -36 33 -66 46
-81 34 -7 -6 -17 -7 -21 -3 -5 4 -5 2 -2 -4 7 -12 -53 -64 -73 -64 -6 0 -14
10 -19 23 -5 12 -17 40 -27 62 -10 22 -21 48 -25 57 -6 13 -4 16 8 11 11 -4
14 -2 11 8 -3 8 -11 14 -19 14 -8 0 -28 18 -46 41 -17 22 -43 48 -58 58 -25
17 -26 19 -10 36 23 26 98 51 170 57 33 3 62 7 64 9 8 8 36 3 52 -9z m-359
-63 c42 -12 170 -184 182 -243 6 -34 6 -34 -14 -16 -11 10 -20 24 -20 30 0 22
-27 37 -47 26 -10 -5 -34 -13 -54 -16 -39 -6 -76 -35 -46 -35 9 0 27 4 41 10
41 15 85 1 102 -32 8 -16 26 -33 39 -38 29 -11 34 -34 6 -25 -31 10 -35 -14
-8 -53 14 -20 29 -50 33 -67 4 -16 18 -40 31 -52 27 -26 28 -36 8 -94 -11 -31
-14 -62 -10 -104 5 -44 0 -91 -19 -180 -21 -100 -25 -142 -22 -240 2 -66 4
-122 5 -124 0 -2 8 2 17 10 10 8 13 21 9 36 -3 14 1 33 11 48 13 20 19 63 24
180 4 84 11 159 16 166 4 7 10 51 13 97 6 87 23 117 39 70 4 -13 6 -153 3
-313 -4 -159 -2 -337 2 -394 10 -121 2 -151 -39 -151 -15 0 -35 -7 -45 -16
-24 -22 -46 -12 -54 25 -12 58 -49 65 -57 11 -5 -39 -23 -20 -21 23 1 30 -2
37 -17 37 -11 0 -24 9 -30 19 -15 29 -12 183 5 265 16 70 43 184 52 219 4 12
0 17 -16 17 -24 0 -25 5 -10 49 14 41 37 40 41 -1 4 -47 23 -36 23 13 0 56
-23 72 -62 43 -17 -13 -29 -32 -31 -50 -1 -16 -9 -47 -17 -69 -12 -35 -33
-167 -39 -245 -2 -14 -7 -34 -13 -44 -10 -18 -11 -18 -18 5 -4 13 -21 36 -38
50 -25 21 -31 34 -31 65 1 52 30 188 48 222 14 25 15 23 13 -48 -2 -61 1 -75
13 -75 11 0 17 17 21 65 4 36 8 76 10 89 4 26 -18 41 -26 18 -4 -8 -15 -12
-29 -10 -18 4 -25 -3 -39 -34 -9 -21 -21 -57 -27 -80 -10 -39 -13 -42 -43 -40
-54 4 -56 10 -32 84 12 38 20 71 18 76 -9 16 -33 5 -39 -18 -7 -30 -20 -32
-34 -5 -22 41 17 206 66 280 13 19 47 68 75 108 53 73 60 105 14 62 -37 -35
-123 -163 -149 -222 -13 -29 -31 -89 -39 -132 l-17 -80 25 -44 c14 -25 25 -59
25 -76 0 -38 44 -86 78 -86 18 0 22 -6 22 -32 1 -18 7 -44 14 -58 10 -17 11
-30 4 -43 -5 -11 -7 -52 -4 -95 3 -43 6 -119 6 -170 2 -106 19 -284 28 -294 4
-3 24 -10 45 -13 l38 -7 -7 41 c-8 48 -3 51 21 15 16 -25 16 -27 -6 -50 -14
-15 -29 -22 -41 -18 -25 7 -42 -4 -29 -20 8 -9 0 -23 -28 -50 l-39 -38 -16 30
c-28 55 -41 179 -40 390 1 198 0 208 -30 203 -5 -1 -7 36 -4 84 5 75 4 86 -10
83 -25 -5 -31 -53 -38 -313 -5 -196 -3 -254 10 -318 17 -86 36 -133 54 -130 6
2 19 -11 28 -28 15 -30 15 -33 -13 -73 -16 -22 -49 -83 -73 -134 -25 -50 -49
-91 -55 -89 -17 5 -65 108 -65 139 0 44 -28 104 -42 90 -26 -26 38 -227 81
-254 12 -7 21 -16 21 -19 0 -4 -14 -37 -30 -75 l-31 -67 -22 21 c-13 12 -27
22 -33 22 -19 0 -66 95 -104 210 -22 67 -33 260 -20 351 5 35 12 139 16 232
l7 167 -22 0 c-17 0 -21 5 -17 18 3 9 16 62 30 117 14 55 38 150 54 211 17 61
37 154 46 207 10 54 23 116 31 138 19 52 19 59 0 59 -26 0 -29 -9 -86 -275
-11 -49 -35 -148 -55 -220 -66 -240 -84 -329 -105 -530 -20 -195 -21 -386 -2
-499 l6 -40 -33 20 c-45 26 -91 104 -98 162 -2 26 -9 52 -14 59 -10 12 -7 28
28 152 13 46 33 138 45 205 11 67 31 157 45 202 13 44 24 89 24 99 0 25 59
242 115 420 24 77 49 156 54 175 26 91 63 185 88 228 16 26 35 67 42 92 17 58
86 188 116 219 19 20 27 22 38 12 12 -9 21 -7 43 13 33 27 28 44 -7 25 -17 -9
-24 -9 -27 0 -7 22 -41 10 -76 -29 -31 -35 -132 -226 -150 -287 -4 -11 -18
-28 -31 -37 -33 -21 -58 -72 -51 -102 4 -16 -1 -30 -19 -48 -27 -27 -65 -106
-65 -135 0 -10 -3 -21 -7 -25 -15 -14 -63 -162 -63 -193 0 -24 18 -32 24 -10
9 31 46 145 57 177 23 67 32 85 36 74 2 -6 -8 -44 -23 -85 -26 -73 -49 -151
-80 -261 -8 -32 -20 -57 -27 -55 -6 1 -17 -18 -25 -43 -7 -25 -20 -66 -28 -91
-8 -26 -14 -56 -14 -67 0 -11 -15 -71 -34 -133 -19 -63 -37 -138 -40 -167 -6
-49 -51 -237 -61 -252 -2 -4 0 -22 5 -41 8 -27 7 -36 -5 -45 -50 -37 -80 -299
-41 -358 15 -23 20 -25 33 -14 14 11 17 11 21 -1 3 -8 20 -31 38 -51 39 -43
41 -50 17 -50 -33 0 -79 37 -126 100 -60 79 -61 108 -14 320 8 36 17 97 21
135 4 39 16 97 27 130 10 33 28 98 38 145 11 47 24 101 30 120 64 215 81 278
81 297 0 13 6 39 14 57 7 18 17 53 21 77 4 24 25 116 47 204 33 136 49 179
103 285 36 69 81 161 101 205 81 174 167 287 234 305 51 14 87 12 94 -5 6 -17
51 -21 61 -6 3 6 -4 15 -15 21 -51 27 3 36 82 14z m948 -3 c-11 -21 -30 -37
-30 -25 0 8 30 44 37 44 2 0 -1 -9 -7 -19z m-241 -7 c8 -7 -4 -12 -34 -16 -22
-2 -30 2 -33 15 -3 17 0 18 30 12 18 -4 35 -9 37 -11z m-2599 -19 c16 -8 30
-25 32 -37 4 -31 31 -29 38 2 4 16 13 25 25 25 22 0 22 -1 7 -115 -5 -36 -10
-55 -11 -44 -1 27 -23 45 -40 35 -10 -7 -12 -21 -7 -55 l7 -46 -43 -1 c-24 0
-57 -2 -73 -4 l-31 -4 -13 83 c-14 91 -8 151 18 166 24 14 58 12 91 -5z m1300
-15 c129 -2 241 -5 247 -7 8 -3 2 -18 -19 -43 l-32 -38 -673 -1 c-635 -1 -673
0 -672 16 3 60 12 68 79 73 61 5 536 5 1070 0z m2094 -16 c281 -2 536 -6 566
-9 30 -2 74 -4 98 -5 l42 0 0 -69 c0 -58 -3 -71 -18 -75 -25 -8 -882 -13
-1092 -6 -162 5 -175 6 -172 23 2 10 -3 25 -10 34 -11 14 -9 15 17 10 17 -4
302 -8 634 -9 477 -2 605 0 608 10 6 15 34 14 -342 16 -624 4 -865 8 -885 13
-19 5 -20 7 -5 29 8 13 15 31 15 40 0 11 5 14 17 10 9 -4 246 -9 527 -12z
m-613 -23 c-5 -9 -31 -29 -58 -44 -47 -25 -49 -25 -50 -6 -1 12 7 23 20 29 12
5 35 18 51 29 33 22 51 19 37 -8z m-1321 -95 c0 -8 -8 -23 -17 -35 -17 -19
-30 -21 -243 -25 -341 -8 -1038 -8 -1050 -1 -11 7 -14 58 -3 68 3 4 300 7 660
7 551 0 653 -2 653 -14z m1182 -187 c-35 -36 -55 -67 -67 -104 -18 -59 -35
-197 -35 -297 0 -37 -5 -70 -10 -73 -7 -4 -9 29 -5 102 3 59 7 135 9 168 1 33
7 69 13 80 6 11 8 25 6 32 -8 23 28 72 79 107 29 20 55 36 57 36 2 0 -19 -23
-47 -51z m-2590 -34 c-1 -27 -4 -131 -8 -230 -4 -130 -1 -222 10 -329 14 -138
14 -150 -2 -172 -19 -26 -35 -31 -73 -26 -26 4 -26 4 -34 130 -4 70 -7 136 -7
147 1 11 1 56 1 100 0 44 5 144 10 222 6 81 6 155 1 172 -4 16 -5 32 -2 36 3
3 28 5 56 3 l49 -3 -1 -50z m201 -227 c10 -5 27 -6 38 -3 11 4 25 2 32 -3 8
-7 174 -12 447 -14 239 -2 440 -6 447 -11 8 -5 8 -15 0 -37 l-11 -30 -96 -2
c-208 -3 -629 -3 -687 1 -58 3 -62 5 -65 30 -2 15 -9 26 -18 26 -12 0 -15 -15
-15 -76 0 -50 -5 -81 -14 -93 -18 -22 -34 -7 -33 31 0 15 -5 34 -10 41 -18 21
-40 -7 -36 -47 3 -40 -12 -48 -94 -50 -37 -1 -48 3 -53 17 -9 30 -8 213 1 222
19 19 130 17 167 -2z m-345 -87 c1 -117 2 -117 -163 -114 -205 4 -260 24 -245
89 4 19 13 41 19 48 20 24 133 41 362 54 l27 2 0 -79z m-456 43 c22 -22 25
-31 17 -46 -7 -13 -7 -23 0 -32 13 -15 -60 -86 -89 -86 -35 0 -79 29 -86 56
-4 14 -1 43 5 64 10 32 18 41 54 53 59 21 67 21 99 -9z m4453 13 c183 -2 190
-3 190 -22 0 -17 -9 -21 -60 -26 -33 -3 -373 -6 -755 -5 -633 1 -695 2 -698
17 -2 9 4 23 12 31 14 15 154 15 1311 5z m190 -108 l0 -24 -275 -1 c-151 -1
-432 -3 -625 -4 -595 -4 -615 -3 -615 20 0 11 1 21 3 22 2 3 1350 14 1447 12
61 -1 65 -3 65 -25z m-2900 2 c3 -5 1 -20 -4 -34 l-9 -24 -401 -2 c-221 -1
-405 0 -410 3 -4 3 -6 17 -4 30 5 24 9 25 77 28 183 8 746 6 751 -1z m1345
-101 c0 -5 -4 -10 -10 -10 -5 0 -10 5 -10 10 0 6 5 10 10 10 6 0 10 -4 10 -10z
m1 -70 c3 -59 -20 -182 -42 -231 -20 -44 -61 -80 -75 -66 -3 3 6 21 20 40 14
19 26 39 26 45 0 7 4 12 8 12 10 0 42 171 42 220 0 45 19 27 21 -20z m-696
-283 c0 -26 -20 -25 -23 2 -3 16 1 22 10 19 7 -3 13 -12 13 -21z m-648 -69
c-3 -8 -6 -5 -6 6 -1 11 2 17 5 13 3 -3 4 -12 1 -19z m714 -101 c6 -11 6 -24
-1 -37 -5 -10 -10 -41 -10 -69 0 -28 -4 -51 -9 -51 -9 0 -21 123 -20 214 l0
61 16 -50 c8 -27 19 -58 24 -68z m-232 -9 c-1 -57 -2 -59 -9 -25 -6 35 -3 87
6 87 2 0 3 -28 3 -62z m158 30 c-3 -7 -5 -2 -5 12 0 14 2 19 5 13 2 -7 2 -19
0 -25z m10 -48 c1 -11 -2 -22 -8 -25 -5 -4 -9 5 -9 19 0 30 15 35 17 6z m-531
-122 c-4 -68 -12 -154 -17 -192 -15 -110 -2 -303 25 -383 30 -86 45 -121 69
-156 10 -15 17 -37 15 -50 -4 -21 -5 -20 -38 14 -63 64 -85 160 -96 417 -8
181 16 472 39 472 6 0 7 -43 3 -122z m-165 65 c-10 -17 -10 -16 -11 3 0 23 13
41 18 25 2 -6 -1 -18 -7 -28z m-45 -219 c-4 -14 -9 -24 -12 -21 -3 2 -2 17 2
31 3 15 9 25 11 22 3 -3 2 -17 -1 -32z m1346 10 c14 -9 9 -22 -13 -29 -28 -9
-105 25 -87 37 13 8 82 3 100 -8z m-195 -24 c39 -5 86 -18 104 -29 l33 -20
-33 -18 c-72 -40 -125 -79 -172 -126 -48 -49 -50 -49 -69 -32 -11 10 -42 20
-70 23 -28 2 -53 9 -56 14 -3 5 2 8 12 6 12 -2 23 6 29 20 5 12 15 22 22 22
19 0 27 21 12 31 -8 5 -26 9 -41 9 -15 0 -30 5 -33 10 -4 6 -19 9 -33 8 -39
-4 -35 21 7 46 71 41 162 52 288 36z m406 -10 c20 0 37 -4 37 -9 0 -6 -19 -23
-42 -39 l-42 -29 -18 36 c-24 46 -23 55 5 47 12 -3 39 -6 60 -6z m205 -24 c7
-36 -7 -66 -32 -66 -36 0 -59 26 -44 50 13 21 47 40 63 36 6 -1 12 -11 13 -20z
m157 4 c3 -5 2 -10 -3 -10 -8 0 -48 -55 -128 -174 -20 -29 -25 -31 -65 -27
-24 3 -35 7 -24 9 39 8 57 34 52 74 -4 28 -2 35 8 31 17 -6 45 46 45 82 0 24
3 25 54 25 30 0 58 -4 61 -10z m-255 -6 c0 -3 -4 -14 -10 -24 -7 -13 -5 -29 5
-54 15 -36 28 -45 40 -26 11 18 25 10 25 -14 0 -34 -27 -58 -54 -50 -34 10
-42 22 -28 44 14 24 -2 37 -24 19 -18 -15 -10 -68 14 -87 14 -12 3 -13 -73 -7
-49 4 -91 8 -92 9 -8 7 88 127 126 158 42 33 71 47 71 32z m622 -12 c6 -6 2
-22 -15 -48 -13 -22 -31 -61 -40 -88 -29 -84 -22 -82 -221 -76 -96 3 -180 10
-185 15 -7 7 10 39 50 95 33 47 62 93 66 103 5 18 17 19 170 14 91 -2 169 -9
175 -15z m144 -11 c5 -5 27 -11 49 -14 111 -16 185 -35 185 -49 0 -5 -7 -24
-14 -43 -11 -25 -21 -35 -37 -35 -17 0 -20 -4 -15 -24 5 -21 3 -23 -17 -19
-12 3 -30 15 -39 27 -13 16 -20 18 -28 9 -14 -13 1 -47 22 -49 45 -4 75 -32
50 -48 -14 -9 -52 6 -52 20 0 7 -4 15 -9 18 -15 10 -40 -5 -34 -20 3 -8 -1
-14 -10 -14 -8 0 -17 7 -21 15 -8 22 -35 18 -56 -7 l-18 -23 -11 28 c-12 32
-41 36 -48 7 -4 -15 -14 -20 -39 -20 -18 0 -36 5 -39 10 -14 22 66 210 89 210
7 0 27 7 42 15 34 17 37 18 50 6z m-1543 -70 c13 -13 -2 -36 -33 -48 -29 -11
-30 -10 -38 20 -6 21 -5 35 2 40 12 8 56 0 69 -12z m392 8 c4 -5 -1 -19 -11
-31 -18 -19 -18 -20 1 -34 17 -13 14 -14 -31 -13 -27 1 -60 4 -74 8 -24 7 -23
8 24 44 49 37 79 46 91 26z m1437 -21 c-7 -7 -12 -8 -12 -2 0 6 3 14 7 17 3 4
9 5 12 2 2 -3 -1 -11 -7 -17z m219 12 c34 0 49 -4 49 -13 0 -9 -12 -14 -32
-14 -31 0 -107 -9 -154 -19 -13 -2 -30 -20 -42 -42 -23 -45 -15 -78 23 -92 29
-11 34 -30 7 -30 -10 0 -31 21 -50 50 -18 28 -37 50 -41 50 -16 0 -20 -55 -5
-63 16 -9 19 -37 5 -37 -5 0 -21 4 -35 10 -34 12 -33 37 2 100 20 38 32 49 45
46 11 -3 27 5 40 20 16 19 27 23 49 19 22 -5 28 -3 28 10 0 14 6 16 31 11 17
-3 53 -6 80 -6z m-1469 -22 c-7 -7 -12 -8 -12 -2 0 6 3 14 7 17 3 4 9 5 12 2
2 -3 -1 -11 -7 -17z m-692 -14 c6 -14 10 -27 10 -29 0 -7 -81 -17 -87 -11 -7
7 46 66 59 66 5 0 13 -12 18 -26z m578 14 c22 -22 9 -58 -22 -58 -1 0 -2 16
-3 35 -1 37 5 43 25 23z m72 -48 c0 -5 -4 -10 -10 -10 -5 0 -10 5 -10 10 0 6
5 10 10 10 6 0 10 -4 10 -10z m1555 0 c3 -5 -1 -10 -10 -10 -9 0 -13 5 -10 10
3 6 8 10 10 10 2 0 7 -4 10 -10z m-1715 -37 c19 -4 58 -7 85 -7 70 -1 71 -24
8 -102 -27 -32 -57 -72 -66 -87 -13 -20 -23 -26 -37 -22 -20 6 -37 -10 -20
-20 5 -3 10 -11 10 -17 0 -6 -21 -7 -62 -2 -57 6 -111 7 -141 1 -6 -1 -11 7
-12 18 0 11 -7 20 -15 20 -8 0 -14 -8 -14 -17 1 -13 -5 -18 -22 -18 -32 0 -30
16 6 73 16 26 39 66 51 89 12 23 33 57 48 75 25 33 27 33 86 28 33 -3 76 -9
95 -12z m-268 -14 c19 -10 25 -54 8 -64 -6 -4 -20 -25 -31 -47 -20 -39 -21
-40 -38 -22 -12 14 -16 31 -13 63 4 40 1 48 -24 69 l-29 24 54 -7 c30 -3 63
-11 73 -16z m-1021 -40 c10 -56 47 -130 93 -184 57 -67 58 -70 45 -98 -9 -20
-6 -30 21 -70 35 -52 33 -68 -8 -65 -61 5 -190 115 -176 151 3 9 -6 24 -23 36
-26 21 -27 26 -25 94 4 106 29 183 56 174 6 -2 14 -19 17 -38z m719 26 c-7 -8
-18 -15 -24 -15 -7 0 -25 -13 -40 -29 -35 -37 -30 -68 17 -104 24 -18 49 -27
86 -29 28 -2 50 -7 49 -13 -4 -14 -116 -11 -130 3 -20 20 -83 14 -103 -8 -28
-31 -28 -18 0 45 48 103 83 153 113 158 15 2 31 5 36 6 5 0 3 -6 -4 -14z m995
-8 c36 -2 51 -7 53 -18 2 -9 -19 -52 -45 -95 -27 -43 -53 -92 -59 -109 -13
-41 -49 -46 -58 -9 -4 14 -6 27 -4 28 71 44 79 65 50 123 -12 22 -27 45 -35
51 -20 17 -95 8 -127 -17 -42 -31 -55 -26 -31 12 24 38 52 46 141 40 36 -2 87
-5 115 -6z m453 -29 c18 -15 15 -61 -9 -126 -12 -31 -27 -73 -34 -92 -15 -41
-46 -55 -43 -19 2 16 -3 24 -16 27 -16 3 -18 0 -12 -25 l6 -28 -16 23 c-20 27
-32 28 -50 5 -12 -16 -14 -14 -11 16 3 46 -18 50 -38 7 -18 -38 -30 -45 -38
-23 -6 17 3 66 14 73 15 9 10 34 -6 34 -9 0 -21 -12 -27 -27 -10 -27 -12 -36
-16 -75 -1 -11 -10 -18 -22 -18 -12 0 -17 5 -14 14 7 17 -12 30 -33 22 -12 -5
-13 -9 -3 -21 14 -16 10 -18 -35 -15 -92 5 -90 18 40 236 l19 31 165 -4 c92
-3 172 -9 179 -15z m846 -39 c-6 -11 -38 -12 -47 -2 -4 3 1 15 10 25 16 18 18
18 30 2 7 -9 10 -21 7 -25z m-585 6 c192 -3 201 -8 153 -83 -13 -21 -16 -21
-32 -7 -9 8 -24 15 -33 15 -9 0 -28 11 -43 25 -34 32 -75 32 -129 0 -56 -32
-78 -67 -70 -107 5 -22 4 -29 -5 -23 -8 5 -10 24 -5 61 5 45 4 55 -10 60 -24
10 -35 -13 -35 -70 0 -35 -5 -53 -17 -62 -24 -17 -7 -46 35 -59 43 -12 41 -25
-4 -25 -78 0 -89 27 -50 127 13 34 27 81 31 105 9 54 13 61 34 53 9 -4 90 -8
180 -10z m-889 1 c0 -3 -4 -8 -10 -11 -5 -3 -10 -1 -10 4 0 6 5 11 10 11 6 0
10 -2 10 -4z m1418 -42 c28 -3 52 -10 52 -17 0 -6 -15 -56 -34 -111 -19 -56
-37 -114 -41 -129 -5 -26 -8 -27 -43 -21 -20 4 -42 11 -49 16 -7 5 -22 6 -35
2 -30 -10 -221 -4 -229 7 -9 15 27 171 51 219 l22 45 126 -3 c70 -1 151 -5
180 -8z m-1521 -84 c14 -11 34 -20 44 -20 12 0 19 -7 19 -20 0 -12 7 -20 18
-21 27 -2 -39 -16 -80 -18 -21 0 -38 4 -38 10 0 6 10 10 23 9 56 -5 66 14 17
31 -16 6 -30 17 -30 25 0 8 -9 14 -20 14 -13 0 -20 -7 -20 -19 0 -10 -7 -24
-15 -31 -8 -7 -15 -19 -15 -26 0 -14 -21 -19 -32 -8 -3 3 12 35 34 72 60 100
62 102 66 59 2 -25 11 -43 29 -57z m-2729 65 c-10 -11 -48 -14 -53 -4 -4 5 8
9 26 9 18 0 30 -2 27 -5z m1097 -80 c0 -78 1 -82 43 -143 24 -35 41 -66 38
-69 -2 -3 -26 -6 -52 -7 -28 0 -49 -6 -52 -13 -2 -8 5 -13 17 -13 12 0 21 -5
21 -11 0 -8 -17 -9 -54 -5 -33 5 -57 3 -60 -3 -11 -18 11 -21 164 -26 84 -3
158 -9 166 -13 15 -8 7 -9 -306 -17 -113 -3 -229 -8 -258 -9 -43 -3 -54 -1
-63 15 -9 17 -22 19 -124 19 -62 0 -116 -4 -119 -8 -7 -12 7 -29 29 -34 33 -7
-124 -8 -210 -2 -53 5 -73 9 -60 14 11 4 41 5 67 3 55 -7 87 2 70 19 -12 12
-26 14 -155 24 -97 7 -160 -1 -154 -19 2 -7 30 -13 70 -15 76 -3 93 -21 20
-20 -27 1 -85 -2 -130 -7 -79 -7 -82 -6 -80 14 1 12 6 21 13 21 6 0 17 7 24
15 10 12 5 16 -34 26 -25 6 -44 16 -43 21 1 6 -3 12 -8 14 -13 5 -39 -52 -30
-66 4 -6 -12 -10 -44 -10 -54 0 -59 5 -36 36 8 10 15 28 15 39 0 11 6 31 13
46 8 14 13 32 12 40 -2 8 7 35 19 60 19 40 24 44 56 44 28 0 35 4 35 20 0 16
6 20 33 17 23 -1 32 2 32 13 0 8 -5 15 -12 15 -32 0 10 15 55 20 42 4 51 8 49
22 -2 15 35 16 510 15 l513 -2 0 -80z m2643 73 c7 -7 12 -18 12 -25 0 -11 -6
-10 -29 2 -33 16 -65 10 -95 -20 -20 -21 -34 -12 -16 10 31 38 104 57 128 33z
m73 -41 c-1 -12 -15 -9 -19 4 -3 6 1 10 8 8 6 -3 11 -8 11 -12z m-1596 -38
c-17 -32 -38 -34 -43 -6 -2 10 6 21 20 26 37 15 39 13 23 -20z m-692 -111 c18
-26 39 -50 48 -53 23 -8 62 -52 56 -62 -4 -5 -24 -7 -45 -4 -31 5 -48 16 -76
49 -20 24 -36 54 -36 67 0 12 -2 44 -5 71 l-5 49 16 -35 c8 -19 30 -56 47 -82z
m-1742 79 c-10 -9 -11 -8 -5 6 3 10 9 15 12 12 3 -3 0 -11 -7 -18z m2165 1
c-1 -19 -11 -25 -66 -40 -36 -9 -66 -17 -67 -18 -7 -1 -2 37 7 50 7 11 12 12
20 4 9 -9 21 -7 48 7 49 24 59 23 58 -3z m221 -2 c17 -18 17 -18 -7 -12 -14 3
-56 6 -95 6 -58 1 -67 3 -54 13 27 20 135 15 156 -7z m1668 -41 c-9 -31 -18
-62 -21 -66 -9 -16 -84 -11 -84 5 0 8 -3 21 -6 29 -8 21 27 27 48 9 19 -16 42
-7 34 15 -5 12 33 78 41 70 1 -2 -4 -30 -12 -62z m459 -37 c-16 -36 -16 -39 1
-58 14 -16 16 -23 7 -32 -9 -9 -15 -9 -26 2 -16 17 -7 113 16 166 l12 29 4
-34 c2 -19 -4 -52 -14 -73z m-1781 58 c67 -10 69 -15 29 -95 -61 -119 -101
-208 -113 -249 -7 -23 -17 -47 -24 -52 -19 -16 -70 4 -73 28 -3 19 1 22 31 22
23 0 37 6 41 16 9 22 -11 44 -40 44 -19 0 -24 5 -24 23 0 20 5 24 30 25 38 1
118 56 126 86 3 13 4 40 2 61 -3 37 -6 40 -62 62 -50 20 -63 22 -92 13 -19 -7
-42 -23 -51 -36 -8 -13 -21 -24 -28 -24 -7 0 -27 -16 -44 -35 -25 -28 -30 -42
-25 -63 9 -37 32 -61 68 -70 18 -5 32 -16 34 -26 6 -31 -12 -37 -56 -19 -40
15 -44 15 -59 0 -25 -24 -1 -45 55 -49 43 -3 47 -5 50 -30 l3 -28 -101 0 -102
0 7 38 c11 60 85 273 111 319 15 26 32 43 47 45 39 6 200 2 260 -6z m1101 -11
c16 -12 17 -15 4 -15 -8 0 -21 7 -28 15 -16 19 -1 19 24 0z m-1460 -26 c5 -5
5 -13 -1 -21 -14 -17 -53 -142 -53 -167 0 -11 -4 -22 -9 -25 -4 -3 -11 -24
-15 -47 -10 -62 -21 -77 -51 -72 -26 6 -30 18 -26 79 3 45 -14 50 -50 15 -17
-17 -39 -31 -49 -31 -23 0 -33 -25 -15 -40 11 -9 17 -7 27 9 7 12 21 21 31 21
11 0 15 -4 11 -12 -4 -6 1 -17 10 -24 16 -11 16 -13 -1 -18 -10 -3 -35 -8 -56
-12 -32 -5 -36 -4 -31 10 7 18 -20 23 -31 6 -12 -19 -22 -10 -17 15 3 18 0 25
-11 25 -21 0 -32 -19 -19 -32 15 -15 2 -48 -19 -48 -11 0 -22 -7 -25 -15 -7
-17 -34 -21 -34 -4 0 20 21 154 37 238 14 74 19 85 47 102 80 50 314 82 350
48z m751 1 c10 -17 -5 -33 -20 -20 -14 12 -38 5 -77 -24 -30 -21 -37 -46 -13
-46 8 0 15 -7 15 -16 0 -12 7 -14 30 -9 37 8 38 -4 11 -68 -16 -36 -24 -44
-39 -40 -11 2 -23 0 -26 -6 -4 -6 -16 -11 -28 -11 -16 0 -19 -5 -15 -21 8 -30
-2 -49 -30 -60 -33 -12 -70 -2 -76 22 -7 25 -37 25 -37 0 0 -15 -10 -20 -47
-26 -27 -4 -56 -11 -65 -16 -26 -14 -32 7 -14 47 9 18 22 49 30 67 8 17 35 76
59 129 l45 97 69 3 c183 8 222 8 228 -2z m290 -19 c170 -5 190 -8 193 -23 2
-12 -6 -21 -24 -28 -24 -10 -25 -12 -11 -28 14 -15 14 -23 1 -72 -8 -30 -17
-81 -21 -112 -4 -42 -10 -58 -21 -58 -11 0 -12 3 -3 14 15 18 4 86 -14 86 -7
0 -15 -9 -18 -21 -4 -16 -12 -20 -33 -17 -45 5 -38 23 16 37 80 21 102 83 54
153 -32 45 -51 52 -104 38 -22 -6 -46 -10 -53 -9 -49 6 -73 -3 -96 -36 l-23
-35 20 -40 c18 -36 18 -41 4 -38 -10 2 -23 17 -31 35 -26 58 -76 52 -54 -6 10
-26 8 -31 -18 -50 -52 -39 -23 -80 33 -48 28 16 28 16 28 -13 0 -36 32 -50 59
-26 16 15 19 15 31 1 7 -8 22 -16 34 -16 11 -1 3 -5 -19 -9 -46 -9 -207 -6
-247 5 -26 7 -26 7 -12 47 8 22 14 50 14 61 0 27 50 176 68 205 12 18 20 22
36 16 12 -4 106 -10 211 -13z m-790 -1 c4 -7 -6 -10 -29 -8 -19 1 -32 6 -30
10 7 12 52 10 59 -2z m54 -36 c3 -16 1 -17 -13 -5 -19 16 -21 34 -3 29 6 -3
14 -13 16 -24z m1236 16 c4 -6 -6 -10 -24 -10 -16 0 -33 5 -36 10 -4 6 6 10
24 10 16 0 33 -4 36 -10z m-805 -25 c0 -10 -10 -15 -32 -15 -31 1 -32 1 -14
15 25 19 46 19 46 0z m675 -15 c55 -5 131 -9 168 -10 48 0 69 -4 73 -14 5 -12
-12 -77 -37 -146 -14 -37 -19 -129 -9 -155 11 -28 24 -31 232 -46 121 -9 169
-16 172 -26 3 -7 -1 -46 -9 -86 -7 -39 -17 -102 -20 -139 l-6 -67 -52 6 c-29
3 -53 7 -55 8 -2 2 9 15 23 31 14 15 23 34 20 42 -3 8 -1 20 5 27 8 9 8 15 0
20 -18 11 -28 -4 -26 -40 2 -19 -1 -35 -7 -35 -6 0 -34 -11 -64 -26 -43 -20
-67 -25 -121 -23 -37 1 -78 6 -90 11 -23 8 -24 11 -18 89 3 44 10 88 16 99 15
29 13 110 -4 116 -8 3 -16 14 -19 25 -4 13 -14 19 -34 19 -15 0 -86 3 -158 6
-162 6 -173 12 -170 86 3 56 19 139 34 173 5 11 12 33 16 48 4 22 10 27 23 22
9 -3 62 -10 117 -15z m-4155 -10 c0 -5 -4 -10 -9 -10 -6 0 -13 5 -16 10 -3 6
1 10 9 10 9 0 16 -4 16 -10z m2289 -16 c11 -15 18 -30 15 -35 -5 -9 -74 40
-74 54 0 17 40 5 59 -19z m1582 5 c10 -20 9 -21 -12 -16 -13 4 -35 7 -48 7
-20 0 -21 2 -11 15 18 22 57 19 71 -6z m667 1 c42 0 41 -16 -3 -30 -34 -11
-61 -41 -48 -54 3 -3 1 -23 -6 -44 -11 -33 -11 -43 3 -71 15 -28 15 -33 1 -47
-8 -8 -16 -12 -16 -7 -1 4 -2 15 -3 23 -2 21 -36 26 -36 5 0 -20 -36 -69 -43
-58 -8 14 10 127 26 165 11 26 21 36 30 32 22 -8 33 17 13 28 -19 11 -22 54
-3 62 6 3 21 3 32 1 11 -3 35 -5 53 -5z m256 -16 c20 -8 21 4 -9 -189 -8 -55
-18 -108 -21 -117 -6 -20 -33 -22 -99 -9 l-40 8 28 11 c16 7 38 12 50 12 20 0
47 36 47 62 0 17 -32 7 -37 -12 -3 -11 -12 -20 -19 -20 -23 0 -16 19 21 56 31
31 35 40 35 87 0 29 -4 57 -8 63 -13 20 -52 35 -74 29 -23 -8 -70 13 -62 27 7
10 157 4 188 -8z m-4799 -34 c3 -5 -1 -10 -10 -10 -9 0 -13 5 -10 10 3 6 8 10
10 10 2 0 7 -4 10 -10z m1820 0 c3 -5 -3 -10 -15 -10 -12 0 -18 5 -15 10 3 6
10 10 15 10 5 0 12 -4 15 -10z m2773 -7 c-4 -19 -53 -41 -65 -29 -10 9 33 46
54 46 8 0 13 -7 11 -17z m282 7 c8 -5 11 -12 7 -16 -4 -4 -2 -13 4 -21 9 -10
8 -13 -6 -13 -9 0 -15 -6 -12 -12 2 -7 10 -12 18 -11 11 2 14 -10 14 -47 0
-36 -4 -49 -12 -45 -7 2 -13 0 -13 -4 0 -5 7 -12 16 -15 15 -6 15 -8 -1 -26
-18 -20 -18 -21 0 -34 32 -23 12 -48 -37 -44 -47 3 -48 7 -35 93 2 17 7 64 11
105 11 106 13 111 46 90z m-3130 -10 c0 -5 -2 -10 -4 -10 -3 0 -8 5 -11 10 -3
6 -1 10 4 10 6 0 11 -4 11 -10z m2920 -20 c0 -5 -2 -10 -4 -10 -3 0 -8 5 -11
10 -3 6 -1 10 4 10 6 0 11 -4 11 -10z m-2365 -19 c16 -27 -63 -38 -172 -25
-57 7 -70 20 -25 27 55 8 191 7 197 -2z m-2328 -7 c-3 -3 -12 -4 -19 -1 -8 3
-5 6 6 6 11 1 17 -2 13 -5z m3753 -24 c0 -12 10 -25 25 -32 26 -12 31 -23 16
-32 -17 -11 -40 6 -60 45 -21 39 -21 39 -1 39 13 0 20 -7 20 -20z m-2590 -4
c0 -3 -4 -8 -10 -11 -5 -3 -10 -1 -10 4 0 6 5 11 10 11 6 0 10 -2 10 -4z m430
-26 c0 -6 -23 -9 -52 -8 l-53 1 45 7 c25 4 48 8 53 8 4 1 7 -2 7 -8z m50 6 c0
-3 -4 -8 -10 -11 -5 -3 -10 -1 -10 4 0 6 5 11 10 11 6 0 10 -2 10 -4z m83 -3
c-7 -2 -21 -2 -30 0 -10 3 -4 5 12 5 17 0 24 -2 18 -5z m465 -3 c75 -2 101 -5
93 -13 -22 -22 -441 -9 -441 13 0 7 69 7 348 0z m-745 -11 c-19 -6 -40 -5 -55
0 -18 8 -12 10 32 9 50 0 52 -1 23 -9z m-753 -10 c0 -5 -17 -9 -37 -9 -25 0
-33 3 -24 9 17 11 61 11 61 0z m155 1 c22 -5 6 -8 -53 -9 -53 -1 -81 3 -77 9
7 11 85 11 130 0z m492 4 c-3 -3 -12 -4 -19 -1 -8 3 -5 6 6 6 11 1 17 -2 13
-5z m2106 -14 c-6 -23 -23 -26 -41 -8 -19 19 -14 28 17 28 24 0 28 -3 24 -20z
m-3099 2 c19 -10 -24 -17 -81 -13 -45 3 -53 6 -33 12 28 8 100 9 114 1z m41
-2 c3 -5 -1 -10 -9 -10 -9 0 -16 5 -16 10 0 6 4 10 9 10 6 0 13 -4 16 -10z
m208 3 c-13 -2 -35 -2 -50 0 -16 2 -5 4 22 4 28 0 40 -2 28 -4z m-116 -9 c-3
-3 -12 -4 -19 -1 -8 3 -5 6 6 6 11 1 17 -2 13 -5z m1128 -33 c-8 -36 9 -73 30
-65 8 4 15 18 16 33 0 24 1 25 9 5 5 -12 13 -25 18 -28 17 -10 35 23 28 54 -5
25 -2 30 14 30 16 0 19 -5 15 -23 -4 -15 0 -28 10 -37 15 -12 19 -12 31 5 12
16 12 21 -2 37 -16 16 -15 17 18 16 29 -1 37 -6 46 -30 13 -36 48 -36 45 0 -2
15 3 22 13 22 12 0 15 -6 10 -22 -3 -13 -6 -31 -6 -40 0 -11 -5 -15 -14 -12
-19 7 -30 -14 -28 -49 l2 -28 -124 2 c-122 2 -125 2 -130 25 -4 16 -14 24 -28
24 -11 0 -26 6 -32 14 -6 8 -27 16 -46 18 -35 3 -35 3 -38 -39 -4 -49 -27 -59
-50 -22 l-13 21 -22 -20 c-18 -17 -24 -18 -34 -7 -18 19 -5 72 18 78 11 3 19
14 19 27 l0 22 19 -23 c15 -19 21 -21 34 -11 8 7 21 10 30 6 13 -5 29 9 33 29
1 4 2 9 3 12 0 3 26 5 57 5 l56 0 -7 -29z m55 25 c0 -3 -4 -8 -10 -11 -5 -3
-10 -1 -10 4 0 6 5 11 10 11 6 0 10 -2 10 -4z m-362 -12 c18 -3 32 -11 32 -19
0 -8 -7 -11 -21 -8 -19 5 -21 3 -17 -26 3 -17 1 -34 -4 -37 -4 -3 -8 5 -8 18
0 14 -6 33 -14 44 -12 15 -17 17 -27 7 -10 -10 -10 -16 -2 -24 7 -7 9 -27 6
-48 -8 -50 -23 -63 -23 -19 0 37 -21 65 -40 53 -6 -4 -10 -12 -9 -18 1 -7 1
-23 0 -37 -2 -25 -2 -25 -11 -2 -9 21 -30 29 -43 15 -4 -3 -22 -8 -41 -10 -19
-2 -46 -10 -61 -17 -37 -19 -58 -14 -73 17 -16 32 -32 35 -39 7 -8 -30 -24
-24 -21 9 3 35 -19 66 -37 51 -6 -5 -15 -6 -19 -2 -4 4 -20 8 -34 8 -15 1 -42
4 -59 7 -28 5 -33 3 -33 -13 0 -10 7 -23 16 -28 18 -10 16 -53 -2 -59 -7 -2
-10 6 -6 23 3 19 1 25 -7 20 -13 -9 -51 2 -51 14 0 4 8 7 18 6 13 -1 16 5 14
25 l-2 27 92 4 c88 4 94 3 113 -19 12 -13 32 -23 48 -23 16 0 27 -5 27 -14 0
-25 29 -26 45 -2 14 21 20 23 52 15 20 -4 42 -5 47 -1 6 3 17 7 25 7 8 0 19 9
25 20 6 11 15 23 19 26 10 7 81 9 125 3z m-664 -10 c16 -6 22 -35 10 -47 -4
-3 -15 -2 -25 3 -22 12 -30 1 -31 -43 -1 -17 -3 -26 -5 -19 -3 6 -8 10 -13 7
-9 -6 -21 72 -13 91 5 14 49 19 77 8z m386 -4 c0 -5 -2 -10 -4 -10 -3 0 -8 5
-11 10 -3 6 -1 10 4 10 6 0 11 -4 11 -10z m1281 4 c4 -2 5 -13 2 -24 -3 -11
-9 -17 -14 -14 -5 3 -7 9 -4 14 3 5 1 11 -4 15 -13 8 -42 -37 -44 -69 -3 -44
-22 -34 -27 14 -3 31 -10 45 -20 45 -10 0 -17 -14 -21 -45 l-5 -45 -9 43 c-7
39 -10 42 -41 42 -37 0 -49 -21 -38 -64 4 -16 2 -26 -5 -26 -6 0 -14 0 -18 0
-4 0 -6 17 -4 38 2 39 -18 70 -37 58 -6 -3 -15 0 -21 8 -10 11 14 14 146 14
86 1 160 -1 164 -4z m-2021 -36 c0 -5 9 -8 19 -5 23 6 38 -20 21 -37 -5 -5
-10 -20 -10 -33 0 -28 -26 -41 -43 -23 -9 10 -9 14 1 17 6 3 12 12 12 20 0 14
-3 13 -21 -3 -12 -10 -29 -18 -39 -16 -9 1 -23 -4 -30 -13 -18 -22 -30 -19
-30 8 1 28 22 57 43 57 8 0 20 14 26 31 9 26 13 29 31 19 11 -6 20 -16 20 -22z
m177 15 c4 -10 14 -23 22 -30 11 -9 12 -12 3 -13 -7 0 -20 -16 -29 -35 -19
-40 -46 -48 -39 -12 3 16 -3 28 -16 36 -17 10 -20 9 -25 -9 -4 -15 -9 -18 -18
-10 -17 14 13 79 38 80 15 0 16 -3 7 -20 -7 -14 -7 -20 0 -20 5 0 10 6 10 13
0 15 20 37 32 37 5 0 12 -8 15 -17z m3403 7 c0 -6 -11 -8 -27 -4 -40 10 -41
14 -5 14 18 0 32 -5 32 -10z m753 -17 c18 -10 43 -18 57 -18 14 0 26 -4 27
-10 4 -17 -73 -9 -100 11 -24 18 -35 34 -22 34 4 0 20 -8 38 -17z m-1166 -10
c4 -9 -2 -65 -12 -123 -10 -58 -23 -139 -29 -180 -9 -60 -15 -75 -30 -78 -31
-6 -38 12 -16 41 38 48 -12 68 -54 22 -29 -31 -33 -31 -56 -3 -23 28 -17 38
21 38 40 0 116 70 125 115 9 49 -2 71 -44 88 -21 9 -44 22 -51 31 -15 18 -47
21 -56 6 -4 -6 -24 -19 -46 -30 -21 -11 -39 -25 -39 -31 0 -6 -14 -28 -32 -50
-28 -35 -30 -42 -19 -65 6 -15 28 -33 51 -42 36 -15 55 -42 30 -42 -5 0 -10 4
-10 9 0 16 -99 6 -117 -11 -17 -18 -9 -42 12 -34 15 5 55 -20 55 -36 0 -14
-76 -4 -96 13 -17 14 -16 55 7 224 18 134 9 121 96 137 43 8 129 15 191 16 98
2 114 0 119 -15z m-1490 -25 c-3 -7 -5 -2 -5 12 0 14 2 19 5 13 2 -7 2 -19 0
-25z m-1178 -52 c-5 -6 -9 7 -8 35 l1 44 8 -35 c5 -20 5 -39 -1 -44z m1888 34
c3 -58 -4 -66 -32 -40 -19 17 -39 24 -88 27 -62 4 -63 4 -119 -41 -48 -40 -55
-50 -50 -74 2 -15 9 -32 14 -39 5 -6 11 -24 14 -39 6 -34 21 -54 41 -54 8 0
11 -5 7 -11 -4 -6 -20 -8 -40 -4 -60 11 -100 -29 -63 -64 l20 -18 -21 -6 c-13
-3 -23 0 -27 9 -3 7 -3 74 -1 148 3 117 6 137 23 156 25 29 86 56 145 65 25 4
52 11 60 16 8 5 38 8 65 6 50 -2 50 -2 52 -37z m1244 23 c5 -5 2 -62 -6 -128
-8 -66 -15 -141 -15 -167 0 -26 -3 -49 -7 -51 -5 -3 -41 -7 -82 -8 -59 -3 -75
-1 -78 11 -12 42 -13 43 -28 30 -8 -7 -15 -20 -15 -29 0 -14 -15 -17 -92 -19
-51 -1 -105 1 -120 4 -26 5 -28 9 -28 52 0 38 40 266 54 308 5 12 405 9 417
-3z m681 -31 c-41 -4 -43 -2 -36 25 l6 21 32 -22 33 -21 -35 -3z m-1673 28
c96 -1 97 -4 77 -172 -9 -79 -16 -146 -16 -149 0 -11 -132 -17 -209 -11 -84 8
-108 26 -78 59 13 15 17 44 19 143 l3 125 45 6 c25 4 58 5 74 3 16 -2 54 -4
85 -4z m1073 -11 c5 -16 80 -26 211 -28 66 -1 125 -5 132 -7 22 -9 26 -51 11
-112 -7 -31 -14 -80 -15 -108 -1 -28 -5 -64 -10 -80 -7 -25 -13 -29 -40 -28
-60 3 -66 11 -32 43 32 30 41 61 17 61 -7 0 -21 -11 -30 -25 -19 -29 -35 -31
-76 -10 -37 19 -38 30 -2 43 15 5 45 25 65 44 31 29 37 42 37 76 0 36 -4 42
-37 62 -20 11 -48 20 -62 19 -14 -1 -38 1 -54 6 -18 5 -35 2 -51 -8 -21 -14
-24 -24 -24 -79 0 -54 3 -67 26 -90 32 -34 21 -49 -19 -25 -38 21 -49 21 -49
0 0 -9 -10 -27 -22 -40 -16 -17 -19 -26 -11 -34 6 -6 9 -18 6 -26 -10 -26 19
-33 117 -32 98 2 184 -7 210 -22 10 -6 3 -8 -23 -9 -31 0 -39 -5 -47 -25 -11
-30 -18 -31 -36 -7 -10 13 -15 14 -24 5 -7 -7 -9 -17 -4 -25 5 -7 7 -20 6 -30
-4 -21 16 -34 31 -19 20 20 38 13 31 -13 -6 -26 12 -44 28 -28 5 5 11 29 12
52 2 38 16 59 40 60 4 0 5 -12 2 -26 -4 -14 -9 -65 -11 -113 -2 -48 -9 -100
-14 -114 -12 -31 -11 -30 -161 -27 -58 1 -148 3 -200 5 -93 1 -114 10 -71 30
23 11 26 24 11 74 -22 78 0 207 42 241 18 14 22 26 19 63 -3 63 19 245 35 285
13 32 29 42 36 21z m536 -7 c3 -9 -2 -13 -14 -10 -9 1 -19 9 -22 16 -3 9 2 13
14 10 9 -1 19 -9 22 -16z m-4048 -38 c0 -8 -5 -12 -10 -9 -6 4 -8 11 -5 16 9
14 15 11 15 -7z m-450 -32 c0 -14 -8 -19 -30 -20 -17 0 -28 4 -25 9 4 5 15 9
26 9 10 0 19 5 19 10 0 6 2 10 5 10 3 0 5 -8 5 -18z m3338 -25 c4 -31 -12 -36
-28 -8 -15 29 -12 43 8 39 10 -2 18 -14 20 -31z m1559 16 c3 -8 -6 -10 -30 -6
-23 3 -38 0 -50 -11 -22 -22 -27 -20 -27 10 0 24 2 25 52 22 29 -2 53 -8 55
-15z m-837 -3 c0 -5 -5 -10 -11 -10 -5 0 -7 5 -4 10 3 6 8 10 11 10 2 0 4 -4
4 -10z m111 0 c20 -11 26 -40 9 -40 -6 0 -25 7 -43 17 -29 15 -30 17 -12 24
11 4 21 8 23 8 2 1 12 -4 23 -9z m-2551 -8 c0 -4 21 -7 48 -6 26 1 163 5 304
9 250 6 257 6 267 -14 14 -25 15 -124 1 -116 -6 3 -14 -5 -19 -18 -9 -22 -15
-24 -94 -25 -80 -2 -85 -1 -92 20 -4 13 -7 26 -6 31 1 4 -3 7 -9 7 -14 0 -13
-23 2 -38 9 -9 7 -13 -6 -18 -11 -4 -22 -1 -27 7 -6 10 -9 10 -9 2 0 -7 -7
-13 -15 -13 -9 0 -15 9 -15 25 0 14 -5 25 -10 25 -6 0 -9 -12 -8 -27 3 -26 1
-28 -37 -29 -53 -1 -65 4 -59 24 3 9 -1 7 -7 -5 -14 -26 -52 -33 -43 -8 4 8
11 12 18 8 6 -3 5 0 -2 8 -11 12 -15 11 -27 -5 -9 -12 -21 -17 -35 -13 -11 3
-18 1 -14 -4 3 -5 -8 -9 -24 -9 -31 0 -57 21 -44 35 4 4 -3 2 -16 -4 -12 -7
-28 -9 -34 -5 -7 4 -8 3 -4 -4 8 -14 14 -13 -86 -18 -43 -2 -78 -1 -78 2 0 3
5 14 10 25 8 15 7 19 -5 19 -8 0 -15 -5 -15 -10 0 -7 -6 -7 -20 0 -14 8 -20 8
-20 0 0 -6 7 -13 15 -16 19 -8 10 -24 -13 -24 -15 0 -15 2 -2 10 13 8 12 10
-2 10 -10 0 -18 -4 -18 -9 0 -29 -63 -19 -98 16 -20 19 -34 16 -27 -7 9 -28
-17 -35 -57 -16 -29 15 -34 15 -44 1 -7 -9 -27 -15 -54 -15 -37 0 -42 2 -37
20 4 15 0 20 -15 20 -17 0 -19 5 -14 28 l6 27 -15 -27 c-12 -22 -23 -28 -50
-28 -23 0 -39 -7 -48 -21 -10 -14 -17 -17 -22 -9 -4 6 -13 9 -21 6 -8 -3 -14
-1 -14 5 0 6 -8 9 -17 7 -10 -2 -18 -8 -18 -15 0 -6 -3 -15 -7 -19 -5 -4 -8
-2 -8 4 0 7 -13 12 -29 12 -16 0 -37 7 -45 16 -15 14 -16 14 -16 -5 0 -11 -5
-23 -12 -27 -10 -7 -9 25 4 75 1 7 -3 16 -10 18 -7 3 -15 -7 -18 -26 -4 -21
-16 -36 -37 -46 -37 -19 -37 -19 -37 1 0 10 6 14 14 11 8 -3 22 1 33 8 10 8
13 15 7 15 -5 0 -19 7 -30 16 -16 13 -16 15 -2 10 10 -3 20 0 24 7 4 7 4 9 -1
5 -4 -4 -14 -3 -22 4 -19 15 -30 1 -16 -22 10 -14 9 -21 -3 -31 -12 -10 -18
-8 -30 7 -13 16 -15 16 -10 2 3 -10 1 -20 -5 -23 -5 -4 -7 -10 -4 -15 3 -5 1
-11 -5 -15 -5 -3 -10 -2 -10 4 0 5 -3 17 -7 27 -5 12 -3 15 6 9 9 -5 12 -2 9
9 -4 20 -23 22 -23 4 0 -7 -6 -13 -12 -12 -7 1 -25 2 -39 3 -18 1 -24 5 -21
15 4 11 1 13 -10 9 -9 -4 -22 2 -32 16 -17 22 -17 22 -39 3 -12 -11 -22 -25
-22 -31 0 -8 -8 -10 -22 -6 -16 6 -20 4 -15 -7 3 -8 -4 -23 -15 -33 -21 -17
-68 -28 -68 -15 0 4 -11 5 -25 2 -21 -4 -24 -1 -19 14 11 32 34 45 58 32 11
-6 24 -16 28 -22 5 -7 11 -7 20 3 10 10 10 12 1 7 -15 -8 -18 10 -3 19 21 13
9 26 -22 23 -30 -3 -33 -1 -33 25 1 15 -3 27 -7 27 -4 0 -5 6 -2 14 5 12 11
12 40 -5 38 -21 64 -15 83 19 9 16 11 16 25 -3 11 -14 14 -15 10 -4 -3 11 2
18 15 22 18 4 20 1 15 -18 -4 -18 -1 -23 20 -27 19 -4 26 -1 26 10 0 12 2 12
17 1 10 -9 14 -9 10 -2 -5 7 2 18 15 27 18 12 62 15 205 15 101 0 185 -4 188
-9 7 -11 68 -5 72 7 2 5 22 7 44 5 22 -3 46 1 52 7 7 7 14 7 24 0 7 -7 13 -7
13 -2 0 6 51 10 126 11 69 0 127 2 129 4 8 8 255 9 255 0z m3250 -27 c0 -8 -7
-15 -15 -15 -16 0 -20 12 -8 23 11 12 23 8 23 -8z m-4760 -20 c10 -12 16 -13
26 -4 11 9 14 8 14 -1 0 -7 7 -10 15 -6 8 3 21 -1 29 -9 11 -11 15 -12 19 -2
2 6 4 -2 3 -20 -1 -23 -7 -35 -24 -43 -24 -11 -25 -6 -5 46 2 6 -7 14 -21 16
-15 3 -26 1 -26 -5 0 -7 -4 -7 -12 1 -7 7 -19 12 -28 12 -9 0 -17 7 -17 15 0
19 11 19 27 0z m-57 -52 c-7 -3 -13 -11 -13 -19 0 -8 -5 -14 -12 -14 -6 0 -8
3 -5 7 4 3 2 12 -5 20 -8 11 -7 12 5 8 8 -4 18 -1 22 5 4 6 10 8 14 4 3 -4 0
-9 -6 -11z m2583 -26 c-3 -18 -8 -54 -12 -82 l-7 -50 -8 40 c-4 25 -3 45 4 53
13 16 -6 32 -38 32 -15 0 -12 5 15 24 42 29 52 25 46 -17z m-2551 3 c-3 -5 -1
-10 4 -10 6 0 11 -7 11 -15 0 -9 6 -12 15 -9 8 4 15 1 15 -5 0 -16 -37 -13
-44 4 -3 9 -12 12 -21 8 -12 -4 -13 -8 -5 -13 14 -8 4 -50 -11 -50 -19 0 -13
55 9 81 17 20 38 27 27 9z m315 -17 c0 -22 -17 -50 -25 -42 -5 6 14 59 22 59
1 0 3 -8 3 -17z m2100 8 c0 -5 -7 -14 -15 -21 -13 -10 -15 -9 -15 9 0 12 6 21
15 21 8 0 15 -4 15 -9z m2335 -77 c56 -21 59 -39 6 -30 -28 4 -42 2 -51 -9
-10 -12 -10 -16 1 -19 8 -2 21 -7 29 -9 8 -3 -2 -6 -22 -6 l-38 -1 0 53 c0 57
9 77 22 53 4 -8 28 -22 53 -32z m-4295 10 c0 -2 -7 -4 -15 -4 -8 0 -15 4 -15
10 0 5 7 7 15 4 8 -4 15 -8 15 -10z m1995 -24 c0 -11 -16 -17 -55 -22 -30 -4
-73 -10 -95 -14 l-40 -6 27 21 c14 11 34 21 45 21 10 0 25 5 33 10 23 15 85 8
85 -10z m681 -38 c-32 -2 -61 -1 -64 3 -3 3 5 16 17 29 l23 25 41 -27 41 -27
-58 -3z m-1029 42 c-3 -3 -12 -4 -19 -1 -8 3 -5 6 6 6 11 1 17 -2 13 -5z
m1853 -6 c17 -11 22 -10 29 1 7 10 13 11 30 2 39 -21 22 -31 -52 -31 -80 0
-96 6 -69 26 22 17 37 17 62 2z m-2307 -5 c-7 -2 -19 -2 -25 0 -7 3 -2 5 12 5
14 0 19 -2 13 -5z m-1753 -23 c12 -8 11 -10 -7 -10 -13 0 -23 5 -23 10 0 13
11 13 30 0z m447 4 c-3 -3 -12 -4 -19 -1 -8 3 -5 6 6 6 11 1 17 -2 13 -5z
m1663 -60 c0 -21 4 -33 10 -29 6 4 8 10 5 15 -3 5 2 18 12 30 22 25 117 29
126 5 9 -21 -4 -117 -17 -134 -9 -12 -8 -13 3 -7 11 7 12 -1 6 -50 -4 -32 -8
-65 -10 -74 -1 -8 -6 -45 -10 -82 -3 -37 -10 -69 -13 -71 -4 -2 -22 2 -41 8
-30 11 -31 13 -12 18 13 3 21 13 21 25 0 12 5 24 10 27 14 8 13 72 -1 81 -6 3
-14 2 -18 -5 -4 -6 -12 4 -19 24 -10 27 -10 38 0 55 11 18 10 23 -4 31 -10 6
-18 16 -18 24 0 8 -5 17 -12 21 -7 5 -9 2 -6 -8 10 -25 -38 -9 -53 18 -7 13
-16 24 -21 24 -13 0 -9 -12 10 -27 16 -13 16 -14 -3 -9 -35 9 -66 -24 -68 -73
-1 -31 -8 -47 -21 -55 -14 -8 -20 -8 -23 1 -3 9 -11 8 -29 -3 -26 -17 -26 -17
-38 36 -5 23 -66 70 -66 50 0 -5 -59 -10 -130 -12 -72 -2 -130 1 -130 5 0 5
-4 6 -9 2 -11 -6 -26 33 -17 43 3 3 13 -3 20 -14 14 -19 14 -19 13 1 -1 13 4
20 18 20 11 -1 26 6 33 15 12 13 13 13 8 -3 -5 -16 0 -18 46 -15 41 2 54 7 56
21 4 22 -16 22 -40 0 -10 -9 -18 -11 -18 -5 0 6 -7 9 -15 6 -8 -4 -15 -2 -15
4 0 5 7 12 15 16 8 3 15 10 15 16 0 6 -7 6 -20 -2 -32 -20 -47 5 -16 26 15 9
26 23 26 31 0 9 9 15 23 15 18 0 19 -2 7 -10 -13 -8 -12 -10 3 -10 9 0 17 5
17 10 0 6 12 9 28 9 22 -1 23 -3 5 -6 -12 -2 -24 -11 -27 -20 -5 -13 -4 -13 8
-4 7 6 21 9 30 5 10 -4 18 0 22 10 7 19 35 21 53 4 8 -7 11 -8 8 -3 -6 12 137
14 149 3 4 -4 14 -3 21 4 11 9 19 9 33 0 12 -7 21 -8 25 -2 4 6 10 8 15 5 5
-3 11 -1 15 5 12 19 25 -1 25 -36z m485 23 c12 -19 14 -50 10 -172 -3 -82 -8
-152 -12 -156 -5 -4 -51 -12 -103 -19 -52 -6 -119 -15 -148 -19 -29 -4 -55 -4
-57 0 -3 4 0 65 6 136 10 108 16 135 38 171 14 23 35 44 46 47 11 2 47 10 80
18 91 23 122 21 140 -6z m398 -37 c9 -67 5 -96 -10 -60 -6 14 -24 37 -39 52
-38 35 -127 48 -172 24 -39 -20 -74 -65 -69 -88 3 -10 1 -21 -4 -24 -10 -6
-13 139 -2 150 4 3 70 5 147 4 l141 -3 8 -55z m-1657 23 c-10 -10 -19 5 -10
18 6 11 8 11 12 0 2 -7 1 -15 -2 -18z m92 17 c7 0 10 -5 6 -11 -4 -7 4 -20 17
-30 25 -19 23 -28 -8 -34 -10 -2 -20 -4 -22 -4 -2 -1 2 -8 9 -16 6 -8 9 -19 6
-24 -4 -5 -1 -13 5 -17 8 -4 9 -3 5 4 -4 7 -1 12 8 12 10 0 13 6 10 15 -7 18
31 55 56 55 9 0 21 5 27 11 12 12 54 -22 52 -43 0 -9 -2 -9 -6 1 -4 11 -7 11
-14 0 -6 -11 -12 -10 -28 5 -19 18 -41 15 -41 -5 0 -6 5 -7 10 -4 14 9 13 -1
-5 -35 -8 -16 -24 -34 -34 -40 -25 -13 -34 -13 -25 1 4 7 -1 7 -16 -1 -31 -17
-68 -22 -75 -10 -3 5 -13 10 -21 10 -8 0 -12 -4 -9 -10 3 -5 1 -10 -4 -10 -12
0 -15 23 -5 33 4 3 14 2 23 -3 13 -7 17 -3 19 17 2 22 0 24 -13 13 -9 -7 -27
-10 -44 -7 -16 3 -32 3 -35 0 -11 -11 -48 -14 -41 -3 4 6 -3 6 -21 0 -20 -8
-32 -7 -49 4 -12 8 -27 11 -34 7 -18 -11 14 -42 35 -34 9 3 20 0 25 -8 6 -11
11 -11 21 -1 17 17 28 15 28 -4 0 -10 -6 -14 -15 -10 -8 3 -15 2 -15 -3 0 -4
-7 -8 -15 -8 -8 0 -15 4 -15 9 0 5 -4 6 -10 3 -5 -3 -38 -8 -72 -10 -48 -2
-67 0 -82 13 -18 16 -19 16 -13 0 5 -15 0 -18 -31 -18 -21 0 -48 7 -61 17 -22
15 -25 15 -37 -2 -8 -10 -17 -15 -21 -12 -4 4 -2 12 4 18 6 6 9 17 7 24 -4 9
13 16 53 23 31 5 62 9 68 7 5 -1 7 0 3 2 -5 3 6 18 22 35 21 21 34 27 43 20
20 -15 66 -21 61 -7 -4 8 6 12 28 12 18 -1 42 2 53 7 15 5 17 4 8 -5 -17 -17
-5 -43 14 -28 8 7 13 8 12 3 -4 -23 4 -30 37 -29 27 1 43 9 60 29 13 15 24 22
24 15 0 -8 5 -8 16 2 14 12 16 11 12 -6 -2 -13 -10 -19 -23 -17 -27 5 -7 -14
25 -23 20 -6 23 -5 13 5 -9 10 -9 20 1 45 9 22 11 37 4 46 -7 11 -11 11 -15 2
-2 -7 -12 -13 -20 -13 -13 0 -13 3 -2 16 7 9 21 13 33 10 12 -3 27 -6 34 -6z
m62 -5 c0 -8 -7 -15 -15 -15 -16 0 -20 12 -8 23 11 12 23 8 23 -8z m2336 0 c3
-8 1 -30 -6 -50 -11 -32 -16 -160 -8 -210 3 -17 -3 -20 -39 -23 -45 -3 -59 12
-20 22 20 5 24 15 33 75 11 78 2 126 -25 141 -11 5 -52 7 -100 3 -72 -5 -84
-9 -102 -32 -15 -18 -19 -35 -16 -57 7 -40 -19 -79 -52 -79 -31 0 -37 -18 -14
-41 13 -12 14 -19 5 -22 -17 -5 -15 -29 4 -36 9 -3 29 -6 44 -6 16 0 32 -5 36
-11 10 -16 -12 -33 -33 -24 -10 4 -37 9 -61 11 -23 2 -46 5 -50 8 -9 5 -15
291 -7 316 5 15 24 17 152 19 81 1 149 4 152 6 2 3 26 5 53 5 33 0 50 -5 54
-15z m-2780 -4 c-4 -5 -3 -11 1 -14 5 -2 3 -2 -4 -1 -12 3 -35 -22 -58 -61 -9
-15 -15 -16 -33 -6 -12 6 -22 8 -22 3 0 -5 -19 -6 -43 -2 -43 6 -44 6 -42 -21
1 -19 -2 -26 -12 -22 -16 6 -17 20 0 26 7 3 5 6 -5 6 -10 1 -18 -6 -18 -14 0
-8 -6 -16 -12 -17 -29 -3 -34 -4 -53 -15 -11 -6 -39 -10 -62 -8 -24 1 -43 -2
-43 -7 0 -5 -4 -6 -10 -3 -5 3 -10 16 -10 28 0 14 3 18 8 10 10 -16 104 -12
97 5 -3 8 2 11 18 7 15 -4 26 0 35 15 8 14 9 19 1 18 -6 -2 -14 3 -17 11 -3 8
0 11 7 7 6 -4 11 -1 11 9 0 20 30 32 40 16 5 -10 11 -9 22 3 9 8 19 11 24 6 5
-4 20 -10 34 -12 16 -2 24 -9 22 -18 -3 -10 3 -9 19 5 12 11 19 14 15 8 -4 -8
-2 -13 6 -13 9 0 9 -3 -2 -10 -13 -8 -12 -10 4 -10 15 0 17 6 14 30 -4 27 -2
29 19 24 18 -5 22 -3 17 10 -4 12 0 16 16 16 11 0 19 -4 16 -9z m64 0 c0 -17
-21 -24 -33 -11 -9 10 -9 11 1 6 6 -4 12 -2 12 3 0 6 5 11 10 11 6 0 10 -4 10
-9z m100 -5 c0 -7 -10 -13 -23 -13 -13 0 -24 6 -24 13 0 8 11 14 24 14 13 0
23 -6 23 -14z m93 -1 c-3 -9 -8 -14 -10 -11 -3 3 -2 9 2 15 9 16 15 13 8 -4z
m267 5 c0 -5 -2 -10 -4 -10 -3 0 -8 5 -11 10 -3 6 -1 10 4 10 6 0 11 -4 11
-10z m1806 -141 c2 -181 -1 -189 -58 -182 -24 4 -53 13 -66 21 -21 13 -21 16
-7 32 20 22 19 30 -2 30 -10 0 -26 -12 -36 -26 -18 -24 -18 -26 -2 -44 16 -18
14 -19 -67 -22 -45 -2 -86 -1 -90 2 -4 3 -10 79 -14 170 l-7 165 174 -1 174
-2 1 -143z m1319 131 c22 -8 41 -14 42 -15 4 -1 -17 -283 -23 -298 -3 -9 -12
-17 -19 -17 -23 0 -25 30 -5 81 14 38 16 57 9 76 -5 13 -6 35 -3 48 13 52 -36
90 -129 101 -83 10 -101 2 -122 -53 -15 -38 -16 -52 -7 -77 13 -34 2 -55 -18
-31 -16 19 -40 19 -40 0 0 -17 -46 -39 -62 -29 -10 6 -5 158 7 205 l6 26 162
-2 c108 -1 175 -6 202 -15z m-4402 2 c-17 -11 -20 -47 -3 -47 16 0 42 -44 34
-57 -11 -18 -24 -7 -20 17 3 13 0 27 -5 31 -5 3 -9 2 -8 -3 3 -20 -2 -27 -11
-13 -6 10 -10 11 -10 3 0 -7 -5 -13 -11 -13 -8 0 -8 4 -2 13 18 21 12 49 -9
44 -10 -3 -18 -2 -18 2 0 15 25 31 50 31 14 0 20 -3 13 -8z m57 -2 c0 -5 -5
-10 -11 -10 -5 0 -7 5 -4 10 3 6 8 10 11 10 2 0 4 -4 4 -10z m168 -11 c-10 -7
-10 -9 0 -9 6 0 12 -4 12 -10 0 -5 -6 -7 -12 -5 -12 5 -15 -7 -18 -67 -1 -10
-5 -18 -11 -18 -5 0 -8 -5 -6 -11 1 -6 -4 -14 -12 -16 -10 -4 -12 4 -6 38 4
24 14 53 21 64 8 11 14 27 14 37 0 12 5 15 16 11 13 -5 13 -7 2 -14z m142 17
c0 -3 -4 -8 -10 -11 -5 -3 -10 -1 -10 4 0 6 5 11 10 11 6 0 10 -2 10 -4z m80
-11 c0 -9 -6 -12 -16 -8 -13 5 -13 7 -2 14 17 11 18 11 18 -6z m540 5 c0 -5
-5 -10 -11 -10 -5 0 -7 5 -4 10 3 6 8 10 11 10 2 0 4 -4 4 -10z m-800 -10 c0
-16 -17 -19 -34 -7 -14 11 -13 12 9 13 14 1 25 -2 25 -6z m4440 -16 c0 -14
-10 -34 -22 -43 l-22 -18 22 -19 c30 -26 32 -108 2 -124 -26 -14 -25 -32 1
-48 15 -10 19 -21 17 -45 l-3 -32 -70 4 c-69 3 -100 15 -89 33 3 5 9 75 12
156 l7 147 50 6 c95 11 95 11 95 -17z m-4220 9 c0 -17 -62 -73 -73 -66 -8 5
-8 8 1 11 10 3 10 7 1 18 -12 15 -4 18 34 15 9 -1 17 4 17 13 0 9 5 16 10 16
6 0 10 -3 10 -7z m-270 -13 c0 -5 -5 -10 -11 -10 -5 0 -7 5 -4 10 3 6 8 10 11
10 2 0 4 -4 4 -10z m2425 -5 c0 -12 -40 -19 -61 -11 -9 3 -12 11 -9 16 8 14
70 9 70 -5z m-1565 -17 c0 -17 -3 -19 -9 -9 -5 7 -14 10 -20 7 -12 -8 -15 6
-4 17 14 15 33 6 33 -15z m1625 12 c3 -5 1 -10 -4 -10 -6 0 -11 5 -11 10 0 6
2 10 4 10 3 0 8 -4 11 -10z m-2678 -50 c-10 -37 -13 -39 -27 -24 -11 12 -12
18 -3 21 7 2 9 11 6 19 -3 9 1 14 12 14 10 0 13 5 9 12 -4 6 -3 8 3 5 7 -5 7
-20 0 -47z m346 30 c6 -23 -8 -26 -29 -6 -11 11 -11 16 -1 19 21 9 25 8 30
-13z m161 9 c-3 -6 -1 -15 6 -19 7 -5 2 -7 -14 -7 -30 0 -34 11 -8 26 22 13
25 13 16 0z m-364 -20 c0 -6 -4 -7 -10 -4 -5 3 -10 11 -10 16 0 6 5 7 10 4 6
-3 10 -11 10 -16z m3354 15 c9 -3 16 -13 16 -21 0 -10 -6 -13 -16 -9 -9 3 -25
6 -36 6 -17 0 -18 3 -8 15 14 17 21 18 44 9z m-104 -14 c0 -5 -7 -10 -15 -10
-8 0 -15 5 -15 10 0 6 7 10 15 10 8 0 15 -4 15 -10z m870 0 c0 -5 -5 -10 -11
-10 -5 0 -7 5 -4 10 3 6 8 10 11 10 2 0 4 -4 4 -10z m103 -15 c-4 -15 -36 -12
-41 3 -3 9 3 13 19 10 13 -1 23 -7 22 -13z m77 -11 c0 -2 -9 -4 -21 -4 -11 0
-18 4 -14 10 5 8 35 3 35 -6z m-4270 -12 c0 -12 -3 -12 -15 -2 -8 7 -15 13
-15 15 0 1 7 2 15 2 8 0 15 -7 15 -15z m190 -1 c0 -14 -2 -14 -10 -1 -8 12
-10 11 -10 -7 0 -18 -6 -23 -25 -23 -14 0 -28 0 -32 -1 -5 0 -10 8 -12 17 -2
12 2 15 13 11 10 -4 16 -1 16 7 0 7 12 13 30 13 21 0 30 -5 30 -16z m-243 -17
c4 -11 8 -12 13 -4 5 8 14 8 34 0 22 -8 25 -12 14 -23 -17 -16 -68 -18 -69 -3
-1 6 -1 17 0 25 2 7 -2 10 -8 6 -6 -3 -11 -1 -11 4 0 17 20 13 27 -5z m2645
-89 c0 -47 -3 -89 -6 -92 -9 -9 -296 -15 -297 -6 -5 45 -2 183 4 183 4 0 7 -7
7 -16 0 -9 15 -31 33 -48 17 -17 39 -40 47 -50 14 -17 13 -18 -15 -12 -36 7
-58 -5 -53 -30 3 -17 12 -19 78 -17 41 2 88 4 103 5 34 4 62 35 46 54 -12 14
-4 56 19 101 24 48 34 27 34 -72z m-2698 79 c4 -10 1 -14 -6 -12 -15 5 -23 28
-10 28 5 0 13 -7 16 -16z m529 -20 c-7 -18 -38 -24 -123 -23 -71 0 -73 1 -45
13 20 9 34 10 43 3 8 -6 12 -6 12 1 0 8 8 8 22 3 24 -9 57 4 72 28 7 11 10 11
16 1 5 -7 6 -19 3 -26z m-603 6 c0 -5 -2 -10 -4 -10 -3 0 -8 5 -11 10 -3 6 -1
10 4 10 6 0 11 -4 11 -10z m394 -15 c4 -10 -1 -15 -15 -15 -17 0 -18 2 -7 15
16 18 15 18 22 0z m-354 -5 c0 -5 -7 -10 -16 -10 -8 0 -12 5 -9 10 3 6 10 10
16 10 5 0 9 -4 9 -10z m270 -6 c0 -2 -7 -4 -15 -4 -8 0 -15 4 -15 10 0 5 7 7
15 4 8 -4 15 -8 15 -10z m1224 -33 c19 -7 19 -8 1 -15 -12 -4 -15 -10 -8 -17
13 -13 4 -69 -12 -69 -7 0 -18 15 -25 33 -7 17 -14 26 -17 20 -2 -7 -11 -13
-18 -13 -20 0 -27 -31 -10 -50 18 -19 19 -30 4 -30 -5 0 -8 4 -5 9 4 5 -9 8
-28 7 -28 -3 -33 0 -29 15 3 9 19 31 36 49 25 26 28 33 16 41 -11 8 -9 9 7 4
25 -7 56 3 48 16 -6 11 13 11 40 0z m-1664 -21 c29 5 50 4 58 -2 9 -8 16 -8
24 0 7 7 17 12 22 12 6 0 -4 -13 -23 -29 -24 -20 -32 -32 -25 -42 5 -8 7 -22
6 -31 -2 -13 1 -16 15 -11 25 9 53 34 48 43 -3 4 7 8 22 8 14 0 32 8 40 18 12
16 13 16 13 -9 0 -23 -4 -27 -30 -27 -24 0 -30 -4 -28 -17 4 -25 20 -34 35
-21 9 7 13 7 13 0 0 -14 -24 -22 -49 -15 -12 3 -21 1 -21 -3 0 -5 -17 -9 -37
-9 -41 0 -63 26 -42 51 8 10 6 21 -7 44 -10 16 -22 30 -27 30 -4 0 -5 -5 -1
-11 4 -7 0 -9 -14 -5 -20 7 -38 -15 -24 -29 4 -4 7 -22 7 -41 0 -35 -20 -53
-39 -34 -5 5 -24 10 -41 10 l-31 0 0 64 c0 48 3 63 13 59 7 -3 11 -9 8 -13
-14 -22 33 -68 56 -55 6 4 0 20 -15 40 -23 30 -24 34 -8 38 9 2 22 -2 27 -9 8
-9 24 -10 55 -4z m1357 3 c2 -6 -5 -14 -16 -18 -20 -6 -20 -8 -6 -35 18 -35
19 -60 2 -60 -17 0 -39 37 -26 45 5 4 8 21 5 38 -3 17 -2 35 1 39 7 12 35 6
40 -9z m43 8 c0 -12 -20 -25 -27 -18 -7 7 6 27 18 27 5 0 9 -4 9 -9z m75 -1
c3 -5 -1 -20 -10 -33 -8 -13 -13 -32 -9 -41 4 -10 1 -16 -7 -16 -11 0 -11 -2
0 -9 9 -6 22 -6 34 1 10 5 21 7 24 5 11 -12 -42 -28 -72 -23 -43 8 -50 30 -19
63 15 16 22 33 18 45 -4 13 0 18 15 18 11 0 23 -4 26 -10z m1077 -86 l-10 -59
0 80 c-1 60 2 75 9 59 7 -13 7 -41 1 -80z m905 34 c-9 -5 -39 4 -55 17 -2 2 2
12 9 23 12 19 13 19 35 -7 15 -17 19 -28 11 -33z m-2193 36 c4 -11 1 -14 -11
-12 -9 2 -18 9 -21 16 -6 18 25 15 32 -4z m-983 -28 c-7 -8 -21 -12 -31 -9
-31 8 -23 23 11 23 26 0 29 -3 20 -14z m784 4 c3 -5 -1 -10 -9 -10 -9 0 -16 5
-16 10 0 6 4 10 9 10 6 0 13 -4 16 -10z m3230 -13 c-7 -10 -11 -25 -9 -32 6
-14 -48 -31 -66 -20 -5 3 -10 21 -10 38 0 32 1 32 50 33 47 1 48 0 35 -19z
m-3375 -7 c13 -9 13 -11 0 -20 -22 -15 -30 -12 -30 10 0 22 8 25 30 10z m3461
-21 c8 -16 6 -19 -15 -19 -19 0 -24 5 -22 24 1 27 21 24 37 -5z m-777 -10 c-3
-5 -25 -9 -50 -9 -32 0 -44 4 -44 15 0 17 12 19 26 5 7 -7 17 -5 30 4 20 15
50 3 38 -15z m-1781 -4 c19 -5 27 -3 27 6 0 10 3 10 11 2 15 -15 5 -30 -18
-28 -37 3 -63 17 -63 33 0 11 3 13 8 5 4 -6 20 -15 35 -18z m-688 -5 c4 -6 -9
-10 -32 -9 -38 1 -38 1 -8 9 17 4 31 8 32 9 1 0 5 -3 8 -9z m82 -6 c-3 -3 -12
-4 -19 -1 -8 3 -5 6 6 6 11 1 17 -2 13 -5z m573 -14 c0 -5 -2 -10 -4 -10 -3 0
-8 5 -11 10 -3 6 -1 10 4 10 6 0 11 -4 11 -10z m1457 -10 c22 0 24 -3 18 -31
-9 -41 -13 -62 -14 -72 -1 -5 -20 8 -43 28 -23 19 -53 38 -66 42 -21 5 -71 -5
-128 -27 -29 -11 -51 -89 -34 -120 14 -26 72 -79 109 -99 l26 -15 -25 -7 c-14
-4 -54 -7 -90 -8 l-65 -1 30 18 c23 14 34 16 47 8 22 -13 35 0 22 22 -13 20
-62 28 -77 13 -6 -6 -14 -11 -19 -11 -8 0 0 241 9 250 6 7 211 18 247 14 16
-2 40 -4 53 -4z m632 -5 c2 -3 -12 -20 -32 -39 -41 -37 -45 -55 -21 -91 15
-24 15 -25 -3 -25 -10 0 -29 -7 -41 -16 -13 -9 -25 -14 -27 -12 -7 7 -8 176 0
188 5 9 24 11 63 6 31 -4 58 -9 61 -11z m715 -5 c10 -10 -6 -258 -18 -279 -8
-13 -85 -15 -105 -2 -7 5 -11 13 -7 19 3 5 -2 13 -12 17 -11 4 -22 -1 -31 -14
-17 -26 -31 -27 -24 -2 3 11 -2 21 -11 24 -21 8 -31 -10 -16 -28 10 -12 9 -15
-10 -15 -19 0 -21 5 -18 37 2 28 -1 39 -13 41 -12 2 -18 -8 -23 -38 -6 -41
-26 -56 -26 -20 0 24 -25 27 -38 4 -5 -9 -18 -14 -28 -12 -18 3 -19 13 -18
131 1 70 3 130 6 132 2 2 53 9 114 14 123 11 263 6 278 -9z m-2767 -11 c-1
-14 -4 -15 -14 -7 -17 14 -16 25 1 25 8 0 14 -8 13 -18z m669 -106 c-5 -120
-11 -187 -22 -240 -3 -19 -11 -23 -39 -23 -24 0 -35 5 -35 15 0 18 -36 39 -45
25 -10 -16 25 -72 41 -66 10 4 14 -3 14 -24 0 -23 -5 -30 -19 -30 -27 0 -36
-31 -11 -37 16 -4 19 -11 14 -27 -10 -35 -20 -39 -55 -19 -25 13 -56 18 -116
18 -81 0 -83 1 -83 24 0 19 3 21 14 12 13 -11 46 -5 46 8 0 14 -23 29 -37 24
-11 -4 -14 0 -11 18 2 18 9 24 28 24 30 0 34 29 5 33 -17 2 -20 9 -17 42 6 59
25 66 175 65 70 0 127 3 127 7 0 22 -50 30 -154 26 -61 -3 -118 -7 -126 -9
-12 -3 -15 13 -18 96 -1 55 2 106 6 113 5 7 38 17 73 22 35 5 91 14 124 18 33
5 75 10 93 11 l33 1 -5 -127z m406 100 c2 -33 2 -37 -5 -173 -6 -115 -8 -118
-77 -119 -35 -1 -36 -1 -46 54 -9 50 -8 57 9 68 15 10 19 27 22 100 3 78 1 88
-13 85 -12 -2 -17 -14 -17 -35 0 -48 -16 -58 -53 -35 -23 13 -28 22 -21 29 13
13 2 36 -14 30 -15 -5 -18 -70 -3 -79 6 -4 11 -27 11 -50 0 -35 4 -45 23 -53
12 -5 22 -17 23 -25 7 -96 9 -89 -36 -96 -98 -14 -102 -7 -107 184 l-3 127 45
5 c25 3 93 6 153 8 l107 3 2 -28z m808 -3 c4 -14 5 -38 4 -55 -2 -16 -6 -64
-9 -106 l-6 -76 -87 -8 c-48 -5 -144 -9 -214 -10 l-126 -2 9 26 c6 14 8 35 5
47 -7 26 11 171 24 194 7 13 38 15 201 15 l193 0 6 -25z m-2697 13 c15 -2 27
-9 27 -13 0 -5 -7 -7 -15 -4 -8 4 -15 1 -15 -5 0 -7 6 -14 14 -17 9 -3 13 -20
12 -49 -1 -24 2 -41 5 -39 4 2 9 -3 12 -11 3 -7 -5 -24 -18 -37 -27 -25 -32
-44 -12 -51 6 -3 3 -6 -8 -6 -22 -1 -49 -36 -40 -51 4 -6 1 -10 -4 -10 -6 0
-11 6 -12 13 0 9 -2 9 -6 -1 -10 -24 -22 -1 -13 24 13 32 13 31 -4 37 -10 4
-13 -3 -12 -25 0 -17 -4 -33 -10 -35 -16 -5 -28 47 -15 60 6 6 11 32 11 58 0
26 4 51 10 54 6 4 7 -1 3 -11 -4 -12 -3 -15 5 -10 7 4 12 2 12 -3 0 -18 24
-12 38 9 11 18 10 20 -14 20 -14 0 -35 5 -46 11 -13 7 -18 7 -14 1 10 -17 -11
-23 -24 -7 -7 8 -19 15 -26 15 -23 0 -16 15 16 33 17 10 30 23 30 28 0 21 56
32 113 22z m3138 -118 c-2 -66 -7 -130 -12 -143 l-9 -24 -180 4 c-154 3 -182
5 -197 20 -27 28 -4 39 38 19 25 -12 42 -15 53 -9 9 5 38 6 64 2 26 -4 63 -6
82 -5 19 2 56 3 83 2 34 -1 47 3 47 13 0 22 -26 27 -102 19 -53 -4 -69 -3 -64
5 4 7 19 12 34 12 37 0 99 23 120 43 12 13 16 32 14 74 -1 32 -7 62 -12 67
-18 18 -11 27 18 24 l27 -3 -4 -120z m-3046 106 c3 -5 1 -12 -5 -16 -5 -3 -10
1 -10 9 0 18 6 21 15 7z m52 -13 c-3 -8 -6 -5 -6 6 -1 11 2 17 5 13 3 -3 4
-12 1 -19z m488 3 c-8 -14 -32 -14 -40 -1 -3 5 0 7 8 4 8 -3 18 0 22 6 4 6 9
9 12 6 3 -2 2 -9 -2 -15z m906 -126 c2 -72 0 -136 -4 -143 -19 -29 -26 5 -21
106 5 109 13 177 19 171 2 -2 5 -63 6 -134z m2242 122 c34 -11 28 -19 -19 -24
-79 -8 -124 -54 -109 -110 5 -15 7 -35 6 -44 -1 -8 7 -23 18 -33 11 -10 17
-23 15 -30 -7 -18 19 -37 46 -34 13 2 25 -3 27 -9 6 -16 -29 -17 -99 -1 -29 6
-54 12 -56 13 -3 3 18 258 23 273 5 15 103 15 148 -1z m-877 -15 c-5 -9 -56
-23 -56 -16 0 6 55 32 59 29 1 -2 0 -8 -3 -13z m-2089 -26 c-7 -10 -17 -27
-23 -38 -12 -20 -22 -14 -18 10 1 6 2 20 3 30 1 11 9 17 25 17 21 0 23 -2 13
-19z m1323 9 c11 -13 8 -15 -13 -15 -26 0 -42 12 -30 24 11 11 30 7 43 -9z
m-2000 -17 c0 -7 5 -6 14 1 20 17 48 2 44 -23 -2 -16 -9 -20 -27 -18 -20 3
-56 20 -81 40 -2 1 2 7 9 12 16 10 41 2 41 -12z m734 -10 c-3 -5 -12 -7 -20
-4 -7 3 -16 0 -20 -6 -5 -7 -2 -8 7 -3 12 8 12 6 0 -8 -7 -9 -17 -17 -22 -17
-12 0 1 33 18 47 17 13 46 6 37 -9z m191 12 c3 -5 -1 -10 -10 -10 -9 0 -13 5
-10 10 3 6 8 10 10 10 2 0 7 -4 10 -10z m-435 -10 c0 -5 -2 -10 -4 -10 -3 0
-8 5 -11 10 -3 6 -1 10 4 10 6 0 11 -4 11 -10z m-1560 -10 c0 -5 -2 -10 -4
-10 -3 0 -8 5 -11 10 -3 6 -1 10 4 10 6 0 11 -4 11 -10z m1474 -11 c-6 -11
-24 -2 -24 11 0 5 7 7 15 4 8 -4 12 -10 9 -15z m-1578 -2 c4 -4 -1 -9 -10 -13
-9 -3 -16 -17 -16 -31 0 -13 -4 -22 -10 -18 -5 3 -7 12 -3 20 3 9 0 21 -6 29
-6 7 -8 16 -5 19 8 8 41 4 50 -6z m1283 -19 c13 -20 12 -22 -1 -11 -8 7 -18
10 -21 6 -4 -3 -7 1 -7 10 0 24 13 21 29 -5z m1511 -22 c-17 -22 -40 -20 -40
2 0 30 21 45 39 28 12 -12 12 -18 1 -30z m-1196 -18 c-4 -13 -7 -28 -6 -35 2
-6 -2 -14 -7 -17 -5 -3 -11 10 -13 30 -3 25 1 38 11 44 21 11 24 6 15 -22z
m1669 -31 c-4 -28 -10 -37 -20 -33 -8 4 -21 6 -30 6 -11 0 -8 8 11 31 14 17
26 36 26 42 0 7 3 8 10 1 5 -5 7 -26 3 -47z m-1853 17 c0 -2 -9 -4 -21 -4 -11
0 -18 4 -14 10 5 8 35 3 35 -6z m-545 -16 c-19 -11 -30 -5 -21 11 4 6 14 7 22
4 15 -5 14 -7 -1 -15z m-147 -1 c8 -10 6 -13 -11 -14 -12 0 -16 1 -9 4 6 3 10
9 6 14 -8 14 2 11 14 -4z m390 -16 c12 -33 5 -46 -15 -30 -15 13 -18 59 -4 59
5 0 14 -13 19 -29z m750 -2 c-25 -16 -27 -12 -19 30 1 2 8 -2 16 -9 13 -11 13
-15 3 -21z m42 4 c0 -19 -3 -24 -10 -17 -6 6 -8 18 -4 27 9 24 14 21 14 -10z
m-1666 -10 c9 -23 -10 -41 -26 -24 -11 11 -10 14 0 18 6 3 10 9 6 14 -3 5 -1
9 4 9 6 0 13 -8 16 -17z m344 2 c2 -2 -21 -3 -50 -3 -35 0 -46 3 -33 8 18 6
75 3 83 -5z m519 -51 c-9 -9 -28 6 -21 18 4 6 10 6 17 -1 6 -6 8 -13 4 -17z
m91 5 c20 -21 19 -53 -1 -66 -6 -4 -8 0 -4 10 4 12 0 15 -22 12 -26 -3 -28 -1
-23 23 4 22 17 41 29 42 1 0 11 -9 21 -21z m-468 1 c0 -5 -7 -10 -16 -10 -8 0
-12 5 -9 10 3 6 10 10 16 10 5 0 9 -4 9 -10z m140 -50 c0 -11 -2 -12 -8 -3 -6
9 -14 6 -32 -10 -24 -21 -26 -22 -42 -6 -15 16 -14 18 13 29 19 8 29 20 29 34
0 20 1 20 20 -4 11 -14 20 -32 20 -40z m2410 39 c0 -5 -13 -9 -30 -9 -35 0
-41 17 -7 22 26 5 37 1 37 -13z m-3130 -34 c5 3 11 1 15 -5 4 -6 11 -7 17 -4
7 4 8 2 4 -4 -11 -18 -66 -15 -66 3 0 18 -21 20 -39 3 -11 -11 -12 -10 -7 2 3
8 9 23 12 32 5 15 9 14 31 -8 13 -13 28 -22 33 -19z m92 3 c-12 -12 -35 -1
-27 12 3 5 13 6 21 3 10 -4 12 -9 6 -15z m3491 -13 c-2 -17 -4 -68 -6 -115 -3
-103 -9 -116 -42 -94 -18 12 -28 13 -45 4 -22 -12 -40 -6 -40 14 0 17 61 61
84 61 11 0 21 6 24 14 3 10 -1 12 -17 8 -16 -4 -21 -1 -21 14 0 30 -27 77 -49
84 -11 3 -31 3 -45 -1 -20 -5 -26 -2 -26 9 0 15 20 20 120 30 60 6 65 4 63
-28z m674 10 c190 -4 203 -10 203 -87 0 -55 -16 -57 -22 -3 -2 23 -12 35 -40
50 -36 19 -38 19 -68 2 -25 -15 -37 -17 -61 -8 -63 22 -111 -27 -115 -118 -3
-47 0 -57 26 -82 17 -17 39 -29 54 -29 14 0 26 -4 26 -9 0 -5 3 -16 6 -25 5
-13 -3 -16 -51 -16 -90 0 -95 5 -93 108 1 68 -4 101 -22 150 -13 34 -27 65
-31 68 -19 12 -8 24 12 14 12 -7 88 -13 176 -15z m-3499 3 c-6 -18 -28 -21
-28 -4 0 9 7 16 16 16 9 0 14 -5 12 -12z m-167 -31 c-13 -13 -31 0 -24 19 4
11 8 12 20 3 9 -8 10 -16 4 -22z m2749 21 c0 -4 -15 -17 -32 -29 -55 -38 -108
-98 -108 -121 0 -52 77 -78 128 -42 23 16 52 13 52 -5 0 -5 -10 -7 -22 -3 -21
5 -22 4 -9 -11 8 -11 21 -15 32 -12 21 7 25 -5 7 -23 -8 -8 -46 -12 -105 -12
-93 0 -94 0 -105 28 -12 29 -23 204 -15 226 4 11 27 14 91 13 47 -1 86 -5 86
-9z m-2227 -16 c-2 -7 2 -12 7 -12 15 0 12 -17 -5 -24 -8 -3 -14 0 -12 7 1 7
-4 11 -10 10 -7 -2 -13 6 -13 18 0 14 5 19 18 17 9 -2 16 -10 15 -16z m294 12
c-3 -3 -12 -4 -19 -1 -8 3 -5 6 6 6 11 1 17 -2 13 -5z m2591 -14 c-7 -11 -18
-20 -24 -20 -6 0 -17 -6 -23 -14 -9 -10 -8 -16 3 -26 17 -14 36 -6 36 16 0 8
9 14 20 14 11 0 20 5 20 10 0 6 4 10 8 10 19 0 37 -89 37 -180 l0 -95 -27 -3
c-22 -3 -30 2 -38 22 -11 30 -17 32 -42 10 -25 -23 -194 -20 -220 3 -13 12
-21 13 -31 4 -14 -11 -69 1 -90 19 -12 10 -11 204 1 226 10 19 21 21 196 22
183 2 186 2 174 -18z m-3728 -17 c0 -28 11 -29 35 -3 21 24 37 26 29 5 -4 -8
-12 -15 -18 -15 -7 0 -13 -7 -13 -15 0 -8 4 -15 9 -15 5 0 6 -5 2 -11 -5 -8
-9 -7 -14 1 -5 7 -21 13 -36 14 -23 1 -29 7 -34 31 -6 26 -4 30 17 30 17 0 23
-6 23 -22z m133 20 c-7 -2 -19 -2 -25 0 -7 3 -2 5 12 5 14 0 19 -2 13 -5z
m117 -3 c0 -5 -5 -10 -11 -10 -5 0 -7 5 -4 10 3 6 8 10 11 10 2 0 4 -4 4 -10z
m1936 -21 c-3 -17 -6 -39 -6 -48 0 -11 -9 -16 -30 -17 -25 -1 -30 3 -30 23 0
23 43 73 63 73 5 0 7 -13 3 -31z m318 -61 c-5 -68 -10 -96 -22 -103 -8 -5 -30
-22 -47 -37 -32 -28 -65 -37 -65 -19 0 5 13 19 28 30 15 11 36 35 47 54 16 30
17 39 6 65 -23 56 -41 65 -108 53 -59 -11 -83 -29 -83 -63 0 -10 -5 -27 -12
-37 -14 -23 10 -66 48 -83 27 -13 30 -26 10 -53 -13 -18 -15 -18 -46 8 -35 30
-62 34 -79 13 -9 -11 -6 -18 18 -35 16 -12 34 -21 39 -21 6 0 14 -4 17 -10 4
-6 -17 -10 -54 -10 -74 0 -74 0 -26 129 19 51 35 106 35 120 0 42 27 72 63 71
18 -1 66 3 107 8 41 5 87 10 102 11 l28 1 -6 -92z m344 7 c2 -64 0 -77 -11
-72 -8 3 -20 0 -26 -6 -8 -8 -15 -6 -25 9 -11 14 -18 16 -26 8 -9 -9 -8 -18 5
-37 15 -24 17 -24 47 -10 33 17 48 8 48 -29 0 -22 -40 -24 -71 -5 -17 10 -22
9 -30 -5 -13 -24 -109 -26 -109 -3 0 17 16 20 26 4 4 -7 9 -8 17 0 7 7 6 15
-2 25 -7 8 -11 27 -9 42 5 48 -19 36 -47 -23 l-27 -58 -16 35 c-9 19 -16 38
-16 41 -1 3 -9 13 -18 23 -18 18 -22 60 -9 106 7 25 8 25 141 30 74 3 140 5
145 5 6 -1 11 -37 13 -80z m1497 60 c74 -9 81 -12 59 -36 -15 -17 -15 -20 0
-43 25 -39 21 -73 -9 -78 -31 -6 -43 8 -15 17 22 7 27 30 8 41 -6 4 -18 -2
-27 -12 -9 -11 -24 -23 -33 -27 -10 -3 -18 -12 -18 -18 0 -7 -8 -21 -17 -31
-15 -17 -15 -20 -3 -28 23 -15 30 -12 40 15 11 28 26 31 53 11 32 -25 -3 -64
-45 -50 -14 4 -21 0 -25 -15 -4 -15 -13 -21 -34 -21 -17 0 -31 6 -34 13 -2 6
-6 67 -8 134 -5 124 1 147 33 139 8 -2 42 -7 75 -11z m-1245 -9 c0 -7 -11 -16
-25 -18 -27 -6 -32 1 -13 20 16 16 38 15 38 -2z m-3615 -6 c3 -5 1 -10 -4 -10
-6 0 -11 5 -11 10 0 6 2 10 4 10 3 0 8 -4 11 -10z m159 1 c10 -15 -3 -35 -34
-53 -41 -23 -49 -4 -14 33 29 31 39 35 48 20z m1286 -14 c0 -30 -6 -36 -31
-30 -12 3 -19 14 -19 29 0 19 5 24 25 24 20 0 25 -5 25 -23z m153 17 c9 -10
-4 -34 -19 -34 -8 0 -14 6 -14 13 0 22 19 35 33 21z m2117 2 c0 -2 3 -12 7
-21 5 -14 2 -16 -18 -10 -13 5 -30 8 -36 8 -14 0 -17 10 -6 20 7 8 53 10 53 3z
m918 -8 c19 -19 14 -28 -12 -28 -29 0 -44 19 -25 31 18 12 23 11 37 -3z
m-2938 -7 c0 -5 11 -11 25 -13 l25 -3 -23 -28 -22 -28 -38 27 c-39 26 -39 38
-2 47 32 8 35 7 35 -2z m-1493 -22 c4 -13 11 -18 21 -14 11 4 12 2 4 -8 -15
-17 1 -42 22 -34 14 5 15 3 6 -13 -15 -28 -93 -51 -83 -23 5 13 3 13 -14 2
-11 -7 -28 -9 -37 -6 -16 6 -15 10 6 36 13 15 27 26 32 23 12 -7 26 20 20 41
-3 9 0 17 6 17 7 0 14 -9 17 -21z m223 6 c0 -8 -9 -15 -20 -15 -22 0 -27 15
-7 23 21 9 27 7 27 -8z m217 -6 c-11 -7 -16 -17 -12 -29 3 -11 0 -20 -9 -23
-12 -5 -15 2 -14 28 1 31 4 35 27 35 23 -1 24 -2 8 -11z m1483 7 c0 -3 -4 -8
-10 -11 -5 -3 -10 -1 -10 4 0 6 5 11 10 11 6 0 10 -2 10 -4z m-1532 -41 c0
-23 -2 -24 -13 -8 -13 18 -11 33 4 33 5 0 9 -11 9 -25z m882 10 c0 -8 -2 -15
-4 -15 -2 0 -6 7 -10 15 -3 8 -1 15 4 15 6 0 10 -7 10 -15z m-1145 -5 c3 -5 1
-10 -4 -10 -6 0 -11 5 -11 10 0 6 2 10 4 10 3 0 8 -4 11 -10z m2255 -17 c0
-20 -3 -24 -11 -16 -7 7 -9 19 -6 27 10 24 17 19 17 -11z m-2550 7 c0 -5 -9
-10 -19 -10 -11 0 -23 5 -26 10 -4 6 5 10 19 10 14 0 26 -4 26 -10z m713 4
c13 -5 12 -9 -5 -26 -16 -16 -18 -22 -7 -29 10 -6 6 -11 -15 -19 -35 -13 -44
-7 -25 17 8 9 9 14 4 11 -6 -4 -17 -3 -25 3 -13 7 -13 9 0 9 8 0 21 9 28 20
13 21 21 24 45 14z m447 -17 c0 -22 -11 -27 -31 -14 -26 16 -24 27 6 27 14 0
25 -6 25 -13z m442 -12 c13 -29 44 -36 33 -7 -4 11 -3 13 3 7 5 -5 12 -22 16
-37 5 -23 4 -26 -11 -21 -10 3 -23 10 -29 14 -6 5 -14 6 -17 3 -3 -4 -9 5 -13
20 -3 14 -10 26 -15 26 -5 0 -9 5 -9 10 0 20 31 9 42 -15z m1876 13 c-6 -18
-28 -21 -28 -4 0 9 7 16 16 16 9 0 14 -5 12 -12z m-3398 -8 c0 -5 -5 -10 -11
-10 -5 0 -7 5 -4 10 3 6 8 10 11 10 2 0 4 -4 4 -10z m313 -30 c-1 -14 0 -19 3
-12 6 13 24 7 24 -7 0 -10 -39 -24 -57 -22 -7 1 -13 -3 -13 -9 0 -21 -16 -9
-27 21 -12 30 -11 31 6 15 28 -26 44 -20 39 14 -4 24 -1 30 11 28 10 -2 15
-12 14 -28z m2257 21 c0 -4 -7 -16 -15 -27 -15 -19 -15 -19 -30 0 -8 10 -12
22 -10 26 6 9 55 10 55 1z m-2382 -13 c7 -7 8 -17 2 -29 -7 -11 -7 -20 0 -24
15 -9 0 -35 -21 -35 -21 0 -25 15 -8 26 6 3 9 22 7 40 -4 36 1 41 20 22z
m1458 -14 c-9 -9 -20 -13 -24 -9 -4 3 2 13 12 21 25 18 33 10 12 -12z m74 12
c0 -16 -28 -42 -36 -33 -3 3 -3 15 1 26 7 23 35 29 35 7z m-1295 -6 c3 -5 2
-10 -4 -10 -5 0 -13 5 -16 10 -3 6 -2 10 4 10 5 0 13 -4 16 -10z m832 -5 c0
-8 -4 -15 -9 -15 -4 0 -8 7 -8 15 0 8 4 15 8 15 5 0 9 -7 9 -15z m227 0 c19
-15 19 -15 -5 -15 -13 0 -35 3 -48 7 -23 6 -23 7 -5 14 28 11 37 10 58 -6z
m3106 -60 c0 -61 -3 -75 -15 -75 -9 0 -18 7 -21 15 -4 8 -12 15 -20 15 -19 0
-18 16 4 53 15 27 43 64 50 66 1 1 2 -33 2 -74z m-3539 38 c-12 -20 -14 -14
-5 12 4 9 9 14 11 11 3 -2 0 -13 -6 -23z m69 1 c0 -9 -5 -14 -12 -12 -18 6
-21 28 -4 28 9 0 16 -7 16 -16z m-1198 -12 c-6 -2 -12 -10 -12 -18 0 -8 -7
-14 -15 -14 -12 0 -15 26 -6 47 1 0 11 -1 23 -5 12 -3 17 -7 10 -10z m1103 8
c-3 -5 -12 -10 -18 -10 -7 0 -6 4 3 10 19 12 23 12 15 0z m182 -16 c-9 -9 -28
6 -21 18 4 6 10 6 17 -1 6 -6 8 -13 4 -17z m-1242 -4 c3 -5 2 -10 -4 -10 -5 0
-13 5 -16 10 -3 6 -2 10 4 10 5 0 13 -4 16 -10z m440 0 c3 -6 -1 -13 -10 -16
-19 -8 -30 0 -20 15 8 14 22 14 30 1z m-356 -16 c2 -2 -10 -4 -27 -4 -18 0
-32 5 -32 10 0 9 47 4 59 -6z m2485 -21 c-4 -16 -7 -28 -8 -29 -1 -1 -18 1
-39 4 l-38 4 22 24 c12 13 33 24 46 24 20 0 23 -3 17 -27z m-204 -3 c43 -22
59 -40 36 -40 -19 0 -22 -26 -4 -32 12 -4 3 -28 -10 -28 -4 0 -13 13 -19 29
-23 63 -143 78 -200 25 -32 -30 -37 -26 -25 17 9 39 29 46 125 48 40 1 70 -5
97 -19z m1378 -16 c58 -25 146 -44 235 -49 181 -11 236 -17 327 -31 52 -8 97
-17 99 -20 5 -5 -140 -7 -472 -7 -215 0 -250 2 -265 17 -17 15 -53 24 -39 9 4
-3 2 -12 -4 -20 -9 -10 -15 -11 -26 -2 -10 9 -17 9 -25 1 -8 -8 -47 -12 -102
-12 -51 0 -85 4 -78 8 7 5 10 16 6 26 -5 13 -9 14 -21 4 -11 -9 -17 -9 -24 3
-8 10 -8 8 -4 -10 5 -15 3 -21 -3 -17 -6 3 -12 1 -14 -5 -2 -5 -11 -7 -21 -4
-9 4 -14 11 -12 16 3 5 -14 7 -39 5 -25 -2 -43 0 -41 5 3 4 1 10 -4 14 -5 3
-15 -3 -20 -12 -10 -17 -12 -17 -21 -1 -6 10 -18 14 -30 11 -14 -4 -20 0 -20
11 0 9 -4 16 -10 16 -5 0 -7 -6 -4 -13 3 -8 -2 -14 -11 -14 -18 0 -19 9 -3 25
17 17 67 15 75 -3 5 -14 7 -14 22 -1 24 21 161 39 246 31 55 -5 87 -3 127 9
46 14 66 18 126 25 7 0 29 -6 50 -15z m-3138 -8 c0 -8 3 -21 6 -29 4 -12 0
-14 -15 -10 -12 3 -18 10 -14 20 5 12 1 14 -15 9 -12 -3 -32 -9 -43 -12 -15
-4 -20 -2 -17 7 3 8 22 17 44 20 21 3 42 7 47 8 4 0 7 -5 7 -13z m55 -12 c-4
-36 -25 -56 -25 -23 0 14 5 30 12 37 16 16 17 16 13 -14z m2285 15 c0 -6 7 -9
15 -5 17 6 75 -12 75 -25 0 -4 -11 -20 -26 -34 -14 -14 -22 -30 -19 -35 9 -14
-19 -12 -34 3 -11 10 -13 9 -7 -1 6 -9 -4 -12 -38 -10 -25 0 -46 5 -46 9 0 4
-2 14 -5 21 -3 8 11 30 31 51 38 38 54 46 54 26z m-2776 -19 c-10 -4 -23 -5
-28 -2 -13 7 16 21 32 14 13 -4 12 -7 -4 -12z m4379 3 l32 -17 -39 -7 c-21 -3
-47 -4 -57 -2 -17 5 -17 7 4 24 27 23 22 22 60 2z m-4295 -12 c3 -10 0 -11 -9
-5 -8 5 -20 9 -27 10 -28 5 -26 16 2 12 16 -1 32 -9 34 -17z m32 9 c0 -5 -5
-10 -11 -10 -5 0 -7 5 -4 10 3 6 8 10 11 10 2 0 4 -4 4 -10z m2250 -38 c0 -9
-11 -34 -25 -55 -22 -32 -29 -36 -45 -27 -21 11 -23 23 -12 52 5 13 11 15 22
8 28 -18 43 -12 38 15 -4 17 -1 25 8 25 8 0 14 -8 14 -18z m255 8 c-3 -5 -10
-10 -16 -10 -5 0 -9 5 -9 10 0 6 7 10 16 10 8 0 12 -4 9 -10z m1973 -27 c45
-3 82 -8 82 -12 0 -4 -62 -8 -137 -10 -76 -1 -135 1 -131 5 20 20 56 32 78 27
14 -2 62 -7 108 -10z m-1704 -18 c-4 -9 -17 -15 -33 -14 -20 1 -22 2 -6 6 11
3 24 9 30 14 13 13 15 11 9 -6z m86 0 c10 -12 10 -15 -3 -15 -8 0 -17 7 -21
15 -3 8 -2 15 3 15 5 0 14 -7 21 -15z m-427 -11 c12 -12 -13 -42 -44 -53 -39
-14 -50 -14 -26 0 9 5 17 17 17 26 0 12 -7 14 -35 9 -32 -6 -44 1 -28 17 8 9
108 9 116 1z m-578 -50 c18 -23 24 -39 18 -45 -7 -7 -16 -1 -26 15 -9 13 -32
29 -52 36 -40 13 -38 30 4 30 21 0 36 -10 56 -36z m432 7 c14 -23 5 -35 -14
-20 -14 12 -18 39 -5 39 4 0 13 -9 19 -19z m-521 -51 c8 0 14 -4 14 -8 0 -5
-13 -7 -30 -4 -32 5 -38 20 -17 41 10 10 13 8 15 -8 2 -12 10 -21 18 -21z
m389 29 c4 -6 5 -12 2 -15 -7 -7 -37 7 -37 17 0 13 27 11 35 -2z m-160 -38
c-3 -6 -11 -8 -17 -5 -6 4 -5 9 3 15 16 10 23 4 14 -10z"/>
<path d="M2414 8641 c-8 -9 -4 -220 6 -245 13 -35 49 -34 82 2 23 25 88 118
88 127 0 2 -14 26 -31 54 -23 37 -38 51 -55 51 -13 0 -26 4 -29 10 -6 9 -51
10 -61 1z"/>
<path d="M3297 4353 c-3 -5 5 -16 18 -25 21 -16 22 -16 17 8 -4 23 -25 33 -35
17z"/>
<path d="M3380 4285 c0 -8 4 -15 10 -15 5 0 7 7 4 15 -4 8 -8 15 -10 15 -2 0
-4 -7 -4 -15z"/>
<path d="M3418 4223 c7 -3 16 -2 19 1 4 3 -2 6 -13 5 -11 0 -14 -3 -6 -6z"/>
<path d="M3320 4186 c0 -2 11 -6 25 -8 14 -3 25 -1 25 3 0 5 -11 9 -25 9 -14
0 -25 -2 -25 -4z"/>
<path d="M3346 4142 c-3 -6 -1 -14 5 -17 14 -9 20 -2 10 14 -6 8 -11 9 -15 3z"/>
<path d="M3306 4015 c-9 -26 -7 -32 5 -12 6 10 9 21 6 23 -2 3 -7 -2 -11 -11z"/>
<path d="M3265 3960 c-7 -11 2 -30 14 -30 5 0 11 9 14 20 5 21 -16 29 -28 10z"/>
<path d="M3315 3915 c-3 -8 -7 -22 -9 -29 -3 -10 0 -13 9 -9 8 3 14 16 13 29
-3 28 -7 30 -13 9z"/>
<path d="M3262 3900 c0 -14 2 -19 5 -12 2 6 2 18 0 25 -3 6 -5 1 -5 -13z"/>
<path d="M3293 3834 c0 -8 6 -14 14 -14 7 0 13 4 13 9 0 5 -6 11 -13 14 -8 3
-14 -1 -14 -9z"/>
<path d="M3180 3811 c0 -12 5 -21 10 -21 6 0 10 6 10 14 0 8 -4 18 -10 21 -5
3 -10 -3 -10 -14z"/>
<path d="M3200 3756 c0 -8 4 -17 9 -20 5 -4 7 3 4 14 -6 23 -13 26 -13 6z"/>
<path d="M3270 3743 c0 -9 3 -13 7 -10 3 4 11 0 17 -9 10 -13 12 -11 14 10 1
20 -3 26 -18 26 -12 0 -20 -7 -20 -17z"/>
<path d="M3291 3674 c0 -11 3 -14 6 -6 3 7 2 16 -1 19 -3 4 -6 -2 -5 -13z"/>
<path d="M3241 3544 c0 -11 3 -14 6 -6 3 7 2 16 -1 19 -3 4 -6 -2 -5 -13z"/>
<path d="M3235 3510 c-3 -5 -1 -10 4 -10 6 0 11 5 11 10 0 6 -2 10 -4 10 -3 0
-8 -4 -11 -10z"/>
<path d="M3240 3411 c0 -6 5 -13 10 -16 6 -3 10 -17 10 -31 0 -13 3 -24 8 -24
4 0 6 18 4 40 -3 26 -9 40 -18 40 -8 0 -14 -4 -14 -9z"/>
<path d="M2920 4464 c0 -8 5 -12 10 -9 6 4 8 11 5 16 -9 14 -15 11 -15 -7z"/>
<path d="M3076 4443 c-4 -11 -1 -11 14 -3 24 13 25 17 5 17 -8 0 -16 -6 -19
-14z"/>
<path d="M2978 4423 c0 -10 -2 -25 -3 -33 -3 -34 9 -30 21 6 17 48 17 44 -1
44 -8 0 -16 -8 -17 -17z"/>
<path d="M3144 4422 c3 -5 -1 -20 -9 -35 -13 -25 -12 -27 9 -27 19 0 21 4 18
35 -2 19 -8 35 -14 35 -5 0 -7 -4 -4 -8z"/>
<path d="M3070 4401 c0 -11 -4 -23 -10 -26 -13 -8 -13 -65 0 -65 18 0 32 40
19 56 -8 10 -8 14 0 14 14 0 15 27 1 35 -5 3 -10 -3 -10 -14z"/>
<path d="M2936 4387 c3 -10 9 -15 12 -12 3 3 0 11 -7 18 -10 9 -11 8 -5 -6z"/>
<path d="M2992 4315 c0 -16 2 -22 5 -12 2 9 2 23 0 30 -3 6 -5 -1 -5 -18z"/>
<path d="M3094 4326 c-10 -27 2 -43 14 -19 8 14 9 24 2 28 -6 3 -13 -1 -16 -9z"/>
<path d="M2790 4394 c0 -10 63 -84 72 -84 16 0 8 29 -18 59 -22 27 -54 42 -54
25z"/>
<path d="M2604 4322 c-44 -43 -123 -148 -134 -178 -11 -29 -36 -131 -51 -213
-5 -29 -14 -62 -19 -71 -16 -29 -62 -296 -58 -337 2 -27 8 -39 21 -41 15 -3
17 5 17 62 0 87 32 246 90 446 11 36 24 84 30 107 10 39 106 181 143 212 9 7
17 20 17 27 0 23 -26 16 -56 -14z"/>
<path d="M2567 4123 c-8 -10 -40 -92 -70 -183 -55 -168 -76 -273 -56 -285 16
-11 20 -2 35 77 7 40 20 98 29 127 16 59 81 218 97 238 11 14 4 43 -10 43 -5
0 -16 -8 -25 -17z"/>
<path d="M2382 4018 c-21 -28 -43 -81 -38 -94 9 -22 26 -16 37 13 6 16 17 36
26 45 15 17 12 48 -5 48 -5 0 -14 -6 -20 -12z"/>
<path d="M2835 3849 c-4 -6 -5 -13 -2 -16 7 -7 27 6 27 18 0 12 -17 12 -25 -2z"/>
<path d="M2761 3763 c-13 -47 -14 -63 -2 -63 14 0 19 12 27 58 8 54 -11 57
-25 5z"/>
<path d="M2416 3528 c-23 -72 -26 -551 -5 -658 20 -104 29 -130 46 -130 11 0
14 7 10 23 -37 165 -38 180 -41 522 0 50 6 116 13 149 13 60 9 106 -10 106 -5
0 -11 -6 -13 -12z"/>
<path d="M2321 3438 c-7 -19 -9 -55 -5 -88 3 -31 -4 -151 -16 -275 -22 -234
-26 -529 -9 -644 14 -90 74 -190 100 -164 8 8 3 23 -14 50 -14 22 -31 60 -38
84 -18 62 -19 517 -1 624 18 104 22 437 6 442 -7 2 -17 -11 -23 -29z"/>
<path d="M2876 3338 c-10 -49 -15 -228 -6 -233 20 -13 34 44 34 144 1 73 -3
106 -11 108 -7 3 -14 -6 -17 -19z"/>
<path d="M2467 2683 c-3 -5 -3 -23 2 -39 9 -34 41 -46 41 -16 0 25 -35 69 -43
55z"/>
<path d="M3084 2759 c-4 -8 -7 -24 -5 -36 2 -17 -1 -21 -13 -17 -9 4 -15 14
-14 23 2 10 -5 17 -19 19 -24 4 -31 -16 -12 -35 7 -7 0 -15 -25 -27 -20 -9
-36 -20 -36 -25 0 -17 13 -19 46 -5 31 13 37 13 50 -1 26 -25 40 -17 35 21 -1
7 8 14 19 17 25 6 26 28 2 58 -15 18 -20 20 -28 8z"/>
<path d="M2926 2732 c-9 -14 21 -35 40 -28 8 3 14 12 12 19 -6 15 -44 22 -52
9z"/>
<path d="M3000 2615 c-9 -11 -10 -19 -3 -26 14 -14 56 7 50 24 -6 19 -32 20
-47 2z"/>
<path d="M3953 2704 c-40 -31 -42 -59 -6 -96 22 -23 24 -30 13 -43 -15 -18 -9
-20 61 -30 37 -5 48 -3 52 10 4 8 17 15 30 15 29 0 87 58 87 87 0 12 -12 35
-26 52 -29 35 -86 43 -102 15 -8 -14 -10 -14 -21 0 -19 23 -51 19 -88 -10z
m67 -7 c0 -20 -9 -25 -31 -20 -15 4 -17 8 -8 19 15 18 39 18 39 1z"/>
<path d="M3856 2599 c-20 -39 -14 -49 30 -49 37 0 43 10 19 30 -8 7 -15 18
-15 26 0 27 -19 23 -34 -7z"/>
<path d="M4564 2659 c-10 -17 13 -36 27 -22 12 12 4 33 -11 33 -5 0 -12 -5
-16 -11z"/>
<path d="M4352 2638 c-52 -33 -36 -52 21 -25 26 12 35 31 19 41 -4 2 -22 -5
-40 -16z"/>
<path d="M4430 2646 c0 -10 9 -16 21 -16 24 0 21 23 -4 28 -10 2 -17 -3 -17
-12z"/>
<path d="M4502 2643 c2 -10 10 -18 18 -18 22 0 18 29 -3 33 -14 3 -18 -1 -15
-15z"/>
<path d="M4380 2595 c-7 -8 -23 -15 -36 -15 -31 0 -32 -26 -1 -34 37 -10 43
-7 56 21 14 31 1 52 -19 28z"/>
<path d="M4536 2603 c-11 -11 -6 -23 9 -23 8 0 15 4 15 9 0 13 -16 22 -24 14z"/>
<path d="M3075 2520 c-8 -13 4 -32 16 -25 12 8 12 35 0 35 -6 0 -13 -4 -16
-10z"/>
<path d="M3264 2499 c-9 -16 12 -33 31 -25 14 5 15 9 5 21 -15 18 -26 19 -36
4z"/>
<path d="M3097 2473 c-4 -3 -2 -12 4 -19 6 -8 9 -20 6 -28 -9 -23 12 -34 49
-26 32 7 36 6 45 -17 11 -29 33 -26 37 6 5 30 -13 50 -30 33 -7 -7 -16 -8 -22
-3 -6 5 -22 11 -36 13 -19 2 -24 8 -22 26 3 21 -16 31 -31 15z"/>
<path d="M3230 2445 c0 -8 7 -15 15 -15 8 0 15 7 15 15 0 8 -7 15 -15 15 -8 0
-15 -7 -15 -15z"/>
<path d="M3094 2379 c-10 -17 13 -36 27 -22 12 12 4 33 -11 33 -5 0 -12 -5
-16 -11z"/>
<path d="M3034 2339 c-10 -17 13 -36 27 -22 12 12 4 33 -11 33 -5 0 -12 -5
-16 -11z"/>
<path d="M1905 2396 c-12 -75 10 -141 59 -180 39 -32 78 -56 90 -56 20 0 0 33
-33 57 -57 40 -73 74 -75 152 -1 53 -4 66 -18 69 -13 2 -18 -7 -23 -42z"/>
<path d="M3642 2448 c-7 -7 -12 -16 -12 -20 0 -12 28 -10 36 3 10 17 -10 31
-24 17z"/>
<path d="M3846 2453 c-15 -16 -5 -35 16 -30 12 4 28 1 35 -5 10 -8 17 -8 25 0
14 14 0 35 -22 29 -9 -2 -24 -1 -32 4 -8 5 -18 6 -22 2z"/>
<path d="M3947 2443 c-2 -5 -3 -24 -3 -43 1 -24 6 -35 16 -35 15 0 30 49 22
73 -5 13 -29 17 -35 5z"/>
<path d="M4016 2431 c-7 -11 18 -33 27 -24 4 3 7 12 7 20 0 15 -26 18 -34 4z"/>
<path d="M3864 2389 c-8 -14 11 -33 25 -25 6 4 11 14 11 22 0 16 -26 19 -36 3z"/>
<path d="M3930 2350 c-12 -7 -12 -12 -2 -22 9 -9 15 -9 24 0 16 16 -2 34 -22
22z"/>
<path d="M4700 2325 c0 -8 5 -15 10 -15 6 0 10 7 10 15 0 8 -4 15 -10 15 -5 0
-10 -7 -10 -15z"/>
<path d="M4650 2320 c0 -5 5 -10 10 -10 6 0 10 5 10 10 0 6 -4 10 -10 10 -5 0
-10 -4 -10 -10z"/>
<path d="M4797 2323 c-12 -11 -8 -21 12 -26 15 -3 18 -11 14 -27 -4 -17 -2
-21 8 -18 22 7 23 48 2 63 -21 16 -27 18 -36 8z"/>
<path d="M4730 2294 c0 -9 5 -14 12 -12 18 6 21 28 4 28 -9 0 -16 -7 -16 -16z"/>
<path d="M4602 2268 c4 -45 26 -48 25 -4 -1 23 -6 36 -15 36 -9 0 -12 -10 -10
-32z"/>
<path d="M4696 2273 c-11 -11 -6 -23 9 -23 8 0 15 4 15 9 0 13 -16 22 -24 14z"/>
<path d="M4645 2241 c-3 -5 -1 -12 5 -16 12 -7 30 2 30 16 0 12 -27 12 -35 0z"/>
<path d="M4775 2239 c-10 -15 3 -25 16 -12 7 7 7 13 1 17 -6 3 -14 1 -17 -5z"/>
<path d="M4727 2213 c-9 -15 -2 -56 10 -60 7 -3 11 9 11 32 0 32 -10 46 -21
28z"/>
<path d="M4825 2150 c3 -5 8 -10 11 -10 2 0 4 5 4 10 0 6 -5 10 -11 10 -5 0
-7 -4 -4 -10z"/>
<path d="M795 2360 c-14 -22 9 -29 88 -27 65 2 82 5 82 17 0 12 -17 16 -82 18
-49 2 -84 -1 -88 -8z"/>
<path d="M985 2350 c-14 -23 9 -31 75 -27 74 4 101 14 79 28 -19 12 -146 11
-154 -1z"/>
<path d="M1702 2118 c3 -7 17 -14 32 -16 20 -3 27 0 24 10 -3 7 -17 14 -32 16
-20 3 -27 0 -24 -10z"/>
<path d="M540 2090 c0 -5 5 -10 10 -10 6 0 10 5 10 10 0 6 -4 10 -10 10 -5 0
-10 -4 -10 -10z"/>
<path d="M1045 2011 c-3 -5 -1 -12 5 -16 5 -3 10 1 10 9 0 18 -6 21 -15 7z"/>
<path d="M2660 2127 c-49 -26 -117 -30 -144 -8 -24 20 -76 -21 -76 -60 0 -31
27 -42 35 -14 17 53 15 52 26 33 7 -12 6 -25 -2 -39 -7 -15 -8 -24 0 -32 13
-13 39 7 43 35 5 32 28 35 28 4 0 -33 23 -34 47 -1 13 18 22 22 33 15 13 -8
13 -11 1 -19 -19 -12 -6 -41 18 -41 28 0 36 18 17 39 -13 14 -14 24 -7 45 14
34 33 34 29 -1 -4 -33 25 -40 30 -7 3 24 -14 74 -25 74 -5 0 -28 -11 -53 -23z"/>
<path d="M2557 1994 c-14 -15 -6 -34 14 -34 14 0 19 5 17 17 -3 18 -20 27 -31
17z"/>
<path d="M2483 1974 c-7 -18 11 -39 26 -30 17 11 13 46 -4 46 -9 0 -18 -7 -22
-16z"/>
<path d="M3246 2081 c-29 -30 -28 -51 3 -51 9 0 25 -6 35 -13 16 -12 16 -14 2
-26 -24 -20 -20 -43 7 -39 14 2 23 11 25 27 3 18 8 22 28 18 13 -2 29 2 35 10
8 9 15 10 24 3 15 -12 45 -3 45 14 0 17 -47 59 -58 52 -5 -3 -33 3 -63 14 -29
11 -54 20 -54 20 -1 0 -14 -13 -29 -29z m59 -31 c8 -13 -5 -13 -25 0 -13 8
-13 10 2 10 9 0 20 -4 23 -10z"/>
<path d="M3464 2066 c-9 -24 3 -47 21 -40 19 8 19 28 0 44 -12 10 -16 9 -21
-4z"/>
<path d="M3203 2004 c-8 -21 13 -42 28 -27 13 13 5 43 -11 43 -6 0 -13 -7 -17
-16z"/>
<path d="M3341 1941 c-14 -26 10 -48 29 -26 13 16 7 45 -9 45 -6 0 -15 -9 -20
-19z"/>
<path d="M4205 2072 c-11 -2 -27 -10 -35 -17 -8 -6 -23 -15 -32 -18 -10 -4
-18 -13 -18 -22 0 -8 8 -15 18 -15 9 0 27 -3 39 -6 17 -5 25 -1 30 12 4 11 16
26 26 34 16 13 17 18 6 26 -8 6 -23 9 -34 6z"/>
<path d="M4273 2068 c-10 -11 -6 -20 18 -42 30 -29 64 -30 53 -1 -3 8 -11 15
-16 15 -5 0 -17 9 -27 21 -14 18 -19 19 -28 7z"/>
<path d="M4220 2001 c0 -5 7 -22 15 -37 20 -38 19 -51 -5 -71 -27 -23 -25 -37
6 -51 38 -18 113 3 125 35 5 13 9 31 9 39 0 24 -28 16 -42 -13 -7 -14 -23 -30
-35 -34 -21 -8 -22 -6 -16 41 4 37 1 56 -11 75 -16 24 -46 35 -46 16z"/>
<path d="M4337 1983 c-14 -13 -6 -33 13 -33 13 0 20 7 20 20 0 19 -20 27 -33
13z"/>
<path d="M4514 1719 c-3 -6 -2 -15 2 -19 12 -12 38 5 30 19 -9 14 -23 14 -32
0z"/>
<path d="M4576 1722 c-3 -6 -3 -17 0 -25 3 -8 0 -18 -5 -22 -14 -8 -4 -25 14
-25 10 0 13 11 12 34 -3 38 -11 53 -21 38z"/>
<path d="M4627 1714 c-8 -8 1 -24 14 -24 5 0 9 7 9 15 0 15 -12 20 -23 9z"/>
<path d="M4645 1641 c-7 -12 12 -24 25 -16 11 7 4 25 -10 25 -5 0 -11 -4 -15
-9z"/>
<path d="M4569 1638 c-1 -2 -3 -20 -4 -40 -2 -27 2 -38 12 -38 9 0 13 8 11 23
-2 17 3 23 20 25 31 5 23 26 -11 30 -15 2 -28 2 -28 0z"/>
<path d="M4686 1621 c-3 -5 1 -14 8 -20 16 -13 32 2 21 19 -8 12 -22 13 -29 1z"/>
<path d="M4567 1524 c-9 -10 2 -24 19 -24 8 0 14 7 14 15 0 15 -21 21 -33 9z"/>
<path d="M3120 1744 c0 -9 5 -14 12 -12 18 6 21 28 4 28 -9 0 -16 -7 -16 -16z"/>
<path d="M3645 1731 c-11 -5 -29 -18 -40 -30 -16 -19 -17 -24 -5 -32 11 -6 19
-3 29 11 7 11 21 20 31 20 20 0 43 23 33 33 -8 9 -23 8 -48 -2z"/>
<path d="M3755 1703 c-13 -19 -14 -28 -6 -36 9 -9 18 -4 35 18 23 29 25 29 44
12 25 -23 18 -61 -14 -76 -35 -15 -30 -33 8 -29 26 2 36 10 49 37 18 39 14 78
-10 90 -9 5 -33 9 -53 9 -28 0 -41 -6 -53 -25z"/>
<path d="M3692 1693 c2 -10 10 -18 18 -18 22 0 18 29 -3 33 -14 3 -18 -1 -15
-15z"/>
<path d="M3732 1648 c-7 -7 -12 -16 -12 -20 0 -12 28 -10 36 3 10 17 -10 31
-24 17z"/>
<path d="M3585 1640 c-9 -15 5 -32 22 -26 9 4 22 1 30 -5 11 -9 17 -9 26 0 9
9 9 14 -3 21 -8 5 -18 7 -22 4 -4 -3 -16 0 -27 6 -13 7 -22 7 -26 0z"/>
<path d="M3725 1570 c-3 -6 1 -13 10 -16 19 -8 30 0 20 15 -8 14 -22 14 -30 1z"/>
<path d="M2895 1792 c-13 -13 -3 -33 15 -30 10 2 26 -6 34 -17 18 -25 29 -16
21 18 -5 18 -15 26 -36 29 -16 3 -31 2 -34 0z"/>
<path d="M2797 1755 c-17 -23 -17 -26 -1 -50 20 -30 19 -30 50 -6 25 19 25 19
74 -6 28 -14 50 -31 50 -38 0 -7 7 -18 15 -25 12 -10 16 -9 21 3 7 19 -23 67
-42 67 -7 0 -18 8 -23 19 -14 25 -50 33 -91 21 -26 -7 -31 -7 -22 2 7 7 12 18
12 25 0 21 -24 14 -43 -12z"/>
<path d="M2795 1640 c-4 -6 -3 -16 3 -22 6 -6 12 -6 17 2 4 6 3 16 -3 22 -6 6
-12 6 -17 -2z"/>
<path d="M2923 1585 c-24 -24 -30 -45 -12 -45 15 0 69 56 62 64 -11 11 -27 5
-50 -19z"/>
<path d="M2774 1569 c-10 -17 13 -36 27 -22 12 12 4 33 -11 33 -5 0 -12 -5
-16 -11z"/>
<path d="M4150 1285 c0 -10 7 -15 18 -13 21 4 19 22 -2 26 -10 2 -16 -3 -16
-13z"/>
<path d="M3972 1272 c-6 -2 -12 -9 -12 -15 0 -6 -7 -18 -16 -28 -11 -12 -14
-25 -9 -36 5 -10 9 -25 9 -33 1 -20 46 -26 46 -6 0 8 -4 18 -10 21 -18 11 -12
55 8 56 9 1 26 2 37 3 31 2 24 29 -10 36 -17 4 -36 5 -43 2z"/>
<path d="M4094 1255 c-4 -8 -12 -15 -20 -15 -8 0 -14 -9 -14 -20 0 -23 28 -27
36 -5 4 8 12 15 20 15 8 0 14 9 14 20 0 23 -28 27 -36 5z"/>
<path d="M4066 1175 c-3 -9 1 -18 10 -22 19 -7 28 2 21 22 -8 19 -23 19 -31 0z"/>
<path d="M4013 1144 c-3 -8 -1 -20 6 -27 14 -14 47 15 37 32 -10 16 -36 13
-43 -5z"/>
<path d="M790 1645 c-11 -13 -10 -14 4 -9 9 3 16 10 16 15 0 13 -6 11 -20 -6z"/>
<path d="M853 1638 c3 -10 1 -21 -4 -24 -5 -3 -9 -14 -9 -25 0 -13 -4 -18 -12
-13 -7 4 -8 3 -4 -4 12 -20 26 -13 26 11 0 14 6 24 14 24 8 0 12 -6 9 -12 -2
-7 3 -15 13 -19 12 -5 15 -2 10 11 -4 9 -2 19 4 23 8 5 7 12 -4 22 -8 9 -13
17 -11 20 2 2 -5 4 -16 4 -14 0 -19 -5 -16 -18z"/>
<path d="M974 1653 c4 -7 3 -13 -3 -13 -6 0 -8 -7 -4 -16 5 -15 7 -15 16 1 6
12 5 21 -3 28 -10 9 -11 9 -6 0z"/>
<path d="M1976 1652 c-3 -5 1 -15 9 -22 16 -14 20 -3 6 19 -5 8 -11 9 -15 3z"/>
<path d="M645 1640 c3 -5 8 -10 11 -10 2 0 4 5 4 10 0 6 -5 10 -11 10 -5 0 -7
-4 -4 -10z"/>
<path d="M685 1640 c3 -5 8 -10 11 -10 2 0 4 5 4 10 0 6 -5 10 -11 10 -5 0 -7
-4 -4 -10z"/>
<path d="M1240 1641 c0 -6 4 -13 10 -16 6 -3 7 1 4 9 -7 18 -14 21 -14 7z"/>
<path d="M1420 1633 c0 -5 5 -15 10 -23 8 -13 10 -13 10 2 0 11 5 15 15 12 8
-4 15 -1 15 5 0 6 -11 11 -25 11 -14 0 -25 -3 -25 -7z"/>
<path d="M1620 1630 c0 -5 5 -10 10 -10 6 0 10 5 10 10 0 6 -4 10 -10 10 -5 0
-10 -4 -10 -10z"/>
<path d="M1030 1610 c0 -5 7 -10 16 -10 8 0 12 5 9 10 -3 6 -10 10 -16 10 -5
0 -9 -4 -9 -10z"/>
<path d="M1130 1610 c0 -5 5 -10 11 -10 5 0 7 5 4 10 -3 6 -8 10 -11 10 -2 0
-4 -4 -4 -10z"/>
<path d="M1763 1605 c-13 -5 -23 -13 -23 -18 0 -7 38 0 49 9 12 10 -8 18 -26
9z"/>
<path d="M1830 1610 c0 -5 7 -10 15 -10 8 0 15 5 15 10 0 6 -7 10 -15 10 -8 0
-15 -4 -15 -10z"/>
<path d="M1530 1602 c0 -5 6 -16 13 -27 10 -13 16 -15 21 -6 4 6 2 18 -4 26
-13 16 -30 20 -30 7z"/>
<path d="M1870 1600 c0 -5 5 -10 10 -10 6 0 10 5 10 10 0 6 -4 10 -10 10 -5 0
-10 -4 -10 -10z"/>
<path d="M550 1579 c0 -5 5 -7 10 -4 6 3 10 8 10 11 0 2 -4 4 -10 4 -5 0 -10
-5 -10 -11z"/>
<path d="M1627 1570 c-3 -13 0 -20 9 -20 15 0 19 26 5 34 -5 3 -11 -3 -14 -14z"/>
<path d="M1755 1550 c3 -5 11 -10 16 -10 6 0 7 5 4 10 -3 6 -11 10 -16 10 -6
0 -7 -4 -4 -10z"/>
<path d="M1840 1420 c0 -5 5 -10 11 -10 5 0 7 5 4 10 -3 6 -8 10 -11 10 -2 0
-4 -4 -4 -10z"/>
<path d="M2101 1407 c-8 -10 -7 -14 4 -14 8 0 15 6 15 14 0 7 -2 13 -4 13 -2
0 -9 -6 -15 -13z"/>
<path d="M1700 1400 c0 -5 7 -10 16 -10 8 0 12 5 9 10 -3 6 -10 10 -16 10 -5
0 -9 -4 -9 -10z"/>
<path d="M1834 1375 c-8 -21 4 -35 24 -28 15 6 16 5 2 -13 -14 -18 -14 -18 2
-5 11 8 28 11 43 7 21 -5 25 -12 25 -41 0 -26 3 -33 15 -29 8 4 17 -1 21 -10
3 -9 14 -16 23 -17 10 0 11 -2 4 -6 -15 -5 -17 -23 -4 -23 21 0 21 35 0 51
-15 11 -20 23 -17 36 4 17 2 19 -15 15 -13 -3 -18 -1 -13 6 4 6 -4 16 -16 23
-13 7 -27 18 -31 26 -5 7 -12 11 -17 8 -5 -3 -11 -1 -15 5 -9 15 -25 12 -31
-5z"/>
<path d="M1780 1345 c0 -16 16 -20 24 -6 3 5 -1 11 -9 15 -9 3 -15 0 -15 -9z"/>
<path d="M2156 1333 c-6 -14 -5 -15 5 -6 7 7 10 15 7 18 -3 3 -9 -2 -12 -12z"/>
<path d="M1790 1305 c-7 -9 -8 -15 -2 -15 5 0 12 7 16 15 3 8 4 15 2 15 -2 0
-9 -7 -16 -15z"/>
<path d="M2246 1305 c4 -8 10 -12 15 -9 14 8 10 24 -6 24 -9 0 -12 -6 -9 -15z"/>
<path d="M2241 1248 c-9 -24 4 -52 20 -42 13 7 11 64 -1 64 -6 0 -14 -10 -19
-22z"/>
<path d="M2595 1421 c-8 -15 3 -31 21 -31 9 0 14 7 12 17 -4 20 -24 28 -33 14z"/>
<path d="M2506 1371 c-3 -5 1 -14 9 -21 8 -7 15 -18 15 -26 0 -20 19 -27 36
-13 14 11 14 15 2 23 -8 6 -17 19 -21 29 -7 18 -32 23 -41 8z"/>
<path d="M2607 1324 c-14 -14 -7 -35 11 -32 9 2 17 10 17 17 0 16 -18 25 -28
15z"/>
<path d="M2492 1233 c2 -10 10 -18 18 -18 8 0 16 8 18 18 2 12 -3 17 -18 17
-15 0 -20 -5 -18 -17z"/>
<path d="M2376 1225 c-6 -17 16 -31 33 -21 13 9 2 36 -14 36 -7 0 -16 -7 -19
-15z"/>
<path d="M2436 1185 c-3 -9 1 -18 10 -22 19 -7 28 2 21 22 -8 19 -23 19 -31 0z"/>
<path d="M2502 1151 c-15 -9 -5 -41 13 -41 8 0 17 5 21 11 9 15 -18 40 -34 30z"/>
<path d="M2390 1100 c0 -13 7 -20 20 -20 13 0 20 7 20 20 0 13 -7 20 -20 20
-13 0 -20 -7 -20 -20z"/>
<path d="M1090 1320 c0 -5 5 -10 11 -10 5 0 7 5 4 10 -3 6 -8 10 -11 10 -2 0
-4 -4 -4 -10z"/>
<path d="M1105 1290 c3 -5 8 -10 11 -10 2 0 4 5 4 10 0 6 -5 10 -11 10 -5 0
-7 -4 -4 -10z"/>
<path d="M3516 1284 c-11 -30 33 -60 49 -34 8 13 -13 50 -29 50 -8 0 -17 -7
-20 -16z"/>
<path d="M905 1370 c-3 -5 -1 -10 4 -10 6 0 11 5 11 10 0 6 -2 10 -4 10 -3 0
-8 -4 -11 -10z"/>
<path d="M3270 1335 c0 -8 7 -15 15 -15 8 0 15 7 15 15 0 8 -7 15 -15 15 -8 0
-15 -7 -15 -15z"/>
<path d="M3161 1326 c-12 -14 -5 -26 16 -26 15 0 18 26 4 34 -5 3 -14 0 -20
-8z"/>
<path d="M3317 1334 c-9 -10 2 -24 19 -24 8 0 14 7 14 15 0 15 -21 21 -33 9z"/>
<path d="M3221 1276 c-9 -10 -9 -16 -1 -21 17 -10 37 12 24 25 -8 8 -15 6 -23
-4z"/>
<path d="M3117 1274 c-9 -10 2 -24 19 -24 8 0 14 7 14 15 0 15 -21 21 -33 9z"/>
<path d="M3350 1255 c0 -8 7 -15 15 -15 8 0 15 7 15 15 0 8 -7 15 -15 15 -8 0
-15 -7 -15 -15z"/>
<path d="M3184 1219 c-10 -17 13 -36 27 -22 12 12 4 33 -11 33 -5 0 -12 -5
-16 -11z"/>
<path d="M3330 1220 c-12 -7 -12 -12 -2 -22 9 -9 15 -9 24 0 16 16 -2 34 -22
22z"/>
<path d="M3115 1200 c-8 -12 20 -24 35 -15 6 3 8 11 5 16 -8 12 -32 12 -40 -1z"/>
<path d="M3340 1135 c0 -10 7 -15 18 -13 21 4 19 22 -2 26 -10 2 -16 -3 -16
-13z"/>
<path d="M4851 1351 c-17 -11 -7 -41 13 -41 22 0 30 20 15 36 -9 8 -19 10 -28
5z"/>
<path d="M4900 1250 c0 -15 5 -20 18 -18 9 2 17 10 17 18 0 8 -8 16 -17 18
-13 2 -18 -3 -18 -18z"/>
<path d="M4852 1177 c-10 -11 -9 -17 3 -27 24 -20 45 4 24 26 -14 13 -17 13
-27 1z"/>
<path d="M4895 1110 c-4 -7 -3 -16 3 -22 14 -14 45 -2 40 15 -6 16 -34 21 -43
7z"/>
<path d="M4394 1019 c-10 -17 13 -36 27 -22 12 12 4 33 -11 33 -5 0 -12 -5
-16 -11z"/>
<path d="M4467 1023 c-3 -4 -4 -24 -3 -43 1 -25 7 -36 19 -38 16 -3 17 1 11
35 -7 40 -18 60 -27 46z"/>
<path d="M4525 1020 c-4 -6 -3 -16 3 -22 6 -6 12 -6 17 2 4 6 3 16 -3 22 -6 6
-12 6 -17 -2z"/>
<path d="M4581 1011 c-8 -14 -7 -22 4 -31 19 -16 35 -4 35 26 0 29 -25 32 -39
5z"/>
<path d="M4654 1009 c-8 -14 18 -31 30 -19 9 9 0 30 -14 30 -5 0 -12 -5 -16
-11z"/>
<path d="M4574 929 c-10 -17 13 -36 27 -22 12 12 4 33 -11 33 -5 0 -12 -5 -16
-11z"/>
<path d="M4460 896 c0 -15 24 -28 34 -19 13 14 5 33 -14 33 -11 0 -20 -6 -20
-14z"/>
<path d="M4571 857 c-12 -15 -5 -27 16 -27 7 0 13 9 13 20 0 23 -13 26 -29 7z"/>
<path d="M4630 806 c0 -9 7 -16 16 -16 17 0 14 22 -4 28 -7 2 -12 -3 -12 -12z"/>
<path d="M2502 1004 c-12 -8 -22 -24 -22 -34 0 -54 -35 -68 -51 -20 -8 22 -17
30 -34 30 -34 0 -39 -16 -16 -46 27 -34 26 -42 -3 -55 -29 -13 -39 -44 -21
-59 10 -9 16 -6 24 9 17 30 74 38 116 15 l34 -18 46 46 c36 37 45 53 45 80 0
21 -7 42 -18 51 -23 21 -71 22 -100 1z"/>
<path d="M2443 718 c-23 -11 -32 -38 -13 -38 21 0 71 31 65 40 -8 12 -24 12
-52 -2z"/>
<path d="M2383 664 c-7 -19 2 -28 22 -21 19 8 19 23 0 31 -9 3 -18 -1 -22 -10z"/>
<path d="M2380 579 c0 -25 33 -22 38 4 2 12 -3 17 -17 17 -15 0 -21 -6 -21
-21z"/>
<path d="M2455 590 c-8 -14 3 -30 21 -30 8 0 14 9 14 20 0 21 -24 28 -35 10z"/>
<path d="M2812 794 c4 -21 22 -23 26 -1 2 10 -3 17 -13 17 -10 0 -15 -6 -13
-16z"/>
<path d="M2945 801 c-3 -5 -1 -12 5 -16 12 -7 30 2 30 16 0 12 -27 12 -35 0z"/>
<path d="M3670 1005 c0 -8 7 -15 15 -15 8 0 15 7 15 15 0 8 -7 15 -15 15 -8 0
-15 -7 -15 -15z"/>
<path d="M3607 1004 c-14 -14 -7 -35 11 -32 9 2 17 10 17 17 0 16 -18 25 -28
15z"/>
<path d="M3736 991 c-7 -11 18 -33 27 -24 4 3 7 12 7 20 0 15 -26 18 -34 4z"/>
<path d="M3536 961 c-8 -12 21 -34 34 -26 17 11 11 35 -9 35 -11 0 -22 -4 -25
-9z"/>
<path d="M3754 929 c-10 -17 13 -36 27 -22 12 12 4 33 -11 33 -5 0 -12 -5 -16
-11z"/>
<path d="M3641 906 c-9 -10 -8 -16 4 -26 19 -16 41 1 32 24 -8 20 -21 20 -36
2z"/>
<path d="M3530 890 c0 -11 7 -20 15 -20 8 0 15 9 15 20 0 11 -7 20 -15 20 -8
0 -15 -9 -15 -20z"/>
<path d="M3752 858 c-18 -18 -14 -28 8 -28 11 0 20 6 20 14 0 21 -15 27 -28
14z"/>
<path d="M3565 841 c-8 -15 3 -31 21 -31 9 0 14 7 12 17 -4 20 -24 28 -33 14z"/>
<path d="M3660 815 c-10 -12 -9 -16 5 -21 19 -8 40 9 31 25 -10 15 -21 14 -36
-4z"/>
<path d="M1070 1012 c0 -4 6 -14 13 -21 10 -11 9 -12 -3 -6 -13 8 -13 7 -1 -8
16 -20 16 -20 30 -3 9 11 8 18 -4 30 -18 17 -35 21 -35 8z"/>
<path d="M1155 959 c-4 -6 -5 -12 -2 -15 2 -3 7 2 10 11 7 17 1 20 -8 4z"/>
<path d="M3784 566 c-9 -24 12 -44 28 -28 10 10 8 16 -5 29 -15 15 -17 15 -23
-1z"/>
<path d="M3937 694 c-14 -14 -7 -33 16 -40 12 -3 35 -16 50 -27 22 -15 27 -25
23 -42 -7 -29 21 -57 34 -35 5 8 6 19 2 24 -3 6 -5 23 -4 38 2 22 -3 31 -23
38 -14 5 -25 14 -25 19 0 5 -8 11 -17 14 -10 2 -25 8 -34 11 -8 4 -18 3 -22 0z"/>
<path d="M4174 619 c-3 -6 0 -17 8 -25 13 -13 16 -13 27 0 7 8 10 20 6 26 -8
13 -32 13 -41 -1z"/>
<path d="M4244 575 c-7 -18 3 -35 21 -35 21 0 28 19 15 35 -16 19 -29 19 -36
0z"/>
<path d="M3970 556 c0 -24 26 -38 40 -22 6 9 9 20 5 26 -9 15 -45 12 -45 -4z"/>
<path d="M4087 556 c-8 -20 20 -43 35 -28 14 14 3 42 -16 42 -7 0 -16 -6 -19
-14z"/>
<path d="M4164 559 c-3 -6 0 -17 8 -25 13 -13 16 -13 27 0 7 8 10 20 6 26 -8
13 -32 13 -41 -1z"/>
<path d="M4190 505 c-11 -13 -11 -19 2 -32 17 -16 38 -10 38 11 0 8 -6 19 -14
25 -10 9 -16 8 -26 -4z"/>
<path d="M4020 490 c0 -15 5 -20 18 -18 9 2 17 10 17 18 0 8 -8 16 -17 18 -13
2 -18 -3 -18 -18z"/>
<path d="M3153 673 c-20 -7 -15 -26 13 -46 23 -18 55 -17 53 0 -1 14 -54 50
-66 46z"/>
<path d="M3281 626 c-12 -14 -5 -26 16 -26 15 0 18 26 4 34 -5 3 -14 0 -20 -8z"/>
<path d="M3260 525 c0 -10 7 -15 18 -13 21 4 19 22 -2 26 -10 2 -16 -3 -16
-13z"/>
<path d="M4834 630 c4 -48 20 -70 37 -53 7 7 8 19 4 30 -4 10 -8 27 -9 38 -1
11 -9 21 -19 23 -14 3 -17 -3 -13 -38z"/>
<path d="M175 590 c-3 -5 -1 -10 4 -10 6 0 11 5 11 10 0 6 -2 10 -4 10 -3 0
-8 -4 -11 -10z"/>
<path d="M3677 407 c-3 -7 -1 -20 3 -28 7 -11 10 -10 16 4 4 10 2 23 -3 28 -7
7 -12 6 -16 -4z"/>
<path d="M3375 390 c-3 -5 -2 -10 4 -10 5 0 13 5 16 10 3 6 2 10 -4 10 -5 0
-13 -4 -16 -10z"/>
<path d="M3647 380 c3 -11 7 -20 9 -20 2 0 4 9 4 20 0 11 -4 20 -9 20 -5 0 -7
-9 -4 -20z"/>
<path d="M330 2505 c0 -8 7 -15 15 -15 8 0 15 7 15 15 0 8 -7 15 -15 15 -8 0
-15 -7 -15 -15z"/>
<path d="M1 2264 c0 -11 3 -14 6 -6 3 7 2 16 -1 19 -3 4 -6 -2 -5 -13z"/>
<path d="M184 2229 c-3 -6 -1 -16 5 -22 8 -8 11 -5 11 11 0 24 -5 28 -16 11z"/>
<path d="M108 1868 c5 -5 16 -8 23 -6 8 3 3 7 -10 11 -17 4 -21 3 -13 -5z"/>
<path d="M2225 770 c-3 -5 -1 -10 4 -10 6 0 11 5 11 10 0 6 -2 10 -4 10 -3 0
-8 -4 -11 -10z"/>
<path d="M2130 725 c0 -8 7 -15 16 -15 14 0 14 3 4 15 -7 8 -14 15 -16 15 -2
0 -4 -7 -4 -15z"/>
<path d="M1977 683 c-2 -5 -1 -21 2 -38 4 -20 9 -26 14 -17 5 6 5 12 1 12 -3
0 -1 7 6 15 6 8 9 19 5 25 -7 12 -22 13 -28 3z"/>
<path d="M2215 654 c-9 -14 -14 -28 -12 -31 3 -3 13 9 22 26 19 38 14 41 -10
5z"/>
<path d="M1980 589 c0 -11 5 -17 10 -14 6 3 10 13 10 21 0 8 -4 14 -10 14 -5
0 -10 -9 -10 -21z"/>
<path d="M2192 579 c-15 -24 -15 -46 0 -55 8 -5 9 0 6 14 -4 12 -3 22 2 22 11
0 21 28 12 34 -5 3 -13 -4 -20 -15z"/>
<path d="M2012 471 c4 -13 18 -16 19 -4 0 4 -5 9 -11 12 -7 2 -11 -2 -8 -8z"/>
<path d="M1866 438 c3 -4 11 -5 19 -1 21 7 19 12 -4 10 -11 0 -18 -5 -15 -9z"/>
<path d="M980 421 c0 -11 -3 -26 -6 -35 -5 -13 2 -16 34 -16 23 0 44 5 47 10
4 6 -5 10 -19 10 -14 0 -26 6 -26 13 0 8 -4 7 -10 -3 -6 -9 -10 -10 -10 -3 0
6 5 15 10 18 12 7 4 25 -11 25 -5 0 -9 -9 -9 -19z"/>
<path d="M910 415 c-10 -13 -9 -15 9 -15 11 0 21 4 21 9 0 18 -18 21 -30 6z"/>
<path d="M1170 403 c0 -10 4 -14 8 -8 4 6 11 13 16 18 5 4 2 7 -7 7 -10 0 -17
-8 -17 -17z"/>
<path d="M1376 411 c-4 -7 -5 -15 -2 -18 9 -9 19 4 14 18 -4 11 -6 11 -12 0z"/>
<path d="M1780 399 c0 -6 -9 -9 -20 -6 -11 3 -20 1 -20 -4 0 -5 14 -9 30 -9
20 0 30 5 30 15 0 8 -4 15 -10 15 -5 0 -10 -5 -10 -11z"/>
<path d="M1245 390 c3 -5 8 -10 11 -10 2 0 4 5 4 10 0 6 -5 10 -11 10 -5 0 -7
-4 -4 -10z"/>
<path d="M1300 390 c0 -5 5 -10 10 -10 6 0 10 5 10 10 0 6 -4 10 -10 10 -5 0
-10 -4 -10 -10z"/>
<path d="M366 376 c3 -9 11 -16 16 -16 13 0 5 23 -10 28 -7 2 -10 -2 -6 -12z"/>
<path d="M1080 380 c0 -5 5 -10 10 -10 6 0 10 5 10 10 0 6 -4 10 -10 10 -5 0
-10 -4 -10 -10z"/>
<path d="M1835 381 c-3 -6 3 -9 14 -8 11 0 17 5 15 9 -7 11 -22 10 -29 -1z"/>
<path d="M1975 380 c-3 -5 -1 -10 4 -10 6 0 11 5 11 10 0 6 -2 10 -4 10 -3 0
-8 -4 -11 -10z"/>
<path d="M300 370 c0 -5 5 -10 11 -10 5 0 7 5 4 10 -3 6 -8 10 -11 10 -2 0 -4
-4 -4 -10z"/>
<path d="M600 370 c0 -5 5 -10 10 -10 6 0 10 5 10 10 0 6 -4 10 -10 10 -5 0
-10 -4 -10 -10z"/>
</g>
</svg>
