<?xml version="1.0" standalone="no"?>
<!DOCTYPE svg PUBLIC "-//W3C//DTD SVG 20010904//EN"
 "http://www.w3.org/TR/2001/REC-SVG-20010904/DTD/svg10.dtd">
<svg version="1.0" xmlns="http://www.w3.org/2000/svg"
 width="500.000000pt" height="878.000000pt" viewBox="0 0 500.000000 878.000000"
 preserveAspectRatio="xMidYMid meet">
<metadata>
Created by potrace 1.15, written by Peter Selinger 2001-2017
</metadata>
<g transform="translate(0.000000,878.000000) scale(0.100000,-0.100000)"
fill="#000000" stroke="none">
<path d="M0 6841 l0 -1938 191 1 c105 1 192 -1 195 -6 3 -4 -30 -8 -73 -10
-76 -3 -78 -4 -78 -28 0 -25 1 -25 78 -24 53 1 77 -2 74 -10 -2 -7 -41 -10
-120 -7 -64 1 -150 0 -191 -4 -71 -7 -76 -9 -76 -30 0 -21 4 -23 37 -20 38 3
268 7 331 6 17 -1 32 -5 32 -11 0 -6 -73 -10 -200 -10 l-200 0 0 -25 0 -25
202 0 c111 0 198 -3 194 -7 -4 -4 -62 -8 -129 -9 -285 -3 -267 -1 -267 -29 l0
-25 206 6 c158 5 205 3 199 -6 -4 -6 -24 -11 -44 -9 -20 1 -109 1 -198 0
l-161 -1 -1 -80 c-1 -79 0 -80 24 -80 14 0 25 -4 25 -10 0 -5 -11 -10 -25 -10
-18 0 -25 -5 -25 -19 0 -26 21 -29 144 -23 91 4 106 2 101 -10 -6 -16 -108
-34 -126 -22 -5 3 -34 2 -64 -1 l-55 -7 0 -43 c0 -40 2 -44 27 -48 l28 -4 -27
-2 c-21 -1 -28 -6 -28 -21 0 -17 8 -19 68 -22 37 -2 135 0 217 3 139 6 165 5
154 -5 -4 -3 -289 -15 -396 -16 -38 0 -43 -3 -43 -24 l0 -24 208 5 c114 2 213
6 220 8 6 2 12 0 12 -5 0 -6 -26 -11 -57 -11 -32 -1 -62 -2 -68 -4 -5 -1 -79
-3 -162 -3 l-153 -2 0 -100 0 -100 29 0 c31 0 49 -14 31 -25 -6 -4 -8 -11 -4
-16 7 -12 331 -6 342 6 4 4 7 12 7 18 0 17 54 21 60 5 6 -17 35 -399 35 -463
l0 -50 -76 -2 c-52 -1 -84 -7 -102 -19 -22 -14 -51 -17 -174 -17 l-148 1 0
-34 c0 -28 4 -34 21 -34 11 0 30 -5 41 -11 14 -8 27 -8 42 -1 33 16 111 21
129 8 20 -16 87 -8 87 9 0 7 -6 16 -13 19 -6 4 -1 4 13 1 14 -3 59 -10 100
-16 41 -6 78 -14 82 -17 3 -4 8 -43 10 -86 l3 -79 -242 2 c-133 0 -248 -2
-257 -5 -9 -3 -16 -13 -16 -21 0 -11 22 -14 123 -13 347 3 402 1 381 -15 -22
-16 -58 -20 -49 -5 4 6 -6 10 -24 10 -16 0 -33 -5 -36 -11 -4 -6 -14 -8 -23
-4 -10 4 -22 -2 -33 -16 -11 -14 -18 -18 -23 -10 -4 6 -2 11 5 11 8 0 8 4 -1
15 -7 8 -17 12 -23 8 -6 -4 -26 -6 -44 -5 -41 3 -89 -21 -98 -49 -5 -16 -10
-18 -18 -10 -7 7 -12 19 -12 28 0 10 -9 17 -25 18 -14 1 -29 3 -35 5 -5 2 -22
0 -37 -4 -25 -7 -28 -13 -28 -52 0 -34 3 -42 15 -38 8 4 15 10 15 15 0 4 7 6
15 3 8 -4 15 -1 15 5 0 6 4 11 10 11 5 0 7 -13 4 -30 -5 -25 -3 -31 17 -39 19
-7 28 -5 41 10 10 12 18 15 20 8 3 -8 14 -3 29 12 14 14 32 23 44 21 29 -6 40
-19 27 -34 -8 -11 -2 -14 29 -14 26 -1 38 3 36 10 -3 6 -9 10 -15 9 -16 -4
-22 25 -6 31 8 3 14 1 14 -4 0 -5 14 -19 31 -31 31 -22 32 -22 45 -4 19 26 18
33 -8 37 -21 3 -21 4 -3 18 11 9 16 10 11 3 -4 -8 -1 -13 8 -13 9 0 16 6 16
14 0 13 39 30 49 20 2 -2 -10 -18 -27 -36 -18 -17 -30 -33 -27 -37 3 -3 10 1
15 8 4 8 15 11 23 8 9 -3 17 -1 19 5 3 8 10 8 24 0 15 -8 24 -8 32 0 7 7 12 8
12 3 0 -6 7 -77 14 -160 8 -82 17 -204 21 -270 4 -66 9 -123 11 -127 3 -4 6
-42 9 -85 2 -43 9 -123 14 -178 5 -55 6 -104 2 -108 -7 -7 -169 -16 -311 -18
-19 0 -51 -1 -70 -1 -19 -1 -77 -1 -128 -2 l-92 -1 0 -758 c0 -503 3 -756 10
-752 6 3 10 2 10 -4 0 -5 -5 -13 -10 -16 -6 -3 -10 -24 -10 -45 l0 -38 86 -7
c107 -9 167 -2 344 43 67 16 81 24 129 73 55 56 80 65 221 85 19 3 86 12 148
20 136 19 215 51 292 119 41 37 58 45 76 41 17 -5 24 -2 24 9 0 8 13 21 29 29
16 9 54 38 85 67 l56 51 55 -7 c44 -5 55 -4 55 8 0 9 30 25 78 42 42 16 86 34
97 42 11 7 26 13 34 13 8 0 39 19 69 41 52 40 56 41 106 34 28 -4 67 -6 86 -5
84 4 234 4 350 0 69 -3 149 -1 179 4 69 11 66 -2 -15 -65 -32 -25 -64 -56 -70
-68 -20 -39 -57 -71 -113 -97 -31 -13 -64 -29 -73 -34 -10 -6 -28 -10 -40 -10
-13 -1 -34 -7 -48 -15 -14 -8 -52 -14 -84 -15 -58 0 -60 1 -108 51 l-49 51
-134 -3 c-74 -2 -137 0 -141 4 -13 13 -71 7 -83 -7 -7 -8 -27 -18 -44 -21 -77
-16 -101 -65 -51 -104 15 -12 32 -21 39 -21 25 0 45 -36 39 -69 -4 -17 -11
-34 -15 -37 -18 -11 -8 -34 28 -69 l38 -37 120 6 c147 8 260 -6 291 -35 24
-22 54 -20 86 8 14 13 19 13 42 -2 14 -10 26 -14 26 -11 0 4 9 2 21 -4 15 -8
34 -8 70 -1 47 10 52 9 68 -11 17 -20 19 -20 40 -6 12 9 31 14 42 11 10 -3 38
2 61 12 48 19 84 15 143 -15 48 -24 124 -26 205 -5 42 11 66 12 85 5 37 -14
77 -12 99 5 11 8 27 15 35 15 9 0 52 32 96 70 44 38 100 80 125 94 41 22 54
24 130 19 65 -4 99 0 144 14 53 16 61 22 68 52 l9 33 24 -26 c20 -22 33 -26
78 -26 61 0 84 17 111 84 9 21 34 58 56 82 22 24 40 49 40 57 0 7 12 20 28 29
15 9 40 28 55 42 15 14 33 26 38 26 6 0 7 5 4 10 -3 6 -1 10 4 10 6 0 11 -5
11 -11 0 -6 17 -9 43 -7 34 2 42 7 42 23 0 17 8 21 44 23 26 2 50 10 56 19 8
11 20 14 38 9 15 -3 48 -1 74 5 26 5 62 11 78 11 17 0 46 10 65 22 98 60 150
68 239 39 37 -12 55 -13 63 -5 12 12 76 5 96 -11 25 -20 33 9 30 107 l-3 98
-71 4 c-55 4 -74 2 -84 -10 -10 -13 -9 -17 10 -24 20 -8 19 -10 -19 -24 -66
-26 -50 -51 38 -61 38 -5 61 -13 75 -29 l21 -21 -25 15 c-17 10 -54 15 -113
16 -49 0 -91 2 -93 4 -2 2 8 33 22 68 21 51 25 73 20 114 -6 46 -5 49 7 26 11
-22 21 -26 82 -31 39 -3 74 -2 79 2 14 12 -3 29 -29 29 -28 0 -41 15 -23 27 7
4 33 10 58 13 l45 5 3 64 c2 36 -2 69 -8 75 -5 5 -31 15 -57 22 -42 11 -52 10
-85 -7 -20 -10 -52 -19 -70 -19 -50 0 -66 -14 -50 -42 9 -17 6 -15 -11 5 -17
20 -24 41 -25 73 -1 86 -84 184 -156 184 -45 0 -49 -9 -24 -48 16 -26 23 -30
39 -22 27 15 55 -3 79 -50 24 -47 25 -54 6 -47 -22 9 -37 -17 -30 -52 5 -23 3
-31 -8 -31 -8 0 -31 -26 -52 -57 -20 -32 -36 -52 -36 -45 0 20 -31 14 -37 -7
-3 -11 -11 -17 -18 -15 -7 3 -31 -4 -54 -16 -23 -11 -41 -18 -41 -16 0 2 29
25 65 51 46 33 71 44 85 40 14 -4 22 -1 27 12 3 10 14 36 24 58 15 36 23 78
20 113 -1 6 -10 12 -21 12 -12 0 -20 7 -20 16 0 13 -7 15 -31 10 -32 -6 -73
13 -83 40 -4 11 0 13 19 8 20 -5 27 -1 35 21 17 46 -24 77 -120 90 -30 4 -59
13 -65 20 -5 8 -19 15 -30 18 -11 3 4 5 33 6 29 0 61 -4 71 -11 26 -16 55 -3
48 22 -4 15 4 22 39 36 25 9 47 15 50 12 3 -3 -7 -8 -21 -12 -29 -7 -34 -36
-6 -36 10 0 32 5 49 11 26 9 39 7 74 -9 60 -29 158 -34 158 -8 0 8 -16 16 -42
20 -56 9 -148 39 -148 49 0 12 50 8 80 -8 28 -14 48 -16 223 -13 44 1 82 -3
85 -9 11 -17 42 -11 42 8 0 19 -22 26 -110 36 -104 10 -84 36 38 48 105 10 90
27 -20 21 -68 -3 -112 -12 -163 -31 -64 -24 -72 -25 -95 -12 -22 14 -34 13
-105 0 -44 -8 -100 -21 -124 -28 -29 -9 -52 -10 -68 -4 -13 5 -39 9 -57 9
l-34 0 5 48 c3 26 11 85 19 132 14 84 25 161 65 460 19 136 36 220 38 182 1
-17 51 15 51 34 0 18 13 24 37 18 23 -6 39 -44 19 -44 -6 0 -12 -9 -13 -20 -1
-11 4 -20 13 -20 8 0 14 5 14 10 0 6 7 10 17 10 15 0 15 2 -1 19 -17 19 -17
20 2 32 19 12 19 12 0 31 -19 19 -21 19 -39 2 -18 -16 -19 -16 -19 4 0 35 -20
25 -38 -18 -9 -22 -21 -40 -26 -40 -9 0 -4 31 9 64 6 13 5 17 -3 12 -7 -4 -14
3 -18 19 -11 43 -21 41 206 44 74 1 195 0 268 -4 l132 -5 0 31 0 31 -300 -4
c-231 -2 -299 0 -296 9 3 7 8 56 12 110 l7 98 76 -1 c122 -1 121 -1 86 -24
-16 -11 -46 -20 -66 -20 -35 0 -66 -20 -52 -33 13 -13 95 -7 122 9 26 16 32
15 86 -5 49 -19 70 -21 134 -15 76 6 103 20 77 39 -15 12 -44 12 -93 1 -20 -5
-47 -2 -70 5 -50 17 -60 26 -46 40 9 9 19 8 38 -5 25 -16 119 -22 268 -17 10
1 17 9 17 19 0 17 -10 19 -92 21 -51 1 -111 7 -133 12 -43 12 -193 28 -288 32
-47 1 -56 5 -51 17 3 8 10 65 15 125 5 61 13 135 18 165 5 30 20 143 35 250
14 107 30 211 34 230 l7 35 125 6 c136 7 210 17 210 28 0 4 16 15 35 24 39 19
43 28 18 48 -11 10 -40 13 -95 12 -140 -3 -81 38 67 47 l90 5 3 2193 2 2192
-2500 0 -2500 0 0 -1939z m2670 1772 c22 -7 -16 -33 -49 -33 -27 0 -81 -45
-81 -67 0 -8 12 -29 27 -48 21 -26 38 -36 71 -41 25 -4 41 -11 39 -18 -3 -7
-53 -11 -163 -11 -162 0 -198 10 -112 30 31 8 49 20 65 44 13 19 23 38 23 42
0 5 -14 24 -31 44 -25 29 -38 35 -69 35 -39 0 -56 12 -45 30 6 10 292 4 325
-7z m461 -1614 c60 -21 71 -37 64 -94 -10 -79 -9 -122 2 -243 13 -142 9 -162
-26 -162 -14 0 -43 -5 -64 -11 -54 -15 -67 -1 -67 70 0 31 5 85 11 121 6 36
11 76 12 89 2 19 10 27 41 35 44 12 67 39 49 57 -7 7 -21 8 -45 1 -40 -11 -65
-1 -77 31 -14 37 23 117 54 117 7 0 27 -5 46 -11z m-502 -196 c-14 -45 -18
-49 -58 -57 -33 -7 -50 -5 -76 7 -38 18 -48 43 -43 103 2 31 8 40 28 45 14 4
39 11 55 16 27 9 34 6 69 -29 l40 -38 -15 -47z m1489 57 c35 -22 41 -51 21
-108 -9 -27 -18 -33 -65 -43 -48 -11 -56 -10 -73 5 -32 29 -36 70 -11 121 20
41 25 45 58 45 21 0 52 -9 70 -20z m-2693 -50 c9 -10 19 -34 22 -55 6 -34 3
-40 -32 -69 -33 -28 -36 -35 -26 -53 14 -27 14 -58 0 -81 -8 -13 -7 -30 3 -67
22 -77 17 -85 -53 -85 -56 0 -60 2 -54 20 5 16 12 105 14 192 1 11 11 18 34
20 42 4 42 30 0 43 -73 24 -95 84 -48 131 20 20 33 24 75 23 33 -2 55 -8 65
-19z m373 -82 c17 -14 15 -53 -4 -94 -15 -32 -15 -36 0 -53 9 -10 14 -25 10
-35 -4 -10 1 -25 10 -35 15 -16 52 -189 43 -198 -2 -1 -14 -4 -28 -5 -22 -3
-24 1 -27 45 -3 53 -5 54 -77 60 l-50 4 2 68 c1 70 12 89 45 81 22 -5 53 18
44 32 -4 7 -23 12 -43 12 -48 0 -73 24 -73 68 0 56 24 75 85 67 27 -4 56 -12
63 -17z m369 -14 c47 -60 28 -116 -44 -127 -45 -8 -73 7 -73 38 0 13 -4 27
-10 30 -15 9 -12 48 6 74 14 20 23 22 58 18 28 -4 47 -14 63 -33z m348 -36
l30 -3 3 -97 3 -97 -67 1 c-43 1 -68 6 -71 14 -6 15 15 158 28 192 9 23 11 23
27 9 9 -8 31 -17 47 -19z m1646 -137 c9 -70 14 -141 11 -159 -4 -28 -9 -32
-72 -51 -37 -12 -78 -21 -91 -21 l-22 0 6 133 c7 145 21 217 40 198 16 -16 47
-13 54 5 6 16 44 35 53 27 3 -2 12 -62 21 -132z m-1976 -31 c0 -8 -9 -15 -21
-15 -11 -1 -33 -9 -47 -18 -21 -13 -27 -26 -28 -55 -1 -56 -13 -86 -33 -90
-17 -4 -18 3 -15 81 2 46 9 91 16 99 17 20 128 19 128 -2z m-1257 -16 c31 -20
32 -104 1 -133 -29 -27 -40 -118 -16 -127 18 -7 26 -40 31 -132 2 -41 -1 -65
-8 -67 -6 -2 -46 -6 -89 -10 l-79 -6 7 83 c4 46 8 99 10 118 2 31 6 36 37 41
45 7 58 16 58 40 0 25 -22 34 -49 20 -31 -17 -73 24 -72 69 1 70 14 94 62 112
46 17 69 16 107 -8z m2570 -41 l-3 -28 -136 -6 c-75 -4 -167 -12 -205 -18 -38
-6 -107 -16 -154 -21 -47 -6 -107 -14 -135 -17 -27 -4 -68 -7 -90 -7 -37 -1
-40 1 -43 28 -2 16 1 33 7 39 6 6 69 12 148 13 76 2 170 9 208 15 61 10 126
15 358 27 47 2 48 2 45 -25z m-1199 -3 c31 -5 131 -15 222 -22 159 -11 167
-12 166 -32 -1 -12 3 -31 7 -44 l8 -23 -164 7 c-89 4 -178 6 -197 5 -38 -1
-182 26 -193 37 -4 4 -4 21 0 37 12 43 54 52 151 35z m-551 -112 l3 -38 -140
0 -141 0 0 24 c0 31 13 35 94 30 54 -4 67 -2 72 11 5 12 18 15 58 13 l51 -3 3
-37z m-525 25 c9 -15 -5 -72 -19 -77 -15 -6 -133 -19 -179 -20 -29 -1 -30 1
-33 46 l-3 47 63 4 c128 7 167 7 171 0z m150 -8 c34 -5 37 -8 37 -40 l0 -34
-70 2 c-76 2 -81 7 -60 62 7 19 15 24 32 21 13 -3 40 -8 61 -11z m3138 -35
c10 -44 -6 -62 -58 -66 -124 -9 -163 -14 -203 -24 -25 -6 -63 -15 -85 -20 -68
-15 -118 -27 -170 -43 -263 -76 -338 -86 -349 -43 -15 54 -9 61 57 75 34 7 76
17 92 23 17 5 64 16 105 23 41 7 138 29 215 48 121 31 188 43 330 61 52 6 59
2 66 -34z m-1291 5 c0 -13 7 -45 16 -71 8 -25 14 -47 12 -49 -2 -1 -22 -5 -45
-8 -36 -4 -43 -2 -43 12 0 30 -22 41 -85 41 -34 0 -64 2 -67 5 -3 3 -2 20 1
38 7 32 7 32 85 39 44 4 84 9 90 12 25 10 36 5 36 -19z m-1040 -42 c-1 -10
-11 -31 -24 -46 -20 -25 -31 -29 -121 -38 -54 -6 -119 -9 -144 -7 -76 5 -229
-13 -242 -28 -18 -21 8 -26 115 -22 l94 3 5 -30 c3 -16 3 -32 0 -35 -2 -3 -38
-6 -78 -8 -77 -4 -100 -16 -89 -46 5 -13 22 -16 87 -16 44 0 78 -2 76 -5 -3
-2 -43 -7 -89 -10 -47 -4 -88 -9 -91 -11 -4 -2 -14 -1 -23 2 -12 5 -14 18 -10
67 3 42 1 70 -8 87 -12 22 -20 25 -73 25 l-60 0 0 45 0 45 100 -3 c61 -2 112
1 130 8 17 6 66 14 110 16 44 3 123 8 175 13 156 13 160 13 160 -6z m343 -10
c22 -4 27 -11 27 -34 0 -16 7 -32 16 -37 9 -5 14 -14 10 -21 -11 -17 -23 -13
-29 8 -4 16 -18 20 -96 26 -91 7 -91 7 -91 34 0 15 3 31 8 35 7 7 94 1 155
-11z m-1125 -43 l45 0 -6 -36 c-4 -24 -1 -44 10 -60 17 -27 14 -29 -44 -36
-26 -4 -30 -2 -22 9 6 7 9 20 5 28 -4 12 -17 14 -66 8 l-60 -6 0 53 0 53 46
-7 c26 -3 67 -6 92 -6z m3352 -19 c14 -9 35 -38 48 -63 l23 -46 -20 -39 c-35
-70 -44 -71 -148 -32 -30 11 -56 65 -49 100 5 28 41 87 61 101 14 10 55 0 85
-21z m-2440 5 c0 -7 -11 -23 -24 -35 -21 -20 -38 -24 -108 -27 l-83 -3 40 15
c22 8 49 18 60 21 11 4 26 14 32 24 15 20 83 24 83 5z m785 -36 c-28 -12 -83
-12 -90 0 -4 6 16 10 52 9 42 0 52 -3 38 -9z m-585 -17 c2 -2 -27 -3 -65 -2
-39 1 -76 0 -84 -2 -7 -2 -16 2 -18 8 -3 10 15 11 79 6 46 -3 85 -8 88 -10z
m1683 -45 c8 -61 -3 -73 -80 -91 -126 -29 -128 -29 -147 -8 -10 11 -15 25 -10
32 4 7 10 26 13 43 6 29 10 31 106 51 55 12 103 20 106 19 4 -2 9 -22 12 -46z
m-2138 32 c3 -5 3 -10 -2 -11 -4 0 -36 -2 -70 -6 -41 -3 -63 -1 -63 5 0 10 20
13 107 20 12 1 25 -2 28 -8z m1150 -218 c-3 -114 -7 -229 -10 -257 -5 -50 -12
-212 -20 -445 -2 -69 -9 -215 -15 -325 -5 -110 -12 -247 -15 -305 -8 -161 -14
-280 -25 -455 -6 -88 -15 -239 -20 -335 -6 -96 -12 -182 -14 -190 -3 -8 -7
-69 -10 -135 -19 -394 -24 -443 -42 -470 -12 -17 -14 -8 -14 81 0 56 4 191 9
300 6 109 13 260 16 334 3 74 8 171 10 215 3 44 9 193 15 330 5 138 14 342 19
455 6 113 13 310 16 438 3 128 8 238 10 245 2 7 6 77 9 157 5 138 17 441 20
525 1 33 5 40 26 45 14 4 28 5 32 3 4 -2 5 -97 3 -211z m146 176 c44 -1 43 -1
-11 -7 -65 -8 -70 -6 -70 21 0 20 1 20 18 5 11 -10 38 -18 63 -19z m-265 -250
c-4 -150 -11 -372 -16 -493 -6 -121 -15 -339 -20 -485 -23 -586 -30 -752 -40
-920 -5 -96 -12 -249 -15 -340 -6 -175 -22 -551 -30 -685 -2 -44 -7 -136 -10
-205 -33 -697 -43 -889 -49 -899 -6 -9 -11 -9 -21 -1 -15 12 -14 93 6 420 5
91 14 287 21 435 6 149 12 290 13 315 1 25 4 176 6 335 1 160 6 351 10 425 8
151 17 349 24 580 3 85 10 263 15 395 36 885 51 1351 44 1369 -5 14 12 22 49
25 17 1 18 -13 13 -271z m-651 -830 c-1 -596 -5 -1164 -9 -1263 -7 -225 -14
-581 -22 -1252 -4 -288 -11 -523 -15 -523 -5 0 -6 903 -3 2008 3 1230 2 2025
-4 2054 -11 54 -9 58 28 58 l27 0 -2 -1082z m-238 1016 l-3 -57 -85 -3 c-48
-2 -73 0 -59 4 37 11 32 37 -7 37 -40 0 -46 6 -34 38 9 24 16 26 73 30 35 2
75 4 91 5 27 2 27 2 24 -54z m328 -791 c-4 -467 -8 -882 -10 -923 -8 -215 -15
-495 -20 -745 -3 -154 -8 -336 -10 -405 -3 -69 -8 -303 -11 -520 -3 -217 -7
-424 -9 -460 -3 -36 -5 -94 -5 -129 0 -35 -3 -62 -6 -59 -9 10 0 1779 11 2023
2 39 4 396 6 795 1 399 5 840 8 980 4 140 3 263 -2 273 -6 14 -3 17 24 17 l32
0 -8 -847z m-2065 807 c63 -32 93 -90 46 -90 -33 0 -47 -21 -44 -65 2 -41 -11
-55 -55 -55 -24 0 -31 7 -45 40 -9 22 -25 43 -34 46 -30 9 -24 70 10 101 25
23 56 41 75 42 4 1 25 -8 47 -19z m2813 -25 c-7 -21 -13 -19 -13 6 0 11 4 18
10 14 5 -3 7 -12 3 -20z m-1846 -76 c2 -114 3 -290 2 -314 -1 -11 1 -38 4 -60
3 -22 9 -263 13 -535 4 -272 8 -531 9 -575 8 -254 15 -1381 10 -1407 -16 -72
-22 12 -23 350 -1 196 -4 425 -7 507 -2 83 -7 254 -10 380 -3 127 -8 311 -10
410 -14 550 -18 769 -19 1033 0 162 1 296 3 298 17 17 26 -13 28 -87z m-182
34 c-3 -25 -6 -48 -8 -49 -2 -2 -41 -6 -88 -9 -46 -2 -106 -9 -134 -15 -27 -6
-95 -15 -150 -20 -55 -5 -147 -17 -205 -25 -58 -9 -114 -17 -125 -18 -29 -3
-35 67 -7 82 47 25 379 67 492 62 20 -1 54 5 75 12 22 7 60 15 85 16 24 1 46
4 49 7 14 14 20 -2 16 -43z m96 -10 c0 -32 2 -83 4 -113 4 -73 13 -522 20
-955 3 -192 7 -384 10 -425 5 -86 13 -581 20 -1280 3 -267 8 -677 11 -911 4
-276 3 -428 -3 -432 -7 -4 -13 83 -17 241 -4 136 -9 292 -11 347 -3 55 -7 285
-9 510 -6 447 -14 791 -21 900 -3 39 -7 176 -10 305 -4 129 -13 433 -20 675
-8 242 -18 602 -21 800 -4 198 -11 365 -15 371 -12 15 0 24 33 24 27 0 28 -1
29 -57z m2012 50 c-7 -2 -19 -2 -25 0 -7 3 -2 5 12 5 14 0 19 -2 13 -5z m-71
-71 c-10 -7 -12 -16 -6 -21 5 -6 152 -11 342 -12 234 -2 332 -5 329 -13 -3 -8
-102 -11 -323 -11 -237 0 -325 -3 -341 -12 -12 -7 -23 -13 -25 -13 -2 0 -2 29
0 64 3 61 5 64 21 48 16 -15 17 -18 3 -30z m872 -3 c-12 -474 -15 -572 -18
-578 -2 -3 -7 -71 -10 -151 -4 -80 -9 -176 -12 -215 -3 -38 -7 -95 -9 -125 -4
-54 -30 -466 -40 -645 -3 -49 -12 -178 -20 -285 -22 -289 -33 -446 -45 -630
-6 -91 -16 -212 -21 -269 -5 -58 -9 -113 -9 -123 0 -10 -5 -18 -11 -18 -12 0
-6 269 12 535 5 77 14 234 19 350 6 115 12 216 14 225 3 8 8 119 11 245 4 127
8 232 10 235 4 7 14 182 25 440 5 118 14 292 20 385 6 94 17 277 24 408 9 186
15 240 27 248 23 14 34 4 33 -32z m574 15 c9 -2 12 -33 11 -115 -1 -118 -12
-164 -37 -154 -9 3 -42 8 -75 12 -37 4 -61 11 -64 20 -9 23 38 204 63 245 5 7
69 2 102 -8z m-1255 -1 c-18 -2 -48 -2 -65 0 -18 2 -4 4 32 4 36 0 50 -2 33
-4z m74 1 c-3 -3 -12 -4 -19 -1 -8 3 -5 6 6 6 11 1 17 -2 13 -5z m80 0 c-3 -3
-12 -4 -19 -1 -8 3 -5 6 6 6 11 1 17 -2 13 -5z m94 -5 c-16 -6 -28 -6 -35 1
-7 7 1 10 25 9 32 0 33 -1 10 -10z m799 1 c30 -4 53 -8 50 -9 -17 -8 -69 -11
-175 -11 -130 1 -185 7 -185 22 0 10 225 9 310 -2z m-673 -6 c-3 -3 -12 -4
-19 -1 -8 3 -5 6 6 6 11 1 17 -2 13 -5z m199 -211 c-3 -120 -8 -261 -11 -313
-3 -52 -10 -201 -15 -330 -6 -129 -13 -269 -15 -310 -3 -41 -9 -167 -15 -280
-5 -113 -12 -243 -15 -290 -9 -160 -35 -635 -50 -910 -8 -151 -24 -419 -35
-595 -11 -176 -27 -444 -36 -595 -8 -151 -17 -281 -19 -288 -3 -6 -9 -12 -15
-12 -8 0 -10 20 -6 63 3 34 8 154 11 267 3 113 8 228 10 255 5 45 15 327 30
785 3 85 10 220 15 300 6 80 15 262 21 405 10 258 13 313 43 910 17 354 45
959 48 1054 1 51 -2 66 -16 76 -17 13 -17 13 1 18 10 3 31 5 47 6 l29 1 -7
-217z m-2209 31 c1 -82 5 -459 10 -839 12 -1003 7 -1871 -11 -1897 -13 -18
-14 -16 -18 29 -2 26 -5 197 -7 378 -1 182 -4 443 -6 580 -2 138 -7 608 -11
1045 -4 437 -11 805 -15 818 -6 15 -16 22 -27 20 -15 -3 -17 -16 -15 -108 0
-58 4 -319 8 -580 4 -261 9 -504 10 -540 6 -147 20 -1149 18 -1330 -2 -107 -3
-216 -3 -242 0 -40 -3 -46 -17 -41 -13 5 -15 2 -11 -15 4 -12 2 -24 -2 -27
-12 -7 -19 120 -25 485 -4 179 -8 354 -10 390 -2 36 -6 191 -10 345 -3 154
-10 408 -15 565 -14 420 -26 1028 -21 1097 1 8 27 13 79 15 42 2 82 3 87 3 6
-1 11 -60 12 -151z m240 -11 c9 -1348 0 -3833 -14 -3856 -17 -28 -22 58 -24
433 -1 228 -1 424 -1 435 3 180 2 684 -3 1165 -3 333 -8 904 -11 1269 -3 365
-8 670 -11 677 -9 25 6 44 34 44 l28 0 2 -167z m97 140 c6 -28 -1 -2382 -7
-2435 -2 -16 -4 -109 -5 -208 -2 -153 -4 -180 -17 -180 -8 0 -15 -7 -15 -17 0
-9 -3 -14 -6 -10 -9 9 -4 2853 5 2875 1 1 9 2 20 2 12 0 21 -9 25 -27z m2366
-16 c0 -9 -280 0 -290 9 -2 3 62 4 143 3 81 -2 147 -7 147 -12z m-837 -34 c18
-11 -6 -21 -29 -13 -14 6 -72 10 -129 10 -65 0 -106 4 -111 11 -4 8 31 9 127
4 74 -4 137 -9 142 -12z m155 -13 c39 -18 42 -22 42 -57 0 -62 -10 -81 -44
-93 -60 -19 -136 19 -136 69 0 45 45 98 85 100 6 0 29 -8 53 -19z m-2878 -4
c0 -8 3 -21 6 -29 3 -9 -3 -16 -16 -20 -29 -8 -20 -31 13 -35 15 -2 27 -8 27
-14 0 -6 -13 -8 -34 -4 -22 4 -62 -1 -112 -14 -42 -12 -80 -17 -84 -13 -4 4
-13 30 -19 57 -17 68 -11 71 177 84 31 2 42 -1 42 -12z m3409 -1 c3 -4 -27 -5
-67 -3 -39 2 -72 7 -72 12 0 9 128 1 139 -9z m94 -2 c-13 -2 -35 -2 -50 0 -16
2 -5 4 22 4 28 0 40 -2 28 -4z m-3972 -98 c26 -97 25 -102 -21 -125 -22 -11
-55 -34 -75 -51 -20 -18 -39 -28 -43 -25 -4 4 -9 66 -11 138 l-3 131 35 -7
c22 -4 38 -2 42 4 4 6 18 10 32 8 23 -3 28 -11 44 -73z m2802 68 c-7 -2 -19
-2 -25 0 -7 3 -2 5 12 5 14 0 19 -2 13 -5z m185 -10 c-10 -2 -26 -2 -35 0 -10
3 -2 5 17 5 19 0 27 -2 18 -5z m137 -2 c38 -8 37 -9 -22 -10 -34 0 -65 4 -68
9 -7 12 34 12 90 1z m662 3 c-3 -3 -12 -4 -19 -1 -8 3 -5 6 6 6 11 1 17 -2 13
-5z m148 -5 c-18 -5 -33 -5 -39 1 -7 7 4 10 30 9 39 -1 39 -1 9 -10z m-3350
-49 c-3 -5 -15 -10 -25 -10 -10 0 -22 5 -25 10 -4 6 7 10 25 10 18 0 29 -4 25
-10z m48 -7 c-7 -2 -19 -2 -25 0 -7 3 -2 5 12 5 14 0 19 -2 13 -5z m75 0 c-10
-2 -28 -2 -40 0 -13 2 -5 4 17 4 22 1 32 -1 23 -4z m3147 -8 c89 -14 395 -85
467 -109 121 -39 138 -50 138 -91 0 -19 -4 -35 -10 -35 -12 0 -179 48 -189 55
-5 2 -46 12 -92 21 -46 9 -94 23 -106 30 -12 8 -32 14 -44 14 -25 0 -163 25
-226 42 -37 9 -43 14 -43 37 0 34 17 52 44 46 12 -2 39 -7 61 -10z m-3635 -36
c0 -20 4 -21 63 -14 34 3 70 9 80 11 16 5 17 -6 17 -123 0 -71 4 -198 10 -283
5 -85 17 -297 25 -470 8 -173 17 -351 20 -395 7 -119 14 -276 20 -405 3 -63 9
-207 15 -320 29 -613 32 -692 21 -703 -22 -22 -29 9 -35 148 -3 77 -12 237
-20 355 -26 370 -36 519 -46 695 -15 262 -20 340 -30 480 -5 72 -12 173 -15
225 -2 52 -12 214 -21 360 -10 146 -17 294 -18 330 -1 63 -2 65 -29 68 -20 2
-35 -5 -55 -25 -15 -15 -38 -35 -51 -43 -13 -8 -45 -31 -72 -50 -26 -19 -71
-51 -99 -70 -29 -19 -97 -73 -153 -120 -159 -134 -177 -146 -188 -129 -5 8 -9
29 -9 47 0 37 7 45 124 142 144 119 187 151 254 187 37 19 78 45 92 57 34 30
83 65 93 66 4 0 7 -9 7 -21z m214 -10 c-3 -5 -10 -7 -15 -3 -5 3 -7 10 -3 15
3 5 10 7 15 3 5 -3 7 -10 3 -15z m256 2 c34 -6 15 -8 -77 -9 -75 -1 -123 2
-123 8 0 12 133 12 200 1z m-1117 -38 c-7 -2 -21 -2 -30 0 -10 3 -4 5 12 5 17
0 24 -2 18 -5z m205 0 c-15 -2 -42 -2 -60 0 -18 2 -6 4 27 4 33 0 48 -2 33 -4z
m3557 -110 c4 -56 4 -120 0 -143 l-7 -40 -71 7 c-40 3 -75 11 -79 16 -13 21 3
117 32 192 30 78 27 75 74 73 l44 -2 7 -103z m-2595 93 c0 -3 -4 -8 -10 -11
-5 -3 -10 -1 -10 4 0 6 5 11 10 11 6 0 10 -2 10 -4z m-157 -13 c-13 -2 -33 -2
-45 0 -13 2 -3 4 22 4 25 0 35 -2 23 -4z m-1023 -27 c0 -2 -7 -6 -15 -10 -8
-3 -15 -1 -15 4 0 6 7 10 15 10 8 0 15 -2 15 -4z m67 -2 c-3 -3 -12 -4 -19 -1
-8 3 -5 6 6 6 11 1 17 -2 13 -5z m818 -279 c2 -93 7 -195 10 -225 3 -30 10
-145 15 -255 13 -270 20 -386 25 -411 2 -11 7 -72 10 -135 3 -62 7 -161 10
-219 11 -227 15 -315 26 -590 15 -405 15 -400 8 -411 -3 -6 -9 49 -13 123 -4
73 -9 158 -11 188 -4 54 -18 298 -31 570 -4 74 -8 153 -9 175 -1 22 -5 99 -9
170 -4 72 -9 164 -12 205 -11 169 -26 442 -30 555 -14 341 -19 526 -14 538 8
22 20 -106 25 -278z m285 261 c0 -3 -4 -8 -10 -11 -5 -3 -10 -1 -10 4 0 6 5
11 10 11 6 0 10 -2 10 -4z m3385 -35 l90 -28 -3 -44 c-4 -59 -18 -73 -60 -58
-30 10 -31 12 -15 24 32 24 9 36 -119 62 -24 5 -27 9 -22 32 13 51 9 50 129
12z m-4430 -1 c-3 -5 -10 -10 -16 -10 -5 0 -9 5 -9 10 0 6 7 10 16 10 8 0 12
-4 9 -10z m88 3 c-7 -2 -21 -2 -30 0 -10 3 -4 5 12 5 17 0 24 -2 18 -5z m1337
-15 c0 -10 -127 -11 -133 0 -3 4 26 7 64 8 38 0 69 -3 69 -8z m335 -8 c7 -12
-19 -12 -55 0 -22 7 -21 8 12 9 20 1 40 -3 43 -9z m-715 -12 c0 -10 -24 -8
-65 2 -25 7 -23 8 17 7 27 -1 48 -5 48 -9z m-1110 -22 c0 -3 -4 -8 -10 -11 -5
-3 -10 -1 -10 4 0 6 5 11 10 11 6 0 10 -2 10 -4z m125 -5 c-5 -10 -94 -6 -103
4 -3 3 20 5 52 5 33 0 55 -4 51 -9z m45 -1 c0 -5 -7 -10 -15 -10 -8 0 -15 5
-15 10 0 6 7 10 15 10 8 0 15 -4 15 -10z m2400 3 c-50 -5 -74 -19 -66 -40 4
-9 -4 -13 -29 -13 -30 0 -35 3 -35 23 0 13 2 26 4 28 2 2 42 5 88 5 46 1 63
-1 38 -3z m-720 -13 c0 -5 -8 -10 -17 -10 -15 0 -16 2 -3 10 19 12 20 12 20 0z
m290 -6 c0 -2 -9 -4 -21 -4 -11 0 -18 4 -14 10 5 8 35 3 35 -6z m-645 -4 c-3
-5 -37 -10 -76 -10 -39 0 -69 4 -69 10 0 6 32 10 76 10 47 0 73 -4 69 -10z
m708 3 c-7 -2 -21 -2 -30 0 -10 3 -4 5 12 5 17 0 24 -2 18 -5z m2222 -13 c54
-21 44 -26 -17 -9 -21 5 -38 14 -38 19 0 13 -3 13 55 -10z m-3305 0 c0 -5 -4
-10 -10 -10 -5 0 -10 5 -10 10 0 6 5 10 10 10 6 0 10 -4 10 -10z m-1050 -24
c8 -2 -24 -4 -72 -5 -49 0 -88 3 -88 7 0 7 125 5 160 -2z m2690 5 c45 -1 70
-5 65 -10 -6 -6 -70 -7 -155 -3 -80 3 -129 9 -110 12 19 3 55 4 80 3 25 -1 79
-2 120 -2z m-2340 -58 l22 -58 -33 -25 c-18 -14 -57 -44 -87 -68 -30 -24 -57
-41 -60 -37 -4 3 -8 36 -10 74 l-4 67 68 51 c38 28 72 52 76 52 4 1 16 -25 28
-56z m1439 33 c-3 -3 -16 -2 -29 1 -22 6 -22 7 -4 14 18 6 43 -5 33 -15z m351
-8 c0 -11 -98 -10 -105 2 -3 6 16 9 50 8 30 -1 55 -5 55 -10z m-720 -8 c0 -6
-25 -9 -57 -8 l-58 1 55 7 c30 4 56 7 58 8 1 1 2 -2 2 -8z m1978 4 c-7 -6
-360 -6 -366 1 -3 3 79 5 183 5 104 0 186 -3 183 -6z m946 -7 c17 -12 17 -20
2 -163 -9 -82 -21 -176 -26 -209 -6 -33 -21 -150 -35 -260 -14 -110 -30 -231
-35 -270 -5 -38 -14 -110 -20 -160 -6 -49 -14 -109 -19 -131 -4 -23 -9 -69
-10 -103 -1 -35 -6 -74 -12 -87 -5 -14 -9 -44 -9 -67 0 -23 -6 -76 -14 -117
-8 -41 -20 -122 -26 -180 -13 -125 -25 -219 -50 -400 -11 -74 -38 -270 -61
-435 -22 -165 -42 -302 -44 -305 -2 -3 -6 -42 -10 -85 -3 -44 -12 -123 -20
-175 -7 -52 -21 -161 -31 -242 -12 -106 -21 -149 -32 -153 -23 -8 -31 3 -26
38 19 145 40 326 84 727 6 52 17 140 25 195 18 124 53 409 66 535 5 52 15 140
23 195 8 55 17 125 21 155 27 262 47 433 55 475 5 28 12 84 15 125 4 41 13
113 21 160 7 47 16 110 18 140 3 30 10 102 16 160 6 58 13 130 16 160 2 30 11
102 19 160 8 58 19 148 25 200 6 52 14 103 16 113 6 20 33 22 58 4z m-1881
-14 c-7 -2 -19 -2 -25 0 -7 3 -2 5 12 5 14 0 19 -2 13 -5z m195 -3 c-10 -6
-31 -7 -55 -1 -38 9 -38 9 17 10 40 0 50 -2 38 -9z m77 0 c17 -7 15 -9 -12 -9
-18 -1 -33 4 -33 9 0 12 17 12 45 0z m-955 -10 c0 -5 -4 -10 -9 -10 -6 0 -13
5 -16 10 -3 6 1 10 9 10 9 0 16 -4 16 -10z m2659 -4 c7 -8 9 -31 6 -54 -2 -23
-12 -101 -20 -174 -9 -73 -20 -162 -26 -198 -12 -81 -24 -177 -44 -345 -15
-133 -35 -279 -60 -440 -8 -49 -21 -146 -30 -215 -9 -69 -20 -152 -25 -185 -5
-33 -12 -82 -16 -110 -4 -27 -8 -61 -11 -75 -2 -14 -8 -63 -13 -110 -5 -47
-20 -160 -34 -251 -14 -91 -28 -188 -31 -215 -7 -60 -15 -119 -21 -159 -7 -41
-18 -122 -53 -388 -17 -126 -32 -236 -35 -245 -3 -10 -7 -39 -11 -67 -3 -27
-10 -68 -15 -90 -5 -22 -10 -61 -10 -86 0 -29 -6 -51 -15 -59 -12 -10 -15 -10
-15 1 0 37 42 378 60 484 11 66 24 162 30 213 5 50 15 134 20 185 6 50 14 117
19 147 6 30 19 132 31 225 11 94 29 238 40 320 11 83 25 188 30 235 25 232 32
293 46 390 30 216 53 388 64 480 7 52 20 158 30 235 10 77 21 165 24 195 4 30
16 126 28 213 21 156 30 176 57 143z m-1144 -15 c39 -5 106 -10 150 -11 44 0
114 -8 155 -16 41 -8 88 -15 103 -15 26 0 28 -3 25 -32 l-3 -32 -100 3 c-55 2
-134 8 -175 14 -41 6 -124 15 -185 22 -103 11 -110 13 -113 34 -6 41 5 53 40
48 18 -3 65 -10 103 -15z m-1875 -17 c0 -5 -32 -9 -70 -10 -62 -1 -79 4 -66
17 8 8 136 1 136 -7z m703 9 c-18 -2 -48 -2 -65 0 -18 2 -4 4 32 4 36 0 50 -2
33 -4z m417 -13 c11 -7 0 -10 -38 -10 -33 0 -51 4 -47 10 8 13 65 13 85 0z
m-755 -10 c4 -6 -6 -10 -22 -10 -22 0 -25 2 -13 10 19 12 27 12 35 0z m1302
-6 c-3 -3 -12 -4 -19 -1 -8 3 -5 6 6 6 11 1 17 -2 13 -5z m-1003 -13 c4 -5 -3
-7 -14 -4 -23 6 -26 13 -6 13 8 0 17 -4 20 -9z m1916 -31 c-11 -11 -22 -20
-25 -20 -3 0 -5 9 -5 20 0 15 7 20 25 20 l25 0 -20 -20z m238 0 c4 -10 -16
-11 -94 -6 -136 10 -147 27 -14 22 73 -2 105 -7 108 -16z m-2813 0 c4 -6 -22
-9 -72 -8 l-78 1 65 7 c36 4 68 7 72 8 4 1 10 -2 13 -8z m365 -10 c0 -5 -10
-10 -22 -10 -19 0 -20 2 -8 10 19 13 30 13 30 0z m938 3 c-15 -2 -42 -2 -60 0
-18 2 -6 4 27 4 33 0 48 -2 33 -4z m2037 -16 c7 -6 -21 -7 -84 -3 -52 3 -118
6 -148 6 -34 0 -52 4 -48 10 8 13 266 1 280 -13z m-4435 -15 c-19 -15 -60 -52
-92 -83 l-57 -56 -113 -6 c-136 -8 -203 -9 -196 -2 2 3 45 7 94 10 166 10 185
14 223 47 57 48 155 117 166 117 6 0 -6 -12 -25 -27z m2968 11 c28 -3 52 -10
52 -15 0 -5 -8 -7 -17 -4 -35 10 -206 11 -210 1 -11 -31 -19 -34 -61 -23 -35
9 -42 14 -42 36 l0 25 113 -7 c61 -3 136 -9 165 -13z m-1241 -9 c-3 -3 -12 -4
-19 -1 -8 3 -5 6 6 6 11 1 17 -2 13 -5z m60 0 c-3 -3 -12 -4 -19 -1 -8 3 -5 6
6 6 11 1 17 -2 13 -5z m409 -13 c-7 -10 -73 -8 -83 3 -3 3 15 6 41 6 26 0 45
-4 42 -9z m54 -1 c0 -5 -4 -10 -9 -10 -6 0 -13 5 -16 10 -3 6 1 10 9 10 9 0
16 -4 16 -10z m973 -2 c42 -6 77 -15 77 -20 0 -5 -4 -7 -8 -4 -5 3 -49 6 -98
7 -94 2 -108 5 -99 20 8 12 34 12 128 -3z m552 3 c40 -9 40 -9 -15 -9 -30 0
-64 3 -75 8 -16 7 -13 9 15 9 19 0 53 -4 75 -8z m125 -11 c0 -12 -24 -12 -60
0 -21 7 -19 8 18 9 23 1 42 -3 42 -9z m-2455 -10 c-28 -12 -85 -12 -85 0 0 6
24 10 53 9 38 0 47 -3 32 -9z m-1400 -167 c13 -277 23 -454 36 -633 6 -74 12
-160 14 -190 7 -139 26 -461 29 -520 3 -36 7 -121 11 -190 3 -69 8 -151 10
-183 7 -86 8 -248 1 -255 -18 -17 -23 25 -61 573 -15 224 -20 282 -30 395 -3
30 -7 96 -10 145 -3 50 -12 178 -20 285 -8 107 -21 308 -29 445 l-15 250 21
23 c12 12 25 22 28 22 4 0 11 -75 15 -167z m4375 157 c10 -6 -9 -7 -55 -3 -38
3 -72 7 -74 9 -10 9 115 3 129 -6z m-1413 -7 c-20 -2 -52 -2 -70 0 -17 2 0 4
38 4 39 0 53 -2 32 -4z m683 -13 c-47 -6 -63 -3 -56 8 2 4 26 5 53 3 l48 -5
-45 -6z m120 0 c12 -8 10 -10 -10 -10 -14 0 -32 5 -40 10 -12 8 -10 10 10 10
14 0 32 -5 40 -10z m-3990 -10 c0 -6 -23 -9 -52 -8 l-53 1 45 7 c25 4 48 8 53
8 4 1 7 -2 7 -8z m3473 -12 c21 -11 21 -22 -1 -71 l-18 -39 -83 -2 c-99 -3
-116 7 -106 63 13 77 7 73 103 66 48 -4 95 -12 105 -17z m580 15 c-7 -2 -21
-2 -30 0 -10 3 -4 5 12 5 17 0 24 -2 18 -5z m-3660 -20 c-7 -2 -21 -2 -30 0
-10 3 -4 5 12 5 17 0 24 -2 18 -5z m44 1 c-3 -3 -12 -4 -19 -1 -8 3 -5 6 6 6
11 1 17 -2 13 -5z m4173 -4 c0 -11 -60 -11 -105 0 -23 6 -15 8 38 9 39 1 67
-3 67 -9z m-4490 -22 c0 -7 5 -67 10 -132 6 -66 15 -183 20 -260 6 -78 17
-220 25 -316 8 -96 22 -277 30 -401 9 -124 18 -246 20 -270 12 -155 16 -213
25 -374 6 -99 12 -211 15 -250 3 -38 9 -153 15 -255 13 -227 26 -446 45 -735
18 -268 19 -323 5 -309 -6 6 -15 76 -20 155 -5 79 -12 171 -15 204 -3 33 -12
139 -19 235 -8 96 -20 234 -26 305 -6 72 -13 178 -15 237 -2 59 -5 111 -8 115
-8 15 -35 343 -57 708 -6 88 -14 207 -20 265 -6 58 -15 164 -20 235 -17 217
-39 513 -50 653 -6 72 -13 139 -17 147 -6 18 23 55 44 55 7 0 13 -6 13 -12z
m3833 2 c40 0 58 -3 51 -10 -12 -12 -174 -1 -174 13 0 5 13 7 31 3 17 -3 59
-6 92 -6z m-2653 -20 c0 -5 -4 -10 -10 -10 -5 0 -10 5 -10 10 0 6 5 10 10 10
6 0 10 -4 10 -10z m2757 4 c-3 -3 -12 -4 -19 -1 -8 3 -5 6 6 6 11 1 17 -2 13
-5z m-3622 -20 c-47 -7 -173 -9 -169 -2 3 5 47 7 97 7 51 -1 83 -3 72 -5z
m272 -10 c-3 -3 -12 -4 -19 -1 -8 3 -5 6 6 6 11 1 17 -2 13 -5z m131 -1 c-15
-2 -42 -2 -60 0 -18 2 -6 4 27 4 33 0 48 -2 33 -4z m-813 -33 c4 -6 -29 -9
-92 -8 l-98 2 70 6 c39 4 80 7 92 8 12 1 25 -2 28 -8z m-248 -6 c-3 -3 -12 -4
-19 -1 -8 3 -5 6 6 6 11 1 17 -2 13 -5z m672 -8 c-3 -3 -39 -8 -79 -11 -40 -3
-77 -8 -81 -11 -11 -6 -31 5 -25 14 2 4 46 8 97 10 52 2 91 1 88 -2z m318 -2
c-3 -3 -12 -4 -19 -1 -8 3 -5 6 6 6 11 1 17 -2 13 -5z m2552 -33 c11 -7 12
-26 6 -92 -10 -107 -11 -116 -24 -284 -6 -77 -18 -205 -26 -285 -8 -80 -17
-183 -20 -230 -3 -47 -10 -121 -15 -165 -28 -239 -81 -757 -106 -1035 -8 -91
-16 -178 -19 -195 -3 -16 -10 -77 -15 -135 -5 -58 -17 -168 -25 -245 -8 -77
-20 -195 -27 -262 -11 -121 -12 -123 -36 -123 -21 0 -24 3 -18 28 3 15 10 83
16 152 10 133 31 352 55 590 29 281 35 346 40 440 14 233 37 503 60 715 13
127 32 316 40 420 8 105 17 201 20 215 5 25 28 265 40 418 7 85 16 97 54 73z
m-3281 -21 c5 -13 -334 -14 -343 -1 -8 14 40 17 200 14 86 -1 141 -6 143 -13z
m3395 -10 c-2 -45 -23 -272 -33 -370 -5 -52 -14 -140 -19 -195 -11 -108 -27
-258 -40 -370 -5 -38 -25 -225 -45 -415 -20 -190 -43 -401 -51 -470 -9 -69
-17 -135 -18 -147 0 -12 -3 -20 -6 -18 -8 8 -31 -17 -31 -33 0 -13 3 -12 16 4
14 17 15 12 10 -71 -4 -49 -19 -200 -36 -335 -16 -135 -33 -285 -39 -335 -19
-170 -35 -275 -43 -275 -10 0 -10 79 2 215 30 365 59 663 75 795 4 36 30 326
45 510 13 160 38 397 49 475 6 39 15 129 21 200 11 146 45 513 60 650 5 50 10
113 10 141 0 57 14 76 50 72 20 -2 25 -8 23 -28z m-2175 13 c-16 -2 -40 -2
-55 0 -16 2 -3 4 27 4 30 0 43 -2 28 -4z m1086 -14 c-22 -25 -10 -36 51 -44
22 -2 51 -6 65 -8 14 -2 -30 -4 -97 -5 -67 0 -126 -3 -132 -6 -5 -4 -12 -2
-16 4 -6 9 19 14 56 11 20 -2 43 24 34 39 -3 5 -14 10 -23 11 -23 1 26 17 57
18 24 1 24 1 5 -20z m-1884 1 c0 -6 -37 -10 -95 -10 -52 0 -95 4 -95 9 0 5 43
9 95 10 59 1 95 -3 95 -9z m280 0 c-20 -13 -70 -13 -70 0 0 6 19 10 43 10 31
0 38 -3 27 -10z m1213 -17 c-7 -2 -19 -2 -25 0 -7 3 -2 5 12 5 14 0 19 -2 13
-5z m-1108 -32 c13 -5 -12 -11 -73 -17 -94 -10 -131 0 -44 11 26 4 52 8 57 10
16 6 39 4 60 -4z m52 -7 c-3 -3 -12 -4 -19 -1 -8 3 -5 6 6 6 11 1 17 -2 13 -5z
m-499 -11 c-21 -2 -57 -2 -80 0 -24 2 -7 4 37 4 44 0 63 -2 43 -4z m1606 -23
c-12 -12 -94 -2 -94 11 0 4 16 6 35 4 19 -2 38 1 41 7 4 6 10 6 17 -1 8 -8 8
-14 1 -21z m916 6 c0 -9 -7 -12 -20 -9 -11 3 -20 9 -20 14 0 5 9 9 20 9 11 0
20 -6 20 -14z m234 4 c41 0 5 -11 -44 -14 -46 -2 -50 0 -33 11 10 8 27 12 38
9 11 -3 29 -6 39 -6z m-1911 -7 c-13 -2 -33 -2 -45 0 -13 2 -3 4 22 4 25 0 35
-2 23 -4z m-477 -32 c-3 -5 -24 -11 -46 -13 -42 -4 -42 7 0 15 43 8 51 7 46
-2z m102 2 c-10 -2 -28 -2 -40 0 -13 2 -5 4 17 4 22 1 32 -1 23 -4z m1670 -3
c24 0 41 -4 38 -8 -3 -5 -54 -8 -113 -6 -242 6 -249 6 -218 14 17 4 80 5 140
3 61 -1 129 -3 153 -3z m-2218 -10 c8 -5 11 -10 5 -10 -5 0 -17 5 -25 10 -8 5
-10 10 -5 10 6 0 17 -5 25 -10z m125 0 c-28 -12 -95 -12 -95 0 0 6 25 10 58 9
41 0 51 -3 37 -9z m738 -7 c-7 -2 -21 -2 -30 0 -10 3 -4 5 12 5 17 0 24 -2 18
-5z m93 -2 c-5 -8 -56 -3 -56 5 0 2 14 4 31 4 16 0 28 -4 25 -9z m720 2 c-7
-7 -87 -5 -95 3 -2 2 20 4 49 4 29 0 50 -3 46 -7z m1199 -16 c27 -21 8 -26
-65 -17 -36 4 -53 8 -38 9 15 0 30 6 33 11 9 14 48 12 70 -3z m-1565 -3 c-38
-8 -90 -9 -90 -2 0 4 24 7 53 7 28 -1 45 -3 37 -5z m1884 -15 c29 -7 29 -8 -8
-6 -24 1 -41 8 -44 16 -3 9 0 11 8 6 7 -5 27 -12 44 -16z m-546 4 c-10 -2 -26
-2 -35 0 -10 3 -2 5 17 5 19 0 27 -2 18 -5z m-2107 -13 c-36 -4 -76 -4 -90 0
-17 5 6 8 64 8 l90 -1 -64 -7z m-141 -9 c-17 -5 -25 -14 -24 -29 0 -12 -3 -22
-8 -22 -10 0 -11 44 -1 53 3 4 18 7 32 6 l26 -1 -25 -7z m457 3 c-3 -3 -12 -4
-19 -1 -8 3 -5 6 6 6 11 1 17 -2 13 -5z m66 -1 c-7 -2 -19 -2 -25 0 -7 3 -2 5
12 5 14 0 19 -2 13 -5z m735 0 c-10 -2 -28 -2 -40 0 -13 2 -5 4 17 4 22 1 32
-1 23 -4z m439 1 c-3 -3 -12 -4 -19 -1 -8 3 -5 6 6 6 11 1 17 -2 13 -5z m150
-5 c-12 -7 -27 -7 -45 0 -25 9 -24 9 18 10 36 0 41 -2 27 -10z m1995 1 c27 0
47 -4 44 -9 -5 -7 -119 -7 -301 1 -40 1 -40 1 10 9 28 4 83 5 124 3 41 -2 96
-4 123 -4z m-3007 -20 c3 -5 1 -10 -4 -10 -6 0 -11 5 -11 10 0 6 2 10 4 10 3
0 8 -4 11 -10z m1585 -10 c-16 -9 -120 -1 -120 9 0 3 30 4 67 3 41 -3 61 -7
53 -12z m890 10 c0 -5 -43 -9 -105 -8 -57 1 -102 5 -99 10 7 11 204 10 204 -2z
m-2390 -9 c0 -4 -11 -6 -25 -3 -14 2 -25 6 -25 8 0 2 11 4 25 4 14 0 25 -4 25
-9z m1555 -1 c3 -5 -1 -10 -9 -10 -9 0 -16 5 -16 10 0 6 4 10 9 10 6 0 13 -4
16 -10z m-2858 -16 c-3 -3 -12 -4 -19 -1 -8 3 -5 6 6 6 11 1 17 -2 13 -5z
m420 0 c-3 -3 -12 -4 -19 -1 -8 3 -5 6 6 6 11 1 17 -2 13 -5z m66 -1 c-7 -2
-19 -2 -25 0 -7 3 -2 5 12 5 14 0 19 -2 13 -5z m80 0 c-7 -2 -19 -2 -25 0 -7
3 -2 5 12 5 14 0 19 -2 13 -5z m401 -31 c-9 -13 -23 -16 -70 -14 -61 3 -92 -8
-80 -27 4 -6 21 -11 37 -11 17 0 28 -4 25 -8 -3 -4 -21 -6 -40 -4 -33 4 -36 7
-36 37 0 28 4 33 31 39 17 3 46 6 63 6 17 0 38 5 46 10 21 13 38 -6 24 -28z
m633 32 c-3 -3 -12 -4 -19 -1 -8 3 -5 6 6 6 11 1 17 -2 13 -5z m658 -3 c10
-17 -9 -20 -30 -5 -18 14 -18 14 2 14 12 0 24 -4 28 -9z m927 -3 c-8 -8 -17
-8 -34 0 -22 10 -21 11 12 11 26 1 31 -2 22 -11z m1087 -14 c11 -10 -16 -13
-177 -16 -148 -3 -172 -1 -172 12 0 13 24 15 172 12 95 -2 175 -6 177 -8z
m-2970 -20 c2 -2 -15 -4 -38 -4 -29 0 -44 -5 -48 -16 -8 -23 10 -36 51 -36 20
0 36 -4 36 -10 0 -5 -21 -8 -47 -6 l-48 3 -3 42 -3 43 48 -7 c26 -3 50 -7 52
-9z m1454 9 c-13 -2 -33 -2 -45 0 -13 2 -3 4 22 4 25 0 35 -2 23 -4z m104 -6
c9 -9 -26 -7 -57 3 -21 7 -19 8 12 6 21 -1 41 -6 45 -9z m798 3 c13 -6 -13 -9
-77 -9 -55 -1 -100 3 -103 9 -8 12 151 12 180 0z m-3530 -10 c-3 -5 -12 -10
-20 -10 -8 0 -17 5 -20 10 -4 6 5 10 20 10 15 0 24 -4 20 -10z m1825 2 c0 -17
-25 -32 -52 -32 -21 0 -28 5 -28 20 0 17 7 20 40 20 22 0 40 -4 40 -8z m110 4
c0 -9 -30 -14 -35 -6 -4 6 3 10 14 10 12 0 21 -2 21 -4z m190 -8 c0 -10 -18
-12 -67 -8 l-68 4 65 6 c36 4 66 7 68 8 1 1 2 -4 2 -10z m-2187 -5 c-7 -2 -19
-2 -25 0 -7 3 -2 5 12 5 14 0 19 -2 13 -5z m3130 0 c-13 -2 -33 -2 -45 0 -13
2 -3 4 22 4 25 0 35 -2 23 -4z m-2716 -9 c-3 -3 -12 -4 -19 -1 -8 3 -5 6 6 6
11 1 17 -2 13 -5z m-114 -20 c-3 -9 0 -20 8 -25 11 -7 11 -9 -3 -9 -13 0 -18
8 -18 25 0 14 4 25 10 25 5 0 7 -7 3 -16z m3208 -6 c49 0 91 -4 94 -9 4 -5
-27 -9 -73 -9 -91 0 -144 8 -136 21 3 5 10 6 16 3 6 -4 51 -7 99 -6z m669 3
c-8 -4 -86 -12 -172 -15 -127 -6 -158 -5 -158 6 0 10 38 14 173 16 103 1 166
-1 157 -7z m-4115 -11 c3 -5 -1 -10 -10 -10 -9 0 -13 5 -10 10 3 6 8 10 10 10
2 0 7 -4 10 -10z m818 3 c-7 -2 -21 -2 -30 0 -10 3 -4 5 12 5 17 0 24 -2 18
-5z m722 -33 c0 -17 -5 -24 -15 -21 -8 2 -36 3 -62 2 -27 -1 -48 2 -48 8 0 5
-3 16 -6 24 -4 12 6 15 63 13 65 -1 68 -2 68 -26z m573 9 c-21 -12 -151 -14
-170 -4 -11 7 15 10 83 11 55 0 94 -3 87 -7z m895 -9 c4 -16 14 -20 44 -20 36
-1 37 -1 18 -16 -12 -9 -31 -13 -46 -10 -14 3 -31 0 -38 -7 -8 -8 -11 -1 -11
31 0 45 23 60 33 22z m-1173 6 c0 -9 -30 -14 -35 -6 -4 6 3 10 14 10 12 0 21
-2 21 -4z m884 -16 c11 0 16 -3 13 -6 -9 -9 -130 -13 -142 -5 -12 7 62 20 90
15 11 -2 29 -4 39 -4z m-3179 -15 c6 -2 -23 -4 -62 -3 -40 1 -73 4 -73 8 0 6
116 2 135 -5z m1275 5 c20 -6 14 -8 -28 -9 -33 -1 -51 3 -47 9 7 12 39 12 75
0z m1753 3 c-7 -2 -21 -2 -30 0 -10 3 -4 5 12 5 17 0 24 -2 18 -5z m-3289 -13
c-7 -7 -19 -7 -35 -1 -23 9 -22 10 11 10 23 1 31 -2 24 -9z m84 3 c-10 -2 -28
-2 -40 0 -13 2 -5 4 17 4 22 1 32 -1 23 -4z m1359 1 c-3 -3 -12 -4 -19 -1 -8
3 -5 6 6 6 11 1 17 -2 13 -5z m1750 -19 c-10 -21 -19 -25 -54 -25 -39 0 -43 2
-43 25 0 24 3 25 54 25 54 0 54 0 43 -25z m1033 15 c30 -5 9 -6 -65 -3 -60 3
-112 7 -114 9 -8 7 134 3 179 -6z m640 0 c0 -6 -67 -10 -180 -10 -113 0 -180
4 -180 10 0 6 67 10 180 10 113 0 180 -4 180 -10z m-4147 -7 c-7 -2 -21 -2
-30 0 -10 3 -4 5 12 5 17 0 24 -2 18 -5z m472 -103 l0 -105 -120 0 -119 0 -4
102 c-4 118 -18 108 138 108 l105 0 0 -105z m630 100 c3 -5 1 -10 -4 -10 -6 0
-11 5 -11 10 0 6 2 10 4 10 3 0 8 -4 11 -10z m960 -10 c-91 -12 -147 -11 -140
0 4 6 48 9 103 9 93 -2 94 -2 37 -9z m-262 -7 c-7 -2 -21 -2 -30 0 -10 3 -4 5
12 5 17 0 24 -2 18 -5z m65 0 c-10 -2 -26 -2 -35 0 -10 3 -2 5 17 5 19 0 27
-2 18 -5z m815 0 c-7 -2 -19 -2 -25 0 -7 3 -2 5 12 5 14 0 19 -2 13 -5z
m-3338 -23 c3 -5 -3 -10 -13 -10 -22 0 -46 -23 -35 -33 3 -4 45 -7 92 -8 65 0
80 -3 62 -10 -13 -5 -55 -8 -95 -7 -72 3 -100 17 -89 45 3 9 -5 14 -23 15 -16
1 -4 4 26 8 30 4 58 7 62 8 4 1 10 -2 13 -8z m70 0 c3 -5 -1 -10 -9 -10 -9 0
-16 5 -16 10 0 6 4 10 9 10 6 0 13 -4 16 -10z m118 3 c-7 -2 -21 -2 -30 0 -10
3 -4 5 12 5 17 0 24 -2 18 -5z m495 -8 c1 -1 5 -54 9 -118 l6 -116 -99 -3
c-54 -2 -99 -3 -100 -3 -1 0 -4 55 -7 122 l-7 122 48 3 c43 3 143 -2 150 -7z
m820 -63 l3 -70 -33 -5 c-18 -2 -57 -2 -85 1 l-53 5 0 73 0 73 83 -3 82 -4 3
-70z m2142 68 c0 -5 -2 -10 -4 -10 -3 0 -8 5 -11 10 -3 6 -1 10 4 10 6 0 11
-4 11 -10z m535 -12 c7 -8 4 -9 -8 -4 -10 3 -59 6 -108 6 -60 0 -88 4 -84 10
8 14 186 2 200 -12z m-2005 2 c0 -13 -11 -13 -30 0 -12 8 -11 10 8 10 12 0 22
-4 22 -10z m1570 1 c0 -6 -4 -13 -10 -16 -5 -3 -10 -15 -10 -26 0 -14 -7 -19
-27 -19 -47 0 -60 17 -19 24 40 8 49 26 14 26 -19 0 -20 2 -8 10 19 12 60 13
60 1z m1060 0 c0 -5 -84 -9 -187 -8 -109 0 -165 3 -133 6 85 10 320 11 320 2z
m-3027 -8 c-7 -2 -19 -2 -25 0 -7 3 -2 5 12 5 14 0 19 -2 13 -5z m997 -2 c0
-14 -47 -22 -77 -14 -26 7 -25 8 17 14 25 3 48 7 53 7 4 1 7 -2 7 -7z m-932
-38 c-2 -21 -6 -37 -10 -35 -5 1 -28 2 -53 2 -25 0 -45 5 -45 10 0 6 16 10 36
8 36 -2 58 15 49 40 -2 6 3 12 11 12 11 0 14 -9 12 -37z m1537 27 c-7 -12
-154 -13 -174 -1 -8 5 25 9 84 10 65 1 95 -2 90 -9z m-940 -10 c-3 -5 -12 -7
-20 -3 -21 7 -19 13 6 13 11 0 18 -4 14 -10z m-2175 -40 c0 -24 -4 -30 -22
-30 -15 0 -27 9 -34 25 -13 27 -7 33 34 34 18 1 22 -4 22 -29z m3779 26 c-10
-9 -79 -14 -79 -5 0 5 19 9 42 9 23 0 39 -2 37 -4z m657 -11 c-19 -14 -55 -19
-121 -16 -16 1 -39 -5 -50 -13 -17 -14 -18 -17 -5 -26 8 -5 10 -10 5 -10 -6 0
-19 9 -28 21 -22 25 -51 21 -55 -8 -2 -12 -10 -24 -18 -27 -10 -4 -14 2 -14
23 0 56 4 59 93 54 45 -3 98 0 117 5 19 6 49 10 65 11 28 0 29 0 11 -14z
m-2535 -5 c16 0 29 -4 29 -9 0 -10 -57 -4 -100 11 -21 7 -19 7 9 3 18 -3 46
-5 62 -5z m1987 3 c-15 -2 -42 -2 -60 0 -18 2 -6 4 27 4 33 0 48 -2 33 -4z
m625 0 c-7 -2 -21 -2 -30 0 -10 3 -4 5 12 5 17 0 24 -2 18 -5z m-2008 -13 c4
-6 -7 -10 -27 -9 -31 1 -32 1 -8 9 14 4 26 8 27 9 1 1 5 -3 8 -9z m600 0 c4
-6 -20 -9 -67 -8 l-73 1 60 7 c33 4 63 7 67 8 4 1 10 -2 13 -8z m-312 -7 c-7
-2 -19 -2 -25 0 -7 3 -2 5 12 5 14 0 19 -2 13 -5z m135 0 c-15 -2 -42 -2 -60
0 -18 2 -6 4 27 4 33 0 48 -2 33 -4z m-643 -14 c-4 -5 -21 -9 -38 -7 -25 2
-34 -2 -42 -19 -7 -16 -18 -23 -37 -23 -24 0 -28 4 -28 30 l0 30 76 0 c50 0
73 -4 69 -11z m1169 -8 c4 -5 -12 -7 -36 -4 -57 8 -61 13 -10 13 22 0 43 -4
46 -9z m329 -8 c-7 -2 -21 -2 -30 0 -10 3 -4 5 12 5 17 0 24 -2 18 -5z m127
-3 c0 -13 -70 -13 -90 0 -11 7 0 10 38 10 28 0 52 -4 52 -10z m-2042 -17 c-10
-2 -28 -2 -40 0 -13 2 -5 4 17 4 22 1 32 -1 23 -4z m57 -3 c3 -5 1 -10 -4 -10
-6 0 -11 5 -11 10 0 6 2 10 4 10 3 0 8 -4 11 -10z m889 1 c3 -5 -1 -12 -10
-15 -13 -5 -14 -9 -4 -22 11 -12 39 -15 158 -13 l145 1 -2 -63 c-1 -35 -4 -77
-6 -94 -2 -16 -6 -57 -9 -90 -3 -33 -20 -204 -37 -380 -21 -217 -35 -324 -44
-334 -19 -20 -105 2 -177 45 -31 19 -70 37 -87 40 -39 8 -44 26 -37 132 9 130
15 219 26 417 15 268 22 369 27 378 6 10 51 9 57 -2z m106 -1 c0 -5 -9 -10
-20 -10 -11 0 -20 5 -20 10 0 6 9 10 20 10 11 0 20 -4 20 -10z m146 3 c-11
-11 -136 -13 -136 -3 0 6 32 10 72 10 39 0 68 -3 64 -7z m-558 -18 c10 -9 -3
-11 -71 -7 -43 2 -65 7 -61 14 7 10 121 4 132 -7z m-2495 -19 c9 -22 -2 -26
-74 -26 -56 0 -67 3 -63 14 5 13 22 17 110 24 12 1 24 -4 27 -12z m3350 -5
c-5 -20 19 -31 70 -31 17 0 27 -5 27 -15 0 -10 -10 -15 -33 -15 -18 0 -42 -6
-52 -14 -18 -13 -18 -14 4 -26 13 -6 36 -10 52 -8 29 4 29 4 29 -47 0 -150
-45 -1034 -53 -1041 -1 -1 -44 -4 -95 -6 l-93 -5 5 51 c2 28 5 66 5 85 1 32 2
33 19 18 26 -23 105 -39 137 -27 38 15 25 34 -27 41 -25 4 -55 12 -67 18 -15
8 -27 9 -41 1 -19 -10 -19 -8 -14 47 3 32 11 105 19 163 16 120 31 255 40 350
9 103 47 454 51 468 2 6 8 12 13 12 5 0 7 -8 4 -19z m92 9 c7 -12 -2 -12 -30
0 -19 8 -19 9 2 9 12 1 25 -3 28 -9z m-2282 -11 l32 -1 -31 -7 c-17 -5 -47 -6
-65 -3 -29 4 -31 6 -14 13 11 4 26 6 33 3 8 -2 28 -4 45 -5z m2580 4 c-13 -2
-33 -2 -45 0 -13 2 -3 4 22 4 25 0 35 -2 23 -4z m157 -4 c0 -5 -21 -9 -47 -9
-27 0 -43 4 -36 8 17 11 83 12 83 1z m-1980 -9 c0 -5 -10 -10 -22 -9 -22 0
-22 1 -3 9 11 5 21 9 23 9 1 1 2 -3 2 -9z m-2147 -7 c-7 -2 -19 -2 -25 0 -7 3
-2 5 12 5 14 0 19 -2 13 -5z m2090 0 c-7 -2 -19 -2 -25 0 -7 3 -2 5 12 5 14 0
19 -2 13 -5z m307 -13 c0 -5 -4 -10 -9 -10 -6 0 -13 5 -16 10 -3 6 1 10 9 10
9 0 16 -4 16 -10z m85 0 c3 -6 -5 -10 -19 -10 -14 0 -28 5 -31 10 -3 6 5 10
19 10 14 0 28 -4 31 -10z m50 0 c3 -6 -4 -10 -17 -10 -18 0 -20 2 -8 10 19 12
18 12 25 0z m191 -132 c-3 -79 -11 -208 -17 -288 -5 -80 -13 -206 -17 -280
l-7 -134 -42 -8 c-23 -3 -76 -20 -118 -37 -82 -33 -126 -38 -163 -17 l-23 12
1 235 c2 359 9 582 18 591 4 4 68 9 142 10 112 3 135 6 135 18 0 9 -12 17 -30
20 -21 3 -11 6 35 10 36 4 71 7 79 8 12 2 13 -21 7 -140z m1807 125 c-7 -2
-19 -2 -25 0 -7 3 -2 5 12 5 14 0 19 -2 13 -5z m-3160 -10 c-7 -2 -19 -2 -25
0 -7 3 -2 5 12 5 14 0 19 -2 13 -5z m3090 0 c-13 -2 -33 -2 -45 0 -13 2 -3 4
22 4 25 0 35 -2 23 -4z m-527 -20 c-1 -16 10 -18 83 -20 47 -2 88 -6 93 -11 7
-7 1 -70 -42 -427 -11 -93 -22 -190 -24 -215 -2 -25 -9 -82 -16 -127 l-12 -82
-52 -24 c-60 -28 -118 -48 -124 -43 -2 2 2 73 8 158 23 309 30 416 40 573 5
88 9 177 9 198 1 29 5 37 20 37 12 0 18 -7 17 -17z m-3928 0 c-10 -2 -26 -2
-35 0 -10 3 -2 5 17 5 19 0 27 -2 18 -5z m922 -9 c0 -2 -16 -4 -35 -4 -19 0
-35 4 -35 8 0 4 16 6 35 4 19 -2 35 -6 35 -8z m155 6 c-3 -5 -16 -10 -28 -9
-20 1 -20 2 3 9 14 4 26 8 28 9 2 1 0 -3 -3 -9z m716 -185 c0 -99 0 -199 0
-222 l-1 -43 -52 3 -53 3 -5 195 c-7 258 -9 247 49 251 25 2 49 1 53 -2 5 -3
8 -87 9 -185z m346 184 c8 -8 10 -48 7 -123 -2 -61 -6 -248 -8 -415 l-4 -304
-58 -18 c-32 -10 -62 -15 -67 -10 -4 4 -4 202 -1 439 l7 431 46 4 c25 2 51 4
57 5 5 1 15 -3 21 -9z m-696 -9 c18 -10 19 -23 19 -210 0 -197 0 -200 -21
-200 -18 0 -19 3 -9 15 24 28 6 40 -63 41 -37 0 -69 3 -72 6 -9 9 -8 329 1
338 5 5 32 11 59 13 28 2 54 4 58 5 5 1 17 -3 28 -8z m-861 -29 c41 -7 37 -8
-43 -12 -65 -3 -87 -1 -87 9 0 14 58 15 130 3z m320 -15 c0 -2 -11 -6 -25 -8
-14 -3 -25 -1 -25 3 0 5 11 9 25 9 14 0 25 -2 25 -4z m-300 -56 c11 -7 -5 -10
-52 -10 -38 0 -71 0 -75 -1 -4 0 -9 4 -11 10 -5 14 117 15 138 1z m307 -33
c-67 -21 -43 -32 73 -32 l110 0 0 -117 c0 -100 -2 -118 -16 -118 -8 0 -13 4
-9 10 3 5 3 20 -1 34 -5 23 -10 24 -99 28 -51 1 -96 6 -99 9 -9 8 -20 164 -14
181 4 9 23 15 49 15 l44 2 -38 -12z m183 3 c0 -12 -8 -12 -35 0 -18 8 -17 9 8
9 15 1 27 -3 27 -9z m-1065 -20 c-3 -5 -11 -10 -16 -10 -6 0 -7 5 -4 10 3 6
11 10 16 10 6 0 7 -4 4 -10z m52 4 c-3 -3 -12 -4 -19 -1 -8 3 -5 6 6 6 11 1
17 -2 13 -5z m-230 -10 c-3 -3 -12 -4 -19 -1 -8 3 -5 6 6 6 11 1 17 -2 13 -5z
m807 -26 c3 -13 6 -39 6 -58 l0 -35 -68 -2 c-37 -1 -82 -5 -100 -8 l-33 -6 3
43 3 43 80 0 c77 0 80 1 79 23 0 12 5 22 12 22 6 0 14 -10 18 -22z m-416 -31
c6 -5 12 -21 12 -38 0 -30 -14 -36 -54 -20 -14 5 -16 10 -7 15 19 12 -6 36
-38 36 -19 0 -22 3 -12 9 16 10 80 9 99 -2z m-258 -7 c-35 -11 -50 -11 -50 -2
0 5 17 9 38 9 32 1 34 0 12 -7z m70 -104 c0 -11 -19 -15 -25 -6 -3 5 1 10 9
10 9 0 16 -2 16 -4z m835 -56 c-6 -17 -2 -20 29 -20 29 0 36 -4 36 -20 0 -18
7 -20 69 -20 l68 0 7 -46 c3 -26 6 -129 6 -229 0 -143 -3 -184 -13 -188 -31
-12 -144 -18 -167 -9 -26 10 -26 12 -38 173 -15 205 -16 379 -1 379 6 0 8 -9
4 -20z m-385 -5 c-7 -9 -11 -18 -8 -21 3 -2 44 -5 91 -6 l86 -1 6 -71 c13
-147 22 -401 15 -410 -8 -8 -62 -4 -129 10 -34 7 -34 6 -28 -24 4 -20 2 -32
-6 -35 -27 -10 13 -29 70 -34 55 -5 62 -3 76 17 20 29 23 20 31 -77 3 -50 1
-75 -7 -80 -7 -5 -49 -8 -94 -8 -46 0 -83 0 -84 0 0 0 -6 95 -14 210 -7 116
-19 282 -25 369 -9 130 -9 161 2 167 21 14 31 10 18 -6z m1295 -240 c2 -82 1
-174 -2 -202 l-6 -53 -52 0 -52 0 -2 195 -2 195 32 -7 c24 -4 34 -2 41 11 5 9
17 16 25 14 13 -2 16 -28 18 -153z m-342 132 c16 -11 17 -33 15 -207 l-3 -195
-65 -3 c-86 -3 -94 4 -96 75 -2 123 -5 328 -5 336 2 12 136 8 154 -6z m1213
-473 c-1 -115 -5 -147 -16 -154 -21 -13 -287 -12 -311 0 -17 10 -19 21 -18
110 0 55 4 102 9 105 4 2 35 6 69 9 36 2 78 13 102 26 33 17 121 44 160 49 4
1 6 -65 5 -145z m319 100 c52 -35 164 -76 200 -72 l30 3 -4 -90 c-2 -49 -4
-91 -6 -93 -5 -5 -295 -5 -301 1 -3 3 -3 67 1 141 8 154 11 157 80 110z
m-2720 -14 c14 -6 0 -8 -45 -8 -58 1 -61 2 -25 8 22 4 42 7 45 8 3 0 14 -3 25
-8z m1863 -122 l-3 -123 -60 0 -60 0 -3 102 -3 102 43 20 c24 10 53 20 66 20
23 1 23 0 20 -121z m-338 -24 l0 -105 -47 3 -48 3 -5 58 c-3 32 -4 76 -2 97 4
40 10 44 80 49 22 1 22 -1 22 -105z m2207 74 c-4 -13 -9 -54 -13 -93 -4 -38
-11 -76 -16 -82 -7 -9 -28 -11 -67 -6 -46 4 -59 2 -64 -9 -10 -28 9 -39 67
-39 l58 -1 -7 -52 c-4 -28 -11 -52 -16 -54 -5 -2 -6 -15 -3 -28 3 -13 3 -32
-1 -41 -3 -10 -8 -45 -9 -78 -7 -121 -84 -694 -97 -709 -4 -4 -21 -5 -38 -1
l-31 7 0 71 c0 39 5 132 10 207 6 74 17 220 24 323 9 118 19 194 27 203 9 12
10 20 2 33 -9 14 -7 17 11 17 12 -1 21 5 21 14 0 8 4 21 8 28 5 6 4 12 -1 12
-6 0 -12 -7 -16 -15 -3 -8 -9 -15 -14 -15 -11 0 -15 126 -6 175 6 31 10 35 38
35 38 0 71 21 64 41 -3 9 7 19 25 26 18 8 27 18 24 27 -6 15 1 26 16 26 5 0 7
-10 4 -22z m-2895 -75 c3 -49 3 -91 1 -95 -2 -5 -45 -8 -94 -8 -105 0 -104 -1
-104 104 l0 70 50 -2 c28 -1 66 2 85 7 19 5 40 9 46 10 7 1 13 -30 16 -86z
m370 12 c5 -113 5 -113 -104 -107 l-58 4 0 87 0 88 79 -1 80 -1 3 -70z m-876
-146 c29 1 55 -2 58 -7 3 -5 -18 -10 -47 -11 -29 -1 -60 -4 -69 -7 -13 -4 -18
0 -18 16 0 14 4 19 12 14 6 -4 35 -6 64 -5z m503 -14 c12 -7 11 -10 -5 -16
-28 -11 -74 -11 -74 1 0 6 -5 10 -11 10 -5 0 -8 -4 -5 -8 3 -5 -1 -9 -9 -9 -8
0 -15 5 -15 10 0 5 -9 7 -21 4 -24 -7 -51 1 -44 13 7 11 166 7 184 -5z m371 0
c0 -39 -159 -31 -160 8 0 4 36 7 80 7 64 0 80 -3 80 -15z m260 -1 c0 -2 -9 -4
-21 -4 -11 0 -18 4 -14 10 5 8 35 3 35 -6z m673 -2 c5 -2 0 -10 -9 -17 -23
-16 -59 2 -43 21 9 11 27 10 52 -4z m623 5 c3 -3 -9 -10 -27 -15 -33 -8 -54 1
-43 20 6 9 60 5 70 -5z m-936 -7 c0 -5 -4 -10 -9 -10 -6 0 -13 5 -16 10 -3 6
1 10 9 10 9 0 16 -4 16 -10z m465 -1 c-22 -5 -43 -13 -48 -18 -11 -11 -49 -2
-41 10 3 5 -2 9 -10 9 -9 0 -16 -5 -16 -11 0 -5 -4 -7 -10 -4 -28 17 -2 25 78
24 77 -1 82 -2 47 -10z m365 -10 c0 -6 -4 -7 -10 -4 -5 3 -10 11 -10 16 0 6 5
7 10 4 6 -3 10 -11 10 -16z m132 -1 c-7 -7 -12 -8 -12 -2 0 6 3 14 7 17 3 4 9
5 12 2 2 -3 -1 -11 -7 -17z m48 14 c0 -4 -9 -15 -20 -25 -20 -17 -25 -11 -14
17 6 16 34 23 34 8z m45 -2 c3 -6 -1 -7 -9 -4 -18 7 -21 14 -7 14 6 0 13 -4
16 -10z m475 -18 c0 -20 -9 -37 -29 -54 -17 -13 -35 -36 -40 -51 -11 -27 -10
-27 14 -11 13 8 22 21 19 28 -3 8 2 16 10 19 11 5 16 0 16 -13 0 -11 -4 -20
-10 -20 -5 0 -10 -12 -10 -27 0 -22 2 -25 10 -13 7 10 9 -24 5 -110 -3 -69 -7
-188 -10 -265 -8 -236 -16 -379 -22 -398 -5 -18 -6 -18 -26 1 -33 29 -102 52
-158 52 -35 0 -51 4 -55 15 -4 8 1 68 10 133 9 64 19 160 22 212 6 94 42 392
49 398 2 2 6 -6 10 -17 3 -12 11 -21 17 -21 6 0 8 3 5 7 -4 3 2 12 13 20 11 8
20 21 20 30 0 14 2 14 14 -3 8 -10 10 -20 5 -22 -18 -7 -9 -20 10 -15 24 6 56
65 48 87 -6 16 -10 15 -39 -5 -23 -16 -30 -19 -26 -8 5 12 1 15 -18 11 -25 -5
-35 -42 -11 -42 8 0 8 -3 -2 -9 -28 -18 -41 -1 -41 53 0 29 2 55 5 58 3 3 48
6 100 7 l95 2 0 -29z m-3530 -14 c0 -10 -5 -18 -11 -18 -5 0 -7 -4 -4 -10 7
-12 3 -12 -19 -4 -14 5 -14 9 -4 22 10 12 10 14 1 8 -13 -7 -18 6 -7 17 13 13
44 2 44 -15z m208 -19 c0 -17 -2 -28 -5 -25 -9 8 -11 66 -3 61 4 -2 7 -18 8
-36z m412 32 c0 -6 -4 -13 -10 -16 -5 -3 -10 1 -10 9 0 9 5 16 10 16 6 0 10
-4 10 -9z m992 -23 c-9 -9 -12 -7 -12 12 0 19 3 21 12 12 9 -9 9 -15 0 -24z
m68 18 c0 -8 -4 -17 -8 -20 -4 -2 -8 4 -8 15 0 10 4 19 8 19 4 0 8 -6 8 -14z
m887 -8 c-3 -8 -6 -5 -6 6 -1 11 2 17 5 13 3 -3 4 -12 1 -19z m-1806 -15 c-8
-15 -10 -15 -11 -2 0 17 10 32 18 25 2 -3 -1 -13 -7 -23z m709 -8 c0 -28 -4
-35 -20 -35 -14 0 -20 7 -20 21 0 12 4 17 11 14 6 -4 13 2 16 14 8 31 13 26
13 -14z m-1099 -6 c-5 -13 -10 -19 -10 -12 -1 15 10 45 15 40 3 -2 0 -15 -5
-28z m1279 1 c0 -4 -11 -17 -25 -30 l-25 -23 0 25 c0 15 6 28 13 31 18 6 37 5
37 -3z m193 -59 c9 -10 11 -133 8 -470 -5 -615 -3 -566 -21 -566 -13 0 -15 69
-16 530 -1 477 3 645 14 550 2 -16 9 -36 15 -44z m1112 50 c-3 -6 -11 -11 -17
-11 -6 0 -6 6 2 15 14 17 26 13 15 -4z m-2495 -10 c0 -11 -4 -23 -10 -26 -6
-4 -10 5 -10 19 0 14 5 26 10 26 6 0 10 -9 10 -19z m135 9 c3 -5 -1 -10 -10
-10 -9 0 -13 5 -10 10 3 6 8 10 10 10 2 0 7 -4 10 -10z m2325 1 c0 -6 -5 -13
-11 -17 -6 -3 -9 -17 -6 -30 2 -13 -1 -24 -7 -25 -7 0 -6 -3 2 -6 6 -2 10 -8
7 -13 -3 -5 5 -12 17 -16 15 -4 25 -1 34 10 9 13 13 14 17 4 4 -10 11 -8 24 8
13 14 30 20 57 20 l38 -1 -6 -90 c-4 -49 -11 -130 -16 -180 -10 -97 -40 -415
-40 -429 0 -4 -28 -5 -62 -2 -35 4 -96 7 -137 8 l-74 0 7 147 c4 80 11 207 16
281 6 74 12 163 15 198 2 35 7 67 10 72 3 5 22 6 42 3 31 -5 35 -4 30 11 -4 9
-3 15 2 12 5 -3 12 5 15 19 6 24 26 36 26 16z m-2050 -32 c0 -6 -4 -7 -10 -4
-5 3 -10 11 -10 16 0 6 5 7 10 4 6 -3 10 -11 10 -16z m460 18 c0 -1 -4 -17 -9
-34 -10 -33 4 -59 15 -30 3 8 14 17 24 20 16 4 19 -3 23 -67 3 -39 5 -82 4
-96 0 -14 3 -169 7 -344 l8 -319 -47 6 c-26 4 -66 15 -90 26 l-42 19 1 373 1
374 32 3 c26 3 34 9 45 38 6 19 16 34 20 34 4 0 8 -1 8 -3z m212 -9 c8 -22 3
-1096 -5 -1104 -4 -4 -8 28 -9 72 0 43 -2 93 -4 109 -2 29 -5 602 -4 823 0 99
9 138 22 100z m1198 -9 c0 -5 -4 -9 -10 -9 -5 0 -10 7 -10 16 0 8 5 12 10 9 6
-3 10 -10 10 -16z m1480 0 c0 -6 -4 -7 -10 -4 -5 3 -10 11 -10 16 0 6 5 7 10
4 6 -3 10 -11 10 -16z m-3737 -7 c-3 -13 4 -22 22 -30 29 -13 49 -8 39 11 -3
7 1 3 10 -7 11 -14 19 -16 28 -8 9 7 18 7 29 -1 13 -10 17 -41 23 -152 4 -77
9 -160 11 -185 3 -25 7 -99 10 -165 2 -66 7 -159 11 -207 6 -78 5 -88 -10 -88
-9 0 -34 -11 -56 -25 -22 -14 -42 -25 -46 -25 -3 0 -19 -9 -35 -20 l-28 -21
-7 26 c-4 14 -4 47 -1 72 3 25 1 58 -3 73 -4 15 -11 90 -15 166 -3 77 -10 202
-16 279 -13 207 -12 272 7 300 19 29 34 33 27 7z m251 -512 c28 -597 28 -590
11 -590 -12 0 -15 15 -16 73 0 39 -2 81 -4 92 -4 29 -15 201 -21 340 -3 66 -9
181 -14 255 -14 195 -13 347 3 353 14 5 19 -48 41 -523z m1516 520 c0 -5 -4
-10 -10 -10 -5 0 -10 5 -10 10 0 6 5 10 10 10 6 0 10 -4 10 -10z m227 -12 c-3
-8 -6 -5 -6 6 -1 11 2 17 5 13 3 -3 4 -12 1 -19z m-999 -547 c2 -377 -1 -562
-8 -566 -5 -3 -12 0 -15 7 -5 16 -12 266 -21 725 -7 332 -6 354 11 373 10 11
21 20 24 20 3 0 7 -252 9 -559z m835 544 c-3 -9 -8 -14 -10 -11 -3 3 -2 9 2
15 9 16 15 13 8 -4z m-1529 -320 c9 -243 25 -583 30 -630 3 -23 1 -34 -3 -25
-12 22 -31 305 -41 630 -6 157 -12 297 -14 311 -3 15 -2 30 2 34 9 9 18 -102
26 -320z m216 300 c-10 -12 -10 -15 4 -15 14 0 16 -18 17 -142 1 -153 6 -364
13 -490 l4 -78 -83 0 c-70 0 -84 3 -90 18 -7 18 -39 691 -33 697 1 1 29 5 61
8 46 5 57 3 57 -9 0 -7 7 -14 15 -14 8 0 15 6 15 13 0 15 21 39 28 32 3 -2 -1
-11 -8 -20z m165 -70 c10 -167 14 -964 4 -970 -11 -7 -9 -90 -16 535 -5 502
-2 644 12 435z m1241 86 c-7 -11 23 -25 47 -22 9 1 17 -3 17 -10 0 -8 3 -9 13
0 8 6 17 8 20 4 4 -3 13 0 21 6 24 20 33 6 39 -66 6 -74 -18 -642 -28 -651 -3
-4 -56 -9 -118 -13 -67 -4 -127 -13 -149 -23 -21 -9 -40 -16 -44 -16 -4 0 -4
169 0 376 5 307 9 380 21 397 8 12 15 16 15 9 0 -6 9 -12 20 -12 11 0 20 -6
20 -12 0 -7 5 -5 11 5 17 30 30 19 24 -20 -3 -21 -2 -32 1 -26 3 7 5 15 4 18
0 3 13 19 31 36 31 29 45 37 35 20z m554 -1 c0 -5 -2 -10 -4 -10 -3 0 -8 5
-11 10 -3 6 -1 10 4 10 6 0 11 -4 11 -10z m-2566 -93 c3 -45 8 -154 11 -242 3
-88 10 -232 15 -320 17 -274 18 -291 10 -270 -9 23 -29 239 -35 383 -3 53 -7
129 -10 167 -14 182 -23 360 -18 367 12 21 22 -9 27 -85z m2337 -207 c-7 -118
-16 -289 -22 -380 -5 -91 -12 -205 -14 -255 -7 -115 -14 -163 -27 -171 -6 -4
-8 25 -4 82 3 49 8 154 11 234 3 80 8 186 10 235 22 439 29 541 39 547 17 12
19 -57 7 -292z m-1031 -163 l0 -387 -24 -11 c-14 -7 -36 -9 -50 -5 l-26 6 2
413 3 412 38 -2 c29 -2 37 1 38 15 1 9 5 1 9 -18 5 -19 9 -209 10 -423z m256
406 c3 3 16 2 29 -3 14 -5 26 -5 34 3 8 8 11 6 12 -8 1 -21 0 -636 -1 -737
l-1 -56 -42 -4 c-23 -1 -53 -2 -65 0 l-24 4 6 316 c3 174 6 362 6 416 0 99 0
99 20 81 11 -10 23 -16 26 -12z m1707 -20 c-1 -21 -7 -128 -13 -238 -19 -347
-39 -607 -46 -614 -7 -7 -4 109 6 244 12 169 18 270 25 435 6 149 13 210 24
210 3 0 5 -17 4 -37z m-861 -715 c-7 -7 -12 -8 -12 -2 0 14 12 26 19 19 2 -3
-1 -11 -7 -17z m-1854 -47 c-18 -17 -37 -31 -42 -31 -5 0 8 15 30 34 48 42 59
39 12 -3z m82 36 c0 -2 -11 -14 -25 -27 -14 -13 -25 -21 -25 -17 0 3 10 15 22
27 21 19 28 24 28 17z m1510 -42 c0 -25 -3 -45 -7 -45 -5 0 -8 20 -8 45 0 25
3 45 8 45 4 0 7 -20 7 -45z m-129 2 c-13 -12 -20 -15 -16 -7 14 26 28 41 33
35 3 -3 -5 -16 -17 -28z m-131 17 c0 -3 -5 -15 -11 -27 -7 -15 -2 -13 15 8 19
22 26 26 26 13 0 -9 -4 -20 -10 -23 -5 -3 -10 -15 -10 -26 0 -20 -4 -23 -52
-33 l-28 -6 17 37 c10 21 21 44 26 51 10 12 27 17 27 6z m-1258 -46 c-32 -33
-47 -17 -16 17 19 21 29 26 32 16 2 -7 -5 -22 -16 -33z m1309 -11 c-29 -29
-36 -16 -9 18 14 18 23 24 26 16 2 -7 -5 -22 -17 -34z m-1061 23 c0 -5 -5 -10
-11 -10 -5 0 -7 5 -4 10 3 6 8 10 11 10 2 0 4 -4 4 -10z m2052 -17 c7 -6 43
-13 81 -16 37 -2 70 -6 73 -9 3 -3 2 -52 -2 -108 -6 -89 -10 -103 -26 -108
-27 -7 -18 -36 14 -42 14 -3 36 -17 48 -32 22 -29 49 -37 51 -15 1 6 2 18 3
26 1 18 26 27 26 9 0 -7 -12 -36 -27 -63 -20 -38 -26 -63 -26 -105 1 -37 -4
-61 -14 -72 -18 -20 -10 -38 18 -38 12 0 19 -7 19 -19 0 -12 -7 -18 -17 -17
-15 1 -18 -6 -16 -38 2 -22 10 -47 19 -58 15 -15 15 -22 5 -46 l-13 -27 -12
35 c-8 25 -17 35 -31 35 -11 0 -19 -5 -18 -12 2 -6 5 -31 8 -55 5 -41 -3 -35
-19 15 -3 10 -15 17 -32 17 -24 0 -26 -3 -19 -27 16 -58 8 -184 -13 -205 -9
-9 -10 1 -6 38 5 39 3 53 -10 63 -23 20 -41 0 -38 -42 2 -26 -2 -34 -22 -43
-23 -11 -27 -9 -45 21 -36 61 -214 185 -265 185 -10 0 -26 10 -35 21 -23 29
-105 41 -190 29 -36 -5 -68 -7 -71 -4 -10 10 34 34 63 34 60 0 110 63 76 97
-8 8 -6 19 7 42 22 38 9 60 -25 42 -23 -13 -61 -79 -61 -108 -1 -12 -19 -26
-51 -42 -29 -13 -54 -33 -59 -45 -9 -23 -65 -76 -80 -76 -5 0 -7 6 -4 13 3 8
-1 19 -9 25 -11 9 -18 7 -33 -9 -18 -20 -18 -21 -1 -34 18 -13 18 -14 -2 -24
-28 -15 -31 -14 -31 13 0 14 -4 27 -9 31 -15 8 -41 -24 -41 -51 0 -30 -18 -32
-22 -1 -4 31 -40 30 -48 -2 -3 -14 -12 -27 -19 -29 -11 -4 -13 5 -8 42 6 45 6
47 -15 44 -18 -2 -24 -12 -31 -45 -9 -50 -31 -57 -33 -12 -2 42 -21 60 -32 29
-12 -32 -70 -35 -94 -6 -16 20 -16 20 -15 1 1 -12 -8 -24 -25 -33 -16 -7 -28
-20 -28 -28 0 -7 -7 -14 -15 -14 -9 0 -12 6 -9 15 7 18 -19 30 -43 20 -10 -4
-27 -8 -38 -9 -11 -1 -21 -9 -23 -21 -6 -32 -22 -42 -22 -14 0 13 -4 30 -9 38
-13 21 -41 5 -41 -23 0 -14 -4 -28 -10 -31 -5 -3 -10 3 -10 15 0 12 -5 30 -10
41 -9 15 -15 17 -30 9 -17 -9 -20 -7 -20 10 0 26 -10 25 -39 -1 -40 -38 -35
-11 10 48 24 32 51 67 59 79 61 87 76 109 85 123 67 107 84 126 191 211 102
81 131 100 153 100 11 0 28 11 38 25 14 21 31 28 79 34 34 5 75 16 92 25 43
22 52 20 52 -13 0 -21 -11 -39 -40 -65 -22 -20 -40 -40 -40 -46 0 -5 -9 -14
-21 -20 -11 -7 -18 -18 -15 -25 2 -7 -2 -19 -10 -26 -14 -12 -14 -14 2 -26 18
-13 44 -2 44 18 0 14 39 49 66 59 14 6 49 7 77 4 51 -5 117 12 131 35 6 10 15
96 16 157 l0 41 67 18 c37 10 98 21 135 25 l69 6 -4 -63 c-1 -35 -8 -68 -15
-75 -7 -7 -12 -27 -12 -45 0 -45 25 -54 53 -19 20 24 25 25 57 16 19 -6 49
-10 66 -8 22 2 41 -6 63 -25 18 -15 38 -27 45 -27 7 0 21 -9 31 -20 34 -38 68
-17 41 25 -9 14 -23 25 -31 25 -9 0 -15 9 -15 21 0 15 -12 25 -40 37 l-41 17
6 65 c10 109 10 108 54 106 22 -1 45 -7 53 -13z m-1922 -8 c0 -8 -4 -15 -10
-15 -5 0 -7 7 -4 15 4 8 8 15 10 15 2 0 4 -7 4 -15z m2653 -12 c-7 -2 -21 -2
-30 0 -10 3 -4 5 12 5 17 0 24 -2 18 -5z m-2395 -69 c-24 -30 -45 -54 -48 -54
-13 0 -8 79 6 91 21 18 30 2 11 -19 -10 -10 -17 -22 -17 -27 0 -8 6 -1 53 55
10 11 22 18 27 15 6 -4 -9 -31 -32 -61z m382 57 c0 -5 -3 -17 -6 -25 -6 -15
-8 -15 -19 1 -7 10 -11 21 -9 25 7 11 34 10 34 -1z m-640 -28 c0 -18 -129
-157 -137 -149 -3 3 18 32 46 66 28 33 55 69 61 80 13 25 30 26 30 3z m2340 7
c0 -5 -4 -10 -10 -10 -5 0 -10 5 -10 10 0 6 5 10 10 10 6 0 10 -4 10 -10z
m-3160 -9 c0 -12 -20 -25 -27 -18 -7 7 6 27 18 27 5 0 9 -4 9 -9z m1093 -70
c-27 -39 -69 -73 -62 -52 10 29 84 119 87 106 2 -8 -9 -32 -25 -54z m248 38
c-12 -13 -21 -19 -21 -14 0 11 32 46 38 41 2 -3 -5 -15 -17 -27z m-892 -60
c-21 -12 -23 -3 -8 33 l14 33 3 -29 c2 -16 -2 -32 -9 -37z m2700 39 c0 -13 -4
-41 -8 -63 -9 -40 -9 -40 -10 -7 0 18 -6 42 -11 53 -12 22 -6 39 16 39 8 0 14
-9 13 -22z m-3049 3 c0 -12 -20 -25 -27 -18 -7 7 6 27 18 27 5 0 9 -4 9 -9z
m730 0 c0 -13 -100 -121 -112 -121 -9 0 9 27 66 95 28 34 46 44 46 26z m2555
-1 c-3 -5 -11 -10 -16 -10 -6 0 -7 5 -4 10 3 6 11 10 16 10 6 0 7 -4 4 -10z
m-368 -47 c-3 -10 -5 -2 -5 17 0 19 2 27 5 18 2 -10 2 -26 0 -35z m-3160 15
c-3 -8 -6 -5 -6 6 -1 11 2 17 5 13 3 -3 4 -12 1 -19z m1488 -8 c-10 -11 -20
-18 -23 -15 -3 3 3 14 13 25 10 11 20 18 23 15 3 -3 -3 -14 -13 -25z m417 8
c-7 -7 -12 -8 -12 -2 0 14 12 26 19 19 2 -3 -1 -11 -7 -17z m-1522 -13 c0 -14
-4 -25 -9 -25 -4 0 -6 11 -3 25 2 14 6 25 8 25 2 0 4 -11 4 -25z m880 15 c0
-5 -5 -10 -11 -10 -5 0 -7 5 -4 10 3 6 8 10 11 10 2 0 4 -4 4 -10z m370 -17
c0 -10 -4 -14 -8 -8 -4 6 -11 13 -16 18 -5 4 -2 7 7 7 10 0 17 -8 17 -17z
m1930 0 c-14 -3 -32 -10 -40 -16 -13 -11 -13 -10 -1 6 7 9 25 16 40 16 l26 -2
-25 -4z m-3320 -48 c-7 -8 -16 -15 -21 -15 -13 0 -11 24 3 38 18 18 35 -3 18
-23z m984 3 c-17 -32 -31 -48 -47 -48 -9 0 9 38 31 63 25 28 34 19 16 -15z
m2000 -25 c3 -24 2 -43 -3 -43 -8 0 -21 55 -21 90 0 29 18 -6 24 -47z m-2662
5 c-14 -15 -22 -18 -22 -9 0 15 32 43 39 35 3 -3 -5 -14 -17 -26z m1118 12 c0
-5 -5 -10 -11 -10 -5 0 -7 5 -4 10 3 6 8 10 11 10 2 0 4 -4 4 -10z m-175 -10
c7 -11 -42 -37 -51 -27 -9 9 15 37 32 37 7 0 16 -4 19 -10z m95 -79 c-22 -32
-47 -64 -55 -71 -8 -7 -15 -17 -15 -22 0 -5 -22 -31 -50 -56 -27 -26 -61 -62
-74 -80 -69 -95 -235 -272 -211 -225 8 15 38 53 67 84 113 120 197 228 120
155 -23 -22 -45 -37 -48 -33 -7 7 55 82 87 105 20 14 21 13 14 -7 -4 -12 -2
-21 4 -21 6 0 11 5 11 10 0 6 10 21 23 34 30 30 107 127 107 135 0 4 -11 8
-25 9 -14 1 -25 -3 -25 -8 0 -6 7 -10 16 -10 14 0 14 -3 4 -15 -16 -19 -30
-19 -30 0 0 13 -4 14 -21 4 -21 -11 -21 -11 -3 15 23 30 66 50 94 43 11 -3 23
-1 26 4 3 5 9 9 15 9 5 0 -9 -26 -31 -59z m1972 41 c5 -19 50 -32 111 -32 15
0 27 -4 27 -10 0 -5 -7 -10 -15 -10 -9 0 -20 -10 -26 -23 -12 -27 -90 -58
-140 -55 -30 1 -28 2 11 7 31 4 45 11 45 21 0 12 -15 15 -78 14 -64 -2 -89 -7
-137 -31 -31 -15 -56 -24 -53 -18 2 6 46 32 97 58 52 26 101 59 110 72 19 30
42 32 48 7z m-3151 -36 c-25 -27 -58 -33 -39 -7 21 28 53 50 57 40 2 -6 -6
-21 -18 -33z m254 19 c0 -5 -17 -11 -37 -13 -36 -3 -47 5 -31 22 11 10 68 3
68 -9z m985 2 c0 -2 -12 -14 -27 -28 -24 -22 -24 -13 0 19 8 11 27 17 27 9z
m1770 -1 c0 -2 -7 -7 -16 -10 -8 -3 -12 -2 -9 4 6 10 25 14 25 6z m-3297 -18
c-18 -30 -57 -68 -70 -68 -21 0 -16 12 19 47 33 32 67 45 51 21z m217 5 c0
-10 -32 -43 -42 -43 -13 0 -9 17 8 34 16 16 34 21 34 9z m-320 -21 c0 -11 -69
-72 -81 -72 -17 0 -9 22 20 51 28 27 61 39 61 21z m550 -36 c0 -19 -27 -39
-41 -30 -8 5 -7 9 5 16 9 5 16 16 16 24 0 8 5 12 10 9 6 -3 10 -12 10 -19z
m2710 20 c0 -3 -14 -26 -31 -51 -39 -58 -44 -109 -11 -113 25 -4 28 -19 10
-57 -9 -21 -9 -31 0 -46 7 -10 12 -30 12 -44 0 -24 -2 -25 -47 -22 l-48 4 -12
69 c-27 147 -27 157 -4 178 12 11 21 25 21 33 0 37 20 53 65 53 25 0 45 -2 45
-4z m461 -23 c-5 -10 -22 -29 -37 -43 l-28 -25 27 33 c15 19 27 38 27 43 0 5
5 9 10 9 7 0 7 -6 1 -17z m40 -30 c-12 -20 -14 -14 -5 12 4 9 9 14 11 11 3 -2
0 -13 -6 -23z m-3111 9 c0 -4 -16 -23 -35 -42 -25 -24 -31 -36 -22 -42 9 -5 6
-13 -12 -30 l-23 -23 7 25 c7 23 7 23 -9 7 -19 -19 -36 -22 -36 -8 0 14 104
121 118 121 6 0 12 -4 12 -8z m-840 -21 c0 -6 -4 -13 -10 -16 -5 -3 -10 1 -10
9 0 9 5 16 10 16 6 0 10 -4 10 -9z m80 -10 c0 -5 -7 -12 -16 -15 -14 -5 -15
-4 -4 9 14 17 20 19 20 6z m1400 -11 c-6 -11 -15 -18 -21 -14 -6 4 -6 11 2 20
17 21 31 17 19 -6z m-1090 3 c0 -5 -14 -21 -30 -38 -17 -16 -50 -55 -73 -85
-24 -30 -51 -56 -61 -58 -18 -4 3 26 99 141 35 42 65 60 65 40z m72 -25 c-7
-7 -12 -19 -12 -29 0 -25 -39 -69 -61 -69 -10 0 -19 3 -19 7 0 8 91 103 99
103 3 0 0 -5 -7 -12z m376 -19 c-21 -17 -38 -37 -38 -44 0 -16 -50 -58 -59
-49 -6 6 114 124 127 124 4 -1 -10 -14 -30 -31z m2802 11 c-19 -4 -43 -11 -52
-15 -11 -4 -18 -3 -18 3 0 13 24 20 70 20 l35 0 -35 -8z m609 6 c-11 -9 -69
-14 -69 -6 0 6 17 10 37 10 20 0 34 -2 32 -4z m-201 -44 c-8 -9 -18 -26 -23
-37 -4 -11 -9 -15 -12 -9 -2 6 7 27 19 46 13 20 25 31 27 26 1 -5 -3 -17 -11
-26z m-2618 13 c0 -3 -9 -23 -19 -44 -21 -41 -51 -72 -51 -52 0 13 27 69 42
89 11 12 28 17 28 7z m-697 -50 c-3 -9 -8 -14 -10 -11 -3 3 -2 9 2 15 9 16 15
13 8 -4z m-259 -7 c-16 -28 -97 -118 -102 -114 -4 5 74 104 93 118 15 11 17
10 9 -4z m3008 -10 c-7 -7 -12 -8 -12 -2 0 14 12 26 19 19 2 -3 -1 -11 -7 -17z
m224 8 c9 -9 10 -17 4 -21 -14 -8 -30 3 -30 21 0 18 8 18 26 0z m-126 -11 c-7
-9 -27 -25 -43 -37 l-29 -21 11 21 c16 30 40 52 58 52 13 0 13 -3 3 -15z
m-3610 -5 c0 -5 -5 -10 -11 -10 -5 0 -7 5 -4 10 3 6 8 10 11 10 2 0 4 -4 4
-10z m4091 -12 c-4 -12 -20 -25 -34 -29 -23 -6 -27 -4 -27 13 0 15 5 19 20 15
10 -3 24 1 31 9 16 20 20 17 10 -8z m-3420 -5 c-11 -22 -71 -76 -77 -70 -5 5
68 87 78 87 5 0 4 -8 -1 -17z m34 -17 c-9 -13 -35 -36 -58 -52 l-42 -27 53 51
c58 57 71 65 47 28z m3209 -20 c-3 -9 -13 -16 -20 -16 -8 0 -27 -8 -42 -17
-36 -23 -24 -9 24 27 42 31 48 32 38 6z m-2634 6 c0 -15 -59 -92 -70 -92 -17
0 -11 15 20 58 28 39 50 54 50 34z m310 0 c0 -5 -11 -19 -25 -32 -28 -27 -36
-8 -8 22 17 19 33 24 33 10z m2198 -12 c-13 -20 -38 -28 -38 -12 0 7 31 27 48
31 1 1 -3 -8 -10 -19z m-2315 -17 c-18 -30 -148 -181 -255 -298 -63 -67 -42
-25 30 61 37 45 94 116 127 159 49 62 91 101 113 105 1 0 -5 -12 -15 -27z
m-1117 -11 c-15 -28 -46 -61 -46 -48 0 7 53 76 58 76 1 0 -4 -13 -12 -28z
m864 22 c0 -4 -14 -23 -31 -43 -87 -103 -124 -151 -156 -201 -19 -30 -40 -59
-47 -65 -6 -5 -21 -23 -33 -38 -42 -55 -95 -109 -100 -103 -3 3 6 19 21 36 14
17 26 35 26 39 0 4 11 14 25 21 14 7 36 36 49 64 13 28 44 71 68 96 23 25 50
57 58 72 8 15 35 49 60 77 41 47 60 61 60 45z m2450 -24 c0 -5 -7 -7 -15 -4
-8 4 -15 8 -15 10 0 2 7 4 15 4 8 0 15 -4 15 -10z m477 -43 c-18 -41 -43 -63
-32 -26 10 30 36 71 42 65 2 -2 -2 -20 -10 -39z m-3777 -7 c-21 -30 -40 -46
-40 -35 0 13 41 65 51 65 6 0 1 -13 -11 -30z m3713 10 c-6 -22 -33 -24 -40 -3
-4 10 9 17 39 22 3 0 4 -8 1 -19z m-3092 -27 c-11 -21 -71 -80 -71 -71 0 4 6
13 13 20 7 7 20 25 30 41 19 30 44 39 28 10z m2856 -17 c-19 -14 -114 -32
-123 -23 -3 2 18 7 45 11 28 4 53 11 56 16 3 6 14 10 23 10 15 -1 15 -2 -1
-14z m-2918 -3 c-1 -13 -94 -126 -107 -131 -23 -7 -12 13 39 76 46 56 70 75
68 55z m2483 -18 c4 -17 -2 -31 -19 -46 -31 -30 -48 -14 -39 35 6 29 11 36 30
36 17 0 25 -7 28 -25z m638 17 c0 -12 -39 -46 -45 -41 -6 7 24 49 36 49 5 0 9
-4 9 -8z m335 -2 c3 -5 -1 -10 -9 -10 -9 0 -16 5 -16 10 0 6 4 10 9 10 6 0 13
-4 16 -10z m-3917 -20 c-7 -11 -17 -20 -22 -20 -5 0 -1 9 9 20 10 11 20 20 22
20 2 0 -2 -9 -9 -20z m990 -2 c-8 -12 -25 -29 -38 -37 -22 -15 -22 -13 5 21
32 41 57 53 33 16z m-972 -24 c-15 -14 -31 -23 -34 -20 -9 9 30 46 47 46 11
-1 8 -8 -13 -26z m2101 6 c14 -11 40 -21 57 -21 17 -1 45 -4 61 -8 l30 -6 -37
-23 c-27 -17 -38 -31 -38 -48 0 -25 18 -32 37 -13 6 6 22 17 35 23 15 8 22 20
21 34 -3 25 14 29 41 9 16 -12 16 -14 -9 -27 -15 -8 -40 -34 -57 -57 -16 -24
-53 -59 -83 -78 -37 -23 -55 -41 -55 -55 0 -27 25 -26 60 3 15 12 42 30 59 39
17 9 41 33 52 53 30 51 55 62 78 34 20 -25 41 -19 41 12 0 12 -7 19 -20 19
-11 0 -20 7 -20 15 0 22 21 18 54 -8 l29 -23 -24 -27 c-46 -50 -79 -95 -79
-106 0 -18 35 -13 62 9 14 11 33 38 42 61 9 23 22 39 29 36 19 -6 58 -68 50
-80 -4 -6 -10 -2 -16 11 -15 32 -40 27 -61 -13 -11 -19 -30 -42 -42 -50 -46
-30 -23 -67 23 -39 23 15 21 11 -12 -24 -34 -37 -44 -42 -83 -42 -57 0 -67 -6
-132 -85 -56 -68 -95 -94 -195 -130 -59 -22 -91 -48 -99 -81 -4 -13 -12 -24
-19 -24 -6 0 -24 -6 -39 -14 -17 -9 -29 -11 -36 -4 -6 6 -30 7 -60 3 -40 -5
-51 -11 -56 -28 -6 -24 -20 -15 -30 20 -6 20 -3 23 32 29 59 9 70 19 54 44
-10 17 -10 25 -1 36 6 7 9 28 7 46 -4 22 1 41 13 58 20 27 23 43 21 103 -2 39
-26 71 -81 109 l-23 17 91 92 c55 56 88 96 82 102 -16 16 -47 -2 -91 -54 -43
-52 -114 -109 -134 -109 -6 0 7 17 30 38 23 20 48 51 57 68 18 34 75 77 127
95 19 7 42 21 50 31 9 11 40 21 85 28 38 6 71 13 74 16 9 8 23 4 48 -16z m905
-2 c-7 -7 -12 -8 -12 -2 0 14 12 26 19 19 2 -3 -1 -11 -7 -17z m98 -33 c16
-19 3 -40 -16 -24 -15 13 -19 39 -5 39 5 0 14 -7 21 -15z m276 0 c-11 -8 -34
-15 -50 -14 -28 1 -26 2 14 13 25 8 47 14 50 14 3 1 -4 -5 -14 -13z m-3466 -3
c0 -14 -39 -46 -47 -39 -3 4 2 16 12 27 19 21 35 26 35 12z m-160 -6 c0 -3 -4
-8 -10 -11 -5 -3 -10 -1 -10 4 0 6 5 11 10 11 6 0 10 -2 10 -4z m1143 -26 c-9
-16 -21 -30 -26 -30 -9 0 -1 17 21 43 23 26 25 21 5 -13z m-609 -15 c-7 -16
-24 -21 -24 -6 0 8 7 13 27 20 1 1 0 -6 -3 -14z m2585 -5 c21 -14 37 -18 64
-13 28 4 38 2 43 -10 7 -18 58 -21 91 -5 19 9 121 3 111 -7 -1 -2 -38 -11 -82
-19 -72 -15 -83 -15 -127 -1 -44 15 -52 15 -96 0 -26 -9 -59 -27 -73 -39 -26
-25 -62 -46 -77 -46 -5 0 12 23 38 51 26 29 53 65 60 80 14 34 13 34 48 9z
m-2066 -25 c-3 -9 -8 -14 -10 -11 -3 3 -2 9 2 15 9 16 15 13 8 -4z m-989 -16
c-3 -5 -10 -7 -15 -3 -5 3 -7 10 -3 15 3 5 10 7 15 3 5 -3 7 -10 3 -15z m187
-12 c-13 -12 -20 -15 -15 -7 12 22 28 39 33 34 3 -3 -6 -15 -18 -27z m-507 -2
c-6 -16 -24 -21 -24 -7 0 11 11 22 21 22 5 0 6 -7 3 -15z m-138 -43 c-24 -24
-31 -6 -10 25 16 24 19 26 22 9 2 -10 -3 -25 -12 -34z m63 26 c-9 -16 -14 -19
-17 -9 -2 7 2 17 9 22 20 13 21 11 8 -13z m941 -17 c-20 -30 -40 -40 -40 -22
0 12 50 64 57 58 3 -3 -5 -20 -17 -36z m-480 -40 c-20 -29 -40 -41 -40 -24 0
10 53 64 58 58 2 -2 -6 -18 -18 -34z m658 -21 c-37 -57 -68 -77 -68 -46 0 14
88 106 102 106 3 0 -12 -27 -34 -60z m-460 33 c-2 -14 -15 -18 -58 -20 l-55
-3 45 19 c58 24 72 25 68 4z m407 -12 c-3 -6 -11 -11 -17 -11 -6 0 -6 6 2 15
14 17 26 13 15 -4z m129 -5 c-4 -10 -13 -15 -22 -11 -8 3 -21 -3 -28 -12 -12
-16 -13 -16 -14 -2 0 18 26 33 41 23 5 -3 12 2 15 11 4 9 8 14 10 12 3 -2 2
-12 -2 -21z m-680 0 c-7 -19 -34 -29 -34 -12 0 7 3 16 7 19 12 13 32 7 27 -7z
m-184 -16 c0 -13 -28 -25 -38 -16 -3 4 0 11 8 16 20 13 30 12 30 0z m2864 -15
c-9 -14 -20 -25 -25 -25 -5 0 -9 11 -9 25 0 20 5 25 25 25 25 0 25 -1 9 -25z
m206 5 c0 -5 -5 -10 -11 -10 -5 0 -7 5 -4 10 3 6 8 10 11 10 2 0 4 -4 4 -10z
m-3780 -4 c0 -20 -22 -56 -35 -56 -20 0 -19 19 2 42 15 17 33 24 33 14z m3470
-31 c6 -8 9 -23 5 -35 -7 -23 -35 -27 -35 -5 0 9 -7 18 -16 22 -15 6 -15 8 2
20 23 17 29 16 44 -2z m-2505 -5 c-3 -5 -10 -10 -16 -10 -5 0 -9 5 -9 10 0 6
7 10 16 10 8 0 12 -4 9 -10z m425 1 c0 -12 -20 -25 -27 -18 -7 7 6 27 18 27 5
0 9 -4 9 -9z m1162 -43 c-8 -8 -8 -17 -1 -30 12 -22 6 -33 -19 -33 -9 0 -17
-7 -17 -15 0 -16 76 -36 101 -26 19 7 18 35 -2 58 -16 16 -15 18 0 24 36 14
101 -45 77 -69 -6 -6 -11 -19 -11 -29 0 -12 -8 -18 -24 -18 -24 0 -44 -29 -33
-48 3 -4 -1 -18 -9 -32 -13 -24 -13 -24 -14 -3 0 32 -10 53 -26 53 -17 0 -17
-29 0 -94 13 -49 36 -72 59 -61 6 4 3 -1 -7 -9 -11 -9 -34 -16 -52 -16 -27 0
-31 3 -27 23 5 28 -22 56 -38 40 -8 -8 -8 -17 0 -31 15 -28 14 -32 -8 -32 -15
0 -21 8 -23 32 -4 43 -38 53 -38 12 l0 -28 -28 27 c-16 15 -31 24 -35 21 -4
-4 -15 0 -25 9 -30 27 -46 7 -32 -42 7 -27 8 -47 1 -59 -17 -30 -44 52 -37
110 5 38 4 50 -9 54 -26 10 -18 53 13 66 79 32 98 44 139 86 24 26 63 54 86
63 44 18 59 17 39 -3z m1027 -32 c-2 -2 -17 -2 -33 1 l-29 6 24 18 c23 18 24
18 33 -2 5 -10 7 -21 5 -23z m-139 -17 c0 -5 -4 -9 -10 -9 -5 0 -10 7 -10 16
0 8 5 12 10 9 6 -3 10 -10 10 -16z m218 -21 l133 3 -26 -50 c-24 -49 -27 -51
-68 -51 -23 1 -59 9 -80 19 -54 25 -103 15 -100 -21 1 -21 -5 -29 -29 -37 -38
-13 -118 -14 -118 -2 0 5 18 23 40 41 22 17 49 49 62 71 16 29 26 38 38 32 8
-4 75 -7 148 -5z m-228 -8 c0 -5 -8 -10 -17 -10 -15 0 -16 2 -3 10 19 12 20
12 20 0z m-1787 -30 c18 0 24 -25 8 -34 -11 -7 -71 25 -71 38 0 4 10 6 23 2
12 -3 30 -6 40 -6z m297 -41 c27 -27 58 -49 69 -49 28 0 40 -27 38 -83 -2 -38
-5 -47 -20 -47 -11 0 -21 -8 -23 -17 -5 -17 -22 -18 -201 -16 -108 1 -202 4
-210 7 -13 6 -18 71 -7 100 10 27 23 7 17 -27 -8 -51 14 -63 85 -47 31 7 69
19 84 27 40 19 74 16 123 -13 25 -14 49 -23 55 -19 13 8 13 45 0 45 -5 0 -10
13 -10 29 0 31 -13 47 -44 52 -10 2 -23 12 -27 22 -5 9 -13 25 -18 35 -5 11
-27 20 -62 25 -83 13 -76 22 17 24 l86 1 48 -49z m1354 32 c3 -5 -4 -11 -16
-14 -20 -6 -20 -7 -5 -31 26 -38 20 -41 -14 -7 -18 19 -29 38 -25 46 6 16 51
21 60 6z m79 -5 c3 -8 -1 -20 -9 -26 -12 -10 -14 -8 -14 14 0 28 14 35 23 12z
m-1816 -34 c37 -23 16 -33 -22 -11 -19 12 -32 25 -29 30 5 9 10 8 51 -19z
m147 -36 c-10 -8 -21 -12 -23 -10 -3 2 4 11 15 18 10 8 21 12 23 10 3 -2 -4
-11 -15 -18z m112 -53 c-3 -3 -27 -7 -53 -10 l-48 -5 40 35 40 35 13 -25 c8
-14 11 -27 8 -30z m-1506 40 c0 -11 -51 -73 -61 -73 -15 0 -10 20 14 50 20 26
47 39 47 23z m104 -6 c-2 -7 -14 -18 -25 -25 -22 -14 -21 -6 4 26 12 16 28 16
21 -1z m2770 4 c3 -5 -1 -11 -9 -15 -9 -3 -15 -18 -15 -36 0 -33 -11 -38 -30
-15 -12 14 -8 27 18 58 17 19 28 22 36 8z m-2937 -25 c-3 -8 -16 -20 -28 -26
-17 -10 -20 -9 -14 2 24 41 55 59 42 24z m234 -16 c-27 -37 -10 -40 18 -4 12
15 21 21 21 14 0 -16 -68 -100 -81 -100 -6 0 -6 7 1 19 14 28 12 36 -5 21 -30
-25 -15 10 21 50 42 46 59 45 25 0z m-303 5 c-11 -25 -28 -34 -28 -15 0 5 -7
7 -15 4 -11 -5 -13 -2 -9 10 4 11 13 14 24 11 10 -3 21 -1 25 5 12 20 14 10 3
-15z m172 6 c0 -20 -47 -64 -59 -57 -9 6 -5 16 15 37 28 30 44 37 44 20z
m1771 -43 c4 -24 10 -52 14 -64 5 -15 0 -23 -20 -32 -35 -16 -35 -16 -23 18 6
17 8 44 5 59 -6 29 2 76 11 66 3 -2 9 -24 13 -47z m-1406 23 c-3 -6 -11 -11
-17 -11 -6 0 -6 6 2 15 14 17 26 13 15 -4z m-357 -21 c-14 -22 -44 -38 -32
-17 14 23 27 37 35 37 5 0 4 -9 -3 -20z m232 11 c0 -5 -7 -14 -15 -21 -16 -14
-18 -10 -9 14 6 17 24 22 24 7z m191 -18 c-5 -21 -14 -29 -36 -31 l-28 -4 29
31 c36 38 44 39 35 4z m1455 -5 c0 -18 3 -49 7 -68 l8 -35 -21 28 c-12 15 -28
27 -35 27 -7 0 -15 7 -19 15 -4 12 0 14 19 9 23 -6 25 -3 25 25 0 17 4 31 8
31 5 0 8 -15 8 -32z m-1872 -41 c-28 -28 -67 -74 -88 -100 -21 -26 -41 -46
-43 -43 -6 6 79 112 134 168 20 21 39 35 42 32 3 -2 -18 -28 -45 -57z m277 41
c-5 -13 -17 -25 -27 -27 -17 -3 -16 0 5 23 30 32 33 32 22 4z m186 -3 c-4 -8
-11 -15 -17 -15 -7 0 -7 6 0 21 13 23 26 19 17 -6z m1823 9 c0 -17 -22 -14
-28 4 -2 7 3 12 12 12 9 0 16 -7 16 -16z m450 -9 c7 -8 9 -22 6 -31 -6 -15 -8
-15 -27 2 -20 18 -21 18 -34 1 -6 -9 -20 -17 -30 -17 -13 0 -16 -5 -11 -25 10
-38 -4 -51 -20 -20 -30 57 -5 113 38 86 18 -11 22 -11 30 3 11 20 32 21 48 1z
m-2690 -34 c0 -5 -7 -12 -16 -15 -14 -5 -15 -4 -4 9 14 17 20 19 20 6z m2513
-32 c-7 -7 -20 -8 -30 -5 -17 7 -17 8 1 22 23 17 48 2 29 -17z m-491 -24 c10
-13 -11 -35 -27 -29 -7 3 -15 21 -17 39 -4 34 -3 34 17 17 11 -9 23 -21 27
-27z m158 -9 c0 -11 -19 -15 -25 -6 -3 5 1 10 9 10 9 0 16 -2 16 -4z m-2250
-14 c0 -16 -51 -77 -71 -84 -24 -9 -19 2 26 55 29 35 45 45 45 29z m-234 -30
c-8 -15 -24 -36 -36 -47 l-23 -20 14 25 c14 26 50 70 56 70 2 0 -3 -12 -11
-28z m124 9 c-11 -21 -29 -36 -36 -29 -4 5 33 48 42 48 2 0 0 -9 -6 -19z m130
-16 c-26 -28 -46 -24 -28 5 12 18 37 31 47 23 3 -2 -6 -14 -19 -28z m58 10
c-11 -24 -28 -32 -41 -19 -6 7 32 43 45 44 4 0 2 -11 -4 -25z m-365 -16 c-20
-34 -53 -67 -53 -53 0 15 50 84 61 84 6 0 2 -14 -8 -31z m117 -58 c-6 -12 -16
-19 -21 -15 -6 4 -4 13 7 25 21 24 29 18 14 -10z"/>
<path d="M2486 8581 c-3 -4 3 -16 13 -25 16 -15 19 -15 34 2 10 10 14 22 10
25 -9 10 -51 9 -57 -2z"/>
<path d="M2490 8455 c-13 -15 -5 -22 30 -26 38 -4 44 1 25 21 -22 24 -38 25
-55 5z"/>
<path d="M4060 6064 c-19 -7 -43 -13 -52 -13 -10 -1 -18 -5 -18 -11 0 -15 93
-12 115 3 10 8 15 19 11 25 -8 14 -10 14 -56 -4z"/>
<path d="M3555 3079 c-4 -6 -5 -12 -2 -15 2 -3 7 2 10 11 7 17 1 20 -8 4z"/>
<path d="M4120 3020 c-12 -7 -12 -10 3 -16 21 -8 29 -3 19 13 -5 8 -13 9 -22
3z"/>
<path d="M4115 2980 c-3 -5 -2 -10 4 -10 5 0 13 5 16 10 3 6 2 10 -4 10 -5 0
-13 -4 -16 -10z"/>
<path d="M4064 2946 c-3 -8 -4 -23 -1 -33 4 -14 5 -13 6 5 0 12 6 22 11 22 6
0 10 5 10 10 0 15 -20 12 -26 -4z"/>
<path d="M4113 2913 c-3 -10 -8 -22 -10 -28 -3 -5 2 -2 10 7 8 10 17 15 20 11
4 -3 7 1 7 10 0 22 -19 22 -27 0z"/>
<path d="M3645 3030 c-3 -5 -1 -10 4 -10 6 0 11 5 11 10 0 6 -2 10 -4 10 -3 0
-8 -4 -11 -10z"/>
<path d="M3630 1735 c0 -8 9 -15 20 -15 11 0 20 7 20 15 0 8 -9 15 -20 15 -11
0 -20 -7 -20 -15z"/>
<path d="M3188 904 c-86 -88 -106 -104 -126 -99 -18 4 -22 2 -20 -11 5 -28
-21 -27 -32 1 -13 34 -32 22 -28 -17 4 -41 -23 -59 -50 -34 -23 20 -37 7 -27
-24 4 -11 2 -20 -4 -20 -5 0 -13 9 -16 20 -3 11 -13 20 -21 20 -19 0 -18 -44
1 -64 8 -8 12 -22 9 -30 -10 -25 5 -19 60 23 28 22 77 55 110 75 57 34 276
238 276 257 0 27 -40 -2 -132 -97z"/>
<path d="M149 4885 c-3 -2 -38 -5 -77 -6 -67 -1 -72 -3 -72 -23 0 -21 5 -22
100 -24 81 -1 102 1 107 13 10 27 -38 60 -58 40z"/>
<path d="M4600 3044 c0 -8 5 -12 10 -9 6 4 8 11 5 16 -9 14 -15 11 -15 -7z"/>
<path d="M4810 3042 c0 -7 6 -15 14 -18 9 -3 12 -13 9 -22 -4 -13 -2 -12 10 3
21 26 21 39 0 31 -9 -4 -20 -1 -25 6 -6 11 -8 11 -8 0z"/>
<path d="M4633 3033 c-7 -2 -13 -11 -13 -18 0 -8 -12 -23 -26 -34 -35 -28 -22
-27 21 2 44 29 57 66 18 50z"/>
<path d="M4683 3030 c-13 -5 -23 -16 -23 -24 0 -8 -4 -16 -8 -18 -10 -4 -52
-72 -52 -84 0 -5 13 6 29 24 17 17 35 32 41 32 6 0 8 5 5 11 -4 6 1 17 11 24
26 20 34 18 34 -5 0 -23 22 -27 38 -7 12 14 5 57 -8 57 -5 0 -11 -6 -14 -12
-5 -10 -7 -10 -12 0 -7 14 -11 14 -41 2z"/>
<path d="M4560 3019 c0 -5 5 -7 10 -4 6 3 10 8 10 11 0 2 -4 4 -10 4 -5 0 -10
-5 -10 -11z"/>
<path d="M4810 2979 c0 -11 4 -18 10 -14 5 3 7 12 3 20 -7 21 -13 19 -13 -6z"/>
<path d="M19 2966 c-17 -13 -23 -56 -8 -56 5 0 7 5 3 12 -5 7 -2 9 7 6 16 -6
33 10 35 33 1 18 -17 21 -37 5z"/>
<path d="M203 2970 c-13 -5 -23 -16 -23 -25 0 -8 -5 -15 -11 -15 -5 0 -8 -4
-4 -9 3 -6 18 -3 34 7 16 9 27 20 24 25 -3 5 1 13 8 18 18 11 1 10 -28 -1z"/>
<path d="M4566 2941 c-4 -7 -5 -15 -2 -18 9 -9 19 4 14 18 -4 11 -6 11 -12 0z"/>
<path d="M4685 2939 c-4 -6 -5 -13 -2 -16 7 -7 27 6 27 18 0 12 -17 12 -25 -2z"/>
<path d="M4910 2920 c0 -5 5 -10 11 -10 5 0 7 5 4 10 -3 6 -8 10 -11 10 -2 0
-4 -4 -4 -10z"/>
<path d="M4540 2890 c0 -5 5 -10 10 -10 6 0 10 5 10 10 0 6 -4 10 -10 10 -5 0
-10 -4 -10 -10z"/>
<path d="M4925 2890 c3 -5 8 -10 11 -10 2 0 4 5 4 10 0 6 -5 10 -11 10 -5 0
-7 -4 -4 -10z"/>
<path d="M4852 2031 c-22 -13 7 -29 62 -33 58 -4 73 14 25 31 -38 13 -69 14
-87 2z"/>
<path d="M4840 1992 c-8 -2 -23 -11 -32 -20 -10 -8 -34 -17 -55 -19 -44 -5
-53 -11 -33 -23 27 -17 96 -11 124 11 36 29 34 64 -4 51z"/>
<path d="M4992 1975 c0 -16 2 -22 5 -12 2 9 2 23 0 30 -3 6 -5 -1 -5 -18z"/>
<path d="M4592 1963 c-10 -4 -10 -8 -1 -19 14 -17 55 -19 65 -3 12 21 -31 36
-64 22z"/>
<path d="M4890 1950 c-19 -12 -5 -26 38 -33 27 -6 32 -4 32 13 0 11 -6 20 -14
20 -8 0 -20 2 -28 5 -7 3 -20 1 -28 -5z"/>
<path d="M4902 1878 c6 -17 43 -28 59 -17 12 8 12 10 -1 19 -21 14 -63 13 -58
-2z"/>
<path d="M4978 1122 c-9 -15 -35 -37 -58 -47 -25 -11 -40 -25 -40 -36 0 -31
-55 -41 -139 -24 -85 18 -111 13 -111 -19 0 -19 -6 -24 -38 -28 -62 -9 -116 4
-127 29 -14 33 -27 35 -151 27 -126 -7 -145 -14 -124 -39 12 -14 24 -16 70
-10 147 18 149 18 160 -10 13 -34 40 -43 138 -44 79 -1 83 0 114 29 24 23 38
29 57 25 44 -9 173 -21 221 -19 l45 1 3 52 c2 28 2 72 0 97 l-3 46 -17 -30z"/>
<path d="M4929 910 c-102 -41 -319 -60 -400 -37 -38 11 -57 13 -74 5 -18 -8
-37 -5 -84 11 -51 17 -68 19 -112 11 -28 -6 -53 -10 -55 -10 -2 0 -11 -11 -20
-25 -13 -21 -14 -28 -4 -40 12 -14 15 -13 34 4 30 28 94 36 131 17 17 -9 37
-16 46 -16 18 0 39 -19 39 -37 0 -22 -41 -35 -104 -34 -167 3 -386 -36 -386
-68 0 -18 -73 -91 -91 -91 -9 0 -28 -9 -42 -20 -16 -13 -27 -16 -29 -9 -8 25
-549 12 -565 -14 -3 -6 3 -16 13 -24 20 -15 81 -13 177 5 27 5 131 7 233 5
l184 -4 49 27 c51 27 111 79 111 96 0 20 75 38 177 43 244 12 266 14 289 30
14 9 24 25 24 39 0 39 19 45 135 44 112 -1 229 16 337 49 48 15 58 22 58 41 0
26 -9 26 -71 2z"/>
<path d="M4715 733 c-16 -2 -47 -8 -68 -15 -37 -11 -38 -13 -32 -45 6 -31 4
-33 -24 -33 -17 0 -46 -8 -66 -17 -47 -22 -45 -53 4 -69 32 -10 33 -11 10 -17
-13 -3 -33 -13 -44 -21 -19 -14 -19 -16 -3 -32 9 -10 40 -19 75 -23 42 -4 58
-10 58 -21 0 -8 -11 -16 -25 -18 -68 -9 -98 -23 -110 -51 -23 -57 20 -72 47
-17 17 37 58 55 77 36 6 -6 11 -32 12 -58 3 -200 3 -202 24 -202 33 0 42 34
38 153 l-3 112 25 -2 c14 -1 61 -5 104 -9 56 -5 77 -4 72 4 -6 10 -82 21 -166
25 -28 2 -35 6 -35 22 0 19 7 20 120 20 147 0 175 -6 175 -40 0 -14 5 -25 10
-25 6 0 10 15 10 34 0 32 -2 35 -49 46 -27 6 -98 15 -157 18 -72 5 -109 11
-112 20 -3 9 23 12 107 12 67 0 111 4 111 10 0 6 -16 10 -35 10 -19 0 -35 5
-35 10 0 6 9 10 20 10 11 0 20 5 20 10 0 6 -31 10 -72 11 -40 1 -84 4 -98 9
-24 7 -23 7 10 13 19 3 48 5 64 4 16 -1 31 3 33 9 5 15 -29 24 -89 24 -44 0
-48 2 -48 25 0 16 6 25 15 25 8 0 15 -7 15 -15 0 -10 11 -15 38 -16 85 -3 119
6 127 32 14 44 -31 57 -150 42z m90 -33 c4 -6 -7 -10 -27 -10 -25 0 -29 3 -18
10 19 13 37 13 45 0z m-187 -107 c2 -9 -9 -13 -37 -13 -39 0 -55 13 -28 24 21
8 60 2 65 -11z m2 -93 c0 -5 -18 -9 -40 -8 -22 1 -40 5 -40 10 0 4 18 8 40 8
22 0 40 -4 40 -10z"/>
<path d="M4744 358 c-7 -12 21 -38 42 -38 14 0 23 20 17 38 -6 15 -49 16 -59
0z"/>
</g>
</svg>
