<?xml version="1.0" standalone="no"?>
<!DOCTYPE svg PUBLIC "-//W3C//DTD SVG 20010904//EN"
 "http://www.w3.org/TR/2001/REC-SVG-20010904/DTD/svg10.dtd">
<svg version="1.0" xmlns="http://www.w3.org/2000/svg"
 width="500.000000pt" height="878.000000pt" viewBox="0 0 500.000000 878.000000"
 preserveAspectRatio="xMidYMid meet">
<metadata>
Created by potrace 1.15, written by Peter Selinger 2001-2017
</metadata>
<g transform="translate(0.000000,878.000000) scale(0.100000,-0.100000)"
fill="#000000" stroke="none">
<path d="M4085 8743 c-3 -21 -33 -148 -66 -283 -80 -328 -76 -312 -99 -425
-11 -55 -29 -136 -40 -180 -55 -227 -70 -293 -70 -318 0 -16 -4 -47 -9 -70
-49 -227 -88 -394 -100 -422 -24 -55 -41 -114 -41 -142 0 -19 -6 -33 -16 -37
-25 -10 -156 -7 -194 4 -19 6 -52 8 -73 4 -32 -5 -41 -12 -53 -40 l-14 -34
-72 36 c-40 20 -117 46 -177 60 -204 47 -234 57 -248 84 -30 62 -54 133 -49
146 4 10 22 14 58 14 68 0 128 30 163 80 24 34 27 47 22 84 -6 39 -4 44 17 54
27 12 36 7 36 -20 0 -26 48 -68 77 -68 25 0 104 36 114 52 4 6 16 7 28 3 16
-5 34 1 62 20 21 15 39 31 39 36 0 14 91 69 115 69 28 0 42 17 27 32 -17 17
-139 -31 -169 -66 -17 -20 -35 -30 -61 -32 -49 -4 -61 5 -55 39 5 25 9 27 34
22 30 -7 42 0 93 52 138 143 161 178 135 209 -11 14 -10 19 11 36 60 47 62 50
51 61 -7 7 -25 0 -63 -25 -29 -19 -68 -43 -86 -52 l-33 -17 6 34 c9 46 -18
103 -58 123 -54 28 -150 2 -213 -58 -23 -22 -42 -29 -75 -31 -61 -3 -57 17 11
57 54 32 70 58 40 63 -24 4 -142 -60 -163 -89 -17 -23 -18 -31 -7 -57 16 -41
59 -54 129 -41 29 5 57 7 62 4 15 -9 -33 -84 -57 -90 -12 -3 -33 1 -46 10 -23
15 -28 15 -72 -9 -26 -14 -53 -25 -60 -25 -7 0 -34 24 -60 53 -47 53 -57 63
-101 106 -21 20 -31 23 -67 17 -27 -4 -49 -15 -60 -29 -15 -19 -20 -20 -37
-10 -21 13 -119 11 -246 -6 -80 -10 -156 -40 -177 -69 -7 -11 -30 -30 -50 -41
l-36 -22 -17 28 c-20 34 -106 96 -156 112 -60 19 -194 8 -261 -22 -74 -34
-134 -112 -104 -136 14 -11 36 4 36 24 0 14 57 69 89 85 34 17 134 16 209 -4
67 -17 124 -52 156 -94 18 -23 18 -26 1 -83 -16 -51 -16 -65 -5 -102 7 -23 16
-53 19 -66 4 -14 15 -28 24 -33 9 -4 25 -12 35 -17 9 -4 19 -18 20 -31 2 -12
12 -25 23 -27 10 -3 19 -13 19 -22 0 -9 4 -21 9 -26 5 -6 14 -27 21 -48 6 -21
26 -48 44 -62 18 -14 46 -49 61 -77 34 -62 50 -77 87 -78 18 0 33 -10 47 -29
35 -49 24 -81 -28 -81 -9 0 -44 -20 -77 -44 -33 -24 -70 -46 -81 -50 -33 -10
-111 -101 -134 -153 -11 -27 -26 -55 -33 -63 -15 -17 -26 -64 -31 -130 -7
-115 -28 -247 -42 -269 -24 -37 -90 -99 -125 -117 -25 -13 -46 -15 -102 -9
-88 8 -156 42 -187 91 -22 36 -22 38 -6 66 22 38 21 51 -3 73 -15 14 -23 16
-32 7 -8 -8 -14 -8 -22 3 -9 12 -18 13 -46 5 -39 -11 -123 -6 -181 12 -47 14
-136 96 -141 129 -5 35 -32 30 -36 -6 -6 -63 107 -152 220 -173 26 -5 79 -6
118 -3 39 4 73 4 76 0 2 -4 0 -27 -5 -50 -11 -50 0 -78 51 -125 41 -39 112
-64 203 -71 89 -7 157 19 204 78 39 48 51 49 51 6 0 -18 17 -69 38 -112 21
-44 47 -100 58 -124 10 -24 37 -80 59 -124 35 -70 46 -83 89 -107 40 -22 52
-35 67 -76 11 -27 19 -69 19 -93 0 -24 5 -72 12 -106 10 -57 9 -66 -8 -96 -11
-19 -44 -47 -77 -67 -46 -27 -63 -44 -87 -90 -47 -87 -117 -202 -221 -362 -52
-80 -105 -171 -117 -203 l-22 -58 46 -32 c45 -31 46 -33 40 -75 -4 -29 -1 -53
9 -71 13 -26 11 -36 -21 -127 -19 -54 -44 -130 -54 -169 -10 -38 -40 -131 -66
-205 -25 -74 -55 -171 -66 -215 -37 -150 -73 -200 -146 -197 -59 2 -69 28 -46
109 5 17 1 25 -19 34 -21 10 -30 7 -71 -25 -62 -47 -108 -56 -147 -27 -28 21
-30 21 -61 5 -51 -27 -195 -24 -279 4 -74 25 -105 53 -139 125 -32 68 -30 125
4 152 32 26 32 32 1 65 -18 19 -27 43 -34 93 -12 82 0 129 40 170 24 24 36 28
59 23 29 -5 30 -4 30 29 0 58 96 147 179 166 37 8 71 -3 71 -24 0 -7 6 -25 13
-40 11 -26 17 -29 62 -31 12 -1 21 -10 25 -26 9 -37 35 -37 46 1 13 45 53 71
118 77 47 4 62 0 101 -22 67 -40 110 -137 85 -196 -9 -23 -9 -34 4 -58 9 -17
16 -47 16 -67 0 -29 3 -36 18 -33 23 4 28 58 8 97 -16 31 -9 45 17 35 8 -3 18
-1 22 5 3 6 21 11 40 11 25 0 38 -7 53 -27 16 -22 23 -25 33 -16 17 17 -1 56
-37 79 -26 18 -56 15 -118 -11 -16 -7 -18 -5 -13 9 10 25 -10 91 -41 138 -24
37 -77 73 -132 90 -47 15 -129 -2 -165 -34 -32 -28 -35 -28 -75 -16 -31 10
-45 21 -55 44 -7 17 -17 34 -23 38 -18 11 -81 15 -87 6 -4 -6 -28 -20 -56 -31
-49 -22 -91 -61 -124 -117 -10 -16 -32 -36 -48 -43 -97 -44 -138 -210 -81
-321 13 -25 12 -31 -6 -65 -24 -45 -24 -52 -5 -128 l16 -59 -31 -24 c-23 -18
-30 -31 -30 -58 0 -20 5 -45 11 -56 9 -17 7 -25 -15 -47 -25 -24 -31 -26 -134
-26 -98 0 -111 -2 -162 -29 -80 -42 -107 -63 -150 -117 -41 -52 -74 -145 -85
-241 -11 -86 21 -180 82 -248 26 -29 60 -61 76 -70 l28 -18 -33 -11 c-18 -6
-41 -22 -50 -34 -14 -18 -20 -20 -35 -10 -54 36 -122 71 -151 76 -43 9 -82 -7
-82 -33 0 -17 3 -19 19 -8 28 17 94 -5 161 -56 67 -50 106 -52 122 -5 12 35
40 44 109 35 l50 -7 -3 28 c-2 24 -14 33 -69 60 -157 76 -215 228 -155 411 55
168 162 252 322 252 55 0 66 -3 88 -26 28 -30 42 -26 51 16 8 36 63 71 116 73
57 2 63 -8 57 -87 -3 -35 21 -48 29 -17 3 13 21 28 40 36 47 20 50 19 25 -8
-29 -31 -50 -84 -44 -113 7 -38 30 -28 42 18 24 86 89 119 242 122 75 1 89 -2
110 -20 12 -12 30 -24 39 -27 9 -3 30 -25 47 -50 l30 -45 -29 -63 c-16 -35
-29 -69 -29 -76 0 -6 -12 -26 -26 -43 -59 -70 -111 -202 -120 -308 -5 -56 -16
-98 -41 -152 -35 -78 -47 -92 -70 -83 -7 3 -20 0 -28 -7 -20 -17 -98 -14 -134
4 -31 16 -51 59 -51 109 0 23 -3 28 -17 24 -91 -30 -99 -31 -139 -11 -21 10
-44 29 -50 42 -16 33 -17 33 -68 16 -45 -15 -46 -17 -31 -34 22 -24 11 -40
-25 -40 -15 0 -30 -6 -33 -14 -8 -21 24 -45 53 -40 31 6 123 -46 147 -82 24
-38 20 -111 -11 -166 -27 -48 -31 -118 -8 -126 7 -2 28 3 46 12 46 22 92 20
116 -4 26 -26 25 -42 -1 -66 -18 -16 -40 -55 -43 -75 -1 -3 -26 -37 -56 -75
-31 -38 -68 -90 -83 -117 -32 -55 -99 -102 -140 -99 -15 1 -40 -4 -55 -11 -15
-7 -34 -12 -43 -10 -8 2 -24 -5 -34 -17 -52 -57 -48 25 4 105 39 58 39 60 18
66 l-22 5 23 15 c24 15 30 39 8 39 -23 0 -66 -40 -89 -83 l-22 -42 -3 30 c-4
29 14 99 29 121 5 5 6 19 3 30 -3 13 6 30 30 53 31 30 37 33 52 20 11 -9 35
-13 70 -11 28 2 62 -2 74 -8 18 -10 26 -8 45 10 20 18 30 21 64 15 33 -5 41
-4 41 8 0 23 -24 37 -63 35 -48 -2 -51 3 -30 40 10 17 14 34 10 38 -4 4 -29 7
-55 5 -36 -1 -55 3 -75 20 -24 18 -35 20 -87 14 -33 -4 -78 -4 -101 0 l-42 7
69 44 c50 32 94 49 159 65 60 14 97 28 113 44 30 31 16 38 -58 29 -66 -7 -79
6 -40 41 11 10 17 21 15 26 -3 4 -45 8 -93 7 -68 0 -94 -4 -121 -20 -31 -17
-35 -18 -43 -4 -13 23 -29 20 -76 -15 -64 -47 -76 -78 -75 -181 2 -86 1 -88
-22 -88 -32 0 -85 -46 -85 -73 0 -12 12 -31 27 -41 25 -18 26 -18 39 -1 7 10
15 22 16 27 2 5 11 6 19 3 12 -4 19 -26 24 -73 9 -72 9 -203 0 -239 -6 -26
-44 -41 -56 -22 -5 9 -28 14 -64 14 l-55 0 0 -108 c0 -116 -2 -113 53 -75 15
11 27 17 27 13 0 -3 18 4 40 16 44 25 65 19 34 -9 -17 -16 -90 -51 -136 -66
-10 -3 -18 -14 -18 -24 0 -19 3 -18 88 5 130 36 141 37 160 19 26 -23 83 -5
116 38 39 52 55 66 71 60 7 -3 27 5 44 17 17 12 33 20 37 17 13 -14 -20 -50
-60 -68 -24 -10 -54 -32 -67 -48 -13 -17 -50 -51 -81 -77 -51 -42 -61 -46 -85
-37 -16 5 -50 6 -78 2 -139 -21 -145 -23 -145 -39 0 -15 15 -17 137 -15 76 1
147 5 158 10 18 7 18 6 6 -9 -23 -28 -80 -37 -193 -30 -106 6 -108 6 -108 -15
0 -14 8 -23 23 -26 12 -2 47 -9 77 -15 46 -9 64 -9 99 4 24 8 55 15 70 15 31
0 86 32 100 58 6 11 27 30 48 42 32 19 47 21 96 16 47 -5 60 -3 72 12 63 74
96 105 135 125 43 23 66 57 38 57 -8 0 -38 -7 -68 -16 -41 -12 -66 -29 -106
-70 -46 -47 -60 -55 -101 -61 -26 -3 -65 -14 -85 -24 -21 -11 -40 -19 -43 -19
-3 0 19 25 49 56 41 43 62 56 86 57 27 2 36 9 60 52 39 72 108 103 162 74 29
-15 140 -30 153 -19 5 4 33 15 60 23 31 8 54 22 61 35 13 26 119 104 161 119
36 12 103 2 141 -23 16 -10 28 -12 40 -5 10 5 43 13 73 16 30 4 63 10 74 15
23 9 220 50 238 49 7 0 2 -4 -10 -9 -13 -5 -23 -16 -23 -25 0 -8 -6 -15 -14
-15 -7 0 -20 -7 -27 -16 -11 -14 -26 -15 -86 -10 -53 4 -79 2 -100 -9 -15 -8
-47 -15 -70 -15 -23 0 -53 -4 -68 -10 -14 -5 -38 -13 -53 -16 -26 -6 -38 -6
-104 -3 -18 1 -60 -9 -93 -22 -50 -20 -60 -28 -60 -48 0 -18 -7 -26 -28 -32
-56 -15 -211 -102 -264 -147 -66 -57 -85 -84 -92 -132 -1 -3 -10 -11 -21 -18
-17 -10 -26 -8 -61 18 -61 44 -80 41 -169 -31 -64 -51 -81 -58 -172 -74 -44
-8 -83 -17 -85 -19 -3 -2 -23 2 -45 10 -58 20 -68 18 -68 -14 0 -25 5 -28 51
-39 28 -7 55 -11 59 -8 4 3 40 9 80 15 88 12 140 35 213 89 61 46 80 50 105
20 27 -33 57 -40 98 -23 57 24 104 66 104 93 0 35 115 142 194 180 36 17 70
31 77 31 15 0 102 42 111 54 3 5 4 15 1 22 -3 8 7 19 22 26 25 11 29 10 49
-15 25 -31 49 -35 68 -9 7 10 24 18 38 19 14 1 56 4 94 7 50 3 76 10 98 26 16
12 34 19 41 16 9 -3 9 -5 0 -5 -7 -1 -13 -8 -13 -16 0 -8 6 -16 13 -16 6 -1
17 -2 22 -4 6 -1 17 -3 25 -3 11 -2 11 -5 2 -14 -19 -19 -14 -27 16 -25 22 2
27 7 27 30 -1 23 2 26 24 20 20 -5 23 -3 18 11 -8 20 6 21 22 2 8 -10 34 -13
99 -10 96 3 192 -4 192 -16 0 -16 -79 -40 -164 -49 -95 -11 -120 -23 -111 -52
10 -30 -27 -37 -173 -31 -105 4 -132 7 -128 18 3 7 0 16 -6 20 -17 11 -135 4
-183 -10 -121 -37 -288 -126 -355 -190 -76 -72 -115 -99 -217 -150 -118 -58
-130 -62 -153 -41 -22 20 -27 19 -162 -23 -79 -25 -103 -29 -130 -21 -38 10
-92 12 -137 3 -27 -6 -31 -11 -31 -40 0 -32 1 -33 53 -39 29 -4 70 -7 92 -7
53 -1 184 48 213 79 l23 25 44 -37 c43 -35 47 -36 83 -25 47 16 95 36 150 63
46 23 225 166 239 191 13 24 174 125 209 132 18 3 40 15 50 25 20 23 66 26 58
5 -9 -22 14 -29 90 -27 39 1 134 3 211 5 153 3 199 15 229 61 11 17 25 25 45
25 15 0 74 12 130 26 56 14 114 24 129 22 18 -2 2 -8 -45 -17 -40 -7 -83 -21
-97 -32 -13 -10 -39 -19 -58 -19 -45 0 -62 -12 -53 -39 4 -15 18 -23 46 -27
48 -8 58 -20 27 -34 -16 -8 -53 -8 -115 -2 -82 8 -190 1 -215 -14 -16 -10 -7
-34 20 -49 26 -15 23 -15 -55 -9 -63 5 -94 2 -135 -11 -88 -28 -118 -44 -118
-65 0 -22 -4 -26 -50 -35 l-35 -6 32 26 c18 15 33 30 33 34 0 4 -18 16 -41 26
-35 16 -48 17 -95 7 -78 -16 -155 -63 -237 -146 -67 -67 -78 -74 -157 -98 -47
-15 -103 -29 -125 -33 -59 -9 -111 -24 -188 -53 -59 -22 -72 -24 -101 -14 -46
17 -88 15 -116 -5 -19 -14 -42 -18 -97 -16 l-73 2 0 -34 0 -34 68 5 c37 2 76
5 87 7 11 1 50 -2 86 -7 68 -8 149 7 209 39 42 23 207 85 290 109 100 29 159
64 206 122 34 41 115 94 145 94 7 0 3 -10 -9 -23 -26 -28 -27 -40 -7 -57 13
-11 10 -15 -22 -30 -21 -9 -66 -38 -99 -64 -45 -33 -71 -46 -95 -46 -37 0
-121 -36 -172 -73 -17 -13 -59 -29 -92 -36 -118 -24 -191 -44 -227 -62 -21
-11 -47 -19 -58 -19 -12 0 -30 -5 -40 -10 -13 -7 -36 -6 -75 5 -53 13 -61 13
-126 -7 l-69 -22 0 -82 0 -81 2500 -1 2500 -1 0 24 c0 25 0 25 -102 25 -222 1
-425 12 -483 27 -33 8 -76 19 -95 24 -19 4 -55 17 -80 28 -25 10 -81 25 -125
31 -44 7 -88 16 -97 21 -10 5 -83 9 -163 9 -103 0 -173 6 -247 20 -57 11 -112
20 -124 20 -11 0 -29 6 -39 14 -18 13 -10 14 70 15 49 0 93 -3 97 -5 5 -3 63
-8 129 -10 98 -4 131 -1 182 14 96 29 255 13 382 -38 18 -8 62 -18 148 -35 15
-3 27 -11 26 -18 -4 -29 4 -35 62 -41 42 -4 66 -12 74 -23 13 -17 14 -17 33 0
17 15 27 16 88 7 38 -5 113 -10 167 -10 88 0 97 2 97 19 0 17 -12 19 -165 23
-189 5 -202 10 -185 68 6 19 11 57 11 84 l2 48 61 -6 c57 -5 202 -9 254 -7 20
1 22 6 22 62 0 52 -2 60 -14 50 -11 -9 -15 -9 -19 1 -4 10 -7 11 -18 1 -19
-19 -28 -16 -22 7 5 18 0 20 -38 21 -77 1 -224 10 -228 15 -2 2 -2 6 0 8 5 5
153 16 257 18 77 1 82 3 82 23 0 21 -2 21 -71 13 -66 -8 -90 -6 -77 7 3 3 37
13 77 23 54 13 71 21 71 35 0 22 -11 21 -84 -3 -58 -20 -186 -28 -186 -12 0 4
19 6 43 4 53 -5 93 22 83 55 -8 26 -75 43 -164 43 -67 0 -102 -19 -102 -56 0
-24 0 -24 -87 -20 -66 2 -98 9 -128 25 -50 27 -58 26 -149 -4 -89 -30 -127
-31 -232 -6 -190 45 -263 60 -326 66 -61 6 -69 9 -81 35 -14 28 -14 28 22 34
20 3 69 6 109 6 64 0 72 -2 72 -19 0 -17 10 -19 128 -20 70 -1 141 -4 158 -7
16 -3 66 -1 110 5 102 14 190 23 234 25 19 1 45 8 58 14 47 26 419 -6 495 -43
24 -12 27 -12 27 5 0 21 -47 42 -130 59 -85 17 -370 32 -391 20 -69 -37 -499
-70 -499 -39 0 4 30 6 66 4 43 -3 72 0 81 8 8 6 22 13 31 14 65 9 106 22 172
56 41 21 81 38 88 38 37 0 158 46 228 86 98 57 132 64 172 35 51 -36 78 -42
132 -29 43 10 50 15 50 35 0 19 -3 22 -17 14 -38 -19 -81 -16 -141 13 -68 33
-100 31 -173 -8 l-44 -23 -53 40 c-62 47 -91 46 -152 -5 -22 -18 -73 -51 -114
-72 -71 -37 -77 -38 -94 -23 -15 14 -34 15 -122 10 -95 -5 -112 -3 -182 21
-91 31 -131 33 -166 7 -68 -48 -276 -87 -409 -77 -43 4 -107 7 -143 9 -63 2
-64 2 -74 35 -8 27 -16 34 -59 47 -28 8 -64 15 -80 15 -17 0 -57 18 -100 46
-40 26 -93 60 -119 77 -41 26 -46 32 -37 49 8 15 18 19 40 16 38 -6 43 4 29
47 -25 74 29 141 110 136 19 -1 42 -9 52 -18 22 -19 51 -10 44 14 -24 79 -26
117 -10 165 21 65 55 123 101 176 64 72 228 116 299 79 35 -18 73 -53 95 -87
14 -21 18 -23 33 -11 9 7 16 19 16 26 0 20 27 37 50 30 11 -3 27 -20 35 -36
17 -32 45 -38 66 -13 11 14 14 13 29 -6 12 -16 22 -20 43 -15 34 9 35 37 5 85
-45 71 -21 187 61 298 38 52 107 87 151 77 21 -5 37 -1 59 16 38 28 110 23
146 -11 22 -20 25 -21 66 -7 43 14 44 16 47 61 4 61 26 77 96 69 33 -4 60 -13
76 -29 24 -21 27 -22 65 -8 51 18 153 2 193 -30 15 -12 53 -35 84 -50 64 -30
89 -63 108 -142 10 -39 11 -65 2 -105 -8 -45 -8 -57 5 -71 24 -27 8 -131 -28
-182 -35 -47 -29 -57 35 -61 26 -1 53 -9 62 -16 14 -11 15 -9 12 17 -2 19 -11
32 -26 39 -18 8 -21 15 -15 30 4 11 8 85 8 165 1 161 -15 261 -48 298 -25 27
-100 72 -120 72 -8 0 -23 12 -32 27 -17 25 -17 27 6 44 37 28 82 34 113 14 26
-17 28 -17 71 5 42 21 45 26 45 62 0 29 -3 37 -12 31 -7 -4 -45 -9 -85 -11
-81 -4 -153 20 -172 57 -10 18 -18 20 -56 16 -96 -12 -174 36 -145 89 15 30 9
42 -29 49 -75 15 -119 106 -83 176 25 49 72 71 149 71 52 0 66 -4 93 -27 l32
-27 19 25 c12 15 16 33 12 49 -3 14 -6 27 -5 30 1 50 6 66 31 91 24 23 38 29
73 29 52 0 88 -22 88 -54 0 -37 23 -51 60 -35 l30 14 0 158 0 157 -25 -6 c-55
-14 -69 32 -35 110 24 52 21 137 -6 213 -17 47 -84 113 -114 113 -29 0 -24
-17 9 -35 54 -28 85 -80 89 -152 3 -39 -1 -82 -9 -107 -13 -41 -70 -126 -106
-158 -52 -47 -211 -65 -276 -32 -57 30 -113 74 -131 104 -20 35 -36 38 -60 11
-44 -48 -158 -27 -230 42 -35 34 -46 51 -51 88 -9 62 5 86 58 99 63 16 127 48
127 64 0 8 6 16 13 19 6 2 8 8 4 13 -4 5 -11 4 -15 -1 -16 -23 -93 -55 -144
-61 -53 -6 -55 -6 -54 17 1 17 -4 23 -14 20 -50 -12 -109 -12 -143 2 -51 22
-114 74 -149 125 -39 56 -48 156 -23 251 22 86 37 106 117 157 37 24 68 48 68
52 0 5 47 12 104 15 114 7 156 18 156 42 0 19 -8 19 -53 0 -36 -15 -151 -21
-181 -9 -9 3 -16 15 -16 25 0 20 -5 23 -51 33 -36 8 -116 80 -142 130 -19 36
-22 56 -22 171 0 75 5 148 13 172 22 74 169 213 225 213 16 0 39 13 58 31 30
29 36 31 80 25 53 -7 63 3 27 28 -36 25 -81 20 -124 -15 l-39 -31 -21 27 c-18
23 -25 25 -42 16 -29 -15 -40 -14 -51 7 -11 21 16 111 42 140 10 10 17 28 17
39 0 11 9 28 21 39 18 16 20 26 15 67 -8 55 4 77 38 77 12 0 31 -7 42 -15 27
-20 34 -19 34 9 0 33 -35 56 -83 56 -44 0 -43 -7 -8 90 28 76 28 134 -1 154
-19 13 -20 16 -5 16 23 0 40 46 32 88 l-6 34 53 -7 c29 -4 63 -11 75 -16 41
-15 113 29 113 70 0 13 5 40 12 58 9 24 9 36 1 44 -11 11 -69 28 -182 53 -44
10 -55 17 -66 42 -10 23 -10 34 1 54 16 32 33 126 27 149 -2 9 5 50 16 91 11
41 29 127 40 190 11 63 25 138 31 165 19 81 38 188 84 465 16 94 56 315 81
440 7 36 18 99 25 140 6 41 20 121 31 177 10 57 19 107 19 113 0 6 -44 10
-114 10 l-114 0 -7 -37z m115 9 c0 -4 -15 -68 -34 -143 -19 -74 -42 -175 -51
-225 -17 -92 -49 -230 -115 -509 -21 -88 -48 -212 -60 -275 -42 -226 -50 -266
-69 -355 -39 -183 -42 -190 -78 -193 -44 -4 -44 -11 -8 150 14 62 39 183 55
268 16 85 36 178 43 205 8 28 20 84 27 125 7 41 28 145 47 230 18 85 45 205
58 265 13 61 28 121 33 135 5 14 26 88 46 165 21 77 39 146 41 153 5 13 65 17
65 4z m70 -11 c0 -5 -5 -22 -12 -38 -6 -15 -10 -34 -9 -41 1 -8 -3 -37 -9 -65
-6 -29 -14 -72 -16 -97 -3 -25 -10 -63 -16 -85 -6 -22 -19 -89 -29 -150 -10
-60 -28 -162 -40 -225 -12 -63 -24 -132 -26 -152 -3 -21 -9 -35 -14 -32 -5 3
-7 -1 -4 -8 9 -22 -12 -166 -45 -318 -18 -80 -36 -175 -40 -212 -5 -37 -15
-93 -24 -125 -8 -32 -20 -82 -26 -110 -7 -29 -14 -53 -16 -53 -3 0 -19 7 -36
16 -28 15 -30 18 -23 52 4 21 8 46 10 57 8 54 19 87 31 92 8 3 14 15 14 27 0
17 -2 18 -10 6 -5 -8 -10 -10 -10 -4 0 6 3 14 8 18 8 9 9 13 11 66 1 38 2 40
22 29 17 -8 23 -8 30 2 11 19 0 32 -22 26 -14 -4 -19 0 -19 16 0 18 2 19 11 7
7 -11 8 -5 4 21 -5 27 -2 40 11 53 13 14 14 20 4 26 -9 6 -10 16 -2 41 6 19
10 48 10 66 1 17 8 52 16 77 9 26 16 54 16 64 0 15 2 15 10 2 6 -9 10 -10 10
-3 0 6 -5 15 -10 18 -7 4 -7 12 0 25 10 18 58 209 66 260 10 61 29 140 34 140
3 0 6 8 7 18 3 58 16 129 58 297 26 104 49 193 51 197 7 11 24 10 24 -1z
m-1029 -976 c-42 -19 -52 -19 -27 0 11 8 29 15 40 15 16 -1 12 -5 -13 -15z
m69 -115 c0 -5 -4 -10 -10 -10 -5 0 -10 5 -10 10 0 6 5 10 10 10 6 0 10 -4 10
-10z m-330 -59 c0 -6 -4 -13 -10 -16 -5 -3 -10 1 -10 9 0 9 5 16 10 16 6 0 10
-4 10 -9z m-70 -391 c-8 -5 -19 -10 -25 -10 -5 0 -3 5 5 10 8 5 20 10 25 10 6
0 3 -5 -5 -10z m-211 -93 c11 -14 5 -27 -12 -27 -5 0 -7 6 -4 14 3 8 1 17 -6
20 -8 3 -8 5 -1 5 6 1 17 -5 23 -12z m27 -62 c1 -8 -1 -17 -5 -19 -4 -3 -8 7
-9 21 -2 27 10 25 14 -2z m-99 -11 c-7 -7 -37 7 -37 17 0 6 9 5 21 -1 11 -7
19 -14 16 -16z m1213 -29 l35 -13 -35 -1 c-43 -1 -80 8 -80 20 0 13 39 10 80
-6z m-1490 -9 c0 -3 -4 -8 -10 -11 -5 -3 -10 -1 -10 4 0 6 5 11 10 11 6 0 10
-2 10 -4z m48 -18 c-6 -30 -57 -38 -78 -13 -11 13 -8 15 24 11 20 -3 36 -1 36
4 0 6 5 10 10 10 6 0 9 -6 8 -12z m287 3 c3 -5 1 -12 -5 -16 -5 -3 -10 1 -10
9 0 18 6 21 15 7z m-31 -16 c-4 -8 -8 -15 -10 -15 -2 0 -4 7 -4 15 0 8 4 15
10 15 5 0 7 -7 4 -15z m1165 -11 c39 -15 59 -43 46 -64 -4 -6 -1 -18 6 -26 18
-21 -6 -35 -39 -23 -13 5 -27 7 -32 4 -4 -3 -22 0 -40 7 -26 9 -29 13 -17 20
9 4 19 29 23 53 3 25 8 45 10 45 2 0 22 -7 43 -16z m-1249 -14 c0 -5 -2 -10
-4 -10 -3 0 -8 5 -11 10 -3 6 -1 10 4 10 6 0 11 -4 11 -10z m60 -14 c9 -26 3
-66 -11 -66 -5 0 -8 -3 -8 -7 3 -20 -3 -22 -19 -5 -11 9 -17 21 -14 26 3 5 -3
6 -13 2 -15 -5 -16 -4 -5 9 7 8 16 12 21 9 5 -3 9 0 9 6 0 7 -8 9 -19 5 -11
-3 -22 -1 -26 5 -6 9 9 14 42 13 6 0 9 6 6 13 -3 8 1 14 11 14 9 0 21 -11 26
-24z m-121 -37 c-9 -5 -15 -4 -18 2 -2 6 3 15 10 20 9 5 15 4 18 -2 2 -6 -3
-15 -10 -20z m283 -26 c7 -9 7 -13 0 -13 -12 0 -22 25 -21 48 1 13 3 12 6 -3
3 -11 10 -26 15 -32z m-79 7 c21 -25 22 -37 1 -19 -14 11 -19 9 -36 -11 l-20
-25 6 25 c3 14 6 31 6 38 0 19 23 14 43 -8z m-203 -20 c0 -5 -5 -10 -11 -10
-5 0 -7 5 -4 10 3 6 8 10 11 10 2 0 4 -4 4 -10z m140 -12 c0 -16 -3 -19 -11
-11 -6 6 -8 16 -5 22 11 17 16 13 16 -11z m196 -4 c-3 -8 6 -21 21 -31 24 -16
26 -16 40 3 14 19 14 19 29 -1 14 -18 13 -22 -8 -38 -18 -15 -19 -20 -7 -28
12 -7 8 -11 -11 -11 -11 0 -50 -57 -42 -62 4 -2 31 9 60 26 59 34 85 73 84
130 -1 36 1 38 26 32 47 -10 52 -13 52 -33 0 -42 -40 -143 -70 -177 -35 -41
-36 -51 -6 -163 16 -58 16 -117 -1 -145 -3 -5 -15 29 -27 75 -11 47 -32 98
-44 114 l-24 30 -153 -4 c-106 -2 -159 1 -175 9 -30 16 -107 74 -151 115 -19
18 -45 38 -57 44 -24 13 -29 36 -10 48 7 4 34 10 60 13 37 5 45 4 37 -6 -7 -9
-1 -23 25 -51 51 -57 150 -88 253 -80 83 6 112 20 72 36 -23 9 -22 9 8 9 17
-1 39 7 48 16 16 16 15 16 -11 10 -16 -3 -39 -7 -51 -8 -13 0 -23 -8 -23 -16
0 -12 -2 -12 -9 -1 -7 10 -13 11 -30 2 -20 -11 -21 -10 -15 16 10 41 13 44 35
32 11 -6 27 -8 34 -5 9 3 12 0 8 -10 -3 -7 -1 -14 5 -14 10 0 26 49 18 57 -2
2 -13 -1 -24 -8 -16 -10 -23 -10 -36 4 -16 15 -22 37 -10 37 3 0 15 -10 26
-22 l20 -23 -5 22 c-4 16 -1 20 10 16 12 -5 14 -1 8 15 -4 14 -2 22 6 22 8 0
8 4 -1 15 -11 13 -10 14 4 9 10 -4 15 -13 12 -20z m-271 6 c-3 -5 -12 -10 -18
-10 -7 0 -6 4 3 10 19 12 23 12 15 0z m198 -23 c-2 -4 -11 -3 -19 4 -12 10
-12 14 -2 20 13 9 30 -10 21 -24z m1055 -4 c76 -17 88 -24 78 -49 -5 -13 -11
-12 -37 7 -21 14 -49 23 -82 25 -50 2 -97 20 -97 35 0 9 31 5 138 -18z m-1282
-8 c2 -10 -2 -25 -7 -31 -7 -8 -6 -14 1 -17 6 -3 5 -4 -2 -3 -7 2 -13 10 -13
19 0 8 -4 19 -8 23 -4 4 -7 14 -7 21 0 22 33 11 36 -12z m635 14 c19 -10 19
-10 -1 -39 -11 -15 -20 -33 -20 -38 0 -5 -7 -12 -15 -16 -8 -3 -20 -17 -25
-31 -5 -14 -14 -25 -20 -25 -7 0 -5 10 3 28 8 15 20 51 27 80 13 54 18 59 51
41z m284 -5 c39 -8 101 -22 139 -29 78 -16 94 -25 47 -25 -26 0 -36 -7 -53
-36 -20 -34 -24 -36 -61 -31 -21 3 -70 16 -109 28 l-69 23 6 35 c11 59 4 57
100 35z m-883 -21 c-5 -25 -6 -25 -19 -7 -12 16 -11 19 4 26 10 3 19 7 19 7 1
1 -1 -11 -4 -26z m143 17 c3 -5 1 -10 -4 -10 -6 0 -11 5 -11 10 0 6 2 10 4 10
3 0 8 -4 11 -10z m242 -32 c-3 -7 -5 -2 -5 12 0 14 2 19 5 13 2 -7 2 -19 0
-25z m-253 -4 c5 -12 -1 -15 -27 -12 -17 2 -30 8 -27 13 3 6 8 9 13 8 4 -2 7
1 7 7 0 14 27 1 34 -16z m-104 0 c0 -8 -4 -12 -10 -9 -5 3 -10 10 -10 16 0 5
5 9 10 9 6 0 10 -7 10 -16z m50 -18 c0 -3 -4 -8 -10 -11 -5 -3 -10 -1 -10 4 0
6 5 11 10 11 6 0 10 -2 10 -4z m22 -18 c-7 -7 -12 -19 -11 -27 0 -10 2 -11 5
-4 3 7 12 9 21 6 8 -3 19 0 25 8 6 10 7 6 2 -11 -9 -33 -5 -32 -63 -24 -57 7
-61 19 -15 45 34 21 53 24 36 7z m537 5 c-1 -5 -1 -10 1 -13 1 -3 3 -21 6 -41
3 -27 0 -38 -11 -43 -10 -4 -15 1 -15 15 0 11 -5 29 -10 40 -8 14 -7 19 1 19
6 0 9 7 5 15 -3 9 0 15 9 15 8 0 14 -3 14 -7z m-629 -23 c0 -5 -2 -10 -4 -10
-3 0 -8 5 -11 10 -3 6 -1 10 4 10 6 0 11 -4 11 -10z m1270 -11 c0 -5 -2 -9 -4
-9 -2 0 -13 -3 -23 -7 -15 -6 -16 -4 -6 9 7 8 10 18 6 22 -4 4 0 4 10 0 9 -3
17 -10 17 -15z m285 -50 c5 -6 5 -13 -3 -21 -7 -7 -12 -24 -12 -39 0 -15 -3
-30 -8 -33 -8 -5 -99 15 -148 34 -25 9 -33 19 -37 43 -3 18 -8 42 -12 53 l-7
21 109 -25 c59 -13 112 -28 118 -33z m-1784 33 c58 -38 148 -102 160 -114 53
-52 79 -61 175 -60 91 0 104 -4 85 -23 -6 -6 -1 -10 15 -10 18 0 24 4 21 17
-4 13 3 16 40 15 43 0 44 -1 71 -56 31 -65 34 -87 16 -102 -18 -15 -18 -43 0
-36 16 6 50 -30 36 -38 -6 -4 -10 -1 -10 4 0 6 -5 11 -10 11 -6 0 -9 -3 -9 -7
3 -20 -3 -23 -21 -13 -17 9 -20 8 -20 -7 0 -16 7 -18 40 -15 22 2 40 9 40 14
0 6 10 8 22 5 12 -4 27 -2 34 4 8 7 14 7 19 -1 3 -5 -1 -10 -9 -10 -8 0 -18
-5 -22 -12 -4 -7 -3 -8 4 -4 9 5 12 -8 12 -43 0 -34 -4 -51 -12 -52 -10 0 -10
-2 0 -6 10 -4 10 -8 0 -21 -7 -9 -8 -13 -2 -9 7 4 14 -2 17 -15 7 -27 -1 -38
-13 -18 -7 11 -11 11 -24 1 -13 -11 -16 -11 -16 3 0 9 6 16 13 16 7 1 5 6 -6
14 -16 12 -16 15 -2 29 20 20 19 43 -1 51 -21 8 -33 -2 -15 -13 10 -7 10 -12
0 -29 -7 -11 -18 -18 -24 -15 -15 5 -12 -42 4 -61 6 -7 8 -16 4 -19 -3 -4 6
-7 21 -7 46 0 66 -17 66 -55 0 -19 -4 -35 -10 -35 -5 0 -9 3 -9 8 4 24 -3 34
-21 29 -11 -3 -20 -1 -20 4 0 5 -9 4 -19 -3 -24 -15 -10 -37 23 -38 74 -2 95
-5 88 -12 -17 -17 -89 -18 -102 -3 -7 8 -21 15 -32 15 -12 0 -17 4 -12 13 6
10 4 10 -7 0 -7 -7 -28 -13 -46 -13 -25 0 -38 8 -60 35 -15 19 -34 35 -40 35
-7 0 -13 4 -13 9 0 5 -13 11 -30 14 -19 4 -35 17 -45 37 -8 16 -20 30 -25 30
-5 0 -22 19 -36 43 -59 93 -148 180 -181 177 -5 -1 -11 9 -15 22 -4 16 -6 18
-7 6 -1 -10 -4 -18 -7 -18 -9 0 -50 34 -52 43 -1 4 -2 14 -2 24 0 14 -2 14
-21 -2 -20 -19 -20 -19 -12 5 10 31 11 66 0 63 -4 -2 -14 -3 -23 -3 -8 0 -13
-4 -9 -9 7 -12 -22 -41 -41 -41 -8 0 -14 -5 -14 -11 0 -8 -5 -7 -15 1 -13 11
-14 10 -10 -2 4 -11 -3 -19 -26 -27 -18 -6 -29 -14 -26 -17 3 -4 0 -19 -8 -35
-17 -32 -19 -77 -5 -99 6 -10 0 -31 -20 -70 -15 -30 -30 -63 -34 -72 -8 -27
-52 -23 -72 7 -18 28 -14 103 12 212 9 34 15 70 14 80 -5 41 1 63 15 63 8 0
12 6 9 13 -5 15 40 124 63 149 9 10 20 15 26 11 5 -3 7 -1 4 4 -8 12 19 38 53
52 39 15 93 13 121 -7z m778 -50 c5 -10 9 -32 9 -49 -1 -16 2 -35 6 -42 11
-17 -3 -13 -31 9 -27 21 -43 19 -43 -6 0 -20 -26 -18 -35 4 -27 61 63 141 94
84z m129 -7 c16 -35 15 -40 -5 -24 -17 13 -17 13 0 -7 9 -11 14 -24 10 -28 -5
-4 5 -4 21 0 26 6 27 5 17 -15 -7 -11 -21 -21 -31 -21 -11 0 -23 0 -27 -1 -4
0 -9 4 -11 10 -2 6 3 8 12 5 12 -5 15 -2 10 10 -3 9 -10 16 -15 16 -5 0 -9 6
-9 14 0 8 -4 16 -9 18 -11 4 5 48 17 48 5 0 14 -11 20 -25z m110 3 c-9 -7 -17
-18 -19 -24 -3 -7 -12 -3 -24 9 -11 11 -15 17 -8 13 6 -3 14 -2 18 4 3 5 16
10 28 10 18 0 19 -1 5 -12z m161 -9 c38 -11 49 -26 40 -54 -1 -5 -4 -32 -6
-60 -3 -69 -16 -128 -28 -132 -23 -7 -84 200 -76 261 1 4 7 6 15 3 8 -3 32
-11 55 -18z m-234 -29 c3 -5 1 -10 -4 -10 -6 0 -11 5 -11 10 0 6 2 10 4 10 3
0 8 -4 11 -10z m115 -49 c0 -5 -7 -11 -15 -15 -15 -5 -20 5 -8 17 9 10 23 9
23 -2z m-345 -50 c-6 -5 -25 10 -25 20 0 5 6 4 14 -3 8 -7 12 -15 11 -17z
m252 -13 c-3 -8 -6 -5 -6 6 -1 11 2 17 5 13 3 -3 4 -12 1 -19z m110 -54 c-3
-3 -12 -4 -19 -1 -8 3 -5 6 6 6 11 1 17 -2 13 -5z m227 -26 c-9 -14 -54 -9
-54 5 0 8 2 16 5 19 8 8 54 -15 49 -24z m-1354 12 c0 -5 -4 -10 -9 -10 -6 0
-13 5 -16 10 -3 6 1 10 9 10 9 0 16 -4 16 -10z m1476 -32 c-3 -13 -6 -30 -6
-38 -1 -8 -6 -4 -11 9 -11 28 -5 51 12 51 7 0 9 -9 5 -22z m-281 -9 c11 -17
-5 -24 -26 -11 -17 11 -24 11 -37 0 -15 -12 -16 -11 -3 5 15 19 56 23 66 6z
m-1140 -39 c10 -11 43 -29 74 -40 88 -33 165 -121 167 -190 0 -27 11 -52 38
-89 21 -28 43 -51 49 -51 6 0 20 9 32 20 l22 20 26 -20 c26 -20 26 -23 12 -50
-19 -37 -20 -149 -1 -175 16 -22 46 -14 46 14 0 30 11 51 26 51 8 0 20 11 26
25 16 35 0 50 -36 34 -32 -15 -39 -9 -31 23 6 23 10 24 72 22 85 -3 95 -13 55
-58 -34 -39 -34 -58 4 -74 15 -8 24 -20 24 -35 0 -24 32 -62 43 -51 3 3 3 27
0 53 -5 46 -3 50 43 102 33 38 64 61 103 77 30 12 63 30 74 40 20 16 20 16 12
-3 -14 -30 -10 -86 8 -127 12 -28 28 -43 61 -59 28 -13 46 -28 46 -38 -1 -14
-2 -14 -11 2 -13 23 -50 22 -56 -1 -3 -14 -11 -18 -29 -14 -16 3 -26 -1 -30
-12 -3 -9 -17 -16 -30 -16 -12 0 -30 -10 -39 -22 -15 -22 -14 -24 6 -40 16
-14 17 -18 6 -18 -8 0 -22 -3 -30 -6 -11 -4 -16 2 -19 23 -2 23 -7 28 -28 25
-31 -3 -52 -30 -44 -55 4 -12 -1 -24 -13 -32 -27 -21 -46 -19 -38 5 8 25 -20
38 -45 22 -14 -9 -20 -8 -24 5 -4 9 -4 24 -1 34 8 25 -3 24 -32 -3 -30 -28
-29 -59 2 -96 30 -36 31 -42 5 -42 -11 0 -35 -9 -55 -20 -32 -18 -95 -28 -95
-15 0 3 7 17 16 30 20 31 13 50 -25 70 -30 15 -33 14 -72 -12 -35 -23 -44 -25
-61 -14 -23 15 -31 10 -22 -13 11 -27 52 -31 84 -7 29 21 51 26 63 15 3 -3
-12 -25 -34 -47 -21 -23 -39 -45 -39 -49 0 -4 -25 -8 -57 -8 -45 0 -65 6 -103
30 -25 16 -56 41 -69 54 -14 15 -29 22 -39 19 -11 -5 -14 -2 -10 9 4 8 -7 44
-23 79 -57 124 -63 134 -87 132 -24 -3 -27 8 -22 80 3 59 -19 139 -41 144 -23
6 -24 11 -2 35 22 25 3 48 -23 27 -47 -39 -61 -188 -23 -244 11 -16 24 -40 29
-52 5 -13 16 -23 25 -23 8 0 14 -3 13 -7 -1 -5 4 -26 10 -49 14 -47 42 -77 65
-68 12 4 18 -2 23 -21 3 -14 4 -28 1 -31 -3 -3 -27 7 -52 22 -32 19 -52 39
-62 63 -8 20 -23 45 -32 56 -15 18 -58 120 -76 183 -20 68 -9 136 25 167 11
10 20 26 20 35 0 10 9 29 20 43 11 14 20 33 20 43 0 9 8 26 17 36 14 16 15 25
6 61 -13 47 -3 68 21 48 13 -11 21 -9 47 13 37 31 50 32 74 6z m1525 -2 c0 -4
-7 -8 -15 -8 -8 0 -15 4 -15 8 0 5 7 9 15 9 8 0 15 -4 15 -9z m-790 -64 c0 -8
-5 -12 -10 -9 -6 4 -8 11 -5 16 9 14 15 11 15 -7z m8 -78 c0 -24 -1 -24 -21
-6 -12 12 -17 25 -13 36 9 23 34 1 34 -30z m281 -6 c-6 -16 -12 -30 -14 -30
-2 0 -3 14 -3 30 1 17 6 30 14 30 10 0 11 -7 3 -30z m-25 -65 c-4 -8 -8 -15
-10 -15 -2 0 -4 7 -4 15 0 8 4 15 10 15 5 0 7 -7 4 -15z m456 -16 c0 -11 -4
-18 -10 -14 -5 3 -7 12 -3 20 7 21 13 19 13 -6z m-533 -36 c-3 -10 -5 -4 -5
12 0 17 2 24 5 18 2 -7 2 -21 0 -30z m-614 -13 c4 -17 3 -19 -9 -9 -8 6 -14
18 -14 26 0 20 16 8 23 -17z m1022 13 c-3 -10 -11 -37 -18 -60 -9 -35 -16 -43
-34 -43 -19 0 -23 -5 -23 -30 0 -19 7 -33 19 -40 18 -9 18 -12 5 -40 -20 -38
-29 -43 -53 -28 -28 17 -51 -3 -31 -27 7 -8 8 -15 4 -15 -21 0 -34 40 -27 85
4 33 14 52 34 70 16 13 29 28 29 33 0 15 79 112 91 112 7 0 8 -7 4 -17z m-142
-86 c-30 -44 -113 -107 -142 -107 -9 0 -2 7 15 16 17 8 35 25 40 39 5 13 29
46 54 73 34 37 47 46 53 35 5 -8 -2 -29 -20 -56z m313 17 c-3 -8 -10 -12 -16
-9 -7 4 -6 14 2 28 12 24 24 8 14 -19z m-716 6 c0 -5 -8 -10 -17 -10 -15 0
-16 2 -3 10 19 12 20 12 20 0z m645 -26 c44 -33 50 -52 22 -65 -25 -11 -47
-52 -47 -85 0 -13 -13 -43 -30 -67 -18 -27 -30 -58 -30 -77 0 -34 -73 -197
-109 -241 -12 -16 -35 -29 -56 -33 -26 -5 -35 -12 -35 -26 0 -26 -9 -25 -45 6
-16 14 -22 23 -13 20 34 -10 29 16 -8 51 -26 23 -34 38 -26 40 7 3 22 -3 32
-12 19 -17 40 -13 40 8 0 7 -14 25 -30 41 -35 34 -41 60 -7 28 26 -25 92 -54
101 -45 15 15 4 32 -28 43 -19 6 -46 26 -60 45 -34 44 -33 55 2 23 36 -34 60
-45 102 -49 44 -5 49 21 6 32 -36 10 -86 44 -109 76 -28 37 -11 41 26 6 39
-39 78 -50 96 -29 11 13 8 16 -16 22 -15 4 -36 14 -46 23 -30 26 -78 102 -75
119 5 28 26 24 33 -7 9 -41 66 -97 106 -103 40 -6 86 12 116 44 28 30 45 93
33 124 -11 29 0 114 15 114 4 0 21 -11 40 -26z m-1586 -104 c0 -26 -2 -31 -9
-20 -5 8 -9 35 -9 60 1 37 2 41 9 20 4 -14 8 -41 9 -60z m1605 -184 l34 -23
-64 -64 c-66 -65 -78 -66 -45 -1 11 21 22 55 26 75 4 20 9 37 11 37 2 0 19
-11 38 -24z m-544 -15 c0 -5 -15 -14 -32 -20 l-33 -11 25 20 c27 21 40 25 40
11z m10 -84 c0 -5 -9 -7 -19 -4 -26 6 -45 -8 -37 -28 4 -12 14 -16 35 -13 23
3 27 1 23 -14 -5 -19 -22 -25 -22 -8 0 6 -10 2 -22 -10 -27 -25 -38 -25 -45 0
-3 11 -20 25 -37 31 -18 7 -33 18 -33 25 0 17 9 18 24 3 14 -14 53 -2 53 16 0
22 31 34 57 22 13 -5 23 -15 23 -20z m-197 -29 c-25 -12 -33 -35 -33 -105 0
-28 -4 -54 -9 -57 -5 -4 -7 3 -4 14 3 11 0 27 -7 35 -10 12 -10 15 0 15 9 0
10 3 1 13 -6 8 -8 17 -4 20 3 4 0 7 -8 7 -10 1 -8 5 5 15 11 8 16 15 10 15 -5
0 2 9 16 20 14 11 32 19 40 19 9 0 7 -4 -7 -11z m-695 -93 c1 -14 -3 -25 -8
-25 -6 0 -10 11 -10 25 0 14 4 25 8 25 4 0 9 -11 10 -25z m724 3 c-7 -7 -12
-8 -12 -2 0 14 12 26 19 19 2 -3 -1 -11 -7 -17z m51 15 c-7 -2 -19 -2 -25 0
-7 3 -2 5 12 5 14 0 19 -2 13 -5z m-191 -15 c-20 -20 -13 -32 8 -13 11 10 23
15 27 12 3 -4 1 -7 -5 -7 -7 0 -11 -3 -10 -7 0 -5 -1 -15 -5 -23 -21 -56 -28
-101 -28 -187 0 -116 -7 -175 -20 -167 -12 7 -11 61 1 69 16 10 0 27 -20 22
-13 -3 -17 0 -13 9 3 9 0 12 -9 9 -7 -3 -15 -15 -15 -28 -1 -12 -8 -26 -16
-32 -8 -5 -13 -19 -11 -30 2 -11 -2 -23 -9 -27 -9 -6 -8 -8 3 -8 15 0 9 -5
-58 -41 -27 -15 -30 -15 -25 -1 5 12 0 14 -28 8 -30 -5 -43 -1 -90 33 -30 22
-65 48 -78 57 -15 11 -19 19 -12 23 19 12 -24 44 -48 36 -17 -5 -23 -1 -31 21
-6 15 -7 30 -2 33 12 9 24 43 12 36 -14 -9 -12 9 2 23 9 9 9 15 0 24 -16 16
-15 28 3 28 16 0 36 39 28 53 -3 5 3 7 13 5 11 -2 18 -8 17 -14 -1 -9 14 -11
111 -14 62 -1 80 10 70 43 -7 21 2 21 55 2 22 -8 41 -10 41 -5 0 6 8 10 18 10
10 0 28 7 40 16 51 36 110 58 84 32z m288 -23 c0 -8 -4 -15 -9 -15 -5 0 -16
-2 -23 -5 -9 -4 -14 2 -15 15 -1 15 4 20 23 20 15 0 24 -6 24 -15z m-100 -26
c0 -5 -13 -9 -30 -9 -28 0 -38 9 -25 22 8 8 55 -3 55 -13z m488 -66 c-14 -83
-3 -189 26 -254 25 -56 132 -187 167 -203 29 -14 24 -22 -34 -59 -106 -68
-147 -149 -147 -294 0 -101 24 -157 97 -228 60 -57 122 -87 190 -93 29 -3 56
-9 60 -15 3 -6 5 -34 4 -62 -2 -62 10 -97 53 -150 64 -77 208 -120 270 -80 26
17 26 17 72 -25 67 -62 138 -90 228 -90 97 0 160 20 208 67 l39 38 25 -28 c13
-15 24 -34 24 -42 0 -7 10 -15 23 -17 20 -3 22 -9 25 -79 2 -58 -1 -79 -12
-88 -13 -11 -19 -8 -39 13 -45 48 -104 58 -165 27 -56 -29 -84 -64 -89 -114
l-5 -44 -82 1 c-68 1 -89 -3 -131 -25 -59 -30 -82 -65 -91 -141 l-7 -57 55
-55 c31 -30 58 -66 62 -80 18 -71 117 -131 178 -108 22 8 30 6 45 -10 10 -11
33 -28 52 -38 l35 -17 -37 -18 c-20 -9 -41 -22 -46 -29 -8 -9 -25 -11 -58 -5
-27 4 -68 3 -92 -2 -38 -9 -47 -7 -66 11 -12 11 -35 20 -53 20 -21 0 -32 5
-32 14 0 8 -14 29 -32 46 -28 29 -37 32 -78 28 l-46 -5 23 45 c29 58 30 123 1
199 -44 119 -115 187 -228 218 -125 34 -293 0 -368 -75 -27 -27 -48 -38 -79
-43 -36 -4 -43 -2 -43 12 0 10 -9 26 -21 37 -45 41 -202 5 -247 -56 -18 -24
-31 -30 -79 -35 -113 -14 -171 -56 -219 -160 -30 -64 -32 -137 -4 -183 22 -36
19 -52 -9 -52 -33 0 -135 -51 -159 -78 -40 -48 -64 -101 -57 -132 4 -19 0 -38
-13 -60 -18 -29 -21 -30 -26 -12 -4 11 -6 24 -5 28 1 5 -1 26 -6 48 -5 25 -2
75 10 145 13 83 24 118 50 163 19 32 37 74 41 93 3 20 20 71 36 113 16 42 40
113 52 157 21 72 49 163 133 432 l25 82 54 0 c94 0 114 12 114 73 0 45 25 57
72 34 60 -30 149 -13 173 34 8 16 15 35 15 41 0 7 12 25 26 40 l26 27 -17 58
c-9 32 -29 83 -44 113 -16 31 -33 88 -39 127 -16 99 -48 198 -75 231 -23 28
-49 78 -62 121 -4 13 0 35 9 54 9 17 16 37 16 45 0 8 8 28 17 46 10 18 20 61
24 97 6 61 37 231 44 238 1 2 18 -7 38 -18 33 -20 38 -20 71 -6 24 10 36 22
36 34 0 12 11 24 29 32 16 6 37 20 47 31 26 29 32 15 22 -48z m-341 15 c-3 -8
-6 -5 -6 6 -1 11 2 17 5 13 3 -3 4 -12 1 -19z m-259 -6 c-5 -23 -28 -27 -28
-4 0 10 7 19 15 19 9 0 15 -7 13 -15z m102 -11 c0 -5 -11 -8 -25 -7 -33 1 -33
16 0 16 14 0 25 -4 25 -9z m197 -93 c-3 -8 -6 -5 -6 6 -1 11 2 17 5 13 3 -3 4
-12 1 -19z m-207 -38 c0 -5 -5 -10 -11 -10 -5 0 -7 5 -4 10 3 6 8 10 11 10 2
0 4 -4 4 -10z m184 -94 c-3 -21 -8 -35 -11 -32 -2 2 -1 20 3 40 3 21 8 35 11
32 2 -2 1 -20 -3 -40z m-954 -45 c0 -5 8 -7 19 -4 12 3 28 -7 48 -31 16 -19
54 -55 85 -79 32 -25 55 -46 53 -49 -2 -2 5 -4 16 -5 30 -3 87 -41 94 -64 4
-11 1 -26 -5 -34 -9 -11 -8 -20 7 -39 10 -14 21 -26 26 -26 4 0 7 -16 7 -35 0
-24 5 -35 15 -35 19 0 19 -16 0 -24 -9 -3 -20 5 -29 22 -9 15 -15 21 -16 14 0
-7 -11 -23 -25 -36 -28 -26 -32 -38 -10 -30 8 4 15 2 15 -4 0 -14 30 -9 40 7
6 10 9 10 15 1 4 -6 3 -16 -3 -22 -6 -6 -8 -17 -5 -24 6 -17 26 -19 21 -2 -4
10 25 48 36 48 14 0 36 -35 36 -58 0 -21 -2 -24 -10 -12 -8 12 -10 12 -10 1 0
-10 -9 -12 -32 -8 -18 3 -27 3 -21 1 10 -4 10 -9 -1 -20 -11 -11 -12 -22 -5
-47 5 -17 14 -33 19 -35 6 -2 10 -8 10 -14 0 -6 -6 -8 -14 -5 -19 7 -30 -22
-15 -39 6 -8 22 -14 35 -14 25 0 39 -14 29 -29 -3 -6 -17 -6 -35 1 -22 7 -34
7 -45 -2 -8 -6 -19 -9 -25 -5 -13 8 -13 9 4 -47 8 -25 11 -49 8 -53 -4 -4 3
-3 15 4 33 17 65 14 61 -6 -2 -12 -14 -17 -42 -17 -22 -1 -41 -6 -43 -12 -4
-13 55 -40 77 -35 8 1 11 -1 7 -6 -5 -4 -30 -8 -55 -8 -40 0 -47 -3 -47 -20 0
-14 8 -21 30 -25 16 -3 31 -12 33 -21 2 -13 -6 -16 -40 -15 -37 1 -43 -2 -43
-19 0 -27 -20 -38 -55 -30 -21 5 -30 13 -30 27 0 16 -5 19 -20 15 -19 -5 -20
-2 -14 31 8 42 14 54 14 26 0 -10 13 -26 28 -35 l29 -16 -13 71 c-7 40 -20 98
-29 130 -16 55 -16 60 0 97 14 31 15 42 6 53 -7 9 -10 24 -6 37 5 15 9 18 15
9 5 -7 10 -8 14 -2 3 5 -1 15 -9 22 -7 6 -11 18 -8 26 6 17 -24 31 -38 17 -5
-5 -12 -23 -15 -39 -10 -54 -17 -39 -11 26 3 36 12 87 21 113 10 26 14 57 10
69 -6 20 -6 20 -25 1 -20 -20 -49 -133 -49 -196 0 -21 -6 -53 -14 -71 -10 -25
-11 -37 -3 -45 8 -8 5 -11 -10 -11 -14 0 -24 -8 -29 -22 -4 -13 -14 -28 -22
-34 -14 -10 -10 -34 7 -34 4 0 16 16 27 35 10 19 21 35 24 35 3 0 5 -21 4 -47
-1 -27 4 -60 12 -75 16 -31 18 -68 4 -68 -5 0 -10 -7 -10 -16 0 -8 4 -13 9
-10 5 3 9 -10 9 -29 l0 -35 -41 6 c-23 4 -52 11 -64 15 -13 5 -30 6 -39 2 -10
-4 -25 4 -40 21 -14 14 -33 26 -43 26 -27 0 -48 27 -33 42 7 7 12 20 12 30 0
20 15 24 26 6 4 -7 3 -8 -4 -4 -16 10 -16 -32 1 -47 16 -15 53 -15 69 1 9 9 8
16 -5 30 -12 13 -14 21 -6 29 16 16 -17 43 -52 43 -33 0 -33 0 -17 86 11 62
11 63 41 57 25 -5 28 -3 25 13 -2 11 -13 20 -26 22 -26 4 -28 15 -6 37 9 9 24
13 35 10 10 -4 20 -2 21 4 4 31 1 36 -23 41 -23 4 -25 8 -18 28 6 14 17 22 33
22 34 0 41 16 20 48 -14 21 -14 24 -2 14 13 -10 16 -9 21 9 5 18 9 20 21 10
12 -10 14 -9 10 7 -3 10 1 24 10 31 8 7 12 20 9 28 -5 14 -7 14 -12 2 -5 -11
-11 -10 -29 8 l-23 21 38 -3 c21 -2 45 0 53 6 12 8 10 9 -6 4 -17 -4 -23 0
-28 19 -3 14 -15 30 -26 36 -11 6 -20 17 -20 25 0 17 -2 17 -24 9 -9 -3 -16
-13 -16 -22 0 -8 -3 -12 -7 -9 -11 12 29 88 44 83 7 -3 13 -1 13 4 0 6 -6 10
-12 10 -8 0 -5 7 6 15 21 16 24 61 6 94 -13 26 -38 27 -47 4 -4 -10 -13 -23
-21 -29 -18 -13 -7 -58 11 -48 7 4 8 3 4 -1 -4 -5 -20 -9 -34 -10 -32 0 -43
-24 -14 -32 12 -3 21 -10 21 -15 0 -14 -49 -110 -66 -129 -8 -9 -11 -18 -8
-21 11 -12 -27 -70 -42 -64 -11 4 -13 2 -5 -11 11 -20 -21 -110 -46 -128 -10
-7 -14 -19 -10 -29 5 -11 3 -15 -5 -10 -8 5 -9 0 -5 -16 4 -14 -2 -39 -15 -64
-12 -23 -20 -42 -19 -43 6 -11 -1 -33 -10 -33 -7 0 -9 10 -4 28 4 15 8 34 9
42 0 8 7 17 13 20 10 4 9 12 -2 34 -14 27 -14 30 6 44 13 9 19 21 16 33 -3 11
-1 19 4 19 5 0 9 -5 9 -11 0 -8 5 -8 15 1 17 14 21 35 5 25 -5 -3 -10 -1 -10
4 0 6 4 11 10 11 5 0 7 7 4 15 -4 8 -10 12 -15 9 -5 -3 -9 2 -9 10 0 9 5 16
10 16 6 0 10 13 10 30 0 17 9 38 22 50 18 16 20 22 9 33 -11 9 -14 9 -18 0 -3
-7 -8 -13 -13 -13 -12 0 -5 33 8 38 7 2 12 11 12 19 0 12 3 13 13 4 8 -6 17
-8 20 -4 12 11 8 23 -8 23 -17 0 -20 16 -5 25 6 3 10 1 10 -6 0 -7 3 -9 6 -6
4 4 2 12 -4 20 -9 10 -3 26 23 68 19 29 39 64 44 76 14 30 29 37 48 21 14 -11
16 -11 9 1 -5 8 -3 17 5 22 18 11 59 11 59 0z m944 -65 c-3 -8 -12 -17 -21
-20 -11 -5 -13 -2 -9 10 3 9 9 28 13 42 6 25 6 25 14 4 5 -12 6 -28 3 -36z
m-204 23 c0 -5 -10 -9 -21 -9 -18 0 -19 2 -9 15 12 15 30 12 30 -6z m-165 -9
c-3 -5 -12 -10 -18 -10 -7 0 -6 4 3 10 19 12 23 12 15 0z m65 -44 c0 -8 -4
-18 -10 -21 -5 -3 -10 3 -10 14 0 12 5 21 10 21 6 0 10 -6 10 -14z m64 -29
c-8 -4 -14 -19 -14 -32 0 -14 -4 -25 -10 -25 -13 0 -13 33 1 64 9 19 14 22 24
13 10 -10 10 -14 -1 -20z m106 13 c0 -5 -4 -10 -10 -10 -5 0 -10 5 -10 10 0 6
5 10 10 10 6 0 10 -4 10 -10z m-420 -171 c-12 -41 -18 -46 -27 -24 -4 11 -2
20 5 23 7 2 12 10 12 18 0 8 4 14 9 14 6 0 6 -12 1 -31z m48 -13 c-4 -31 -38
-34 -38 -3 0 29 7 37 27 30 8 -3 13 -15 11 -27z m-508 11 c0 -7 -7 -22 -15
-33 -8 -12 -12 -24 -9 -27 3 -2 -2 -29 -10 -58 -8 -30 -17 -65 -20 -79 -9 -45
-54 -195 -55 -182 -1 7 -8 12 -17 10 -10 -2 -19 3 -22 11 -3 10 0 12 11 8 11
-4 14 -2 10 9 -3 8 1 14 11 14 9 0 16 5 16 11 0 5 -4 8 -9 5 -5 -3 -14 1 -21
10 -10 11 -10 18 -2 26 9 9 12 7 13 -7 0 -17 2 -17 12 4 9 19 9 25 -1 29 -18
6 -15 20 5 24 14 2 18 14 19 51 1 26 6 53 12 60 6 7 20 38 32 70 20 52 40 75
40 44z m812 -43 c-21 -14 -22 -20 -15 -87 4 -40 7 -91 8 -114 0 -22 3 -39 6
-37 3 2 9 -22 13 -54 3 -31 9 -67 12 -79 5 -17 2 -23 -9 -23 -20 0 -32 37 -18
54 8 10 7 25 -4 57 -19 53 -36 210 -28 253 6 33 18 46 43 46 9 0 7 -5 -8 -16z
m-162 -4 c0 -5 -4 -10 -10 -10 -5 0 -10 5 -10 10 0 6 5 10 10 10 6 0 10 -4 10
-10z m84 -23 c-10 -6 -23 -15 -27 -21 -6 -7 -7 -4 -3 6 3 10 0 20 -6 24 -19
12 15 23 36 12 19 -10 19 -11 0 -21z m-267 3 c-6 -24 6 -26 27 -5 8 8 17 11
20 7 7 -12 -25 -36 -51 -40 -18 -3 -23 2 -23 17 0 12 5 21 11 21 5 0 7 5 4 10
-3 6 -1 10 6 10 6 0 9 -8 6 -20z m596 -97 c22 -74 33 -164 18 -143 -6 8 -11
24 -11 36 0 11 -3 24 -7 27 -7 8 -38 90 -59 157 l-13 45 27 -32 c16 -18 36
-59 45 -90z m-1286 78 c-6 -16 -19 -32 -30 -35 -17 -4 -17 -2 -4 17 7 12 17
28 21 35 14 24 24 12 13 -17z m1131 0 c-7 -11 -17 -17 -22 -14 -6 4 -5 8 3 11
11 4 11 6 0 13 -10 6 -8 9 9 9 19 0 21 -2 10 -19z m-378 -53 c0 -27 -3 -30
-22 -23 -13 4 -32 7 -43 7 -11 0 -14 2 -7 5 6 3 10 9 6 14 -11 19 8 30 22 12
13 -17 14 -17 20 4 9 31 24 19 24 -19z m420 5 c0 -2 -5 -13 -11 -24 -9 -17 -5
-22 25 -34 21 -9 36 -22 36 -32 0 -9 9 -43 21 -75 11 -33 18 -66 15 -74 -3 -8
-1 -14 5 -14 6 0 8 -7 5 -16 -3 -8 -2 -12 3 -9 5 3 13 -5 16 -17 4 -13 13 -30
21 -38 28 -32 68 -178 57 -207 -13 -34 -116 -59 -126 -30 -2 7 13 16 42 23 31
7 47 16 49 28 3 14 -2 17 -30 16 -107 -6 -151 12 -58 24 74 10 67 32 -12 41
-85 9 -98 13 -97 33 0 9 3 12 5 7 2 -6 30 -10 64 -9 39 2 60 -1 60 -9 0 -18
29 26 30 45 0 9 -5 20 -12 24 -7 4 -8 3 -4 -4 4 -7 2 -12 -3 -12 -6 0 -11 4
-11 9 0 16 -34 23 -45 9 -8 -11 -43 -14 -97 -9 -13 2 -9 28 6 41 8 6 34 13 56
15 23 1 46 7 52 13 20 20 -4 31 -67 29 -36 -1 -65 0 -66 3 0 3 -2 25 -4 50 -4
45 -4 45 9 16 14 -30 87 -68 81 -43 -4 22 -18 52 -30 67 -21 25 -47 163 -33
171 10 7 48 0 48 -8z m-300 -24 c0 -5 -4 -9 -10 -9 -5 0 -10 7 -10 16 0 8 5
12 10 9 6 -3 10 -10 10 -16z m78 -20 c-3 -20 -5 -19 -9 9 -3 20 -2 29 4 23 5
-5 7 -19 5 -32z m-998 15 c0 -8 -5 -12 -11 -9 -7 5 -9 -4 -7 -26 2 -25 -1 -34
-14 -37 -10 -2 -18 1 -18 7 0 6 7 8 15 5 8 -4 15 -2 15 4 0 6 -5 12 -11 14 -7
2 -7 12 0 31 11 29 31 37 31 11z m850 -50 c0 -8 -5 -12 -10 -9 -6 4 -8 11 -5
16 9 14 15 11 15 -7z m81 -8 c5 3 9 0 9 -5 0 -6 -9 -11 -20 -11 -20 0 -26 11
-13 24 4 4 9 2 11 -3 2 -6 8 -9 13 -5z m87 -93 c8 -24 7 -33 -3 -37 -8 -3 -11
-13 -8 -27 6 -22 7 -22 14 -3 6 15 8 12 8 -13 1 -23 -4 -33 -14 -33 -8 0 -15
-5 -15 -11 0 -6 7 -9 15 -5 19 7 19 5 0 -30 -18 -34 -20 -58 -4 -48 7 4 10 1
7 -6 -2 -8 -9 -15 -15 -17 -14 -5 -23 126 -15 244 5 80 7 91 13 58 4 -22 11
-54 17 -72z m-1100 36 c-7 -5 -8 -9 -2 -9 5 0 16 6 23 13 11 9 10 7 0 -12 -28
-47 -35 -56 -47 -58 -18 -4 -14 23 10 70 17 32 23 38 26 23 2 -10 -2 -22 -10
-27z m932 21 c-6 -11 -12 -20 -14 -20 -2 0 -6 9 -9 20 -4 15 0 20 14 20 17 0
18 -3 9 -20z m90 -30 c0 -5 -9 -10 -20 -10 -11 0 -20 5 -20 10 0 6 9 10 20 10
11 0 20 -4 20 -10z m-175 -18 c-3 -3 -11 0 -18 7 -9 10 -8 11 6 5 10 -3 15 -9
12 -12z m607 -47 c3 -13 1 -22 -3 -19 -9 5 -13 44 -5 44 2 0 6 -11 8 -25z
m-607 -24 c-3 -6 -11 -8 -17 -5 -6 4 -5 9 3 15 16 10 23 4 14 -10z m85 -13 c0
-12 -4 -16 -11 -12 -7 4 -9 0 -5 -12 14 -46 15 -103 3 -116 -16 -16 -11 -38 8
-38 22 0 5 -41 -22 -51 -33 -12 -37 -11 -24 5 8 9 9 16 2 20 -12 8 -4 64 12
83 5 7 13 10 18 7 10 -6 1 25 -12 41 -13 17 1 92 17 92 8 0 14 -9 14 -19z
m-695 -106 c-5 -19 -9 -22 -15 -12 -4 7 -5 20 -2 29 5 14 4 14 -12 1 -11 -8
-14 -16 -7 -18 20 -7 11 -22 -11 -18 -16 2 -24 11 -26 30 -3 25 -2 27 17 16
19 -9 24 -7 39 20 l17 30 3 -26 c2 -15 1 -38 -3 -52z m-128 46 c-3 -8 -6 -5
-6 6 -1 11 2 17 5 13 3 -3 4 -12 1 -19z m13 -105 c0 -7 -9 -13 -20 -13 -11 0
-20 7 -20 15 0 8 5 15 11 15 8 0 8 4 1 13 -6 7 -8 23 -5 36 5 21 7 19 19 -15
8 -22 14 -45 14 -51z m-103 30 c-3 -10 -5 -4 -5 12 0 17 2 24 5 18 2 -7 2 -21
0 -30z m800 31 c-3 -3 -12 -4 -19 -1 -8 3 -5 6 6 6 11 1 17 -2 13 -5z m383
-13 c0 -5 -7 -11 -15 -15 -9 -3 -15 0 -15 9 0 8 7 15 15 15 8 0 15 -4 15 -9z
m-200 -27 c0 -8 -4 -12 -10 -9 -5 3 -10 10 -10 16 0 5 5 9 10 9 6 0 10 -7 10
-16z m-63 -16 c-3 -8 -6 -5 -6 6 -1 11 2 17 5 13 3 -3 4 -12 1 -19z m-922 -8
c3 -5 1 -10 -4 -10 -6 0 -11 5 -11 10 0 6 2 10 4 10 3 0 8 -4 11 -10z m1203
-25 c3 -3 -7 -5 -21 -5 -15 0 -27 4 -27 9 0 10 38 7 48 -4z m-123 -14 c-3 -5
-1 -12 4 -15 14 -9 10 -54 -6 -67 -12 -10 -13 -8 -9 14 2 14 0 27 -5 29 -11 4
0 48 13 48 5 0 7 -4 3 -9z m-1005 -16 c16 -19 74 -19 94 0 13 14 16 12 28 -12
7 -16 31 -37 54 -48 23 -11 50 -27 60 -36 11 -9 46 -20 79 -24 33 -3 79 -15
101 -26 23 -11 47 -18 54 -17 6 2 17 -4 23 -13 8 -14 2 -27 -35 -70 -25 -30
-74 -97 -108 -149 -35 -52 -83 -115 -105 -140 -23 -25 -65 -79 -94 -120 -81
-118 -185 -244 -212 -257 -13 -6 -36 -17 -51 -23 -15 -7 -32 -26 -37 -42 -6
-16 -31 -49 -56 -73 -48 -47 -55 -68 -29 -83 14 -8 13 -17 -10 -83 -36 -99
-127 -227 -194 -271 -53 -35 -126 -15 -185 51 -50 56 -52 87 -12 217 42 135
126 236 230 276 54 21 90 90 98 192 4 44 20 111 42 172 20 54 45 133 56 174
11 41 26 89 33 105 8 17 28 75 46 130 48 143 58 165 83 175 31 12 33 12 47 -5z
m1125 -35 c-3 -5 -12 -10 -18 -10 -7 0 -6 4 3 10 19 12 23 12 15 0z m-287 -31
c15 -23 7 -79 -11 -79 -8 0 -7 -4 1 -12 14 -14 16 -54 3 -63 -14 -8 -21 8 -31
72 -9 50 -8 60 7 71 13 9 14 12 2 13 -8 1 -18 1 -22 0 -5 -1 -6 3 -2 9 10 17
39 11 53 -11z m112 7 c0 -2 -9 -6 -20 -9 -11 -3 -20 -1 -20 4 0 5 9 9 20 9 11
0 20 -2 20 -4z m-203 -42 c9 -9 12 -19 7 -24 -12 -11 -48 15 -39 29 8 15 14
14 32 -5z m403 -5 c0 -5 -7 -9 -15 -9 -15 0 -20 12 -9 23 8 8 24 -1 24 -14z
m-470 -49 c18 -12 2 -12 -25 0 -13 6 -15 9 -5 9 8 0 22 -4 30 -9z m360 -9 c0
-5 -11 -8 -24 -7 -13 0 -22 4 -19 9 6 10 43 9 43 -2z m98 -12 c2 -11 -6 -18
-25 -22 -37 -7 -45 0 -30 24 14 23 50 22 55 -2z m-368 -27 c14 -54 43 -78 78
-66 19 7 28 18 32 39 3 19 8 25 13 18 5 -7 21 -10 42 -6 43 7 44 -2 9 -94 -14
-38 -29 -84 -34 -103 -5 -19 -21 -73 -35 -120 -14 -47 -37 -123 -50 -170 -13
-47 -31 -103 -39 -125 -54 -147 -66 -182 -66 -196 0 -20 -16 -52 -48 -96 -30
-43 -66 -244 -57 -330 7 -80 -8 -97 -91 -106 -79 -9 -121 -1 -169 31 -56 38
-85 100 -85 178 0 74 21 128 76 199 22 28 48 68 58 90 10 22 23 48 27 57 11
22 12 52 2 62 -4 4 -8 42 -9 84 -7 497 -7 490 14 524 12 18 46 57 76 87 l54
54 49 -7 c77 -12 107 -9 122 14 7 11 15 20 17 20 2 0 8 -17 14 -38z m-391
-459 c3 -240 -11 -371 -43 -419 -105 -156 -116 -179 -116 -255 0 -41 -5 -52
-32 -78 l-33 -31 0 -112 c0 -97 4 -121 24 -165 12 -28 31 -59 42 -69 10 -9 19
-21 19 -26 0 -13 -74 -42 -78 -30 -1 5 -13 29 -25 53 -18 36 -33 50 -87 76
-57 28 -72 31 -120 26 -75 -7 -167 -37 -215 -69 -51 -34 -99 -91 -98 -115 2
-26 -14 -24 -54 7 -29 22 -33 31 -33 70 0 61 15 87 45 80 31 -8 46 19 56 97 4
32 22 90 43 133 20 42 36 82 36 90 0 8 11 31 24 52 13 21 38 73 56 115 37 90
110 204 168 263 22 23 52 61 68 85 36 58 222 310 243 329 9 8 33 37 54 63 21
26 42 45 46 43 4 -3 9 -99 10 -213z m1596 -38 c22 -8 47 -15 56 -15 27 0 118
-89 142 -139 32 -66 32 -186 0 -230 -13 -16 -23 -43 -23 -58 0 -37 -22 -67
-59 -83 -17 -7 -33 -20 -36 -31 -5 -14 -16 -18 -53 -17 -58 1 -89 12 -123 44
-32 31 -47 17 -29 -27 8 -18 29 -38 54 -51 l41 -22 -44 -8 c-24 -4 -62 -19
-84 -33 -37 -25 -39 -26 -52 -8 -13 17 -15 14 -34 -28 -11 -25 -28 -52 -38
-61 -32 -28 -102 -59 -157 -69 -46 -8 -64 -6 -132 15 -129 41 -184 114 -184
243 0 76 25 141 65 167 29 19 32 36 7 36 -30 0 -92 -72 -108 -126 -18 -59 -11
-151 17 -206 11 -21 19 -42 19 -47 0 -5 -26 -15 -57 -21 -32 -7 -69 -18 -83
-26 -62 -33 -130 -121 -130 -165 0 -27 -24 -46 -35 -29 -4 6 -19 10 -35 10
-16 0 -42 11 -60 27 -29 24 -31 30 -25 69 5 39 4 43 -17 46 -15 2 -24 11 -26
26 -2 12 1 22 6 22 6 0 9 30 8 68 -1 63 1 71 33 110 21 27 44 45 62 49 16 3
32 10 35 14 7 12 81 11 89 -1 3 -5 11 -10 16 -10 13 0 3 69 -17 116 -21 50
-17 95 15 167 39 87 79 117 158 120 l58 2 -2 -32 c-2 -17 2 -35 7 -38 20 -12
40 17 40 57 0 74 62 128 146 128 35 0 74 -22 74 -41 0 -5 -16 -15 -35 -24 -24
-9 -40 -25 -50 -49 -9 -22 -25 -37 -44 -44 -35 -12 -64 -52 -55 -76 10 -25 34
-19 34 8 0 27 16 36 66 36 31 0 34 3 34 28 0 37 23 58 81 72 48 12 121 1 134
-20 3 -6 13 -10 21 -10 17 0 19 41 3 57 -6 6 -9 21 -7 34 8 60 215 109 313 74z
m-3200 -66 c73 -66 330 -112 406 -73 22 11 29 11 45 -1 27 -21 99 -18 144 5
l39 20 10 -36 c11 -42 47 -84 70 -84 10 0 3 -12 -19 -35 -19 -19 -38 -35 -43
-35 -5 0 -29 21 -53 46 -24 25 -63 54 -87 64 -52 24 -150 26 -231 5 -52 -14
-61 -14 -75 -1 -15 14 -44 12 -97 -5 -7 -2 -23 8 -37 24 -22 22 -35 27 -75 27
-43 0 -50 3 -61 26 -12 27 -6 64 12 76 12 8 23 3 52 -23z m3513 -401 c13 -13
-1 -38 -22 -38 -22 0 -54 -44 -61 -82 -5 -27 -12 -38 -25 -38 -26 0 -90 29
-90 40 0 5 17 21 38 35 20 13 50 40 65 60 29 37 71 47 95 23z m-1004 -369 c36
-17 62 -54 70 -96 l6 -33 -50 0 c-143 0 -291 -84 -362 -206 -10 -16 -22 -36
-26 -44 -18 -29 -32 -87 -32 -128 0 -40 -2 -42 -29 -42 -69 0 -143 -60 -162
-131 -12 -44 -60 -96 -78 -85 -5 3 -12 65 -16 136 -6 113 -5 133 9 149 9 10
16 29 16 43 0 40 30 69 78 75 23 3 42 8 42 10 0 2 -7 18 -16 35 -18 36 -12 73
18 106 26 27 52 28 103 2 35 -18 40 -18 56 -4 9 8 20 14 25 12 5 -1 19 3 32
10 17 10 22 22 22 53 0 32 7 47 42 85 22 24 48 44 57 42 9 -1 27 5 41 15 29
21 107 19 154 -4z m-544 -59 c0 -9 9 -33 19 -53 l19 -38 -35 -14 c-20 -8 -39
-15 -43 -15 -4 0 -8 44 -9 97 l-1 98 25 -30 c13 -17 24 -37 25 -45z m914 -4
c-14 -56 -15 -74 -5 -108 10 -33 10 -42 -1 -49 -20 -13 -28 -11 -61 17 -26 22
-38 25 -71 21 -30 -4 -51 0 -88 19 -52 26 -57 34 -32 55 11 9 14 22 10 45 l-6
32 62 -5 c49 -3 78 1 133 20 39 13 71 23 73 22 2 -1 -5 -33 -14 -69z m-2947
-126 c31 -10 49 -10 73 -2 31 11 32 11 51 -34 12 -26 33 -53 50 -63 41 -25
122 -35 166 -20 19 6 36 9 39 7 14 -15 -66 -152 -137 -232 l-41 -46 -33 36
c-33 35 -36 36 -95 32 -36 -2 -60 1 -60 7 0 6 10 26 22 45 39 62 25 170 -31
234 -9 10 -33 27 -53 37 -21 11 -38 24 -38 29 0 6 10 4 23 -4 12 -8 41 -20 64
-26z m1320 -27 c59 -30 83 -63 83 -113 0 -56 41 -96 56 -55 7 19 65 48 75 38
6 -7 16 -101 19 -183 1 -48 -18 -378 -26 -441 -4 -29 1 -43 20 -67 39 -46 76
-57 139 -42 79 19 138 20 198 3 95 -27 413 -51 425 -32 7 11 54 12 54 1 0 -4
28 -14 63 -21 182 -37 198 -43 244 -83 25 -21 58 -42 74 -45 34 -7 64 -37 56
-57 -5 -12 -19 -14 -74 -10 -37 3 -80 12 -95 20 -34 18 -49 18 -73 0 -17 -12
-18 -17 -7 -40 9 -21 9 -27 -1 -30 -6 -2 -28 -8 -47 -14 -23 -7 -70 -8 -140
-2 -144 12 -193 23 -225 48 -15 12 -43 24 -64 28 -20 4 -45 13 -56 21 -18 13
-15 14 32 8 111 -14 126 24 29 73 -72 37 -146 52 -252 52 -39 0 -119 3 -177 6
l-106 7 -6 29 c-4 15 -16 33 -27 39 -19 10 -19 11 -2 23 17 13 16 14 -3 24
-11 6 -40 14 -64 18 -24 3 -65 17 -91 30 -31 16 -73 27 -122 32 -68 6 -73 8
-62 24 10 14 19 16 42 8 16 -5 67 -18 114 -30 47 -12 104 -28 126 -35 23 -7
47 -9 54 -5 18 11 4 40 -19 40 -11 0 -55 11 -98 25 -43 14 -89 25 -103 25 -14
0 -41 9 -60 20 -168 97 -187 99 -457 33 -103 -25 -123 -24 -123 3 0 8 -10 34
-21 56 -12 23 -23 63 -25 89 -3 39 2 53 27 88 33 44 63 57 107 47 49 -12 67
-12 64 3 -4 19 19 43 36 36 26 -10 40 13 35 58 -4 37 -1 46 26 75 17 17 35 32
39 32 4 0 23 20 42 44 92 115 234 156 347 99z m642 -58 c2 -10 -5 -25 -15 -32
-23 -17 -34 -16 -34 2 0 8 5 15 10 15 6 0 10 9 10 21 0 25 23 20 29 -6z
m-1185 -23 c3 -22 16 -48 30 -61 20 -18 23 -28 16 -42 -6 -10 -10 -31 -10 -47
0 -24 -8 -34 -36 -51 -19 -12 -44 -21 -54 -21 -29 0 -92 -36 -128 -73 -25 -25
-35 -47 -41 -88 -10 -58 -3 -83 40 -148 l23 -34 -35 7 c-19 4 -60 9 -91 13
-68 6 -76 24 -29 72 16 16 39 59 50 94 12 36 31 73 41 82 13 12 20 31 20 55 0
30 4 39 21 43 12 3 18 10 15 16 -4 5 7 29 24 53 17 24 51 71 76 106 24 34 48
62 53 62 5 0 11 -17 15 -38z m-1149 -127 c0 -13 -97 -65 -108 -58 -15 9 66 73
88 70 11 -1 20 -6 20 -12z m19 -240 c-6 -16 -24 -21 -24 -7 0 11 11 22 21 22
5 0 6 -7 3 -15z m-74 -20 c0 -14 -4 -25 -10 -25 -11 0 -14 33 -3 43 11 11 13
8 13 -18z m-44 -225 c7 -97 6 -102 -12 -98 -17 3 -19 14 -22 102 -5 174 23
171 34 -4z m1534 70 c13 -9 13 -10 -1 -10 -8 0 -25 -14 -38 -31 -13 -17 -25
-28 -29 -25 -3 3 5 17 18 31 l23 25 -24 9 c-23 10 -23 10 6 10 17 0 37 -4 45
-9z m2717 -120 c14 -11 32 -20 39 -20 31 0 21 -21 -18 -39 -49 -22 -206 -71
-230 -71 -8 0 -32 -13 -52 -29 -22 -18 -62 -35 -104 -45 -81 -19 -298 -30
-367 -18 -45 7 -39 9 70 15 181 10 287 31 380 77 96 48 135 71 195 115 54 40
55 40 87 15z m-657 -80 c66 -33 139 -43 226 -32 82 11 90 10 80 -7 -15 -23
-128 -42 -286 -47 -405 -13 -653 -8 -453 10 106 10 236 43 303 77 58 29 70 29
130 -1z m-3595 -31 c10 -15 -1 -23 -20 -15 -9 3 -13 10 -10 16 8 13 22 13 30
-1z m1887 -1 c-8 -8 -17 -8 -34 0 -22 10 -21 11 12 11 26 1 31 -2 22 -11z
m-72 -61 c20 -6 48 -22 63 -34 34 -27 83 -32 352 -38 115 -3 213 -9 218 -14 5
-5 0 -8 -10 -8 -50 0 -53 -2 -53 -38 0 -29 6 -39 33 -55 17 -11 48 -22 67 -26
39 -6 62 -15 105 -44 17 -11 39 -24 50 -29 17 -8 14 -10 -17 -10 -34 -1 -38
-4 -38 -26 0 -31 -5 -31 -120 4 -57 17 -143 34 -214 41 -112 11 -121 11 -133
-6 -12 -17 -14 -17 -28 2 -13 17 -12 21 10 37 33 24 34 71 3 91 -13 8 -45 18
-73 21 -27 4 -77 22 -110 39 -52 28 -71 33 -140 34 -43 1 -84 7 -89 12 -7 7
-6 10 0 10 6 0 16 11 22 25 13 29 45 32 102 12z m1624 -45 c2 -4 -27 -9 -65
-10 -45 -1 -68 2 -64 8 7 12 122 14 129 2z m-174 -11 c0 -16 -27 -31 -44 -25
-30 11 -16 34 21 34 13 0 23 -4 23 -9z m-1515 -82 c25 -12 44 -23 43 -25 -7
-6 -158 9 -158 16 0 8 39 28 58 29 7 1 33 -9 57 -20z m-235 -19 c23 -7 22 -8
-10 -9 -19 0 -42 4 -50 9 -12 8 -10 10 10 9 14 -1 36 -5 50 -9z m-65 -45 c44
-7 74 -13 68 -14 -19 -2 -16 -31 3 -31 9 0 18 9 21 19 8 30 50 34 185 16 156
-21 240 -47 278 -88 38 -41 38 -57 0 -57 -21 0 -35 8 -47 26 -36 55 -193 91
-263 60 -33 -14 -33 -15 -10 -17 14 -1 34 -3 45 -4 11 -1 27 -3 36 -4 8 0 24
-8 35 -16 17 -13 11 -14 -61 -12 -63 2 -83 6 -93 20 -7 9 -26 17 -42 17 -15 0
-57 9 -92 20 -34 11 -80 20 -101 20 -31 0 -39 4 -47 25 -5 14 -20 30 -32 35
-20 9 -19 10 7 4 17 -3 66 -11 110 -19z m538 12 c36 -13 71 -37 52 -37 -6 1
-46 12 -90 25 -72 22 -76 24 -40 24 22 1 57 -5 78 -12z m1479 -29 c-10 -10
-64 0 -57 11 2 4 18 6 35 3 20 -3 28 -8 22 -14z m993 2 c3 -6 -5 -10 -19 -10
-14 0 -28 5 -31 10 -3 6 5 10 19 10 14 0 28 -4 31 -10z m-3220 -26 c51 -6 57
-8 38 -17 -13 -6 -23 -16 -23 -24 0 -10 -21 -13 -90 -13 -49 0 -93 0 -97 1
-10 0 -4 31 7 43 11 11 71 25 90 20 8 -1 42 -6 75 -10z m2046 -43 c15 -51 18
-55 60 -66 24 -7 63 -19 85 -28 58 -21 144 -23 359 -8 116 9 155 8 225 -5 47
-8 93 -20 102 -25 10 -5 30 -9 45 -9 14 0 35 -8 45 -17 12 -11 38 -18 66 -19
62 -2 62 -2 62 -19 0 -11 -12 -15 -48 -15 -26 0 -53 -5 -60 -12 -18 -18 -15
-87 4 -95 20 -7 34 13 34 48 0 27 16 39 51 39 27 0 32 -36 16 -116 -14 -67
-15 -69 -43 -66 -15 2 -38 14 -50 27 -12 13 -39 27 -60 31 -68 12 -116 33
-186 81 -45 31 -84 49 -116 54 -26 4 -75 16 -110 25 -54 15 -83 16 -192 8 -71
-5 -144 -6 -162 -2 -18 4 -73 15 -123 25 -74 15 -90 22 -94 38 -2 11 -12 32
-22 47 -21 28 -25 58 -9 58 6 0 10 6 10 14 0 20 59 68 79 64 9 -2 22 -25 32
-57z m873 4 c20 -4 26 -9 17 -14 -7 -5 -11 -19 -9 -32 3 -27 30 -36 111 -38
69 -2 57 -17 -20 -24 -62 -6 -72 -4 -156 34 -49 22 -110 44 -136 49 -25 5 -57
13 -71 18 -22 8 -19 10 30 22 30 7 68 19 84 25 26 11 36 10 75 -11 25 -13 59
-26 75 -29z m-653 -9 c68 -3 158 -10 199 -17 41 -6 100 -13 130 -14 30 -1 66
-7 80 -13 23 -10 20 -11 -25 -12 -63 -2 -219 -8 -265 -11 -75 -5 -167 10 -222
35 -32 14 -58 28 -58 30 0 2 -3 13 -7 23 -7 17 -6 17 18 1 19 -12 58 -18 150
-22z m-427 -28 c79 -148 73 -143 184 -163 53 -9 106 -23 117 -30 21 -13 86
-11 190 4 33 5 80 6 105 1 l45 -7 -41 -2 c-22 0 -67 -10 -100 -21 -32 -11 -79
-19 -104 -19 -58 0 -179 22 -207 37 -12 7 -32 12 -44 12 -12 0 -47 11 -78 24
-31 13 -74 28 -96 32 -34 8 -43 16 -62 54 -25 49 -30 96 -10 103 6 3 28 6 48
6 30 1 38 -4 53 -31z m-1609 2 c22 -11 44 -20 51 -20 6 0 19 -9 29 -20 17 -18
17 -20 0 -26 -9 -4 -40 3 -69 15 -28 11 -68 21 -88 21 -19 0 -47 6 -62 14
l-26 13 23 11 c35 17 100 14 142 -8z m2855 0 c0 -5 -16 -10 -35 -10 -19 0 -35
5 -35 10 0 6 16 10 35 10 19 0 35 -4 35 -10z m217 -4 c4 -3 -33 -6 -80 -6 -52
0 -87 4 -87 10 0 11 156 7 167 -4z m-2647 -28 c25 -27 93 -49 129 -42 14 3 53
-2 86 -11 33 -10 83 -23 111 -30 28 -7 60 -17 72 -24 11 -6 32 -11 45 -11 14
0 44 -16 67 -35 23 -19 46 -35 52 -35 14 0 62 -39 68 -55 9 -24 105 -95 140
-104 59 -16 160 -31 269 -41 58 -5 109 -14 113 -18 5 -5 6 -21 2 -37 -7 -27
-8 -27 -68 -22 -97 9 -129 18 -159 43 -46 39 -151 64 -265 64 -106 0 -211 19
-271 49 -62 32 -177 56 -480 104 -42 7 -76 18 -79 25 -8 24 -141 82 -192 82
-28 1 -93 28 -70 30 117 8 220 -1 247 -23 7 -5 37 -10 65 -11 41 -1 61 4 86
23 43 30 40 60 -8 83 -34 18 -34 18 -8 18 15 0 36 -10 48 -22z m-670 2 c13 -8
12 -11 -4 -23 -19 -14 -19 -15 6 -31 13 -9 51 -21 84 -27 32 -6 75 -17 94 -25
18 -8 67 -21 107 -30 97 -20 142 -40 153 -68 7 -20 18 -24 72 -30 106 -12 428
-74 443 -86 6 -4 44 -18 85 -32 79 -27 140 -36 286 -43 106 -5 249 -43 249
-65 0 -17 -58 -17 -460 -4 l-200 6 -70 38 c-63 33 -78 38 -150 39 -54 2 -94 9
-124 22 -24 10 -50 19 -57 19 -8 0 -36 16 -63 35 -52 37 -196 107 -246 119
-33 8 -223 42 -325 57 -42 6 -74 6 -93 -1 -16 -5 -33 -7 -37 -5 -5 3 -11 1
-15 -5 -3 -5 -16 -10 -27 -10 -35 0 -159 -40 -197 -64 -20 -12 -89 -44 -154
-71 -66 -27 -129 -56 -141 -66 -13 -10 -47 -19 -82 -22 -32 -3 -124 -10 -204
-17 -190 -16 -220 -14 -220 11 0 6 24 9 53 9 46 -1 89 3 272 29 55 8 173 64
181 86 8 19 78 45 122 44 l37 -1 -31 -13 c-34 -15 -60 -42 -50 -52 3 -3 14 0
23 9 10 8 38 23 63 33 54 23 65 31 65 52 0 9 6 18 13 20 7 3 10 -1 6 -11 -10
-27 27 -19 81 18 130 89 216 127 334 145 35 6 66 13 69 16 8 8 35 6 52 -5z
m1526 -38 c10 -26 35 -65 56 -87 33 -34 36 -40 20 -43 -30 -5 -126 36 -155 66
-15 16 -29 44 -33 69 l-6 42 50 -1 51 0 17 -46z m128 6 c3 -13 4 -34 3 -47 -3
-36 41 -62 130 -77 201 -33 243 -45 243 -66 0 -19 -304 37 -365 67 -28 15 -30
19 -32 80 -2 62 12 89 21 43z m-1067 -12 c3 -2 2 -10 -2 -16 -5 -8 -25 -9 -63
-4 -65 7 -67 8 -57 25 7 11 110 7 122 -5z m-397 -6 c12 -8 11 -10 -7 -10 -12
0 -25 5 -28 10 -8 13 15 13 35 0z m975 -11 c17 -11 53 -31 80 -45 67 -33 139
-76 162 -95 34 -31 118 -65 198 -83 44 -9 108 -24 142 -32 34 -8 99 -14 145
-14 45 0 99 -5 118 -10 49 -13 228 -60 270 -71 48 -12 127 -11 151 2 51 27
243 2 329 -42 34 -17 25 -17 -336 -13 -304 3 -379 7 -408 19 -21 9 -51 18 -69
22 -18 3 -39 12 -47 19 -26 22 -90 41 -165 48 -38 4 -98 14 -133 22 -35 8 -78
14 -97 14 -25 0 -47 11 -87 45 -29 24 -90 76 -135 114 -48 40 -96 72 -115 76
-18 4 -44 12 -58 17 -20 7 -22 11 -10 18 22 14 32 12 65 -11z m2142 -20 c-16
-9 -94 -6 -104 4 -3 4 22 6 56 5 36 -1 56 -5 48 -9z m60 -5 c-3 -3 -12 -4 -19
-1 -8 3 -5 6 6 6 11 1 17 -2 13 -5z m113 -60 c0 -22 -3 -22 -77 -18 -245 14
-257 16 -236 37 3 4 75 6 160 5 151 -2 153 -3 153 -24z m-1960 -49 c16 -8 42
-15 59 -15 16 0 51 -9 77 -20 26 -12 79 -29 118 -40 115 -31 41 -23 -91 10
-115 29 -226 71 -238 91 -7 10 28 -2 75 -26z m-1487 -28 c52 -25 99 -51 103
-60 5 -8 29 -24 52 -36 58 -30 48 -37 -17 -12 -137 54 -227 72 -375 73 -85 0
-153 -4 -171 -12 -36 -14 -94 -67 -105 -97 -7 -16 -22 -24 -67 -32 -32 -6 -94
-22 -138 -36 -68 -22 -91 -25 -151 -19 -67 6 -73 5 -83 -15 -11 -19 -20 -21
-94 -20 -45 1 -93 4 -107 8 l-25 7 22 12 c12 7 46 12 75 11 75 -2 228 17 263
32 17 7 48 27 70 44 22 17 72 44 110 60 39 15 97 43 130 60 113 61 214 86 332
80 73 -3 93 -9 176 -48z m2648 21 c44 -24 73 -48 65 -55 -4 -4 -16 -2 -26 5
-37 22 -105 42 -150 42 -33 0 -41 3 -30 10 21 14 113 12 141 -2z m-256 -23
c-55 -19 -90 -18 -50 0 17 8 44 14 60 14 29 -1 28 -2 -10 -14z m-2091 -70 c32
-16 75 -44 95 -63 40 -39 73 -48 216 -60 50 -5 98 -13 109 -18 27 -16 -90 -25
-184 -14 -209 24 -240 35 -240 85 0 26 -41 65 -93 88 -47 21 -41 43 6 23 18
-7 58 -26 91 -41z m-352 -39 c64 -18 128 -43 143 -54 25 -20 42 -25 109 -36
80 -14 32 -36 -79 -36 -49 -1 -225 -2 -390 -3 -165 -2 -310 -6 -322 -11 -14
-5 -23 -5 -23 1 0 10 86 33 124 33 25 0 76 50 94 92 11 27 22 31 107 41 80 10
128 5 237 -27z m2348 -36 c0 -5 -4 -10 -10 -10 -5 0 -10 5 -10 10 0 6 5 10 10
10 6 0 10 -4 10 -10z m-3704 -25 c-21 -16 -117 -21 -101 -6 11 10 45 18 90 19
28 1 29 1 11 -13z m24 -67 c0 -9 -2 -9 -45 -14 -16 -2 -39 -5 -50 -7 -21 -5
-45 9 -45 25 0 5 30 8 70 6 38 -2 70 -6 70 -10z"/>
<path d="M4027 7749 c7 -7 15 -10 18 -7 3 3 -2 9 -12 12 -14 6 -15 5 -6 -5z"/>
<path d="M2595 6870 c4 -6 11 -8 16 -5 14 9 11 15 -7 15 -8 0 -12 -5 -9 -10z"/>
<path d="M2863 6765 c-10 -10 -9 -16 4 -27 15 -11 16 -11 10 4 -4 11 0 21 11
27 13 8 14 10 2 10 -8 0 -20 -6 -27 -14z"/>
<path d="M2149 6609 c-8 -15 -8 -19 0 -15 6 4 11 0 11 -11 0 -11 6 -25 13 -32
10 -10 8 -12 -7 -9 -10 1 -21 -2 -23 -8 -2 -7 6 -10 24 -6 26 5 27 4 13 -13
-13 -16 -13 -18 0 -13 8 2 15 11 15 19 1 22 15 40 27 33 6 -4 8 -3 5 3 -4 6
-18 9 -31 8 -17 -2 -23 1 -19 10 2 8 11 11 19 8 8 -3 14 0 14 7 0 6 -8 10 -17
9 -31 -3 -36 1 -23 16 8 10 9 15 2 15 -6 0 -16 -10 -23 -21z"/>
<path d="M2240 6600 c0 -5 5 -10 11 -10 5 0 7 5 4 10 -3 6 -8 10 -11 10 -2 0
-4 -4 -4 -10z"/>
<path d="M2290 6530 c0 -5 5 -10 10 -10 6 0 10 5 10 10 0 6 -4 10 -10 10 -5 0
-10 -4 -10 -10z"/>
<path d="M2210 6505 c0 -8 7 -15 15 -15 9 0 12 6 9 15 -4 8 -10 15 -15 15 -5
0 -9 -7 -9 -15z"/>
<path d="M2270 6494 c0 -8 5 -12 10 -9 6 3 10 10 10 16 0 5 -4 9 -10 9 -5 0
-10 -7 -10 -16z"/>
<path d="M2166 6445 c4 -9 15 -20 25 -26 15 -7 19 -6 19 5 0 10 -6 13 -15 10
-9 -4 -15 0 -15 10 0 9 -4 16 -10 16 -5 0 -7 -7 -4 -15z"/>
<path d="M2795 6433 c1 -22 13 -43 25 -43 4 0 6 9 3 20 -4 16 -2 19 12 14 13
-5 16 -3 13 7 -2 8 -16 15 -30 17 -19 2 -24 -1 -23 -15z"/>
<path d="M2818 6079 c-17 -9 -17 -12 -2 -34 9 -14 20 -22 26 -19 5 3 4 12 -3
20 -9 11 -9 17 1 29 14 17 3 19 -22 4z"/>
<path d="M2860 6085 c0 -2 13 -11 29 -19 26 -14 30 -14 35 0 5 13 2 15 -14 11
-11 -3 -23 -1 -26 4 -5 9 -24 13 -24 4z"/>
<path d="M2920 6040 c-13 -8 -12 -10 3 -10 9 0 17 5 17 10 0 12 -1 12 -20 0z"/>
<path d="M3000 6036 c0 -2 7 -7 16 -10 8 -3 12 -2 9 4 -6 10 -25 14 -25 6z"/>
<path d="M2887 6023 c-10 -9 -9 -23 1 -23 5 0 9 7 9 15 0 17 -1 18 -10 8z"/>
<path d="M3070 6620 c0 -5 5 -10 11 -10 5 0 8 -3 6 -7 -3 -5 5 -8 17 -8 19 0
21 3 12 18 -12 18 -46 24 -46 7z"/>
<path d="M3056 6583 c-6 -14 -5 -15 5 -6 7 7 10 15 7 18 -3 3 -9 -2 -12 -12z"/>
<path d="M3035 5800 c-4 -6 -3 -16 3 -22 6 -6 12 -6 17 2 4 6 3 16 -3 22 -6 6
-12 6 -17 -2z"/>
<path d="M2855 5360 c3 -5 8 -10 11 -10 2 0 4 5 4 10 0 6 -5 10 -11 10 -5 0
-7 -4 -4 -10z"/>
<path d="M2820 5310 c0 -5 5 -10 11 -10 5 0 7 5 4 10 -3 6 -8 10 -11 10 -2 0
-4 -4 -4 -10z"/>
<path d="M2800 5261 c0 -5 5 -13 10 -16 6 -3 10 -2 10 4 0 5 -4 13 -10 16 -5
3 -10 2 -10 -4z"/>
<path d="M2902 5241 c-22 -18 -31 -38 -13 -26 5 3 12 1 16 -5 9 -15 19 -12 32
9 19 30 -7 47 -35 22z"/>
<path d="M2675 5190 c-3 -5 1 -10 9 -10 9 0 16 5 16 10 0 6 -4 10 -9 10 -6 0
-13 -4 -16 -10z"/>
<path d="M2590 5182 c0 -5 6 -15 14 -21 12 -10 14 -9 12 5 -3 19 -26 33 -26
16z"/>
<path d="M2780 5165 c-19 -11 -21 -14 -7 -15 9 0 17 -5 17 -12 0 -8 6 -6 17 5
24 24 5 40 -27 22z"/>
<path d="M2656 5157 c3 -10 9 -15 12 -12 3 3 0 11 -7 18 -10 9 -11 8 -5 -6z"/>
<path d="M2217 4913 c-4 -3 -7 -11 -7 -17 0 -6 5 -5 12 2 6 6 9 14 7 17 -3 3
-9 2 -12 -2z"/>
<path d="M2410 4895 c-7 -9 -8 -15 -2 -15 5 0 12 7 16 15 3 8 4 15 2 15 -2 0
-9 -7 -16 -15z"/>
<path d="M2417 4863 c-4 -3 -2 -12 4 -19 8 -10 16 -10 35 -2 13 6 24 16 24 21
0 5 -6 5 -13 -2 -8 -6 -17 -8 -20 -4 -4 3 -7 1 -7 -6 0 -7 -5 -9 -10 -6 -6 4
-8 11 -5 16 7 10 1 12 -8 2z"/>
<path d="M2575 4840 c-3 -5 -1 -10 4 -10 6 0 11 5 11 10 0 6 -2 10 -4 10 -3 0
-8 -4 -11 -10z"/>
<path d="M2620 4759 c0 -5 5 -7 10 -4 6 3 10 8 10 11 0 2 -4 4 -10 4 -5 0 -10
-5 -10 -11z"/>
<path d="M2670 4755 c7 -8 17 -15 22 -15 6 0 5 7 -2 15 -7 8 -17 15 -22 15 -6
0 -5 -7 2 -15z"/>
<path d="M2603 4713 c-18 -6 -16 -23 1 -23 17 0 30 16 19 23 -5 2 -14 2 -20 0z"/>
<path d="M2625 4609 c4 -6 -1 -16 -11 -23 -11 -9 -15 -19 -10 -32 6 -16 9 -15
26 10 18 28 17 56 -2 56 -5 0 -6 -5 -3 -11z"/>
<path d="M2385 4550 c-3 -5 -1 -10 4 -10 6 0 11 5 11 10 0 6 -2 10 -4 10 -3 0
-8 -4 -11 -10z"/>
<path d="M2684 4545 c-4 -10 -10 -12 -18 -6 -8 6 -11 1 -12 -20 -1 -27 10 -35
40 -30 5 1 13 -4 17 -11 6 -9 9 -4 9 15 0 30 -14 36 -28 11 -8 -15 -10 -15
-15 0 -4 9 -2 15 5 13 6 -1 11 8 13 21 2 25 -3 29 -11 7z"/>
<path d="M2286 4503 c-6 -14 -5 -15 5 -6 7 7 10 15 7 18 -3 3 -9 -2 -12 -12z"/>
<path d="M2650 4460 c-9 -6 -10 -10 -3 -10 6 0 15 5 18 10 8 12 4 12 -15 0z"/>
<path d="M2386 4445 c4 -8 10 -12 15 -9 11 6 2 24 -11 24 -5 0 -7 -7 -4 -15z"/>
<path d="M2622 4434 c14 -14 21 -15 30 -6 8 8 9 12 1 12 -6 0 -20 3 -30 6 -17
7 -17 6 -1 -12z"/>
<path d="M2262 4408 c-16 -16 -15 -25 2 -31 21 -8 40 17 23 31 -10 9 -17 8
-25 0z"/>
<path d="M2256 4335 c-3 -10 1 -15 12 -15 10 0 23 -5 30 -12 9 -9 12 -9 12 0
0 7 -4 12 -10 12 -5 0 -10 7 -10 15 0 8 -6 15 -14 15 -8 0 -16 -7 -20 -15z"/>
<path d="M2648 4343 c7 -3 16 -2 19 1 4 3 -2 6 -13 5 -11 0 -14 -3 -6 -6z"/>
<path d="M2345 4299 c-4 -6 -5 -12 -2 -15 2 -3 7 2 10 11 7 17 1 20 -8 4z"/>
<path d="M2416 4300 c-19 -6 -19 -7 -1 -13 20 -8 29 -4 24 11 -2 5 -13 6 -23
2z"/>
<path d="M2230 4661 c-6 -12 -7 -21 -1 -21 10 0 24 30 17 37 -2 3 -9 -5 -16
-16z"/>
<path d="M3230 4538 c0 -9 5 -20 10 -23 13 -8 13 5 0 25 -8 13 -10 13 -10 -2z"/>
<path d="M3200 4338 c0 -4 4 -8 9 -8 6 0 12 4 15 8 3 5 -1 9 -9 9 -8 0 -15 -4
-15 -9z"/>
<path d="M1753 3273 c-3 -10 -16 -45 -29 -78 -28 -70 -17 -98 19 -53 26 32 61
124 52 138 -10 16 -35 11 -42 -7z"/>
<path d="M2051 3251 c-26 -17 -6 -35 41 -36 33 0 55 -8 80 -27 42 -32 48 -55
33 -129 -20 -102 -106 -179 -198 -179 -52 0 -62 -7 -41 -31 12 -13 14 -28 9
-59 -7 -40 -8 -41 -37 -35 -43 10 -118 -13 -118 -36 0 -25 15 -32 30 -14 28
34 140 2 155 -45 3 -10 5 -39 4 -65 -3 -56 12 -75 34 -42 32 48 25 108 -16
154 l-33 36 23 23 c13 13 23 34 23 47 0 20 6 26 36 32 44 8 126 82 157 140 31
59 30 158 -2 203 -37 53 -140 88 -180 63z"/>
<path d="M1675 8489 c-13 -20 32 -51 56 -39 21 12 26 40 7 40 -7 0 -23 3 -34
6 -12 3 -25 0 -29 -7z"/>
<path d="M1382 8415 c-17 -14 -35 -25 -41 -25 -18 0 -13 -27 6 -35 13 -4 27 5
50 30 18 21 30 41 27 46 -7 13 -9 12 -42 -16z"/>
<path d="M2100 8430 c-8 -5 -28 -10 -43 -10 -34 0 -32 -15 6 -38 27 -17 29
-16 47 8 31 39 25 63 -10 40z"/>
<path d="M2314 8426 c-13 -10 -23 -11 -31 -4 -7 5 -19 8 -28 6 -15 -3 -14 -6
5 -30 27 -35 40 -35 70 -3 28 30 16 54 -16 31z"/>
<path d="M1263 8339 c-6 -6 -21 -16 -34 -23 -28 -14 -26 -30 4 -34 17 -2 29 5
41 24 19 27 9 53 -11 33z"/>
<path d="M2362 8328 c-6 -6 -26 -12 -44 -12 -32 -1 -54 -26 -22 -26 10 0 26
-8 37 -17 18 -17 20 -16 47 17 16 19 26 38 24 42 -7 12 -28 10 -42 -4z"/>
<path d="M2526 8333 c-4 -4 -15 -8 -23 -8 -22 0 -28 -24 -8 -31 20 -8 65 15
65 33 0 14 -22 18 -34 6z"/>
<path d="M1790 8235 c-7 -9 -19 -14 -27 -11 -20 8 -28 -23 -11 -40 12 -12 18
-11 46 14 18 16 32 34 32 40 0 17 -25 15 -40 -3z"/>
<path d="M1345 8121 c-3 -6 -22 -18 -41 -26 -42 -17 -44 -35 -4 -35 17 0 33
-1 37 -2 14 -5 36 53 25 64 -6 6 -12 6 -17 -1z"/>
<path d="M1524 8086 c-9 -15 -23 -25 -30 -22 -19 7 -44 -4 -44 -19 0 -13 56
-29 71 -19 5 3 16 19 25 36 21 41 3 61 -22 24z"/>
<path d="M1406 7568 c-14 -13 -26 -32 -28 -43 -4 -27 28 -32 37 -6 4 15 15 21
35 21 36 0 49 19 25 37 -26 18 -40 16 -69 -9z"/>
<path d="M1170 7523 c-51 -8 -176 -56 -206 -79 -17 -12 -66 -61 -108 -108 -61
-67 -84 -102 -112 -168 -86 -205 -63 -390 71 -566 26 -34 67 -76 92 -93 52
-36 123 -51 123 -26 0 16 -20 27 -51 27 -25 0 -89 58 -146 133 -44 59 -67 114
-93 226 -28 119 22 306 104 388 17 17 45 49 61 71 71 93 263 182 363 167 26
-3 55 -8 65 -11 32 -10 17 17 -18 32 -33 13 -90 16 -145 7z"/>
<path d="M1054 6458 c-4 -6 3 -20 17 -31 26 -21 36 -9 19 22 -12 23 -25 27
-36 9z"/>
<path d="M4190 6231 c-62 -23 -90 -39 -122 -69 -30 -28 -34 -42 -17 -59 8 -8
22 1 52 31 57 57 133 81 225 71 117 -12 181 -76 201 -201 9 -62 8 -73 -10
-112 -14 -28 -34 -49 -58 -62 -50 -26 -91 -67 -91 -90 0 -28 36 -26 55 4 19
28 88 65 135 71 65 9 150 -6 180 -31 16 -14 41 -24 59 -24 55 0 90 -26 117
-86 26 -59 31 -126 13 -184 -5 -19 -12 -42 -14 -51 -2 -10 -16 -36 -30 -60
-15 -23 -28 -49 -29 -57 -2 -8 -21 -22 -44 -31 -23 -9 -50 -24 -59 -34 -16
-15 -16 -18 -2 -33 14 -14 17 -13 31 8 23 35 89 54 139 41 22 -6 42 -7 45 -2
8 14 -45 42 -71 37 -31 -6 -31 -4 3 41 61 77 75 123 70 226 -3 82 -7 99 -34
141 -30 49 -91 93 -129 94 -11 0 -42 12 -70 26 -39 20 -62 25 -105 22 l-55 -3
2 48 c3 51 -25 175 -51 225 -21 41 -92 100 -135 112 -53 15 -150 11 -201 -9z"/>
<path d="M4679 5123 c-15 -39 5 -99 43 -135 28 -26 58 -37 58 -22 0 4 -16 24
-35 45 -35 39 -47 90 -25 104 18 11 11 35 -10 35 -13 0 -24 -10 -31 -27z"/>
<path d="M4787 4916 c-76 -21 -129 -84 -120 -143 6 -37 23 -45 23 -12 0 63 83
132 159 133 53 1 122 -29 129 -56 7 -28 22 -21 22 10 0 23 -8 31 -48 50 -62
30 -106 34 -165 18z"/>
<path d="M4601 4684 c-25 -31 -28 -92 -7 -132 22 -43 57 -69 117 -89 31 -11
71 -32 90 -47 30 -26 38 -28 86 -22 30 3 54 2 58 -4 3 -5 16 -8 28 -6 16 2 23
11 25 33 3 28 1 30 -30 28 -18 -1 -51 -7 -74 -14 -68 -22 -109 13 -63 53 16
13 18 21 10 29 -8 8 -19 7 -40 -6 -54 -32 -128 -14 -166 39 -25 37 -23 108 5
131 25 22 25 33 1 33 -11 0 -29 -12 -40 -26z"/>
<path d="M4550 4365 c0 -8 7 -15 15 -15 8 0 15 7 15 15 0 8 -7 15 -15 15 -8 0
-15 -7 -15 -15z"/>
<path d="M4460 4334 c-76 -64 -115 -154 -105 -239 9 -71 29 -67 32 6 2 30 5
68 8 86 6 36 63 109 106 136 16 11 29 23 29 28 0 18 -39 8 -70 -17z"/>
<path d="M518 1761 c-29 -26 -31 -30 -15 -37 20 -7 81 42 71 58 -9 14 -23 9
-56 -21z"/>
<path d="M4753 934 c-17 -7 -16 -36 1 -59 12 -17 17 -18 41 -7 21 10 26 18 23
40 -2 21 -9 27 -28 29 -14 1 -31 -1 -37 -3z"/>
<path d="M4462 475 c-80 -35 -50 -155 39 -155 17 0 41 -11 60 -28 27 -24 31
-32 24 -61 -8 -38 -41 -55 -91 -45 -31 6 -34 9 -34 41 0 30 -3 34 -22 31 -17
-2 -24 -13 -30 -42 -5 -22 -15 -47 -23 -56 -8 -9 -15 -19 -15 -22 0 -3 46 -6
102 -7 56 -1 105 -4 109 -7 15 -9 49 16 69 49 37 60 21 129 -41 181 -27 23
-38 26 -73 21 -53 -8 -72 9 -56 50 9 25 14 27 46 22 20 -4 44 -13 54 -22 30
-27 50 -19 50 20 l0 35 -54 0 c-30 0 -60 2 -68 5 -7 2 -28 -2 -46 -10z"/>
<path d="M1120 472 c-52 -4 -64 -10 -52 -25 6 -7 11 -77 11 -166 1 -98 6 -160
13 -168 8 -10 37 -13 112 -11 l101 3 3 54 c2 30 -1 58 -7 64 -16 16 -41 -11
-41 -45 0 -34 -17 -43 -65 -34 l-35 7 0 64 c0 58 2 65 20 65 10 0 24 -9 30
-21 16 -28 33 -19 41 21 12 57 -21 91 -51 55 -7 -8 -19 -15 -27 -15 -11 0 -13
13 -11 58 l3 57 43 3 c37 3 44 0 49 -17 11 -41 53 -12 53 36 0 16 -9 19 -77
18 -43 0 -94 -1 -113 -3z"/>
<path d="M2826 471 c-60 -7 -69 -24 -20 -37 37 -9 38 -11 66 -104 44 -146 58
-179 80 -191 27 -15 47 6 91 95 l34 68 50 -83 c72 -121 79 -120 138 33 26 68
51 135 57 149 5 15 20 31 34 37 36 17 29 29 -21 35 -64 9 -70 4 -71 -56 -1
-47 -40 -154 -58 -160 -3 -1 -24 30 -47 68 -38 65 -40 72 -27 95 7 14 24 30
36 36 19 9 3 12 -85 17 -59 3 -112 3 -116 0 -4 -2 4 -14 18 -25 27 -21 55 -68
55 -92 0 -21 -42 -116 -51 -116 -3 0 -14 26 -22 58 -35 126 -64 187 -87 180
-3 -1 -27 -4 -54 -7z"/>
<path d="M3503 471 c-76 -13 -122 -81 -123 -183 0 -52 3 -62 36 -97 42 -47
110 -76 155 -67 40 8 119 65 130 94 13 35 11 83 -7 138 -20 59 -37 80 -86 105
-40 20 -40 20 -105 10z m86 -64 c23 -11 26 -19 29 -69 4 -79 -18 -150 -50
-162 -59 -21 -94 13 -105 104 -4 35 0 59 17 99 22 50 25 53 53 47 16 -3 41
-12 56 -19z"/>
<path d="M3734 469 c-3 -6 -1 -15 6 -19 17 -10 25 -267 9 -286 -14 -17 3 -25
40 -18 42 9 51 29 51 113 0 99 23 94 56 -11 20 -65 54 -103 102 -111 37 -8 43
10 13 37 -25 22 -47 70 -59 123 -8 34 -7 45 7 60 10 10 26 31 35 45 17 27 17
28 -8 53 -24 24 -31 25 -135 25 -70 0 -112 -4 -117 -11z m164 -66 c3 -35 0
-42 -18 -48 -27 -8 -50 11 -50 40 0 42 11 56 39 53 23 -3 26 -8 29 -45z"/>
<path d="M4070 472 c0 -6 5 -12 11 -14 18 -6 15 -288 -2 -299 -49 -32 119 -36
196 -5 55 22 88 73 93 145 9 122 -48 170 -210 178 -55 3 -88 1 -88 -5z m143
-58 c40 -9 57 -40 57 -103 0 -91 -60 -168 -115 -147 -12 4 -15 28 -15 129 0
68 3 127 7 130 4 4 14 5 22 3 9 -3 28 -8 44 -12z"/>
<path d="M72 290 l3 -175 53 1 c60 2 70 7 53 28 -7 8 -11 37 -9 68 l3 53 43 6
c76 10 135 75 116 127 -17 48 -50 61 -162 64 l-102 3 2 -175z m152 134 c22
-21 20 -67 -3 -95 -38 -47 -61 16 -35 99 5 16 19 15 38 -4z"/>
<path d="M2610 460 c-114 -15 -156 -60 -120 -130 22 -43 47 -61 100 -70 34 -5
35 -7 35 -50 0 -45 0 -45 -38 -48 -46 -4 -71 15 -88 65 -8 27 -16 33 -32 31
-19 -3 -23 -12 -28 -63 -8 -70 -5 -79 27 -71 14 4 35 -1 56 -14 43 -26 101
-25 158 3 50 25 60 49 49 112 -11 59 -65 105 -124 105 -51 0 -61 12 -46 53 9
22 17 27 45 27 18 0 39 -7 46 -15 7 -8 23 -15 37 -15 22 0 24 3 21 43 -3 48
-8 49 -98 37z"/>
<path d="M400 450 c0 -5 6 -10 14 -10 8 0 17 -3 20 -8 5 -9 -34 -154 -63 -232
-33 -90 -27 -106 34 -94 27 5 33 9 25 19 -8 9 -6 32 6 79 16 65 17 66 50 66
38 0 40 -2 69 -89 l22 -66 63 -3 c35 -2 68 2 73 7 8 8 3 11 -15 11 -14 0 -30
6 -36 13 -15 18 -68 154 -87 222 -24 85 -35 95 -112 95 -35 0 -63 -4 -63 -10z
m101 -143 c-19 -19 -34 7 -25 45 l7 33 14 -34 c10 -24 11 -37 4 -44z"/>
<path d="M769 435 c-68 -44 -86 -126 -48 -214 28 -66 90 -101 177 -101 33 0
66 2 74 5 15 6 16 101 1 115 -4 5 -33 10 -63 12 -52 3 -55 2 -52 -19 6 -42
-26 -25 -44 23 -17 45 -17 49 2 103 18 53 21 56 57 59 31 3 37 0 37 -15 0 -21
18 -43 36 -43 16 0 26 70 12 87 -7 9 -34 13 -82 12 -57 0 -78 -5 -107 -24z"/>
<path d="M1871 424 c-21 -15 -23 -22 -16 -68 3 -28 11 -56 17 -63 6 -7 10 -38
10 -67 0 -62 -20 -99 -63 -122 -32 -16 -37 -35 -13 -58 24 -24 43 -19 80 21
41 45 68 121 60 169 -6 28 -4 35 11 40 10 3 29 10 43 16 24 9 24 10 6 23 -11
8 -30 12 -46 8 -24 -4 -31 -1 -45 27 -19 37 -15 46 15 30 29 -16 35 -7 19 29
-16 35 -42 40 -78 15z"/>
<path d="M1685 289 c-50 -29 -60 -81 -21 -120 71 -72 93 -82 128 -55 20 15 38
58 38 91 0 59 -94 113 -145 84z m86 -46 c19 -49 -22 -101 -57 -72 -11 9 -14
22 -9 48 9 46 12 51 36 51 12 0 23 -10 30 -27z"/>
<path d="M4803 174 c-6 -17 9 -51 21 -46 3 1 18 2 32 2 22 0 25 4 22 28 -2 22
-8 28 -36 30 -23 2 -34 -2 -39 -14z"/>
</g>
</svg>
