<?xml version="1.0" standalone="no"?>
<!DOCTYPE svg PUBLIC "-//W3C//DTD SVG 20010904//EN"
 "http://www.w3.org/TR/2001/REC-SVG-20010904/DTD/svg10.dtd">
<svg version="1.0" xmlns="http://www.w3.org/2000/svg"
 width="500.000000pt" height="878.000000pt" viewBox="0 0 500.000000 878.000000"
 preserveAspectRatio="xMidYMid meet">
<metadata>
Created by potrace 1.15, written by Peter Selinger 2001-2017
</metadata>
<g transform="translate(0.000000,878.000000) scale(0.100000,-0.100000)"
fill="#000000" stroke="none">
<path d="M854 8763 c3 -10 17 -76 31 -148 15 -71 29 -140 32 -152 5 -20 -4
-27 -80 -62 -68 -32 -91 -47 -110 -78 -33 -51 -47 -62 -120 -88 -59 -22 -62
-24 -67 -61 -3 -25 -12 -42 -25 -49 -12 -5 -44 -25 -71 -42 -74 -48 -102 -42
-45 10 20 17 28 32 24 46 -3 13 3 24 21 36 57 37 35 95 -35 95 -48 0 -139 -48
-195 -102 -36 -35 -44 -38 -63 -29 -17 10 -30 8 -64 -8 -48 -22 -93 -59 -84
-67 3 -4 21 3 40 15 38 23 67 27 84 10 14 -14 85 26 128 72 30 32 116 79 146
79 9 0 22 -6 28 -14 9 -11 6 -18 -19 -36 -17 -12 -30 -30 -30 -42 0 -11 -14
-36 -31 -55 -65 -75 -14 -106 87 -52 32 18 75 40 95 50 42 21 63 44 54 59 -15
24 7 49 58 66 66 22 100 47 124 91 14 27 33 42 81 64 35 16 67 27 71 24 18
-10 61 -205 77 -340 3 -27 14 -86 24 -130 25 -109 31 -162 16 -173 -26 -19
-116 -55 -123 -49 -3 4 -1 18 5 32 20 44 -12 41 -96 -7 -86 -49 -129 -68 -217
-93 -47 -13 -70 -28 -107 -66 -78 -80 -59 -95 58 -50 77 30 134 40 134 23 0
-5 -18 -17 -40 -27 -49 -22 -73 -47 -68 -72 2 -13 -18 -40 -60 -80 -39 -38
-62 -68 -62 -82 0 -16 -12 -27 -47 -42 -93 -40 -346 -208 -358 -238 -13 -32
15 -35 80 -8 74 31 123 35 132 11 8 -22 -19 -45 -112 -95 -44 -23 -91 -51
-104 -61 -13 -10 -30 -18 -37 -18 -8 0 -14 -7 -14 -16 0 -21 29 -11 115 41 39
23 88 51 110 63 51 25 88 65 83 88 -2 10 -17 26 -35 37 -32 18 -32 18 -86 -7
-55 -27 -93 -34 -82 -16 10 16 254 174 322 208 35 18 64 40 68 52 3 11 37 51
75 89 45 45 70 79 72 97 2 22 11 30 43 41 22 7 49 23 60 34 20 20 20 20 1 35
-26 19 -40 18 -135 -9 -58 -17 -81 -21 -81 -12 0 19 39 41 126 70 43 14 103
40 132 56 51 29 54 29 59 10 8 -32 29 -32 120 -1 48 17 90 27 94 23 4 -5 15
-46 24 -93 9 -47 28 -125 42 -175 19 -67 25 -111 24 -175 -1 -46 -5 -87 -9
-91 -4 -3 -45 -13 -92 -22 -89 -17 -128 -43 -114 -76 3 -9 13 -43 21 -76 25
-99 56 -115 149 -75 56 24 64 18 64 -51 0 -30 9 -63 25 -93 14 -26 25 -56 25
-66 0 -22 67 -61 115 -67 45 -5 55 -10 64 -35 5 -15 3 -37 -7 -65 -15 -41 -15
-45 6 -88 26 -53 65 -75 137 -75 55 0 81 12 115 53 l26 29 31 -26 c17 -14 35
-26 40 -26 5 0 36 -23 68 -51 51 -43 215 -149 231 -149 14 0 67 -48 84 -78 11
-18 35 -39 52 -47 38 -16 88 -75 88 -104 0 -11 8 -24 18 -30 14 -8 15 -10 2
-14 -8 -2 -37 -11 -64 -21 -27 -9 -51 -15 -53 -13 -2 2 6 15 17 30 26 33 25
45 -6 57 -40 16 -69 12 -162 -19 -48 -16 -107 -34 -132 -42 -25 -7 -85 -28
-135 -47 -137 -52 -182 -62 -197 -44 -11 12 -5 21 30 51 25 22 42 45 42 58 0
13 12 30 29 43 35 24 47 55 31 75 -17 20 -57 18 -105 -5 -22 -11 -44 -19 -48
-20 -4 0 -24 -11 -44 -25 -44 -29 -55 -25 -24 9 13 14 20 29 17 35 -12 19 -71
23 -111 7 -46 -20 -42 -20 -48 5 -4 17 -11 20 -29 16 -73 -17 -456 -203 -538
-262 -68 -49 -174 -105 -198 -105 -32 0 -30 49 3 80 30 29 32 53 4 71 -20 14
-18 16 45 69 69 58 82 92 38 98 -40 6 -149 -38 -214 -86 -100 -75 -134 -93
-160 -87 -42 10 -277 -118 -278 -152 0 -13 59 17 95 48 37 31 124 69 161 69
41 0 119 40 186 96 52 45 129 84 163 84 38 0 31 -15 -28 -59 -28 -22 -65 -50
-80 -62 -36 -27 -32 -55 6 -51 33 4 34 -4 3 -37 -15 -16 -26 -41 -28 -66 l-3
-40 50 1 c64 0 125 29 265 124 69 47 235 130 338 170 42 17 87 36 99 42 24 12
58 4 48 -12 -13 -21 28 -22 65 -1 36 20 80 28 80 14 0 -3 -8 -15 -17 -25 -13
-15 -15 -23 -7 -36 18 -28 36 -25 108 19 37 22 82 45 99 50 41 12 56 -4 27
-28 -42 -34 -50 -44 -57 -71 -3 -15 -27 -46 -52 -69 -45 -42 -45 -43 -26 -58
32 -25 99 -16 255 35 202 66 323 100 361 100 l33 0 -33 -34 c-63 -65 -23 -93
83 -56 86 29 96 27 139 -30 28 -38 53 -57 110 -85 41 -19 81 -35 90 -35 24 0
30 18 13 42 -22 31 -21 52 2 43 58 -24 107 -27 159 -10 51 18 55 18 115 0 35
-10 86 -31 114 -47 28 -15 58 -28 67 -28 8 0 24 -15 36 -32 77 -122 106 -151
164 -169 21 -7 48 -26 63 -46 17 -23 38 -36 69 -44 25 -6 45 -16 45 -22 0 -6
-15 -26 -32 -44 -27 -28 -31 -36 -21 -52 10 -16 4 -26 -51 -74 -34 -30 -89
-68 -121 -85 -51 -25 -68 -29 -112 -25 -47 5 -53 8 -53 29 0 34 -14 37 -69 17
-28 -9 -54 -14 -58 -9 -8 8 35 45 53 46 22 0 64 42 64 64 0 12 7 32 16 45 20
28 6 48 -23 33 -11 -6 -54 -20 -97 -31 -59 -16 -82 -27 -102 -51 -20 -23 -34
-30 -62 -30 -35 0 -88 -25 -119 -56 -8 -8 -24 -19 -36 -25 -15 -7 -12 -1 11
20 38 36 52 68 52 119 0 52 21 77 77 91 52 14 106 50 124 83 7 12 18 44 25 71
7 27 22 56 34 64 11 8 18 19 15 24 -14 21 -50 7 -89 -35 -38 -41 -45 -44 -108
-50 -37 -4 -88 -15 -114 -26 -25 -11 -59 -20 -75 -20 -23 0 -44 -15 -94 -65
-36 -35 -65 -70 -65 -78 0 -19 -30 -58 -41 -52 -5 4 -1 22 10 43 10 20 22 51
25 68 4 18 16 40 27 50 21 19 25 44 7 44 -41 -1 -105 -25 -159 -60 -34 -22
-68 -40 -75 -40 -7 0 -26 -11 -43 -25 -24 -21 -47 -28 -115 -35 -78 -9 -146
-31 -188 -62 -27 -19 -32 -2 -9 28 25 32 26 47 5 65 -13 10 -20 10 -44 -4 -15
-9 -36 -17 -45 -17 -14 0 -14 3 4 26 27 34 36 86 21 115 -12 21 -9 26 34 62
66 56 62 69 -21 63 -183 -14 -203 -23 -203 -95 0 -42 -4 -51 -45 -89 -25 -23
-53 -42 -63 -42 -11 0 -27 -8 -36 -19 -9 -10 -37 -24 -62 -31 -25 -7 -54 -24
-64 -38 -24 -29 -26 -95 -6 -134 18 -35 11 -41 -27 -22 -37 20 -85 13 -135
-18 -64 -41 -207 -98 -211 -86 -2 7 1 14 7 16 20 6 101 74 106 89 4 9 -2 25
-11 36 -28 31 -134 19 -248 -27 -49 -20 -140 -55 -202 -76 -62 -22 -152 -58
-200 -81 -76 -34 -86 -42 -72 -52 15 -11 13 -16 -22 -45 -44 -37 -48 -47 -19
-55 34 -9 23 -21 -58 -61 -96 -49 -172 -95 -172 -107 0 -14 298 141 305 159 3
10 0 21 -9 28 -25 18 -19 28 26 49 34 16 42 25 41 42 -3 30 17 42 157 93 63
22 159 57 213 77 110 40 189 52 212 33 8 -7 15 -16 15 -20 0 -4 -27 -24 -61
-45 -66 -41 -87 -72 -61 -92 9 -7 26 -13 38 -13 27 0 152 57 218 99 95 60 103
31 10 -34 -102 -72 -229 -134 -305 -150 -71 -15 -151 -61 -182 -104 -6 -10
-43 -35 -82 -56 -95 -51 -205 -125 -206 -139 -1 -6 0 -19 1 -29 1 -9 -8 -33
-20 -52 l-21 -34 21 -38 c11 -21 20 -46 20 -56 0 -36 19 -55 62 -62 26 -5 52
-17 66 -33 21 -22 29 -24 74 -19 l50 6 -6 -38 c-4 -29 -1 -44 12 -62 16 -19
23 -21 49 -12 19 7 35 7 47 1 52 -29 119 -25 188 13 13 7 20 4 29 -14 6 -12
20 -29 31 -38 20 -16 20 -16 -6 -61 -14 -25 -31 -71 -37 -103 -10 -53 -9 -60
9 -78 20 -20 20 -20 57 2 44 25 97 27 162 4 103 -36 389 0 699 88 56 16 107
29 113 29 5 0 21 -11 35 -25 14 -14 31 -25 39 -25 28 0 86 -89 150 -231 23
-51 24 -61 16 -139 -4 -46 -16 -99 -25 -116 -16 -29 -16 -39 -4 -91 14 -62 16
-158 7 -287 -5 -75 -8 -82 -63 -169 -96 -148 -106 -161 -179 -228 -95 -88
-124 -107 -242 -168 -124 -64 -223 -127 -243 -155 -8 -11 -49 -56 -92 -99 -43
-43 -85 -92 -94 -109 -20 -39 -274 -294 -366 -368 -38 -29 -68 -57 -68 -62 0
-20 -77 -40 -151 -40 -92 1 -169 -18 -214 -52 -18 -14 -41 -26 -51 -26 -18 0
-19 -7 16 140 11 47 31 130 44 185 13 55 44 161 70 235 70 206 76 226 76 254
0 20 6 27 28 32 58 14 70 55 28 92 -29 24 -25 49 15 121 20 34 29 41 55 41 18
0 38 8 48 19 10 11 28 21 40 23 26 4 26 19 0 33 -11 6 -30 20 -42 33 -19 19
-20 23 -7 29 10 3 27 -4 43 -19 15 -13 40 -30 55 -36 l28 -12 -28 -24 c-26
-23 -27 -26 -11 -42 11 -12 46 -20 111 -27 81 -8 99 -8 127 7 18 9 43 16 56
16 25 0 57 27 48 41 -3 5 -17 8 -32 7 -25 -2 -72 16 -72 27 0 3 6 14 12 26 11
17 10 22 -7 35 -11 8 -35 19 -55 24 -19 6 -46 19 -59 29 l-24 19 88 41 c93 43
135 50 155 26 7 -8 18 -15 24 -15 6 0 20 -9 29 -21 12 -13 24 -18 35 -14 38
15 80 15 126 1 45 -14 96 -9 96 10 0 3 -23 29 -50 57 -53 54 -59 67 -35 87 10
8 13 24 9 53 -8 57 18 82 76 74 33 -4 42 -2 51 15 6 11 9 21 7 22 -15 12 -144
31 -236 34 l-112 3 6 27 c9 35 9 35 33 22 24 -12 65 3 58 23 -5 17 -95 46
-144 47 -24 0 -43 4 -43 8 0 14 45 52 61 52 16 0 39 19 39 32 0 18 -59 29
-142 29 l-88 -1 0 36 c0 35 0 35 38 29 20 -3 56 -11 79 -17 50 -12 105 3 136
38 27 31 61 31 89 -1 26 -30 73 -34 87 -6 14 25 -18 67 -57 76 -15 3 -32 15
-37 28 -13 29 -53 35 -166 27 -117 -9 -179 -27 -189 -54 -6 -17 -14 -20 -49
-17 -50 3 -55 -16 -11 -42 28 -17 29 -20 15 -40 -8 -12 -15 -33 -15 -48 0 -23
-5 -28 -37 -33 -21 -4 -50 -12 -66 -18 -22 -8 -31 -8 -45 4 -9 9 -30 18 -47
21 -38 7 -147 -15 -152 -30 -7 -20 62 -43 98 -33 28 8 34 5 73 -33 65 -64 65
-72 -1 -103 -56 -25 -86 -51 -76 -67 3 -4 14 -7 26 -5 15 2 24 -4 31 -23 12
-36 2 -59 -27 -59 -36 0 -39 -10 -12 -42 28 -33 26 -68 -7 -104 -21 -23 -98
-232 -91 -249 2 -6 -6 -37 -17 -70 -11 -32 -20 -65 -20 -74 0 -8 -12 -25 -27
-38 l-28 -23 24 -19 c23 -18 24 -21 10 -52 -7 -19 -14 -50 -15 -69 -2 -19 -14
-66 -28 -105 -14 -38 -26 -87 -26 -107 0 -32 -3 -37 -30 -43 -16 -4 -32 -11
-36 -16 -9 -15 6 -49 21 -49 8 0 16 -4 19 -9 6 -8 -35 -136 -81 -259 -13 -35
-26 -75 -28 -90 -6 -51 -28 -127 -41 -149 -10 -15 -24 -23 -42 -23 -37 1 -232
-53 -232 -64 0 -12 104 2 145 20 39 16 91 19 100 5 3 -6 17 -6 36 1 16 6 43 8
60 4 40 -8 75 10 99 51 11 19 35 40 53 48 42 17 194 28 203 14 3 -6 -29 -44
-72 -86 -74 -72 -80 -75 -139 -84 -73 -10 -142 -38 -169 -68 -11 -11 -24 -21
-30 -21 -6 0 -38 -14 -71 -30 -33 -16 -67 -30 -76 -30 -9 0 -29 -10 -44 -21
-15 -12 -41 -25 -58 -28 -22 -5 -33 -13 -35 -28 -3 -17 1 -20 16 -16 48 12
216 -159 254 -260 19 -49 17 -87 -4 -87 -6 0 -19 -7 -28 -15 -16 -15 -20 -12
-49 33 -17 27 -31 53 -31 59 0 6 -7 16 -15 23 -24 20 -19 -8 10 -55 44 -71 29
-82 -21 -16 -25 34 -50 61 -55 61 -18 0 -8 -26 26 -69 44 -55 47 -96 9 -113
-24 -11 -29 -10 -48 15 -22 28 -46 36 -46 16 0 -6 11 -20 25 -31 31 -24 31
-32 3 -58 l-22 -20 30 0 c19 0 50 15 89 45 33 25 74 49 92 54 55 16 103 59
103 94 0 35 59 97 93 97 12 0 39 -11 60 -25 29 -20 41 -24 56 -15 11 5 29 10
40 10 33 0 190 150 235 224 16 26 52 65 80 86 28 22 64 49 80 61 33 26 184
119 206 127 8 3 29 16 46 29 58 44 134 61 226 52 100 -9 144 -24 225 -76 34
-22 83 -46 109 -52 49 -13 109 -62 101 -84 -5 -14 -58 -13 -135 5 -48 10 -54
10 -75 -9 -12 -11 -32 -24 -45 -28 -25 -7 -29 -36 -8 -54 8 -7 48 -12 92 -12
82 -1 214 -30 249 -54 11 -8 36 -28 55 -45 l35 -31 -51 5 c-41 5 -56 3 -74
-12 l-24 -19 22 -18 c20 -18 121 -60 168 -72 17 -4 28 5 51 39 25 37 34 43 59
40 28 -3 44 -3 162 0 42 1 80 -7 142 -29 47 -17 97 -33 111 -37 41 -9 79 -44
79 -72 0 -30 50 -84 77 -84 10 0 65 -16 123 -36 65 -22 147 -41 215 -50 127
-16 198 -29 223 -43 57 -30 418 -37 583 -11 68 11 96 11 140 1 29 -6 97 -18
149 -27 52 -8 120 -19 151 -24 30 -6 89 -10 130 -11 64 -1 69 -2 39 -10 -26
-7 -854 -5 -1175 3 -5 0 -179 -5 -385 -10 -206 -6 -445 -9 -530 -7 -308 7
-2407 7 -2428 1 -12 -4 -22 -14 -22 -22 0 -12 329 -14 2468 -13 1357 0 2482 3
2500 6 27 5 32 9 32 34 0 24 -4 29 -25 29 -14 0 -25 5 -25 10 0 6 11 10 25 10
l25 0 0 154 c0 114 -3 156 -12 159 -10 4 -10 6 0 6 19 1 14 49 -8 71 -12 12
-31 20 -43 19 -43 -4 -77 1 -77 11 0 7 13 8 35 4 28 -5 35 -3 35 10 0 12 -9
16 -35 16 -52 0 -42 17 15 25 63 9 65 23 3 27 -61 4 -62 21 -3 29 45 5 40 15
-10 21 -30 4 -34 31 -5 36 58 8 65 13 65 37 0 29 -23 43 -82 51 -54 8 -66 -4
-70 -71 l-3 -50 -51 -11 c-61 -13 -74 -20 -74 -39 0 -15 21 -22 74 -27 50 -5
41 -25 -13 -33 -92 -13 -93 -54 -2 -63 34 -3 51 -9 51 -18 0 -8 -10 -14 -25
-14 -41 0 -348 29 -396 38 -50 9 -178 7 -227 -3 -23 -5 -40 -2 -59 10 -32 21
-161 55 -212 55 -24 0 -75 -19 -156 -59 -113 -57 -126 -61 -230 -72 -60 -6
-222 -13 -360 -15 -291 -4 -238 -15 -602 125 -132 51 -186 61 -225 40 -15 -8
-28 -7 -51 2 -18 8 -40 12 -50 11 -10 -2 -37 11 -60 28 -23 17 -57 40 -74 51
-21 12 -33 27 -33 40 0 12 -16 47 -35 79 -36 59 -55 72 -168 117 -23 9 -65 32
-94 50 -28 18 -76 42 -105 54 -29 11 -55 22 -57 25 -2 2 31 20 74 39 88 40
109 55 204 141 164 149 362 247 551 274 31 4 77 17 101 28 61 27 224 82 243
82 13 0 15 -4 6 -19 -5 -11 -10 -38 -10 -60 0 -38 -3 -42 -42 -62 -52 -26
-214 -193 -258 -266 -39 -64 -35 -88 12 -78 18 4 47 20 65 35 33 29 186 110
208 110 7 0 18 -7 25 -15 8 -9 29 -15 56 -15 24 0 69 -7 101 -15 105 -27 203
-13 203 29 0 8 8 24 18 36 18 23 19 23 48 4 16 -10 41 -28 56 -40 36 -29 140
-41 173 -20 30 19 47 50 54 95 5 30 15 40 66 70 50 29 73 36 137 41 76 5 107
18 94 39 -10 16 -72 13 -86 -4 -7 -8 -23 -15 -37 -15 -36 0 -114 -19 -146 -36
-24 -14 -28 -14 -33 1 -9 22 14 45 45 45 14 0 46 6 70 13 57 18 30 30 -37 17
-69 -13 -79 0 -62 82 15 78 39 125 90 179 34 36 44 41 69 36 17 -4 33 -2 36 3
9 15 113 41 138 35 13 -4 47 1 76 10 36 12 69 16 114 12 64 -6 85 -10 247 -45
159 -34 389 -44 499 -21 25 5 71 13 102 18 31 5 79 17 107 27 l52 19 0 92 c0
86 -9 116 -24 77 -4 -11 -13 -14 -29 -10 -36 9 -54 -13 -59 -72 -3 -31 -12
-60 -23 -72 -21 -23 -44 -28 -25 -5 6 8 12 36 13 62 2 43 0 48 -18 45 -60 -10
-76 -16 -85 -32 -9 -17 -13 -17 -39 -4 l-28 14 19 68 c34 118 35 121 78 350
12 62 13 63 40 57 33 -7 53 17 43 53 -5 22 10 31 22 12 10 -16 35 -12 42 6 4
11 -1 22 -12 30 -18 13 -18 15 7 41 14 16 38 53 52 84 l26 56 0 812 0 813 -40
55 c-22 31 -40 66 -40 77 0 13 16 33 40 50 l40 30 0 848 c0 466 -3 848 -6 848
-3 0 -53 -23 -110 -51 -142 -69 -208 -79 -512 -73 -180 3 -241 8 -262 19 -43
22 -121 18 -194 -9 l-64 -24 -38 41 c-102 109 -99 104 -83 133 8 15 14 45 14
67 0 37 5 44 45 73 25 18 60 45 78 60 19 15 50 36 70 47 20 11 54 34 74 52 25
21 57 36 95 44 116 24 189 43 236 62 26 10 57 19 68 19 25 0 131 53 148 74 8
9 19 16 25 16 7 0 43 15 82 33 38 19 85 40 104 47 58 22 90 49 90 76 0 18 10
29 43 44 44 22 102 93 93 115 -5 15 -18 14 -61 -5 -16 -7 -34 -12 -39 -11 -4
1 -29 -5 -55 -13 -58 -18 -149 -28 -156 -16 -3 4 9 34 26 66 20 38 28 66 24
81 -3 15 2 33 16 53 30 39 39 137 15 146 -12 5 -32 -9 -69 -47 -198 -203 -282
-268 -380 -293 -15 -3 -39 -17 -55 -31 -72 -63 -100 -84 -132 -97 -19 -8 -68
-37 -109 -64 -40 -27 -94 -62 -120 -77 -98 -61 -238 -225 -279 -329 -11 -27
-22 -39 -42 -43 -32 -7 -56 -31 -62 -60 -2 -14 -15 -21 -48 -27 -51 -9 -66 3
-90 71 -21 60 -26 62 -114 60 -45 0 -93 4 -107 9 -21 8 -31 7 -45 -3 -11 -8
-32 -15 -49 -15 -16 0 -82 -9 -145 -19 -135 -23 -142 -29 -136 -113 5 -66 10
-62 -104 -73 -36 -3 -83 -8 -105 -11 l-40 -6 55 34 c63 38 72 68 30 100 -23
17 -29 17 -80 4 -30 -8 -63 -18 -74 -22 -14 -5 -17 -3 -14 7 7 23 111 102 183
139 92 48 147 96 143 126 -2 15 8 34 30 57 64 66 14 92 -110 58 -44 -12 -82
-20 -85 -18 -15 16 114 85 227 122 65 21 236 104 283 136 17 13 56 45 86 71
55 51 159 105 339 177 128 51 194 84 212 106 12 15 12 19 -5 31 -18 14 -18 14
1 29 10 8 24 15 30 15 5 0 23 13 38 29 42 44 28 55 -61 47 -73 -7 -74 -7 -71
16 6 40 47 56 306 123 56 14 146 30 200 35 170 14 315 40 344 61 37 26 47 24
123 -16 36 -19 81 -37 101 -41 42 -8 179 22 196 43 15 18 -9 17 -67 -3 -74
-25 -116 -20 -205 21 -98 46 -163 53 -168 18 -2 -14 -12 -25 -25 -27 -102 -19
-160 -28 -207 -31 -215 -16 -318 -36 -516 -99 -66 -21 -87 -33 -108 -61 -19
-25 -25 -42 -21 -56 7 -20 13 -21 71 -16 35 2 64 1 64 -3 0 -4 -22 -21 -50
-38 -48 -30 -62 -53 -40 -67 22 -14 7 -34 -37 -51 -77 -28 -232 -93 -288 -121
-123 -62 -152 -80 -199 -122 -92 -84 -245 -161 -426 -216 -92 -28 -210 -110
-210 -146 0 -30 15 -30 110 1 95 31 144 38 138 19 -2 -6 -17 -18 -33 -27 -108
-59 -126 -82 -64 -82 48 0 31 -18 -70 -76 -52 -30 -125 -79 -163 -110 -75 -60
-100 -96 -80 -116 12 -12 17 -11 155 38 38 13 51 14 60 5 15 -15 -14 -41 -83
-76 -54 -27 -77 -66 -54 -89 8 -8 20 -13 27 -11 140 46 274 60 309 33 9 -8 21
-53 32 -123 10 -60 24 -129 32 -152 18 -50 13 -63 -25 -63 -16 0 -46 -12 -67
-26 -34 -23 -45 -26 -93 -20 -63 8 -81 19 -78 49 1 17 -4 23 -24 25 -14 2 -31
-4 -39 -12 -18 -23 -45 -19 -63 8 -11 16 -45 34 -104 55 -48 18 -92 36 -98 40
-22 18 -203 74 -219 68 -44 -17 0 -48 119 -83 74 -22 221 -89 255 -115 l33
-27 -29 -51 c-24 -42 -27 -53 -15 -60 21 -14 34 -5 76 50 23 31 42 46 47 41 6
-6 -4 -27 -26 -57 -40 -52 -43 -63 -21 -72 10 -3 37 15 75 51 51 49 63 56 87
50 41 -10 44 -13 31 -37 -6 -12 -17 -49 -24 -82 -13 -62 -5 -119 26 -186 9
-19 9 -32 2 -45 -8 -15 -5 -29 16 -66 15 -26 23 -50 19 -54 -6 -6 -52 14 -138
62 -11 7 -26 17 -32 23 -17 17 -40 13 -69 -14 -36 -33 -43 -61 -24 -90 17 -26
21 -61 8 -69 -11 -6 -22 2 -55 42 -32 40 -36 98 -10 143 17 29 15 39 -9 43
-48 7 -51 44 -3 44 24 0 38 -6 49 -23 17 -25 64 -41 79 -26 6 6 4 24 -7 51
-14 36 -15 44 -1 76 11 26 12 41 4 56 -16 30 -41 17 -72 -37 l-28 -50 5 71 c5
56 3 74 -9 84 -19 16 -34 5 -51 -37 -8 -18 -25 -38 -38 -43 -35 -13 -39 -27
-16 -50 26 -26 25 -30 -4 -30 -42 0 -72 17 -85 48 -12 28 -61 61 -202 134 -25
13 -63 38 -84 55 -37 31 -38 34 -25 58 18 33 6 43 -21 19 -22 -19 -22 -19 -16
7 8 33 -10 71 -54 109 -31 28 -32 31 -18 57 7 16 15 31 17 36 7 14 -21 7 -40
-10 -10 -9 -21 -13 -26 -9 -9 10 44 56 64 56 8 0 37 -11 65 -25 27 -14 66 -27
87 -28 59 -3 46 23 -30 63 -38 20 -73 41 -80 48 -7 7 -20 12 -29 12 -31 0 -81
53 -109 114 -34 74 -73 113 -125 124 -23 4 -41 14 -43 23 -2 12 18 19 95 33
54 10 108 19 120 22 38 7 46 37 28 102 -30 103 -64 119 -184 86 -57 -16 -59
-16 -89 6 -41 30 -78 109 -97 205 -9 44 -27 112 -40 150 -13 39 -29 97 -35
130 -7 33 -19 80 -27 105 -8 25 -19 73 -24 107 -5 34 -15 77 -23 95 -24 55
-121 378 -114 382 140 85 184 104 201 87 6 -6 7 -11 3 -11 -5 0 -3 -7 4 -15
16 -19 37 -19 97 1 29 9 61 29 79 50 21 23 49 39 85 50 30 9 70 28 89 43 19
15 78 42 130 60 52 18 109 41 125 49 l30 17 -28 3 c-16 2 -34 -1 -40 -6 -7 -5
-49 -22 -95 -37 -45 -15 -108 -44 -140 -64 -33 -22 -81 -43 -115 -50 -46 -10
-61 -18 -70 -38 -11 -25 -79 -67 -91 -56 -3 4 -6 16 -6 29 0 42 -42 36 -169
-24 -42 -20 -80 -36 -85 -36 -5 -1 -20 40 -33 89 -13 50 -30 114 -38 143 l-16
52 -105 0 c-96 0 -105 -2 -100 -17z m187 -89 c15 -49 37 -134 49 -189 12 -55
46 -174 75 -265 29 -91 68 -228 86 -305 18 -77 48 -198 66 -270 68 -258 75
-286 69 -301 -7 -17 -40 -18 -54 -1 -12 15 -38 87 -59 166 -8 31 -26 99 -39
151 -14 52 -29 118 -34 145 -5 28 -14 75 -20 105 -6 30 -18 91 -26 135 -9 44
-33 131 -54 195 -82 251 -135 488 -115 520 15 24 31 0 56 -86z m-112 67 c6
-10 10 -34 9 -52 0 -19 7 -51 16 -73 9 -21 16 -46 16 -56 0 -10 9 -46 21 -81
11 -35 26 -93 34 -129 7 -36 25 -96 39 -133 14 -38 33 -103 41 -144 9 -42 18
-79 20 -83 2 -4 7 -29 10 -56 12 -100 59 -323 104 -492 29 -111 29 -112 9
-123 -14 -8 -23 -8 -31 0 -12 12 -62 196 -82 302 -8 42 -21 105 -29 140 -8 35
-25 116 -36 179 -12 63 -29 144 -37 180 -8 36 -16 74 -18 86 -9 60 -28 141
-37 158 -10 18 -42 176 -58 281 -4 28 -11 65 -15 83 -8 36 7 45 24 13z m479
-1469 c4 -27 -6 -28 -24 -4 -13 16 -15 16 -25 -1 -5 -9 -15 -15 -20 -12 -13 9
-1 25 25 35 29 12 40 7 44 -18z m2842 3 c-19 -7 -46 -13 -60 -13 -20 0 -21 1
-5 5 11 3 23 8 27 11 4 4 22 8 40 9 l33 1 -35 -13z m-143 -31 c-3 -3 -12 -4
-19 -1 -8 3 -5 6 6 6 11 1 17 -2 13 -5z m-2682 -33 c-16 -14 -55 -23 -55 -12
0 9 20 17 50 20 8 1 10 -2 5 -8z m242 -23 c14 -19 24 -50 14 -44 -9 6 -67 -20
-76 -34 -3 -5 -12 -7 -21 -3 -8 3 -22 -1 -32 -10 -15 -13 -99 -37 -237 -67
-22 -5 -60 -13 -85 -19 -94 -21 -91 -21 -100 4 -7 18 -18 24 -46 27 -61 5 -53
25 13 34 31 4 71 13 88 20 35 14 208 52 300 65 33 5 83 15 110 22 28 8 53 15
56 16 4 0 11 -5 16 -11z m1680 -271 c37 -60 79 -118 99 -133 19 -15 34 -34 34
-43 0 -10 11 -28 25 -41 32 -30 24 -39 -11 -11 -30 24 -54 27 -72 9 -9 -9 -17
-9 -36 1 -19 11 -30 11 -59 0 -45 -16 -78 -1 -106 47 -19 32 -211 168 -304
215 -53 28 -39 39 67 52 l85 11 62 -62 c34 -34 69 -62 77 -62 9 0 24 -8 34
-17 33 -30 41 -2 18 58 -12 30 -26 58 -31 64 -17 17 -9 26 23 23 29 -3 38 -13
95 -111z m-1881 92 c11 -18 -14 -35 -28 -20 -11 10 -10 11 5 6 19 -8 24 10 5
18 -10 4 -10 6 -1 6 6 1 15 -4 19 -10z m2152 -70 c-9 -5 -15 -16 -12 -24 3 -8
-5 -21 -20 -30 -33 -22 -33 -33 2 -42 l27 -7 -25 -6 c-14 -3 -25 -12 -25 -19
0 -10 51 -42 114 -71 21 -9 26 -30 7 -30 -27 0 -28 -20 -1 -52 20 -23 24 -33
14 -36 -8 -2 -20 -5 -26 -7 -9 -3 -6 -18 12 -52 13 -27 26 -73 30 -103 5 -53
5 -54 -7 -20 -7 20 -21 36 -32 38 -17 4 -18 -1 -12 -45 4 -26 16 -65 27 -86
22 -43 23 -42 -66 -52 -63 -6 -82 -16 -70 -35 5 -8 29 -10 79 -6 l71 6 -65
-19 c-79 -23 -227 -35 -262 -22 -27 10 -72 76 -63 92 12 19 25 8 25 -20 0 -36
15 -43 108 -46 68 -3 72 -2 78 20 3 13 14 31 25 41 23 20 25 57 5 74 -8 6 -16
23 -18 37 -4 32 -29 49 -54 38 -11 -5 -37 -9 -59 -9 -31 -1 -42 -6 -52 -26
-19 -39 -34 -30 -58 33 -20 56 -28 66 -77 114 -30 28 -106 62 -140 63 -39 0
-63 11 -47 21 7 4 20 4 30 -1 12 -7 22 -4 34 10 16 18 19 18 30 4 10 -15 13
-15 29 1 9 10 18 16 20 14 1 -2 10 -16 19 -31 12 -20 26 -28 54 -30 34 -3 38
-6 44 -38 9 -43 36 -65 89 -74 70 -11 157 26 191 82 29 45 18 102 -27 152 -19
21 -34 42 -34 48 0 6 -16 27 -35 48 -19 20 -35 41 -35 45 0 5 16 9 35 9 28 0
40 8 72 45 34 41 39 44 53 29 13 -14 13 -16 -2 -25z m-2298 10 c0 -11 -46 -23
-65 -16 -8 4 -17 2 -20 -3 -4 -6 -11 -10 -17 -10 -7 0 -6 6 2 15 7 8 23 15 36
15 12 0 25 4 29 10 7 11 35 2 35 -11z m245 11 c3 -5 14 -10 23 -10 18 0 62
-80 62 -112 0 -9 5 -18 11 -20 15 -5 18 -39 6 -65 -11 -25 -41 -31 -53 -11 -5
8 -1 9 12 5 17 -6 17 -5 -2 10 -12 10 -30 23 -40 30 -17 10 -17 13 -4 22 10 8
12 13 4 19 -6 4 -14 20 -18 35 -7 31 -37 47 -76 41 -57 -9 -63 -9 -66 1 -4 10
99 63 123 64 6 1 15 -3 18 -9z m-220 -80 c3 -6 0 -12 -7 -14 -7 -1 -34 -10
-60 -19 -31 -10 -50 -12 -54 -6 -8 14 -4 17 47 33 55 18 66 18 74 6z m35 -58
c0 -4 -15 -12 -34 -18 -27 -8 -33 -8 -29 2 7 18 63 32 63 16z m113 -24 c3 -18
10 -52 16 -76 6 -24 9 -47 6 -51 -2 -5 -20 6 -39 23 -31 28 -33 32 -18 44 16
12 16 15 -1 43 -19 34 -15 49 12 49 13 0 20 -10 24 -32z m-196 -3 c0 -8 -4
-12 -9 -9 -5 3 -6 10 -3 15 9 13 12 11 12 -6z m420 -39 c10 -10 -17 -25 -33
-19 -7 2 -10 11 -8 18 6 14 28 14 41 1z m-112 -56 c3 -5 1 -10 -4 -10 -6 0
-11 5 -11 10 0 6 2 10 4 10 3 0 8 -4 11 -10z m1425 -44 c0 -3 -4 -8 -10 -11
-5 -3 -10 -1 -10 4 0 6 5 11 10 11 6 0 10 -2 10 -4z m-60 -51 c-7 -9 -15 -13
-17 -11 -7 7 7 26 19 26 6 0 6 -6 -2 -15z m459 -19 c13 -7 20 -16 15 -18 -13
-8 -54 9 -54 22 0 13 10 12 39 -4z m-1845 -31 c24 -36 20 -70 -11 -95 -37 -29
-72 -23 -100 19 -28 41 -28 42 -2 75 28 36 89 37 113 1z m1351 -17 c-10 -31
-25 -47 -25 -26 0 24 11 48 22 48 5 0 6 -10 3 -22z m47 -42 c-10 -21 -18 -28
-20 -19 -2 8 4 23 14 34 24 27 26 24 6 -15z m190 -56 c16 -87 60 -245 74 -264
9 -13 25 -19 50 -18 20 1 49 -5 64 -13 16 -8 35 -12 43 -9 8 3 40 -2 71 -11
31 -9 60 -14 65 -11 15 10 72 -6 78 -21 4 -9 -8 -28 -31 -49 -20 -18 -36 -37
-36 -43 0 -5 -10 -13 -22 -17 -13 -3 -35 -15 -49 -25 -40 -28 -96 -15 -121 28
-18 29 -25 33 -61 33 -26 0 -59 -10 -86 -25 -61 -35 -77 -33 -89 13 -9 35 -7
39 27 69 l36 32 -22 22 c-16 17 -32 22 -62 21 -30 -1 -41 2 -41 12 0 8 5 18
10 21 6 4 8 11 5 16 -10 15 -42 10 -49 -7 -3 -8 -11 -12 -17 -8 -12 7 -6 93 9
135 l9 22 25 -27 c19 -22 32 -27 59 -24 32 3 34 5 34 43 0 33 -4 42 -27 53
-35 16 -36 30 -3 38 30 7 31 12 8 30 -16 12 -16 15 -3 24 28 19 44 6 52 -40z
m-275 -55 c-9 -39 -19 -60 -28 -60 -22 0 -23 45 -1 68 11 12 24 38 28 57 6 24
9 29 11 15 2 -11 -2 -47 -10 -80z m398 -5 c5 -22 4 -30 -4 -26 -12 8 -31 71
-31 101 1 25 24 -25 35 -75z m532 -22 c15 -16 22 -28 16 -28 -14 0 -73 67 -73
83 0 7 -3 23 -5 37 -3 14 4 5 15 -20 12 -25 33 -57 47 -72z m-809 48 c-5 -33
-23 -24 -26 13 -3 31 -2 33 13 21 9 -7 15 -23 13 -34z m102 -77 c0 -6 -4 -7
-10 -4 -5 3 -10 11 -10 16 0 6 5 7 10 4 6 -3 10 -11 10 -16z m650 0 c0 -5 -4
-9 -10 -9 -5 0 -10 7 -10 16 0 8 5 12 10 9 6 -3 10 -10 10 -16z m245 -29 c3
-5 2 -10 -4 -10 -5 0 -13 5 -16 10 -3 6 -2 10 4 10 5 0 13 -4 16 -10z m-167
-25 c-2 -1 -25 -5 -53 -8 -50 -6 -50 -6 -15 7 28 10 80 11 68 1z m39 9 c-3 -3
-12 -4 -19 -1 -8 3 -5 6 6 6 11 1 17 -2 13 -5z m482 -166 c13 -10 31 -18 41
-18 18 0 51 -32 70 -68 10 -20 9 -27 -9 -46 -24 -26 -26 -46 -8 -97 18 -53 35
-69 71 -69 45 0 76 -25 76 -60 0 -41 -27 -54 -71 -32 -23 12 -36 27 -43 50 -9
34 -15 35 -58 17 -28 -11 -34 22 -9 43 l21 17 -26 90 c-31 109 -51 140 -84
130 -23 -7 -23 -9 -4 -100 7 -29 4 -27 -55 28 -49 47 -66 58 -88 55 -47 -5
-41 -35 18 -89 58 -54 60 -74 4 -39 -38 23 -85 21 -85 -4 0 -23 46 -64 84 -75
20 -5 57 -21 81 -36 43 -25 45 -28 45 -71 0 -25 5 -54 10 -65 8 -15 7 -19 -4
-19 -8 0 -19 8 -24 17 -9 15 -18 14 -107 -15 l-97 -33 -55 38 c-63 43 -89 74
-99 117 -6 27 -5 28 18 23 34 -9 54 13 39 42 -14 26 -14 64 0 78 15 15 3 33
-22 33 -23 0 -24 4 -3 35 18 28 159 121 212 140 47 16 129 8 161 -17z m-1249
-18 c0 -5 -5 -10 -11 -10 -5 0 -7 5 -4 10 3 6 8 10 11 10 2 0 4 -4 4 -10z
m831 -240 l-10 -25 0 27 c-1 14 2 35 6 45 7 17 8 17 11 -2 1 -12 -2 -32 -7
-45z m-1361 5 c13 -14 21 -27 18 -30 -8 -8 -71 28 -76 43 -7 22 34 13 58 -13z
m235 -5 c9 -15 -15 -12 -31 4 -8 8 -14 17 -14 21 0 8 37 -13 45 -25z m725 -79
c0 -5 -9 -11 -20 -14 -11 -3 -20 -1 -20 3 0 5 8 11 18 13 9 3 18 5 20 6 1 0 2
-3 2 -8z m880 -52 c7 -17 23 -37 34 -44 29 -19 106 -22 145 -5 31 13 33 12 77
-31 24 -24 44 -48 44 -55 0 -14 -59 -40 -120 -54 -65 -14 -77 -12 -83 11 -4
15 -11 20 -21 15 -9 -3 -23 -9 -31 -12 -26 -11 -16 15 15 38 40 29 38 43 -7
61 -45 18 -69 42 -78 80 -10 37 9 35 25 -4z m-625 -16 c30 -33 32 -59 6 -66
-31 -8 -45 8 -38 42 5 23 2 33 -11 40 -16 10 -16 10 0 11 9 0 29 -12 43 -27z
m-363 -80 c53 -52 58 -63 28 -63 -38 0 -80 30 -95 66 -19 45 -19 44 2 44 10 0
39 -21 65 -47z m478 17 c13 -8 13 -10 -2 -10 -9 0 -20 5 -23 10 -8 13 5 13 25
0z m362 -42 c-15 -15 -26 -4 -18 18 5 13 9 15 18 6 9 -9 9 -15 0 -24z m-522
-9 c0 -26 19 -33 39 -15 21 19 86 21 121 3 26 -13 87 -103 77 -113 -3 -4 -12
6 -19 22 -17 42 -38 64 -60 64 -24 0 -23 -23 6 -73 13 -23 27 -52 30 -63 6
-20 2 -22 -40 -26 -35 -2 -56 2 -86 19 -22 13 -47 23 -55 23 -13 0 -13 3 -3
15 10 12 10 18 0 30 -7 8 -16 30 -19 48 -5 25 -14 34 -39 42 l-32 11 21 21
c24 24 59 20 59 -8z m-2077 -25 c3 -4 0 -19 -8 -34 -13 -24 -12 -33 2 -69 16
-41 16 -43 -5 -63 -12 -12 -41 -31 -64 -42 -50 -25 -75 -65 -58 -96 14 -26 22
-26 93 11 56 28 59 29 54 9 -3 -13 2 -27 14 -39 19 -18 18 -18 -43 -25 -34 -3
-78 -14 -98 -25 -26 -13 -49 -17 -90 -13 -38 3 -68 -1 -95 -12 -39 -17 -40
-16 -57 5 -24 28 -23 81 2 110 l19 24 1 -30 c0 -63 41 -71 115 -22 51 33 55
44 40 95 -6 18 1 30 40 66 43 39 48 49 49 87 1 36 5 46 26 56 27 14 53 17 63
7z m1905 -12 c2 -7 -5 -12 -17 -12 -14 0 -19 5 -14 15 6 17 25 15 31 -3z
m1279 -14 c34 -33 43 -74 21 -96 -9 -9 -9 -18 0 -37 15 -32 26 -194 17 -247
-5 -28 -12 -38 -25 -38 -24 0 -106 -35 -114 -49 -4 -6 0 -21 8 -33 7 -13 17
-33 21 -45 6 -21 3 -23 -37 -23 -51 0 -68 13 -68 53 0 15 -4 36 -9 45 -4 9
-11 45 -14 80 -5 61 -5 63 13 47 26 -23 60 -4 60 33 0 15 3 37 6 48 8 31 -45
88 -82 89 -43 0 -41 19 2 28 35 7 41 4 75 -29 41 -40 69 -40 69 0 0 16 -13 36
-39 58 l-39 33 46 58 c26 31 49 57 52 57 2 0 19 -14 37 -32z m-1502 -3 c27
-23 28 -26 14 -41 -13 -13 -21 -14 -38 -5 -30 17 -47 51 -30 62 19 12 20 12
54 -16z m879 -21 c41 -18 56 -31 54 -42 -4 -18 -8 -18 -71 -7 -38 6 -75 44
-62 65 9 14 16 13 79 -16z m-1489 -24 c14 -23 -23 -56 -81 -72 -82 -23 -114
-58 -123 -137 -8 -68 -27 -95 -98 -137 -50 -29 -58 -63 -21 -88 51 -36 112
-12 191 74 43 46 50 50 93 50 43 0 51 4 88 45 41 45 86 61 86 31 0 -18 -19
-38 -64 -66 -55 -33 -57 -79 -5 -95 10 -4 19 -13 19 -20 0 -30 36 -36 90 -15
88 35 79 19 -21 -39 -65 -38 -75 -41 -120 -35 -27 4 -52 11 -55 15 -3 5 -23 6
-45 3 -23 -4 -44 -2 -52 5 -14 11 -133 19 -345 23 -86 2 -126 6 -134 15 -7 9
-48 13 -144 13 -74 0 -134 4 -134 9 0 5 6 14 14 20 17 15 46 95 46 129 0 26
-3 26 -82 6 -46 -11 -32 12 20 34 27 11 83 22 132 26 73 5 96 12 163 47 44 22
81 38 84 36 2 -3 -5 -23 -17 -46 -16 -32 -26 -41 -46 -41 -39 0 -74 -28 -74
-60 0 -63 56 -64 177 -4 74 36 103 64 103 97 0 42 69 116 109 117 13 0 40 10
60 22 29 18 96 36 173 47 4 1 10 -4 13 -9z m1937 -5 c0 -5 -5 -11 -11 -13 -6
-2 -11 4 -11 13 0 9 5 15 11 13 6 -2 11 -8 11 -13z m-1217 -5 c3 -5 -1 -10 -9
-10 -9 0 -19 0 -23 -1 -4 0 -9 4 -11 10 -5 14 35 14 43 1z m1172 -16 c9 -25
-11 -38 -38 -24 -22 12 -22 13 -4 26 24 18 34 18 42 -2z m-905 -36 c-5 -5 -25
-11 -43 -14 -19 -2 -44 -6 -56 -10 -27 -7 -32 12 -8 30 19 14 121 8 107 -6z
m788 11 c0 -19 -21 -49 -34 -49 -8 0 -19 7 -26 15 -10 12 -10 18 0 30 14 17
60 20 60 4z m-990 -23 c0 -3 -4 -8 -10 -11 -5 -3 -10 -1 -10 4 0 6 5 11 10 11
6 0 10 -2 10 -4z m560 -6 c0 -5 -9 -14 -20 -20 -15 -8 -20 -8 -20 3 0 8 3 17
7 20 10 10 33 8 33 -3z m247 -56 c18 -20 30 -24 49 -20 34 9 63 -10 81 -52 8
-20 24 -49 34 -64 34 -47 22 -68 -48 -81 -26 -5 -35 -2 -43 12 -6 13 -17 17
-30 14 -14 -4 -20 0 -20 12 0 14 -6 16 -32 11 -38 -7 -58 -29 -58 -63 0 -13
-3 -23 -7 -23 -5 0 -6 27 -5 59 3 40 -1 67 -11 83 -8 12 -18 46 -22 75 -7 51
-6 52 22 56 57 8 66 6 90 -19z m-626 4 c1 -7 1 -17 0 -23 -1 -5 5 -2 13 9 19
24 57 15 71 -16 7 -17 17 -22 35 -20 75 10 200 10 194 1 -4 -7 6 -8 28 -4 19
4 54 2 76 -5 33 -8 42 -15 42 -33 0 -18 -2 -19 -10 -7 -7 11 -8 6 -5 -15 2
-17 4 -34 5 -40 0 -5 6 -1 13 10 11 18 13 15 17 -25 6 -53 -8 -211 -20 -223
-4 -5 -17 -6 -29 -2 -17 5 -19 9 -9 31 6 13 15 24 20 24 5 0 1 11 -8 25 -9 14
-12 25 -6 25 8 0 8 9 0 30 -5 17 -8 42 -6 55 6 27 -20 43 -46 28 -14 -8 -16
-12 -16 -34 0 -5 -4 -8 -9 -5 -5 4 -21 2 -35 -4 -24 -9 -26 -7 -26 15 0 23
-13 31 -42 26 -5 0 -8 3 -8 8 0 6 -11 22 -25 37 -20 22 -30 25 -56 20 -24 -4
-30 -3 -26 7 3 8 1 20 -3 27 -13 21 -67 -6 -75 -38 -4 -16 -9 -22 -14 -14 -10
17 -81 -4 -81 -24 0 -9 -9 -18 -21 -21 -11 -3 -18 -11 -16 -17 3 -6 -2 -17 -9
-24 -11 -10 -16 -8 -25 10 -7 13 -16 26 -22 29 -9 7 -92 -35 -102 -52 -4 -5
-10 -9 -16 -9 -15 0 -11 26 7 41 16 13 12 54 -6 73 -12 12 -80 -21 -80 -38 0
-8 -8 -20 -17 -27 -14 -12 -16 -12 -8 0 5 10 4 12 -3 7 -7 -4 -12 -14 -12 -22
0 -8 -7 -14 -15 -14 -29 0 -18 49 15 68 30 17 39 34 42 78 2 15 7 20 17 16 9
-3 12 -1 7 6 -4 7 -3 12 3 12 5 0 17 3 27 7 13 5 16 3 11 -10 -9 -23 4 -28 33
-10 14 8 17 12 8 9 -10 -3 -20 -1 -23 4 -4 6 9 10 27 10 19 0 39 5 46 12 6 6
44 15 84 18 40 4 76 8 81 9 4 0 8 -5 8 -11z m-2263 -51 c2 -10 -4 -20 -13 -23
-21 -9 -28 0 -20 26 8 24 28 22 33 -3z m3146 -9 c28 -25 40 -88 19 -95 -13 -5
-73 78 -73 101 0 23 25 20 54 -6z m-2744 -123 c0 -4 -7 -19 -14 -34 -18 -35
-43 -51 -127 -85 -50 -20 -72 -24 -94 -17 -17 4 -36 6 -43 4 -17 -7 -42 16
-42 37 0 10 20 31 47 49 40 27 56 31 117 32 39 1 85 5 101 9 39 10 55 11 55 5z
m-420 -66 c0 -6 9 -22 20 -36 21 -27 26 -43 13 -43 -14 0 -64 70 -58 80 8 13
25 13 25 -1z m2115 -39 c-3 -5 -10 -10 -16 -10 -5 0 -9 5 -9 10 0 6 7 10 16
10 8 0 12 -4 9 -10z m-2207 -21 c40 -20 72 -60 72 -92 0 -7 11 -24 25 -37 21
-19 25 -32 23 -69 l-3 -46 -105 -63 c-156 -93 -264 -146 -282 -139 -9 3 -33
39 -54 79 -24 45 -61 95 -96 130 l-58 56 42 24 c57 31 138 62 145 54 4 -3 1
-18 -6 -32 -22 -48 9 -61 161 -68 85 -4 116 10 80 36 -10 7 -31 32 -47 56 -30
46 -57 58 -111 49 -62 -10 -28 32 51 62 64 24 112 24 163 0z m1876 -21 c-17
-18 -43 -50 -58 -71 -22 -30 -31 -36 -41 -27 -18 15 -87 -22 -106 -56 -7 -13
-16 -24 -21 -24 -19 0 -5 21 48 71 31 30 76 73 101 97 33 31 52 42 75 42 l32
0 -30 -32z m1406 22 c0 -5 -4 -10 -10 -10 -5 0 -10 5 -10 10 0 6 5 10 10 10 6
0 10 -4 10 -10z m-1230 -25 c14 -8 37 -14 51 -15 14 0 33 -6 43 -13 16 -12 17
-18 5 -58 -20 -72 -21 -72 -145 -49 -60 12 -113 25 -118 30 -11 11 80 108 107
113 12 2 24 5 27 5 3 1 16 -5 30 -13z m496 -47 c49 -23 96 -47 104 -54 8 -6
47 -28 85 -49 39 -20 78 -44 89 -53 28 -26 48 -72 42 -96 -6 -25 -75 -116 -87
-116 -19 0 -8 48 16 70 30 29 29 60 -2 76 -13 6 -31 18 -41 27 -40 37 -180
128 -237 156 -34 16 -67 36 -74 44 -14 18 -63 13 -96 -10 -22 -15 -74 -18 -59
-3 5 5 29 20 54 34 58 33 92 29 206 -26z m-2080 20 c8 -13 -68 -88 -90 -88
-22 0 -28 29 -8 45 56 46 68 54 79 55 6 0 15 -5 19 -12z m272 -10 c50 -19 82
-22 257 -25 350 -7 399 -10 403 -22 2 -6 -8 -15 -23 -21 -15 -6 -53 -25 -84
-43 -162 -95 -855 -369 -895 -354 -17 7 -57 148 -61 215 l-4 58 75 65 c80 69
215 149 252 149 12 0 48 -10 80 -22z m-398 8 c0 -11 -19 -15 -25 -6 -3 5 1 10
9 10 9 0 16 -2 16 -4z m1341 -26 c-13 -11 -28 -20 -35 -20 -6 0 0 9 14 20 33
26 52 25 21 0z m1844 0 c3 -5 1 -10 -4 -10 -6 0 -11 5 -11 10 0 6 2 10 4 10 3
0 8 -4 11 -10z m-3717 -45 c0 -20 -6 -25 -24 -25 -28 0 -31 17 -6 36 25 19 30
17 30 -11z m1662 -6 c-95 -61 -203 -117 -352 -183 -20 -9 -40 -21 -43 -26 -3
-6 -13 -10 -21 -10 -9 0 -46 -15 -82 -33 -37 -19 -83 -36 -102 -39 -34 -6
-292 -104 -355 -135 -81 -40 -359 -125 -382 -116 -8 3 -33 -2 -56 -10 -23 -8
-80 -20 -127 -26 -140 -18 -160 -18 -160 -4 0 7 12 13 27 13 88 0 442 84 663
157 217 71 224 74 445 167 149 64 266 117 419 192 119 59 164 78 126 53z
m2084 -7 c2 -4 -9 -22 -25 -40 -33 -36 -47 -26 -30 21 10 26 43 37 55 19z
m-613 -34 c21 -17 39 -39 39 -49 0 -10 5 -21 11 -25 6 -4 8 -20 5 -38 -5 -26
-1 -37 19 -56 14 -13 25 -32 25 -42 0 -23 -4 -23 -40 3 -28 21 -30 21 -55 5
-35 -23 -41 -15 -21 28 27 58 16 105 -38 155 -58 54 -10 71 55 19z m124 -20
c0 -40 2 -43 28 -43 34 1 34 -8 1 -34 -34 -26 -44 -26 -44 0 0 11 -5 29 -11
40 -12 24 -2 79 14 79 7 0 12 -17 12 -42z m-1500 16 c0 -10 -63 -66 -213 -187
-80 -65 -212 -151 -327 -212 -158 -84 -166 -88 -315 -138 -74 -25 -152 -52
-172 -61 -46 -20 -58 -20 -58 -1 0 19 -31 35 -69 35 -16 0 -33 5 -36 11 -12
19 5 58 28 65 12 4 45 18 72 31 52 25 103 46 320 133 163 65 468 201 559 249
38 20 92 48 120 63 52 27 91 32 91 12z m192 -19 c-4 -8 -14 -15 -23 -15 -16 0
-16 2 1 20 20 22 31 20 22 -5z m-2248 -63 c50 -48 78 -85 96 -127 15 -33 33
-72 40 -86 11 -20 11 -29 3 -37 -20 -20 -25 -15 -58 49 -17 33 -47 86 -68 117
-40 60 -67 76 -162 91 l-45 7 36 16 c20 9 40 21 43 27 15 24 49 8 115 -57z
m2496 49 c153 -19 191 -28 233 -58 46 -31 48 -42 32 -153 -16 -113 -73 -261
-151 -393 -42 -70 -277 -318 -375 -396 -199 -156 -442 -298 -579 -337 -66 -19
-169 -36 -225 -38 l-45 -1 1 35 c0 19 7 57 14 83 11 38 12 52 2 67 -7 11 -12
26 -12 34 0 8 -12 52 -26 98 -37 118 -147 277 -182 263 -8 -3 -12 0 -10 7 3 7
16 16 29 20 181 50 463 176 562 251 62 47 83 65 295 245 109 93 204 198 237
262 18 36 4 35 200 11z m1155 9 c0 -5 -4 -10 -10 -10 -5 0 -10 5 -10 10 0 6 5
10 10 10 6 0 10 -4 10 -10z m156 -43 c35 -24 56 -50 81 -99 34 -66 61 -88 107
-88 22 0 93 -66 83 -76 -25 -25 -202 92 -252 167 -29 44 -67 53 -85 19 -9 -16
-6 -24 16 -42 72 -62 72 -76 -1 -68 -78 9 -139 107 -105 170 13 24 57 49 86
50 12 0 43 -15 70 -33z m254 23 c0 -5 -4 -10 -10 -10 -5 0 -10 5 -10 10 0 6 5
10 10 10 6 0 10 -4 10 -10z m-1970 -13 c0 -2 -16 -20 -35 -40 -41 -42 -44 -69
-11 -102 21 -21 22 -26 10 -36 -12 -10 -18 -8 -29 8 -12 17 -22 19 -65 15 -27
-2 -50 -1 -50 4 0 10 81 83 139 126 39 28 41 30 41 25z m1957 -52 c-2 -5 -10
-11 -18 -12 -22 -4 -43 13 -36 30 5 13 10 14 31 4 14 -7 24 -16 23 -22z
m-3407 -5 c0 -5 -9 -14 -19 -20 -11 -5 -26 -17 -35 -25 -8 -9 -59 -45 -113
-80 -102 -66 -146 -97 -220 -152 -30 -23 -54 -33 -79 -33 -43 0 -42 19 2 33
35 12 134 84 134 97 0 10 61 53 110 78 14 7 61 35 105 62 77 47 115 61 115 40z
m1498 -7 c-24 -49 -32 -63 -40 -63 -14 0 -9 33 9 52 16 18 38 25 31 11z
m-2265 -22 c38 -17 54 -34 106 -112 34 -51 61 -98 61 -104 0 -6 5 -16 12 -23
9 -9 9 -18 0 -37 -7 -15 -10 -31 -7 -36 12 -18 -22 -8 -41 12 -10 11 -27 25
-36 30 -23 12 -98 -5 -173 -40 -110 -51 -133 -56 -164 -33 -19 14 -32 17 -42
11 -27 -17 -45 -9 -57 24 -20 57 -17 65 34 73 38 5 51 3 75 -15 38 -28 59 -15
59 38 0 49 -22 78 -70 92 -22 7 -40 15 -40 19 0 4 40 24 88 44 49 21 102 46
118 57 16 10 30 19 31 19 1 0 22 -9 46 -19z m883 -8 c-10 -10 -19 5 -10 18 6
11 8 11 12 0 2 -7 1 -15 -2 -18z m3350 -27 c8 -33 -3 -51 -22 -35 -22 18 -17
59 7 59 5 0 11 -11 15 -24z m-3426 -18 c6 -18 13 -72 16 -120 5 -85 5 -88 -18
-97 -48 -19 -245 -56 -350 -66 -40 -4 -49 -2 -58 16 -8 14 -8 24 -1 33 6 7 83
61 170 121 88 59 168 116 177 126 26 29 50 24 64 -13z m110 -139 c0 -21 -4
-41 -10 -44 -6 -4 -10 6 -10 23 0 16 -3 45 -6 63 -5 32 -5 33 10 15 9 -11 16
-37 16 -57z m2087 44 c30 -34 29 -54 -3 -84 -36 -34 -55 -75 -48 -103 4 -17 0
-28 -17 -39 -14 -11 -20 -22 -16 -36 3 -14 -1 -21 -17 -25 -28 -8 -56 -48 -63
-91 -8 -50 17 -75 73 -75 24 0 46 -4 49 -10 10 -16 -14 -86 -36 -106 -17 -14
-23 -16 -26 -6 -11 31 -47 52 -89 52 -36 0 -46 -5 -66 -30 -13 -17 -38 -46
-55 -65 -38 -40 -40 -50 -13 -65 27 -15 25 -52 -5 -84 -28 -30 -51 -30 -48 0
1 10 -6 24 -15 31 -16 12 -14 15 13 38 l30 25 -32 0 c-68 0 -98 -98 -42 -139
15 -11 40 -21 56 -21 15 0 41 -1 58 -1 21 -1 37 8 57 30 43 48 31 85 -14 44
-23 -20 -24 -5 -1 26 13 20 14 27 4 44 -9 14 -10 22 -2 30 6 6 11 23 11 38 0
15 9 37 19 50 16 19 23 22 37 13 10 -6 22 -24 26 -40 7 -24 4 -33 -18 -52 -25
-22 -25 -42 2 -42 22 0 17 -28 -8 -41 -20 -11 -21 -12 -2 -22 10 -5 20 -11 22
-12 1 -1 -3 -16 -9 -34 -9 -27 -8 -35 6 -51 17 -19 17 -22 1 -63 -9 -24 -23
-52 -30 -63 -14 -18 -15 -18 -25 9 -17 43 -13 57 15 67 38 15 27 42 -19 52
-45 9 -69 -1 -92 -40 -16 -26 -68 -70 -124 -103 -21 -13 -27 -24 -29 -62 -2
-25 3 -57 10 -69 14 -25 21 -98 9 -98 -4 0 -16 9 -26 20 -24 26 -47 25 -98 -4
-34 -19 -54 -23 -104 -20 -44 2 -65 -2 -74 -12 -6 -8 -25 -14 -41 -14 -44 0
-178 -67 -178 -89 0 -10 -11 -23 -25 -29 -31 -14 -32 -26 -4 -46 27 -18 15
-40 -18 -32 -18 5 -31 0 -53 -23 -17 -16 -30 -38 -30 -48 0 -11 -5 -24 -12
-31 -9 -9 -18 -6 -40 15 -38 36 -37 54 2 47 21 -5 31 -2 36 9 7 20 -13 57 -31
57 -9 0 -23 5 -34 11 -26 17 -97 3 -81 -15 6 -8 10 -27 10 -42 -1 -16 0 -38 2
-49 2 -15 -4 -20 -34 -26 -21 -3 -47 -14 -58 -24 -16 -14 -20 -15 -24 -4 -13
41 -13 78 0 114 12 36 12 41 -3 53 -22 16 -33 15 -53 -3 -16 -14 -18 -12 -33
27 -9 24 -17 80 -19 126 l-3 82 45 1 c25 0 56 2 70 4 46 6 185 45 212 60 14 8
35 15 46 15 10 0 31 9 45 20 14 11 31 20 39 20 7 0 38 15 69 34 31 19 72 41
92 51 19 9 43 25 53 36 9 10 22 19 27 19 5 0 28 15 51 33 23 19 51 39 62 45
32 17 157 124 194 165 17 20 37 37 44 37 6 0 19 12 28 28 9 15 32 44 52 64 20
20 36 42 36 47 0 6 9 15 19 21 47 25 211 286 211 335 0 8 4 23 9 33 19 35 51
112 51 122 0 17 13 11 37 -17z m-1076 -14 c-24 -20 -41 -24 -41 -11 0 10 53
42 60 35 3 -2 -6 -13 -19 -24z m186 15 c1 -5 -10 -18 -26 -29 -16 -11 -59 -46
-97 -77 -58 -50 -175 -128 -190 -128 -13 0 11 78 31 99 21 22 24 22 47 7 29
-19 55 -13 64 16 20 65 157 155 171 112z m1618 7 c3 -5 1 -12 -5 -16 -5 -3
-10 1 -10 9 0 18 6 21 15 7z m-364 -123 c-6 -18 -21 -44 -32 -58 l-21 -25 6
35 c7 36 49 106 54 90 2 -5 -1 -24 -7 -42z m729 46 c0 -11 -34 -33 -49 -34
-11 0 -10 5 4 20 17 19 45 27 45 14z m-2318 -37 c-42 -45 -46 -117 -7 -117 22
0 18 -17 -7 -34 -28 -20 -48 -20 -48 -1 0 20 -26 32 -93 40 l-57 7 87 50 c49
28 97 57 108 64 31 22 41 16 17 -9z m1794 -24 c42 -45 44 -69 7 -76 -16 -3
-38 -8 -50 -12 -32 -10 -31 20 2 41 43 28 27 60 -27 56 -27 -2 -36 7 -21 21
18 18 57 5 89 -30z m494 -18 c-7 -8 -17 -12 -23 -8 -6 4 -3 11 8 19 23 17 32
10 15 -11z m120 4 c0 -16 -4 -19 -20 -14 -12 4 -28 1 -36 -6 -16 -13 -30 -6
-19 11 8 12 42 28 63 29 6 1 12 -8 12 -20z m-1120 -61 c0 -29 -25 -61 -44 -55
-6 2 -12 22 -14 44 -2 33 1 41 20 50 27 12 38 1 38 -39z m-2860 12 c0 -5 -4
-10 -10 -10 -5 0 -10 5 -10 10 0 6 5 10 10 10 6 0 10 -4 10 -10z m130 -21 c0
-10 -4 -19 -9 -19 -4 0 -25 -11 -45 -25 -46 -31 -47 -12 -1 38 36 39 55 41 55
6z m-375 11 c-3 -5 -13 -10 -21 -10 -8 0 -12 5 -9 10 3 6 13 10 21 10 8 0 12
-4 9 -10z m3908 -38 c9 -21 17 -50 16 -63 0 -19 -6 -13 -25 26 -13 28 -24 56
-24 63 0 24 16 11 33 -26z m-3873 -2 c-19 -10 -37 -16 -40 -13 -9 8 33 33 54
33 16 -1 13 -5 -14 -20z m-120 0 c0 -12 -28 -25 -36 -17 -9 9 6 27 22 27 8 0
14 -5 14 -10z m4291 -18 c-10 -19 -48 -39 -56 -30 -13 13 10 47 34 50 34 4 35
4 22 -20z m-4030 2 c11 -14 10 -18 -9 -33 -12 -9 -30 -32 -40 -51 -13 -28 -22
-34 -42 -32 -42 4 -50 10 -50 37 0 31 -29 34 -55 5 -23 -25 -35 -25 -35 -1 0
19 27 34 85 47 17 4 48 15 70 25 49 23 59 23 76 3z m779 1 c0 -8 -9 -24 -20
-35 -24 -24 -50 -26 -50 -5 0 8 9 24 20 35 24 24 50 26 50 5z m2688 3 c7 -7
12 -26 12 -43 0 -46 25 -121 55 -167 15 -22 24 -42 22 -45 -11 -10 -87 39
-114 74 -40 50 -49 71 -52 114 -4 55 46 98 77 67z m-2128 -8 c0 -5 -3 -10 -7
-10 -5 0 -19 -3 -33 -6 l-25 -5 25 15 c30 18 40 20 40 6z m2750 -49 c0 -21 5
-52 11 -69 17 -48 7 -61 -24 -30 -21 21 -27 37 -27 68 0 46 16 84 31 75 5 -4
9 -23 9 -44z m-3486 33 c31 -12 16 -24 -29 -24 -25 0 -45 4 -45 9 0 17 45 26
74 15z m2357 -17 c-13 -13 -26 -3 -16 12 3 6 11 8 17 5 6 -4 6 -10 -1 -17z
m-1821 -68 l-60 -61 -81 7 c-77 7 -80 8 -53 20 28 13 192 78 224 88 31 11 28
5 -30 -54z m354 46 c-2 -14 -147 -76 -157 -66 -15 15 4 39 46 60 42 21 113 25
111 6z m-1135 -20 c30 -14 60 -24 67 -21 7 3 34 -2 61 -10 45 -14 76 -14 171
3 18 3 32 1 32 -5 0 -15 -175 -25 -309 -17 -114 7 -119 8 -124 31 -9 49 24 55
102 19z m2551 -19 c0 -5 -7 -18 -16 -28 -16 -17 -18 -17 -30 0 -12 16 -14 16
-42 -1 -29 -17 -30 -17 -25 3 4 15 0 20 -16 20 -32 0 -25 13 17 31 33 14 41
14 74 0 21 -9 38 -20 38 -25z m-2765 -10 c17 -13 26 -28 22 -32 -10 -10 -36 6
-55 34 -19 29 -4 28 33 -2z m3828 -44 c12 -5 30 -13 40 -16 29 -9 20 -27 -10
-20 -47 11 -92 62 -77 86 5 8 11 3 16 -13 5 -15 19 -31 31 -37z m-703 33 c16
-19 0 -19 -26 0 -16 12 -16 14 -3 15 9 0 22 -7 29 -15z m-2014 -20 c24 -19 16
-25 -81 -61 -38 -14 -90 -34 -115 -44 -79 -32 -242 -72 -252 -62 -12 12 56 64
85 64 12 1 48 -1 79 -3 43 -2 61 1 76 14 10 9 31 17 47 17 19 0 43 14 76 45
54 50 57 51 85 30z m-426 -45 c-8 -5 -26 -9 -40 -9 -23 1 -23 2 5 9 43 11 52
11 35 0z m2090 2 c0 -5 -7 -17 -15 -28 -14 -18 -14 -17 -4 9 12 27 19 34 19
19z m218 -23 l38 -31 -31 -33 c-48 -51 -64 -56 -99 -31 -17 11 -33 22 -36 24
-2 2 15 21 38 42 23 22 42 44 42 50 0 16 9 12 48 -21z m-2738 -8 c18 -8 97 -6
210 4 l85 8 -44 -34 c-23 -19 -50 -46 -59 -61 -15 -26 -15 -28 3 -42 18 -13
17 -14 -11 -19 -109 -21 -232 -25 -262 -8 -16 10 -16 10 1 11 9 0 17 4 17 10
0 17 43 50 66 50 14 0 31 -12 44 -30 29 -41 56 -39 75 7 14 33 14 38 -1 54
-20 22 -43 26 -195 34 -115 6 -117 5 -148 -20 -17 -15 -34 -40 -39 -57 -9 -37
-52 -60 -52 -28 0 37 30 95 60 116 27 19 41 20 133 16 56 -2 109 -7 117 -11z
m3343 -23 c-10 -11 -19 -15 -21 -8 -5 15 18 41 30 34 5 -3 1 -15 -9 -26z
m-390 4 c22 -25 17 -28 -37 -24 -51 4 -58 13 -23 30 32 15 42 14 60 -6z m307
0 c0 -12 -3 -12 -15 -2 -8 7 -15 13 -15 15 0 1 7 2 15 2 8 0 15 -7 15 -15z
m-2922 -67 c13 -29 11 -31 -53 -39 l-50 -7 40 35 c22 19 43 35 46 36 3 0 11
-11 17 -25z m3221 6 c54 -54 61 -118 10 -91 -20 11 -45 15 -130 19 -9 1 -19
10 -22 21 -4 15 -12 19 -41 17 -19 -1 -34 3 -33 8 1 6 17 8 35 7 18 -2 39 2
47 8 10 9 19 8 36 -1 20 -10 25 -9 38 9 20 27 36 27 60 3z m-3677 -25 l16 -34
-41 5 c-69 8 -72 10 -45 38 31 33 50 31 70 -9z m3329 7 c13 -16 12 -17 -3 -4
-10 7 -18 15 -18 17 0 8 8 3 21 -13z m-303 -19 c34 -7 28 -34 -8 -34 -37 0
-50 -25 -24 -46 11 -8 15 -17 9 -20 -37 -17 -40 -24 -18 -43 l23 -19 -30 -11
c-49 -16 -36 -35 41 -60 83 -27 86 -36 7 -19 -55 12 -88 7 -88 -12 0 -6 12
-15 28 -20 57 -21 102 -43 102 -51 0 -4 -16 -1 -35 7 -51 21 -135 17 -135 -6
0 -5 15 -12 33 -15 30 -7 107 -42 107 -49 0 -1 -24 2 -54 7 -54 10 -86 6 -86
-12 0 -5 10 -13 23 -16 12 -4 46 -21 75 -37 49 -28 52 -32 38 -46 -14 -14 -18
-13 -41 12 -24 26 -30 28 -79 22 -52 -6 -53 -5 -67 27 -11 26 -19 32 -43 30
-16 -1 -37 -10 -47 -19 -14 -12 -24 -14 -46 -7 -39 13 -38 47 2 51 17 2 36 8
43 14 18 16 14 46 -8 53 -29 9 -18 51 51 191 l60 121 47 9 c45 9 69 9 120 -2z
m-518 -98 c20 -20 10 -36 -21 -36 -30 0 -31 1 -25 34 4 19 2 37 -3 41 -7 4 -6
15 2 32 l12 26 12 -43 c7 -24 17 -48 23 -54z m1281 11 c-1 -12 -15 -9 -19 4
-3 6 1 10 8 8 6 -3 11 -8 11 -12z m-675 -28 c3 -5 1 -9 -5 -9 -17 0 -41 12
-41 20 0 10 38 1 46 -11z m215 -33 c9 -4 22 -6 29 -4 7 2 15 -3 18 -11 4 -11
-3 -12 -34 -7 -41 8 -82 35 -47 31 10 -1 25 -5 34 -9z m401 -13 c30 -33 68
-105 68 -130 0 -10 7 -31 15 -47 8 -15 14 -47 14 -70 l-2 -41 -6 40 c-4 22
-12 49 -18 60 -12 21 -73 78 -110 103 -27 17 -29 28 -8 48 9 10 13 24 9 40 -8
32 6 30 38 -3z m-632 -18 c22 -13 23 -14 5 -14 -11 0 -33 6 -50 14 -29 13 -29
13 -5 14 14 0 36 -6 50 -14z m360 -5 c0 -5 -2 -10 -4 -10 -3 0 -8 5 -11 10 -3
6 -1 10 4 10 6 0 11 -4 11 -10z m-270 -50 c13 -8 13 -10 -2 -10 -9 0 -20 5
-23 10 -8 13 5 13 25 0z m7 -75 c20 -8 34 -17 31 -20 -6 -7 -76 14 -83 25 -9
14 10 12 52 -5z m218 -15 c-10 -11 -23 -20 -28 -20 -6 0 -2 9 8 20 10 11 23
20 28 20 6 0 2 -9 -8 -20z m-217 -67 c12 -7 20 -19 16 -25 -4 -7 -10 -5 -15 5
-5 8 -23 18 -39 22 -16 4 -32 11 -36 16 -8 13 45 1 74 -18z m-908 -28 c10 -24
29 -58 41 -74 15 -20 19 -35 14 -48 -5 -10 -10 -61 -11 -113 -2 -96 -19 -170
-40 -170 -37 0 -134 238 -134 328 0 35 6 45 46 81 26 23 51 41 56 41 5 0 17
-20 28 -45z m872 -20 c47 0 35 -12 -30 -29 l-50 -14 -4 30 c-4 28 -3 29 21 22
14 -5 43 -8 63 -9z m-394 -117 c33 -62 40 -83 30 -89 -21 -14 -27 -10 -30 19
-4 39 -36 35 -66 -8 l-25 -35 7 30 c4 17 19 42 33 57 25 26 24 48 -1 48 -8 0
-16 9 -19 21 -4 14 -10 18 -19 13 -10 -6 -10 -4 1 9 27 33 46 19 89 -65z m547
63 c15 -6 11 -9 -20 -14 -22 -4 -55 -7 -72 -7 -44 0 -112 -27 -143 -56 -21
-21 -23 -27 -13 -44 7 -10 10 -26 7 -33 -8 -23 26 -29 55 -10 36 25 151 62
157 51 10 -16 -18 -38 -46 -38 -15 0 -44 -11 -64 -25 -27 -18 -50 -25 -85 -25
-48 0 -84 -21 -61 -35 5 -3 10 -10 10 -16 0 -14 -26 -11 -40 6 -20 24 -50 17
-84 -19 -27 -29 -36 -33 -66 -29 -43 7 -60 19 -60 45 0 16 5 19 29 13 24 -5
34 -1 60 27 29 31 32 32 64 20 47 -17 64 -15 81 10 11 15 14 34 10 58 -9 55
24 88 112 110 74 19 137 23 169 11z m-368 -27 c49 -19 47 -39 -2 -30 -37 7
-85 -10 -85 -30 0 -8 11 -21 25 -30 23 -15 26 -34 4 -34 -18 0 -49 40 -49 65
0 14 8 29 20 35 11 6 20 17 20 25 0 19 14 19 67 -1z m459 -32 c-17 -16 -18
-16 -5 5 7 12 15 20 18 17 3 -2 -3 -12 -13 -22z m-154 -21 c-24 -9 -58 -15
-75 -13 -28 4 -29 6 -12 18 11 8 42 14 74 13 l56 0 -43 -18z m575 -53 c-2 -13
-4 -3 -4 22 0 25 2 35 4 23 2 -13 2 -33 0 -45z m-446 25 c-12 -20 -14 -14 -5
12 4 9 9 14 11 11 3 -2 0 -13 -6 -23z m-3616 7 c-3 -5 -10 -10 -16 -10 -5 0
-9 5 -9 10 0 6 7 10 16 10 8 0 12 -4 9 -10z m2829 -22 c-4 -18 -17 -41 -30
-51 -38 -30 -27 -94 25 -141 17 -16 31 -18 81 -13 34 3 58 1 54 -4 -3 -5 2 -6
10 -3 10 4 18 -1 22 -10 5 -13 9 -14 20 -5 24 20 15 -6 -10 -30 -24 -22 -24
-22 -92 -5 -95 23 -129 41 -114 59 10 12 4 23 -27 59 -34 39 -40 52 -41 93 0
59 4 66 28 50 17 -10 23 -8 42 11 31 30 39 28 32 -10z m1116 -8 c11 -7 12 -12
3 -21 -15 -15 -47 -7 -51 14 -4 19 23 23 48 7z m-3900 -15 c0 -2 -11 -12 -25
-21 -30 -19 -58 -8 -30 13 18 12 55 18 55 8z m3030 -30 c0 -8 -4 -15 -10 -15
-5 0 -10 7 -10 15 0 8 5 15 10 15 6 0 10 -7 10 -15z m946 -39 c-18 -58 -54
-114 -115 -179 -56 -59 -94 -80 -189 -101 -103 -23 -188 -14 -242 28 -22 16
-40 34 -40 38 0 12 29 10 66 -4 25 -9 53 -9 111 -1 143 19 320 125 387 231 15
24 29 42 32 40 2 -3 -2 -26 -10 -52z m-3766 24 c0 -5 -4 -10 -9 -10 -5 0 -17
-3 -25 -6 -12 -5 -15 -2 -10 10 7 17 44 22 44 6z m2134 -39 c-9 -10 -36 28
-29 39 6 9 12 6 21 -11 7 -13 10 -26 8 -28z m-332 -17 c12 -93 67 -233 104
-265 26 -23 107 -54 177 -69 31 -6 57 -15 57 -20 0 -4 -19 -45 -42 -90 -24
-45 -47 -90 -53 -100 -5 -11 -19 -20 -30 -22 -17 -3 -20 -9 -17 -48 l3 -44
-24 22 -24 23 -37 -23 c-32 -20 -36 -27 -31 -53 3 -16 15 -43 26 -58 11 -15
18 -33 16 -40 -2 -7 -19 12 -37 41 -32 51 -62 67 -73 38 -3 -7 10 -35 29 -61
19 -27 34 -55 34 -62 0 -30 -36 -5 -73 50 -20 31 -42 57 -48 57 -21 0 -22 -35
-1 -72 l21 -38 -40 -20 c-24 -13 -48 -18 -63 -14 -36 9 -89 -33 -81 -64 4 -15
2 -21 -5 -17 -5 3 -10 12 -10 19 0 8 -7 19 -15 26 -24 20 -47 -4 -34 -36 13
-35 11 -44 -6 -44 -9 0 -24 13 -33 30 -18 32 -33 37 -50 17 -9 -10 -7 -19 4
-36 17 -23 13 -38 -5 -26 -6 3 -11 14 -11 24 0 28 -26 46 -44 32 -11 -9 -12
-20 -5 -44 13 -45 12 -45 -18 -9 -25 30 -30 32 -47 19 -18 -13 -18 -15 -1 -41
26 -39 8 -46 -23 -9 -27 33 -43 33 -55 1 -4 -11 -13 -15 -26 -11 -21 5 -25 -2
-21 -42 2 -19 1 -19 -23 3 l-25 24 -17 -25 c-10 -16 -22 -23 -35 -20 -12 3
-24 -3 -34 -20 -12 -17 -23 -23 -40 -20 -18 4 -26 0 -31 -17 -5 -16 -13 -20
-27 -17 -13 4 -27 -3 -41 -20 -29 -33 -62 -52 -54 -30 11 28 -16 38 -47 18
-29 -20 -96 -107 -96 -126 0 -16 -167 -163 -210 -185 -85 -43 -328 -109 -350
-95 -6 4 -20 -1 -30 -10 -12 -11 -26 -14 -39 -10 -17 5 -21 2 -21 -14 0 -14
-6 -21 -20 -21 -11 0 -28 -4 -38 -9 -9 -5 -25 -12 -34 -15 -10 -3 -18 -15 -18
-27 0 -18 -4 -20 -25 -15 -21 5 -27 2 -35 -19 -5 -14 -16 -25 -24 -25 -7 0
-19 -7 -26 -15 -7 -9 -21 -13 -34 -9 -24 6 -61 -27 -68 -61 -3 -15 -10 -19
-31 -17 -23 2 -27 -1 -27 -21 0 -33 -24 -51 -73 -56 -4 -1 -7 -9 -5 -18 2 -13
-3 -17 -19 -15 -28 4 -38 -14 -21 -36 12 -15 11 -16 -4 -3 -10 7 -25 10 -34 7
-16 -6 -16 -8 0 -24 9 -10 16 -26 16 -35 0 -24 -71 -90 -120 -112 -40 -18 -45
-18 -89 -3 -25 9 -68 20 -96 24 -31 4 -55 14 -63 26 -17 24 -32 15 -24 -15 5
-20 4 -21 -11 -8 -17 14 -21 10 -18 -21 4 -33 -16 -19 -74 52 -31 38 -69 79
-84 89 l-26 20 29 11 c17 6 52 8 87 4 51 -6 64 -3 111 21 29 15 64 37 78 49
14 11 46 29 70 39 25 11 65 28 89 39 50 22 262 167 391 267 47 36 116 90 155
119 38 29 81 69 95 90 32 46 276 239 312 246 18 3 34 19 50 47 22 42 97 96
200 147 21 10 116 93 212 183 223 211 303 279 327 279 30 0 62 38 55 65 -4 16
2 32 19 53 14 17 31 48 39 69 17 50 36 48 54 -5 7 -23 27 -55 43 -71 43 -44
135 -94 158 -86 24 7 37 -10 14 -19 -47 -19 85 -48 217 -49 66 0 181 10 188
17 11 12 -10 57 -35 73 -15 10 -58 48 -95 86 -38 37 -71 67 -76 67 -4 0 -19
20 -34 44 -30 46 -33 76 -22 198 6 60 9 68 33 77 74 28 85 24 93 -35z m858 46
c0 -5 -5 -10 -11 -10 -5 0 -7 5 -4 10 3 6 8 10 11 10 2 0 4 -4 4 -10z m-723
-26 c3 -9 -2 -31 -11 -50 -17 -37 -9 -49 30 -42 15 2 18 -2 16 -24 -4 -34 22
-85 47 -93 31 -9 33 -33 5 -52 -32 -21 -73 -9 -91 27 -30 58 -66 167 -67 199
-1 29 3 36 24 42 38 11 40 10 47 -7z m1593 -14 c-20 -13 -40 -13 -40 0 0 6 12
10 28 10 21 0 24 -2 12 -10z m-148 -52 c-7 -7 -12 -8 -12 -2 0 6 3 14 7 17 3
4 9 5 12 2 2 -3 -1 -11 -7 -17z m-3719 -14 c5 -5 -44 -108 -58 -123 -8 -8 7
93 17 112 9 17 29 23 41 11z m2546 -25 c9 -27 9 -30 -4 -19 -8 7 -15 21 -15
31 0 28 7 23 19 -12z m251 6 c10 -13 10 -19 -2 -33 -8 -9 -29 -42 -45 -72 -63
-114 -80 -140 -88 -133 -4 5 -5 2 -1 -4 8 -14 -23 -73 -37 -73 -5 0 -7 -6 -4
-14 3 -8 -2 -25 -11 -38 -10 -13 -27 -43 -37 -68 -48 -108 -135 -273 -161
-304 -16 -19 -37 -35 -46 -35 -22 -1 -24 15 -4 22 8 3 31 38 50 78 20 40 42
79 50 88 8 9 26 45 41 81 38 91 103 218 135 265 15 22 39 64 54 93 14 28 31
52 37 52 5 0 8 4 4 10 -6 9 35 99 46 100 4 0 12 -7 19 -15z m-2700 -49 c7 -14
10 -31 7 -39 -7 -18 -116 -111 -122 -105 -7 7 84 168 94 168 4 0 13 -11 21
-24z m3285 14 c3 -5 1 -10 -4 -10 -6 0 -11 5 -11 10 0 6 2 10 4 10 3 0 8 -4
11 -10z m-2005 -31 c0 -11 -4 -17 -10 -14 -5 3 -10 13 -10 21 0 8 5 14 10 14
6 0 10 -9 10 -21z m1204 5 c9 -24 7 -28 -9 -14 -17 14 -20 30 -6 30 5 0 12 -7
15 -16z m764 -51 c3 -17 -3 -26 -23 -33 -43 -17 -57 -13 -49 13 10 34 25 48
48 45 13 -2 22 -12 24 -25z m-3133 -2 c6 -10 -25 -31 -46 -31 -8 0 -5 7 6 20
20 22 31 25 40 11z m1220 -33 c4 -18 9 -41 11 -50 4 -15 1 -15 -26 -5 -32 12
-35 21 -20 61 13 35 27 33 35 -6z m1425 -5 c16 -11 47 -18 88 -19 35 -1 69 -7
75 -14 9 -9 5 -11 -18 -6 -20 4 -37 1 -50 -8 -19 -14 -19 -15 -2 -33 9 -11 17
-24 17 -29 0 -12 -51 -91 -104 -161 -35 -46 -42 -51 -70 -46 -46 7 -65 -17
-41 -53 17 -26 17 -29 -1 -58 -10 -17 -41 -61 -68 -98 -28 -37 -67 -90 -86
-117 -23 -33 -46 -54 -69 -62 -29 -10 -32 -14 -27 -40 3 -18 0 -34 -10 -44
-14 -13 -19 -13 -55 5 -41 22 -49 40 -24 60 8 7 15 25 15 39 0 17 26 68 63
127 35 54 112 194 172 309 111 216 141 265 160 265 6 0 22 -8 35 -17z m560
-43 c0 -11 -7 -23 -15 -27 -21 -8 -28 1 -20 26 8 27 35 27 35 1z m-1656 4 c20
-8 23 -84 3 -84 -17 0 -50 57 -43 76 6 15 16 17 40 8z m646 -14 c0 -5 -2 -10
-4 -10 -3 0 -8 5 -11 10 -3 6 -1 10 4 10 6 0 11 -4 11 -10z m1345 -97 c-14
-85 -62 -252 -97 -340 -21 -50 -40 -69 -59 -58 -11 8 0 93 18 128 7 15 18 57
23 95 16 121 39 234 50 248 12 13 60 24 71 14 4 -3 1 -42 -6 -87z m60 12 c-16
-84 -25 -106 -25 -60 0 31 30 148 37 142 2 -2 -3 -39 -12 -82z m-244 53 c3
-64 -3 -106 -32 -223 -12 -49 -24 -107 -26 -127 -3 -24 -10 -38 -19 -38 -18 0
-18 9 1 54 9 20 14 40 11 44 -2 4 4 41 16 82 11 41 19 98 19 125 -1 61 7 105
20 105 5 0 9 -10 10 -22z m-2081 -3 c7 -9 8 -15 2 -15 -5 0 -12 7 -16 15 -3 8
-4 15 -2 15 2 0 9 -7 16 -15z m-137 -32 c-3 -21 3 -35 26 -57 17 -17 31 -33
31 -38 0 -16 -23 -7 -46 17 -46 50 -71 16 -28 -40 22 -29 25 -38 15 -48 -10
-9 -16 -8 -25 7 -6 11 -21 30 -33 43 -13 13 -23 26 -23 29 0 5 81 114 84 114
2 0 1 -12 -1 -27z m1765 -23 c3 -21 2 -22 -12 -11 -19 16 -21 44 -3 39 6 -3
14 -15 15 -28z m-1650 6 c7 -8 -12 -36 -24 -36 -12 0 -34 29 -34 45 0 6 51 -2
58 -9z m384 -28 c-6 -6 -16 -7 -22 -3 -9 6 -9 9 1 16 17 10 34 0 21 -13z
m1168 -4 c0 -8 -5 -12 -10 -9 -6 4 -8 11 -5 16 9 14 15 11 15 -7z m224 -103
c23 -25 20 -56 -7 -74 -17 -11 -27 -32 -37 -81 -8 -41 -19 -66 -27 -66 -16 0
-17 21 -1 72 10 33 9 41 -2 48 -9 6 -20 4 -30 -5 -8 -7 -26 -11 -41 -8 -16 3
-30 -1 -38 -11 -8 -9 -20 -16 -29 -16 -8 0 -24 -7 -34 -17 -15 -14 -18 -14
-18 -1 0 8 39 50 88 93 48 43 98 94 112 114 l25 37 11 -34 c7 -18 19 -41 28
-51z m176 33 c0 -13 -4 -24 -9 -24 -13 0 -24 37 -16 50 10 16 25 1 25 -26z
m-450 -9 c-7 -8 -17 -15 -22 -15 -6 0 -5 7 2 15 7 8 17 15 22 15 6 0 5 -7 -2
-15z m-1692 -41 c24 -37 23 -68 -1 -58 -22 8 -59 64 -53 80 9 24 30 16 54 -22z
m835 29 c-7 -2 -19 -2 -25 0 -7 3 -2 5 12 5 14 0 19 -2 13 -5z m1672 -35 c-11
-67 -72 -242 -91 -260 -18 -19 -22 7 -5 40 10 20 33 84 51 142 18 58 34 108
37 113 11 18 14 3 8 -35z m-318 0 c-3 -7 -5 -2 -5 12 0 14 2 19 5 13 2 -7 2
-19 0 -25z m-2249 -61 c12 -13 19 -26 16 -30 -7 -7 -64 33 -64 45 0 16 27 8
48 -15z m2239 1 c-3 -8 -6 -5 -6 6 -1 11 2 17 5 13 3 -3 4 -12 1 -19z m-172
-36 c-2 -9 -7 -34 -10 -54 -9 -59 -29 -47 -22 12 3 28 9 55 12 60 10 15 24 2
20 -18z m57 -17 c-2 -14 -8 -25 -13 -25 -10 0 -12 21 -3 44 9 24 22 10 16 -19z
m98 -30 c-7 -30 -17 -55 -23 -55 -5 0 -6 8 -2 18 4 9 9 24 11 32 1 8 6 28 9
44 3 15 9 26 12 22 3 -3 0 -31 -7 -61z m-2266 26 c10 -10 13 -22 8 -25 -12 -7
-54 23 -47 35 9 14 20 11 39 -10z m1940 -38 c-7 -42 -19 -60 -28 -45 -6 10 20
82 30 82 3 0 2 -17 -2 -37z m-1994 -20 c18 -24 19 -28 6 -42 -14 -13 -17 -13
-34 2 -35 32 -67 11 -36 -24 13 -15 15 -22 6 -31 -9 -9 -17 -6 -35 10 -13 12
-28 22 -35 22 -21 0 -24 -21 -6 -41 23 -25 10 -37 -16 -14 -28 25 -49 7 -33
-28 16 -34 2 -51 -35 -42 -34 7 -50 -8 -31 -31 15 -18 3 -32 -13 -16 -22 22
-38 13 -38 -19 0 -24 -4 -30 -15 -25 -8 3 -22 9 -30 12 -9 4 -15 0 -16 -7 -1
-8 -2 -19 -3 -24 -1 -13 -77 -87 -134 -132 -46 -36 -59 -35 -95 5 -18 20 -18
21 1 31 14 7 25 6 41 -5 17 -12 25 -13 36 -4 13 11 12 16 -5 40 -11 16 -20 33
-20 39 0 20 17 12 28 -14 12 -25 36 -33 47 -15 3 5 -4 28 -15 51 -22 43 -22
61 0 34 14 -17 40 -20 40 -6 0 5 -5 22 -10 37 -13 34 1 54 25 34 25 -21 44 4
21 29 -16 18 -16 19 7 19 14 0 45 14 70 31 25 17 49 31 53 31 4 0 23 12 42 27
19 14 49 29 66 32 17 4 31 12 31 18 0 20 18 31 55 36 19 2 40 5 47 5 6 1 21
-10 33 -25z m1679 0 c-13 -16 -25 -30 -26 -32 -2 -2 -5 -2 -8 1 -7 7 34 58 47
58 7 0 1 -12 -13 -27z m-491 -11 c6 -18 -15 -14 -22 4 -4 10 -1 14 6 12 6 -2
14 -10 16 -16z m1467 -52 c-23 -44 -31 -30 -9 16 10 20 20 32 22 26 2 -6 -4
-25 -13 -42z m-1475 -124 c0 -17 25 -27 47 -19 13 5 15 3 8 -13 -4 -10 -9 -46
-11 -78 -3 -72 -5 -80 -55 -236 -50 -158 -48 -156 -89 -141 -18 6 -54 12 -79
13 l-46 1 42 4 c23 2 46 9 51 16 24 29 74 207 79 278 5 74 5 77 -19 93 -47 30
-89 38 -117 20 -50 -32 -101 -106 -101 -147 0 -19 -4 -27 -12 -25 -25 9 -18
44 22 110 22 37 40 73 40 81 0 31 24 37 101 27 102 -13 106 -13 112 10 6 23
27 27 27 6z m-131 -122 c7 -6 -62 -63 -76 -64 -17 0 -16 15 3 51 13 26 19 30
42 24 15 -4 29 -9 31 -11z m415 0 c4 -9 -1 -29 -11 -43 -9 -14 -23 -37 -30
-51 -10 -19 -13 -20 -13 -7 0 9 -5 25 -11 35 -9 14 -5 24 18 49 32 37 38 39
47 17z m-135 -93 c19 -18 29 -35 25 -45 -8 -21 14 -83 35 -98 13 -9 20 -31 23
-71 4 -55 3 -60 -20 -70 -21 -10 -27 -9 -36 8 -21 37 -64 74 -92 80 -54 12
-53 10 -34 67 32 95 40 124 40 141 0 25 24 20 59 -12z m-271 -65 c-29 -109
-45 -139 -70 -133 -32 9 -164 -17 -234 -45 -33 -14 -85 -42 -115 -62 -30 -20
-55 -32 -57 -28 -4 12 165 184 201 206 16 10 58 29 95 42 36 14 91 43 121 65
71 49 81 41 59 -45z m-1678 2 c31 -34 38 -58 18 -58 -21 0 -76 68 -64 80 14
14 12 14 46 -22z m-56 -61 c27 -40 8 -55 -28 -22 -41 38 -67 5 -29 -37 15 -17
15 -20 1 -34 -14 -14 -18 -13 -43 20 -15 19 -25 39 -23 45 7 18 93 77 98 67 3
-6 14 -24 24 -39z m-136 -103 c25 -40 27 -50 11 -59 -27 -17 -75 65 -52 88 11
12 17 7 41 -29z m-76 -59 c16 -14 38 -25 49 -25 26 0 24 -15 -3 -27 -20 -9
-28 -6 -56 20 -30 29 -35 30 -55 18 -21 -13 -21 -12 2 13 14 14 26 26 29 26 2
0 17 -11 34 -25z m-83 -97 l24 -42 -28 -23 c-15 -13 -30 -21 -34 -18 -3 4 2
12 12 19 21 16 22 30 2 46 -15 13 -21 60 -7 60 4 0 18 -19 31 -42z m-69 -111
c0 -6 -11 0 -25 13 -14 13 -25 28 -25 33 0 6 11 0 25 -13 14 -13 25 -28 25
-33z m-50 -39 c0 -15 -27 -8 -45 12 -11 12 -15 26 -10 37 6 16 9 15 31 -12 13
-16 24 -33 24 -37z m-78 -15 c21 -18 23 -33 6 -33 -14 0 -48 30 -48 42 0 13
22 9 42 -9z m-92 -84 c0 -6 -4 -7 -10 -4 -5 3 -10 11 -10 16 0 6 5 7 10 4 6
-3 10 -11 10 -16z m-80 -59 c0 -11 -4 -20 -9 -20 -14 0 -23 18 -16 30 10 17
25 11 25 -10z m-140 -50 c0 -5 -4 -10 -10 -10 -5 0 -10 5 -10 10 0 6 5 10 10
10 6 0 10 -4 10 -10z m4439 -49 c17 -11 7 -41 -12 -41 -19 0 -40 26 -32 40 8
12 25 13 44 1z m-4659 -9 c0 -15 -24 -32 -47 -32 -29 0 -30 14 0 28 27 13 47
15 47 4z m10 -66 c0 -3 -4 -8 -10 -11 -5 -3 -10 -1 -10 4 0 6 5 11 10 11 6 0
10 -2 10 -4z m4545 -55 c7 -12 -12 -24 -25 -16 -11 7 -4 25 10 25 5 0 11 -4
15 -9z m-20 -100 c3 -5 1 -13 -5 -16 -15 -9 -43 3 -35 15 8 13 32 13 40 1z
m180 -56 c0 -18 -7 -20 -55 -20 -41 0 -55 4 -55 15 0 17 37 29 80 27 23 -2 30
-7 30 -22z m-330 -205 c-3 -5 -10 -10 -16 -10 -5 0 -9 5 -9 10 0 6 7 10 16 10
8 0 12 -4 9 -10z m-311 -99 c8 -12 -14 -19 -37 -13 -15 4 -16 7 -5 13 17 11
35 11 42 0z m376 -36 c0 -10 -11 -15 -35 -15 -19 0 -35 4 -35 9 0 5 8 7 19 4
10 -3 22 0 25 6 10 16 26 13 26 -4z m164 -16 c-5 -8 0 -10 17 -6 13 3 31 2 39
-3 12 -8 12 -10 -5 -11 -54 -3 -112 4 -122 15 -4 5 4 6 19 2 15 -3 30 -2 33 4
3 5 11 10 16 10 6 0 7 -5 3 -11z"/>
<path d="M1155 7050 c-7 -12 12 -40 27 -40 13 0 6 43 -9 47 -6 2 -14 -1 -18
-7z"/>
<path d="M3635 6350 c-4 -6 -1 -17 5 -26 10 -11 16 -12 26 -3 11 9 11 15 3 25
-14 17 -25 18 -34 4z"/>
<path d="M1600 6795 c0 -8 7 -15 16 -15 14 0 14 3 4 15 -7 8 -14 15 -16 15 -2
0 -4 -7 -4 -15z"/>
<path d="M4083 5839 c-26 -9 -30 -31 -9 -48 7 -6 39 -16 70 -22 31 -5 74 -16
95 -24 33 -11 42 -11 57 0 28 20 5 39 -73 60 -38 10 -79 23 -93 30 -16 8 -33
9 -47 4z"/>
<path d="M4041 5731 c-8 -5 -11 -16 -8 -25 9 -23 115 -23 124 -1 3 9 4 17 2
19 -11 9 -106 15 -118 7z"/>
<path d="M3740 5295 c-7 -8 -9 -15 -4 -15 5 0 2 -5 -6 -10 -13 -8 -13 -10 1
-10 10 0 19 10 21 25 6 29 5 30 -12 10z"/>
<path d="M3619 5283 c-1 -5 -1 -15 0 -23 1 -11 -9 -15 -38 -14 -36 0 -39 -1
-30 -18 5 -10 12 -18 15 -18 13 0 64 31 64 39 0 5 3 16 6 25 3 9 1 16 -5 16
-6 0 -12 -3 -12 -7z"/>
<path d="M4181 5146 c-7 -8 -8 -17 -3 -20 6 -3 12 3 15 14 6 24 4 25 -12 6z"/>
<path d="M3505 3991 c-3 -5 -1 -12 5 -16 12 -7 30 2 30 16 0 12 -27 12 -35 0z"/>
<path d="M3080 3680 c-30 -16 -62 -36 -71 -45 -9 -8 -26 -15 -38 -15 -54 0
-102 -70 -82 -121 15 -40 48 -63 89 -62 81 3 117 15 157 53 22 21 49 40 60 42
17 3 20 12 21 73 3 111 -32 130 -136 75z m94 -21 c19 -27 11 -46 -26 -65 -31
-16 -48 -12 -48 12 0 8 10 14 25 14 27 0 48 31 27 38 -7 2 -12 8 -12 13 0 16
18 10 34 -12z m-131 -136 c-28 -48 -73 -58 -98 -20 -8 13 -13 32 -9 41 7 19
21 21 27 4 3 -10 9 -9 23 3 10 10 28 19 39 21 34 8 40 -9 18 -49z"/>
<path d="M2655 3480 c-13 -21 -99 -52 -141 -51 -23 0 -50 -6 -60 -14 -18 -14
-18 -16 -1 -26 9 -5 17 -17 17 -24 0 -21 17 -19 47 5 31 24 43 25 43 5 0 -14
-54 -55 -73 -55 -4 0 -19 12 -32 26 -30 32 -60 27 -49 -8 10 -33 24 -48 45
-48 10 0 26 -11 34 -24 11 -16 30 -27 58 -31 35 -6 44 -4 58 14 9 11 27 21 39
21 12 0 42 20 70 48 39 38 49 55 54 93 5 35 3 49 -8 58 -22 18 -92 26 -101 11z
m35 -80 c6 0 9 -3 7 -8 -4 -6 -38 -7 -79 -3 -17 2 -6 21 20 35 25 13 28 13 34
-5 4 -10 12 -19 18 -19z m-32 -68 c2 -7 -3 -12 -12 -12 -9 0 -16 7 -16 16 0
17 22 14 28 -4z m-68 -33 c0 -12 -7 -19 -18 -19 -28 0 -34 11 -16 31 19 21 34
16 34 -12z"/>
<path d="M2613 3230 c-30 -12 -29 -30 2 -30 28 0 75 20 75 32 0 11 -49 9 -77
-2z"/>
<path d="M3201 2871 c-19 -12 -6 -41 19 -41 16 0 21 5 18 22 -3 25 -17 32 -37
19z"/>
<path d="M3171 2811 c-15 -10 -8 -41 9 -41 15 0 25 29 14 40 -5 5 -15 5 -23 1z"/>
<path d="M2841 2486 c-17 -21 31 -77 51 -58 10 10 10 17 -2 39 -18 32 -33 38
-49 19z"/>
<path d="M3360 2720 c0 -5 5 -10 10 -10 6 0 10 5 10 10 0 6 -4 10 -10 10 -5 0
-10 -4 -10 -10z"/>
<path d="M3302 1919 c2 -7 10 -15 17 -17 8 -3 12 1 9 9 -2 7 -10 15 -17 17 -8
3 -12 -1 -9 -9z"/>
<path d="M4195 8762 c-22 -11 -69 -16 -190 -18 -137 -3 -171 -7 -235 -28 -41
-13 -115 -36 -165 -51 -159 -47 -348 -113 -434 -151 -29 -13 -59 -24 -66 -24
-7 0 -23 -9 -36 -19 -24 -19 -24 -19 -5 -40 12 -13 16 -25 10 -30 -16 -15
-119 -49 -215 -72 -52 -12 -110 -30 -129 -40 -38 -21 -75 -25 -85 -9 -3 6 3
23 14 39 18 25 19 30 6 41 -12 10 -28 9 -84 -9 -38 -12 -84 -33 -103 -46 -18
-13 -52 -34 -75 -45 -42 -22 -60 -45 -43 -55 20 -12 9 -24 -27 -33 -21 -5 -74
-18 -118 -27 -129 -29 -155 -42 -176 -91 -21 -45 -32 -50 -161 -69 -55 -8 -63
5 -23 37 28 22 32 43 10 52 -30 11 -133 -17 -240 -66 -60 -27 -135 -62 -165
-75 -30 -14 -70 -32 -87 -39 -32 -14 -41 -28 -25 -38 13 -8 101 27 237 94 66
32 133 62 148 66 28 6 28 6 22 -30 -13 -66 30 -84 107 -45 22 11 71 29 109 39
79 20 116 42 128 73 9 24 103 59 191 72 70 10 204 46 218 57 16 14 -1 36 -31
40 -35 5 -24 20 39 55 71 40 78 40 70 7 -9 -35 9 -54 52 -54 38 0 426 126 492
160 44 22 48 34 24 61 -19 21 -21 20 112 64 39 14 129 47 201 74 72 28 173 60
225 71 117 26 363 53 404 45 36 -6 103 17 150 52 l29 22 -25 0 c-14 -1 -38 -8
-55 -17z"/>
<path d="M4980 8618 c0 -25 -8 -40 -35 -63 -31 -27 -34 -33 -27 -60 11 -40 36
-39 40 2 2 21 10 34 23 38 16 5 19 16 19 61 0 30 -4 54 -10 54 -5 0 -10 -15
-10 -32z"/>
<path d="M4336 8589 c-14 -17 -26 -41 -26 -53 0 -12 -11 -33 -25 -46 -28 -26
-33 -61 -10 -80 19 -16 38 -3 31 24 -6 25 1 39 32 55 17 9 22 21 22 48 0 24 8
45 22 60 l21 23 -20 0 c-12 0 -33 -14 -47 -31z"/>
<path d="M4576 8531 c-5 -7 3 -11 22 -11 32 0 82 -34 82 -55 0 -8 13 -21 29
-29 16 -9 38 -32 50 -51 24 -42 47 -41 44 1 -1 18 -13 37 -30 51 -15 12 -44
39 -64 59 -27 28 -46 37 -81 41 -28 3 -48 1 -52 -6z"/>
<path d="M4413 8107 c2 -6 19 -16 38 -22 25 -8 36 -20 44 -43 5 -18 13 -32 17
-32 21 0 48 -43 48 -75 0 -40 12 -45 34 -14 18 26 4 74 -26 90 -11 6 -24 24
-30 40 -11 33 -36 49 -91 59 -25 5 -37 4 -34 -3z"/>
<path d="M4165 7819 c-10 -15 3 -25 16 -12 7 7 7 13 1 17 -6 3 -14 1 -17 -5z"/>
<path d="M4100 7765 c-7 -8 -10 -25 -7 -37 4 -13 -1 -31 -14 -46 -22 -29 -24
-48 -6 -55 19 -7 40 8 34 24 -2 8 3 23 13 34 12 14 16 31 13 58 -6 40 -14 45
-33 22z"/>
<path d="M275 3161 c-22 -4 -61 -17 -87 -29 -57 -25 -61 -45 -17 -91 23 -25
28 -35 19 -46 -8 -10 -8 -15 2 -21 7 -5 -6 -13 -37 -23 l-50 -16 3 -65 c1 -42
-4 -79 -14 -105 -9 -22 -22 -91 -29 -153 -12 -100 -17 -116 -39 -137 -30 -28
-37 -101 -11 -111 12 -5 14 -22 10 -91 -3 -46 -9 -93 -15 -103 -12 -23 -13
-110 -2 -110 15 0 42 36 42 56 0 10 5 26 10 34 15 23 2 -45 -22 -113 -11 -31
-25 -60 -29 -63 -5 -3 -9 -56 -9 -117 l1 -112 19 35 c10 20 23 60 28 91 6 30
23 82 37 115 15 32 35 92 44 133 9 41 22 76 29 79 9 3 12 -5 10 -24 -3 -28 -1
-29 32 -26 56 6 150 77 135 102 -3 5 13 19 35 31 24 13 48 38 60 61 25 49 25
51 -7 65 -22 11 -37 9 -102 -14 -42 -14 -82 -33 -88 -41 -7 -9 -16 -13 -19 -9
-4 4 -1 13 5 21 16 19 6 36 -19 36 -10 0 -22 5 -25 10 -3 6 -19 10 -36 10 -24
0 -29 4 -29 24 0 45 17 75 39 69 12 -3 21 -14 21 -24 0 -24 27 -36 48 -22 25
15 26 34 3 40 -14 3 -21 13 -21 29 0 18 -8 25 -35 33 -19 5 -44 7 -56 4 -16
-4 -20 -2 -17 8 3 8 14 13 26 11 16 -2 23 3 28 25 3 15 7 32 8 37 1 5 22 16
46 25 35 13 46 22 48 41 2 14 8 29 13 34 19 21 9 36 -25 36 -46 0 -52 14 -20
39 38 30 87 28 108 -4 9 -14 26 -25 39 -25 23 0 135 34 177 54 34 16 32 40 -3
44 -16 2 -31 10 -34 18 -3 8 -21 21 -40 29 -30 13 -33 17 -23 30 18 22 -9 29
-80 22 -42 -5 -61 -3 -69 7 -16 19 -3 26 51 26 26 0 48 5 48 10 0 6 8 14 18
18 36 16 82 47 82 57 -1 48 -91 67 -215 46z m-162 -887 c-6 -82 -33 -103 -33
-26 0 27 3 52 7 56 14 14 28 -2 26 -30z"/>
<path d="M150 1091 c12 -23 29 -35 36 -28 10 9 -16 47 -32 47 -11 0 -12 -4 -4
-19z"/>
<path d="M205 1020 c3 -5 8 -10 11 -10 2 0 4 5 4 10 0 6 -5 10 -11 10 -5 0 -7
-4 -4 -10z"/>
<path d="M220 961 c0 -22 15 -35 30 -26 7 4 7 13 0 26 -14 25 -30 25 -30 0z"/>
<path d="M30 943 c0 -5 16 -26 35 -48 23 -27 34 -35 35 -23 0 9 -12 30 -26 47
-24 29 -44 40 -44 24z"/>
<path d="M3730 500 l-45 -5 0 -85 c1 -47 3 -121 5 -165 l5 -80 50 -9 c101 -17
175 25 211 120 15 40 16 54 6 102 -14 65 -34 100 -67 112 -31 12 -108 16 -165
10z m126 -66 c44 -48 54 -125 24 -183 -21 -42 -47 -56 -91 -49 -24 3 -24 5
-27 127 -3 132 4 156 42 146 12 -4 35 -22 52 -41z"/>
<path d="M2963 493 c-47 -5 -52 -9 -26 -28 16 -12 16 -15 1 -51 -10 -22 -22
-65 -29 -96 -7 -32 -18 -58 -24 -58 -7 0 -24 26 -38 58 -48 106 -48 108 -26
135 10 14 19 28 19 31 0 8 -135 8 -142 0 -3 -3 2 -26 12 -52 14 -38 15 -53 6
-79 -6 -18 -15 -33 -21 -32 -13 0 -34 60 -43 119 -7 44 -8 45 -46 48 -46 4
-68 -12 -44 -30 18 -14 40 -84 59 -188 13 -69 31 -100 59 -100 24 0 42 24 34
44 -6 16 34 106 47 106 3 0 23 -27 43 -60 41 -66 74 -94 99 -84 16 6 28 39 74
204 13 47 25 79 41 113 2 4 0 6 -5 5 -4 -1 -27 -3 -50 -5z"/>
<path d="M3398 493 c-46 -4 -60 -14 -38 -28 14 -8 13 -272 0 -280 -15 -9 8
-35 31 -35 33 0 49 28 49 86 0 31 4 54 10 54 6 0 42 -30 81 -66 50 -47 76 -64
92 -62 32 4 26 26 -27 95 -25 34 -46 66 -46 71 0 5 11 13 25 16 45 11 70 91
41 131 -12 16 -28 20 -93 21 -43 1 -99 -1 -125 -3z m130 -35 c16 -16 15 -63
-2 -77 -8 -7 -30 -11 -48 -9 -29 3 -33 7 -36 36 -2 19 -1 40 2 48 7 17 67 19
84 2z"/>
<path d="M4089 486 c-50 -15 -69 -34 -69 -65 0 -34 14 -52 67 -85 23 -14 47
-34 53 -45 15 -28 12 -77 -5 -91 -24 -20 -64 -4 -71 28 -10 48 -13 52 -33 52
-27 0 -51 -37 -51 -81 l0 -36 58 -5 c64 -6 148 4 163 19 6 6 15 30 20 53 13
56 -11 105 -69 143 -44 30 -67 61 -57 77 4 6 17 2 32 -10 31 -24 46 -25 63 -5
11 13 9 20 -10 40 -26 27 -37 29 -91 11z"/>
<path d="M2335 457 c-28 -28 -35 -43 -35 -74 0 -58 35 -88 103 -88 47 0 52 -2
61 -28 16 -45 -2 -62 -64 -62 -47 1 -55 4 -80 35 -17 21 -33 31 -43 27 -17 -6
-34 -85 -21 -97 5 -4 52 -10 104 -14 115 -7 151 8 171 72 10 34 8 45 -9 85
-23 52 -45 63 -99 48 -30 -8 -41 -8 -52 4 -12 12 -12 17 3 39 20 32 49 33 68
4 24 -36 50 -17 46 34 l-3 43 -58 3 c-55 3 -60 1 -92 -31z"/>
<path d="M3057 441 c-48 -46 -51 -51 -55 -110 -8 -107 21 -143 123 -155 51 -5
68 -2 111 18 41 19 55 33 73 70 26 53 23 87 -16 154 -29 51 -70 72 -138 72
-42 0 -52 -5 -98 -49z m130 4 c16 -12 23 -33 33 -101 9 -60 9 -93 2 -109 -12
-25 -48 -36 -80 -24 -50 19 -70 155 -32 217 22 35 44 40 77 17z"/>
<path d="M115 460 c-4 -6 -2 -17 4 -24 10 -12 16 -206 9 -276 -3 -23 0 -25 37
-25 l40 0 -3 57 c-4 57 3 98 17 98 3 0 24 -22 44 -50 29 -38 36 -56 31 -75 -6
-25 -5 -25 55 -25 59 0 80 13 44 27 -23 9 -68 54 -121 122 l-43 54 33 34 c18
19 45 41 61 49 37 20 34 34 -6 34 -25 0 -42 -9 -67 -35 -40 -41 -66 -47 -56
-12 15 48 13 52 -31 55 -22 2 -44 -2 -48 -8z"/>
<path d="M675 462 c-53 -5 -57 -9 -41 -34 27 -44 32 -189 6 -173 -5 3 -26 36
-46 73 -62 111 -80 132 -120 132 -34 0 -42 -8 -25 -26 5 -5 11 -62 14 -126 3
-92 1 -120 -9 -129 -8 -6 -14 -15 -14 -19 0 -14 31 -20 51 -9 18 9 20 19 18
99 -2 49 0 92 3 96 7 7 43 -47 78 -116 25 -51 56 -79 86 -80 37 0 42 16 36
134 -4 95 -2 117 12 139 16 24 16 26 -1 34 -10 5 -31 7 -48 5z"/>
<path d="M1174 459 c-3 -6 -2 -14 4 -18 6 -3 12 -65 15 -145 4 -131 5 -141 25
-149 39 -18 54 8 49 79 -6 73 4 87 49 75 28 -7 29 -10 34 -75 3 -44 10 -70 20
-76 38 -24 42 -11 42 163 l0 152 -33 0 -33 0 3 -56 c1 -32 -2 -60 -8 -63 -6
-4 -27 -4 -47 0 l-36 7 7 52 c6 49 5 53 -17 59 -36 9 -66 7 -74 -5z"/>
<path d="M1468 459 c-25 -14 -24 -59 1 -59 11 0 23 5 26 10 3 6 15 10 26 10
15 0 19 -7 20 -32 1 -18 3 -44 4 -58 11 -100 9 -129 -9 -149 -25 -28 -18 -33
49 -36 63 -3 76 7 47 38 -19 21 -29 103 -24 205 2 36 30 46 39 12 6 -24 45
-27 62 -6 7 8 11 27 9 43 l-3 28 -115 2 c-66 2 -122 -2 -132 -8z"/>
<path d="M787 453 c-2 -5 0 -44 4 -88 8 -78 6 -139 -7 -182 -8 -28 23 -45 66
-37 26 6 31 10 26 28 -3 12 -6 81 -6 154 l0 132 -39 0 c-22 0 -42 -3 -44 -7z"/>
<path d="M1005 453 c-35 -9 -75 -44 -95 -83 -49 -95 -1 -208 95 -226 77 -14
149 44 136 109 -7 32 -8 32 -66 32 -36 0 -60 -5 -62 -12 -2 -6 6 -13 19 -15
17 -2 24 -11 26 -31 5 -41 -25 -48 -55 -11 -32 40 -33 138 -2 178 24 30 36 32
60 10 22 -20 49 -12 49 15 0 34 -46 48 -105 34z"/>
<path d="M1973 440 c-49 -29 -51 -60 -12 -133 41 -77 44 -155 9 -212 -29 -47
-4 -48 38 -1 33 37 49 79 56 141 2 25 9 39 16 37 25 -6 41 20 34 57 -11 59
-46 83 -59 41 -9 -28 -30 -25 -55 7 l-21 27 33 28 c28 23 30 27 13 28 -11 0
-35 -9 -52 -20z"/>
<path d="M1860 287 c-34 -17 -55 -57 -46 -90 13 -51 103 -72 137 -31 18 22 5
95 -21 116 -26 21 -37 22 -70 5z m56 -53 c10 -39 -13 -55 -36 -26 -22 26 -16
52 11 52 12 0 21 -10 25 -26z"/>
<path d="M4431 231 c-34 -9 -48 -35 -32 -55 17 -20 49 -13 74 16 13 16 15 24
6 34 -12 15 -13 15 -48 5z"/>
</g>
</svg>
