<?xml version="1.0" standalone="no"?>
<!DOCTYPE svg PUBLIC "-//W3C//DTD SVG 20010904//EN"
 "http://www.w3.org/TR/2001/REC-SVG-20010904/DTD/svg10.dtd">
<svg version="1.0" xmlns="http://www.w3.org/2000/svg"
 width="500.000000pt" height="878.000000pt" viewBox="0 0 500.000000 878.000000"
 preserveAspectRatio="xMidYMid meet">
<metadata>
Created by potrace 1.15, written by Peter Selinger 2001-2017
</metadata>
<g transform="translate(0.000000,878.000000) scale(0.100000,-0.100000)"
fill="#000000" stroke="none">
<path d="M3045 8343 c-30 -39 -46 -70 -49 -98 -3 -22 -8 -278 -11 -570 -3
-291 -9 -696 -15 -900 -5 -203 -12 -507 -14 -675 -12 -697 -22 -920 -38 -920
-6 0 -16 7 -23 16 -9 13 -28 16 -81 16 -50 0 -82 6 -114 21 -48 23 -131 27
-223 12 -46 -7 -50 -6 -85 28 -20 19 -48 37 -62 39 -15 2 -30 13 -37 29 -22
46 -52 63 -140 81 -48 9 -90 15 -94 12 -10 -6 -178 43 -198 58 -9 7 -18 14
-20 15 -10 7 45 53 63 53 12 0 26 4 31 8 18 13 37 60 30 72 -11 18 -14 101 -4
128 5 12 17 22 28 22 37 0 41 21 19 100 -11 41 -22 117 -24 168 -2 52 -7 98
-10 103 -3 6 1 20 9 32 8 13 15 45 15 72 -1 28 7 63 16 80 9 17 16 42 16 56 0
14 9 34 20 44 11 10 20 28 20 40 0 11 5 26 11 32 15 15 4 44 -15 37 -8 -3 -27
9 -44 27 -17 19 -34 30 -38 26 -4 -4 0 -15 9 -25 24 -26 21 -82 -7 -165 -14
-40 -28 -89 -32 -109 -3 -21 -9 -38 -13 -38 -20 1 -34 23 -38 63 -5 45 -5 46
26 54 l32 8 -45 32 -46 33 0 69 c0 80 12 96 62 86 32 -7 32 -6 16 11 -17 17
-19 17 -53 1 -19 -9 -41 -28 -47 -42 -13 -29 -16 -30 -42 -10 -11 8 -31 15
-44 15 -20 0 -22 -3 -12 -14 6 -8 18 -12 25 -10 20 8 55 -32 55 -61 0 -33 -46
-102 -74 -112 -11 -4 -39 -8 -60 -8 -54 -1 -69 -25 -36 -58 14 -13 33 -26 42
-30 10 -3 20 -18 24 -33 8 -31 -7 -44 -52 -44 -44 0 -67 29 -70 93 -2 28 -5
73 -7 100 -3 46 -2 49 58 112 35 36 62 65 60 65 -21 0 -67 -28 -84 -50 -25
-34 -41 -38 -41 -11 0 28 -11 52 -21 45 -5 -3 -9 -19 -9 -35 0 -36 -24 -35
-26 0 -2 38 -21 48 -35 18 -10 -23 -9 -30 6 -47 10 -11 13 -20 7 -20 -7 0 -12
4 -12 9 0 15 -66 41 -105 41 -33 0 -36 -2 -25 -15 7 -9 20 -15 29 -14 42 4 63
-3 97 -33 45 -40 59 -74 43 -105 -10 -19 -8 -26 15 -53 32 -39 33 -61 3 -96
-22 -26 -27 -27 -68 -18 -38 8 -44 13 -47 37 -3 24 2 30 27 40 17 6 31 16 31
22 0 18 -23 35 -46 35 -13 0 -25 4 -28 9 -3 4 -16 6 -29 4 -18 -4 -28 2 -42
24 -10 15 -26 36 -36 46 -11 10 -19 32 -19 51 0 30 -3 33 -24 29 -13 -3 -27 0
-30 6 -4 6 -32 11 -62 11 -81 0 -134 -37 -135 -94 l0 -31 -16 23 c-19 27 -37
29 -30 3 3 -14 1 -18 -9 -14 -8 3 -14 1 -14 -5 0 -5 7 -12 15 -16 8 -3 20 -17
25 -32 6 -14 19 -28 30 -31 32 -8 128 -182 114 -205 -9 -14 -9 -146 0 -189 7
-34 -10 -106 -55 -234 -6 -16 -18 -59 -26 -95 -9 -36 -25 -96 -36 -135 -22
-75 -24 -81 -26 -92 0 -4 -20 12 -44 35 -41 40 -123 76 -150 66 -7 -2 -46 -8
-87 -13 -341 -40 -484 -85 -587 -187 -58 -58 -75 -103 -72 -187 4 -100 103
-198 214 -214 44 -6 118 23 142 56 13 18 13 18 32 -49 5 -19 17 -55 26 -80 9
-25 19 -92 22 -151 7 -121 -1 -138 -46 -93 -83 82 -266 53 -383 -62 -27 -25
-48 -54 -48 -63 0 -9 -9 -42 -20 -74 -15 -43 -20 -82 -20 -164 0 -119 13 -156
67 -189 15 -10 56 -47 91 -82 35 -35 79 -70 98 -78 28 -12 34 -20 34 -44 0
-20 5 -30 15 -30 35 0 8 85 -32 102 -16 7 -34 21 -41 30 -7 10 -21 18 -31 18
-10 0 -22 13 -29 34 -15 40 -39 63 -71 68 -60 8 -110 143 -77 209 9 18 14 40
11 49 -3 10 1 23 10 30 8 7 15 28 15 47 0 47 21 83 73 126 82 67 110 79 194
80 67 2 83 -1 110 -21 18 -13 36 -35 39 -50 4 -15 13 -32 21 -39 13 -10 14
-38 9 -190 -9 -213 -9 -205 4 -368 5 -71 12 -175 15 -230 3 -55 9 -116 15
-135 20 -70 15 -73 -50 -26 -48 35 -72 46 -116 52 -66 8 -120 -6 -162 -41 -17
-14 -40 -25 -53 -25 -13 0 -39 -14 -58 -30 -39 -34 -44 -36 -61 -15 -7 8 -19
15 -26 15 -25 0 -15 -36 18 -60 l31 -23 18 21 c9 12 22 22 27 22 5 0 15 7 22
15 9 11 16 13 24 5 20 -20 42 -10 80 36 l39 46 59 -5 c59 -5 130 -35 158 -66
76 -84 87 -105 119 -236 29 -123 38 -185 26 -185 -3 0 -22 8 -43 19 -58 29
-176 47 -209 32 -26 -12 -30 -10 -53 17 -28 33 -104 62 -163 62 -23 0 -65 -13
-103 -31 -54 -25 -64 -34 -64 -56 0 -25 1 -25 22 -9 31 23 79 44 130 57 58 16
132 -10 154 -53 l15 -28 -34 0 c-36 0 -111 -46 -145 -90 -11 -14 -27 -50 -36
-82 -16 -56 -60 -108 -92 -108 -8 0 -14 -10 -14 -22 0 -17 3 -19 12 -10 7 7
22 12 33 12 12 0 31 13 43 30 13 17 29 30 36 30 8 0 16 18 20 48 11 82 103
171 161 156 19 -5 32 0 51 19 14 14 38 27 52 29 37 4 152 -19 179 -37 50 -33
93 -86 93 -115 0 -15 4 -30 9 -32 4 -1 27 -47 50 -100 41 -94 52 -111 133
-218 122 -160 170 -367 114 -489 -18 -39 -21 -65 -21 -176 0 -181 16 -229 103
-312 52 -49 64 -65 54 -75 -16 -16 -15 -43 2 -58 11 -8 12 -18 6 -33 -5 -12
-12 -39 -15 -60 -5 -33 -12 -41 -43 -53 -73 -29 -138 -59 -185 -86 -57 -33
-67 -34 -67 -8 0 10 -5 31 -12 46 -11 24 -10 28 15 48 34 27 34 36 2 36 -27 0
-34 21 -13 37 21 16 91 31 128 28 43 -3 66 11 49 31 -9 11 -8 18 0 28 16 19
-2 30 -32 20 -12 -4 -54 -6 -92 -5 -50 1 -76 -3 -90 -13 -28 -21 -35 -20 -35
9 0 16 6 25 15 25 8 0 15 4 15 10 0 18 45 39 108 52 64 13 85 30 44 36 -21 3
-32 22 -12 22 6 0 10 5 10 10 0 6 -8 10 -17 10 -9 0 -24 7 -34 16 -23 21 -82
12 -146 -22 -25 -14 -52 -23 -60 -20 -26 10 -54 -13 -51 -42 2 -21 8 -26 24
-24 28 4 42 -42 21 -67 -8 -9 -18 -27 -22 -40 -7 -23 -6 -23 28 -17 l36 7 -1
-126 -1 -125 -27 0 c-15 0 -42 -3 -59 -6 -28 -6 -31 -4 -31 20 0 14 -5 35 -12
45 -9 15 -9 23 1 35 8 9 19 16 26 16 7 0 20 11 29 25 15 22 15 28 2 53 -8 15
-26 38 -40 51 -33 31 -33 39 0 51 20 8 24 14 19 33 -4 12 -16 29 -26 37 -15
12 -19 33 -23 101 -2 55 0 96 8 110 9 19 9 30 -3 53 -13 27 -12 30 5 43 11 9
33 13 54 10 19 -2 45 0 57 4 13 5 33 5 46 0 17 -7 29 -3 55 18 36 31 33 41
-13 41 -46 0 -49 10 -10 31 26 14 46 17 75 13 37 -6 40 -4 50 21 8 20 8 31 0
39 -14 14 -131 13 -230 -1 -41 -6 -79 -8 -84 -5 -14 8 24 25 63 28 190 18 189
18 171 39 -8 10 -31 15 -70 15 -42 0 -59 4 -64 15 -3 9 -18 15 -37 15 -18 0
-30 2 -28 5 3 2 67 7 143 10 76 2 142 8 147 11 6 3 8 12 5 20 -4 10 3 14 24
14 37 0 43 10 20 40 -17 22 -24 24 -116 23 -55 -1 -111 -6 -126 -12 -34 -13
-35 -5 -7 26 20 20 20 23 5 29 -10 4 -41 4 -69 1 l-52 -6 39 19 c23 12 74 23
125 27 66 6 86 11 86 23 0 8 -10 16 -22 18 -12 2 -27 10 -33 18 -7 8 -31 14
-54 15 -32 0 -37 2 -21 9 11 5 37 11 57 15 21 3 38 10 38 14 0 11 -25 21 -52
21 -39 0 -10 12 36 15 56 4 66 10 58 38 -8 32 -16 35 -118 42 -73 6 -103 4
-140 -9 -26 -9 -59 -16 -74 -16 -34 0 -110 -37 -110 -53 0 -7 15 -17 32 -22
26 -8 32 -15 30 -32 -2 -12 2 -24 8 -28 22 -14 8 -24 -47 -35 -89 -17 -106
-26 -100 -56 5 -28 -9 -39 -65 -49 -31 -6 -37 -4 -43 14 -11 36 -90 96 -142
108 -50 12 -63 10 -63 -11 0 -8 12 -11 35 -8 37 4 83 -18 122 -60 24 -26 30
-53 19 -86 -8 -25 16 -62 41 -62 7 0 13 -4 13 -8 0 -14 -156 -74 -194 -75 -56
-2 -42 -21 24 -36 46 -10 70 -11 104 -2 58 14 58 14 44 -9 -14 -21 -71 -45
-87 -36 -5 3 -33 0 -63 -8 -48 -12 -53 -16 -53 -42 0 -41 45 -52 121 -31 32 9
62 13 67 10 6 -4 -6 -11 -28 -17 -38 -11 -66 -39 -52 -52 4 -4 37 -12 73 -18
l67 -11 28 -85 c16 -47 33 -86 39 -88 16 -6 1 -22 -21 -22 -17 0 -21 -8 -18
-37 0 -5 -10 -10 -23 -13 -38 -10 -28 -34 17 -40 36 -5 40 -7 41 -38 1 -18 -2
-35 -7 -38 -5 -3 -9 -14 -9 -25 0 -12 -7 -19 -19 -19 -24 0 -43 23 -35 43 11
29 -18 29 -48 1 -28 -27 -34 -29 -114 -29 -72 1 -84 -2 -84 -16 0 -9 7 -20 16
-23 25 -9 95 -7 138 5 30 8 45 8 63 -2 12 -7 23 -15 23 -18 0 -4 -23 -17 -52
-31 -41 -20 -54 -32 -63 -59 -14 -44 -25 -47 -66 -22 -40 25 -59 27 -59 6 0
-8 6 -15 14 -15 7 0 21 -11 30 -25 9 -14 26 -25 37 -25 22 0 79 54 79 75 0 41
96 63 143 32 20 -13 25 -27 30 -88 4 -44 2 -78 -4 -85 -5 -7 -29 -12 -52 -12
-48 1 -157 -28 -157 -42 0 -19 21 -20 76 -4 50 14 58 14 71 1 12 -12 21 -13
39 -5 13 6 24 14 24 18 0 11 58 33 72 28 7 -3 61 -2 121 1 104 6 146 -2 69
-14 -20 -3 -59 -10 -87 -16 -27 -5 -63 -12 -80 -15 -49 -10 -125 -51 -162 -89
-33 -34 -34 -38 -23 -65 10 -25 10 -34 -4 -55 -9 -14 -20 -25 -24 -25 -4 0
-14 -16 -21 -35 -17 -47 -75 -105 -105 -105 -13 0 -31 -3 -39 -6 -12 -4 -14 0
-10 15 3 12 11 21 19 21 7 0 31 7 53 16 31 12 45 26 65 67 48 99 49 107 25
134 -26 27 -51 31 -42 6 5 -13 2 -15 -15 -11 -12 4 -26 0 -33 -8 -6 -8 -16
-11 -21 -8 -5 3 -12 -4 -15 -16 -4 -13 -11 -19 -20 -16 -9 4 -17 -1 -20 -14
-3 -11 -11 -20 -18 -20 -11 0 -14 -28 -14 -122 l0 -121 1177 6 c647 4 1772 10
2500 14 1275 6 1322 7 1322 25 0 19 -31 20 -695 19 -130 0 -202 3 -189 9 31
12 37 37 15 59 -11 11 -22 30 -26 43 -4 12 -13 33 -20 44 -12 19 -11 23 16 43
31 23 36 45 17 86 -7 15 -8 29 -2 34 5 5 99 12 209 16 199 6 216 9 235 45 8
14 -4 27 -65 70 -71 50 -73 53 -59 75 11 17 12 34 5 81 -5 32 -12 69 -16 82
-5 14 -3 22 5 22 6 0 14 -9 17 -19 3 -14 16 -20 45 -23 22 -2 41 -1 43 2 2 3
40 3 84 -1 57 -5 88 -13 110 -28 16 -12 49 -30 73 -40 33 -14 39 -20 26 -26
-18 -7 -39 2 -106 47 -22 15 -52 30 -66 34 -43 10 -32 -20 14 -41 53 -24 57
-32 26 -56 -19 -15 -26 -30 -26 -54 0 -31 -3 -35 -34 -41 -19 -3 -42 -14 -52
-25 -22 -24 -6 -44 48 -61 l39 -11 -65 -17 c-36 -9 -68 -19 -72 -22 -13 -14
18 -48 44 -49 20 -1 13 -5 -28 -18 -57 -18 -67 -31 -56 -77 5 -17 13 -24 31
-24 27 0 33 18 13 38 -19 19 0 27 70 27 l67 0 -3 -87 c-1 -55 2 -89 9 -93 21
-13 32 14 38 96 l6 83 100 -3 c87 -2 104 0 124 17 30 24 23 69 -12 74 -17 2
-21 9 -19 26 3 23 2 24 -70 22 -94 -3 -123 -1 -116 5 3 3 48 8 99 11 52 2 98
9 102 13 19 19 -6 31 -61 32 -40 1 -50 3 -32 8 14 4 25 13 25 21 0 12 -17 16
-72 18 l-73 3 0 29 c0 27 3 30 33 29 31 -2 31 -2 4 -6 -46 -7 -31 -37 20 -41
33 -2 44 1 57 19 8 12 13 26 10 31 -3 4 -1 8 5 8 11 0 44 -45 54 -73 7 -19 34
-33 44 -23 9 8 -27 85 -47 99 -9 7 -20 18 -24 24 -11 19 22 4 77 -35 l47 -34
0 26 c0 14 -4 26 -9 26 -4 0 -24 11 -44 25 -20 13 -55 29 -78 35 -23 6 -59 23
-81 38 -34 22 -82 38 -248 82 -19 5 -57 10 -85 10 -64 0 -123 21 -157 55 -24
23 -28 34 -28 84 0 61 13 82 69 111 27 14 65 -1 82 -32 13 -25 54 -25 43 0 -5
9 -7 36 -7 60 2 46 1 47 -30 30 -12 -6 -38 -13 -58 -14 -50 -3 -94 -28 -123
-71 l-25 -37 -16 37 c-8 20 -15 41 -15 46 0 6 -12 40 -27 76 -22 53 -25 70
-16 84 7 10 9 28 6 40 -9 37 61 95 135 112 47 10 117 -18 134 -55 13 -30 29
-32 63 -10 18 12 28 13 44 4 27 -14 27 -14 -10 -60 -17 -21 -34 -54 -38 -72
-16 -75 20 -169 68 -176 28 -4 27 12 -4 52 -37 49 -35 120 4 166 26 31 32 34
50 22 28 -16 28 -16 34 17 7 32 45 81 88 111 24 18 37 20 89 14 74 -8 100 -28
109 -80 5 -30 11 -38 25 -36 10 2 27 -4 37 -14 18 -16 19 -16 19 9 0 36 -10
57 -26 57 -8 0 -20 15 -28 34 -8 19 -24 39 -35 46 -29 15 -26 27 7 35 35 8 82
53 82 79 0 17 -6 14 -40 -19 -22 -21 -52 -41 -67 -42 -16 -2 -33 -10 -39 -18
-7 -10 -29 -15 -61 -15 -28 0 -66 -7 -85 -15 -34 -14 -98 -76 -98 -95 0 -18
-29 -10 -35 10 -7 23 -44 35 -84 27 -22 -5 -35 0 -53 17 -53 52 -144 60 -228
18 -39 -20 -61 -39 -75 -65 -11 -20 -22 -37 -25 -37 -17 0 -147 425 -155 511
-3 20 -9 56 -15 80 -7 24 -15 67 -19 94 -4 28 -12 60 -19 72 -13 24 -17 113
-4 113 4 0 14 13 23 29 22 38 133 71 183 53 43 -16 46 -15 46 8 0 24 -33 42
-70 38 -38 -4 -41 13 -8 32 22 12 30 12 51 1 31 -16 46 -9 40 21 -5 33 30 84
74 106 63 32 125 36 179 13 60 -27 72 -26 80 2 7 31 62 57 118 57 94 0 209
-58 242 -122 22 -43 36 -148 24 -188 -5 -19 -8 -36 -5 -38 8 -8 125 -10 125
-2 0 9 -35 20 -67 20 -20 0 -22 6 -26 78 -6 115 -19 151 -70 198 -55 49 -144
79 -239 79 -59 0 -70 -3 -105 -32 -39 -31 -40 -31 -90 -18 -36 9 -64 10 -99 4
-27 -6 -58 -11 -69 -12 -22 -2 -39 -19 -86 -84 -19 -27 -38 -43 -51 -43 -32 0
-87 -39 -94 -66 -4 -17 -17 -27 -45 -34 -21 -6 -47 -22 -57 -35 -11 -14 -22
-25 -26 -25 -4 0 -36 94 -36 107 0 2 7 3 15 3 8 0 23 17 32 37 12 24 27 39 43
43 24 6 29 22 19 59 -2 9 6 17 21 21 21 5 26 13 28 45 2 23 14 54 28 73 38 49
78 66 165 66 65 1 81 -3 112 -24 20 -14 42 -35 48 -47 13 -24 34 -30 44 -13
10 16 -38 74 -82 101 -31 19 -52 24 -113 24 -99 -1 -177 -35 -214 -94 -14 -22
-26 -45 -26 -49 0 -5 -13 -26 -30 -47 -17 -21 -30 -48 -30 -61 0 -12 -13 -36
-29 -52 l-29 -29 0 31 c1 70 -21 156 -56 216 -20 34 -36 66 -36 71 0 5 -9 28
-21 51 -14 27 -17 44 -11 50 6 6 8 33 5 62 -16 156 181 253 293 145 28 -27 34
-30 40 -16 4 13 10 14 24 7 43 -23 56 3 19 36 -18 16 -20 28 -17 82 5 74 26
102 85 111 27 5 39 12 41 26 2 11 6 27 9 35 3 8 5 29 4 45 -2 33 31 85 54 85
8 0 23 13 35 29 30 43 119 84 163 76 19 -4 37 -3 40 2 11 17 138 -7 184 -34
50 -29 131 -115 139 -149 6 -24 44 -35 44 -14 0 23 50 60 80 60 16 0 30 5 30
10 0 18 -67 11 -93 -10 -31 -25 -44 -25 -52 -1 -11 35 -114 119 -173 142 -46
17 -77 21 -160 20 -89 -1 -110 -5 -153 -26 l-49 -26 -25 28 c-13 15 -25 31
-25 36 0 13 -123 98 -191 132 -111 57 -296 79 -361 44 -24 -13 -35 -5 -43 31
-4 19 -1 37 8 50 8 12 13 29 10 39 -8 32 24 76 86 118 65 44 147 61 206 44 23
-6 38 -4 63 12 19 11 55 21 80 22 47 2 47 2 45 36 -3 53 26 137 60 175 61 70
203 117 285 95 84 -22 143 -63 190 -130 23 -34 42 -66 42 -71 0 -20 33 -17 66
5 40 27 64 31 97 14 32 -16 77 -61 77 -75 0 -7 5 -16 10 -19 26 -16 6 46 -27
85 l-37 43 -73 -6 -73 -5 -38 36 c-108 104 -130 119 -200 141 -104 31 -138 28
-248 -25 -85 -41 -127 -90 -153 -178 -22 -74 -24 -76 -54 -76 -17 0 -40 -9
-53 -21 -19 -18 -37 -21 -116 -23 -108 -3 -139 -15 -215 -82 -40 -34 -54 -54
-59 -82 -3 -20 -11 -51 -17 -69 -8 -23 -8 -42 1 -70 11 -35 10 -39 -11 -55
-12 -10 -29 -18 -38 -18 -9 0 -22 -7 -30 -16 -9 -11 -22 -14 -45 -9 -60 11
-188 -62 -223 -129 -18 -32 -28 -26 -36 24 -8 45 -19 57 -40 40 -10 -8 -15 -8
-20 1 -5 6 4 21 20 33 22 18 27 28 23 50 l-6 28 120 -4 c116 -3 120 -2 138 21
25 34 27 136 2 146 -9 4 -64 8 -121 9 l-105 1 -13 85 -12 85 34 30 c29 25 37
42 49 98 8 37 24 87 36 112 12 25 20 55 17 66 -4 15 1 23 18 29 13 5 26 19 30
31 l7 21 26 -25 c24 -25 25 -27 9 -51 -9 -14 -13 -27 -9 -30 9 -5 7 -94 -3
-126 -9 -27 11 -52 21 -27 10 27 25 20 18 -8 -3 -14 -4 -25 -1 -25 14 0 57 24
57 32 0 5 16 6 35 2 37 -7 52 13 17 23 -22 5 -52 68 -52 106 0 15 -5 27 -11
27 -6 0 -8 7 -5 16 4 10 -1 22 -11 29 -13 10 -15 16 -6 27 7 8 11 37 11 66 -1
44 3 57 25 80 16 17 27 39 27 57 0 184 15 245 60 245 42 0 241 120 283 170 20
23 25 38 21 59 -5 24 -1 31 30 49 38 23 42 32 25 63 -8 17 -5 25 20 48 58 54
36 81 -65 77 -62 -2 -80 -7 -149 -46 -44 -24 -92 -52 -107 -63 -40 -29 -43
-16 -11 41 27 49 27 52 10 69 -16 17 -18 16 -50 -1 -17 -11 -48 -34 -67 -52
-19 -18 -53 -49 -76 -68 -43 -38 -64 -86 -64 -151 0 -42 -43 -125 -64 -125
-18 0 -84 -74 -102 -114 -7 -17 -27 -47 -43 -66 l-30 -35 -2 105 c-1 149 3
1266 6 1440 1 80 5 410 9 735 8 639 7 652 -45 734 -16 25 -29 50 -29 57 0 10
-21 24 -36 24 -2 0 -24 -26 -49 -57z m38 -708 c-2 -540 -8 -982 -18 -1400 -2
-88 -6 -284 -10 -435 -3 -151 -7 -333 -10 -405 -3 -71 -8 -260 -11 -420 -5
-248 -8 -292 -22 -302 -24 -19 -6 -28 56 -29 115 -3 158 -34 47 -34 -50 0 -65
-3 -65 -14 0 -22 9 -24 72 -17 75 9 88 1 88 -55 l0 -45 -139 2 c-152 4 -150 3
-151 67 0 19 5 22 34 22 41 0 54 15 28 31 -16 10 -18 23 -15 118 2 58 5 180 8
271 2 91 6 183 8 205 2 22 7 193 10 380 9 455 20 984 22 1070 1 39 3 140 5
225 2 98 7 158 14 163 8 6 8 10 0 13 -8 3 -11 43 -8 127 8 322 14 643 15 852
0 196 3 233 17 258 l17 28 5 -43 c3 -24 4 -308 3 -633z m75 -465 c-1 -591 -6
-1192 -9 -1335 -4 -143 -10 -451 -14 -684 -7 -407 -8 -426 -28 -452 -11 -16
-24 -26 -30 -22 -6 3 -7 75 -3 187 11 308 15 496 21 906 3 217 7 546 10 730 6
453 16 1112 20 1405 5 417 3 383 21 360 14 -18 15 -140 12 -1095z m-1914 -689
c9 -10 21 -33 26 -51 12 -40 -14 -89 -56 -108 -33 -16 -26 -36 14 -40 25 -3
32 -8 32 -25 0 -12 3 -32 6 -44 4 -15 0 -23 -15 -28 -33 -10 -55 10 -95 87
-21 40 -44 80 -51 88 -38 43 -38 86 1 124 23 24 116 22 138 -3z m629 -77 c9
-10 -4 -34 -18 -34 -17 0 -28 17 -20 30 7 11 28 13 38 4z m-568 -73 c-3 -6
-11 -11 -17 -11 -6 0 -6 6 2 15 14 17 26 13 15 -4z m647 -87 c4 -3 8 -11 8
-19 0 -9 -31 -18 -97 -30 -54 -9 -127 -23 -163 -31 -36 -8 -150 -30 -255 -49
-104 -19 -202 -37 -216 -41 -25 -5 -27 -3 -25 28 2 33 3 33 76 50 41 10 91 23
111 29 24 8 42 8 55 1 10 -5 38 -13 60 -17 37 -6 44 -3 62 20 20 25 25 27 79
20 50 -5 62 -3 85 14 14 12 37 21 50 22 12 0 32 4 43 9 19 9 110 4 127 -6z m1
-149 c4 -43 2 -73 -5 -84 -9 -15 -8 -27 5 -54 9 -19 17 -46 17 -60 0 -13 7
-30 15 -37 16 -13 21 -50 7 -50 -4 0 -13 5 -19 11 -15 15 -54 1 -52 -19 1 -9
1 -22 0 -28 -1 -12 -47 -29 -68 -25 -7 1 -17 -7 -23 -18 -15 -29 14 -43 51
-24 36 18 51 9 43 -23 -3 -13 -1 -31 6 -39 6 -8 9 -19 5 -26 -12 -18 -157 -5
-204 18 -73 37 -83 -13 -11 -57 27 -17 40 -32 40 -47 0 -12 12 -34 26 -50 22
-24 25 -34 19 -69 -3 -24 -2 -45 4 -48 10 -7 36 15 44 36 3 9 10 7 27 -7 27
-24 42 -59 34 -80 -8 -19 -48 -19 -64 0 -7 8 -21 15 -32 15 -11 0 -32 9 -47
19 -27 19 -243 81 -283 81 -17 0 -18 2 -8 15 8 9 10 29 7 50 l-6 35 45 0 c40
0 44 2 44 24 0 14 -4 28 -10 31 -18 11 -11 23 10 18 11 -3 20 0 20 6 0 8 5 8
19 0 23 -15 51 -5 51 18 0 10 6 28 14 39 8 11 14 38 13 61 -1 23 6 51 16 66 9
15 17 33 17 40 0 8 7 31 16 52 8 21 12 45 8 54 -16 37 -13 57 16 97 21 29 26
44 18 47 -7 2 -1 8 15 12 15 4 27 11 27 16 0 5 7 9 15 9 8 0 15 5 15 10 0 6
13 10 29 10 16 0 34 7 41 15 19 23 27 10 33 -60z m-336 -41 c-3 -3 -12 -4 -19
-1 -8 3 -5 6 6 6 11 1 17 -2 13 -5z m-105 -38 c7 5 8 2 4 -5 -5 -7 -11 -10
-14 -7 -3 3 -11 1 -19 -5 -10 -9 -13 -8 -13 4 0 17 23 29 28 15 2 -4 9 -5 14
-2z m161 1 c3 -8 -1 -14 -9 -14 -8 0 -14 6 -14 14 0 7 4 13 9 13 5 0 11 -6 14
-13z m22 -106 c3 -5 1 -12 -5 -16 -5 -3 -10 1 -10 9 0 18 6 21 15 7z m-269
-51 c0 -11 -4 -20 -8 -20 -10 0 -11 24 -1 33 9 9 9 10 9 -13z m2206 -13 c-58
-58 -82 -99 -81 -141 1 -27 -6 -54 -21 -79 -21 -35 -21 -40 -7 -54 19 -19 32
-11 53 33 20 42 38 33 48 -26 4 -27 10 -38 19 -34 15 5 17 90 3 112 -10 16 29
52 65 59 29 5 29 5 18 -19 -8 -19 -8 -31 0 -46 16 -31 13 -42 -11 -42 l-22 0
21 -22 22 -21 76 46 c107 66 97 33 -12 -37 -48 -31 -98 -59 -112 -62 -15 -3
-51 -14 -81 -26 -30 -11 -70 -19 -87 -19 -27 1 -33 -2 -33 -18 0 -11 7 -26 15
-35 20 -19 19 -34 -3 -71 -10 -16 -27 -52 -37 -78 -18 -49 -43 -78 -33 -39 5
17 -1 25 -33 38 -28 13 -42 28 -54 56 -19 48 -19 62 0 78 8 7 15 21 15 31 0
11 4 19 8 19 11 0 62 78 62 94 0 7 5 17 11 23 5 5 14 37 18 69 12 79 35 132
63 144 13 5 46 29 73 54 50 44 78 55 37 13z m-2037 -7 c3 -5 2 -10 -4 -10 -5
0 -13 5 -16 10 -3 6 -2 10 4 10 5 0 13 -4 16 -10z m2308 -23 c-51 -45 -98 -77
-113 -77 -7 0 -1 9 13 20 14 11 28 20 32 20 4 0 16 12 27 26 18 23 49 42 71
43 4 1 -10 -14 -30 -32z m-103 -2 c0 -2 -10 -9 -22 -15 -22 -11 -22 -10 -4 4
21 17 26 19 26 11z m-2153 -31 c-3 -3 -12 -4 -19 -1 -8 3 -5 6 6 6 11 1 17 -2
13 -5z m2048 -28 c-34 -28 -62 -38 -70 -26 -3 5 8 11 24 15 16 3 35 13 42 21
6 8 17 14 23 14 6 0 -2 -11 -19 -24z m240 14 c-3 -5 -16 -15 -28 -21 -21 -10
-21 -9 2 10 25 23 36 27 26 11z m-2352 -52 c-17 -19 -17 -21 5 -38 21 -17 18
-37 -3 -22 -31 22 -37 41 -24 71 10 23 16 27 26 19 11 -9 10 -15 -4 -30z
m2192 1 c-4 -5 -12 -9 -18 -8 -9 0 -8 2 1 6 6 2 9 10 6 15 -4 7 -2 8 5 4 6 -4
9 -12 6 -17z m60 -24 c-21 -18 -42 -32 -46 -29 -4 2 -9 -3 -13 -11 -3 -8 -12
-15 -21 -15 -24 0 -17 17 13 29 15 6 41 22 57 36 46 37 55 29 10 -10z m-2190
-5 c3 -5 1 -10 -4 -10 -6 0 -11 5 -11 10 0 6 2 10 4 10 3 0 8 -4 11 -10z
m-215 -4 c0 -3 -4 -8 -10 -11 -5 -3 -10 -1 -10 4 0 6 5 11 10 11 6 0 10 -2 10
-4z m-20 -102 c0 -8 -4 -12 -10 -9 -5 3 -10 10 -10 16 0 5 5 9 10 9 6 0 10 -7
10 -16z m93 -30 c-3 -9 -9 -12 -12 -7 -3 4 -10 11 -15 16 -5 4 0 7 12 7 15 0
20 -4 15 -16z m-151 -26 c-7 -7 -12 -8 -12 -2 0 14 12 26 19 19 2 -3 -1 -11
-7 -17z m-37 -18 c3 -5 1 -10 -4 -10 -6 0 -11 5 -11 10 0 6 2 10 4 10 3 0 8
-4 11 -10z m103 -26 c-14 -14 -15 -14 -10 11 3 19 8 23 15 16 8 -8 7 -16 -5
-27z m-128 -24 c0 -6 -7 -13 -15 -16 -8 -4 -15 -12 -15 -18 0 -7 -18 -25 -40
-42 -43 -31 -49 -44 -23 -44 14 0 14 -2 -2 -20 -13 -14 -15 -24 -8 -31 6 -6 8
-24 3 -43 -8 -36 7 -83 31 -102 8 -6 31 -17 51 -25 34 -12 40 -11 65 7 16 11
36 23 46 27 9 3 17 15 17 26 0 26 34 33 75 15 19 -8 44 -14 55 -14 11 0 20 -4
20 -8 0 -19 -25 -29 -63 -25 -35 4 -50 -1 -90 -28 -48 -32 -50 -37 -32 -81 5
-13 -1 -21 -28 -34 -33 -16 -57 -49 -57 -79 0 -8 -10 -31 -22 -52 -19 -31 -23
-53 -23 -115 0 -70 2 -80 26 -104 30 -29 103 -48 131 -33 14 8 18 6 18 -9 0
-23 19 -41 54 -50 37 -10 36 -26 -1 -30 -21 -2 -41 -14 -57 -32 -23 -28 -25
-28 -40 -11 -9 10 -16 28 -16 40 0 12 -13 36 -29 52 -41 41 -101 41 -142 0
-17 -17 -29 -40 -29 -55 0 -34 -6 -33 -42 6 l-31 33 23 40 c13 22 46 69 73
104 41 53 48 67 39 82 -9 13 -7 23 7 41 11 13 22 49 26 80 5 36 14 63 26 74
26 24 24 60 -7 91 -22 21 -32 25 -66 20 -31 -4 -47 -1 -69 15 -18 14 -37 19
-58 16 -42 -6 -36 9 20 50 72 55 80 62 74 72 -9 15 -51 12 -64 -4 -7 -8 -22
-17 -35 -20 -12 -3 -28 -17 -34 -31 -7 -15 -17 -23 -22 -20 -17 10 -50 -5 -50
-23 0 -9 -7 -26 -15 -36 -18 -23 -20 -87 -4 -103 8 -8 9 -20 1 -42 -8 -22 -7
-43 3 -80 18 -69 9 -165 -20 -216 -24 -42 -24 -36 1 -170 4 -22 11 -48 16 -57
6 -12 2 -29 -12 -55 -11 -21 -20 -43 -20 -49 0 -7 -11 -32 -25 -55 -17 -31
-25 -38 -25 -24 0 11 -1 115 -1 230 -2 350 -34 571 -102 698 -40 75 -130 161
-185 178 -53 15 -54 29 -2 29 25 0 39 -4 38 -11 -2 -7 11 -16 29 -21 37 -10
113 -92 144 -155 11 -24 25 -43 30 -43 19 0 7 37 -29 91 -42 63 -94 112 -138
130 l-29 12 52 9 c42 8 56 6 77 -7 14 -10 26 -22 26 -28 0 -6 -11 0 -25 13
-17 16 -28 21 -36 13 -7 -7 4 -25 35 -58 25 -26 55 -67 67 -91 11 -24 24 -44
28 -44 20 0 18 17 -9 71 -17 32 -30 64 -30 70 0 18 38 -35 56 -76 16 -39 41
-42 36 -5 -1 12 5 28 15 35 15 11 15 14 -4 41 -12 16 -30 38 -42 48 -29 26
-26 36 10 36 26 0 29 -3 24 -20 -4 -13 1 -30 14 -46 12 -15 21 -31 21 -37 0
-13 31 -36 49 -37 8 0 11 7 8 20 -3 11 -1 20 3 20 10 0 24 -20 25 -35 1 -5 5
-17 9 -27 4 -9 1 -30 -9 -50 l-17 -33 36 35 c20 19 40 48 45 65 6 26 12 30 41
30 25 0 35 5 40 20 6 21 109 134 123 135 4 0 7 -5 7 -10z m-480 -39 c0 -18
-18 -21 -30 -6 -10 13 -9 15 9 15 11 0 21 -4 21 -9z m640 -19 c14 -11 19 -23
14 -35 -5 -15 -14 -16 -58 -10 -28 3 -60 7 -71 7 -33 1 -23 -26 14 -39 22 -7
30 -14 23 -19 -9 -5 -8 -13 4 -31 15 -23 15 -25 0 -31 -9 -3 -16 -12 -16 -19
0 -19 -55 -75 -73 -75 -32 0 -48 30 -45 84 3 47 5 51 28 51 18 0 25 6 25 20 0
13 -7 20 -19 20 -24 0 -29 15 -13 35 18 22 56 42 67 35 5 -3 19 -1 30 5 17 9
20 8 21 -7 0 -15 2 -15 16 5 19 27 24 27 53 4z m515 8 c18 0 45 -28 45 -46 0
-8 -4 -13 -8 -10 -4 2 -14 1 -22 -4 -9 -6 -20 2 -37 26 -27 41 -29 48 -7 40 9
-3 22 -6 29 -6z m-1000 -36 c24 -37 13 -40 -14 -4 -12 17 -17 30 -12 30 5 0
16 -12 26 -26z m-125 1 c11 -13 10 -14 -4 -9 -9 3 -16 10 -16 15 0 13 6 11 20
-6z m1250 0 c0 -8 -4 -15 -9 -15 -5 0 -11 7 -15 15 -3 9 0 15 9 15 8 0 15 -7
15 -15z m-580 -13 c0 -13 -12 -22 -22 -16 -10 6 -1 24 13 24 5 0 9 -4 9 -8z
m117 -16 c16 -15 0 -41 -21 -33 -9 4 -13 13 -10 22 7 18 -16 21 -34 3 -15 -15
-27 -4 -19 16 7 18 63 12 84 -8z m-1057 -9 c38 -16 90 -63 117 -104 26 -40 72
-187 98 -319 24 -115 25 -145 29 -525 5 -423 13 -527 57 -717 11 -50 25 -92
29 -92 5 0 10 -8 12 -17 5 -26 75 -28 83 -2 7 23 33 25 41 4 4 -8 13 -15 20
-15 8 0 17 7 20 15 9 23 65 19 71 -5 7 -26 18 -25 38 3 15 20 17 21 26 5 13
-23 27 -23 51 -1 17 15 20 15 28 3 8 -13 13 -12 39 3 37 21 77 22 85 1 6 -15
8 -15 30 -1 16 11 26 13 34 5 6 -6 18 -7 29 -2 10 4 29 9 43 10 14 1 42 5 63
9 26 5 46 3 64 -6 22 -12 27 -11 38 4 15 20 28 21 55 5 16 -10 24 -10 40 0 16
10 24 10 40 0 15 -10 22 -10 32 0 6 6 25 12 40 12 21 0 31 -6 38 -25 5 -14 14
-25 20 -25 6 0 16 11 22 25 13 28 23 32 32 10 3 -8 12 -15 21 -15 9 0 18 7 21
15 4 8 10 15 16 15 5 0 7 -4 4 -9 -3 -5 1 -14 9 -21 11 -9 19 -7 40 14 30 30
40 32 49 11 7 -21 43 -19 56 3 10 16 10 16 20 0 14 -23 29 -23 55 2 l22 21 17
-26 c21 -32 32 -32 49 1 12 23 15 24 26 10 17 -20 51 -21 51 -1 0 26 88 20
118 -7 l23 -23 19 25 c18 24 19 24 39 6 21 -19 22 -19 45 3 l23 22 17 -26 c20
-30 36 -32 43 -5 7 26 20 25 44 -2 l19 -23 23 28 c28 34 40 34 62 0 l18 -27
18 22 c22 28 56 28 78 0 20 -24 41 -17 41 13 0 16 7 19 42 19 33 0 39 -3 30
-12 -7 -7 -12 -22 -12 -34 0 -17 -8 -23 -36 -27 -20 -4 -45 -2 -56 4 -13 7
-43 6 -96 -2 -53 -9 -179 -12 -402 -11 -179 1 -399 -3 -490 -8 -91 -5 -354
-12 -585 -15 -393 -6 -581 -15 -605 -30 -14 -9 -13 -30 3 -43 7 -6 14 -39 15
-73 2 -35 5 -66 8 -70 2 -4 10 -41 18 -83 8 -42 21 -91 29 -108 7 -18 22 -58
31 -88 11 -31 43 -86 76 -130 75 -97 210 -225 255 -240 19 -6 35 -18 35 -25 0
-25 50 -74 88 -86 20 -6 49 -23 64 -37 22 -20 36 -25 75 -23 26 1 64 10 84 21
31 16 44 17 75 8 20 -5 49 -7 64 -5 14 3 46 1 69 -4 29 -6 54 -6 75 0 53 18
228 22 246 7 52 -45 149 -18 232 65 33 32 65 59 71 59 17 0 77 62 77 80 0 9
21 36 46 60 52 51 119 142 158 215 25 48 39 92 72 220 30 120 45 166 63 183
10 9 21 33 25 53 9 53 30 65 109 67 37 1 67 -1 67 -3 0 -3 -11 -12 -25 -21
-20 -13 -28 -14 -40 -4 -16 13 -45 7 -45 -9 0 -5 9 -13 20 -16 16 -5 18 -10 9
-26 -8 -16 -17 -18 -45 -13 -42 8 -45 -7 -6 -42 l27 -25 -37 7 c-42 7 -51 -8
-18 -28 26 -16 27 -42 1 -35 -10 2 -25 1 -32 -4 -11 -8 -10 -13 8 -28 28 -24
21 -61 -12 -61 -12 0 -28 -7 -35 -15 -10 -12 -7 -15 14 -21 14 -3 26 -13 26
-21 0 -10 -7 -14 -20 -10 -11 3 -25 -2 -32 -10 -11 -13 -9 -18 10 -31 33 -21
29 -43 -7 -36 -42 9 -50 -13 -15 -41 31 -25 23 -35 -26 -32 -19 2 -25 -3 -25
-18 0 -11 -6 -25 -14 -31 -12 -9 -12 -16 -2 -42 16 -39 7 -55 -28 -47 -39 8
-64 -21 -36 -41 15 -11 16 -17 7 -26 -9 -9 -15 -9 -24 0 -7 7 -20 12 -30 12
-25 0 -36 -30 -15 -42 26 -14 20 -26 -15 -30 -27 -2 -33 -7 -33 -25 0 -13 -19
-45 -43 -73 -24 -27 -49 -65 -57 -84 -8 -18 -20 -36 -28 -39 -23 -9 -49 -75
-42 -107 8 -36 3 -37 -35 -9 -37 28 -119 23 -153 -9 -12 -12 -41 -24 -64 -28
-37 -6 -46 -3 -73 22 -54 52 -136 60 -175 18 l-25 -27 -21 27 c-14 18 -30 26
-51 26 -37 0 -96 -27 -111 -52 -14 -21 -32 -24 -24 -4 3 8 0 20 -8 26 -10 8
-17 6 -28 -10 l-14 -21 -6 21 c-5 18 -9 20 -25 11 -15 -8 -23 -7 -32 4 -7 8
-31 20 -53 26 -33 9 -47 8 -73 -4 -38 -19 -54 -8 -54 38 0 35 -24 75 -46 75
-8 0 -20 13 -27 28 -17 39 -66 104 -94 126 -18 13 -27 15 -37 7 -9 -8 -22 -7
-45 5 -30 15 -53 14 -97 -3 -14 -5 -16 -3 -11 11 4 10 -2 29 -16 47 -18 26
-27 30 -52 25 l-30 -6 25 19 c21 17 22 21 10 36 -8 9 -15 24 -16 32 -4 24 -12
27 -39 15 -14 -7 -30 -12 -35 -12 -18 0 -10 29 10 40 11 6 20 17 20 26 0 20
-27 29 -45 14 -10 -8 -15 -9 -15 -2 0 6 9 16 20 22 27 15 15 43 -17 37 -13 -2
-26 0 -29 4 -3 5 2 9 10 9 39 0 23 49 -18 51 -20 2 -20 2 2 6 32 6 27 33 -8
46 -35 13 -38 23 -10 30 31 8 24 35 -12 46 -31 9 -32 10 -10 17 29 8 25 38 -6
42 -27 4 -29 18 -2 25 25 7 16 37 -11 37 -10 0 -19 5 -19 10 0 6 8 10 18 10
26 0 33 10 21 31 -6 11 -21 19 -36 19 -30 0 -21 16 12 22 12 2 20 11 20 23 0
15 -8 21 -32 23 -40 4 -41 10 -6 37 33 27 23 49 -17 40 -23 -5 -30 -2 -35 14
-7 22 1 44 14 37 4 -3 13 -1 20 4 19 11 6 40 -19 40 -28 0 -25 19 5 30 14 5
25 14 25 19 0 16 -27 32 -44 25 -13 -5 -16 0 -16 24 0 17 6 32 15 36 22 8 18
37 -5 43 -28 7 -25 30 6 37 32 8 29 38 -5 46 -30 7 -40 30 -14 30 11 0 24 5
30 11 17 17 4 39 -23 39 -31 0 -32 27 -1 32 34 5 30 42 -5 46 -38 4 -35 28 3
36 40 8 37 40 -4 44 -32 4 -31 25 1 30 32 5 25 32 -11 45 -20 8 -17 34 3 29
16 -4 41 18 34 30 -3 5 -17 13 -30 18 -34 13 -31 39 4 37 37 -3 36 24 -3 42
l-30 15 33 8 c41 11 41 41 -1 46 -33 4 -26 22 8 22 37 0 40 18 6 38 -33 18
-40 32 -16 32 8 0 15 5 15 10 0 6 -7 13 -15 16 -20 8 -19 34 2 49 18 13 10 35
-13 35 -19 0 -18 15 2 35 13 12 14 19 5 28 -16 16 -14 37 3 37 24 0 30 21 7
27 -28 7 -27 27 2 41 l22 11 -22 7 c-26 7 -33 54 -9 54 24 0 30 21 8 27 -27 7
-33 33 -13 56 14 16 13 18 -7 24 -26 6 -31 48 -7 57 23 8 18 25 -10 32 -30 7
-31 12 -7 30 13 10 14 15 5 25 -10 10 -15 9 -28 -1 -16 -14 -18 -11 -19 40 -1
17 -6 24 -17 22 -9 -1 -23 6 -33 16 -15 17 -15 20 -1 32 8 7 15 16 15 21 0 15
-27 10 -34 -6 -8 -22 -36 -7 -36 20 0 13 -4 27 -10 30 -5 3 -10 -1 -10 -10 0
-11 -7 -15 -22 -13 -15 2 -23 10 -23 22 0 11 -6 21 -14 24 -10 3 -12 -1 -9
-15 5 -17 -1 -19 -61 -20 -83 0 -130 -21 -174 -75 -61 -75 -58 -143 8 -224 34
-41 40 -44 83 -44 42 0 52 5 90 42 35 34 42 47 40 72 -4 43 -50 66 -79 40 -10
-9 -21 -15 -24 -13 -10 10 26 47 51 53 22 6 32 2 50 -21 41 -50 27 -136 -26
-156 -17 -6 -30 -15 -30 -19 0 -21 -54 -28 -104 -14 -74 22 -99 42 -85 67 9
17 7 21 -9 26 -25 6 -47 78 -37 124 8 38 52 119 64 119 5 0 25 16 45 35 21 19
49 38 64 41 15 3 35 8 45 12 32 12 171 5 207 -11z m1691 -24 c27 -37 41 -47
60 -46 l24 3 -25 -20 c-38 -30 -55 -25 -70 20 -16 49 -36 68 -52 52 -18 -18
-38 -14 -38 7 0 18 15 27 50 30 8 0 31 -20 51 -46z m-578 21 c3 -4 -1 -17 -10
-31 -20 -30 -41 -15 -21 16 13 22 20 25 31 15z m57 -24 c0 -5 -4 -10 -9 -10
-5 0 -13 -9 -16 -21 -5 -14 -10 -18 -17 -11 -13 13 7 52 27 52 8 0 15 -4 15
-10z m270 -4 c0 -8 -7 -16 -15 -20 -15 -5 -21 14 -8 27 11 12 23 8 23 -7z
m-590 -6 c0 -5 -7 -7 -15 -4 -8 4 -15 8 -15 10 0 2 7 4 15 4 8 0 15 -4 15 -10z
m105 -12 c30 -13 31 -44 3 -62 -26 -16 -52 4 -56 43 -4 35 9 39 53 19z m276
-7 c4 -3 3 -15 -1 -27 -7 -16 -15 -19 -44 -16 -30 4 -35 7 -25 18 7 8 20 12
30 9 24 -8 24 3 2 22 -16 13 -16 13 7 7 14 -3 28 -9 31 -13z m324 9 c4 -6 21
-17 38 -24 l32 -14 -30 -13 c-16 -7 -46 -13 -65 -14 -30 0 -35 -3 -33 -22 3
-26 -18 -31 -37 -8 -10 12 -10 15 0 15 22 0 50 31 50 55 0 12 3 25 7 28 10 10
31 8 38 -3z m1117 -12 c-16 -16 -15 -55 2 -61 8 -3 21 4 30 16 l15 22 -2 -25
c-2 -19 3 -26 21 -28 16 -2 22 -8 18 -18 -3 -8 10 -31 30 -54 20 -22 33 -44
29 -50 -9 -15 -25 -12 -25 6 0 9 -7 14 -17 12 -27 -5 -23 -51 5 -63 23 -10 30
-25 12 -25 -6 0 -30 9 -52 20 -54 26 -70 26 -66 -2 2 -13 18 -29 41 -41 20
-10 37 -23 37 -27 0 -5 -16 -14 -36 -20 -47 -16 -52 -35 -19 -70 26 -28 27
-29 14 -87 -16 -75 -21 -84 -57 -106 -24 -13 -32 -14 -38 -5 -11 17 -4 381 7
393 13 13 11 52 -3 75 -11 17 -10 22 1 29 8 6 15 27 16 53 1 50 10 68 33 68
12 0 13 -3 4 -12z m279 -35 c-12 -20 -14 -14 -5 12 4 9 9 14 11 11 3 -2 0 -13
-6 -23z m-1631 7 c13 -8 12 -11 -5 -24 -24 -18 -41 -20 -50 -6 -19 30 21 52
55 30z m-1423 -15 c109 -32 166 -118 188 -285 5 -30 9 -210 10 -400 2 -320 9
-577 20 -710 11 -127 39 -316 49 -328 5 -8 11 -35 11 -60 3 -67 60 -322 96
-422 17 -47 37 -104 46 -128 16 -46 98 -155 138 -185 24 -18 34 -47 16 -47 -5
0 -19 -21 -31 -47 -28 -60 -21 -101 25 -142 34 -29 34 -31 15 -41 -24 -13 -19
-25 19 -44 22 -12 34 -13 62 -3 64 22 124 77 85 77 -11 0 -10 8 5 37 46 89
-31 160 -106 99 l-30 -25 23 -23 23 -23 19 25 c16 20 22 22 29 11 17 -26 -3
-64 -38 -74 -62 -16 -109 36 -91 101 13 51 39 73 87 75 83 3 141 -78 129 -180
-8 -65 -31 -106 -56 -98 -9 3 -23 -1 -30 -10 -7 -9 -21 -13 -35 -9 -17 4 -28
-2 -44 -22 -21 -26 -21 -29 -5 -41 13 -10 24 -8 55 8 22 11 39 16 39 11 0 -4
-29 -36 -65 -72 -71 -70 -68 -72 -83 32 -12 75 -67 200 -111 251 -118 136
-220 357 -255 557 -10 52 -26 127 -36 165 -21 76 -36 146 -46 222 -3 26 -8 51
-10 55 -3 4 -7 42 -10 85 -3 43 -11 141 -18 218 -6 77 -11 163 -9 190 8 160 9
574 1 655 -5 52 -19 131 -30 175 -11 44 -20 92 -19 108 8 150 8 147 -28 179
-30 27 -39 30 -81 26 -27 -3 -61 -15 -78 -27 -27 -19 -31 -26 -25 -54 12 -64
55 -85 93 -47 23 23 25 19 8 -13 -6 -12 -14 -29 -18 -37 -9 -20 -68 -31 -96
-18 -30 14 -54 66 -54 116 0 52 34 101 90 130 52 26 88 28 157 7z m1161 -7 c2
-9 -6 -18 -18 -21 -16 -4 -20 -2 -16 10 3 8 6 19 6 25 0 15 25 3 28 -14z m367
-42 c0 -35 -4 -50 -17 -57 -21 -12 -31 2 -22 34 7 29 -11 44 -31 27 -8 -7 -15
-9 -15 -4 1 12 62 53 75 50 6 -2 10 -24 10 -50z m-288 30 c12 -1 25 -4 29 -8
4 -5 18 -8 31 -8 29 0 29 -15 1 -46 -31 -32 -54 -30 -72 5 -9 16 -22 31 -31
34 -8 4 -15 14 -15 23 0 12 5 14 18 9 9 -4 27 -8 39 -9z m920 -25 c12 -9 23
-19 23 -23 0 -4 -34 -14 -76 -24 -58 -12 -81 -14 -100 -5 -24 10 -31 35 -16
58 16 25 131 21 169 -6z m-243 4 c-4 -8 -10 -12 -15 -9 -14 8 -10 24 6 24 9 0
12 -6 9 -15z m-71 -22 c14 -8 7 -23 -13 -23 -25 0 -70 21 -70 32 0 8 65 1 83
-9z m-159 -27 c-3 -9 -10 -16 -15 -16 -6 0 -5 9 1 21 13 24 24 20 14 -5z m631
14 c-3 -5 -14 -10 -23 -10 -15 0 -15 2 -2 10 20 13 33 13 25 0z m-1129 -35
c11 -27 20 -35 39 -35 30 0 33 -21 6 -58 -46 -66 -111 -213 -165 -379 -23 -71
-58 -83 -71 -24 -3 15 -17 34 -30 41 -20 11 -28 10 -49 -4 -76 -49 -111 15
-90 168 6 38 12 49 32 57 23 9 23 11 9 32 -20 30 -7 50 29 45 26 -3 29 0 36
37 5 22 6 49 4 61 -5 17 2 25 33 38 35 17 41 17 69 2 43 -22 50 -21 66 19 12
27 21 35 41 35 20 0 29 -8 41 -35z m550 14 c8 -14 -11 -33 -25 -25 -11 7 -4
36 9 36 5 0 12 -5 16 -11z m189 1 c3 -5 1 -10 -4 -10 -6 0 -11 5 -11 10 0 6 2
10 4 10 3 0 8 -4 11 -10z m-482 -21 c4 -14 -6 -36 -30 -67 -19 -26 -48 -73
-64 -105 -16 -33 -33 -64 -38 -71 -5 -6 -16 -34 -24 -63 -9 -28 -20 -60 -26
-71 -5 -10 -22 -74 -36 -142 -14 -68 -30 -129 -36 -136 -5 -7 -11 -34 -13 -61
-2 -26 -11 -70 -20 -96 -9 -26 -16 -57 -16 -68 0 -28 -28 -79 -44 -79 -17 0
-76 41 -89 61 -6 9 -7 23 -4 32 5 14 11 11 36 -13 28 -29 81 -42 81 -20 0 6
-8 10 -18 10 -26 0 -92 58 -86 75 5 12 12 10 38 -10 33 -25 66 -33 66 -16 0 5
-9 12 -19 16 -36 11 -71 46 -71 70 l0 24 30 -29 c17 -17 38 -30 48 -30 15 1
15 2 1 13 -60 46 -78 67 -73 81 8 21 17 20 39 -4 19 -21 75 -28 75 -10 0 6 -8
10 -18 10 -22 0 -59 25 -72 50 -16 29 4 32 40 5 19 -14 40 -25 47 -25 21 0 15
20 -9 29 -28 11 -74 58 -65 67 3 4 21 -3 40 -15 38 -23 57 -27 57 -10 0 5 -16
17 -35 25 -34 14 -54 38 -42 51 4 3 18 -2 33 -11 14 -10 29 -15 32 -11 10 9
-12 39 -36 50 -12 5 -22 15 -22 22 0 16 -1 17 44 -7 38 -19 56 -19 56 1 0 5
-7 9 -15 9 -26 0 -65 31 -65 51 0 20 15 26 24 10 9 -13 45 -20 52 -10 3 5 -8
14 -25 20 -19 7 -31 18 -31 28 0 28 10 31 42 15 17 -9 32 -13 35 -11 2 3 -8
11 -24 19 -15 7 -28 20 -28 28 0 14 5 14 45 3 9 -2 20 7 27 22 10 22 9 28 -10
45 -23 22 -16 40 8 20 8 -7 15 -8 15 -2 0 5 -7 15 -15 22 -24 20 -17 32 15 25
31 -7 43 8 15 19 -29 11 -16 28 15 21 23 -5 30 -3 30 8 0 8 9 17 20 20 26 7
26 27 1 27 -24 0 -35 15 -27 36 5 13 9 13 35 -1 38 -19 51 -19 51 0 0 9 -11
21 -25 27 -14 6 -25 15 -25 19 0 16 20 19 40 7 18 -11 23 -10 31 5 13 23 25
22 32 -4z m1017 -117 c0 -217 -10 -352 -27 -352 -19 0 -63 -49 -63 -70 0 -28
-38 -33 -117 -15 -12 3 -28 17 -35 33 l-14 27 79 1 c58 1 83 5 95 18 15 15 11
16 -62 16 -42 0 -86 5 -97 10 -11 6 -25 7 -32 3 -6 -4 -23 -8 -37 -8 -15 0
-28 -8 -36 -23 -21 -42 -29 -43 -60 -15 -35 32 -93 115 -113 158 -12 29 -12
29 6 13 53 -48 173 -92 188 -68 9 15 -13 40 -37 40 -29 0 -111 46 -126 70 -8
13 -19 19 -30 16 -18 -6 -49 30 -37 42 3 3 33 5 65 4 84 -3 186 44 297 139 34
29 110 65 119 56 2 -1 -13 -19 -32 -40 -20 -21 -51 -41 -74 -47 -39 -10 -53
-34 -27 -43 22 -7 69 20 117 67 26 26 53 46 61 44 10 -2 13 6 11 30 -1 17 2
32 8 32 6 0 10 -52 10 -138z m-812 48 c11 -8 23 -27 26 -41 6 -25 5 -26 -29
-15 -19 6 -35 16 -35 23 0 7 -14 28 -30 47 -42 48 -31 74 14 32 18 -17 42 -38
54 -46z m136 72 c2 -4 1 -14 -4 -22 -7 -11 -12 -12 -21 -3 -6 6 -8 16 -5 22 8
13 23 14 30 3z m409 -12 c-3 -11 -12 -20 -20 -20 -11 0 -11 4 -3 20 6 11 15
20 19 20 5 0 7 -9 4 -20z m-350 -6 c11 -11 -5 -34 -24 -34 -21 0 -22 1 -13 24
6 16 25 21 37 10z m67 -13 c0 -19 -29 -44 -44 -38 -15 6 -15 9 -1 31 15 22 45
27 45 7z m120 -36 c-7 -19 -14 -25 -21 -18 -7 7 -6 19 2 37 16 35 33 18 19
-19z m60 26 c0 -20 -27 -48 -37 -37 -9 8 14 56 27 56 5 0 10 -8 10 -19z m50
10 c0 -5 -7 -14 -15 -21 -16 -14 -18 -10 -9 14 6 17 24 22 24 7z m-1502 -26
c19 -24 23 -25 68 -15 37 9 49 8 56 -2 12 -19 10 -24 -18 -57 -19 -23 -23 -35
-16 -48 5 -10 7 -32 5 -50 -10 -62 -88 -101 -88 -43 0 14 -4 31 -8 38 -12 17
-40 -7 -57 -49 -15 -34 -30 -38 -30 -8 0 12 -7 27 -16 34 -18 13 -22 73 -9
142 10 53 30 72 87 82 4 0 15 -10 26 -24z m1305 5 c-6 -22 -23 -38 -23 -21 0
17 12 41 20 41 5 0 6 -9 3 -20z m50 0 c-6 -22 -21 -35 -30 -27 -2 3 -2 15 2
26 8 28 35 28 28 1z m222 -20 c-10 -17 -65 -42 -65 -30 0 6 15 17 33 25 39 17
40 17 32 5z m-471 -24 c31 -28 32 -36 8 -36 -11 0 -24 11 -30 25 -20 43 -15
46 22 11z m396 -14 c0 -5 -12 -14 -27 -21 -28 -13 -28 -13 -9 8 20 22 36 27
36 13z m-275 -12 c3 -5 3 -15 -1 -21 -6 -11 -23 6 -24 24 0 10 18 9 25 -3z
m215 -15 c0 -8 -2 -15 -4 -15 -2 0 -11 -3 -20 -6 -10 -4 -16 -1 -16 9 0 14 13
24 33 26 4 1 7 -6 7 -14z m-160 -9 c0 -14 -28 -42 -35 -34 -2 2 -2 14 2 26 6
24 33 31 33 8z m50 -6 c0 -13 -7 -20 -19 -20 -14 0 -18 5 -14 20 3 11 12 20
19 20 8 0 14 -9 14 -20z m34 -5 c3 -8 1 -15 -4 -15 -6 0 -10 7 -10 15 0 8 2
15 4 15 2 0 6 -7 10 -15z m-547 -16 c29 -18 32 -24 20 -31 -14 -7 -14 -13 -1
-53 17 -47 37 -71 53 -60 7 4 4 24 -9 57 -18 47 -19 79 -2 51 4 -6 39 -33 77
-59 39 -26 72 -51 73 -56 2 -5 17 -15 33 -24 25 -13 36 -13 67 -2 54 18 58 23
43 64 -12 35 -8 104 7 104 10 0 62 -102 62 -123 0 -9 4 -36 10 -59 34 -148 39
-172 35 -176 -6 -7 -24 41 -44 118 -18 69 -27 90 -41 90 -20 0 -19 -42 5 -121
14 -46 30 -102 36 -124 12 -47 27 -68 45 -61 10 4 21 -20 39 -78 14 -46 34
-95 45 -109 11 -14 20 -30 20 -35 0 -5 7 -15 15 -22 24 -20 44 3 27 30 -14 23
-15 30 -3 30 5 0 11 -8 15 -17 3 -10 9 -23 12 -30 9 -19 -30 -33 -108 -38 -80
-5 -110 4 -90 27 9 11 7 27 -9 68 -31 83 -47 154 -64 283 -9 66 -21 129 -26
139 -12 22 -46 19 -40 -3 15 -61 35 -158 46 -229 14 -87 21 -117 49 -205 9
-27 16 -52 16 -54 0 -9 -216 32 -227 43 -3 3 0 12 6 20 10 11 9 20 -1 38 -26
46 -54 70 -114 98 -55 24 -114 79 -114 105 0 12 -70 115 -102 150 l-28 31 21
53 c31 82 91 191 105 191 4 0 22 -10 41 -21z m1383 -49 c0 -5 -2 -10 -4 -10
-3 0 -8 5 -11 10 -3 6 -1 10 4 10 6 0 11 -4 11 -10z m-2152 -125 c3 -3 -46
-81 -65 -104 -2 -3 -13 5 -26 17 -13 12 -29 22 -35 22 -20 0 -13 22 15 52 25
26 32 28 68 22 22 -3 42 -8 43 -9z m-128 -134 c0 -17 4 -33 10 -36 6 -3 -1
-22 -15 -45 -14 -22 -25 -44 -25 -49 0 -5 -6 -14 -14 -20 -22 -19 -40 101 -21
139 25 48 65 54 65 11z m757 -1 c14 -16 32 -30 39 -30 6 0 15 -17 19 -37 12
-63 62 -123 131 -154 59 -27 114 -77 114 -104 0 -7 -12 -20 -26 -30 -14 -9
-22 -21 -18 -25 8 -7 185 -43 264 -53 19 -3 55 -10 79 -17 25 -6 58 -9 73 -6
16 3 37 0 48 -6 16 -10 23 -9 43 10 14 13 35 22 53 21 27 0 28 -1 9 -12 -47
-28 -105 -95 -105 -121 0 -17 5 -26 16 -26 9 0 14 -5 12 -12 -7 -21 -26 -20
-45 1 -22 27 -27 26 -41 -3 -8 -18 -16 -23 -31 -19 -19 5 -21 1 -21 -37 0 -50
-20 -51 -33 -1 -7 27 -10 31 -22 21 -8 -7 -15 -23 -15 -36 0 -13 -4 -24 -10
-24 -5 0 -10 14 -10 31 0 39 -23 34 -30 -6 -7 -39 -24 -37 -28 3 -5 46 -32 43
-32 -3 0 -24 -5 -35 -15 -35 -11 0 -15 12 -15 45 0 33 -4 45 -15 45 -11 0 -15
-12 -15 -45 0 -55 -17 -59 -26 -7 -9 48 -13 55 -28 43 -7 -6 -11 -24 -8 -41 3
-22 0 -30 -11 -30 -17 0 -34 59 -24 84 8 20 -4 28 -20 15 -7 -7 -13 -31 -13
-56 0 -40 -2 -44 -16 -32 -12 10 -14 24 -9 71 6 48 4 58 -8 58 -9 0 -19 -16
-26 -37 -10 -35 -10 -34 -5 20 4 46 3 57 -10 57 -17 0 -22 -14 -32 -84 -5 -38
-9 -45 -16 -32 -5 10 -7 38 -3 64 7 54 5 68 -12 66 -20 -3 -15 17 10 44 l22
24 -25 -7 c-14 -4 -35 -18 -46 -32 -30 -35 -38 -17 -29 71 6 65 4 74 -15 91
-27 25 -48 8 -30 -25 10 -18 10 -32 1 -62 -7 -22 -9 -53 -6 -70 11 -46 45 -98
65 -98 13 0 19 -11 23 -45 7 -50 1 -75 -18 -75 -17 0 -37 25 -75 93 -31 55
-53 77 -66 64 -3 -3 6 -27 20 -53 14 -27 32 -66 40 -87 16 -39 45 -57 96 -57
33 0 48 -16 31 -33 -15 -15 -117 6 -142 29 -15 13 -22 14 -33 5 -8 -7 -13 -18
-10 -25 7 -18 82 -56 111 -56 15 0 22 -4 17 -11 -10 -17 -157 -6 -187 14 -40
26 -53 64 -46 132 4 33 9 83 12 112 3 28 10 59 15 70 13 24 59 214 71 288 17
111 45 235 53 235 4 0 20 -13 35 -30z m1123 -39 c0 -6 -4 -13 -10 -16 -5 -3
-10 1 -10 9 0 9 5 16 10 16 6 0 10 -4 10 -9z m-1632 -33 c14 -14 16 -78 2 -78
-5 0 -10 -4 -10 -10 0 -5 10 -10 23 -10 37 0 48 -14 45 -56 -3 -38 -2 -39 32
-42 51 -5 73 -29 67 -72 -3 -19 -10 -82 -17 -140 -11 -94 -15 -107 -38 -127
-40 -34 -68 -30 -88 13 -12 25 -21 33 -33 29 -64 -26 -102 -11 -115 45 -8 34
32 104 62 108 12 2 22 6 22 9 0 15 -35 43 -52 43 -23 0 -38 38 -37 93 1 62 12
90 39 104 20 10 25 20 25 50 0 29 4 38 17 38 9 0 20 4 24 8 10 10 18 9 32 -5z
m1379 -40 c-3 -8 -6 -5 -6 6 -1 11 2 17 5 13 3 -3 4 -12 1 -19z m-1583 -24 c8
-20 -2 -54 -15 -54 -5 0 -9 16 -9 35 0 37 13 47 24 19z m1663 -6 c-3 -8 -6 -5
-6 6 -1 11 2 17 5 13 3 -3 4 -12 1 -19z m93 6 c0 -8 -5 -12 -10 -9 -6 4 -8 11
-5 16 9 14 15 11 15 -7z m-300 -15 c0 -11 -4 -18 -10 -14 -5 3 -7 12 -3 20 7
21 13 19 13 -6z m155 1 c3 -5 1 -10 -4 -10 -6 0 -11 5 -11 10 0 6 2 10 4 10 3
0 8 -4 11 -10z m245 -36 c30 -3 338 -12 478 -13 l43 -1 -3 -52 -3 -53 -150 4
c-82 1 -155 7 -161 12 -6 5 -40 15 -75 22 -63 13 -65 13 -136 -19 -40 -18 -75
-29 -78 -25 -2 5 -52 6 -110 3 l-105 -5 0 57 c0 54 1 56 28 57 15 1 66 3 114
4 98 4 108 7 109 38 1 21 1 21 8 -2 5 -18 15 -24 41 -27z m-310 22 c0 -3 -4
-8 -10 -11 -5 -3 -10 -1 -10 4 0 6 5 11 10 11 6 0 10 -2 10 -4z m-78 -38 c-7
-7 -12 -8 -12 -2 0 14 12 26 19 19 2 -3 -1 -11 -7 -17z m-1082 -26 c0 -10 -7
-12 -22 -8 -13 3 -26 6 -30 6 -5 0 -8 9 -8 19 0 17 3 18 30 8 17 -6 30 -18 30
-25z m-415 4 c47 -17 54 -30 28 -59 -10 -12 -27 -40 -37 -61 -12 -28 -20 -36
-26 -27 -4 7 -6 21 -3 30 2 9 -5 26 -17 39 -19 20 -20 26 -9 57 15 40 12 39
64 21z m1525 -21 c-7 -9 -15 -13 -17 -11 -7 7 7 26 19 26 6 0 6 -6 -2 -15z
m-1435 -139 c16 -6 14 -10 -13 -37 -64 -63 -31 -166 61 -189 23 -6 59 -20 80
-31 22 -12 59 -22 88 -23 l49 -1 0 -47 c0 -37 -4 -50 -19 -58 -27 -14 -30 -13
-24 9 7 26 -15 37 -35 17 -14 -14 -15 -20 -4 -37 12 -18 11 -24 -7 -43 -27
-29 -27 -80 -1 -106 l20 -20 -59 0 -59 0 6 43 c3 28 14 50 34 69 37 35 38 92
3 148 -33 52 -57 64 -121 57 -39 -4 -56 -2 -65 9 -6 8 -27 14 -45 14 -29 0
-34 4 -34 23 0 12 12 49 26 82 15 33 34 84 45 113 26 74 30 79 44 45 7 -17 21
-33 30 -37z m1904 12 c68 -12 78 -31 14 -26 -39 4 -53 1 -57 -9 -3 -8 -11 -11
-17 -7 -8 5 -8 1 0 -14 10 -19 53 -29 136 -32 19 -1 19 -2 1 -12 -10 -5 -35
-7 -56 -4 -33 5 -40 3 -45 -15 -10 -31 8 -42 75 -47 33 -2 60 -8 60 -13 0 -10
-15 -12 -77 -9 -30 1 -55 -6 -90 -27 -42 -24 -58 -28 -128 -28 -81 0 -179 21
-170 36 3 4 1 10 -5 14 -5 3 -10 20 -10 37 0 27 -3 30 -25 26 -14 -3 -28 -2
-30 2 -7 11 67 48 82 43 7 -3 25 5 39 16 15 12 32 21 39 21 6 0 20 9 30 20 10
11 24 20 32 20 7 0 13 5 13 10 0 6 10 10 23 10 13 0 41 9 62 19 39 19 39 19
50 -2 7 -15 24 -24 54 -29z m906 37 c131 -33 304 -151 320 -218 6 -24 1 -33
-39 -68 -39 -35 -46 -46 -46 -78 0 -43 -10 -58 -66 -93 -52 -34 -77 -84 -72
-149 1 -27 2 -49 0 -49 -2 0 -16 7 -32 15 -16 8 -56 18 -88 21 -47 5 -66 3
-98 -14 -69 -36 -144 -140 -144 -202 0 -17 -4 -30 -8 -30 -12 0 -135 108 -165
145 -14 17 -53 82 -87 145 -34 63 -77 133 -94 155 -45 56 -47 61 -37 87 5 13
14 48 21 78 9 39 23 66 49 93 63 68 109 81 163 50 29 -18 30 -18 50 7 11 14
28 24 38 22 12 -2 25 8 36 27 35 59 180 86 299 56z m-2995 -19 c0 -8 -4 -18
-10 -21 -16 -10 -12 -23 10 -30 11 -4 27 -19 34 -34 13 -25 12 -31 -7 -66 -23
-40 -47 -57 -47 -33 0 7 -9 30 -20 51 -25 47 -25 67 1 111 22 37 39 47 39 22z
m1684 4 c31 -11 33 -26 6 -33 -13 -3 -24 1 -30 13 -18 33 -15 35 24 20z m526
-12 c0 -6 -6 -5 -15 2 -8 7 -15 14 -15 16 0 2 7 1 15 -2 8 -4 15 -11 15 -16z
m-429 -3 c-1 -15 -24 -12 -29 3 -3 9 2 13 12 10 10 -1 17 -7 17 -13z m-1181
-150 c0 -26 -21 -27 -55 0 -23 17 -35 34 -35 50 l0 24 45 -30 c25 -17 45 -37
45 -44z m-659 -27 c9 -33 20 -53 31 -56 22 -5 22 -8 3 -62 -21 -60 -19 -136 4
-169 11 -15 31 -52 44 -83 25 -57 49 -78 86 -78 12 0 30 -6 41 -12 16 -10 22
-10 32 5 12 15 18 16 48 6 33 -12 261 -6 735 18 66 3 203 7 305 8 164 1 440
15 630 30 63 6 65 5 77 -20 9 -20 9 -27 0 -30 -7 -2 -241 -6 -522 -10 -280 -3
-550 -8 -600 -10 -49 -2 -203 -7 -340 -10 -138 -4 -257 -7 -265 -7 -8 -1 -74
0 -146 0 l-132 2 -16 73 c-24 104 -34 184 -42 336 -7 143 2 167 27 69z m607
-5 c56 -42 67 -63 33 -63 -27 0 -81 48 -81 71 0 25 4 24 48 -8z m1705 -18 c-7
-21 -13 -19 -13 6 0 11 4 18 10 14 5 -3 7 -12 3 -20z m-1686 -71 c28 -7 31
-24 4 -24 -24 0 -71 37 -71 56 0 11 5 10 22 -6 13 -11 33 -23 45 -26z m1582
-49 c-2 -74 -3 -77 -38 -105 -36 -30 -35 -45 4 -52 13 -2 22 -15 28 -42 12
-51 -14 -90 -65 -94 -41 -4 -66 20 -75 70 -4 28 -1 39 18 56 22 21 22 22 5 41
-23 25 -14 71 14 78 34 9 22 25 -12 17 -29 -6 -31 -5 -19 9 7 9 21 19 32 22
26 9 24 25 -3 25 -21 1 -21 2 -5 11 9 5 17 17 17 24 0 11 13 15 51 15 l50 0
-2 -75z m97 37 c-14 -14 -16 -14 -16 -1 0 20 23 44 29 28 2 -6 -4 -18 -13 -27z
m-686 -7 c0 -33 -2 -35 -35 -35 -19 0 -35 5 -35 10 0 6 3 9 8 9 20 -3 30 3 40
26 16 34 22 31 22 -10z m-1476 -20 c-9 -21 12 -26 42 -10 16 8 46 15 66 15 44
0 78 -36 78 -84 0 -51 -13 -61 -77 -61 l-58 0 -22 -44 c-14 -27 -20 -53 -17
-68 12 -46 -16 -22 -46 38 -16 34 -33 66 -38 73 -5 6 -12 32 -15 57 -5 38 -3
50 13 64 11 10 20 24 20 31 0 16 31 23 47 11 6 -4 10 -14 7 -22z m475 0 c30
-6 33 -9 27 -37 -8 -39 13 -177 31 -206 8 -13 12 -26 10 -29 -10 -10 -110 12
-115 26 -3 9 2 11 17 6 12 -3 21 -2 21 4 0 5 -9 13 -20 16 -11 3 -20 15 -20
25 0 17 4 18 26 10 41 -16 41 -12 -1 24 -45 38 -43 56 3 32 28 -14 42 -13 42
6 0 4 -6 8 -14 8 -22 0 -66 40 -66 61 0 16 3 18 19 9 25 -13 41 -13 41 0 0 6
-5 10 -11 10 -12 0 -48 40 -49 54 0 5 6 4 13 -2 6 -5 27 -13 46 -17z m1713
-27 c-13 -13 -24 5 -16 27 7 16 8 16 17 0 6 -11 6 -20 -1 -27z m-327 -19 c11
-17 -1 -21 -15 -4 -8 9 -8 15 -2 15 6 0 14 -5 17 -11z m-220 -21 c-4 -17 5
-34 37 -68 24 -26 54 -54 67 -63 14 -9 23 -19 20 -21 -3 -3 -60 -8 -126 -12
l-122 -7 6 23 c4 15 1 26 -11 32 -9 5 -16 16 -16 24 0 12 7 14 28 9 24 -5 33
0 58 32 17 21 33 46 37 56 9 25 28 21 22 -5z m577 7 c0 -5 -5 -11 -11 -13 -6
-2 -11 4 -11 13 0 9 5 15 11 13 6 -2 11 -8 11 -13z m-742 -3 c0 -4 -6 -20 -12
-35 -11 -24 -17 -27 -43 -22 -20 3 -38 0 -50 -10 -25 -18 -35 -19 -35 -1 0 21
-19 30 -35 16 -8 -7 -21 -10 -29 -7 -17 7 -36 -11 -36 -35 0 -9 -7 -21 -16
-26 -13 -7 -28 2 -65 37 -27 26 -49 52 -49 59 0 8 21 12 63 13 117 2 220 8
225 14 9 8 82 6 82 -3z m775 -11 c-4 -14 7 -39 35 -79 22 -33 40 -62 40 -66 0
-3 -13 -6 -30 -6 -22 0 -30 5 -30 18 0 10 -7 27 -15 38 -8 10 -15 27 -15 36 0
9 -6 18 -12 20 -9 3 -8 12 5 31 21 32 31 35 22 8z m-1195 -18 c0 -25 98 -113
125 -113 21 0 53 -25 43 -35 -11 -11 -83 20 -116 50 -48 43 -90 115 -68 115 9
0 16 -8 16 -17z m-28 -73 c21 -28 33 -50 28 -50 -13 0 -90 77 -90 90 0 24 28
6 62 -40z m-99 11 c9 -16 33 -43 52 -60 19 -17 35 -33 35 -36 0 -3 -15 -5 -34
-5 -28 0 -42 8 -75 46 -42 48 -50 69 -28 77 24 10 33 7 50 -22z m-560 -45 c4
-27 6 -50 4 -53 -2 -2 -16 1 -31 6 -23 9 -26 16 -26 56 0 42 2 46 22 43 18 -2
24 -12 31 -52z m1527 39 c0 -8 -6 -15 -14 -15 -17 0 -28 14 -19 24 12 12 33 6
33 -9z m-1790 -25 c22 -22 24 -29 11 -48 -7 -12 -56 -42 -67 -42 -8 0 -4 59 6
84 11 31 23 33 50 6z m2040 -25 c10 -12 10 -15 -4 -15 -9 0 -16 7 -16 15 0 8
2 15 4 15 2 0 9 -7 16 -15z m-1399 -16 c17 -33 10 -39 -46 -39 -30 0 -55 5
-55 10 0 6 5 10 10 10 6 0 10 9 10 20 0 17 6 20 36 18 22 -1 39 -9 45 -19z
m1474 11 c3 -5 1 -10 -4 -10 -6 0 -11 5 -11 10 0 6 2 10 4 10 3 0 8 -4 11 -10z
m-885 -10 c0 -5 -5 -10 -11 -10 -5 0 -7 5 -4 10 3 6 8 10 11 10 2 0 4 -4 4
-10z m910 -46 c0 -10 -77 -34 -111 -34 -39 0 -48 7 -29 26 9 9 140 17 140 8z
m134 -49 c16 -25 14 -45 -5 -45 -5 0 -9 7 -9 15 0 8 -4 15 -10 15 -5 0 -10 9
-10 20 0 27 14 25 34 -5z m46 -81 c0 -18 -14 -18 -30 1 -16 19 -3 40 16 24 8
-6 14 -18 14 -25z m-145 -33 c3 -5 1 -12 -5 -16 -5 -3 -10 1 -10 9 0 18 6 21
15 7z m-830 -21 c3 -5 1 -10 -4 -10 -6 0 -11 5 -11 10 0 6 2 10 4 10 3 0 8 -4
11 -10z m143 -2 c19 -19 14 -28 -13 -28 -28 0 -58 -38 -61 -79 -7 -76 -50
-140 -117 -172 -26 -13 -47 -29 -47 -36 0 -23 29 -26 58 -8 l27 18 -30 -32
c-47 -51 -60 -55 -61 -18 -1 20 -9 36 -23 45 -25 17 -27 32 -5 32 10 0 41 16
71 36 60 40 95 95 98 159 2 52 13 75 39 85 30 12 50 12 64 -2z m782 -3 c11
-13 10 -14 -4 -9 -9 3 -16 10 -16 15 0 13 6 11 20 -6z m120 -20 c0 -8 -4 -15
-10 -15 -5 0 -10 7 -10 15 0 8 -4 15 -10 15 -5 0 -10 5 -10 10 0 7 6 7 20 0
11 -6 20 -17 20 -25z m-1573 12 c1 -2 -14 -22 -35 -45 -33 -36 -45 -42 -79
-42 -32 0 -48 -7 -75 -32 -53 -49 -110 -93 -122 -93 -6 0 -12 9 -14 20 -2 11
-11 28 -19 37 -8 9 -13 25 -11 35 4 23 41 29 58 8 15 -18 66 -20 76 -3 4 6 -5
21 -21 34 -28 22 -28 24 -11 43 21 23 46 17 46 -10 0 -25 18 -24 45 1 21 20
55 19 55 -1 0 -5 7 -9 15 -9 24 0 29 29 9 51 -18 20 -18 20 30 15 27 -3 51 -7
53 -9z m343 3 c0 -13 -30 -13 -50 0 -11 7 -7 10 18 10 17 0 32 -4 32 -10z
m123 -22 c18 -21 24 -68 8 -68 -5 0 -12 13 -16 30 -4 16 -19 39 -33 51 l-27
21 25 -7 c14 -4 33 -16 43 -27z m-954 -8 c6 0 11 -11 11 -24 0 -14 5 -28 10
-31 6 -3 7 -17 4 -30 -5 -19 5 -35 55 -85 41 -41 61 -69 61 -86 0 -43 -40
-111 -95 -163 -55 -53 -81 -62 -92 -35 -10 26 15 63 63 94 42 26 74 66 74 92
0 5 -14 21 -31 35 -17 14 -44 50 -61 80 -35 62 -42 68 -57 49 -9 -11 -7 -24
11 -60 l22 -46 -31 -32 c-16 -18 -33 -41 -36 -50 -12 -35 -99 -72 -120 -52 -9
10 13 60 36 81 12 11 34 23 50 27 18 4 27 13 27 26 0 11 5 29 12 40 18 28 2
37 -31 17 -16 -9 -36 -17 -45 -17 -31 0 -16 20 34 45 56 28 71 60 49 103 -7
15 -15 30 -17 34 -6 13 63 13 74 1 6 -7 16 -13 23 -13z m672 9 c-13 -11 -26
-17 -29 -14 -8 8 20 35 37 35 12 -1 11 -5 -8 -21z m640 -48 c72 -25 104 -45
94 -60 -10 -17 -21 -13 -54 15 -17 14 -38 23 -46 20 -22 -8 -18 -25 9 -36 26
-10 66 -60 66 -84 0 -23 -25 -115 -46 -165 l-17 -44 -38 74 c-21 41 -38 77
-39 82 0 4 18 -4 40 -18 23 -14 45 -23 50 -20 20 12 9 36 -25 56 -19 12 -35
25 -35 29 0 19 18 18 49 -1 31 -18 51 -18 51 1 0 5 -18 19 -40 31 -32 18 -43
32 -51 63 -6 23 -13 47 -15 54 -2 6 -16 12 -32 12 -36 0 -40 5 -35 34 l5 23
22 -22 c12 -12 51 -32 87 -44z m35 49 c26 -11 45 -23 42 -25 -7 -7 -98 28 -98
37 0 11 2 11 56 -12z m422 -7 c37 -26 39 -31 38 -78 l-1 -50 -41 -3 c-44 -3
-69 14 -58 41 5 13 9 14 25 4 15 -9 22 -8 35 5 15 15 15 18 -9 42 -20 20 -33
25 -52 20 -30 -7 -34 12 -7 32 24 18 26 18 70 -13z m-1923 7 c-3 -5 -16 -10
-28 -9 -21 0 -21 1 -2 9 28 12 37 12 30 0z m292 4 c-3 -3 -12 -4 -19 -1 -8 3
-5 6 6 6 11 1 17 -2 13 -5z m-437 -9 c0 -2 -11 -11 -23 -20 -21 -13 -28 -14
-58 -1 l-34 15 50 3 c28 3 53 5 58 6 4 1 7 0 7 -3z m1068 -17 c6 -7 12 -26 14
-42 4 -35 32 -56 50 -38 9 9 9 17 -2 36 -11 21 -11 28 0 41 29 35 86 2 76 -45
-2 -15 0 -32 7 -39 16 -16 62 -14 77 4 23 27 23 7 1 -29 -12 -20 -40 -44 -65
-55 -51 -25 -53 -25 -73 -5 -9 8 -22 13 -30 9 -11 -4 -13 -1 -9 11 9 23 -20
64 -44 64 -30 0 -91 41 -88 59 3 15 42 41 64 41 6 0 16 -6 22 -12z m1197 -24
c111 -47 181 -85 249 -138 51 -39 92 -129 99 -216 5 -63 5 -64 -9 -32 -15 35
-25 39 -43 18 -9 -10 -9 -20 -3 -33 11 -19 31 -195 29 -248 -2 -50 14 -375 19
-388 3 -10 11 -80 28 -258 2 -20 7 -59 10 -85 4 -27 9 -62 11 -79 19 -146 63
-270 130 -365 17 -25 34 -53 38 -62 7 -20 37 -25 37 -6 0 6 -17 34 -39 62 -43
56 -82 131 -100 191 -7 22 -16 49 -21 60 -11 25 -29 190 -36 320 -3 55 -9 136
-14 180 -18 143 -25 335 -20 480 2 49 12 29 30 -60 13 -59 42 -187 59 -255 5
-19 15 -66 21 -105 17 -97 68 -291 90 -339 10 -23 27 -68 38 -101 12 -33 39
-109 62 -170 23 -60 46 -125 52 -144 28 -97 82 -185 158 -260 65 -64 79 -83
85 -119 8 -48 -5 -72 -37 -72 -17 0 -19 5 -14 38 7 42 -11 87 -34 87 -12 0
-14 -12 -12 -55 3 -74 -17 -100 -84 -107 -42 -4 -55 -11 -93 -52 -25 -25 -45
-53 -45 -61 -1 -13 -20 -15 -116 -14 -120 2 -170 13 -170 39 0 9 -9 15 -26 15
-21 0 -25 -4 -22 -22 2 -16 18 -31 52 -47 l50 -25 -30 -8 c-89 -25 -266 83
-310 189 -8 18 -20 36 -28 40 -7 4 -23 28 -36 52 -18 36 -24 72 -33 213 -8
128 -8 184 1 226 8 38 8 59 1 68 -7 8 -7 25 -1 51 41 160 42 478 3 698 -28
155 -65 301 -93 367 -20 46 -51 76 -155 146 -25 17 -33 28 -28 40 4 9 13 46
22 82 27 115 24 110 83 131 77 27 85 38 82 110 l-2 59 27 -6 c16 -3 55 -17 88
-30z m142 0 c-12 -12 -37 5 -30 21 5 15 7 15 21 1 9 -9 13 -18 9 -22z m-2557
16 c-19 -13 -30 -13 -30 0 0 6 10 10 23 10 18 0 19 -2 7 -10z m577 -5 c2 -6
-6 -16 -18 -23 -22 -14 -49 -2 -49 23 0 16 62 15 67 0z m48 5 c-3 -5 -10 -10
-16 -10 -5 0 -9 5 -9 10 0 6 7 10 16 10 8 0 12 -4 9 -10z m423 -10 c13 -22 8
-24 -53 -20 -36 2 -39 5 -32 25 9 23 69 20 85 -5z m832 -11 c0 -5 -4 -9 -10
-9 -5 0 -10 7 -10 16 0 8 5 12 10 9 6 -3 10 -10 10 -16z m-1725 -31 c-55 -58
-75 -73 -75 -59 0 19 89 101 111 101 3 0 -13 -19 -36 -42z m935 32 c0 -5 -5
-10 -11 -10 -5 0 -7 5 -4 10 3 6 8 10 11 10 2 0 4 -4 4 -10z m1510 -17 c0 -20
-24 -11 -28 10 -2 12 1 15 12 11 9 -3 16 -13 16 -21z m-2266 -2 c9 -14 -73
-57 -121 -65 -24 -3 -43 -3 -43 2 0 11 51 58 70 65 25 9 88 8 94 -2z m1271 -1
c3 -5 16 -10 29 -10 32 0 53 -20 60 -57 5 -30 3 -33 -21 -33 -34 0 -63 26 -63
57 0 14 -6 23 -15 23 -8 0 -15 7 -15 15 0 17 16 20 25 5z m-1580 -34 c-39 -34
-64 -34 -52 -1 7 17 41 33 72 34 16 1 12 -6 -20 -33z m979 -1 c20 -15 15 -20
-29 -27 -11 -2 -20 -10 -20 -18 0 -11 13 -15 55 -15 l55 0 -2 -32 c-2 -17 2
-35 7 -38 14 -9 12 -25 -3 -25 -23 0 -38 22 -26 37 22 26 3 42 -48 40 -65 -3
-69 -29 -14 -87 39 -41 42 -43 88 -37 38 4 53 1 71 -13 16 -14 32 -17 57 -13
27 4 36 2 41 -11 9 -24 -2 -31 -22 -15 -14 11 -18 11 -30 -6 -19 -25 -18 -26
15 -64 29 -32 30 -32 55 -16 30 20 46 13 46 -21 0 -28 -6 -30 -27 -9 -35 36
-76 -48 -66 -135 5 -42 2 -51 -19 -73 -16 -16 -46 -29 -81 -37 -31 -6 -58 -18
-61 -26 -3 -8 -18 -19 -33 -25 -24 -9 -37 -6 -88 20 -33 16 -73 33 -88 36 -16
3 -47 23 -69 44 -39 36 -41 39 -39 99 1 64 -13 88 -34 58 -10 -13 -18 -14 -39
-6 -31 11 -27 31 4 23 38 -10 81 53 50 72 -5 3 -10 15 -10 26 0 17 3 18 21 8
32 -17 54 9 45 55 -8 44 -22 53 -47 30 -20 -18 -23 -16 -13 10 8 21 62 21 84
1 10 -9 34 -18 53 -22 31 -5 40 -1 67 26 24 24 30 36 24 53 -12 40 -24 49 -61
42 -27 -5 -32 -3 -27 9 3 8 20 18 39 21 22 4 42 18 60 41 29 39 32 40 59 20z
m1030 -66 c-3 -56 -22 -164 -43 -250 -10 -44 -64 -147 -109 -211 -33 -47 -99
-99 -141 -113 -30 -9 -26 1 22 51 55 59 134 176 163 239 12 28 32 89 44 135
21 82 61 210 66 210 1 0 0 -27 -2 -61z m-901 19 c14 -7 32 -24 39 -37 15 -27
47 -42 76 -34 14 3 22 -1 27 -16 9 -30 -1 -41 -38 -41 -27 0 -35 5 -44 31 -12
30 -15 31 -52 26 -40 -5 -40 -5 -34 24 3 17 0 35 -7 44 -15 18 -3 19 33 3z
m-1085 -17 c3 -8 -1 -12 -9 -9 -7 2 -15 10 -17 17 -3 8 1 12 9 9 7 -2 15 -10
17 -17z m757 -9 c-3 -8 -5 -25 -5 -38 0 -22 -3 -23 -20 -14 -22 12 -65 -5 -89
-34 -19 -23 -31 -20 -31 9 0 17 9 29 28 39 15 8 35 23 45 34 20 22 80 26 72 4z
m-672 1 c7 -6 -61 -72 -75 -73 -17 -1 -6 24 23 51 32 30 41 34 52 22z m1445
-36 c2 -11 -3 -17 -16 -17 -16 0 -52 -45 -41 -53 82 -57 93 -77 43 -77 -34 0
-96 33 -71 38 19 4 22 23 6 39 -8 8 -4 22 17 52 30 42 56 50 62 18z m-1393
-50 c-33 -32 -49 -60 -68 -115 -26 -78 -42 -86 -26 -13 20 92 97 203 124 181
10 -8 3 -21 -30 -53z m700 14 c3 -6 -3 -15 -14 -21 -24 -12 -42 7 -20 21 18
11 26 11 34 0z m763 -28 c26 -40 58 -103 66 -135 3 -16 11 -28 16 -28 16 0 12
-16 -17 -59 -32 -49 -53 -53 -53 -11 0 22 -10 41 -35 66 -39 39 -43 52 -19 61
21 8 51 -31 60 -77 4 -19 9 -39 11 -43 10 -17 33 17 33 47 0 32 -49 136 -81
172 -21 22 -24 34 -10 34 5 0 18 -12 29 -27z m-1169 -7 c8 -10 8 -16 -3 -25
-19 -16 -71 10 -54 27 16 16 43 15 57 -2z m-403 -18 c-2 -7 -10 -30 -17 -50
-16 -51 -29 -48 -29 6 0 34 4 46 18 49 30 8 34 7 28 -5z m124 -9 c-6 -11 -10
-33 -8 -49 1 -15 -3 -38 -10 -51 -7 -13 -21 -49 -32 -79 l-20 -55 5 67 c5 66
21 120 51 166 18 28 28 29 14 1z m450 -9 c0 -5 -2 -10 -4 -10 -3 0 -8 5 -11
10 -3 6 -1 10 4 10 6 0 11 -4 11 -10z m-240 -36 c0 -4 -14 -22 -31 -42 -24
-27 -29 -41 -25 -61 12 -50 11 -56 -11 -59 -21 -3 -22 0 -17 30 6 31 19 62 47
116 11 20 37 31 37 16z m890 -24 c0 -5 -2 -10 -4 -10 -3 0 -8 5 -11 10 -3 6
-1 10 4 10 6 0 11 -4 11 -10z m155 -32 c45 -54 46 -91 0 -96 -24 -2 -34 3 -48
27 -17 30 -22 67 -11 95 9 24 19 20 59 -26z m-1160 -14 c-8 -16 -15 -43 -15
-60 0 -23 -7 -36 -24 -48 -53 -34 -45 53 10 110 39 42 52 41 29 -2z m368 11
c-22 -29 -33 -32 -33 -7 0 24 8 32 32 32 18 0 18 -1 1 -25z m-73 -5 c0 -5 -5
-10 -11 -10 -5 0 -7 5 -4 10 3 6 8 10 11 10 2 0 4 -4 4 -10z m980 -20 c0 -10
7 -20 15 -24 24 -9 17 -26 -10 -26 -19 0 -25 5 -25 21 0 11 -4 29 -10 39 -8
15 -6 17 10 13 11 -3 20 -13 20 -23z m558 -30 c29 -18 33 -25 27 -47 -5 -23
-4 -25 9 -14 28 24 106 -36 93 -72 -2 -7 1 -21 7 -32 35 -65 68 -202 62 -257
-2 -23 -5 -47 -5 -51 -1 -5 -6 -5 -12 -2 -6 4 -8 13 -5 21 3 8 -1 14 -9 14
-18 0 -19 11 -2 30 6 8 3 7 -9 -3 -29 -24 -34 -22 -30 18 1 19 -2 35 -8 35 -5
0 2 13 17 28 34 35 35 49 2 28 -22 -14 -25 -15 -25 -1 0 8 9 24 21 36 25 25
19 35 -10 19 -24 -12 -28 1 -6 20 8 7 15 17 15 23 0 5 -10 2 -22 -9 -21 -19
-21 -19 -16 4 4 12 2 22 -4 22 -6 0 -8 12 -5 30 5 23 3 28 -8 23 -17 -6 -19
10 -5 38 11 20 -3 28 -15 9 -11 -18 -32 -11 -44 16 -6 14 -9 29 -6 33 2 5 -11
16 -30 27 -18 10 -32 22 -29 26 8 12 16 10 52 -12z m-1540 -26 c2 -1 -6 -16
-18 -32 -20 -27 -25 -29 -49 -19 -14 6 -28 12 -30 14 -2 1 7 18 20 37 24 36
23 36 77 0z m-498 0 c0 -8 -5 -12 -10 -9 -6 4 -8 11 -5 16 9 14 15 11 15 -7z
m1990 -56 c0 -5 -8 -8 -18 -8 -10 0 -29 -11 -42 -25 -36 -38 -35 -23 1 29 29
41 34 44 45 28 8 -9 14 -20 14 -24z m-691 0 c6 -17 9 -34 6 -37 -8 -7 -54 52
-48 61 10 18 32 6 42 -24z m226 -1 c6 -18 8 -44 5 -57 -5 -22 -12 -25 -50 -25
-41 0 -63 -16 -41 -30 18 -11 12 -25 -15 -35 -27 -11 -28 -37 0 -32 24 4 20
-11 -13 -42 -26 -25 -42 -30 -103 -35 -5 -1 -8 -17 -8 -36 0 -41 -28 -64 -89
-72 -46 -6 -101 12 -101 33 0 8 -6 23 -12 34 -10 16 -10 25 4 47 15 25 22 28
74 28 54 0 59 -2 64 -25 7 -31 36 -38 45 -11 8 26 -20 76 -52 90 -12 6 -23 15
-23 21 0 18 15 11 45 -20 38 -40 85 -41 114 -4 12 15 21 31 21 36 0 17 -31 20
-49 4 -22 -20 -35 -20 -54 -2 -8 8 -30 21 -51 30 -41 17 -45 30 -14 47 17 9
24 9 32 -3 6 -8 22 -20 34 -27 21 -11 27 -10 48 10 18 17 23 30 19 47 -4 17
-2 23 7 20 18 -6 22 -46 7 -64 -8 -10 -9 -18 -2 -25 17 -17 53 7 53 35 0 29
10 39 26 25 17 -14 34 -3 34 21 0 55 30 67 45 17z m235 23 c0 -5 -4 -10 -10
-10 -5 0 -10 5 -10 10 0 6 5 10 10 10 6 0 10 -4 10 -10z m-1432 -16 c44 -21
46 -28 17 -62 -14 -16 -25 -36 -25 -43 -1 -8 -13 -28 -28 -45 -22 -26 -31 -30
-49 -23 -24 9 -28 19 -14 35 4 5 11 22 15 38 7 26 5 28 -16 21 -48 -14 -63
-11 -66 15 -2 19 5 30 29 44 31 19 32 19 46 0 14 -18 16 -18 36 9 11 15 22 27
22 27 1 0 16 -7 33 -16z m237 -14 l20 -9 -20 0 c-11 0 -27 4 -35 9 -13 9 -13
10 0 9 8 0 24 -4 35 -9z m625 -10 c-20 -13 -33 -13 -25 0 3 6 14 10 23 10 15
0 15 -2 2 -10z m-1080 -10 c0 -5 -4 -10 -10 -10 -5 0 -10 5 -10 10 0 6 5 10
10 10 6 0 10 -4 10 -10z m376 -20 c8 0 14 -4 14 -10 0 -5 -7 -10 -16 -10 -8 0
-29 -14 -46 -30 -17 -17 -31 -30 -32 -28 -1 2 -10 13 -21 26 l-19 24 24 19
c17 13 34 18 54 14 16 -3 35 -5 42 -5z m108 -15 c-4 -10 -15 -12 -37 -8 -41 8
-47 13 -14 13 14 0 29 5 32 10 9 15 25 2 19 -15z m1467 -32 c11 -27 23 -72 26
-100 5 -46 3 -53 -13 -59 -11 -3 -34 -12 -53 -20 -30 -13 -36 -13 -64 4 -42
24 -57 55 -57 118 0 57 14 77 56 77 14 0 28 6 31 13 3 8 16 14 29 14 20 0 29
-10 45 -47z m-1473 -39 c18 -20 22 -35 18 -56 -3 -16 1 -47 8 -69 14 -39 13
-40 -15 -61 -16 -12 -29 -30 -29 -39 0 -13 -11 -20 -35 -25 -57 -10 -83 1 -91
41 -8 42 -17 50 -42 34 -64 -40 -119 61 -77 141 17 32 18 33 53 24 26 -7 29
-41 7 -83 -13 -26 -13 -30 0 -41 19 -16 45 3 45 31 0 14 7 19 25 19 30 0 34
26 5 35 -29 9 -25 39 10 68 26 22 35 24 62 16 18 -5 44 -21 56 -35z m1244 -39
c6 -29 -2 -38 -21 -26 -10 7 -10 13 -2 30 15 27 18 26 23 -4z m-1167 -5 c3 -5
1 -10 -4 -10 -6 0 -11 5 -11 10 0 6 2 10 4 10 3 0 8 -4 11 -10z m407 -33 c-12
-13 -22 -29 -22 -36 0 -8 -10 -10 -32 -6 -23 4 -45 0 -72 -14 -22 -12 -42 -19
-44 -17 -9 9 9 24 35 31 16 3 35 13 43 20 14 13 81 41 104 44 5 0 0 -9 -12
-22z m-297 -7 c3 -5 -1 -10 -9 -10 -9 0 -16 5 -16 10 0 6 4 10 9 10 6 0 13 -4
16 -10z m1003 -29 c4 -27 -12 -21 -29 10 -9 18 -8 20 8 17 10 -2 19 -14 21
-27z m-1078 4 c6 -8 14 -32 17 -55 5 -38 4 -40 -20 -40 -14 0 -29 5 -32 10 -3
6 1 10 9 10 26 0 29 21 7 44 -12 12 -21 28 -21 34 0 17 25 15 40 -3z m1009
-21 c42 -53 12 -134 -43 -120 -32 8 -56 50 -38 68 9 9 16 7 30 -5 20 -19 42
-7 42 23 0 44 -58 53 -95 15 -30 -30 -32 -68 -4 -103 13 -17 18 -34 14 -50 -4
-18 4 -37 34 -76 41 -53 95 -182 113 -271 31 -149 0 -294 -91 -428 -50 -72
-74 -99 -144 -162 -21 -18 -40 -43 -42 -55 -2 -13 -7 -25 -10 -28 -3 -3 2 -13
11 -23 9 -10 14 -24 11 -32 -15 -40 183 -290 297 -375 23 -17 43 -22 95 -22
83 0 111 -8 111 -30 0 -9 9 -25 20 -35 11 -10 18 -21 15 -23 -3 -3 -18 7 -34
22 -24 23 -42 30 -93 35 -86 8 -153 0 -153 -19 0 -11 14 -16 55 -17 78 -4 140
-13 140 -21 0 -9 -105 -8 -200 2 -63 7 -78 6 -88 -7 -16 -19 -1 -30 43 -32 16
-1 47 -3 68 -3 20 -1 37 -6 37 -11 0 -4 -156 -8 -347 -9 -192 0 -339 2 -328 5
11 3 29 15 41 27 25 26 93 28 142 2 34 -17 107 -22 117 -7 3 6 -11 13 -32 16
-60 10 -80 24 -94 67 -11 36 -11 44 4 71 14 23 15 32 5 38 -6 4 -16 5 -20 3
-4 -3 -8 2 -8 10 0 10 9 16 25 16 27 0 27 0 29 -44 1 -25 7 -31 33 -38 29 -7
73 -49 73 -68 0 -4 -8 -7 -17 -6 -10 0 -19 -6 -20 -14 -5 -23 55 -50 112 -50
28 -1 63 -2 79 -3 34 -2 47 18 17 28 -11 3 -23 16 -27 28 -5 17 1 28 32 53 32
28 36 34 21 40 -9 3 -28 3 -41 0 -18 -4 -26 -1 -30 12 -9 27 -107 122 -148
143 -56 28 -80 59 -74 91 6 32 -12 54 -61 74 -18 8 -37 23 -43 34 -6 11 -23
26 -38 34 -62 33 -104 97 -54 82 24 -8 45 8 40 30 -4 20 -13 21 -112 8 -45 -6
-50 -4 -72 22 -30 38 -30 52 3 80 34 29 20 49 -41 58 -24 4 -65 21 -90 37 -39
26 -46 36 -46 63 0 36 -28 70 -51 61 -8 -3 -22 -25 -32 -50 -26 -63 -73 -101
-135 -109 -50 -6 -79 -26 -67 -46 3 -5 13 -10 21 -10 15 0 19 -45 8 -86 -5
-19 -13 -22 -69 -22 -63 0 -105 -14 -105 -32 0 -6 14 -10 30 -10 20 0 30 -5
30 -15 0 -15 -15 -23 -75 -42 -19 -6 -29 -15 -27 -25 2 -11 -17 -27 -58 -49
-85 -45 -119 -90 -118 -158 0 -51 -2 -54 -60 -112 -33 -32 -66 -72 -73 -88
-10 -23 -19 -28 -43 -27 -21 1 -31 -4 -31 -14 0 -13 18 -22 73 -36 6 -2 12
-19 12 -38 0 -19 4 -38 10 -41 20 -13 10 -35 -16 -35 -23 0 -25 2 -14 15 7 9
10 19 6 23 -7 6 -126 12 -250 12 -28 0 -53 5 -57 11 -9 16 -32 0 -25 -17 3 -8
-1 -14 -10 -14 -10 0 -13 7 -8 25 8 32 -17 34 -47 4 -14 -14 -24 -18 -31 -11
-7 7 -3 12 11 17 23 7 27 25 10 42 -14 14 2 19 121 33 85 9 85 10 128 57 23
26 54 70 68 97 35 66 84 196 84 221 0 11 9 38 21 60 l21 39 -23 19 c-17 14
-20 20 -10 26 23 15 7 44 -49 89 -81 65 -111 132 -117 265 -6 108 9 211 31
224 7 5 18 24 25 43 6 20 53 80 109 142 93 101 142 175 142 212 0 10 5 14 10
11 15 -9 12 -66 -5 -115 -19 -53 -19 -60 0 -60 8 0 24 15 35 33 l20 32 0 -27
c0 -34 23 -37 38 -5 20 41 12 -6 -8 -52 -11 -24 -20 -49 -20 -56 0 -7 -7 -18
-15 -25 -8 -7 -17 -28 -21 -49 -3 -20 -17 -68 -30 -108 -13 -39 -24 -90 -24
-112 0 -53 30 -130 70 -181 37 -47 64 -63 102 -62 24 1 28 -3 28 -27 0 -30 29
-64 45 -53 6 4 11 33 11 65 1 32 3 60 5 62 3 2 36 6 74 9 62 5 73 10 99 38 27
30 28 35 23 96 -7 75 -16 88 -76 115 -33 14 -54 17 -89 12 -41 -6 -45 -5 -33
9 33 39 184 58 240 29 46 -23 81 -53 81 -69 0 -18 28 -32 55 -26 13 2 41 21
63 42 45 44 118 70 193 70 61 0 68 -12 21 -33 -94 -41 -125 -121 -78 -201 30
-52 54 -67 111 -75 l40 -6 3 -65 c5 -103 42 -120 49 -23 5 69 6 69 75 94 41
16 77 38 104 65 62 61 108 197 97 288 -4 34 -2 39 9 28 9 -9 13 -45 13 -120 0
-100 -2 -110 -28 -149 -15 -24 -27 -47 -27 -52 0 -22 -70 -68 -123 -81 -31 -7
-57 -17 -57 -22 0 -4 -1 -11 -2 -15 -4 -11 62 -4 105 11 20 6 58 32 85 57 66
61 97 147 97 269 -1 82 -2 88 -46 170 -26 47 -50 96 -54 110 -4 13 -21 37 -36
51 -32 30 -36 54 -15 104 10 22 22 34 38 37 17 2 24 10 26 31 2 15 9 27 15 26
29 -3 37 3 37 29 0 54 56 99 127 101 23 1 37 -6 52 -25z m-905 -20 c4 -12 13
-14 32 -10 24 6 25 5 22 -31 -3 -35 -6 -38 -37 -41 -45 -5 -55 8 -46 57 7 43
18 52 29 25z m1091 6 c10 -17 75 -40 112 -40 18 0 45 7 59 16 13 9 27 14 30
12 10 -10 20 -147 12 -167 -16 -45 -53 -19 -60 42 -4 33 -1 40 19 48 26 10 29
21 9 38 -32 27 -100 -45 -94 -100 4 -39 46 -73 91 -74 30 0 32 -3 35 -38 3
-34 1 -38 -16 -33 -12 4 -28 -2 -46 -19 -15 -14 -33 -25 -40 -25 -24 0 -33
-22 -30 -68 2 -26 1 -40 -2 -32 -4 8 -15 33 -25 54 -20 42 -19 48 27 93 28 28
22 54 -19 89 -21 18 -37 24 -54 19 -22 -5 -23 -4 -23 64 0 37 -3 83 -6 100 -6
30 7 43 21 21z m-60 -32 c3 -18 7 -68 9 -110 l3 -77 -28 30 c-31 33 -76 38
-121 15 -24 -13 -28 -13 -28 -1 0 8 15 21 33 29 36 14 77 59 77 83 0 17 29 63
41 63 4 0 11 -15 14 -32z m-827 -15 c-4 -36 -31 -41 -46 -9 -13 28 -7 36 25
36 21 0 24 -4 21 -27z m1235 -135 c4 -29 9 -63 12 -74 5 -16 1 -23 -16 -27
-28 -7 -37 -1 -21 15 20 20 15 41 -9 35 -19 -5 -19 -4 -6 11 26 31 28 40 7 35
-11 -3 -20 -2 -20 1 0 10 34 55 41 56 3 0 9 -24 12 -52z m-63 28 c0 -8 -4 -18
-10 -21 -5 -3 -10 3 -10 14 0 12 5 21 10 21 6 0 10 -6 10 -14z m-2630 -10 c0
-3 -4 -8 -10 -11 -5 -3 -10 -1 -10 4 0 6 5 11 10 11 6 0 10 -2 10 -4z m511
-36 c-24 -21 -51 -26 -51 -11 0 4 15 13 33 19 45 14 45 14 18 -8z m1715 -17
c18 -24 17 -53 -3 -75 -23 -25 -28 -23 -52 22 -30 58 -30 59 33 69 5 0 15 -7
22 -16z m144 -22 c5 -11 10 -27 10 -36 0 -20 -36 -69 -43 -58 -6 11 -7 95 -1
105 9 14 23 9 34 -11z m-957 -12 c12 -7 39 -27 60 -45 20 -19 42 -34 49 -34 6
0 4 -7 -5 -18 -10 -10 -17 -25 -17 -33 0 -23 -62 -42 -96 -29 -39 15 -64 39
-64 62 0 23 35 24 44 2 6 -15 10 -14 31 6 31 29 31 36 1 55 -18 12 -30 13 -50
6 -20 -8 -26 -8 -26 4 0 13 26 34 43 35 5 0 18 -5 30 -11z m-501 -16 c7 -9 30
-33 51 -55 27 -27 36 -44 32 -57 -10 -31 -39 -51 -86 -57 -39 -5 -49 -3 -71
17 -14 13 -29 36 -32 51 -6 26 -4 28 44 34 73 10 66 52 -8 45 -42 -3 -35 15
11 28 45 13 45 13 59 -6z m1715 -5 c-3 -8 -6 -5 -6 6 -1 11 2 17 5 13 3 -3 4
-12 1 -19z m-1378 -19 c16 -45 14 -91 -5 -118 -14 -20 -22 -22 -58 -17 -28 5
-48 2 -61 -8 -18 -13 -17 -15 18 -48 37 -36 44 -52 29 -76 -7 -10 -19 -10 -61
1 -45 12 -50 15 -37 26 20 17 21 101 1 156 -8 22 -15 41 -15 43 0 1 10 2 23 2
13 0 38 15 57 35 46 48 93 49 109 4z m465 22 c3 -5 -5 -12 -18 -15 -37 -9 -59
-35 -45 -52 17 -21 39 -17 48 8 5 13 10 17 15 10 10 -16 36 -3 36 18 0 10 -6
21 -12 23 -8 3 -6 6 4 6 35 2 36 -75 1 -118 -32 -39 -134 -49 -147 -15 -4 11
-10 12 -25 4 -25 -13 -31 -13 -31 0 0 6 6 10 14 10 7 0 19 7 26 15 10 12 9 16
-4 21 -13 5 -7 13 25 38 73 55 101 67 113 47z m591 -9 c0 -18 -20 -15 -23 4
-3 10 1 15 10 12 7 -3 13 -10 13 -16z m411 -49 c6 -31 9 -283 5 -408 l-1 -40
-31 38 c-23 28 -38 37 -60 37 -17 0 -39 5 -50 10 -24 13 -25 45 -1 46 9 1 25
5 36 9 15 7 17 5 11 -13 -9 -29 6 -28 34 2 17 18 19 25 9 29 -10 3 -7 11 10
29 27 30 28 38 3 31 -16 -4 -18 1 -18 51 0 31 4 59 9 62 6 4 5 10 -3 15 -11 7
-9 13 11 30 24 20 24 20 3 14 -27 -7 -32 15 -8 35 10 9 12 16 5 25 -6 8 -6 15
2 23 19 19 27 14 34 -25z m-95 -6 c-8 -8 -11 -7 -11 4 0 20 13 34 18 19 3 -7
-1 -17 -7 -23z m-333 -6 c19 -17 22 -29 22 -91 0 -70 -1 -72 -22 -66 -13 3
-28 6 -34 6 -7 0 -14 12 -17 28 -2 15 -12 49 -20 75 -15 47 -15 48 6 57 32 13
39 11 65 -9z m277 -20 c3 -5 1 -12 -5 -16 -5 -3 -10 -15 -10 -26 0 -10 -4 -19
-9 -19 -17 0 -33 29 -26 50 6 20 39 28 50 11z m-2725 -39 c0 -15 -2 -15 -10
-2 -13 20 -13 33 0 25 6 -3 10 -14 10 -23z m2032 -27 c25 -69 23 -79 -15 -93
-45 -16 -79 -15 -103 3 -17 13 -14 14 42 15 40 0 66 5 73 14 16 19 7 23 -77
31 -46 5 -71 12 -69 19 5 14 57 21 57 7 0 -6 11 -11 25 -11 28 0 44 25 26 43
-16 16 -13 29 6 25 10 -2 24 -24 35 -53z m-364 -46 c2 -24 11 -52 19 -61 15
-17 14 -18 -5 -18 -11 0 -24 5 -28 11 -3 6 -17 8 -29 5 -27 -7 -45 11 -21 20
26 10 19 34 -9 34 -14 0 -25 4 -25 10 0 12 71 50 85 46 6 -1 11 -22 13 -47z
m-133 32 c10 -18 -29 -29 -75 -21 -43 7 -44 8 -10 9 19 2 44 6 55 11 11 5 21
9 22 9 1 1 4 -3 8 -8z m985 -10 c0 -11 -4 -23 -10 -26 -6 -4 -10 5 -10 19 0
14 5 26 10 26 6 0 10 -9 10 -19z m274 -12 c-9 -10 -21 -16 -26 -13 -5 3 -2 14
8 25 9 10 21 16 26 13 5 -3 2 -14 -8 -25z m-1633 -6 c1 -16 2 -36 3 -46 1 -10
8 -22 16 -27 12 -8 9 -10 -13 -10 -15 0 -44 -7 -64 -15 -53 -22 -92 -3 -41 20
35 16 33 33 -4 37 l-33 3 60 32 c33 17 63 32 68 32 4 1 8 -11 8 -26z m1530
-14 c-3 -8 -4 -32 -2 -53 1 -22 -4 -64 -11 -94 l-12 -55 34 -28 33 -28 -32
-31 c-18 -16 -35 -30 -37 -30 -2 0 -4 17 -4 38 0 20 -7 87 -15 147 -8 61 -15
125 -15 143 l0 32 33 -14 c19 -8 30 -19 28 -27z m-840 9 c15 -23 10 -57 -11
-78 -22 -22 -55 -25 -97 -9 -24 9 -26 12 -12 22 9 7 19 29 23 51 7 38 7 38 48
33 23 -3 45 -11 49 -19z m755 -155 c-2 -2 -15 1 -30 7 -32 12 -101 -12 -116
-41 -14 -25 -13 -109 1 -109 8 0 7 -5 -1 -15 -11 -13 -10 -21 7 -43 11 -15 23
-38 27 -50 5 -13 22 -32 39 -42 28 -17 29 -20 11 -26 -10 -4 -27 -14 -36 -22
-16 -14 -18 -13 -18 6 0 48 -29 70 -48 36 -7 -12 -17 -15 -42 -9 -32 7 -32 7
-25 54 4 25 15 73 26 105 10 33 19 71 19 85 0 57 10 70 54 73 44 3 45 7 31 68
-4 21 2 30 37 57 l43 32 13 -81 c7 -45 11 -83 8 -85z m-1627 132 c12 -13 -20
-26 -47 -20 -22 4 -29 11 -25 22 4 11 14 13 36 9 17 -3 33 -8 36 -11z m1816
-7 c-4 -13 -9 -30 -11 -40 -3 -9 -11 -19 -19 -22 -20 -7 -20 33 1 62 20 29 37
29 29 0z m-2965 2 c0 -5 -7 -10 -16 -10 -8 0 -12 5 -9 10 3 6 10 10 16 10 5 0
9 -4 9 -10z m1708 -32 l29 -31 -52 -26 c-40 -20 -63 -25 -103 -23 -29 2 -52 8
-52 14 0 6 24 8 58 6 45 -2 57 0 57 12 0 8 -11 17 -25 21 -22 6 -20 7 12 8 34
1 57 15 45 27 -2 3 -28 7 -57 9 -74 5 -75 15 -2 15 57 0 65 -3 90 -32z m922
-18 c0 -18 -3 -19 -20 -8 -18 12 -19 13 -2 20 9 3 18 7 20 7 1 1 2 -8 2 -19z
m-1502 -6 c29 -9 8 -24 -33 -24 -31 0 -45 4 -45 13 0 27 19 29 78 11z m-1153
-4 c3 -5 1 -10 -4 -10 -6 0 -11 5 -11 10 0 6 2 10 4 10 3 0 8 -4 11 -10z
m2091 -1 c6 -11 52 -8 132 7 28 6 32 4 32 -16 0 -21 -3 -22 -99 -18 -100 3
-128 11 -101 28 20 13 27 12 36 -1z m904 -15 c0 -18 -27 -43 -47 -44 -21 0
-15 26 10 43 29 21 37 21 37 1z m-1804 -53 c-14 -16 -23 -17 -50 -10 -19 5
-44 8 -56 7 -13 -2 -25 3 -27 10 -3 9 12 12 56 12 51 0 61 3 61 17 0 16 1 16
17 0 16 -15 16 -18 -1 -36z m1052 -6 c2 -2 1 -8 -3 -14 -10 -17 -195 -15 -195
2 0 8 2 16 5 19 6 6 187 -1 193 -7z m-610 -17 c-6 -18 -28 -21 -28 -4 0 9 7
16 16 16 9 0 14 -5 12 -12z m1175 -27 c5 -5 12 -55 15 -109 4 -93 3 -100 -16
-106 -23 -8 -72 12 -72 29 0 7 7 18 15 25 21 17 0 43 -27 34 -45 -14 -56 51
-21 120 13 26 18 28 55 23 22 -3 45 -10 51 -16z m-1629 -7 c4 -11 14 -15 30
-12 14 3 31 1 38 -4 7 -5 -29 -7 -87 -6 -86 3 -100 5 -103 21 -3 15 5 17 56
17 46 0 61 -4 66 -16z m1040 -21 c-4 -46 7 -44 -180 -39 -97 3 -179 7 -182 11
-15 15 23 24 133 32 169 12 230 11 229 -4z m-911 0 c-7 -2 -19 -2 -25 0 -7 3
-2 5 12 5 14 0 19 -2 13 -5z m-1153 -12 c0 -5 -6 -11 -12 -14 -18 -6 -39 3
-32 14 7 12 44 12 44 0z m80 -11 c0 -5 -2 -10 -4 -10 -3 0 -8 5 -11 10 -3 6
-1 10 4 10 6 0 11 -4 11 -10z m78 -7 c-10 -2 -26 -2 -35 0 -10 3 -2 5 17 5 19
0 27 -2 18 -5z m1067 -13 c3 -5 3 -10 -2 -11 -4 0 -57 -2 -118 -4 -60 -3 -127
-7 -147 -10 -30 -4 -39 -1 -48 15 -11 20 -8 20 149 20 96 0 162 -4 166 -10z
m1630 -17 c4 -10 11 -31 15 -48 7 -25 7 -27 -3 -11 -7 10 -23 32 -35 47 -23
28 -23 29 -4 29 11 0 23 -8 27 -17z m-815 -22 c0 -4 -8 -15 -18 -24 -15 -14
-38 -16 -149 -12 -121 3 -173 14 -173 37 0 4 77 7 170 7 94 0 170 -4 170 -8z
m-813 -17 c7 -18 -12 -39 -43 -48 -16 -5 -23 -2 -26 12 -5 18 -14 19 -108 14
-85 -4 -102 -2 -98 9 3 10 29 16 84 20 158 11 184 10 191 -7z m1571 3 c6 -6
13 -24 17 -40 4 -15 14 -27 22 -27 17 0 16 -1 -16 -52 -25 -41 -50 -48 -75
-22 -21 20 -20 36 3 63 16 18 18 27 9 41 -22 35 14 69 40 37z m-2778 -52 c0
-8 -5 -25 -11 -39 -9 -18 -9 -29 -1 -39 6 -7 11 -58 11 -122 1 -148 0 -155
-20 -155 -13 0 -17 10 -18 43 0 23 -4 67 -7 99 -6 51 -4 57 16 68 20 11 21 13
5 30 -22 25 -10 130 16 130 5 0 9 -7 9 -15z m1050 -3 c0 -4 -9 -13 -20 -19
-20 -13 -37 -2 -25 17 7 12 45 14 45 2z m855 -12 c-3 -5 -19 -10 -36 -10 -16
0 -29 5 -29 10 0 6 16 10 36 10 21 0 33 -4 29 -10z m-945 -25 c13 -14 20 -25
16 -25 -12 0 -56 32 -56 41 0 16 16 10 40 -16z m50 -15 c0 -5 -5 -10 -11 -10
-5 0 -7 5 -4 10 3 6 8 10 11 10 2 0 4 -4 4 -10z m1880 -11 c0 -11 -15 -33 -32
-50 -37 -33 -61 -40 -33 -9 10 11 15 20 11 20 -4 0 1 14 11 30 20 35 43 40 43
9z m-1397 -24 c17 -12 17 -13 -12 -20 -16 -3 -46 -2 -67 4 -20 6 -41 8 -46 5
-4 -3 -13 -2 -19 2 -20 12 10 21 69 22 31 0 64 -5 75 -13z m1182 -27 c9 -36
-4 -35 -36 1 -26 29 -26 30 -5 33 27 5 33 0 41 -34z m-355 -53 c-12 -25 -25
-45 -30 -45 -15 0 -19 29 -6 42 7 7 21 26 31 42 27 41 31 14 5 -39z m-762 33
c-3 -20 -12 -24 -61 -32 -39 -6 -64 -6 -80 2 -12 6 -29 13 -37 15 -8 3 22 6
68 6 64 1 84 4 88 16 9 23 26 18 22 -7z m880 13 c11 -6 13 -28 9 -91 -3 -45
-10 -87 -15 -92 -5 -5 -25 -8 -43 -6 -33 3 -34 4 -32 43 1 22 7 66 14 98 10
47 16 57 33 57 12 0 27 -4 34 -9z m163 -11 c10 -6 26 -24 34 -40 10 -19 20
-27 30 -24 19 8 19 0 0 -36 -14 -27 -20 -30 -63 -30 -57 0 -73 9 -74 41 -2 29
-17 51 -29 43 -5 -3 -9 0 -9 6 0 7 7 10 15 6 8 -3 20 3 27 13 11 15 27 25 46
30 2 1 12 -4 23 -9z m277 -18 c-1 -15 2 -37 6 -49 5 -17 1 -28 -20 -45 -15
-13 -35 -31 -44 -41 -17 -17 -18 -17 -24 0 -5 13 4 28 36 56 l43 38 -38 -22
c-50 -28 -58 -18 -12 16 37 29 41 44 6 25 -30 -15 -26 0 7 27 35 29 41 29 40
-5z m-121 -9 c-3 -10 -8 -36 -12 -58 -8 -46 -19 -34 -29 33 -6 40 -5 42 20 42
19 0 24 -4 21 -17z m-1342 -43 c14 -5 23 -15 20 -20 -15 -25 18 -40 89 -42 65
-2 66 -2 16 -5 -81 -5 -90 -10 -60 -33 21 -17 42 -20 133 -20 64 0 107 -4 107
-10 0 -5 -14 -10 -31 -10 -17 0 -39 -5 -50 -11 -23 -12 -154 5 -176 23 -21 17
-45 1 -38 -23 4 -12 1 -32 -6 -45 -12 -23 -14 -23 -31 -7 -22 20 -24 43 -3 43
8 0 15 6 15 14 0 19 -48 30 -66 15 -19 -15 -18 -59 1 -87 12 -16 14 -34 9 -70
-4 -36 -2 -57 11 -81 9 -18 14 -40 11 -48 -4 -9 -1 -22 5 -29 6 -8 9 -20 6
-28 -3 -7 1 -23 9 -34 10 -14 11 -23 4 -27 -8 -5 -8 -11 0 -19 5 -7 7 -27 4
-45 -14 -70 -181 -108 -273 -64 -29 14 -37 25 -39 50 -2 24 2 35 17 45 32 20
25 45 -19 73 -22 14 -44 25 -49 25 -14 0 -61 60 -61 78 0 108 119 213 195 172
25 -13 45 -7 45 15 0 9 15 15 48 17 26 2 47 8 47 13 0 17 -65 17 -90 1 -15
-10 -26 -12 -30 -6 -9 15 -68 12 -109 -5 -31 -13 -36 -13 -36 -1 0 21 8 24 84
31 76 6 86 10 86 31 0 10 12 14 44 14 46 0 69 16 45 31 -8 5 -27 9 -44 9 -23
0 -27 3 -15 10 8 5 39 10 68 10 38 0 54 4 59 15 8 22 -1 28 -50 36 -42 6 -42
7 15 8 31 0 69 -3 83 -9z m-1521 -46 c9 -24 7 -27 -9 -10 -17 17 -19 26 -6 26
5 0 12 -7 15 -16z m2836 -39 c21 13 18 -16 -5 -43 -31 -37 -32 -68 -2 -123 21
-41 76 -77 97 -64 5 3 25 -16 44 -42 32 -44 33 -48 19 -70 l-15 -22 -41 26
c-23 15 -56 27 -74 27 l-32 1 -7 73 c-7 81 -32 128 -78 150 -37 18 -69 9 -111
-33 l-35 -35 1 84 c2 84 2 85 23 72 11 -8 42 -16 68 -19 40 -4 51 -1 80 23 32
27 33 27 46 9 7 -11 17 -17 22 -14z m154 11 c-3 -7 -18 -23 -34 -35 -17 -12
-30 -29 -30 -38 0 -13 6 -11 28 10 41 40 52 33 12 -8 -32 -33 -37 -61 -5 -35
18 15 19 11 5 -26 -9 -24 -9 -25 5 -14 8 7 15 19 15 26 0 8 5 14 10 14 13 0
13 -19 -1 -60 -9 -26 -9 -34 2 -41 10 -6 11 -11 3 -19 -17 -17 -51 32 -74 108
-19 62 -20 66 -3 86 42 48 80 67 67 32z m-608 -51 c-8 -32 -36 -33 -36 -1 0
15 7 26 18 28 23 6 25 3 18 -27z m-82 13 c3 -7 7 -25 10 -40 5 -21 12 -28 31
-28 26 0 40 -27 30 -60 -9 -28 -25 -25 -62 13 -30 31 -58 101 -47 119 8 12 34
10 38 -4z m261 -62 c-17 -83 -11 -96 50 -119 6 -3 7 -7 4 -11 -4 -4 -22 0 -40
8 -19 8 -49 20 -66 26 -25 9 -33 18 -33 37 0 33 -17 63 -36 63 -9 0 -14 5 -12
11 4 12 5 13 40 4 16 -4 38 -1 55 7 37 19 46 13 38 -26z m432 12 c-3 -8 -6 -5
-6 6 -1 11 2 17 5 13 3 -3 4 -12 1 -19z m-1107 -7 c0 -5 14 -14 30 -21 28 -12
29 -14 15 -30 -14 -15 -14 -19 3 -41 31 -39 32 -86 4 -137 -36 -65 -90 -87
-207 -87 -51 0 -92 -4 -94 -10 -6 -17 41 -35 94 -35 52 0 128 -23 158 -48 24
-21 21 -49 -8 -78 -22 -21 -31 -24 -82 -20 -67 5 -93 14 -146 50 -21 14 -44
26 -52 26 -9 0 -15 10 -15 25 0 18 -5 25 -19 25 -10 0 -25 8 -32 18 -12 15
-12 16 2 5 12 -10 19 -10 35 1 21 16 13 31 -19 31 -11 0 -22 6 -25 14 -3 9 0
12 10 8 19 -7 38 11 38 35 0 13 -8 18 -31 18 -27 0 -30 2 -19 15 7 8 19 15 27
15 17 0 31 36 25 67 -7 36 -45 27 -53 -12 -5 -23 -7 -26 -12 -12 -15 37 -14
44 2 66 15 19 19 20 29 8 18 -22 80 -7 138 34 51 35 58 37 134 42 33 1 46 7
48 20 3 17 22 24 22 8z m1004 -45 c16 -52 6 -58 -27 -14 -16 21 -17 29 -7 48
14 27 16 25 34 -34z m-2784 14 c-7 -4 -10 -12 -6 -18 12 -21 -20 -19 -36 2
-16 22 -15 22 20 23 21 1 30 -2 22 -7z m280 -49 c0 -32 3 -79 6 -105 9 -62
-11 -61 -22 2 -11 55 -6 162 7 162 5 0 9 -26 9 -59z m1224 53 c21 -8 20 -20
-1 -28 -9 -4 -20 -1 -25 6 -16 26 -7 35 26 22z m1146 -41 c27 -34 22 -55 -14
-64 -16 -5 -39 -18 -51 -29 -26 -24 -46 -10 -24 17 11 13 10 17 -4 28 -21 15
-22 33 0 57 24 27 68 23 93 -9z m-2810 13 c0 -9 -30 -14 -35 -6 -4 6 3 10 14
10 12 0 21 -2 21 -4z m80 -21 c-7 -9 -15 -13 -17 -11 -7 7 7 26 19 26 6 0 6
-6 -2 -15z m2462 -75 c58 -15 92 -29 84 -37 -3 -4 -17 -1 -30 6 -20 11 -31 10
-72 -8 l-49 -22 -27 33 c-33 40 -34 46 -6 75 l21 23 18 -30 c13 -20 31 -32 61
-40z m-468 52 c2 -4 1 -14 -3 -21 -6 -9 -10 -7 -14 8 -5 20 7 29 17 13z
m-1901 -90 c3 -68 1 -73 -18 -70 -18 3 -20 11 -23 76 -3 70 -2 73 18 70 19 -3
21 -10 23 -76z m927 48 c0 -5 -7 -7 -15 -4 -8 4 -15 8 -15 10 0 2 7 4 15 4 8
0 15 -4 15 -10z m2000 -37 c0 -7 -4 -13 -9 -13 -10 0 -21 24 -21 48 0 13 3 12
15 -4 8 -10 15 -25 15 -31z m-250 -43 c0 -15 -69 -20 -117 -9 -65 16 -75 28
-19 23 37 -4 53 0 74 16 l27 21 17 -21 c10 -12 18 -26 18 -30z m-1760 15 c0
-21 -5 -25 -29 -25 -17 0 -33 5 -36 10 -13 21 4 40 35 40 25 0 30 -4 30 -25z
m1025 15 c3 -6 -5 -10 -19 -10 -14 0 -28 5 -31 10 -3 6 5 10 19 10 14 0 28 -4
31 -10z m-1410 -70 c-2 -39 -32 -92 -69 -122 -12 -9 -46 -20 -76 -23 -30 -4
-67 -9 -82 -11 -25 -5 -28 -2 -28 19 0 33 10 57 22 57 6 0 7 -11 4 -25 -5 -18
-2 -25 9 -25 9 0 15 9 15 24 0 13 7 29 15 36 13 11 15 7 15 -24 0 -20 5 -36
10 -36 6 0 10 14 10 30 0 38 15 39 28 3 l10 -28 1 25 c1 14 5 32 11 40 10 16
14 10 23 -35 2 -11 4 3 5 32 0 28 3 61 7 72 11 35 24 14 21 -34 -2 -25 0 -45
5 -45 5 0 9 11 9 25 0 15 7 39 15 55 10 19 11 30 5 30 -6 0 -8 5 -4 11 11 19
21 -9 19 -51z m1917 -2 c43 -28 49 -36 46 -62 -3 -27 -8 -32 -40 -37 -33 -5
-38 -3 -38 13 0 11 -13 32 -30 46 -29 25 -38 51 -23 65 13 13 36 7 85 -25z
m-422 12 c11 -8 2 -10 -35 -9 -27 0 -69 -2 -92 -6 -36 -6 -43 -5 -43 9 0 13
12 16 78 16 42 0 84 -5 92 -10z m930 -12 c1 -13 19 -43 40 -68 31 -34 36 -46
26 -52 -19 -11 -56 5 -82 33 -29 33 -35 56 -18 69 8 7 14 19 14 26 0 24 20 15
20 -8z m-2004 -39 c15 -16 34 -29 43 -29 8 0 11 -3 8 -7 -4 -3 -17 -1 -30 5
-40 21 -109 41 -122 36 -14 -6 -29 11 -21 24 2 4 24 6 49 4 34 -3 52 -11 73
-33z m1604 21 c0 -5 -4 -10 -10 -10 -5 0 -10 5 -10 10 0 6 5 10 10 10 6 0 10
-4 10 -10z m242 -20 c27 -17 53 -28 59 -25 5 4 9 2 9 -4 0 -38 109 -115 149
-104 16 4 21 1 21 -14 0 -24 26 -49 60 -58 18 -4 37 1 64 20 36 24 43 26 80
16 23 -6 59 -12 81 -13 l40 -3 -26 -18 c-23 -15 -32 -16 -72 -5 -40 10 -57 9
-119 -6 -40 -10 -88 -25 -106 -34 l-34 -17 -28 34 c-35 41 -66 38 -50 -5 6
-15 9 -27 8 -28 -2 0 -13 -7 -25 -14 -21 -11 -23 -10 -23 8 0 13 -10 24 -25
30 l-26 10 23 30 c19 27 21 35 11 63 l-12 32 17 -24 c39 -57 50 -66 62 -55 30
30 -78 144 -136 144 -59 0 -53 -38 6 -41 20 0 17 -3 -15 -12 -37 -12 -39 -15
-41 -52 -1 -28 5 -47 19 -62 11 -13 17 -26 13 -30 -4 -4 -55 -8 -114 -9 l-107
-3 60 12 c68 14 85 23 85 41 0 8 7 19 15 26 17 14 20 56 4 66 -6 3 -9 18 -6
33 3 14 -1 41 -9 60 -18 43 -18 41 12 41 15 0 49 -14 76 -30z m-2547 10 c3 -6
-5 -10 -19 -10 -13 0 -31 -3 -40 -6 -9 -3 -16 -1 -16 4 0 6 12 13 28 15 15 2
30 5 34 6 4 0 10 -3 13 -9z m1839 -19 c3 -5 -15 -8 -39 -7 -25 0 -45 4 -45 9
0 10 78 9 84 -2z m564 -3 c16 -21 22 -52 13 -67 -7 -11 -13 -11 -32 3 -13 9
-34 16 -46 16 -27 0 -30 16 -6 42 19 21 56 24 71 6z m-800 -5 c-10 -2 -26 -2
-35 0 -10 3 -2 5 17 5 19 0 27 -2 18 -5z m2436 -5 c-15 -7 -28 -7 -40 1 -16 9
-12 10 21 10 35 0 37 -2 19 -11z m-3454 -24 c0 -12 -6 -15 -22 -10 -13 3 -32
6 -43 7 -14 1 -10 4 10 9 47 12 55 11 55 -6z m2870 -10 c0 -2 -15 -4 -32 -4
-23 0 -29 3 -19 9 12 8 51 4 51 -5z m-3450 -16 c0 -27 -16 -55 -25 -46 -9 9 5
68 16 68 5 0 9 -10 9 -22z m1861 12 c16 0 29 -4 29 -10 0 -5 -17 -7 -37 -5
-21 2 -41 4 -45 4 -5 1 -8 6 -8 12 0 6 7 8 16 5 9 -3 29 -6 45 -6z m1682 3
c-13 -2 -35 -2 -50 0 -16 2 -5 4 22 4 28 0 40 -2 28 -4z m-3643 -13 c0 -5 -4
-10 -10 -10 -5 0 -10 5 -10 10 0 6 5 10 10 10 6 0 10 -4 10 -10z m50 6 c0 -3
-4 -8 -10 -11 -5 -3 -10 -1 -10 4 0 6 5 11 10 11 6 0 10 -2 10 -4z m1640 -10
c0 -8 8 -17 18 -19 11 -3 8 -5 -8 -6 -25 -1 -50 15 -50 31 0 4 9 8 20 8 11 0
20 -6 20 -14z m-1847 -21 c-3 -8 -9 -15 -14 -15 -10 0 -12 24 -3 33 11 11 24
-3 17 -18z m69 -17 c-7 -7 -12 -8 -12 -2 0 14 12 26 19 19 2 -3 -1 -11 -7 -17z
m136 5 c-2 -9 -8 -18 -15 -20 -7 -3 -9 3 -6 16 6 25 26 28 21 4z m559 11 c-3
-3 -12 -4 -19 -1 -8 3 -5 6 6 6 11 1 17 -2 13 -5z m-597 -15 c0 -6 -8 -34 -17
-61 -15 -43 -25 -53 -65 -74 -37 -19 -48 -30 -48 -49 0 -13 -4 -27 -10 -30 -5
-3 -10 -24 -10 -46 0 -22 -5 -39 -11 -39 -7 0 -9 12 -5 33 3 17 8 74 12 125 4
50 11 92 15 92 5 0 9 -16 9 -35 0 -50 18 -44 22 8 3 44 21 58 26 20 3 -19 6
-21 23 -10 10 6 19 18 19 25 0 16 22 52 32 52 5 0 8 -5 8 -11z m770 2 c0 -5
-7 -14 -16 -22 -10 -8 -14 -22 -10 -40 5 -29 -8 -53 -36 -62 -13 -5 -18 -1
-18 13 0 24 -17 26 -40 5 -9 -8 -31 -18 -48 -21 l-32 -7 31 63 c18 34 39 64
46 67 8 3 26 -5 40 -18 l25 -24 21 28 c21 27 37 35 37 18z m90 -41 c0 -39 -1
-40 -35 -40 -24 0 -35 5 -35 15 0 9 10 15 26 15 23 0 25 3 20 25 -5 18 -2 25
9 25 11 0 15 -11 15 -40z m1658 28 c19 -19 14 -30 -8 -18 -11 6 -20 15 -20 20
0 14 14 12 28 -2z m443 2 c30 -17 24 -40 -11 -40 -31 0 -35 6 -24 34 7 19 9
19 35 6z m-3261 -9 c0 -6 -4 -13 -10 -16 -5 -3 -10 1 -10 9 0 9 5 16 10 16 6
0 10 -4 10 -9z m40 -13 c0 -27 -16 -55 -25 -46 -9 9 5 68 16 68 5 0 9 -10 9
-22z m205 12 c-3 -5 -11 -10 -16 -10 -6 0 -7 5 -4 10 3 6 11 10 16 10 6 0 7
-4 4 -10z m2035 -5 c0 -9 -6 -12 -15 -9 -8 4 -15 10 -15 15 0 5 7 9 15 9 8 0
15 -7 15 -15z m2213 8 c-7 -2 -21 -2 -30 0 -10 3 -4 5 12 5 17 0 24 -2 18 -5z
m-4409 -30 c-8 -33 -12 -39 -20 -30 -9 9 5 57 16 57 6 0 8 -11 4 -27z m2879
-3 c7 -27 -11 -36 -31 -17 -12 13 -13 19 -3 31 16 19 27 14 34 -14z m-2838
-29 c-8 -46 -25 -65 -25 -27 0 30 18 81 26 73 3 -3 3 -24 -1 -46z m1878 32
c-7 -2 -19 -2 -25 0 -7 3 -2 5 12 5 14 0 19 -2 13 -5z m1705 -15 c16 -16 15
-37 -3 -44 -20 -8 -58 38 -42 48 17 11 31 10 45 -4z m842 2 c10 -7 -5 -9 -50
-9 -48 1 -58 3 -40 9 35 11 72 11 90 0z m-4191 -17 c-14 -9 -31 -28 -37 -42
-10 -25 -10 -25 -11 -3 -2 38 17 62 47 62 l27 -1 -26 -16z m-329 -43 c0 -16
-4 -30 -10 -30 -11 0 -14 43 -3 53 11 12 13 8 13 -23z m1179 3 c2 -2 -10 -3
-29 -3 -28 0 -31 2 -20 15 10 12 16 13 29 3 9 -7 18 -14 20 -15z m2401 17 c0
-5 -2 -10 -4 -10 -3 0 -8 5 -11 10 -3 6 -1 10 4 10 6 0 11 -4 11 -10z m-1894
-14 c20 0 36 -6 43 -18 11 -17 3 -18 -156 -18 -93 0 -213 -3 -268 -6 -80 -5
-98 -4 -88 6 11 11 107 23 176 21 15 0 35 -1 45 -1 50 -1 168 13 177 21 5 5
16 6 25 2 8 -4 29 -7 46 -7z m-1916 -10 c0 -7 -12 -34 -26 -60 -34 -60 -127
-113 -107 -60 3 8 0 14 -6 14 -6 0 -11 7 -11 15 0 8 9 15 20 15 12 0 20 -7 20
-17 0 -15 2 -15 9 -4 5 8 7 20 4 27 -2 6 0 15 6 19 6 3 11 -1 11 -10 0 -9 5
-13 10 -10 6 3 10 18 10 33 1 25 2 26 14 9 14 -19 33 -7 21 13 -7 12 2 30 16
30 5 0 9 -6 9 -14z m272 -37 l-10 -34 -1 45 c-1 31 2 41 10 33 7 -7 7 -21 1
-44z m3485 33 c8 -13 20 -18 40 -15 21 3 37 -4 66 -32 51 -47 47 -68 -18 -77
-104 -13 -171 -9 -199 13 -36 29 -33 41 9 33 28 -5 35 -3 35 10 0 9 -5 25 -12
35 -9 15 -9 23 1 35 18 22 64 20 78 -2z m-3567 -1 c0 -12 -20 -25 -27 -18 -7
7 6 27 18 27 5 0 9 -4 9 -9z m3405 -8 c39 -19 45 -32 15 -40 -10 -3 -22 -14
-25 -24 -6 -17 -13 -19 -70 -13 -60 6 -65 5 -88 -20 -18 -19 -34 -26 -60 -26
-43 0 -107 28 -107 47 0 17 15 16 45 -3 28 -18 55 -13 55 11 0 21 40 35 63 23
27 -14 50 -2 42 22 -5 15 0 21 27 29 48 14 63 13 103 -6z m-2260 -19 l50 -12
-65 -2 c-184 -8 -260 -7 -260 1 0 11 -5 10 93 15 44 2 86 8 95 13 9 5 21 6 27
3 5 -4 33 -12 60 -18z m1518 19 c-7 -2 -19 -2 -25 0 -7 3 -2 5 12 5 14 0 19
-2 13 -5z m-2536 -86 c-6 -120 -27 -151 -26 -37 1 76 10 120 25 120 2 0 3 -38
1 -83z m-141 15 c-14 -14 -16 -14 -16 -1 0 20 23 44 29 28 2 -6 -4 -18 -13
-27z m301 32 c-3 -3 -12 -4 -19 -1 -8 3 -5 6 6 6 11 1 17 -2 13 -5z m318 -4
c-3 -5 -17 -10 -31 -10 -14 0 -22 4 -19 10 3 6 17 10 31 10 14 0 22 -4 19 -10z
m2188 -5 c97 -1 179 -4 182 -6 9 -10 32 -138 26 -147 -13 -21 -562 -27 -1963
-24 l-818 2 0 70 0 70 55 0 c34 0 57 5 62 13 11 18 54 29 52 14 -4 -32 2 -34
123 -31 73 2 127 -1 134 -7 8 -7 108 -7 311 0 277 10 361 14 613 27 52 2 194
6 315 9 403 8 680 17 684 21 3 2 14 1 25 -3 12 -3 101 -7 199 -8z m-2753 -61
c0 -34 -4 -53 -10 -49 -5 3 -10 28 -10 56 0 27 5 49 10 49 6 0 10 -25 10 -56z
m36 -1 c-10 -10 -19 5 -10 18 6 11 8 11 12 0 2 -7 1 -15 -2 -18z m-134 -15
c-7 -7 -12 -8 -12 -2 0 14 12 26 19 19 2 -3 -1 -11 -7 -17z m58 8 c0 -7 -7
-19 -15 -26 -12 -10 -15 -9 -15 7 0 11 3 23 7 26 11 12 23 8 23 -7z m3380 -18
c11 -7 6 -8 -15 -4 -17 2 -37 1 -45 -4 -26 -16 3 -30 66 -31 82 0 147 -10 137
-20 -11 -11 -463 -14 -473 -3 -4 5 -11 24 -15 42 -8 38 4 41 50 14 17 -10 45
-22 64 -25 42 -9 109 11 125 35 9 15 18 18 51 12 22 -3 47 -11 55 -16z m-3500
-44 c0 -14 3 -14 15 -4 12 10 15 9 15 -5 0 -17 1 -17 21 1 21 19 21 19 18 -6
-4 -23 -8 -25 -59 -25 -30 0 -55 5 -55 10 0 6 5 9 12 7 7 -2 13 6 13 18 0 11
5 20 10 20 6 0 10 -7 10 -16z m130 9 c-1 -29 -15 -53 -31 -53 -18 0 -19 2 -4
30 14 27 35 41 35 23z m77 -23 c10 -27 9 -30 -8 -30 -14 0 -19 7 -19 30 0 17
4 30 8 30 4 0 13 -13 19 -30z m73 -5 c0 -14 -4 -25 -10 -25 -11 0 -14 33 -3
43 11 11 13 8 13 -18z"/>
<path d="M1171 6466 c-15 -18 -5 -40 12 -29 7 4 22 6 34 4 17 -2 21 1 17 13
-3 9 -10 16 -14 16 -5 0 -15 2 -23 5 -7 3 -19 -1 -26 -9z"/>
<path d="M1836 6061 c-4 -5 -3 -16 0 -24 4 -11 -6 -21 -30 -34 -34 -17 -35
-19 -18 -33 9 -8 31 -16 47 -18 16 -2 33 -9 37 -15 4 -6 10 -8 14 -4 4 4 3 12
-3 18 -9 9 -4 18 18 36 33 29 37 58 10 73 -24 12 -68 13 -75 1z"/>
<path d="M1771 6036 c-8 -9 -11 -19 -7 -23 9 -9 29 13 24 27 -2 8 -8 7 -17 -4z"/>
<path d="M3670 5621 c0 -6 5 -13 10 -16 6 -3 10 1 10 9 0 9 -4 16 -10 16 -5 0
-10 -4 -10 -9z"/>
<path d="M1105 5280 c-3 -5 1 -10 9 -10 9 0 16 5 16 10 0 6 -4 10 -9 10 -6 0
-13 -4 -16 -10z"/>
<path d="M1420 5385 c0 -8 5 -15 10 -15 6 0 10 7 10 15 0 8 -4 15 -10 15 -5 0
-10 -7 -10 -15z"/>
<path d="M2570 4875 c-6 -8 -21 -15 -32 -17 -42 -6 -29 -27 33 -57 35 -16 66
-28 71 -25 15 9 8 33 -12 44 -28 15 -25 32 4 24 27 -7 69 12 64 28 -6 17 -114
20 -128 3z"/>
<path d="M2830 4866 c-12 -32 -58 -41 -79 -15 -15 18 -18 18 -38 4 -13 -9 -23
-23 -23 -31 0 -18 44 -36 73 -30 12 3 34 7 49 10 36 8 67 42 61 67 -7 26 -32
24 -43 -5z"/>
<path d="M2837 4753 c-12 -11 -8 -21 13 -26 13 -3 20 -14 20 -28 0 -22 1 -22
17 -7 14 14 15 22 5 43 -11 23 -40 33 -55 18z"/>
<path d="M2480 4706 c0 -19 14 -28 34 -20 13 5 14 9 5 20 -15 18 -39 18 -39 0z"/>
<path d="M2036 4764 c-3 -8 3 -41 14 -72 12 -31 25 -72 31 -89 10 -32 23 -42
33 -25 2 4 -6 39 -19 77 -13 39 -24 82 -25 98 0 29 -24 38 -34 11z"/>
<path d="M1970 4741 c0 -10 7 -38 16 -62 8 -24 20 -73 25 -109 13 -91 28 -135
42 -121 8 8 8 24 -1 58 -12 51 -27 160 -25 181 0 6 -3 12 -7 12 -4 0 -13 14
-19 30 -11 33 -31 40 -31 11z"/>
<path d="M1740 4535 c-8 -10 -2 -20 27 -44 42 -35 65 -28 44 13 -18 32 -56 49
-71 31z"/>
<path d="M1839 4400 c-19 -13 0 -44 30 -48 16 -3 21 2 21 17 0 25 -30 43 -51
31z"/>
<path d="M1985 4316 c-10 -7 -15 -18 -11 -25 5 -8 12 -9 19 -3 7 6 21 12 32
14 20 4 20 4 -1 16 -17 9 -25 8 -39 -2z"/>
<path d="M1886 4301 c-18 -20 -15 -41 6 -41 6 0 20 -7 30 -17 26 -24 63 -25
84 -2 14 15 14 19 3 19 -8 0 -21 -6 -28 -12 -11 -11 -14 -10 -18 0 -3 7 -18
19 -34 27 -18 10 -26 20 -23 30 8 20 1 19 -20 -4z"/>
<path d="M3530 3230 c0 -6 7 -21 15 -33 29 -44 45 -122 45 -214 0 -86 8 -111
26 -81 11 17 6 195 -7 242 -13 49 -45 96 -65 96 -8 0 -14 -5 -14 -10z"/>
<path d="M3566 2813 c-3 -10 -10 -85 -16 -168 -6 -82 -15 -163 -20 -179 -6
-16 -10 -63 -10 -105 -1 -42 -5 -96 -11 -121 -14 -61 -30 -670 -18 -670 29 0
41 118 39 385 0 83 4 191 9 240 6 50 20 187 31 305 11 118 25 234 30 257 5 23
7 49 4 58 -8 20 -31 19 -38 -2z"/>
<path d="M3544 1956 c-3 -8 -1 -39 5 -68 5 -30 13 -128 17 -218 6 -149 9 -165
30 -189 21 -24 23 -24 30 -8 3 10 2 23 -5 30 -6 6 -11 44 -11 86 -1 115 -18
312 -31 349 -12 34 -26 41 -35 18z"/>
<path d="M3470 1380 c0 -5 8 -18 18 -28 46 -46 62 -80 62 -134 0 -49 3 -57 38
-90 41 -40 118 -82 132 -73 19 11 -4 36 -51 56 -56 25 -79 54 -79 104 0 45
-22 89 -68 138 -36 37 -52 46 -52 27z"/>
<path d="M3760 1311 c0 -10 24 -31 54 -46 12 -6 28 -30 38 -60 20 -60 48 -74
48 -23 0 41 -40 102 -80 123 -32 17 -60 20 -60 6z"/>
<path d="M1822 3109 c-29 -11 -29 -29 1 -29 12 0 29 -4 37 -10 12 -7 11 -10
-5 -15 -77 -25 -82 -37 -26 -54 44 -13 91 -1 91 23 0 8 2 20 5 28 12 34 -58
73 -103 57z"/>
<path d="M2063 3100 c-18 -11 -33 -27 -33 -35 0 -19 14 -19 30 0 6 7 32 17 56
21 27 4 43 11 41 18 -6 19 -61 17 -94 -4z"/>
<path d="M2067 3053 c-26 -7 -17 -36 14 -47 27 -9 62 -4 88 13 12 8 12 12 2
25 -13 15 -63 20 -104 9z"/>
<path d="M2011 2931 c-7 -5 -22 -6 -32 -4 -10 3 -26 2 -35 -1 -13 -5 -14 -9
-4 -21 17 -21 89 -20 97 1 7 20 -8 36 -26 25z"/>
<path d="M1954 2861 c-5 -3 -17 -16 -27 -28 l-19 -21 93 1 c96 2 124 15 72 35
-36 13 -108 22 -119 13z"/>
<path d="M1987 2794 c-14 -14 -7 -25 13 -22 12 2 21 8 21 13 0 12 -24 18 -34
9z"/>
<path d="M3296 2674 c-5 -14 -4 -15 9 -4 17 14 19 20 6 20 -5 0 -12 -7 -15
-16z"/>
<path d="M1326 2261 c-4 -7 -5 -15 -2 -18 9 -9 19 4 14 18 -4 11 -6 11 -12 0z"/>
<path d="M1366 1581 c-7 -11 11 -26 42 -35 36 -12 27 -36 -12 -36 -43 0 -53
-14 -25 -33 29 -21 21 -49 -18 -59 -36 -9 -63 -41 -63 -75 0 -31 24 -29 38 2
7 14 24 31 39 37 42 18 73 49 73 73 0 12 9 30 20 40 27 25 25 50 -6 74 -27 21
-78 28 -88 12z"/>
<path d="M2371 1553 c-37 -18 -39 -38 -10 -87 15 -25 28 -36 45 -36 27 0 31
12 9 30 -20 17 -19 36 5 60 11 11 20 24 20 29 0 17 -38 19 -69 4z"/>
<path d="M1817 2348 c-14 -11 -15 -17 -4 -38 14 -28 52 -34 52 -9 0 9 6 23 13
31 6 8 9 18 5 21 -11 11 -48 8 -66 -5z"/>
<path d="M1767 2134 c-14 -14 -7 -25 13 -22 12 2 21 8 21 13 0 12 -24 18 -34
9z"/>
<path d="M2305 2147 c-24 -18 -11 -41 16 -27 10 6 19 17 19 25 0 19 -11 19
-35 2z"/>
<path d="M1841 1521 c-37 -10 -38 -31 -2 -31 37 0 81 16 81 30 0 11 -41 12
-79 1z"/>
<path d="M1741 1356 c-10 -12 -8 -17 8 -25 22 -12 37 0 27 24 -7 19 -20 19
-35 1z"/>
<path d="M1548 1301 c-32 -28 -32 -29 -14 -55 23 -35 52 -31 48 7 -4 34 11 35
33 1 13 -20 19 -23 31 -13 21 17 17 42 -9 67 -31 29 -50 28 -89 -7z"/>
<path d="M1704 1089 c-3 -6 -2 -15 3 -20 13 -13 43 -1 43 17 0 16 -36 19 -46
3z"/>
<path d="M1625 1067 c-28 -21 -11 -36 31 -27 41 10 48 15 39 29 -9 15 -48 14
-70 -2z"/>
<path d="M1627 1002 c-35 -38 -9 -76 43 -62 21 5 25 12 25 40 0 30 -4 35 -26
38 -15 2 -32 -5 -42 -16z"/>
<path d="M2172 1344 c-30 -20 -31 -74 -2 -74 11 0 20 6 20 14 0 8 5 18 10 21
7 4 9 -2 4 -19 -7 -29 9 -34 39 -12 20 16 22 44 3 69 -16 21 -45 22 -74 1z"/>
<path d="M2164 1006 c-16 -42 15 -68 50 -43 26 19 13 57 -20 57 -14 0 -27 -6
-30 -14z"/>
<path d="M1695 7428 c-16 -6 -39 -19 -51 -29 -11 -11 -26 -19 -33 -19 -8 0
-29 -10 -48 -21 -26 -17 -33 -27 -29 -42 3 -12 0 -27 -6 -34 -18 -22 -1 -26
31 -7 20 12 31 26 31 40 0 28 29 40 45 18 9 -14 16 -14 33 -5 12 6 22 19 22
29 0 38 17 47 87 47 54 0 68 3 68 15 0 19 -104 24 -150 8z"/>
<path d="M1910 6565 c-16 -20 -4 -35 28 -33 38 2 43 7 32 29 -13 23 -43 25
-60 4z"/>
<path d="M1727 6533 c-14 -14 -7 -35 9 -29 10 4 25 -1 35 -10 17 -16 19 -16
25 0 3 9 1 23 -6 31 -13 15 -51 20 -63 8z"/>
<path d="M1320 6520 c0 -5 5 -10 10 -10 6 0 10 5 10 10 0 6 -4 10 -10 10 -5 0
-10 -4 -10 -10z"/>
<path d="M1365 6488 c-27 -15 -36 -31 -25 -42 6 -6 15 -4 24 3 10 8 16 9 21 1
10 -16 25 -12 25 9 0 28 -21 42 -45 29z"/>
<path d="M88 3772 c-31 -4 -88 -55 -88 -78 0 -10 15 -3 46 21 53 40 98 46 144
18 26 -15 30 -15 54 0 14 9 33 14 42 10 12 -4 15 -2 12 8 -5 17 -66 25 -81 10
-6 -6 -17 -7 -26 -2 -23 12 -71 18 -103 13z"/>
<path d="M4614 3431 c-22 -15 -47 -39 -56 -53 -9 -14 -30 -28 -46 -31 -57 -12
-120 -84 -106 -122 8 -21 34 -19 34 3 0 21 42 68 69 77 11 3 29 2 39 -4 22
-12 42 3 42 32 0 23 67 85 100 92 14 3 56 1 93 -4 55 -8 77 -16 111 -45 38
-31 96 -57 96 -43 0 3 -18 24 -40 46 -59 60 -116 81 -215 81 -74 0 -86 -3
-121 -29z"/>
<path d="M4530 1304 c0 -13 89 -58 97 -50 12 11 -30 45 -65 52 -17 4 -32 3
-32 -2z"/>
<path d="M95 1057 c-3 -7 -25 -28 -50 -47 -33 -26 -44 -42 -45 -63 l0 -27 54
42 c54 43 81 81 71 99 -9 13 -25 11 -30 -4z"/>
<path d="M4763 864 c-17 -13 -17 -15 1 -29 21 -16 56 -4 56 19 0 20 -36 26
-57 10z"/>
<path d="M3767 470 c-48 -9 -68 -27 -41 -35 48 -16 49 -17 52 -138 3 -114 2
-116 -23 -133 -33 -22 -23 -34 29 -34 62 0 75 14 82 90 7 80 18 93 41 50 10
-18 36 -60 58 -94 42 -64 49 -67 123 -51 26 6 30 35 5 35 -27 1 -68 40 -92 88
-22 42 -21 62 2 62 19 0 67 49 67 69 0 33 -21 80 -39 86 -29 9 -224 13 -264 5z
m171 -46 c18 -5 22 -13 22 -45 0 -46 -10 -54 -55 -39 -27 9 -35 17 -35 35 0
22 23 55 38 55 4 0 17 -3 30 -6z"/>
<path d="M216 455 c-55 -15 -93 -46 -112 -92 -21 -49 -17 -79 17 -144 25 -46
41 -63 75 -79 24 -12 58 -21 76 -20 71 4 85 0 96 -25 7 -14 24 -31 39 -37 16
-7 36 -18 45 -26 13 -11 34 -13 79 -9 77 7 106 30 53 42 -107 25 -138 41 -149
76 -5 14 0 28 14 43 11 12 27 42 36 66 30 85 -6 175 -82 206 -40 17 -122 17
-187 -1z m139 -66 c32 -29 35 -35 35 -89 0 -83 -23 -110 -96 -110 -45 0 -59 4
-79 25 -47 46 -27 157 33 189 41 23 68 19 107 -15z"/>
<path d="M2617 459 c-56 -13 -86 -37 -98 -79 -15 -50 3 -89 55 -114 33 -16 44
-17 71 -7 17 6 41 11 53 11 20 0 22 -5 22 -54 0 -47 -3 -56 -21 -61 -34 -11
-84 3 -124 35 -21 17 -43 30 -49 30 -26 0 -48 -27 -49 -60 l-2 -35 48 -1 c26
0 71 -7 101 -14 47 -11 60 -10 106 5 103 34 124 86 68 162 -37 49 -59 58 -124
50 -42 -4 -46 -3 -55 21 -14 36 -6 49 34 54 26 3 38 -1 46 -14 6 -10 20 -18
31 -18 17 0 20 7 20 40 0 37 -2 40 -37 49 -43 12 -44 12 -96 0z"/>
<path d="M3006 463 c-11 -11 -6 -23 8 -23 18 0 66 -61 66 -83 0 -9 -10 -35
-22 -58 -20 -38 -22 -40 -35 -23 -18 24 -54 123 -56 154 -2 23 -6 25 -63 28
-62 3 -114 -10 -114 -28 0 -5 15 -10 34 -10 29 0 35 -5 47 -32 28 -72 102
-224 117 -240 8 -10 26 -18 40 -18 19 0 23 4 19 20 -5 19 57 150 72 150 4 0
21 -28 39 -62 47 -90 56 -100 87 -96 25 3 30 12 55 83 34 102 79 201 96 216
27 22 14 29 -52 29 -48 0 -65 -3 -62 -12 3 -7 17 -14 32 -16 15 -2 26 -6 24
-10 -33 -69 -68 -146 -73 -162 -3 -11 -10 -20 -14 -20 -3 0 -24 33 -46 74 -34
66 -38 77 -27 100 6 14 18 26 27 26 8 0 15 4 15 9 0 10 -204 13 -214 4z"/>
<path d="M3493 461 c-67 -12 -111 -80 -112 -176 -2 -97 56 -145 173 -145 82 0
133 29 164 91 20 41 22 52 12 95 -16 77 -31 104 -63 120 -35 19 -116 26 -174
15z m97 -47 c22 -9 40 -17 40 -18 0 -1 5 -28 10 -59 10 -49 8 -61 -10 -96 -22
-43 -60 -62 -89 -44 -39 24 -56 64 -56 126 1 103 24 123 105 91z"/>
<path d="M4125 459 c-4 -6 3 -18 15 -26 22 -15 22 -20 18 -139 -3 -75 -10
-129 -17 -138 -8 -10 -9 -16 -1 -21 19 -12 204 6 240 23 92 45 117 198 43 264
-35 32 -102 48 -199 48 -56 0 -95 -4 -99 -11z m183 -39 c13 0 35 -12 49 -26
24 -24 25 -30 20 -94 -3 -38 -11 -78 -17 -89 -22 -42 -111 -68 -124 -36 -7 19
-7 236 1 248 3 5 15 6 27 3 11 -3 31 -6 44 -6z"/>
<path d="M4577 462 c-18 -2 -35 -14 -48 -35 -26 -44 -24 -83 6 -112 21 -22 33
-25 100 -25 l75 0 0 -48 c0 -78 -31 -92 -90 -42 -19 17 -44 30 -56 30 -23 0
-116 -69 -108 -81 2 -4 69 -6 148 -5 113 3 148 7 168 20 51 34 44 127 -13 160
-24 14 -42 16 -89 11 l-58 -7 -4 47 c-2 26 0 49 5 52 16 10 95 -8 101 -22 9
-23 43 -18 50 8 14 52 12 53 -76 53 -46 0 -96 -1 -111 -4z"/>
<path d="M521 451 c-17 -11 -5 -31 19 -31 17 0 18 -8 18 -87 -1 -90 19 -180
46 -202 19 -16 138 -17 174 -2 28 12 34 11 58 -8 32 -25 61 -27 93 -5 27 19
18 32 -27 38 -18 2 -35 5 -37 7 -2 2 -5 57 -6 122 -2 106 -1 119 17 131 26 20
11 33 -46 41 -34 5 -50 2 -65 -10 -12 -10 -16 -18 -9 -21 40 -17 46 -31 51
-117 5 -82 4 -89 -17 -112 -33 -35 -93 -35 -116 0 -33 50 -49 200 -24 230 6 8
9 19 5 25 -8 12 -114 13 -134 1z"/>
<path d="M1045 451 l-60 -6 -1 -165 c-1 -108 2 -167 9 -172 11 -6 96 -3 153 7
30 5 54 36 54 70 0 22 -28 18 -53 -8 -15 -16 -32 -23 -52 -22 -29 2 -30 3 -33
60 -4 71 8 87 39 51 33 -37 49 -33 49 12 0 49 -14 64 -46 50 -30 -14 -32 -12
-40 39 -5 36 -3 43 16 53 27 14 50 -2 50 -35 0 -24 16 -35 38 -28 15 6 16 75
0 91 -12 12 -22 13 -123 3z"/>
<path d="M1761 452 c-18 -6 -13 -29 9 -35 18 -5 20 -14 20 -81 0 -81 -8 -93
-30 -48 -8 15 -24 41 -36 58 -15 21 -21 39 -17 54 5 19 3 22 -10 17 -10 -4
-24 2 -36 14 -16 17 -29 19 -97 17 -62 -2 -79 -6 -79 -18 0 -9 12 -17 30 -20
l30 -5 -3 -125 c-3 -119 -4 -126 -27 -145 -14 -12 -25 -24 -25 -29 0 -8 131 2
140 11 3 2 -3 10 -13 17 -14 11 -17 29 -17 110 0 53 3 96 8 95 4 0 40 -47 81
-105 82 -117 108 -137 149 -113 30 16 30 16 16 186 l-6 81 32 17 c20 10 30 22
28 33 -3 14 -15 17 -69 17 -36 1 -71 -1 -78 -3z"/>
<path d="M1265 440 c-6 -10 -9 -309 -3 -315 2 -1 42 -5 90 -8 l87 -5 21 35
c32 55 12 70 -38 28 -17 -14 -41 -25 -54 -25 -23 0 -25 4 -26 55 -1 58 11 78
32 50 10 -14 17 -15 33 -7 15 8 19 18 15 42 -6 39 -26 48 -53 24 -20 -18 -20
-18 -17 41 2 48 7 60 21 63 12 3 21 -6 28 -28 8 -21 16 -29 26 -26 8 3 19 6
25 6 14 0 1 62 -15 72 -18 11 -165 10 -172 -2z"/>
<path d="M2214 396 c-17 -8 -34 -20 -37 -28 -9 -24 27 -91 72 -136 64 -63 80
-135 41 -185 -28 -35 -25 -49 7 -45 34 4 73 59 73 103 0 18 -7 51 -15 74 -14
41 -14 41 10 41 40 0 32 35 -15 66 -33 22 -43 24 -55 14 -8 -7 -12 -17 -8 -23
3 -6 1 -7 -6 -3 -6 4 -20 25 -32 47 l-20 40 34 -6 c39 -8 52 4 42 35 -8 24
-44 26 -91 6z"/>
<path d="M2083 264 c-38 -19 -47 -41 -33 -80 26 -67 69 -87 138 -63 36 12 47
37 37 85 -13 69 -71 93 -142 58z m75 -36 c5 -7 13 -24 17 -37 14 -46 -41 -46
-65 0 -19 35 23 67 48 37z"/>
<path d="M4852 189 c-17 -6 -22 -15 -20 -31 2 -19 9 -23 38 -23 29 0 36 4 38
24 2 13 -2 28 -10 32 -16 10 -17 10 -46 -2z"/>
</g>
</svg>
