<?xml version="1.0" standalone="no"?>
<!DOCTYPE svg PUBLIC "-//W3C//DTD SVG 20010904//EN"
 "http://www.w3.org/TR/2001/REC-SVG-20010904/DTD/svg10.dtd">
<svg version="1.0" xmlns="http://www.w3.org/2000/svg"
 width="500.000000pt" height="878.000000pt" viewBox="0 0 500.000000 878.000000"
 preserveAspectRatio="xMidYMid meet">
<metadata>
Created by potrace 1.15, written by Peter Selinger 2001-2017
</metadata>
<g transform="translate(0.000000,878.000000) scale(0.100000,-0.100000)"
fill="#000000" stroke="none">
<path d="M1411 8718 c-6 -237 -32 -851 -37 -888 -5 -41 -7 -43 -20 -25 -8 10
-14 28 -14 39 0 12 -9 62 -21 111 -11 50 -27 119 -35 155 -8 36 -28 110 -44
165 -15 55 -31 113 -35 128 -3 16 -28 51 -56 79 -47 47 -51 49 -72 36 -12 -8
-34 -39 -49 -69 l-27 -54 19 -90 c10 -49 17 -93 14 -96 -2 -4 3 -28 10 -55 8
-27 19 -87 25 -134 7 -47 16 -107 21 -135 5 -27 15 -84 21 -125 16 -110 35
-220 58 -350 23 -128 55 -335 76 -480 7 -52 24 -160 39 -240 62 -352 59 -324
43 -396 -9 -36 -24 -76 -35 -88 -11 -11 -27 -36 -37 -55 -24 -48 -65 -205 -65
-250 0 -47 -76 -348 -156 -616 -22 -72 -66 -186 -129 -330 -32 -74 -95 -290
-95 -325 0 -26 -15 -69 -44 -129 -64 -131 -126 -330 -126 -409 0 -41 25 -101
42 -103 7 -1 22 -2 33 -3 17 -1 20 -7 17 -41 -2 -22 -10 -59 -18 -83 -19 -57
-19 -224 0 -260 8 -15 28 -39 45 -55 33 -29 34 -32 31 -122 -1 -43 5 -74 20
-109 13 -28 20 -59 17 -75 -3 -14 1 -62 9 -106 17 -95 17 -105 4 -105 -5 0
-14 19 -20 43 -23 85 -106 192 -208 269 -72 54 -102 64 -203 73 -105 8 -196
-14 -327 -78 l-82 -41 0 -791 0 -792 25 -11 c14 -6 25 -15 25 -20 0 -5 34 -30
75 -56 64 -41 81 -47 117 -44 37 3 43 0 46 -17 5 -33 -62 -71 -136 -78 -68 -6
-152 -41 -152 -63 0 -16 12 -18 25 -5 6 5 57 17 115 25 71 11 109 21 117 32 6
9 16 14 22 13 5 -2 -2 -17 -15 -33 -20 -23 -37 -30 -87 -36 -34 -5 -87 -17
-117 -28 l-55 -19 -3 -46 c-3 -39 0 -47 15 -48 49 -3 74 -9 104 -24 34 -18 31
-24 -19 -40 -21 -6 -23 -5 -13 13 14 27 4 32 -47 25 -36 -5 -42 -9 -42 -30 0
-20 4 -22 25 -17 19 5 25 2 25 -10 0 -8 -11 -18 -25 -22 -16 -4 -25 -13 -25
-25 0 -25 36 -25 50 0 17 33 102 54 184 47 185 -17 226 -18 226 -7 0 6 -5 11
-12 11 -19 0 5 18 27 20 37 4 45 0 38 -17 -5 -13 -2 -15 17 -10 13 3 30 1 38
-6 21 -17 129 -12 176 8 27 11 42 13 49 6 12 -12 11 -12 -74 -36 -31 -9 -65
-25 -74 -35 -14 -15 -21 -17 -32 -9 -18 15 -39 -3 -46 -39 -7 -33 -72 -101
-110 -114 -21 -8 -27 -16 -24 -29 3 -12 0 -19 -8 -19 -21 0 -27 17 -14 42 9
17 9 24 -5 33 -23 17 -20 43 7 47 23 3 32 38 11 45 -15 5 -74 -51 -74 -70 0
-9 -4 -18 -9 -22 -5 -3 -12 -19 -16 -35 -7 -33 -21 -31 -35 6 -11 28 -35 32
-44 8 -4 -9 -9 -14 -13 -11 -7 8 -56 -17 -72 -37 -17 -20 -31 -21 -31 -2 0 8
-13 17 -30 21 -17 4 -30 9 -30 11 0 12 30 62 44 73 23 19 20 34 -5 26 -18 -6
-19 -5 -8 14 8 11 10 23 6 27 -9 10 -45 -24 -53 -50 -4 -11 -17 -31 -30 -43
-20 -18 -24 -32 -24 -79 l0 -57 26 23 c21 21 27 22 34 10 14 -22 13 -25 -25
-59 -33 -29 -35 -34 -35 -96 l0 -65 53 2 c28 1 55 6 58 11 4 5 16 3 28 -5 19
-11 24 -11 36 5 13 18 14 18 23 0 10 -17 11 -17 17 0 9 21 25 23 25 2 0 -16
16 -20 24 -6 3 5 25 7 48 4 33 -5 44 -2 55 12 12 18 13 18 13 -3 0 -20 3 -21
20 -12 14 7 26 8 39 0 26 -13 49 -3 54 23 l4 22 8 -23 c6 -18 10 -20 21 -11
11 9 14 8 14 -2 0 -18 17 1 22 26 4 18 6 17 16 -8 15 -35 29 -34 37 3 8 37 25
40 25 4 0 -14 4 -23 10 -19 5 3 10 17 10 31 0 13 5 24 10 24 6 0 10 -16 10
-36 0 -38 22 -44 28 -8 7 35 22 39 22 6 0 -18 5 -32 10 -32 6 0 10 -7 10 -15
0 -16 7 -15 -350 -17 -63 -1 -149 0 -190 0 -162 3 -210 -1 -210 -16 0 -9 6
-12 16 -8 9 3 1134 6 2500 6 1366 0 2484 4 2484 8 0 5 -154 10 -341 11 -247 1
-348 5 -365 14 -13 7 -35 28 -49 47 l-25 34 25 13 c13 8 29 23 35 34 16 29 -1
45 -57 52 -51 5 -74 26 -66 58 4 14 1 18 -10 14 -9 -4 -13 -14 -10 -26 7 -24
-4 -24 -44 1 -21 12 -31 26 -30 39 1 12 4 21 8 21 4 0 6 7 5 16 0 9 12 26 27
38 25 19 40 21 130 19 76 -2 107 1 124 12 30 20 29 43 -2 57 -13 6 -22 15 -19
20 3 4 10 6 15 2 5 -3 66 -8 135 -10 127 -4 150 0 184 35 8 9 12 12 8 7 -3 -4
-4 -14 -1 -22 3 -8 -9 -19 -30 -28 -72 -30 -69 -86 4 -86 54 0 61 -20 7 -22
-24 0 -50 -1 -58 -2 -11 -1 -15 -14 -16 -49 -1 -32 2 -47 10 -44 6 3 10 9 9
15 -2 7 4 9 13 5 9 -3 32 -6 53 -7 52 -1 44 -19 -14 -31 -46 -10 -52 -15 -72
-55 l-21 -45 24 -8 c13 -5 22 -13 18 -18 -3 -5 -1 -9 5 -9 6 0 13 12 17 28 10
47 12 49 44 60 28 10 32 9 40 -14 15 -38 12 -74 -5 -74 -8 0 -15 -8 -15 -18 0
-13 13 -23 40 -32 22 -7 43 -10 47 -7 9 9 9 85 -1 124 l-7 32 101 -3 c89 -3
102 -1 110 15 34 62 -8 92 -126 91 -98 -1 -106 8 -13 14 73 5 89 12 65 30 -12
8 -37 11 -74 7 -42 -3 -53 -2 -42 6 8 6 38 11 65 11 63 0 95 9 95 25 0 15 -64
25 -99 16 -31 -9 -92 -1 -85 10 3 5 22 9 42 9 55 0 112 19 112 36 0 13 -14 15
-75 13 -79 -2 -91 1 -82 24 4 11 16 12 49 7 56 -8 68 -4 68 24 0 25 -18 51
-40 59 -8 3 8 6 36 6 39 1 60 -5 88 -24 l36 -24 0 1015 0 1016 -100 -4 c-110
-3 -135 -15 -106 -46 16 -19 15 -20 -22 -26 -40 -6 -58 -19 -64 -46 -2 -11 9
-16 47 -20 43 -4 50 -8 53 -29 3 -18 0 -22 -12 -18 -20 8 -187 -20 -200 -33
-13 -13 14 -42 34 -37 22 6 52 -11 44 -24 -3 -6 -27 -10 -53 -9 -68 4 -85 1
-105 -13 -18 -13 -18 -15 3 -34 18 -16 42 -23 111 -28 88 -7 88 -7 87 -34 -2
-21 3 -27 26 -29 51 -6 27 -19 -45 -25 -87 -6 -110 -14 -106 -36 2 -11 16 -17
42 -19 38 -3 39 -4 14 -16 -13 -7 -62 -19 -107 -26 -90 -14 -136 -39 -113 -61
8 -8 44 -14 95 -16 45 -1 93 -6 107 -11 l24 -9 -22 -12 c-12 -6 -72 -14 -134
-18 -119 -6 -178 -22 -178 -47 0 -17 13 -20 71 -17 21 2 54 -6 78 -18 22 -12
54 -21 70 -21 23 0 41 -11 73 -46 23 -25 61 -57 85 -71 63 -37 81 -83 33 -83
-38 0 -36 -39 3 -58 36 -17 -5 -14 -48 3 -20 9 -45 13 -55 10 -11 -3 -29 4
-48 20 -32 27 -79 33 -113 14 -15 -8 -19 -19 -17 -42 3 -27 0 -32 -17 -29 -75
12 -135 0 -135 -27 0 -30 28 -45 80 -43 67 3 83 -18 35 -47 -19 -11 -35 -25
-35 -30 0 -15 50 -51 70 -51 22 0 28 -33 32 -175 3 -85 1 -99 -12 -96 -8 2
-26 6 -40 8 -15 3 -33 17 -42 34 -21 36 -44 36 -88 -1 -22 -20 -45 -30 -66
-30 -59 0 -62 5 -56 76 l5 65 -49 45 c-94 87 -106 94 -170 95 -77 0 -165 17
-185 36 -9 8 -15 22 -12 32 3 11 0 22 -6 25 -6 4 -11 30 -11 59 0 28 -4 101
-10 161 -5 61 -11 161 -12 223 -3 100 -1 112 14 117 14 3 18 15 18 49 0 48 18
73 59 79 13 1 29 11 35 20 9 15 2 26 -37 66 l-48 49 -2 79 c-1 83 4 97 56 175
39 57 90 94 151 110 45 11 48 11 75 -15 24 -23 30 -25 40 -12 7 9 10 24 6 37
-6 19 -4 21 18 15 21 -5 29 -1 38 16 6 13 13 25 15 27 2 2 15 -6 30 -18 35
-28 46 -18 38 34 -15 105 42 218 138 270 46 25 66 30 151 33 117 5 171 -13
242 -82 51 -48 89 -135 75 -171 -4 -12 -4 -28 1 -37 8 -15 12 -15 36 -3 27 14
67 11 90 -7 24 -19 35 -3 16 21 -15 18 -29 23 -60 23 l-40 -1 -6 49 c-8 67
-26 97 -89 151 -69 59 -124 80 -225 86 -89 5 -146 -8 -227 -53 -75 -42 -154
-138 -186 -226 -10 -30 -82 -72 -140 -81 -92 -14 -249 -123 -263 -182 -3 -11
-5 1 -6 27 0 26 5 62 13 80 40 93 77 198 72 206 -3 5 6 45 19 88 14 44 29 109
34 144 17 111 30 184 41 219 5 18 6 41 1 50 -5 9 -11 45 -14 81 -27 284 -35
323 -129 614 l-92 281 -1 130 c-1 72 -5 159 -9 195 l-9 65 34 -32 c64 -60 173
-87 215 -53 25 22 15 30 -29 24 -32 -5 -54 -1 -91 17 -54 25 -81 62 -92 123
-3 23 -15 49 -25 59 -18 17 -19 38 -19 356 0 186 -3 392 -6 458 l-7 120 33 12
c50 17 73 14 163 -20 107 -41 192 -122 227 -214 44 -121 57 -304 26 -385 -10
-25 -20 -55 -23 -67 -5 -20 -3 -21 33 -11 102 26 149 15 179 -42 19 -37 19
-63 0 -100 -16 -31 -5 -50 19 -31 8 7 16 7 23 0 6 -6 19 -6 34 -1 13 5 39 7
57 5 25 -4 32 -2 32 11 0 19 -40 30 -80 22 -28 -5 -30 -4 -30 28 0 46 -22 95
-59 130 -23 22 -43 30 -88 35 -64 7 -61 0 -45 99 11 65 -8 237 -34 305 -11 26
-44 80 -74 118 -49 62 -65 76 -145 115 -74 37 -101 45 -150 46 -33 1 -69 -1
-80 -3 -18 -4 -21 3 -27 56 -4 33 -14 357 -23 720 -17 723 -31 1193 -41 1413
l-7 142 -1077 0 -1077 0 -2 -62z m347 24 c23 -4 43 -11 43 -17 -1 -15 46 -25
114 -24 90 1 368 -11 387 -17 10 -3 27 0 39 7 21 11 150 24 234 23 166 -1 469
-15 483 -23 9 -4 34 -11 55 -15 38 -7 43 -26 6 -26 -26 0 -24 -16 4 -24 38
-10 47 -7 57 19 10 26 18 29 43 19 9 -3 12 -14 9 -29 -5 -28 -39 -38 -111 -33
-26 2 -45 -2 -48 -8 -4 -11 179 -29 350 -33 76 -2 77 -2 89 26 12 26 13 23 16
-41 2 -37 0 -71 -3 -75 -10 -9 -280 -7 -283 3 -1 4 55 10 124 12 116 3 162 13
150 33 -5 7 -346 5 -353 -3 -3 -2 7 -22 21 -43 43 -65 60 -173 41 -269 -9 -43
-84 -122 -145 -152 -55 -28 -65 -30 -140 -25 -55 4 -80 2 -80 -5 0 -17 31 -30
78 -35 46 -4 69 -17 31 -17 -33 0 -53 -15 -46 -34 4 -10 18 -16 37 -16 26 0
30 -4 30 -27 0 -32 7 -44 34 -58 28 -16 20 -30 -17 -31 -59 -1 -66 -4 -78 -25
-8 -17 -8 -23 2 -29 7 -5 14 -15 15 -24 1 -9 19 -32 40 -52 l39 -36 -28 -20
c-15 -11 -27 -28 -27 -38 0 -22 82 -90 109 -90 31 0 26 15 -14 46 -42 32 -48
59 -10 50 19 -5 27 -2 32 10 6 15 7 15 20 -1 11 -16 10 -21 -3 -37 -15 -16
-15 -18 0 -24 49 -19 61 33 21 92 -14 20 -25 42 -25 49 0 17 119 120 135 117
8 -1 19 7 25 18 15 28 54 28 47 -1 -7 -25 11 -33 46 -20 15 6 47 8 71 5 l44
-6 7 -65 c6 -57 10 -65 32 -74 20 -7 23 -13 15 -21 -21 -21 -13 -55 16 -76 23
-17 24 -22 11 -27 -11 -4 -15 -13 -11 -27 4 -17 1 -19 -16 -14 -19 6 -26 -1
-52 -55 -38 -80 -60 -103 -113 -119 -23 -7 -51 -16 -62 -21 -11 -6 -31 -8 -45
-7 -17 2 -25 -2 -25 -12 0 -21 45 -29 80 -14 43 18 131 44 149 44 9 0 16 -4
16 -10 0 -5 -13 -10 -30 -10 -21 0 -30 -5 -30 -16 0 -13 13 -15 77 -13 51 1
78 -2 81 -9 2 -8 -17 -12 -62 -12 -35 0 -76 -4 -91 -10 -23 -9 -25 -14 -19
-45 20 -110 -149 -168 -218 -75 -12 17 -28 30 -35 30 -18 0 -16 -9 7 -48 11
-18 20 -35 20 -38 0 -3 -18 -4 -40 -2 -23 2 -38 -1 -37 -7 1 -5 31 -11 67 -12
36 -1 91 -5 122 -9 48 -5 61 -3 85 14 24 17 43 20 118 19 l90 -2 0 -119 c0
-93 -3 -120 -14 -124 -11 -4 -13 2 -8 26 5 23 2 34 -11 42 -12 8 -14 13 -4 16
6 3 10 10 6 15 -3 5 -11 6 -17 2 -7 -4 -25 -8 -41 -8 -40 0 -44 -20 -6 -33 30
-11 30 -12 30 -82 0 -44 -6 -82 -15 -100 -18 -35 -70 -76 -107 -85 -38 -10
-36 -35 1 -35 36 0 50 -17 19 -22 -17 -2 -22 -9 -21 -25 2 -14 -5 -27 -17 -33
-28 -15 -40 -5 -40 33 0 18 -4 38 -9 46 -13 20 -30 5 -24 -21 4 -14 0 -26 -12
-34 -26 -19 -32 -18 -40 9 -6 19 -8 20 -12 4 -8 -29 4 -47 31 -47 14 0 37 -11
53 -26 24 -22 25 -28 15 -45 -11 -17 -10 -26 8 -55 12 -19 24 -34 27 -34 3 0
18 11 35 25 32 27 72 33 85 13 4 -7 9 -28 10 -47 3 -44 17 -59 38 -41 14 12
18 11 26 -1 5 -8 7 -24 4 -37 -4 -18 -1 -25 15 -29 13 -4 20 -14 21 -32 0 -14
2 -51 3 -81 6 -109 -11 -125 -63 -60 -25 31 -39 40 -62 40 -38 0 -34 -21 6
-32 33 -8 45 -23 45 -58 0 -15 6 -32 13 -39 10 -11 7 -12 -13 -5 -41 12 -64 7
-88 -23 -34 -42 -55 -63 -63 -63 -11 0 -136 231 -150 277 -7 24 -23 50 -35 58
-13 8 -35 37 -48 63 -13 26 -43 65 -65 86 -38 37 -40 43 -34 80 3 23 11 52 18
66 6 14 11 39 10 55 -1 24 -6 30 -24 30 -12 0 -25 5 -29 11 -4 6 -27 14 -52
18 -38 6 -177 57 -229 85 -21 11 -25 31 -7 31 9 0 16 7 16 16 0 9 10 24 23 34
20 17 21 19 4 26 -12 4 -26 -1 -41 -15 -21 -20 -24 -20 -30 -5 -9 24 12 44 45
44 32 0 48 18 28 31 -8 5 -29 9 -46 9 -23 0 -33 5 -33 15 0 20 28 31 43 16 6
-6 28 -11 48 -11 40 0 59 -14 34 -24 -25 -9 -39 -57 -21 -74 16 -16 38 -8 30
12 -3 7 1 18 9 24 11 9 22 8 48 -5 55 -27 91 -83 54 -83 -21 0 -31 -30 -14
-41 27 -17 58 -9 81 21 26 35 43 39 35 8 -13 -48 50 -67 78 -24 14 21 14 26
-7 65 -12 22 -25 41 -30 41 -4 0 -8 11 -8 25 0 30 16 33 23 5 4 -14 10 -18 22
-14 10 4 22 -1 31 -14 8 -12 21 -19 29 -16 17 7 20 -17 5 -32 -16 -16 5 -63
48 -106 20 -21 40 -38 44 -38 17 0 7 30 -17 48 -29 23 -32 57 -9 90 12 17 13
26 4 37 -14 16 1 27 20 14 21 -13 30 -11 30 5 0 8 -13 17 -30 21 -16 4 -30 10
-30 15 0 11 49 19 56 9 8 -14 26 -11 22 4 -3 6 -20 17 -39 24 l-34 11 29 7
c18 5 36 3 49 -4 26 -17 46 1 27 24 -10 13 -9 15 8 15 11 0 22 -7 26 -15 8
-22 26 -19 26 4 0 11 5 23 10 26 28 17 -10 25 -98 20 -53 -2 -131 -1 -172 3
-68 6 -75 9 -78 30 -3 20 -7 22 -37 16 -42 -7 -61 2 -44 22 6 8 20 14 30 14
11 0 24 11 31 25 9 20 8 28 -5 43 -21 23 -12 35 14 19 10 -6 21 -8 25 -4 6 6
-14 67 -23 67 -9 0 -70 -47 -110 -84 -36 -34 -45 -38 -75 -32 -18 4 -48 10
-67 13 -25 4 -36 13 -46 38 -8 17 -21 37 -29 45 -23 18 -20 49 9 95 29 47 30
62 10 113 -17 41 -82 86 -110 76 -8 -4 -15 -1 -15 5 0 7 -7 14 -16 18 -22 8
-83 75 -84 91 0 7 -10 17 -22 21 -23 9 -22 9 5 16 19 5 26 12 23 22 -4 9 1 17
14 20 21 6 27 37 9 49 -6 3 -16 1 -22 -5 -6 -6 -26 -11 -44 -11 -32 0 -33 -2
-29 -32 2 -18 5 -37 6 -43 12 -54 -22 -80 -54 -41 -32 37 -58 46 -141 46 -81
0 -123 -13 -170 -52 -17 -14 -48 -27 -74 -31 -27 -3 -57 -17 -81 -36 -44 -35
-56 -28 -41 26 11 39 1 63 -25 63 -19 0 -18 29 1 36 8 4 15 12 15 20 0 17 -41
19 -58 2 -14 -14 -16 -54 -3 -63 17 -10 42 -70 31 -73 -15 -5 -12 -33 7 -54 9
-10 14 -20 11 -23 -3 -3 -31 -10 -64 -16 -64 -12 -91 -29 -96 -63 -2 -13 -10
-21 -22 -21 -34 0 -28 -19 18 -58 45 -37 66 -81 81 -169 5 -35 4 -38 -18 -38
-13 0 -32 -7 -43 -15 -10 -8 -35 -14 -54 -15 -40 0 -100 32 -100 54 0 22 -30
48 -44 37 -7 -5 -21 -5 -36 1 l-25 9 25 19 c24 19 23 22 -9 24 -8 1 -16 7 -19
15 -4 11 4 13 36 8 46 -6 69 11 57 40 -23 52 -6 73 55 73 35 0 37 18 3 35 -12
6 -28 17 -37 24 -9 7 -23 10 -32 7 -9 -4 -36 5 -61 19 -25 14 -52 25 -59 25
-18 0 -17 10 1 34 19 26 19 61 -1 90 -10 16 -12 26 -5 31 6 3 11 24 11 46 0
29 -4 39 -16 39 -10 0 -14 6 -11 15 4 8 2 17 -3 20 -21 13 -9 27 16 21 26 -7
35 -2 82 47 9 9 22 17 30 17 19 0 25 25 12 49 -10 20 -8 21 27 20 42 -1 145
-16 126 -18 -7 0 -13 -5 -13 -11 0 -16 47 -12 54 5 9 24 24 17 28 -11 2 -15
12 -32 23 -38 24 -13 45 -39 65 -80 17 -35 28 -38 43 -15 8 13 5 23 -10 43
-26 32 -18 89 12 94 18 3 19 2 3 -8 -10 -6 -18 -16 -18 -21 0 -6 8 -8 18 -5 9
3 24 1 32 -4 12 -8 12 -10 -3 -16 -27 -10 -20 -27 9 -20 22 6 25 4 22 -16 -2
-19 2 -23 22 -23 22 0 25 4 23 35 -1 21 -9 41 -22 51 -12 10 -21 27 -21 38 0
16 6 21 28 21 40 0 56 19 35 42 -9 10 -24 18 -34 18 -22 0 -30 12 -19 29 5 9
19 12 39 9 30 -4 44 13 21 27 -15 9 -12 25 5 25 9 0 29 -7 45 -15 l30 -15 -21
-21 c-16 -16 -20 -30 -16 -58 2 -21 7 -44 12 -50 4 -7 -1 -18 -11 -26 -18 -13
-17 -14 8 -25 31 -14 58 -8 58 14 0 8 11 27 24 41 19 20 29 24 42 17 11 -6 13
-11 5 -16 -21 -13 -11 -26 19 -26 30 0 40 13 20 25 -8 5 -7 11 1 21 9 11 6 15
-12 22 -56 21 -55 20 -37 21 9 1 21 8 26 17 13 24 56 0 49 -27 -7 -24 15 -36
71 -38 69 -2 84 -17 23 -23 -60 -6 -69 -12 -51 -33 14 -17 40 -20 40 -5 0 6 7
10 15 10 10 0 17 -14 21 -40 5 -31 14 -45 40 -61 36 -22 48 -19 78 18 17 23
19 23 31 6 13 -17 15 -17 42 3 39 29 37 50 -4 46 -31 -2 -33 0 -33 28 0 29 1
30 50 30 35 0 52 -5 58 -17 5 -9 22 -17 38 -18 16 0 40 -5 53 -9 21 -7 23 -6
18 13 -6 24 -3 25 23 11 30 -16 33 6 4 29 -24 19 -40 21 -160 21 -112 0 -134
-2 -134 -15 0 -23 -17 -18 -23 7 -8 27 10 40 43 32 31 -7 258 -6 271 2 5 3 13
-6 19 -20 5 -14 14 -26 19 -26 28 0 23 120 -6 152 -10 11 -17 39 -19 71 -1 28
-5 60 -9 70 -14 36 0 46 58 40 49 -5 55 -3 59 15 5 16 15 21 49 24 24 2 44 9
47 16 3 10 -8 13 -49 11 -31 -2 -53 1 -51 6 1 6 22 9 46 7 44 -4 86 10 86 28
0 6 -27 10 -61 10 -44 0 -60 3 -57 13 6 16 89 28 106 14 17 -13 32 7 32 43 0
56 -23 106 -69 151 -42 41 -55 47 -111 55 -59 8 -64 11 -72 38 -9 37 -3 44 20
23 23 -21 68 -22 79 -2 6 10 29 15 71 17 63 2 83 10 61 24 -24 14 -479 23
-480 9 0 -12 48 -22 144 -31 112 -10 65 -23 -63 -18 -100 5 -120 3 -120 -9 0
-10 20 -16 77 -21 42 -3 82 -11 88 -17 16 -17 -134 -4 -171 15 -24 12 -75 16
-253 19 -122 1 -224 0 -227 -4 -8 -14 21 -23 78 -25 68 -3 84 -10 68 -29 -18
-22 -2 -37 31 -30 32 7 36 -1 16 -29 -12 -16 -14 -16 -26 -2 -8 9 -21 16 -31
16 -9 0 -27 9 -40 20 -17 15 -37 20 -80 20 -72 0 -113 -14 -172 -58 -55 -42
-62 -70 -22 -99 25 -18 25 -19 3 -20 -48 -4 -33 -33 17 -33 19 0 34 -4 34 -10
0 -5 -13 -10 -29 -10 -27 0 -49 -15 -39 -26 3 -2 49 -6 103 -9 54 -3 100 -7
102 -9 3 -2 -26 -7 -64 -11 -87 -8 -125 -17 -131 -33 -2 -8 8 -12 31 -12 30 0
34 -3 30 -20 -4 -16 0 -20 18 -20 13 0 30 -9 37 -20 17 -28 102 -29 102 -1 0
27 33 32 67 10 34 -23 36 -43 5 -47 -14 -2 -22 -9 -19 -16 3 -7 -3 -23 -13
-37 -18 -23 -23 -24 -132 -23 -188 3 -255 40 -305 171 -28 72 -28 109 -3 174
10 29 18 55 16 58 -2 3 -32 6 -65 6 -34 -1 -61 2 -61 6 0 4 29 11 65 14 61 7
78 16 55 30 -18 11 0 25 31 25 33 0 39 16 8 25 -39 13 -12 28 56 32 74 4 80 6
71 21 -4 7 -73 8 -184 6 -134 -4 -173 -2 -159 6 25 16 332 33 357 20 24 -13
160 -13 180 0 56 35 -104 47 -410 30 -96 -6 -178 -14 -184 -20 -6 -6 -4 -15 4
-25 12 -15 11 -16 -22 -19 -7 -1 -13 16 -14 40 l-2 41 147 7 c81 4 155 4 164
0 10 -3 17 -1 17 5 0 18 -46 31 -106 31 -30 0 -54 5 -54 10 0 11 82 12 148 2z
m-281 -8 c-3 -3 -12 -4 -19 -1 -8 3 -5 6 6 6 11 1 17 -2 13 -5z m1613 -4 c0
-5 -4 -10 -9 -10 -6 0 -13 5 -16 10 -3 6 1 10 9 10 9 0 16 -4 16 -10z m214 -5
c11 -8 34 -15 52 -15 29 0 33 -4 41 -37 8 -33 13 -39 43 -43 18 -3 35 -10 37
-16 4 -12 -178 -26 -204 -16 -28 9 1 22 37 16 l38 -6 -1 38 c-1 48 -9 54 -73
54 -56 0 -69 7 -53 27 15 17 59 16 83 -2z m223 -1 c2 -5 -26 -10 -62 -10 -60
-2 -75 3 -59 19 10 9 118 1 121 -9z m3 -76 c0 -19 -2 -20 -10 -8 -13 19 -13
30 0 30 6 0 10 -10 10 -22z m-1955 -78 c3 -5 1 -10 -4 -10 -6 0 -11 5 -11 10
0 6 2 10 4 10 3 0 8 -4 11 -10z m130 0 c4 -6 -11 -10 -37 -10 -31 0 -39 3 -28
10 20 13 57 13 65 0z m1110 0 c-3 -5 -12 -10 -20 -10 -8 0 -17 5 -20 10 -4 6
5 10 20 10 15 0 24 -4 20 -10z m-542 -7 c-7 -2 -19 -2 -25 0 -7 3 -2 5 12 5
14 0 19 -2 13 -5z m133 -33 c8 0 14 -4 14 -8 0 -5 -19 -7 -42 -6 -66 2 -76 6
-43 14 17 4 36 6 43 4 8 -2 20 -4 28 -4z m244 0 c0 -5 -7 -10 -16 -10 -9 0
-23 -8 -30 -17 -16 -22 -28 -12 -19 16 4 15 15 21 36 21 16 0 29 -4 29 -10z
m-1180 -10 c12 -8 11 -10 -7 -10 -13 0 -23 5 -23 10 0 13 11 13 30 0z m80 -6
c0 -2 -12 -4 -26 -4 -14 0 -23 4 -20 9 6 8 46 4 46 -5z m973 9 c3 -5 2 -16 -2
-26 -6 -16 -8 -16 -29 -2 -12 9 -22 20 -22 26 0 11 47 12 53 2z m-916 -9 c-3
-3 -12 -4 -19 -1 -8 3 -5 6 6 6 11 1 17 -2 13 -5z m453 -36 c0 -6 -7 -7 -16
-4 -9 3 -21 6 -27 6 -7 0 -7 4 2 9 16 10 41 4 41 -11z m725 12 c-38 -14 -95
-21 -95 -11 0 12 22 17 75 18 29 1 34 -1 20 -7z m145 -9 c0 -10 -50 -19 -68
-13 -27 9 -9 22 28 22 22 0 40 -4 40 -9z m-793 -7 c-3 -3 -12 -4 -19 -1 -8 3
-5 6 6 6 11 1 17 -2 13 -5z m213 -4 c0 -5 -4 -10 -9 -10 -6 0 -13 5 -16 10 -3
6 1 10 9 10 9 0 16 -4 16 -10z m-790 -9 c0 -5 -25 -9 -55 -10 -30 0 -55 4 -55
9 0 6 25 10 55 10 30 0 55 -4 55 -9z m974 -7 c9 -22 -3 -32 -14 -14 -12 19
-12 30 -1 30 5 0 12 -7 15 -16z m-1441 -56 c3 -29 12 -82 21 -118 8 -36 24
-114 36 -175 12 -60 30 -142 41 -182 10 -39 19 -84 19 -100 0 -16 9 -61 20
-101 11 -39 20 -93 20 -119 0 -49 9 -96 34 -193 8 -30 31 -145 51 -255 20
-110 43 -229 51 -265 7 -36 19 -101 25 -145 6 -44 21 -134 34 -200 13 -66 29
-163 35 -215 7 -52 30 -180 52 -285 43 -209 92 -480 111 -620 7 -50 16 -95 20
-102 12 -19 -3 -42 -35 -48 -37 -8 -38 -7 -49 50 -5 25 -15 61 -23 78 -8 18
-22 91 -31 162 -21 177 -38 283 -74 463 -17 83 -38 194 -46 245 -8 50 -19 110
-23 132 -17 78 -91 492 -107 600 -32 211 -36 240 -45 314 -6 41 -14 88 -20
105 -5 17 -16 81 -25 141 -24 169 -59 370 -115 660 -19 99 -23 162 -10 199 15
47 26 39 33 -26z m67 -12 c0 -17 10 -51 21 -76 19 -40 76 -243 101 -360 5 -25
25 -110 43 -190 18 -80 36 -170 40 -200 4 -30 10 -71 15 -90 5 -19 16 -71 25
-115 9 -44 27 -127 41 -185 13 -58 30 -152 38 -210 35 -250 75 -477 105 -600
20 -78 33 -141 55 -265 54 -293 77 -410 109 -565 14 -63 28 -140 31 -171 l7
-57 -37 -6 c-20 -4 -40 -4 -44 1 -10 10 -47 190 -56 268 -3 33 -10 74 -15 90
-5 17 -15 75 -24 130 -22 146 -33 207 -60 330 -13 61 -29 153 -35 205 -6 52
-18 124 -25 160 -8 36 -21 110 -29 165 -24 152 -65 377 -91 505 -29 139 -41
203 -60 340 -21 148 -53 318 -80 435 -13 55 -27 120 -30 145 -4 25 -20 98 -36
163 -17 65 -32 141 -35 170 -5 48 -4 51 10 33 9 -11 16 -34 16 -50z m1664 49
c51 -10 70 -36 70 -100 1 -46 -3 -58 -29 -85 -39 -42 -69 -56 -132 -64 -50 -6
-52 -5 -70 24 -17 30 -48 45 -85 42 -28 -1 -31 16 -10 57 13 25 17 43 11 52
-13 21 -11 33 5 20 11 -9 24 -5 59 20 43 30 107 51 134 43 6 -1 27 -6 47 -9z
m166 -5 c0 -11 -48 -22 -62 -14 -6 4 1 12 18 19 29 12 44 11 44 -5z m-940 -1
c11 -7 -3 -9 -47 -6 -35 2 -66 7 -70 10 -11 11 101 8 117 -4z m319 -18 c19
-14 32 -18 36 -11 13 20 27 -3 21 -34 -5 -25 -2 -37 14 -51 11 -10 20 -31 20
-47 0 -24 -4 -28 -26 -28 -14 0 -39 -11 -55 -24 -15 -13 -34 -26 -40 -28 -20
-7 0 -28 25 -28 13 0 35 9 50 21 45 36 56 21 56 -78 0 -86 -1 -89 -35 -125
-30 -33 -40 -38 -80 -38 -39 0 -52 5 -77 30 -26 27 -30 36 -25 68 5 26 17 46
43 68 54 46 45 69 -27 69 -91 0 -119 28 -133 130 -6 43 -4 55 15 79 12 16 36
35 53 42 42 20 128 11 165 -15z m1174 -61 c5 -48 4 -76 -3 -85 -14 -17 -202
-13 -208 4 -3 8 14 9 56 5 64 -7 132 9 132 30 0 10 -27 13 -112 12 -99 -1
-113 1 -116 16 -3 15 9 18 105 20 88 2 108 6 108 18 0 12 -19 15 -107 15 -64
1 -112 5 -119 12 -17 17 2 22 105 27 53 2 99 6 102 9 3 3 16 2 27 -2 19 -7 23
-20 30 -81z m-1418 70 c-3 -5 -12 -7 -20 -3 -21 7 -19 13 6 13 11 0 18 -4 14
-10z m-124 -39 c-8 -5 -20 -7 -28 -4 -21 8 -15 13 15 13 20 0 23 -3 13 -9z
m1029 -12 c0 -5 -21 -9 -47 -9 -51 0 -50 16 2 22 34 4 45 1 45 -13z m-957 4
c-7 -2 -19 -2 -25 0 -7 3 -2 5 12 5 14 0 19 -2 13 -5z m-573 -13 c0 -5 -9 -10
-20 -10 -11 0 -20 5 -20 10 0 6 9 10 20 10 11 0 20 -4 20 -10z m545 -30 c4 -6
-12 -9 -42 -9 -47 2 -47 2 -13 9 19 4 38 8 42 9 4 0 10 -3 13 -9z m-419 -19
c-7 -10 -139 -23 -160 -15 -35 14 0 24 80 24 47 0 83 -4 80 -9z m-11 -61 c-3
-5 -19 -10 -35 -10 -16 0 -32 5 -35 10 -4 6 10 10 35 10 25 0 39 -4 35 -10z
m460 -30 c-28 -12 -67 -12 -60 0 3 6 23 10 43 9 30 0 33 -2 17 -9z m570 -46
c22 -18 58 -40 80 -50 39 -19 40 -20 40 -74 0 -51 -2 -56 -34 -77 -50 -34 -78
-30 -121 17 -41 44 -50 76 -50 177 0 61 0 62 23 50 13 -7 41 -26 62 -43z
m-125 36 c0 -5 -2 -10 -4 -10 -3 0 -8 5 -11 10 -3 6 -1 10 4 10 6 0 11 -4 11
-10z m965 0 c4 -6 -6 -10 -22 -10 -15 0 -66 -3 -113 -6 -58 -5 -82 -3 -75 4
15 15 42 20 127 21 42 0 80 -3 83 -9z m-1995 -10 c0 -5 -9 -10 -20 -10 -11 0
-20 5 -20 10 0 6 9 10 20 10 11 0 20 -4 20 -10z m145 1 c-6 -11 -120 -9 -131
2 -4 4 25 7 65 7 42 0 70 -4 66 -9z m894 -120 c11 -96 9 -113 -10 -94 -10 10
-19 168 -11 192 8 20 10 11 21 -98z m1021 84 c0 -8 -7 -15 -15 -15 -26 0 -18
20 13 29 1 1 2 -6 2 -14z m-1903 -20 c2 -6 -34 -11 -90 -12 -97 -2 -122 2
-113 15 7 12 200 9 203 -3z m1771 3 c-53 -11 -58 -20 -27 -41 20 -14 19 -15
-18 -14 -35 2 -38 4 -41 35 l-3 32 68 -1 68 -1 -47 -10z m134 -62 c3 -14 2
-29 -1 -34 -3 -5 -58 -10 -121 -12 -257 -7 -249 -8 -229 16 10 12 37 13 155 8
151 -7 184 -3 165 20 -12 14 -5 26 15 26 6 0 14 -11 16 -24z m-1854 1 c6 -5
12 -13 12 -17 0 -4 -59 -7 -130 -7 -72 0 -133 -3 -136 -6 -3 -3 -3 -11 1 -17
5 -8 31 -10 80 -7 82 6 278 -8 298 -20 23 -14 -46 -19 -215 -15 -123 3 -168 1
-168 -7 0 -19 15 -20 238 -25 118 -2 216 -7 219 -10 14 -14 -64 -18 -246 -12
-167 5 -200 4 -211 -8 -6 -8 -9 -24 -5 -35 3 -10 1 -22 -5 -26 -11 -7 -14 124
-4 187 l7 38 126 -2 c69 0 132 -5 139 -11z m1862 -152 c1 -38 1 -81 0 -95 l-1
-25 -16 23 c-13 19 -24 22 -81 22 -47 0 -71 -5 -84 -16 -16 -16 -18 -16 -24 0
-5 12 -20 16 -63 16 l-56 1 24 20 c17 14 38 19 70 19 25 -1 84 2 130 6 64 5
81 10 70 18 -8 6 -19 20 -25 31 -8 14 -26 22 -65 27 -81 9 -159 9 -159 -1 0
-14 27 -21 88 -22 31 -1 71 -4 87 -8 59 -13 -5 -21 -206 -27 -198 -5 -199 -5
-199 16 0 21 2 22 94 15 67 -5 95 -4 101 5 11 18 1 22 -62 23 -32 1 -58 7 -58
12 0 6 73 11 195 13 107 1 202 4 210 5 25 6 29 -5 30 -78z m-1320 20 c11 -13
8 -15 -13 -15 -28 0 -44 15 -25 23 21 9 25 8 38 -8z m377 -28 c-3 -11 -73 -18
-99 -11 -39 11 -15 24 42 22 33 -1 59 -6 57 -11z m199 3 c44 0 25 -17 -21 -18
-42 -1 -54 6 -38 22 4 3 13 4 21 1 7 -3 25 -5 38 -5z m399 -49 c9 -15 -7 -20
-84 -27 -50 -5 -71 -4 -71 5 0 6 15 11 33 11 17 0 39 5 47 10 19 12 67 13 75
1z m-1777 -48 c-2 -14 5 -19 35 -21 20 -2 37 -6 37 -10 0 -13 -39 -32 -45 -22
-3 6 -18 10 -32 10 -19 0 -24 4 -19 16 3 9 6 22 6 30 0 8 5 14 10 14 6 0 10
-8 8 -17z m92 7 c0 -5 -13 -10 -30 -10 -16 0 -30 5 -30 10 0 6 14 10 30 10 17
0 30 -4 30 -10z m1590 -60 c0 -5 -9 -10 -21 -10 -11 0 -17 5 -14 10 3 6 13 10
21 10 8 0 14 -4 14 -10z m-116 -16 c4 -9 4 -19 2 -21 -8 -8 -26 8 -26 23 0 19
16 18 24 -2z m-1546 -6 c-3 -7 -13 -13 -23 -13 -10 0 -20 6 -22 13 -3 7 5 12
22 12 17 0 25 -5 23 -12z m1632 -26 c0 -14 -46 -53 -53 -45 -12 11 -8 23 8 23
9 0 18 7 21 15 6 16 24 21 24 7z m-21 -85 c6 -8 8 -17 4 -20 -7 -8 -33 11 -33
24 0 13 16 11 29 -4z m-710 -100 c28 -14 50 -34 60 -54 19 -38 24 -40 51 -13
11 11 29 20 40 20 25 0 60 -34 60 -58 0 -10 5 -23 11 -29 12 -12 -4 -53 -22
-53 -6 0 -35 12 -66 27 -45 21 -62 24 -82 16 -39 -14 -100 -4 -112 18 -14 27
-46 24 -74 -7 -22 -23 -32 -26 -85 -25 -51 1 -67 -4 -110 -30 -28 -17 -57 -28
-65 -25 -18 6 -19 41 -4 85 12 35 29 42 29 11 0 -10 9 -24 19 -30 25 -13 33
-13 55 3 14 10 15 18 7 40 -10 26 -9 27 13 21 20 -5 27 0 40 24 28 54 70 75
166 80 14 1 45 -8 69 -21z m1196 -97 c3 -5 1 -10 -4 -10 -6 0 -11 5 -11 10 0
6 2 10 4 10 3 0 8 -4 11 -10z m8 -55 c-4 -15 -36 -12 -41 3 -3 9 3 13 19 10
13 -1 23 -7 22 -13z m-883 -39 c0 -14 9 -31 21 -39 18 -13 19 -18 7 -36 -17
-28 -29 -27 -62 8 -27 28 -27 30 -12 60 20 37 46 41 46 7z m-775 -23 c14 -15
25 -31 25 -35 0 -11 -61 -78 -71 -78 -5 0 -9 9 -9 20 0 13 -7 20 -20 20 -26 0
-25 13 2 25 28 13 32 26 14 50 -12 16 -17 18 -27 8 -7 -7 -19 -13 -27 -13 -12
0 -12 3 -2 15 22 26 85 19 115 -12z m1610 7 c3 -5 -1 -10 -9 -10 -9 0 -16 5
-16 10 0 6 4 10 9 10 6 0 13 -4 16 -10z m50 0 c-3 -5 -10 -10 -16 -10 -5 0 -9
5 -9 10 0 6 7 10 16 10 8 0 12 -4 9 -10z m-2010 -15 c0 -5 -21 -11 -47 -13
-39 -3 -48 0 -48 13 0 13 9 16 48 13 26 -2 47 -7 47 -13z m742 -6 l28 -10 -24
-18 -24 -19 21 -11 c23 -12 29 -36 12 -46 -6 -3 -18 1 -27 10 -16 16 -17 16
-30 0 -10 -15 -15 -16 -28 -5 -22 18 -18 30 10 30 30 0 32 15 5 32 -49 31 -4
60 57 37z m183 4 c0 -5 -5 -15 -10 -23 -7 -11 -12 -12 -21 -3 -6 6 -8 16 -5
22 8 12 36 15 36 4z m78 -23 c3 -8 1 -12 -3 -8 -13 13 -33 -11 -28 -32 5 -18
2 -19 -18 -12 -13 5 -25 15 -27 22 -3 7 0 10 7 6 6 -4 15 3 21 19 11 28 40 31
48 5z m-143 -10 c3 -5 -3 -10 -15 -10 -17 0 -20 -4 -15 -20 4 -11 2 -20 -4
-20 -12 0 -14 20 -5 44 7 18 30 21 39 6z m-385 -26 c7 -16 16 -24 24 -21 8 3
20 -1 28 -10 12 -15 10 -15 -17 -8 -16 5 -49 9 -72 10 -48 0 -52 6 -23 35 27
27 49 25 60 -6z m108 4 c17 -17 15 -25 -8 -31 -13 -3 -20 0 -20 9 0 8 -7 14
-15 14 -8 0 -15 5 -15 10 0 14 43 13 58 -2z m-590 -35 c2 -9 -8 -13 -32 -13
-37 0 -49 15 -18 23 26 7 45 3 50 -10z m883 -11 c-7 -2 -18 1 -23 6 -8 8 -4 9
13 5 13 -4 18 -8 10 -11z m1054 -32 c4 -6 -5 -10 -19 -10 -14 0 -26 5 -26 10
0 6 9 10 19 10 11 0 23 -4 26 -10z m-847 -54 l37 -2 3 -52 c2 -29 1 -52 -2
-52 -3 0 -25 11 -48 25 -100 60 -99 59 -305 58 -225 -2 -309 -16 -393 -68 -62
-38 -74 -33 -68 33 3 32 6 37 29 37 14 1 38 9 52 18 15 9 36 17 47 17 12 0 30
5 41 11 13 7 30 7 47 1 15 -5 36 -6 46 -2 11 3 50 1 87 -5 53 -9 72 -9 91 1
12 7 43 14 68 14 25 1 65 5 90 9 37 5 54 2 93 -18 26 -13 64 -25 85 -25z m932
15 c0 -4 -22 -11 -48 -14 -26 -3 -54 -7 -61 -9 -7 -2 -15 2 -18 9 -2 6 6 13
19 16 42 8 108 7 108 -2z m-2 -53 c-5 -15 -108 -24 -108 -9 0 10 30 17 83 20
19 0 27 -3 25 -11z m-137 -21 c-13 -13 -26 -3 -16 12 3 6 11 8 17 5 6 -4 6
-10 -1 -17z m-1881 -5 c0 -13 -12 -22 -22 -16 -10 6 -1 24 13 24 5 0 9 -4 9
-8z m902 -20 c9 -7 21 -34 28 -60 7 -26 19 -69 28 -95 19 -60 11 -131 -17
-161 -24 -25 -61 -126 -61 -167 0 -33 -44 -74 -90 -84 -35 -8 -146 18 -195 45
-18 10 -31 26 -34 41 -5 37 -56 141 -81 167 -22 23 -22 25 -10 130 15 131 28
173 58 188 33 16 354 13 374 -4z m-838 -38 c9 -22 8 -24 -9 -24 -8 0 -15 9
-15 20 0 24 15 27 24 4z m-71 -20 c-4 -10 -9 -12 -15 -6 -12 12 -1 35 12 27 5
-3 6 -13 3 -21z m1302 17 c17 -7 14 -9 -15 -13 -39 -6 -45 -4 -35 11 7 13 21
13 50 2z m55 -11 c0 -5 -2 -10 -4 -10 -3 0 -8 5 -11 10 -3 6 -1 10 4 10 6 0
11 -4 11 -10z m-162 -11 c-11 -6 -18 -22 -18 -39 0 -17 -4 -30 -10 -30 -13 0
-13 23 2 55 6 14 18 25 27 25 14 -1 13 -2 -1 -11z m-1048 -24 c10 -12 8 -16
-15 -25 -14 -5 -49 -10 -76 -10 -46 0 -50 -2 -44 -20 4 -11 2 -20 -4 -20 -13
0 -26 48 -16 58 5 6 93 26 131 31 6 0 17 -6 24 -14z m1194 -67 c21 -30 7 -47
-16 -19 -10 13 -18 27 -18 32 0 16 19 9 34 -13z m338 4 c-19 -6 -14 -22 9 -30
18 -7 19 -10 6 -20 -11 -10 -19 -8 -40 8 -30 24 -103 27 -132 7 -15 -12 -21
-11 -37 5 -10 10 -18 21 -18 24 0 3 31 3 69 -1 52 -5 76 -3 97 8 16 8 35 12
43 9 10 -4 11 -7 3 -10z m-1522 -7 c-10 -12 -8 -16 15 -25 27 -10 27 -11 10
-30 -17 -19 -18 -19 -56 1 -39 19 -39 20 -23 44 10 16 26 25 41 25 21 0 23 -2
13 -15z m-100 -5 c0 -5 -4 -10 -9 -10 -6 0 -13 5 -16 10 -3 6 1 10 9 10 9 0
16 -4 16 -10z m1404 -26 c3 -8 2 -12 -4 -9 -6 3 -10 10 -10 16 0 14 7 11 14
-7z m-1439 -13 c3 -5 1 -12 -5 -16 -5 -3 -10 1 -10 9 0 18 6 21 15 7z m1419
-27 c11 -29 7 -64 -9 -64 -9 0 -15 9 -15 24 0 13 -3 31 -6 40 -4 10 -1 16 9
16 8 0 18 -7 21 -16z m-1325 -19 c7 -7 16 -28 20 -46 6 -28 11 -33 29 -31 24
4 29 -7 10 -26 -9 -9 -9 -15 -1 -23 7 -7 9 -24 6 -39 -3 -15 0 -31 6 -34 6 -4
11 -14 11 -23 0 -21 -40 -74 -51 -68 -10 7 -1 53 14 73 8 10 7 16 -4 23 -8 5
-17 9 -20 9 -3 0 -23 13 -43 29 -21 17 -43 28 -51 25 -9 -4 -16 11 -23 53 -10
56 -9 59 16 80 28 23 55 22 81 -2z m141 15 c0 -5 -4 -10 -10 -10 -5 0 -10 5
-10 10 0 6 5 10 10 10 6 0 10 -4 10 -10z m24 -40 c15 0 16 -3 6 -15 -10 -12
-10 -18 1 -31 11 -14 11 -18 -4 -29 -13 -9 -15 -15 -7 -20 9 -5 9 -10 0 -19
-16 -16 -51 32 -43 62 3 13 1 22 -6 22 -6 0 -11 10 -11 21 0 17 4 20 23 15 12
-3 30 -6 41 -6z m1751 -23 c0 -26 -20 -25 -23 2 -3 16 1 22 10 19 7 -3 13 -12
13 -21z m5 -62 c0 -8 -5 -17 -11 -21 -16 -9 -30 18 -17 33 12 15 28 8 28 -12z
m-5 -54 c3 -5 1 -12 -5 -16 -14 -9 -52 4 -45 16 8 12 42 12 50 0z m-1765 -20
c0 -11 -26 -22 -34 -14 -12 12 -5 23 14 23 11 0 20 -4 20 -9z m1757 -28 c2 -6
-7 -8 -23 -5 -19 3 -22 7 -12 13 15 10 30 7 35 -8z m-675 -19 c15 -8 36 -14
46 -14 25 0 46 -25 38 -46 -4 -10 1 -25 10 -35 14 -15 15 -25 7 -51 -10 -34
-10 -34 -73 -22 -33 7 -86 53 -95 82 -6 21 -4 23 14 17 30 -9 26 11 -9 47 -16
16 -30 34 -30 40 0 12 54 1 92 -18z m-1282 6 c0 -5 -4 -10 -10 -10 -5 0 -10 5
-10 10 0 6 5 10 10 10 6 0 10 -4 10 -10z m1960 -31 c0 -11 -16 -11 -59 -3 -17
4 -29 9 -27 13 6 10 86 0 86 -10z m-31 -25 c44 -9 39 -24 -8 -24 -38 0 -57 10
-44 24 8 8 13 8 52 0z m-1879 -29 c0 -12 -24 -55 -32 -55 -12 0 -10 14 4 28
10 10 10 15 -2 22 -12 8 -10 10 8 10 12 0 22 -2 22 -5z m1815 -16 c4 -5 0 -18
-9 -28 -17 -18 -21 -41 -8 -41 4 0 15 7 26 15 23 17 58 3 50 -20 -4 -9 1 -18
12 -22 10 -4 19 -2 22 5 2 7 8 10 13 6 11 -7 12 -114 1 -114 -14 0 -52 40 -52
55 0 25 -52 57 -84 51 -52 -11 -77 31 -31 52 15 7 25 20 25 32 0 21 24 28 35
9z m89 -5 c9 -3 16 -10 16 -15 0 -15 -37 -10 -50 6 -10 12 -10 15 3 15 8 0 22
-3 31 -6z m-1892 -146 c-14 -14 -17 -11 -26 27 l-7 30 22 -22 c18 -18 21 -25
11 -35z m1166 -29 c-15 -10 -23 14 -13 39 6 14 8 13 16 -7 7 -18 6 -27 -3 -32z
m102 37 c6 -8 21 -16 33 -18 12 -2 21 -9 19 -16 -1 -8 2 -11 7 -8 30 19 98
-46 70 -66 -11 -8 -10 -9 3 -4 20 6 37 -18 43 -62 2 -15 7 -38 11 -51 5 -17 4
-22 -4 -17 -7 4 -12 2 -12 -3 0 -6 4 -11 10 -11 5 0 7 -6 5 -12 -3 -7 5 -24
16 -38 11 -14 18 -20 15 -14 -7 15 26 24 46 13 12 -7 32 -53 29 -66 0 -2 11
-14 24 -29 14 -15 23 -30 20 -34 -3 -4 3 -14 12 -21 14 -12 36 -54 68 -134 9
-24 7 -63 -6 -87 -7 -14 -6 -18 6 -18 9 0 13 -4 10 -10 -3 -5 0 -7 9 -4 17 7
35 -22 39 -63 2 -16 7 -35 12 -43 11 -18 15 -33 20 -82 2 -21 11 -45 19 -54 9
-8 14 -19 11 -24 -3 -4 4 -27 14 -51 14 -31 17 -47 9 -56 -7 -9 -6 -14 6 -19
9 -3 16 -11 16 -18 0 -6 9 -22 20 -36 21 -27 26 -60 9 -60 -5 0 -7 -5 -4 -10
4 -6 10 -8 15 -5 12 7 20 -8 22 -42 1 -15 8 -36 16 -45 8 -9 11 -22 7 -27 -3
-6 -2 -11 4 -11 6 0 6 -11 1 -31 -8 -27 -6 -32 10 -36 11 -3 18 -9 15 -13 -3
-4 2 -13 9 -20 13 -10 30 -59 26 -75 0 -3 7 -13 16 -22 10 -10 14 -27 12 -45
-3 -15 -2 -28 2 -28 4 0 7 -6 7 -12 1 -21 8 -43 16 -49 21 -16 118 -356 116
-409 -1 -28 8 -120 16 -165 5 -26 4 -27 -6 -11 -18 29 -51 175 -44 196 3 11 0
22 -9 27 -21 12 -56 148 -42 164 8 9 8 10 -1 5 -13 -7 -18 22 -13 68 1 11 -3
16 -9 11 -6 -3 -14 2 -17 12 -4 10 -19 45 -35 78 -15 33 -39 101 -53 150 -32
118 -62 198 -89 243 -31 52 -70 149 -63 161 3 5 -1 24 -9 44 -8 19 -16 46 -19
61 -3 15 -9 33 -14 39 -13 16 -26 76 -23 103 1 13 -8 30 -21 40 -14 12 -22 27
-20 42 2 12 -1 22 -7 22 -17 0 -17 -60 0 -70 5 -3 7 -17 4 -30 -7 -35 3 -60
21 -53 9 3 12 0 9 -9 -3 -8 1 -20 9 -27 7 -6 12 -21 9 -32 -5 -19 -6 -19 -18
-2 -7 11 -42 74 -77 141 -80 157 -89 172 -159 267 -20 28 -39 59 -41 71 -6 24
16 59 31 49 6 -3 11 1 11 9 0 11 -9 16 -29 16 -25 0 -28 -3 -23 -22 5 -23 5
-23 -16 -4 -12 11 -22 25 -22 33 0 7 -4 13 -10 13 -5 0 -10 7 -10 16 0 14 2
14 22 0 12 -9 27 -16 33 -16 5 0 3 5 -5 10 -11 7 -11 10 -2 10 7 0 11 4 7 10
-3 5 -13 6 -23 3 -13 -5 -14 -3 -6 6 7 8 10 30 6 54 -5 40 -4 41 13 27 17 -14
18 -13 11 5 -5 11 -11 30 -13 43 -6 24 -22 40 -24 23 -1 -6 -2 -17 -3 -23 -2
-17 -26 -11 -43 10 -12 16 -14 16 -24 0 -13 -22 -29 -23 -29 -2 0 9 9 18 20
21 11 3 20 9 20 14 0 5 -11 4 -25 -1 -15 -6 -26 -6 -30 0 -4 6 -1 10 5 10 6 0
8 5 5 10 -4 7 -12 7 -24 0 -18 -9 -31 -4 -31 12 0 4 9 8 19 8 27 0 33 25 10
46 -11 10 -17 24 -15 31 3 7 2 13 -2 13 -16 0 -32 -25 -32 -49 l0 -26 -18 23
c-11 15 -17 37 -16 58 2 19 -1 34 -6 34 -6 0 -10 -10 -10 -21 0 -18 -2 -19
-15 -9 -14 11 -13 15 7 34 12 12 27 21 33 21 5 0 12 11 13 24 3 16 0 21 -9 16
-7 -5 -10 -4 -6 2 4 6 19 8 33 5 19 -3 25 -1 20 7 -10 16 9 14 24 -3z m-1182
-12 c6 -2 12 -10 12 -18 0 -19 -49 -76 -50 -58 0 7 -4 11 -9 8 -4 -3 -8 7 -8
22 0 15 -3 35 -7 45 -7 16 -5 17 20 12 16 -4 35 -8 42 -11z m-68 -59 c0 -25
-14 -34 -24 -16 -8 12 3 41 15 41 5 0 9 -11 9 -25z m230 -20 c0 -8 9 -10 27
-7 25 5 25 3 -20 -60 -26 -36 -47 -68 -47 -71 0 -4 -11 -23 -25 -43 -14 -21
-28 -49 -32 -62 -7 -27 -70 -127 -80 -127 -8 0 -42 167 -43 208 0 15 5 27 11
27 6 0 9 6 6 14 -3 7 10 28 29 47 19 18 34 38 34 45 0 19 28 25 33 6 4 -13 5
-11 6 5 1 29 23 35 39 9 l13 -21 -4 22 c-3 12 0 24 7 26 18 6 46 -4 46 -18z
m845 -56 c22 -33 39 -65 37 -70 -1 -5 5 -12 13 -15 8 -4 15 -11 15 -18 1 -6
21 -33 46 -61 53 -58 78 -106 70 -132 -4 -12 4 -32 19 -53 29 -40 30 -41 10
-34 -10 4 -15 0 -15 -11 0 -13 6 -16 25 -11 29 7 32 1 10 -21 -18 -17 -16 -44
2 -50 13 -5 38 42 34 65 -4 23 15 12 33 -20 11 -18 36 -58 56 -89 50 -74 83
-139 70 -139 -5 0 -10 5 -10 12 0 8 -6 6 -17 -4 -14 -14 -14 -20 -3 -33 11
-14 15 -14 29 -1 15 14 18 13 29 -4 7 -11 8 -21 2 -25 -5 -3 -7 -12 -3 -20 7
-20 -12 -19 -32 2 -12 11 -19 13 -24 5 -3 -6 -15 -10 -26 -8 -16 2 -20 11 -20
44 0 30 -6 45 -20 56 -11 8 -21 10 -23 5 -2 -5 -13 -9 -23 -9 -17 0 -42 38
-51 77 -1 5 -8 14 -15 21 -10 10 -10 18 -2 34 8 15 8 19 0 14 -6 -4 -11 -3
-11 3 0 5 -9 13 -20 16 -12 4 -20 15 -20 30 0 12 -7 25 -15 29 -8 3 -12 12 -9
21 4 10 2 15 -6 13 -6 -2 -19 8 -28 22 -16 24 -16 24 2 10 17 -13 18 -13 14 5
-2 12 -11 19 -20 17 -15 -2 -68 57 -68 77 0 5 -12 19 -26 30 -15 12 -23 25
-18 32 4 7 3 9 -3 6 -6 -4 -24 10 -40 31 -38 47 -55 79 -45 85 4 2 1 2 -5 1
-7 -2 -17 5 -23 16 -13 25 -13 33 1 24 8 -5 10 1 7 19 -5 27 10 48 42 60 29
11 35 6 75 -54z m-1055 32 c0 -6 -4 -13 -10 -16 -5 -3 -10 1 -10 9 0 9 5 16
10 16 6 0 10 -4 10 -9z m465 -7 c119 -10 259 -9 318 1 37 6 47 5 47 -6 1 -18
53 -101 108 -171 188 -238 198 -253 182 -273 -7 -9 -15 -37 -17 -63 -5 -63 -3
-304 3 -313 4 -7 19 -820 15 -864 -1 -11 -4 -47 -7 -80 -6 -61 8 -121 25 -110
6 3 8 37 5 78 l-5 72 35 -64 c49 -88 83 -123 107 -110 11 5 19 7 19 5 0 -12
-63 -76 -75 -76 -8 0 -25 -10 -39 -22 -34 -30 -22 -50 35 -57 35 -5 44 -10 49
-31 5 -19 13 -25 33 -25 23 1 26 -3 24 -30 -2 -27 1 -30 28 -33 17 -2 35 -7
40 -12 6 -4 33 -15 61 -24 48 -16 53 -16 95 3 40 18 45 19 61 4 10 -9 20 -25
24 -36 3 -11 21 -41 39 -66 35 -51 75 -140 75 -168 0 -11 4 -23 9 -29 21 -20
29 -127 16 -202 -12 -72 -18 -84 -85 -155 -34 -37 -35 -39 -31 -110 7 -123 6
-407 -2 -512 -4 -55 -12 -152 -17 -215 -5 -63 -12 -196 -15 -295 -2 -99 -9
-209 -14 -245 -5 -36 -9 -118 -9 -183 0 -68 -4 -123 -10 -129 -13 -13 -67 -1
-83 18 -10 12 -6 20 22 43 29 25 32 31 20 45 -33 39 -86 0 -86 -65 0 -52 29
-80 86 -85 34 -4 49 0 67 15 30 26 44 75 31 107 -12 33 -12 151 1 267 5 51 15
200 21 332 6 132 15 287 19 345 5 58 12 146 16 197 14 188 24 71 24 -284 0
-446 21 -797 52 -880 17 -48 69 -122 90 -131 4 -2 34 -31 65 -63 43 -45 69
-63 102 -72 31 -9 56 -25 87 -60 24 -27 44 -53 44 -58 0 -12 -52 -11 -85 1
-15 6 -61 17 -103 25 -92 19 -150 42 -163 67 -5 10 -24 25 -42 34 -18 9 -45
27 -60 40 -32 27 -100 48 -125 39 -9 -3 -29 -23 -44 -45 -32 -46 -56 -50 -147
-26 -50 13 -54 13 -58 -5 -3 -10 -17 -26 -32 -36 -48 -31 -391 -18 -436 18
-10 7 -122 29 -152 29 -7 0 -13 -7 -13 -15 0 -8 9 -15 19 -15 10 0 29 -9 42
-20 22 -17 22 -19 5 -20 -11 0 -70 9 -131 21 -112 21 -113 21 -157 2 -24 -11
-70 -41 -102 -68 -59 -47 -59 -48 -117 -42 -67 8 -145 35 -201 72 -26 18 -45
24 -56 19 -44 -20 -219 -28 -300 -13 -37 6 -91 14 -121 16 l-53 5 6 58 c4 36
3 61 -3 65 -6 3 -35 -12 -65 -34 -42 -31 -62 -56 -87 -106 -18 -36 -35 -67
-38 -70 -4 -2 -60 3 -126 11 -66 8 -135 16 -152 16 -21 1 -33 7 -33 16 0 12
-11 13 -58 8 -42 -5 -63 -3 -76 7 -19 14 -18 17 19 88 21 41 45 86 52 101 7
14 25 33 38 42 22 15 25 24 25 77 0 33 11 104 24 157 28 111 34 153 47 301 14
164 16 176 40 248 17 51 22 85 19 138 -9 200 4 570 20 560 4 -3 11 -22 14 -42
10 -54 26 -95 49 -120 11 -13 18 -26 14 -29 -10 -10 12 -44 28 -44 24 0 20 73
-5 95 -29 26 -35 54 -15 69 16 11 15 14 -9 29 -16 11 -26 27 -26 42 0 14 -4
25 -9 25 -13 0 -43 55 -75 140 -16 41 -33 81 -39 88 -6 7 -7 42 -3 88 8 83 1
102 -56 156 -19 18 -28 37 -29 60 -4 106 1 158 20 208 12 30 21 65 21 78 0 36
31 152 41 152 11 0 11 -15 -1 -136 -21 -223 -21 -267 -1 -304 10 -20 27 -36
40 -38 24 -4 28 17 8 37 -8 8 -11 43 -10 109 2 136 18 238 48 306 27 61 27 86
0 86 -20 0 -20 0 21 131 37 116 86 224 121 268 l20 25 14 -55 c7 -30 12 -77
10 -106 -2 -45 2 -55 30 -87 49 -56 110 -88 182 -93 89 -7 139 9 177 57 17 22
36 40 42 40 17 0 91 72 108 105 10 21 23 31 43 33 l29 3 -7 -65 c-6 -53 -4
-71 9 -91 28 -42 75 -65 133 -65 44 0 58 5 88 31 28 25 35 38 35 68 0 20 -7
50 -16 66 -30 56 -33 78 -13 111 l19 32 -25 16 c-32 21 -32 36 0 66 20 19 24
30 20 51 -4 16 -1 37 5 48 8 15 8 27 0 41 -9 16 -7 26 9 47 12 14 21 36 21 49
0 18 6 24 21 24 17 0 20 -4 16 -22 -4 -13 1 -61 10 -108 8 -47 18 -107 22
-134 3 -27 12 -51 19 -54 14 -4 17 100 3 163 -5 22 -12 66 -16 98 l-6 57 45 0
c66 0 80 18 72 94 -4 34 -12 81 -19 105 l-12 43 -52 -6 c-28 -3 -58 -9 -67
-12 -13 -5 -16 1 -16 26 0 27 3 30 20 25 23 -7 21 -30 20 245 -1 336 -5 380
-30 365 -5 -3 -9 -114 -9 -246 0 -133 -2 -243 -5 -247 -3 -3 -6 26 -6 65 0 38
-7 114 -15 169 -8 54 -17 131 -20 169 -11 144 -23 215 -36 215 -15 0 -10 -177
10 -331 11 -81 23 -211 26 -290 3 -79 7 -153 8 -164 1 -14 -5 -21 -22 -23 -28
-4 -60 30 -61 65 0 12 -11 46 -24 75 -33 70 -44 115 -72 288 -12 80 -28 165
-33 190 -9 42 -8 47 14 65 26 22 47 56 129 215 30 58 70 125 90 149 20 24 36
50 36 58 0 12 8 14 33 9 17 -3 73 -9 122 -12z m-785 -154 c7 -47 19 -110 26
-141 18 -74 18 -108 -2 -130 -10 -11 -12 -19 -4 -24 6 -3 9 -1 8 6 -2 6 2 13
7 15 11 4 30 -83 40 -181 3 -27 9 -59 12 -70 17 -50 -2 -147 -43 -227 -19 -38
-38 -37 -31 2 15 74 -47 19 -89 -79 l-28 -64 -22 28 c-30 38 -47 24 -70 -62
-10 -37 -32 -85 -49 -107 -16 -23 -38 -54 -48 -69 -31 -48 -90 -109 -115 -118
-14 -5 -22 -12 -19 -16 4 -3 -12 -28 -35 -55 -22 -27 -42 -47 -45 -45 -8 8 58
197 69 197 6 0 8 3 5 6 -3 4 -1 16 5 28 12 20 13 25 16 54 1 6 11 12 21 12 11
0 23 5 27 12 5 8 0 9 -15 5 -12 -3 -21 -2 -19 1 2 4 18 46 37 94 18 48 37 85
42 82 5 -3 6 2 3 10 -7 18 47 187 58 180 11 -7 37 59 28 71 -9 12 -1 77 9 71
3 -2 6 9 7 26 1 16 6 46 12 66 6 20 17 59 25 87 8 27 19 51 26 53 8 3 8 -3 1
-22 -5 -15 -6 -26 0 -26 12 0 17 10 21 45 2 17 7 32 11 35 12 9 19 82 8 75 -6
-4 -10 -1 -10 4 0 6 7 11 15 11 16 0 21 16 7 22 -5 2 -12 22 -16 46 -5 31 -3
44 7 48 8 3 12 15 9 33 -3 19 4 37 22 58 14 17 26 34 26 37 0 4 6 13 13 20 16
18 20 6 37 -104z m1620 -75 c0 -5 -5 -3 -10 5 -5 8 -10 20 -10 25 0 6 5 3 10
-5 5 -8 10 -19 10 -25z m35 -45 c7 -22 6 -23 -9 -11 -9 7 -16 23 -16 34 0 26
15 12 25 -23z m555 -30 c0 -5 -4 -10 -10 -10 -5 0 -10 5 -10 10 0 6 5 10 10
10 6 0 10 -4 10 -10z m-52 -51 c13 -19 30 -33 38 -31 11 2 14 -11 12 -65 -1
-47 -3 -55 -5 -26 -2 23 -11 47 -19 53 -12 11 -14 2 -14 -58 0 -39 -3 -78 -7
-88 -5 -14 -2 -16 20 -10 35 8 36 -11 1 -24 -14 -6 -39 -10 -55 -10 -16 0 -29
-4 -29 -10 0 -12 34 -19 75 -17 21 1 30 -3 33 -15 2 -13 -1 -16 -12 -12 -12 5
-16 0 -16 -20 0 -59 -70 -34 -88 31 -9 34 -37 112 -73 200 -10 26 -10 34 0 47
8 9 20 16 27 16 8 0 16 11 20 25 7 27 42 57 59 52 5 -2 20 -19 33 -38z m-560
8 c4 -21 -24 -13 -32 9 -4 11 -1 14 11 12 10 -2 19 -11 21 -21z m-45 -302 c-3
-8 -9 -15 -15 -15 -5 0 -7 -4 -4 -8 2 -4 1 -14 -5 -22 -7 -13 -9 -12 -9 2 0
28 19 70 30 63 5 -3 7 -12 3 -20z m18 -42 c-18 -33 -40 -58 -41 -46 0 23 23
63 37 63 10 0 11 -5 4 -17z m144 -13 c0 -21 -41 -25 -49 -5 -3 9 -2 13 4 10 6
-3 10 -1 10 5 0 6 8 10 18 8 9 -2 17 -10 17 -18z m503 -97 l-3 -68 -30 0 c-20
0 -30 5 -30 15 0 10 8 14 23 13 12 -2 22 2 22 7 0 6 -11 10 -25 10 -31 0 -33
17 -2 23 l22 4 -22 8 c-25 8 -31 25 -9 25 8 0 16 7 20 15 3 8 12 15 21 15 13
0 15 -11 13 -67z m-653 17 c-4 -11 -8 -32 -10 -48 -2 -15 -4 -31 -5 -37 -2
-17 -19 29 -19 56 -1 25 15 49 32 49 4 0 5 -9 2 -20z m317 -71 c3 -30 0 -34
-19 -31 -22 3 -34 -22 -14 -30 13 -5 24 -48 12 -48 -6 0 -11 -9 -11 -20 0 -11
-4 -20 -10 -20 -5 0 -10 8 -10 19 0 10 -7 24 -15 31 -9 7 -13 20 -10 28 3 8
-4 26 -16 39 -13 12 -17 23 -11 23 18 0 14 24 -9 54 -20 26 -20 26 0 26 24 0
54 -28 47 -45 -3 -8 2 -16 11 -19 23 -9 29 2 15 24 -6 11 -9 26 -6 35 9 23 43
-25 46 -66z m-150 47 c7 4 8 2 4 -5 -9 -14 -36 3 -36 23 0 6 5 3 11 -7 6 -9
15 -14 21 -11z m-118 -11 c-4 -8 -8 -15 -10 -15 -2 0 -4 7 -4 15 0 8 4 15 10
15 5 0 7 -7 4 -15z m136 -26 c0 -5 4 -8 8 -5 5 3 9 -8 9 -24 l0 -28 -19 23
c-20 26 -23 45 -8 45 6 0 10 -5 10 -11z m-90 -8 c0 -6 -4 -13 -10 -16 -5 -3
-10 1 -10 9 0 9 5 16 10 16 6 0 10 -4 10 -9z m-70 -25 c0 -17 -14 -29 -23 -20
-8 8 3 34 14 34 5 0 9 -6 9 -14z m46 -41 c-3 -8 -12 -15 -21 -15 -14 0 -13 3
2 26 17 26 30 18 19 -11z m314 -31 c0 -11 -5 -11 -25 -2 -16 7 -24 17 -20 26
3 7 5 19 5 25 1 17 40 -32 40 -49z m270 41 c0 -9 -9 -15 -25 -15 -16 0 -25 6
-25 15 0 9 9 15 25 15 16 0 25 -6 25 -15z m-430 -26 c0 -6 -4 -7 -10 -4 -5 3
-10 11 -10 16 0 6 5 7 10 4 6 -3 10 -11 10 -16z m-133 -30 c-8 -13 -18 -37
-21 -54 -11 -51 -28 -85 -41 -85 -10 0 -11 8 -4 36 8 25 7 39 -1 50 -14 15 -7
44 10 44 7 0 9 -9 4 -22 -7 -23 -7 -23 15 -4 12 11 20 24 18 30 -7 18 14 49
25 38 7 -7 5 -18 -5 -33z m567 -10 c-8 -14 -34 -11 -34 4 0 8 3 17 7 20 9 9
34 -13 27 -24z m-489 -11 c-4 -13 -11 -27 -16 -32 -5 -6 -9 -19 -9 -30 1 -19
3 -19 23 7 25 30 37 34 37 12 0 -8 -5 -14 -12 -12 -6 1 -14 -7 -16 -18 -2 -11
-10 -27 -17 -35 -7 -8 -15 -26 -18 -40 -3 -14 -13 -34 -22 -45 -15 -19 -16
-19 -13 10 1 17 7 37 14 45 15 20 25 50 16 50 -4 0 -14 -15 -22 -32 -8 -18
-20 -34 -26 -35 -17 -5 -4 47 12 54 8 3 14 11 14 19 0 8 4 22 9 32 5 9 14 29
20 45 13 33 35 37 26 5z m-1478 -3 c-53 -20 -65 -22 -69 -10 -3 10 39 22 82
23 20 0 17 -2 -13 -13z m1681 3 c9 -9 12 -9 12 0 0 7 5 12 10 12 6 0 10 -7 10
-16 0 -9 8 -23 18 -31 13 -11 14 -16 4 -20 -10 -4 -10 -8 -1 -19 9 -11 8 -14
-5 -14 -10 0 -14 -5 -11 -10 5 -8 12 -7 22 1 18 15 33 -2 33 -39 0 -42 -46
-36 -62 8 -4 11 -9 7 -17 -12 -6 -16 -15 -28 -20 -28 -6 0 -8 -8 -4 -17 5 -15
3 -16 -7 -6 -11 10 -11 15 0 29 12 14 11 18 -10 34 -23 18 -25 18 -32 2 -5
-14 -8 -11 -17 13 -17 47 -17 48 5 51 12 2 29 -5 39 -16 10 -11 23 -20 29 -20
6 0 2 7 -8 15 -11 8 -17 15 -13 15 4 0 -1 9 -11 21 -35 37 1 82 36 47z m-1506
-30 c23 -18 13 -64 -15 -72 -12 -3 -50 -6 -85 -6 -48 0 -64 4 -69 16 -8 22 9
36 70 55 65 21 79 22 99 7z m1806 -11 c2 -10 -3 -17 -12 -17 -10 0 -16 9 -16
21 0 24 23 21 28 -4z m-2355 -42 c-3 -9 -8 -14 -10 -11 -3 3 -2 9 2 15 9 16
15 13 8 -4z m267 5 c0 -5 -4 -10 -9 -10 -6 0 -13 5 -16 10 -3 6 1 10 9 10 9 0
16 -4 16 -10z m585 -92 c15 -109 23 -100 -90 -104 -235 -9 -403 -37 -539 -91
-96 -38 -106 -36 -106 19 0 15 -4 29 -9 32 -5 3 -11 17 -13 30 -5 23 -1 25 46
31 109 14 375 66 536 105 168 41 166 41 175 -22z m1005 12 c0 -5 -7 -10 -16
-10 -8 0 -12 5 -9 10 3 6 10 10 16 10 5 0 9 -4 9 -10z m70 -9 c0 -12 -31 -43
-37 -37 -9 9 9 46 23 46 8 0 14 -4 14 -9z m-164 -26 c-5 -19 -2 -25 10 -25 23
0 12 -22 -22 -41 -47 -27 -51 -13 -16 59 20 38 37 43 28 7z m423 -5 c14 -41
14 -44 3 -48 -5 -1 -14 15 -20 38 -12 46 1 54 17 10z m-84 -16 c-3 -26 12 -33
21 -9 9 23 27 18 21 -6 -3 -12 0 -28 9 -36 8 -9 14 -10 14 -3 0 6 5 8 10 5 6
-4 17 -1 25 5 12 10 16 9 20 -1 2 -8 11 -34 20 -59 37 -104 43 -140 28 -155
-12 -12 -11 -17 7 -35 11 -11 20 -26 20 -34 0 -7 6 -19 14 -25 19 -16 55 -102
82 -196 20 -69 21 -81 8 -88 -12 -7 -11 -12 6 -34 11 -14 20 -32 20 -40 0 -8
4 -12 9 -9 4 3 14 -22 22 -57 7 -34 14 -64 15 -67 0 -3 3 -12 7 -20 23 -58 49
-202 53 -300 4 -98 2 -124 -15 -175 -11 -33 -19 -51 -18 -40 2 19 -3 25 -21
25 -5 0 -8 -22 -8 -49 0 -29 4 -47 9 -44 6 4 7 -5 3 -23 -4 -16 -7 -39 -7 -52
1 -15 -4 -22 -12 -19 -8 2 -12 29 -12 83 -1 104 6 130 32 126 17 -2 20 1 15
23 -2 14 -9 28 -15 32 -5 3 -8 2 -5 -3 3 -5 -3 -17 -12 -27 -17 -18 -18 -17
-23 10 -3 15 -6 35 -6 43 0 8 -5 40 -11 70 -6 30 -11 96 -12 145 -1 51 -6 93
-12 97 -7 5 -4 8 7 8 9 0 17 5 17 10 0 6 -11 10 -25 10 -26 0 -33 18 -15 36 8
8 6 15 -4 23 -10 8 -13 22 -10 40 4 18 0 32 -10 40 -17 14 -22 51 -8 51 12 0
33 50 26 61 -3 5 -9 7 -13 4 -5 -2 -11 13 -15 35 -3 22 -10 40 -15 40 -4 0 -6
11 -3 25 3 18 0 25 -12 25 -13 0 -14 5 -6 26 13 33 13 34 -5 34 -8 0 -15 5
-15 10 0 6 -9 10 -20 10 -14 0 -18 -5 -13 -17 4 -10 2 -14 -5 -10 -6 4 -18 29
-27 55 -10 26 -24 63 -33 82 -9 19 -16 45 -16 58 0 12 -3 22 -7 22 -5 0 -17
37 -23 72 -2 14 -16 20 -17 7 -1 -19 -28 41 -29 64 0 11 -9 30 -20 44 -16 21
-18 29 -8 40 10 12 9 17 -3 27 -21 15 -13 45 11 39 12 -3 17 -12 15 -29z
m-2194 -74 c-10 -36 -32 -93 -50 -128 -26 -52 -35 -61 -46 -52 -8 6 -19 9 -25
5 -20 -13 -78 -110 -152 -258 -41 -82 -53 -98 -69 -94 -12 3 -19 0 -19 -9 0
-8 6 -11 16 -7 9 3 15 2 13 -3 -3 -5 -11 -22 -18 -39 -8 -16 -25 -53 -38 -82
-13 -29 -28 -80 -34 -115 -6 -34 -14 -67 -19 -74 -6 -6 -7 -14 -3 -17 6 -7
-15 -37 -27 -37 -9 0 -32 51 -26 58 3 3 12 0 20 -7 11 -9 14 -7 18 12 3 13 1
34 -4 47 -5 13 -5 26 0 29 10 7 10 56 0 67 -12 11 -10 26 2 19 6 -3 11 -3 11
2 21 129 30 156 106 299 56 104 81 135 106 132 13 -2 22 2 22 10 0 8 8 20 19
27 10 8 15 18 11 24 -3 6 1 11 10 11 8 0 18 8 22 18 3 9 22 38 42 64 20 26 56
74 81 107 24 33 45 59 46 58 2 -1 -5 -32 -15 -67z m1982 64 c7 -8 -13 -54 -25
-54 -9 0 -11 22 -2 44 6 17 16 20 27 10z m75 -21 c-2 -9 -8 -18 -15 -20 -7 -3
-9 3 -6 16 6 25 26 28 21 4z m-1978 -38 c0 -8 -4 -15 -10 -15 -5 0 -7 7 -4 15
4 8 8 15 10 15 2 0 4 -7 4 -15z m75 -15 c-3 -4 1 -10 7 -13 7 -2 9 -8 5 -13
-4 -5 -12 -2 -17 6 -13 20 -13 43 0 35 6 -4 8 -10 5 -15z m1845 10 c0 -5 -5
-10 -11 -10 -5 0 -7 5 -4 10 3 6 8 10 11 10 2 0 4 -4 4 -10z m90 6 c0 -3 -4
-8 -10 -11 -5 -3 -10 -1 -10 4 0 6 5 11 10 11 6 0 10 -2 10 -4z m-1415 -56
c-11 -5 -27 -9 -35 -9 -9 0 -8 4 5 9 11 5 27 9 35 9 9 0 8 -4 -5 -9z m1435 0
c0 -5 -4 -10 -10 -10 -5 0 -10 5 -10 10 0 6 5 10 10 10 6 0 10 -4 10 -10z
m-1490 -4 c0 -9 -30 -14 -35 -6 -4 6 3 10 14 10 12 0 21 -2 21 -4z m1343 -31
c-3 -9 -8 -14 -10 -11 -3 3 -2 9 2 15 9 16 15 13 8 -4z m-1802 -28 c-12 -31
-31 -44 -31 -21 0 17 30 58 37 50 2 -2 -1 -15 -6 -29z m532 3 c-4 -4 -29 -20
-55 -35 l-48 -27 -10 27 c-14 36 -13 36 13 30 12 -3 35 1 51 9 27 14 66 11 49
-4z m-169 -2 c21 -9 24 -16 19 -37 -8 -35 -7 -35 -49 -21 -30 10 -38 10 -45
-1 -9 -16 -8 -18 43 -48 33 -20 37 -20 46 -5 6 11 12 13 16 6 8 -13 82 7 117
32 29 20 39 20 39 2 0 -8 -23 -29 -51 -46 -46 -30 -52 -32 -67 -17 -15 15 -18
14 -42 -15 l-26 -31 -53 18 c-37 12 -56 14 -63 7 -7 -7 0 -15 23 -26 19 -9 46
-24 61 -34 26 -16 29 -16 57 1 38 22 48 22 27 -2 -28 -31 -65 -32 -127 -4 -44
19 -64 35 -88 73 -33 51 -45 124 -16 100 16 -13 35 -6 35 14 0 16 57 45 92 45
15 1 38 -4 52 -11z m-266 -63 c-6 -14 -16 -25 -21 -25 -5 0 -4 7 3 15 6 8 9
19 5 25 -3 5 1 10 9 10 13 0 14 -4 4 -25z m1912 -27 c0 -10 -7 -18 -15 -18
-12 0 -14 4 -5 19 7 13 7 22 0 26 -5 3 -10 12 -10 18 1 19 30 -25 30 -45z
m-2150 12 c0 -11 -4 -20 -10 -20 -5 0 -10 9 -10 20 0 11 5 20 10 20 6 0 10 -9
10 -20z m140 13 c0 -5 -4 -15 -10 -23 -11 -18 -25 -7 -17 15 6 15 27 21 27 8z
m30 -27 c0 -8 -4 -17 -9 -21 -12 -7 -24 12 -16 25 9 15 25 12 25 -4z m1656
-37 c-32 -37 -34 -29 -4 19 12 20 24 30 26 24 2 -7 -8 -26 -22 -43z m180 -14
c-7 -18 -26 -20 -26 -2 0 18 24 41 28 27 2 -6 1 -17 -2 -25z m-2043 -17 c7
-25 3 -33 -12 -23 -13 8 -15 45 -2 45 5 0 11 -10 14 -22z m1927 -39 c-7 -11
-14 -18 -17 -15 -8 8 5 36 17 36 7 0 7 -6 0 -21z m303 -34 c-7 -21 -13 -19
-13 6 0 11 4 18 10 14 5 -3 7 -12 3 -20z m-2192 -6 c14 -27 19 -69 8 -69 -13
0 -31 40 -25 56 3 8 1 14 -4 14 -6 0 -10 5 -10 10 0 18 19 11 31 -11z m274 1
c0 -7 -6 -15 -12 -17 -8 -3 -13 4 -13 17 0 13 5 20 13 18 6 -3 12 -11 12 -18z
m1815 6 c0 -8 -7 -16 -15 -20 -15 -5 -21 14 -8 27 11 12 23 8 23 -7z m-391
-73 c1 -7 -9 -13 -20 -13 -17 0 -20 4 -15 23 3 12 6 33 7 47 0 22 2 21 14 -10
7 -19 14 -41 14 -47z m329 11 c-8 -22 -20 -40 -31 -42 -15 -3 -16 0 -5 25 13
31 39 65 45 60 2 -2 -2 -22 -9 -43z m-1478 10 c32 4 50 3 50 -4 0 -6 -25 -10
-58 -10 -48 0 -63 4 -78 22 l-19 21 28 -18 c21 -14 38 -16 77 -11z m1680 -51
c0 -18 -4 -33 -9 -33 -5 0 -9 20 -9 46 1 51 18 39 18 -13z m-286 32 c-4 -8
-10 -15 -15 -15 -4 0 -6 7 -3 15 4 8 10 15 15 15 4 0 6 -7 3 -15z m166 -5 c0
-5 -5 -10 -11 -10 -5 0 -7 5 -4 10 3 6 8 10 11 10 2 0 4 -4 4 -10z m-62 -12
c-2 -6 -10 -14 -16 -16 -7 -2 -10 2 -6 12 7 18 28 22 22 4z m102 -2 c0 -3 -4
-8 -10 -11 -5 -3 -10 -1 -10 4 0 6 5 11 10 11 6 0 10 -2 10 -4z m-430 -54 c0
-15 -2 -15 -10 -2 -13 20 -13 33 0 25 6 -3 10 -14 10 -23z m-1025 -16 c25 -18
25 -78 0 -106 -32 -36 -110 -21 -136 26 -11 21 -10 28 8 51 29 40 93 55 128
29z m1595 -25 c-1 -13 -3 -13 -15 3 -19 26 -19 42 0 26 8 -7 15 -20 15 -29z
m100 23 c0 -8 -4 -12 -10 -9 -5 3 -10 10 -10 16 0 5 5 9 10 9 6 0 10 -7 10
-16z m-2020 -14 c0 -14 -37 -50 -51 -50 -6 0 1 13 17 29 35 34 34 34 34 21z
m1406 -57 c-9 -9 -56 42 -56 60 0 6 14 -3 32 -20 18 -18 28 -36 24 -40z m364
47 c0 -10 -8 -23 -17 -29 -13 -7 -15 -14 -8 -24 54 -76 51 -67 26 -86 -22 -17
-23 -19 -7 -49 9 -18 18 -49 19 -69 2 -32 -3 -40 -41 -70 -59 -45 -72 -31 -22
23 39 42 49 67 32 78 -15 9 -77 -40 -105 -83 -15 -23 -34 -41 -42 -41 -22 0
-18 13 11 41 34 32 84 109 84 130 0 28 -33 58 -71 64 -42 8 -40 9 -102 -84
-23 -36 -48 -66 -54 -69 -22 -6 -14 29 13 65 14 18 32 55 41 81 20 61 38 80
77 84 27 3 31 6 29 31 l-2 27 70 0 c62 0 69 -2 69 -20z m-1930 -23 c0 -20 -17
-40 -29 -33 -7 5 -7 14 1 31 11 24 28 25 28 2z m-537 -97 c-9 -29 -19 -48 -21
-42 -4 13 28 105 35 99 2 -2 -4 -28 -14 -57z m577 25 c0 -20 -19 -27 -66 -23
l-39 3 45 17 c57 21 60 21 60 3z m2090 -24 c0 -10 -7 -24 -15 -31 -13 -11 -12
-16 10 -37 27 -28 27 -26 50 -138 13 -61 14 -80 5 -83 -10 -4 -10 -6 0 -12 9
-6 9 -13 1 -29 -20 -36 -30 -23 -25 30 4 48 4 50 -17 39 -11 -7 -23 -9 -27 -6
-3 3 0 6 6 6 7 0 12 7 12 15 0 7 6 18 14 22 12 7 13 16 3 53 -14 56 -13 55
-31 41 -8 -7 -20 -10 -25 -7 -11 7 -31 -24 -37 -61 -7 -38 -50 -98 -57 -79 -9
23 10 79 41 122 42 58 47 74 13 35 -37 -42 -47 -37 -22 10 10 19 16 40 14 47
-6 15 16 44 28 37 4 -3 16 6 26 19 22 30 33 33 33 7z m-526 -54 c-2 -7 -14
-19 -27 -26 -21 -13 -21 -12 2 13 27 29 33 32 25 13z m206 3 c0 -5 -4 -10 -9
-10 -6 0 -13 5 -16 10 -3 6 1 10 9 10 9 0 16 -4 16 -10z m-2379 -51 c-9 -23
-10 -22 -10 11 -1 23 2 31 9 24 7 -7 7 -19 1 -35z m2327 -48 c-32 -43 -53 -61
-70 -61 -29 0 -18 40 25 87 19 22 22 22 39 6 14 -13 16 -19 6 -32z m-2341 -23
c-3 -7 -5 -2 -5 12 0 14 2 19 5 13 2 -7 2 -19 0 -25z m-130 -10 c-3 -7 -5 -2
-5 12 0 14 2 19 5 13 2 -7 2 -19 0 -25z m2801 -43 c-3 -3 -9 2 -12 12 -6 14
-5 15 5 6 7 -7 10 -15 7 -18z m-20 -77 c-8 -12 -20 -24 -27 -26 -9 -3 -7 5 4
22 10 14 22 26 27 26 6 0 4 -10 -4 -22z m52 8 c0 -8 6 -16 13 -19 9 -4 9 -7
-1 -18 -10 -11 -15 -10 -28 3 -9 9 -14 24 -11 32 8 20 27 21 27 2z m337 -48
c-3 -8 -6 -5 -6 6 -1 11 2 17 5 13 3 -3 4 -12 1 -19z m-248 -56 c1 -7 -4 -10
-9 -7 -6 4 -7 12 -3 18 3 7 -14 -8 -39 -34 -25 -25 -47 -52 -50 -60 -5 -12 -7
-11 -12 2 -5 11 3 28 23 50 17 18 31 37 31 41 0 5 10 18 22 30 l22 22 7 -24
c4 -14 7 -31 8 -38z m-153 11 c-10 -10 -19 5 -10 18 6 11 8 11 12 0 2 -7 1
-15 -2 -18z m134 -48 c0 -18 16 -20 23 -2 3 7 6 4 6 -6 1 -18 -35 -79 -51 -85
-4 -2 -8 -8 -8 -13 0 -6 5 -7 10 -4 6 4 17 2 25 -5 10 -8 15 -8 21 1 5 9 9 7
14 -6 4 -12 -1 -32 -12 -50 -15 -27 -16 -32 -3 -32 8 0 15 10 16 21 0 19 1 19
10 -3 11 -28 5 -52 -12 -49 -6 2 -13 -5 -14 -14 -2 -10 1 -18 6 -18 5 0 9 6 9
13 0 8 4 7 10 -3 11 -18 12 -158 0 -285 -8 -87 -19 -255 -25 -360 -3 -53 -20
-125 -37 -162 -8 -16 -8 -26 0 -35 12 -15 4 -150 -8 -143 -5 3 -6 -18 -3 -45
5 -53 -7 -80 -34 -80 -11 0 -14 7 -10 21 3 12 0 22 -9 26 -17 6 -19 39 -3 49
8 4 8 9 0 17 -14 14 -14 94 -1 102 6 3 10 12 10 18 0 8 -3 8 -9 -1 -6 -11 -10
-10 -15 4 -4 11 1 29 14 46 23 32 22 68 -3 96 -18 20 -14 54 6 46 7 -2 18 0
26 5 11 7 11 13 -1 39 -17 33 -11 52 29 90 25 25 26 43 3 50 -9 3 -11 -2 -8
-16 4 -15 2 -19 -8 -15 -8 3 -14 1 -14 -5 0 -5 -9 -12 -20 -15 -23 -6 -28 21
-8 41 9 9 9 12 0 12 -20 0 -13 58 11 98 13 20 21 45 19 54 -2 9 6 35 17 57 15
33 16 41 5 41 -24 0 -40 48 -25 72 10 16 10 22 1 28 -9 6 -9 9 0 15 6 4 9 13
6 21 -3 8 1 33 8 56 13 35 13 43 1 55 -14 14 -7 47 18 81 6 8 5 12 -2 12 -6 0
-11 6 -11 14 0 8 -5 18 -12 22 -8 5 -9 2 -5 -9 3 -9 2 -19 -3 -22 -19 -12 -21
36 -1 68 13 22 17 37 11 48 -6 10 -4 23 6 37 18 25 34 29 34 7z m127 -427 c-3
-7 -5 -2 -5 12 0 14 2 19 5 13 2 -7 2 -19 0 -25z m-3207 -79 c147 -83 236
-198 265 -339 8 -41 17 -58 34 -66 23 -12 24 -14 27 -206 2 -106 5 -211 5
-234 1 -22 -7 -67 -19 -100 -11 -32 -23 -88 -26 -124 -3 -36 -8 -92 -11 -125
-10 -108 -25 -238 -30 -244 -2 -4 -13 -52 -24 -106 -21 -106 -45 -175 -61
-175 -5 0 -14 8 -19 18 -10 16 -12 15 -28 -5 -12 -15 -33 -25 -63 -28 -45 -6
-172 -6 -178 0 -9 9 -22 200 -22 333 0 133 3 158 20 192 11 21 29 41 40 45 11
4 39 26 62 51 45 48 58 54 58 25 0 -10 7 -21 15 -25 8 -3 15 -12 15 -20 0 -22
150 -27 167 -6 21 26 10 45 -27 48 -35 4 -60 17 -60 32 0 9 49 37 113 66 43
20 52 54 15 54 -13 0 -45 7 -72 15 -27 8 -79 15 -116 15 -37 0 -69 2 -72 5 -2
3 -3 18 0 34 3 25 11 31 63 47 37 12 66 28 75 42 25 38 12 52 -51 52 -46 0
-55 3 -55 18 0 31 -22 42 -82 42 -51 0 -58 2 -58 19 0 13 8 21 23 23 51 7 11
100 -43 99 -154 -3 -243 -21 -238 -49 2 -9 15 -22 29 -29 15 -7 32 -20 39 -28
10 -12 8 -16 -13 -24 -14 -6 -31 -19 -37 -31 -6 -12 -21 -20 -36 -20 -13 0
-41 -7 -61 -15 -67 -28 -63 -47 -63 304 l0 319 24 16 c59 38 106 61 171 83 60
20 85 23 175 20 66 -2 114 -9 130 -18z m2943 -11 c-4 -7 -15 -42 -24 -78 l-17
-65 -1 58 c-1 44 3 61 19 77 22 22 35 27 23 8z m53 -155 c-11 -11 -19 6 -11
24 8 17 8 17 12 0 3 -10 2 -21 -1 -24z m1418 -79 c26 -10 18 -21 -16 -22 -37
-1 -51 5 -43 19 7 10 36 12 59 3z m16 -134 c0 -5 -2 -10 -4 -10 -3 0 -8 5 -11
10 -3 6 -1 10 4 10 6 0 11 -4 11 -10z m-1289 -135 l-9 -40 -1 35 c0 19 2 46 6
60 12 41 16 -7 4 -55z m129 -26 c0 -13 -52 -41 -61 -32 -5 5 -6 31 -3 58 l7
48 28 -34 c16 -19 29 -37 29 -40z m1010 41 c0 -12 -8 -12 -35 0 -18 8 -17 9 8
9 15 1 27 -3 27 -9z m158 -32 c8 -10 4 -13 -14 -13 -13 0 -24 6 -24 13 0 6 6
12 14 12 7 0 18 -6 24 -12z m22 -154 c0 -8 -10 -14 -25 -14 -26 0 -35 25 -12
33 18 6 37 -3 37 -19z m-1343 -16 c-3 -7 -5 -2 -5 12 0 14 2 19 5 13 2 -7 2
-19 0 -25z m1263 14 c0 -13 -12 -22 -22 -16 -10 6 -1 24 13 24 5 0 9 -4 9 -8z
m-4553 -49 c5 -13 -43 -30 -54 -19 -3 3 0 13 7 21 15 18 41 16 47 -2z m3311
-228 c9 -56 -1 -112 -11 -65 -10 45 -23 194 -21 240 3 81 7 76 15 -24 5 -54
13 -122 17 -151z m-3214 229 c26 -10 18 -24 -14 -24 -30 0 -41 14 -17 23 6 3
13 6 14 6 1 1 8 -2 17 -5z m4461 -15 c-8 -12 -35 -12 -35 0 0 11 22 20 33 14
4 -2 5 -9 2 -14z m-4315 -19 c0 -13 -12 -17 -80 -25 -60 -7 -60 6 0 23 47 14
80 14 80 2z m-393 -17 c2 -6 -18 -18 -49 -27 -88 -25 -98 -39 -69 -86 5 -8 12
-22 14 -31 4 -10 22 -19 49 -23 51 -9 94 -53 83 -86 -9 -28 -43 -25 -54 3 -8
20 -15 23 -40 19 -24 -3 -31 -1 -31 13 0 12 -6 16 -20 12 -11 -3 -30 3 -43 13
-19 16 -22 26 -19 86 2 73 9 84 55 84 21 0 30 6 34 21 5 17 12 20 46 17 22 -2
42 -8 44 -15z m4533 -8 c0 -8 -9 -15 -20 -15 -20 0 -26 11 -13 23 12 13 33 7
33 -8z m126 -6 c10 -17 -13 -36 -27 -22 -12 12 -4 33 11 33 5 0 12 -5 16 -11z
m-4436 -3 c0 -3 -4 -8 -10 -11 -5 -3 -10 -1 -10 4 0 6 5 11 10 11 6 0 10 -2
10 -4z m4543 -78 c-10 -21 -12 -21 -18 -5 -10 25 2 54 17 39 8 -8 8 -18 1 -34z
m-207 -6 c1 -18 -2 -32 -7 -32 -5 0 -9 5 -9 11 0 7 -8 18 -17 25 -16 12 -16
15 -3 24 23 15 34 6 36 -28z m149 29 c3 -5 1 -13 -5 -16 -15 -9 -43 3 -35 15
8 13 32 13 40 1z m-255 -11 c0 -5 -4 -10 -10 -10 -5 0 -10 5 -10 10 0 6 5 10
10 10 6 0 10 -4 10 -10z m-1090 -21 c0 -6 -7 -12 -16 -16 -8 -3 -13 -12 -10
-19 3 -7 0 -16 -6 -20 -7 -5 -9 2 -6 19 3 15 0 28 -5 30 -6 2 -7 8 -4 14 8 13
47 5 47 -8z m1265 0 c10 -15 -1 -23 -20 -15 -9 3 -13 10 -10 16 8 13 22 13 30
-1z m-1245 -39 c0 -5 -5 -10 -11 -10 -5 0 -7 5 -4 10 3 6 8 10 11 10 2 0 4 -4
4 -10z m1162 -42 c-15 -15 -26 -4 -18 18 5 13 9 15 18 6 9 -9 9 -15 0 -24z
m-1190 -38 c-9 -16 -19 -25 -21 -19 -3 9 26 49 35 49 2 0 -5 -13 -14 -30z
m-3152 -19 c0 -32 -29 -79 -30 -48 0 10 5 27 10 37 7 13 7 21 0 25 -6 4 -8 11
-4 16 10 16 24 -1 24 -30z m-360 -1 c0 -5 -4 -10 -10 -10 -5 0 -10 5 -10 10 0
6 5 10 10 10 6 0 10 -4 10 -10z m4833 -103 c-8 -144 -22 -166 -21 -33 0 115 5
149 19 141 4 -3 5 -52 2 -108z m-1286 40 c1 -28 6 -70 12 -92 11 -45 -3 -105
-26 -105 -16 0 -17 46 -2 56 8 4 7 10 -1 18 -8 8 -15 7 -24 -6 -21 -28 -24
-21 -14 25 5 23 9 53 9 67 -1 20 32 90 41 90 2 0 4 -24 5 -53z m-3097 26 c0
-15 -68 -88 -75 -81 -13 12 11 63 36 75 28 15 39 16 39 6z m3177 -45 c-3 -8
-6 -5 -6 6 -1 11 2 17 5 13 3 -3 4 -12 1 -19z m27 -100 c10 -37 26 -74 36 -83
10 -9 16 -23 13 -30 -7 -21 29 -65 49 -59 9 3 19 1 22 -5 3 -5 16 -7 28 -3 15
4 19 2 13 -7 -4 -7 -15 -11 -24 -8 -20 5 -41 -15 -41 -41 0 -10 -4 -22 -9 -27
-6 -6 -12 -23 -15 -39 -8 -42 -35 -81 -49 -67 -15 15 -24 14 -31 -5 -4 -12 -2
-15 9 -10 8 3 22 3 30 -1 14 -5 14 -8 0 -30 -9 -14 -19 -37 -21 -51 -4 -26 -4
-26 16 6 11 18 20 39 20 47 0 16 18 30 28 21 3 -4 2 -15 -4 -24 -12 -19 -7
-52 7 -52 15 0 28 44 16 52 -6 3 1 16 17 31 16 15 23 28 16 32 -18 11 -11 33
15 39 20 5 25 13 25 36 0 16 -5 32 -10 35 -8 5 -7 11 1 21 6 7 15 11 20 8 5
-3 9 -2 8 3 -4 26 4 30 60 27 68 -3 92 -14 150 -66 39 -36 41 -41 41 -93 0
-30 -4 -55 -10 -55 -10 0 -14 15 -10 35 1 6 -4 4 -11 -2 -22 -22 -42 -16 -29
7 6 11 17 20 24 20 9 0 12 8 8 25 -5 27 -28 29 -56 6 -14 -12 -16 -11 -16 8 0
12 6 30 12 41 10 15 10 22 0 32 -11 11 -12 10 -7 -4 4 -10 -2 -29 -14 -47 -12
-16 -21 -34 -21 -40 0 -6 -3 -11 -7 -11 -5 0 -9 -11 -9 -24 -2 -31 -35 -99
-50 -103 -12 -4 20 100 44 144 12 21 0 44 -13 24 -3 -6 -21 -9 -41 -7 -19 1
-37 -1 -40 -6 -3 -4 2 -8 10 -8 9 0 16 -3 16 -7 -2 -26 -27 -103 -39 -117 -20
-24 -5 -19 19 6 24 26 24 23 6 -29 -10 -29 -11 -44 -3 -59 16 -27 17 -44 4
-44 -20 0 -88 53 -83 65 9 24 -60 16 -84 -10 l-23 -24 -27 19 c-16 11 -33 20
-38 20 -14 0 -42 46 -42 69 0 21 27 41 46 34 6 -2 14 3 17 12 5 11 0 15 -20
15 -22 0 -24 2 -13 15 9 11 16 13 24 5 15 -15 26 -12 26 8 0 9 7 30 15 46 8
15 15 35 15 43 0 13 -2 13 -17 2 -14 -12 -16 -12 -11 1 3 9 17 15 34 15 22 0
28 -4 26 -17 -4 -27 11 -21 25 8 11 23 10 25 -10 22 -19 -3 -22 1 -19 31 2 22
0 31 -7 26 -6 -3 -11 -12 -11 -20 0 -8 -5 -17 -11 -21 -8 -4 -9 0 -4 15 3 11
3 30 0 42 -6 19 -8 19 -24 5 -17 -15 -18 -13 -20 29 -5 99 0 189 10 177 3 -4
14 -37 23 -74z m-3515 9 c6 -8 8 -17 5 -20 -8 -7 -54 14 -54 25 0 13 36 9 49
-5z m119 -38 c2 -36 -9 -26 -23 20 -5 17 -4 22 6 19 8 -3 15 -20 17 -39z
m4462 -137 c0 -74 -5 -152 -11 -173 -15 -47 -66 -111 -87 -107 -17 3 -41 83
-42 138 0 19 5 52 11 73 10 38 12 39 45 33 26 -5 34 -4 34 8 0 18 -18 31 -45
31 -13 0 -20 7 -20 20 0 16 8 21 37 23 54 4 77 52 26 52 -22 0 -22 3 -2 41 15
30 16 30 35 13 17 -15 19 -31 19 -152z m219 51 c-1 -65 -4 -89 -9 -73 -15 47
-11 170 6 170 2 0 4 -44 3 -97z m-4711 17 c15 -52 36 -400 25 -410 -4 -4 -22
-10 -39 -13 -26 -5 -45 3 -108 44 -42 27 -80 57 -83 65 -3 9 -17 20 -31 25
-24 9 -25 11 -18 86 3 42 6 106 6 143 0 60 2 68 23 77 17 8 30 7 48 -2 23 -12
28 -11 55 11 22 18 39 23 69 21 37 -2 40 -4 53 -47z m3342 -5 c0 -8 -12 -40
-27 -72 -14 -32 -26 -63 -26 -70 0 -7 -4 -10 -9 -7 -14 9 -9 39 17 90 14 27
25 55 25 62 0 6 5 12 10 12 6 0 10 -7 10 -15z m-55 -27 c-4 -41 -6 -43 -16
-25 -8 13 -7 22 1 33 16 19 18 18 15 -8z m55 -63 c-13 -16 -4 -39 11 -29 7 4
8 -11 3 -42 -4 -27 -11 -50 -15 -52 -5 -2 -9 -9 -9 -15 0 -6 -7 -19 -17 -29
-10 -12 -12 -18 -4 -18 7 0 9 -4 6 -10 -3 -5 -9 -10 -13 -10 -15 0 -30 62 -25
95 5 31 9 35 34 35 20 0 29 5 29 16 0 14 -3 14 -15 4 -12 -10 -15 -10 -16 1
-1 8 0 19 1 24 1 6 3 15 4 21 3 20 30 47 34 35 2 -7 -1 -18 -8 -26z m1257 3
c-3 -7 -5 -2 -5 12 0 14 2 19 5 13 2 -7 2 -19 0 -25z m110 -60 c-3 -8 -6 -5
-6 6 -1 11 2 17 5 13 3 -3 4 -12 1 -19z m-107 -74 c0 -34 -4 -53 -10 -49 -16
10 -10 105 6 105 2 0 4 -25 4 -56z m-311 -71 c1 -29 -3 -53 -9 -53 -6 0 -10
32 -9 78 1 87 16 66 18 -25z m-609 77 c0 -5 -5 -10 -11 -10 -5 0 -7 5 -4 10 3
6 8 10 11 10 2 0 4 -4 4 -10z m-169 -27 c-12 -20 -14 -14 -5 12 4 9 9 14 11
11 3 -2 0 -13 -6 -23z m153 -15 c-8 -27 -12 -33 -19 -27 -7 8 7 49 17 49 5 0
6 -10 2 -22z m96 3 c0 -6 -5 -13 -11 -16 -6 -4 -8 -14 -5 -22 3 -8 1 -11 -4
-8 -11 7 -13 38 -3 48 9 10 23 8 23 -2z m950 -31 c0 -16 -4 -30 -10 -30 -5 0
-10 14 -10 30 0 17 5 30 10 30 6 0 10 -13 10 -30z m-110 -31 c0 -11 -4 -18
-10 -14 -5 3 -7 12 -3 20 7 21 13 19 13 -6z m-750 -29 c0 -5 -5 -12 -11 -16
-14 -8 -33 11 -25 25 7 11 36 4 36 -9z m253 -15 c29 -36 26 -41 -23 -37 -8 1
-30 3 -47 3 -18 1 -33 6 -33 10 0 8 61 59 70 59 3 0 18 -16 33 -35z m-379 -47
c-4 -7 -3 -8 4 -4 7 4 12 12 12 17 0 6 7 17 15 25 13 14 15 13 16 -8 1 -13 1
-27 0 -31 -1 -5 3 -6 9 -2 6 4 16 2 23 -3 7 -5 26 -13 44 -16 43 -10 61 -31
36 -44 -39 -20 -93 -22 -161 -7 -65 15 -70 18 -76 47 -12 60 -8 71 19 64 14
-4 25 -2 25 4 0 5 9 1 20 -10 12 -12 18 -26 14 -32z m463 6 c-3 -3 -12 -4 -19
-1 -8 3 -5 6 6 6 11 1 17 -2 13 -5z m228 -4 c-28 -12 -55 -12 -55 0 0 6 17 10
38 9 30 0 33 -2 17 -9z m185 -36 c0 -31 -23 -28 -28 4 -2 15 2 22 12 22 11 0
16 -9 16 -26z m-120 1 c0 -16 -35 -21 -44 -6 -8 12 4 21 26 21 10 0 18 -7 18
-15z m-291 -1 c24 -5 31 -12 31 -31 0 -13 -6 -26 -14 -29 -14 -5 -74 22 -111
50 -19 15 -18 15 21 16 23 0 56 -3 73 -6z m-3899 -29 c0 -8 6 -14 13 -12 22 4
19 -50 -7 -101 -25 -49 -41 -62 -77 -62 -24 0 -15 27 13 35 15 5 18 13 13 35
-3 16 -2 31 4 35 6 3 11 12 11 20 0 21 -34 11 -45 -13 -12 -26 -27 -30 -18 -4
6 18 72 81 86 82 4 0 7 -7 7 -15z m4190 -92 c0 -143 -16 -166 -60 -90 -26 45
-62 156 -54 169 3 5 30 8 60 8 l54 0 0 -87z m-464 52 c22 -11 29 -22 30 -47
l2 -32 -16 27 c-9 15 -20 27 -24 27 -4 0 -12 9 -18 20 -13 24 -11 24 26 5z
m575 2 c-1 -4 -1 -15 -1 -24 0 -15 -2 -16 -10 -3 -13 20 -13 43 1 38 6 -2 10
-7 10 -11z m129 -45 c0 -54 -11 -112 -21 -112 -10 0 -12 68 -3 122 8 47 24 40
24 -10z m-1630 19 c0 -11 -59 -26 -67 -18 -3 3 -2 10 2 16 8 13 65 15 65 2z
m1040 -12 c0 -5 -4 -9 -10 -9 -5 0 -10 7 -10 16 0 8 5 12 10 9 6 -3 10 -10 10
-16z m-260 -12 c-17 -13 -24 -37 -12 -37 4 0 13 5 19 11 8 8 16 2 29 -22 10
-20 19 -28 22 -21 3 10 7 10 18 1 8 -6 32 -13 54 -15 36 -4 41 -1 56 27 12 24
18 28 24 18 5 -7 6 -17 3 -21 -2 -5 0 -14 5 -21 5 -7 13 -22 16 -34 7 -22 5
-23 -38 -17 -26 4 -51 2 -58 -3 -23 -18 -89 -22 -132 -8 -60 20 -196 46 -206
40 -5 -3 -12 7 -16 22 -4 15 -13 41 -21 56 l-14 28 73 -6 c47 -4 76 -11 81
-20 6 -12 11 -11 28 6 11 11 26 18 33 16 7 -3 19 -1 27 4 20 13 26 10 9 -4z
m-2940 -16 c0 -5 -7 -12 -16 -15 -24 -9 -28 -7 -14 9 14 17 30 20 30 6z m3320
-6 c7 -8 8 -15 2 -15 -5 0 -15 7 -22 15 -7 8 -8 15 -2 15 5 0 15 -7 22 -15z
m-84 -35 l27 -11 -22 -15 c-25 -18 -26 -18 -35 14 -8 25 -7 26 30 12z m-4009
-19 c1 -11 -4 -24 -11 -30 -9 -7 -12 -2 -14 20 -1 18 2 29 11 29 7 0 13 -9 14
-19z m-43 -7 c4 -9 2 -22 -4 -29 -5 -6 -7 -14 -5 -17 3 -3 -16 -8 -41 -12 -26
-3 -48 -5 -49 -4 -10 12 -14 48 -6 48 6 0 11 -6 11 -14 0 -10 10 -14 29 -14
22 1 27 5 24 19 -6 21 12 26 21 7 3 -7 3 -3 0 10 -6 25 11 30 20 6z m3045 -14
c18 -20 127 -64 182 -74 47 -8 67 -30 49 -51 -11 -13 -26 -15 -84 -9 -136 13
-230 12 -255 -4 -25 -15 -113 -11 -211 9 -45 9 -243 37 -310 44 -133 13 -160
18 -160 25 0 18 79 29 290 40 149 8 222 16 237 25 21 14 161 25 217 17 17 -3
37 -12 45 -22z m1186 8 c19 -13 40 -36 46 -51 7 -16 18 -35 26 -43 12 -12 12
-14 -2 -14 -15 0 -97 81 -118 116 -12 21 9 17 48 -8z m-3484 -51 c-13 -13 -15
11 -4 40 7 16 8 15 11 -6 2 -13 -1 -28 -7 -34z m-891 18 c0 -8 -7 -15 -15 -15
-16 0 -20 12 -8 23 11 12 23 8 23 -8z m-111 -21 c12 3 30 9 41 12 11 3 20 1
20 -5 0 -11 -30 -17 -120 -25 -35 -3 -47 -2 -34 4 12 5 24 16 28 26 6 16 7 16
25 -1 12 -10 28 -14 40 -11z m530 0 c24 -2 45 -5 47 -7 2 -2 -5 -13 -16 -25
-16 -16 -27 -20 -56 -15 -24 4 -60 -2 -108 -17 -64 -20 -85 -22 -170 -15 -74
5 -101 11 -119 27 l-22 19 35 -5 c19 -3 67 -9 107 -12 62 -6 75 -4 101 14 16
12 48 24 71 28 23 4 44 11 47 16 3 5 13 6 23 2 9 -4 36 -8 60 -10z m1846 6 c3
-5 1 -10 -4 -10 -6 0 -11 5 -11 10 0 6 2 10 4 10 3 0 8 -4 11 -10z m-1720 -19
c3 -5 -4 -13 -16 -16 -23 -8 -34 -1 -24 14 8 13 32 14 40 2z m185 -15 c0 -8
-7 -16 -15 -20 -13 -4 -14 -2 -5 14 13 23 20 26 20 6z m3593 -79 c35 -22 34
-37 -2 -37 -23 0 -31 6 -39 28 -5 16 -25 46 -43 68 l-33 39 45 -41 c24 -22 56
-48 72 -57z m-313 58 c150 -2 152 -2 188 -35 40 -36 35 -53 -11 -37 -35 12
-248 14 -312 3 -54 -10 -95 6 -95 37 0 39 19 50 75 41 28 -5 97 -9 155 -9z
m-2088 -5 c128 -25 236 -69 121 -49 -116 20 -141 21 -209 6 -38 -9 -89 -23
-113 -32 -50 -17 -81 -19 -81 -5 0 19 64 50 97 48 20 -1 38 4 45 14 24 29 58
34 140 18z m498 -19 c68 -1 138 -5 155 -11 28 -9 217 -34 370 -50 39 -4 106
-5 150 -2 96 5 194 4 205 -3 4 -3 0 -26 -9 -52 -24 -69 -42 -75 -188 -69 -68
3 -146 1 -174 -4 -54 -10 -74 -4 -176 56 -37 22 -62 27 -180 35 -166 11 -296
24 -340 34 -32 7 -45 24 -20 26 6 1 21 2 32 3 14 1 21 9 23 29 3 20 7 26 15
19 7 -6 68 -10 137 -11z m2095 -7 c9 -9 15 -17 13 -19 -2 -1 -13 -8 -25 -14
-21 -11 -23 -10 -23 19 0 34 11 38 35 14z m-4105 -22 c0 -16 -37 -29 -68 -24
-59 8 -34 25 46 31 12 0 22 -2 22 -7z m385 -16 c22 -8 58 -15 80 -16 23 0 46
-5 51 -10 8 -8 24 -7 55 3 24 8 69 15 99 15 30 0 74 8 98 16 46 16 60 3 15
-15 -16 -6 -50 -21 -78 -34 -27 -13 -81 -31 -120 -40 -65 -15 -70 -15 -82 2
-7 9 -13 20 -13 24 0 3 -12 11 -27 17 -32 13 -238 20 -249 9 -14 -14 -25 -7
-22 16 3 19 11 23 63 28 68 7 75 6 130 -15z m705 -11 c0 -3 -18 -21 -40 -42
-23 -20 -37 -40 -32 -45 5 -5 43 -2 88 7 132 25 135 19 19 -40 -39 -19 -77
-40 -87 -47 -13 -9 -20 -9 -34 2 -25 22 -158 30 -177 11 -7 -7 -16 -2 -29 20
-11 17 -18 33 -16 34 2 2 31 16 64 32 41 20 71 28 91 26 20 -3 47 4 79 21 47
24 74 32 74 21z m80 -25 c0 -5 -4 -10 -10 -10 -5 0 -10 5 -10 10 0 6 5 10 10
10 6 0 10 -4 10 -10z m2568 -1 c26 -7 52 -16 57 -22 7 -7 3 -7 -10 -2 -11 4
-49 9 -85 11 -35 1 -66 8 -68 13 -5 14 47 14 106 0z m-2103 -8 c10 -17 -18
-25 -101 -29 -88 -5 -121 10 -62 27 43 12 155 14 163 2z m2422 -31 c-4 -28
-15 -35 -12 -8 3 27 3 28 10 28 3 0 4 -9 2 -20z m-3848 -9 c18 11 45 19 60 17
21 -3 17 -6 -29 -22 -65 -22 -132 -63 -179 -111 l-34 -34 -14 27 c-17 32 -31
42 -51 35 -10 -4 -13 0 -10 13 2 12 11 18 21 16 10 -2 31 8 48 22 17 15 36 26
44 26 7 0 25 7 41 15 26 13 30 13 49 -5 20 -19 21 -19 54 1z m1756 2 l30 -7
-35 -6 c-19 -3 -57 -2 -85 2 -27 3 -77 7 -110 8 -51 2 -55 4 -30 10 31 9 178
4 230 -7z m1453 -7 c35 -8 70 -12 78 -9 8 3 20 1 27 -5 6 -6 25 -12 41 -14 16
-1 31 -9 34 -15 2 -9 -12 -13 -50 -13 -78 -1 -126 -15 -160 -46 -28 -28 -29
-28 -56 -11 -15 9 -58 32 -97 51 -67 34 -105 58 -105 68 0 10 159 8 165 -2 9
-15 25 -12 25 6 0 10 6 14 18 10 9 -3 46 -12 80 -20z m-341 -21 l28 -25 -49
15 c-63 18 -81 35 -39 35 20 0 43 -10 60 -25z m-800 -4 c29 -17 -43 -14 -97 4
l-45 15 62 -4 c33 -2 69 -9 80 -15z m-1757 -12 c25 -6 61 -13 80 -16 49 -8
110 -51 110 -77 0 -29 -7 -36 -70 -84 -30 -22 -71 -55 -90 -71 -42 -36 -50
-38 -50 -11 0 13 12 28 30 38 16 9 30 23 30 30 0 25 -35 11 -75 -31 -40 -42
-41 -43 -56 -23 -15 19 -17 19 -61 -23 l-46 -42 -36 15 c-40 16 -55 41 -37 59
6 6 11 17 11 24 0 16 -42 17 -56 3 -8 -8 -15 -6 -24 5 -19 23 -36 18 -81 -22
-37 -33 -47 -37 -102 -40 -34 -1 -80 -9 -102 -17 -35 -13 -43 -13 -62 0 -36
23 -66 17 -94 -17 -25 -31 -27 -32 -108 -30 -45 1 -102 8 -128 16 -44 13 -47
13 -78 -11 -43 -32 -55 -30 -55 9 0 31 4 35 61 63 34 16 78 44 98 62 32 30 37
31 46 16 6 -9 20 -29 32 -44 22 -27 22 -28 3 -45 -21 -19 -18 -35 6 -35 32 0
122 53 188 111 51 45 74 59 90 55 11 -3 28 2 38 11 29 26 34 5 10 -40 -42 -79
-25 -86 69 -28 48 28 65 44 67 63 4 36 108 114 175 133 55 16 180 13 267 -6z
m860 9 c0 -10 27 -12 107 -11 59 2 114 5 121 8 8 3 24 -3 36 -13 17 -13 44
-18 102 -20 82 -2 194 -21 194 -33 0 -4 -46 -7 -102 -8 -57 -1 -119 -5 -138
-10 -72 -17 -600 -22 -600 -5 -1 5 10 10 22 12 31 4 68 22 95 45 15 13 30 17
46 13 17 -4 33 0 48 14 27 22 69 27 69 8z m1755 -28 c3 -6 -1 -7 -9 -4 -18 7
-21 14 -7 14 6 0 13 -4 16 -10z m530 0 c3 -5 -1 -10 -9 -10 -8 0 -18 5 -21 10
-3 6 1 10 9 10 8 0 18 -4 21 -10z m-1388 -14 c73 -3 99 -8 127 -25 31 -19 42
-21 88 -13 29 5 105 8 168 6 73 -2 131 2 160 10 57 16 177 11 197 -9 8 -9 24
-13 37 -9 13 3 47 -2 76 -12 49 -16 51 -18 34 -31 -10 -8 -18 -21 -16 -30 3
-14 -6 -15 -75 -8 -43 4 -125 9 -183 11 -58 2 -159 8 -225 13 -66 5 -135 8
-153 6 -18 -2 -63 4 -100 12 -72 16 -193 21 -229 9 -47 -15 -20 -26 61 -26 89
0 186 -17 198 -34 4 -6 42 -11 84 -12 58 0 78 -4 85 -16 7 -12 22 -15 71 -12
60 4 194 -7 268 -21 19 -3 48 -16 64 -27 16 -12 36 -21 43 -21 23 0 14 -15
-17 -26 -16 -5 -30 -14 -30 -19 0 -13 -66 -52 -87 -52 -9 0 -36 -11 -59 -25
-29 -17 -51 -24 -68 -19 -13 3 -44 -1 -69 -10 -39 -13 -86 -15 -294 -10 -136
3 -252 5 -258 5 -5 -1 -189 -4 -408 -7 -368 -5 -400 -4 -418 12 -15 13 -19 14
-19 3 0 -12 -90 -14 -602 -11 -332 1 -607 7 -611 11 -15 15 1 29 43 36 38 6
40 9 40 42 0 23 4 33 13 30 6 -2 11 -13 9 -23 -4 -26 -4 -55 1 -60 13 -13 48
-11 57 4 9 14 12 14 17 3 4 -11 10 -8 24 10 l19 24 6 -23 c10 -35 29 -20 26
20 -2 20 1 39 7 43 7 4 11 -5 12 -24 2 -54 12 -73 34 -64 8 3 15 1 15 -4 0 -5
27 -6 61 -3 51 5 65 11 90 38 17 18 28 36 24 41 -3 5 3 16 14 23 10 7 20 22
23 33 3 18 11 20 93 17 97 -3 135 9 135 40 0 15 9 18 48 19 26 1 52 0 57 -1
39 -11 126 -10 145 0 13 7 47 12 76 11 35 0 56 4 64 14 10 12 41 15 149 16 75
0 159 5 186 11 57 12 163 14 352 5 l132 -6 -8 22 c-5 13 -20 24 -37 28 -19 3
-28 10 -25 20 2 8 4 24 4 37 -1 23 0 23 81 17 44 -3 122 -7 173 -9z m1773 -98
c0 -4 -17 -8 -37 -8 -28 0 -34 3 -23 10 17 11 60 9 60 -2z m-2957 -17 c9 -1
17 -6 17 -12 0 -7 -16 -8 -47 -3 -59 8 -82 25 -27 19 21 -2 47 -4 57 -4z
m2142 -11 c-3 -5 -15 -10 -26 -10 -10 0 -19 5 -19 10 0 6 12 10 26 10 14 0 23
-4 19 -10z m1040 -20 c6 -9 -19 -12 -124 -13 -19 0 -37 5 -39 11 -5 15 154 17
163 2z m-3462 -7 c-7 -2 -21 -2 -30 0 -10 3 -4 5 12 5 17 0 24 -2 18 -5z
m-1108 -33 c-21 -23 -35 -26 -35 -7 0 12 40 36 49 30 2 -2 -4 -12 -14 -23z
m3671 0 c14 -6 47 -31 72 -55 25 -25 49 -45 53 -45 14 0 78 -99 68 -105 -11
-7 -317 -11 -486 -6 -111 4 -132 10 -94 31 28 15 59 12 91 -7 24 -13 31 -14
44 -4 8 7 14 18 13 24 -1 8 13 12 38 12 l40 0 -2 66 -2 66 62 16 c78 19 71 19
103 7z m-3192 -58 c2 -4 -4 -9 -15 -9 -11 -1 -17 2 -14 8 7 11 22 12 29 1z
m-66 -37 c-12 -10 -48 -15 -48 -6 0 6 6 11 14 11 8 0 17 8 21 18 8 16 8 16 12
-1 3 -10 3 -20 1 -22z m418 -47 c-21 -12 -78 -6 -83 8 -2 7 3 19 12 27 14 15
19 14 51 -5 30 -18 33 -23 20 -30z m-751 32 c-3 -5 -11 -10 -16 -10 -6 0 -7 5
-4 10 3 6 11 10 16 10 6 0 7 -4 4 -10z"/>
<path d="M2216 8673 c-4 -4 -26 -7 -49 -8 -28 0 -42 -4 -42 -13 0 -11 40 -14
185 -17 195 -4 243 0 237 19 -2 7 -46 12 -128 13 -68 1 -140 4 -160 7 -20 3
-39 3 -43 -1z"/>
<path d="M2863 7763 c9 -9 19 -14 23 -11 10 10 -6 28 -24 28 -15 0 -15 -1 1
-17z"/>
<path d="M2091 7746 c-7 -9 -8 -17 -2 -20 13 -9 43 4 38 17 -5 17 -23 19 -36
3z"/>
<path d="M2181 7684 c-17 -14 -31 -35 -31 -45 0 -32 28 -34 59 -5 29 28 50 33
68 15 14 -14 53 -2 53 15 0 49 -99 62 -149 20z"/>
<path d="M1580 7689 c-38 -15 -60 -40 -60 -66 0 -37 26 -39 56 -4 28 34 66 41
99 18 24 -17 67 -28 63 -17 -2 4 -23 24 -46 44 -45 37 -68 42 -112 25z"/>
<path d="M2693 7655 c-38 -16 -55 -44 -42 -68 9 -15 13 -16 46 -2 45 19 73 19
100 0 48 -34 36 26 -13 64 -31 24 -47 25 -91 6z"/>
<path d="M3342 7658 c-40 -11 -62 -49 -42 -73 12 -14 15 -14 38 1 23 15 27 15
63 -2 52 -23 72 -8 47 34 -22 36 -64 52 -106 40z"/>
<path d="M1957 7644 c-48 -26 -16 -51 36 -29 16 6 18 4 15 -16 -2 -18 2 -24
16 -24 31 0 42 29 23 59 -20 30 -48 33 -90 10z"/>
<path d="M3017 7493 c-11 -10 -8 -51 4 -59 6 -3 8 -17 4 -31 -6 -26 11 -57 26
-47 5 3 6 16 3 30 -6 24 -5 25 32 22 31 -2 39 1 42 15 3 15 -2 18 -24 15 -23
-2 -32 3 -49 29 -21 33 -27 38 -38 26z"/>
<path d="M3096 7363 c-4 -9 -3 -20 2 -25 11 -11 36 17 27 32 -9 15 -22 12 -29
-7z"/>
<path d="M3050 7305 c0 -8 7 -15 16 -15 14 0 14 3 4 15 -7 8 -14 15 -16 15 -2
0 -4 -7 -4 -15z"/>
<path d="M3105 7280 c-11 -17 5 -32 21 -19 7 6 11 15 8 20 -7 12 -21 11 -29
-1z"/>
<path d="M2802 7268 c6 -16 51 -39 101 -50 66 -15 140 23 107 56 -7 7 -19 5
-39 -7 -36 -21 -66 -21 -121 -2 -51 18 -53 18 -48 3z"/>
<path d="M3047 7254 c-8 -9 11 -44 23 -44 6 0 10 6 10 14 0 16 -24 38 -33 30z"/>
<path d="M2825 7170 c-17 -18 -17 -21 -1 -45 9 -14 23 -25 30 -25 18 0 29 59
15 76 -15 19 -23 18 -44 -6z"/>
<path d="M3272 7168 c-22 -22 -14 -35 19 -30 21 3 29 9 27 21 -4 20 -30 25
-46 9z"/>
<path d="M1637 7163 c-11 -10 -8 -48 5 -61 9 -9 17 -5 35 14 12 14 23 29 23
33 0 17 -50 28 -63 14z"/>
<path d="M3096 7091 c-4 -5 -2 -12 3 -15 5 -4 12 -2 15 3 4 5 2 12 -3 15 -5 4
-12 2 -15 -3z"/>
<path d="M3470 7033 c-61 -6 -82 -13 -77 -28 7 -17 -14 -25 -43 -18 -17 4 -21
2 -18 -8 4 -10 20 -13 59 -11 29 2 65 0 79 -3 22 -6 23 -8 7 -16 -9 -6 -17
-14 -17 -19 0 -9 81 -1 93 10 15 14 -5 40 -32 40 -70 1 -92 29 -23 31 33 0 85
15 72 19 -10 4 -66 5 -100 3z"/>
<path d="M3120 6980 c0 -11 1 -11 93 -13 65 -2 84 7 36 17 -49 9 -129 7 -129
-4z"/>
<path d="M3403 6843 c-15 -6 -18 -83 -3 -83 6 0 10 9 10 20 0 10 9 24 21 30
16 9 18 14 8 26 -12 15 -16 16 -36 7z"/>
<path d="M2880 6770 c0 -5 5 -10 10 -10 6 0 10 5 10 10 0 6 -4 10 -10 10 -5 0
-10 -4 -10 -10z"/>
<path d="M3286 6742 c-3 -6 -1 -14 5 -17 15 -10 25 3 12 16 -7 7 -13 7 -17 1z"/>
<path d="M2803 6723 c-43 -5 -42 -20 2 -39 41 -17 75 -18 75 -3 0 19 -21 49
-33 47 -7 0 -27 -3 -44 -5z"/>
<path d="M3265 6681 c-6 -11 9 -23 19 -14 9 9 7 23 -3 23 -6 0 -12 -4 -16 -9z"/>
<path d="M3233 6403 c-11 -27 -16 -63 -14 -120 1 -74 5 -88 33 -130 73 -112
118 -163 118 -135 0 4 -20 34 -45 67 -25 33 -45 64 -45 69 0 5 -7 17 -16 27
-10 12 -14 32 -12 65 3 37 6 44 12 29 4 -11 13 -31 21 -45 16 -31 113 -86 127
-72 12 12 2 32 -17 32 -7 0 -32 11 -56 25 -38 21 -45 31 -57 77 -7 29 -12 74
-12 101 1 57 -15 62 -37 10z"/>
<path d="M3132 6341 c4 -13 18 -16 19 -4 0 4 -5 9 -11 12 -7 2 -11 -2 -8 -8z"/>
<path d="M3417 6223 c-13 -12 -7 -23 13 -23 12 0 34 -7 50 -15 26 -14 30 -14
30 -1 0 30 -72 60 -93 39z"/>
<path d="M3552 6159 c2 -7 10 -15 17 -17 8 -3 12 1 9 9 -2 7 -10 15 -17 17 -8
3 -12 -1 -9 -9z"/>
<path d="M3480 6146 c0 -15 24 -28 34 -19 7 7 -13 33 -25 33 -5 0 -9 -6 -9
-14z"/>
<path d="M3358 6109 c-27 -15 -21 -30 10 -27 24 3 27 0 27 -27 0 -40 32 -47
41 -9 6 22 2 32 -20 51 -30 26 -34 27 -58 12z"/>
<path d="M3362 5928 c3 -58 22 -75 31 -28 7 31 -9 80 -25 80 -5 0 -8 -23 -6
-52z"/>
<path d="M2733 8400 c-32 -13 -44 -41 -30 -70 17 -33 32 -35 45 -5 13 28 43
33 62 10 33 -40 56 8 24 53 -16 23 -59 29 -101 12z"/>
<path d="M2204 8377 c-23 -20 -25 -26 -15 -45 14 -26 28 -28 53 -5 16 14 24
15 52 5 43 -16 46 -15 46 7 0 26 -46 61 -81 61 -15 0 -40 -10 -55 -23z"/>
<path d="M2310 8065 c-21 -26 -5 -43 39 -41 51 3 59 11 36 36 -21 24 -57 26
-75 5z"/>
<path d="M2648 8049 c-25 -14 -11 -42 18 -35 12 3 26 2 29 -4 9 -15 35 -12 35
4 0 36 -47 56 -82 35z"/>
<path d="M3520 7980 c0 -5 5 -10 10 -10 6 0 10 5 10 10 0 6 -4 10 -10 10 -5 0
-10 -4 -10 -10z"/>
<path d="M2477 7473 c-22 -21 25 -69 56 -57 21 8 30 34 16 50 -12 14 -60 19
-72 7z"/>
<path d="M2071 6968 c-31 -11 -25 -26 12 -30 l32 -3 -37 -22 c-21 -12 -38 -26
-38 -31 0 -17 69 -42 100 -36 24 5 30 12 30 32 0 25 1 25 17 9 10 -10 22 -41
28 -70 5 -29 14 -52 20 -52 15 0 18 154 3 172 -26 32 -119 49 -167 31z"/>
<path d="M2333 6965 c-37 -16 -47 -55 -14 -55 10 0 26 -11 35 -25 13 -19 25
-25 54 -25 46 1 88 32 76 57 -4 10 -8 25 -8 33 -2 28 -91 38 -143 15z"/>
<path d="M2220 6735 c-11 -13 -8 -21 20 -50 19 -19 36 -35 39 -35 4 0 21 19
40 41 24 30 30 44 22 52 -8 8 -18 7 -36 -3 -21 -11 -30 -12 -45 -2 -25 15 -25
15 -40 -3z"/>
<path d="M2260 6640 c-36 -3 -71 -9 -77 -13 -33 -21 -6 -27 112 -25 69 2 125
6 125 9 0 26 -64 37 -160 29z"/>
<path d="M2250 6565 c0 -15 26 -20 54 -9 28 11 17 24 -19 24 -24 0 -35 -5 -35
-15z"/>
<path d="M1590 6775 c-22 -26 -8 -50 33 -53 31 -3 37 0 37 16 0 20 -29 52 -47
52 -6 0 -16 -7 -23 -15z"/>
<path d="M2880 6279 c-8 -15 -9 -19 -1 -15 6 4 11 3 11 -3 0 -5 -7 -14 -16
-19 -15 -8 -15 -10 0 -15 11 -4 16 -1 16 10 0 12 3 13 14 4 12 -10 17 -8 27
11 9 19 9 21 -2 11 -19 -18 -28 -16 -22 6 7 27 -14 35 -27 10z"/>
<path d="M2952 6191 c4 -13 18 -16 19 -4 0 4 -5 9 -11 12 -7 2 -11 -2 -8 -8z"/>
<path d="M3110 5971 c0 -6 5 -13 11 -16 6 -4 8 -13 5 -21 -3 -8 -1 -14 4 -14
11 0 13 21 4 44 -7 17 -24 22 -24 7z"/>
<path d="M3176 5903 c-4 -8 3 -13 19 -13 15 0 25 6 25 14 0 18 -38 17 -44 -1z"/>
<path d="M3309 5645 c0 -5 -2 -24 -4 -41 -4 -39 9 -64 26 -47 9 9 8 16 -5 28
-11 12 -14 21 -7 29 6 7 6 17 1 26 -6 8 -10 11 -11 5z"/>
<path d="M1850 6200 c0 -5 5 -10 11 -10 5 0 7 5 4 10 -3 6 -8 10 -11 10 -2 0
-4 -4 -4 -10z"/>
<path d="M1760 6169 c0 -5 5 -7 10 -4 6 3 10 8 10 11 0 2 -4 4 -10 4 -5 0 -10
-5 -10 -11z"/>
<path d="M1805 6105 c-3 -8 -7 -22 -10 -30 -2 -8 2 -15 9 -15 8 0 16 14 18 30
5 31 -9 42 -17 15z"/>
<path d="M2697 6189 c-4 -15 -1 -19 11 -17 21 4 29 38 9 38 -8 0 -17 -9 -20
-21z"/>
<path d="M2733 6159 c-15 -15 -17 -39 -4 -39 5 0 8 -8 7 -17 -1 -13 8 -17 33
-19 l35 -2 -24 18 c-15 11 -21 23 -17 34 4 9 3 14 -2 11 -5 -3 -11 2 -13 10
-2 13 -5 14 -15 4z"/>
<path d="M2790 6050 c0 -19 11 -26 23 -14 8 8 -3 34 -14 34 -5 0 -9 -9 -9 -20z"/>
<path d="M2840 6004 c0 -8 5 -12 10 -9 6 3 10 10 10 16 0 5 -4 9 -10 9 -5 0
-10 -7 -10 -16z"/>
<path d="M2860 5970 c0 -5 5 -10 10 -10 6 0 10 5 10 10 0 6 -4 10 -10 10 -5 0
-10 -4 -10 -10z"/>
<path d="M2897 5916 c-6 -15 1 -26 15 -26 11 0 10 27 -1 34 -5 3 -11 0 -14 -8z"/>
<path d="M3125 5480 c3 -5 8 -10 11 -10 2 0 4 5 4 10 0 6 -5 10 -11 10 -5 0
-7 -4 -4 -10z"/>
<path d="M2714 5866 c-10 -27 -20 -460 -11 -516 9 -56 7 -107 -14 -357 -6 -79
-8 -150 -5 -160 15 -38 28 12 47 173 17 137 21 236 21 519 1 319 0 350 -15
353 -10 2 -20 -3 -23 -12z"/>
<path d="M2645 5430 c-3 -6 -11 -54 -16 -108 -16 -154 -48 -409 -64 -502 -10
-56 -15 -158 -15 -300 0 -223 -7 -275 -45 -337 -13 -21 -28 -33 -42 -33 -20 0
-163 -114 -163 -130 0 -29 55 -7 110 45 20 19 48 35 65 37 26 3 34 13 69 83
l40 80 3 245 c3 189 8 270 23 355 21 120 55 375 66 498 5 66 4 77 -9 77 -9 0
-19 -5 -22 -10z"/>
<path d="M2237 5203 c-4 -4 -5 -70 -1 -147 6 -141 -2 -223 -56 -517 -5 -30
-10 -65 -10 -77 0 -24 22 -29 37 -9 19 23 37 122 38 212 1 50 10 150 19 224
24 184 9 351 -27 314z"/>
<path d="M2491 5186 c-7 -9 -12 -48 -13 -93 0 -43 -2 -81 -4 -85 -2 -3 -6 -75
-8 -160 -2 -84 -9 -178 -16 -208 -6 -30 -15 -77 -20 -105 -18 -98 -68 -301
-89 -355 -11 -30 -28 -59 -37 -65 -9 -5 -30 -20 -48 -32 -103 -74 -121 -83
-169 -83 -34 0 -61 8 -92 26 -44 25 -85 29 -92 8 -2 -7 9 -17 24 -23 15 -7 44
-21 63 -32 28 -16 48 -19 100 -16 66 4 81 11 198 89 68 46 100 122 154 368 54
246 67 347 70 518 2 102 6 146 15 154 16 13 17 62 3 89 -13 23 -23 24 -39 5z"/>
<path d="M2242 4407 c-6 -6 -22 -42 -37 -79 -15 -37 -44 -87 -64 -110 l-38
-42 -87 -2 c-87 -2 -130 -16 -90 -30 10 -3 30 -10 44 -15 14 -5 41 -5 62 0 20
5 39 6 42 3 3 -2 19 1 35 8 69 28 192 250 152 274 -5 3 -13 0 -19 -7z"/>
<path d="M1459 4046 c-195 -66 -294 -157 -336 -311 -20 -75 -26 -256 -12 -370
6 -55 12 -136 13 -179 1 -92 20 -116 32 -40 9 65 8 117 -4 204 -23 154 -6 364
36 460 46 108 198 198 345 208 74 4 80 3 129 -27 33 -21 54 -29 61 -22 13 13
-22 73 -54 88 -37 19 -136 14 -210 -11z"/>
<path d="M2911 4025 c-37 -18 -58 -22 -65 -15 -30 30 -146 -12 -206 -75 -36
-38 -116 -85 -147 -85 -10 0 -45 -12 -78 -26 -163 -70 -257 -63 -450 31 -130
63 -130 63 -265 77 -74 7 -148 12 -165 10 -67 -6 -196 -125 -167 -154 7 -7 20
-3 44 15 18 14 52 33 75 42 23 9 44 23 47 31 7 18 88 18 220 0 77 -11 115 -23
170 -51 39 -21 78 -43 86 -50 20 -18 65 -35 124 -46 61 -11 146 2 276 43 135
42 191 70 254 127 63 57 78 66 126 75 33 6 29 0 -76 -101 -61 -60 -143 -151
-181 -203 -38 -52 -87 -116 -109 -142 -21 -26 -51 -65 -66 -87 -21 -32 -34
-41 -56 -41 -31 0 -75 -27 -67 -41 4 -5 30 -9 58 -9 l52 0 59 80 c33 45 69 92
80 105 12 13 39 49 61 80 80 112 138 177 227 253 102 87 155 122 201 131 23 5
32 12 32 26 0 29 -32 29 -94 0z"/>
<path d="M3130 3942 c-51 -25 -49 -48 13 -128 72 -93 102 -148 117 -214 15
-68 23 -85 41 -85 10 0 14 14 14 50 -1 62 -54 176 -120 255 -25 30 -44 59 -42
65 2 5 18 11 35 13 41 4 45 38 6 52 -31 12 -23 13 -64 -8z"/>
<path d="M1533 3833 c-35 -14 20 -70 57 -58 44 14 226 -106 458 -301 105 -88
166 -161 160 -192 -4 -24 -46 -27 -69 -6 -17 15 -21 16 -33 3 -11 -12 -7 -33
25 -134 22 -66 64 -169 94 -228 31 -61 64 -144 75 -190 43 -172 53 -204 91
-279 22 -44 76 -122 125 -180 47 -57 96 -120 108 -140 23 -42 44 -55 52 -33 8
20 -35 87 -126 195 -101 121 -152 217 -185 351 -35 145 -51 191 -102 294 -43
87 -103 255 -103 290 0 12 5 15 18 10 47 -18 70 -17 81 3 26 48 -44 153 -176
264 -109 92 -297 235 -343 260 -19 11 -39 24 -45 28 -11 8 -134 51 -144 49 -3
0 -12 -3 -18 -6z"/>
<path d="M3126 3708 c-23 -32 -21 -43 29 -146 25 -51 59 -134 76 -185 30 -88
31 -97 25 -197 -4 -58 -11 -141 -16 -185 -5 -44 -11 -111 -14 -150 -6 -72 -33
-367 -43 -465 -3 -30 -12 -64 -19 -75 -11 -16 -12 -66 -8 -229 5 -203 11 -246
37 -246 23 0 55 29 61 56 8 32 -8 54 -26 36 -7 -7 -16 -12 -21 -12 -12 0 -1
417 12 460 5 19 17 130 26 245 9 116 25 279 36 363 30 239 27 309 -20 439 -21
59 -52 136 -70 170 -36 73 -38 84 -11 101 11 7 17 18 14 27 -9 22 -51 18 -68
-7z"/>
<path d="M2426 3651 c-90 -81 -137 -92 -274 -66 -54 10 -101 22 -106 27 -6 4
-18 8 -29 8 -13 0 -18 -6 -15 -22 3 -24 23 -33 145 -60 70 -16 173 -9 220 16
43 22 148 118 148 134 0 32 -26 21 -89 -37z"/>
<path d="M1531 3628 c-71 -35 -118 -90 -142 -167 -26 -83 -35 -209 -20 -293
12 -71 61 -232 84 -276 16 -30 35 -100 48 -175 9 -55 23 -77 49 -77 28 0 40
51 21 88 -5 9 -15 44 -21 77 -6 33 -31 110 -55 170 -60 154 -78 244 -73 374 5
142 22 175 115 226 52 29 73 35 97 30 83 -17 114 0 55 29 -45 22 -106 20 -158
-6z"/>
<path d="M1556 3299 c-14 -17 -26 -43 -27 -57 -1 -35 -7 -95 -10 -107 -1 -6 2
-21 8 -35 15 -36 43 -161 43 -191 0 -14 4 -29 9 -35 31 -32 67 -399 47 -475
-7 -29 -4 -72 14 -184 19 -119 21 -163 15 -238 -12 -150 -12 -162 5 -162 9 0
17 13 21 35 l6 35 2 -31 c0 -17 10 -57 21 -90 11 -32 20 -62 20 -66 0 -14 -29
-8 -67 12 -48 26 -77 25 -112 -1 -23 -17 -33 -19 -49 -10 -27 15 -30 14 -42
-8 -19 -36 56 -102 91 -80 11 6 10 12 -5 28 -17 19 -17 20 13 35 39 21 58 20
106 -4 22 -10 57 -22 78 -25 20 -3 37 -10 37 -15 0 -18 40 -32 56 -19 18 15
18 63 -1 79 -34 28 -89 284 -100 465 -4 64 -13 122 -22 140 -10 20 -17 84 -23
200 -8 167 -43 418 -73 525 -9 30 -21 89 -27 130 -11 68 -10 79 8 122 11 25
18 49 15 52 -13 13 -32 5 -57 -25z"/>
<path d="M1175 3022 l-25 -37 6 -275 c9 -483 6 -579 -17 -635 -6 -16 -13 -79
-14 -139 l-1 -109 -46 -41 c-25 -23 -55 -58 -67 -78 -25 -41 -33 -45 -111 -53
-36 -3 -67 -14 -93 -32 -49 -34 -107 -101 -107 -124 0 -31 19 -31 35 1 8 16
26 37 40 46 13 9 27 24 30 34 6 19 62 32 139 34 33 1 44 7 75 45 20 24 62 72
95 107 64 70 75 99 76 212 0 34 10 147 21 250 23 199 22 379 -2 615 -10 95 -9
113 6 152 27 72 1 89 -40 27z"/>
<path d="M1347 2818 c-4 -13 0 -33 9 -46 12 -18 13 -26 3 -38 -6 -8 -11 -43
-11 -82 0 -37 -3 -133 -8 -213 -9 -139 -19 -219 -56 -439 -22 -128 -22 -125 1
-125 23 0 27 12 50 145 27 152 45 313 55 490 9 133 15 173 31 207 17 34 19 45
9 65 -31 59 -73 77 -83 36z"/>
<path d="M1429 2634 c-11 -14 -14 -66 -15 -248 0 -236 -1 -248 -49 -437 -31
-122 -42 -142 -94 -168 -69 -36 -241 -237 -241 -282 0 -55 51 -20 86 58 13 30
35 58 51 68 15 9 37 31 48 48 11 18 40 42 65 53 90 43 146 133 161 259 4 39
12 98 18 132 7 38 9 115 5 195 -3 73 -7 176 -7 230 -1 53 -5 99 -8 102 -3 4
-12 -1 -20 -10z"/>
<path d="M2327 2368 c-3 -11 16 -63 44 -120 5 -10 9 -26 9 -36 0 -11 15 -39
33 -63 106 -139 138 -198 157 -291 6 -32 16 -60 21 -64 5 -3 15 -20 23 -37 15
-35 125 -174 176 -222 40 -38 107 -42 141 -8 34 33 19 54 -33 48 -50 -7 -70 8
-154 115 -88 113 -113 155 -130 226 -24 98 -32 113 -174 324 -9 14 -22 41 -28
60 -21 59 -73 101 -85 68z"/>
<path d="M2527 2193 c-14 -13 -6 -50 13 -68 31 -28 46 -7 29 39 -12 34 -27 44
-42 29z"/>
<path d="M2673 2041 c4 -16 2 -33 -3 -36 -17 -11 -11 -44 10 -55 28 -15 40 -5
39 33 -2 51 -13 82 -33 85 -16 3 -18 -1 -13 -27z"/>
<path d="M2931 1697 c-19 -7 -44 -25 -55 -40 l-21 -29 24 -19 c33 -27 45 -24
91 19 68 65 49 100 -39 69z"/>
<path d="M1624 1636 c-6 -16 82 -102 129 -127 18 -9 70 -24 117 -34 47 -9 100
-25 119 -36 23 -13 37 -16 45 -10 7 6 21 8 33 5 11 -3 34 1 51 10 17 9 45 16
61 16 35 0 59 31 38 48 -36 28 -120 11 -156 -31 -8 -11 -18 -14 -25 -9 -6 5
-42 17 -81 26 -170 42 -191 51 -257 112 -50 47 -65 53 -74 30z"/>
<path d="M1345 6100 c3 -5 8 -10 11 -10 2 0 4 5 4 10 0 6 -5 10 -11 10 -5 0
-7 -4 -4 -10z"/>
<path d="M1295 5752 c-13 -9 -17 -52 -5 -52 6 0 10 5 10 10 0 6 7 10 15 10 8
0 15 4 15 9 0 14 -25 30 -35 23z"/>
<path d="M1230 5695 c0 -17 -5 -36 -12 -43 -8 -8 -8 -15 3 -28 13 -15 15 -13
20 27 4 24 3 51 -2 59 -6 11 -8 6 -9 -15z"/>
<path d="M1321 5654 c0 -11 3 -14 6 -6 3 7 2 16 -1 19 -3 4 -6 -2 -5 -13z"/>
<path d="M1360 5584 c0 -14 4 -23 9 -20 5 3 7 15 4 26 -7 28 -13 25 -13 -6z"/>
<path d="M1215 5580 c-3 -5 -1 -10 4 -10 6 0 11 5 11 10 0 6 -2 10 -4 10 -3 0
-8 -4 -11 -10z"/>
<path d="M1360 5511 c0 -6 5 -13 10 -16 6 -3 10 1 10 9 0 9 -4 16 -10 16 -5 0
-10 -4 -10 -9z"/>
<path d="M1295 5500 c-3 -5 -1 -10 4 -10 6 0 11 5 11 10 0 6 -2 10 -4 10 -3 0
-8 -4 -11 -10z"/>
<path d="M1445 5430 c-3 -5 -12 -7 -20 -3 -11 4 -13 1 -9 -10 6 -18 30 -12 38
9 6 16 0 19 -9 4z"/>
<path d="M1135 5380 c3 -5 8 -10 11 -10 2 0 4 5 4 10 0 6 -5 10 -11 10 -5 0
-7 -4 -4 -10z"/>
<path d="M1425 5380 c3 -5 8 -10 11 -10 2 0 4 5 4 10 0 6 -5 10 -11 10 -5 0
-7 -4 -4 -10z"/>
<path d="M1190 5326 c0 -9 -4 -16 -10 -16 -5 0 -10 -9 -10 -20 0 -11 4 -20 8
-20 12 0 31 59 21 66 -5 3 -9 -2 -9 -10z"/>
<path d="M1100 5301 c0 -5 5 -13 10 -16 6 -3 10 -2 10 4 0 5 -4 13 -10 16 -5
3 -10 2 -10 -4z"/>
<path d="M1086 5151 c-4 -5 -2 -12 3 -15 5 -4 12 -2 15 3 4 5 2 12 -3 15 -5 4
-12 2 -15 -3z"/>
<path d="M1160 5129 c0 -5 5 -7 10 -4 6 3 10 8 10 11 0 2 -4 4 -10 4 -5 0 -10
-5 -10 -11z"/>
<path d="M3456 5722 c-7 -12 22 -38 31 -28 4 3 0 14 -9 22 -9 10 -18 12 -22 6z"/>
<path d="M3300 5200 c0 -5 5 -10 10 -10 6 0 10 5 10 10 0 6 -4 10 -10 10 -5 0
-10 -4 -10 -10z"/>
<path d="M3446 4931 c-3 -5 1 -14 9 -21 12 -10 15 -10 15 3 0 19 -16 31 -24
18z"/>
<path d="M3406 4874 c-9 -23 -2 -28 13 -10 7 8 8 17 3 20 -6 3 -13 -1 -16 -10z"/>
<path d="M3481 4823 c-1 -12 5 -28 12 -35 8 -7 12 -19 9 -26 -2 -6 0 -12 6
-12 19 0 21 14 3 39 -10 14 -21 33 -24 41 -4 10 -6 8 -6 -7z"/>
<path d="M3495 4695 c1 -14 9 -31 18 -38 8 -6 17 -23 19 -37 4 -29 16 -32 32
-8 8 14 4 23 -22 49 -17 17 -32 38 -32 45 0 8 -4 14 -8 14 -4 0 -7 -11 -7 -25z"/>
<path d="M3650 4401 c0 -5 5 -13 10 -16 6 -3 10 -2 10 4 0 5 -4 13 -10 16 -5
3 -10 2 -10 -4z"/>
<path d="M3724 4144 c3 -9 6 -20 6 -25 0 -5 4 -9 9 -9 4 0 6 11 3 25 -2 14 -9
25 -14 25 -6 0 -7 -7 -4 -16z"/>
<path d="M3720 4081 c0 -6 5 -13 10 -16 6 -3 10 1 10 9 0 9 -4 16 -10 16 -5 0
-10 -4 -10 -9z"/>
<path d="M3741 4024 c0 -11 3 -14 6 -6 3 7 2 16 -1 19 -3 4 -6 -2 -5 -13z"/>
<path d="M3750 3991 c0 -5 5 -13 10 -16 6 -3 10 -2 10 4 0 5 -4 13 -10 16 -5
3 -10 2 -10 -4z"/>
<path d="M3780 3831 c0 -12 5 -21 10 -21 6 0 10 6 10 14 0 8 -4 18 -10 21 -5
3 -10 -3 -10 -14z"/>
<path d="M938 4648 c9 -9 15 -9 24 0 9 9 7 12 -12 12 -19 0 -21 -3 -12 -12z"/>
<path d="M840 4500 c0 -5 5 -10 10 -10 6 0 10 5 10 10 0 6 -4 10 -10 10 -5 0
-10 -4 -10 -10z"/>
<path d="M3467 4253 c-4 -3 -7 -11 -7 -17 0 -6 5 -5 12 2 6 6 9 14 7 17 -3 3
-9 2 -12 -2z"/>
<path d="M3590 3286 c0 -8 -6 -16 -12 -19 -7 -2 -10 -8 -5 -12 4 -5 14 0 22
11 17 23 19 34 5 34 -5 0 -10 -6 -10 -14z"/>
<path d="M3566 3182 c-3 -6 -1 -14 5 -17 14 -9 20 -2 10 14 -6 8 -11 9 -15 3z"/>
<path d="M3567 2993 c-4 -3 -7 -11 -7 -17 0 -6 5 -5 12 2 6 6 9 14 7 17 -3 3
-9 2 -12 -2z"/>
<path d="M3575 2960 c-3 -5 1 -10 9 -10 9 0 16 5 16 10 0 6 -4 10 -9 10 -6 0
-13 -4 -16 -10z"/>
<path d="M3570 2885 c0 -8 -5 -15 -12 -15 -9 0 -9 -3 0 -12 14 -14 17 -11 26
20 5 13 3 22 -3 22 -6 0 -11 -7 -11 -15z"/>
<path d="M3552 2698 c-7 -7 -12 -21 -12 -33 0 -12 -5 -26 -12 -33 -13 -13 -5
-27 11 -18 11 7 35 85 28 92 -2 2 -9 -2 -15 -8z"/>
<path d="M3993 1903 c-3 -10 -8 -22 -10 -28 -3 -5 3 -1 11 9 16 20 21 36 11
36 -3 0 -8 -8 -12 -17z"/>
<path d="M3907 1893 c-4 -3 -7 -11 -7 -17 0 -6 5 -5 12 2 6 6 9 14 7 17 -3 3
-9 2 -12 -2z"/>
<path d="M3866 1794 c-4 -9 -4 -19 -1 -22 2 -3 7 3 11 12 4 9 4 19 1 22 -2 3
-7 -3 -11 -12z"/>
<path d="M3833 1723 c4 -3 1 -13 -6 -22 -11 -14 -10 -14 6 -2 20 15 22 31 5
31 -6 0 -8 -3 -5 -7z"/>
<path d="M3656 1691 c-4 -7 -5 -15 -2 -18 9 -9 19 4 14 18 -4 11 -6 11 -12 0z"/>
<path d="M3844 1665 c-17 -13 -17 -14 -2 -15 9 0 20 5 23 11 11 17 0 20 -21 4z"/>
<path d="M2155 890 c-3 -5 -1 -10 4 -10 6 0 11 5 11 10 0 6 -2 10 -4 10 -3 0
-8 -4 -11 -10z"/>
<path d="M1930 845 c0 -9 9 -15 21 -15 18 0 19 2 9 15 -7 8 -16 15 -21 15 -5
0 -9 -7 -9 -15z"/>
<path d="M2911 834 c0 -11 3 -14 6 -6 3 7 2 16 -1 19 -3 4 -6 -2 -5 -13z"/>
<path d="M2450 786 c0 -2 7 -7 16 -10 8 -3 12 -2 9 4 -6 10 -25 14 -25 6z"/>
<path d="M2587 753 c-4 -3 -7 -11 -7 -17 0 -6 5 -5 12 2 6 6 9 14 7 17 -3 3
-9 2 -12 -2z"/>
<path d="M1300 740 c0 -5 5 -10 11 -10 5 0 7 5 4 10 -3 6 -8 10 -11 10 -2 0
-4 -4 -4 -10z"/>
<path d="M2140 705 c0 -8 7 -15 16 -15 14 0 14 3 4 15 -7 8 -14 15 -16 15 -2
0 -4 -7 -4 -15z"/>
<path d="M4231 6957 c-15 -19 -4 -27 34 -27 18 0 49 -11 70 -26 34 -23 41 -24
68 -13 28 12 31 11 56 -19 26 -32 53 -40 80 -23 11 7 6 18 -28 50 -47 45 -49
46 -84 30 -21 -9 -28 -7 -50 15 -22 22 -35 26 -80 26 -33 0 -59 -5 -66 -13z"/>
<path d="M4216 6863 c-48 -3 -78 -10 -97 -23 -15 -11 -34 -20 -42 -20 -8 0
-20 -7 -27 -15 -24 -29 19 -29 73 -1 l52 27 23 -28 23 -28 24 29 c23 28 24 29
47 13 13 -10 33 -24 45 -33 23 -17 43 -12 43 11 0 15 -73 76 -86 73 -5 -1 -40
-4 -78 -5z"/>
<path d="M4783 6070 c-55 -25 -81 -54 -88 -97 -16 -96 -14 -93 -51 -93 -53 0
-149 -53 -180 -99 -30 -46 -44 -144 -25 -179 15 -27 57 -31 46 -4 -23 58 -12
144 24 186 26 29 87 56 129 56 22 0 52 7 68 15 25 13 28 19 25 56 -4 57 14 95
57 115 32 15 39 15 61 3 14 -8 28 -25 31 -39 4 -17 14 -26 30 -28 57 -7 89
-40 56 -59 -7 -4 -20 -22 -29 -39 -21 -41 -67 -60 -112 -47 -41 13 -50 7 -59
-36 -5 -28 -2 -39 16 -59 32 -33 32 -108 0 -151 -16 -22 -21 -38 -16 -56 6
-23 10 -25 71 -25 69 0 75 -4 140 -87 31 -39 31 -7 -1 55 -25 49 -51 69 -105
80 l-32 7 -2 109 -2 110 52 20 c67 27 113 86 113 146 0 22 -4 40 -9 40 -5 0
-13 9 -16 20 -3 11 -13 20 -22 20 -8 0 -33 15 -55 34 -51 44 -68 48 -115 26z"/>
<path d="M3959 5278 c-1 -2 -3 -21 -6 -43 -8 -75 -2 -148 17 -184 25 -49 86
-119 119 -135 45 -23 164 -39 207 -27 45 13 61 2 44 -29 -28 -52 18 -168 94
-237 54 -50 117 -72 231 -79 l80 -6 55 44 c78 63 107 109 122 196 12 71 10 86
-19 174 -4 13 3 21 23 28 35 14 74 55 74 80 0 17 -8 14 -57 -20 l-57 -40 -21
20 c-41 39 -70 15 -36 -31 11 -15 21 -31 21 -35 0 -4 10 -27 21 -52 17 -34 20
-55 16 -98 -7 -64 -49 -147 -91 -177 -42 -30 -173 -50 -237 -36 -84 18 -172
116 -194 216 -5 25 0 44 21 83 28 52 27 68 -3 55 -53 -24 -127 -32 -189 -20
-100 19 -160 71 -194 167 -15 43 -16 64 -9 111 5 32 7 62 4 68 -5 8 -33 13
-36 7z"/>
<path d="M164 1135 c-15 -10 -16 -16 -7 -26 14 -15 43 -5 43 15 0 22 -15 27
-36 11z"/>
<path d="M253 1125 c-3 -9 -2 -19 1 -23 8 -8 38 10 44 26 6 18 -38 14 -45 -3z"/>
<path d="M0 1063 l0 -36 26 24 c23 22 24 24 8 36 -28 20 -34 16 -34 -24z"/>
<path d="M197 1094 c-8 -8 1 -24 14 -24 5 0 9 7 9 15 0 15 -12 20 -23 9z"/>
<path d="M4200 995 c0 -8 5 -15 10 -15 6 0 10 7 10 15 0 8 -4 15 -10 15 -5 0
-10 -7 -10 -15z"/>
<path d="M4420 996 c0 -2 7 -7 16 -10 8 -3 12 -2 9 4 -6 10 -25 14 -25 6z"/>
<path d="M4350 975 c-10 -12 -10 -15 3 -15 19 0 31 16 18 24 -5 3 -14 -1 -21
-9z"/>
<path d="M4196 943 c-6 -14 -5 -15 5 -6 7 7 10 15 7 18 -3 3 -9 -2 -12 -12z"/>
<path d="M4496 894 c-8 -20 -4 -25 11 -16 7 4 9 13 4 21 -6 10 -10 9 -15 -5z"/>
<path d="M4795 830 c-7 -12 11 -40 26 -40 14 0 10 26 -5 39 -10 9 -16 9 -21 1z"/>
<path d="M440 466 c0 -8 5 -18 10 -21 13 -8 13 -272 0 -280 -12 -7 -14 -45 -2
-46 51 -7 88 -6 98 2 7 6 10 32 6 79 -3 44 -1 70 5 70 6 0 43 -34 83 -76 l72
-76 82 -5 c154 -8 248 -9 253 0 3 4 -2 16 -10 25 -12 13 -15 47 -16 147 -1 72
-3 144 -4 160 l-2 30 -65 -4 c-78 -4 -86 -8 -65 -31 13 -15 15 -36 10 -146 -5
-97 -10 -133 -22 -146 -9 -10 -20 -15 -26 -11 -5 3 -29 7 -53 9 -49 3 -67 15
-138 91 -57 62 -57 63 44 128 36 23 76 54 89 68 l24 26 -27 11 c-44 16 -77 13
-83 -10 -5 -19 -123 -110 -143 -110 -15 0 -24 69 -10 85 7 8 10 22 6 30 -8 21
-116 22 -116 1z"/>
<path d="M1075 470 c-4 -6 -2 -17 5 -25 8 -9 11 -63 9 -167 l-2 -153 54 -7
c61 -7 80 2 62 31 -6 10 -15 67 -19 126 -9 138 1 137 77 -11 62 -119 81 -144
115 -144 42 0 49 24 49 167 0 101 4 136 14 142 7 5 11 17 9 27 -2 15 -13 20
-47 22 -54 4 -71 -10 -46 -37 14 -16 19 -43 23 -136 3 -75 1 -115 -5 -115 -6
0 -41 60 -78 133 -37 72 -71 138 -77 145 -13 15 -134 17 -143 2z"/>
<path d="M1554 452 c-18 -9 -44 -32 -60 -51 -52 -62 -43 -209 14 -240 58 -31
138 -50 186 -45 28 3 54 8 58 10 4 3 6 33 5 67 l-2 62 -64 3 c-80 4 -98 -10
-46 -35 55 -26 59 -48 9 -40 -84 14 -118 102 -82 215 17 57 88 67 88 12 0 -40
22 -55 57 -38 24 11 28 19 28 53 l0 40 -80 2 c-60 2 -88 -2 -111 -15z"/>
<path d="M2425 457 c-45 -21 -87 -74 -79 -101 16 -52 68 -95 116 -96 45 0 69
-39 52 -84 -4 -11 -19 -16 -42 -16 -30 0 -43 8 -83 51 -61 66 -84 64 -84 -7 0
-29 -6 -59 -14 -67 -22 -27 -5 -34 76 -30 185 9 204 13 234 46 37 41 40 110 7
152 -20 25 -25 27 -71 21 -55 -6 -77 4 -77 35 0 25 35 59 60 59 13 0 20 -7 20
-20 0 -25 25 -36 45 -20 17 14 20 66 5 75 -22 14 -136 15 -165 2z"/>
<path d="M2652 461 c-11 -6 -8 -16 11 -45 14 -20 40 -71 57 -113 18 -42 42
-93 54 -113 11 -20 26 -45 32 -55 24 -42 81 -23 69 23 -3 13 -2 29 3 35 5 7
15 29 21 49 7 21 16 40 21 43 5 3 27 -28 49 -69 70 -126 91 -126 139 -4 52
132 95 212 120 223 39 17 24 25 -48 25 -40 0 -70 -4 -70 -10 0 -5 9 -10 20
-10 11 0 20 -4 20 -8 0 -17 -87 -204 -95 -203 -9 0 -85 167 -85 187 0 8 3 14
8 15 22 2 45 8 50 14 13 12 -24 26 -58 20 -19 -2 -52 -5 -72 -5 -45 0 -50 -19
-19 -72 19 -33 19 -33 -3 -92 -12 -33 -27 -61 -32 -63 -14 -5 -95 182 -88 202
4 10 1 21 -7 26 -18 11 -80 11 -97 0z"/>
<path d="M3267 420 c-72 -80 -86 -161 -42 -237 62 -105 230 -111 279 -9 24 52
21 158 -6 214 -29 57 -50 70 -124 78 l-60 6 -47 -52z m133 -10 c39 -21 56
-117 36 -205 -2 -11 -5 -23 -5 -26 -1 -4 -12 -14 -27 -23 -31 -21 -78 -9 -113
28 -23 25 -23 34 5 174 10 50 61 75 104 52z"/>
<path d="M3551 461 c-16 -10 -6 -31 15 -31 11 0 14 -25 14 -143 0 -92 -4 -147
-11 -154 -20 -20 1 -33 57 -33 47 0 54 3 54 19 0 11 -4 23 -10 26 -5 3 -10 40
-10 81 0 71 1 74 24 74 18 0 25 -7 29 -27 8 -39 61 -118 91 -138 30 -20 87
-25 93 -8 2 6 -12 26 -33 45 -44 39 -84 100 -84 127 0 10 16 31 35 45 42 33
46 66 10 101 -23 24 -30 25 -142 25 -65 0 -124 -4 -132 -9z m202 -47 c37 -11
2 -64 -42 -64 -41 0 -52 12 -45 49 7 33 15 35 87 15z"/>
<path d="M3917 454 c-4 -4 0 -16 10 -26 13 -15 17 -45 19 -171 l2 -152 53 -6
c57 -6 148 11 186 36 37 24 53 72 53 154 0 91 -20 133 -72 149 -42 13 -241 25
-251 16z m210 -56 c27 -35 41 -156 23 -202 -11 -30 -62 -58 -98 -54 l-26 3 2
130 c1 72 1 131 2 133 1 9 89 0 97 -10z"/>
<path d="M4354 444 c-51 -17 -84 -56 -84 -98 0 -45 27 -66 94 -75 68 -9 98
-33 94 -75 -3 -29 -7 -31 -53 -39 -91 -14 -90 -14 -90 10 0 28 -9 36 -32 29
-23 -7 -57 -62 -50 -80 5 -11 116 -20 225 -18 67 1 122 141 74 185 -12 11 -36
17 -70 17 -63 0 -112 35 -112 80 0 60 59 64 70 5 7 -40 37 -56 56 -31 15 21
18 64 6 82 -12 18 -85 23 -128 8z"/>
<path d="M2072 424 c-27 -19 -28 -50 -2 -89 11 -16 33 -50 50 -75 34 -52 40
-112 15 -160 -18 -36 -3 -40 33 -10 34 29 55 86 47 135 -4 31 -2 45 10 55 21
17 19 36 -6 54 -17 11 -27 12 -46 3 -22 -10 -28 -8 -44 12 -24 29 -24 51 -1
51 26 0 34 11 21 27 -15 18 -49 17 -77 -3z"/>
<path d="M1929 251 c-35 -35 -35 -37 -8 -80 20 -32 22 -33 71 -29 59 6 88 32
88 78 0 38 -29 60 -79 60 -34 0 -49 -6 -72 -29z m107 -16 c31 -48 -10 -84 -52
-45 -26 25 -32 55 -11 63 27 12 47 6 63 -18z"/>
<path d="M4632 137 c-16 -19 8 -50 34 -45 28 5 26 52 -2 56 -11 2 -26 -3 -32
-11z"/>
</g>
</svg>
