<?xml version="1.0" standalone="no"?>
<!DOCTYPE svg PUBLIC "-//W3C//DTD SVG 20010904//EN"
 "http://www.w3.org/TR/2001/REC-SVG-20010904/DTD/svg10.dtd">
<svg version="1.0" xmlns="http://www.w3.org/2000/svg"
 width="500.000000pt" height="878.000000pt" viewBox="0 0 500.000000 878.000000"
 preserveAspectRatio="xMidYMid meet">
<metadata>
Created by potrace 1.15, written by Peter Selinger 2001-2017
</metadata>
<g transform="translate(0.000000,878.000000) scale(0.100000,-0.100000)"
fill="#000000" stroke="none">
<path d="M1651 8493 c-23 -31 -41 -60 -41 -64 0 -17 19 -19 32 -3 7 9 23 27
36 41 22 24 24 24 43 7 15 -13 49 -98 49 -121 0 -9 -29 -1 -40 12 -17 20 -27
19 -40 -6 -8 -15 -8 -24 0 -34 6 -8 7 -16 2 -19 -14 -8 -29 13 -37 54 -10 47
-14 53 -31 39 -19 -15 -18 -79 2 -107 10 -14 25 -22 45 -22 67 0 98 -40 75
-95 -8 -19 -19 -35 -25 -35 -5 0 -18 -14 -28 -30 -23 -40 -47 -46 -79 -21 -37
29 -57 26 -98 -13 -27 -25 -36 -41 -36 -67 0 -19 -7 -56 -15 -83 -8 -26 -12
-53 -9 -58 11 -17 135 -3 174 19 19 11 46 39 59 63 23 40 23 45 9 70 -14 25
-14 29 4 53 l19 26 56 -81 55 -82 -12 -51 c-14 -62 -1 -133 36 -186 20 -30 26
-55 34 -150 6 -63 12 -121 15 -129 4 -16 15 -376 15 -495 0 -38 -4 -142 -8
-230 -5 -88 -8 -242 -7 -341 2 -179 2 -182 -19 -182 -11 0 -29 -2 -40 -4 -21
-3 -26 5 -50 80 -19 59 -65 132 -101 160 -16 13 -25 31 -27 58 -3 37 -1 40 43
62 76 39 94 94 65 192 -7 25 -20 46 -28 48 -22 4 -142 -101 -162 -141 -23 -49
-20 -75 14 -142 16 -32 27 -61 24 -64 -3 -3 -19 2 -35 12 -17 9 -40 17 -52 17
-30 0 -39 7 -81 63 -20 26 -36 59 -36 73 0 13 -10 35 -23 48 -20 20 -29 22
-86 16 -56 -5 -67 -10 -94 -40 -17 -19 -44 -40 -61 -46 -25 -9 -31 -17 -31
-39 0 -43 58 -85 128 -92 50 -5 61 -3 106 26 28 17 53 31 56 31 14 0 1 -28
-30 -66 -19 -23 -35 -50 -35 -59 0 -10 11 -49 25 -86 13 -38 25 -72 24 -77 0
-4 11 -8 23 -10 34 -3 114 77 144 143 21 50 27 55 55 55 64 0 145 -125 133
-206 -7 -49 7 -81 42 -94 18 -7 24 -17 24 -39 0 -20 8 -35 27 -49 19 -14 27
-29 29 -58 4 -46 9 -339 19 -1100 l8 -550 -51 -27 c-128 -67 -146 -92 -27 -38
35 16 66 27 69 23 11 -10 6 -271 -4 -277 -5 -3 -20 1 -32 9 -51 36 -53 3 -3
-37 l36 -28 -3 -97 -3 -97 -63 -5 c-34 -3 -62 -9 -62 -15 1 -10 5 -10 82 0 40
6 47 4 52 -12 4 -11 36 -48 72 -83 82 -78 118 -148 112 -218 -3 -26 -8 -56
-13 -66 -7 -17 -5 -18 17 -13 44 11 179 -63 200 -108 15 -32 2 -45 -17 -18
-21 30 -99 54 -163 50 -62 -4 -106 -32 -110 -70 -5 -40 25 -34 42 8 8 19 21
35 28 36 58 4 118 -6 151 -24 38 -21 38 -22 32 -67 -4 -25 -8 -47 -10 -48 -2
-2 -26 -5 -54 -6 -79 -4 -80 -14 -2 -34 19 -4 37 -14 39 -21 3 -9 -10 -11 -55
-6 -50 6 -66 4 -101 -14 -37 -19 -42 -26 -42 -55 0 -33 20 -62 33 -49 4 3 7
21 7 39 0 38 22 55 72 56 34 1 68 -30 68 -62 0 -25 -66 -47 -199 -65 -103 -15
-117 -15 -152 -1 -22 9 -47 16 -57 16 -15 0 -61 16 -172 60 -248 100 -234 89
-238 188 -6 119 25 202 76 202 9 0 66 -33 126 -72 158 -106 186 -122 198 -110
9 9 -63 68 -134 108 -11 7 -25 17 -31 23 -6 6 -21 11 -34 11 -13 0 -23 6 -23
14 0 8 -6 16 -14 18 -7 2 -46 34 -86 71 -88 84 -97 108 -76 209 7 40 17 90 21
111 5 33 12 41 48 57 28 13 45 16 53 9 7 -5 15 -50 19 -99 8 -107 19 -123 103
-168 33 -18 65 -38 71 -46 7 -8 36 -30 64 -47 29 -18 68 -45 87 -59 38 -29
141 -62 158 -51 6 3 -10 15 -36 25 -69 27 -162 89 -162 107 0 22 37 59 61 59
60 0 145 -72 136 -117 -6 -30 12 -41 30 -18 20 28 16 48 -18 91 -35 46 -89 73
-143 74 -30 0 -45 -7 -73 -35 -19 -19 -38 -35 -41 -35 -4 0 -38 21 -76 45 -38
25 -75 45 -82 45 -24 0 -41 54 -54 170 -13 112 -15 305 -4 345 16 60 81 115
136 115 14 0 31 7 38 15 16 19 7 19 -63 -5 -127 -42 -144 -69 -153 -237 -6
-141 -6 -141 -80 -173 -46 -20 -55 -37 -75 -150 -27 -151 -27 -153 31 -214
l53 -56 -30 -27 c-56 -53 -66 -86 -60 -196 6 -111 12 -123 83 -158 24 -11 44
-24 44 -27 0 -4 -7 -25 -16 -49 -25 -65 -12 -140 30 -183 38 -38 136 -78 291
-118 55 -14 102 -26 104 -28 2 -2 2 -47 1 -101 -7 -257 -3 -471 16 -705 7 -92
27 -117 98 -125 60 -7 89 1 130 38 42 36 45 48 51 224 3 77 7 154 9 170 3 17
8 127 11 245 5 204 7 216 27 231 l21 16 -22 22 c-27 27 -22 60 15 104 35 42
33 94 -7 135 -17 18 -35 32 -40 32 -22 0 -6 22 25 35 38 16 76 58 76 84 0 9
-7 27 -16 39 -19 28 -12 52 16 52 29 0 53 60 45 111 -6 35 -5 39 14 39 27 0
26 10 -5 67 -38 67 -52 130 -64 283 -16 191 -23 226 -74 331 -86 181 -109 343
-71 489 19 72 89 146 129 136 36 -9 32 -32 -8 -46 -58 -19 -69 -39 -68 -131 0
-113 20 -127 140 -106 38 7 42 5 42 -13 0 -36 90 -200 110 -200 17 0 11 20
-31 102 -30 61 -46 110 -65 206 -13 70 -29 139 -35 154 -14 34 -50 58 -89 58
l-30 0 4 98 c3 53 7 165 11 247 4 83 13 166 20 185 7 20 13 52 13 73 0 22 15
68 37 115 20 42 41 99 46 127 5 29 19 60 34 75 26 28 32 59 15 90 -8 15 -5 22
18 38 61 42 92 38 92 -13 0 -43 22 -65 64 -65 19 0 53 -7 76 -15 23 -8 48 -15
54 -15 7 0 18 27 24 60 15 72 5 102 -47 137 -46 31 -84 29 -119 -5 -23 -23
-36 -28 -61 -24 -39 5 -39 22 -1 65 17 19 30 46 30 60 0 14 7 30 16 35 15 8
14 13 -7 41 -23 31 -43 39 -54 21 -13 -21 -25 -8 -25 28 0 42 32 102 55 102
21 0 56 -74 53 -115 -3 -43 7 -54 30 -32 29 30 22 97 -14 149 -18 23 -40 45
-49 46 -23 5 -104 -82 -112 -119 -8 -40 -18 -44 -50 -20 -30 24 -53 14 -53
-23 0 -12 -7 -31 -15 -42 -8 -10 -15 -29 -15 -41 0 -25 55 -93 75 -93 17 0 31
-19 39 -52 5 -24 1 -29 -59 -62 -65 -36 -91 -44 -81 -27 3 5 1 33 -4 62 -16
83 -13 669 5 839 8 80 15 212 15 294 0 81 5 212 11 291 8 99 8 176 1 255 -12
128 -2 181 51 259 65 95 90 223 68 332 -10 47 -21 67 -64 112 -47 50 -57 56
-102 61 -27 2 -81 10 -120 16 -88 15 -128 4 -191 -51 -25 -22 -51 -38 -58 -36
-12 4 -56 65 -56 78 0 5 13 15 30 24 26 14 32 14 63 -1 31 -15 39 -15 89 0 46
13 61 24 101 73 26 32 47 63 47 70 0 20 -36 33 -94 33 -30 0 -57 4 -60 9 -3 4
6 19 20 32 62 58 92 171 40 154 -11 -4 -55 -10 -96 -14 -79 -7 -103 -16 -135
-50 l-19 -22 -13 23 c-7 13 -12 31 -13 40 0 19 -71 98 -88 98 -6 0 -29 -25
-51 -57z m403 -75 c-13 -42 -49 -80 -92 -99 -56 -25 -60 -24 -33 5 21 23 22
46 1 46 -5 0 -22 -12 -39 -26 -57 -48 -73 5 -16 54 29 26 42 31 90 31 32 0 59
2 63 5 3 3 12 6 19 6 10 0 12 -6 7 -22z m-252 -60 c-7 -7 -12 -8 -12 -2 0 14
12 26 19 19 2 -3 -1 -11 -7 -17z m18 -78 c0 -30 -22 -42 -42 -23 -22 20 -23
31 -1 55 16 18 18 18 30 2 7 -10 13 -25 13 -34z m63 -28 c9 -13 -18 -102 -36
-119 -26 -26 -41 -4 -32 47 9 54 52 99 68 72z m231 -20 c3 -5 -10 -24 -29 -42
-41 -39 -118 -65 -135 -45 -8 9 -4 14 15 19 14 4 25 10 25 15 0 12 -21 28 -45
33 -18 5 -18 6 5 15 31 13 157 16 164 5z m-543 -203 c-6 -17 -8 -35 -5 -40 8
-14 34 -10 40 6 8 19 40 19 48 0 8 -22 -10 -62 -36 -79 -13 -8 -41 -16 -63
-18 -37 -2 -40 -1 -38 22 6 67 18 107 37 127 26 27 31 22 17 -18z m520 -156
c-2 -208 -5 -246 -19 -251 -7 -2 -12 2 -11 9 4 20 -11 59 -22 59 -5 0 -9 7 -9
15 0 8 5 15 10 15 6 0 10 -4 10 -10 0 -5 4 -10 9 -10 5 0 8 65 6 147 -3 150
-1 173 17 155 6 -6 10 -60 9 -129z m-51 117 c0 -5 -4 -10 -10 -10 -5 0 -10 5
-10 10 0 6 5 10 10 10 6 0 10 -4 10 -10z m105 -28 c3 -15 5 -86 3 -156 -2 -95
-6 -130 -16 -133 -19 -8 -22 -1 -13 39 5 20 6 40 2 43 -12 13 -7 235 6 235 6
0 14 -13 18 -28z m-109 -19 c-10 -10 -19 5 -10 18 6 11 8 11 12 0 2 -7 1 -15
-2 -18z m311 -33 c-1 -27 -5 -50 -8 -50 -9 0 -17 71 -11 88 10 29 21 8 19 -38z
m-309 -135 c-12 -14 -28 15 -22 40 2 11 6 40 8 65 6 67 9 63 16 -20 3 -41 2
-79 -2 -85z m152 131 c0 -3 -4 -8 -10 -11 -5 -3 -10 -1 -10 4 0 6 5 11 10 11
6 0 10 -2 10 -4z m0 -61 c0 -19 -4 -35 -10 -35 -5 0 -10 16 -10 35 0 19 5 35
10 35 6 0 10 -16 10 -35z m-194 -43 c-13 -12 -17 8 -10 40 l9 33 3 -33 c2 -19
1 -36 -2 -40z m313 21 c1 -27 3 -66 6 -88 2 -22 1 -51 -2 -65 -6 -23 -7 -23
-14 -5 -9 25 -11 189 -2 198 10 11 10 10 12 -40z m-429 -9 c0 -8 -4 -12 -10
-9 -5 3 -10 13 -10 21 0 8 5 12 10 9 6 -3 10 -13 10 -21z m40 -14 c0 -5 -2
-10 -4 -10 -3 0 -8 5 -11 10 -3 6 -1 10 4 10 6 0 11 -4 11 -10z m316 -137 c-3
-8 -10 -12 -15 -8 -11 6 -13 133 -3 149 9 14 25 -121 18 -141z m-279 115 c-3
-8 -6 -5 -6 6 -1 11 2 17 5 13 3 -3 4 -12 1 -19z m40 -10 c-3 -8 -6 -5 -6 6
-1 11 2 17 5 13 3 -3 4 -12 1 -19z m193 12 c0 -5 -2 -10 -4 -10 -3 0 -8 5 -11
10 -3 6 -1 10 4 10 6 0 11 -4 11 -10z m185 -42 c-6 -32 -21 -56 -29 -47 -2 2
-7 19 -11 38 -6 29 -5 33 9 28 9 -4 16 -2 16 3 0 6 5 10 10 10 6 0 8 -13 5
-32z m-455 -4 c0 -14 -4 -23 -10 -19 -5 3 -10 15 -10 26 0 10 5 19 10 19 6 0
10 -12 10 -26z m116 -1 c-10 -10 -19 5 -10 18 6 11 8 11 12 0 2 -7 1 -15 -2
-18z m-76 -3 c0 -5 -5 -10 -11 -10 -5 0 -7 5 -4 10 3 6 8 10 11 10 2 0 4 -4 4
-10z m225 -30 c3 -5 1 -10 -4 -10 -6 0 -11 5 -11 10 0 6 2 10 4 10 3 0 8 -4
11 -10z m46 -83 c-13 -13 -26 -3 -16 12 3 6 11 8 17 5 6 -4 6 -10 -1 -17z
m-49 -19 c8 -45 -7 -201 -19 -205 -11 -4 -13 64 -4 210 1 25 18 21 23 -5z
m-56 -15 c-10 -10 -19 5 -10 18 6 11 8 11 12 0 2 -7 1 -15 -2 -18z m194 9 c0
-16 -32 -52 -46 -52 -20 0 -18 37 4 49 21 12 42 14 42 3z m-190 -36 c0 -8 -4
-18 -10 -21 -5 -3 -10 3 -10 14 0 12 5 21 10 21 6 0 10 -6 10 -14z m0 -65 c0
-17 -4 -33 -10 -36 -6 -4 -10 8 -10 29 0 20 5 36 10 36 6 0 10 -13 10 -29z
m-40 -17 c0 -13 -4 -24 -9 -24 -13 0 -24 37 -16 50 10 16 25 1 25 -26z m167
14 c-3 -8 -6 -5 -6 6 -1 11 2 17 5 13 3 -3 4 -12 1 -19z m-37 -58 c0 -11 -4
-20 -10 -20 -5 0 -10 9 -10 20 0 11 5 20 10 20 6 0 10 -9 10 -20z m-90 -81 c0
-61 -17 -65 -22 -4 -4 51 0 68 13 59 5 -3 9 -27 9 -55z m-40 31 c0 -5 -4 -10
-10 -10 -5 0 -10 5 -10 10 0 6 5 10 10 10 6 0 10 -4 10 -10z m83 -36 c-4 -12
-8 -13 -14 -3 -9 15 -2 32 11 24 5 -3 6 -13 3 -21z m-3 -64 c0 -5 -4 -10 -10
-10 -5 0 -10 5 -10 10 0 6 5 10 10 10 6 0 10 -4 10 -10z m-43 -57 c-3 -10 -5
-2 -5 17 0 19 2 27 5 18 2 -10 2 -26 0 -35z m-30 -45 c-7 -70 -9 -72 -16 -13
-7 54 -5 65 10 65 7 0 9 -20 6 -52z m75 20 c-15 -15 -26 -4 -18 18 5 13 9 15
18 6 9 -9 9 -15 0 -24z m85 -35 c-2 -16 -4 -5 -4 22 0 28 2 40 4 28 2 -13 2
-35 0 -50z m-237 25 c0 -16 -3 -19 -11 -11 -6 6 -8 16 -5 22 11 17 16 13 16
-11z m107 -10 c-3 -8 -6 -5 -6 6 -1 11 2 17 5 13 3 -3 4 -12 1 -19z m-103 -69
c-3 -5 -10 -7 -15 -3 -5 3 -7 10 -3 15 3 5 10 7 15 3 5 -3 7 -10 3 -15z m151
11 c3 -5 1 -10 -4 -10 -6 0 -11 5 -11 10 0 6 2 10 4 10 3 0 8 -4 11 -10z
m-149 -77 c-10 -10 -19 5 -10 18 6 11 8 11 12 0 2 -7 1 -15 -2 -18z m149 -3
c3 -5 1 -10 -4 -10 -6 0 -11 5 -11 10 0 6 2 10 4 10 3 0 8 -4 11 -10z m-145
-42 c0 -7 -5 -20 -10 -28 -8 -12 -10 -9 -10 13 0 15 5 27 10 27 6 0 10 -6 10
-12z m221 -70 c1 -35 1 -65 1 -68 -13 -321 -21 -420 -34 -420 -7 0 -8 37 -4
113 4 61 9 184 11 272 3 182 2 165 15 165 6 0 11 -28 11 -62z m-271 40 c0 -7
-5 -20 -10 -28 -8 -12 -10 -9 -10 13 0 15 5 27 10 27 6 0 10 -6 10 -12z m210
-60 c0 -7 -4 -19 -9 -27 -11 -17 -25 3 -17 24 7 18 26 20 26 3z m-160 -54 c0
-8 -5 -12 -10 -9 -6 4 -8 11 -5 16 9 14 15 11 15 -7z m70 -133 c0 -114 -5
-151 -19 -151 -3 0 -6 61 -6 135 0 101 3 135 13 135 9 0 12 -31 12 -119z
m-134 72 c-10 -10 -19 5 -10 18 6 11 8 11 12 0 2 -7 1 -15 -2 -18z m80 -12 c6
-22 8 -45 4 -52 -12 -18 -32 0 -25 22 4 11 1 26 -5 34 -11 14 -6 35 9 35 4 0
12 -18 17 -39z m130 -19 c-11 -10 -15 4 -8 28 l7 25 3 -23 c2 -13 1 -26 -2
-30z m-36 -12 c0 -5 -4 -10 -10 -10 -5 0 -10 5 -10 10 0 6 5 10 10 10 6 0 10
-4 10 -10z m-4 -47 c-10 -10 -19 5 -10 18 6 11 8 11 12 0 2 -7 1 -15 -2 -18z
m-403 -42 c12 -59 2 -88 -34 -106 -87 -46 -109 31 -32 116 20 22 41 38 47 36
6 -2 14 -23 19 -46z m407 4 c0 -8 -4 -15 -10 -15 -5 0 -10 7 -10 15 0 8 5 15
10 15 6 0 10 -7 10 -15z m47 -23 c-10 -10 -17 -23 -17 -29 0 -6 -11 -10 -25
-10 -32 0 -32 10 3 36 36 27 62 29 39 3z m-820 -47 c3 -9 -2 -24 -11 -34 -12
-13 -14 -21 -7 -26 20 -12 11 -34 -19 -50 -44 -23 -109 -19 -137 7 -30 28 -29
37 7 50 17 5 37 23 46 39 13 26 19 29 65 29 35 0 51 -4 56 -15z m673 5 c0 -5
-2 -10 -4 -10 -3 0 -8 5 -11 10 -3 6 -1 10 4 10 6 0 11 -4 11 -10z m140 -30
c0 -5 -4 -10 -10 -10 -5 0 -10 5 -10 10 0 6 5 10 10 10 6 0 10 -4 10 -10z
m-40 -20 c0 -11 -4 -20 -10 -20 -5 0 -10 9 -10 20 0 11 5 20 10 20 6 0 10 -9
10 -20z m-140 -4 c0 -3 -4 -8 -10 -11 -5 -3 -10 -1 -10 4 0 6 5 11 10 11 6 0
10 -2 10 -4z m93 -2 c8 -8 -3 -34 -14 -34 -5 0 -9 9 -9 20 0 19 11 26 23 14z
m87 -30 c0 -8 -4 -14 -10 -14 -5 0 -10 9 -10 21 0 11 5 17 10 14 6 -3 10 -13
10 -21z m-53 -26 c-3 -8 -6 -5 -6 6 -1 11 2 17 5 13 3 -3 4 -12 1 -19z m-34
-4 c8 -8 -3 -34 -14 -34 -5 0 -9 9 -9 20 0 19 11 26 23 14z m-53 -29 c0 -8 -4
-15 -10 -15 -5 0 -10 7 -10 15 0 8 5 15 10 15 6 0 10 -7 10 -15z m90 -15 c0
-5 -4 -10 -10 -10 -5 0 -10 5 -10 10 0 6 5 10 10 10 6 0 10 -4 10 -10z m-40
-14 c0 -8 -4 -17 -9 -21 -12 -7 -24 12 -16 25 9 15 25 12 25 -4z m-595 -43
c15 7 25 -13 25 -51 0 -25 -62 -102 -82 -102 -4 0 -8 16 -8 35 0 19 -8 50 -17
69 -13 29 -14 40 -5 61 l12 26 30 -21 c17 -12 37 -19 45 -17z m555 28 c0 -6
-4 -13 -10 -16 -5 -3 -10 1 -10 9 0 9 5 16 10 16 6 0 10 -4 10 -9z m80 -11 c0
-5 -5 -10 -11 -10 -5 0 -7 5 -4 10 3 6 8 10 11 10 2 0 4 -4 4 -10z m-130 -10
c0 -5 -4 -10 -10 -10 -5 0 -10 5 -10 10 0 6 5 10 10 10 6 0 10 -4 10 -10z
m217 -22 c-3 -7 -5 -2 -5 12 0 14 2 19 5 13 2 -7 2 -19 0 -25z m-127 12 c0 -5
-4 -10 -10 -10 -5 0 -10 5 -10 10 0 6 5 10 10 10 6 0 10 -4 10 -10z m-40 -9
c0 -6 -4 -13 -10 -16 -5 -3 -10 1 -10 9 0 9 5 16 10 16 6 0 10 -4 10 -9z m170
-112 c0 -76 -2 -90 -15 -86 -8 4 -17 3 -19 -2 -11 -18 -15 -531 -4 -563 17
-51 31 -59 21 -13 -4 22 -7 110 -6 195 2 244 5 300 14 306 5 3 9 -94 9 -223 0
-125 3 -244 6 -264 5 -31 2 -40 -22 -62 -22 -21 -25 -28 -15 -41 10 -12 9 -15
-7 -20 -11 -4 -27 -15 -37 -26 -10 -11 -21 -20 -25 -20 -3 0 -6 26 -5 58 1 48
-9 119 -15 102 -1 -3 -3 -43 -4 -90 -2 -47 -4 -104 -5 -127 -2 -70 -19 -49
-20 25 0 37 -3 131 -7 210 -5 105 -4 142 4 142 7 0 13 -10 13 -22 5 -65 8 -90
13 -95 6 -6 11 61 6 82 -5 25 0 506 6 553 8 68 24 67 24 -2 0 -55 14 -82 26
-51 6 13 8 14 15 3 13 -20 29 9 29 54 0 35 8 68 16 68 2 0 4 -41 4 -91z m-170
9 c0 -20 -4 -40 -10 -43 -6 -4 -10 16 -10 52 0 41 3 54 10 43 5 -8 10 -32 10
-52z m34 -115 c-4 -87 -7 -166 -6 -175 0 -10 -4 -21 -10 -24 -7 -5 -9 42 -5
152 4 88 6 169 7 182 0 12 5 22 11 22 7 0 8 -49 3 -157z m-84 86 c0 -11 -4
-18 -10 -14 -5 3 -7 12 -3 20 7 21 13 19 13 -6z m44 -67 c-4 -12 -10 -22 -15
-22 -11 0 -12 44 -2 53 12 12 23 -8 17 -31z m-144 -37 c21 -11 30 -23 30 -40
0 -14 -4 -25 -10 -25 -5 0 -10 7 -10 16 0 8 -5 12 -11 8 -6 -4 -8 -20 -4 -40
3 -21 2 -34 -5 -34 -5 0 -10 3 -11 8 0 4 -1 25 -3 47 -1 22 -6 48 -10 58 -10
21 -3 21 34 2z m140 -64 c0 -50 -16 -62 -22 -17 -4 39 0 56 13 56 5 0 9 -18 9
-39z m-40 -31 c0 -27 -4 -50 -10 -50 -5 0 -10 23 -10 50 0 28 5 50 10 50 6 0
10 -22 10 -50z m37 -65 c2 -14 -1 -25 -7 -25 -5 0 -10 14 -10 32 0 35 12 30
17 -7z m-32 -14 c3 -5 1 -12 -5 -16 -5 -3 -10 1 -10 9 0 18 6 21 15 7z m75
-41 c0 -5 -4 -10 -10 -10 -5 0 -10 5 -10 10 0 6 5 10 10 10 6 0 10 -4 10 -10z
m-75 -39 c3 -5 1 -12 -5 -16 -5 -3 -10 1 -10 9 0 18 6 21 15 7z m418 -72 c12
-25 13 -36 4 -51 -16 -25 -32 -23 -56 8 -24 30 -26 46 -11 75 14 26 41 11 63
-32z m-386 9 c-3 -8 -6 -5 -6 6 -1 11 2 17 5 13 3 -3 4 -12 1 -19z m-77 -34
c0 -8 -5 -12 -10 -9 -6 4 -8 11 -5 16 9 14 15 11 15 -7z m45 -4 c3 -5 1 -10
-4 -10 -6 0 -11 5 -11 10 0 6 2 10 4 10 3 0 8 -4 11 -10z m5 -44 c0 -3 -4 -8
-10 -11 -5 -3 -10 -1 -10 4 0 6 5 11 10 11 6 0 10 -2 10 -4z m-50 -22 c0 -8
-4 -12 -10 -9 -5 3 -10 10 -10 16 0 5 5 9 10 9 6 0 10 -7 10 -16z m81 -51 c2
-48 2 -83 0 -136 -1 -16 -5 -26 -10 -23 -13 8 -14 206 -1 206 5 0 11 -21 11
-47z m-44 -25 c-3 -8 -6 -5 -6 6 -1 11 2 17 5 13 3 -3 4 -12 1 -19z m674 -7
c26 -27 40 -77 24 -93 -3 -2 -31 1 -62 7 -70 14 -82 40 -18 40 33 0 40 3 40
20 0 11 -10 24 -22 30 -27 11 -30 25 -7 25 8 0 29 -13 45 -29z m-706 9 c-3 -5
-10 -10 -16 -10 -5 0 -9 5 -9 10 0 6 7 10 16 10 8 0 12 -4 9 -10z m-5 -135 c0
-8 -4 -15 -10 -15 -5 0 -10 7 -10 15 0 8 5 15 10 15 6 0 10 -7 10 -15z m41
-17 c-4 -32 -5 -32 -11 -8 -7 26 -4 40 9 40 4 0 5 -15 2 -32z m315 -10 c-4
-13 -9 -39 -13 -58 -3 -19 -17 -50 -31 -69 -21 -28 -23 -37 -13 -53 10 -17 9
-20 -9 -25 -18 -5 -20 -11 -15 -47 5 -31 3 -45 -8 -55 -21 -16 -30 0 -33 59
-2 25 -5 66 -8 93 -3 34 -1 47 8 47 8 0 13 -14 14 -37 2 -50 22 -69 22 -21 0
20 5 40 10 43 6 3 10 15 10 26 0 12 7 19 19 19 14 0 17 6 14 23 -2 12 0 34 6
50 13 33 36 37 27 5z m-270 -84 c4 -131 3 -278 0 -369 -2 -44 -4 -100 -4 -124
-1 -24 -5 -41 -9 -38 -3 4 -8 147 -9 318 -3 235 0 309 8 307 8 -3 13 -36 14
-94z m-78 -7 c2 -26 -1 -47 -6 -47 -14 0 -22 26 -22 67 0 53 24 36 28 -20z
m37 6 c-1 -27 -3 -75 -3 -107 -1 -33 -5 -56 -9 -52 -17 16 -11 206 6 206 4 0
6 -21 6 -47z m155 17 c0 -5 -5 -10 -11 -10 -5 0 -7 5 -4 10 3 6 8 10 11 10 2
0 4 -4 4 -10z m-70 -125 c0 -19 0 -38 1 -42 0 -4 -4 -9 -9 -11 -6 -2 -10 17
-10 42 1 26 5 46 10 46 4 0 8 -16 8 -35z m32 13 c-7 -7 -12 -8 -12 -2 0 14 12
26 19 19 2 -3 -1 -11 -7 -17z m48 18 c0 -3 -4 -8 -10 -11 -5 -3 -10 -1 -10 4
0 6 5 11 10 11 6 0 10 -2 10 -4z m0 -52 c0 -14 -12 -19 -23 -8 -9 9 4 35 14
28 5 -3 9 -12 9 -20z m-40 -4 c0 -11 -4 -20 -10 -20 -5 0 -10 9 -10 20 0 11 5
20 10 20 6 0 10 -9 10 -20z m-40 -97 c0 -41 -3 -54 -10 -43 -13 20 -13 100 0
100 6 0 10 -26 10 -57z m40 32 c0 -8 -4 -15 -10 -15 -5 0 -10 7 -10 15 0 8 5
15 10 15 6 0 10 -7 10 -15z m-129 -48 c-1 -12 -15 -9 -19 4 -3 6 1 10 8 8 6
-3 11 -8 11 -12z m219 -21 c0 -3 -4 -8 -10 -11 -5 -3 -10 -1 -10 4 0 6 5 11
10 11 6 0 10 -2 10 -4z m-210 -52 c0 -31 -2 -35 -15 -24 -16 13 -20 42 -8 53
15 15 23 5 23 -29z m115 -4 c3 -5 1 -10 -4 -10 -6 0 -11 5 -11 10 0 6 2 10 4
10 3 0 8 -4 11 -10z m85 -16 c0 -7 -4 -16 -10 -19 -5 -3 -10 -1 -10 4 0 6 -7
11 -15 11 -8 0 -15 4 -15 9 0 5 11 9 25 9 14 0 25 -6 25 -14z m-204 -61 c-3
-21 -6 -45 -7 -53 -1 -8 -5 5 -9 30 -8 47 -5 60 11 60 7 0 8 -15 5 -37z m124
27 c0 -5 -4 -10 -10 -10 -5 0 -10 5 -10 10 0 6 5 10 10 10 6 0 10 -4 10 -10z
m-4 -57 c-10 -10 -19 5 -10 18 6 11 8 11 12 0 2 -7 1 -15 -2 -18z m-37 -207
c-15 -17 -18 -3 -20 100 -3 143 14 157 22 19 4 -60 3 -114 -2 -119z m108 167
c-3 -10 -5 -2 -5 17 0 19 2 27 5 18 2 -10 2 -26 0 -35z m-64 -76 c1 -14 -2
-27 -8 -29 -5 -2 -11 15 -12 36 -3 44 16 38 20 -7z m37 -11 c0 -3 -4 -8 -10
-11 -5 -3 -10 -1 -10 4 0 6 5 11 10 11 6 0 10 -2 10 -4z m-119 -189 c2 -72 3
-164 4 -204 0 -39 3 -74 6 -77 3 -3 2 -32 -3 -63 -5 -32 -8 -111 -8 -175 0
-73 -4 -118 -10 -118 -5 0 -10 15 -11 33 -4 122 -5 733 -2 740 14 25 21 -19
24 -136z m-54 71 c-3 -8 -6 -5 -6 6 -1 11 2 17 5 13 3 -3 4 -12 1 -19z m93
-123 c0 -30 -4 -55 -8 -55 -5 0 -8 24 -6 53 3 59 2 57 9 57 3 0 5 -25 5 -55z
m103 -17 c-5 -54 -10 -68 -38 -98 -18 -19 -44 -55 -57 -80 -23 -44 -23 -44
-26 -16 -2 18 4 36 17 50 12 12 21 28 21 35 0 13 40 74 53 79 11 5 8 40 -4 47
-10 7 16 45 32 45 4 0 5 -28 2 -62z m-103 -93 c0 -19 -4 -35 -9 -35 -5 0 -9
16 -9 35 0 19 4 35 9 35 5 0 9 -16 9 -35z m223 -44 c21 -8 26 -19 35 -82 12
-83 1 -109 -47 -109 -51 0 -73 37 -72 119 1 74 25 94 84 72z m-310 -27 c8 -8
-3 -34 -14 -34 -5 0 -9 9 -9 20 0 19 11 26 23 14z m79 -96 c-9 -9 -12 -7 -12
12 0 19 3 21 12 12 9 -9 9 -15 0 -24z m1 -213 c3 -16 12 -56 22 -88 18 -62 17
-71 -7 -62 -18 7 -28 56 -28 134 0 58 5 65 13 16z m-113 -95 c0 -5 -5 -10 -11
-10 -5 0 -7 5 -4 10 3 6 8 10 11 10 2 0 4 -4 4 -10z m40 0 c0 -5 -4 -10 -10
-10 -5 0 -10 5 -10 10 0 6 5 10 10 10 6 0 10 -4 10 -10z m168 -145 c-2 -14 -7
-26 -13 -26 -5 0 -11 12 -13 26 -2 18 1 25 13 25 12 0 15 -7 13 -25z m-48 5
c0 -5 -4 -10 -10 -10 -5 0 -10 5 -10 10 0 6 5 10 10 10 6 0 10 -4 10 -10z
m-80 -90 c0 -5 -4 -10 -10 -10 -5 0 -10 5 -10 10 0 6 5 10 10 10 6 0 10 -4 10
-10z m43 -16 c6 -31 -2 -64 -14 -64 -5 0 -9 20 -9 45 0 49 15 61 23 19z m37 5
c0 -11 -4 -17 -10 -14 -5 3 -10 13 -10 21 0 8 5 14 10 14 6 0 10 -9 10 -21z
m-160 -69 c0 -5 -5 -10 -11 -10 -5 0 -7 5 -4 10 3 6 8 10 11 10 2 0 4 -4 4
-10z m125 -51 c7 -43 0 -63 -15 -39 -12 19 -13 80 -1 80 5 0 12 -18 16 -41z
m53 -109 c0 -50 -4 -90 -9 -90 -5 0 -9 19 -9 43 -1 23 -3 71 -6 107 -4 57 -3
63 9 47 10 -12 15 -46 15 -107z m94 53 c6 -47 -1 -71 -13 -51 -12 17 -11 88 0
88 5 0 11 -17 13 -37z m-65 -125 c-3 -8 -6 -5 -6 6 -1 11 2 17 5 13 3 -3 4
-12 1 -19z m82 -114 c14 -59 10 -74 -13 -55 -14 12 -19 111 -6 111 4 0 12 -25
19 -56z m-566 -483 c27 -11 56 -21 65 -21 9 0 30 -7 46 -15 31 -16 84 -18 160
-6 27 5 86 4 130 0 69 -8 84 -13 104 -35 16 -18 22 -36 20 -57 -4 -40 -28 -49
-28 -10 0 52 -24 73 -84 73 -65 0 -116 -30 -129 -77 -13 -42 -3 -70 18 -53 8
7 15 22 15 33 0 33 39 67 76 67 49 0 64 -9 64 -39 0 -15 5 -32 11 -38 15 -15
-8 -26 -96 -48 -38 -10 -76 -22 -82 -27 -7 -6 -23 -8 -36 -4 -13 3 -38 2 -55
-3 -18 -6 -46 -5 -69 1 -21 5 -54 13 -73 17 -90 21 -206 72 -232 101 -25 27
-28 38 -28 105 0 63 3 76 21 88 22 16 41 10 182 -52z m357 -293 c0 -19 2 -20
10 -8 9 13 11 13 19 0 5 -8 6 -21 2 -28 -5 -8 -6 -23 -4 -33 3 -11 0 -19 -6
-19 -6 0 -11 8 -11 19 0 10 -8 21 -18 23 -23 7 -29 68 -6 68 8 0 14 -10 14
-22z m0 -72 c0 -3 -4 -8 -10 -11 -5 -3 -10 -1 -10 4 0 6 5 11 10 11 6 0 10 -2
10 -4z m35 -56 c0 -7 -6 -15 -12 -17 -8 -3 -13 4 -13 17 0 13 5 20 13 18 6 -3
12 -11 12 -18z m52 4 c-3 -3 -12 -4 -19 -1 -8 3 -5 6 6 6 11 1 17 -2 13 -5z
m-97 -66 c-3 -89 -2 -92 15 -78 19 15 30 7 21 -16 -3 -9 -12 -14 -21 -10 -9 3
-15 0 -15 -9 0 -8 7 -15 15 -15 21 0 19 -18 -4 -32 -15 -9 -17 -17 -11 -34 9
-23 3 -61 -13 -81 -20 -26 -28 -12 -21 35 4 26 7 93 8 149 1 86 -1 102 -14
100 -8 -1 -16 3 -17 8 -2 6 5 10 14 10 9 0 18 6 21 13 10 31 23 7 22 -40z m43
19 c8 -22 2 -60 -10 -65 -9 -2 -13 9 -13 37 0 39 13 55 23 28z m-132 -20 c-13
-13 -26 -3 -16 12 3 6 11 8 17 5 6 -4 6 -10 -1 -17z m194 -57 c0 -33 -4 -45
-15 -45 -11 0 -16 13 -18 48 -3 42 -1 48 15 45 14 -3 18 -13 18 -48z m-145 -6
c0 -8 -7 -14 -15 -14 -17 0 -18 2 -9 24 7 18 24 12 24 -10z m-50 -14 c0 -5 -5
-10 -11 -10 -5 0 -7 5 -4 10 3 6 8 10 11 10 2 0 4 -4 4 -10z m195 -144 c-6
-31 -11 -36 -36 -36 -29 0 -29 0 -29 -64 0 -74 -9 -126 -21 -126 -5 0 -8 50
-7 110 3 104 8 125 23 99 10 -15 55 30 55 55 0 14 3 17 11 9 6 -6 8 -25 4 -47z
m-155 -6 c0 -5 -4 -10 -10 -10 -5 0 -10 5 -10 10 0 6 5 10 10 10 6 0 10 -4 10
-10z m144 -89 c3 -5 0 -11 -8 -14 -15 -6 -26 1 -26 15 0 11 27 10 34 -1z m-14
-205 c0 -14 -5 -28 -10 -31 -13 -8 -24 20 -16 40 9 24 26 17 26 -9z m-40 -14
c0 -10 -7 -27 -15 -38 -13 -18 -14 -17 -15 19 0 26 4 37 15 37 8 0 15 -8 15
-18z m-90 -32 c0 -21 -15 -27 -25 -10 -7 12 2 30 16 30 5 0 9 -9 9 -20z m33
-114 c23 -18 21 -28 -5 -24 -13 2 -24 11 -26 21 -4 20 6 21 31 3z"/>
<path d="M2135 6131 c-21 -96 -6 -591 18 -591 6 0 7 31 2 83 -8 86 -7 441 0
502 6 42 -11 47 -20 6z"/>
<path d="M1833 2734 c3 -19 2 -46 -3 -59 -11 -28 4 -43 24 -25 34 27 24 120
-12 120 -11 0 -13 -8 -9 -36z"/>
<path d="M1402 7438 c-7 -7 -12 -20 -12 -30 0 -10 -7 -18 -15 -18 -19 0 -59
-130 -50 -162 11 -35 54 -88 80 -98 40 -15 90 4 139 55 25 26 46 56 46 66 0
49 -55 109 -99 109 -23 0 -61 44 -61 71 0 22 -11 24 -28 7z m68 -118 c10 0 26
-3 35 -6 19 -8 58 -81 50 -94 -9 -15 -36 -12 -57 7 -17 15 -20 15 -34 2 -15
-15 -10 -49 7 -49 5 0 9 -4 9 -10 0 -5 -10 -10 -23 -10 -50 0 -95 89 -83 163
10 59 16 63 48 28 16 -17 37 -31 48 -31z"/>
<path d="M2794 7073 c-62 -85 -54 -187 19 -265 33 -36 55 -35 112 3 52 35 72
61 81 106 11 54 -43 123 -95 123 -31 0 -70 21 -76 42 -9 25 -18 23 -41 -9z
m66 -58 c73 -25 89 -36 100 -71 9 -26 8 -39 -5 -63 -20 -40 -28 -39 -48 4 -11
22 -24 35 -36 35 -30 0 -35 -19 -12 -44 22 -23 29 -66 11 -66 -13 0 -55 66
-70 111 -13 35 -7 109 8 109 4 0 27 -7 52 -15z"/>
<path d="M2464 6718 c-10 -19 -17 -58 -18 -91 -1 -56 1 -60 41 -98 46 -43 91
-51 127 -24 11 8 28 15 37 15 27 0 69 57 69 94 0 55 -68 106 -142 106 -24 0
-52 7 -62 15 -28 21 -33 19 -52 -17z m173 -54 c31 -20 45 -49 37 -79 -7 -30
-22 -31 -72 -6 -20 10 -43 16 -49 14 -20 -7 -15 -30 8 -46 14 -10 17 -17 9
-22 -7 -4 -26 7 -46 26 -29 28 -34 40 -34 80 l0 46 63 1 c39 1 70 -4 84 -14z"/>
<path d="M2713 6398 c-12 -6 -29 -28 -38 -50 -20 -52 -7 -102 38 -146 36 -35
85 -44 124 -24 12 7 30 12 40 12 11 0 32 14 49 31 23 24 29 39 29 76 0 63 -28
85 -105 81 -40 -2 -64 2 -83 15 -14 9 -28 17 -29 16 -2 0 -13 -5 -25 -11z m49
-54 c27 -14 37 -14 70 -3 47 15 67 6 81 -35 10 -31 -8 -86 -29 -86 -7 0 -26
16 -41 35 -15 19 -34 35 -40 35 -18 0 -27 -48 -13 -65 21 -25 3 -29 -29 -6
-33 24 -56 80 -47 117 8 28 8 29 48 8z"/>
<path d="M3368 6085 c-37 -12 -86 -35 -109 -51 -23 -16 -63 -43 -89 -60 -91
-61 -161 -162 -192 -277 -33 -121 -13 -414 32 -472 4 -5 11 -21 15 -35 14 -44
114 -168 160 -197 50 -31 52 -38 29 -72 -29 -40 2 -158 52 -202 22 -20 79 -49
94 -49 23 0 8 26 -27 45 -42 23 -75 71 -56 83 7 4 10 27 8 57 -3 38 -7 50 -19
49 -20 -2 -20 10 -1 26 12 10 25 10 59 1 25 -6 55 -11 68 -11 15 0 41 -17 68
-45 40 -41 109 -82 163 -99 33 -10 12 -31 -28 -29 -99 6 -239 -109 -308 -254
l-42 -88 0 -120 c0 -115 1 -123 32 -185 36 -72 105 -148 171 -187 23 -14 42
-28 42 -32 0 -3 -16 -15 -36 -26 -86 -46 -131 -137 -122 -248 6 -72 31 -127
83 -180 20 -20 33 -42 30 -47 -3 -6 -23 -10 -43 -11 l-37 -1 35 -9 c37 -9 113
-2 142 12 9 5 26 5 37 1 19 -7 15 -13 -41 -57 -84 -67 -152 -185 -168 -293
-21 -133 26 -267 118 -340 63 -50 145 -84 202 -84 28 1 50 -1 50 -3 0 -3 -14
-12 -30 -20 -71 -37 -92 -134 -42 -185 71 -70 217 -37 179 41 -15 30 -64 42
-52 12 14 -34 10 -48 -13 -51 -27 -4 -67 19 -82 47 -26 50 29 129 71 102 23
-13 43 -5 35 14 -8 21 20 38 49 31 40 -10 115 -85 141 -141 31 -66 32 -105 2
-53 -22 38 -49 55 -69 43 -7 -5 -4 -14 9 -29 11 -11 25 -40 32 -64 6 -24 19
-46 28 -49 27 -10 31 -24 17 -63 -25 -70 -47 -105 -104 -163 -42 -43 -69 -61
-105 -72 -59 -18 -71 -13 -24 10 84 41 216 175 205 208 -7 22 -27 17 -37 -9
-27 -71 -147 -172 -231 -194 -20 -6 -40 -17 -43 -25 -3 -8 -11 -15 -18 -15 -8
0 -22 -9 -32 -21 -15 -18 -24 -20 -64 -14 -48 7 -181 49 -216 67 -43 23 -110
96 -136 148 -44 88 -45 96 -15 132 26 31 26 31 7 51 -22 22 -42 16 -42 -13 0
-11 -9 -24 -20 -30 -17 -9 -29 -6 -62 12 -53 30 -78 77 -78 147 0 49 3 57 40
93 53 54 76 49 99 -20 24 -71 61 -108 148 -148 80 -38 107 -41 180 -19 63 19
123 80 123 125 0 42 -15 37 -45 -14 -18 -31 -40 -51 -71 -67 -42 -20 -50 -21
-105 -9 -108 23 -189 94 -189 166 0 17 7 37 15 44 30 24 4 32 -84 26 -47 -4
-131 -7 -185 -8 -85 -1 -101 2 -112 17 -13 17 -17 16 -85 -15 -70 -32 -77 -33
-257 -41 -179 -9 -203 -12 -189 -25 13 -13 332 -5 382 10 53 16 312 33 340 23
14 -6 13 -12 -12 -49 -16 -24 -33 -52 -39 -62 -6 -11 -31 -24 -59 -32 -116
-29 -162 -53 -217 -113 -54 -59 -83 -118 -113 -234 -26 -99 -21 -158 30 -337
30 -107 203 -249 341 -280 72 -16 147 -14 184 5 32 17 34 16 49 -2 37 -46 79
-64 149 -66 54 -1 77 4 118 26 91 47 149 110 163 179 5 23 18 36 61 59 100 54
152 139 131 214 -5 21 -8 41 -6 45 3 4 29 19 58 33 114 54 214 177 232 284 4
24 10 45 15 48 4 3 30 -5 56 -17 38 -17 71 -22 149 -24 l100 -1 3 -35 c4 -46
-15 -95 -30 -80 -18 18 -23 15 -52 -28 -31 -47 -31 -50 -8 -50 13 -1 10 -6
-13 -26 -52 -45 -113 -66 -201 -72 -71 -4 -87 -2 -116 16 -34 21 -68 16 -53
-8 27 -44 169 -53 277 -18 130 42 235 158 248 272 3 30 11 52 20 56 115 51
239 123 295 169 82 67 122 138 162 285 27 103 34 269 13 346 -18 69 -100 230
-139 273 -36 40 -110 83 -152 89 -13 2 -29 7 -36 11 -18 11 -5 36 17 30 25 -7
90 54 117 109 12 24 30 77 39 119 15 69 15 81 0 151 -8 42 -25 97 -37 123 -33
71 -138 152 -206 159 -26 3 -26 3 -27 102 -1 126 -21 169 -126 275 -82 83
-136 109 -224 109 -25 0 -46 4 -46 10 0 13 -79 58 -143 80 -30 11 -96 24 -148
31 -55 7 -104 19 -119 29 -14 9 -43 23 -65 30 -22 7 -62 24 -88 37 -40 20 -48
28 -44 45 4 12 -3 32 -16 50 -18 25 -22 43 -22 108 0 43 -3 81 -6 85 -8 7 -29
-50 -29 -77 0 -11 -4 -16 -10 -13 -5 3 -10 28 -10 54 0 40 3 50 20 54 17 4 20
14 20 59 0 40 6 62 25 90 29 43 30 48 10 48 -8 0 -15 4 -15 9 0 15 81 106 98
110 8 1 29 12 46 22 17 10 43 19 58 19 15 0 29 4 32 9 3 5 32 11 63 14 32 4
81 9 110 13 46 6 59 3 125 -30 101 -50 143 -87 179 -158 57 -114 49 -235 -21
-303 -29 -29 -48 -38 -83 -42 -25 -3 -56 -3 -69 0 -27 7 -61 58 -52 80 7 18
-9 29 -30 21 -34 -13 -27 -73 14 -114 30 -30 121 -28 205 7 61 25 67 26 120
13 57 -14 73 -24 55 -35 -17 -10 -11 -23 13 -31 46 -14 109 -56 98 -67 -6 -6
0 -22 19 -46 52 -66 70 -173 44 -258 -9 -32 15 -30 44 5 l23 27 -6 -40 c-8
-50 -29 -90 -56 -109 -28 -19 -16 -40 14 -25 12 6 32 21 44 32 20 17 25 18 39
6 10 -8 25 -27 35 -43 17 -27 17 -31 2 -41 -15 -11 -15 -15 1 -50 14 -29 17
-52 13 -96 -5 -43 -3 -60 8 -69 10 -9 11 -18 4 -37 -6 -17 -6 -30 0 -36 30
-30 76 96 69 189 -5 74 -49 164 -101 209 l-38 33 12 47 c33 132 -65 348 -187
410 -22 11 -45 25 -52 32 -7 7 -40 17 -73 24 -48 9 -60 15 -55 28 2 9 12 35
20 58 32 86 -3 226 -77 310 -49 56 -167 124 -232 135 -18 3 -20 11 -21 73 -2
88 -24 146 -72 181 -55 40 -85 74 -115 126 -15 25 -39 56 -54 68 -84 66 -209
84 -325 45z m126 -23 c33 -28 94 -46 111 -32 24 20 100 -48 119 -107 6 -20 2
-22 -41 -29 -70 -10 -209 -81 -265 -135 -57 -55 -99 -141 -102 -209 -1 -58 5
-66 36 -46 16 11 31 39 47 88 13 40 32 87 42 104 10 17 19 40 19 52 0 14 17
29 63 52 34 18 73 39 87 46 34 20 134 14 185 -11 54 -27 89 -90 90 -163 0 -61
-12 -75 -78 -93 -54 -14 -118 7 -131 44 -14 38 12 65 42 46 17 -11 24 -11 34
-1 20 20 -4 47 -44 50 -75 6 -116 -81 -63 -134 14 -14 25 -27 25 -29 0 -2 -34
-20 -75 -40 -111 -55 -174 -136 -206 -265 -17 -70 -17 -194 0 -243 7 -21 11
-41 7 -44 -3 -3 -21 -2 -39 1 -25 5 -52 24 -93 66 -60 62 -84 104 -84 150 0
34 -26 61 -36 36 -3 -9 -4 -29 -2 -46 2 -16 1 -27 -3 -24 -15 9 -40 101 -45
164 -8 93 -11 100 -34 70 l-20 -25 0 80 c0 59 6 92 20 124 11 24 18 46 15 49
-8 9 -38 -22 -52 -55 -7 -18 -16 -33 -19 -33 -6 0 -2 27 18 113 5 26 25 70 44
96 35 53 35 70 -3 46 -27 -18 -28 -14 -8 24 16 32 87 86 165 127 27 14 50 30
50 35 0 12 -5 11 -47 -6 -19 -8 -38 -15 -41 -15 -14 0 33 39 56 48 107 38 136
44 177 39 49 -7 67 6 34 24 -17 9 -19 13 -8 20 20 13 30 11 53 -9z m-435 -797
l0 -30 -15 28 c-17 31 -11 74 6 47 6 -8 10 -28 9 -45z m120 -192 c13 -28 13
-28 -8 -9 -22 20 -27 36 -13 36 5 0 14 -12 21 -27z m661 -344 c105 -15 196
-56 263 -121 55 -54 72 -60 64 -22 -4 25 -3 26 29 21 78 -13 190 -98 225 -171
7 -15 3 -13 -13 7 -41 48 -74 28 -37 -23 22 -29 49 -40 49 -20 0 6 5 10 10 10
12 0 24 -30 34 -83 7 -37 6 -37 -18 -31 -25 6 -26 4 -26 -33 0 -88 -59 -229
-104 -246 -17 -7 -48 -66 -40 -78 10 -17 49 -8 95 21 31 19 62 52 90 95 42 64
45 66 78 61 30 -5 71 -28 121 -69 20 -16 53 -67 47 -73 -2 -3 -10 2 -17 11 -7
8 -19 15 -26 15 -17 0 -19 -26 -3 -36 6 -3 17 -22 25 -40 9 -23 21 -34 34 -34
11 0 20 -6 20 -12 0 -7 3 -29 6 -49 5 -30 3 -37 -14 -41 -14 -4 -21 -18 -26
-53 -10 -61 -32 -124 -54 -148 -9 -11 -17 -28 -17 -40 0 -42 -23 -27 -30 20
-4 26 -20 69 -36 96 -16 26 -29 52 -29 57 0 12 -94 106 -142 141 -90 65 -232
76 -340 26 -31 -14 -66 -35 -78 -47 l-21 -21 -35 30 c-19 17 -50 38 -69 46
-41 16 -44 28 -12 42 71 33 137 130 137 205 0 58 -37 144 -75 176 -54 44 -125
66 -173 53 -56 -16 -121 -77 -128 -122 -11 -69 69 -127 137 -99 41 18 31 35
-18 32 -33 -3 -44 1 -57 20 -25 36 -20 73 15 102 40 34 72 41 120 27 45 -13
51 -28 14 -33 -37 -4 -32 -22 9 -31 20 -5 47 -22 61 -39 24 -29 25 -32 9 -49
-12 -13 -14 -22 -7 -31 15 -19 23 -99 13 -119 -5 -9 -21 -19 -34 -23 -14 -3
-27 -14 -30 -24 -9 -28 -72 -58 -154 -75 -65 -14 -79 -14 -115 -1 -124 44
-207 117 -257 226 -26 59 -30 79 -30 158 0 71 5 103 25 156 36 95 62 134 90
134 17 0 32 14 55 50 29 45 56 70 75 70 4 0 0 -11 -9 -25 -20 -30 -20 -35 -1
-35 8 0 25 16 37 35 13 19 30 35 39 35 9 0 19 3 23 8 11 11 98 30 121 27 11
-2 58 -9 105 -16z m16 -881 c28 -19 59 -51 72 -75 16 -29 28 -40 38 -36 14 5
15 16 3 48 -2 6 0 11 4 12 5 0 21 13 37 28 53 50 189 69 288 40 57 -17 165
-108 192 -162 8 -15 22 -39 31 -53 36 -53 44 -106 30 -198 -15 -107 -40 -164
-93 -219 -60 -61 -137 -90 -226 -84 -19 1 -22 5 -17 22 5 15 2 22 -14 26 -11
3 -29 21 -41 40 -21 36 -39 36 -41 0 -1 -18 -2 -16 -10 8 -6 22 -4 33 8 47 8
9 13 24 9 33 -12 32 -76 -27 -76 -70 0 -33 36 -83 82 -111 76 -48 179 -41 288
19 71 39 140 120 140 165 0 11 7 25 15 32 8 7 15 20 15 30 0 38 24 41 86 11
68 -33 117 -86 158 -174 24 -52 26 -60 12 -70 -14 -10 -14 -21 -5 -76 12 -78
15 -84 41 -75 20 6 21 4 13 -52 -4 -33 -9 -88 -11 -124 -4 -75 -22 -127 -70
-208 -41 -67 -55 -83 -47 -53 9 35 -23 26 -51 -15 -28 -42 -112 -115 -170
-148 -61 -36 -158 -57 -223 -50 -42 4 -54 3 -51 -7 11 -33 139 -34 222 -2 49
19 136 73 162 100 11 11 39 37 63 59 l44 39 -27 -42 c-49 -74 -187 -162 -311
-198 -66 -19 -206 -16 -247 6 -36 19 -88 63 -88 74 0 6 -15 42 -34 80 -35 70
-82 127 -146 176 l-35 27 22 24 c28 30 60 102 69 156 6 35 2 48 -20 82 -16 24
-34 40 -46 40 -26 0 -25 -8 3 -38 32 -34 28 -104 -9 -173 -57 -104 -152 -144
-256 -108 -87 31 -159 88 -191 151 -42 82 -54 183 -33 261 29 104 134 257 177
257 16 0 165 152 183 187 26 52 12 109 -39 161 -50 50 -83 54 -138 17 -29 -20
-37 -32 -37 -55 0 -57 68 -91 115 -57 25 19 11 41 -16 26 -30 -16 -51 -4 -47
28 7 57 109 39 124 -22 10 -41 -2 -114 -22 -136 -39 -43 -93 -62 -160 -56
-108 8 -156 62 -159 176 -1 40 -6 66 -13 69 -7 2 -12 8 -12 12 0 16 134 147
158 154 12 4 22 14 22 22 0 10 14 14 53 15 28 1 63 5 77 9 14 4 48 8 76 9 43
1 60 -5 100 -31z m-898 -1483 c18 -54 57 -93 110 -108 40 -12 45 -17 62 -65
35 -98 131 -206 218 -244 112 -48 219 -63 309 -42 41 9 69 12 75 6 17 -17 11
-97 -10 -131 -27 -44 -76 -78 -125 -86 -56 -10 -57 -11 -44 -44 9 -24 7 -35
-16 -73 -61 -105 -224 -157 -305 -98 -17 13 -32 28 -32 33 0 5 13 25 30 43 36
42 60 122 57 191 -5 85 -52 133 -132 133 -68 0 -138 -61 -106 -93 8 -8 20 -2
45 22 31 30 39 33 73 28 52 -9 73 -37 73 -101 0 -85 -16 -122 -69 -164 -76
-60 -100 -67 -182 -52 -154 27 -278 122 -345 264 -30 64 -36 88 -41 170 -5 81
-2 108 18 178 40 142 82 198 186 249 39 19 71 28 98 26 37 -2 41 -5 53 -42z"/>
<path d="M3619 5810 c-34 -10 -133 -82 -153 -112 -29 -41 2 -31 66 21 34 28
80 57 102 64 69 23 54 48 -15 27z"/>
<path d="M3780 5776 c0 -7 7 -19 15 -26 12 -10 16 -9 21 3 3 9 3 21 -1 27 -9
15 -35 12 -35 -4z"/>
<path d="M4196 4422 c-2 -4 4 -34 15 -66 14 -41 20 -85 20 -148 0 -107 -18
-170 -67 -234 -29 -38 -31 -44 -15 -44 23 0 63 46 99 114 25 48 27 59 26 176
0 109 -3 131 -22 168 -21 39 -44 53 -56 34z"/>
<path d="M4833 2868 c-10 -11 -40 -110 -46 -147 -4 -24 21 -23 37 2 36 54 44
188 9 145z"/>
<path d="M1254 5721 c-5 -3 -10 -52 -12 -109 -3 -91 -1 -107 18 -138 27 -42
48 -54 98 -54 40 0 92 30 92 53 0 6 10 21 22 34 49 52 6 141 -79 162 -26 7
-57 20 -68 30 -23 21 -59 32 -71 22z m115 -91 c47 0 91 -72 66 -107 -13 -17
-15 -17 -35 5 -17 18 -25 21 -36 11 -20 -16 -18 -26 11 -55 19 -19 22 -26 11
-30 -21 -8 -55 13 -76 49 -20 33 -25 80 -14 136 l6 31 26 -20 c13 -11 32 -20
41 -20z"/>
<path d="M875 5413 c4 -16 7 -57 6 -92 -2 -53 2 -70 24 -103 46 -70 104 -69
171 3 41 44 48 70 30 112 -17 42 -40 56 -100 62 -25 3 -60 14 -78 25 -47 28
-62 26 -53 -7z m156 -59 c28 -8 52 -88 33 -107 -4 -4 -20 1 -35 10 -27 16 -30
16 -45 1 -15 -15 -14 -18 5 -37 23 -23 26 -31 11 -31 -5 0 -23 19 -40 42 -22
30 -30 52 -30 83 0 23 3 45 7 49 7 7 55 2 94 -10z"/>
<path d="M3900 5291 c-61 -13 -95 -37 -123 -89 -44 -81 -35 -141 32 -214 44
-48 51 -51 104 -56 91 -7 104 8 22 27 -62 15 -73 21 -102 59 -28 37 -33 52
-33 98 0 34 7 69 19 93 21 40 48 68 58 58 3 -4 14 -2 25 4 43 23 118 -20 118
-68 0 -26 -25 -32 -34 -8 -7 19 -35 19 -42 0 -16 -42 76 -64 109 -27 21 23 21
45 2 83 -24 46 -69 57 -155 40z"/>
<path d="M2470 5112 c-39 -19 -59 -61 -59 -129 -1 -59 38 -102 113 -126 51
-15 60 -15 92 -2 65 27 81 126 26 163 -14 9 -40 32 -58 50 -18 17 -36 32 -40
32 -4 0 -15 7 -24 15 -14 13 -20 12 -50 -3z m119 -117 c33 -10 41 -36 25 -74
-16 -39 -35 -37 -46 7 -5 17 -13 34 -19 37 -16 10 -39 -15 -39 -44 l-1 -26
-19 24 c-39 46 -38 114 0 124 11 3 20 13 20 23 0 11 10 3 29 -24 17 -22 39
-43 50 -47z"/>
<path d="M1336 5071 c-10 -11 -23 -44 -30 -73 -20 -86 17 -166 84 -183 30 -7
109 39 135 79 14 21 15 29 3 53 -7 15 -25 33 -40 40 -16 7 -40 19 -55 26 -14
6 -34 25 -43 41 -20 38 -32 41 -54 17z m42 -83 c7 -7 31 -18 54 -23 44 -11 72
-42 59 -63 -6 -10 -13 -11 -34 -1 -34 15 -61 5 -54 -21 3 -11 2 -20 -3 -20
-15 0 -40 51 -47 95 -6 46 2 56 25 33z"/>
<path d="M3340 4751 c0 -15 29 -33 41 -25 9 5 7 11 -6 21 -22 15 -35 17 -35 4z"/>
<path d="M2516 3988 c9 -29 82 -128 94 -128 20 0 18 19 -7 56 -52 78 -103 120
-87 72z"/>
<path d="M2642 3833 c22 -51 117 -182 170 -235 79 -79 114 -136 123 -200 6
-41 33 -87 36 -62 1 5 2 18 3 29 1 23 23 24 96 5 25 -7 68 -14 95 -16 l50 -3
-40 10 c-103 25 -123 33 -168 61 -29 18 -56 46 -67 69 -11 20 -43 64 -72 96
-71 78 -137 159 -172 211 -16 23 -35 42 -43 42 -8 0 -13 -3 -11 -7z"/>
<path d="M3248 3353 c7 -3 16 -2 19 1 4 3 -2 6 -13 5 -11 0 -14 -3 -6 -6z"/>
<path d="M1821 3216 c-16 -19 -10 -51 9 -51 17 0 26 43 12 57 -5 5 -14 3 -21
-6z"/>
<path d="M2380 3191 c0 -19 35 -39 47 -27 7 7 -26 46 -39 46 -4 0 -8 -9 -8
-19z"/>
<path d="M1800 3106 c0 -17 16 -23 103 -42 80 -16 212 -19 185 -4 -9 6 -62 17
-116 24 -55 8 -109 19 -120 25 -28 15 -52 14 -52 -3z"/>
<path d="M2500 3101 c0 -18 37 -54 48 -47 9 5 7 14 -5 31 -18 24 -43 33 -43
16z"/>
<path d="M1815 2980 c-6 -20 10 -60 25 -60 5 0 8 18 8 40 0 43 -22 56 -33 20z"/>
<path d="M3369 2640 c-77 -7 -108 -17 -92 -29 4 -3 57 -5 116 -3 95 3 108 5
105 20 -4 20 -26 22 -129 12z"/>
<path d="M820 2369 c-25 -28 -30 -42 -30 -85 0 -49 -1 -52 -30 -57 -24 -5 -30
-12 -30 -32 0 -15 -9 -31 -24 -40 -29 -19 -46 -63 -46 -116 0 -30 -6 -42 -30
-61 -21 -16 -32 -35 -35 -58 -3 -18 -11 -40 -20 -50 -8 -9 -17 -36 -19 -61 -7
-62 -39 -148 -63 -164 -14 -10 -47 -14 -104 -14 -46 0 -97 0 -114 -1 -16 -1
-59 8 -93 20 l-64 22 -26 -21 c-15 -12 -42 -29 -59 -38 l-33 -17 0 -122 c0
-110 2 -123 18 -122 56 1 163 -13 197 -26 l40 -15 -78 -1 c-81 0 -142 -20
-134 -43 3 -7 11 -10 18 -8 8 3 54 5 104 6 153 2 209 13 274 55 32 21 75 46
96 56 21 10 52 33 69 52 62 68 102 104 131 119 78 41 119 94 61 79 -19 -5 -20
-4 -3 8 9 8 35 16 57 20 32 5 40 10 40 27 0 20 -4 21 -41 15 -71 -11 -146 -52
-165 -88 -9 -18 -48 -66 -85 -106 -38 -39 -69 -76 -69 -82 0 -5 -22 -21 -48
-34 -27 -13 -54 -32 -61 -40 -8 -9 -25 -16 -38 -16 -22 0 -24 2 -13 15 20 24
0 37 -38 24 -38 -13 -67 -9 -67 11 0 12 -14 15 -70 13 -69 -2 -69 -2 -25 9
152 35 210 53 252 78 25 16 48 26 51 23 15 -14 52 16 116 95 119 144 126 152
137 152 6 0 33 16 60 35 39 28 58 35 96 35 59 0 132 -31 154 -65 10 -15 27
-31 38 -36 44 -20 66 -36 86 -62 25 -31 45 -34 59 -9 9 15 13 13 38 -18 40
-51 91 -98 137 -127 23 -14 54 -41 69 -59 16 -19 35 -34 43 -34 8 0 27 -12 42
-27 36 -37 86 -59 154 -67 30 -4 80 -14 109 -21 30 -8 81 -15 114 -15 46 0 74
-7 120 -30 33 -16 67 -30 77 -30 9 0 40 -9 70 -19 64 -24 284 -40 384 -28 52
6 77 4 106 -8 21 -8 69 -15 106 -15 87 -1 107 -13 108 -66 0 -28 9 -52 28 -76
32 -43 45 -49 111 -57 39 -5 50 -10 50 -24 0 -17 -13 -18 -200 -17 -110 1
-252 5 -315 10 -152 11 -240 1 -240 -25 0 -17 33 -32 95 -45 22 -4 33 -8 25
-9 -8 -1 -64 -6 -125 -11 -106 -9 -246 -14 -800 -28 -143 -4 -545 -7 -892 -7
-577 0 -633 -1 -633 -16 0 -14 26 -17 223 -20 345 -6 580 -5 997 5 482 11 627
12 810 6 144 -5 409 12 482 31 20 5 40 15 44 21 12 18 -32 46 -86 53 -27 4
-50 11 -50 16 0 12 112 11 215 0 44 -5 161 -12 260 -16 164 -7 212 -14 188
-28 -13 -8 -124 -27 -159 -27 -22 0 -36 -6 -42 -18 -10 -19 -5 -42 8 -42 5 0
21 -5 36 -10 18 -7 24 -14 17 -21 -12 -12 -158 -34 -283 -44 -116 -9 -1015
-10 -1630 -1 -278 4 -623 8 -768 9 l-262 2 0 -22 0 -23 278 -1 c152 0 311 -2
352 -4 41 -2 712 -6 1490 -9 778 -3 1745 -9 2148 -12 l732 -7 0 27 0 26 -90 0
-91 0 3 73 c3 82 -6 77 116 62 l62 -8 0 46 c0 52 -6 56 -90 66 -78 9 -68 25
18 29 l72 3 0 68 0 69 -31 6 c-17 3 -50 6 -72 6 -49 0 -43 10 10 17 37 5 63
18 63 32 0 4 -13 21 -29 39 -26 28 -36 32 -83 33 l-53 1 35 13 c19 7 52 14 73
14 20 1 37 6 37 11 0 12 10 10 -87 17 -65 4 -86 2 -105 -11 -29 -21 -94 -21
-102 -1 -3 8 -15 15 -26 15 -15 0 -20 7 -20 29 0 37 14 47 75 50 28 1 65 11
84 22 36 21 61 19 61 -6 0 -19 11 -19 55 -1 18 8 36 12 39 9 3 -3 8 2 12 11 7
19 35 21 52 4 9 -9 12 -6 12 15 0 37 -38 61 -74 47 -15 -5 -29 -17 -32 -25 -9
-22 -27 -18 -54 10 -13 14 -28 25 -32 25 -5 0 -25 -16 -43 -36 -33 -35 -36
-36 -87 -29 -34 4 -62 15 -78 30 -64 58 -115 61 -158 8 -28 -35 -32 -37 -85
-36 -30 1 -65 7 -77 13 -11 6 -53 14 -93 17 -71 5 -129 23 -155 50 -21 20 -35
16 -72 -22 -63 -64 -115 -81 -300 -92 -191 -12 -298 -8 -322 14 -14 13 -21 12
-59 -7 -40 -21 -48 -21 -129 -11 -47 6 -111 11 -141 11 -30 0 -72 6 -94 12
-22 7 -80 13 -130 14 -99 2 -195 29 -303 83 -71 36 -111 39 -137 11 -10 -11
-28 -20 -40 -20 -13 0 -28 -6 -34 -14 -8 -9 -44 -16 -104 -20 -120 -9 -147
-15 -147 -31 0 -21 226 -9 270 15 10 6 27 10 38 10 11 0 31 9 46 21 l26 21 66
-31 c37 -17 73 -31 81 -31 7 0 43 -13 78 -30 61 -28 68 -30 152 -24 72 6 95 4
121 -10 18 -9 32 -21 32 -27 0 -5 14 -2 31 6 17 9 37 14 44 12 16 -7 7 -57
-11 -57 -28 0 -67 -46 -67 -79 0 -28 -3 -32 -21 -27 -12 3 -57 8 -101 12 -44
3 -104 15 -133 26 -46 18 -55 19 -81 7 -23 -11 -56 -13 -162 -6 -202 12 -368
59 -389 110 -5 12 -9 16 -9 10 -1 -7 -7 -13 -15 -13 -8 0 -16 6 -19 13 -3 9
-7 9 -20 -2 -21 -17 -117 -7 -199 20 -32 10 -68 19 -81 19 -34 0 -110 35 -123
57 -9 15 -7 18 15 20 14 0 28 -3 31 -8 11 -16 336 -57 366 -45 37 14 -7 29
-98 34 -51 2 -105 11 -120 18 -15 8 -36 14 -48 14 -12 0 -32 12 -45 26 -20 21
-27 24 -44 14 -12 -6 -45 -11 -74 -11 -47 -1 -62 5 -123 44 -39 25 -82 63 -97
84 -44 63 -71 91 -98 102 -24 9 -26 12 -21 64 3 34 0 57 -7 61 -6 4 -11 16
-11 26 0 10 -11 27 -25 38 -21 17 -25 28 -25 75 0 36 -5 61 -15 70 -21 22 -70
30 -95 17 -31 -17 -38 -6 -46 70 -6 63 -9 72 -33 83 -21 10 -25 18 -23 42 3
35 -32 101 -65 122 -21 14 -24 13 -53 -18z m61 -35 c10 -12 13 -42 11 -106 -3
-70 0 -95 13 -114 9 -14 22 -23 28 -21 7 2 17 -9 24 -25 7 -15 20 -31 30 -35
10 -3 26 -13 36 -22 17 -14 20 -14 36 8 27 35 41 18 41 -50 0 -50 4 -64 23
-82 13 -12 29 -32 35 -44 14 -26 16 -80 3 -87 -19 -12 -70 7 -90 35 -18 24
-19 32 -9 48 9 15 8 24 -5 45 -10 14 -27 26 -38 26 -28 0 -59 -18 -59 -34 0
-9 -27 -17 -82 -24 -69 -10 -92 -19 -143 -53 -47 -32 -61 -37 -63 -25 -5 22
-16 20 -50 -9 -30 -25 -49 -22 -31 5 5 8 9 26 9 41 0 14 5 30 11 36 7 7 17 33
24 60 13 50 28 60 33 21 6 -44 11 -51 26 -38 11 9 13 28 10 79 -6 67 -5 69 24
89 22 16 32 18 40 10 9 -9 15 -9 23 -1 16 16 3 48 -14 36 -6 -6 -25 -9 -41 -9
-37 1 -48 26 -12 26 15 0 30 8 36 20 6 11 20 20 30 20 13 0 20 7 20 19 0 10 6
24 14 30 10 8 12 24 9 51 -10 74 15 113 48 74z m-328 -717 c-10 -17 -36 -41
-58 -52 -22 -11 -60 -32 -85 -46 -49 -29 -123 -54 -183 -63 -50 -7 -38 10 13
19 23 4 69 26 105 51 35 24 75 44 88 44 13 0 36 9 50 20 14 11 29 20 33 20 16
0 44 34 45 54 1 17 2 18 6 3 2 -9 -4 -32 -14 -50z m-274 -30 c28 8 58 12 68 8
16 -6 14 -10 -14 -33 -40 -35 -115 -56 -275 -79 l-38 -5 0 51 c0 50 1 51 25
45 16 -4 25 -2 25 6 0 7 7 10 15 6 11 -4 15 1 15 19 l0 24 65 -29 c64 -29 66
-29 114 -13z m-134 -137 c-3 -5 -14 -10 -23 -10 -15 0 -15 2 -2 10 20 13 33
13 25 0z m3879 -19 c19 -21 80 -35 133 -32 40 2 52 -16 24 -36 -14 -9 -21 -23
-19 -36 2 -17 -3 -23 -21 -25 -13 -2 -43 -24 -68 -49 -43 -45 -45 -45 -91 -38
-26 4 -64 9 -85 10 -21 2 -46 10 -55 18 -30 28 -103 46 -148 38 -22 -4 -46
-11 -52 -15 -7 -4 -38 -2 -71 5 -55 10 -63 9 -117 -14 -33 -14 -85 -27 -116
-30 l-56 -4 -15 38 c-14 36 -14 39 9 60 21 20 27 21 48 10 18 -10 81 -13 264
-10 132 2 238 7 236 11 -3 4 8 6 23 5 28 -2 41 6 108 71 22 22 43 40 46 41 3
0 14 -8 23 -18z m543 -23 c16 -13 17 -100 2 -115 -8 -8 -8 -17 1 -32 6 -12 8
-26 5 -31 -3 -5 6 -17 20 -26 28 -18 32 -36 11 -53 -8 -7 -17 -24 -21 -38 -3
-15 -17 -39 -30 -55 -13 -16 -22 -35 -19 -43 4 -8 3 -23 -1 -32 -6 -16 -8 -15
-16 5 -5 13 -17 22 -30 22 -11 0 -37 7 -56 16 l-34 17 26 27 c51 54 43 159
-16 194 -17 10 -37 33 -45 52 -18 44 -18 44 12 44 22 0 24 -3 15 -14 -10 -12
-6 -14 21 -13 24 2 34 7 36 22 2 11 15 34 28 52 22 29 27 31 51 22 15 -6 33
-15 40 -21z m-297 -33 c22 -11 30 -23 30 -42 0 -18 16 -42 55 -80 41 -41 55
-61 55 -83 0 -50 -16 -78 -47 -82 -27 -3 -31 -12 -22 -46 2 -8 -4 -19 -14 -25
-15 -10 -23 -6 -51 27 -35 42 -63 44 -73 6 -5 -20 -19 -25 -46 -14 -12 4 -13
12 -6 37 12 44 13 44 -21 56 -30 10 -34 16 -31 61 3 30 35 60 65 60 39 1 55
22 52 71 -2 38 7 69 21 69 2 0 17 -7 33 -15z m-1091 -71 c32 -23 63 -94 49
-112 -9 -10 -8 -22 1 -47 8 -24 9 -40 2 -53 -12 -22 -5 -32 20 -32 18 0 36 40
31 68 -5 23 18 12 28 -13 13 -34 -4 -69 -52 -104 -44 -33 -101 -35 -123 -4
-13 17 -14 17 -32 0 -24 -21 -95 -17 -123 8 -11 10 -24 34 -30 53 -8 29 -6 39
10 60 11 13 20 39 20 56 0 38 20 69 40 64 9 -2 22 12 33 35 17 34 22 37 61 37
23 0 52 -7 65 -16z m572 -70 c22 -26 61 -41 129 -48 150 -15 156 -17 189 -66
23 -35 27 -48 19 -63 -15 -29 19 -58 75 -64 40 -5 47 -9 52 -33 3 -14 2 -38
-4 -52 l-9 -25 -159 3 c-87 1 -205 7 -263 13 -58 6 -216 12 -352 13 -178 2
-248 6 -248 14 0 15 23 24 59 24 37 0 99 65 115 121 9 29 19 45 32 47 10 2 28
7 39 12 46 22 118 41 132 36 15 -6 42 5 65 27 59 56 104 71 129 41z m-192 -10
c7 -6 2 -8 -103 -42 -100 -32 -116 -33 -116 -6 0 10 12 14 39 14 22 0 61 11
88 25 42 21 75 24 92 9z m1166 -14 c4 -6 -6 -10 -24 -10 -16 0 -33 5 -36 10
-4 6 6 10 24 10 16 0 33 -4 36 -10z m66 -81 c-5 -37 -9 -42 -35 -45 -28 -3
-66 -29 -66 -46 0 -19 42 -48 71 -48 17 0 28 -4 24 -10 -3 -5 -13 -10 -22 -10
-9 0 -26 -8 -37 -19 -21 -18 -155 -38 -169 -25 -4 4 5 15 18 26 14 11 25 29
25 41 0 29 30 107 53 137 12 17 32 27 60 31 87 12 84 14 78 -32z m119 16 c0
-16 -45 -21 -54 -6 -8 12 4 21 31 21 14 0 23 -6 23 -15z m60 -95 c8 -5 11 -10
5 -11 -100 -10 -131 -7 -120 12 8 12 96 11 115 -1z m-185 -10 c-3 -5 -13 -10
-21 -10 -8 0 -12 5 -9 10 3 6 13 10 21 10 8 0 12 -4 9 -10z m-354 -69 c37 -33
35 -36 -39 -44 -25 -3 -49 -13 -56 -22 -17 -23 -50 -15 -54 13 -4 29 14 52 42
52 12 0 31 7 42 15 26 19 26 19 65 -14z m541 -3 c-8 -8 -23 -8 -54 -1 l-43 11
55 1 c41 1 51 -2 42 -11z m-182 -36 c0 -13 -12 -22 -22 -16 -10 6 -1 24 13 24
5 0 9 -4 9 -8z m-31 -62 c10 -5 1 -8 -24 -8 -29 0 -43 -6 -53 -21 -13 -18 -24
-21 -89 -21 l-74 0 3 27 c2 19 10 29 26 33 32 7 194 0 211 -10z m-307 -20 c-2
-14 -7 -28 -10 -31 -11 -11 -145 5 -149 17 -2 7 17 14 49 18 29 4 60 11 68 16
26 17 45 7 42 -20z m508 4 c0 -15 -27 -18 -79 -8 -45 9 -29 22 29 22 37 1 50
-3 50 -14z m-1300 -20 c0 -2 -9 -4 -21 -4 -11 0 -18 4 -14 10 5 8 35 3 35 -6z
m444 5 c8 -8 -76 -17 -129 -15 -22 1 -86 3 -142 4 -57 1 -103 6 -103 10 0 10
365 10 374 1z m96 1 c0 -5 -10 -10 -22 -10 -19 0 -20 2 -8 10 19 13 30 13 30
0z m572 -90 l3 -80 -50 -1 c-27 -1 -83 -2 -124 -3 l-74 -1 -4 56 -4 56 38 6
c77 13 100 9 123 -23 32 -44 50 -39 50 14 0 40 7 52 32 55 3 1 8 -35 10 -79z
m-1013 55 c5 -2 73 -5 152 -5 204 -1 309 -10 309 -26 0 -7 -7 -17 -16 -22 -34
-19 -10 -36 47 -33 62 3 83 16 57 35 -44 32 6 46 105 30 43 -8 50 -33 17 -61
-27 -24 -25 -43 5 -43 14 0 25 -4 25 -8 0 -4 -42 -7 -92 -6 -51 1 -129 2 -173
3 -44 0 -282 2 -530 3 -247 1 -477 2 -510 3 -33 1 -109 3 -170 5 -100 2 -106
3 -60 11 85 16 110 79 31 79 -50 1 -10 16 60 23 55 6 62 4 67 -12 4 -16 13
-19 61 -17 61 2 98 22 58 32 -12 4 -22 11 -22 17 0 10 562 3 579 -8z"/>
<path d="M847 2294 c-8 -8 1 -24 14 -24 5 0 9 7 9 15 0 15 -12 20 -23 9z"/>
<path d="M830 2085 c-10 -12 -9 -16 5 -21 19 -8 40 9 31 25 -10 15 -21 14 -36
-4z"/>
<path d="M4185 2100 c-22 -11 -66 -22 -97 -26 -42 -5 -58 -11 -58 -22 0 -12
10 -14 54 -8 65 7 146 42 146 61 0 8 -1 15 -2 14 -2 0 -21 -9 -43 -19z"/>
<path d="M4245 2061 c-18 -15 -153 -43 -196 -39 -49 4 -64 -16 -25 -33 19 -9
42 -9 91 -1 70 11 175 54 175 71 0 13 -32 14 -45 2z"/>
<path d="M956 1683 c-14 -7 -26 -18 -26 -23 0 -14 18 -21 25 -10 11 18 75 11
105 -11 48 -36 83 -3 39 37 -25 23 -105 27 -143 7z"/>
<path d="M1214 1619 c-8 -14 11 -33 25 -25 6 4 11 11 11 16 0 13 -29 20 -36 9z"/>
<path d="M2847 1224 c-10 -13 -13 -24 -8 -24 10 0 36 39 29 45 -2 2 -11 -8
-21 -21z"/>
<path d="M4843 764 c-4 -11 1 -22 12 -31 16 -11 21 -11 34 1 12 12 12 18 1 30
-16 21 -39 20 -47 0z"/>
<path d="M353 540 c-88 -5 -108 -14 -80 -35 15 -11 16 -17 6 -41 -6 -16 -17
-49 -25 -74 -39 -134 -65 -195 -91 -216 l-28 -22 27 -11 c32 -12 83 -7 104 10
8 6 14 27 14 47 0 42 20 114 35 124 5 4 31 8 57 8 56 0 69 -14 88 -98 9 -41 9
-56 0 -67 -7 -8 -10 -22 -6 -30 8 -22 151 -22 160 1 8 20 -1 34 -20 34 -19 0
-38 45 -59 145 -9 44 -24 103 -32 132 -8 29 -13 60 -11 69 4 24 -35 30 -139
24z m53 -100 c21 -70 20 -73 -28 -65 -24 4 -47 11 -51 15 -5 4 0 29 12 55 26
59 49 57 67 -5z"/>
<path d="M778 543 c-45 -5 -132 -78 -153 -131 -21 -49 -19 -128 5 -176 35 -72
137 -119 245 -113 44 3 61 9 82 29 14 14 23 30 19 36 -6 10 -54 21 -119 28
-78 8 -137 78 -137 165 0 43 5 55 29 80 35 34 86 39 121 11 18 -15 20 -21 11
-44 -12 -33 -2 -42 38 -33 64 14 89 68 52 112 -33 40 -77 48 -193 36z"/>
<path d="M1071 523 c-15 -11 -15 -14 1 -40 14 -24 15 -48 11 -153 -5 -111 -8
-128 -29 -153 -30 -35 -22 -61 15 -51 14 4 77 8 140 10 101 3 117 6 138 25 12
13 23 28 23 35 0 6 7 17 15 24 12 10 13 16 5 24 -9 8 -21 1 -45 -27 -32 -37
-34 -38 -96 -35 l-64 3 -6 50 c-3 27 -3 59 -1 72 l4 22 18 -21 c27 -34 50 -9
50 53 0 54 -13 69 -39 45 -27 -25 -32 -20 -29 27 l3 42 44 0 c43 0 45 -1 55
-40 14 -49 41 -58 57 -19 12 32 3 104 -14 109 -32 11 -241 9 -256 -2z"/>
<path d="M3436 521 c-9 -15 1 -31 20 -31 13 0 15 -23 12 -156 -3 -149 -4 -157
-26 -175 -35 -27 -19 -39 54 -39 49 0 64 3 64 15 0 7 -7 18 -16 23 -13 7 -17
32 -21 115 -6 113 0 129 33 80 9 -16 51 -74 93 -131 l76 -103 38 4 c67 9 67
10 60 191 l-6 163 26 7 c15 3 27 13 27 21 0 17 -49 28 -105 23 -41 -3 -60 -26
-29 -34 17 -4 19 -17 20 -100 1 -70 -2 -94 -11 -94 -7 0 -15 6 -18 13 -2 7
-28 40 -56 74 -28 33 -51 65 -51 69 0 5 -14 22 -30 38 -25 25 -41 31 -89 34
-36 3 -61 0 -65 -7z"/>
<path d="M2260 513 c-48 -9 -64 -43 -20 -43 11 0 25 -10 32 -22 20 -36 68
-158 68 -173 0 -7 13 -38 29 -68 16 -31 28 -64 28 -74 -2 -15 7 -19 47 -21 86
-6 127 19 74 43 -12 6 -26 18 -32 28 -9 14 -6 22 15 40 14 12 38 41 54 65 16
24 33 45 38 49 11 7 38 -22 90 -95 41 -58 42 -78 5 -84 -13 -2 -23 -10 -23
-18 0 -12 15 -16 68 -18 72 -3 81 5 55 47 -9 15 -7 30 11 78 12 32 33 92 47
133 30 87 38 100 70 100 14 0 24 6 24 14 0 17 -113 33 -149 21 -29 -9 -26 -25
4 -25 18 0 25 -5 25 -19 0 -22 -48 -161 -60 -174 -4 -5 -25 13 -46 39 -61 73
-92 104 -103 104 -13 0 -30 -17 -95 -99 -28 -33 -55 -61 -61 -61 -13 0 -95
172 -95 200 0 10 -3 21 -7 23 -15 9 -68 14 -93 10z"/>
<path d="M3977 513 c-12 -12 -7 -33 13 -53 23 -23 26 -89 10 -199 -7 -54 -14
-68 -41 -91 -54 -45 -37 -58 78 -60 165 -4 188 -2 234 19 95 45 118 83 119
192 0 35 -7 57 -31 93 -50 75 -98 94 -260 101 -64 2 -119 2 -122 -2z m249 -51
c32 -20 49 -201 24 -261 -15 -37 -69 -52 -106 -29 -12 8 -29 272 -19 289 7 11
85 12 101 1z"/>
<path d="M3040 501 c0 -5 9 -15 21 -22 20 -14 20 -14 -15 -102 -20 -49 -54
-123 -76 -165 -26 -51 -36 -80 -30 -86 13 -13 121 -9 135 5 7 7 4 14 -7 23
-23 17 -23 44 2 100 18 42 22 46 52 45 79 -3 91 -10 105 -64 7 -27 13 -65 13
-84 l0 -34 66 6 c73 5 87 13 61 32 -27 20 -92 288 -80 333 4 18 -3 19 -121 21
-69 0 -126 -3 -126 -8z m147 -99 c18 -71 18 -72 -30 -72 -24 0 -46 3 -49 6 -7
6 27 90 45 112 13 17 19 9 34 -46z"/>
<path d="M4610 502 c-83 -37 -102 -124 -36 -167 13 -9 55 -21 93 -27 77 -11
103 -29 103 -69 0 -44 -23 -59 -90 -59 -77 0 -90 6 -90 41 0 53 -28 49 -82
-11 -68 -77 -60 -122 16 -86 25 12 64 16 150 16 132 0 158 9 176 64 8 25 7 43
-2 71 -17 50 -61 72 -157 79 -80 6 -111 23 -111 61 0 33 31 55 76 55 51 0 87
-19 94 -50 4 -16 14 -26 28 -28 26 -4 45 34 40 82 l-3 31 -95 2 c-52 1 -102
-1 -110 -5z"/>
<path d="M1876 399 c-31 -36 -31 -41 -6 -98 11 -24 20 -47 20 -52 0 -5 12 -34
26 -64 31 -65 25 -94 -26 -120 -16 -8 -30 -22 -30 -30 0 -20 6 -19 57 11 50
29 63 55 63 126 0 45 2 50 20 45 27 -7 41 14 32 48 -11 41 -39 56 -58 30 -15
-20 -15 -20 -34 5 -25 32 -25 41 0 47 22 6 26 33 10 64 -15 28 -45 23 -74 -12z"/>
<path d="M1696 246 c-20 -18 -36 -39 -36 -45 0 -69 131 -91 185 -31 15 16 15
24 5 55 -21 64 -97 75 -154 21z m78 -12 c20 -8 21 -38 1 -54 -12 -10 -18 -10
-30 0 -18 15 -20 46 -2 53 6 3 13 6 14 6 1 1 8 -2 17 -5z"/>
<path d="M4918 189 c-28 -16 -23 -57 7 -65 14 -3 32 -4 40 0 22 8 19 53 -4 66
-23 12 -22 12 -43 -1z"/>
</g>
</svg>
