<?xml version="1.0" standalone="no"?>
<!DOCTYPE svg PUBLIC "-//W3C//DTD SVG 20010904//EN"
 "http://www.w3.org/TR/2001/REC-SVG-20010904/DTD/svg10.dtd">
<svg version="1.0" xmlns="http://www.w3.org/2000/svg"
 width="500.000000pt" height="878.000000pt" viewBox="0 0 500.000000 878.000000"
 preserveAspectRatio="xMidYMid meet">
<metadata>
Created by potrace 1.15, written by Peter Selinger 2001-2017
</metadata>
<g transform="translate(0.000000,878.000000) scale(0.100000,-0.100000)"
fill="#000000" stroke="none">
<path d="M2330 8554 c-47 -16 -49 -32 -3 -36 l38 -3 3 -55 c2 -30 1 -74 -3
-97 l-6 -43 -49 0 c-46 0 -71 -13 -55 -28 8 -8 432 -5 446 3 19 12 -3 25 -44
25 -23 0 -47 4 -53 8 -9 6 -16 61 -18 157 -1 37 1 40 25 37 26 -3 58 22 45 35
-11 12 -289 9 -326 -3z m178 -131 l-3 -98 -30 0 -30 0 -2 98 -3 97 35 0 36 0
-3 -97z"/>
<path d="M862 8167 c-22 -26 -26 -104 -8 -131 9 -14 16 -27 16 -30 0 -2 -16
-13 -36 -25 -26 -16 -35 -27 -32 -44 2 -18 10 -23 41 -25 22 -2 37 1 37 8 0 6
4 9 9 6 17 -11 0 -42 -29 -54 -35 -16 -46 -43 -29 -71 10 -15 10 -25 1 -45 -7
-16 -8 -35 -2 -57 5 -17 8 -35 5 -39 -13 -22 7 -696 21 -710 8 -8 8 -27 2 -58
-4 -26 -7 -199 -6 -384 2 -252 0 -340 -9 -349 -20 -20 -27 17 -13 63 12 34 12
41 -1 49 -8 5 -21 8 -29 5 -8 -2 -21 -5 -29 -7 -8 -2 -17 5 -20 17 -6 22 -72
84 -89 84 -16 0 -29 -23 -36 -63 -6 -35 -4 -40 29 -69 25 -23 33 -37 29 -50
-8 -28 14 -50 45 -44 20 4 35 -3 67 -32 l42 -37 5 -110 c4 -60 11 -156 18
-213 6 -57 8 -122 5 -145 -4 -23 -8 -226 -9 -452 -2 -225 -7 -496 -11 -602 -9
-187 -10 -191 -33 -202 -19 -9 -23 -19 -25 -58 0 -27 0 -55 1 -63 2 -8 4 -25
5 -37 1 -12 8 -28 15 -37 8 -9 10 -27 6 -49 -4 -21 -3 -37 4 -41 6 -4 11 -25
11 -48 l0 -40 -68 4 c-50 2 -76 9 -99 26 -24 17 -44 22 -78 21 -43 -3 -49 0
-91 44 -24 26 -53 47 -63 47 -10 0 -36 -13 -58 -29 -112 -81 -242 -128 -332
-119 -35 3 -41 1 -41 -15 0 -10 9 -21 20 -24 11 -3 20 -14 20 -24 0 -11 5 -19
11 -19 5 0 7 -4 4 -10 -3 -5 1 -10 9 -10 19 0 20 5 6 31 -10 17 -7 19 24 19
19 0 38 -5 42 -11 4 -8 9 -7 15 2 6 10 12 7 28 -12 16 -19 22 -22 32 -11 10 9
10 12 1 12 -7 0 -12 9 -12 20 0 13 7 20 19 20 11 0 23 5 27 11 3 6 15 8 26 6
14 -4 18 -1 14 9 -3 7 -2 13 3 11 5 -1 18 9 29 23 l21 25 1 -32 c0 -18 2 -33
5 -33 15 0 31 27 27 44 -4 13 -1 17 9 14 8 -3 13 -13 11 -23 -3 -13 1 -16 13
-11 9 3 25 1 36 -4 25 -14 25 2 -1 25 -22 20 -18 37 6 28 8 -3 13 -12 10 -20
-4 -9 1 -17 14 -20 11 -3 20 -10 19 -17 -1 -6 -1 -21 0 -34 l1 -23 22 21 c12
11 28 20 35 20 7 0 22 5 33 12 16 10 27 8 62 -10 36 -18 39 -22 18 -22 -14 0
-32 4 -40 9 -15 11 -38 3 -23 -8 17 -11 42 -71 32 -77 -5 -3 -123 -5 -262 -5
-138 1 -278 -2 -310 -5 -53 -6 -57 -9 -57 -32 l0 -25 177 6 c174 7 379 0 368
-12 -4 -3 -36 -11 -73 -16 -57 -9 -67 -13 -70 -32 -6 -41 25 -46 240 -41 l198
6 0 -233 0 -232 -47 -7 c-25 -3 -69 -6 -96 -6 -28 0 -89 -5 -135 -12 -71 -10
-85 -16 -92 -34 -11 -28 -57 -35 -285 -43 -160 -5 -180 -8 -183 -23 -3 -16 7
-18 103 -18 107 0 380 17 423 26 12 2 27 15 32 28 10 27 50 35 195 39 l80 2 3
-54 c2 -30 -1 -58 -6 -63 -4 -4 -194 -8 -420 -9 l-412 0 0 -23 0 -24 423 2
422 1 2 -115 c2 -63 5 -125 8 -136 6 -26 48 -44 94 -41 19 1 36 -3 38 -10 3
-10 -105 -12 -482 -12 -267 0 -490 -3 -495 -6 -6 -4 -10 -227 -10 -581 0 -336
4 -573 9 -570 12 8 23 -22 14 -37 -4 -7 -9 -3 -14 9 -5 12 -8 -6 -8 -47 -1
-59 1 -67 19 -72 13 -3 20 -14 20 -30 0 -16 12 -35 32 -52 32 -27 46 -28 120
-10 26 7 26 6 22 -31 -5 -35 -1 -43 37 -82 23 -24 46 -41 53 -39 6 2 9 19 8
38 -5 55 13 89 45 89 16 0 35 5 43 10 13 8 13 13 -2 37 -38 61 -51 92 -45 108
5 13 11 14 27 5 11 -6 20 -17 20 -25 0 -8 10 -21 21 -29 36 -25 80 15 59 54
-8 15 -5 23 15 38 14 11 25 24 25 29 0 15 -46 32 -69 26 -32 -8 -25 15 12 37
l32 20 18 -21 c9 -12 17 -35 17 -52 0 -17 8 -39 17 -50 17 -18 17 -20 -12 -43
-25 -20 -28 -26 -15 -34 8 -5 23 -10 33 -10 24 0 17 -22 -11 -35 -30 -13 -22
-29 16 -33 34 -3 38 -12 22 -43 -13 -23 -22 -24 -67 -2 -52 24 -60 2 -24 -62
32 -56 81 -95 121 -95 19 0 30 -7 38 -25 13 -28 37 -32 67 -9 13 10 32 13 55
9 50 -8 86 13 82 48 -1 15 2 27 7 27 15 0 41 55 41 87 0 49 -13 59 -56 44 -34
-12 -39 -12 -50 4 -18 25 -10 32 27 27 27 -4 31 -2 26 12 -4 9 -10 23 -13 31
-5 13 2 14 50 9 42 -5 67 -2 101 10 57 22 59 48 8 97 -40 38 -79 56 -128 61
-29 3 -30 5 -27 46 3 37 1 42 -17 42 -11 0 -24 -7 -29 -16 -8 -15 -10 -15 -15
0 -10 25 -41 19 -65 -14 -13 -16 -28 -30 -36 -30 -7 0 -27 20 -45 45 l-32 45
23 29 c26 33 74 56 84 40 3 -6 16 -9 27 -8 14 2 37 -11 61 -34 22 -20 43 -37
48 -37 6 0 38 63 38 76 0 2 -12 15 -27 29 -22 20 -24 24 -8 19 11 -4 36 -26
56 -48 32 -36 38 -39 53 -27 9 7 19 31 22 52 6 36 9 39 38 36 29 -2 31 0 29
28 -1 17 -2 37 -2 45 2 172 -9 220 -47 220 -19 0 -28 20 -15 33 6 6 11 24 11
40 0 28 -1 28 -42 22 l-43 -6 -25 53 c-14 29 -31 54 -37 56 -11 3 -52 -71 -67
-121 -3 -10 -15 -17 -30 -17 -45 0 -74 -69 -40 -94 12 -9 14 -21 9 -49 -4 -20
-10 -37 -14 -37 -3 0 -16 16 -29 35 -26 40 -32 42 -57 15 -13 -14 -16 -28 -11
-51 4 -23 2 -35 -11 -44 -15 -12 -15 -15 1 -50 l18 -37 -38 -32 c-21 -17 -43
-31 -48 -31 -17 0 -77 86 -72 104 2 9 7 26 11 39 5 18 2 25 -14 29 -26 7 -26
9 -1 40 23 30 12 63 -22 63 -17 0 -18 2 -8 15 7 8 18 15 25 15 6 0 20 9 29 19
10 11 31 23 47 26 36 8 44 35 24 77 -45 91 -49 98 -87 113 -48 19 -81 19 -117
0 -26 -13 -32 -12 -67 5 -21 11 -45 20 -54 20 -27 0 -60 -30 -60 -54 0 -15 -9
-27 -25 -34 -14 -7 -25 -20 -25 -31 0 -22 35 -51 60 -51 26 0 68 -52 75 -93 8
-42 -6 -50 -23 -12 -14 30 -28 32 -42 5 -10 -19 -19 -21 -82 -18 l-71 3 2 130
c1 71 7 135 12 141 7 8 6 14 -1 19 -30 19 22 24 248 24 136 1 267 3 292 6 25
2 141 7 258 10 167 4 213 3 217 -7 2 -7 6 -309 9 -670 l5 -658 -42 0 c-23 0
-264 -5 -534 -12 l-493 -12 0 -287 0 -287 487 4 c578 5 681 8 693 20 5 5 12
88 15 184 3 96 8 177 13 180 4 3 222 4 485 2 l477 -2 -6 -28 c-3 -15 -8 -34
-10 -43 -2 -8 -23 -26 -47 -39 -23 -13 -49 -28 -57 -35 -8 -7 -33 -18 -55 -25
-22 -7 -66 -26 -99 -41 -32 -16 -72 -29 -90 -29 -36 -1 -164 -66 -180 -92 -9
-14 -6 -23 14 -43 25 -25 26 -25 130 -15 58 6 128 13 155 16 45 6 252 7 459 2
77 -2 79 -1 107 30 31 35 32 63 1 110 -11 17 -13 40 -9 96 4 40 2 87 -2 104
-7 22 -6 34 4 42 26 22 55 -60 48 -137 l-5 -50 46 -7 c30 -5 49 -14 56 -27 7
-12 21 -19 42 -19 17 0 40 -7 49 -16 12 -11 44 -18 91 -22 40 -2 81 -9 90 -14
29 -14 68 18 68 56 0 44 5 47 48 29 21 -9 70 -15 121 -16 81 -1 90 1 156 36
38 20 74 37 80 37 6 0 22 11 35 25 19 20 22 32 18 78 l-4 54 349 7 c243 5 353
3 362 -4 7 -6 16 -26 19 -45 4 -19 11 -37 16 -40 5 -3 57 -3 116 1 l107 7 15
39 15 38 289 0 c167 0 288 4 288 9 0 18 -78 22 -332 16 -239 -5 -258 -4 -266
12 -11 22 -10 393 1 411 5 6 25 12 46 12 49 0 67 21 73 87 5 56 -10 83 -45 83
-13 0 -17 10 -17 44 0 40 -4 48 -36 72 -27 21 -34 33 -32 53 2 21 9 27 33 29
17 2 34 7 39 12 9 9 16 310 19 800 1 173 6 321 10 328 16 24 27 1 27 -54 0
-39 4 -56 15 -60 12 -5 12 -9 1 -27 -14 -25 -23 -367 -8 -367 23 0 27 24 20
102 -9 92 -3 152 18 185 10 15 11 30 4 54 -14 48 -12 163 2 177 16 16 55 15
65 0 4 -7 15 -118 24 -246 10 -134 21 -238 28 -245 11 -11 9 147 -5 396 l-5
97 45 0 c44 0 45 -1 52 -35 7 -41 27 -42 32 -2 6 50 22 27 22 -30 0 -95 11
-163 26 -163 11 0 14 24 14 110 0 89 3 110 14 110 19 0 25 -139 12 -258 -11
-100 -4 -113 48 -88 40 19 46 40 16 56 -14 8 -20 21 -20 46 0 38 -2 37 48 17
8 -3 12 5 12 26 0 26 -4 30 -22 28 -27 -3 -36 24 -37 111 -1 45 3 62 11 60 6
-2 12 -24 12 -48 1 -34 5 -45 19 -48 15 -3 17 5 17 61 l0 64 -237 6 c-316 9
-383 28 -383 113 0 17 6 36 13 42 7 6 112 10 274 10 285 1 336 6 331 29 -4 18
-46 35 -145 58 -55 12 -105 15 -210 12 -79 -3 -163 0 -195 6 -59 12 -64 17
-60 67 1 8 2 70 3 137 l1 121 26 -1 c30 -2 34 12 32 107 -1 85 39 118 93 76
14 -11 35 -20 46 -20 31 0 26 -17 -15 -54 -22 -20 -34 -38 -29 -45 4 -7 -4
-22 -19 -36 -15 -14 -26 -35 -26 -49 0 -25 -2 -25 -45 -19 -47 6 -54 -1 -36
-35 5 -9 12 -25 15 -35 7 -23 46 -37 101 -37 24 0 46 -4 49 -9 3 -5 -10 -21
-29 -35 -19 -15 -35 -34 -35 -43 0 -13 -8 -14 -50 -9 -51 7 -62 -1 -35 -24 20
-17 49 -21 180 -25 61 -2 157 -6 215 -10 131 -7 170 6 170 59 0 30 -2 33 -25
29 -34 -7 -116 28 -113 47 4 19 103 27 124 9 11 -9 14 -8 14 4 0 20 -27 47
-46 47 -14 0 -20 31 -7 43 3 4 17 -3 30 -15 33 -31 29 -5 -8 54 -28 44 -34 48
-70 48 -32 0 -39 4 -39 19 0 11 -11 33 -25 49 -20 23 -25 41 -25 81 0 48 1 50
19 39 15 -9 23 -9 35 1 14 12 16 9 16 -22 0 -26 6 -39 20 -47 11 -6 20 -8 20
-4 0 3 7 1 15 -6 8 -7 15 -25 15 -40 0 -19 8 -33 25 -44 l25 -16 0 83 0 83
-35 17 c-22 10 -35 24 -35 35 0 11 -14 49 -30 86 -33 72 -54 82 -76 38 -6 -13
-27 -39 -45 -58 -20 -21 -33 -43 -31 -55 2 -12 -2 -19 -12 -19 -12 0 -16 10
-16 43 1 74 21 102 97 136 17 8 23 19 23 41 0 48 17 73 40 60 10 -5 20 -20 22
-32 2 -17 10 -23 28 -23 22 0 25 4 25 34 0 28 -6 38 -30 52 -37 22 -65 23 -90
5 -14 -10 -26 -11 -45 -4 -33 11 -75 -3 -89 -30 -13 -25 -89 -63 -97 -50 -4 5
-8 33 -10 61 -3 38 -9 57 -25 70 -29 23 -42 22 -78 -9 -29 -24 -31 -30 -26
-73 5 -40 3 -48 -18 -63 -13 -9 -32 -18 -43 -20 -18 -3 -19 6 -19 267 l0 269
37 9 c33 8 42 5 80 -22 24 -17 70 -63 103 -102 77 -92 89 -104 153 -149 36
-26 68 -39 102 -44 27 -4 65 -13 84 -21 19 -8 40 -15 46 -15 18 0 11 50 -7 57
-10 4 -31 17 -46 30 -16 13 -37 23 -47 23 -28 0 -83 36 -109 71 -12 17 -21 32
-19 34 2 2 25 13 51 24 37 16 51 29 63 56 11 27 27 42 69 62 50 25 73 53 44
53 -7 0 -17 7 -23 16 -21 29 -155 15 -163 -17 -4 -13 -14 -19 -34 -19 -29 0
-42 -12 -44 -42 -2 -25 -34 -58 -56 -58 -23 0 -37 26 -49 92 -6 29 -24 78 -40
110 -17 31 -30 64 -30 73 0 22 -37 55 -63 55 -12 0 -39 -9 -60 -20 -20 -11
-40 -20 -43 -20 -3 0 -4 105 -2 233 3 247 6 259 52 277 15 5 28 -1 52 -27 30
-32 67 -43 79 -24 5 9 -7 50 -30 104 -6 13 -2 17 17 17 37 0 58 21 65 63 5 35
3 42 -23 62 -27 22 -31 22 -63 9 -41 -17 -41 -17 -41 2 0 24 -40 13 -63 -17
-19 -27 -19 -27 3 -73 23 -45 23 -46 5 -66 -10 -11 -23 -19 -28 -17 -14 4 -16
1257 -1 1337 10 56 10 71 -6 110 -23 59 -57 77 -100 55 -34 -18 -50 -13 -50
16 0 10 -9 27 -20 36 -30 26 -24 36 17 30 65 -11 113 56 58 81 -14 7 -33 12
-41 12 -12 0 -14 7 -9 30 11 50 -39 115 -70 90 -16 -13 -34 -85 -32 -125 2
-28 -1 -30 -38 -35 l-40 -5 -3 -57 c-3 -50 -1 -57 18 -63 16 -5 29 0 49 19 32
31 42 32 64 8 21 -23 22 -75 1 -92 -25 -22 -38 -52 -45 -110 -5 -45 -3 -61 13
-87 18 -30 18 -34 3 -56 -11 -17 -15 -42 -12 -88 4 -77 -4 -95 -42 -104 -22
-5 -35 -1 -56 19 -38 36 -55 33 -55 -6 1 -54 17 -108 40 -133 l21 -22 -23 -15
c-21 -14 -21 -18 -10 -56 7 -23 17 -44 23 -48 15 -9 76 52 84 83 20 80 22 4
24 -985 1 -271 -1 -497 -4 -502 -4 -6 -14 -10 -24 -10 -10 0 -31 -10 -46 -22
-25 -19 -31 -20 -59 -9 -55 23 -80 23 -141 0 -52 -19 -75 -37 -175 -140 -84
-86 -128 -123 -163 -138 l-48 -20 -8 22 c-4 12 -11 87 -15 167 -16 348 -41
624 -61 680 -9 25 -27 89 -40 143 -13 53 -32 110 -42 126 -28 43 -74 107 -115
159 -22 26 -38 58 -38 72 0 47 -31 144 -52 167 -18 19 -21 34 -19 78 2 44 -1
56 -14 61 -17 7 -17 33 0 75 4 11 -5 29 -24 52 -17 19 -31 38 -31 42 0 4 12
22 28 41 67 81 112 142 112 151 0 5 9 18 20 28 50 45 -2 152 -105 218 -27 17
-73 53 -100 79 -45 41 -63 50 -155 77 -233 67 -290 79 -334 70 -66 -15 -113
-39 -127 -67 -7 -15 -21 -39 -31 -54 -10 -14 -18 -40 -18 -56 0 -17 -5 -43
-10 -58 -6 -15 -13 -94 -15 -176 l-4 -149 -38 -68 c-33 -61 -36 -71 -23 -86 8
-9 24 -21 36 -25 16 -7 24 -23 33 -70 7 -34 9 -74 6 -90 -5 -24 -2 -32 19 -46
17 -11 36 -14 56 -10 38 7 39 -8 3 -23 -16 -7 -48 -30 -72 -51 -39 -36 -43
-43 -37 -73 5 -25 2 -38 -9 -47 -21 -17 -43 -62 -38 -76 2 -6 -12 -25 -31 -42
-19 -17 -58 -68 -87 -112 -55 -86 -76 -97 -93 -49 -7 22 -3 34 24 74 76 111
85 184 36 305 -33 82 -66 123 -129 165 -130 86 -317 74 -431 -27 -72 -63 -130
-196 -119 -273 4 -32 1 -44 -16 -59 -12 -11 -21 -25 -21 -33 0 -19 29 -64 54
-85 14 -11 22 -33 26 -69 l5 -53 53 -16 c29 -9 64 -28 77 -42 23 -25 27 -25
113 -20 69 3 102 1 147 -13 54 -17 57 -20 51 -46 -4 -21 3 -38 32 -75 32 -42
36 -56 38 -109 1 -51 -3 -66 -27 -101 -32 -47 -48 -117 -31 -137 6 -7 14 -31
18 -53 l6 -41 -50 -21 c-28 -12 -55 -22 -60 -22 -5 0 -30 -18 -55 -40 -25 -22
-50 -40 -56 -40 -5 0 -29 -10 -53 -23 -24 -12 -70 -33 -103 -47 -33 -14 -82
-37 -110 -51 -75 -39 -113 -43 -171 -18 -27 12 -66 36 -86 54 -21 17 -56 37
-78 44 -45 13 -48 18 -55 76 -10 81 -13 538 -4 593 5 31 16 129 23 217 7 88
16 167 20 176 4 10 2 22 -6 30 -8 8 -14 38 -14 69 -1 30 -2 69 -3 85 -8 141
16 201 76 192 26 -5 39 0 60 18 25 21 26 25 14 48 -9 17 -11 40 -7 70 11 71
-5 70 -110 -8 -7 -5 -15 -7 -18 -4 -16 15 -26 662 -15 989 5 178 1 388 -9 455
-7 44 -14 114 -16 155 -3 66 0 82 27 140 16 36 31 72 33 80 1 8 7 34 13 58 8
29 8 49 1 62 -17 31 -66 60 -104 60 -25 0 -34 4 -30 13 3 8 0 26 -6 41 -8 21
-15 26 -30 21 -15 -5 -20 -2 -20 12 0 24 -42 106 -56 110 -6 2 -16 -3 -22 -10z
m37 -104 c1 -7 -3 -13 -9 -13 -5 0 -10 15 -9 33 0 27 2 29 9 12 5 -11 9 -26 9
-32z m-39 -113 c0 -5 -4 -10 -10 -10 -5 0 -10 5 -10 10 0 6 5 10 10 10 6 0 10
-4 10 -10z m180 -14 c0 -16 -18 -31 -27 -22 -8 8 5 36 17 36 5 0 10 -6 10 -14z
m50 -26 c0 -5 -7 -10 -16 -10 -8 0 -12 5 -9 10 3 6 10 10 16 10 5 0 9 -4 9
-10z m-109 -53 c-13 -13 -15 1 -4 30 7 17 8 17 11 -1 2 -10 -1 -23 -7 -29z
m49 -32 c0 -8 -4 -15 -10 -15 -5 0 -7 7 -4 15 4 8 8 15 10 15 2 0 4 -7 4 -15z
m-120 -95 c0 -11 -4 -20 -10 -20 -5 0 -10 9 -10 20 0 11 5 20 10 20 6 0 10 -9
10 -20z m40 -31 c0 -6 -4 -7 -10 -4 -5 3 -10 11 -10 16 0 6 5 7 10 4 6 -3 10
-11 10 -16z m70 -76 c0 -53 -3 -94 -6 -91 -10 10 -13 188 -3 188 5 0 9 -43 9
-97z m-117 -78 c-3 -9 -8 -14 -10 -11 -3 3 -2 9 2 15 9 16 15 13 8 -4z m34
-57 c-2 -13 -4 -3 -4 22 0 25 2 35 4 23 2 -13 2 -33 0 -45z m91 -114 c-11 -12
-13 -8 -10 27 3 22 0 45 -6 51 -7 7 -7 18 1 36 11 24 13 22 21 -37 6 -49 5
-66 -6 -77z m-118 76 c0 -5 -5 -10 -11 -10 -5 0 -7 5 -4 10 3 6 8 10 11 10 2
0 4 -4 4 -10z m30 -110 c0 -5 -5 -10 -11 -10 -5 0 -7 5 -4 10 3 6 8 10 11 10
2 0 4 -4 4 -10z m110 -25 c0 -8 -4 -15 -9 -15 -13 0 -22 16 -14 24 11 11 23 6
23 -9z m-83 -32 c-3 -10 -5 -4 -5 12 0 17 2 24 5 18 2 -7 2 -21 0 -30z m-67
-47 c-7 -7 -10 4 -9 30 1 39 1 39 10 9 5 -18 5 -33 -1 -39z m36 37 c-10 -10
-19 5 -10 18 6 11 8 11 12 0 2 -7 1 -15 -2 -18z m105 -56 c-10 -9 -11 -8 -5 6
3 10 9 15 12 12 3 -3 0 -11 -7 -18z m-135 -24 c-10 -10 -19 5 -10 18 6 11 8
11 12 0 2 -7 1 -15 -2 -18z m34 -5 c0 -16 -3 -19 -11 -11 -6 6 -8 16 -5 22 11
17 16 13 16 -11z m97 -20 c-3 -8 -6 -5 -6 6 -1 11 2 17 5 13 3 -3 4 -12 1 -19z
m-96 -36 c-6 -10 -6 -23 1 -35 11 -21 19 -104 11 -124 -10 -26 -23 -1 -17 32
8 43 -4 65 -22 40 -11 -15 -13 -13 -19 18 -5 28 -2 42 16 66 23 31 47 33 30 3z
m10 -219 c-9 -16 -10 -14 -11 12 0 21 3 26 11 18 8 -8 8 -16 0 -30z m-34 -142
c0 -77 -4 -146 -8 -153 -5 -7 -9 55 -9 140 0 83 4 152 9 152 5 0 9 -63 8 -139z
m43 99 c0 -5 -4 -10 -10 -10 -5 0 -10 5 -10 10 0 6 5 10 10 10 6 0 10 -4 10
-10z m0 -44 c0 -3 -4 -8 -10 -11 -5 -3 -10 -1 -10 4 0 6 5 11 10 11 6 0 10 -2
10 -4z m3178 -28 c-6 -18 -28 -21 -28 -4 0 9 7 16 16 16 9 0 14 -5 12 -12z
m-3179 -45 c-2 -42 -9 -64 -19 -58 -9 5 -11 64 -3 78 10 17 23 5 22 -20z m-4
-132 c3 -5 1 -12 -5 -16 -5 -3 -10 1 -10 9 0 18 6 21 15 7z m-35 -62 c0 -5 -4
-9 -10 -9 -5 0 -10 7 -10 16 0 8 5 12 10 9 6 -3 10 -10 10 -16z m40 7 c0 -3
-4 -8 -10 -11 -5 -3 -10 -1 -10 4 0 6 5 11 10 11 6 0 10 -2 10 -4z m-44 -53
c-10 -10 -19 5 -10 18 6 11 8 11 12 0 2 -7 1 -15 -2 -18z m3354 -27 c0 -8 -4
-18 -10 -21 -5 -3 -10 3 -10 14 0 12 5 21 10 21 6 0 10 -6 10 -14z m-3260 -12
c0 -2 -7 -4 -15 -4 -8 0 -15 4 -15 10 0 5 7 7 15 4 8 -4 15 -8 15 -10z m3260
-38 c0 -3 -4 -8 -10 -11 -5 -3 -10 -1 -10 4 0 6 5 11 10 11 6 0 10 -2 10 -4z
m-3350 -22 c0 -8 -5 -12 -10 -9 -6 4 -8 11 -5 16 9 14 15 11 15 -7z m48 -88
c1 -46 -3 -68 -14 -77 -13 -11 -15 -6 -14 42 3 119 26 148 28 35z m3258 43
c-3 -17 -6 -71 -6 -120 0 -49 -4 -89 -9 -89 -9 0 -15 216 -6 230 14 23 27 9
21 -21z m-3304 -214 c-1 -163 1 -234 10 -258 15 -36 9 -175 -6 -144 -5 9 -6
31 -4 48 4 22 0 34 -14 42 -17 11 -26 47 -10 47 4 0 6 104 4 232 -1 128 0 238
2 245 16 41 21 -11 18 -212z m1474 106 c-9 -10 -16 -24 -16 -32 0 -8 11 -1 26
16 24 29 25 29 18 5 -14 -53 -38 -64 -55 -26 -10 20 -8 30 12 58 19 27 24 29
27 15 2 -10 -3 -26 -12 -36z m-1399 17 c-3 -8 -6 -5 -6 6 -1 11 2 17 5 13 3
-3 4 -12 1 -19z m1503 -4 c0 -8 -4 -12 -10 -9 -5 3 -10 10 -10 16 0 5 5 9 10
9 6 0 10 -7 10 -16z m-43 -54 c-4 -33 -2 -43 14 -53 13 -8 17 -18 12 -35 -3
-15 0 -27 10 -35 9 -7 17 -23 19 -36 4 -29 50 -46 80 -30 23 12 38 4 38 -21 0
-27 29 -52 53 -46 22 5 70 -21 61 -35 -8 -13 -73 -39 -98 -39 -11 0 -36 -9
-54 -20 -18 -11 -45 -20 -60 -20 -15 0 -49 -11 -77 -26 -42 -21 -55 -24 -78
-15 l-27 11 16 39 c14 35 14 43 1 68 -11 21 -12 32 -4 45 8 13 8 27 -2 53 -16
45 -6 91 25 111 14 10 24 26 24 40 0 12 5 26 11 29 5 4 14 18 19 31 14 37 23
28 17 -16z m1793 14 c0 -8 -4 -12 -10 -9 -5 3 -10 10 -10 16 0 5 5 9 10 9 6 0
10 -7 10 -16z m-3290 -39 c0 -8 -4 -15 -10 -15 -5 0 -10 7 -10 15 0 8 5 15 10
15 6 0 10 -7 10 -15z m2 -70 c0 -25 1 -50 2 -57 1 -6 -4 -13 -10 -15 -7 -2
-10 18 -10 57 0 69 15 83 18 15z m1354 -69 c1 -37 -2 -43 -18 -38 -10 2 -18 6
-18 8 0 8 29 74 32 74 2 0 3 -20 4 -44z m274 12 c0 -13 -23 -5 -28 10 -2 7 2
10 12 6 9 -3 16 -11 16 -16z m1657 -35 c-3 -10 -5 -4 -5 12 0 17 2 24 5 18 2
-7 2 -21 0 -30z m-3231 -103 c13 0 24 -4 24 -9 0 -13 -10 -18 -44 -22 -25 -3
-29 0 -31 21 -1 14 -6 34 -10 45 -6 14 -1 11 14 -7 13 -17 32 -28 47 -28z
m3280 -60 c1 -17 -3 -30 -7 -30 -5 0 -9 14 -9 30 0 39 15 39 16 0z m-76 -45
c0 -11 -5 -27 -10 -35 -7 -11 -10 -1 -10 35 0 36 3 46 10 35 5 -8 10 -24 10
-35z m-2605 -35 c-3 -5 -12 -10 -18 -10 -7 0 -6 4 3 10 19 12 23 12 15 0z
m302 -42 c-2 -13 -4 -5 -4 17 -1 22 1 32 4 23 2 -10 2 -28 0 -40z m-177 32
c-19 -13 -30 -13 -30 0 0 6 10 10 23 10 18 0 19 -2 7 -10z m-705 -20 c3 -5 -1
-10 -10 -10 -9 0 -13 5 -10 10 3 6 8 10 10 10 2 0 7 -4 10 -10z m799 -32 c-3
-4 -14 -8 -25 -8 -28 0 -22 -42 9 -55 22 -10 29 -29 14 -39 -12 -7 -26 6 -40
38 -9 21 -18 27 -32 23 -11 -3 -23 -1 -26 4 -3 5 -14 9 -25 9 -25 0 -24 8 4
30 14 12 31 17 49 13 14 -3 34 0 44 5 19 11 38 -3 28 -20z m-927 -40 c-2 -13
-4 -5 -4 17 -1 22 1 32 4 23 2 -10 2 -28 0 -40z m720 -2 c-10 -8 -22 -27 -26
-43 -9 -36 -35 -37 -39 -1 -2 20 3 30 25 41 38 20 65 22 40 3z m-112 -53 c0
-53 2 -57 25 -63 17 -4 26 -14 29 -30 3 -24 2 -24 -16 -7 -23 20 -44 22 -62 5
-11 -11 -13 -1 -8 60 3 39 9 77 12 82 14 22 20 7 20 -47z m-575 5 c0 -16 -3
-19 -11 -11 -6 6 -8 16 -5 22 11 17 16 13 16 -11z m73 1 c-12 -4 -24 -12 -28
-18 -9 -15 -25 -14 -25 2 0 17 40 36 59 29 10 -4 9 -7 -6 -13z m725 -40 c-29
-19 -40 -9 -17 16 20 20 25 21 27 8 2 -8 -2 -19 -10 -24z m173 19 c1 -7 3 -20
4 -28 1 -8 3 -21 4 -27 0 -7 14 -19 30 -28 28 -14 33 -13 78 10 l48 24 3 -24
c8 -61 -53 -180 -110 -215 -25 -15 -44 -18 -88 -14 -40 4 -70 0 -110 -14 -57
-21 -70 -20 -70 4 0 8 5 12 10 9 6 -4 27 -4 48 0 28 5 45 17 69 51 31 42 33
47 30 124 -2 44 -6 83 -10 87 -9 9 32 53 50 53 7 0 14 -6 14 -12z m-973 -40
c-3 -26 -38 -38 -38 -14 0 9 5 16 11 16 5 0 7 5 4 10 -3 6 1 10 10 10 11 0 15
-7 13 -22z m704 -62 c-3 -5 -9 1 -14 13 -4 13 -5 28 -1 34 8 14 23 -33 15 -47z
m-661 1 c-8 -8 -11 -5 -11 9 0 27 14 41 18 19 2 -9 -1 -22 -7 -28z m769 -107
c12 19 23 7 23 -25 0 -29 -16 -50 -31 -41 -18 11 -36 96 -23 109 6 6 12 25 13
42 1 16 3 1 5 -35 3 -43 7 -60 13 -50z m-760 80 c0 -5 -5 -10 -11 -10 -5 0 -7
5 -4 10 3 6 8 10 11 10 2 0 4 -4 4 -10z m3240 0 c0 -5 -5 -10 -11 -10 -5 0 -7
5 -4 10 3 6 8 10 11 10 2 0 4 -4 4 -10z m-2710 -64 c-7 -7 -10 1 -9 25 0 32 1
33 10 10 6 -16 6 -28 -1 -35z m-60 1 c0 -20 -1 -20 -16 -5 -9 9 -13 21 -9 27
10 16 25 3 25 -22z m2770 12 c0 -11 -4 -18 -10 -14 -5 3 -7 12 -3 20 7 21 13
19 13 -6z m-3287 -24 c-7 -21 -13 -19 -13 6 0 11 4 18 10 14 5 -3 7 -12 3 -20z
m699 3 c-7 -7 -12 -8 -12 -2 0 14 12 26 19 19 2 -3 -1 -11 -7 -17z m-72 -23
c-8 -9 -10 -28 -6 -52 l6 -38 -14 30 c-11 26 -11 34 2 57 9 15 18 25 20 23 3
-3 -1 -11 -8 -20z m2663 -120 c4 -104 8 -131 21 -140 9 -7 15 -25 15 -41 -1
-18 -3 -22 -6 -11 -3 10 -10 16 -16 14 -8 -2 -13 -38 -14 -103 -2 -87 -1 -96
11 -75 9 16 16 20 20 12 8 -13 -2 -444 -10 -473 -3 -10 -12 -18 -20 -18 -8 0
-14 -9 -14 -19 0 -11 -3 -22 -7 -24 -7 -5 -8 127 -5 754 2 213 5 269 18 256 2
-1 5 -61 7 -132z m32 126 c3 -5 1 -12 -5 -16 -5 -3 -10 1 -10 9 0 18 6 21 15
7z m2 -115 c5 -84 -11 -107 -19 -27 -5 51 1 116 9 107 3 -3 7 -39 10 -80z
m-3322 -140 c0 -117 -4 -186 -10 -186 -8 0 -10 120 -5 373 0 5 3 6 8 4 4 -3 7
-89 7 -191z m3629 185 c3 -4 -1 -17 -9 -27 -16 -23 -40 -7 -29 19 7 18 29 23
38 8z m-3054 -52 c0 -5 -4 -9 -10 -9 -5 0 -10 7 -10 16 0 8 5 12 10 9 6 -3 10
-10 10 -16z m408 -19 c40 -24 52 -25 52 -3 0 14 2 14 20 -2 25 -23 25 -33 -4
-69 l-24 -28 -53 18 c-39 13 -85 18 -166 18 -112 1 -113 1 -113 25 0 20 2 21
15 11 12 -10 20 -9 40 4 13 9 33 16 44 16 10 0 34 7 52 15 48 20 98 18 137 -5z
m469 -90 c6 -30 12 -104 13 -165 0 -60 5 -128 9 -150 4 -22 4 -56 -1 -76 -4
-19 -9 -87 -11 -150 -5 -122 -22 -179 -73 -234 -13 -14 -24 -29 -24 -34 0 -27
-157 -91 -225 -91 -13 0 -55 -12 -92 -26 -37 -14 -86 -29 -108 -33 -22 -5 -52
-12 -67 -16 -22 -6 -28 -4 -28 8 0 28 -20 29 -51 3 -17 -14 -35 -26 -40 -26
-5 0 -14 -11 -19 -24 -7 -19 -19 -26 -54 -31 -50 -8 -64 -3 -76 30 -5 12 -19
24 -33 27 -19 4 -26 -1 -36 -24 -12 -27 -14 -28 -31 -13 -11 10 -24 14 -29 10
-6 -3 -19 -4 -29 -1 -14 5 -17 14 -14 41 2 19 7 33 11 31 4 -3 12 8 19 24 7
15 24 31 37 34 13 3 36 17 52 30 15 13 46 29 68 35 45 14 74 26 125 51 39 19
68 17 50 -5 -13 -16 11 -38 37 -33 12 2 21 19 30 57 6 30 20 61 30 70 10 9 12
10 5 2 -15 -18 -16 -107 -1 -116 7 -5 4 -14 -7 -26 -9 -11 -15 -22 -11 -25 3
-3 11 4 17 16 8 14 17 19 30 15 19 -6 46 25 34 38 -14 13 18 106 42 121 35 24
52 20 87 -19 54 -61 85 -40 37 26 -46 64 -40 91 10 44 24 -23 28 -24 39 -11
11 13 9 20 -8 42 -11 14 -19 29 -17 33 2 3 16 51 31 106 14 55 33 110 40 122
8 12 12 29 9 37 -3 9 -3 24 2 34 4 9 8 26 10 37 3 33 37 117 64 159 14 22 29
48 35 58 11 21 64 49 85 45 9 -1 19 -22 27 -57z m1923 52 c0 -13 -12 -22 -22
-16 -10 6 -1 24 13 24 5 0 9 -4 9 -8z m204 -38 c4 -9 4 -19 2 -21 -8 -8 -26 8
-26 23 0 19 16 18 24 -2z m-262 -26 c-7 -7 -12 -8 -12 -2 0 14 12 26 19 19 2
-3 -1 -11 -7 -17z m38 -42 c-8 -8 -10 -4 -6 19 6 41 8 44 13 16 3 -13 0 -28
-7 -35z m-2306 -21 c-6 -16 -34 -21 -34 -7 0 13 11 22 26 22 8 0 11 -6 8 -15z
m2321 -25 c-5 -8 -11 -8 -17 -2 -6 6 -7 16 -3 22 5 8 11 8 17 2 6 -6 7 -16 3
-22z m-45 -74 c0 -19 -4 -38 -10 -41 -6 -4 -10 10 -10 34 0 23 5 41 10 41 6 0
10 -15 10 -34z m40 4 c0 -19 -11 -26 -23 -14 -8 8 3 34 14 34 5 0 9 -9 9 -20z
m-3373 -107 c-3 -10 -5 -4 -5 12 0 17 2 24 5 18 2 -7 2 -21 0 -30z m3373 22
c0 -8 -4 -15 -10 -15 -5 0 -10 7 -10 15 0 8 5 15 10 15 6 0 10 -7 10 -15z
m-3369 -100 c-7 -56 -27 -56 -22 0 3 44 9 58 20 51 4 -3 5 -25 2 -51z m3369
-15 c0 -5 -4 -10 -10 -10 -5 0 -10 5 -10 10 0 6 5 10 10 10 6 0 10 -4 10 -10z
m-3370 -69 c0 -11 -4 -23 -10 -26 -6 -4 -10 5 -10 19 0 14 5 26 10 26 6 0 10
-9 10 -19z m3579 -134 c12 -34 23 -66 23 -72 0 -5 9 -21 19 -34 20 -24 26 -61
10 -61 -4 0 -26 14 -47 31 -35 28 -44 30 -87 25 -58 -8 -62 -1 -53 87 7 60 9
64 39 74 64 21 70 18 96 -50z m-3559 -29 c0 -17 -5 -28 -13 -28 -10 0 -14 15
-15 47 0 44 1 46 14 29 8 -11 14 -32 14 -48z m3340 42 c0 -5 -4 -10 -10 -10
-5 0 -10 5 -10 10 0 6 5 10 10 10 6 0 10 -4 10 -10z m-3370 -141 c0 -5 -4 -9
-10 -9 -5 0 -10 7 -10 16 0 8 5 12 10 9 6 -3 10 -10 10 -16z m3940 -9 c-37
-31 -50 -36 -50 -20 0 18 40 50 63 50 20 -1 19 -3 -13 -30z m-3910 -12 c0 -16
-3 -19 -11 -11 -6 6 -8 16 -5 22 11 17 16 13 16 -11z m3380 18 c0 -3 -4 -8
-10 -11 -5 -3 -10 -1 -10 4 0 6 5 11 10 11 6 0 10 -2 10 -4z m-324 -56 c1 -22
-1 -28 -7 -19 -6 11 -11 11 -21 1 -9 -9 -9 -12 0 -12 9 0 11 -10 6 -35 -6 -32
-4 -35 18 -35 25 0 52 16 95 56 14 13 29 24 34 24 16 0 31 -302 15 -318 -4 -3
-15 -1 -24 5 -10 6 -40 8 -70 5 -42 -4 -57 -1 -73 14 -12 11 -37 19 -60 20
-67 2 -67 17 0 70 33 27 61 54 61 60 0 6 7 17 15 24 17 14 10 34 -10 26 -7 -2
-17 0 -22 5 -6 6 -14 4 -23 -6 -10 -12 -10 -15 0 -15 9 0 7 -6 -5 -20 -10 -11
-21 -17 -26 -15 -9 6 -79 -58 -79 -73 0 -11 -30 -25 -38 -17 -3 3 3 12 14 20
15 12 16 14 3 15 -8 0 -26 -10 -39 -22 -15 -15 -25 -18 -28 -10 -2 8 -8 7 -19
-4 -8 -8 -12 -18 -9 -22 4 -3 11 0 16 8 8 12 10 12 10 -4 0 -20 -26 -45 -47
-46 -7 0 -10 7 -7 15 7 18 -14 47 -27 39 -5 -3 -9 -14 -9 -24 0 -22 -19 -37
-29 -23 -10 17 -51 -4 -51 -26 0 -20 -37 -54 -50 -46 -4 3 -7 19 -5 37 1 18
-3 36 -9 40 -8 5 -8 12 2 25 7 10 15 25 18 35 3 9 28 25 54 36 42 18 51 18 61
6 18 -22 27 -17 21 13 -4 20 1 32 20 47 13 12 35 36 47 54 12 17 27 32 33 32
6 0 17 8 24 18 12 16 13 16 19 0 11 -27 29 -22 50 15 19 31 20 31 23 8 2 -13
-6 -36 -17 -52 -13 -17 -17 -29 -10 -29 7 0 18 -8 25 -17 10 -15 15 -16 25 -5
10 9 10 12 1 12 -7 0 -12 7 -12 15 0 8 7 15 15 15 20 0 19 15 -2 47 l-18 26
33 -6 c23 -5 32 -3 32 7 0 7 7 19 15 26 8 7 12 17 9 22 -5 7 0 7 12 0 11 -6
19 -23 20 -42z m-81 30 c3 -5 1 -10 -4 -10 -6 0 -11 5 -11 10 0 6 2 10 4 10 3
0 8 -4 11 -10z m155 0 c0 -5 -4 -10 -10 -10 -5 0 -10 5 -10 10 0 6 5 10 10 10
6 0 10 -4 10 -10z m702 5 c8 -9 -18 -76 -33 -86 -44 -28 -51 3 -11 54 27 37
34 41 44 32z m-3755 -31 c-9 -9 -28 6 -21 18 4 6 10 6 17 -1 6 -6 8 -13 4 -17z
m-107 1 c0 -8 -4 -15 -10 -15 -5 0 -10 7 -10 15 0 8 5 15 10 15 6 0 10 -7 10
-15z m27 -30 c-5 -31 -3 -35 16 -36 17 0 14 -4 -13 -14 -57 -22 -67 -19 -75
21 -7 42 0 55 18 30 12 -17 14 -16 30 8 24 35 31 33 24 -9z m3293 5 c0 -16 -4
-30 -10 -30 -11 0 -14 43 -3 53 11 12 13 8 13 -23z m-3133 -12 c15 -7 45 -27
67 -46 21 -19 61 -43 88 -55 47 -19 49 -22 44 -51 -3 -17 -2 -45 3 -62 14 -51
5 -55 -122 -59 -64 -2 -125 -8 -136 -14 -26 -14 -31 -14 -25 3 3 8 18 16 33
19 25 5 28 10 28 46 0 40 -14 56 -41 45 -7 -3 -16 2 -19 10 -4 11 1 18 18 22
15 4 25 13 25 24 0 23 -26 33 -50 20 -27 -14 -142 -29 -159 -20 -14 8 60 30
100 30 38 0 128 33 134 49 3 8 -1 21 -9 27 -15 11 -21 24 -11 24 2 0 17 -5 32
-12z m1268 -166 c-3 -9 -13 -12 -28 -8 -23 5 -23 4 -26 -82 -2 -106 9 -146 40
-137 19 6 20 4 14 -27 -10 -45 -10 -45 -46 -46 -18 0 -50 -4 -73 -8 -37 -6
-39 -5 -27 10 11 13 12 24 2 55 -22 75 -7 211 24 211 22 0 28 19 11 36 -25 24
-19 35 47 90 l62 50 3 -64 c2 -36 0 -72 -3 -80z m1861 102 c-3 -9 -6 -20 -6
-25 0 -6 -4 -8 -9 -5 -12 8 -2 46 11 46 6 0 7 -7 4 -16z m-3226 -104 c0 -14
-24 -23 -47 -17 -15 3 -14 6 7 15 32 14 40 14 40 2z m3220 -20 c0 -5 -2 -10
-4 -10 -3 0 -8 5 -11 10 -3 6 -1 10 4 10 6 0 11 -4 11 -10z m40 0 c0 -5 -4
-10 -10 -10 -5 0 -10 5 -10 10 0 6 5 10 10 10 6 0 10 -4 10 -10z m-2377 -87
c-3 -27 -10 -56 -14 -65 -5 -9 -9 -26 -9 -38 0 -20 -4 -21 -37 -16 -21 4 -63
8 -93 11 -30 2 -62 6 -71 10 -8 3 -44 -3 -80 -15 -67 -21 -129 -26 -129 -11 0
18 36 48 75 63 22 8 74 26 115 39 41 12 85 29 97 37 12 7 26 11 31 8 6 -3 27
1 48 8 69 25 74 23 67 -31z m2377 28 c0 -11 -4 -23 -10 -26 -6 -4 -10 5 -10
19 0 14 5 26 10 26 6 0 10 -9 10 -19z m-39 -68 c1 -43 1 -84 0 -90 -1 -7 3
-13 8 -13 5 0 10 21 9 48 0 72 1 84 10 78 10 -6 7 -250 -3 -266 -12 -19 -25 1
-19 28 4 21 3 24 -5 12 -6 -8 -11 -35 -12 -60 0 -25 -4 -65 -8 -90 l-7 -45 -6
38 c-8 42 -1 392 8 420 12 40 24 12 25 -60z m-2832 4 c10 -30 10 -42 1 -50
-24 -25 -51 44 -34 88 8 20 16 11 33 -38z m2398 0 c-10 -16 -25 -24 -46 -25
-17 0 -46 -12 -64 -26 -20 -16 -47 -26 -66 -26 -18 0 -50 -10 -71 -22 -21 -13
-42 -20 -45 -16 -11 11 4 28 24 28 10 0 37 14 59 30 27 20 54 30 76 30 20 0
58 13 88 29 29 16 55 28 57 26 2 -3 -3 -15 -12 -28z m-2789 1 c-3 -7 -24 -13
-49 -14 l-44 -2 35 13 c45 17 63 18 58 3z m2926 2 c14 -5 26 -16 26 -24 0 -24
26 -38 39 -22 13 15 81 20 81 5 0 -4 -19 -17 -42 -27 -34 -14 -49 -16 -70 -8
-21 8 -36 7 -60 -3 -18 -8 -50 -15 -71 -16 -38 -2 -77 -28 -77 -51 0 -8 -16
-11 -56 -9 -31 2 -58 6 -61 9 -9 8 -75 -23 -89 -42 -7 -9 -14 -27 -14 -39 0
-16 -6 -23 -19 -23 -48 0 -35 56 19 88 22 12 40 27 40 33 0 19 44 28 62 12 16
-14 21 -12 58 21 40 36 64 44 75 26 11 -18 25 -11 46 24 11 19 32 39 47 45 36
13 37 13 66 1z m-2603 -56 l25 -54 -28 0 c-15 0 -42 9 -60 20 -40 24 -58 25
-137 4 -70 -18 -84 -13 -75 24 13 54 22 57 164 59 l85 1 26 -54z m3199 8 c0
-13 -12 -22 -22 -16 -10 6 -1 24 13 24 5 0 9 -4 9 -8z m-3620 -28 c0 -7 -7
-15 -16 -18 -23 -9 -24 -8 -24 12 0 11 7 18 20 18 11 0 20 -6 20 -12z m1257
-26 c-3 -8 -6 -5 -6 6 -1 11 2 17 5 13 3 -3 4 -12 1 -19z m2601 0 c19 -19 14
-38 -13 -48 -14 -5 -25 -15 -25 -21 0 -17 -109 -119 -128 -119 -13 0 -12 5 8
20 20 15 22 21 13 31 -19 19 -65 -1 -81 -34 -11 -22 -20 -27 -48 -27 -32 0
-34 2 -24 21 7 13 19 19 33 17 14 -2 23 3 25 15 3 13 -3 17 -27 17 -25 0 -31
4 -31 21 0 12 8 23 20 26 13 3 20 14 20 28 0 68 27 72 36 5 8 -62 29 -83 52
-54 21 25 58 42 97 46 21 2 31 9 33 23 7 47 17 56 40 33z m-663 -32 c8 -19 19
-37 25 -41 12 -7 14 -65 2 -65 -5 0 -17 7 -28 15 -28 21 -49 18 -84 -12 -31
-26 -38 -27 -162 -30 -115 -3 -262 8 -274 20 -9 9 20 57 34 57 9 0 26 -10 40
-22 l23 -23 18 23 17 24 30 -25 c36 -30 60 -22 51 15 -4 15 -1 32 8 44 15 18
16 18 36 -8 27 -36 48 -35 55 2 12 58 46 62 76 10 21 -37 36 -38 49 -2 22 59
63 68 84 18z m-2403 -11 c19 -17 28 -21 31 -11 7 16 86 18 83 2 -2 -6 -1 -8 1
-3 3 4 13 7 24 7 27 0 26 -55 0 -72 -16 -10 -18 -15 -8 -26 6 -8 12 -41 13
-74 l1 -60 -31 6 c-195 37 -230 40 -491 43 -254 2 -270 3 -267 20 1 10 4 40 6
68 2 27 9 51 15 53 6 2 11 11 11 19 0 10 -6 13 -16 9 -9 -3 -12 -2 -8 5 3 6
17 8 29 5 14 -4 29 0 39 9 16 17 62 20 71 5 3 -5 12 -7 21 -3 17 6 54 -23 54
-43 0 -8 6 -11 15 -8 8 4 13 10 10 14 -3 5 -1 11 5 15 5 3 10 -1 10 -10 0 -12
8 -14 39 -9 33 5 40 3 43 -12 3 -16 6 -14 18 11 12 23 23 31 49 33 19 2 37 -2
41 -9 4 -6 13 -8 19 -5 6 4 9 12 6 17 -4 5 6 9 22 10 15 0 37 4 48 9 36 15 70
10 97 -15z m-884 -25 c0 -20 -4 -30 -14 -30 -21 0 -17 -17 6 -23 25 -6 27 -40
3 -35 -11 2 -22 18 -27 41 -9 35 -28 48 -41 27 -11 -17 -22 -11 -27 15 -5 23
-3 25 28 21 18 -3 38 -7 44 -11 5 -3 10 1 10 9 0 30 17 16 18 -14z m-127 -12
c7 -13 4 -13 -26 -4 -36 11 -39 24 -4 21 12 -1 25 -8 30 -17z m224 -50 c1 -35
-12 -61 -26 -52 -5 3 -9 31 -9 62 0 52 1 55 17 40 9 -9 17 -32 18 -50z m3393
40 c-6 -18 -28 -21 -28 -4 0 9 7 16 16 16 9 0 14 -5 12 -12z m97 -45 c16 -22
8 -43 -16 -43 -14 0 -19 7 -19 30 0 33 16 39 35 13z m-325 -33 c0 -5 14 -16
30 -25 18 -9 30 -23 30 -35 0 -25 -4 -25 -61 3 -41 19 -46 25 -38 45 8 22 39
32 39 12z m176 -44 c-3 -14 -11 -26 -16 -26 -11 0 -14 53 -3 64 13 12 26 -13
19 -38z m-534 -7 c16 -12 42 -21 56 -21 15 0 38 -7 51 -15 19 -12 39 -14 95
-8 69 7 70 6 53 -13 -14 -15 -36 -20 -110 -25 -50 -4 -102 -9 -115 -13 -21 -6
-22 -5 -11 19 6 14 9 33 5 43 -6 14 -21 16 -131 12 -124 -4 -125 -4 -125 18 0
20 6 23 48 27 88 7 152 -2 184 -24z m-2904 -1 c-3 -8 -17 -12 -34 -10 -16 2
-78 3 -139 4 -133 0 -81 12 74 16 81 3 102 0 99 -10z m1456 -2 c25 4 52 1 65
-5 l22 -12 -7 -332 c-4 -183 -6 -521 -5 -752 1 -434 -2 -511 -22 -518 -7 -2
-30 -2 -51 1 l-39 5 8 141 c4 77 9 242 11 366 2 124 7 246 12 272 18 94 -34
91 -55 -3 l-13 -54 6 82 c3 46 10 98 15 115 5 18 9 55 9 83 0 27 7 77 15 110
8 33 14 79 15 103 0 36 -3 42 -20 42 -14 0 -26 -11 -35 -32 -13 -30 -13 -25
-9 62 3 52 12 144 19 204 7 60 12 114 11 120 -2 6 -1 8 1 4 3 -4 24 -5 47 -2z
m2394 -29 c30 -32 18 -40 -63 -44 -33 -1 -54 0 -47 3 6 3 12 13 12 22 0 9 10
26 21 38 24 26 39 22 77 -19z m-2499 17 c-6 -8 -15 -29 -19 -47 -8 -31 -8 -30
-9 13 -1 39 2 46 20 47 17 2 18 -1 8 -13z m2336 -13 c0 -7 -18 -19 -39 -26
-22 -8 -50 -26 -62 -42 -26 -31 -31 -18 -12 33 6 18 21 37 32 42 30 13 81 9
81 -7z m-255 -66 c0 -58 -14 -74 -23 -27 -6 33 2 82 14 82 5 0 9 -25 9 -55z
m-3334 25 c10 0 14 -13 14 -48 0 -48 -15 -153 -27 -182 -10 -26 -11 -70 -2
-76 5 -3 9 -20 9 -39 0 -45 10 -71 21 -54 4 8 11 11 14 7 10 -9 -5 -49 -15
-43 -19 12 -24 -28 -21 -182 1 -89 -1 -168 -5 -175 -9 -15 -9 -77 2 -102 5
-14 3 -17 -7 -14 -22 7 -27 110 -23 513 4 339 9 441 21 408 3 -7 11 -13 19
-13z m719 1 c28 -5 71 -12 98 -16 35 -5 52 -13 63 -31 9 -13 23 -24 30 -24 16
0 18 -46 8 -124 -6 -39 -12 -49 -33 -58 -61 -24 -215 -47 -341 -52 -74 -2
-136 -5 -138 -5 -1 -1 0 -12 4 -25 7 -28 5 -28 -101 -46 -38 -6 -90 -15 -115
-20 -77 -15 -80 -3 -65 253 5 80 13 141 19 145 28 18 477 20 571 3z m1932 -12
c-23 -12 -46 -17 -55 -14 -14 6 -11 10 13 21 17 7 41 13 55 13 22 0 21 -2 -13
-20z m573 -19 c0 -28 -2 -30 -37 -30 -21 0 -45 5 -53 10 -13 8 -12 10 3 10 11
0 30 9 44 20 35 27 43 25 43 -10z m600 -52 c7 -33 5 -47 -7 -60 -22 -25 -1
-50 35 -41 24 6 25 5 20 -34 -10 -70 20 -94 60 -48 29 33 52 23 52 -22 0 -33
-2 -35 -26 -30 -15 3 -39 1 -55 -3 -31 -9 -43 0 -53 43 -5 23 -12 27 -39 27
-40 -1 -64 -18 -69 -50 -3 -23 -7 -25 -70 -28 -64 -3 -92 9 -48 21 22 6 26 28
10 58 -15 27 14 37 40 14 14 -13 23 -14 39 -5 12 6 21 8 21 4 0 -3 7 -1 15 6
19 16 2 40 -24 33 -11 -3 -24 5 -35 22 l-17 26 28 -3 c26 -3 28 -1 28 37 0 36
2 40 23 37 13 -2 24 3 27 12 3 9 7 24 10 33 9 26 26 1 35 -49z m-1032 33 c-23
-38 36 -70 132 -71 l45 -1 -60 -54 c-33 -30 -63 -55 -67 -55 -4 0 -10 21 -14
48 -8 60 -28 82 -72 82 -27 0 -42 -8 -68 -36 -19 -19 -34 -44 -34 -54 0 -11
-5 -31 -12 -45 -10 -22 -9 -31 7 -57 17 -30 17 -32 0 -45 -43 -31 -47 -22 -60
177 l-6 86 68 17 c37 9 86 18 108 20 22 2 41 4 43 5 1 1 -3 -7 -10 -17z m516
-761 c-2 -377 -6 -701 -9 -720 -10 -51 -14 -113 -15 -225 -1 -63 -4 -93 -10
-80 -8 20 -3 348 6 374 4 11 5 557 2 876 0 39 1 178 2 310 2 210 3 234 14 195
10 -34 12 -210 10 -730z m-194 755 c0 -3 -17 -12 -37 -20 -29 -12 -44 -13 -61
-6 -13 6 -49 12 -80 13 -56 2 -56 2 18 8 106 9 160 11 160 5z m280 -11 c0 -8
-5 -12 -10 -9 -6 4 -8 11 -5 16 9 14 15 11 15 -7z m-2165 -13 c3 -5 1 -12 -5
-16 -5 -3 -10 1 -10 9 0 18 6 21 15 7z m1900 -30 c-6 -5 -23 -12 -40 -15 l-30
-6 30 14 c35 18 54 20 40 7z m100 -1 c3 -5 1 -10 -4 -10 -6 0 -11 5 -11 10 0
6 2 10 4 10 3 0 8 -4 11 -10z m-2008 -177 c-3 -87 -11 -171 -17 -188 -10 -31
-7 128 7 278 11 120 16 71 10 -90z m2263 147 c0 -5 -2 -10 -4 -10 -3 0 -8 5
-11 10 -3 6 -1 10 4 10 6 0 11 -4 11 -10z m-347 -51 c-8 -16 -13 -39 -10 -50
8 -29 -6 -23 -25 11 -20 35 -49 39 -78 10 -24 -24 -25 -48 -5 -76 13 -20 11
-34 -6 -34 -4 0 -11 9 -14 20 -3 11 -17 23 -31 26 -13 3 -24 9 -24 13 1 22
154 110 192 111 15 0 15 -3 1 -31z m97 5 c0 -18 -4 -18 -24 5 -17 19 -17 19 3
14 12 -3 21 -12 21 -19z m-2080 -82 c0 -37 -9 -100 -20 -140 -11 -41 -23 -120
-26 -180 -6 -119 -8 -132 -25 -132 -14 0 -3 244 12 272 6 10 14 66 19 123 5
58 12 110 15 115 16 26 25 4 25 -58z m1730 4 c0 -11 -100 -74 -104 -67 -7 10
12 27 57 51 33 18 47 23 47 16z m350 -36 c0 -23 -4 -24 -31 -10 -27 15 -24 30
6 30 18 0 25 -5 25 -20z m-2337 -128 c-3 -70 -7 -128 -8 -130 -1 -1 -15 2 -31
8 -15 6 -39 8 -51 5 -26 -6 -103 -72 -103 -87 0 -5 14 -22 32 -38 l32 -29 -30
-11 c-16 -6 -36 -17 -44 -24 -8 -8 -39 -16 -68 -20 -50 -6 -53 -5 -62 19 -5
14 -17 28 -26 32 -21 8 -84 -23 -84 -41 0 -8 -5 -18 -11 -21 -17 -11 -99 -12
-179 -3 -105 13 -126 34 -128 126 -1 37 -4 95 -7 129 l-5 60 43 6 c270 39 307
50 307 88 0 17 8 19 81 19 82 0 271 24 312 39 12 5 25 7 29 5 4 -3 4 -62 1
-132z m2931 112 c8 -21 8 -54 0 -54 -12 0 -33 34 -34 53 0 21 26 23 34 1z
m-934 -24 c-11 -20 -30 -28 -30 -12 0 11 22 32 32 32 5 0 4 -9 -2 -20z m-80
-31 c0 -5 -10 -9 -21 -9 -18 0 -19 2 -9 15 12 15 30 12 30 -6z m330 -10 c34
-20 34 -20 5 -13 -16 4 -46 8 -65 8 -41 2 -63 13 -54 28 9 13 70 1 114 -23z
m90 -45 c0 -49 -2 -54 -22 -54 -22 0 -88 34 -88 45 0 3 15 4 33 3 28 -3 32 0
30 20 -2 14 3 22 12 22 8 0 15 7 15 16 0 8 5 12 10 9 6 -3 10 -31 10 -61z
m-579 26 c-13 -11 -31 -20 -40 -20 -12 1 -11 5 8 20 13 11 31 20 40 20 12 -1
11 -5 -8 -20z m1135 -1 c10 -12 45 -34 76 -50 48 -24 61 -27 82 -18 27 13 56
6 56 -11 0 -14 -247 -12 -308 2 -46 11 -51 29 -11 38 17 4 25 14 27 33 3 22 8
27 31 27 16 0 36 -9 47 -21z m98 15 c15 -6 23 -34 10 -34 -15 0 -44 22 -39 31
7 11 9 11 29 3z m-1026 -61 c9 -9 42 -13 98 -13 74 0 95 -4 174 -37 84 -34 90
-38 90 -66 l0 -29 -31 26 c-49 42 -71 44 -178 16 -40 -10 -46 -9 -67 11 -16
15 -31 20 -48 17 -16 -3 -31 1 -38 9 -35 42 -110 31 -137 -21 -8 -14 -25 -29
-38 -31 -13 -3 -34 -7 -48 -10 -24 -5 -25 -4 -25 54 l0 60 38 6 c20 3 48 8 62
11 108 22 123 22 148 -3z m-1601 -105 c-2 -13 -4 -5 -4 17 -1 22 1 32 4 23 2
-10 2 -28 0 -40z m-72 -53 c-4 -36 -10 -64 -12 -61 -3 2 -2 34 2 71 4 36 10
64 12 61 3 -2 2 -34 -2 -71z m1631 64 c9 -16 -17 -59 -36 -59 -15 0 -16 5 -6
35 11 35 29 45 42 24z m104 -44 l23 -25 -26 -21 c-17 -13 -27 -31 -27 -47 -1
-22 -10 -31 -45 -49 -24 -12 -53 -19 -64 -16 -18 4 -21 13 -21 55 0 50 0 50
28 44 62 -16 67 -14 64 26 -3 27 1 39 15 47 25 14 27 14 53 -14z m238 -9 l24
-21 -49 -5 c-41 -4 -48 -8 -51 -29 -4 -24 -4 -24 -32 8 -18 20 -38 31 -55 31
-16 0 -24 4 -20 11 4 6 19 7 36 4 21 -5 36 -1 56 14 30 24 55 21 91 -13z m415
3 c44 -4 89 -4 100 0 50 18 347 -9 347 -31 0 -4 -126 -8 -280 -8 l-280 0 0 31
c0 26 3 30 18 24 9 -4 52 -11 95 -16z m-2328 -96 c-4 -30 -9 -52 -12 -49 -3 3
-2 36 2 73 5 37 10 60 13 49 2 -10 1 -43 -3 -73z m1463 65 c21 -26 2 -67 -44
-92 -45 -25 -54 -21 -46 20 2 12 13 24 23 27 10 3 19 14 19 24 0 33 28 45 48
21z m636 -3 c-4 -8 -8 -15 -10 -15 -2 0 -4 7 -4 15 0 8 4 15 10 15 5 0 7 -7 4
-15z m-328 -60 c9 -23 21 -35 34 -35 15 0 20 -7 20 -29 0 -25 -4 -30 -22 -28
-13 0 -33 9 -46 18 -13 10 -29 16 -36 13 -19 -7 -32 76 -14 88 27 17 49 8 64
-27z m204 15 c0 -5 -2 -10 -4 -10 -3 0 -8 5 -11 10 -3 6 -1 10 4 10 6 0 11 -4
11 -10z m-7 -41 c15 0 17 -15 19 -162 2 -210 -1 -410 -8 -623 -7 -210 -9 -234
-18 -235 -19 -2 -65 22 -99 52 l-38 34 10 200 c6 110 13 316 15 459 4 182 9
263 18 273 8 10 22 13 47 9 20 -4 44 -6 54 -7z m-2052 -99 c-9 -23 -10 -22 -7
10 10 100 9 97 13 55 2 -23 -1 -52 -6 -65z m1559 62 c0 -4 -17 -28 -37 -54
-21 -25 -43 -54 -50 -64 -11 -17 -12 -17 -12 8 -1 36 55 118 80 118 10 0 19
-3 19 -8z m165 -21 c-3 -6 -11 -11 -17 -11 -6 0 -6 6 2 15 14 17 26 13 15 -4z
m451 -28 c-10 -10 -19 5 -10 18 6 11 8 11 12 0 2 -7 1 -15 -2 -18z m-3046
-150 c0 -6 -6 -15 -12 -20 -13 -7 -159 -5 -167 3 -2 2 1 9 7 16 5 7 12 47 15
88 3 41 6 76 6 78 2 8 151 -154 151 -165z m937 115 c-2 -13 -4 -5 -4 17 -1 22
1 32 4 23 2 -10 2 -28 0 -40z m1580 40 c15 -7 29 -13 31 -14 2 -1 -3 -24 -11
-51 -8 -27 -12 -62 -9 -78 4 -25 2 -27 -16 -23 -44 12 -116 -58 -129 -124 -6
-34 -18 -48 -41 -48 -11 0 -13 15 -9 63 6 89 22 139 51 160 15 11 26 29 26 42
0 14 7 25 20 28 11 3 24 17 30 31 11 29 17 31 57 14z m179 -33 c20 -22 26 -24
43 -13 34 21 40 0 34 -120 l-6 -113 -26 6 c-36 9 -48 21 -55 55 -10 51 -66 34
-66 -20 0 -21 -18 -42 -82 -96 -139 -118 -143 -124 -109 -165 17 -21 19 -35
14 -108 -6 -83 -6 -85 22 -107 28 -22 27 -44 -3 -44 -10 0 -22 10 -27 23 -9
19 -17 22 -63 21 l-54 -2 4 128 c2 106 6 131 21 148 10 11 17 28 15 39 -2 14
3 18 25 18 39 1 59 26 63 81 6 73 45 103 90 69 27 -20 31 -19 48 17 13 26 14
37 4 64 -9 26 -9 42 1 76 7 24 18 49 23 56 17 20 59 14 84 -13z m542 3 c7 -7
9 -15 3 -22 -5 -6 -5 -20 -2 -30 4 -11 4 -40 1 -65 -4 -25 -8 -158 -9 -296 -1
-137 -4 -251 -5 -255 -2 -3 -7 -72 -10 -155 -8 -182 -12 -207 -34 -203 -15 3
-17 39 -20 383 -2 209 0 444 3 523 l7 144 27 -7 c14 -4 32 -11 39 -17z m-193
-17 c3 -5 1 -12 -5 -16 -5 -3 -10 1 -10 9 0 18 6 21 15 7z m-2178 -38 c-3 -10
-5 -4 -5 12 0 17 2 24 5 18 2 -7 2 -21 0 -30z m-828 -24 c33 -43 21 -45 -19
-4 -20 21 -28 35 -19 34 7 0 25 -14 38 -30z m958 -236 c-4 -148 -8 -293 -10
-323 -2 -30 -5 -72 -5 -92 -2 -31 -6 -38 -23 -38 -20 0 -20 3 -15 143 7 152
12 215 26 317 8 55 18 183 20 243 0 9 3 17 6 17 4 0 4 -120 1 -267z m-61 199
c-12 -12 -18 8 -10 35 l8 28 4 -28 c2 -16 1 -31 -2 -35z m-71 -7 c-5 -21 -34
-282 -41 -370 -10 -118 -16 -155 -25 -155 -20 0 -21 34 -4 113 10 45 20 102
21 127 2 24 9 87 15 140 12 97 15 126 18 170 1 20 3 22 11 10 5 -8 7 -24 5
-35z m2185 -16 c0 -5 -4 -9 -10 -9 -5 0 -10 7 -10 16 0 8 5 12 10 9 6 -3 10
-10 10 -16z m-2110 -47 c0 -20 -5 -53 -10 -72 -10 -33 -28 -243 -34 -393 -2
-37 -6 -70 -9 -74 -15 -14 -37 8 -37 37 0 78 29 287 47 340 2 8 7 53 9 100 3
47 7 91 9 98 9 25 25 1 25 -36z m-424 16 c24 -23 32 -72 15 -83 -5 -3 -27 6
-48 21 -31 21 -46 25 -83 21 -45 -5 -80 8 -80 32 0 14 36 15 45 1 9 -15 35
-11 75 9 46 25 48 25 76 -1z m2534 -29 c0 -5 -4 -9 -10 -9 -5 0 -10 7 -10 16
0 8 5 12 10 9 6 -3 10 -10 10 -16z m-3566 -7 c-1 -7 -2 -62 -2 -124 -2 -147
-21 -132 -23 17 -1 136 -1 127 14 123 6 -3 12 -10 11 -16z m64 -31 c-3 -21 1
-26 20 -25 15 0 22 -5 22 -17 0 -10 4 -20 9 -23 16 -10 35 25 36 65 0 21 4 39
8 39 8 0 8 -122 -1 -192 l-4 -38 -60 0 -59 0 2 120 c2 100 4 118 16 109 7 -7
12 -23 11 -38z m290 6 c2 -23 11 -42 23 -51 24 -17 34 -71 20 -108 -10 -26
-13 -27 -54 -22 -28 4 -47 2 -51 -5 -4 -6 -15 -11 -24 -11 -15 0 -17 10 -14
83 1 45 5 98 9 117 l6 35 11 -45 c8 -29 9 -50 2 -58 -13 -19 14 -44 34 -32 12
8 13 13 3 29 -8 13 -9 22 -3 26 6 4 10 16 9 28 -4 41 1 59 14 55 6 -3 13 -21
15 -41z m137 13 c-5 -8 -11 -8 -17 -2 -6 6 -7 16 -3 22 5 8 11 8 17 2 6 -6 7
-16 3 -22z m237 -23 c3 -29 6 -32 41 -35 26 -2 39 1 43 12 10 25 36 20 32 -6
-2 -15 -12 -24 -33 -29 -16 -4 -44 -13 -62 -20 -27 -11 -40 -10 -88 5 -30 9
-60 14 -65 11 -6 -3 -10 1 -10 11 0 14 7 15 43 10 53 -8 76 9 56 42 -10 16
-10 23 0 36 19 22 39 4 43 -37z m-1269 29 c3 -7 4 -63 1 -122 l-4 -109 -67 -3
c-61 -3 -66 -1 -49 11 17 13 19 26 18 121 -1 65 2 106 8 106 12 0 12 -1 14
-118 2 -88 12 -122 34 -108 5 3 13 58 17 121 6 106 15 136 28 101z m477 -90
c0 -57 3 -111 6 -120 5 -14 -7 -16 -97 -16 l-104 0 3 115 c4 129 22 159 22 36
0 -59 4 -82 15 -91 26 -22 37 2 42 94 l6 86 53 0 54 0 0 -104z m180 83 c0 -11
-4 -17 -10 -14 -5 3 -10 13 -10 21 0 8 5 14 10 14 6 0 10 -9 10 -21z m100 11
c0 -5 -2 -10 -4 -10 -3 0 -8 5 -11 10 -3 6 -1 10 4 10 6 0 11 -4 11 -10z m208
-28 c2 -18 -1 -32 -7 -32 -6 0 -11 6 -11 13 0 6 -3 23 -7 36 -4 18 -2 23 8 19
8 -2 15 -19 17 -36z m-727 -97 l3 -110 -40 0 c-34 0 -39 3 -36 22 2 12 -1 24
-7 27 -16 10 -40 -5 -43 -27 -2 -17 -11 -22 -39 -23 l-37 -3 6 67 c5 70 20
129 21 86 1 -28 26 -50 37 -33 5 9 14 4 30 -17 l23 -29 12 33 c7 21 17 31 28
30 13 -2 17 7 19 51 5 91 20 43 23 -74z m1265 75 c6 -6 26 -19 45 -29 31 -17
34 -22 37 -72 l3 -54 -26 25 c-34 32 -102 35 -134 6 -14 -13 -30 -17 -53 -13
-40 6 -111 -26 -133 -59 -14 -22 -17 -22 -50 -8 -30 12 -39 12 -69 0 l-34 -14
-4 40 c-3 29 2 48 14 64 27 33 51 37 100 15 73 -33 82 -34 113 -5 20 19 35 24
54 21 35 -7 60 13 72 57 8 28 15 36 32 36 13 0 28 -5 33 -10z m-743 -112 c3
-46 1 -58 -11 -58 -11 0 -13 8 -8 31 3 17 6 48 7 68 1 49 7 29 12 -41z m3347
27 c0 -8 -4 -15 -10 -15 -5 0 -10 7 -10 15 0 8 5 15 10 15 6 0 10 -7 10 -15z
m-3122 -97 c-3 -29 0 -33 20 -32 20 1 22 -4 22 -48 0 -52 -5 -58 -26 -31 -18
26 -25 13 -28 -58 -5 -97 -17 -169 -29 -169 -6 0 -7 29 -2 83 4 45 8 114 9
152 0 39 7 80 14 93 7 12 10 22 7 22 -4 0 -3 5 0 10 11 19 16 10 13 -22z
m3123 9 c-13 -13 -26 -3 -16 12 3 6 11 8 17 5 6 -4 6 -10 -1 -17z m-2570 -22
c12 -19 25 -35 31 -35 6 0 9 -23 7 -52 -1 -29 1 -65 5 -81 8 -26 17 -31 69
-39 10 -2 18 -6 18 -10 -1 -5 -1 -21 -1 -36 0 -60 -12 -64 -165 -63 -130 1
-140 3 -186 29 -62 35 -67 48 -24 66 33 14 35 18 35 60 0 36 -4 46 -20 51 -28
9 -26 57 4 92 21 24 27 26 43 15 42 -29 38 -29 108 13 22 13 44 24 48 24 4 1
17 -15 28 -34z m2028 22 c6 -8 8 -17 5 -20 -10 -9 -45 13 -39 24 9 13 21 11
34 -4z m118 -55 c8 -10 31 -16 59 -18 45 -2 72 -20 55 -37 -9 -9 -125 25 -176
51 -28 14 -28 16 -10 23 25 9 56 2 72 -19z m-2501 -39 c10 -34 22 -48 36 -45
9 1 21 -4 27 -12 9 -11 5 -24 -20 -60 -33 -46 -33 -46 -16 -81 9 -20 17 -37
17 -39 0 -1 -35 -2 -77 -1 -72 2 -78 3 -83 25 -3 13 -1 55 5 93 9 63 14 72 50
103 46 39 54 41 61 17z m2464 -28 c7 -8 9 -26 5 -44 -5 -24 -2 -32 15 -41 22
-12 44 -2 63 28 11 17 42 15 61 -4 24 -24 20 -124 -5 -124 -16 0 -190 70 -215
87 -30 19 -36 80 -6 68 35 -15 47 -10 50 18 4 30 14 34 32 12z m-3522 -30 c27
-23 62 -26 62 -5 0 12 57 33 70 25 6 -3 9 -18 8 -33 -2 -20 2 -27 17 -30 19
-4 45 -28 45 -43 0 -4 -10 -9 -22 -11 -14 -2 -23 -10 -23 -20 0 -25 -16 -36
-55 -40 -34 -3 -35 -4 -43 -58 -10 -64 -20 -78 -42 -60 -10 8 -15 30 -15 62 0
42 -5 56 -36 93 -20 25 -44 47 -55 50 -26 9 -24 23 4 27 18 2 22 8 19 36 -2
26 2 32 17 32 11 0 33 -11 49 -25z m1548 -12 c-7 -7 -26 7 -26 19 0 6 6 6 15
-2 9 -7 13 -15 11 -17z m2422 -190 c-3 -42 -21 -51 -26 -15 -4 29 4 52 18 52
7 0 10 -15 8 -37z m-411 1 c-9 -9 -28 6 -21 18 4 6 10 6 17 -1 6 -6 8 -13 4
-17z m-1489 -180 l2 -181 -67 -35 c-38 -20 -82 -39 -100 -42 -30 -7 -33 -5
-38 21 -3 15 -24 83 -46 151 -37 111 -40 129 -34 185 9 77 12 83 35 62 15 -14
29 -16 71 -10 28 4 59 15 68 24 12 12 27 15 61 11 l45 -5 3 -181z m1317 187
c15 -6 11 -9 -20 -14 -81 -14 -140 -5 -118 17 9 8 113 6 138 -3z m-1915 -40
c54 -5 65 -9 69 -26 2 -11 14 -32 26 -47 37 -44 45 -188 11 -211 -11 -7 -619
1 -643 8 -10 3 -13 38 -13 129 0 68 3 131 6 140 5 14 36 16 243 15 130 -1 265
-4 301 -8z m2243 -62 c32 -27 64 -49 72 -49 7 0 28 -12 45 -26 29 -25 31 -29
28 -92 l-3 -65 -299 2 c-165 1 -302 4 -304 6 -3 3 -5 64 -6 137 l-1 133 79 2
c44 2 81 5 83 7 2 2 59 1 126 -2 l121 -5 59 -48z m-2892 5 c-2 -31 -6 -43 -13
-36 -11 11 -2 82 10 82 4 0 6 -21 3 -46z m-899 9 c42 -17 46 -24 23 -43 -17
-14 -120 -9 -135 6 -5 5 -12 22 -16 38 l-7 29 49 -8 c26 -4 65 -14 86 -22z
m4048 8 c0 -6 -4 -13 -10 -16 -5 -3 -10 1 -10 9 0 9 5 16 10 16 6 0 10 -4 10
-9z m-4 -73 c-2 -24 -4 -47 -5 -51 -1 -5 -5 -6 -9 -3 -4 3 -7 24 -6 48 2 51 2
48 14 48 5 0 8 -19 6 -42z m-4179 8 c27 -13 43 -27 45 -40 2 -15 12 -22 31
-24 28 -3 35 -20 16 -39 -18 -18 -2 -45 23 -41 21 3 24 -2 29 -46 3 -28 11
-52 17 -54 14 -4 16 -28 4 -36 -5 -3 -18 -3 -30 1 -16 4 -22 14 -24 42 -3 31
-6 36 -29 37 -14 0 -40 10 -58 23 -36 26 -57 22 -71 -11 -6 -16 -9 14 -9 95
-1 65 2 117 7 115 4 -1 26 -12 49 -22z m4223 -26 c0 -5 -4 -10 -10 -10 -5 0
-10 5 -10 10 0 6 5 10 10 10 6 0 10 -4 10 -10z m-47 -135 c-9 -44 -20 -27 -17
28 1 28 3 54 4 57 6 13 17 -62 13 -85z m-3943 45 c0 -13 12 -26 33 -36 18 -9
43 -31 56 -49 26 -39 20 -64 -8 -36 -12 12 -28 17 -42 14 -18 -3 -34 6 -62 35
-35 36 -37 41 -26 65 15 32 49 37 49 7z m4108 -39 c19 -11 11 -45 -11 -49 -19
-4 -32 20 -23 43 6 17 15 19 34 6z m-2928 -85 c0 -13 9 -34 19 -47 l19 -24 11
29 c9 23 14 26 26 16 8 -6 19 -9 26 -5 6 4 15 2 19 -5 14 -23 42 -3 38 27 -2
20 2 28 12 28 11 0 14 -8 12 -28 -2 -19 4 -37 17 -50 12 -14 19 -35 19 -55 -1
-39 -13 -51 -21 -21 -8 31 -31 18 -35 -19 -2 -18 -8 -32 -14 -32 -6 0 -8 10
-4 23 8 32 -17 67 -35 50 -9 -9 -16 -10 -26 -2 -20 17 -43 3 -43 -26 0 -32 26
-44 44 -19 12 16 15 10 20 -51 13 -140 16 -154 38 -166 19 -10 20 -18 15 -90
-5 -81 2 -101 28 -79 11 9 15 35 16 94 0 77 1 80 16 59 30 -44 41 -28 46 65 3
48 4 144 3 214 -1 116 1 128 17 128 13 0 17 -9 17 -39 0 -22 -4 -51 -9 -64
-11 -28 8 -65 27 -53 17 10 35 85 28 118 -5 24 -2 28 15 28 17 0 20 -5 16 -22
-3 -13 -13 -56 -23 -95 -13 -57 -21 -73 -35 -73 -23 0 -28 -9 -35 -64 -6 -37
-3 -50 12 -67 13 -14 21 -42 24 -82 4 -52 8 -62 25 -66 11 -2 33 -15 49 -28
25 -21 37 -24 68 -19 27 4 46 1 63 -10 21 -14 32 -15 67 -6 56 14 64 6 77 -76
22 -145 22 -142 0 -142 -23 0 -36 -27 -22 -41 7 -7 16 -5 27 7 19 18 21 18 30
-12 6 -19 2 -23 -27 -28 -52 -10 -66 0 -69 47 -2 30 -8 43 -20 45 -15 3 -18
-4 -18 -43 0 -32 -4 -45 -12 -43 -8 3 -11 20 -9 46 2 37 0 42 -18 42 -21 0
-27 -16 -22 -67 1 -16 -4 -23 -15 -23 -12 0 -15 6 -10 26 6 22 4 25 -16 22
-17 -2 -24 -11 -26 -30 -3 -25 -7 -28 -43 -28 -35 0 -39 2 -39 26 0 30 -45 78
-65 70 -7 -2 -15 -23 -19 -46 -8 -50 -28 -44 -25 9 3 52 1 61 -14 61 -20 0
-34 -40 -29 -82 l4 -38 -60 0 c-51 0 -62 3 -67 20 -5 15 -14 19 -43 17 l-37
-2 -3 50 c-4 71 -7 78 -33 65 -17 -10 -24 -8 -41 10 -16 17 -23 19 -34 9 -13
-10 -12 -15 5 -33 22 -23 16 -41 -13 -41 -27 0 -33 -25 -7 -32 21 -5 38 -39
26 -51 -4 -4 -12 1 -19 11 -16 21 -42 22 -50 2 -4 -11 -21 -15 -60 -15 -53 0
-54 0 -60 33 -3 18 -5 191 -4 384 2 338 3 350 21 339 15 -9 20 -7 29 8 8 14
12 15 18 6 12 -19 40 -4 40 21 0 12 3 19 7 15 4 -4 6 -40 4 -81 -2 -62 0 -75
13 -75 8 0 19 8 25 18 11 19 9 21 26 -33 5 -18 24 -20 29 -2 2 6 7 21 11 32
l7 20 8 -20 c5 -11 9 -45 10 -75 1 -30 5 -66 9 -80 8 -30 35 -33 39 -5 2 11
13 25 25 30 16 7 23 20 25 48 3 37 2 38 -25 35 -26 -3 -28 0 -35 47 -11 77
-17 95 -33 95 -10 0 -15 11 -15 33 0 38 6 47 32 47 12 0 18 -7 18 -24z m-100
-21 c0 -23 7 -41 20 -52 25 -22 25 -33 1 -33 -11 0 -23 -5 -27 -11 -13 -21
-19 8 -16 70 4 64 22 86 22 26z m2356 -42 c2 -85 7 -95 41 -87 l26 7 -7 -59
c-21 -177 -25 -218 -20 -223 9 -10 37 15 39 35 9 108 18 181 24 198 12 31 22
-65 26 -233 2 -79 6 -145 9 -148 2 -3 10 -2 17 2 8 6 10 57 8 194 -4 185 -4
186 18 189 20 3 22 -2 25 -45 2 -35 7 -48 18 -48 10 0 14 9 13 25 -7 123 -5
241 7 255 17 20 70 20 70 0 0 -9 -9 -15 -25 -15 -25 0 -26 -2 -23 -57 2 -44 7
-58 18 -58 10 0 16 12 18 33 2 24 10 35 28 42 17 7 24 17 24 35 0 18 5 25 20
25 22 0 23 -4 20 -65 -1 -23 -10 -49 -20 -60 -10 -11 -20 -36 -22 -55 -3 -25
-10 -36 -24 -39 -32 -5 -46 -23 -41 -50 3 -14 1 -36 -4 -49 -14 -37 13 -63 64
-60 40 3 41 2 49 -37 8 -35 6 -42 -14 -59 l-23 -18 23 -15 c21 -15 22 -21 22
-154 0 -77 -2 -139 -5 -139 -3 0 -14 6 -26 13 -17 10 -22 9 -30 -5 -11 -20
-80 -20 -117 1 -17 9 -27 9 -37 1 -8 -6 -46 -10 -97 -8 l-83 3 4 65 c3 36 5
103 5 150 1 69 -2 85 -14 85 -14 0 -24 -83 -29 -252 -1 -30 -5 -43 -15 -43
-21 0 -24 19 -15 85 5 40 4 64 -3 73 -18 22 -28 0 -34 -81 -6 -69 -9 -77 -28
-78 -12 0 -40 -3 -62 -5 -31 -4 -46 0 -59 12 -14 14 -21 15 -36 6 -46 -29 -59
-1 -59 129 0 72 7 85 63 119 60 35 69 57 72 171 2 94 4 103 26 120 20 15 25
29 29 89 3 40 2 74 -2 76 -5 3 -8 19 -8 37 0 33 15 28 22 -8 6 -33 33 -24 36
13 9 87 32 -22 32 -150 0 -50 11 -66 29 -44 9 10 10 46 5 126 -7 107 -6 112
12 108 16 -3 19 -13 20 -75z m74 46 c0 -24 4 -30 18 -27 9 2 18 13 20 26 4 27
10 27 34 5 19 -17 19 -18 -12 -43 -19 -16 -32 -36 -34 -55 -4 -34 -19 -37 -24
-5 -2 12 -10 24 -18 27 -14 5 -20 83 -7 96 14 15 23 6 23 -24z m120 7 c0 -3
-4 -8 -10 -11 -5 -3 -10 -1 -10 4 0 6 5 11 10 11 6 0 10 -2 10 -4z m310 -32
c0 -14 -12 -19 -23 -8 -9 9 4 35 14 28 5 -3 9 -12 9 -20z m-2170 -40 c0 -16
-35 -19 -45 -5 -6 11 26 32 37 25 5 -3 8 -12 8 -20z m1480 -24 c5 -31 0 -60
-10 -60 -5 0 -10 21 -10 47 0 29 4 43 9 38 5 -6 10 -17 11 -25z m383 3 c3 -16
1 -30 -4 -31 -5 -2 -15 -10 -23 -17 -28 -28 -36 16 -10 53 20 29 31 28 37 -5z
m-1675 -86 c1 -48 -1 -77 -8 -77 -5 0 -10 8 -10 19 0 10 -3 46 -7 81 -5 51 -4
62 8 58 10 -3 14 -27 17 -81z m2016 61 c-5 -8 -2 -9 9 -5 10 4 17 1 17 -5 0
-9 3 -9 12 0 19 19 33 14 15 -6 -10 -10 -17 -24 -17 -30 0 -6 -19 -16 -42 -22
-24 -6 -51 -13 -60 -16 -29 -9 -21 12 22 56 38 39 59 52 44 28z m-2062 -75 c5
-82 3 -97 -13 -88 -12 8 -12 165 0 165 5 0 11 -35 13 -77z m-42 26 c0 -17 -4
-28 -10 -24 -5 3 -10 17 -10 31 0 13 5 24 10 24 6 0 10 -14 10 -31z m-70 -90
c0 -103 -13 -130 -27 -56 -7 30 -5 46 4 55 12 12 11 37 -3 80 -5 18 5 34 17
27 5 -4 9 -51 9 -106z m36 55 c1 -50 -4 -89 -12 -81 -3 2 -7 35 -10 72 -5 54
-3 66 8 63 8 -3 13 -22 14 -54z m-89 14 c-3 -7 -5 -2 -5 12 0 14 2 19 5 13 2
-7 2 -19 0 -25z m-1162 -5 c50 -19 66 -45 32 -51 -10 -2 -27 4 -38 14 -16 15
-23 15 -44 4 -20 -11 -30 -11 -57 0 -47 19 -53 27 -38 45 17 21 74 16 145 -12z
m3510 7 c3 -5 -1 -10 -9 -10 -8 0 -18 5 -21 10 -3 6 1 10 9 10 8 0 18 -4 21
-10z m-2695 -86 c0 -54 -4 -83 -10 -79 -5 3 -9 20 -7 38 1 25 -3 34 -20 42
-26 11 -30 25 -9 25 8 0 19 14 25 30 5 17 12 30 15 30 4 0 6 -39 6 -86z
m-1640 25 c0 -10 -4 -19 -9 -19 -12 0 -23 29 -15 41 8 14 24 0 24 -22z m2233
6 c-7 -21 -13 -19 -13 6 0 11 4 18 10 14 5 -3 7 -12 3 -20z m44 -1 c-9 -9 -28
6 -21 18 4 6 10 6 17 -1 6 -6 8 -13 4 -17z m-1631 -45 c8 -17 13 -40 11 -51
-6 -22 10 -77 28 -97 7 -7 32 -13 54 -13 26 1 41 -4 41 -12 0 -19 -22 -36 -47
-36 -25 0 -30 -19 -11 -38 17 -17 -15 -26 -42 -12 -18 9 -25 8 -41 -6 -18 -16
-19 -16 -19 14 0 37 -15 49 -38 29 -27 -23 -52 -28 -75 -15 -48 25 -50 58 -4
58 53 0 66 17 76 96 9 72 24 114 41 114 5 0 17 -14 26 -31z m442 -8 c-2 -9
-12 -17 -22 -19 -14 -3 -17 0 -12 13 3 10 1 24 -6 32 -10 12 -8 12 16 2 15 -7
26 -19 24 -28z m2926 -6 c3 -8 1 -15 -4 -15 -6 0 -10 7 -10 15 0 8 2 15 4 15
2 0 6 -7 10 -15z m390 6 c6 -9 -36 -41 -54 -41 -15 0 22 49 37 50 6 0 14 -4
17 -9z m-154 -9 c0 -5 -21 -15 -47 -23 -54 -16 -61 -32 -18 -39 34 -6 35 -18
3 -34 -29 -14 -37 -56 -37 -198 -1 -84 2 -108 12 -108 18 0 35 -38 31 -70 -4
-37 -4 -37 -18 -5 -8 19 -10 34 -4 42 5 7 5 14 -1 17 -17 11 -22 -12 -20 -79
1 -36 0 -68 -4 -71 -18 -19 -23 55 -19 273 4 213 7 245 23 272 16 26 25 31 59
31 22 0 40 -4 40 -8z m-4190 -34 c0 -12 -14 -10 -28 4 -19 19 -14 29 8 16 11
-7 20 -16 20 -20z m2084 -64 c7 -19 -2 -37 -15 -29 -12 8 -12 45 0 45 5 0 12
-7 15 -16z m-37 -111 c-2 -21 -4 -6 -4 32 0 39 2 55 4 38 2 -18 2 -50 0 -70z
m45 27 c6 18 10 22 19 13 14 -14 8 -58 -8 -58 -22 0 -25 -13 -5 -24 26 -14 19
-61 -8 -54 -19 5 -30 47 -30 114 0 48 14 59 20 17 5 -31 6 -32 12 -8z m2048
10 c0 -11 -4 -20 -10 -20 -5 0 -10 9 -10 20 0 11 5 20 10 20 6 0 10 -9 10 -20z
m40 -20 c0 -5 -4 -10 -10 -10 -5 0 -10 5 -10 10 0 6 5 10 10 10 6 0 10 -4 10
-10z m-2038 -42 c-7 -7 -12 -8 -12 -2 0 14 12 26 19 19 2 -3 -1 -11 -7 -17z
m-1132 -28 c0 -5 -4 -10 -10 -10 -5 0 -10 5 -10 10 0 6 5 10 10 10 6 0 10 -4
10 -10z m1145 -284 c-2 -149 -4 -284 -5 -299 0 -16 -5 -27 -11 -25 -7 2 -10
81 -11 238 0 129 -2 228 -5 220 -2 -8 -7 -22 -9 -30 -4 -12 -6 -12 -14 -1 -4
8 -6 20 -3 28 3 7 1 13 -5 13 -6 0 -13 -6 -15 -12 -3 -7 -6 10 -6 38 -1 43 2
52 17 50 9 0 22 -12 29 -26 11 -22 12 -18 13 39 0 55 2 62 15 51 13 -11 14
-51 10 -284z m45 262 c0 -16 -3 -19 -11 -11 -6 6 -8 16 -5 22 11 17 16 13 16
-11z m-1180 -68 c0 -14 -11 -22 -41 -30 -35 -10 -40 -14 -35 -33 3 -11 0 -27
-6 -34 -15 -18 4 -38 27 -29 11 4 14 12 10 25 -7 25 9 35 34 22 18 -10 19 -23
18 -228 l-2 -218 -32 -10 c-18 -6 -49 -9 -68 -7 -29 4 -33 7 -25 22 11 21 -5
40 -37 40 -20 0 -23 5 -23 34 0 28 4 35 23 38 25 3 27 18 3 33 -12 7 -23 6
-43 -5 -33 -19 -40 -33 -48 -93 -6 -44 -8 -47 -36 -47 -17 0 -37 -7 -45 -15
-20 -19 -88 -19 -104 0 -16 19 -34 19 -50 0 -7 -9 -15 -13 -18 -10 -3 3 -6
120 -6 260 -1 220 1 255 14 255 13 0 15 -25 12 -179 -3 -196 -3 -194 61 -206
30 -6 37 -4 37 8 0 9 -9 19 -20 22 -14 4 -20 15 -20 36 0 27 2 29 20 19 23
-12 40 -6 40 15 0 18 -21 24 -42 13 -16 -8 -18 -3 -18 35 0 37 4 46 21 50 27
7 20 31 -10 35 -20 3 -22 8 -19 55 3 48 5 52 28 52 21 0 25 4 22 28 -2 22 1
27 18 27 20 0 20 -3 16 -195 -3 -158 -1 -196 10 -206 7 -6 20 -9 28 -6 11 5
14 41 15 198 0 119 4 196 11 203 6 6 10 6 11 0 0 -11 -3 -235 -5 -284 -1 -31
2 -35 24 -35 l25 0 9 149 c8 139 8 150 -9 163 -17 12 -14 13 26 13 l45 0 -9
-67 c-7 -47 -6 -72 1 -84 8 -12 8 -20 2 -24 -14 -8 -13 -72 1 -81 28 -17 61
64 36 87 -12 12 -12 15 0 28 14 13 15 88 2 131 -3 12 6 15 41 15 37 0 47 4 55
22 11 25 25 21 25 -7z m1185 0 c-3 -5 -10 -10 -16 -10 -5 0 -9 5 -9 10 0 6 7
10 16 10 8 0 12 -4 9 -10z m-1883 -36 l45 -6 6 -186 c7 -193 2 -220 -31 -202
-10 5 -25 11 -34 14 -9 2 -18 15 -20 28 -2 15 -11 24 -25 26 -26 4 -25 -1 -28
192 -1 79 3 128 9 132 14 9 22 10 78 2z m139 -69 c4 -38 5 -147 3 -240 -2 -94
-4 -176 -4 -183 0 -20 -17 -14 -23 8 -7 28 -36 25 -47 -4 -8 -22 -14 -24 -88
-25 -72 -1 -80 1 -85 19 -7 26 -33 26 -47 0 -14 -27 -30 -25 -30 3 0 31 -19
48 -39 38 -14 -8 -16 5 -13 122 3 121 5 133 25 150 l22 18 -22 16 c-23 16 -31
47 -14 58 5 3 13 1 16 -5 5 -8 11 -7 21 1 18 14 1 39 -26 39 -16 0 -30 19 -30
41 0 5 24 9 53 9 l54 0 -2 -72 c-5 -201 -3 -190 -24 -178 -27 14 -31 13 -31
-10 0 -13 9 -22 26 -26 26 -7 26 -8 20 -67 -5 -48 -3 -64 11 -79 21 -24 30
-23 39 5 7 20 9 19 14 -12 7 -46 26 -50 45 -9 8 18 12 24 10 12 -7 -29 19 -51
40 -34 8 7 15 23 15 36 0 21 4 23 29 18 48 -10 53 14 46 199 -3 89 -8 177 -11
195 -5 30 -3 33 18 30 21 -3 24 -10 29 -73z m-421 40 c6 -16 6 -34 -1 -51 -6
-19 -6 -37 1 -60 13 -37 9 -49 -21 -64 -18 -10 -19 -7 -19 95 0 87 3 105 15
105 9 0 20 -11 25 -25z m-87 -163 c-3 -206 2 -254 26 -250 13 3 17 22 21 112
l5 108 20 -21 c16 -19 17 -25 7 -42 -8 -13 -9 -25 -3 -37 15 -28 16 -129 2
-146 -7 -9 -11 -23 -7 -31 3 -8 1 -15 -5 -15 -6 0 -13 9 -16 19 -7 26 -32 35
-52 17 -13 -12 -19 -12 -33 -2 -26 19 -26 200 -1 215 17 9 17 10 0 28 -22 25
-22 82 1 99 16 12 16 14 -5 34 -13 11 -23 25 -23 29 0 13 26 32 34 24 4 -4 9
3 13 15 13 53 18 10 16 -156z m2247 169 c0 -6 -4 -13 -10 -16 -5 -3 -10 1 -10
9 0 9 5 16 10 16 6 0 10 -4 10 -9z m1980 -11 c0 -5 -4 -10 -10 -10 -5 0 -10 5
-10 10 0 6 5 10 10 10 6 0 10 -4 10 -10z m-1890 -50 c0 -5 -5 -10 -11 -10 -5
0 -7 5 -4 10 3 6 8 10 11 10 2 0 4 -4 4 -10z m-179 -188 c1 -73 -2 -117 -9
-124 -8 -8 -13 -7 -18 6 -5 14 -9 15 -15 4 -6 -9 -9 -7 -9 9 0 13 5 22 13 20
8 -1 12 11 12 38 0 25 -4 39 -12 38 -8 -2 -8 11 1 50 12 53 25 82 32 75 2 -2
4 -54 5 -116z m189 74 c0 -16 -18 -31 -27 -22 -8 8 5 36 17 36 5 0 10 -6 10
-14z m-104 -132 c-1 -79 -4 -108 -14 -112 -11 -3 -13 17 -12 94 2 105 7 137
19 130 4 -3 7 -53 7 -112z m-159 9 c-3 -10 -5 -4 -5 12 0 17 2 24 5 18 2 -7 2
-21 0 -30z m210 -85 c0 -48 -3 -88 -6 -88 -21 1 -33 20 -27 46 4 16 7 54 7 84
1 30 4 59 6 64 13 21 21 -25 20 -106z m-180 80 c-3 -8 -6 -5 -6 6 -1 11 2 17
5 13 3 -3 4 -12 1 -19z m-53 -64 c8 -81 6 -90 -19 -81 -21 9 -22 157 -1 157 9
0 15 -22 20 -76z m-52 -4 c1 -27 2 -57 2 -65 1 -8 -3 -16 -9 -17 -11 -3 -29
96 -21 118 12 30 26 12 28 -36z m-51 -13 c5 -51 1 -77 -11 -77 -4 0 -10 27
-12 60 -4 71 18 86 23 17z m-53 -25 c2 -40 0 -52 -11 -52 -15 0 -32 84 -21
102 14 22 29 -2 32 -50z m-48 -7 c0 -25 -4 -45 -10 -45 -5 0 -10 20 -10 45 0
25 5 45 10 45 6 0 10 -20 10 -45z m264 -7 c6 -25 4 -28 -19 -28 -20 0 -25 5
-25 24 0 13 3 32 6 41 6 14 9 14 19 3 7 -7 15 -25 19 -40z m-304 -13 c0 -27
-4 -35 -18 -35 -19 0 -24 34 -9 58 15 22 27 12 27 -23z m527 14 c4 -16 8 -17
14 -7 6 9 9 7 9 -8 0 -15 -8 -24 -26 -28 -33 -9 -36 -6 -28 32 7 36 23 42 31
11z m-582 -23 c0 -16 -6 -31 -12 -33 -8 -3 -13 4 -13 16 0 12 -4 21 -10 21 -5
0 -10 -9 -10 -19 0 -23 -11 -33 -27 -23 -15 10 -11 51 7 62 8 6 26 9 40 8 20
-3 25 -8 25 -32z m-103 -21 c-4 -26 -35 -35 -47 -15 -9 15 13 40 35 40 13 0
16 -6 12 -25z"/>
<path d="M4233 4700 c0 -41 2 -58 4 -37 2 20 2 54 0 75 -2 20 -4 3 -4 -38z"/>
<path d="M4231 4594 c0 -11 3 -14 6 -6 3 7 2 16 -1 19 -3 4 -6 -2 -5 -13z"/>
<path d="M4229 4520 c-6 -45 -4 -58 7 -48 3 3 4 26 2 49 l-3 44 -6 -45z"/>
<path d="M1696 4354 c-4 -10 -1 -14 6 -12 15 5 23 28 10 28 -5 0 -13 -7 -16
-16z"/>
<path d="M1695 4301 c-3 -5 -1 -12 5 -16 5 -3 10 1 10 9 0 18 -6 21 -15 7z"/>
<path d="M1660 4209 c0 -5 5 -7 10 -4 6 3 10 8 10 11 0 2 -4 4 -10 4 -5 0 -10
-5 -10 -11z"/>
<path d="M4436 4575 c-3 -8 -1 -15 4 -15 6 0 10 7 10 15 0 8 -2 15 -4 15 -2 0
-6 -7 -10 -15z"/>
<path d="M4470 4564 c0 -8 5 -12 10 -9 6 3 10 10 10 16 0 5 -4 9 -10 9 -5 0
-10 -7 -10 -16z"/>
<path d="M4480 4520 c0 -5 7 -10 16 -10 8 0 12 5 9 10 -3 6 -10 10 -16 10 -5
0 -9 -4 -9 -10z"/>
<path d="M3965 4360 c3 -5 -2 -10 -11 -10 -13 0 -15 -3 -7 -11 6 -6 16 -8 22
-5 14 9 14 36 0 36 -5 0 -7 -4 -4 -10z"/>
<path d="M3831 4287 c-6 -8 -8 -17 -4 -20 3 -4 -2 -16 -12 -27 -10 -11 -16
-20 -14 -21 25 -5 51 -4 61 3 10 6 8 8 -4 8 -23 0 -23 19 -1 35 9 7 13 17 9
23 -9 16 -21 15 -35 -1z"/>
<path d="M1657 3851 c-5 -22 1 -33 14 -25 12 7 12 44 0 44 -5 0 -11 -9 -14
-19z"/>
<path d="M1587 3843 c-13 -12 -7 -23 13 -23 13 0 18 5 14 15 -7 16 -17 19 -27
8z"/>
<path d="M1770 3811 c0 -5 5 -13 10 -16 6 -3 10 -2 10 4 0 5 -4 13 -10 16 -5
3 -10 2 -10 -4z"/>
<path d="M1244 3799 c-3 -6 -1 -16 5 -22 8 -8 11 -5 11 11 0 24 -5 28 -16 11z"/>
<path d="M1740 3799 c0 -5 5 -7 10 -4 6 3 10 8 10 11 0 2 -4 4 -10 4 -5 0 -10
-5 -10 -11z"/>
<path d="M1535 3790 c-3 -6 1 -7 9 -4 18 7 21 14 7 14 -6 0 -13 -4 -16 -10z"/>
<path d="M1720 3770 c0 -5 5 -10 10 -10 6 0 10 5 10 10 0 6 -4 10 -10 10 -5 0
-10 -4 -10 -10z"/>
<path d="M1680 3750 c0 -5 5 -10 10 -10 6 0 10 5 10 10 0 6 -4 10 -10 10 -5 0
-10 -4 -10 -10z"/>
<path d="M911 3644 c0 -11 3 -14 6 -6 3 7 2 16 -1 19 -3 4 -6 -2 -5 -13z"/>
<path d="M794 2506 c-15 -12 -17 -19 -8 -32 16 -28 31 -27 49 0 27 41 0 62
-41 32z"/>
<path d="M577 2623 c-9 -8 -9 -88 0 -96 13 -13 33 16 33 48 0 32 -20 61 -33
48z"/>
<path d="M1262 1601 c-15 -9 -5 -41 13 -41 8 0 17 5 21 11 9 15 -18 40 -34 30z"/>
<path d="M1254 1459 c-10 -17 23 -46 38 -31 8 8 8 15 -2 27 -15 18 -26 19 -36
4z"/>
<path d="M1337 1453 c-10 -15 10 -35 29 -31 26 5 24 32 -3 36 -11 2 -23 -1
-26 -5z"/>
<path d="M1306 1401 c-9 -14 5 -42 18 -38 15 5 14 39 -1 44 -6 2 -14 0 -17 -6z"/>
<path d="M1215 1321 c-3 -5 2 -17 11 -26 19 -19 40 -6 31 19 -7 17 -32 21 -42
7z"/>
<path d="M1295 1250 c-9 -15 4 -50 20 -50 16 0 29 35 20 50 -3 5 -12 10 -20
10 -8 0 -17 -5 -20 -10z"/>
<path d="M1518 1204 c-11 -10 3 -34 19 -34 8 0 13 7 11 17 -3 18 -20 27 -30
17z"/>
<path d="M1816 1188 c-23 -82 -25 -92 -14 -105 21 -26 42 12 51 92 2 22 -31
34 -37 13z"/>
<path d="M1746 1178 c-3 -7 -7 -43 -9 -80 -5 -75 9 -112 31 -85 17 20 12 169
-5 175 -7 2 -15 -2 -17 -10z"/>
<path d="M1280 1170 c-8 -5 -23 -11 -33 -14 -12 -4 -17 -14 -15 -28 4 -30 38
-37 45 -9 4 15 11 20 23 16 23 -7 35 12 20 30 -14 17 -19 17 -40 5z"/>
<path d="M1355 1150 c-4 -7 -3 -16 3 -22 14 -14 45 -2 40 15 -6 16 -34 21 -43
7z"/>
<path d="M2096 1114 c-4 -9 -1 -23 5 -30 15 -18 39 -1 39 27 0 24 -35 26 -44
3z"/>
<path d="M1955 1111 c-8 -15 3 -31 21 -31 9 0 14 7 12 17 -4 20 -24 28 -33 14z"/>
<path d="M1584 1099 c-10 -17 13 -36 27 -22 12 12 4 33 -11 33 -5 0 -12 -5
-16 -11z"/>
<path d="M2045 1100 c-10 -16 16 -43 28 -31 11 11 2 41 -12 41 -5 0 -13 -5
-16 -10z"/>
<path d="M1504 1089 c-10 -17 13 -36 27 -22 12 12 4 33 -11 33 -5 0 -12 -5
-16 -11z"/>
<path d="M1874 1079 c-10 -17 23 -46 38 -31 8 8 8 15 -2 27 -15 18 -26 19 -36
4z"/>
<path d="M1315 1041 c-9 -16 3 -31 26 -31 14 0 19 6 17 17 -4 20 -33 29 -43
14z"/>
<path d="M1234 1025 c-4 -9 -2 -21 4 -27 15 -15 44 -1 40 19 -4 23 -36 29 -44
8z"/>
<path d="M1952 1023 c2 -10 10 -18 18 -18 22 0 18 29 -3 33 -14 3 -18 -1 -15
-15z"/>
<path d="M2084 1029 c-10 -17 13 -36 27 -22 12 12 4 33 -11 33 -5 0 -12 -5
-16 -11z"/>
<path d="M1582 1014 c4 -21 22 -23 26 -1 2 10 -3 17 -13 17 -10 0 -15 -6 -13
-16z"/>
<path d="M1543 964 c-8 -20 8 -36 26 -25 15 10 8 41 -9 41 -6 0 -13 -7 -17
-16z"/>
<path d="M1225 930 c-4 -7 -3 -16 3 -22 14 -14 45 -2 40 15 -6 16 -34 21 -43
7z"/>
<path d="M3752 1493 c-10 -26 -9 -127 2 -133 8 -4 33 94 35 138 1 18 -29 14
-37 -5z"/>
<path d="M3650 1405 c0 -28 12 -32 30 -10 14 16 6 35 -16 35 -8 0 -14 -10 -14
-25z"/>
<path d="M3565 1381 c-7 -12 12 -24 25 -16 11 7 4 25 -10 25 -5 0 -11 -4 -15
-9z"/>
<path d="M3570 1280 c0 -33 11 -38 30 -15 15 18 6 45 -15 45 -10 0 -15 -10
-15 -30z"/>
<path d="M3960 1294 c-9 -10 -10 -18 -2 -26 12 -12 32 -2 32 17 0 21 -16 26
-30 9z"/>
<path d="M3660 1265 c0 -17 5 -25 13 -22 6 2 12 12 12 22 0 10 -6 20 -12 23
-8 2 -13 -6 -13 -23z"/>
<path d="M3814 1239 c-8 -14 11 -33 25 -25 11 7 4 36 -9 36 -5 0 -12 -5 -16
-11z"/>
<path d="M3986 1233 c-12 -12 -6 -33 9 -33 8 0 15 6 15 14 0 17 -14 28 -24 19z"/>
<path d="M3574 1175 c-4 -8 -3 -23 0 -32 6 -15 8 -15 23 -1 16 17 12 48 -7 48
-6 0 -13 -7 -16 -15z"/>
<path d="M3662 1159 c1 -12 9 -24 16 -27 9 -3 13 3 10 19 -1 12 -9 24 -16 27
-9 3 -13 -3 -10 -19z"/>
<path d="M3992 1157 c-13 -15 1 -42 17 -33 13 9 15 33 2 40 -5 3 -13 0 -19 -7z"/>
<path d="M3806 1131 c-4 -6 -12 -45 -18 -89 -12 -80 -6 -124 13 -105 9 9 30
118 33 172 1 25 -18 40 -28 22z"/>
<path d="M4064 1129 c-10 -17 13 -36 27 -22 12 12 4 33 -11 33 -5 0 -12 -5
-16 -11z"/>
<path d="M3478 1118 c-7 -19 2 -38 17 -38 15 0 28 27 19 41 -8 13 -31 11 -36
-3z"/>
<path d="M3596 1043 c-20 -69 -12 -133 14 -107 15 15 18 116 3 121 -6 2 -14
-4 -17 -14z"/>
<path d="M3492 1033 c2 -10 10 -18 18 -18 8 0 16 8 18 18 2 12 -3 17 -18 17
-15 0 -20 -5 -18 -17z"/>
<path d="M3890 1025 c-13 -15 -7 -45 8 -45 15 0 44 38 37 49 -9 16 -30 14 -45
-4z"/>
<path d="M3441 1021 c-15 -10 -8 -41 9 -41 15 0 25 29 14 40 -5 5 -15 5 -23 1z"/>
<path d="M4043 1020 c-24 -10 -30 -25 -14 -34 14 -9 63 13 59 26 -6 16 -19 18
-45 8z"/>
<path d="M3956 973 c-11 -11 -6 -23 9 -23 8 0 15 4 15 9 0 13 -16 22 -24 14z"/>
<path d="M1082 833 c4 -22 43 -25 43 -3 0 8 -11 16 -23 18 -19 3 -23 0 -20
-15z"/>
<path d="M1035 700 c-4 -7 -3 -16 3 -22 14 -14 47 -6 47 12 0 18 -40 26 -50
10z"/>
<path d="M1091 640 c-8 -4 -10 -13 -7 -19 9 -13 43 -15 51 -2 8 14 -28 31 -44
21z"/>
<path d="M1080 590 c-13 -9 -13 -11 0 -20 8 -5 20 -10 27 -10 19 0 27 21 12
31 -18 11 -21 11 -39 -1z"/>
<path d="M752 553 c2 -10 14 -19 26 -21 19 -3 23 1 20 15 -2 10 -14 19 -26 21
-19 3 -23 -1 -20 -15z"/>
<path d="M414 929 c-10 -17 -14 -153 -4 -169 4 -7 15 -10 24 -7 14 6 16 21 14
94 -3 83 -15 112 -34 82z"/>
<path d="M445 669 c-8 -12 14 -31 30 -26 6 2 10 10 10 18 0 17 -31 24 -40 8z"/>
<path d="M244 639 c-10 -17 23 -46 37 -32 7 7 9 19 6 27 -7 18 -33 21 -43 5z"/>
<path d="M360 3920 c0 -5 7 -10 15 -10 8 0 15 5 15 10 0 6 -7 10 -15 10 -8 0
-15 -4 -15 -10z"/>
<path d="M4400 3301 c0 -13 57 -34 70 -26 18 11 -9 35 -41 35 -16 0 -29 -4
-29 -9z"/>
<path d="M4594 2816 c-9 -24 9 -151 21 -148 15 3 13 154 -2 159 -7 3 -16 -3
-19 -11z"/>
<path d="M4732 2798 c5 -32 28 -35 28 -4 0 17 -5 26 -16 26 -10 0 -14 -7 -12
-22z"/>
<path d="M4744 2725 c-4 -9 -2 -21 4 -27 15 -15 44 -1 40 19 -4 23 -36 29 -44
8z"/>
<path d="M4762 2653 c2 -10 12 -18 23 -18 11 0 21 8 23 18 3 13 -3 17 -23 17
-20 0 -26 -4 -23 -17z"/>
<path d="M4724 2585 c-4 -9 -2 -21 4 -27 15 -15 44 -1 40 19 -4 23 -36 29 -44
8z"/>
<path d="M4577 2567 c-3 -8 -2 -29 3 -48 8 -37 19 -25 23 26 2 29 -17 46 -26
22z"/>
<path d="M4833 2563 c-18 -6 -16 -68 1 -82 19 -16 31 4 27 44 -3 34 -11 44
-28 38z"/>
<path d="M4952 2443 c4 -22 43 -25 43 -3 0 8 -11 16 -23 18 -19 3 -23 0 -20
-15z"/>
<path d="M4837 2413 c-14 -14 -6 -34 17 -43 l25 -9 -5 -214 c-4 -181 -2 -216
10 -226 22 -19 37 -4 29 27 -7 30 -7 43 2 119 6 48 8 51 33 50 37 -3 37 27 0
31 -31 4 -34 16 -22 130 5 47 11 61 25 65 21 6 26 35 7 42 -7 3 -28 6 -46 8
-18 2 -38 9 -44 15 -14 14 -22 15 -31 5z"/>
<path d="M4727 2403 c-13 -12 -7 -44 9 -50 20 -7 45 22 37 43 -5 14 -35 19
-46 7z"/>
<path d="M4600 2380 c0 -24 29 -38 40 -20 12 19 1 40 -21 40 -12 0 -19 -7 -19
-20z"/>
<path d="M4522 2178 c2 -60 7 -103 13 -103 9 0 24 173 17 195 -2 6 -10 10 -18
10 -12 0 -14 -18 -12 -102z"/>
<path d="M4612 2264 c2 -11 11 -20 22 -22 13 -3 17 1 14 14 -2 11 -11 20 -22
22 -13 3 -17 -1 -14 -14z"/>
<path d="M4644 2229 c-9 -15 12 -33 30 -26 9 4 16 13 16 22 0 17 -35 21 -46 4z"/>
<path d="M4812 2223 c4 -22 43 -25 43 -3 0 8 -11 16 -23 18 -19 3 -23 0 -20
-15z"/>
<path d="M4961 2226 c-16 -19 -6 -36 20 -36 15 0 20 6 17 22 -4 27 -21 33 -37
14z"/>
<path d="M4744 2155 c-7 -18 3 -35 21 -35 21 0 28 19 15 35 -16 19 -29 19 -36
0z"/>
<path d="M4782 2043 c2 -10 10 -18 18 -18 8 0 16 8 18 18 2 12 -3 17 -18 17
-15 0 -20 -5 -18 -17z"/>
<path d="M4825 1990 c3 -5 8 -10 11 -10 2 0 4 5 4 10 0 6 -5 10 -11 10 -5 0
-7 -4 -4 -10z"/>
<path d="M4542 1963 c5 -26 38 -29 38 -4 0 15 -6 21 -21 21 -14 0 -19 -5 -17
-17z"/>
<path d="M4505 1920 c-4 -6 -1 -17 5 -26 10 -11 16 -12 26 -3 11 9 11 15 3 25
-14 17 -25 18 -34 4z"/>
<path d="M4552 1838 c7 -19 38 -22 38 -4 0 10 -9 16 -21 16 -12 0 -19 -5 -17
-12z"/>
<path d="M4524 1736 c-4 -10 -2 -22 4 -28 8 -8 13 -7 18 6 4 10 2 22 -4 28 -8
8 -13 7 -18 -6z"/>
<path d="M4765 1721 c-8 -15 3 -31 21 -31 9 0 14 7 12 17 -4 20 -24 28 -33 14z"/>
<path d="M4514 1649 c-10 -17 13 -36 27 -22 12 12 4 33 -11 33 -5 0 -12 -5
-16 -11z"/>
<path d="M4780 1645 c0 -10 7 -15 18 -13 21 4 19 22 -2 26 -10 2 -16 -3 -16
-13z"/>
<path d="M4723 1598 c2 -7 10 -13 17 -13 7 0 15 6 18 13 2 7 -5 12 -18 12 -13
0 -20 -5 -17 -12z"/>
<path d="M4774 1529 c-8 -14 11 -33 25 -25 6 4 11 14 11 22 0 16 -26 19 -36 3z"/>
<path d="M4675 1441 c-7 -12 12 -24 25 -16 11 7 4 25 -10 25 -5 0 -11 -4 -15
-9z"/>
<path d="M4695 1370 c-4 -6 -3 -16 3 -22 6 -6 12 -6 17 2 4 6 3 16 -3 22 -6 6
-12 6 -17 -2z"/>
<path d="M4695 745 c-54 -25 -66 -39 -59 -73 6 -30 6 -30 -47 -36 -91 -12
-109 -17 -119 -37 -8 -14 -6 -23 10 -39 16 -16 33 -20 86 -20 56 0 65 -2 62
-17 -4 -20 -36 -31 -94 -32 -25 -1 -51 -9 -65 -20 -22 -18 -23 -21 -8 -36 11
-11 37 -17 89 -18 47 -1 75 -6 77 -14 4 -12 -8 -16 -78 -28 -56 -9 -76 -27
-64 -62 14 -39 48 -38 55 2 4 24 12 31 43 38 27 7 42 6 50 -2 7 -7 13 -56 15
-116 3 -80 7 -105 18 -105 21 0 27 44 21 140 -5 65 -3 89 6 92 6 3 62 6 122 7
116 3 159 16 153 49 -5 27 -65 41 -180 41 -125 1 -151 20 -30 22 127 3 135 3
139 17 5 12 -96 19 -184 13 -24 -2 -33 2 -33 13 0 22 7 24 125 31 117 7 129
10 119 27 -5 7 -46 8 -125 3 -105 -6 -119 -5 -119 9 0 12 10 16 44 16 53 0 76
8 76 26 0 9 -15 12 -57 11 -56 -2 -58 -1 -61 25 -4 32 15 44 73 49 50 5 59
-14 10 -21 -49 -7 -49 -23 0 -31 71 -12 114 40 63 75 -28 20 -93 20 -133 1z
m-60 -156 c0 -17 -82 -26 -98 -10 -10 10 -6 11 58 24 29 6 40 2 40 -14z m-10
-129 c6 -9 -6 -12 -75 -14 -48 -3 -44 9 5 15 28 3 53 7 57 7 4 1 10 -2 13 -8z
m263 -34 c23 -8 30 -26 10 -26 -7 0 -59 -2 -116 -5 -94 -4 -103 -3 -100 13 2
13 17 18 68 22 79 6 108 5 138 -4z"/>
<path d="M4732 338 c-16 -16 -15 -33 3 -48 20 -17 47 5 43 34 -4 24 -28 32
-46 14z"/>
</g>
</svg>
