<?xml version="1.0" standalone="no"?>
<!DOCTYPE svg PUBLIC "-//W3C//DTD SVG 20010904//EN"
 "http://www.w3.org/TR/2001/REC-SVG-20010904/DTD/svg10.dtd">
<svg version="1.0" xmlns="http://www.w3.org/2000/svg"
 width="500.000000pt" height="878.000000pt" viewBox="0 0 500.000000 878.000000"
 preserveAspectRatio="xMidYMid meet">
<metadata>
Created by potrace 1.15, written by Peter Selinger 2001-2017
</metadata>
<g transform="translate(0.000000,878.000000) scale(0.100000,-0.100000)"
fill="#000000" stroke="none">
<path d="M2193 8664 c-7 -19 5 -31 37 -36 24 -3 25 -6 28 -90 3 -87 3 -88 -21
-88 -32 0 -52 -23 -34 -39 17 -13 405 -12 414 2 9 14 -13 30 -54 36 l-38 6 0
85 0 85 30 3 c17 2 36 9 43 14 31 26 -11 33 -204 35 -166 1 -196 -1 -201 -13z
m170 -71 c3 -21 4 -60 4 -88 -2 -43 -5 -50 -23 -53 -19 -3 -21 3 -27 73 -6 87
-2 105 23 105 13 0 20 -10 23 -37z m102 -53 c0 -78 -2 -85 -20 -85 -18 0 -20
8 -23 74 -3 86 1 104 25 99 16 -3 18 -15 18 -88z"/>
<path d="M4234 7933 c-3 -10 -12 -30 -20 -45 -17 -32 -17 -56 0 -88 13 -22 12
-27 -10 -46 -29 -28 -40 -69 -23 -90 9 -11 22 -13 51 -9 l38 7 0 -44 c0 -26 8
-55 20 -73 26 -40 27 -105 2 -105 -10 0 -29 -11 -41 -24 -31 -32 -41 -134 -18
-170 11 -16 16 -46 16 -97 -1 -41 3 -128 8 -194 8 -110 0 -400 -12 -434 -4
-10 -11 -6 -26 13 -15 19 -30 26 -56 26 -23 0 -45 9 -65 25 -43 36 -56 32 -63
-19 -11 -68 16 -126 57 -126 10 0 18 -4 18 -10 0 -5 -11 -10 -24 -10 -39 0
-57 -38 -43 -92 10 -39 40 -44 93 -14 26 14 54 26 64 26 38 0 41 -19 29 -196
-8 -114 -10 -305 -5 -589 4 -231 7 -427 6 -435 0 -8 -1 -28 -1 -44 0 -16 -2
-26 -6 -22 -14 13 -33 -19 -33 -56 0 -85 -46 -118 -136 -98 -22 5 -85 11 -142
15 -57 3 -111 10 -120 15 -9 5 -25 11 -35 14 -16 5 -18 16 -17 88 3 114 21
262 33 270 6 3 21 2 34 -3 28 -10 43 12 23 36 -9 11 -9 18 3 30 8 8 17 20 19
26 2 7 18 2 41 -14 33 -22 42 -24 70 -15 39 13 57 27 57 42 0 14 -57 76 -90
97 -19 13 -22 19 -14 30 16 21 37 133 29 158 -10 34 -37 25 -92 -33 -35 -36
-54 -65 -58 -89 -7 -33 -34 -71 -36 -51 -6 50 5 620 14 719 11 133 12 167 7
430 -3 150 1 177 36 247 35 67 -1 148 -67 148 -10 0 -19 5 -19 10 0 6 26 10
59 10 53 0 60 3 67 22 12 38 -82 106 -118 86 -15 -7 -18 -4 -18 17 0 27 -56
140 -69 140 -4 0 -21 -16 -38 -35 -38 -43 -50 -91 -29 -110 20 -16 11 -30 -18
-30 -50 0 -60 -42 -20 -89 27 -33 60 -39 96 -20 29 16 32 6 9 -40 -14 -27 -33
-46 -56 -55 -42 -18 -77 -71 -70 -106 3 -14 7 -115 10 -225 2 -110 9 -236 14
-280 5 -44 7 -82 5 -85 -7 -6 -36 14 -45 31 -4 8 -11 32 -17 54 -18 72 -40
120 -54 123 -8 2 -27 -16 -42 -39 -26 -38 -28 -47 -21 -105 8 -73 6 -80 -16
-76 -8 1 -31 -8 -50 -21 -67 -45 -27 -123 62 -121 33 1 40 -2 45 -21 3 -12 21
-38 40 -56 24 -24 34 -42 34 -64 0 -25 6 -35 26 -44 25 -11 26 -15 20 -59 -4
-26 -9 -210 -12 -410 -2 -200 -6 -368 -9 -373 -4 -5 -25 -9 -49 -9 -32 0 -48
-6 -66 -25 -24 -25 -58 -28 -84 -6 -16 13 -184 83 -306 128 -52 19 -104 42
-115 52 -62 55 -201 84 -310 64 -48 -9 -111 3 -153 30 -17 11 -16 83 2 90 8 3
20 25 27 49 7 24 27 57 46 74 31 30 32 34 27 85 -4 30 -13 64 -21 77 -9 14
-12 34 -7 56 5 29 2 37 -20 51 -14 10 -26 23 -26 31 0 27 -74 92 -119 104 -24
6 -56 21 -72 32 -16 12 -49 23 -78 26 -40 4 -59 -1 -105 -24 -31 -15 -56 -34
-56 -41 0 -7 -15 -23 -34 -35 -42 -28 -86 -96 -86 -135 0 -18 -9 -38 -21 -49
-36 -33 -43 -53 -23 -75 10 -11 21 -45 25 -77 8 -54 6 -59 -21 -93 -50 -63
-48 -66 66 -69 12 0 29 -12 39 -26 9 -14 27 -30 40 -36 33 -15 22 -28 -23 -28
-21 0 -53 -8 -72 -19 -19 -10 -71 -28 -114 -40 -96 -27 -184 -85 -210 -139
-10 -20 -28 -64 -41 -97 -37 -99 -160 -339 -221 -433 -73 -111 -82 -140 -73
-245 8 -86 3 -428 -7 -538 -3 -35 -9 -136 -13 -225 -5 -127 -10 -166 -24 -187
-19 -29 -23 -87 -7 -103 7 -7 7 -73 -1 -205 -10 -169 -10 -198 3 -224 13 -25
16 -107 17 -522 2 -271 1 -493 -1 -494 -22 -4 -207 -28 -219 -29 -15 0 -16 40
-15 438 0 240 -3 565 -7 722 -8 286 -9 900 -3 1690 5 562 1 507 31 514 33 8
48 41 42 87 l-5 38 56 -6 c103 -11 107 -10 104 12 -7 41 -28 70 -52 73 -26 4
-53 22 -32 22 7 0 21 9 32 20 34 34 22 150 -15 150 -17 0 -79 -57 -87 -79 -6
-22 -65 -24 -69 -3 -2 9 -3 235 -3 502 2 633 19 1347 33 1383 6 16 11 50 11
77 0 44 -3 50 -36 69 -44 26 -36 45 11 26 29 -13 95 -11 95 2 0 15 -67 83 -82
83 -16 0 -18 5 -13 34 7 37 -24 112 -51 123 -21 8 -43 -14 -50 -53 -5 -26 -15
-39 -48 -56 -29 -17 -42 -31 -44 -49 -4 -36 23 -62 57 -54 42 11 43 11 48 -2
3 -7 -4 -16 -14 -19 -52 -17 -95 -40 -104 -55 -6 -12 -5 -52 2 -114 10 -81 9
-115 -6 -218 -14 -100 -17 -175 -14 -412 4 -285 4 -290 -16 -287 -50 9 -70 27
-76 69 -10 81 -74 111 -93 46 -7 -27 -14 -33 -38 -33 -18 0 -41 -12 -63 -32
l-35 -33 30 -32 c18 -19 41 -33 54 -33 20 0 24 -6 30 -49 4 -27 12 -51 19 -54
19 -7 105 40 111 61 4 11 4 27 0 36 -10 27 42 21 61 -7 28 -43 40 -250 40
-672 0 -371 -4 -518 -25 -910 -4 -82 -6 -406 -3 -720 6 -703 4 -1715 -3 -1726
-2 -4 -3 -132 -2 -283 2 -151 -1 -278 -5 -283 -5 -4 -62 -9 -127 -11 -100 -3
-132 0 -202 19 -101 28 -184 29 -303 5 -111 -22 -142 -33 -128 -47 7 -7 44 -5
114 7 131 22 196 22 284 -1 48 -12 115 -18 212 -20 77 -2 146 -6 152 -10 7 -4
9 -14 7 -23 -3 -10 -6 -154 -7 -322 0 -168 -3 -347 -6 -398 l-5 -92 -22 22
c-13 13 -26 31 -29 41 -5 13 -15 17 -34 15 -36 -4 -41 -26 -9 -38 15 -5 26
-17 26 -28 0 -15 5 -18 25 -14 21 4 25 0 25 -19 0 -17 3 -20 9 -10 5 7 11 9
14 4 5 -8 10 -163 8 -240 -1 -16 -11 -27 -36 -37 -19 -8 -35 -22 -35 -30 0
-32 -30 -46 -100 -46 -89 0 -117 -11 -135 -54 -9 -21 -34 -48 -62 -68 -48 -33
-48 -33 -158 -31 -60 1 -139 -3 -175 -10 -55 -10 -65 -15 -68 -34 -3 -21 -1
-22 30 -15 18 4 88 7 154 7 102 0 125 -3 141 -17 11 -10 33 -18 50 -18 36 0
70 -39 109 -124 37 -81 74 -100 74 -38 0 30 -44 113 -66 125 -8 4 -14 19 -14
32 0 13 -4 27 -10 30 -5 3 -10 13 -10 20 0 30 45 -3 70 -51 21 -41 30 -49 53
-49 30 1 33 -6 16 -34 -15 -22 -4 -85 18 -107 13 -13 14 -17 3 -24 -11 -7 -10
-15 5 -44 15 -28 26 -36 47 -36 35 0 36 16 2 65 -17 25 -22 41 -15 48 14 14
57 -16 66 -45 15 -49 44 -68 104 -68 l56 0 -43 26 c-25 15 -50 41 -62 64 -11
22 -33 46 -48 54 -25 13 -92 126 -92 156 0 20 -59 98 -95 126 -36 27 -44 44
-22 44 7 0 26 -18 43 -40 36 -49 64 -53 64 -9 0 24 3 30 16 25 9 -3 18 -6 20
-6 10 0 2 -29 -11 -40 -8 -7 -15 -20 -15 -29 1 -12 7 -9 23 12 28 34 41 35 33
2 -4 -16 0 -34 10 -50 13 -20 14 -31 5 -56 -14 -40 -15 -36 10 -49 17 -10 20
-9 17 6 -5 30 19 26 30 -6 9 -24 8 -30 -4 -30 -27 0 -14 -19 26 -36 30 -13 40
-24 40 -40 0 -25 21 -45 28 -26 2 7 8 12 14 12 6 0 7 -7 4 -16 -7 -18 11 -94
22 -94 5 0 13 5 20 12 8 8 12 9 12 1 0 -8 28 -11 80 -11 44 0 80 3 80 8 0 4
-18 24 -40 44 -23 20 -38 41 -35 46 3 5 -1 7 -9 4 -17 -7 -96 53 -96 73 0 7
-7 13 -15 13 -13 0 -14 4 -5 20 8 16 5 30 -15 67 -14 26 -25 44 -25 39 0 -5
-9 -1 -20 9 -11 10 -20 24 -20 32 0 7 -3 13 -7 13 -5 0 -23 22 -42 50 -19 27
-42 52 -52 55 -11 4 -16 12 -12 21 7 18 29 18 37 -1 5 -15 52 -18 71 -4 7 5 9
79 6 211 -7 302 -6 585 2 1283 4 347 8 839 8 1095 0 256 -1 713 -1 1015 0 303
2 595 5 650 23 450 28 623 31 990 2 231 5 436 6 455 2 19 0 45 -4 58 -5 13 -5
42 -1 65 l6 41 13 -45 c8 -24 13 -48 12 -54 -1 -5 2 -22 6 -38 5 -15 4 -33 -1
-40 -6 -7 -10 -86 -9 -181 l1 -169 30 -10 c39 -13 40 -14 25 -32 -7 -8 -23
-15 -36 -15 -49 0 -38 -43 11 -45 14 -1 24 -6 23 -11 -2 -5 -7 -8 -11 -6 -14
4 -47 -19 -47 -34 0 -8 13 -17 30 -21 46 -9 46 -22 1 -41 -53 -22 -56 -50 -5
-46 33 2 35 1 32 -24 -2 -15 -9 -27 -17 -27 -8 0 -19 -7 -24 -17 -14 -21 7
-50 29 -41 12 4 15 -1 12 -28 -2 -20 -8 -33 -15 -32 -18 4 -38 -36 -24 -50 5
-5 7 -23 4 -40 -5 -24 -1 -33 18 -48 l24 -19 -24 -19 c-24 -19 -22 -41 5 -41
21 0 17 -31 -5 -37 -31 -8 -34 -32 -6 -43 36 -14 32 -44 -7 -55 -38 -12 -43
-36 -11 -50 29 -12 30 -29 3 -20 -12 4 -27 1 -35 -5 -12 -10 -12 -16 3 -38 9
-15 21 -30 26 -34 6 -4 3 -10 -7 -14 -21 -8 -22 -40 -1 -48 8 -3 26 -3 40 0
14 4 24 2 24 -5 0 -6 -13 -11 -28 -11 -16 0 -36 -6 -47 -13 -28 -21 -9 -39 39
-35 35 2 41 0 41 -17 0 -13 -8 -21 -22 -23 -47 -7 -54 -52 -8 -52 30 0 43 -18
18 -26 -33 -10 -48 -21 -49 -35 0 -8 -5 -22 -9 -33 -9 -20 8 -36 38 -36 27 0
15 -24 -14 -28 -13 -2 -28 -8 -33 -12 -13 -13 13 -41 35 -38 25 4 29 -16 4
-20 -33 -6 -40 -20 -21 -41 16 -17 16 -20 1 -28 -23 -13 -8 -43 22 -43 15 0
22 -4 17 -11 -3 -6 -15 -9 -25 -6 -21 6 -33 -20 -23 -47 4 -11 13 -15 25 -11
13 4 19 1 19 -9 0 -8 -9 -18 -20 -21 -27 -8 -25 -34 2 -44 l22 -8 -22 -12
c-27 -15 -29 -41 -2 -48 25 -7 26 -21 3 -30 -32 -12 -34 -27 -7 -49 l26 -21
-31 -6 c-54 -11 -50 -61 4 -54 12 1 21 -5 23 -15 2 -12 -5 -17 -25 -20 -20 -2
-29 -9 -31 -25 -3 -23 4 -27 41 -24 15 2 17 -7 17 -61 -1 -61 -1 -62 -15 -36
-22 40 -55 28 -55 -21 0 -20 -4 -41 -9 -46 -6 -6 -7 -29 -4 -53 7 -49 31 -69
63 -52 22 12 22 12 23 -27 1 -28 0 -29 -55 -32 -39 -2 -9 -53 32 -55 25 -1 26
-21 1 -21 -10 0 -25 -6 -35 -14 -15 -13 -15 -15 0 -32 10 -11 14 -27 11 -39
-3 -12 0 -35 7 -52 12 -29 14 -29 24 -12 10 16 11 14 12 -17 0 -26 -6 -41 -21
-50 -24 -17 -17 -49 12 -49 23 0 26 -32 4 -50 -19 -16 -19 -34 0 -50 22 -19
18 -37 -12 -52 -38 -19 -39 -46 -2 -44 25 2 29 -1 29 -24 0 -14 -5 -31 -12
-38 -9 -9 -9 -15 0 -24 17 -17 15 -67 -3 -74 -21 -9 -19 -32 5 -39 24 -7 26
-37 5 -55 -20 -16 -19 -30 2 -46 17 -12 17 -13 -3 -14 -25 0 -49 -24 -39 -40
3 -5 17 -10 31 -10 13 0 24 -4 24 -10 0 -5 -9 -10 -19 -10 -11 0 -23 -5 -26
-10 -9 -15 14 -40 35 -40 10 0 21 -7 24 -16 9 -25 8 -27 -18 -20 -27 7 -49
-13 -37 -33 9 -15 -5 -48 -32 -75 -15 -15 -17 -41 -16 -220 0 -193 4 -230 25
-225 5 1 18 -1 29 -5 11 -5 26 -10 33 -12 21 -6 13 -34 -13 -44 -17 -6 -33 -6
-50 2 -14 6 -28 9 -31 5 -10 -10 6 -27 26 -27 10 0 22 -4 25 -10 3 -5 15 -10
25 -10 30 0 34 -19 6 -30 -33 -12 -33 -28 -1 -40 14 -5 25 -14 25 -20 0 -20
-32 -23 -60 -6 -31 18 -54 21 -45 6 3 -6 15 -10 25 -10 11 0 25 -10 31 -22 7
-13 19 -28 27 -34 8 -6 12 -16 9 -22 -5 -7 -21 -3 -48 10 -23 10 -43 17 -45
15 -8 -7 26 -37 41 -37 8 0 16 -9 20 -19 3 -11 12 -22 20 -25 8 -3 15 -10 15
-15 0 -13 -55 -42 -71 -39 -6 2 -13 -2 -16 -8 -2 -7 14 -14 42 -18 47 -7 63
-26 22 -26 -13 0 -27 -3 -31 -7 -4 -5 -12 -8 -17 -8 -22 0 -6 -21 24 -31 l32
-11 -38 -12 c-30 -10 -37 -17 -32 -32 4 -11 2 -19 -4 -19 -18 0 -12 -29 8 -40
11 -5 34 -10 51 -10 21 0 30 -4 27 -12 -3 -9 -21 -12 -55 -10 -42 3 -53 0 -58
-13 -10 -24 13 -35 74 -35 38 0 52 -4 50 -12 -3 -8 -21 -11 -51 -9 -40 2 -46
0 -41 -14 8 -20 36 -35 68 -35 19 0 26 -5 26 -19 0 -17 -4 -18 -29 -11 -15 4
-38 13 -50 19 -22 12 -29 3 -10 -16 8 -8 8 -13 0 -17 -18 -11 -13 -31 15 -61
l26 -28 -33 7 c-32 6 -32 6 -14 -14 10 -11 33 -25 51 -32 19 -7 34 -18 34 -25
0 -17 -4 -17 -52 7 -49 23 -71 26 -43 4 17 -12 18 -17 7 -35 -12 -18 -11 -23
7 -36 30 -21 27 -43 -6 -43 l-28 -1 28 -22 c33 -28 34 -35 4 -39 -20 -3 -19
-5 13 -26 l35 -22 -31 0 c-30 0 -31 -2 -37 -51 -4 -29 -3 -57 1 -63 4 -6 7
-18 8 -26 1 -8 2 -25 3 -37 1 -15 11 -24 39 -31 29 -8 32 -10 12 -11 -35 -2
-52 -15 -44 -34 4 -10 1 -17 -6 -17 -8 0 -10 -9 -6 -24 5 -19 -1 -29 -29 -50
-19 -15 -35 -34 -35 -42 0 -18 46 -37 71 -29 11 4 19 2 19 -4 0 -6 7 -11 15
-11 8 0 15 7 15 15 0 43 56 -4 101 -85 13 -23 30 -40 40 -40 10 0 21 -4 24
-10 3 -5 24 -10 46 -10 43 0 46 -4 24 -26 -20 -20 -9 -41 29 -54 24 -7 60 -7
127 0 159 18 227 12 344 -31 87 -32 245 -125 245 -144 0 -12 16 -15 75 -15 41
0 75 3 75 7 0 3 -28 37 -61 75 -66 74 -72 99 -13 52 75 -60 86 -65 105 -48 13
11 16 25 12 50 -3 19 -2 34 2 34 20 0 98 -76 116 -113 l21 -42 -32 38 c-33 39
-66 48 -77 21 -3 -9 6 -27 23 -45 25 -26 34 -29 91 -29 35 0 63 3 63 7 0 3
-11 30 -25 58 -15 33 -48 74 -87 110 -35 31 -56 53 -48 49 18 -9 113 -76 120
-85 19 -24 90 -39 90 -19 0 6 10 10 23 10 13 0 27 4 32 9 12 11 55 -4 55 -19
0 -6 -6 -13 -14 -16 -21 -8 -15 -42 7 -48 10 -2 21 -14 24 -25 3 -12 14 -21
24 -21 23 0 25 26 3 38 -10 5 -14 14 -9 21 5 9 11 7 22 -8 18 -26 33 -27 33
-2 0 21 -33 33 -68 24 -13 -3 -22 -1 -22 6 0 6 7 11 15 11 24 0 18 19 -16 47
-16 14 -26 30 -22 34 10 10 53 0 53 -12 0 -5 11 -14 25 -19 14 -5 28 -18 32
-27 3 -10 15 -26 27 -36 19 -16 19 -18 5 -30 -19 -14 -37 -63 -20 -53 6 4 18
21 27 37 8 17 20 29 26 27 21 -7 20 -26 -1 -47 -24 -24 -14 -28 15 -6 25 19
44 19 44 -2 0 -15 1 -15 19 1 16 15 19 15 31 1 7 -9 29 -15 51 -15 43 0 48 6
22 26 -10 7 -15 16 -10 20 10 10 57 -16 57 -33 0 -9 17 -13 61 -13 37 0 58 4
54 10 -3 5 -11 10 -16 10 -20 0 -76 45 -72 58 5 14 -13 16 -22 2 -4 -6 -11 -8
-16 -4 -6 4 -6 11 2 20 16 19 4 30 -16 14 -13 -10 -22 -8 -58 16 -23 16 -56
43 -73 61 -18 19 -42 33 -55 33 -26 0 -99 21 -139 39 -14 7 -33 26 -43 42 -24
42 -61 37 -65 -8 -2 -18 -5 -33 -6 -33 -2 0 -26 20 -52 45 -81 74 -137 55 -63
-21 36 -37 41 -46 29 -54 -9 -6 -16 -6 -18 0 -18 53 -247 219 -302 220 -29 0
-70 -25 -70 -43 0 -6 -12 -21 -27 -33 -22 -17 -25 -25 -16 -35 9 -11 8 -20 -6
-37 -16 -22 -18 -22 -53 -8 -36 15 -36 16 -22 44 11 23 19 28 37 25 29 -6 52
20 41 44 -4 10 -8 21 -8 25 -1 3 -5 10 -10 15 -5 5 -6 3 -2 -4 9 -17 -1 -16
-106 6 -48 10 -92 15 -99 11 -23 -15 -1 -36 50 -49 28 -7 51 -17 51 -23 0 -5
9 -6 21 -3 18 6 19 5 7 -14 -13 -22 -91 -51 -135 -51 -20 0 -22 4 -17 29 6 27
2 32 -42 60 -27 17 -60 34 -74 37 -14 3 -50 14 -80 24 -69 23 -88 26 -124 17
-36 -10 -66 15 -66 55 0 39 41 56 172 68 103 10 113 14 124 57 6 22 8 22 230
22 203 0 228 -2 271 -20 64 -27 200 -24 233 6 22 20 24 55 5 98 -6 14 -2 17
19 17 15 0 40 7 57 15 28 15 31 15 59 -7 18 -14 29 -33 29 -49 1 -14 12 -38
26 -53 24 -26 29 -27 83 -20 31 3 62 9 67 13 6 3 26 11 45 16 22 7 36 18 39
30 2 11 10 29 18 40 l15 20 -6 -20 c-9 -32 8 -49 40 -41 16 4 88 12 159 17
180 12 185 13 204 36 11 15 29 21 61 22 25 0 68 6 95 12 67 14 197 8 203 -10
3 -9 -1 -11 -15 -7 -44 14 -93 9 -116 -11 -18 -16 -29 -18 -57 -12 -57 13
-150 -20 -104 -38 16 -6 16 -7 -1 -19 -25 -18 -12 -30 53 -50 32 -10 49 -19
40 -21 -20 -5 -23 -18 -7 -28 6 -4 16 1 24 11 7 11 17 15 21 11 5 -4 2 -12 -6
-17 -13 -8 -13 -13 -1 -32 12 -20 12 -24 -8 -36 -11 -8 -21 -23 -21 -33 0 -25
-18 -33 -38 -17 -9 7 -28 19 -42 27 -24 14 -25 13 -8 -6 26 -28 22 -36 -12
-28 -26 6 -30 4 -30 -14 0 -12 -4 -21 -10 -21 -5 0 -10 -10 -10 -22 0 -20 1
-20 18 -5 27 25 32 21 16 -13 -21 -41 -40 -38 -63 10 -11 22 -15 37 -9 34 5
-3 4 3 -4 15 -7 11 -17 20 -23 19 -5 -1 -20 4 -33 11 -49 26 -70 -14 -32 -62
25 -31 25 -37 0 -37 -11 0 -44 25 -73 55 -37 38 -61 55 -78 55 -44 0 -41 -13
13 -61 50 -44 52 -48 39 -72 -14 -27 -8 -61 17 -89 17 -20 30 -22 52 -8 12 7
12 12 0 34 -22 42 -2 42 41 0 35 -34 39 -43 34 -71 -4 -20 -2 -33 5 -33 5 0
10 -7 10 -15 0 -17 -17 -20 -22 -4 -3 8 -15 6 -41 -4 -20 -9 -37 -18 -37 -21
0 -8 103 -74 141 -90 19 -8 52 -33 74 -55 30 -31 47 -41 71 -41 42 0 64 9 64
26 0 17 -12 18 -29 1 -11 -9 -13 -9 -7 1 4 6 2 12 -3 12 -17 0 -13 19 9 47 26
33 26 47 0 31 -11 -7 -20 -18 -20 -24 0 -6 -7 -18 -16 -25 -14 -11 -20 -9 -44
18 -15 17 -37 34 -49 38 -24 7 -29 45 -6 45 8 0 20 -9 27 -19 10 -17 14 -18
34 -5 12 8 35 14 50 12 26 -3 30 1 38 35 8 30 13 36 29 31 12 -4 32 5 58 26
l40 31 30 -25 c35 -30 74 -33 101 -9 15 14 41 18 120 19 100 2 101 2 125 -27
19 -22 33 -29 59 -29 31 0 34 -2 24 -19 -15 -29 -12 -44 8 -38 9 2 23 6 31 8
9 3 15 -4 15 -18 1 -13 17 -33 43 -52 22 -16 49 -44 59 -60 15 -25 25 -31 51
-31 33 0 33 0 18 24 -15 22 -14 24 5 29 12 3 20 13 20 26 0 23 -56 91 -74 91
-18 0 -46 33 -46 55 0 17 -1 17 -18 2 -23 -21 -39 -22 -22 -2 11 13 9 20 -10
40 -13 14 -21 28 -17 31 8 9 129 -24 193 -52 66 -28 77 -44 29 -44 -27 0 -37
-5 -43 -21 -7 -17 0 -30 36 -64 43 -42 44 -44 28 -66 -28 -41 -18 -55 14 -19
16 19 29 30 30 23 0 -6 -4 -15 -10 -18 -5 -3 -10 -13 -10 -21 0 -10 14 -14 54
-14 53 0 55 1 61 32 6 26 3 34 -16 49 -13 10 -29 19 -36 19 -21 0 -25 20 -8
37 11 11 15 26 11 45 -3 15 -3 35 1 44 5 13 31 -9 114 -96 93 -97 110 -111
124 -100 8 7 15 16 15 21 0 8 -46 59 -193 216 -64 68 -77 86 -67 98 22 26
-107 100 -140 80 -19 -11 -10 -25 26 -42 29 -14 32 -18 17 -24 -11 -4 -29 1
-46 13 -17 12 -51 22 -90 25 -42 4 -69 12 -84 26 -46 41 -74 -13 -30 -57 19
-19 32 -22 68 -19 53 4 79 -8 61 -30 -10 -12 -21 -13 -55 -5 -52 13 -56 13
-88 5 -22 -6 -29 -1 -47 31 -15 28 -18 42 -10 55 8 15 3 25 -27 53 -24 22 -45
34 -59 32 -33 -5 -31 -35 5 -69 l33 -31 -24 -19 c-14 -10 -28 -19 -33 -19 -20
0 -25 64 -20 277 l6 230 96 6 c57 3 113 12 139 23 40 16 43 16 62 -1 16 -15
23 -16 33 -6 9 9 9 14 -3 22 -30 19 47 61 87 47 4 -2 6 -19 5 -38 -3 -53 18
-73 86 -81 43 -5 61 -3 74 8 14 13 19 13 40 -1 13 -8 39 -17 58 -18 29 -3 35
0 35 17 0 16 -15 25 -72 44 -68 24 -73 24 -91 8 -42 -38 -63 -7 -62 90 0 38 0
79 0 93 -3 125 3 337 10 385 5 33 10 164 10 290 1 127 4 289 8 362 l7 131 24
-19 24 -20 -22 -15 c-17 -12 -19 -19 -11 -29 11 -13 21 -15 83 -15 23 -1 28
-5 25 -23 -2 -15 -11 -23 -28 -25 -14 -2 -29 -8 -34 -12 -14 -14 13 -40 40
-40 15 0 24 -6 24 -15 0 -17 -13 -19 -57 -6 -25 7 -33 6 -38 -7 -3 -10 1 -21
9 -28 20 -14 20 -24 1 -24 -20 0 -20 -67 0 -107 19 -38 10 -127 -11 -119 -10
4 -14 -3 -14 -19 0 -14 4 -24 9 -22 5 1 9 -2 9 -8 1 -5 -6 -9 -15 -7 -12 3
-14 -1 -8 -15 5 -10 8 -32 7 -50 -2 -25 3 -33 20 -39 l23 -7 -21 -8 c-18 -6
-23 -19 -29 -84 -4 -42 -4 -79 -1 -82 3 -4 6 5 6 18 0 13 5 31 10 39 11 17 12
8 10 -113 -1 -70 1 -78 17 -75 24 4 30 -38 9 -61 -15 -16 -15 -19 2 -35 11 -9
26 -14 35 -11 17 7 32 -10 22 -25 -4 -6 -12 -7 -22 -1 -26 14 -53 1 -53 -25 0
-15 -6 -24 -15 -24 -22 0 -18 -28 5 -40 25 -13 72 -9 77 6 2 7 -10 17 -27 22
-38 14 -38 17 2 17 31 0 33 -3 41 -45 5 -28 4 -56 -2 -72 -9 -25 -13 -26 -41
-17 -30 11 -32 32 -3 27 9 -2 18 2 20 9 5 14 -64 46 -83 39 -18 -7 -5 -46 15
-47 13 0 14 -2 1 -6 -15 -6 -30 -23 -30 -35 0 -9 102 -38 134 -38 18 0 26 5
26 18 0 10 4 22 8 28 5 5 5 63 1 129 -8 128 -10 597 -3 580 2 -6 101 -9 272
-8 234 1 267 3 270 17 4 18 -14 20 -230 17 -97 -2 -138 1 -138 9 0 6 10 11 23
10 12 -1 104 -2 205 -1 155 1 184 3 189 16 3 9 4 17 2 19 -2 2 -138 1 -302 -2
-293 -7 -297 -7 -297 13 0 19 7 20 103 20 89 0 111 4 171 28 50 21 77 27 100
22 66 -14 127 -16 157 -6 21 7 37 7 50 0 16 -8 19 -6 19 11 0 29 -42 47 -75
32 -36 -17 -92 -15 -141 4 -41 16 -43 15 -115 -17 -62 -28 -90 -34 -172 -38
-55 -4 -101 -3 -103 1 -7 11 -3 227 6 363 5 72 12 247 16 390 3 143 8 263 10
266 1 3 4 84 5 180 2 159 5 230 24 509 4 52 5 232 4 400 -2 168 -3 427 -4 577
l0 272 26 28 c33 35 42 80 43 213 1 103 1 105 -25 117 -26 13 -26 15 -31 137
-7 170 -4 182 43 207 21 10 46 30 55 44 11 17 26 25 44 25 27 0 60 26 60 48 0
6 -12 20 -27 32 -24 19 -27 28 -28 83 0 55 -2 62 -21 65 -34 5 -74 -34 -74
-73 0 -25 -6 -38 -21 -45 -11 -7 -23 -10 -25 -8 -2 3 0 42 5 89 6 58 5 88 -3
98 -7 10 -10 78 -8 210 1 108 5 345 7 526 4 345 11 565 21 675 5 60 3 69 -24
111 -22 34 -41 50 -69 59 -46 16 -53 24 -53 73 0 21 -7 51 -15 67 l-16 30 34
0 c59 0 90 63 47 93 -20 14 -19 14 5 25 13 6 28 23 31 38 9 37 -32 74 -82 74
-29 0 -34 4 -34 23 0 31 -42 101 -63 105 -10 2 -19 -4 -23 -15z m36 -99 c0
-14 -4 -23 -10 -19 -5 3 -10 15 -10 26 0 10 5 19 10 19 6 0 10 -12 10 -26z
m115 -74 c0 -8 -8 -16 -18 -18 -21 -4 -49 16 -41 30 9 15 59 5 59 -12z m-25
-65 c0 -2 -9 -9 -20 -15 -16 -9 -20 -8 -20 5 0 8 9 15 20 15 11 0 20 -2 20 -5z
m20 -55 c0 -5 -4 -10 -10 -10 -5 0 -10 5 -10 10 0 6 5 10 10 10 6 0 10 -4 10
-10z m-3355 -50 c3 -5 -1 -10 -10 -10 -9 0 -13 5 -10 10 3 6 8 10 10 10 2 0 7
-4 10 -10z m-138 -240 c-2 -83 -7 -153 -10 -157 -4 -3 -7 9 -7 28 0 19 -7 56
-15 83 -9 28 -13 64 -9 82 3 18 1 35 -5 38 -14 9 -14 56 -1 56 6 0 14 -10 19
-22 8 -22 9 -21 15 10 4 17 10 32 12 32 3 0 3 -68 1 -150z m43 120 c0 -5 -4
-10 -10 -10 -5 0 -10 5 -10 10 0 6 5 10 10 10 6 0 10 -4 10 -10z m48 -101
c-14 -41 -28 -36 -28 9 0 46 10 59 26 37 9 -12 10 -25 2 -46z m-48 10 c0 -16
-4 -29 -10 -29 -5 0 -10 16 -10 36 0 21 4 33 10 29 6 -3 10 -19 10 -36z m3393
-83 c-3 -41 -2 -68 3 -63 10 9 11 14 13 52 0 14 6 25 11 25 14 0 13 -63 -2
-78 -15 -15 -21 -109 -8 -117 6 -3 10 -33 10 -65 0 -32 3 -65 6 -74 5 -14 8
-14 30 1 22 14 24 14 24 -4 0 -10 5 -24 11 -30 7 -7 3 -9 -15 -6 -23 5 -26 2
-32 -36 -4 -23 -10 -41 -15 -41 -17 0 -31 -41 -19 -55 14 -16 5 -35 -16 -35
-11 0 -14 21 -16 108 0 59 -3 121 -5 137 -2 17 -4 71 -4 120 0 63 -5 97 -15
113 -14 22 -14 26 2 43 15 17 16 24 6 39 -15 25 -15 43 0 58 24 24 37 -14 31
-92z m117 -4 c0 -15 -5 -34 -10 -42 -7 -11 -10 -2 -10 33 0 30 4 46 10 42 6
-3 10 -18 10 -33z m-770 -63 c0 -17 -22 -21 -37 -6 -10 10 -13 22 -8 38 l8 23
18 -23 c11 -13 19 -27 19 -32z m-2790 -95 c0 -25 24 -31 26 -6 1 7 2 15 3 18
2 10 35 -37 49 -69 22 -50 14 -61 -19 -28 -44 45 -82 42 -103 -6 l-16 -38 3
45 c1 27 6 44 13 43 7 -1 15 13 18 32 8 41 26 47 26 9z m2895 6 c3 -5 -3 -10
-15 -10 -12 0 -18 5 -15 10 3 6 10 10 15 10 5 0 12 -4 15 -10z m-160 -20 c11
-18 -5 -31 -26 -20 -11 6 -17 15 -14 21 8 12 32 12 40 -1z m150 -120 c4 -6 -7
-10 -24 -10 -21 0 -31 -5 -31 -15 0 -13 -37 -41 -45 -33 -2 2 7 18 21 36 25
32 66 43 79 22z m-2803 -102 c-5 -21 -15 -34 -28 -37 -18 -3 -18 -2 -1 16 9
11 17 29 17 40 0 22 13 40 18 25 2 -6 -1 -25 -6 -44z m2653 -57 c4 -39 4 -74
1 -80 -11 -18 -14 -134 -4 -163 8 -23 13 -26 24 -17 11 9 14 6 14 -16 0 -20
-4 -26 -15 -21 -20 7 -19 -22 0 -48 8 -11 15 -34 15 -51 0 -30 2 -32 40 -31
26 1 40 -3 40 -11 0 -7 -9 -13 -20 -13 -28 0 -36 -27 -16 -49 12 -13 14 -21 7
-26 -16 -9 -13 -36 4 -49 12 -8 14 -22 9 -58 -4 -27 -11 -48 -15 -48 -5 0 -9
5 -9 11 0 8 -5 7 -16 -2 -9 -7 -14 -22 -11 -36 3 -15 -2 -27 -12 -33 -14 -8
-14 -12 -2 -31 20 -34 21 -67 0 -72 -21 -6 -19 -55 2 -68 8 -4 23 -14 34 -22
19 -14 18 -15 -8 -10 -30 6 -48 -20 -28 -40 15 -15 14 -42 -4 -57 -10 -8 -15
-31 -15 -66 0 -30 -4 -54 -9 -54 -5 0 -12 -19 -15 -42 -7 -40 -8 -42 -22 -24
-16 23 -18 154 -4 281 5 44 12 115 16 157 7 78 20 116 31 89 4 -9 12 -1 24 24
11 23 15 43 10 52 -4 8 -5 33 -1 55 4 22 6 57 3 78 -5 33 -8 37 -35 38 -17 0
-33 4 -37 7 -8 9 -18 372 -10 410 3 17 3 39 -1 50 -8 21 4 55 19 55 5 0 12
-31 16 -69z m65 59 c0 -5 -4 -10 -10 -10 -5 0 -10 5 -10 10 0 6 5 10 10 10 6
0 10 -4 10 -10z m0 -97 c0 -19 -3 -24 -10 -17 -6 6 -8 18 -4 27 9 24 14 21 14
-10z m-2730 -4 c0 -5 -10 -9 -21 -9 -18 0 -19 2 -9 15 12 15 30 12 30 -6z
m-110 -28 c0 -6 -4 -13 -10 -16 -5 -3 -10 1 -10 9 0 9 5 16 10 16 6 0 10 -4
10 -9z m3494 -64 c-4 -22 -1 -29 16 -35 21 -8 21 -8 -5 -20 -33 -15 -30 -43 5
-53 23 -6 23 -7 3 -8 -12 -1 -28 -4 -37 -7 -14 -5 -15 4 -10 72 3 44 8 86 10
94 9 26 25 -12 18 -43z m-3378 -14 c-11 -11 -19 6 -11 24 8 17 8 17 12 0 3
-10 2 -21 -1 -24z m-67 -115 c-4 -120 1 -138 32 -138 10 0 19 -4 19 -10 0 -5
-9 -10 -19 -10 -31 0 -51 -11 -51 -28 0 -15 -2 -15 -15 -1 -12 11 -17 45 -20
133 -3 112 -3 117 16 111 16 -5 19 -1 19 24 0 17 5 31 11 31 7 0 10 -36 8
-112z m59 -5 c-4 -83 -24 -97 -30 -21 -5 65 0 88 19 88 11 0 13 -14 11 -67z
m3472 17 c0 -5 -2 -10 -4 -10 -3 0 -8 5 -11 10 -3 6 -1 10 4 10 6 0 11 -4 11
-10z m-39 -50 c36 0 49 -4 49 -14 0 -11 -12 -15 -39 -14 -22 0 -43 -2 -49 -6
-12 -7 -14 -153 -3 -161 5 -3 9 -27 9 -55 1 -37 -3 -50 -14 -50 -19 0 -18 -20
4 -36 15 -11 15 -16 4 -34 -10 -16 -10 -25 -2 -35 8 -9 7 -14 -5 -19 -17 -6
-20 -42 -4 -51 8 -6 8 -56 0 -92 -1 -1 -7 0 -15 3 -17 6 -28 -41 -16 -70 9
-22 14 -9 11 27 -1 9 3 17 8 17 14 0 14 -77 1 -85 -17 -10 8 -45 33 -45 12 0
29 -5 37 -10 11 -7 3 -10 -30 -10 -52 0 -76 -16 -59 -37 7 -7 20 -13 31 -13
10 0 16 -4 13 -10 -3 -5 -17 -10 -31 -10 -27 0 -28 -3 -14 -31 6 -10 21 -19
33 -19 18 -1 16 -3 -11 -15 -30 -13 -33 -18 -27 -44 4 -17 1 -38 -6 -49 -11
-17 -9 -28 7 -63 12 -28 18 -59 16 -87 -3 -33 0 -47 15 -57 17 -13 17 -14 -2
-29 -18 -13 -18 -17 -6 -37 10 -17 10 -24 2 -27 -6 -2 -11 -10 -11 -18 0 -9 5
-12 10 -9 6 4 16 2 23 -3 7 -6 25 -12 42 -14 20 -2 31 -9 33 -22 4 -16 0 -18
-27 -13 -36 8 -61 0 -61 -18 0 -7 -7 -18 -15 -25 -8 -7 -15 -25 -15 -41 0 -15
-5 -31 -10 -34 -7 -5 -10 13 -9 52 1 32 -2 171 -8 308 -9 232 -8 437 2 645 10
222 23 465 24 469 1 2 8 0 17 -3 9 -3 38 -6 65 -6z m-281 -30 c0 -5 -4 -10
-10 -10 -5 0 -10 5 -10 10 0 6 5 10 10 10 6 0 10 -4 10 -10z m-3519 -25 c0 -5
-12 -11 -26 -13 -18 -2 -25 1 -25 13 0 12 7 15 25 13 14 -2 26 -7 26 -13z
m3149 -22 c0 -13 -3 -13 -15 -3 -8 7 -12 16 -9 21 8 13 24 1 24 -18z m510 -39
c0 -42 -1 -45 -22 -39 -13 4 -30 14 -38 22 -13 13 -12 17 15 39 17 13 33 24
38 24 4 0 7 -21 7 -46z m-3584 -33 c-8 -13 -36 -15 -36 -3 0 4 5 13 12 20 14
14 34 0 24 -17z m3777 -14 c-3 -17 -9 -24 -13 -17 -9 15 0 64 11 53 4 -4 5
-21 2 -36z m-36 1 c-3 -8 -6 -5 -6 6 -1 11 2 17 5 13 3 -3 4 -12 1 -19z m-955
-22 c7 -33 -7 -55 -15 -24 -9 32 -8 48 2 48 5 0 11 -11 13 -24z m686 12 c-5
-16 -48 -24 -48 -10 0 11 17 20 38 21 8 1 12 -5 10 -11z m-3204 -79 c-9 -15
-34 -10 -28 5 3 8 12 12 20 9 8 -3 11 -9 8 -14z m3513 7 c8 -7 -23 -36 -39
-36 -9 0 -11 34 -2 42 7 8 31 4 41 -6z m-926 -67 c11 -5 17 -14 14 -20 -7 -11
-45 7 -45 21 0 13 7 13 31 -1z m123 3 c2 -4 0 -14 -5 -22 -8 -13 -10 -13 -18
0 -10 15 -6 30 9 30 5 0 11 -4 14 -8z m-258 -33 c3 -6 -1 -18 -9 -27 -14 -13
-18 -13 -32 -2 -16 13 -15 15 1 27 22 16 31 16 40 2z m1034 -10 c0 -15 -4 -19
-16 -15 -9 3 -20 6 -25 6 -16 0 -10 18 9 23 30 8 32 7 32 -14z m-882 -29 l33
0 -5 -67 c-3 -36 -8 -69 -11 -72 -3 -3 -23 13 -45 34 -26 27 -41 53 -46 79 -7
38 -6 39 17 33 13 -4 39 -7 57 -7z m-2592 -42 c1 -15 -3 -33 -7 -40 -6 -9 -9
-7 -9 9 0 12 -7 28 -15 37 -21 21 -19 28 8 24 16 -2 22 -10 23 -30z m3469 2
c18 -8 17 -9 -7 -9 -16 -1 -28 4 -28 9 0 12 8 12 35 0z m5 -85 c0 -16 -35 -21
-44 -6 -8 12 4 21 26 21 10 0 18 -7 18 -15z m8 -88 c3 -12 -4 -17 -21 -17 -29
0 -37 7 -30 26 7 18 47 11 51 -9z m-3498 -26 c0 -10 7 -24 15 -31 20 -16 10
-30 -22 -30 -21 0 -24 3 -19 23 3 12 6 32 6 45 0 13 4 20 10 17 6 -3 10 -14
10 -24z m1132 -73 c-6 -6 -15 -8 -19 -4 -4 4 -1 11 7 16 19 12 27 3 12 -12z
m403 -96 c-63 -61 -336 -130 -464 -118 -69 6 -96 21 -81 46 8 12 11 12 28 -3
25 -23 173 -23 251 -1 116 34 207 66 241 83 51 27 59 25 25 -7z m-405 4 c0
-16 -18 -31 -27 -22 -8 8 5 36 17 36 5 0 10 -6 10 -14z m1645 -6 c-3 -5 -10
-10 -16 -10 -5 0 -9 5 -9 10 0 6 7 10 16 10 8 0 12 -4 9 -10z m885 -50 c0 -5
-5 -10 -11 -10 -5 0 -7 5 -4 10 3 6 8 10 11 10 2 0 4 -4 4 -10z m-910 -20 c0
-5 -4 -10 -10 -10 -5 0 -10 5 -10 10 0 6 5 10 10 10 6 0 10 -4 10 -10z m750 0
c0 -5 -8 -10 -17 -10 -15 0 -16 2 -3 10 19 12 20 12 20 0z m-1938 -93 c-9 -18
-21 9 -15 33 l7 25 6 -25 c4 -14 5 -29 2 -33z m1935 21 c-3 -8 -6 -5 -6 6 -1
11 2 17 5 13 3 -3 4 -12 1 -19z m-81 -15 c-10 -10 -19 5 -10 18 6 11 8 11 12
0 2 -7 1 -15 -2 -18z m-458 -15 c-14 -44 -26 -55 -34 -35 -6 18 20 67 36 67 5
0 4 -14 -2 -32z m-272 -7 c-3 -4 16 -7 42 -6 38 0 47 -4 50 -18 3 -15 0 -17
-15 -9 -20 11 -63 -1 -63 -17 0 -5 10 -13 22 -17 l21 -6 -23 -18 c-21 -15 -22
-20 -11 -34 7 -9 26 -16 42 -16 16 0 29 -4 29 -10 0 -5 -8 -10 -19 -10 -10 0
-25 -10 -33 -21 -8 -13 -24 -21 -41 -21 -23 0 -27 -4 -25 -22 2 -17 11 -22 46
-24 37 -3 44 0 49 17 7 27 33 27 33 1 0 -13 -10 -24 -27 -30 -45 -16 -58 -27
-55 -43 1 -9 -7 -21 -19 -27 -19 -11 -21 -18 -15 -58 7 -56 30 -82 68 -82 19
0 28 -4 26 -12 -3 -7 -10 -14 -16 -14 -7 -1 -19 -2 -27 -3 -21 -1 -31 -31 -14
-42 8 -4 24 -6 36 -2 19 4 23 1 23 -16 0 -14 -6 -21 -19 -21 -47 0 -67 -30
-39 -58 8 -8 9 -12 1 -12 -17 0 -11 -329 7 -340 10 -6 7 -11 -9 -19 -25 -14
-28 -39 -5 -48 13 -5 12 -8 -6 -25 -15 -14 -18 -23 -11 -36 5 -10 9 -24 9 -32
-3 -40 4 -61 24 -80 19 -17 19 -20 5 -20 -11 0 -20 -11 -23 -30 -4 -16 -11
-30 -15 -30 -5 0 -18 -14 -28 -30 -16 -27 -20 -29 -31 -15 -7 9 -10 28 -6 47
7 43 11 442 4 454 -3 5 -2 95 3 199 5 105 11 271 15 370 10 273 15 312 35 299
5 -3 7 -9 5 -13z m912 -11 c19 0 14 -18 -10 -34 -33 -23 -38 -20 -38 26 0 39
1 40 18 25 10 -10 24 -17 30 -17z m-3378 -76 c0 -24 -4 -34 -12 -32 -24 8 -22
68 2 68 5 0 10 -16 10 -36z m2560 6 c0 -5 -4 -10 -10 -10 -5 0 -10 5 -10 10 0
6 5 10 10 10 6 0 10 -4 10 -10z m228 -52 c16 -16 15 -28 -3 -28 -8 0 -15 2
-15 4 0 2 -3 11 -6 20 -7 19 7 21 24 4z m442 2 c0 -6 11 -8 25 -4 28 7 35 -10
9 -20 -23 -9 -54 2 -54 20 0 8 5 14 10 14 6 0 10 -5 10 -10z m-570 -30 c0 -12
-28 -25 -36 -17 -9 9 6 27 22 27 8 0 14 -5 14 -10z m-1590 -20 c-6 -11 -15
-18 -21 -14 -6 4 -6 11 2 20 17 21 31 17 19 -6z m154 -16 c11 -29 6 -62 -10
-68 -9 -4 -56 -9 -105 -13 -96 -7 -92 -9 -103 55 -3 18 -1 32 4 32 6 0 10 -7
10 -15 0 -8 3 -15 8 -16 4 0 18 -3 32 -6 53 -10 79 -5 112 20 39 31 44 32 52
11z m-1349 -86 c5 -49 4 -58 -9 -58 -13 0 -16 13 -16 67 0 79 15 74 25 -9z
m-67 34 c2 -7 -4 -15 -13 -18 -20 -8 -27 -1 -19 20 7 18 25 17 32 -2z m1189
-84 c9 -7 40 -7 95 1 143 20 158 21 158 14 -1 -5 -15 -17 -33 -28 -43 -27
-130 -154 -162 -236 -14 -36 -28 -90 -31 -120 -11 -120 -12 -121 -45 -114 -54
12 -82 -37 -32 -56 20 -8 24 -12 14 -22 -7 -7 -16 -13 -22 -13 -5 -1 -13 -2
-19 -3 -21 -2 -10 -42 15 -51 14 -5 25 -12 25 -15 0 -3 -11 -10 -25 -15 -30
-11 -32 -26 -5 -40 29 -15 25 -37 -11 -55 -34 -18 -34 -35 -1 -50 29 -13 28
-25 -2 -25 -13 0 -29 -7 -36 -15 -17 -20 2 -43 38 -47 43 -5 34 -32 -13 -38
-50 -6 -53 -29 -8 -50 18 -8 33 -18 33 -22 0 -8 -23 -12 -48 -9 -8 1 -20 -3
-28 -10 -13 -10 -12 -14 2 -30 10 -11 30 -19 46 -19 18 0 28 -5 28 -15 0 -10
-8 -15 -22 -14 -45 4 -69 -1 -75 -17 -8 -22 23 -49 57 -49 48 0 34 -18 -15
-21 -25 -1 -48 -4 -52 -7 -14 -15 10 -38 52 -48 61 -15 57 -29 -9 -29 -60 0
-73 -9 -56 -40 8 -15 21 -20 55 -20 25 0 45 -4 45 -10 0 -5 -20 -10 -45 -10
-32 0 -47 -5 -51 -15 -10 -25 16 -45 57 -45 21 0 40 -4 43 -9 9 -13 -14 -19
-51 -13 -24 3 -34 0 -39 -12 -10 -25 15 -46 52 -46 19 0 34 -4 34 -9 0 -6 -16
-7 -35 -4 -46 7 -60 -21 -25 -47 l24 -18 -39 -10 c-22 -6 -57 -13 -77 -17
l-38 -6 -1 38 c-6 304 -3 740 7 855 7 79 13 179 13 224 1 74 21 238 37 292 7
24 -10 52 -32 52 -39 0 -65 -131 -71 -360 -7 -299 -8 -875 -2 -990 5 -111 4
-127 -11 -140 -10 -8 -23 -25 -29 -37 -7 -13 -18 -23 -26 -23 -9 0 -15 10 -15
23 0 12 -2 250 -5 530 -2 279 -6 511 -9 515 -5 8 9 124 19 157 4 14 0 27 -13
38 -16 15 -21 15 -38 3 -18 -14 -19 -30 -19 -358 0 -189 3 -471 6 -628 6 -272
5 -287 -13 -310 l-19 -23 -38 21 -38 22 -37 -25 -37 -25 2 248 c1 195 -1 253
-12 270 -33 52 -69 7 -58 -72 8 -60 12 -242 10 -438 l-1 -127 -47 -21 c-45
-20 -48 -20 -60 -3 -33 45 -42 170 -24 328 22 182 42 678 29 706 -12 27 29
133 86 222 31 47 56 88 56 91 0 7 77 165 120 246 16 30 29 61 30 68 0 24 42
97 69 120 36 31 88 58 139 71 35 10 46 9 64 -3 20 -14 24 -14 45 6 46 43 165
64 200 36z m303 -68 c-35 -28 -58 -26 -47 4 6 15 67 37 77 29 3 -3 -11 -17
-30 -33z m1970 -30 c0 -5 -9 -10 -20 -10 -11 0 -20 5 -20 10 0 6 9 10 20 10
11 0 20 -4 20 -10z m-2056 -66 c-49 -69 -74 -117 -82 -161 -6 -26 -19 -82 -30
-125 -12 -42 -26 -138 -32 -214 -6 -76 -13 -140 -15 -143 -10 -10 -17 11 -27
82 -10 69 -9 79 17 153 14 43 31 113 36 154 14 115 42 188 94 245 46 50 72 56
39 9z m2121 16 c3 -5 -23 -22 -58 -38 -74 -34 -88 -49 -62 -68 15 -11 23 -9
56 12 21 13 45 24 53 24 24 0 8 -24 -29 -44 -19 -10 -44 -29 -56 -42 -21 -22
-21 -25 -6 -42 11 -11 13 -22 7 -32 -5 -9 -5 -19 2 -27 8 -11 17 -9 44 8 19
11 34 17 34 12 0 -17 -55 -62 -100 -82 -54 -25 -70 -26 -70 -6 0 28 -44 22
-75 -11 -12 -13 -25 -24 -28 -24 -10 0 -26 71 -20 88 3 9 16 28 28 42 12 14
25 38 29 54 4 16 15 30 26 33 11 3 31 24 44 47 31 53 46 66 105 87 55 21 68
22 76 9z m-969 -227 c-5 -133 -10 -171 -23 -185 -12 -14 -13 -21 -4 -32 10
-12 8 -15 -11 -18 -15 -2 -23 -10 -23 -23 0 -23 -20 -39 -36 -29 -16 9 3 108
45 239 18 57 22 83 14 92 -5 7 -14 10 -19 7 -5 -3 -18 5 -28 18 l-19 23 -18
-32 c-24 -41 -55 -56 -90 -43 -23 9 -25 14 -19 43 9 43 14 47 71 53 41 5 53 2
73 -15 14 -12 29 -20 35 -18 18 6 19 37 1 57 -16 18 -15 19 12 23 15 2 32 5
37 6 5 0 6 -68 2 -166z m951 52 c-15 -14 -33 -25 -40 -25 -7 0 1 12 16 25 15
14 33 25 40 25 7 0 -1 -12 -16 -25z m-570 -41 c144 -8 150 -10 173 -54 12 -23
19 -57 19 -82 -1 -24 -4 -33 -6 -21 -6 32 -29 48 -48 33 -12 -10 -18 -9 -31 4
-26 27 -44 3 -44 -60 0 -30 -4 -54 -10 -54 -6 0 -10 28 -10 64 0 45 -4 65 -14
69 -25 10 -36 -16 -37 -82 l-1 -66 -12 55 c-14 66 -22 80 -45 80 -10 0 -32 7
-48 15 -30 15 -31 18 -28 73 2 31 4 58 4 60 1 1 12 -5 25 -13 16 -10 56 -18
113 -21z m-482 -69 c-9 -31 -19 -54 -23 -51 -3 3 3 34 13 67 11 34 21 57 23
51 1 -5 -4 -36 -13 -67z m-85 -49 c0 -8 -4 -18 -10 -21 -5 -3 -10 3 -10 14 0
12 5 21 10 21 6 0 10 -6 10 -14z m-1012 -45 c3 -8 -1 -12 -9 -9 -7 2 -15 10
-17 17 -3 8 1 12 9 9 7 -2 15 -10 17 -17z m1712 -36 c0 -30 -4 -55 -8 -55 -5
0 -10 25 -11 55 -1 32 3 55 9 55 6 0 10 -24 10 -55z m-659 -1 c-5 -21 -9 -30
-10 -19 -1 24 10 67 15 62 3 -2 0 -22 -5 -43z m987 -26 c-12 -34 -1 -48 40
-48 34 0 22 -24 -14 -28 -16 -2 -35 -9 -42 -15 -11 -9 -11 -13 4 -24 10 -7 28
-13 41 -13 16 0 23 -6 23 -20 0 -14 -7 -20 -24 -20 -35 0 -56 -10 -56 -26 0
-17 50 -43 70 -36 8 2 11 1 7 -4 -4 -4 -22 -13 -39 -19 -38 -12 -48 -34 -19
-42 21 -5 21 -6 2 -19 -20 -15 -18 -59 3 -47 6 3 6 0 -1 -8 -23 -24 -16 -49
15 -50 l27 -1 -32 -14 c-40 -17 -51 -34 -29 -46 16 -9 16 -11 -1 -24 -17 -13
-17 -15 7 -33 16 -13 33 -18 48 -14 12 3 22 1 22 -5 0 -12 -24 -22 -50 -22
-23 0 -26 -5 -35 -57 -6 -38 -4 -43 12 -44 17 0 16 -1 -2 -8 -25 -10 -31 -78
-9 -102 13 -15 13 -18 -2 -34 -16 -15 -18 -43 -21 -224 -3 -226 0 -271 22
-271 20 0 20 -88 1 -133 -7 -18 -14 -72 -15 -119 -2 -92 3 -103 56 -117 29 -8
34 -29 5 -22 -45 11 -67 6 -70 -16 -2 -16 2 -23 12 -23 9 0 16 -4 16 -10 0 -5
-7 -10 -15 -10 -8 0 -16 -7 -16 -15 -1 -8 -2 -21 -3 -27 -1 -7 7 -12 17 -10
14 2 17 -5 17 -42 0 -24 -4 -46 -10 -48 -5 -1 -11 -35 -13 -74 -2 -39 -7 -76
-11 -82 -9 -14 51 -52 70 -45 11 4 14 -9 14 -58 0 -58 -1 -62 -16 -47 -13 13
-14 19 -3 36 17 28 3 43 -42 45 -24 2 -34 -3 -37 -15 -2 -11 3 -18 12 -18 9 0
16 -7 16 -15 0 -8 -8 -15 -19 -15 -16 0 -19 -8 -19 -62 0 -59 -16 -127 -28
-116 -2 3 -4 169 -4 369 0 349 14 683 30 704 5 6 6 107 4 225 -2 118 -5 274
-6 345 -1 72 1 225 5 340 5 116 8 258 7 317 -1 97 9 141 24 103 8 -21 26 -19
26 3 0 27 13 35 26 17 9 -12 10 -25 2 -47z m53 17 c-1 -15 -24 -12 -29 3 -3 9
2 13 12 10 10 -1 17 -7 17 -13z m-188 -147 c-2 -68 -5 -366 -8 -663 -2 -297
-8 -603 -13 -680 -5 -77 -9 -392 -9 -700 0 -540 -3 -625 -24 -625 -6 0 -27 11
-47 25 -44 30 -65 31 -108 5 -50 -31 -123 -36 -210 -14 l-74 18 -1 126 c-3
301 1 489 13 583 7 56 14 199 15 317 5 376 12 809 18 983 3 92 1 238 -5 325
-6 86 -13 196 -16 243 l-4 86 32 0 c67 1 284 23 322 32 21 5 43 14 49 20 6 6
20 11 30 11 10 0 21 9 24 20 13 48 19 1 16 -112z m-1667 83 c5 -5 26 -14 47
-21 21 -7 36 -14 34 -17 -9 -8 -84 17 -97 32 -13 16 0 21 16 6z m754 -15 c5
-14 22 -33 37 -42 15 -10 40 -29 56 -43 21 -19 37 -25 68 -24 l40 2 -2 -152
c-1 -84 -3 -226 -3 -317 0 -91 0 -201 0 -245 -1 -44 3 -132 8 -195 5 -63 9
-189 9 -280 0 -328 -22 -1309 -30 -1322 -2 -5 -18 -8 -34 -8 -20 0 -40 -10
-60 -29 -38 -38 -166 -101 -205 -101 l-32 0 -7 83 c-3 46 -7 194 -7 330 l-1
246 47 45 46 45 1 88 c1 113 0 93 36 478 4 39 7 269 7 512 1 382 3 444 16 457
16 17 91 24 127 12 18 -6 24 -1 37 26 26 57 24 69 -16 90 l-36 19 24 24 c59
59 2 79 -90 33 -22 -11 -72 6 -80 29 -4 8 -3 71 0 139 6 95 10 124 21 124 7 0
18 -11 23 -24z m380 -16 c0 -5 -4 -10 -10 -10 -5 0 -10 5 -10 10 0 6 5 10 10
10 6 0 10 -4 10 -10z m-1400 -57 c0 -5 -5 -15 -10 -23 -8 -12 -10 -11 -10 8 0
12 5 22 10 22 6 0 10 -3 10 -7z m318 -21 c3 -9 -2 -13 -14 -10 -9 1 -19 9 -22
16 -3 9 2 13 14 10 9 -1 19 -9 22 -16z m-116 -39 c10 -9 18 -25 18 -35 0 -31
-42 -19 -51 14 -10 40 3 49 33 21z m-146 -97 c8 -32 -3 -51 -20 -36 -14 11
-10 60 5 60 5 0 11 -11 15 -24z m372 -9 c3 -25 0 -28 -20 -25 -17 2 -24 11
-26 31 -3 25 0 28 20 25 17 -2 24 -11 26 -31z m-301 -39 c-3 -7 -5 -2 -5 12 0
14 2 19 5 13 2 -7 2 -19 0 -25z m-159 -32 c3 -12 -1 -17 -10 -14 -7 3 -15 13
-16 22 -3 12 1 17 10 14 7 -3 15 -13 16 -22z m366 -9 c12 -33 -3 -52 -33 -42
-16 5 -21 15 -21 41 0 31 3 35 22 32 14 -2 26 -14 32 -31z m-110 -87 c3 -11 9
-29 12 -40 9 -31 -25 -25 -37 7 -10 28 -6 53 10 53 5 0 12 -9 15 -20z m1053
-22 c-3 -8 -6 -5 -6 6 -1 11 2 17 5 13 3 -3 4 -12 1 -19z m-855 -63 c-4 -46
-6 -49 -27 -42 -9 4 -15 19 -15 40 0 38 7 49 30 44 11 -2 14 -13 12 -42z
m1008 -5 c0 -5 -4 -10 -10 -10 -5 0 -10 5 -10 10 0 6 5 10 10 10 6 0 10 -4 10
-10z m-848 -70 c-3 -29 -10 -36 -22 -24 -12 12 -1 56 14 51 6 -2 10 -15 8 -27z
m-261 0 c28 -15 25 -43 -3 -35 -31 10 -42 21 -34 34 9 14 12 14 37 1z m369
-31 c0 -24 -16 -32 -40 -19 -19 10 -27 40 -14 53 11 11 54 -16 54 -34z m697
35 c-3 -3 -12 -4 -19 -1 -8 3 -5 6 6 6 11 1 17 -2 13 -5z m-91 -41 c-10 -10
-19 5 -10 18 6 11 8 11 12 0 2 -7 1 -15 -2 -18z m-798 -37 c3 -23 0 -28 -13
-22 -9 3 -19 6 -21 6 -2 0 -4 12 -4 26 0 37 34 28 38 -10z m802 -81 c0 -30 3
-54 8 -54 30 5 35 -3 13 -20 -24 -19 -22 -41 5 -41 21 0 17 -17 -6 -23 -27 -7
-28 -67 -1 -84 15 -9 18 -22 16 -67 -1 -31 -4 -59 -8 -62 -3 -4 -2 -15 4 -25
7 -15 6 -21 -5 -25 -16 -6 -12 -62 6 -97 12 -23 1 -37 -12 -17 -7 11 -10 5
-10 -21 0 -19 5 -40 12 -47 6 -6 12 -26 12 -44 1 -26 5 -32 19 -30 10 2 17 -3
17 -13 0 -9 -6 -15 -12 -12 -7 2 -21 -2 -31 -11 -9 -8 -20 -12 -24 -8 -4 4
-11 114 -15 244 -4 130 -9 284 -11 342 -5 112 0 170 14 170 5 0 9 -25 9 -55z
m-438 0 c6 -30 -13 -50 -30 -33 -13 13 -16 41 -5 51 14 15 31 6 35 -18z m492
4 c-6 -11 -24 -2 -24 11 0 5 7 7 15 4 8 -4 12 -10 9 -15z m-584 -3 c6 -8 10
-25 8 -38 -4 -32 -42 -32 -46 0 -7 46 14 66 38 38z m-352 -18 c19 -19 14 -30
-10 -26 -13 2 -24 11 -26 21 -4 20 18 23 36 5z m1712 -9 c0 -24 -23 -21 -28 4
-2 10 3 17 12 17 10 0 16 -9 16 -21z m-1445 -49 c-3 -5 -1 -12 5 -15 8 -5 8
-11 0 -20 -6 -7 -8 -20 -4 -29 7 -18 -12 -21 -35 -7 -13 8 -24 68 -15 82 2 4
15 4 29 2 13 -3 22 -9 20 -13z m-87 -18 c3 -20 0 -23 -20 -20 -15 2 -24 11
-26 26 -3 20 0 23 20 20 15 -2 24 -11 26 -26z m352 -4 c0 -25 -12 -58 -21 -58
-5 0 -9 16 -9 35 0 24 5 35 15 35 8 0 15 -6 15 -12z m1150 -8 c0 -5 -2 -10 -4
-10 -3 0 -8 5 -11 10 -3 6 -1 10 4 10 6 0 11 -4 11 -10z m30 -27 c-1 -24 -2
-26 -11 -10 -5 9 -7 22 -4 27 10 17 15 11 15 -17z m-1270 -113 c0 -20 -5 -30
-15 -30 -10 0 -15 10 -15 30 0 20 5 30 15 30 10 0 15 -10 15 -30z m-96 4 c16
-6 23 -73 10 -87 -17 -16 -34 8 -34 49 0 47 0 47 24 38z m178 -114 c-5 -30 -8
-34 -21 -25 -6 3 -11 17 -11 31 0 19 5 25 18 22 12 -2 16 -11 14 -28z m-264 8
c14 -14 16 -78 3 -78 -20 0 -38 46 -32 83 2 11 15 9 29 -5z m1362 -49 c0 -16
-4 -28 -9 -25 -8 5 -3 56 5 56 2 0 4 -14 4 -31z m-3394 -76 c-10 -10 -19 5
-10 18 6 11 8 11 12 0 2 -7 1 -15 -2 -18z m2224 -7 c0 -28 -17 -43 -32 -28 -7
7 -6 17 1 31 16 28 31 27 31 -3z m-102 -51 c-3 -11 -50 -12 -90 -2 -25 7 -43
31 -33 47 7 11 127 -33 123 -45z m1343 -18 c-13 -13 -15 1 -4 30 7 17 8 17 11
-1 2 -10 -1 -23 -7 -29z m-741 -36 c0 -6 -4 -13 -10 -16 -5 -3 -10 1 -10 9 0
9 5 16 10 16 6 0 10 -4 10 -9z m730 -127 c0 -8 -5 -12 -10 -9 -6 4 -8 11 -5
16 9 14 15 11 15 -7z m-770 -48 c0 -27 -16 -44 -23 -24 -5 18 3 48 14 48 5 0
9 -11 9 -24z m778 -84 c3 -9 -3 -13 -19 -10 -12 1 -24 9 -27 16 -3 9 3 13 19
10 12 -1 24 -9 27 -16z m-778 -33 c0 -17 6 -32 15 -35 12 -5 12 -9 -1 -29 -13
-19 -13 -24 0 -34 8 -7 22 -11 32 -9 9 2 19 -3 22 -11 3 -10 0 -12 -11 -8 -21
8 -57 -33 -57 -66 0 -14 -4 -29 -10 -32 -5 -3 -10 -19 -10 -36 0 -16 -4 -29
-10 -29 -5 0 -10 -13 -10 -30 0 -30 9 -35 53 -32 24 2 21 -14 -4 -21 -17 -5
-20 -12 -18 -49 2 -24 -1 -49 -4 -55 -4 -6 -3 -22 2 -36 6 -16 6 -28 -1 -35
-18 -18 -1 -39 36 -46 40 -8 40 -26 0 -26 -34 0 -43 -28 -14 -50 19 -14 20
-18 6 -23 -24 -9 -19 -32 9 -45 15 -7 25 -20 25 -33 0 -17 -5 -20 -25 -17 -21
4 -25 1 -25 -19 0 -15 8 -27 23 -33 22 -9 22 -9 1 -9 -18 -1 -22 -9 -27 -48
-6 -52 2 -67 35 -68 12 0 23 -6 26 -13 3 -10 -4 -13 -24 -10 -29 3 -29 3 -30
-52 0 -30 -6 -65 -12 -78 -14 -24 -14 -24 41 -36 15 -4 27 -13 27 -22 0 -12
-6 -15 -25 -10 -41 10 -65 -9 -63 -52 0 -20 -3 -89 -7 -152 -4 -63 -4 -111 1
-107 4 4 9 40 11 79 2 40 6 75 11 80 9 9 82 -10 82 -22 0 -5 -17 -10 -37 -12
-31 -2 -39 -7 -41 -25 -2 -13 1 -23 6 -23 5 0 7 -20 4 -45 -4 -42 -3 -45 19
-46 l24 0 -23 -10 c-14 -5 -22 -16 -20 -26 1 -10 -1 -23 -5 -30 -13 -20 4 -42
36 -45 18 -2 31 -7 29 -13 -2 -5 -11 -8 -20 -6 -38 8 -47 5 -50 -18 -2 -13 1
-28 7 -34 8 -8 11 -8 11 1 0 6 13 10 30 9 16 -1 30 -7 30 -13 0 -6 -10 -9 -24
-7 -35 7 -44 -16 -15 -38 19 -15 20 -19 7 -19 -9 0 -20 5 -23 10 -5 8 -11 8
-20 0 -9 -8 -15 -6 -20 7 -6 14 -10 9 -16 -22 -10 -53 -2 -91 19 -91 56 0 92
-5 92 -12 0 -4 -12 -7 -27 -6 -16 1 -36 -3 -45 -7 -10 -6 -19 -5 -23 1 -3 5
-14 10 -24 10 -14 0 -20 -11 -25 -42 -4 -24 -3 -44 2 -46 5 -1 7 -14 4 -27 -3
-18 4 -33 25 -54 19 -19 27 -34 22 -43 -14 -26 6 -41 46 -35 23 4 35 2 33 -4
-6 -17 -96 -19 -109 -3 -16 20 -34 17 -45 -6 -18 -41 -17 657 2 868 3 35 7
126 9 203 2 77 7 144 11 150 4 7 8 174 10 373 5 471 9 548 30 563 23 17 34 8
34 -28z m780 -109 c0 -5 -11 -10 -25 -10 -14 0 -25 5 -25 10 0 6 11 10 25 10
14 0 25 -4 25 -10z m-10 -73 c0 -19 -10 -27 -26 -20 -21 8 -17 33 6 33 11 0
20 -6 20 -13z m-740 -37 c0 -5 -2 -10 -4 -10 -3 0 -8 5 -11 10 -3 6 -1 10 4
10 6 0 11 -4 11 -10z m725 -40 c3 -5 1 -10 -4 -10 -6 0 -11 5 -11 10 0 6 2 10
4 10 3 0 8 -4 11 -10z m10 -70 c0 -7 -6 -15 -12 -17 -8 -3 -13 4 -13 17 0 13
5 20 13 18 6 -3 12 -11 12 -18z m-695 -30 c0 -5 -7 -10 -16 -10 -8 0 -12 5 -9
10 3 6 10 10 16 10 5 0 9 -4 9 -10z m655 -30 c3 -5 -1 -10 -9 -10 -9 0 -16 5
-16 10 0 6 4 10 9 10 6 0 13 -4 16 -10z m35 -10 c0 -5 -2 -10 -4 -10 -3 0 -8
5 -11 10 -3 6 -1 10 4 10 6 0 11 -4 11 -10z m-720 -51 c0 -5 -4 -9 -10 -9 -5
0 -10 7 -10 16 0 8 5 12 10 9 6 -3 10 -10 10 -16z m-2687 -53 c6 -16 2 -244
-4 -250 -2 -2 -14 -7 -26 -10 -22 -7 -23 -4 -23 38 0 33 6 52 21 67 18 18 21
30 17 95 -3 69 3 93 15 60z m2700 -19 c4 3 7 1 7 -5 0 -7 -11 -12 -25 -12 -24
0 -32 10 -18 23 3 4 11 2 18 -3 7 -5 15 -7 18 -3z m707 -94 c0 -45 -17 -61
-25 -25 -7 32 -1 52 16 52 5 0 9 -12 9 -27z m-15 -161 c-3 -3 -10 -1 -17 6 -8
8 -7 19 3 44 l14 33 3 -39 c2 -21 1 -41 -3 -44z m-3400 -72 c3 -5 2 -10 -4
-10 -5 0 -16 -3 -25 -6 -11 -4 -16 -1 -16 10 0 18 35 22 45 6z m3 -87 c-2 -22
-9 -29 -32 -31 -23 -3 -28 0 -22 13 3 9 6 23 6 31 0 8 10 14 26 14 22 0 25 -4
22 -27z m2692 -107 c0 -3 -4 -8 -10 -11 -5 -3 -10 -1 -10 4 0 6 5 11 10 11 6
0 10 -2 10 -4z m-185 -116 l0 -73 -152 -1 c-113 -1 -153 2 -153 11 0 7 17 15
38 19 44 7 215 88 233 110 24 29 34 9 34 -66z m210 61 c10 -17 -11 -21 -31 -6
-18 14 -18 14 3 15 12 0 24 -4 28 -9z m434 -71 c24 -17 48 -30 53 -30 4 0 8
-30 8 -66 0 -61 -1 -65 -16 -53 -12 10 -62 16 -168 20 l-151 5 146 2 c112 2
149 5 158 16 22 26 -10 31 -214 31 l-200 0 -3 43 c-4 49 -3 49 80 26 47 -14
66 -14 103 -5 25 6 56 9 68 6 15 -4 32 1 48 14 31 27 36 26 88 -9z m-2887 -55
c6 -31 0 -37 -24 -24 -11 6 -61 9 -114 7 -113 -4 -123 13 -13 24 41 4 81 10
89 12 41 11 58 6 62 -19z m-217 -65 c3 -5 1 -10 -4 -10 -6 0 -11 5 -11 10 0 6
2 10 4 10 3 0 8 -4 11 -10z m2358 3 c-7 -2 -19 -2 -25 0 -7 3 -2 5 12 5 14 0
19 -2 13 -5z m300 0 c-7 -2 -19 -2 -25 0 -7 3 -2 5 12 5 14 0 19 -2 13 -5z
m-2433 -39 c0 -41 42 -79 99 -88 37 -6 41 -9 41 -34 0 -15 -5 -33 -10 -38 -7
-7 -5 -23 6 -50 14 -32 17 -70 16 -224 l-2 -185 33 -50 32 -50 117 -3 c106 -2
116 -4 121 -22 4 -17 13 -20 54 -19 26 1 82 -3 123 -8 l75 -10 -40 -18 c-22
-9 -69 -20 -105 -23 -68 -5 -92 -15 -84 -35 2 -7 -5 -27 -16 -44 -16 -28 -26
-33 -57 -33 -107 -2 -138 -9 -163 -39 -19 -22 -36 -30 -75 -35 -27 -4 -92 -16
-142 -28 -86 -20 -94 -21 -111 -5 -25 23 -78 32 -97 17 -29 -24 -45 5 -45 82
0 65 2 72 30 96 17 15 30 32 30 39 0 8 14 13 38 13 51 0 70 13 52 35 -11 13
-11 20 0 40 11 21 11 27 -3 43 -13 14 -14 21 -5 30 9 9 9 15 1 23 -8 8 -13 8
-17 0 -4 -6 -16 -11 -27 -11 -10 0 -19 -6 -19 -13 0 -8 -9 -22 -19 -31 -11
-10 -22 -30 -26 -44 -7 -25 -8 -25 -15 -7 -8 20 -17 176 -25 412 -3 72 -5 135
-6 140 -1 4 -1 29 0 56 l1 47 46 0 c38 0 45 3 42 18 -2 12 -15 18 -46 20 -24
2 -42 8 -42 15 0 8 22 12 67 12 62 0 68 2 71 21 3 19 9 21 53 21 48 -1 49 -2
49 -33z m2530 27 c0 -5 -9 -7 -20 -4 -11 3 -20 7 -20 9 0 2 9 4 20 4 11 0 20
-4 20 -9z m67 3 c-3 -3 -12 -4 -19 -1 -8 3 -5 6 6 6 11 1 17 -2 13 -5z m-488
-35 l123 -1 -3 -237 c-2 -130 0 -295 5 -366 8 -156 1 -190 -42 -181 -55 11
-119 8 -182 -9 -49 -13 -68 -15 -82 -6 -10 6 -41 11 -70 11 -70 1 -119 12
-198 46 -36 15 -94 30 -130 34 -68 7 -67 10 15 29 28 7 70 22 95 34 44 21 45
23 50 77 4 49 8 55 30 58 14 2 34 12 46 23 12 11 28 17 37 13 10 -3 28 3 44
15 16 12 39 30 53 41 25 18 25 21 30 192 l5 173 72 0 c77 0 98 9 69 30 -12 9
-34 12 -66 8 -27 -3 -56 -3 -65 1 -24 9 -7 29 19 22 12 -3 77 -6 145 -7z m827
-46 c-3 -21 -6 -71 -6 -110 0 -71 -1 -73 -25 -73 -23 0 -25 3 -19 28 4 15 13
40 21 55 8 16 12 35 9 43 -7 18 -52 36 -93 36 -18 0 -33 4 -33 10 0 6 22 8 56
5 51 -4 56 -3 64 19 15 39 34 29 26 -13z m-409 21 c-3 -3 -12 -4 -19 -1 -8 3
-5 6 6 6 11 1 17 -2 13 -5z m593 -4 c13 -8 13 -10 -2 -10 -9 0 -20 5 -23 10
-8 13 5 13 25 0z m-368 -45 c1 -5 -11 -12 -27 -15 -25 -4 -30 -11 -40 -58 -14
-62 -23 -73 -36 -49 -11 18 -44 23 -53 8 -3 -5 3 -29 14 -54 22 -49 40 -57
129 -57 26 0 51 -4 57 -9 18 -17 92 -20 114 -4 l21 15 -6 -114 c-4 -62 -8
-119 -11 -126 -2 -7 1 -24 7 -39 5 -15 8 -37 4 -50 -4 -19 -10 -21 -33 -17
-21 4 -56 -6 -128 -40 -138 -63 -179 -73 -237 -56 -52 14 -63 33 -45 76 8 20
12 115 12 311 l1 282 30 4 c60 8 225 2 227 -8z m368 -15 c0 -5 -2 -10 -4 -10
-3 0 -8 5 -11 10 -3 6 -1 10 4 10 6 0 11 -4 11 -10z m-272 -53 c-7 -14 -13
-17 -16 -9 -6 19 6 44 18 37 7 -4 6 -14 -2 -28z m282 9 c0 -3 -4 -8 -10 -11
-5 -3 -10 -1 -10 4 0 6 5 11 10 11 6 0 10 -2 10 -4z m-2040 -56 c0 -5 -4 -10
-10 -10 -5 0 -10 5 -10 10 0 6 5 10 10 10 6 0 10 -4 10 -10z m1652 -12 c-7 -7
-12 -8 -12 -2 0 14 12 26 19 19 2 -3 -1 -11 -7 -17z m383 12 c3 -5 -1 -10 -10
-10 -9 0 -13 5 -10 10 3 6 8 10 10 10 2 0 7 -4 10 -10z m-45 -60 c0 -5 -4 -10
-10 -10 -5 0 -10 5 -10 10 0 6 5 10 10 10 6 0 10 -4 10 -10z m48 -11 c-2 -6
-8 -10 -13 -10 -5 0 -11 4 -13 10 -2 6 4 11 13 11 9 0 15 -5 13 -11z m-48 -59
c0 -5 -4 -10 -10 -10 -5 0 -10 5 -10 10 0 6 5 10 10 10 6 0 10 -4 10 -10z m50
-10 c0 -5 -4 -10 -9 -10 -6 0 -13 5 -16 10 -3 6 1 10 9 10 9 0 16 -4 16 -10z
m0 -80 c0 -37 -26 -41 -32 -5 -6 27 -1 35 19 35 8 0 13 -12 13 -30z m-670 -70
c0 -13 -20 -13 -40 0 -12 8 -9 10 13 10 15 0 27 -4 27 -10z m-10 -130 c0 -17
-6 -20 -34 -18 -23 1 -42 -5 -55 -17 -20 -18 -21 -18 -21 1 0 37 20 49 88 53
16 1 22 -5 22 -19z m-1100 -20 c-8 -5 -19 -10 -25 -10 -5 0 -3 5 5 10 8 5 20
10 25 10 6 0 3 -5 -5 -10z m175 0 c17 -7 14 -9 -13 -9 -20 -1 -31 3 -27 9 7
12 13 12 40 0z m-85 -4 c0 -11 -19 -15 -25 -6 -3 5 1 10 9 10 9 0 16 -2 16 -4z
m-1550 -16 c0 -5 -5 -10 -11 -10 -5 0 -7 5 -4 10 3 6 8 10 11 10 2 0 4 -4 4
-10z m1315 0 c-3 -5 -23 -10 -43 -10 -28 0 -33 3 -22 10 20 13 73 13 65 0z
m-945 -10 c0 -5 -4 -10 -9 -10 -6 0 -13 5 -16 10 -3 6 1 10 9 10 9 0 16 -4 16
-10z m-536 -21 c-3 -5 -10 -7 -15 -3 -5 3 -7 10 -3 15 3 5 10 7 15 3 5 -3 7
-10 3 -15z m1366 17 c0 -2 -7 -6 -15 -10 -8 -3 -15 -1 -15 4 0 6 7 10 15 10 8
0 15 -2 15 -4z m-1198 -26 c14 0 18 -5 14 -16 -3 -9 -6 -20 -6 -25 0 -5 -18
-9 -41 -9 -24 0 -38 4 -34 10 3 6 15 10 26 10 10 0 19 5 19 11 0 5 -4 7 -10 4
-5 -3 -15 -3 -22 1 -7 5 -5 11 8 21 12 9 20 10 22 3 2 -5 13 -10 24 -10z
m1018 0 c0 -5 -7 -10 -16 -10 -8 0 -12 5 -9 10 3 6 10 10 16 10 5 0 9 -4 9
-10z m-67 -7 c-7 -2 -19 -2 -25 0 -7 3 -2 5 12 5 14 0 19 -2 13 -5z m-183 -12
l45 -7 -41 -8 c-29 -5 -51 -3 -75 8 l-34 14 30 0 c17 0 50 -3 75 -7z m538 -56
l3 -36 -75 2 c-42 1 -79 -1 -83 -4 -16 -17 -33 -5 -33 22 0 54 3 56 98 54 l87
-2 3 -36z m1237 35 c-3 -5 -15 -10 -26 -10 -10 0 -19 5 -19 10 0 6 12 10 26
10 14 0 23 -4 19 -10z m-2697 -26 c-4 -3 -17 -2 -30 2 -22 7 -22 7 -3 14 20 8
44 -4 33 -16z m62 -45 c0 -11 -4 -17 -10 -14 -5 3 -10 15 -10 26 0 11 5 17 10
14 6 -3 10 -15 10 -26z m2552 -51 c1 -18 2 -69 2 -113 l1 -80 38 -3 c20 -2 37
-8 37 -13 0 -7 -12 -8 -30 -4 -35 8 -62 -8 -53 -31 3 -8 17 -14 32 -14 14 0
33 -5 41 -10 11 -7 6 -10 -21 -10 -35 0 -66 -20 -52 -33 3 -4 0 -13 -6 -21
-24 -28 -9 -58 34 -72 40 -12 40 -12 8 -13 -41 -1 -63 -10 -63 -26 0 -16 27
-27 50 -20 10 3 30 1 45 -5 25 -10 27 -13 14 -26 -12 -11 -21 -12 -45 -4 -19
7 -40 7 -55 2 -13 -5 -35 -6 -49 -2 -21 5 -25 12 -25 45 0 34 3 40 23 43 27 4
29 32 2 39 -26 7 -26 23 -1 23 26 0 38 20 20 34 -20 16 -47 51 -32 42 7 -4 22
-2 33 4 18 9 19 14 9 26 -7 9 -20 14 -28 11 -11 -3 -16 4 -17 20 -2 22 11 32
18 14 2 -5 12 -3 23 5 16 12 17 18 8 32 -6 9 -17 16 -25 16 -12 -1 -15 15 -16
77 -1 43 3 81 8 84 6 3 10 0 10 -7 0 -9 3 -9 8 -2 7 10 28 21 45 23 4 1 8 -14
9 -31z m-2622 -38 c0 -5 -13 -10 -29 -10 -17 0 -33 5 -36 10 -4 6 8 10 29 10
20 0 36 -4 36 -10z m2498 -16 c2 -1 1 -32 -3 -69 -7 -60 -9 -65 -24 -52 -23
21 -102 60 -126 63 -11 1 -42 10 -69 20 -40 14 -45 19 -31 27 12 6 30 6 55 -2
55 -16 88 -14 107 9 14 16 25 19 53 14 19 -4 37 -8 38 -10z m-1513 -4 c4 -6
-10 -10 -35 -10 -25 0 -39 4 -35 10 3 6 19 10 35 10 16 0 32 -4 35 -10z m555
-10 c13 -8 13 -10 -2 -10 -9 0 -20 5 -23 10 -8 13 5 13 25 0z m1160 -5 c0 -8
-9 -15 -20 -15 -20 0 -26 11 -13 23 12 13 33 7 33 -8z m-2700 -25 c0 -5 -15
-10 -34 -10 -19 0 -38 5 -41 10 -4 6 10 10 34 10 23 0 41 -4 41 -10z m2700
-50 c0 -5 -6 -10 -14 -10 -8 0 -18 5 -21 10 -3 6 3 10 14 10 12 0 21 -4 21
-10z m-2690 -19 c0 -19 -17 -38 -25 -29 -7 7 7 48 16 48 5 0 9 -9 9 -19z m140
-67 c0 -38 15 -74 31 -74 5 0 29 -18 51 -40 47 -44 67 -50 75 -20 3 11 6 20 8
20 1 0 43 -13 93 -30 50 -16 97 -30 104 -30 13 -1 58 -34 58 -43 0 -3 -9 -7
-20 -10 -21 -5 -25 -23 -12 -44 5 -7 35 -16 68 -19 52 -6 60 -9 60 -26 -1 -16
12 -24 59 -39 33 -10 76 -32 95 -50 19 -17 28 -27 20 -22 -37 24 -152 63 -228
79 -69 14 -87 22 -100 43 -9 14 -38 48 -65 75 l-47 49 -24 -22 -23 -22 -52 30
c-58 35 -79 38 -88 16 -5 -15 22 -55 38 -55 16 0 119 -84 116 -94 -2 -6 -25
-12 -52 -14 -40 -3 -47 -1 -41 13 6 18 -29 91 -38 77 -5 -9 -46 -6 -76 5 -8 3
-25 5 -37 4 -17 -2 -26 5 -33 24 -16 41 -12 55 14 55 20 0 25 6 31 40 8 49 2
60 -34 60 -25 0 -29 5 -34 33 -7 47 7 67 48 67 33 0 35 -2 35 -36z m2336 -50
c-5 -54 -15 -93 -36 -133 -30 -60 -79 -105 -104 -95 -9 4 -29 -5 -47 -20 -27
-23 -39 -26 -85 -24 -30 2 -54 6 -54 10 0 3 -16 25 -35 48 -19 23 -35 43 -35
45 0 9 60 -11 85 -29 43 -30 107 -27 177 9 49 25 66 42 87 90 2 6 -5 2 -16 -7
-11 -10 -27 -18 -35 -18 -9 0 -32 -7 -52 -15 -20 -9 -41 -13 -45 -10 -5 3 -11
-2 -15 -10 -3 -8 -11 -15 -18 -15 -6 0 0 13 15 28 15 15 27 32 27 37 0 5 8 17
17 27 16 18 15 19 -6 34 -18 13 -20 19 -10 30 7 8 18 13 26 10 9 -4 13 4 13
24 0 20 5 30 15 30 8 0 15 -7 15 -16 0 -11 6 -13 19 -9 13 4 24 -1 34 -15 13
-18 19 -20 36 -11 22 12 28 36 11 46 -8 5 -7 11 1 21 20 24 22 16 15 -62z
m-2476 46 c0 -5 -5 -10 -11 -10 -5 0 -7 5 -4 10 3 6 8 10 11 10 2 0 4 -4 4
-10z m203 -30 c3 -11 1 -23 -4 -26 -5 -3 -9 -1 -9 5 0 5 -3 16 -6 25 -3 9 -2
16 4 16 5 0 12 -9 15 -20z m2056 -66 c-9 -11 -15 -12 -23 -4 -8 8 -7 13 4 20
20 12 33 1 19 -16z m-2612 2 c0 -8 -6 -12 -14 -9 -7 3 -13 9 -13 14 0 5 6 9
13 9 8 0 14 -6 14 -14z m392 -22 c36 -45 25 -62 -14 -24 -19 19 -35 38 -35 42
0 18 30 7 49 -18z m2251 -4 c0 -5 -7 -10 -15 -10 -8 0 -15 5 -15 10 0 6 7 10
15 10 8 0 15 -4 15 -10z m-63 -53 c-12 -27 -31 -35 -42 -17 -3 6 2 13 12 17
10 3 22 13 26 20 15 24 18 8 4 -20z m-1238 -23 c8 -7 -30 -16 -44 -10 -27 10
-17 27 13 20 15 -4 29 -8 31 -10z m39 -6 c17 -17 15 -28 -6 -28 -24 0 -32 8
-25 26 6 17 15 18 31 2z m1816 -40 c28 -39 17 -52 -14 -18 -34 37 -36 40 -16
40 8 0 22 -10 30 -22z m-1753 -8 l24 -19 -32 12 c-18 6 -33 15 -33 19 0 14 17
9 41 -12z m2100 6 c38 -16 96 -72 86 -83 -4 -3 -27 8 -51 25 -30 21 -56 32
-79 32 -51 0 -69 8 -54 26 16 17 56 18 98 0z m-3401 -31 c0 -8 -4 -15 -9 -15
-13 0 -22 16 -14 24 11 11 23 6 23 -9z m1140 -5 c0 -5 -5 -10 -11 -10 -5 0 -7
5 -4 10 3 6 8 10 11 10 2 0 4 -4 4 -10z m-487 -43 c-4 -6 -12 -3 -20 8 -20 28
-16 41 7 20 11 -10 17 -22 13 -28z m532 3 c0 -7 -6 -15 -12 -17 -7 -3 -13 0
-13 7 0 6 -4 8 -10 5 -5 -3 -10 0 -10 8 0 8 9 13 23 12 12 -1 22 -8 22 -15z
m60 -39 c19 -37 4 -49 -30 -24 -24 18 -31 34 -18 46 14 15 33 6 48 -22z m505
-21 c0 -5 -4 -10 -9 -10 -6 0 -13 5 -16 10 -3 6 1 10 9 10 9 0 16 -4 16 -10z
m55 -20 c4 -6 15 -8 24 -5 19 6 51 -3 51 -14 0 -9 -93 -7 -108 2 -7 5 -10 13
-7 18 8 12 32 12 40 -1z m-695 -55 c30 -32 14 -32 -25 0 -20 16 -25 24 -14 25
8 0 26 -11 39 -25z m835 -15 c10 -11 16 -20 13 -20 -3 0 -13 9 -23 20 -10 11
-16 20 -13 20 3 0 13 -9 23 -20z m-1775 -40 c0 -5 -4 -10 -10 -10 -5 0 -10 5
-10 10 0 6 5 10 10 10 6 0 10 -4 10 -10z"/>
<path d="M3581 5394 c0 -11 3 -14 6 -6 3 7 2 16 -1 19 -3 4 -6 -2 -5 -13z"/>
<path d="M4300 4784 c0 -9 5 -14 12 -12 18 6 21 28 4 28 -9 0 -16 -7 -16 -16z"/>
<path d="M4306 4617 c-5 -21 -6 -41 -2 -44 12 -12 17 5 14 43 l-4 39 -8 -38z"/>
<path d="M4260 3236 c0 -20 2 -36 4 -36 8 0 12 61 4 66 -4 3 -8 -11 -8 -30z"/>
<path d="M4262 3100 c0 -14 2 -19 5 -12 2 6 2 18 0 25 -3 6 -5 1 -5 -13z"/>
<path d="M4261 2995 l1 -50 9 39 c6 26 6 43 -1 50 -7 7 -10 -6 -9 -39z"/>
<path d="M3555 2200 c-8 -13 -1 -24 14 -19 6 3 7 10 2 18 -6 10 -10 10 -16 1z"/>
<path d="M3540 1909 c0 -5 5 -7 10 -4 6 3 10 8 10 11 0 2 -4 4 -10 4 -5 0 -10
-5 -10 -11z"/>
<path d="M3540 1780 c0 -12 -4 -29 -9 -39 -10 -17 2 -51 11 -35 12 21 18 83 8
89 -6 3 -10 -3 -10 -15z"/>
<path d="M3530 1680 c0 -8 5 -22 10 -30 9 -13 10 -13 10 0 0 8 -5 22 -10 30
-9 13 -10 13 -10 0z"/>
<path d="M3537 1605 c-4 -8 -2 -17 3 -20 6 -4 10 3 10 14 0 25 -6 27 -13 6z"/>
<path d="M3575 1457 c-4 -10 -5 -21 -1 -24 10 -10 18 4 13 24 -4 17 -4 17 -12
0z"/>
<path d="M3540 1360 c0 -5 9 -10 20 -10 11 0 20 5 20 10 0 6 -9 10 -20 10 -11
0 -20 -4 -20 -10z"/>
<path d="M3560 1310 c0 -11 5 -20 10 -20 6 0 10 9 10 20 0 11 -4 20 -10 20 -5
0 -10 -9 -10 -20z"/>
<path d="M1108 849 c-22 -14 7 -32 59 -35 101 -7 399 -13 416 -8 9 3 17 11 17
18 0 10 -41 13 -172 14 -95 0 -203 5 -240 9 -37 5 -73 6 -80 2z"/>
<path d="M1071 787 c-17 -22 -3 -27 71 -27 51 0 68 3 68 14 0 25 -119 36 -139
13z"/>
<path d="M1630 781 c0 -12 29 -23 41 -15 18 10 9 24 -16 24 -14 0 -25 -4 -25
-9z"/>
<path d="M1323 768 c2 -7 19 -13 37 -13 18 0 35 6 38 13 2 8 -9 12 -38 12 -29
0 -40 -4 -37 -12z"/>
<path d="M3897 1337 c-13 -34 58 -52 83 -22 17 20 8 27 -39 32 -27 3 -40 -1
-44 -10z"/>
<path d="M3811 1286 c-17 -20 2 -29 55 -24 27 2 39 8 39 18 0 22 -77 26 -94 6z"/>
<path d="M4047 1293 c-17 -16 -5 -33 22 -33 39 0 61 9 61 26 0 15 -70 21 -83
7z"/>
<path d="M3962 1234 c16 -16 77 -22 98 -9 21 13 -11 25 -65 25 -45 0 -48 -1
-33 -16z"/>
<path d="M3520 741 c0 -10 6 -24 14 -30 11 -10 16 -8 21 8 3 12 3 25 0 31 -11
17 -35 11 -35 -9z"/>
<path d="M862 1859 c2 -7 10 -15 17 -17 8 -3 12 1 9 9 -2 7 -10 15 -17 17 -8
3 -12 -1 -9 -9z"/>
<path d="M4252 1800 c0 -19 2 -27 5 -17 2 9 2 25 0 35 -3 9 -5 1 -5 -18z"/>
<path d="M3 1733 c-12 -31 9 -33 298 -30 280 3 335 9 297 33 -7 5 -143 9 -302
9 -220 1 -289 -2 -293 -12z"/>
<path d="M663 1744 c-36 -16 13 -49 58 -39 31 7 41 35 12 35 -10 0 -27 2 -38
5 -11 2 -26 2 -32 -1z"/>
<path d="M330 1680 c-271 -4 -315 -7 -315 -20 0 -13 45 -15 349 -13 191 1 355
4 363 7 28 11 -5 34 -45 32 -20 0 -179 -3 -352 -6z"/>
<path d="M4603 1650 c-87 -6 -116 -25 -51 -33 24 -3 134 -6 246 -6 174 -1 202
1 202 14 0 12 -20 15 -117 16 -65 0 -138 3 -163 7 -25 4 -77 5 -117 2z"/>
<path d="M446 1621 c-88 -9 -84 -39 4 -33 8 1 73 4 144 7 131 6 151 9 141 26
-7 10 -189 10 -289 0z"/>
<path d="M4740 1411 c-7 -14 -21 -21 -40 -21 -23 0 -33 -7 -46 -32 -10 -18
-20 -46 -24 -63 -4 -21 -12 -31 -28 -33 -27 -4 -28 -18 -3 -32 11 -5 23 -19
26 -30 5 -17 15 -20 73 -21 50 0 61 -3 45 -9 -26 -11 -30 -25 -8 -34 20 -7 68
11 60 24 -12 20 43 10 56 -10 13 -18 21 -19 82 -14 49 5 67 11 67 21 0 12 -14
14 -67 13 -98 -3 -97 -4 -79 22 21 30 4 48 -45 48 -45 0 -50 14 -19 53 24 30
26 60 6 77 -8 6 -16 21 -18 32 -4 29 -24 34 -38 9z m10 -71 c0 -18 -52 -90
-61 -84 -12 7 -11 19 5 59 10 24 22 35 35 35 12 0 21 -5 21 -10z"/>
<path d="M4226 1368 c-7 -30 -8 -176 0 -205 14 -52 21 -6 17 104 -3 65 -6 119
-8 121 -1 1 -5 -8 -9 -20z"/>
<path d="M4415 1349 c-14 -21 11 -29 95 -29 81 0 115 9 91 25 -17 10 -180 14
-186 4z"/>
<path d="M4825 1310 c-10 -17 -4 -19 58 -22 54 -2 78 5 64 19 -13 13 -114 16
-122 3z"/>
<path d="M4455 1289 c-10 -15 -3 -19 51 -24 51 -5 81 5 70 24 -9 14 -113 14
-121 0z"/>
<path d="M4912 1218 c3 -7 23 -14 46 -16 33 -2 42 0 42 12 0 12 -11 16 -46 16
-32 0 -44 -4 -42 -12z"/>
<path d="M410 1182 c0 -5 -13 -26 -29 -46 -16 -20 -32 -54 -36 -75 -5 -30 -10
-37 -28 -37 -36 1 -25 -24 19 -43 29 -13 46 -16 58 -9 14 8 19 5 23 -11 3 -12
8 -21 12 -21 3 0 46 -5 94 -10 93 -9 117 -6 117 15 0 16 -22 25 -60 25 -19 0
-33 7 -40 20 -7 14 -21 20 -45 20 -18 0 -36 4 -39 8 -2 4 4 28 15 52 21 46 19
70 -5 70 -8 0 -16 10 -18 22 -3 22 -38 40 -38 20z m25 -82 c7 -12 -22 -70 -35
-70 -13 0 -13 36 0 61 12 21 25 25 35 9z"/>
<path d="M4515 1160 c3 -5 10 -10 16 -10 5 0 9 5 9 10 0 6 -7 10 -16 10 -8 0
-12 -4 -9 -10z"/>
<path d="M4645 1099 c-9 -13 -6 -15 30 -22 34 -6 72 8 45 17 -42 13 -69 15
-75 5z"/>
<path d="M4862 1098 c7 -20 138 -22 138 -3 0 12 -15 15 -71 15 -52 0 -70 -3
-67 -12z"/>
<path d="M4430 1002 c0 -15 7 -38 16 -50 15 -21 15 -24 -1 -35 -10 -8 -14 -19
-9 -30 8 -22 80 -72 117 -81 15 -4 26 -10 23 -14 -2 -4 3 -8 12 -9 19 -1 137
-25 247 -50 39 -9 78 -23 88 -31 25 -22 14 -26 -23 -7 -41 21 -179 36 -201 22
-13 -8 -31 -3 -74 18 -44 23 -71 29 -118 30 -34 0 -69 -2 -77 -5 -20 -7 -39
-31 -40 -51 0 -8 -6 -23 -13 -33 -12 -17 -17 -17 -64 -3 -28 9 -61 21 -73 27
l-22 12 21 14 c28 20 27 27 -13 58 -54 41 -89 16 -44 -31 18 -19 19 -23 5 -23
-9 0 -18 4 -21 9 -3 5 -23 11 -43 14 -21 3 -66 15 -100 28 -51 19 -64 20 -77
10 -9 -7 -13 -17 -10 -22 13 -21 -85 -8 -130 17 -38 21 -49 24 -61 14 -8 -7
-15 -17 -15 -22 0 -14 102 -58 136 -58 33 0 84 -20 84 -33 0 -5 -10 -8 -22 -7
-41 4 -48 0 -58 -25 -8 -22 -14 -24 -37 -18 -47 11 -67 9 -71 -9 -4 -21 20
-28 103 -31 52 -2 60 0 63 18 3 11 9 23 16 27 17 11 84 10 91 -2 3 -5 15 -10
25 -10 11 0 34 -8 52 -18 18 -10 62 -29 97 -42 66 -24 131 -72 131 -95 0 -15
27 -28 41 -19 19 11 8 33 -39 77 -48 44 -100 77 -123 77 -15 0 -98 53 -99 63
-1 20 37 16 108 -11 42 -17 115 -38 161 -48 46 -10 99 -28 118 -41 37 -25 49
-28 58 -13 11 17 -14 48 -49 61 -19 7 -33 16 -30 20 2 4 -19 10 -46 14 -56 8
-60 20 -14 46 43 25 111 23 190 -7 60 -22 70 -24 79 -10 9 11 25 13 76 9 50
-4 82 -15 147 -49 l82 -44 0 45 c0 38 -4 48 -30 66 l-30 23 30 14 c56 27 27
112 -33 97 -14 -4 -54 0 -89 8 -35 9 -82 15 -104 15 -65 -1 -182 31 -215 60
-17 13 -39 42 -50 63 -23 46 -49 52 -49 11z m386 -187 c63 -6 131 -29 124 -41
-7 -12 -13 -11 -159 20 -137 28 -168 41 -76 32 33 -3 83 -8 111 -11z m-749
-104 c32 -11 49 -22 45 -28 -10 -16 -150 18 -144 35 5 17 37 15 99 -7z"/>
<path d="M725 850 c-3 -5 -1 -10 4 -10 6 0 11 5 11 10 0 6 -2 10 -4 10 -3 0
-8 -4 -11 -10z"/>
<path d="M4125 840 c-3 -5 -1 -10 4 -10 6 0 11 -7 11 -16 0 -14 3 -14 15 -4
12 10 13 16 4 26 -14 17 -25 18 -34 4z"/>
<path d="M662 828 c6 -18 28 -21 28 -4 0 9 -7 16 -16 16 -9 0 -14 -5 -12 -12z"/>
<path d="M740 811 c0 -5 5 -13 10 -16 6 -3 10 -2 10 4 0 5 -4 13 -10 16 -5 3
-10 2 -10 -4z"/>
<path d="M4344 806 c-8 -20 13 -56 33 -56 9 0 25 7 35 16 17 16 16 18 -17 35
-42 23 -44 23 -51 5z"/>
<path d="M4250 799 c0 -16 72 -80 85 -76 24 8 14 37 -22 61 -40 28 -63 33 -63
15z"/>
<path d="M2320 710 c0 -5 5 -10 10 -10 6 0 10 5 10 10 0 6 -4 10 -10 10 -5 0
-10 -4 -10 -10z"/>
<path d="M4748 650 c-38 -7 -71 -36 -88 -77 -7 -17 -18 -23 -43 -23 -18 0 -43
-7 -56 -16 l-22 -16 22 -24 22 -24 -21 -23 -22 -23 22 -21 c13 -11 35 -23 50
-27 l26 -6 -34 -34 c-27 -27 -34 -42 -34 -74 0 -42 20 -68 44 -59 12 5 14 17
9 55 -5 46 -3 51 20 67 14 9 30 14 36 11 5 -3 9 -45 8 -93 -1 -181 19 -256 59
-222 16 13 19 55 4 64 -6 4 -10 58 -10 129 l0 123 118 -2 c64 -1 123 0 130 3
7 2 12 22 12 49 l0 46 -55 -7 c-47 -5 -58 -3 -75 14 -15 15 -32 20 -65 18 -25
0 -47 1 -50 3 -7 8 224 31 235 24 6 -3 10 3 10 16 0 20 -3 21 -63 15 -51 -6
-66 -4 -76 8 -9 11 -31 16 -65 16 -28 0 -58 5 -66 10 -13 8 -13 13 0 37 12 22
24 28 50 30 33 1 34 1 6 -5 -16 -4 -31 -13 -34 -19 -6 -19 112 -18 127 1 10
12 8 19 -8 35 -12 12 -30 21 -40 21 -11 0 -25 2 -33 4 -7 2 -30 0 -50 -4z
m-68 -236 c0 -11 -5 -14 -16 -10 -9 3 -20 6 -25 6 -6 0 -7 5 -4 10 10 16 45
12 45 -6z m299 -28 c7 -8 8 -16 4 -18 -4 -2 -57 -1 -118 2 l-110 5 70 8 c39 5
75 10 80 12 25 9 64 4 74 -9z"/>
<path d="M2361 626 c-15 -17 -5 -41 23 -60 13 -8 74 -27 137 -42 130 -31 198
-63 234 -110 14 -18 25 -34 25 -37 0 -2 -25 -2 -55 1 -47 4 -56 2 -61 -14 -3
-11 -12 -31 -20 -46 -27 -50 7 -81 116 -107 71 -18 90 -28 90 -50 0 -25 23
-43 103 -80 47 -23 71 -40 78 -57 12 -33 62 -31 67 3 4 24 -39 61 -106 91 -23
11 -62 39 -85 63 -29 31 -60 50 -99 63 -50 17 -55 21 -45 37 8 12 19 16 33 13
15 -4 27 2 43 22 25 32 22 49 -25 114 -19 26 -34 52 -34 59 0 6 -5 10 -12 8
-7 -1 -12 5 -13 13 0 8 -7 16 -15 16 -8 1 -21 2 -29 3 -10 1 -12 10 -7 31 5
29 -6 41 -19 19 -5 -7 -13 -4 -26 7 -17 15 -19 15 -25 1 -4 -12 -16 -15 -42
-13 -40 4 -100 23 -118 38 -6 4 -18 6 -26 3 -8 -3 -21 1 -28 10 -16 19 -44 20
-59 1z"/>
<path d="M3100 592 c0 -12 19 -26 26 -19 2 2 -2 10 -11 17 -9 8 -15 8 -15 2z"/>
<path d="M3036 571 c-4 -6 2 -19 13 -30 16 -16 22 -17 37 -7 17 13 11 41 -7
30 -5 -3 -16 -1 -24 6 -9 7 -15 8 -19 1z"/>
<path d="M4290 345 c0 -9 12 -20 28 -26 33 -13 82 -59 128 -120 19 -26 51 -64
71 -86 21 -21 50 -54 66 -72 22 -27 30 -31 42 -21 19 15 12 29 -57 106 -29 34
-80 93 -112 133 -33 40 -72 79 -87 87 -37 19 -79 18 -79 -1z"/>
<path d="M4797 283 c-13 -12 -7 -51 9 -57 21 -8 34 1 34 23 0 28 -28 50 -43
34z"/>
<path d="M171 251 c-11 -7 -8 -17 18 -49 31 -39 40 -58 75 -155 14 -38 22 -47
42 -47 30 0 30 4 -1 86 -14 37 -23 69 -21 71 5 6 59 -65 86 -114 19 -35 29
-43 53 -43 l29 0 -31 42 c-17 23 -31 47 -31 54 0 6 -16 32 -36 59 -32 41 -40
46 -64 41 -24 -4 -33 1 -55 29 -27 36 -40 41 -64 26z"/>
<path d="M116 185 c-13 -14 -33 -25 -45 -25 -33 0 -71 -47 -71 -87 0 -33 1
-34 21 -19 13 9 33 12 54 9 28 -4 35 -1 55 28 13 19 35 44 49 56 l26 23 -24
20 c-30 26 -37 25 -65 -5z"/>
<path d="M4896 171 c-4 -5 5 -23 19 -39 30 -36 30 -37 5 -69 -22 -28 -25 -43
-10 -43 6 0 16 12 22 26 11 23 13 24 19 7 3 -10 2 -26 -3 -36 -6 -13 -5 -17 7
-17 28 0 45 27 45 69 0 31 -7 49 -31 76 -30 34 -62 45 -73 26z"/>
<path d="M3313 139 c-17 -21 -27 -69 -14 -69 6 0 11 4 11 10 0 5 12 21 28 36
16 16 20 24 10 21 -9 -3 -18 -1 -20 5 -2 6 -8 5 -15 -3z"/>
<path d="M183 108 c-8 -9 -6 -26 7 -58 14 -36 23 -46 44 -48 25 -3 26 -1 20
25 -8 36 -36 85 -50 90 -6 2 -16 -2 -21 -9z"/>
<path d="M3357 92 c-21 -23 -22 -52 -1 -52 9 0 14 6 11 13 -2 6 0 20 5 30 13
26 4 31 -15 9z"/>
<path d="M4860 79 c-13 -24 -4 -41 10 -19 10 16 13 40 5 40 -2 0 -9 -9 -15
-21z"/>
<path d="M1638 74 c-15 -15 -15 -20 -2 -46 12 -23 21 -28 49 -28 19 0 35 5 35
10 0 6 11 10 24 10 14 0 28 -4 31 -10 3 -5 26 -10 51 -10 28 0 43 4 39 10 -11
18 -98 57 -142 64 -23 3 -47 8 -55 11 -7 3 -21 -2 -30 -11z"/>
<path d="M147 29 c-23 -13 -13 -29 19 -29 26 0 31 12 11 28 -8 7 -18 7 -30 1z"/>
<path d="M500 15 c-11 -13 -7 -15 26 -15 36 1 38 2 20 15 -25 19 -31 19 -46 0z"/>
</g>
</svg>
