<?xml version="1.0" standalone="no"?>
<!DOCTYPE svg PUBLIC "-//W3C//DTD SVG 20010904//EN"
 "http://www.w3.org/TR/2001/REC-SVG-20010904/DTD/svg10.dtd">
<svg version="1.0" xmlns="http://www.w3.org/2000/svg"
 width="500.000000pt" height="878.000000pt" viewBox="0 0 500.000000 878.000000"
 preserveAspectRatio="xMidYMid meet">
<metadata>
Created by potrace 1.15, written by Peter Selinger 2001-2017
</metadata>
<g transform="translate(0.000000,878.000000) scale(0.100000,-0.100000)"
fill="#000000" stroke="none">
<path d="M2317 8583 c-3 -2 -51 -4 -109 -4 -58 0 -110 -4 -118 -9 -26 -16 2
-31 56 -29 30 1 59 -2 63 -7 5 -5 25 -38 44 -74 19 -36 43 -79 53 -97 26 -45
11 -56 -78 -57 -56 -1 -73 -5 -73 -15 0 -18 52 -33 85 -25 13 3 137 8 274 10
238 5 285 11 270 35 -3 5 -27 8 -55 7 -27 0 -52 2 -55 5 -3 2 -8 51 -11 108
-7 122 -4 126 77 131 29 2 55 8 57 14 3 8 -65 11 -236 11 -132 0 -242 -1 -244
-4z m103 -55 c0 -24 -50 -138 -60 -138 -10 0 -80 142 -74 151 3 5 34 9 70 9
60 0 64 -2 64 -22z m175 12 c10 -16 18 -207 9 -212 -5 -3 -49 -7 -99 -9 l-90
-4 3 25 c2 20 61 170 79 203 6 11 91 9 98 -3z"/>
<path d="M3291 8543 c-20 -25 -26 -41 -33 -88 -3 -17 -10 -19 -51 -16 -36 2
-49 -1 -53 -13 -11 -28 17 -76 55 -96 l36 -18 -27 -11 c-55 -21 -61 -44 -66
-257 -3 -106 -6 -194 -8 -194 -2 0 -20 11 -40 25 -20 14 -40 22 -45 19 -5 -3
-18 -22 -28 -42 -17 -34 -18 -40 -4 -65 13 -27 13 -29 -6 -34 -43 -11 -46 -88
-5 -111 12 -7 5 -13 -31 -26 -37 -15 -48 -16 -61 -5 -21 17 -116 29 -131 17
-7 -6 -13 -32 -13 -59 0 -34 -4 -49 -13 -49 -35 0 -73 -81 -55 -115 9 -14 4
-22 -22 -43 -35 -27 -69 -92 -70 -131 0 -14 9 -35 21 -47 17 -18 19 -26 10
-42 -18 -34 -13 -71 14 -98 16 -16 25 -36 25 -55 0 -41 15 -66 50 -84 24 -13
30 -22 30 -49 0 -56 65 -121 95 -96 12 10 21 5 50 -25 30 -32 39 -37 66 -31
17 3 41 3 54 0 29 -7 37 -59 25 -169 -5 -44 -11 -216 -14 -383 -3 -167 -8
-307 -11 -311 -2 -5 -9 -145 -15 -312 -6 -167 -15 -326 -20 -354 -15 -81 -40
-343 -41 -435 l-1 -85 -19 80 c-10 44 -26 121 -34 170 -9 50 -20 108 -25 130
-5 22 -20 101 -34 175 -14 74 -30 154 -36 178 -19 78 26 116 91 79 31 -18 41
-19 63 -9 33 15 33 20 -6 62 -26 29 -32 44 -32 83 -1 36 -6 53 -21 63 -23 17
-49 18 -62 2 -15 -19 -31 -71 -26 -85 9 -24 33 -13 40 17 8 40 23 49 23 13 0
-33 -8 -47 -32 -56 -10 -3 -18 -15 -18 -26 0 -20 -35 -47 -43 -34 -3 5 -8 35
-11 68 -8 64 -42 236 -81 400 -13 55 -28 120 -34 145 -31 143 -53 225 -67 253
-9 17 -16 53 -16 81 0 28 -6 63 -14 78 -8 15 -14 41 -14 59 0 23 -9 40 -37 65
-20 19 -43 34 -50 34 -18 0 -16 19 2 26 19 7 20 38 2 52 -17 14 -57 -11 -58
-36 -1 -10 -4 -7 -8 8 -4 14 -17 30 -30 36 -14 7 -19 14 -12 18 6 4 16 4 21 1
15 -9 70 50 70 74 0 29 -27 40 -67 29 -33 -9 -37 -7 -70 31 -34 40 -73 54 -73
27 0 -8 14 -25 31 -37 37 -26 50 -57 36 -83 -9 -19 -10 -19 -28 3 -11 13 -19
32 -19 42 0 25 -17 24 -25 -1 -11 -34 3 -56 53 -83 l47 -26 -33 -7 c-43 -9
-51 -30 -23 -57 21 -21 23 -21 51 -5 31 17 40 15 40 -13 0 -10 -19 -28 -44
-43 -58 -34 -75 -77 -49 -130 9 -20 31 -45 48 -55 34 -20 54 -75 90 -246 21
-98 56 -245 62 -262 3 -8 -4 -13 -19 -13 -15 0 -32 -11 -46 -30 -29 -38 -38
-38 -63 5 -29 48 -46 45 -54 -10 -11 -67 16 -108 75 -115 24 -3 45 -9 47 -15
1 -5 -14 -19 -35 -30 -33 -18 -37 -24 -34 -55 1 -19 12 -45 24 -57 36 -39 72
-26 80 27 2 16 9 24 18 21 8 -2 27 -6 43 -9 18 -3 29 -12 32 -26 26 -126 70
-308 91 -376 46 -151 109 -461 145 -715 12 -82 26 -156 32 -163 19 -24 -19
-49 -85 -56 -36 -3 -89 -19 -126 -36 -35 -17 -69 -30 -76 -30 -6 0 -22 30 -35
68 -31 86 -163 349 -213 426 -22 32 -46 73 -55 90 -21 42 -95 144 -131 181
-16 17 -43 53 -61 82 -17 28 -55 72 -83 99 -50 47 -50 47 -45 96 8 65 -5 97
-43 104 -62 13 -25 42 52 41 31 0 63 5 71 11 9 8 16 42 20 94 5 63 11 86 27
103 l21 23 -20 61 c-11 34 -23 67 -28 73 -4 7 -8 53 -9 101 l-1 89 31 19 c17
10 39 19 48 19 22 0 74 45 81 70 4 16 -1 23 -19 30 -13 5 -24 15 -24 23 0 18
-56 77 -74 77 -9 0 -16 4 -16 10 0 5 -11 12 -24 16 -29 7 -86 -20 -86 -41 0
-11 -13 -15 -47 -16 -178 -4 -287 -15 -324 -34 -16 -9 -52 -20 -80 -25 -92
-18 -227 -118 -214 -159 5 -16 -17 -33 -90 -69 -53 -26 -94 -61 -97 -84 -2
-12 -9 -23 -16 -26 -11 -3 -13 15 -8 99 10 171 16 259 25 359 5 52 9 155 10
228 0 73 6 170 12 215 6 45 13 104 14 131 3 40 8 53 29 69 21 15 26 27 26 59
0 22 -8 53 -17 69 -16 26 -16 29 0 47 35 38 10 95 -32 73 -11 -6 -23 -20 -26
-31 -7 -21 -35 -28 -35 -9 0 13 41 109 47 109 2 0 21 -10 42 -22 44 -25 71
-19 71 16 0 42 -68 74 -97 45 -16 -16 -33 -2 -33 29 0 15 -12 52 -26 82 l-26
55 -15 -35 c-18 -42 -11 -100 18 -146 23 -38 12 -50 -27 -30 -35 19 -67 5 -62
-27 2 -17 11 -23 36 -25 53 -5 50 -27 -11 -87 -39 -38 -58 -65 -61 -87 -3 -18
-8 -145 -11 -283 -3 -137 -10 -329 -16 -425 -5 -96 -13 -258 -19 -360 -10
-194 -21 -357 -46 -650 -8 -96 -16 -211 -19 -255 -6 -91 -20 -238 -36 -370 -6
-49 -13 -123 -16 -163 -5 -67 -7 -74 -30 -83 -14 -5 -41 -23 -61 -39 -42 -34
-56 -38 -48 -12 3 9 8 271 12 582 3 311 7 597 9 635 2 39 4 306 5 595 0 337 5
541 11 570 6 25 12 63 13 85 0 22 11 59 24 82 28 53 28 64 -1 138 -16 43 -32
66 -55 80 -17 11 -35 30 -38 42 -3 11 -17 31 -30 44 -31 29 -30 34 7 49 40 17
63 53 55 85 -7 29 -41 34 -72 10 -29 -22 -39 -18 -53 21 -14 38 -46 57 -73 42
-15 -7 -18 -22 -18 -77 0 -68 -1 -69 -30 -80 -34 -11 -41 -49 -14 -72 14 -11
18 -10 33 10 l17 22 19 -20 c18 -20 18 -23 0 -80 -18 -60 -18 -62 4 -266 17
-169 18 -1673 0 -2055 -18 -389 -20 -414 -45 -418 -16 -2 -23 4 -28 22 -5 19
-13 26 -32 26 -13 0 -27 7 -30 15 -10 25 -53 17 -86 -15 -16 -16 -34 -30 -39
-30 -15 0 -10 88 6 120 14 28 51 60 68 60 5 0 7 -19 5 -42 l-3 -43 53 0 c51 1
53 0 47 -23 -5 -19 -2 -23 12 -20 13 2 18 13 18 38 0 35 0 35 -42 33 -39 -2
-42 0 -30 17 15 25 -5 47 -50 56 -27 5 -37 1 -73 -33 -39 -36 -42 -43 -47
-104 -4 -50 -2 -72 10 -90 23 -34 9 -50 -65 -74 l-63 -20 -2 -655 -2 -655 42
50 c23 28 72 80 108 116 80 79 136 101 262 101 93 0 140 -14 230 -69 34 -20
88 -47 121 -59 33 -12 62 -26 64 -32 2 -6 -19 -27 -46 -47 -45 -32 -122 -127
-122 -150 0 -5 12 -19 26 -30 l26 -20 -84 -67 c-45 -36 -104 -88 -129 -115
-26 -27 -70 -67 -98 -87 -71 -53 -123 -121 -115 -153 5 -19 -1 -33 -28 -61
-66 -71 -88 -132 -67 -191 11 -30 14 -32 45 -26 45 8 44 -7 -2 -57 -20 -22
-53 -75 -73 -117 -32 -67 -36 -87 -39 -167 -5 -116 14 -162 73 -178 29 -9 39
-17 42 -36 6 -47 25 -70 55 -70 23 0 28 -4 28 -23 0 -16 9 -28 26 -36 29 -13
39 -9 113 44 90 64 102 78 120 145 l18 65 49 -3 c33 -2 90 7 169 28 135 36
162 48 222 96 23 19 44 34 48 34 4 0 31 19 61 43 68 53 174 177 239 281 57 90
143 172 195 186 20 5 51 23 69 39 18 17 47 33 65 37 17 3 45 17 63 30 36 27
49 30 56 12 4 -13 63 -55 167 -119 93 -57 236 -187 330 -297 l54 -63 -17 -28
c-20 -34 -21 -54 -5 -81 10 -15 8 -33 -6 -90 l-19 -70 31 -73 c40 -95 66 -222
59 -283 -6 -61 5 -84 42 -84 41 0 70 -28 86 -85 8 -27 25 -84 39 -125 44 -130
76 -235 76 -247 0 -6 5 -24 12 -40 12 -29 55 -187 65 -238 3 -16 15 -42 26
-57 16 -21 18 -35 13 -73 -6 -36 -4 -52 10 -73 10 -15 17 -37 15 -50 -2 -17 5
-26 33 -37 47 -20 71 -19 115 4 20 11 63 32 96 47 33 15 72 33 88 40 26 13 28
12 42 -21 12 -30 19 -35 48 -35 19 0 49 10 68 23 29 20 34 28 31 58 -2 19 -9
40 -15 47 -16 20 5 35 153 110 74 37 137 74 141 82 4 8 13 28 20 43 25 53 -20
68 -161 54 -36 -4 -98 -4 -138 0 l-73 6 6 28 c6 25 3 29 -14 29 -25 0 -27 13
-6 30 18 15 19 50 4 84 -14 31 -34 39 -61 25 -24 -13 -27 -11 -48 48 -9 27
-31 86 -49 133 -41 110 -73 261 -65 310 6 34 -3 81 -26 135 -10 26 -40 186
-40 218 0 14 -7 30 -15 37 -8 7 -19 29 -25 50 -7 25 -17 40 -32 43 -18 5 -19
8 -8 22 12 15 15 13 35 -10 20 -26 23 -26 63 -16 70 19 75 38 76 297 1 123 4
225 8 229 3 4 16 1 28 -5 16 -9 32 -8 73 6 29 9 60 23 69 31 23 21 38 8 38
-33 0 -54 59 -106 146 -128 38 -10 77 -22 86 -27 28 -14 46 -11 53 10 6 21 38
36 55 26 5 -3 10 -23 10 -43 0 -48 19 -75 72 -99 59 -28 106 -34 153 -22 22 6
50 11 63 11 15 0 26 8 32 23 7 18 39 42 44 33 1 -2 6 -16 11 -33 12 -37 64
-64 138 -72 50 -5 55 -3 75 22 12 15 22 41 22 56 0 35 12 38 25 7 6 -13 30
-33 55 -46 39 -19 56 -22 128 -18 83 4 84 4 101 -25 9 -15 59 -65 110 -110 93
-82 93 -82 199 -110 123 -32 152 -35 152 -14 0 9 -17 18 -42 25 -125 30 -176
51 -181 73 -3 12 -9 117 -12 232 -4 116 -13 296 -22 400 -8 105 -17 261 -20
348 -5 136 -3 166 12 211 16 48 16 54 2 83 -9 17 -13 33 -10 37 15 15 67 4 95
-19 36 -30 57 -31 91 -5 14 11 30 20 35 20 18 0 20 24 5 59 -17 43 -11 61 22
61 20 0 25 5 25 26 0 18 -4 23 -12 17 -31 -19 -83 -32 -93 -22 -16 16 8 43 56
60 38 14 44 21 47 49 2 18 -1 37 -7 43 -6 6 -11 20 -11 32 0 40 -20 46 -51 15
-16 -16 -29 -31 -29 -34 0 -3 14 -12 30 -21 40 -21 38 -43 -4 -50 -19 -4 -46
-20 -61 -35 -24 -25 -27 -34 -21 -69 3 -23 9 -59 12 -81 7 -41 -9 -58 -19 -20
-4 15 -14 20 -41 20 -20 0 -36 4 -36 8 0 14 70 235 82 260 6 12 26 31 45 42
18 10 33 24 33 30 0 15 50 80 61 80 21 0 8 -41 -16 -50 -36 -14 -33 -41 5 -38
29 2 30 4 30 53 0 39 -6 59 -25 85 -27 37 -31 60 -14 92 11 20 5 30 -25 41 -5
2 -1 15 8 29 13 19 15 32 8 45 -6 10 -13 44 -17 75 -6 50 -4 61 16 89 29 41
48 146 48 272 1 96 1 97 -23 97 -16 0 -44 -20 -85 -61 -34 -33 -61 -54 -61
-47 0 17 -115 138 -131 138 -8 0 -8 -4 -2 -12 58 -76 79 -98 89 -94 7 3 18 -2
24 -9 9 -11 7 -20 -9 -41 -25 -31 -26 -52 -5 -79 13 -17 13 -20 -2 -25 -22 -8
-119 26 -119 41 0 7 -11 16 -25 19 -20 5 -24 12 -22 34 3 29 -22 117 -44 151
-6 11 -15 45 -19 75 -4 30 -11 65 -16 76 -5 14 -3 28 5 39 11 15 14 9 25 -46
17 -86 27 -108 53 -118 32 -12 45 -1 20 18 -27 21 -49 108 -62 246 -6 61 -15
136 -21 168 -5 31 -14 102 -18 157 -5 54 -12 104 -16 110 -9 14 -30 228 -46
460 -13 191 -8 213 46 236 36 15 55 12 55 -7 0 -6 -9 -7 -20 -4 -11 3 -20 2
-20 -3 0 -18 29 -34 50 -27 24 8 27 47 5 65 -9 7 -15 35 -17 78 -2 36 -8 67
-13 69 -14 4 -74 -97 -72 -121 1 -10 -4 -21 -10 -23 -10 -4 -13 15 -13 70 0
41 -4 96 -9 123 -12 63 -16 291 -6 327 5 18 1 52 -10 94 -16 59 -21 67 -54 80
l-36 15 28 22 c23 19 27 28 21 49 -4 17 -15 29 -30 33 -13 3 -21 10 -18 16 3
5 12 7 20 4 8 -3 25 -1 39 4 22 8 25 15 25 59 0 27 -5 53 -11 56 -5 4 -28 -5
-50 -19 -38 -25 -39 -26 -39 -5 0 11 4 28 10 38 12 23 -22 125 -43 129 -19 4
-47 -35 -47 -66 0 -12 6 -33 14 -45 8 -12 16 -35 18 -52 3 -28 1 -30 -28 -27
-52 5 -84 -13 -84 -47 0 -37 18 -51 64 -49 43 2 53 -6 58 -46 3 -25 -1 -31
-27 -39 -16 -5 -43 -21 -58 -36 -24 -22 -28 -31 -23 -61 4 -19 7 -44 8 -55 0
-11 7 -40 16 -65 8 -26 15 -91 17 -153 2 -92 -1 -110 -14 -114 -9 -4 -23 -12
-33 -20 -14 -13 -17 -10 -23 27 -8 47 -48 101 -63 85 -5 -5 -13 -31 -16 -56
-6 -44 -5 -47 28 -74 l35 -28 -32 -16 c-28 -14 -32 -22 -35 -62 -4 -62 16 -80
59 -55 30 18 31 18 57 -5 58 -50 62 -58 63 -128 0 -64 8 -140 28 -286 10 -71
36 -538 45 -807 6 -166 15 -150 -89 -167 -33 -6 -104 -25 -158 -44 -54 -19
-99 -31 -101 -28 -2 3 -11 47 -21 96 -9 50 -21 110 -26 135 -18 82 -27 144
-34 225 -3 44 -13 106 -21 138 -23 89 -2 102 61 37 37 -38 68 -50 79 -31 6 10
-20 67 -35 76 -20 13 -7 24 21 18 37 -7 70 18 70 54 0 21 -4 23 -44 23 l-45 0
6 33 c7 43 -13 61 -47 43 -23 -11 -25 -17 -22 -73 2 -58 2 -61 -24 -67 -14 -4
-29 -4 -32 -1 -8 8 -32 116 -37 167 -3 20 -13 81 -25 136 -11 55 -20 122 -20
149 0 53 -26 267 -60 493 -5 33 -4 81 2 118 12 77 8 89 -39 109 -46 18 -85 48
-76 57 3 3 19 6 35 6 27 0 78 38 78 57 -1 24 -22 38 -59 38 -34 0 -41 3 -46
24 -8 32 -54 91 -71 91 -15 0 -29 -42 -21 -64 3 -8 1 -30 -5 -50 -10 -30 -16
-36 -40 -36 -22 0 -28 -4 -28 -23 0 -12 7 -33 16 -45 14 -20 22 -22 55 -17 32
6 39 4 39 -9 0 -9 -8 -16 -18 -16 -10 0 -33 -14 -51 -30 -29 -27 -32 -35 -27
-63 4 -18 13 -77 21 -132 23 -169 53 -361 63 -402 6 -21 13 -54 16 -73 l6 -35
-26 33 c-29 36 -36 38 -58 17 -9 -9 -17 -11 -21 -5 -8 13 -97 52 -104 45 -3
-3 1 -25 9 -48 14 -39 22 -46 89 -77 27 -12 22 -28 -9 -35 -17 -4 -34 -13 -37
-21 -8 -22 5 -61 23 -68 18 -7 70 18 76 36 3 8 9 5 17 -10 8 -15 21 -22 39
-22 l28 0 33 -227 c18 -126 37 -253 42 -283 14 -82 17 -105 28 -215 12 -115
27 -224 47 -344 14 -83 14 -85 -8 -108 -27 -29 -38 -29 -38 -2 0 12 -8 23 -20
26 -15 4 -18 11 -14 28 3 13 -2 37 -10 54 -21 40 -56 41 -86 4 -18 -23 -24
-25 -40 -15 -11 7 -29 12 -40 12 -32 0 -70 -44 -70 -80 0 -26 -5 -33 -30 -42
-33 -11 -51 -51 -31 -71 22 -22 10 -36 -46 -52 -32 -9 -75 -28 -96 -41 -22
-14 -41 -23 -44 -20 -3 3 2 22 12 41 9 21 14 47 11 60 -4 17 -1 24 15 28 20 5
21 10 15 88 -4 45 -9 86 -12 90 -2 5 -20 11 -40 15 l-35 6 6 167 c3 91 8 175
10 186 2 11 7 90 10 175 3 85 11 223 16 305 6 83 12 197 15 255 2 58 8 132 13
165 5 33 9 101 10 150 1 119 18 336 36 457 8 53 15 128 15 166 0 38 3 90 6
115 6 44 8 46 35 40 21 -4 40 2 75 26 26 17 53 31 60 31 6 0 29 19 50 43 21
23 52 47 68 52 23 8 34 21 47 55 12 31 22 44 33 42 9 -2 25 2 36 8 26 14 27
76 1 109 -16 21 -16 28 -5 60 7 20 13 55 14 78 0 23 5 54 12 68 18 40 -11 91
-67 116 -49 22 -57 36 -23 41 39 5 33 36 -16 85 -25 25 -46 49 -46 53 0 4 21
24 46 45 51 42 107 59 138 43 27 -14 142 -3 175 18 14 9 34 26 43 38 22 27 24
3 3 -34 -22 -39 -19 -77 8 -85 12 -4 31 -15 42 -25 11 -10 39 -21 63 -25 35
-6 42 -4 42 9 0 24 -47 113 -62 118 -9 3 -4 15 15 37 31 37 34 57 11 90 -14
19 -22 22 -51 16 -34 -6 -146 -83 -171 -117 -15 -20 -38 -24 -44 -6 -2 6 -24
16 -49 23 -24 6 -55 15 -69 19 -20 7 -23 6 -12 -5 19 -20 15 -27 -20 -34 -18
-4 -39 -12 -46 -18 -24 -19 -25 3 -2 28 13 14 21 27 18 31 -3 3 -23 -14 -44
-37 -81 -88 -102 -98 -96 -45 4 34 -13 56 -44 56 -29 0 -32 16 -5 23 28 7 62
66 59 102 -4 41 -53 66 -105 55 -20 -5 -40 -15 -45 -22 -6 -8 -8 23 -4 84 5
91 8 101 41 149 19 28 35 56 35 61 0 22 -24 55 -68 95 -47 42 -54 67 -10 40
19 -12 30 -13 63 -3 69 20 57 66 -24 90 -30 9 -44 18 -42 27 3 8 7 40 9 72 3
45 0 63 -14 78 -23 26 -39 24 -63 -8z m39 -62 c0 -37 -10 -62 -21 -55 -10 6
-12 45 -3 68 10 26 24 18 24 -13z m-115 -80 c3 -5 1 -12 -5 -16 -5 -3 -10 1
-10 9 0 18 6 21 15 7z m205 -80 c0 -4 -3 -11 -7 -14 -9 -9 -44 23 -37 34 6 10
44 -7 44 -20z m-169 -78 c5 -15 9 -43 7 -62 -4 -43 -28 -55 -28 -14 0 15 -4
42 -9 60 -14 49 12 63 30 16z m50 -8 c-1 -15 -24 -12 -29 3 -3 9 2 13 12 10
10 -1 17 -7 17 -13z m54 -16 c11 -17 -1 -21 -15 -4 -8 9 -8 15 -2 15 6 0 14
-5 17 -11z m-148 -86 c-4 -17 -4 -17 -12 0 -4 9 -4 25 0 35 8 16 8 16 12 0 3
-10 3 -26 0 -35z m173 7 c0 -5 -2 -10 -4 -10 -3 0 -8 5 -11 10 -3 6 -1 10 4
10 6 0 11 -4 11 -10z m-185 -114 c-8 -52 -25 -53 -25 -1 0 44 10 69 22 57 5
-5 7 -30 3 -56z m45 -61 c0 -14 -4 -25 -10 -25 -11 0 -14 33 -3 43 11 11 13 8
13 -18z m-53 -77 c-3 -22 -4 -21 -11 4 -5 16 -5 36 0 45 7 16 8 15 11 -4 3
-13 3 -33 0 -45z m57 -6 c-9 -37 -22 -49 -30 -28 -8 21 12 69 26 61 6 -3 7
-18 4 -33z m-57 -74 c-3 -8 -6 -5 -6 6 -1 11 2 17 5 13 3 -3 4 -12 1 -19z m93
-12 c0 -18 -17 -29 -30 -21 -8 5 -7 11 1 21 15 18 29 18 29 0z m-60 -6 c0 -5
-2 -10 -4 -10 -3 0 -8 5 -11 10 -3 6 -1 10 4 10 6 0 11 -4 11 -10z m220 -35
c-14 -17 -30 -20 -30 -6 0 5 8 12 18 14 9 3 19 5 21 6 2 0 -2 -6 -9 -14z
m-379 -56 c8 -15 8 -24 0 -32 -15 -15 -46 16 -38 37 9 22 24 20 38 -5z m69
-10 c0 -5 -7 -9 -15 -9 -8 0 -15 7 -15 15 0 9 6 12 15 9 8 -4 15 -10 15 -15z
m800 11 c0 -5 -5 -10 -11 -10 -5 0 -7 5 -4 10 3 6 8 10 11 10 2 0 4 -4 4 -10z
m-466 -38 c3 -5 2 -18 -1 -30 -6 -23 -28 -28 -53 -12 -12 7 -12 12 4 29 20 22
41 27 50 13z m-560 -85 c14 -22 -1 -36 -44 -39 -31 -3 -35 0 -38 24 -3 22 1
27 25 31 38 5 45 3 57 -16z m621 3 c3 -6 -1 -13 -10 -16 -19 -8 -30 0 -20 15
8 14 22 14 30 1z m-435 -25 c0 -18 -5 -25 -20 -25 -23 0 -24 4 -10 31 15 27
30 24 30 -6z m90 -85 c0 -31 -25 -48 -33 -21 -6 23 10 64 23 56 5 -3 10 -19
10 -35z m412 23 c29 -26 21 -34 -17 -16 -19 9 -35 20 -35 25 0 14 33 9 52 -9z
m-802 -22 c0 -5 -9 -19 -20 -32 -19 -23 -19 -23 -20 -3 0 20 17 44 32 44 4 0
8 -4 8 -9z m700 -12 c0 -6 -4 -7 -10 -4 -5 3 -10 11 -10 16 0 6 5 7 10 4 6 -3
10 -11 10 -16z m-380 -34 c0 -19 -5 -46 -10 -61 -6 -15 -12 -84 -13 -153 -2
-106 0 -126 13 -126 11 0 17 17 22 67 3 37 9 72 13 78 15 24 22 -4 19 -75 -1
-42 1 -75 7 -75 5 0 9 5 9 10 0 6 5 10 10 10 18 0 10 -28 -9 -33 -13 -3 -21
-15 -23 -38 -4 -41 -25 -49 -33 -12 -11 49 -14 53 -30 47 -8 -3 -15 -16 -15
-28 0 -11 -4 -27 -9 -35 -8 -13 -12 -13 -26 -1 -9 8 -38 14 -63 15 -46 0 -47
1 -47 32 -1 23 -10 43 -33 66 -24 25 -31 39 -25 53 8 23 8 73 -2 97 -9 22 17
24 35 2 7 -8 16 -15 20 -15 12 0 80 142 80 168 0 28 7 28 29 1 22 -28 63 -18
60 14 -2 33 0 39 11 32 6 -3 10 -21 10 -40z m100 15 c0 -5 -5 -10 -11 -10 -5
0 -7 5 -4 10 3 6 8 10 11 10 2 0 4 -4 4 -10z m350 -11 c0 -5 -4 -9 -10 -9 -5
0 -10 7 -10 16 0 8 5 12 10 9 6 -3 10 -10 10 -16z m-169 -12 c-13 -13 -26 -3
-16 12 3 6 11 8 17 5 6 -4 6 -10 -1 -17z m-522 -25 c-13 -15 -33 -45 -44 -65
-22 -41 -35 -47 -35 -17 0 34 27 76 62 98 41 26 47 21 17 -16z m91 14 c0 -7
-9 -25 -20 -39 -11 -14 -20 -35 -20 -46 0 -12 -4 -21 -10 -21 -17 0 -11 46 10
73 11 14 20 33 20 42 0 9 5 13 10 10 6 -3 10 -12 10 -19z m202 -28 c-8 -8 -8
-15 -1 -24 11 -13 4 -34 -11 -34 -17 0 -19 32 -2 55 9 13 19 21 21 19 3 -2 -1
-10 -7 -16z m202 5 c4 -5 17 -8 29 -8 24 0 41 -48 27 -76 -18 -33 -11 -66 20
-92 37 -32 37 -41 -1 -84 -20 -23 -28 -41 -24 -52 4 -9 9 -20 11 -26 2 -5 -9
-24 -24 -42 -34 -39 -99 -52 -95 -18 2 11 5 79 7 150 9 230 19 279 50 248z
m-2920 -11 c3 -5 8 -28 12 -50 5 -35 4 -42 -10 -42 -11 0 -16 9 -16 28 0 15
-3 37 -6 50 -6 21 9 32 20 14z m3126 -22 c0 -10 8 -23 18 -29 14 -8 15 -12 5
-22 -17 -17 -29 -4 -38 39 -4 20 -3 32 4 32 6 0 11 -9 11 -20z m94 1 c3 -5 0
-21 -8 -35 l-14 -27 -4 31 c-3 16 -2 32 0 35 8 8 20 6 26 -4z m-949 -50 c7
-12 -24 -91 -36 -91 -12 0 -11 42 1 74 10 27 24 33 35 17z m529 -12 c-3 -5
-10 -7 -15 -3 -5 3 -7 10 -3 15 3 5 10 7 15 3 5 -3 7 -10 3 -15z m253 -4 c5
-16 -22 -55 -39 -55 -12 0 -10 44 4 58 16 16 27 15 35 -3z m-337 -11 c0 -9 -5
-14 -12 -12 -18 6 -21 28 -4 28 9 0 16 -7 16 -16z m-2010 -35 c0 -5 -4 -9 -10
-9 -5 0 -10 7 -10 16 0 8 5 12 10 9 6 -3 10 -10 10 -16z m2040 2 c0 -6 -4 -13
-10 -16 -5 -3 -10 1 -10 9 0 9 5 16 10 16 6 0 10 -4 10 -9z m480 -12 c0 -5 -9
-9 -20 -9 -19 0 -26 11 -14 23 8 8 34 -3 34 -14z m-843 -15 c-9 -9 -28 6 -21
18 4 6 10 6 17 -1 6 -6 8 -13 4 -17z m413 5 c0 -6 -4 -7 -10 -4 -5 3 -10 11
-10 16 0 6 5 7 10 4 6 -3 10 -11 10 -16z m310 -36 c-1 -28 -3 -34 -10 -22 -8
14 -3 59 6 59 2 0 4 -17 4 -37z m-3020 -42 c0 -58 -23 -82 -34 -36 -7 27 8 65
24 65 6 0 10 -13 10 -29z m2710 5 c0 -8 -4 -17 -9 -21 -12 -7 -24 12 -16 25 9
15 25 12 25 -4z m375 -82 c-3 -19 -10 -34 -15 -34 -14 0 -12 67 2 93 l13 22 3
-24 c2 -13 1 -39 -3 -57z m-3135 53 c0 -14 -20 -37 -32 -37 -10 0 -11 34 -1
43 11 12 33 8 33 -6z m640 3 c0 -5 -4 -10 -10 -10 -5 0 -10 5 -10 10 0 6 5 10
10 10 6 0 10 -4 10 -10z m2170 -6 c0 -8 -5 -12 -10 -9 -6 4 -8 11 -5 16 9 14
15 11 15 -7z m-580 -30 c0 -13 -4 -24 -10 -24 -5 0 -10 14 -10 31 0 17 4 28
10 24 6 -3 10 -17 10 -31z m170 -1 c0 -17 -10 -16 -32 4 -26 23 -22 35 7 21
14 -6 25 -17 25 -25z m601 -6 c-16 -16 -26 0 -10 19 9 11 15 12 17 4 2 -6 -1
-17 -7 -23z m-2875 -17 c8 0 14 -4 14 -10 0 -5 -4 -10 -10 -10 -5 0 -7 -7 -4
-15 4 -8 13 -15 21 -15 22 0 13 -74 -9 -78 -12 -2 -19 5 -23 22 -3 14 -7 37
-10 51 -4 18 -10 23 -22 18 -13 -5 -15 -2 -11 15 4 12 1 25 -5 29 -7 4 -2 9
13 13 16 4 26 2 28 -7 2 -7 10 -13 18 -13z m404 -16 c0 -24 -5 -34 -15 -34 -8
0 -15 8 -16 18 0 10 -3 12 -6 5 -7 -20 -23 -15 -16 5 9 26 34 52 44 46 5 -3 9
-21 9 -40z m1807 19 c9 -23 -13 -39 -32 -23 -23 19 -20 49 6 43 11 -3 23 -12
26 -20z m728 7 c3 -5 1 -10 -4 -10 -6 0 -11 5 -11 10 0 6 2 10 4 10 3 0 8 -4
11 -10z m-3073 -25 c0 -5 -5 -11 -11 -13 -6 -2 -11 4 -11 13 0 9 5 15 11 13 6
-2 11 -8 11 -13z m39 -18 c-8 -8 -11 -7 -11 4 0 20 13 34 18 19 3 -7 -1 -17
-7 -23z m583 -6 c10 -18 12 -38 7 -56 -13 -50 -26 -37 -26 25 0 33 1 60 2 60
1 0 9 -13 17 -29z m2584 -14 c4 -29 -12 -37 -22 -11 -10 26 -7 46 7 42 6 -3
13 -17 15 -31z m-790 11 c16 -16 15 -28 -2 -28 -17 0 -38 24 -29 33 9 10 17 9
31 -5z m-1847 -21 c-13 -13 -26 -3 -16 12 3 6 11 8 17 5 6 -4 6 -10 -1 -17z
m3282 -10 c-3 -5 -9 -3 -14 4 -4 7 -5 17 -2 22 3 5 9 3 14 -4 4 -7 5 -17 2
-22z m-3843 14 c0 -6 -4 -13 -10 -16 -5 -3 -10 1 -10 9 0 9 5 16 10 16 6 0 10
-4 10 -9z m88 -24 c-7 -14 -13 -17 -16 -9 -6 19 6 44 18 37 7 -4 6 -14 -2 -28z
m2192 -21 c0 -24 -2 -27 -15 -16 -15 13 -20 51 -8 63 10 11 23 -15 23 -47z
m-2235 3 c7 -43 3 -55 -14 -44 -13 8 -15 85 -2 85 5 0 12 -18 16 -41z m2697
-1 c9 0 22 -6 28 -14 10 -11 7 -16 -16 -24 -34 -13 -87 -5 -104 15 -19 23 -2
36 38 29 20 -4 45 -7 54 -6z m-2174 -10 c-6 -18 -28 -21 -28 -4 0 9 7 16 16
16 9 0 14 -5 12 -12z m1843 -29 c24 -24 21 -43 -10 -47 -25 -4 -50 22 -51 51
0 24 35 22 61 -4z m641 -1 c-7 -7 -12 -8 -12 -2 0 14 12 26 19 19 2 -3 -1 -11
-7 -17z m-462 2 c0 -13 -30 -13 -50 0 -11 7 -7 10 18 10 17 0 32 -4 32 -10z
m-2020 -19 c0 -20 -17 -37 -27 -28 -7 8 7 47 18 47 5 0 9 -9 9 -19z m2333 -2
c-6 -6 -19 -9 -29 -6 -17 3 -16 5 6 14 28 12 39 8 23 -8z m217 -8 c-6 -12 -16
-19 -21 -15 -6 4 -4 13 7 25 21 24 29 18 14 -10z m-2630 -6 c0 -8 -4 -15 -10
-15 -5 0 -10 7 -10 15 0 8 5 15 10 15 6 0 10 -7 10 -15z m2300 -5 c-8 -5 -22
-10 -30 -10 -13 0 -13 1 0 10 8 5 22 10 30 10 13 0 13 -1 0 -10z m-130 -10 c0
-5 -4 -10 -10 -10 -5 0 -10 5 -10 10 0 6 5 10 10 10 6 0 10 -4 10 -10z m1280
1 c0 -14 -18 -23 -30 -16 -6 4 -8 11 -5 16 8 12 35 12 35 0z m-1357 -24 c20
-10 37 -22 37 -27 0 -20 -30 -9 -62 21 -35 32 -34 33 25 6z m461 -15 c-20 -32
-44 -51 -61 -52 -21 0 -15 15 23 54 40 41 65 39 38 -2z m-84 18 c0 -10 -41
-30 -61 -30 -16 0 1 21 25 30 29 12 36 12 36 0z m-602 -20 c7 -12 10 -26 6
-32 -6 -10 -33 25 -34 45 0 14 15 7 28 -13z m482 5 c-7 -8 -21 -15 -32 -15
-11 0 -29 -5 -40 -11 -14 -8 -23 -8 -31 0 -11 11 -11 12 58 29 57 14 59 14 45
-3z m980 5 c21 -13 10 -18 -32 -12 -21 2 -35 8 -32 13 7 12 45 11 64 -1z
m-3249 -63 c-7 -7 -15 -6 -25 3 -22 17 -9 32 16 19 14 -8 17 -14 9 -22z m1986
12 c48 -23 52 -42 10 -47 -28 -3 -67 27 -67 53 0 20 5 19 57 -6z m-2067 -23
c0 -8 -4 -17 -9 -21 -12 -7 -24 12 -16 25 9 15 25 12 25 -4z m2356 -1 c-32
-24 -84 -17 -59 8 3 4 22 7 42 7 34 -1 35 -2 17 -15z m84 5 c0 -5 -9 -14 -20
-20 -22 -12 -27 -1 -8 18 14 14 28 16 28 2z m-2362 -58 c2 -13 -3 -25 -13 -28
-21 -9 -24 -4 -18 29 6 32 26 31 31 -1z m2130 11 c-10 -2 -28 -2 -40 0 -13 2
-5 4 17 4 22 1 32 -1 23 -4z m-2648 -48 c0 -25 -14 -34 -24 -16 -8 12 3 41 15
41 5 0 9 -11 9 -25z m2620 7 c0 -4 -5 -13 -12 -20 -9 -9 -9 -15 0 -24 17 -17
15 -29 -5 -26 -15 2 -19 -7 -25 -52 -3 -30 -6 -84 -7 -119 -1 -51 2 -62 11
-53 20 20 31 14 24 -13 -7 -27 3 -32 22 -13 9 9 12 8 12 -5 0 -9 -7 -17 -15
-17 -16 0 -21 -26 -29 -137 -5 -79 -21 -122 -38 -105 -13 13 -14 254 -2 392 5
52 8 119 8 148 -1 51 0 52 28 52 15 0 28 -4 28 -8z m1150 -12 c0 -5 -7 -10
-15 -10 -8 0 -15 5 -15 10 0 6 7 10 15 10 8 0 15 -4 15 -10z m-3255 -21 c3 -4
3 -20 -1 -34 -4 -18 -13 -25 -30 -25 -21 0 -23 4 -18 24 3 14 1 27 -6 31 -9 6
-9 9 0 15 14 9 48 2 55 -11z m2190 -10 c-4 -5 -16 -9 -28 -9 -21 1 -21 1 -3
15 20 15 41 11 31 -6z m1019 -9 c-5 -20 -1 -34 11 -46 11 -11 14 -25 10 -41
-4 -16 1 -37 13 -57 16 -27 19 -57 22 -186 5 -244 7 -281 18 -340 11 -57 13
-90 31 -400 15 -265 18 -287 45 -323 13 -18 24 -47 24 -66 0 -19 6 -37 13 -42
6 -4 9 -14 6 -23 -4 -9 -2 -16 3 -16 15 0 10 -98 -6 -111 -11 -9 -14 -6 -15
17 0 16 -4 38 -9 49 -6 14 -9 -3 -11 -55 -1 -41 -1 -82 0 -90 1 -8 5 -35 8
-60 4 -25 7 -76 7 -115 -1 -57 -4 -71 -17 -73 -23 -5 -25 8 -42 338 -8 162
-17 331 -20 375 -3 44 -5 94 -5 110 0 17 -6 86 -15 155 -8 69 -19 194 -24 279
-5 84 -14 158 -20 164 -12 12 -3 162 11 190 6 12 5 23 -2 32 -7 8 -10 18 -7
22 2 4 0 37 -5 73 -5 36 -11 87 -14 113 -3 26 -13 62 -24 79 -15 24 -16 35 -8
54 16 33 29 30 22 -6z m-1799 -11 c4 -6 -2 -13 -14 -16 -12 -3 -21 -12 -21
-19 0 -8 -4 -14 -9 -14 -12 0 -24 37 -16 50 8 13 52 13 60 -1z m43 -25 c-4 -3
-12 5 -18 18 -12 22 -12 22 6 6 10 -10 15 -20 12 -24z m1095 -17 c-3 -20 -10
-37 -14 -37 -11 0 -11 16 -3 59 9 45 25 24 17 -22z m-1257 -4 c-10 -10 -19 5
-10 18 6 11 8 11 12 0 2 -7 1 -15 -2 -18z m48 19 c2 -4 1 -14 -4 -22 -7 -11
-12 -12 -21 -3 -6 6 -8 16 -5 22 8 13 23 14 30 3z m766 -31 c0 -26 -10 -51
-21 -51 -10 0 -12 53 -2 63 12 13 23 7 23 -12z m540 -10 c0 -23 -16 -36 -25
-21 -9 14 1 40 15 40 5 0 10 -9 10 -19z m-2650 -6 c0 -8 -9 -15 -20 -15 -11 0
-20 7 -20 15 0 8 9 15 20 15 11 0 20 -7 20 -15z m1346 -22 c-10 -10 -19 5 -10
18 6 11 8 11 12 0 2 -7 1 -15 -2 -18z m-1816 1 c0 -8 -5 -12 -10 -9 -6 4 -8
11 -5 16 9 14 15 11 15 -7z m2650 -14 c0 -5 -4 -10 -10 -10 -5 0 -10 5 -10 10
0 6 5 10 10 10 6 0 10 -4 10 -10z m-2274 -27 c-10 -10 -19 5 -10 18 6 11 8 11
12 0 2 -7 1 -15 -2 -18z m94 6 c0 -5 -9 -9 -20 -9 -22 0 -27 16 -7 23 15 5 27
-1 27 -14z m1320 0 c0 -14 -27 -10 -33 5 -4 10 0 12 14 9 10 -3 19 -9 19 -14z
m130 -30 c0 -10 -4 -19 -10 -19 -5 0 -10 12 -10 26 0 14 4 23 10 19 6 -3 10
-15 10 -26z m650 22 c0 -6 -4 -13 -10 -16 -5 -3 -10 1 -10 9 0 9 5 16 10 16 6
0 10 -4 10 -9z m-2227 -33 c-8 -46 -13 -48 -13 -5 0 21 4 37 10 37 5 0 7 -14
3 -32z m99 7 c21 0 23 -5 26 -56 2 -31 -1 -78 -5 -105 l-9 -49 -41 1 c-40 1
-42 0 -36 -26 3 -15 0 -31 -6 -34 -6 -4 -8 -18 -5 -31 4 -17 0 -26 -15 -35
-20 -10 -31 2 -12 14 8 5 11 31 12 106 0 46 7 55 28 35 37 -32 89 4 63 45 -6
11 -12 39 -13 62 0 24 -3 37 -6 31 -2 -7 -13 -13 -24 -13 -11 0 -19 -7 -19
-16 0 -8 -3 -13 -8 -11 -12 8 -6 72 8 69 6 -1 14 7 17 19 4 15 8 17 14 8 4 -8
18 -14 31 -14z m-434 -32 c-3 -30 -23 -41 -31 -18 -9 21 2 45 20 45 10 0 13
-9 11 -27z m1962 17 c0 -5 -5 -10 -11 -10 -5 0 -7 5 -4 10 3 6 8 10 11 10 2 0
4 -4 4 -10z m-2012 -32 c-3 -37 -23 -41 -24 -5 -1 27 4 37 17 37 6 0 9 -15 7
-32z m2612 23 c0 -6 -4 -13 -10 -16 -5 -3 -10 1 -10 9 0 9 5 16 10 16 6 0 10
-4 10 -9z m-680 -11 c0 -5 -9 -19 -19 -29 -17 -17 -20 -17 -25 -4 -4 9 -1 22
5 29 13 16 39 19 39 4z m1129 -9 c8 -5 11 -16 7 -26 -5 -13 -9 -15 -20 -6 -11
10 -13 3 -12 -35 0 -30 -4 -49 -11 -51 -9 -3 -13 7 -13 31 0 25 -5 36 -15 36
-9 0 -12 6 -8 18 14 40 41 53 72 33z m-379 -11 c0 -5 -5 -10 -11 -10 -5 0 -7
5 -4 10 3 6 8 10 11 10 2 0 4 -4 4 -10z m500 -17 c0 -14 -15 -30 -37 -42 -35
-18 -49 -13 -25 9 12 12 22 25 22 30 0 6 9 10 20 10 11 0 20 -3 20 -7z m-1240
-39 c0 -14 4 -33 9 -42 5 -9 12 -67 15 -128 7 -138 58 -359 83 -359 20 0 24
-12 8 -25 -18 -15 -19 -29 -5 -65 9 -23 13 -25 25 -15 8 7 16 9 16 4 3 -20 6
-30 14 -48 6 -13 3 -22 -8 -31 -23 -17 -21 -28 3 -20 14 4 20 2 20 -9 0 -8 -4
-18 -10 -21 -15 -9 -12 -25 5 -25 9 0 15 -9 15 -21 0 -15 -5 -19 -15 -15 -9 3
-15 0 -15 -9 0 -8 9 -15 20 -15 21 0 28 -24 10 -35 -12 -8 -13 -72 -1 -79 5
-3 11 1 15 9 3 8 10 15 16 15 16 0 12 -31 -7 -52 -9 -11 -11 -18 -5 -18 7 0
12 5 12 11 0 5 5 7 10 4 6 -3 10 -17 10 -30 0 -13 -4 -27 -10 -30 -12 -7 -14
-75 -2 -75 4 0 13 5 20 12 9 9 12 8 12 -4 0 -9 -4 -20 -10 -23 -5 -3 -10 -14
-10 -23 0 -12 3 -13 12 -4 16 16 28 15 28 -3 0 -9 -7 -18 -15 -21 -8 -4 -15
-15 -15 -26 0 -17 2 -18 15 -8 23 19 29 5 15 -30 -7 -17 -10 -33 -6 -37 3 -3
6 1 6 10 0 10 5 17 10 17 13 0 13 -23 -1 -37 -6 -6 -7 -30 -3 -64 5 -30 10
-46 12 -36 5 24 32 21 32 -4 0 -11 5 -29 11 -40 10 -19 11 -20 23 -3 14 19 36
12 36 -12 0 -8 -9 -14 -21 -14 -29 0 -59 -18 -54 -33 3 -6 6 -30 8 -52 2 -21
9 -41 16 -43 6 -2 11 1 11 8 0 6 5 8 10 5 16 -10 12 -35 -5 -29 -12 5 -14 -4
-11 -52 2 -33 6 -66 9 -74 3 -8 8 -34 11 -58 4 -24 12 -52 18 -62 10 -15 10
-22 0 -32 -6 -6 -12 -21 -13 -32 -1 -33 -27 73 -34 139 -12 104 -14 119 -20
150 -4 17 -20 97 -36 178 -17 81 -32 154 -35 161 -3 8 -14 51 -24 97 -10 46
-26 104 -34 128 -16 42 -51 192 -96 416 -12 61 -28 133 -35 160 -7 28 -20 86
-30 130 -9 44 -21 94 -27 110 -21 67 -47 259 -36 272 17 20 28 15 28 -13z m53
-16 c2 -18 2 -37 -1 -42 -7 -12 -20 21 -21 52 -1 34 16 26 22 -10z m-1579 -9
c-3 -5 -10 -7 -15 -3 -5 3 -7 10 -3 15 3 5 10 7 15 3 5 -3 7 -10 3 -15z m-430
-26 c-10 -46 -13 -55 -22 -49 -6 4 -7 26 -3 69 1 4 8 7 16 7 12 0 14 -7 9 -27z
m3106 -9 c0 -16 -16 -19 -25 -4 -8 13 4 32 16 25 5 -4 9 -13 9 -21z m-419 -17
c-16 -16 -26 0 -10 19 9 11 15 12 17 4 2 -6 -1 -17 -7 -23z m429 -31 c0 -14
-5 -28 -10 -31 -13 -8 -24 20 -16 40 9 24 26 17 26 -9z m-54 -1 c-3 -8 -9 -22
-13 -32 -4 -12 -3 -14 6 -8 20 12 31 -14 31 -69 0 -37 -3 -47 -11 -39 -6 6
-11 23 -11 37 0 15 -4 29 -9 32 -12 7 -11 4 6 -91 8 -44 15 -82 15 -85 0 -3 4
2 10 10 12 19 16 13 24 -34 6 -33 5 -38 -8 -33 -10 4 -16 1 -16 -9 0 -9 8 -18
18 -21 28 -7 69 -223 42 -223 -5 0 -12 12 -15 28 -3 15 -15 50 -27 77 -19 47
-33 113 -44 215 -2 25 -9 70 -15 100 -26 124 -24 160 7 160 10 0 14 -5 10 -15z
m566 -17 c-9 -9 -12 -7 -12 12 0 19 3 21 12 12 9 -9 9 -15 0 -24z m-2156 -14
c-14 -10 -23 -11 -30 -3 -8 7 -5 15 8 25 14 10 23 11 30 3 8 -7 5 -15 -8 -25z
m1211 -11 c-16 -16 -17 -16 -17 3 0 11 3 24 7 27 4 4 11 3 17 -3 7 -7 5 -16
-7 -27z m-2167 13 c0 -8 -4 -17 -9 -21 -12 -7 -24 12 -16 25 9 15 25 12 25 -4z
m1515 4 c-3 -5 -1 -10 4 -10 6 0 11 -4 11 -10 0 -17 -14 -11 -28 10 -10 17
-10 20 4 20 8 0 12 -4 9 -10z m-1558 -16 c-3 -3 -12 -4 -19 -1 -8 3 -5 6 6 6
11 1 17 -2 13 -5z m941 -27 c30 -12 28 -13 -59 -25 -49 -7 -93 -13 -98 -15 -5
-1 -11 3 -12 8 -6 15 62 45 102 45 20 0 50 -6 67 -13z m-908 -17 c0 -5 -5 -10
-11 -10 -5 0 -7 5 -4 10 3 6 8 10 11 10 2 0 4 -4 4 -10z m2180 -4 c0 -8 -4
-18 -10 -21 -5 -3 -10 3 -10 14 0 12 5 21 10 21 6 0 10 -6 10 -14z m440 -7 c0
-5 -4 -9 -10 -9 -5 0 -10 7 -10 16 0 8 5 12 10 9 6 -3 10 -10 10 -16z m-2651
4 c0 -5 -4 -17 -9 -28 -8 -18 -9 -17 -9 8 -1 15 4 27 9 27 6 0 10 -3 9 -7z
m1591 -8 c0 -16 -27 -32 -37 -21 -7 7 16 36 28 36 5 0 9 -7 9 -15z m1108 4
c-2 -6 -8 -10 -13 -10 -5 0 -11 4 -13 10 -2 6 4 11 13 11 9 0 15 -5 13 -11z
m562 -49 c0 -57 -11 -78 -24 -45 -8 21 5 105 15 105 5 0 9 -27 9 -60z m-2141
31 c12 -8 12 -13 -3 -35 -12 -20 -25 -26 -51 -26 -42 0 -44 12 -9 45 29 27 41
30 63 16z m-129 -9 c0 -13 -56 -41 -125 -63 -37 -11 -74 -23 -81 -26 -8 -3
-14 1 -14 11 0 24 85 68 148 76 31 4 60 8 65 9 4 0 7 -3 7 -7z m2195 -12 c3
-5 -4 -19 -16 -31 -26 -26 -47 -12 -30 20 12 22 36 28 46 11z m-530 -10 c3 -5
1 -10 -4 -10 -6 0 -11 5 -11 10 0 6 2 10 4 10 3 0 8 -4 11 -10z m-2705 -14 c0
-8 -4 -18 -10 -21 -5 -3 -10 3 -10 14 0 12 5 21 10 21 6 0 10 -6 10 -14z
m1650 -6 c0 -11 -4 -20 -9 -20 -14 0 -23 18 -16 30 10 17 25 11 25 -10z m40
10 c0 -5 -4 -10 -10 -10 -5 0 -10 5 -10 10 0 6 5 10 10 10 6 0 10 -4 10 -10z
m1068 -1 c-2 -6 -8 -10 -13 -10 -5 0 -11 4 -13 10 -2 6 4 11 13 11 9 0 15 -5
13 -11z m-1168 -9 c0 -5 -4 -10 -10 -10 -5 0 -10 5 -10 10 0 6 5 10 10 10 6 0
10 -4 10 -10z m573 -21 c-8 -8 -7 -19 1 -41 9 -26 8 -32 -8 -44 -17 -12 -18
-14 -3 -14 22 0 23 -43 2 -60 -11 -9 -13 -16 -5 -24 13 -13 13 -123 -1 -132
-6 -4 -8 -20 -5 -39 4 -20 2 -36 -4 -40 -8 -5 -8 -11 0 -20 7 -8 9 -19 5 -26
-11 -16 -15 -180 -6 -199 5 -8 0 -40 -10 -75 l-19 -60 5 290 c6 283 17 436 36
484 5 13 13 21 16 17 4 -3 2 -11 -4 -17z m-2597 -22 c-16 -16 -26 -21 -26 -13
0 13 41 47 48 41 2 -2 -8 -14 -22 -28z m474 23 c0 -5 -2 -10 -4 -10 -3 0 -8 5
-11 10 -3 6 -1 10 4 10 6 0 11 -4 11 -10z m40 -10 c0 -11 -7 -20 -15 -20 -17
0 -18 2 -9 24 9 23 24 20 24 -4z m560 1 c0 -16 -72 -70 -108 -82 -81 -27 -51
38 33 71 56 21 75 24 75 11z m349 -7 c-14 -17 -82 -54 -99 -54 -5 0 -10 6 -10
14 0 12 20 22 119 55 2 0 -2 -6 -10 -15z m-1031 -49 c0 -31 -5 -58 -11 -62 -8
-5 -7 51 3 115 0 1 2 2 4 2 2 0 4 -25 4 -55z m1097 45 c-3 -5 -11 -10 -16 -10
-6 0 -7 5 -4 10 3 6 11 10 16 10 6 0 7 -4 4 -10z m601 -17 c-10 -10 -19 5 -10
18 6 11 8 11 12 0 2 -7 1 -15 -2 -18z m49 17 c3 -5 1 -10 -4 -10 -6 0 -11 5
-11 10 0 6 2 10 4 10 3 0 8 -4 11 -10z m1060 0 c3 -5 -1 -10 -9 -10 -9 0 -16
5 -16 10 0 6 4 10 9 10 6 0 13 -4 16 -10z m-2770 -21 c-10 -15 -25 -10 -19 6
4 8 10 12 15 9 5 -3 7 -10 4 -15z m2252 4 c-9 -9 -19 -14 -23 -11 -10 10 6 28
24 28 15 0 15 -1 -1 -17z m-1459 -5 c-5 -16 -86 -58 -111 -58 -29 0 -15 22 29
47 43 25 88 31 82 11z m-748 -13 c0 -8 -7 -15 -15 -15 -16 0 -20 12 -8 23 11
12 23 8 23 -8z m1625 -5 c3 -5 1 -10 -4 -10 -6 0 -11 5 -11 10 0 6 2 10 4 10
3 0 8 -4 11 -10z m1060 -29 c-3 -5 -1 -12 4 -16 12 -7 3 -35 -11 -35 -5 0 -8
8 -6 18 1 9 -1 23 -6 30 -4 7 -5 21 -1 30 6 16 7 16 16 -1 6 -9 8 -21 4 -26z
m-3113 -18 c3 -52 -9 -106 -22 -98 -14 9 -7 145 7 145 7 0 13 -19 15 -47z
m463 22 c0 -10 -6 -20 -12 -22 -8 -3 -13 5 -13 22 0 17 5 25 13 23 6 -3 12
-13 12 -23z m368 19 c21 -22 -81 -84 -138 -84 -51 0 -14 38 69 71 46 19 60 22
69 13z m555 -28 c0 -19 3 -40 7 -46 4 -7 -2 -14 -14 -17 -33 -8 -25 -30 20
-59 l41 -26 -7 -61 c-4 -34 -9 -104 -11 -156 -2 -52 -9 -100 -15 -107 -11 -14
-40 -11 -120 11 -30 8 -51 10 -62 3 -16 -9 -16 -11 3 -35 35 -45 28 -56 -37
-49 -32 3 -90 8 -128 11 -39 3 -83 9 -100 13 l-29 8 33 17 c19 9 40 17 48 17
13 0 23 4 81 34 17 10 37 14 42 11 17 -11 40 15 40 46 0 15 5 31 10 34 6 3 10
18 11 33 0 15 3 21 6 15 10 -25 24 -12 54 52 23 48 32 83 33 128 3 70 27 129
59 145 33 16 35 15 35 -22z m608 7 c-10 -10 -19 5 -10 18 6 11 8 11 12 0 2 -7
1 -15 -2 -18z m-1613 -8 c-3 -8 -9 -15 -14 -15 -10 0 -12 24 -3 33 11 11 24
-3 17 -18z m630 1 c7 -18 -36 -59 -115 -107 -59 -37 -98 -49 -98 -31 0 14 63
68 111 95 25 14 51 33 59 41 16 20 36 21 43 2z m407 4 c0 -5 -4 -10 -10 -10
-5 0 -10 5 -10 10 0 6 5 10 10 10 6 0 10 -4 10 -10z m-174 -34 c-11 -6 -28
-19 -38 -29 -31 -30 -82 -57 -105 -57 -35 0 -28 17 20 47 23 15 55 38 70 50
24 19 32 21 50 11 21 -11 21 -12 3 -22z m2590 18 c-3 -9 -6 -20 -6 -25 0 -5
-4 -9 -10 -9 -11 0 -14 33 -3 43 12 13 25 7 19 -9z m-3420 -31 c-11 -11 -19 6
-11 24 8 17 8 17 12 0 3 -10 2 -21 -1 -24z m2764 22 c10 -12 9 -15 -8 -15 -11
0 -22 7 -26 15 -3 9 0 15 8 15 7 0 19 -7 26 -15z m-1103 -1 c-3 -3 -12 -4 -19
-1 -8 3 -5 6 6 6 11 1 17 -2 13 -5z m551 -26 c-6 -18 -28 -21 -28 -4 0 9 7 16
16 16 9 0 14 -5 12 -12z m-2166 -24 c-3 -20 -53 -67 -61 -58 -2 2 5 18 17 34
12 16 22 34 22 40 0 7 6 10 13 7 6 -2 11 -13 9 -23z m-512 2 c0 -8 -4 -18 -10
-21 -5 -3 -10 3 -10 14 0 12 5 21 10 21 6 0 10 -6 10 -14z m430 10 c0 -3 -4
-8 -10 -11 -5 -3 -10 -1 -10 4 0 6 5 11 10 11 6 0 10 -2 10 -4z m424 -10 c-10
-27 -128 -95 -141 -82 -11 10 12 28 75 61 37 19 68 34 69 35 1 0 0 -6 -3 -14z
m1274 -4 c6 -18 -15 -14 -22 4 -4 10 -1 14 6 12 6 -2 14 -10 16 -16z m-1439
-6 c10 -12 9 -17 -6 -24 -17 -9 -55 -16 -78 -13 -13 1 46 50 61 51 6 0 17 -6
23 -14z m398 -4 c-9 -10 -14 -27 -11 -38 7 -25 -25 -49 -90 -66 -33 -9 -49 -9
-57 -1 -12 12 29 47 110 95 54 32 71 35 48 10z m2166 -8 c-6 -17 -44 -15 -50
3 -2 6 6 13 19 15 30 5 38 1 31 -18z m-2837 -21 c-10 -10 -19 5 -10 18 6 11 8
11 12 0 2 -7 1 -15 -2 -18z m3520 3 c9 -38 1 -81 -16 -81 -9 0 -14 7 -12 18 2
9 -2 17 -8 17 -5 0 -10 -9 -10 -20 0 -21 -14 -27 -25 -11 -3 5 9 21 27 35 26
20 30 28 20 38 -16 16 -15 28 3 28 8 0 17 -11 21 -24z m-3553 -6 c-3 -11 -7
-20 -9 -20 -2 0 -4 9 -4 20 0 11 4 20 9 20 5 0 7 -9 4 -20z m917 4 c0 -2 -12
-4 -27 -4 -21 0 -24 3 -14 9 13 8 41 5 41 -5z m559 -13 c6 -10 7 -21 4 -25 -7
-7 -43 23 -43 36 0 16 29 8 39 -11z m-1431 -23 c-4 -27 -28 -36 -28 -10 0 20
8 32 22 32 5 0 8 -10 6 -22z m63 -51 c-17 -17 -23 16 -9 49 l12 29 4 -34 c2
-18 -1 -38 -7 -44z m1524 -1 c5 -38 4 -47 -7 -44 -16 6 -33 80 -24 105 6 15 9
16 15 3 5 -8 12 -37 16 -64z m140 65 c7 -12 -12 -24 -25 -16 -11 7 -4 25 10
25 5 0 11 -4 15 -9z m513 -8 c-4 -22 -22 -20 -26 1 -2 10 3 16 13 16 10 0 15
-7 13 -17z m592 5 c0 -4 -12 -8 -26 -8 -14 0 -23 4 -20 8 2 4 14 8 25 8 12 0
21 -4 21 -8z m-564 -35 c-11 -11 -19 6 -11 24 8 17 8 17 12 0 3 -10 2 -21 -1
-24z m-496 17 c0 -5 -4 -10 -10 -10 -5 0 -10 5 -10 10 0 6 5 10 10 10 6 0 10
-4 10 -10z m-2193 -22 c-3 -8 -6 -5 -6 6 -1 11 2 17 5 13 3 -3 4 -12 1 -19z
m658 2 c0 -17 -68 -45 -89 -37 -20 8 -10 36 18 47 31 13 71 7 71 -10z m141 1
c-3 -4 -18 -11 -33 -14 -16 -3 -50 -20 -76 -38 -26 -17 -51 -29 -54 -25 -9 9
-4 12 73 50 69 35 100 44 90 27z m2404 -51 c8 -41 -3 -61 -22 -42 -6 6 -7 27
-3 52 8 49 15 46 25 -10z m-2782 18 c-4 -27 -28 -36 -28 -10 0 20 8 32 22 32
5 0 8 -10 6 -22z m453 6 c11 -14 10 -18 -5 -29 -22 -17 -156 -58 -163 -51 -11
11 18 33 72 56 30 13 55 27 55 32 0 14 27 9 41 -8z m1779 -9 c0 -8 -4 -15 -10
-15 -5 0 -10 7 -10 15 0 8 5 15 10 15 6 0 10 -7 10 -15z m-2640 -10 c0 -8 -4
-15 -10 -15 -5 0 -10 7 -10 15 0 8 5 15 10 15 6 0 10 -7 10 -15z m2667 -7 c-3
-8 -6 -5 -6 6 -1 11 2 17 5 13 3 -3 4 -12 1 -19z m268 11 c11 -17 -1 -21 -15
-4 -8 9 -8 15 -2 15 6 0 14 -5 17 -11z m988 -5 c9 -10 -4 -34 -19 -34 -8 0
-14 6 -14 13 0 22 19 35 33 21z m-2842 -50 l-9 -39 -1 36 c-1 20 2 39 6 42 12
13 13 0 4 -39z m1074 18 c-3 -8 -1 -19 6 -23 8 -4 8 -12 2 -24 -7 -13 -12 -14
-18 -6 -4 7 -4 15 -1 18 3 4 -2 15 -11 25 -15 16 -15 21 -3 28 19 12 33 2 25
-18z m-1602 -14 c14 -17 23 -37 20 -45 -8 -20 26 -53 54 -53 13 0 45 11 72 25
48 24 49 24 66 5 12 -13 16 -29 12 -47 -3 -18 0 -34 10 -45 12 -14 13 -23 3
-52 -8 -26 -8 -41 0 -56 15 -28 33 -25 74 11 35 30 56 32 56 4 0 -7 -16 -23
-36 -34 -29 -18 -35 -26 -31 -46 2 -14 1 -25 -3 -25 -4 0 -10 -17 -14 -39 -3
-21 -25 -67 -49 -102 -24 -35 -57 -98 -74 -139 -36 -87 -74 -251 -63 -271 5
-8 16 -68 25 -134 9 -66 25 -174 36 -240 23 -147 25 -321 3 -419 -9 -39 -19
-88 -24 -110 -5 -23 -5 -47 1 -60 8 -17 4 -32 -17 -69 -25 -45 -28 -48 -58
-41 -50 10 -51 10 -48 -11 5 -24 19 -35 50 -35 12 0 22 -3 22 -7 0 -25 -107
-251 -181 -384 -59 -105 -63 -109 -95 -109 -36 0 -44 13 -18 28 27 15 35 98
28 285 -4 115 -3 177 4 177 5 0 12 -10 16 -22 4 -18 8 -20 18 -10 6 6 25 12
40 12 36 0 104 61 94 85 -4 12 2 19 24 26 34 12 46 39 30 69 -9 16 -8 25 0 36
7 7 10 23 7 34 -3 13 3 26 19 39 27 21 30 42 13 92 -23 67 -47 67 -29 0 10
-38 9 -44 -17 -76 -15 -19 -36 -35 -45 -35 -24 0 -23 -37 1 -45 18 -5 36 -58
26 -76 -3 -4 -28 -5 -56 -2 -31 4 -58 1 -73 -6 -38 -21 -70 -11 -74 23 -5 44
6 77 25 74 11 -2 23 8 31 25 7 15 18 27 23 27 5 0 21 11 34 24 21 21 23 30 18
83 -6 63 5 85 31 64 20 -16 62 2 69 31 4 13 7 37 7 53 0 17 7 41 15 55 22 38
19 103 -5 125 -20 18 -20 18 5 41 19 18 23 28 16 46 -4 13 -18 27 -29 33 -15
6 -22 19 -22 36 0 33 -22 53 -50 44 -18 -6 -20 -2 -20 29 0 87 -74 44 -101
-59 -6 -22 -7 -17 -4 20 7 70 13 174 25 430 6 121 15 240 20 265 8 44 23 196
36 388 7 103 16 113 57 60z m1354 14 c-10 -10 -17 -24 -17 -31 0 -7 -4 -9 -10
-6 -5 3 -10 15 -10 25 0 18 12 28 39 29 11 1 11 -3 -2 -17z m-1497 -6 c0 -18
-26 -40 -34 -27 -9 14 4 41 20 41 8 0 14 -6 14 -14z m-415 -16 c3 -5 1 -10 -4
-10 -6 0 -11 5 -11 10 0 6 2 10 4 10 3 0 8 -4 11 -10z m2645 0 c0 -5 -7 -10
-15 -10 -8 0 -15 5 -15 10 0 6 7 10 15 10 8 0 15 -4 15 -10z m433 3 c3 -5 8
-27 12 -50 6 -36 4 -43 -10 -43 -13 0 -15 6 -10 29 5 24 2 32 -14 41 -12 6
-21 15 -21 20 0 12 37 13 43 3z m-2073 -32 c0 -9 -7 -26 -15 -37 -14 -18 -14
-18 -15 8 0 34 10 59 21 52 5 -3 9 -13 9 -23z m-618 -32 c-5 -36 -22 -48 -28
-21 -4 12 -10 22 -15 22 -10 0 -12 34 -2 43 13 14 48 -20 45 -44z m288 16 c0
-10 -10 -15 -30 -15 -33 0 -35 2 -20 31 9 15 15 17 30 9 11 -6 20 -17 20 -25z
m-250 4 c0 -11 -4 -17 -10 -14 -5 3 -10 13 -10 21 0 8 5 14 10 14 6 0 10 -9
10 -21z m3496 -6 c-10 -10 -19 5 -10 18 6 11 8 11 12 0 2 -7 1 -15 -2 -18z
m-3920 -20 c-11 -11 -19 6 -11 24 8 17 8 17 12 0 3 -10 2 -21 -1 -24z m3204
16 c0 -6 -4 -7 -10 -4 -5 3 -10 11 -10 16 0 6 5 7 10 4 6 -3 10 -11 10 -16z
m-556 -5 c9 -3 16 -16 16 -29 0 -18 -4 -21 -25 -17 -24 4 -34 30 -18 45 8 8 8
8 27 1z m334 -21 c-4 -22 -22 -20 -26 1 -2 10 3 16 13 16 10 0 15 -7 13 -17z
m-2987 -46 c-8 -8 -11 -7 -11 4 0 20 13 34 18 19 3 -7 -1 -17 -7 -23z m3187
-23 c7 -23 12 -57 12 -77 0 -20 7 -66 16 -103 8 -37 14 -89 13 -115 -2 -26 2
-54 9 -61 6 -8 15 -43 19 -78 l8 -65 38 -3 c41 -4 51 -22 12 -22 -15 0 -36
-11 -50 -25 l-23 -26 -6 28 c-3 15 -8 57 -11 93 -4 36 -11 81 -15 100 -5 19
-12 78 -15 130 -4 52 -11 108 -16 123 -5 16 -12 59 -15 95 -7 73 4 76 24 6z
m-2841 -6 c-2 -13 -4 -5 -4 17 -1 22 1 32 4 23 2 -10 2 -28 0 -40z m571 40
c22 -22 13 -46 -29 -67 -22 -12 -39 -18 -37 -14 43 98 45 102 66 81z m-533 -7
c3 -5 1 -12 -5 -16 -5 -3 -10 1 -10 9 0 18 6 21 15 7z m85 -22 c0 -10 -4 -19
-10 -19 -5 0 -10 12 -10 26 0 14 4 23 10 19 6 -3 10 -15 10 -26z m2819 -23
c16 -64 14 -75 -9 -69 -22 6 -26 23 -8 41 9 9 8 16 -5 30 -10 11 -15 26 -11
35 9 25 20 12 33 -37z m-1079 34 c0 -5 -7 -10 -16 -10 -8 0 -12 5 -9 10 3 6
10 10 16 10 5 0 9 -4 9 -10z m451 -10 c5 0 9 -4 9 -10 0 -14 -43 -6 -48 10 -3
9 1 11 12 7 10 -4 22 -7 27 -7z m-2651 -24 c0 -8 -4 -18 -10 -21 -5 -3 -10 3
-10 14 0 12 5 21 10 21 6 0 10 -6 10 -14z m2404 -12 c5 -14 4 -15 -9 -4 -17
14 -19 20 -6 20 5 0 12 -7 15 -16z m816 1 c0 -8 -4 -15 -10 -15 -5 0 -10 7
-10 15 0 8 5 15 10 15 6 0 10 -7 10 -15z m-1006 -10 c-4 -8 -10 -15 -15 -15
-5 0 -9 7 -9 15 0 8 7 15 15 15 9 0 12 -6 9 -15z m1711 -4 c3 -5 1 -12 -5 -16
-5 -3 -10 1 -10 9 0 18 6 21 15 7z m-1295 -11 c0 -5 -4 -10 -9 -10 -6 0 -13 5
-16 10 -3 6 1 10 9 10 9 0 16 -4 16 -10z m-2224 -27 c-10 -10 -19 5 -10 18 6
11 8 11 12 0 2 -7 1 -15 -2 -18z m50 -10 c-7 -17 -8 -17 -17 0 -12 21 -2 44
13 29 6 -6 8 -19 4 -29z m-456 13 c0 -8 -4 -17 -9 -21 -12 -7 -24 12 -16 25 9
15 25 12 25 -4z m380 -10 c0 -14 -5 -28 -11 -31 -15 -10 -18 -4 -12 28 7 34
23 36 23 3z m3520 -6 c0 -11 -2 -20 -4 -20 -2 0 -6 9 -9 20 -3 11 -1 20 4 20
5 0 9 -9 9 -20z m-1740 -5 c0 -8 -4 -15 -10 -15 -5 0 -10 7 -10 15 0 8 5 15
10 15 6 0 10 -7 10 -15z m454 5 c34 -13 33 -32 -1 -28 -17 2 -29 10 -31 21 -4
20 -2 20 32 7z m626 -10 c0 -5 -4 -10 -10 -10 -5 0 -10 5 -10 10 0 6 5 10 10
10 6 0 10 -4 10 -10z m-2913 -32 c-3 -8 -6 -5 -6 6 -1 11 2 17 5 13 3 -3 4
-12 1 -19z m-327 4 c0 -13 -12 -22 -22 -16 -10 6 -1 24 13 24 5 0 9 -4 9 -8z
m445 -149 c-6 -41 -17 -54 -29 -34 -10 15 -44 1 -61 -25 -8 -13 -22 -24 -31
-24 -8 0 -12 -5 -9 -10 5 -8 11 -8 20 0 10 8 15 8 20 0 8 -13 -12 -40 -31 -40
-8 0 -14 -10 -14 -25 0 -18 4 -23 15 -19 9 4 15 0 15 -10 0 -9 -6 -16 -14 -16
-16 0 -31 -34 -22 -49 3 -4 1 -36 -5 -70 -10 -53 -9 -64 5 -80 20 -22 21 -41
1 -41 -19 0 -20 -16 -2 -23 14 -5 16 -81 3 -94 -3 -4 -6 -17 -6 -30 0 -26 -20
-32 -21 -5 -5 124 1 314 16 447 2 17 7 68 11 113 5 56 12 86 20 89 8 3 14 9
14 14 0 4 -7 6 -15 3 -17 -7 -20 22 -5 46 9 13 10 13 10 0 1 -12 4 -11 15 4
14 18 41 14 29 -5 -3 -5 -7 -39 -9 -75 -3 -60 -2 -64 11 -45 8 11 21 18 29 15
20 -8 27 15 16 51 -5 17 -10 22 -10 13 -2 -31 -21 -19 -21 12 0 19 5 30 14 30
7 0 20 7 27 17 12 14 14 10 17 -38 2 -30 1 -73 -3 -96z m1785 143 c0 -3 -4 -8
-10 -11 -5 -3 -10 -1 -10 4 0 6 5 11 10 11 6 0 10 -2 10 -4z m405 -26 c0 -22
-29 -18 -33 3 -3 14 1 18 15 15 10 -2 18 -10 18 -18z m1355 -1 c0 -5 -4 -9
-10 -9 -5 0 -10 7 -10 16 0 8 5 12 10 9 6 -3 10 -10 10 -16z m-750 1 c0 -5 -4
-10 -10 -10 -5 0 -10 5 -10 10 0 6 5 10 10 10 6 0 10 -4 10 -10z m-3230 -44
c0 -8 -4 -17 -9 -21 -12 -7 -24 12 -16 25 9 15 25 12 25 -4z m2620 -19 c0 -8
-3 -17 -7 -20 -9 -9 -34 13 -27 24 8 14 34 11 34 -4z m1291 -20 c-13 -13 -26
-3 -16 12 3 6 11 8 17 5 6 -4 6 -10 -1 -17z m-1675 -14 c-10 -10 -19 5 -10 18
6 11 8 11 12 0 2 -7 1 -15 -2 -18z m1284 12 c-12 -15 -30 -12 -30 6 0 5 10 9
21 9 18 0 19 -2 9 -15z m-3510 -23 c0 -21 -27 -62 -41 -62 -14 0 -11 29 8 60
17 30 33 31 33 2z m3240 9 c0 -6 -4 -13 -10 -16 -5 -3 -10 1 -10 9 0 9 5 16
10 16 6 0 10 -4 10 -9z m730 -25 c0 -3 -4 -8 -10 -11 -5 -3 -10 -1 -10 4 0 6
5 11 10 11 6 0 10 -2 10 -4z m-1720 -20 c0 -11 -19 -15 -25 -6 -3 5 1 10 9 10
9 0 16 -2 16 -4z m1721 -34 c-6 -11 -6 -24 0 -34 6 -11 6 -19 -1 -23 -5 -3
-10 3 -10 14 0 14 -5 19 -15 15 -20 -8 -19 5 3 27 22 23 35 24 23 1z m-3981
-19 c0 -28 -17 -50 -29 -38 -8 8 -6 18 5 33 18 27 24 28 24 5z m2516 -15 c-3
-13 -8 -61 -11 -107 -6 -74 -5 -83 9 -78 12 5 16 0 16 -17 0 -13 -6 -26 -14
-29 -9 -4 -15 -25 -18 -61 -2 -42 0 -55 10 -51 8 3 12 -6 12 -26 0 -17 -6 -32
-15 -35 -8 -4 -15 -10 -15 -15 0 -5 7 -9 15 -9 9 0 15 -10 15 -26 0 -19 4 -25
15 -20 8 3 15 1 15 -4 0 -6 -7 -10 -16 -10 -12 0 -14 -9 -12 -42 3 -40 5 -43
33 -43 17 0 31 -4 32 -10 2 -5 -6 -10 -17 -10 -31 0 -27 -19 6 -25 26 -5 25
-6 -16 -12 -25 -4 -53 -10 -62 -13 -20 -8 -43 29 -33 53 5 14 9 13 21 -8 13
-24 14 -22 12 28 -1 41 -4 52 -15 47 -12 -4 -14 23 -10 178 5 175 19 336 32
357 10 17 16 11 11 -12z m-2110 -34 c-7 -18 -36 -18 -36 0 0 8 8 22 18 32 16
17 17 17 20 0 2 -9 1 -24 -2 -32z m2929 -31 c-5 -28 -10 -33 -35 -33 -17 0
-30 5 -30 11 0 7 9 9 21 6 18 -5 20 -2 15 18 -3 13 -1 36 5 52 l11 28 10 -25
c5 -14 7 -40 3 -57z m-3339 -79 c-8 -20 -46 4 -46 29 0 19 20 58 35 69 11 8
20 -75 11 -98z m2303 77 c8 -14 7 -22 -5 -32 -14 -11 -15 -10 -13 6 2 11 0 26
-4 33 -5 6 -4 12 2 12 6 0 15 -9 20 -19z m1665 5 c-3 -8 -1 -17 5 -21 6 -3 11
-1 11 5 0 6 4 9 10 5 5 -3 1 -14 -10 -25 -25 -25 -34 -25 -27 0 3 11 1 23 -4
26 -14 8 -11 24 6 24 8 0 12 -6 9 -14z m-1354 -10 c0 -3 -4 -8 -10 -11 -5 -3
-10 -1 -10 4 0 6 5 11 10 11 6 0 10 -2 10 -4z m-2210 -36 c0 -13 -7 -20 -19
-20 -22 0 -35 15 -26 30 12 19 45 11 45 -10z m2150 13 c0 -14 -19 -38 -25 -32
-8 8 5 39 16 39 5 0 9 -3 9 -7z m1452 -55 c-9 -9 -12 -7 -12 12 0 19 3 21 12
12 9 -9 9 -15 0 -24z m-1744 0 c-6 -18 -28 -21 -28 -4 0 9 7 16 16 16 9 0 14
-5 12 -12z m-1882 -58 c11 0 12 -5 6 -17 -5 -10 -7 -24 -5 -30 3 -8 -5 -13
-21 -13 -25 0 -36 22 -17 34 5 3 7 15 4 26 -3 11 -2 28 3 37 6 15 8 13 12 -9
2 -16 10 -28 18 -28z m1934 30 c0 -5 -8 -10 -17 -10 -15 0 -16 2 -3 10 19 12
20 12 20 0z m980 -11 c0 -5 -7 -9 -15 -9 -8 0 -15 7 -15 15 0 9 6 12 15 9 8
-4 15 -10 15 -15z m40 1 c0 -5 -4 -10 -9 -10 -6 0 -13 5 -16 10 -3 6 1 10 9
10 9 0 16 -4 16 -10z m690 -25 c0 -15 -18 -30 -27 -22 -2 3 -2 15 2 26 7 23
25 19 25 -4z m-1430 7 c0 -13 -12 -22 -22 -16 -10 6 -1 24 13 24 5 0 9 -4 9
-8z m1340 -28 c0 -31 -23 -28 -28 4 -2 15 2 22 12 22 11 0 16 -9 16 -26z
m-675 -124 c7 -103 15 -147 31 -186 8 -18 14 -45 14 -60 0 -14 9 -38 21 -52
18 -23 19 -27 5 -30 -9 -2 -16 -10 -16 -18 0 -8 -5 -14 -11 -14 -7 0 -9 9 -6
22 4 12 0 29 -7 38 -13 14 -17 33 -30 140 -2 19 -9 67 -15 105 -6 39 -10 97
-10 130 1 52 2 56 10 30 5 -16 11 -64 14 -105z m37 115 c0 -5 -5 -11 -11 -13
-6 -2 -11 4 -11 13 0 9 5 15 11 13 6 -2 11 -8 11 -13z m48 -5 c0 -5 -4 -10
-10 -10 -5 0 -10 5 -10 10 0 6 5 10 10 10 6 0 10 -4 10 -10z m-810 -25 c0 -14
-4 -25 -10 -25 -11 0 -14 33 -3 43 11 11 13 8 13 -18z m1486 -32 c-11 -11 -19
6 -11 24 8 17 8 17 12 0 3 -10 2 -21 -1 -24z m-86 -17 c0 -27 -15 -42 -25 -26
-8 13 3 50 16 50 5 0 9 -11 9 -24z m-1360 0 c0 -15 -18 -31 -26 -23 -7 7 7 37
17 37 5 0 9 -6 9 -14z m-2210 -31 c-16 -19 -30 -19 -30 0 0 17 33 38 38 24 2
-5 -2 -16 -8 -24z m1955 15 c-3 -5 -10 -10 -16 -10 -5 0 -9 5 -9 10 0 6 7 10
16 10 8 0 12 -4 9 -10z m1715 -31 c0 -11 -4 -17 -10 -14 -5 3 -10 15 -10 26 0
11 5 17 10 14 6 -3 10 -15 10 -26z m-1670 1 c0 -5 -2 -10 -4 -10 -3 0 -8 5
-11 10 -3 6 -1 10 4 10 6 0 11 -4 11 -10z m1578 -22 c-4 -27 -28 -36 -28 -10
0 20 8 32 22 32 5 0 8 -10 6 -22z m-578 3 c0 -6 -4 -13 -10 -16 -5 -3 -10 1
-10 9 0 9 5 16 10 16 6 0 10 -4 10 -9z m-994 -38 c-10 -10 -19 5 -10 18 6 11
8 11 12 0 2 -7 1 -15 -2 -18z m1624 17 c0 -5 -2 -10 -4 -10 -3 0 -8 5 -11 10
-3 6 -1 10 4 10 6 0 11 -4 11 -10z m-3630 -19 c0 -4 -3 -11 -7 -14 -8 -9 -34
13 -28 24 6 9 35 1 35 -10z m2200 10 c0 -6 -4 -13 -10 -16 -5 -3 -10 1 -10 9
0 9 5 16 10 16 6 0 10 -4 10 -9z m40 -11 c0 -5 -4 -10 -10 -10 -5 0 -10 5 -10
10 0 6 5 10 10 10 6 0 10 -4 10 -10z m1350 -45 c0 -24 -5 -35 -14 -35 -22 0
-27 15 -16 44 14 37 30 32 30 -9z m-3610 -5 c0 -5 -5 -10 -11 -10 -5 0 -7 5
-4 10 3 6 8 10 11 10 2 0 4 -4 4 -10z m1990 0 c0 -5 -4 -10 -10 -10 -5 0 -10
5 -10 10 0 6 5 10 10 10 6 0 10 -4 10 -10z m50 0 c0 -5 -2 -10 -4 -10 -3 0 -8
5 -11 10 -3 6 -1 10 4 10 6 0 11 -4 11 -10z m220 -4 c0 -8 -4 -17 -9 -21 -12
-7 -24 12 -16 25 9 15 25 12 25 -4z m-2600 -22 c0 -14 -4 -23 -10 -19 -5 3
-10 15 -10 26 0 10 5 19 10 19 6 0 10 -12 10 -26z m3323 -13 c-3 -10 0 -22 6
-25 13 -9 15 -26 2 -26 -11 0 -24 48 -16 60 10 16 14 11 8 -9z m664 -43 c-1
-48 6 -79 27 -128 24 -54 27 -73 22 -117 -9 -79 4 -93 82 -93 34 0 70 -5 80
-11 14 -9 28 -7 65 9 26 12 47 26 47 31 0 40 97 201 121 201 17 0 19 -43 4
-136 -20 -120 -41 -187 -66 -210 -10 -9 -19 -28 -19 -41 0 -31 -11 -29 -97 12
-84 42 -210 61 -330 51 -78 -6 -94 1 -63 29 26 23 26 61 0 75 -23 12 -26 52
-9 97 6 15 11 46 11 68 1 52 10 75 46 115 17 18 38 50 48 71 9 22 20 39 24 39
4 0 7 -28 7 -62z m-116 2 c19 -11 18 -12 -10 -53 -22 -33 -29 -54 -29 -88 1
-25 -7 -59 -17 -79 -10 -19 -21 -51 -24 -70 -5 -25 -18 -43 -51 -68 -25 -19
-55 -51 -67 -72 -13 -21 -36 -43 -51 -49 -16 -7 -35 -23 -42 -37 -12 -21 -11
-30 5 -62 14 -27 18 -53 15 -97 -5 -82 -6 -119 -8 -362 -1 -129 -6 -213 -12
-213 -33 0 -50 107 -39 249 5 62 4 109 -1 116 -5 6 -10 42 -12 80 -2 54 -7 70
-19 73 -13 2 -18 -22 -28 -172 -12 -163 -10 -238 9 -276 4 -8 20 -41 35 -74
16 -35 35 -60 46 -63 22 -6 34 -42 25 -78 -5 -19 -13 -25 -35 -25 -42 0 -90
-20 -102 -42 -12 -22 3 -50 48 -93 33 -30 22 -34 -14 -5 -14 11 -41 23 -62 26
-71 13 -361 146 -411 187 -17 15 -41 27 -52 27 -22 0 -256 118 -297 149 l-25
19 32 36 c18 20 32 41 32 46 0 5 11 21 25 36 38 41 85 128 85 157 0 33 94 215
165 318 30 44 55 86 55 93 0 28 288 293 370 341 10 6 24 15 31 21 15 11 117
53 184 74 22 8 67 15 100 17 33 1 74 7 90 12 17 5 31 10 33 10 2 1 12 -4 23
-9z m-3834 -55 c-2 -5 -15 -10 -28 -10 -20 0 -25 6 -27 33 l-3 34 30 -23 c17
-13 30 -28 28 -34z m451 38 c-4 -22 -22 -20 -26 1 -2 10 3 16 13 16 10 0 15
-7 13 -17z m-198 -3 c0 -5 -7 -10 -16 -10 -8 0 -12 5 -9 10 3 6 10 10 16 10 5
0 9 -4 9 -10z m-320 -13 c0 -8 -9 -22 -20 -32 -19 -18 -20 -17 -20 1 0 20 17
44 32 44 4 0 8 -6 8 -13z m2450 -18 c0 -12 -5 -19 -11 -17 -6 2 -10 7 -10 11
1 4 1 14 1 23 0 8 5 12 10 9 6 -3 10 -15 10 -26z m-2153 -16 c12 -27 14 -38 5
-41 -17 -5 -15 -52 3 -58 33 -13 -1 -54 -46 -54 -5 0 -9 43 -9 95 0 76 3 95
15 95 8 0 22 -17 32 -37z m63 22 c0 -8 -4 -15 -10 -15 -5 0 -10 7 -10 15 0 8
5 15 10 15 6 0 10 -7 10 -15z m3068 -37 c-6 -18 -28 -21 -28 -4 0 9 7 16 16
16 9 0 14 -5 12 -12z m-3410 -10 c7 -7 20 -13 30 -13 25 0 21 -26 -6 -36 -20
-7 -25 -5 -29 11 -3 11 -12 20 -19 20 -15 0 -19 12 -7 23 9 10 17 9 31 -5z
m342 -7 c0 -6 -4 -13 -10 -16 -5 -3 -10 1 -10 9 0 9 5 16 10 16 6 0 10 -4 10
-9z m2221 -32 c19 -10 18 -12 -23 -38 -51 -33 -72 -56 -63 -71 8 -13 42 -13
50 0 9 14 86 3 104 -15 22 -21 7 -29 -30 -16 -66 23 -112 6 -121 -44 -3 -17 4
-21 51 -25 60 -5 85 -30 31 -30 -38 0 -110 -35 -110 -55 0 -10 16 -15 58 -17
57 -3 57 -3 32 -19 -16 -11 -38 -15 -62 -12 -34 5 -37 8 -43 44 -4 21 -10 39
-15 39 -5 0 -15 3 -23 6 -10 3 -18 -2 -22 -15 -10 -33 -32 -24 -42 17 -7 30
-13 37 -33 37 -36 0 -36 28 0 43 16 8 39 28 51 45 28 41 108 117 134 128 28
11 53 11 76 -2z m-181 -24 c-23 -25 -40 -32 -40 -17 0 7 49 41 59 42 3 0 -6
-11 -19 -25z m-2400 -10 c0 -8 -4 -15 -10 -15 -5 0 -10 7 -10 15 0 8 5 15 10
15 6 0 10 -7 10 -15z m2668 3 c15 -15 16 -41 0 -36 -13 5 -31 48 -20 48 5 0
13 -5 20 -12z m-2906 -36 c-4 -34 8 -41 28 -17 19 22 32 18 19 -6 -14 -27 4
-50 23 -31 12 12 48 17 48 7 0 -12 -56 -54 -80 -60 -14 -4 -35 -16 -47 -27
-19 -18 -25 -19 -38 -8 -31 25 -35 46 -21 88 31 86 75 121 68 54z m195 -34
c-2 -13 -4 -5 -4 17 -1 22 1 32 4 23 2 -10 2 -28 0 -40z m109 36 c-3 -9 -6
-18 -6 -20 0 -2 -7 -4 -15 -4 -13 0 -14 4 -5 20 13 24 35 27 26 4z m274 -54
c0 -8 -60 -30 -82 -30 -13 0 -9 28 5 33 22 9 77 7 77 -3z m1216 -25 c-22 -17
-15 -61 12 -69 9 -3 22 -14 29 -25 11 -17 8 -23 -23 -46 -59 -45 -114 -108
-114 -130 0 -43 46 -59 86 -30 19 13 22 12 32 -10 22 -49 102 -21 102 35 0 41
20 59 75 66 28 4 61 13 73 21 39 24 38 29 7 -202 -1 -11 -3 -30 -4 -42 -1 -18
-14 -26 -78 -47 -43 -13 -98 -33 -123 -44 -72 -31 -144 -37 -193 -17 -66 27
-71 30 -91 64 -18 31 -18 31 8 66 14 18 26 45 26 59 0 14 20 85 44 158 42 124
48 136 92 175 26 23 50 40 53 37 3 -3 -2 -12 -13 -19z m-1586 -15 c19 0 20
-52 1 -78 -19 -28 -19 -73 1 -98 5 -7 4 -22 -3 -37 -9 -20 -8 -29 5 -49 15
-23 15 -27 -3 -50 -12 -15 -16 -29 -11 -38 5 -8 2 -22 -6 -36 -17 -26 -5 -40
23 -25 47 24 81 35 111 37 61 2 36 -17 -60 -46 -39 -12 -50 -33 -23 -44 8 -3
33 1 56 9 58 21 71 19 67 -7 -2 -17 -10 -23 -28 -24 -42 -2 -100 -25 -100 -39
0 -23 14 -25 65 -10 27 8 51 13 54 10 11 -11 -16 -40 -40 -43 -51 -6 -69 -13
-69 -28 0 -12 9 -14 45 -11 25 3 45 1 45 -4 0 -5 -12 -9 -27 -9 -40 0 -51 -11
-72 -66 -16 -43 -53 -82 -91 -96 -5 -2 -10 -16 -12 -33 -2 -24 1 -30 15 -29
12 1 17 -6 17 -27 0 -51 -39 -26 -70 44 -11 25 -25 49 -30 52 -24 15 -8 64 81
260 20 46 23 67 26 245 3 191 12 322 20 288 3 -10 8 -18 13 -18z m98 -8 c2
-23 -2 -33 -18 -42 l-22 -12 22 -23 21 -23 -22 -21 c-33 -31 -54 -28 -33 4 13
20 14 28 4 40 -7 9 -9 22 -5 32 5 10 7 26 6 36 -3 22 18 49 33 44 6 -2 12 -18
14 -35z m147 19 c-3 -6 -11 -11 -17 -11 -6 0 -6 6 2 15 14 17 26 13 15 -4z
m165 9 c0 -5 -4 -10 -10 -10 -5 0 -10 5 -10 10 0 6 5 10 10 10 6 0 10 -4 10
-10z m-482 -145 c-1 -63 -5 -115 -9 -115 -5 0 -16 14 -25 31 -12 25 -13 37 -5
58 7 14 13 53 15 86 5 73 4 67 16 60 6 -3 9 -54 8 -120z m432 104 c0 -12 -69
-44 -117 -54 -26 -5 -33 -3 -33 9 0 19 11 26 69 41 58 17 81 18 81 4z m298
-11 c-2 -6 -10 -14 -16 -16 -7 -2 -10 2 -6 12 7 18 28 22 22 4z m-973 -9 c4
-6 -2 -13 -14 -16 -25 -6 -26 -11 -4 -35 9 -10 30 -18 49 -18 40 0 114 -47
114 -72 0 -10 -10 -28 -21 -39 l-22 -22 6 24 c4 16 -2 33 -17 53 l-23 28 -22
-23 c-20 -22 -21 -22 -35 -4 -13 18 -14 18 -25 -3 -15 -28 -84 -62 -111 -55
-19 5 -21 12 -18 86 l3 81 50 12 c66 15 83 16 90 3z m2575 -12 c0 -17 -9 -27
-35 -37 -28 -11 -35 -19 -35 -40 0 -14 4 -30 9 -35 5 -6 12 -41 15 -80 3 -38
9 -103 12 -142 8 -88 8 -87 -4 -91 -5 -1 -7 9 -5 23 4 16 1 25 -7 25 -22 0
-70 -41 -70 -59 0 -20 -27 -48 -37 -38 -3 4 -9 38 -12 76 -4 39 -10 73 -14 77
-13 14 -57 -15 -58 -38 -2 -30 -2 -24 6 -95 6 -55 5 -63 -10 -63 -14 0 -16 11
-12 99 4 76 2 104 -9 118 -13 17 -15 17 -37 -9 l-23 -28 7 58 c21 177 26 187
134 245 81 43 114 55 153 56 27 1 32 -3 32 -22z m-2375 4 c3 -5 -5 -17 -17
-25 -21 -15 -21 -16 -3 -36 15 -16 15 -20 3 -20 -19 0 -67 51 -52 57 6 2 20
10 30 18 23 17 31 18 39 6z m465 -41 c0 -14 -29 -26 -78 -34 -57 -9 -47 9 16
28 58 18 62 18 62 6z m106 -46 c-9 -34 -28 -31 -20 4 3 15 8 34 11 42 9 23 16
-16 9 -46z m2574 36 c0 -10 -7 -12 -120 -29 -41 -7 -90 -21 -109 -32 -39 -23
-52 -18 -26 11 24 26 70 40 150 44 36 2 69 7 72 10 10 10 33 7 33 -4z m790 -5
c-7 -9 -15 -13 -17 -11 -7 7 7 26 19 26 6 0 6 -6 -2 -15z m-1528 -47 c-7 -7
-12 -8 -12 -2 0 6 3 14 7 17 3 4 9 5 12 2 2 -3 -1 -11 -7 -17z m-640 -10 c-7
-7 -12 -8 -12 -2 0 14 12 26 19 19 2 -3 -1 -11 -7 -17z m-1432 2 c0 -5 -4 -10
-10 -10 -5 0 -10 5 -10 10 0 6 5 10 10 10 6 0 10 -4 10 -10z m395 -11 c0 -7
-8 -15 -17 -17 -18 -3 -25 18 -11 32 10 10 28 1 28 -15z m-290 1 c-7 -11 -77
-32 -83 -25 -3 2 1 11 8 20 13 16 85 22 75 5z m-185 -47 c0 -10 -5 -25 -10
-33 -7 -11 -10 -7 -10 18 0 17 5 32 10 32 6 0 10 -8 10 -17z m-50 3 c0 -3 -4
-8 -10 -11 -5 -3 -10 -1 -10 4 0 6 5 11 10 11 6 0 10 -2 10 -4z m234 -13 c-4
-10 -7 -31 -7 -47 0 -16 -9 -38 -19 -48 -12 -12 -18 -28 -15 -39 3 -10 0 -22
-6 -26 -14 -8 -1 145 14 163 17 21 43 18 33 -3z m3796 -3 c-20 -13 -110 -13
-110 0 0 6 27 10 63 10 44 0 58 -3 47 -10z m-4390 -20 c25 -25 44 -70 30 -70
-6 0 -10 6 -10 14 0 28 -27 38 -58 22 -47 -24 -49 -67 -4 -118 22 -26 39 -22
46 12 9 46 32 37 45 -17 12 -50 10 -208 -3 -221 -4 -4 -38 -12 -74 -18 -59
-10 -70 -9 -92 6 -14 10 -34 19 -45 22 -19 3 -20 11 -20 108 1 58 4 114 9 125
8 19 8 19 17 -2 11 -30 23 -29 44 3 21 33 6 54 -41 54 -24 0 -34 5 -34 15 0
21 27 30 45 15 19 -15 47 4 38 26 -3 9 2 14 15 14 11 0 25 7 32 15 17 21 36
19 60 -5z m2840 9 c0 -5 -6 -9 -14 -9 -21 0 -30 -19 -17 -34 9 -10 8 -15 -4
-20 -8 -3 -15 -12 -15 -20 0 -19 -21 -66 -30 -66 -3 0 -6 30 -6 66 1 51 5 69
19 79 20 14 67 17 67 4z m1670 -5 c0 -2 -7 -4 -15 -4 -8 0 -15 4 -15 10 0 5 7
7 15 4 8 -4 15 -8 15 -10z m-1556 -9 c-4 -8 -11 -15 -16 -15 -6 0 -5 6 2 15 7
8 14 15 16 15 2 0 1 -7 -2 -15z m1016 -10 c0 -8 -4 -15 -10 -15 -5 0 -10 7
-10 15 0 8 5 15 10 15 6 0 10 -7 10 -15z m626 -12 c61 -30 75 -51 16 -25 -43
19 -91 51 -79 51 5 1 33 -11 63 -26z m-94 -6 c62 -19 133 -61 153 -89 8 -13
15 -39 15 -59 0 -49 18 -97 41 -110 10 -5 19 -15 19 -22 0 -19 -60 -98 -74
-96 -27 3 -36 -2 -36 -22 0 -11 -9 -34 -21 -50 -25 -35 -78 -186 -88 -249 -8
-51 -2 -50 -111 -20 -104 28 -242 31 -293 6 -21 -10 -41 -16 -44 -12 -7 7 -9
492 -4 619 l4 68 40 20 c70 36 308 46 399 16z m-3842 -7 c0 -13 -7 -20 -20
-20 -23 0 -26 10 -8 28 18 18 28 15 28 -8z m-340 0 c0 -5 -5 -10 -11 -10 -5 0
-7 5 -4 10 3 6 8 10 11 10 2 0 4 -4 4 -10z m2375 -67 c13 -43 15 -76 10 -140
l-7 -84 -25 23 c-14 13 -22 30 -19 41 7 30 -13 85 -40 106 -21 16 -25 27 -22
58 3 35 5 38 36 39 18 1 35 4 39 8 10 10 11 9 28 -51z m-2695 13 c0 -8 -4 -17
-9 -21 -12 -7 -24 12 -16 25 9 15 25 12 25 -4z m593 -52 c-4 -10 -9 -12 -15
-6 -12 12 -1 35 12 27 5 -3 6 -13 3 -21z m2412 -2 c-8 -8 -25 10 -19 20 4 6 9
5 15 -3 4 -7 6 -15 4 -17z m-2806 6 c0 -7 -4 -22 -8 -33 -8 -19 -8 -19 -15 2
-8 24 -1 43 15 43 5 0 9 -6 8 -12z m463 -40 c-5 -5 -20 -4 -38 3 l-29 11 35
17 c34 16 35 16 38 -2 2 -11 0 -23 -6 -29z m2279 -38 c7 -19 12 -55 11 -79 -1
-28 5 -53 17 -70 20 -29 55 -131 47 -138 -10 -10 -27 10 -47 58 -20 47 -24 50
-50 44 -23 -5 -29 -3 -29 10 0 9 4 14 9 11 12 -8 34 21 26 34 -4 6 -13 9 -20
8 -8 -2 -14 2 -14 7 0 6 9 10 22 10 32 0 37 63 7 90 -15 13 -20 30 -19 64 l0
46 13 -30 c7 -16 19 -46 27 -65z m-2387 -17 c-2 -43 -6 -114 -8 -159 -2 -44
-8 -90 -14 -101 -6 -11 -8 -24 -4 -28 4 -3 8 -66 8 -138 2 -222 0 -208 29
-201 21 5 25 3 25 -16 0 -20 -4 -22 -37 -17 -50 8 -70 29 -56 59 6 14 8 63 4
123 -3 55 -3 123 1 150 3 28 11 113 17 190 6 77 14 157 17 178 11 66 23 40 18
-40z m2023 4 c-3 -8 -20 -18 -38 -22 -19 -4 -33 -15 -36 -26 -4 -15 -11 -18
-27 -13 -27 8 -29 11 -21 23 3 6 16 11 29 11 12 0 35 14 51 30 29 30 54 28 42
-3z m-366 -65 c-8 -35 -9 -33 -9 23 -1 46 1 55 8 37 6 -13 6 -38 1 -60z m899
43 c0 -13 -4 -27 -10 -30 -6 -4 -10 8 -10 30 0 22 4 34 10 30 6 -3 10 -17 10
-30z m-348 -59 c-1 -37 2 -74 7 -83 6 -12 4 -24 -6 -40 -12 -18 -13 -26 -3
-37 8 -11 8 -20 1 -35 -13 -24 -14 -31 -2 -31 5 0 12 10 15 23 6 20 7 21 17 4
7 -13 6 -31 -4 -67 -9 -32 -11 -52 -5 -56 5 -3 7 -17 3 -31 -3 -14 -1 -30 4
-37 6 -7 6 -17 0 -26 -8 -13 -12 -12 -24 5 -14 18 -15 17 -13 -16 3 -30 6 -35
23 -31 17 5 18 3 7 -10 -7 -9 -10 -23 -6 -32 7 -19 21 -21 27 -3 12 33 21 -29
18 -122 -2 -63 -12 -44 -12 23 0 65 -11 78 -29 36 -7 -17 -18 -30 -25 -30 -7
0 -15 -10 -19 -22 -9 -34 -7 -78 3 -78 14 0 19 23 9 43 -5 11 -5 17 2 17 5 0
10 7 10 15 0 8 7 15 15 15 12 0 14 -8 9 -39 -5 -30 -2 -41 12 -52 14 -10 19
-26 18 -54 -2 -62 -3 -63 -22 -58 -12 3 -22 -4 -30 -22 -11 -24 -10 -25 7 -15
31 16 41 12 41 -15 0 -20 -5 -25 -25 -25 -20 0 -25 -5 -25 -27 0 -20 -3 -24
-12 -15 -6 6 -11 26 -10 43 0 18 -2 38 -6 43 -4 6 -9 -27 -12 -74 -3 -47 -2
-87 2 -90 4 -3 5 -29 2 -58 -4 -42 -2 -52 11 -52 8 0 15 -4 15 -10 0 -5 -7
-10 -15 -10 -12 0 -15 -14 -15 -62 0 -35 -3 -73 -6 -86 -5 -18 -3 -21 10 -16
9 3 16 1 16 -5 0 -6 -7 -11 -15 -11 -8 0 -15 -3 -15 -7 0 -5 -3 -19 -7 -32 -5
-21 -3 -22 17 -16 16 5 21 4 18 -6 -3 -8 -11 -14 -19 -14 -9 0 -15 -12 -16
-35 -2 -35 -2 -35 8 -7 6 15 18 27 26 27 10 0 13 -6 9 -16 -3 -9 -6 -22 -6
-30 0 -8 -9 -14 -19 -14 -23 0 -33 -23 -22 -53 8 -24 -6 -110 -18 -103 -4 3
-6 62 -5 133 1 70 -2 137 -6 148 -4 11 -3 85 1 165 5 80 13 255 19 390 12 269
12 282 35 517 9 89 15 177 14 195 -6 78 1 150 14 145 8 -2 11 -24 9 -71z
m-2111 44 c5 0 9 -6 9 -14 0 -9 -8 -12 -25 -8 -14 2 -25 11 -25 19 0 10 6 13
16 9 9 -3 20 -6 25 -6z m-522 -102 c-37 -96 -44 -107 -60 -91 -18 18 -1 79 30
110 15 16 33 39 40 51 27 51 21 9 -10 -70z m2334 43 c31 -13 58 -36 83 -70 21
-28 44 -51 50 -51 24 0 24 33 1 64 -39 51 -5 82 34 32 11 -14 28 -28 39 -31
13 -4 20 -15 20 -31 0 -24 -14 -32 -25 -14 -11 18 -32 10 -44 -17 -18 -40 2
-83 40 -83 33 0 32 4 18 -95 -10 -62 -14 -73 -25 -64 -8 6 -14 20 -14 30 0 10
-4 21 -10 24 -5 3 -10 16 -10 29 0 63 -142 258 -194 267 -20 4 -35 29 -18 29
6 0 31 -9 55 -19z m-1694 -17 c22 -11 29 -20 22 -27 -11 -11 -81 17 -81 33 0
15 23 12 59 -6z m1141 -9 c-10 -12 -9 -20 6 -42 30 -45 74 -190 89 -295 23
-150 67 -291 105 -334 17 -20 41 -57 52 -83 11 -25 24 -54 29 -63 6 -12 4 -20
-8 -27 -17 -9 -17 -10 0 -29 10 -11 15 -26 11 -36 -8 -21 -55 -46 -87 -46 -30
0 -77 42 -77 69 0 29 -11 51 -24 51 -27 0 -84 -88 -100 -153 -13 -54 -31 -24
-31 51 0 85 -13 105 -44 66 -14 -17 -21 -41 -21 -68 0 -22 -11 -64 -24 -93
-20 -41 -30 -52 -55 -58 -41 -9 -65 9 -50 37 23 42 60 156 80 243 12 50 30
128 41 175 31 137 36 166 58 345 23 193 25 256 9 272 -8 8 -4 15 17 26 33 17
43 14 24 -8z m-1339 -28 c-10 -9 -11 -8 -5 6 3 10 9 15 12 12 3 -3 0 -11 -7
-18z m2239 -28 c0 -5 -4 -9 -10 -9 -5 0 -10 7 -10 16 0 8 5 12 10 9 6 -3 10
-10 10 -16z m-2908 -27 c3 -4 8 -18 10 -32 4 -35 -24 -37 -67 -5 -32 25 -44
53 -29 68 7 6 73 -18 86 -31z m522 -46 c-10 -42 -20 -38 -16 6 3 25 8 36 14
30 5 -5 6 -21 2 -36z m236 36 c0 -13 -12 -22 -22 -16 -10 6 -1 24 13 24 5 0 9
-4 9 -8z m2280 -2 c0 -12 -49 -45 -56 -37 -3 3 -1 15 6 26 11 21 50 30 50 11z
m-2927 -35 c-3 -8 -9 -15 -14 -15 -10 0 -12 24 -3 33 11 11 24 -3 17 -18z
m2783 -2 c-10 -10 -19 5 -10 18 6 11 8 11 12 0 2 -7 1 -15 -2 -18z m44 -3 c0
-5 -4 -10 -10 -10 -5 0 -10 5 -10 10 0 6 5 10 10 10 6 0 10 -4 10 -10z m110
-8 c0 -10 -50 -35 -57 -28 -3 2 8 11 24 20 34 18 33 18 33 8z m-3085 -32 c16
-16 23 -30 17 -30 -20 0 -62 31 -62 46 0 22 14 17 45 -16z m495 20 c0 -5 -4
-10 -10 -10 -5 0 -10 5 -10 10 0 6 5 10 10 10 6 0 10 -4 10 -10z m2606 -47
c-15 -13 -32 -20 -38 -17 -7 5 -1 16 17 30 38 30 57 18 21 -13z m-2968 5 c-3
-7 -18 -14 -34 -16 -28 -2 -28 -2 -10 13 24 18 49 20 44 3z m287 -7 c3 -5 1
-12 -5 -16 -5 -3 -10 1 -10 9 0 18 6 21 15 7z m85 -22 c0 -12 -7 -19 -20 -19
-22 0 -29 35 -7 43 18 6 27 -2 27 -24z m202 9 c-7 -7 -12 -8 -12 -2 0 14 12
26 19 19 2 -3 -1 -11 -7 -17z m92 3 c3 -4 3 -11 0 -14 -8 -8 -34 3 -34 14 0
11 27 12 34 0z m1816 -86 c0 -3 -4 -5 -9 -5 -5 0 -14 14 -20 31 -16 46 -14 48
9 11 11 -18 20 -35 20 -37z m-1817 30 c-6 -16 -16 -19 -26 -8 -9 8 13 34 24
28 4 -3 6 -12 2 -20z m-287 -24 c-8 -13 -36 -15 -36 -3 0 4 5 13 12 20 14 14
34 0 24 -17z m2556 6 c24 -13 75 -43 115 -65 40 -23 75 -42 77 -42 3 0 96 -44
208 -99 112 -54 214 -102 228 -106 14 -4 52 -20 85 -35 33 -15 75 -31 92 -35
35 -7 73 -46 73 -75 0 -9 -11 -27 -25 -40 l-25 -23 0 36 c0 30 -5 39 -30 52
-58 30 -75 18 -56 -41 9 -27 23 -44 44 -54 26 -12 32 -22 33 -50 1 -19 1 -42
-1 -50 -1 -8 -4 -52 -5 -97 -2 -49 -10 -93 -20 -112 -8 -17 -17 -31 -19 -31
-2 0 -19 15 -38 33 -20 19 -67 45 -107 60 -84 30 -235 118 -320 185 -32 26
-112 85 -176 132 -65 47 -121 90 -126 95 -5 6 -24 31 -44 57 l-34 47 5 118 c5
117 10 163 19 163 2 0 23 -11 47 -23z m-2751 -40 c-1 -12 -15 -9 -19 4 -3 6 1
10 8 8 6 -3 11 -8 11 -12z m439 3 c0 -5 -7 -10 -16 -10 -8 0 -12 5 -9 10 3 6
10 10 16 10 5 0 9 -4 9 -10z m40 -6 c0 -17 -22 -14 -28 4 -2 7 3 12 12 12 9 0
16 -7 16 -16z m-282 -32 c3 -16 -2 -22 -17 -22 -26 0 -36 17 -20 36 16 19 33
13 37 -14z m2057 -102 c-3 -20 -2 -56 4 -80 10 -44 16 -52 107 -128 15 -12 45
-25 66 -29 29 -4 38 -10 34 -20 -4 -8 -6 -29 -6 -47 0 -30 -2 -32 -30 -28 -18
3 -30 0 -30 -7 0 -15 -43 -14 -58 1 -16 16 -15 50 3 74 18 24 19 54 1 54 -8 0
-26 -14 -40 -31 -36 -43 -36 -100 0 -128 15 -12 33 -21 40 -21 21 0 24 -14 12
-53 -14 -45 6 -80 55 -98 l34 -12 -3 -128 c-2 -71 -6 -134 -9 -139 -10 -16
-88 89 -82 110 7 26 -42 200 -83 296 -41 94 -58 284 -43 460 l7 79 13 -45 c8
-25 11 -61 8 -80z m2283 92 c2 -12 -1 -22 -7 -22 -6 0 -11 4 -11 9 0 5 -3 17
-7 27 -4 12 -2 15 8 12 8 -2 15 -14 17 -26z m-4418 -2 c0 -11 5 -20 10 -20 6
0 10 -6 10 -14 0 -8 6 -17 13 -19 6 -3 -1 -6 -18 -6 -16 0 -34 3 -40 7 -15 11
-18 42 -4 58 16 20 29 17 29 -6z m2230 5 c-12 -14 -5 -103 7 -91 3 3 15 -1 25
-9 28 -19 45 -9 58 31 15 43 32 44 26 2 -3 -18 -8 -57 -11 -87 -9 -83 -17 -92
-73 -87 -63 7 -82 31 -82 102 0 64 34 154 57 154 3 0 0 -7 -7 -15z m-2100 -52
c0 -14 6 -23 15 -23 8 0 15 -9 15 -20 0 -11 -6 -20 -13 -20 -24 0 -37 24 -37
70 0 33 3 41 10 30 5 -8 10 -25 10 -37z m235 37 c4 -6 4 -17 1 -25 -4 -12 -10
-12 -35 3 -26 14 -28 18 -13 24 25 10 40 9 47 -2z m-447 -22 c-5 -15 -48 -24
-48 -10 0 14 12 22 33 22 10 0 17 -5 15 -12z m2602 -8 c0 -5 -4 -10 -10 -10
-5 0 -10 5 -10 10 0 6 5 10 10 10 6 0 10 -4 10 -10z m-2440 -15 c0 -8 -4 -15
-10 -15 -5 0 -10 7 -10 15 0 8 5 15 10 15 6 0 10 -7 10 -15z m-295 -5 c-3 -5
-11 -10 -16 -10 -6 0 -7 5 -4 10 3 6 11 10 16 10 6 0 7 -4 4 -10z m-175 -30
c0 -5 -2 -10 -4 -10 -3 0 -8 5 -11 10 -3 6 -1 10 4 10 6 0 11 -4 11 -10z m100
0 c0 -5 -5 -10 -11 -10 -5 0 -7 5 -4 10 3 6 8 10 11 10 2 0 4 -4 4 -10z m-65
-40 c-3 -5 -16 -15 -28 -21 -22 -12 -22 -12 -3 10 19 21 43 30 31 11z m4402
-34 c59 -16 123 -52 124 -69 0 -7 2 -25 4 -42 2 -16 0 -34 -4 -40 -5 -5 -14
-41 -21 -78 -11 -60 -16 -70 -39 -78 -45 -16 -56 -25 -65 -59 -7 -24 -19 -36
-45 -47 -20 -8 -46 -19 -59 -25 -20 -10 -32 -7 -83 21 -45 25 -64 30 -72 22
-17 -17 -25 -13 -42 19 -11 21 -13 36 -6 48 14 27 24 108 17 146 -4 19 -20 51
-36 71 -23 28 -27 41 -19 51 6 7 17 10 24 7 8 -2 39 7 70 22 94 47 162 55 252
31z m-4498 -57 c-19 -24 -35 -37 -37 -30 -4 13 45 71 61 71 5 0 -6 -19 -24
-41z m4101 21 c0 -5 -4 -10 -10 -10 -5 0 -10 5 -10 10 0 6 5 10 10 10 6 0 10
-4 10 -10z m-104 -48 c-10 -10 -29 15 -21 28 6 9 10 8 17 -4 6 -10 7 -20 4
-24z m-950 -43 c10 -12 46 -40 79 -62 33 -22 112 -79 175 -126 63 -47 138 -99
165 -115 28 -16 63 -40 78 -53 29 -23 89 -53 177 -89 25 -10 63 -37 86 -61 41
-43 68 -52 103 -33 27 14 48 120 31 160 -15 36 2 190 21 190 5 0 24 -17 43
-37 33 -37 35 -37 54 -20 19 18 20 17 40 -15 11 -18 37 -49 57 -68 35 -34 50
-61 91 -160 11 -24 29 -55 42 -69 43 -47 17 -78 -64 -73 -42 3 -58 -1 -83 -19
-26 -19 -38 -21 -88 -16 -92 10 -203 34 -268 57 -33 12 -88 30 -122 40 -65 19
-211 86 -254 117 -15 10 -51 34 -80 54 -30 20 -111 92 -180 160 l-126 124 -5
68 c-3 37 -2 67 2 67 4 0 15 -10 26 -21z m1029 -8 c7 -12 -12 -24 -25 -16 -11
7 -4 25 10 25 5 0 11 -4 15 -9z m55 -78 c0 -15 -16 -28 -67 -60 -57 -35 -78
-28 -46 15 24 32 113 67 113 45z m-1345 -159 c-7 -56 -21 -68 -45 -39 -14 17
0 67 27 98 23 24 27 10 18 -59z m1265 45 c0 -11 -4 -18 -10 -14 -5 3 -7 12 -3
20 7 21 13 19 13 -6z m-700 -271 c114 -74 171 -102 271 -131 46 -14 121 -41
166 -60 127 -54 312 -76 374 -44 14 8 39 14 56 15 18 0 41 6 52 11 18 10 22 7
36 -19 17 -34 27 -37 45 -15 12 14 16 13 37 -7 73 -68 68 -178 -7 -178 -32 0
-70 39 -70 72 0 45 -18 58 -78 58 -76 0 -85 -8 -89 -72 -2 -29 -5 -59 -8 -65
-10 -28 -129 -4 -147 30 -5 11 -7 32 -4 48 4 22 0 33 -25 53 -33 28 -59 32
-90 16 -26 -14 -49 -62 -42 -88 12 -46 -87 -53 -168 -12 -30 16 -41 29 -49 59
-5 21 -7 46 -4 55 9 22 -42 66 -78 66 -18 0 -38 -10 -53 -26 -22 -24 -28 -25
-76 -19 -39 5 -61 16 -90 42 -42 38 -45 49 -27 100 11 30 10 36 -9 55 -22 22
-57 27 -105 15 -19 -5 -30 -17 -38 -41 -6 -19 -18 -37 -26 -40 -18 -7 -59 8
-70 26 -4 7 -9 95 -10 195 l-1 182 121 -113 c66 -62 159 -137 206 -168z m1280
216 c0 -15 -8 -32 -17 -39 -12 -9 -17 -25 -16 -55 1 -28 -2 -40 -10 -37 -7 2
-12 15 -12 28 0 34 -12 49 -41 49 -13 0 -24 5 -24 10 0 6 16 10 36 10 35 0 36
1 31 30 -6 28 -4 30 23 30 26 0 30 -4 30 -26z m-1674 -10 c4 -17 2 -29 -7 -35
-23 -14 -29 -10 -29 19 0 48 25 59 36 16z m-529 -52 c26 -45 61 -88 182 -226
84 -96 112 -143 131 -220 24 -96 35 -265 20 -308 -8 -22 -9 -54 -3 -98 7 -54
12 -67 31 -75 25 -11 29 -46 7 -65 -8 -7 -15 -19 -15 -27 0 -12 8 -14 34 -9
l34 7 11 -51 c15 -69 13 -111 -4 -134 -8 -11 -15 -30 -15 -43 0 -35 -29 -45
-160 -56 -23 -2 -25 2 -32 57 -9 67 -21 86 -55 86 -34 0 -79 -46 -63 -65 8 -9
8 -20 2 -32 -7 -12 -6 -37 0 -72 13 -62 4 -74 -46 -58 -17 5 -37 11 -43 13 -7
2 -13 12 -13 23 0 14 8 21 28 23 21 2 27 8 27 28 0 19 -6 26 -25 28 -47 7 -45
22 2 22 80 0 74 42 -7 55 -25 3 -45 11 -45 16 0 9 7 12 49 25 11 4 9 10 -8 28
-19 21 -20 24 -6 30 9 3 29 6 45 6 16 0 41 5 56 10 18 7 30 7 40 0 8 -8 24 -8
46 -2 18 5 49 7 68 5 27 -4 40 0 54 16 12 13 16 25 10 31 -12 11 -183 15 -259
5 l-60 -7 -18 48 c-31 87 -32 136 -6 201 13 32 27 64 33 71 12 17 -8 37 -55
54 -22 8 -58 38 -96 81 -102 115 -242 235 -387 330 -86 56 -103 77 -62 77 38
0 70 15 102 49 23 25 37 31 70 31 48 0 67 17 85 78 7 23 14 42 17 42 2 0 17
-11 34 -25 30 -26 41 -29 92 -25 46 3 75 17 103 50 13 17 29 28 34 25 5 -4 21
-27 36 -53z m1751 39 c3 -8 -1 -12 -9 -9 -7 2 -15 10 -17 17 -3 8 1 12 9 9 7
-2 15 -10 17 -17z m-1228 -86 c0 -8 -7 -15 -15 -15 -16 0 -20 12 -8 23 11 12
23 8 23 -8z m1431 -5 c4 -8 11 -33 16 -54 8 -38 18 -48 56 -60 14 -4 17 -17
17 -66 l0 -61 -29 20 c-16 12 -34 21 -39 21 -19 0 -42 31 -42 55 0 13 -11 45
-25 71 -25 48 -31 75 -18 88 12 12 55 2 64 -14z m77 -33 c3 -48 -6 -59 -27
-33 -15 18 -4 89 13 83 6 -2 12 -25 14 -50z m75 36 c-7 -2 -19 -2 -25 0 -7 3
-2 5 12 5 14 0 19 -2 13 -5z m-230 -79 c4 -4 7 -14 7 -23 -1 -11 -8 -8 -26 13
-14 16 -23 35 -20 43 3 8 6 22 7 31 1 9 6 0 13 -20 6 -20 14 -40 19 -44z m297
6 c0 -11 -4 -20 -9 -20 -14 0 -23 18 -16 30 10 17 25 11 25 -10z m61 -58 c7
-35 6 -36 -22 -22 -19 11 -26 40 -12 54 13 13 28 -1 34 -32z m-1711 15 c0 -19
-10 -27 -26 -20 -11 4 -12 9 -3 19 15 18 29 18 29 1z m1660 -44 c0 -7 -7 -13
-15 -13 -15 0 -21 31 -8 43 8 8 23 -12 23 -30z m-50 17 c0 -5 -7 -10 -15 -10
-8 0 -15 5 -15 10 0 6 7 10 15 10 8 0 15 -4 15 -10z m-40 -10 c0 -5 -2 -10 -4
-10 -3 0 -8 5 -11 10 -3 6 -1 10 4 10 6 0 11 -4 11 -10z m-1580 -30 c0 -5 -4
-10 -10 -10 -5 0 -10 5 -10 10 0 6 5 10 10 10 6 0 10 -4 10 -10z m1584 -41
c-3 -5 -10 -7 -15 -3 -5 3 -7 10 -3 15 3 5 10 7 15 3 5 -3 7 -10 3 -15z m81 1
c3 -5 1 -10 -4 -10 -6 0 -11 5 -11 10 0 6 2 10 4 10 3 0 8 -4 11 -10z m-1665
-29 c0 -6 -4 -13 -10 -16 -5 -3 -10 1 -10 9 0 9 5 16 10 16 6 0 10 -4 10 -9z
m1474 -12 c23 -18 62 -87 54 -95 -5 -4 -42 29 -70 64 -44 52 -34 70 16 31z
m-1514 -3 c0 -3 -4 -8 -10 -11 -5 -3 -10 -1 -10 4 0 6 5 11 10 11 6 0 10 -2
10 -4z m1633 -18 c2 -7 0 -21 -5 -32 -12 -23 -28 -4 -21 25 6 22 19 25 26 7z
m37 4 c0 -13 -12 -22 -22 -16 -10 6 -1 24 13 24 5 0 9 -4 9 -8z m38 -4 c-2 -6
-10 -14 -16 -16 -7 -2 -10 2 -6 12 7 18 28 22 22 4z m-1670 -39 c-2 -6 -8 -10
-13 -10 -5 0 -11 4 -13 10 -2 6 4 11 13 11 9 0 15 -5 13 -11z m1682 -40 c0
-31 -4 -48 -10 -44 -5 3 -10 26 -10 51 0 24 5 44 10 44 6 0 10 -23 10 -51z
m-1690 -29 c0 -5 -7 -10 -16 -10 -8 0 -12 5 -9 10 3 6 10 10 16 10 5 0 9 -4 9
-10z m-40 -35 c0 -15 -18 -30 -27 -22 -2 3 -2 15 2 26 7 23 25 19 25 -4z m40
-15 c0 -5 -4 -10 -10 -10 -5 0 -10 5 -10 10 0 6 5 10 10 10 6 0 10 -4 10 -10z
m1645 -10 c3 -5 -3 -10 -14 -10 -12 0 -21 5 -21 10 0 6 6 10 14 10 8 0 18 -4
21 -10z m-1685 -40 c0 -22 -16 -35 -25 -20 -9 14 4 52 16 45 5 -4 9 -15 9 -25z
m48 -7 c-4 -22 -22 -20 -26 1 -2 10 3 16 13 16 10 0 15 -7 13 -17z m1642 -17
c0 -3 -4 -8 -10 -11 -5 -3 -10 -1 -10 4 0 6 5 11 10 11 6 0 10 -2 10 -4z m44
-60 c13 -64 0 -74 -47 -35 -44 36 -47 51 -9 47 23 -3 27 0 24 20 -4 44 23 17
32 -32z m-1734 29 c0 -8 -4 -15 -10 -15 -5 0 -10 -9 -10 -20 0 -12 7 -20 16
-20 14 0 14 -1 0 -16 -9 -8 -16 -20 -16 -25 0 -16 -18 -10 -23 9 -3 9 -5 2 -6
-17 -1 -44 -7 -37 -15 20 -6 41 -5 46 19 59 14 7 25 19 25 27 0 7 5 13 10 13
6 0 10 -7 10 -15z m40 -5 c0 -5 -4 -10 -10 -10 -5 0 -10 5 -10 10 0 6 5 10 10
10 6 0 10 -4 10 -10z m1744 -116 c8 -29 3 -39 -13 -29 -13 8 -15 55 -2 55 5 0
12 -12 15 -26z m-1757 -14 c-3 -10 1 -24 9 -31 14 -11 10 -29 -5 -29 -5 0 -19
8 -31 18 -23 19 -23 19 -4 40 24 26 38 27 31 2z m7 -546 c11 -28 6 -50 -12
-67 -23 -21 -32 -13 -32 28 0 45 31 73 44 39z m-104 -65 c0 -23 42 -188 64
-254 14 -40 18 -60 57 -255 11 -58 23 -115 26 -127 3 -14 -4 -34 -23 -58 -30
-40 -23 -66 14 -46 30 16 42 14 42 -8 0 -25 22 -42 40 -31 19 12 30 3 30 -22
0 -12 10 -52 22 -90 23 -71 20 -90 -12 -70 -27 16 -23 18 -80 -33 -51 -45
-107 -75 -140 -75 -10 0 -28 8 -40 18 -20 16 -23 29 -25 101 -2 65 -6 88 -23
110 -23 31 -37 79 -46 158 -4 29 -13 70 -21 93 -16 46 -14 48 26 19 18 -13 29
-29 29 -45 0 -17 5 -24 20 -24 19 0 24 10 21 37 -1 6 3 14 9 18 14 9 13 38 -4
77 -8 18 -20 53 -27 77 -8 25 -24 52 -41 64 -22 16 -25 24 -17 39 8 14 6 28
-5 53 -9 18 -16 40 -16 48 0 29 -66 157 -81 157 -24 0 -32 -50 -20 -121 12
-62 19 -77 57 -116 38 -40 42 -48 32 -67 -7 -11 -15 -37 -18 -56 l-6 -35 -18
60 c-42 141 -56 182 -72 220 -9 22 -18 59 -19 83 -3 42 -3 42 30 42 43 0 85
16 85 32 0 14 79 44 123 47 21 1 27 -3 27 -20z m180 -379 c0 -5 -5 -10 -11
-10 -5 0 -7 5 -4 10 3 6 8 10 11 10 2 0 4 -4 4 -10z m14 -51 c-3 -5 -10 -7
-15 -3 -5 3 -7 10 -3 15 3 5 10 7 15 3 5 -3 7 -10 3 -15z m143 -275 c7 -43 17
-109 22 -146 6 -37 17 -84 26 -104 9 -21 13 -44 11 -51 -10 -25 -25 -13 -37
30 -6 23 -18 59 -26 81 -33 90 -55 251 -36 270 17 17 28 -6 40 -80z m-107 41
c0 -9 -6 -12 -15 -9 -8 4 -12 10 -9 15 8 14 24 10 24 -6z m468 -63 c2 -8 -25
-26 -71 -47 -40 -19 -80 -41 -87 -50 -7 -8 -16 -15 -21 -15 -5 0 -27 -11 -49
-25 -22 -14 -41 -25 -44 -25 -4 0 -21 72 -29 122 -6 41 2 46 66 38 40 -6 78
-4 120 5 72 16 109 15 115 -3z"/>
<path d="M994 3595 c-9 -23 7 -36 34 -28 14 3 22 12 20 22 -4 22 -46 27 -54 6z"/>
<path d="M1017 3503 c-14 -13 -7 -33 11 -33 26 0 34 11 21 27 -13 14 -22 16
-32 6z"/>
<path d="M977 3403 c-14 -13 -6 -33 12 -33 21 0 45 23 34 33 -8 9 -38 9 -46 0z"/>
<path d="M2456 4079 c-18 -30 -16 -59 4 -59 12 0 50 59 50 78 0 24 -36 12 -54
-19z"/>
<path d="M201 3842 c-14 -11 -20 -21 -14 -25 14 -9 47 17 42 32 -3 9 -11 7
-28 -7z"/>
<path d="M164 3775 c-23 -35 -8 -50 41 -41 32 6 36 10 33 34 -4 39 -50 43 -74
7z"/>
<path d="M4360 3966 c0 -22 27 -38 57 -34 l28 4 -27 11 c-14 7 -29 17 -33 22
-9 16 -25 14 -25 -3z"/>
<path d="M4295 3910 c-3 -5 -3 -15 1 -22 4 -6 9 -36 11 -67 3 -41 10 -62 26
-78 27 -26 97 -42 97 -22 0 7 12 23 27 35 26 21 26 22 12 60 -12 33 -23 42
-67 60 -29 12 -58 26 -65 33 -14 14 -34 14 -42 1z m145 -90 c6 -11 8 -26 4
-32 -5 -8 -10 -5 -15 8 -16 41 -8 59 11 24z m-49 -44 c16 -17 10 -26 -16 -26
-33 0 -43 26 -19 49 17 16 19 16 22 2 2 -9 8 -20 13 -25z"/>
<path d="M2956 3474 c-8 -21 -8 -24 3 -24 12 0 22 28 12 35 -5 3 -12 -2 -15
-11z"/>
<path d="M2957 3414 c-4 -4 -7 -14 -7 -23 0 -11 3 -12 11 -4 6 6 10 16 7 23
-2 6 -7 8 -11 4z"/>
<path d="M3160 3300 c-15 -29 -12 -39 15 -46 13 -3 29 -12 36 -20 21 -25 39
-16 39 20 0 38 -13 53 -53 60 -19 3 -30 0 -37 -14z"/>
<path d="M3427 3174 c-4 -4 -7 -22 -7 -39 0 -26 7 -35 39 -53 34 -19 40 -20
45 -6 14 37 6 69 -22 82 -45 22 -48 23 -55 16z"/>
<path d="M3152 3148 c-20 -20 -13 -41 24 -72 19 -16 36 -27 38 -25 12 14 15
67 4 81 -18 22 -51 31 -66 16z"/>
<path d="M3650 3040 c0 -20 6 -33 18 -37 9 -4 19 -10 22 -13 3 -4 15 -10 28
-14 20 -7 22 -4 22 28 0 32 -4 37 -36 51 -50 21 -54 19 -54 -15z"/>
<path d="M3390 3001 c-5 -11 -7 -26 -4 -35 5 -14 66 -66 77 -66 3 0 7 15 10
33 4 25 -1 38 -21 60 -30 32 -47 34 -62 8z"/>
<path d="M3600 2860 c-13 -8 -13 -12 0 -36 8 -15 24 -32 35 -38 10 -6 25 -17
33 -23 24 -23 32 -14 32 33 0 42 -2 46 -35 60 -40 16 -45 17 -65 4z"/>
<path d="M3817 2763 c-4 -3 -7 -19 -7 -34 0 -27 25 -44 59 -39 8 1 17 -4 22
-11 11 -18 16 -11 24 33 7 34 5 39 -20 48 -30 11 -69 13 -78 3z"/>
<path d="M4313 2940 c0 -62 4 -69 25 -48 21 21 13 -7 -10 -37 -28 -36 -15 -60
33 -60 33 0 34 2 47 54 15 62 5 99 -36 131 -46 36 -59 28 -59 -40z m55 1 c3
-8 -1 -12 -9 -9 -7 2 -15 10 -17 17 -3 8 1 12 9 9 7 -2 15 -10 17 -17z"/>
<path d="M4931 3186 c-14 -16 -9 -46 7 -46 5 0 15 7 22 16 11 12 11 18 -2 30
-13 13 -16 13 -27 0z"/>
<path d="M4910 3095 c-10 -11 -10 -19 -2 -27 15 -15 44 -2 40 19 -4 23 -22 27
-38 8z"/>
<path d="M4750 3070 c0 -22 31 -70 45 -70 21 0 19 17 -6 51 -21 29 -39 38 -39
19z"/>
<path d="M4750 2903 c0 -83 45 -213 73 -213 6 0 19 -15 27 -32 33 -69 54 -27
27 52 -10 28 -17 34 -35 32 -17 -3 -22 1 -21 20 1 13 -8 43 -19 68 -12 25 -22
55 -22 67 0 28 -10 53 -21 53 -5 0 -9 -21 -9 -47z"/>
<path d="M4783 2624 c-14 -38 63 -232 114 -286 26 -28 76 -38 87 -19 7 11 -42
107 -80 157 -24 31 -29 34 -40 20 -6 -9 -14 -16 -17 -16 -7 0 -37 102 -37 128
0 27 -18 38 -27 16z m112 -211 c27 -40 34 -71 9 -38 -20 26 -46 75 -40 75 3 0
17 -17 31 -37z"/>
<path d="M1766 2419 c-21 -25 -25 -38 -20 -64 4 -22 0 -45 -14 -71 -25 -51
-34 -91 -72 -336 -15 -102 -36 -464 -32 -568 0 -26 -14 -123 -47 -320 -64
-377 -75 -414 -213 -710 -17 -36 -35 -74 -41 -85 -40 -72 -77 -153 -77 -168 0
-35 32 -13 45 30 7 23 38 79 70 124 59 84 155 265 155 292 0 9 12 49 27 89 32
89 40 125 53 248 6 52 17 136 25 185 21 125 32 261 45 540 17 384 54 600 123
716 21 34 23 45 14 61 -10 15 -9 20 2 27 15 9 9 41 -8 41 -5 0 -21 -14 -35
-31z"/>
<path d="M4811 2322 c-15 -28 6 -92 47 -145 18 -23 48 -66 65 -96 33 -56 57
-75 57 -46 0 22 -35 88 -86 164 -26 37 -44 75 -44 91 0 38 -25 58 -39 32z"/>
<path d="M1578 2310 c-27 -20 -99 -186 -118 -270 -5 -25 -12 -144 -16 -265 -3
-124 -12 -260 -21 -312 -8 -51 -13 -107 -10 -125 9 -64 -37 -286 -89 -428 -9
-25 -32 -97 -51 -160 -49 -163 -132 -358 -168 -394 -43 -43 -41 2 3 67 19 28
22 41 14 49 -17 17 -99 -71 -107 -116 -9 -44 -1 -56 35 -56 63 0 76 14 169
181 29 52 151 403 185 530 8 30 23 88 35 129 43 160 61 336 61 594 0 178 4
255 14 291 25 88 66 186 91 219 28 37 31 58 11 75 -10 8 -19 6 -38 -9z"/>
<path d="M1966 2244 c-24 -61 -35 -149 -25 -186 8 -30 7 -64 -1 -126 -6 -47
-14 -90 -17 -95 -2 -4 -9 -32 -13 -60 -5 -29 -14 -79 -20 -112 -8 -44 -8 -65
0 -80 11 -21 -11 -161 -56 -351 -15 -64 -18 -94 -34 -304 -5 -74 -15 -164 -21
-200 -23 -140 -23 -154 0 -174 27 -24 39 -14 21 18 -8 15 -10 40 -7 63 3 21
11 67 17 103 6 36 15 121 20 190 19 259 25 294 52 331 16 21 23 51 29 116 4
48 19 136 34 195 14 59 24 111 22 115 -5 8 12 137 33 253 18 103 32 222 27
227 -11 10 -27 -9 -27 -31 0 -12 -6 -31 -14 -41 -13 -17 -14 -16 -20 22 -6 32
-2 51 17 92 23 47 24 51 7 51 -10 0 -21 -7 -24 -16z m-17 -521 c-2 -43 -13
-76 -28 -81 -11 -4 -12 4 -7 34 10 57 16 74 27 74 5 0 9 -12 8 -27z"/>
<path d="M4808 2134 c-16 -15 -7 -41 21 -68 16 -16 39 -50 50 -77 23 -52 37
-67 52 -52 15 15 -31 110 -77 161 -21 24 -42 40 -46 36z"/>
<path d="M4265 2098 c-3 -7 -1 -68 3 -135 5 -67 5 -155 0 -194 -10 -82 -6
-102 19 -97 13 2 18 14 19 38 1 19 5 105 9 190 8 161 1 210 -30 210 -9 0 -18
-6 -20 -12z"/>
<path d="M4461 2041 c-12 -8 -11 -17 5 -62 12 -33 26 -55 37 -57 21 -4 23 26
3 83 -15 43 -23 49 -45 36z"/>
<path d="M4377 1943 c-3 -4 -5 -29 -5 -55 -3 -122 -40 -331 -93 -513 -37 -128
-58 -310 -40 -352 18 -45 76 -97 97 -89 15 6 13 11 -16 41 -64 66 -69 187 -15
360 53 170 108 458 109 570 1 29 -3 40 -16 43 -9 2 -18 -1 -21 -5z"/>
<path d="M4497 1813 c-3 -5 -8 -44 -12 -87 -4 -44 -19 -123 -32 -175 -13 -53
-23 -114 -22 -136 5 -60 4 -157 -1 -185 -4 -16 0 -25 10 -27 25 -6 45 121 30
192 -10 46 -9 64 4 103 23 68 56 238 56 283 0 27 -4 39 -14 39 -8 0 -17 -3
-19 -7z"/>
<path d="M4795 1770 c-38 -22 -79 -50 -90 -63 -26 -31 -59 -89 -60 -104 0 -6
-7 -19 -16 -30 -27 -31 -63 -102 -56 -110 11 -10 32 15 67 82 38 72 142 175
211 211 47 24 60 46 28 51 -8 1 -45 -15 -84 -37z"/>
<path d="M4915 1716 c-108 -71 -164 -146 -109 -146 8 0 18 10 23 23 11 28 58
71 123 112 28 17 48 38 48 48 0 9 -1 17 -2 17 -2 -1 -39 -25 -83 -54z"/>
<path d="M1302 1688 c-7 -7 -12 -24 -12 -39 0 -14 -7 -46 -15 -70 -9 -24 -25
-80 -36 -124 -11 -44 -47 -144 -80 -223 -32 -78 -59 -148 -59 -156 0 -7 -7
-20 -17 -27 -9 -8 -40 -63 -69 -124 -140 -295 -164 -339 -241 -427 -28 -32
-60 -80 -69 -106 -10 -26 -33 -68 -52 -94 -44 -62 -141 -148 -166 -148 -19 0
-18 1 4 24 22 24 22 56 0 56 -17 0 -90 -72 -90 -89 0 -41 60 -54 123 -28 39
17 197 182 224 234 33 65 65 113 74 113 5 0 20 22 33 48 14 27 50 91 82 143
62 101 135 258 188 404 19 50 52 132 75 183 23 51 44 100 46 110 2 9 10 31 19
47 9 17 16 36 16 43 0 7 16 51 35 99 19 48 35 99 35 113 0 24 -16 50 -30 50
-3 0 -11 -5 -18 -12z"/>
<path d="M4913 1462 c-17 -9 -62 -57 -99 -107 -67 -89 -104 -169 -104 -226 0
-34 -41 -84 -90 -109 -51 -26 -69 -58 -97 -174 -18 -80 -25 -146 -32 -316 -6
-166 -12 -225 -26 -260 -10 -25 -18 -57 -20 -71 -1 -14 -18 -47 -38 -74 -36
-47 -43 -65 -31 -78 21 -21 62 47 122 203 23 60 25 81 27 250 4 230 34 417 73
456 16 17 17 15 22 -32 4 -36 10 -50 23 -52 19 -4 24 22 6 34 -18 11 1 58 37
87 30 25 54 77 60 128 4 45 17 97 31 124 15 28 75 91 136 142 15 13 24 29 21
37 -4 9 6 16 30 20 22 4 36 13 36 21 0 20 -47 19 -87 -3z"/>
<path d="M4612 1428 c-7 -7 -12 -34 -12 -62 0 -35 -6 -56 -19 -70 -31 -34 -97
-173 -129 -276 -49 -156 -101 -370 -108 -443 l-6 -67 -51 6 c-65 7 -77 11 -77
24 0 5 13 10 29 10 16 0 34 7 41 15 17 20 -25 29 -101 21 -49 -6 -59 -4 -59 8
0 19 24 25 110 28 50 2 65 6 65 18 0 12 -15 15 -87 12 -54 -1 -88 2 -88 8 0 5
24 10 54 10 35 0 58 5 66 15 16 19 4 23 -70 27 -52 3 -55 4 -58 31 -5 39 14
57 59 57 53 0 54 -28 2 -32 -47 -4 -53 -31 -9 -36 43 -5 74 6 92 32 33 52 -20
84 -116 71 -69 -10 -83 -23 -83 -79 1 -50 -13 -66 -61 -66 -34 0 -76 -20 -76
-36 0 -19 38 -37 90 -44 68 -8 59 -30 -17 -46 -75 -15 -83 -20 -83 -43 0 -30
30 -46 88 -47 33 0 57 -5 60 -12 2 -7 0 -12 -5 -12 -61 -4 -156 -20 -168 -30
-8 -7 -15 -23 -15 -36 0 -27 35 -67 53 -61 11 4 12 16 5 62 -3 18 3 20 57 20
l60 0 8 -150 c9 -182 27 -255 65 -255 21 0 23 3 17 23 -23 77 -38 239 -28 328
l6 59 57 0 c31 0 78 6 103 14 25 7 48 11 51 9 6 -6 -1 -43 -25 -142 -21 -82
-24 -141 -9 -141 14 0 27 34 39 105 5 33 19 103 30 155 11 52 23 138 26 190 6
82 64 338 94 415 5 11 14 38 21 60 25 81 74 170 116 213 24 24 44 52 44 63 0
10 5 21 10 24 19 12 11 38 -10 32 -15 -4 -20 0 -20 14 0 22 -11 24 -28 7z
m-557 -778 c-3 -5 -15 -10 -25 -10 -10 0 -22 5 -25 10 -4 6 7 10 25 10 18 0
29 -4 25 -10z m130 -115 c0 -5 -15 -11 -32 -13 -25 -3 -33 1 -33 13 0 12 8 16
33 13 17 -2 32 -7 32 -13z m-127 -7 c-5 -15 -70 -30 -82 -18 -16 16 5 30 45
30 28 0 39 -4 37 -12z m241 -53 c15 -16 -29 -30 -99 -34 -75 -3 -80 -2 -80 17
0 11 6 22 13 25 15 5 159 -2 166 -8z"/>
<path d="M1331 1376 c-7 -8 -26 -72 -42 -141 -32 -135 -45 -173 -104 -300 -20
-44 -59 -131 -86 -195 -82 -189 -97 -223 -118 -270 -27 -58 -77 -138 -106
-170 -13 -14 -48 -63 -78 -110 -31 -47 -65 -96 -76 -110 -11 -13 -18 -27 -15
-31 6 -10 58 2 78 20 44 37 96 114 96 140 0 16 13 46 28 67 35 47 69 107 135
234 27 52 57 109 67 125 19 33 87 193 113 265 16 47 72 200 113 308 16 40 24
83 24 122 0 60 -8 72 -29 46z"/>
<path d="M4968 1293 c-29 -33 -105 -198 -131 -283 -35 -118 -45 -173 -64 -340
-18 -164 -17 -153 -8 -280 6 -82 4 -105 -15 -170 -12 -41 -26 -99 -30 -128 -5
-29 -14 -60 -21 -68 -16 -19 -3 -31 19 -18 11 7 28 55 49 135 29 113 31 138
31 279 0 115 6 185 21 269 12 63 21 134 21 157 0 24 11 78 25 121 25 78 113
265 127 271 11 5 10 72 0 72 -5 0 -16 -8 -24 -17z"/>
<path d="M2171 1236 c-7 -8 -14 -70 -17 -153 -6 -141 -22 -225 -105 -548 -42
-162 -48 -222 -35 -340 10 -91 13 -100 33 -103 22 -3 22 -3 16 141 l-6 145 47
183 c26 101 57 220 69 264 12 44 25 130 29 190 4 61 10 129 13 151 7 41 -6 84
-24 84 -5 0 -14 -6 -20 -14z"/>
<path d="M480 1065 c-6 -8 -14 -34 -17 -57 -3 -24 -20 -70 -38 -103 -18 -33
-36 -74 -40 -92 -8 -41 -64 -172 -104 -246 -45 -83 -95 -148 -194 -252 -48
-49 -86 -93 -87 -97 0 -19 22 -4 90 59 103 96 237 297 303 458 21 50 46 107
57 127 11 20 20 46 20 57 0 11 4 22 9 25 4 3 11 25 14 48 4 24 10 53 13 66 7
25 -7 29 -26 7z"/>
<path d="M4581 496 c-6 -8 -16 -39 -21 -70 -5 -31 -16 -82 -24 -113 -8 -32
-22 -88 -31 -124 -9 -36 -26 -81 -37 -100 -11 -19 -24 -46 -29 -61 -6 -24 -5
-28 12 -28 11 0 22 8 25 17 3 10 14 35 26 57 26 50 33 73 73 246 19 80 37 155
41 168 7 26 -16 31 -35 8z"/>
<path d="M2182 488 c-8 -8 -12 -57 -12 -154 0 -130 2 -144 23 -175 25 -38 57
-51 57 -23 0 10 -8 26 -17 37 -15 16 -18 42 -20 166 -1 80 -2 149 -2 154 -1
11 -15 9 -29 -5z"/>
<path d="M4181 368 c-11 -29 5 -60 27 -56 21 4 29 57 10 69 -21 13 -28 11 -37
-13z"/>
<path d="M4345 20 c-8 -13 15 -13 35 0 12 8 11 10 -7 10 -12 0 -25 -4 -28 -10z"/>
</g>
</svg>
