<?xml version="1.0" standalone="no"?>
<!DOCTYPE svg PUBLIC "-//W3C//DTD SVG 20010904//EN"
 "http://www.w3.org/TR/2001/REC-SVG-20010904/DTD/svg10.dtd">
<svg version="1.0" xmlns="http://www.w3.org/2000/svg"
 width="500.000000pt" height="878.000000pt" viewBox="0 0 500.000000 878.000000"
 preserveAspectRatio="xMidYMid meet">
<metadata>
Created by potrace 1.15, written by Peter Selinger 2001-2017
</metadata>
<g transform="translate(0.000000,878.000000) scale(0.100000,-0.100000)"
fill="#000000" stroke="none">
<path d="M2455 8488 c-27 -5 -123 -9 -212 -10 -90 -1 -163 -5 -163 -9 0 -4 13
-18 29 -31 34 -26 121 -152 121 -174 0 -10 -13 -14 -44 -14 -82 0 -91 -55 -9
-59 109 -6 527 10 540 21 19 16 4 37 -30 40 l-32 3 0 90 0 90 46 0 c25 0 54 6
63 14 31 26 -4 37 -121 40 -59 1 -115 3 -123 5 -8 2 -37 -1 -65 -6z m-134 -71
c-2 -54 -25 -127 -40 -127 -9 0 -61 103 -61 121 0 4 19 10 43 12 52 4 59 4 58
-6z m140 -14 c5 -15 9 -52 7 -82 l-3 -56 -60 0 c-68 0 -69 3 -39 80 9 22 20
50 25 63 13 33 56 30 70 -5z m119 -27 c0 -29 3 -68 6 -86 7 -30 6 -31 -22 -28
l-29 3 -3 83 c-3 82 -3 82 23 82 24 0 25 -3 25 -54z"/>
<path d="M623 7545 c-13 -36 4 -113 35 -156 50 -68 36 -124 -16 -64 -23 27
-51 32 -83 14 -16 -8 -19 -16 -13 -42 3 -18 10 -37 15 -43 17 -21 72 -23 114
-4 27 11 48 14 62 9 27 -10 44 -41 33 -59 -11 -18 -4 -30 19 -30 32 0 39 -18
22 -55 -17 -36 -37 -48 -26 -16 8 26 -4 51 -25 51 -24 0 -33 -41 -17 -78 7
-17 49 -73 92 -125 155 -183 268 -325 266 -333 -1 -5 -12 -12 -26 -16 -21 -5
-28 0 -46 29 -40 64 -137 80 -121 21 7 -30 72 -90 89 -84 23 9 14 -13 -13 -31
-25 -16 -27 -16 -39 0 -7 9 -15 17 -19 17 -9 0 -8 -50 2 -50 4 0 17 -3 28 -6
15 -4 32 4 59 27 37 32 45 32 58 -5 6 -17 37 3 37 23 0 25 9 30 42 24 19 -4
40 -22 64 -56 l37 -51 -12 -101 c-7 -55 -13 -111 -15 -125 -1 -14 -9 -26 -17
-27 -78 -10 -91 -15 -109 -46 -27 -44 -27 -97 0 -97 11 0 20 -4 20 -8 0 -10
-91 -149 -132 -202 -60 -79 -140 -227 -178 -331 -54 -146 -31 -226 75 -259 22
-7 52 -21 67 -31 14 -11 41 -19 58 -19 18 0 49 -4 69 -9 154 -40 203 -56 207
-65 2 -6 -2 -34 -11 -61 -17 -59 -20 -159 -4 -203 7 -21 30 -45 72 -72 57 -38
64 -41 111 -35 88 11 87 12 98 -210 1 -27 -16 -153 -42 -310 -6 -33 -9 -125
-7 -205 2 -80 2 -151 -1 -158 -2 -7 -22 -20 -43 -28 -40 -16 -94 -84 -221
-274 -81 -121 -151 -339 -173 -536 -8 -69 -19 -94 -34 -79 -16 17 -45 253 -47
386 -2 131 -7 150 -55 211 -28 34 -18 50 21 37 25 -9 34 -7 60 11 54 38 28 75
-52 75 -51 0 -52 1 -42 40 10 40 -4 72 -41 95 -33 21 -37 21 -60 6 -28 -19
-32 -48 -10 -86 19 -33 18 -40 -3 -40 -26 0 -52 -32 -52 -63 0 -18 10 -34 30
-49 16 -12 30 -28 30 -35 0 -7 -18 -33 -40 -57 -22 -24 -40 -48 -40 -55 0 -6
9 -30 20 -54 37 -78 59 -175 74 -330 24 -241 35 -381 30 -389 -12 -18 -35 -6
-48 26 -17 40 -67 70 -101 62 -47 -12 -39 -63 14 -90 23 -12 27 -20 24 -41
-11 -52 53 -78 75 -30 11 25 36 33 46 16 3 -5 13 -41 21 -81 14 -68 14 -75 -2
-98 -48 -67 -97 -151 -109 -187 -8 -22 -23 -58 -33 -80 -16 -37 -33 -99 -60
-230 -13 -63 -45 -292 -70 -502 -20 -163 -36 -213 -68 -213 -22 0 -83 -65 -83
-88 0 -11 7 -25 15 -32 23 -19 18 -30 -19 -45 -19 -8 -37 -24 -41 -35 -8 -25
-31 -31 -133 -33 -74 -2 -84 -5 -108 -29 -17 -16 -24 -32 -21 -42 10 -24 25
-19 42 14 9 18 26 32 43 36 15 3 35 8 45 11 28 7 20 -25 -13 -53 -16 -14 -43
-50 -61 -80 -38 -68 -34 -99 17 -120 32 -13 40 -13 109 11 42 14 83 25 93 25
31 1 165 59 189 82 13 13 36 35 51 49 35 34 69 52 83 43 7 -4 -7 -16 -32 -28
-23 -12 -44 -27 -47 -34 -5 -17 29 -14 52 3 11 8 35 15 53 15 26 0 33 4 33 19
0 30 22 41 95 46 37 3 72 8 76 11 16 9 10 21 -14 29 -21 6 -20 7 9 14 72 18
68 43 -5 34 l-49 -6 -21 41 c-25 49 -27 75 -6 92 25 20 19 59 -11 72 -26 12
-26 14 -21 84 3 39 12 85 21 102 8 16 36 81 61 143 48 119 59 137 69 121 5 -8
22 -146 56 -442 6 -52 13 -112 16 -133 4 -32 1 -39 -21 -49 -30 -13 -33 -38
-5 -38 12 0 20 -7 20 -17 1 -10 5 -63 11 -118 15 -159 39 -456 39 -499 l0 -40
-27 26 c-31 29 -147 65 -248 76 -89 11 -157 69 -125 107 7 8 32 27 56 42 47
30 54 46 27 62 -14 8 -11 12 22 26 22 9 53 19 68 22 33 7 52 34 35 51 -18 18
-78 14 -123 -7 -49 -22 -105 -68 -105 -86 0 -7 -22 -27 -50 -45 -27 -18 -50
-36 -50 -40 0 -20 -62 -30 -167 -28 -94 3 -114 0 -130 -15 -27 -23 -84 -22
-116 3 -14 12 -47 30 -72 41 -25 11 -45 25 -45 32 0 7 11 82 24 167 13 85 24
162 24 170 -1 8 11 85 25 170 14 85 31 202 38 260 6 58 25 200 42 315 16 116
31 219 32 230 3 33 15 105 31 184 8 41 17 110 20 155 2 45 11 133 19 196 8 63
17 147 20 185 5 59 24 212 50 411 6 39 8 42 45 48 21 3 44 14 49 24 9 15 12
14 34 -11 16 -20 30 -28 46 -25 37 5 47 30 31 76 -12 40 -12 41 19 72 34 34
40 73 18 104 -17 23 -45 10 -78 -35 l-22 -31 -14 26 c-20 39 -46 30 -55 -19
-4 -22 -5 -52 -2 -67 8 -38 -4 -68 -26 -68 -10 0 -21 3 -23 8 -6 8 6 81 29
185 8 37 19 98 24 135 5 37 21 132 35 212 15 80 32 186 39 235 8 50 23 110 36
134 28 55 31 142 7 169 -20 21 -23 82 -5 100 17 17 38 15 38 -3 0 -8 10 -20
23 -26 12 -6 32 -21 44 -32 13 -11 26 -18 29 -14 11 10 -17 107 -35 120 -13 9
-17 27 -16 79 0 60 -3 70 -27 94 -26 27 -27 27 -54 10 -26 -18 -26 -20 -22
-92 3 -41 3 -74 0 -74 -3 0 -17 14 -31 30 -35 41 -79 45 -100 9 -14 -25 -13
-29 9 -62 14 -20 35 -41 48 -47 25 -11 25 -29 1 -40 -8 -4 -40 -19 -71 -33
-70 -32 -74 -44 -83 -237 -3 -74 -10 -146 -15 -160 -4 -14 -12 -43 -16 -65
l-7 -40 -11 27 c-16 37 -56 78 -76 78 -9 0 -25 -9 -35 -20 -11 -12 -25 -18
-36 -15 -9 3 -24 -2 -34 -11 -21 -22 -12 -79 17 -111 15 -16 19 -29 14 -48 -8
-33 7 -61 45 -81 35 -18 53 -9 63 31 7 27 24 33 32 11 3 -8 -2 -58 -11 -112
-31 -195 -34 -220 -39 -284 -3 -36 -10 -99 -16 -140 -5 -41 -19 -158 -30 -260
-11 -102 -25 -210 -30 -240 -5 -30 -12 -91 -15 -135 -8 -112 10 -65 26 67 6
57 20 153 30 213 l18 110 -6 -95 c-3 -52 -7 -113 -8 -135 -2 -22 -4 -73 -5
-112 -1 -48 -5 -73 -13 -73 -8 0 -7 -4 2 -9 8 -5 11 -16 8 -26 -4 -9 -11 -14
-16 -11 -5 3 -12 -1 -15 -10 -11 -27 -7 -37 9 -24 13 11 15 8 15 -14 0 -16 -6
-26 -14 -26 -8 0 -17 -6 -19 -12 -3 -8 -6 -6 -6 5 -1 9 -5 17 -10 17 -11 0
-17 -34 -81 -472 -6 -37 -9 -100 -9 -140 l2 -73 7 55 c4 30 12 111 19 180 7
69 21 170 32 225 10 55 19 112 19 127 0 41 9 56 31 51 10 -3 19 -11 19 -19 0
-7 -6 -11 -14 -8 -9 3 -15 -4 -18 -20 -3 -17 -1 -26 7 -26 16 0 21 -14 24 -67
2 -42 1 -43 -24 -33 -22 9 -25 7 -25 -15 0 -29 18 -43 26 -21 3 9 12 16 20 16
7 0 16 12 20 28 19 83 20 86 47 93 23 6 27 4 27 -15 0 -12 -11 -32 -24 -43
-13 -12 -31 -43 -40 -71 -10 -28 -24 -56 -32 -63 -10 -8 -12 -22 -8 -45 4 -22
2 -34 -5 -34 -6 0 -8 -6 -5 -14 3 -8 -2 -26 -11 -40 -16 -24 -16 -26 -1 -32
16 -6 16 -8 0 -25 -9 -10 -14 -27 -11 -39 3 -13 -2 -25 -16 -36 -22 -15 -22
-15 -3 -29 19 -14 19 -16 1 -102 -10 -49 -19 -101 -19 -118 -1 -16 -8 -62 -15
-101 -17 -89 -9 -137 24 -152 22 -10 25 -9 25 8 0 10 -9 22 -20 25 -11 3 -20
13 -20 21 0 11 6 13 22 9 13 -4 27 -11 32 -15 10 -10 -2 -70 -15 -70 -5 0 -9
-7 -9 -16 0 -11 -6 -14 -21 -9 -16 5 -20 3 -16 -6 2 -8 10 -13 16 -12 6 2 11
-11 11 -32 0 -19 -5 -35 -11 -35 -7 0 -9 -10 -5 -25 9 -37 0 -45 -34 -33 -33
11 -32 4 -35 228 -2 127 -8 145 -15 45 -12 -157 -10 -1254 1 -1226 5 13 16 81
24 150 8 69 21 169 30 221 8 52 15 100 15 107 0 14 56 -20 111 -68 30 -26 38
-41 42 -77 3 -30 0 -53 -9 -67 -12 -18 -12 -32 -4 -71 16 -69 51 -138 74 -143
17 -3 18 1 12 30 -4 19 -9 61 -12 94 -2 33 -10 90 -16 127 -6 36 -8 73 -5 82
10 27 35 7 42 -34 7 -40 29 -79 40 -69 3 4 2 39 -3 78 -11 94 -8 96 112 87 71
-5 103 -3 137 8 24 8 47 12 50 8 12 -12 39 -101 39 -126 0 -12 9 -48 19 -79
11 -32 27 -98 36 -149 9 -51 18 -94 21 -97 10 -11 22 23 14 39 -5 9 -12 41
-15 71 -4 30 -13 77 -20 104 -22 86 -28 155 -12 155 23 0 43 -32 56 -90 21
-93 39 -229 34 -250 -6 -24 15 -27 24 -4 3 9 -1 58 -10 108 -32 174 -32 186
-9 186 17 0 25 -12 41 -63 12 -40 17 -78 14 -106 -4 -34 -2 -42 8 -39 16 5 14
124 -2 166 -13 33 -11 52 5 52 26 0 35 -26 42 -118 9 -122 30 -121 25 1 -2 79
-1 87 16 87 37 0 94 -22 100 -38 3 -9 19 -29 36 -43 28 -24 31 -34 49 -160 21
-151 23 -159 39 -159 8 0 10 17 6 57 -12 116 -26 219 -35 258 -5 22 -10 67
-11 100 -1 33 -6 103 -12 155 -5 52 -12 163 -15 245 -3 83 -7 160 -10 172 -3
15 2 26 15 32 10 6 22 22 25 35 7 28 40 50 62 42 21 -8 17 -26 -5 -26 -12 0
-32 -18 -50 -45 -21 -31 -26 -45 -16 -45 7 0 17 5 20 11 4 5 18 15 33 20 31
12 53 -4 34 -23 -10 -10 -14 -10 -21 0 -6 10 -15 5 -35 -18 -27 -33 -33 -50
-16 -50 6 0 10 5 10 11 0 6 6 9 13 6 6 -2 11 -10 9 -16 -1 -7 7 -6 21 4 30 19
37 12 37 -38 0 -34 -3 -39 -19 -34 -13 3 -30 -6 -52 -29 -31 -32 -35 -60 -5
-35 26 22 38 2 16 -26 -24 -31 -26 -51 -3 -32 12 11 17 11 20 2 3 -9 11 -8 29
4 14 8 26 14 28 12 2 -2 7 -39 11 -81 5 -55 4 -78 -4 -78 -10 0 -15 14 -12 34
1 4 -3 14 -9 22 -7 7 -9 23 -4 36 6 21 5 22 -11 8 -9 -8 -27 -19 -38 -25 -25
-12 -38 -52 -25 -77 4 -10 11 -50 14 -89 3 -40 7 -76 10 -81 3 -4 -2 -11 -10
-14 -20 -8 -21 -33 -1 -40 10 -4 15 -21 15 -54 0 -46 13 -71 28 -55 4 4 7 39
8 78 0 40 4 80 8 90 13 27 36 21 36 -10 2 -93 11 -209 20 -245 5 -24 10 -61
10 -83 1 -73 8 -85 51 -85 22 0 39 5 39 10 0 13 63 13 77 -1 15 -15 58 -7 58
11 0 10 -12 16 -37 18 -21 2 -38 7 -38 11 0 16 113 21 196 9 65 -9 91 -9 117
0 18 7 47 12 65 12 23 0 36 8 53 31 26 36 39 25 39 -33 0 -47 8 -68 27 -68 13
0 15 11 9 73 -4 39 -9 130 -13 201 -5 103 -3 130 8 137 26 16 30 9 13 -22 -15
-29 -15 -31 0 -26 18 7 23 -18 6 -28 -6 -3 -10 -12 -10 -18 1 -7 9 -2 19 10
15 18 25 21 55 16 35 -5 51 -23 21 -23 -17 0 -29 -40 -21 -68 5 -14 -1 -24
-19 -36 -32 -21 -27 -42 8 -38 29 4 36 -15 15 -36 -8 -8 -8 -15 2 -27 12 -14
10 -20 -15 -39 -33 -26 -27 -49 11 -40 20 5 24 2 24 -15 0 -12 6 -21 15 -21 8
0 15 9 15 20 0 26 20 26 27 0 4 -15 14 -20 41 -20 33 0 35 1 16 14 -11 9 -20
27 -20 48 -1 18 -5 57 -9 87 -7 46 -6 56 10 67 17 13 17 14 2 14 -10 0 -17 8
-17 19 0 15 8 18 43 18 23 0 73 4 111 8 60 7 71 6 82 -9 9 -12 19 -16 34 -11
21 7 21 8 4 26 -16 18 -27 19 -108 13 -50 -3 -111 -7 -136 -8 l-45 -1 -1 55
c-1 107 -25 405 -35 444 -14 51 -12 167 3 241 l13 60 60 -3 c33 -2 67 -10 76
-18 8 -7 31 -17 50 -20 19 -4 43 -13 54 -21 47 -32 77 0 31 34 -21 16 -22 20
-9 40 25 37 11 51 -41 46 -25 -3 -46 -3 -46 0 0 5 54 32 87 42 38 11 41 -5 68
-351 2 -34 9 -74 15 -89 6 -15 7 -31 4 -36 -3 -6 1 -42 10 -82 8 -40 16 -87
18 -106 3 -32 1 -35 -32 -43 -19 -4 -74 -9 -121 -11 -61 -2 -93 -7 -112 -20
-52 -34 -19 -72 52 -61 40 6 48 24 10 24 -24 0 -25 17 -1 24 9 2 58 7 107 11
67 5 94 3 107 -7 24 -19 58 -170 73 -322 6 -61 25 -116 41 -116 9 0 8 18 -2
72 -8 40 -21 113 -30 163 -8 50 -26 153 -40 230 -54 309 -63 375 -65 481 -2
72 -11 146 -49 364 -12 72 -20 107 -63 275 -38 153 -44 227 -19 223 9 -2 26
17 43 47 33 58 34 65 13 65 -11 0 -14 6 -9 23 l6 22 -17 -23 c-11 -15 -27 -22
-50 -22 -19 0 -34 4 -34 9 0 17 20 23 35 11 10 -9 19 -4 39 23 26 34 35 64 16
52 -5 -3 -10 0 -10 8 0 8 -6 17 -14 20 -16 6 -36 -11 -36 -30 0 -13 -22 -18
-33 -7 -3 4 1 17 9 30 9 13 13 28 9 34 -9 14 38 13 70 -2 14 -6 25 -18 25 -27
0 -9 9 -27 20 -41 24 -31 25 -46 3 -59 -13 -8 -15 -13 -6 -19 10 -6 32 -95 34
-142 2 -27 39 -214 56 -281 16 -63 14 -99 -5 -99 -5 0 -12 14 -16 30 -3 17 -9
29 -13 28 -14 -5 -15 6 -4 35 7 17 7 34 2 45 -5 9 -14 30 -20 46 -11 28 -12
28 -31 11 -11 -10 -20 -25 -20 -34 0 -12 3 -12 12 -3 7 7 16 12 20 12 14 0 9
-27 -7 -40 -19 -16 -20 -84 -1 -99 10 -8 12 -24 9 -51 -5 -38 -5 -39 28 -42
24 -2 33 -7 30 -18 -2 -8 -3 -27 -2 -41 0 -15 -5 -32 -12 -38 -13 -10 -10 -60
8 -141 2 -8 4 -19 4 -24 1 -5 10 -1 21 9 25 23 33 15 21 -19 -6 -14 -8 -33 -5
-41 4 -8 1 -22 -6 -30 -10 -12 -10 -21 -1 -41 16 -37 14 -106 -6 -134 -14 -21
-14 -23 -1 -12 13 10 17 10 22 -3 3 -9 1 -25 -4 -36 -8 -14 -8 -19 1 -17 7 2
17 -20 24 -52 7 -30 17 -68 23 -85 6 -16 14 -43 19 -60 11 -39 38 -45 47 -9 4
15 2 32 -3 37 -13 13 -14 37 -3 37 5 0 15 -18 22 -39 12 -36 11 -42 -9 -67
-11 -14 -21 -33 -21 -40 0 -8 -6 -14 -12 -14 -7 0 -21 -11 -30 -24 -15 -21
-15 -25 -3 -30 8 -3 15 -15 15 -26 0 -11 5 -19 12 -18 7 2 15 -12 18 -32 4
-27 10 -36 28 -38 16 -3 22 -8 18 -19 -3 -8 -6 -21 -6 -29 0 -8 -6 -14 -14
-14 -8 0 -22 -10 -30 -21 -13 -19 -13 -24 0 -36 16 -17 18 -29 4 -38 -6 -3
-10 -11 -10 -17 0 -7 4 -7 13 1 7 6 29 9 47 6 45 -5 49 -1 39 42 -8 38 -1 128
10 118 3 -3 6 -20 7 -38 2 -18 6 -58 10 -90 l7 -58 -32 -12 c-35 -13 -38 -23
-14 -56 l16 -24 24 29 23 29 0 -32 c0 -28 3 -33 25 -33 14 0 25 1 25 3 0 1 -7
38 -16 82 -8 44 -19 112 -24 150 -16 124 -28 189 -43 235 -8 25 -20 72 -27
105 -6 33 -20 92 -30 130 -11 39 -22 111 -25 160 -3 50 -10 106 -15 125 -6 19
-10 50 -10 69 0 19 -5 49 -12 68 -14 39 -9 47 37 45 35 -1 208 -86 250 -122
30 -25 70 -37 168 -50 100 -14 119 -33 25 -25 -155 13 -185 18 -242 47 -54 27
-86 31 -86 9 0 -5 25 -23 55 -40 48 -27 71 -33 199 -46 80 -8 152 -18 160 -21
20 -8 29 12 14 35 -7 11 -9 23 -5 27 10 10 37 -16 37 -36 0 -10 7 -23 15 -30
31 -25 15 -31 -62 -24 -43 3 -89 7 -103 8 -36 2 -32 -27 5 -34 28 -6 25 -7
-30 -23 -69 -20 -87 -29 -93 -45 -5 -16 77 -92 102 -93 11 0 35 -2 51 -5 70
-9 121 -3 147 16 23 17 37 19 107 13 44 -3 78 -9 76 -13 -3 -4 -36 -11 -75
-14 -89 -9 -169 -32 -196 -57 -11 -10 -42 -23 -69 -28 -36 -7 -56 -18 -79 -44
-37 -42 -53 -48 -129 -52 -31 -1 -64 -8 -72 -15 -18 -15 -20 -46 -4 -56 8 -5
6 -10 -5 -16 -9 -5 -16 -15 -16 -21 0 -17 115 -47 187 -48 l58 -1 -55 -15
c-30 -8 -61 -21 -69 -28 -13 -12 -11 -16 10 -23 19 -8 25 -6 27 8 3 17 40 30
86 30 12 0 31 7 42 15 19 15 19 15 -1 30 -14 12 -34 14 -81 9 -65 -7 -134 1
-134 15 0 5 23 11 51 13 48 5 80 21 67 34 -4 3 -34 8 -67 11 -73 7 -82 23 -11
22 65 -2 156 34 173 69 9 19 25 29 59 38 26 6 59 21 73 32 56 45 254 69 365
46 56 -11 75 -12 86 -3 11 9 22 8 48 -6 34 -19 37 -24 51 -112 3 -17 9 -42 14
-55 5 -13 21 -73 35 -133 15 -61 29 -119 33 -130 3 -11 9 -45 13 -75 16 -102
32 -160 46 -160 19 0 18 23 -6 115 -27 104 -27 135 1 128 11 -3 18 -11 15 -18
-3 -10 6 -9 41 1 74 22 71 9 -12 -49 -30 -21 -33 -41 -5 -32 25 8 27 -15 4
-50 -16 -25 -7 -34 13 -14 15 15 28 -8 13 -25 -8 -11 -5 -19 16 -35 30 -23 49
-27 60 -10 5 8 9 8 14 -1 4 -6 21 -10 37 -8 l30 3 -17 80 c-10 44 -37 164 -60
268 -24 103 -40 191 -36 194 9 9 138 -59 144 -75 2 -7 -7 -12 -25 -12 -88 -1
-54 -51 53 -79 38 -10 84 -25 102 -35 32 -16 52 -15 52 5 0 5 -20 19 -46 31
-38 19 -44 26 -39 45 7 28 -54 91 -100 104 -18 5 -48 22 -68 37 -19 15 -48 34
-64 43 -27 15 -32 27 -51 110 -33 149 -34 145 12 141 22 -2 56 -12 77 -23 51
-26 65 -24 98 11 l27 30 62 -26 c34 -15 64 -34 66 -43 3 -9 8 -52 11 -97 8
-99 -3 -116 -56 -85 -19 10 -50 22 -69 25 -48 8 -103 43 -97 61 8 19 -18 38
-43 30 -46 -15 -6 -84 63 -108 23 -8 61 -20 85 -26 58 -16 112 -65 112 -101 0
-16 7 -62 16 -102 8 -40 19 -95 24 -123 5 -27 12 -60 16 -72 5 -20 3 -23 -21
-23 -24 0 -26 -2 -15 -15 7 -9 22 -14 34 -13 18 3 22 -5 32 -57 7 -33 13 -62
14 -65 1 -3 2 -13 1 -23 -2 -13 5 -17 31 -17 l33 0 -3 53 c-3 42 1 58 17 77
18 21 20 22 15 5 -5 -14 -4 -17 4 -10 14 12 4 55 -12 56 -40 3 -58 7 -66 15
-15 15 3 99 20 100 31 2 35 5 21 13 -11 7 -11 13 0 37 25 50 40 39 55 -37 5
-23 -23 -58 -34 -41 -6 9 -14 4 -30 -18 -22 -30 -22 -30 -2 -30 11 0 20 -4 20
-8 0 -4 15 -6 33 -4 27 3 34 -1 45 -24 6 -16 12 -38 12 -50 0 -26 -28 -53 -38
-37 -4 6 -17 -2 -30 -19 -23 -28 -23 -28 -3 -28 22 0 28 -14 11 -25 -25 -16
-4 -25 57 -25 36 0 63 3 59 7 -3 4 -25 7 -49 7 -55 1 -59 27 -4 31 20 1 40 5
43 8 8 8 -14 131 -31 178 -14 36 -49 260 -60 379 -4 36 -8 83 -11 105 -2 22
-8 105 -14 185 -5 80 -12 164 -15 187 -3 23 -2 43 2 46 12 8 104 -18 103 -29
0 -5 -15 -14 -33 -20 -34 -11 -43 -30 -33 -70 10 -37 46 -33 46 5 0 28 15 49
26 38 3 -3 8 -61 10 -129 4 -98 9 -126 22 -136 9 -7 20 -8 25 -3 5 5 9 67 9
137 l0 127 96 -6 c107 -7 145 3 150 40 2 12 -6 31 -17 42 -19 19 -33 21 -130
21 -108 0 -137 8 -112 33 7 7 36 7 98 0 88 -10 113 -8 113 8 0 18 -44 30 -120
32 -44 1 -80 5 -80 8 0 7 -6 6 123 15 64 5 96 11 94 18 -4 11 -161 11 -199 0
-20 -6 -33 12 -16 22 6 4 50 8 97 9 101 1 121 20 32 30 -59 7 -59 7 -40 26 27
27 16 39 -36 39 -62 0 -95 -15 -108 -50 -6 -17 -19 -30 -28 -30 -30 0 -79 -22
-79 -36 0 -15 49 -44 75 -44 8 0 15 -4 15 -8 0 -11 -99 -36 -108 -27 -4 3 -8
40 -10 80 -4 63 -1 78 18 104 12 17 30 31 41 31 25 0 24 -14 -3 -33 l-23 -16
23 0 c25 -1 62 31 62 54 0 9 -11 20 -25 25 -35 13 -40 35 -20 81 10 21 15 42
11 46 -4 4 -24 -1 -44 -12 -36 -19 -37 -22 -42 -88 -3 -37 -9 -68 -15 -70 -8
-2 -14 31 -44 268 -6 44 -24 175 -41 290 -45 308 -60 445 -54 486 5 31 2 41
-23 69 -22 25 -38 33 -61 32 -42 -1 -40 11 4 37 38 22 42 46 12 65 -13 8 -26
7 -50 -2 -39 -14 -45 -10 -29 24 10 22 9 31 -4 51 -26 40 -56 46 -82 17 -29
-32 -29 -50 2 -78 32 -30 31 -36 -4 -36 -16 0 -39 -11 -56 -26 -26 -24 -26
-26 -10 -45 22 -23 37 -24 75 -4 35 18 49 3 16 -18 -12 -9 -29 -29 -35 -46
-11 -25 -10 -35 3 -62 9 -18 16 -41 16 -52 0 -12 5 -46 10 -76 6 -31 26 -161
44 -289 l33 -232 -21 -25 c-27 -32 -36 -31 -36 0 0 14 -7 37 -16 51 -19 28
-35 21 -60 -29 -14 -25 -14 -31 1 -53 12 -19 24 -24 60 -24 51 0 63 -24 20
-40 -14 -5 -31 -21 -37 -36 -10 -22 -10 -28 6 -40 16 -11 23 -11 46 1 28 15
58 45 44 45 -5 0 -18 -7 -28 -15 -27 -20 -36 -19 -36 5 0 18 33 40 60 40 33 0
54 -122 90 -525 6 -60 15 -143 21 -183 6 -41 9 -76 6 -78 -2 -2 -30 5 -62 16
-76 26 -82 25 -100 -10 -17 -32 -39 -38 -64 -16 -23 19 -78 36 -121 36 l-37 0
-21 89 c-12 49 -33 158 -47 243 -23 137 -79 416 -105 523 -5 22 -26 112 -46
200 -20 88 -42 180 -50 204 -8 25 -14 57 -14 72 0 14 -7 43 -15 62 -21 51 -19
57 15 51 61 -13 105 47 59 80 -18 12 -20 21 -15 51 10 49 0 75 -28 75 -31 0
-42 -16 -50 -72 -8 -51 -22 -63 -31 -25 -3 12 -12 51 -21 87 -36 151 -44 198
-44 252 0 60 -41 240 -60 263 -7 8 -8 40 -4 93 5 65 3 88 -10 116 -22 46 -62
77 -97 74 -16 -1 -37 6 -48 16 l-21 19 21 33 c23 37 19 51 -17 64 -17 7 -24
17 -24 35 0 30 -26 85 -40 85 -23 0 -51 -65 -48 -111 2 -37 -2 -51 -24 -78
-16 -18 -28 -39 -28 -46 0 -31 53 -38 90 -11 8 6 5 -1 -7 -15 -27 -29 -29 -48
-8 -75 8 -10 15 -32 15 -47 0 -15 11 -49 23 -75 14 -26 25 -69 26 -96 1 -28 4
-53 7 -58 21 -34 56 -193 64 -298 6 -69 20 -161 30 -205 10 -44 21 -100 24
-125 16 -121 96 -433 155 -600 32 -92 52 -176 102 -425 38 -194 43 -225 35
-225 -4 0 -28 11 -54 24 -26 14 -72 36 -102 49 -71 31 -93 56 -125 142 -15 39
-34 89 -43 112 -15 39 -15 44 7 111 21 66 22 71 6 103 -41 86 -49 99 -60 99
-7 0 -19 8 -29 18 -16 19 -24 44 -61 187 -10 39 -26 90 -36 115 -9 25 -29 116
-43 204 -24 147 -48 234 -137 499 -22 66 -27 93 -19 107 16 31 12 117 -9 158
-10 20 -24 62 -31 92 -7 30 -25 78 -40 105 -16 28 -40 71 -53 98 -14 26 -50
75 -80 110 -29 34 -67 82 -84 107 -17 25 -40 54 -52 64 -32 29 -27 71 15 129
47 65 90 194 99 294 8 91 28 170 50 198 15 19 16 18 10 -18 -5 -34 -3 -39 25
-55 22 -12 33 -28 40 -57 14 -53 51 -124 74 -140 21 -16 64 -10 110 12 28 15
30 14 67 -29 21 -23 38 -46 39 -50 0 -3 15 -32 33 -65 18 -32 43 -89 56 -128
13 -38 35 -86 50 -106 94 -128 113 -147 159 -155 34 -7 49 -19 56 -48 4 -16
15 -25 36 -29 21 -5 30 -12 30 -26 0 -27 25 -44 55 -37 21 5 28 0 50 -34 30
-47 57 -66 107 -75 31 -6 37 -4 43 14 3 12 11 21 17 21 5 0 7 -7 4 -16 -4 -10
22 -46 77 -107 46 -51 92 -102 102 -115 11 -13 29 -34 40 -46 11 -12 43 -51
70 -85 28 -35 66 -82 86 -105 34 -39 66 -80 167 -214 69 -92 71 -96 74 -132 3
-31 0 -35 -22 -38 -55 -8 -90 -73 -55 -102 8 -7 15 -29 15 -49 0 -27 7 -44 25
-61 35 -33 60 -18 61 36 0 22 3 46 7 54 3 8 8 35 9 60 3 51 19 60 28 15 11
-50 29 -74 71 -96 49 -25 80 -22 95 10 7 13 26 36 43 51 62 57 47 127 -41 184
-60 39 -145 124 -176 177 -12 20 -35 53 -52 74 -16 21 -30 42 -30 46 0 13 28
11 32 -3 6 -17 38 -2 38 18 0 9 -8 23 -17 30 -17 13 -17 15 0 28 13 10 17 28
17 75 0 66 -11 77 -34 33 -8 -16 -22 -35 -32 -43 -9 -8 -25 -26 -34 -42 l-17
-27 -24 24 c-13 13 -46 57 -74 97 -27 40 -57 80 -65 88 -62 66 -80 100 -80
147 0 32 -9 66 -25 98 -14 27 -25 55 -25 61 0 7 -9 24 -20 38 -12 15 -20 40
-20 65 0 22 -6 44 -13 50 -7 6 -46 12 -87 14 -69 3 -75 5 -89 30 -13 22 -13
30 -2 51 19 35 5 66 -37 84 -21 8 -43 18 -51 22 -20 10 -79 129 -116 235 -17
51 -24 60 -55 70 -24 7 -40 22 -52 44 -9 18 -23 41 -32 50 -8 10 -22 53 -31
97 -9 44 -23 95 -31 114 -20 48 -18 59 14 63 l27 3 0 105 c0 145 -25 204 -102
236 -26 11 -34 23 -48 71 -19 64 -51 105 -107 134 -21 11 -38 23 -38 28 0 5
-18 31 -40 59 -44 55 -110 92 -164 92 -28 0 -44 9 -79 45 -47 48 -53 50 -77
35 -12 -7 -10 -14 15 -40 l30 -32 -40 -34 c-22 -19 -58 -39 -80 -44 -55 -14
-70 -24 -70 -46 0 -14 7 -19 25 -18 37 3 92 26 131 55 44 33 93 42 157 28 45
-9 56 -17 94 -66 47 -60 61 -74 130 -134 28 -24 52 -55 59 -77 7 -20 21 -54
32 -75 22 -42 17 -67 -13 -67 -42 0 -130 -59 -130 -87 0 -7 5 -22 12 -33 11
-17 7 -24 -29 -55 -29 -25 -40 -41 -36 -52 11 -28 -11 -6 -31 32 l-20 36 23
15 c29 20 71 88 71 114 0 32 -24 23 -45 -16 -22 -40 -74 -82 -84 -67 -46 72
-192 246 -213 256 -16 6 -28 18 -28 25 0 14 -7 22 -105 131 -28 31 -64 73 -80
95 -17 21 -37 48 -47 60 l-16 21 84 1 c115 2 151 10 170 39 14 22 14 27 -6 66
-18 34 -20 47 -11 65 11 25 26 31 36 14 8 -13 57 -13 92 2 15 6 34 10 41 9 6
-1 12 3 12 9 0 5 10 10 23 10 30 0 65 37 77 81 5 19 14 52 19 75 6 23 27 61
46 85 24 30 40 66 51 115 21 88 14 133 -30 182 -20 23 -35 52 -39 77 -4 24
-18 50 -37 69 -24 25 -37 30 -72 29 -38 -2 -47 3 -94 47 -51 48 -55 50 -116
52 -146 4 -201 -8 -245 -54 -121 -129 -110 -120 -143 -103 -37 19 -47 15 -48
-24 0 -21 7 -34 24 -46 36 -24 25 -40 -25 -36 -23 1 -48 -3 -56 -9 -10 -8 -19
-8 -34 -1 -30 17 -37 -6 -10 -35 13 -14 34 -24 51 -24 32 0 36 -15 13 -48 -9
-12 -15 -30 -13 -39 2 -13 -5 -19 -27 -21 -16 -2 -34 -7 -38 -11 -8 -8 58 -81
74 -81 5 0 7 -11 3 -25 -6 -25 2 -30 66 -37 17 -2 26 -10 28 -26 4 -27 -22
-40 -44 -21 -16 13 -101 46 -144 56 -30 7 -70 41 -70 60 0 7 -21 35 -47 61
-143 144 -390 460 -465 595 l-37 69 14 56 c21 77 19 87 -15 115 -16 14 -30 35
-30 47 0 15 -12 26 -44 40 -24 11 -49 27 -56 35 -7 8 -19 15 -27 15 -8 0 -28
8 -45 18 -28 16 -30 16 -42 0 -7 -10 -17 -18 -22 -17 -13 1 -146 154 -186 214
-18 28 -42 68 -53 89 -11 22 -45 67 -76 100 -31 34 -63 77 -72 96 -21 50 -56
78 -115 92 -29 7 -52 18 -52 24 0 7 16 22 36 33 49 29 42 56 -19 75 -15 5 -17
12 -12 37 8 33 -10 79 -30 79 -13 0 -55 -83 -55 -110 0 -11 -6 -20 -14 -20
-21 0 -27 39 -11 77 13 31 13 38 -5 73 -18 36 -54 70 -73 70 -4 0 -10 -7 -14
-15z m57 -60 c20 -32 21 -75 1 -75 -11 0 -28 39 -35 78 -7 42 7 41 34 -3z
m130 -72 c0 -10 -12 -26 -25 -36 -29 -21 -31 -16 -8 24 20 33 33 38 33 12z
m-10 -95 c0 -16 -3 -19 -11 -11 -6 6 -8 16 -5 22 11 17 16 13 16 -11z m55 2
c-3 -5 -13 -10 -21 -10 -8 0 -12 5 -9 10 3 6 13 10 21 10 8 0 12 -4 9 -10z
m-213 -38 c12 -14 8 -15 -26 -9 -43 7 -51 11 -42 25 8 13 53 3 68 -16z m293
-117 c31 -38 55 -89 55 -117 0 -5 -6 -8 -14 -8 -7 0 -21 -12 -31 -26 -20 -30
-32 -26 -15 6 15 27 -8 78 -57 129 -32 33 -33 36 -17 48 28 20 39 16 79 -32z
m37 -187 l-22 -22 12 32 c8 21 16 28 22 22 7 -7 3 -18 -12 -32z m101 -7 c10
-8 15 -22 12 -32 -4 -12 2 -22 21 -31 15 -7 40 -38 57 -68 16 -30 49 -79 72
-108 l43 -52 -31 -33 c-33 -33 -48 -26 -27 14 16 29 0 45 -29 29 -20 -10 -21
-9 -15 27 4 30 1 43 -16 61 -23 25 -49 28 -69 10 -9 -9 -8 -1 3 26 24 57 19
65 -15 26 -33 -38 -34 -35 -14 40 l6 25 -21 -27 c-12 -16 -26 -28 -31 -28 -11
0 -12 33 0 46 13 14 23 64 12 64 -5 0 -16 -11 -25 -25 -28 -42 -36 -28 -13 23
23 52 30 53 80 13z m-88 -337 c35 -23 31 -38 -5 -19 -16 9 -30 20 -30 25 0 14
7 13 35 -6z m315 -3 c0 -6 -4 -13 -10 -16 -5 -3 -10 1 -10 9 0 9 5 16 10 16 6
0 10 -4 10 -9z m119 -97 c-6 -8 -16 -14 -21 -14 -13 0 -2 58 15 78 10 13 12
10 15 -17 2 -18 -2 -39 -9 -47z m-75 40 c9 -23 7 -64 -3 -64 -18 0 -33 30 -27
55 7 28 21 33 30 9z m151 -47 c-8 -20 -20 -37 -25 -37 -13 0 -13 16 1 64 9 34
13 37 25 24 13 -12 13 -19 -1 -51z m65 -9 c0 -45 -32 -130 -44 -118 -4 5 10
101 19 128 7 21 25 13 25 -10z m-181 -42 c8 -9 8 -16 2 -20 -6 -4 -15 3 -21
14 -12 23 2 27 19 6z m79 -56 c2 -23 1 -24 -11 -7 -8 9 -19 17 -26 17 -6 0
-11 5 -11 11 0 6 10 9 23 7 15 -2 23 -11 25 -28z m174 2 c-6 -42 -32 -92 -48
-92 -12 0 -15 5 -9 23 4 12 10 39 12 60 4 32 9 38 27 35 16 -2 20 -9 18 -26z
m-288 -79 c25 -28 27 -35 16 -48 -11 -13 -11 -18 -2 -24 9 -6 7 -14 -8 -33
-11 -15 -20 -33 -20 -42 0 -28 34 -17 64 20 25 31 33 35 60 31 17 -3 38 -8 47
-11 8 -4 25 2 38 13 32 28 45 16 24 -21 -25 -43 -54 -54 -103 -39 -47 14 -53
11 -70 -29 -15 -35 -22 -37 -65 -10 -52 32 -75 99 -49 148 7 15 14 39 14 53 0
28 10 44 19 32 4 -5 19 -22 35 -40z m131 -23 c-3 -5 -12 -10 -18 -10 -7 0 -6
4 3 10 19 12 23 12 15 0z m175 -126 c0 -24 -17 -15 -22 11 -4 20 -3 23 8 14 8
-6 14 -18 14 -25z m-414 -49 c33 -14 71 -32 86 -40 14 -8 33 -15 41 -15 27 0
61 -35 53 -55 -6 -16 -8 -16 -24 -2 -26 23 -109 57 -169 70 -44 9 -56 9 -63
-2 -10 -17 -70 -25 -70 -10 0 21 21 49 48 63 35 20 30 20 98 -9z m508 -56 c51
-72 57 -84 47 -105 -16 -36 -34 -30 -25 8 6 29 5 31 -9 19 -24 -19 -38 -5 -25
24 16 35 3 43 -22 14 -28 -34 -43 -9 -23 38 15 37 11 55 -9 35 -17 -17 -28
-15 -28 6 0 17 18 42 30 42 3 0 31 -37 64 -81z m-244 -6 c25 -31 64 -77 88
-103 23 -26 42 -50 42 -54 0 -4 -15 -4 -33 -1 -48 9 -82 -20 -72 -63 8 -37 47
-72 81 -72 21 0 24 -4 22 -38 -2 -53 17 -84 49 -80 20 2 29 12 38 37 l11 33
15 -23 c10 -15 27 -23 50 -25 27 -2 44 -13 82 -54 51 -56 61 -80 22 -54 -16
10 -31 13 -42 8 -10 -4 -25 -8 -33 -8 -20 -1 -25 -34 -7 -54 8 -9 17 -26 20
-37 3 -11 8 -30 12 -41 5 -18 0 -24 -26 -33 l-32 -11 5 -82 c7 -118 -34 -254
-101 -338 -26 -32 -27 -18 -2 18 13 18 26 72 39 167 32 215 33 230 18 251 -13
17 -15 17 -39 2 -29 -20 -39 -79 -33 -201 4 -78 -9 -132 -51 -213 -20 -40 -11
-68 20 -62 23 4 23 4 -8 -58 -46 -91 -49 -94 -93 -82 -20 5 -47 12 -59 15 -23
5 -23 6 -4 32 48 68 100 211 120 331 20 123 23 261 8 313 -18 57 -8 61 46 16
48 -40 72 -33 63 16 -7 34 -6 35 19 25 37 -14 45 -13 45 9 0 29 -47 44 -103
32 -35 -8 -52 -8 -74 3 -15 7 -49 24 -75 37 l-47 23 -24 -22 -23 -22 -21 22
c-23 22 -68 28 -110 13 -22 -7 -21 -4 12 78 19 47 42 117 51 157 14 64 20 74
50 92 29 17 34 26 34 56 0 23 -8 44 -22 59 -19 20 -20 25 -8 33 25 16 34 12
80 -47z m1391 -3 c10 -6 19 -20 19 -32 0 -21 0 -21 -25 2 -37 34 -34 51 6 30z
m-1667 -35 c14 -14 32 -25 41 -25 13 0 15 -7 10 -34 -6 -29 -3 -37 18 -50 l24
-17 -22 -80 c-29 -102 -35 -108 -80 -86 -43 21 -45 21 -45 3 0 -7 17 -26 37
-42 41 -31 31 -44 -16 -20 -40 21 -51 20 -51 -4 0 -13 12 -25 36 -35 36 -15
37 -16 19 -35 -17 -19 -20 -19 -36 -4 -19 17 -49 13 -49 -6 0 -6 11 -15 25
-22 23 -10 24 -12 9 -41 -21 -39 -4 -59 26 -32 19 18 20 18 20 -3 0 -32 19
-27 62 15 35 34 38 35 38 15 0 -32 26 -27 47 8 20 35 29 37 36 10 3 -14 10
-18 21 -14 9 3 30 1 46 -6 24 -10 33 -10 45 0 38 31 58 -44 50 -183 -6 -97
-29 -245 -40 -256 -3 -3 -15 4 -26 15 -16 16 -18 26 -11 45 6 14 11 45 13 69
3 36 1 45 -13 48 -18 4 -26 -10 -47 -78 -9 -31 -10 -32 -6 -5 2 17 6 47 10 68
5 29 2 39 -11 44 -23 9 -40 -17 -49 -72 -10 -67 -26 -55 -23 17 3 53 0 63 -15
66 -18 4 -22 -3 -32 -60 -3 -21 -11 -38 -16 -38 -8 0 -9 23 -4 70 6 60 5 70
-9 70 -18 0 -35 -29 -37 -62 -1 -13 -5 -5 -8 17 -9 63 -36 53 -58 -20 -4 -16
-15 -31 -24 -33 -12 -2 -16 7 -17 44 0 54 -14 73 -36 55 -8 -7 -18 -23 -22
-34 -17 -57 -63 -74 -90 -33 -8 14 -31 30 -49 36 -19 6 -47 26 -63 45 -26 29
-29 39 -25 82 7 62 85 227 160 338 32 47 67 101 78 119 100 168 112 178 159
131z m1651 -25 c3 -5 1 -10 -4 -10 -6 0 -11 5 -11 10 0 6 2 10 4 10 3 0 8 -4
11 -10z m-985 -112 c0 -4 14 -27 31 -52 31 -43 32 -66 3 -66 -9 0 -14 11 -14
32 0 30 0 31 -20 13 -24 -22 -36 -14 -21 13 16 30 15 47 -3 33 -20 -17 -30 3
-15 31 10 18 8 24 -7 35 -10 7 -21 13 -26 13 -4 0 -8 8 -8 17 0 12 11 6 40
-22 22 -21 40 -43 40 -47z m953 50 c9 -7 19 -26 23 -43 4 -18 3 -26 -2 -20 -5
6 -22 25 -38 43 -30 33 -19 46 17 20z m275 -16 c2 -7 -7 -12 -23 -12 -24 0
-26 2 -15 15 14 17 31 16 38 -3z m-1334 -67 c-5 -19 -9 -23 -15 -14 -4 7 -3
21 3 32 13 26 21 15 12 -18z m791 15 c3 -5 1 -10 -4 -10 -6 0 -11 5 -11 10 0
6 2 10 4 10 3 0 8 -4 11 -10z m-942 -17 c14 -9 7 -43 -10 -43 -18 0 -63 38
-63 53 0 8 55 1 73 -10z m1139 0 c14 -13 21 -14 30 -5 18 18 26 15 30 -10 4
-31 52 -54 83 -40 19 9 22 8 18 -7 -5 -21 28 -52 70 -66 30 -10 32 -13 29 -50
-2 -21 -7 -46 -12 -56 -5 -9 -6 -20 -2 -23 4 -4 7 -23 7 -42 0 -29 -3 -34 -18
-30 -20 5 -41 -22 -51 -66 -3 -15 -18 -35 -32 -45 -15 -10 -43 -36 -63 -58
-92 -101 -89 -99 -116 -81 -21 14 -27 14 -51 1 -35 -18 -46 -11 -118 62 l-56
58 0 65 c1 36 -2 80 -6 98 -4 19 -2 43 4 55 5 12 16 37 22 55 7 18 26 49 41
69 16 20 29 40 29 46 0 14 50 60 80 74 36 16 61 15 82 -4z m-207 -84 c-6 -9
-35 -1 -35 10 0 4 3 11 7 14 8 9 34 -13 28 -24z m-805 2 c0 -5 3 -16 6 -24 4
-12 0 -14 -15 -10 -24 6 -23 5 -15 27 7 17 24 22 24 7z m265 -60 c11 -18 39
-59 63 -91 23 -33 42 -69 42 -81 0 -33 -20 -61 -37 -55 -9 4 -24 -1 -33 -9
-14 -13 -20 -13 -26 -4 -4 7 2 19 17 31 45 34 49 39 49 61 l0 22 -18 -22 c-15
-20 -49 -29 -93 -25 -37 4 -23 101 16 116 17 6 21 46 5 46 -6 0 -21 -7 -34
-15 -19 -13 -25 -13 -34 -2 -8 10 -7 22 6 49 15 33 19 35 37 24 11 -7 29 -27
40 -45z m1055 28 c0 -5 -4 -9 -10 -9 -5 0 -10 7 -10 16 0 8 5 12 10 9 6 -3 10
-10 10 -16z m-1380 -19 c0 -13 -7 -20 -20 -20 -22 0 -28 25 -7 33 22 10 27 7
27 -13z m250 -74 c0 -11 -19 -15 -25 -6 -3 5 1 10 9 10 9 0 16 -2 16 -4z
m1120 -146 c0 -5 -7 -7 -15 -4 -8 4 -12 10 -9 15 6 11 24 2 24 -11z m-904 -5
c8 -21 -31 -72 -62 -79 -41 -11 -41 1 -1 38 20 19 37 39 37 45 0 16 20 13 26
-4z m-254 -180 c1 -95 -2 -132 -17 -178 -14 -43 -16 -60 -7 -69 17 -17 46 13
61 64 7 23 16 102 21 177 6 109 5 140 -6 156 -16 23 -18 35 -5 35 5 0 13 -9
16 -21 10 -31 92 -148 141 -201 24 -26 44 -53 44 -61 0 -27 39 -63 80 -76 41
-12 42 -13 35 -48 -4 -24 -1 -42 11 -60 16 -25 15 -30 -16 -127 -48 -152 -53
-169 -55 -196 -1 -14 -6 -42 -10 -63 -6 -31 -3 -44 16 -72 31 -44 61 -52 99
-25 46 33 96 100 114 155 18 53 60 105 86 105 16 0 213 -227 280 -322 32 -46
33 -48 16 -67 -60 -66 -117 -213 -122 -315 -7 -139 -12 -171 -39 -252 -33 -94
-49 -127 -84 -174 -14 -19 -31 -44 -36 -55 -6 -11 -19 -21 -30 -23 -28 -5 -55
-32 -55 -53 0 -23 30 -32 63 -20 23 9 32 5 81 -42 60 -58 148 -183 185 -264
13 -29 34 -56 47 -62 17 -7 28 -26 39 -68 9 -32 23 -76 31 -98 18 -53 18 -61
-3 -42 -10 8 -35 18 -55 22 -21 4 -42 13 -49 21 -18 22 -110 17 -181 -10 -117
-44 -181 -87 -204 -135 -26 -55 -42 -67 -122 -91 -59 -18 -65 -19 -88 -3 -21
13 -31 14 -65 4 -23 -7 -44 -10 -47 -6 -3 3 28 39 69 80 83 83 144 189 185
325 29 98 92 248 118 283 18 24 18 29 5 43 -14 13 -18 12 -43 -7 -23 -18 -96
-152 -96 -175 0 -3 -9 -24 -19 -47 -10 -23 -24 -62 -31 -87 -26 -101 -45 -148
-86 -215 -45 -73 -146 -171 -164 -160 -6 4 -17 1 -25 -5 -11 -9 -22 -9 -47 0
-26 10 -41 9 -74 -2 -33 -12 -49 -12 -75 -4 -49 16 -41 44 32 124 33 37 80 96
104 132 24 36 53 71 64 78 14 8 21 23 21 41 0 17 4 32 9 35 4 3 11 21 14 40 8
47 127 199 127 161 0 -2 -5 -15 -11 -29 -9 -20 -9 -29 1 -41 17 -20 26 -12 55
45 37 73 32 97 -15 68 -17 -11 -22 -10 -30 2 -14 23 -55 -5 -116 -80 -54 -67
-74 -105 -74 -142 0 -12 -19 -42 -42 -68 -24 -26 -65 -77 -93 -114 -85 -115
-88 -117 -135 -127 -93 -17 -144 -12 -185 21 -21 17 -50 30 -64 30 -15 0 -35
6 -46 14 -31 20 -113 44 -181 51 -48 5 -69 3 -94 -10 -17 -9 -34 -15 -36 -12
-2 2 0 26 5 53 5 27 15 80 22 118 25 145 105 322 210 465 100 136 135 176 164
190 17 7 41 27 54 43 24 30 24 32 8 60 -19 33 -22 74 -7 83 5 3 7 25 4 48 -3
23 2 80 11 127 9 47 20 141 26 210 5 69 14 135 19 148 16 37 12 63 -10 69 -29
8 -24 40 9 57 22 12 36 35 66 111 21 53 62 133 90 178 28 45 64 119 79 164 26
76 28 90 21 173 -5 63 -4 95 4 104 7 8 11 25 10 38 -1 12 -1 32 0 43 7 48 21
-59 23 -170z m312 126 c26 -27 27 -32 16 -65 -12 -38 -21 -44 -38 -23 -7 8 -6
18 4 31 32 44 12 49 -30 7 -57 -56 -78 -46 -31 16 19 25 35 50 35 54 0 17 16
9 44 -20z m104 -11 c21 -20 30 -50 15 -50 -12 0 -53 46 -53 59 0 17 14 13 38
-9z m179 -52 c17 -24 45 -58 62 -75 17 -18 31 -37 31 -42 0 -5 14 -14 31 -21
24 -10 41 -11 81 -1 28 6 53 9 56 7 2 -3 -6 -24 -19 -47 -32 -57 -109 -100
-142 -79 -12 8 -35 20 -50 28 -16 8 -33 24 -38 36 -6 12 -30 33 -54 46 -23 13
-49 35 -58 49 -17 30 -12 91 9 91 7 0 21 11 31 25 10 13 21 25 24 25 3 0 19
-19 36 -42z m534 -21 c-10 -9 -11 -8 -5 6 3 10 9 15 12 12 3 -3 0 -11 -7 -18z
m-733 -26 c49 -52 70 -78 82 -100 7 -13 32 -48 56 -78 28 -35 41 -59 37 -69
-6 -15 -8 -15 -20 2 -7 10 -13 25 -13 33 0 10 -9 6 -30 -14 -36 -34 -47 -28
-26 14 9 16 16 40 16 53 -1 22 -3 21 -30 -11 -34 -40 -52 -34 -27 8 21 36 22
51 1 51 -9 0 -18 9 -21 21 -5 19 -8 18 -33 -13 -16 -18 -31 -30 -36 -26 -4 5
0 16 8 25 8 10 16 36 16 57 l2 39 -24 -22 c-30 -28 -43 -12 -20 24 19 30 38
32 62 6z m-86 -96 c-2 -14 -8 -25 -13 -25 -10 0 -11 12 -3 34 10 25 22 19 16
-9z m99 -58 c-13 -13 -26 -3 -16 12 3 6 11 8 17 5 6 -4 6 -10 -1 -17z m215
-118 c3 -6 -1 -18 -10 -27 -14 -14 -18 -15 -25 -3 -5 8 -7 20 -4 28 6 16 29
17 39 2z m-186 -26 c0 -9 28 -47 62 -86 l61 -69 -25 -21 c-33 -29 -51 -60 -72
-127 -26 -82 -68 -121 -106 -100 -14 7 -20 21 -20 43 1 58 28 149 61 201 33
52 41 111 24 166 -5 15 -4 20 4 16 6 -4 11 -14 11 -23z m100 13 c0 -3 -4 -8
-10 -11 -5 -3 -10 -1 -10 4 0 6 5 11 10 11 6 0 10 -2 10 -4z m196 -122 c13
-19 12 -26 -12 -63 -21 -32 -30 -38 -41 -30 -17 15 -17 35 1 42 15 6 32 64 22
74 -3 4 -17 -6 -30 -20 -41 -44 -62 -35 -26 10 27 35 25 53 -5 53 -18 0 -25 5
-25 18 0 10 3 22 7 26 7 7 81 -67 109 -110z m48 -63 c3 -5 -2 -19 -12 -31
l-18 -22 2 28 c1 16 2 30 3 32 3 6 20 1 25 -7z m41 -71 c-9 -28 -29 -25 -21 3
3 12 6 29 6 37 1 12 3 11 11 -3 6 -9 7 -26 4 -37z m-47 -66 c-9 -8 -49 57 -42
68 4 7 15 -4 26 -26 11 -21 18 -40 16 -42z m102 22 c0 -11 -19 -15 -25 -6 -3
5 1 10 9 10 9 0 16 -2 16 -4z m68 -63 c24 -22 177 -215 193 -245 7 -12 23 -33
36 -47 37 -39 61 -108 28 -81 -8 7 -15 18 -15 24 0 6 -9 17 -20 24 -11 7 -20
21 -20 32 0 24 -15 26 -24 3 -5 -11 -10 -13 -17 -6 -8 8 -8 17 0 31 21 40 10
36 -34 -13 -29 -33 -44 -44 -45 -33 0 9 11 25 23 35 20 16 43 73 29 73 -2 0
-20 -13 -39 -30 -38 -33 -48 -36 -56 -16 -4 9 0 12 12 9 12 -3 22 7 34 32 9
20 17 43 17 52 0 14 -2 14 -20 -2 -11 -10 -23 -16 -26 -13 -7 8 -7 39 2 67 6
21 5 22 -15 12 -11 -7 -21 -18 -21 -25 0 -20 -28 -39 -47 -32 -15 6 -14 8 5
22 24 17 57 73 48 82 -3 3 -14 -2 -23 -10 -10 -8 -31 -18 -46 -22 l-28 -7 25
38 c31 45 33 56 6 48 -11 -4 -20 -2 -20 4 0 17 36 13 58 -6z m582 -102 c0 -9
-5 -22 -12 -29 -14 -14 -67 -16 -88 -2 -11 7 -7 10 17 10 31 0 63 21 63 41 0
6 5 7 10 4 6 -3 10 -14 10 -24z m39 -185 c-5 -5 -26 -2 -51 7 -64 25 -99 21
-146 -13 -47 -34 -63 -39 -40 -12 9 9 22 31 31 47 11 22 23 30 44 32 44 2 131
27 145 41 11 11 14 4 19 -40 3 -29 2 -57 -2 -62z m-2849 62 c0 -25 -3 -29 -10
-18 -13 20 -13 50 0 50 6 0 10 -15 10 -32z m-105 -79 c4 -12 3 -25 -3 -31 -15
-15 -52 9 -52 32 0 29 46 27 55 -1z m2363 -46 c-15 -19 -28 -16 -28 6 0 11 -4
22 -10 26 -5 3 -6 13 -3 22 5 13 10 11 29 -12 17 -22 20 -32 12 -42z m112 3
c0 -15 -18 -31 -26 -23 -7 7 7 37 17 37 5 0 9 -6 9 -14z m230 -27 c0 -5 -9 -9
-20 -9 -22 0 -27 16 -7 23 15 5 27 -1 27 -14z m204 -41 c9 -12 16 -37 16 -55
0 -17 11 -58 24 -90 13 -32 30 -74 37 -93 7 -19 37 -57 65 -85 47 -46 114
-155 114 -188 0 -7 13 -39 29 -70 16 -31 25 -54 20 -51 -13 8 -119 139 -149
184 -26 38 -101 129 -177 212 -24 26 -43 55 -43 66 0 10 14 28 30 40 34 26 38
40 13 49 -41 15 -55 60 -27 87 21 21 30 20 48 -6z m-270 -4 c8 -21 -9 -50 -35
-57 -19 -5 -20 -4 -5 12 9 10 13 20 10 24 -9 8 3 37 15 37 5 0 12 -7 15 -16z
m-196 -53 c-2 -10 -12 -15 -25 -13 -12 2 -24 -2 -28 -8 -8 -13 -25 -3 -25 16
0 7 10 25 22 40 l23 25 18 -22 c10 -12 16 -29 15 -38z m232 -10 c0 -23 -28
-48 -64 -57 l-30 -7 38 46 c38 46 56 52 56 18z m150 -6 c-7 -8 -17 -15 -22
-15 -6 0 -5 7 2 15 7 8 17 15 22 15 6 0 5 -7 -2 -15z m-2795 -30 c10 -45 0
-88 -22 -96 -21 -8 -22 -6 -17 44 4 44 3 49 -7 30 -16 -31 -31 -29 -23 2 6 24
4 25 -27 23 -25 -2 -35 -9 -43 -30 -11 -31 -33 -32 -28 -2 6 35 35 49 101 49
54 0 62 -2 66 -20z m2545 11 c0 -3 -4 -8 -10 -11 -5 -3 -10 -1 -10 4 0 6 5 11
10 11 6 0 10 -2 10 -4z m140 -21 l24 -25 -39 -40 c-21 -22 -41 -37 -44 -34 -3
3 2 10 12 15 9 6 17 20 17 32 0 13 6 29 13 37 6 8 1 6 -13 -5 -14 -11 -31 -26
-37 -34 -7 -8 -16 -12 -19 -8 -6 6 46 86 57 87 3 0 16 -11 29 -25z m-221 -7
c-1 -25 -15 -46 -46 -73 -29 -23 -33 -24 -33 -8 0 10 14 26 30 35 18 10 30 25
30 38 0 11 5 20 10 20 6 0 10 -6 9 -12z m266 -58 c3 -6 -1 -7 -9 -4 -18 7 -21
14 -7 14 6 0 13 -4 16 -10z m28 -34 c4 -10 -2 -16 -16 -18 -17 -2 -23 -11 -25
-35 -2 -19 1 -33 7 -33 17 0 52 40 46 50 -15 24 12 6 61 -40 29 -27 57 -50 62
-50 5 0 40 -39 78 -87 38 -48 85 -106 104 -129 19 -23 55 -68 80 -100 25 -32
75 -91 112 -132 37 -41 73 -88 80 -103 7 -16 21 -32 30 -35 26 -8 22 -24 -6
-24 -13 0 -33 -3 -43 -7 -17 -6 -17 -6 0 14 23 26 22 36 -3 23 -17 -9 -70 -5
-70 6 0 2 10 14 22 26 20 20 21 23 6 26 -9 2 -20 12 -23 23 -8 25 -21 24 -61
-6 -40 -31 -59 -14 -22 19 53 45 37 75 -22 41 -48 -27 -55 -15 -15 23 l40 37
-34 3 c-18 2 -38 -1 -44 -7 -15 -15 -27 -14 -27 2 0 6 13 21 30 32 43 29 20
40 -29 14 -56 -29 -64 -16 -18 26 32 30 51 64 30 53 -5 -2 -21 -10 -38 -17
-16 -7 -39 -18 -49 -23 -14 -7 -10 1 12 30 36 44 40 57 16 48 -26 -10 -35 4
-18 30 25 37 -2 30 -43 -11 -26 -26 -39 -33 -47 -25 -8 8 -5 16 10 28 22 17
41 72 26 72 -5 0 -19 -11 -32 -25 -26 -27 -50 -33 -50 -12 0 8 9 22 19 31 18
17 25 56 10 56 -3 0 -18 -9 -32 -20 -36 -29 -37 -26 -11 27 26 50 24 66 -3 40
-10 -8 -31 -19 -48 -23 -29 -7 -29 -6 -14 12 9 10 21 28 27 40 11 20 9 21 -39
16 -42 -4 -54 -1 -74 18 -31 29 -31 35 3 75 31 38 38 41 45 21z m-2808 -57
c-3 -4 -12 -6 -20 -3 -8 4 -13 10 -10 15 3 4 12 6 20 3 8 -4 13 -10 10 -15z
m-75 -20 c0 -5 -9 -9 -20 -9 -11 0 -20 6 -20 14 0 9 7 12 20 9 11 -3 20 -9 20
-14z m-2 -46 c5 -18 -10 -16 -34 2 -18 15 -18 15 5 13 14 -2 26 -9 29 -15z
m43 -65 c10 -18 8 -24 -10 -37 -15 -12 -20 -22 -15 -35 5 -13 1 -23 -11 -32
-13 -10 -15 -17 -7 -26 13 -16 9 -75 -6 -90 -8 -8 -9 -15 -1 -25 8 -9 8 -17 0
-27 -9 -10 -8 -16 4 -26 14 -12 13 -16 -11 -41 -29 -31 -27 -58 7 -66 27 -7
20 -37 -9 -41 -18 -3 -26 5 -42 40 -19 43 -19 43 1 46 10 2 17 8 13 13 -3 6 1
18 11 28 15 17 15 21 -5 56 -12 21 -19 44 -15 53 3 8 -3 23 -15 34 -25 24 -17
42 12 27 16 -9 23 -8 29 2 12 19 11 36 -1 44 -16 10 -12 25 6 25 11 0 14 5 10
17 -4 9 -1 20 5 24 6 4 12 18 12 33 0 32 22 34 38 4z m-70 1 c11 -5 17 -14 14
-20 -7 -11 -45 7 -45 21 0 13 7 13 31 -1z m-11 -49 c0 -5 -2 -10 -4 -10 -3 0
-8 5 -11 10 -3 6 -1 10 4 10 6 0 11 -4 11 -10z m-132 -64 c3 -12 -1 -17 -10
-14 -7 3 -15 13 -16 22 -3 12 1 17 10 14 7 -3 15 -13 16 -22z m603 4 c21 -12
26 -50 6 -50 -19 0 -37 21 -37 42 0 21 4 22 31 8z m-696 -31 c4 -6 5 -12 2
-15 -7 -7 -37 7 -37 17 0 13 27 11 35 -2z m47 -109 c-2 -16 -8 -30 -13 -30
-12 0 -11 17 1 41 15 26 17 24 12 -11z m618 12 c0 -20 -28 -45 -44 -39 -14 5
-15 11 -6 27 10 19 50 29 50 12z m140 -6 c0 -11 -19 -15 -25 -6 -3 5 1 10 9
10 9 0 16 -2 16 -4z m-642 -105 c3 -8 -1 -12 -9 -9 -7 2 -15 10 -17 17 -3 8 1
12 9 9 7 -2 15 -10 17 -17z m586 -20 c9 -10 19 -34 23 -53 4 -30 2 -36 -16
-41 -21 -5 -29 7 -11 18 12 7 14 45 2 45 -8 0 -72 -115 -72 -127 1 -5 12 6 25
22 22 26 25 28 25 10 0 -12 -5 -26 -11 -32 -12 -12 -20 -103 -10 -103 4 0 15
9 24 21 15 16 21 18 33 9 19 -16 18 -50 -1 -50 -8 0 -15 8 -15 18 0 10 -10 1
-24 -23 -26 -42 -26 -56 -2 -36 10 8 16 9 21 1 3 -6 10 -8 15 -5 5 3 11 1 14
-4 4 -5 2 -12 -4 -16 -17 -11 -11 -35 9 -35 20 0 35 -25 25 -42 -3 -5 -12 -7
-20 -4 -19 7 -28 -12 -14 -29 6 -8 9 -19 5 -25 -4 -7 1 -6 13 1 24 15 32 10
36 -23 2 -12 6 -43 10 -68 4 -25 8 -58 11 -75 2 -16 12 -69 22 -118 11 -48 17
-89 15 -92 -2 -2 -17 -1 -33 2 -35 7 -52 -21 -24 -41 15 -11 15 -13 1 -25 -17
-15 -22 -66 -6 -76 5 -3 18 0 28 6 12 7 27 9 38 4 16 -7 15 -9 -11 -14 -21 -4
-31 -13 -33 -29 -4 -23 -16 -29 -27 -12 -3 6 -17 10 -30 10 -25 0 -28 6 -39
80 -6 38 -19 121 -35 215 -5 33 -13 107 -16 165 -4 58 -9 108 -11 111 -2 3 -8
52 -13 108 -5 56 -14 108 -20 115 -12 14 -4 84 12 104 7 9 3 12 -15 12 -26 0
-48 17 -48 36 0 17 43 30 48 15 3 -9 9 -8 22 4 16 15 17 14 13 -12 -4 -27 -4
-27 12 -8 9 11 15 34 14 50 -2 47 0 55 14 55 8 0 22 -8 31 -19z m2318 -19 c3
-9 1 -26 -3 -37 -7 -19 -8 -19 -8 2 -1 12 -4 28 -7 37 -3 9 -2 16 4 16 5 0 12
-8 14 -18z m798 -52 c12 -22 7 -61 -15 -113 -18 -42 -42 -63 -31 -26 4 13 10
47 13 75 5 49 4 52 -21 58 -34 8 -24 26 14 26 19 0 33 -7 40 -20z m-3712 -59
c3 -8 -1 -12 -9 -9 -7 2 -15 10 -17 17 -3 8 1 12 9 9 7 -2 15 -10 17 -17z
m3408 -38 c78 -93 79 -94 139 -69 51 22 46 -4 -7 -39 -54 -36 -83 -27 -118 36
-14 25 -35 58 -47 74 -13 15 -23 32 -23 36 0 20 19 7 56 -38z m-3336 22 c0 -8
-6 -15 -14 -15 -17 0 -28 14 -19 24 12 12 33 6 33 -9z m538 -13 c2 -7 -3 -12
-12 -12 -9 0 -16 7 -16 16 0 17 22 14 28 -4z m2277 8 c3 -5 -1 -10 -9 -10 -9
0 -16 5 -16 10 0 6 4 10 9 10 6 0 13 -4 16 -10z m-2891 -25 c3 -9 0 -15 -9
-15 -16 0 -27 14 -18 24 10 10 21 7 27 -9z m3756 -25 c0 -22 -69 -103 -70 -81
0 7 14 29 30 48 17 18 30 38 30 43 0 6 2 10 5 10 3 0 5 -9 5 -20z m-3721 -26
c1 -1 1 -7 -3 -12 -9 -14 -66 -2 -66 15 0 11 7 13 33 8 17 -4 34 -9 36 -11z
m271 7 c0 -5 -7 -14 -15 -21 -12 -10 -15 -10 -15 2 0 8 3 18 7 21 9 10 23 9
23 -2z m2670 -19 c0 -14 48 -33 55 -22 10 15 45 12 51 -5 4 -8 -3 -23 -13 -33
-23 -20 -47 -72 -34 -72 14 0 -3 -53 -18 -58 -10 -3 -12 2 -7 21 5 21 3 25 -9
21 -24 -10 -18 23 11 62 15 19 24 38 20 42 -8 8 -45 -37 -46 -55 0 -7 -7 -13
-15 -13 -17 0 -21 35 -5 45 16 10 12 25 -5 19 -17 -7 -30 18 -21 41 6 16 36
21 36 7z m-2973 -32 c13 0 23 -4 23 -10 0 -5 -15 -10 -34 -10 -36 0 -52 12
-40 31 4 8 9 8 17 0 6 -6 21 -11 34 -11z m78 -7 c-5 -10 -14 -47 -22 -83 -17
-78 -28 -93 -19 -25 10 68 27 125 39 125 5 0 6 -8 2 -17z m3684 -27 c-13 -35
-29 -40 -29 -9 0 17 30 56 38 49 2 -3 -2 -20 -9 -40z m-3779 -27 c0 -18 -35
-5 -38 14 -3 16 -1 17 17 7 12 -6 21 -15 21 -21z m280 -4 c9 -11 10 -19 2 -27
-14 -14 -32 -1 -32 23 0 23 13 25 30 4z m3398 7 c9 -6 5 -12 -13 -20 -34 -16
-35 -15 -35 8 0 21 24 27 48 12z m-578 -22 c0 -5 -9 -10 -21 -10 -11 0 -17 5
-14 10 3 6 13 10 21 10 8 0 14 -4 14 -10z m-3114 -15 c10 -8 14 -15 7 -15 -19
0 -43 11 -43 21 0 13 14 11 36 -6z m3804 -14 c5 -11 20 -21 32 -23 21 -3 122
-122 133 -158 3 -11 -8 -31 -30 -55 -30 -33 -35 -36 -35 -18 0 11 -7 24 -16
27 -15 6 -14 10 7 33 l24 26 -23 -12 c-13 -7 -26 -19 -29 -27 -8 -20 -31 -17
-38 6 -4 14 3 28 27 51 23 22 27 29 13 24 -52 -17 -84 -13 -101 12 -15 24 -15
27 0 35 9 5 16 16 16 23 0 18 -41 20 -59 3 -11 -11 -12 -9 -6 10 5 18 3 23 -8
20 -29 -6 -17 17 16 29 47 17 65 15 77 -6z m-3808 -24 c24 -8 34 -17 29 -25
-10 -16 -65 0 -69 21 -4 20 -6 20 40 4z m3087 -53 c-33 -34 -57 -37 -39 -4 13
25 51 51 62 43 6 -3 -5 -20 -23 -39z m-3101 -12 c-20 -4 -23 -17 -7 -28 8 -4
8 -9 0 -17 -18 -18 -32 6 -25 41 6 29 8 30 28 20 18 -11 19 -13 4 -16z m92
-46 c-8 -8 -13 -7 -20 4 -12 20 -1 33 16 19 11 -9 12 -15 4 -23z m3076 -11
c19 -45 19 -45 -15 -45 -20 0 -37 -9 -55 -31 -25 -29 -26 -30 -26 -7 0 13 9
29 20 36 14 8 20 23 20 47 0 29 4 35 21 35 13 0 25 -11 35 -35z m-3171 -17
c14 -6 25 -16 26 -22 2 -28 -2 -114 -7 -138 -9 -46 -24 -31 -24 23 0 43 -3 52
-21 56 -15 4 -19 11 -15 27 3 11 6 31 6 44 0 26 1 26 35 10z m3080 3 c3 -5 1
-12 -5 -16 -5 -3 -10 1 -10 9 0 18 6 21 15 7z m-2990 -36 c0 -10 -6 -20 -12
-22 -8 -3 -13 5 -13 22 0 17 5 25 13 23 6 -3 12 -13 12 -23z m869 8 c4 -9 2
-21 -3 -26 -7 -7 -12 -5 -17 6 -3 9 -12 17 -20 17 -17 0 -18 -12 -2 -28 17
-17 0 -28 -21 -15 -17 10 -19 8 -24 -20 -2 -18 0 -40 5 -50 13 -26 -2 -44 -18
-22 -18 24 -24 17 -17 -17 3 -18 12 -28 23 -28 21 0 35 -29 21 -43 -5 -5 -15
0 -24 13 -14 20 -15 19 -12 -27 1 -27 5 -58 9 -70 4 -12 2 -24 -4 -28 -6 -3
-8 -11 -5 -16 9 -14 25 -11 25 6 0 20 19 19 44 -2 12 -10 7 -2 -10 17 -17 19
-34 43 -38 53 -15 44 11 32 85 -40 83 -80 136 -120 84 -63 -16 19 -41 43 -54
55 -23 21 -22 53 1 39 6 -4 6 1 -1 14 -6 12 -16 24 -21 27 -13 8 -13 45 0 45
6 0 16 -11 22 -25 6 -14 16 -25 22 -25 5 0 26 -15 46 -32 26 -25 25 -22 -7 12
-38 41 -57 90 -35 90 11 0 52 -38 52 -48 0 -4 22 -31 50 -60 l50 -52 -67 -88
c-103 -136 -163 -202 -184 -202 -12 0 -16 -5 -13 -15 4 -8 2 -15 -3 -15 -9 0
-46 174 -58 270 -4 25 -13 89 -22 143 -12 74 -13 103 -5 120 6 12 16 40 21 61
14 53 47 86 87 86 20 0 34 -6 38 -17z m46 7 c0 -5 -4 -10 -10 -10 -5 0 -10 5
-10 10 0 6 5 10 10 10 6 0 10 -4 10 -10z m64 -61 c-8 -14 -18 -11 -32 11 -19
31 -3 48 20 21 10 -13 15 -27 12 -32z m88 -1 c48 -33 69 -65 50 -77 -5 -3 1
-22 15 -44 27 -43 41 -45 22 -3 -17 36 -6 42 30 16 38 -26 40 -16 4 22 -25 26
-25 28 -7 28 11 0 29 -7 40 -15 25 -19 34 -19 34 0 0 8 9 15 20 15 11 0 20 -3
20 -7 0 -14 -85 -115 -120 -143 l-38 -30 -66 64 c-36 35 -66 72 -66 81 0 13
10 8 41 -20 41 -36 67 -42 36 -7 -10 10 -17 26 -17 35 0 10 -6 14 -14 11 -16
-6 -46 21 -46 42 0 20 16 17 40 -8 11 -12 23 -19 26 -15 9 8 -15 37 -30 37 -6
0 -19 12 -29 25 -25 35 -4 32 55 -7z m1378 24 c0 -16 -32 -52 -46 -52 -17 0
-17 2 -2 35 10 22 48 36 48 17z m37 -26 c-8 -19 -37 -21 -37 -3 0 7 5 18 12
25 15 15 33 -1 25 -22z m593 -14 c0 -18 -38 -72 -51 -72 -15 0 -11 22 9 44 17
21 17 21 -5 3 -29 -25 -42 -3 -14 27 12 12 21 28 21 36 0 9 6 8 20 -5 11 -10
20 -25 20 -33z m998 -145 c149 -213 183 -252 260 -302 59 -40 93 -95 76 -123
-19 -29 -46 -20 -59 18 -12 35 -37 51 -50 30 -4 -6 3 -36 15 -66 13 -30 20
-57 17 -60 -10 -10 -48 17 -40 29 4 7 0 7 -10 -2 -14 -11 -18 -11 -23 4 -4 9
-2 21 5 28 17 17 13 27 -10 27 -18 0 -20 4 -14 27 4 16 3 25 -1 20 -10 -9 -55
33 -48 45 3 5 2 8 -3 7 -20 -3 -30 3 -46 30 -10 17 -13 32 -8 35 5 4 12 0 14
-6 3 -7 6 2 6 20 1 33 0 33 -30 27 l-32 -7 27 28 c14 16 26 32 26 36 0 12 -48
10 -55 -2 -3 -5 -11 -10 -17 -10 -6 0 -3 12 7 26 18 27 13 46 -7 26 -25 -25
-77 -3 -78 33 0 6 5 3 10 -5 9 -13 15 -10 37 15 l26 30 -29 6 c-16 3 -38 0
-50 -7 -19 -11 -24 -10 -44 11 l-23 24 32 33 c51 53 34 68 -26 22 -26 -19 -38
-23 -46 -15 -8 8 -1 22 28 51 40 41 42 70 2 32 -13 -12 -31 -22 -40 -22 -32 0
-29 23 9 61 l38 39 45 -51 c24 -28 73 -92 109 -142z m-3154 167 c4 -9 4 -19 2
-21 -8 -8 -26 8 -26 23 0 19 16 18 24 -2z m1406 11 c0 -3 -9 -24 -20 -45 -15
-29 -27 -40 -43 -40 -12 0 -28 -9 -35 -20 -14 -23 -5 -25 22 -5 14 11 22 11
38 2 16 -10 22 -9 32 6 7 9 16 17 20 17 3 0 6 -8 6 -17 1 -16 2 -15 12 2 23
40 53 41 43 2 -5 -21 -5 -21 7 -4 7 10 18 26 24 34 17 24 37 6 29 -26 -4 -14
-12 -32 -18 -39 -6 -7 -12 -25 -13 -39 -2 -14 -8 -31 -13 -36 -6 -6 -11 -22
-11 -37 0 -24 0 -24 20 8 12 19 28 32 41 32 20 0 21 -7 2 -57 -3 -7 -2 -13 1
-13 3 0 16 6 27 13 18 10 23 9 26 -1 4 -10 9 -9 24 4 10 9 25 14 34 10 25 -9
0 -45 -36 -53 -16 -3 -29 -9 -29 -13 0 -12 52 -6 79 9 21 12 26 11 38 -5 7
-10 13 -14 13 -9 0 5 5 4 11 -2 16 -16 1 -37 -15 -24 -18 15 -43 -15 -47 -54
-4 -40 14 -48 21 -10 4 21 11 31 28 33 26 4 28 -5 6 -36 -9 -13 -13 -26 -9
-30 4 -4 10 -1 12 6 6 17 43 15 43 -3 0 -19 -36 -39 -45 -25 -8 13 -25 3 -25
-16 0 -8 7 -14 15 -14 20 0 19 -9 -5 -70 -22 -55 -24 -70 -12 -70 5 0 15 16
22 36 8 20 22 40 31 45 11 5 15 16 12 29 -6 22 14 53 28 44 5 -3 6 -37 3 -77
-5 -60 -4 -75 10 -86 18 -15 22 -87 5 -93 -7 -2 -7 -11 0 -28 5 -14 10 -20 11
-15 0 6 4 4 9 -4 10 -16 4 -41 -10 -41 -5 0 -9 8 -9 18 -1 15 -2 14 -12 -3
-17 -29 -41 -45 -60 -41 -10 2 -18 3 -18 1 0 -2 -3 -11 -7 -20 -5 -15 -3 -16
17 -5 35 19 43 -1 21 -51 -25 -54 -28 -87 -3 -40 9 19 23 37 31 39 14 5 14 4
-5 -57 -5 -16 -2 -19 17 -14 20 6 22 4 16 -25 -4 -19 -2 -32 3 -32 6 0 10 9
10 20 0 10 5 31 12 45 9 19 16 24 32 19 33 -10 41 -21 26 -39 -10 -12 -16 -13
-26 -4 -11 9 -14 7 -14 -8 0 -16 5 -19 25 -15 29 5 29 5 10 -41 -8 -20 -15
-44 -15 -53 0 -16 2 -16 20 1 30 28 35 11 18 -60 -8 -35 -11 -62 -7 -59 5 3 9
13 9 22 0 9 5 24 10 32 9 13 11 13 20 0 11 -18 10 -99 -1 -106 -5 -3 -27 0
-50 6 -30 8 -45 8 -52 1 -6 -6 -18 -11 -27 -11 -20 0 -75 57 -84 86 -4 11 -18
27 -32 35 -32 17 -101 116 -127 183 -15 38 -21 79 -22 162 -3 132 -12 191 -30
198 -7 2 -18 22 -25 43 -7 21 -21 54 -32 73 -12 19 -32 55 -46 79 -13 25 -37
55 -53 68 -16 14 -68 83 -116 155 l-88 130 24 19 c33 27 41 24 36 -13 l-5 -33
12 32 c17 42 48 73 55 55 4 -10 9 -8 20 7 19 27 33 27 34 -1 0 -15 2 -18 6 -8
10 26 25 40 44 40 11 0 19 -2 19 -5z m60 -3 c0 -12 -28 -48 -33 -42 -8 8 11
50 23 50 5 0 10 -4 10 -8z m-1507 -37 c7 -16 -8 -29 -23 -20 -15 9 -12 35 4
35 8 0 16 -7 19 -15z m-45 -35 c3 -21 2 -22 -12 -11 -19 16 -21 44 -3 39 6 -3
14 -15 15 -28z m140 18 c7 -7 12 -21 12 -32 0 -18 -1 -19 -20 -1 -20 18 -27
45 -12 45 4 0 13 -5 20 -12z m1564 -4 c8 -7 -29 -93 -50 -116 -34 -40 -58 -5
-27 39 9 12 14 26 13 30 -6 22 15 53 36 53 12 0 25 -3 28 -6z m-1612 -24 c9
-16 8 -20 -5 -20 -8 0 -15 2 -15 4 0 2 -3 11 -6 20 -9 23 13 20 26 -4z m2200
0 c0 -5 -2 -10 -4 -10 -3 0 -8 5 -11 10 -3 6 -1 10 4 10 6 0 11 -4 11 -10z
m-2245 -28 c0 -18 -20 -15 -23 4 -3 10 1 15 10 12 7 -3 13 -10 13 -16z m1695
-29 c0 -16 -6 -23 -20 -23 -23 0 -26 21 -8 50 14 22 28 9 28 -27z m498 25 c5
-7 15 -37 21 -66 6 -28 20 -78 30 -110 14 -39 21 -94 24 -165 2 -62 8 -112 15
-120 7 -8 10 -22 6 -30 -3 -9 3 -28 15 -43 11 -14 23 -41 27 -60 3 -19 12 -38
20 -42 7 -4 20 -33 28 -64 12 -45 12 -63 3 -88 -10 -25 -9 -33 3 -40 28 -18
43 -12 38 15 -6 29 9 45 18 21 11 -28 -5 -64 -33 -78 -31 -15 -42 -38 -19 -38
23 0 20 -13 -9 -40 -19 -18 -22 -26 -14 -36 6 -8 8 -21 5 -31 -6 -15 -5 -15
13 1 20 18 61 19 63 1 1 -5 -7 -12 -18 -14 -26 -4 -54 -30 -54 -50 0 -12 3
-12 12 -3 7 7 22 12 34 12 13 0 26 5 30 11 10 17 24 -11 24 -51 0 -25 -8 -43
-32 -67 -18 -18 -36 -33 -40 -33 -15 0 -8 24 15 49 21 25 21 25 0 7 -26 -21
-39 -16 -47 21 -4 16 -13 42 -21 58 -63 134 -85 215 -100 360 -4 33 -11 68
-16 78 -8 14 -5 23 13 42 13 13 23 37 24 55 l2 32 -25 -26 c-13 -14 -26 -26
-28 -26 -12 0 -36 64 -33 87 3 30 28 44 28 17 0 -16 1 -16 20 1 14 13 17 22
10 29 -5 5 -10 20 -10 33 0 13 -5 23 -11 23 -8 0 -10 12 -6 34 3 21 0 41 -8
52 -7 10 -10 25 -7 34 4 12 1 11 -16 -3 -24 -22 -46 -14 -37 13 3 9 2 28 -3
41 -5 13 -6 44 -3 69 l6 45 14 -67 c7 -38 16 -68 20 -68 10 1 43 51 37 57 -3
3 -12 0 -21 -7 -12 -10 -15 -10 -15 2 0 8 6 20 13 27 10 11 10 14 0 18 -7 3
-13 13 -13 23 0 10 -6 20 -12 22 -10 4 -10 11 0 34 l12 29 -20 -24 c-15 -18
-20 -20 -20 -7 0 18 21 56 31 56 4 0 11 -6 17 -12z m-2228 -29 c0 -5 -7 -9
-15 -9 -9 0 -15 9 -15 21 0 18 2 19 15 9 8 -7 15 -16 15 -21z m220 -63 c52
-54 54 -57 37 -73 -17 -17 -19 -17 -29 2 -7 11 -23 32 -37 46 -57 57 -91 101
-86 110 8 12 47 -17 115 -85z m314 49 c21 -16 91 -20 100 -7 3 5 44 8 90 7 68
-1 90 -5 106 -20 18 -17 26 -17 63 -8 31 9 45 9 56 0 8 -7 53 -13 110 -13 93
-2 96 -1 122 27 15 16 29 29 32 29 3 0 40 -53 83 -117 42 -65 101 -148 131
-184 29 -36 53 -70 53 -75 0 -5 10 -25 23 -44 38 -57 49 -108 57 -250 6 -126
9 -142 48 -245 23 -60 51 -122 62 -137 14 -18 20 -43 20 -76 0 -61 32 -125
100 -199 27 -29 51 -66 55 -82 3 -16 13 -35 21 -42 9 -7 14 -30 14 -61 0 -27
5 -59 11 -70 17 -32 -7 -135 -33 -141 -26 -7 -78 11 -108 38 -40 36 -231 124
-282 131 -27 4 -48 10 -48 13 0 4 -14 72 -31 151 -29 141 -59 297 -59 313 0
13 37 8 49 -7 15 -18 64 -30 91 -21 30 9 27 53 -5 65 -29 11 -29 11 -13 45 15
33 -3 75 -32 75 -33 0 -73 -49 -66 -82 4 -23 2 -28 -13 -28 -23 0 -29 36 -36
189 -5 121 -22 160 -73 173 -41 11 -41 34 -1 43 40 9 62 51 35 70 -17 13 -17
15 4 42 31 42 19 63 -37 63 -24 0 -53 -5 -65 -11 -26 -14 -36 -3 -20 21 7 11
12 28 12 39 0 23 -54 71 -80 71 -27 0 -60 -47 -60 -87 0 -27 6 -37 30 -51 40
-23 33 -36 -24 -44 -67 -9 -70 -11 -100 -62 -43 -73 -22 -82 95 -41 40 13 75
22 80 19 17 -10 9 -22 -18 -29 -39 -9 -73 -44 -73 -74 0 -15 11 -43 25 -63 14
-20 25 -46 25 -56 0 -11 9 -31 20 -45 14 -17 20 -40 20 -72 0 -42 19 -145 51
-270 18 -72 58 -319 53 -327 -3 -4 -11 -8 -17 -8 -7 0 -30 -9 -52 -20 -22 -11
-49 -20 -61 -20 -13 0 -31 -11 -42 -25 -18 -22 -27 -25 -85 -25 l-65 0 -16 68
c-23 102 -39 247 -32 285 6 33 31 56 45 41 3 -4 0 -9 -6 -11 -20 -7 -15 -23 6
-23 24 0 45 25 37 46 -5 13 -14 15 -41 10 -46 -9 -46 10 0 30 45 19 62 57 40
90 -19 29 -35 30 -68 4 -14 -11 -28 -20 -31 -20 -3 0 -6 39 -6 88 0 48 -8 121
-17 162 -11 50 -17 124 -17 225 -1 126 -4 155 -19 178 -21 32 -59 44 -94 28
-14 -7 -28 -9 -32 -6 -12 13 25 59 54 67 35 9 75 42 75 62 0 22 -23 25 -65 9
-70 -26 -80 -23 -77 19 5 51 -12 78 -48 78 -36 0 -53 -27 -48 -78 l3 -37 -43
3 c-74 6 -114 -37 -75 -80 21 -24 48 -23 89 3 29 17 35 18 40 6 3 -8 -6 -26
-20 -40 -20 -20 -26 -36 -26 -70 0 -27 6 -49 15 -57 22 -18 36 -2 30 33 -8 43
10 89 33 85 9 -2 18 -13 20 -26 3 -22 42 -72 57 -72 4 0 5 9 2 21 -4 15 0 23
14 26 10 3 17 9 14 13 -11 18 16 20 40 4 30 -20 32 -35 5 -59 -11 -10 -20 -23
-20 -30 0 -6 -18 -35 -40 -65 -36 -48 -38 -55 -25 -70 14 -15 13 -20 -6 -44
-17 -21 -20 -36 -16 -66 5 -39 -13 -74 -27 -51 -8 12 -11 155 -3 167 7 12 -36
87 -48 83 -6 -2 -9 -13 -9 -24 9 -113 28 -269 43 -350 24 -122 48 -333 55
-477 l5 -108 -25 0 c-14 0 -44 10 -67 22 -28 14 -67 23 -118 26 -86 5 -115 -5
-183 -67 -53 -49 -135 -96 -145 -85 -9 10 -27 172 -42 374 -5 69 -12 155 -17
192 -8 64 -7 68 17 92 l25 25 26 -31 c21 -25 31 -30 52 -25 38 10 47 46 18 69
-12 10 -31 18 -41 18 -24 0 -24 14 0 31 13 9 21 28 23 54 l2 40 -38 -2 c-55
-4 -66 -17 -66 -78 0 -34 -5 -57 -15 -65 -20 -16 -20 -14 -40 150 -9 74 -20
152 -25 173 -12 54 14 111 82 182 61 65 123 140 178 215 37 51 256 250 274
250 6 0 20 -7 30 -15z m1756 -1 c0 -8 -5 -12 -10 -9 -6 4 -8 11 -5 16 9 14 15
11 15 -7z m-530 -46 c0 -12 -8 -18 -25 -18 -19 0 -23 4 -18 18 12 32 25 44 34
30 5 -7 9 -21 9 -30z m-55 11 c7 -11 -22 -49 -37 -49 -12 0 -10 34 4 48 15 15
25 15 33 1z m-2144 -19 l24 -19 -22 -1 c-12 0 -27 9 -33 20 -14 26 1 26 31 0z
m439 16 c0 -2 3 -11 6 -20 9 -23 -13 -20 -26 4 -9 16 -8 20 5 20 8 0 15 -2 15
-4z m2960 -32 c0 -8 -4 -12 -10 -9 -5 3 -10 13 -10 21 0 8 5 12 10 9 6 -3 10
-13 10 -21z m-1173 -29 c7 -20 -2 -29 -21 -22 -9 4 -13 13 -10 22 8 19 23 19
31 0z m-1931 -46 c10 -17 -9 -28 -39 -22 -22 4 -25 8 -16 19 14 17 45 18 55 3z
m3199 -10 c-4 -5 -13 -9 -22 -9 -13 0 -13 3 -3 15 13 15 35 11 25 -6z m-135
-17 c0 -14 -11 -21 -26 -15 -21 8 -17 23 6 23 11 0 20 -4 20 -8z m-2340 -77
c0 -14 -4 -25 -10 -25 -5 0 -10 11 -10 25 0 14 5 25 10 25 6 0 10 -11 10 -25z
m1630 -5 c0 -5 -2 -10 -4 -10 -3 0 -8 5 -11 10 -3 6 -1 10 4 10 6 0 11 -4 11
-10z m879 -29 c20 -20 21 -26 11 -56 -11 -34 -40 -68 -40 -47 0 6 5 14 10 17
11 7 14 55 3 55 -3 0 -14 -7 -23 -15 -13 -12 -23 -13 -44 -5 -30 11 -56 33
-56 47 0 38 102 41 139 4z m-622 -3 c-3 -8 -6 -5 -6 6 -1 11 2 17 5 13 3 -3 4
-12 1 -19z m-2598 -10 c6 -16 4 -32 -8 -51 -15 -27 -15 -29 5 -45 13 -10 24
-34 28 -57 4 -22 9 -53 12 -69 6 -27 4 -28 -21 -24 -29 6 -48 -18 -25 -32 20
-13 -7 -42 -31 -35 -11 4 -19 2 -19 -4 0 -6 -7 -11 -15 -11 -8 0 -15 -7 -15
-15 0 -21 27 -19 40 3 8 14 9 12 4 -11 -5 -21 -3 -27 7 -25 9 2 14 -6 13 -22
-1 -14 3 -28 8 -31 5 -3 11 -39 13 -80 3 -41 9 -108 13 -149 5 -41 8 -99 7
-127 -1 -29 2 -53 6 -53 12 0 11 -31 -1 -50 -15 -24 -21 -7 -36 102 -7 57 -21
137 -30 180 -10 46 -14 83 -8 95 4 10 9 23 9 28 1 6 5 18 10 28 9 22 -16 52
-43 52 -13 0 -19 12 -24 50 -5 28 -14 88 -22 135 -8 56 -10 88 -3 95 6 7 11 6
14 -2 10 -27 22 -12 16 19 -6 28 -4 31 16 25 17 -4 25 1 37 26 11 25 12 28 1
14 -13 -16 -15 -16 -28 -1 -12 14 -10 20 14 40 35 30 45 30 56 2z m821 -23
c-27 -14 -36 -13 -25 4 3 6 16 11 28 11 21 -1 21 -1 -3 -15z m-225 -25 c0 -22
-29 -18 -33 3 -3 14 1 18 15 15 10 -2 18 -10 18 -18z m-761 -36 c3 -9 6 -25 6
-37 0 -21 -1 -21 -26 5 -26 25 -26 48 1 48 7 0 16 -7 19 -16z m1411 -14 c0
-18 -6 -26 -22 -28 -20 -3 -23 1 -23 28 0 27 3 31 23 28 16 -2 22 -10 22 -28z
m-2042 -25 c7 -16 -8 -29 -23 -20 -15 9 -12 35 4 35 8 0 16 -7 19 -15z m611
-17 c28 -24 36 -39 36 -65 0 -27 -3 -31 -17 -26 -14 5 -13 2 4 -13 17 -15 24
-38 32 -103 6 -46 9 -87 6 -90 -3 -2 -13 6 -22 20 -26 37 -116 130 -121 125
-2 -3 32 -45 77 -95 l82 -89 0 -59 c-1 -32 2 -85 5 -119 5 -55 2 -71 -46 -194
-28 -74 -55 -139 -60 -145 -14 -17 -39 -97 -34 -110 10 -26 -12 -23 -46 6 -98
83 -113 93 -102 72 7 -11 41 -48 77 -81 47 -43 65 -66 65 -84 0 -22 -5 -26
-42 -31 -24 -3 -44 -11 -47 -18 -2 -7 -19 -29 -38 -48 -18 -19 -36 -45 -39
-57 -4 -16 -15 -23 -42 -27 -21 -2 -39 -3 -41 -1 -2 2 6 27 18 56 11 29 23 77
26 107 3 30 10 60 16 68 6 7 13 59 15 115 2 57 11 138 19 182 8 43 15 95 15
116 0 22 7 69 16 107 9 37 18 91 20 118 8 120 17 163 50 226 19 36 34 69 34
73 0 10 40 96 44 96 2 0 20 -14 40 -32z m3413 0 c15 -19 24 -147 13 -168 -7
-13 -6 -20 5 -24 9 -3 15 -18 15 -35 0 -21 -4 -29 -13 -25 -8 3 -20 -2 -27
-11 -11 -13 -11 -21 -2 -36 18 -28 15 -51 -5 -47 -24 4 -32 48 -16 82 8 15 12
38 9 50 -3 12 1 34 9 49 7 15 10 27 4 27 -5 0 -9 -4 -9 -10 0 -5 -9 -10 -20
-10 -25 0 -26 16 -1 29 10 6 24 24 29 41 9 25 8 30 -5 30 -10 0 -13 6 -9 16 3
8 2 12 -4 9 -6 -3 -20 1 -32 9 l-22 16 21 0 c12 0 25 5 28 10 8 14 21 13 32
-2z m158 -17 c-3 -6 -14 -11 -23 -11 -15 1 -15 2 2 15 21 16 32 13 21 -4z
m-2036 -42 c-8 -5 -24 -9 -37 -9 -33 0 -22 24 14 30 31 6 45 -7 23 -21z
m-2151 9 c14 -14 16 -58 3 -58 -6 0 -13 5 -16 10 -4 6 -10 8 -15 5 -14 -8 -18
8 -9 33 9 25 19 28 37 10z m3222 -37 c-13 -25 -27 -34 -34 -22 -7 10 20 41 35
41 6 0 6 -7 -1 -19z m982 -3 c-7 -7 -12 -8 -12 -2 0 14 12 26 19 19 2 -3 -1
-11 -7 -17z m-2207 -18 c0 -9 -17 -19 -45 -26 -50 -12 -62 -3 -34 27 21 24 79
23 79 -1z m119 11 c19 -7 19 -8 -2 -13 -12 -4 -26 0 -33 8 -13 16 2 18 35 5z
m36 -41 c0 -5 -5 -10 -11 -10 -5 0 -7 5 -4 10 3 6 8 10 11 10 2 0 4 -4 4 -10z
m-1285 -145 c9 -60 22 -146 30 -190 14 -78 20 -137 30 -282 3 -58 1 -73 -10
-73 -21 0 -26 15 -15 45 7 20 6 34 -6 56 -8 17 -12 39 -9 50 4 13 2 19 -7 17
-9 -2 -13 9 -14 32 0 19 -2 53 -4 75 -3 27 0 39 8 38 11 -3 5 27 -8 37 -9 7
-30 131 -30 178 0 22 -4 43 -9 46 -5 3 -7 16 -3 28 3 14 2 19 -6 14 -16 -10
-16 36 0 52 22 22 36 -10 53 -123z m1165 47 c0 -12 -39 -46 -45 -41 -6 7 24
49 36 49 5 0 9 -4 9 -8z m830 -46 c-14 -14 -24 0 -16 21 6 15 8 15 16 3 6 -9
5 -19 0 -24z m-42 2 c-4 -27 -28 -36 -28 -10 0 20 8 32 22 32 5 0 8 -10 6 -22z
m-1206 -29 c-15 -16 -28 -25 -30 -19 -5 15 32 58 45 53 9 -3 4 -15 -15 -34z
m1268 -24 c-3 -6 -12 -9 -20 -8 -8 1 -19 -5 -23 -13 -12 -22 -29 -6 -17 16 10
19 70 24 60 5z m-1220 -14 c0 -5 -7 -14 -15 -21 -13 -10 -15 -9 -15 9 0 12 6
21 15 21 8 0 15 -4 15 -9z m-42 -18 c2 -8 -5 -13 -17 -13 -12 0 -21 6 -21 16
0 18 31 15 38 -3z m-578 -47 c0 -37 -10 -56 -31 -56 -14 0 -19 7 -19 28 0 30
16 52 37 52 7 0 13 -11 13 -24z m3069 -196 c-6 -11 -8 -8 -9 13 0 15 -4 27 -9
27 -4 0 -6 22 -3 50 4 40 1 51 -12 56 -9 3 -23 1 -31 -6 -28 -23 -17 22 12 52
l28 29 16 -103 c10 -62 13 -109 8 -118z m-2445 174 c9 -24 0 -29 -28 -16 -21
9 -28 7 -50 -13 -14 -13 -26 -31 -26 -40 0 -18 12 -19 28 -3 8 8 15 9 23 1 7
-7 2 -15 -15 -27 -15 -9 -26 -24 -26 -32 0 -14 3 -14 15 -4 26 21 30 2 6 -30
-12 -17 -18 -30 -14 -30 4 0 19 16 32 35 23 35 44 44 56 25 3 -5 2 -10 -4 -10
-12 0 -51 -40 -51 -52 0 -5 8 -4 18 1 13 7 23 6 30 -1 14 -14 16 -38 2 -38 -5
0 -7 8 -4 18 5 14 3 14 -10 -2 -24 -30 -18 -76 10 -76 12 0 12 -4 2 -21 -11
-18 -10 -23 15 -40 30 -23 36 -49 11 -49 -11 0 -14 6 -9 21 5 15 4 19 -4 15
-6 -4 -11 -23 -11 -43 0 -26 5 -36 19 -40 21 -5 21 -4 -10 -64 -8 -17 -7 -21
11 -26 15 -4 19 -11 15 -24 -5 -14 -2 -17 9 -13 9 3 16 1 16 -5 0 -6 -11 -11
-24 -11 -27 0 -59 -31 -38 -37 17 -6 15 -23 -5 -45 -19 -21 -29 -123 -13 -133
6 -4 10 -26 10 -51 0 -48 1 -49 31 -33 19 10 20 9 8 -13 -7 -13 -14 -38 -14
-55 -2 -27 1 -31 12 -21 24 20 26 0 2 -33 -18 -26 -19 -31 -6 -26 24 9 32 -11
11 -34 -34 -37 -2 -33 33 5 34 36 37 37 50 20 18 -25 11 -40 -19 -36 -19 2
-32 -6 -51 -32 -34 -44 -35 -57 -2 -26 29 27 85 36 85 13 0 -10 -8 -13 -26
-11 -36 4 -66 -36 -69 -96 -3 -42 -2 -45 15 -36 10 5 22 19 25 31 6 17 12 19
38 13 18 -3 33 -7 35 -9 1 -1 3 -42 5 -91 l2 -89 -33 -3 c-28 -3 -33 0 -30 14
2 10 14 21 27 24 14 3 26 11 29 18 6 20 -27 25 -53 8 -22 -14 -25 -15 -25 -1
0 8 -4 15 -9 15 -13 0 -23 -32 -13 -42 10 -10 -7 -68 -20 -68 -8 0 -13 37 -28
205 -6 66 -17 163 -25 215 -33 219 -37 257 -40 412 -4 192 -30 446 -51 503 -8
22 -15 58 -17 80 l-2 40 60 6 c33 3 63 6 66 7 4 1 10 -5 13 -14z m456 -19 c0
-17 -2 -18 -25 -9 -13 5 -14 8 -3 15 19 13 28 11 28 -6z m1280 -11 c0 -16 -16
-19 -25 -4 -8 13 4 32 16 25 5 -4 9 -13 9 -21z m-1721 -40 c-13 -16 -35 -18
-44 -4 -7 11 35 31 48 23 4 -3 3 -11 -4 -19z m-1762 -6 c-3 -8 -6 -5 -6 6 -1
11 2 17 5 13 3 -3 4 -12 1 -19z m2419 -35 c-11 -11 -19 6 -11 24 8 17 8 17 12
0 3 -10 2 -21 -1 -24z m-1261 7 c3 -5 1 -10 -4 -10 -6 0 -11 5 -11 10 0 6 2
10 4 10 3 0 8 -4 11 -10z m2767 -42 c-9 -9 -12 -7 -12 12 0 19 3 21 12 12 9
-9 9 -15 0 -24z m211 -23 c4 -8 2 -17 -3 -20 -6 -4 -10 3 -10 14 0 25 6 27 13
6z m76 -86 c6 -34 8 -66 5 -70 -3 -5 0 -9 6 -9 7 0 10 -12 9 -28 -2 -15 0 -33
4 -39 10 -17 -12 -58 -24 -46 -10 10 -15 49 -25 176 -8 94 9 105 25 16z
m-4201 28 c4 -20 -25 -34 -40 -19 -15 15 -1 44 19 40 10 -2 19 -11 21 -21z
m1892 -16 c0 -10 -7 -24 -15 -31 -12 -10 -16 -9 -21 4 -3 9 -4 23 0 31 8 21
36 19 36 -4z m1640 -58 c0 -7 12 -37 27 -68 31 -64 26 -101 -19 -123 -29 -14
-57 -72 -34 -72 8 0 16 7 20 15 7 20 45 19 53 -1 3 -9 1 -25 -6 -36 -10 -16
-8 -24 17 -53 24 -26 31 -46 36 -97 4 -34 12 -91 18 -126 10 -62 10 -64 -18
-95 -16 -17 -19 -24 -8 -14 21 18 22 17 43 -9 11 -15 21 -32 22 -38 4 -89 25
-184 50 -229 9 -16 19 -58 36 -139 6 -32 -3 -35 -34 -13 -20 14 -23 12 -52
-20 -18 -21 -33 -30 -37 -24 -3 6 10 24 29 40 28 23 35 35 34 63 -1 39 -12 38
-46 -6 -18 -22 -21 -32 -11 -38 7 -5 8 -10 2 -14 -10 -6 -26 27 -37 75 -5 22
-1 31 25 49 40 29 49 19 16 -16 -30 -33 -25 -48 6 -17 26 27 30 64 13 131 -8
29 -15 72 -16 95 -2 23 -8 54 -14 70 -11 27 -12 27 -29 8 -10 -11 -17 -28 -16
-38 4 -31 0 -44 -9 -39 -5 3 -9 21 -9 38 0 18 -8 53 -16 77 -20 54 -20 61 -1
61 9 0 20 -12 26 -27 9 -24 11 -25 25 -11 13 12 14 22 5 53 -6 21 -8 42 -5 47
9 15 -5 58 -20 58 -7 0 -21 -9 -31 -20 -10 -11 -22 -17 -26 -13 -9 10 -35 113
-55 213 -17 92 -17 101 -1 95 19 -8 37 29 29 60 -7 24 -9 26 -21 11 -19 -23
-31 -20 -31 7 0 13 -5 28 -10 33 -7 7 0 21 20 44 16 18 30 38 30 44 0 6 -11
-1 -25 -16 -37 -43 -40 -13 -3 31 29 35 34 37 45 22 7 -9 13 -22 13 -28z
m-402 25 c24 -24 14 -57 -22 -72 -21 -9 -45 -31 -60 -55 -30 -46 -35 -71 -11
-51 8 7 15 18 15 25 0 7 7 18 15 25 22 18 48 -6 40 -37 -3 -13 1 -36 9 -51 8
-15 29 -63 46 -107 17 -44 38 -87 46 -96 8 -8 14 -21 14 -27 0 -10 30 -25 55
-27 26 -2 125 -36 130 -45 3 -6 15 -10 26 -10 11 0 22 -7 25 -15 4 -8 14 -15
24 -15 14 0 20 -14 29 -67 7 -38 14 -76 17 -85 7 -24 -18 -23 -40 1 -13 14
-14 24 -7 45 14 35 -1 33 -22 -4 -10 -16 -24 -30 -32 -30 -10 0 -8 14 12 56
14 30 23 57 20 60 -2 2 -16 -11 -31 -31 -15 -19 -34 -35 -42 -35 -19 0 -18 30
2 58 9 13 14 26 11 28 -3 3 -17 -17 -32 -45 -29 -52 -55 -73 -55 -43 0 9 9 32
21 51 11 18 19 43 17 55 -3 17 -9 10 -31 -32 -26 -49 -50 -72 -63 -59 -3 2 4
20 15 38 27 44 27 59 1 31 -21 -22 -50 -30 -50 -13 0 6 5 13 10 16 6 3 10 13
10 21 0 21 -19 7 -30 -22 -10 -24 -36 -42 -46 -31 -4 3 1 16 10 29 25 35 21
49 -10 37 -35 -13 -40 -5 -26 34 16 45 15 56 -4 32 -16 -20 -16 -19 -9 4 7 22
5 23 -18 17 -14 -3 -29 -2 -32 4 -3 5 -1 10 4 10 6 0 11 9 11 19 0 11 5 23 10
26 13 8 13 35 0 35 -5 0 -12 -11 -16 -24 -4 -15 -15 -26 -32 -29 -15 -3 -35
-9 -45 -13 -16 -6 -17 -3 -11 22 4 16 11 33 15 39 14 15 11 22 -13 29 -22 6
-22 7 -5 20 10 8 17 18 16 22 -1 5 1 22 6 37 5 20 3 33 -9 46 -20 22 -21 40
-2 47 8 3 12 13 9 24 -3 10 0 21 6 24 6 4 11 14 11 23 0 13 -3 13 -15 3 -9 -7
-18 -10 -21 -7 -12 11 6 25 42 31 25 5 41 16 52 37 19 32 23 34 40 17z m-3148
-18 c0 -5 -7 -10 -15 -10 -8 0 -15 5 -15 10 0 6 7 10 15 10 8 0 15 -4 15 -10z
m4155 0 c3 -5 1 -10 -4 -10 -6 0 -11 5 -11 10 0 6 2 10 4 10 3 0 8 -4 11 -10z
m-3225 -50 c-6 -10 -15 -22 -20 -25 -14 -9 -13 28 2 43 17 17 30 4 18 -18z
m-936 -64 c-4 -33 -8 -64 -10 -68 -7 -11 -65 -6 -61 6 3 6 10 10 17 8 13 -3
30 15 30 31 0 4 -9 7 -20 7 -24 0 -26 13 -5 30 8 7 15 20 15 30 0 22 9 30 26
23 12 -4 13 -18 8 -67z m2876 44 c0 -5 -5 -10 -11 -10 -5 0 -7 5 -4 10 3 6 8
10 11 10 2 0 4 -4 4 -10z m50 -10 c-11 -20 -22 -25 -33 -14 -11 11 5 34 24 34
17 0 18 -3 9 -20z m-1981 -7 c-11 -13 -11 -17 -1 -20 16 -6 15 -19 -5 -51
l-18 -26 -5 34 c-6 35 13 80 32 80 6 0 4 -7 -3 -17z m3412 -19 c-9 -28 -9 -29
-10 -3 -1 14 2 29 6 32 11 12 13 2 4 -29z m-1391 5 c0 -5 -7 -9 -15 -9 -15 0
-20 12 -9 23 8 8 24 -1 24 -14z m-1960 -39 c0 -5 -5 -10 -11 -10 -5 0 -7 5 -4
10 3 6 8 10 11 10 2 0 4 -4 4 -10z m3259 -37 c0 -16 3 -47 7 -70 4 -29 2 -43
-5 -43 -6 0 -11 4 -11 9 0 18 -43 20 -56 3 -12 -15 -13 -12 -14 21 0 20 5 37
10 37 6 0 20 16 31 35 25 42 38 45 38 8z m-3315 -32 c-3 -16 -1 -32 5 -35 11
-7 -1 -58 -16 -63 -22 -8 -32 94 -11 115 19 19 27 14 22 -17z m-974 -26 c9
-11 10 -19 3 -26 -13 -13 -63 9 -63 28 0 18 45 17 60 -2z m4580 5 c0 -5 -8
-10 -17 -10 -15 0 -16 2 -3 10 19 12 20 12 20 0z m-13 -36 c-3 -3 -12 -4 -19
-1 -8 3 -5 6 6 6 11 1 17 -2 13 -5z m-2139 -61 c17 -73 25 -153 14 -153 -5 0
-13 25 -17 55 -3 30 -11 57 -16 60 -11 7 -12 85 -1 85 5 0 13 -21 20 -47z
m-1360 -4 c-2 -15 -10 -23 -25 -24 -19 -1 -22 2 -17 24 6 24 4 23 -19 -9 -17
-24 -21 -37 -13 -42 8 -5 8 -12 0 -25 -18 -30 -31 -25 -37 14 -6 34 -3 40 25
63 57 45 93 45 86 -1z m3186 5 c16 -10 26 -12 31 -5 20 34 31 0 39 -124 3 -38
8 -116 12 -171 4 -71 3 -103 -5 -108 -6 -4 -11 -12 -11 -17 0 -6 5 -7 10 -4
13 8 13 -21 0 -45 -8 -16 -8 -18 5 -14 19 8 19 1 -2 -39 -15 -30 -15 -31 0
-18 15 12 17 11 17 -6 0 -23 -26 -61 -35 -52 -3 4 -7 24 -8 45 -1 22 -6 42
-11 46 -6 4 -5 16 2 32 8 19 8 26 -1 29 -9 3 -9 10 1 27 8 12 9 19 3 15 -8 -4
-11 3 -9 22 1 15 -3 37 -10 49 -12 22 -7 59 12 84 9 13 9 13 -5 2 -14 -10 -17
-9 -22 7 -2 11 1 32 9 47 18 33 18 37 -1 30 -20 -7 -19 3 2 26 12 14 14 23 6
40 -10 22 -10 22 -24 -7 -8 -15 -20 -30 -26 -33 -18 -5 -16 33 2 48 21 18 19
47 -5 53 -14 3 -20 14 -20 31 0 30 11 32 44 10z m213 10 c-3 -3 -12 -4 -19 -1
-8 3 -5 6 6 6 11 1 17 -2 13 -5z m-2617 -29 c0 -8 -7 -15 -16 -15 -14 0 -14 3
-4 15 7 8 14 15 16 15 2 0 4 -7 4 -15z m-293 -46 c23 -11 50 -19 61 -19 34 0
50 -23 55 -85 3 -33 15 -123 27 -200 29 -192 52 -384 57 -482 l4 -82 -33 -14
c-18 -8 -39 -21 -47 -30 -7 -10 -24 -17 -38 -17 -13 0 -34 -7 -47 -15 -24 -16
-32 -16 -118 4 -32 7 -67 8 -110 1 -35 -5 -81 -11 -103 -12 -38 -3 -40 -1 -42
27 -2 17 -7 75 -13 130 -5 55 -19 194 -31 310 -11 115 -23 213 -26 217 -2 5 2
10 9 12 145 41 207 66 208 84 0 6 -6 12 -13 12 -22 0 -121 -31 -131 -41 -15
-13 -66 -11 -71 4 -2 6 -6 25 -7 41 -3 26 1 29 45 41 27 7 63 26 80 42 111
104 176 120 284 72z m-881 10 c3 -6 15 -9 25 -6 31 8 22 -1 -23 -23 -50 -24
-67 -25 -74 -5 -13 33 53 64 72 34z m398 -50 c-7 -11 -44 -12 -44 -1 0 4 5 13
12 20 13 13 42 -4 32 -19z m746 22 c0 -12 -20 -25 -27 -18 -7 7 6 27 18 27 5
0 9 -4 9 -9z m30 -11 c0 -5 -9 -14 -20 -20 -22 -12 -27 -1 -8 18 14 14 28 16
28 2z m1248 -2 c-2 -6 -10 -14 -16 -16 -7 -2 -10 2 -6 12 7 18 28 22 22 4z
m1372 -9 c0 -11 -27 -12 -34 0 -3 4 -3 11 0 14 8 8 34 -3 34 -14z m-4096 -7
c2 -4 1 -14 -4 -22 -7 -11 -12 -12 -21 -3 -6 6 -8 16 -5 22 8 13 23 14 30 3z
m621 -34 c-6 -17 -4 -20 9 -15 20 8 20 -7 0 -38 -22 -34 -32 -24 -32 30 0 33
4 45 15 45 10 0 12 -6 8 -22z m-434 -50 l1 -53 10 48 c11 50 36 62 30 14 -2
-15 1 -27 7 -27 6 0 11 11 11 25 0 36 18 31 29 -7 8 -30 9 -31 10 -7 1 35 11
42 33 22 43 -39 15 -69 -95 -103 -52 -16 -78 -31 -108 -63 -33 -33 -42 -38
-50 -26 -5 8 -9 19 -9 26 0 19 21 27 31 12 11 -18 17 1 21 60 4 57 28 69 29
14 1 -53 16 -17 24 60 8 71 25 75 26 5z m4175 38 c14 -11 16 -18 8 -26 -9 -8
-38 -9 -108 -2 -100 10 -112 13 -101 31 10 17 177 14 201 -3z m-1566 -10 c0
-16 -26 -46 -40 -46 -5 0 -4 14 1 30 11 30 39 42 39 16z m-1300 -18 c0 -20 -1
-21 -13 -4 -12 16 -14 16 -26 2 -8 -9 -18 -16 -24 -16 -5 0 -2 9 8 20 25 27
55 26 55 -2z m-1440 -28 c0 -5 -4 -10 -10 -10 -5 0 -10 5 -10 10 0 6 5 10 10
10 6 0 10 -4 10 -10z m2770 -11 c0 -17 -20 -49 -30 -49 -14 0 -12 34 2 48 15
15 28 15 28 1z m-724 -161 c6 -69 5 -78 -10 -78 -12 0 -15 6 -10 25 5 19 2 25
-11 25 -15 0 -15 3 -5 15 10 12 10 30 1 86 -6 39 -8 75 -5 81 11 17 33 -68 40
-154z m-2561 130 c35 -16 34 -42 -2 -33 -34 8 -47 20 -39 34 9 14 9 14 41 -1z
m458 -5 c30 -6 41 -18 32 -32 -6 -11 -95 29 -95 43 0 4 8 5 18 1 9 -3 29 -9
45 -12z m1511 -8 c9 -13 16 -27 16 -30 0 -11 -29 -4 -33 8 -3 9 -8 9 -21 -2
-24 -20 -30 -7 -11 23 21 32 28 32 49 1z m2356 -12 c0 -26 -3 -34 -11 -26 -9
9 -3 63 7 63 2 0 4 -17 4 -37z m-950 4 c0 -14 -20 -37 -32 -37 -12 0 -10 24 4
38 16 16 28 15 28 -1z m-60 -17 c0 -5 -7 -10 -16 -10 -8 0 -12 5 -9 10 3 6 10
10 16 10 5 0 9 -4 9 -10z m-2958 -83 c-3 -44 0 -67 7 -67 6 0 11 20 11 48 0
57 9 92 23 92 6 0 8 -22 4 -60 -4 -33 -3 -60 2 -60 13 0 21 26 21 67 0 50 24
37 31 -18 5 -38 9 -36 13 8 1 7 6 17 12 23 8 8 13 2 18 -22 7 -35 -18 -83 -45
-83 -8 -1 -35 -7 -61 -14 -70 -20 -78 -13 -72 56 6 81 13 105 27 100 8 -3 11
-25 9 -70z m-344 53 c12 0 17 -32 6 -43 -3 -3 -19 -1 -35 5 -37 13 -43 54 -6
44 12 -3 28 -6 35 -6z m3392 1 c0 -13 -26 -32 -33 -24 -8 7 11 33 24 33 5 0 9
-4 9 -9z m125 0 c6 -11 -29 -33 -39 -24 -7 7 12 33 25 33 4 0 10 -4 14 -9z
m-3224 -81 c-3 -77 -6 -90 -22 -90 -10 0 -12 43 -2 118 9 79 27 59 24 -28z
m1676 43 c5 -14 -33 -27 -48 -17 -9 5 -6 11 7 21 20 14 36 13 41 -4z m-1722
-70 c-8 -95 -20 -111 -63 -89 -44 23 -47 33 -20 71 30 46 41 44 33 -5 -4 -23
-3 -40 3 -40 5 0 12 27 16 61 6 65 11 79 28 79 7 0 8 -25 3 -77z m4076 14 c0
-29 4 -74 8 -100 4 -26 5 -50 1 -52 -4 -3 -10 23 -14 58 -4 34 -10 84 -13 111
-4 36 -3 47 6 42 6 -4 11 -31 12 -59z m-4343 27 c21 -6 31 -38 15 -47 -17 -10
-53 13 -53 33 0 22 3 23 38 14z m3271 -39 c45 -9 87 -12 94 -8 14 9 20 10 147
13 95 3 166 -6 175 -20 2 -4 6 -27 9 -51 2 -24 5 -48 6 -54 5 -22 -1 -25 -30
-10 -17 9 -55 15 -91 15 -43 0 -68 5 -80 16 -27 25 -243 33 -286 10 -46 -23
-173 -18 -173 8 0 7 -14 16 -32 21 -76 23 -31 53 97 65 44 4 81 8 81 9 1 0 38
-6 83 -14z m-2049 -63 c0 -13 -3 -12 -15 4 -19 25 -19 40 0 24 8 -7 15 -20 15
-28z m-1208 23 c4 -4 -1 -56 -28 -252 -9 -68 -24 -50 -24 30 0 136 1 151 13
159 9 5 7 11 -6 20 -24 18 -12 48 17 48 13 0 25 -2 28 -5z m2578 -87 c0 -16
-4 -28 -9 -28 -11 0 -21 36 -21 75 l1 30 14 -25 c8 -14 14 -37 15 -52z m1169
-25 c-18 -21 -29 2 -28 57 l0 45 20 -44 c15 -34 17 -47 8 -58z m-319 37 c0 -5
-4 -10 -10 -10 -5 0 -10 5 -10 10 0 6 5 10 10 10 6 0 10 -4 10 -10z m-1457
-14 c16 -13 16 -14 -5 -19 -25 -7 -44 5 -34 22 9 14 17 13 39 -3z m617 -56 c0
-11 -4 -20 -10 -20 -5 0 -10 9 -10 20 0 11 5 20 10 20 6 0 10 -9 10 -20z
m1838 -20 c-2 -16 0 -31 6 -33 11 -4 8 -13 -27 -100 -9 -22 -9 -30 2 -36 10
-7 11 -12 0 -29 -11 -18 -10 -24 4 -40 10 -11 15 -26 11 -36 -7 -19 -6 -19
-39 -4 -24 11 -25 15 -25 93 0 45 6 103 14 128 12 41 12 46 -2 52 -14 5 -14 7
-2 15 9 5 17 5 21 -1 3 -6 11 -4 19 6 18 22 23 19 18 -15z m-663 0 c-10 -11
-20 -18 -23 -15 -7 6 18 35 31 35 5 0 2 -9 -8 -20z m-3105 -10 c0 -5 -5 -10
-11 -10 -5 0 -7 5 -4 10 3 6 8 10 11 10 2 0 4 -4 4 -10z m507 -72 c-3 -8 -6
-5 -6 6 -1 11 2 17 5 13 3 -3 4 -12 1 -19z m53 -33 c0 -31 -19 -55 -44 -55
-13 0 -5 43 12 65 24 33 32 31 32 -10z m3230 0 c0 -8 -4 -15 -10 -15 -5 0 -10
7 -10 15 0 8 5 15 10 15 6 0 10 -7 10 -15z m-1786 -158 c-6 -27 -28 -46 -41
-34 -3 4 -2 14 2 24 5 10 8 43 7 73 l-1 55 20 -44 c13 -29 18 -55 13 -74z
m1481 63 c8 -13 -5 -13 -25 0 -13 8 -13 10 2 10 9 0 20 -4 23 -10z m-2120 -20
c0 -10 -12 -16 -37 -18 -39 -3 -47 5 -26 26 17 17 63 11 63 -8z m1805 1 c0 -4
-6 -13 -12 -21 -11 -12 -10 -12 4 -1 23 17 87 31 93 20 3 -4 -11 -19 -32 -32
-21 -13 -45 -32 -52 -41 -14 -16 -15 -16 -27 6 -8 13 -13 37 -14 55 0 26 3 30
20 26 11 -3 20 -8 20 -12z m90 -56 c0 -9 -9 -15 -21 -15 -18 0 -19 2 -9 15 7
8 16 15 21 15 5 0 9 -7 9 -15z m-74 -62 c-21 -21 -26 -23 -26 -8 0 19 43 59
48 44 2 -5 -8 -21 -22 -36z m94 7 c0 -13 -5 -18 -15 -14 -16 7 -19 17 -8 27
12 13 23 7 23 -13z m-2096 -22 c3 -13 6 -42 6 -65 0 -38 -2 -42 -31 -48 -17
-4 -28 -9 -25 -13 12 -11 -28 -42 -55 -42 -15 0 -31 -5 -35 -11 -8 -14 -125
-5 -152 10 -12 8 4 11 63 11 44 1 96 8 115 16 l35 14 -35 -6 c-59 -11 -235 -7
-257 5 -12 6 -23 23 -25 38 -2 23 -8 29 -35 31 -18 2 -33 7 -33 13 0 17 128
16 218 -2 43 -9 61 -8 93 5 22 9 53 16 69 16 20 0 35 8 46 25 20 31 30 32 38
3z m197 -9 c8 -16 8 -24 0 -32 -14 -14 -31 6 -31 36 0 23 17 22 31 -4z m-660
-79 c10 -6 19 -17 19 -25 0 -21 40 -45 74 -45 59 0 11 -19 -66 -26 l-78 -7 0
25 c0 14 -3 40 -6 57 -6 27 -4 31 15 31 12 0 31 -5 42 -10z m2587 -8 c2 -7 -7
-12 -23 -12 -24 0 -26 2 -15 15 14 17 31 16 38 -3z m-1918 -11 c0 -10 3 -33 6
-50 4 -20 3 -31 -5 -31 -14 0 -31 41 -23 55 4 6 5 18 4 28 -2 9 2 17 7 17 6 0
11 -8 11 -19z m1937 -36 c7 -20 0 -27 -20 -19 -9 3 -13 12 -10 20 7 19 22 18
30 -1z m13 -65 c0 -5 -9 -10 -21 -10 -11 0 -17 5 -14 10 3 6 13 10 21 10 8 0
14 -4 14 -10z"/>
<path d="M1572 4923 c-17 -7 -54 -81 -47 -93 14 -23 45 -8 75 35 38 55 26 80
-28 58z"/>
<path d="M1202 5904 c4 -20 34 -41 45 -31 10 11 -11 41 -31 45 -12 3 -17 -2
-14 -14z"/>
<path d="M1144 5839 c-10 -17 7 -26 63 -33 63 -8 79 8 29 29 -42 18 -82 19
-92 4z"/>
<path d="M2650 5761 c0 -6 9 -16 21 -24 l21 -15 -21 -7 c-16 -5 -21 -15 -21
-40 0 -27 4 -34 27 -40 31 -7 56 16 46 43 -6 15 -3 14 15 -1 21 -20 42 -16 42
7 0 23 -78 86 -105 86 -14 0 -25 -4 -25 -9z"/>
<path d="M2863 5653 c-12 -10 -36 -48 -52 -85 -17 -36 -36 -68 -43 -70 -7 -3
-20 5 -30 16 -13 17 -19 18 -29 9 -10 -10 -9 -15 1 -28 7 -8 17 -15 23 -15 6
0 19 -8 29 -17 19 -17 20 -16 38 7 11 14 27 42 36 62 l17 37 30 -15 c26 -14
31 -14 45 -1 11 12 12 22 4 45 l-10 30 30 -10 c21 -7 33 -7 41 1 8 8 1 14 -24
25 -61 25 -83 27 -106 9z m35 -54 c-2 -6 -8 -10 -13 -10 -5 0 -11 4 -13 10 -2
6 4 11 13 11 9 0 15 -5 13 -11z"/>
<path d="M2643 5463 c-27 -5 -49 -31 -37 -43 24 -22 108 -61 127 -58 18 2 22
10 22 37 0 28 -6 38 -30 52 -30 18 -43 20 -82 12z"/>
<path d="M2011 5636 c-21 -21 -29 -38 -25 -49 9 -23 13 -22 46 15 49 56 31 87
-21 34z"/>
<path d="M1794 4882 c-39 -31 -75 -119 -89 -217 -7 -50 -19 -104 -27 -121 -15
-29 -47 -176 -46 -204 1 -9 -2 -27 -5 -42 -4 -16 -3 -30 4 -34 28 -17 65 71
84 201 17 113 56 250 96 338 39 86 32 119 -17 79z"/>
<path d="M2661 4366 c-7 -8 -19 -61 -27 -118 -9 -58 -26 -127 -40 -157 -27
-60 -30 -81 -11 -81 24 0 57 90 94 260 19 88 20 102 7 107 -6 2 -16 -3 -23
-11z"/>
<path d="M2354 4022 c-6 -4 -28 -38 -49 -77 -59 -106 -123 -169 -206 -201 -71
-28 -106 -55 -94 -73 9 -16 33 -14 94 9 96 35 196 116 242 196 17 30 39 60 50
68 17 11 19 20 14 50 -7 35 -25 46 -51 28z"/>
<path d="M2587 3992 c-10 -10 -17 -24 -17 -31 0 -8 -6 -11 -15 -7 -29 11 -46
-8 -92 -103 -59 -123 -87 -166 -118 -187 -24 -16 -27 -16 -46 2 -19 17 -23 17
-47 3 -18 -10 -28 -25 -30 -44 -3 -24 -12 -34 -45 -50 -44 -21 -55 -47 -24
-53 10 -2 29 3 42 12 13 9 34 16 45 16 12 0 32 11 45 24 12 13 38 33 57 44 51
31 110 107 158 201 23 45 44 81 46 78 10 -10 -41 -131 -72 -169 -38 -49 -43
-68 -15 -68 24 0 84 66 115 127 30 61 69 191 62 209 -7 19 -30 18 -49 -4z"/>
<path d="M2332 3788 c-7 -7 -12 -23 -12 -36 0 -38 34 -24 38 16 3 33 -6 40
-26 20z"/>
<path d="M2105 3219 c-27 -33 -28 -52 -3 -57 20 -4 62 53 54 73 -8 23 -22 18
-51 -16z"/>
<path d="M862 3125 c-6 -14 -10 -25 -7 -25 7 0 35 32 35 41 0 18 -17 9 -28
-16z"/>
<path d="M941 2960 c-1 -20 -6 -41 -12 -47 -8 -8 -5 -25 12 -62 20 -46 24 -50
38 -37 13 14 13 18 -3 34 -15 17 -15 20 -1 25 19 8 19 31 0 47 -8 7 -19 27
-24 44 l-9 31 -1 -35z"/>
<path d="M898 2915 c-10 -13 -18 -30 -18 -37 0 -7 10 2 21 20 25 38 22 51 -3
17z"/>
<path d="M976 2713 c-6 -14 -5 -15 5 -6 7 7 10 15 7 18 -3 3 -9 -2 -12 -12z"/>
<path d="M4083 3055 c-15 -13 -23 -25 -17 -25 6 0 21 11 34 25 30 32 19 32
-17 0z"/>
<path d="M1199 2516 c14 -14 26 -24 29 -22 7 8 -8 25 -31 37 -21 11 -21 10 2
-15z"/>
<path d="M1272 2524 c10 -10 20 -15 24 -12 3 4 -5 12 -18 18 -22 12 -22 12 -6
-6z"/>
<path d="M1140 2517 c0 -2 15 -16 33 -33 l32 -29 -29 33 c-28 30 -36 37 -36
29z"/>
<path d="M4339 2740 c-17 -16 -27 -35 -23 -41 4 -7 19 2 40 25 19 21 34 39 34
42 0 13 -25 0 -51 -26z"/>
<path d="M2631 2756 c-7 -8 -8 -17 -3 -20 6 -3 15 1 21 8 7 8 8 17 3 20 -6 3
-15 -1 -21 -8z"/>
<path d="M2684 2761 c-10 -10 -3 -23 11 -18 17 7 30 -11 27 -38 -1 -15 1 -14
9 5 5 13 17 33 26 42 15 17 13 18 -26 15 -23 -1 -44 -4 -47 -6z"/>
<path d="M2560 2744 c0 -8 5 -12 10 -9 6 3 10 10 10 16 0 5 -4 9 -10 9 -5 0
-10 -7 -10 -16z"/>
<path d="M2614 2706 c-3 -8 -4 -23 -2 -32 2 -14 6 -12 15 9 8 16 9 29 3 32 -6
4 -13 -1 -16 -9z"/>
<path d="M2557 2703 c-4 -3 -7 -11 -7 -17 0 -6 5 -5 12 2 6 6 9 14 7 17 -3 3
-9 2 -12 -2z"/>
<path d="M2660 2690 c0 -11 2 -20 4 -20 2 0 6 9 9 20 3 11 1 20 -4 20 -5 0 -9
-9 -9 -20z"/>
<path d="M2880 2511 c0 -17 18 -21 24 -6 3 9 0 15 -9 15 -8 0 -15 -4 -15 -9z"/>
<path d="M2931 2444 c0 -11 3 -14 6 -6 3 7 2 16 -1 19 -3 4 -6 -2 -5 -13z"/>
<path d="M2906 2384 c-10 -25 1 -29 14 -5 6 12 7 21 1 21 -5 0 -12 -7 -15 -16z"/>
<path d="M2880 2311 c-12 -24 -13 -34 -1 -27 9 6 22 46 15 46 -2 0 -8 -9 -14
-19z"/>
<path d="M3027 2303 c-4 -3 -7 -11 -7 -17 0 -6 5 -5 12 2 6 6 9 14 7 17 -3 3
-9 2 -12 -2z"/>
<path d="M2856 2245 c-9 -26 -7 -32 5 -12 6 10 9 21 6 23 -2 3 -7 -2 -11 -11z"/>
<path d="M3055 2241 c-12 -15 -22 -18 -29 -11 -14 14 -26 12 -26 -5 0 -9 9
-15 21 -15 18 0 20 -4 14 -32 -6 -26 -5 -30 10 -25 9 4 19 7 22 7 3 0 0 7 -7
15 -10 12 -9 20 4 41 22 33 16 51 -9 25z"/>
<path d="M2920 2159 c0 -5 5 -7 10 -4 6 3 10 8 10 11 0 2 -4 4 -10 4 -5 0 -10
-5 -10 -11z"/>
<path d="M2906 2105 c-3 -8 -1 -15 4 -15 6 0 10 7 10 15 0 8 -2 15 -4 15 -2 0
-6 -7 -10 -15z"/>
<path d="M3011 2104 c0 -11 3 -14 6 -6 3 7 2 16 -1 19 -3 4 -6 -2 -5 -13z"/>
<path d="M2891 2034 c0 -11 3 -14 6 -6 3 7 2 16 -1 19 -3 4 -6 -2 -5 -13z"/>
<path d="M2921 1974 c0 -11 3 -14 6 -6 3 7 2 16 -1 19 -3 4 -6 -2 -5 -13z"/>
<path d="M3036 1874 c-8 -21 -8 -24 3 -24 5 0 11 9 14 20 6 24 -8 27 -17 4z"/>
<path d="M3067 1814 c-4 -4 -7 -17 -7 -28 1 -19 1 -20 11 -3 11 19 8 43 -4 31z"/>
<path d="M3017 1803 c-4 -3 -7 -13 -7 -22 1 -13 3 -13 11 2 11 19 8 33 -4 20z"/>
<path d="M3101 1794 c0 -11 3 -14 6 -6 3 7 2 16 -1 19 -3 4 -6 -2 -5 -13z"/>
<path d="M3137 1726 c-4 -10 -7 -30 -6 -44 1 -25 1 -25 10 6 11 37 7 67 -4 38z"/>
<path d="M3470 2315 c-7 -9 -11 -18 -8 -20 3 -3 11 1 18 10 7 9 11 18 8 20 -3
3 -11 -1 -18 -10z"/>
<path d="M3511 2128 c-14 -23 -14 -23 8 -4 22 20 25 26 13 26 -4 0 -13 -10
-21 -22z"/>
<path d="M3522 2096 c-19 -20 -21 -31 -16 -65 4 -23 10 -41 15 -41 5 0 9 -7 9
-15 0 -23 15 -18 28 10 7 14 17 36 24 50 14 30 1 78 -22 82 -8 2 -25 -8 -38
-21z"/>
<path d="M3573 1944 c-20 -21 -16 -42 3 -22 9 9 15 21 13 26 -2 6 -9 4 -16 -4z"/>
<path d="M3642 1698 c-14 -14 -16 -28 -3 -28 9 0 24 30 18 36 -2 2 -9 -2 -15
-8z"/>
<path d="M1755 2270 c-7 -12 2 -30 16 -30 12 0 12 27 0 35 -5 3 -12 1 -16 -5z"/>
<path d="M1775 2209 c-3 -9 -3 -24 1 -33 6 -15 8 -15 24 -1 9 8 28 14 41 13
18 -2 25 2 27 17 2 18 -3 21 -43 21 -33 0 -46 -4 -50 -17z"/>
<path d="M1815 2159 c-4 -6 -5 -12 -2 -15 2 -3 7 2 10 11 7 17 1 20 -8 4z"/>
<path d="M996 2329 c-27 -32 -33 -54 -16 -64 6 -3 8 -16 5 -28 -4 -16 1 -26
16 -35 19 -12 24 -10 50 20 34 40 36 57 9 91 -11 14 -20 30 -20 36 0 20 -18
12 -44 -20z"/>
<path d="M865 2250 c3 -5 8 -10 11 -10 2 0 4 5 4 10 0 6 -5 10 -11 10 -5 0 -7
-4 -4 -10z"/>
<path d="M796 2088 c15 -20 30 -35 33 -32 3 2 -10 19 -28 37 l-34 32 29 -37z"/>
<path d="M860 1886 c0 -2 8 -10 18 -17 15 -13 16 -12 3 4 -13 16 -21 21 -21
13z"/>
<path d="M720 1866 c0 -2 8 -10 18 -17 15 -13 16 -12 3 4 -13 16 -21 21 -21
13z"/>
<path d="M870 1725 c19 -19 38 -35 44 -35 5 0 -5 16 -24 35 -19 19 -38 35 -44
35 -5 0 5 -16 24 -35z"/>
<path d="M820 1705 c1 -14 79 -102 80 -89 0 6 -18 31 -40 55 -22 24 -40 39
-40 34z"/>
<path d="M795 1631 c21 -22 41 -41 43 -41 8 0 -44 58 -63 70 -11 7 -2 -6 20
-29z"/>
<path d="M745 1440 c32 -33 61 -57 64 -54 6 6 -100 114 -113 114 -6 0 16 -27
49 -60z"/>
<path d="M640 1251 c0 -5 7 -12 16 -15 14 -5 15 -4 4 9 -14 17 -20 19 -20 6z"/>
<path d="M1871 1594 c0 -11 3 -14 6 -6 3 7 2 16 -1 19 -3 4 -6 -2 -5 -13z"/>
<path d="M1912 1330 c0 -14 2 -19 5 -12 2 6 2 18 0 25 -3 6 -5 1 -5 -13z"/>
<path d="M1992 597 c-12 -13 -22 -30 -22 -38 1 -9 7 -6 20 10 13 15 26 21 36
17 19 -7 47 12 38 25 -10 17 -51 9 -72 -14z"/>
<path d="M3680 1495 c-8 -9 -8 -15 -2 -15 12 0 26 19 19 26 -2 2 -10 -2 -17
-11z"/>
<path d="M3727 1256 c-10 -15 -16 -30 -13 -34 11 -10 38 25 34 44 -3 15 -6 14
-21 -10z"/>
<path d="M3747 1212 c-17 -18 -23 -42 -11 -42 8 0 43 43 44 53 0 13 -17 7 -33
-11z"/>
<path d="M3770 1175 c-7 -9 -14 -30 -16 -48 l-2 -32 24 28 c25 29 30 52 15 61
-5 3 -14 -1 -21 -9z"/>
<path d="M3225 1329 c-11 -17 1 -21 15 -4 8 9 8 15 2 15 -6 0 -14 -5 -17 -11z"/>
<path d="M3246 1254 c-4 -9 -4 -19 -1 -22 2 -3 7 3 11 12 4 9 4 19 1 22 -2 3
-7 -3 -11 -12z"/>
<path d="M1535 1185 c-25 -8 -60 -35 -93 -71 -47 -51 -62 -60 -109 -63 -7 -1
-13 -8 -13 -16 0 -15 10 -19 45 -16 54 5 83 23 114 71 26 40 40 52 74 61 53
14 70 22 69 34 -2 16 -44 16 -87 0z"/>
<path d="M751 1024 c0 -11 3 -14 6 -6 3 7 2 16 -1 19 -3 4 -6 -2 -5 -13z"/>
<path d="M3084 4609 c-26 -42 -26 -73 0 -63 21 8 69 81 61 93 -13 21 -35 10
-61 -30z"/>
<path d="M131 1984 c0 -11 3 -14 6 -6 3 7 2 16 -1 19 -3 4 -6 -2 -5 -13z"/>
<path d="M120 1924 c0 -8 5 -12 10 -9 6 4 8 11 5 16 -9 14 -15 11 -15 -7z"/>
<path d="M107 1871 c-5 -22 1 -33 14 -25 12 7 12 44 0 44 -5 0 -11 -9 -14 -19z"/>
<path d="M2430 1805 c-7 -9 -19 -14 -26 -11 -7 3 -16 1 -19 -4 -4 -6 -1 -10 6
-10 11 0 10 -10 -6 -55 -4 -12 0 -9 11 8 19 27 34 35 34 18 0 -6 -4 -13 -10
-16 -12 -8 -13 -45 -1 -45 24 0 35 39 29 108 -3 26 -2 26 -18 7z"/>
<path d="M101 1794 c0 -11 3 -14 6 -6 3 7 2 16 -1 19 -3 4 -6 -2 -5 -13z"/>
<path d="M2438 1669 c-22 -12 -24 -39 -3 -39 16 0 29 22 23 39 -2 6 -9 6 -20
0z"/>
<path d="M2505 1000 c-3 -5 -1 -10 4 -10 6 0 11 5 11 10 0 6 -2 10 -4 10 -3 0
-8 -4 -11 -10z"/>
<path d="M4760 995 c-10 -12 -10 -18 0 -30 25 -30 80 -5 66 30 -7 19 -50 19
-66 0z"/>
<path d="M2520 879 c0 -5 5 -7 10 -4 6 3 10 8 10 11 0 2 -4 4 -10 4 -5 0 -10
-5 -10 -11z"/>
<path d="M4560 780 c0 -5 8 -10 18 -10 17 0 43 -16 110 -64 31 -23 35 -24 67
-10 19 8 37 14 40 13 3 0 19 3 36 6 22 5 34 3 40 -6 6 -10 1 -15 -18 -19 -32
-6 -43 -30 -15 -30 36 0 52 -11 52 -36 0 -17 -6 -24 -20 -24 -11 0 -20 -4 -20
-10 0 -5 9 -10 20 -10 11 0 20 5 20 10 0 16 18 12 60 -15 49 -31 50 -31 50 0
0 18 -7 26 -24 31 -20 5 -23 9 -13 19 8 9 16 10 25 3 9 -8 12 -4 12 15 0 17
-7 28 -20 32 -11 4 -18 11 -14 16 3 6 12 8 20 5 9 -3 14 2 14 14 0 17 -7 20
-42 21 -111 3 -167 1 -209 -6 -43 -7 -50 -4 -99 29 -51 35 -90 46 -90 26z"/>
<path d="M4595 590 c-6 -9 32 -40 50 -40 6 0 26 -11 45 -25 34 -25 60 -21 60
11 0 20 13 17 44 -7 26 -21 53 -16 38 6 -30 44 -133 78 -118 40 5 -13 2 -14
-22 -2 -37 19 -90 28 -97 17z"/>
<path d="M4585 511 c-3 -6 25 -24 62 -42 60 -28 156 -112 238 -207 6 -7 34
-30 63 -53 l53 -41 -3 34 c-3 30 -10 37 -73 70 -71 37 -88 54 -60 60 11 2 -1
20 -42 63 -79 81 -217 149 -238 116z"/>
<path d="M4760 482 c0 -10 117 -82 132 -82 15 0 -17 39 -53 66 -32 23 -79 33
-79 16z"/>
<path d="M4943 366 c7 -19 6 -19 -27 -6 -22 8 -26 7 -26 -9 0 -24 45 -65 64
-58 9 4 16 16 16 28 0 15 4 19 16 15 12 -4 15 0 12 17 -2 16 -11 23 -32 25
-23 3 -28 0 -23 -12z"/>
<path d="M2188 333 c-20 -5 -23 -18 -8 -28 12 -7 50 12 50 25 0 10 -12 11 -42
3z"/>
<path d="M2003 308 c-4 -7 -8 -32 -9 -56 -2 -59 19 -38 22 23 3 47 1 53 -13
33z"/>
<path d="M4635 291 c-4 -7 11 -19 35 -30 23 -10 63 -42 89 -70 29 -31 56 -51
69 -51 28 0 28 11 0 37 -13 11 -35 36 -49 55 -17 22 -42 39 -69 47 -23 7 -48
15 -55 17 -7 3 -16 0 -20 -5z"/>
<path d="M4985 271 c-3 -5 -1 -12 5 -16 5 -3 10 1 10 9 0 18 -6 21 -15 7z"/>
<path d="M2625 250 c-3 -5 -2 -10 4 -10 5 0 13 5 16 10 3 6 2 10 -4 10 -5 0
-13 -4 -16 -10z"/>
<path d="M2238 243 c7 -3 16 -2 19 1 4 3 -2 6 -13 5 -11 0 -14 -3 -6 -6z"/>
<path d="M2313 243 c15 -2 39 -2 55 0 15 2 2 4 -28 4 -30 0 -43 -2 -27 -4z"/>
<path d="M345 200 c-4 -7 0 -19 9 -28 15 -15 16 -15 16 1 0 9 0 20 1 24 1 13
-19 15 -26 3z"/>
<path d="M3040 165 c0 -10 52 -25 63 -18 7 4 3 9 -9 14 -23 9 -54 11 -54 4z"/>
<path d="M4890 130 c0 -6 7 -13 15 -16 8 -4 15 -11 15 -18 0 -6 18 -21 40 -34
l40 -23 0 26 c0 20 -10 30 -50 50 -55 28 -60 29 -60 15z"/>
<path d="M1240 105 c0 -14 4 -25 9 -25 12 0 23 29 15 41 -10 18 -24 9 -24 -16z"/>
<path d="M4680 117 c0 -9 18 -22 43 -32 26 -10 51 -29 66 -50 18 -27 31 -35
53 -35 l30 0 -26 31 c-14 17 -26 35 -26 40 0 10 -72 44 -116 55 -17 5 -24 2
-24 -9z"/>
<path d="M3640 100 c14 -4 42 -8 62 -9 20 -1 40 -5 43 -11 4 -6 -21 -10 -68
-10 -75 0 -174 -24 -227 -55 l-25 -14 25 -1 c14 0 50 10 80 22 73 28 171 28
273 0 87 -25 97 -26 97 -13 0 5 -17 15 -37 21 -52 17 -61 27 -38 44 18 13 18
14 -3 25 -11 6 -62 11 -114 10 -62 -1 -85 -4 -68 -9z"/>
<path d="M2007 93 c-4 -3 -7 -11 -7 -17 0 -6 5 -5 12 2 6 6 9 14 7 17 -3 3 -9
2 -12 -2z"/>
<path d="M2765 10 c-3 -5 -1 -10 4 -10 6 0 11 5 11 10 0 6 -2 10 -4 10 -3 0
-8 -4 -11 -10z"/>
</g>
</svg>
