<?xml version="1.0" standalone="no"?>
<!DOCTYPE svg PUBLIC "-//W3C//DTD SVG 20010904//EN"
 "http://www.w3.org/TR/2001/REC-SVG-20010904/DTD/svg10.dtd">
<svg version="1.0" xmlns="http://www.w3.org/2000/svg"
 width="500.000000pt" height="878.000000pt" viewBox="0 0 500.000000 878.000000"
 preserveAspectRatio="xMidYMid meet">
<metadata>
Created by potrace 1.15, written by Peter Selinger 2001-2017
</metadata>
<g transform="translate(0.000000,878.000000) scale(0.100000,-0.100000)"
fill="#000000" stroke="none">
<path d="M2879 8736 c-3 -3 -162 -8 -354 -11 -193 -3 -358 -8 -368 -11 -28 -9
-14 -29 19 -29 16 0 35 -4 42 -8 13 -9 102 -188 102 -206 0 -12 -26 -21 -63
-21 -24 0 -28 -3 -19 -12 8 -8 60 -11 174 -9 237 3 460 11 470 17 16 10 -3 24
-32 24 -15 0 -30 6 -33 13 -3 7 -4 58 -3 112 l1 100 38 6 c43 7 55 15 41 29
-6 6 -12 8 -15 6z m-231 -154 c2 -93 0 -112 -12 -112 -10 0 -17 14 -20 43 -16
131 -17 159 -5 173 26 31 34 7 37 -104z m99 0 c-2 -88 -5 -107 -17 -107 -12 0
-16 19 -18 99 -3 110 0 128 22 120 11 -4 14 -27 13 -112z m-322 76 c-12 -55
-55 -142 -64 -132 -15 16 -70 152 -64 158 4 3 35 6 70 6 l65 0 -7 -32z m119
-40 c4 -40 9 -90 12 -110 5 -35 4 -38 -18 -39 -12 0 -47 -2 -75 -5 -31 -3 -53
-1 -53 5 0 5 13 38 30 73 16 34 30 69 30 76 0 20 39 72 55 72 9 0 15 -22 19
-72z"/>
<path d="M0 8102 c0 -9 118 -69 193 -98 54 -21 58 -32 21 -54 -20 -12 -28 -13
-45 -2 -22 14 -32 7 -60 -40 -13 -24 -29 -23 -29 2 0 10 -8 24 -17 29 -16 10
-16 11 5 17 13 4 21 11 19 17 -7 23 -23 15 -47 -23 -14 -22 -28 -40 -32 -40
-5 0 -8 -13 -8 -28 0 -24 8 -32 53 -54 68 -34 252 -113 347 -148 74 -27 160
-61 575 -225 116 -45 239 -92 275 -103 36 -12 119 -42 185 -67 66 -26 147 -57
180 -70 70 -26 128 -49 240 -95 44 -18 134 -55 200 -82 66 -27 154 -61 195
-74 41 -14 86 -31 100 -38 14 -7 43 -19 65 -26 22 -7 45 -16 50 -20 6 -4 76
-35 156 -70 124 -53 149 -67 163 -94 9 -17 24 -43 32 -59 22 -41 56 -58 119
-62 65 -4 76 -10 51 -28 -16 -12 -17 -17 -6 -38 17 -32 29 -39 70 -39 32 -1
37 -5 60 -52 29 -60 52 -78 78 -62 38 24 22 122 -27 160 -19 15 -6 34 24 34
12 0 101 -34 196 -75 96 -42 215 -91 264 -110 81 -31 477 -192 695 -282 121
-50 144 -52 181 -17 l30 29 57 -62 c78 -86 144 -105 173 -52 10 19 5 27 -46
75 -35 33 -66 54 -80 54 -13 0 -25 7 -29 15 -4 12 6 15 60 15 48 0 66 -4 70
-15 9 -23 68 -55 102 -55 30 0 62 21 62 41 0 17 -47 58 -75 65 -24 6 -27 10
-22 40 6 38 -16 64 -56 64 -26 0 -67 -40 -67 -66 0 -17 -53 -45 -66 -36 -6 4
-16 22 -23 39 -15 36 -59 67 -109 77 -32 6 -640 244 -792 310 -41 18 -154 63
-250 100 -96 37 -240 96 -320 131 -133 58 -248 103 -545 215 -60 23 -178 70
-262 106 -202 85 -336 139 -463 184 -154 55 -270 102 -270 110 0 4 12 12 26
19 23 10 30 9 49 -9 26 -24 58 -26 76 -4 11 14 10 21 -4 46 -9 16 -17 40 -17
52 0 26 -34 66 -56 66 -8 0 -24 -5 -35 -11 -16 -8 -26 -5 -50 15 -46 39 -129
31 -129 -13 0 -23 41 -61 67 -61 26 0 47 -25 39 -46 -5 -13 -15 -15 -44 -12
-64 9 -345 119 -477 186 -27 14 -79 36 -115 48 -36 12 -96 34 -135 50 -38 15
-99 37 -135 50 -36 12 -87 32 -113 44 -27 12 -58 23 -70 24 -52 7 -88 20 -177
66 -52 27 -119 58 -147 69 -29 12 -75 30 -103 41 -27 11 -50 16 -50 12z m302
-156 c20 -11 39 -27 41 -38 4 -14 11 -17 29 -13 27 7 58 -19 42 -35 -11 -11
-54 -2 -54 11 0 5 -12 9 -26 9 -17 0 -28 6 -31 18 -3 13 -12 18 -26 15 -35 -6
-51 10 -37 36 6 12 14 21 18 19 4 -2 24 -12 44 -22z m-133 -29 c8 -11 6 -18
-8 -31 -18 -16 -19 -16 -23 14 -5 32 11 41 31 17z m78 -33 c1 -5 -4 -18 -12
-28 -19 -26 -36 -10 -24 22 9 23 30 26 36 6z m358 -42 c115 -41 124 -45 220
-85 33 -13 78 -30 100 -37 44 -14 87 -36 124 -62 13 -10 30 -18 39 -18 13 0
151 -58 297 -125 28 -13 64 -27 80 -31 36 -8 182 -78 209 -98 16 -13 17 -18 6
-31 -15 -18 -9 -19 22 -4 17 7 32 7 52 -1 l28 -10 -31 -32 c-18 -18 -34 -42
-37 -55 -6 -24 -30 -38 -40 -22 -3 5 0 16 6 24 6 8 10 24 8 36 -2 19 -10 23
-48 25 -26 1 -49 9 -56 18 -16 22 -27 20 -58 -11 -30 -29 -44 -26 -26 7 6 12
9 33 5 47 -6 24 -7 24 -24 9 -30 -28 -50 -20 -47 18 2 18 6 38 10 44 4 7 -3
10 -21 9 -20 -1 -30 4 -38 21 -5 12 -12 22 -15 22 -21 -2 -70 -74 -70 -103 0
-21 -19 -32 -32 -19 -6 6 -6 16 3 29 15 25 4 73 -17 73 -8 0 -17 -7 -20 -15
-7 -16 -54 -21 -54 -6 0 24 21 60 36 63 15 3 15 5 3 15 -29 24 -85 -27 -93
-86 -2 -9 -9 -16 -17 -16 -8 0 -13 8 -11 20 2 11 6 37 9 58 3 22 11 37 19 37
7 0 11 6 8 14 -6 15 -34 11 -34 -5 0 -6 -13 -23 -29 -38 -16 -16 -27 -32 -24
-35 3 -3 3 -13 -1 -22 -5 -12 -10 -14 -19 -5 -11 9 -11 19 2 61 13 41 20 50
40 50 19 0 21 3 11 15 -6 8 -9 19 -5 25 3 5 2 10 -4 10 -5 0 -13 -5 -17 -11
-3 -6 -15 -9 -25 -6 -15 4 -17 2 -10 -11 7 -11 2 -21 -16 -35 -22 -17 -26 -18
-39 -5 -18 17 -9 45 16 53 26 8 14 33 -16 31 -16 -1 -22 -6 -19 -16 3 -9 -7
-22 -25 -32 -18 -10 -30 -25 -30 -37 0 -26 -18 -37 -27 -15 -3 10 0 22 8 28 8
6 13 20 11 32 -4 30 -60 21 -72 -12 -5 -13 -14 -24 -20 -24 -13 0 -13 27 0 35
6 4 8 15 5 25 -4 13 2 24 20 36 30 20 28 37 -4 39 -17 1 -21 -3 -18 -16 3 -10
-1 -26 -7 -35 -11 -15 -15 -14 -40 9 -27 26 -28 47 -1 47 8 0 11 7 8 19 -4 17
-8 18 -24 8 -10 -6 -19 -19 -19 -28 0 -9 -7 -23 -16 -30 -14 -11 -19 -10 -36
11 -14 17 -31 25 -52 25 -17 0 -31 5 -31 10 0 6 -4 16 -9 23 -4 7 -3 19 3 26
6 7 8 16 4 19 -14 15 -29 6 -40 -24 -9 -24 -17 -30 -35 -27 -30 4 -31 39 -1
53 27 14 13 45 -22 45 -30 0 -35 9 -24 39 6 16 15 22 27 18 9 -3 67 -24 127
-45z m-287 5 c2 -10 -4 -20 -13 -23 -21 -9 -28 0 -20 26 8 24 28 22 33 -3z
m67 -36 c-3 -12 -11 -21 -17 -21 -5 0 -7 7 -4 16 3 9 6 23 6 32 0 12 3 13 11
5 6 -6 8 -20 4 -32z m-170 10 c7 -12 -12 -24 -25 -16 -11 7 -4 25 10 25 5 0
11 -4 15 -9z m240 -11 c3 -5 1 -10 -6 -10 -7 0 -21 -7 -31 -17 -17 -15 -18
-15 -18 5 0 27 41 44 55 22z m-170 -28 c0 -18 -20 -15 -23 4 -3 10 1 15 10 12
7 -3 13 -10 13 -16z m115 -52 c0 -5 -4 -10 -10 -10 -5 0 -10 5 -10 10 0 6 5
10 10 10 6 0 10 -4 10 -10z m89 -24 c14 -17 0 -29 -23 -20 -17 7 -20 16 -9 27
10 11 19 8 32 -7z m101 -51 c-13 -16 -40 -9 -40 9 0 21 12 26 32 15 15 -8 17
-13 8 -24z m88 -22 c5 -17 -26 -29 -40 -15 -6 6 -7 15 -3 22 9 14 37 9 43 -7z
m892 -19 c0 -2 -15 -4 -32 -3 -27 0 -29 2 -13 8 18 8 45 4 45 -5z m-806 -12
c2 -4 1 -14 -4 -21 -10 -17 -31 -5 -23 14 6 16 19 20 27 7z m926 -21 c0 -6 -4
-13 -10 -16 -5 -3 -10 1 -10 9 0 9 5 16 10 16 6 0 10 -4 10 -9z m-720 -56 c10
-12 10 -18 0 -31 -12 -13 -15 -13 -28 0 -15 15 -10 46 6 46 5 0 15 -7 22 -15z
m420 -125 c-11 -15 -20 -36 -20 -45 0 -9 -6 -15 -12 -12 -15 5 -14 40 1 80 9
24 14 26 31 17 l21 -11 -21 -29z m-181 26 c7 -9 8 -17 2 -20 -14 -9 -41 4 -41
20 0 18 24 18 39 0z m237 -77 c8 -14 -11 -33 -25 -25 -11 7 -4 36 9 36 5 0 12
-5 16 -11z m502 -61 c59 -22 145 -56 192 -75 47 -19 114 -45 149 -58 63 -24
110 -55 83 -55 -7 0 -21 -11 -33 -24 -17 -20 -24 -22 -45 -12 -25 11 -31 30
-14 41 6 3 10 11 10 17 0 6 -10 2 -23 -10 -13 -12 -35 -22 -49 -22 -15 0 -32
-9 -41 -22 -8 -13 -19 -19 -23 -15 -5 5 1 17 13 26 28 23 16 42 -28 44 -28 2
-35 -2 -37 -20 -4 -25 -23 -35 -43 -22 -12 7 -11 13 4 40 30 54 -7 70 -45 19
-12 -16 -25 -30 -30 -30 -11 0 -10 37 1 44 4 3 6 16 4 29 -3 14 2 29 11 36 20
17 21 31 2 31 -18 0 -76 -66 -76 -85 0 -8 -7 -15 -15 -15 -18 0 -19 12 -4 27
16 16 2 33 -27 33 -13 0 -24 5 -24 10 0 6 -17 10 -39 10 -48 0 -67 19 -46 46
8 10 15 27 15 37 0 27 41 21 158 -25z m-168 -79 c0 -24 -23 -21 -28 4 -2 10 3
17 12 17 10 0 16 -9 16 -21z m80 -18 c0 -6 -4 -13 -10 -16 -5 -3 -10 1 -10 9
0 9 5 16 10 16 6 0 10 -4 10 -9z m586 -106 c18 -14 18 -16 -14 -45 -17 -16
-31 -35 -30 -42 2 -6 -6 -14 -16 -16 -15 -3 -18 0 -13 18 3 12 1 31 -6 41 -9
14 -7 22 7 38 23 25 45 27 72 6z m94 -35 c12 -8 12 -10 -3 -16 -9 -3 -17 -12
-17 -20 0 -7 -9 -18 -21 -24 -17 -9 -23 -8 -35 7 -18 25 -18 29 8 47 25 18 46
20 68 6z m-230 -24 c0 -3 -4 -8 -10 -11 -5 -3 -10 -1 -10 4 0 6 5 11 10 11 6
0 10 -2 10 -4z m310 -6 c12 -8 12 -10 -3 -16 -20 -7 -47 1 -47 16 0 12 30 13
50 0z m79 -29 c9 -6 10 -11 2 -15 -14 -9 -51 2 -51 15 0 11 30 12 49 0z m-138
-11 c27 -15 24 -30 -6 -30 -18 0 -25 5 -25 20 0 23 4 24 31 10z m224 -15 c19
-8 51 -22 71 -30 19 -8 32 -20 29 -25 -10 -16 -40 -11 -69 11 -14 11 -29 18
-33 16 -14 -8 -53 12 -53 28 0 19 10 19 55 0z m-324 -22 c-8 -15 -10 -15 -11
-2 0 17 10 32 18 25 2 -3 -1 -13 -7 -23z m173 1 c22 -9 20 -24 -3 -24 -21 0
-34 13 -24 24 8 7 8 7 27 0z m-104 -18 c0 -8 -4 -18 -10 -21 -5 -3 -10 3 -10
14 0 12 5 21 10 21 6 0 10 -6 10 -14z m74 -31 c-6 -16 -24 -21 -24 -7 0 11 11
22 21 22 5 0 6 -7 3 -15z m109 8 c-7 -2 -19 -2 -25 0 -7 3 -2 5 12 5 14 0 19
-2 13 -5z m241 -3 c29 -11 34 -28 11 -36 -18 -7 -68 23 -60 36 8 12 17 12 49
0z m-284 -40 c0 -5 -4 -10 -10 -10 -5 0 -10 5 -10 10 0 6 5 10 10 10 6 0 10
-4 10 -10z m374 4 c9 -3 16 -12 16 -19 0 -19 -28 -27 -51 -14 -16 8 -18 13 -8
25 13 16 20 17 43 8z m-146 -30 c12 -4 22 -10 22 -15 0 -14 -33 -10 -54 6 -22
16 -9 20 32 9z m230 -10 c26 -18 20 -34 -12 -34 -27 0 -51 24 -41 40 9 14 27
13 53 -6z m-142 -29 c18 -15 18 -15 -5 -13 -14 2 -26 9 -29 16 -5 17 10 15 34
-3z m-108 -12 c-4 -22 -22 -20 -26 1 -2 10 3 16 13 16 10 0 15 -7 13 -17z
m337 -14 c-8 -11 -16 -11 -34 0 -22 14 -4 33 20 21 11 -6 17 -15 14 -21z
m-122 -6 c4 -2 5 -8 2 -13 -7 -11 -65 8 -65 21 0 8 43 3 63 -8z m-138 -2 c7
-12 -12 -24 -25 -16 -11 7 -4 25 10 25 5 0 11 -4 15 -9z m400 -26 c28 -12 59
-25 70 -29 19 -7 19 -8 2 -17 -13 -8 -25 -6 -42 5 -13 9 -34 16 -45 16 -27 0
-100 37 -100 51 0 14 51 3 115 -26z m-180 -5 c0 -22 -39 -19 -43 3 -3 15 1 18
20 15 12 -2 23 -10 23 -18z m-137 -8 c3 -9 -2 -13 -14 -10 -9 1 -19 9 -22 16
-3 9 2 13 14 10 9 -1 19 -9 22 -16z m-92 -43 c58 -28 103 -56 101 -63 -8 -24
-187 0 -187 25 0 5 -13 24 -30 42 -29 34 -30 47 -2 47 7 0 61 -23 118 -51z
m288 26 c3 -9 -1 -18 -10 -22 -19 -7 -39 11 -30 26 10 16 33 13 40 -4z m-114
-15 c0 -5 -7 -10 -15 -10 -8 0 -15 5 -15 10 0 6 7 10 15 10 8 0 15 -4 15 -10z
m171 -11 c28 -15 13 -31 -16 -17 -25 11 -34 28 -14 28 6 0 19 -5 30 -11z m236
-11 c55 -23 62 -36 25 -53 -11 -5 -23 -17 -25 -27 -3 -10 -14 -18 -26 -18 -29
0 -39 29 -17 46 20 14 13 36 -8 28 -9 -3 -15 4 -18 20 -6 32 2 32 69 4z m-337
-14 c0 -9 -5 -14 -12 -12 -18 6 -21 28 -4 28 9 0 16 -7 16 -16z m181 -4 c15 0
10 -20 -6 -26 -18 -7 -47 14 -39 28 3 5 13 7 21 4 8 -3 19 -6 24 -6z m-101
-25 c0 -8 -6 -15 -14 -15 -17 0 -28 14 -19 24 12 12 33 6 33 -9z m188 -1 c-5
-25 -35 -41 -49 -27 -9 9 -9 16 1 28 17 21 52 20 48 -1z m227 -20 c40 -19 54
-29 46 -37 -7 -7 -19 -7 -38 3 -16 7 -38 13 -50 14 -28 2 -48 20 -39 35 10 15
17 14 81 -15z m-355 2 c0 -3 -4 -8 -10 -11 -5 -3 -10 -1 -10 4 0 6 5 11 10 11
6 0 10 -2 10 -4z m70 -36 c0 -5 -4 -10 -10 -10 -5 0 -10 5 -10 10 0 6 5 10 10
10 6 0 10 -4 10 -10z m61 -33 c-13 -13 -26 -3 -16 12 3 6 11 8 17 5 6 -4 6
-10 -1 -17z m135 8 c15 -11 16 -14 3 -15 -8 0 -24 7 -35 15 -15 11 -16 14 -3
15 8 0 24 -7 35 -15z m209 5 c3 -5 -1 -10 -9 -10 -8 0 -18 5 -21 10 -3 6 1 10
9 10 8 0 18 -4 21 -10z m-126 -9 c14 -9 9 -41 -6 -41 -19 1 -35 19 -30 34 7
18 16 20 36 7z m193 -12 l20 -11 -21 -22 c-12 -11 -36 -40 -52 -64 -35 -47
-51 -47 -42 1 7 41 20 57 45 57 10 0 18 6 17 13 -5 38 1 43 33 26z m-98 -17
c7 -12 -45 -82 -61 -82 -20 0 -16 17 8 33 19 14 19 16 3 25 -9 5 -14 14 -10
21 8 13 52 15 60 3z m-614 -55 c0 -24 -3 -28 -10 -17 -13 20 -13 63 0 55 6 -3
10 -21 10 -38z m796 32 c8 -13 -15 -30 -36 -26 -8 1 -16 10 -18 20 -3 12 3 17
22 17 14 0 28 -5 32 -11z m59 -19 c18 -8 17 -9 -7 -9 -16 -1 -28 4 -28 9 0 12
8 12 35 0z m-100 -30 c0 -9 -11 -16 -27 -18 -27 -3 -38 14 -21 32 12 12 48 2
48 -14z m180 0 c3 -5 -3 -10 -14 -10 -11 0 -23 5 -26 10 -3 6 3 10 14 10 11 0
23 -4 26 -10z m-120 -25 c0 -22 -14 -28 -34 -16 -12 8 -13 12 -1 26 16 20 35
14 35 -10z m171 0 c16 -12 16 -14 3 -15 -9 0 -22 7 -29 15 -16 19 0 19 26 0z
m-271 -14 c7 -12 -15 -61 -27 -61 -15 0 -20 28 -8 49 11 22 25 27 35 12z m174
-5 c14 -17 -9 -39 -33 -30 -19 7 -20 16 -4 32 15 15 23 15 37 -2z m202 -39
c-13 -13 -41 -1 -41 17 0 13 4 14 25 4 16 -7 22 -15 16 -21z m-316 -16 c-3
-12 -13 -21 -21 -21 -17 0 -17 1 -4 36 13 33 36 19 25 -15z m73 -14 c2 -10 -4
-20 -13 -23 -21 -9 -28 0 -20 26 8 24 28 22 33 -3z m306 14 c10 -15 -22 -20
-34 -5 -10 11 -9 14 8 14 12 0 23 -4 26 -9z m-104 -11 c0 -5 -7 -7 -15 -4 -8
4 -15 8 -15 10 0 2 7 4 15 4 8 0 15 -4 15 -10z m176 -15 c18 -15 18 -15 -10
-13 -16 2 -31 9 -34 16 -5 17 20 15 44 -3z m-315 -28 c-13 -13 -26 -3 -16 12
3 6 11 8 17 5 6 -4 6 -10 -1 -17z m209 20 c0 -2 -9 -12 -20 -22 -19 -18 -20
-17 -20 3 0 15 6 22 20 22 11 0 20 -2 20 -3z m257 -39 c15 -7 30 -13 32 -14 2
-2 -7 -17 -19 -33 -22 -32 -57 -44 -46 -16 4 13 1 12 -20 -1 -15 -10 -29 -13
-34 -8 -15 15 1 54 29 69 32 17 25 17 58 3z m-97 -22 c0 -8 -4 -18 -10 -21 -5
-3 -10 -4 -10 -1 0 2 -3 11 -6 20 -4 11 -1 16 10 16 9 0 16 -6 16 -14z m345 4
c-3 -5 -11 -10 -16 -10 -6 0 -7 5 -4 10 3 6 11 10 16 10 6 0 7 -4 4 -10z
m-475 -60 c0 -5 -7 -10 -15 -10 -8 0 -15 5 -15 10 0 6 7 10 15 10 8 0 15 -4
15 -10z m75 -20 c3 -5 -3 -10 -14 -10 -12 0 -21 -7 -21 -15 0 -8 -7 -15 -15
-15 -16 0 -19 9 -9 34 7 18 49 22 59 6z m473 -16 c33 -14 43 -34 16 -34 -18 0
-50 16 -84 42 l-25 20 30 -8 c17 -3 45 -13 63 -20z m-578 6 c0 -5 -4 -10 -9
-10 -6 0 -13 5 -16 10 -3 6 1 10 9 10 9 0 16 -4 16 -10z m304 -10 c-10 -4 -21
-6 -24 -3 -8 7 24 22 34 16 5 -4 1 -10 -10 -13z m-144 0 c0 -5 -4 -10 -10 -10
-5 0 -10 5 -10 10 0 6 5 10 10 10 6 0 10 -4 10 -10z m50 -19 c0 -11 -9 -23
-21 -26 -28 -9 -31 -3 -13 23 19 27 34 28 34 3z m175 -30 c3 -5 0 -13 -5 -16
-15 -9 -60 3 -60 15 0 13 57 13 65 1z m53 -67 c12 -4 22 -11 22 -16 0 -14 -53
-5 -58 10 -4 13 2 15 36 6z"/>
<path d="M630 7736 c0 -9 7 -12 20 -9 11 3 17 9 14 14 -8 14 -34 10 -34 -5z"/>
<path d="M891 7656 c-8 -10 -9 -16 -1 -21 13 -8 30 3 30 21 0 18 -14 18 -29 0z"/>
<path d="M1290 7519 c0 -5 5 -7 10 -4 6 3 10 8 10 11 0 2 -4 4 -10 4 -5 0 -10
-5 -10 -11z"/>
<path d="M1587 7382 c-21 -23 -15 -31 19 -24 16 3 24 10 22 20 -4 23 -22 25
-41 4z"/>
<path d="M1855 7271 c-6 -11 13 -26 22 -18 3 3 16 2 29 -3 13 -5 26 -5 29 -1
3 5 -9 14 -27 20 -38 13 -45 14 -53 2z"/>
<path d="M2140 7180 c0 -5 5 -10 11 -10 5 0 7 5 4 10 -3 6 -8 10 -11 10 -2 0
-4 -4 -4 -10z"/>
<path d="M0 7395 c0 -20 5 -25 24 -25 13 0 57 -15 99 -34 41 -19 77 -32 80
-30 2 3 21 -6 41 -20 20 -13 69 -37 109 -52 39 -15 108 -46 152 -69 44 -24
100 -50 125 -59 25 -8 77 -27 115 -41 39 -15 85 -31 103 -37 17 -6 32 -18 32
-26 0 -8 -17 -35 -39 -61 -21 -25 -40 -54 -42 -64 -4 -16 -6 -17 -24 -3 -19
14 -19 16 -3 60 22 59 3 63 -41 9 -34 -42 -40 -37 -13 9 12 22 14 32 5 35 -7
2 -9 11 -6 20 13 33 -23 6 -45 -35 -35 -64 -56 -48 -27 21 11 26 -30 22 -49
-5 -9 -12 -19 -19 -23 -15 -3 4 -1 13 5 19 7 7 12 20 12 31 0 15 -6 18 -32 15
-26 -2 -35 2 -43 20 -14 31 -52 29 -67 -3 -12 -26 -28 -34 -28 -12 0 6 7 21
15 31 21 28 19 33 -19 51 -29 14 -37 14 -55 3 -12 -7 -24 -21 -27 -30 -5 -18
-24 -25 -24 -10 0 4 9 22 20 40 11 18 20 34 20 37 0 2 -20 7 -45 10 -24 4 -50
13 -56 21 -6 8 -16 14 -21 14 -5 0 -16 7 -24 15 -9 8 -26 15 -39 15 -14 0 -41
9 -62 21 -32 18 -41 19 -58 8 -18 -11 -19 -11 -7 4 17 20 8 37 -19 37 -17 0
-19 -7 -19 -62 l0 -63 53 -27 c28 -15 97 -45 152 -68 55 -22 143 -61 195 -85
52 -24 135 -60 184 -80 48 -20 114 -49 145 -64 100 -50 544 -233 766 -315 151
-55 526 -176 549 -176 13 0 29 -7 36 -15 7 -8 17 -15 22 -15 6 0 38 -13 72
-29 33 -16 149 -59 256 -95 209 -70 337 -116 465 -166 44 -18 141 -54 216 -80
l137 -49 25 49 26 49 -32 -6 c-18 -3 -39 -15 -48 -26 -9 -11 -21 -17 -28 -13
-18 11 -13 37 9 43 13 4 20 14 20 30 0 20 -3 22 -18 14 -26 -14 -62 -2 -62 20
0 30 14 30 101 -2 110 -40 148 -51 162 -46 7 2 22 -4 34 -13 25 -19 188 -90
343 -149 58 -22 139 -54 180 -71 41 -17 108 -42 149 -56 120 -40 129 -49 92
-95 -18 -22 -20 -23 -38 -8 -10 9 -24 14 -32 11 -11 -4 -13 2 -8 27 9 45 -10
36 -48 -21 -30 -47 -53 -57 -47 -22 4 20 4 45 1 94 l-2 30 -23 -21 c-18 -17
-26 -19 -44 -9 -15 8 -19 17 -15 31 8 23 -20 27 -29 4 -4 -11 -13 -14 -33 -9
-22 6 -31 2 -50 -22 -26 -33 -33 -12 -7 24 8 12 14 29 12 37 -2 11 -15 4 -44
-25 -48 -47 -69 -45 -79 7 -4 25 -2 40 9 52 18 20 20 31 6 31 -5 0 -10 -6 -10
-13 0 -7 -15 -28 -33 -45 -28 -27 -36 -30 -45 -19 -15 18 -7 79 13 89 8 5 13
13 10 19 -9 13 -35 11 -35 -3 -1 -23 -47 -71 -63 -65 -24 9 -27 45 -6 71 25
32 5 46 -21 14 -11 -13 -19 -28 -20 -34 0 -6 -7 -17 -15 -24 -12 -10 -18 -10
-29 -1 -13 11 -13 19 -1 59 11 35 11 48 2 54 -7 4 -19 -10 -34 -43 -13 -27
-27 -49 -31 -49 -19 0 -21 15 -7 37 14 21 14 24 1 29 -19 7 -36 -3 -36 -22 0
-8 -4 -14 -10 -14 -15 0 -12 21 6 41 20 23 9 46 -13 27 -9 -7 -23 -13 -32 -13
-36 0 -14 -61 25 -68 10 -2 70 -29 133 -61 110 -57 241 -160 241 -190 0 -7
-15 -16 -32 -21 -42 -13 -57 -49 -37 -91 15 -31 51 -43 74 -24 11 9 21 4 50
-24 44 -44 83 -56 101 -31 11 15 11 23 -4 48 -9 16 -23 31 -29 34 -22 9 -14
23 12 23 16 0 25 6 25 15 0 25 -47 65 -76 65 -18 0 -37 12 -60 37 -57 62 -46
67 47 24 79 -36 198 -87 304 -131 148 -61 239 -103 398 -182 88 -43 172 -78
188 -78 26 0 28 -3 23 -28 -4 -20 1 -33 19 -50 32 -30 61 -26 65 11 4 37 19
34 27 -5 9 -40 20 -55 58 -74 25 -14 31 -14 53 1 33 22 32 64 -3 97 -32 30
-65 48 -86 48 -22 0 -97 51 -91 62 3 4 17 0 32 -10 57 -40 142 -33 142 12 0
27 -42 66 -71 66 -22 0 -23 4 -7 30 17 27 1 52 -41 64 -26 8 -37 5 -62 -13
-31 -23 -59 -22 -59 2 0 29 -89 77 -250 136 -96 36 -458 176 -502 195 -18 8
-53 23 -78 34 -25 11 -88 36 -140 56 -52 21 -110 46 -128 57 -18 10 -38 19
-44 19 -5 0 -24 6 -41 14 -18 8 -61 24 -97 37 -36 12 -132 48 -214 80 -82 33
-153 59 -159 59 -9 0 -164 64 -237 97 -19 9 -64 29 -100 44 -36 15 -65 31 -65
36 0 15 47 15 87 -2 67 -27 103 1 56 45 -14 13 -35 20 -60 20 -31 0 -38 4 -38
19 0 33 -25 45 -62 30 -18 -7 -38 -19 -44 -27 -8 -12 -13 -9 -28 13 -12 18
-24 25 -39 23 -19 -3 -22 -8 -19 -42 3 -38 3 -38 -25 -32 -15 4 -45 16 -68 26
-22 9 -51 21 -65 25 -14 4 -48 18 -77 31 -28 13 -54 24 -57 24 -4 0 -48 16
-99 36 -78 31 -129 52 -252 105 -11 5 -51 22 -90 38 -195 80 -298 121 -375
151 -47 18 -114 45 -150 60 -36 14 -99 39 -140 55 -41 16 -81 33 -88 38 -18
14 -163 74 -257 106 -44 16 -106 40 -138 55 -32 14 -60 26 -63 26 -3 0 -29 11
-57 25 -41 19 -327 136 -454 186 -20 7 -23 5 -23 -16z m130 -200 c0 -8 -4 -15
-10 -15 -5 0 -10 7 -10 15 0 8 5 15 10 15 6 0 10 -7 10 -15z m52 -27 c-7 -7
-12 -8 -12 -2 0 14 12 26 19 19 2 -3 -1 -11 -7 -17z m338 -151 c0 -21 -12 -28
-27 -16 -19 16 -16 29 7 29 11 0 20 -6 20 -13z m492 -67 c20 -6 26 -14 21 -25
-4 -12 -9 -13 -16 -6 -6 6 -20 11 -30 11 -16 0 -18 -5 -14 -29 4 -20 2 -31 -8
-34 -7 -3 -15 -16 -17 -28 -4 -27 -28 -38 -28 -12 0 10 6 29 13 43 30 57 28
62 -9 34 -19 -15 -39 -35 -45 -46 -14 -26 -32 -23 -23 5 7 19 10 43 13 85 1 6
10 21 21 32 l21 21 37 -20 c20 -12 49 -25 64 -31z m160 -61 c41 -21 41 -22
-16 -78 -9 -9 -30 -29 -47 -46 -24 -25 -31 -27 -39 -15 -9 15 9 57 45 99 l20
23 -22 15 c-13 9 -23 20 -23 25 0 11 31 2 82 -23z m-92 -33 c0 -5 -10 -19 -22
-30 -13 -12 -28 -31 -34 -41 -13 -23 -34 -12 -34 17 0 12 10 36 22 53 19 28
24 30 44 21 13 -6 24 -15 24 -20z m265 -35 c22 -10 65 -25 95 -35 111 -35 181
-69 178 -85 -5 -21 -48 -17 -68 7 -8 10 -23 16 -32 14 -16 -3 -37 4 -133 47
-171 76 -174 78 -159 94 6 5 23 -1 119 -42z m-111 -17 c9 -3 16 -12 16 -18 0
-8 10 -11 28 -8 18 2 33 -2 41 -12 8 -9 22 -16 32 -16 11 0 27 -8 37 -17 10
-10 33 -19 51 -20 52 -2 58 -16 26 -63 -30 -43 -53 -42 -36 3 9 22 6 28 -15
42 -31 20 -69 13 -84 -15 -6 -11 -17 -20 -25 -20 -18 0 -18 8 0 40 18 32 20
59 3 42 -7 -7 -20 -12 -29 -12 -9 0 -23 -10 -32 -22 -8 -13 -18 -20 -23 -15
-4 4 -2 13 4 19 22 22 14 48 -13 48 -18 0 -28 -7 -35 -25 -10 -26 -24 -32 -35
-15 -8 13 42 90 59 90 8 0 21 -3 30 -6z m457 -114 c25 -14 24 -30 -2 -30 -28
0 -61 19 -54 31 8 12 32 12 56 -1z m-131 -20 c18 -10 18 -11 -6 -35 -13 -13
-24 -31 -24 -40 0 -8 -7 -15 -15 -15 -17 0 -20 35 -4 46 6 3 9 17 6 30 -5 26
11 31 43 14z m226 -25 c19 -14 19 -14 -3 -15 -28 0 -53 10 -53 21 0 14 34 11
56 -6z m-128 -1 c27 -8 29 -24 4 -24 -20 0 -45 -24 -55 -53 -8 -21 -31 -18
-35 4 -3 19 35 79 50 79 7 0 23 -3 36 -6z m90 -30 c25 -17 21 -34 -9 -34 -11
0 -30 -11 -43 -25 -21 -23 -46 -33 -46 -19 0 19 55 94 70 94 3 0 16 -7 28 -16z
m117 2 c19 -8 35 -19 35 -24 0 -14 -43 -50 -65 -54 -11 -2 -26 -16 -33 -31
-11 -22 -16 -25 -32 -17 -34 18 -32 30 12 85 24 30 44 54 46 55 1 0 18 -7 37
-14z m144 -62 c36 -14 70 -30 76 -35 5 -5 18 -9 30 -9 26 0 65 -29 48 -36 -17
-8 -64 -52 -62 -61 0 -4 -5 -9 -11 -11 -7 -3 -10 3 -8 14 2 11 -3 25 -12 32
-13 11 -13 13 3 23 18 11 24 39 7 39 -5 0 -15 -9 -22 -20 -8 -13 -24 -20 -42
-20 -16 0 -35 -8 -42 -17 -9 -13 -16 -15 -23 -8 -8 8 -2 21 20 44 31 34 33 56
2 28 -11 -9 -28 -13 -45 -10 -22 4 -30 0 -39 -21 -12 -25 -39 -37 -39 -17 0
15 73 111 84 111 5 0 39 -12 75 -26z m271 -103 c30 -11 80 -29 110 -41 30 -12
78 -26 105 -32 67 -13 245 -93 245 -110 0 -5 -7 -11 -16 -15 -8 -3 -20 -16
-25 -29 -11 -29 -25 -31 -32 -4 -3 13 -10 18 -21 14 -9 -3 -16 -1 -16 5 0 6 7
11 16 11 9 0 14 7 12 17 -4 23 -23 27 -41 8 -9 -8 -22 -15 -30 -15 -9 0 -24
-12 -35 -27 -28 -39 -36 -24 -18 31 9 26 16 49 16 52 0 13 -59 -38 -65 -56 -4
-11 -13 -20 -22 -20 -11 0 -13 5 -8 18 4 9 10 27 12 40 8 34 -23 28 -42 -8 -9
-16 -20 -30 -25 -30 -19 0 -20 20 -3 47 10 15 12 24 5 19 -7 -4 -20 -2 -29 5
-13 11 -17 10 -29 -5 -7 -10 -15 -24 -17 -30 -2 -6 -8 -7 -13 -3 -4 4 -2 17 5
28 18 29 4 38 -15 10 -12 -16 -19 -20 -27 -12 -6 6 -21 11 -34 11 -32 0 -29
24 5 41 15 7 30 15 34 17 3 2 4 -6 1 -17 -3 -12 -1 -21 5 -21 23 0 42 13 42
29 0 13 2 13 9 2 6 -10 14 -11 26 -3 16 8 13 12 -21 27 -21 9 -47 21 -56 26
-10 5 -31 9 -47 9 -26 0 -61 21 -61 37 0 7 33 -1 100 -26z m245 -1 c3 -5 2
-10 -4 -10 -5 0 -13 5 -16 10 -3 6 -2 10 4 10 5 0 13 -4 16 -10z m92 -15 c-4
-8 -14 -15 -23 -15 -16 0 -16 2 1 20 20 22 31 20 22 -5z m-387 -30 c0 -16 -73
-40 -97 -31 -29 11 -1 27 37 21 29 -5 39 -3 43 9 8 20 17 21 17 1z m500 -5 c0
-5 -4 -10 -9 -10 -6 0 -13 5 -16 10 -3 6 1 10 9 10 9 0 16 -4 16 -10z m74
-153 c16 -12 17 -14 1 -27 -9 -7 -22 -28 -30 -47 -16 -39 -35 -43 -35 -9 0 13
-3 31 -6 40 -4 11 -1 16 11 16 12 0 15 5 10 20 -5 15 -2 20 12 20 11 0 27 -6
37 -13z m81 -30 c19 -14 13 -37 -9 -37 -6 0 -16 -15 -21 -32 -7 -22 -17 -34
-32 -36 -18 -3 -21 1 -20 32 1 24 6 38 18 41 9 3 19 15 22 25 6 23 16 25 42 7z
m71 -32 c16 -13 17 -16 4 -25 -23 -15 -45 -7 -48 18 -4 26 15 29 44 7z m104
-39 c67 -25 85 -49 39 -54 -15 -2 -32 5 -44 18 -10 11 -28 20 -41 20 -25 0
-39 14 -29 30 8 12 -2 14 75 -14z m-133 -12 c6 -16 -31 -63 -42 -53 -3 3 -2
20 1 37 7 34 30 43 41 16z m70 -30 c5 -15 -21 -53 -31 -43 -7 7 6 59 15 59 6
0 12 -7 16 -16z m44 -67 c-8 -8 -11 -4 -11 14 0 33 14 47 18 19 2 -12 -1 -27
-7 -33z m102 17 c9 -9 -15 -54 -29 -54 -22 0 -27 21 -8 41 18 20 27 23 37 13z
m1163 -384 c6 -6 39 -19 75 -29 174 -50 367 -175 238 -155 -35 6 -41 4 -46
-15 -6 -23 -11 -25 -32 -12 -10 6 -11 13 -2 29 16 31 13 37 -8 18 -11 -10 -27
-34 -37 -54 -10 -21 -19 -32 -21 -25 -3 7 1 21 7 33 9 16 8 21 -5 26 -8 3 -22
4 -30 0 -25 -9 -17 21 16 59 18 20 29 39 25 42 -11 11 -55 -19 -58 -41 -2 -16
-9 -20 -30 -18 -19 2 -31 -4 -40 -18 -15 -23 -48 -27 -48 -5 0 8 11 22 25 31
14 9 25 21 25 28 0 7 -4 6 -9 -2 -7 -11 -9 -11 -14 2 -4 9 -13 16 -22 16 -20
0 -19 24 1 45 9 9 14 19 11 22 -4 3 -18 -8 -32 -26 -17 -19 -34 -30 -48 -28
-14 1 -25 -6 -32 -20 -13 -31 -33 -29 -28 2 6 31 72 105 93 105 9 0 21 -5 26
-10z m-182 -54 c-6 -16 -24 -23 -24 -8 0 10 22 33 27 28 2 -2 1 -11 -3 -20z
m-414 -60 c0 -8 -4 -18 -10 -21 -5 -3 -10 3 -10 14 0 12 5 21 10 21 6 0 10 -6
10 -14z m125 -66 c3 -6 0 -10 -7 -10 -15 0 -38 19 -38 32 0 10 36 -8 45 -22z
m925 -34 c0 -7 -8 -16 -17 -19 -10 -2 -26 -8 -35 -12 -29 -12 -21 13 10 29 34
19 42 19 42 2z m-330 0 c0 -3 -4 -8 -10 -11 -5 -3 -10 -1 -10 4 0 6 5 11 10
11 6 0 10 -2 10 -4z m219 -47 c10 -8 25 -18 34 -22 19 -7 23 -42 7 -52 -5 -3
-10 1 -10 9 0 20 -19 31 -33 17 -19 -19 -29 -12 -23 14 9 36 -21 46 -44 15
-12 -16 -19 -19 -25 -11 -4 8 4 24 20 41 29 30 29 30 74 -11z m223 -25 c18
-11 7 -24 -21 -24 -16 0 -39 9 -52 21 l-24 20 44 -6 c24 -3 48 -8 53 -11z m21
-148 c17 -13 24 -46 9 -46 -16 0 -52 32 -52 46 0 17 19 18 43 0z"/>
<path d="M0 6822 c0 -14 18 -24 73 -41 112 -36 240 -92 447 -197 25 -12 81
-35 125 -49 44 -15 103 -37 130 -50 28 -12 75 -30 105 -40 30 -9 82 -30 115
-45 33 -15 101 -44 150 -65 50 -20 104 -44 120 -52 58 -30 65 -33 85 -33 11 0
25 -8 31 -18 8 -12 21 -17 38 -15 38 5 59 -11 42 -31 -17 -20 -7 -21 13 -1 13
14 20 13 62 -1 27 -9 90 -36 141 -60 51 -24 97 -44 103 -44 6 0 18 -4 28 -9 9
-5 37 -14 62 -21 25 -6 86 -31 135 -54 81 -39 232 -92 400 -141 33 -10 81 -28
107 -41 26 -13 53 -24 61 -24 7 0 22 -7 33 -15 16 -12 17 -16 4 -24 -8 -6 -11
-13 -7 -17 4 -4 13 -2 19 4 18 18 49 15 104 -12 27 -13 67 -31 89 -40 22 -10
58 -25 80 -35 22 -10 58 -25 80 -34 95 -36 131 -52 146 -64 9 -7 18 -10 22 -7
5 6 42 -11 243 -107 45 -21 86 -39 91 -39 9 0 33 -9 133 -52 43 -18 104 -51
130 -69 14 -10 48 -20 75 -23 28 -2 88 -20 135 -38 146 -60 253 -97 297 -104
29 -4 58 -20 92 -49 49 -42 50 -43 31 -60 -18 -17 -22 -17 -37 -2 -10 8 -31
19 -48 23 -16 4 -36 11 -43 17 -9 7 -16 7 -24 -1 -15 -15 -2 -45 17 -39 9 4
20 -5 30 -25 13 -27 13 -34 1 -46 -11 -12 -18 -12 -44 2 -17 9 -40 16 -51 16
-23 0 -111 36 -111 46 0 3 12 3 28 0 19 -5 23 -4 12 3 -12 8 -12 13 -2 23 19
19 15 26 -28 39 -35 11 -42 10 -60 -6 -16 -14 -20 -15 -20 -4 0 8 5 20 12 27
9 9 7 13 -7 18 -13 5 -23 1 -33 -14 -8 -12 -23 -22 -33 -22 -22 0 -24 11 -7
28 9 9 9 15 0 24 -9 9 -16 8 -30 -5 -10 -9 -26 -17 -36 -17 -14 0 -16 6 -11
30 7 34 -7 40 -36 15 -20 -19 -78 -10 -60 8 33 33 -7 51 -42 20 -19 -17 -20
-17 -8 4 14 27 0 37 -25 18 -25 -19 -38 -19 -30 0 10 26 -5 45 -36 45 -16 0
-69 20 -117 45 -48 25 -92 45 -99 45 -6 0 -9 7 -6 15 4 9 -1 18 -11 22 -13 4
-24 -2 -37 -20 -11 -15 -24 -24 -30 -21 -5 4 -4 12 4 22 8 10 19 29 26 44 20
48 -8 46 -50 -3 -31 -35 -38 -40 -38 -23 0 11 5 25 11 31 6 6 8 16 5 22 -13
20 -43 12 -62 -16 -11 -17 -19 -23 -22 -15 -2 7 1 19 8 27 27 32 -28 49 -61
19 -24 -21 -58 -11 -36 10 7 8 13 25 12 38 -1 18 -9 24 -34 28 -17 3 -32 10
-32 15 1 6 -10 13 -22 16 -17 5 -31 -1 -51 -22 -24 -23 -32 -26 -48 -18 -15 8
-19 18 -15 37 3 15 0 35 -8 45 -12 17 -14 16 -34 -9 -12 -15 -21 -31 -21 -35
0 -12 -27 -11 -35 1 -3 5 -1 18 5 29 8 17 6 22 -12 32 -18 10 -24 8 -40 -11
-20 -24 -28 -14 -25 30 3 35 -29 39 -44 6 -16 -34 -31 -33 -18 1 20 54 -15 73
-49 26 -13 -18 -24 -24 -37 -19 -17 6 -17 17 0 73 6 18 4 21 -14 16 -12 -3
-30 -16 -40 -29 -33 -42 -69 -27 -51 20 8 22 6 27 -12 37 -18 9 -24 8 -34 -6
-7 -10 -15 -23 -17 -28 -2 -6 -11 -7 -21 -4 -15 6 -17 15 -13 42 9 58 -33 73
-53 19 -14 -36 -30 -29 -23 11 7 46 -20 60 -49 24 l-19 -24 7 36 c6 39 -7 58
-29 41 -7 -5 -27 -12 -44 -14 -34 -5 -43 8 -21 30 9 9 9 15 0 24 -9 9 -17 7
-35 -10 -30 -29 -41 -28 -33 3 6 23 4 25 -28 25 -19 0 -38 -4 -41 -10 -9 -15
-25 -12 -25 5 0 24 -31 31 -45 11 -8 -11 -15 -13 -20 -7 -3 6 -15 11 -26 11
-23 0 -25 15 -3 24 26 10 1 31 -69 56 -34 13 -98 40 -142 60 -113 54 -156 71
-185 75 -14 2 -47 13 -73 24 -66 28 -84 27 -102 -9 -17 -33 -40 -41 -31 -12 5
13 -1 22 -19 30 -23 11 -27 9 -35 -11 -10 -25 -13 -17 -10 29 1 18 -3 34 -8
38 -12 7 -52 -22 -52 -40 0 -8 -4 -14 -9 -14 -12 0 -8 51 7 78 11 19 10 23 -3
28 -26 10 -44 -4 -51 -40 -3 -21 -12 -36 -20 -36 -19 0 -18 40 2 69 14 19 14
25 3 32 -15 9 -59 -26 -59 -47 0 -19 -20 -28 -33 -15 -7 7 -6 16 6 29 9 10 17
23 17 29 0 19 -32 24 -50 8 -12 -11 -19 -12 -28 -3 -9 9 -12 9 -12 0 0 -7 5
-12 10 -12 6 0 10 -7 10 -15 0 -17 -25 -21 -35 -5 -3 5 1 23 10 39 19 37 19
37 -1 45 -9 3 -28 -3 -44 -14 -38 -27 -46 -25 -25 6 28 43 3 53 -36 15 -35
-36 -60 -30 -39 9 8 15 9 25 2 32 -15 15 -41 2 -52 -26 -8 -23 -11 -24 -39
-13 -36 13 -38 20 -12 54 19 23 19 53 -1 53 -11 0 -58 -49 -58 -61 0 -15 -40
-10 -46 6 -4 8 1 26 10 40 9 14 14 30 11 35 -12 20 -36 9 -56 -25 -33 -56 -59
-42 -34 18 12 30 12 37 1 46 -17 14 -43 -8 -52 -45 -3 -13 -10 -24 -14 -24
-18 0 -20 21 -5 49 19 37 19 41 -1 41 -8 0 -28 -14 -44 -32 -36 -39 -49 -30
-27 17 22 46 21 55 -3 55 -13 0 -26 -12 -37 -35 -9 -19 -23 -35 -30 -35 -17 0
-16 10 2 34 21 28 19 36 -9 36 -14 0 -32 -10 -40 -22 -20 -28 -30 -19 -17 15
12 31 1 42 -33 33 -18 -4 -25 -1 -29 14 -7 28 -33 25 -53 -5 -9 -14 -22 -25
-29 -25 -19 0 -28 35 -16 59 13 24 14 61 3 61 -14 0 -40 -32 -51 -63 -6 -16
-15 -25 -21 -22 -5 3 -10 0 -10 -7 1 -12 69 -47 175 -87 59 -23 208 -83 280
-112 28 -12 97 -39 155 -60 58 -22 161 -64 230 -94 69 -30 206 -86 305 -125
292 -116 316 -127 395 -163 87 -41 263 -103 434 -153 195 -58 283 -95 317
-137 28 -33 29 -38 12 -43 -53 -16 -65 -40 -39 -79 12 -18 26 -25 49 -25 27 0
35 -6 52 -38 15 -27 27 -38 48 -40 35 -4 57 13 57 43 0 12 10 29 22 37 20 13
21 18 10 42 -21 46 -11 43 333 -103 66 -28 123 -51 128 -51 11 0 190 -77 397
-172 96 -44 265 -115 375 -158 110 -42 244 -100 298 -128 54 -28 115 -54 135
-58 20 -4 47 -13 59 -21 12 -8 29 -13 39 -11 13 2 23 -10 36 -46 28 -74 54
-104 99 -116 59 -16 91 16 54 54 -20 20 -19 33 5 39 23 6 26 25 6 52 -10 13
-30 20 -75 23 -51 4 -61 7 -61 23 0 12 5 16 15 12 9 -3 24 2 35 12 27 25 79 5
119 -45 18 -22 38 -40 46 -40 21 0 18 13 -5 28 -26 16 -26 32 0 32 13 0 24
-10 30 -25 13 -33 34 -33 26 0 -5 21 -2 27 19 35 30 11 42 35 26 53 -14 17
-104 15 -148 -3 -44 -19 -83 -2 -83 36 0 51 -111 134 -178 134 -33 0 -174 49
-299 104 -45 20 -96 36 -113 36 -18 0 -56 13 -84 30 -29 16 -131 63 -227 104
-96 40 -241 103 -324 139 -82 35 -190 81 -240 102 -49 21 -175 75 -280 120
-104 46 -271 110 -370 143 -99 33 -211 76 -250 95 -38 19 -99 44 -135 55 -80
25 -201 71 -215 81 -5 5 -64 27 -130 50 -66 23 -124 46 -129 51 -20 20 6 23
40 5 33 -17 38 -18 62 -4 20 11 27 23 28 47 0 17 3 35 7 38 15 16 5 52 -21 77
-31 30 -63 35 -82 12 -8 -9 -22 -12 -41 -8 -33 6 -37 1 -41 -72 l-4 -50 -47 2
c-26 2 -65 12 -87 23 -22 11 -44 20 -51 20 -6 0 -34 12 -63 26 -43 22 -159 68
-471 189 -66 25 -190 80 -217 95 -10 6 -23 10 -29 10 -5 0 -25 11 -42 24 -18
13 -50 29 -72 36 -22 7 -56 21 -75 30 -32 16 -212 80 -225 80 -3 0 -5 -8 -5
-18z m180 -238 c0 -8 -5 -12 -10 -9 -6 4 -8 11 -5 16 9 14 15 11 15 -7z m1355
-194 c4 -6 -5 -10 -20 -10 -15 0 -24 4 -20 10 3 6 12 10 20 10 8 0 17 -4 20
-10z m-139 -260 c5 -5 44 -19 85 -30 78 -20 156 -53 197 -82 20 -14 22 -19 12
-37 -6 -12 -15 -19 -21 -15 -6 4 -5 11 3 21 11 13 6 15 -37 12 -49 -4 -50 -4
-50 25 0 36 -16 43 -40 16 -14 -15 -21 -17 -32 -9 -7 6 -13 18 -13 26 0 19
-27 28 -45 13 -12 -10 -15 -9 -15 8 0 23 -41 43 -48 23 -4 -13 -29 -15 -36 -2
-9 13 4 41 18 41 7 0 16 -4 22 -10z m369 -160 c-3 -5 -11 -10 -16 -10 -6 0 -7
5 -4 10 3 6 11 10 16 10 6 0 7 -4 4 -10z m59 -9 c3 -4 -1 -16 -8 -26 -13 -17
-13 -17 -13 8 0 26 10 36 21 18z m617 -358 c13 -15 12 -15 -11 -3 -34 17 -36
20 -18 20 9 0 22 -7 29 -17z m579 -108 c-7 -8 -10 -22 -6 -30 3 -8 1 -15 -4
-15 -11 0 -14 43 -3 53 13 14 25 7 13 -8z m365 -205 c3 -5 1 -10 -4 -10 -6 0
-11 5 -11 10 0 6 2 10 4 10 3 0 8 -4 11 -10z m667 -262 c-7 -7 -12 -8 -12 -2
0 6 3 14 7 17 3 4 9 5 12 2 2 -3 -1 -11 -7 -17z m376 -264 c-13 -12 -57 6 -72
29 -8 12 -18 36 -22 52 -7 29 -5 28 47 -22 29 -28 50 -55 47 -59z m12 86 c0
-5 -6 -10 -14 -10 -8 0 -18 5 -21 10 -3 6 3 10 14 10 12 0 21 -4 21 -10z"/>
<path d="M1 6698 c1 -42 3 -48 9 -28 12 36 12 80 0 80 -6 0 -10 -24 -9 -52z"/>
<path d="M0 6091 c0 -21 68 -54 135 -66 22 -4 45 -11 50 -15 6 -5 55 -26 110
-49 55 -22 126 -54 158 -71 32 -16 63 -30 68 -30 10 0 84 -36 173 -84 27 -14
53 -26 58 -26 10 0 141 -54 170 -70 10 -6 26 -10 36 -10 10 0 22 -4 27 -8 6
-5 42 -21 80 -37 39 -16 88 -36 110 -46 66 -29 224 -89 235 -89 6 0 39 -14 73
-31 34 -17 98 -44 142 -59 92 -33 181 -66 210 -80 58 -28 219 -95 278 -117 84
-30 157 -73 157 -92 0 -10 3 -11 13 -2 23 19 81 -2 142 -53 32 -26 30 -45 -3
-27 -30 16 -72 14 -72 -3 0 -8 4 -17 9 -20 5 -4 5 -19 -2 -36 -12 -32 -27 -40
-27 -15 0 13 -10 19 -30 17 -3 0 -6 11 -5 26 0 40 -33 42 -48 3 -13 -37 -44
-39 -39 -3 4 25 -25 31 -46 10 -14 -14 -49 14 -63 50 -8 20 -14 23 -38 17 -23
-5 -29 -2 -34 14 -3 15 -13 21 -32 21 -14 0 -24 -4 -21 -9 9 -14 -18 -31 -34
-21 -12 8 -13 13 -3 29 10 15 9 22 -2 31 -15 12 -55 -2 -55 -20 0 -6 -4 -10
-8 -10 -5 0 -7 13 -4 28 2 17 -2 33 -11 40 -12 11 -19 8 -35 -13 -26 -33 -33
-32 -26 5 6 26 4 30 -15 30 -12 0 -24 -7 -27 -15 -8 -21 -36 -19 -32 3 5 29
-10 44 -33 31 -29 -15 -52 -4 -44 21 9 27 -20 38 -44 16 -26 -24 -30 -20 -24
21 7 40 0 40 -45 0 -16 -15 -25 -18 -33 -10 -12 12 -3 53 12 53 5 0 9 5 9 10
0 16 -52 0 -77 -22 -27 -25 -41 -17 -35 20 6 43 -16 51 -43 18 -36 -45 -40
-12 -5 39 17 25 27 45 22 45 -6 0 -13 -7 -16 -16 -4 -10 -12 -14 -22 -10 -10
4 -26 -5 -44 -24 -39 -42 -54 -39 -47 10 7 51 -9 60 -40 24 l-24 -29 5 32 c7
45 -17 63 -39 29 -22 -33 -39 -34 -31 -2 8 32 -10 43 -34 21 -29 -26 -53 -12
-45 25 8 35 0 38 -30 10 -31 -29 -58 -17 -50 21 8 34 -4 37 -30 9 -35 -39 -60
-16 -34 32 20 37 -6 42 -36 7 -35 -42 -61 -30 -58 25 3 43 -9 45 -42 10 -21
-23 -26 -24 -31 -10 -3 9 -3 23 0 31 9 24 -24 32 -41 9 -11 -15 -17 -16 -31
-7 -9 6 -16 18 -14 26 3 20 -17 32 -31 18 -18 -18 -47 -13 -47 8 0 11 -5 23
-11 27 -8 5 -8 8 0 13 7 5 9 20 5 38 -10 50 -73 55 -74 7 0 -6 11 -23 25 -38
20 -21 22 -28 10 -32 -8 -3 -27 -2 -42 4 -24 8 -28 14 -25 40 4 37 -4 40 -34
11 l-22 -21 5 41 c5 33 3 41 -10 41 -9 0 -24 -14 -32 -31 -11 -20 -21 -29 -31
-25 -9 3 -18 6 -20 6 -2 0 5 18 16 40 18 35 19 41 5 46 -20 8 -41 -10 -50 -43
-4 -19 -9 -23 -18 -14 -8 8 -8 20 2 47 7 19 10 38 7 41 -10 11 -36 -7 -46 -31
-10 -26 -30 -44 -30 -26 0 6 7 25 16 41 16 31 13 59 -6 59 -6 0 -13 -8 -17
-17 -7 -22 -44 -63 -55 -63 -5 0 -4 9 2 20 9 16 8 22 -6 27 -10 4 -22 0 -29
-10 -14 -20 -27 -21 -42 -6 -8 8 -9 16 -1 29 12 19 5 50 -11 50 -18 0 -51 -43
-51 -65 0 -14 10 -26 27 -35 46 -21 191 -79 328 -130 123 -46 173 -67 343
-146 40 -19 75 -34 77 -34 8 0 149 -65 363 -168 161 -77 204 -102 208 -120 8
-30 -2 -39 -26 -24 -29 18 -48 15 -61 -9 -9 -18 -7 -25 14 -46 25 -26 53 -23
43 3 -3 8 -1 14 4 14 6 0 8 -16 4 -39 -4 -28 -1 -46 11 -65 35 -53 74 -56 100
-5 8 15 25 29 37 31 18 2 24 11 26 36 2 18 -2 40 -9 48 -21 25 11 16 201 -59
69 -27 157 -62 195 -77 151 -59 232 -92 286 -116 31 -13 61 -24 67 -24 6 0 32
-18 58 -41 26 -22 58 -45 71 -50 12 -5 23 -17 23 -27 0 -32 30 -63 57 -60 26
3 36 14 48 52 5 18 8 16 26 -13 20 -33 73 -63 96 -54 7 3 13 15 13 28 0 23 17
35 50 35 10 0 28 9 41 20 l24 20 -34 31 c-27 25 -39 30 -63 25 -28 -6 -29 -4
-23 23 8 39 -35 91 -75 91 -16 0 -32 -4 -35 -10 -3 -5 -13 -10 -22 -10 -11 0
-14 6 -9 24 5 19 -2 31 -35 60 -22 20 -54 43 -72 50 -18 8 -82 37 -144 65 -62
28 -115 51 -119 51 -11 0 -187 71 -224 91 -19 10 -91 38 -160 63 -69 24 -170
65 -225 89 -55 24 -145 61 -200 82 -54 20 -138 54 -185 75 -47 21 -120 52
-162 70 -43 18 -78 36 -78 41 0 13 4 12 45 -12 29 -18 41 -20 60 -11 13 6 40
8 59 5 42 -7 66 9 66 43 0 34 -32 47 -95 39 l-52 -6 -7 32 c-10 51 -32 69 -66
57 -36 -12 -48 -43 -26 -67 20 -22 20 -37 0 -45 -44 -17 -106 1 -259 74 -186
89 -320 148 -420 185 -55 20 -117 46 -137 56 -46 23 -48 23 -48 0z m920 -251
c0 -21 -15 -27 -25 -10 -7 12 2 30 16 30 5 0 9 -9 9 -20z m155 -69 c3 -5 2
-12 -3 -15 -12 -7 -52 4 -52 15 0 12 47 12 55 0z m-115 -22 c0 -6 -4 -7 -10
-4 -5 3 -10 11 -10 16 0 6 5 7 10 4 6 -3 10 -11 10 -16z m465 -509 c3 -5 -1
-10 -9 -10 -9 0 -16 5 -16 10 0 6 4 10 9 10 6 0 13 -4 16 -10z m27 -65 c12
-16 0 -18 -32 -5 -33 14 -32 12 -24 35 6 14 8 14 28 -2 11 -10 24 -22 28 -28z
m958 -209 c0 -28 -21 -48 -38 -37 -20 12 -4 61 19 61 13 0 19 -7 19 -24z m160
-21 c10 -12 10 -15 -3 -15 -25 0 -47 11 -41 21 8 14 30 11 44 -6z m-107 -24
c-6 -24 -50 -67 -59 -58 -8 7 43 77 56 77 4 0 6 -9 3 -19z m190 -88 c-7 -2
-19 -2 -25 0 -7 3 -2 5 12 5 14 0 19 -2 13 -5z"/>
<path d="M1 6014 c0 -11 3 -14 6 -6 3 7 2 16 -1 19 -3 4 -6 -2 -5 -13z"/>
<path d="M2 5950 c0 -14 2 -19 5 -12 2 6 2 18 0 25 -3 6 -5 1 -5 -13z"/>
<path d="M580 5792 c0 -5 7 -15 15 -22 9 -7 13 -21 10 -31 -8 -26 21 -25 34 0
11 20 5 28 -36 50 -13 6 -23 8 -23 3z"/>
<path d="M685 5710 c-11 -17 5 -32 21 -19 7 6 11 15 8 20 -7 12 -21 11 -29 -1z"/>
<path d="M2937 5554 c-9 -10 2 -24 19 -24 8 0 14 7 14 15 0 15 -21 21 -33 9z"/>
<path d="M1120 5520 c-6 -11 -8 -20 -6 -20 3 0 10 9 16 20 6 11 8 20 6 20 -3
0 -10 -9 -16 -20z"/>
<path d="M3417 5373 c-4 -3 -7 -11 -7 -17 0 -6 5 -5 12 2 6 6 9 14 7 17 -3 3
-9 2 -12 -2z"/>
<path d="M3478 5358 c-21 -18 -29 -43 -15 -57 7 -7 20 -1 44 24 18 19 33 36
33 40 0 10 -46 5 -62 -7z"/>
<path d="M3525 5310 c-10 -11 -16 -21 -14 -23 16 -12 64 -27 83 -27 30 0 51
23 34 37 -10 8 -73 33 -83 33 -1 0 -10 -9 -20 -20z"/>
<path d="M1935 5180 c-3 -5 -1 -10 4 -10 6 0 11 5 11 10 0 6 -2 10 -4 10 -3 0
-8 -4 -11 -10z"/>
<path d="M2140 5090 c0 -5 5 -10 10 -10 6 0 10 5 10 10 0 6 -4 10 -10 10 -5 0
-10 -4 -10 -10z"/>
<path d="M0 4791 c0 -12 7 -21 14 -21 8 0 36 -11 62 -25 26 -14 53 -25 61 -25
28 0 258 -80 313 -109 9 -5 72 -28 140 -51 69 -24 147 -54 174 -66 28 -13 54
-24 58 -24 5 0 28 -9 51 -19 24 -11 56 -23 72 -27 17 -3 46 -18 65 -33 19 -14
43 -27 53 -27 10 -1 28 -6 40 -11 12 -6 35 -16 50 -22 28 -11 28 -12 13 -35
-42 -66 -86 -92 -55 -34 8 16 8 22 -2 29 -18 11 -49 -8 -49 -31 0 -11 -5 -20
-11 -20 -7 0 -9 12 -5 34 5 25 3 35 -8 39 -16 6 -46 -17 -46 -34 0 -5 -9 -9
-20 -9 -13 0 -20 7 -21 20 -1 11 -3 25 -4 30 -1 6 -3 15 -4 20 -1 7 -7 7 -20
0 -27 -14 -30 -13 -24 9 3 12 -2 20 -16 24 -12 3 -24 1 -27 -4 -9 -15 -21 -10
-27 12 -4 15 -11 19 -26 14 -15 -4 -20 -1 -23 17 -2 13 -16 29 -33 38 -16 8
-31 18 -33 23 -2 4 -8 7 -13 7 -6 0 -8 -4 -5 -9 3 -5 -5 -16 -19 -25 -14 -9
-25 -25 -25 -36 0 -25 -20 -25 -70 0 -22 11 -50 20 -63 20 -14 0 -47 9 -75 21
-44 18 -51 25 -54 53 -4 38 -36 50 -45 16 -6 -24 -31 -23 -47 3 -8 13 -7 24 6
47 9 16 13 32 8 35 -17 11 -58 -14 -64 -39 -3 -14 -11 -26 -16 -26 -13 0 -30
34 -30 59 0 39 -39 37 -58 -2 -10 -22 -11 -21 -11 4 -1 15 6 32 14 39 20 17
19 30 -3 30 -10 0 -24 6 -31 13 -7 6 -11 8 -10 2 1 -5 -5 -27 -14 -47 -10 -21
-17 -42 -17 -48 0 -5 -4 -10 -10 -10 -15 0 -12 58 5 84 14 21 14 25 -1 37 -14
12 -19 10 -40 -16 -35 -43 -30 -95 11 -108 17 -5 77 -27 135 -49 58 -22 173
-64 255 -93 243 -85 393 -140 515 -190 158 -64 331 -129 480 -180 125 -42 352
-132 464 -183 32 -15 64 -27 71 -27 6 0 20 -8 29 -18 10 -9 26 -17 36 -17 10
0 21 -4 24 -9 3 -5 29 -16 58 -25 29 -9 96 -35 148 -56 52 -22 147 -59 210
-83 63 -25 165 -68 225 -97 100 -48 155 -70 286 -119 47 -17 127 -86 115 -98
-4 -4 -23 -6 -42 -4 -40 3 -53 -17 -36 -55 9 -19 19 -24 46 -24 26 0 40 -7 56
-27 29 -37 58 -52 101 -53 44 0 58 23 29 47 -24 20 -25 36 -6 52 8 7 12 21 9
31 -7 26 22 26 85 1 121 -49 344 -132 407 -151 39 -12 90 -35 114 -51 52 -34
100 -38 153 -11 34 18 38 18 79 2 37 -15 45 -23 52 -52 5 -20 25 -52 47 -73
36 -35 42 -37 65 -27 17 8 25 20 25 37 0 21 5 25 30 25 36 0 47 21 31 57 -11
23 -9 29 15 54 26 27 26 29 10 55 -15 22 -23 25 -51 20 -18 -4 -44 -1 -58 5
-32 14 -76 -5 -94 -41 -10 -19 -19 -24 -40 -21 -37 4 -46 10 -35 24 5 7 13 26
16 44 6 27 3 34 -27 57 -18 14 -81 43 -139 65 -58 22 -157 61 -220 89 -121 53
-150 65 -478 201 -118 49 -248 103 -289 121 -41 17 -142 56 -225 85 -202 71
-206 73 -396 148 -91 36 -186 73 -212 82 -27 10 -48 21 -48 24 0 4 18 24 40
46 l40 39 39 -22 c57 -32 131 -28 131 7 0 9 -5 22 -12 29 -9 9 -7 17 9 34 34
37 39 73 12 92 -30 20 -88 21 -95 1 -4 -8 -18 -15 -34 -15 -39 0 -57 -24 -43
-60 11 -31 2 -50 -25 -50 -8 0 -31 -16 -50 -36 -19 -19 -40 -33 -48 -30 -8 3
-37 8 -66 12 -50 5 -262 66 -301 85 -31 16 -149 60 -307 114 -194 67 -299 105
-520 190 -96 37 -226 85 -289 107 -63 22 -131 48 -150 58 -20 9 -92 36 -161
58 -69 22 -138 47 -155 55 -58 29 -75 30 -75 8z m740 -357 c0 -12 -41 -74 -49
-74 -20 0 -18 16 7 46 26 31 42 42 42 28z m150 -124 c0 -5 -5 -10 -11 -10 -5
0 -7 5 -4 10 3 6 8 10 11 10 2 0 4 -4 4 -10z m475 -41 c84 -29 221 -83 290
-115 28 -12 137 -54 195 -74 14 -5 68 -21 120 -36 52 -14 112 -35 132 -45 20
-11 59 -26 85 -35 26 -9 64 -23 83 -31 65 -28 75 -32 140 -57 36 -13 75 -27
88 -31 23 -7 29 -20 12 -30 -6 -4 -8 -11 -5 -16 4 -5 -7 -9 -24 -9 -16 0 -33
5 -36 11 -4 6 -19 7 -36 4 -22 -5 -29 -3 -29 9 0 11 -9 16 -29 16 -17 0 -33 5
-36 10 -3 6 -14 10 -24 10 -10 0 -24 7 -31 15 -7 9 -21 13 -31 10 -11 -4 -25
1 -35 14 -9 10 -23 17 -31 14 -7 -3 -24 2 -38 11 -13 9 -33 16 -44 16 -11 0
-23 5 -26 10 -3 6 -10 10 -16 10 -5 0 -9 -4 -9 -10 0 -5 4 -10 10 -10 5 0 25
-10 43 -22 19 -13 43 -28 53 -35 17 -10 17 -13 4 -22 -22 -15 -28 -14 -35 9
-7 23 -33 27 -41 5 -4 -8 -15 -15 -26 -15 -17 0 -20 5 -15 30 8 38 -7 46 -33
20 -25 -25 -39 -19 -32 15 6 31 -22 35 -38 5 -15 -29 -31 -15 -23 20 5 26 2
30 -16 30 -14 0 -21 -6 -21 -20 0 -11 -6 -20 -13 -20 -25 0 -28 14 -6 31 19
14 20 19 9 39 l-13 24 -29 -33 c-34 -38 -50 -33 -26 9 13 23 14 31 3 40 -19
16 -39 3 -53 -32 -9 -26 -14 -30 -24 -20 -10 10 -10 17 0 32 18 29 15 40 -12
40 -13 0 -26 7 -30 15 -8 22 -32 18 -54 -10 -23 -29 -48 -34 -37 -7 16 38 16
49 1 55 -17 7 -46 -17 -46 -39 0 -18 -34 -18 -48 -1 -9 10 -7 19 4 35 17 25
11 42 -15 42 -11 0 -24 -12 -31 -30 -7 -16 -17 -30 -22 -30 -9 0 -8 15 3 60 3
10 -5 16 -22 18 -21 3 -28 -3 -37 -30 l-11 -33 2 39 c2 48 -14 56 -48 22 -27
-27 -42 -19 -25 14 14 26 8 34 -31 51 -30 12 -33 11 -53 -14 -12 -15 -25 -27
-29 -27 -13 0 -7 27 8 40 8 7 12 17 9 22 -4 5 0 21 7 35 16 30 37 27 174 -18z
m925 -18 c0 -10 -12 -27 -27 -36 -24 -16 -26 -16 -20 0 4 9 7 25 7 36 0 12 7
19 20 19 13 0 20 -7 20 -19z m-25 -101 c3 -5 -3 -10 -14 -10 -11 0 -23 5 -26
10 -3 6 3 10 14 10 11 0 23 -4 26 -10z m-605 -120 c0 -5 -5 -10 -11 -10 -5 0
-7 5 -4 10 3 6 8 10 11 10 2 0 4 -4 4 -10z m535 -189 c10 -17 -12 -21 -25 -6
-10 12 -10 15 3 15 9 0 18 -4 22 -9z m471 -57 c71 -26 139 -49 152 -51 34 -8
36 -20 6 -58 -21 -28 -29 -33 -40 -24 -16 13 -19 39 -4 39 6 0 10 7 10 15 0
17 -2 17 -24 9 -8 -3 -12 -12 -9 -20 3 -8 0 -14 -6 -14 -16 0 -51 -42 -51 -61
0 -31 -19 -31 -80 -3 -64 29 -68 35 -45 54 12 10 15 10 15 -4 0 -9 6 -16 14
-16 15 0 31 64 20 81 -4 6 0 15 7 20 10 6 11 11 3 19 -8 8 -16 7 -27 -5 -15
-14 -19 -14 -53 3 -22 11 -32 22 -26 26 6 4 9 13 5 21 -3 8 -3 15 -1 15 2 0
62 -21 134 -46z m-401 27 c10 -17 -12 -21 -25 -6 -10 12 -10 15 3 15 9 0 18
-4 22 -9z m-75 -11 c0 -5 -2 -10 -4 -10 -3 0 -8 5 -11 10 -3 6 -1 10 4 10 6 0
11 -4 11 -10z m162 -18 c33 -15 35 -19 23 -35 -17 -23 -49 -18 -53 8 -2 11
-11 26 -20 33 -25 19 6 16 50 -6z m98 -51 c-1 -15 -19 -33 -28 -27 -15 9 -3
46 14 39 8 -3 14 -8 14 -12z m101 9 c30 -16 25 -42 -7 -34 -20 5 -26 2 -31
-15 -3 -11 -9 -21 -14 -21 -17 0 -22 30 -11 56 12 26 32 30 63 14z m449 -79
c58 -23 114 -46 125 -50 176 -75 549 -225 615 -247 62 -22 67 -29 20 -31 -49
-2 -60 -8 -60 -34 0 -14 -5 -19 -17 -17 -17 4 -20 15 -12 47 5 17 -29 27 -43
13 -5 -5 -13 -34 -17 -63 -8 -65 -8 -65 -139 -2 -79 38 -91 47 -77 57 14 10
14 15 1 48 -14 32 -21 37 -68 47 -55 12 -62 9 -74 -36 -3 -13 -10 -23 -15 -23
-11 0 -11 41 0 59 5 7 6 22 4 32 -7 25 -43 25 -43 1 0 -10 -11 -28 -25 -40
l-25 -22 0 22 c0 12 7 30 17 40 15 17 15 19 -2 38 -10 11 -22 17 -27 14 -5 -3
-20 1 -33 10 -13 9 -26 16 -29 16 -2 0 -14 -20 -26 -45 -12 -25 -26 -45 -31
-45 -13 0 -11 14 3 28 16 16 1 30 -40 38 -28 6 -34 4 -39 -15 -3 -11 -9 -21
-14 -21 -14 0 -10 43 6 64 18 24 20 45 3 28 -7 -7 -22 -12 -35 -12 -22 0 -27
-9 -24 -37 1 -7 -6 -13 -15 -13 -14 0 -15 7 -10 40 6 36 4 40 -14 40 -13 0
-24 -10 -30 -25 -5 -14 -15 -25 -21 -25 -6 0 1 21 15 46 14 26 26 53 26 60 0
8 4 14 8 14 5 0 14 12 21 26 6 14 17 24 24 21 6 -3 59 -24 117 -46z m186 -313
c4 -5 -6 -8 -22 -6 -15 2 -29 8 -31 14 -5 14 44 6 53 -8z m764 -68 c89 -35
105 -45 108 -67 2 -15 -3 -22 -24 -26 -16 -3 -39 -1 -51 4 -30 11 -41 -11 -24
-48 13 -29 -1 -48 -29 -37 -8 3 -27 8 -42 11 -31 6 -43 29 -27 50 7 7 9 16 6
20 -4 3 -9 -2 -13 -11 -7 -17 -40 -21 -63 -7 -19 12 -5 30 18 24 11 -3 24 3
32 15 8 10 24 24 37 31 27 14 28 28 5 54 -14 16 -15 19 -3 15 8 -4 40 -16 70
-28z m-779 -50 l24 -21 -32 16 c-32 15 -42 25 -24 25 5 0 19 -9 32 -20z m519
-6 c0 -8 -5 -12 -10 -9 -6 4 -8 11 -5 16 9 14 15 11 15 -7z m56 -41 c-3 -3
-12 0 -20 6 -12 10 -13 16 -3 32 11 18 12 18 21 -7 4 -14 5 -28 2 -31z m519
-115 c30 -13 33 -28 6 -28 -25 0 -74 39 -49 40 9 0 29 -5 43 -12z m-40 -67
c10 -25 -6 -27 -26 -2 -10 13 -19 27 -19 32 0 13 38 -13 45 -30z"/>
<path d="M2680 3740 c0 -5 5 -10 11 -10 5 0 7 5 4 10 -3 6 -8 10 -11 10 -2 0
-4 -4 -4 -10z"/>
<path d="M2644 3646 c-9 -24 12 -44 28 -28 10 10 8 16 -5 29 -15 15 -17 15
-23 -1z"/>
<path d="M2905 3650 c3 -5 8 -10 11 -10 2 0 4 5 4 10 0 6 -5 10 -11 10 -5 0
-7 -4 -4 -10z"/>
<path d="M3095 3580 c-3 -5 1 -10 9 -10 9 0 16 5 16 10 0 6 -4 10 -9 10 -6 0
-13 -4 -16 -10z"/>
<path d="M3010 3550 c0 -5 7 -10 16 -10 8 0 12 5 9 10 -3 6 -10 10 -16 10 -5
0 -9 -4 -9 -10z"/>
<path d="M3445 3362 c6 -4 15 -20 20 -36 14 -40 30 -43 48 -7 18 37 7 51 -42
51 -20 0 -31 -4 -26 -8z"/>
<path d="M3557 3352 c-27 -31 -30 -60 -8 -72 22 -11 32 0 45 51 7 33 -15 46
-37 21z"/>
<path d="M370 4580 c0 -4 7 -13 15 -20 8 -7 15 -18 15 -26 0 -7 9 -18 19 -24
11 -5 23 -19 26 -31 5 -14 14 -19 28 -17 17 2 22 10 22 33 0 20 5 30 15 30 11
0 14 -10 12 -42 l-2 -43 40 0 c27 0 39 -4 37 -12 -1 -7 7 -13 18 -13 13 0 27
13 40 37 19 35 19 37 2 56 -13 14 -38 22 -82 27 -36 3 -67 11 -70 16 -4 5 -14
9 -24 9 -10 0 -24 6 -30 14 -12 15 -81 20 -81 6z"/>
<path d="M827 4411 c3 -12 9 -21 14 -21 14 0 11 16 -5 29 -12 10 -13 8 -9 -8z"/>
<path d="M910 4380 c0 -5 5 -10 11 -10 5 0 7 5 4 10 -3 6 -8 10 -11 10 -2 0
-4 -4 -4 -10z"/>
<path d="M0 4280 c0 -12 5 -17 14 -14 8 3 17 1 21 -5 3 -6 17 -11 30 -11 13 0
36 -6 52 -14 62 -32 183 -77 268 -102 87 -25 238 -79 300 -109 17 -8 84 -35
150 -61 66 -25 157 -64 202 -85 46 -22 100 -46 120 -53 21 -8 90 -38 153 -66
116 -53 192 -82 330 -125 100 -32 285 -107 450 -183 41 -19 98 -44 125 -57 28
-12 70 -29 95 -36 25 -7 56 -18 70 -24 33 -16 140 -53 215 -75 68 -19 238 -85
287 -111 10 -5 24 -9 31 -9 8 0 54 -16 103 -36 49 -19 109 -42 134 -51 105
-36 387 -151 452 -184 10 -5 23 -9 29 -9 6 0 25 -7 42 -15 18 -8 68 -28 111
-45 43 -17 88 -38 100 -46 11 -7 27 -14 35 -14 8 0 22 -6 30 -13 9 -7 34 -20
56 -29 107 -42 204 -85 245 -107 74 -40 139 -71 149 -71 5 0 23 -13 40 -29 36
-34 42 -71 11 -71 -21 0 -70 41 -70 59 0 11 -80 51 -104 51 -9 0 -15 -4 -11
-9 3 -5 -3 -12 -13 -15 -10 -4 -28 -20 -40 -36 -28 -37 -42 -38 -42 -4 0 18 6
28 20 31 26 7 20 29 -7 26 -11 -1 -29 7 -38 17 -18 20 -18 21 0 34 13 9 15 15
6 21 -7 4 -20 -1 -32 -14 -18 -19 -49 -19 -49 0 0 5 -11 9 -24 9 -31 0 -55 27
-32 36 19 7 21 34 3 34 -16 0 -45 -30 -61 -62 -18 -35 -31 -31 -31 9 0 28 -5
39 -17 41 -12 2 -18 -3 -18 -17 0 -18 -17 -38 -24 -30 -17 19 -13 49 9 73 28
30 32 46 12 46 -16 0 -57 -41 -57 -57 0 -6 -7 -16 -15 -23 -13 -10 -15 -9 -15
10 0 17 -4 21 -17 15 -46 -19 -56 -19 -51 1 3 10 9 27 13 36 5 14 0 20 -21 28
-16 5 -37 15 -46 20 -10 6 -27 10 -38 10 -11 0 -20 5 -20 10 0 16 -40 12 -46
-5 -4 -8 -10 -12 -15 -9 -5 3 -7 9 -4 14 8 14 -25 21 -47 9 -18 -10 -19 -9
-13 19 5 24 2 30 -14 35 -15 4 -27 -3 -42 -24 -27 -38 -43 -28 -24 16 13 32
12 36 -3 44 -14 8 -20 4 -31 -20 -7 -16 -19 -29 -27 -29 -17 0 -18 14 -2 43
32 60 5 76 -36 22 -15 -19 -34 -35 -42 -35 -21 0 -17 41 8 67 l21 23 -27 0
c-16 0 -37 -10 -52 -27 -29 -32 -43 -24 -23 14 7 16 15 31 17 36 2 4 -6 7 -17
7 -11 0 -30 -13 -42 -30 -26 -35 -41 -31 -32 10 4 23 2 30 -10 30 -9 0 -22 -9
-30 -20 -17 -24 -29 -16 -21 14 3 14 -2 28 -15 40 -12 11 -21 26 -21 35 0 12
-3 12 -12 3 -18 -18 -49 -14 -55 7 -4 16 -11 18 -39 14 -31 -5 -34 -4 -34 21
0 29 -14 34 -28 10 -11 -19 -34 -10 -26 10 11 29 -16 25 -40 -6 -14 -18 -26
-27 -26 -20 0 6 -9 12 -20 12 -22 0 -25 12 -10 41 10 18 9 18 -17 7 -15 -6
-38 -21 -50 -32 -29 -25 -41 -14 -19 18 20 31 20 40 2 33 -8 -3 -22 3 -32 14
-25 28 -75 50 -96 43 -10 -3 -16 -9 -13 -14 3 -4 -2 -13 -9 -19 -19 -16 -30 3
-16 28 16 32 -25 39 -56 10 -18 -16 -24 -19 -24 -8 0 8 5 20 12 27 9 9 8 12
-3 16 -43 13 -50 17 -45 24 2 4 -10 8 -28 9 -18 1 -52 11 -75 22 l-41 22 -10
-27 c-13 -33 -36 -26 -32 9 2 15 1 31 -3 36 -9 16 -36 1 -46 -26 -12 -33 -31
-19 -27 20 2 27 -1 33 -20 35 -17 3 -25 -2 -29 -18 -9 -35 -39 -21 -35 18 3
28 1 32 -21 32 -14 0 -30 7 -37 15 -16 19 -34 19 -50 0 -18 -22 -35 -3 -21 23
15 28 14 32 -8 32 -11 0 -28 -11 -39 -25 -11 -14 -25 -25 -31 -25 -14 0 -9 36
7 52 21 21 13 38 -23 55 -32 15 -37 16 -51 1 -10 -10 -14 -23 -9 -37 8 -27 25
-27 32 -1 8 29 22 25 19 -5 -4 -40 -18 -47 -59 -30 -33 14 -36 17 -25 35 20
31 -1 54 -51 58 -45 3 -56 -12 -16 -22 28 -7 33 -24 9 -33 -9 -3 -26 5 -42 20
-20 19 -31 23 -43 17 -12 -7 -24 -4 -41 9 -13 11 -31 19 -39 18 -19 -2 -89 25
-89 35 0 12 38 10 45 -2 4 -6 13 -7 24 -1 13 7 22 5 34 -7 40 -43 47 -45 88
-32 50 17 50 28 0 26 -27 0 -47 6 -63 20 -28 25 -103 64 -123 64 -8 0 -18 -7
-22 -15 -5 -8 -24 -16 -43 -17 -29 -3 -34 0 -32 15 5 28 -17 48 -43 41 -17 -4
-26 0 -35 16 -9 17 -14 19 -26 9 -8 -6 -14 -18 -14 -26 0 -22 -25 -9 -25 13
-1 10 -5 25 -9 33 -7 11 -13 9 -28 -10 -17 -22 -19 -23 -32 -7 -7 10 -15 15
-18 12 -3 -3 -8 7 -12 21 -7 29 -22 32 -48 9 -14 -14 -20 -14 -33 -4 -8 7 -15
21 -15 31 0 27 -19 33 -40 14 -26 -23 -49 -13 -43 18 7 38 -16 44 -42 11 -25
-30 -37 -22 -32 21 3 26 -33 33 -50 9 -11 -15 -16 -16 -22 -6 -4 8 -15 10 -26
6 -15 -6 -17 -4 -12 10 4 10 7 22 7 27 0 5 7 9 17 9 15 0 15 2 -1 19 -21 23
-65 23 -59 0 3 -8 -2 -21 -11 -28 -13 -11 -14 -7 -13 30 2 41 0 43 -30 50 -18
3 -39 12 -48 19 -8 6 -18 9 -22 7 -8 -5 -50 10 -96 34 -21 11 -37 4 -37 -16 0
-9 6 -12 16 -8 12 4 15 2 12 -8 -3 -8 -10 -14 -16 -13 -7 1 -21 2 -33 3 -17 1
-20 5 -15 26 5 20 3 25 -13 25 -11 0 -24 -7 -29 -17 -15 -26 -44 -9 -36 22 3
14 3 32 0 41 -5 14 -9 14 -22 3 -9 -7 -20 -24 -25 -38 -7 -17 -13 -21 -20 -14
-8 8 -8 17 0 31 28 53 -7 74 -37 22 -24 -43 -34 -37 -30 17 2 39 0 48 -14 51
-12 2 -19 -5 -23 -25 -11 -48 -15 -54 -26 -48 -6 4 -9 23 -7 43 2 29 -1 37
-15 40 -12 3 -21 -6 -28 -27 -6 -17 -16 -31 -21 -31 -9 0 -8 16 4 70 2 8 -5
16 -14 18 -16 3 -18 -5 -18 -62 l0 -64 48 -15 c83 -26 355 -124 404 -145 26
-12 80 -31 120 -42 40 -12 102 -34 138 -49 36 -15 88 -33 115 -40 56 -13 161
-55 275 -109 67 -31 157 -66 275 -108 22 -8 65 -25 95 -39 72 -32 334 -135
344 -135 4 0 46 -18 92 -40 47 -22 151 -65 232 -96 81 -30 183 -71 227 -91 44
-19 114 -47 156 -63 57 -20 89 -40 132 -81 31 -29 57 -57 57 -61 0 -3 -12 -8
-27 -10 -52 -6 -35 -82 20 -90 15 -2 23 -13 28 -37 9 -44 45 -78 91 -86 45 -9
58 11 37 53 -7 15 -15 30 -17 35 -2 4 10 7 27 7 35 0 45 12 37 45 -8 30 -82
85 -116 85 -25 0 -69 34 -59 45 3 2 41 -9 85 -26 43 -17 113 -41 154 -55 41
-13 91 -33 110 -43 19 -10 46 -22 60 -26 24 -7 83 -33 265 -120 50 -23 146
-63 215 -89 160 -61 319 -129 395 -171 167 -91 298 -155 332 -161 22 -4 49 -2
67 5 17 6 55 14 84 16 l53 4 -6 -28 c-7 -34 21 -111 41 -111 10 0 10 7 -2 36
-18 43 -12 54 17 28 15 -13 19 -26 15 -45 -6 -33 1 -41 26 -28 24 13 17 40
-23 88 -27 34 -30 55 -6 45 7 -2 20 -18 29 -34 29 -51 88 -36 88 23 0 26 3 28
24 23 16 -4 30 0 40 10 45 44 -12 90 -100 81 -29 -3 -56 -1 -62 5 -19 19 -57
5 -60 -22 -2 -19 -12 -29 -34 -38 -37 -14 -48 -4 -48 40 0 30 -53 98 -76 98
-8 0 -90 37 -182 83 -92 45 -232 111 -312 146 -80 35 -158 70 -175 77 -68 30
-174 74 -180 74 -3 0 -26 9 -51 20 -51 24 -395 159 -494 195 -36 13 -137 51
-225 85 -152 58 -255 95 -425 155 -41 14 -155 63 -252 108 l-177 81 34 33 c40
39 47 40 60 11 18 -40 85 -32 85 11 0 30 -18 44 -62 50 -38 5 -43 9 -43 31 0
19 6 26 23 28 20 3 23 0 18 -16 -8 -25 10 -38 29 -22 18 15 19 52 3 68 -7 7
-32 12 -57 12 -26 0 -55 7 -65 15 -25 19 -41 19 -60 -1 -20 -20 -21 -58 -1
-74 8 -7 15 -28 15 -46 0 -26 4 -34 18 -34 14 -1 13 -4 -7 -20 -31 -27 -46
-26 -153 14 -51 19 -163 60 -248 91 -85 32 -172 66 -192 76 -20 10 -63 29 -95
40 -32 12 -62 25 -68 29 -5 3 -32 15 -60 25 -27 10 -88 37 -135 61 -47 23
-123 55 -170 72 -84 29 -100 36 -230 93 -36 15 -119 45 -185 65 -66 20 -131
43 -145 50 -25 14 -228 84 -242 84 -4 0 -8 -9 -8 -20z m528 -293 c2 -9 -4 -20
-12 -23 -21 -8 -46 13 -39 32 8 20 47 13 51 -9z m64 -22 c0 -5 -5 -11 -11 -13
-6 -2 -11 4 -11 13 0 9 5 15 11 13 6 -2 11 -8 11 -13z m1366 -244 c3 -16 -1
-22 -10 -19 -7 3 -15 15 -16 27 -3 16 1 22 10 19 7 -3 15 -15 16 -27z m982
-717 c0 -8 -5 -12 -10 -9 -6 4 -8 11 -5 16 9 14 15 11 15 -7z m83 -24 c-6 -22
-18 -26 -28 -10 -8 13 14 42 25 35 5 -3 6 -14 3 -25z m-220 -150 c16 -26 16
-30 3 -30 -15 0 -36 29 -36 49 0 20 16 11 33 -19z m1215 -262 c-4 -27 -28 -36
-28 -10 0 20 8 32 22 32 5 0 8 -10 6 -22z m57 -38 c-5 -8 -11 -8 -17 -2 -6 6
-7 16 -3 22 5 8 11 8 17 2 6 -6 7 -16 3 -22z m79 -19 c17 -19 17 -20 -4 -31
-12 -6 -22 -10 -23 -8 -1 2 -8 13 -14 25 -17 30 -16 33 5 33 11 0 27 -9 36
-19z m195 -50 c9 -16 8 -18 -8 -14 -14 3 -24 -3 -34 -22 -8 -16 -17 -23 -20
-18 -4 6 0 16 8 23 8 7 15 21 15 31 0 25 26 24 39 0z m29 -53 c2 -12 -2 -15
-17 -11 -12 3 -21 12 -21 20 0 20 34 12 38 -9z m242 12 c0 -5 -4 -10 -10 -10
-5 0 -10 5 -10 10 0 6 5 10 10 10 6 0 10 -4 10 -10z m158 -12 c25 -21 12 -31
-35 -24 -53 7 -76 22 -54 35 16 10 71 3 89 -11z m-84 -64 c7 -17 0 -34 -13
-34 -5 0 -16 11 -25 25 -16 24 -16 25 8 25 13 0 27 -7 30 -16z"/>
<path d="M1048 3813 c7 -3 16 -2 19 1 4 3 -2 6 -13 5 -11 0 -14 -3 -6 -6z"/>
<path d="M1195 3770 c3 -5 8 -10 11 -10 2 0 4 5 4 10 0 6 -5 10 -11 10 -5 0
-7 -4 -4 -10z"/>
<path d="M1260 3735 c0 -8 5 -15 10 -15 6 0 10 7 10 15 0 8 -4 15 -10 15 -5 0
-10 -7 -10 -15z"/>
<path d="M1310 3702 c0 -5 14 -9 32 -10 23 -1 28 2 18 8 -19 12 -50 13 -50 2z"/>
<path d="M6 2904 c-7 -18 8 -34 32 -34 11 0 151 -57 247 -100 115 -52 211 -90
227 -90 10 0 44 -13 75 -28 99 -49 156 -74 216 -93 32 -10 70 -25 85 -33 37
-19 132 -56 146 -56 6 0 23 -8 36 -17 26 -19 74 -39 125 -52 17 -5 41 -13 55
-19 14 -6 95 -36 180 -67 85 -31 164 -60 175 -66 18 -8 165 -61 310 -111 33
-11 121 -47 195 -78 74 -31 164 -67 200 -80 36 -13 70 -26 75 -30 6 -4 35 -15
65 -25 30 -10 87 -32 125 -50 100 -46 282 -121 335 -139 41 -13 67 -24 155
-61 17 -7 48 -19 70 -28 22 -8 69 -26 105 -40 36 -14 94 -35 130 -46 36 -12
74 -27 85 -32 12 -6 77 -30 145 -53 69 -24 154 -55 190 -69 243 -93 293 -112
356 -142 39 -19 76 -41 83 -49 24 -28 6 -45 -51 -48 -40 -2 -54 -7 -56 -20 -2
-11 5 -18 20 -20 22 -3 21 -4 -9 -21 -24 -13 -38 -15 -57 -7 -28 10 -32 21
-15 52 14 27 3 36 -17 12 -14 -18 -15 -17 -9 17 4 27 2 38 -9 42 -15 6 -46
-17 -46 -33 0 -5 -7 -7 -16 -3 -12 4 -14 14 -10 35 8 40 -20 50 -45 17 -19
-25 -22 -22 -19 24 1 18 -3 27 -13 27 -9 0 -25 -12 -36 -27 l-22 -28 3 35 c4
44 -26 55 -43 16 -16 -34 -31 -34 -19 0 13 32 6 44 -26 44 -15 0 -24 6 -24 16
0 25 -44 13 -48 -13 -2 -13 -10 -23 -18 -23 -17 0 -17 5 -3 32 7 12 7 24 2 29
-14 14 -41 1 -48 -22 -7 -21 -30 -25 -40 -8 -4 5 0 18 9 28 19 20 12 31 -19
31 -13 0 -28 6 -34 14 -6 8 -25 16 -42 18 -24 4 -33 0 -40 -16 -8 -20 -9 -20
-7 -1 2 11 -1 26 -5 33 -10 15 -57 16 -57 1 0 -6 -8 -9 -17 -7 -10 2 -18 12
-18 23 0 23 -34 33 -45 15 -12 -20 -39 -4 -33 18 6 24 -21 36 -37 16 -19 -22
-31 -17 -24 11 9 36 -22 46 -48 14 l-19 -24 3 35 c3 29 0 35 -17 35 -11 0 -20
-5 -20 -12 0 -7 -5 -17 -11 -23 -17 -17 -54 5 -54 30 0 11 -7 20 -15 20 -8 0
-15 -7 -15 -15 0 -18 -8 -19 -43 -2 -18 8 -27 20 -27 35 0 29 -27 40 -44 17
-18 -25 -46 -12 -46 20 0 29 -7 31 -31 9 -10 -9 -23 -13 -28 -9 -14 8 -14 72
-1 80 12 7 4 25 -11 25 -6 0 -18 -19 -29 -42 l-18 -42 -22 37 c-12 20 -24 37
-26 37 -2 0 -12 -10 -24 -22 -22 -24 -35 -18 -35 15 0 28 -31 34 -38 7 -8 -30
-28 -24 -25 8 4 34 -25 38 -30 4 -5 -32 -27 -21 -25 11 1 19 -7 32 -28 47 -16
12 -29 19 -29 15 0 -3 -9 -1 -19 4 -24 13 -45 -8 -35 -34 5 -13 3 -16 -7 -13
-8 3 -14 16 -15 29 -2 45 -4 49 -24 49 -10 0 -24 -9 -30 -20 -6 -11 -15 -18
-21 -15 -5 4 -7 11 -4 16 4 5 3 19 -1 31 -7 22 -7 22 -30 -7 -19 -23 -24 -26
-24 -12 0 22 -26 33 -44 18 -19 -16 -32 4 -16 24 7 9 8 15 0 20 -16 10 -12 32
7 39 9 4 21 2 27 -4 7 -7 4 -10 -8 -10 -11 0 -16 -6 -14 -17 5 -25 61 -25 66
0 6 29 -27 57 -65 57 -18 0 -33 5 -33 10 0 20 -40 9 -56 -15 -19 -30 -13 -52
18 -64 20 -8 21 -10 6 -16 -34 -14 -53 -2 -53 35 0 43 -26 52 -43 16 -14 -30
-48 -25 -64 10 -9 19 -8 28 5 42 11 12 13 22 6 32 -8 12 -16 8 -43 -23 -34
-38 -57 -36 -36 4 6 11 9 27 6 35 -9 25 -37 15 -48 -17 -7 -22 -14 -27 -21
-20 -8 8 -6 21 7 47 23 50 7 64 -27 24 -26 -30 -45 -37 -39 -14 4 21 -18 27
-37 10 -31 -28 -51 -20 -51 19 0 28 -4 35 -20 35 -15 0 -20 -7 -20 -25 0 -16
-6 -25 -16 -25 -14 0 -15 7 -10 40 5 35 4 40 -12 40 -10 0 -24 -11 -30 -25
-17 -37 -32 -30 -32 15 0 46 -25 57 -36 15 -10 -39 -26 -30 -22 13 2 31 0 37
-17 37 -12 0 -21 -9 -25 -23 -7 -32 -24 -29 -28 5 -5 37 -42 62 -42 29 0 -8
-5 -18 -10 -21 -7 -4 -10 9 -8 37 l3 43 -45 0 c-43 0 -45 -1 -48 -32 -2 -18
-8 -33 -13 -33 -17 0 -22 31 -9 55 12 23 7 45 -11 45 -5 0 -18 -15 -29 -32
l-20 -33 0 30 c0 46 -11 75 -27 75 -8 0 -12 -4 -9 -9 3 -5 -1 -24 -9 -42 l-14
-34 -1 35 c-1 61 -73 93 -95 42 -10 -22 -25 -30 -25 -13 0 5 7 25 15 45 12 29
13 36 2 36 -7 0 -18 -5 -23 -10 -7 -7 -15 -2 -24 15 -16 30 -32 28 -40 -6 -4
-16 -8 -20 -14 -11 -4 6 -4 17 -1 22 9 15 -17 37 -53 45 -17 3 -34 11 -37 16
-12 18 -44 9 -47 -13 -4 -28 -28 -36 -28 -9 0 28 -25 27 -44 -1 -9 -12 -16
-17 -16 -11 0 16 -31 26 -44 13 -16 -16 -26 -12 -26 10 0 22 -35 29 -43 8 -7
-19 -40 4 -47 32 -7 28 -28 38 -36 16 -10 -25 -21 -19 -28 14 -6 32 -32 41
-42 15 -4 -8 -13 -15 -21 -15 -10 0 -14 9 -11 32 4 39 -22 50 -37 17 -16 -34
-30 -22 -27 21 2 29 -2 40 -12 40 -8 0 -16 -7 -20 -15 -10 -28 -35 -17 -38 18
-4 42 -32 44 -36 2 -5 -42 -16 -50 -52 -35 -28 11 -31 17 -28 48 4 43 -17 54
-33 18 -19 -41 -32 -31 -25 18 7 44 0 61 -20 48 -6 -4 -13 -15 -17 -24 -3 -10
-12 -18 -18 -18 -8 0 -10 15 -5 50 4 33 3 50 -4 50 -7 0 -10 -27 -8 -77 l3
-78 130 -52 c72 -29 180 -69 240 -89 61 -20 144 -52 185 -71 41 -19 98 -43
125 -53 86 -32 207 -77 280 -104 39 -15 128 -47 198 -72 70 -25 167 -62 215
-83 48 -21 141 -57 207 -81 66 -23 138 -51 160 -62 55 -26 237 -97 375 -147
178 -64 244 -95 256 -119 6 -12 18 -30 27 -40 10 -10 17 -22 17 -26 0 -4 11
-24 25 -44 29 -42 31 -52 10 -52 -32 0 -45 -62 -21 -96 14 -18 15 -18 45 10
l30 29 30 -32 c24 -26 37 -32 63 -29 47 4 50 39 8 78 -27 26 -29 31 -18 49 18
29 2 51 -49 68 -23 8 -48 25 -57 38 -15 23 -15 23 17 13 18 -5 59 -17 92 -25
33 -8 101 -32 150 -53 91 -39 239 -95 465 -176 69 -25 163 -62 210 -83 163
-73 360 -151 382 -151 15 0 106 -34 152 -56 17 -9 47 -34 66 -56 32 -35 41
-40 81 -40 27 -1 56 6 69 15 30 21 50 11 50 -24 0 -52 112 -137 150 -114 5 3
10 15 10 26 0 14 10 25 30 32 31 12 39 34 18 55 -9 9 -2 12 31 12 35 0 44 4
48 20 3 12 18 27 34 36 33 17 36 30 13 62 -29 41 -149 19 -230 -43 -23 -18
-41 -24 -55 -20 -19 6 -19 8 -5 24 38 42 -3 95 -106 138 -221 91 -663 262
-793 306 -49 16 -99 36 -109 43 -19 13 -19 13 0 19 10 4 35 13 54 21 34 14 38
14 80 -10 54 -31 93 -33 120 -6 16 16 18 25 10 40 -15 27 -12 32 10 20 23 -12
54 0 64 25 17 46 -50 92 -117 80 -27 -5 -36 -3 -41 10 -15 40 -116 -13 -116
-61 0 -53 -104 -97 -175 -74 -20 7 -42 9 -50 6 -8 -3 -42 6 -77 20 -35 13 -88
34 -118 45 -30 12 -68 27 -85 34 -126 56 -267 114 -300 125 -22 7 -47 16 -56
20 -8 4 -47 20 -85 35 -38 14 -132 53 -209 85 -77 32 -203 81 -280 109 -77 28
-158 59 -180 67 -206 82 -408 158 -501 189 -39 13 -98 36 -130 51 -33 15 -68
31 -79 35 -11 5 -86 35 -167 69 -80 33 -149 60 -153 60 -4 0 -34 13 -68 29
-34 16 -91 40 -127 54 -54 21 -215 90 -295 126 -90 41 -114 50 -141 56 -24 5
-33 2 -38 -11z m1064 -558 c0 -3 -4 -8 -10 -11 -5 -3 -10 -1 -10 4 0 6 5 11
10 11 6 0 10 -2 10 -4z m1375 -576 c-5 -8 -11 -8 -17 -2 -6 6 -7 16 -3 22 5 8
11 8 17 2 6 -6 7 -16 3 -22z m1111 9 c12 -21 -12 -32 -45 -21 -19 7 -33 7 -36
1 -4 -5 -12 -9 -18 -9 -7 1 -1 10 12 20 25 22 76 27 87 9z m-93 -86 c-7 -2
-19 -2 -25 0 -7 3 -2 5 12 5 14 0 19 -2 13 -5z m-898 -74 c4 -6 5 -13 1 -16
-8 -8 -56 6 -56 17 0 13 47 13 55 -1z m-89 -94 c-7 -29 -26 -34 -26 -7 0 18
20 45 28 37 2 -2 2 -16 -2 -30z m114 -10 c7 -9 10 -18 7 -22 -8 -7 -37 15 -37
28 0 14 16 11 30 -6z m1938 -347 c-3 -7 -15 -15 -29 -18 -30 -7 -100 4 -79 13
45 18 113 22 108 5z m-144 -79 c-3 -5 -15 -7 -27 -3 -30 9 -34 14 -17 24 17
10 53 -7 44 -21z m74 14 c-10 -2 -26 -2 -35 0 -10 3 -2 5 17 5 19 0 27 -2 18
-5z m-85 -47 c15 -4 27 -11 27 -16 0 -18 -47 -11 -71 11 -22 18 -22 20 -4 15
11 -2 32 -7 48 -10z m-67 -32 c31 -24 46 -54 25 -54 -13 0 -60 40 -71 61 -15
27 4 25 46 -7z"/>
<path d="M166 2763 c-11 -11 -6 -23 9 -23 8 0 15 4 15 9 0 13 -16 22 -24 14z"/>
<path d="M285 2700 c3 -5 10 -10 16 -10 5 0 9 5 9 10 0 6 -7 10 -16 10 -8 0
-12 -4 -9 -10z"/>
<path d="M340 2670 c0 -5 7 -10 16 -10 8 0 12 5 9 10 -3 6 -10 10 -16 10 -5 0
-9 -4 -9 -10z"/>
<path d="M396 2652 c-3 -6 -1 -14 5 -17 15 -10 25 3 12 16 -7 7 -13 7 -17 1z"/>
<path d="M4192 2559 c5 -17 48 -25 48 -10 0 6 -4 11 -9 11 -5 0 -17 3 -27 7
-12 4 -15 2 -12 -8z"/>
<path d="M0 2121 c0 -13 95 -59 138 -67 20 -4 46 -13 57 -20 11 -8 29 -14 40
-14 12 0 26 -5 32 -11 12 -12 64 -33 188 -74 128 -43 175 -63 228 -97 68 -43
128 -72 201 -97 33 -12 70 -30 82 -42 13 -12 34 -23 47 -24 13 -2 51 -17 85
-34 34 -17 69 -31 78 -31 10 0 47 -13 83 -29 36 -16 125 -47 196 -70 142 -45
163 -55 146 -65 -18 -11 -13 -26 9 -26 13 0 18 5 14 15 -8 21 7 19 73 -11 32
-14 96 -39 143 -56 47 -17 96 -36 110 -43 14 -8 113 -48 220 -91 107 -42 200
-80 205 -84 6 -4 22 -10 37 -14 16 -3 27 -12 25 -19 -1 -8 8 -11 27 -9 15 2
36 -3 45 -11 9 -8 25 -17 36 -19 11 -2 19 -10 17 -16 -3 -15 15 -16 20 -1 4
13 47 -5 60 -24 3 -6 15 -12 24 -13 10 -2 23 -10 29 -18 7 -8 25 -14 45 -13
28 2 37 -3 45 -21 8 -18 17 -22 45 -21 41 2 100 -9 117 -23 6 -5 9 -17 6 -26
-6 -16 -5 -16 13 0 23 20 57 7 47 -18 -5 -14 -3 -14 16 -3 18 12 27 11 64 -9
23 -12 47 -22 54 -22 27 0 22 -23 -12 -65 -35 -42 -38 -44 -58 -30 -29 20 -40
19 -34 -5 7 -25 -7 -34 -33 -20 -15 8 -18 17 -13 40 6 35 -6 39 -32 10 -20
-22 -33 -24 -55 -10 -12 7 -12 12 -2 22 14 14 16 48 2 48 -5 0 -17 -11 -26
-25 -18 -27 -22 -29 -42 -16 -12 7 -11 14 2 39 10 18 12 33 6 37 -10 6 -45
-24 -51 -44 -3 -7 -12 -9 -21 -6 -12 5 -15 15 -11 46 6 41 -11 56 -24 22 -6
-15 -8 -14 -13 7 -4 15 -14 26 -27 28 -11 2 -23 12 -26 23 -8 29 -37 23 -50
-11 -6 -16 -17 -30 -24 -30 -18 0 -16 11 7 40 13 18 16 28 8 37 -18 22 -39 14
-54 -22 -8 -19 -19 -35 -24 -35 -15 0 -12 32 5 54 20 27 19 36 -5 36 -11 0
-27 -11 -36 -25 -19 -28 -34 -33 -34 -9 0 12 -7 14 -29 9 l-29 -6 5 41 c6 41
5 42 -16 29 -11 -8 -21 -19 -21 -26 0 -18 -20 -27 -33 -14 -8 8 -8 14 1 23 17
17 15 48 -2 48 -8 0 -23 -12 -34 -27 -25 -34 -40 -23 -25 17 9 24 8 32 -4 42
-12 10 -18 8 -34 -12 -18 -24 -19 -24 -19 -4 0 12 -6 27 -14 33 -12 10 -18 7
-31 -18 -8 -17 -20 -31 -25 -31 -13 0 -12 4 1 34 9 20 9 29 -1 41 -19 22 -30
18 -41 -15 -15 -41 -29 -38 -26 7 3 50 -26 58 -42 12 -14 -39 -26 -30 -26 19
0 42 -22 51 -40 17 -22 -43 -26 -47 -41 -34 -11 9 -11 15 2 41 8 16 12 38 9
49 -7 20 -7 20 -27 2 -11 -10 -24 -28 -29 -40 -5 -13 -13 -23 -19 -23 -14 0
-13 16 2 40 10 15 10 25 2 38 -15 24 -26 19 -47 -22 -11 -20 -23 -36 -27 -36
-18 0 -19 19 -3 47 17 31 13 63 -9 63 -7 0 -23 -18 -36 -41 -36 -62 -55 -44
-36 34 10 41 -22 36 -47 -8 -22 -36 -48 -40 -28 -3 16 30 18 86 3 99 -10 8
-11 5 -7 -10 3 -12 1 -21 -6 -21 -6 0 -17 -15 -25 -34 -8 -18 -19 -37 -25 -40
-19 -12 -24 22 -7 46 22 31 20 58 -3 58 -22 0 -36 -16 -45 -52 -7 -30 -13 -33
-36 -18 -12 8 -12 14 3 45 23 49 22 67 -5 63 -14 -2 -25 -15 -33 -38 -14 -41
-52 -58 -41 -19 18 63 18 79 4 79 -21 0 -38 -21 -38 -47 0 -14 -6 -23 -15 -23
-17 0 -20 23 -5 50 12 22 -12 46 -32 34 -7 -5 -24 -7 -37 -5 -16 2 -30 -5 -41
-20 -22 -29 -57 -20 -40 10 16 31 12 51 -10 51 -13 0 -22 -9 -26 -25 -3 -14
-10 -25 -15 -25 -11 0 -11 3 0 34 7 17 6 27 -2 35 -15 12 -30 4 -46 -26 -6
-13 -17 -23 -23 -23 -6 0 -8 9 -3 23 17 56 17 67 1 67 -9 0 -21 -9 -28 -20 -7
-11 -17 -20 -22 -20 -4 0 -3 7 4 16 11 13 10 19 -8 36 l-21 21 -18 -39 c-9
-21 -18 -41 -20 -43 -1 -2 -10 -1 -19 3 -15 6 -14 9 7 32 20 21 21 27 9 34
-10 6 -20 4 -32 -7 -15 -13 -18 -13 -18 -2 0 8 4 20 9 28 5 8 7 20 4 28 -8 19
-32 -3 -50 -45 -11 -27 -17 -31 -28 -22 -14 12 -6 49 17 77 14 17 3 44 -15 37
-8 -3 -23 -23 -33 -44 -19 -39 -34 -52 -34 -27 0 6 7 25 15 41 19 36 19 46 0
46 -9 0 -23 -16 -32 -35 -10 -21 -24 -35 -35 -35 -24 0 -23 13 2 35 24 21 26
35 5 35 -8 0 -22 -11 -31 -25 -9 -14 -20 -25 -25 -25 -17 0 -9 44 13 67 12 13
19 26 15 29 -11 12 -38 -5 -55 -36 -17 -30 -42 -41 -42 -17 0 6 9 26 20 44 13
23 16 34 8 39 -12 8 -58 -43 -58 -64 0 -8 -6 -12 -12 -9 -14 5 -12 56 3 72 11
11 12 45 1 45 -12 0 -36 -30 -50 -62 -12 -29 -27 -34 -52 -18 -13 8 -12 15 8
52 28 52 11 71 -29 32 -29 -28 -43 -23 -27 12 15 32 3 42 -23 18 -21 -19 -22
-19 -15 4 6 17 3 22 -12 22 -20 0 -52 -29 -52 -48 0 -7 -7 -12 -15 -12 -18 0
-18 4 -3 47 17 47 1 53 -34 13 l-30 -35 5 30 c3 17 9 38 12 48 5 13 2 17 -13
17 -13 0 -26 -12 -37 -36 -12 -26 -20 -33 -28 -25 -8 8 -5 19 11 40 12 17 18
32 14 34 -14 9 -54 -13 -59 -33 -3 -11 -9 -20 -14 -20 -13 0 -11 11 6 44 12
22 13 31 4 37 -18 11 -35 1 -47 -27 -12 -24 -32 -33 -32 -13 0 6 5 20 11 31
16 29 -4 47 -28 26 -10 -9 -27 -18 -38 -20 -13 -2 -21 -12 -23 -30 -3 -23 3
-29 51 -51 29 -14 78 -35 108 -47 30 -12 86 -37 126 -56 40 -19 79 -34 87 -34
8 0 17 -4 20 -9 3 -5 45 -25 93 -44 49 -19 151 -65 229 -100 197 -91 285 -126
477 -191 93 -31 191 -68 219 -82 62 -31 357 -145 558 -215 47 -16 91 -31 99
-34 10 -4 11 -8 1 -20 -15 -18 -8 -29 30 -45 40 -16 40 -46 0 -54 -38 -7 -57
-44 -40 -76 10 -19 18 -22 50 -17 28 4 51 -1 86 -19 35 -18 51 -21 65 -13 24
12 24 24 -1 58 -10 16 -18 41 -17 56 2 25 -3 30 -31 39 -19 5 -47 22 -63 38
-26 26 -26 29 -6 22 12 -4 40 -13 62 -19 22 -5 51 -18 65 -27 14 -9 66 -32
115 -52 50 -19 131 -55 181 -80 50 -24 124 -58 165 -75 120 -50 119 -53 -21
-47 -69 3 -161 10 -205 16 -288 38 -382 53 -475 75 -58 13 -134 29 -170 35
-147 24 -237 40 -275 50 -22 6 -66 15 -98 21 -45 8 -57 14 -53 26 3 8 3 46 0
84 -7 69 -7 69 -54 99 -26 16 -55 30 -66 30 -49 0 -83 -57 -52 -88 18 -18 2
-25 -24 -10 -15 8 -56 12 -115 12 -87 -1 -92 1 -97 22 -7 28 -30 36 -61 22
-22 -10 -31 -8 -68 18 -33 24 -42 36 -42 60 0 16 -8 41 -17 55 -14 22 -26 27
-80 32 -34 3 -64 11 -66 17 -2 6 -15 24 -29 40 -33 40 -94 43 -119 5 -12 -18
-25 -25 -48 -25 -37 0 -82 -41 -88 -79 -3 -24 -9 -27 -134 -60 -38 -10 -102
-59 -110 -84 -8 -26 -92 -86 -130 -93 -24 -4 -34 -12 -34 -25 0 -21 16 -24 52
-10 13 5 48 14 78 21 30 7 66 23 80 35 14 13 52 30 85 40 33 9 65 21 71 26 9
7 94 9 94 2 0 -1 -14 -9 -30 -18 -17 -9 -42 -33 -56 -55 -20 -29 -40 -44 -87
-63 -34 -14 -80 -27 -102 -30 -171 -25 -185 -29 -185 -48 0 -17 5 -18 42 -13
179 26 321 76 343 121 21 42 36 53 56 43 15 -8 26 -4 56 23 40 37 97 68 160
90 31 11 47 11 83 1 88 -24 135 -46 165 -74 17 -16 44 -34 60 -40 26 -11 151
-17 180 -9 12 3 58 -8 98 -23 16 -6 40 -28 53 -48 22 -33 33 -39 107 -59 45
-11 106 -25 135 -31 30 -5 58 -12 63 -16 12 -7 104 -22 212 -34 43 -5 124 -20
180 -34 125 -30 338 -66 390 -66 20 0 79 -6 130 -14 115 -18 387 -30 405 -18
19 13 150 -38 351 -135 l74 -36 -27 -14 c-15 -8 -24 -18 -21 -24 8 -12 75 -9
93 4 8 7 35 -1 85 -23 119 -54 250 -110 258 -110 18 0 79 -32 75 -39 -3 -4
-29 -5 -58 0 -29 4 -114 15 -188 24 -74 9 -175 22 -225 30 -49 7 -128 13 -175
14 -47 1 -119 6 -160 11 -41 5 -118 14 -170 21 -52 6 -111 17 -130 25 -19 7
-125 27 -235 44 -110 16 -250 42 -311 56 -62 14 -122 26 -135 27 -13 1 -57 19
-97 40 -39 20 -83 37 -97 37 -22 0 -24 3 -15 19 20 39 -34 66 -76 37 -17 -13
-24 -11 -59 10 l-40 24 30 0 c17 -1 82 -8 145 -16 159 -21 155 -21 155 -5 0
21 -126 45 -300 56 -121 8 -141 14 -154 41 -19 42 -91 28 -91 -18 0 -27 -17
-22 -24 7 -7 29 -45 35 -66 10 -9 -11 -24 -13 -57 -8 -40 5 -45 4 -42 -12 4
-19 55 -34 179 -55 91 -15 204 -38 225 -46 11 -4 43 -27 72 -51 47 -40 55 -43
91 -37 31 5 52 0 108 -27 38 -18 87 -36 109 -39 22 -4 87 -17 145 -30 58 -12
119 -24 135 -26 119 -15 323 -49 385 -66 41 -10 120 -23 175 -28 55 -5 107
-11 116 -15 8 -3 84 -10 169 -15 197 -12 338 -26 387 -39 21 -5 79 -12 128
-16 76 -6 86 -9 65 -18 -35 -15 -280 -11 -435 7 -92 11 -260 16 -580 18 -247
1 -473 5 -501 9 -50 7 -280 13 -884 26 -467 9 -463 9 -467 -3 -2 -6 9 -17 24
-24 l28 -13 -50 -9 c-27 -4 -56 -6 -62 -3 -7 2 -160 5 -340 6 -181 0 -348 4
-373 8 -55 8 -80 4 -80 -14 0 -8 21 -15 63 -18 54 -6 765 -12 823 -8 12 0 38
12 58 26 28 19 46 24 69 20 18 -2 221 -7 452 -10 231 -3 492 -7 580 -10 394
-13 808 -25 1015 -30 124 -3 295 -13 382 -21 121 -12 174 -13 233 -5 42 6 107
11 145 11 38 0 80 5 94 11 19 9 33 8 63 -3 23 -10 46 -12 58 -7 31 12 33 11
47 -18 18 -37 113 -85 153 -78 16 3 36 11 43 19 22 22 -28 72 -80 80 -48 7
-76 21 -65 32 4 4 62 8 130 9 137 1 193 15 232 55 24 25 25 29 11 43 -9 9 -16
18 -16 20 0 12 86 18 155 12 72 -7 74 -8 53 -25 -37 -29 -13 -57 67 -76 l30
-7 -35 -8 c-19 -5 -48 -6 -65 -3 -39 6 -63 -9 -47 -29 10 -12 0 -19 -56 -45
-37 -16 -78 -33 -92 -37 -14 -4 -32 -16 -40 -26 -27 -33 -135 -49 -490 -74
-253 -18 -1016 -29 -1105 -15 -94 14 -615 25 -615 13 0 -13 78 -20 250 -22 74
-1 221 -9 325 -18 261 -21 802 -12 1285 22 234 17 337 35 388 70 20 14 40 25
44 25 23 0 139 62 148 80 7 14 21 20 43 20 l32 0 -23 -18 c-22 -17 -23 -18 -4
-35 10 -9 33 -20 50 -23 39 -8 34 -21 -9 -22 -43 -1 -83 -32 -87 -67 -4 -33 8
-48 32 -39 12 5 16 14 13 31 -6 33 18 55 57 51 l31 -3 -3 -62 c-3 -74 11 -88
45 -48 18 20 23 37 21 62 -3 35 -2 35 40 38 48 4 72 19 72 45 0 27 -25 43 -59
35 -17 -3 -39 -1 -51 5 -34 18 -7 39 58 43 l57 3 -57 2 c-32 1 -58 6 -58 12 0
5 25 17 55 25 l55 16 0 49 c0 27 -5 52 -10 55 -8 5 -7 11 1 21 12 15 4 64 -11
64 -5 0 -16 13 -25 30 l-15 29 -228 -3 c-216 -2 -252 -6 -252 -26 0 -6 312 -7
345 0 6 1 23 2 39 1 27 -1 28 -2 13 -18 -8 -10 -17 -31 -19 -48 l-3 -30 -170
0 c-166 0 -215 -6 -215 -27 0 -5 10 -18 23 -28 36 -30 10 -42 -113 -53 -108
-10 -142 -5 -107 14 20 11 23 49 5 67 -16 16 -59 15 -85 -3 -19 -13 -23 -13
-46 5 -14 11 -29 20 -34 20 -4 0 -62 27 -128 61 -144 73 -238 120 -285 143
l-35 16 75 -5 c359 -25 343 -25 357 -5 9 13 25 18 58 18 25 -1 48 -5 51 -10
11 -17 56 -8 61 12 4 15 11 18 37 13 39 -7 56 -20 56 -44 0 -26 24 -24 42 3
11 16 26 22 60 23 27 1 61 11 82 24 44 28 71 17 80 -33 7 -35 19 -43 83 -52
23 -3 44 3 73 21 46 29 53 30 69 11 20 -24 68 -30 93 -12 12 9 35 16 50 16 38
0 36 23 -6 65 -35 37 -57 42 -115 25 -24 -7 -47 -6 -74 2 -38 12 -41 11 -68
-20 -16 -18 -29 -42 -29 -53 0 -24 -20 -21 -32 4 -4 9 -12 25 -16 34 -5 10
-27 24 -49 32 -38 14 -42 13 -68 -7 -15 -12 -38 -22 -51 -22 -21 0 -24 5 -24
34 0 31 2 34 39 39 21 2 62 -1 92 -9 29 -8 63 -14 75 -14 30 0 189 37 241 57
23 8 58 13 78 11 22 -2 34 0 32 6 -6 17 -97 19 -141 3 -102 -36 -177 -50 -239
-42 -34 4 -89 10 -122 14 -33 4 -70 12 -81 19 -12 6 -24 9 -27 6 -3 -3 -23 4
-46 15 -40 21 -41 21 -91 2 -27 -10 -63 -30 -80 -44 -44 -38 -109 -47 -369
-53 -130 -3 -258 -9 -286 -14 -48 -8 -55 -6 -182 55 -126 60 -147 75 -123 90
16 10 12 35 -6 35 -9 0 -30 -7 -48 -15 -31 -15 -36 -14 -92 11 -32 15 -88 37
-124 49 -36 13 -110 42 -165 64 -55 23 -136 56 -180 73 -44 17 -294 117 -555
221 -261 104 -509 202 -552 217 -42 16 -89 35 -105 43 -15 8 -93 35 -173 62
-80 26 -183 64 -230 85 -47 20 -115 49 -152 64 -36 15 -81 38 -99 52 -18 13
-41 24 -50 24 -10 0 -20 4 -24 9 -3 5 -29 17 -58 26 -28 9 -61 20 -72 25 -11
5 -49 20 -85 34 -36 13 -89 36 -118 50 -28 15 -87 38 -130 51 -42 13 -94 30
-114 39 -41 17 -78 21 -78 7z m437 -337 c-3 -3 -12 -4 -19 -1 -8 3 -5 6 6 6
11 1 17 -2 13 -5z m195 -431 c13 -12 18 -30 18 -69 0 -52 -1 -54 -38 -73 -21
-11 -52 -20 -68 -19 -16 0 -42 -5 -57 -11 -35 -13 -50 -6 -38 17 5 9 7 31 4
47 -6 41 23 77 55 69 12 -4 22 -12 22 -20 0 -19 19 -27 33 -15 7 5 23 8 35 4
14 -3 24 0 28 10 8 22 -14 60 -32 53 -8 -3 -14 1 -14 9 0 20 29 19 52 -2z
m-462 -277 c0 -2 -7 -7 -16 -10 -8 -3 -12 -2 -9 4 6 10 25 14 25 6z m1950
-144 c0 -13 -12 -22 -22 -16 -10 6 -1 24 13 24 5 0 9 -4 9 -8z m94 -18 c16 -6
23 -34 9 -34 -11 1 -43 26 -43 34 0 8 14 8 34 0z m457 -27 c-13 -13 -26 -3
-16 12 3 6 11 8 17 5 6 -4 6 -10 -1 -17z m1647 -54 l30 -17 -29 -27 c-16 -14
-40 -26 -53 -26 -14 0 -36 -10 -51 -21 -21 -17 -39 -20 -95 -19 -83 2 -98 12
-31 21 27 4 61 16 77 29 42 32 108 77 116 77 3 0 20 -8 36 -17z m-1103 -15
c25 -11 34 -28 15 -28 -5 0 -10 -6 -10 -12 -1 -13 -44 -68 -54 -68 -2 0 -2 10
1 21 4 15 0 27 -13 36 -18 13 -17 14 6 38 30 29 24 27 55 13z m115 -49 c202
-76 396 -157 475 -198 33 -17 64 -31 70 -31 18 0 144 -68 176 -95 17 -14 35
-25 40 -25 20 0 8 -31 -16 -40 -15 -6 -25 -17 -25 -30 0 -11 -6 -20 -12 -20
-16 0 -40 15 -39 24 3 23 -2 28 -23 24 -20 -4 -26 0 -28 16 -2 14 -10 21 -26
21 -13 0 -26 5 -30 10 -4 6 -19 16 -34 22 -29 13 -35 27 -18 38 15 9 2 25 -20
25 -14 0 -18 -5 -13 -16 4 -10 -4 -25 -21 -40 -14 -14 -26 -31 -26 -39 0 -17
-14 -19 -40 -5 -19 10 -19 11 1 45 12 19 18 42 15 51 -5 14 -1 16 25 10 32 -6
32 -6 14 14 -10 11 -28 20 -40 20 -12 0 -34 9 -48 20 -30 24 -37 25 -37 5 0
-8 8 -15 18 -15 10 0 27 -7 38 -15 16 -12 17 -16 5 -24 -10 -7 -22 -4 -39 10
-14 10 -28 19 -32 19 -4 0 -20 -18 -35 -40 -15 -22 -32 -37 -37 -34 -5 4 -4
13 4 22 7 10 18 27 25 39 15 26 2 40 -45 49 -25 5 -33 2 -46 -19 -9 -13 -14
-32 -10 -41 7 -17 -3 -21 -24 -7 -11 6 -11 17 -3 47 6 21 9 40 6 42 -2 2 -17
-11 -34 -30 -22 -25 -33 -30 -41 -22 -9 9 -8 18 5 37 25 38 -2 48 -31 11 -19
-23 -26 -26 -36 -16 -9 9 -9 15 0 24 15 15 16 45 2 53 -13 8 -40 -19 -40 -39
0 -9 -5 -16 -11 -16 -10 0 -8 20 7 71 3 10 -3 19 -12 23 -21 8 -56 -27 -48
-48 4 -11 0 -16 -10 -16 -20 0 -20 13 0 57 13 26 14 37 5 46 -9 9 -6 16 11 29
29 22 23 22 88 -3z m375 -52 c13 -3 9 -5 -12 -6 -31 -1 -49 10 -36 23 3 3 11
2 17 -3 6 -5 20 -11 31 -14z m246 -3 c-25 -18 -117 -21 -191 -6 l-35 6 35 6
c19 4 75 7 125 8 87 2 89 2 66 -14z m69 12 c0 -9 -30 -14 -35 -6 -4 6 3 10 14
10 12 0 21 -2 21 -4z m-925 -16 c3 -5 1 -10 -4 -10 -6 0 -11 5 -11 10 0 6 2
10 4 10 3 0 8 -4 11 -10z m75 -30 c11 -21 4 -25 -19 -11 -7 5 -10 14 -7 20 10
15 14 14 26 -9z m1804 -180 c13 -13 -9 -30 -40 -30 -28 0 -59 24 -49 40 9 14
72 7 89 -10z m-1284 2 c0 -22 -27 -62 -42 -62 -22 0 -23 14 -2 45 15 24 44 34
44 17z m1280 -63 c0 -5 -16 -9 -35 -9 -19 0 -35 4 -35 8 0 4 16 8 35 9 19 1
35 -3 35 -8z m-1128 -32 c-3 -30 13 -43 33 -27 12 10 15 8 15 -11 -1 -26 -23
-62 -33 -53 -3 3 -3 12 -1 19 4 8 -8 20 -28 31 -18 9 -34 18 -36 19 -2 2 4 15
14 30 20 31 40 27 36 -8z m368 -7 c0 -5 -5 -10 -11 -10 -5 0 -7 5 -4 10 3 6 8
10 11 10 2 0 4 -4 4 -10z m625 -10 c0 -19 -42 -24 -78 -11 -45 17 -32 32 26
29 38 -2 52 -7 52 -18z m143 -2 c-3 -8 -22 -13 -48 -13 -26 0 -45 5 -47 13 -3
8 10 12 47 12 37 0 50 -4 48 -12z m-1038 -48 c0 -5 -4 -10 -10 -10 -5 0 -10 5
-10 10 0 6 5 10 10 10 6 0 10 -4 10 -10z m65 -20 c3 -5 1 -10 -4 -10 -6 0 -11
5 -11 10 0 6 2 10 4 10 3 0 8 -4 11 -10z m822 -56 c3 -8 2 -19 -3 -24 -13 -12
-64 0 -64 15 0 26 57 34 67 9z m-613 -24 c18 -17 1 -30 -23 -17 -34 17 -41 41
-10 32 13 -4 28 -11 33 -15z m757 -54 c-9 -10 -23 -13 -44 -9 -63 11 -57 22
18 36 28 5 41 -9 26 -27z"/>
<path d="M3285 750 c4 -6 11 -8 16 -5 14 9 11 15 -7 15 -8 0 -12 -5 -9 -10z"/>
<path d="M3354 715 c11 -8 27 -15 37 -15 9 0 19 -7 23 -15 3 -8 12 -12 21 -9
21 8 19 24 -4 24 -10 0 -24 7 -31 15 -7 8 -24 15 -39 15 -25 -1 -25 -1 -7 -15z"/>
<path d="M3495 659 c-4 -6 -4 -13 -1 -16 8 -8 36 5 36 17 0 13 -27 13 -35 -1z"/>
<path d="M3930 449 c0 -6 9 -13 19 -16 11 -3 22 -12 25 -20 7 -17 26 -8 26 13
0 8 -9 14 -19 14 -11 0 -23 5 -26 10 -8 13 -25 13 -25 -1z"/>
<path d="M2616 1811 c-4 -7 -5 -15 -2 -18 9 -9 19 4 14 18 -4 11 -6 11 -12 0z"/>
<path d="M2696 1783 c-11 -11 -6 -23 9 -23 8 0 15 4 15 9 0 13 -16 22 -24 14z"/>
<path d="M2890 1680 c0 -5 5 -10 10 -10 6 0 10 5 10 10 0 6 -4 10 -10 10 -5 0
-10 -4 -10 -10z"/>
<path d="M3055 1630 c-3 -5 1 -10 9 -10 9 0 16 5 16 10 0 6 -4 10 -9 10 -6 0
-13 -4 -16 -10z"/>
<path d="M1290 1540 c0 -5 5 -10 10 -10 6 0 10 5 10 10 0 6 -4 10 -10 10 -5 0
-10 -4 -10 -10z"/>
<path d="M3380 1501 c0 -6 7 -11 15 -11 12 0 61 -21 117 -51 10 -5 27 -9 39
-9 22 0 22 0 4 20 -10 12 -25 18 -32 16 -7 -3 -16 1 -20 8 -5 7 -24 16 -43 19
-19 3 -45 8 -57 12 -15 5 -23 3 -23 -4z"/>
<path d="M3630 1404 c0 -9 40 -23 44 -15 3 5 -5 11 -19 13 -14 3 -25 4 -25 2z"/>
<path d="M2015 1250 c3 -5 8 -10 11 -10 2 0 4 5 4 10 0 6 -5 10 -11 10 -5 0
-7 -4 -4 -10z"/>
<path d="M3255 1060 c-13 -14 -16 -29 -12 -55 3 -19 1 -37 -4 -40 -18 -12 -8
-22 44 -47 99 -48 120 -53 163 -36 48 19 63 41 47 66 -9 15 -7 21 8 30 25 16
24 35 -4 68 -28 32 -73 35 -114 9 -24 -16 -26 -16 -40 4 -18 27 -64 27 -88 1z
m220 -30 c7 -12 -55 -41 -69 -33 -11 7 31 43 50 43 7 0 16 -5 19 -10z m-165
-21 c0 -5 -4 -9 -10 -9 -5 0 -10 7 -10 16 0 8 5 12 10 9 6 -3 10 -10 10 -16z
m48 -61 c-2 -9 11 -13 40 -13 23 0 42 -1 42 -3 0 -1 -11 -7 -25 -12 -37 -14
-85 -2 -85 21 0 11 7 19 15 19 8 0 14 -6 13 -12z"/>
<path d="M505 920 c-38 -5 -99 -15 -135 -24 -81 -19 -85 -20 -70 -1 20 24 -12
29 -92 16 -103 -17 -132 -37 -87 -61 15 -8 29 -8 51 -1 42 15 45 14 51 -10 5
-19 11 -21 39 -16 18 4 102 19 185 36 114 21 184 29 275 30 82 0 118 -3 108
-9 -8 -5 -28 -10 -43 -10 -16 0 -47 -4 -70 -9 -127 -28 -341 -54 -562 -68 -69
-4 -95 -10 -111 -24 -11 -10 -26 -19 -32 -19 -7 0 -12 -7 -12 -15 0 -16 49
-21 66 -7 10 9 113 24 324 47 74 8 198 26 275 40 176 32 381 33 428 2 16 -11
27 -27 27 -41 0 -51 37 -40 45 12 4 21 13 50 21 65 14 25 14 30 0 52 -20 30
-45 32 -86 7 -28 -18 -35 -18 -103 -5 -85 17 -392 25 -492 13z"/>
<path d="M1992 771 c-8 -5 -12 -17 -10 -26 3 -19 30 -30 103 -45 193 -38 247
-51 267 -63 41 -26 163 -52 343 -72 79 -9 180 -25 194 -30 8 -3 67 -10 130
-15 65 -5 133 -16 155 -25 43 -18 81 -17 81 4 0 22 -79 41 -212 51 -68 6 -153
16 -190 24 -38 8 -106 17 -153 21 -120 10 -284 42 -328 65 -43 22 -173 57
-250 66 -44 6 -55 11 -63 30 -9 25 -41 32 -67 15z"/>
<path d="M1342 684 c-12 -8 -22 -21 -22 -29 0 -21 38 -52 71 -59 56 -10 61
-13 71 -29 11 -21 28 -22 54 -3 19 15 18 15 -6 41 -97 101 -121 112 -168 79z"/>
<path d="M724 670 c-29 -11 -64 -58 -57 -76 3 -8 17 -17 32 -20 14 -4 36 -18
48 -33 l22 -26 15 36 c28 67 29 86 7 108 -23 23 -34 25 -67 11z"/>
<path d="M859 635 c-15 -8 -30 -22 -33 -31 -7 -19 19 -54 41 -54 7 0 16 -7 19
-15 15 -39 64 7 64 60 0 53 -37 69 -91 40z"/>
<path d="M1197 643 c-30 -5 -50 -33 -41 -57 6 -17 55 -36 91 -36 32 0 83 27
83 45 0 7 -12 23 -26 34 -26 20 -47 23 -107 14z"/>
<path d="M64 577 c-27 -24 -28 -25 -11 -51 10 -14 24 -26 31 -26 8 0 16 -7 20
-15 9 -26 33 -17 46 18 11 27 14 29 17 12 5 -22 86 -105 102 -105 6 0 15 9 21
20 13 24 35 26 44 5 7 -19 36 -20 36 0 0 8 9 19 20 25 40 21 49 80 13 80 -9 0
-21 6 -27 13 -6 7 -39 19 -74 26 -61 12 -63 11 -97 -15 -26 -19 -35 -22 -35
-11 0 19 -18 34 -51 42 -20 5 -33 0 -55 -18z"/>
<path d="M4055 587 c-21 -16 -8 -29 37 -34 32 -3 45 12 28 32 -15 19 -41 19
-65 2z"/>
<path d="M4210 575 c0 -8 9 -15 20 -15 11 0 20 7 20 15 0 8 -9 15 -20 15 -11
0 -20 -7 -20 -15z"/>
<path d="M4324 569 c-3 -6 -1 -15 7 -19 14 -9 49 5 49 20 0 14 -47 13 -56 -1z"/>
<path d="M1369 529 c-28 -28 -19 -44 27 -44 34 0 39 3 42 24 6 42 -35 54 -69
20z"/>
<path d="M1500 505 c-10 -12 -9 -16 4 -21 22 -8 46 2 46 21 0 19 -34 20 -50 0z"/>
<path d="M458 499 c-39 -22 -9 -78 34 -63 13 5 37 8 53 9 25 0 30 4 30 25 0
22 -5 25 -35 26 -19 1 -42 4 -50 8 -8 3 -23 1 -32 -5z"/>
<path d="M1507 210 c-16 -13 -27 -31 -27 -46 0 -22 -4 -24 -50 -24 -28 0 -67
-7 -87 -15 -46 -19 -303 -21 -333 -3 -15 10 -29 9 -67 -5 -40 -14 -76 -16
-228 -11 -99 2 -240 6 -313 8 -110 3 -136 7 -152 21 -18 16 -23 17 -48 4 -15
-7 -30 -15 -34 -17 -5 -2 -8 13 -8 32 0 23 -5 39 -15 42 -17 7 -65 -21 -65
-37 0 -5 -12 -21 -27 -34 -26 -22 -29 -23 -40 -8 -11 14 -13 11 -13 -24 l0
-41 51 15 c45 13 52 13 68 -1 21 -19 52 -21 70 -4 9 10 93 13 357 11 190 -1
348 -4 352 -7 3 -4 -1 -12 -10 -19 -8 -6 -18 -20 -21 -30 -6 -16 5 -17 141
-17 81 0 142 4 136 8 -7 4 -13 16 -16 27 -2 15 -12 20 -38 21 -19 0 -36 6 -38
13 -3 10 2 12 21 7 14 -3 28 -2 31 3 3 5 44 6 91 3 63 -3 96 -1 127 11 59 22
161 31 186 18 12 -6 24 -20 27 -31 9 -28 22 -25 40 11 15 28 19 30 63 27 46
-3 47 -3 47 -38 0 -25 5 -35 18 -38 27 -5 49 18 43 44 -6 21 -4 22 41 19 78
-6 117 -16 130 -33 11 -13 16 -14 37 -2 22 11 28 10 53 -9 21 -17 35 -21 61
-16 20 4 39 1 47 -5 10 -8 19 -8 34 0 25 13 26 18 4 42 -15 17 -14 18 25 18
23 0 42 5 42 10 0 11 -4 12 -63 15 -21 1 -49 8 -63 15 -20 11 -31 11 -58 2
-52 -19 -96 -16 -96 7 0 41 -11 51 -56 51 -41 0 -45 -2 -50 -30 -7 -31 -22
-38 -41 -19 -8 8 -17 7 -34 -3 -16 -10 -43 -13 -81 -10 -53 3 -57 6 -63 32
-12 54 -65 73 -108 40z"/>
<path d="M4920 115 c-10 -12 -9 -16 4 -21 18 -7 49 13 40 27 -8 14 -30 11 -44
-6z"/>
<path d="M1414 86 c-16 -43 15 -69 51 -42 16 12 18 18 9 33 -14 23 -52 29 -60
9z"/>
</g>
</svg>
