<?xml version="1.0" standalone="no"?>
<!DOCTYPE svg PUBLIC "-//W3C//DTD SVG 20010904//EN"
 "http://www.w3.org/TR/2001/REC-SVG-20010904/DTD/svg10.dtd">
<svg version="1.0" xmlns="http://www.w3.org/2000/svg"
 width="500.000000pt" height="878.000000pt" viewBox="0 0 500.000000 878.000000"
 preserveAspectRatio="xMidYMid meet">
<metadata>
Created by potrace 1.15, written by Peter Selinger 2001-2017
</metadata>
<g transform="translate(0.000000,878.000000) scale(0.100000,-0.100000)"
fill="#000000" stroke="none">
<path d="M2578 8625 c-3 -3 -68 -7 -144 -8 -111 -3 -139 -6 -139 -18 0 -8 15
-16 39 -20 28 -5 47 -16 67 -40 50 -61 54 -75 33 -105 -10 -14 -31 -45 -45
-68 -24 -39 -28 -41 -74 -41 -39 0 -50 -4 -53 -17 -3 -15 4 -18 35 -19 21 -1
40 -1 43 -1 3 0 97 4 208 8 178 6 203 9 200 23 -3 13 -14 15 -60 13 l-56 -4
-41 56 c-23 30 -41 61 -41 68 0 7 17 38 38 68 34 51 41 55 82 60 31 3 46 10
48 21 2 12 -8 18 -44 23 -57 7 -89 8 -96 1z m-28 -47 c-1 -7 -12 -26 -26 -43
l-25 -30 -25 29 c-25 28 -25 30 -8 43 23 17 84 17 84 1z m-15 -214 c9 -14 15
-27 13 -28 -9 -8 -88 -13 -88 -6 0 23 25 60 40 60 10 0 25 -12 35 -26z"/>
<path d="M4549 8498 c-22 -23 -40 -32 -56 -30 -32 5 -63 -24 -63 -58 0 -27 20
-52 53 -63 9 -4 17 -17 17 -30 0 -13 5 -28 12 -35 19 -19 -9 -42 -52 -42 -54
0 -79 -43 -92 -158 -8 -77 -43 -234 -63 -285 -5 -12 -16 -17 -34 -15 -25 3
-26 6 -29 66 -3 56 -1 62 17 62 11 0 29 14 41 30 27 38 23 74 -7 78 -20 3 -23
9 -23 51 0 59 -28 93 -57 70 -31 -23 -43 -42 -43 -70 0 -20 -7 -30 -31 -39
-42 -18 -64 -52 -49 -79 11 -21 30 -28 85 -33 20 -2 29 -8 27 -18 -2 -8 -4
-38 -4 -67 -2 -50 1 -55 41 -93 31 -27 42 -45 38 -57 -3 -10 -48 -153 -100
-318 -95 -302 -184 -573 -329 -1005 -43 -129 -106 -329 -139 -445 -73 -255
-137 -453 -150 -461 -6 -3 -17 0 -25 7 -21 17 -17 50 42 349 32 162 41 205 54
268 25 110 63 362 65 422 2 36 12 112 23 170 11 58 30 155 41 215 29 156 36
180 46 180 19 0 36 17 46 43 l10 26 12 -24 c17 -33 64 -47 85 -26 13 13 14 21
5 45 -10 27 -8 32 19 57 39 38 35 70 -9 67 -18 -2 -35 2 -38 7 -10 17 -43 11
-70 -12 -19 -18 -28 -38 -36 -88 -9 -59 -22 -91 -33 -79 -10 11 45 309 74 399
26 82 41 147 45 204 5 56 22 150 45 237 13 48 12 83 -2 131 -9 31 -17 40 -40
45 -21 4 -28 11 -28 28 0 12 -7 28 -15 35 -9 8 -15 30 -15 57 0 42 1 45 23 38
89 -27 108 -28 133 -4 28 27 30 47 7 65 -17 13 -16 15 10 35 42 32 51 56 33
84 -14 21 -20 23 -43 14 -30 -11 -40 -4 -45 31 -5 37 -39 37 -82 0 -26 -23
-36 -40 -36 -61 0 -33 -15 -37 -42 -12 -24 21 -48 9 -63 -32 -9 -24 -6 -30 25
-58 32 -28 35 -36 35 -87 0 -30 4 -63 9 -72 6 -13 2 -17 -20 -20 -54 -6 -96
-105 -68 -160 12 -23 12 -32 2 -51 -7 -12 -15 -51 -18 -87 l-5 -64 -33 -2
c-18 -1 -35 3 -38 8 -3 5 0 31 6 58 16 65 7 92 -28 88 -23 -3 -28 -9 -36 -50
-8 -44 -12 -48 -37 -48 -45 0 -50 -37 -9 -71 28 -24 30 -30 20 -49 -14 -25 1
-50 31 -50 28 0 61 37 54 60 -9 27 11 34 35 10 23 -23 24 -36 9 -100 -6 -25
-11 -61 -10 -80 0 -19 -5 -52 -10 -73 -6 -21 -16 -91 -24 -155 -18 -153 -54
-370 -80 -482 -16 -72 -45 -268 -76 -520 -20 -167 -34 -247 -63 -354 -9 -32
-23 -93 -30 -135 -36 -194 -58 -308 -62 -328 -7 -36 -26 -27 -19 10 3 17 9
155 15 306 6 150 12 276 15 280 13 23 25 206 25 421 1 302 3 310 43 330 30 15
40 27 51 63 6 18 7 17 32 -2 50 -39 71 -23 53 39 -12 38 -11 42 10 56 29 21
26 78 -4 82 -11 1 -28 16 -37 32 -37 65 -73 21 -65 -79 4 -58 2 -72 -22 -115
-14 -27 -31 -51 -37 -53 -13 -4 -9 313 7 438 6 48 10 117 9 155 -2 38 1 116 5
174 7 88 12 113 36 156 33 58 36 101 12 151 -23 49 -68 75 -115 67 -34 -5 -38
-3 -43 19 -11 44 -2 62 31 65 43 4 102 65 85 86 -9 11 -10 20 -2 35 18 32 13
69 -11 85 -19 14 -24 14 -38 1 -23 -21 -35 -19 -48 10 -6 14 -16 25 -21 25
-17 0 -35 -32 -41 -73 -4 -36 -8 -42 -27 -39 -30 4 -63 -15 -63 -36 0 -21 18
-42 36 -42 7 0 24 -4 38 -10 23 -8 24 -12 14 -41 -8 -23 -7 -40 2 -68 11 -35
11 -40 -14 -64 -35 -35 -43 -73 -22 -111 24 -46 10 -111 -24 -111 -21 0 -25
-5 -25 -29 -1 -37 -21 -44 -46 -17 -11 12 -26 21 -34 21 -21 0 -20 -64 1 -95
14 -22 14 -26 0 -47 -20 -28 -21 -67 -2 -74 16 -6 46 8 71 32 9 9 19 13 23 9
34 -33 23 -1078 -17 -1575 -6 -69 -13 -164 -16 -211 -4 -47 -10 -90 -14 -97
-5 -8 -21 -9 -51 -4 l-45 8 -1 209 c-1 116 -4 280 -8 365 -8 210 -9 816 -1
829 11 19 42 12 59 -15 19 -28 52 -30 70 -2 8 13 6 22 -8 37 -18 20 -18 21 2
38 25 21 41 73 22 73 -6 0 -20 -5 -31 -10 -16 -9 -21 -7 -29 15 -19 49 -59 23
-64 -41 -2 -22 -4 -45 -5 -51 0 -7 -8 -13 -16 -13 -12 0 -15 16 -16 83 0 45
-2 93 -4 107 -7 53 -4 408 3 470 6 39 5 80 -1 105 -11 42 -63 118 -97 142 -11
8 -20 22 -20 32 0 13 7 16 33 13 44 -5 92 31 77 58 -5 10 -7 38 -4 62 5 34 2
47 -10 57 -13 11 -20 11 -28 3 -7 -7 -20 -12 -31 -12 -16 0 -18 5 -12 40 14
82 -36 87 -70 8 -22 -49 -31 -58 -61 -58 -24 0 -64 -39 -64 -62 0 -10 13 -18
35 -22 37 -7 41 -15 24 -48 -16 -30 10 -55 41 -38 16 9 25 9 33 1 9 -9 2 -21
-26 -46 -20 -19 -42 -46 -47 -60 -13 -34 -13 -101 1 -126 5 -11 13 -67 16
-124 4 -88 3 -105 -9 -105 -25 0 -28 11 -12 42 18 34 9 50 -27 52 -16 1 -25
11 -34 36 -12 37 -42 52 -56 28 -14 -21 -10 -77 6 -102 14 -21 13 -24 -5 -41
-45 -40 -12 -76 45 -49 24 11 42 13 66 6 l34 -8 3 -96 c1 -53 -1 -118 -7 -145
-6 -32 -9 -39 -10 -20 -1 35 -24 44 -65 24 -18 -8 -38 -12 -46 -7 -6 4 -20 5
-30 3 -19 -5 -30 30 -30 101 0 22 -7 77 -15 120 -23 118 -44 343 -38 407 4 44
1 64 -16 97 -27 53 -26 66 4 86 36 23 60 73 44 92 -7 8 -20 12 -31 8 -17 -5
-19 -2 -16 23 3 24 -1 28 -23 31 -19 2 -35 -7 -62 -38 -21 -22 -37 -49 -37
-61 0 -29 -22 -18 -31 15 -10 35 -47 76 -69 76 -24 0 -50 -32 -50 -62 0 -14
-9 -33 -20 -43 -31 -28 -25 -52 19 -74 35 -18 39 -24 45 -73 4 -29 13 -75 21
-103 7 -27 16 -74 20 -102 l6 -53 -30 0 c-25 0 -30 4 -36 38 -4 20 -14 49 -23
65 -16 26 -15 28 6 43 12 8 22 24 22 34 0 23 -32 42 -54 34 -12 -5 -16 0 -16
19 0 36 -26 60 -51 47 -10 -6 -19 -15 -19 -20 0 -6 -6 -10 -13 -10 -7 0 -21
25 -31 55 -18 57 -29 65 -67 44 -16 -8 -20 -19 -18 -47 1 -20 -1 -50 -5 -65
-6 -21 -4 -33 9 -47 16 -18 15 -20 -9 -57 -15 -22 -26 -52 -26 -71 0 -40 24
-99 52 -129 16 -17 19 -30 15 -53 -4 -17 0 -65 8 -108 18 -92 19 -142 4 -142
-38 0 -139 104 -139 142 0 8 18 29 40 47 22 17 40 39 40 47 0 8 -13 27 -29 42
-20 18 -31 39 -33 62 -2 28 -8 36 -27 38 -35 5 -51 -22 -51 -85 0 -51 -1 -53
-24 -47 -18 4 -28 -1 -45 -24 -42 -59 -21 -87 59 -80 30 3 35 0 40 -22 7 -34
57 -105 87 -125 14 -10 43 -22 66 -29 l40 -11 24 -110 c13 -61 39 -168 57
-240 19 -71 47 -182 62 -245 14 -63 44 -180 66 -260 22 -80 46 -172 54 -205 8
-33 23 -92 34 -131 11 -38 28 -115 40 -170 11 -54 24 -117 29 -139 15 -61 48
-218 73 -341 22 -110 22 -112 3 -153 -10 -23 -23 -40 -29 -38 -20 7 -56 82
-91 192 -94 299 -218 661 -258 755 -24 58 -57 139 -72 180 -15 41 -42 104 -60
140 -18 36 -38 83 -45 105 -7 22 -25 67 -40 100 -16 33 -42 95 -60 137 l-32
77 33 41 c18 22 35 40 38 40 4 0 12 -9 19 -21 15 -24 50 -22 66 4 8 13 7 24
-6 48 -14 23 -15 35 -7 50 15 29 4 38 -41 32 -35 -5 -39 -3 -34 11 3 9 12 16
19 16 19 0 29 20 17 32 -14 14 -49 -7 -67 -42 -10 -19 -13 -43 -9 -72 4 -35 1
-48 -19 -72 l-23 -29 -22 54 c-12 30 -33 97 -48 149 -15 56 -59 162 -106 259
-90 184 -118 258 -118 310 0 84 -32 139 -83 143 -32 3 -35 18 -8 35 19 12 41
69 41 106 0 26 -46 44 -73 28 -18 -12 -23 -11 -40 13 -22 30 -44 33 -63 9 -21
-28 -16 -67 12 -108 35 -52 44 -79 33 -96 -10 -15 -17 -9 -45 37 -15 26 -37 9
-23 -18 9 -16 8 -19 -3 -16 -7 3 -13 19 -13 38 0 41 -21 50 -36 16 -9 -18 -9
-33 -2 -48 8 -17 6 -32 -6 -56 -19 -40 -7 -65 33 -70 18 -2 26 -9 26 -23 0
-41 41 -123 84 -169 43 -46 72 -97 62 -107 -2 -2 -25 3 -50 11 -56 19 -88 20
-104 4 -20 -20 -13 -45 19 -71 28 -21 30 -26 18 -45 -10 -17 -10 -23 0 -36 8
-9 19 -16 26 -16 7 0 18 -7 25 -15 26 -32 71 -5 81 50 9 44 29 21 64 -72 20
-54 47 -123 60 -153 12 -30 35 -93 51 -140 15 -47 47 -130 72 -185 24 -55 59
-134 77 -175 18 -41 55 -120 83 -176 28 -55 70 -147 94 -205 25 -57 68 -161
98 -231 51 -122 54 -127 72 -111 23 21 36 9 20 -18 -12 -18 -11 -21 7 -26 27
-7 27 -18 0 -37 -21 -14 -21 -15 56 -228 42 -117 87 -240 100 -273 31 -77 39
-111 28 -118 -14 -9 -29 5 -48 43 -10 19 -29 49 -41 66 -13 17 -24 36 -24 43
0 18 -198 422 -224 456 -33 43 -86 145 -86 165 0 18 -46 112 -77 156 -11 16
-71 132 -133 258 -62 125 -125 242 -140 260 -15 17 -37 51 -49 74 -20 40 -21
45 -7 61 9 10 16 32 16 49 0 26 7 36 32 52 35 21 48 18 48 -11 0 -21 16 -26
23 -6 8 21 -13 47 -38 47 -29 0 -30 3 -9 40 10 15 14 35 10 45 -5 15 -9 15
-40 -4 -41 -26 -46 -26 -46 -2 0 49 -41 24 -42 -26 -1 -15 9 -48 21 -71 23
-45 25 -87 4 -87 -15 0 -250 464 -293 578 -17 45 -47 114 -66 154 -18 39 -34
85 -34 102 0 16 -4 40 -9 53 -36 94 -45 107 -73 117 l-30 11 21 26 c29 37 38
94 17 109 -9 7 -27 10 -40 8 -20 -4 -24 0 -30 31 -4 19 -11 38 -16 41 -12 8
-57 -25 -63 -46 -7 -24 16 -122 35 -148 13 -18 15 -29 6 -44 -8 -16 -12 -17
-19 -6 -5 8 -9 26 -9 41 0 15 -6 31 -13 35 -8 4 -22 20 -32 36 -31 49 -59 29
-48 -36 3 -20 1 -37 -6 -41 -20 -13 -12 -47 18 -75 22 -21 29 -36 29 -68 1
-48 29 -109 76 -161 19 -20 50 -67 70 -104 l36 -68 -24 0 c-31 0 -51 -32 -37
-57 5 -10 20 -27 32 -37 l23 -19 -23 -11 c-21 -9 -27 -6 -52 23 -15 19 -39 66
-52 105 -46 136 -89 261 -105 306 -8 24 -27 56 -41 70 -14 14 -39 40 -55 58
l-29 33 18 33 c21 39 16 72 -19 109 -16 17 -31 24 -44 20 -11 -2 -32 3 -47 13
-27 18 -28 18 -47 -6 -16 -19 -19 -35 -16 -71 4 -41 3 -46 -14 -41 -31 8 -49
-17 -48 -67 1 -25 0 -55 -2 -66 -3 -17 3 -20 37 -21 37 0 40 -3 50 -36 5 -20
17 -44 26 -54 9 -11 35 -59 58 -107 39 -82 41 -91 29 -118 -14 -31 -27 -35
-60 -18 -39 21 -86 -8 -72 -44 8 -22 79 -57 113 -57 28 0 31 -3 25 -24 -12
-47 58 -76 98 -39 24 21 27 17 78 -98 23 -53 59 -130 80 -170 21 -41 66 -129
99 -197 33 -67 83 -161 111 -207 29 -47 66 -119 84 -159 17 -41 37 -81 44 -89
7 -8 32 -53 56 -99 23 -45 64 -121 90 -168 26 -47 65 -125 87 -174 22 -49 56
-114 76 -144 39 -62 228 -434 267 -527 14 -33 37 -91 52 -129 l27 -70 -46 -38
c-25 -22 -70 -72 -99 -111 -29 -40 -89 -113 -135 -164 -85 -96 -129 -169 -157
-263 -27 -92 -95 -219 -125 -235 -15 -7 -34 -21 -42 -31 -7 -9 -47 -39 -88
-66 -41 -27 -83 -61 -95 -76 -11 -14 -32 -36 -46 -47 -48 -39 -112 -111 -165
-187 -30 -42 -76 -98 -101 -125 -25 -26 -72 -81 -104 -123 -32 -41 -86 -106
-120 -145 -68 -77 -100 -131 -100 -169 0 -30 52 -76 87 -76 18 0 24 -4 20 -14
-3 -8 -9 -30 -12 -49 -6 -29 -3 -37 21 -56 15 -12 37 -21 48 -20 12 1 33 -3
47 -10 22 -11 31 -10 57 3 48 25 54 21 47 -27 -5 -33 -3 -46 9 -56 9 -7 13
-17 10 -23 -12 -20 16 -35 53 -29 43 7 119 -13 127 -34 6 -16 -16 -125 -45
-220 -11 -38 -29 -111 -38 -160 -12 -64 -35 -128 -78 -220 -33 -72 -63 -138
-66 -147 -4 -10 -51 -40 -105 -67 -99 -50 -169 -107 -227 -184 -25 -34 -31
-37 -64 -31 -20 3 -43 14 -51 24 -8 10 -26 20 -40 22 -22 3 -26 9 -31 53 -9
86 -53 165 -90 165 -10 0 -33 -13 -50 -28 -29 -26 -33 -36 -38 -105 -6 -70 -9
-78 -43 -111 l-37 -36 1 -118 c1 -133 9 -154 45 -121 27 26 28 39 7 98 -17 50
-11 123 13 143 13 10 19 8 34 -11 23 -29 54 -22 46 11 -3 12 -1 30 4 40 8 15
7 24 -4 36 -24 28 -30 76 -13 117 30 72 74 23 86 -95 3 -36 13 -78 22 -95 25
-48 30 -163 10 -205 -23 -47 -47 -46 -47 2 0 20 -3 39 -7 43 -12 13 -38 -16
-38 -42 0 -13 -7 -26 -15 -29 -8 -4 -15 -12 -15 -19 0 -8 -29 -23 -65 -35
l-65 -22 0 -48 0 -49 31 9 c57 17 94 45 91 70 -2 22 -1 23 60 15 82 -11 129
-11 150 -1 16 7 18 3 17 -30 0 -22 -8 -59 -18 -84 l-19 -45 -156 4 c-153 3
-156 3 -156 -18 0 -20 6 -21 90 -22 50 -1 95 -3 100 -4 6 -1 31 -3 56 -4 l47
-1 -27 -21 c-24 -19 -39 -21 -147 -20 -114 2 -119 1 -119 -18 0 -22 18 -25
165 -26 l50 0 3 -67 c3 -66 2 -68 -36 -110 -72 -79 -112 -139 -112 -167 0 -32
11 -47 61 -84 43 -31 69 -95 69 -169 0 -82 7 -83 390 -98 146 -5 289 -12 318
-16 43 -4 53 -3 59 12 9 24 -16 64 -52 83 -17 9 -55 32 -85 51 -44 28 -65 35
-119 38 -76 5 -88 13 -124 85 -25 48 -26 55 -14 95 l13 42 21 -29 c34 -46 133
-49 133 -4 0 11 -8 12 -35 7 -63 -12 -93 43 -33 61 17 6 37 20 45 32 13 19 12
23 -8 42 -13 12 -36 21 -52 21 -29 0 -29 1 -14 18 12 13 17 37 17 80 0 33 5
64 11 68 16 10 631 6 642 -5 15 -15 1 -186 -22 -260 -8 -26 -7 -40 4 -61 35
-68 120 -80 201 -29 144 93 280 149 357 149 62 0 170 52 211 100 18 22 26 43
26 70 l0 38 433 -2 432 -1 0 -93 c0 -91 1 -94 29 -119 25 -21 36 -24 70 -19
23 4 47 13 54 20 7 7 15 50 19 102 3 49 11 95 17 103 9 11 113 13 651 7 352
-3 767 -9 923 -12 257 -6 282 -5 282 10 0 14 -17 16 -127 17 -71 1 -177 3
-238 6 -92 3 -750 12 -1340 17 l-150 1 -3 33 c-3 28 0 32 22 32 14 0 34 -10
46 -22 27 -29 92 -28 134 3 l30 22 595 -7 c328 -3 694 -9 814 -13 l217 -6 0
360 0 361 -22 7 c-13 4 -27 8 -32 9 -19 2 -17 25 3 35 12 7 18 17 15 26 -8 19
-33 19 -40 0 -10 -24 -48 -18 -108 18 -48 27 -56 36 -56 62 0 17 -9 47 -20 68
-11 20 -20 46 -20 57 0 29 -43 54 -69 41 -17 -9 -24 -5 -53 31 -28 36 -33 49
-30 88 5 62 -21 96 -60 81 -15 -5 -45 -32 -66 -60 -36 -45 -39 -54 -35 -95 4
-35 1 -53 -16 -80 -13 -21 -20 -44 -16 -54 6 -22 -9 -37 -48 -46 -19 -5 -33
-17 -42 -40 -16 -37 -22 -111 -11 -142 5 -16 -2 -30 -28 -57 -19 -20 -37 -50
-41 -67 -4 -16 -11 -32 -16 -36 -17 -10 -36 15 -32 39 12 63 -47 157 -97 157
-11 0 -33 -19 -52 -46 -18 -25 -45 -60 -60 -79 -16 -18 -28 -38 -28 -44 0 -6
-9 -11 -21 -11 -11 0 -34 -14 -51 -31 -17 -16 -34 -27 -39 -22 -4 4 -26 42
-48 85 -35 65 -38 78 -26 88 20 17 18 45 -10 175 l-23 110 39 40 c21 23 39 47
39 54 0 8 -38 89 -85 180 -46 91 -114 229 -151 306 -36 77 -81 165 -100 195
-18 30 -39 76 -46 102 -11 43 -10 49 8 69 16 18 19 37 20 123 1 55 -3 106 -8
113 -6 7 -5 19 2 32 9 17 5 32 -22 83 -38 76 -100 157 -131 173 -30 14 -32 35
-9 87 11 24 23 54 27 68 16 54 126 258 142 264 9 4 55 9 102 13 95 6 136 16
261 62 105 40 123 51 157 102 21 32 28 56 30 103 2 33 4 86 5 116 3 50 -1 62
-39 122 -24 37 -43 74 -43 82 0 8 -5 18 -10 21 -25 16 -58 104 -64 173 -3 41
-10 82 -16 91 -6 13 0 34 22 77 73 143 108 213 108 219 0 3 21 50 46 103 25
53 66 149 91 212 25 63 74 175 109 247 35 73 64 138 64 145 0 13 40 75 70 111
40 49 53 58 73 55 19 -3 22 -8 19 -40 -3 -28 3 -46 23 -73 15 -19 33 -35 41
-35 30 0 45 78 17 88 -8 2 -13 -6 -13 -22 0 -31 -15 -34 -30 -6 -9 18 -5 90 6
90 2 0 21 -7 43 -16 52 -21 95 -16 99 12 3 23 -28 49 -72 60 -25 6 -26 9 -20
49 4 28 2 45 -6 50 -15 9 -66 -39 -90 -86 -18 -33 -37 -49 -61 -49 -17 0 -9
21 65 183 85 185 189 419 217 491 46 115 133 283 174 338 25 33 45 70 45 83 0
16 11 30 35 45 48 29 54 59 41 185 -4 44 -15 91 -23 103 -13 21 -13 26 3 43
15 16 16 24 6 39 -8 14 -9 27 -2 45 13 34 13 35 -5 35 -10 0 -15 10 -15 34 0
68 -43 66 -56 -2 -5 -27 -10 -31 -29 -26 -30 8 -40 -11 -25 -47 11 -26 10 -32
-5 -43 -24 -17 -15 -48 19 -64 l28 -14 -24 -26 c-38 -42 -55 -75 -79 -148 -40
-129 -143 -314 -173 -314 -15 0 -17 -5 -12 -34 6 -29 -6 -63 -70 -208 -41 -95
-95 -220 -119 -278 -52 -126 -185 -426 -250 -565 -26 -55 -71 -156 -102 -225
-85 -194 -255 -564 -263 -573 -4 -5 -19 6 -34 24 -27 31 -28 46 -5 94 9 20
177 468 245 655 41 110 161 470 195 580 17 55 32 85 61 114 l38 40 0 -35 c0
-54 47 -88 78 -57 7 7 12 24 12 39 0 15 6 29 14 32 8 3 22 18 32 32 13 21 15
31 6 50 -7 14 -18 25 -26 25 -9 0 -16 12 -18 32 -4 47 -31 48 -74 3 -22 -24
-34 -46 -34 -64 0 -26 -24 -60 -35 -49 -10 10 54 235 144 507 27 80 63 189 79
241 38 121 112 322 123 335 19 24 59 155 59 193 0 33 -5 45 -31 65 -31 24 -31
25 -14 51 13 19 23 25 37 20 36 -11 88 5 100 32 11 22 9 28 -17 48 l-28 23 22
30 c27 36 24 67 -7 71 -17 3 -22 10 -22 31 0 29 -16 51 -36 51 -7 0 -27 -15
-45 -32z m-626 -85 l-18 -27 -3 28 c-2 17 4 36 15 48 l18 20 3 -20 c2 -12 -5
-33 -15 -49z m577 -10 c0 -13 -3 -13 -15 -3 -8 7 -12 16 -9 21 8 13 24 1 24
-18z m-472 0 c-3 -18 -68 -67 -76 -58 -7 6 58 75 71 75 5 0 7 -8 5 -17z m577
-33 c-10 -11 -25 -20 -33 -20 -9 0 -6 7 9 20 31 25 47 26 24 0z m-775 -32 c0
-15 -19 -8 -29 11 -14 25 0 37 16 15 7 -10 13 -21 13 -26z m163 -53 c3 -13
-29 -19 -51 -10 -15 6 -15 8 3 15 24 11 45 8 48 -5z m630 -2 c-7 -2 -19 -2
-25 0 -7 3 -2 5 12 5 14 0 19 -2 13 -5z m-1313 -13 c0 -5 -2 -10 -4 -10 -3 0
-8 5 -11 10 -3 6 -1 10 4 10 6 0 11 -4 11 -10z m71 -43 c-16 -16 -20 -5 -8 23
9 22 11 23 14 6 3 -10 0 -23 -6 -29z m-1023 -19 c7 -7 12 -21 12 -32 -1 -20
-1 -20 -20 3 -29 34 -22 59 8 29z m149 -20 c-3 -8 -6 -5 -6 6 -1 11 2 17 5 13
3 -3 4 -12 1 -19z m753 2 c0 -5 -9 -10 -19 -10 -11 0 -23 5 -26 10 -4 6 5 10
19 10 14 0 26 -4 26 -10z m-300 -25 c-7 -8 -17 -15 -23 -15 -5 0 -2 9 8 20 21
23 35 19 15 -5z m1472 -7 c-6 -6 -14 -9 -17 -6 -3 3 -3 13 1 22 5 12 10 14 17
7 8 -8 8 -14 -1 -23z m-1597 2 c0 -10 -8 -14 -25 -12 -31 5 -34 8 -25 22 10
16 50 8 50 -10z m526 -20 c-13 -11 -28 -20 -35 -20 -6 1 0 10 13 20 13 11 28
20 35 20 6 -1 0 -10 -13 -20z m1201 -28 c6 -23 -17 -82 -32 -82 -14 0 -13 43
2 58 10 10 10 15 -2 22 -13 9 -13 11 0 19 17 12 26 7 32 -17z m-2227 8 c-3 -5
-13 -10 -21 -10 -8 0 -14 5 -14 10 0 6 9 10 21 10 11 0 17 -4 14 -10z m100
-30 c0 -9 -7 -14 -18 -12 -10 2 -25 -2 -33 -9 -17 -14 -18 -5 -3 22 12 23 54
22 54 -1z m1423 -13 c2 -17 -1 -27 -9 -27 -7 0 -27 -14 -45 -31 -30 -29 -32
-30 -38 -11 -7 20 7 66 25 89 6 6 22 11 37 10 21 -2 28 -8 30 -30z m-2468 -8
c0 -17 -4 -28 -10 -24 -5 3 -10 17 -10 31 0 13 5 24 10 24 6 0 10 -14 10 -31z
m100 -2 c0 -25 -26 -67 -41 -67 -14 0 -11 43 7 68 20 28 34 28 34 -1z m2740 4
c0 -11 -4 -23 -10 -26 -6 -4 -10 5 -10 19 0 14 5 26 10 26 6 0 10 -9 10 -19z
m-2120 -30 c5 -17 7 -31 5 -31 -11 0 -36 50 -30 60 9 15 14 9 25 -29z m410
-13 c20 -43 27 -113 13 -121 -5 -3 -17 -1 -28 3 -18 7 -19 8 -2 15 26 11 22
45 -5 45 -22 1 -22 1 -5 14 16 12 16 15 2 29 -17 18 -20 57 -5 57 6 0 20 -19
30 -42z m1411 -11 c8 -30 3 -37 -25 -37 -16 0 -21 6 -21 23 3 52 33 61 46 14z
m-2971 -70 c0 -36 -18 -5 -24 43 l-7 45 16 -34 c8 -18 15 -43 15 -54z m-364
28 c18 -43 18 -55 -1 -55 -18 0 -35 31 -35 64 0 37 18 32 36 -9z m69 -5 c3
-11 3 -30 -1 -42 l-8 -23 -7 25 c-10 37 -10 60 0 60 5 0 13 -9 16 -20z m1536
-13 c-8 -8 -11 -7 -11 4 0 20 13 34 18 19 3 -7 -1 -17 -7 -23z m1967 15 c2 -7
-3 -12 -12 -12 -9 0 -16 7 -16 16 0 17 22 14 28 -4z m-1748 -17 c-7 -8 -17
-15 -23 -15 -5 0 -2 9 8 20 21 23 35 19 15 -5z m-1403 -17 c-8 -24 -12 -28
-15 -15 -5 23 4 47 17 47 6 0 5 -13 -2 -32z m2402 6 c12 -15 21 -41 21 -58 0
-35 -24 -76 -36 -63 -4 4 -2 13 4 19 19 19 14 46 -13 64 -14 9 -25 22 -25 28
0 6 -9 12 -20 13 -11 1 -20 -2 -20 -8 0 -5 -8 -9 -18 -9 -10 0 -23 -5 -30 -12
-17 -17 -28 -2 -12 17 7 8 23 15 36 15 12 0 26 5 29 10 13 20 63 11 84 -16z
m491 6 c0 -5 -7 -10 -16 -10 -8 0 -12 5 -9 10 3 6 10 10 16 10 5 0 9 -4 9 -10z
m350 -5 c-7 -9 -15 -13 -19 -10 -3 3 1 10 9 15 21 14 24 12 10 -5z m230 1 c0
-3 -4 -8 -10 -11 -5 -3 -10 -1 -10 4 0 6 5 11 10 11 6 0 10 -2 10 -4z m-3610
-65 c0 -21 -16 -2 -24 29 -7 24 -6 24 8 6 9 -11 16 -27 16 -35z m1547 24 c-23
-22 -33 -18 -12 5 10 11 20 18 23 16 2 -3 -3 -12 -11 -21z m918 5 c3 -5 1 -10
-4 -10 -6 0 -11 5 -11 10 0 6 2 10 4 10 3 0 8 -4 11 -10z m438 -27 c-3 -18 -9
-33 -14 -33 -5 0 -6 12 -3 28 13 53 25 57 17 5z m-2267 6 c13 -14 19 -38 21
-82 1 -34 3 -71 5 -81 2 -10 -3 -21 -11 -24 -10 -3 -12 0 -8 11 3 9 1 19 -4
23 -6 3 -8 17 -5 29 3 13 1 27 -4 30 -6 4 -8 16 -4 27 5 16 3 20 -9 15 -11 -4
-13 0 -10 14 3 10 1 19 -3 19 -5 0 -15 9 -22 20 -11 18 -10 20 11 20 13 0 32
-9 43 -21z m2394 -12 c0 -29 -15 -51 -29 -43 -8 5 -7 13 3 28 8 11 12 27 9 36
-4 10 -2 13 5 8 7 -4 12 -17 12 -29z m-3318 -20 c-25 -12 -27 -11 -37 21 l-7
23 34 -17 c32 -17 32 -17 10 -27z m3878 22 c0 -6 -4 -7 -10 -4 -5 3 -10 11
-10 16 0 6 5 7 10 4 6 -3 10 -11 10 -16z m-3947 -8 c3 -11 2 -22 -1 -25 -8 -9
-32 14 -32 30 0 21 27 17 33 -5z m1578 -15 c-19 -20 -21 -28 -12 -65 9 -42 -2
-68 -13 -28 -14 53 2 117 30 117 15 0 14 -3 -5 -24z m333 0 c-3 -9 -10 -16
-15 -16 -5 0 -4 9 3 20 14 22 21 20 12 -4z m-1109 4 c3 -5 -1 -10 -9 -10 -9 0
-16 5 -16 10 0 6 4 10 9 10 6 0 13 -4 16 -10z m1655 -34 c0 -5 -7 -3 -15 4 -8
7 -12 17 -9 22 7 10 24 -9 24 -26z m-2112 -12 c-10 -10 -28 6 -28 24 0 15 1
15 17 -1 9 -9 14 -19 11 -23z m1387 12 c24 -36 30 -126 12 -151 -15 -20 -15
-20 -21 5 -3 14 -8 51 -11 83 -5 40 -11 57 -21 57 -15 0 -19 12 -7 23 13 14
33 6 48 -17z m2125 9 c-7 -8 -16 -15 -21 -15 -5 0 -6 7 -3 15 4 8 13 15 21 15
13 0 13 -3 3 -15z m-3319 -61 c21 -60 24 -118 7 -111 -7 2 -12 14 -10 25 2 12
-3 31 -11 43 -15 20 -15 20 -41 -8 -21 -22 -26 -24 -26 -10 0 9 4 17 9 17 12
0 43 61 35 69 -3 3 -10 -2 -15 -12 -14 -24 -32 -22 -24 3 4 11 2 20 -4 20 -18
0 -12 18 7 22 34 8 56 -9 73 -58z m2729 62 c0 -3 -4 -8 -10 -11 -5 -3 -10 -1
-10 4 0 6 5 11 10 11 6 0 10 -2 10 -4z m660 -6 c0 -5 -4 -10 -10 -10 -5 0 -10
5 -10 10 0 6 5 10 10 10 6 0 10 -4 10 -10z m-3744 -45 c53 -55 58 -64 78 -143
17 -67 98 -272 122 -310 8 -12 19 -33 24 -47 9 -24 8 -25 -11 -15 -11 7 -27 9
-34 6 -20 -7 -27 9 -10 24 18 15 10 36 -17 43 -11 3 -17 10 -13 16 3 6 -3 24
-14 40 -12 16 -21 36 -21 45 0 9 -4 24 -9 34 -5 9 -14 37 -21 62 -21 81 -37
101 -95 123 -5 3 -7 7 -4 11 3 4 18 2 33 -3 29 -11 35 -1 11 19 -9 7 -13 21
-10 31 5 14 0 20 -19 25 -14 3 -28 15 -31 25 -4 10 -14 19 -23 19 -9 0 -24 5
-32 10 -12 7 -10 11 10 19 38 15 39 14 86 -34z m684 41 c0 -3 -4 -8 -10 -11
-5 -3 -10 -1 -10 4 0 6 5 11 10 11 6 0 10 -2 10 -4z m2185 -37 c11 -17 -1 -21
-15 -4 -8 9 -8 15 -2 15 6 0 14 -5 17 -11z m308 5 c11 -11 -3 -24 -18 -18 -8
4 -12 10 -9 15 6 11 18 12 27 3z m-2485 -39 c0 -30 -2 -34 -14 -24 -17 14 -18
31 -2 47 16 16 16 17 16 -23z m92 27 c0 -13 -52 -64 -59 -57 -3 4 4 15 17 25
12 10 22 23 22 29 0 6 5 11 10 11 6 0 10 -3 10 -8z m1047 -18 c-9 -9 -28 6
-21 18 4 6 10 6 17 -1 6 -6 8 -13 4 -17z m1240 -1 c-15 -16 -17 -16 -17 -1 0
9 6 18 13 21 20 7 22 -2 4 -20z m-2836 -55 c-25 -26 -27 -17 -4 19 9 14 19 21
21 15 2 -6 -6 -21 -17 -34z m3915 21 c3 -5 -1 -12 -10 -15 -17 -7 -59 13 -52
25 7 10 54 2 62 -10z m-3356 1 c0 -5 -5 -10 -11 -10 -5 0 -7 5 -4 10 3 6 8 10
11 10 2 0 4 -4 4 -10z m2371 -5 c-1 -15 -24 -12 -29 3 -3 9 2 13 12 10 10 -1
17 -7 17 -13z m539 -9 c0 -8 -8 -13 -17 -11 -10 2 -20 4 -23 4 -7 2 23 21 33
21 4 0 7 -6 7 -14z m-3370 -16 c0 -6 -7 -13 -15 -16 -8 -4 -15 -10 -15 -15 0
-5 -9 -18 -20 -29 -27 -27 -25 -17 6 30 26 39 44 51 44 30z m430 -19 c-10 -20
-30 -29 -30 -14 0 10 33 44 37 39 3 -2 0 -14 -7 -25z m1040 9 c0 -5 -2 -10 -4
-10 -3 0 -8 5 -11 10 -3 6 -1 10 4 10 6 0 11 -4 11 -10z m187 -12 c-3 -8 -6
-5 -6 6 -1 11 2 17 5 13 3 -3 4 -12 1 -19z m-1727 7 c0 -2 -9 -19 -20 -37 -13
-22 -20 -27 -20 -15 0 20 21 57 32 57 5 0 8 -2 8 -5z m1365 -51 c-1 -27 -4
-56 -8 -64 -12 -26 17 -54 56 -54 41 0 39 4 57 -121 5 -38 12 -85 15 -102 5
-30 3 -33 -18 -33 -27 0 -51 -23 -62 -58 -9 -31 -30 -22 -31 14 -1 47 -24 204
-40 271 -17 75 -17 87 -3 153 14 65 34 61 34 -6z m1414 -2 c-6 -15 -10 -28
-10 -29 1 -2 -2 -3 -6 -2 -8 0 -7 33 2 57 3 7 9 11 15 7 6 -4 6 -15 -1 -33z
m-2249 18 c0 -5 -4 -10 -10 -10 -5 0 -10 5 -10 10 0 6 5 10 10 10 6 0 10 -4
10 -10z m2885 1 c3 -5 1 -12 -4 -15 -5 -3 -11 1 -15 9 -6 16 9 21 19 6z m483
-3 c23 -23 14 -38 -20 -31 -43 8 -47 12 -24 29 24 17 29 17 44 2z m-3808 -5
c0 -10 -32 -43 -41 -43 -5 0 -3 11 3 25 10 22 38 36 38 18z m1390 -9 c0 -8 -5
-12 -10 -9 -6 4 -8 11 -5 16 9 14 15 11 15 -7z m1410 1 c0 -9 -6 -12 -15 -9
-8 4 -12 10 -9 15 8 14 24 10 24 -6z m1040 -72 c0 -7 -13 -19 -30 -28 -27 -14
-44 -5 -19 10 5 4 15 19 20 33 8 21 12 23 19 12 6 -8 10 -21 10 -27z m-3015
17 c3 -6 -1 -13 -10 -16 -19 -8 -30 0 -20 15 8 14 22 14 30 1z m2421 -23 c-1
-17 -6 -23 -18 -19 -21 5 -23 13 -6 30 18 18 26 15 24 -11z m-3186 3 c0 -5 -2
-10 -4 -10 -3 0 -8 5 -11 10 -3 6 -1 10 4 10 6 0 11 -4 11 -10z m1450 2 c0
-13 -12 -22 -22 -16 -10 6 -1 24 13 24 5 0 9 -4 9 -8z m2208 -12 c-11 -18 -28
-27 -28 -16 0 6 30 36 36 36 2 0 -1 -9 -8 -20z m-3258 -6 c0 -8 -5 -12 -10 -9
-6 4 -8 11 -5 16 9 14 15 11 15 -7z m2217 -6 c-3 -8 -6 -5 -6 6 -1 11 2 17 5
13 3 -3 4 -12 1 -19z m-1247 8 c0 -3 -4 -8 -10 -11 -5 -3 -10 -1 -10 4 0 6 5
11 10 11 6 0 10 -2 10 -4z m1360 -11 c0 -8 -4 -15 -10 -15 -5 0 -10 7 -10 15
0 8 5 15 10 15 6 0 10 -7 10 -15z m500 -11 c0 -8 -5 -12 -10 -9 -6 4 -8 11 -5
16 9 14 15 11 15 -7z m550 -33 c0 -32 -43 -91 -56 -78 -4 4 -2 19 6 35 7 15
17 37 23 50 14 31 27 28 27 -7z m-3471 3 c10 -9 -14 -24 -39 -24 -31 0 -45 13
-35 31 6 9 62 4 74 -7z m1151 -16 l0 -32 -21 21 c-22 22 -19 43 7 43 9 0 14
-11 14 -32z m1141 -11 c-8 -8 -11 -5 -11 9 0 27 14 41 18 19 2 -9 -1 -22 -7
-28z m-844 11 c-3 -8 -6 -5 -6 6 -1 11 2 17 5 13 3 -3 4 -12 1 -19z m-377 6
c0 -3 -7 -12 -15 -20 -12 -13 -15 -13 -15 -1 0 7 3 17 7 20 8 8 23 9 23 1z
m1790 -4 c0 -5 -4 -10 -10 -10 -5 0 -10 5 -10 10 0 6 5 10 10 10 6 0 10 -4 10
-10z m50 -6 c0 -15 -22 -44 -31 -39 -11 7 7 45 21 45 6 0 10 -3 10 -6z m-3558
-26 c-7 -7 -12 -8 -12 -2 0 14 12 26 19 19 2 -3 -1 -11 -7 -17z m2094 -66
c-11 -10 -14 3 -7 38 l6 35 3 -33 c2 -19 1 -36 -2 -40z m1944 64 c0 -3 -4 -8
-10 -11 -5 -3 -10 -1 -10 4 0 6 5 11 10 11 6 0 10 -2 10 -4z m-3140 -32 c0 -8
-4 -12 -10 -9 -5 3 -10 13 -10 21 0 8 5 12 10 9 6 -3 10 -13 10 -21z m2033 -6
c-6 -36 -10 -44 -18 -36 -8 8 6 68 16 68 5 0 6 -15 2 -32z m547 13 c0 -12 -20
-25 -27 -18 -7 7 6 27 18 27 5 0 9 -4 9 -9z m-3610 -32 l35 -18 -40 0 c-41 0
-75 17 -75 38 0 14 28 7 80 -20z m4115 7 c-19 -29 -42 -39 -51 -24 -4 7 -3 13
3 15 6 2 19 10 29 18 29 22 36 18 19 -9z m-2175 -5 c0 -22 -16 -36 -24 -22 -8
12 3 41 15 41 5 0 9 -9 9 -19z m1720 -5 c0 -8 -4 -17 -9 -21 -12 -7 -24 12
-16 25 9 15 25 12 25 -4z m-2600 -38 c22 -47 25 -68 11 -68 -5 0 -12 18 -16
40 -4 22 -11 42 -16 46 -5 3 -9 9 -9 15 0 20 12 7 30 -33z m-890 22 c0 -5 -7
-10 -16 -10 -8 0 -12 5 -9 10 3 6 10 10 16 10 5 0 9 -4 9 -10z m227 -20 c6
-12 17 -26 24 -31 8 -4 10 -11 6 -15 -11 -11 -58 18 -67 41 -16 41 16 46 37 5z
m1849 -20 c21 0 17 -14 -11 -40 l-25 -23 0 25 c0 33 12 67 18 50 2 -7 10 -12
18 -12z m814 16 c0 -3 -4 -8 -10 -11 -5 -3 -10 -1 -10 4 0 6 5 11 10 11 6 0
10 -2 10 -4z m-1110 -42 c0 -16 -16 -19 -25 -4 -8 13 4 32 16 25 5 -4 9 -13 9
-21z m2184 -5 c-7 -11 -34 -12 -34 -1 0 14 11 21 26 15 8 -3 11 -9 8 -14z
m-4049 1 c-3 -5 -10 -10 -16 -10 -5 0 -9 5 -9 10 0 6 7 10 16 10 8 0 12 -4 9
-10z m879 -5 c-4 -8 -10 -12 -15 -9 -11 6 -2 24 11 24 5 0 7 -7 4 -15z m2096
11 c0 -3 -4 -8 -10 -11 -5 -3 -10 -1 -10 4 0 6 5 11 10 11 6 0 10 -2 10 -4z
m982 -8 c-9 -9 -15 -9 -24 0 -9 9 -7 12 12 12 19 0 21 -3 12 -12z m-3445 -44
c-9 -9 -28 6 -21 18 4 6 10 6 17 -1 6 -6 8 -13 4 -17z m1504 -7 c-16 -16 -26
0 -10 19 9 11 15 12 17 4 2 -6 -1 -17 -7 -23z m-1641 13 c0 -10 -68 -26 -76
-17 -4 3 -3 10 1 16 8 14 75 15 75 1z m590 -9 c-5 -11 -15 -23 -20 -26 -14 -9
-12 19 2 33 19 19 30 14 18 -7z m3010 9 c0 -5 -7 -10 -16 -10 -8 0 -12 5 -9
10 3 6 10 10 16 10 5 0 9 -4 9 -10z m-3070 -8 c0 -13 -12 -22 -22 -16 -10 6
-1 24 13 24 5 0 9 -4 9 -8z m1320 -2 c0 -5 -5 -10 -11 -10 -5 0 -7 5 -4 10 3
6 8 10 11 10 2 0 4 -4 4 -10z m-1995 -30 c24 -47 17 -57 -16 -23 -17 17 -28
36 -25 42 12 18 25 12 41 -19z m1648 0 c7 -26 -11 -37 -20 -13 -4 10 -11 21
-17 25 -6 5 -2 8 10 8 13 0 24 -8 27 -20z m-1476 -7 c4 -11 -32 -25 -41 -15
-8 8 15 33 27 29 6 -2 12 -8 14 -14z m3498 -23 c-40 -41 -55 -49 -55 -29 0 17
57 69 76 69 14 0 9 -10 -21 -40z m-3565 6 c17 -32 41 -41 56 -22 16 23 23 20
40 -19 19 -47 18 -52 -14 -58 -17 -4 -33 -16 -40 -31 -13 -30 -30 -34 -38 -8
-3 9 -17 42 -30 73 -13 31 -24 64 -24 73 0 25 35 19 50 -8z m602 -37 c12 -8 2
-29 -13 -29 -6 0 -7 4 -4 10 3 5 1 19 -5 31 -6 11 -8 28 -4 37 6 13 9 10 12
-13 2 -16 8 -33 14 -36z m96 28 c2 -12 -1 -15 -12 -11 -19 7 -22 38 -3 32 6
-3 13 -12 15 -21z m645 8 c-3 -9 -8 -14 -10 -11 -3 3 -2 9 2 15 9 16 15 13 8
-4z m275 -17 c-7 -19 -21 -12 -25 11 -3 20 -1 22 12 11 9 -7 14 -17 13 -22z
m994 0 c-7 -7 -12 -8 -12 -2 0 14 12 26 19 19 2 -3 -1 -11 -7 -17z m1018 2 c0
-5 -7 -10 -15 -10 -8 0 -15 5 -15 10 0 6 7 10 15 10 8 0 15 -4 15 -10z m-1876
-297 c3 -159 8 -349 11 -423 12 -337 16 -674 7 -660 -14 22 -59 330 -77 530
-17 190 -54 491 -82 662 l-17 108 28 29 c23 24 34 28 61 24 19 -3 35 0 39 6 4
6 11 11 15 11 5 0 11 -129 15 -287z m-1047 245 c-3 -7 -5 -2 -5 12 0 14 2 19
5 13 2 -7 2 -19 0 -25z m849 6 c-3 -9 -6 -20 -6 -25 0 -5 -9 -9 -20 -9 -23 0
-24 3 -8 30 15 24 43 27 34 4z m254 -14 c0 -16 -4 -30 -9 -30 -4 0 -8 13 -7
30 1 39 16 39 16 0z m1750 10 c-14 -10 -38 -29 -54 -41 -26 -21 -28 -21 -24
-3 2 10 14 24 26 30 13 6 29 17 35 23 6 6 18 11 27 11 10 -1 8 -6 -10 -20z
m-958 -12 c-7 -7 -12 -8 -12 -2 0 14 12 26 19 19 2 -3 -1 -11 -7 -17z m86 0
c-2 -6 -14 -12 -26 -13 -13 -1 -36 -12 -52 -24 -17 -12 -30 -17 -30 -12 0 15
71 61 93 61 10 0 17 -5 15 -12z m907 -8 c-3 -5 -11 -10 -16 -10 -6 0 -7 5 -4
10 3 6 11 10 16 10 6 0 7 -4 4 -10z m-3335 -15 c0 -8 -4 -15 -10 -15 -5 0 -10
7 -10 15 0 8 5 15 10 15 6 0 10 -7 10 -15z m360 -5 c0 -11 3 -20 8 -20 13 0
33 -59 30 -87 -3 -25 -5 -23 -21 22 -11 28 -23 58 -28 67 -12 23 -11 38 1 38
6 0 10 -9 10 -20z m310 -18 c0 -15 -2 -15 -10 -2 -13 20 -13 33 0 25 6 -3 10
-14 10 -23z m2606 -20 c-8 -10 -13 -27 -10 -37 4 -15 -10 -32 -53 -69 -69 -58
-78 -47 -33 42 23 46 40 65 68 79 40 19 54 12 28 -15z m-2806 20 c0 -14 -23
-32 -42 -32 -23 0 -23 16 0 29 21 13 42 14 42 3z m1340 -8 c0 -9 -5 -14 -12
-12 -18 6 -21 28 -4 28 9 0 16 -7 16 -16z m-2070 -61 c84 -173 183 -366 224
-438 25 -44 46 -87 46 -95 0 -9 14 -42 30 -73 17 -32 30 -64 30 -71 0 -7 9
-25 20 -39 22 -28 25 -37 10 -37 -5 0 -10 7 -10 15 0 19 -9 19 -32 -2 -22 -20
-23 -36 -3 -53 16 -14 21 -55 5 -45 -19 12 -44 80 -43 118 2 31 -2 40 -17 44
-22 6 -25 14 -11 29 5 5 12 24 16 42 5 26 3 32 -9 32 -18 0 -39 43 -38 74 1
10 -2 16 -5 12 -9 -9 -34 15 -27 26 3 5 1 15 -5 22 -6 7 -9 21 -5 30 4 11 1
16 -11 16 -9 0 -19 9 -22 20 -3 11 -9 20 -14 20 -5 0 -9 7 -9 15 0 9 -11 33
-25 55 -14 22 -25 44 -25 49 0 10 -65 120 -80 135 -6 6 -10 18 -10 28 0 9 -6
21 -14 25 -22 13 -40 81 -26 98 7 8 16 15 20 15 4 0 22 -30 40 -67z m85 36
c-6 -16 -9 -18 -16 -8 -4 8 -3 19 3 26 15 18 21 9 13 -18z m1325 21 c0 -5 -4
-10 -10 -10 -5 0 -10 5 -10 10 0 6 5 10 10 10 6 0 10 -4 10 -10z m-1185 -10
c3 -5 1 -10 -4 -10 -6 0 -11 5 -11 10 0 6 2 10 4 10 3 0 8 -4 11 -10z m2453
-12 c-2 -16 -10 -22 -30 -23 -34 -1 -34 2 -5 26 29 24 39 24 35 -3z m892 2 c0
-5 -4 -10 -10 -10 -5 0 -10 5 -10 10 0 6 5 10 10 10 6 0 10 -4 10 -10z m-504
-52 c-2 -30 -9 -44 -20 -46 -16 -4 -22 9 -9 22 4 3 8 14 9 22 8 55 25 57 20 2z
m-2536 29 c0 -2 -12 -14 -26 -28 l-26 -24 13 28 c7 15 18 27 26 27 7 0 13 -1
13 -3z m844 -3 c19 -7 21 -34 3 -34 -14 0 -37 20 -37 32 0 10 13 10 34 2z
m433 -71 c-2 -16 -4 -3 -4 27 0 30 2 43 4 28 2 -16 2 -40 0 -55z m-1061 58
c-8 -12 -46 -21 -46 -11 0 9 18 18 38 19 7 1 11 -3 8 -8z m1854 -10 c0 -5 -7
-11 -15 -15 -15 -5 -20 5 -8 17 9 10 23 9 23 -2z m-2460 -9 c0 -10 -22 -32
-32 -32 -5 0 -3 9 4 20 13 20 28 27 28 12z m44 -18 c8 -20 8 -24 -1 -24 -17 0
-35 19 -29 29 10 16 23 14 30 -5z m2482 5 c3 -6 1 -16 -5 -22 -9 -9 -14 -8
-21 2 -7 12 -14 9 -41 -13 -23 -20 -35 -24 -38 -15 -10 31 87 76 105 48z
m-1242 -36 c6 -30 15 -98 46 -323 11 -80 29 -199 39 -265 24 -146 45 -353 40
-380 -3 -11 -15 36 -28 105 -13 69 -38 190 -57 270 -18 80 -40 181 -48 225 -9
44 -27 141 -41 215 -15 74 -27 142 -28 150 -2 12 16 20 65 29 3 0 9 -11 12
-26z m-646 1 c-12 -12 -24 -14 -45 -9 l-28 8 30 7 c54 13 61 12 43 -6z m2747
7 c3 -5 1 -12 -5 -16 -5 -3 -10 1 -10 9 0 18 6 21 15 7z m-3217 -34 c-7 -14
-13 -17 -16 -9 -6 19 6 44 18 37 7 -4 6 -14 -2 -28z m380 6 c8 -18 9 -30 2
-37 -7 -7 -10 -3 -10 11 0 12 -4 25 -10 28 -12 7 -13 25 -2 25 4 0 13 -12 20
-27z m-515 -8 c-3 -13 -53 -20 -53 -7 0 15 13 23 35 20 11 -2 19 -7 18 -13z
m93 -76 c22 -41 68 -122 103 -181 34 -59 79 -145 100 -191 22 -45 80 -152 129
-238 49 -85 102 -178 116 -205 15 -27 37 -64 50 -81 13 -18 29 -57 36 -85 14
-59 103 -257 163 -360 21 -37 56 -113 78 -170 22 -57 47 -117 55 -135 19 -42
18 -60 -6 -68 -28 -9 -35 -3 -72 68 -49 90 -122 217 -191 332 -78 131 -94 159
-195 355 -47 91 -122 228 -167 305 -45 77 -109 194 -142 260 -33 66 -96 191
-141 278 l-81 157 39 0 c29 0 42 5 50 21 17 31 31 19 76 -62z m2311 49 c-19
-14 -27 -29 -27 -49 0 -16 -4 -29 -10 -29 -13 0 -13 12 0 45 11 28 51 67 60
58 3 -2 -7 -14 -23 -25z m853 -19 c-25 -21 -49 -39 -55 -39 -5 1 12 21 39 45
28 25 52 42 55 39 3 -3 -14 -24 -39 -45z m-3090 22 c0 -12 -20 -25 -27 -18 -7
7 6 27 18 27 5 0 9 -4 9 -9z m477 -8 c4 -12 -54 -29 -65 -18 -10 9 29 36 47
33 8 -2 16 -8 18 -15z m2258 -12 c-9 -16 -25 -3 -18 15 4 10 9 12 15 6 6 -6 7
-15 3 -21z m435 8 c0 -5 -7 -9 -15 -9 -15 0 -20 12 -9 23 8 8 24 -1 24 -14z
m-250 -13 c0 -8 -5 -18 -11 -22 -14 -8 -33 11 -25 25 10 16 36 13 36 -3z
m-2896 -27 c-12 -13 -20 -16 -22 -9 -3 7 2 16 9 21 25 16 32 9 13 -12z m1133
-1 c-3 -8 -6 -5 -6 6 -1 11 2 17 5 13 3 -3 4 -12 1 -19z m-647 -28 c9 -17 7
-22 -13 -29 -35 -14 -62 -7 -62 15 0 11 10 21 25 25 38 11 39 10 50 -11z
m2630 10 c0 -5 -4 -10 -10 -10 -5 0 -10 5 -10 10 0 6 5 10 10 10 6 0 10 -4 10
-10z m-1866 -120 c5 -52 4 -72 -3 -65 -6 6 -13 51 -16 100 -6 105 8 79 19 -35z
m201 101 c3 -5 1 -12 -5 -16 -5 -3 -10 1 -10 9 0 18 6 21 15 7z m1595 1 c0 -4
-18 -26 -40 -47 -47 -46 -55 -26 -8 22 31 32 48 41 48 25z m-360 -43 c0 -14
-30 -23 -40 -13 -4 5 -11 19 -14 31 -7 21 -6 22 23 7 17 -9 31 -20 31 -25z
m-1540 21 c0 -5 -4 -10 -10 -10 -5 0 -10 5 -10 10 0 6 5 10 10 10 6 0 10 -4
10 -10z m1113 -8 c-3 -13 -14 -19 -34 -19 -33 0 -38 11 -11 26 28 17 51 13 45
-7z m347 14 c0 -3 -4 -8 -10 -11 -5 -3 -10 -1 -10 4 0 6 5 11 10 11 6 0 10 -2
10 -4z m-2940 -32 c0 -8 -5 -12 -10 -9 -6 4 -8 11 -5 16 9 14 15 11 15 -7z
m2943 -29 c-3 -8 -14 -15 -24 -15 -23 0 -24 4 -3 24 18 19 36 12 27 -9z m427
7 c0 -4 -16 -23 -35 -42 -40 -39 -44 -50 -15 -43 22 6 53 -14 44 -29 -3 -5
-12 -4 -20 3 -12 10 -19 8 -37 -9 -14 -14 -17 -22 -8 -22 11 0 11 -3 1 -15 -7
-8 -9 -22 -6 -31 5 -13 2 -15 -13 -11 -20 5 -46 -14 -35 -26 3 -3 -3 -3 -14 0
-22 5 -20 22 9 80 11 21 19 44 19 53 1 28 26 60 61 79 40 22 49 24 49 13z
m-2573 -24 c-3 -8 -6 -5 -6 6 -1 11 2 17 5 13 3 -3 4 -12 1 -19z m680 -25 c-3
-10 -5 -4 -5 12 0 17 2 24 5 18 2 -7 2 -21 0 -30z m1520 12 c5 -16 -14 -38
-26 -31 -18 12 -13 48 6 44 9 -2 18 -7 20 -13z m393 -5 c0 -5 -4 -10 -10 -10
-5 0 -10 5 -10 10 0 6 5 10 10 10 6 0 10 -4 10 -10z m-2090 -30 c0 -5 -4 -10
-10 -10 -5 0 -10 5 -10 10 0 6 5 10 10 10 6 0 10 -4 10 -10z m1270 -36 c-9
-39 -17 -51 -26 -41 -4 4 -1 13 6 22 7 8 9 22 6 31 -7 18 1 37 14 29 4 -3 4
-21 0 -41z m340 37 c0 -12 -20 -25 -27 -18 -7 7 6 27 18 27 5 0 9 -4 9 -9z
m-2097 -16 c-3 -9 -8 -14 -10 -11 -3 3 -2 9 2 15 9 16 15 13 8 -4z m674 -22
c-3 -10 -5 -4 -5 12 0 17 2 24 5 18 2 -7 2 -21 0 -30z m306 10 c3 -16 3 -32
-1 -37 -6 -11 -20 20 -21 47 -1 28 16 20 22 -10z m1177 -23 c0 -11 -7 -20 -15
-20 -15 0 -21 21 -8 33 12 13 23 7 23 -13z m-2870 -24 c0 -17 -14 -29 -23 -20
-8 8 3 34 14 34 5 0 9 -6 9 -14z m1397 -33 c-3 -10 -5 -4 -5 12 0 17 2 24 5
18 2 -7 2 -21 0 -30z m1388 7 c-3 -5 -11 -10 -16 -10 -6 0 -7 5 -4 10 3 6 11
10 16 10 6 0 7 -4 4 -10z m-2038 -22 c-3 -8 -6 -5 -6 6 -1 11 2 17 5 13 3 -3
4 -12 1 -19z m413 12 c0 -5 -4 -10 -10 -10 -5 0 -10 5 -10 10 0 6 5 10 10 10
6 0 10 -4 10 -10z m521 -23 c-8 -8 -11 -7 -11 4 0 20 13 34 18 19 3 -7 -1 -17
-7 -23z m1169 23 c0 -5 -4 -10 -9 -10 -6 0 -13 5 -16 10 -3 6 1 10 9 10 9 0
16 -4 16 -10z m-400 -32 c0 -17 -3 -19 -9 -9 -5 7 -14 10 -20 7 -6 -4 -11 -3
-11 3 0 9 15 18 33 20 4 1 7 -9 7 -21z m-1667 -16 c-3 -12 -12 -22 -19 -22
-18 0 -18 9 3 32 20 22 24 19 16 -10z m384 -4 c-3 -8 -6 -5 -6 6 -1 11 2 17 5
13 3 -3 4 -12 1 -19z m1623 2 c0 -4 11 -5 25 -2 28 5 30 0 15 -28 -8 -16 -15
-18 -35 -10 -15 6 -27 6 -30 0 -4 -6 -12 -10 -18 -10 -7 0 -4 7 6 14 23 18 22
30 -3 23 -24 -6 -26 8 -3 21 17 10 43 5 43 -8z m-1103 -22 c-3 -7 -5 -2 -5 12
0 14 2 19 5 13 2 -7 2 -19 0 -25z m419 7 c-3 -9 -11 -13 -16 -10 -8 5 -7 11 1
21 14 18 24 11 15 -11z m1024 -2 c0 -10 -42 -53 -52 -53 -14 0 -9 19 12 40 20
20 40 26 40 13z m-2329 -46 c-13 -13 -26 -3 -16 12 3 6 11 8 17 5 6 -4 6 -10
-1 -17z m1653 8 c-4 -8 -8 -15 -10 -15 -2 0 -4 7 -4 15 0 8 4 15 10 15 5 0 7
-7 4 -15z m-2384 -10 c-7 -9 -15 -13 -17 -11 -7 7 7 26 19 26 6 0 6 -6 -2 -15z
m3070 7 c0 -5 -9 -17 -20 -27 -22 -20 -26 -14 -10 16 11 19 30 26 30 11z
m-1030 -32 c0 -5 -5 -10 -11 -10 -5 0 -7 5 -4 10 3 6 8 10 11 10 2 0 4 -4 4
-10z m292 -22 c-6 -6 -14 -9 -17 -6 -3 3 -3 13 1 22 5 12 10 14 17 7 8 -8 8
-14 -1 -23z m408 22 c0 -5 -4 -10 -10 -10 -5 0 -10 5 -10 10 0 6 5 10 10 10 6
0 10 -4 10 -10z m270 -11 c0 -6 -5 -19 -10 -30 -13 -23 2 -26 20 -4 18 22 40
18 40 -6 0 -16 -4 -19 -20 -14 -13 4 -22 1 -26 -9 -7 -18 -22 -20 -42 -7 -11
7 -11 15 2 45 14 34 36 49 36 25z m-2260 -14 c0 -8 -4 -15 -10 -15 -5 0 -7 7
-4 15 4 8 8 15 10 15 2 0 4 -7 4 -15z m970 -1 c0 -9 -7 -14 -17 -12 -25 5 -28
28 -4 28 12 0 21 -6 21 -16z m937 -8 c-3 -7 0 -19 6 -26 9 -10 7 -11 -10 -5
-31 9 -48 -2 -31 -22 10 -12 9 -17 -4 -24 -9 -5 -22 -25 -28 -44 -6 -19 -16
-35 -22 -35 -6 0 -7 8 -3 18 4 9 14 42 23 72 8 30 20 61 25 68 13 17 51 16 44
-2z m-367 -6 c0 -5 -5 -10 -11 -10 -5 0 -7 5 -4 10 3 6 8 10 11 10 2 0 4 -4 4
-10z m430 -31 c0 -5 -4 -9 -10 -9 -5 0 -10 7 -10 16 0 8 5 12 10 9 6 -3 10
-10 10 -16z m471 -12 c-10 -9 -11 -8 -5 6 3 10 9 15 12 12 3 -3 0 -11 -7 -18z
m-2427 -19 c-4 -15 0 -26 14 -37 18 -15 39 -71 26 -71 -23 0 -70 99 -60 126 9
23 28 6 20 -18z m1296 24 c0 -13 -12 -22 -22 -16 -10 6 -1 24 13 24 5 0 9 -4
9 -8z m270 4 c0 -3 -4 -8 -10 -11 -5 -3 -10 -1 -10 4 0 6 5 11 10 11 6 0 10
-2 10 -4z m-610 -16 c0 -5 -4 -10 -10 -10 -5 0 -10 5 -10 10 0 6 5 10 10 10 6
0 10 -4 10 -10z m570 -5 c0 -8 -4 -15 -10 -15 -5 0 -10 7 -10 15 0 8 5 15 10
15 6 0 10 -7 10 -15z m734 -11 c22 -9 10 -23 -14 -17 -11 3 -17 9 -14 14 6 11
8 11 28 3z m-970 -25 c-3 -5 -10 -7 -15 -3 -5 3 -7 10 -3 15 3 5 10 7 15 3 5
-3 7 -10 3 -15z m-1564 7 c0 -3 -4 -8 -10 -11 -5 -3 -10 -1 -10 4 0 6 5 11 10
11 6 0 10 -2 10 -4z m2210 -6 c0 -5 -7 -10 -16 -10 -8 0 -12 5 -9 10 3 6 10
10 16 10 5 0 9 -4 9 -10z m578 -17 c5 -18 -23 -16 -39 3 -11 14 -10 15 11 12
13 -1 25 -9 28 -15z m-313 -13 c-10 -11 -22 -20 -27 -20 -5 0 -4 9 2 20 6 11
18 20 27 20 14 0 14 -2 -2 -20z m-975 -10 c0 -5 -5 -10 -11 -10 -5 0 -7 5 -4
10 3 6 8 10 11 10 2 0 4 -4 4 -10z m-1505 -20 c-15 -17 -16 -22 -4 -36 12 -15
12 -17 -1 -12 -20 6 -26 48 -8 59 24 16 31 9 13 -11z m1565 5 c0 -9 -9 -15
-21 -15 -18 0 -19 2 -9 15 7 8 16 15 21 15 5 0 9 -7 9 -15z m622 -17 c-15 -15
-26 -4 -18 18 5 13 9 15 18 6 9 -9 9 -15 0 -24z m-2410 -88 c21 -40 37 -78 34
-84 -2 -6 -8 1 -14 16 -6 14 -16 29 -21 33 -6 3 -11 14 -11 25 0 10 -11 28
-25 41 -25 25 -34 54 -13 47 6 -2 29 -37 50 -78z m1468 59 c0 -5 -4 -9 -10 -9
-5 0 -10 7 -10 16 0 8 5 12 10 9 6 -3 10 -10 10 -16z m550 11 c0 -5 -4 -10
-10 -10 -5 0 -10 5 -10 10 0 6 5 10 10 10 6 0 10 -4 10 -10z m-1454 -27 c-10
-10 -19 5 -10 18 6 11 8 11 12 0 2 -7 1 -15 -2 -18z m394 -3 c0 -5 -5 -10 -11
-10 -5 0 -7 5 -4 10 3 6 8 10 11 10 2 0 4 -4 4 -10z m1430 -10 c0 -5 -4 -10
-10 -10 -5 0 -10 5 -10 10 0 6 5 10 10 10 6 0 10 -4 10 -10z m-382 -12 c-3 -7
-13 -15 -24 -17 -16 -3 -17 -1 -5 13 16 19 34 21 29 4z m62 -8 c0 -12 -7 -20
-17 -20 -9 0 -24 -7 -34 -16 -10 -9 -19 -11 -23 -5 -4 5 10 21 31 35 45 31 43
31 43 6z m630 10 c0 -5 -4 -10 -10 -10 -5 0 -10 5 -10 10 0 6 5 10 10 10 6 0
10 -4 10 -10z m-334 -57 c-10 -10 -19 5 -10 18 6 11 8 11 12 0 2 -7 1 -15 -2
-18z m-306 -12 c0 -10 -42 -23 -49 -15 -7 6 20 24 37 24 6 0 12 -4 12 -9z
m-855 -10 c3 -6 -4 -15 -15 -21 -26 -14 -26 -26 1 -33 26 -7 22 -42 -6 -42
-15 0 -20 8 -22 40 -3 49 24 85 42 56z m1374 -23 c-8 -14 -14 -18 -17 -10 -4
13 17 46 25 38 3 -2 -1 -15 -8 -28z m-814 12 c3 -5 1 -10 -4 -10 -6 0 -11 5
-11 10 0 6 2 10 4 10 3 0 8 -4 11 -10z m220 -10 c3 -5 1 -10 -4 -10 -6 0 -11
5 -11 10 0 6 2 10 4 10 3 0 8 -4 11 -10z m365 -4 c0 -3 -4 -8 -10 -11 -5 -3
-10 -1 -10 4 0 6 5 11 10 11 6 0 10 -2 10 -4z m-1213 -48 c-3 -8 -6 -5 -6 6
-1 11 2 17 5 13 3 -3 4 -12 1 -19z m833 -18 c0 -5 -4 -10 -10 -10 -5 0 -10 5
-10 10 0 6 5 10 10 10 6 0 10 -4 10 -10z m-1846 -81 c13 -25 44 -81 70 -126
25 -44 46 -84 46 -89 0 -5 16 -33 35 -63 19 -29 35 -56 35 -59 0 -4 10 -19 23
-32 12 -14 33 -48 47 -75 14 -27 31 -56 38 -63 7 -8 26 -43 42 -79 22 -47 27
-70 20 -82 -9 -15 -9 -15 -10 1 0 9 -7 21 -17 26 -9 6 -14 16 -10 25 8 21 -12
34 -24 16 -6 -10 -9 -8 -9 10 0 16 -4 21 -15 18 -17 -7 -32 12 -18 22 15 9 26
51 14 51 -5 0 -13 9 -16 21 -11 35 -104 168 -125 179 -11 6 -20 21 -20 33 0
12 -7 32 -15 43 -8 12 -16 33 -19 47 -5 29 -43 104 -64 125 -13 14 -62 117
-62 130 1 12 30 -30 54 -79z m1023 29 c-2 -13 -4 -5 -4 17 -1 22 1 32 4 23 2
-10 2 -28 0 -40z m883 32 c0 -5 -4 -10 -10 -10 -5 0 -10 5 -10 10 0 6 5 10 10
10 6 0 10 -4 10 -10z m-1031 -61 c-12 -21 -14 -22 -17 -6 -6 28 6 53 19 40 8
-8 7 -18 -2 -34z m1513 4 c-5 -15 -13 -36 -16 -46 -3 -10 -10 -16 -16 -12 -5
3 -1 24 12 50 23 48 37 53 20 8z m-1292 17 c0 -12 -28 -25 -36 -17 -9 9 6 27
22 27 8 0 14 -5 14 -10z m726 -16 c-3 -8 -1 -14 4 -14 5 0 13 -18 16 -40 4
-24 12 -40 20 -40 16 0 19 -16 4 -25 -6 -4 -8 -15 -5 -26 7 -20 -2 -59 -13
-59 -4 0 -8 12 -9 28 -3 46 -8 77 -13 82 -35 35 -42 135 -8 114 5 -3 7 -12 4
-20z m74 0 c0 -9 -5 -14 -12 -12 -18 6 -21 28 -4 28 9 0 16 -7 16 -16z m230
12 c0 -3 -4 -8 -10 -11 -5 -3 -10 -1 -10 4 0 6 5 11 10 11 6 0 10 -2 10 -4z
m-1570 -56 c0 -5 -4 -10 -10 -10 -5 0 -10 5 -10 10 0 6 5 10 10 10 6 0 10 -4
10 -10z m340 1 c0 -5 -7 -14 -15 -21 -12 -10 -15 -10 -15 2 0 8 3 18 7 21 9
10 23 9 23 -2z m990 -11 c0 -5 -4 -10 -10 -10 -5 0 -10 5 -10 10 0 6 5 10 10
10 6 0 10 -4 10 -10z m-633 -22 c-3 -8 -6 -5 -6 6 -1 11 2 17 5 13 3 -3 4 -12
1 -19z m-167 2 c0 -5 -5 -10 -11 -10 -5 0 -7 5 -4 10 3 6 8 10 11 10 2 0 4 -4
4 -10z m-506 -25 c-4 -8 -10 -12 -15 -9 -11 6 -2 24 11 24 5 0 7 -7 4 -15z
m322 -20 c-3 -9 -11 -13 -16 -10 -8 5 -7 11 1 21 14 18 24 11 15 -11z m1444
10 c0 -8 -4 -15 -10 -15 -5 0 -10 7 -10 15 0 8 5 15 10 15 6 0 10 -7 10 -15z
m-1085 -45 c1 -10 -2 -17 -7 -14 -4 3 -8 15 -8 26 0 26 13 15 15 -12z m-664
-27 c-9 -17 -10 -17 -16 0 -4 9 -4 25 0 35 6 16 7 16 16 0 7 -12 7 -24 0 -35z
m475 27 c8 0 14 5 14 10 0 6 5 10 10 10 6 0 10 -7 10 -15 0 -9 -10 -15 -26
-15 -31 0 -28 -20 4 -35 31 -14 27 -27 -5 -23 -26 3 -28 7 -30 48 -1 25 0 39
3 33 3 -7 12 -13 20 -13z m465 -73 c-13 -13 -15 14 -3 64 l7 34 3 -44 c2 -24
-2 -49 -7 -54z m-621 52 c0 -5 -4 -9 -10 -9 -5 0 -10 7 -10 16 0 8 5 12 10 9
6 -3 10 -10 10 -16z m1392 -1 c-7 -7 -12 -8 -12 -2 0 14 12 26 19 19 2 -3 -1
-11 -7 -17z m-1346 -15 c-10 -10 -19 5 -10 18 6 11 8 11 12 0 2 -7 1 -15 -2
-18z m-345 -36 c-1 -12 -15 -9 -19 4 -3 6 1 10 8 8 6 -3 11 -8 11 -12z m1739
9 c0 -3 -4 -8 -10 -11 -5 -3 -10 -1 -10 4 0 6 5 11 10 11 6 0 10 -2 10 -4z
m-760 -10 c0 -11 -19 -15 -25 -6 -3 5 1 10 9 10 9 0 16 -2 16 -4z m-610 -14
c0 -13 -12 -22 -22 -16 -10 6 -1 24 13 24 5 0 9 -4 9 -8z m864 0 c2 -4 0 -27
-6 -52 -5 -25 -11 -56 -12 -70 -2 -14 -4 -29 -5 -35 -1 -5 -6 -3 -11 5 -5 8
-7 25 -3 38 4 16 -2 31 -18 49 l-24 26 33 -6 c30 -6 46 7 20 15 -6 2 -9 12 -5
21 7 18 22 23 31 9z m-451 -22 c100 -25 106 -29 157 -95 24 -31 55 -64 70 -75
15 -11 40 -47 56 -82 35 -76 36 -132 4 -236 -25 -83 -51 -109 -91 -93 -13 5
-33 12 -43 16 -19 5 -19 6 2 21 29 20 29 88 1 155 -23 52 -30 57 -48 35 -9
-11 -10 -20 -1 -36 9 -16 8 -25 -1 -36 -17 -20 -22 -18 -38 16 -14 33 -75 70
-113 70 -13 0 -39 -9 -58 -19 -19 -11 -45 -25 -56 -31 -18 -10 -25 -9 -44 10
-20 20 -23 20 -45 6 -32 -21 -57 -20 -53 1 5 27 -26 27 -58 0 -21 -18 -46 -26
-91 -30 -35 -3 -65 -2 -68 3 -3 4 16 25 41 45 34 28 44 43 40 58 -3 12 3 31
15 45 10 14 19 29 19 35 0 6 23 45 51 88 65 99 111 132 193 140 34 3 66 7 72
7 6 1 45 -7 87 -18z m-313 0 c0 -5 -7 -10 -16 -10 -8 0 -12 5 -9 10 3 6 10 10
16 10 5 0 9 -4 9 -10z m-1000 -19 c0 -6 -4 -13 -10 -16 -5 -3 -10 1 -10 9 0 9
5 16 10 16 6 0 10 -4 10 -9z m850 -21 c0 -5 -2 -10 -4 -10 -3 0 -8 5 -11 10
-3 6 -1 10 4 10 6 0 11 -4 11 -10z m74 -9 c9 -14 -19 -32 -38 -25 -13 5 -14 9
-5 20 13 16 35 18 43 5z m1328 -13 c-7 -7 -12 -8 -12 -2 0 14 12 26 19 19 2
-3 -1 -11 -7 -17z m-588 -31 c-8 -4 -14 -18 -14 -29 0 -12 -2 -19 -5 -16 -3 3
-3 24 1 47 6 37 8 39 20 24 10 -15 10 -19 -2 -26z m-1629 13 c3 -5 2 -10 -4
-10 -5 0 -13 5 -16 10 -3 6 -2 10 4 10 5 0 13 -4 16 -10z m2151 -38 c-20 -20
-22 -1 -3 28 10 18 12 18 15 4 2 -9 -3 -24 -12 -32z m-1266 -1 c0 -5 -7 -11
-15 -15 -15 -5 -20 5 -8 17 9 10 23 9 23 -2z m990 -11 c0 -5 -4 -10 -10 -10
-5 0 -10 -11 -10 -24 0 -13 -6 -26 -12 -29 -7 -2 -22 -32 -32 -66 -11 -33 -21
-59 -24 -56 -6 6 18 97 29 110 5 5 9 16 9 25 0 8 7 26 16 38 16 23 34 29 34
12z m302 -12 c-7 -7 -12 -8 -12 -2 0 14 12 26 19 19 2 -3 -1 -11 -7 -17z
m-559 -50 c21 -11 21 -11 2 -18 -24 -9 -35 -4 -35 16 0 17 5 17 33 2z m157
-12 c0 -3 -4 -8 -10 -11 -5 -3 -10 -1 -10 4 0 6 5 11 10 11 6 0 10 -2 10 -4z
m-145 -46 c3 -5 1 -10 -4 -10 -6 0 -11 5 -11 10 0 6 2 10 4 10 3 0 8 -4 11
-10z m55 -10 c0 -11 -4 -20 -10 -20 -5 0 -10 9 -10 20 0 11 5 20 10 20 6 0 10
-9 10 -20z m-1560 -6 c0 -2 -7 -4 -15 -4 -8 0 -15 4 -15 10 0 5 7 7 15 4 8 -4
15 -8 15 -10z m1910 -4 c0 -5 -5 -10 -11 -10 -5 0 -7 5 -4 10 3 6 8 10 11 10
2 0 4 -4 4 -10z m-1380 -10 c-8 -5 -19 -10 -25 -10 -5 0 -3 5 5 10 8 5 20 10
25 10 6 0 3 -5 -5 -10z m1016 -37 c-10 -10 -19 5 -10 18 6 11 8 11 12 0 2 -7
1 -15 -2 -18z m-956 -12 c0 -25 -42 -71 -64 -71 -9 0 -16 7 -16 15 0 14 11 19
36 16 16 -2 26 27 12 35 -7 4 -6 9 3 15 22 13 29 11 29 -10z m1194 -85 c-16
-36 -34 -66 -41 -66 -18 0 -26 41 -15 81 7 29 13 34 35 32 27 -2 38 19 17 32
-5 3 -10 11 -10 18 0 6 10 2 21 -10 l22 -21 -29 -66z m116 88 c0 -8 -4 -12
-10 -9 -5 3 -10 10 -10 16 0 5 5 9 10 9 6 0 10 -7 10 -16z m-30 -34 c0 -10 -4
-20 -33 -78 -9 -19 -17 -43 -17 -54 0 -10 -7 -26 -15 -34 -8 -9 -15 -28 -15
-43 0 -16 -7 -34 -15 -41 -9 -7 -13 -20 -10 -28 3 -8 0 -20 -6 -28 -7 -9 -7
-19 1 -35 11 -20 10 -21 -13 -15 -22 5 -26 3 -29 -21 -3 -31 -31 -39 -36 -11
-2 9 13 49 32 90 20 40 36 78 36 85 0 6 15 37 33 70 18 32 42 79 53 105 17 44
34 62 34 38z m-233 -48 c-14 -18 -19 -9 -11 24 6 25 8 26 14 9 4 -11 3 -26 -3
-33z m-97 22 c0 -14 -3 -14 -15 -4 -8 7 -15 14 -15 16 0 2 7 4 15 4 8 0 15 -7
15 -16z m-498 -43 c-17 -17 -32 -34 -32 -40 0 -16 -32 -21 -65 -12 -16 5 -22
10 -12 10 10 1 30 9 45 20 86 58 115 68 64 22z m-902 9 c0 -5 -4 -10 -10 -10
-5 0 -10 5 -10 10 0 6 5 10 10 10 6 0 10 -4 10 -10z m440 -15 c-7 -8 -22 -15
-34 -15 -21 1 -21 1 -2 15 27 21 53 20 36 0z m284 -3 c5 -3 1 -9 -10 -14 -14
-6 -12 -7 9 -3 51 10 27 -13 -30 -30 -82 -24 -128 -31 -119 -17 3 5 0 12 -6
15 -18 6 7 35 46 52 29 13 87 11 110 -3z m752 -19 c-10 -10 -19 5 -10 18 6 11
8 11 12 0 2 -7 1 -15 -2 -18z m55 -32 c-7 -11 -19 -21 -28 -21 -13 0 -13 3 -3
15 10 11 10 18 1 29 -16 19 9 29 27 11 11 -10 11 -17 3 -34z m-424 -43 c-2
-13 -4 -3 -4 22 0 25 2 35 4 23 2 -13 2 -33 0 -45z m-1144 21 c29 1 58 8 65
13 8 8 12 6 12 -5 0 -19 -12 -23 -83 -32 -55 -7 -57 -6 -67 20 -14 37 -12 44
6 20 12 -16 24 -19 67 -16z m1503 -33 c9 -3 20 -4 24 -1 12 7 23 -12 15 -25
-5 -8 -11 -8 -20 0 -17 14 -42 3 -48 -21 -3 -10 -10 -19 -17 -19 -13 0 -5 51
13 85 10 17 12 18 15 3 2 -9 10 -19 18 -22z m-1222 -2 c6 -15 20 -16 117 -9
110 7 111 7 100 -14 -9 -15 -18 -19 -39 -15 -32 6 -124 -26 -130 -45 -4 -11 1
-12 19 -7 49 16 79 18 79 7 0 -6 5 -11 11 -11 16 0 80 31 108 52 31 23 51 23
51 -1 0 -25 -20 -38 -31 -20 -7 11 -13 9 -28 -10 -12 -15 -24 -22 -34 -18 -23
9 -64 -50 -48 -66 10 -9 15 -8 25 6 17 22 26 22 26 -3 0 -31 27 -24 39 10 11
32 22 41 15 13 -6 -27 12 -51 27 -36 10 10 15 9 25 -5 11 -15 14 -13 28 21 9
20 21 37 27 37 6 0 8 -7 5 -15 -3 -8 -9 -22 -12 -30 -9 -22 24 -31 40 -10 21
30 33 -3 39 -110 4 -55 9 -111 12 -125 5 -18 0 -33 -15 -50 l-21 -25 4 108 c3
59 1 107 -4 107 -32 0 -45 -149 -19 -225 10 -30 17 -64 15 -77 -4 -21 -23
-149 -26 -173 0 -5 -5 6 -9 25 -5 21 -5 52 2 78 7 30 7 55 -1 86 -6 25 -11 75
-11 111 0 86 -23 86 -30 -1 -5 -55 4 -101 24 -133 5 -8 4 -16 -5 -22 -25 -16
-39 21 -39 103 0 98 -17 103 -22 6 -2 -51 4 -98 21 -169 21 -80 23 -102 13
-121 -7 -13 -11 -43 -9 -68 1 -34 -2 -45 -13 -45 -17 0 -69 125 -70 167 0 37
-10 58 -26 58 -8 0 -17 7 -20 15 -6 14 -8 13 -20 -2 -13 -17 -13 -17 -14 0 0
9 -4 17 -9 17 -14 0 -24 -75 -16 -130 5 -34 3 -50 -4 -50 -6 0 -11 -9 -11 -21
0 -15 -4 -19 -19 -14 -35 11 -34 -16 1 -53 20 -21 38 -45 41 -54 11 -31 -19
-20 -54 20 -49 57 -109 83 -109 47 0 -8 4 -15 10 -15 5 0 31 -22 58 -49 26
-26 54 -50 62 -53 12 -4 12 -9 1 -37 -15 -35 -34 -37 -39 -3 -4 27 -88 86
-111 77 -13 -5 -8 -13 22 -37 21 -17 44 -46 52 -65 8 -19 24 -37 35 -40 23 -6
25 -14 8 -31 -9 -9 -19 -3 -45 25 -25 27 -37 33 -45 25 -8 -8 -4 -20 16 -47
15 -19 24 -35 21 -35 -30 0 -115 76 -115 103 0 13 -47 59 -133 131 -40 34 -62
45 -69 38 -15 -15 -2 -31 83 -105 42 -36 79 -75 82 -87 5 -20 5 -20 -20 -1
-13 11 -33 31 -45 46 -11 14 -45 43 -76 65 -32 22 -75 55 -98 75 -41 35 -144
80 -222 96 -23 4 -51 13 -61 19 -28 14 -107 12 -171 -5 -30 -8 -55 -13 -56
-12 -1 1 16 31 37 67 22 36 42 76 45 90 3 14 20 61 37 105 26 67 44 93 107
160 42 44 98 112 125 150 102 145 147 179 280 215 44 12 91 25 105 30 46 15
117 12 124 -6z m516 8 c0 -14 -11 -21 -26 -15 -21 8 -17 23 6 23 11 0 20 -4
20 -8z m245 -18 c22 -7 47 -14 56 -14 8 0 24 -7 35 -15 18 -14 16 -14 -16 -8
-19 3 -39 9 -45 13 -14 10 -80 21 -155 24 -34 2 -67 9 -73 16 -16 17 141 4
198 -16z m-365 -9 c-12 -15 -30 -12 -30 6 0 5 10 9 21 9 18 0 19 -2 9 -15z
m725 -25 c3 -5 1 -10 -4 -10 -6 0 -11 5 -11 10 0 6 2 10 4 10 3 0 8 -4 11 -10z
m375 -75 c-11 -14 -40 -21 -40 -10 0 2 8 24 17 47 l17 43 9 -32 c7 -23 6 -37
-3 -48z m-880 14 c0 -5 -4 -9 -10 -9 -5 0 -10 7 -10 16 0 8 5 12 10 9 6 -3 10
-10 10 -16z m435 0 c4 -6 5 -12 2 -15 -7 -7 -37 7 -37 17 0 13 27 11 35 -2z
m370 -9 c3 -5 1 -10 -4 -10 -6 0 -11 5 -11 10 0 6 2 10 4 10 3 0 8 -4 11 -10z
m-214 -43 c-14 -14 -44 2 -49 26 -3 15 -1 15 28 0 23 -11 29 -18 21 -26z
m-376 13 c3 -5 2 -10 -4 -10 -5 0 -13 5 -16 10 -3 6 -2 10 4 10 5 0 13 -4 16
-10z m-98 -26 c-9 -9 -28 6 -21 18 4 6 10 6 17 -1 6 -6 8 -13 4 -17z m-172
-16 c-3 -7 -1 -26 3 -43 l9 -30 17 33 c12 24 22 31 35 27 10 -3 24 1 31 10 13
15 40 21 40 8 -1 -5 -18 -20 -40 -35 -34 -24 -77 -73 -133 -153 -10 -14 -22
-23 -28 -20 -12 8 -12 192 0 200 6 3 13 -16 16 -42 9 -67 15 -84 26 -78 5 4 9
35 9 71 0 35 4 64 10 64 5 0 7 -6 5 -12z m436 -16 c60 6 162 -21 167 -45 2 -8
15 -18 29 -22 22 -5 24 -10 19 -38 -18 -87 -18 -97 -3 -97 8 0 29 25 46 55 17
30 35 55 40 55 5 0 19 -8 30 -18 l22 -17 -26 -57 c-14 -32 -29 -73 -32 -93 -9
-53 20 -46 47 13 47 101 58 117 87 120 23 3 26 1 16 -9 -15 -15 -17 -95 -3
-104 15 -9 60 25 60 47 0 11 -5 28 -10 38 -6 10 -6 21 -2 24 13 8 28 -7 30
-29 3 -49 15 -85 28 -85 16 0 18 33 4 60 -7 14 -7 25 2 39 9 15 9 23 -1 35 -8
9 -19 16 -25 16 -17 0 -42 43 -27 48 6 2 11 11 11 19 0 11 -7 14 -25 11 -36
-7 -31 9 6 17 27 6 35 3 59 -26 16 -19 31 -44 34 -56 3 -11 24 -52 46 -91 40
-70 50 -121 30 -152 -9 -13 -13 -11 -29 10 -11 14 -23 22 -27 18 -4 -4 5 -23
19 -41 29 -39 45 -87 28 -87 -6 0 -17 12 -25 28 -17 33 -54 68 -63 59 -3 -4 3
-17 14 -30 32 -34 58 -90 44 -95 -6 -2 -11 -14 -11 -26 0 -21 -17 -46 -31 -46
-4 0 -10 21 -14 46 -8 58 -29 53 -33 -8 -2 -26 -10 -52 -18 -59 -14 -11 -15
-8 -9 27 4 21 8 43 9 48 0 6 -7 12 -16 14 -12 2 -18 -3 -18 -14 0 -16 -1 -16
-20 1 -23 21 -25 17 -34 -60 -6 -49 -20 -75 -32 -62 -4 4 -2 18 4 32 7 14 12
40 12 56 0 43 -23 32 -31 -14 -8 -53 -23 -61 -16 -10 6 51 -3 60 -30 30 -39
-43 -33 -105 9 -91 15 4 19 2 16 -7 -3 -10 -34 -15 -114 -19 -60 -3 -113 -2
-119 2 -5 5 -17 8 -27 8 -26 0 -89 31 -120 59 -27 24 -28 24 -99 11 -68 -13
-75 -13 -138 9 -83 30 -171 93 -171 124 0 29 -15 51 -29 43 -18 -12 -13 -45
15 -93 l27 -45 -29 -23 c-33 -26 -31 -32 22 -50 l38 -13 -33 -16 c-30 -16 -35
-16 -57 -1 -25 16 -29 45 -24 170 3 83 48 265 50 198 1 -58 43 -22 45 38 1 30
11 52 40 90 54 69 110 106 202 133 69 20 80 21 95 8 12 -10 33 -13 69 -10z
m-331 -582 c0 -5 -4 -10 -10 -10 -5 0 -10 5 -10 10 0 6 5 10 10 10 6 0 10 -4
10 -10z m-260 -29 c0 -12 -20 -25 -27 -18 -7 7 6 27 18 27 5 0 9 -4 9 -9z
m358 -42 c3 -36 1 -42 -10 -31 -15 15 -19 84 -4 79 6 -2 12 -23 14 -48z
m-1352 8 c28 -8 72 -24 97 -36 25 -12 52 -21 59 -21 7 0 40 -23 73 -52 33 -28
73 -59 89 -69 48 -29 136 -120 163 -169 14 -25 37 -62 50 -83 14 -22 22 -41
19 -45 -10 -9 -46 30 -46 51 0 15 -5 18 -21 14 -17 -5 -20 -2 -16 15 8 29 -40
95 -80 110 -17 6 -32 14 -31 17 2 21 -4 31 -18 31 -9 0 -18 9 -21 20 -3 11 -9
20 -13 20 -5 0 -40 26 -78 58 -38 32 -83 63 -98 69 -16 5 -51 18 -79 28 -27
10 -93 21 -145 25 -52 5 -104 9 -115 10 -13 1 -7 7 20 16 45 15 116 12 191 -9z
m1237 -49 c3 -24 2 -47 -2 -51 -10 -10 -44 40 -36 52 3 5 0 11 -7 13 -17 6 0
28 21 28 14 0 20 -10 24 -42z m401 27 c15 -11 16 -15 5 -15 -16 0 -45 -36 -69
-85 -8 -16 -20 -38 -28 -47 -8 -9 -11 -21 -8 -26 3 -5 -6 -21 -21 -36 -23 -23
-25 -30 -15 -51 10 -21 9 -25 -3 -25 -8 0 -15 -7 -15 -17 0 -9 -11 -39 -24
-67 -13 -28 -26 -59 -30 -68 -4 -15 -36 -27 -36 -15 0 14 46 130 88 222 27 61
57 135 67 165 27 83 46 97 89 65z m-877 -17 c-3 -8 -6 -5 -6 6 -1 11 2 17 5
13 3 -3 4 -12 1 -19z m313 -3 c0 -3 -9 -5 -20 -5 -11 0 -20 7 -20 15 0 13 4
14 20 5 11 -6 20 -13 20 -15z m420 -15 c0 -11 -4 -20 -10 -20 -5 0 -10 9 -10
20 0 11 5 20 10 20 6 0 10 -9 10 -20z m-539 -23 c-13 -13 -26 -3 -16 12 3 6
11 8 17 5 6 -4 6 -10 -1 -17z m268 -134 c34 -70 81 -166 104 -213 23 -46 62
-114 85 -150 69 -103 68 -97 30 -132 -18 -18 -38 -31 -45 -30 -6 1 -14 -2 -18
-8 -3 -5 -11 -10 -17 -10 -6 0 -3 9 6 19 10 11 24 17 32 14 17 -6 19 18 2 35
-9 9 -9 15 0 24 7 7 12 17 12 22 0 6 -10 0 -21 -14 l-21 -25 6 41 c5 36 2 45
-23 71 -16 17 -32 44 -36 61 -3 17 -13 33 -21 36 -10 4 -13 13 -8 31 8 31 -13
41 -55 27 -24 -9 -29 -8 -25 3 3 8 11 12 18 9 7 -3 18 7 25 22 14 32 -2 58
-30 49 -22 -7 -25 5 -6 24 10 10 8 15 -8 27 -11 8 -20 24 -20 36 0 11 -9 26
-20 32 -11 6 -22 12 -24 13 -2 2 2 10 10 19 11 14 11 18 -2 28 -9 6 -14 17
-11 24 6 19 -19 44 -37 37 -11 -4 -10 -1 4 15 16 18 20 18 34 6 9 -8 45 -73
80 -143z m-1529 129 c0 -26 -35 -45 -50 -27 -9 11 -17 12 -32 4 -23 -12 -33
-6 -25 15 4 9 23 16 49 19 24 2 46 4 51 5 4 1 7 -6 7 -16z m257 12 c-3 -3 -12
-4 -19 -1 -8 3 -5 6 6 6 11 1 17 -2 13 -5z m47 -3 c3 -5 25 -12 48 -15 45 -7
148 -70 156 -95 3 -8 -9 -4 -29 11 -19 14 -40 23 -46 21 -7 -3 -13 3 -13 12 0
11 -6 15 -18 11 -10 -4 -27 1 -38 9 -10 8 -27 15 -36 15 -10 0 -18 5 -18 10 0
6 -5 9 -11 8 -6 -2 -14 3 -16 10 -5 14 13 17 21 3z m1356 -12 c0 -5 -4 -9 -10
-9 -5 0 -10 7 -10 16 0 8 5 12 10 9 6 -3 10 -10 10 -16z m-1500 -11 c11 -7 8
-8 -10 -4 -14 3 -38 -1 -54 -9 -16 -8 -32 -15 -37 -15 -11 0 -12 34 -2 44 9 9
82 -3 103 -16z m1030 -14 c0 -8 -4 -14 -10 -14 -5 0 -10 9 -10 21 0 11 5 17
10 14 6 -3 10 -13 10 -21z m114 -9 c-6 -15 -34 -29 -42 -20 -8 7 29 45 39 39
4 -2 6 -11 3 -19z m-1014 -14 c14 -10 40 -22 57 -25 17 -4 38 -14 45 -23 11
-14 10 -15 -9 -9 -31 10 -48 -1 -31 -21 10 -13 6 -21 -28 -52 -59 -53 -124
-105 -143 -115 -9 -5 -28 -20 -43 -34 -15 -14 -30 -23 -33 -20 -7 7 2 16 85
88 152 132 144 123 121 132 -23 8 -27 23 -11 33 18 11 -1 26 -28 25 -51 -4
-73 0 -67 10 4 6 1 18 -7 27 -12 15 -9 15 27 9 22 -4 51 -15 65 -25z m1515 4
c0 -11 -8 -21 -17 -23 -14 -3 -18 3 -18 23 0 20 4 26 18 23 9 -2 17 -12 17
-23z m-80 5 c3 -5 -1 -10 -10 -10 -9 0 -13 5 -10 10 3 6 8 10 10 10 2 0 7 -4
10 -10z m-503 -52 c-7 -7 -12 -8 -12 -2 0 6 3 14 7 17 3 4 9 5 12 2 2 -3 -1
-11 -7 -17z m428 12 c0 -5 -2 -10 -4 -10 -3 0 -8 5 -11 10 -3 6 -1 10 4 10 6
0 11 -4 11 -10z m-1700 -45 c-20 -22 -21 -27 -11 -54 10 -24 10 -34 -3 -60 -9
-17 -20 -31 -24 -31 -5 0 -17 -7 -28 -16 -19 -15 -18 -15 4 -11 27 6 27 3 0
-28 -26 -30 -42 -32 -35 -5 3 11 2 18 -3 15 -14 -9 -5 53 11 72 22 25 39 58
39 78 0 16 47 64 64 65 5 0 -1 -11 -14 -25z m1824 16 c3 -5 -3 -20 -14 -32
-15 -18 -18 -19 -14 -6 5 15 2 18 -14 15 -29 -4 -29 15 0 24 33 9 36 9 42 -1z
m-577 -7 c-3 -3 -12 -4 -19 -1 -8 3 -5 6 6 6 11 1 17 -2 13 -5z m97 -50 c10
-31 48 -120 85 -198 107 -223 142 -318 122 -330 -7 -4 -11 1 -11 13 0 12 -4
21 -10 21 -5 0 -10 13 -10 30 0 19 -7 34 -20 42 -11 7 -20 18 -20 23 0 17 -24
65 -32 65 -5 0 -8 7 -8 15 0 8 -5 15 -11 15 -7 0 -9 10 -5 25 5 18 3 23 -8 19
-9 -4 -16 6 -20 31 -4 20 -13 38 -21 41 -8 3 -11 12 -8 20 3 8 -3 22 -14 32
-11 9 -24 35 -30 57 -8 37 -12 40 -41 39 -18 -1 -32 0 -32 2 0 10 26 61 38 77
25 29 37 20 56 -39z m356 26 c0 -11 -4 -20 -10 -20 -5 0 -10 9 -10 20 0 11 5
20 10 20 6 0 10 -9 10 -20z m-286 0 c10 0 52 -70 44 -74 -2 0 -12 -6 -23 -12
-19 -11 -20 -9 -17 22 4 29 0 35 -22 44 -14 5 -26 15 -26 21 0 6 7 8 16 5 9
-3 21 -6 28 -6z m-1544 -9 c0 -6 -4 -13 -10 -16 -5 -3 -10 -15 -10 -26 0 -12
-4 -17 -11 -13 -6 3 -24 -3 -40 -15 -45 -33 -44 -25 3 29 40 46 68 63 68 41z
m699 -50 l44 -41 -23 -25 c-13 -14 -27 -25 -32 -25 -13 0 -9 34 5 49 10 10 7
10 -15 2 -26 -10 -27 -9 -22 18 4 19 0 39 -12 57 -21 33 -13 28 55 -35z m-299
20 c0 -5 -12 -19 -26 -32 -14 -13 -36 -35 -47 -47 -12 -13 -35 -33 -51 -44
l-28 -21 22 34 c19 28 116 119 127 119 2 0 3 -4 3 -9z m-530 -21 c0 -5 -5 -10
-11 -10 -5 0 -7 5 -4 10 3 6 8 10 11 10 2 0 4 -4 4 -10z m2040 2 c0 -13 -12
-22 -22 -16 -10 6 -1 24 13 24 5 0 9 -4 9 -8z m-1691 -32 c4 0 13 6 20 13 10
10 10 7 3 -13 -5 -14 -23 -32 -40 -40 -17 -8 -36 -26 -42 -39 -6 -13 -13 -21
-16 -18 -3 3 2 19 10 36 9 16 16 36 16 42 0 7 8 21 18 32 15 17 17 17 20 3 2
-9 7 -16 11 -16z m1611 -2 c-1 -31 -1 -32 -15 -14 -19 25 -19 46 0 46 10 0 15
-10 15 -32z m-1300 14 c0 -4 -12 -20 -26 -35 -31 -33 -24 -49 9 -21 12 11 31
26 42 34 19 14 19 14 6 -5 -27 -36 -85 -95 -95 -95 -5 0 -18 -8 -29 -17 -22
-20 -22 -22 0 35 6 15 5 15 -10 3 -10 -8 -20 -11 -24 -7 -3 3 -4 7 -2 9 2 1
30 26 62 55 60 53 67 58 67 44z m500 -34 c0 -14 -19 1 -31 25 -12 22 -12 22
10 3 11 -11 21 -23 21 -28z m185 23 c-3 -6 -11 -11 -17 -11 -6 0 -6 6 2 15 14
17 26 13 15 -4z m89 3 c6 -15 8 -15 26 1 24 22 26 13 4 -24 -15 -26 -14 -30
31 -115 26 -48 44 -90 41 -93 -11 -11 -84 17 -116 43 -17 15 -44 46 -61 70
-29 42 -29 45 -13 69 16 24 62 64 75 65 4 0 10 -7 13 -16z m-1344 -14 c-6 -11
-13 -20 -16 -20 -2 0 0 9 6 20 6 11 13 20 16 20 2 0 0 -9 -6 -20z m1667 -65
c-6 -7 -11 -6 -14 1 -2 6 -10 20 -18 30 -13 16 -16 17 -24 4 -6 -8 -13 -11
-18 -7 -4 5 3 17 16 27 24 18 25 17 46 -14 15 -20 19 -34 12 -41z m-1802 55
c3 -5 1 -10 -4 -10 -6 0 -11 5 -11 10 0 6 2 10 4 10 3 0 8 -4 11 -10z m1335
-29 c0 -5 -7 -14 -15 -21 -12 -10 -15 -10 -15 2 0 8 3 18 7 21 9 10 23 9 23
-2z m-1230 -27 c0 -22 -16 -17 -17 6 -1 11 2 18 8 15 5 -4 9 -13 9 -21z m644
11 c-4 -9 -16 -21 -28 -27 -19 -10 -19 -9 3 16 28 30 33 32 25 11z m31 -40
c-16 -11 -43 -33 -60 -50 -69 -64 -82 -74 -88 -68 -4 3 15 24 40 47 26 23 66
59 88 81 29 29 41 36 44 25 2 -8 -9 -24 -24 -35z m1405 45 c0 -5 -4 -10 -10
-10 -5 0 -10 5 -10 10 0 6 5 10 10 10 6 0 10 -4 10 -10z m-2238 -32 c-7 -7
-12 -8 -12 -2 0 14 12 26 19 19 2 -3 -1 -11 -7 -17z m1348 1 c0 -11 -27 -12
-34 0 -3 4 -3 11 0 14 8 8 34 -3 34 -14z m-880 -3 c0 -8 -4 -18 -10 -21 -5 -3
-10 3 -10 14 0 12 5 21 10 21 6 0 10 -6 10 -14z m588 -37 c-3 -9 -12 0 -22 21
l-18 35 22 -21 c12 -12 20 -28 18 -35z m632 47 c0 -3 -4 -8 -10 -11 -5 -3 -10
-1 -10 4 0 6 5 11 10 11 6 0 10 -2 10 -4z m-37 -32 c-4 -10 -9 -12 -15 -6 -12
12 -1 35 12 27 5 -3 6 -13 3 -21z m-723 6 c0 -5 -5 -10 -11 -10 -5 0 -7 5 -4
10 3 6 8 10 11 10 2 0 4 -4 4 -10z m522 -54 c50 -57 95 -83 172 -101 48 -11
51 -13 94 -91 95 -171 132 -242 132 -256 0 -23 -76 -221 -114 -296 -18 -37
-52 -110 -74 -162 -23 -52 -55 -124 -73 -160 -17 -36 -40 -87 -51 -115 -10
-27 -66 -144 -124 -260 -57 -115 -119 -248 -137 -294 -18 -47 -38 -86 -45 -89
-7 -2 -24 10 -39 27 -15 17 -37 31 -49 31 -36 0 -83 -46 -89 -88 -7 -41 -34
-122 -41 -122 -3 0 -15 12 -28 27 -32 37 -64 26 -113 -38 -60 -81 -76 -115
-64 -138 16 -28 15 -49 -1 -33 -7 7 -22 12 -33 12 -12 0 -32 11 -45 25 -21 23
-23 30 -16 107 3 46 15 139 26 208 33 211 54 392 52 450 -2 52 13 200 25 247
6 28 65 42 89 23 20 -18 43 2 26 23 -13 15 -6 27 15 27 10 0 12 -6 8 -20 -15
-46 60 -37 103 12 60 71 66 75 102 70 86 -10 93 -8 112 24 l18 32 -46 93 -46
94 7 190 c11 317 13 335 24 349 6 7 19 38 29 67 12 35 26 57 41 64 12 6 25 22
28 38 5 23 56 77 73 77 3 0 26 -24 52 -54z m446 22 c12 -33 7 -53 -7 -29 -7
10 -10 10 -16 1 -4 -7 -2 -16 5 -20 7 -4 9 -13 5 -20 -5 -8 -11 -4 -19 12 -21
40 -27 60 -15 53 6 -4 13 2 16 14 8 29 17 26 31 -11z m-1935 -4 c-4 -10 -9
-12 -15 -6 -12 12 -1 35 12 27 5 -3 6 -13 3 -21z m169 -14 c-2 -16 -6 -30 -8
-30 -2 0 -4 14 -4 30 0 17 4 30 8 30 5 0 7 -13 4 -30z m268 -2 c0 -5 -4 -8
-10 -8 -5 0 -10 10 -10 23 0 18 2 19 10 7 5 -8 10 -18 10 -22z m100 28 c0 -8
-47 -56 -54 -56 -15 0 -4 29 17 43 22 16 37 21 37 13z m600 -46 c0 -14 -95
-112 -122 -126 -16 -8 -28 -11 -28 -6 0 4 12 19 28 33 46 42 92 100 92 116 0
13 3 13 15 3 8 -7 15 -16 15 -20z m-1062 9 c-2 -6 -7 -10 -12 -9 -17 3 -45
-53 -39 -81 3 -14 0 -30 -6 -33 -6 -4 -11 -17 -11 -29 0 -12 -12 -33 -25 -46
-14 -13 -25 -29 -25 -35 0 -7 -13 -25 -30 -41 -30 -29 -39 -59 -20 -70 6 -4
-9 -23 -34 -43 -35 -28 -44 -41 -40 -58 4 -15 -1 -26 -16 -37 -12 -9 -20 -21
-17 -29 3 -11 -6 -34 -30 -77 -2 -2 -10 2 -19 9 -13 12 -17 11 -24 0 -5 -8 -5
-19 1 -26 11 -14 -17 -47 -35 -41 -20 7 -18 36 10 96 19 41 34 61 48 63 14 2
33 29 64 88 24 47 58 101 77 120 36 37 58 77 100 179 33 80 53 111 72 111 8 0
13 -5 11 -11z m898 -5 c-3 -9 -6 -18 -6 -20 0 -2 -7 -4 -15 -4 -18 0 -19 12
-3 28 17 17 31 15 24 -4z m1366 -20 c54 -46 66 -64 39 -64 -10 0 -21 6 -24 13
-3 9 -8 9 -18 -2 -11 -10 -11 -15 -1 -18 6 -3 12 -13 12 -23 0 -10 5 -20 11
-22 21 -7 -146 -168 -175 -168 -14 0 11 36 46 68 40 36 78 98 78 127 0 21 -29
31 -51 16 -15 -9 -19 -8 -19 3 0 21 40 106 50 106 4 0 28 -16 52 -36z m-1502
17 c0 -5 -7 -12 -16 -15 -14 -5 -15 -4 -4 9 14 17 20 19 20 6z m60 -17 c0 -55
32 -166 49 -171 9 -2 22 -13 29 -24 15 -24 0 -59 -25 -59 -10 0 -34 -17 -55
-37 -21 -20 -38 -33 -38 -27 0 5 12 21 28 35 15 14 34 38 42 53 13 25 13 29
-1 40 -19 14 -39 90 -39 147 0 34 -3 40 -12 31 -7 -7 -19 -12 -27 -12 -11 0
-9 7 9 24 32 32 40 32 40 0z m-620 7 c0 -17 -12 -41 -21 -41 -10 0 -12 33 -2
43 9 10 23 9 23 -2z m1000 -17 c0 -8 -4 -12 -10 -9 -5 3 -10 10 -10 16 0 5 5
9 10 9 6 0 10 -7 10 -16z m690 -10 c0 -8 -4 -14 -10 -14 -5 0 -10 9 -10 21 0
11 5 17 10 14 6 -3 10 -13 10 -21z m-1818 -6 c-7 -7 -12 -8 -12 -2 0 14 12 26
19 19 2 -3 -1 -11 -7 -17z m263 -28 c-21 -46 -41 -54 -30 -12 7 29 35 66 43
57 3 -3 -3 -23 -13 -45z m1375 24 c0 -8 -5 -12 -10 -9 -6 4 -8 11 -5 16 9 14
15 11 15 -7z m-1845 -4 c3 -5 1 -10 -4 -10 -6 0 -11 5 -11 10 0 6 2 10 4 10 3
0 8 -4 11 -10z m865 -34 c-19 -18 -37 -32 -39 -30 -7 6 51 64 63 64 6 0 -5
-15 -24 -34z m194 7 c-3 -12 -14 -23 -25 -26 -25 -7 -24 1 3 30 25 26 29 26
22 -4z m256 -24 c0 -19 -16 -34 -23 -22 -3 5 -8 24 -12 43 l-7 35 21 -19 c11
-11 21 -27 21 -37z m-126 26 c-4 -8 -14 -15 -23 -15 -14 1 -13 3 3 15 25 19
27 19 20 0z m-469 -15 c-10 -11 -21 -18 -23 -15 -3 3 3 12 14 20 27 20 30 18
9 -5z m1115 16 c0 -11 -19 -15 -25 -6 -3 5 1 10 9 10 9 0 16 -2 16 -4z m219
-15 c10 -17 8 -18 -13 -8 -14 7 -22 15 -20 19 9 14 23 9 33 -11z m-2084 0 c3
-5 1 -12 -5 -16 -5 -3 -10 1 -10 9 0 18 6 21 15 7z m1141 -138 c-20 -19 -41
-33 -47 -31 -7 2 7 22 31 45 50 47 52 80 2 38 -43 -36 -40 -18 6 33 l37 41 3
-46 c3 -42 0 -50 -32 -80z m1384 47 c0 -48 -31 -63 -48 -25 -7 14 -8 25 -3 25
4 0 14 11 21 25 16 29 30 17 30 -25z m-1635 30 c-3 -5 -11 -10 -16 -10 -6 0
-7 5 -4 10 3 6 11 10 16 10 6 0 7 -4 4 -10z m410 -79 c6 -74 -1 -171 -13 -171
-4 0 -7 59 -8 130 -1 140 11 162 21 41z m-755 75 c0 -3 -4 -8 -10 -11 -5 -3
-10 -1 -10 4 0 6 5 11 10 11 6 0 10 -2 10 -4z m-70 -50 c0 -24 3 -57 6 -73 5
-23 2 -32 -11 -37 -25 -9 -29 -1 -17 33 13 37 7 39 -25 9 -23 -21 -23 -21 -23
-1 0 12 7 24 16 27 9 4 14 13 10 22 -6 16 20 64 35 64 5 0 9 -20 9 -44z m290
-1 c-19 -19 -38 -35 -43 -35 -12 0 55 69 67 69 6 1 -5 -15 -24 -34z m1160 5
c0 -5 -4 -10 -10 -10 -5 0 -10 5 -10 10 0 6 5 10 10 10 6 0 10 -4 10 -10z
m-1739 -156 c-5 -58 -15 -112 -21 -118 -9 -8 -11 -2 -6 29 3 22 9 76 12 120 2
44 8 91 11 105 l7 25 4 -27 c2 -15 -1 -75 -7 -134z m678 129 c-13 -16 -28 -31
-34 -35 -5 -4 -30 -25 -55 -47 -24 -23 -48 -41 -52 -41 -18 0 -5 19 30 44 20
14 55 44 76 66 44 45 73 55 35 13z m1266 -83 c-21 -23 -19 -35 8 -53 12 -8 19
-18 14 -23 -4 -4 -13 1 -21 11 -14 19 -36 13 -36 -10 0 -19 -50 -76 -61 -69
-5 3 -9 10 -9 15 0 6 4 7 10 4 5 -3 7 0 4 8 -3 8 6 40 20 72 15 32 26 62 26
67 0 5 7 25 16 46 l17 37 13 -44 c12 -39 12 -47 -1 -61z m-1155 87 c0 -2 -10
-12 -22 -23 l-23 -19 19 23 c18 21 26 27 26 19z m223 -242 c26 -103 28 -115
17 -115 -5 0 -10 9 -10 19 0 11 -4 23 -10 26 -5 3 -10 17 -10 31 0 15 -6 24
-15 24 -18 0 -19 12 -2 29 10 10 8 15 -6 26 -15 11 -17 17 -7 35 8 16 8 25 0
35 -6 7 -8 25 -4 40 l7 27 -27 -17 c-34 -22 -35 -2 -1 29 14 13 26 30 26 37 1
8 7 -26 14 -76 7 -49 20 -117 28 -150z m-1298 186 c-10 -16 -25 -3 -25 22 0
20 1 20 16 5 9 -9 13 -21 9 -27z m2580 30 c6 -11 -157 -141 -177 -141 -22 0
-2 34 49 80 70 64 113 84 128 61z m-2129 -38 c-10 -10 -19 5 -10 18 6 11 8 11
12 0 2 -7 1 -15 -2 -18z m1614 17 c0 -5 -5 -10 -11 -10 -5 0 -7 5 -4 10 3 6 8
10 11 10 2 0 4 -4 4 -10z m-890 -7 c-1 -18 -19 -35 -29 -28 -9 5 -9 10 0 21
12 15 29 19 29 7z m1460 -30 c0 -21 -66 -82 -96 -89 -13 -3 -32 -3 -41 0 -21
8 -12 18 67 74 56 40 70 43 70 15z m-280 13 c0 -2 -3 -12 -6 -20 -5 -13 -9
-14 -20 -5 -20 16 -17 29 6 29 11 0 20 -2 20 -4z m-2390 -37 c0 -5 -4 -9 -10
-9 -5 0 -10 7 -10 16 0 8 5 12 10 9 6 -3 10 -10 10 -16z m510 -133 c14 -114 9
-218 -10 -241 -7 -8 -22 -15 -33 -15 -18 0 -19 2 -5 18 8 9 20 31 26 47 14 37
10 203 -5 230 -9 17 -12 96 -3 115 5 12 19 -57 30 -154z m147 111 c-2 -6 -9
-13 -17 -15 -8 -3 -10 0 -6 7 4 7 2 19 -6 28 -12 15 -11 15 10 4 13 -7 22 -17
19 -24z m245 -19 c-6 -6 -15 -8 -19 -4 -4 4 -1 11 7 16 19 12 27 3 12 -12z
m307 -15 c0 -21 -3 -31 -6 -23 -3 8 -13 21 -22 28 -14 11 -14 14 -1 22 25 16
30 11 29 -27z m-259 8 c-12 -24 -51 -53 -59 -45 -6 5 54 64 65 64 2 0 0 -9 -6
-19z m-990 -17 c0 -8 -4 -12 -10 -9 -5 3 -10 13 -10 21 0 8 5 12 10 9 6 -3 10
-13 10 -21z m639 7 c11 -7 9 -11 -8 -20 -24 -13 -41 -7 -41 15 0 16 27 19 49
5z m76 -10 c10 -17 -12 -21 -25 -6 -10 12 -10 15 3 15 9 0 18 -4 22 -9z m1990
-70 c-8 -17 -20 -31 -25 -31 -13 0 -13 1 4 41 31 79 29 77 34 47 2 -15 -4 -40
-13 -57z m-402 45 c4 -10 0 -12 -14 -9 -10 3 -16 9 -13 14 8 13 21 11 27 -5z
m127 0 c0 -15 -37 -32 -47 -22 -3 3 -3 12 0 21 8 19 47 20 47 1z m112 2 c3 -7
20 -13 39 -13 39 0 55 -24 61 -90 3 -35 0 -40 -20 -43 -18 -3 -22 1 -22 25 0
17 -8 33 -19 40 -13 8 -18 19 -14 33 7 25 -22 28 -48 4 -10 -9 -20 -11 -23 -6
-3 5 1 15 9 22 8 7 15 19 15 26 0 17 17 18 22 2z m-2122 -7 c0 -6 -4 -13 -10
-16 -5 -3 -10 1 -10 9 0 9 5 16 10 16 6 0 10 -4 10 -9z m1050 -13 c0 -31 -13
-49 -28 -39 -10 6 -11 13 -1 34 15 33 29 35 29 5z m-550 -3 c0 -2 -10 -10 -22
-16 -21 -11 -22 -11 -9 4 13 16 31 23 31 12z m-260 -15 c0 -5 -4 -10 -9 -10
-5 0 -18 -3 -28 -7 -16 -6 -16 -5 -4 10 15 19 41 23 41 7z m1521 -37 c-12 -20
-14 -14 -5 12 4 9 9 14 11 11 3 -2 0 -13 -6 -23z m216 5 c-3 -8 -6 -5 -6 6 -1
11 2 17 5 13 3 -3 4 -12 1 -19z m54 -6 c-28 -4 -40 6 -21 18 9 6 20 4 29 -3
12 -10 11 -13 -8 -15z m-2125 -19 c-10 -10 -19 5 -10 18 6 11 8 11 12 0 2 -7
1 -15 -2 -18z m831 11 c-3 -4 5 -16 19 -27 19 -15 22 -22 13 -28 -9 -5 -19 1
-30 19 -15 25 -16 42 -2 42 4 0 3 -3 0 -6z m88 -4 c3 -5 1 -10 -4 -10 -6 0
-11 5 -11 10 0 6 2 10 4 10 3 0 8 -4 11 -10z m211 -27 c-11 -11 -19 6 -11 24
8 17 8 17 12 0 3 -10 2 -21 -1 -24z m734 6 c-7 -11 -14 -18 -17 -15 -3 3 0 12
7 21 18 21 23 19 10 -6z m342 -1 c-7 -7 -12 -8 -12 -2 0 6 3 14 7 17 3 4 9 5
12 2 2 -3 -1 -11 -7 -17z m-1572 -6 c0 -5 -11 -18 -25 -30 -14 -12 -25 -29
-25 -37 0 -8 -9 -15 -20 -15 -28 0 -25 7 18 50 37 38 52 47 52 32z m1530 -12
c0 -5 -12 -10 -27 -10 -22 0 -25 2 -13 10 20 13 40 13 40 0z m-130 -14 c0 -15
-18 -31 -26 -23 -7 7 7 37 17 37 5 0 9 -6 9 -14z m345 -30 c15 -39 15 -47 2
-72 l-15 -29 -11 27 c-6 16 -9 40 -7 55 2 16 1 20 -1 11 -5 -22 -19 -23 -27
-3 -7 18 14 55 31 55 6 0 19 -20 28 -44z m-1474 21 c-1 -12 -15 -9 -19 4 -3 6
1 10 8 8 6 -3 11 -8 11 -12z m1349 -18 c-12 -21 -30 -17 -30 6 0 14 20 25 33
18 4 -2 2 -13 -3 -24z m-1935 1 c-3 -5 -13 -10 -21 -10 -8 0 -12 5 -9 10 3 6
13 10 21 10 8 0 12 -4 9 -10z m634 -14 c22 -23 22 -24 3 -19 -11 2 -22 13 -25
24 -7 24 -5 24 22 -5z m1232 4 c26 -14 24 -34 -3 -27 -12 3 -30 1 -40 -4 -28
-15 -33 -4 -9 20 24 24 26 25 52 11z m-81 -38 c0 -7 -4 -10 -10 -7 -5 3 -10
16 -10 28 0 18 2 19 10 7 5 -8 10 -21 10 -28z m-2043 12 c-3 -3 -12 -4 -19 -1
-8 3 -5 6 6 6 11 1 17 -2 13 -5z m-327 -24 c0 -5 -4 -10 -9 -10 -6 0 -13 5
-16 10 -3 6 1 10 9 10 9 0 16 -4 16 -10z m590 -5 c0 -20 -28 -31 -42 -17 -10
10 8 23 40 31 1 1 2 -6 2 -14z m-346 -12 c4 -9 2 -21 -4 -27 -5 -5 -10 -20
-10 -32 0 -20 -5 -22 -47 -22 -55 0 -85 12 -77 33 5 13 8 13 21 0 24 -25 66
-19 81 12 6 15 12 33 12 40 0 19 17 16 24 -4z m1966 13 c0 -3 -4 -8 -10 -11
-5 -3 -10 -1 -10 4 0 6 5 11 10 11 6 0 10 -2 10 -4z m340 -6 c0 -5 -2 -10 -4
-10 -3 0 -8 5 -11 10 -3 6 -1 10 4 10 6 0 11 -4 11 -10z m-1655 -17 c19 -6 18
-6 -3 -14 -31 -12 -20 -26 31 -40 23 -6 56 -23 72 -39 17 -15 41 -33 54 -40
21 -11 26 -10 37 5 12 16 14 16 19 2 9 -21 -5 -44 -104 -175 -47 -63 -97 -131
-111 -152 -14 -21 -55 -82 -91 -136 -74 -111 -152 -253 -174 -314 -8 -23 -38
-68 -67 -101 -45 -52 -56 -60 -79 -55 -33 6 -41 -1 -27 -24 15 -24 -3 -48 -40
-52 -22 -2 -26 -8 -27 -33 0 -27 -3 -30 -32 -30 -36 0 -53 -12 -29 -21 20 -8
21 -28 2 -43 -11 -9 -19 -9 -35 1 -30 19 -51 -4 -28 -30 9 -10 17 -22 17 -25
0 -12 -23 -7 -40 8 -15 13 -19 14 -29 1 -10 -11 -8 -18 10 -35 19 -17 20 -24
10 -34 -10 -10 -16 -7 -31 11 -20 24 -35 28 -46 11 -3 -6 6 -23 21 -39 l26
-27 -49 -59 c-91 -108 -100 -113 -144 -82 -14 10 -20 10 -30 0 -10 -10 -7 -17
16 -35 25 -21 27 -24 12 -36 -14 -12 -19 -11 -34 3 -10 9 -26 16 -35 16 -26 0
-20 -27 9 -46 23 -15 24 -19 10 -32 -14 -14 -18 -14 -39 6 -27 26 -45 28 -53
7 -4 -8 6 -25 23 -40 27 -25 27 -26 2 -10 -23 14 -59 12 -59 -3 0 -3 10 -16
22 -29 16 -17 18 -23 7 -23 -8 0 -20 5 -26 11 -16 16 -35 1 -28 -21 4 -14 -2
-23 -24 -35 -44 -22 -78 -10 -101 35 -11 21 -36 48 -55 60 -26 16 -34 27 -29
39 32 76 38 105 40 202 1 58 5 115 8 127 10 30 -2 28 -14 -3 -11 -29 -22 -31
-44 -9 -19 18 -23 120 -5 109 5 -4 19 1 29 10 19 17 20 17 29 -9 6 -14 8 -32
5 -40 -3 -8 -1 -17 5 -20 6 -4 13 9 17 31 19 105 124 214 274 286 86 40 200
108 200 119 0 12 -14 10 -36 -7 -49 -37 -45 -19 25 127 33 68 64 149 70 181 6
32 24 106 41 165 17 59 36 145 42 192 8 70 14 89 35 108 13 12 32 22 41 22 9
0 49 12 87 26 39 14 95 32 125 39 30 7 80 23 110 34 45 17 68 20 125 16 39 -3
79 -9 90 -12z m138 -2 c4 -17 2 -18 -19 -9 -13 6 -21 15 -18 19 9 16 32 9 37
-10z m1452 4 c0 -5 -15 -11 -34 -13 -31 -3 -33 -2 -21 13 14 17 55 17 55 0z
m-105 -16 c0 -11 -4 -17 -10 -14 -5 3 -10 13 -10 21 0 8 5 14 10 14 6 0 10 -9
10 -21z m320 -38 c-1 -13 -30 34 -30 48 0 9 7 3 15 -13 8 -15 15 -31 15 -35z
m-606 18 c-3 -5 -10 -7 -15 -3 -5 3 -7 10 -3 15 3 5 10 7 15 3 5 -3 7 -10 3
-15z m201 11 c3 -5 1 -10 -4 -10 -6 0 -11 5 -11 10 0 6 2 10 4 10 3 0 8 -4 11
-10z m365 -21 c0 -11 -4 -17 -10 -14 -5 3 -10 13 -10 21 0 8 5 14 10 14 6 0
10 -9 10 -21z m-530 3 c0 -13 -12 -22 -22 -16 -10 6 -1 24 13 24 5 0 9 -4 9
-8z m365 -32 c-7 -11 -55 -6 -56 5 -1 14 35 23 48 13 7 -6 11 -14 8 -18z m240
-50 c7 -24 6 -24 -8 -5 -8 11 -18 31 -22 45 -7 24 -6 24 8 5 8 -11 18 -31 22
-45z m-1685 40 c0 -5 -2 -10 -4 -10 -3 0 -8 5 -11 10 -3 6 -1 10 4 10 6 0 11
-4 11 -10z m971 -29 c-6 -10 -18 -24 -27 -32 -10 -8 -15 -9 -11 -3 3 6 11 23
17 38 5 15 14 24 20 21 6 -4 7 -13 1 -24z m134 20 c3 -5 1 -12 -5 -16 -5 -3
-10 1 -10 9 0 18 6 21 15 7z m455 -12 c0 -11 -4 -17 -10 -14 -5 3 -10 13 -10
21 0 8 5 14 10 14 6 0 10 -9 10 -21z m-516 -10 c-3 -5 -10 -7 -15 -3 -5 3 -7
10 -3 15 3 5 10 7 15 3 5 -3 7 -10 3 -15z m255 -12 c0 -21 -1 -21 -9 -2 -12
28 -12 37 0 30 6 -3 10 -16 9 -28z m151 0 c0 -8 -15 -12 -40 -12 -49 0 -55 22
-7 27 38 4 47 1 47 -15z m-1060 -7 c0 -5 -5 -10 -11 -10 -5 0 -7 5 -4 10 3 6
8 10 11 10 2 0 4 -4 4 -10z m803 -42 c-3 -24 -10 -50 -15 -58 -6 -10 -7 3 -3
35 7 47 12 65 20 65 2 0 1 -19 -2 -42z m-203 28 c0 -3 -4 -8 -10 -11 -5 -3
-10 -1 -10 4 0 6 5 11 10 11 6 0 10 -2 10 -4z m115 -16 c3 -5 1 -10 -4 -10 -6
0 -11 5 -11 10 0 6 2 10 4 10 3 0 8 -4 11 -10z m575 -7 c0 -9 7 -24 16 -34 9
-10 14 -25 10 -34 -8 -23 -26 -9 -26 21 0 13 -4 24 -10 24 -5 0 -10 9 -10 20
0 11 5 20 10 20 6 0 10 -8 10 -17z m61 -91 c-14 -5 -5 -45 20 -89 10 -18 14
-33 9 -33 -12 0 -40 41 -35 50 3 4 -2 13 -10 20 -18 15 -20 47 -2 53 9 3 8 12
-5 37 -10 17 -18 39 -18 48 1 9 13 -5 27 -33 16 -31 21 -51 14 -53z m-477 72
c9 -25 0 -29 -31 -14 -26 12 -27 13 -8 21 29 11 32 11 39 -7z m350 -25 c-8
-13 -24 -1 -24 18 0 13 3 13 15 3 8 -7 12 -16 9 -21z m-1228 2 c-8 -13 -66
-42 -66 -33 0 8 63 51 69 46 1 -1 0 -7 -3 -13z m674 4 c0 -8 -4 -15 -10 -15
-5 0 -10 7 -10 15 0 8 5 15 10 15 6 0 10 -7 10 -15z m307 -27 c-3 -7 -5 -2 -5
12 0 14 2 19 5 13 2 -7 2 -19 0 -25z m103 12 c0 -5 -7 -10 -15 -10 -8 0 -15 5
-15 10 0 6 7 10 15 10 8 0 15 -4 15 -10z m-63 -47 c-4 -17 -4 -17 -12 0 -4 9
-4 25 0 35 8 16 8 16 12 0 3 -10 3 -26 0 -35z m-982 27 c-3 -5 -10 -10 -16
-10 -5 0 -9 5 -9 10 0 6 7 10 16 10 8 0 12 -4 9 -10z m795 -4 c0 -3 -4 -8 -10
-11 -5 -3 -10 -1 -10 4 0 6 5 11 10 11 6 0 10 -2 10 -4z m-190 -26 c0 -5 -7
-10 -16 -10 -8 0 -12 5 -9 10 3 6 10 10 16 10 5 0 9 -4 9 -10z m134 -62 c-16
-77 -32 -123 -33 -93 -1 11 3 36 8 55 5 19 12 52 16 73 3 21 10 35 14 32 5 -2
3 -33 -5 -67z m160 30 c-4 -6 -10 -5 -15 3 -14 22 -10 33 6 19 8 -7 12 -17 9
-22z m71 -40 c4 -18 7 -43 5 -56 -1 -13 4 -30 10 -37 7 -8 9 -23 5 -32 -10
-27 -21 -1 -30 67 -3 30 -9 63 -11 73 -3 9 -1 17 4 17 5 0 13 -15 17 -32z m35
23 c0 -6 -4 -13 -10 -16 -5 -3 -10 1 -10 9 0 9 5 16 10 16 6 0 10 -4 10 -9z
m10 -61 c0 -5 -4 -10 -10 -10 -5 0 -10 5 -10 10 0 6 5 10 10 10 6 0 10 -4 10
-10z m257 -22 c-3 -8 -6 -5 -6 6 -1 11 2 17 5 13 3 -3 4 -12 1 -19z m-1737 -2
c0 -16 -37 -32 -48 -21 -7 7 25 35 40 35 4 0 8 -6 8 -14z m1121 -69 c-6 -34
-13 -91 -16 -127 -3 -36 -10 -85 -15 -110 -5 -25 -21 -110 -35 -190 -15 -80
-33 -170 -40 -200 -8 -30 -22 -97 -31 -148 -17 -94 -27 -113 -47 -93 -6 6 -18
11 -28 11 -21 0 -69 -48 -69 -69 0 -21 -26 -58 -34 -50 -4 3 0 24 8 46 14 39
34 116 78 303 39 167 96 349 186 589 48 130 61 142 43 38z m-127 30 c-3 -9
-12 -17 -20 -17 -17 0 -17 5 -3 32 13 24 33 10 23 -15z m851 12 c8 -23 1 -34
-14 -24 -13 8 -15 45 -2 45 5 0 13 -9 16 -21z m-915 7 c0 -3 -4 -8 -10 -11 -5
-3 -10 -1 -10 4 0 6 5 11 10 11 6 0 10 -2 10 -4z m870 -6 c0 -5 -5 -10 -11
-10 -5 0 -7 5 -4 10 3 6 8 10 11 10 2 0 4 -4 4 -10z m-106 -21 c-8 -14 -24
-10 -24 6 0 9 6 12 15 9 8 -4 12 -10 9 -15z m-1695 -70 c-2 -40 -3 -96 -2
-124 1 -27 -7 -104 -17 -170 -11 -66 -21 -144 -23 -174 -3 -45 -8 -58 -31 -76
-31 -24 -27 -50 5 -42 29 8 22 -14 -18 -55 -37 -38 -39 -63 -3 -40 34 21 22 0
-27 -50 -37 -38 -43 -49 -31 -53 9 -4 28 1 43 11 14 9 28 14 31 11 5 -5 -13
-20 -86 -71 -52 -36 -41 -54 19 -30 23 9 44 14 47 11 10 -9 -6 -27 -23 -27
-25 0 -103 -42 -103 -56 0 -20 30 -25 62 -8 16 8 33 13 36 10 7 -8 -39 -42
-51 -38 -15 5 -67 -29 -67 -43 0 -8 5 -15 10 -15 16 0 11 -18 -11 -39 -12 -11
-43 -25 -70 -31 -69 -17 -79 -6 -79 82 0 52 -6 84 -26 131 -27 62 -63 217 -64
270 0 35 30 94 65 127 14 13 61 93 103 178 42 84 102 188 134 230 49 66 63 78
99 87 24 5 45 16 47 24 5 14 -9 13 -52 -4 -16 -7 -17 -6 -8 11 10 18 67 45 86
40 5 -1 8 -36 5 -77z m1616 61 c0 -7 -6 -15 -12 -17 -8 -3 -13 4 -13 17 0 13
5 20 13 18 6 -3 12 -11 12 -18z m-300 0 c3 -5 -1 -10 -10 -10 -9 0 -13 5 -10
10 3 6 8 10 10 10 2 0 7 -4 10 -10z m459 -6 c11 -28 6 -39 -9 -20 -8 11 -15
23 -15 28 0 14 18 9 24 -8z m-817 -52 c-9 -10 -14 -22 -10 -25 3 -4 1 -17 -5
-30 -12 -23 -73 -198 -97 -277 -7 -25 -16 -55 -20 -67 -5 -15 -3 -23 4 -23 6
0 11 -5 11 -11 0 -6 -6 -9 -14 -6 -18 7 -88 -206 -80 -240 3 -12 -1 -34 -9
-50 -9 -15 -18 -40 -21 -54 -3 -14 -15 -36 -26 -49 -13 -15 -20 -35 -18 -56 1
-18 -5 -38 -15 -48 -9 -9 -14 -23 -10 -32 3 -8 -3 -24 -12 -34 -17 -19 -17
-21 1 -41 19 -21 19 -21 -1 -19 -38 4 -45 0 -45 -27 0 -18 -3 -24 -10 -17 -7
7 0 39 21 100 16 49 35 105 41 124 5 19 23 69 38 110 15 41 46 134 69 205 52
166 131 406 171 515 16 46 30 86 30 89 0 3 5 0 12 -7 9 -9 8 -16 -5 -30z m769
23 c2 -23 18 -71 30 -89 7 -10 10 -25 7 -33 -3 -8 0 -25 7 -39 8 -13 11 -27 7
-30 -3 -3 3 -22 13 -41 12 -22 17 -46 13 -63 -3 -15 0 -31 6 -34 6 -4 11 -33
11 -65 0 -31 5 -62 11 -68 8 -8 8 -17 1 -29 -9 -17 -11 -15 -17 11 -15 67 -49
184 -71 245 -13 36 -24 75 -24 86 0 12 -9 47 -20 79 -26 75 -26 87 3 83 12 -2
22 -7 23 -13z m-237 -13 c-9 -14 -9 -24 -1 -38 9 -14 12 -15 12 -4 2 22 18
-20 19 -48 1 -13 -3 -20 -9 -17 -14 9 -13 -98 1 -112 7 -7 9 -19 5 -29 -12
-30 -24 -2 -45 103 -26 123 -27 155 -6 147 8 -4 15 -1 15 5 0 6 5 11 10 11 6
0 6 -7 -1 -18z m58 -2 c1 -11 -2 -20 -8 -20 -5 0 -9 2 -9 4 0 2 -3 11 -6 20
-4 10 -1 16 8 16 7 0 14 -9 15 -20z m303 -21 c0 -10 -4 -19 -9 -19 -12 0 -23
29 -15 41 8 14 24 0 24 -22z m-228 -1 c-7 -7 -12 -8 -12 -2 0 14 12 26 19 19
2 -3 -1 -11 -7 -17z m302 -47 c29 -66 35 -131 11 -131 -18 0 -19 14 -3 40 10
15 9 23 -7 40 -11 12 -25 18 -36 15 -22 -7 -34 12 -19 29 6 8 8 26 4 40 -4 19
-2 26 9 26 8 0 26 -26 41 -59z m856 -1 c0 -16 5 -32 10 -35 8 -5 8 -11 0 -20
-14 -16 4 -65 24 -65 17 0 26 -30 26 -88 0 -29 5 -44 16 -49 22 -8 33 7 42 58
5 31 13 45 26 47 16 4 18 0 13 -27 -5 -25 -2 -34 17 -47 23 -14 24 -19 19 -86
-4 -53 -2 -72 8 -78 7 -5 19 -5 25 1 21 17 79 -4 82 -30 3 -18 0 -22 -15 -18
-18 6 -68 10 -90 8 -7 -1 -13 -9 -13 -20 0 -23 -31 -30 -120 -26 -36 2 -68 3
-71 4 -4 1 -9 11 -12 22 -5 19 -11 21 -39 15 -41 -8 -61 -28 -64 -63 -3 -38
-37 -115 -59 -133 -10 -8 -32 -19 -49 -25 -25 -8 -32 -17 -38 -50 -6 -35 -3
-43 18 -61 20 -16 24 -26 18 -47 -8 -36 -17 -40 -65 -32 -33 6 -39 11 -38 28
4 49 -1 77 -15 77 -19 0 -28 -16 -36 -60 -6 -38 -35 -50 -35 -15 0 25 -28 27
-33 2 -2 -10 -15 -29 -29 -43 -21 -21 -24 -32 -20 -61 8 -46 -2 -93 -19 -93
-8 0 -14 5 -14 12 0 13 -105 193 -128 220 -8 10 -16 41 -18 71 -3 43 0 57 15
71 15 14 23 15 44 5 33 -15 61 3 51 33 -4 13 2 29 18 46 14 15 35 43 47 64 27
45 44 52 67 27 21 -23 31 -113 15 -133 -10 -12 -9 -40 4 -83 7 -21 33 -3 45
30 l11 32 15 -34 c8 -19 13 -40 10 -47 -7 -17 30 -49 39 -34 7 11 9 64 4 85
-5 22 15 97 31 117 14 17 20 19 38 9 12 -7 27 -9 32 -6 17 10 11 51 -11 79
-18 23 -20 35 -15 79 9 71 17 80 67 81 l44 1 -4 49 c-3 42 0 51 23 70 23 19
25 24 16 61 -15 61 -12 71 21 110 35 39 49 38 49 -5z m-1989 3 c-12 -20 -14
-14 -5 12 4 9 9 14 11 11 3 -2 0 -13 -6 -23z m630 14 c-1 -4 -1 -14 -1 -22 0
-8 -4 -15 -10 -15 -5 0 -10 12 -10 26 0 14 5 24 11 22 6 -2 10 -7 10 -11z
m226 -20 c-7 -21 -32 -13 -35 11 -3 21 -1 22 18 12 12 -6 19 -17 17 -23z
m-789 6 c-4 -20 -18 -26 -37 -14 -18 12 -5 31 20 31 14 0 19 -6 17 -17z m122
-3 c0 -5 -2 -10 -4 -10 -3 0 -8 5 -11 10 -3 6 -1 10 4 10 6 0 11 -4 11 -10z
m820 -31 c0 -5 -4 -9 -10 -9 -5 0 -10 7 -10 16 0 8 5 12 10 9 6 -3 10 -10 10
-16z m-984 -31 c4 -6 3 -8 -4 -4 -6 3 -13 2 -17 -4 -4 -6 -11 -8 -16 -4 -5 3
-7 10 -4 15 8 13 32 11 41 -3z m1009 -28 c-3 -5 -10 -10 -16 -10 -5 0 -9 5 -9
10 0 6 7 10 16 10 8 0 12 -4 9 -10z m-885 -30 c0 -5 -5 -10 -11 -10 -5 0 -7 5
-4 10 3 6 8 10 11 10 2 0 4 -4 4 -10z m610 -20 c0 -10 -4 -21 -9 -24 -10 -7
-20 23 -14 42 6 17 23 4 23 -18z m44 14 c10 -27 7 -56 -6 -52 -15 5 -24 68
-10 68 6 0 13 -7 16 -16z m96 -12 c0 -19 -18 -42 -32 -42 -12 0 -9 29 5 45 17
20 27 18 27 -3z m-420 -21 c0 -11 -4 -23 -10 -26 -6 -4 -10 5 -10 19 0 14 5
26 10 26 6 0 10 -9 10 -19z m-124 -28 c-10 -10 -19 5 -10 18 6 11 8 11 12 0 2
-7 1 -15 -2 -18z m266 2 c3 -14 1 -28 -3 -31 -5 -3 -9 9 -9 25 0 38 6 40 12 6z
m-498 -6 c-3 -5 -10 -7 -15 -3 -5 3 -7 10 -3 15 3 5 10 7 15 3 5 -3 7 -10 3
-15z m296 6 c14 -16 10 -18 -14 -9 -9 3 -16 10 -16 15 0 14 16 11 30 -6z m510
-36 c0 -20 -24 -26 -35 -9 -8 13 14 42 26 34 5 -3 9 -14 9 -25z m-920 -15 c-5
-16 -39 -122 -75 -236 -36 -115 -69 -208 -74 -208 -4 0 -15 6 -24 13 -16 11
-16 16 -2 63 15 50 56 145 137 316 42 88 56 107 38 52z m470 15 c0 -5 -4 -9
-10 -9 -5 0 -10 7 -10 16 0 8 5 12 10 9 6 -3 10 -10 10 -16z m237 -11 c-3 -8
-6 -5 -6 6 -1 11 2 17 5 13 3 -3 4 -12 1 -19z m-787 -4 c0 -8 -4 -12 -10 -9
-5 3 -10 10 -10 16 0 5 5 9 10 9 6 0 10 -7 10 -16z m420 -9 c0 -8 -4 -15 -10
-15 -5 0 -10 7 -10 15 0 8 5 15 10 15 6 0 10 -7 10 -15z m279 -42 c1 -62 8
-97 22 -102 6 -2 4 -10 -6 -21 -14 -16 -14 -20 -2 -32 9 -8 12 -21 8 -33 -12
-34 8 -145 26 -145 12 0 13 -3 4 -14 -7 -9 -9 -32 -5 -62 3 -27 6 -60 6 -74 0
-14 4 -28 10 -31 7 -4 7 -13 0 -25 -13 -27 -5 -43 21 -37 l22 6 -23 -22 c-17
-17 -20 -26 -12 -41 5 -10 10 -37 10 -59 0 -42 7 -50 28 -29 9 9 12 9 12 -3 0
-8 -5 -20 -10 -25 -15 -15 6 -66 24 -62 8 2 15 -1 15 -7 0 -5 -6 -9 -13 -7 -8
1 -16 -7 -19 -18 -6 -25 -44 -27 -50 -2 -3 9 -5 37 -6 61 -1 25 -4 48 -7 53
-3 5 -12 72 -20 151 -8 78 -19 187 -25 242 -5 55 -12 129 -14 165 -2 36 -7
103 -11 149 -4 57 -3 82 4 77 5 -3 10 -27 11 -53z m-529 43 c0 -3 -4 -8 -10
-11 -5 -3 -10 -1 -10 4 0 6 5 11 10 11 6 0 10 -2 10 -4z m-229 -59 c-13 -13
-15 11 -4 40 7 16 8 15 11 -6 2 -13 -1 -28 -7 -34z m596 1 c-3 -7 -5 -2 -5 12
0 14 2 19 5 13 2 -7 2 -19 0 -25z m483 23 c0 -12 -20 -25 -27 -18 -7 7 6 27
18 27 5 0 9 -4 9 -9z m-210 -11 c0 -5 -2 -10 -4 -10 -3 0 -8 5 -11 10 -3 6 -1
10 4 10 6 0 11 -4 11 -10z m-50 -36 c0 -8 -4 -14 -10 -14 -5 0 -10 9 -10 21 0
11 5 17 10 14 6 -3 10 -13 10 -21z m-368 -24 c-2 -22 -9 -43 -15 -47 -7 -4 -8
5 -4 27 4 18 7 39 7 46 0 8 3 14 8 14 4 0 6 -18 4 -40z m597 -17 c10 -21 44
-85 76 -143 31 -58 84 -156 116 -217 l59 -113 -30 0 c-26 0 -33 5 -42 30 -13
38 -39 53 -70 41 -32 -12 -46 -30 -50 -66 -2 -21 -8 -29 -18 -26 -54 15 -78
12 -94 -10 -9 -13 -16 -31 -16 -40 0 -9 -8 -24 -19 -33 -17 -16 -19 -16 -25 6
-3 13 -6 40 -6 62 0 31 3 37 16 32 27 -10 104 15 121 40 14 21 13 35 -2 136
-9 62 -21 145 -25 183 -5 39 -12 89 -16 113 -8 52 0 54 25 5z m241 27 c0 -5
-2 -10 -4 -10 -3 0 -8 5 -11 10 -3 6 -1 10 4 10 6 0 11 -4 11 -10z m-590 -25
c0 -8 -2 -15 -4 -15 -2 0 -6 7 -10 15 -3 8 -1 15 4 15 6 0 10 -7 10 -15z m220
-22 c2 -2 -1 -13 -8 -23 -17 -28 -15 -53 3 -46 21 8 19 -8 -4 -28 -18 -16 -19
-15 -25 21 -4 21 -9 51 -12 66 -6 27 -4 28 17 22 13 -4 26 -9 29 -12z m-1009
-40 c-12 -20 -14 -14 -5 12 4 9 9 14 11 11 3 -2 0 -13 -6 -23z m520 -16 c-8
-8 -11 -7 -11 4 0 20 13 34 18 19 3 -7 -1 -17 -7 -23z m219 23 c0 -5 -5 -10
-11 -10 -5 0 -7 5 -4 10 3 6 8 10 11 10 2 0 4 -4 4 -10z m50 0 c0 -5 -5 -10
-11 -10 -5 0 -7 5 -4 10 3 6 8 10 11 10 2 0 4 -4 4 -10z m585 -10 c-3 -5 -12
-10 -19 -10 -8 0 -19 -7 -26 -15 -7 -8 -16 -12 -21 -9 -17 10 -9 21 24 32 43
13 49 14 42 2z m-95 -30 c0 -5 -2 -10 -4 -10 -3 0 -8 5 -11 10 -3 6 -1 10 4
10 6 0 11 -4 11 -10z m1390 3 c-1 -15 -30 -46 -37 -40 -3 4 2 16 12 27 19 21
25 24 25 13z m-194 -30 c4 -16 8 -37 8 -48 1 -11 18 -51 40 -88 40 -71 42 -86
8 -68 -12 6 -33 11 -49 11 -16 0 -36 9 -46 20 -9 11 -24 20 -32 20 -19 0 -12
39 16 88 14 24 15 34 6 37 -6 2 -19 5 -27 8 -10 3 -6 8 13 16 15 6 27 15 27
21 0 22 28 8 36 -17z m50 -40 c-14 -14 -23 9 -13 32 l12 25 3 -26 c2 -14 1
-28 -2 -31z m-2006 30 c-1 -18 -18 -35 -24 -24 -4 6 -4 16 -1 21 7 12 25 13
25 3z m-698 -55 c2 -15 11 -24 26 -26 29 -4 28 -22 -3 -68 -38 -56 -37 -81 7
-136 25 -33 35 -38 70 -38 32 0 47 7 74 34 19 19 34 43 34 54 0 27 18 38 27
16 6 -15 -27 -133 -45 -162 -12 -18 -40 -4 -44 21 -4 29 -32 28 -36 0 -4 -27
-18 -28 -141 -10 -72 11 -87 17 -104 39 -11 15 -17 34 -14 42 8 20 46 21 53 1
7 -17 30 -20 39 -5 4 6 1 18 -6 26 -17 21 -13 156 6 201 17 39 52 46 57 11z
m158 6 c0 -8 -5 -12 -10 -9 -6 4 -8 11 -5 16 9 14 15 11 15 -7z m-1056 -16 c3
-13 6 -34 6 -49 0 -36 44 -198 64 -237 20 -38 14 -52 -20 -52 -17 0 -27 8 -34
24 -5 13 -22 28 -38 34 -18 6 -34 22 -42 41 -15 36 -48 48 -82 30 -31 -17 -47
-39 -48 -67 0 -14 -12 -29 -32 -42 -32 -19 -68 -27 -68 -14 0 18 267 354 281
354 4 0 9 -10 13 -22z m1876 12 c0 -13 -20 -13 -40 0 -12 8 -9 10 13 10 15 0
27 -4 27 -10z m-308 -115 c-14 -77 -22 -101 -35 -103 -12 -2 -17 3 -17 18 0
13 4 19 11 14 8 -5 10 3 6 27 -8 41 5 100 29 137 25 38 26 20 6 -93z m528 -18
c0 -25 3 -27 23 -22 12 4 29 9 38 11 17 5 33 -19 22 -30 -4 -3 -19 -6 -35 -6
-41 0 -37 -28 5 -32 41 -4 43 -29 2 -40 -54 -14 -62 -6 -69 85 -4 45 -9 100
-11 122 -5 38 -4 38 10 -10 8 -27 15 -63 15 -78z m-334 65 c-12 -11 -18 7 -10
30 l8 23 4 -23 c2 -13 1 -26 -2 -30z m104 2 c0 -9 -5 -14 -12 -12 -18 6 -21
28 -4 28 9 0 16 -7 16 -16z m-530 -9 c0 -8 -4 -15 -10 -15 -5 0 -10 7 -10 15
0 8 5 15 10 15 6 0 10 -7 10 -15z m371 -208 c3 -128 1 -161 -10 -165 -9 -3
-11 1 -7 16 4 13 1 25 -9 34 -44 37 -43 30 -24 150 10 62 21 131 25 153 l8 40
7 -33 c4 -19 8 -106 10 -195z m804 213 c3 -6 -1 -7 -9 -4 -18 7 -21 14 -7 14
6 0 13 -4 16 -10z m-1521 -100 c-4 -18 -3 -21 4 -11 6 8 17 11 25 8 10 -4 19
4 27 24 14 32 30 39 30 12 0 -28 -34 -77 -65 -93 -27 -14 -28 -14 -56 20 -16
19 -29 38 -29 42 0 5 12 27 27 50 l28 41 7 -34 c4 -19 4 -45 2 -59z m1186 70
c0 -5 -4 -10 -10 -10 -5 0 -10 5 -10 10 0 6 5 10 10 10 6 0 10 -4 10 -10z
m1047 4 c-3 -3 -12 -4 -19 -1 -8 3 -5 6 6 6 11 1 17 -2 13 -5z m-687 -25 c0
-6 -4 -7 -10 -4 -5 3 -10 11 -10 16 0 6 5 7 10 4 6 -3 10 -11 10 -16z m1193 6
c-3 -9 -8 -14 -10 -11 -3 3 -2 9 2 15 9 16 15 13 8 -4z m-266 -5 l52 0 -6 -35
c-5 -28 -2 -35 11 -35 9 0 19 7 23 16 5 13 14 15 44 10 68 -11 89 -25 89 -62
0 -47 -17 -87 -35 -80 -8 3 -17 1 -20 -5 -13 -20 -23 -234 -12 -245 15 -16 5
-24 -28 -24 -34 0 -63 28 -50 49 9 16 -6 41 -25 41 -13 0 -20 -11 -25 -37 -4
-21 -9 -41 -12 -45 -7 -13 -43 12 -43 30 0 17 -62 145 -82 169 -20 25 -46 13
-87 -42 -53 -70 -57 -82 -37 -104 15 -17 15 -19 0 -32 -14 -12 -93 -13 -463
-11 -245 2 -449 6 -453 8 -5 3 -8 14 -8 25 0 30 -47 26 -62 -6 -11 -24 -16
-26 -62 -23 l-51 3 -1 48 c-1 26 0 47 3 47 2 0 11 -16 19 -35 13 -32 44 -49
44 -25 0 6 5 10 12 10 6 0 19 7 28 15 9 8 31 16 50 17 31 3 35 0 38 -22 6 -40
21 -48 41 -22 15 21 28 24 112 29 87 5 95 4 113 -16 26 -28 108 -29 150 -2 23
15 34 17 49 9 30 -16 50 12 51 69 l1 48 50 -3 c28 -2 78 -4 113 -5 l62 -2 0
-36 c0 -36 21 -66 38 -55 5 3 6 43 4 90 -6 117 3 176 29 176 11 0 19 7 19 16
0 13 -7 15 -31 10 -38 -7 -59 7 -52 35 8 27 39 38 84 28 23 -5 72 -3 130 5 52
8 103 12 114 10 11 -2 43 -4 72 -4z m-1597 -4 c0 -2 -9 -6 -20 -9 -11 -3 -18
-1 -14 4 5 9 34 13 34 5z m-825 -16 c-3 -5 -11 -10 -16 -10 -6 0 -7 5 -4 10 3
6 11 10 16 10 6 0 7 -4 4 -10z m275 0 c0 -5 -4 -10 -10 -10 -5 0 -10 5 -10 10
0 6 5 10 10 10 6 0 10 -4 10 -10z m-614 -28 c7 -17 7 -37 2 -54 -7 -19 -5 -35
6 -57 20 -38 20 -41 -4 -41 -10 0 -31 -5 -45 -12 -23 -10 -29 -9 -52 14 -20
20 -24 32 -19 53 6 22 12 26 34 23 25 -3 27 0 27 33 1 34 18 69 34 69 4 0 11
-12 17 -28z m1854 -3 c0 -6 -4 -7 -10 -4 -5 3 -10 1 -10 -4 0 -6 5 -11 10 -11
6 0 10 -11 10 -24 0 -13 7 -29 15 -36 8 -7 15 -19 15 -26 0 -30 -17 -11 -44
47 -22 48 -25 63 -15 70 15 9 29 3 29 -12z m-700 -8 c0 -12 -20 -25 -27 -18
-7 7 6 27 18 27 5 0 9 -4 9 -9z m-564 -38 c-10 -10 -19 5 -10 18 6 11 8 11 12
0 2 -7 1 -15 -2 -18z m1192 3 c3 -12 -1 -17 -10 -14 -7 3 -15 13 -16 22 -3 12
1 17 10 14 7 -3 15 -13 16 -22z m-718 -31 c0 -25 -4 -45 -8 -45 -6 0 -9 77 -3
88 6 12 11 -6 11 -43z m166 -113 c6 -88 5 -94 -12 -90 -17 3 -19 14 -22 93 -2
50 0 106 4 125 l7 35 8 -35 c4 -19 11 -77 15 -128z m-76 118 c0 -5 -4 -10 -10
-10 -5 0 -10 5 -10 10 0 6 5 10 10 10 6 0 10 -4 10 -10z m-406 -19 c16 -17 17
-26 7 -71 -17 -77 -14 -88 22 -106 40 -22 21 -30 -25 -11 -31 13 -37 22 -52
77 -18 63 -15 108 7 122 18 11 22 10 41 -11z m-1549 -10 c7 -22 -10 -71 -25
-71 -6 0 -16 11 -22 25 -9 21 -8 28 7 45 23 25 32 25 40 1z m1340 9 c3 -5 -1
-10 -9 -10 -9 0 -16 5 -16 10 0 6 4 10 9 10 6 0 13 -4 16 -10z m299 -23 c-3
-9 -12 -17 -20 -17 -17 0 -17 5 -2 30 14 22 32 12 22 -13z m831 -22 c17 -58
25 -65 45 -40 17 20 30 19 30 -3 0 -30 21 -44 41 -26 15 14 18 11 37 -27 12
-23 19 -46 16 -51 -3 -4 -43 -8 -89 -8 l-84 0 -40 59 c-31 45 -36 58 -23 57
13 -1 16 6 14 24 -9 82 31 93 53 15z m-1095 30 c0 -8 -4 -15 -10 -15 -5 0 -10
7 -10 15 0 8 5 15 10 15 6 0 10 -7 10 -15z m1364 -53 c16 -25 22 -47 19 -64
-5 -25 14 -46 42 -46 34 -1 -9 -58 -52 -69 -30 -7 -49 10 -64 55 -6 20 -22 55
-35 78 -27 45 -29 54 -14 54 6 0 15 -11 20 -25 5 -14 16 -25 24 -25 20 0 36
-32 30 -57 -7 -24 13 -40 29 -24 7 7 5 22 -9 52 -14 32 -15 44 -6 47 19 6 14
19 -10 27 -14 4 -18 8 -10 12 6 2 10 9 6 14 -3 5 -3 9 0 9 3 0 17 -17 30 -38z
m-788 -70 c-13 -12 -16 8 -9 49 l8 44 3 -44 c2 -23 1 -46 -2 -49z m1018 47
c-6 -10 -44 -12 -44 -3 0 3 5 15 11 26 11 21 12 21 25 3 7 -10 11 -22 8 -26z
m-1100 -2 c4 -19 3 -26 -4 -22 -5 3 -10 18 -10 32 0 32 5 28 14 -10z m-2674
14 c0 -10 -35 -21 -65 -21 -18 1 -17 2 5 15 28 16 60 19 60 6z m2430 5 c0 -3
-4 -8 -10 -11 -5 -3 -10 -1 -10 4 0 6 5 11 10 11 6 0 10 -2 10 -4z m697 -11
c5 -15 -21 -44 -39 -45 -10 0 -10 44 -1 53 12 12 33 7 40 -8z m-967 1 c0 -3
-4 -8 -10 -11 -5 -3 -10 -1 -10 4 0 6 5 11 10 11 6 0 10 -2 10 -4z m-451 -25
c-17 -14 -26 -16 -31 -8 -14 21 -8 27 23 27 l31 0 -23 -19z m-359 -1 c0 -5 -9
-14 -21 -20 -11 -7 -18 -17 -16 -24 3 -7 -8 -18 -23 -24 -15 -7 -30 -20 -34
-30 -3 -9 -11 -25 -18 -35 -11 -14 -11 -19 0 -26 8 -5 14 -27 14 -54 0 -54 20
-89 39 -70 10 10 16 7 30 -14 10 -14 15 -32 12 -39 -3 -8 6 -18 22 -24 38 -14
45 -13 45 10 0 11 5 20 10 20 14 0 12 -24 -2 -38 -10 -10 -10 -15 2 -22 17
-11 40 13 40 41 0 22 16 33 33 22 6 -4 28 -8 47 -9 82 -4 171 -17 176 -26 4
-6 -1 -17 -10 -26 -10 -11 -16 -12 -16 -4 0 7 -4 12 -8 12 -5 0 -8 -10 -8 -22
1 -15 -12 -30 -46 -51 -41 -25 -50 -28 -64 -16 -13 11 -17 10 -25 -4 -9 -16
-12 -16 -34 -1 -22 15 -25 15 -25 1 0 -23 -18 -31 -37 -16 -13 11 -17 10 -28
-4 -12 -16 -13 -16 -18 4 -7 25 -32 20 -32 -7 0 -10 -8 -20 -18 -22 -10 -2
-17 3 -17 11 0 8 -6 20 -14 26 -11 9 -15 8 -20 -5 -3 -9 -3 -21 1 -27 4 -6 0
-8 -10 -4 -9 3 -30 -1 -46 -9 -26 -13 -29 -18 -21 -35 13 -23 2 -25 -15 -2
-18 24 -37 7 -30 -28 6 -28 -7 -40 -20 -19 -11 18 -24 10 -27 -17 -3 -25 -7
-28 -48 -31 -69 -4 -77 5 -62 76 7 32 12 73 12 90 0 21 5 32 14 32 23 0 29 20
12 39 -23 25 -20 32 10 25 23 -6 25 -4 22 17 -2 15 -12 25 -28 29 -18 4 -26
13 -28 33 -3 24 0 27 28 27 17 0 40 -5 52 -11 18 -9 19 -8 13 10 -5 16 2 28
26 50 39 36 35 67 -9 56 -15 -3 -51 -9 -79 -11 -49 -5 -53 -4 -53 17 0 16 4
19 18 13 24 -11 82 -8 95 5 6 6 21 11 34 11 16 0 51 26 106 80 80 78 97 90 97
70z m300 0 c0 -5 -5 -10 -11 -10 -5 0 -7 5 -4 10 3 6 8 10 11 10 2 0 4 -4 4
-10z m598 -2 c16 -16 15 -38 -2 -38 -13 0 -26 20 -26 41 0 13 14 11 28 -3z
m-1442 -9 c3 -5 48 -9 100 -9 52 0 94 -3 94 -6 0 -3 -10 -14 -22 -24 -21 -17
-24 -27 -27 -109 l-1 -33 -187 6 c-104 3 -217 5 -252 6 -50 0 -62 3 -58 14 13
32 93 127 112 131 11 2 45 11 75 18 61 16 158 19 166 6z m994 2 c0 -5 -10 -13
-22 -17 -13 -4 -28 -14 -35 -23 -7 -9 -12 -11 -13 -4 0 12 47 53 61 53 5 0 9
-4 9 -9z m96 -28 c-10 -10 -19 5 -10 18 6 11 8 11 12 0 2 -7 1 -15 -2 -18z
m534 12 c10 -12 10 -15 -3 -15 -8 0 -20 7 -27 15 -10 12 -10 15 3 15 8 0 20
-7 27 -15z m-919 -5 c17 0 9 -18 -14 -33 -23 -15 -24 -14 -24 14 0 22 4 28 14
24 8 -3 19 -5 24 -5z m1672 -8 c22 -24 13 -32 -35 -32 -42 0 -46 5 -21 32 20
23 36 23 56 0z m-1323 -12 c0 -11 -4 -20 -10 -20 -5 0 -10 9 -10 20 0 11 5 20
10 20 6 0 10 -9 10 -20z m2389 -20 c11 -22 16 -42 11 -45 -5 -3 -16 11 -25 31
-27 65 -18 75 14 14z m-4514 21 c-6 -4 -23 -11 -40 -14 l-30 -6 30 14 c35 16
54 19 40 6z m2235 0 c0 -5 -8 -17 -17 -27 -18 -18 -30 -6 -19 21 6 16 36 21
36 6z m590 -27 c0 -9 -12 -14 -37 -14 l-36 0 23 25 c18 19 26 22 37 14 7 -6
13 -18 13 -25z m492 14 c-7 -7 -12 -8 -12 -2 0 14 12 26 19 19 2 -3 -1 -11 -7
-17z m-1233 -20 c-1 -31 -1 -31 -8 -8 -5 14 -6 28 -4 33 9 15 13 6 12 -25z
m674 -40 l127 1 0 -37 0 -37 -237 3 c-131 1 -244 5 -251 7 -9 3 -10 10 -3 22
6 10 19 39 30 65 l19 46 94 -35 c89 -34 98 -35 221 -35z m2113 0 c-6 -34 -4
-40 14 -45 11 -3 20 -14 20 -24 0 -16 -8 -19 -41 -19 l-40 0 5 50 c3 27 10 59
16 70 17 32 33 13 26 -32z m-2686 28 c0 -8 -4 -18 -10 -21 -5 -3 -10 3 -10 14
0 12 5 21 10 21 6 0 10 -6 10 -14z m-453 -18 c-3 -8 -6 -5 -6 6 -1 11 2 17 5
13 3 -3 4 -12 1 -19z m1293 12 c0 -5 -4 -10 -10 -10 -5 0 -10 5 -10 10 0 6 5
10 10 10 6 0 10 -4 10 -10z m-1390 -16 c0 -2 -7 -4 -15 -4 -8 0 -15 4 -15 10
0 5 7 7 15 4 8 -4 15 -8 15 -10z m1480 -9 c0 -9 -9 -15 -25 -15 -16 0 -25 6
-25 15 0 9 9 15 25 15 16 0 25 -6 25 -15z m-974 -16 c8 -14 -11 -33 -25 -25
-11 7 -4 36 9 36 5 0 12 -5 16 -11z m55 -42 c-21 -21 -32 7 -13 33 l17 25 3
-24 c2 -13 -1 -28 -7 -34z m149 34 c0 -18 -18 -21 -30 -6 -10 13 -9 15 9 15
11 0 21 -4 21 -9z m2208 -28 c3 -22 0 -23 -58 -23 -62 0 -65 2 -37 38 6 8 26
12 51 10 34 -2 42 -7 44 -25z m-1441 1 c2 -6 -8 -14 -22 -16 -20 -4 -25 -1
-25 14 0 14 6 19 22 16 12 -2 23 -8 25 -14z m-847 -4 c8 -5 12 -12 8 -15 -10
-10 -49 5 -43 16 8 11 16 11 35 -1z m705 -40 c3 -5 1 -10 -4 -10 -6 0 -11 5
-11 10 0 6 2 10 4 10 3 0 8 -4 11 -10z m-1717 -27 c6 -9 12 -21 12 -26 0 -6
-104 -7 -262 -3 -145 3 -287 6 -317 6 -53 0 -54 0 -36 19 22 25 40 27 340 23
218 -3 252 -5 263 -19z m987 18 c10 -17 94 -25 111 -10 12 9 77 13 269 13
l254 1 4 -25 c3 -14 3 -28 1 -31 -3 -5 -714 -1 -1152 6 -80 1 -101 9 -102 38
0 4 126 7 281 7 154 -1 283 1 287 4 9 9 40 7 47 -3z m780 -1 c3 -5 -1 -10 -9
-10 -8 0 -18 5 -21 10 -3 6 1 10 9 10 8 0 18 -4 21 -10z m-2712 -58 c9 -8 17
-25 17 -38 0 -30 -21 -82 -27 -66 -7 19 -23 4 -23 -23 0 -13 -4 -26 -9 -29 -5
-3 -14 -27 -20 -52 -10 -39 -9 -49 4 -64 17 -18 21 -55 5 -45 -6 4 -8 11 -5
16 4 5 0 9 -7 9 -7 0 -19 14 -27 30 -10 24 -10 34 -1 45 7 8 10 26 8 40 -3 14
-2 25 1 25 4 0 6 29 6 65 -1 57 1 65 17 65 21 0 24 20 6 39 -11 11 -8 12 12 6
14 -4 33 -14 43 -23z m2707 -6 c0 -3 -4 -8 -10 -11 -5 -3 -10 -1 -10 4 0 6 5
11 10 11 6 0 10 -2 10 -4z m-2494 -61 c18 -13 17 -14 -17 -15 -34 0 -77 -29
-63 -42 3 -3 1 -9 -5 -13 -7 -4 -11 5 -11 23 0 22 7 32 33 45 40 20 39 20 63
2z m2494 -5 c0 -5 -4 -10 -10 -10 -5 0 -10 5 -10 10 0 6 5 10 10 10 6 0 10 -4
10 -10z m-2808 -32 c-7 -7 -12 -8 -12 -2 0 14 12 26 19 19 2 -3 -1 -11 -7 -17z
m2725 -50 c-3 -7 -5 -2 -5 12 0 14 2 19 5 13 2 -7 2 -19 0 -25z m-2397 12 c0
-5 -4 -10 -10 -10 -5 0 -10 5 -10 10 0 6 5 10 10 10 6 0 10 -4 10 -10z m2470
-45 c0 -8 -4 -15 -10 -15 -5 0 -10 7 -10 15 0 8 5 15 10 15 6 0 10 -7 10 -15z
m-2515 -5 c3 -5 2 -10 -4 -10 -5 0 -13 5 -16 10 -3 6 -2 10 4 10 5 0 13 -4 16
-10z m2471 -38 c-4 -3 -14 2 -24 12 -16 18 -16 18 6 6 13 -6 21 -14 18 -18z
m-2366 -22 c0 -5 -4 -10 -10 -10 -5 0 -10 5 -10 10 0 6 5 10 10 10 6 0 10 -4
10 -10z m-295 -10 c3 -5 1 -10 -4 -10 -6 0 -11 5 -11 10 0 6 2 10 4 10 3 0 8
-4 11 -10z m1235 -10 c0 -5 -4 -10 -10 -10 -5 0 -10 5 -10 10 0 6 5 10 10 10
6 0 10 -4 10 -10z m-1100 -30 c0 -5 -11 -10 -25 -10 -14 0 -25 5 -25 10 0 6
11 10 25 10 14 0 25 -4 25 -10z m-84 -39 c22 4 34 -2 34 -17 0 -10 -6 -14 -15
-11 -8 4 -17 1 -21 -4 -3 -6 -12 2 -20 16 -18 34 -18 40 0 26 8 -6 18 -11 22
-10z m-66 -1 c0 -5 -2 -10 -4 -10 -3 0 -8 5 -11 10 -3 6 -1 10 4 10 6 0 11 -4
11 -10z m-30 -10 c0 -5 -4 -10 -10 -10 -5 0 -10 5 -10 10 0 6 5 10 10 10 6 0
10 -4 10 -10z m180 -14 c0 -20 -19 -31 -32 -18 -6 6 -7 15 -4 21 10 16 36 13
36 -3z m-117 -95 c-16 -15 -16 -15 -11 1 4 10 1 19 -8 22 -12 5 -11 9 3 26 18
20 18 20 25 -6 5 -19 2 -31 -9 -43z m125 -12 c-2 -6 -8 -10 -13 -10 -5 0 -11
4 -13 10 -2 6 4 11 13 11 9 0 15 -5 13 -11z m32 -38 c0 -6 -4 -13 -10 -16 -20
-13 -10 -27 15 -21 18 5 25 2 25 -8 0 -10 -50 -31 -56 -23 -1 1 -4 19 -7 40
-5 32 -3 37 14 37 10 0 19 -4 19 -9z m112 -97 c9 -3 19 -12 22 -20 6 -16 -10
-29 -19 -14 -9 15 -25 12 -25 -4 0 -20 -32 -28 -75 -20 -44 8 -47 25 -2 20 17
-3 33 -5 35 -5 9 -3 17 3 14 11 -5 19 10 49 21 44 7 -3 20 -9 29 -12z m-158
-40 c7 -18 -24 -19 -49 0 -11 8 -16 19 -12 30 6 15 9 15 31 1 13 -9 27 -23 30
-31z m313 3 c48 -32 52 -47 6 -24 -23 12 -33 12 -58 2 -37 -16 -65 -3 -65 30
0 43 46 41 117 -8z"/>
<path d="M3815 8070 c-3 -5 -1 -10 4 -10 6 0 11 5 11 10 0 6 -2 10 -4 10 -3 0
-8 -4 -11 -10z"/>
<path d="M4354 6558 l-19 -23 23 19 c21 18 27 26 19 26 -2 0 -12 -10 -23 -22z"/>
<path d="M3267 5204 c-4 -4 -7 -27 -7 -50 0 -23 -4 -54 -10 -69 -8 -21 -7 -27
7 -32 28 -11 44 26 41 91 -3 55 -14 77 -31 60z"/>
<path d="M2229 4941 c-45 -30 -134 -126 -156 -169 -7 -13 -13 -33 -13 -44 0
-34 24 -15 53 42 15 30 40 67 55 83 35 38 111 87 134 87 10 0 18 7 18 15 0 24
-43 18 -91 -14z"/>
<path d="M2557 4544 c-23 -24 13 -212 42 -222 11 -4 12 1 7 19 -4 13 -12 62
-18 109 -11 84 -18 107 -31 94z"/>
<path d="M2147 4153 c-15 -15 -4 -38 44 -94 49 -56 71 -70 83 -50 6 8 -102
149 -115 150 -3 1 -9 -2 -12 -6z"/>
<path d="M3095 4826 c-38 -16 -65 -46 -42 -46 22 0 107 40 107 50 0 14 -29 12
-65 -4z"/>
<path d="M2938 4722 c-37 -44 -64 -110 -50 -124 15 -15 24 -5 42 42 7 19 24
49 37 67 27 37 28 43 9 43 -8 0 -25 -13 -38 -28z"/>
<path d="M2968 4668 c-32 -50 -40 -98 -17 -98 6 0 59 104 59 116 0 14 -30 0
-42 -18z"/>
<path d="M3655 4640 c-7 -12 2 -30 16 -30 5 0 9 9 9 20 0 21 -15 27 -25 10z"/>
<path d="M3022 4603 c-7 -3 -19 -18 -27 -34 -9 -17 -24 -29 -35 -29 -17 0 -20
-7 -20 -45 0 -28 4 -45 12 -45 6 0 20 -7 30 -16 17 -16 17 -14 15 42 -2 48 2
65 22 92 24 34 25 42 3 35z"/>
<path d="M3045 4505 c-17 -56 -17 -106 -1 -105 5 0 11 21 12 47 1 27 7 60 13
75 6 16 7 30 1 33 -5 3 -16 -19 -25 -50z"/>
<path d="M2874 4505 c-9 -21 25 -94 49 -106 10 -6 25 -8 33 -5 12 4 7 14 -20
42 -20 21 -36 45 -36 55 0 24 -19 34 -26 14z"/>
<path d="M3095 4417 c-4 -10 -5 -21 -1 -24 10 -10 18 4 13 24 -4 17 -4 17 -12
0z"/>
<path d="M3186 4395 c-3 -8 -1 -17 3 -20 5 -3 11 2 15 10 3 8 1 17 -3 20 -5 3
-11 -2 -15 -10z"/>
<path d="M3236 4381 c-4 -7 -5 -15 -2 -18 9 -9 19 4 14 18 -4 11 -6 11 -12 0z"/>
<path d="M3285 4360 c-3 -5 -1 -10 4 -10 6 0 11 5 11 10 0 6 -2 10 -4 10 -3 0
-8 -4 -11 -10z"/>
<path d="M3421 4316 c-7 -8 -8 -17 -3 -20 6 -3 15 1 21 8 7 8 8 17 3 20 -6 3
-15 -1 -21 -8z"/>
<path d="M3477 4323 c-4 -3 -7 -19 -7 -35 0 -40 24 -31 28 10 3 30 -6 41 -21
25z"/>
<path d="M3519 4307 c-12 -27 -6 -62 10 -53 14 9 23 58 12 69 -7 7 -14 2 -22
-16z"/>
<path d="M1670 2945 c0 -8 4 -15 9 -15 4 0 29 -16 55 -36 42 -32 66 -37 66
-14 0 14 -92 79 -112 80 -10 0 -18 -7 -18 -15z"/>
<path d="M1685 2871 c-6 -10 46 -51 64 -51 22 0 10 30 -19 45 -34 18 -37 18
-45 6z"/>
<path d="M1672 2803 c2 -10 13 -19 26 -21 24 -4 29 7 10 26 -18 18 -40 15 -36
-5z"/>
<path d="M1660 2745 c0 -10 7 -15 18 -13 21 4 19 22 -2 26 -10 2 -16 -3 -16
-13z"/>
<path d="M1625 2679 c-10 -15 1 -23 20 -15 9 3 13 10 10 16 -8 13 -22 13 -30
-1z"/>
<path d="M1580 2590 c0 -5 5 -10 10 -10 6 0 10 5 10 10 0 6 -4 10 -10 10 -5 0
-10 -4 -10 -10z"/>
<path d="M830 1636 c0 -7 7 -19 15 -26 19 -16 41 1 32 24 -8 20 -47 21 -47 2z"/>
<path d="M1675 2495 c-19 -15 -19 -15 10 -13 17 2 29 7 28 13 -3 16 -18 16
-38 0z"/>
<path d="M4754 1899 c-8 -14 11 -33 25 -25 6 4 11 14 11 22 0 16 -26 19 -36 3z"/>
<path d="M4620 1747 l-35 -11 38 -10 c35 -9 37 -12 37 -48 0 -27 4 -38 15 -38
20 0 29 43 16 69 -6 11 -10 26 -9 33 4 16 -20 19 -62 5z"/>
<path d="M4405 1721 c-9 -15 13 -23 45 -16 45 10 46 25 1 25 -22 0 -42 -4 -46
-9z"/>
<path d="M4791 1706 c-8 -9 -3 -18 20 -35 44 -33 82 -14 42 21 -27 23 -50 28
-62 14z"/>
<path d="M4546 1691 c-3 -5 1 -14 8 -20 16 -13 32 2 21 19 -8 12 -22 13 -29 1z"/>
<path d="M4604 1676 c-8 -22 3 -33 18 -18 9 9 9 15 0 24 -9 9 -13 7 -18 -6z"/>
<path d="M4715 1680 c3 -5 8 -10 11 -10 2 0 4 5 4 10 0 6 -5 10 -11 10 -5 0
-7 -4 -4 -10z"/>
<path d="M4414 1665 c-7 -17 4 -37 17 -30 12 8 12 45 -1 45 -6 0 -13 -7 -16
-15z"/>
<path d="M4477 1674 c-8 -8 1 -24 14 -24 5 0 9 7 9 15 0 15 -12 20 -23 9z"/>
<path d="M4766 1644 c-8 -20 1 -34 20 -34 8 0 14 10 14 25 0 28 -24 34 -34 9z"/>
<path d="M4710 1630 c0 -5 5 -10 10 -10 6 0 10 5 10 10 0 6 -4 10 -10 10 -5 0
-10 -4 -10 -10z"/>
<path d="M4805 1610 c-3 -11 -3 -25 0 -30 10 -16 35 8 35 31 0 25 -27 24 -35
-1z"/>
<path d="M4667 1602 c-5 -7 -10 -71 -8 -109 2 -36 29 -28 33 10 7 70 -8 128
-25 99z"/>
<path d="M4154 1499 c-10 -17 13 -36 27 -22 12 12 4 33 -11 33 -5 0 -12 -5
-16 -11z"/>
<path d="M1490 1230 c0 -11 0 -23 0 -27 0 -5 6 -8 13 -8 6 0 12 12 12 28 1 16
-4 27 -12 27 -7 0 -13 -9 -13 -20z"/>
<path d="M1561 1201 c-6 -10 -7 -21 -4 -25 7 -7 43 23 43 36 0 16 -29 8 -39
-11z"/>
<path d="M1607 1141 c-6 -25 10 -38 26 -22 8 8 7 15 -5 27 -14 14 -16 14 -21
-5z"/>
<path d="M1726 1133 c-9 -9 -7 -33 3 -33 12 0 22 28 12 34 -5 3 -11 3 -15 -1z"/>
<path d="M1860 1132 c0 -17 21 -25 31 -13 5 6 6 9 3 6 -4 -3 -13 0 -21 6 -9 8
-13 8 -13 1z"/>
<path d="M4473 7416 c-26 -54 -26 -55 -9 -98 16 -42 16 -43 -4 -57 -24 -16
-28 -71 -5 -71 20 0 84 33 85 44 0 5 11 19 25 32 14 13 25 31 25 41 0 13 -3
14 -12 5 -15 -15 -28 -16 -28 -2 0 6 11 15 25 20 26 10 33 34 15 45 -6 4 -17
1 -25 -5 -21 -18 -32 -5 -39 45 -4 24 -11 47 -16 50 -6 3 -22 -19 -37 -49z
m24 -78 c-3 -7 -5 -2 -5 12 0 14 2 19 5 13 2 -7 2 -19 0 -25z"/>
<path d="M1598 6893 c7 -3 16 -2 19 1 4 3 -2 6 -13 5 -11 0 -14 -3 -6 -6z"/>
<path d="M4716 1024 c-21 -21 -36 -46 -36 -60 0 -21 -5 -24 -36 -24 -19 0 -44
-5 -55 -10 -44 -24 -5 -80 56 -80 29 -1 29 -1 11 -15 -11 -8 -32 -15 -46 -15
-15 0 -35 -9 -45 -20 -24 -27 -7 -46 50 -55 54 -8 58 -26 9 -44 -34 -12 -35
-14 -32 -59 3 -41 6 -47 27 -50 22 -4 23 -1 18 31 -6 36 14 70 27 48 17 -27
28 -132 27 -261 -1 -110 2 -150 12 -164 29 -39 36 -8 36 157 1 103 -4 183 -13
219 -7 32 -11 60 -8 63 3 3 56 5 118 5 142 0 164 7 164 55 0 45 -13 48 -158
38 -101 -8 -136 -3 -119 14 3 3 49 5 102 5 52 0 98 4 100 9 11 17 -23 23 -107
21 -54 -1 -88 1 -88 8 0 14 32 19 142 22 96 3 120 10 102 28 -7 7 -37 7 -88 0
-80 -10 -156 -5 -156 11 0 5 25 9 55 9 31 0 55 4 55 10 0 13 -15 19 -65 23
-63 6 -51 23 27 38 58 11 74 18 77 33 5 28 -26 46 -80 46 -41 0 -52 -5 -83
-36z m109 -4 c0 -18 -33 -26 -47 -12 -6 6 -7 15 -3 22 10 16 50 8 50 -10z
m-165 -120 c0 -5 -4 -10 -9 -10 -6 0 -13 5 -16 10 -3 6 1 10 9 10 9 0 16 -4
16 -10z m0 -120 c0 -5 -7 -10 -15 -10 -8 0 -15 5 -15 10 0 6 7 10 15 10 8 0
15 -4 15 -10z m315 -31 c11 -17 -3 -23 -78 -30 -76 -7 -177 -1 -177 11 0 4 48
11 108 17 59 5 115 10 124 11 9 1 20 -3 23 -9z"/>
<path d="M4770 645 c-10 -12 -10 -18 0 -30 20 -25 55 -15 55 15 0 30 -35 40
-55 15z"/>
</g>
</svg>
