<?xml version="1.0" standalone="no"?>
<!DOCTYPE svg PUBLIC "-//W3C//DTD SVG 20010904//EN"
 "http://www.w3.org/TR/2001/REC-SVG-20010904/DTD/svg10.dtd">
<svg version="1.0" xmlns="http://www.w3.org/2000/svg"
 width="500.000000pt" height="878.000000pt" viewBox="0 0 500.000000 878.000000"
 preserveAspectRatio="xMidYMid meet">
<metadata>
Created by potrace 1.15, written by Peter Selinger 2001-2017
</metadata>
<g transform="translate(0.000000,878.000000) scale(0.100000,-0.100000)"
fill="#000000" stroke="none">
<path d="M3363 8238 c-4 -7 -6 -20 -5 -30 2 -9 -4 -33 -13 -53 -19 -47 -19
-68 0 -105 9 -17 12 -30 7 -30 -4 0 -22 -13 -40 -29 -58 -54 -33 -148 27 -100
25 21 121 28 121 9 0 -6 -16 -24 -35 -41 -40 -35 -44 -54 -16 -69 31 -16 66
-12 96 12 l28 22 17 -22 c13 -15 20 -56 29 -154 6 -73 14 -153 16 -178 3 -25
1 -60 -5 -78 -6 -22 -5 -53 1 -90 8 -42 8 -66 -2 -94 -11 -35 -10 -40 10 -62
21 -22 22 -30 16 -97 -5 -48 -13 -78 -23 -86 -8 -7 -31 -43 -51 -79 -20 -37
-45 -72 -56 -78 -66 -37 -207 -193 -251 -278 -15 -29 -18 -30 -61 -24 -39 5
-49 2 -76 -20 -27 -23 -36 -25 -76 -19 -66 10 -88 25 -113 75 -13 24 -30 47
-38 51 -99 45 -114 49 -179 49 -65 0 -71 2 -96 31 -14 18 -35 49 -46 70 -20
39 -53 66 -63 50 -3 -5 3 -20 14 -34 11 -14 20 -34 20 -44 0 -11 7 -28 15 -39
23 -31 18 -37 -29 -32 -51 6 -69 -2 -64 -28 3 -18 13 -19 154 -15 142 3 154 2
195 -20 24 -12 51 -25 59 -29 8 -4 16 -23 18 -44 2 -28 9 -40 28 -48 13 -6 42
-35 64 -65 43 -57 83 -88 99 -79 15 10 41 67 41 91 0 11 5 26 12 33 13 13 29
16 27 5 -6 -39 23 -44 52 -10 l20 22 -5 -40 c-3 -22 -6 -58 -7 -80 -2 -71 12
-519 17 -535 9 -25 24 -220 18 -233 -3 -9 -22 3 -57 35 -50 46 -118 85 -199
114 -21 7 -71 35 -111 62 -128 84 -314 151 -424 152 -32 0 -29 -28 3 -40 14
-6 40 -10 57 -10 82 0 268 -74 345 -137 24 -19 69 -44 100 -56 31 -11 69 -28
84 -38 14 -11 32 -19 40 -19 21 0 98 -83 98 -107 0 -25 25 -47 45 -39 8 3 15
16 15 30 0 19 4 23 19 19 10 -3 22 0 26 6 14 23 14 148 0 234 -8 50 -17 207
-21 357 -7 265 -7 268 15 304 39 63 52 49 51 -56 -1 -51 3 -115 9 -143 6 -27
14 -155 18 -282 6 -214 5 -235 -12 -252 -14 -17 -16 -31 -10 -93 10 -107 10
-108 58 -108 68 0 29 -16 -73 -30 -52 -7 -120 -20 -151 -30 -48 -14 -58 -15
-76 -3 -12 8 -48 17 -80 20 -32 4 -78 17 -102 30 -78 41 -102 22 -27 -22 24
-14 47 -32 50 -40 3 -8 21 -17 40 -21 21 -3 36 -12 36 -20 0 -19 -32 -32 -38
-16 -5 17 -52 39 -82 38 -20 -1 -25 -5 -22 -25 3 -33 21 -53 42 -46 19 6 47
-20 31 -29 -17 -11 -59 12 -87 49 -18 24 -34 35 -47 33 -34 -5 -30 -25 13 -72
44 -47 95 -70 136 -60 12 3 25 1 28 -5 5 -7 -3 -11 -19 -11 -14 0 -39 -7 -55
-15 -51 -26 -34 -85 24 -89 21 -1 25 -7 28 -43 2 -24 0 -43 -4 -43 -5 0 -8 8
-8 19 0 26 -25 44 -50 36 -14 -5 -22 -1 -26 12 -25 76 -44 93 -109 93 -34 0
-85 -18 -85 -30 0 -17 26 -27 63 -23 43 4 78 -9 63 -24 -5 -4 -11 -2 -13 5 -6
17 -23 15 -45 -5 -17 -15 -21 -15 -53 0 -33 16 -36 16 -70 -4 -41 -24 -42 -32
-14 -60 27 -27 21 -54 -11 -54 -24 0 -25 3 -25 55 0 52 -1 55 -27 58 -38 4
-71 -31 -66 -69 3 -18 1 -28 -6 -26 -6 2 -14 20 -17 41 -3 20 -11 42 -16 47
-15 15 -58 1 -84 -27 -18 -19 -20 -26 -9 -39 7 -8 18 -15 24 -15 15 -1 64 -39
50 -40 -19 0 -107 42 -140 66 -17 13 -36 24 -41 24 -16 0 -23 26 -10 39 6 6
17 11 24 11 23 0 63 48 63 75 0 14 2 25 5 25 2 0 23 -18 45 -40 22 -22 43 -40
46 -40 3 0 20 12 39 27 18 15 53 32 77 38 23 7 50 14 58 16 11 3 14 -3 12 -19
-5 -36 26 -40 54 -6 29 36 30 50 2 65 -21 12 -21 12 8 27 53 28 113 83 119
111 6 28 -18 100 -39 113 -6 4 -20 8 -32 8 -21 0 -84 68 -84 91 0 14 1 13 199
-41 85 -23 181 -55 214 -71 60 -29 77 -30 77 -4 0 34 -91 71 -305 125 -174 44
-325 125 -325 175 0 35 -14 45 -106 77 -74 26 -105 31 -184 32 -133 1 -206
-17 -248 -61 -18 -20 -35 -33 -39 -30 -3 3 9 36 26 73 l31 67 25 -23 c20 -18
31 -22 62 -17 21 4 45 15 54 26 15 18 32 21 140 25 68 3 158 8 199 11 86 8
306 -24 375 -54 23 -10 57 -21 78 -25 21 -4 50 -20 69 -39 83 -82 148 -158
161 -189 17 -39 52 -73 66 -63 6 3 11 20 11 37 0 21 -6 31 -19 35 -11 3 -24
18 -30 34 -5 16 -14 29 -19 29 -5 0 -39 36 -75 79 -72 86 -97 102 -232 144
-145 45 -268 54 -598 43 -89 -3 -110 -1 -114 11 -4 10 -15 13 -34 9 -36 -7
-37 -1 -4 20 23 15 27 15 43 2 15 -14 23 -14 72 1 70 22 149 42 178 46 13 2
32 11 42 20 16 14 31 16 82 12 35 -3 74 -8 88 -11 53 -9 186 -25 204 -23 13 1
37 -21 73 -68 59 -77 88 -92 99 -51 3 14 1 40 -5 57 -13 37 -6 55 15 38 7 -6
11 -15 8 -20 -12 -21 10 -72 47 -109 26 -25 39 -47 39 -65 0 -29 26 -75 43
-75 6 0 23 -15 38 -32 24 -29 28 -31 34 -15 11 27 -14 76 -47 93 -24 12 -27
18 -18 29 9 11 10 49 5 139 -6 104 -5 132 10 176 9 28 14 54 11 58 -12 11
-100 33 -158 39 -59 6 -67 10 -47 30 21 21 2 46 -30 40 -15 -3 -32 -2 -37 2
-16 14 -86 30 -224 51 -74 11 -157 25 -183 31 -82 19 -216 -7 -358 -69 -57
-25 -159 -99 -195 -141 -24 -29 -64 -42 -64 -22 0 5 13 22 30 37 16 16 40 39
52 51 13 12 34 36 47 53 13 18 39 39 57 48 20 9 34 23 34 34 0 30 -28 20 -80
-28 -26 -25 -54 -44 -62 -43 -39 5 -57 -5 -98 -55 -48 -58 -70 -74 -70 -51 0
22 105 119 217 200 57 41 107 75 111 75 5 0 19 11 31 24 12 13 48 33 79 44 98
34 182 55 188 49 7 -7 64 22 76 38 4 6 8 22 8 37 0 29 -21 42 -77 47 -21 2
-14 21 7 21 11 0 20 5 20 10 0 6 -7 10 -15 10 -29 0 -15 17 26 30 58 19 99 60
99 99 0 20 -7 34 -20 41 -11 6 -20 18 -20 27 0 9 -8 26 -19 37 -26 30 -34 71
-16 86 8 7 15 20 15 29 0 16 -53 74 -75 82 -5 3 -27 15 -48 28 -43 27 -47 58
-9 77 39 19 71 55 88 100 15 41 15 45 0 69 -21 31 -45 41 -111 44 -62 2 -88
28 -80 78 5 25 1 35 -14 45 -17 10 -19 20 -14 78 7 80 -15 156 -60 212 -33 41
-75 58 -143 58 -23 0 -58 7 -77 15 -53 22 -56 1 -7 -43 58 -52 65 -67 65 -152
0 -63 4 -81 24 -108 26 -37 22 -69 -7 -56 -30 15 -120 8 -170 -13 -64 -28
-114 -43 -141 -43 -36 0 -83 -29 -137 -85 -73 -76 -99 -133 -99 -222 0 -68 -1
-72 -15 -52 -16 20 -16 20 -65 -13 -148 -99 -99 -238 84 -238 l69 0 7 -42 c10
-59 14 -63 39 -39 l22 21 31 -28 c17 -15 39 -33 49 -40 17 -11 17 -12 -6 -6
-14 3 -35 16 -48 28 -23 21 -24 21 -38 2 -18 -25 -18 -31 1 -46 8 -7 15 -18
15 -25 0 -8 12 -28 27 -46 18 -20 26 -41 24 -57 -1 -13 3 -37 9 -53 10 -24 24
-33 74 -48 l61 -19 -3 -38 c-6 -93 -10 -99 -101 -186 l-89 -84 -7 -74 c-4 -41
-15 -86 -24 -99 -13 -21 -16 -54 -16 -181 0 -144 -2 -158 -23 -192 -33 -53
-39 -166 -17 -312 14 -98 15 -131 6 -213 -6 -54 -13 -141 -16 -193 -3 -52 -10
-162 -16 -245 -40 -609 -47 -764 -64 -1305 -9 -272 -20 -602 -25 -733 -5 -136
-6 -247 -1 -260 5 -13 34 -42 65 -65 54 -41 56 -44 56 -90 0 -57 3 -62 59 -96
l43 -28 -4 -78 c-1 -43 -6 -81 -9 -84 -3 -4 -359 -9 -790 -12 -431 -3 -790 -7
-797 -9 -6 -3 -12 -14 -12 -25 0 -20 5 -20 288 -20 158 -1 350 -1 427 0 88 0
135 -3 126 -9 -8 -5 -63 -10 -123 -10 -59 -1 -120 -6 -134 -11 -14 -6 -149
-10 -305 -10 -228 0 -279 -2 -279 -14 0 -19 117 -26 388 -23 122 1 222 -1 222
-5 0 -5 -10 -8 -23 -8 -12 0 -55 -9 -95 -20 -79 -22 -172 -26 -204 -9 -21 11
-223 13 -265 2 -56 -14 -12 -22 105 -20 90 1 134 -2 151 -12 36 -20 146 -16
226 9 74 24 85 24 380 1 115 -9 358 -4 460 10 160 22 195 23 195 5 0 -11 -9
-16 -32 -16 -17 0 -70 -11 -117 -25 -200 -57 -303 -74 -514 -87 -157 -9 -222
-9 -265 0 -60 12 -77 10 -222 -26 -47 -12 -106 -26 -133 -32 -212 -45 -257
-59 -257 -75 0 -12 7 -12 47 0 27 8 102 24 168 35 66 11 144 27 173 35 28 8
75 21 103 29 28 8 60 12 72 9 52 -13 290 -15 397 -3 139 15 326 52 396 79 37
14 85 21 185 25 74 3 148 8 164 11 22 5 48 -2 98 -26 l69 -32 -7 -35 c-6 -32
-3 -38 43 -81 48 -44 50 -48 56 -116 4 -38 10 -96 13 -129 l6 -58 -179 1 c-99
1 -276 -1 -394 -4 -403 -11 -764 -11 -788 -1 -35 15 -23 38 23 42 125 11 227
44 233 76 5 23 -31 28 -193 24 -90 -2 -169 -10 -220 -22 -87 -21 -227 -24
-377 -9 -76 7 -88 6 -88 -7 0 -12 17 -17 78 -22 233 -19 286 -18 398 3 60 11
134 21 164 22 100 2 163 -1 157 -7 -3 -3 -45 -12 -94 -19 -48 -7 -101 -18
-117 -24 -28 -11 -30 -19 -11 -63 5 -14 -3 -20 -49 -33 -103 -30 -116 -74 -31
-109 71 -30 142 -31 215 -3 70 26 224 44 278 32 18 -3 32 -14 35 -26 5 -17 15
-19 106 -19 62 0 101 -4 101 -10 0 -13 -44 -30 -78 -30 -15 0 -43 -9 -62 -20
-112 -65 -172 -82 -287 -81 -84 1 -349 -16 -460 -30 -130 -15 -343 -97 -343
-131 0 -17 4 -16 50 7 28 14 101 42 163 62 100 32 132 37 297 49 102 7 219 10
261 7 121 -9 228 16 300 70 15 10 57 25 95 33 78 17 106 37 102 73 -3 21 2 26
32 34 19 5 62 8 95 8 33 -1 96 3 140 8 130 15 259 -2 420 -55 l70 -23 14 -96
c11 -76 12 -104 3 -129 -7 -18 -12 -47 -12 -66 l0 -33 -42 6 c-24 3 -81 12
-128 20 -47 8 -132 18 -190 21 -58 4 -119 9 -137 12 -20 4 -44 0 -64 -10 -18
-9 -43 -16 -56 -16 -34 0 -27 -29 10 -43 35 -13 5 -27 -56 -26 -34 0 -100 6
-147 14 -47 8 -246 20 -445 26 l-360 12 -65 -22 c-36 -12 -106 -30 -157 -41
-122 -25 -194 -62 -192 -99 0 -11 2 -12 6 -3 9 23 61 41 179 63 66 11 125 26
132 32 17 13 112 27 112 15 0 -4 7 -8 15 -8 8 0 15 5 15 10 0 6 5 10 11 10 5
0 7 -5 4 -10 -5 -7 3 -8 22 -3 47 13 174 8 183 -7 7 -11 12 -11 23 -2 11 9 71
11 233 8 177 -4 238 -9 319 -27 102 -22 213 -26 247 -8 24 13 23 42 -2 64 -33
30 -24 37 43 32 34 -3 98 -7 142 -10 44 -3 127 -14 184 -26 57 -12 117 -21
133 -21 22 0 43 -12 75 -40 38 -36 49 -41 86 -39 30 1 62 -8 117 -35 41 -20
89 -36 107 -36 23 0 33 -5 33 -15 0 -9 -9 -15 -22 -15 -13 0 -552 -2 -1198 -4
-646 -3 -1181 -6 -1187 -7 -7 -1 -13 -11 -13 -22 0 -20 6 -20 1398 -13 768 3
1570 9 1782 11 212 3 708 8 1103 11 l717 6 0 23 c0 23 -2 24 -132 28 -75 2
-155 11 -183 19 -56 17 -62 29 -64 116 l-1 52 190 0 c183 0 190 1 190 20 0 19
-7 20 -189 20 -188 0 -189 0 -194 23 -7 28 -1 203 7 216 9 14 226 3 294 -14
72 -19 82 -19 82 3 0 21 -31 50 -48 44 -7 -2 -20 0 -30 4 -23 11 -28 11 -97
14 l-60 3 57 7 c70 9 108 32 108 64 0 18 -9 27 -40 40 -22 9 -47 16 -55 16 -7
0 -15 10 -17 23 -3 20 -9 22 -61 23 -68 1 -91 14 -26 14 45 1 121 10 127 15 2
2 1 13 -3 25 -7 22 -10 22 -90 4 -17 -4 -21 0 -20 23 0 26 -3 28 -50 33 -42 4
-50 8 -50 25 0 14 6 19 20 18 33 -3 91 16 109 35 15 18 15 21 -5 45 -18 24
-28 27 -79 27 -77 0 -108 -26 -117 -98 l-5 -49 -72 -13 c-39 -7 -78 -16 -87
-21 -48 -25 -15 -78 49 -80 30 -1 24 -4 -33 -15 -43 -9 -77 -22 -90 -35 l-20
-20 24 -20 c13 -10 34 -19 47 -19 32 0 31 -16 -2 -24 -14 -4 -39 -16 -54 -28
-26 -19 -38 -20 -123 -15 -59 3 -107 12 -127 22 -23 12 -51 16 -99 13 l-66 -3
-7 175 c-3 96 -3 177 0 181 4 3 29 11 55 17 26 7 62 22 78 35 29 20 42 22 187
23 220 1 327 12 355 35 l22 19 -24 20 c-13 11 -29 20 -37 20 -8 0 -14 7 -14
15 0 12 18 15 104 15 58 0 107 -4 110 -9 11 -18 67 -21 91 -5 19 12 38 14 94
8 61 -6 71 -4 71 9 0 12 -15 17 -57 22 -32 3 -70 8 -85 10 -17 3 -34 -2 -44
-12 -13 -14 -21 -14 -47 -5 -38 14 -302 21 -334 9 -37 -14 -27 -37 27 -59 27
-11 47 -24 45 -29 -8 -12 -123 -21 -302 -22 -156 -2 -162 -3 -187 -26 -25 -23
-112 -46 -121 -31 -8 13 -27 497 -23 607 3 114 11 143 30 108 18 -30 77 -83
151 -131 37 -24 70 -44 74 -44 8 0 133 -103 162 -134 24 -26 61 -35 61 -16 0
31 195 -33 230 -75 7 -8 20 -15 30 -15 10 0 35 -7 56 -16 29 -12 56 -15 102
-11 38 4 73 2 90 -5 38 -16 142 -17 142 -1 0 7 -19 17 -42 24 -24 6 -63 18
-87 26 -28 9 -61 13 -90 9 -83 -11 -151 -2 -165 21 -12 22 -144 81 -223 99
-58 13 -83 27 -178 98 -60 46 -128 93 -150 104 -22 12 -51 31 -64 42 l-24 20
96 98 c53 53 124 134 158 180 63 85 97 116 123 110 16 -3 172 -144 276 -249
78 -79 177 -163 245 -208 28 -19 67 -50 88 -69 23 -22 37 -30 37 -22 0 29 -38
72 -106 121 -38 28 -86 67 -107 87 -39 37 -97 116 -97 131 0 15 101 139 126
156 25 16 26 16 82 -36 31 -29 67 -64 79 -78 l22 -26 1 30 c0 44 -110 153
-163 162 -36 5 -40 3 -115 -76 -43 -44 -85 -81 -94 -81 -9 0 -71 50 -137 110
-133 123 -152 130 -207 82 -17 -15 -52 -57 -78 -93 -65 -94 -234 -266 -269
-275 -51 -12 -54 -1 -61 264 -3 133 -2 242 2 242 5 0 17 -7 28 -15 23 -18 55
-19 89 -3 32 14 32 45 0 60 -24 11 -35 38 -15 38 18 0 41 60 39 103 -1 23 1
54 5 70 12 40 -8 34 -55 -15 -26 -29 -45 -62 -57 -100 -16 -55 -40 -78 -43
-40 -2 20 -11 852 -12 1142 -2 349 12 1012 22 1080 18 119 22 129 44 132 31 4
32 31 3 90 -14 29 -26 60 -26 70 0 10 -6 29 -14 41 -8 13 -17 64 -21 122 -4
55 -9 118 -11 140 -9 85 -4 508 6 519 5 7 23 11 40 8 16 -2 30 0 30 4 0 5 4
15 9 22 6 11 17 9 51 -9 l43 -23 19 24 c10 13 18 35 16 48 -2 21 -13 28 -63
45 -33 11 -66 21 -73 23 -9 3 -3 14 19 35 17 16 38 28 45 25 18 -7 64 32 64
54 0 21 -22 42 -41 38 -15 -4 -31 57 -24 89 3 12 1 24 -4 27 -9 6 -90 -76 -92
-94 -7 -53 -9 -82 -12 -120 -1 -32 -6 -45 -17 -45 -10 0 -17 15 -21 50 -15
119 -27 266 -28 343 -1 79 0 84 28 112 38 38 66 149 51 201 -6 19 -10 63 -10
100 0 63 -21 149 -44 178 -16 21 -26 143 -12 166 6 11 11 35 11 54 0 20 6 36
14 39 10 3 12 -2 8 -20 -14 -53 50 -90 86 -50 19 20 23 77 7 87 -5 3 -10 30
-10 58 0 51 17 92 47 110 7 4 13 15 13 24 0 11 -6 14 -22 9 -13 -3 -28 -6 -34
-6 -5 0 -20 -9 -32 -20 -18 -17 -25 -18 -42 -8 -15 10 -22 10 -32 0 -20 -20
13 -47 40 -33 12 6 23 7 26 2 7 -12 -4 -21 -25 -21 -11 0 -26 -14 -36 -32
l-18 -33 -3 30 c-1 17 -7 51 -12 77 -7 36 -6 59 4 90 19 58 8 188 -18 217 -47
52 -126 31 -208 -57 -52 -56 -68 -105 -47 -143 13 -23 20 -149 8 -149 -6 0
-43 39 -53 57 -3 6 2 28 11 48 17 36 17 37 -5 55 -12 10 -31 16 -42 13 -17 -5
-20 0 -20 33 0 22 -11 63 -25 92 -14 30 -25 60 -25 68 0 17 -26 18 -37 2z
m403 -66 c-22 -5 -30 3 -21 18 5 8 11 7 22 -2 15 -12 14 -13 -1 -16z m-58 6
c-6 -18 -28 -21 -28 -4 0 9 7 16 16 16 9 0 14 -5 12 -12z m-308 -78 c0 -40
-15 -55 -22 -22 -4 15 10 62 19 62 1 0 3 -18 3 -40z m230 20 c0 -5 -5 -10 -11
-10 -5 0 -7 5 -4 10 3 6 8 10 11 10 2 0 4 -4 4 -10z m-23 -42 c-3 -8 -6 -5 -6
6 -1 11 2 17 5 13 3 -3 4 -12 1 -19z m7 -40 c3 -13 6 -27 6 -33 -1 -15 -30 27
-30 42 0 22 17 15 24 -9z m53 -10 c-3 -8 -6 -5 -6 6 -1 11 2 17 5 13 3 -3 4
-12 1 -19z m87 -12 c-8 -28 -24 -44 -24 -25 0 7 -3 24 -6 36 -5 18 -3 21 15
16 17 -4 20 -11 15 -27z m-367 -52 c3 -10 -55 -39 -63 -31 -3 3 4 15 16 27 21
21 41 23 47 4z m-1257 -44 c0 -5 -4 -10 -10 -10 -5 0 -10 5 -10 10 0 6 5 10
10 10 6 0 10 -4 10 -10z m1491 -33 c-8 -8 -11 -3 -11 19 1 25 2 27 11 11 8
-14 8 -22 0 -30z m89 -16 c0 -14 -30 -41 -45 -41 -10 0 -7 7 8 24 24 26 37 32
37 17z m-220 -26 c0 -16 -38 -40 -48 -30 -4 4 4 15 17 26 28 23 31 23 31 4z
m149 -91 c-4 -12 -5 -24 -3 -27 10 -9 23 -192 15 -200 -13 -13 -46 269 -34
299 9 25 31 -45 22 -72z m-1512 29 c-3 -10 -5 -4 -5 12 0 17 2 24 5 18 2 -7 2
-21 0 -30z m1632 -46 c1 -10 -3 -15 -9 -12 -5 3 -10 21 -9 38 0 27 2 29 9 12
5 -11 9 -28 9 -38z m-1669 -22 c0 -8 -7 -15 -15 -15 -16 0 -20 12 -8 23 11 12
23 8 23 -8z m1832 -17 c-9 -9 -12 -7 -12 12 0 19 3 21 12 12 9 -9 9 -15 0 -24z
m-1881 -44 c21 -19 25 -64 8 -81 -8 -8 -8 -17 1 -33 7 -12 10 -33 7 -46 -2
-13 2 -29 10 -36 11 -9 11 -13 1 -19 -20 -13 -25 -11 -24 12 1 12 -5 24 -11
26 -18 7 -28 -26 -15 -48 10 -16 6 -22 -34 -45 -90 -53 -314 -131 -336 -117
-17 10 -7 23 18 23 22 0 25 4 22 27 -4 34 -26 41 -37 11 l-9 -23 -10 25 c-6
15 -6 37 0 58 12 43 2 54 -23 23 -12 -15 -19 -39 -19 -70 0 -31 -3 -41 -9 -32
-10 15 -4 75 10 103 10 18 2 48 -12 48 -11 0 -31 -37 -40 -75 l-7 -30 -1 29
c-1 35 35 101 66 121 23 16 32 45 13 45 -5 0 -10 6 -10 14 0 21 44 46 90 50
22 2 43 6 47 10 3 3 13 6 20 6 8 0 33 8 56 19 23 10 49 21 57 25 29 12 152 -2
171 -20z m1741 4 c-7 -7 -12 -8 -12 -2 0 14 12 26 19 19 2 -3 -1 -11 -7 -17z
m-1584 -82 c3 -12 -1 -17 -10 -14 -7 3 -15 13 -16 22 -3 12 1 17 10 14 7 -3
15 -13 16 -22z m1502 -66 c0 -5 -7 -10 -15 -10 -8 0 -15 5 -15 10 0 6 7 10 15
10 8 0 15 -4 15 -10z m-1585 -68 c-12 -12 -23 15 -17 43 l6 30 8 -34 c5 -18 7
-36 3 -39z m262 46 c-3 -8 -6 -5 -6 6 -1 11 2 17 5 13 3 -3 4 -12 1 -19z m-91
-15 c-10 -10 -19 5 -10 18 6 11 8 11 12 0 2 -7 1 -15 -2 -18z m74 -22 c0 -16
-113 -91 -137 -91 -3 0 20 22 49 50 49 45 88 64 88 41z m-178 -58 c-54 -24
-67 -37 -57 -53 4 -6 19 -4 42 5 19 8 38 15 42 15 8 -1 -42 -40 -52 -40 -4 0
-26 -12 -48 -26 -234 -148 -435 -219 -626 -223 -78 -2 -93 1 -123 21 -21 14
-36 34 -38 48 l-3 25 16 -22 c20 -29 45 -30 45 -3 0 17 3 19 19 11 24 -13 32
-4 24 27 l-6 25 22 -22 c25 -25 71 -29 71 -6 0 9 -11 20 -25 25 -14 5 -25 14
-25 19 0 6 16 1 35 -10 19 -12 43 -18 52 -15 9 4 43 10 77 15 66 10 267 83
336 123 73 42 187 89 206 85 12 -2 28 0 35 4 7 4 17 5 23 2 5 -4 -14 -17 -42
-30z m1488 3 c0 -11 -19 -15 -25 -6 -3 5 1 10 9 10 9 0 16 -2 16 -4z m-30 -40
c0 -16 -18 -31 -27 -22 -8 8 5 36 17 36 5 0 10 -6 10 -14z m-1445 -95 c-3 -6
-11 -11 -17 -11 -6 0 -6 6 2 15 14 17 26 13 15 -4z m1468 -26 c-27 -32 -53
-45 -53 -26 0 16 61 72 71 65 5 -3 -3 -21 -18 -39z m-2108 25 c-3 -5 -11 -10
-16 -10 -6 0 -7 5 -4 10 3 6 11 10 16 10 6 0 7 -4 4 -10z m2305 -32 c0 -10 -7
-18 -15 -18 -15 0 -21 40 -8 53 9 9 23 -13 23 -35z m-1498 2 c36 -30 36 -30
23 -72 -9 -32 -18 -44 -34 -46 -16 -3 -20 -8 -16 -22 5 -15 0 -19 -22 -22 -23
-2 -28 -8 -29 -31 -1 -15 3 -30 7 -33 5 -3 9 -15 9 -28 0 -19 -5 -22 -35 -22
-33 1 -35 3 -33 31 3 25 -1 30 -19 30 -31 0 -36 9 -13 30 11 10 20 23 20 29 0
6 -7 2 -15 -8 -12 -15 -18 -17 -27 -8 -9 9 -7 13 6 18 12 5 14 10 6 19 -8 10
-8 15 1 21 7 4 15 2 17 -4 2 -7 8 -10 12 -7 5 3 7 12 3 20 -3 8 0 15 6 15 6 0
11 -4 11 -10 0 -5 11 -10 25 -10 18 0 25 5 25 20 0 23 -10 26 -28 8 -9 -9 -10
-6 -5 13 3 13 6 39 5 57 -1 32 1 33 26 28 20 -5 23 -4 12 4 -13 8 -12 10 5 10
11 0 37 -13 57 -30z m-207 0 c4 -6 1 -18 -7 -27 -7 -9 -13 -25 -13 -36 0 -28
-25 -34 -32 -8 -5 19 -15 25 -35 22 -5 0 -8 3 -8 8 0 5 16 12 35 15 21 4 35
13 35 21 0 17 16 20 25 5z m1707 -117 c-3 -13 -8 -23 -13 -23 -11 0 -12 61 -2
87 6 15 8 13 13 -12 3 -16 4 -40 2 -52z m-1812 -8 c17 -9 30 -20 30 -25 0 -13
0 -13 -42 9 -21 10 -34 21 -31 25 9 8 10 8 43 -9z m-160 -21 c0 -8 -4 -14 -9
-14 -11 0 -22 26 -14 34 9 9 23 -3 23 -20z m1905 16 c3 -5 -5 -15 -19 -22 -28
-12 -35 -45 -11 -54 8 -4 15 -16 15 -27 0 -19 -4 -17 -35 13 -19 19 -35 38
-35 42 0 11 53 58 67 58 6 0 15 -4 18 -10z m-1979 -58 c-12 -11 -18 7 -10 30
l8 23 4 -23 c2 -13 1 -26 -2 -30z m-125 -46 c5 -6 9 -17 9 -25 -1 -21 -39 28
-40 50 0 26 15 33 18 7 2 -12 8 -27 13 -32z m167 35 c3 -8 -1 -12 -9 -9 -7 2
-15 10 -17 17 -3 8 1 12 9 9 7 -2 15 -10 17 -17z m183 -14 c9 -34 2 -57 -17
-57 -17 0 -18 12 -3 27 13 13 4 33 -16 33 -8 0 -23 -10 -35 -22 -24 -27 -36
-18 -18 14 18 32 29 39 57 36 18 -2 27 -11 32 -31z m399 2 c0 -18 -2 -20 -15
-9 -13 11 -13 15 -3 21 18 12 18 12 18 -12z m1248 10 c-2 -6 -8 -10 -13 -10
-5 0 -11 4 -13 10 -2 6 4 11 13 11 9 0 15 -5 13 -11z m-2078 -13 c0 -3 -4 -8
-10 -11 -5 -3 -10 -1 -10 4 0 6 5 11 10 11 6 0 10 -2 10 -4z m295 -6 c3 -6 -1
-7 -9 -4 -18 7 -21 14 -7 14 6 0 13 -4 16 -10z m-122 -6 c8 -8 -3 -34 -14 -34
-5 0 -9 9 -9 20 0 19 11 26 23 14z m612 -44 c-4 -12 0 -22 11 -28 16 -9 14
-13 -17 -31 -36 -22 -54 -27 -44 -12 3 5 1 12 -5 16 -5 3 -10 17 -10 31 0 21
4 24 20 19 26 -8 28 22 3 42 -13 10 -8 9 15 -2 25 -12 32 -21 27 -35z m-574
-3 c-8 -8 -11 -7 -11 4 0 20 13 34 18 19 3 -7 -1 -17 -7 -23z m70 3 c10 -6 19
-17 19 -25 0 -8 7 -15 15 -15 8 0 19 -9 24 -19 15 -27 -5 -81 -30 -81 -21 0
-26 16 -6 23 8 3 5 12 -10 29 -13 13 -23 29 -23 35 0 6 -6 16 -14 23 -8 6 -12
18 -9 26 6 17 9 17 34 4z m563 1 c3 -5 -1 -14 -8 -20 -12 -10 -13 -8 -9 8 6
23 9 25 17 12z m1208 -86 c-3 -48 -7 -64 -13 -50 -10 25 -11 119 -2 128 15 15
20 -11 15 -78z m93 55 c3 -5 1 -10 -4 -10 -6 0 -11 5 -11 10 0 6 2 10 4 10 3
0 8 -4 11 -10z m-1687 -23 c6 -5 12 -28 12 -52 0 -47 -37 -105 -67 -105 -12 0
-11 7 6 36 24 40 21 91 -5 101 -8 3 -14 10 -14 17 0 13 49 15 68 3z m205 4
c20 9 20 9 5 -4 -10 -8 -18 -20 -18 -27 0 -21 -14 -2 -16 23 -2 12 0 16 2 10
4 -10 11 -10 27 -2z m-500 -28 c27 -54 29 -104 4 -150 -24 -46 -40 -52 -75
-27 -27 19 -29 44 -2 44 20 0 40 27 40 54 0 9 -7 16 -15 16 -8 0 -15 5 -15 11
0 6 -9 8 -22 3 -21 -6 -21 -5 -9 10 9 11 18 13 24 7 13 -13 50 6 41 20 -6 10
1 39 10 39 3 0 12 -12 19 -27z m67 8 c12 -24 13 -51 1 -51 -5 0 -11 8 -14 18
-2 9 -8 25 -12 35 -10 24 12 22 25 -2z m1764 -103 c20 -334 20 -322 4 -315
-22 8 -38 -12 -38 -45 0 -42 -28 -48 -56 -13 l-23 29 -26 -24 c-16 -15 -25
-34 -25 -53 0 -16 -9 -40 -20 -54 -24 -31 -25 -51 -4 -81 14 -20 14 -22 -4
-22 -16 0 -20 12 -29 78 -6 42 -10 125 -8 184 3 122 9 135 103 247 30 35 66
88 80 118 14 29 29 53 33 53 3 0 9 -46 13 -102z m101 72 c-6 -9 -9 -9 -16 1
-10 17 0 34 13 21 6 -6 7 -16 3 -22z m75 18 c0 -17 -48 -39 -56 -26 -3 5 -4
10 -3 12 4 2 52 24 57 25 1 1 2 -5 2 -11z m-1555 -30 c45 -16 51 -26 22 -39
-31 -14 -37 -33 -7 -24 11 4 20 2 20 -4 0 -6 -5 -11 -11 -11 -5 0 -9 -8 -7
-17 1 -10 -1 -24 -5 -30 -5 -8 -3 -13 3 -13 7 0 14 9 17 20 8 31 26 24 19 -7
-11 -44 -66 -75 -66 -37 0 9 -5 12 -12 8 -8 -5 -9 -2 -5 9 8 21 -9 22 -29 2
-21 -20 -31 -19 -37 5 -4 17 0 20 23 20 38 0 45 14 15 30 -18 9 -23 19 -19 32
3 10 7 30 9 46 2 15 4 29 4 31 1 2 9 0 19 -4 9 -4 31 -12 47 -17z m62 -40 c-3
-7 -5 -2 -5 12 0 14 2 19 5 13 2 -7 2 -19 0 -25z m1378 -45 c3 -18 1 -35 -5
-38 -6 -4 -10 10 -10 36 0 48 6 49 15 2z m-1817 -40 c-2 -9 -8 -18 -15 -20 -7
-3 -9 3 -6 16 6 25 26 28 21 4z m105 -1 c21 -23 5 -42 -35 -42 -30 0 -39 25
-16 48 17 17 32 15 51 -6z m1726 -155 c1 -36 -3 -56 -9 -52 -6 4 -9 48 -9 103
1 82 3 90 10 52 4 -25 8 -71 8 -103z m281 73 c0 -33 -15 -41 -22 -12 -6 21 1
42 13 42 5 0 9 -13 9 -30z m-2015 2 c72 6 71 -7 -2 -22 -64 -13 -86 -27 -79
-46 3 -7 1 -16 -4 -19 -6 -4 -10 2 -10 12 0 10 -7 28 -15 40 -14 20 -13 23 7
37 16 11 25 13 35 4 8 -6 36 -9 68 -6z m150 6 c14 -6 25 -15 25 -20 0 -15 -32
-22 -40 -9 -4 7 -16 12 -26 11 -40 -5 -47 -1 -34 15 15 18 40 19 75 3z m1612
-70 c-3 -8 -6 -5 -6 6 -1 11 2 17 5 13 3 -3 4 -12 1 -19z m-386 -51 c-16 -16
-20 -5 -8 23 9 22 11 23 14 6 3 -10 0 -23 -6 -29z m494 2 c4 -17 4 -33 1 -36
-9 -9 -12 -2 -19 35 -8 41 9 42 18 1z m-1855 11 c0 -10 -41 -30 -62 -30 -14 0
34 39 50 40 6 0 12 -5 12 -10z m1755 -68 c-6 -47 -7 -48 -14 -12 -8 38 -5 53
9 45 5 -3 7 -18 5 -33z m-1894 -45 c-13 -13 -15 21 -3 50 6 15 8 13 10 -11 2
-16 -1 -33 -7 -39z m2199 -13 c0 -14 -3 -14 -15 -4 -8 7 -15 14 -15 16 0 2 7
4 15 4 8 0 15 -7 15 -16z m-1505 -12 c48 -9 46 -10 -25 -17 -57 -5 -238 -58
-279 -82 -68 -39 -243 -221 -260 -268 -8 -22 -26 -58 -42 -80 -27 -38 -71
-160 -84 -236 -6 -35 11 -69 34 -69 18 0 32 29 23 47 -5 11 -5 36 1 63 l10 45
7 -35 c4 -19 10 -68 13 -108 6 -71 6 -72 -17 -66 -20 5 -26 -1 -45 -47 -47
-109 -62 -216 -46 -334 8 -67 20 -94 47 -113 23 -17 23 -33 -2 -65 -11 -14
-20 -33 -21 -44 -1 -20 -4 -12 -13 30 -9 41 -33 33 -58 -20 -24 -50 -51 -63
-56 -27 -2 12 6 50 18 84 20 58 20 64 4 87 -22 34 -37 18 -60 -67 -24 -88 -29
-161 -12 -182 35 -47 125 -20 153 45 8 17 14 28 15 23 1 -22 -33 -144 -51
-182 -10 -22 -19 -47 -20 -55 0 -8 -8 -26 -17 -40 -9 -14 -27 -41 -40 -60 -49
-74 -53 -159 -7 -167 27 -6 44 23 38 66 -4 29 1 46 23 77 15 22 35 58 45 80
l18 40 1 -75 c7 -312 3 -442 -20 -715 -5 -60 -12 -159 -15 -220 -2 -60 -10
-173 -17 -250 -7 -77 -12 -205 -13 -283 0 -139 1 -144 24 -163 17 -14 39 -19
87 -19 71 0 84 -10 52 -39 -22 -21 -22 -21 -40 -1 -24 26 -34 25 -53 -3 -15
-24 -15 -131 0 -169 4 -9 2 -32 -4 -50 -20 -65 -23 -107 -28 -415 -5 -309 -5
-311 16 -322 17 -10 21 -21 21 -61 0 -54 -9 -61 -40 -30 -16 16 -18 25 -10 40
24 44 -4 81 -68 90 l-37 5 -3 75 c-4 89 13 198 35 222 12 14 13 23 4 50 -18
54 -14 162 7 212 9 19 9 33 3 39 -7 7 -7 16 0 29 8 15 4 24 -19 46 -39 36 -42
48 -31 128 5 38 13 116 19 174 19 209 30 326 35 391 3 37 7 89 10 115 2 27 7
192 10 368 3 175 6 321 7 325 0 3 0 46 -1 94 -1 70 -4 89 -17 94 -36 13 -36
14 -36 -392 1 -131 -1 -242 -3 -245 -1 -3 -6 -70 -9 -150 -4 -80 -11 -183 -16
-230 -6 -47 -12 -131 -14 -186 -2 -56 -6 -106 -9 -112 -6 -8 -19 -131 -34
-324 -3 -34 0 -65 7 -79 8 -14 14 -84 16 -185 4 -168 -1 -193 -33 -161 -17 16
-17 14 -10 567 2 175 5 209 20 235 11 19 17 49 17 80 -1 28 2 91 6 141 5 62 3
102 -6 128 -16 48 -13 421 5 741 21 370 22 465 7 634 -6 60 -5 121 2 170 6 42
9 120 6 174 -3 53 -2 97 2 97 3 0 15 -17 25 -37 21 -43 32 -48 57 -30 16 12
16 15 -4 70 l-21 57 31 56 c17 31 28 64 25 74 -14 45 -22 209 -13 272 8 52 7
72 -2 83 -10 12 -16 13 -27 4 -18 -16 -22 -10 -16 23 3 15 13 30 22 33 10 3
25 22 34 43 79 179 231 343 371 399 151 62 242 72 391 45z m1208 -169 c1 -79
-1 -143 -5 -143 -5 0 -8 46 -9 103 0 56 -2 131 -5 167 -3 52 -2 60 7 40 6 -14
11 -89 12 -167z m-673 167 c0 -5 -6 -10 -14 -10 -8 0 -18 5 -21 10 -3 6 3 10
14 10 12 0 21 -4 21 -10z m712 -55 c-5 -30 -18 -33 -25 -6 -5 22 0 31 18 31 8
0 10 -10 7 -25z m-214 -66 c-18 -35 -37 -64 -43 -66 -5 -2 -18 11 -28 28 -15
27 -15 30 -2 25 23 -9 76 34 70 55 -4 11 0 19 12 21 10 3 20 3 21 2 2 -1 -11
-31 -30 -65z m-793 36 c33 -9 64 -20 70 -26 14 -14 -21 -11 -62 6 -37 16 -95
20 -107 8 -4 -4 -46 -8 -94 -10 -213 -6 -226 -8 -288 -44 -33 -18 -65 -41 -72
-51 -17 -23 -32 -23 -32 0 0 33 61 76 130 94 19 5 51 14 70 19 19 6 49 14 65
18 46 13 253 3 320 -14z m1055 -11 c0 -8 -4 -14 -10 -14 -5 0 -10 9 -10 21 0
11 5 17 10 14 6 -3 10 -13 10 -21z m-50 -8 c0 -3 -4 -8 -10 -11 -5 -3 -10 -1
-10 4 0 6 5 11 10 11 6 0 10 -2 10 -4z m-707 -48 c23 -9 27 -15 23 -37 -13
-68 -16 -140 -7 -186 5 -27 7 -52 5 -54 -3 -3 -17 7 -31 22 -26 26 -27 29 -15
72 18 68 16 124 -5 131 -10 3 -31 13 -48 22 -16 9 -45 23 -62 32 -33 16 -32
16 40 12 39 -2 85 -8 100 -14z m-458 2 c-3 -5 -30 -10 -58 -9 -41 1 -47 3 -27
9 37 12 92 12 85 0z m-195 -20 c0 -5 -21 -10 -47 -10 -35 0 -44 3 -33 10 20
13 80 13 80 0z m1227 -22 c-3 -7 -5 -2 -5 12 0 14 2 19 5 13 2 -7 2 -19 0 -25z
m-799 -7 c32 -5 61 -16 75 -29 27 -26 43 -28 51 -7 7 20 36 8 36 -16 0 -15 -5
-18 -24 -13 -13 3 -40 -2 -61 -10 -38 -16 -39 -16 -66 10 -24 23 -36 26 -110
29 -82 3 -195 22 -186 32 8 8 180 21 207 16 14 -3 49 -8 78 -12z m-718 -63
c-25 -22 -62 -56 -82 -75 -31 -29 -36 -31 -31 -13 7 25 64 84 108 111 50 31
53 21 5 -23z m200 22 c0 -12 -28 -25 -36 -17 -9 9 6 27 22 27 8 0 14 -5 14
-10z m1150 -5 c-7 -8 -16 -12 -21 -9 -13 8 -1 24 18 24 13 0 13 -3 3 -15z
m182 -147 c1 -161 2 -189 8 -306 l3 -72 -44 -28 c-51 -32 -79 -44 -79 -34 0
27 31 174 43 207 9 22 16 54 16 70 0 17 5 64 10 105 6 41 14 105 17 143 12
115 24 74 26 -85z m-1427 122 c-3 -5 -17 -10 -31 -10 -14 0 -22 4 -19 10 3 6
17 10 31 10 14 0 22 -4 19 -10z m1595 -72 c0 -34 -3 -59 -6 -55 -11 11 -15
117 -4 117 6 0 10 -26 10 -62z m-1760 -82 c-13 -13 -35 7 -25 24 5 8 11 8 21
-1 10 -8 12 -15 4 -23z m1500 -6 c-8 -5 -8 -10 -2 -14 12 -7 4 -46 -10 -46 -6
0 -7 11 -4 24 3 14 1 26 -5 28 -8 3 -5 11 7 22 13 13 19 15 22 6 3 -7 -1 -16
-8 -20z m-1880 -69 c0 -6 -5 -13 -11 -16 -6 -4 -8 -13 -5 -21 7 -18 -14 -30
-24 -14 -10 17 9 60 27 60 7 0 13 -4 13 -9z m2150 -6 c0 -8 -4 -15 -10 -15 -5
0 -10 7 -10 15 0 8 5 15 10 15 6 0 10 -7 10 -15z m-1528 -22 c11 -6 21 -70 14
-96 -3 -14 -22 -31 -51 -45 l-46 -22 3 27 c2 23 9 29 33 31 41 5 62 22 43 36
-8 6 -17 19 -21 29 -6 15 -13 17 -37 12 -19 -4 -30 -3 -30 4 0 19 -29 12 -40
-9 -7 -14 -8 -26 0 -39 12 -24 13 -68 2 -75 -5 -3 -22 8 -37 24 -20 20 -28 41
-30 69 -3 44 6 57 45 64 26 5 139 -2 152 -10z m-266 -36 c-5 -22 9 -310 19
-372 3 -16 7 -57 10 -90 3 -33 7 -73 10 -90 24 -162 27 -815 3 -815 -13 0 -22
24 -21 55 1 16 4 71 6 122 4 65 2 93 -6 96 -9 3 -9 8 -2 18 7 8 10 69 8 154
-1 77 -2 164 -2 193 0 30 -5 60 -11 67 -8 9 -8 15 0 20 6 3 8 11 4 16 -3 5
-11 6 -17 2 -9 -5 -9 -3 -1 8 6 8 9 36 7 64 -2 28 -6 82 -8 120 -1 39 -6 108
-9 155 -5 74 -10 272 -7 293 1 4 6 7 12 7 7 0 9 -9 5 -23z m1494 -31 c0 -14
-48 -51 -57 -43 -4 4 47 57 54 57 2 0 3 -6 3 -14z m-1108 -26 c43 -19 78 -43
78 -52 0 -3 -30 -8 -67 -12 -77 -8 -88 -13 -73 -31 9 -11 31 -13 95 -8 64 4
88 3 101 -8 15 -12 13 -14 -12 -21 -20 -5 -31 -3 -39 9 -10 14 -15 13 -52 -6
-23 -11 -57 -42 -78 -71 -41 -55 -55 -62 -55 -26 0 37 -26 48 -105 46 -39 -1
-39 -1 -20 18 11 10 41 28 67 41 46 22 108 96 108 128 0 17 0 17 52 -7z m1368
-11 c0 -5 -7 -9 -15 -9 -15 0 -20 12 -9 23 8 8 24 -1 24 -14z m40 1 c0 -5 -2
-10 -4 -10 -3 0 -8 5 -11 10 -3 6 -1 10 4 10 6 0 11 -4 11 -10z m-326 -58
c-18 -38 -24 -40 -20 -9 5 36 18 59 27 50 6 -6 3 -23 -7 -41z m226 14 c0 -8
-4 -18 -10 -21 -5 -3 -10 3 -10 14 0 12 5 21 10 21 6 0 10 -6 10 -14z m81 -86
c10 -6 19 -15 19 -21 0 -5 -13 -3 -30 6 -16 9 -30 18 -30 20 0 8 20 6 41 -5z
m-1281 -19 c0 -5 20 -17 45 -27 28 -10 52 -28 63 -46 9 -16 30 -32 47 -37 28
-7 30 -11 27 -47 -5 -59 -68 -118 -98 -93 -13 11 -12 16 10 36 29 27 33 50 13
78 -17 22 -41 11 -34 -16 4 -16 0 -19 -29 -19 -21 0 -42 -8 -55 -21 -11 -11
-22 -19 -23 -17 -1 2 -14 20 -29 40 -15 20 -27 39 -27 42 0 2 13 4 30 4 29 -1
100 43 100 63 0 14 -32 10 -54 -6 -23 -17 -35 -18 -56 -5 -12 8 -9 15 20 43
37 36 50 43 50 28z m1188 -23 c-2 -6 -11 -15 -19 -19 -83 -43 -171 -80 -139
-59 45 30 146 89 153 90 5 0 7 -5 5 -12z m-221 -40 c-3 -8 -6 -5 -6 6 -1 11 2
17 5 13 3 -3 4 -12 1 -19z m-1306 -29 c-28 -32 -43 -36 -60 -15 -20 24 -3 41
42 43 l44 1 -26 -29z m1281 -11 c-6 -6 -15 -8 -19 -4 -4 4 -1 11 7 16 19 12
27 3 12 -12z m218 2 c8 -16 6 -21 -12 -31 -13 -6 -20 -8 -16 -4 4 4 0 14 -8
22 -8 8 -12 19 -9 24 10 15 34 10 45 -11z m190 0 c0 -5 -4 -10 -9 -10 -6 0
-13 5 -16 10 -3 6 1 10 9 10 9 0 16 -4 16 -10z m2 -57 c27 -14 48 -32 48 -40
0 -21 -24 -15 -50 12 -13 14 -31 25 -40 25 -9 0 -27 12 -41 26 l-24 25 30 -11
c16 -6 51 -23 77 -37z m-1552 -2 c0 -9 13 -32 28 -51 16 -19 34 -46 41 -58 7
-13 28 -30 46 -38 33 -14 52 -44 40 -64 -4 -7 -17 -4 -35 7 -23 13 -32 14 -44
4 -20 -17 -36 -6 -36 25 0 17 -19 43 -60 83 -33 32 -60 61 -60 64 0 2 9 7 20
10 12 3 20 14 20 25 0 15 5 19 20 15 11 -3 20 -13 20 -22z m-190 -1 c0 -5 -4
-10 -9 -10 -6 0 -13 5 -16 10 -3 6 1 10 9 10 9 0 16 -4 16 -10z m1467 -22 c-3
-8 -6 -5 -6 6 -1 11 2 17 5 13 3 -3 4 -12 1 -19z m-1922 2 c-3 -5 -13 -10 -21
-10 -8 0 -14 5 -14 10 0 6 9 10 21 10 11 0 17 -4 14 -10z m1701 -11 c10 -17
-17 -132 -29 -120 -11 11 -13 103 -3 120 9 14 23 14 32 0z m274 1 c0 -5 -4
-10 -10 -10 -5 0 -10 5 -10 10 0 6 5 10 10 10 6 0 10 -4 10 -10z m-364 -26
c-3 -9 -6 -19 -6 -24 0 -5 -17 -10 -37 -12 -30 -2 -38 -7 -38 -22 0 -28 30
-44 55 -28 18 11 21 9 31 -15 6 -16 19 -37 29 -48 20 -22 24 -95 5 -95 -6 0
-11 10 -11 21 1 12 -7 26 -17 33 -26 16 -91 -20 -95 -54 -5 -49 -13 -70 -24
-70 -7 0 -9 20 -5 65 5 53 4 65 -8 65 -28 0 -7 115 25 135 5 3 10 17 10 30 0
27 11 33 59 34 26 1 32 -2 27 -15z m-1416 -70 c0 -36 -4 -63 -9 -60 -5 3 -8
25 -6 49 2 23 4 50 4 60 1 9 3 17 6 17 3 0 5 -30 5 -66z m1254 15 c-8 -22 -23
-52 -33 -67 -10 -15 -26 -39 -35 -54 -9 -16 -21 -28 -27 -28 -6 0 -23 -9 -39
-20 -27 -19 -28 -19 -33 0 -6 24 0 30 33 30 30 0 58 26 65 60 2 13 14 33 25
45 11 12 20 28 20 36 0 15 19 39 31 39 4 0 0 -18 -7 -41z m538 -594 c10 -741
14 -2085 7 -2097 -13 -21 -36 1 -49 47 -14 51 -53 105 -76 105 -7 0 -19 -10
-25 -22 -6 -13 -13 -24 -14 -26 -1 -1 -22 16 -46 38 -24 22 -52 43 -62 46 -24
8 -88 -35 -123 -83 -42 -57 -156 -173 -166 -167 -21 13 -2 369 32 574 11 69
25 158 31 198 9 59 15 76 35 89 20 13 30 14 50 4 14 -6 37 -8 52 -5 37 9 84
61 77 85 -3 10 -7 28 -10 38 -6 19 1 29 40 55 19 14 19 17 -23 185 -24 95 -44
186 -45 204 -2 39 41 370 53 412 22 75 41 261 49 500 6 143 8 261 6 264 -3 2
-11 -1 -18 -7 -8 -7 -17 -9 -20 -5 -11 10 -8 23 5 23 6 0 19 6 27 14 23 20
141 56 176 53 l30 -2 7 -520z m102 491 c-5 -14 -44 -29 -52 -21 -3 3 1 11 8
20 16 19 51 20 44 1z m-1560 -25 c3 -5 -1 -14 -8 -20 -16 -13 -32 2 -21 19 8
12 22 13 29 1z m1519 -41 c-7 -28 -13 -25 -13 6 0 14 4 23 9 20 5 -3 7 -15 4
-26z m-613 -42 c0 -34 -3 -49 -10 -42 -17 17 -17 94 0 94 6 0 10 -23 10 -52z
m-923 -97 c-10 -12 -12 -12 -15 2 -2 10 -12 17 -23 17 -15 0 -19 7 -19 37 l0
36 34 -39 c27 -31 32 -42 23 -53z m536 24 c17 -23 17 -25 -2 -35 -29 -15 -41
-12 -41 9 0 24 10 51 19 51 3 0 14 -12 24 -25z m1007 -17 c0 -16 -3 -19 -11
-11 -6 6 -8 16 -5 22 11 17 16 13 16 -11z m-587 -3 c0 -6 -7 -11 -16 -13 -12
-3 -15 1 -11 13 7 17 25 17 27 0z m270 -97 c-2 -5 -8 -8 -14 -8 -5 0 -8 3 -7
8 1 4 -2 19 -6 34 -5 16 -3 35 5 50 13 22 14 21 20 -27 3 -27 4 -53 2 -57z
m-1085 18 c-3 -21 -32 -25 -52 -6 -17 17 1 38 29 32 20 -3 25 -10 23 -26z
m-110 -35 c23 -12 40 -26 36 -32 -4 -7 -13 -4 -24 6 -10 9 -24 15 -32 14 -52
-7 -77 12 -64 47 6 15 8 15 24 2 9 -9 36 -25 60 -37z m316 9 c22 -17 38 -30
35 -30 -2 -1 -28 -2 -56 -4 -52 -3 -53 -3 -53 24 0 49 19 52 74 10z m1186 -41
c0 -44 -4 -68 -10 -64 -11 7 -13 57 -4 104 10 49 14 37 14 -40z m-668 47 c4
-6 2 -18 -3 -28 -8 -14 -5 -27 9 -51 24 -38 38 -112 23 -121 -9 -6 -42 86 -56
157 -7 37 -29 43 -60 19 -22 -18 -31 -19 -58 -10 -44 15 -56 28 -26 28 13 0
30 4 37 8 17 12 125 9 134 -2z m-278 -50 c10 -24 27 -40 61 -56 48 -23 74 -23
136 4 12 5 19 -4 32 -45 24 -74 22 -86 -17 -99 -19 -6 -53 -25 -76 -41 -46
-34 -59 -32 -42 6 16 35 4 85 -24 97 -20 10 -27 7 -49 -16 -30 -32 -29 -30 -8
-63 10 -15 16 -37 15 -50 -3 -19 3 -27 28 -36 29 -11 31 -15 26 -47 -9 -55 12
-108 56 -138 21 -15 37 -34 35 -43 -3 -23 22 -49 47 -49 44 0 49 -15 16 -43
-17 -15 -30 -34 -28 -43 4 -21 76 -46 99 -34 25 14 33 43 15 56 -12 8 -14 20
-10 43 4 18 2 37 -5 45 -9 10 -9 16 -1 21 17 11 20 3 31 -70 5 -37 12 -71 14
-76 7 -11 45 -305 45 -348 0 -25 -9 -42 -39 -72 -38 -38 -59 -43 -41 -8 10 18
7 91 -5 122 -16 39 -94 60 -130 33 -18 -13 -18 -16 -3 -52 32 -75 32 -81 -3
-88 -39 -8 -44 -4 -28 22 7 11 9 27 5 37 -5 14 -14 16 -54 10 -26 -4 -53 -12
-59 -17 -10 -8 -13 -6 -13 8 0 12 18 29 49 47 51 28 91 79 91 115 0 35 -16 33
-53 -6 -19 -20 -55 -53 -80 -72 -47 -37 -97 -103 -97 -130 0 -8 -9 -21 -21
-28 -12 -7 -18 -16 -15 -19 3 -3 1 -14 -5 -25 -8 -14 -6 -26 6 -44 10 -16 13
-33 9 -47 -4 -12 -7 -33 -6 -47 2 -19 0 -21 -6 -10 -9 15 -39 259 -44 353 l-2
49 54 2 c42 1 67 9 107 34 66 42 82 79 72 167 -9 70 -29 109 -77 149 -17 15
-32 33 -32 39 0 6 18 -6 39 -27 32 -32 44 -37 66 -32 32 8 42 31 23 54 -8 9
-19 29 -25 43 -10 24 -16 26 -76 26 -74 2 -93 -11 -83 -52 5 -19 2 -25 -9 -25
-9 0 -29 -7 -45 -15 -16 -8 -31 -11 -34 -6 -3 5 -8 39 -12 77 l-6 69 34 16
c38 18 67 79 67 144 1 55 -51 144 -99 167 -43 22 -113 23 -130 3 -7 -8 -23
-15 -36 -15 -15 0 -24 -6 -24 -15 0 -16 36 -28 66 -23 13 2 20 -4 22 -19 3
-24 -21 -33 -33 -13 -4 6 -18 1 -35 -12 -44 -32 -50 -87 -15 -140 27 -40 27
-42 10 -70 -15 -27 -15 -31 -1 -53 18 -28 27 -30 44 -13 8 8 11 -22 9 -123 -1
-123 3 -208 19 -407 l6 -73 -39 -34 c-32 -28 -36 -36 -27 -52 16 -26 44 -29
51 -4 10 38 20 22 27 -40 11 -109 8 -128 -21 -153 -32 -28 -27 -59 17 -110 43
-48 40 -73 -11 -86 -22 -6 -57 -10 -77 -8 l-37 3 -8 74 c-8 73 -8 74 22 105
27 28 31 39 31 89 0 65 -19 121 -47 135 -19 11 -20 26 -15 268 2 103 4 114 31
155 36 55 46 114 30 168 -11 37 -16 42 -38 39 l-26 -3 0 95 c0 52 5 149 12
214 9 81 10 123 3 130 -14 14 -39 -13 -42 -47 -1 -15 -3 -27 -4 -27 -12 0 -45
76 -42 97 3 26 6 28 43 25 22 -1 56 -9 76 -17 48 -18 164 -14 206 8 18 9 49
17 70 17 21 0 47 7 57 15 26 19 24 20 40 -19z m-896 -28 c-2 -32 -8 -44 -21
-46 -16 -3 -17 -1 -8 16 6 12 11 32 11 46 0 14 5 26 11 26 6 0 9 -17 7 -42z
m1267 11 c10 -30 0 -33 -13 -4 -6 14 -7 25 -2 25 5 0 12 -9 15 -21z m262 -11
c-3 -7 -5 -2 -5 12 0 14 2 19 5 13 2 -7 2 -19 0 -25z m-240 -90 c-3 -8 -6 -5
-6 6 -1 11 2 17 5 13 3 -3 4 -12 1 -19z m558 -93 c0 -83 -3 -116 -12 -120 -10
-3 -13 20 -13 99 0 100 5 136 19 136 3 0 6 -52 6 -115z m-1720 76 c-3 -6 -11
-11 -17 -11 -6 0 -6 6 2 15 14 17 26 13 15 -4z m207 -6 c3 -14 1 -28 -3 -31
-5 -3 -9 9 -9 25 0 38 6 40 12 6z m391 -10 c19 -18 12 -93 -10 -115 -14 -13
-15 -9 -9 42 4 35 2 59 -4 63 -6 4 -8 11 -5 16 8 12 11 12 28 -6z m-278 -37
c-3 -24 -7 -79 -9 -123 l-3 -80 -32 -9 c-17 -5 -35 -6 -39 -2 -15 16 -5 115
16 148 12 18 30 50 42 71 11 20 22 37 25 37 3 0 2 -19 0 -42z m935 12 c0 -5
-5 -10 -11 -10 -5 0 -7 5 -4 10 3 6 8 10 11 10 2 0 4 -4 4 -10z m38 -65 c-2
-2 -15 -6 -31 -10 -24 -6 -26 -5 -21 11 4 11 16 30 28 42 l21 24 3 -32 c2 -18
2 -33 0 -35z m108 28 c-11 -11 -17 4 -9 23 7 18 8 18 11 1 2 -10 1 -21 -2 -24z
m391 15 c-3 -8 -6 -5 -6 6 -1 11 2 17 5 13 3 -3 4 -12 1 -19z m-1597 -43 c0
-27 -4 -35 -18 -35 -10 0 -23 -5 -30 -12 -18 -18 -34 3 -30 38 2 21 8 28 21
26 9 -2 25 2 35 7 9 6 18 11 20 11 1 0 2 -16 2 -35z m858 -63 c2 -7 -6 -12
-17 -12 -21 0 -27 11 -14 24 9 9 26 2 31 -12z m654 -92 c-4 -28 -6 -31 -12
-16 -8 24 0 70 10 59 4 -4 5 -24 2 -43z m-657 15 c-10 -9 -24 -27 -30 -42
l-11 -27 -22 22 c-12 12 -22 31 -22 42 0 18 7 20 53 20 48 -1 51 -2 32 -15z
m745 -40 c0 -8 -4 -15 -10 -15 -5 0 -10 7 -10 15 0 8 5 15 10 15 6 0 10 -7 10
-15z m-1254 -32 c4 -21 8 -60 8 -88 1 -47 -1 -50 -26 -53 l-27 -3 6 78 c2 43
6 84 9 91 7 24 23 11 30 -25z m824 27 c0 -5 -5 -10 -11 -10 -5 0 -7 5 -4 10 3
6 8 10 11 10 2 0 4 -4 4 -10z m-1297 -99 c-3 -11 -13 -19 -23 -18 -16 1 -17 3
-4 21 8 11 14 32 15 46 l1 25 8 -27 c4 -15 6 -36 3 -47z m1137 44 c0 -8 5 -15
11 -15 5 0 7 -4 4 -10 -12 -20 -35 -10 -35 15 0 14 5 25 10 25 6 0 10 -7 10
-15z m-890 -39 c0 -14 -4 -28 -10 -31 -6 -4 -10 7 -10 24 0 17 5 31 10 31 6 0
10 -11 10 -24z m1400 -17 c0 -28 -15 -23 -16 6 -1 14 2 22 7 19 5 -3 9 -14 9
-25z m-471 -98 c7 -35 10 -65 8 -67 -7 -8 -46 159 -40 170 8 12 16 -14 32
-103z m-1172 28 c-3 -10 -1 -21 4 -24 11 -7 4 -514 -9 -585 -12 -69 -18 -311
-14 -592 3 -208 3 -217 -17 -227 -44 -24 -73 0 -31 27 23 14 27 34 5 26 -19
-8 -19 10 0 26 17 14 9 35 -9 23 -7 -4 -4 -1 6 9 21 19 23 35 6 41 -10 3 -10
7 -1 18 11 14 17 40 14 67 -1 9 -8 11 -21 7 -27 -8 -25 9 2 35 18 17 20 23 9
29 -8 5 -10 14 -6 21 13 21 15 81 4 102 -8 15 -7 24 5 37 9 10 14 20 11 23 -9
9 -15 107 -6 112 11 7 5 174 -7 220 -9 30 -7 37 9 48 17 12 20 30 24 182 2 93
1 174 -2 180 -11 17 -10 60 0 74 7 9 7 16 1 20 -19 13 -23 40 -8 53 9 7 11 16
5 23 -10 13 -9 46 3 65 12 19 30 -13 23 -40z m1090 19 c-3 -8 -6 -5 -6 6 -1
11 2 17 5 13 3 -3 4 -12 1 -19z m-797 -28 l-8 -35 -1 31 c-1 17 2 34 6 37 11
12 12 3 3 -33z m-180 20 c0 -5 -2 -10 -4 -10 -3 0 -8 5 -11 10 -3 6 -1 10 4
10 6 0 11 -4 11 -10z m1550 0 c0 -5 -4 -10 -10 -10 -5 0 -10 5 -10 10 0 6 5
10 10 10 6 0 10 -4 10 -10z m-1425 -28 c-3 -3 -11 0 -18 7 -9 10 -8 11 6 5 10
-3 15 -9 12 -12z m360 -2 c-17 -19 -17 -21 0 -40 23 -26 6 -52 -23 -34 -26 17
-26 41 2 69 30 30 47 34 21 5z m1070 1 c3 -5 1 -12 -5 -16 -5 -3 -10 1 -10 9
0 18 6 21 15 7z m-1205 -60 c0 -21 -6 -44 -14 -51 -12 -9 -16 -6 -21 23 -7 37
9 82 26 72 5 -4 9 -23 9 -44z m1260 45 c0 -3 -4 -8 -10 -11 -5 -3 -10 -1 -10
4 0 6 5 11 10 11 6 0 10 -2 10 -4z m-1592 -25 c3 -8 -1 -12 -9 -9 -7 2 -15 10
-17 17 -3 8 1 12 9 9 7 -2 15 -10 17 -17z m562 -7 c17 -44 11 -78 -19 -114
-31 -38 -39 -37 -43 0 -2 17 3 25 17 28 44 9 62 56 30 82 -17 14 -20 30 -5 30
6 0 15 -12 20 -26z m420 -15 c0 -5 -4 -9 -10 -9 -5 0 -10 7 -10 16 0 8 5 12
10 9 6 -3 10 -10 10 -16z m-870 1 c0 -13 -49 -44 -57 -36 -9 8 27 46 44 46 7
0 13 -4 13 -10z m317 -91 c-11 -28 -10 -33 12 -50 27 -22 25 -31 -6 -23 -16 5
-22 16 -25 47 -5 47 -3 57 17 57 11 0 11 -6 2 -31z m-319 -106 l-3 -107 -70 1
c-40 1 -71 6 -73 12 -2 6 8 11 21 11 27 0 93 68 79 81 -4 4 -25 9 -47 11 -35
3 -41 0 -54 -27 -19 -41 -35 -49 -42 -22 -10 42 0 64 29 59 18 -2 35 4 50 18
22 21 22 23 7 46 l-15 24 60 0 61 0 -3 -107z m266 -65 c3 -29 8 -80 11 -113
l7 -60 -27 33 c-15 17 -32 32 -38 32 -8 0 -13 32 -15 101 l-3 101 29 -21 c24
-17 31 -30 36 -73z m1206 77 c0 -8 -4 -15 -10 -15 -5 0 -7 7 -4 15 4 8 8 15
10 15 2 0 4 -7 4 -15z m-1893 -78 c2 -40 2 -126 1 -192 -5 -210 0 -457 11
-540 6 -44 12 -89 14 -100 1 -12 -4 -20 -12 -20 -9 0 -15 13 -17 35 -2 19 -5
64 -8 100 -8 89 -16 123 -33 137 -9 7 -12 17 -7 24 4 7 9 38 10 68 1 31 6 99
9 151 4 52 8 163 9 245 4 176 4 180 13 171 4 -3 8 -39 10 -79z m1903 -13 c0
-8 -4 -12 -10 -9 -5 3 -10 10 -10 16 0 5 5 9 10 9 6 0 10 -7 10 -16z m-786
-38 c-3 -13 -1 -27 5 -30 6 -4 11 -15 11 -24 0 -22 -15 -4 -28 35 -10 31 -7
43 10 43 5 0 6 -11 2 -24z m796 -78 c0 -5 -4 -8 -10 -8 -5 0 -10 10 -10 23 0
18 2 19 10 7 5 -8 10 -18 10 -22z m-528 -28 c3 -25 16 -74 28 -110 32 -99 36
-146 15 -170 -29 -32 -43 -25 -43 23 0 24 -6 64 -12 88 -7 24 -16 69 -20 99
-5 30 -12 70 -16 88 -6 31 -5 34 17 30 20 -2 25 -11 31 -48z m-1748 -222 c-1
-139 -7 -316 -14 -393 -6 -80 -9 -243 -6 -380 2 -132 2 -253 -1 -268 l-6 -28
-31 38 -31 37 3 116 c2 63 9 183 17 265 8 83 16 202 20 265 5 109 9 176 20
370 9 161 18 230 29 230 2 0 2 -114 0 -252z m728 229 l48 -1 0 -35 c0 -20 -3
-53 -6 -74 -5 -29 -9 -35 -20 -26 -7 6 -18 7 -25 3 -18 -11 -98 -14 -105 -3
-13 22 17 37 70 33 48 -3 54 -2 64 20 8 18 8 28 -2 41 -18 26 -50 15 -54 -18
-4 -31 -31 -36 -79 -14 l-27 12 34 5 c41 6 51 31 23 62 -18 21 -18 21 6 8 13
-7 46 -13 73 -13z m594 7 c-16 -42 59 -71 96 -37 17 15 18 15 18 -8 0 -54 -42
-63 -98 -22 -50 37 -54 45 -35 65 20 22 27 23 19 2z m519 -96 c4 -21 5 -42 2
-44 -6 -6 -37 83 -37 105 1 30 28 -18 35 -61z m430 42 c-3 -5 -10 -10 -16 -10
-5 0 -9 5 -9 10 0 6 7 10 16 10 8 0 12 -4 9 -10z m-73 -70 c0 -34 -5 -67 -10
-72 -11 -11 -16 117 -5 135 10 17 15 -3 15 -63z m-538 54 c10 -4 16 -18 16
-38 0 -17 7 -53 15 -80 17 -55 9 -76 -29 -76 -22 0 -55 -18 -93 -53 -38 -34
-144 -65 -208 -60 -32 2 -66 8 -76 13 -10 6 -36 10 -58 10 -32 0 -44 -5 -57
-25 -9 -14 -19 -24 -21 -21 -3 3 -6 41 -8 85 -3 73 4 97 19 72 4 -5 21 -9 39
-8 26 2 31 6 29 22 -2 11 -3 36 -4 55 0 19 -4 41 -10 48 -18 21 5 13 50 -18
54 -36 136 -49 178 -27 16 8 41 17 56 21 15 3 35 17 44 31 12 19 22 23 39 19
17 -4 26 0 35 15 11 22 19 25 44 15z m-459 -15 c11 -17 -1 -21 -15 -4 -8 9 -8
15 -2 15 6 0 14 -5 17 -11z m-378 -31 c-3 -8 -6 -5 -6 6 -1 11 2 17 5 13 3 -3
4 -12 1 -19z m485 10 c-9 -9 -15 -9 -24 0 -9 9 -7 12 12 12 19 0 21 -3 12 -12z
m973 -17 c3 -5 1 -13 -5 -16 -15 -9 -43 3 -35 15 8 13 32 13 40 1z m-1507 -83
c-2 -13 -11 -24 -20 -26 -21 -4 -24 18 -6 36 19 19 30 14 26 -10z m322 3 c0
-6 -4 -13 -10 -16 -5 -3 -10 1 -10 9 0 9 5 16 10 16 6 0 10 -4 10 -9z m1186
-7 c-3 -9 -6 -20 -6 -25 0 -5 -7 -9 -15 -9 -15 0 -21 31 -8 43 13 14 35 7 29
-9z m-1245 -73 c-7 -12 -17 -21 -23 -21 -9 0 -9 3 0 12 7 7 12 21 12 32 0 14
3 17 11 9 8 -8 8 -17 0 -32z m1244 -21 c3 -5 -3 -10 -15 -10 -12 0 -18 5 -15
10 3 6 10 10 15 10 5 0 12 -4 15 -10z m-1505 -55 c0 -50 -2 -56 -26 -65 -34
-13 -84 -13 -84 1 0 6 9 9 20 6 26 -7 47 18 31 37 -14 17 -1 49 27 65 29 17
32 13 32 -44z m304 20 c25 -19 30 -85 6 -85 -26 0 -40 21 -40 62 0 41 5 45 34
23z m-464 -23 c0 -4 -9 -13 -19 -19 -17 -11 -21 -9 -26 7 -9 29 2 42 26 30 10
-6 19 -14 19 -18z m1587 6 c-3 -8 -6 -5 -6 6 -1 11 2 17 5 13 3 -3 4 -12 1
-19z m-692 -75 c-44 -38 -64 -34 -35 7 14 19 28 27 46 26 26 -1 26 -1 -11 -33z
m85 23 c0 -8 -4 -18 -10 -21 -5 -3 -10 3 -10 14 0 12 5 21 10 21 6 0 10 -6 10
-14z m-225 -15 c14 -2 -37 -41 -54 -41 -10 0 -11 3 -2 13 9 11 4 14 -24 13
-19 -1 -40 -7 -47 -14 -16 -16 -25 -15 -32 3 -10 26 51 36 159 26z m832 -111
c4 -8 8 -49 8 -92 2 -60 -1 -75 -12 -71 -21 8 -25 43 -19 155 6 125 9 138 13
73 2 -27 7 -57 10 -65z m81 86 c4 -17 -14 -46 -28 -46 -6 0 -6 39 -1 68 2 11
27 -7 29 -22z m-1689 -42 c-16 -20 -28 -17 -22 5 3 12 11 17 19 14 11 -4 12
-9 3 -19z m489 12 c-2 -6 -10 -33 -17 -59 -8 -26 -22 -52 -33 -58 -10 -5 -16
-14 -13 -20 4 -5 11 -7 16 -4 5 4 9 1 9 -5 0 -6 -8 -13 -17 -17 -10 -3 -28
-15 -40 -26 l-23 -20 0 26 c0 29 -9 34 -28 15 -9 -9 -12 -9 -12 -1 0 7 27 31
60 54 39 27 56 45 49 50 -7 4 -9 14 -6 23 5 11 1 16 -12 16 -11 0 -21 5 -23
12 -5 15 -28 1 -28 -18 0 -16 -43 -57 -92 -86 -37 -23 -45 -23 -23 2 22 25 5
26 -33 4 -26 -16 -26 -16 3 10 61 54 147 108 165 103 10 -2 22 -2 28 2 18 11
73 9 70 -3z m-198 -16 c0 -12 -28 -25 -36 -17 -9 9 6 27 22 27 8 0 14 -5 14
-10z m468 -2 c-3 -7 -13 -15 -24 -17 -16 -3 -17 -1 -5 13 16 19 34 21 29 4z
m82 3 c0 -10 -30 -24 -37 -17 -3 3 -2 9 2 15 8 13 35 15 35 2z m60 0 c0 -12
-20 -25 -27 -18 -7 7 6 27 18 27 5 0 9 -4 9 -9z m-883 -28 c-9 -9 -20 -13 -24
-9 -4 4 -1 11 7 16 25 16 35 11 17 -7z m100 -9 c-3 -3 -12 -4 -19 -1 -8 3 -5
6 6 6 11 1 17 -2 13 -5z m113 -4 c0 -14 -49 -44 -58 -35 -4 3 4 15 17 26 26
21 41 24 41 9z m539 -21 c-16 -10 -23 -4 -14 10 3 6 11 8 17 5 6 -4 5 -9 -3
-15z m921 -9 c0 -15 -7 -20 -25 -20 -27 0 -28 1 -19 24 9 24 44 20 44 -4z
m-970 -30 c0 -5 -4 -10 -10 -10 -5 0 -10 5 -10 10 0 6 5 10 10 10 6 0 10 -4
10 -10z m-686 -19 c25 -10 11 -18 -31 -19 -24 0 -30 3 -26 14 6 15 27 17 57 5z
m83 -16 c-26 -23 -47 -32 -47 -20 0 6 62 45 70 45 3 -1 -8 -12 -23 -25z m108
-5 c-3 -5 -11 -10 -16 -10 -6 0 -7 5 -4 10 3 6 11 10 16 10 6 0 7 -4 4 -10z
m1465 -17 c0 -27 -6 -29 -26 -9 -20 20 -18 32 6 32 14 0 20 -7 20 -23z m-1430
-7 c0 -8 -23 -28 -50 -45 -58 -35 -60 -36 -60 -16 0 8 16 21 35 30 19 9 39 23
46 31 15 18 29 18 29 0z m375 -16 c-3 -5 -11 -10 -16 -10 -6 0 -7 5 -4 10 3 6
11 10 16 10 6 0 7 -4 4 -10z m255 0 c0 -5 -5 -10 -11 -10 -5 0 -7 5 -4 10 3 6
8 10 11 10 2 0 4 -4 4 -10z m-850 -10 c0 -12 -28 -25 -36 -17 -9 9 6 27 22 27
8 0 14 -5 14 -10z m45 -9 c-3 -6 -11 -11 -17 -11 -6 0 -6 6 2 15 14 17 26 13
15 -4z m65 4 c-7 -8 -17 -15 -22 -15 -6 0 -5 7 2 15 7 8 17 15 22 15 6 0 5 -7
-2 -15z m280 12 c0 -1 -11 -36 -25 -77 -13 -41 -25 -84 -25 -94 0 -11 -7 -27
-16 -37 -9 -10 -16 -37 -16 -68 -1 -35 -6 -51 -15 -51 -7 0 -13 -5 -13 -11 0
-5 5 -7 12 -3 8 5 9 0 4 -17 -18 -66 -29 -128 -27 -167 2 -54 -6 -82 -25 -82
-8 0 -14 -5 -14 -11 0 -6 7 -9 15 -5 19 7 19 -10 0 -99 -27 -119 -27 -119 -63
-122 -35 -3 -38 3 -17 31 26 34 16 39 -20 12 -41 -32 -47 -18 -7 16 35 30 57
58 46 58 -5 0 -31 -21 -57 -45 -85 -79 -70 -41 18 45 45 45 57 52 65 40 11
-17 13 -9 4 14 -9 23 -27 20 -53 -8 -31 -33 -120 -95 -101 -71 26 36 54 61 91
83 31 19 79 72 65 72 -3 0 -39 -27 -80 -60 -71 -56 -97 -71 -95 -52 0 4 46 43
102 87 96 76 134 118 91 100 -54 -21 -60 -19 -30 14 17 17 31 37 32 44 2 6 6
22 10 35 4 13 2 22 -5 22 -6 0 -11 7 -11 15 0 8 -3 15 -8 15 -11 0 -83 -49
-114 -77 -14 -14 -34 -23 -44 -21 -14 2 -3 15 44 51 34 26 89 68 122 93 33 25
60 49 60 53 0 29 -36 11 -107 -54 -43 -39 -93 -70 -93 -56 0 6 6 15 13 20 6 6
27 23 45 37 18 15 30 29 27 32 -2 3 -14 -3 -25 -13 -29 -26 -38 -9 -10 20 24
25 50 33 50 15 0 -21 27 -8 73 34 54 50 63 75 18 51 -17 -8 -33 -19 -36 -25
-3 -5 -11 -10 -17 -10 -17 0 8 24 57 56 46 29 53 38 35 49 -6 4 -8 15 -5 25 3
10 1 21 -5 25 -12 8 28 55 48 55 6 0 12 5 12 10 0 6 5 10 10 10 6 0 10 -1 10
-3z m112 -19 c-7 -7 -12 -8 -12 -2 0 6 3 14 7 17 3 4 9 5 12 2 2 -3 -1 -11 -7
-17z m118 -8 c0 -5 -9 -14 -20 -20 -22 -12 -27 -1 -8 18 14 14 28 16 28 2z
m61 -20 c-19 -16 -37 -27 -40 -24 -8 7 47 54 62 54 7 -1 -3 -14 -22 -30z
m-156 -7 c-17 -16 -32 -25 -33 -20 -4 9 38 46 53 47 5 0 -4 -12 -20 -27z m345
17 c0 -5 -4 -10 -10 -10 -5 0 -10 5 -10 10 0 6 5 10 10 10 6 0 10 -4 10 -10z
m688 -15 c-3 -3 -9 2 -12 12 -6 14 -5 15 5 6 7 -7 10 -15 7 -18z m-655 -15
c-3 -11 -12 -20 -19 -20 -20 0 -17 28 4 33 9 3 18 5 19 6 0 0 -1 -8 -4 -19z
m888 -43 c-17 -17 -24 18 -9 45 l13 23 3 -29 c2 -16 -1 -33 -7 -39z m-1811 49
c0 -3 -4 -8 -10 -11 -5 -3 -10 -1 -10 4 0 6 5 11 10 11 6 0 10 -2 10 -4z m37
-13 c-9 -9 -20 -13 -24 -9 -4 4 -1 11 7 16 25 16 35 11 17 -7z m798 -3 c-10
-11 -23 -20 -28 -20 -6 0 -2 9 8 20 10 11 23 20 28 20 6 0 2 -9 -8 -20z m-665
-5 c0 -8 -7 -15 -16 -15 -14 0 -14 3 -4 15 7 8 14 15 16 15 2 0 4 -7 4 -15z
m380 -24 c0 -12 -20 -25 -27 -18 -7 7 6 27 18 27 5 0 9 -4 9 -9z m-375 -21
c-10 -11 -25 -20 -34 -20 -12 1 -10 5 8 20 30 26 49 26 26 0z m569 -44 c-53
-48 -64 -54 -64 -32 0 8 21 33 47 55 66 56 81 36 17 -23z m-724 45 c0 -12 -29
-35 -36 -28 -11 10 5 37 21 37 8 0 15 -4 15 -9z m175 -36 c-50 -45 -70 -55
-63 -33 5 14 88 77 103 77 6 0 -12 -20 -40 -44z m445 10 c-7 -8 -17 -12 -23
-8 -6 4 -3 11 8 19 23 17 32 10 15 -11z m951 -23 c-6 -11 -11 -32 -11 -46 0
-14 -5 -28 -12 -32 -8 -5 -9 4 -5 32 4 21 7 52 7 69 0 27 1 28 16 13 12 -12
14 -20 5 -36z m-786 11 c-8 -15 -38 -49 -67 -74 -29 -26 -50 -50 -45 -55 4 -4
28 12 52 36 79 77 48 27 -41 -68 -50 -53 -94 -92 -105 -92 -29 0 -23 11 31 58
28 24 50 48 50 53 0 6 -19 -6 -42 -25 -40 -35 -58 -44 -58 -29 0 12 214 222
227 222 9 1 8 -7 -2 -26z m-230 7 c-3 -5 -11 -10 -16 -10 -6 0 -7 5 -4 10 3 6
11 10 16 10 6 0 7 -4 4 -10z m328 -184 c-5 -22 -14 -41 -21 -44 -9 -3 -10 3
-3 21 6 16 6 28 -2 36 -8 8 -7 17 2 35 11 19 11 32 2 57 -9 26 -8 35 4 49 8 9
16 23 17 31 1 8 4 -22 5 -66 2 -44 0 -98 -4 -119z m737 184 c0 -5 -2 -10 -4
-10 -3 0 -8 5 -11 10 -3 6 -1 10 4 10 6 0 11 -4 11 -10z m-775 -10 c-3 -5 -11
-10 -16 -10 -6 0 -7 5 -4 10 3 6 11 10 16 10 6 0 7 -4 4 -10z m-771 -35 c-26
-19 -31 -9 -8 16 11 12 20 16 22 9 2 -6 -4 -17 -14 -25z m1573 -2 c-3 -10 -5
-4 -5 12 0 17 2 24 5 18 2 -7 2 -21 0 -30z m-1637 17 c0 -5 -9 -14 -20 -20
-16 -8 -20 -8 -20 4 0 13 13 23 33 25 4 1 7 -3 7 -9z m610 -15 c-7 -9 -15 -13
-18 -10 -3 2 1 11 8 20 7 9 15 13 18 10 3 -2 -1 -11 -8 -20z m-210 -20 c6 -15
14 -49 18 -78 5 -29 24 -118 42 -199 l34 -148 -22 -70 c-25 -77 -49 -101 -172
-179 -81 -50 -94 -42 -57 36 27 59 41 125 52 248 13 149 45 343 65 393 12 29
28 28 40 -3z m-283 -40 c-29 -26 -47 -32 -47 -16 0 13 41 41 60 41 10 -1 6 -9
-13 -25z m443 15 c0 -5 -5 -10 -11 -10 -5 0 -7 5 -4 10 3 6 8 10 11 10 2 0 4
-4 4 -10z m1090 -25 c0 -8 -4 -15 -10 -15 -5 0 -10 7 -10 15 0 8 5 15 10 15 6
0 10 -7 10 -15z m-105 -4 c3 -5 1 -12 -5 -16 -5 -3 -10 1 -10 9 0 18 6 21 15
7z m-1805 -43 c25 -13 47 -26 50 -30 3 -3 2 -64 -2 -135 -3 -70 -6 -181 -7
-245 l-1 -117 -44 -30 c-24 -17 -47 -38 -50 -48 -17 -43 -23 19 -19 181 5 153
8 173 25 190 20 19 20 17 5 181 -2 22 -7 48 -11 58 -11 23 0 22 54 -5z m1802
-20 c-9 -9 -12 -7 -12 12 0 19 3 21 12 12 9 -9 9 -15 0 -24z m-1641 -11 c-1
-12 -15 -9 -19 4 -3 6 1 10 8 8 6 -3 11 -8 11 -12z m831 -24 c-47 -58 -131
-138 -138 -130 -7 6 143 162 159 165 5 1 -5 -15 -21 -35z m521 6 c21 -17 51
-55 68 -84 31 -55 60 -74 112 -76 l32 -1 -27 -12 c-53 -23 -78 -56 -78 -102 0
-60 19 -71 65 -39 21 14 41 25 44 25 7 0 8 -30 21 -350 12 -295 20 -490 21
-498 1 -4 1 -18 0 -32 l-1 -25 -143 -2 c-162 -2 -201 -10 -205 -40 -5 -33 -22
-41 -92 -47 -36 -4 -76 -8 -90 -11 -14 -2 -78 -7 -144 -10 l-118 -5 6 22 c3
13 6 33 6 46 0 18 4 21 23 17 29 -7 51 8 52 37 1 13 10 36 21 52 12 19 18 45
17 72 -1 34 2 43 18 47 24 6 26 57 3 92 -18 27 -20 24 31 40 32 10 18 70 -52
223 -28 61 -27 72 13 232 40 158 38 155 160 273 63 61 126 128 140 149 15 21
34 38 43 38 9 0 33 -14 54 -31z m395 -55 c1 -26 3 -49 5 -51 3 -2 1 -19 -3
-38 -4 -19 -5 -36 -3 -39 8 -7 12 -96 4 -96 -3 1 -19 11 -35 24 -20 17 -27 29
-22 41 5 14 9 15 21 5 18 -15 17 -21 16 108 0 56 3 100 8 98 5 -3 9 -27 9 -52z
m-888 23 c0 -18 -89 -109 -101 -102 -10 7 77 115 92 115 5 0 9 -6 9 -13z m101
-30 c-10 -9 -11 -8 -5 6 3 10 9 15 12 12 3 -3 0 -11 -7 -18z m-881 3 c0 -5
-10 -10 -22 -10 -19 0 -20 2 -8 10 19 13 30 13 30 0z m70 0 c0 -5 -8 -10 -17
-10 -15 0 -16 2 -3 10 19 12 20 12 20 0z m1355 -38 c-9 -9 -25 11 -25 31 1 21
1 21 15 -3 7 -14 12 -27 10 -28z m-1235 24 c0 -2 -34 -29 -76 -61 -42 -31 -75
-53 -73 -47 2 5 33 32 69 60 60 46 80 58 80 48z m332 -38 c-7 -7 -12 -8 -12
-2 0 6 3 14 7 17 3 4 9 5 12 2 2 -3 -1 -11 -7 -17z m244 -13 c-5 -18 -2 -25 9
-25 19 0 20 -29 0 -36 -8 -4 -15 -11 -15 -17 0 -5 9 -2 20 8 16 14 23 16 32 7
10 -10 -12 -37 -99 -123 -61 -62 -116 -110 -122 -108 -6 2 19 39 55 82 36 43
56 74 45 68 -45 -24 -42 2 5 52 48 50 33 47 -29 -8 -88 -77 -71 -36 29 66 61
64 80 73 70 34z m134 -8 c0 -18 -6 -41 -12 -50 -11 -15 -13 -12 -15 20 -3 44
2 63 17 63 5 0 10 -15 10 -33z m-320 14 c0 -12 -20 -25 -27 -18 -7 7 6 27 18
27 5 0 9 -4 9 -9z m-520 -5 c0 -3 -4 -8 -10 -11 -5 -3 -10 -1 -10 4 0 6 5 11
10 11 6 0 10 -2 10 -4z m-120 -36 c0 -5 -5 -10 -11 -10 -5 0 -7 5 -4 10 3 6 8
10 11 10 2 0 4 -4 4 -10z m90 6 c0 -2 -7 -6 -15 -10 -8 -3 -15 -1 -15 4 0 6 7
10 15 10 8 0 15 -2 15 -4z m1541 -58 c0 -29 1 -65 1 -79 1 -36 -10 -62 -22
-54 -5 3 -10 18 -10 32 0 32 21 153 26 153 2 0 4 -24 5 -52z m-1461 22 c0 -5
-4 -10 -10 -10 -5 0 -10 5 -10 10 0 6 5 10 10 10 6 0 10 -4 10 -10z m36 -25
c-34 -30 -66 -45 -66 -31 0 8 84 66 94 66 6 -1 -7 -16 -28 -35z m-141 -5 c3
-6 -1 -13 -10 -16 -19 -8 -30 0 -20 15 8 14 22 14 30 1z m853 1 c10 -6 7 -12
-13 -25 -14 -10 -43 -34 -63 -54 -20 -21 -48 -46 -62 -57 -22 -17 -21 -15 5
15 16 19 35 40 40 45 6 6 24 27 39 48 30 39 34 41 54 28z m632 -5 c0 -15 -46
-56 -62 -56 -14 0 1 43 20 58 21 16 42 15 42 -2z m-1450 -26 c0 -5 -7 -10 -16
-10 -8 0 -12 5 -9 10 3 6 10 10 16 10 5 0 9 -4 9 -10z m799 -127 c-12 -48 -27
-95 -34 -103 -7 -8 -10 -21 -8 -28 8 -20 -7 -82 -18 -82 -7 0 -8 15 -4 41 6
33 4 43 -11 54 -18 13 -18 14 0 34 20 22 9 30 -12 9 -6 -6 -15 -9 -18 -5 -4 3
12 27 34 53 39 46 48 81 14 51 -36 -30 -45 -28 -17 4 88 100 90 102 93 80 2
-11 -7 -60 -19 -108z m-849 87 c0 -5 -4 -10 -10 -10 -5 0 -10 5 -10 10 0 6 5
10 10 10 6 0 10 -4 10 -10z m660 -21 c0 -5 -10 -9 -21 -9 -18 0 -19 2 -9 15
12 15 30 12 30 -6z m1025 1 c3 -5 1 -10 -4 -10 -6 0 -11 5 -11 10 0 6 2 10 4
10 3 0 8 -4 11 -10z m-2 -65 c-6 -86 -29 -96 -32 -15 -1 45 1 51 16 48 13 -3
17 -12 16 -33z m-1034 -71 c-44 -45 -59 -53 -59 -33 0 19 78 91 91 84 7 -5 -5
-23 -32 -51z m47 -9 c-18 -23 -25 -42 -21 -57 5 -19 -7 -35 -58 -87 -73 -71
-101 -69 -32 3 54 56 59 70 10 27 -34 -29 -55 -39 -55 -24 0 7 170 173 178
173 2 0 -8 -16 -22 -35z m22 -37 c-3 -7 -13 -15 -24 -17 -16 -3 -17 -1 -5 13
16 19 34 21 29 4z m957 -38 c-4 -11 -13 -20 -21 -20 -17 0 -18 8 -2 42 10 21
15 24 21 12 5 -8 5 -23 2 -34z m-1461 22 c3 -5 1 -24 -3 -43 -5 -19 -12 -46
-15 -61 -4 -16 -13 -28 -21 -28 -18 0 -18 1 0 36 8 16 15 46 15 67 0 34 12 48
24 29z m-294 -12 c0 -5 -5 -10 -11 -10 -5 0 -7 5 -4 10 3 6 8 10 11 10 2 0 4
-4 4 -10z m650 0 c0 -5 -4 -10 -10 -10 -5 0 -10 5 -10 10 0 6 5 10 10 10 6 0
10 -4 10 -10z m-530 -10 c0 -5 -5 -10 -11 -10 -5 0 -7 5 -4 10 3 6 8 10 11 10
2 0 4 -4 4 -10z m358 -42 c-6 -30 -23 -57 -53 -87 l-44 -44 -20 24 c-11 13
-21 32 -22 42 -1 9 -2 22 -3 28 -1 7 16 18 37 25 21 8 51 22 65 33 43 32 51
27 40 -21z m-543 15 c10 -13 10 -23 3 -37 -8 -15 -8 -21 1 -24 6 -2 11 -11 11
-19 0 -14 -3 -14 -20 2 -13 12 -20 31 -20 57 0 42 6 47 25 21z m685 -3 c0 -5
-4 -10 -10 -10 -5 0 -10 5 -10 10 0 6 5 10 10 10 6 0 10 -4 10 -10z m-370 -14
c0 -3 -4 -8 -10 -11 -5 -3 -10 -1 -10 4 0 6 5 11 10 11 6 0 10 -2 10 -4z m590
-18 c0 -16 -3 -19 -11 -11 -6 6 -8 16 -5 22 11 17 16 13 16 -11z m913 -75 c-3
-79 -7 -93 -23 -77 -6 6 -6 32 1 73 7 43 7 67 -1 75 -13 16 0 30 14 16 6 -6
10 -43 9 -87z m-106 45 c-3 -8 -6 -5 -6 6 -1 11 2 17 5 13 3 -3 4 -12 1 -19z
m-1675 -126 c48 -30 135 -62 196 -73 69 -13 112 1 144 47 l25 35 7 -47 c4 -35
2 -52 -9 -64 -8 -9 -20 -54 -28 -100 -17 -105 -53 -181 -71 -151 -4 5 -8 55
-9 110 -3 108 -14 134 -45 115 -9 -6 -21 -27 -26 -47 -6 -25 -15 -37 -27 -37
-33 0 -44 -27 -31 -76 16 -61 16 -61 -23 -59 -61 4 -79 49 -50 119 18 41 13
56 -16 56 -12 0 -19 3 -17 8 2 4 12 24 23 45 14 29 17 42 9 55 -25 40 -112 14
-98 -30 3 -10 1 -18 -5 -18 -5 0 -13 9 -16 20 -11 35 -65 18 -65 -21 0 -9 9
-28 20 -41 17 -22 19 -35 13 -91 -5 -62 -7 -65 -25 -56 -16 9 -18 17 -13 50 5
30 2 45 -13 66 -13 19 -21 53 -25 101 -6 70 -5 74 25 108 26 29 30 40 25 74
l-5 39 48 -59 c27 -31 64 -67 82 -78z m898 89 c-14 -34 -12 -33 -34 -25 -21 8
-20 16 5 48 28 36 47 20 29 -23z m-1070 -7 c0 -13 -4 -24 -10 -24 -5 0 -10 14
-10 31 0 17 4 28 10 24 6 -3 10 -17 10 -31z m455 -11 c-5 -10 -9 -33 -10 -51
-2 -36 -17 -58 -34 -48 -7 5 -6 15 5 31 9 13 13 29 9 35 -4 6 1 22 10 36 18
28 32 26 20 -3z m435 15 c0 -16 -41 -58 -57 -58 -20 0 -16 21 9 47 23 25 48
31 48 11z m-184 -39 c3 -6 1 -16 -5 -22 -9 -9 -14 -8 -21 3 -9 15 -4 30 10 30
5 0 12 -5 16 -11z m343 -50 c1 -17 -7 -30 -23 -38 -40 -22 -45 -9 -19 49 21
47 26 52 33 35 5 -11 9 -32 9 -46z m-149 25 c0 -3 -11 -20 -25 -38 -14 -18
-25 -38 -25 -44 0 -7 -11 -12 -25 -12 -14 0 -25 2 -25 5 0 10 82 95 91 95 5 0
9 -3 9 -6z m-1570 -14 c-14 -4 -54 -8 -90 -7 l-65 1 70 6 c103 10 115 10 85 0z
m123 3 c-7 -2 -19 -2 -25 0 -7 3 -2 5 12 5 14 0 19 -2 13 -5z m50 0 c-7 -2
-19 -2 -25 0 -7 3 -2 5 12 5 14 0 19 -2 13 -5z m-460 -10 c-7 -2 -21 -2 -30 0
-10 3 -4 5 12 5 17 0 24 -2 18 -5z m1646 -95 c36 -16 68 -20 141 -20 135 0
194 14 259 63 29 22 54 39 56 37 31 -37 31 -79 0 -106 -28 -25 -30 -31 -13
-68 11 -23 10 -28 -7 -41 -15 -11 -20 -27 -22 -71 -3 -94 -7 -122 -18 -119 -5
1 -11 20 -11 42 -1 22 -2 46 -3 53 0 6 -12 12 -26 12 -30 0 -32 21 -9 80 20
49 8 70 -40 70 -37 0 -90 -44 -83 -69 19 -57 19 -61 5 -61 -8 0 -23 -6 -33
-14 -18 -13 -18 -14 3 -47 l21 -35 -22 -33 c-21 -34 -21 -34 -35 -13 -8 12
-23 22 -33 22 -23 0 -25 33 -5 81 17 41 5 73 -24 64 -27 -9 -32 9 -14 49 14
29 15 38 4 51 -18 22 -73 19 -95 -5 -16 -17 -17 -28 -9 -88 8 -53 6 -77 -4
-103 l-14 -33 -18 24 c-12 16 -17 34 -13 48 3 13 0 41 -7 62 -10 32 -10 45 0
70 10 23 10 34 1 43 -6 6 -11 25 -11 42 0 16 -7 38 -15 48 -7 11 -11 26 -8 34
5 11 12 8 31 -17 14 -18 46 -41 71 -52z m1174 10 c2 -32 0 -58 -5 -58 -4 0 -8
30 -7 68 1 77 6 73 12 -10z m102 -75 c2 -125 -7 -127 -19 -3 -5 54 3 145 11
136 3 -2 6 -62 8 -133z m-2662 105 c151 2 187 0 187 -11 0 -32 -495 -52 -552
-23 -16 9 -28 11 -28 5 0 -6 -12 -8 -27 -5 -16 2 -45 7 -66 11 -68 11 -30 22
78 22 58 0 109 4 113 8 4 4 30 3 57 -1 28 -5 134 -8 238 -6z m1467 2 c0 -5 -9
-10 -21 -10 -11 0 -17 5 -14 10 3 6 13 10 21 10 8 0 14 -4 14 -10z m128 -2
c-3 -7 -13 -15 -24 -17 -16 -3 -17 -1 -5 13 16 19 34 21 29 4z m-1293 -8 c4
-6 -6 -10 -22 -10 -22 0 -25 2 -13 10 19 12 27 12 35 0z m542 -117 c-2 -22 3
-29 21 -31 26 -4 27 -11 7 -38 -18 -24 -19 -54 -1 -79 7 -11 16 -32 19 -46 8
-33 44 -79 62 -79 8 0 17 9 20 20 3 11 14 20 24 20 10 0 28 11 41 26 24 25 24
26 9 69 -14 38 -14 47 -3 56 28 23 44 3 37 -48 -5 -45 -3 -52 31 -91 34 -42
35 -46 30 -100 -9 -87 12 -256 43 -336 l26 -70 -39 -33 c-33 -27 -37 -35 -28
-50 9 -14 22 -17 57 -15 38 2 46 0 52 -18 3 -11 13 -20 21 -20 30 0 111 -46
169 -96 33 -28 78 -61 100 -72 60 -31 102 -69 90 -80 -20 -19 -138 -43 -185
-37 -67 9 -98 13 -174 21 -73 7 -177 43 -208 71 -10 9 -38 17 -64 18 -31 2
-52 9 -69 25 -28 26 -35 63 -10 54 10 -4 15 0 15 15 0 12 -6 21 -15 21 -17 0
-19 18 -6 52 8 21 4 56 -25 206 -5 23 -2 38 10 51 11 12 15 27 11 43 -5 18 -2
27 9 31 26 10 18 41 -20 78 -20 18 -40 41 -44 50 -17 30 -41 168 -34 194 3 14
3 33 -1 42 -16 38 -12 108 11 191 6 22 13 13 11 -15z m1743 17 c0 -5 -7 -10
-16 -10 -8 0 -12 5 -9 10 3 6 10 10 16 10 5 0 9 -4 9 -10z m44 -8 c-1 -7 -2
-21 -2 -33 -3 -31 -22 -12 -22 22 0 20 4 29 13 27 6 -3 12 -10 11 -16z m-1194
-42 c-6 -11 -15 -20 -20 -20 -6 0 -10 9 -10 20 0 13 7 20 20 20 18 0 19 -3 10
-20z m252 -31 l-8 -34 -13 24 c-12 21 -11 26 5 38 24 17 27 12 16 -28z m948
-77 c0 -33 -4 -51 -10 -47 -5 3 -10 34 -10 68 0 44 3 58 10 47 5 -8 10 -39 10
-68z m-1360 -6 c0 -43 4 -53 40 -88 36 -36 40 -45 44 -103 3 -35 1 -67 -4 -70
-5 -3 -39 -8 -75 -12 -79 -7 -101 -26 -66 -54 13 -10 28 -16 35 -12 6 4 32 8
59 9 37 0 47 -3 47 -15 0 -34 -21 -41 -125 -45 -29 -1 -30 1 -41 64 -6 36 -9
112 -6 170 4 91 8 111 31 150 15 25 31 54 35 65 11 31 26 -1 26 -59z m196 12
c4 -5 1 -15 -5 -21 -6 -6 -11 -28 -11 -48 0 -30 6 -42 31 -62 18 -14 34 -37
38 -57 13 -67 71 -62 71 5 0 22 10 45 27 65 24 30 25 34 14 67 -7 19 -11 35
-9 36 1 1 12 7 23 13 16 9 24 6 46 -16 32 -31 35 -76 8 -105 -15 -17 -21 -49
-30 -165 -9 -101 -17 -150 -27 -163 -14 -16 -14 -21 2 -53 13 -28 21 -34 34
-28 44 19 78 16 109 -10 17 -14 39 -26 50 -26 10 0 28 -7 40 -15 12 -9 35 -14
52 -13 17 1 38 -5 48 -14 29 -27 167 -95 181 -91 6 3 12 1 12 -4 0 -5 -24 -17
-53 -26 -46 -15 -104 -18 -282 -18 -38 0 -112 13 -190 34 -61 17 -120 12 -149
-12 -17 -14 -68 10 -97 47 -17 23 -20 35 -14 76 17 131 21 301 10 437 -5 57
-3 84 9 113 9 21 16 46 16 56 0 13 6 17 20 13 11 -3 23 -10 26 -15z m1203 -60
c1 -34 0 -60 -2 -58 -9 10 -16 131 -8 126 4 -3 9 -33 10 -68z m-89 42 c0 -5
-7 -7 -15 -4 -8 4 -15 8 -15 10 0 2 7 4 15 4 8 0 15 -4 15 -10z m60 -106 c0
-16 -16 -19 -25 -4 -8 13 4 32 16 25 5 -4 9 -13 9 -21z m-130 -209 c-5 -55 -9
-102 -10 -105 0 -9 -204 1 -222 11 -9 5 -27 5 -40 0 -29 -10 -83 4 -109 30
-21 21 -34 22 -204 18 -234 -5 -210 -9 -210 31 0 33 2 35 35 36 19 0 51 3 70
7 32 6 162 18 200 18 8 0 55 8 104 17 74 13 91 20 104 41 9 14 21 30 27 34 5
4 61 6 124 5 94 -2 115 0 120 12 12 35 19 -63 11 -155z m130 150 c0 -8 -4 -15
-10 -15 -5 0 -10 7 -10 15 0 8 5 15 10 15 6 0 10 -7 10 -15z m37 -7 c-3 -8 -6
-5 -6 6 -1 11 2 17 5 13 3 -3 4 -12 1 -19z m10 -157 c2 -66 7 -131 13 -146 14
-37 12 -80 -3 -94 -8 -6 -17 -8 -20 -5 -3 4 -20 8 -38 10 -24 3 -30 1 -25 -11
3 -9 0 -15 -10 -15 -8 0 -17 7 -20 15 -8 21 16 47 37 42 10 -3 20 2 24 11 4
12 8 13 17 4 19 -19 31 -14 24 11 -21 70 -27 321 -8 302 3 -3 7 -59 9 -124z
m780 13 c-3 -3 -12 -4 -19 -1 -8 3 -5 6 6 6 11 1 17 -2 13 -5z m-3286 -40 c9
-3 88 0 175 7 93 6 222 8 310 4 l151 -7 12 -38 c18 -59 16 -63 -26 -55 -21 3
-56 15 -78 25 -37 18 -136 33 -280 44 -33 3 -109 -1 -170 -8 -105 -12 -111
-11 -164 10 -51 21 -53 23 -25 26 28 4 59 1 95 -8z m-541 -13 c0 -5 -18 -11
-41 -15 -22 -4 -50 -13 -62 -20 -50 -31 -189 -25 -199 9 -2 6 24 15 57 21 72
14 245 18 245 5z m143 -8 c-13 -2 -33 -2 -45 0 -13 2 -3 4 22 4 25 0 35 -2 23
-4z m2308 -40 c36 -31 70 -36 292 -49 l117 -7 0 -69 c0 -66 1 -69 33 -88 24
-15 50 -20 100 -20 65 0 71 2 99 32 25 27 29 38 27 77 -3 42 -1 45 25 52 19 5
43 2 76 -11 61 -24 336 -52 434 -43 89 7 88 8 88 -131 1 -101 -5 -122 -31
-110 -15 7 -86 14 -286 30 -53 4 -125 2 -174 -5 -66 -9 -89 -8 -115 3 -18 7
-82 19 -142 26 -60 6 -130 20 -156 31 -67 27 -166 21 -176 -10 -4 -11 8 -13
59 -8 53 5 73 2 121 -19 37 -15 78 -24 115 -25 100 -1 157 -12 161 -30 4 -24
-117 -33 -321 -24 -140 6 -168 5 -202 -10 -34 -14 -62 -15 -195 -9 -158 7
-220 20 -220 48 0 12 25 15 148 18 l148 3 52 34 c64 41 64 59 2 82 -25 9 -76
38 -115 63 -51 34 -80 46 -107 46 -24 0 -64 14 -113 40 -42 22 -84 40 -95 40
-24 0 -36 18 -21 33 7 7 69 17 139 23 200 17 197 17 233 -13z m1567 0 c4 -15
-82 -18 -139 -6 l-34 7 35 7 c55 11 133 6 138 -8z m-191 1 c-3 -3 -12 -4 -19
-1 -8 3 -5 6 6 6 11 1 17 -2 13 -5z m-2144 -38 c9 -7 17 -25 17 -40 0 -25 -13
-35 -24 -17 -3 5 -22 12 -42 16 -20 3 -43 13 -50 20 -15 14 -19 29 -6 22 4 -3
16 -1 27 4 30 12 58 10 78 -5z m2015 -12 c12 -4 22 -12 22 -19 0 -12 -145 -28
-163 -18 -33 19 88 51 141 37z m182 -14 c0 -5 -20 -10 -45 -10 -25 0 -45 5
-45 10 0 6 20 10 45 10 25 0 45 -4 45 -10z m-950 -79 c0 -13 -29 -35 -37 -28
-7 8 15 37 28 37 5 0 9 -4 9 -9z m-1279 -23 c31 -9 38 -15 37 -34 -3 -32 17
-66 56 -92 35 -24 99 -30 183 -17 67 11 178 -26 229 -77 41 -39 45 -40 150
-54 145 -18 231 -17 326 2 65 13 91 14 136 5 69 -13 296 -16 372 -4 63 10 135
10 310 -1 69 -4 162 -7 208 -7 l82 1 0 -34 c0 -19 2 -40 5 -48 4 -11 -12 -12
-92 -4 -66 7 -187 6 -369 -2 -238 -11 -274 -10 -301 3 -46 23 -231 38 -378 31
-178 -9 -386 20 -544 76 -30 10 -86 26 -125 34 -115 24 -276 112 -276 151 0 7
-5 13 -12 13 -19 0 -48 31 -48 52 0 21 1 21 51 6z m1727 -205 c-16 -2 -40 -2
-55 0 -16 2 -3 4 27 4 30 0 43 -2 28 -4z m-1398 -64 c182 -63 256 -83 355 -94
28 -4 66 -10 86 -14 19 -5 58 -6 85 -4 82 6 315 9 323 3 5 -3 13 -15 20 -27
l12 -23 -123 -1 c-68 -1 -134 -3 -148 -4 -14 -2 -139 -6 -279 -10 -197 -6
-252 -4 -246 5 6 9 3 9 -14 0 -12 -6 -34 -9 -49 -7 -26 4 -26 5 -5 12 15 5 23
18 28 46 6 32 2 43 -22 74 -15 19 -32 35 -38 35 -5 0 -19 8 -30 17 l-20 16 20
-8 c11 -4 31 -11 45 -16z m1654 -139 c-13 -13 -237 -22 -273 -12 -21 5 -13 8
34 13 110 10 250 10 239 -1z m-309 -10 c4 -6 -25 -10 -82 -9 -65 1 -79 4 -53
9 53 11 128 11 135 0z"/>
<path d="M2276 7085 c-11 -8 -17 -17 -14 -20 3 -3 16 3 29 14 27 23 14 28 -15
6z"/>
<path d="M3215 5277 c-10 -8 -15 -19 -11 -25 11 -18 53 -14 60 4 13 33 -16 45
-49 21z"/>
<path d="M2500 3059 c0 -11 5 -17 10 -14 6 3 10 13 10 21 0 8 -4 14 -10 14 -5
0 -10 -9 -10 -21z"/>
<path d="M2375 2367 c-4 -10 -5 -21 -1 -24 10 -10 18 4 13 24 -4 17 -4 17 -12
0z"/>
<path d="M4659 1094 c-11 -14 -11 -18 6 -30 22 -16 39 -5 33 22 -4 24 -22 28
-39 8z"/>
<path d="M3828 493 c-40 -6 -55 -29 -28 -43 19 -10 20 -19 18 -101 -1 -50 -5
-92 -9 -95 -4 -2 -23 29 -43 70 -20 41 -54 94 -76 119 l-39 44 -62 -3 c-77 -3
-94 -17 -47 -37 l35 -15 2 -117 c1 -65 4 -122 7 -126 3 -5 -2 -23 -10 -40 -20
-39 -14 -49 29 -49 l33 0 -4 145 c-2 80 -2 145 0 145 6 0 64 -97 105 -175 37
-69 63 -95 97 -95 24 0 33 18 32 65 0 11 3 70 7 130 6 92 11 114 29 133 21 23
21 24 2 38 -20 14 -27 15 -78 7z"/>
<path d="M4060 491 c-8 -6 -31 -11 -50 -11 -50 0 -65 -12 -43 -33 17 -14 17
-26 8 -141 -9 -109 -13 -128 -33 -149 -33 -35 -16 -42 103 -40 113 1 184 20
229 61 24 23 28 24 21 7 -20 -53 -27 -52 243 -58 69 -1 123 77 100 145 -17 51
-49 77 -107 88 -120 23 -150 86 -46 95 29 3 39 -1 51 -21 28 -41 84 -26 84 22
0 32 -12 37 -114 41 -78 3 -96 1 -123 -16 -34 -22 -51 -69 -39 -116 9 -35 58
-58 106 -50 31 5 42 3 59 -14 23 -23 26 -38 12 -74 -15 -40 -46 -43 -108 -12
-45 23 -58 26 -78 17 l-25 -11 6 57 c8 78 -31 156 -93 190 -48 26 -140 39
-163 23z m131 -67 c37 -35 54 -108 39 -163 -13 -48 -61 -89 -114 -98 -32 -5
-37 -3 -47 23 -15 38 1 235 21 259 19 23 66 12 101 -21z"/>
<path d="M3007 473 c-26 -7 -15 -27 16 -31 15 -2 27 -7 27 -12 0 -5 -16 -35
-35 -67 -19 -31 -44 -81 -56 -110 -12 -29 -25 -53 -29 -53 -11 0 -110 165
-110 183 0 8 16 27 35 41 20 15 33 32 30 37 -8 12 -186 11 -205 -1 -13 -9 -12
-13 6 -28 12 -9 29 -32 39 -51 16 -32 16 -34 -3 -55 -11 -11 -32 -43 -47 -71
-34 -60 -34 -60 -40 -53 -6 6 -46 121 -71 201 l-17 58 -71 -3 c-54 -2 -71 -7
-71 -17 0 -8 14 -18 31 -23 29 -7 34 -15 68 -115 20 -59 48 -125 62 -146 22
-33 30 -38 57 -35 24 2 36 11 48 34 31 63 82 135 93 131 6 -2 36 -39 67 -82
31 -43 64 -82 73 -87 28 -16 64 22 117 127 28 55 67 126 86 157 19 31 32 61
28 67 -6 11 -92 13 -128 4z"/>
<path d="M3197 474 c-4 -4 0 -15 9 -25 14 -15 14 -22 -1 -75 -45 -168 -63
-217 -86 -235 -20 -16 -22 -20 -9 -29 18 -12 60 -13 79 -1 7 5 15 29 17 54 2
25 10 62 18 81 14 35 17 36 65 36 28 0 51 -2 51 -4 0 -1 11 -34 25 -72 14 -38
22 -77 19 -86 -5 -16 2 -18 59 -18 42 0 68 5 76 13 13 16 5 27 -20 27 -25 0
-45 33 -75 125 -46 140 -65 185 -84 195 -25 13 -133 24 -143 14z m101 -81 c21
-62 20 -68 -12 -66 -16 1 -30 4 -33 6 -5 6 20 97 27 97 3 0 11 -17 18 -37z"/>
<path d="M1176 449 c-20 -16 -20 -16 2 -28 20 -11 22 -19 22 -99 0 -48 -5
-116 -10 -151 -13 -74 -4 -91 44 -90 17 1 60 0 94 -1 74 -3 96 12 107 73 7 34
5 37 -17 37 -15 0 -27 -8 -33 -22 -11 -25 -50 -34 -75 -18 -11 6 -14 24 -13
61 3 66 16 81 44 51 27 -30 39 -20 39 32 0 56 -8 62 -42 29 -35 -34 -48 -22
-39 37 5 35 12 47 33 57 32 16 54 9 62 -20 l6 -22 21 24 c11 13 19 33 17 44
-3 18 -12 20 -122 21 -97 1 -124 -2 -140 -15z"/>
<path d="M90 440 c-12 -8 -11 -12 8 -31 23 -21 23 -24 17 -147 -3 -71 -11
-132 -18 -140 -9 -11 -7 -17 6 -27 25 -18 124 -28 148 -14 l21 11 -22 23 c-14
15 -23 38 -24 61 -1 33 2 38 29 46 124 38 145 59 145 140 0 49 -6 60 -37 77
-26 13 -251 15 -273 1z m230 -77 c13 -12 13 -17 -1 -41 -14 -26 -51 -36 -86
-24 -14 4 -15 62 -1 79 12 15 67 6 88 -14z"/>
<path d="M465 440 c-3 -6 -3 -19 0 -31 10 -32 -63 -280 -89 -302 -21 -17 -21
-17 -2 -32 22 -16 93 -20 115 -6 17 11 7 41 -12 41 -31 0 -38 25 -20 76 9 27
18 51 20 53 2 3 21 4 42 3 21 -2 50 2 64 7 22 8 28 6 41 -14 9 -13 16 -29 16
-36 0 -6 7 -26 16 -45 13 -27 14 -37 4 -49 -19 -23 5 -45 49 -45 60 0 67 11
43 61 -11 24 -26 62 -32 84 -35 114 -77 209 -99 226 -17 14 -40 19 -87 19 -34
0 -66 -5 -69 -10z m105 -93 c22 -41 23 -49 10 -57 -17 -10 -79 -10 -85 0 -4 6
2 30 21 98 7 24 28 7 54 -41z"/>
<path d="M903 442 c-46 -14 -101 -77 -118 -135 -20 -71 -8 -123 40 -171 28
-28 45 -36 97 -43 63 -9 158 1 168 17 3 5 3 33 0 62 l-5 53 -60 -3 c-33 -1
-66 -4 -73 -7 -24 -9 -2 -25 34 -25 28 0 35 -4 32 -17 -2 -13 -15 -19 -46 -21
-36 -3 -47 1 -72 27 -26 26 -30 37 -30 85 0 49 4 59 35 92 34 36 35 37 93 30
47 -5 62 -4 72 9 17 21 4 34 -46 46 -44 10 -89 10 -121 1z"/>
<path d="M1940 378 c-71 -19 -78 -66 -21 -132 68 -78 76 -153 23 -203 -31 -28
-21 -43 15 -23 45 26 68 66 73 133 5 58 7 62 30 62 29 0 38 31 20 64 -16 30
-50 28 -50 -3 0 -40 -18 -40 -55 1 -43 46 -44 79 -2 75 18 -2 27 2 27 12 0 20
-19 24 -60 14z"/>
<path d="M1760 218 c-49 -52 37 -150 96 -110 33 22 45 93 20 118 -23 23 -92
18 -116 -8z m71 -61 c-15 -15 -31 2 -31 31 l1 27 20 -24 c12 -15 16 -28 10
-34z"/>
<path d="M4707 178 c-39 -29 12 -68 69 -54 20 5 25 12 22 34 -3 23 -8 27 -38
30 -19 2 -43 -3 -53 -10z"/>
</g>
</svg>
