<?xml version="1.0" standalone="no"?>
<!DOCTYPE svg PUBLIC "-//W3C//DTD SVG 20010904//EN"
 "http://www.w3.org/TR/2001/REC-SVG-20010904/DTD/svg10.dtd">
<svg version="1.0" xmlns="http://www.w3.org/2000/svg"
 width="500.000000pt" height="878.000000pt" viewBox="0 0 500.000000 878.000000"
 preserveAspectRatio="xMidYMid meet">
<metadata>
Created by potrace 1.15, written by Peter Selinger 2001-2017
</metadata>
<g transform="translate(0.000000,878.000000) scale(0.100000,-0.100000)"
fill="#000000" stroke="none">
<path d="M2241 8721 c-17 -18 -34 -46 -39 -62 l-7 -30 -35 26 c-39 29 -53 31
-70 10 -16 -19 -6 -56 25 -93 l24 -29 -23 -11 c-33 -15 -44 -52 -20 -69 22
-16 51 -16 109 -1 57 15 75 3 50 -35 -9 -14 -16 -40 -15 -59 3 -110 7 -148 19
-186 18 -54 8 -65 -42 -51 -53 14 -73 47 -56 93 15 42 3 103 -23 120 -28 17
-58 -18 -58 -70 0 -38 -4 -44 -36 -63 -26 -16 -35 -27 -32 -44 3 -19 10 -22
60 -25 47 -2 59 -7 72 -27 10 -15 26 -25 41 -25 13 0 36 -5 51 -10 26 -10 27
-13 21 -68 -3 -31 -12 -97 -19 -147 -7 -49 -12 -121 -10 -160 1 -38 -5 -108
-13 -155 -8 -47 -17 -102 -20 -122 -7 -42 -12 -46 -31 -20 -10 13 -15 14 -25
5 -10 -10 -9 -20 5 -50 28 -64 22 -244 -18 -521 -16 -109 -25 -179 -26 -194 0
-12 -8 -17 -27 -16 -38 0 -73 -15 -112 -47 l-32 -28 6 -166 c3 -91 10 -182 15
-201 21 -69 28 -126 21 -165 -5 -28 -2 -56 12 -94 22 -65 16 -119 -18 -151
-23 -22 -24 -22 -63 -5 -26 12 -45 29 -55 51 -13 27 -22 33 -53 36 -38 3 -62
28 -27 28 29 0 62 28 78 67 20 46 20 46 -12 40 -38 -7 -140 12 -186 35 -39 19
-60 16 -86 -16 -10 -11 -18 -13 -31 -6 -10 6 -30 10 -45 10 -29 0 -45 27 -24
41 8 5 33 9 56 9 34 0 46 6 67 31 14 17 26 37 26 45 0 18 -29 18 -54 -1 -10
-8 -22 -12 -26 -10 -4 3 -23 7 -42 9 -18 3 -38 6 -43 7 -27 7 -126 -16 -175
-40 -49 -24 -55 -31 -58 -62 -5 -52 -18 -58 -50 -20 -27 33 -28 33 -58 18 -17
-9 -36 -23 -44 -32 -9 -11 -22 -14 -47 -9 -44 8 -141 -28 -192 -73 -32 -28
-35 -34 -23 -52 16 -28 16 -31 -11 -31 -71 0 -209 -78 -263 -148 -36 -48 -40
-67 -23 -105 9 -20 6 -30 -15 -62 -15 -22 -26 -52 -26 -71 0 -44 -19 -44 -48
1 -24 38 -34 41 -71 22 -22 -11 -24 -17 -24 -103 0 -51 3 -97 7 -103 4 -6 2
-20 -5 -32 -16 -31 -6 -102 21 -139 13 -18 43 -41 67 -52 28 -12 49 -30 59
-51 9 -18 31 -52 48 -77 37 -51 56 -100 56 -141 0 -19 12 -43 36 -69 35 -39
37 -40 88 -34 51 6 52 6 86 -35 19 -23 53 -62 75 -87 21 -25 51 -69 65 -97 16
-32 33 -53 45 -55 107 -17 116 -78 27 -191 -20 -26 -48 -70 -61 -99 -14 -29
-28 -52 -32 -52 -4 0 -21 22 -37 49 -17 26 -43 58 -59 69 -48 34 -207 78 -268
74 -60 -4 -145 -25 -156 -38 -6 -8 -21 -14 -33 -14 -30 0 -119 -70 -126 -100
-8 -34 -36 -37 -68 -8 -35 30 -79 54 -118 62 l-31 7 -1 -102 c-1 -96 0 -101
18 -96 23 6 24 3 10 -24 -9 -16 -7 -21 9 -27 19 -7 19 -9 -9 -55 -25 -39 -30
-58 -30 -109 0 -60 0 -61 20 -43 11 10 20 29 20 41 0 35 32 80 52 76 11 -2 18
3 18 13 0 8 7 18 15 21 19 8 19 24 0 24 -24 0 -17 22 22 65 20 22 30 32 23 23
-9 -13 -9 -18 -1 -18 6 0 11 3 12 8 3 30 11 46 32 65 13 12 35 42 50 68 26 46
39 55 154 104 59 24 67 25 142 16 44 -6 97 -18 118 -27 21 -9 46 -18 55 -19
29 -3 87 -49 103 -81 8 -17 22 -37 31 -45 10 -8 23 -29 31 -46 8 -22 20 -33
33 -33 13 0 22 -9 26 -27 4 -14 25 -45 48 -68 107 -111 136 -146 136 -165 0
-16 5 -19 23 -15 18 5 36 -4 73 -33 56 -44 71 -50 131 -54 24 -1 45 -8 47 -15
9 -23 34 -14 61 22 28 36 25 60 -7 52 -30 -8 -16 15 28 46 22 15 57 30 79 33
75 10 85 14 85 33 0 35 -22 41 -84 25 -70 -18 -129 -54 -152 -91 -10 -16 -24
-39 -32 -52 -10 -17 -17 -20 -25 -12 -6 6 -19 11 -28 11 -25 0 -136 77 -197
138 -53 51 -54 54 -37 73 16 17 17 25 7 72 -19 85 -23 142 -14 167 7 18 12 -1
21 -81 7 -66 17 -109 27 -119 13 -13 14 -6 8 69 -5 63 -4 82 4 77 7 -4 12 -18
12 -32 0 -13 5 -24 10 -24 9 0 14 72 10 148 -1 17 3 32 8 32 24 0 32 -31 31
-111 -1 -46 2 -100 6 -119 8 -34 8 -35 15 -9 4 14 4 49 -1 78 -4 29 -6 69 -4
89 2 20 4 40 4 43 1 4 16 10 34 13 17 4 46 9 62 13 17 3 38 14 48 24 18 19 30
23 56 19 35 -4 105 27 129 58 13 17 28 32 32 32 11 0 30 -91 30 -140 0 -34 3
-40 21 -40 22 0 73 12 139 32 41 12 317 124 343 139 10 5 60 28 110 50 51 22
115 55 142 74 28 18 81 52 118 76 62 38 68 45 62 68 -14 61 -16 108 -5 131 26
58 49 94 50 78 0 -9 14 -28 30 -41 17 -14 30 -30 30 -35 0 -17 37 -42 63 -42
29 0 44 -17 29 -32 -6 -6 -8 -24 -5 -42 3 -21 -4 -47 -22 -81 -33 -64 -47
-133 -35 -175 13 -46 37 -61 88 -54 40 6 57 -5 32 -21 -6 -4 -21 -28 -34 -53
-22 -43 -23 -53 -14 -102 5 -30 16 -62 24 -71 21 -23 17 -66 -11 -118 -13 -25
-38 -82 -54 -126 -52 -146 -69 -185 -98 -232 -52 -84 -122 -256 -133 -323 -22
-143 -7 -232 52 -296 22 -23 49 -44 61 -46 19 -3 23 -11 28 -63 4 -33 10 -76
14 -96 6 -30 3 -43 -18 -75 -14 -21 -31 -58 -37 -81 -10 -41 -24 -51 -55 -43
-5 2 -44 11 -85 20 -168 40 -268 82 -561 237 -26 14 -74 53 -108 87 l-60 63
87 13 c102 15 121 23 221 100 102 78 143 122 184 200 42 78 52 123 32 140 -24
20 -40 6 -59 -51 -27 -80 -83 -156 -156 -216 -69 -56 -84 -62 -94 -38 -7 20
-45 19 -53 -1 -3 -9 -1 -25 5 -35 13 -21 10 -24 -36 -34 -30 -6 -33 -5 -28 12
3 10 0 28 -8 39 -14 18 -16 18 -33 1 -14 -14 -15 -21 -6 -37 11 -16 9 -20 -9
-25 -20 -7 -38 7 -38 32 0 6 -4 14 -9 17 -15 9 -41 -5 -41 -21 0 -12 -3 -13
-14 -4 -8 7 -23 11 -32 9 -14 -2 -20 6 -25 35 -3 21 -14 46 -23 55 -17 16 -18
14 -14 -30 4 -62 -15 -63 -26 -1 -4 26 -15 73 -24 103 -13 44 -17 50 -20 30
-9 -58 -26 -43 -34 30 -4 38 -23 26 -26 -17 -4 -50 -22 -68 -22 -23 0 38 -29
104 -45 102 -5 0 -13 -11 -17 -24 -6 -22 -6 -22 -7 -2 -1 12 -7 27 -15 33 -12
10 -17 8 -26 -8 -14 -28 -30 -27 -30 2 -1 20 -2 21 -14 4 -7 -9 -11 -29 -8
-43 3 -18 1 -25 -6 -20 -6 4 -9 13 -6 21 4 8 -1 18 -10 21 -11 4 -14 13 -11
24 9 27 -12 34 -26 9 -14 -26 -6 -120 16 -193 9 -29 11 -54 6 -59 -10 -10 -31
45 -31 84 0 15 -4 30 -9 33 -5 3 -12 31 -16 61 -4 34 -10 53 -17 49 -6 -4 -8
-28 -4 -63 6 -51 5 -54 -9 -37 -8 11 -16 31 -16 45 -1 14 -3 33 -4 41 -1 8 -3
27 -4 41 -1 22 -5 26 -33 24 -18 0 -43 -7 -55 -13 -33 -18 -31 10 2 32 35 23
50 53 34 72 -14 17 -29 18 -29 2 -1 -18 -48 -51 -61 -43 -13 9 8 35 28 35 10
0 13 9 11 33 -2 27 -7 32 -26 30 -19 -3 -21 0 -13 16 13 23 -4 41 -37 41 -18
0 -22 4 -18 18 3 9 -1 39 -9 66 -8 27 -15 77 -15 112 l0 63 -67 -2 c-67 -2
-68 -2 -71 26 -2 16 -9 27 -19 27 -8 0 -23 10 -33 22 -16 20 -20 21 -46 8 -27
-13 -114 -30 -160 -32 -12 0 -47 16 -79 36 -72 47 -110 46 -140 -1 -11 -18
-28 -32 -37 -33 -11 0 -18 -8 -18 -20 0 -11 -14 -35 -31 -53 -17 -17 -35 -42
-40 -54 -5 -13 -14 -23 -21 -23 -32 0 -56 -81 -31 -102 7 -6 13 -15 13 -20 0
-6 -6 -5 -14 2 -23 18 -61 8 -64 -17 -2 -15 5 -26 23 -36 24 -12 25 -15 11
-27 -14 -11 -19 -10 -34 4 -10 9 -26 16 -35 16 -14 0 -16 -26 -17 -230 0 -238
2 -252 39 -217 11 10 12 9 5 -3 -5 -8 -12 -42 -16 -75 -3 -33 -12 -105 -18
-160 -11 -97 -11 -100 10 -115 11 -8 47 -35 78 -60 73 -58 138 -100 155 -100
27 0 99 62 113 97 9 19 14 50 13 67 -2 30 12 169 32 313 6 40 8 77 4 83 -3 5
-28 10 -56 10 -52 0 -56 4 -37 45 11 24 8 29 -32 70 -36 37 -51 45 -81 45 -22
0 -42 -7 -52 -18 -12 -13 -27 -17 -58 -14 l-41 4 5 41 c7 52 58 151 79 155 10
2 31 -17 56 -50 41 -54 182 -202 262 -274 25 -22 60 -59 79 -83 25 -32 54 -52
118 -82 46 -21 91 -39 99 -39 8 0 23 -5 33 -12 30 -18 118 14 177 66 79 69 91
68 168 -11 37 -37 66 -72 66 -79 0 -17 34 -44 56 -44 11 0 37 -9 59 -20 50
-26 187 -28 243 -4 47 20 91 24 117 11 11 -6 45 -31 75 -57 30 -26 66 -53 79
-60 13 -7 57 -36 99 -66 41 -30 79 -54 84 -54 6 0 48 -18 95 -40 98 -47 215
-83 363 -111 58 -11 108 -24 112 -27 9 -10 -27 -189 -64 -312 -17 -58 -35
-120 -40 -137 -7 -25 -15 -33 -33 -33 -53 0 -114 -87 -102 -147 l5 -25 -142 7
c-146 7 -242 -6 -274 -38 -19 -20 1 -67 29 -67 12 0 55 -22 96 -50 41 -27 82
-50 91 -50 10 0 36 -20 60 -45 40 -41 42 -46 36 -85 -6 -34 -4 -39 9 -34 8 3
18 15 21 27 6 22 6 22 30 -5 21 -22 109 -58 144 -58 5 0 21 -9 36 -21 15 -11
32 -19 40 -16 14 6 56 125 56 161 0 13 11 63 25 110 14 47 25 92 25 100 0 7 7
19 15 26 8 7 14 19 13 28 -2 8 2 17 9 19 7 3 9 -3 6 -18 -4 -16 -2 -20 8 -17
25 8 21 35 -10 67 -34 35 -37 55 -20 128 29 124 53 212 69 258 15 41 38 132
55 218 3 17 -19 47 -34 47 -20 0 -33 -35 -46 -122 -7 -51 -18 -105 -23 -120
-12 -30 -47 -174 -57 -235 -4 -24 -11 -43 -16 -43 -5 0 -9 5 -9 10 0 6 -11 21
-24 33 -20 19 -22 26 -13 47 26 64 37 97 37 117 0 12 23 110 50 219 28 109 50
206 50 216 0 27 22 31 65 14 42 -18 137 -21 164 -6 10 5 59 15 110 21 74 10
95 10 115 -1 14 -7 23 -16 21 -21 -3 -4 -38 -16 -77 -28 -40 -12 -98 -28 -128
-37 -30 -9 -83 -19 -117 -22 -35 -2 -63 -9 -63 -15 0 -13 127 -2 198 17 46 13
54 13 59 0 3 -8 12 -14 21 -14 34 0 -5 -20 -58 -30 -55 -10 -79 -24 -67 -36 7
-7 143 24 181 41 14 6 18 5 14 -6 -2 -8 -39 -25 -81 -39 -118 -39 -139 -74
-27 -46 34 9 65 16 68 16 16 0 -67 -45 -113 -61 -64 -23 -72 -42 -13 -33 23 4
54 11 66 16 25 9 42 3 42 -13 0 -6 -9 -8 -20 -4 -14 4 -30 -3 -55 -28 -40 -39
-34 -53 13 -36 21 7 37 7 49 1 16 -9 15 -11 -7 -16 -14 -3 -36 -7 -50 -8 -31
-4 -33 -30 -2 -43 27 -12 29 -25 4 -25 -18 0 -52 -29 -52 -44 0 -16 46 -45 73
-46 15 0 27 -5 27 -10 0 -18 -24 -20 -65 -6 -50 18 -71 4 -36 -25 13 -10 31
-19 42 -19 32 0 31 -19 -2 -78 -18 -31 -41 -73 -51 -92 -28 -50 -37 -58 -48
-40 -6 9 -3 18 7 25 22 16 10 41 -21 47 -39 8 -54 -7 -32 -31 19 -21 19 -21
-7 -21 -38 0 -33 -15 13 -43 37 -22 39 -25 25 -43 -9 -11 -14 -14 -15 -6 0 16
-59 42 -78 35 -7 -3 -11 -12 -8 -20 4 -9 -1 -17 -14 -20 -11 -3 -20 -11 -20
-17 0 -21 48 -59 64 -53 18 7 21 33 6 42 -5 3 -10 11 -10 18 0 8 3 8 12 -1 7
-7 20 -12 30 -12 23 0 22 -1 -3 -71 -22 -59 -39 -76 -39 -39 0 24 -42 70 -65
70 -18 0 -20 -28 -2 -49 14 -18 41 -90 35 -96 -2 -2 -22 18 -45 44 -40 46 -42
50 -32 87 5 22 15 49 21 61 6 13 8 26 5 30 -12 11 -46 -28 -53 -60 -18 -85
-114 -352 -127 -355 -8 -2 -56 11 -108 27 -52 17 -114 33 -139 37 -41 6 -43 5
-25 -8 11 -8 47 -25 80 -39 70 -28 163 -92 173 -120 4 -11 21 -29 37 -39 l30
-20 -130 -1 c-71 -1 -150 -1 -175 0 -25 1 -79 -3 -120 -8 -58 -8 -78 -7 -90 3
-21 18 -147 28 -209 16 -35 -6 -60 -6 -79 1 -15 6 -99 15 -187 20 -88 4 -177
11 -197 15 -25 4 -38 2 -38 -5 0 -25 49 -35 190 -36 151 -2 247 -12 256 -26 3
-5 38 -6 79 -2 56 4 79 2 91 -8 13 -10 95 -14 403 -16 212 -2 413 -4 446 -5
106 -3 207 10 221 29 11 15 35 18 191 20 167 2 227 5 448 19 91 6 124 17 90
30 -10 4 -116 2 -236 -5 -120 -7 -252 -10 -293 -6 -78 8 -195 -7 -254 -31 -44
-18 -159 -26 -257 -18 -78 7 -79 8 -48 20 17 8 37 22 45 32 19 27 212 41 243
18 30 -23 49 -19 84 13 32 30 33 30 117 24 57 -4 97 -2 124 7 34 11 46 11 82
-3 44 -16 193 -17 403 -1 52 4 117 1 185 -9 89 -13 147 -17 275 -20 11 0 39 3
63 8 23 4 42 4 41 -1 0 -5 -40 -28 -89 -52 -76 -36 -95 -51 -141 -107 -38 -47
-67 -72 -105 -89 -28 -13 -60 -33 -70 -43 -126 -132 -220 -239 -244 -276 l-29
-46 -208 -3 c-114 -2 -940 -3 -1835 -3 l-1628 0 0 -25 0 -25 1262 2 c1147 2
2312 12 3351 30 l387 6 0 34 0 34 -70 -7 c-45 -4 -70 -3 -70 3 0 20 30 35 65
32 24 -3 39 2 45 11 13 20 13 33 0 25 -15 -9 -52 5 -47 18 2 7 19 10 40 9 32
-3 37 -1 37 17 0 12 -6 21 -15 21 -19 0 -19 11 0 36 18 23 22 229 4 240 -6 3
-8 17 -5 29 3 13 2 26 -3 29 -12 8 -5 156 8 169 6 6 11 35 11 65 0 50 -3 58
-36 89 -44 41 -96 68 -148 76 -21 3 -47 14 -57 23 -12 10 -19 12 -19 5 0 -7
-9 -9 -22 -7 -13 3 -40 8 -61 11 -30 5 -37 10 -33 23 3 9 -1 28 -9 42 -8 14
-15 22 -16 18 -1 -5 -2 -11 -3 -15 -1 -5 -5 -14 -9 -21 -5 -6 -5 -17 -1 -24 5
-8 2 -9 -10 -5 -10 4 -36 10 -59 13 -52 7 -225 71 -252 94 -11 9 -31 22 -45
28 -14 7 -43 23 -65 37 -22 14 -56 34 -75 44 -43 23 -84 66 -76 79 3 5 -1 15
-9 22 -8 7 -15 19 -15 27 0 13 3 13 15 3 8 -7 15 -19 15 -26 0 -8 4 -14 9 -14
5 0 11 -9 14 -20 3 -11 10 -20 16 -20 16 0 13 46 -4 60 -8 7 -15 23 -15 36 0
12 -4 26 -10 29 -5 3 -14 25 -20 48 -23 94 -31 117 -42 117 -11 0 -8 -21 12
-99 17 -67 7 -83 -18 -32 -12 24 -19 48 -16 53 3 5 -2 20 -11 34 -10 16 -14
35 -11 50 4 13 2 24 -3 24 -11 0 -29 82 -34 158 -2 29 -8 56 -12 60 -13 12 6
-209 25 -288 9 -42 29 -99 44 -128 30 -59 31 -62 13 -62 -18 0 -182 169 -206
213 -22 40 -26 57 -13 57 15 0 107 -83 115 -104 9 -21 9 -21 18 4 7 17 5 39
-7 75 -10 31 -17 87 -18 150 -1 81 -4 100 -16 100 -8 0 -15 -7 -15 -15 0 -38
17 -217 21 -232 4 -12 0 -18 -10 -18 -18 0 -23 16 -32 95 -9 87 -9 88 -21 110
-11 20 -12 19 -20 -3 -8 -21 -10 -22 -22 -8 -20 24 -28 19 -27 -18 1 -19 10
-44 21 -56 l20 -22 -25 3 c-34 5 -59 59 -67 144 -5 52 -3 69 8 76 10 6 10 9 2
9 -18 0 -16 10 9 77 15 42 38 74 82 118 54 54 189 145 214 145 5 0 15 7 22 15
7 8 20 14 29 13 12 -2 15 4 13 27 -7 61 -43 68 -74 15 -10 -18 -25 -30 -38
-30 -11 0 -20 -4 -20 -9 0 -14 -59 -54 -80 -55 -25 -1 -169 -150 -186 -192 -8
-20 -21 -34 -32 -34 -9 0 -30 -9 -47 -20 -16 -11 -39 -20 -50 -20 -26 1 -68
36 -62 52 2 7 -1 22 -7 33 -6 11 -16 40 -22 65 -12 44 -12 46 17 68 16 13 39
42 50 64 11 22 32 50 46 63 31 26 26 48 -15 69 -27 14 -33 13 -81 -10 -29 -13
-54 -24 -56 -24 -1 0 0 11 2 24 6 31 -6 37 -51 25 -21 -6 -40 -8 -43 -5 -3 3
1 20 9 38 9 18 17 38 19 43 11 29 91 164 104 175 12 10 20 9 40 -4 13 -9 40
-16 60 -16 31 0 38 5 50 33 l14 32 2 -45 c2 -64 10 -85 48 -125 35 -38 121
-85 153 -85 11 0 31 -6 46 -14 44 -22 174 -7 206 23 26 25 34 51 16 51 -18 0
-25 2 -42 11 -25 13 -23 20 17 52 33 27 36 27 65 12 16 -9 30 -19 30 -24 0 -9
120 -3 130 6 8 7 -24 23 -50 23 -30 1 -120 49 -131 70 -4 8 -10 23 -13 32 -5
18 -122 97 -143 98 -7 0 -13 6 -13 14 0 8 -16 28 -36 46 -20 17 -33 34 -30 37
3 4 29 6 56 5 44 -1 58 5 113 43 100 70 134 153 103 256 -17 61 -60 109 -118
133 -44 19 -99 21 -115 5 -8 -8 -19 -5 -41 11 -26 20 -33 20 -73 10 -48 -13
-79 -35 -79 -57 0 -7 -12 -23 -26 -36 -14 -12 -30 -32 -35 -44 -13 -35 -32
-29 -24 7 7 32 8 32 -70 34 -20 1 -33 8 -40 23 -7 13 -19 31 -28 41 -24 27
-21 32 19 32 33 0 36 -2 32 -25 -6 -29 5 -39 42 -41 14 0 32 -2 40 -5 9 -2 14
2 13 11 -1 8 -3 24 -5 35 -2 13 3 20 16 20 28 0 30 21 5 46 -15 15 -19 24 -11
27 51 17 112 113 112 177 0 47 -25 116 -60 169 -41 61 -46 63 -132 68 -60 4
-78 2 -78 -8 0 -20 39 -36 77 -32 26 3 37 0 44 -14 5 -10 16 -18 24 -18 16 0
45 -49 45 -75 0 -23 -34 -18 -62 10 -23 23 -26 23 -47 9 -15 -11 -21 -24 -20
-43 4 -33 -7 -51 -30 -51 -9 0 -26 -6 -37 -14 -19 -14 -19 -15 4 -39 20 -21
22 -29 13 -46 -30 -55 -161 17 -177 97 -8 40 6 41 34 2 13 -16 31 -30 41 -30
21 0 47 27 53 55 2 11 14 22 28 25 35 8 35 39 0 80 l-30 35 -29 -31 c-16 -17
-31 -38 -33 -45 -4 -11 -10 -11 -24 -3 -33 20 -28 42 15 64 33 16 41 26 41 48
0 16 -6 36 -13 46 -29 39 -168 -10 -175 -62 -4 -24 -42 -56 -54 -44 -13 13 11
81 32 92 24 13 27 40 5 40 -26 0 -74 29 -87 53 -10 18 -14 135 -4 144 6 6 86
-30 86 -39 0 -5 25 -20 55 -33 30 -13 82 -47 117 -75 70 -57 131 -81 151 -61
9 10 8 15 -5 25 -13 10 -15 15 -6 24 17 17 25 15 31 -8 7 -28 35 -15 43 19 4
14 12 44 19 66 13 40 14 40 62 39 97 -1 197 -23 215 -47 27 -36 70 -260 60
-317 -2 -8 -4 -34 -6 -57 -4 -62 -16 -65 -16 -5 0 59 -11 71 -40 42 -29 -29
-25 -80 10 -151 52 -101 131 -172 175 -155 21 8 9 28 -34 60 -33 24 -81 83
-81 98 0 21 32 5 41 -21 10 -28 33 -44 102 -70 15 -6 35 -24 44 -40 41 -71
142 -101 203 -59 50 34 68 69 53 108 -10 28 -9 35 18 75 26 38 36 45 85 56 42
9 57 10 66 1 9 -9 5 -19 -21 -42 -36 -34 -39 -68 -6 -85 46 -23 46 -24 20 -76
-25 -49 -26 -49 -74 -49 -49 0 -74 -15 -69 -41 2 -9 -5 -13 -21 -11 -63 9 -96
-28 -43 -50 51 -20 112 -53 112 -59 0 -7 -70 -23 -74 -17 -1 2 -7 16 -14 32
-11 25 -16 27 -45 22 -18 -3 -49 -9 -69 -12 -44 -8 -81 -50 -53 -60 9 -4 15
-18 15 -35 0 -31 17 -38 39 -17 15 15 15 13 -21 -62 -24 -50 -26 -60 -17 -103
8 -35 19 -55 45 -75 38 -30 44 -57 14 -65 -15 -4 -20 -14 -20 -39 0 -39 15
-58 46 -58 32 0 39 -29 13 -56 -11 -12 -18 -27 -14 -33 12 -21 53 -12 74 17
12 15 25 32 31 39 12 14 13 34 3 31 -14 -2 -43 14 -43 24 0 5 5 6 11 3 5 -4
19 1 29 10 24 22 44 14 62 -22 12 -25 18 -28 66 -28 55 0 82 -18 82 -53 0 -16
-57 -72 -74 -72 -21 0 -86 -61 -106 -101 -11 -21 -20 -57 -20 -79 0 -44 32
-118 56 -127 23 -9 64 24 64 52 0 26 7 30 28 16 12 -7 11 -14 -2 -39 -9 -17
-16 -44 -16 -59 0 -37 51 -125 81 -141 13 -6 67 -16 119 -21 104 -10 120 -4
120 45 0 31 -61 93 -99 100 -36 7 -51 29 -51 71 1 25 2 26 14 11 16 -21 68
-27 89 -9 9 7 17 31 19 54 2 32 7 41 18 38 8 -2 30 -6 48 -9 24 -3 34 -10 38
-28 4 -14 14 -29 24 -34 46 -25 55 1 10 29 l-30 18 21 19 c21 19 22 19 15 -3
-6 -18 -3 -23 11 -23 36 0 44 15 41 70 l-3 52 -32 -31 c-44 -41 -73 -42 -73 0
0 17 -5 39 -10 50 -9 16 -7 19 14 19 14 0 37 5 52 12 23 11 28 10 40 -7 13
-17 14 -16 14 18 0 34 -2 37 -29 37 -17 0 -33 -5 -36 -10 -11 -17 -23 -11 -18
9 3 13 17 22 44 26 l39 7 0 62 0 62 -37 -1 c-21 -1 -48 -7 -60 -13 -35 -19
-53 -15 -53 14 0 14 4 22 10 19 16 -10 119 25 130 45 6 10 10 39 10 64 0 36
-3 45 -17 45 -10 0 -27 2 -38 5 -11 2 -23 5 -27 5 -5 1 -8 7 -8 14 0 6 -7 25
-15 41 -8 15 -12 33 -9 38 4 6 -1 6 -13 0 -29 -16 -48 0 -31 27 17 28 3 50
-45 74 -20 10 -37 23 -37 28 0 12 17 12 25 -1 3 -5 16 -10 29 -10 12 0 31 -7
42 -15 25 -19 45 -19 38 0 -4 9 0 15 10 15 9 0 16 7 16 15 0 9 6 12 15 9 11
-5 15 1 15 17 0 16 -10 30 -31 42 -37 21 -34 25 29 46 42 14 47 19 50 49 3 33
3 33 -31 27 -42 -8 -77 1 -77 20 0 8 -12 17 -27 21 -16 4 -32 11 -38 18 -5 6
-23 12 -39 13 -16 1 -37 5 -45 8 -13 5 -13 7 -1 15 8 5 22 4 33 -2 53 -28 123
25 91 70 -8 11 -11 27 -8 36 7 18 -21 23 -31 6 -3 -5 -15 -10 -26 -10 -10 0
-19 5 -19 10 0 13 -27 13 -35 0 -4 -6 -1 -18 6 -26 10 -12 10 -17 0 -27 -10
-9 -15 -8 -25 5 -8 12 -20 15 -36 11 -19 -5 -22 -3 -17 10 4 11 1 17 -9 17
-11 0 -15 -8 -13 -28 2 -15 -1 -34 -5 -42 -7 -12 -6 -13 5 -3 14 14 69 18 69
6 -1 -9 -43 -41 -113 -83 -55 -34 -90 -85 -82 -118 7 -30 -14 -37 -59 -18 -37
15 -49 36 -21 36 12 0 13 4 5 19 -15 28 -15 28 39 36 37 5 50 11 54 26 3 11
14 19 25 19 11 0 28 12 37 28 10 15 12 21 4 14 -7 -6 -19 -12 -26 -12 -20 0 5
45 33 61 18 9 23 18 18 33 -10 32 -21 41 -38 27 -22 -18 -60 -10 -64 14 -2 15
10 27 50 48 29 15 62 27 73 27 17 0 18 2 4 15 -14 14 -102 28 -159 26 -38 -2
-121 -28 -157 -50 -19 -12 -40 -38 -52 -65 -22 -51 -29 -53 -125 -40 -40 6
-47 10 -44 27 2 16 15 23 53 32 28 6 56 15 63 19 7 4 15 1 18 -9 9 -21 37 1
29 24 -12 41 130 96 275 106 143 11 241 -12 333 -78 l28 -19 -23 -12 c-12 -6
-25 -20 -27 -31 -3 -19 -2 -19 16 -3 22 20 69 28 66 12 -1 -6 9 -16 22 -22 24
-11 25 -10 25 27 0 34 -4 40 -47 68 -125 80 -188 97 -358 97 -116 1 -138 -2
-206 -26 -42 -15 -105 -45 -140 -66 -69 -43 -114 -58 -124 -42 -10 16 46 110
82 137 18 14 33 31 33 38 0 20 -79 85 -150 125 -35 19 -78 50 -95 69 -21 21
-39 32 -48 28 -21 -8 -34 10 -45 60 l-9 41 37 11 c84 25 132 29 166 15 18 -8
52 -14 74 -14 l40 0 0 -42 c0 -68 29 -104 116 -144 55 -26 83 -34 104 -29 39
9 54 28 41 54 -15 27 -14 31 9 31 21 0 50 -45 50 -78 0 -36 91 -92 116 -71 8
6 14 17 14 24 0 7 7 18 15 25 8 7 15 16 15 21 0 13 -34 11 -48 -3 -8 -8 -12
-8 -12 -1 0 6 -7 14 -16 17 -12 5 -14 1 -8 -16 6 -20 5 -21 -10 -9 -9 7 -16
22 -16 32 0 16 4 17 31 7 40 -14 50 1 37 49 -5 19 -7 37 -4 41 3 3 6 0 6 -7 0
-7 7 -19 15 -27 8 -9 15 -24 15 -35 0 -22 18 -25 45 -5 16 11 23 11 51 -6 18
-10 38 -26 44 -34 7 -7 23 -14 36 -14 22 0 23 2 17 73 -8 104 -32 151 -106
198 -42 28 -71 39 -97 39 -22 0 -43 7 -51 16 -20 25 34 67 76 59 126 -23 161
-14 151 35 -4 24 0 33 30 55 28 22 33 30 23 41 -6 8 -26 14 -43 14 -50 0 -101
18 -125 44 -21 22 -22 27 -10 59 10 30 10 37 -7 60 -26 34 -66 57 -101 57 -21
0 -36 9 -52 31 -13 17 -37 37 -54 44 -18 8 -25 14 -15 15 19 0 68 55 68 77 0
8 -9 17 -20 20 -22 6 -17 23 7 23 19 0 42 29 43 54 0 13 5 16 18 11 36 -14 51
-9 62 21 8 20 6 34 -5 57 -8 17 -13 32 -10 35 2 3 24 -2 47 -11 66 -24 159
-30 183 -13 20 14 20 14 0 36 -11 12 -43 37 -71 55 -28 18 -67 49 -86 69 -50
52 -84 61 -139 39 -24 -11 -54 -17 -66 -15 -20 3 -23 9 -23 54 0 47 -3 54 -47
99 -27 26 -59 62 -72 79 -13 17 -36 34 -52 37 -41 8 -53 26 -45 74 5 34 1 49
-30 105 -20 35 -43 70 -53 77 -9 6 -24 25 -34 40 -10 15 -26 31 -36 35 -10 4
-30 21 -44 37 -13 17 -42 36 -63 44 -22 7 -54 22 -72 33 -28 17 -32 25 -27 45
4 18 -3 37 -30 74 -19 27 -35 51 -35 54 0 2 -13 26 -28 52 -40 69 -72 151 -65
168 3 9 0 44 -7 80 -11 60 -11 67 9 100 24 42 21 53 -23 82 -45 29 -70 83 -62
137 7 48 6 49 -57 99 -38 31 -46 42 -36 53 18 22 25 17 58 -35 62 -101 178
-134 273 -78 25 14 48 36 51 47 7 28 25 25 39 -5 11 -24 7 -30 -44 -83 -64
-65 -85 -102 -97 -169 -11 -56 1 -90 54 -164 45 -61 71 -70 100 -37 l22 25 21
-24 c15 -17 28 -23 42 -18 18 6 20 2 20 -42 0 -37 8 -62 33 -103 36 -61 106
-120 143 -120 20 0 24 5 24 29 0 16 7 34 15 41 22 18 19 35 -20 104 -38 68
-46 123 -19 133 19 7 34 -13 34 -45 0 -13 14 -37 30 -54 26 -25 36 -29 63 -24
83 17 127 22 127 14 0 -5 -7 -19 -16 -33 -14 -21 -14 -26 0 -53 28 -53 149
-70 196 -27 29 26 25 35 -19 35 -22 0 -44 6 -51 15 -11 13 -9 20 12 43 64 69
63 129 -4 224 -10 14 -9 21 5 36 9 10 17 31 17 46 0 50 -56 135 -111 168 -40
24 -36 36 10 36 25 1 54 10 79 27 75 50 82 111 9 84 -40 -14 -83 -2 -114 33
-18 21 -18 21 7 15 14 -4 48 -10 77 -13 51 -7 52 -6 94 39 48 50 75 119 54
137 -17 14 -40 4 -53 -26 -7 -13 -17 -24 -23 -24 -7 0 -20 -7 -28 -14 -13 -12
-26 -13 -60 -5 -60 13 -131 76 -215 191 -103 140 -162 173 -304 169 -102 -3
-147 -22 -242 -104 -8 -7 -22 -23 -30 -36 -14 -21 -19 -22 -54 -12 -67 18
-194 9 -246 -18 -89 -46 -130 -106 -130 -191 0 -27 -3 -50 -7 -50 -14 0 -76
41 -124 81 -112 94 -175 94 -239 0 -20 -31 -44 -69 -53 -86 -8 -16 -38 -61
-66 -98 -103 -137 -144 -243 -106 -271 13 -10 12 -17 -9 -58 -21 -42 -23 -56
-19 -145 3 -54 9 -114 15 -133 12 -40 53 -88 86 -101 17 -7 22 -16 22 -44 0
-19 15 -64 32 -100 36 -72 32 -85 -25 -85 -39 0 -93 -25 -141 -63 -23 -19 -62
-48 -88 -65 -38 -26 -51 -43 -65 -84 -12 -34 -33 -66 -61 -92 -67 -64 -94
-116 -86 -168 4 -24 15 -50 25 -58 12 -10 19 -30 20 -60 2 -41 -3 -60 -32
-138 -14 -37 -39 -22 -72 43 -17 33 -56 105 -86 160 -33 59 -58 119 -62 149
-5 27 -17 59 -29 71 -25 26 -25 45 -1 76 28 37 48 80 54 121 3 20 17 54 32 75
28 43 26 68 -7 76 -18 5 -20 11 -14 42 6 28 2 45 -14 73 -26 44 -29 133 -6
207 9 28 16 70 16 95 0 28 8 56 20 75 11 17 20 40 20 52 0 46 87 85 140 63 16
-6 37 -10 47 -7 14 3 12 6 -11 16 -28 11 -28 13 -13 29 21 21 54 5 49 -24 -2
-17 0 -16 17 4 34 39 1 86 -47 67 -22 -8 -27 -4 -24 22 2 11 -2 24 -8 28 -18
11 -60 -24 -67 -56 -4 -22 -16 -35 -44 -49 l-39 -18 0 23 c0 12 9 76 20 141
10 66 26 187 35 269 20 201 46 321 65 316 26 -8 93 -1 107 11 10 8 23 4 52
-15 44 -29 91 -44 91 -29 0 5 -13 15 -30 22 -37 15 -38 28 -4 36 21 5 31 2 43
-15 20 -26 31 -18 31 22 0 20 -6 30 -20 34 -11 3 -20 9 -20 14 0 5 -12 6 -27
3 l-28 -7 29 31 c21 22 33 29 41 22 9 -7 16 -6 25 4 29 35 -29 50 -64 17 -21
-20 -21 -20 -21 17 0 46 -21 52 -58 18 -21 -20 -27 -34 -27 -69 0 -55 -19 -73
-83 -80 -47 -5 -48 -4 -42 20 3 13 12 65 20 116 8 51 21 116 30 146 13 41 15
72 10 125 -7 73 -24 106 -55 106 -13 0 -19 11 -23 47 -7 64 -43 97 -97 88 -42
-7 -65 11 -35 27 38 22 55 48 55 86 0 21 -3 41 -6 45 -7 6 -85 -39 -96 -57
-20 -29 -5 14 17 49 30 48 31 75 6 106 l-19 23 -31 -33z m29 -55 c0 -8 -9 -24
-20 -37 -11 -13 -18 -17 -16 -9 2 8 7 28 10 43 6 27 26 29 26 3z m-125 -46 c3
-5 1 -10 -4 -10 -6 0 -11 5 -11 10 0 6 2 10 4 10 3 0 8 -4 11 -10z m185 -58
c0 -9 -9 -23 -20 -30 -23 -14 -26 -3 -10 29 13 24 30 25 30 1z m-132 -49 c-2
-11 -14 -19 -31 -21 -33 -4 -36 11 -4 26 32 15 39 14 35 -5z m282 -283 c0 -11
-4 -20 -9 -20 -11 0 -22 26 -14 34 12 12 23 5 23 -14z m-51 -37 c1 -7 -3 -13
-8 -13 -10 0 -21 47 -12 55 6 6 19 -21 20 -42z m-342 -9 c-3 -3 -12 -4 -19 -1
-8 3 -5 6 6 6 11 1 17 -2 13 -5z m254 -117 c-8 -8 -11 -2 -11 19 0 40 14 54
18 19 2 -15 -1 -32 -7 -38z m9 -27 c0 -5 -4 -10 -10 -10 -5 0 -10 5 -10 10 0
6 5 10 10 10 6 0 10 -4 10 -10z m0 -34 c0 -3 -4 -8 -10 -11 -5 -3 -10 -1 -10
4 0 6 5 11 10 11 6 0 10 -2 10 -4z m96 -43 c-11 -11 -17 4 -9 23 7 18 8 18 11
1 2 -10 1 -21 -2 -24z m-70 -30 c-10 -10 -19 5 -10 18 6 11 8 11 12 0 2 -7 1
-15 -2 -18z m269 -13 c-9 -29 -26 -12 -18 18 4 15 9 20 15 14 6 -6 7 -20 3
-32z m-308 -22 c-3 -8 -6 -5 -6 6 -1 11 2 17 5 13 3 -3 4 -12 1 -19z m-46 -61
c-13 -13 -15 21 -3 50 6 15 8 13 10 -11 2 -16 -1 -33 -7 -39z m79 -47 c0 -5
-4 -10 -10 -10 -5 0 -10 5 -10 10 0 6 5 10 10 10 6 0 10 -4 10 -10z m-88 -40
c-2 -16 -8 -30 -13 -30 -10 0 -12 21 -3 44 10 27 21 18 16 -14z m1631 -55 c-3
-9 -8 -14 -10 -11 -3 3 -2 9 2 15 9 16 15 13 8 -4z m-1613 -17 c0 -16 -3 -19
-11 -11 -6 6 -8 16 -5 22 11 17 16 13 16 -11z m1835 -12 c18 -13 18 -14 -1
-18 -29 -8 -124 -9 -124 -2 0 30 91 45 125 20z m99 -46 c28 -10 35 -30 12 -30
-17 0 -66 39 -49 40 6 0 23 -4 37 -10z m-527 -27 c56 -9 26 -21 -36 -16 -49 5
-66 2 -96 -16 -51 -30 -64 -26 -30 9 26 27 36 31 80 29 27 0 65 -3 82 -6z
m188 -33 c-3 -5 -15 -10 -26 -10 -11 0 -17 5 -14 10 3 6 15 10 26 10 11 0 17
-4 14 -10z m430 -20 c16 -16 25 -33 22 -37 -7 -6 -67 51 -67 63 0 12 19 1 45
-26z m-2050 -10 c-11 -12 -13 -20 -6 -20 10 0 11 -51 2 -87 -1 -2 -8 -3 -16
-3 -12 0 -14 8 -9 38 3 20 5 44 5 52 1 28 8 40 25 40 16 0 16 -2 -1 -20z m986
-60 c52 -39 121 -83 155 -99 33 -16 95 -57 137 -90 l77 -61 0 -53 c0 -57 23
-106 67 -140 20 -16 23 -25 17 -46 -4 -14 -10 -44 -13 -66 -5 -34 -10 -40 -34
-43 -34 -4 -53 -35 -32 -52 8 -7 24 -10 35 -7 23 6 26 -5 6 -22 -19 -16 -64
-4 -77 20 -11 22 2 53 27 63 11 4 14 13 11 28 -4 12 -1 28 5 35 15 18 2 43
-22 43 -28 0 -36 -27 -15 -50 16 -18 16 -20 2 -20 -10 0 -30 23 -47 54 -17 30
-38 60 -45 66 -19 16 -20 41 -2 34 8 -3 20 2 27 11 11 13 11 19 -4 33 -16 16
-18 16 -37 -7 -16 -19 -22 -21 -34 -11 -19 16 -19 36 1 44 17 7 16 47 -3 53
-6 2 -20 -6 -32 -18 -29 -31 -54 -10 -45 37 7 38 -7 45 -37 18 -23 -20 -42 -9
-36 22 6 34 -18 52 -41 31 -22 -20 -37 -10 -39 26 -1 25 2 28 21 22 59 -18 92
-23 118 -18 24 5 28 2 28 -16 0 -21 24 -29 34 -12 14 23 -3 38 -119 107 -51
31 -153 64 -195 64 -13 0 -32 -7 -42 -17 -33 -30 -30 -5 8 51 26 40 43 56 59
56 12 0 65 -32 116 -70z m959 48 c0 -6 -6 -5 -15 2 -8 7 -15 14 -15 16 0 2 7
1 15 -2 8 -4 15 -11 15 -16z m-80 -25 c38 -57 44 -71 16 -38 -14 17 -35 40
-47 53 -15 15 -18 22 -8 22 8 0 25 -17 39 -37z m161 20 c27 -16 44 -41 35 -50
-2 -3 -22 11 -43 31 -41 38 -38 46 8 19z m-217 -9 c4 -10 1 -14 -6 -12 -15 5
-23 28 -10 28 5 0 13 -7 16 -16z m-504 -19 c0 -8 -4 -15 -10 -15 -5 0 -10 7
-10 15 0 8 5 15 10 15 6 0 10 -7 10 -15z m230 7 c0 -14 -23 -32 -41 -32 -28 0
-33 19 -7 29 29 12 48 13 48 3z m-1490 -6 c0 -3 -4 -8 -10 -11 -5 -3 -10 -1
-10 4 0 6 5 11 10 11 6 0 10 -2 10 -4z m2130 -45 c54 -52 50 -58 -10 -15 -57
41 -68 54 -46 54 9 0 34 -17 56 -39z m-115 -6 c17 -13 25 -24 18 -25 -7 0 -24
11 -39 25 -35 32 -18 32 21 0z m410 4 c-8 -12 -75 -12 -75 0 0 6 15 11 33 13
37 4 50 0 42 -13z m-300 -49 c58 -50 85 -65 94 -52 3 6 18 0 36 -15 l30 -25
-30 7 c-16 3 -43 9 -60 12 -35 7 -69 31 -108 79 -38 46 -19 43 38 -6z m-520
15 c6 -1 -3 -8 -20 -14 -32 -13 -96 -3 -102 15 -3 10 90 9 122 -1z m369 -1 c3
-8 2 -12 -4 -9 -6 3 -10 10 -10 16 0 14 7 11 14 -7z m321 6 c-3 -5 -12 -7 -20
-3 -21 7 -19 13 6 13 11 0 18 -4 14 -10z m-2345 -4 c0 -3 -4 -8 -10 -11 -5 -3
-10 -1 -10 4 0 6 5 11 10 11 6 0 10 -2 10 -4z m893 -42 c18 -9 34 -18 36 -20
9 -8 -34 -44 -53 -44 -15 0 -17 3 -8 12 18 18 14 38 -7 38 -13 0 -21 -8 -23
-22 -2 -18 -12 -24 -47 -30 -24 -4 -48 -5 -53 -2 -6 4 7 24 28 45 43 44 74 49
127 23z m377 1 c0 -8 -4 -15 -10 -15 -5 0 -7 7 -4 15 4 8 8 15 10 15 2 0 4 -7
4 -15z m805 5 c3 -5 2 -10 -4 -10 -5 0 -13 5 -16 10 -3 6 -2 10 4 10 5 0 13
-4 16 -10z m-223 -47 c12 -27 24 -52 26 -57 3 -5 0 -6 -6 -2 -7 4 -12 12 -12
18 0 5 -9 21 -20 35 -18 24 -27 53 -15 53 3 0 15 -21 27 -47z m227 -58 c32
-21 46 -35 35 -35 -21 0 -144 105 -144 123 0 6 12 -3 28 -21 15 -17 51 -47 81
-67z m-2059 36 c0 -6 -4 -13 -10 -16 -5 -3 -10 1 -10 9 0 9 5 16 10 16 6 0 10
-4 10 -9z m-30 -19 c0 -4 -7 -18 -16 -30 -21 -30 -10 -41 16 -17 20 18 25 11
14 -19 -4 -11 -12 -13 -29 -6 -13 5 -26 6 -29 3 -8 -8 -8 25 0 55 6 20 44 33
44 14z m70 -1 c0 -6 -4 -13 -10 -16 -5 -3 -10 1 -10 9 0 9 5 16 10 16 6 0 10
-4 10 -9z m1585 -1 c-3 -5 -13 -10 -21 -10 -8 0 -14 5 -14 10 0 6 9 10 21 10
11 0 17 -4 14 -10z m745 1 c0 -15 -26 -31 -51 -31 -28 0 -59 25 -39 32 20 6
90 6 90 -1z m-1700 -10 c0 -13 -29 -35 -37 -28 -7 8 15 37 28 37 5 0 9 -4 9
-9z m1305 -36 c20 -16 25 -24 14 -25 -8 0 -26 11 -39 25 -30 32 -14 32 25 0z
m-1050 -15 c33 -8 148 -85 180 -120 l19 -21 -27 6 c-37 10 -36 -13 4 -51 17
-16 46 -55 66 -86 35 -56 57 -66 66 -30 7 32 26 -35 20 -72 -11 -70 53 -119
126 -97 54 16 58 14 66 -16 3 -16 27 -70 53 -120 25 -51 43 -95 39 -99 -3 -3
-23 7 -44 23 -21 16 -56 35 -78 43 -62 20 -143 69 -163 98 -10 15 -38 74 -62
132 -63 153 -107 207 -207 253 -41 19 -63 22 -154 20 -122 -3 -138 -7 -199
-58 -47 -40 -64 -33 -32 12 10 16 24 42 29 58 6 19 17 31 31 33 13 2 29 17 38
34 14 27 18 29 26 15 12 -23 25 -21 33 3 4 11 12 20 18 19 26 -4 76 14 81 28
4 10 12 13 24 8 9 -4 31 -11 47 -15z m1169 -15 c33 -14 40 -13 37 8 0 4 13 7
29 7 20 0 30 -5 30 -15 0 -9 -9 -15 -22 -15 -13 -1 -34 -7 -48 -15 -34 -19
-33 -19 -58 15 -25 34 -20 36 32 15z m-2070 -10 c-6 -16 -24 -21 -24 -7 0 11
11 22 21 22 5 0 6 -7 3 -15z m-100 -27 c-11 -78 -27 -229 -28 -260 -1 -20 -7
-43 -14 -50 -11 -11 -13 -7 -8 22 3 19 11 80 17 135 17 154 21 175 29 175 4 0
6 -10 4 -22z m2023 2 c14 -11 36 -20 49 -20 17 0 29 -11 44 -40 12 -23 31 -45
44 -50 33 -12 41 -29 19 -37 -10 -3 -28 -15 -41 -26 -17 -16 -25 -18 -34 -9
-9 9 -9 15 0 24 33 33 -6 108 -66 129 -15 5 -33 18 -40 29 -16 25 -7 25 25 0z
m-244 -61 c-39 -37 -53 -58 -53 -79 0 -33 24 -59 34 -35 3 8 3 21 0 29 -3 8
-1 17 5 20 18 11 22 -32 6 -71 -14 -35 -14 -42 0 -69 28 -55 12 -74 -24 -28
-31 40 -47 125 -32 176 15 47 69 108 98 108 13 0 4 -14 -34 -51z m245 -23 c17
-10 6 -21 -29 -30 -24 -5 -26 -3 -21 19 4 25 22 29 50 11z m-96 -18 c-7 -7
-12 -8 -12 -2 0 14 12 26 19 19 2 -3 -1 -11 -7 -17z m-91 -11 c-13 -13 -26 -3
-16 12 3 6 11 8 17 5 6 -4 6 -10 -1 -17z m44 -17 c3 -5 1 -10 -4 -10 -6 0 -11
5 -11 10 0 6 2 10 4 10 3 0 8 -4 11 -10z m68 -21 c-4 -13 -9 -17 -15 -11 -11
11 -3 32 12 32 4 0 6 -9 3 -21z m67 -19 c0 -18 -24 -65 -46 -90 -12 -14 -28
-38 -35 -55 -16 -34 -27 -37 -42 -14 -7 12 -6 31 3 63 12 44 14 47 41 41 21
-5 29 -3 29 7 0 7 7 24 16 36 16 23 34 29 34 12z m420 0 c0 -5 -7 -10 -16 -10
-8 0 -12 5 -9 10 3 6 10 10 16 10 5 0 9 -4 9 -10z m-628 -42 c-7 -7 -12 -8
-12 -2 0 14 12 26 19 19 2 -3 -1 -11 -7 -17z m-709 -31 c36 -42 43 -71 23
-102 -21 -32 -20 -47 5 -79 16 -20 29 -26 60 -26 55 0 51 -21 -13 -63 -107
-68 -109 -69 -123 -57 -18 15 -171 23 -196 10 -23 -13 -25 -40 -3 -40 8 0 12
-4 9 -10 -10 -16 -21 -12 -33 13 -42 87 -62 139 -62 162 0 23 4 26 28 23 22
-2 27 -7 24 -27 -4 -38 17 -88 38 -94 11 -3 22 -2 24 1 2 4 -2 43 -9 87 -14
93 -46 171 -72 178 -12 3 -10 5 9 6 14 0 40 13 57 27 22 18 38 24 54 20 12 -3
29 -1 37 4 8 5 38 7 65 4 40 -5 56 -12 78 -37z m1087 29 c0 -3 -4 -8 -10 -11
-5 -3 -10 -1 -10 4 0 6 5 11 10 11 6 0 10 -2 10 -4z m38 -46 c3 -30 2 -32 -12
-21 -19 16 -22 65 -3 59 6 -3 13 -20 15 -38z m87 19 c5 -6 3 -9 -7 -9 -9 0
-18 -5 -20 -12 -6 -18 -28 0 -28 23 0 16 4 19 23 14 12 -4 26 -11 32 -16z
m-1550 -9 c18 -8 17 -9 -7 -9 -16 -1 -28 4 -28 9 0 12 8 12 35 0z m-698 -52
c-3 -8 -6 -5 -6 6 -1 11 2 17 5 13 3 -3 4 -12 1 -19z m691 -10 c-6 -18 -28
-21 -28 -4 0 9 7 16 16 16 9 0 14 -5 12 -12z m1492 -59 c0 -11 -4 -17 -10 -14
-5 3 -10 15 -10 26 0 11 5 17 10 14 6 -3 10 -15 10 -26z m-1430 0 c0 -6 -4 -7
-10 -4 -5 3 -10 11 -10 16 0 6 5 7 10 4 6 -3 10 -11 10 -16z m1399 -11 c18
-20 26 -37 20 -42 -12 -13 -59 32 -59 56 0 25 6 23 39 -14z m-1032 -25 c-11
-10 -27 8 -27 30 l0 21 16 -22 c9 -13 14 -26 11 -29z m-1234 17 c3 -11 1 -23
-4 -26 -5 -3 -9 6 -9 20 0 31 6 34 13 6z m2397 -5 c0 -8 -7 -15 -15 -15 -16 0
-20 12 -8 23 11 12 23 8 23 -8z m-1626 -11 c9 -22 -3 -32 -14 -14 -12 19 -12
30 -1 30 5 0 12 -7 15 -16z m-732 -66 c-7 -7 -12 -8 -12 -2 0 14 12 26 19 19
2 -3 -1 -11 -7 -17z m1305 -47 c6 -10 9 -29 6 -41 -6 -21 -3 -22 20 -16 15 3
27 4 27 1 0 -12 -23 -50 -46 -78 -16 -19 -24 -42 -24 -65 0 -56 -10 -84 -28
-77 -8 3 -20 1 -27 -5 -9 -8 -15 -8 -20 0 -10 16 -25 1 -25 -25 0 -27 -18 -40
-73 -50 -36 -7 -37 -6 -43 24 -4 17 -11 34 -16 37 -14 9 -27 -14 -21 -37 3
-10 1 -19 -5 -19 -5 0 -12 11 -15 25 -3 18 2 30 17 40 31 22 43 18 50 -15 7
-36 36 -42 36 -7 0 13 -6 29 -12 36 -11 10 -9 15 7 28 19 15 19 15 -5 9 -137
-33 -155 -32 -162 9 -4 29 37 34 45 6 8 -31 37 -27 37 5 0 21 9 29 58 50 64
29 172 106 155 111 -6 2 -39 -14 -74 -36 -44 -28 -92 -47 -154 -62 -81 -19
-96 -20 -157 -8 -38 7 -68 15 -68 18 0 3 44 6 98 7 114 1 169 20 297 102 88
57 104 61 122 33z m813 -12 c0 -5 -4 -9 -10 -9 -5 0 -10 7 -10 16 0 8 5 12 10
9 6 -3 10 -10 10 -16z m-2300 -64 c0 -8 -4 -15 -10 -15 -5 0 -10 7 -10 15 0 8
5 15 10 15 6 0 10 -7 10 -15z m67 -2 c-9 -9 -19 -14 -23 -11 -10 10 6 28 24
28 15 0 15 -1 -1 -17z m-94 -70 c5 -26 4 -26 -9 -9 -7 10 -11 23 -8 27 8 14
11 11 17 -18z m107 -33 c0 -5 -9 -6 -20 -3 -11 3 -20 9 -20 13 0 5 9 6 20 3
11 -3 20 -9 20 -13z m-70 -11 c0 -5 -4 -9 -10 -9 -5 0 -10 7 -10 16 0 8 5 12
10 9 6 -3 10 -10 10 -16z m1523 -33 c2 -37 21 -48 44 -25 13 13 83 4 108 -15
15 -11 7 -19 -66 -67 -219 -145 -303 -179 -475 -195 -59 -6 -76 -3 -111 14
-39 20 -58 44 -46 56 4 3 15 -2 25 -11 27 -24 49 -2 25 25 -28 31 -20 44 13
20 22 -16 33 -19 41 -11 9 9 4 18 -17 36 -34 29 -26 47 9 24 63 -41 340 15
400 81 10 11 20 43 24 71 7 58 23 56 26 -3z m-1353 34 c0 -5 -4 -10 -10 -10
-5 0 -10 5 -10 10 0 6 5 10 10 10 6 0 10 -4 10 -10z m912 -16 c3 -3 3 -14 1
-25 -8 -28 -47 -21 -51 9 -3 17 1 22 21 22 13 0 26 -3 29 -6z m-1014 -40 c12
-4 22 -10 22 -15 0 -15 -37 -10 -50 6 -13 16 -8 18 28 9z m-43 -24 c-3 -5 -11
-10 -16 -10 -6 0 -7 5 -4 10 3 6 11 10 16 10 6 0 7 -4 4 -10z m175 6 c0 -3 -4
-8 -10 -11 -5 -3 -10 -1 -10 4 0 6 5 11 10 11 6 0 10 -2 10 -4z m1659 -5 c11
-7 11 -13 -3 -32 -21 -31 -20 -48 6 -76 17 -18 32 -23 73 -23 59 0 79 13 64
43 -9 15 -8 18 3 15 7 -3 14 -14 16 -26 2 -12 13 -29 25 -37 18 -13 19 -17 8
-24 -8 -5 -29 -7 -47 -4 -28 5 -39 -1 -80 -40 -45 -42 -47 -47 -36 -71 6 -15
22 -30 36 -35 13 -5 26 -17 29 -25 9 -22 44 -20 74 4 40 31 82 25 63 -10 -6
-12 -5 -23 5 -36 23 -31 17 -44 -31 -64 -74 -32 -124 -23 -124 22 0 13 -10 20
-31 25 -17 3 -33 12 -36 19 -8 21 -40 17 -64 -7 -17 -17 -23 -19 -30 -8 -12
19 -11 31 6 53 33 44 6 109 -58 142 -47 25 -167 8 -167 -22 0 -12 10 -13 48
-8 66 8 107 -13 121 -62 8 -28 7 -41 -3 -56 -12 -16 -14 -17 -19 -3 -8 19 -31
19 -47 0 -10 -13 -10 -19 4 -33 22 -25 20 -32 -9 -32 -14 0 -30 -9 -37 -20
-14 -21 -72 -28 -83 -10 -3 6 4 10 16 10 37 0 89 39 89 66 0 14 -7 27 -17 31
-10 4 -22 12 -26 20 -20 33 -57 0 -57 -52 0 -22 -4 -26 -22 -23 -29 4 -35 38
-13 72 20 30 17 90 -5 94 -8 1 -32 -11 -52 -28 -28 -23 -41 -45 -58 -100 -23
-75 -40 -90 -40 -37 0 75 -85 90 -87 16 0 -28 6 -38 34 -56 19 -13 48 -23 64
-23 21 0 38 -10 63 -37 19 -21 52 -49 75 -63 29 -18 39 -30 35 -43 -7 -23 12
-47 37 -47 24 0 24 -12 -1 -35 -21 -19 -26 -50 -10 -60 6 -3 10 -14 10 -24 0
-10 9 -25 21 -32 18 -12 21 -27 26 -116 l6 -101 -32 -16 c-38 -20 -39 -41 -5
-77 31 -33 26 -59 -11 -59 -31 0 -43 -25 -25 -53 10 -17 10 -23 -6 -34 -10 -7
-26 -11 -36 -7 -13 4 -21 -2 -30 -21 -10 -22 -16 -25 -37 -20 -46 12 -91 68
-91 115 0 30 22 25 66 -15 59 -54 94 -45 94 25 0 41 -21 54 -64 39 -28 -10
-38 -10 -50 1 -13 10 -14 16 -4 27 9 11 25 13 66 8 43 -5 57 -3 72 10 18 17
18 29 -2 71 -19 40 -86 56 -144 34 -15 -6 -61 -46 -101 -88 -73 -77 -96 -82
-47 -10 15 20 24 44 20 53 -6 17 -37 20 -52 6 -5 -6 -48 -6 -104 -2 l-95 7 37
17 c21 9 50 17 65 17 69 0 185 125 198 214 7 47 -12 117 -47 174 -22 35 -93
82 -125 82 -11 0 -26 7 -33 15 -10 12 -16 13 -26 4 -8 -6 -14 -16 -14 -22 0
-17 32 -47 50 -47 31 0 117 -91 131 -139 11 -39 11 -50 -7 -100 -17 -49 -26
-59 -64 -79 -51 -26 -83 -25 -88 1 -4 18 3 22 59 31 47 8 79 39 79 76 0 23 -5
30 -20 32 -11 0 -26 1 -32 2 -7 1 -15 -12 -18 -29 -5 -28 -8 -30 -53 -30 -49
0 -72 -17 -72 -55 0 -24 -34 -23 -56 2 -11 13 -29 42 -39 66 -18 40 -18 43 -2
48 9 3 25 10 34 15 10 5 29 9 42 9 13 0 34 8 47 18 21 18 21 20 7 41 -9 13
-29 29 -43 37 -33 17 -52 6 -57 -33 -4 -32 -32 -53 -49 -36 -14 14 -8 30 46
108 19 27 35 53 35 57 0 16 -50 39 -70 33 -28 -9 -90 -64 -90 -80 0 -15 -38
-65 -50 -65 -5 0 -6 23 -3 51 6 51 6 51 -18 44 -13 -4 -34 -17 -46 -28 -13
-11 -26 -17 -30 -13 -11 10 35 187 66 252 25 52 29 56 35 36 4 -12 17 -27 28
-33 17 -9 25 -6 50 18 16 15 34 47 40 69 l12 42 18 -34 c10 -19 18 -45 18 -58
0 -31 49 -73 95 -82 60 -11 101 3 137 46 28 33 45 43 103 58 84 23 121 40 200
92 33 22 71 46 85 53 14 7 50 29 81 50 88 60 176 88 208 68z m-939 -62 c0 -5
-4 -9 -10 -9 -5 0 -10 7 -10 16 0 8 5 12 10 9 6 -3 10 -10 10 -16z m1045 12
c10 -18 -17 -23 -33 -7 -15 15 -15 16 5 16 12 0 24 -4 28 -9z m-1925 -16 c-7
-9 -15 -13 -17 -11 -7 7 7 26 19 26 6 0 6 -6 -2 -15z m155 5 c3 -5 1 -10 -4
-10 -6 0 -11 5 -11 10 0 6 2 10 4 10 3 0 8 -4 11 -10z m-215 -10 c0 -5 -4 -10
-10 -10 -5 0 -10 5 -10 10 0 6 5 10 10 10 6 0 10 -4 10 -10z m10 -90 c0 -11 5
-20 10 -20 7 0 7 -7 -1 -21 -13 -25 -24 -16 -32 29 -5 24 -3 32 8 32 8 0 15
-9 15 -20z m812 -12 c-7 -7 -12 -8 -12 -2 0 14 12 26 19 19 2 -3 -1 -11 -7
-17z m-77 -113 c-19 -44 -35 -86 -35 -92 0 -20 -12 -15 -54 21 -30 26 -37 37
-31 54 6 21 20 27 58 24 12 -1 23 10 34 36 23 55 33 66 50 50 11 -11 7 -27
-22 -93z m1458 21 c29 -54 37 -92 27 -127 -7 -24 -5 -33 14 -52 13 -12 29 -37
36 -55 11 -29 11 -35 -6 -51 -11 -10 -26 -18 -34 -19 -29 -3 -105 -19 -121
-26 -12 -5 -27 5 -52 34 -28 33 -41 41 -63 38 -26 -3 -48 -28 -24 -28 6 0 38
-29 70 -64 73 -77 98 -89 187 -84 56 2 69 0 70 -12 0 -8 4 -37 8 -65 7 -49 7
-49 -10 -27 -9 13 -18 30 -19 39 -2 13 -17 17 -77 18 -84 2 -127 19 -161 66
-29 39 -78 69 -112 69 -14 0 -26 5 -26 10 0 6 7 10 16 10 32 0 6 25 -30 28
-41 4 -46 27 -5 28 56 1 62 34 6 34 -24 0 -35 6 -43 24 -10 22 -9 25 15 29 19
4 33 -1 52 -19 34 -33 85 -40 133 -20 21 9 56 16 77 16 56 0 73 27 51 86 -15
41 -15 44 3 64 10 11 16 22 14 24 -3 3 -54 10 -114 16 -60 6 -111 13 -113 15
-13 12 16 23 79 28 44 4 78 12 88 21 19 19 34 8 64 -48z m-2184 -3 c-1 -34 -2
-35 -9 -13 -11 36 -11 50 0 50 6 0 10 -17 9 -37z m-580 -2 c11 -7 9 -10 -8
-16 -11 -3 -25 -4 -30 -1 -5 3 -12 -10 -16 -30 -5 -27 -10 -34 -22 -29 -9 3
-20 0 -24 -7 -6 -9 -11 -5 -17 12 -18 47 70 101 117 71z m761 -82 c-7 -11 -14
-18 -17 -15 -8 8 5 36 17 36 7 0 7 -6 0 -21z m-1094 -46 c-10 -10 -19 5 -10
18 6 11 8 11 12 0 2 -7 1 -15 -2 -18z m530 8 c28 -11 31 -16 32 -62 1 -37 -3
-52 -15 -56 -8 -3 -19 0 -23 8 -5 7 -12 10 -16 7 -3 -4 8 -21 25 -38 17 -17
31 -36 31 -41 0 -5 -19 -9 -43 -9 -24 0 -47 -4 -52 -9 -6 -5 -23 -7 -38 -4
-22 4 -28 10 -23 25 3 13 -5 30 -25 49 -16 15 -29 35 -29 42 0 13 40 37 62 37
6 0 20 7 30 17 17 15 18 15 18 0 0 -10 5 -17 10 -17 7 0 7 7 0 21 -9 15 -8 24
1 35 7 8 15 13 18 11 3 -2 20 -9 37 -16z m484 -1 c0 -5 -4 -10 -10 -10 -5 0
-10 5 -10 10 0 6 5 10 10 10 6 0 10 -4 10 -10z m-634 -15 c2 -5 -5 -20 -14
-33 -15 -19 -25 -23 -53 -19 -30 3 -32 5 -12 12 13 4 20 11 17 16 -3 5 2 9 10
9 9 0 15 3 15 8 -3 17 2 23 18 20 9 -2 18 -7 19 -13z m259 -5 c36 -14 22 -30
-26 -30 -32 0 -39 3 -39 20 0 23 23 26 65 10z m1995 -45 c-7 -8 -22 -15 -34
-15 -19 0 -18 2 9 24 30 25 47 18 25 -9z m-2380 -1 c0 -8 -4 -12 -10 -9 -5 3
-10 10 -10 16 0 5 5 9 10 9 6 0 10 -7 10 -16z m748 -2 c2 -7 -3 -12 -12 -12
-9 0 -16 7 -16 16 0 17 22 14 28 -4z m159 -29 c73 -141 123 -243 137 -275 10
-25 21 -38 34 -38 40 0 87 -76 78 -125 -5 -22 -2 -36 9 -45 22 -18 19 -26 -20
-50 -25 -16 -43 -20 -65 -15 -37 8 -37 14 0 50 17 16 30 35 30 42 0 17 -50 17
-85 1 -24 -11 -29 -9 -45 12 -13 18 -18 37 -15 65 5 53 0 58 -38 39 -32 -16
-32 -16 6 17 l38 34 -16 33 c-9 18 -24 32 -34 32 -10 0 -32 5 -50 11 l-32 11
46 29 c25 16 45 33 45 38 0 19 -20 22 -50 6 -17 -9 -39 -14 -48 -12 -13 3 -11
7 10 17 36 17 43 39 16 49 -14 5 -17 10 -10 15 22 13 12 35 -20 44 l-31 8 34
22 c46 29 54 28 76 -15z m-1297 -25 c0 -6 -7 -5 -15 2 -8 7 -15 17 -15 22 0 6
7 5 15 -2 8 -7 15 -17 15 -22z m184 -4 c3 -8 2 -12 -4 -9 -6 3 -10 10 -10 16
0 14 7 11 14 -7z m2686 7 c0 -5 -7 -11 -15 -15 -9 -3 -15 0 -15 9 0 8 7 15 15
15 8 0 15 -4 15 -9z m-2440 -23 c0 -13 -23 -5 -28 10 -2 7 2 10 12 6 9 -3 16
-11 16 -16z m1208 0 c-2 -6 -10 -14 -16 -16 -7 -2 -10 2 -6 12 7 18 28 22 22
4z m-822 -84 c1 -34 4 -66 8 -72 10 -16 -4 -63 -18 -59 -6 2 -12 24 -14 50 -2
32 -7 44 -15 41 -7 -2 -23 9 -36 26 -23 31 -25 65 -4 65 6 0 15 4 19 8 5 4 20
7 34 5 24 -3 25 -6 26 -64z m274 46 c0 -11 -7 -20 -15 -20 -8 0 -15 9 -15 20
0 11 7 20 15 20 8 0 15 -9 15 -20z m127 4 c-3 -3 -12 -4 -19 -1 -8 3 -5 6 6 6
11 1 17 -2 13 -5z m-957 -14 c0 -5 -4 -10 -10 -10 -5 0 -10 5 -10 10 0 6 5 10
10 10 6 0 10 -4 10 -10z m2562 -42 c9 -15 9 -93 0 -126 -4 -12 -18 -28 -32
-35 -34 -17 -36 -39 -5 -75 24 -29 26 -36 19 -92 l-7 -60 41 -37 c31 -30 40
-46 40 -72 1 -36 16 -53 39 -44 7 3 13 -1 13 -10 0 -9 -14 -16 -42 -20 -29 -4
-50 -14 -65 -32 -28 -32 -28 -40 -4 -64 20 -20 20 -20 -27 -26 -26 -4 -55 -9
-64 -12 -20 -5 -22 5 -9 41 7 17 15 23 29 19 16 -4 22 5 36 47 25 76 4 83 -34
12 -19 -37 -19 -37 -20 -9 0 15 -6 43 -14 62 -11 26 -14 78 -13 217 2 165 4
183 20 186 22 4 22 20 0 44 -13 14 -14 21 -5 30 17 17 15 35 -8 58 -20 20 -19
20 6 33 23 12 31 11 62 -4 20 -11 39 -24 44 -31z m-1141 5 c-9 -16 -10 -14
-11 12 0 21 3 26 11 18 8 -8 8 -16 0 -30z m-1605 0 c-10 -10 -19 5 -10 18 6
11 8 11 12 0 2 -7 1 -15 -2 -18z m-328 0 c-8 -10 -21 -37 -28 -61 -19 -60 -35
-66 -26 -11 4 24 17 54 28 66 25 27 48 31 26 6z m3152 13 c0 -3 -4 -8 -10 -11
-5 -3 -10 -1 -10 4 0 6 5 11 10 11 6 0 10 -2 10 -4z m-2980 -46 c0 -11 -4 -20
-9 -20 -5 0 -7 9 -4 20 3 11 7 20 9 20 2 0 4 -9 4 -20z m37 -2 c-3 -8 -6 -5
-6 6 -1 11 2 17 5 13 3 -3 4 -12 1 -19z m1118 -3 c0 -17 -6 -19 -35 -17 -19 2
-39 7 -44 12 -16 16 6 31 42 28 29 -2 37 -7 37 -23z m-200 6 c3 -5 1 -12 -5
-16 -5 -3 -10 1 -10 9 0 18 6 21 15 7z m-480 -10 c3 -5 1 -12 -5 -16 -5 -3
-10 1 -10 9 0 18 6 21 15 7z m175 5 c0 -3 -4 -8 -10 -11 -5 -3 -10 -1 -10 4 0
6 5 11 10 11 6 0 10 -2 10 -4z m380 -10 c0 -3 -4 -8 -10 -11 -5 -3 -10 -1 -10
4 0 6 5 11 10 11 6 0 10 -2 10 -4z m173 -16 c23 -27 22 -35 -10 -58 l-26 -19
21 -31 c24 -32 28 -52 12 -52 -5 0 -10 -7 -10 -15 0 -18 12 -19 28 -3 12 12
13 11 16 -14 1 -7 9 -12 19 -10 22 4 21 -7 -1 -36 -15 -19 -22 -21 -43 -13
-14 5 -33 21 -42 35 -10 15 -23 23 -31 20 -9 -3 -19 5 -28 23 -11 23 -20 29
-55 31 -40 3 -42 5 -48 43 -4 22 -5 42 -3 44 1 2 26 15 53 29 42 21 51 23 53
10 2 -9 -4 -25 -14 -37 -10 -12 4 -1 31 26 27 26 52 47 55 47 3 0 13 -9 23
-20z m-1323 -24 c-14 -14 -22 -2 -14 18 5 14 9 15 15 4 4 -7 4 -17 -1 -22z
m-190 8 c0 -8 -5 -12 -10 -9 -6 4 -8 11 -5 16 9 14 15 11 15 -7z m760 -3 c0
-10 -8 -25 -17 -32 -15 -12 -16 -12 -10 4 4 10 7 25 7 33 0 8 5 14 10 14 6 0
10 -8 10 -19z m305 -2 c11 -17 -13 -17 -30 1 -16 18 -16 18 4 13 12 -3 24 -9
26 -14z m929 -4 c-4 -16 1 -34 16 -55 23 -33 43 -127 54 -252 l6 -67 -26 3
c-37 4 -48 27 -22 47 23 18 17 39 -12 39 -17 0 -19 7 -17 58 2 50 -2 65 -26
99 -27 38 -28 43 -14 70 8 15 17 40 21 56 3 15 11 27 16 27 6 0 8 -11 4 -25z
m-1194 -15 c0 -11 -4 -20 -9 -20 -11 0 -22 26 -14 34 12 12 23 5 23 -14z m370
5 c0 -8 -4 -15 -9 -15 -13 0 -22 16 -14 24 11 11 23 6 23 -9z m902 -7 c-7 -7
-12 -8 -12 -2 0 14 12 26 19 19 2 -3 -1 -11 -7 -17z m-798 -19 c9 -17 13 -35
10 -40 -9 -15 -36 -10 -50 9 -18 23 -17 32 2 32 10 0 14 -6 10 -15 -3 -8 -1
-15 5 -15 7 0 8 12 4 30 -9 39 -1 38 19 -1z m296 14 c0 -12 3 -14 11 -6 16 16
69 -7 69 -29 0 -19 -36 -26 -42 -8 -2 6 -24 11 -51 12 -26 1 -47 4 -47 6 0 6
44 41 53 42 4 0 7 -8 7 -17z m-1510 -3 c0 -5 -4 -10 -10 -10 -5 0 -10 5 -10
10 0 6 5 10 10 10 6 0 10 -4 10 -10z m3398 -5 c6 -3 12 -16 12 -31 0 -26 1
-27 45 -21 59 9 73 2 67 -30 -5 -25 -5 -25 48 -18 47 6 52 5 48 -11 -3 -15
-12 -19 -45 -16 -23 1 -44 -2 -47 -7 -11 -17 27 -36 72 -36 49 0 68 -19 30
-30 -74 -20 -98 -30 -98 -42 0 -15 10 -16 69 -2 43 9 81 5 81 -10 0 -4 -33
-15 -72 -24 -167 -39 -314 -75 -330 -82 -13 -5 -18 -3 -18 9 0 8 20 27 45 42
25 14 43 30 40 34 -6 10 -43 1 -51 -11 -7 -13 -34 -11 -34 2 0 5 20 19 45 30
25 11 45 24 45 29 0 20 -21 20 -60 0 -22 -11 -40 -17 -40 -13 0 12 33 43 45
43 15 0 40 28 33 36 -3 3 -24 -3 -47 -12 -23 -9 -45 -13 -49 -10 -9 9 38 45
58 46 17 0 40 19 40 32 0 14 -29 9 -70 -12 -22 -11 -40 -16 -40 -11 0 5 20 18
45 30 41 19 60 41 35 41 -5 0 -10 7 -10 16 0 13 -8 15 -35 12 -28 -3 -32 -2
-22 10 19 23 49 31 102 26 28 -3 56 -7 63 -9z m-1258 -5 c0 -5 -4 -10 -10 -10
-5 0 -10 5 -10 10 0 6 5 10 10 10 6 0 10 -4 10 -10z m-1886 -62 l-8 -33 -6 35
c-7 40 -2 56 12 42 6 -6 7 -23 2 -44z m3744 26 c12 -4 22 -10 22 -15 0 -13
-23 -10 -44 6 -21 16 -15 18 22 9z m-3708 -29 c0 -14 -4 -25 -10 -25 -5 0 -10
11 -10 25 0 14 5 25 10 25 6 0 10 -11 10 -25z m3480 16 c0 -12 -20 -25 -27
-18 -7 7 6 27 18 27 5 0 9 -4 9 -9z m-1648 -10 c15 8 21 3 41 -43 17 -39 38
-64 78 -94 30 -23 62 -44 72 -47 11 -4 17 -17 17 -35 0 -32 30 -52 79 -52 16
0 34 -7 41 -15 9 -11 27 -15 54 -13 l41 3 0 -45 c0 -41 2 -45 26 -48 22 -3 28
-9 33 -41 3 -21 19 -57 36 -80 17 -23 28 -46 25 -51 -4 -6 -23 -10 -45 -10
-34 0 -40 4 -59 40 -36 69 -70 119 -88 128 -30 16 -78 21 -93 11 -12 -8 -10
-14 15 -35 17 -14 42 -32 58 -42 44 -27 48 -72 6 -72 -12 0 -23 10 -29 25 -6
16 -14 23 -25 19 -8 -4 -22 -1 -30 6 -20 17 -35 4 -35 -31 0 -19 -5 -29 -15
-29 -8 0 -15 3 -15 8 0 4 -12 14 -26 23 -20 12 -37 14 -77 8 -28 -5 -53 -6
-55 -4 -13 13 13 35 60 53 42 16 54 25 56 44 6 48 -60 68 -127 37 -24 -10 -47
-19 -51 -19 -12 0 -37 87 -44 154 l-7 60 21 -19 c33 -30 43 -8 28 61 -15 70
-13 163 4 146 8 -8 17 -8 30 -1z m1724 -41 c19 0 18 -16 -2 -24 -17 -7 -44 9
-44 26 0 6 7 7 16 4 9 -3 22 -6 30 -6z m-3870 -87 c-30 -16 -53 -9 -36 11 6 8
22 11 37 8 l26 -5 -27 -14z m-96 -4 c0 -11 -4 -17 -10 -14 -5 3 -10 13 -10 21
0 8 5 14 10 14 6 0 10 -9 10 -21z m1660 -20 c0 -24 -23 -21 -28 4 -2 10 3 17
12 17 10 0 16 -9 16 -21z m-1424 -26 c-11 -11 -19 6 -11 24 8 17 8 17 12 0 3
-10 2 -21 -1 -24z m1468 18 c3 -5 -1 -14 -9 -21 -8 -7 -15 -27 -15 -46 0 -18
-5 -36 -12 -40 -8 -5 -9 -2 -5 9 4 10 2 28 -3 41 -13 35 26 86 44 57z m-194
-22 c0 -11 -4 -17 -10 -14 -5 3 -10 13 -10 21 0 8 5 14 10 14 6 0 10 -9 10
-21z m250 -4 c0 -17 17 -20 22 -4 2 5 11 7 21 3 10 -3 16 -13 13 -20 -3 -7 0
-16 5 -20 6 -4 8 -20 5 -37 -6 -29 -5 -29 12 -14 41 37 82 -11 49 -58 -19 -25
-38 -10 -31 23 l5 27 -20 -23 c-20 -23 -47 -21 -38 2 3 7 -3 12 -15 12 -12 -1
-23 5 -25 12 -3 6 2 12 10 12 8 0 18 7 21 16 11 27 -4 30 -23 5 -15 -19 -23
-22 -50 -16 -28 6 -32 10 -27 31 12 45 66 86 66 49z m120 6 c0 -5 -7 -11 -15
-15 -15 -5 -20 5 -8 17 9 10 23 9 23 -2z m1980 -11 c0 -5 -7 -10 -16 -10 -8 0
-12 5 -9 10 3 6 10 10 16 10 5 0 9 -4 9 -10z m-3708 -35 c-5 -18 -11 -25 -15
-18 -4 7 -2 21 5 32 16 26 19 22 10 -14z m132 10 c-9 -14 -21 -25 -27 -25 -6
0 0 11 13 25 13 14 25 25 27 25 2 0 -4 -11 -13 -25z m1292 -12 c-10 -10 -19 5
-10 18 6 11 8 11 12 0 2 -7 1 -15 -2 -18z m-1066 -8 c0 -30 -30 -75 -50 -75
-11 0 -20 7 -20 15 0 8 -4 15 -10 15 -5 0 -10 -5 -10 -11 0 -6 -9 -9 -20 -6
-13 3 -31 -5 -52 -24 -53 -46 -86 -51 -73 -10 4 12 12 18 21 14 9 -3 14 2 14
17 0 19 3 20 15 10 20 -16 40 -3 24 16 -16 19 -4 30 15 15 16 -13 56 1 56 19
0 5 17 11 38 13 20 2 40 4 45 5 4 1 7 -5 7 -13z m3400 -3 c0 -5 -17 -9 -37
-10 -24 -1 -44 -9 -54 -21 -9 -11 -20 -16 -25 -11 -5 4 -27 10 -49 12 -40 3
-40 3 -40 -31 0 -19 -6 -36 -12 -38 -8 -3 -13 4 -13 19 0 40 -12 49 -56 40
-29 -6 -40 -13 -42 -30 -2 -12 -7 -22 -12 -22 -5 0 -7 6 -4 14 10 26 -15 27
-32 1 -9 -14 -26 -25 -38 -25 -31 0 -50 -16 -43 -34 4 -9 2 -16 -2 -16 -5 0
-17 -3 -27 -7 -17 -6 -17 -5 -1 17 9 14 17 32 17 40 0 24 75 55 180 75 52 9
109 21 125 25 41 11 165 12 165 2z m-2604 -120 c9 -26 26 -70 39 -97 28 -59
43 -115 27 -100 -10 10 -82 186 -82 200 0 5 -6 16 -14 24 -7 9 -16 32 -20 51
l-6 35 20 -33 c12 -19 28 -55 36 -80z m64 53 c10 -11 23 -38 30 -60 7 -22 16
-44 20 -50 4 -5 11 -26 15 -45 4 -19 14 -44 21 -55 17 -23 18 -38 3 -33 -6 2
-21 34 -34 71 -32 89 -66 149 -82 143 -7 -3 -13 -1 -13 4 0 6 5 10 11 10 11 0
10 10 -6 55 l-7 20 13 -20 c6 -11 20 -29 29 -40z m-564 13 c10 -18 21 -46 25
-63 4 -16 15 -50 24 -74 9 -26 15 -65 13 -95 l-3 -51 -28 60 c-21 46 -27 68
-22 94 6 31 5 33 -9 21 -23 -18 -27 -9 -16 29 7 25 6 33 -6 38 -20 7 -18 73 2
73 2 0 11 -15 20 -32z m450 -35 c14 -30 23 -60 21 -66 -4 -10 -67 112 -67 129
0 18 25 -16 46 -63z m-356 3 c0 -6 -7 -2 -15 8 -8 11 -15 25 -15 30 0 6 7 2
15 -8 8 -11 15 -25 15 -30z m1080 35 c0 -11 -39 -59 -40 -49 0 14 23 58 32 58
4 0 8 -4 8 -9z m-1725 -21 c3 -5 -1 -10 -9 -10 -8 0 -18 5 -21 10 -3 6 1 10 9
10 8 0 18 -4 21 -10z m1195 0 c19 0 34 -36 18 -46 -5 -3 -12 3 -15 15 -3 13
-12 20 -25 18 -12 -1 -23 4 -26 12 -3 10 0 12 12 8 10 -4 26 -7 36 -7z m-320
-31 c0 -11 -4 -17 -10 -14 -5 3 -10 15 -10 26 0 11 5 17 10 14 6 -3 10 -15 10
-26z m2680 16 c0 -8 -7 -15 -16 -15 -14 0 -14 3 -4 15 7 8 14 15 16 15 2 0 4
-7 4 -15z m-3820 1 c0 -3 -4 -8 -10 -11 -5 -3 -10 -1 -10 4 0 6 5 11 10 11 6
0 10 -2 10 -4z m420 -11 c0 -8 -4 -15 -10 -15 -5 0 -7 7 -4 15 4 8 8 15 10 15
2 0 4 -7 4 -15z m1305 -9 c17 -25 52 -40 94 -41 13 0 26 -6 28 -12 3 -8 -4
-13 -16 -13 -11 0 -25 -9 -31 -20 -15 -29 -27 -25 -34 11 -5 27 -8 30 -21 19
-20 -16 -30 -6 -43 43 -12 42 0 49 23 13z m-485 -48 c12 -35 26 -67 30 -73 4
-5 29 -64 55 -130 50 -128 52 -131 61 -123 3 3 -3 26 -14 50 -26 57 -39 118
-22 101 7 -6 21 -29 31 -50 l19 -38 -3 33 c-4 33 6 42 20 20 4 -7 15 -13 23
-13 8 0 16 -8 18 -17 2 -11 -3 -18 -12 -18 -9 0 -16 -7 -16 -16 0 -9 -6 -14
-13 -11 -9 3 -12 -5 -9 -31 4 -29 2 -34 -11 -29 -9 3 -21 -1 -27 -9 -7 -8 -23
-14 -36 -14 -18 0 -25 8 -33 37 -6 20 -8 39 -5 42 5 5 19 -13 27 -34 3 -5 8
-7 12 -2 8 7 4 25 -26 107 -19 54 -26 71 -52 130 -46 101 -57 132 -51 141 9
15 10 12 34 -53z m790 37 c-7 -8 -17 -15 -23 -15 -5 0 -2 9 8 20 21 23 35 19
15 -5z m91 -2 c6 -15 7 -44 4 -63 l-7 -35 26 24 c25 24 27 24 40 6 13 -18 29
-105 21 -113 -2 -2 -45 -14 -96 -27 -66 -17 -98 -21 -111 -14 -10 5 -22 8 -26
5 -4 -2 -18 2 -32 10 l-25 13 23 1 c13 0 37 9 53 21 26 19 34 20 60 9 26 -11
33 -11 46 3 14 14 13 17 -14 31 -26 13 -30 20 -25 43 3 15 11 37 18 48 8 11
14 30 14 42 0 32 18 29 31 -4z m1817 9 c2 -7 -3 -12 -12 -12 -9 0 -16 7 -16
16 0 17 22 14 28 -4z m-2299 -18 c3 -16 1 -17 -13 -5 -19 16 -21 34 -3 29 6
-3 14 -13 16 -24z m-602 -59 c25 -49 53 -135 43 -135 -5 0 -18 26 -29 58 -11
31 -28 70 -36 85 -8 16 -15 38 -14 50 0 21 1 20 10 -3 6 -14 18 -38 26 -55z
m433 21 c0 -28 -17 -8 -25 29 -6 29 -6 29 9 11 9 -11 16 -29 16 -40z m-780 10
c0 -7 11 -36 25 -64 14 -29 25 -64 24 -79 0 -16 -3 -21 -6 -13 -2 8 -11 29
-18 45 -20 45 -55 135 -55 142 0 3 7 0 15 -7 8 -7 15 -18 15 -24z m-81 -66 c0
-36 -4 -83 -8 -105 l-9 -40 -2 40 c-3 70 -4 129 -2 165 4 63 22 11 21 -60z
m3136 72 c-8 -22 4 -33 24 -22 15 7 20 4 30 -17 11 -24 13 -25 30 -9 18 17 20
16 26 -4 11 -33 41 -21 37 15 -2 27 -1 28 12 12 7 -9 16 -35 20 -57 10 -63 41
-47 39 20 -2 34 -2 34 12 -10 8 -25 21 -57 30 -72 13 -22 14 -38 6 -85 -11
-72 -39 -133 -61 -133 -9 0 -21 -5 -28 -12 -9 -9 -12 -7 -12 11 0 29 -30 25
-46 -7 -6 -12 -13 -19 -16 -16 -3 3 1 19 9 35 8 16 12 36 9 44 -10 28 -35 15
-54 -29 -16 -37 -28 -27 -14 13 12 34 8 41 -25 41 -20 0 -22 3 -13 19 21 41 3
56 -32 24 -17 -15 -18 -15 -12 14 4 22 2 32 -10 36 -9 4 -13 13 -10 21 7 19
-14 30 -31 16 -7 -6 -17 -25 -20 -41 -4 -16 -11 -29 -16 -29 -12 0 -12 5 6 47
18 44 19 73 2 73 -18 0 -37 -21 -37 -41 0 -10 -5 -21 -12 -25 -8 -5 -9 3 -4
32 13 64 12 89 -3 89 -7 0 -18 -15 -25 -34 -6 -19 -16 -36 -23 -38 -7 -3 -4
11 8 36 10 22 19 46 19 54 0 46 -46 12 -56 -42 -4 -20 -14 -41 -23 -47 -13
-10 -14 -15 -1 -40 24 -49 24 -50 -12 -14 -36 37 -51 64 -41 74 4 3 12 1 18
-4 19 -15 36 12 40 62 4 54 13 57 158 55 88 -1 107 -4 102 -15z m-3790 -29
c-7 -17 -8 -17 -15 2 -9 24 -2 41 12 27 6 -6 7 -19 3 -29z m1236 -55 c33 -83
37 -107 15 -89 -8 6 -16 22 -19 34 -3 12 -14 47 -26 77 -12 30 -21 59 -21 64
0 24 25 -19 51 -86z m2659 78 c0 -3 -4 -8 -10 -11 -5 -3 -10 -1 -10 4 0 6 5
11 10 11 6 0 10 -2 10 -4z m-3510 -125 c0 -69 -4 -122 -10 -126 -6 -4 -10 38
-10 119 0 77 4 126 10 126 6 0 10 -46 10 -119z m80 84 c0 -35 -13 -47 -23 -21
-7 18 3 56 14 56 5 0 9 -16 9 -35z m-125 4 c0 -7 -8 -15 -17 -17 -18 -3 -25
18 -11 32 10 10 28 1 28 -15z m836 -6 c44 -111 116 -340 110 -346 -5 -5 -19
-7 -32 -5 -27 3 -40 38 -15 38 9 0 16 2 16 4 0 3 -22 73 -50 156 -48 144 -57
180 -45 180 3 0 10 -12 16 -27z m-881 3 c0 -8 -4 -18 -10 -21 -5 -3 -10 3 -10
14 0 12 5 21 10 21 6 0 10 -6 10 -14z m253 -26 c-7 -8 -22 24 -16 34 4 5 10 1
13 -10 4 -10 6 -21 3 -24z m463 5 c15 -38 20 -190 5 -199 -4 -3 -11 40 -13 97
-3 56 -9 110 -13 120 -4 9 -4 17 -1 17 4 0 14 -16 22 -35z m123 -8 c1 -5 -3
-5 -9 -2 -5 3 -10 16 -9 28 0 21 1 21 9 2 5 -11 9 -24 9 -28z m816 11 c14 -3
11 -6 -12 -9 -28 -5 -33 -2 -33 14 0 14 3 17 13 9 6 -5 21 -12 32 -14z m-1448
-20 c-3 -7 -5 -2 -5 12 0 14 2 19 5 13 2 -7 2 -19 0 -25z m1308 9 c0 -26 -20
-25 -23 2 -3 16 1 22 10 19 7 -3 13 -12 13 -21z m1625 8 c0 -8 -4 -15 -10 -15
-5 0 -10 7 -10 15 0 8 5 15 10 15 6 0 10 -7 10 -15z m-3004 -27 c4 -18 9 -27
11 -20 6 17 23 15 23 -3 0 -8 -9 -32 -21 -54 l-20 -39 20 -38 c22 -41 28 -84
11 -84 -6 0 -13 13 -16 29 -4 17 -12 32 -20 35 -11 4 -14 29 -14 106 0 99 12
130 26 68z m951 -47 c-3 -11 -9 -4 -20 21 -24 52 -21 70 4 29 11 -18 18 -41
16 -50z m163 59 c0 -5 -4 -10 -10 -10 -5 0 -10 5 -10 10 0 6 5 10 10 10 6 0
10 -4 10 -10z m331 -45 c11 -4 19 -12 19 -18 0 -7 3 -23 5 -37 5 -24 5 -24 -4
-2 -6 12 -17 22 -25 22 -8 0 -19 14 -25 31 -14 40 -13 61 1 32 6 -13 19 -25
29 -28z m1259 25 c0 -5 -12 -10 -27 -10 -22 0 -25 2 -13 10 20 13 40 13 40 0z
m-2392 -145 c22 -66 48 -137 58 -158 14 -29 15 -40 5 -50 -15 -15 -26 0 -42
56 -5 21 -19 46 -30 55 -12 10 -19 29 -19 52 0 19 -7 62 -15 95 -17 70 -19
109 -6 85 5 -8 27 -69 49 -135z m-168 104 c0 -26 -33 -22 -38 5 -3 11 0 16 7
12 6 -4 11 -2 11 4 0 6 5 8 10 5 6 -3 10 -15 10 -26z m-290 1 c0 -5 -4 -10
-10 -10 -5 0 -10 5 -10 10 0 6 5 10 10 10 6 0 10 -4 10 -10z m1280 -16 c0 -8
-4 -12 -10 -9 -5 3 -10 10 -10 16 0 5 5 9 10 9 6 0 10 -7 10 -16z m-438 -121
c18 -36 3 -48 -16 -12 l-17 34 4 -30 c5 -27 4 -28 -8 -11 -8 11 -13 43 -12 83
l0 65 19 -54 c11 -29 24 -63 30 -75z m480 95 c-9 -9 -12 -7 -12 12 0 19 3 21
12 12 9 -9 9 -15 0 -24z m832 17 c3 -9 0 -15 -8 -15 -7 0 -19 7 -26 15 -10 12
-9 15 8 15 11 0 22 -7 26 -15z m1021 -26 c49 -44 82 -103 116 -212 35 -111 35
-109 7 -105 -18 2 -25 13 -34 53 -14 64 -30 95 -51 95 -13 0 -14 -7 -9 -37 17
-94 18 -113 7 -113 -6 0 -11 10 -11 23 0 26 -16 86 -29 106 -5 8 -15 11 -23 8
-12 -4 -13 -16 -7 -64 16 -109 -15 -127 -41 -23 -14 57 -40 94 -55 78 -4 -3
-1 -33 5 -67 6 -34 8 -66 5 -71 -13 -20 -25 -9 -25 23 0 47 -18 104 -35 111
-22 8 -27 -9 -23 -74 3 -67 -12 -88 -18 -23 -9 104 -48 126 -50 28 -1 -33 -6
-61 -12 -63 -6 -2 -8 5 -6 15 2 10 1 38 -4 63 -6 35 -12 45 -27 45 -18 0 -20
7 -17 69 2 52 -1 73 -14 87 -14 16 -14 18 3 27 37 18 198 49 270 51 34 1 49
-5 78 -30z m-3118 -26 c-3 -10 -5 -4 -5 12 0 17 2 24 5 18 2 -7 2 -21 0 -30z
m479 -20 c8 -17 14 -37 13 -45 -1 -20 -38 64 -37 87 0 14 1 15 5 5 2 -8 11
-29 19 -47z m1014 47 c0 -5 -2 -10 -4 -10 -3 0 -8 5 -11 10 -3 6 -1 10 4 10 6
0 11 -4 11 -10z m-923 -37 c-3 -10 -5 -4 -5 12 0 17 2 24 5 18 2 -7 2 -21 0
-30z m1519 10 c-10 -10 -19 5 -10 18 6 11 8 11 12 0 2 -7 1 -15 -2 -18z m551
15 c-2 -7 -12 -13 -23 -14 -39 -2 -44 -4 -44 -22 0 -16 -8 -18 -70 -16 -66 2
-100 14 -100 35 0 5 12 6 28 4 15 -3 50 1 77 9 65 19 138 21 132 4z m-1434
-22 c4 -9 14 -12 28 -9 26 7 23 -14 -5 -31 -13 -9 -20 -7 -32 8 -16 22 -19 46
-5 46 5 0 11 -6 14 -14z m727 -6 c0 -5 -4 -10 -10 -10 -5 0 -10 5 -10 10 0 6
5 10 10 10 6 0 10 -4 10 -10z m766 -25 c9 -14 12 -29 8 -37 -6 -9 -10 -4 -14
17 -4 21 -11 29 -23 27 -9 -2 -17 2 -17 8 0 19 30 10 46 -15z m582 8 c2 -8 -5
-13 -17 -13 -21 0 -35 13 -24 24 10 10 36 3 41 -11z m-2974 -94 c5 -126 6
-128 16 -104 5 11 10 54 11 95 l2 75 9 -94 c8 -90 5 -132 -9 -118 -3 4 -12 2
-19 -4 -24 -20 -30 -1 -32 98 -2 91 5 160 14 150 2 -2 6 -46 8 -98z m1937 91
c11 -6 19 -21 19 -35 0 -32 -18 -32 -26 0 -8 32 -24 22 -24 -16 0 -16 -4 -29
-10 -29 -5 0 -10 17 -10 38 0 53 12 63 51 42z m-1671 -27 c-1 -24 -2 -26 -11
-10 -5 9 -7 22 -4 27 10 17 15 11 15 -17z m1520 17 c0 -5 -4 -10 -10 -10 -5 0
-10 5 -10 10 0 6 5 10 10 10 6 0 10 -4 10 -10z m526 -15 c-3 -9 -11 -13 -16
-10 -8 5 -7 11 1 21 14 18 24 11 15 -11z m-1326 5 c0 -5 -5 -10 -11 -10 -5 0
-7 5 -4 10 3 6 8 10 11 10 2 0 4 -4 4 -10z m350 5 c0 -2 -26 -12 -57 -21 -51
-14 -224 -68 -353 -111 -67 -22 -139 -40 -195 -48 -27 -4 -57 -10 -65 -15 -24
-12 -110 -20 -110 -11 0 5 15 12 33 16 17 4 84 21 147 40 63 18 149 40 190 50
89 21 173 42 325 84 78 22 85 23 85 16z m690 -5 c0 -5 -5 -10 -11 -10 -5 0 -7
5 -4 10 3 6 8 10 11 10 2 0 4 -4 4 -10z m-615 -37 c-62 -55 -264 -149 -370
-172 -158 -35 -249 -51 -282 -50 -36 0 -36 1 -13 10 14 6 59 16 101 24 42 7
86 18 97 24 11 6 32 11 45 11 14 0 57 14 95 30 39 17 78 30 86 30 9 0 16 5 16
10 0 6 8 10 18 10 9 0 40 12 67 26 102 54 161 82 175 83 3 0 -13 -16 -35 -36z
m-1455 -15 c-1 -26 -3 -30 -10 -16 -6 9 -7 23 -4 32 9 25 14 19 14 -16z m1835
-8 c2 -18 -2 -29 -8 -27 -11 3 -18 46 -10 60 8 14 16 -1 18 -33z m1199 20
c-10 -4 -21 -6 -24 -3 -8 7 24 22 34 16 5 -4 1 -10 -10 -13z m-2076 0 c15 0
15 -2 2 -10 -23 -15 -50 -12 -50 6 0 11 5 14 16 10 9 -3 23 -6 32 -6z m-1004
-37 c-7 -40 -23 -67 -25 -42 -3 33 4 64 15 71 17 12 17 11 10 -29z m1926 10
c0 -22 -2 -25 -10 -13 -13 20 -13 40 0 40 6 0 10 -12 10 -27z m-1406 2 c3 -8
1 -15 -4 -15 -6 0 -10 7 -10 15 0 8 2 15 4 15 2 0 6 -7 10 -15z m249 -12 c6
-32 3 -38 -12 -28 -13 8 -15 55 -2 55 5 0 11 -12 14 -27z m767 8 c-12 -23 -29
-35 -37 -27 -7 7 26 46 39 46 5 0 4 -9 -2 -19z m510 9 c0 -5 -4 -10 -10 -10
-5 0 -10 5 -10 10 0 6 5 10 10 10 6 0 10 -4 10 -10z m-2290 -25 c-7 -8 -17
-15 -23 -15 -5 0 -2 9 8 20 21 23 35 19 15 -5z m2360 15 c0 -5 -2 -10 -4 -10
-3 0 -8 5 -11 10 -3 6 -1 10 4 10 6 0 11 -4 11 -10z m1005 -16 c18 -6 16 -8
-10 -14 -37 -8 -45 -4 -45 21 0 15 4 17 18 10 9 -5 26 -13 37 -17z m-2491 -6
c8 -32 7 -40 -3 -34 -11 7 -21 56 -11 56 4 0 10 -10 14 -22z m1742 -5 c-10
-10 -19 5 -10 18 6 11 8 11 12 0 2 -7 1 -15 -2 -18z m-2031 -52 c-6 -19 -34
-30 -36 -13 0 4 -1 24 -3 45 l-3 39 25 -25 c17 -18 22 -31 17 -46z m1775 24
c0 -14 -4 -25 -10 -25 -8 0 -8 23 -1 48 4 12 11 -3 11 -23z m-2073 -67 c-2
-18 -4 -6 -4 27 0 33 2 48 4 33 2 -15 2 -42 0 -60z m1418 73 c-3 -5 2 -16 10
-24 8 -9 15 -22 15 -29 -1 -7 -9 -3 -20 10 -22 26 -46 24 -75 -8 -12 -13 -25
-17 -45 -14 -21 5 -31 1 -44 -17 -25 -37 -20 -58 19 -75 38 -15 48 -30 15 -19
-25 8 -50 -10 -50 -36 0 -23 33 -41 68 -38 15 2 38 -4 51 -13 l23 -16 -21 -12
c-12 -6 -21 -7 -20 -3 6 34 -19 45 -41 18 -10 -12 -10 -18 -1 -29 10 -11 5
-19 -22 -40 -46 -35 -107 -60 -107 -44 0 7 18 23 40 36 66 37 64 107 -3 114
-27 3 -32 7 -31 28 1 30 -29 57 -74 66 -46 9 -62 -10 -66 -78 -2 -40 -8 -61
-24 -78 -12 -13 -22 -27 -22 -31 0 -17 46 -39 81 -39 28 0 41 -6 53 -25 16
-24 16 -26 -1 -32 -10 -3 -58 -24 -108 -45 -82 -35 -158 -65 -329 -127 -32
-12 -61 -19 -64 -16 -3 3 -8 27 -10 53 -3 42 1 51 33 90 l37 42 33 -20 c18
-11 44 -20 58 -20 16 0 31 -8 37 -20 12 -21 45 -27 56 -9 3 6 1 16 -5 22 -21
21 -13 37 17 31 41 -8 82 27 82 71 0 44 -8 63 -32 76 -23 12 -48 -4 -48 -30 0
-16 -38 -47 -46 -38 -3 2 1 28 7 56 11 50 10 54 -15 80 -40 42 -35 61 17 61
23 1 69 7 102 15 33 7 92 21 130 29 73 16 184 61 270 108 50 28 81 36 70 19z
m425 -1 c0 -5 -4 -10 -10 -10 -5 0 -10 5 -10 10 0 6 5 10 10 10 6 0 10 -4 10
-10z m163 -23 c-3 -5 -10 -4 -15 1 -6 6 -7 16 -3 22 6 9 9 9 16 -1 4 -7 5 -17
2 -22z m-1868 3 c7 -23 -2 -60 -16 -60 -5 0 -9 18 -9 40 0 42 14 54 25 20z
m2198 14 c9 -9 -4 -35 -14 -28 -5 3 -9 12 -9 20 0 14 12 19 23 8z m787 -26 c0
-4 -10 -8 -22 -10 -12 -2 -24 -9 -26 -17 -4 -11 2 -13 26 -8 33 7 45 -3 55
-42 8 -33 -9 -51 -48 -51 -28 0 -33 4 -43 38 -26 92 -26 97 10 107 31 9 47 4
48 -17z m115 12 c-10 -11 -23 -20 -28 -20 -6 0 -2 9 8 20 10 11 23 20 28 20 6
0 2 -9 -8 -20z m-2697 -7 c5 -18 -19 -16 -43 3 -19 15 -19 15 9 12 16 -2 31
-9 34 -15z m1306 -14 c-3 -5 -10 -7 -15 -3 -5 3 -7 10 -3 15 3 5 10 7 15 3 5
-3 7 -10 3 -15z m619 -133 c-9 -38 -23 -70 -30 -73 -24 -9 -25 4 -3 48 19 36
21 52 16 108 l-6 66 19 -41 c19 -39 19 -43 4 -108z m1047 140 c0 -3 -4 -8 -10
-11 -5 -3 -10 -1 -10 4 0 6 5 11 10 11 6 0 10 -2 10 -4z m-1430 -31 c0 -17 -2
-18 -24 -9 -23 9 -20 24 4 24 11 0 20 -7 20 -15z m253 -10 c4 -8 2 -17 -3 -20
-6 -4 -10 3 -10 14 0 25 6 27 13 6z m932 -15 c-10 -11 -22 -20 -28 -20 -5 0 1
9 14 20 31 25 37 25 14 0z m-1885 -16 c0 -14 -4 -23 -10 -19 -5 3 -10 15 -10
26 0 10 5 19 10 19 6 0 10 -12 10 -26z m420 -5 c0 -5 -7 -9 -15 -9 -15 0 -20
12 -9 23 8 8 24 -1 24 -14z m-1410 3 c0 -13 -12 -22 -22 -16 -10 6 -1 24 13
24 5 0 9 -4 9 -8z m1765 -2 c3 -5 1 -10 -4 -10 -6 0 -11 5 -11 10 0 6 2 10 4
10 3 0 8 -4 11 -10z m-275 -10 c12 -8 9 -10 -12 -10 -15 0 -30 5 -33 10 -8 13
25 13 45 0z m-1349 -14 l33 -14 -58 -7 c-56 -7 -66 -13 -100 -60 -13 -17 -15
-18 -21 -4 -8 21 46 79 73 79 12 0 24 5 27 10 8 13 6 13 46 -4z m-301 -16 c0
-13 -7 -20 -20 -20 -18 0 -19 3 -10 20 6 11 15 20 20 20 6 0 10 -9 10 -20z
m-45 1 c3 -5 -3 -17 -12 -27 -17 -17 -18 -17 -21 6 -4 23 -5 23 -18 -9 -7 -18
-18 -30 -23 -27 -5 4 -12 2 -16 -4 -3 -5 -10 -10 -16 -10 -5 0 -4 9 3 19 7 11
17 19 22 18 6 -1 12 8 14 21 3 17 10 22 32 22 16 0 31 -4 35 -9z m3021 -29
c-18 -18 -31 -10 -23 12 4 10 13 13 22 9 15 -5 15 -7 1 -21z m-1266 -75 c0
-54 4 -75 20 -94 22 -28 26 -85 10 -127 -5 -14 -45 -59 -89 -102 -82 -78 -105
-119 -94 -166 3 -13 -6 0 -21 27 -14 28 -26 59 -26 71 0 25 49 104 81 130 13
10 38 37 54 59 27 36 30 47 31 122 1 45 5 103 9 129 10 67 25 37 25 -49z
m-515 42 c9 -51 -9 -76 -25 -35 -12 31 -13 60 -3 69 14 15 22 5 28 -34z m-700
11 c-23 -26 -25 -94 -3 -117 16 -16 16 -18 -10 -33 l-27 -17 -42 65 c-24 36
-43 76 -43 88 0 21 6 23 53 27 28 2 61 4 71 5 18 2 18 1 1 -18z m-685 -32 c0
-10 -82 -68 -97 -68 -20 0 -28 49 -11 67 14 13 15 12 11 -14 -4 -22 -3 -26 7
-16 7 6 19 9 26 6 8 -3 21 7 31 25 16 27 32 27 33 0z m1074 15 c8 -19 -7 -38
-22 -29 -11 7 -4 46 8 46 4 0 11 -8 14 -17z m-824 -17 c-1 -16 -48 -48 -60
-41 -6 3 -10 17 -10 30 0 20 5 23 35 22 19 -1 35 -6 35 -11z m40 -6 c9 -16 8
-18 -5 -14 -8 4 -15 12 -15 20 0 20 7 17 20 -6z m2958 8 c14 -14 16 -28 2 -28
-5 0 -14 9 -20 20 -12 22 -1 27 18 8z m231 -45 c7 -27 14 -56 17 -65 3 -10 1
-18 -4 -18 -5 0 -14 21 -20 48 -6 26 -15 58 -18 71 -5 16 -3 22 3 18 6 -4 16
-28 22 -54z m-3348 -232 c2 -7 -1 -15 -7 -18 -16 -6 -24 45 -24 151 0 149 14
156 21 11 3 -71 7 -136 10 -144z m425 185 c35 -60 42 -105 17 -114 -8 -2 -13
6 -13 23 0 14 -9 38 -21 54 -24 33 -49 102 -41 115 3 6 9 3 14 -5 5 -8 24 -41
44 -73z m189 64 c10 -11 15 -26 11 -36 -6 -15 -8 -15 -26 1 -20 18 -28 55 -12
55 5 0 17 -9 27 -20z m2646 10 c24 -13 27 -55 3 -46 -9 3 -18 6 -20 6 -3 0 -3
4 1 9 3 5 1 12 -5 16 -11 7 -14 25 -4 25 3 0 14 -5 25 -10z m-3225 -60 c2 -22
-1 -40 -6 -40 -6 0 -10 21 -10 47 0 55 11 51 16 -7z m1531 -20 c-6 -36 -15
-68 -20 -71 -6 -4 -7 -14 -4 -23 8 -19 57 -21 77 -3 12 10 12 9 0 -6 -18 -24
-68 -50 -84 -44 -7 3 -16 25 -19 49 -5 36 -1 53 25 105 18 34 33 61 34 60 1
-1 -3 -31 -9 -67z m1504 57 c-1 -12 -15 -9 -19 4 -3 6 1 10 8 8 6 -3 11 -8 11
-12z m-2034 -41 c-4 -9 -11 -16 -17 -16 -11 0 -14 33 -3 44 11 10 26 -11 20
-28z m-1088 -138 c1 -38 -3 -68 -8 -68 -17 0 -28 180 -14 217 10 23 21 -54 22
-149z m256 152 c3 -5 1 -10 -4 -10 -6 0 -11 5 -11 10 0 6 2 10 4 10 3 0 8 -4
11 -10z m-305 -87 c0 -67 -13 -84 -24 -32 -8 42 -8 104 1 112 13 14 23 -19 23
-80z m3420 66 c0 -11 -4 -17 -10 -14 -5 3 -10 13 -10 21 0 8 5 14 10 14 6 0
10 -9 10 -21z m-3470 -41 c0 -39 -1 -41 -16 -26 -11 11 -14 25 -10 42 10 40
26 31 26 -16z m3265 12 c8 -13 -5 -13 -25 0 -13 8 -13 10 2 10 9 0 20 -4 23
-10z m-2909 -45 c4 -15 1 -32 -7 -41 -8 -9 -12 -28 -11 -43 2 -21 -6 -34 -35
-57 -60 -48 -77 -55 -120 -46 l-38 8 58 13 c57 12 107 48 107 75 0 7 -11 18
-25 24 -33 15 -32 31 3 29 23 -2 29 3 37 31 11 38 22 41 31 7z m531 -2 c-9 -9
-20 -12 -28 -8 -9 6 -8 11 6 21 23 17 42 6 22 -13z m-157 -14 c0 -6 -4 -7 -10
-4 -5 3 -10 11 -10 16 0 6 5 7 10 4 6 -3 10 -11 10 -16z m2174 -28 c23 -16 56
-47 71 -68 16 -21 22 -32 13 -25 -14 11 -21 11 -43 -4 -14 -9 -32 -28 -39 -42
-21 -40 -26 -11 -5 32 10 22 17 41 15 44 -10 9 -44 -10 -54 -31 -8 -16 -11
-17 -11 -6 -1 9 6 22 14 29 20 17 19 38 -2 42 -17 3 -27 58 -10 58 5 0 28 -13
51 -29z m-2422 -12 c-3 -25 -47 -68 -71 -69 -10 0 -7 8 9 25 13 14 30 25 37
25 9 0 11 8 7 26 -5 20 -3 25 7 22 8 -3 13 -16 11 -29z m-432 -39 c0 -5 -2
-10 -4 -10 -3 0 -8 5 -11 10 -3 6 -1 10 4 10 6 0 11 -4 11 -10z m340 -40 c0
-5 -4 -10 -10 -10 -5 0 -10 5 -10 10 0 6 5 10 10 10 6 0 10 -4 10 -10z m1576
-11 c-1 -21 11 -32 47 -43 14 -5 16 -10 7 -25 -14 -27 -2 -54 59 -134 28 -36
51 -70 51 -74 0 -11 47 -50 105 -87 36 -22 64 -53 102 -111 29 -44 53 -87 53
-95 0 -9 5 -21 12 -28 17 -17 48 -15 48 4 0 11 8 14 27 12 23 -3 29 -10 43
-57 12 -43 26 -63 67 -100 41 -37 50 -50 42 -63 -7 -13 -3 -22 21 -39 29 -22
29 -23 8 -33 -25 -13 -26 -29 -1 -36 36 -10 88 -43 75 -48 -7 -2 -21 3 -31 12
-28 25 -102 31 -143 12 -35 -17 -36 -17 -74 9 -21 14 -47 25 -59 23 -18 -3
-20 -9 -17 -60 4 -66 -8 -74 -59 -37 -56 40 -89 113 -124 279 -9 41 -30 101
-46 134 -21 40 -29 66 -24 83 5 21 -4 35 -58 89 -63 63 -64 64 -119 64 -42 0
-62 -5 -79 -21 l-24 -20 56 6 c54 6 59 4 95 -27 52 -44 56 -51 39 -68 -13 -12
-12 -17 9 -40 30 -32 97 -161 90 -172 -3 -5 -14 -8 -23 -6 -17 3 -21 -1 -21
-21 0 -5 14 -14 30 -21 17 -7 30 -17 30 -22 0 -6 -8 -7 -17 -3 -76 32 -87 1
-13 -36 27 -13 50 -27 50 -31 0 -12 -5 -10 -49 13 -38 19 -61 19 -61 -1 0 -5
18 -19 40 -31 46 -26 55 -47 10 -24 -16 8 -38 15 -50 15 -39 0 -20 -28 34 -50
30 -12 62 -30 72 -41 13 -15 4 -13 -42 10 -82 40 -104 46 -104 27 0 -9 19 -25
42 -37 90 -46 172 -109 142 -109 -4 0 -39 20 -78 45 -80 50 -136 67 -136 43 0
-9 28 -29 63 -46 38 -19 76 -47 95 -71 36 -44 28 -65 -9 -25 -24 26 -164 104
-186 104 -33 0 -7 -33 46 -60 33 -16 62 -34 66 -40 9 -14 5 -13 -40 10 -22 11
-45 20 -52 20 -26 0 -12 -29 21 -45 18 -9 46 -30 62 -47 l29 -32 -38 22 c-21
12 -53 22 -71 22 -19 0 -39 7 -47 16 -26 32 -93 57 -159 60 -36 1 -66 3 -66 3
-1 1 3 20 7 44 5 23 16 92 24 152 27 200 77 388 111 415 7 7 30 10 51 8 29 -2
38 1 41 14 7 34 -34 41 -108 19 -112 -34 -120 -29 -91 55 10 31 16 65 14 75
-4 15 -1 18 11 13 24 -9 62 20 91 71 25 41 26 48 17 107 -10 62 -10 63 21 96
36 38 44 40 43 11z m1104 -4 c0 -8 -4 -15 -10 -15 -5 0 -10 7 -10 15 0 8 5 15
10 15 6 0 10 -7 10 -15z m-108 -37 c-7 -7 -12 -8 -12 -2 0 6 3 14 7 17 3 4 9
5 12 2 2 -3 -1 -11 -7 -17z m-2983 -15 c0 -5 -4 -17 -9 -28 -8 -18 -9 -17 -9
8 -1 15 4 27 9 27 6 0 10 -3 9 -7z m82 -25 c-5 -13 -6 -38 -4 -55 3 -21 1 -33
-6 -33 -12 0 -16 92 -4 103 14 15 22 6 14 -15z m2949 15 c0 -14 -19 -38 -25
-32 -8 8 5 39 16 39 5 0 9 -3 9 -7z m-480 -59 c0 -25 -57 -94 -78 -94 -13 0
-24 62 -13 73 5 5 22 11 38 13 15 1 32 10 38 18 13 21 15 20 15 -10z m-675
-63 c0 -31 -21 -38 -35 -11 -13 24 -5 42 18 38 10 -2 17 -13 17 -27z m1102 -3
c-3 -8 -6 -5 -6 6 -1 11 2 17 5 13 3 -3 4 -12 1 -19z m-2967 -114 c0 -8 -4
-14 -10 -14 -5 0 -10 9 -10 21 0 11 5 17 10 14 6 -3 10 -13 10 -21z m3756 11
c13 -12 12 -15 -5 -25 -11 -5 -32 -10 -47 -10 l-27 0 23 25 c27 29 36 31 56
10z m-69 -117 c-3 -8 -6 -5 -6 6 -1 11 2 17 5 13 3 -3 4 -12 1 -19z m-812 -27
c50 -33 86 -100 79 -145 -9 -49 -25 -86 -39 -86 -35 0 -75 14 -75 26 0 10 7
13 24 8 29 -7 32 -2 41 57 l7 46 -37 7 c-47 9 -69 -7 -61 -47 5 -23 0 -34 -26
-57 l-32 -30 22 -23 c12 -13 19 -27 15 -30 -11 -12 -53 -8 -82 8 -54 28 -112
119 -63 100 86 -34 155 22 104 85 -15 18 -21 20 -46 11 -15 -6 -30 -20 -33
-31 -6 -23 -26 -26 -43 -6 -18 23 8 70 42 74 14 2 41 18 60 36 28 28 39 33 68
29 19 -3 53 -17 75 -32z m735 26 c0 -7 -9 -18 -20 -25 -11 -7 -20 -19 -20 -27
0 -8 9 -20 20 -27 28 -18 25 -26 -14 -42 -28 -12 -33 -18 -29 -40 6 -28 32
-41 66 -31 18 6 20 5 10 -6 -23 -24 -14 -48 25 -68 32 -17 35 -20 17 -26 -64
-21 -62 -32 15 -75 35 -20 69 -48 77 -63 9 -18 34 -37 69 -52 29 -13 54 -28
54 -33 0 -13 -42 -49 -68 -57 -18 -5 -33 0 -60 22 -81 65 -141 79 -183 43
l-24 -20 44 -39 c43 -38 44 -40 31 -70 -15 -38 -8 -58 27 -72 26 -10 26 -10 7
-28 -10 -11 -32 -22 -49 -25 -29 -6 -31 -3 -58 55 -29 65 -64 89 -126 89 -20
0 -34 7 -41 20 -13 24 -6 40 17 40 26 0 84 50 99 86 8 18 14 65 14 103 0 69
-1 71 -50 130 -54 65 -57 71 -36 71 27 0 66 41 66 70 0 45 61 107 108 109 6 1
12 -5 12 -12z m-4000 -7 c0 -5 -5 -10 -11 -10 -5 0 -7 5 -4 10 3 6 8 10 11 10
2 0 4 -4 4 -10z m-166 -40 c46 0 53 -4 97 -47 26 -27 62 -61 80 -77 l34 -29
-39 -9 c-33 -7 -49 -4 -104 22 -69 32 -134 78 -169 119 -31 36 -29 40 15 30
20 -5 59 -9 86 -9z m4396 -29 c0 -13 -27 -21 -71 -21 -37 0 -48 8 -32 23 10
10 103 8 103 -2z m-4730 -62 c0 -6 -4 -7 -10 -4 -5 3 -10 11 -10 16 0 6 5 7
10 4 6 -3 10 -11 10 -16z m127 -38 c-12 -28 -15 -30 -26 -17 -11 13 -9 20 10
40 29 30 34 21 16 -23z m4508 19 c3 -5 1 -10 -4 -10 -6 0 -11 5 -11 10 0 6 2
10 4 10 3 0 8 -4 11 -10z m-311 -114 c27 -55 25 -124 -4 -164 -26 -35 -47 -44
-30 -13 13 24 13 51 1 51 -25 0 -80 -47 -81 -67 0 -21 -5 -23 -47 -23 -47 0
-49 1 -75 49 -39 68 -35 81 10 32 l37 -42 35 17 c46 22 45 21 31 38 -9 11 -9
19 0 34 10 16 8 23 -10 41 -26 26 -20 41 18 41 16 0 37 10 51 25 30 32 40 29
64 -19z m-4265 -8 c1 -5 -3 -8 -8 -8 -12 0 -22 30 -14 43 6 10 20 -13 22 -35z
m93 -15 l-6 -28 -6 25 c-7 27 -3 43 9 35 5 -2 6 -17 3 -32z m242 -37 c-6 -25
-24 -37 -24 -15 0 15 21 52 26 46 3 -3 2 -16 -2 -31z m212 -13 c-4 -4 -11 -1
-16 7 -16 25 -11 35 7 17 9 -9 13 -20 9 -24z m3514 27 c-20 -13 -33 -13 -25 0
3 6 14 10 23 10 15 0 15 -2 2 -10z m-3881 -63 c1 -5 -3 -5 -9 -2 -5 3 -10 16
-9 28 0 21 1 21 9 2 5 -11 9 -24 9 -28z m41 8 c0 -8 -4 -15 -10 -15 -5 0 -10
7 -10 15 0 8 5 15 10 15 6 0 10 -7 10 -15z m107 -137 c0 -93 -1 -100 -13 -72
-7 17 -13 64 -14 105 -2 95 -2 93 13 81 9 -8 13 -43 14 -114z m-57 80 c0 -16
-3 -19 -11 -11 -6 6 -8 16 -5 22 11 17 16 13 16 -11z m-37 -21 c-2 -45 -3 -48
-13 -42 -13 8 -8 76 5 72 5 -2 9 -15 8 -30z m137 13 c0 -5 -4 -10 -10 -10 -5
0 -10 5 -10 10 0 6 5 10 10 10 6 0 10 -4 10 -10z m110 -27 c0 -22 -2 -25 -10
-13 -13 20 -13 40 0 40 6 0 10 -12 10 -27z m-54 -31 c-11 -10 -15 4 -8 28 l7
25 3 -23 c2 -13 1 -26 -2 -30z m-159 -9 c-3 -10 -5 -2 -5 17 0 19 2 27 5 18 2
-10 2 -26 0 -35z m250 25 c-3 -8 -6 -5 -6 6 -1 11 2 17 5 13 3 -3 4 -12 1 -19z
m-151 -76 c-12 -12 -18 8 -10 35 l8 28 4 -28 c2 -16 1 -31 -2 -35z m111 36
c-3 -8 -6 -5 -6 6 -1 11 2 17 5 13 3 -3 4 -12 1 -19z m3993 -18 c0 -13 -11
-13 -30 0 -12 8 -11 10 8 10 12 0 22 -4 22 -10z m-4216 -46 c9 -24 7 -34 -8
-34 -16 0 -29 27 -20 41 8 14 21 11 28 -7z m3456 -6 c43 -30 40 -43 -12 -43
-44 0 -66 19 -55 49 9 22 28 20 67 -6z m-3712 -20 c2 -10 -6 -30 -17 -44 -11
-14 -23 -42 -27 -63 -3 -20 -8 -45 -11 -56 -6 -19 -6 -19 -14 3 -5 12 -13 22
-19 22 -16 0 -12 -18 10 -40 17 -17 19 -28 15 -58 -11 -60 -16 -72 -31 -72 -8
0 -14 -7 -14 -15 0 -9 6 -12 15 -9 12 5 15 -2 15 -30 0 -37 -13 -48 -24 -21
-3 8 -17 20 -31 25 -14 5 -25 14 -25 20 0 5 -7 10 -16 10 -8 0 -12 4 -9 10 3
5 13 48 21 95 20 116 29 138 53 130 26 -8 31 4 22 48 -8 31 -6 38 13 51 27 20
70 16 74 -6z m1067 3 c3 -5 1 -12 -5 -16 -5 -3 -10 1 -10 9 0 18 6 21 15 7z
m2435 -23 c0 -34 24 -68 49 -68 8 0 25 12 36 26 l21 26 57 -18 c57 -18 76 -43
35 -45 -29 -2 -27 -2 -65 13 -29 11 -35 10 -57 -11 -14 -13 -23 -27 -21 -31 8
-12 -22 -31 -61 -40 -30 -7 -43 -4 -70 13 -52 34 -51 47 1 42 49 -5 55 3 34
49 -16 34 -4 76 21 76 16 0 20 -7 20 -32z m-3127 2 c3 -11 1 -20 -4 -20 -5 0
-9 9 -9 20 0 11 2 20 4 20 2 0 6 -9 9 -20z m3020 0 c-3 -10 -11 -25 -19 -31
-11 -9 -14 -8 -14 8 0 19 17 43 31 43 4 0 5 -9 2 -20z m1129 -25 c3 -14 2 -28
-2 -30 -12 -8 -33 23 -26 40 8 23 23 18 28 -10z m-4103 -17 c0 -31 -1 -31 -10
-10 -5 13 -7 28 -3 33 10 16 14 9 13 -23z m4274 -5 c3 -5 -7 -23 -23 -41 l-27
-33 -37 22 c-41 24 -48 42 -12 33 14 -3 36 1 53 10 32 17 40 19 46 9z m-3553
-23 c0 -5 -5 -10 -11 -10 -5 0 -7 5 -4 10 3 6 8 10 11 10 2 0 4 -4 4 -10z
m1474 4 c24 -9 19 -24 -7 -24 -13 0 -27 -3 -30 -7 -12 -11 13 -31 32 -26 10 3
32 -2 49 -11 42 -22 55 -1 18 31 -31 26 -23 29 26 9 46 -20 98 -79 126 -146
13 -30 35 -79 50 -108 28 -59 66 -92 84 -74 8 8 3 20 -16 42 -14 17 -26 39
-26 48 0 13 5 11 20 -8 11 -14 20 -28 20 -32 0 -5 8 -8 18 -8 11 0 21 11 27
32 12 37 35 50 35 19 0 -40 37 -38 127 7 25 12 35 14 44 5 9 -9 6 -19 -12 -41
-13 -16 -32 -44 -41 -61 -14 -25 -22 -31 -38 -26 -11 4 -34 -1 -52 -9 -29 -15
-33 -15 -50 1 -16 14 -23 15 -58 3 -39 -13 -42 -12 -70 15 -16 15 -45 65 -65
111 -46 108 -73 154 -91 154 -24 0 -27 -28 -6 -58 11 -15 33 -59 48 -97 16
-39 45 -89 67 -112 45 -49 46 -70 3 -48 -16 9 -35 14 -42 11 -7 -3 -18 1 -24
9 -6 8 -18 11 -27 8 -12 -5 -14 -16 -10 -47 l6 -41 -57 -18 c-34 -11 -78 -17
-107 -15 -43 3 -50 6 -48 23 3 22 -36 135 -46 135 -23 -1 -33 -20 -26 -51 4
-19 4 -30 -1 -26 -14 13 -32 128 -27 165 5 29 3 32 -20 32 -39 0 -50 28 -31
84 19 56 29 59 29 9 0 -30 4 -38 18 -38 14 0 24 16 38 60 23 68 29 75 84 104
46 24 39 23 59 15z m-2187 -36 c-3 -8 -6 -5 -6 6 -1 11 2 17 5 13 3 -3 4 -12
1 -19z m613 -5 c-1 -24 -2 -26 -11 -10 -5 9 -7 22 -4 27 10 17 15 11 15 -17z
m-408 -18 c6 -28 -19 -68 -54 -86 -19 -10 -20 -9 -13 7 4 11 7 31 6 47 -1 23
3 27 25 27 21 0 24 3 19 21 -5 13 -3 19 3 15 5 -3 12 -17 14 -31z m489 -75
c32 -79 34 -93 22 -108 -13 -16 -14 -15 -8 5 4 15 -4 40 -23 75 -31 56 -49
118 -35 118 5 0 25 -41 44 -90z m2549 44 c24 -20 28 -29 18 -35 -16 -10 -122
-12 -131 -2 -10 10 44 63 64 63 10 0 32 -12 49 -26z m-3595 -76 c-8 -96 -32
-229 -45 -242 -12 -12 -23 74 -16 126 3 24 7 72 9 107 2 48 8 67 22 77 10 8
23 14 28 14 4 0 5 -37 2 -82z m996 21 c9 -27 13 -49 9 -49 -8 0 -40 79 -40
100 0 24 14 0 31 -51z m3517 44 c5 -18 -23 -16 -39 3 -11 14 -10 15 11 12 13
-1 25 -9 28 -15z m-3578 -37 c0 -6 -7 -2 -15 8 -8 11 -15 25 -15 30 0 6 7 2
15 -8 8 -11 15 -25 15 -30z m1906 17 c41 -26 55 -43 36 -43 -17 0 -96 46 -100
58 -6 20 18 14 64 -15z m1406 -35 c-6 -24 -21 -42 -57 -65 -53 -35 -74 -64
-75 -102 0 -20 -2 -21 -15 -11 -39 32 1 171 43 152 9 -4 30 -7 47 -7 25 0 30
5 35 31 4 17 11 37 15 44 13 21 17 -3 7 -42z m-3126 -33 c7 -27 6 -29 -9 -16
-10 7 -17 25 -17 39 0 33 16 18 26 -23z m97 -51 c-5 -14 -41 -29 -50 -21 -2 3
1 16 8 29 7 12 12 27 11 32 -2 4 3 15 10 23 11 14 14 11 19 -17 4 -18 5 -39 2
-46z m3134 58 c-12 -13 -14 -26 -8 -55 5 -20 6 -37 2 -37 -13 0 -31 24 -31 43
0 20 30 66 44 67 5 0 2 -8 -7 -18z m-1505 -19 c10 -9 18 -23 18 -31 0 -12 -6
-10 -25 8 -38 35 -31 58 7 23z m1595 -16 c9 -19 7 -26 -13 -44 l-23 -21 5 28
c4 15 1 31 -5 34 -6 4 -9 12 -6 17 11 16 32 10 42 -14z m-3442 -16 c-9 -16
-25 -3 -18 15 4 10 9 12 15 6 6 -6 7 -15 3 -21z m3245 -51 c0 -5 -4 -10 -10
-10 -5 0 -10 5 -10 10 0 6 5 10 10 10 6 0 10 -4 10 -10z m53 -46 c3 -3 1 -16
-4 -28 -7 -14 -7 -35 -2 -55 7 -27 20 -39 68 -65 42 -22 61 -38 63 -54 3 -17
-2 -22 -20 -23 -36 -2 -92 2 -108 7 -22 6 -60 67 -66 105 -10 62 39 142 69
113z m-1390 -113 c-7 -10 -9 -28 -6 -40 4 -15 1 -21 -10 -21 -21 0 -32 19 -18
33 6 6 11 21 11 32 0 27 11 38 24 25 7 -7 7 -16 -1 -29z m-2913 -23 c-36 -29
-46 -21 -14 11 16 16 31 25 33 19 2 -7 -6 -20 -19 -30z m3004 20 c20 -28 20
-47 0 -86 -32 -66 -47 -49 -38 43 4 36 10 65 15 65 4 0 15 -10 23 -22z m-3074
-30 c0 -12 -25 -9 -38 4 -7 7 -12 18 -12 25 0 11 6 9 25 -4 13 -10 25 -21 25
-25z m2800 12 c0 -5 -4 -10 -10 -10 -5 0 -10 5 -10 10 0 6 5 10 10 10 6 0 10
-4 10 -10z m320 -105 c0 -14 -4 -25 -10 -25 -11 0 -14 33 -3 43 11 11 13 8 13
-18z m-129 -41 c8 -62 14 -74 40 -74 14 0 19 7 19 26 0 20 4 25 16 20 9 -3 33
-6 55 -6 28 0 39 -4 39 -15 0 -17 -27 -20 -50 -5 -9 5 -19 5 -27 -2 -19 -16
-16 -36 7 -43 32 -10 24 -39 -13 -53 -49 -18 -64 -15 -106 19 -37 29 -39 33
-39 89 0 32 -3 64 -7 70 -9 15 13 31 40 28 16 -3 21 -13 26 -54z m329 -98 c0
-133 74 -307 175 -410 103 -106 269 -258 290 -266 11 -4 42 -24 68 -44 26 -19
70 -48 99 -64 29 -15 71 -40 93 -54 66 -41 220 -83 448 -122 87 -15 120 -36
115 -75 -3 -26 -28 -37 -219 -90 -74 -21 -102 -25 -124 -18 -19 7 -60 6 -124
-3 -113 -14 -361 -14 -430 1 -28 6 -170 12 -318 14 -147 1 -287 6 -311 10 -32
5 -49 3 -68 -10 -22 -14 -40 -16 -110 -10 l-84 7 -32 -36 c-34 -39 -55 -45
-65 -20 -5 15 -19 16 -105 10 -91 -6 -98 -5 -98 12 0 17 11 20 89 25 81 5 131
20 131 39 0 13 -23 9 -86 -11 -63 -21 -92 -14 -75 18 6 10 5 32 -1 57 -10 37
-7 53 27 160 21 65 53 145 70 179 184 347 198 381 215 504 12 89 26 131 44
131 7 0 22 -7 34 -16 16 -11 35 -14 60 -10 135 20 142 23 142 66 0 30 31 50
78 50 15 0 34 5 42 10 26 17 30 11 30 -34z m122 -228 c-7 -7 -12 -8 -12 -2 0
14 12 26 19 19 2 -3 -1 -11 -7 -17z m-612 -8 c0 -5 -4 -10 -10 -10 -5 0 -10 5
-10 10 0 6 5 10 10 10 6 0 10 -4 10 -10z m-20 -75 c0 -8 -9 -15 -20 -15 -22 0
-27 15 -7 23 21 9 27 7 27 -8z m-530 -211 c0 -26 8 -43 35 -70 45 -45 49 -75
5 -44 -17 12 -35 30 -41 41 -11 22 -95 63 -110 53 -5 -3 -9 -1 -9 4 0 13 25
22 60 22 20 0 31 6 35 20 10 30 25 14 25 -26z m-47 -107 c12 -13 34 -32 50
-42 32 -20 35 -40 8 -55 -32 -16 -55 -12 -105 21 -45 30 -46 32 -26 46 11 8
20 23 20 34 0 26 26 24 53 -4z m-113 -13 c0 -8 -5 -12 -10 -9 -6 4 -8 11 -5
16 9 14 15 11 15 -7z m-256 -56 c9 -17 15 -33 13 -35 -5 -4 -158 25 -164 31
-3 3 15 10 38 16 24 6 49 13 54 15 28 10 45 2 59 -27z m89 1 c8 -11 13 -29 10
-40 -7 -26 -40 -24 -48 4 -4 12 -9 30 -11 40 -8 25 31 22 49 -4z m131 5 c9 -3
16 -10 16 -15 0 -14 -26 -10 -40 6 -13 16 -3 20 24 9z m-42 -31 c14 -16 32
-103 22 -103 -10 0 -84 53 -84 61 0 4 5 11 10 14 6 3 10 15 10 26 0 24 22 25
42 2z m178 -64 c19 -35 12 -149 -8 -149 -4 0 -7 26 -8 57 -1 32 -4 70 -9 86
-9 33 9 37 25 6z m-90 -10 c0 -5 -4 -9 -10 -9 -5 0 -10 7 -10 16 0 8 5 12 10
9 6 -3 10 -10 10 -16z m180 12 c0 -14 -18 -23 -30 -16 -6 4 -8 11 -5 16 8 12
35 12 35 0z m108 -123 c18 -18 14 -34 -8 -34 -14 0 -20 7 -20 23 0 25 10 29
28 11z m-146 -43 c-7 -38 -32 -61 -32 -32 0 16 32 78 37 73 2 -2 0 -20 -5 -41z
m139 -130 c3 -15 13 -21 42 -23 20 -2 37 -6 37 -10 0 -4 -12 -25 -26 -46 l-27
-39 -48 53 c-53 58 -54 62 -38 108 l11 31 23 -27 c12 -15 24 -36 26 -47z m119
25 c0 -5 -4 -10 -10 -10 -5 0 -10 5 -10 10 0 6 5 10 10 10 6 0 10 -4 10 -10z
m2100 -89 c0 -17 -4 -32 -9 -36 -5 -3 -21 -29 -34 -59 -18 -39 -44 -69 -98
-116 -41 -34 -79 -67 -84 -74 -17 -18 -98 -56 -122 -56 -14 0 -23 6 -23 15 0
8 -13 24 -30 37 -16 12 -30 27 -30 34 0 23 -29 38 -53 26 -12 -5 -30 -13 -41
-16 -14 -5 -17 -13 -12 -36 6 -33 4 -35 -23 -18 -28 17 -55 3 -41 -21 14 -28
14 -28 -27 -27 -34 1 -38 -2 -36 -21 2 -20 -3 -23 -45 -29 -43 -5 -49 -9 -58
-38 -8 -28 -14 -32 -59 -38 -56 -7 -125 -33 -125 -47 0 -12 29 -41 40 -41 5 0
11 4 14 9 3 5 29 9 56 9 28 1 55 4 60 7 6 3 10 -3 10 -14 0 -10 6 -22 13 -24
7 -3 4 -6 -6 -6 -10 -1 -17 -7 -14 -13 2 -9 27 -13 75 -13 40 0 72 -3 72 -7 0
-15 -40 -28 -65 -22 -18 4 -27 2 -31 -10 -5 -14 -30 -16 -190 -16 -107 0 -184
4 -184 9 0 5 7 16 15 25 8 8 15 17 15 20 0 3 24 30 53 60 69 71 86 92 99 121
12 26 85 75 112 75 22 0 54 30 106 99 36 48 59 68 115 96 39 19 81 36 95 38
14 1 27 5 30 8 3 3 41 15 85 28 158 45 267 81 280 91 6 4 21 10 35 13 56 10
60 8 60 -22z m59 -168 c-6 -18 -14 -33 -18 -33 -9 0 -6 66 5 100 l8 25 8 -30
c4 -18 3 -43 -3 -62z m-58 -46 c-13 -13 -21 5 -14 33 l6 24 9 -24 c5 -14 5
-27 -1 -33z m-26 -46 c-2 -35 -15 -36 -15 -2 0 18 4 30 8 27 5 -3 8 -14 7 -25z
m84 6 c17 -21 -7 -40 -26 -21 -8 7 -11 18 -8 24 8 14 20 13 34 -3z m-117 -48
c-12 -30 -25 -8 -16 27 5 21 9 23 15 11 5 -8 5 -25 1 -38z m-37 21 c3 -5 1
-10 -4 -10 -6 0 -11 5 -11 10 0 6 2 10 4 10 3 0 8 -4 11 -10z m130 -50 c4 -6
11 -8 16 -5 5 4 9 1 9 -4 0 -13 -47 -15 -54 -2 -6 9 3 21 15 21 4 0 11 -5 14
-10z m-155 -70 c0 -70 -13 -91 -29 -48 -8 21 -8 21 -15 -6 -4 -15 -4 -31 0
-37 3 -5 3 -18 -1 -27 -6 -16 -7 -16 -16 1 -6 9 -8 21 -4 26 3 5 1 12 -4 15
-5 3 -12 -6 -16 -21 -5 -21 -8 -24 -15 -12 -5 7 -7 22 -4 32 7 22 -5 22 -21 0
-11 -14 -13 -13 -19 11 -7 29 9 70 25 61 5 -4 9 -1 9 5 0 23 25 2 31 -26 6
-27 7 -26 8 9 1 26 5 37 14 34 6 -2 11 -12 11 -21 -1 -9 2 -16 7 -16 5 0 9 17
9 38 0 21 3 42 7 45 17 18 23 1 23 -63z m-313 34 c3 -9 19 -22 36 -29 l29 -12
-58 -36 c-33 -19 -70 -47 -83 -61 -14 -14 -31 -26 -38 -26 -20 0 -13 55 7 56
35 2 40 5 40 18 0 7 -10 17 -22 21 -20 7 -19 8 12 12 96 10 109 30 23 35 l-58
3 45 17 c58 21 59 21 67 2z m423 -30 c0 -8 -4 -12 -10 -9 -5 3 -10 13 -10 21
0 8 5 12 10 9 6 -3 10 -13 10 -21z m-274 -122 c4 -37 8 -80 8 -97 l1 -30 -127
-3 c-106 -2 -128 0 -128 12 0 25 12 46 23 39 6 -3 7 -1 3 6 -10 16 10 38 53
60 67 34 96 51 121 70 13 11 28 17 31 15 4 -2 11 -35 15 -72z m45 -32 c1 -19
2 -48 1 -65 -4 -54 -22 -5 -22 60 0 63 17 67 21 5z m-433 -17 c-10 -2 -26 -2
-35 0 -10 3 -2 5 17 5 19 0 27 -2 18 -5z m512 -18 c0 -8 -4 -15 -10 -15 -5 0
-10 7 -10 15 0 8 5 15 10 15 6 0 10 -7 10 -15z"/>
<path d="M3552 7048 c-18 -18 -14 -36 9 -43 28 -9 47 10 33 32 -14 22 -27 26
-42 11z"/>
<path d="M3143 6918 c-37 -22 -43 -47 -13 -55 11 -3 20 -10 20 -17 0 -6 11
-24 25 -39 26 -27 77 -37 90 -17 3 6 15 10 26 10 28 0 21 28 -11 45 -66 34
-77 37 -99 26 -23 -13 -28 -2 -9 17 16 16 69 15 92 -3 27 -20 36 -19 36 4 0
49 -97 67 -157 29z m107 -94 c0 -16 -16 -19 -25 -4 -8 13 4 32 16 25 5 -4 9
-13 9 -21z"/>
<path d="M3121 6666 c-7 -9 -8 -17 -2 -20 14 -9 41 4 41 20 0 18 -24 18 -39 0z"/>
<path d="M3450 6550 c0 -5 7 -10 15 -10 8 0 15 5 15 10 0 6 -7 10 -15 10 -8 0
-15 -4 -15 -10z"/>
<path d="M3376 6513 c-11 -11 -6 -23 9 -23 8 0 15 4 15 9 0 13 -16 22 -24 14z"/>
<path d="M3294 6469 c-10 -17 13 -36 27 -22 12 12 4 33 -11 33 -5 0 -12 -5
-16 -11z"/>
<path d="M1591 5904 c0 -11 3 -14 6 -6 3 7 2 16 -1 19 -3 4 -6 -2 -5 -13z"/>
<path d="M1757 5794 c-4 -4 -7 -14 -7 -23 0 -11 3 -12 11 -4 6 6 10 16 7 23
-2 6 -7 8 -11 4z"/>
<path d="M2030 5624 c0 -8 5 -12 10 -9 6 3 10 10 10 16 0 5 -4 9 -10 9 -5 0
-10 -7 -10 -16z"/>
<path d="M2036 5572 c-2 -4 -1 -14 5 -22 7 -12 9 -10 9 8 0 23 -5 28 -14 14z"/>
<path d="M2256 5355 c-3 -8 -1 -15 4 -15 13 0 22 18 11 24 -5 3 -11 -1 -15 -9z"/>
<path d="M2249 4674 c-10 -13 -10 -17 2 -25 20 -13 34 -6 37 19 4 26 -19 30
-39 6z"/>
<path d="M2044 4615 c-7 -18 3 -35 21 -35 21 0 28 19 15 35 -16 19 -29 19 -36
0z"/>
<path d="M1964 4595 c-8 -21 3 -45 20 -45 20 0 29 16 21 40 -7 23 -33 27 -41
5z"/>
<path d="M2060 4385 c-9 -11 -10 -19 -3 -26 17 -17 48 -6 48 16 0 25 -28 31
-45 10z"/>
<path d="M1734 4275 c-8 -19 3 -35 25 -35 22 0 45 25 36 40 -9 15 -55 12 -61
-5z"/>
<path d="M1721 4581 c-17 -11 -7 -41 13 -41 22 0 30 20 15 36 -9 8 -19 10 -28
5z"/>
<path d="M3050 4033 c-38 -16 -70 -41 -70 -54 0 -5 8 -13 18 -18 14 -8 29 -3
63 20 24 16 54 29 65 29 23 0 48 23 37 33 -11 12 -77 6 -113 -10z"/>
<path d="M3472 3638 c-9 -9 -4 -21 21 -52 18 -23 43 -57 54 -76 31 -49 119
-134 132 -126 19 12 12 31 -20 62 -17 16 -41 49 -54 74 -25 47 -96 130 -112
130 -5 0 -14 -5 -21 -12z"/>
<path d="M140 3023 c0 -4 5 -15 10 -23 8 -13 10 -13 10 2 0 9 -4 20 -10 23 -5
3 -10 3 -10 -2z"/>
<path d="M2795 2769 c-9 -13 21 -93 41 -110 12 -10 16 -9 21 10 4 18 8 19 20
9 12 -10 18 -9 29 6 11 16 16 17 29 6 19 -16 39 -1 33 26 -2 12 -12 19 -28 20
-14 0 -34 4 -44 9 -13 6 -22 3 -31 -9 -11 -15 -14 -13 -25 14 -13 30 -33 39
-45 19z"/>
<path d="M2091 8091 c-16 -28 11 -48 44 -33 28 13 33 32 10 32 -8 0 -15 5 -15
10 0 17 -29 11 -39 -9z"/>
<path d="M2105 7527 c-8 -13 -14 -35 -13 -48 3 -21 -1 -24 -29 -25 -37 0 -63
-19 -63 -44 0 -23 15 -28 62 -22 28 3 47 14 73 43 37 42 41 53 25 93 -12 32
-35 33 -55 3z"/>
<path d="M4805 4120 c-3 -5 -1 -10 4 -10 6 0 11 5 11 10 0 6 -2 10 -4 10 -3 0
-8 -4 -11 -10z"/>
<path d="M4846 4103 c-11 -11 -6 -23 9 -23 8 0 15 4 15 9 0 13 -16 22 -24 14z"/>
<path d="M4658 4069 c-20 -21 -23 -39 -8 -39 6 0 10 6 10 14 0 7 9 16 20 19
11 3 20 10 20 16 0 17 -23 12 -42 -10z"/>
<path d="M3726 4058 c-17 -9 -16 -12 12 -42 16 -17 41 -48 57 -68 29 -40 52
-48 61 -23 7 17 -15 55 -55 98 -36 39 -53 47 -75 35z"/>
<path d="M700 4041 c0 -5 5 -13 10 -16 6 -3 10 -2 10 4 0 5 -4 13 -10 16 -5 3
-10 2 -10 -4z"/>
<path d="M4918 4005 c-25 -33 -23 -36 12 -18 25 12 29 18 19 29 -14 17 -11 18
-31 -11z"/>
<path d="M636 4006 c3 -9 11 -16 16 -16 13 0 5 23 -10 28 -7 2 -10 -2 -6 -12z"/>
<path d="M670 3966 c0 -9 7 -16 16 -16 17 0 14 22 -4 28 -7 2 -12 -3 -12 -12z"/>
<path d="M1280 3965 c0 -11 5 -27 10 -35 8 -12 10 -12 10 5 0 11 -5 27 -10 35
-8 12 -10 12 -10 -5z"/>
<path d="M4905 3950 c-10 -16 4 -30 31 -30 27 0 24 14 -6 30 -13 7 -21 7 -25
0z"/>
<path d="M765 3940 c3 -5 11 -10 16 -10 6 0 7 5 4 10 -3 6 -11 10 -16 10 -6 0
-7 -4 -4 -10z"/>
<path d="M4991 3904 c0 -11 3 -14 6 -6 3 7 2 16 -1 19 -3 4 -6 -2 -5 -13z"/>
<path d="M190 3900 c-8 -5 -11 -12 -7 -16 4 -4 15 0 24 9 18 18 8 23 -17 7z"/>
<path d="M1240 3899 c0 -5 5 -7 10 -4 6 3 10 8 10 11 0 2 -4 4 -10 4 -5 0 -10
-5 -10 -11z"/>
<path d="M4933 3863 c-18 -7 -16 -33 2 -33 8 0 15 2 15 4 0 2 3 11 6 20 6 16
0 19 -23 9z"/>
<path d="M1260 3850 c0 -5 5 -10 11 -10 5 0 7 5 4 10 -3 6 -8 10 -11 10 -2 0
-4 -4 -4 -10z"/>
<path d="M155 3830 c-15 -17 -16 -20 -3 -20 9 0 19 7 22 16 10 25 1 27 -19 4z"/>
<path d="M116 3795 c-6 -17 19 -39 34 -30 5 3 10 12 10 19 0 18 -37 27 -44 11z"/>
<path d="M4977 3710 c-9 -13 -14 -27 -11 -32 7 -12 34 -10 34 3 0 5 -6 7 -12
3 -9 -6 -9 -3 0 9 8 9 12 22 10 29 -3 7 -11 3 -21 -12z"/>
<path d="M1080 3511 c0 -6 5 -13 10 -16 6 -3 10 1 10 9 0 9 -4 16 -10 16 -5 0
-10 -4 -10 -9z"/>
<path d="M4918 3489 c3 -23 7 -27 17 -19 24 20 24 45 0 46 -18 1 -21 -3 -17
-27z"/>
<path d="M4970 3468 c0 -7 8 -22 16 -33 15 -19 15 -19 12 9 -3 29 -28 51 -28
24z"/>
<path d="M4080 3014 c-10 -11 -9 -14 8 -14 25 0 37 16 18 23 -8 3 -20 -1 -26
-9z"/>
<path d="M4980 2719 c0 -8 -14 -10 -41 -6 l-41 5 28 -29 c26 -27 28 -57 2 -31
-33 33 -38 -1 -5 -36 15 -17 18 -26 10 -29 -19 -7 -16 -27 8 -57 11 -14 16
-26 10 -26 -6 0 -11 -9 -11 -20 0 -11 5 -20 10 -20 13 0 13 -26 -1 -51 -8 -16
-13 -18 -25 -8 -18 15 -18 30 1 23 25 -10 17 22 -10 40 -29 19 -33 36 -8 36
16 0 16 1 1 16 -9 9 -24 14 -32 11 -18 -7 -22 -52 -6 -62 6 -4 8 -14 6 -23 -3
-10 -2 -22 2 -27 12 -17 122 -86 122 -76 0 5 -7 11 -15 15 -8 3 -15 10 -15 17
0 6 7 9 15 5 10 -4 15 1 15 15 0 11 -7 36 -15 56 -19 44 -19 47 0 39 12 -4 14
4 14 44 -1 40 -5 49 -23 54 l-21 6 23 19 c17 15 22 30 22 65 0 25 -4 46 -10
46 -5 0 -10 -5 -10 -11z"/>
<path d="M4860 2690 c0 -5 5 -10 10 -10 6 0 10 5 10 10 0 6 -4 10 -10 10 -5 0
-10 -4 -10 -10z"/>
<path d="M4461 2664 c0 -11 3 -14 6 -6 3 7 2 16 -1 19 -3 4 -6 -2 -5 -13z"/>
<path d="M4480 2610 c0 -5 5 -10 11 -10 5 0 7 5 4 10 -3 6 -8 10 -11 10 -2 0
-4 -4 -4 -10z"/>
<path d="M2711 2596 c-17 -20 -10 -67 11 -80 26 -16 38 3 31 52 -6 43 -21 53
-42 28z"/>
<path d="M3990 2555 c7 -9 15 -13 17 -11 7 7 -7 26 -19 26 -6 0 -6 -6 2 -15z"/>
<path d="M3690 2460 c0 -5 5 -10 10 -10 6 0 10 5 10 10 0 6 -4 10 -10 10 -5 0
-10 -4 -10 -10z"/>
<path d="M3760 2451 c0 -14 5 -19 15 -14 17 6 15 25 -3 31 -7 2 -12 -5 -12
-17z"/>
<path d="M4880 2367 c0 -9 17 -32 38 -52 20 -20 33 -35 27 -34 -32 5 -36 -2
-15 -31 22 -31 20 -65 -3 -58 -6 3 -16 14 -22 26 -15 35 -27 26 -19 -15 7 -35
6 -37 -10 -24 -11 9 -15 22 -12 37 4 13 2 26 -4 29 -5 3 -10 -3 -10 -14 0 -12
-5 -21 -10 -21 -11 0 -14 7 -24 50 -3 14 -10 32 -15 40 -16 24 -24 4 -13 -30
10 -27 9 -30 -6 -28 -26 5 -27 -85 0 -144 18 -40 19 -52 10 -73 -18 -39 -15
-76 6 -82 18 -4 52 -92 52 -133 0 -11 7 -20 15 -20 18 0 18 -1 5 -35 -9 -23
-13 -25 -25 -15 -13 11 -15 7 -15 -23 0 -20 5 -39 11 -43 6 -3 8 -16 5 -29 -4
-17 2 -31 26 -54 39 -38 52 -39 44 -3 -24 97 -13 109 24 25 15 -33 24 -43 31
-36 8 8 7 17 -1 33 -11 21 -10 22 9 17 16 -4 21 -1 21 15 0 15 -5 19 -20 15
-10 -3 -25 1 -31 9 -16 19 -4 30 16 14 13 -11 14 -5 9 41 -3 30 -6 65 -8 79
-1 14 -8 39 -15 55 -11 26 -25 88 -33 149 -3 22 20 34 26 14 3 -7 7 -30 11
-51 3 -21 10 -35 16 -32 12 8 12 52 0 60 -5 3 -12 18 -16 34 -5 22 -11 28 -24
24 -14 -3 -21 4 -30 28 -14 40 -14 49 -1 49 6 0 15 -11 20 -25 5 -14 16 -25
24 -25 8 0 23 -3 33 -7 14 -5 16 -4 7 8 -6 8 -11 30 -12 49 -2 19 -5 43 -8 53
-3 9 -1 17 5 17 5 0 15 -8 20 -17 9 -15 10 -11 11 18 0 19 -6 41 -12 47 -10
10 -10 14 0 21 10 6 5 15 -20 35 -18 15 -45 39 -60 53 -21 20 -28 23 -28 10z
m-72 -172 c7 -14 12 -30 12 -35 0 -17 -17 -11 -23 8 -2 9 -8 25 -12 35 -11 27
11 20 23 -8z m62 -62 c0 -37 -24 -22 -28 17 -3 30 -2 32 12 21 9 -8 16 -25 16
-38z m90 -5 c0 -30 -25 -15 -28 17 -3 25 -2 27 12 16 9 -8 16 -22 16 -33z
m-80 -74 c0 -8 -4 -12 -10 -9 -5 3 -10 10 -10 16 0 5 5 9 10 9 6 0 10 -7 10
-16z m-28 -49 c3 -14 2 -25 -1 -25 -11 0 -32 41 -26 51 9 14 22 2 27 -26z
m-47 -15 c3 -5 1 -10 -4 -10 -6 0 -11 5 -11 10 0 6 2 10 4 10 3 0 8 -4 11 -10z
m95 -31 c0 -11 -4 -17 -10 -14 -5 3 -10 13 -10 21 0 8 5 14 10 14 6 0 10 -9
10 -21z m24 -54 c3 -8 3 -21 0 -29 -3 -7 4 -42 15 -76 20 -60 20 -93 -1 -72
-16 16 -50 169 -41 185 7 12 20 8 27 -8z m-34 -201 c0 -18 -5 -25 -17 -22 -9
2 -18 9 -21 16 -2 7 2 10 12 6 11 -4 16 -1 16 10 0 9 2 16 5 16 3 0 5 -12 5
-26z m-2 -73 c3 -8 -1 -12 -9 -9 -7 2 -15 10 -17 17 -3 8 1 12 9 9 7 -2 15
-10 17 -17z"/>
<path d="M4130 2281 c0 -6 4 -13 10 -16 6 -3 7 1 4 9 -7 18 -14 21 -14 7z"/>
<path d="M4096 2231 c-4 -5 -2 -20 3 -33 9 -21 10 -21 10 10 1 32 -3 39 -13
23z"/>
<path d="M3948 2205 c-3 -14 -1 -28 3 -31 5 -3 9 9 9 25 0 38 -6 40 -12 6z"/>
<path d="M4054 2185 c13 -92 23 -135 35 -149 8 -10 9 -16 1 -21 -7 -4 -6 -15
3 -33 21 -41 37 -94 31 -103 -3 -5 -15 -4 -27 1 -17 8 -17 7 3 -7 14 -10 38
-30 53 -45 16 -16 33 -28 38 -28 15 0 10 18 -12 39 -11 10 -25 36 -29 57 -9
40 -5 58 9 36 4 -7 15 -10 25 -6 18 7 36 -9 36 -34 0 -9 -7 -11 -21 -7 -15 5
-20 3 -17 -6 3 -8 13 -16 24 -17 34 -6 59 -52 28 -52 -25 0 -12 -35 14 -36 12
-1 32 -10 43 -20 23 -20 32 -23 107 -28 55 -4 63 4 38 37 -7 9 -25 17 -38 17
-26 0 -39 20 -54 83 -7 32 9 36 38 10 20 -18 37 -11 20 9 -5 7 -10 24 -10 38
-1 41 -10 97 -21 132 -6 18 -11 51 -12 73 -3 53 -15 76 -36 68 -14 -5 -14 -8
-1 -17 8 -6 15 -20 16 -31 6 -64 18 -142 25 -151 4 -7 0 -17 -7 -24 -19 -15
-38 13 -61 90 -9 30 -18 60 -20 65 -7 21 -3 -72 4 -118 4 -26 5 -50 1 -52 -12
-7 -33 23 -25 35 8 13 -14 42 -26 35 -4 -3 -6 -12 -2 -20 3 -10 -1 -15 -11
-15 -9 0 -19 7 -22 15 -4 8 -16 15 -29 15 -19 0 -23 7 -28 48 -10 68 -12 81
-20 88 -10 10 -9 -36 2 -74 13 -43 -6 -43 -23 1 -8 17 -17 50 -20 72 -10 56
-30 84 -22 30z m134 -197 c7 -7 12 -20 12 -31 0 -17 -2 -17 -28 5 -19 15 -25
26 -18 30 15 10 20 10 34 -4z m173 -48 c20 -11 27 -44 7 -38 -13 5 -44 48 -34
48 4 0 16 -5 27 -10z m-61 -25 c7 -8 10 -21 7 -29 -3 -8 1 -20 9 -26 15 -14
19 -40 5 -40 -5 0 -14 7 -21 15 -7 8 -16 12 -22 9 -10 -7 -38 14 -38 28 0 6
11 7 26 4 21 -6 25 -4 20 8 -3 9 -9 23 -12 31 -8 19 10 19 26 0z m0 -115 c6
-11 7 -20 2 -20 -10 0 -32 21 -32 32 0 16 19 8 30 -12z m45 -20 c16 -17 16
-20 3 -15 -9 4 -19 13 -22 21 -7 19 -2 18 19 -6z m60 -30 c3 -5 -1 -10 -9 -10
-9 0 -16 5 -16 10 0 6 4 10 9 10 6 0 13 -4 16 -10z"/>
<path d="M4021 2140 c0 -69 20 -165 38 -182 11 -11 12 -9 8 7 -3 11 -11 58
-17 105 -16 112 -29 143 -29 70z"/>
<path d="M4480 2170 c0 -4 11 -10 25 -12 16 -3 25 -1 25 7 0 7 -11 13 -25 13
-14 0 -25 -4 -25 -8z"/>
<path d="M4385 2150 c3 -5 8 -10 11 -10 2 0 4 5 4 10 0 6 -5 10 -11 10 -5 0
-7 -4 -4 -10z"/>
<path d="M4471 2141 c-9 -6 -11 -18 -5 -42 8 -39 11 -58 17 -111 2 -21 9 -43
15 -50 5 -7 13 -44 16 -82 6 -64 32 -176 42 -176 5 0 -1 51 -9 70 -7 17 -28
156 -25 167 1 5 -2 19 -6 33 -8 29 -14 85 -15 153 -1 48 -5 53 -30 38z"/>
<path d="M4420 2125 c0 -9 5 -15 11 -13 6 2 11 8 11 13 0 5 -5 11 -11 13 -6 2
-11 -4 -11 -13z"/>
<path d="M4550 2110 c0 -5 5 -10 11 -10 5 0 7 5 4 10 -3 6 -8 10 -11 10 -2 0
-4 -4 -4 -10z"/>
<path d="M4427 2077 c-10 -26 -9 -97 3 -159 17 -86 44 -178 52 -178 11 0 10
15 -4 45 -9 20 -9 31 0 45 7 11 8 21 2 25 -8 5 -10 15 -10 68 0 12 -7 45 -15
72 -8 28 -16 61 -17 75 -3 21 -4 22 -11 7z"/>
<path d="M4570 2076 c0 -2 7 -17 15 -32 15 -29 22 -13 9 20 -5 14 -24 23 -24
12z"/>
<path d="M2886 2001 c-7 -11 25 -35 62 -46 24 -7 43 18 26 35 -15 14 -81 23
-88 11z"/>
<path d="M4547 1983 c-8 -13 3 -53 14 -53 5 0 9 -20 9 -44 0 -24 5 -46 11 -48
7 -2 7 -12 1 -29 -12 -30 -9 -77 6 -105 8 -16 18 -20 41 -16 25 3 32 0 42 -22
7 -14 16 -26 20 -26 17 0 15 27 -3 53 -20 28 -21 68 -2 74 10 3 22 -30 39
-111 4 -20 9 -26 16 -19 7 7 7 29 -1 69 -6 33 -12 68 -13 78 -2 23 -27 34 -27
12 0 -9 -8 -16 -19 -16 -13 0 -19 7 -19 23 -1 58 -15 117 -29 117 -9 0 -12 -6
-9 -17 3 -10 10 -38 15 -63 4 -25 9 -49 11 -55 5 -20 0 -45 -10 -45 -17 0 -39
44 -41 85 -1 22 -5 44 -8 50 -3 5 -7 28 -9 50 -3 40 -25 75 -35 58z"/>
<path d="M4627 1973 c-4 -3 -7 -11 -7 -17 0 -6 5 -5 12 2 6 6 9 14 7 17 -3 3
-9 2 -12 -2z"/>
<path d="M2857 1953 c-12 -11 -8 -18 24 -37 30 -18 59 -16 59 3 0 10 -51 41
-68 41 -5 0 -12 -3 -15 -7z"/>
<path d="M4790 1906 c0 -9 5 -16 10 -16 6 0 10 4 10 9 0 6 -4 13 -10 16 -5 3
-10 -1 -10 -9z"/>
<path d="M4970 1906 c0 -8 5 -18 10 -21 6 -3 10 3 10 14 0 12 -4 21 -10 21 -5
0 -10 -6 -10 -14z"/>
<path d="M4800 1871 c0 -5 5 -13 10 -16 6 -3 10 -2 10 4 0 5 -4 13 -10 16 -5
3 -10 2 -10 -4z"/>
<path d="M665 1728 c-72 -73 -143 -149 -157 -168 -25 -34 -27 -34 -51 -20 -73
44 -117 77 -159 117 -38 38 -51 44 -72 39 -38 -9 -226 -202 -226 -232 0 -13 4
-24 9 -24 4 0 53 47 108 105 55 58 107 105 115 105 9 0 23 -11 32 -24 8 -14
42 -42 73 -62 32 -21 98 -75 146 -121 75 -71 106 -92 211 -143 140 -68 201
-78 249 -40 l26 21 68 -30 c37 -16 80 -33 96 -36 15 -4 30 -11 33 -16 7 -12
-186 -11 -303 2 -104 11 -143 7 -143 -16 0 -16 16 -21 104 -30 33 -4 69 -10
80 -15 45 -17 -38 -24 -149 -12 -91 10 -122 18 -180 47 -77 38 -138 54 -203
55 -35 0 -43 -3 -40 -16 2 -12 29 -23 88 -39 47 -11 119 -35 160 -52 60 -24
96 -31 180 -36 129 -8 185 2 214 37 11 14 30 25 41 25 60 -2 293 15 308 23 26
13 20 37 -10 43 -70 15 -201 57 -281 91 -43 18 -84 18 -141 -3 -46 -16 -49
-16 -107 8 -52 21 -107 57 -221 145 -18 14 -33 33 -33 42 0 28 167 212 192
212 12 0 40 19 64 45 l43 45 35 -38 c18 -20 57 -64 86 -97 28 -33 59 -64 68
-69 9 -5 78 -71 152 -145 156 -157 214 -205 235 -197 22 8 18 24 -10 49 -45
39 -180 179 -180 187 0 8 112 100 122 100 4 0 25 -18 48 -40 78 -76 417 -310
450 -310 13 0 35 5 49 11 19 9 42 8 102 -6 54 -12 96 -15 137 -10 103 11 233
7 273 -10 29 -12 40 -13 51 -3 13 10 12 15 -8 30 -20 17 -41 19 -203 17 -109
-1 -206 4 -243 11 -35 7 -84 10 -110 7 -55 -6 -74 3 -229 110 -51 34 -95 63
-98 63 -11 0 -116 105 -116 117 0 21 -43 43 -85 43 -33 0 -53 -9 -107 -50 -37
-27 -70 -50 -75 -50 -13 0 -293 287 -293 299 0 6 -6 11 -14 11 -7 0 -19 7 -26
15 -7 8 -20 15 -28 15 -9 0 -75 -60 -147 -132z"/>
<path d="M707 1668 c-30 -39 -77 -168 -77 -208 0 -63 50 -37 69 37 7 23 25 74
41 112 17 38 30 75 30 80 0 23 -40 9 -63 -21z"/>
<path d="M4800 1659 c0 -15 7 -32 15 -39 19 -16 19 0 0 36 l-15 29 0 -26z"/>
<path d="M1309 1560 c-21 -12 -53 -85 -45 -105 10 -26 28 -13 58 42 22 40 25
53 15 61 -7 6 -18 7 -28 2z"/>
<path d="M4955 1540 c-3 -5 -1 -10 4 -10 6 0 11 5 11 10 0 6 -2 10 -4 10 -3 0
-8 -4 -11 -10z"/>
<path d="M13 1234 c-39 -17 27 -63 95 -65 32 -2 33 -2 7 -6 -16 -2 -49 -6 -73
-9 l-43 -5 2 -122 c1 -80 5 -124 12 -129 8 -5 11 -37 9 -96 -4 -101 7 -124 46
-96 20 14 22 24 22 105 l0 90 53 -6 c28 -3 66 -8 82 -10 45 -7 108 11 128 36
26 33 17 46 -47 69 -23 8 -26 13 -17 24 14 16 8 21 -35 30 -18 4 -34 15 -37
25 -4 18 -50 31 -114 31 -18 0 -33 5 -33 10 0 6 17 10 39 10 75 0 127 35 105
71 -16 27 -166 59 -201 43z m100 -181 c-7 -2 -19 -2 -25 0 -7 3 -2 5 12 5 14
0 19 -2 13 -5z m176 -92 c33 -9 37 -27 10 -41 -17 -9 -43 -9 -116 0 -99 13
-108 24 -32 39 53 11 105 11 138 2z"/>
<path d="M3800 1201 c0 -14 41 -19 196 -25 128 -4 171 2 143 20 -21 13 -339
18 -339 5z"/>
<path d="M1228 1077 c-60 -13 -85 -28 -74 -46 10 -16 42 -13 57 5 12 14 28 16
119 9 58 -4 339 -9 625 -12 286 -2 599 -5 695 -6 96 -1 238 1 315 5 151 8 492
13 695 10 110 -1 155 6 138 23 -6 6 -229 18 -328 18 -36 0 -231 -5 -435 -12
-203 -6 -422 -8 -485 -3 -63 4 -272 5 -465 2 -311 -5 -462 -2 -725 14 -41 3
-101 0 -132 -7z"/>
<path d="M417 1053 c-4 -3 -7 -9 -7 -13 0 -10 50 -31 60 -25 13 8 69 -16 64
-28 -2 -7 13 -22 34 -33 31 -18 56 -22 142 -24 182 -3 226 -1 357 15 137 17
183 29 166 46 -6 6 -42 6 -104 -1 -146 -17 -336 -25 -429 -20 -79 5 -85 6 -90
29 -5 21 -17 28 -75 43 -75 19 -108 22 -118 11z"/>
<path d="M3855 1049 c-8 -12 5 -16 70 -23 52 -6 99 4 85 17 -9 9 -151 14 -155
6z"/>
<path d="M1816 962 c-3 -6 -1 -14 4 -17 17 -11 860 -16 910 -6 62 12 45 13
-310 15 -162 1 -363 6 -446 10 -106 6 -153 6 -158 -2z"/>
<path d="M3473 961 c-126 -7 -146 -21 -31 -21 123 0 247 12 223 21 -22 8 -39
8 -192 0z"/>
<path d="M2800 950 c-12 -8 -9 -10 13 -10 15 0 27 5 27 10 0 13 -20 13 -40 0z"/>
<path d="M2872 951 c-11 -7 -10 -10 3 -15 25 -9 65 -7 65 4 0 6 -6 10 -14 10
-8 0 -20 2 -28 5 -7 3 -19 1 -26 -4z"/>
<path d="M3160 950 c36 -12 70 -12 70 0 0 6 -21 10 -47 9 -39 -1 -43 -2 -23
-9z"/>
<path d="M3720 950 c0 -5 5 -10 10 -10 6 0 10 5 10 10 0 6 -4 10 -10 10 -5 0
-10 -4 -10 -10z"/>
<path d="M1775 865 c-29 -20 -114 -30 -245 -28 -367 5 -464 3 -480 -12 -9 -8
-21 -15 -27 -15 -6 0 -16 -6 -22 -14 -17 -21 23 -46 74 -46 22 0 83 -7 135
-15 78 -11 97 -12 108 -1 11 11 11 16 -3 30 -13 13 -38 16 -118 17 -96 1 -100
1 -72 15 25 12 75 13 291 8 248 -5 265 -5 353 17 l92 22 217 -19 c170 -15 288
-18 547 -17 182 2 374 5 428 8 95 6 100 5 123 -18 32 -32 93 -47 142 -36 20 5
106 9 190 10 83 0 152 4 152 9 0 4 -73 10 -162 14 -229 9 -265 14 -271 37 -4
16 -16 19 -84 21 -43 1 -87 1 -98 1 -281 -9 -480 -16 -520 -19 -57 -4 -323 13
-405 26 -30 5 -116 12 -190 14 -107 4 -139 3 -155 -9z"/>
<path d="M147 853 c-17 -17 -6 -34 20 -31 36 4 45 38 10 38 -13 0 -27 -3 -30
-7z"/>
<path d="M846 421 c-3 -4 3 -16 14 -26 18 -16 19 -29 16 -162 -3 -159 -2 -163
56 -147 l30 9 -1 134 c-2 113 1 136 15 152 27 30 4 46 -66 48 -32 0 -61 -3
-64 -8z"/>
<path d="M1113 412 c-132 -45 -173 -221 -69 -295 26 -18 44 -22 113 -22 45 0
86 5 92 10 5 6 11 35 13 65 l3 55 -75 0 c-60 0 -75 -3 -75 -15 0 -10 12 -16
32 -18 19 -2 37 -11 43 -21 12 -24 4 -31 -35 -31 -29 0 -34 5 -49 43 -29 77
-19 150 24 172 24 12 30 12 56 -6 37 -24 40 -24 59 5 13 19 14 29 6 44 -13 25
-86 33 -138 14z"/>
<path d="M1542 420 c-18 -8 -21 -13 -13 -28 5 -10 6 -33 2 -52 -6 -33 -9 -35
-46 -35 l-40 0 -5 55 -5 55 -44 3 c-54 4 -77 -3 -63 -21 16 -19 18 -253 2
-272 -7 -8 -11 -17 -9 -20 12 -11 88 -21 108 -14 21 8 22 12 16 73 -10 87 -2
106 40 106 19 0 37 -5 41 -11 4 -7 6 -42 5 -79 -1 -45 2 -70 11 -77 15 -13
108 -5 108 8 0 5 -7 9 -15 9 -13 0 -15 21 -15 133 0 89 4 137 12 145 6 6 9 14
6 17 -11 11 -74 14 -96 5z"/>
<path d="M2818 419 c-10 -7 -8 -12 8 -23 30 -21 48 -69 40 -108 -10 -50 -43
-116 -49 -98 -42 127 -55 179 -51 196 5 20 0 22 -61 29 -83 8 -101 -3 -62 -39
15 -14 27 -31 27 -39 0 -15 63 -174 91 -228 19 -39 39 -52 64 -43 14 6 65 105
65 128 0 7 6 20 13 29 11 16 17 11 54 -46 68 -104 127 -115 164 -32 11 24 24
47 30 50 5 4 7 15 4 24 -7 25 41 153 65 173 18 15 19 18 5 26 -17 9 -100 0
-113 -12 -4 -4 0 -12 9 -17 15 -8 13 -18 -15 -104 -17 -52 -35 -95 -41 -95 -9
0 -96 141 -102 165 -6 24 19 41 65 44 6 1 12 7 12 15 0 12 -20 15 -104 14 -58
-1 -110 -5 -118 -9z"/>
<path d="M3300 418 c-23 -8 -25 -19 -8 -36 9 -9 7 -20 -5 -49 -9 -21 -28 -76
-43 -123 -14 -47 -33 -93 -41 -102 -13 -15 -13 -18 -2 -22 36 -11 75 -13 92
-4 18 9 18 11 2 28 -16 18 -16 22 0 71 l17 52 66 -7 c36 -4 68 -9 72 -11 4 -2
13 -23 20 -46 13 -38 12 -42 -5 -55 -37 -28 -3 -38 131 -38 135 -1 171 10 117
36 l-28 14 4 89 c1 50 5 92 7 94 8 9 41 -30 63 -74 28 -57 117 -155 141 -155
32 0 38 23 43 165 2 77 8 148 12 158 6 15 1 17 -43 17 -66 0 -84 -7 -73 -28
13 -26 23 -162 11 -162 -5 0 -17 15 -26 33 -9 17 -36 59 -60 93 l-43 60 -72 0
c-48 -1 -74 -5 -77 -13 -2 -7 3 -13 12 -13 8 0 18 -6 22 -12 11 -18 5 -261 -7
-273 -18 -18 -42 10 -59 71 -30 107 -90 234 -114 239 -42 9 -106 10 -126 3z
m102 -93 c12 -24 19 -47 16 -50 -3 -4 -22 -3 -42 0 -39 8 -45 24 -24 70 16 35
25 32 50 -20z"/>
<path d="M4000 421 c-13 -9 -12 -13 7 -26 22 -15 22 -21 20 -160 l-2 -145 52
-10 c182 -38 312 103 244 264 -12 27 -31 50 -48 59 -35 19 -251 32 -273 18z
m225 -64 c24 -24 35 -46 40 -79 13 -85 -15 -138 -83 -158 -41 -11 -62 8 -63
58 0 20 -2 73 -3 117 -2 44 -2 83 1 88 2 4 20 7 40 7 26 0 43 -8 68 -33z"/>
<path d="M4443 422 c-12 -2 -34 -17 -48 -34 -21 -24 -25 -40 -23 -72 l3 -41
84 -1 c79 -1 86 -2 108 -28 27 -32 30 -81 8 -113 -14 -19 -22 -22 -68 -17 -29
3 -53 9 -55 13 -18 52 -51 50 -99 -8 l-32 -39 122 3 c183 3 207 15 207 102 0
47 -4 59 -30 85 -29 29 -34 30 -89 24 -68 -8 -84 4 -79 56 2 28 7 34 30 36 22
3 30 -2 40 -22 21 -47 71 -28 66 25 l-3 34 -60 0 c-33 0 -70 -1 -82 -3z"/>
<path d="M1702 408 c-17 -17 -15 -68 4 -75 8 -3 25 4 39 17 13 12 31 20 42 18
16 -3 18 -15 18 -141 l0 -137 53 0 c57 0 61 6 41 57 -6 17 -8 63 -3 125 6 88
9 98 26 98 11 0 28 -10 37 -22 l18 -21 22 22 c13 13 21 32 19 44 -3 21 -7 22
-154 24 -104 2 -154 -1 -162 -9z"/>
<path d="M30 400 c0 -6 10 -14 23 -19 22 -9 23 -12 22 -143 0 -99 -4 -139 -14
-151 -19 -24 3 -30 65 -19 36 6 48 12 45 23 -3 8 -7 39 -9 70 -3 42 0 60 13
72 9 10 19 17 23 16 4 0 27 -30 51 -66 35 -53 42 -70 33 -84 -6 -9 -8 -19 -6
-22 7 -7 263 1 275 9 15 9 10 21 -11 27 -18 5 -20 14 -20 116 0 61 4 111 8
111 5 0 16 -15 25 -32 35 -66 118 -193 134 -205 22 -17 69 -17 80 0 4 6 8 68
9 137 0 69 4 135 8 148 7 21 5 22 -39 22 -41 0 -46 -2 -40 -17 12 -28 17 -170
7 -177 -5 -3 -33 33 -62 79 -29 47 -58 89 -64 94 -6 5 -44 12 -83 16 -64 6
-73 5 -73 -9 0 -9 7 -19 15 -22 12 -5 15 -29 15 -133 0 -134 -5 -151 -46 -151
-17 0 -42 26 -98 100 -42 56 -76 104 -76 108 0 11 72 66 93 72 23 6 24 24 2
28 -29 6 -85 -8 -85 -21 0 -13 -70 -87 -83 -87 -16 0 -6 68 13 85 11 10 17 22
14 26 -8 13 -164 11 -164 -1z"/>
<path d="M2303 355 c-51 -22 -52 -66 -4 -133 11 -15 26 -48 32 -73 11 -41 10
-50 -4 -73 -10 -14 -24 -26 -32 -26 -8 0 -15 -6 -15 -13 0 -19 21 -37 43 -37
14 0 18 5 14 20 -3 14 5 27 30 46 34 26 35 29 31 79 -4 52 -4 53 24 59 31 6
36 29 14 59 -15 20 -38 22 -65 5 -15 -9 -23 -9 -36 2 -23 19 -15 54 13 58 25
4 30 27 6 36 -9 3 -16 6 -17 6 -1 -1 -16 -7 -34 -15z"/>
<path d="M2137 206 c-51 -23 -61 -62 -26 -97 18 -18 28 -20 72 -14 63 8 77 19
77 60 0 58 -55 81 -123 51z m53 -41 c7 -8 9 -22 6 -31 -6 -15 -8 -15 -26 1
-11 10 -20 24 -20 32 0 18 25 17 40 -2z"/>
<path d="M4717 143 c-14 -14 -7 -63 9 -63 19 0 57 19 66 34 16 25 -53 52 -75
29z"/>
</g>
</svg>
